<svg xmlns="http://www.w3.org/2000/svg" viewBox="0 0 153 35"><title>get started today</title><g id="Layer_2" data-name="Layer 2"><g id="CTA"><g id="Rectangle_1" data-name="Rectangle 1"><rect width="153" height="35" fill="none"/></g><g id="Get_started_today" data-name="Get started today"><path d="M12.2,16.33V16.2A5.61,5.61,0,0,1,18,10.36c2.55,0,4.82,1.17,5.09,4H20.54a2.22,2.22,0,0,0-2.48-1.95c-2,0-3.16,1.49-3.16,3.82v.13c0,2.21.95,3.79,3.19,3.79a2.41,2.41,0,0,0,2.75-2.41H18.26V15.85H23.4v1.22c0,3.05-1.95,5.09-5.38,5.09C14.28,22.16,12.2,19.72,12.2,16.33Z" fill="#262626"/><path d="M24.31,17.9v-.13a4.15,4.15,0,0,1,4.31-4.35c2.16,0,4.08,1.26,4.08,4.25v.64h-6c.07,1.4.82,2.2,2.08,2.2,1.08,0,1.6-.47,1.75-1.17h2.19c-.27,1.81-1.71,2.82-4,2.82A4.07,4.07,0,0,1,24.31,17.9Zm6.13-1c-.08-1.27-.72-1.87-1.82-1.87a1.93,1.93,0,0,0-1.93,1.87Z" fill="#262626"/><path d="M34.33,19.5V15.26H33.25V13.61h1.08V11.8h2.3v1.81h1.76v1.65H36.63v4c0,.67.34,1,.93,1a2.19,2.19,0,0,0,.88-.16v1.8a4.32,4.32,0,0,1-1.41.22A2.38,2.38,0,0,1,34.33,19.5Z" fill="#262626"/><path d="M42.47,19.35h2.16c.09.76.46,1.19,1.47,1.19s1.31-.34,1.31-.91-.49-.82-1.69-1c-2.23-.33-3.09-1-3.09-2.6s1.6-2.61,3.31-2.61,3.25.67,3.46,2.59H47.27A1.13,1.13,0,0,0,46,15c-.75,0-1.19.35-1.19.87s.4.73,1.62.91c2.1.3,3.25.83,3.25,2.62s-1.31,2.76-3.52,2.76S42.55,21.16,42.47,19.35Z" fill="#262626"/><path d="M51.22,19.5V15.26H50.15V13.61h1.07V11.8h2.31v1.81h1.76v1.65H53.53v4c0,.67.33,1,.92,1a2.16,2.16,0,0,0,.88-.16v1.8a4.25,4.25,0,0,1-1.4.22A2.39,2.39,0,0,1,51.22,19.5Z" fill="#262626"/><path d="M56.16,19.66c0-1.95,1.8-2.69,4.36-2.69h.94v-.34c0-1-.3-1.53-1.36-1.53a1.25,1.25,0,0,0-1.42,1.18h-2.2c.15-2,1.72-2.86,3.77-2.86s3.5.83,3.5,3.1V22H61.49V21A2.85,2.85,0,0,1,59,22.16C57.44,22.16,56.16,21.42,56.16,19.66Zm5.3-.61v-.7h-.89c-1.35,0-2.13.28-2.13,1.18,0,.61.36,1,1.21,1C60.68,20.54,61.46,20,61.46,19.05Z" fill="#262626"/><path d="M65.49,13.61h2.32v1.6a2.76,2.76,0,0,1,2.71-1.73v2.16c-1.71,0-2.71.55-2.71,2.15V22H65.49Z" fill="#262626"/><path d="M72.26,19.5V15.26H71.19V13.61h1.07V11.8h2.31v1.81h1.76v1.65H74.57v4c0,.67.33,1,.92,1a2.16,2.16,0,0,0,.88-.16v1.8a4.25,4.25,0,0,1-1.4.22A2.39,2.39,0,0,1,72.26,19.5Z" fill="#262626"/><path d="M77.19,17.9v-.13a4.15,4.15,0,0,1,4.3-4.35c2.16,0,4.09,1.26,4.09,4.25v.64h-6a2,2,0,0,0,2.08,2.2c1.07,0,1.6-.47,1.75-1.17h2.19c-.27,1.81-1.71,2.82-4,2.82A4.07,4.07,0,0,1,77.19,17.9Zm6.13-1C83.24,15.62,82.6,15,81.49,15a1.92,1.92,0,0,0-1.92,1.87Z" fill="#262626"/><path d="M86.36,17.91v-.12c0-2.76,1.58-4.37,3.68-4.37a2.79,2.79,0,0,1,2.64,1.44v-5H95V22h-2.3V20.59A3,3,0,0,1,90,22.16C88,22.16,86.36,20.7,86.36,17.91Zm6.38-.08v-.12c0-1.67-.73-2.52-2-2.52s-2,.88-2,2.55v.13c0,1.66.8,2.48,2,2.48S92.74,19.53,92.74,17.83Z" fill="#262626"/><path d="M100.47,19.5V15.26H99.39V13.61h1.08V11.8h2.3v1.81h1.76v1.65h-1.76v4c0,.67.34,1,.93,1a2.19,2.19,0,0,0,.88-.16v1.8a4.27,4.27,0,0,1-1.41.22A2.38,2.38,0,0,1,100.47,19.5Z" fill="#262626"/><path d="M105.39,17.88v-.13a4.2,4.2,0,0,1,4.42-4.33,4.15,4.15,0,0,1,4.4,4.29v.12a4.41,4.41,0,0,1-8.82.05Zm6.47,0v-.11c0-1.6-.75-2.56-2-2.56s-2,.93-2,2.53v.12c0,1.6.74,2.56,2,2.56S111.86,19.43,111.86,17.85Z" fill="#262626"/><path d="M115,17.91v-.12c0-2.76,1.58-4.37,3.68-4.37a2.78,2.78,0,0,1,2.64,1.44v-5h2.3V22h-2.3V20.59a3,3,0,0,1-2.69,1.57C116.63,22.16,115,20.7,115,17.91Zm6.38-.08v-.12c0-1.67-.73-2.52-2-2.52s-2,.88-2,2.55v.13c0,1.66.8,2.48,1.95,2.48S121.41,19.53,121.41,17.83Z" fill="#262626"/><path d="M124.93,19.66c0-1.95,1.79-2.69,4.36-2.69h.94v-.34c0-1-.3-1.53-1.36-1.53a1.27,1.27,0,0,0-1.43,1.18h-2.19c.15-2,1.71-2.86,3.76-2.86s3.51.83,3.51,3.1V22h-2.26V21a2.86,2.86,0,0,1-2.53,1.19C126.21,22.16,124.93,21.42,124.93,19.66Zm5.3-.61v-.7h-.9c-1.34,0-2.13.28-2.13,1.18,0,.61.37,1,1.22,1C129.45,20.54,130.23,20,130.23,19.05Z" fill="#262626"/><path d="M136.52,21.13l-3.33-7.52h2.49l2,5,1.87-5h2.22l-4.53,11.22H135Z" fill="#262626"/></g></g></g></svg>