<svg xmlns="http://www.w3.org/2000/svg" viewBox="0 0 300 250"><title>H6</title><g id="Layer_2" data-name="Layer 2"><g id="Artboard_1" data-name="Artboard 1" style="isolation:isolate"><g id="headline1"><g id="Tax_prep_delivered_many_ways._Drop_off_try_Tax_Pro_Go_or_file" data-name="Tax prep delivered many ways. Drop off, try Tax Pro Go, or file"><path d="M26.93,28.48H21.6V23.93H38.2v4.55H32.87V44.53H26.93Z" fill="#fff"/><path d="M37.16,40.35c0-3.54,3-4.92,8-4.92h1.44v-.35c0-1.44-.34-2.39-2-2.39a1.86,1.86,0,0,0-2.05,1.79H37.74c.23-3.63,3.08-5.42,7.2-5.42s6.8,1.7,6.8,5.7v9.77h-5V42.77a5,5,0,0,1-4.47,2.11C39.56,44.88,37.16,43.55,37.16,40.35Zm9.45-1.09v-.92H45.26c-2.07,0-3,.4-3,1.64,0,.86.58,1.41,1.79,1.41C45.52,41.39,46.61,40.55,46.61,39.26Z" fill="#fff"/><path d="M58.05,36.87l-4.69-7.41h5.93l2.34,4,2.27-4h5.3l-4.75,7,5.21,8.07H63.73L61.05,40l-2.74,4.49H53Z" fill="#fff"/><path d="M76.35,29.46h5.16v2.25a5.31,5.31,0,0,1,4.69-2.65c3.52,0,6.37,2.65,6.37,7.81v.23c0,5.18-2.85,7.78-6.4,7.78a5,5,0,0,1-4.66-2.57v7.26H76.35Zm11,7.64v-.23c0-2.65-1.16-3.92-3-3.92s-3,1.35-3,3.89v.23c0,2.56,1.13,3.86,3,3.86S87.33,39.58,87.33,37.1Z" fill="#fff"/><path d="M94.45,29.46H99.6v3a4.75,4.75,0,0,1,4.87-3.2v4.81c-3.14-.08-4.87.9-4.87,3.32v7.14H94.45Z" fill="#fff"/><path d="M105.4,37.18V37c0-4.84,3.6-7.89,8.15-7.89,4.12,0,7.66,2.36,7.66,7.78v1.35h-10.6a3,3,0,0,0,3.14,3.14c1.7,0,2.42-.78,2.62-1.78h4.84c-.46,3.4-3.08,5.33-7.63,5.33C108.85,44.88,105.4,42.11,105.4,37.18Zm10.8-1.9c-.09-1.81-1-2.82-2.65-2.82s-2.62,1-2.88,2.82Z" fill="#fff"/><path d="M123,29.46h5.16v2.25a5.31,5.31,0,0,1,4.69-2.65c3.52,0,6.37,2.65,6.37,7.81v.23c0,5.18-2.85,7.78-6.4,7.78a5,5,0,0,1-4.66-2.57v7.26H123Zm11,7.64v-.23c0-2.65-1.16-3.92-3-3.92s-3,1.35-3,3.89v.23c0,2.56,1.13,3.86,3,3.86S134,39.58,134,37.1Z" fill="#fff"/><path d="M145.59,37.16v-.24c0-5.12,2.82-7.86,6.4-7.86a4.87,4.87,0,0,1,4.63,2.54V22.84h5.16V44.53h-5.16V42.08a5.06,5.06,0,0,1-4.69,2.8C148.44,44.88,145.59,42.37,145.59,37.16Zm11.18-.09v-.23c0-2.54-1.07-3.89-3-3.89s-3,1.3-3,3.92v.23c0,2.53,1.13,3.83,2.91,3.83S156.77,39.63,156.77,37.07Z" fill="#fff"/><path d="M163.6,37.18V37c0-4.84,3.6-7.89,8.15-7.89,4.12,0,7.66,2.36,7.66,7.78v1.35h-10.6c.15,2,1.3,3.14,3.14,3.14s2.42-.78,2.62-1.78h4.84c-.46,3.4-3.08,5.33-7.63,5.33C167.05,44.88,163.6,42.11,163.6,37.18Zm10.8-1.9c-.09-1.81-1-2.82-2.65-2.82s-2.62,1-2.88,2.82Z" fill="#fff"/><path d="M181.35,22.84h5.12V44.53h-5.12Z" fill="#fff"/><path d="M189.13,25.37A2.84,2.84,0,1,1,192,28,2.67,2.67,0,0,1,189.13,25.37Zm.25,4.09h5.16V44.53h-5.16Z" fill="#fff"/><path d="M196,29.46h5.5l3.14,9.71,3.09-9.71h4.92l-5.5,15.07h-5.62Z" fill="#fff"/><path d="M212.35,37.18V37c0-4.84,3.6-7.89,8.15-7.89,4.12,0,7.67,2.36,7.67,7.78v1.35H217.56c.15,2,1.3,3.14,3.14,3.14s2.42-.78,2.63-1.78h4.84c-.47,3.4-3.09,5.33-7.64,5.33C215.81,44.88,212.35,42.11,212.35,37.18Zm10.8-1.9c-.08-1.81-1-2.82-2.65-2.82s-2.62,1-2.88,2.82Z" fill="#fff"/><path d="M230,29.46h5.16v3a4.75,4.75,0,0,1,4.87-3.2v4.81c-3.14-.08-4.87.9-4.87,3.32v7.14H230Z" fill="#fff"/><path d="M240.9,37.18V37c0-4.84,3.6-7.89,8.16-7.89,4.12,0,7.66,2.36,7.66,7.78v1.35h-10.6a3,3,0,0,0,3.14,3.14c1.7,0,2.42-.78,2.62-1.78h4.84c-.46,3.4-3.08,5.33-7.63,5.33C244.36,44.88,240.9,42.11,240.9,37.18Zm10.81-1.9c-.09-1.81-1-2.82-2.65-2.82s-2.62,1-2.88,2.82Z" fill="#fff"/><path d="M257.76,37.16v-.24c0-5.12,2.82-7.86,6.39-7.86a4.87,4.87,0,0,1,4.64,2.54V22.84H274V44.53h-5.16V42.08a5.07,5.07,0,0,1-4.69,2.8C260.61,44.88,257.76,42.37,257.76,37.16Zm11.18-.09v-.23c0-2.54-1.07-3.89-3-3.89s-3,1.3-3,3.92v.23c0,2.53,1.13,3.83,2.91,3.83S268.94,39.63,268.94,37.07Z" fill="#fff"/><path d="M22.53,61h5.15v2.3a5.27,5.27,0,0,1,4.73-2.7,4.1,4.1,0,0,1,4.09,2.5,6,6,0,0,1,5-2.5c2.85,0,4.93,1.84,4.93,5.61V76H41.25v-9c0-1.53-.75-2.28-1.93-2.28A2.24,2.24,0,0,0,37,67.31V76h-5.1v-9c0-1.53-.75-2.28-1.93-2.28a2.24,2.24,0,0,0-2.31,2.54V76H22.53Z" fill="#fff"/><path d="M48.06,71.86c0-3.54,3-4.93,8-4.93h1.45v-.34c0-1.44-.35-2.39-2-2.39A1.85,1.85,0,0,0,53.47,66H48.63c.23-3.63,3.08-5.41,7.2-5.41s6.8,1.7,6.8,5.7V76h-5V74.28a5,5,0,0,1-4.46,2.1C50.45,76.38,48.06,75.06,48.06,71.86Zm9.45-1.1v-.92H56.15c-2.07,0-3,.41-3,1.64,0,.87.57,1.42,1.78,1.42C56.41,72.9,57.51,72.06,57.51,70.76Z" fill="#fff"/><path d="M65.14,61H70.3v2.42a5.31,5.31,0,0,1,5-2.82c2.91,0,4.93,1.81,4.93,5.67V76H75V67.28c0-1.7-.66-2.54-2.16-2.54s-2.56.93-2.56,2.86V76H65.14Z" fill="#fff"/><path d="M86.9,74.51,80.88,61h5.58l3.12,8,2.88-8h4.92L89.32,81.08H84.39Z" fill="#fff"/><path d="M102.69,61h5.38l2.19,9,2.54-9H117l2.24,9,2.45-9h4.9L121.76,76h-4.93l-2.25-8.42L112.25,76h-5Z" fill="#fff"/><path d="M126.43,71.86c0-3.54,3-4.93,8-4.93h1.44v-.34c0-1.44-.35-2.39-2-2.39a1.84,1.84,0,0,0-2,1.78H127c.23-3.63,3.08-5.41,7.2-5.41s6.8,1.7,6.8,5.7V76h-5V74.28a5,5,0,0,1-4.46,2.1C128.82,76.38,126.43,75.06,126.43,71.86Zm9.45-1.1v-.92h-1.36c-2.07,0-3,.41-3,1.64,0,.87.57,1.42,1.78,1.42C134.78,72.9,135.88,72.06,135.88,70.76Z" fill="#fff"/><path d="M147.72,74.51,141.7,61h5.59l3.11,8,2.88-8h4.93l-8.07,20.11h-4.92Z" fill="#fff"/><path d="M158.44,71.25h4.75c.18,1.1.67,1.7,2.14,1.7,1.26,0,1.84-.49,1.84-1.24s-.72-1.06-2.79-1.35c-4-.52-5.74-1.7-5.74-4.84,0-3.34,3-4.95,6.46-4.95,3.71,0,6.3,1.26,6.65,4.86h-4.67a1.68,1.68,0,0,0-1.93-1.49c-1.12,0-1.7.49-1.7,1.18s.69,1,2.54,1.24c4.18.52,6.19,1.61,6.19,4.84,0,3.57-2.65,5.18-6.83,5.18S158.56,74.6,158.44,71.25Z" fill="#fff"/><path d="M173.65,73.44a2.88,2.88,0,0,1,2.94-2.91,2.91,2.91,0,1,1,0,5.82A2.87,2.87,0,0,1,173.65,73.44Z" fill="#fff"/><path d="M187.74,55.44h7.49c7.32,0,11,3.66,11,10v.23c0,6.43-3.81,10.32-11.06,10.32h-7.47Zm7.29,16c3.52,0,5.07-1.84,5.07-5.67v-.23c0-3.92-1.55-5.59-5.13-5.59h-1.29V71.48Z" fill="#fff"/><path d="M208.26,61h5.16v3a4.74,4.74,0,0,1,4.86-3.2v4.81c-3.14-.09-4.86.89-4.86,3.31V76h-5.16Z" fill="#fff"/><path d="M219.21,68.69v-.23c0-4.84,3.6-7.89,8.27-7.89s8.21,3,8.21,7.75v.23c0,4.89-3.61,7.83-8.24,7.83S219.21,73.56,219.21,68.69Zm11.23-.09v-.23c0-2.53-1-3.94-3-3.94s-3,1.35-3,3.89v.23c0,2.59,1,4,3,4S230.44,71.11,230.44,68.6Z" fill="#fff"/><path d="M237.5,61h5.16v2.25a5.33,5.33,0,0,1,4.7-2.65c3.51,0,6.36,2.65,6.36,7.8v.23c0,5.19-2.85,7.78-6.39,7.78a5,5,0,0,1-4.67-2.56v7.26H237.5Zm11,7.63v-.23c0-2.65-1.15-3.91-3-3.91s-3,1.35-3,3.88v.23c0,2.57,1.12,3.87,3,3.87S248.48,71.08,248.48,68.6Z" fill="#fff"/><path d="M21.72,100.2V100c0-4.84,3.6-7.9,8.27-7.9s8.21,3,8.21,7.75v.23c0,4.9-3.6,7.84-8.24,7.84S21.72,105.06,21.72,100.2ZM33,100.11v-.23c0-2.54-1-3.95-3-3.95s-3,1.36-3,3.89v.23c0,2.6,1,4,3,4S33,102.62,33,100.11Z" fill="#fff"/><path d="M40.79,96h-1.9V92.48h1.9V91.32c0-3.74,2.31-5.5,5.88-5.5a8.85,8.85,0,0,1,2.31.29v3.77a4.77,4.77,0,0,0-1.39-.2,1.51,1.51,0,0,0-1.67,1.64v1.16H50.3V91.15c0-3.74,2.36-5.53,5.91-5.53a8.86,8.86,0,0,1,2.36.32v3.77a4.64,4.64,0,0,0-1.41-.2,1.5,1.5,0,0,0-1.7,1.64v1.33h3V96h-3v11.55H50.3V96H45.92v11.55H40.79Z" fill="#fff"/><path d="M57.42,109.88l2.42-7.58,4.78,1.7-4.15,7.06Z" fill="#fff"/><path d="M72.81,102.7V96H71V92.48h1.82V89.34H78v3.14h3V96H78v6.22c0,1.1.55,1.59,1.53,1.59a4,4,0,0,0,1.47-.26v3.92a10.92,10.92,0,0,1-2.85.43C74.71,107.89,72.81,106.25,72.81,102.7Z" fill="#fff"/><path d="M82.89,92.48h5.16v3a4.75,4.75,0,0,1,4.87-3.2v4.81c-3.14-.08-4.87.9-4.87,3.32v7.14H82.89Z" fill="#fff"/><path d="M99.75,106l-6-13.54h5.59l3.11,8,2.89-8h4.92l-8.06,20.1H97.24Z" fill="#fff"/><path d="M121.21,91.5h-5.33V86.94h16.6V91.5h-5.33v16h-5.94Z" fill="#fff"/><path d="M131.44,103.37c0-3.55,3-4.93,8-4.93h1.44v-.35c0-1.44-.34-2.39-2-2.39a1.85,1.85,0,0,0-2,1.79H132c.23-3.63,3.08-5.42,7.2-5.42s6.8,1.7,6.8,5.71v9.76h-5v-1.75a5,5,0,0,1-4.47,2.1C133.83,107.89,131.44,106.56,131.44,103.37Zm9.45-1.1v-.92h-1.35c-2.08,0-3,.4-3,1.64,0,.86.58,1.41,1.79,1.41C139.8,104.4,140.89,103.57,140.89,102.27Z" fill="#fff"/><path d="M152.33,99.88l-4.7-7.4h5.94l2.33,4,2.28-4h5.3l-4.75,7,5.21,8.06H158l-2.68-4.49-2.74,4.49h-5.27Z" fill="#fff"/><path d="M171.09,86.94h7.83c5.65,0,8.27,2.51,8.27,6.89v.11c0,4.33-2.91,6.66-8,6.66H177v6.94h-5.87Zm7.58,9.63c1.9,0,2.9-.9,2.9-2.6v-.11c0-1.76-1-2.48-2.88-2.48H177v5.19Z" fill="#fff"/><path d="M189,92.48h5.16v3a4.75,4.75,0,0,1,4.87-3.2v4.81c-3.14-.08-4.87.9-4.87,3.32v7.14H189Z" fill="#fff"/><path d="M199.93,100.2V100c0-4.84,3.6-7.9,8.27-7.9s8.21,3,8.21,7.75v.23c0,4.9-3.6,7.84-8.24,7.84S199.93,105.06,199.93,100.2Zm11.24-.09v-.23c0-2.54-1-3.95-3-3.95s-3,1.36-3,3.89v.23c0,2.6,1,4,3,4S211.17,102.62,211.17,100.11Z" fill="#fff"/><path d="M222.84,97.37v-.23c0-6.28,4.61-10.51,10.8-10.51,4.87,0,9.19,2.22,9.59,7.57h-5.84c-.29-1.93-1.53-2.93-3.72-2.93-2.91,0-4.67,2.24-4.67,6v.23c0,3.34,1.24,5.93,4.81,5.93,2.88,0,4-1.47,4.09-3.11H234V96.16h9.68V98.7c0,5.24-3.43,9.19-10.08,9.19C226.64,107.89,222.84,103.54,222.84,97.37Z" fill="#fff"/><path d="M244.91,100.2V100c0-4.84,3.6-7.9,8.27-7.9s8.21,3,8.21,7.75v.23c0,4.9-3.6,7.84-8.24,7.84S244.91,105.06,244.91,100.2Zm11.23-.09v-.23c0-2.54-1-3.95-3-3.95s-3,1.36-3,3.89v.23c0,2.6,1,4,3,4S256.14,102.62,256.14,100.11Z" fill="#fff"/><path d="M261.5,109.88l2.42-7.58,4.79,1.7-4.15,7.06Z" fill="#fff"/><path d="M21.72,131.7v-.23c0-4.84,3.6-7.89,8.27-7.89s8.21,3,8.21,7.75v.23c0,4.9-3.6,7.83-8.24,7.83S21.72,136.57,21.72,131.7ZM33,131.62v-.23c0-2.54-1-3.95-3-3.95s-3,1.35-3,3.89v.23c0,2.59,1,4,3,4S33,134.12,33,131.62Z" fill="#fff"/><path d="M40,124h5.15v3a4.75,4.75,0,0,1,4.87-3.2v4.81c-3.14-.09-4.87.89-4.87,3.31v7.15H40Z" fill="#fff"/><path d="M57.94,127.5H56V124h1.9v-1.32c0-3.75,2.33-5.53,5.9-5.53a9.4,9.4,0,0,1,2.37.31v3.78a4.63,4.63,0,0,0-1.42-.21,1.51,1.51,0,0,0-1.72,1.65V124h3.05v3.52H63.07v11.55H57.94Z" fill="#fff"/><path d="M67.73,119.89a2.85,2.85,0,1,1,2.83,2.65A2.69,2.69,0,0,1,67.73,119.89ZM68,124h5.16v15.07H68Z" fill="#fff"/><path d="M76.06,117.36h5.13v21.69H76.06Z" fill="#fff"/><path d="M83.15,131.7v-.23c0-4.84,3.6-7.89,8.15-7.89,4.12,0,7.67,2.36,7.67,7.78v1.35H88.36c.15,2,1.3,3.14,3.14,3.14s2.42-.78,2.63-1.79H99c-.47,3.4-3.09,5.33-7.64,5.33C86.61,139.39,83.15,136.63,83.15,131.7ZM94,129.8C93.87,128,93,127,91.3,127s-2.62,1-2.88,2.82Z" fill="#fff"/><path d="M105.19,131.7v-.23c0-4.84,3.6-7.89,8.27-7.89s8.21,3,8.21,7.75v.23c0,4.9-3.6,7.83-8.24,7.83S105.19,136.57,105.19,131.7Zm11.24-.08v-.23c0-2.54-1-3.95-3-3.95s-3,1.35-3,3.89v.23c0,2.59,1,4,3,4S116.43,134.12,116.43,131.62Z" fill="#fff"/><path d="M123.49,124h5.16v2.42a5.31,5.31,0,0,1,4.95-2.82c2.91,0,4.93,1.81,4.93,5.67v9.8h-5.16v-8.76c0-1.7-.66-2.53-2.16-2.53s-2.56.92-2.56,2.85v8.44h-5.16Z" fill="#fff"/><path d="M141.18,117.36h5.13v21.69h-5.13Z" fill="#fff"/><path d="M149,119.89a2.84,2.84,0,1,1,2.82,2.65A2.69,2.69,0,0,1,149,119.89Zm.26,4.09h5.16v15.07h-5.16Z" fill="#fff"/><path d="M157.14,124h5.16v2.42a5.33,5.33,0,0,1,4.95-2.82c2.91,0,4.93,1.81,4.93,5.67v9.8H167v-8.76c0-1.7-.66-2.53-2.16-2.53s-2.56.92-2.56,2.85v8.44h-5.16Z" fill="#fff"/><path d="M173.88,131.7v-.23c0-4.84,3.6-7.89,8.16-7.89,4.11,0,7.66,2.36,7.66,7.78v1.35H179.1a3,3,0,0,0,3.14,3.14c1.7,0,2.42-.78,2.62-1.79h4.84c-.46,3.4-3.08,5.33-7.64,5.33C177.34,139.39,173.88,136.63,173.88,131.7Zm10.81-1.9c-.09-1.81-1-2.82-2.65-2.82s-2.63,1-2.89,2.82Z" fill="#fff"/><path d="M191.14,136.46a2.87,2.87,0,0,1,2.94-2.91,2.91,2.91,0,1,1,0,5.82A2.88,2.88,0,0,1,191.14,136.46Z" fill="#fff"/><rect width="300" height="250" fill="none"/></g></g></g></g></svg>