<svg xmlns="http://www.w3.org/2000/svg" viewBox="0 0 728 90"><title>135</title><g id="Layer_2" data-name="Layer 2"><g id="Rect"><rect width="728" height="90" fill="none"/></g><g id="_135" data-name="135"><g id="_Our_choice_for_value_support_and_modern_features._" data-name="&quot;Our choice for value, support and modern features.&quot;"><path d="M105.37,25h4.26l-.53,7h-3.22Zm5.38,0H115l-.53,7h-3.22Z" fill="#fff"/><path d="M116.5,34.15v-.21c0-5.52,4.16-9.23,9.59-9.23s9.61,3.48,9.61,9.11V34c0,5.58-3.83,9.38-9.68,9.38S116.5,39.6,116.5,34.15Zm13.78,0v-.21c0-3.22-1.63-5.12-4.19-5.12s-4.16,1.85-4.16,5.15v.2c0,3.3,1.68,5.2,4.19,5.2S130.28,37.34,130.28,34.1Z" fill="#fff"/><path d="M137.73,38.48V29.84h4.54v7.91c0,1.5.59,2.23,1.88,2.23s2.26-.81,2.26-2.51V29.84H151V43.1h-4.54V41.05a4.36,4.36,0,0,1-4.21,2.35C139.64,43.4,137.73,41.83,137.73,38.48Z" fill="#fff"/><path d="M153.64,29.84h4.54v2.63a4.17,4.17,0,0,1,4.28-2.81v4.23c-2.76-.07-4.28.79-4.28,2.92V43.1h-4.54Z" fill="#fff"/><path d="M168.78,36.63v-.2c0-4.41,3.17-6.95,7.08-6.95,3.24,0,6.23,1.42,6.49,5.45h-4.26A2,2,0,0,0,176,33c-1.6,0-2.54,1.14-2.54,3.37v.2c0,2.31.89,3.5,2.61,3.5a2.21,2.21,0,0,0,2.31-2.2h4.08c-.12,3.34-2.38,5.52-6.67,5.52C171.8,43.4,168.78,41.1,168.78,36.63Z" fill="#fff"/><path d="M184.28,24h4.54v8a4.68,4.68,0,0,1,4.36-2.49c2.56,0,4.34,1.6,4.34,5V43.1H193V35.39c0-1.5-.59-2.23-1.91-2.23s-2.25.81-2.25,2.51V43.1h-4.54Z" fill="#fff"/><path d="M199.4,36.63v-.2c0-4.26,3.17-6.95,7.27-6.95s7.23,2.61,7.23,6.82v.21c0,4.31-3.17,6.89-7.25,6.89S199.4,40.92,199.4,36.63Zm9.89-.07v-.21c0-2.23-.89-3.47-2.62-3.47S204,34.07,204,36.3v.21c0,2.28.88,3.52,2.63,3.52S209.29,38.76,209.29,36.56Z" fill="#fff"/><path d="M215.78,26.24a2.51,2.51,0,1,1,2.49,2.33A2.37,2.37,0,0,1,215.78,26.24Zm.23,3.6h4.54V43.1H216Z" fill="#fff"/><path d="M222.65,36.63v-.2c0-4.41,3.18-6.95,7.08-6.95,3.25,0,6.24,1.42,6.49,5.45H232A2,2,0,0,0,229.83,33c-1.6,0-2.53,1.14-2.53,3.37v.2c0,2.31.88,3.5,2.61,3.5a2.21,2.21,0,0,0,2.31-2.2h4.08c-.13,3.34-2.38,5.52-6.67,5.52C225.67,43.4,222.65,41.1,222.65,36.63Z" fill="#fff"/><path d="M237.44,36.63v-.2c0-4.26,3.17-6.95,7.18-6.95,3.63,0,6.75,2.08,6.75,6.85v1.19H242a2.65,2.65,0,0,0,2.77,2.76c1.49,0,2.13-.68,2.3-1.57h4.27c-.41,3-2.72,4.69-6.72,4.69C240.49,43.4,237.44,41,237.44,36.63ZM247,35c-.07-1.6-.86-2.49-2.33-2.49A2.53,2.53,0,0,0,242.08,35Z" fill="#fff"/><path d="M259,32.93h-1.67V29.84H259V28.67c0-3.3,2.06-4.87,5.2-4.87a8.18,8.18,0,0,1,2.08.28V27.4a4.23,4.23,0,0,0-1.24-.18,1.33,1.33,0,0,0-1.52,1.45v1.17h2.68v3.09h-2.68V43.1H259Z" fill="#fff"/><path d="M266.94,36.63v-.2c0-4.26,3.17-6.95,7.28-6.95s7.23,2.61,7.23,6.82v.21c0,4.31-3.17,6.89-7.26,6.89S266.94,40.92,266.94,36.63Zm9.89-.07v-.21c0-2.23-.89-3.47-2.61-3.47s-2.64,1.19-2.64,3.42v.21c0,2.28.89,3.52,2.64,3.52S276.83,38.76,276.83,36.56Z" fill="#fff"/><path d="M283.43,29.84H288v2.63a4.17,4.17,0,0,1,4.28-2.81v4.23c-2.76-.07-4.28.79-4.28,2.92V43.1h-4.54Z" fill="#fff"/><path d="M298.14,29.84H303l2.77,8.54,2.71-8.54h4.34L308,43.1H303Z" fill="#fff"/><path d="M313,39.42c0-3.12,2.64-4.33,7.05-4.33h1.27v-.31c0-1.27-.3-2.1-1.75-2.1a1.63,1.63,0,0,0-1.8,1.57h-4.26c.2-3.2,2.71-4.77,6.34-4.77s6,1.5,6,5v8.6h-4.42V41.55a4.34,4.34,0,0,1-3.93,1.85C315.11,43.4,313,42.24,313,39.42Zm8.32-1v-.81h-1.19c-1.83,0-2.64.35-2.64,1.44,0,.76.51,1.25,1.57,1.25A2,2,0,0,0,321.32,38.46Z" fill="#fff"/><path d="M328.55,24h4.52V43.1h-4.52Z" fill="#fff"/><path d="M335.78,38.48V29.84h4.54v7.91c0,1.5.58,2.23,1.88,2.23s2.25-.81,2.25-2.51V29.84H349V43.1h-4.54V41.05a4.35,4.35,0,0,1-4.21,2.35C337.68,43.4,335.78,41.83,335.78,38.48Z" fill="#fff"/><path d="M351,36.63v-.2c0-4.26,3.17-6.95,7.18-6.95,3.63,0,6.75,2.08,6.75,6.85v1.19h-9.34a2.65,2.65,0,0,0,2.77,2.76c1.49,0,2.13-.68,2.31-1.57h4.26c-.41,3-2.72,4.69-6.72,4.69C354,43.4,351,41,351,36.63ZM360.48,35c-.07-1.6-.86-2.49-2.33-2.49A2.53,2.53,0,0,0,355.61,35Z" fill="#fff"/><path d="M365.79,45.15l2.13-6.67,4.21,1.5-3.65,6.21Z" fill="#fff"/><path d="M378.6,38.89h4.18c.15,1,.59,1.5,1.88,1.5,1.11,0,1.62-.43,1.62-1.09s-.63-.94-2.46-1.2c-3.55-.45-5.05-1.49-5.05-4.26,0-2.94,2.62-4.36,5.69-4.36,3.27,0,5.55,1.12,5.85,4.29h-4.1a1.48,1.48,0,0,0-1.7-1.32c-1,0-1.5.43-1.5,1s.61.89,2.23,1.09c3.68.46,5.45,1.42,5.45,4.26,0,3.14-2.33,4.56-6,4.56S378.7,41.83,378.6,38.89Z" fill="#fff"/><path d="M392.45,38.48V29.84H397v7.91c0,1.5.58,2.23,1.87,2.23s2.26-.81,2.26-2.51V29.84h4.54V43.1h-4.54V41.05a4.35,4.35,0,0,1-4.21,2.35C394.35,43.4,392.45,41.83,392.45,38.48Z" fill="#fff"/><path d="M408.35,29.84h4.54v2A4.69,4.69,0,0,1,417,29.48c3.1,0,5.61,2.33,5.61,6.87v.21c0,4.56-2.51,6.84-5.63,6.84a4.36,4.36,0,0,1-4.11-2.25v6.39h-4.54ZM418,36.56v-.21c0-2.33-1-3.45-2.61-3.45s-2.64,1.2-2.64,3.43v.2c0,2.26,1,3.4,2.64,3.4S418,38.74,418,36.56Z" fill="#fff"/><path d="M424.66,29.84h4.54v2a4.69,4.69,0,0,1,4.13-2.33c3.1,0,5.61,2.33,5.61,6.87v.21c0,4.56-2.51,6.84-5.63,6.84a4.36,4.36,0,0,1-4.11-2.25v6.39h-4.54Zm9.66,6.72v-.21c0-2.33-1-3.45-2.61-3.45s-2.64,1.2-2.64,3.43v.2c0,2.26,1,3.4,2.64,3.4S434.32,38.74,434.32,36.56Z" fill="#fff"/><path d="M440.26,36.63v-.2c0-4.26,3.17-6.95,7.28-6.95s7.22,2.61,7.22,6.82v.21c0,4.31-3.17,6.89-7.25,6.89S440.26,40.92,440.26,36.63Zm9.89-.07v-.21c0-2.23-.89-3.47-2.61-3.47s-2.64,1.19-2.64,3.42v.21c0,2.28.89,3.52,2.64,3.52S450.15,38.76,450.15,36.56Z" fill="#fff"/><path d="M456.74,29.84h4.54v2.63a4.19,4.19,0,0,1,4.29-2.81v4.23c-2.76-.07-4.29.79-4.29,2.92V43.1h-4.54Z" fill="#fff"/><path d="M468.41,38.84V32.93h-1.6V29.84h1.6V27.07H473v2.77h2.61v3.09H473v5.48a1.21,1.21,0,0,0,1.34,1.39,3.35,3.35,0,0,0,1.3-.23V43a9.28,9.28,0,0,1-2.51.38C470.09,43.4,468.41,42,468.41,38.84Z" fill="#fff"/><path d="M481.91,39.42c0-3.12,2.63-4.33,7-4.33h1.26v-.31c0-1.27-.3-2.1-1.75-2.1a1.63,1.63,0,0,0-1.8,1.57h-4.26c.21-3.2,2.72-4.77,6.34-4.77s6,1.5,6,5v8.6h-4.41V41.55a4.35,4.35,0,0,1-3.93,1.85C484,43.4,481.91,42.24,481.91,39.42Zm8.31-1v-.81H489c-1.82,0-2.63.35-2.63,1.44,0,.76.5,1.25,1.57,1.25A2,2,0,0,0,490.22,38.46Z" fill="#fff"/><path d="M497.33,29.84h4.54V32a4.68,4.68,0,0,1,4.36-2.49c2.56,0,4.34,1.6,4.34,5V43.1H506V35.39c0-1.5-.59-2.23-1.91-2.23s-2.25.81-2.25,2.51V43.1h-4.54Z" fill="#fff"/><path d="M512.5,36.61V36.4c0-4.51,2.48-6.92,5.62-6.92a4.31,4.31,0,0,1,4.09,2.23V24h4.54V43.1h-4.54V40.94a4.47,4.47,0,0,1-4.14,2.46C515,43.4,512.5,41.2,512.5,36.61Zm9.83-.08v-.2c0-2.23-.93-3.43-2.61-3.43s-2.61,1.15-2.61,3.45v.21c0,2.23,1,3.37,2.56,3.37S522.33,38.79,522.33,36.53Z" fill="#fff"/><path d="M105.67,56.84h4.54v2a4.64,4.64,0,0,1,4.16-2.39,3.6,3.6,0,0,1,3.6,2.21,5.27,5.27,0,0,1,4.39-2.21c2.51,0,4.34,1.62,4.34,5V70.1h-4.54V62.19c0-1.35-.66-2-1.7-2a2,2,0,0,0-2,2.24V70.1h-4.49V62.19c0-1.35-.66-2-1.7-2a2,2,0,0,0-2,2.24V70.1h-4.54Z" fill="#fff"/><path d="M128.58,63.63v-.2c0-4.26,3.17-7,7.28-7s7.22,2.61,7.22,6.82v.21c0,4.31-3.16,6.89-7.25,6.89S128.58,67.92,128.58,63.63Zm9.89-.07v-.21c0-2.23-.89-3.47-2.61-3.47s-2.64,1.19-2.64,3.42v.21c0,2.28.89,3.52,2.64,3.52S138.47,65.76,138.47,63.56Z" fill="#fff"/><path d="M144.41,63.61V63.4c0-4.51,2.48-6.92,5.63-6.92a4.3,4.3,0,0,1,4.08,2.23V51h4.54V70.1h-4.54V67.94A4.47,4.47,0,0,1,150,70.4C146.92,70.4,144.41,68.2,144.41,63.61Zm9.84-.08v-.2c0-2.23-.94-3.42-2.62-3.42S149,61.05,149,63.35v.21c0,2.23,1,3.37,2.56,3.37S154.25,65.79,154.25,63.53Z" fill="#fff"/><path d="M160.64,63.63v-.2c0-4.26,3.17-7,7.18-7,3.62,0,6.74,2.08,6.74,6.85v1.19h-9.33A2.64,2.64,0,0,0,168,67.28c1.5,0,2.13-.68,2.31-1.57h4.26c-.4,3-2.71,4.69-6.72,4.69C163.68,70.4,160.64,68,160.64,63.63ZM170.15,62c-.08-1.6-.86-2.49-2.33-2.49A2.53,2.53,0,0,0,165.28,62Z" fill="#fff"/><path d="M176.52,56.84h4.54v2.63a4.17,4.17,0,0,1,4.28-2.81v4.23c-2.76-.07-4.28.79-4.28,2.92V70.1h-4.54Z" fill="#fff"/><path d="M187.37,56.84h4.54V59a4.69,4.69,0,0,1,4.37-2.49c2.56,0,4.33,1.6,4.33,5V70.1h-4.54V62.39c0-1.5-.58-2.23-1.9-2.23s-2.26.81-2.26,2.51V70.1h-4.54Z" fill="#fff"/><path d="M208.88,59.93h-1.67V56.84h1.67V55.67c0-3.3,2.06-4.87,5.2-4.87a8.18,8.18,0,0,1,2.08.28V54.4a4.18,4.18,0,0,0-1.24-.18,1.33,1.33,0,0,0-1.52,1.45v1.17h2.68v3.09H213.4V70.1h-4.52Z" fill="#fff"/><path d="M216.82,63.63v-.2c0-4.26,3.17-7,7.18-7,3.63,0,6.74,2.08,6.74,6.85v1.19h-9.33a2.65,2.65,0,0,0,2.77,2.76c1.49,0,2.13-.68,2.3-1.57h4.26c-.4,3-2.71,4.69-6.72,4.69S216.82,68,216.82,63.63ZM226.33,62c-.07-1.6-.86-2.49-2.33-2.49A2.53,2.53,0,0,0,221.46,62Z" fill="#fff"/><path d="M232.07,66.42c0-3.12,2.63-4.33,7.05-4.33h1.26v-.31c0-1.27-.3-2.1-1.75-2.1a1.63,1.63,0,0,0-1.8,1.57h-4.26c.21-3.2,2.72-4.77,6.34-4.77s6,1.5,6,5v8.6h-4.41V68.55a4.36,4.36,0,0,1-3.94,1.85C234.17,70.4,232.07,69.24,232.07,66.42Zm8.31-1v-.81h-1.19c-1.82,0-2.64.35-2.64,1.44,0,.76.51,1.24,1.58,1.24C239.42,67.33,240.38,66.6,240.38,65.46Z" fill="#fff"/><path d="M248,65.84V59.93h-1.6V56.84H248V54.07h4.54v2.77h2.61v3.09h-2.61v5.48a1.21,1.21,0,0,0,1.34,1.39,3.35,3.35,0,0,0,1.3-.23V70a9.28,9.28,0,0,1-2.51.38C249.69,70.4,248,69,248,65.84Z" fill="#fff"/><path d="M257.18,65.48V56.84h4.54v7.91c0,1.5.58,2.23,1.87,2.23s2.26-.81,2.26-2.51V56.84h4.54V70.1h-4.54v-2a4.35,4.35,0,0,1-4.21,2.35C259.08,70.4,257.18,68.83,257.18,65.48Z" fill="#fff"/><path d="M273.08,56.84h4.54v2.63a4.18,4.18,0,0,1,4.29-2.81v4.23c-2.77-.07-4.29.79-4.29,2.92V70.1h-4.54Z" fill="#fff"/><path d="M283.1,63.63v-.2c0-4.26,3.17-7,7.18-7,3.62,0,6.74,2.08,6.74,6.85v1.19h-9.33a2.64,2.64,0,0,0,2.76,2.76c1.5,0,2.13-.68,2.31-1.57H297c-.4,3-2.71,4.69-6.72,4.69C286.14,70.4,283.1,68,283.1,63.63ZM292.61,62c-.08-1.6-.86-2.49-2.33-2.49A2.53,2.53,0,0,0,287.74,62Z" fill="#fff"/><path d="M298.22,65.89h4.18c.15,1,.58,1.5,1.88,1.5,1.11,0,1.62-.43,1.62-1.09s-.63-.94-2.46-1.2c-3.55-.45-5.05-1.49-5.05-4.26,0-2.94,2.62-4.36,5.68-4.36,3.28,0,5.56,1.12,5.86,4.29h-4.11a1.47,1.47,0,0,0-1.7-1.32c-1,0-1.49.43-1.49,1s.61.89,2.23,1.09c3.68.46,5.45,1.42,5.45,4.26,0,3.14-2.33,4.56-6,4.56S298.32,68.83,298.22,65.89Z" fill="#fff"/><path d="M312,67.82a2.53,2.53,0,0,1,2.59-2.56,2.56,2.56,0,1,1,0,5.12A2.53,2.53,0,0,1,312,67.82Z" fill="#fff"/><path d="M317.06,52h4.26l-.53,7h-3.22Zm5.38,0h4.29l-.54,7H323Z" fill="#fff"/></g><g id="_NerdWallet_on_H_R_Block_Deluxe_Online" data-name="– NerdWallet on H&amp;R Block Deluxe Online"><path d="M335,76.73h5.59v1.06H335Z" fill="#fff"/><path d="M344.86,71.77h2l3.81,6.56V71.77h1.54v9.07h-1.75l-4.08-7v7h-1.54Z" fill="#fff"/><path d="M353.51,77.59v-.1a3.23,3.23,0,0,1,3.3-3.42,3,3,0,0,1,3.13,3.34v.45h-4.86c.05,1.25.69,2,1.83,2,.92,0,1.41-.36,1.52-1h1.48c-.21,1.39-1.34,2.15-3,2.15A3.18,3.18,0,0,1,353.51,77.59Zm4.91-.76c-.08-1.14-.66-1.65-1.61-1.65a1.7,1.7,0,0,0-1.7,1.65Z" fill="#fff"/><path d="M361.12,74.21h1.53v1.24a2.22,2.22,0,0,1,2.16-1.35v1.44c-1.35,0-2.16.44-2.16,1.85v3.45h-1.53Z" fill="#fff"/><path d="M365.38,77.63v-.1c0-2.12,1.26-3.46,3-3.46a2.27,2.27,0,0,1,2.12,1.15V71.14H372v9.7h-1.53V79.72A2.55,2.55,0,0,1,368.3,81C366.64,81,365.38,79.79,365.38,77.63Zm5.15-.08v-.1c0-1.46-.67-2.18-1.79-2.18s-1.79.79-1.79,2.22v.1c0,1.46.74,2.16,1.73,2.16S370.53,79,370.53,77.55Z" fill="#fff"/><path d="M373.07,71.77h1.72l1.57,6.66,1.76-6.66h1.4l1.8,6.7,1.62-6.7h1.58l-2.27,9.07h-1.69l-1.79-6.61-1.84,6.61h-1.61Z" fill="#fff"/><path d="M384.64,79c0-1.55,1.5-2.11,3.4-2.11h.83v-.34c0-.89-.31-1.33-1.21-1.33a1.11,1.11,0,0,0-1.27,1h-1.48c.13-1.55,1.36-2.19,2.84-2.19s2.65.61,2.65,2.42v4.35h-1.51V80a2.3,2.3,0,0,1-2,.93C385.65,81,384.64,80.38,384.64,79Zm4.23-.48v-.66h-.79c-1.16,0-1.91.26-1.91,1.08,0,.55.3.92,1.06.92C388.17,79.86,388.87,79.37,388.87,78.52Z" fill="#fff"/><path d="M392,71.14h1.54v9.7H392Z" fill="#fff"/><path d="M395.26,71.14h1.53v9.7h-1.53Z" fill="#fff"/><path d="M398,77.59v-.1a3.23,3.23,0,0,1,3.3-3.42,3,3,0,0,1,3.13,3.34v.45H399.6c0,1.25.68,2,1.82,2,.93,0,1.41-.36,1.52-1h1.49c-.22,1.39-1.35,2.15-3.05,2.15A3.18,3.18,0,0,1,398,77.59Zm4.91-.76c-.07-1.14-.66-1.65-1.61-1.65a1.7,1.7,0,0,0-1.7,1.65Z" fill="#fff"/><path d="M405.89,79V75.36H405V74.21h.89V72.75h1.53v1.46h1.46v1.15h-1.46v3.49c0,.58.28.85.76.85a1.87,1.87,0,0,0,.75-.13v1.22a2.93,2.93,0,0,1-1,.16A1.78,1.78,0,0,1,405.89,79Z" fill="#fff"/><path d="M412.51,77.59v-.1a3.41,3.41,0,0,1,6.81,0v.1a3.41,3.41,0,0,1-6.81,0Zm5.24,0v-.09c0-1.37-.69-2.21-1.83-2.21s-1.84.83-1.84,2.19v.11c0,1.35.67,2.2,1.84,2.2S417.75,78.92,417.75,77.57Z" fill="#fff"/><path d="M420.51,74.21H422v1.05a2.29,2.29,0,0,1,2.15-1.19c1.33,0,2.27.77,2.27,2.6v4.17h-1.54v-4c0-1-.4-1.46-1.32-1.46A1.47,1.47,0,0,0,422,76.93v3.91h-1.53Z" fill="#fff"/><path d="M431,71.77h1.68v3.86h4.07V71.77h1.7v9.07h-1.7V77h-4.07v3.86H431Z" fill="#fff"/><path d="M446.48,79,448,80.84h-1.94l-.76-.93a3.24,3.24,0,0,1-2.48,1c-1.76,0-3-1-3-2.58a2.92,2.92,0,0,1,2-2.69,3.06,3.06,0,0,1-.71-1.79,2.26,2.26,0,0,1,2.5-2.19,2.06,2.06,0,0,1,2.28,2c0,1-.71,1.8-1.89,2.31l1.6,2,.92-1.77H448Zm-2,0-1.93-2.35a1.71,1.71,0,0,0-1.15,1.61A1.4,1.4,0,0,0,443,79.68,2,2,0,0,0,444.52,78.94Zm-1.17-3.71c.85-.39,1.2-.8,1.2-1.51a.85.85,0,0,0-.88-.9,1,1,0,0,0-1,1.08A2.23,2.23,0,0,0,443.35,75.23Z" fill="#fff"/><path d="M449.21,71.77h3c2,0,3.39.81,3.39,2.66v.06a2.39,2.39,0,0,1-2,2.43l2.55,3.92h-1.82L452,77.17H450.9v3.67h-1.69Zm3,4.2c1.13,0,1.73-.48,1.73-1.45v0c0-1-.65-1.39-1.73-1.39H450.9V76Z" fill="#fff"/><path d="M460.16,71.77h3.24c1.86,0,3,.71,3,2.36v.05a1.87,1.87,0,0,1-1.43,1.93,2,2,0,0,1,1.81,2.14v0c0,1.69-1.12,2.54-3.11,2.54h-3.48Zm3,3.82c1.11,0,1.55-.41,1.55-1.33v-.05c0-.87-.5-1.23-1.58-1.23H461.8v2.61Zm.24,4c1.13,0,1.65-.5,1.65-1.44v0c0-.94-.52-1.41-1.76-1.41H461.8v2.9Z" fill="#fff"/><path d="M468.06,71.14h1.53v9.7h-1.53Z" fill="#fff"/><path d="M470.82,77.59v-.1a3.41,3.41,0,0,1,6.81,0v.1a3.41,3.41,0,0,1-6.81,0Zm5.24,0v-.09c0-1.37-.69-2.21-1.83-2.21s-1.84.83-1.84,2.19v.11c0,1.35.67,2.2,1.84,2.2S476.06,78.92,476.06,77.57Z" fill="#fff"/><path d="M478.38,77.6v-.1a3.27,3.27,0,0,1,3.35-3.43,2.71,2.71,0,0,1,3,2.48h-1.49a1.36,1.36,0,0,0-1.52-1.25c-1.05,0-1.8.81-1.8,2.18v.1c0,1.44.71,2.21,1.84,2.21a1.52,1.52,0,0,0,1.6-1.42h1.41A2.81,2.81,0,0,1,481.73,81,3.17,3.17,0,0,1,478.38,77.6Z" fill="#fff"/><path d="M485.92,71.14h1.54v6l2.37-2.91h1.67l-2.57,3,2.79,3.59h-1.78l-2.48-3.26v3.26h-1.54Z" fill="#fff"/><path d="M495.54,71.77h2.75c3.16,0,4.69,1.8,4.69,4.44v.11c0,2.64-1.53,4.52-4.72,4.52h-2.72Zm2.67,7.74c2,0,3-1.17,3-3.17v-.1c0-2-.89-3.14-3-3.14h-1v6.41Z" fill="#fff"/><path d="M503.83,77.59v-.1a3.23,3.23,0,0,1,3.3-3.42,3,3,0,0,1,3.13,3.34v.45H505.4c.05,1.25.69,2,1.83,2,.93,0,1.41-.36,1.52-1h1.49C510,80.2,508.89,81,507.19,81A3.18,3.18,0,0,1,503.83,77.59Zm4.91-.76c-.08-1.14-.66-1.65-1.61-1.65a1.7,1.7,0,0,0-1.7,1.65Z" fill="#fff"/><path d="M511.48,71.14H513v9.7h-1.53Z" fill="#fff"/><path d="M514.62,78.45V74.21h1.54v4.07c0,1,.42,1.45,1.3,1.45A1.48,1.48,0,0,0,519,78.15V74.21h1.54v6.63H519v-1a2.24,2.24,0,0,1-2.1,1.16C515.6,81,514.62,80.22,514.62,78.45Z" fill="#fff"/><path d="M523.83,77.44l-2.16-3.23h1.78l1.38,2.14,1.37-2.14h1.61l-2.14,3.12L528,80.84h-1.79l-1.54-2.4-1.59,2.4h-1.6Z" fill="#fff"/><path d="M528.17,77.59v-.1a3.23,3.23,0,0,1,3.3-3.42,3,3,0,0,1,3.13,3.34v.45h-4.86c0,1.25.69,2,1.83,2,.92,0,1.4-.36,1.52-1h1.48c-.21,1.39-1.34,2.15-3,2.15A3.18,3.18,0,0,1,528.17,77.59Zm4.91-.76c-.08-1.14-.66-1.65-1.61-1.65a1.7,1.7,0,0,0-1.7,1.65Z" fill="#fff"/><path d="M538.28,76.36v-.1a4.45,4.45,0,0,1,4.59-4.62,4.38,4.38,0,0,1,4.56,4.58v.1a4.58,4.58,0,1,1-9.15,0Zm7.4,0v-.1c0-1.87-1-3.25-2.81-3.25S540,74.29,540,76.25v.1c0,2,1.21,3.26,2.85,3.26S545.68,78.3,545.68,76.34Z" fill="#fff"/><path d="M548.74,74.21h1.53v1.05a2.29,2.29,0,0,1,2.15-1.19c1.33,0,2.27.77,2.27,2.6v4.17h-1.54v-4c0-1-.4-1.46-1.32-1.46a1.47,1.47,0,0,0-1.56,1.58v3.91h-1.53Z" fill="#fff"/><path d="M556.3,71.14h1.53v9.7H556.3Z" fill="#fff"/><path d="M559.38,72.24a.92.92,0,1,1,.91.88A.89.89,0,0,1,559.38,72.24Zm.16,2h1.54v6.63h-1.54Z" fill="#fff"/><path d="M562.75,74.21h1.54v1.05a2.27,2.27,0,0,1,2.14-1.19c1.33,0,2.27.77,2.27,2.6v4.17h-1.53v-4c0-1-.41-1.46-1.32-1.46a1.46,1.46,0,0,0-1.56,1.58v3.91h-1.54Z" fill="#fff"/><path d="M569.83,77.59v-.1a3.23,3.23,0,0,1,3.3-3.42,3,3,0,0,1,3.13,3.34v.45H571.4c.05,1.25.69,2,1.83,2,.92,0,1.4-.36,1.52-1h1.48c-.21,1.39-1.34,2.15-3,2.15A3.18,3.18,0,0,1,569.83,77.59Zm4.91-.76c-.08-1.14-.66-1.65-1.61-1.65a1.7,1.7,0,0,0-1.7,1.65Z" fill="#fff"/></g></g></g></svg>