<svg xmlns="http://www.w3.org/2000/svg" viewBox="0 0 728 90"><title>H127</title><g id="Layer_2" data-name="Layer 2"><g id="Rect"><rect width="728" height="90" fill="none"/></g><g id="H127"><g id="Garantizamos_un_100_de_exactitud_y_un_100_de_satisfacción." data-name="Garantizamos un 100% de exactitud  y un 100% de satisfacción."><path d="M122.56,29.46v-.2c0-5.46,4-9.14,9.47-9.14,4.27,0,8.06,1.93,8.42,6.59h-5.13c-.25-1.68-1.34-2.56-3.26-2.56-2.55,0-4.09,2-4.09,5.19v.2c0,2.91,1.08,5.16,4.22,5.16,2.52,0,3.48-1.28,3.58-2.71h-3.38V28.41h8.49v2.21c0,4.56-3,8-8.85,8C125.89,38.61,122.56,34.83,122.56,29.46Z" fill="#fff"/><path d="M141.78,34.68c0-3.09,2.63-4.29,7-4.29h1.26v-.3c0-1.25-.3-2.08-1.74-2.08a1.62,1.62,0,0,0-1.8,1.55h-4.24c.2-3.15,2.7-4.71,6.32-4.71s6,1.48,6,5v8.5h-4.4V36.78a4.35,4.35,0,0,1-3.91,1.83C143.88,38.61,141.78,37.46,141.78,34.68Zm8.29-1v-.8h-1.19c-1.82,0-2.62.35-2.62,1.43,0,.75.5,1.23,1.56,1.23C149.11,35.58,150.07,34.85,150.07,33.72Z" fill="#fff"/><path d="M156.77,25.2h4.52v2.61A4.16,4.16,0,0,1,165.56,25v4.18c-2.76-.07-4.27.78-4.27,2.88v6.22h-4.52Z" fill="#fff"/><path d="M166.14,34.68c0-3.09,2.63-4.29,7-4.29h1.27v-.3c0-1.25-.31-2.08-1.75-2.08a1.61,1.61,0,0,0-1.79,1.55h-4.25c.21-3.15,2.71-4.71,6.32-4.71s6,1.48,6,5v8.5h-4.39V36.78a4.36,4.36,0,0,1-3.92,1.83C168.24,38.61,166.14,37.46,166.14,34.68Zm8.29-1v-.8h-1.19c-1.82,0-2.63.35-2.63,1.43,0,.75.51,1.23,1.57,1.23C173.47,35.58,174.43,34.85,174.43,33.72Z" fill="#fff"/><path d="M181.12,25.2h4.52v2.11A4.69,4.69,0,0,1,190,24.85c2.55,0,4.32,1.58,4.32,4.94v8.52h-4.52V30.69c0-1.48-.58-2.2-1.9-2.2s-2.25.8-2.25,2.48v7.34h-4.52Z" fill="#fff"/><path d="M197.11,34.1V28.26h-1.59V25.2h1.59V22.47h4.52V25.2h2.61v3.06h-2.61v5.41A1.2,1.2,0,0,0,203,35.05a3.45,3.45,0,0,0,1.29-.22v3.4a9.54,9.54,0,0,1-2.5.38C198.78,38.61,197.11,37.18,197.11,34.1Z" fill="#fff"/><path d="M205.85,21.65a2.5,2.5,0,1,1,2.48,2.3A2.35,2.35,0,0,1,205.85,21.65Zm.23,3.55h4.52V38.31h-4.52Z" fill="#fff"/><path d="M211.94,37.86l5.79-9.27h-5.18V25.2H224.2v.48l-5.94,9.25h5.63v3.38H211.94Z" fill="#fff"/><path d="M224.77,34.68c0-3.09,2.63-4.29,7-4.29h1.26v-.3c0-1.25-.3-2.08-1.74-2.08a1.61,1.61,0,0,0-1.79,1.55h-4.25c.2-3.15,2.7-4.71,6.32-4.71s6,1.48,6,5v8.5h-4.4V36.78a4.35,4.35,0,0,1-3.91,1.83C226.87,38.61,224.77,37.46,224.77,34.68Zm8.29-1v-.8h-1.18c-1.82,0-2.63.35-2.63,1.43,0,.75.5,1.23,1.56,1.23C232.1,35.58,233.06,34.85,233.06,33.72Z" fill="#fff"/><path d="M239.76,25.2h4.52v2a4.64,4.64,0,0,1,4.14-2.36A3.61,3.61,0,0,1,252,27a5.26,5.26,0,0,1,4.37-2.18c2.5,0,4.32,1.61,4.32,4.89v8.57h-4.52V30.49c0-1.33-.66-2-1.69-2a2,2,0,0,0-2,2.21v7.59H248V30.49c0-1.33-.65-2-1.69-2a2,2,0,0,0-2,2.21v7.59h-4.52Z" fill="#fff"/><path d="M262.19,31.92v-.2c0-4.21,3.16-6.87,7.25-6.87s7.21,2.58,7.21,6.74v.2c0,4.26-3.16,6.82-7.23,6.82S262.19,36.15,262.19,31.92Zm9.86-.08v-.2c0-2.2-.89-3.43-2.61-3.43s-2.62,1.18-2.62,3.38v.2c0,2.26.88,3.49,2.62,3.49S272.05,34,272.05,31.84Z" fill="#fff"/><path d="M277.42,34.15h4.17c.16,1,.59,1.48,1.87,1.48,1.12,0,1.62-.43,1.62-1.08s-.63-.93-2.45-1.18c-3.54-.45-5-1.48-5-4.21,0-2.9,2.6-4.31,5.66-4.31,3.26,0,5.54,1.11,5.84,4.24H285a1.48,1.48,0,0,0-1.7-1.3c-1,0-1.49.42-1.49,1s.61.88,2.23,1.08c3.66.45,5.43,1.4,5.43,4.21,0,3.11-2.33,4.51-6,4.51S277.53,37.06,277.42,34.15Z" fill="#fff"/><path d="M295.44,33.75V25.2H300V33c0,1.48.58,2.21,1.87,2.21s2.25-.81,2.25-2.48V25.2h4.52V38.31h-4.52v-2a4.36,4.36,0,0,1-4.19,2.33C297.33,38.61,295.44,37.06,295.44,33.75Z" fill="#fff"/><path d="M310.9,25.2h4.52v2.11a4.69,4.69,0,0,1,4.35-2.46c2.55,0,4.32,1.58,4.32,4.94v8.52h-4.52V30.69c0-1.48-.59-2.2-1.9-2.2s-2.25.8-2.25,2.48v7.34H310.9Z" fill="#fff"/><path d="M333.79,25.46l-3.44,2.1V23.28l4.15-2.89H339V38.31h-5.18Z" fill="#fff"/><path d="M341.44,29.74V29c0-5.66,3.57-8.85,8.34-8.85s8.34,2.93,8.34,8.75v.7c0,5.69-3.29,9-8.44,9S341.44,35.38,341.44,29.74Zm11.5,0V29c0-3.28-1-4.93-3.16-4.93s-3.16,1.63-3.16,4.93v.75c0,3.34,1,4.91,3.21,4.91S352.94,33,352.94,29.69Z" fill="#fff"/><path d="M359.56,29.74V29c0-5.66,3.56-8.85,8.33-8.85s8.34,2.93,8.34,8.75v.7c0,5.69-3.28,9-8.44,9S359.56,35.38,359.56,29.74Zm11.49,0V29c0-3.28-1-4.93-3.16-4.93s-3.15,1.63-3.15,4.93v.75c0,3.34,1,4.91,3.21,4.91S371.05,33,371.05,29.69Z" fill="#fff"/><path d="M377.22,24.65a4.53,4.53,0,0,1,4.8-4.46,4.51,4.51,0,1,1,0,9A4.42,4.42,0,0,1,377.22,24.65Zm14.88-4.26h2.48L382,38.31h-2.47Zm-8.64,4.26c0-1.17-.51-1.9-1.44-1.9s-1.49.7-1.49,1.88.55,1.95,1.49,1.95S383.46,25.83,383.46,24.65Zm3.81,9.42a4.54,4.54,0,0,1,4.8-4.46c2.73,0,4.78,1.81,4.78,4.39a4.51,4.51,0,0,1-4.8,4.61A4.42,4.42,0,0,1,387.27,34.07Zm6.27,0c0-1.15-.5-1.88-1.47-1.88s-1.46.7-1.46,1.88.56,1.93,1.46,1.93S393.54,35.25,393.54,34.05Z" fill="#fff"/><path d="M402.38,31.89v-.2c0-4.46,2.48-6.84,5.61-6.84a4.3,4.3,0,0,1,4.07,2.21V19.44h4.52V38.31h-4.52V36.18a4.47,4.47,0,0,1-4.12,2.43C404.88,38.61,402.38,36.43,402.38,31.89Zm9.8-.07v-.2c0-2.21-.93-3.38-2.6-3.38s-2.6,1.12-2.6,3.4v.2c0,2.21,1,3.34,2.55,3.34S412.18,34.05,412.18,31.82Z" fill="#fff"/><path d="M418.17,31.92v-.2c0-4.21,3.16-6.87,7.15-6.87,3.61,0,6.72,2.06,6.72,6.77V32.8h-9.3a2.64,2.64,0,0,0,2.76,2.73c1.49,0,2.12-.68,2.3-1.56H432c-.4,3-2.7,4.64-6.69,4.64C421.2,38.61,418.17,36.2,418.17,31.92Zm9.48-1.65c-.08-1.58-.86-2.46-2.33-2.46a2.52,2.52,0,0,0-2.53,2.46Z" fill="#fff"/><path d="M437.5,31.92v-.2c0-4.21,3.15-6.87,7.15-6.87,3.61,0,6.72,2.06,6.72,6.77V32.8h-9.3a2.63,2.63,0,0,0,2.75,2.73c1.49,0,2.13-.68,2.3-1.56h4.25c-.41,3-2.7,4.64-6.7,4.64S437.5,36.2,437.5,31.92ZM447,30.27c-.07-1.58-.86-2.46-2.32-2.46a2.51,2.51,0,0,0-2.53,2.46Z" fill="#fff"/><path d="M455.56,31.64l-4.12-6.44h5.21l2,3.46,2-3.46h4.65l-4.17,6.09,4.57,7h-5.2l-2.35-3.91-2.4,3.91h-4.63Z" fill="#fff"/><path d="M466.07,34.68c0-3.09,2.63-4.29,7-4.29h1.27v-.3c0-1.25-.31-2.08-1.75-2.08a1.62,1.62,0,0,0-1.79,1.55h-4.24c.2-3.15,2.7-4.71,6.31-4.71s6,1.48,6,5v8.5h-4.4V36.78a4.36,4.36,0,0,1-3.92,1.83C468.17,38.61,466.07,37.46,466.07,34.68Zm8.29-1v-.8h-1.19c-1.82,0-2.63.35-2.63,1.43,0,.75.51,1.23,1.57,1.23C473.4,35.58,474.36,34.85,474.36,33.72Z" fill="#fff"/><path d="M480.34,31.92v-.2c0-4.36,3.16-6.87,7.05-6.87,3.24,0,6.22,1.41,6.47,5.39h-4.24a2,2,0,0,0-2.13-1.9c-1.59,0-2.52,1.12-2.52,3.33v.2c0,2.28.88,3.46,2.6,3.46a2.2,2.2,0,0,0,2.3-2.18h4.07c-.13,3.3-2.38,5.46-6.65,5.46C483.35,38.61,480.34,36.33,480.34,31.92Z" fill="#fff"/><path d="M496,34.1V28.26h-1.6V25.2H496V22.47h4.52V25.2h2.6v3.06h-2.6v5.41a1.2,1.2,0,0,0,1.34,1.38,3.53,3.53,0,0,0,1.29-.22v3.4a9.54,9.54,0,0,1-2.5.38C497.67,38.61,496,37.18,496,34.1Z" fill="#fff"/><path d="M504.75,21.65a2.49,2.49,0,1,1,2.47,2.3A2.35,2.35,0,0,1,504.75,21.65ZM505,25.2h4.53V38.31H505Z" fill="#fff"/><path d="M512.53,34.1V28.26h-1.59V25.2h1.59V22.47h4.52V25.2h2.6v3.06h-2.6v5.41a1.2,1.2,0,0,0,1.34,1.38,3.45,3.45,0,0,0,1.29-.22v3.4a9.54,9.54,0,0,1-2.5.38C514.2,38.61,512.53,37.18,512.53,34.1Z" fill="#fff"/><path d="M521.27,33.75V25.2h4.52V33c0,1.48.58,2.21,1.87,2.21s2.25-.81,2.25-2.48V25.2h4.52V38.31h-4.52v-2a4.35,4.35,0,0,1-4.19,2.33C523.16,38.61,521.27,37.06,521.27,33.75Z" fill="#fff"/><path d="M536.07,31.89v-.2c0-4.46,2.48-6.84,5.61-6.84a4.29,4.29,0,0,1,4.07,2.21V19.44h4.52V38.31h-4.52V36.18a4.46,4.46,0,0,1-4.12,2.43C538.58,38.61,536.07,36.43,536.07,31.89Zm9.81-.07v-.2c0-2.21-.94-3.38-2.6-3.38s-2.61,1.12-2.61,3.4v.2c0,2.21,1,3.34,2.55,3.34S545.88,34.05,545.88,31.82Z" fill="#fff"/><path d="M127.26,64.74,122,53h4.9l2.73,7,2.52-7h4.33l-7.08,17.49h-4.32Z" fill="#fff"/><path d="M142.11,61.51V53h4.52v7.82c0,1.48.59,2.21,1.87,2.21s2.25-.81,2.25-2.48V53h4.53V66.07h-4.53V64a4.34,4.34,0,0,1-4.19,2.33C144,66.37,142.11,64.82,142.11,61.51Z" fill="#fff"/><path d="M157.57,53h4.53v2.11a4.66,4.66,0,0,1,4.34-2.46c2.55,0,4.32,1.58,4.32,4.94v8.52h-4.52V58.45c0-1.48-.58-2.2-1.89-2.2s-2.25.8-2.25,2.48v7.34h-4.53Z" fill="#fff"/><path d="M180.46,53.21,177,55.32V51l4.14-2.89h4.47V66.07h-5.18Z" fill="#fff"/><path d="M188.12,57.5v-.75c0-5.66,3.56-8.85,8.34-8.85s8.33,2.93,8.33,8.75v.7c0,5.69-3.28,9-8.44,9S188.12,63.14,188.12,57.5Zm11.49,0v-.73c0-3.28-1-4.93-3.15-4.93s-3.16,1.63-3.16,4.93v.75c0,3.34,1,4.92,3.21,4.92S199.61,60.76,199.61,57.45Z" fill="#fff"/><path d="M206.23,57.5v-.75c0-5.66,3.56-8.85,8.34-8.85s8.34,2.93,8.34,8.75v.7c0,5.69-3.29,9-8.44,9S206.23,63.14,206.23,57.5Zm11.5,0v-.73c0-3.28-1-4.93-3.16-4.93s-3.16,1.63-3.16,4.93v.75c0,3.34,1,4.92,3.21,4.92S217.73,60.76,217.73,57.45Z" fill="#fff"/><path d="M223.89,52.41a4.54,4.54,0,0,1,4.8-4.46,4.51,4.51,0,1,1,0,9A4.42,4.42,0,0,1,223.89,52.41Zm14.88-4.26h2.48L228.72,66.07h-2.48Zm-8.64,4.26c0-1.17-.5-1.9-1.44-1.9s-1.49.7-1.49,1.88.56,2,1.49,2S230.13,53.59,230.13,52.41ZM234,61.83a4.54,4.54,0,0,1,4.8-4.46c2.73,0,4.77,1.81,4.77,4.39a4.51,4.51,0,0,1-4.8,4.61A4.41,4.41,0,0,1,234,61.83Zm6.26,0c0-1.15-.5-1.88-1.46-1.88s-1.47.7-1.47,1.88.56,1.93,1.47,1.93S240.21,63,240.21,61.81Z" fill="#fff"/><path d="M249.05,59.65v-.2c0-4.46,2.48-6.84,5.61-6.84a4.3,4.3,0,0,1,4.07,2.21V47.2h4.52V66.07h-4.52V63.94a4.46,4.46,0,0,1-4.12,2.43C251.55,66.37,249.05,64.19,249.05,59.65Zm9.81-.07v-.2c0-2.21-.94-3.38-2.61-3.38s-2.6,1.12-2.6,3.4v.2c0,2.21,1,3.34,2.55,3.34S258.86,61.81,258.86,59.58Z" fill="#fff"/><path d="M264.84,59.68v-.2c0-4.21,3.16-6.87,7.15-6.87,3.62,0,6.72,2.06,6.72,6.77v1.18h-9.29a2.62,2.62,0,0,0,2.75,2.73c1.49,0,2.12-.68,2.3-1.56h4.24c-.4,3-2.7,4.64-6.69,4.64C267.87,66.37,264.84,64,264.84,59.68ZM274.32,58c-.08-1.58-.86-2.46-2.33-2.46A2.5,2.5,0,0,0,269.47,58Z" fill="#fff"/><path d="M284,61.91h4.17c.15,1,.58,1.48,1.87,1.48,1.11,0,1.62-.43,1.62-1.08s-.63-.93-2.45-1.18c-3.54-.45-5-1.48-5-4.21,0-2.9,2.6-4.31,5.66-4.31,3.26,0,5.53,1.11,5.84,4.24h-4.1a1.47,1.47,0,0,0-1.69-1.31c-1,0-1.49.43-1.49,1s.61.88,2.22,1.08c3.67.45,5.43,1.4,5.43,4.21,0,3.11-2.32,4.51-6,4.51S284.09,64.82,284,61.91Z" fill="#fff"/><path d="M296.75,62.44c0-3.09,2.63-4.29,7-4.29H305v-.3c0-1.25-.31-2.08-1.75-2.08a1.62,1.62,0,0,0-1.79,1.55h-4.25c.21-3.15,2.71-4.71,6.32-4.71s6,1.48,6,5v8.49h-4.4V64.54a4.36,4.36,0,0,1-3.92,1.83C298.85,66.37,296.75,65.22,296.75,62.44Zm8.29-1v-.8h-1.19c-1.82,0-2.63.35-2.63,1.43,0,.75.51,1.23,1.57,1.23C304.08,63.34,305,62.61,305,61.48Z" fill="#fff"/><path d="M312.26,61.86V56h-1.59V53h1.59V50.23h4.53V53h2.6V56h-2.6v5.41c0,1,.48,1.38,1.33,1.38a3.45,3.45,0,0,0,1.29-.22V66a9.54,9.54,0,0,1-2.5.38C313.93,66.37,312.26,64.94,312.26,61.86Z" fill="#fff"/><path d="M321,49.41a2.5,2.5,0,1,1,2.48,2.3A2.35,2.35,0,0,1,321,49.41Zm.23,3.55h4.52V66.07h-4.52Z" fill="#fff"/><path d="M327.29,61.91h4.17c.16,1,.58,1.48,1.87,1.48,1.12,0,1.62-.43,1.62-1.08s-.63-.93-2.45-1.18c-3.54-.45-5-1.48-5-4.21,0-2.9,2.6-4.31,5.66-4.31,3.26,0,5.54,1.11,5.84,4.24h-4.09a1.48,1.48,0,0,0-1.7-1.31c-1,0-1.49.43-1.49,1s.61.88,2.22,1.08c3.67.45,5.44,1.4,5.44,4.21,0,3.11-2.33,4.51-6,4.51S327.4,64.82,327.29,61.91Z" fill="#fff"/><path d="M341.49,56h-1.66V53h1.66V51.81c0-3.26,2.05-4.81,5.18-4.81a8,8,0,0,1,2.07.28v3.28a4.1,4.1,0,0,0-1.23-.18A1.33,1.33,0,0,0,346,51.81V53h2.68V56H346v10h-4.5Z" fill="#fff"/><path d="M349.17,62.44c0-3.09,2.63-4.29,7-4.29h1.26v-.3c0-1.25-.3-2.08-1.74-2.08a1.62,1.62,0,0,0-1.8,1.55h-4.24c.2-3.15,2.7-4.71,6.32-4.71s6,1.48,6,5v8.49h-4.4V64.54a4.35,4.35,0,0,1-3.91,1.83C351.27,66.37,349.17,65.22,349.17,62.44Zm8.29-1v-.8h-1.19c-1.82,0-2.62.35-2.62,1.43,0,.75.5,1.23,1.56,1.23C356.5,63.34,357.46,62.61,357.46,61.48Z" fill="#fff"/><path d="M363.45,59.68v-.2c0-4.36,3.15-6.87,7.05-6.87,3.23,0,6.21,1.41,6.46,5.39h-4.24a1.94,1.94,0,0,0-2.12-1.9c-1.6,0-2.53,1.12-2.53,3.33v.2c0,2.28.89,3.46,2.6,3.46a2.19,2.19,0,0,0,2.3-2.18H377c-.13,3.3-2.37,5.46-6.65,5.46C366.45,66.37,363.45,64.09,363.45,59.68Z" fill="#fff"/><path d="M377.8,59.68v-.2c0-4.36,3.15-6.87,7.05-6.87,3.23,0,6.21,1.41,6.46,5.39h-4.24A1.94,1.94,0,0,0,385,56.1c-1.6,0-2.53,1.12-2.53,3.33v.2c0,2.28.88,3.46,2.6,3.46a2.19,2.19,0,0,0,2.3-2.18h4.07c-.13,3.3-2.38,5.46-6.65,5.46C380.8,66.37,377.8,64.09,377.8,59.68Z" fill="#fff"/><path d="M392.75,49.41a2.5,2.5,0,1,1,2.48,2.3A2.35,2.35,0,0,1,392.75,49.41ZM393,53h4.52V66.07H393Z" fill="#fff"/><path d="M399.22,59.68v-.2c0-4.21,3.16-6.87,7.25-6.87s7.2,2.58,7.2,6.74v.2c0,4.26-3.16,6.82-7.22,6.82S399.22,63.91,399.22,59.68Zm9.85-.08v-.2c0-2.2-.88-3.43-2.6-3.43s-2.63,1.18-2.63,3.38v.2c0,2.26.89,3.49,2.63,3.49S409.07,61.78,409.07,59.6Zm-3-12.3h4.55l-2.65,4.16H404.7Z" fill="#fff"/><path d="M415.26,53h4.53v2.11a4.66,4.66,0,0,1,4.34-2.46c2.55,0,4.32,1.58,4.32,4.94v8.52h-4.52V58.45c0-1.48-.58-2.2-1.9-2.2s-2.24.8-2.24,2.48v7.34h-4.53Z" fill="#fff"/><path d="M430.47,63.81a2.51,2.51,0,0,1,2.58-2.53,2.53,2.53,0,1,1,0,5.06A2.51,2.51,0,0,1,430.47,63.81Z" fill="#fff"/></g></g></g></svg>