<svg xmlns="http://www.w3.org/2000/svg" viewBox="0 0 153 35"><title>cta_lrg</title><g id="Layer_2" data-name="Layer 2"><g id="CTA"><g id="Rectangle_1" data-name="Rectangle 1"><rect width="153" height="35" fill="none"/></g><g id="Learn_more" data-name="Learn more"><path d="M35.29,10.53h2.59V20h4.66v2H35.29Z" fill="#262626"/><path d="M43.12,17.9v-.13a4.16,4.16,0,0,1,4.31-4.35c2.16,0,4.08,1.26,4.08,4.25v.64h-6a2,2,0,0,0,2.08,2.2c1.07,0,1.6-.47,1.74-1.17h2.2c-.28,1.81-1.72,2.82-4,2.82A4.07,4.07,0,0,1,43.12,17.9Zm6.14-1c-.08-1.27-.72-1.87-1.83-1.87a1.92,1.92,0,0,0-1.92,1.87Z" fill="#262626"/><path d="M52.32,19.66c0-1.95,1.8-2.69,4.36-2.69h.94v-.34c0-1-.3-1.53-1.36-1.53a1.25,1.25,0,0,0-1.42,1.18h-2.2c.15-2,1.72-2.86,3.77-2.86s3.5.83,3.5,3.1V22H57.65V21a2.84,2.84,0,0,1-2.52,1.19C53.6,22.16,52.32,21.42,52.32,19.66Zm5.3-.61v-.7h-.89c-1.35,0-2.13.28-2.13,1.18,0,.61.37,1,1.21,1C56.84,20.54,57.62,20,57.62,19.05Z" fill="#262626"/><path d="M61.65,13.61H64v1.6a2.76,2.76,0,0,1,2.71-1.73v2.16c-1.71,0-2.71.55-2.71,2.15V22H61.65Z" fill="#262626"/><path d="M68,13.61h2.32v1.33A2.87,2.87,0,0,1,73,13.42c1.65,0,2.82,1,2.82,3.23V22H73.49V17c0-1.14-.44-1.69-1.47-1.69a1.66,1.66,0,0,0-1.74,1.85V22H68Z" fill="#262626"/><path d="M80.87,13.61h2.32v1.28a2.84,2.84,0,0,1,2.56-1.47,2.31,2.31,0,0,1,2.34,1.45,3.31,3.31,0,0,1,2.81-1.45c1.56,0,2.76,1,2.76,3.2V22H91.35V16.87c0-1.07-.48-1.55-1.31-1.55A1.56,1.56,0,0,0,88.42,17V22h-2.3V16.87c0-1.07-.5-1.55-1.31-1.55A1.56,1.56,0,0,0,83.19,17V22H80.87Z" fill="#262626"/><path d="M94.88,17.88v-.13a4.2,4.2,0,0,1,4.42-4.33,4.15,4.15,0,0,1,4.4,4.29v.12a4.41,4.41,0,0,1-8.82.05Zm6.47,0v-.11c0-1.6-.75-2.56-2-2.56s-2,.92-2,2.53v.12c0,1.6.74,2.56,2,2.56S101.35,19.43,101.35,17.85Z" fill="#262626"/><path d="M105,13.61h2.32v1.6A2.76,2.76,0,0,1,110,13.48v2.16c-1.71,0-2.71.55-2.71,2.15V22H105Z" fill="#262626"/><path d="M110.66,17.9v-.13A4.15,4.15,0,0,1,115,13.42c2.16,0,4.08,1.26,4.08,4.25v.64h-6c.07,1.4.82,2.2,2.08,2.2,1.08,0,1.6-.47,1.75-1.17H119c-.27,1.81-1.71,2.82-4,2.82A4.07,4.07,0,0,1,110.66,17.9Zm6.13-1c-.08-1.27-.72-1.87-1.82-1.87A1.93,1.93,0,0,0,113,16.89Z" fill="#262626"/></g></g></g></svg>