<svg xmlns="http://www.w3.org/2000/svg" viewBox="0 0 300 600"><title>H2</title><g id="Layer_2" data-name="Layer 2"><g id="Rect"><rect width="300" height="600" fill="none"/></g><g id="H2"><g id="Starting_in_January_you_could_get_a_Refund_Advance_loan_up_to" data-name="Starting in January, you could get a Refund Advance loan up to"><path d="M20.21,50.75H30.5c.26,2.69,1.48,4.9,6,4.9,3.11,0,4.85-1.53,4.85-3.74s-1.42-3-6-3.64C24.7,47,21.11,43.84,21.11,36.24c0-6.8,5.59-11.76,14.61-11.76S49.91,28.27,50.6,36.24h-10c-.36-2.69-1.89-4.06-4.85-4.06s-4.38,1.32-4.38,3.22c0,2.11,1.16,3.06,5.86,3.69,9.55,1,14.45,3.53,14.45,11.71,0,6.91-5.48,12.55-15.19,12.55C25.91,63.35,20.53,58.92,20.21,50.75Z" fill="#fff"/><path d="M56.4,53.86V41.57H53.08V35.13H56.4V29.38h9.44v5.75h5.43v6.44H65.84V53c0,2,1,2.9,2.8,2.9a7.37,7.37,0,0,0,2.69-.47v7.17a19.76,19.76,0,0,1-5.23.79C59.88,63.35,56.4,60.35,56.4,53.86Z" fill="#fff"/><path d="M73.38,55.07c0-6.49,5.49-9,14.67-9h2.64v-.63c0-2.64-.64-4.38-3.64-4.38a3.39,3.39,0,0,0-3.75,3.27H74.44c.42-6.65,5.64-9.92,13.19-9.92s12.45,3.12,12.45,10.45V62.72H90.9V59.5c-1.32,2-3.75,3.85-8.18,3.85C77.76,63.35,73.38,60.93,73.38,55.07Zm17.31-2V51.38H88.21c-3.8,0-5.49.74-5.49,3C82.72,56,83.78,57,86,57,88.68,57,90.69,55.44,90.69,53.07Z" fill="#fff"/><path d="M104.66,35.13h9.45v5.49c1.74-4.12,4.64-5.91,8.91-5.86v8.81c-5.75-.16-8.91,1.64-8.91,6.07V62.72h-9.45Z" fill="#fff"/><path d="M128.14,53.86V41.57h-3.33V35.13h3.33V29.38h9.44v5.75H143v6.44h-5.43V53c0,2,1,2.9,2.8,2.9a7.37,7.37,0,0,0,2.69-.47v7.17a19.76,19.76,0,0,1-5.23.79C131.62,63.35,128.14,60.35,128.14,53.86Z" fill="#fff"/><path d="M146.39,27.64a5.21,5.21,0,1,1,5.17,4.85A4.92,4.92,0,0,1,146.39,27.64Zm.47,7.49h9.45V62.72h-9.45Z" fill="#fff"/><path d="M161.37,35.13h9.44v4.43a9.73,9.73,0,0,1,9.07-5.17c5.33,0,9,3.33,9,10.4V62.72h-9.44v-16c0-3.11-1.21-4.64-4-4.64s-4.7,1.69-4.7,5.22V62.72h-9.44Z" fill="#fff"/><path d="M192,62.72h9.39c.43,2,1.64,3.59,5.07,3.59,4.16,0,5.85-2.38,5.85-5.81V56.28a9.67,9.67,0,0,1-8.54,5.07c-6.44,0-11.71-4.75-11.71-13.24v-.42c0-8.13,5.22-13.3,11.71-13.3,4.38,0,7,1.85,8.54,4.65V35.13h9.44V60.4c0,8.23-5.43,12.55-15.29,12.55C197,73,192.7,69,192,62.72Zm20.58-14.66v-.37c0-3.8-2-6.23-5.44-6.23s-5.43,2.48-5.43,6.28v.42c0,3.8,2,6.23,5.38,6.23S212.54,52,212.54,48.06Z" fill="#fff"/><path d="M235.9,27.64a5.21,5.21,0,1,1,5.17,4.85A4.93,4.93,0,0,1,235.9,27.64Zm.48,7.49h9.44V62.72h-9.44Z" fill="#fff"/><path d="M250.88,35.13h9.45v4.43a9.72,9.72,0,0,1,9.07-5.17c5.33,0,9,3.33,9,10.4V62.72H269v-16c0-3.11-1.22-4.64-4-4.64s-4.69,1.69-4.69,5.22V62.72h-9.45Z" fill="#fff"/><path d="M20.74,114.68v-8.07a12.84,12.84,0,0,0,4.59.74c3,0,4.91-1.32,4.91-5.23V77.75H41.1v24.48c0,9.07-4.64,13.71-13.5,13.71A14.5,14.5,0,0,1,20.74,114.68Z" fill="#fff"/><path d="M44.11,107.82c0-6.49,5.49-9,14.66-9h2.64v-.63c0-2.64-.63-4.38-3.64-4.38A3.39,3.39,0,0,0,54,97.06H45.16c.43-6.65,5.65-9.92,13.19-9.92S70.8,90.26,70.8,97.59v17.88H61.62v-3.22c-1.32,2-3.74,3.85-8.17,3.85C48.49,116.1,44.11,113.68,44.11,107.82Zm17.3-2v-1.69H58.93c-3.8,0-5.48.74-5.48,3,0,1.58,1,2.58,3.27,2.58C59.41,109.72,61.41,108.19,61.41,105.82Z" fill="#fff"/><path d="M75.39,87.88h9.44v4.43a9.73,9.73,0,0,1,9.07-5.17c5.33,0,9,3.33,9,10.4v17.93H93.48v-16c0-3.11-1.21-4.64-4-4.64s-4.7,1.69-4.7,5.22v15.46H75.39Z" fill="#fff"/><path d="M107.3,105.87v-18h9.44v16.46c0,3.11,1.22,4.64,3.91,4.64,2.85,0,4.69-1.69,4.69-5.22V87.88h9.45v27.59h-9.45V111.2c-1.47,2.85-4.16,4.9-8.75,4.9C111.26,116.1,107.3,112.83,107.3,105.87Z" fill="#fff"/><path d="M138,107.82c0-6.49,5.49-9,14.67-9h2.63v-.63c0-2.64-.63-4.38-3.64-4.38a3.39,3.39,0,0,0-3.74,3.27h-8.86c.42-6.65,5.64-9.92,13.19-9.92s12.44,3.12,12.44,10.45v17.88h-9.17v-3.22c-1.32,2-3.75,3.85-8.18,3.85C142.38,116.1,138,113.68,138,107.82Zm17.3-2v-1.69h-2.47c-3.8,0-5.49.74-5.49,3,0,1.58,1,2.58,3.27,2.58C153.3,109.72,155.3,108.19,155.3,105.82Z" fill="#fff"/><path d="M169.28,87.88h9.44v5.49c1.74-4.12,4.65-5.91,8.92-5.86v8.81c-5.75-.16-8.92,1.64-8.92,6.07v13.08h-9.44Z" fill="#fff"/><path d="M200.14,112.67l-11-24.79h10.23l5.7,14.72,5.27-14.72h9L204.57,124.7h-9Z" fill="#fff"/><path d="M215.75,119.74l4.44-13.87,8.75,3.11-7.59,12.93Z" fill="#fff"/><path d="M30.45,165.42l-11-24.79H29.66l5.69,14.72,5.28-14.72h9L34.88,177.45h-9Z" fill="#fff"/><path d="M49.12,154.77v-.42c0-8.86,6.59-14.46,15.14-14.46s15,5.44,15,14.19v.43c0,9-6.59,14.34-15.08,14.34S49.12,163.68,49.12,154.77Zm20.57-.16v-.42c0-4.64-1.84-7.23-5.43-7.23s-5.49,2.48-5.49,7.12v.43c0,4.74,1.85,7.33,5.49,7.33S69.69,159.2,69.69,154.61Z" fill="#fff"/><path d="M82.4,158.62v-18h9.45v16.46c0,3.11,1.21,4.64,3.9,4.64,2.85,0,4.69-1.69,4.69-5.22V140.63h9.45v27.59h-9.45V164c-1.47,2.85-4.16,4.9-8.75,4.9C86.36,168.85,82.4,165.58,82.4,158.62Z" fill="#fff"/><path d="M122.81,154.77v-.42c0-9.18,6.59-14.46,14.72-14.46,6.75,0,13,3,13.5,11.34h-8.86c-.42-2.58-1.69-4-4.43-4-3.32,0-5.28,2.37-5.28,7v.42c0,4.8,1.85,7.28,5.44,7.28,2.63,0,4.48-1.58,4.8-4.59h8.49c-.26,7-5,11.5-13.87,11.5C129.09,168.85,122.81,164.05,122.81,154.77Z" fill="#fff"/><path d="M152.77,154.77v-.42c0-8.86,6.6-14.46,15.14-14.46s15,5.44,15,14.19v.43c0,9-6.59,14.34-15.08,14.34S152.77,163.68,152.77,154.77Zm20.57-.16v-.42c0-4.64-1.84-7.23-5.43-7.23s-5.49,2.48-5.49,7.12v.43c0,4.74,1.85,7.33,5.49,7.33S173.34,159.2,173.34,154.61Z" fill="#fff"/><path d="M186.06,158.62v-18h9.44v16.46c0,3.11,1.21,4.64,3.9,4.64,2.85,0,4.7-1.69,4.7-5.22V140.63h9.44v27.59H204.1V164c-1.48,2.85-4.17,4.9-8.76,4.9C190,168.85,186.06,165.58,186.06,158.62Z" fill="#fff"/><path d="M218.6,128.5H228v39.72H218.6Z" fill="#fff"/><path d="M231.68,154.72v-.43c0-9.39,5.17-14.4,11.71-14.4,4.33,0,6.91,1.85,8.5,4.65v-16h9.44v39.72h-9.44v-4.48a9.3,9.3,0,0,1-8.6,5.11C236.91,168.85,231.68,164.26,231.68,154.72Zm20.47-.16v-.42c0-4.65-2-7.12-5.43-7.12s-5.44,2.37-5.44,7.17v.42c0,4.64,2.06,7,5.33,7C250,161.63,252.15,159.25,252.15,154.56Z" fill="#fff"/><path d="M20.27,221h9.39c.42,2,1.63,3.59,5.06,3.59,4.17,0,5.85-2.38,5.85-5.81v-4.22A9.67,9.67,0,0,1,32,219.6c-6.44,0-11.71-4.75-11.71-13.24v-.42c0-8.13,5.22-13.3,11.71-13.3,4.38,0,7,1.85,8.54,4.65v-3.91H50v25.27c0,8.23-5.44,12.55-15.3,12.55C25.33,231.2,21,227.25,20.27,221Zm20.57-14.66v-.37c0-3.8-2-6.23-5.43-6.23S30,202.19,30,206v.42c0,3.8,2,6.23,5.38,6.23S40.84,210.21,40.84,206.31Z" fill="#fff"/><path d="M53.34,207.52v-.42c0-8.86,6.59-14.46,14.93-14.46,7.54,0,14,4.33,14,14.25v2.48H62.89c.26,3.63,2.37,5.75,5.75,5.75,3.11,0,4.43-1.43,4.8-3.28H82.3c-.84,6.23-5.64,9.76-14,9.76C59.67,221.6,53.34,216.54,53.34,207.52ZM73.12,204c-.16-3.33-1.79-5.17-4.85-5.17-2.85,0-4.8,1.84-5.28,5.17Z" fill="#fff"/><path d="M86.84,212.11V199.82H83.51v-6.44h3.33v-5.75h9.44v5.75h5.43v6.44H96.28v11.39c0,2,1,2.9,2.79,2.9a7.29,7.29,0,0,0,2.69-.47v7.17a19.6,19.6,0,0,1-5.22.79C90.32,221.6,86.84,218.6,86.84,212.11Z" fill="#fff"/><path d="M113.32,213.32c0-6.49,5.48-9,14.66-9h2.64v-.63c0-2.64-.64-4.38-3.64-4.38a3.39,3.39,0,0,0-3.75,3.27h-8.86c.42-6.65,5.64-9.92,13.19-9.92S140,195.76,140,203.09V221h-9.18v-3.22c-1.32,2-3.75,3.85-8.18,3.85C117.69,221.6,113.32,219.18,113.32,213.32Zm17.3-2v-1.69h-2.48c-3.8,0-5.49.74-5.49,3,0,1.58,1.06,2.58,3.27,2.58C128.61,215.22,130.62,213.69,130.62,211.32Z" fill="#fff"/><path d="M22.64,236H37.41c9.86,0,15.35,4,15.35,12v.21a9.87,9.87,0,0,1-6.8,9.92l9,15.61H43.58l-7.65-13.5H33.4v13.5H22.64Zm14.24,17.2c3.64,0,5.44-1.53,5.44-4.59v-.21c0-3.06-1.9-4.27-5.38-4.27H33.4v9.07Z" fill="#fff"/><path d="M55,260.27v-.42c0-8.86,6.59-14.46,14.92-14.46,7.55,0,14,4.33,14,14.25v2.48H64.52c.27,3.63,2.38,5.75,5.75,5.75,3.11,0,4.43-1.43,4.8-3.28h8.87c-.85,6.23-5.65,9.76-14,9.76C61.31,274.35,55,269.29,55,260.27Zm19.78-3.48c-.16-3.33-1.8-5.17-4.86-5.17-2.84,0-4.8,1.84-5.27,5.17Z" fill="#fff"/><path d="M88.63,252.57H85.15v-6.44h3.48v-2.42c0-6.86,4.27-10.13,10.81-10.13a16.74,16.74,0,0,1,4.33.58v6.91a8.74,8.74,0,0,0-2.59-.37c-2.21,0-3.16,1.21-3.16,3v2.42h5.59v6.44H98v21.15H88.63Z" fill="#fff"/><path d="M106.56,264.12v-18H116v16.46c0,3.11,1.21,4.64,3.9,4.64,2.85,0,4.69-1.69,4.69-5.22V246.13h9.45v27.59H124.6v-4.27c-1.47,2.85-4.16,4.9-8.75,4.9C110.52,274.35,106.56,271.08,106.56,264.12Z" fill="#fff"/><path d="M138.85,246.13h9.44v4.43a9.73,9.73,0,0,1,9.07-5.17c5.33,0,9,3.33,9,10.4v17.93h-9.44v-16c0-3.11-1.21-4.64-4-4.64s-4.69,1.69-4.69,5.22v15.46h-9.44Z" fill="#fff"/><path d="M169.6,260.22v-.43c0-9.39,5.17-14.4,11.71-14.4,4.32,0,6.91,1.85,8.49,4.65V234h9.44v39.72H189.8v-4.48a9.3,9.3,0,0,1-8.6,5.11C174.82,274.35,169.6,269.76,169.6,260.22Zm20.47-.16v-.42c0-4.65-2-7.12-5.44-7.12s-5.43,2.37-5.43,7.17v.42c0,4.64,2.06,7,5.33,7C188,267.13,190.07,264.75,190.07,260.06Z" fill="#fff"/><path d="M31.77,288.75h14l12,37.72H46.27l-2-7H31.77l-2,7H19.69ZM33.88,312h8.28L38,297.51Z" fill="#fff"/><path d="M58.35,313v-.43c0-9.38,5.17-14.4,11.71-14.4,4.33,0,6.91,1.85,8.5,4.65v-16H88v39.72H78.56V322A9.33,9.33,0,0,1,70,327.1C63.57,327.1,58.35,322.51,58.35,313Zm20.47-.16v-.42c0-4.65-1.95-7.13-5.43-7.13S68,307.64,68,312.44v.42c0,4.64,2.06,7,5.33,7C76.71,319.88,78.82,317.5,78.82,312.81Z" fill="#fff"/><path d="M90.42,298.88H100.5l5.75,17.78,5.64-17.78h9l-10.07,27.59H100.55Z" fill="#fff"/><path d="M120.54,318.82c0-6.49,5.49-9,14.67-9h2.64v-.63c0-2.64-.64-4.38-3.64-4.38a3.39,3.39,0,0,0-3.75,3.27H121.6c.42-6.65,5.64-9.92,13.19-9.92s12.45,3.12,12.45,10.45v17.88h-9.18v-3.22c-1.32,2-3.75,3.85-8.18,3.85C124.92,327.1,120.54,324.68,120.54,318.82Zm17.31-2v-1.69h-2.48c-3.8,0-5.49.74-5.49,3,0,1.58,1.06,2.58,3.27,2.58C135.84,320.72,137.85,319.19,137.85,316.82Z" fill="#fff"/><path d="M151.82,298.88h9.45v4.43a9.72,9.72,0,0,1,9.07-5.17c5.33,0,9,3.33,9,10.4v17.93h-9.44v-16c0-3.11-1.22-4.64-4-4.64s-4.69,1.69-4.69,5.22v15.46h-9.45Z" fill="#fff"/><path d="M182.47,313v-.42c0-9.18,6.6-14.46,14.72-14.46,6.75,0,13,3,13.5,11.35h-8.86c-.42-2.59-1.69-4-4.43-4-3.32,0-5.28,2.37-5.28,7v.42c0,4.8,1.85,7.28,5.44,7.28,2.64,0,4.48-1.58,4.8-4.59h8.49c-.26,7-5,11.5-13.87,11.5C188.75,327.1,182.47,322.3,182.47,313Z" fill="#fff"/><path d="M212.43,313v-.42c0-8.86,6.6-14.46,14.93-14.46,7.54,0,14,4.33,14,14.25v2.48H222c.26,3.63,2.37,5.75,5.75,5.75,3.11,0,4.43-1.43,4.8-3.28h8.86c-.84,6.23-5.64,9.76-14,9.76C218.76,327.1,212.43,322,212.43,313Zm19.78-3.48c-.15-3.33-1.79-5.17-4.85-5.17-2.85,0-4.8,1.84-5.27,5.17Z" fill="#fff"/><path d="M22.06,339.5h9.39v39.72H22.06Z" fill="#fff"/><path d="M35,365.77v-.42c0-8.86,6.59-14.46,15.13-14.46s15,5.44,15,14.19v.43c0,9-6.6,14.34-15.09,14.34S35,374.68,35,365.77Zm20.57-.16v-.42c0-4.64-1.85-7.23-5.44-7.23s-5.48,2.48-5.48,7.12v.43c0,4.74,1.85,7.33,5.48,7.33S55.61,370.2,55.61,365.61Z" fill="#fff"/><path d="M67,371.57c0-6.49,5.49-9,14.66-9h2.64v-.63c0-2.64-.63-4.38-3.64-4.38a3.39,3.39,0,0,0-3.74,3.27H68c.43-6.65,5.65-9.92,13.19-9.92S93.64,354,93.64,361.34v17.88H84.46V376c-1.32,2-3.74,3.85-8.17,3.85C71.33,379.85,67,377.43,67,371.57Zm17.3-2v-1.69H81.77c-3.8,0-5.48.74-5.48,3,0,1.58,1,2.58,3.27,2.58C82.25,373.47,84.25,371.94,84.25,369.57Z" fill="#fff"/><path d="M98.23,351.63h9.44v4.43a9.73,9.73,0,0,1,9.07-5.17c5.33,0,9,3.33,9,10.4v17.93h-9.44v-16c0-3.11-1.21-4.64-3.95-4.64s-4.7,1.69-4.7,5.22v15.46H98.23Z" fill="#fff"/><path d="M139.74,369.62v-18h9.44v16.46c0,3.11,1.22,4.64,3.91,4.64,2.85,0,4.69-1.69,4.69-5.22V351.63h9.44v27.59h-9.44V375c-1.47,2.85-4.16,4.9-8.75,4.9C143.7,379.85,139.74,376.58,139.74,369.62Z" fill="#fff"/><path d="M172,351.63h9.45v4.12a9.73,9.73,0,0,1,8.6-4.86c6.43,0,11.65,4.86,11.65,14.3v.42c0,9.5-5.22,14.24-11.71,14.24-4.17,0-7.17-2-8.54-4.69v13.29H172Zm20.1,14v-.42c0-4.85-2.11-7.18-5.43-7.18s-5.49,2.48-5.49,7.13v.42c0,4.69,2.06,7.07,5.49,7.07S192.12,370.15,192.12,365.61Z" fill="#fff"/><path d="M216,370.36V358.07h-3.33v-6.44H216v-5.75h9.44v5.75h5.43v6.44h-5.43v11.39c0,2,1,2.9,2.79,2.9a7.18,7.18,0,0,0,2.7-.47v7.17a19.76,19.76,0,0,1-5.23.79C219.5,379.85,216,376.85,216,370.36Z" fill="#fff"/><path d="M233,365.77v-.42c0-8.86,6.6-14.46,15.14-14.46s15,5.44,15,14.19v.43c0,9-6.59,14.34-15.08,14.34S233,374.68,233,365.77Zm20.57-.16v-.42c0-4.64-1.84-7.23-5.43-7.23s-5.48,2.48-5.48,7.12v.43c0,4.74,1.84,7.33,5.48,7.33S253.57,370.2,253.57,365.61Z" fill="#fff"/><path d="M27.85,414.71c-5.31-.37-7.9-3.2-8.11-7.25h5.69a2.91,2.91,0,0,0,2.42,2.89v-4.49c-5.35-.77-7.62-2.71-7.62-7,0-3.72,2.92-6.4,7.62-6.74v-2.73h2.4v2.76c4.46.37,7.11,2.43,7.47,6.65H32.16a2.45,2.45,0,0,0-1.91-2.31v4.24C35,401.43,38,403,38,407.49c0,3.75-2.43,6.88-7.78,7.22v3.85h-2.4Zm0-14.33v-3.93c-1.38.24-2.09,1-2.09,2S26.19,400.05,27.85,400.38Zm2.4,5.88v4.09a2.22,2.22,0,0,0,2.06-2.19C32.31,407.15,31.88,406.63,30.25,406.26Z" fill="#fff"/><path d="M39.91,419.57h9.6c.32,3.12,1.8,5.23,5.54,5.23,3.33,0,5-1.59,5-4.28,0-2.95-1.58-4.43-5-4.43H52v-6.7h2.8c3.38,0,5-1.53,5-4.16,0-2.27-1.47-3.75-4.32-3.75s-4.59,1.74-5,4.8H41c.47-7.44,5.43-12.55,14.82-12.55,8.86,0,14.19,4.06,14.19,10.34,0,4.22-2.43,7-6.38,8.12,4.32.9,7.33,4,7.33,8.54,0,7.18-5.33,11.87-15.3,11.87C45.13,432.6,40.23,427.75,39.91,419.57Z" fill="#fff"/><path d="M71.83,436.24l4.43-13.87L85,425.48l-7.59,12.93Z" fill="#fff"/><path d="M86.76,420.1h9.81c.37,2.64,1.42,4.38,4.9,4.38,3.11,0,4.54-2.32,4.54-5.33,0-3.37-1.85-5.38-5.12-5.38a7.71,7.71,0,0,0-6.22,2.69H88.23L89,394.25h25.43v7.92H96.83l-.21,8.33c1.42-2.06,4.11-4,8.81-4,6.91,0,11.45,4.64,11.45,12.82,0,8-5.75,13.29-15.3,13.29C91.56,432.6,87,427.17,86.76,420.1Z" fill="#fff"/><path d="M119.51,413.93v-1.58c0-11.92,7.44-18.62,17.41-18.62s17.41,6.17,17.41,18.41v1.47c0,12-6.86,19-17.62,19C126.16,432.6,119.51,425.8,119.51,413.93Zm24-.11v-1.53c0-6.91-2-10.39-6.59-10.39s-6.59,3.43-6.59,10.39v1.59c0,7,2,10.34,6.7,10.34S143.51,420.79,143.51,413.82Z" fill="#fff"/><path d="M157.33,413.93v-1.58c0-11.92,7.44-18.62,17.41-18.62s17.41,6.17,17.41,18.41v1.47c0,12-6.86,19-17.62,19C164,432.6,157.33,425.8,157.33,413.93Zm24-.11v-1.53c0-6.91-2-10.39-6.6-10.39s-6.59,3.43-6.59,10.39v1.59c0,7,2.06,10.34,6.7,10.34S181.34,420.79,181.34,413.82Z" fill="#fff"/><path d="M193.05,427.22a5.26,5.26,0,0,1,5.38-5.32,5.33,5.33,0,1,1,0,10.65A5.26,5.26,0,0,1,193.05,427.22Z" fill="#fff"/></g></g></g></svg>