<svg xmlns="http://www.w3.org/2000/svg" viewBox="0 0 728 90"><title>H64</title><g id="Layer_2" data-name="Layer 2"><g id="Rect"><rect width="728" height="90" fill="none"/></g><g id="H64"><g id="Who_wants_to_know_their_price_upfront_Everyone." data-name="Who wants to know their price upfront? Everyone."><path d="M120.46,15.25h6.83l3,14.72,3.17-14.72h6l3.43,14.85,3.2-14.85h6.27l-5.51,23.6h-7.06l-3.63-15-3.67,15h-6.6Z" fill="#fff"/><path d="M154.12,14H160V24.36a6.09,6.09,0,0,1,5.68-3.23c3.33,0,5.64,2.07,5.64,6.5V38.85h-5.91v-10c0-1.95-.76-2.91-2.47-2.91S160,27,160,29.18v9.67h-5.91Z" fill="#fff"/><path d="M173.29,30.43v-.26c0-5.55,4.13-9,9.48-9s9.4,3.39,9.4,8.87v.27c0,5.61-4.12,9-9.44,9S173.29,36,173.29,30.43Zm12.88-.1v-.26c0-2.9-1.16-4.52-3.4-4.52s-3.44,1.55-3.44,4.45v.27c0,3,1.16,4.58,3.44,4.58S186.17,33.21,186.17,30.33Z" fill="#fff"/><path d="M198.8,21.59H205l2.51,10.33,2.91-10.33h4.75l2.57,10.33,2.81-10.33h5.61l-5.48,17.26H215l-2.58-9.64-2.67,9.64H204Z" fill="#fff"/><path d="M226,34.06c0-4.06,3.44-5.64,9.18-5.64h1.65V28c0-1.65-.4-2.74-2.28-2.74a2.12,2.12,0,0,0-2.34,2h-5.55c.27-4.16,3.54-6.2,8.26-6.2s7.79,1.94,7.79,6.53V38.85H237v-2c-.82,1.25-2.34,2.4-5.11,2.4C228.73,39.24,226,37.73,226,34.06Zm10.83-1.25V31.75h-1.55c-2.38,0-3.43.46-3.43,1.88,0,1,.66,1.62,2,1.62C235.57,35.25,236.82,34.29,236.82,32.81Z" fill="#fff"/><path d="M245.56,21.59h5.91v2.77a6.11,6.11,0,0,1,5.68-3.23c3.33,0,5.64,2.07,5.64,6.5V38.85h-5.91v-10c0-1.95-.75-2.91-2.47-2.91s-2.94,1.06-2.94,3.27v9.67h-5.91Z" fill="#fff"/><path d="M266.45,33.3V25.61h-2.08v-4h2.08V18h5.91v3.6h3.4v4h-3.4v7.13c0,1.26.63,1.82,1.75,1.82a4.45,4.45,0,0,0,1.68-.3v4.49a12.33,12.33,0,0,1-3.26.49C268.63,39.24,266.45,37.36,266.45,33.3Z" fill="#fff"/><path d="M277.08,33.37h5.44c.2,1.25.76,2,2.45,2,1.45,0,2.11-.56,2.11-1.42s-.83-1.22-3.2-1.55c-4.62-.6-6.57-2-6.57-5.55,0-3.83,3.4-5.67,7.39-5.67,4.26,0,7.23,1.45,7.63,5.57H287A1.93,1.93,0,0,0,284.77,25c-1.29,0-1.95.56-1.95,1.35s.79,1.16,2.9,1.42c4.79.59,7.1,1.85,7.1,5.54,0,4.1-3,5.94-7.82,5.94S277.21,37.2,277.08,33.37Z" fill="#fff"/><path d="M301.53,33.3V25.61h-2.08v-4h2.08V18h5.91v3.6h3.4v4h-3.4v7.13c0,1.26.63,1.82,1.75,1.82a4.45,4.45,0,0,0,1.68-.3v4.49a12.35,12.35,0,0,1-3.27.49C303.71,39.24,301.53,37.36,301.53,33.3Z" fill="#fff"/><path d="M312.16,30.43v-.26c0-5.55,4.12-9,9.47-9S331,24.52,331,30v.27c0,5.61-4.12,9-9.43,9S312.16,36,312.16,30.43Zm12.87-.1v-.26c0-2.9-1.16-4.52-3.4-4.52S318.2,27.1,318.2,30v.27c0,3,1.15,4.58,3.43,4.58S325,33.21,325,30.33Z" fill="#fff"/><path d="M339.12,14H345V28.42l4.66-6.83h6.14l-5.65,7.75,6.11,9.51h-6.6L345,31.29v7.56h-5.9Z" fill="#fff"/><path d="M357.66,21.59h5.91v2.77a6.1,6.1,0,0,1,5.68-3.23c3.33,0,5.64,2.07,5.64,6.5V38.85H369v-10c0-1.95-.76-2.91-2.47-2.91s-2.94,1.06-2.94,3.27v9.67h-5.91Z" fill="#fff"/><path d="M376.83,30.43v-.26c0-5.55,4.13-9,9.48-9s9.4,3.39,9.4,8.87v.27c0,5.61-4.12,9-9.44,9S376.83,36,376.83,30.43Zm12.88-.1v-.26c0-2.9-1.16-4.52-3.4-4.52s-3.43,1.55-3.43,4.45v.27c0,3,1.15,4.58,3.43,4.58S389.71,33.21,389.71,30.33Z" fill="#fff"/><path d="M395.78,21.59H402l2.51,10.33,2.9-10.33h4.75l2.58,10.33,2.8-10.33h5.61l-5.47,17.26H412l-2.57-9.64-2.68,9.64H401Z" fill="#fff"/><path d="M431.42,33.3V25.61h-2.08v-4h2.08V18h5.9v3.6h3.4v4h-3.4v7.13c0,1.26.63,1.82,1.75,1.82a4.5,4.5,0,0,0,1.69-.3v4.49a12.35,12.35,0,0,1-3.27.49C433.59,39.24,431.42,37.36,431.42,33.3Z" fill="#fff"/><path d="M443,14h5.9V24.36a6.11,6.11,0,0,1,5.68-3.23c3.33,0,5.64,2.07,5.64,6.5V38.85h-5.9v-10c0-1.95-.76-2.91-2.48-2.91s-2.94,1.06-2.94,3.27v9.67H443Z" fill="#fff"/><path d="M462.14,30.43v-.26c0-5.55,4.12-9,9.34-9,4.72,0,8.78,2.7,8.78,8.91v1.55H468.11c.17,2.27,1.49,3.6,3.6,3.6,2,0,2.77-.9,3-2h5.55c-.53,3.89-3.53,6.1-8.75,6.1C466.1,39.24,462.14,36.08,462.14,30.43Zm12.38-2.18c-.1-2.08-1.13-3.23-3-3.23s-3,1.15-3.3,3.23Z" fill="#fff"/><path d="M482.17,16.9a3.26,3.26,0,1,1,3.23,3A3.08,3.08,0,0,1,482.17,16.9Zm.3,4.69h5.9V38.85h-5.9Z" fill="#fff"/><path d="M491.54,21.59h5.91V25A5.43,5.43,0,0,1,503,21.36v5.51c-3.6-.1-5.58,1-5.58,3.79v8.19h-5.91Z" fill="#fff"/><path d="M121.75,56.59h5.91v2.57a6.08,6.08,0,0,1,5.38-3c4,0,7.29,3,7.29,8.94v.26c0,5.94-3.27,8.92-7.33,8.92a5.7,5.7,0,0,1-5.34-2.94v8.32h-5.91Zm12.57,8.74v-.26c0-3-1.32-4.49-3.4-4.49s-3.43,1.55-3.43,4.46v.26c0,2.94,1.29,4.42,3.43,4.42S134.32,68.17,134.32,65.33Z" fill="#fff"/><path d="M142.47,56.59h5.91V60A5.44,5.44,0,0,1,154,56.36v5.51c-3.6-.1-5.58,1-5.58,3.79v8.19h-5.91Z" fill="#fff"/><path d="M156,51.9a3.26,3.26,0,1,1,3.23,3A3.08,3.08,0,0,1,156,51.9Zm.3,4.69h5.9V73.85h-5.9Z" fill="#fff"/><path d="M164.42,65.43v-.26c0-5.74,4.12-9,9.21-9,4.22,0,8.12,1.84,8.45,7.09h-5.55c-.26-1.62-1.06-2.51-2.77-2.51-2.08,0-3.3,1.49-3.3,4.39v.27c0,3,1.15,4.55,3.4,4.55a2.87,2.87,0,0,0,3-2.87h5.31c-.16,4.36-3.1,7.2-8.68,7.2C168.35,74.25,164.42,71.24,164.42,65.43Z" fill="#fff"/><path d="M183.16,65.43v-.26c0-5.55,4.13-9,9.34-9,4.72,0,8.78,2.7,8.78,8.91v1.55H189.14c.16,2.28,1.48,3.6,3.59,3.6,2,0,2.77-.9,3-2h5.54c-.53,3.89-3.53,6.11-8.75,6.11C187.12,74.25,183.16,71.08,183.16,65.43Zm12.38-2.18c-.1-2.08-1.12-3.23-3-3.23s-3,1.15-3.3,3.23Z" fill="#fff"/><path d="M209.2,67.84V56.59h5.91V66.88c0,2,.75,2.91,2.44,2.91s2.94-1.06,2.94-3.27V56.59h5.9V73.85h-5.9V71.18A5.69,5.69,0,0,1,215,74.25C211.67,74.25,209.2,72.2,209.2,67.84Z" fill="#fff"/><path d="M229.39,56.59h5.91v2.57a6.08,6.08,0,0,1,5.38-3c4,0,7.3,3,7.3,8.94v.26c0,5.94-3.27,8.92-7.33,8.92a5.71,5.71,0,0,1-5.35-2.94v8.32h-5.91ZM242,65.33v-.26c0-3-1.32-4.49-3.4-4.49s-3.43,1.55-3.43,4.46v.26c0,2.94,1.28,4.42,3.43,4.42S242,68.17,242,65.33Z" fill="#fff"/><path d="M251,60.61h-2.18v-4H251V55.07c0-4.29,2.67-6.34,6.76-6.34a10.92,10.92,0,0,1,2.71.36v4.33a5.52,5.52,0,0,0-1.62-.23,1.74,1.74,0,0,0-2,1.88v1.52h3.5v4h-3.5V73.85H251Z" fill="#fff"/><path d="M262.36,56.59h5.91V60a5.43,5.43,0,0,1,5.58-3.66v5.51c-3.6-.1-5.58,1-5.58,3.79v8.19h-5.91Z" fill="#fff"/><path d="M274.9,65.43v-.26c0-5.55,4.13-9,9.47-9s9.41,3.39,9.41,8.87v.27c0,5.61-4.13,9-9.44,9S274.9,71,274.9,65.43Zm12.87-.1v-.26c0-2.9-1.15-4.52-3.4-4.52s-3.43,1.55-3.43,4.45v.27c0,3,1.15,4.59,3.43,4.59S287.77,68.21,287.77,65.33Z" fill="#fff"/><path d="M295.85,56.59h5.91v2.77a6.11,6.11,0,0,1,5.68-3.23c3.33,0,5.64,2.07,5.64,6.5V73.85h-5.9v-10c0-2-.76-2.91-2.48-2.91s-2.94,1.06-2.94,3.27v9.67h-5.91Z" fill="#fff"/><path d="M316.74,68.3V60.61h-2.08v-4h2.08V53h5.91v3.6h3.4v4h-3.4v7.13c0,1.26.63,1.82,1.75,1.82a4.42,4.42,0,0,0,1.68-.3v4.49a12.27,12.27,0,0,1-3.26.5C318.92,74.25,316.74,72.36,316.74,68.3Z" fill="#fff"/><path d="M332.12,65.47c0-2.51,1.72-4.1,3.24-5.55,1.12-1.09,2.14-2.08,2.14-3.23a1.76,1.76,0,0,0-2-2c-1.42,0-2.38,1.08-2.61,2.9h-5.74c.16-5,3.73-7.69,8.81-7.69s7.95,2.28,7.95,6.21a6.74,6.74,0,0,1-2.4,4.95c-1.62,1.61-3.5,2.9-3.8,4.52v.49h-5.58Zm-.76,5.47a3.54,3.54,0,0,1,7.07,0,3.55,3.55,0,0,1-7.07,0Z" fill="#fff"/><path d="M352.68,50.25H369v5.21h-9.57v4.06H367v4.82h-7.63v4.29h10.1v5.22H352.68Z" fill="#fff"/><path d="M369.87,56.59h6.31l3.59,11.12,3.54-11.12H389l-6.3,17.26h-6.44Z" fill="#fff"/><path d="M388.58,65.43v-.26c0-5.55,4.13-9,9.34-9,4.72,0,8.78,2.7,8.78,8.91v1.55H394.56c.16,2.28,1.48,3.6,3.59,3.6,2,0,2.78-.9,3-2h5.54c-.53,3.89-3.53,6.11-8.74,6.11C392.54,74.25,388.58,71.08,388.58,65.43ZM401,63.25c-.1-2.08-1.12-3.23-3-3.23s-3,1.15-3.3,3.23Z" fill="#fff"/><path d="M408.75,56.59h5.9V60a5.44,5.44,0,0,1,5.58-3.66v5.51c-3.6-.1-5.58,1-5.58,3.79v8.19h-5.9Z" fill="#fff"/><path d="M428.05,72.1l-6.9-15.51h6.41l3.56,9.21,3.3-9.21h5.65l-9.25,23h-5.64Z" fill="#fff"/><path d="M439.73,65.43v-.26c0-5.55,4.13-9,9.48-9s9.4,3.39,9.4,8.87v.27c0,5.61-4.12,9-9.44,9S439.73,71,439.73,65.43Zm12.87-.1v-.26c0-2.9-1.15-4.52-3.39-4.52s-3.44,1.55-3.44,4.45v.27c0,3,1.16,4.59,3.44,4.59S452.6,68.21,452.6,65.33Z" fill="#fff"/><path d="M460.69,56.59h5.9v2.77a6.11,6.11,0,0,1,5.68-3.23c3.34,0,5.65,2.07,5.65,6.5V73.85H472v-10c0-2-.76-2.91-2.48-2.91s-2.94,1.06-2.94,3.27v9.67h-5.9Z" fill="#fff"/><path d="M479.86,65.43v-.26c0-5.55,4.13-9,9.34-9,4.72,0,8.78,2.7,8.78,8.91v1.55H485.83c.17,2.28,1.49,3.6,3.6,3.6,1.95,0,2.77-.9,3-2H498c-.53,3.89-3.53,6.11-8.75,6.11C483.82,74.25,479.86,71.08,479.86,65.43Zm12.38-2.18c-.1-2.08-1.13-3.23-3-3.23s-3,1.15-3.3,3.23Z" fill="#fff"/><path d="M499.63,70.88A3.29,3.29,0,0,1,503,67.54a3.34,3.34,0,1,1,0,6.67A3.29,3.29,0,0,1,499.63,70.88Z" fill="#fff"/></g></g></g></svg>