<?xml version="1.0" encoding="utf-8"?>
<!-- Generator: Adobe Illustrator 23.1.1, SVG Export Plug-In . SVG Version: 6.00 Build 0)  -->
<svg version="1.1" id="Layer_1" xmlns="http://www.w3.org/2000/svg" xmlns:xlink="http://www.w3.org/1999/xlink" x="0px" y="0px"
	 viewBox="0 0 320 1200" style="enable-background:new 0 0 320 1200;" xml:space="preserve">
<style type="text/css">
	.st0{fill:none;}
	.st1{fill:#FFFFFF;}
</style>
<title>H5</title>
<g>
	<g id="Rect">
		<rect class="st0" width="320" height="1200"/>
	</g>
	<g id="H5">
		<g id="You_could_get_up_to_3_500_within_minutes_of_filing._0_interes">
			<path class="st1" d="M52.9,112L40.4,90h12l6.5,12.9L65.3,90h10.5L64,112v16.4H52.9V112z"/>
			<path class="st1" d="M71.8,114.6v-0.4c0-9,6.7-14.7,15.4-14.7s15.2,5.5,15.2,14.4v0.4c0,9.1-6.7,14.5-15.3,14.5
				S71.8,123.7,71.8,114.6z M92.6,114.5V114c0-4.7-1.9-7.3-5.5-7.3s-5.6,2.6-5.6,7.3v0.4c0,4.8,1.9,7.4,5.6,7.4
				S92.6,119.1,92.6,114.5z"/>
			<path class="st1" d="M105.5,118.5v-18.2h9.6V117c0,3.2,1.2,4.7,4,4.7s4.8-1.7,4.8-5.3v-16.1h9.5v28h-9.6V124
				c-1.7,3.3-5.2,5.2-8.9,5C109.5,128.9,105.5,125.6,105.5,118.5z"/>
			<path class="st1" d="M41.3,178.1v-0.4c0-9.3,6.7-14.7,14.9-14.7c6.9,0,13.2,3,13.7,11.5h-9c-0.1-2.3-2-4.1-4.3-4
				c-0.1,0-0.2,0-0.2,0c-3.4,0-5.4,2.4-5.4,7.1v0.3c0,4.9,1.9,7.4,5.5,7.4c2.6,0.1,4.7-1.9,4.9-4.4c0-0.1,0-0.2,0-0.2h8.6
				c-0.3,7.1-5,11.7-14,11.7C47.7,192.4,41.3,187.6,41.3,178.1z"/>
			<path class="st1" d="M71.7,178.1v-0.4c0-9,6.7-14.7,15.4-14.7s15.2,5.5,15.2,14.4v0.4c0,9.1-6.7,14.5-15.3,14.5
				S71.7,187.2,71.7,178.1z M92.6,178v-0.4c0-4.7-1.9-7.3-5.5-7.3s-5.6,2.5-5.6,7.2v0.4c0,4.8,1.9,7.4,5.6,7.4S92.6,182.6,92.6,178z
				"/>
			<path class="st1" d="M105.5,182v-18.2h9.6v16.7c0,3.2,1.2,4.7,4,4.7s4.8-1.7,4.8-5.3v-16h9.6v28h-9.6v-4.4
				c-1.7,3.3-5.2,5.2-8.9,5C109.5,192.4,105.5,189.1,105.5,182z"/>
			<path class="st1" d="M138.5,151.5h9.5v40.3h-9.5V151.5z"/>
			<path class="st1" d="M151.8,178v-0.4c0-9.5,5.2-14.6,11.9-14.6c3.5-0.3,6.9,1.6,8.6,4.7v-16.2h9.6v40.3h-9.6v-4.5
				c-1.6,3.3-5.1,5.3-8.7,5.2C157.1,192.4,151.8,187.8,151.8,178z M172.5,178v-0.4c0-4.7-2-7.2-5.5-7.2s-5.5,2.4-5.5,7.3v0.4
				c0,4.7,2,7.1,5.4,7.1S172.5,182.7,172.5,178z"/>
			<path class="st1" d="M194.9,191.8h9.5c0.4,2,1.7,3.6,5.1,3.6c2.9,0.4,5.6-1.6,6-4.5c0.1-0.5,0.1-0.9,0-1.4v-4.3
				c-1.7,3.2-5,5.2-8.7,5.1c-6.5,0-11.9-4.8-11.9-13.4v-0.4c0-8.2,5.3-13.5,11.9-13.5c3.6-0.3,6.9,1.6,8.7,4.7v-4h9.6v25.7
				c0,8.3-5.5,12.7-15.5,12.7C200,202.2,195.6,198.2,194.9,191.8z M215.7,176.9v-0.4c0-3.9-2-6.3-5.5-6.3s-5.5,2.5-5.5,6.4v0.4
				c0,3.9,2,6.3,5.5,6.3S215.7,180.9,215.7,176.9z"/>
			<path class="st1" d="M228.4,178.1v-0.4c0-9,6.7-14.7,15.1-14.7c7.7,0,14.2,4.4,14.2,14.4v2.5h-19.7c-0.1,3.1,2.3,5.7,5.3,5.8
				c0.2,0,0.4,0,0.6,0c3.2,0,4.5-1.4,4.9-3.3h9c-0.9,6.3-5.7,9.9-14.2,9.9C234.8,192.4,228.4,187.3,228.4,178.1z M248.4,174.6
				c-0.2-3.4-1.8-5.3-4.9-5.3s-4.9,1.9-5.3,5.3H248.4z"/>
			<path class="st1" d="M262.4,182.8v-12.5H259v-6.5h3.4V158h9.6v5.8h5.5v6.5H272v11.5c0,2,1,3,2.8,3c0.9,0,1.9-0.2,2.7-0.5v7.3
				c-1.7,0.5-3.5,0.8-5.3,0.8C266,192.4,262.4,189.4,262.4,182.8z"/>
			<path class="st1" d="M42.6,245.5v-18.2h9.6V244c0,3.2,1.2,4.7,4,4.7s4.8-1.7,4.8-5.3v-16h9.6v28h-9.6v-4.3
				c-1.7,3.3-5.2,5.2-8.9,4.9C46.6,256,42.6,252.6,42.6,245.5z"/>
			<path class="st1" d="M75.4,227.3h9.6v4.2c1.8-3.1,5.1-5,8.7-4.9c6.5,0,11.8,4.9,11.8,14.5v0.4c0,9.6-5.3,14.4-11.9,14.4
				c-3.6,0.2-6.9-1.6-8.7-4.8v13.5h-9.6V227.3z M95.7,241.5v-0.4c0-4.9-2.1-7.3-5.5-7.3s-5.6,2.5-5.6,7.2v0.4c0,4.8,2,7.2,5.6,7.2
				S95.7,246,95.7,241.5z"/>
			<path class="st1" d="M120,246.3v-12.5h-3.4v-6.5h3.4v-5.8h9.6v5.8h5.5v6.5h-5.5v11.5c0,2,1,3,2.8,3c0.9,0,1.9-0.2,2.7-0.5v7.3
				c-1.7,0.5-3.5,0.8-5.3,0.8C123.5,256,120,252.9,120,246.3z"/>
			<path class="st1" d="M137.2,241.6v-0.4c0-9,6.7-14.7,15.4-14.7s15.2,5.5,15.2,14.4v0.4c0,9.1-6.7,14.5-15.3,14.5
				S137.2,250.7,137.2,241.6z M158,241.5v-0.4c0-4.7-1.9-7.3-5.5-7.3s-5.6,2.5-5.6,7.2v0.4c0,4.8,1.9,7.4,5.6,7.4
				S158,246.1,158,241.5z"/>
			<path class="st1" d="M49,301.3c-5.4-0.4-8-3.2-8.2-7.4h5.8c0,1.5,1,2.7,2.5,2.9v-4.6c-5.4-0.8-7.7-2.7-7.7-7.1
				c0-3.8,3-6.5,7.7-6.8v-2.8h2.4v2.8c4.5,0.4,7.2,2.5,7.6,6.7h-5.7c0-1.2-0.9-2.1-2-2.3v4.3c4.8,0.7,7.9,2.3,7.9,6.8
				c0,3.8-2.5,7-7.9,7.3v4H49V301.3z M49,286.7v-4c-1.4,0.2-2.1,1-2.1,2S47.3,286.4,49,286.7z M51.4,292.7v4.2c1.1-0.1,2-1.1,2-2.2
				C53.5,293.6,53.1,293.1,51.4,292.7L51.4,292.7z"/>
			<path class="st1" d="M61.2,306.2h9.7c-0.1,2.8,2.1,5.2,4.9,5.3c0.2,0,0.5,0,0.7,0c3.4,0,5-1.6,5-4.3s-1.6-4.5-5-4.5h-3v-6.8h2.8
				c3.4,0,5.1-1.5,5.1-4.2c0-2.3-1.5-3.8-4.4-3.8c-2.7-0.1-5,2.1-5,4.8c0,0,0,0.1,0,0.1h-9.7c0.5-7.6,5.5-12.7,15-12.7
				c9,0,14.4,4.1,14.4,10.5c0.1,3.9-2.6,7.4-6.5,8.2c4.3,0.6,7.5,4.3,7.4,8.7c0,7.3-5.4,12-15.5,12
				C66.5,319.4,61.5,314.5,61.2,306.2z"/>
			<path class="st1" d="M93.6,323.1l4.5-14l8.9,3.2l-7.7,13.1L93.6,323.1z"/>
			<path class="st1" d="M108.7,306.7h10c-0.1,2.4,1.9,4.4,4.3,4.5c0.2,0,0.5,0,0.7,0c3.2,0,4.6-2.3,4.6-5.4c0.3-2.7-1.5-5.1-4.2-5.4
				c-0.3,0-0.6,0-1,0c-2.4-0.1-4.7,0.9-6.3,2.7h-6.6l0.8-22.5h25.8v8h-17.9l-0.2,8.5c2.1-2.8,5.5-4.3,8.9-4c7,0,11.6,4.7,11.6,13
				s-5.8,13.5-15.5,13.5C113.6,319.4,109,314,108.7,306.7z"/>
			<path class="st1" d="M142,300.5v-1.6c0-12,7.5-18.9,17.7-18.9s17.6,6.3,17.6,18.7v1.5c0,12.2-6.9,19.3-17.9,19.3
				S142,312.5,142,300.5z M166.3,300.4v-1.5c0-7-2-10.5-6.7-10.5s-6.7,3.5-6.7,10.5v1.6c0,7.1,2,10.5,6.8,10.5
				S166.3,307.4,166.3,300.4L166.3,300.4z"/>
			<path class="st1" d="M180.3,300.5v-1.6c0-12,7.5-18.9,17.7-18.9s17.6,6.3,17.6,18.7v1.5c0,12.2-6.9,19.3-17.9,19.3
				S180.3,312.5,180.3,300.5z M204.6,300.4v-1.5c0-7-2-10.5-6.7-10.5s-6.7,3.5-6.7,10.5v1.6c0,7.1,2.1,10.5,6.8,10.5
				S204.6,307.4,204.6,300.4z"/>
			<path class="st1" d="M40.5,354.3h10l4,16.8l4.7-16.8h7.7l4.2,16.8l4.5-16.8h9.1l-8.9,28h-9.1l-4.2-15.6l-4.3,15.6h-9.3
				L40.5,354.3z"/>
			<path class="st1" d="M87,346.7c-0.2-2.9,2-5.4,4.9-5.6c2.9-0.2,5.4,2,5.6,4.9s-2,5.4-4.9,5.6c-0.1,0-0.2,0-0.4,0
				c-2.8,0.1-5.1-2-5.2-4.8C87,346.8,87,346.8,87,346.7z M87.5,354.3h9.6v28h-9.6V354.3z"/>
			<path class="st1" d="M103.5,373.3v-12.5h-3.4v-6.5h3.4v-5.8h9.6v5.8h5.5v6.5h-5.5v11.5c0,2,1,3,2.8,3c0.9,0,1.9-0.2,2.7-0.5v7.3
				c-1.7,0.5-3.5,0.8-5.3,0.8C107,382.9,103.5,379.9,103.5,373.3z"/>
			<path class="st1" d="M122.2,342h9.6v16.8c1.8-3.4,5.4-5.4,9.2-5.2c5.4,0,9.2,3.4,9.2,10.5v18.2h-9.6V366c0-3.2-1.2-4.7-4-4.7
				s-4.8,1.7-4.8,5.3v15.7h-9.6V342z"/>
			<path class="st1" d="M154.6,346.7c0-2.8,2.3-5,5-5c0.1,0,0.1,0,0.2,0c2.7-0.2,5.1,1.9,5.3,4.6c0.2,2.7-1.9,5.1-4.6,5.3
				c-0.2,0-0.4,0-0.6,0c-2.7,0.2-5.1-1.9-5.2-4.7C154.6,346.9,154.6,346.8,154.6,346.7z M155.1,354.3h9.6v28h-9.6V354.3z"/>
			<path class="st1" d="M169.8,354.3h9.6v4.5c1.8-3.4,5.4-5.4,9.2-5.2c5.4,0,9.2,3.4,9.2,10.5v18.2h-9.6V366c0-3.2-1.2-4.7-4-4.7
				s-4.8,1.7-4.8,5.3v15.7h-9.6V354.3z"/>
			<path class="st1" d="M42.8,417.8h9.6v4.2c1.8-3.2,5.1-5.1,8.8-5c3.3-0.3,6.3,1.6,7.6,4.7c2.1-3,5.6-4.7,9.2-4.6
				c5.3,0,9.1,3.4,9.1,10.4v18.3h-9.5v-16.7c0-2.8-1.4-4.2-3.6-4.2c-2.3-0.1-4.2,1.7-4.3,4c0,0.2,0,0.5,0,0.7v16.2h-9.5v-16.7
				c0-2.8-1.4-4.2-3.6-4.2c-2.3-0.1-4.2,1.7-4.3,4c0,0.3,0,0.5,0,0.8v16.2h-9.6V417.8z"/>
			<path class="st1" d="M91.6,410.2c-0.2-2.9,2-5.4,4.9-5.6s5.4,2,5.6,4.9c0.2,2.9-2,5.4-4.9,5.6c-0.1,0-0.2,0-0.3,0
				c-2.8,0.1-5.1-2-5.3-4.7C91.6,410.3,91.6,410.3,91.6,410.2z M92.1,417.8h9.6v28h-9.6L92.1,417.8z"/>
			<path class="st1" d="M106.8,417.8h9.6v4.5c1.8-3.4,5.4-5.4,9.2-5.2c5.4,0,9.1,3.4,9.1,10.5v18.2h-9.6v-16.3c0-3.2-1.2-4.7-4-4.7
				s-4.8,1.7-4.8,5.3v15.7h-9.6V417.8z"/>
			<path class="st1" d="M139.2,436v-18.2h9.6v16.7c0,3.2,1.2,4.7,4,4.7s4.8-1.7,4.8-5.3v-16h9.6v28h-9.6v-4.3
				c-1.7,3.3-5.2,5.2-8.9,5C143.2,446.4,139.2,443.1,139.2,436z"/>
			<path class="st1" d="M173.2,436.8v-12.5h-3.4v-6.5h3.4V412h9.6v5.8h5.5v6.5h-5.5v11.5c0,2,1,3,2.8,3c0.9,0,1.9-0.2,2.7-0.5v7.3
				c-1.7,0.5-3.5,0.8-5.3,0.8C176.7,446.4,173.2,443.4,173.2,436.8z"/>
			<path class="st1" d="M190.4,432.1v-0.4c0-9,6.7-14.7,15.1-14.7c7.7,0,14.2,4.4,14.2,14.4v2.5h-19.7c-0.1,3.1,2.3,5.7,5.4,5.8
				c0.2,0,0.3,0,0.5,0c3.2,0,4.5-1.4,4.9-3.3h9c-0.9,6.3-5.7,9.9-14.2,9.9C196.9,446.4,190.4,441.3,190.4,432.1z M210.4,428.6
				c-0.2-3.4-1.8-5.3-4.9-5.3s-4.9,1.9-5.3,5.3H210.4z"/>
			<path class="st1" d="M221.5,436.9h8.8c0.3,2,1.2,3.2,4,3.2c2.4,0,3.4-0.9,3.4-2.3s-1.3-2-5.2-2.5c-7.5-1-10.6-3.2-10.6-9
				c0-6.2,5.5-9.2,12-9.2c6.9,0,11.7,2.4,12.4,9h-8.7c-0.2-1.7-1.7-3-3.4-2.8c-0.1,0-0.1,0-0.2,0c-2,0-3.1,0.9-3.1,2.2
				s1.3,1.9,4.7,2.3c7.8,1,11.5,3,11.5,9c0,6.6-4.9,9.6-12.7,9.6S221.7,443.1,221.5,436.9z"/>
			<path class="st1" d="M41.3,495.6v-0.4c0-9,6.7-14.7,15.4-14.7S72,486,72,494.9v0.4c0,9.1-6.7,14.5-15.3,14.5
				S41.3,504.7,41.3,495.6z M62.2,495.5v-0.4c0-4.7-1.9-7.3-5.5-7.3s-5.6,2.5-5.6,7.2v0.4c0,4.8,1.9,7.4,5.6,7.4
				S62.2,500.1,62.2,495.5z"/>
			<path class="st1" d="M76.8,487.8h-3.5v-6.5h3.5v-2.5c0-6.9,4.3-10.3,11-10.3c1.5,0,3,0.2,4.4,0.6v7c-0.9-0.2-1.7-0.4-2.6-0.4
				c-1.5-0.2-3,0.8-3.2,2.4c0,0.2,0,0.5,0,0.7v2.5H92v6.5h-5.7v21.4h-9.5V487.8z"/>
			<path class="st1" d="M106.3,487.8h-3.5v-6.5h3.5v-2.5c0-6.9,4.3-10.3,11-10.3c1.5,0,3,0.2,4.4,0.6v7c-0.9-0.2-1.7-0.4-2.6-0.4
				c-1.5-0.2-3,0.8-3.2,2.3c0,0.2,0,0.5,0,0.7v2.5h5.7v6.5h-5.7v21.4h-9.5V487.8z"/>
			<path class="st1" d="M124.5,473.7c-0.2-2.9,2-5.4,4.9-5.6c2.9-0.2,5.4,2,5.6,4.9c0.2,2.9-2,5.4-4.9,5.6c-0.1,0-0.2,0-0.3,0
				c-2.8,0.1-5.1-2-5.3-4.7C124.5,473.8,124.5,473.8,124.5,473.7z M125,481.3h9.6v28H125V481.3z"/>
			<path class="st1" d="M140,469h9.5v40.3H140V469z"/>
			<path class="st1" d="M154.4,473.7c0-2.8,2.3-5,5-5c0.1,0,0.1,0,0.2,0c2.7-0.2,5.1,1.9,5.3,4.6c0.2,2.7-1.9,5.1-4.6,5.3
				c-0.2,0-0.4,0-0.6,0c-2.7,0.2-5.1-1.9-5.2-4.7C154.4,473.9,154.4,473.8,154.4,473.7z M154.9,481.3h9.6v28h-9.6V481.3z"/>
			<path class="st1" d="M169.6,481.3h9.6v4.5c1.8-3.4,5.4-5.4,9.2-5.2c5.4,0,9.2,3.4,9.2,10.5v18.2H188V493c0-3.2-1.2-4.7-4-4.7
				s-4.8,1.7-4.8,5.3v15.7h-9.6V481.3z"/>
			<path class="st1" d="M200.7,509.3h9.5c0.4,2,1.7,3.6,5.1,3.6c2.9,0.4,5.6-1.6,6-4.5c0.1-0.5,0.1-0.9,0-1.4v-4.3
				c-1.7,3.2-5.1,5.2-8.7,5.1c-6.5,0-11.9-4.8-11.9-13.4V494c0-8.2,5.3-13.5,11.9-13.5c3.6-0.3,7,1.6,8.7,4.7v-4h9.6v25.6
				c0,8.3-5.5,12.7-15.5,12.7C205.8,519.7,201.4,515.7,200.7,509.3z M221.5,494.4V494c0-3.9-2-6.3-5.5-6.3s-5.5,2.5-5.5,6.4v0.4
				c0,3.9,2,6.3,5.5,6.3S221.5,498.4,221.5,494.4z"/>
			<path class="st1" d="M235.3,504.5c0-2.9,2.3-5.4,5.3-5.4c0.1,0,0.1,0,0.2,0c3-0.2,5.6,2.1,5.7,5.1c0.2,3-2.1,5.6-5.1,5.7
				c-0.2,0-0.4,0-0.7,0c-2.9,0.1-5.4-2.3-5.5-5.2C235.3,504.6,235.3,504.5,235.3,504.5z"/>
			<path class="st1" d="M42,554.5v-1.6c0-12,7.5-18.9,17.7-18.9s17.7,6.3,17.7,18.7v1.5c0,12.2-7,19.3-17.9,19.3S42,566.5,42,554.5z
				 M66.3,554.4v-1.5c0-7-2-10.5-6.7-10.5s-6.7,3.5-6.7,10.5v1.6c0,7.1,2,10.5,6.8,10.5S66.3,561.4,66.3,554.4L66.3,554.4z"/>
			<path class="st1" d="M79.3,543.6c0.1-5.3,4.4-9.6,9.7-9.5c0.1,0,0.3,0,0.4,0c5.3-0.2,9.8,3.9,10,9.2s-3.9,9.8-9.2,10
				c-0.3,0-0.6,0-0.9,0c-5.2,0.4-9.7-3.4-10.1-8.6C79.3,544.4,79.3,544,79.3,543.6z M110.8,534.5h5.2l-26.5,38.2h-5.2L110.8,534.5z
				 M92.5,543.6c0-2.5-1.1-4-3.1-4s-3.1,1.5-3.1,4s1.2,4.2,3.1,4.2S92.5,546.1,92.5,543.6z M100.5,563.7c0-5.3,4.4-9.6,9.7-9.5
				c0.2,0,0.3,0,0.5,0c5.8,0,10.1,3.9,10.1,9.4c0.2,5.3-4,9.7-9.3,9.9c-0.3,0-0.6,0-0.9,0c-5.2,0.4-9.6-3.5-10-8.7
				C100.6,564.4,100.6,564.1,100.5,563.7L100.5,563.7z M113.8,563.7c0-2.5-1.1-4-3.1-4s-3.1,1.5-3.1,4s1.2,4,3.1,4
				S113.9,566.3,113.8,563.7L113.8,563.7z"/>
			<path class="st1" d="M42.6,600.7c0-2.8,2.3-5,5-5c0.1,0,0.1,0,0.2,0c2.7-0.2,5.1,1.9,5.3,4.6c0.2,2.7-1.9,5.1-4.6,5.3
				c-0.2,0-0.4,0-0.6,0c-2.7,0.2-5.1-1.9-5.2-4.7C42.6,600.9,42.6,600.8,42.6,600.7z M43.1,608.3h9.6v28h-9.6V608.3z"/>
			<path class="st1" d="M57.8,608.3h9.6v4.5c1.8-3.4,5.4-5.4,9.2-5.2c5.4,0,9.1,3.4,9.1,10.5v18.2h-9.6V620c0-3.2-1.2-4.7-4-4.7
				s-4.8,1.7-4.8,5.3v15.7h-9.6V608.3z"/>
			<path class="st1" d="M91.7,627.3v-12.5h-3.4v-6.5h3.4v-5.8h9.6v5.8h5.5v6.5h-5.5v11.5c0,2,1,3,2.8,3c0.9,0,1.9-0.2,2.7-0.5v7.3
				c-1.7,0.5-3.5,0.8-5.3,0.8C95.2,636.9,91.7,633.9,91.7,627.3z"/>
			<path class="st1" d="M108.9,622.6v-0.4c0-9,6.7-14.7,15.1-14.7c7.7,0,14.2,4.4,14.2,14.4v2.5h-19.7c-0.1,3.1,2.3,5.7,5.4,5.8
				c0.2,0,0.3,0,0.5,0c3.2,0,4.5-1.4,4.9-3.3h9c-0.9,6.3-5.7,9.9-14.2,9.9C115.3,636.9,108.9,631.8,108.9,622.6z M128.9,619.1
				c-0.2-3.4-1.8-5.3-4.9-5.3s-4.9,1.9-5.3,5.3H128.9z"/>
			<path class="st1" d="M141.6,608.3h9.6v5.6c1.3-3.8,5-6.3,9-6v8.9c-5.8-0.2-9,1.7-9,6.2v13.3h-9.6V608.3z"/>
			<path class="st1" d="M162,622.6v-0.4c0-9,6.7-14.7,15.1-14.7c7.7,0,14.2,4.4,14.2,14.4v2.5h-19.8c-0.1,3.1,2.3,5.7,5.4,5.8
				c0.2,0,0.3,0,0.5,0c3.2,0,4.5-1.4,4.9-3.3h9c-0.9,6.3-5.7,9.9-14.2,9.9C168.3,636.9,162,631.8,162,622.6z M182,619.1
				c-0.2-3.4-1.8-5.3-4.9-5.3s-4.9,1.9-5.3,5.3H182z"/>
			<path class="st1" d="M193,627.4h8.8c0.3,2,1.2,3.2,4,3.2c2.3,0,3.4-0.9,3.4-2.3s-1.3-2-5.2-2.5c-7.5-1-10.6-3.2-10.6-9
				c0-6.2,5.5-9.2,12-9.2c6.9,0,11.7,2.4,12.4,9h-8.7c-0.2-1.7-1.7-3-3.4-2.8c-0.1,0-0.1,0-0.2,0c-2,0-3.2,0.9-3.2,2.2
				s1.3,1.9,4.7,2.3c7.8,1,11.5,3,11.5,9c0,6.6-4.9,9.6-12.7,9.6S193.2,633.6,193,627.4z"/>
			<path class="st1" d="M222.9,627.3v-12.5h-3.4v-6.5h3.4v-5.8h9.6v5.8h5.5v6.5h-5.5v11.5c0,2,1,3,2.8,3c0.9,0,1.9-0.2,2.7-0.5v7.3
				c-1.7,0.5-3.5,0.8-5.3,0.8C226.4,636.9,222.9,633.9,222.9,627.3z"/>
			<path class="st1" d="M43.1,659.5h9.5v40.3h-9.5V659.5z"/>
			<path class="st1" d="M56.3,686.1v-0.4c0-9,6.7-14.7,15.4-14.7s15.2,5.5,15.2,14.4v0.4c0,9.1-6.7,14.5-15.3,14.5
				S56.3,695.2,56.3,686.1z M77.1,686v-0.4c0-4.7-1.9-7.3-5.5-7.3s-5.6,2.5-5.6,7.2v0.4c0,4.8,1.9,7.4,5.6,7.4S77.1,690.6,77.1,686z
				"/>
			<path class="st1" d="M88.6,692c0-6.6,5.6-9.1,14.9-9.1h2.7v-0.6c0-2.7-0.6-4.4-3.7-4.4c-1.9-0.2-3.6,1.2-3.8,3.1
				c0,0.1,0,0.2,0,0.3h-9c0.4-6.7,5.7-10,13.4-10s12.6,3.2,12.6,10.6v18.1h-9.3v-3.3c-1.9,2.7-5,4.2-8.3,3.9
				C93.1,700.4,88.6,698,88.6,692z M106.2,690v-1.7h-2.5c-3.8,0-5.6,0.8-5.6,3.1c0,1.6,1.1,2.6,3.3,2.6c2.3,0.3,4.4-1.3,4.7-3.6
				C106.2,690.2,106.2,690.1,106.2,690z"/>
			<path class="st1" d="M120.4,671.8h9.6v4.5c1.8-3.4,5.4-5.4,9.2-5.2c5.4,0,9.1,3.4,9.1,10.5v18.2h-9.6v-16.3c0-3.2-1.2-4.7-4-4.7
				s-4.8,1.7-4.8,5.3v15.7h-9.6V671.8z"/>
			<path class="st1" d="M152.6,695c0-2.9,2.3-5.4,5.3-5.4c0.1,0,0.1,0,0.2,0c3-0.2,5.6,2.1,5.7,5.1s-2.1,5.6-5.1,5.7
				c-0.2,0-0.4,0-0.7,0c-2.9,0.1-5.4-2.3-5.4-5.2C152.6,695.1,152.6,695,152.6,695z"/>
		</g>
	</g>
	<g id="legal">
		<g id="Optional_loan_from_Axos_Bank_within_minutes_of_filing._Not_your">
			<path class="st1" d="M41,795.6v-0.1c-0.2-3.5,2.5-6.5,6-6.7s6.5,2.5,6.7,6c0,0.2,0,0.5,0,0.7v0.1c0.2,3.5-2.5,6.5-6,6.7
				s-6.5-2.5-6.7-6C41,796,41,795.8,41,795.6z M52,795.6v-0.1c0.3-2.6-1.6-4.9-4.2-5.2s-4.9,1.6-5.2,4.2c0,0.4,0,0.7,0,1.1v0.1
				c-0.2,2.7,1.8,5,4.4,5.2c0.1,0,0.2,0,0.3,0c2.6,0,4.7-2.1,4.7-4.7C52,795.9,52,795.7,52,795.6L52,795.6z"/>
			<path class="st1" d="M55.8,792.5h1.5v1.5c0.7-1.1,1.9-1.7,3.2-1.7c2.4,0,4.3,1.9,4.3,4.3c0,0.2,0,0.3,0,0.5v0.1
				c0.3,2.4-1.4,4.5-3.8,4.8c-0.2,0-0.3,0-0.5,0c-1.3,0-2.5-0.6-3.2-1.7v4.8h-1.5V792.5z M63.3,797.3v-0.1c0-2.4-1.3-3.6-2.9-3.6
				s-3.1,1.2-3.1,3.6v0.1c0,2.4,1.3,3.6,3.1,3.6S63.3,799.6,63.3,797.3z"/>
			<path class="st1" d="M67.2,799.6v-5.8h-1.3v-1.3h1.3v-2.1h1.5v2.1h2.2v1.3h-2.2v5.7c0,0.9,0.4,1.4,1.2,1.4c0.4,0,0.8-0.1,1.2-0.2
				v1.3c-0.4,0.1-0.8,0.2-1.3,0.2c-1.3,0.1-2.4-0.7-2.5-2C67.2,799.9,67.2,799.7,67.2,799.6z"/>
			<path class="st1" d="M72.7,789.5c0-0.5,0.5-1,1-1c0.5,0,1,0.4,1,1c0,0.5-0.4,1-1,1C73.2,790.5,72.8,790.1,72.7,789.5z M73,792.5
				h1.5v9.5H73V792.5z"/>
			<path class="st1" d="M76.6,797.3v-0.1c0-2.6,2.1-4.6,4.6-4.6c2.6,0,4.6,2.1,4.6,4.6c0,0,0,0,0,0v0.1c0,2.6-2.1,4.6-4.6,4.6
				C78.7,801.9,76.6,799.8,76.6,797.3C76.6,797.3,76.6,797.3,76.6,797.3z M84.3,797.3v-0.1c0-2.2-1.2-3.6-3.1-3.6
				c-1.7,0-3.1,1.4-3.1,3.1c0,0.1,0,0.3,0,0.4v0.1c0,2.1,1.2,3.6,3.1,3.6S84.3,799.4,84.3,797.3z"/>
			<path class="st1" d="M88,792.5h1.5v1.5c0.6-1.1,1.8-1.7,3-1.7c2,0,3.3,1.1,3.3,3.8v5.9h-1.5v-6c0-1.7-0.7-2.4-2.2-2.4
				c-1.4-0.1-2.5,0.9-2.6,2.3c0,0.1,0,0.2,0,0.3v5.8H88V792.5z"/>
			<path class="st1" d="M97.6,799.3c0-2.2,2.3-2.9,4.7-2.9h1.3v-0.7c0-1.5-0.6-2.1-2-2.1s-2,0.5-2.2,1.7H98c0.2-1.8,1.8-3.1,3.6-2.9
				c0,0,0.1,0,0.1,0c1.7-0.2,3.2,0.9,3.4,2.6c0,0.3,0,0.5,0,0.8v6.3h-1.5v-1.2c-0.7,0.9-1.8,1.4-2.9,1.4
				C99,802,97.6,801.2,97.6,799.3z M103.6,798.6v-1.2h-1.3c-1.9,0-3.3,0.5-3.3,1.9c0,1,0.5,1.6,1.8,1.6S103.7,800,103.6,798.6
				L103.6,798.6z"/>
			<path class="st1" d="M107.9,788h1.5v14h-1.5V788z"/>
			<path class="st1" d="M116.7,788h1.5v14h-1.5V788z"/>
			<path class="st1" d="M120.3,797.3v-0.1c-0.2-2.6,1.8-4.8,4.3-4.9c2.6-0.2,4.8,1.8,4.9,4.3c0,0.2,0,0.4,0,0.6v0.1
				c0.2,2.6-1.8,4.8-4.3,4.9c-2.6,0.2-4.8-1.8-4.9-4.3C120.3,797.7,120.3,797.5,120.3,797.3z M128,797.3v-0.1c0-2.2-1.2-3.6-3.1-3.6
				c-1.7,0-3.1,1.4-3.1,3.1c0,0.1,0,0.3,0,0.4v0.1c0,2.1,1.2,3.6,3.1,3.6S128,799.4,128,797.3L128,797.3z"/>
			<path class="st1" d="M130.8,799.3c0-2.2,2.3-2.9,4.7-2.9h1.4v-0.7c0-1.5-0.6-2.1-2-2.1s-2,0.5-2.2,1.7h-1.5
				c0.2-1.8,1.8-3.1,3.6-2.9c0,0,0.1,0,0.1,0c1.7-0.2,3.2,0.9,3.4,2.6c0,0.3,0,0.5,0,0.8v6.3h-1.5v-1.2c-0.7,0.9-1.8,1.3-2.9,1.2
				C132.2,802,130.8,801.2,130.8,799.3z M136.8,798.6v-1.2h-1.3c-2,0-3.3,0.5-3.3,1.9c0,1,0.5,1.6,1.8,1.6S136.9,800,136.8,798.6
				L136.8,798.6z"/>
			<path class="st1" d="M141.1,792.5h1.5v1.5c0.6-1.1,1.8-1.7,3-1.7c2,0,3.3,1.1,3.3,3.8v5.9h-1.5v-6c0-1.7-0.7-2.4-2.2-2.4
				c-1.4-0.1-2.5,0.9-2.6,2.3c0,0.1,0,0.2,0,0.2v5.8h-1.5V792.5z"/>
			<path class="st1" d="M156.4,793.8H155v-1.3h1.3V791c0-2,0.9-3,2.8-3c0.4,0,0.8,0.1,1.1,0.2v1.3c-0.3-0.1-0.7-0.2-1.1-0.2
				c-1,0-1.4,0.7-1.4,1.6v1.7h2.3v1.3h-2.3v8.2h-1.5V793.8z"/>
			<path class="st1" d="M162,792.5h1.5v1.7c0.6-1.2,1.8-1.9,3.1-1.8v1.4c-2,0.1-3.1,0.7-3.1,3v5.3H162V792.5z"/>
			<path class="st1" d="M167.5,797.3v-0.1c-0.2-2.6,1.8-4.8,4.3-4.9c2.6-0.2,4.8,1.8,4.9,4.3c0,0.2,0,0.4,0,0.6v0.1
				c0.2,2.6-1.8,4.8-4.3,4.9c-2.6,0.2-4.8-1.8-4.9-4.3C167.5,797.7,167.5,797.5,167.5,797.3z M175.3,797.3v-0.1
				c0-2.2-1.2-3.6-3.1-3.6s-3.1,1.4-3.1,3.6v0.1c0,2.1,1.2,3.6,3.1,3.6c1.7,0,3.1-1.4,3.1-3.2C175.3,797.5,175.3,797.4,175.3,797.3z
				"/>
			<path class="st1" d="M178.8,792.5h1.5v1.5c0.6-1,1.7-1.6,2.8-1.6c1.2-0.1,2.3,0.6,2.7,1.8c0.7-1.1,1.9-1.8,3.2-1.8
				c1.7,0,3.2,1,3.2,3.7v5.9h-1.5v-6c0-1.7-0.7-2.3-2-2.3c-1.3,0-2.4,1-2.5,2.3c0,0.1,0,0.1,0,0.2v5.8h-1.5v-6c0-1.7-0.7-2.3-2-2.3
				c-1.3-0.1-2.4,1-2.5,2.3c0,0.1,0,0.2,0,0.2v5.8h-1.5L178.8,792.5z"/>
			<path class="st1" d="M203,789h2l4.4,12.9h-1.6l-1.3-3.7h-5.3L200,802h-1.4L203,789z M201.7,797h4.5l-2.2-6.7L201.7,797z"/>
			<path class="st1" d="M213.7,797.1l-3.2-4.6h1.8l2.3,3.4l2.3-3.4h1.6l-3.1,4.5l3.4,5H217l-2.5-3.8L212,802h-1.6L213.7,797.1z"/>
			<path class="st1" d="M219.4,797.3v-0.1c-0.2-2.6,1.8-4.8,4.3-4.9c2.6-0.2,4.8,1.8,4.9,4.3c0,0.2,0,0.4,0,0.6v0.1
				c0.2,2.6-1.8,4.8-4.3,4.9c-2.6,0.2-4.8-1.8-4.9-4.3C219.4,797.7,219.4,797.5,219.4,797.3z M227.1,797.3v-0.1
				c0-2.2-1.2-3.6-3.1-3.6s-3.1,1.4-3.1,3.6v0.1c0,2.1,1.2,3.6,3.1,3.6S227.1,799.4,227.1,797.3z"/>
			<path class="st1" d="M230,799h1.5c0,1.1,0.7,1.8,2.2,1.8s2-0.5,2-1.5s-0.7-1.3-2.2-1.6c-2.4-0.5-3.3-1.1-3.3-2.8
				c0.2-1.6,1.6-2.8,3.2-2.6c1.7-0.2,3.2,0.9,3.4,2.6c0,0,0,0.1,0,0.1h-1.4c-0.2-1-0.8-1.5-2-1.5s-1.8,0.5-1.8,1.3s0.5,1.2,2.2,1.5
				s3.3,0.8,3.3,2.8c0,1.7-1.2,2.9-3.5,2.9S230,800.9,230,799z"/>
			<path class="st1" d="M41.6,807h3.9c2.4,0,4.1,0.8,4.1,3.3l0,0c0.1,1.3-0.8,2.4-2,2.7c1.6,0.1,2.7,1.5,2.6,3.1c0,0,0,0,0,0l0,0
				c0,2.4-1.7,3.6-4.2,3.6h-4.4V807z M45.5,812.7c1.9,0,2.6-0.7,2.6-2.3l0,0c0-1.5-0.8-2-2.6-2h-2.3v4.4L45.5,812.7z M46,818.7
				c1.9,0,2.7-0.8,2.7-2.4l0,0c0-1.6-0.9-2.3-3-2.3h-2.6v4.8L46,818.7z"/>
			<path class="st1" d="M51.7,817.3c0-2.2,2.3-2.9,4.7-2.9h1.4v-0.7c0-1.5-0.6-2.1-2-2.1s-2,0.5-2.2,1.7H52c0.2-1.8,1.8-3.1,3.6-2.9
				c0,0,0.1,0,0.1,0c1.7-0.2,3.2,0.9,3.4,2.6c0,0.3,0,0.5,0,0.8v6.3h-1.5v-1.2c-0.7,0.9-1.8,1.4-2.9,1.4
				C53.1,820,51.7,819.2,51.7,817.3z M57.7,816.6v-1.2h-1.3c-1.9,0-3.3,0.5-3.3,1.9c0,1,0.5,1.6,1.8,1.6S57.7,818,57.7,816.6
				L57.7,816.6z"/>
			<path class="st1" d="M61.9,810.5h1.5v1.5c0.6-1.1,1.8-1.7,3-1.7c2,0,3.3,1.1,3.3,3.8v5.9h-1.5v-6c0-1.7-0.7-2.4-2.2-2.4
				c-1.4-0.1-2.5,0.9-2.6,2.3c0,0.1,0,0.2,0,0.2v5.8h-1.5L61.9,810.5z"/>
			<path class="st1" d="M72.4,806h1.5v8.8l4-4.3h1.8l-4,4.4l4.2,5.1H78l-4.2-4.9v4.9h-1.5L72.4,806z"/>
			<path class="st1" d="M84.9,810.5h1.6l2.2,7.5l2.3-7.6h1.3l2.1,7.6l2.2-7.6h1.5l-2.9,9.6h-1.7l-2-7.1l-2.2,7.1h-1.6L84.9,810.5z"
				/>
			<path class="st1" d="M99.7,807.5c0-0.5,0.5-1,1-1c0.5,0,1,0.4,1,1c0,0.5-0.4,1-1,1C100.1,808.5,99.7,808.1,99.7,807.5z
				 M100,810.5h1.5v9.5H100L100,810.5z"/>
			<path class="st1" d="M104.6,817.6v-5.8h-1.3v-1.3h1.3v-2.1h1.4v2.1h2.2v1.3H106v5.7c0,0.9,0.4,1.4,1.2,1.4c0.4,0,0.8-0.1,1.1-0.2
				v1.3c-0.4,0.1-0.8,0.2-1.3,0.2c-1.3,0.1-2.4-0.8-2.5-2.1C104.5,817.8,104.5,817.7,104.6,817.6z"/>
			<path class="st1" d="M110.4,806h1.5v6c0.6-1.1,1.8-1.7,3-1.7c2,0,3.3,1.1,3.3,3.8v5.9h-1.5v-6c0-1.7-0.7-2.4-2.2-2.4
				c-1.4-0.1-2.5,0.9-2.6,2.3c0,0.1,0,0.2,0,0.3v5.8h-1.5L110.4,806z"/>
			<path class="st1" d="M120.6,807.5c0-0.5,0.5-1,1-1c0.5,0,1,0.4,1,1c0,0.5-0.4,1-1,1C121.1,808.5,120.6,808.1,120.6,807.5z
				 M120.9,810.5h1.5v9.5h-1.5V810.5z"/>
			<path class="st1" d="M125.2,810.5h1.5v1.5c0.6-1.1,1.8-1.7,3-1.7c2,0,3.3,1.1,3.3,3.8v5.9h-1.5v-6c0-1.7-0.7-2.4-2.2-2.4
				c-1.4-0.1-2.5,0.9-2.6,2.3c0,0.1,0,0.2,0,0.2v5.8h-1.5V810.5z"/>
			<path class="st1" d="M140.2,810.5h1.5v1.5c0.6-1,1.7-1.6,2.8-1.6c1.2-0.1,2.3,0.6,2.7,1.8c0.7-1.1,1.9-1.8,3.2-1.8
				c1.7,0,3.2,1,3.2,3.7v5.9h-1.5v-6c0-1.7-0.7-2.3-2-2.3c-1.3,0-2.4,1-2.5,2.3c0,0.1,0,0.1,0,0.2v5.8h-1.5v-6c0-1.7-0.7-2.3-2-2.3
				c-1.3,0-2.4,1-2.5,2.3c0,0.1,0,0.1,0,0.2v5.8h-1.5L140.2,810.5z"/>
			<path class="st1" d="M156,807.5c0-0.5,0.5-1,1-1c0.5,0,1,0.4,1,1c0,0.5-0.4,1-1,1C156.5,808.5,156,808.1,156,807.5z M156.3,810.5
				h1.5v9.5h-1.5V810.5z"/>
			<path class="st1" d="M160.6,810.5h1.5v1.5c0.6-1.1,1.8-1.7,3-1.7c2,0,3.3,1.1,3.3,3.8v5.9h-1.5v-6c0-1.7-0.7-2.4-2.2-2.4
				c-1.4-0.1-2.5,0.9-2.6,2.3c0,0.1,0,0.2,0,0.3v5.8h-1.5V810.5z"/>
			<path class="st1" d="M171,816.5v-6h1.5v5.9c0,1.7,0.7,2.4,2.2,2.4c1.4,0.1,2.5-1,2.6-2.4c0-0.1,0-0.1,0-0.2v-5.7h1.5v9.5h-1.5
				v-1.5c-0.6,1.1-1.7,1.7-3,1.7C172.4,820,171,819,171,816.5z"/>
			<path class="st1" d="M181.8,817.6v-5.8h-1.4v-1.3h1.4v-2.1h1.5v2.1h2.2v1.3h-2.2v5.7c0,0.9,0.4,1.4,1.2,1.4
				c0.4,0,0.8-0.1,1.2-0.2v1.3c-0.4,0.1-0.8,0.2-1.3,0.2c-1.3,0.1-2.4-0.7-2.5-2C181.8,817.9,181.8,817.7,181.8,817.6z"/>
			<path class="st1" d="M186.9,815.3v-0.1c-0.2-2.4,1.6-4.6,4-4.8c0.1,0,0.3,0,0.4,0c2.3-0.1,4.2,1.7,4.3,4c0,0.2,0,0.5,0,0.7v0.5
				h-7.1c0,2.1,1.1,3.3,3,3.3c1.5,0,2.3-0.5,2.5-1.6h1.5c-0.4,1.9-2.1,3.1-4,2.9c-2.4,0.1-4.5-1.8-4.6-4.3
				C186.9,815.6,186.9,815.5,186.9,815.3z M194,814.3c-0.1-2-1.1-2.7-2.7-2.7c-1.5,0-2.7,1.2-2.8,2.7H194z"/>
			<path class="st1" d="M196.9,817h1.5c0.1,1.1,0.7,1.8,2.2,1.8s2-0.5,2-1.5s-0.7-1.3-2.2-1.6c-2.5-0.5-3.3-1.1-3.3-2.8
				c0.1-1.6,1.6-2.8,3.2-2.6c0,0,0,0,0,0c1.6-0.2,3.2,0.9,3.4,2.6c0,0.1,0,0.1,0,0.2h-1.4c-0.2-1-0.8-1.5-2-1.5s-1.8,0.5-1.8,1.3
				s0.5,1.2,2.2,1.5s3.3,0.8,3.3,2.8c0,1.7-1.2,2.9-3.5,2.9S197,818.9,196.9,817z"/>
			<path class="st1" d="M209.8,815.3v-0.1c-0.2-2.6,1.8-4.8,4.3-4.9c2.6-0.2,4.8,1.8,4.9,4.3c0,0.2,0,0.4,0,0.6v0.1
				c0.2,2.6-1.8,4.8-4.3,4.9c-2.6,0.2-4.8-1.8-4.9-4.3C209.8,815.7,209.8,815.5,209.8,815.3z M217.6,815.3v-0.1
				c0-2.2-1.2-3.6-3.1-3.6s-3.1,1.4-3.1,3.6v0.1c0,2.1,1.2,3.6,3.1,3.6c1.7,0,3.1-1.4,3.1-3.2C217.6,815.5,217.6,815.4,217.6,815.3z
				"/>
			<path class="st1" d="M221.5,811.8h-1.4v-1.3h1.4V809c0-2,0.9-3,2.8-3c0.4,0,0.8,0.1,1.1,0.2v1.3c-0.3-0.1-0.7-0.2-1.1-0.2
				c-1,0-1.4,0.7-1.4,1.6v1.7h2.3v1.3H223v8.2h-1.5V811.8z"/>
			<path class="st1" d="M232,811.8h-1.4v-1.3h1.4V809c0-2,0.9-3,2.8-3c0.4,0,0.8,0.1,1.1,0.2v1.3c-0.3-0.1-0.7-0.2-1.1-0.2
				c-1,0-1.4,0.7-1.4,1.6v1.7h2.3v1.3h-2.3v8.2H232V811.8z"/>
			<path class="st1" d="M237.3,807.5c0-0.5,0.4-1,1-1c0.5,0,1,0.4,1,1c0,0.5-0.5,1-1,1C237.8,808.5,237.3,808.1,237.3,807.5z
				 M237.6,810.5h1.5v9.5h-1.5V810.5z"/>
			<path class="st1" d="M242,806h1.5v14H242V806z"/>
			<path class="st1" d="M246,807.5c0-0.5,0.5-1,1-1c0.5,0,1,0.4,1,1c0,0.5-0.4,1-1,1C246.5,808.5,246,808.1,246,807.5z M246.3,810.5
				h1.5v9.5h-1.5V810.5z"/>
			<path class="st1" d="M250.5,810.5h1.5v1.5c0.6-1.1,1.8-1.7,3-1.7c2,0,3.3,1.1,3.3,3.8v5.9h-1.5v-6c0-1.7-0.7-2.4-2.2-2.4
				c-1.4-0.1-2.5,0.9-2.6,2.3c0,0.1,0,0.2,0,0.3v5.8h-1.5L250.5,810.5z"/>
			<path class="st1" d="M260.5,820.5h1.5c0.2,1.1,1.1,1.6,2.7,1.6c1.4,0.2,2.8-0.8,3-2.2c0-0.2,0-0.5,0-0.7v-1.4
				c-0.7,1.1-1.9,1.7-3.2,1.8c-2.3,0-4.3-1.9-4.3-4.2c0-0.1,0-0.2,0-0.3V815c-0.1-2.5,1.8-4.6,4.2-4.7c0,0,0.1,0,0.1,0
				c1.3-0.1,2.4,0.6,3.1,1.7v-1.5h1.5v8.8c0,2.2-1.8,4-4,4c-0.2,0-0.4,0-0.5,0C262,823.4,260.8,822,260.5,820.5z M267.9,815v-0.1
				c0.2-1.6-0.9-3.1-2.5-3.3c-0.2,0-0.3,0-0.5,0c-1.7,0-3,1.3-3,3c0,0.1,0,0.3,0,0.4v0.1c-0.2,1.6,1,3.1,2.7,3.3c0.1,0,0.2,0,0.2,0
				c1.7,0,3.1-1.3,3.1-2.9C267.9,815.3,267.9,815.2,267.9,815L267.9,815z"/>
			<path class="st1" d="M272,818.9c0-0.6,0.5-1.1,1.1-1.2c0,0,0,0,0,0c0.6-0.1,1.2,0.4,1.3,1c0.1,0.6-0.4,1.2-1,1.3
				c-0.1,0-0.2,0-0.3,0C272.5,820,272,819.5,272,818.9C272,818.9,272,818.9,272,818.9z"/>
			<path class="st1" d="M41.6,825h2l6.4,10.6V825h1.5v13h-1.8l-6.5-11v11h-1.5L41.6,825z"/>
			<path class="st1" d="M53.6,833.3v-0.1c0-2.6,2.1-4.6,4.6-4.6c2.6,0,4.6,2.1,4.6,4.6c0,0,0,0,0,0v0.1c0,2.6-2.1,4.6-4.6,4.6
				C55.7,837.9,53.6,835.8,53.6,833.3C53.6,833.3,53.6,833.3,53.6,833.3z M61.3,833.3v-0.1c0-2.2-1.2-3.6-3.1-3.6s-3.1,1.4-3.1,3.6
				v0.1c0,2.1,1.2,3.6,3.1,3.6c1.7,0,3.1-1.4,3.1-3.2C61.3,833.5,61.3,833.4,61.3,833.3z"/>
			<path class="st1" d="M65.2,835.6v-5.8h-1.4v-1.3h1.4v-2.1h1.5v2.1h2.2v1.3h-2.2v5.7c0,0.9,0.4,1.4,1.2,1.4c0.4,0,0.8-0.1,1.2-0.2
				v1.3c-0.4,0.1-0.8,0.2-1.3,0.2c-1.3,0.1-2.4-0.7-2.5-2C65.2,835.9,65.2,835.7,65.2,835.6z"/>
			<path class="st1" d="M78.1,836.9l-3.7-8.4H76l2.9,6.7l2.6-6.7H83l-5.2,12.7h-1.5L78.1,836.9z"/>
			<path class="st1" d="M83.8,833.3v-0.1c-0.2-2.6,1.8-4.8,4.3-4.9c2.6-0.2,4.8,1.8,4.9,4.3c0,0.2,0,0.4,0,0.6v0.1
				c0.2,2.6-1.8,4.8-4.3,4.9c-2.6,0.2-4.8-1.8-4.9-4.3C83.8,833.7,83.8,833.5,83.8,833.3z M91.5,833.3v-0.1c0-2.2-1.2-3.6-3.1-3.6
				c-1.7,0-3.1,1.4-3.1,3.1c0,0.1,0,0.3,0,0.4v0.1c0,2.1,1.2,3.6,3.1,3.6S91.5,835.4,91.5,833.3z"/>
			<path class="st1" d="M95,834.5v-6h1.5v5.9c0,1.7,0.7,2.4,2.2,2.4c1.4,0.1,2.5-1,2.6-2.4c0-0.1,0-0.2,0-0.2v-5.7h1.5v9.5h-1.5
				v-1.5c-0.6,1.1-1.8,1.7-3,1.7C96.4,838,95,837,95,834.5z"/>
			<path class="st1" d="M105.5,828.5h1.5v1.7c0.6-1.2,1.8-1.9,3.1-1.8v1.4c-1.9,0.1-3.1,0.7-3.1,3v5.3h-1.5V828.5z"/>
			<path class="st1" d="M116.8,835.6v-5.8h-1.3v-1.3h1.3v-2.1h1.5v2.1h2.2v1.3h-2.2v5.7c0,0.9,0.4,1.4,1.2,1.4
				c0.4,0,0.8-0.1,1.2-0.2v1.3c-0.4,0.1-0.8,0.2-1.3,0.2c-1.3,0.1-2.4-0.7-2.5-2C116.8,835.9,116.8,835.7,116.8,835.6z"/>
			<path class="st1" d="M122,835.3c0-2.2,2.3-2.9,4.7-2.9h1.3v-0.7c0-1.5-0.6-2.1-2-2.1s-2,0.5-2.2,1.7h-1.5
				c0.2-1.8,1.8-3.1,3.6-2.9c0,0,0,0,0,0c1.7-0.2,3.2,0.9,3.4,2.6c0,0.3,0,0.5,0,0.8v6.3H128v-1.2c-0.7,0.9-1.8,1.4-2.9,1.4
				C123.3,838,122,837.2,122,835.3z M128,834.6v-1.2h-1.3c-1.9,0-3.3,0.5-3.3,1.9c0,1,0.5,1.6,1.8,1.6S128,836,128,834.6z"/>
			<path class="st1" d="M134.5,833.1l-3.2-4.6h1.8l2.3,3.5l2.3-3.4h1.6l-3.1,4.5l3.4,5h-1.8l-2.5-3.8l-2.6,3.8h-1.6L134.5,833.1z"/>
			<path class="st1" d="M146,828.5h1.5v1.7c0.6-1.2,1.8-1.9,3.1-1.8v1.4c-1.9,0.1-3.1,0.7-3.1,3v5.3H146V828.5z"/>
			<path class="st1" d="M151.4,833.3v-0.1c-0.2-2.4,1.6-4.6,4-4.8c0.1,0,0.3,0,0.4,0c2.3,0,4.2,1.8,4.2,4c0,0.2,0,0.4,0,0.6v0.5h-7
				c0,2.1,1.1,3.3,3,3.3c1.5,0,2.3-0.5,2.5-1.6h1.5c-0.4,1.8-2.1,3-4,2.8c-2.4,0.1-4.5-1.8-4.6-4.2
				C151.4,833.6,151.4,833.5,151.4,833.3z M158.5,832.3c-0.2-2-1.2-2.7-2.7-2.7c-1.5,0-2.8,1.2-2.8,2.7H158.5z"/>
			<path class="st1" d="M162.4,829.8H161v-1.3h1.4V827c0-2,0.9-3,2.8-3c0.4,0,0.8,0.1,1.1,0.2v1.3c-0.3-0.1-0.7-0.2-1.1-0.2
				c-1,0-1.4,0.7-1.4,1.6v1.7h2.3v1.3H164v8.2h-1.6V829.8z"/>
			<path class="st1" d="M168,834.5v-6h1.5v5.9c0,1.7,0.7,2.4,2.2,2.4c1.4,0.1,2.5-1,2.6-2.4c0-0.1,0-0.1,0-0.2v-5.7h1.5v9.5h-1.6
				v-1.5c-0.6,1.1-1.7,1.7-3,1.7C169.3,838,168,837,168,834.5z"/>
			<path class="st1" d="M178.5,828.5h1.5v1.5c0.6-1.1,1.8-1.7,3-1.7c2,0,3.3,1.1,3.3,3.8v5.9h-1.5v-6c0-1.7-0.7-2.4-2.2-2.4
				c-1.4-0.1-2.5,1-2.6,2.4c0,0.1,0,0.1,0,0.2v5.8h-1.5L178.5,828.5z"/>
			<path class="st1" d="M188.2,833.4v-0.2c-0.2-2.5,1.5-4.6,4-4.9c0.1,0,0.3,0,0.4,0c1.3-0.1,2.4,0.6,3.1,1.7v-6h1.5v14h-1.5v-1.6
				c-0.7,1.1-1.9,1.7-3.2,1.8c-2.3,0.1-4.2-1.8-4.3-4.1C188.2,833.8,188.2,833.6,188.2,833.4z M195.8,833.3v-0.1
				c0-2.4-1.2-3.5-3-3.5s-3,1.3-3,3.6v0.1c0,2.4,1.3,3.5,2.9,3.5S195.8,835.7,195.8,833.3z"/>
			<path class="st1" d="M199.8,836.9c0-0.6,0.5-1.2,1.1-1.2c0.6,0,1.2,0.5,1.2,1.1s-0.5,1.2-1.1,1.2c0,0,0,0,0,0
				C200.4,838,199.9,837.5,199.8,836.9C199.8,836.9,199.8,836.9,199.8,836.9z"/>
		</g>
	</g>
</g>
</svg>
