<svg xmlns="http://www.w3.org/2000/svg" viewBox="0 0 728 90"><title>Asset 6</title><g id="Layer_2" data-name="Layer 2"><g id="Rect"><rect width="728" height="90" fill="none"/></g><g id="No_charges._No_worries._Audit_Assistance_now_free." data-name="No charges. No worries. Audit Assistance now free."><path d="M122.28,15.25h7.62l7.56,13.3V15.25h5.91v23.6h-6.54L128.22,24V38.85h-5.94Z" fill="#fff"/><path d="M145.74,30.43v-.26c0-5.55,4.13-9,9.47-9s9.41,3.4,9.41,8.88v.27c0,5.61-4.13,9-9.44,9S145.74,36,145.74,30.43Zm12.87-.1v-.26c0-2.9-1.15-4.52-3.4-4.52s-3.43,1.55-3.43,4.45v.27c0,3,1.16,4.58,3.43,4.58S158.61,33.21,158.61,30.33Z" fill="#fff"/><path d="M171.78,30.43v-.26c0-5.74,4.12-9,9.2-9,4.23,0,8.12,1.85,8.45,7.1h-5.54c-.26-1.62-1.06-2.51-2.77-2.51-2.08,0-3.3,1.49-3.3,4.39v.27c0,3,1.15,4.55,3.4,4.55a2.87,2.87,0,0,0,3-2.87h5.31c-.16,4.36-3.1,7.19-8.68,7.19C175.7,39.24,171.78,36.24,171.78,30.43Z" fill="#fff"/><path d="M191.44,14h5.91V24.36A6.11,6.11,0,0,1,203,21.12c3.33,0,5.64,2.08,5.64,6.51V38.85h-5.9v-10c0-1.95-.76-2.91-2.48-2.91s-2.94,1.06-2.94,3.27v9.67h-5.91Z" fill="#fff"/><path d="M210.55,34.06c0-4.06,3.43-5.64,9.18-5.64h1.65V28c0-1.65-.4-2.74-2.28-2.74a2.12,2.12,0,0,0-2.34,2h-5.55c.27-4.16,3.53-6.21,8.25-6.21s7.79,1.95,7.79,6.54V38.85h-5.74v-2c-.83,1.25-2.34,2.4-5.12,2.4C213.29,39.24,210.55,37.73,210.55,34.06Zm10.83-1.25V31.75h-1.55c-2.38,0-3.44.46-3.44,1.88,0,1,.66,1.62,2.05,1.62C220.12,35.25,221.38,34.29,221.38,32.81Z" fill="#fff"/><path d="M230.12,21.59H236V25a5.43,5.43,0,0,1,5.58-3.66v5.51c-3.6-.1-5.58,1-5.58,3.79v8.19h-5.91Z" fill="#fff"/><path d="M242.63,38.85h5.87c.27,1.25,1,2.24,3.17,2.24,2.61,0,3.66-1.48,3.66-3.63V34.82A6,6,0,0,1,250,38c-4,0-7.33-3-7.33-8.28v-.27c0-5.08,3.27-8.32,7.33-8.32A5.61,5.61,0,0,1,255.33,24V21.59h5.91V37.4c0,5.15-3.4,7.85-9.57,7.85C245.8,45.25,243.09,42.78,242.63,38.85Zm12.87-9.18v-.23c0-2.37-1.22-3.89-3.4-3.89s-3.4,1.55-3.4,3.93v.26c0,2.38,1.25,3.89,3.37,3.89S255.5,32.12,255.5,29.67Z" fill="#fff"/><path d="M263.32,30.43v-.26c0-5.55,4.12-9,9.34-9,4.72,0,8.78,2.71,8.78,8.92v1.55H269.29c.17,2.27,1.49,3.6,3.6,3.6,1.95,0,2.77-.9,3-2h5.55c-.53,3.89-3.53,6.1-8.75,6.1C267.28,39.24,263.32,36.08,263.32,30.43Zm12.37-2.18c-.09-2.08-1.12-3.23-3-3.23s-3,1.15-3.3,3.23Z" fill="#fff"/><path d="M282.49,33.37h5.45c.19,1.25.75,2,2.44,2,1.45,0,2.11-.56,2.11-1.42s-.82-1.22-3.2-1.55c-4.62-.6-6.57-2-6.57-5.55,0-3.83,3.4-5.68,7.39-5.68,4.26,0,7.23,1.46,7.63,5.58h-5.35A1.93,1.93,0,0,0,290.18,25c-1.29,0-1.95.56-1.95,1.35s.79,1.16,2.91,1.42c4.78.59,7.09,1.85,7.09,5.54,0,4.1-3,5.94-7.82,5.94S282.62,37.2,282.49,33.37Z" fill="#fff"/><path d="M299.91,35.88a3.3,3.3,0,0,1,3.37-3.34,3.34,3.34,0,1,1,0,6.67A3.29,3.29,0,0,1,299.91,35.88Z" fill="#fff"/><path d="M316.05,15.25h7.62l7.56,13.3V15.25h5.91v23.6h-6.53L322,24V38.85h-5.94Z" fill="#fff"/><path d="M339.51,30.43v-.26c0-5.55,4.13-9,9.48-9s9.4,3.4,9.4,8.88v.27c0,5.61-4.12,9-9.44,9S339.51,36,339.51,30.43Zm12.88-.1v-.26c0-2.9-1.16-4.52-3.4-4.52s-3.44,1.55-3.44,4.45v.27c0,3,1.16,4.58,3.44,4.58S352.39,33.21,352.39,30.33Z" fill="#fff"/><path d="M365,21.59h6.17l2.51,10.33,2.91-10.33h4.75l2.57,10.33,2.81-10.33h5.61l-5.48,17.26h-5.64l-2.58-9.64L376,38.85h-5.74Z" fill="#fff"/><path d="M392.18,30.43v-.26c0-5.55,4.13-9,9.47-9s9.41,3.4,9.41,8.88v.27c0,5.61-4.13,9-9.44,9S392.18,36,392.18,30.43Zm12.87-.1v-.26c0-2.9-1.15-4.52-3.4-4.52s-3.43,1.55-3.43,4.45v.27c0,3,1.16,4.58,3.43,4.58S405.05,33.21,405.05,30.33Z" fill="#fff"/><path d="M413.14,21.59H419V25a5.44,5.44,0,0,1,5.58-3.66v5.51c-3.6-.1-5.58,1-5.58,3.79v8.19h-5.9Z" fill="#fff"/><path d="M426.76,21.59h5.91V25a5.44,5.44,0,0,1,5.58-3.66v5.51c-3.6-.1-5.58,1-5.58,3.79v8.19h-5.91Z" fill="#fff"/><path d="M440.26,16.9a3.26,3.26,0,1,1,3.24,3A3.09,3.09,0,0,1,440.26,16.9Zm.3,4.69h5.91V38.85h-5.91Z" fill="#fff"/><path d="M448.71,30.43v-.26c0-5.55,4.12-9,9.34-9,4.72,0,8.78,2.71,8.78,8.92v1.55H454.68c.17,2.27,1.49,3.6,3.6,3.6,2,0,2.77-.9,3-2h5.55c-.53,3.89-3.53,6.1-8.75,6.1C452.67,39.24,448.71,36.08,448.71,30.43Zm12.38-2.18c-.1-2.08-1.13-3.23-3-3.23s-3,1.15-3.3,3.23Z" fill="#fff"/><path d="M467.88,33.37h5.45c.2,1.25.76,2,2.44,2,1.45,0,2.11-.56,2.11-1.42s-.82-1.22-3.2-1.55c-4.62-.6-6.57-2-6.57-5.55,0-3.83,3.4-5.68,7.4-5.68,4.25,0,7.22,1.46,7.62,5.58h-5.35A1.93,1.93,0,0,0,475.57,25c-1.29,0-1.95.56-1.95,1.35s.8,1.16,2.91,1.42c4.78.59,7.09,1.85,7.09,5.54,0,4.1-3,5.94-7.82,5.94S468,37.2,467.88,33.37Z" fill="#fff"/><path d="M485.31,35.88a3.29,3.29,0,0,1,3.36-3.34,3.34,3.34,0,1,1,0,6.67A3.28,3.28,0,0,1,485.31,35.88Z" fill="#fff"/><path d="M128,50.25h8.74l7.5,23.6h-7.17l-1.25-4.39H128l-1.26,4.39h-6.3Zm1.32,14.56h5.18l-2.58-9.08Z" fill="#fff"/><path d="M145.28,67.84V56.59h5.91V66.88c0,2,.75,2.91,2.44,2.91s2.94-1.06,2.94-3.27V56.59h5.9V73.85h-5.9V71.18a5.69,5.69,0,0,1-5.48,3.07C147.75,74.25,145.28,72.2,145.28,67.84Z" fill="#fff"/><path d="M164.62,65.4v-.26c0-5.88,3.23-9,7.32-9A5.6,5.6,0,0,1,177.26,59V49h5.9V73.85h-5.9V71a5.82,5.82,0,0,1-5.38,3.21C167.88,74.25,164.62,71.37,164.62,65.4Zm12.8-.1V65c0-2.91-1.22-4.46-3.4-4.46s-3.4,1.49-3.4,4.49v.26c0,2.91,1.29,4.39,3.34,4.39S177.42,68.24,177.42,65.3Z" fill="#fff"/><path d="M186,51.9a3.26,3.26,0,1,1,3.24,3A3.09,3.09,0,0,1,186,51.9Zm.3,4.69h5.91V73.85h-5.91Z" fill="#fff"/><path d="M196.2,68.3V60.61h-2.08v-4h2.08V53h5.9v3.6h3.4v4h-3.4v7.13c0,1.26.63,1.82,1.75,1.82a4.5,4.5,0,0,0,1.69-.3v4.49a12.28,12.28,0,0,1-3.27.5C198.38,74.25,196.2,72.36,196.2,68.3Z" fill="#fff"/><path d="M220,50.25h8.75l7.49,23.6h-7.16l-1.26-4.39H220l-1.25,4.39h-6.31Zm1.32,14.56h5.18l-2.57-9.08Z" fill="#fff"/><path d="M236.65,68.37h5.45c.2,1.25.76,1.95,2.44,1.95,1.45,0,2.11-.56,2.11-1.42s-.82-1.22-3.2-1.55c-4.62-.6-6.57-1.95-6.57-5.55,0-3.83,3.4-5.68,7.4-5.68,4.26,0,7.23,1.46,7.62,5.58h-5.34A1.94,1.94,0,0,0,244.34,60c-1.28,0-1.94.56-1.94,1.35s.79,1.16,2.9,1.42c4.79.59,7.1,1.85,7.1,5.54,0,4.1-3,6-7.82,6S236.79,72.2,236.65,68.37Z" fill="#fff"/><path d="M253.25,68.37h5.45c.2,1.25.76,1.95,2.44,1.95,1.45,0,2.11-.56,2.11-1.42s-.82-1.22-3.2-1.55c-4.62-.6-6.57-1.95-6.57-5.55,0-3.83,3.4-5.68,7.4-5.68,4.25,0,7.22,1.46,7.62,5.58h-5.35A1.92,1.92,0,0,0,260.94,60c-1.28,0-1.94.56-1.94,1.35s.79,1.16,2.9,1.42c4.79.59,7.1,1.85,7.1,5.54,0,4.1-3,6-7.83,6S253.38,72.2,253.25,68.37Z" fill="#fff"/><path d="M270.78,51.9A3.08,3.08,0,0,1,274,48.83a3.06,3.06,0,1,1,0,6.11A3.06,3.06,0,0,1,270.78,51.9Zm.29,4.69H277V73.85h-5.91Z" fill="#fff"/><path d="M279,68.37h5.45c.2,1.25.76,1.95,2.44,1.95,1.45,0,2.11-.56,2.11-1.42s-.82-1.22-3.2-1.55c-4.62-.6-6.57-1.95-6.57-5.55,0-3.83,3.4-5.68,7.4-5.68,4.25,0,7.22,1.46,7.62,5.58h-5.35A1.92,1.92,0,0,0,286.68,60c-1.28,0-1.94.56-1.94,1.35s.79,1.16,2.9,1.42c4.79.59,7.1,1.85,7.1,5.54,0,4.1-3,6-7.83,6S279.12,72.2,279,68.37Z" fill="#fff"/><path d="M297.44,68.3V60.61h-2.08v-4h2.08V53h5.91v3.6h3.4v4h-3.4v7.13c0,1.26.62,1.82,1.75,1.82a4.45,4.45,0,0,0,1.68-.3v4.49a12.28,12.28,0,0,1-3.27.5C299.62,74.25,297.44,72.36,297.44,68.3Z" fill="#fff"/><path d="M308.07,69.06c0-4.06,3.43-5.64,9.17-5.64h1.65V63c0-1.65-.4-2.74-2.28-2.74a2.12,2.12,0,0,0-2.34,2h-5.54c.26-4.16,3.53-6.21,8.25-6.21s7.79,2,7.79,6.54V73.85H319v-2a5.65,5.65,0,0,1-5.11,2.42C310.8,74.25,308.07,72.73,308.07,69.06Zm10.82-1.25V66.75h-1.55c-2.38,0-3.43.46-3.43,1.88,0,1,.66,1.62,2,1.62C317.64,70.25,318.89,69.29,318.89,67.81Z" fill="#fff"/><path d="M327.63,56.59h5.91v2.77a6.11,6.11,0,0,1,5.68-3.24c3.33,0,5.64,2.08,5.64,6.51V73.85H339v-10c0-2-.75-2.91-2.47-2.91s-2.94,1.06-2.94,3.27v9.67h-5.91Z" fill="#fff"/><path d="M346.81,65.43v-.26c0-5.74,4.12-9.05,9.2-9.05,4.23,0,8.12,1.85,8.45,7.1h-5.54c-.26-1.62-1.06-2.51-2.77-2.51-2.08,0-3.3,1.49-3.3,4.39v.27c0,3,1.15,4.55,3.4,4.55a2.87,2.87,0,0,0,3-2.87h5.31c-.16,4.36-3.1,7.2-8.68,7.2C350.73,74.25,346.81,71.24,346.81,65.43Z" fill="#fff"/><path d="M365.55,65.43v-.26c0-5.55,4.13-9.05,9.34-9.05,4.72,0,8.78,2.71,8.78,8.92v1.55H371.52c.17,2.28,1.49,3.6,3.6,3.6,1.95,0,2.77-.9,3-2h5.55c-.53,3.89-3.53,6.11-8.75,6.11C369.51,74.25,365.55,71.08,365.55,65.43Zm12.38-2.18c-.1-2.08-1.13-3.23-3-3.23s-3,1.15-3.3,3.23Z" fill="#fff"/><path d="M391.72,56.59h5.91v2.77a6.09,6.09,0,0,1,5.67-3.24c3.34,0,5.65,2.08,5.65,6.51V73.85H403v-10c0-2-.76-2.91-2.48-2.91s-2.93,1.06-2.93,3.27v9.67h-5.91Z" fill="#fff"/><path d="M410.89,65.43v-.26c0-5.55,4.13-9.05,9.47-9.05s9.41,3.4,9.41,8.88v.27c0,5.61-4.13,9-9.44,9S410.89,71,410.89,65.43Zm12.87-.1v-.26c0-2.9-1.15-4.52-3.4-4.52s-3.43,1.55-3.43,4.45v.27c0,3,1.16,4.59,3.43,4.59S423.76,68.21,423.76,65.33Z" fill="#fff"/><path d="M429.83,56.59H436l2.51,10.33,2.91-10.33h4.75l2.58,10.33,2.8-10.33h5.61l-5.48,17.26H446l-2.58-9.64-2.67,9.64h-5.74Z" fill="#fff"/><path d="M465.57,60.61h-2.18v-4h2.18V55.07c0-4.29,2.68-6.34,6.77-6.34a10.83,10.83,0,0,1,2.7.36v4.33a5.4,5.4,0,0,0-1.61-.23,1.73,1.73,0,0,0-2,1.88v1.52H475v4h-3.5V73.85h-5.88Z" fill="#fff"/><path d="M476.92,56.59h5.91V60a5.44,5.44,0,0,1,5.58-3.66v5.51c-3.6-.1-5.58,1-5.58,3.79v8.19h-5.91Z" fill="#fff"/><path d="M489.46,65.43v-.26c0-5.55,4.13-9.05,9.34-9.05,4.72,0,8.78,2.71,8.78,8.92v1.55H495.44c.16,2.28,1.48,3.6,3.6,3.6,1.94,0,2.77-.9,3-2h5.54c-.53,3.89-3.53,6.11-8.74,6.11C493.42,74.25,489.46,71.08,489.46,65.43Zm12.38-2.18c-.1-2.08-1.12-3.23-3-3.23s-3,1.15-3.3,3.23Z" fill="#fff"/><path d="M508.7,65.43v-.26c0-5.55,4.13-9.05,9.34-9.05,4.72,0,8.78,2.71,8.78,8.92v1.55H514.68c.16,2.28,1.48,3.6,3.59,3.6,2,0,2.78-.9,3-2h5.54c-.53,3.89-3.53,6.11-8.74,6.11C512.66,74.25,508.7,71.08,508.7,65.43Zm12.38-2.18C521,61.17,520,60,518,60s-3,1.15-3.3,3.23Z" fill="#fff"/><path d="M528.47,70.88a3.3,3.3,0,0,1,3.37-3.34,3.34,3.34,0,1,1,0,6.67A3.29,3.29,0,0,1,528.47,70.88Z" fill="#fff"/></g></g></svg>