<svg xmlns="http://www.w3.org/2000/svg" viewBox="0 0 300 250"><title>H26</title><g id="Layer_2" data-name="Layer 2"><g id="Rect"><rect width="300" height="250" fill="#fff"/></g><g id="H26"><g id="Get_your_max_refund_in_about_an_hour." data-name="Get your max refund in about an hour."><path d="M21.19,42.3V42c0-8.34,6.12-14,14.34-14C42,28,47.73,31,48.27,38.09H40.5c-.38-2.56-2-3.9-4.93-3.9-3.86,0-6.2,3-6.2,7.92v.3c0,4.44,1.65,7.88,6.39,7.88,3.83,0,5.28-1.95,5.43-4.13H36.07V40.69H48.92v3.37c0,7-4.55,12.2-13.39,12.2C26.24,56.26,21.19,50.48,21.19,42.3Z" fill="#fff"/><path d="M50.48,46.05v-.31c0-6.43,4.79-10.48,10.83-10.48,5.47,0,10.18,3.14,10.18,10.33v1.8H57.41c.19,2.64,1.72,4.17,4.17,4.17,2.26,0,3.21-1,3.48-2.38h6.43c-.62,4.52-4.1,7.08-10.14,7.08C55.08,56.26,50.48,52.59,50.48,46.05Zm14.35-2.53c-.11-2.41-1.3-3.75-3.52-3.75-2.06,0-3.48,1.34-3.82,3.75Z" fill="#fff"/><path d="M74.77,49.38V40.46H72.36V35.79h2.41V31.63h6.85v4.16h3.94v4.67H81.62v8.27a1.83,1.83,0,0,0,2,2.1,5.21,5.21,0,0,0,1.95-.35v5.21a14.37,14.37,0,0,1-3.79.57C77.3,56.26,74.77,54.08,74.77,49.38Z" fill="#fff"/><path d="M101.4,53.77l-8-18h7.42L105,46.47l3.83-10.68h6.54L104.61,62.5H98.07Z" fill="#fff"/><path d="M114.93,46.05v-.31c0-6.43,4.79-10.48,11-10.48s10.91,3.94,10.91,10.29v.31c0,6.5-4.79,10.4-10.94,10.4S114.93,52.51,114.93,46.05Zm14.92-.12v-.3c0-3.37-1.34-5.24-3.94-5.24s-4,1.79-4,5.16v.31c0,3.44,1.33,5.31,4,5.31S129.85,49.26,129.85,45.93Z" fill="#fff"/><path d="M139.07,48.84V35.79h6.85V47.73c0,2.26.88,3.37,2.83,3.37s3.4-1.23,3.4-3.79V35.79H159v20h-6.85V52.7c-1.07,2.07-3,3.56-6.35,3.56C141.94,56.26,139.07,53.89,139.07,48.84Z" fill="#fff"/><path d="M162.48,35.79h6.85v4a6.29,6.29,0,0,1,6.46-4.24v6.39c-4.17-.12-6.46,1.18-6.46,4.39V55.8h-6.85Z" fill="#fff"/><path d="M185.24,35.79h6.84v3.07a7,7,0,0,1,6.28-3.6,5.45,5.45,0,0,1,5.43,3.33,7.91,7.91,0,0,1,6.62-3.33c3.79,0,6.54,2.45,6.54,7.46V55.8H210.1V43.87c0-2-1-3-2.56-3-1.84,0-3.06,1.19-3.06,3.37V55.8h-6.77V43.87c0-2-1-3-2.57-3-1.83,0-3.06,1.19-3.06,3.37V55.8h-6.84Z" fill="#fff"/><path d="M219.13,50.25c0-4.7,4-6.54,10.63-6.54h1.91v-.46c0-1.91-.46-3.17-2.64-3.17a2.45,2.45,0,0,0-2.71,2.37h-6.43c.31-4.82,4.09-7.19,9.57-7.19s9,2.26,9,7.57v13h-6.65V53.47c-1,1.45-2.72,2.79-5.93,2.79C222.3,56.26,219.13,54.5,219.13,50.25Zm12.54-1.45V47.58h-1.79c-2.76,0-4,.53-4,2.18,0,1.15.76,1.87,2.37,1.87C230.22,51.63,231.67,50.52,231.67,48.8Z" fill="#fff"/><path d="M246.86,45.63l-6.24-9.84h7.88l3.1,5.28,3-5.28h7l-6.31,9.3,6.92,10.71h-7.88l-3.55-6-3.64,6h-7Z" fill="#fff"/><path d="M22,76h6.85v4a6.29,6.29,0,0,1,6.46-4.24v6.39c-4.17-.12-6.46,1.18-6.46,4.39v9.49H22Z" fill="#fff"/><path d="M36.56,86.3V86c0-6.43,4.78-10.48,10.83-10.48,5.47,0,10.17,3.14,10.17,10.33v1.8H43.49c.19,2.64,1.72,4.17,4.17,4.17,2.25,0,3.21-1,3.48-2.38h6.42C57,94,53.47,96.51,47.43,96.51,41.15,96.51,36.56,92.84,36.56,86.3Zm14.35-2.53c-.12-2.41-1.3-3.75-3.52-3.75s-3.48,1.34-3.83,3.75Z" fill="#fff"/><path d="M61,80.71H58.44V76H61V74.29c0-5,3.09-7.35,7.84-7.35a12.09,12.09,0,0,1,3.13.42v5a6.28,6.28,0,0,0-1.87-.27,2,2,0,0,0-2.3,2.19V76h4.06v4.67H67.77V96.05H61Z" fill="#fff"/><path d="M74,89.09V76h6.85V88c0,2.26.88,3.37,2.83,3.37s3.4-1.23,3.4-3.79V76H93.9v20H87.05V93C86,95,84,96.51,80.7,96.51,76.84,96.51,74,94.14,74,89.09Z" fill="#fff"/><path d="M97.38,76h6.85v3.22a7.05,7.05,0,0,1,6.58-3.75c3.86,0,6.54,2.41,6.54,7.54v13H110.5V84.42c0-2.25-.88-3.36-2.87-3.36s-3.4,1.22-3.4,3.78V96.05H97.38Z" fill="#fff"/><path d="M119.68,86.26V86c0-6.81,3.75-10.44,8.49-10.44a6.49,6.49,0,0,1,6.16,3.37V67.25h6.85v28.8h-6.85V92.8a6.74,6.74,0,0,1-6.24,3.71C123.47,96.51,119.68,93.18,119.68,86.26Zm14.84-.12v-.3c0-3.37-1.42-5.17-3.94-5.17s-3.94,1.73-3.94,5.21v.3c0,3.37,1.49,5.09,3.86,5.09S134.52,89.55,134.52,86.14Z" fill="#fff"/><path d="M151.46,70.61a3.78,3.78,0,1,1,3.75,3.52A3.57,3.57,0,0,1,151.46,70.61Zm.35,5.43h6.85v20h-6.85Z" fill="#fff"/><path d="M162.33,76h6.84v3.22a7.07,7.07,0,0,1,6.58-3.75c3.87,0,6.54,2.41,6.54,7.54v13h-6.84V84.42c0-2.25-.88-3.36-2.87-3.36s-3.41,1.22-3.41,3.78V96.05h-6.84Z" fill="#fff"/><path d="M20.88,130.75c0-4.7,4-6.54,10.63-6.54h1.92v-.46c0-1.91-.46-3.17-2.64-3.17A2.46,2.46,0,0,0,28.07,123H21.65c.3-4.82,4.09-7.19,9.56-7.19s9,2.26,9,7.57v13H33.58V134c-1,1.45-2.72,2.79-5.93,2.79C24.05,136.76,20.88,135,20.88,130.75Zm12.55-1.45v-1.22h-1.8c-2.75,0-4,.53-4,2.18,0,1.15.77,1.87,2.37,1.87C32,132.13,33.43,131,33.43,129.3Z" fill="#fff"/><path d="M50.41,133.2v3.1H43.56V107.5h6.85v11.78a7.06,7.06,0,0,1,6.23-3.52c4.67,0,8.46,3.52,8.46,10.37v.3c0,6.89-3.79,10.33-8.49,10.33A6.47,6.47,0,0,1,50.41,133.2Zm7.73-6.77v-.3c0-3.52-1.53-5.21-3.94-5.21s-4,1.8-4,5.17v.3c0,3.41,1.49,5.13,4,5.13S58.14,129.72,58.14,126.43Z" fill="#fff"/><path d="M66.51,126.55v-.31c0-6.43,4.78-10.48,11-10.48s10.9,3.94,10.9,10.29v.31c0,6.5-4.78,10.4-10.94,10.4S66.51,133,66.51,126.55Zm14.92-.12v-.3c0-3.37-1.34-5.24-3.94-5.24s-4,1.79-4,5.16v.31c0,3.44,1.34,5.31,4,5.31S81.43,129.76,81.43,126.43Z" fill="#fff"/><path d="M90.65,129.34v-13h6.84v11.94c0,2.26.88,3.37,2.84,3.37s3.4-1.23,3.4-3.79V116.29h6.85v20h-6.85v-3.1c-1.07,2.07-3,3.56-6.35,3.56C93.52,136.76,90.65,134.39,90.65,129.34Z" fill="#fff"/><path d="M115,129.88V121h-2.41v-4.67H115v-4.16h6.85v4.16h3.94V121h-3.94v8.26c0,1.46.73,2.11,2,2.11a5.21,5.21,0,0,0,2-.35v5.21a14.37,14.37,0,0,1-3.79.57C117.5,136.76,115,134.58,115,129.88Z" fill="#fff"/><path d="M134.17,130.75c0-4.7,4-6.54,10.64-6.54h1.91v-.46c0-1.91-.46-3.17-2.64-3.17a2.45,2.45,0,0,0-2.71,2.37h-6.43c.31-4.82,4.09-7.19,9.56-7.19s9,2.26,9,7.57v13h-6.66V134c-1,1.45-2.71,2.79-5.93,2.79C137.35,136.76,134.17,135,134.17,130.75Zm12.55-1.45v-1.22h-1.8c-2.75,0-4,.53-4,2.18,0,1.15.77,1.87,2.38,1.87C145.27,132.13,146.72,131,146.72,129.3Z" fill="#fff"/><path d="M156.86,116.29h6.84v3.22a7.06,7.06,0,0,1,6.58-3.75c3.87,0,6.54,2.41,6.54,7.54v13H170V124.67c0-2.25-.88-3.36-2.87-3.36s-3.41,1.22-3.41,3.78V136.3h-6.84Z" fill="#fff"/><path d="M187.11,107.5H194v12a7.05,7.05,0,0,1,6.58-3.75c3.86,0,6.54,2.41,6.54,7.54v13h-6.85V124.67c0-2.25-.88-3.36-2.87-3.36s-3.4,1.22-3.4,3.78V136.3h-6.85Z" fill="#fff"/><path d="M209.33,126.55v-.31c0-6.43,4.79-10.48,11-10.48s10.9,3.94,10.9,10.29v.31c0,6.5-4.78,10.4-10.94,10.4S209.33,133,209.33,126.55Zm14.92-.12v-.3c0-3.37-1.34-5.24-3.94-5.24s-4,1.79-4,5.16v.31c0,3.44,1.34,5.31,4,5.31S224.25,129.76,224.25,126.43Z" fill="#fff"/><path d="M233.47,129.34v-13h6.85v11.94c0,2.26.88,3.37,2.83,3.37s3.4-1.23,3.4-3.79V116.29h6.85v20h-6.85v-3.1c-1.07,2.07-3,3.56-6.35,3.56C236.34,136.76,233.47,134.39,233.47,129.34Z" fill="#fff"/><path d="M256.88,116.29h6.85v4a6.29,6.29,0,0,1,6.46-4.24v6.39c-4.17-.12-6.46,1.18-6.46,4.4v9.48h-6.85Z" fill="#fff"/><path d="M270.11,132.86A3.82,3.82,0,0,1,274,129a3.86,3.86,0,1,1,0,7.72A3.82,3.82,0,0,1,270.11,132.86Z" fill="#fff"/></g></g></g></svg>