<svg xmlns="http://www.w3.org/2000/svg" viewBox="0 0 300 250"><title>Asset 11</title><g id="Layer_2" data-name="Layer 2"><g id="Rect"><rect width="300" height="250" fill="none"/></g><g id="You_could_get_the_max_refund_in_about_an_hour." data-name="You could get the max refund in about an hour."><path d="M28,46.75l-7.69-13.5h7.36l4,8,4-8h6.47l-7.33,13.5v10.1H28Z" fill="#fff"/><path d="M39.6,48.43v-.26c0-5.55,4.13-9.05,9.47-9.05s9.41,3.4,9.41,8.88v.27c0,5.61-4.12,9-9.44,9S39.6,54,39.6,48.43Zm12.87-.1v-.26c0-2.9-1.15-4.52-3.4-4.52S45.64,45.1,45.64,48v.27c0,3,1.16,4.58,3.43,4.58S52.47,51.21,52.47,48.33Z" fill="#fff"/><path d="M60.42,50.84V39.59h5.91V49.88c0,1.95.76,2.91,2.45,2.91s2.93-1.06,2.93-3.27V39.59h5.91V56.85H71.71V54.18a5.66,5.66,0,0,1-5.48,3.06C62.9,57.24,60.42,55.2,60.42,50.84Z" fill="#fff"/><path d="M85.7,48.43v-.26c0-5.74,4.13-9.05,9.21-9.05,4.23,0,8.12,1.85,8.45,7.1H97.81c-.26-1.62-1-2.51-2.77-2.51-2.08,0-3.3,1.49-3.3,4.39v.27c0,3,1.16,4.55,3.4,4.55a2.88,2.88,0,0,0,3-2.87h5.31c-.17,4.36-3.1,7.19-8.68,7.19C89.63,57.24,85.7,54.24,85.7,48.43Z" fill="#fff"/><path d="M104.45,48.43v-.26c0-5.55,4.12-9.05,9.47-9.05s9.4,3.4,9.4,8.88v.27c0,5.61-4.12,9-9.43,9S104.45,54,104.45,48.43Zm12.87-.1v-.26c0-2.9-1.16-4.52-3.4-4.52s-3.43,1.55-3.43,4.45v.27c0,3,1.15,4.58,3.43,4.58S117.32,51.21,117.32,48.33Z" fill="#fff"/><path d="M125.27,50.84V39.59h5.91V49.88c0,1.95.76,2.91,2.44,2.91s2.94-1.06,2.94-3.27V39.59h5.9V56.85h-5.9V54.18a5.68,5.68,0,0,1-5.48,3.06C127.74,57.24,125.27,55.2,125.27,50.84Z" fill="#fff"/><path d="M145.63,32h5.87V56.85h-5.87Z" fill="#fff"/><path d="M153.81,48.4v-.26c0-5.88,3.24-9,7.33-9A5.59,5.59,0,0,1,166.45,42V32h5.91V56.85h-5.91V54a5.79,5.79,0,0,1-5.38,3.2C157.08,57.24,153.81,54.37,153.81,48.4Zm12.81-.1V48c0-2.91-1.22-4.46-3.4-4.46s-3.4,1.49-3.4,4.49v.26c0,2.91,1.29,4.39,3.33,4.39S166.62,51.24,166.62,48.3Z" fill="#fff"/><path d="M180.41,56.85h5.88c.26,1.25,1,2.24,3.16,2.24,2.61,0,3.67-1.48,3.67-3.63V52.82A6.06,6.06,0,0,1,187.77,56c-4,0-7.33-3-7.33-8.28v-.27c0-5.08,3.27-8.32,7.33-8.32A5.62,5.62,0,0,1,193.12,42V39.59H199V55.4c0,5.15-3.4,7.85-9.58,7.85C183.58,63.25,180.87,60.78,180.41,56.85Zm12.87-9.18v-.23c0-2.37-1.22-3.89-3.4-3.89s-3.4,1.55-3.4,3.93v.26c0,2.38,1.26,3.89,3.37,3.89S193.28,50.12,193.28,47.67Z" fill="#fff"/><path d="M201.1,48.43v-.26c0-5.55,4.13-9.05,9.34-9.05,4.72,0,8.78,2.71,8.78,8.92v1.55H207.08c.16,2.27,1.48,3.6,3.59,3.6,2,0,2.78-.9,3-2h5.54c-.53,3.89-3.53,6.1-8.75,6.1C205.06,57.24,201.1,54.08,201.1,48.43Zm12.38-2.18c-.1-2.08-1.12-3.23-3-3.23s-3,1.15-3.3,3.23Z" fill="#fff"/><path d="M222.06,51.3V43.61H220v-4h2.08V36H228v3.6h3.4v4H228v7.13c0,1.26.63,1.82,1.75,1.82a4.5,4.5,0,0,0,1.69-.3v4.49a12.35,12.35,0,0,1-3.27.49C224.23,57.24,222.06,55.36,222.06,51.3Z" fill="#fff"/><path d="M22.54,86.3V78.61H20.46v-4h2.08V71h5.91v3.6h3.4v4h-3.4v7.13c0,1.26.63,1.82,1.75,1.82a4.45,4.45,0,0,0,1.68-.3v4.49a12.35,12.35,0,0,1-3.27.49C24.72,92.24,22.54,90.36,22.54,86.3Z" fill="#fff"/><path d="M34.09,67H40V77.36a6.09,6.09,0,0,1,5.68-3.24c3.33,0,5.64,2.08,5.64,6.51V91.85H45.41v-10c0-1.95-.76-2.91-2.47-2.91S40,80,40,82.18v9.67H34.09Z" fill="#fff"/><path d="M53.26,83.43v-.26c0-5.55,4.13-9,9.34-9,4.72,0,8.78,2.71,8.78,8.92v1.55H59.24c.16,2.27,1.48,3.6,3.59,3.6,2,0,2.78-.9,3-2h5.54c-.53,3.89-3.53,6.1-8.74,6.1C57.22,92.24,53.26,89.08,53.26,83.43Zm12.38-2.18c-.1-2.08-1.12-3.23-3-3.23s-3,1.15-3.3,3.23Z" fill="#fff"/><path d="M79.43,74.59h5.91v2.64a6,6,0,0,1,5.41-3.11A4.72,4.72,0,0,1,95.44,77a6.83,6.83,0,0,1,5.71-2.88c3.27,0,5.64,2.12,5.64,6.44V91.85h-5.9V81.55c0-1.75-.86-2.61-2.22-2.61-1.58,0-2.64,1-2.64,2.91v10H90.19V81.55c0-1.75-.86-2.61-2.21-2.61-1.58,0-2.64,1-2.64,2.91v10H79.43Z" fill="#fff"/><path d="M108.67,87.06c0-4.06,3.43-5.64,9.18-5.64h1.65V81c0-1.65-.4-2.74-2.28-2.74a2.12,2.12,0,0,0-2.34,2h-5.55c.26-4.16,3.53-6.21,8.25-6.21s7.79,1.95,7.79,6.54V91.85h-5.74v-2a5.69,5.69,0,0,1-5.12,2.4C111.41,92.24,108.67,90.73,108.67,87.06Zm10.83-1.25V84.75h-1.56c-2.37,0-3.43.46-3.43,1.88,0,1,.66,1.62,2,1.62C118.24,88.25,119.5,87.29,119.5,85.81Z" fill="#fff"/><path d="M132.6,83.07l-5.38-8.48H134l2.68,4.55,2.61-4.55h6.07l-5.45,8,6,9.24h-6.8L136,86.7l-3.14,5.15h-6Z" fill="#fff"/><path d="M153.55,74.59h5.91V78A5.43,5.43,0,0,1,165,74.36v5.51c-3.6-.1-5.58,1-5.58,3.79v8.19h-5.91Z" fill="#fff"/><path d="M166.09,83.43v-.26c0-5.55,4.12-9,9.34-9,4.72,0,8.78,2.71,8.78,8.92v1.55H172.06c.17,2.27,1.49,3.6,3.6,3.6,2,0,2.77-.9,3-2h5.55c-.53,3.89-3.53,6.1-8.75,6.1C170.05,92.24,166.09,89.08,166.09,83.43Zm12.38-2.18c-.1-2.08-1.13-3.23-3-3.23s-3,1.15-3.3,3.23Z" fill="#fff"/><path d="M187.14,78.61H185v-4h2.18V73.07c0-4.29,2.68-6.34,6.77-6.34a10.5,10.5,0,0,1,2.71.37v4.32a5.52,5.52,0,0,0-1.62-.23,1.73,1.73,0,0,0-2,1.88v1.52h3.5v4H193V91.85h-5.88Z" fill="#fff"/><path d="M198.36,85.84V74.59h5.91V84.88c0,2,.76,2.91,2.44,2.91s2.94-1.06,2.94-3.27V74.59h5.91V91.85h-5.91V89.18a5.67,5.67,0,0,1-5.48,3.06C200.84,92.24,198.36,90.2,198.36,85.84Z" fill="#fff"/><path d="M218.56,74.59h5.91v2.77a6.09,6.09,0,0,1,5.67-3.24c3.34,0,5.65,2.08,5.65,6.51V91.85h-5.91v-10c0-1.95-.76-2.91-2.48-2.91s-2.93,1.06-2.93,3.27v9.67h-5.91Z" fill="#fff"/><path d="M237.8,83.4v-.26c0-5.88,3.23-9,7.32-9A5.6,5.6,0,0,1,250.44,77V67h5.91V91.85h-5.91V89a5.8,5.8,0,0,1-5.38,3.2C241.06,92.24,237.8,89.37,237.8,83.4Zm12.8-.1V83c0-2.91-1.22-4.46-3.4-4.46s-3.4,1.49-3.4,4.49v.26c0,2.91,1.29,4.39,3.34,4.39S250.6,86.24,250.6,83.3Z" fill="#fff"/><path d="M21.62,104.9a3.08,3.08,0,0,1,3.23-3.07,3.06,3.06,0,1,1,0,6.11A3.06,3.06,0,0,1,21.62,104.9Zm.29,4.69h5.91v17.26H21.91Z" fill="#fff"/><path d="M31,109.59H36.9v2.77a6.09,6.09,0,0,1,5.67-3.24c3.34,0,5.65,2.08,5.65,6.51v11.22H42.31v-10c0-1.95-.76-2.91-2.48-2.91S36.9,115,36.9,117.18v9.67H31Z" fill="#fff"/><path d="M56.1,122.06c0-4.06,3.43-5.64,9.18-5.64h1.65V116c0-1.65-.4-2.74-2.28-2.74a2.12,2.12,0,0,0-2.34,2H56.76c.27-4.16,3.53-6.21,8.25-6.21s7.79,1.95,7.79,6.54v11.19H67.06v-2a5.68,5.68,0,0,1-5.12,2.41C58.84,127.25,56.1,125.73,56.1,122.06Zm10.83-1.25v-1.06H65.38c-2.38,0-3.44.46-3.44,1.88,0,1,.66,1.62,2.05,1.62C65.67,123.25,66.93,122.29,66.93,120.81Z" fill="#fff"/><path d="M81.58,124.18v2.67H75.67V102h5.91v10.16a6.09,6.09,0,0,1,5.38-3c4,0,7.29,3,7.29,8.95v.26c0,5.94-3.27,8.92-7.33,8.92A5.61,5.61,0,0,1,81.58,124.18Zm6.67-5.85v-.26c0-3-1.33-4.49-3.4-4.49s-3.44,1.55-3.44,4.46v.26c0,2.94,1.29,4.42,3.44,4.42S88.25,121.17,88.25,118.33Z" fill="#fff"/><path d="M95.47,118.43v-.26c0-5.55,4.13-9,9.47-9s9.41,3.4,9.41,8.88v.27c0,5.61-4.13,9-9.44,9S95.47,124,95.47,118.43Zm12.87-.1v-.26c0-2.9-1.15-4.52-3.4-4.52s-3.43,1.55-3.43,4.45v.27c0,3,1.16,4.58,3.43,4.58S108.34,121.21,108.34,118.33Z" fill="#fff"/><path d="M116.29,120.84V109.59h5.91v10.29c0,2,.76,2.91,2.44,2.91s2.94-1.06,2.94-3.27v-9.93h5.91v17.26h-5.91v-2.67a5.67,5.67,0,0,1-5.48,3.07C118.77,127.25,116.29,125.2,116.29,120.84Z" fill="#fff"/><path d="M137.28,121.3v-7.69H135.2v-4h2.08V106h5.91v3.6h3.4v4h-3.4v7.13c0,1.26.63,1.82,1.75,1.82a4.45,4.45,0,0,0,1.68-.3v4.49a12.28,12.28,0,0,1-3.27.5C139.46,127.25,137.28,125.36,137.28,121.3Z" fill="#fff"/><path d="M153.85,122.06c0-4.06,3.43-5.64,9.17-5.64h1.65V116c0-1.65-.39-2.74-2.28-2.74a2.12,2.12,0,0,0-2.34,2h-5.54c.26-4.16,3.53-6.21,8.25-6.21s7.79,1.95,7.79,6.54v11.19H164.8v-2a5.66,5.66,0,0,1-5.11,2.41C156.58,127.25,153.85,125.73,153.85,122.06Zm10.82-1.25v-1.06h-1.55c-2.38,0-3.43.46-3.43,1.88,0,1,.66,1.62,2,1.62C163.42,123.25,164.67,122.29,164.67,120.81Z" fill="#fff"/><path d="M173.41,109.59h5.91v2.77a6.11,6.11,0,0,1,5.68-3.24c3.33,0,5.64,2.08,5.64,6.51v11.22h-5.9v-10c0-1.95-.76-2.91-2.48-2.91s-2.94,1.06-2.94,3.27v9.67h-5.91Z" fill="#fff"/><path d="M199.52,102h5.9v10.36a6.11,6.11,0,0,1,5.68-3.24c3.33,0,5.65,2.08,5.65,6.51v11.22h-5.91v-10c0-1.95-.76-2.91-2.48-2.91s-2.94,1.06-2.94,3.27v9.67h-5.9Z" fill="#fff"/><path d="M218.69,118.43v-.26c0-5.55,4.13-9,9.47-9s9.41,3.4,9.41,8.88v.27c0,5.61-4.13,9-9.44,9S218.69,124,218.69,118.43Zm12.87-.1v-.26c0-2.9-1.15-4.52-3.4-4.52s-3.43,1.55-3.43,4.45v.27c0,3,1.15,4.58,3.43,4.58S231.56,121.21,231.56,118.33Z" fill="#fff"/><path d="M239.51,120.84V109.59h5.91v10.29c0,2,.76,2.91,2.44,2.91s2.94-1.06,2.94-3.27v-9.93h5.91v17.26H250.8v-2.67a5.67,5.67,0,0,1-5.48,3.07C242,127.25,239.51,125.2,239.51,120.84Z" fill="#fff"/><path d="M259.71,109.59h5.91V113a5.43,5.43,0,0,1,5.57-3.66v5.51c-3.59-.1-5.57,1-5.57,3.79v8.19h-5.91Z" fill="#fff"/><path d="M271.13,123.88a3.29,3.29,0,0,1,3.36-3.34,3.34,3.34,0,1,1,0,6.67A3.28,3.28,0,0,1,271.13,123.88Z" fill="#fff"/></g></g></svg>