<svg xmlns="http://www.w3.org/2000/svg" viewBox="0 0 300 600"><title>H8</title><g id="Layer_2" data-name="Layer 2"><g id="Artboard_3" data-name="Artboard 3" style="isolation:isolate"><g id="headline1"><g id="Ready_for_your_refund_Get_expert_tax_prep_from_home_with_Ta" data-name="Ready for  your refund? Get expert  tax prep from home with  Ta"><path d="M22.71,115.14h11c7.33,0,11.41,3,11.41,8.91v.15A7.34,7.34,0,0,1,40,131.58l6.7,11.6H38.27l-5.68-10H30.71v10h-8Zm10.58,12.79c2.71,0,4-1.14,4-3.41v-.16c0-2.28-1.41-3.18-4-3.18H30.71v6.75Z" fill="#fff"/><path d="M46.74,133.18v-.31c0-6.59,4.9-10.75,11.1-10.75,5.61,0,10.43,3.22,10.43,10.59v1.85H53.84c.2,2.7,1.76,4.27,4.27,4.27,2.32,0,3.3-1.06,3.57-2.43h6.59c-.63,4.63-4.2,7.25-10.39,7.25C51.45,143.65,46.74,139.89,46.74,133.18Zm14.71-2.59c-.12-2.47-1.34-3.84-3.61-3.84s-3.57,1.37-3.92,3.84Z" fill="#fff"/><path d="M69.72,137.5c0-4.83,4.08-6.71,10.9-6.71h2v-.47c0-2-.47-3.25-2.71-3.25a2.51,2.51,0,0,0-2.78,2.43H70.5c.32-4.94,4.2-7.38,9.81-7.38s9.25,2.32,9.25,7.77v13.29H82.74v-2.39c-1,1.49-2.79,2.86-6.08,2.86C73,143.65,69.72,141.85,69.72,137.5ZM82.58,136v-1.26H80.74c-2.83,0-4.08.55-4.08,2.24,0,1.17.78,1.92,2.43,1.92C81.09,138.91,82.58,137.77,82.58,136Z" fill="#fff"/><path d="M92,133.14v-.31c0-7,3.84-10.71,8.71-10.71a6.66,6.66,0,0,1,6.31,3.46V113.65h7v29.53h-7v-3.33a6.91,6.91,0,0,1-6.39,3.8C95.83,143.65,92,140.24,92,133.14Zm15.22-.11v-.32c0-3.45-1.46-5.29-4-5.29s-4,1.76-4,5.33v.31c0,3.46,1.53,5.22,4,5.22S107.17,136.52,107.17,133Z" fill="#fff"/><path d="M124,141.1l-8.2-18.43h7.61l4.23,10.94,3.92-10.94h6.71l-11,27.38h-6.71Z" fill="#fff"/><path d="M148.25,127.46h-2.58v-4.79h2.58v-1.8c0-5.1,3.18-7.53,8-7.53a12.74,12.74,0,0,1,3.22.43v5.14a6.34,6.34,0,0,0-1.92-.28,2.06,2.06,0,0,0-2.35,2.24v1.8h4.15v4.79h-4.15v15.72h-7Z" fill="#fff"/><path d="M159.94,133.18v-.31c0-6.59,4.9-10.75,11.25-10.75s11.18,4,11.18,10.55V133c0,6.66-4.9,10.66-11.21,10.66S159.94,139.81,159.94,133.18Zm15.29-.12v-.31c0-3.45-1.37-5.37-4-5.37s-4.07,1.84-4.07,5.29V133c0,3.53,1.37,5.45,4.07,5.45S175.23,136.48,175.23,133.06Z" fill="#fff"/><path d="M184.84,122.67h7v4.08a6.46,6.46,0,0,1,6.63-4.35V129c-4.28-.12-6.63,1.21-6.63,4.51v9.72h-7Z" fill="#fff"/><path d="M28.51,183.7l-8.2-18.43h7.61l4.24,10.94,3.92-10.94h6.7l-11,27.37H25.1Z" fill="#fff"/><path d="M42.39,175.78v-.32c0-6.59,4.9-10.74,11.25-10.74s11.18,4,11.18,10.55v.31c0,6.67-4.9,10.67-11.22,10.67S42.39,182.4,42.39,175.78Zm15.29-.12v-.32c0-3.45-1.37-5.37-4-5.37s-4.08,1.84-4.08,5.3v.31c0,3.53,1.38,5.45,4.08,5.45S57.68,179.07,57.68,175.66Z" fill="#fff"/><path d="M67.13,178.64V165.27h7V177.5c0,2.31.9,3.45,2.9,3.45s3.49-1.25,3.49-3.88v-11.8h7v20.51h-7V182.6c-1.1,2.12-3.1,3.65-6.51,3.65C70.07,186.25,67.13,183.81,67.13,178.64Z" fill="#fff"/><path d="M91.13,165.27h7v4.07a6.46,6.46,0,0,1,6.62-4.35v6.55c-4.27-.12-6.62,1.22-6.62,4.51v9.73h-7Z" fill="#fff"/><path d="M114.46,165.27h7v4.07A6.48,6.48,0,0,1,128.1,165v6.55c-4.27-.12-6.63,1.22-6.63,4.51v9.73h-7Z" fill="#fff"/><path d="M129.36,175.78v-.32c0-6.59,4.9-10.74,11.09-10.74,5.61,0,10.43,3.21,10.43,10.59v1.84H136.45c.2,2.7,1.77,4.27,4.28,4.27,2.31,0,3.29-1.06,3.57-2.43h6.58c-.62,4.63-4.19,7.26-10.39,7.26C134.06,186.25,129.36,182.48,129.36,175.78Zm14.7-2.59c-.12-2.47-1.33-3.85-3.61-3.85-2.11,0-3.57,1.38-3.92,3.85Z" fill="#fff"/><path d="M154.37,170.05h-2.59v-4.78h2.59v-1.81c0-5.1,3.18-7.53,8-7.53a12.87,12.87,0,0,1,3.22.43v5.14a6.39,6.39,0,0,0-1.93-.27,2.06,2.06,0,0,0-2.35,2.23v1.81h4.16v4.78h-4.16v15.73h-7Z" fill="#fff"/><path d="M167.7,178.64V165.27h7V177.5c0,2.31.9,3.45,2.9,3.45s3.49-1.25,3.49-3.88v-11.8h7v20.51h-7V182.6c-1.09,2.12-3.09,3.65-6.51,3.65C170.64,186.25,167.7,183.81,167.7,178.64Z" fill="#fff"/><path d="M191.7,165.27h7v3.29a7.23,7.23,0,0,1,6.74-3.84c4,0,6.71,2.47,6.71,7.72v13.34h-7V173.85c0-2.31-.9-3.45-2.94-3.45s-3.49,1.26-3.49,3.89v11.49h-7Z" fill="#fff"/><path d="M214.56,175.74v-.32c0-7,3.84-10.7,8.7-10.7a6.66,6.66,0,0,1,6.32,3.45V156.25h7v29.53h-7v-3.34a6.92,6.92,0,0,1-6.4,3.81C218.44,186.25,214.56,182.83,214.56,175.74Zm15.21-.12v-.31c0-3.46-1.45-5.3-4-5.3s-4,1.77-4,5.33v.32c0,3.45,1.53,5.21,4,5.21S229.77,179.11,229.77,175.62Z" fill="#fff"/><path d="M244.71,175.81c0-3,2-4.86,3.84-6.58,1.34-1.3,2.55-2.47,2.55-3.85a2.09,2.09,0,0,0-2.39-2.35c-1.69,0-2.82,1.29-3.1,3.45h-6.82c.19-5.92,4.43-9.14,10.47-9.14s9.45,2.71,9.45,7.38a7.94,7.94,0,0,1-2.86,5.88c-1.93,1.92-4.16,3.45-4.51,5.37v.59h-6.63Zm-.9,6.51a4.2,4.2,0,0,1,8.39,0,4.21,4.21,0,0,1-8.39,0Z" fill="#fff"/><path d="M21.22,214.53v-.32c0-8.55,6.27-14.31,14.7-14.31,6.63,0,12.51,3,13.06,10.31H41c-.39-2.63-2.08-4-5.06-4-4,0-6.35,3.06-6.35,8.12v.31c0,4.55,1.68,8.08,6.55,8.08,3.92,0,5.41-2,5.57-4.23H36.47v-5.61H49.65v3.45c0,7.14-4.67,12.51-13.73,12.51C26.39,228.84,21.22,222.92,21.22,214.53Z" fill="#fff"/><path d="M51.25,218.37v-.31c0-6.59,4.9-10.75,11.1-10.75,5.61,0,10.43,3.22,10.43,10.59v1.84H58.35c.19,2.71,1.76,4.28,4.27,4.28,2.32,0,3.3-1.06,3.57-2.44h6.59c-.63,4.63-4.2,7.26-10.39,7.26C56,228.84,51.25,225.07,51.25,218.37ZM66,215.78c-.12-2.47-1.34-3.84-3.61-3.84s-3.57,1.37-3.92,3.84Z" fill="#fff"/><path d="M76.15,221.78v-9.14H73.68v-4.78h2.47v-4.28h7v4.28h4v4.78h-4v8.47c0,1.49.74,2.16,2.08,2.16a5.48,5.48,0,0,0,2-.35v5.33a14.62,14.62,0,0,1-3.89.59C78.74,228.84,76.15,226.6,76.15,221.78Z" fill="#fff"/><path d="M95.91,218.37v-.31c0-6.59,4.9-10.75,11.1-10.75,5.61,0,10.43,3.22,10.43,10.59v1.84H103c.19,2.71,1.76,4.28,4.27,4.28,2.32,0,3.3-1.06,3.57-2.44h6.59c-.63,4.63-4.2,7.26-10.39,7.26C100.62,228.84,95.91,225.07,95.91,218.37Zm14.71-2.59c-.12-2.47-1.34-3.84-3.61-3.84s-3.57,1.37-3.92,3.84Z" fill="#fff"/><path d="M124,217.94l-6.4-10.08h8.08l3.18,5.41,3.1-5.41h7.21l-6.47,9.53,7.1,11h-8.08L128,222.25l-3.72,6.12h-7.18Z" fill="#fff"/><path d="M141.71,207.86h7v3.06a7.23,7.23,0,0,1,6.39-3.61c4.78,0,8.66,3.61,8.66,10.63v.31c0,7.06-3.88,10.59-8.7,10.59a6.76,6.76,0,0,1-6.35-3.49v9.88h-7Zm14.94,10.39v-.31c0-3.61-1.57-5.34-4-5.34s-4.08,1.85-4.08,5.3v.31c0,3.49,1.53,5.26,4.08,5.26S156.65,221.62,156.65,218.25Z" fill="#fff"/><path d="M165.23,218.37v-.31c0-6.59,4.9-10.75,11.1-10.75,5.61,0,10.43,3.22,10.43,10.59v1.84H172.33c.2,2.71,1.76,4.28,4.27,4.28,2.32,0,3.3-1.06,3.57-2.44h6.59c-.63,4.63-4.2,7.26-10.39,7.26C169.94,228.84,165.23,225.07,165.23,218.37Zm14.71-2.59c-.12-2.47-1.34-3.84-3.61-3.84s-3.57,1.37-3.92,3.84Z" fill="#fff"/><path d="M189.19,207.86h7v4.08a6.48,6.48,0,0,1,6.63-4.36v6.55c-4.28-.11-6.63,1.22-6.63,4.51v9.73h-7Z" fill="#fff"/><path d="M206.64,221.78v-9.14h-2.47v-4.78h2.47v-4.28h7v4.28h4v4.78h-4v8.47c0,1.49.74,2.16,2.07,2.16a5.41,5.41,0,0,0,2-.35v5.33a14.47,14.47,0,0,1-3.88.59C209.22,228.84,206.64,226.6,206.64,221.78Z" fill="#fff"/><path d="M23,264.37v-9.13H20.55v-4.79H23v-4.27h7v4.27h4v4.79H30v8.47a1.87,1.87,0,0,0,2.08,2.15,5.28,5.28,0,0,0,2-.35v5.33a14.54,14.54,0,0,1-3.88.59C25.61,271.43,23,269.2,23,264.37Z" fill="#fff"/><path d="M35.64,265.28c0-4.83,4.08-6.71,10.91-6.71h2v-.47c0-2-.47-3.26-2.71-3.26A2.52,2.52,0,0,0,43,257.28H36.43c.31-4.95,4.2-7.38,9.8-7.38s9.26,2.32,9.26,7.77V271H48.66v-2.39c-1,1.49-2.78,2.86-6.07,2.86C38.9,271.43,35.64,269.63,35.64,265.28Zm12.87-1.49v-1.26H46.66c-2.82,0-4.07.55-4.07,2.24,0,1.17.78,1.92,2.43,1.92C47,266.69,48.51,265.55,48.51,263.79Z" fill="#fff"/><path d="M64.07,260.53l-6.39-10.08h8.08l3.17,5.41,3.1-5.41h7.22L72.78,260l7.1,11H71.8l-3.65-6.12L64.42,271H57.25Z" fill="#fff"/><path d="M89,250.45h7v3.06a7.24,7.24,0,0,1,6.39-3.61c4.79,0,8.67,3.61,8.67,10.63v.31c0,7.06-3.88,10.59-8.71,10.59A6.76,6.76,0,0,1,96,267.94v9.88H89Zm14.94,10.39v-.31c0-3.61-1.57-5.33-4-5.33s-4.08,1.84-4.08,5.29v.31c0,3.49,1.53,5.26,4.08,5.26S103.91,264.22,103.91,260.84Z" fill="#fff"/><path d="M113.59,250.45h7v4.08a6.46,6.46,0,0,1,6.63-4.35v6.55c-4.28-.12-6.63,1.21-6.63,4.51V271h-7Z" fill="#fff"/><path d="M128.49,261v-.31c0-6.59,4.9-10.75,11.1-10.75,5.61,0,10.43,3.22,10.43,10.59v1.84H135.59c.2,2.71,1.76,4.28,4.27,4.28,2.32,0,3.3-1.06,3.57-2.43H150c-.63,4.62-4.19,7.25-10.39,7.25C133.2,271.43,128.49,267.67,128.49,261Zm14.71-2.59c-.12-2.47-1.34-3.84-3.61-3.84-2.12,0-3.57,1.37-3.92,3.84Z" fill="#fff"/><path d="M152.45,250.45h7v3.06a7.23,7.23,0,0,1,6.39-3.61c4.78,0,8.67,3.61,8.67,10.63v.31c0,7.06-3.89,10.59-8.71,10.59a6.76,6.76,0,0,1-6.35-3.49v9.88h-7Zm14.94,10.39v-.31c0-3.61-1.57-5.33-4-5.33s-4.08,1.84-4.08,5.29v.31c0,3.49,1.53,5.26,4.08,5.26S167.39,264.22,167.39,260.84Z" fill="#fff"/><path d="M185.27,255.24h-2.59v-4.79h2.59v-1.8c0-5.1,3.17-7.53,8-7.53a12.28,12.28,0,0,1,3.21.43v5.14a6.34,6.34,0,0,0-1.92-.28,2.06,2.06,0,0,0-2.35,2.24v1.8h4.15v4.79h-4.15V271h-7Z" fill="#fff"/><path d="M198.75,250.45h7v4.08a6.46,6.46,0,0,1,6.63-4.35v6.55c-4.27-.12-6.63,1.21-6.63,4.51V271h-7Z" fill="#fff"/><path d="M213.65,261v-.31c0-6.59,4.91-10.75,11.26-10.75s11.17,4,11.17,10.55v.32c0,6.66-4.9,10.66-11.21,10.66S213.65,267.59,213.65,261Zm15.3-.12v-.31c0-3.45-1.37-5.37-4-5.37s-4.08,1.84-4.08,5.29v.32c0,3.52,1.37,5.45,4.08,5.45S229,264.26,229,260.84Z" fill="#fff"/><path d="M238.55,250.45h7v3.14A7.18,7.18,0,0,1,252,249.9a5.59,5.59,0,0,1,5.57,3.41,8.15,8.15,0,0,1,6.79-3.41c3.88,0,6.7,2.51,6.7,7.65V271h-7V258.73c0-2.08-1-3.1-2.62-3.1-1.89,0-3.14,1.21-3.14,3.45V271h-6.94V258.73c0-2.08-1-3.1-2.63-3.1-1.88,0-3.14,1.21-3.14,3.45V271h-7Z" fill="#fff"/><path d="M22.08,284h7v12.31a7.23,7.23,0,0,1,6.74-3.84c4,0,6.71,2.47,6.71,7.72v13.33h-7V301.63c0-2.31-.9-3.45-2.94-3.45s-3.49,1.26-3.49,3.88v11.49h-7Z" fill="#fff"/><path d="M44.86,303.55v-.31c0-6.59,4.9-10.74,11.25-10.74s11.18,4,11.18,10.54v.32c0,6.67-4.9,10.67-11.22,10.67S44.86,310.18,44.86,303.55Zm15.29-.11v-.32c0-3.45-1.37-5.37-4-5.37S52,299.59,52,303v.32c0,3.53,1.37,5.45,4.07,5.45S60.15,306.85,60.15,303.44Z" fill="#fff"/><path d="M69.76,293.05h7v3.13a7.15,7.15,0,0,1,6.43-3.68,5.58,5.58,0,0,1,5.57,3.41,8.12,8.12,0,0,1,6.78-3.41c3.88,0,6.71,2.51,6.71,7.64v13.41h-7V301.32c0-2.08-1-3.1-2.63-3.1-1.88,0-3.14,1.22-3.14,3.45v11.88H82.54V301.32c0-2.08-1-3.1-2.63-3.1-1.88,0-3.13,1.22-3.13,3.45v11.88h-7Z" fill="#fff"/><path d="M104.58,303.55v-.31c0-6.59,4.9-10.74,11.09-10.74,5.61,0,10.43,3.21,10.43,10.58v1.85H111.67c.2,2.7,1.77,4.27,4.28,4.27,2.31,0,3.29-1.06,3.57-2.43h6.58c-.62,4.63-4.19,7.26-10.39,7.26C109.28,314,104.58,310.26,104.58,303.55Zm14.7-2.58c-.12-2.47-1.33-3.85-3.61-3.85-2.11,0-3.57,1.38-3.92,3.85Z" fill="#fff"/><path d="M133.94,293.05h7.34l3,12.27,3.45-12.27h5.64l3.06,12.27,3.34-12.27h6.66l-6.51,20.5h-6.7l-3.06-11.45L147,313.55h-6.82Z" fill="#fff"/><path d="M168.05,287.48a3.87,3.87,0,1,1,3.85,3.6A3.63,3.63,0,0,1,168.05,287.48Zm.36,5.57h7v20.5h-7Z" fill="#fff"/><path d="M180.13,307v-9.14h-2.47v-4.78h2.47v-4.28h7v4.28h4v4.78h-4v8.47a1.88,1.88,0,0,0,2.08,2.16,5.28,5.28,0,0,0,2-.36v5.34a15,15,0,0,1-3.88.59C182.72,314,180.13,311.79,180.13,307Z" fill="#fff"/><path d="M193.85,284h7v12.31a7.25,7.25,0,0,1,6.75-3.84c4,0,6.7,2.47,6.7,7.72v13.33h-7V301.63c0-2.31-.9-3.45-2.94-3.45s-3.49,1.26-3.49,3.88v11.49h-7Z" fill="#fff"/><path d="M28.08,334.3H20.82v-6.19H43.41v6.19H36.16v21.85H28.08Z" fill="#fff"/><path d="M42,350.46c0-4.82,4.08-6.7,10.9-6.7h2v-.47c0-2-.47-3.26-2.71-3.26a2.52,2.52,0,0,0-2.78,2.43H42.78c.31-4.94,4.2-7.37,9.8-7.37s9.26,2.31,9.26,7.76v13.3H55v-2.4c-1,1.5-2.79,2.87-6.08,2.87C45.25,356.62,42,354.81,42,350.46ZM54.86,349v-1.25H53c-2.83,0-4.08.55-4.08,2.23,0,1.18.78,1.92,2.43,1.92C53.37,351.87,54.86,350.74,54.86,349Z" fill="#fff"/><path d="M70.42,345.72,64,335.64h8.08l3.18,5.41,3.1-5.41H85.6l-6.47,9.53,7.1,11H78.15L74.5,350l-3.72,6.12H63.6Z" fill="#fff"/><path d="M96,328.11h10.67c7.68,0,11.25,3.41,11.25,9.37v.16c0,5.88-4,9.06-10.9,9.06h-3v9.45H96Zm10.31,13.1c2.59,0,4-1.22,4-3.53v-.16c0-2.39-1.41-3.37-3.92-3.37H104v7.06Z" fill="#fff"/><path d="M120.3,335.64h7v4.08a6.46,6.46,0,0,1,6.62-4.36v6.55c-4.27-.12-6.62,1.22-6.62,4.51v9.73h-7Z" fill="#fff"/><path d="M135.2,346.15v-.32c0-6.58,4.9-10.74,11.25-10.74s11.18,4,11.18,10.55V346c0,6.67-4.9,10.67-11.22,10.67S135.2,352.78,135.2,346.15Zm15.29-.12v-.31c0-3.45-1.37-5.38-4-5.38s-4.08,1.85-4.08,5.3V346c0,3.53,1.38,5.45,4.08,5.45S150.49,349.44,150.49,346Z" fill="#fff"/><path d="M166.37,342.3V342c0-8.55,6.27-14.31,14.7-14.31,6.63,0,12.51,3,13.06,10.31h-8c-.39-2.63-2.08-4-5.06-4-4,0-6.35,3.06-6.35,8.12v.31c0,4.55,1.69,8.08,6.55,8.08,3.92,0,5.41-2,5.57-4.23h-5.26v-5.61H194.8v3.45c0,7.14-4.67,12.51-13.73,12.51C171.54,356.62,166.37,350.7,166.37,342.3Z" fill="#fff"/><path d="M196.4,346.15v-.32c0-6.58,4.9-10.74,11.26-10.74s11.17,4,11.17,10.55V346c0,6.67-4.9,10.67-11.21,10.67S196.4,352.78,196.4,346.15Zm15.3-.12v-.31c0-3.45-1.38-5.38-4-5.38s-4.08,1.85-4.08,5.3V346c0,3.53,1.37,5.45,4.08,5.45S211.7,349.44,211.7,346Z" fill="#fff"/><path d="M220.17,352.62a3.9,3.9,0,0,1,4-4,4,4,0,1,1,0,7.92A3.91,3.91,0,0,1,220.17,352.62Z" fill="#fff"/><rect width="300" height="600" fill="none"/></g></g></g></g></svg>