<svg xmlns="http://www.w3.org/2000/svg" viewBox="0 0 728 90"><title>H155</title><g id="Layer_2" data-name="Layer 2"><g id="Rect"><rect width="728" height="90" fill="none"/></g><g id="Block_costs_less_on_average_than_other_area_tax_preparers." data-name="Block costs less on average than other area tax preparers."><path d="M122.4,16.58h10c5.28,0,7.54,2.38,7.54,5.85v.12a4.6,4.6,0,0,1-3.79,4.81c2.75.47,4.47,2.13,4.47,5.22v.13c0,4-2.59,6.22-8.13,6.22H122.4Zm8.69,8.88c2,0,2.75-.69,2.75-2.28v-.13c0-1.53-.81-2.22-2.75-2.22h-2.44v4.63Zm.22,9.19c2,0,3-.94,3-2.6v-.12c0-1.69-.91-2.57-3.16-2.57h-2.47v5.29Z" fill="#fff"/><path d="M142.81,15.4h5.56V38.93h-5.56Z" fill="#fff"/><path d="M150.5,31v-.25c0-5.25,3.91-8.56,9-8.56s8.91,3.21,8.91,8.4v.25c0,5.31-3.91,8.5-8.94,8.5S150.5,36.24,150.5,31Zm12.19-.1v-.25c0-2.75-1.09-4.28-3.22-4.28s-3.25,1.47-3.25,4.22v.25c0,2.81,1.09,4.35,3.25,4.35S162.69,33.58,162.69,30.86Z" fill="#fff"/><path d="M169.47,31v-.25c0-5.44,3.91-8.56,8.73-8.56,4,0,7.69,1.75,8,6.71H181a2.41,2.41,0,0,0-2.63-2.37c-2,0-3.12,1.41-3.12,4.16v.25c0,2.84,1.09,4.31,3.22,4.31a2.72,2.72,0,0,0,2.84-2.72h5c-.15,4.12-2.93,6.81-8.22,6.81C173.19,39.3,169.47,36.46,169.47,31Z" fill="#fff"/><path d="M188.11,15.4h5.59V29.05l4.41-6.47h5.82l-5.35,7.35,5.78,9h-6.25l-4.41-7.16v7.16h-5.59Z" fill="#fff"/><path d="M210.49,31v-.25c0-5.44,3.91-8.56,8.72-8.56,4,0,7.69,1.75,8,6.71H222a2.41,2.41,0,0,0-2.62-2.37c-2,0-3.13,1.41-3.13,4.16v.25c0,2.84,1.09,4.31,3.22,4.31a2.72,2.72,0,0,0,2.84-2.72h5c-.16,4.12-2.94,6.81-8.23,6.81C214.21,39.3,210.49,36.46,210.49,31Z" fill="#fff"/><path d="M228.24,31v-.25c0-5.25,3.91-8.56,9-8.56s8.91,3.21,8.91,8.4v.25c0,5.31-3.91,8.5-8.94,8.5S228.24,36.24,228.24,31Zm12.2-.1v-.25c0-2.75-1.1-4.28-3.22-4.28S234,27.8,234,30.55v.25c0,2.81,1.1,4.35,3.26,4.35S240.44,33.58,240.44,30.86Z" fill="#fff"/><path d="M247.09,33.74h5.16c.19,1.19.72,1.84,2.31,1.84,1.38,0,2-.53,2-1.34s-.79-1.16-3-1.47c-4.37-.56-6.22-1.84-6.22-5.25,0-3.62,3.22-5.37,7-5.37,4,0,6.85,1.37,7.23,5.28h-5.07a1.82,1.82,0,0,0-2.09-1.63c-1.22,0-1.85.53-1.85,1.28s.75,1.1,2.75,1.35c4.54.56,6.73,1.75,6.73,5.25,0,3.87-2.88,5.62-7.41,5.62S247.22,37.36,247.09,33.74Z" fill="#fff"/><path d="M264.57,33.68V26.4h-2V22.58h2v-3.4h5.59v3.4h3.22V26.4h-3.22v6.75a1.49,1.49,0,0,0,1.66,1.71,4.23,4.23,0,0,0,1.6-.28v4.25a11.71,11.71,0,0,1-3.1.47C266.63,39.3,264.57,37.52,264.57,33.68Z" fill="#fff"/><path d="M274.63,33.74h5.16c.19,1.19.72,1.84,2.31,1.84,1.38,0,2-.53,2-1.34s-.79-1.16-3-1.47c-4.37-.56-6.22-1.84-6.22-5.25,0-3.62,3.22-5.37,7-5.37,4,0,6.85,1.37,7.23,5.28H284a1.82,1.82,0,0,0-2.09-1.63c-1.22,0-1.85.53-1.85,1.28s.75,1.1,2.75,1.35c4.54.56,6.73,1.75,6.73,5.25,0,3.87-2.88,5.62-7.41,5.62S274.76,37.36,274.63,33.74Z" fill="#fff"/><path d="M297.2,15.4h5.57V38.93H297.2Z" fill="#fff"/><path d="M304.89,31v-.25c0-5.25,3.91-8.56,8.85-8.56,4.47,0,8.32,2.56,8.32,8.43v1.47H310.55c.16,2.16,1.41,3.41,3.41,3.41,1.84,0,2.63-.85,2.84-1.94h5.26c-.5,3.69-3.35,5.78-8.29,5.78C308.64,39.3,304.89,36.3,304.89,31Zm11.73-2.06c-.1-2-1.07-3.07-2.88-3.07s-2.84,1.1-3.13,3.07Z" fill="#fff"/><path d="M323.05,33.74h5.16c.19,1.19.72,1.84,2.32,1.84,1.37,0,2-.53,2-1.34s-.78-1.16-3-1.47c-4.37-.56-6.22-1.84-6.22-5.25,0-3.62,3.22-5.37,7-5.37,4,0,6.84,1.37,7.22,5.28h-5.07a1.82,1.82,0,0,0-2.09-1.63c-1.22,0-1.85.53-1.85,1.28s.75,1.1,2.76,1.35c4.53.56,6.72,1.75,6.72,5.25,0,3.87-2.88,5.62-7.41,5.62S323.18,37.36,323.05,33.74Z" fill="#fff"/><path d="M338.78,33.74h5.16c.18,1.19.72,1.84,2.31,1.84,1.38,0,2-.53,2-1.34s-.78-1.16-3-1.47c-4.38-.56-6.22-1.84-6.22-5.25,0-3.62,3.22-5.37,7-5.37,4,0,6.85,1.37,7.22,5.28h-5.06a1.83,1.83,0,0,0-2.1-1.63c-1.22,0-1.84.53-1.84,1.28s.75,1.1,2.75,1.35c4.53.56,6.72,1.75,6.72,5.25,0,3.87-2.88,5.62-7.41,5.62S338.9,37.36,338.78,33.74Z" fill="#fff"/><path d="M360.32,31v-.25c0-5.25,3.9-8.56,9-8.56s8.91,3.21,8.91,8.4v.25c0,5.31-3.91,8.5-8.94,8.5S360.32,36.24,360.32,31Zm12.19-.1v-.25c0-2.75-1.09-4.28-3.22-4.28S366,27.8,366,30.55v.25c0,2.81,1.09,4.35,3.25,4.35S372.51,33.58,372.51,30.86Z" fill="#fff"/><path d="M380.17,22.58h5.59v2.63a5.78,5.78,0,0,1,5.38-3.06c3.16,0,5.35,2,5.35,6.15V38.93h-5.6v-9.5c0-1.85-.72-2.75-2.35-2.75s-2.78,1-2.78,3.09v9.16h-5.59Z" fill="#fff"/><path d="M404,34.4c0-3.85,3.26-5.35,8.7-5.35h1.56v-.37c0-1.57-.38-2.6-2.16-2.6A2,2,0,0,0,409.83,28h-5.25c.25-3.94,3.34-5.87,7.82-5.87s7.37,1.84,7.37,6.18v10.6h-5.44V37a5.36,5.36,0,0,1-4.84,2.28C406.55,39.3,404,37.86,404,34.4Zm10.26-1.19v-1h-1.47c-2.25,0-3.25.44-3.25,1.78,0,.94.62,1.53,1.94,1.53C413,35.52,414.21,34.61,414.21,33.21Z" fill="#fff"/><path d="M420.62,22.58h6L430,33.11l3.34-10.53h5.35l-6,16.35h-6.1Z" fill="#fff"/><path d="M438.34,31v-.25c0-5.25,3.91-8.56,8.85-8.56,4.47,0,8.31,2.56,8.31,8.43v1.47H444c.15,2.16,1.41,3.41,3.41,3.41,1.84,0,2.62-.85,2.84-1.94h5.25c-.5,3.69-3.34,5.78-8.28,5.78C442.09,39.3,438.34,36.3,438.34,31Zm11.72-2.06c-.09-2-1.06-3.07-2.87-3.07s-2.85,1.1-3.13,3.07Z" fill="#fff"/><path d="M457.44,22.58H463v3.25a5.16,5.16,0,0,1,5.28-3.47v5.22c-3.41-.09-5.28,1-5.28,3.6v7.75h-5.6Z" fill="#fff"/><path d="M469,34.4c0-3.85,3.25-5.35,8.69-5.35h1.56v-.37c0-1.57-.37-2.6-2.16-2.6A2,2,0,0,0,474.92,28h-5.26c.25-3.94,3.35-5.87,7.82-5.87s7.38,1.84,7.38,6.18v10.6h-5.44V37a5.37,5.37,0,0,1-4.85,2.28C471.63,39.3,469,37.86,469,34.4Zm10.25-1.19v-1h-1.47c-2.25,0-3.25.44-3.25,1.78,0,.94.63,1.53,1.94,1.53C478.1,35.52,479.29,34.61,479.29,33.21Z" fill="#fff"/><path d="M486.67,38.93h5.56c.25,1.18,1,2.12,3,2.12,2.47,0,3.47-1.4,3.47-3.44v-2.5a5.73,5.73,0,0,1-5.07,3c-3.81,0-6.94-2.81-6.94-7.84V30c0-4.81,3.09-7.87,6.94-7.87a5.32,5.32,0,0,1,5.07,2.75V22.58h5.59v15c0,4.88-3.22,7.44-9.06,7.44C489.67,45,487.11,42.65,486.67,38.93Zm12.19-8.69V30c0-2.25-1.15-3.69-3.22-3.69s-3.22,1.47-3.22,3.72v.25c0,2.25,1.19,3.69,3.19,3.69S498.86,32.55,498.86,30.24Z" fill="#fff"/><path d="M506.27,31v-.25c0-5.25,3.91-8.56,8.85-8.56,4.47,0,8.31,2.56,8.31,8.43v1.47h-11.5c.15,2.16,1.4,3.41,3.41,3.41,1.84,0,2.62-.85,2.84-1.94h5.25c-.5,3.69-3.34,5.78-8.28,5.78C510,39.3,506.27,36.3,506.27,31ZM518,28.9c-.09-2-1.06-3.07-2.87-3.07s-2.85,1.1-3.13,3.07Z" fill="#fff"/><path d="M122.65,67V59.67h-2V55.85h2v-3.4h5.59v3.4h3.22v3.82h-3.22v6.75a1.49,1.49,0,0,0,1.66,1.71,4.18,4.18,0,0,0,1.59-.28V72.1a11.55,11.55,0,0,1-3.09.47C124.71,72.57,122.65,70.79,122.65,67Z" fill="#fff"/><path d="M133.59,48.67h5.59v9.81a5.78,5.78,0,0,1,5.38-3.06c3.16,0,5.35,2,5.35,6.15V72.2h-5.6V62.7c0-1.85-.72-2.75-2.34-2.75s-2.79,1-2.79,3.09V72.2h-5.59Z" fill="#fff"/><path d="M151.69,67.67c0-3.85,3.25-5.35,8.69-5.35h1.56V62c0-1.57-.37-2.6-2.16-2.6a2,2,0,0,0-2.22,1.94h-5.25c.25-3.94,3.35-5.87,7.82-5.87s7.38,1.84,7.38,6.18V72.2h-5.44V70.29a5.37,5.37,0,0,1-4.85,2.28C154.28,72.57,151.69,71.13,151.69,67.67Zm10.25-1.19v-1h-1.47c-2.25,0-3.25.44-3.25,1.78,0,.94.63,1.53,1.94,1.53C160.75,68.79,161.94,67.88,161.94,66.48Z" fill="#fff"/><path d="M170.22,55.85h5.6v2.63a5.78,5.78,0,0,1,5.38-3.06c3.16,0,5.34,2,5.34,6.15V72.2H181V62.7c0-1.85-.72-2.75-2.35-2.75s-2.78,1-2.78,3.09V72.2h-5.6Z" fill="#fff"/><path d="M194.08,64.23V64c0-5.25,3.9-8.56,9-8.56s8.91,3.21,8.91,8.4v.25c0,5.31-3.91,8.5-8.94,8.5S194.08,69.51,194.08,64.23Zm12.19-.1v-.25c0-2.75-1.1-4.28-3.22-4.28s-3.25,1.47-3.25,4.22v.25c0,2.81,1.09,4.35,3.25,4.35S206.27,66.85,206.27,64.13Z" fill="#fff"/><path d="M214.68,67V59.67h-2V55.85h2v-3.4h5.59v3.4h3.22v3.82h-3.22v6.75a1.49,1.49,0,0,0,1.66,1.71,4.18,4.18,0,0,0,1.59-.28V72.1a11.55,11.55,0,0,1-3.09.47C216.74,72.57,214.68,70.79,214.68,67Z" fill="#fff"/><path d="M225.62,48.67h5.59v9.81a5.78,5.78,0,0,1,5.38-3.06c3.16,0,5.35,2,5.35,6.15V72.2h-5.6V62.7c0-1.85-.72-2.75-2.34-2.75s-2.79,1-2.79,3.09V72.2h-5.59Z" fill="#fff"/><path d="M243.78,64.23V64c0-5.25,3.91-8.56,8.85-8.56,4.47,0,8.31,2.56,8.31,8.43v1.47h-11.5c.15,2.16,1.41,3.41,3.41,3.41,1.84,0,2.62-.85,2.84-1.94h5.25c-.5,3.69-3.34,5.78-8.28,5.78C247.53,72.57,243.78,69.57,243.78,64.23Zm11.72-2.06c-.09-2-1.06-3.07-2.87-3.07s-2.85,1.1-3.13,3.07Z" fill="#fff"/><path d="M262.88,55.85h5.6V59.1a5.16,5.16,0,0,1,5.28-3.47v5.22c-3.41-.09-5.28,1-5.28,3.6V72.2h-5.6Z" fill="#fff"/><path d="M280.54,67.67c0-3.85,3.25-5.35,8.69-5.35h1.57V62c0-1.57-.38-2.6-2.16-2.6a2,2,0,0,0-2.22,1.94h-5.25c.25-3.94,3.34-5.87,7.81-5.87s7.38,1.84,7.38,6.18V72.2h-5.44V70.29a5.37,5.37,0,0,1-4.85,2.28C283.14,72.57,280.54,71.13,280.54,67.67Zm10.26-1.19v-1h-1.47c-2.25,0-3.26.44-3.26,1.78,0,.94.63,1.53,1.94,1.53C289.61,68.79,290.8,67.88,290.8,66.48Z" fill="#fff"/><path d="M299.08,55.85h5.59V59.1A5.18,5.18,0,0,1,310,55.63v5.22c-3.41-.09-5.29,1-5.29,3.6V72.2h-5.59Z" fill="#fff"/><path d="M311,64.23V64c0-5.25,3.91-8.56,8.85-8.56,4.47,0,8.31,2.56,8.31,8.43v1.47h-11.5c.15,2.16,1.4,3.41,3.4,3.41s2.63-.85,2.85-1.94h5.25c-.5,3.69-3.34,5.78-8.28,5.78C314.71,72.57,311,69.57,311,64.23Zm11.72-2.06c-.09-2-1.06-3.07-2.87-3.07s-2.85,1.1-3.13,3.07Z" fill="#fff"/><path d="M329.28,67.67c0-3.85,3.25-5.35,8.69-5.35h1.56V62c0-1.57-.37-2.6-2.16-2.6a2,2,0,0,0-2.22,1.94H329.9c.25-3.94,3.35-5.87,7.82-5.87s7.38,1.84,7.38,6.18V72.2h-5.44V70.29a5.38,5.38,0,0,1-4.85,2.28C331.87,72.57,329.28,71.13,329.28,67.67Zm10.25-1.19v-1h-1.47c-2.25,0-3.25.44-3.25,1.78,0,.94.63,1.53,1.94,1.53C338.34,68.79,339.53,67.88,339.53,66.48Z" fill="#fff"/><path d="M354.25,67V59.67h-2V55.85h2v-3.4h5.6v3.4h3.22v3.82h-3.22v6.75a1.49,1.49,0,0,0,1.66,1.71,4.21,4.21,0,0,0,1.59-.28V72.1a11.62,11.62,0,0,1-3.09.47C356.32,72.57,354.25,70.79,354.25,67Z" fill="#fff"/><path d="M364.32,67.67c0-3.85,3.25-5.35,8.69-5.35h1.56V62c0-1.57-.37-2.6-2.15-2.6a2,2,0,0,0-2.22,1.94h-5.26c.25-3.94,3.35-5.87,7.82-5.87s7.38,1.84,7.38,6.18V72.2H374.7V70.29a5.37,5.37,0,0,1-4.85,2.28C366.91,72.57,364.32,71.13,364.32,67.67Zm10.25-1.19v-1H373.1c-2.25,0-3.25.44-3.25,1.78,0,.94.63,1.53,1.94,1.53C373.38,68.79,374.57,67.88,374.57,66.48Z" fill="#fff"/><path d="M387,63.88l-5.09-8h6.44l2.53,4.32,2.47-4.32h5.75l-5.16,7.6,5.66,8.75h-6.44l-2.91-4.88-3,4.88h-5.72Z" fill="#fff"/><path d="M406.83,55.85h5.6v2.44a5.76,5.76,0,0,1,5.09-2.87c3.82,0,6.91,2.87,6.91,8.46v.25c0,5.63-3.09,8.44-6.94,8.44a5.37,5.37,0,0,1-5.06-2.78v7.88h-5.6Zm11.91,8.28v-.25c0-2.87-1.25-4.25-3.22-4.25s-3.25,1.47-3.25,4.22v.25c0,2.78,1.22,4.19,3.25,4.19S418.74,66.82,418.74,64.13Z" fill="#fff"/><path d="M426.46,55.85h5.6V59.1a5.16,5.16,0,0,1,5.28-3.47v5.22c-3.4-.09-5.28,1-5.28,3.6V72.2h-5.6Z" fill="#fff"/><path d="M438.34,64.23V64c0-5.25,3.91-8.56,8.85-8.56,4.47,0,8.32,2.56,8.32,8.43v1.47H444c.16,2.16,1.41,3.41,3.41,3.41,1.84,0,2.62-.85,2.84-1.94h5.26c-.5,3.69-3.35,5.78-8.29,5.78C442.09,72.57,438.34,69.57,438.34,64.23Zm11.73-2.06c-.1-2-1.07-3.07-2.88-3.07s-2.85,1.1-3.13,3.07Z" fill="#fff"/><path d="M457.44,55.85H463v2.44a5.76,5.76,0,0,1,5.09-2.87c3.82,0,6.91,2.87,6.91,8.46v.25c0,5.63-3.09,8.44-6.94,8.44A5.37,5.37,0,0,1,463,69.79v7.88h-5.6Zm11.91,8.28v-.25c0-2.87-1.25-4.25-3.22-4.25s-3.25,1.47-3.25,4.22v.25c0,2.78,1.22,4.19,3.25,4.19S469.35,66.82,469.35,64.13Z" fill="#fff"/><path d="M476.13,67.67c0-3.85,3.26-5.35,8.7-5.35h1.56V62c0-1.57-.38-2.6-2.16-2.6A2,2,0,0,0,482,61.29h-5.25c.25-3.94,3.35-5.87,7.82-5.87S492,57.26,492,61.6V72.2h-5.44V70.29a5.39,5.39,0,0,1-4.85,2.28C478.73,72.57,476.13,71.13,476.13,67.67Zm10.26-1.19v-1h-1.47c-2.25,0-3.25.44-3.25,1.78,0,.94.62,1.53,1.94,1.53C485.2,68.79,486.39,67.88,486.39,66.48Z" fill="#fff"/><path d="M494.67,55.85h5.6V59.1a5.16,5.16,0,0,1,5.28-3.47v5.22c-3.4-.09-5.28,1-5.28,3.6V72.2h-5.6Z" fill="#fff"/><path d="M506.55,64.23V64c0-5.25,3.91-8.56,8.85-8.56,4.47,0,8.32,2.56,8.32,8.43v1.47H512.21c.16,2.16,1.41,3.41,3.41,3.41,1.84,0,2.63-.85,2.84-1.94h5.26c-.5,3.69-3.35,5.78-8.29,5.78C510.3,72.57,506.55,69.57,506.55,64.23Zm11.73-2.06c-.1-2-1.07-3.07-2.88-3.07s-2.85,1.1-3.13,3.07Z" fill="#fff"/><path d="M525.65,55.85h5.6V59.1a5.16,5.16,0,0,1,5.28-3.47v5.22c-3.41-.09-5.28,1-5.28,3.6V72.2h-5.6Z" fill="#fff"/><path d="M537.53,67h5.16c.19,1.19.72,1.84,2.31,1.84,1.38,0,2-.53,2-1.34s-.78-1.16-3-1.47c-4.38-.56-6.22-1.84-6.22-5.25,0-3.62,3.22-5.37,7-5.37,4,0,6.85,1.37,7.22,5.28h-5.06a1.82,1.82,0,0,0-2.09-1.63c-1.22,0-1.85.53-1.85,1.28s.75,1.1,2.75,1.35c4.54.56,6.72,1.75,6.72,5.25,0,3.87-2.87,5.62-7.41,5.62S537.66,70.63,537.53,67Z" fill="#fff"/><path d="M554,69.38a3.11,3.11,0,0,1,3.18-3.15,3.16,3.16,0,1,1,0,6.31A3.11,3.11,0,0,1,554,69.38Z" fill="#fff"/></g></g></svg>