<svg xmlns="http://www.w3.org/2000/svg" viewBox="0 0 301 251"><title>Asset 4</title><g id="Layer_2" data-name="Layer 2"><g id="Rect"><rect x="0.5" y="0.5" width="300" height="250" fill="none" stroke="#000" stroke-miterlimit="10"/></g><g id="Tired_of_TurboTax_Switch_to_Block_in_seconds." data-name="Tired of TurboTax? Switch to Block in seconds."><path d="M27.3,25H21.19V19.75h19V25H34.1V43.35H27.3Z" fill="#fff"/><path d="M41.69,21.4a3.08,3.08,0,0,1,3.23-3.07,3.06,3.06,0,1,1,0,6.11A3.06,3.06,0,0,1,41.69,21.4ZM42,26.09h5.91V43.35H42Z" fill="#fff"/><path d="M51.06,26.09H57v3.43a5.43,5.43,0,0,1,5.57-3.66v5.51c-3.59-.1-5.57,1-5.57,3.79v8.19H51.06Z" fill="#fff"/><path d="M63.6,34.93v-.26c0-5.55,4.12-9,9.34-9,4.72,0,8.78,2.71,8.78,8.92v1.55H69.57c.17,2.27,1.49,3.6,3.6,3.6,2,0,2.77-.9,3-2h5.55c-.53,3.89-3.53,6.1-8.75,6.1C67.56,43.74,63.6,40.58,63.6,34.93ZM76,32.75c-.1-2.08-1.13-3.23-3-3.23s-3,1.15-3.3,3.23Z" fill="#fff"/><path d="M82.9,34.9v-.26c0-5.88,3.24-9,7.33-9a5.59,5.59,0,0,1,5.31,2.91v-10h5.91V43.35H95.54V40.54a5.79,5.79,0,0,1-5.38,3.2C86.17,43.74,82.9,40.87,82.9,34.9Zm12.81-.1v-.26c0-2.91-1.22-4.46-3.4-4.46s-3.4,1.49-3.4,4.49v.26c0,2.91,1.29,4.39,3.33,4.39S95.71,37.74,95.71,34.8Z" fill="#fff"/><path d="M109.53,34.93v-.26c0-5.55,4.13-9,9.48-9s9.4,3.4,9.4,8.88v.27c0,5.61-4.12,9-9.44,9S109.53,40.51,109.53,34.93Zm12.88-.1v-.26c0-2.9-1.16-4.52-3.4-4.52s-3.44,1.55-3.44,4.45v.27c0,3,1.16,4.58,3.44,4.58S122.41,37.71,122.41,34.83Z" fill="#fff"/><path d="M131.38,30.11H129.2v-4h2.18V24.57c0-4.29,2.67-6.34,6.77-6.34a10.41,10.41,0,0,1,2.7.37v4.32a5.47,5.47,0,0,0-1.62-.23,1.74,1.74,0,0,0-2,1.88v1.52h3.5v4h-3.5V43.35h-5.87Z" fill="#fff"/><path d="M27.3,60H21.19V54.75h19V60H34.1V78.35H27.3Z" fill="#fff"/><path d="M40.73,72.34V61.09h5.91V71.38c0,2,.76,2.91,2.44,2.91S52,73.23,52,71V61.09h5.9V78.35H52V75.68a5.68,5.68,0,0,1-5.48,3.06C43.21,78.74,40.73,76.7,40.73,72.34Z" fill="#fff"/><path d="M60.93,61.09h5.9v3.43a5.44,5.44,0,0,1,5.58-3.66v5.51c-3.6-.1-5.58,1-5.58,3.79v8.19h-5.9Z" fill="#fff"/><path d="M80.46,75.68v2.67H74.55V53.5h5.91V63.66a6.09,6.09,0,0,1,5.38-3c4,0,7.3,3,7.3,8.95v.26c0,5.94-3.27,8.91-7.33,8.91A5.6,5.6,0,0,1,80.46,75.68Zm6.67-5.85v-.26c0-3-1.32-4.49-3.4-4.49s-3.43,1.55-3.43,4.46v.26c0,2.94,1.28,4.42,3.43,4.42S87.13,72.67,87.13,69.83Z" fill="#fff"/><path d="M94.35,69.93v-.26c0-5.55,4.13-9.05,9.48-9.05s9.4,3.4,9.4,8.88v.27c0,5.61-4.12,9-9.44,9S94.35,75.51,94.35,69.93Zm12.88-.1v-.26c0-2.9-1.16-4.52-3.4-4.52s-3.44,1.55-3.44,4.45v.27c0,3,1.16,4.58,3.44,4.58S107.23,72.71,107.23,69.83Z" fill="#fff"/><path d="M120.36,60h-6.11V54.75h19V60h-6.1V78.35h-6.8Z" fill="#fff"/><path d="M132.07,73.56c0-4.06,3.43-5.64,9.18-5.64h1.65v-.4c0-1.65-.4-2.74-2.28-2.74a2.12,2.12,0,0,0-2.34,2h-5.55c.27-4.16,3.53-6.21,8.25-6.21s7.79,2,7.79,6.54V78.35H143v-2c-.82,1.25-2.34,2.4-5.12,2.4C134.81,78.74,132.07,77.23,132.07,73.56Zm10.83-1.25V71.25h-1.55c-2.38,0-3.44.46-3.44,1.88,0,1,.66,1.62,2.05,1.62C141.64,74.75,142.9,73.79,142.9,72.31Z" fill="#fff"/><path d="M156,69.57l-5.38-8.48h6.8l2.67,4.55,2.61-4.55h6.07l-5.44,8,6,9.24h-6.8l-3.07-5.15-3.14,5.15h-6Z" fill="#fff"/><path d="M174.54,70c0-2.51,1.72-4.1,3.24-5.55,1.12-1.09,2.14-2.08,2.14-3.23a1.76,1.76,0,0,0-2-2c-1.42,0-2.38,1.08-2.61,2.9h-5.74c.17-5,3.73-7.69,8.81-7.69s8,2.28,8,6.2a6.72,6.72,0,0,1-2.41,5c-1.62,1.61-3.5,2.9-3.8,4.52v.49h-5.58Zm-.75,5.47a3.54,3.54,0,0,1,7.06,0,3.54,3.54,0,0,1-7.06,0Z" fill="#fff"/><path d="M21.26,105.86h6.43c.17,1.68.93,3.07,3.73,3.07,1.95,0,3-1,3-2.35s-.89-1.85-3.73-2.27c-6.67-.8-8.91-2.78-8.91-7.53,0-4.26,3.5-7.36,9.14-7.36s8.88,2.38,9.31,7.36H34a2.68,2.68,0,0,0-3-2.54c-1.81,0-2.74.82-2.74,2s.73,1.92,3.67,2.31c6,.66,9,2.21,9,7.33,0,4.32-3.43,7.85-9.51,7.85C24.82,113.74,21.46,111,21.26,105.86Z" fill="#fff"/><path d="M41.42,96.09h6.17l2.51,10.33L53,96.09h4.75l2.57,10.33,2.81-10.33h5.61l-5.48,17.26H57.63l-2.58-9.64-2.67,9.64H46.64Z" fill="#fff"/><path d="M70.13,91.4a3.26,3.26,0,1,1,3.24,3A3.09,3.09,0,0,1,70.13,91.4Zm.3,4.69h5.91v17.26H70.43Z" fill="#fff"/><path d="M80.3,107.8v-7.69H78.22v-4H80.3v-3.6h5.9v3.6h3.4v4H86.2v7.13c0,1.26.63,1.82,1.75,1.82a4.5,4.5,0,0,0,1.69-.3v4.49a12.42,12.42,0,0,1-3.27.49C82.47,113.74,80.3,111.86,80.3,107.8Z" fill="#fff"/><path d="M90.92,104.93v-.26c0-5.74,4.13-9,9.21-9,4.22,0,8.12,1.85,8.45,7.1H103c-.26-1.62-1-2.51-2.77-2.51-2.08,0-3.3,1.49-3.3,4.39v.27c0,3,1.16,4.55,3.4,4.55a2.87,2.87,0,0,0,3-2.87h5.32c-.17,4.36-3.1,7.19-8.68,7.19C94.85,113.74,90.92,110.74,90.92,104.93Z" fill="#fff"/><path d="M110.59,88.5h5.91V98.86a6.09,6.09,0,0,1,5.67-3.24c3.34,0,5.65,2.08,5.65,6.51v11.22h-5.91v-10c0-1.95-.76-2.91-2.48-2.91s-2.93,1.06-2.93,3.27v9.67h-5.91Z" fill="#fff"/><path d="M137.48,107.8v-7.69H135.4v-4h2.08v-3.6h5.91v3.6h3.4v4h-3.4v7.13c0,1.26.63,1.82,1.75,1.82a4.42,4.42,0,0,0,1.68-.3v4.49a12.33,12.33,0,0,1-3.26.49C139.66,113.74,137.48,111.86,137.48,107.8Z" fill="#fff"/><path d="M148.11,104.93v-.26c0-5.55,4.13-9,9.47-9S167,99,167,104.5v.27c0,5.61-4.13,9-9.44,9S148.11,110.51,148.11,104.93Zm12.87-.1v-.26c0-2.9-1.15-4.52-3.4-4.52s-3.43,1.55-3.43,4.45v.27c0,3,1.15,4.58,3.43,4.58S161,107.71,161,104.83Z" fill="#fff"/><path d="M175.6,89.75h10.53c5.57,0,8,2.51,8,6.17v.13a4.87,4.87,0,0,1-4,5.09c2.9.49,4.72,2.24,4.72,5.51v.13c0,4.23-2.74,6.57-8.58,6.57H175.6Zm9.17,9.37c2.12,0,2.91-.72,2.91-2.41v-.13c0-1.62-.86-2.34-2.91-2.34H182.2v4.88Zm.23,9.71c2.15,0,3.14-1,3.14-2.74V106c0-1.79-1-2.71-3.33-2.71H182.2v5.58Z" fill="#fff"/><path d="M197.15,88.5H203v24.85h-5.87Z" fill="#fff"/><path d="M205.26,104.93v-.26c0-5.55,4.13-9,9.48-9s9.4,3.4,9.4,8.88v.27c0,5.61-4.12,9-9.44,9S205.26,110.51,205.26,104.93Zm12.88-.1v-.26c0-2.9-1.16-4.52-3.4-4.52s-3.44,1.55-3.44,4.45v.27c0,3,1.16,4.58,3.44,4.58S218.14,107.71,218.14,104.83Z" fill="#fff"/><path d="M225.29,104.93v-.26c0-5.74,4.13-9,9.21-9,4.23,0,8.12,1.85,8.45,7.1h-5.54c-.27-1.62-1.06-2.51-2.78-2.51-2.07,0-3.3,1.49-3.3,4.39v.27c0,3,1.16,4.55,3.4,4.55a2.88,2.88,0,0,0,3-2.87h5.31c-.16,4.36-3.1,7.19-8.68,7.19C229.22,113.74,225.29,110.74,225.29,104.93Z" fill="#fff"/><path d="M245,88.5h5.91v14.42l4.65-6.83h6.14L256,103.84l6.1,9.51h-6.6l-4.65-7.56v7.56H245Z" fill="#fff"/><path d="M22.12,126.4a3.08,3.08,0,0,1,3.23-3.07,3.06,3.06,0,1,1,0,6.11A3.06,3.06,0,0,1,22.12,126.4Zm.29,4.69h5.91v17.26H22.41Z" fill="#fff"/><path d="M31.49,131.09H37.4v2.77a6.09,6.09,0,0,1,5.67-3.24c3.34,0,5.65,2.08,5.65,6.51v11.22H42.81v-10c0-1.95-.76-2.91-2.48-2.91s-2.93,1.06-2.93,3.27v9.67H31.49Z" fill="#fff"/><path d="M56.44,142.87h5.44c.2,1.25.76,1.95,2.44,1.95,1.46,0,2.12-.56,2.12-1.42s-.83-1.22-3.2-1.55c-4.63-.6-6.57-1.95-6.57-5.55,0-3.83,3.4-5.68,7.39-5.68,4.26,0,7.23,1.46,7.62,5.58H66.34a1.93,1.93,0,0,0-2.21-1.71c-1.29,0-1.95.56-1.95,1.35s.79,1.16,2.9,1.42c4.79.59,7.1,1.85,7.1,5.54,0,4.1-3,5.95-7.82,5.95S56.57,146.7,56.44,142.87Z" fill="#fff"/><path d="M73.27,139.93v-.26c0-5.55,4.12-9,9.34-9,4.72,0,8.78,2.71,8.78,8.92v1.55H79.24c.17,2.28,1.49,3.6,3.6,3.6,1.94,0,2.77-.9,3-2.05h5.55c-.53,3.89-3.54,6.11-8.75,6.11C77.23,148.75,73.27,145.58,73.27,139.93Zm12.37-2.18c-.1-2.08-1.12-3.23-3-3.23s-3,1.15-3.3,3.23Z" fill="#fff"/><path d="M92.5,139.93v-.26c0-5.74,4.13-9,9.21-9,4.23,0,8.12,1.85,8.45,7.1h-5.54c-.27-1.62-1.06-2.51-2.77-2.51-2.08,0-3.31,1.49-3.31,4.39v.27c0,3,1.16,4.55,3.4,4.55a2.88,2.88,0,0,0,3-2.87h5.31c-.16,4.36-3.1,7.2-8.68,7.2C96.43,148.75,92.5,145.74,92.5,139.93Z" fill="#fff"/><path d="M111.25,139.93v-.26c0-5.55,4.12-9,9.47-9s9.41,3.4,9.41,8.88v.27c0,5.61-4.13,9-9.44,9S111.25,145.51,111.25,139.93Zm12.87-.1v-.26c0-2.9-1.15-4.52-3.4-4.52s-3.43,1.55-3.43,4.45v.27c0,3,1.15,4.59,3.43,4.59S124.12,142.71,124.12,139.83Z" fill="#fff"/><path d="M132.2,131.09h5.91v2.77a6.11,6.11,0,0,1,5.68-3.24c3.33,0,5.64,2.08,5.64,6.51v11.22h-5.91v-10c0-1.95-.75-2.91-2.47-2.91s-2.94,1.06-2.94,3.27v9.67H132.2Z" fill="#fff"/><path d="M151.44,139.9v-.26c0-5.88,3.24-9,7.33-9a5.59,5.59,0,0,1,5.31,2.91v-10H170v24.85h-5.91v-2.81a5.81,5.81,0,0,1-5.38,3.21C154.71,148.75,151.44,145.87,151.44,139.9Zm12.81-.1v-.26c0-2.91-1.22-4.46-3.4-4.46s-3.4,1.49-3.4,4.49v.26c0,2.91,1.29,4.39,3.33,4.39S164.25,142.74,164.25,139.8Z" fill="#fff"/><path d="M171.84,142.87h5.44c.2,1.25.76,1.95,2.44,1.95,1.46,0,2.12-.56,2.12-1.42s-.83-1.22-3.21-1.55c-4.62-.6-6.56-1.95-6.56-5.55,0-3.83,3.4-5.68,7.39-5.68,4.26,0,7.23,1.46,7.62,5.58h-5.34a1.93,1.93,0,0,0-2.21-1.71c-1.29,0-1.95.56-1.95,1.35s.79,1.16,2.9,1.42c4.79.59,7.1,1.85,7.1,5.54,0,4.1-3,5.95-7.82,5.95S172,146.7,171.84,142.87Z" fill="#fff"/><path d="M189.26,145.38a3.3,3.3,0,0,1,3.37-3.34,3.34,3.34,0,1,1,0,6.67A3.29,3.29,0,0,1,189.26,145.38Z" fill="#fff"/></g></g></svg>