<?xml version="1.0" encoding="utf-8"?>
<!-- Generator: Adobe Illustrator 23.1.0, SVG Export Plug-In . SVG Version: 6.00 Build 0)  -->
<svg version="1.1" id="Layer_1" xmlns="http://www.w3.org/2000/svg" xmlns:xlink="http://www.w3.org/1999/xlink" x="0px" y="0px"
	 viewBox="0 0 301 251" style="enable-background:new 0 0 301 251;" xml:space="preserve">
<style type="text/css">
	.st0{fill:none;}
	.st1{fill:#FFFFFF;}
</style>
<title>Asset 4</title>
<g>
	<g id="Rect">
		<rect class="st0" width="300" height="250"/>
	</g>
	<g id="Tired_of_TurboTax_Switch_to_Block_in_seconds.">
		<path class="st1" d="M27.3,25h-6.1v-5.3h19V25h-6.1v18.3h-6.8V25z"/>
		<path class="st1" d="M41.7,21.4c0-1.7,1.4-3.1,3.1-3.1c0,0,0.1,0,0.1,0c1.7-0.1,3.1,1.2,3.2,2.9c0.1,1.7-1.2,3.1-2.9,3.2
			c-0.1,0-0.2,0-0.3,0c-1.7,0.1-3.1-1.2-3.2-2.9C41.7,21.5,41.7,21.5,41.7,21.4z M42,26.1h5.9v17.3H42V26.1z"/>
		<path class="st1" d="M51.1,26.1H57v3.4c0.8-2.3,3.1-3.9,5.6-3.7v5.5c-3.6-0.1-5.6,1-5.6,3.8v8.2h-5.9V26.1z"/>
		<path class="st1" d="M63.6,34.9v-0.3c0-5.5,4.1-9,9.3-9c4.7,0,8.8,2.7,8.8,8.9v1.5H69.6c0.2,2.3,1.5,3.6,3.6,3.6c2,0,2.8-0.9,3-2
			h5.6c-0.5,3.9-3.5,6.1-8.8,6.1C67.6,43.7,63.6,40.6,63.6,34.9z M76,32.8c-0.1-2.1-1.1-3.2-3-3.2s-3,1.1-3.3,3.2H76z"/>
		<path class="st1" d="M82.9,34.9v-0.3c0-5.9,3.2-9,7.3-9c2.2-0.2,4.3,1,5.3,2.9v-10h5.9v24.8h-5.9v-2.8c-1,2-3.1,3.3-5.4,3.2
			C86.2,43.7,82.9,40.9,82.9,34.9z M95.7,34.8v-0.3c0-2.9-1.2-4.5-3.4-4.5s-3.4,1.5-3.4,4.5v0.3c0,2.9,1.3,4.4,3.3,4.4
			S95.7,37.7,95.7,34.8z"/>
		<path class="st1" d="M109.5,34.9v-0.3c0-5.5,4.1-9,9.5-9s9.4,3.4,9.4,8.9v0.3c0,5.6-4.1,9-9.4,9S109.5,40.5,109.5,34.9z
			 M122.4,34.8v-0.3c0-2.9-1.2-4.5-3.4-4.5s-3.4,1.5-3.4,4.5v0.3c0,3,1.2,4.6,3.4,4.6S122.4,37.7,122.4,34.8z"/>
		<path class="st1" d="M131.4,30.1h-2.2v-4h2.2v-1.5c0-4.3,2.7-6.3,6.8-6.3c0.9,0,1.8,0.1,2.7,0.4v4.3c-0.5-0.2-1.1-0.2-1.6-0.2
			c-0.9-0.1-1.8,0.5-2,1.5c0,0.1,0,0.3,0,0.4v1.5h3.5v4h-3.5v13.3h-5.9L131.4,30.1z"/>
		<path class="st1" d="M27.3,60h-6.1v-5.3h19V60h-6.1v18.3h-6.8V60z"/>
		<path class="st1" d="M40.7,72.3V61.1h5.9v10.3c0,2,0.8,2.9,2.4,2.9S52,73.2,52,71v-9.9h5.9v17.3H52v-2.7c-1,2-3.2,3.2-5.5,3.1
			C43.2,78.7,40.7,76.7,40.7,72.3z"/>
		<path class="st1" d="M60.9,61.1h5.9v3.4c0.8-2.4,3.1-3.9,5.6-3.7v5.5c-3.6-0.1-5.6,1-5.6,3.8v8.2h-5.9V61.1z"/>
		<path class="st1" d="M80.5,75.7v2.7h-5.9V53.5h5.9v10.2c1.1-1.9,3.2-3,5.4-3c4,0,7.3,3,7.3,9v0.3c0,5.9-3.3,8.9-7.3,8.9
			C83.6,78.9,81.5,77.7,80.5,75.7z M87.1,69.8v-0.3c0-3-1.3-4.5-3.4-4.5s-3.4,1.6-3.4,4.5v0.3c0,2.9,1.3,4.4,3.4,4.4
			S87.1,72.7,87.1,69.8z"/>
		<path class="st1" d="M94.3,69.9v-0.3c0-5.6,4.1-9,9.5-9s9.4,3.4,9.4,8.9v0.3c0,5.6-4.1,9-9.4,9S94.3,75.5,94.3,69.9z M107.2,69.8
			v-0.3c0-2.9-1.2-4.5-3.4-4.5s-3.4,1.6-3.4,4.4v0.3c0,3,1.2,4.6,3.4,4.6S107.2,72.7,107.2,69.8z"/>
		<path class="st1" d="M120.4,60h-6.1v-5.3h19V60h-6.1v18.3h-6.8L120.4,60z"/>
		<path class="st1" d="M132.1,73.6c0-4.1,3.4-5.6,9.2-5.6h1.6v-0.4c0-1.7-0.4-2.7-2.3-2.7c-1.2-0.1-2.2,0.7-2.3,1.9c0,0,0,0.1,0,0.1
			h-5.6c0.3-4.2,3.5-6.2,8.3-6.2s7.8,2,7.8,6.5v11.2H143v-2c-0.8,1.3-2.3,2.4-5.1,2.4C134.8,78.7,132.1,77.2,132.1,73.6z
			 M142.9,72.3v-1.1h-1.6c-2.4,0-3.4,0.5-3.4,1.9c0,1,0.7,1.6,2.1,1.6C141.6,74.8,142.9,73.8,142.9,72.3L142.9,72.3z"/>
		<path class="st1" d="M156,69.6l-5.4-8.5h6.8l2.7,4.5l2.6-4.5h6.1l-5.4,8l6,9.2h-6.8l-3.1-5.2l-3.1,5.2h-6L156,69.6z"/>
		<path class="st1" d="M174.5,70c0-2.5,1.7-4.1,3.2-5.6c1.1-1.1,2.1-2.1,2.1-3.2c0.1-1-0.5-1.9-1.5-2c-0.2,0-0.3,0-0.5,0
			c-1.4,0-2.4,1.1-2.6,2.9h-5.7c0.2-5,3.7-7.7,8.8-7.7s8,2.3,8,6.2c0,1.9-0.9,3.8-2.4,5c-1.6,1.6-3.5,2.9-3.8,4.5v0.5h-5.6L174.5,70
			z M173.8,75.5c0.1-1.9,1.8-3.4,3.8-3.3c1.7,0.1,3.1,1.5,3.3,3.3c-0.1,1.9-1.8,3.4-3.8,3.3C175.3,78.6,173.9,77.2,173.8,75.5z"/>
		<path class="st1" d="M21.3,105.9h6.4c0.2,1.7,0.9,3.1,3.7,3.1c1.9,0,3-1,3-2.3s-0.9-1.8-3.7-2.3c-6.7-0.8-8.9-2.8-8.9-7.5
			c0-4.3,3.5-7.4,9.1-7.4s8.9,2.4,9.3,7.4H34c-0.1-1.5-1.3-2.6-2.8-2.6c-0.1,0-0.1,0-0.2,0c-1.8,0-2.7,0.8-2.7,2s0.7,1.9,3.7,2.3
			c6,0.7,9,2.2,9,7.3c0,4.3-3.4,7.8-9.5,7.8C24.8,113.7,21.5,111,21.3,105.9z"/>
		<path class="st1" d="M41.4,96.1h6.2l2.5,10.3L53,96.1h4.8l2.6,10.3l2.8-10.3h5.6l-5.5,17.3h-5.6l-2.6-9.6l-2.7,9.6h-5.7L41.4,96.1
			z"/>
		<path class="st1" d="M70.1,91.4c-0.1-1.8,1.2-3.4,3-3.5c1.8-0.1,3.4,1.2,3.5,3c0.1,1.8-1.2,3.4-3,3.5c-0.1,0-0.2,0-0.3,0
			C71.7,94.5,70.2,93.2,70.1,91.4C70.1,91.4,70.1,91.4,70.1,91.4z M70.4,96.1h5.9v17.3h-5.9V96.1z"/>
		<path class="st1" d="M80.3,107.8v-7.7h-2.1v-4h2.1v-3.6h5.9v3.6h3.4v4h-3.4v7.1c0,1.3,0.6,1.8,1.8,1.8c0.6,0,1.2-0.1,1.7-0.3v4.5
			c-1.1,0.3-2.2,0.5-3.3,0.5C82.5,113.7,80.3,111.9,80.3,107.8z"/>
		<path class="st1" d="M90.9,104.9v-0.3c0-5.7,4.1-9,9.2-9c4.2,0,8.1,1.8,8.4,7.1H103c-0.3-1.6-1-2.5-2.8-2.5
			c-2.1,0-3.3,1.5-3.3,4.4v0.3c0,3,1.2,4.6,3.4,4.6c1.6,0.1,2.9-1.2,3-2.7c0,0,0-0.1,0-0.1h5.3c-0.2,4.4-3.1,7.2-8.7,7.2
			C94.8,113.7,90.9,110.7,90.9,104.9z"/>
		<path class="st1" d="M110.6,88.5h5.9v10.4c1.1-2.1,3.3-3.4,5.7-3.2c3.3,0,5.7,2.1,5.7,6.5v11.2h-5.9v-10c0-1.9-0.8-2.9-2.5-2.9
			s-2.9,1.1-2.9,3.3v9.7h-5.9V88.5z"/>
		<path class="st1" d="M137.5,107.8v-7.7h-2.1v-4h2.1v-3.6h5.9v3.6h3.4v4h-3.4v7.1c0,1.3,0.6,1.8,1.8,1.8c0.6,0,1.1-0.1,1.7-0.3v4.5
			c-1.1,0.3-2.2,0.5-3.3,0.5C139.7,113.7,137.5,111.9,137.5,107.8z"/>
		<path class="st1" d="M148.1,104.9v-0.3c0-5.6,4.1-9,9.5-9s9.4,3.3,9.4,8.8v0.3c0,5.6-4.1,9-9.4,9S148.1,110.5,148.1,104.9z
			 M161,104.8v-0.3c0-2.9-1.1-4.5-3.4-4.5s-3.4,1.6-3.4,4.4v0.3c0,3,1.1,4.6,3.4,4.6S161,107.7,161,104.8L161,104.8z"/>
		<path class="st1" d="M175.6,89.8h10.5c5.6,0,8,2.5,8,6.2V96c0.2,2.5-1.6,4.7-4,5.1c2.9,0.5,4.7,2.2,4.7,5.5v0.1
			c0,4.2-2.7,6.6-8.6,6.6h-10.7V89.8z M184.8,99.1c2.1,0,2.9-0.7,2.9-2.4v-0.1c0-1.6-0.9-2.3-2.9-2.3h-2.6v4.9H184.8z M185,108.8
			c2.1,0,3.1-1,3.1-2.7V106c0-1.8-1-2.7-3.3-2.7h-2.6v5.6L185,108.8z"/>
		<path class="st1" d="M197.1,88.5h5.9v24.8h-5.9L197.1,88.5z"/>
		<path class="st1" d="M205.3,104.9v-0.3c0-5.6,4.1-9,9.5-9s9.4,3.4,9.4,8.9v0.3c0,5.6-4.1,9-9.4,9S205.3,110.5,205.3,104.9z
			 M218.1,104.8v-0.3c0-2.9-1.2-4.5-3.4-4.5s-3.4,1.6-3.4,4.4v0.3c0,3,1.2,4.6,3.4,4.6S218.1,107.7,218.1,104.8z"/>
		<path class="st1" d="M225.3,104.9v-0.3c0-5.7,4.1-9,9.2-9c4.2,0,8.1,1.8,8.4,7.1h-5.5c-0.3-1.6-1.1-2.5-2.8-2.5
			c-2.1,0-3.3,1.5-3.3,4.4v0.3c0,3,1.2,4.6,3.4,4.6c1.6,0.1,2.9-1.2,3-2.8c0,0,0-0.1,0-0.1h5.3c-0.2,4.4-3.1,7.2-8.7,7.2
			C229.2,113.7,225.3,110.7,225.3,104.9z"/>
		<path class="st1" d="M245,88.5h5.9v14.4l4.6-6.8h6.1l-5.7,7.8l6.1,9.5h-6.6l-4.6-7.6v7.6H245V88.5z"/>
		<path class="st1" d="M22.1,126.4c0-1.7,1.4-3.1,3.1-3.1c0,0,0.1,0,0.1,0c1.7-0.1,3.1,1.2,3.2,2.9c0.1,1.7-1.2,3.1-2.9,3.2
			c-0.1,0-0.2,0-0.3,0c-1.7,0.1-3.1-1.2-3.2-2.9C22.1,126.5,22.1,126.5,22.1,126.4z M22.4,131.1h5.9v17.3h-5.9L22.4,131.1z"/>
		<path class="st1" d="M31.5,131.1h5.9v2.8c1.1-2.1,3.3-3.4,5.7-3.2c3.3,0,5.7,2.1,5.7,6.5v11.2h-5.9v-10c0-1.9-0.8-2.9-2.5-2.9
			s-2.9,1.1-2.9,3.3v9.7h-5.9V131.1z"/>
		<path class="st1" d="M56.4,142.9h5.4c0.2,1.3,0.8,1.9,2.4,1.9c1.5,0,2.1-0.6,2.1-1.4s-0.8-1.2-3.2-1.6c-4.6-0.6-6.6-1.9-6.6-5.6
			c0-3.8,3.4-5.7,7.4-5.7c4.3,0,7.2,1.5,7.6,5.6h-5.3c-0.1-1.1-1.1-1.8-2.1-1.7c0,0-0.1,0-0.1,0c-1.3,0-2,0.6-2,1.4s0.8,1.2,2.9,1.4
			c4.8,0.6,7.1,1.9,7.1,5.5c0,4.1-3,5.9-7.8,5.9S56.6,146.7,56.4,142.9z"/>
		<path class="st1" d="M73.3,139.9v-0.3c0-5.6,4.1-9,9.3-9c4.7,0,8.8,2.7,8.8,8.9v1.6H79.2c0.2,2.3,1.5,3.6,3.6,3.6
			c1.9,0,2.8-0.9,3-2.1h5.6c-0.5,3.9-3.5,6.1-8.8,6.1C77.2,148.8,73.3,145.6,73.3,139.9z M85.6,137.8c-0.1-2.1-1.1-3.2-3-3.2
			s-3,1.1-3.3,3.2H85.6z"/>
		<path class="st1" d="M92.5,139.9v-0.3c0-5.7,4.1-9,9.2-9c4.2,0,8.1,1.9,8.4,7.1h-5.5c-0.3-1.6-1.1-2.5-2.8-2.5
			c-2.1,0-3.3,1.5-3.3,4.4v0.3c0,3,1.2,4.6,3.4,4.6c1.6,0.1,2.9-1.2,3-2.8c0,0,0-0.1,0-0.1h5.3c-0.2,4.4-3.1,7.2-8.7,7.2
			C96.4,148.8,92.5,145.7,92.5,139.9z"/>
		<path class="st1" d="M111.3,139.9v-0.3c0-5.6,4.1-9,9.5-9s9.4,3.4,9.4,8.9v0.3c0,5.6-4.1,9-9.4,9S111.3,145.5,111.3,139.9z
			 M124.1,139.8v-0.3c0-2.9-1.2-4.5-3.4-4.5s-3.4,1.6-3.4,4.4v0.3c0,3,1.2,4.6,3.4,4.6S124.1,142.7,124.1,139.8L124.1,139.8z"/>
		<path class="st1" d="M132.2,131.1h5.9v2.8c1.1-2.1,3.3-3.3,5.7-3.2c3.3,0,5.6,2.1,5.6,6.5v11.2h-5.9v-10c0-1.9-0.8-2.9-2.5-2.9
			s-2.9,1.1-2.9,3.3v9.7h-5.9V131.1z"/>
		<path class="st1" d="M151.4,139.9v-0.3c0-5.9,3.2-9,7.3-9c2.2-0.2,4.3,1,5.3,2.9v-10h5.9v24.9h-5.9v-2.8c-1,2-3.1,3.3-5.4,3.2
			C154.7,148.8,151.4,145.9,151.4,139.9z M164.3,139.8v-0.3c0-2.9-1.2-4.5-3.4-4.5s-3.4,1.5-3.4,4.5v0.3c0,2.9,1.3,4.4,3.3,4.4
			S164.3,142.7,164.3,139.8L164.3,139.8z"/>
		<path class="st1" d="M171.8,142.9h5.4c0.2,1.3,0.8,1.9,2.4,1.9c1.5,0,2.1-0.6,2.1-1.4s-0.8-1.2-3.2-1.6c-4.6-0.6-6.6-1.9-6.6-5.6
			c0-3.8,3.4-5.7,7.4-5.7c4.3,0,7.2,1.5,7.6,5.6h-5.3c-0.1-1.1-1.1-1.8-2.1-1.7c0,0-0.1,0-0.1,0c-1.3,0-1.9,0.6-1.9,1.4
			s0.8,1.2,2.9,1.4c4.8,0.6,7.1,1.9,7.1,5.5c0,4.1-3,5.9-7.8,5.9S172,146.7,171.8,142.9z"/>
		<path class="st1" d="M189.3,145.4c0-1.8,1.4-3.3,3.3-3.3c0,0,0.1,0,0.1,0c1.8-0.1,3.4,1.3,3.5,3.2s-1.3,3.4-3.2,3.5
			c-0.1,0-0.2,0-0.4,0c-1.8,0-3.3-1.4-3.4-3.2C189.3,145.5,189.3,145.4,189.3,145.4z"/>
	</g>
</g>
</svg>
