<?xml version="1.0" encoding="utf-8"?>
<!-- Generator: Adobe Illustrator 23.1.1, SVG Export Plug-In . SVG Version: 6.00 Build 0)  -->
<svg version="1.1" id="Layer_1" xmlns="http://www.w3.org/2000/svg" xmlns:xlink="http://www.w3.org/1999/xlink" x="0px" y="0px"
	 viewBox="0 0 600 500" style="enable-background:new 0 0 600 500;" xml:space="preserve">
<style type="text/css">
	.st0{fill:none;}
	.st1{fill:#FFFFFF;}
</style>
<title>H5</title>
<g>
	<g id="Rect">
		<rect class="st0" width="600" height="500"/>
	</g>
	<g id="H5">
		<g id="You_could_get_up_to_3_500_within_minutes_of_filing._0_interes">
			<path class="st1" d="M55.1,54L40.5,28.4h14L62,43.5l7.6-15.1H82L68,54v19.2H55.1V54z"/>
			<path class="st1" d="M77.2,57.2v-0.5c0-10.5,7.8-17.2,18-17.2s17.9,6.5,17.9,16.9v0.5c0,10.7-7.8,17.1-18,17.1
				S77.2,67.8,77.2,57.2z M101.7,57v-0.5c0-5.5-2.2-8.6-6.5-8.6s-6.5,2.9-6.5,8.5v0.5c0,5.7,2.2,8.7,6.5,8.7S101.7,62.5,101.7,57z"
				/>
			<path class="st1" d="M116.8,61.8V40.4H128V60c0,3.7,1.4,5.5,4.6,5.5s5.6-2,5.6-6.2V40.4h11.2v32.8h-11.2v-5.1
				c-2,3.9-6.1,6.2-10.4,5.9C121.5,74,116.8,70,116.8,61.8z"/>
			<path class="st1" d="M164.8,57.2v-0.5c0-10.9,7.8-17.2,17.5-17.2c8,0,15.4,3.5,16,13.5h-10.5c0-2.7-2.2-4.8-4.9-4.8
				c-0.1,0-0.2,0-0.4,0c-4,0-6.3,2.8-6.3,8.3v0.5c0,5.7,2.2,8.7,6.5,8.7c3,0.1,5.6-2.2,5.7-5.3c0-0.1,0-0.1,0-0.2h10.1
				C198.3,68.6,192.7,74,182,74C172.3,74,164.8,68.3,164.8,57.2z"/>
			<path class="st1" d="M200.4,57.2v-0.5c0-10.5,7.8-17.2,18-17.2s17.9,6.5,17.9,16.9v0.5c0,10.7-7.8,17.1-18,17.1
				S200.4,67.8,200.4,57.2z M224.9,57v-0.5c0-5.5-2.2-8.6-6.5-8.6s-6.4,2.9-6.4,8.5v0.5c0,5.7,2.2,8.7,6.5,8.7S224.9,62.5,224.9,57z
				"/>
			<path class="st1" d="M240,61.8V40.4h11.2V60c0,3.7,1.4,5.5,4.6,5.5s5.6-2,5.6-6.2V40.4h11.2v32.8h-11.2v-5.1
				c-2,3.9-6.1,6.2-10.4,5.9C244.7,74,240,70,240,61.8z"/>
			<path class="st1" d="M278.7,26h11.2v47.2h-11.2V26z"/>
			<path class="st1" d="M294.2,57.2v-0.5c0-11.2,6.2-17.1,14-17.1c4.1-0.3,8,1.9,10,5.5V26h11.2v47.2h-11.2v-5.3
				c-1.9,3.9-5.9,6.3-10.2,6.1C300.5,74,294.2,68.5,294.2,57.2z M318.6,57v-0.5c0-5.5-2.3-8.5-6.5-8.5s-6.5,2.8-6.5,8.5V57
				c0,5.5,2.4,8.3,6.3,8.3S318.6,62.6,318.6,57z"/>
			<path class="st1" d="M344.8,73.2H356c0.5,2.4,2,4.3,6,4.3c5,0,7-2.8,7-6.9v-5c-2,3.7-5.9,6-10.2,6c-7.6,0-14-5.6-14-15.7v-0.5
				c0-9.7,6.2-15.8,14-15.8c4.2-0.3,8.2,1.8,10.2,5.5v-4.6h11.2v30c0,9.8-6.5,14.9-18.2,14.9C350.8,85.4,345.7,80.7,344.8,73.2z
				 M369.2,55.8v-0.4c0-4.5-2.3-7.4-6.5-7.4s-6.5,2.9-6.5,7.5V56c0,4.5,2.4,7.4,6.4,7.4S369.2,60.4,369.2,55.8z"/>
			<path class="st1" d="M384.1,57.2v-0.5c0-10.5,7.8-17.2,17.7-17.2c9,0,16.7,5.1,16.7,16.9v3h-23.1c0.3,4.3,2.8,6.8,6.8,6.8
				c3.7,0,5.3-1.7,5.7-4h10.5c-1,7.4-6.7,11.6-16.6,11.6C391.6,74,384.1,68,384.1,57.2z M407.6,53.1c-0.2-4-2.1-6.1-5.8-6.1
				s-5.7,2.2-6.3,6.1H407.6z"/>
			<path class="st1" d="M424,62.7V48h-4v-7.6h4v-6.8h11.2v6.8h6.5V48h-6.5v13.6c0,2.4,1.2,3.4,3.3,3.4c1.1,0,2.2-0.2,3.2-0.6V73
				c-2,0.6-4.1,0.9-6.2,0.9C428,74,424,70.4,424,62.7z"/>
			<path class="st1" d="M457,61.8V40.4h11.2V60c0,3.7,1.4,5.5,4.6,5.5s5.6-2,5.6-6.2V40.4h11.2v32.8h-11.2v-5.1
				c-2,3.9-6.1,6.2-10.5,5.9C461.7,74,457,70,457,61.8z"/>
			<path class="st1" d="M495.4,40.4h11.2v4.9c2.1-3.6,6-5.8,10.2-5.8c7.6,0,13.9,5.8,13.9,17V57c0,11.3-6.2,16.9-14,16.9
				c-4.2,0.3-8.1-1.9-10.2-5.6v15.8h-11.2L495.4,40.4z M519.3,57v-0.5c0-5.8-2.5-8.5-6.5-8.5s-6.5,2.9-6.5,8.5V57
				c0,5.6,2.4,8.4,6.5,8.4C516.9,65.4,519.3,62.4,519.3,57z"/>
			<path class="st1" d="M44.8,129.4v-14.6h-4v-7.6h4v-6.8H56v6.8h6.5v7.6H56v13.6c0,2.4,1.2,3.4,3.3,3.4c1.1,0,2.2-0.2,3.2-0.6v8.5
				c-2,0.6-4.1,0.9-6.2,0.9C49,140.7,44.8,137.1,44.8,129.4z"/>
			<path class="st1" d="M65,124v-0.5c0-10.5,7.8-17.2,18-17.2s17.9,6.5,17.9,16.9v0.5c0,10.7-7.8,17.1-18,17.1S65,134.5,65,124z
				 M89.5,123.8v-0.5c0-5.5-2.2-8.6-6.5-8.6s-6.5,2.9-6.5,8.5v0.5c0,5.7,2.2,8.7,6.5,8.7S89.5,129.2,89.5,123.8L89.5,123.8z"/>
			<path class="st1" d="M123.4,119.4c-6.3-0.4-9.4-3.8-9.6-8.6h6.8c0,1.7,1.2,3.1,2.9,3.4v-5.3c-6.4-0.9-9.1-3.2-9.1-8.3
				c0-4.4,3.5-7.6,9.1-8v-3.3h2.9v3.3c5.3,0.4,8.4,2.9,8.9,8h-6.6c0-1.3-1-2.4-2.3-2.7v4.9c5.6,0.8,9.2,2.7,9.2,8
				c0,4.5-2.9,8.2-9.2,8.6v4.6h-2.9V119.4z M123.4,102.4v-4.7c-1.6,0.3-2.5,1.2-2.5,2.3S121.5,102,123.4,102.4z M126.3,109.3v4.9
				c1.4-0.1,2.4-1.2,2.4-2.6C128.7,110.4,128.2,109.8,126.3,109.3z"/>
			<path class="st1" d="M137.8,125.2h11.4c0.4,3.7,2.1,6.2,6.6,6.2c4,0,5.9-1.9,5.9-5.1s-1.9-5.3-5.9-5.3h-3.6v-8h3.3c4,0,6-1.8,6-5
				c0-2.7-1.8-4.5-5.1-4.5s-5.5,2-6,5.7H139c0.6-8.9,6.5-14.9,17.6-14.9c10.5,0,16.9,4.8,16.9,12.3c0.2,4.6-3,8.7-7.5,9.7
				c5.1,0.7,8.8,5.1,8.7,10.2c0,8.5-6.3,14-18.2,14C144,140.7,138.2,134.9,137.8,125.2z"/>
			<path class="st1" d="M175.7,145l5.3-16.5l10.4,3.7l-9,15.4L175.7,145z"/>
			<path class="st1" d="M193.5,125.8h11.7c0.4,3.1,1.7,5.2,5.8,5.2c3.7,0,5.4-2.8,5.4-6.3c0-4-2.2-6.4-6-6.4c-2.8-0.1-5.6,1-7.4,3.2
				h-7.7l0.9-26.4h30.2v9.4h-20.9l-0.3,9.9c2.5-3.3,6.4-5.1,10.5-4.8c8.2,0,13.6,5.5,13.6,15.2s-6.8,15.8-18.2,15.8
				C199.2,140.7,193.8,134.2,193.5,125.8z"/>
			<path class="st1" d="M232.4,118.5v-1.9c0-14.2,8.8-22.1,20.7-22.1s20.7,7.3,20.7,22v1.6c0,14.2-8.2,22.6-20.9,22.6
				S232.4,132.6,232.4,118.5z M260.9,118.3v-1.8c0-8.2-2.4-12.4-7.8-12.4s-7.8,4-7.8,12.4v1.9c0,8.3,2.5,12.3,8,12.3
				C258.8,130.7,260.9,126.6,260.9,118.3L260.9,118.3z"/>
			<path class="st1" d="M277.3,118.5v-1.9c0-14.2,8.9-22.1,20.7-22.1s20.7,7.3,20.7,22v1.6c0,14.2-8.2,22.6-20.9,22.6
				S277.3,132.6,277.3,118.5z M305.9,118.3v-1.8c0-8.2-2.4-12.4-7.8-12.4s-7.8,4-7.8,12.4v1.9c0,8.3,2.4,12.3,8,12.3
				S305.9,126.6,305.9,118.3z"/>
			<path class="st1" d="M332,107.1h11.7l4.8,19.6l5.5-19.6h9l5,19.6l5.3-19.6H384L373.5,140h-10.7l-4.8-18.4l-5.2,18.4H342
				L332,107.1z"/>
			<path class="st1" d="M386.6,98.2c0-3.2,2.6-5.8,5.9-5.8c0.1,0,0.2,0,0.3,0c3.2-0.3,6,2.1,6.3,5.3c0.3,3.2-2.1,6-5.3,6.3
				c-0.3,0-0.6,0-1,0c-3.2,0.2-5.9-2.3-6.1-5.5C386.6,98.4,386.6,98.3,386.6,98.2z M387.1,107.1h11.2V140h-11.2V107.1z"/>
			<path class="st1" d="M405.9,129.4v-14.6h-4v-7.6h4v-6.8h11.2v6.8h6.5v7.6h-6.5v13.6c-0.3,1.6,0.9,3.2,2.5,3.4c0.3,0,0.6,0,0.8,0
				c1.1,0,2.2-0.2,3.2-0.6v8.5c-2,0.6-4.1,0.9-6.2,0.9C410,140.7,405.9,137.1,405.9,129.4z"/>
			<path class="st1" d="M427.8,92.7h11.2v19.7c2.1-4,6.3-6.4,10.8-6.1c6.3,0,10.7,4,10.7,12.3V140h-11.2v-19.2
				c0-3.7-1.4-5.5-4.7-5.5s-5.6,2-5.6,6.2V140h-11.2V92.7z"/>
			<path class="st1" d="M465.8,98.2c-0.2-3.4,2.4-6.4,5.8-6.6c3.4-0.2,6.4,2.4,6.6,5.8c0.2,3.4-2.4,6.4-5.8,6.6c-0.1,0-0.2,0-0.3,0
				c-3.2,0.2-6-2.2-6.2-5.5C465.8,98.4,465.8,98.3,465.8,98.2z M466.3,107.1h11.2V140h-11.2V107.1z"/>
			<path class="st1" d="M483.6,107.1h11.2v5.3c2.1-4,6.3-6.4,10.8-6.1c6.3,0,10.7,4,10.7,12.3V140h-11.2v-19.2
				c0-3.7-1.4-5.5-4.7-5.5s-5.6,2-5.6,6.2V140h-11.2V107.1z"/>
			<path class="st1" d="M43.3,173.8h11.2v5c2-3.8,6-6.1,10.3-6c3.8-0.3,7.4,1.9,8.9,5.5c2.5-3.5,6.5-5.5,10.8-5.5
				c6.2,0,10.7,4,10.7,12.2v21.5H84V187c0-3.3-1.6-4.9-4.2-4.9c-3,0-5,2-5,5.5v19h-11V187c0-3.3-1.6-4.9-4.2-4.9c-3,0-5,2-5,5.5v19
				H43.3V173.8z"/>
			<path class="st1" d="M100.5,164.9c-0.2-3.4,2.3-6.4,5.8-6.6c3.4-0.2,6.4,2.3,6.6,5.8c0.2,3.4-2.3,6.4-5.8,6.6c-0.1,0-0.3,0-0.4,0
				c-3.2,0.2-6-2.3-6.2-5.6C100.5,165.1,100.5,165,100.5,164.9z M101.1,173.8h11.2v32.8h-11.2V173.8z"/>
			<path class="st1" d="M118.3,173.8h11.2v5.3c2.1-4,6.3-6.4,10.8-6.1c6.3,0,10.7,4,10.7,12.4v21.3h-11.2v-19.1
				c0-3.7-1.4-5.5-4.7-5.5s-5.6,2-5.6,6.2v18.4h-11.2V173.8z"/>
			<path class="st1" d="M156.2,195.2v-21.4h11.2v19.6c0,3.7,1.4,5.5,4.6,5.5s5.6-2,5.6-6.2v-18.9h11.2v32.8h-11.2v-5.1
				c-2,3.9-6.1,6.1-10.4,5.8C160.9,207.4,156.2,203.5,156.2,195.2z"/>
			<path class="st1" d="M196.1,196v-14.5h-4v-7.6h4V167h11.2v6.8h6.5v7.6h-6.5V195c-0.3,1.6,0.9,3.2,2.5,3.4c0.3,0,0.6,0,0.8,0
				c1.1,0,2.2-0.2,3.2-0.6v8.5c-2,0.6-4.1,0.9-6.2,0.9C200.3,207.4,196.1,203.8,196.1,196z"/>
			<path class="st1" d="M216.3,190.6v-0.5c0-10.5,7.8-17.2,17.7-17.2c9,0,16.7,5.1,16.7,16.9v3h-23.1c0.3,4.3,2.8,6.8,6.8,6.8
				c3.7,0,5.3-1.7,5.7-4h10.5c-1,7.4-6.7,11.6-16.6,11.6C223.8,207.4,216.3,201.3,216.3,190.6z M239.8,186.5c-0.2-4-2.1-6.1-5.8-6.1
				s-5.7,2.2-6.3,6.1H239.8z"/>
			<path class="st1" d="M252.7,196.2h10.3c0.4,2.4,1.4,3.7,4.6,3.7c2.8,0,4-1.1,4-2.7s-1.6-2.3-6-2.9c-8.8-1.1-12.5-3.7-12.5-10.5
				c0-7.3,6.5-10.8,14-10.8c8,0,13.7,2.8,14.5,10.6h-10.2c-0.2-2-2-3.5-4-3.3c-0.1,0-0.1,0-0.2,0c-2.5,0-3.7,1.1-3.7,2.6
				s1.5,2.2,5.5,2.7c9.1,1.1,13.5,3.5,13.5,10.5c0,7.8-5.8,11.3-14.9,11.3S253,203.5,252.7,196.2z"/>
			<path class="st1" d="M296,190.6v-0.5c0-10.5,7.8-17.2,18-17.2s17.9,6.5,17.9,16.9v0.5c0,10.7-7.8,17.1-18,17.1
				S296,201.2,296,190.6z M320.5,190.4V190c0-5.5-2.2-8.6-6.5-8.6s-6.5,2.9-6.5,8.5v0.5c0,5.7,2.2,8.7,6.5,8.7
				S320.4,195.9,320.5,190.4L320.5,190.4z"/>
			<path class="st1" d="M337.4,181.5h-4.1v-7.6h4.1v-2.9c0-8.1,5.1-12,12.9-12c1.7,0,3.5,0.2,5.1,0.7v8.2c-1-0.3-2-0.5-3.1-0.4
				c-1.8-0.3-3.5,1-3.8,2.8c0,0.3,0,0.5,0,0.8v2.9h6.7v7.6h-6.7v25.2h-11.2V181.5z"/>
			<path class="st1" d="M372.1,181.5H368v-7.6h4.1v-2.9c0-8.1,5.1-12,12.9-12c1.7,0,3.5,0.2,5.1,0.7v8.2c-1-0.3-2-0.5-3.1-0.4
				c-1.8-0.3-3.5,1-3.7,2.8c0,0.3,0,0.5,0,0.8v2.9h6.7v7.6h-6.6v25.2h-11.2L372.1,181.5z"/>
			<path class="st1" d="M393.4,164.9c-0.2-3.4,2.4-6.3,5.8-6.6c3.4-0.2,6.3,2.4,6.6,5.8c0.2,3.4-2.4,6.3-5.8,6.6c-0.1,0-0.3,0-0.4,0
				c-3.2,0.2-6-2.3-6.1-5.5C393.4,165.1,393.4,165,393.4,164.9z M394,173.8h11.2v32.8H394V173.8z"/>
			<path class="st1" d="M411.6,159.4h11.2v47.2h-11.2V159.4z"/>
			<path class="st1" d="M428.5,164.9c-0.2-3.4,2.3-6.4,5.8-6.6c3.4-0.2,6.4,2.3,6.6,5.8c0.2,3.4-2.3,6.4-5.8,6.6c-0.2,0-0.3,0-0.5,0
				c-3.2,0.2-6-2.3-6.1-5.6C428.5,165,428.5,165,428.5,164.9z M429,173.8h11.2v32.8H429V173.8z"/>
			<path class="st1" d="M446.3,173.8h11.2v5.3c2.1-4,6.3-6.4,10.8-6.1c6.3,0,10.7,4,10.7,12.4v21.3h-11.2v-19.1
				c0-3.7-1.4-5.5-4.7-5.5s-5.6,2-5.6,6.2v18.4h-11.2V173.8z"/>
			<path class="st1" d="M482.7,206.6h11.2c0.5,2.4,2,4.3,6,4.3c5,0,7-2.8,7-6.9v-5c-2,3.7-5.9,6-10.2,6c-7.7,0-14-5.6-14-15.7v-0.5
				c0-9.7,6.2-15.8,14-15.8c4.2-0.3,8.2,1.8,10.2,5.5v-4.6H518v30c0,9.8-6.5,14.9-18.2,14.9C488.7,218.8,483.5,214,482.7,206.6z
				 M507.1,189.2v-0.4c0-4.5-2.3-7.4-6.5-7.4s-6.5,2.9-6.5,7.5v0.5c0,4.5,2.4,7.4,6.4,7.4S507.1,193.8,507.1,189.2z"/>
			<path class="st1" d="M523.3,201c0-3.5,2.7-6.3,6.2-6.3c0.1,0,0.1,0,0.2,0c3.5-0.2,6.5,2.5,6.7,6c0.2,3.5-2.5,6.5-6,6.7
				c-0.2,0-0.5,0-0.7,0c-3.5,0.1-6.3-2.7-6.4-6.1C523.3,201.1,523.3,201,523.3,201z"/>
			<path class="st1" d="M42.3,251.9V250c0-14.2,8.8-22.1,20.7-22.1s20.7,7.3,20.7,22v1.7c0,14.2-8.1,22.6-20.9,22.6
				S42.3,266,42.3,251.9z M70.8,251.7V250c0-8.2-2.4-12.4-7.8-12.4s-7.8,4-7.8,12.4v1.9c0,8.3,2.4,12.3,8,12.3S70.8,260,70.8,251.7z
				"/>
			<path class="st1" d="M86,239.1c0.1-6.2,5.2-11.2,11.4-11.2c0.2,0,0.4,0,0.6,0c6.7,0,11.9,4.6,11.9,11c0.2,6.2-4.7,11.4-10.9,11.6
				c-0.4,0-0.7,0-1.1,0C90.5,250.5,86,245.6,86,239.1z M122.9,228.5h6.1L98,273.3h-6L122.9,228.5z M101.5,239.1c0-3-1.3-4.8-3.6-4.8
				s-3.7,1.8-3.7,4.7s1.5,4.9,3.8,4.9S101.6,242,101.5,239.1L101.5,239.1z M111,262.7c0.1-6.2,5.2-11.2,11.4-11.2c0.2,0,0.4,0,0.6,0
				c6.8,0,11.9,4.5,11.9,11c0.2,6.2-4.7,11.4-10.9,11.6c-0.4,0-0.7,0-1.1,0C115.5,274,111,269.2,111,262.7L111,262.7z M126.5,262.7
				c0-2.9-1.3-4.7-3.6-4.7s-3.6,1.8-3.6,4.7s1.4,4.8,3.6,4.8S126.6,265.7,126.5,262.7L126.5,262.7z"/>
			<path class="st1" d="M150,231.6c-0.2-3.4,2.4-6.3,5.8-6.6c3.4-0.2,6.3,2.4,6.6,5.8c0.2,3.4-2.4,6.3-5.8,6.6c-0.2,0-0.4,0-0.6,0
				c-3.2,0.1-5.9-2.5-6-5.7C150,231.7,150,231.6,150,231.6z M150.6,240.5h11.2v32.8h-11.3L150.6,240.5z"/>
			<path class="st1" d="M167.7,240.5h11.2v5.3c2.1-4,6.3-6.4,10.8-6.1c6.3,0,10.7,4,10.7,12.4v21.3h-11.2v-19.1
				c0-3.7-1.5-5.5-4.7-5.5s-5.6,2-5.6,6.2v18.4h-11.2V240.5z"/>
			<path class="st1" d="M207.4,262.8v-14.6h-4v-7.6h4v-6.8h11.2v6.8h6.5v7.6h-6.5v13.6c0,2.4,1.2,3.4,3.3,3.4c1.1,0,2.2-0.2,3.2-0.6
				v8.5c-2,0.6-4.1,0.9-6.2,0.9C211.5,274,207.4,270.5,207.4,262.8z"/>
			<path class="st1" d="M227.6,257.3v-0.5c0-10.5,7.8-17.2,17.7-17.2c9,0,16.7,5.1,16.7,16.9v3h-23.1c0.3,4.3,2.8,6.8,6.8,6.8
				c3.7,0,5.3-1.7,5.7-4H262c-1,7.4-6.7,11.6-16.6,11.6C235.1,274,227.6,268,227.6,257.3z M251.1,253.2c-0.2-4-2.1-6.1-5.8-6.1
				s-5.7,2.2-6.3,6.1H251.1z"/>
			<path class="st1" d="M266,240.5h11.2v6.5c1.5-4.5,5.9-7.3,10.6-7v10.5c-6.8-0.2-10.6,2-10.6,7.2v15.6H266V240.5z"/>
			<path class="st1" d="M289.7,257.3v-0.5c0-10.5,7.8-17.2,17.7-17.2c9,0,16.7,5.1,16.7,16.9v3h-23.1c0.3,4.3,2.8,6.8,6.8,6.8
				c3.7,0,5.3-1.7,5.7-4h10.5c-1,7.4-6.7,11.6-16.6,11.6C297.3,274,289.7,268,289.7,257.3z M313.2,253.2c-0.2-4-2.1-6.1-5.8-6.1
				s-5.7,2.2-6.3,6.1H313.2z"/>
			<path class="st1" d="M326.2,262.9h10.3c0.4,2.4,1.5,3.7,4.6,3.7c2.8,0,4-1.1,4-2.7s-1.6-2.3-6-2.9c-8.8-1.1-12.5-3.7-12.5-10.5
				c0-7.3,6.5-10.8,14-10.8c8.1,0,13.7,2.8,14.5,10.6H345c-0.2-2-2-3.5-4-3.3c-0.1,0-0.1,0-0.2,0c-2.5,0-3.7,1.1-3.7,2.6
				s1.5,2.2,5.5,2.7c9.1,1.1,13.5,3.5,13.5,10.5c0,7.8-5.8,11.3-14.9,11.3S326.4,270.2,326.2,262.9z"/>
			<path class="st1" d="M361.2,262.8v-14.6h-4v-7.6h4v-6.8h11.2v6.8h6.5v7.6h-6.5v13.6c0,2.4,1.2,3.4,3.3,3.4c1.1,0,2.2-0.2,3.2-0.6
				v8.5c-2,0.6-4.1,0.9-6.2,0.9C365.3,274,361.2,270.5,361.2,262.8z"/>
			<path class="st1" d="M394.9,226H406v47.2h-11.2L394.9,226z"/>
			<path class="st1" d="M410.3,257.3v-0.5c0-10.5,7.8-17.2,18-17.2s17.9,6.5,17.9,16.9v0.5c0,10.7-7.8,17.1-18,17.1
				S410.3,268,410.3,257.3z M434.8,257.1v-0.5c0-5.5-2.2-8.6-6.5-8.6s-6.5,2.9-6.5,8.5v0.5c0,5.7,2.2,8.7,6.5,8.7
				S434.8,262.6,434.8,257.1L434.8,257.1z"/>
			<path class="st1" d="M448.2,264.2c0-7.7,6.5-10.7,17.4-10.7h3.1v-0.8c0-3.1-0.7-5.2-4.3-5.2c-2.2-0.3-4.2,1.3-4.4,3.5
				c0,0.1,0,0.2,0,0.4h-10.5c0.5-7.9,6.7-11.8,15.7-11.8s14.8,3.7,14.8,12.4v21.3h-10.9v-3.8c-2.2,3.1-5.9,4.9-9.7,4.6
				C453.4,274,448.2,271.2,448.2,264.2z M468.8,261.8v-2h-2.9c-4.5,0-6.5,0.9-6.5,3.6c0,1.9,1.2,3.1,3.9,3.1
				C466.4,266.5,468.8,264.7,468.8,261.8z"/>
			<path class="st1" d="M485.4,240.5h11.2v5.3c2.1-4,6.3-6.3,10.8-6.1c6.3,0,10.7,4,10.7,12.4v21.3h-11.2v-19.1
				c0-3.7-1.4-5.5-4.7-5.5s-5.6,2-5.6,6.2v18.4h-11.2L485.4,240.5z"/>
			<path class="st1" d="M523.2,267.7c0-3.5,2.7-6.3,6.2-6.3c0.1,0,0.1,0,0.2,0c3.5-0.2,6.5,2.5,6.7,6c0.2,3.5-2.5,6.5-6,6.7
				c-0.2,0-0.5,0-0.7,0c-3.5,0.1-6.3-2.7-6.4-6.1C523.2,267.8,523.2,267.7,523.2,267.7z"/>
		</g>
	</g>
	<g id="Legal">
		<g id="Optional_loan_from_Axos_Bank_within_minutes_of_filing._Not_your">
			<path class="st1" d="M41,307.6v-0.1c-0.2-3.5,2.5-6.5,6-6.7s6.5,2.5,6.7,6c0,0.2,0,0.5,0,0.7v0.1c0.2,3.5-2.5,6.5-6,6.7
				s-6.5-2.5-6.7-6C41,308,41,307.8,41,307.6z M52,307.6v-0.1c0.3-2.6-1.6-4.9-4.2-5.2s-4.9,1.6-5.2,4.2c0,0.4,0,0.7,0,1.1v0.1
				c-0.2,2.7,1.8,5,4.4,5.2c0.1,0,0.2,0,0.3,0c2.6,0,4.7-2.1,4.7-4.7C52,307.9,52,307.7,52,307.6L52,307.6z"/>
			<path class="st1" d="M55.8,304.5h1.5v1.5c0.7-1.1,1.9-1.7,3.2-1.7c2.4,0,4.3,1.9,4.3,4.3c0,0.2,0,0.3,0,0.5v0.1
				c0.3,2.4-1.4,4.5-3.8,4.8c-0.2,0-0.3,0-0.5,0c-1.3,0-2.5-0.6-3.2-1.7v4.8h-1.5V304.5z M63.3,309.3v-0.1c0-2.4-1.3-3.6-2.9-3.6
				s-3.1,1.2-3.1,3.6v0.1c0,2.4,1.3,3.6,3.1,3.6S63.3,311.6,63.3,309.3z"/>
			<path class="st1" d="M67.2,311.6v-5.8h-1.3v-1.3h1.3v-2.1h1.5v2.1h2.2v1.3h-2.2v5.7c0,0.9,0.4,1.4,1.2,1.4c0.4,0,0.8-0.1,1.2-0.2
				v1.3c-0.4,0.1-0.8,0.2-1.3,0.2c-1.3,0.1-2.4-0.7-2.5-2C67.2,311.9,67.2,311.7,67.2,311.6z"/>
			<path class="st1" d="M72.7,301.5c0-0.5,0.5-1,1-1c0.5,0,1,0.4,1,1l0,0c0,0.5-0.4,1-1,1C73.2,302.5,72.8,302.1,72.7,301.5z
				 M73,304.5h1.5v9.5H73V304.5z"/>
			<path class="st1" d="M76.6,309.3v-0.1c0-2.6,2.1-4.6,4.6-4.6c2.6,0,4.6,2.1,4.6,4.6c0,0,0,0,0,0v0.1c0,2.6-2.1,4.6-4.6,4.6
				C78.7,313.9,76.6,311.8,76.6,309.3C76.6,309.3,76.6,309.3,76.6,309.3z M84.3,309.3v-0.1c0-2.2-1.2-3.6-3.1-3.6
				c-1.7,0-3.1,1.4-3.1,3.1c0,0.1,0,0.3,0,0.4v0.1c0,2.1,1.2,3.6,3.1,3.6S84.3,311.4,84.3,309.3z"/>
			<path class="st1" d="M88,304.5h1.5v1.5c0.6-1.1,1.8-1.7,3-1.7c2,0,3.3,1.1,3.3,3.8v5.9h-1.5v-6c0-1.7-0.7-2.4-2.2-2.4
				c-1.4-0.1-2.5,0.9-2.6,2.3c0,0.1,0,0.2,0,0.3v5.8H88V304.5z"/>
			<path class="st1" d="M97.6,311.3c0-2.2,2.3-2.9,4.7-2.9h1.3v-0.7c0-1.5-0.6-2.1-2-2.1s-2,0.5-2.2,1.7H98c0.2-1.8,1.8-3.1,3.6-2.9
				c0,0,0.1,0,0.1,0c1.7-0.2,3.2,0.9,3.4,2.6c0,0.3,0,0.5,0,0.8v6.3h-1.5v-1.2c-0.7,0.9-1.8,1.4-2.9,1.4
				C99,314,97.6,313.2,97.6,311.3z M103.6,310.6v-1.2h-1.3c-1.9,0-3.3,0.5-3.3,1.9c0,1,0.5,1.6,1.8,1.6S103.7,312,103.6,310.6
				L103.6,310.6z"/>
			<path class="st1" d="M107.9,300h1.5v14h-1.5V300z"/>
			<path class="st1" d="M116.7,300h1.5v14h-1.5V300z"/>
			<path class="st1" d="M120.3,309.3v-0.1c-0.2-2.6,1.8-4.8,4.3-4.9c2.6-0.2,4.8,1.8,4.9,4.3c0,0.2,0,0.4,0,0.6v0.1
				c0.2,2.6-1.8,4.8-4.3,4.9c-2.6,0.2-4.8-1.8-4.9-4.3C120.3,309.7,120.3,309.5,120.3,309.3z M128,309.3v-0.1c0-2.2-1.2-3.6-3.1-3.6
				c-1.7,0-3.1,1.4-3.1,3.1c0,0.1,0,0.3,0,0.4v0.1c0,2.1,1.2,3.6,3.1,3.6S128,311.4,128,309.3L128,309.3z"/>
			<path class="st1" d="M130.8,311.3c0-2.2,2.3-2.9,4.7-2.9h1.4v-0.7c0-1.5-0.6-2.1-2-2.1s-2,0.5-2.2,1.7h-1.5
				c0.2-1.8,1.8-3.1,3.6-2.9c0,0,0.1,0,0.1,0c1.7-0.2,3.2,0.9,3.4,2.6c0,0.3,0,0.5,0,0.8v6.3h-1.5v-1.2c-0.7,0.9-1.8,1.3-2.9,1.2
				C132.2,314,130.8,313.2,130.8,311.3z M136.8,310.6v-1.2h-1.3c-2,0-3.3,0.5-3.3,1.9c0,1,0.5,1.6,1.8,1.6S136.9,312,136.8,310.6
				L136.8,310.6z"/>
			<path class="st1" d="M141.1,304.5h1.5v1.5c0.6-1.1,1.8-1.7,3-1.7c2,0,3.3,1.1,3.3,3.8v5.9h-1.5v-6c0-1.7-0.7-2.4-2.2-2.4
				c-1.4-0.1-2.5,0.9-2.6,2.3c0,0.1,0,0.2,0,0.2v5.8h-1.5V304.5z"/>
			<path class="st1" d="M156.4,305.8H155v-1.3h1.3V303c0-1.9,0.9-3,2.8-3c0.4,0,0.8,0.1,1.1,0.2v1.3c-0.3-0.1-0.7-0.2-1.1-0.2
				c-1,0-1.4,0.7-1.4,1.6v1.7h2.3v1.3h-2.3v8.2h-1.5V305.8z"/>
			<path class="st1" d="M162,304.5h1.5v1.7c0.6-1.2,1.8-1.9,3.1-1.8v1.4c-2,0-3.1,0.7-3.1,3v5.3H162V304.5z"/>
			<path class="st1" d="M167.5,309.3v-0.1c-0.2-2.6,1.8-4.8,4.3-4.9c2.6-0.2,4.8,1.8,4.9,4.3c0,0.2,0,0.4,0,0.6v0.1
				c0.2,2.6-1.8,4.8-4.3,4.9c-2.6,0.2-4.8-1.8-4.9-4.3C167.5,309.7,167.5,309.5,167.5,309.3z M175.3,309.3v-0.1
				c0-2.2-1.2-3.6-3.1-3.6s-3.1,1.4-3.1,3.6v0.1c0,2.1,1.2,3.6,3.1,3.6c1.7,0,3.1-1.4,3.1-3.2C175.3,309.5,175.3,309.4,175.3,309.3z
				"/>
			<path class="st1" d="M178.9,304.5h1.5v1.5c0.6-1,1.7-1.6,2.8-1.6c1.2-0.1,2.3,0.6,2.7,1.8c0.7-1.1,1.9-1.8,3.2-1.8
				c1.7,0,3.2,1,3.2,3.7v5.9h-1.5v-6c0-1.7-0.7-2.3-2-2.3c-1.3,0-2.4,1-2.5,2.3c0,0.1,0,0.1,0,0.2v5.8h-1.5v-6c0-1.7-0.7-2.3-2-2.3
				c-1.3-0.1-2.4,1-2.5,2.3c0,0.1,0,0.2,0,0.2v5.8h-1.5L178.9,304.5z"/>
			<path class="st1" d="M203,301h2l4.4,12.9h-1.6l-1.3-3.7h-5.3L200,314h-1.4L203,301z M201.7,309h4.5l-2.2-6.7L201.7,309z"/>
			<path class="st1" d="M213.7,309.1l-3.1-4.6h1.7l2.3,3.4l2.3-3.4h1.6l-3.1,4.5l3.4,5H217l-2.5-3.8L212,314h-1.6L213.7,309.1z"/>
			<path class="st1" d="M219.4,309.3v-0.1c-0.2-2.6,1.8-4.8,4.3-4.9c2.6-0.2,4.8,1.8,4.9,4.3c0,0.2,0,0.4,0,0.6v0.1
				c0.2,2.6-1.8,4.8-4.3,4.9c-2.6,0.2-4.8-1.8-4.9-4.3C219.4,309.7,219.4,309.5,219.4,309.3z M227.1,309.3v-0.1
				c0-2.2-1.2-3.6-3.1-3.6s-3.1,1.4-3.1,3.6v0.1c0,2.1,1.2,3.6,3.1,3.6c1.7,0,3.1-1.4,3.1-3.2C227.1,309.5,227.1,309.4,227.1,309.3z
				"/>
			<path class="st1" d="M230,311h1.5c0,1.1,0.7,1.8,2.2,1.8s2-0.5,2-1.5s-0.7-1.3-2.2-1.6c-2.4-0.5-3.3-1.1-3.3-2.8
				c0.2-1.6,1.6-2.8,3.2-2.6c1.7-0.2,3.2,0.9,3.4,2.6c0,0,0,0.1,0,0.1h-1.4c-0.2-1-0.8-1.5-2-1.5s-1.8,0.5-1.8,1.3s0.5,1.2,2.2,1.5
				s3.3,0.8,3.3,2.8c0,1.7-1.2,2.9-3.5,2.9S230,312.9,230,311z"/>
			<path class="st1" d="M243.7,301h3.9c2.4,0,4.1,0.8,4.1,3.3l0,0c0.1,1.3-0.8,2.4-2,2.7c1.6,0.1,2.7,1.5,2.6,3.1c0,0,0,0,0,0l0,0
				c0,2.4-1.6,3.6-4.2,3.6h-4.4L243.7,301z M247.6,306.7c1.9,0,2.6-0.7,2.6-2.3l0,0c0-1.5-0.8-2-2.6-2h-2.3v4.4L247.6,306.7z
				 M248.1,312.7c1.9,0,2.7-0.8,2.7-2.4l0,0c0-1.6-0.9-2.3-3-2.3h-2.6v4.8L248.1,312.7z"/>
			<path class="st1" d="M253.7,311.3c0-2.2,2.3-2.9,4.7-2.9h1.4v-0.7c0-1.5-0.6-2.1-2-2.1s-2,0.5-2.2,1.7h-1.5
				c0.2-1.8,1.8-3.1,3.6-2.9c0,0,0.1,0,0.1,0c1.7-0.2,3.2,0.9,3.4,2.6c0,0.3,0,0.5,0,0.8v6.3h-1.5v-1.2c-0.7,0.9-1.8,1.4-2.9,1.4
				C255.1,314,253.7,313.2,253.7,311.3z M259.7,310.6v-1.2h-1.3c-1.9,0-3.3,0.5-3.3,1.9c0,1,0.5,1.6,1.8,1.6
				C258.6,312.9,259.8,312,259.7,310.6L259.7,310.6z"/>
			<path class="st1" d="M264,304.5h1.5v1.5c0.6-1.1,1.8-1.7,3-1.7c2,0,3.3,1.1,3.3,3.8v5.9h-1.5v-6c0-1.7-0.7-2.4-2.2-2.4
				c-1.4-0.1-2.5,0.9-2.6,2.3c0,0.1,0,0.2,0,0.2v5.8H264V304.5z"/>
			<path class="st1" d="M274.4,300h1.6v8.8l3.9-4.3h1.8l-4,4.4l4.3,5.1h-1.8l-4.2-5v5h-1.5L274.4,300z"/>
			<path class="st1" d="M287,304.5h1.6l2.2,7.6l2.3-7.6h1.3l2.1,7.6l2.2-7.6h1.5l-2.9,9.5h-1.7l-2-7.1l-2.2,7.1h-1.6L287,304.5z"/>
			<path class="st1" d="M301.8,301.5c0-0.5,0.4-1,1-1c0,0,0,0,0,0c0.5,0,1,0.4,1,1c0,0.5-0.5,1-1,1
				C302.2,302.5,301.8,302.1,301.8,301.5z M302,304.5h1.5v9.5H302L302,304.5z"/>
			<path class="st1" d="M306.6,311.6v-5.8h-1.4v-1.3h1.4v-2.1h1.5v2.1h2.2v1.3h-2.2v5.7c0,0.9,0.4,1.4,1.2,1.4
				c0.4,0,0.8-0.1,1.1-0.2v1.3c-0.4,0.1-0.8,0.2-1.3,0.2c-1.3,0.1-2.4-0.8-2.5-2C306.6,311.9,306.6,311.7,306.6,311.6z"/>
			<path class="st1" d="M312.4,300h1.6v6c0.6-1.1,1.8-1.7,3-1.7c2,0,3.3,1.1,3.3,3.8v5.9h-1.5v-6c0-1.7-0.7-2.4-2.2-2.4
				c-1.4-0.1-2.5,0.9-2.6,2.3c0,0.1,0,0.2,0,0.3v5.8h-1.5L312.4,300z"/>
			<path class="st1" d="M322.7,301.5c0-0.5,0.5-1,1-1c0.5,0,1,0.4,1,1c0,0,0,0,0,0c0,0.5-0.4,1-1,1
				C323.1,302.5,322.7,302.1,322.7,301.5z M323,304.5h1.5v9.5H323V304.5z"/>
			<path class="st1" d="M327.2,304.5h1.5v1.5c0.6-1.1,1.8-1.7,3-1.7c2,0,3.3,1.1,3.3,3.8v5.9h-1.5v-6c0-1.7-0.7-2.4-2.2-2.4
				c-1.4-0.1-2.5,0.9-2.6,2.3c0,0.1,0,0.2,0,0.3v5.8h-1.5V304.5z"/>
			<path class="st1" d="M342.2,304.5h1.5v1.5c0.6-1,1.7-1.6,2.8-1.6c1.2-0.1,2.3,0.6,2.8,1.8c0.7-1.1,1.9-1.8,3.2-1.8
				c1.7,0,3.2,1,3.2,3.7v5.9h-1.5v-6c0-1.7-0.7-2.3-2-2.3c-1.3-0.1-2.4,1-2.5,2.3c0,0.1,0,0.2,0,0.2v5.8h-1.5v-6
				c0-1.7-0.7-2.3-2-2.3c-1.3,0-2.5,1-2.5,2.3c0,0.1,0,0.1,0,0.2v5.8h-1.5L342.2,304.5z"/>
			<path class="st1" d="M358.1,301.5c0-0.5,0.5-1,1-1c0.5,0,1,0.4,1,1c0,0,0,0,0,0c0,0.5-0.4,1-1,1
				C358.6,302.5,358.1,302.1,358.1,301.5z M358.4,304.5h1.5v9.5h-1.5V304.5z"/>
			<path class="st1" d="M362.7,304.5h1.5v1.5c0.6-1.1,1.8-1.7,3-1.7c2,0,3.3,1.1,3.3,3.8v5.9H369v-6c0-1.7-0.7-2.4-2.2-2.4
				c-1.4-0.1-2.5,0.9-2.6,2.3c0,0.1,0,0.2,0,0.3v5.8h-1.5V304.5z"/>
			<path class="st1" d="M373.1,310.5v-6h1.5v5.9c0,1.7,0.7,2.4,2.2,2.4c1.4,0.1,2.5-1,2.6-2.4c0-0.1,0-0.2,0-0.2v-5.7h1.5v9.5h-1.5
				v-1.5c-0.6,1.1-1.8,1.7-3,1.7C374.5,314,373.1,313,373.1,310.5z"/>
			<path class="st1" d="M384,311.6v-5.8h-1.3v-1.3h1.3v-2.1h1.5v2.1h2.2v1.3h-2.2v5.7c0,0.9,0.4,1.4,1.2,1.4c0.4,0,0.8-0.1,1.2-0.2
				v1.3c-0.4,0.1-0.8,0.2-1.3,0.2c-1.3,0.1-2.4-0.7-2.5-2C384,311.9,384,311.7,384,311.6z"/>
			<path class="st1" d="M389,309.3v-0.1c-0.2-2.4,1.6-4.6,4-4.8c0.1,0,0.3,0,0.4,0c2.3-0.1,4.2,1.7,4.3,4c0,0.2,0,0.5,0,0.7v0.5
				h-7.1c0,2.1,1.1,3.3,3,3.3c1.4,0,2.3-0.5,2.5-1.6h1.5c-0.4,1.9-2.1,3.1-4,2.9c-2.4,0.1-4.5-1.8-4.6-4.3
				C389,309.6,389,309.5,389,309.3z M396.1,308.3c-0.1-2-1.1-2.7-2.7-2.7c-1.5,0-2.7,1.2-2.8,2.7H396.1z"/>
			<path class="st1" d="M399,311h1.5c0.1,1.1,0.7,1.8,2.2,1.8s2-0.5,2-1.5s-0.7-1.3-2.2-1.6c-2.5-0.5-3.3-1.1-3.3-2.8
				c0.2-1.6,1.6-2.8,3.2-2.6c1.7-0.2,3.2,0.9,3.4,2.6c0,0,0,0.1,0,0.1h-1.4c-0.2-1-0.8-1.5-2-1.5s-1.8,0.5-1.8,1.3s0.5,1.2,2.2,1.5
				s3.3,0.8,3.3,2.8c0,1.7-1.2,2.9-3.5,2.9S399.1,312.9,399,311z"/>
			<path class="st1" d="M412,309.3v-0.1c0-2.6,2.1-4.6,4.6-4.6c2.6,0,4.6,2.1,4.6,4.6c0,0,0,0,0,0v0.1c0,2.6-2.1,4.6-4.6,4.6
				C414.1,313.9,412,311.8,412,309.3C412,309.3,412,309.3,412,309.3z M419.7,309.3v-0.1c0-2.2-1.2-3.6-3.1-3.6s-3.1,1.4-3.1,3.6v0.1
				c0,2.1,1.2,3.6,3.1,3.6c1.7-0.1,3.1-1.5,3-3.2C419.6,309.5,419.6,309.4,419.7,309.3L419.7,309.3z"/>
			<path class="st1" d="M423.5,305.8h-1.4v-1.3h1.4V303c0-1.9,0.9-3,2.8-3c0.4,0,0.8,0.1,1.1,0.2v1.3c-0.3-0.1-0.7-0.2-1.1-0.2
				c-1,0-1.4,0.7-1.4,1.6v1.7h2.3v1.3H425v8.2h-1.5V305.8z"/>
			<path class="st1" d="M434,305.8h-1.4v-1.3h1.4V303c0-1.9,0.9-3,2.8-3c0.4,0,0.8,0.1,1.1,0.2v1.3c-0.3-0.1-0.7-0.2-1.1-0.2
				c-1,0-1.4,0.7-1.4,1.6v1.7h2.3v1.3h-2.3v8.2H434V305.8z"/>
			<path class="st1" d="M439.4,301.5c0-0.5,0.4-1,1-1c0,0,0,0,0,0c0.5,0,1,0.4,1,1c0,0.5-0.5,1-1,1
				C439.8,302.5,439.4,302.1,439.4,301.5z M439.7,304.5h1.5v9.5h-1.5V304.5z"/>
			<path class="st1" d="M444,300h1.5v14H444V300z"/>
			<path class="st1" d="M448,301.5c0-0.5,0.4-1,1-1c0,0,0,0,0,0c0.5,0,1,0.4,1,1c0,0.5-0.5,1-1,1C448.4,302.5,448,302.1,448,301.5z
				 M448.3,304.5h1.5v9.5h-1.5V304.5z"/>
			<path class="st1" d="M452.6,304.5h1.5v1.5c0.6-1.1,1.8-1.7,3-1.7c2,0,3.3,1.1,3.3,3.8v5.9h-1.5v-6c0-1.7-0.7-2.4-2.2-2.4
				c-1.4-0.1-2.5,0.9-2.6,2.3c0,0.1,0,0.2,0,0.2v5.8h-1.5L452.6,304.5z"/>
			<path class="st1" d="M462.6,314.5h1.5c0.2,1.1,1.1,1.6,2.7,1.6c1.5,0.2,2.8-0.8,3-2.2c0-0.2,0-0.4,0-0.7v-1.4
				c-0.7,1.1-1.9,1.7-3.2,1.8c-2.3,0-4.3-1.9-4.3-4.2c0-0.1,0-0.2,0-0.3V309c-0.1-2.5,1.8-4.6,4.2-4.7c0.1,0,0.1,0,0.2,0
				c1.3-0.1,2.4,0.6,3.1,1.7v-1.5h1.5v8.8c0,2.2-1.8,4-4,4c-0.2,0-0.4,0-0.5,0C464,317.4,462.8,316,462.6,314.5z M469.9,309v-0.1
				c0.2-1.6-0.9-3.1-2.4-3.3c-0.2,0-0.4,0-0.5,0c-1.7,0-3,1.3-3,3c0,0.1,0,0.3,0,0.4v0.1c-0.2,1.6,1,3.1,2.7,3.3c0.1,0,0.2,0,0.2,0
				c1.7,0.1,3.1-1.2,3.2-2.9C470,309.3,470,309.2,469.9,309L469.9,309z"/>
			<path class="st1" d="M474,312.9c0-0.6,0.5-1.2,1.1-1.2c0.6,0,1.2,0.5,1.2,1.1c0,0.6-0.5,1.2-1.1,1.2c0,0,0,0,0,0
				C474.5,314,474,313.5,474,312.9L474,312.9z"/>
			<path class="st1" d="M41.6,319h2l6.4,10.6V319h1.5v13h-1.8l-6.5-11v11h-1.5L41.6,319z"/>
			<path class="st1" d="M53.6,327.3v-0.1c0-2.6,2.1-4.6,4.6-4.6s4.6,2.1,4.6,4.6c0,0,0,0,0,0v0.1c0,2.6-2.1,4.6-4.6,4.6
				S53.6,329.8,53.6,327.3C53.6,327.3,53.6,327.3,53.6,327.3z M61.3,327.3v-0.1c0-2.2-1.2-3.6-3.1-3.6s-3.1,1.4-3.1,3.6v0.1
				c0,2.1,1.2,3.6,3.1,3.6c1.7,0,3.1-1.4,3.1-3.2C61.3,327.5,61.3,327.4,61.3,327.3z"/>
			<path class="st1" d="M65.2,329.6v-5.8h-1.4v-1.3h1.4v-2.1h1.5v2.1h2.2v1.3h-2.2v5.7c0,0.9,0.4,1.4,1.2,1.4c0.4,0,0.8-0.1,1.2-0.2
				v1.3c-0.4,0.1-0.8,0.2-1.3,0.2c-1.3,0.1-2.4-0.7-2.5-2C65.2,329.9,65.2,329.7,65.2,329.6z"/>
			<path class="st1" d="M78.1,330.9l-3.7-8.4H76l2.9,6.7l2.6-6.7H83l-5.2,12.7h-1.5L78.1,330.9z"/>
			<path class="st1" d="M83.8,327.3v-0.1c-0.2-2.6,1.8-4.8,4.3-4.9c2.6-0.2,4.8,1.8,4.9,4.3c0,0.2,0,0.4,0,0.6v0.1
				c0.2,2.6-1.8,4.8-4.3,4.9c-2.6,0.2-4.8-1.8-4.9-4.3C83.8,327.7,83.8,327.5,83.8,327.3z M91.5,327.3v-0.1c0-2.2-1.2-3.6-3.1-3.6
				c-1.7,0-3.1,1.4-3.1,3.1c0,0.1,0,0.3,0,0.4v0.1c0,2.1,1.2,3.6,3.1,3.6S91.5,329.4,91.5,327.3z"/>
			<path class="st1" d="M95,328.5v-6h1.5v5.9c0,1.7,0.7,2.4,2.2,2.4c1.4,0.1,2.5-1,2.6-2.4c0-0.1,0-0.2,0-0.2v-5.7h1.5v9.5h-1.5
				v-1.5c-0.6,1.1-1.8,1.7-3,1.7C96.4,332,95,331,95,328.5z"/>
			<path class="st1" d="M105.5,322.5h1.5v1.7c0.6-1.2,1.8-1.9,3.1-1.8v1.4c-1.9,0-3.1,0.7-3.1,3v5.3h-1.5V322.5z"/>
			<path class="st1" d="M116.8,329.6v-5.8h-1.3v-1.3h1.3v-2.1h1.5v2.1h2.2v1.3h-2.2v5.7c0,0.9,0.4,1.4,1.2,1.4
				c0.4,0,0.8-0.1,1.2-0.2v1.3c-0.4,0.1-0.8,0.2-1.3,0.2c-1.3,0.1-2.4-0.7-2.5-2C116.8,329.9,116.8,329.7,116.8,329.6z"/>
			<path class="st1" d="M122,329.3c0-2.2,2.3-2.9,4.7-2.9h1.3v-0.7c0-1.5-0.6-2.1-2-2.1s-2,0.5-2.2,1.7h-1.5
				c0.2-1.8,1.8-3.1,3.6-2.9c0,0,0,0,0,0c1.7-0.2,3.2,0.9,3.4,2.6c0,0.3,0,0.5,0,0.8v6.3H128v-1.2c-0.7,0.9-1.8,1.4-2.9,1.4
				C123.3,332,122,331.2,122,329.3z M128,328.6v-1.2h-1.3c-1.9,0-3.3,0.5-3.3,1.9c0,1,0.5,1.6,1.8,1.6S128,330,128,328.6z"/>
			<path class="st1" d="M134.5,327.1l-3.2-4.6h1.8l2.3,3.5l2.3-3.4h1.6l-3.1,4.5l3.4,5h-1.8l-2.5-3.8l-2.6,3.8h-1.6L134.5,327.1z"/>
			<path class="st1" d="M146,322.5h1.5v1.7c0.6-1.2,1.8-1.9,3.1-1.8v1.4c-1.9,0-3.1,0.7-3.1,3v5.3H146V322.5z"/>
			<path class="st1" d="M151.4,327.3v-0.1c-0.2-2.4,1.6-4.6,4-4.8c0.1,0,0.3,0,0.4,0c2.3,0,4.2,1.8,4.2,4c0,0.2,0,0.4,0,0.6v0.5h-7
				c0,2.1,1.1,3.3,3,3.3c1.5,0,2.3-0.5,2.5-1.6h1.5c-0.4,1.8-2.1,3-4,2.8c-2.4,0.1-4.5-1.8-4.6-4.2
				C151.4,327.6,151.4,327.5,151.4,327.3z M158.5,326.3c-0.2-2-1.2-2.7-2.7-2.7c-1.5,0-2.8,1.2-2.8,2.7H158.5z"/>
			<path class="st1" d="M162.4,323.8H161v-1.3h1.4V321c0-1.9,0.9-3,2.8-3c0.4,0,0.8,0.1,1.1,0.2v1.3c-0.3-0.1-0.7-0.2-1.1-0.2
				c-1,0-1.4,0.7-1.4,1.6v1.7h2.3v1.3H164v8.2h-1.6V323.8z"/>
			<path class="st1" d="M168,328.5v-6h1.5v5.9c0,1.7,0.7,2.4,2.2,2.4c1.4,0.1,2.5-1,2.6-2.4c0-0.1,0-0.1,0-0.2v-5.7h1.5v9.5h-1.6
				v-1.5c-0.6,1.1-1.7,1.7-3,1.7C169.3,332,168,331,168,328.5z"/>
			<path class="st1" d="M178.5,322.5h1.5v1.5c0.6-1.1,1.8-1.7,3-1.7c2,0,3.3,1.1,3.3,3.8v5.9h-1.5v-6c0-1.7-0.7-2.4-2.2-2.4
				c-1.4-0.1-2.5,1-2.6,2.4c0,0.1,0,0.1,0,0.2v5.8h-1.5L178.5,322.5z"/>
			<path class="st1" d="M188.2,327.4v-0.2c-0.2-2.5,1.5-4.6,4-4.9c0.1,0,0.3,0,0.4,0c1.3-0.1,2.4,0.6,3.1,1.7v-6h1.5v14h-1.5v-1.6
				c-0.7,1.1-1.9,1.7-3.2,1.8c-2.3,0.1-4.2-1.8-4.3-4.1C188.2,327.8,188.2,327.6,188.2,327.4z M195.8,327.3v-0.1
				c0-2.4-1.2-3.5-3-3.5s-3,1.3-3,3.6v0.1c0,2.4,1.3,3.5,2.9,3.5S195.8,329.7,195.8,327.3L195.8,327.3z"/>
			<path class="st1" d="M199.8,330.9c0-0.6,0.5-1.2,1.1-1.2c0.6,0,1.2,0.5,1.2,1.1c0,0.6-0.5,1.2-1.1,1.2c0,0,0,0,0,0
				C200.4,332,199.9,331.5,199.8,330.9C199.8,330.9,199.8,330.9,199.8,330.9z"/>
		</g>
	</g>
</g>
</svg>
