<svg xmlns="http://www.w3.org/2000/svg" viewBox="0 0 300 600"><title>Asset 3</title><g id="Layer_2" data-name="Layer 2"><g id="Rect"><rect width="300" height="600" fill="none"/></g><g id="Expert_tax_prep_available_through_July_15." data-name="Expert  tax prep available through July 15."><path d="M33.8,90.53H61v8.71H45V106H57.77v8H45v7.17H61.9v8.7H33.8Z" fill="#fff"/><path d="M73.2,115.27l-9-14.16H75.56L80,108.72l4.35-7.61H94.52L85.43,114.5l10,15.43H84.05l-5.12-8.6-5.24,8.6H63.61Z" fill="#fff"/><path d="M98.15,101.11H108v4.3a10.2,10.2,0,0,1,9-5.07c6.72,0,12.17,5.07,12.17,14.93v.44c0,9.92-5.45,14.88-12.23,14.88-4.35,0-7.49-2-8.93-4.9v13.88H98.15Zm21,14.6v-.44c0-5.06-2.2-7.49-5.67-7.49s-5.73,2.59-5.73,7.44v.44c0,4.9,2.15,7.38,5.73,7.38S119.14,120.45,119.14,115.71Z" fill="#fff"/><path d="M131.21,115.88v-.44c0-9.26,6.89-15.1,15.59-15.1,7.88,0,14.66,4.52,14.66,14.88v2.59H141.18c.28,3.8,2.48,6,6,6,3.25,0,4.62-1.48,5-3.41h9.26c-.88,6.5-5.9,10.19-14.6,10.19C137.82,130.59,131.21,125.3,131.21,115.88Zm20.66-3.64c-.17-3.47-1.87-5.4-5.07-5.4-3,0-5,1.93-5.51,5.4Z" fill="#fff"/><path d="M164.87,101.11h9.86v5.73c1.82-4.29,4.85-6.17,9.31-6.11v9.2c-6-.17-9.31,1.71-9.31,6.34v13.66h-9.86Z" fill="#fff"/><path d="M189.39,120.67V107.84h-3.47v-6.73h3.47v-6h9.86v6h5.67v6.73h-5.67v11.9c0,2.09,1.05,3,2.92,3a7.53,7.53,0,0,0,2.81-.5v7.5a20.78,20.78,0,0,1-5.46.82C193,130.59,189.39,127.45,189.39,120.67Z" fill="#fff"/><path d="M34.24,178.67V165.84H30.77v-6.73h3.47v-6h9.87v6h5.67v6.73H44.11v11.9c0,2.09,1,3,2.92,3a7.56,7.56,0,0,0,2.81-.5v7.5a20.78,20.78,0,0,1-5.46.82C37.88,188.59,34.24,185.45,34.24,178.67Z" fill="#fff"/><path d="M52,179.94c0-6.78,5.73-9.42,15.32-9.42h2.76v-.66c0-2.76-.67-4.58-3.81-4.58a3.54,3.54,0,0,0-3.91,3.42H53.08c.45-6.94,5.9-10.36,13.78-10.36s13,3.25,13,10.91v18.68H70.28v-3.36c-1.38,2.09-3.92,4-8.54,4C56.56,188.59,52,186.06,52,179.94Zm18.08-2.09v-1.77H67.47c-4,0-5.73.78-5.73,3.15,0,1.65,1.1,2.69,3.41,2.69C68,181.92,70.06,180.33,70.06,177.85Z" fill="#fff"/><path d="M91.93,173.27l-9-14.16H94.29l4.47,7.61,4.35-7.61h10.14l-9.09,13.39,10,15.43H102.78l-5.12-8.6-5.24,8.6H82.34Z" fill="#fff"/><path d="M126.91,159.11h9.86v4.3a10.18,10.18,0,0,1,9-5.07c6.73,0,12.18,5.07,12.18,14.93v.44c0,9.92-5.45,14.88-12.23,14.88-4.35,0-7.5-2-8.93-4.9v13.88h-9.86Zm21,14.6v-.44c0-5.06-2.2-7.49-5.67-7.49s-5.73,2.59-5.73,7.44v.44c0,4.9,2.15,7.38,5.73,7.38S147.9,178.45,147.9,173.71Z" fill="#fff"/><path d="M161.51,159.11h9.86v5.73c1.82-4.29,4.85-6.17,9.31-6.11v9.2c-6-.17-9.31,1.71-9.31,6.34v13.66h-9.86Z" fill="#fff"/><path d="M182.44,173.88v-.44c0-9.26,6.89-15.1,15.6-15.1,7.88,0,14.65,4.52,14.65,14.88v2.59H192.42c.27,3.8,2.48,6,6,6,3.25,0,4.63-1.48,5-3.41h9.25c-.88,6.5-5.89,10.19-14.6,10.19C189.06,188.59,182.44,183.3,182.44,173.88Zm20.67-3.64c-.17-3.47-1.88-5.4-5.07-5.4-3,0-5,1.93-5.51,5.4Z" fill="#fff"/><path d="M216.11,159.11H226v4.3a10.18,10.18,0,0,1,9-5.07c6.72,0,12.18,5.07,12.18,14.93v.44c0,9.92-5.46,14.88-12.24,14.88-4.35,0-7.49-2-8.92-4.9v13.88h-9.86Zm21,14.6v-.44c0-5.06-2.21-7.49-5.68-7.49s-5.73,2.59-5.73,7.44v.44c0,4.9,2.15,7.38,5.73,7.38S237.1,178.45,237.1,173.71Z" fill="#fff"/><path d="M31.27,237.94c0-6.78,5.73-9.42,15.31-9.42h2.76v-.66c0-2.76-.66-4.58-3.8-4.58a3.54,3.54,0,0,0-3.91,3.42H32.37c.44-6.94,5.9-10.36,13.77-10.36s13,3.25,13,10.91v18.68H49.56v-3.36c-1.38,2.09-3.91,4-8.54,4C35.84,246.59,31.27,244.06,31.27,237.94Zm18.07-2.09v-1.77H46.75c-4,0-5.73.78-5.73,3.15,0,1.65,1.1,2.69,3.42,2.69C47.25,239.92,49.34,238.33,49.34,235.85Z" fill="#fff"/><path d="M60.63,217.11H71.16l6,18.57,5.9-18.57h9.42L82,245.93H71.21Z" fill="#fff"/><path d="M92.09,237.94c0-6.78,5.73-9.42,15.32-9.42h2.75v-.66c0-2.76-.66-4.58-3.8-4.58a3.54,3.54,0,0,0-3.91,3.42H93.19c.44-6.94,5.9-10.36,13.78-10.36s13,3.25,13,10.91v18.68h-9.59v-3.36c-1.37,2.09-3.91,4-8.54,4C96.66,246.59,92.09,244.06,92.09,237.94Zm18.07-2.09v-1.77h-2.59c-4,0-5.73.78-5.73,3.15,0,1.65,1.11,2.69,3.42,2.69C108.07,239.92,110.16,238.33,110.16,235.85Z" fill="#fff"/><path d="M124.54,209.29a5.14,5.14,0,0,1,5.4-5.12,5.11,5.11,0,1,1,0,10.19A5.1,5.1,0,0,1,124.54,209.29Zm.5,7.82h9.86v28.82H125Z" fill="#fff"/><path d="M140.46,204.44h9.81v41.49h-9.81Z" fill="#fff"/><path d="M153.91,237.94c0-6.78,5.73-9.42,15.31-9.42H172v-.66c0-2.76-.66-4.58-3.8-4.58a3.55,3.55,0,0,0-3.92,3.42H155c.44-6.94,5.89-10.36,13.77-10.36s13,3.25,13,10.91v18.68H172.2v-3.36c-1.38,2.09-3.91,4-8.54,4C158.48,246.59,153.91,244.06,153.91,237.94ZM172,235.85v-1.77h-2.59c-4,0-5.73.78-5.73,3.15,0,1.65,1.1,2.69,3.41,2.69C169.88,239.92,172,238.33,172,235.85Z" fill="#fff"/><path d="M196.44,241.47v4.46h-9.86V204.44h9.86v17a10.18,10.18,0,0,1,9-5.07c6.72,0,12.18,5.07,12.18,14.93v.44c0,9.92-5.46,14.88-12.24,14.88C201.07,246.59,197.87,244.55,196.44,241.47Zm11.13-9.76v-.44c0-5.06-2.21-7.49-5.68-7.49s-5.73,2.59-5.73,7.44v.44c0,4.9,2.15,7.38,5.73,7.38S207.57,236.45,207.57,231.71Z" fill="#fff"/><path d="M221.45,204.44h9.81v41.49h-9.81Z" fill="#fff"/><path d="M235,231.88v-.44c0-9.26,6.89-15.1,15.59-15.1,7.88,0,14.66,4.52,14.66,14.88v2.59H245c.28,3.8,2.48,6,6,6,3.25,0,4.63-1.48,5-3.41h9.26c-.88,6.5-5.89,10.19-14.6,10.19C241.61,246.59,235,241.3,235,231.88Zm20.66-3.64c-.16-3.47-1.87-5.4-5.07-5.4-3,0-5,1.93-5.51,5.4Z" fill="#fff"/><path d="M34.24,294.67V281.84H30.77v-6.73h3.47v-6h9.87v6h5.67v6.73H44.11v11.9c0,2.09,1,3,2.92,3a7.56,7.56,0,0,0,2.81-.5v7.5a20.78,20.78,0,0,1-5.46.82C37.88,304.59,34.24,301.45,34.24,294.67Z" fill="#fff"/><path d="M53.53,262.44h9.86v17.3a10.18,10.18,0,0,1,9.48-5.4c5.56,0,9.42,3.47,9.42,10.86v18.73H72.42V287.18c0-3.25-1.26-4.85-4.13-4.85s-4.9,1.76-4.9,5.46v16.14H53.53Z" fill="#fff"/><path d="M87.08,275.11h9.86v5.73c1.82-4.29,4.85-6.17,9.31-6.11v9.2c-6-.17-9.31,1.71-9.31,6.34v13.66H87.08Z" fill="#fff"/><path d="M108,289.88v-.44c0-9.26,6.89-15.1,15.82-15.1s15.7,5.68,15.7,14.82v.44c0,9.37-6.89,15-15.76,15S108,299.19,108,289.88Zm21.49-.17v-.44c0-4.84-1.93-7.54-5.67-7.54s-5.73,2.59-5.73,7.43v.44c0,5,1.92,7.66,5.73,7.66S129.5,294.51,129.5,289.71Z" fill="#fff"/><path d="M142.78,293.9V275.11h9.86V292.3c0,3.26,1.27,4.85,4.08,4.85,3,0,4.9-1.76,4.9-5.45V275.11h9.86v28.82h-9.86v-4.46c-1.54,3-4.35,5.12-9.15,5.12C146.91,304.59,142.78,301.18,142.78,293.9Z" fill="#fff"/><path d="M174.9,303.93h9.8c.45,2.09,1.71,3.75,5.29,3.75,4.36,0,6.12-2.48,6.12-6.06v-4.41a10.12,10.12,0,0,1-8.93,5.29c-6.72,0-12.23-5-12.23-13.83v-.44c0-8.49,5.46-13.89,12.23-13.89,4.58,0,7.28,1.93,8.93,4.85v-4.08H206v26.4c0,8.59-5.67,13.11-16,13.11C180.19,314.62,175.67,310.49,174.9,303.93Zm21.49-15.32v-.38c0-4-2-6.5-5.68-6.5s-5.67,2.59-5.67,6.55v.44c0,4,2.09,6.51,5.62,6.51S196.39,292.69,196.39,288.61Z" fill="#fff"/><path d="M211,262.44h9.87v17.3a10.17,10.17,0,0,1,9.47-5.4c5.57,0,9.43,3.47,9.43,10.86v18.73h-9.87V287.18c0-3.25-1.27-4.85-4.13-4.85s-4.9,1.76-4.9,5.46v16.14H211Z" fill="#fff"/><path d="M31.82,361.1v-8.43a13.07,13.07,0,0,0,4.79.78c3.09,0,5.13-1.38,5.13-5.46V322.53H53.09V348.1c0,9.48-4.85,14.33-14.11,14.33C35.29,362.43,33.42,361.88,31.82,361.1Z" fill="#fff"/><path d="M58,351.9V333.11h9.87V350.3c0,3.26,1.26,4.85,4.07,4.85,3,0,4.91-1.76,4.91-5.45V333.11h9.86v28.82H76.89v-4.46c-1.54,3-4.35,5.12-9.15,5.12C62.18,362.59,58,359.18,58,351.9Z" fill="#fff"/><path d="M92,320.44h9.8v41.49H92Z" fill="#fff"/><path d="M116.17,359l-11.52-25.9h10.69l6,15.38,5.51-15.38h9.42L120.8,371.57h-9.43Z" fill="#fff"/><path d="M155.12,333.67l-7.49,4.62v-9.42l9-6.34h9.75v39.4H155.12Z" fill="#fff"/><path d="M171.26,349.53h10.25c.38,2.76,1.49,4.58,5.12,4.58,3.25,0,4.74-2.43,4.74-5.57,0-3.53-1.93-5.62-5.34-5.62a8.08,8.08,0,0,0-6.51,2.81H172.8l.83-23.2h26.56v8.27H181.78l-.22,8.7c1.49-2.14,4.3-4.18,9.2-4.18,7.22,0,12,4.85,12,13.39,0,8.37-6,13.88-16,13.88C176.27,362.59,171.54,356.92,171.26,349.53Z" fill="#fff"/><path d="M204.48,357a5.49,5.49,0,0,1,5.62-5.56,5.57,5.57,0,1,1,0,11.13A5.5,5.5,0,0,1,204.48,357Z" fill="#fff"/></g></g></svg>