<svg xmlns="http://www.w3.org/2000/svg" viewBox="0 0 300 600"><title>Asset 8</title><g id="Layer_2" data-name="Layer 2"><g id="Rect"><rect width="300" height="600" fill="none"/></g><g id="Federal_State:_fast_easy_and_at_least_10_cheaper_than_Turbo" data-name="Federal &amp; State: fast, easy and at least $10 cheaper than Turbo"><path d="M22.17,98.74H44.4v7.32H31.65v7H41.82v7H31.65v11.64H22.17Z" fill="#fff"/><path d="M45,119.91v-.37c0-7.73,5.75-12.61,13-12.61,6.57,0,12.23,3.78,12.23,12.42v2.17H53.36c.23,3.17,2.07,5,5,5,2.71,0,3.86-1.24,4.18-2.85h7.73c-.73,5.43-4.92,8.51-12.19,8.51C50.56,132.19,45,127.77,45,119.91Zm17.25-3c-.14-2.9-1.57-4.51-4.23-4.51-2.49,0-4.19,1.61-4.6,4.51Z" fill="#fff"/><path d="M72,119.86v-.37c0-8.19,4.5-12.56,10.21-12.56,3.77,0,6,1.61,7.41,4V97H97.8v34.64H89.57v-3.91a8.12,8.12,0,0,1-7.5,4.46C76.5,132.19,72,128.19,72,119.86Zm17.85-.14v-.37c0-4-1.71-6.21-4.74-6.21s-4.74,2.07-4.74,6.26v.37c0,4,1.79,6.12,4.65,6.12S89.8,123.82,89.8,119.72Z" fill="#fff"/><path d="M100.7,119.91v-.37c0-7.73,5.75-12.61,13-12.61,6.57,0,12.23,3.78,12.23,12.42v2.17H109c.23,3.17,2.07,5,5,5,2.71,0,3.86-1.24,4.18-2.85H126c-.73,5.43-4.92,8.51-12.19,8.51C106.22,132.19,100.7,127.77,100.7,119.91Zm17.25-3c-.14-2.9-1.57-4.51-4.23-4.51-2.49,0-4.19,1.61-4.61,4.51Z" fill="#fff"/><path d="M128.8,107.58H137v4.78a7.58,7.58,0,0,1,7.77-5.11v7.69c-5-.14-7.77,1.42-7.77,5.29v11.41H128.8Z" fill="#fff"/><path d="M145.87,125c0-5.66,4.78-7.87,12.79-7.87H161v-.55c0-2.3-.55-3.82-3.18-3.82a3,3,0,0,0-3.26,2.85h-7.73c.37-5.79,4.92-8.65,11.5-8.65s10.86,2.72,10.86,9.11v15.6h-8v-2.81c-1.15,1.75-3.26,3.36-7.13,3.36C149.69,132.19,145.87,130.07,145.87,125ZM161,123.22v-1.47h-2.17c-3.31,0-4.78.64-4.78,2.62,0,1.38.92,2.25,2.85,2.25C159.21,126.62,161,125.29,161,123.22Z" fill="#fff"/><path d="M173.38,97h8.18v34.64h-8.18Z" fill="#fff"/><path d="M221,124.92l5.47,6.72H215.74l-1.93-2.39a13.13,13.13,0,0,1-8.88,2.94c-7,0-11.55-3.68-11.55-9.94,0-4.23,2.58-7.36,7.23-9.57a10.44,10.44,0,0,1-2-5.75c0-5.61,4.79-8.6,10.58-8.6,5.25,0,10,2.62,10,7.68,0,3.59-2.12,6.21-6.58,8.15l4.14,5.06,2.39-4.7h7.18Zm-11.41-1-5.2-6.25a3.9,3.9,0,0,0-2.21,3.54,3.82,3.82,0,0,0,4.19,4.09A4.29,4.29,0,0,0,209.58,124Zm-1-13.24c2.2-1.06,3.26-2.31,3.26-4a2.37,2.37,0,0,0-2.44-2.53,2.62,2.62,0,0,0-2.71,2.85C206.68,108.22,207.42,109.37,208.57,110.71Z" fill="#fff"/><path d="M20.06,169.19h9c.23,2.35,1.29,4.28,5.2,4.28,2.71,0,4.23-1.33,4.23-3.26s-1.24-2.58-5.2-3.18c-9.29-1.1-12.42-3.86-12.42-10.49,0-5.93,4.88-10.26,12.74-10.26s12.38,3.32,13,10.26H37.82c-.33-2.34-1.66-3.54-4.24-3.54s-3.81,1.15-3.81,2.81c0,1.84,1,2.67,5.1,3.22,8.33.92,12.61,3.08,12.61,10.21,0,6-4.79,10.95-13.25,10.95C25,180.19,20.33,176.33,20.06,169.19Z" fill="#fff"/><path d="M51.61,171.91V161.19H48.72v-5.61h2.89v-5h8.24v5h4.74v5.61H59.85v9.94c0,1.75.87,2.53,2.44,2.53a6.14,6.14,0,0,0,2.34-.42v6.26a17,17,0,0,1-4.55.69C54.65,180.19,51.61,177.57,51.61,171.91Z" fill="#fff"/><path d="M66.43,173c0-5.66,4.78-7.87,12.78-7.87h2.3v-.55c0-2.3-.55-3.82-3.17-3.82a3,3,0,0,0-3.27,2.85H67.35c.36-5.79,4.92-8.65,11.5-8.65S89.7,157.65,89.7,164v15.6h-8v-2.81c-1.15,1.75-3.27,3.36-7.13,3.36C70.24,180.19,66.43,178.07,66.43,173Zm15.08-1.75v-1.47H79.35c-3.31,0-4.78.64-4.78,2.62,0,1.38.92,2.25,2.85,2.25C79.77,174.62,81.51,173.29,81.51,171.22Z" fill="#fff"/><path d="M94.67,171.91V161.19h-2.9v-5.61h2.9v-5h8.23v5h4.74v5.61H102.9v9.94a2.2,2.2,0,0,0,2.44,2.53,6.23,6.23,0,0,0,2.35-.42v6.26a17.12,17.12,0,0,1-4.56.69C97.71,180.19,94.67,177.57,94.67,171.91Z" fill="#fff"/><path d="M109.48,167.91v-.37c0-7.73,5.75-12.61,13-12.61,6.58,0,12.24,3.78,12.24,12.42v2.17H117.81c.23,3.17,2.07,5,5,5,2.72,0,3.87-1.24,4.19-2.85h7.73c-.74,5.43-4.93,8.51-12.19,8.51C115,180.19,109.48,175.77,109.48,167.91Zm17.25-3c-.14-2.9-1.56-4.51-4.23-4.51-2.48,0-4.19,1.61-4.6,4.51Z" fill="#fff"/><path d="M137.4,162.34a4.62,4.62,0,0,1,4.69-4.65,4.65,4.65,0,1,1,0,9.3A4.59,4.59,0,0,1,137.4,162.34Zm0,13.16a4.62,4.62,0,0,1,4.69-4.65,4.65,4.65,0,1,1,0,9.29A4.62,4.62,0,0,1,137.4,175.5Z" fill="#fff"/><path d="M160.54,161.19h-3v-5.61h3v-2.12c0-6,3.73-8.83,9.43-8.83a14.91,14.91,0,0,1,3.77.5v6a7.63,7.63,0,0,0-2.25-.32c-1.93,0-2.76,1.06-2.76,2.62v2.12h4.88v5.61h-4.88v18.45h-8.19Z" fill="#fff"/><path d="M174.52,173c0-5.66,4.79-7.87,12.79-7.87h2.3v-.55c0-2.3-.55-3.82-3.17-3.82a3,3,0,0,0-3.27,2.85h-7.73c.37-5.79,4.93-8.65,11.5-8.65s10.86,2.72,10.86,9.11v15.6h-8v-2.81c-1.15,1.75-3.27,3.36-7.13,3.36C178.34,180.19,174.52,178.07,174.52,173Zm15.09-1.75v-1.47h-2.16c-3.31,0-4.78.64-4.78,2.62,0,1.38.92,2.25,2.85,2.25C187.86,174.62,189.61,173.29,189.61,171.22Z" fill="#fff"/><path d="M200.19,172h7.59c.28,1.75,1.06,2.71,3.41,2.71,2,0,2.94-.78,2.94-2s-1.15-1.71-4.46-2.17c-6.44-.82-9.16-2.71-9.16-7.72,0-5.34,4.74-7.92,10.31-7.92,5.93,0,10.07,2,10.63,7.78H214c-.32-1.61-1.19-2.39-3.08-2.39s-2.71.78-2.71,1.88,1.1,1.61,4,2c6.68.83,9.89,2.58,9.89,7.73,0,5.7-4.23,8.28-10.9,8.28C204.38,180.19,200.38,177.34,200.19,172Z" fill="#fff"/><path d="M225.91,171.91V161.19H223v-5.61h2.9v-5h8.23v5h4.74v5.61h-4.74v9.94c0,1.75.87,2.53,2.44,2.53a6.14,6.14,0,0,0,2.34-.42v6.26a17,17,0,0,1-4.55.69C228.94,180.19,225.91,177.57,225.91,171.91Z" fill="#fff"/><path d="M240.3,183.36l3.87-12.1L251.8,174l-6.62,11.27Z" fill="#fff"/><path d="M20.15,215.91v-.37c0-7.73,5.75-12.61,13-12.61,6.58,0,12.24,3.78,12.24,12.42v2.17H28.48c.23,3.17,2.07,5,5,5,2.72,0,3.87-1.24,4.19-2.85h7.73c-.74,5.43-4.93,8.51-12.19,8.51C25.67,228.19,20.15,223.77,20.15,215.91Zm17.25-3c-.14-2.9-1.56-4.51-4.23-4.51-2.48,0-4.19,1.61-4.6,4.51Z" fill="#fff"/><path d="M47.11,221c0-5.66,4.78-7.87,12.78-7.87h2.3v-.55c0-2.3-.55-3.82-3.17-3.82a3,3,0,0,0-3.27,2.85H48c.36-5.79,4.92-8.65,11.5-8.65s10.85,2.72,10.85,9.11v15.6h-8v-2.81c-1.15,1.75-3.27,3.36-7.13,3.36C50.92,228.19,47.11,226.07,47.11,221Zm15.08-1.75v-1.47H60c-3.31,0-4.78.64-4.78,2.62,0,1.38.92,2.25,2.85,2.25C60.45,222.62,62.19,221.29,62.19,219.22Z" fill="#fff"/><path d="M72.77,220h7.59c.28,1.75,1.06,2.71,3.41,2.71,2,0,2.94-.78,2.94-2s-1.15-1.71-4.46-2.17c-6.44-.82-9.16-2.71-9.16-7.72,0-5.34,4.74-7.92,10.31-7.92,5.93,0,10.08,2,10.63,7.78H86.57c-.32-1.61-1.19-2.39-3.08-2.39s-2.71.78-2.71,1.88,1.1,1.61,4,2c6.67.83,9.89,2.58,9.89,7.73,0,5.7-4.24,8.28-10.91,8.28C77,228.19,73,225.34,72.77,220Z" fill="#fff"/><path d="M104.15,225.2l-9.62-21.62h8.93l5,12.83,4.6-12.83h7.87L108,235.69h-7.87Z" fill="#fff"/><path d="M130,221c0-5.66,4.78-7.87,12.79-7.87h2.3v-.55c0-2.3-.56-3.82-3.18-3.82a3,3,0,0,0-3.26,2.85h-7.73c.36-5.79,4.92-8.65,11.5-8.65s10.85,2.72,10.85,9.11v15.6h-8v-2.81c-1.15,1.75-3.27,3.36-7.13,3.36C133.81,228.19,130,226.07,130,221Zm15.09-1.75v-1.47h-2.17c-3.31,0-4.78.64-4.78,2.62,0,1.38.92,2.25,2.85,2.25C143.34,222.62,145.09,221.29,145.09,219.22Z" fill="#fff"/><path d="M157.27,203.58h8.24v3.86a8.5,8.5,0,0,1,7.91-4.51c4.65,0,7.87,2.9,7.87,9.07v15.64h-8.24v-14c0-2.71-1.05-4.05-3.45-4.05s-4.09,1.48-4.09,4.56v13.48h-8.24Z" fill="#fff"/><path d="M184.09,215.86v-.37c0-8.19,4.51-12.56,10.21-12.56,3.78,0,6,1.61,7.41,4V193H210v34.64h-8.24v-3.91a8.11,8.11,0,0,1-7.5,4.46C188.65,228.19,184.09,224.19,184.09,215.86Zm17.85-.14v-.37c0-4-1.7-6.21-4.74-6.21s-4.74,2.07-4.74,6.26v.37c0,4,1.8,6.12,4.65,6.12S201.94,219.82,201.94,215.72Z" fill="#fff"/><path d="M20.06,269c0-5.66,4.78-7.87,12.79-7.87h2.3v-.55c0-2.3-.55-3.82-3.18-3.82a3,3,0,0,0-3.26,2.85H21c.37-5.79,4.92-8.65,11.5-8.65s10.86,2.72,10.86,9.11v15.6h-8v-2.81c-1.15,1.75-3.26,3.36-7.13,3.36C23.88,276.19,20.06,274.07,20.06,269Zm15.09-1.75v-1.47H33c-3.32,0-4.79.64-4.79,2.62,0,1.38.92,2.25,2.85,2.25C33.4,270.62,35.15,269.29,35.15,267.22Z" fill="#fff"/><path d="M48.3,267.91V257.19H45.4v-5.61h2.9v-5h8.24v5h4.74v5.61H56.54v9.94c0,1.75.87,2.53,2.44,2.53a6.14,6.14,0,0,0,2.34-.42v6.26a17.1,17.1,0,0,1-4.55.69C51.34,276.19,48.3,273.57,48.3,267.91Z" fill="#fff"/><path d="M73,241h8.19v34.64H73Z" fill="#fff"/><path d="M84.32,263.91v-.37c0-7.73,5.75-12.61,13-12.61,6.58,0,12.24,3.78,12.24,12.42v2.17H92.65c.23,3.17,2.07,5,5,5,2.71,0,3.86-1.24,4.19-2.85h7.73c-.74,5.43-4.93,8.51-12.2,8.51C89.84,276.19,84.32,271.77,84.32,263.91Zm17.25-3c-.14-2.9-1.56-4.51-4.23-4.51-2.49,0-4.19,1.61-4.6,4.51Z" fill="#fff"/><path d="M111.27,269c0-5.66,4.79-7.87,12.79-7.87h2.3v-.55c0-2.3-.55-3.82-3.17-3.82a3,3,0,0,0-3.27,2.85h-7.73c.37-5.79,4.93-8.65,11.51-8.65s10.85,2.72,10.85,9.11v15.6h-8v-2.81c-1.15,1.75-3.27,3.36-7.13,3.36C115.09,276.19,111.27,274.07,111.27,269Zm15.09-1.75v-1.47H124.2c-3.31,0-4.78.64-4.78,2.62,0,1.38.92,2.25,2.85,2.25C124.62,270.62,126.36,269.29,126.36,267.22Z" fill="#fff"/><path d="M136.94,268h7.59c.28,1.75,1.06,2.71,3.41,2.71,2,0,2.94-.78,2.94-2s-1.15-1.71-4.46-2.17c-6.44-.82-9.16-2.71-9.16-7.72,0-5.34,4.74-7.92,10.31-7.92,5.93,0,10.07,2,10.63,7.78h-7.46c-.32-1.61-1.19-2.39-3.08-2.39s-2.71.78-2.71,1.88,1.1,1.61,4,2c6.68.83,9.9,2.58,9.9,7.73,0,5.7-4.24,8.28-10.91,8.28C141.13,276.19,137.13,273.34,136.94,268Z" fill="#fff"/><path d="M162.66,267.91V257.19h-2.9v-5.61h2.9v-5h8.23v5h4.74v5.61h-4.74v9.94c0,1.75.87,2.53,2.44,2.53a6.14,6.14,0,0,0,2.34-.42v6.26a17,17,0,0,1-4.55.69C165.69,276.19,162.66,273.57,162.66,267.91Z" fill="#fff"/><path d="M26.73,308.59c-4.65-.32-6.9-2.79-7.09-6.33h5a2.53,2.53,0,0,0,2.12,2.52v-3.92c-4.67-.67-6.66-2.36-6.66-6.09,0-3.24,2.55-5.58,6.66-5.87v-2.39h2.09v2.42c3.89.32,6.19,2.11,6.52,5.79H30.48a2.13,2.13,0,0,0-1.66-2v3.7c4.1.59,6.78,2,6.78,5.87,0,3.28-2.11,6-6.78,6.31v3.35H26.73Zm0-12.5v-3.44c-1.21.22-1.83.86-1.83,1.72S25.28,295.79,26.73,296.09Zm2.09,5.12v3.57a1.94,1.94,0,0,0,1.8-1.91C30.62,302,30.24,301.53,28.82,301.21Z" fill="#fff"/><path d="M43.68,300l-6.26,3.86V296L45,290.74h8.14v32.9H43.68Z" fill="#fff"/><path d="M57.61,307.9v-1.38c0-10.39,6.49-16.24,15.19-16.24S88,295.67,88,306.34v1.29c0,10.44-6,16.56-15.37,16.56C63.41,324.19,57.61,318.25,57.61,307.9Zm20.94-.09v-1.33c0-6-1.75-9.07-5.75-9.07s-5.75,3-5.75,9.07v1.38c0,6.12,1.79,9,5.84,9S78.55,313.88,78.55,307.81Z" fill="#fff"/><path d="M98.46,311.91v-.37c0-8,5.75-12.61,12.84-12.61,5.89,0,11.31,2.58,11.77,9.89h-7.72c-.37-2.25-1.48-3.49-3.87-3.49-2.9,0-4.6,2.07-4.6,6.12v.36c0,4.19,1.61,6.35,4.74,6.35,2.3,0,3.91-1.38,4.19-4h7.4c-.23,6.07-4.32,10-12.1,10C103.94,324.19,98.46,320,98.46,311.91Z" fill="#fff"/><path d="M125.88,289h8.23v14.44a8.51,8.51,0,0,1,7.92-4.51c4.64,0,7.86,2.9,7.86,9.07v15.64h-8.23v-14c0-2.71-1.06-4-3.45-4s-4.1,1.48-4.1,4.56v13.48h-8.23Z" fill="#fff"/><path d="M152.6,311.91v-.37c0-7.73,5.75-12.61,13-12.61,6.58,0,12.24,3.78,12.24,12.42v2.17H160.93c.23,3.17,2.07,5,5,5,2.71,0,3.86-1.24,4.18-2.85h7.73c-.74,5.43-4.92,8.51-12.19,8.51C158.12,324.19,152.6,319.77,152.6,311.91Zm17.26-3c-.14-2.9-1.57-4.51-4.24-4.51-2.48,0-4.18,1.61-4.6,4.51Z" fill="#fff"/><path d="M179.56,317c0-5.66,4.78-7.87,12.79-7.87h2.3v-.55c0-2.3-.55-3.82-3.18-3.82a3,3,0,0,0-3.26,2.85h-7.73c.37-5.79,4.92-8.65,11.5-8.65s10.86,2.72,10.86,9.11v15.6h-8v-2.81c-1.15,1.75-3.26,3.36-7.13,3.36C183.38,324.19,179.56,322.07,179.56,317Zm15.09-1.75v-1.47h-2.16c-3.32,0-4.79.64-4.79,2.62,0,1.38.92,2.25,2.85,2.25C192.9,318.62,194.65,317.29,194.65,315.22Z" fill="#fff"/><path d="M206.84,299.58h8.23v3.59a8.5,8.5,0,0,1,7.5-4.24c5.61,0,10.17,4.24,10.17,12.47v.37c0,8.28-4.56,12.42-10.22,12.42-3.63,0-6.25-1.7-7.45-4.1v11.6h-8.23Zm17.52,12.19v-.37c0-4.23-1.84-6.26-4.73-6.26s-4.79,2.17-4.79,6.21v.37c0,4.1,1.79,6.17,4.79,6.17S224.36,315.72,224.36,311.77Z" fill="#fff"/><path d="M234.44,311.91v-.37c0-7.73,5.75-12.61,13-12.61,6.57,0,12.23,3.78,12.23,12.42v2.17H242.76c.23,3.17,2.07,5,5,5,2.71,0,3.86-1.24,4.18-2.85h7.73c-.73,5.43-4.92,8.51-12.19,8.51C240,324.19,234.44,319.77,234.44,311.91Zm17.25-3c-.14-2.9-1.57-4.51-4.23-4.51-2.49,0-4.19,1.61-4.61,4.51Z" fill="#fff"/><path d="M262.54,299.58h8.24v4.78a7.58,7.58,0,0,1,7.77-5.11v7.69c-5-.14-7.77,1.42-7.77,5.29v11.41h-8.24Z" fill="#fff"/><path d="M22.54,363.91V353.19h-2.9v-5.61h2.9v-5h8.24v5h4.74v5.61H30.78v9.94c0,1.75.87,2.53,2.44,2.53a6.14,6.14,0,0,0,2.34-.42v6.26a17.1,17.1,0,0,1-4.55.69C25.58,372.19,22.54,369.57,22.54,363.91Z" fill="#fff"/><path d="M38.64,337h8.24v14.44a8.5,8.5,0,0,1,7.91-4.51c4.65,0,7.87,2.9,7.87,9.07v15.64H54.42v-14c0-2.71-1.06-4-3.45-4s-4.09,1.48-4.09,4.56v13.48H38.64Z" fill="#fff"/><path d="M65.28,365c0-5.66,4.78-7.87,12.78-7.87h2.31v-.55c0-2.3-.56-3.82-3.18-3.82a3,3,0,0,0-3.27,2.85H66.2c.36-5.79,4.92-8.65,11.5-8.65s10.85,2.72,10.85,9.11v15.6h-8v-2.81c-1.15,1.75-3.27,3.36-7.13,3.36C69.09,372.19,65.28,370.07,65.28,365Zm15.09-1.75v-1.47H78.2c-3.31,0-4.78.64-4.78,2.62,0,1.38.92,2.25,2.85,2.25C78.62,366.62,80.37,365.29,80.37,363.22Z" fill="#fff"/><path d="M92.55,347.58h8.24v3.86a8.5,8.5,0,0,1,7.91-4.51c4.65,0,7.87,2.9,7.87,9.07v15.64h-8.24v-14c0-2.71-1.06-4-3.45-4s-4.09,1.48-4.09,4.56v13.48H92.55Z" fill="#fff"/><path d="M136,346h-8.51v-7.27H154V346h-8.51v25.63H136Z" fill="#fff"/><path d="M154.7,363.26V347.58h8.23v14.35c0,2.71,1.06,4.05,3.41,4.05s4.09-1.47,4.09-4.56V347.58h8.24v24.06h-8.24v-3.73c-1.29,2.49-3.63,4.28-7.63,4.28C158.15,372.19,154.7,369.34,154.7,363.26Z" fill="#fff"/><path d="M182.85,347.58h8.23v4.78a7.6,7.6,0,0,1,7.78-5.11v7.69c-5-.14-7.78,1.42-7.78,5.29v11.41h-8.23Z" fill="#fff"/><path d="M210.08,367.91v3.73h-8.23V337h8.23v14.17a8.5,8.5,0,0,1,7.5-4.24c5.61,0,10.17,4.24,10.17,12.47v.37c0,8.28-4.56,12.42-10.21,12.42C214,372.19,211.28,370.49,210.08,367.91Zm9.3-8.14v-.37c0-4.23-1.84-6.26-4.74-6.26s-4.79,2.17-4.79,6.21v.37c0,4.1,1.8,6.17,4.79,6.17S219.38,363.72,219.38,359.77Z" fill="#fff"/><path d="M229.45,359.91v-.37c0-7.73,5.75-12.61,13.2-12.61s13.11,4.74,13.11,12.38v.37c0,7.82-5.75,12.51-13.16,12.51S229.45,367.68,229.45,359.91Zm17.94-.14v-.37c0-4-1.61-6.3-4.74-6.3s-4.78,2.16-4.78,6.21v.37c0,4.14,1.61,6.39,4.78,6.39S247.39,363.77,247.39,359.77Z" fill="#fff"/><path d="M257.32,367.5a4.59,4.59,0,0,1,4.7-4.65,4.65,4.65,0,1,1,0,9.29A4.59,4.59,0,0,1,257.32,367.5Z" fill="#fff"/></g></g></svg>