<svg xmlns="http://www.w3.org/2000/svg" viewBox="0 0 300 600"><title>H36</title><g id="Layer_2" data-name="Layer 2"><g id="Rect"><rect width="300" height="600" fill="none"/></g><g id="H36"><g id="Federal_State:_fast_easy_and_at_least_10_cheaper_than_Turbo" data-name="Federal &amp; State: fast, easy and at least $10 cheaper than Turbo"><path d="M22.17,81.74H44.4v7.32H31.65v7H41.82v7H31.65v11.64H22.17Z" fill="#fff"/><path d="M45,102.91v-.37c0-7.73,5.75-12.61,13-12.61,6.57,0,12.23,3.78,12.23,12.42v2.17H53.36c.23,3.17,2.07,5,5,5,2.71,0,3.86-1.24,4.18-2.85h7.73c-.73,5.43-4.92,8.51-12.19,8.51C50.56,115.19,45,110.77,45,102.91Zm17.25-3c-.14-2.9-1.57-4.51-4.23-4.51-2.49,0-4.19,1.61-4.6,4.51Z" fill="#fff"/><path d="M72,102.86v-.37c0-8.19,4.5-12.56,10.21-12.56,3.77,0,6,1.61,7.41,4V80H97.8v34.64H89.57v-3.91a8.12,8.12,0,0,1-7.5,4.46C76.5,115.19,72,111.19,72,102.86Zm17.85-.14v-.37c0-4-1.71-6.21-4.74-6.21s-4.74,2.07-4.74,6.26v.37c0,4,1.79,6.12,4.65,6.12S89.8,106.82,89.8,102.72Z" fill="#fff"/><path d="M100.7,102.91v-.37c0-7.73,5.75-12.61,13-12.61,6.57,0,12.23,3.78,12.23,12.42v2.17H109c.23,3.17,2.07,5,5,5,2.71,0,3.86-1.24,4.18-2.85H126c-.73,5.43-4.92,8.51-12.19,8.51C106.22,115.19,100.7,110.77,100.7,102.91Zm17.25-3c-.14-2.9-1.57-4.51-4.23-4.51-2.49,0-4.19,1.61-4.61,4.51Z" fill="#fff"/><path d="M128.8,90.58H137v4.78a7.58,7.58,0,0,1,7.77-5.11v7.69c-5-.14-7.77,1.42-7.77,5.29v11.41H128.8Z" fill="#fff"/><path d="M145.87,108c0-5.66,4.78-7.87,12.79-7.87H161v-.55c0-2.3-.55-3.82-3.18-3.82a3,3,0,0,0-3.26,2.85h-7.73c.37-5.79,4.92-8.65,11.5-8.65s10.86,2.72,10.86,9.11v15.6h-8v-2.81c-1.15,1.75-3.26,3.36-7.13,3.36C149.69,115.19,145.87,113.07,145.87,108ZM161,106.22v-1.47h-2.17c-3.31,0-4.78.64-4.78,2.62,0,1.38.92,2.25,2.85,2.25C159.21,109.62,161,108.29,161,106.22Z" fill="#fff"/><path d="M173.38,80h8.18v34.64h-8.18Z" fill="#fff"/><path d="M221,107.92l5.47,6.72H215.74l-1.93-2.39a13.13,13.13,0,0,1-8.88,2.94c-7,0-11.55-3.68-11.55-9.94,0-4.23,2.58-7.36,7.23-9.57a10.44,10.44,0,0,1-2-5.75c0-5.61,4.79-8.6,10.58-8.6,5.25,0,10,2.62,10,7.68,0,3.59-2.12,6.21-6.58,8.15l4.14,5.06,2.39-4.7h7.18Zm-11.41-1-5.2-6.25a3.9,3.9,0,0,0-2.21,3.54,3.82,3.82,0,0,0,4.19,4.09A4.29,4.29,0,0,0,209.58,107Zm-1-13.24c2.2-1.06,3.26-2.31,3.26-4a2.37,2.37,0,0,0-2.44-2.53A2.62,2.62,0,0,0,206.68,90C206.68,91.22,207.42,92.37,208.57,93.71Z" fill="#fff"/><path d="M20.06,152.19h9c.23,2.35,1.29,4.28,5.2,4.28,2.71,0,4.23-1.33,4.23-3.26s-1.24-2.58-5.2-3.18c-9.29-1.1-12.42-3.86-12.42-10.49,0-5.93,4.88-10.26,12.74-10.26s12.38,3.32,13,10.26H37.82c-.33-2.34-1.66-3.54-4.24-3.54s-3.81,1.15-3.81,2.81c0,1.84,1,2.67,5.1,3.22,8.33.92,12.61,3.08,12.61,10.21,0,6-4.79,10.95-13.25,10.95C25,163.19,20.33,159.33,20.06,152.19Z" fill="#fff"/><path d="M51.61,154.91V144.19H48.72v-5.61h2.89v-5h8.24v5h4.74v5.61H59.85v9.94c0,1.75.87,2.53,2.44,2.53a6.14,6.14,0,0,0,2.34-.42v6.26a17,17,0,0,1-4.55.69C54.65,163.19,51.61,160.57,51.61,154.91Z" fill="#fff"/><path d="M66.43,156c0-5.66,4.78-7.87,12.78-7.87h2.3v-.55c0-2.3-.55-3.82-3.17-3.82a3,3,0,0,0-3.27,2.85H67.35c.36-5.79,4.92-8.65,11.5-8.65S89.7,140.65,89.7,147v15.6h-8v-2.81c-1.15,1.75-3.27,3.36-7.13,3.36C70.24,163.19,66.43,161.07,66.43,156Zm15.08-1.75v-1.47H79.35c-3.31,0-4.78.64-4.78,2.62,0,1.38.92,2.25,2.85,2.25C79.77,157.62,81.51,156.29,81.51,154.22Z" fill="#fff"/><path d="M94.67,154.91V144.19h-2.9v-5.61h2.9v-5h8.23v5h4.74v5.61H102.9v9.94a2.2,2.2,0,0,0,2.44,2.53,6.23,6.23,0,0,0,2.35-.42v6.26a17.12,17.12,0,0,1-4.56.69C97.71,163.19,94.67,160.57,94.67,154.91Z" fill="#fff"/><path d="M109.48,150.91v-.37c0-7.73,5.75-12.61,13-12.61,6.58,0,12.24,3.78,12.24,12.42v2.17H117.81c.23,3.17,2.07,5,5,5,2.72,0,3.87-1.24,4.19-2.85h7.73c-.74,5.43-4.93,8.51-12.19,8.51C115,163.19,109.48,158.77,109.48,150.91Zm17.25-3c-.14-2.9-1.56-4.51-4.23-4.51-2.48,0-4.19,1.61-4.6,4.51Z" fill="#fff"/><path d="M137.4,145.34a4.62,4.62,0,0,1,4.69-4.65,4.65,4.65,0,1,1,0,9.3A4.59,4.59,0,0,1,137.4,145.34Zm0,13.16a4.62,4.62,0,0,1,4.69-4.65,4.65,4.65,0,1,1,0,9.29A4.62,4.62,0,0,1,137.4,158.5Z" fill="#fff"/><path d="M160.54,144.19h-3v-5.61h3v-2.12c0-6,3.73-8.83,9.43-8.83a14.91,14.91,0,0,1,3.77.5v6a7.63,7.63,0,0,0-2.25-.32c-1.93,0-2.76,1.06-2.76,2.62v2.12h4.88v5.61h-4.88v18.45h-8.19Z" fill="#fff"/><path d="M174.52,156c0-5.66,4.79-7.87,12.79-7.87h2.3v-.55c0-2.3-.55-3.82-3.17-3.82a3,3,0,0,0-3.27,2.85h-7.73c.37-5.79,4.93-8.65,11.5-8.65s10.86,2.72,10.86,9.11v15.6h-8v-2.81c-1.15,1.75-3.27,3.36-7.13,3.36C178.34,163.19,174.52,161.07,174.52,156Zm15.09-1.75v-1.47h-2.16c-3.31,0-4.78.64-4.78,2.62,0,1.38.92,2.25,2.85,2.25C187.86,157.62,189.61,156.29,189.61,154.22Z" fill="#fff"/><path d="M200.19,155h7.59c.28,1.75,1.06,2.71,3.41,2.71,2,0,2.94-.78,2.94-2s-1.15-1.71-4.46-2.17c-6.44-.82-9.16-2.71-9.16-7.72,0-5.34,4.74-7.92,10.31-7.92,5.93,0,10.07,2,10.63,7.78H214c-.32-1.61-1.19-2.39-3.08-2.39s-2.71.78-2.71,1.88,1.1,1.61,4,2c6.68.83,9.89,2.58,9.89,7.73,0,5.7-4.23,8.28-10.9,8.28C204.38,163.19,200.38,160.34,200.19,155Z" fill="#fff"/><path d="M225.91,154.91V144.19H223v-5.61h2.9v-5h8.23v5h4.74v5.61h-4.74v9.94c0,1.75.87,2.53,2.44,2.53a6.14,6.14,0,0,0,2.34-.42v6.26a17,17,0,0,1-4.55.69C228.94,163.19,225.91,160.57,225.91,154.91Z" fill="#fff"/><path d="M240.3,166.36l3.87-12.1L251.8,157l-6.62,11.27Z" fill="#fff"/><path d="M20.15,198.91v-.37c0-7.73,5.75-12.61,13-12.61,6.58,0,12.24,3.78,12.24,12.42v2.17H28.48c.23,3.17,2.07,5,5,5,2.72,0,3.87-1.24,4.19-2.85h7.73c-.74,5.43-4.93,8.51-12.19,8.51C25.67,211.19,20.15,206.77,20.15,198.91Zm17.25-3c-.14-2.9-1.56-4.51-4.23-4.51-2.48,0-4.19,1.61-4.6,4.51Z" fill="#fff"/><path d="M47.11,204c0-5.66,4.78-7.87,12.78-7.87h2.3v-.55c0-2.3-.55-3.82-3.17-3.82a3,3,0,0,0-3.27,2.85H48c.36-5.79,4.92-8.65,11.5-8.65s10.85,2.72,10.85,9.11v15.6h-8v-2.81c-1.15,1.75-3.27,3.36-7.13,3.36C50.92,211.19,47.11,209.07,47.11,204Zm15.08-1.75v-1.47H60c-3.31,0-4.78.64-4.78,2.62,0,1.38.92,2.25,2.85,2.25C60.45,205.62,62.19,204.29,62.19,202.22Z" fill="#fff"/><path d="M72.77,203h7.59c.28,1.75,1.06,2.71,3.41,2.71,2,0,2.94-.78,2.94-2s-1.15-1.71-4.46-2.17c-6.44-.82-9.16-2.71-9.16-7.72,0-5.34,4.74-7.92,10.31-7.92,5.93,0,10.08,2,10.63,7.78H86.57c-.32-1.61-1.19-2.39-3.08-2.39s-2.71.78-2.71,1.88,1.1,1.61,4,2c6.67.83,9.89,2.58,9.89,7.73,0,5.7-4.24,8.28-10.91,8.28C77,211.19,73,208.34,72.77,203Z" fill="#fff"/><path d="M104.15,208.2l-9.62-21.62h8.93l5,12.83,4.6-12.83h7.87L108,218.69h-7.87Z" fill="#fff"/><path d="M130,204c0-5.66,4.78-7.87,12.79-7.87h2.3v-.55c0-2.3-.56-3.82-3.18-3.82a3,3,0,0,0-3.26,2.85h-7.73c.36-5.79,4.92-8.65,11.5-8.65s10.85,2.72,10.85,9.11v15.6h-8v-2.81c-1.15,1.75-3.27,3.36-7.13,3.36C133.81,211.19,130,209.07,130,204Zm15.09-1.75v-1.47h-2.17c-3.31,0-4.78.64-4.78,2.62,0,1.38.92,2.25,2.85,2.25C143.34,205.62,145.09,204.29,145.09,202.22Z" fill="#fff"/><path d="M157.27,186.58h8.24v3.86a8.5,8.5,0,0,1,7.91-4.51c4.65,0,7.87,2.9,7.87,9.07v15.64h-8.24v-14c0-2.71-1.05-4.05-3.45-4.05s-4.09,1.48-4.09,4.56v13.48h-8.24Z" fill="#fff"/><path d="M184.09,198.86v-.37c0-8.19,4.51-12.56,10.21-12.56,3.78,0,6,1.61,7.41,4V176H210v34.64h-8.24v-3.91a8.11,8.11,0,0,1-7.5,4.46C188.65,211.19,184.09,207.19,184.09,198.86Zm17.85-.14v-.37c0-4-1.7-6.21-4.74-6.21s-4.74,2.07-4.74,6.26v.37c0,4,1.8,6.12,4.65,6.12S201.94,202.82,201.94,198.72Z" fill="#fff"/><path d="M20.06,252c0-5.66,4.78-7.87,12.79-7.87h2.3v-.55c0-2.3-.55-3.82-3.18-3.82a3,3,0,0,0-3.26,2.85H21c.37-5.79,4.92-8.65,11.5-8.65s10.86,2.72,10.86,9.11v15.6h-8v-2.81c-1.15,1.75-3.26,3.36-7.13,3.36C23.88,259.19,20.06,257.07,20.06,252Zm15.09-1.75v-1.47H33c-3.32,0-4.79.64-4.79,2.62,0,1.38.92,2.25,2.85,2.25C33.4,253.62,35.15,252.29,35.15,250.22Z" fill="#fff"/><path d="M48.3,250.91V240.19H45.4v-5.61h2.9v-5h8.24v5h4.74v5.61H56.54v9.94c0,1.75.87,2.53,2.44,2.53a6.14,6.14,0,0,0,2.34-.42v6.26a17.1,17.1,0,0,1-4.55.69C51.34,259.19,48.3,256.57,48.3,250.91Z" fill="#fff"/><path d="M73,224h8.19v34.64H73Z" fill="#fff"/><path d="M84.32,246.91v-.37c0-7.73,5.75-12.61,13-12.61,6.58,0,12.24,3.78,12.24,12.42v2.17H92.65c.23,3.17,2.07,5,5,5,2.71,0,3.86-1.24,4.19-2.85h7.73c-.74,5.43-4.93,8.51-12.2,8.51C89.84,259.19,84.32,254.77,84.32,246.91Zm17.25-3c-.14-2.9-1.56-4.51-4.23-4.51-2.49,0-4.19,1.61-4.6,4.51Z" fill="#fff"/><path d="M111.27,252c0-5.66,4.79-7.87,12.79-7.87h2.3v-.55c0-2.3-.55-3.82-3.17-3.82a3,3,0,0,0-3.27,2.85h-7.73c.37-5.79,4.93-8.65,11.51-8.65s10.85,2.72,10.85,9.11v15.6h-8v-2.81c-1.15,1.75-3.27,3.36-7.13,3.36C115.09,259.19,111.27,257.07,111.27,252Zm15.09-1.75v-1.47H124.2c-3.31,0-4.78.64-4.78,2.62,0,1.38.92,2.25,2.85,2.25C124.62,253.62,126.36,252.29,126.36,250.22Z" fill="#fff"/><path d="M136.94,251h7.59c.28,1.75,1.06,2.71,3.41,2.71,2,0,2.94-.78,2.94-2s-1.15-1.71-4.46-2.17c-6.44-.82-9.16-2.71-9.16-7.72,0-5.34,4.74-7.92,10.31-7.92,5.93,0,10.07,2,10.63,7.78h-7.46c-.32-1.61-1.19-2.39-3.08-2.39s-2.71.78-2.71,1.88,1.1,1.61,4,2c6.68.83,9.9,2.58,9.9,7.73,0,5.7-4.24,8.28-10.91,8.28C141.13,259.19,137.13,256.34,136.94,251Z" fill="#fff"/><path d="M162.66,250.91V240.19h-2.9v-5.61h2.9v-5h8.23v5h4.74v5.61h-4.74v9.94c0,1.75.87,2.53,2.44,2.53a6.14,6.14,0,0,0,2.34-.42v6.26a17,17,0,0,1-4.55.69C165.69,259.19,162.66,256.57,162.66,250.91Z" fill="#fff"/><path d="M26.73,291.59c-4.65-.32-6.9-2.79-7.09-6.33h5a2.53,2.53,0,0,0,2.12,2.52v-3.92c-4.67-.67-6.66-2.36-6.66-6.09,0-3.24,2.55-5.58,6.66-5.87v-2.39h2.09v2.42c3.89.32,6.19,2.11,6.52,5.79H30.48a2.13,2.13,0,0,0-1.66-2v3.7c4.1.59,6.78,2,6.78,5.87,0,3.28-2.11,6-6.78,6.31v3.35H26.73Zm0-12.5v-3.44c-1.21.22-1.83.86-1.83,1.72S25.28,278.79,26.73,279.09Zm2.09,5.12v3.57a1.94,1.94,0,0,0,1.8-1.91C30.62,285,30.24,284.53,28.82,284.21Z" fill="#fff"/><path d="M43.68,283l-6.26,3.86V279L45,273.74h8.14v32.9H43.68Z" fill="#fff"/><path d="M57.61,290.9v-1.38c0-10.39,6.49-16.24,15.19-16.24S88,278.67,88,289.34v1.29c0,10.44-6,16.56-15.37,16.56C63.41,307.19,57.61,301.25,57.61,290.9Zm20.94-.09v-1.33c0-6-1.75-9.07-5.75-9.07s-5.75,3-5.75,9.07v1.38c0,6.12,1.79,9,5.84,9S78.55,296.88,78.55,290.81Z" fill="#fff"/><path d="M98.46,294.91v-.37c0-8,5.75-12.61,12.84-12.61,5.89,0,11.31,2.58,11.77,9.89h-7.72c-.37-2.25-1.48-3.49-3.87-3.49-2.9,0-4.6,2.07-4.6,6.12v.36c0,4.19,1.61,6.35,4.74,6.35,2.3,0,3.91-1.38,4.19-4h7.4c-.23,6.07-4.32,10-12.1,10C103.94,307.19,98.46,303,98.46,294.91Z" fill="#fff"/><path d="M125.88,272h8.23v14.44a8.51,8.51,0,0,1,7.92-4.51c4.64,0,7.86,2.9,7.86,9.07v15.64h-8.23v-14c0-2.71-1.06-4-3.45-4s-4.1,1.48-4.1,4.56v13.48h-8.23Z" fill="#fff"/><path d="M152.6,294.91v-.37c0-7.73,5.75-12.61,13-12.61,6.58,0,12.24,3.78,12.24,12.42v2.17H160.93c.23,3.17,2.07,5,5,5,2.71,0,3.86-1.24,4.18-2.85h7.73c-.74,5.43-4.92,8.51-12.19,8.51C158.12,307.19,152.6,302.77,152.6,294.91Zm17.26-3c-.14-2.9-1.57-4.51-4.24-4.51-2.48,0-4.18,1.61-4.6,4.51Z" fill="#fff"/><path d="M179.56,300c0-5.66,4.78-7.87,12.79-7.87h2.3v-.55c0-2.3-.55-3.82-3.18-3.82a3,3,0,0,0-3.26,2.85h-7.73c.37-5.79,4.92-8.65,11.5-8.65s10.86,2.72,10.86,9.11v15.6h-8v-2.81c-1.15,1.75-3.26,3.36-7.13,3.36C183.38,307.19,179.56,305.07,179.56,300Zm15.09-1.75v-1.47h-2.16c-3.32,0-4.79.64-4.79,2.62,0,1.38.92,2.25,2.85,2.25C192.9,301.62,194.65,300.29,194.65,298.22Z" fill="#fff"/><path d="M206.84,282.58h8.23v3.59a8.48,8.48,0,0,1,7.5-4.24c5.61,0,10.17,4.24,10.17,12.47v.37c0,8.28-4.56,12.42-10.22,12.42-3.63,0-6.25-1.7-7.45-4.1v11.6h-8.23Zm17.52,12.19v-.37c0-4.23-1.84-6.26-4.73-6.26s-4.79,2.17-4.79,6.21v.37c0,4.1,1.79,6.17,4.79,6.17S224.36,298.72,224.36,294.77Z" fill="#fff"/><path d="M234.44,294.91v-.37c0-7.73,5.75-12.61,13-12.61,6.57,0,12.23,3.78,12.23,12.42v2.17H242.76c.23,3.17,2.07,5,5,5,2.71,0,3.86-1.24,4.18-2.85h7.73c-.73,5.43-4.92,8.51-12.19,8.51C240,307.19,234.44,302.77,234.44,294.91Zm17.25-3c-.14-2.9-1.57-4.51-4.23-4.51-2.49,0-4.19,1.61-4.61,4.51Z" fill="#fff"/><path d="M262.54,282.58h8.24v4.78a7.58,7.58,0,0,1,7.77-5.11v7.69c-5-.14-7.77,1.42-7.77,5.29v11.41h-8.24Z" fill="#fff"/><path d="M22.54,346.91V336.19h-2.9v-5.61h2.9v-5h8.24v5h4.74v5.61H30.78v9.94c0,1.75.87,2.53,2.44,2.53a6.14,6.14,0,0,0,2.34-.42v6.26a17.1,17.1,0,0,1-4.55.69C25.58,355.19,22.54,352.57,22.54,346.91Z" fill="#fff"/><path d="M38.64,320h8.24v14.44a8.5,8.5,0,0,1,7.91-4.51c4.65,0,7.87,2.9,7.87,9.07v15.64H54.42v-14c0-2.71-1.06-4-3.45-4s-4.09,1.48-4.09,4.56v13.48H38.64Z" fill="#fff"/><path d="M65.28,348c0-5.66,4.78-7.87,12.78-7.87h2.31v-.55c0-2.3-.56-3.82-3.18-3.82a3,3,0,0,0-3.27,2.85H66.2c.36-5.79,4.92-8.65,11.5-8.65s10.85,2.72,10.85,9.11v15.6h-8v-2.81c-1.15,1.75-3.27,3.36-7.13,3.36C69.09,355.19,65.28,353.07,65.28,348Zm15.09-1.75v-1.47H78.2c-3.31,0-4.78.64-4.78,2.62,0,1.38.92,2.25,2.85,2.25C78.62,349.62,80.37,348.29,80.37,346.22Z" fill="#fff"/><path d="M92.55,330.58h8.24v3.86a8.5,8.5,0,0,1,7.91-4.51c4.65,0,7.87,2.9,7.87,9.07v15.64h-8.24v-14c0-2.71-1.06-4-3.45-4s-4.09,1.48-4.09,4.56v13.48H92.55Z" fill="#fff"/><path d="M28.48,377H20v-7.27h26.5V377H38v25.63H28.48Z" fill="#fff"/><path d="M47.2,394.26V378.58h8.23v14.35c0,2.71,1.06,4.05,3.41,4.05s4.09-1.47,4.09-4.56V378.58h8.24v24.06H62.93v-3.73c-1.29,2.49-3.63,4.28-7.63,4.28C50.65,403.19,47.2,400.34,47.2,394.26Z" fill="#fff"/><path d="M75.35,378.58h8.23v4.78a7.6,7.6,0,0,1,7.78-5.11v7.69c-5-.14-7.78,1.42-7.78,5.29v11.41H75.35Z" fill="#fff"/><path d="M102.58,398.91v3.73H94.35V368h8.23v14.17a8.5,8.5,0,0,1,7.5-4.24c5.61,0,10.17,4.24,10.17,12.47v.37c0,8.28-4.56,12.42-10.21,12.42C106.45,403.19,103.78,401.49,102.58,398.91Zm9.3-8.14v-.37c0-4.23-1.84-6.26-4.74-6.26s-4.79,2.17-4.79,6.21v.37c0,4.1,1.8,6.17,4.79,6.17S111.88,394.72,111.88,390.77Z" fill="#fff"/><path d="M122,390.91v-.37c0-7.73,5.75-12.61,13.2-12.61s13.11,4.74,13.11,12.38v.37c0,7.82-5.75,12.51-13.16,12.51S122,398.68,122,390.91Zm17.94-.14v-.37c0-4-1.61-6.3-4.74-6.3s-4.78,2.16-4.78,6.21v.37c0,4.14,1.61,6.39,4.78,6.39S139.89,394.77,139.89,390.77Z" fill="#fff"/><path d="M158.2,377h-8.51v-7.27h26.49V377h-8.51v25.63H158.2Z" fill="#fff"/><path d="M174.53,396c0-5.66,4.78-7.87,12.78-7.87h2.31v-.55c0-2.3-.56-3.82-3.18-3.82a3,3,0,0,0-3.27,2.85h-7.72c.36-5.79,4.92-8.65,11.5-8.65s10.85,2.72,10.85,9.11v15.6h-8v-2.81c-1.15,1.75-3.27,3.36-7.13,3.36C178.34,403.19,174.53,401.07,174.53,396Zm15.09-1.75v-1.47h-2.17c-3.31,0-4.78.64-4.78,2.62,0,1.38.92,2.25,2.85,2.25C187.87,397.62,189.62,396.29,189.62,394.22Z" fill="#fff"/><path d="M207.88,390.4l-7.5-11.82h9.47l3.73,6.35,3.63-6.35h8.47l-7.59,11.18,8.33,12.88h-9.48l-4.28-7.18-4.37,7.18h-8.42Z" fill="#fff"/><path d="M228.07,398.5a4.59,4.59,0,0,1,4.69-4.65,4.65,4.65,0,1,1,0,9.29A4.59,4.59,0,0,1,228.07,398.5Z" fill="#fff"/></g></g></g></svg>