<svg xmlns="http://www.w3.org/2000/svg" viewBox="0 0 160 600"><title>H23 T3</title><g id="Layer_2" data-name="Layer 2"><g id="Rect"><rect width="160" height="600" fill="none"/></g><g id="H23_T3" data-name="H23 T3"><g id="Your_maximum_refund_guaranteed." data-name="Your  maximum refund, guaranteed."><path d="M25,181.27l-4.89-8.57h4.68l2.54,5.05,2.53-5.05H34l-4.66,8.57v6.42H25Z" fill="#fff"/><path d="M32.37,182.34v-.16c0-3.53,2.62-5.75,6-5.75s6,2.16,6,5.64v.17c0,3.56-2.62,5.7-6,5.7S32.37,185.89,32.37,182.34Zm8.18-.06v-.17c0-1.84-.73-2.87-2.16-2.87s-2.18,1-2.18,2.83v.17c0,1.89.74,2.91,2.18,2.91S40.55,184.1,40.55,182.28Z" fill="#fff"/><path d="M45.61,183.87v-7.14h3.76v6.54c0,1.23.48,1.84,1.55,1.84s1.87-.67,1.87-2.07v-6.31h3.75v11H52.79V186a3.62,3.62,0,0,1-3.49,1.95C47.18,187.94,45.61,186.64,45.61,183.87Z" fill="#fff"/><path d="M58.45,176.73H62.2v2.18a3.47,3.47,0,0,1,3.55-2.33v3.5c-2.29-.06-3.55.65-3.55,2.41v5.2H58.45Z" fill="#fff"/><path d="M21,204.73h3.76v1.67a3.83,3.83,0,0,1,3.44-2,3,3,0,0,1,3,1.83,4.34,4.34,0,0,1,3.63-1.83c2.07,0,3.59,1.34,3.59,4.09v7.17H34.66v-6.54c0-1.11-.55-1.66-1.41-1.66a1.63,1.63,0,0,0-1.67,1.85v6.35H27.86v-6.54c0-1.11-.54-1.66-1.4-1.66a1.63,1.63,0,0,0-1.68,1.85v6.35H21Z" fill="#fff"/><path d="M39.61,212.65c0-2.58,2.18-3.59,5.83-3.59h1.05v-.25c0-1-.25-1.74-1.45-1.74a1.36,1.36,0,0,0-1.49,1.3H40c.17-2.64,2.24-3.94,5.24-3.94s5,1.24,5,4.15v7.11H46.58v-1.28a3.61,3.61,0,0,1-3.26,1.53C41.35,215.94,39.61,215,39.61,212.65Zm6.88-.8v-.67h-1c-1.51,0-2.18.3-2.18,1.2,0,.63.42,1,1.3,1C45.69,213.4,46.49,212.8,46.49,211.85Z" fill="#fff"/><path d="M54.82,210.11l-3.42-5.38h4.32l1.7,2.89,1.66-2.89h3.86l-3.46,5.09,3.79,5.87H59l-2-3.27-2,3.27H51.17Z" fill="#fff"/><path d="M64.24,201.75a2,2,0,0,1,2.05-1.95,1.94,1.94,0,1,1,0,3.88A1.94,1.94,0,0,1,64.24,201.75Zm.19,3h3.75v11H64.43Z" fill="#fff"/><path d="M70.2,204.73H74v1.67a3.83,3.83,0,0,1,3.44-2,3,3,0,0,1,3,1.83A4.37,4.37,0,0,1,84,204.43c2.08,0,3.59,1.34,3.59,4.09v7.17H83.83v-6.54c0-1.11-.54-1.66-1.4-1.66a1.63,1.63,0,0,0-1.68,1.85v6.35H77v-6.54c0-1.11-.55-1.66-1.41-1.66A1.63,1.63,0,0,0,74,209.34v6.35H70.2Z" fill="#fff"/><path d="M89.33,211.87v-7.14h3.75v6.54c0,1.23.49,1.84,1.56,1.84s1.86-.67,1.86-2.07v-6.31h3.76v11H96.5V214A3.59,3.59,0,0,1,93,215.94C90.9,215.94,89.33,214.64,89.33,211.87Z" fill="#fff"/><path d="M102.17,204.73h3.75v1.67a3.85,3.85,0,0,1,3.45-2,3,3,0,0,1,3,1.83,4.37,4.37,0,0,1,3.63-1.83c2.08,0,3.59,1.34,3.59,4.09v7.17h-3.75v-6.54c0-1.11-.55-1.66-1.41-1.66a1.63,1.63,0,0,0-1.68,1.85v6.35H109v-6.54c0-1.11-.55-1.66-1.41-1.66a1.63,1.63,0,0,0-1.68,1.85v6.35h-3.75Z" fill="#fff"/><path d="M21,232.73h3.76v2.18a3.45,3.45,0,0,1,3.54-2.33v3.5c-2.28-.06-3.54.65-3.54,2.41v5.2H21Z" fill="#fff"/><path d="M29,238.34v-.16a5.62,5.62,0,0,1,5.94-5.75c3,0,5.58,1.72,5.58,5.66v1H32.79a2.2,2.2,0,0,0,2.29,2.28c1.24,0,1.76-.56,1.91-1.3h3.52c-.33,2.48-2.24,3.88-5.56,3.88S29,241.93,29,238.34ZM36.86,237c-.06-1.32-.71-2.05-1.93-2.05a2.09,2.09,0,0,0-2.1,2.05Z" fill="#fff"/><path d="M42.38,235.28H41v-2.55h1.39v-1c0-2.72,1.7-4,4.3-4a6.51,6.51,0,0,1,1.72.23v2.74a3.6,3.6,0,0,0-1-.14,1.1,1.1,0,0,0-1.26,1.19v1h2.23v2.55H46.11v8.41H42.38Z" fill="#fff"/><path d="M49.51,239.87v-7.14h3.76v6.54c0,1.23.48,1.84,1.55,1.84s1.87-.67,1.87-2.07v-6.31h3.75v11H56.69V242a3.62,3.62,0,0,1-3.49,1.95C51.09,243.94,49.51,242.64,49.51,239.87Z" fill="#fff"/><path d="M62.35,232.73h3.76v1.76a3.85,3.85,0,0,1,3.6-2.06c2.12,0,3.59,1.32,3.59,4.13v7.13H69.55v-6.37c0-1.24-.49-1.85-1.58-1.85s-1.86.67-1.86,2.08v6.14H62.35Z" fill="#fff"/><path d="M74.58,238.32v-.16c0-3.74,2.06-5.73,4.66-5.73a3.57,3.57,0,0,1,3.38,1.85V227.9h3.75v15.79H82.62v-1.78a3.71,3.71,0,0,1-3.42,2C76.66,243.94,74.58,242.12,74.58,238.32Zm8.14-.06v-.17c0-1.84-.77-2.83-2.16-2.83s-2.16,1-2.16,2.85v.17c0,1.85.82,2.79,2.12,2.79S82.72,240.13,82.72,238.26Z" fill="#fff"/><path d="M87.5,245.39l1.77-5.52,3.48,1.24-3,5.14Z" fill="#fff"/><path d="M20.41,271.69h3.74c.17.8.65,1.43,2,1.43a2.08,2.08,0,0,0,2.33-2.31v-1.68a3.85,3.85,0,0,1-3.4,2c-2.56,0-4.66-1.89-4.66-5.27v-.17c0-3.22,2.08-5.28,4.66-5.28a3.58,3.58,0,0,1,3.4,1.85v-1.55h3.76v10c0,3.27-2.16,5-6.09,5C22.43,275.76,20.71,274.19,20.41,271.69Zm8.19-5.83v-.15c0-1.5-.78-2.47-2.16-2.47s-2.17,1-2.17,2.5v.16c0,1.51.8,2.48,2.14,2.48S28.6,267.41,28.6,265.86Z" fill="#fff"/><path d="M34.07,267.87v-7.14h3.76v6.54c0,1.23.48,1.84,1.55,1.84s1.87-.67,1.87-2.07v-6.31H45v11H41.25V270a3.62,3.62,0,0,1-3.49,1.95C35.64,271.94,34.07,270.64,34.07,267.87Z" fill="#fff"/><path d="M46.28,268.65c0-2.58,2.18-3.59,5.83-3.59h1v-.25c0-1-.25-1.74-1.45-1.74a1.36,1.36,0,0,0-1.49,1.3H46.7c.17-2.64,2.24-3.94,5.24-3.94s5,1.24,5,4.15v7.11H53.25v-1.28A3.61,3.61,0,0,1,50,271.94C48,271.94,46.28,271,46.28,268.65Zm6.88-.8v-.67h-1c-1.51,0-2.19.3-2.19,1.2,0,.63.42,1,1.3,1C52.36,269.4,53.16,268.8,53.16,267.85Z" fill="#fff"/><path d="M58.72,260.73h3.76v2.18A3.45,3.45,0,0,1,66,260.58v3.5c-2.29-.06-3.54.65-3.54,2.41v5.2H58.72Z" fill="#fff"/><path d="M66.5,268.65c0-2.58,2.19-3.59,5.84-3.59h1v-.25c0-1-.26-1.74-1.45-1.74a1.35,1.35,0,0,0-1.49,1.3H66.92c.17-2.64,2.25-3.94,5.25-3.94s5,1.24,5,4.15v7.11H73.47v-1.28a3.6,3.6,0,0,1-3.25,1.53C68.25,271.94,66.5,271,66.5,268.65Zm6.89-.8v-.67h-1c-1.51,0-2.18.3-2.18,1.2,0,.63.42,1,1.3,1C72.59,269.4,73.39,268.8,73.39,267.85Z" fill="#fff"/><path d="M78.94,260.73H82.7v1.76a3.86,3.86,0,0,1,3.61-2.06c2.12,0,3.59,1.32,3.59,4.13v7.13H86.14v-6.37c0-1.24-.48-1.85-1.57-1.85s-1.87.67-1.87,2.08v6.14H78.94Z" fill="#fff"/><path d="M92.22,268.17v-4.89H90.9v-2.55h1.32v-2.29H96v2.29h2.16v2.55H96v4.53c0,.8.4,1.15,1.11,1.15a3,3,0,0,0,1.07-.18v2.85a8.18,8.18,0,0,1-2.08.31C93.61,271.94,92.22,270.75,92.22,268.17Z" fill="#fff"/><path d="M99,266.34v-.16a5.61,5.61,0,0,1,5.94-5.75c3,0,5.58,1.72,5.58,5.66v1h-7.72a2.18,2.18,0,0,0,2.28,2.28c1.24,0,1.76-.56,1.91-1.3h3.53c-.34,2.48-2.25,3.88-5.56,3.88S99,269.93,99,266.34Zm7.87-1.38c-.07-1.32-.72-2-1.93-2a2.08,2.08,0,0,0-2.1,2Z" fill="#fff"/><path d="M111.21,266.34v-.16a5.61,5.61,0,0,1,5.94-5.75c3,0,5.58,1.72,5.58,5.66v1H115a2.18,2.18,0,0,0,2.28,2.28c1.24,0,1.76-.56,1.91-1.3h3.53c-.34,2.48-2.25,3.88-5.56,3.88S111.21,269.93,111.21,266.34Zm7.87-1.38c-.07-1.32-.72-2-1.93-2a2.08,2.08,0,0,0-2.1,2Z" fill="#fff"/><path d="M123.48,266.32v-.16c0-3.74,2.06-5.73,4.66-5.73a3.57,3.57,0,0,1,3.38,1.85V255.9h3.75v15.79h-3.75v-1.78a3.71,3.71,0,0,1-3.42,2C125.56,271.94,123.48,270.12,123.48,266.32Zm8.14-.06v-.17c0-1.84-.78-2.83-2.16-2.83s-2.16.95-2.16,2.85v.17c0,1.85.82,2.79,2.12,2.79S131.62,268.13,131.62,266.26Z" fill="#fff"/><path d="M137,269.8a2.09,2.09,0,0,1,2.14-2.11,2.12,2.12,0,1,1,0,4.23A2.09,2.09,0,0,1,137,269.8Z" fill="#fff"/></g></g></g></svg>