<svg xmlns="http://www.w3.org/2000/svg" viewBox="0 0 300 115"><title>footer</title><g id="Layer_2" data-name="Layer 2"><g id="footer"><rect width="300" height="115" fill="#fff"/><rect x="147.57" y="39.67" width="133" height="35" fill="#f5cc02"/><path d="M161.16,50.36h7.49v2.07H163.8v3.08h3.83v2H163.8V62h-2.64Z" fill="#262626"/><path d="M169.67,51A1.35,1.35,0,1,1,171,52.33,1.3,1.3,0,0,1,169.67,51Zm.18,2.45h2.35V62h-2.35Z" fill="#262626"/><path d="M174.12,53.49h2.37v1.35a3,3,0,0,1,2.77-1.55c1.68,0,2.87,1,2.87,3.3V62h-2.36V56.93c0-1.16-.46-1.71-1.5-1.71a1.69,1.69,0,0,0-1.78,1.88V62h-2.37Z" fill="#262626"/><path d="M183.4,57.88v-.13c0-2.81,1.62-4.46,3.75-4.46a2.84,2.84,0,0,1,2.69,1.47V49.62h2.35V62h-2.35V60.6a3.09,3.09,0,0,1-2.74,1.6C185,62.2,183.4,60.72,183.4,57.88Zm6.51-.08v-.13c0-1.7-.75-2.56-2-2.56s-2.06.89-2.06,2.59v.13c0,1.7.82,2.53,2,2.53S189.91,59.53,189.91,57.8Z" fill="#262626"/><path d="M200.56,50.36H204L207.78,62H205l-.8-2.59H200L199.2,62h-2.48Zm0,7.19h3.09l-1.54-5Z" fill="#262626"/><path d="M208.92,53.49h2.36v1.35a3,3,0,0,1,2.78-1.55c1.68,0,2.87,1,2.87,3.3V62h-2.37V56.93c0-1.16-.45-1.71-1.5-1.71a1.69,1.69,0,0,0-1.78,1.88V62h-2.36Z" fill="#262626"/><path d="M221.69,56.26v-.13a5.76,5.76,0,0,1,6-5.93,5.66,5.66,0,0,1,6,5.87v.13a6,6,0,0,1-12,.06Zm9.25,0V56.1c0-2.27-1.21-3.82-3.25-3.82s-3.25,1.49-3.25,3.84v.13c0,2.38,1.37,3.85,3.28,3.85S230.94,58.58,230.94,56.23Z" fill="#262626"/><path d="M235.65,55.17h-1.13V53.49h1.13v-.88a2.72,2.72,0,0,1,3-3,4,4,0,0,1,1.21.18v1.77a2.87,2.87,0,0,0-.85-.13c-.74,0-1,.45-1,1.12v.93h2.79v-1a2.72,2.72,0,0,1,3.05-3,4.08,4.08,0,0,1,1.23.16v1.78a2.62,2.62,0,0,0-.87-.15,1,1,0,0,0-1.06,1.13v1H245v1.68h-1.86V62h-2.35V55.17H238V62h-2.34Z" fill="#262626"/><path d="M246.08,51a1.35,1.35,0,1,1,1.34,1.29A1.3,1.3,0,0,1,246.08,51Zm.18,2.45h2.35V62h-2.35Z" fill="#262626"/><path d="M250,57.86v-.13a4.24,4.24,0,0,1,4.4-4.44c2,0,3.8.87,4,3.32h-2.24a1.57,1.57,0,0,0-1.73-1.46c-1.22,0-2,.92-2,2.55v.13c0,1.71.77,2.59,2.09,2.59a1.73,1.73,0,0,0,1.83-1.64h2.14c-.13,2-1.6,3.42-4.08,3.42A4.1,4.1,0,0,1,250,57.86Z" fill="#262626"/><path d="M259.19,57.86v-.13a4.24,4.24,0,0,1,4.39-4.44c2.2,0,4.16,1.29,4.16,4.34v.66h-6.15a2,2,0,0,0,2.12,2.23c1.09,0,1.63-.47,1.78-1.19h2.23c-.28,1.84-1.74,2.87-4.08,2.87A4.14,4.14,0,0,1,259.19,57.86Zm6.25-1c-.08-1.28-.74-1.9-1.86-1.9a2,2,0,0,0-2,1.9Z" fill="#262626"/><path d="M42.15,68.21c0,1.2,1.22,1.71,2.1,1.71a2.66,2.66,0,0,0,1.35-.35C45.15,69.08,43,66.7,43,66.7A1.85,1.85,0,0,0,42.15,68.21Z" fill="#14aa40"/><path d="M60.25,64.16a1.4,1.4,0,0,0-1.5-1.58h-2V65.7h2A1.42,1.42,0,0,0,60.25,64.16Z" fill="#14aa40"/><path d="M31.93,83.81h-2.7V86H32a1,1,0,0,0,1-1.11A1,1,0,0,0,31.93,83.81Z" fill="#14aa40"/><path d="M32.13,80a1,1,0,0,0-1-1H29.26v2.08h1.89A1,1,0,0,0,32.13,80Z" fill="#14aa40"/><path d="M55.09,79.1c-1.38,0-2.14.82-2.14,2.32v2.12c0,1.5.76,2.32,2.14,2.32s2.14-.82,2.14-2.32V81.42C57.23,79.92,56.46,79.1,55.09,79.1Z" fill="#14aa40"/><path d="M90.32,76.51h-.09v.2h.09a.1.1,0,1,0,0-.2Z" fill="#14aa40"/><path d="M90.3,75.92a.85.85,0,0,0,0,1.69.85.85,0,1,0,0-1.69Zm.12,1.27-.13-.26h-.06v.26h-.29v-.91h.42c.24,0,.36.12.36.33a.31.31,0,0,1-.14.27l.18.31Z" fill="#14aa40"/><path d="M19.76,19.67v75h75v-75Zm33,39.66h6.51c3.3,0,5.1,2,5.1,4.81a4.48,4.48,0,0,1-2.23,4.09l2.58,4.1H59.94l-2-3.41H56.78v3.41H52.71ZM32.23,89H25.39V76h6.74C34.57,76,36,77.39,36,79.34a3.12,3.12,0,0,1-1.71,2.92,2.94,2.94,0,0,1,2.51,3C36.8,87.48,35.2,89,32.23,89Zm4.64-16.65H32.8V67.67H29.46v4.66H25.39v-13h4.07V64H32.8V59.33h4.07ZM47.81,89H38.47V76h4.06v9.63h5.28Zm-.28-17.27a5.91,5.91,0,0,1-3.2.88c-3.58,0-5.61-1.71-5.61-4.29a3.88,3.88,0,0,1,2.36-3.56A3.06,3.06,0,0,1,40,62.47c0-2,1.66-3.4,4.24-3.4,2.38,0,4.09,1.26,4.09,3.32v.82h-3.1v-.63a.84.84,0,0,0-.92-.89.83.83,0,0,0-.92.83,1.62,1.62,0,0,0,.48,1.07l3,3.38V65.06h2.87v2a5.09,5.09,0,0,1-.51,2.5l2.46,2.74H48.11ZM61.29,83.3c0,3.53-2.13,5.94-6.2,5.94s-6.21-2.41-6.21-5.94V81.66c0-3.53,2.14-5.94,6.21-5.94s6.2,2.41,6.2,5.94Zm7.54,2.56a1.9,1.9,0,0,0,2-1.93H74.7c-.09,2.93-2.13,5.31-5.79,5.31-4.2,0-6.21-2.38-6.21-5.91v-1.7c0-3.54,2-5.91,6.21-5.91,3.66,0,5.7,2.37,5.79,5.31H70.85a1.9,1.9,0,0,0-2-1.93c-1.39,0-2.06.91-2.06,2.34v2.08C66.77,85,67.44,85.86,68.83,85.86ZM84,89l-2.68-5.41H81V89H76.92V76H81V80.5h.26L83.88,76h4.56L85,81.84,88.83,89ZM90.3,77.81a1,1,0,1,1,1.08-1A1,1,0,0,1,90.3,77.81Z" fill="#14aa40"/></g></g></svg>