<svg xmlns="http://www.w3.org/2000/svg" viewBox="0 0 300 600"><title>txt1</title><g id="Layer_2" data-name="Layer 2"><g id="txt1"><path d="M28.51,106.12h-8v-6.8H45.32v6.8h-8v23.95H28.51Z" fill="#fff"/><path d="M44.07,119.1v-.34c0-7.22,5.38-11.78,12.34-11.78s12.26,4.43,12.26,11.56v.35c0,7.31-5.38,11.69-12.3,11.69S44.07,126.37,44.07,119.1ZM60.84,119v-.34c0-3.78-1.5-5.89-4.43-5.89s-4.47,2-4.47,5.8v.35c0,3.87,1.51,6,4.47,6S60.84,122.72,60.84,119Z" fill="#fff"/><path d="M88.19,126.59v3.48h-7.7V97.69h7.7v13.24a7.93,7.93,0,0,1,7-4c5.24,0,9.5,4,9.5,11.65V119c0,7.74-4.26,11.61-9.54,11.61C91.8,130.58,89.31,129,88.19,126.59ZM96.88,119v-.34c0-4-1.72-5.85-4.43-5.85s-4.47,2-4.47,5.81v.34c0,3.83,1.67,5.76,4.47,5.76S96.88,122.67,96.88,119Z" fill="#fff"/><path d="M106.94,119.1v-.34c0-7.22,5.37-11.78,12.17-11.78,6.15,0,11.43,3.52,11.43,11.61v2H114.72c.22,3,1.94,4.69,4.69,4.69,2.53,0,3.61-1.17,3.91-2.67h7.22c-.68,5.07-4.6,8-11.39,8C112.1,130.58,106.94,126.46,106.94,119.1Zm16.12-2.83c-.13-2.71-1.46-4.22-4-4.22-2.33,0-3.92,1.51-4.3,4.22Z" fill="#fff"/><path d="M21.93,152.58h7.7v3.35a7.93,7.93,0,0,1,7-4c5.25,0,9.51,4,9.51,11.65V164c0,7.74-4.26,11.61-9.55,11.61-3.4,0-5.85-1.59-7-3.82v10.83h-7.7ZM38.31,164v-.34c0-4-1.72-5.85-4.43-5.85s-4.47,2-4.47,5.81v.34c0,3.83,1.68,5.76,4.47,5.76S38.31,167.67,38.31,164Z" fill="#fff"/><path d="M48.37,164.1v-.34c0-7.22,5.38-11.78,12.17-11.78C66.69,152,72,155.5,72,163.59v2H56.16c.21,3,1.93,4.69,4.68,4.69,2.54,0,3.61-1.17,3.92-2.67H72c-.69,5.07-4.6,8-11.4,8C53.53,175.58,48.37,171.46,48.37,164.1Zm16.13-2.83c-.13-2.71-1.46-4.22-4-4.22-2.32,0-3.91,1.51-4.3,4.22Z" fill="#fff"/><path d="M75.29,152.58H83v4.47a7.09,7.09,0,0,1,7.26-4.77v7.18c-4.68-.13-7.26,1.33-7.26,4.94v10.67h-7.7Z" fill="#fff"/><path d="M95.29,157.83H92.45v-5.25h2.84v-2c0-5.59,3.48-8.25,8.81-8.25a13.72,13.72,0,0,1,3.53.47v5.63a7.17,7.17,0,0,0-2.11-.3,2.26,2.26,0,0,0-2.58,2.45v2h4.56v5.25h-4.56v17.24H95.29Z" fill="#fff"/><path d="M108.74,164.1v-.34c0-7.22,5.38-11.78,12.17-11.78,6.15,0,11.44,3.52,11.44,11.61v2H116.53c.21,3,1.93,4.69,4.68,4.69,2.54,0,3.62-1.17,3.92-2.67h7.22c-.69,5.07-4.6,8-11.39,8C113.9,175.58,108.74,171.46,108.74,164.1Zm16.13-2.83c-.13-2.71-1.46-4.22-4-4.22-2.32,0-3.91,1.51-4.3,4.22Z" fill="#fff"/><path d="M134.46,164.1v-.34c0-7.48,5.37-11.78,12-11.78,5.5,0,10.57,2.41,11,9.24h-7.22c-.34-2.1-1.38-3.27-3.61-3.27-2.71,0-4.3,1.94-4.3,5.72V164c0,3.91,1.5,5.93,4.43,5.93,2.15,0,3.65-1.29,3.91-3.74h6.92c-.21,5.68-4,9.37-11.31,9.37C139.58,175.58,134.46,171.67,134.46,164.1Z" fill="#fff"/><path d="M161.76,167.84v-10h-2.71v-5.25h2.71v-4.69h7.7v4.69h4.43v5.25h-4.43v9.28c0,1.64.82,2.37,2.28,2.37a5.82,5.82,0,0,0,2.19-.39v5.85a16.1,16.1,0,0,1-4.26.64C164.6,175.58,161.76,173.13,161.76,167.84Z" fill="#fff"/><path d="M177.67,142.69h7.66v32.38h-7.66Z" fill="#fff"/><path d="M197.15,172.79l-9-20.21h8.35l4.64,12,4.3-12h7.35l-12,30h-7.35Z" fill="#fff"/><path d="M20.72,209.1v-.34c0-7.48,5.38-11.78,12-11.78,5.51,0,10.58,2.41,11,9.24H36.51c-.35-2.1-1.38-3.26-3.62-3.26-2.71,0-4.3,1.93-4.3,5.71V209c0,3.91,1.51,5.93,4.43,5.93,2.15,0,3.66-1.29,3.92-3.74h6.92c-.22,5.68-4,9.37-11.31,9.37C25.84,220.58,20.72,216.67,20.72,209.1Z" fill="#fff"/><path d="M47.21,187.69h7.66v32.38H47.21Z" fill="#fff"/><path d="M58.44,209.1v-.34c0-7.22,5.37-11.78,12.16-11.78C76.75,197,82,200.5,82,208.59v2H66.22c.21,3,1.93,4.69,4.68,4.69,2.54,0,3.62-1.17,3.92-2.67H82c-.69,5.07-4.6,8-11.39,8C63.59,220.58,58.44,216.46,58.44,209.1Zm16.12-2.83c-.13-2.71-1.46-4.22-4-4.22-2.32,0-3.91,1.51-4.3,4.22Z" fill="#fff"/><path d="M84.28,213.83c0-5.29,4.47-7.35,12-7.35h2.15V206c0-2.15-.52-3.56-3-3.56a2.76,2.76,0,0,0-3,2.66H85.14c.34-5.42,4.6-8.08,10.75-8.08S106,199.51,106,205.49v14.58H98.55v-2.62c-1.07,1.63-3,3.13-6.66,3.13C87.85,220.58,84.28,218.61,84.28,213.83Zm14.1-1.63v-1.38h-2c-3.1,0-4.47.61-4.47,2.45,0,1.29.86,2.11,2.66,2.11C96.75,215.38,98.38,214.13,98.38,212.2Z" fill="#fff"/><path d="M110.42,197.58h7.7v4.47a7.09,7.09,0,0,1,7.26-4.77v7.18c-4.68-.13-7.26,1.33-7.26,4.94v10.67h-7.7Z" fill="#fff"/><path d="M124.65,223.55l3.62-11.31,7.13,2.54-6.19,10.53Z" fill="#fff"/><rect width="300" height="600" fill="none"/></g></g></svg>