<svg xmlns="http://www.w3.org/2000/svg" viewBox="0 0 300 600"><title>txt2</title><g id="Layer_2" data-name="Layer 2"><g id="txt2"><path d="M146.63,220.07h7.65c.34,1.63,1.33,2.92,4.13,2.92,3.4,0,4.77-1.93,4.77-4.73v-3.44a7.88,7.88,0,0,1-7,4.13c-5.25,0-9.55-3.87-9.55-10.79v-.35c0-6.62,4.26-10.83,9.55-10.83,3.57,0,5.67,1.5,7,3.78v-3.18h7.7v20.6c0,6.7-4.43,10.23-12.47,10.23C150.75,228.41,147.23,225.19,146.63,220.07Zm16.77-12v-.3c0-3.09-1.59-5.07-4.43-5.07s-4.43,2-4.43,5.12v.34c0,3.1,1.63,5.07,4.38,5.07S163.4,211.3,163.4,208.11Z" fill="#fff"/><path d="M174.23,209.1v-.34c0-7.22,5.38-11.78,12.17-11.78,6.15,0,11.44,3.52,11.44,11.61v2H182c.21,3,1.93,4.69,4.68,4.69,2.54,0,3.61-1.17,3.92-2.67h7.22c-.69,5.07-4.6,8-11.39,8C179.39,220.58,174.23,216.46,174.23,209.1Zm16.13-2.83c-.13-2.71-1.46-4.22-4-4.22-2.32,0-3.91,1.51-4.3,4.22Z" fill="#fff"/><path d="M202.18,212.84v-10h-2.71v-5.25h2.71v-4.69h7.7v4.69h4.43v5.25h-4.43v9.28c0,1.64.82,2.37,2.28,2.37a5.82,5.82,0,0,0,2.19-.39v5.85a16.1,16.1,0,0,1-4.26.64C205,220.58,202.18,218.13,202.18,212.84Z" fill="#fff"/><path d="M22.4,252.6V234.32h8.82v17.89c0,4.34,1.07,6.45,4.81,6.45s4.82-2,4.82-6.58V234.32h8.9v18.15c0,8.94-5.25,13.11-13.72,13.11C27.35,265.58,22.4,261.2,22.4,252.6Z" fill="#fff"/><path d="M54.57,242.58h7.69v3.35a7.93,7.93,0,0,1,7-4c5.25,0,9.5,4,9.5,11.65V254c0,7.74-4.25,11.61-9.54,11.61-3.4,0-5.85-1.59-7-3.82v10.83H54.57ZM71,254v-.34c0-4-1.72-5.85-4.43-5.85s-4.47,2-4.47,5.81v.34c0,3.83,1.67,5.76,4.47,5.76S71,257.67,71,254Z" fill="#fff"/><path d="M83.38,247.83H80.54v-5.25h2.84v-2c0-5.59,3.48-8.25,8.81-8.25a13.72,13.72,0,0,1,3.53.47v5.63a7.17,7.17,0,0,0-2.11-.3A2.26,2.26,0,0,0,91,240.6v2h4.56v5.25H91v17.24H83.38Z" fill="#fff"/><path d="M98.81,242.58h7.7v4.47a7.09,7.09,0,0,1,7.26-4.77v7.18c-4.68-.13-7.26,1.33-7.26,4.94v10.67h-7.7Z" fill="#fff"/><path d="M115.8,254.1v-.34c0-7.22,5.37-11.78,12.34-11.78s12.25,4.43,12.25,11.56v.35c0,7.31-5.37,11.69-12.3,11.69S115.8,261.37,115.8,254.1Zm16.77-.13v-.34c0-3.78-1.51-5.89-4.43-5.89s-4.47,2-4.47,5.8v.35c0,3.87,1.5,6,4.47,6S132.57,257.72,132.57,254Z" fill="#fff"/><path d="M143.75,242.58h7.69v3.61a8,8,0,0,1,7.4-4.21c4.34,0,7.35,2.71,7.35,8.47v14.62H158.5V252c0-2.54-1-3.79-3.23-3.79s-3.83,1.38-3.83,4.26v12.6h-7.69Z" fill="#fff"/><path d="M171.61,257.84v-10H168.9v-5.25h2.71v-4.69h7.7v4.69h4.43v5.25h-4.43v9.28c0,1.64.81,2.37,2.28,2.37a5.82,5.82,0,0,0,2.19-.39v5.85a16.1,16.1,0,0,1-4.26.64C174.45,265.58,171.61,263.13,171.61,257.84Z" fill="#fff"/><path d="M28.51,286.12h-8v-6.8H45.32v6.8h-8v23.95H28.51Z" fill="#fff"/><path d="M47.21,287.58h7.7v4.47a7.09,7.09,0,0,1,7.27-4.77v7.18c-4.69-.13-7.27,1.33-7.27,4.94v10.67h-7.7Z" fill="#fff"/><path d="M63.81,303.83c0-5.29,4.47-7.35,12-7.35h2.15V296c0-2.15-.51-3.56-3-3.56a2.77,2.77,0,0,0-3.06,2.66H64.67c.34-5.42,4.6-8.08,10.75-8.08s10.15,2.53,10.15,8.51v14.58H78.09v-2.62c-1.08,1.63-3.06,3.13-6.67,3.13C67.38,310.58,63.81,308.61,63.81,303.83Zm14.1-1.63v-1.38h-2c-3.09,0-4.47.61-4.47,2.45,0,1.29.86,2.11,2.67,2.11C76.28,305.38,77.91,304.13,77.91,302.2Z" fill="#fff"/><path d="M90,287.58h7.7v3.61a7.94,7.94,0,0,1,7.4-4.21c4.34,0,7.35,2.71,7.35,8.47v14.62h-7.7V297c0-2.54-1-3.79-3.22-3.79s-3.83,1.38-3.83,4.26v12.6H90Z" fill="#fff"/><path d="M115.28,302.93h7.1c.25,1.63,1,2.54,3.18,2.54,1.89,0,2.75-.73,2.75-1.85s-1.08-1.59-4.17-2c-6-.78-8.56-2.54-8.56-7.23,0-5,4.43-7.39,9.63-7.39,5.55,0,9.42,1.89,9.94,7.26h-7c-.3-1.5-1.12-2.23-2.88-2.23s-2.54.73-2.54,1.76,1,1.51,3.79,1.85c6.23.77,9.24,2.41,9.24,7.22,0,5.34-4,7.74-10.19,7.74C119.19,310.58,115.45,307.92,115.28,302.93Z" fill="#fff"/><path d="M138.93,287.58h7.7v3.35a7.93,7.93,0,0,1,7-3.95c5.24,0,9.5,3.95,9.5,11.65V299c0,7.74-4.26,11.61-9.55,11.61-3.39,0-5.84-1.59-7-3.82v10.83h-7.7ZM155.31,299v-.34c0-4-1.72-5.85-4.43-5.85s-4.47,2-4.47,5.81v.34c0,3.83,1.68,5.76,4.47,5.76S155.31,302.67,155.31,299Z" fill="#fff"/><path d="M165.29,303.83c0-5.29,4.47-7.35,12-7.35h2.15V296c0-2.15-.51-3.56-3-3.56a2.77,2.77,0,0,0-3.06,2.66h-7.22c.34-5.42,4.6-8.08,10.75-8.08s10.15,2.53,10.15,8.51v14.58h-7.48v-2.62c-1.08,1.63-3.06,3.13-6.67,3.13C168.86,310.58,165.29,308.61,165.29,303.83Zm14.1-1.63v-1.38h-2c-3.09,0-4.47.61-4.47,2.45,0,1.29.86,2.11,2.67,2.11C177.76,305.38,179.39,304.13,179.39,302.2Z" fill="#fff"/><path d="M191.43,287.58h7.7v4.47a7.09,7.09,0,0,1,7.27-4.77v7.18c-4.69-.13-7.27,1.33-7.27,4.94v10.67h-7.7Z" fill="#fff"/><path d="M208.42,299.1v-.34c0-7.22,5.37-11.78,12.17-11.78,6.15,0,11.43,3.52,11.43,11.61v2H216.2c.22,3,1.94,4.69,4.69,4.69,2.53,0,3.61-1.17,3.91-2.67H232c-.68,5.07-4.6,7.95-11.39,7.95C213.58,310.58,208.42,306.46,208.42,299.1Zm16.12-2.83c-.13-2.71-1.46-4.22-3.95-4.22-2.33,0-3.92,1.51-4.3,4.22Z" fill="#fff"/><path d="M235.34,287.58H243v3.61a8,8,0,0,1,7.4-4.21c4.34,0,7.35,2.71,7.35,8.47v14.62h-7.7V297c0-2.54-1-3.79-3.22-3.79s-3.83,1.38-3.83,4.26v12.6h-7.69Z" fill="#fff"/><path d="M263.2,302.84v-10h-2.71v-5.25h2.71v-4.69h7.7v4.69h4.43v5.25H270.9v9.28c0,1.64.81,2.37,2.28,2.37a5.82,5.82,0,0,0,2.19-.39v5.85a16.1,16.1,0,0,1-4.26.64C266,310.58,263.2,308.13,263.2,302.84Z" fill="#fff"/><path d="M22.62,324.32H34.31c8.43,0,12.34,3.74,12.34,10.28v.17c0,6.45-4.34,9.94-11.95,9.94H31.39v10.36H22.62Zm11.31,14.37c2.83,0,4.34-1.34,4.34-3.87v-.18c0-2.62-1.55-3.69-4.3-3.69H31.39v7.74Z" fill="#fff"/><path d="M50,332.58h7.7v4.47a7.09,7.09,0,0,1,7.27-4.77v7.18c-4.69-.13-7.27,1.33-7.27,4.94v10.67H50Z" fill="#fff"/><path d="M68.2,326.47a4,4,0,0,1,4.21-4,4,4,0,1,1,0,8A4,4,0,0,1,68.2,326.47Zm.38,6.11h7.7v22.49h-7.7Z" fill="#fff"/><path d="M79.85,344.1v-.34c0-7.48,5.37-11.78,12-11.78,5.5,0,10.57,2.41,11,9.24H95.63c-.34-2.1-1.38-3.26-3.61-3.26-2.71,0-4.3,1.93-4.3,5.71V344c0,3.91,1.5,5.93,4.43,5.93,2.15,0,3.65-1.29,3.91-3.74H103c-.21,5.68-4,9.37-11.31,9.37C85,355.58,79.85,351.67,79.85,344.1Z" fill="#fff"/><path d="M106,326.47a4.24,4.24,0,1,1,4.21,4A4,4,0,0,1,106,326.47Zm.39,6.11H114v22.49h-7.69Z" fill="#fff"/><path d="M118.81,332.58h7.69v3.61a8,8,0,0,1,7.4-4.21c4.34,0,7.35,2.71,7.35,8.47v14.62h-7.69V342c0-2.54-1-3.79-3.23-3.79s-3.83,1.38-3.83,4.26v12.6h-7.69Z" fill="#fff"/><path d="M144.39,355.07h7.66c.34,1.63,1.33,2.92,4.12,2.92,3.4,0,4.78-1.93,4.78-4.73v-3.44a7.9,7.9,0,0,1-7,4.13c-5.25,0-9.55-3.87-9.55-10.79v-.35c0-6.62,4.26-10.83,9.55-10.83,3.57,0,5.68,1.5,7,3.78v-3.18h7.69v20.6c0,6.7-4.43,10.23-12.47,10.23C148.52,363.41,145,360.19,144.39,355.07Zm16.77-12v-.3c0-3.09-1.59-5.07-4.43-5.07s-4.43,2-4.43,5.12v.34c0,3.1,1.64,5.07,4.39,5.07S161.16,346.3,161.16,343.11Z" fill="#fff"/><path d="M179.78,332.58h8L191.09,346l3.78-13.46h6.2L204.42,346l3.65-13.46h7.31l-7.13,22.49h-7.36l-3.35-12.56-3.48,12.56h-7.49Z" fill="#fff"/><path d="M217.83,326.47a4.25,4.25,0,1,1,4.22,4A4,4,0,0,1,217.83,326.47Zm.39,6.11h7.7v22.49h-7.7Z" fill="#fff"/><path d="M231.72,347.84v-10H229v-5.25h2.71v-4.69h7.7v4.69h4.43v5.25h-4.43v9.28c0,1.64.82,2.37,2.28,2.37a5.82,5.82,0,0,0,2.19-.39v5.85a16.1,16.1,0,0,1-4.26.64C234.56,355.58,231.72,353.13,231.72,347.84Z" fill="#fff"/><path d="M247.42,322.69h7.69v13.5a8,8,0,0,1,7.4-4.21c4.34,0,7.35,2.71,7.35,8.47v14.62h-7.69V342c0-2.54-1-3.79-3.23-3.79s-3.83,1.38-3.83,4.26v12.6h-7.69Z" fill="#fff"/><path d="M22.62,369.32H36.33c7.27,0,10.37,3.27,10.37,8.05v.17c0,3.44-1.77,5.72-5.21,6.62,3.79.64,6.15,2.92,6.15,7.18v.17c0,5.51-3.57,8.56-11.18,8.56H22.62Zm12,12.22c2.75,0,3.78-1,3.78-3.14v-.18c0-2.1-1.11-3.05-3.78-3.05H31.22v6.37Zm.3,12.64c2.8,0,4.09-1.29,4.09-3.57v-.17c0-2.33-1.25-3.53-4.35-3.53H31.22v7.27Z" fill="#fff"/><path d="M51.34,367.69H59v32.38H51.34Z" fill="#fff"/><path d="M62.56,389.1v-.34c0-7.22,5.38-11.78,12.34-11.78s12.26,4.43,12.26,11.56v.35c0,7.31-5.38,11.69-12.3,11.69S62.56,396.37,62.56,389.1ZM79.33,389v-.34c0-3.78-1.5-5.89-4.43-5.89s-4.47,2-4.47,5.8v.35c0,3.87,1.51,6,4.47,6S79.33,392.72,79.33,389Z" fill="#fff"/><path d="M89.31,389.1v-.34c0-7.48,5.37-11.78,12-11.78,5.51,0,10.58,2.41,11,9.24h-7.22c-.35-2.1-1.38-3.26-3.61-3.26-2.71,0-4.3,1.93-4.3,5.71V389c0,3.91,1.5,5.93,4.43,5.93,2.15,0,3.65-1.29,3.91-3.74h6.92c-.21,5.68-4,9.37-11.31,9.37C94.42,400.58,89.31,396.67,89.31,389.1Z" fill="#fff"/><path d="M115.58,367.69h7.7v18.79l6.06-8.9h8L130,387.68l7.95,12.39h-8.6l-6.06-9.85v9.85h-7.7Z" fill="#fff"/><path d="M140.09,396.2a4.29,4.29,0,0,1,4.39-4.34,4.34,4.34,0,1,1,0,8.68A4.29,4.29,0,0,1,140.09,396.2Z" fill="#fff"/><rect width="300" height="600" fill="none"/></g></g></svg>