<svg xmlns="http://www.w3.org/2000/svg" viewBox="0 0 300 600"><title>legal</title><g id="Layer_2" data-name="Layer 2"><g id="rect"><rect width="300" height="600" fill="none"/></g><g id="_All_tax_situations_are_different._Not_everyone_gets_a_refund." data-name=" All tax situations are different. Not everyone gets a refund."><path d="M24.4,455.64H26l2.12,6.44H26.85l-.51-1.6H23.88l-.5,1.6H22.25Zm-.24,4h1.9l-.95-3Z" fill="#fff"/><path d="M28.87,455.19H30v6.89H28.87Z" fill="#fff"/><path d="M31.18,455.19h1.09v6.89H31.18Z" fill="#fff"/><path d="M35.64,460.76v-2.57H35v-.82h.63v-1h1.09v1h1v.82h-1v2.47c0,.42.2.61.54.61a1.36,1.36,0,0,0,.53-.09V462a2.13,2.13,0,0,1-.74.12A1.27,1.27,0,0,1,35.64,460.76Z" fill="#fff"/><path d="M38.34,460.77c0-1.1,1.06-1.49,2.41-1.49h.59V459c0-.63-.22-.94-.86-.94a.79.79,0,0,0-.9.74h-1c.09-1.1,1-1.56,2-1.56s1.88.43,1.88,1.72v3.09H41.36v-.58a1.63,1.63,0,0,1-1.44.67C39.05,462.17,38.34,461.75,38.34,460.77Zm3-.34V460h-.56c-.83,0-1.36.19-1.36.77,0,.39.22.65.76.65S41.34,461,41.34,460.43Z" fill="#fff"/><path d="M44.72,459.66l-1.53-2.29h1.26l1,1.52,1-1.52h1.14L46,459.58l1.68,2.5H46.44l-1.1-1.7-1.12,1.7H43.08Z" fill="#fff"/><path d="M50.06,460.61h1c0,.48.29.76.93.76s.85-.21.85-.61-.32-.53-1-.65c-1.24-.19-1.7-.54-1.7-1.43s.88-1.41,1.76-1.41,1.73.36,1.85,1.42h-1a.73.73,0,0,0-.84-.63c-.46,0-.74.23-.74.56s.22.48,1,.6c1.11.17,1.76.44,1.76,1.44s-.67,1.51-1.88,1.51S50.1,461.61,50.06,460.61Z" fill="#fff"/><path d="M54.64,456a.65.65,0,1,1,.65.62A.63.63,0,0,1,54.64,456Zm.12,1.4h1.09v4.71H54.76Z" fill="#fff"/><path d="M57.21,460.76v-2.57h-.63v-.82h.63v-1H58.3v1h1v.82h-1v2.47c0,.42.2.61.54.61a1.45,1.45,0,0,0,.54-.09V462a2.22,2.22,0,0,1-.74.12A1.27,1.27,0,0,1,57.21,460.76Z" fill="#fff"/><path d="M60.18,460.38v-3h1.08v2.89c0,.71.3,1,.93,1a1,1,0,0,0,1.1-1.12v-2.8h1.09v4.71H63.29v-.74a1.58,1.58,0,0,1-1.49.83C60.87,462.17,60.18,461.64,60.18,460.38Z" fill="#fff"/><path d="M65.19,460.77c0-1.1,1.06-1.49,2.41-1.49h.59V459c0-.63-.22-.94-.86-.94a.78.78,0,0,0-.9.74H65.38c.09-1.1,1-1.56,2-1.56s1.89.43,1.89,1.72v3.09H68.2v-.58a1.62,1.62,0,0,1-1.44.67C65.9,462.17,65.19,461.75,65.19,460.77Zm3-.34V460h-.56c-.83,0-1.36.19-1.36.77,0,.39.21.65.75.65S68.19,461,68.19,460.43Z" fill="#fff"/><path d="M70.56,460.76v-2.57h-.63v-.82h.63v-1h1.09v1h1v.82h-1v2.47c0,.42.2.61.54.61a1.36,1.36,0,0,0,.53-.09V462a2.13,2.13,0,0,1-.74.12A1.27,1.27,0,0,1,70.56,460.76Z" fill="#fff"/><path d="M73.48,456a.63.63,0,0,1,.65-.63.63.63,0,1,1,0,1.25A.63.63,0,0,1,73.48,456Zm.11,1.4h1.09v4.71H73.59Z" fill="#fff"/><path d="M75.56,459.77v-.07a2.42,2.42,0,0,1,4.83,0v.08a2.42,2.42,0,0,1-4.83,0Zm3.71,0v-.06c0-1-.48-1.56-1.29-1.56s-1.31.58-1.31,1.55v.07c0,1,.48,1.57,1.31,1.57S79.27,460.72,79.27,459.75Z" fill="#fff"/><path d="M81.24,457.37h1.08v.75a1.64,1.64,0,0,1,1.53-.85c.94,0,1.61.55,1.61,1.85v3H84.37v-2.87c0-.71-.29-1-.94-1a1,1,0,0,0-1.11,1.12v2.78H81.24Z" fill="#fff"/><path d="M86.21,460.61h1c.05.48.29.76.93.76s.85-.21.85-.61-.31-.53-1-.65c-1.24-.19-1.7-.54-1.7-1.43s.88-1.41,1.77-1.41,1.72.36,1.84,1.42h-1a.72.72,0,0,0-.83-.63c-.47,0-.75.23-.75.56s.22.48,1,.6c1.11.17,1.76.44,1.76,1.44s-.67,1.51-1.88,1.51S86.26,461.61,86.21,460.61Z" fill="#fff"/><path d="M92.55,460.77c0-1.1,1.06-1.49,2.41-1.49h.59V459c0-.63-.22-.94-.86-.94a.78.78,0,0,0-.9.74H92.74c.09-1.1,1-1.56,2-1.56s1.88.43,1.88,1.72v3.09H95.56v-.58a1.62,1.62,0,0,1-1.44.67C93.26,462.17,92.55,461.75,92.55,460.77Zm3-.34V460H95c-.83,0-1.36.19-1.36.77,0,.39.21.65.75.65S95.55,461,95.55,460.43Z" fill="#fff"/><path d="M97.75,457.37h1.09v.88a1.58,1.58,0,0,1,1.53-.95v1c-1,0-1.53.32-1.53,1.32v2.45H97.75Z" fill="#fff"/><path d="M100.77,459.77v-.07a2.29,2.29,0,0,1,2.34-2.43,2.13,2.13,0,0,1,2.23,2.38V460h-3.45c0,.89.49,1.4,1.3,1.4.65,0,1-.26,1.08-.72h1c-.15,1-.95,1.53-2.16,1.53A2.26,2.26,0,0,1,100.77,459.77Zm3.49-.54c-.06-.81-.47-1.17-1.15-1.17a1.21,1.21,0,0,0-1.2,1.17Z" fill="#fff"/><path d="M107.87,459.8v-.07a2.19,2.19,0,0,1,2.12-2.46,1.59,1.59,0,0,1,1.5.82v-2.9h1.09v6.89h-1.09v-.79a1.81,1.81,0,0,1-1.55.88A2.09,2.09,0,0,1,107.87,459.8Zm3.66-.05v-.08c0-1-.48-1.54-1.27-1.54s-1.27.55-1.27,1.57v.07c0,1,.52,1.53,1.22,1.53S111.53,460.8,111.53,459.75Z" fill="#fff"/><path d="M113.65,456a.65.65,0,1,1,.65.62A.63.63,0,0,1,113.65,456Zm.12,1.4h1.09v4.71h-1.09Z" fill="#fff"/><path d="M116.24,458.19h-.64v-.82h.64v-.57a1.42,1.42,0,0,1,1.57-1.59,1.93,1.93,0,0,1,.62.09v.84a1.52,1.52,0,0,0-.48-.09c-.45,0-.62.29-.62.7v.62H119v-.63a1.43,1.43,0,0,1,1.58-1.59,1.71,1.71,0,0,1,.63.09v.84a1.69,1.69,0,0,0-.5-.08c-.44,0-.62.29-.62.69v.68h1.07v.82h-1.07v3.89H119v-3.89h-1.65v3.89h-1.09Z" fill="#fff"/><path d="M121.4,459.77v-.07a2.29,2.29,0,0,1,2.34-2.43,2.13,2.13,0,0,1,2.23,2.38V460h-3.45c0,.89.48,1.4,1.29,1.4.66,0,1-.26,1.08-.72H126c-.16,1-1,1.53-2.16,1.53A2.26,2.26,0,0,1,121.4,459.77Zm3.49-.54c-.06-.81-.47-1.17-1.15-1.17a1.19,1.19,0,0,0-1.2,1.17Z" fill="#fff"/><path d="M126.8,457.37h1.09v.88a1.58,1.58,0,0,1,1.53-.95v1c-.95,0-1.53.32-1.53,1.32v2.45H126.8Z" fill="#fff"/><path d="M129.82,459.77v-.07a2.29,2.29,0,0,1,2.35-2.43,2.12,2.12,0,0,1,2.22,2.38V460h-3.45c0,.89.49,1.4,1.3,1.4.65,0,1-.26,1.08-.72h1.05c-.15,1-1,1.53-2.16,1.53A2.26,2.26,0,0,1,129.82,459.77Zm3.49-.54c-.06-.81-.47-1.17-1.14-1.17a1.21,1.21,0,0,0-1.21,1.17Z" fill="#fff"/><path d="M135.22,457.37h1.09v.75a1.64,1.64,0,0,1,1.53-.85c.94,0,1.61.55,1.61,1.85v3h-1.09v-2.87c0-.71-.29-1-.94-1a1,1,0,0,0-1.11,1.12v2.78h-1.09Z" fill="#fff"/><path d="M140.74,460.76v-2.57h-.63v-.82h.63v-1h1.09v1h1v.82h-1v2.47c0,.42.2.61.54.61a1.36,1.36,0,0,0,.53-.09V462a2.13,2.13,0,0,1-.74.12A1.27,1.27,0,0,1,140.74,460.76Z" fill="#fff"/><path d="M143.68,461.44a.72.72,0,1,1,.72.7A.71.71,0,0,1,143.68,461.44Z" fill="#fff"/><path d="M148.31,455.64h1.43l2.71,4.65v-4.65h1.09v6.44H152.3l-2.9-4.94v4.94h-1.09Z" fill="#fff"/><path d="M154.45,459.77v-.07a2.42,2.42,0,0,1,4.83,0v.08a2.42,2.42,0,0,1-4.83,0Zm3.72,0v-.06c0-1-.49-1.56-1.3-1.56s-1.31.58-1.31,1.55v.07c0,1,.48,1.57,1.31,1.57S158.17,460.72,158.17,459.75Z" fill="#fff"/><path d="M160.31,460.76v-2.57h-.63v-.82h.63v-1h1.09v1h1v.82h-1v2.47c0,.42.19.61.54.61a1.44,1.44,0,0,0,.53-.09V462a2.18,2.18,0,0,1-.74.12A1.27,1.27,0,0,1,160.31,460.76Z" fill="#fff"/><path d="M165,459.77v-.07a2.29,2.29,0,0,1,2.35-2.43,2.12,2.12,0,0,1,2.22,2.38V460h-3.45c0,.89.49,1.4,1.3,1.4s1-.26,1.08-.72h1.05c-.15,1-1,1.53-2.16,1.53A2.26,2.26,0,0,1,165,459.77Zm3.49-.54c-.06-.81-.47-1.17-1.14-1.17a1.21,1.21,0,0,0-1.21,1.17Z" fill="#fff"/><path d="M169.83,457.37H171l1.23,3.59,1.22-3.59h1.07l-1.7,4.71h-1.27Z" fill="#fff"/><path d="M174.7,459.77v-.07a2.29,2.29,0,0,1,2.34-2.43,2.12,2.12,0,0,1,2.22,2.38V460h-3.45c0,.89.49,1.4,1.3,1.4.66,0,1-.26,1.08-.72h1.05c-.15,1-1,1.53-2.16,1.53A2.26,2.26,0,0,1,174.7,459.77Zm3.48-.54c-.05-.81-.47-1.17-1.14-1.17a1.21,1.21,0,0,0-1.21,1.17Z" fill="#fff"/><path d="M180.1,457.37h1.09v.88a1.56,1.56,0,0,1,1.53-.95v1c-1,0-1.53.32-1.53,1.32v2.45H180.1Z" fill="#fff"/><path d="M185,461.6l-1.87-4.23h1.18l1.25,3,1.16-3h1.06l-2.57,6.32h-1.07Z" fill="#fff"/><path d="M187.94,459.77v-.07a2.42,2.42,0,0,1,4.83,0v.08a2.42,2.42,0,0,1-4.83,0Zm3.71,0v-.06c0-1-.48-1.56-1.29-1.56s-1.31.58-1.31,1.55v.07c0,1,.48,1.57,1.31,1.57S191.65,460.72,191.65,459.75Z" fill="#fff"/><path d="M193.62,457.37h1.08v.75a1.64,1.64,0,0,1,1.53-.85c.94,0,1.61.55,1.61,1.85v3h-1.09v-2.87c0-.71-.29-1-.94-1a1,1,0,0,0-1.11,1.12v2.78h-1.08Z" fill="#fff"/><path d="M198.64,459.77v-.07a2.29,2.29,0,0,1,2.34-2.43,2.12,2.12,0,0,1,2.22,2.38V460h-3.45c0,.89.49,1.4,1.3,1.4.66,0,1-.26,1.08-.72h1.05c-.15,1-1,1.53-2.16,1.53A2.26,2.26,0,0,1,198.64,459.77Zm3.48-.54c-.05-.81-.47-1.17-1.14-1.17a1.21,1.21,0,0,0-1.21,1.17Z" fill="#fff"/><path d="M205.78,462.24h1.1c.09.47.45.74,1.16.74a1.16,1.16,0,0,0,1.32-1.27V461a1.84,1.84,0,0,1-1.54.88,2.08,2.08,0,0,1-2.09-2.24v-.07a2.16,2.16,0,0,1,2.11-2.31,1.63,1.63,0,0,1,1.52.82v-.72h1.09v4.36c0,1.38-.94,2.08-2.4,2.08S205.91,463.14,205.78,462.24Zm3.61-2.63v-.06a1.24,1.24,0,0,0-1.27-1.42,1.27,1.27,0,0,0-1.28,1.44v.07a1.27,1.27,0,0,0,1.25,1.41A1.3,1.3,0,0,0,209.39,459.61Z" fill="#fff"/><path d="M211.29,459.77v-.07a2.29,2.29,0,0,1,2.34-2.43,2.12,2.12,0,0,1,2.22,2.38V460h-3.44c0,.89.48,1.4,1.29,1.4s1-.26,1.08-.72h1.06c-.16,1-1,1.53-2.16,1.53A2.26,2.26,0,0,1,211.29,459.77Zm3.48-.54c-.05-.81-.46-1.17-1.14-1.17a1.21,1.21,0,0,0-1.21,1.17Z" fill="#fff"/><path d="M216.87,460.76v-2.57h-.63v-.82h.63v-1H218v1h1v.82h-1v2.47c0,.42.2.61.54.61a1.36,1.36,0,0,0,.53-.09V462a2.13,2.13,0,0,1-.74.12A1.27,1.27,0,0,1,216.87,460.76Z" fill="#fff"/><path d="M219.54,460.61h1c.05.48.3.76.94.76s.84-.21.84-.61-.31-.53-1-.65c-1.24-.19-1.7-.54-1.7-1.43s.88-1.41,1.77-1.41,1.72.36,1.84,1.42h-1a.72.72,0,0,0-.83-.63c-.47,0-.75.23-.75.56s.22.48,1,.6c1.11.17,1.77.44,1.77,1.44s-.68,1.51-1.89,1.51S219.59,461.61,219.54,460.61Z" fill="#fff"/><path d="M225.88,460.77c0-1.1,1.06-1.49,2.41-1.49h.59V459c0-.63-.22-.94-.86-.94a.79.79,0,0,0-.9.74h-1.05c.09-1.1,1-1.56,2-1.56S230,457.7,230,459v3.09H228.9v-.58a1.65,1.65,0,0,1-1.44.67C226.59,462.17,225.88,461.75,225.88,460.77Zm3-.34V460h-.56c-.83,0-1.36.19-1.36.77,0,.39.22.65.76.65S228.88,461,228.88,460.43Z" fill="#fff"/><path d="M233.09,457.37h1.09v.88a1.57,1.57,0,0,1,1.53-.95v1c-1,0-1.53.32-1.53,1.32v2.45h-1.09Z" fill="#fff"/><path d="M236.11,459.77v-.07a2.29,2.29,0,0,1,2.34-2.43,2.13,2.13,0,0,1,2.23,2.38V460h-3.45c0,.89.48,1.4,1.3,1.4.65,0,1-.26,1.08-.72h1c-.15,1-1,1.53-2.16,1.53A2.26,2.26,0,0,1,236.11,459.77Zm3.49-.54c-.06-.81-.47-1.17-1.15-1.17a1.2,1.2,0,0,0-1.2,1.17Z" fill="#fff"/><path d="M241.7,458.19h-.64v-.82h.64v-.63a1.43,1.43,0,0,1,1.59-1.59,1.69,1.69,0,0,1,.62.09v.84a1.69,1.69,0,0,0-.5-.08c-.44,0-.62.29-.62.69v.68h1.07v.82h-1.07v3.89H241.7Z" fill="#fff"/><path d="M244.59,460.38v-3h1.09v2.89c0,.71.3,1,.93,1a1,1,0,0,0,1.09-1.12v-2.8h1.09v4.71H247.7v-.74a1.57,1.57,0,0,1-1.49.83C245.28,462.17,244.59,461.64,244.59,460.38Z" fill="#fff"/><path d="M250,457.37H251v.75a1.64,1.64,0,0,1,1.53-.85c.94,0,1.61.55,1.61,1.85v3h-1.09v-2.87c0-.71-.29-1-.94-1A1,1,0,0,0,251,459.3v2.78H250Z" fill="#fff"/><path d="M255,459.8v-.07a2.18,2.18,0,0,1,2.11-2.46,1.59,1.59,0,0,1,1.5.82v-2.9h1.09v6.89h-1.09v-.79a1.81,1.81,0,0,1-1.54.88A2.09,2.09,0,0,1,255,459.8Zm3.65-.05v-.08c0-1-.48-1.54-1.27-1.54s-1.27.55-1.27,1.57v.07c0,1,.52,1.53,1.23,1.53S258.63,460.8,258.63,459.75Z" fill="#fff"/><path d="M260.78,461.44a.72.72,0,1,1,.71.7A.71.71,0,0,1,260.78,461.44Z" fill="#fff"/></g></g></svg>