<svg xmlns="http://www.w3.org/2000/svg" viewBox="0 0 300 600"><title>h5</title><g id="Layer_2" data-name="Layer 2"><g id="rect"><rect width="300" height="600" fill="none"/></g><g id="Need_some_tax_relief_We_ll_get_your_max_refund_guaranteed." data-name="Need some tax relief? We’ll get your max refund,  guaranteed."><path d="M29.08,127.24h8.66l8.58,15.09V127.24H53V154H45.6L35.83,137.2V154H29.08Z" fill="#fff"/><path d="M55.72,144.47v-.3c0-6.3,4.68-10.27,10.6-10.27,5.35,0,10,3.08,10,10.12v1.76H62.5c.18,2.58,1.68,4.08,4.08,4.08,2.21,0,3.15-1,3.41-2.32h6.29c-.6,4.42-4,6.93-9.93,6.93C60.21,154.47,55.72,150.87,55.72,144.47Zm14-2.47c-.11-2.36-1.27-3.68-3.44-3.68s-3.41,1.32-3.75,3.68Z" fill="#fff"/><path d="M77.55,144.47v-.3c0-6.3,4.69-10.27,10.6-10.27,5.36,0,10,3.08,10,10.12v1.76H84.33c.19,2.58,1.69,4.08,4.09,4.08,2.21,0,3.14-1,3.41-2.32h6.29c-.6,4.42-4,6.93-9.93,6.93C82.05,154.47,77.55,150.87,77.55,144.47Zm14-2.47c-.11-2.36-1.27-3.68-3.45-3.68-2,0-3.4,1.32-3.74,3.68Z" fill="#fff"/><path d="M99.47,144.43v-.3c0-6.67,3.67-10.23,8.31-10.23a6.34,6.34,0,0,1,6,3.3V125.81h6.71V154h-6.71v-3.18a6.59,6.59,0,0,1-6.1,3.63C103.17,154.47,99.47,151.21,99.47,144.43Zm14.53-.11V144c0-3.3-1.39-5.06-3.86-5.06s-3.86,1.69-3.86,5.1v.3c0,3.29,1.46,5,3.79,5S114,147.65,114,144.32Z" fill="#fff"/><path d="M129.43,147.8h6.18c.23,1.43.86,2.21,2.77,2.21,1.65,0,2.4-.63,2.4-1.61s-.94-1.38-3.63-1.76c-5.25-.67-7.46-2.21-7.46-6.29,0-4.35,3.86-6.45,8.39-6.45,4.84,0,8.21,1.65,8.66,6.33h-6.07a2.19,2.19,0,0,0-2.51-1.94c-1.46,0-2.21.63-2.21,1.53s.9,1.31,3.29,1.61c5.44.68,8.06,2.1,8.06,6.3,0,4.64-3.45,6.74-8.88,6.74S129.58,152.15,129.43,147.8Z" fill="#fff"/><path d="M148.53,144.47v-.3c0-6.3,4.69-10.27,10.75-10.27S170,137.76,170,144v.3c0,6.37-4.68,10.19-10.71,10.19S148.53,150.8,148.53,144.47Zm14.61-.11v-.3c0-3.3-1.31-5.14-3.86-5.14s-3.89,1.76-3.89,5.06v.3c0,3.37,1.31,5.21,3.89,5.21S163.14,147.61,163.14,144.36Z" fill="#fff"/><path d="M172.32,134.43H179v3a6.85,6.85,0,0,1,6.15-3.53,5.35,5.35,0,0,1,5.32,3.26A7.77,7.77,0,0,1,197,133.9c3.71,0,6.4,2.4,6.4,7.31V154h-6.7V142.33c0-2-1-3-2.51-3-1.8,0-3,1.16-3,3.3V154h-6.63V142.33c0-2-1-3-2.51-3-1.8,0-3,1.16-3,3.3V154h-6.7Z" fill="#fff"/><path d="M205.58,144.47v-.3c0-6.3,4.68-10.27,10.6-10.27,5.36,0,10,3.08,10,10.12v1.76H212.36c.19,2.58,1.68,4.08,4.08,4.08,2.21,0,3.15-1,3.41-2.32h6.29c-.59,4.42-4,6.93-9.92,6.93C210.07,154.47,205.58,150.87,205.58,144.47Zm14-2.47c-.12-2.36-1.28-3.68-3.45-3.68s-3.41,1.32-3.75,3.68Z" fill="#fff"/><path d="M29.38,197.82v-8.73H27v-4.57h2.36v-4.08h6.71v4.08H40v4.57H36.09v8.09c0,1.43.71,2.06,2,2.06a5.24,5.24,0,0,0,1.91-.33V204a14,14,0,0,1-3.71.56C31.86,204.56,29.38,202.43,29.38,197.82Z" fill="#fff"/><path d="M41.44,198.68c0-4.61,3.9-6.4,10.42-6.4h1.87v-.45c0-1.88-.45-3.11-2.58-3.11A2.4,2.4,0,0,0,48.49,191h-6.3c.3-4.72,4-7,9.37-7s8.84,2.21,8.84,7.42v12.69H53.88v-2.28c-.94,1.42-2.66,2.73-5.8,2.73C44.55,204.56,41.44,202.84,41.44,198.68Zm12.29-1.42v-1.2H52c-2.7,0-3.89.52-3.89,2.14,0,1.12.74,1.83,2.32,1.83C52.31,200,53.73,198.94,53.73,197.26Z" fill="#fff"/><path d="M68.6,194.15l-6.1-9.63h7.71l3,5.17,3-5.17H83.1l-6.18,9.11,6.78,10.48H76l-3.48-5.84-3.56,5.84H62.08Z" fill="#fff"/><path d="M92.38,184.52h6.71v3.9a6.18,6.18,0,0,1,6.33-4.16v6.26c-4.08-.12-6.33,1.16-6.33,4.3v9.29H92.38Z" fill="#fff"/><path d="M106.62,194.56v-.3c0-6.29,4.68-10.26,10.6-10.26,5.36,0,10,3.07,10,10.11v1.76H113.4c.19,2.59,1.68,4.09,4.08,4.09,2.21,0,3.15-1,3.41-2.33h6.29c-.6,4.42-4,6.93-9.92,6.93C111.11,204.56,106.62,201,106.62,194.56Zm14-2.47c-.12-2.36-1.28-3.67-3.45-3.67-2,0-3.41,1.31-3.75,3.67Z" fill="#fff"/><path d="M129.69,175.91h6.67v28.2h-6.67Z" fill="#fff"/><path d="M139.8,179.2a3.7,3.7,0,1,1,3.68,3.45A3.51,3.51,0,0,1,139.8,179.2Zm.34,5.32h6.71v19.59h-6.71Z" fill="#fff"/><path d="M149.39,194.56v-.3c0-6.29,4.69-10.26,10.6-10.26,5.36,0,10,3.07,10,10.11v1.76H156.17c.19,2.59,1.69,4.09,4.09,4.09,2.21,0,3.14-1,3.41-2.33H170c-.6,4.42-4,6.93-9.93,6.93C153.89,204.56,149.39,201,149.39,194.56Zm14.05-2.47c-.11-2.36-1.27-3.67-3.45-3.67-2,0-3.41,1.31-3.74,3.67Z" fill="#fff"/><path d="M173.29,189.09h-2.47v-4.57h2.47V182.8c0-4.87,3-7.19,7.68-7.19A11.7,11.7,0,0,1,184,176v4.91a6.15,6.15,0,0,0-1.83-.27A2,2,0,0,0,180,182.8v1.72h4v4.57h-4v15h-6.67Z" fill="#fff"/><path d="M191.27,194.6c0-2.85,1.95-4.65,3.67-6.29,1.27-1.24,2.44-2.36,2.44-3.68a2,2,0,0,0-2.29-2.24c-1.61,0-2.7,1.23-3,3.29h-6.52c.19-5.65,4.24-8.72,10-8.72s9,2.58,9,7a7.6,7.6,0,0,1-2.73,5.62c-1.84,1.83-4,3.29-4.31,5.13v.56h-6.33Zm-.86,6.22a4,4,0,0,1,8,0,4,4,0,0,1-8,0Z" fill="#fff"/><path d="M27,227.42h7.76l3.45,16.71,3.59-16.71h6.82l3.9,16.86,3.63-16.86h7.12L57,254.21H49l-4.12-17-4.16,17H33.24Z" fill="#fff"/><path d="M62.42,244.66v-.3c0-6.3,4.68-10.27,10.6-10.27,5.36,0,10,3.07,10,10.12V246H69.2c.19,2.58,1.69,4.08,4.08,4.08,2.21,0,3.15-1,3.41-2.32H83c-.6,4.42-4,6.93-9.93,6.93C66.92,254.66,62.42,251.06,62.42,244.66Zm14-2.48c-.11-2.36-1.28-3.67-3.45-3.67-2,0-3.41,1.31-3.74,3.67Z" fill="#fff"/><path d="M83.66,236.71l3-9.77,5.91,2-5.13,9.26Z" fill="#fff"/><path d="M95.05,226h6.66v28.21H95.05Z" fill="#fff"/><path d="M105.5,226h6.66v28.21H105.5Z" fill="#fff"/><path d="M121.49,254.21h6.67c.3,1.42,1.16,2.55,3.59,2.55,3,0,4.16-1.69,4.16-4.12v-3a6.88,6.88,0,0,1-6.07,3.59c-4.57,0-8.31-3.37-8.31-9.4v-.3c0-5.77,3.7-9.44,8.31-9.44a6.36,6.36,0,0,1,6.07,3.3v-2.77h6.71v17.94c0,5.84-3.86,8.92-10.87,8.92C125.08,261.48,122,258.67,121.49,254.21Zm14.61-10.42v-.26c0-2.7-1.39-4.42-3.86-4.42s-3.86,1.76-3.86,4.46v.3c0,2.7,1.42,4.42,3.82,4.42S136.1,246.57,136.1,243.79Z" fill="#fff"/><path d="M145,244.66v-.3c0-6.3,4.69-10.27,10.6-10.27,5.36,0,10,3.07,10,10.12V246H151.75c.19,2.58,1.69,4.08,4.09,4.08,2.21,0,3.14-1,3.41-2.32h6.29c-.6,4.42-4,6.93-9.93,6.93C149.47,254.66,145,251.06,145,244.66ZM159,242.18c-.11-2.36-1.27-3.67-3.45-3.67-2,0-3.4,1.31-3.74,3.67Z" fill="#fff"/><path d="M168.76,247.92v-8.73H166.4v-4.57h2.36v-4.09h6.7v4.09h3.86v4.57h-3.86v8.09a1.79,1.79,0,0,0,2,2.06,5,5,0,0,0,1.91-.34v5.1a14.31,14.31,0,0,1-3.71.56C171.23,254.66,168.76,252.52,168.76,247.92Z" fill="#fff"/><path d="M194.83,252.22,187,234.62h7.27l4,10.45,3.75-10.45h6.4L198,260.76h-6.4Z" fill="#fff"/><path d="M208.09,244.66v-.3c0-6.3,4.68-10.27,10.75-10.27s10.67,3.86,10.67,10.08v.3c0,6.37-4.68,10.19-10.71,10.19S208.09,251,208.09,244.66Zm14.61-.12v-.3c0-3.29-1.32-5.13-3.86-5.13s-3.9,1.76-3.9,5.06v.3c0,3.37,1.31,5.21,3.9,5.21S222.7,247.8,222.7,244.54Z" fill="#fff"/><path d="M231.72,247.39V234.62h6.71V246.3c0,2.21.86,3.3,2.77,3.3s3.33-1.2,3.33-3.71V234.62h6.71v19.59h-6.71v-3c-1.05,2-3,3.49-6.22,3.49C234.53,254.66,231.72,252.34,231.72,247.39Z" fill="#fff"/><path d="M254.64,234.62h6.71v3.89a6.19,6.19,0,0,1,6.33-4.16v6.26c-4.08-.11-6.33,1.16-6.33,4.31v9.29h-6.71Z" fill="#fff"/><path d="M28.49,284.71h6.7v3a6.84,6.84,0,0,1,6.14-3.52,5.32,5.32,0,0,1,5.32,3.26,7.76,7.76,0,0,1,6.48-3.26c3.71,0,6.41,2.39,6.41,7.3V304.3H52.83V292.62c0-2-1-3-2.51-3-1.79,0-3,1.16-3,3.29V304.3H40.7V292.62c0-2-1-3-2.51-3-1.8,0-3,1.16-3,3.29V304.3h-6.7Z" fill="#fff"/><path d="M61.67,298.87c0-4.61,3.9-6.4,10.42-6.4H74V292c0-1.88-.45-3.11-2.59-3.11a2.41,2.41,0,0,0-2.66,2.32H62.42c.3-4.72,4-7,9.37-7s8.84,2.21,8.84,7.41v12.7H74.11V302c-.94,1.42-2.66,2.73-5.81,2.73C64.78,304.75,61.67,303,61.67,298.87ZM74,297.45v-1.2H72.2c-2.7,0-3.9.52-3.9,2.13,0,1.13.75,1.84,2.32,1.84C72.54,300.22,74,299.13,74,297.45Z" fill="#fff"/><path d="M88.83,294.34l-6.11-9.63h7.72l3,5.17,3-5.17h6.9l-6.19,9.1,6.78,10.49H96.21l-3.49-5.84-3.55,5.84H82.31Z" fill="#fff"/><path d="M112.61,284.71h6.71v3.9a6.16,6.16,0,0,1,6.33-4.16v6.25c-4.09-.11-6.33,1.17-6.33,4.31v9.29h-6.71Z" fill="#fff"/><path d="M126.85,294.75v-.3c0-6.29,4.68-10.26,10.6-10.26,5.35,0,10,3.07,10,10.11v1.76H133.63c.18,2.59,1.68,4.08,4.08,4.08,2.21,0,3.15-1,3.41-2.32h6.29c-.6,4.42-4,6.93-9.93,6.93C131.34,304.75,126.85,301.16,126.85,294.75Zm14-2.47c-.11-2.36-1.27-3.67-3.44-3.67s-3.41,1.31-3.75,3.67Z" fill="#fff"/><path d="M150.74,289.28h-2.47v-4.57h2.47V283c0-4.87,3-7.19,7.68-7.19a11.7,11.7,0,0,1,3.07.41v4.9a6.08,6.08,0,0,0-1.83-.26,2,2,0,0,0-2.25,2.14v1.72h4v4.57h-4v15h-6.67Z" fill="#fff"/><path d="M163.48,297.48V284.71h6.7V296.4c0,2.21.86,3.3,2.78,3.3s3.33-1.2,3.33-3.71V284.71H183V304.3h-6.71v-3c-1,2-3,3.48-6.22,3.48C166.29,304.75,163.48,302.43,163.48,297.48Z" fill="#fff"/><path d="M186.4,284.71h6.71v3.15a6.89,6.89,0,0,1,6.44-3.67c3.78,0,6.41,2.36,6.41,7.38V304.3h-6.71V292.92c0-2.22-.86-3.3-2.81-3.3s-3.33,1.2-3.33,3.71v11H186.4Z" fill="#fff"/><path d="M208.24,294.71v-.3c0-6.66,3.67-10.22,8.31-10.22a6.34,6.34,0,0,1,6,3.29V276.1h6.71v28.2h-6.71v-3.18a6.59,6.59,0,0,1-6.1,3.63C212,304.75,208.24,301.49,208.24,294.71Zm14.53-.11v-.3c0-3.3-1.38-5.06-3.86-5.06s-3.85,1.69-3.85,5.1v.3c0,3.29,1.46,5,3.78,5S222.77,297.93,222.77,294.6Z" fill="#fff"/><path d="M231.31,307.34l3.15-9.86,6.22,2.22-5.4,9.17Z" fill="#fff"/><path d="M27.4,354.4h6.67c.3,1.42,1.16,2.54,3.59,2.54,3,0,4.16-1.68,4.16-4.12v-3a6.88,6.88,0,0,1-6.07,3.59c-4.57,0-8.31-3.37-8.31-9.4v-.3c0-5.77,3.71-9.44,8.31-9.44a6.36,6.36,0,0,1,6.07,3.3v-2.77h6.71v17.94c0,5.84-3.86,8.92-10.87,8.92C31,361.67,27.92,358.86,27.4,354.4ZM42,344v-.26c0-2.7-1.39-4.42-3.86-4.42s-3.86,1.76-3.86,4.46v.3c0,2.7,1.43,4.42,3.82,4.42S42,346.76,42,344Z" fill="#fff"/><path d="M51.78,347.58V334.81h6.71v11.68c0,2.21.86,3.3,2.77,3.3s3.33-1.2,3.33-3.71V334.81H71.3V354.4H64.59v-3c-1,2-3,3.49-6.21,3.49C54.59,354.85,51.78,352.52,51.78,347.58Z" fill="#fff"/><path d="M73.58,349c0-4.61,3.9-6.41,10.42-6.41h1.87v-.45c0-1.87-.45-3.11-2.59-3.11a2.4,2.4,0,0,0-2.65,2.32h-6.3c.3-4.72,4-7,9.37-7s8.84,2.21,8.84,7.42v12.7H86v-2.29c-.94,1.43-2.66,2.74-5.81,2.74C76.69,354.85,73.58,353.12,73.58,349Zm12.29-1.43v-1.2H84.11c-2.7,0-3.9.53-3.9,2.14,0,1.12.75,1.83,2.33,1.83C84.45,350.31,85.87,349.23,85.87,347.54Z" fill="#fff"/><path d="M95.79,334.81h6.71v3.89a6.18,6.18,0,0,1,6.33-4.16v6.26c-4.08-.11-6.33,1.16-6.33,4.31v9.29H95.79Z" fill="#fff"/><path d="M109.69,349c0-4.61,3.9-6.41,10.41-6.41H122v-.45c0-1.87-.45-3.11-2.59-3.11a2.41,2.41,0,0,0-2.66,2.32h-6.29c.3-4.72,4-7,9.36-7s8.84,2.21,8.84,7.42v12.7h-6.51v-2.29c-.94,1.43-2.66,2.74-5.81,2.74C112.8,354.85,109.69,353.12,109.69,349ZM122,347.54v-1.2h-1.76c-2.7,0-3.9.53-3.9,2.14,0,1.12.75,1.83,2.32,1.83C120.55,350.31,122,349.23,122,347.54Z" fill="#fff"/><path d="M131.9,334.81h6.71V338a6.91,6.91,0,0,1,6.44-3.67c3.78,0,6.41,2.36,6.41,7.38V354.4h-6.71V343c0-2.21-.86-3.3-2.81-3.3s-3.33,1.2-3.33,3.71v11H131.9Z" fill="#fff"/><path d="M155.61,348.1v-8.72h-2.36v-4.57h2.36v-4.09h6.71v4.09h3.85v4.57h-3.85v8.09c0,1.42.71,2.06,2,2.06a5,5,0,0,0,1.91-.34v5.1a14.24,14.24,0,0,1-3.71.56C158.08,354.85,155.61,352.71,155.61,348.1Z" fill="#fff"/><path d="M167.67,344.84v-.3c0-6.29,4.68-10.26,10.6-10.26,5.36,0,10,3.07,10,10.12v1.76H174.45c.19,2.58,1.69,4.08,4.09,4.08,2.21,0,3.14-1,3.4-2.32h6.3c-.6,4.42-4,6.93-9.93,6.93C172.17,354.85,167.67,351.25,167.67,344.84Zm14.05-2.47c-.11-2.36-1.27-3.67-3.45-3.67-2,0-3.41,1.31-3.74,3.67Z" fill="#fff"/><path d="M189.51,344.84v-.3c0-6.29,4.68-10.26,10.6-10.26,5.36,0,10,3.07,10,10.12v1.76H196.29c.19,2.58,1.68,4.08,4.08,4.08,2.21,0,3.15-1,3.41-2.32h6.29c-.6,4.42-4,6.93-9.92,6.93C194,354.85,189.51,351.25,189.51,344.84Zm14.05-2.47c-.12-2.36-1.28-3.67-3.45-3.67s-3.41,1.31-3.75,3.67Z" fill="#fff"/><path d="M211.42,344.81v-.3c0-6.67,3.67-10.23,8.32-10.23a6.35,6.35,0,0,1,6,3.3V326.19h6.7V354.4h-6.7v-3.19a6.61,6.61,0,0,1-6.11,3.64C215.13,354.85,211.42,351.59,211.42,344.81ZM226,344.7v-.3c0-3.3-1.38-5.06-3.85-5.06s-3.86,1.68-3.86,5.09v.3c0,3.3,1.46,5,3.78,5S226,348,226,344.7Z" fill="#fff"/><path d="M235.62,351a3.74,3.74,0,0,1,3.82-3.79,3.79,3.79,0,1,1,0,7.57A3.74,3.74,0,0,1,235.62,351Z" fill="#fff"/></g></g></svg>