<svg xmlns="http://www.w3.org/2000/svg" viewBox="0 0 728 90"><title>H28</title><g id="Layer_2" data-name="Layer 2"><g id="Rect"><rect width="728" height="90" fill="none"/></g><g id="H28"><g id="_Business_Insider_on_H_R_Block_Online" data-name="– Business Insider on H&amp;R Block Online"><path d="M306.26,72.17h6.17v1.18h-6.17Z" fill="#fff"/><path d="M317.14,66.69h3.58c2.06,0,3.28.79,3.28,2.61v.06a2.06,2.06,0,0,1-1.58,2.13,2.19,2.19,0,0,1,2,2.36v.06c0,1.86-1.23,2.8-3.43,2.8h-3.85Zm3.36,4.22c1.23,0,1.71-.45,1.71-1.47v-.06c0-.95-.55-1.35-1.74-1.35H319v2.88Zm.26,4.47c1.25,0,1.82-.56,1.82-1.6v0c0-1-.57-1.56-1.94-1.56H319v3.21Z" fill="#fff"/><path d="M325.75,74.08v-4.7h1.69v4.5c0,1.11.46,1.61,1.44,1.61a1.64,1.64,0,0,0,1.71-1.75V69.38h1.7v7.33h-1.7V75.56a2.45,2.45,0,0,1-2.32,1.29C326.82,76.85,325.75,76,325.75,74.08Z" fill="#fff"/><path d="M333.51,74.43h1.6c.09.74.46,1.17,1.46,1.17s1.32-.32,1.32-.93-.49-.83-1.57-1c-1.94-.31-2.65-.86-2.65-2.23s1.37-2.2,2.74-2.2,2.69.56,2.88,2.21h-1.57a1.14,1.14,0,0,0-1.31-1c-.72,0-1.16.35-1.16.87s.35.74,1.51.94c1.73.27,2.75.69,2.75,2.24s-1.05,2.34-2.93,2.34S333.58,76,333.51,74.43Z" fill="#fff"/><path d="M340.64,67.21a1,1,0,1,1,1,1A1,1,0,0,1,340.64,67.21Zm.18,2.17h1.7v7.33h-1.7Z" fill="#fff"/><path d="M344.36,69.38h1.7v1.17a2.51,2.51,0,0,1,2.37-1.32c1.47,0,2.5.85,2.5,2.87v4.61h-1.69V72.26c0-1.11-.45-1.62-1.46-1.62a1.63,1.63,0,0,0-1.72,1.76v4.31h-1.7Z" fill="#fff"/><path d="M352.18,73.12V73a3.56,3.56,0,0,1,3.64-3.78c1.82,0,3.46,1.08,3.46,3.7v.49h-5.37c.06,1.38.76,2.17,2,2.17,1,0,1.56-.41,1.68-1.12h1.64c-.24,1.54-1.48,2.38-3.36,2.38A3.51,3.51,0,0,1,352.18,73.12Zm5.42-.84c-.09-1.26-.73-1.82-1.78-1.82a1.89,1.89,0,0,0-1.88,1.82Z" fill="#fff"/><path d="M360.09,74.43h1.59c.09.74.47,1.17,1.46,1.17s1.32-.32,1.32-.93-.49-.83-1.57-1c-1.94-.31-2.65-.86-2.65-2.23s1.37-2.2,2.75-2.2,2.68.56,2.87,2.21h-1.57a1.13,1.13,0,0,0-1.3-1c-.73,0-1.17.35-1.17.87s.35.74,1.52.94c1.72.27,2.74.69,2.74,2.24s-1.05,2.34-2.93,2.34S360.16,76,360.09,74.43Z" fill="#fff"/><path d="M366.81,74.43h1.59c.09.74.47,1.17,1.46,1.17s1.32-.32,1.32-.93-.49-.83-1.57-1c-1.94-.31-2.65-.86-2.65-2.23s1.37-2.2,2.75-2.2,2.68.56,2.87,2.21H371a1.13,1.13,0,0,0-1.3-1c-.73,0-1.17.35-1.17.87s.35.74,1.52.94c1.72.27,2.74.69,2.74,2.24s-1.05,2.34-2.93,2.34S366.88,76,366.81,74.43Z" fill="#fff"/><path d="M377.39,66.69h1.88v10h-1.88Z" fill="#fff"/><path d="M381.28,69.38H383v1.17a2.51,2.51,0,0,1,2.36-1.32c1.47,0,2.51.85,2.51,2.87v4.61h-1.69V72.26c0-1.11-.45-1.62-1.46-1.62A1.63,1.63,0,0,0,383,72.4v4.31h-1.7Z" fill="#fff"/><path d="M389,74.43h1.6c.08.74.46,1.17,1.46,1.17s1.31-.32,1.31-.93-.49-.83-1.56-1c-1.94-.31-2.65-.86-2.65-2.23s1.37-2.2,2.74-2.2,2.69.56,2.87,2.21h-1.56a1.14,1.14,0,0,0-1.31-1c-.73,0-1.16.35-1.16.87s.35.74,1.51.94c1.73.27,2.75.69,2.75,2.24s-1,2.34-2.93,2.34S389.09,76,389,74.43Z" fill="#fff"/><path d="M396.15,67.21a1,1,0,1,1,1,1A1,1,0,0,1,396.15,67.21Zm.18,2.17H398v7.33h-1.7Z" fill="#fff"/><path d="M399.4,73.17v-.12c0-2.34,1.38-3.82,3.29-3.82A2.52,2.52,0,0,1,405,70.5V66h1.69V76.71H405V75.48a2.8,2.8,0,0,1-2.41,1.37C400.78,76.85,399.4,75.55,399.4,73.17Zm5.68-.09V73c0-1.61-.74-2.41-2-2.41s-2,.87-2,2.45v.11c0,1.62.82,2.38,1.91,2.38S405.08,74.72,405.08,73.08Z" fill="#fff"/><path d="M408,73.12V73a3.56,3.56,0,0,1,3.64-3.78c1.82,0,3.46,1.08,3.46,3.7v.49h-5.37c.06,1.38.76,2.17,2,2.17,1,0,1.55-.41,1.68-1.12h1.64c-.24,1.54-1.49,2.38-3.36,2.38A3.51,3.51,0,0,1,408,73.12Zm5.42-.84c-.09-1.26-.73-1.82-1.78-1.82a1.88,1.88,0,0,0-1.88,1.82Z" fill="#fff"/><path d="M416.44,69.38h1.69v1.38a2.44,2.44,0,0,1,2.38-1.49v1.58c-1.48,0-2.38.49-2.38,2.05v3.81h-1.69Z" fill="#fff"/><path d="M424.41,73.12V73a3.77,3.77,0,0,1,7.53,0v.11a3.77,3.77,0,0,1-7.53,0Zm5.79,0V73c0-1.51-.76-2.44-2-2.44s-2,.91-2,2.42v.12c0,1.49.74,2.43,2,2.43S430.2,74.59,430.2,73.1Z" fill="#fff"/><path d="M433.25,69.38h1.69v1.17a2.52,2.52,0,0,1,2.37-1.32c1.47,0,2.51.85,2.51,2.87v4.61h-1.7V72.26c0-1.11-.45-1.62-1.45-1.62a1.63,1.63,0,0,0-1.73,1.76v4.31h-1.69Z" fill="#fff"/><path d="M444.81,66.69h1.87V71h4.49V66.69h1.88v10h-1.88V72.45h-4.49v4.26h-1.87Z" fill="#fff"/><path d="M461.92,74.67l1.68,2h-2.14l-.84-1a3.63,3.63,0,0,1-2.74,1.15c-1.95,0-3.3-1.11-3.3-2.86,0-1.47.91-2.33,2.26-3a3.36,3.36,0,0,1-.79-2,2.5,2.5,0,0,1,2.76-2.42,2.29,2.29,0,0,1,2.53,2.17c0,1.16-.79,2-2.09,2.55L461,73.49l1-2h1.52Zm-2.17-.06L457.62,72a1.89,1.89,0,0,0-1.27,1.78,1.55,1.55,0,0,0,1.72,1.64A2.13,2.13,0,0,0,459.75,74.61Zm-1.29-4.09c.94-.44,1.33-.88,1.33-1.67a.94.94,0,0,0-1-1,1.07,1.07,0,0,0-1.1,1.19A2.51,2.51,0,0,0,458.46,70.52Z" fill="#fff"/><path d="M464.93,66.69h3.36c2.2,0,3.74.9,3.74,3v0a2.64,2.64,0,0,1-2.23,2.69l2.82,4.33h-2l-2.62-4h-1.19v4h-1.86Zm3.36,4.64c1.25,0,1.91-.53,1.91-1.6v0c0-1.15-.72-1.54-1.91-1.54h-1.5v3.19Z" fill="#fff"/><path d="M477,66.69h3.59c2.06,0,3.28.79,3.28,2.61v.06a2.06,2.06,0,0,1-1.59,2.13,2.19,2.19,0,0,1,2,2.36v.06c0,1.86-1.24,2.8-3.44,2.8H477Zm3.36,4.22c1.24,0,1.71-.45,1.71-1.47v-.06c0-.95-.54-1.35-1.73-1.35h-1.52v2.88Zm.27,4.47c1.25,0,1.82-.56,1.82-1.6v0c0-1-.57-1.56-1.95-1.56h-1.68v3.21Z" fill="#fff"/><path d="M485.73,66h1.7V76.71h-1.7Z" fill="#fff"/><path d="M488.79,73.12V73a3.76,3.76,0,0,1,7.52,0v.11a3.76,3.76,0,0,1-7.52,0Zm5.78,0V73c0-1.51-.76-2.44-2-2.44s-2,.91-2,2.42v.12c0,1.49.74,2.43,2,2.43S494.57,74.59,494.57,73.1Z" fill="#fff"/><path d="M497.13,73.14V73a3.61,3.61,0,0,1,3.7-3.8c1.62,0,3.15.73,3.34,2.75h-1.63a1.52,1.52,0,0,0-1.68-1.39c-1.17,0-2,.9-2,2.41v.11c0,1.6.78,2.44,2,2.44A1.67,1.67,0,0,0,502.66,74h1.56a3.11,3.11,0,0,1-3.39,2.87A3.5,3.5,0,0,1,497.13,73.14Z" fill="#fff"/><path d="M505.46,66h1.69v6.62l2.62-3.23h1.85l-2.84,3.37,3.08,4h-2l-2.75-3.6v3.6h-1.69Z" fill="#fff"/><path d="M515.57,71.77v-.12a4.92,4.92,0,0,1,5.07-5.1,4.85,4.85,0,0,1,5,5.06v.11a5.06,5.06,0,1,1-10.11,0Zm8.18,0v-.12c0-2.05-1.15-3.58-3.11-3.58s-3.13,1.44-3.13,3.6v.11c0,2.19,1.33,3.6,3.16,3.6S523.75,73.91,523.75,71.74Z" fill="#fff"/><path d="M527.12,69.38h1.69v1.17a2.51,2.51,0,0,1,2.37-1.32c1.47,0,2.51.85,2.51,2.87v4.61H532V72.26c0-1.11-.45-1.62-1.45-1.62a1.63,1.63,0,0,0-1.73,1.76v4.31h-1.69Z" fill="#fff"/><path d="M535.46,66h1.7V76.71h-1.7Z" fill="#fff"/><path d="M538.86,67.21a1,1,0,1,1,1,1A1,1,0,0,1,538.86,67.21Zm.18,2.17h1.7v7.33H539Z" fill="#fff"/><path d="M542.59,69.38h1.69v1.17a2.51,2.51,0,0,1,2.37-1.32c1.47,0,2.51.85,2.51,2.87v4.61h-1.7V72.26c0-1.11-.45-1.62-1.46-1.62a1.63,1.63,0,0,0-1.72,1.76v4.31h-1.69Z" fill="#fff"/><path d="M550.4,73.12V73A3.56,3.56,0,0,1,554,69.23c1.82,0,3.46,1.08,3.46,3.7v.49h-5.36c.05,1.38.75,2.17,2,2.17,1,0,1.56-.41,1.68-1.12h1.64c-.24,1.54-1.48,2.38-3.36,2.38A3.51,3.51,0,0,1,550.4,73.12Zm5.42-.84c-.08-1.26-.73-1.82-1.78-1.82a1.89,1.89,0,0,0-1.88,1.82Z" fill="#fff"/></g><g id="_H_R_Block_is_the_online_winner._" data-name="&quot;H&amp;R Block [is] the [online] winner.&quot;"><path d="M121.06,26h4.32l-.54,7.09h-3.27Zm5.46,0h4.35l-.54,7.09h-3.27Z" fill="#fff"/><path d="M133.29,26h5.3v7h6.06V26h5.28V44.39h-5.28V37.13h-6.06v7.26h-5.3Z" fill="#fff"/><path d="M167.59,40.63l3.07,3.76h-6l-1.08-1.34a7.31,7.31,0,0,1-5,1.65c-3.91,0-6.46-2.06-6.46-5.56,0-2.37,1.44-4.13,4-5.36a5.89,5.89,0,0,1-1.13-3.22c0-3.14,2.68-4.82,5.92-4.82,2.94,0,5.59,1.47,5.59,4.3,0,2-1.18,3.48-3.68,4.56l2.31,2.84,1.34-2.63h4Zm-6.39-.54-2.91-3.51a2.2,2.2,0,0,0-1.23,2,2.13,2.13,0,0,0,2.34,2.29A2.44,2.44,0,0,0,161.2,40.09Zm-.56-7.42c1.23-.59,1.82-1.29,1.82-2.24A1.32,1.32,0,0,0,161.1,29a1.47,1.47,0,0,0-1.52,1.6A3.36,3.36,0,0,0,160.64,32.67Z" fill="#fff"/><path d="M172.32,26h7.22c4.81,0,7.49,2,7.49,5.85v.1a4.82,4.82,0,0,1-3.32,4.85l4.4,7.62h-5.56l-3.74-6.59h-1.23v6.59h-5.26Zm7,8.4c1.78,0,2.65-.75,2.65-2.24V32c0-1.5-.93-2.09-2.63-2.09h-1.72v4.43Z" fill="#fff"/><path d="M194.57,26h8.22c4.35,0,6.21,2,6.21,4.82v.1a3.8,3.8,0,0,1-3.12,4,4,4,0,0,1,3.68,4.3v.1c0,3.3-2.14,5.13-6.69,5.13h-8.3Zm7.16,7.32c1.65,0,2.27-.57,2.27-1.88v-.1c0-1.27-.67-1.83-2.27-1.83h-2v3.81Zm.18,7.57c1.68,0,2.45-.77,2.45-2.14v-.1c0-1.39-.75-2.11-2.6-2.11h-2v4.35Z" fill="#fff"/><path d="M211.39,25H216v19.4h-4.58Z" fill="#fff"/><path d="M217.72,37.82v-.2c0-4.33,3.22-7.06,7.39-7.06s7.34,2.65,7.34,6.93v.2c0,4.38-3.22,7-7.36,7S217.72,42.17,217.72,37.82Zm10.05-.08v-.2c0-2.27-.91-3.53-2.66-3.53s-2.68,1.21-2.68,3.48v.2c0,2.32.9,3.58,2.68,3.58S227.77,40,227.77,37.74Z" fill="#fff"/><path d="M233.35,37.82v-.2c0-4.49,3.22-7.06,7.19-7.06,3.29,0,6.33,1.44,6.59,5.54H242.8a2,2,0,0,0-2.16-2c-1.62,0-2.58,1.16-2.58,3.42v.21c0,2.34.9,3.55,2.66,3.55a2.24,2.24,0,0,0,2.34-2.24h4.15c-.13,3.4-2.42,5.62-6.78,5.62C236.42,44.7,233.35,42.35,233.35,37.82Z" fill="#fff"/><path d="M248.7,25h4.61V36.25l3.63-5.33h4.79l-4.4,6,4.76,7.42h-5.15l-3.63-5.9v5.9H248.7Z" fill="#fff"/><path d="M268.19,24.4h7.86v3.38h-3.22v17h3.22V48.2h-7.86Z" fill="#fff"/><path d="M277.9,27.26a2.4,2.4,0,0,1,2.52-2.39,2.39,2.39,0,1,1,0,4.76A2.38,2.38,0,0,1,277.9,27.26Zm.23,3.66h4.61V44.39h-4.61Z" fill="#fff"/><path d="M284.31,40.11h4.25c.15,1,.59,1.52,1.9,1.52,1.14,0,1.65-.43,1.65-1.1s-.64-1-2.5-1.21c-3.6-.47-5.12-1.52-5.12-4.33,0-3,2.65-4.43,5.77-4.43,3.32,0,5.64,1.13,5.95,4.35H292a1.51,1.51,0,0,0-1.73-1.34c-1,0-1.52.44-1.52,1.06s.62.9,2.27,1.11c3.73.46,5.53,1.44,5.53,4.32,0,3.2-2.37,4.64-6.1,4.64S284.41,43.1,284.31,40.11Z" fill="#fff"/><path d="M297.47,44.83h3.19v-17h-3.19V24.4h7.83V48.2h-7.83Z" fill="#fff"/><path d="M313.28,40.06v-6h-1.63V30.92h1.63V28.11h4.61v2.81h2.65v3.14h-2.65v5.56c0,1,.49,1.42,1.36,1.42a3.65,3.65,0,0,0,1.32-.23v3.5a9.49,9.49,0,0,1-2.55.39C315,44.7,313.28,43.23,313.28,40.06Z" fill="#fff"/><path d="M322.29,25h4.61v8.09a4.75,4.75,0,0,1,4.43-2.52c2.6,0,4.4,1.62,4.4,5.07v8.76h-4.61V36.56c0-1.52-.59-2.27-1.93-2.27s-2.29.83-2.29,2.55v7.55h-4.61Z" fill="#fff"/><path d="M337.25,37.82v-.2c0-4.33,3.22-7.06,7.29-7.06,3.68,0,6.85,2.11,6.85,7v1.21h-9.48a2.69,2.69,0,0,0,2.81,2.81c1.52,0,2.16-.7,2.34-1.6h4.33c-.41,3-2.76,4.77-6.83,4.77C340.34,44.7,337.25,42.23,337.25,37.82Zm9.66-1.7c-.08-1.62-.88-2.52-2.37-2.52A2.57,2.57,0,0,0,342,36.12Z" fill="#fff"/><path d="M358,24.4h7.86v3.38h-3.22v17h3.22V48.2H358Z" fill="#fff"/><path d="M366.79,37.82v-.2c0-4.33,3.21-7.06,7.39-7.06s7.34,2.65,7.34,6.93v.2c0,4.38-3.22,7-7.37,7S366.79,42.17,366.79,37.82Zm10-.08v-.2c0-2.27-.9-3.53-2.65-3.53s-2.68,1.21-2.68,3.48v.2c0,2.32.9,3.58,2.68,3.58S376.83,40,376.83,37.74Z" fill="#fff"/><path d="M383.14,30.92h4.61v2.16a4.75,4.75,0,0,1,4.43-2.52c2.6,0,4.4,1.62,4.4,5.07v8.76H392V36.56c0-1.52-.59-2.27-1.93-2.27s-2.29.83-2.29,2.55v7.55h-4.61Z" fill="#fff"/><path d="M399,25h4.58v19.4H399Z" fill="#fff"/><path d="M405.9,27.26a2.54,2.54,0,1,1,2.52,2.37A2.4,2.4,0,0,1,405.9,27.26Zm.23,3.66h4.61V44.39h-4.61Z" fill="#fff"/><path d="M413.21,30.92h4.61v2.16a4.75,4.75,0,0,1,4.43-2.52c2.6,0,4.41,1.62,4.41,5.07v8.76h-4.61V36.56c0-1.52-.6-2.27-1.94-2.27s-2.29.83-2.29,2.55v7.55h-4.61Z" fill="#fff"/><path d="M428.17,37.82v-.2c0-4.33,3.22-7.06,7.29-7.06,3.68,0,6.85,2.11,6.85,7v1.21h-9.48a2.69,2.69,0,0,0,2.81,2.81c1.52,0,2.16-.7,2.35-1.6h4.32c-.41,3-2.75,4.77-6.82,4.77C431.26,44.7,428.17,42.23,428.17,37.82Zm9.66-1.7c-.08-1.62-.87-2.52-2.37-2.52a2.56,2.56,0,0,0-2.57,2.52Z" fill="#fff"/><path d="M443.29,44.83h3.19v-17h-3.19V24.4h7.83V48.2h-7.83Z" fill="#fff"/><path d="M457.35,30.92h4.81l2,8.06,2.27-8.06h3.71l2,8.06,2.19-8.06h4.38L474.4,44.39H470l-2-7.52-2.08,7.52h-4.48Z" fill="#fff"/><path d="M479.75,27.26a2.4,2.4,0,0,1,2.52-2.39,2.39,2.39,0,1,1,0,4.76A2.38,2.38,0,0,1,479.75,27.26Zm.23,3.66h4.61V44.39H480Z" fill="#fff"/><path d="M487.06,30.92h4.61v2.16a4.75,4.75,0,0,1,4.43-2.52c2.6,0,4.41,1.62,4.41,5.07v8.76H495.9V36.56c0-1.52-.6-2.27-1.94-2.27s-2.29.83-2.29,2.55v7.55h-4.61Z" fill="#fff"/><path d="M502.74,30.92h4.61v2.16a4.75,4.75,0,0,1,4.43-2.52c2.6,0,4.41,1.62,4.41,5.07v8.76h-4.61V36.56c0-1.52-.59-2.27-1.93-2.27s-2.3.83-2.3,2.55v7.55h-4.61Z" fill="#fff"/><path d="M517.7,37.82v-.2c0-4.33,3.22-7.06,7.29-7.06,3.69,0,6.85,2.11,6.85,7v1.21h-9.47a2.68,2.68,0,0,0,2.8,2.81c1.52,0,2.17-.7,2.35-1.6h4.32c-.41,3-2.75,4.77-6.82,4.77C520.79,44.7,517.7,42.23,517.7,37.82Zm9.66-1.7c-.07-1.62-.87-2.52-2.37-2.52a2.56,2.56,0,0,0-2.57,2.52Z" fill="#fff"/><path d="M533.44,30.92h4.61V33.6a4.23,4.23,0,0,1,4.35-2.86V35c-2.81-.08-4.35.8-4.35,3v6.39h-4.61Z" fill="#fff"/><path d="M542.35,42.07a2.56,2.56,0,0,1,2.62-2.6,2.6,2.6,0,1,1,0,5.2A2.56,2.56,0,0,1,542.35,42.07Z" fill="#fff"/><path d="M547.11,26h4.33l-.54,7.09h-3.28Zm5.46,0h4.35l-.54,7.09h-3.27Z" fill="#fff"/></g></g></g></svg>