<svg xmlns="http://www.w3.org/2000/svg" viewBox="0 0 300 600"><title>txt</title><g id="Layer_2" data-name="Layer 2"><g id="Artboard_1" data-name="Artboard 1" style="isolation:isolate"><g id="headline1"><g id="Get_unlimited_access_to_a_tax_pro_with_H_R_Block_Online." data-name="Get unlimited access to a tax pro with  H&amp;R Block Online."><path d="M20.23,149.28V149c0-8.68,6.38-14.54,15-14.54,6.73,0,12.7,3.07,13.26,10.48H40.35c-.39-2.67-2.11-4.06-5.13-4.06-4,0-6.46,3.1-6.46,8.24v.32c0,4.62,1.71,8.21,6.65,8.21,4,0,5.5-2,5.66-4.3H35.73v-5.7H49.12v3.5c0,7.26-4.74,12.71-13.94,12.71C25.49,163.82,20.23,157.81,20.23,149.28Z" fill="#fff"/><path d="M50.75,153.19v-.32c0-6.7,5-10.92,11.27-10.92,5.7,0,10.6,3.27,10.6,10.76v1.87H58c.2,2.75,1.79,4.34,4.34,4.34,2.35,0,3.35-1.07,3.63-2.47h6.69c-.64,4.7-4.26,7.37-10.56,7.37C55.53,163.82,50.75,160,50.75,153.19Zm14.94-2.63c-.12-2.51-1.36-3.91-3.67-3.91-2.15,0-3.62,1.4-4,3.91Z" fill="#fff"/><path d="M76.05,156.65v-9.28H73.54v-4.86h2.51v-4.34h7.13v4.34h4.1v4.86h-4.1V156c0,1.52.75,2.2,2.11,2.2a5.4,5.4,0,0,0,2-.36v5.42a15.42,15.42,0,0,1-3.94.59C78.68,163.82,76.05,161.55,76.05,156.65Z" fill="#fff"/><path d="M97.08,156.09V142.51h7.13v12.43c0,2.35.92,3.5,3,3.5s3.54-1.27,3.54-3.94v-12h7.14v20.84H110.7v-3.23c-1.11,2.15-3.14,3.7-6.61,3.7C100.07,163.82,97.08,161.35,97.08,156.09Z" fill="#fff"/><path d="M121.46,142.51h7.13v3.34a7.36,7.36,0,0,1,6.85-3.9c4,0,6.82,2.51,6.82,7.85v13.55h-7.14V151.23c0-2.35-.91-3.5-3-3.5s-3.55,1.27-3.55,3.94v11.68h-7.13Z" fill="#fff"/><path d="M145.92,133.35H153v30h-7.09Z" fill="#fff"/><path d="M156.67,136.85a3.93,3.93,0,1,1,3.91,3.67A3.72,3.72,0,0,1,156.67,136.85Zm.36,5.66h7.13v20.84H157Z" fill="#fff"/><path d="M168,142.51h7.13v3.19a7.27,7.27,0,0,1,6.53-3.75,5.68,5.68,0,0,1,5.66,3.47A8.26,8.26,0,0,1,194.2,142c4,0,6.82,2.55,6.82,7.77v13.63h-7.14V150.92c0-2.12-1-3.15-2.67-3.15-1.91,0-3.18,1.23-3.18,3.5v12.08H181V150.92c0-2.12-1-3.15-2.67-3.15-1.92,0-3.19,1.23-3.19,3.5v12.08H168Z" fill="#fff"/><path d="M204.32,136.85a3.72,3.72,0,0,1,3.9-3.7,3.69,3.69,0,1,1,0,7.37A3.69,3.69,0,0,1,204.32,136.85Zm.36,5.66h7.13v20.84h-7.13Z" fill="#fff"/><path d="M216.59,156.65v-9.28h-2.51v-4.86h2.51v-4.34h7.13v4.34h4.1v4.86h-4.1V156c0,1.52.76,2.2,2.11,2.2a5.37,5.37,0,0,0,2-.36v5.42a15.34,15.34,0,0,1-3.94.59C219.22,163.82,216.59,161.55,216.59,156.65Z" fill="#fff"/><path d="M229.42,153.19v-.32c0-6.7,5-10.92,11.27-10.92,5.7,0,10.6,3.27,10.6,10.76v1.87H236.63c.2,2.75,1.79,4.34,4.34,4.34,2.35,0,3.35-1.07,3.62-2.47h6.7c-.64,4.7-4.27,7.37-10.56,7.37C234.2,163.82,229.42,160,229.42,153.19Zm14.94-2.63c-.12-2.51-1.36-3.91-3.67-3.91-2.15,0-3.63,1.4-4,3.91Z" fill="#fff"/><path d="M252.72,153.15v-.32c0-7.09,3.9-10.88,8.84-10.88a6.77,6.77,0,0,1,6.42,3.51V133.35h7.13v30H268V160a7,7,0,0,1-6.5,3.86C256.66,163.82,252.72,160.36,252.72,153.15Zm15.46-.12v-.32c0-3.51-1.48-5.38-4.11-5.38s-4.1,1.79-4.1,5.42v.32c0,3.5,1.55,5.3,4,5.3S268.18,156.57,268.18,153Z" fill="#fff"/><path d="M19.92,202.33c0-4.91,4.14-6.82,11.07-6.82h2V195c0-2-.47-3.3-2.75-3.3a2.55,2.55,0,0,0-2.82,2.47h-6.7c.32-5,4.27-7.49,10-7.49s9.41,2.35,9.41,7.89v13.5H33.14v-2.43c-1,1.52-2.83,2.91-6.17,2.91C23.22,208.58,19.92,206.75,19.92,202.33ZM33,200.81v-1.27H31.11c-2.87,0-4.14.55-4.14,2.27,0,1.19.8,1.95,2.47,1.95C31.47,203.76,33,202.6,33,200.81Z" fill="#fff"/><path d="M42.42,197.94v-.32c0-6.93,5-10.91,11.12-10.91,5.1,0,9.8,2.23,10.2,8.56H57.05c-.32-2-1.28-3-3.35-3-2.51,0-4,1.79-4,5.29v.32c0,3.63,1.4,5.5,4.11,5.5a3.46,3.46,0,0,0,3.62-3.46h6.42c-.2,5.25-3.75,8.68-10.48,8.68C47.17,208.58,42.42,205,42.42,197.94Z" fill="#fff"/><path d="M65.05,197.94v-.32c0-6.93,5-10.91,11.12-10.91,5.1,0,9.8,2.23,10.2,8.56h-6.7c-.32-2-1.27-3-3.34-3-2.51,0-4,1.79-4,5.29v.32c0,3.63,1.4,5.5,4.11,5.5a3.46,3.46,0,0,0,3.62-3.46h6.41c-.19,5.25-3.74,8.68-10.47,8.68C69.79,208.58,65.05,205,65.05,197.94Z" fill="#fff"/><path d="M87.68,197.94v-.32c0-6.69,5-10.91,11.27-10.91,5.7,0,10.6,3.26,10.6,10.75v1.88H94.89c.2,2.75,1.79,4.34,4.34,4.34,2.35,0,3.35-1.08,3.63-2.47h6.69c-.64,4.7-4.26,7.37-10.56,7.37C92.46,208.58,87.68,204.76,87.68,197.94Zm14.94-2.63c-.12-2.51-1.36-3.9-3.67-3.9-2.15,0-3.62,1.39-4,3.9Z" fill="#fff"/><path d="M110.82,201.49h6.58c.24,1.51.91,2.35,2.94,2.35,1.76,0,2.55-.68,2.55-1.71s-1-1.48-3.86-1.88c-5.58-.71-7.93-2.35-7.93-6.69,0-4.62,4.11-6.85,8.93-6.85,5.14,0,8.72,1.75,9.2,6.73h-6.46a2.32,2.32,0,0,0-2.66-2.07c-1.56,0-2.36.68-2.36,1.63s1,1.4,3.51,1.72c5.78.71,8.57,2.23,8.57,6.69,0,4.94-3.67,7.17-9.45,7.17S111,206.11,110.82,201.49Z" fill="#fff"/><path d="M130.86,201.49h6.57c.24,1.51.92,2.35,2.95,2.35,1.76,0,2.55-.68,2.55-1.71s-1-1.48-3.86-1.88c-5.58-.71-7.93-2.35-7.93-6.69,0-4.62,4.1-6.85,8.92-6.85,5.14,0,8.73,1.75,9.21,6.73h-6.46a2.33,2.33,0,0,0-2.67-2.07c-1.55,0-2.35.68-2.35,1.63s1,1.4,3.51,1.72c5.78.71,8.56,2.23,8.56,6.69,0,4.94-3.66,7.17-9.44,7.17S131,206.11,130.86,201.49Z" fill="#fff"/><path d="M160.38,201.41v-9.28h-2.51v-4.86h2.51v-4.35h7.13v4.35h4.11v4.86h-4.11v8.6c0,1.52.76,2.19,2.11,2.19a5.46,5.46,0,0,0,2-.36V208a15,15,0,0,1-3.95.6C163,208.58,160.38,206.31,160.38,201.41Z" fill="#fff"/><path d="M173.21,197.94v-.32c0-6.69,5-10.91,11.43-10.91S196,190.81,196,197.42v.32c0,6.78-5,10.84-11.4,10.84S173.21,204.68,173.21,197.94Zm15.54-.12v-.32c0-3.5-1.4-5.45-4.11-5.45s-4.14,1.87-4.14,5.37v.32c0,3.59,1.39,5.54,4.14,5.54S188.75,201.29,188.75,197.82Z" fill="#fff"/><path d="M204.56,202.33c0-4.91,4.14-6.82,11.07-6.82h2V195c0-2-.48-3.3-2.75-3.3a2.55,2.55,0,0,0-2.83,2.47h-6.7c.32-5,4.27-7.49,10-7.49s9.41,2.35,9.41,7.89v13.5h-6.93v-2.43c-1,1.52-2.83,2.91-6.18,2.91C207.86,208.58,204.56,206.75,204.56,202.33Zm13.07-1.52v-1.27h-1.88c-2.87,0-4.14.55-4.14,2.27,0,1.19.8,1.95,2.47,1.95C216.11,203.76,217.63,202.6,217.63,200.81Z" fill="#fff"/><path d="M22.07,246.17v-9.29H19.56V232h2.51v-4.34H29.2V232h4.1v4.86H29.2v8.61a1.9,1.9,0,0,0,2.11,2.19,5.37,5.37,0,0,0,2-.36v5.42a14.85,14.85,0,0,1-3.94.6C24.7,253.34,22.07,251.07,22.07,246.17Z" fill="#fff"/><path d="M34.89,247.08c0-4.9,4.15-6.81,11.08-6.81h2v-.48c0-2-.48-3.31-2.75-3.31A2.57,2.57,0,0,0,42.38,239H35.69c.32-5,4.26-7.49,10-7.49s9.4,2.35,9.4,7.89v13.51H48.12v-2.43c-1,1.51-2.83,2.91-6.17,2.91C38.2,253.34,34.89,251.5,34.89,247.08ZM48,245.57v-1.28H46.09c-2.87,0-4.14.56-4.14,2.27,0,1.2.79,2,2.47,2C46.45,248.52,48,247.36,48,245.57Z" fill="#fff"/><path d="M63.78,242.26,57.28,232h8.21l3.23,5.5,3.14-5.5h7.33l-6.57,9.68,7.21,11.16h-8.2l-3.71-6.22-3.79,6.22H56.84Z" fill="#fff"/><path d="M89.07,232H96.2v3.11a7.37,7.37,0,0,1,6.5-3.67c4.86,0,8.8,3.67,8.8,10.8v.32c0,7.17-3.94,10.76-8.84,10.76a6.89,6.89,0,0,1-6.46-3.55v10H89.07Zm15.18,10.56v-.32c0-3.66-1.59-5.42-4.1-5.42S96,238.71,96,242.22v.32c0,3.55,1.56,5.34,4.15,5.34S104.25,246,104.25,242.58Z" fill="#fff"/><path d="M114.09,232h7.13v4.15a6.58,6.58,0,0,1,6.73-4.43v6.66c-4.34-.12-6.73,1.23-6.73,4.58v9.88h-7.13Z" fill="#fff"/><path d="M129.23,242.7v-.32c0-6.69,5-10.92,11.43-10.92S152,235.57,152,242.18v.32c0,6.77-5,10.84-11.4,10.84S129.23,249.43,129.23,242.7Zm15.53-.12v-.32c0-3.51-1.39-5.46-4.1-5.46s-4.14,1.88-4.14,5.38v.32c0,3.59,1.39,5.54,4.14,5.54S144.76,246.05,144.76,242.58Z" fill="#fff"/><path d="M160,232h7.45l3,12.47L174,232h5.74l3.11,12.47L186.24,232H193l-6.61,20.84h-6.82l-3.11-11.63-3.22,11.63h-6.93Z" fill="#fff"/><path d="M194.68,226.36a3.72,3.72,0,0,1,3.9-3.7,3.69,3.69,0,1,1,0,7.37A3.69,3.69,0,0,1,194.68,226.36ZM195,232h7.13v20.84H195Z" fill="#fff"/><path d="M207,246.17v-9.29h-2.51V232H207v-4.34h7.13V232h4.1v4.86h-4.1v8.61a1.9,1.9,0,0,0,2.11,2.19,5.4,5.4,0,0,0,2-.36v5.42a14.85,14.85,0,0,1-3.94.6C209.58,253.34,207,251.07,207,246.17Z" fill="#fff"/><path d="M220.89,222.86H228v12.51a7.37,7.37,0,0,1,6.85-3.91c4,0,6.82,2.51,6.82,7.85v13.55h-7.13V240.75c0-2.35-.92-3.51-3-3.51s-3.55,1.28-3.55,3.95v11.67h-7.13Z" fill="#fff"/><path d="M21.75,269.13H30V280h9.36V269.13h8.17v28.48H39.32V286.38H30v11.23H21.75Z" fill="#fff"/><path d="M74.81,291.8l4.74,5.81H70.27l-1.67-2.07a11.32,11.32,0,0,1-7.69,2.55c-6.06,0-10-3.18-10-8.6,0-3.67,2.23-6.38,6.25-8.29a9.12,9.12,0,0,1-1.75-5c0-4.86,4.14-7.45,9.16-7.45,4.55,0,8.65,2.27,8.65,6.65,0,3.11-1.83,5.38-5.7,7.06l3.59,4.38,2.07-4.07H79.4ZM64.93,291l-4.5-5.42a3.39,3.39,0,0,0-1.91,3.07,3.31,3.31,0,0,0,3.62,3.55A3.72,3.72,0,0,0,64.93,291Zm-.87-11.47c1.91-.92,2.83-2,2.83-3.47a2.06,2.06,0,0,0-2.12-2.19,2.27,2.27,0,0,0-2.35,2.47A5.23,5.23,0,0,0,64.06,279.49Z" fill="#fff"/><path d="M82.14,269.13H93.3c7.45,0,11.59,3,11.59,9v.16a7.43,7.43,0,0,1-5.14,7.49l6.81,11.79H98l-5.78-10.19H90.27v10.19H82.14Zm10.76,13c2.75,0,4.1-1.16,4.1-3.47v-.16c0-2.31-1.43-3.23-4.06-3.23H90.27v6.86Z" fill="#fff"/><path d="M116.56,269.13h12.71c6.73,0,9.6,3,9.6,7.45v.16a5.85,5.85,0,0,1-4.82,6.13c3.51.6,5.7,2.71,5.7,6.66v.16c0,5.1-3.31,7.92-10.36,7.92H116.56Zm11.08,11.31c2.55,0,3.5-.87,3.5-2.9v-.16c0-2-1-2.83-3.5-2.83h-3.11v5.89Zm.27,11.72c2.59,0,3.79-1.2,3.79-3.31v-.16c0-2.15-1.16-3.27-4-3.27h-3.15v6.74Z" fill="#fff"/><path d="M142.57,267.61h7.09v30h-7.09Z" fill="#fff"/><path d="M152.37,287.46v-.32c0-6.7,5-10.92,11.44-10.92s11.35,4.1,11.35,10.72v.32c0,6.77-5,10.83-11.39,10.83S152.37,294.19,152.37,287.46Zm15.54-.12V287c0-3.51-1.39-5.46-4.1-5.46s-4.15,1.87-4.15,5.38v.32c0,3.58,1.4,5.53,4.15,5.53S167.91,290.8,167.91,287.34Z" fill="#fff"/><path d="M176.55,287.46v-.32c0-6.94,5-10.92,11.12-10.92,5.1,0,9.8,2.23,10.2,8.57h-6.7c-.31-2-1.27-3-3.34-3-2.51,0-4,1.79-4,5.3v.32c0,3.62,1.4,5.49,4.11,5.49a3.46,3.46,0,0,0,3.62-3.46H198c-.2,5.26-3.75,8.68-10.48,8.68C181.29,298.09,176.55,294.47,176.55,287.46Z" fill="#fff"/><path d="M200.3,267.61h7.13V285l5.61-8.24h7.42l-6.82,9.36L221,297.61h-8l-5.61-9.12v9.12H200.3Z" fill="#fff"/><path d="M20.23,328.31V328c0-8.69,6.54-14.5,15.06-14.5,8.69,0,15.1,5.45,15.1,14.3v.32c0,8.76-6,14.74-15.21,14.74S20.23,336.87,20.23,328.31Zm21.64-.08v-.32c0-5.06-2.55-8.05-6.58-8.05s-6.53,2.91-6.53,8.09v.32c0,5.18,2.63,8.16,6.57,8.16S41.87,333.33,41.87,328.23Z" fill="#fff"/><path d="M53.14,321.53h7.13v3.35a7.36,7.36,0,0,1,6.85-3.9c4,0,6.82,2.51,6.82,7.85v13.54H66.81V330.26c0-2.35-.92-3.51-3-3.51s-3.55,1.28-3.55,3.95v11.67H53.14Z" fill="#fff"/><path d="M77.6,312.37h7.09v30H77.6Z" fill="#fff"/><path d="M88.35,315.88a3.93,3.93,0,1,1,3.91,3.66A3.69,3.69,0,0,1,88.35,315.88Zm.36,5.65h7.14v20.84H88.71Z" fill="#fff"/><path d="M99.67,321.53h7.13v3.35a7.36,7.36,0,0,1,6.85-3.9c4,0,6.82,2.51,6.82,7.85v13.54h-7.14V330.26c0-2.35-.91-3.51-3-3.51s-3.55,1.28-3.55,3.95v11.67H99.67Z" fill="#fff"/><path d="M122.81,332.21v-.32c0-6.69,5-10.91,11.28-10.91,5.7,0,10.6,3.26,10.6,10.75v1.88H130c.2,2.75,1.8,4.34,4.35,4.34,2.35,0,3.34-1.08,3.62-2.47h6.7c-.64,4.7-4.27,7.37-10.56,7.37C127.59,342.85,122.81,339,122.81,332.21Zm14.94-2.63c-.12-2.51-1.35-3.9-3.66-3.9-2.15,0-3.63,1.39-4,3.9Z" fill="#fff"/><path d="M146.68,338.79a4,4,0,0,1,4.06-4,4,4,0,1,1,0,8.05A4,4,0,0,1,146.68,338.79Z" fill="#fff"/></g><g id="rect"><rect width="300" height="600" fill="none"/></g></g></g></g></svg>