<svg xmlns="http://www.w3.org/2000/svg" viewBox="0 0 300 250"><title>H124</title><g id="Layer_2" data-name="Layer 2"><g id="Rect"><rect width="300" height="250" fill="none"/></g><g id="H124"><g id="Profesionales_de_taxes_bilingües._Tenemos_buen_domino_del_espa" data-name="Profesionales de taxes bilingües. Tenemos buen domino del  espa"><path d="M20.6,37.36h6.33c4.56,0,6.67,2,6.67,5.52V43c0,3.46-2.35,5.33-6.46,5.33H25.35v5.56H20.6Zm6.12,7.71c1.54,0,2.35-.72,2.35-2.08V42.9c0-1.41-.84-2-2.33-2H25.35v4.15Z" fill="#fff"/><path d="M35.05,41.79h4.16v2.4a3.84,3.84,0,0,1,3.93-2.56v3.85c-2.53-.06-3.93.72-3.93,2.66v5.72H35.05Z" fill="#fff"/><path d="M43.89,48v-.19c0-3.87,2.91-6.32,6.67-6.32s6.63,2.38,6.63,6.21v.18c0,3.92-2.91,6.28-6.65,6.28S43.89,51.88,43.89,48ZM53,47.91v-.19c0-2-.82-3.16-2.4-3.16s-2.42,1.09-2.42,3.12v.18c0,2.08.82,3.21,2.42,3.21S53,49.91,53,47.91Z" fill="#fff"/><path d="M59.29,44.61H57.75V41.79h1.54V40.73c0-3,1.88-4.43,4.76-4.43a7.41,7.41,0,0,1,1.91.26v3a3.9,3.9,0,0,0-1.14-.16,1.21,1.21,0,0,0-1.39,1.31v1.06h2.46v2.82H63.43v9.25H59.29Z" fill="#fff"/><path d="M66.22,48v-.19c0-3.87,2.9-6.32,6.58-6.32,3.32,0,6.18,1.89,6.18,6.23v1.08H70.43A2.41,2.41,0,0,0,73,51.3c1.37,0,2-.62,2.12-1.43H79c-.37,2.72-2.48,4.27-6.16,4.27S66.22,51.92,66.22,48Zm8.72-1.53c-.07-1.45-.79-2.26-2.14-2.26a2.31,2.31,0,0,0-2.33,2.26Z" fill="#fff"/><path d="M79.73,50h3.84c.14.88.53,1.36,1.72,1.36,1,0,1.49-.39,1.49-1s-.58-.86-2.26-1.09C81.27,48.9,79.9,48,79.9,45.44c0-2.68,2.39-4,5.2-4,3,0,5.1,1,5.38,3.9H86.71a1.36,1.36,0,0,0-1.56-1.2c-.91,0-1.37.39-1.37.95s.56.8,2,1c3.38.41,5,1.29,5,3.87,0,2.86-2.13,4.16-5.51,4.16S79.83,52.71,79.73,50Z" fill="#fff"/><path d="M92.08,38.52a2.3,2.3,0,1,1,2.28,2.12A2.17,2.17,0,0,1,92.08,38.52Zm.21,3.27h4.17V53.86H92.29Z" fill="#fff"/><path d="M98,48v-.19c0-3.87,2.9-6.32,6.67-6.32s6.63,2.38,6.63,6.21v.18c0,3.92-2.91,6.28-6.65,6.28S98,51.88,98,48Zm9.07-.07v-.19c0-2-.82-3.16-2.4-3.16s-2.42,1.09-2.42,3.12v.18c0,2.08.82,3.21,2.42,3.21S107.11,49.91,107.11,47.91Z" fill="#fff"/><path d="M112.81,41.79H117v1.94a4.31,4.31,0,0,1,4-2.26c2.35,0,4,1.45,4,4.55v7.84h-4.17v-7c0-1.37-.53-2-1.74-2S117,45.55,117,47.1v6.76h-4.16Z" fill="#fff"/><path d="M126.28,50.51c0-2.83,2.41-3.94,6.46-3.94h1.16v-.28c0-1.15-.28-1.91-1.6-1.91a1.49,1.49,0,0,0-1.65,1.43h-3.91c.19-2.91,2.49-4.34,5.81-4.34S138,42.83,138,46v7.82h-4V52.45a4,4,0,0,1-3.61,1.69C128.21,54.14,126.28,53.08,126.28,50.51Zm7.62-.87V48.9h-1.09c-1.67,0-2.42.32-2.42,1.31,0,.7.47,1.13,1.44,1.13C133,51.34,133.9,50.68,133.9,49.64Z" fill="#fff"/><path d="M140.18,36.49h4.14V53.86h-4.14Z" fill="#fff"/><path d="M145.91,48v-.19c0-3.87,2.9-6.32,6.58-6.32,3.32,0,6.18,1.89,6.18,6.23v1.08h-8.55a2.41,2.41,0,0,0,2.53,2.52c1.37,0,1.95-.62,2.12-1.43h3.9c-.37,2.72-2.48,4.27-6.16,4.27S145.91,51.92,145.91,48Zm8.72-1.53c-.07-1.45-.79-2.26-2.14-2.26a2.31,2.31,0,0,0-2.33,2.26Z" fill="#fff"/><path d="M159.42,50h3.84c.14.88.53,1.36,1.72,1.36,1,0,1.49-.39,1.49-1s-.59-.86-2.26-1.09c-3.25-.41-4.63-1.36-4.63-3.87,0-2.68,2.4-4,5.21-4,3,0,5.09,1,5.37,3.9H166.4a1.36,1.36,0,0,0-1.56-1.2c-.91,0-1.37.39-1.37.95s.56.8,2,1c3.37.41,5,1.29,5,3.87,0,2.86-2.14,4.16-5.51,4.16S159.51,52.71,159.42,50Z" fill="#fff"/><path d="M175.49,48v-.18c0-4.11,2.28-6.3,5.17-6.3a4,4,0,0,1,3.74,2v-7h4.16V53.86H184.4v-2a4.12,4.12,0,0,1-3.79,2.24C177.79,54.14,175.49,52.13,175.49,48Zm9-.07V47.7c0-2-.86-3.12-2.4-3.12s-2.39,1-2.39,3.14v.19c0,2,.9,3.07,2.34,3.07S184.52,49.94,184.52,47.88Z" fill="#fff"/><path d="M190,48v-.19c0-3.87,2.91-6.32,6.58-6.32,3.33,0,6.19,1.89,6.19,6.23v1.08h-8.56a2.42,2.42,0,0,0,2.54,2.52c1.37,0,1.95-.62,2.11-1.43h3.91c-.37,2.72-2.49,4.27-6.16,4.27S190,51.92,190,48Zm8.72-1.53c-.07-1.45-.79-2.26-2.14-2.26a2.31,2.31,0,0,0-2.32,2.26Z" fill="#fff"/><path d="M209,50V44.61h-1.46V41.79H209V39.28h4.17v2.51h2.39v2.82H213.2v5a1.1,1.1,0,0,0,1.23,1.27,3.23,3.23,0,0,0,1.19-.21v3.14a8.79,8.79,0,0,1-2.31.35C210.57,54.14,209,52.82,209,50Z" fill="#fff"/><path d="M216.52,50.51c0-2.83,2.42-3.94,6.47-3.94h1.16v-.28c0-1.15-.28-1.91-1.6-1.91a1.49,1.49,0,0,0-1.65,1.43H217c.18-2.91,2.49-4.34,5.81-4.34s5.49,1.36,5.49,4.57v7.82h-4V52.45a4,4,0,0,1-3.6,1.69C218.45,54.14,216.52,53.08,216.52,50.51Zm7.63-.87V48.9h-1.09c-1.68,0-2.42.32-2.42,1.31,0,.7.47,1.13,1.44,1.13C223.27,51.34,224.15,50.68,224.15,49.64Z" fill="#fff"/><path d="M233.39,47.72l-3.79-5.93h4.79L236.27,45l1.84-3.19h4.28l-3.84,5.61,4.21,6.46H238l-2.16-3.6-2.21,3.6h-4.26Z" fill="#fff"/><path d="M242.23,48v-.19c0-3.87,2.9-6.32,6.58-6.32,3.32,0,6.18,1.89,6.18,6.23v1.08h-8.56A2.42,2.42,0,0,0,249,51.3c1.37,0,1.95-.62,2.12-1.43H255c-.37,2.72-2.49,4.27-6.16,4.27S242.23,51.92,242.23,48ZM251,46.45c-.07-1.45-.79-2.26-2.14-2.26a2.31,2.31,0,0,0-2.33,2.26Z" fill="#fff"/><path d="M255.74,50h3.84c.14.88.53,1.36,1.72,1.36,1,0,1.49-.39,1.49-1s-.58-.86-2.26-1.09c-3.26-.41-4.63-1.36-4.63-3.87,0-2.68,2.4-4,5.21-4,3,0,5.09,1,5.37,3.9h-3.76a1.36,1.36,0,0,0-1.56-1.2c-.91,0-1.37.39-1.37.95s.55.8,2,1c3.37.41,5,1.29,5,3.87,0,2.86-2.14,4.16-5.51,4.16S255.83,52.71,255.74,50Z" fill="#fff"/><path d="M24.4,77.55v1.87H20.23V62.05H24.4v7.1A4.29,4.29,0,0,1,28.19,67c2.83,0,5.13,2.12,5.13,6.25v.19c0,4.15-2.3,6.22-5.16,6.22A3.93,3.93,0,0,1,24.4,77.55Zm4.69-4.08v-.19c0-2.12-.93-3.14-2.39-3.14s-2.42,1.09-2.42,3.12v.18c0,2.06.91,3.09,2.42,3.09S29.09,75.45,29.09,73.47Z" fill="#fff"/><path d="M34.75,64.08A2.16,2.16,0,0,1,37,61.93a2.14,2.14,0,1,1,0,4.27A2.14,2.14,0,0,1,34.75,64.08ZM35,67.35h4.16V79.42H35Z" fill="#fff"/><path d="M41.47,62.05h4.14V79.42H41.47Z" fill="#fff"/><path d="M47.75,64.08A2.3,2.3,0,1,1,50,66.2,2.17,2.17,0,0,1,47.75,64.08ZM48,67.35h4.16V79.42H48Z" fill="#fff"/><path d="M54.35,67.35h4.17v1.94a4.28,4.28,0,0,1,4-2.26c2.35,0,4,1.45,4,4.54v7.85H62.33v-7c0-1.36-.53-2-1.74-2s-2.07.74-2.07,2.29v6.76H54.35Z" fill="#fff"/><path d="M67.85,79.42H72c.19.87.73,1.57,2.24,1.57a2.3,2.3,0,0,0,2.58-2.54V76.6A4.26,4.26,0,0,1,73,78.82c-2.84,0-5.16-2.08-5.16-5.79v-.19c0-3.55,2.3-5.81,5.16-5.81a4,4,0,0,1,3.77,2V67.35H81V78.4c0,3.6-2.39,5.49-6.74,5.49C70.08,83.89,68.17,82.16,67.85,79.42ZM76.92,73v-.16c0-1.66-.87-2.72-2.4-2.72s-2.4,1.08-2.4,2.75v.18c0,1.66.89,2.72,2.38,2.72S76.92,74.71,76.92,73Z" fill="#fff"/><path d="M83,75.22V67.35h4.16v7.2c0,1.36.54,2,1.72,2s2.07-.74,2.07-2.28v-7H95.1V79.42H90.94V77.55a4,4,0,0,1-3.86,2.14C84.73,79.69,83,78.26,83,75.22Zm1.6-11.1a2,2,0,1,1,2,1.92A2,2,0,0,1,84.59,64.12Zm5,0a2,2,0,0,1,2-1.94,1.93,1.93,0,1,1,0,3.86A1.93,1.93,0,0,1,89.55,64.12Z" fill="#fff"/><path d="M96.57,73.53v-.18c0-3.88,2.91-6.32,6.58-6.32,3.33,0,6.19,1.89,6.19,6.23v1.08h-8.56a2.43,2.43,0,0,0,2.54,2.52c1.37,0,2-.63,2.11-1.43h3.91c-.37,2.72-2.49,4.26-6.16,4.26C99.36,79.69,96.57,77.48,96.57,73.53ZM105.29,72c-.07-1.45-.79-2.26-2.14-2.26A2.31,2.31,0,0,0,100.83,72Z" fill="#fff"/><path d="M110.09,75.59h3.83c.14.87.54,1.36,1.72,1.36,1,0,1.49-.39,1.49-1s-.58-.86-2.25-1.09c-3.26-.41-4.63-1.36-4.63-3.87,0-2.68,2.39-4,5.21-4,3,0,5.09,1,5.37,3.9h-3.77a1.35,1.35,0,0,0-1.56-1.2c-.9,0-1.37.39-1.37.94s.56.81,2.05,1c3.37.41,5,1.29,5,3.87,0,2.86-2.14,4.15-5.51,4.15S110.18,78.26,110.09,75.59Z" fill="#fff"/><path d="M122.37,77.34A2.31,2.31,0,0,1,124.74,75a2.33,2.33,0,1,1,0,4.66A2.31,2.31,0,0,1,122.37,77.34Z" fill="#fff"/><path d="M136.93,66.57h-4.31V62.92H146v3.65h-4.3V79.42h-4.79Z" fill="#fff"/><path d="M145,73.53v-.18c0-3.88,2.91-6.32,6.58-6.32,3.32,0,6.18,1.89,6.18,6.23v1.08h-8.55a2.42,2.42,0,0,0,2.53,2.52c1.37,0,2-.63,2.12-1.43h3.9c-.37,2.72-2.48,4.26-6.16,4.26S145,77.48,145,73.53ZM153.72,72c-.07-1.45-.79-2.26-2.14-2.26A2.31,2.31,0,0,0,149.25,72Z" fill="#fff"/><path d="M159.21,67.35h4.16v1.94a4.29,4.29,0,0,1,4-2.26c2.35,0,4,1.45,4,4.54v7.85h-4.16v-7c0-1.36-.54-2-1.75-2s-2.07.74-2.07,2.29v6.76h-4.16Z" fill="#fff"/><path d="M172.72,73.53v-.18c0-3.88,2.91-6.32,6.59-6.32,3.32,0,6.18,1.89,6.18,6.23v1.08h-8.56a2.43,2.43,0,0,0,2.54,2.52c1.37,0,1.95-.63,2.11-1.43h3.91c-.37,2.72-2.49,4.26-6.16,4.26S172.72,77.48,172.72,73.53ZM181.45,72c-.07-1.45-.8-2.26-2.14-2.26A2.31,2.31,0,0,0,177,72Z" fill="#fff"/><path d="M186.94,67.35h4.16V69.2A4.24,4.24,0,0,1,194.91,67a3.3,3.3,0,0,1,3.3,2,4.84,4.84,0,0,1,4-2c2.3,0,4,1.48,4,4.5v7.89h-4.16v-7.2c0-1.22-.6-1.82-1.56-1.82a1.79,1.79,0,0,0-1.86,2v7h-4.11v-7.2c0-1.22-.61-1.82-1.56-1.82a1.79,1.79,0,0,0-1.86,2v7h-4.16Z" fill="#fff"/><path d="M207.59,73.53v-.18c0-3.88,2.91-6.32,6.68-6.32s6.62,2.38,6.62,6.2v.19c0,3.92-2.9,6.27-6.65,6.27S207.59,77.43,207.59,73.53Zm9.07-.06v-.19c0-2-.81-3.16-2.39-3.16s-2.42,1.08-2.42,3.11v.19c0,2.08.81,3.21,2.42,3.21S216.66,75.47,216.66,73.47Z" fill="#fff"/><path d="M221.62,75.59h3.83c.14.87.54,1.36,1.72,1.36s1.49-.39,1.49-1-.58-.86-2.25-1.09c-3.26-.41-4.63-1.36-4.63-3.87,0-2.68,2.39-4,5.21-4,3,0,5.09,1,5.37,3.9h-3.77a1.35,1.35,0,0,0-1.55-1.2c-.91,0-1.38.39-1.38.94s.56.81,2.05,1c3.37.41,5,1.29,5,3.87,0,2.86-2.14,4.15-5.51,4.15S221.71,78.26,221.62,75.59Z" fill="#fff"/><path d="M24.4,103.11V105H20.23V87.6H24.4v7.11a4.29,4.29,0,0,1,3.79-2.12c2.83,0,5.13,2.12,5.13,6.25V99c0,4.16-2.3,6.23-5.16,6.23A3.93,3.93,0,0,1,24.4,103.11ZM29.09,99v-.18c0-2.12-.93-3.14-2.39-3.14s-2.42,1.09-2.42,3.12V99c0,2,.91,3.09,2.42,3.09S29.09,101,29.09,99Z" fill="#fff"/><path d="M34.75,100.78V92.91h4.16v7.2c0,1.36.53,2,1.72,2s2.07-.74,2.07-2.29V92.91h4.16V105H42.7v-1.87a4,4,0,0,1-3.86,2.14C36.49,105.25,34.75,103.82,34.75,100.78Z" fill="#fff"/><path d="M48.33,99.09v-.18c0-3.88,2.91-6.32,6.58-6.32,3.33,0,6.19,1.89,6.19,6.23V99.9H52.54a2.43,2.43,0,0,0,2.53,2.52c1.38,0,2-.63,2.12-1.43H61.1c-.37,2.72-2.49,4.26-6.17,4.26S48.33,103,48.33,99.09Zm8.72-1.52c-.07-1.45-.79-2.26-2.14-2.26a2.31,2.31,0,0,0-2.32,2.26Z" fill="#fff"/><path d="M62.54,92.91H66.7v1.94a4.3,4.3,0,0,1,4-2.26c2.35,0,4,1.45,4,4.54V105H70.52V98c0-1.36-.54-2-1.75-2s-2.07.74-2.07,2.29V105H62.54Z" fill="#fff"/><path d="M80.34,99.07v-.18c0-4.11,2.27-6.3,5.16-6.3a3.93,3.93,0,0,1,3.74,2v-7H93.4V105H89.24v-2a4.1,4.1,0,0,1-3.79,2.23C82.64,105.25,80.34,103.25,80.34,99.07Zm9-.07v-.18c0-2-.86-3.12-2.4-3.12s-2.39,1-2.39,3.14V99c0,2,.91,3.07,2.35,3.07S89.36,101.05,89.36,99Z" fill="#fff"/><path d="M94.87,99.09v-.18c0-3.88,2.91-6.32,6.68-6.32s6.63,2.37,6.63,6.2V99c0,3.92-2.91,6.27-6.66,6.27S94.87,103,94.87,99.09Zm9.07-.07v-.18c0-2-.81-3.16-2.39-3.16s-2.42,1.08-2.42,3.11V99c0,2.07.81,3.21,2.42,3.21S103.94,101,103.94,99Z" fill="#fff"/><path d="M109.64,92.91h4.17v1.85a4.24,4.24,0,0,1,3.81-2.17,3.32,3.32,0,0,1,3.3,2,4.85,4.85,0,0,1,4-2c2.31,0,4,1.47,4,4.5V105h-4.16v-7.2c0-1.22-.61-1.82-1.56-1.82a1.79,1.79,0,0,0-1.86,2v7h-4.12v-7.2c0-1.22-.6-1.82-1.55-1.82a1.79,1.79,0,0,0-1.86,2v7h-4.17Z" fill="#fff"/><path d="M130.86,89.63a2.16,2.16,0,0,1,2.28-2.14,2.14,2.14,0,1,1,0,4.27A2.14,2.14,0,0,1,130.86,89.63Zm.21,3.28h4.16V105h-4.16Z" fill="#fff"/><path d="M137.46,92.91h4.17v1.94a4.28,4.28,0,0,1,4-2.26c2.35,0,4,1.45,4,4.54V105h-4.16V98c0-1.36-.54-2-1.74-2s-2.07.74-2.07,2.29V105h-4.17Z" fill="#fff"/><path d="M151,99.09v-.18c0-3.88,2.9-6.32,6.67-6.32s6.63,2.37,6.63,6.2V99c0,3.92-2.91,6.27-6.65,6.27S151,103,151,99.09Zm9.07-.07v-.18c0-2-.82-3.16-2.4-3.16s-2.42,1.08-2.42,3.11V99c0,2.07.82,3.21,2.42,3.21S160.05,101,160.05,99Z" fill="#fff"/><path d="M169.38,99.07v-.18c0-4.11,2.28-6.3,5.16-6.3a3.93,3.93,0,0,1,3.74,2v-7h4.17V105h-4.17v-2a4.1,4.1,0,0,1-3.79,2.23C171.68,105.25,169.38,103.25,169.38,99.07Zm9-.07v-.18c0-2-.86-3.12-2.4-3.12s-2.39,1-2.39,3.14V99c0,2,.91,3.07,2.35,3.07S178.4,101.05,178.4,99Z" fill="#fff"/><path d="M183.91,99.09v-.18c0-3.88,2.91-6.32,6.58-6.32,3.33,0,6.19,1.89,6.19,6.23V99.9h-8.56a2.43,2.43,0,0,0,2.54,2.52c1.37,0,2-.63,2.11-1.43h3.91c-.37,2.72-2.49,4.26-6.16,4.26C186.7,105.25,183.91,103,183.91,99.09Zm8.72-1.52c-.07-1.45-.79-2.26-2.14-2.26a2.31,2.31,0,0,0-2.32,2.26Z" fill="#fff"/><path d="M198.24,87.6h4.14V105h-4.14Z" fill="#fff"/><path d="M19.58,124.65v-.18c0-3.88,2.91-6.32,6.58-6.32,3.33,0,6.19,1.89,6.19,6.23v1.08H23.79A2.42,2.42,0,0,0,26.33,128c1.37,0,2-.62,2.11-1.43h3.91c-.37,2.73-2.49,4.27-6.16,4.27C22.37,130.81,19.58,128.6,19.58,124.65Zm8.72-1.52c-.07-1.45-.79-2.26-2.14-2.26a2.31,2.31,0,0,0-2.32,2.26Z" fill="#fff"/><path d="M33.1,126.71h3.83c.14.87.54,1.36,1.72,1.36s1.49-.4,1.49-1-.58-.85-2.25-1.08c-3.26-.41-4.63-1.36-4.63-3.88,0-2.67,2.39-4,5.21-4,3,0,5.09,1,5.37,3.89H40.07a1.35,1.35,0,0,0-1.56-1.19c-.9,0-1.37.39-1.37.94s.56.81,2,1c3.37.42,5,1.3,5,3.88,0,2.86-2.14,4.15-5.51,4.15S33.19,129.38,33.1,126.71Z" fill="#fff"/><path d="M45.54,118.47H49.7v1.8a4.29,4.29,0,0,1,3.79-2.12c2.84,0,5.14,2.12,5.14,6.25v.18c0,4.16-2.3,6.23-5.16,6.23a4,4,0,0,1-3.77-2.05v5.81H45.54Zm8.86,6.11v-.18c0-2.12-.93-3.14-2.4-3.14s-2.41,1.08-2.41,3.12v.18c0,2,.9,3.09,2.41,3.09S54.4,126.57,54.4,124.58Z" fill="#fff"/><path d="M59.45,127.19c0-2.84,2.42-4,6.46-4h1.17V123c0-1.16-.28-1.92-1.61-1.92a1.49,1.49,0,0,0-1.65,1.43H59.91c.19-2.9,2.49-4.33,5.82-4.33s5.49,1.36,5.49,4.56v7.83h-4v-1.41a4,4,0,0,1-3.61,1.68C61.38,130.81,59.45,129.75,59.45,127.19Zm7.63-.88v-.73H66c-1.67,0-2.42.32-2.42,1.31,0,.69.47,1.13,1.45,1.13C66.19,128,67.08,127.35,67.08,126.31Z" fill="#fff"/><path d="M73.24,118.47H77.4v1.94a4.3,4.3,0,0,1,4-2.26c2.35,0,4,1.45,4,4.54v7.85H81.22v-7c0-1.36-.54-2-1.75-2s-2.07.74-2.07,2.29v6.76H73.24Zm4.82-2.24a.78.78,0,0,0-.73.74H75.08c.16-2.42,1.23-3.6,2.67-3.6,1.26,0,2,.78,2.77.78.42,0,.65-.3.75-.73h2.25c-.19,2.4-1.35,3.57-2.74,3.57S78.78,116.23,78.06,116.23Z" fill="#fff"/><path d="M86.76,124.65v-.18c0-3.88,2.9-6.32,6.67-6.32s6.63,2.37,6.63,6.2v.19c0,3.92-2.91,6.27-6.65,6.27S86.76,128.55,86.76,124.65Zm9.07-.07v-.18c0-2-.82-3.16-2.4-3.16S91,122.32,91,124.35v.19c0,2.07.82,3.2,2.42,3.2S95.83,126.59,95.83,124.58Z" fill="#fff"/><path d="M101.64,113.16h4.14v17.38h-4.14Z" fill="#fff"/><path d="M116.06,129.31l-4.86-10.84h4.51l2.52,6.44,2.32-6.44h4L118,134.57h-4Z" fill="#fff"/><path d="M129.23,124.63v-.19c0-4.1,2.28-6.29,5.16-6.29a3.92,3.92,0,0,1,3.74,2v-7h4.17v17.38h-4.17v-2a4.09,4.09,0,0,1-3.79,2.24C131.53,130.81,129.23,128.8,129.23,124.63Zm9-.07v-.18c0-2-.86-3.12-2.39-3.12s-2.4,1-2.4,3.14v.18c0,2,.91,3.07,2.35,3.07S138.25,126.61,138.25,124.56Z" fill="#fff"/><path d="M143.77,124.65v-.18c0-3.88,2.9-6.32,6.58-6.32,3.32,0,6.18,1.89,6.18,6.23v1.08H148a2.41,2.41,0,0,0,2.53,2.51c1.37,0,2-.62,2.12-1.43h3.9c-.37,2.73-2.49,4.27-6.16,4.27S143.77,128.6,143.77,124.65Zm8.72-1.52c-.07-1.45-.79-2.26-2.14-2.26a2.31,2.31,0,0,0-2.33,2.26Z" fill="#fff"/><path d="M162.33,113.16h4.14v17.38h-4.14Z" fill="#fff"/><path d="M168.05,124.65v-.18c0-3.88,2.91-6.32,6.67-6.32s6.63,2.37,6.63,6.2v.19c0,3.92-2.91,6.27-6.65,6.27S168.05,128.55,168.05,124.65Zm9.07-.07v-.18c0-2-.82-3.16-2.4-3.16s-2.42,1.08-2.42,3.11v.19c0,2.07.82,3.2,2.42,3.2S177.12,126.59,177.12,124.58Z" fill="#fff"/><path d="M182.08,126.71h3.83c.14.87.54,1.36,1.72,1.36,1,0,1.49-.4,1.49-1s-.58-.85-2.25-1.08c-3.26-.41-4.63-1.36-4.63-3.88,0-2.67,2.39-4,5.21-4,3,0,5.09,1,5.37,3.89h-3.77a1.35,1.35,0,0,0-1.56-1.19c-.9,0-1.37.39-1.37.94s.56.81,2,1c3.37.42,5,1.3,5,3.88,0,2.86-2.14,4.15-5.51,4.15S182.17,129.38,182.08,126.71Z" fill="#fff"/><path d="M199.31,126.66v-5.38h-1.47v-2.81h1.47V116h4.16v2.52h2.4v2.81h-2.4v5a1.11,1.11,0,0,0,1.24,1.27,3.14,3.14,0,0,0,1.18-.21v3.14a9.13,9.13,0,0,1-2.3.34C200.84,130.81,199.31,129.5,199.31,126.66Z" fill="#fff"/><path d="M206.8,127.19c0-2.84,2.42-4,6.47-4h1.16V123c0-1.16-.28-1.92-1.61-1.92a1.49,1.49,0,0,0-1.65,1.43h-3.9c.18-2.9,2.48-4.33,5.81-4.33s5.49,1.36,5.49,4.56v7.83h-4v-1.41a4,4,0,0,1-3.6,1.68C208.73,130.81,206.8,129.75,206.8,127.19Zm7.63-.88v-.73h-1.1c-1.67,0-2.41.32-2.41,1.31,0,.69.46,1.13,1.44,1.13C213.54,128,214.43,127.35,214.43,126.31Z" fill="#fff"/><path d="M223.66,124.4l-3.79-5.93h4.79l1.89,3.18,1.83-3.18h4.28l-3.83,5.61,4.21,6.46h-4.8l-2.16-3.6-2.21,3.6h-4.25Z" fill="#fff"/><path d="M232.5,124.65v-.18c0-3.88,2.91-6.32,6.58-6.32,3.33,0,6.19,1.89,6.19,6.23v1.08h-8.56a2.42,2.42,0,0,0,2.54,2.51c1.37,0,1.95-.62,2.11-1.43h3.91c-.37,2.73-2.49,4.27-6.16,4.27C235.29,130.81,232.5,128.6,232.5,124.65Zm8.72-1.52c-.07-1.45-.79-2.26-2.14-2.26a2.31,2.31,0,0,0-2.32,2.26Z" fill="#fff"/><path d="M246,126.71h3.83c.14.87.54,1.36,1.72,1.36,1,0,1.49-.4,1.49-1s-.58-.85-2.25-1.08c-3.26-.41-4.63-1.36-4.63-3.88,0-2.67,2.39-4,5.21-4,3,0,5.09,1,5.37,3.89H253a1.35,1.35,0,0,0-1.56-1.19c-.9,0-1.37.39-1.37.94s.56.81,2.05,1c3.37.42,5,1.3,5,3.88,0,2.86-2.14,4.15-5.51,4.15S246.11,129.38,246,126.71Z" fill="#fff"/><path d="M258.3,128.46a2.31,2.31,0,0,1,2.37-2.33,2.33,2.33,0,1,1,0,4.66A2.31,2.31,0,0,1,258.3,128.46Z" fill="#fff"/></g></g></g></svg>