<svg xmlns="http://www.w3.org/2000/svg" viewBox="0 0 300 250"><title>H126</title><g id="Layer_2" data-name="Layer 2"><g id="Rect"><rect width="300" height="250" fill="none"/></g><g id="H126"><g id="Hora_intensa_de_trabajo._Preparación_de_taxes_en_una_hora." data-name="Hora intensa de trabajo. Preparación de taxes en una hora."><path d="M20.59,47h4.75v6.25h5.42V47h4.72V63.39H30.76V56.94H25.34v6.45H20.59Z" fill="#fff"/><path d="M37.15,57.55v-.18c0-3.84,2.88-6.27,6.61-6.27s6.57,2.36,6.57,6.16v.18c0,3.89-2.88,6.22-6.59,6.22S37.15,61.42,37.15,57.55Zm9-.06V57.3c0-2-.81-3.13-2.38-3.13s-2.39,1.07-2.39,3.09v.18c0,2.06.8,3.18,2.39,3.18S46.14,59.48,46.14,57.49Z" fill="#fff"/><path d="M51.79,51.42h4.12V53.8a3.81,3.81,0,0,1,3.9-2.54v3.82c-2.51-.06-3.9.71-3.9,2.63v5.68H51.79Z" fill="#fff"/><path d="M60.34,60.07c0-2.81,2.4-3.91,6.41-3.91H67.9v-.28c0-1.14-.27-1.89-1.59-1.89a1.47,1.47,0,0,0-1.63,1.41H60.8c.19-2.88,2.47-4.3,5.77-4.3S72,52.45,72,55.63v7.76H68V62a4,4,0,0,1-3.58,1.67C62.25,63.66,60.34,62.61,60.34,60.07Zm7.56-.87v-.73H66.82c-1.66,0-2.4.32-2.4,1.3,0,.69.46,1.12,1.43,1.12C67,60.89,67.9,60.23,67.9,59.2Z" fill="#fff"/><path d="M78.12,48.18a2.28,2.28,0,1,1,2.26,2.1A2.15,2.15,0,0,1,78.12,48.18Zm.21,3.24h4.12v12H78.33Z" fill="#fff"/><path d="M84.67,51.42h4.12v1.93a4.27,4.27,0,0,1,4-2.25c2.33,0,3.94,1.44,3.94,4.51v7.78H92.57v-7c0-1.35-.53-2-1.73-2s-2,.73-2,2.27v6.7H84.67Z" fill="#fff"/><path d="M99.26,59.54V54.21H97.81V51.42h1.45V48.93h4.13v2.49h2.37v2.79h-2.37v4.95a1.09,1.09,0,0,0,1.22,1.25,3.36,3.36,0,0,0,1.18-.2v3.11a8.68,8.68,0,0,1-2.29.34C100.78,63.66,99.26,62.36,99.26,59.54Z" fill="#fff"/><path d="M106.69,57.55v-.18c0-3.84,2.88-6.27,6.52-6.27,3.3,0,6.13,1.88,6.13,6.18v1.07h-8.48a2.4,2.4,0,0,0,2.51,2.5c1.36,0,1.94-.62,2.1-1.42h3.87c-.37,2.7-2.46,4.23-6.11,4.23S106.69,61.47,106.69,57.55ZM115.33,56c-.07-1.44-.78-2.24-2.12-2.24A2.29,2.29,0,0,0,110.9,56Z" fill="#fff"/><path d="M120.77,51.42h4.13v1.93a4.27,4.27,0,0,1,4-2.25c2.32,0,3.94,1.44,3.94,4.51v7.78h-4.13v-7c0-1.35-.53-2-1.73-2s-2,.73-2,2.27v6.7h-4.13Z" fill="#fff"/><path d="M134,59.59h3.8c.14.87.53,1.35,1.71,1.35,1,0,1.47-.39,1.47-1s-.57-.85-2.23-1.08c-3.23-.41-4.59-1.35-4.59-3.84,0-2.66,2.37-3.94,5.16-3.94,3,0,5,1,5.33,3.87h-3.73a1.35,1.35,0,0,0-1.55-1.19c-.9,0-1.36.39-1.36.94s.55.8,2,1c3.34.41,5,1.28,5,3.84,0,2.84-2.13,4.12-5.47,4.12S134.1,62.24,134,59.59Z" fill="#fff"/><path d="M145.65,60.07c0-2.81,2.4-3.91,6.41-3.91h1.15v-.28c0-1.14-.27-1.89-1.59-1.89A1.47,1.47,0,0,0,150,55.4h-3.88c.19-2.88,2.47-4.3,5.77-4.3s5.44,1.35,5.44,4.53v7.76h-4V62a4,4,0,0,1-3.58,1.67C147.57,63.66,145.65,62.61,145.65,60.07Zm7.56-.87v-.73h-1.08c-1.66,0-2.4.32-2.4,1.3,0,.69.46,1.12,1.43,1.12C152.34,60.89,153.21,60.23,153.21,59.2Z" fill="#fff"/><path d="M162.92,57.53v-.18c0-4.07,2.26-6.25,5.12-6.25a3.9,3.9,0,0,1,3.71,2v-7h4.13V63.39h-4.13v-2A4.05,4.05,0,0,1,168,63.66C165.2,63.66,162.92,61.67,162.92,57.53Zm9-.07v-.18c0-2-.86-3.09-2.38-3.09s-2.37,1-2.37,3.11v.19c0,2,.9,3,2.33,3S171.87,59.5,171.87,57.46Z" fill="#fff"/><path d="M177.33,57.55v-.18c0-3.84,2.88-6.27,6.53-6.27,3.29,0,6.13,1.88,6.13,6.18v1.07h-8.48a2.4,2.4,0,0,0,2.51,2.5c1.36,0,1.94-.62,2.1-1.42H190c-.37,2.7-2.47,4.23-6.11,4.23S177.33,61.47,177.33,57.55ZM186,56c-.07-1.44-.79-2.24-2.12-2.24A2.29,2.29,0,0,0,181.55,56Z" fill="#fff"/><path d="M196.17,59.54V54.21h-1.45V51.42h1.45V48.93h4.13v2.49h2.37v2.79H200.3v4.95a1.09,1.09,0,0,0,1.22,1.25,3.26,3.26,0,0,0,1.17-.2v3.11a8.59,8.59,0,0,1-2.28.34C197.69,63.66,196.17,62.36,196.17,59.54Z" fill="#fff"/><path d="M204.24,51.42h4.13V53.8a3.8,3.8,0,0,1,3.89-2.54v3.82c-2.51-.06-3.89.71-3.89,2.63v5.68h-4.13Z" fill="#fff"/><path d="M212.79,60.07c0-2.81,2.4-3.91,6.41-3.91h1.16v-.28c0-1.14-.28-1.89-1.6-1.89a1.47,1.47,0,0,0-1.63,1.41h-3.88c.19-2.88,2.47-4.3,5.77-4.3s5.44,1.35,5.44,4.53v7.76h-4V62a4,4,0,0,1-3.58,1.67C214.71,63.66,212.79,62.61,212.79,60.07Zm7.57-.87v-.73h-1.09c-1.66,0-2.4.32-2.4,1.3,0,.69.46,1.12,1.43,1.12C219.48,60.89,220.36,60.23,220.36,59.2Z" fill="#fff"/><path d="M230.59,61.53v1.86h-4.12V46.16h4.12v7.05a4.27,4.27,0,0,1,3.76-2.11c2.81,0,5.1,2.11,5.1,6.2v.19c0,4.11-2.29,6.17-5.12,6.17A3.92,3.92,0,0,1,230.59,61.53Zm4.66-4V57.3c0-2.1-.92-3.11-2.37-3.11s-2.4,1.08-2.4,3.09v.18c0,2,.9,3.07,2.4,3.07S235.25,59.45,235.25,57.49Z" fill="#fff"/><path d="M240.25,60.07c0-2.81,2.4-3.91,6.41-3.91h1.16v-.28c0-1.14-.28-1.89-1.59-1.89a1.48,1.48,0,0,0-1.64,1.41h-3.88c.19-2.88,2.47-4.3,5.77-4.3s5.44,1.35,5.44,4.53v7.76h-4V62a4,4,0,0,1-3.58,1.67C242.17,63.66,240.25,62.61,240.25,60.07Zm7.57-.87v-.73h-1.09c-1.66,0-2.4.32-2.4,1.3,0,.69.47,1.12,1.43,1.12C246.94,60.89,247.82,60.23,247.82,59.2Z" fill="#fff"/><path d="M252.57,64.62c1-.07,1.47-.48,1.47-1.42V51.42h4.11V63.3c0,2.58-1.23,4.3-5.58,4.3Zm1.26-16.44a2.28,2.28,0,1,1,2.26,2.1A2.15,2.15,0,0,1,253.83,48.18Z" fill="#fff"/><path d="M259.74,57.55v-.18c0-3.84,2.88-6.27,6.61-6.27s6.58,2.36,6.58,6.16v.18c0,3.89-2.89,6.22-6.6,6.22S259.74,61.42,259.74,57.55Zm9-.06V57.3c0-2-.81-3.13-2.38-3.13S264,55.24,264,57.26v.18c0,2.06.8,3.18,2.39,3.18S268.73,59.48,268.73,57.49Z" fill="#fff"/><path d="M273.71,61.33A2.29,2.29,0,0,1,276.06,59a2.31,2.31,0,1,1,0,4.62A2.29,2.29,0,0,1,273.71,61.33Z" fill="#fff"/><path d="M20.59,72.37h6.27c4.52,0,6.62,2,6.62,5.46v.1c0,3.43-2.33,5.28-6.41,5.28H25.29v5.51h-4.7ZM26.65,80C28.18,80,29,79.3,29,78v-.09c0-1.4-.83-2-2.3-2H25.29V80Z" fill="#fff"/><path d="M34.91,76.76H39v2.38a3.8,3.8,0,0,1,3.89-2.54v3.82c-2.51-.07-3.89.71-3.89,2.63v5.67H34.91Z" fill="#fff"/><path d="M43.67,82.89v-.18c0-3.85,2.88-6.27,6.53-6.27,3.29,0,6.13,1.87,6.13,6.18v1.07H47.84a2.4,2.4,0,0,0,2.52,2.49c1.36,0,1.93-.61,2.1-1.41h3.87C56,87.46,53.86,89,50.22,89S43.67,86.8,43.67,82.89Zm8.65-1.51c-.07-1.44-.79-2.24-2.12-2.24a2.29,2.29,0,0,0-2.31,2.24Z" fill="#fff"/><path d="M57.76,76.76h4.13v1.78a4.25,4.25,0,0,1,3.75-2.1c2.82,0,5.1,2.1,5.1,6.2v.18c0,4.12-2.28,6.18-5.12,6.18a4,4,0,0,1-3.73-2v5.77H57.76Zm8.78,6.06v-.18c0-2.11-.92-3.11-2.37-3.11s-2.4,1.07-2.4,3.09v.18c0,2,.9,3.06,2.4,3.06S66.54,84.79,66.54,82.82Z" fill="#fff"/><path d="M71.55,85.41c0-2.82,2.39-3.92,6.41-3.92h1.15v-.27c0-1.14-.28-1.9-1.59-1.9a1.48,1.48,0,0,0-1.64,1.42H72c.18-2.88,2.47-4.3,5.76-4.3s5.44,1.35,5.44,4.53v7.75h-4V87.33A4,4,0,0,1,75.63,89C73.46,89,71.55,87.94,71.55,85.41Zm7.56-.87V83.8H78c-1.66,0-2.4.32-2.4,1.31,0,.68.46,1.12,1.43,1.12C78.23,86.23,79.11,85.57,79.11,84.54Z" fill="#fff"/><path d="M85.22,76.76h4.13v2.38a3.8,3.8,0,0,1,3.89-2.54v3.82c-2.51-.07-3.89.71-3.89,2.63v5.67H85.22Z" fill="#fff"/><path d="M93.77,85.41c0-2.82,2.4-3.92,6.41-3.92h1.16v-.27c0-1.14-.28-1.9-1.59-1.9a1.48,1.48,0,0,0-1.64,1.42H94.23c.19-2.88,2.47-4.3,5.77-4.3s5.44,1.35,5.44,4.53v7.75h-4V87.33A4,4,0,0,1,97.85,89C95.69,89,93.77,87.94,93.77,85.41Zm7.57-.87V83.8h-1.09c-1.66,0-2.4.32-2.4,1.31,0,.68.47,1.12,1.43,1.12C100.46,86.23,101.34,85.57,101.34,84.54Z" fill="#fff"/><path d="M106.8,82.89v-.18c0-4,2.88-6.27,6.43-6.27,3,0,5.67,1.28,5.91,4.92h-3.88a1.78,1.78,0,0,0-1.93-1.74c-1.46,0-2.31,1-2.31,3v.18c0,2.09.81,3.16,2.37,3.16a2,2,0,0,0,2.1-2h3.71c-.11,3-2.16,5-6.06,5C109.54,89,106.8,86.92,106.8,82.89Z" fill="#fff"/><path d="M120.45,73.51a2.28,2.28,0,1,1,2.26,2.11A2.15,2.15,0,0,1,120.45,73.51Zm.21,3.25h4.12v12h-4.12Z" fill="#fff"/><path d="M126.35,82.89v-.18c0-3.85,2.88-6.27,6.62-6.27s6.57,2.36,6.57,6.15v.19c0,3.88-2.88,6.22-6.59,6.22S126.35,86.75,126.35,82.89Zm9-.07v-.18c0-2-.8-3.14-2.37-3.14s-2.4,1.08-2.4,3.09v.19c0,2,.81,3.17,2.4,3.17S135.34,84.81,135.34,82.82Zm-2.76-11.23h4.15l-2.42,3.8h-2.95Z" fill="#fff"/><path d="M141,76.76h4.13v1.92a4.28,4.28,0,0,1,4-2.24c2.33,0,3.94,1.44,3.94,4.51v7.77H148.9v-7c0-1.35-.53-2-1.73-2s-2,.73-2,2.26v6.7H141Z" fill="#fff"/><path d="M158.63,82.87v-.19c0-4.07,2.26-6.24,5.12-6.24a3.91,3.91,0,0,1,3.71,2v-7h4.13V88.72h-4.13V86.78A4.07,4.07,0,0,1,163.71,89C160.92,89,158.63,87,158.63,82.87Zm9-.07v-.18c0-2-.86-3.09-2.38-3.09s-2.37,1-2.37,3.11v.18c0,2,.9,3,2.33,3S167.58,84.83,167.58,82.8Z" fill="#fff"/><path d="M173,82.89v-.18c0-3.85,2.88-6.27,6.53-6.27,3.3,0,6.13,1.87,6.13,6.18v1.07h-8.48a2.39,2.39,0,0,0,2.51,2.49c1.36,0,1.94-.61,2.1-1.41h3.87c-.37,2.69-2.47,4.23-6.11,4.23S173,86.8,173,82.89Zm8.65-1.51c-.07-1.44-.78-2.24-2.12-2.24a2.29,2.29,0,0,0-2.31,2.24Z" fill="#fff"/><path d="M191.88,84.88V79.55h-1.45V76.76h1.45V74.27H196v2.49h2.37v2.79H196v4.94a1.1,1.1,0,0,0,1.22,1.26,3.14,3.14,0,0,0,1.18-.21v3.11a8.61,8.61,0,0,1-2.29.35C193.4,89,191.88,87.69,191.88,84.88Z" fill="#fff"/><path d="M199.3,85.41c0-2.82,2.4-3.92,6.41-3.92h1.16v-.27c0-1.14-.28-1.9-1.59-1.9a1.48,1.48,0,0,0-1.64,1.42h-3.88c.19-2.88,2.47-4.3,5.77-4.3S211,77.79,211,81v7.75h-4V87.33A4,4,0,0,1,203.38,89C201.22,89,199.3,87.94,199.3,85.41Zm7.57-.87V83.8h-1.09c-1.66,0-2.4.32-2.4,1.31,0,.68.47,1.12,1.43,1.12C206,86.23,206.87,85.57,206.87,84.54Z" fill="#fff"/><path d="M216,82.64l-3.76-5.88H217l1.87,3.16,1.82-3.16h4.24l-3.8,5.56,4.17,6.4h-4.75l-2.14-3.57-2.19,3.57H212Z" fill="#fff"/><path d="M224.78,82.89v-.18c0-3.85,2.88-6.27,6.53-6.27,3.29,0,6.13,1.87,6.13,6.18v1.07H229a2.39,2.39,0,0,0,2.51,2.49c1.36,0,1.94-.61,2.1-1.41h3.87C237.07,87.46,235,89,231.33,89S224.78,86.8,224.78,82.89Zm8.65-1.51c-.07-1.44-.79-2.24-2.12-2.24A2.29,2.29,0,0,0,229,81.38Z" fill="#fff"/><path d="M238.18,84.93H242c.14.86.53,1.34,1.71,1.34,1,0,1.48-.38,1.48-1s-.58-.85-2.24-1.07c-3.23-.42-4.59-1.35-4.59-3.85,0-2.65,2.37-3.93,5.16-3.93,3,0,5.05,1,5.33,3.86H245.1a1.35,1.35,0,0,0-1.55-1.18c-.9,0-1.36.38-1.36.93s.55.8,2,1c3.34.41,5,1.28,5,3.84,0,2.84-2.12,4.12-5.47,4.12S238.27,87.58,238.18,84.93Z" fill="#fff"/><path d="M19.58,108.23V108c0-3.84,2.88-6.27,6.52-6.27,3.3,0,6.13,1.88,6.13,6.18V109H23.75a2.4,2.4,0,0,0,2.51,2.49c1.36,0,1.94-.62,2.1-1.42h3.87c-.36,2.7-2.46,4.23-6.11,4.23S19.58,112.14,19.58,108.23Zm8.64-1.51c-.07-1.45-.78-2.25-2.12-2.25a2.28,2.28,0,0,0-2.3,2.25Z" fill="#fff"/><path d="M33.66,102.1h4.13V104a4.27,4.27,0,0,1,4-2.25c2.33,0,3.94,1.45,3.94,4.51v7.78H41.57v-7c0-1.35-.53-2-1.73-2s-2.05.73-2.05,2.27v6.7H33.66Z" fill="#fff"/><path d="M51.81,109.89V102.1h4.13v7.13c0,1.35.53,2,1.7,2s2.06-.73,2.06-2.26V102.1h4.12v12H59.7v-1.85a4,4,0,0,1-3.83,2.12C53.54,114.33,51.81,112.91,51.81,109.89Z" fill="#fff"/><path d="M65.92,102.1h4.13V104a4.25,4.25,0,0,1,4-2.25c2.33,0,3.95,1.45,3.95,4.51v7.78H73.83v-7c0-1.35-.53-2-1.73-2s-2,.73-2,2.27v6.7H65.92Z" fill="#fff"/><path d="M79.27,110.74c0-2.81,2.4-3.91,6.41-3.91h1.15v-.27c0-1.15-.27-1.9-1.59-1.9a1.48,1.48,0,0,0-1.64,1.42H79.73c.19-2.89,2.47-4.31,5.77-4.31s5.44,1.35,5.44,4.53v7.76h-4v-1.4a4,4,0,0,1-3.58,1.67C81.18,114.33,79.27,113.28,79.27,110.74Zm7.56-.87v-.73H85.75c-1.66,0-2.4.32-2.4,1.3,0,.69.46,1.12,1.43,1.12C86,111.56,86.83,110.9,86.83,109.87Z" fill="#fff"/><path d="M97.14,96.83h4.13V104a4.25,4.25,0,0,1,4-2.25c2.33,0,3.94,1.45,3.94,4.51v7.78h-4.12v-7c0-1.35-.53-2-1.73-2s-2,.73-2,2.27v6.7H97.14Z" fill="#fff"/><path d="M110.54,108.23V108c0-3.84,2.88-6.27,6.61-6.27s6.57,2.36,6.57,6.16v.18c0,3.89-2.88,6.22-6.59,6.22S110.54,112.09,110.54,108.23Zm9-.07V108c0-2-.81-3.13-2.38-3.13s-2.4,1.08-2.4,3.09v.18c0,2.06.81,3.18,2.4,3.18S119.53,110.15,119.53,108.16Z" fill="#fff"/><path d="M125.18,102.1h4.12v2.37a3.79,3.79,0,0,1,3.9-2.53v3.81c-2.51-.06-3.9.71-3.9,2.64v5.67h-4.12Z" fill="#fff"/><path d="M133.73,110.74c0-2.81,2.4-3.91,6.41-3.91h1.15v-.27c0-1.15-.27-1.9-1.59-1.9a1.47,1.47,0,0,0-1.63,1.42h-3.88c.19-2.89,2.47-4.31,5.77-4.31s5.44,1.35,5.44,4.53v7.76h-4v-1.4a4,4,0,0,1-3.58,1.67C135.64,114.33,133.73,113.28,133.73,110.74Zm7.56-.87v-.73h-1.08c-1.66,0-2.4.32-2.4,1.3,0,.69.46,1.12,1.43,1.12C140.42,111.56,141.29,110.9,141.29,109.87Z" fill="#fff"/><path d="M147.24,112a2.29,2.29,0,0,1,2.35-2.31,2.31,2.31,0,1,1,0,4.62A2.29,2.29,0,0,1,147.24,112Z" fill="#fff"/></g></g></g></svg>