<svg xmlns="http://www.w3.org/2000/svg" viewBox="0 0 300 250"><title>H49</title><g id="Layer_2" data-name="Layer 2"><g id="Rect"><rect width="300" height="250" fill="#fff"/></g><g id="H49"><g id="To_do:_drop_off_taxes." data-name="To do:drop off taxes."><path d="M27.75,55.37h-7V49.43H42.45v5.94h-7V76.31H27.75Z" fill="#fff"/><path d="M40.79,66.73v-.31c0-6.31,4.7-10.3,10.79-10.3S62.3,60,62.3,66.24v.3c0,6.39-4.7,10.22-10.75,10.22S40.79,73.08,40.79,66.73Zm14.67-.12v-.3c0-3.31-1.32-5.15-3.88-5.15s-3.91,1.77-3.91,5.08v.3c0,3.38,1.32,5.22,3.91,5.22S55.46,69.88,55.46,66.61Z" fill="#fff"/><path d="M70.53,66.69v-.3c0-6.7,3.69-10.27,8.35-10.27a6.37,6.37,0,0,1,6.05,3.31V48h6.73V76.31H84.93V73.12a6.6,6.6,0,0,1-6.12,3.64C74.26,76.76,70.53,73.49,70.53,66.69Zm14.59-.12v-.3c0-3.3-1.39-5.07-3.87-5.07s-3.87,1.69-3.87,5.11v.3c0,3.31,1.46,5,3.79,5S85.12,69.92,85.12,66.57Z" fill="#fff"/><path d="M94,66.73v-.31c0-6.31,4.7-10.3,10.79-10.3S115.54,60,115.54,66.24v.3c0,6.39-4.7,10.22-10.75,10.22S94,73.08,94,66.73Zm14.67-.12v-.3c0-3.31-1.32-5.15-3.88-5.15s-3.91,1.77-3.91,5.08v.3c0,3.38,1.32,5.22,3.91,5.22S108.7,69.88,108.7,66.61Z" fill="#fff"/><path d="M117.76,62.18a3.77,3.77,0,0,1,3.83-3.8,3.8,3.8,0,1,1,0,7.59A3.74,3.74,0,0,1,117.76,62.18Zm0,10.75a3.77,3.77,0,0,1,3.83-3.8,3.8,3.8,0,1,1,0,7.6A3.77,3.77,0,0,1,117.76,72.93Z" fill="#fff"/><path d="M21,106.29V106c0-6.7,3.68-10.27,8.34-10.27A6.4,6.4,0,0,1,35.42,99V87.6h6.73v28.31H35.42v-3.19a6.63,6.63,0,0,1-6.13,3.64C24.74,116.36,21,113.09,21,106.29Zm14.58-.12v-.3c0-3.3-1.39-5.07-3.87-5.07s-3.87,1.69-3.87,5.11v.3c0,3.31,1.46,5,3.8,5S35.6,109.52,35.6,106.17Z" fill="#fff"/><path d="M45.57,96.25H52.3v3.91A6.19,6.19,0,0,1,58.65,96v6.27c-4.1-.11-6.35,1.17-6.35,4.33v9.32H45.57Z" fill="#fff"/><path d="M59.86,106.33V106c0-6.31,4.7-10.3,10.79-10.3s10.71,3.88,10.71,10.12v.3c0,6.39-4.7,10.22-10.75,10.22S59.86,112.68,59.86,106.33Zm14.66-.12v-.3c0-3.31-1.32-5.15-3.87-5.15s-3.91,1.77-3.91,5.08v.3c0,3.38,1.31,5.22,3.91,5.22S74.52,109.48,74.52,106.21Z" fill="#fff"/><path d="M83.73,96.25h6.73v2.93a7,7,0,0,1,6.13-3.46c4.59,0,8.31,3.46,8.31,10.19v.3c0,6.77-3.72,10.15-8.35,10.15A6.49,6.49,0,0,1,90.46,113v9.47H83.73Zm14.33,10v-.3c0-3.46-1.51-5.11-3.88-5.11s-3.91,1.77-3.91,5.07v.3c0,3.35,1.47,5,3.91,5S98.06,109.45,98.06,106.21Z" fill="#fff"/><path d="M113.13,106.33V106c0-6.31,4.7-10.3,10.79-10.3s10.72,3.88,10.72,10.12v.3c0,6.39-4.7,10.22-10.75,10.22S113.13,112.68,113.13,106.33Zm14.67-.12v-.3c0-3.31-1.32-5.15-3.88-5.15s-3.91,1.77-3.91,5.08v.3c0,3.38,1.32,5.22,3.91,5.22S127.8,109.48,127.8,106.21Z" fill="#fff"/><path d="M138,100.84h-2.48V96.25H138v-1.5c0-4.89,3-7.19,7.67-7.19a11,11,0,0,1,3,.38v4.93a5.6,5.6,0,0,0-1.8-.27,2,2,0,0,0-2.18,2.15v1.5h5.71V94.52c0-4.89,3.09-7.22,7.71-7.22a12.22,12.22,0,0,1,3.08.41v4.93a6.2,6.2,0,0,0-1.84-.26,2,2,0,0,0-2.22,2.14v1.73h4v4.59h-4v15.07h-6.73V100.84h-5.71v15.07H138Z" fill="#fff"/><path d="M171.11,109.6v-8.76h-2.37V96.25h2.37v-4.1h6.73v4.1h3.87v4.59h-3.87V109a1.79,1.79,0,0,0,2,2.06,5.22,5.22,0,0,0,1.92-.33v5.11a13.91,13.91,0,0,1-3.72.56C173.59,116.36,171.11,114.22,171.11,109.6Z" fill="#fff"/><path d="M183.22,110.46c0-4.62,3.91-6.43,10.45-6.43h1.88v-.45c0-1.88-.45-3.12-2.59-3.12a2.42,2.42,0,0,0-2.67,2.33H184c.3-4.74,4-7.07,9.4-7.07s8.87,2.22,8.87,7.45v12.74H195.7v-2.29c-.94,1.43-2.67,2.74-5.83,2.74C186.34,116.36,183.22,114.63,183.22,110.46ZM195.55,109v-1.2h-1.77c-2.7,0-3.91.53-3.91,2.14,0,1.13.76,1.84,2.34,1.84C194.12,111.81,195.55,110.72,195.55,109Z" fill="#fff"/><path d="M210.48,105.91l-6.13-9.66h7.74l3,5.19,3-5.19H225l-6.2,9.14,6.8,10.52h-7.75l-3.49-5.86-3.57,5.86h-6.88Z" fill="#fff"/><path d="M224.77,106.33V106c0-6.31,4.7-10.3,10.64-10.3,5.37,0,10,3.09,10,10.15v1.77H231.57c.19,2.6,1.69,4.1,4.1,4.1,2.22,0,3.16-1,3.42-2.33h6.32c-.6,4.43-4,7-10,7C229.28,116.36,224.77,112.75,224.77,106.33Zm14.1-2.49c-.12-2.36-1.28-3.68-3.46-3.68-2,0-3.42,1.32-3.76,3.68Z" fill="#fff"/><path d="M246.61,109.67h6.21c.22,1.43.86,2.22,2.78,2.22,1.65,0,2.4-.64,2.4-1.62s-.94-1.39-3.64-1.76c-5.27-.68-7.48-2.22-7.48-6.32,0-4.36,3.87-6.47,8.42-6.47,4.85,0,8.23,1.66,8.68,6.36h-6.09a2.2,2.2,0,0,0-2.52-2c-1.46,0-2.22.64-2.22,1.54s.91,1.32,3.31,1.62c5.45.68,8.09,2.11,8.09,6.32,0,4.66-3.46,6.76-8.92,6.76S246.76,114,246.61,109.67Z" fill="#fff"/><path d="M266.46,112.53a3.75,3.75,0,0,1,3.84-3.8,3.8,3.8,0,1,1,0,7.6A3.76,3.76,0,0,1,266.46,112.53Z" fill="#fff"/></g></g></g></svg>