<?xml version="1.0" encoding="utf-8"?>
<!-- Generator: Adobe Illustrator 23.1.0, SVG Export Plug-In . SVG Version: 6.00 Build 0)  -->
<svg version="1.1" id="Layer_1" xmlns="http://www.w3.org/2000/svg" xmlns:xlink="http://www.w3.org/1999/xlink" x="0px" y="0px"
	 viewBox="0 0 300 250" style="enable-background:new 0 0 300 250;" xml:space="preserve">
<style type="text/css">
	.st0{fill:none;}
	.st1{fill:#FFFFFF;}
</style>
<title>H49</title>
<g>
	<g id="Rect">
		<rect class="st0" width="300" height="250"/>
	</g>
	<g id="H49">
		<g id="To_do:_drop_off_taxes.">
			<path class="st1" d="M27.8,55.4h-7v-5.9h21.7v5.9h-7v20.9h-7.7V55.4z"/>
			<path class="st1" d="M40.8,66.7v-0.3c0-6.3,4.7-10.3,10.8-10.3S62.3,60,62.3,66.2v0.3c0,6.4-4.7,10.2-10.8,10.2
				S40.8,73.1,40.8,66.7z M55.5,66.6v-0.3c0-3.3-1.3-5.2-3.9-5.2s-3.9,1.8-3.9,5.1v0.3c0,3.4,1.3,5.2,3.9,5.2S55.5,69.9,55.5,66.6z"
				/>
			<path class="st1" d="M70.5,66.7v-0.3c0-6.7,3.7-10.3,8.3-10.3c2.5-0.2,4.9,1.1,6.1,3.3V48h6.7v28.3h-6.7v-3.2
				c-1.2,2.3-3.5,3.7-6.1,3.6C74.3,76.8,70.5,73.5,70.5,66.7z M85.1,66.6v-0.3c0-3.3-1.4-5.1-3.9-5.1s-3.9,1.7-3.9,5.1v0.3
				c0,3.3,1.5,5,3.8,5S85.1,69.9,85.1,66.6z"/>
			<path class="st1" d="M94,66.7v-0.3c0-6.3,4.7-10.3,10.8-10.3s10.8,3.9,10.8,10.1v0.3c0,6.4-4.7,10.2-10.8,10.2S94,73.1,94,66.7z
				 M108.7,66.6v-0.3c0-3.3-1.3-5.2-3.9-5.2s-3.9,1.8-3.9,5.1v0.3c0,3.4,1.3,5.2,3.9,5.2S108.7,69.9,108.7,66.6L108.7,66.6z"/>
			<path class="st1" d="M117.8,62.2c0-2.1,1.7-3.8,3.7-3.8c0,0,0.1,0,0.1,0c2.1-0.1,3.9,1.5,4,3.6c0.1,2.1-1.5,3.9-3.6,4
				c-0.1,0-0.3,0-0.4,0c-2.1,0-3.8-1.6-3.8-3.6C117.8,62.3,117.8,62.2,117.8,62.2z M117.8,72.9c0-2.1,1.7-3.8,3.7-3.8
				c0,0,0.1,0,0.1,0c2.1,0,3.8,1.7,3.8,3.8c0,2.1-1.7,3.8-3.8,3.8c0,0,0,0,0,0C119.5,76.8,117.8,75.1,117.8,72.9
				C117.8,73,117.8,73,117.8,72.9z"/>
			<path class="st1" d="M21,106.3V106c0-6.7,3.7-10.3,8.3-10.3c2.5-0.2,4.9,1.1,6.1,3.3V87.6h6.7v28.3h-6.7v-3.2
				c-1.2,2.3-3.6,3.7-6.1,3.6C24.7,116.4,21,113.1,21,106.3z M35.6,106.2v-0.3c0-3.3-1.4-5.1-3.9-5.1s-3.9,1.7-3.9,5.1v0.3
				c0,3.3,1.5,5,3.8,5S35.6,109.5,35.6,106.2L35.6,106.2z"/>
			<path class="st1" d="M45.6,96.3h6.7v3.9c0.9-2.7,3.5-4.4,6.4-4.2v6.3c-4.1-0.1-6.3,1.2-6.3,4.3v9.3h-6.7V96.3z"/>
			<path class="st1" d="M59.9,106.3V106c0-6.3,4.7-10.3,10.8-10.3s10.7,3.9,10.7,10.1v0.3c0,6.4-4.7,10.2-10.8,10.2
				S59.9,112.7,59.9,106.3z M74.5,106.2v-0.3c0-3.3-1.3-5.2-3.9-5.2s-3.9,1.8-3.9,5.1v0.3c0,3.4,1.3,5.2,3.9,5.2
				S74.5,109.5,74.5,106.2z"/>
			<path class="st1" d="M83.7,96.3h6.7v2.9c1.3-2.2,3.6-3.5,6.1-3.5c4.6,0,8.3,3.5,8.3,10.2v0.3c0,6.8-3.7,10.2-8.3,10.2
				c-2.5,0.2-4.9-1.2-6.1-3.4v9.5h-6.7V96.3z M98.1,106.3v-0.3c0-3.5-1.5-5.1-3.9-5.1s-3.9,1.8-3.9,5.1v0.3c0,3.3,1.5,5,3.9,5
				S98.1,109.4,98.1,106.3L98.1,106.3z"/>
			<path class="st1" d="M113.1,106.3V106c0-6.3,4.7-10.3,10.8-10.3c6.1,0,10.7,3.9,10.7,10.1v0.3c0,6.4-4.7,10.2-10.8,10.2
				S113.1,112.7,113.1,106.3z M127.8,106.2v-0.3c0-3.3-1.3-5.2-3.9-5.2s-3.9,1.8-3.9,5.1v0.3c0,3.4,1.3,5.2,3.9,5.2
				S127.8,109.5,127.8,106.2z"/>
			<path class="st1" d="M138,100.8h-2.5v-4.6h2.5v-1.5c0-4.9,3-7.2,7.7-7.2c1,0,2,0.1,3,0.4v4.9c-0.6-0.2-1.2-0.3-1.8-0.3
				c-1.1-0.1-2.1,0.7-2.2,1.8c0,0.1,0,0.2,0,0.3v1.5h5.7v-1.7c0-4.9,3.1-7.2,7.7-7.2c1,0,2.1,0.1,3.1,0.4v4.9
				c-0.6-0.2-1.2-0.3-1.8-0.3c-1.1-0.1-2.1,0.7-2.2,1.8c0,0.1,0,0.3,0,0.4v1.7h4v4.6h-4v15.1h-6.7v-15.1h-5.7v15.1H138V100.8z"/>
			<path class="st1" d="M171.1,109.6v-8.8h-2.4v-4.6h2.4v-4.1h6.7v4.1h3.9v4.6h-3.9v8.2c-0.2,1,0.5,1.9,1.5,2.1c0.2,0,0.3,0,0.5,0
				c0.7,0,1.3-0.1,1.9-0.3v5.1c-1.2,0.4-2.5,0.5-3.7,0.6C173.6,116.4,171.1,114.2,171.1,109.6z"/>
			<path class="st1" d="M183.2,110.5c0-4.6,3.9-6.4,10.4-6.4h1.9v-0.4c0-1.9-0.4-3.1-2.6-3.1c-1.3-0.1-2.5,0.8-2.7,2.2
				c0,0.1,0,0.1,0,0.2H184c0.3-4.7,4-7.1,9.4-7.1s8.9,2.2,8.9,7.4v12.7h-6.6v-2.3c-0.9,1.4-2.7,2.7-5.8,2.7
				C186.3,116.4,183.2,114.6,183.2,110.5z M195.6,109v-1.2h-1.8c-2.7,0-3.9,0.5-3.9,2.1c0,1.1,0.8,1.8,2.3,1.8
				C194.1,111.8,195.6,110.7,195.6,109z"/>
			<path class="st1" d="M210.5,105.9l-6.1-9.7h7.7l3,5.2l3-5.2h6.9l-6.2,9.1l6.8,10.5h-7.8l-3.5-5.9l-3.6,5.9h-6.9L210.5,105.9z"/>
			<path class="st1" d="M224.8,106.3V106c0-6.3,4.7-10.3,10.6-10.3c5.4,0,10,3.1,10,10.2v1.8h-13.8c0.2,2.6,1.7,4.1,4.1,4.1
				c2.2,0,3.2-1,3.4-2.3h6.3c-0.6,4.4-4,7-10,7C229.3,116.4,224.8,112.8,224.8,106.3z M238.9,103.8c-0.1-2.4-1.3-3.7-3.5-3.7
				c-2,0-3.4,1.3-3.8,3.7H238.9z"/>
			<path class="st1" d="M246.6,109.7h6.2c0.2,1.4,0.9,2.2,2.8,2.2c1.6,0,2.4-0.6,2.4-1.6s-0.9-1.4-3.6-1.8c-5.3-0.7-7.5-2.2-7.5-6.3
				c0-4.4,3.9-6.5,8.4-6.5c4.8,0,8.2,1.7,8.7,6.4h-6.1c-0.1-1.2-1.2-2.1-2.4-2c-0.1,0-0.1,0-0.2,0c-1.5,0-2.2,0.6-2.2,1.5
				s0.9,1.3,3.3,1.6c5.5,0.7,8.1,2.1,8.1,6.3c0,4.7-3.5,6.8-8.9,6.8S246.8,114,246.6,109.7z"/>
			<path class="st1" d="M266.5,112.5c0-2.1,1.6-3.8,3.7-3.8c0,0,0.1,0,0.1,0c2.1,0,3.8,1.7,3.8,3.8c0,2.1-1.7,3.8-3.8,3.8
				c0,0,0,0,0,0c-2.1,0-3.8-1.6-3.8-3.7C266.5,112.6,266.5,112.6,266.5,112.5z"/>
		</g>
	</g>
</g>
</svg>
