<svg xmlns="http://www.w3.org/2000/svg" viewBox="0 0 119.66 31.81"><title>get_started_today</title><g id="Layer_2" data-name="Layer 2"><g id="CTA"><g id="Rectangle_1" data-name="Rectangle 1"><rect width="119.66" height="31.81" fill="none"/></g><g id="Get_started_today" data-name="Get started today"><path d="M11.84,15.59V15.5a4.2,4.2,0,0,1,4.37-4.38c1.9,0,3.6.87,3.81,3H18.09a1.66,1.66,0,0,0-1.86-1.47c-1.49,0-2.36,1.12-2.36,2.87v.1c0,1.65.7,2.84,2.38,2.84a1.82,1.82,0,0,0,2.07-1.81H16.38V15.23h3.85v.91c0,2.29-1.46,3.82-4,3.82A4.07,4.07,0,0,1,11.84,15.59Z" transform="translate(0)" fill="#262626"/><path d="M20.92,16.77v-.1a3.12,3.12,0,0,1,3.23-3.26,2.89,2.89,0,0,1,3.06,3.19v.48H22.69a1.5,1.5,0,0,0,1.56,1.64c.8,0,1.19-.35,1.3-.87H27.2C27,19.2,25.91,20,24.2,20A3,3,0,0,1,20.92,16.77Zm4.6-.76c-.06-1-.54-1.4-1.37-1.4A1.43,1.43,0,0,0,22.71,16Z" transform="translate(0)" fill="#262626"/><path d="M28.43,18V14.79h-.8V13.55h.8V12.2h1.73v1.35h1.32v1.24H30.16v3c0,.5.25.74.7.74a1.55,1.55,0,0,0,.66-.12v1.35a3.28,3.28,0,0,1-1.06.17A1.79,1.79,0,0,1,28.43,18Z" transform="translate(0)" fill="#262626"/><path d="M34.54,17.86h1.62c.07.56.35.89,1.11.89s1-.26,1-.69-.37-.61-1.27-.74c-1.67-.25-2.32-.73-2.32-2s1.2-1.95,2.49-1.95,2.43.5,2.59,1.94h-1.6a.85.85,0,0,0-1-.75c-.57,0-.89.26-.89.64s.3.56,1.21.69c1.57.23,2.44.62,2.44,2S38.93,20,37.28,20,34.6,19.21,34.54,17.86Z" transform="translate(0)" fill="#262626"/><path d="M41.11,18V14.79H40.3V13.55h.81V12.2h1.72v1.35h1.32v1.24H42.83v3a.65.65,0,0,0,.7.74,1.53,1.53,0,0,0,.66-.12v1.35a3.28,3.28,0,0,1-1.06.17A1.79,1.79,0,0,1,41.11,18Z" transform="translate(0)" fill="#262626"/><path d="M44.81,18.09c0-1.47,1.35-2,3.27-2h.71v-.25c0-.74-.23-1.15-1-1.15a.94.94,0,0,0-1.07.89H45.05c.11-1.49,1.29-2.15,2.82-2.15s2.63.62,2.63,2.33v4.09H48.81v-.76a2.14,2.14,0,0,1-1.9.89C45.77,20,44.81,19.41,44.81,18.09Zm4-.46V17.1h-.68c-1,0-1.59.22-1.59.89,0,.46.27.76.91.76S48.79,18.33,48.79,17.63Z" transform="translate(0)" fill="#262626"/><path d="M51.81,13.55h1.74v1.2a2.06,2.06,0,0,1,2-1.29v1.62c-1.29,0-2,.4-2,1.6v3.15H51.81Z" transform="translate(0)" fill="#262626"/><path d="M56.89,18V14.79h-.81V13.55h.81V12.2h1.72v1.35h1.32v1.24H58.61v3a.65.65,0,0,0,.7.74,1.55,1.55,0,0,0,.66-.12v1.35a3.28,3.28,0,0,1-1.06.17A1.79,1.79,0,0,1,56.89,18Z" transform="translate(0)" fill="#262626"/><path d="M60.58,16.77v-.1a3.12,3.12,0,0,1,3.23-3.26,2.89,2.89,0,0,1,3.06,3.19v.48H62.34a1.51,1.51,0,0,0,1.56,1.64c.81,0,1.2-.35,1.31-.87h1.64c-.2,1.35-1.28,2.11-3,2.11A3,3,0,0,1,60.58,16.77Zm4.6-.76c-.06-1-.54-1.4-1.37-1.4A1.43,1.43,0,0,0,62.37,16Z" transform="translate(0)" fill="#262626"/><path d="M67.46,16.78v-.1c0-2.06,1.19-3.27,2.76-3.27a2.09,2.09,0,0,1,2,1.08V10.71h1.72v9.12H72.2v-1a2.3,2.3,0,0,1-2,1.18C68.66,20,67.46,18.87,67.46,16.78Zm4.78-.06v-.1c0-1.24-.55-1.88-1.5-1.88s-1.51.66-1.51,1.91v.09c0,1.25.6,1.86,1.47,1.86S72.24,18,72.24,16.72Z" transform="translate(0)" fill="#262626"/><path d="M78,18V14.79h-.8V13.55H78V12.2h1.73v1.35h1.32v1.24H79.77v3c0,.5.25.74.69.74a1.5,1.5,0,0,0,.66-.12v1.35a3.21,3.21,0,0,1-1.05.17A1.79,1.79,0,0,1,78,18Z" transform="translate(0)" fill="#262626"/><path d="M81.74,16.75v-.09a3.31,3.31,0,0,1,6.61,0v.1a3.31,3.31,0,0,1-6.61,0Zm4.84,0v-.08c0-1.2-.56-1.92-1.53-1.92s-1.54.69-1.54,1.89v.1c0,1.2.56,1.92,1.54,1.92S86.58,17.92,86.58,16.73Z" transform="translate(0)" fill="#262626"/><path d="M89,16.78v-.1c0-2.06,1.19-3.27,2.76-3.27a2.08,2.08,0,0,1,2,1.08V10.71h1.73v9.12H93.7v-1a2.27,2.27,0,0,1-2,1.18C90.16,20,89,18.87,89,16.78Zm4.79-.06v-.1c0-1.24-.55-1.88-1.5-1.88s-1.51.66-1.51,1.91v.09c0,1.25.6,1.86,1.46,1.86S93.75,18,93.75,16.72Z" transform="translate(0)" fill="#262626"/><path d="M96.39,18.09c0-1.47,1.34-2,3.26-2h.71v-.25c0-.74-.23-1.15-1-1.15a1,1,0,0,0-1.07.89H96.63c.11-1.49,1.28-2.15,2.82-2.15s2.63.62,2.63,2.33v4.09h-1.7v-.76a2.14,2.14,0,0,1-1.89.89C97.35,20,96.39,19.41,96.39,18.09Zm4-.46V17.1h-.67c-1,0-1.6.22-1.6.89,0,.46.28.76.91.76S100.36,18.33,100.36,17.63Z" transform="translate(0)" fill="#262626"/><path d="M105.08,19.19l-2.5-5.64h1.87L106,17.32l1.4-3.77h1.67L105.65,22H104Z" transform="translate(0)" fill="#262626"/></g></g></g></svg>