<?xml version="1.0" encoding="utf-8"?>
<!-- Generator: Adobe Illustrator 23.1.0, SVG Export Plug-In . SVG Version: 6.00 Build 0)  -->
<svg version="1.1" id="Layer_1" xmlns="http://www.w3.org/2000/svg" xmlns:xlink="http://www.w3.org/1999/xlink" x="0px" y="0px"
	 viewBox="0 0 729 91" style="enable-background:new 0 0 729 91;" xml:space="preserve">
<style type="text/css">
	.st0{fill:none;}
	.st1{fill:#FFFFFF;}
</style>
<title>Asset 23</title>
<g>
	<g id="Layer_23">
		<rect x="0.5" y="0.5" class="st0" width="728" height="90"/>
	</g>
	<g id="File_for_everyone_s_favorite_price:_free._copy">
		<path class="st1" d="M122.8,16.8h15.9V22h-9.1v5h7.3v5h-7.3v8.3h-6.8V16.8z"/>
		<path class="st1" d="M140.4,18.4c-0.1-1.8,1.2-3.4,3-3.5c1.8-0.1,3.4,1.2,3.5,3c0.1,1.8-1.2,3.4-3,3.5c-0.1,0-0.2,0-0.3,0
			C141.9,21.5,140.5,20.2,140.4,18.4C140.4,18.4,140.4,18.4,140.4,18.4z M140.7,23.1h5.9v17.3h-5.9V23.1z"/>
		<path class="st1" d="M149.9,15.5h5.9v24.8h-5.9V15.5z"/>
		<path class="st1" d="M158.1,31.9v-0.3c0-5.6,4.1-9,9.3-9c4.7,0,8.8,2.7,8.8,8.9v1.5H164c0.2,2.3,1.5,3.6,3.6,3.6
			c1.9,0,2.8-0.9,3-2h5.5c-0.5,3.9-3.5,6.1-8.7,6.1C162,40.7,158.1,37.6,158.1,31.9z M170.4,29.8c-0.1-2.1-1.1-3.2-3-3.2
			s-3,1.1-3.3,3.2H170.4z"/>
		<path class="st1" d="M185.1,27.1h-2.2v-4h2.2v-1.5c0-4.3,2.7-6.3,6.8-6.3c0.9,0,1.8,0.1,2.7,0.4v4.3c-0.5-0.2-1.1-0.2-1.6-0.2
			c-0.9-0.2-1.8,0.5-2,1.4c0,0.1,0,0.3,0,0.5v1.5h3.5v4H191v13.3h-5.9L185.1,27.1z"/>
		<path class="st1" d="M195,31.9v-0.3c0-5.6,4.1-9,9.5-9s9.4,3.4,9.4,8.9v0.3c0,5.6-4.1,9-9.4,9S195,37.5,195,31.9z M207.9,31.8
			v-0.3c0-2.9-1.2-4.5-3.4-4.5s-3.5,1.6-3.5,4.5v0.3c0,3,1.1,4.6,3.4,4.6S207.8,34.7,207.9,31.8L207.9,31.8z"/>
		<path class="st1" d="M215.9,23.1h5.9v3.4c0.8-2.4,3.1-3.9,5.6-3.7v5.5c-3.6-0.1-5.6,1-5.6,3.8v8.2h-5.9V23.1z"/>
		<path class="st1" d="M234.6,31.9v-0.3c0-5.6,4.1-9,9.3-9c4.7,0,8.8,2.7,8.8,8.9v1.5h-12.1c0.2,2.3,1.5,3.6,3.6,3.6
			c1.9,0,2.8-0.9,3-2h5.5c-0.5,3.9-3.5,6.1-8.7,6.1C238.6,40.7,234.6,37.6,234.6,31.9z M247,29.8c-0.1-2.1-1.1-3.2-3-3.2
			s-3,1.1-3.3,3.2H247z"/>
		<path class="st1" d="M252.7,23.1h6.3l3.6,11.1l3.5-11.1h5.6l-6.3,17.3H259L252.7,23.1z"/>
		<path class="st1" d="M271.4,31.9v-0.3c0-5.6,4.1-9,9.3-9c4.7,0,8.8,2.7,8.8,8.9v1.5h-12.1c0.2,2.3,1.5,3.6,3.6,3.6
			c2,0,2.8-0.9,3-2h5.5c-0.5,3.9-3.5,6.1-8.8,6.1C275.4,40.7,271.4,37.6,271.4,31.9z M283.8,29.8c-0.1-2.1-1.1-3.2-3-3.2
			s-3,1.1-3.3,3.2H283.8z"/>
		<path class="st1" d="M291.6,23.1h5.9v3.4c0.8-2.4,3.1-3.9,5.6-3.7v5.5c-3.6-0.1-5.6,1-5.6,3.8v8.2h-5.9V23.1z"/>
		<path class="st1" d="M310.9,38.6L304,23.1h6.4l3.6,9.2l3.3-9.2h5.6l-9.2,23H308L310.9,38.6z"/>
		<path class="st1" d="M322.6,31.9v-0.3c0-5.6,4.1-9,9.5-9s9.4,3.4,9.4,8.9v0.3c0,5.6-4.1,9-9.4,9S322.6,37.5,322.6,31.9z
			 M335.4,31.8v-0.3c0-2.9-1.2-4.5-3.4-4.5s-3.4,1.5-3.4,4.5v0.3c0,3,1.1,4.6,3.4,4.6S335.4,34.7,335.4,31.8z"/>
		<path class="st1" d="M343.5,23.1h5.9v2.8c1.1-2.1,3.3-3.4,5.7-3.2c3.3,0,5.6,2.1,5.6,6.5v11.2h-5.9v-10c0-2-0.8-2.9-2.5-2.9
			s-2.9,1.1-2.9,3.3v9.7h-5.9V23.1z"/>
		<path class="st1" d="M362.7,31.9v-0.3c0-5.6,4.1-9,9.3-9c4.7,0,8.8,2.7,8.8,8.9v1.5h-12.1c0.2,2.3,1.5,3.6,3.6,3.6
			c2,0,2.8-0.9,3-2h5.5c-0.5,3.9-3.5,6.1-8.7,6.1C366.6,40.7,362.7,37.6,362.7,31.9z M375.1,29.8c-0.1-2.1-1.1-3.2-3-3.2
			s-3,1.1-3.3,3.2H375.1z"/>
		<path class="st1" d="M381.4,24.9l2.6-8.6l5.2,1.8l-4.5,8.1L381.4,24.9z"/>
		<path class="st1" d="M387.3,34.9h5.4c0.2,1.3,0.8,2,2.5,2c1.5,0,2.1-0.6,2.1-1.4s-0.8-1.2-3.2-1.5c-4.6-0.6-6.6-2-6.6-5.5
			c0-3.8,3.4-5.7,7.4-5.7c4.3,0,7.2,1.5,7.6,5.6h-5.4c-0.1-1.1-1-1.9-2.1-1.8c0,0-0.1,0-0.1,0c-1.3,0-2,0.6-2,1.4s0.8,1.2,2.9,1.4
			c4.8,0.6,7.1,1.9,7.1,5.5c0,4.1-3,5.9-7.8,5.9S387.4,38.7,387.3,34.9z"/>
		<path class="st1" d="M411.8,27.1h-2.2v-4h2.2v-1.5c0-4.3,2.7-6.3,6.8-6.3c0.9,0,1.8,0.1,2.7,0.4v4.3c-0.5-0.2-1.1-0.2-1.6-0.2
			c-0.9-0.2-1.8,0.5-2,1.4c0,0.1,0,0.3,0,0.5v1.5h3.5v4h-3.5v13.3h-5.9V27.1z"/>
		<path class="st1" d="M421.9,35.6c0-4.1,3.4-5.6,9.2-5.6h1.6v-0.4c0-1.6-0.4-2.7-2.3-2.7c-1.2-0.1-2.2,0.7-2.3,1.9c0,0,0,0.1,0,0.1
			h-5.5c0.3-4.2,3.5-6.2,8.3-6.2s7.8,2,7.8,6.5v11.2h-5.7v-2c-0.8,1.3-2.3,2.4-5.1,2.4C424.6,40.7,421.9,39.2,421.9,35.6z
			 M432.7,34.3v-1.1h-1.5c-2.4,0-3.4,0.5-3.4,1.9c0,1,0.7,1.6,2,1.6C431.4,36.8,432.7,35.8,432.7,34.3z"/>
		<path class="st1" d="M439.4,23.1h6.3l3.6,11.1l3.5-11.1h5.6l-6.3,17.3h-6.4L439.4,23.1z"/>
		<path class="st1" d="M458.1,31.9v-0.3c0-5.6,4.1-9,9.5-9s9.4,3.3,9.4,8.8v0.3c0,5.6-4.1,9-9.4,9S458.1,37.5,458.1,31.9z M471,31.8
			v-0.3c0-2.9-1.1-4.5-3.4-4.5s-3.4,1.5-3.4,4.5v0.3c0,3,1.2,4.6,3.4,4.6S471,34.7,471,31.8L471,31.8z"/>
		<path class="st1" d="M479.1,23.1h5.9v3.4c0.8-2.4,3.1-3.9,5.6-3.7v5.5c-3.6-0.1-5.6,1-5.6,3.8v8.2h-5.9L479.1,23.1z"/>
		<path class="st1" d="M492.6,18.4c-0.1-1.8,1.2-3.4,3-3.5s3.4,1.2,3.5,3s-1.2,3.4-3,3.5c-0.1,0-0.2,0-0.3,0
			C494.1,21.5,492.7,20.2,492.6,18.4C492.6,18.4,492.6,18.4,492.6,18.4z M492.9,23.1h5.9v17.3h-5.9V23.1z"/>
		<path class="st1" d="M502.8,34.8v-7.7h-2.1v-4h2.1v-3.6h5.9v3.6h3.4v4h-3.4v7.1c0,1.3,0.6,1.8,1.8,1.8c0.6,0,1.2-0.1,1.7-0.3v4.5
			c-1.1,0.3-2.2,0.5-3.3,0.5C505,40.7,502.8,38.9,502.8,34.8z"/>
		<path class="st1" d="M513.4,31.9v-0.3c0-5.6,4.1-9,9.3-9c4.7,0,8.8,2.7,8.8,8.9v1.5h-12.1c0.2,2.3,1.5,3.6,3.6,3.6
			c2,0,2.8-0.9,3-2h5.5c-0.5,3.9-3.5,6.1-8.7,6.1C517.3,40.7,513.4,37.6,513.4,31.9z M525.8,29.8c-0.1-2.1-1.1-3.2-3-3.2
			s-3,1.1-3.3,3.2H525.8z"/>
		<path class="st1" d="M122.3,58.1h5.9v2.6c1.1-1.9,3.2-3,5.4-3c4,0,7.3,3,7.3,9v0.3c0,5.9-3.3,8.9-7.3,8.9c-2.2,0.1-4.3-1-5.3-2.9
			v8.3h-5.9V58.1z M134.8,66.8v-0.3c0-3-1.3-4.5-3.4-4.5s-3.4,1.5-3.4,4.5v0.3c0,2.9,1.3,4.4,3.4,4.4S134.8,69.7,134.8,66.8z"/>
		<path class="st1" d="M143,58.1h5.9v3.4c0.8-2.4,3.1-3.9,5.6-3.7v5.5c-3.6-0.1-5.6,1-5.6,3.8v8.2H143V58.1z"/>
		<path class="st1" d="M156.5,53.4c-0.1-1.8,1.2-3.4,3-3.5c1.8-0.1,3.4,1.2,3.5,3c0.1,1.8-1.2,3.4-3,3.5c-0.1,0-0.2,0-0.3,0
			C158,56.5,156.6,55.2,156.5,53.4C156.5,53.4,156.5,53.4,156.5,53.4z M156.8,58.1h5.9v17.3h-5.9V58.1z"/>
		<path class="st1" d="M164.9,66.9v-0.3c0-5.7,4.1-9,9.2-9c4.2,0,8.1,1.8,8.4,7.1H177c-0.3-1.6-1.1-2.5-2.8-2.5
			c-2.1,0-3.3,1.5-3.3,4.4v0.3c0,3,1.1,4.6,3.4,4.6c1.6,0.1,2.9-1.2,3-2.7c0,0,0-0.1,0-0.1h5.3c-0.2,4.4-3.1,7.2-8.7,7.2
			C168.9,75.8,164.9,72.7,164.9,66.9z"/>
		<path class="st1" d="M183.7,66.9v-0.3c0-5.5,4.1-9,9.3-9c4.7,0,8.8,2.7,8.8,8.9v1.6h-12.1c0.2,2.3,1.5,3.6,3.6,3.6
			c2,0,2.8-0.9,3-2h5.5c-0.5,3.9-3.5,6.1-8.8,6.1C187.6,75.8,183.7,72.6,183.7,66.9z M196,64.8c-0.1-2.1-1.1-3.2-3-3.2
			s-3,1.2-3.3,3.2H196z"/>
		<path class="st1" d="M203.7,62.9c0-1.8,1.5-3.3,3.3-3.3c0,0,0.1,0,0.1,0c1.8,0,3.3,1.5,3.3,3.3c0,1.8-1.5,3.3-3.3,3.3l0,0
			c-1.8,0-3.3-1.4-3.4-3.2C203.7,63,203.7,63,203.7,62.9z M203.7,72.4c0-1.8,1.4-3.3,3.2-3.4c0,0,0.1,0,0.1,0
			c1.8-0.1,3.4,1.3,3.5,3.2c0.1,1.8-1.3,3.4-3.2,3.5c-0.1,0-0.2,0-0.4,0C205.2,75.7,203.7,74.2,203.7,72.4
			C203.7,72.4,203.7,72.4,203.7,72.4z"/>
		<path class="st1" d="M220.3,62.1h-2.2v-4h2.2v-1.5c0-4.3,2.7-6.3,6.8-6.3c0.9,0,1.8,0.1,2.7,0.4v4.3c-0.5-0.2-1.1-0.2-1.6-0.2
			c-0.9-0.2-1.8,0.5-2,1.4c0,0.1,0,0.3,0,0.5v1.5h3.5v4h-3.5v13.3h-5.9L220.3,62.1z"/>
		<path class="st1" d="M231.6,58.1h5.9v3.4c0.8-2.4,3.1-3.9,5.6-3.7v5.5c-3.6-0.1-5.6,1-5.6,3.8v8.2h-5.9V58.1z"/>
		<path class="st1" d="M244.2,66.9v-0.3c0-5.5,4.1-9,9.3-9c4.7,0,8.8,2.7,8.8,8.9v1.6h-12.1c0.2,2.3,1.5,3.6,3.6,3.6
			c1.9,0,2.8-0.9,3-2h5.5c-0.5,3.9-3.5,6.1-8.7,6.1C248.1,75.8,244.2,72.6,244.2,66.9z M256.6,64.8c-0.1-2.1-1.1-3.2-3-3.2
			s-3,1.2-3.3,3.2H256.6z"/>
		<path class="st1" d="M263.4,66.9v-0.3c0-5.5,4.1-9,9.3-9c4.7,0,8.8,2.7,8.8,8.9v1.6h-12.1c0.2,2.3,1.5,3.6,3.6,3.6
			c2,0,2.8-0.9,3-2h5.5c-0.5,3.9-3.5,6.1-8.8,6.1C267.4,75.8,263.4,72.6,263.4,66.9z M275.8,64.8c-0.1-2.1-1.1-3.2-3-3.2
			s-3,1.2-3.3,3.2H275.8z"/>
		<path class="st1" d="M283.2,72.4c-0.1-1.8,1.4-3.3,3.2-3.4c0.1,0,0.1,0,0.2,0c1.8-0.1,3.4,1.3,3.5,3.2c0.1,1.8-1.3,3.4-3.2,3.5
			c-0.1,0-0.2,0-0.4,0C284.7,75.7,283.2,74.3,283.2,72.4C283.2,72.4,283.2,72.4,283.2,72.4z"/>
	</g>
</g>
</svg>
