<svg xmlns="http://www.w3.org/2000/svg" viewBox="0 0 729 91"><title>Asset 23</title><g id="Layer_2" data-name="Layer 2"><g id="Layer_23" data-name="Layer 23"><rect x="0.5" y="0.5" width="728" height="90" fill="none" stroke="#000" stroke-miterlimit="10"/></g><g id="File_for_everyone_s_favorite_price:_free._copy" data-name="File for everyone’s favorite price: free. copy"><path d="M122.78,16.75h15.94V22h-9.14v5h7.29v5h-7.29v8.35h-6.8Z" fill="#fff"/><path d="M140.4,18.4a3.26,3.26,0,1,1,3.23,3A3.08,3.08,0,0,1,140.4,18.4Zm.3,4.69h5.9V40.35h-5.9Z" fill="#fff"/><path d="M149.94,15.5h5.87V40.35h-5.87Z" fill="#fff"/><path d="M158.05,31.93v-.26c0-5.55,4.13-9,9.34-9,4.72,0,8.78,2.71,8.78,8.92v1.55H164c.16,2.27,1.48,3.6,3.59,3.6,1.95,0,2.78-.9,3-2h5.54c-.52,3.89-3.53,6.1-8.74,6.1C162,40.74,158.05,37.58,158.05,31.93Zm12.38-2.18c-.1-2.08-1.12-3.23-3-3.23s-3,1.15-3.3,3.23Z" fill="#fff"/><path d="M185.11,27.11h-2.17v-4h2.17V21.57c0-4.29,2.68-6.34,6.77-6.34a10.5,10.5,0,0,1,2.71.37v4.32a5.52,5.52,0,0,0-1.62-.23,1.73,1.73,0,0,0-2,1.88v1.52h3.5v4H191V40.35h-5.88Z" fill="#fff"/><path d="M195,31.93v-.26c0-5.55,4.12-9,9.47-9s9.41,3.4,9.41,8.88v.27c0,5.61-4.13,9-9.44,9S195,37.51,195,31.93Zm12.87-.1v-.26c0-2.9-1.16-4.52-3.4-4.52S201,28.6,201,31.5v.27c0,3,1.15,4.58,3.43,4.58S207.82,34.71,207.82,31.83Z" fill="#fff"/><path d="M215.9,23.09h5.91v3.43a5.43,5.43,0,0,1,5.58-3.66v5.51c-3.6-.1-5.58,1-5.58,3.79v8.19H215.9Z" fill="#fff"/><path d="M234.61,31.93v-.26c0-5.55,4.13-9,9.34-9,4.72,0,8.78,2.71,8.78,8.92v1.55H240.59c.16,2.27,1.48,3.6,3.59,3.6,1.95,0,2.78-.9,3-2h5.54c-.53,3.89-3.53,6.1-8.74,6.1C238.57,40.74,234.61,37.58,234.61,31.93ZM247,29.75c-.1-2.08-1.12-3.23-3-3.23s-3,1.15-3.3,3.23Z" fill="#fff"/><path d="M252.7,23.09H259l3.6,11.12,3.53-11.12h5.64l-6.3,17.26H259Z" fill="#fff"/><path d="M271.41,31.93v-.26c0-5.55,4.12-9,9.34-9,4.72,0,8.78,2.71,8.78,8.92v1.55H277.38c.17,2.27,1.49,3.6,3.6,3.6,1.95,0,2.77-.9,3-2h5.55c-.53,3.89-3.53,6.1-8.75,6.1C275.37,40.74,271.41,37.58,271.41,31.93Zm12.37-2.18c-.1-2.08-1.12-3.23-3-3.23s-3,1.15-3.3,3.23Z" fill="#fff"/><path d="M291.57,23.09h5.91v3.43a5.43,5.43,0,0,1,5.58-3.66v5.51c-3.6-.1-5.58,1-5.58,3.79v8.19h-5.91Z" fill="#fff"/><path d="M310.88,38.6,304,23.09h6.4l3.56,9.21,3.31-9.21h5.64l-9.24,23H308Z" fill="#fff"/><path d="M322.56,31.93v-.26c0-5.55,4.12-9,9.47-9s9.4,3.4,9.4,8.88v.27c0,5.61-4.12,9-9.43,9S322.56,37.51,322.56,31.93Zm12.87-.1v-.26c0-2.9-1.16-4.52-3.4-4.52s-3.43,1.55-3.43,4.45v.27c0,3,1.15,4.58,3.43,4.58S335.43,34.71,335.43,31.83Z" fill="#fff"/><path d="M343.51,23.09h5.91v2.77a6.09,6.09,0,0,1,5.68-3.24c3.33,0,5.64,2.08,5.64,6.51V40.35h-5.91v-10c0-1.95-.76-2.91-2.47-2.91s-2.94,1.06-2.94,3.27v9.67h-5.91Z" fill="#fff"/><path d="M362.68,31.93v-.26c0-5.55,4.13-9,9.34-9,4.72,0,8.78,2.71,8.78,8.92v1.55H368.66c.16,2.27,1.48,3.6,3.59,3.6,1.95,0,2.78-.9,3-2h5.54c-.52,3.89-3.53,6.1-8.74,6.1C366.64,40.74,362.68,37.58,362.68,31.93Zm12.38-2.18c-.1-2.08-1.12-3.23-3-3.23s-3,1.15-3.3,3.23Z" fill="#fff"/><path d="M381.39,24.94,384,16.32l5.21,1.75-4.52,8.15Z" fill="#fff"/><path d="M387.27,34.87h5.44c.2,1.25.76,2,2.45,2,1.45,0,2.11-.56,2.11-1.42s-.83-1.22-3.2-1.55c-4.62-.6-6.57-2-6.57-5.55,0-3.83,3.4-5.68,7.39-5.68,4.26,0,7.23,1.46,7.63,5.58h-5.35A1.93,1.93,0,0,0,395,26.49c-1.29,0-1.95.56-1.95,1.35s.79,1.16,2.91,1.42c4.78.59,7.09,1.85,7.09,5.54,0,4.1-3,5.94-7.82,5.94S387.4,38.7,387.27,34.87Z" fill="#fff"/><path d="M411.82,27.11h-2.18v-4h2.18V21.57c0-4.29,2.67-6.34,6.77-6.34a10.35,10.35,0,0,1,2.7.37v4.32a5.45,5.45,0,0,0-1.61-.23,1.73,1.73,0,0,0-2,1.88v1.52h3.49v4H417.7V40.35h-5.88Z" fill="#fff"/><path d="M421.85,35.56c0-4.06,3.44-5.64,9.18-5.64h1.65v-.4c0-1.65-.4-2.74-2.28-2.74a2.12,2.12,0,0,0-2.34,2h-5.55c.27-4.16,3.53-6.21,8.25-6.21s7.79,1.95,7.79,6.54V40.35h-5.74v-2c-.82,1.25-2.34,2.4-5.12,2.4C424.59,40.74,421.85,39.23,421.85,35.56Zm10.83-1.25V33.25h-1.55c-2.38,0-3.44.46-3.44,1.88,0,1,.66,1.62,2.05,1.62C431.42,36.75,432.68,35.79,432.68,34.31Z" fill="#fff"/><path d="M439.44,23.09h6.31l3.59,11.12,3.53-11.12h5.65l-6.31,17.26h-6.43Z" fill="#fff"/><path d="M458.15,31.93v-.26c0-5.55,4.13-9,9.47-9S477,26,477,31.5v.27c0,5.61-4.13,9-9.44,9S458.15,37.51,458.15,31.93Zm12.87-.1v-.26c0-2.9-1.15-4.52-3.4-4.52s-3.43,1.55-3.43,4.45v.27c0,3,1.16,4.58,3.43,4.58S471,34.71,471,31.83Z" fill="#fff"/><path d="M479.11,23.09H485v3.43a5.44,5.44,0,0,1,5.58-3.66v5.51c-3.59-.1-5.58,1-5.58,3.79v8.19h-5.9Z" fill="#fff"/><path d="M492.6,18.4a3.26,3.26,0,1,1,3.24,3A3.09,3.09,0,0,1,492.6,18.4Zm.3,4.69h5.91V40.35H492.9Z" fill="#fff"/><path d="M502.77,34.8V27.11h-2.08v-4h2.08v-3.6h5.9v3.6h3.4v4h-3.4v7.13c0,1.26.63,1.82,1.75,1.82a4.5,4.5,0,0,0,1.69-.3v4.49a12.35,12.35,0,0,1-3.27.49C505,40.74,502.77,38.86,502.77,34.8Z" fill="#fff"/><path d="M513.39,31.93v-.26c0-5.55,4.13-9,9.34-9,4.72,0,8.78,2.71,8.78,8.92v1.55H519.37c.16,2.27,1.48,3.6,3.59,3.6,1.95,0,2.78-.9,3-2h5.54c-.53,3.89-3.53,6.1-8.74,6.1C517.35,40.74,513.39,37.58,513.39,31.93Zm12.38-2.18c-.1-2.08-1.12-3.23-3-3.23s-3,1.15-3.3,3.23Z" fill="#fff"/><path d="M122.25,58.09h5.91v2.57a6.09,6.09,0,0,1,5.38-3c4,0,7.29,3,7.29,8.95v.26c0,5.94-3.27,8.92-7.33,8.92a5.7,5.7,0,0,1-5.34-2.94v8.31h-5.91Zm12.57,8.74v-.26c0-3-1.32-4.49-3.4-4.49S128,63.63,128,66.54v.26c0,2.94,1.29,4.42,3.43,4.42S134.82,69.67,134.82,66.83Z" fill="#fff"/><path d="M143,58.09h5.91v3.43a5.44,5.44,0,0,1,5.58-3.66v5.51c-3.6-.1-5.58,1-5.58,3.79v8.19H143Z" fill="#fff"/><path d="M156.47,53.4a3.26,3.26,0,1,1,3.23,3A3.08,3.08,0,0,1,156.47,53.4Zm.3,4.69h5.9V75.35h-5.9Z" fill="#fff"/><path d="M164.92,66.93v-.26c0-5.74,4.12-9.05,9.21-9.05,4.22,0,8.12,1.85,8.45,7.1H177c-.26-1.62-1.06-2.51-2.77-2.51-2.08,0-3.3,1.49-3.3,4.39v.27c0,3,1.15,4.55,3.4,4.55a2.87,2.87,0,0,0,3-2.87h5.31c-.16,4.36-3.1,7.2-8.68,7.2C168.85,75.75,164.92,72.74,164.92,66.93Z" fill="#fff"/><path d="M183.66,66.93v-.26c0-5.55,4.13-9.05,9.34-9.05,4.72,0,8.78,2.71,8.78,8.92v1.55H189.64c.16,2.28,1.48,3.6,3.59,3.6,2,0,2.77-.9,3-2h5.54c-.53,3.89-3.53,6.11-8.75,6.11C187.62,75.75,183.66,72.58,183.66,66.93ZM196,64.75c-.1-2.08-1.12-3.23-3-3.23s-3,1.15-3.3,3.23Z" fill="#fff"/><path d="M203.69,62.94a3.31,3.31,0,0,1,3.37-3.33,3.33,3.33,0,1,1,0,6.66A3.29,3.29,0,0,1,203.69,62.94Zm0,9.44A3.31,3.31,0,0,1,207.06,69a3.34,3.34,0,1,1,0,6.67A3.31,3.31,0,0,1,203.69,72.38Z" fill="#fff"/><path d="M220.29,62.11h-2.18v-4h2.18V56.57c0-4.29,2.67-6.34,6.77-6.34a10.83,10.83,0,0,1,2.7.36v4.33a5.45,5.45,0,0,0-1.61-.23,1.73,1.73,0,0,0-2,1.88v1.52h3.49v4h-3.49V75.35h-5.88Z" fill="#fff"/><path d="M231.64,58.09h5.91v3.43a5.43,5.43,0,0,1,5.58-3.66v5.51c-3.6-.1-5.58,1-5.58,3.79v8.19h-5.91Z" fill="#fff"/><path d="M244.18,66.93v-.26c0-5.55,4.13-9.05,9.34-9.05,4.72,0,8.78,2.71,8.78,8.92v1.55H250.16c.16,2.28,1.48,3.6,3.59,3.6,1.95,0,2.78-.9,3-2h5.54c-.53,3.89-3.53,6.11-8.74,6.11C248.14,75.75,244.18,72.58,244.18,66.93Zm12.38-2.18c-.1-2.08-1.12-3.23-3-3.23s-3,1.15-3.3,3.23Z" fill="#fff"/><path d="M263.42,66.93v-.26c0-5.55,4.13-9.05,9.34-9.05,4.72,0,8.78,2.71,8.78,8.92v1.55H269.39c.17,2.28,1.49,3.6,3.6,3.6,1.95,0,2.77-.9,3-2h5.54c-.53,3.89-3.53,6.11-8.75,6.11C267.38,75.75,263.42,72.58,263.42,66.93Zm12.38-2.18c-.1-2.08-1.12-3.23-3-3.23s-3,1.15-3.3,3.23Z" fill="#fff"/><path d="M283.19,72.38A3.29,3.29,0,0,1,286.55,69a3.34,3.34,0,1,1,0,6.67A3.29,3.29,0,0,1,283.19,72.38Z" fill="#fff"/></g></g></svg>