<svg xmlns="http://www.w3.org/2000/svg" viewBox="0 0 160 600"><title>Asset 6</title><g id="Layer_2" data-name="Layer 2"><g id="rect"><rect width="160" height="600" fill="none"/></g><g id="Still_open._Still_finding_credits_deductions_and_refunds_daily" data-name="Still open. Still finding credits, deductions and refunds daily"><path d="M19.47,112.87h4c.1,1,.57,1.9,2.3,1.9,1.2,0,1.87-.59,1.87-1.45s-.55-1.14-2.3-1.4c-4.11-.49-5.5-1.71-5.5-4.64,0-2.63,2.16-4.54,5.64-4.54s5.48,1.46,5.74,4.54H27.33a1.66,1.66,0,0,0-1.88-1.57c-1.12,0-1.69.51-1.69,1.24s.45,1.18,2.26,1.43c3.69.4,5.58,1.36,5.58,4.51,0,2.67-2.12,4.85-5.86,4.85C21.67,117.74,19.59,116,19.47,112.87Z" fill="#fff"/><path d="M33.44,114.08v-4.75H32.15v-2.48h1.29v-2.22h3.64v2.22h2.1v2.48h-2.1v4.4a1,1,0,0,0,1.08,1.12,2.84,2.84,0,0,0,1-.18v2.76a7.32,7.32,0,0,1-2,.31C34.78,117.74,33.44,116.58,33.44,114.08Z" fill="#fff"/><path d="M40.48,104a2,2,0,1,1,2,1.87A1.9,1.9,0,0,1,40.48,104Zm.19,2.89h3.64v10.64H40.67Z" fill="#fff"/><path d="M46.37,102.17H50v15.32H46.37Z" fill="#fff"/><path d="M52.05,102.17h3.62v15.32H52.05Z" fill="#fff"/><path d="M60.76,112.3v-.16c0-3.42,2.55-5.58,5.84-5.58s5.81,2.1,5.81,5.48v.16c0,3.46-2.55,5.54-5.83,5.54S60.76,115.74,60.76,112.3Zm7.94-.06v-.16c0-1.79-.71-2.79-2.1-2.79s-2.11,1-2.11,2.75v.16c0,1.83.71,2.83,2.11,2.83S68.7,114,68.7,112.24Z" fill="#fff"/><path d="M73.69,106.85h3.64v1.59a3.77,3.77,0,0,1,3.32-1.88c2.49,0,4.5,1.88,4.5,5.52v.16c0,3.67-2,5.5-4.52,5.5a3.51,3.51,0,0,1-3.3-1.81v5.13H73.69Zm7.76,5.39v-.16c0-1.87-.82-2.77-2.1-2.77s-2.12,1-2.12,2.75v.16c0,1.81.8,2.73,2.12,2.73S81.45,114,81.45,112.24Z" fill="#fff"/><path d="M85.91,112.3v-.16a5.44,5.44,0,0,1,5.76-5.58c2.91,0,5.41,1.67,5.41,5.5v1H89.59a2.14,2.14,0,0,0,2.22,2.22c1.2,0,1.71-.55,1.86-1.27h3.41c-.32,2.41-2.17,3.77-5.39,3.77S85.91,115.78,85.91,112.3ZM93.54,111c-.06-1.28-.69-2-1.87-2a2,2,0,0,0-2,2Z" fill="#fff"/><path d="M98.35,106.85H102v1.71a3.76,3.76,0,0,1,3.51-2c2,0,3.48,1.29,3.48,4v6.92h-3.65v-6.18c0-1.2-.47-1.79-1.52-1.79s-1.82.65-1.82,2v6H98.35Z" fill="#fff"/><path d="M110.61,115.66a2,2,0,0,1,2.07-2,2.06,2.06,0,1,1,0,4.11A2,2,0,0,1,110.61,115.66Z" fill="#fff"/><path d="M19.47,151.46h4c.1,1,.57,1.9,2.3,1.9,1.2,0,1.87-.59,1.87-1.45s-.55-1.14-2.3-1.4c-4.11-.49-5.5-1.71-5.5-4.64,0-2.63,2.16-4.54,5.64-4.54s5.48,1.46,5.74,4.54H27.33a1.66,1.66,0,0,0-1.88-1.57c-1.12,0-1.69.51-1.69,1.24s.45,1.18,2.26,1.43c3.69.4,5.58,1.36,5.58,4.51,0,2.67-2.12,4.85-5.86,4.85C21.67,156.33,19.59,154.62,19.47,151.46Z" fill="#fff"/><path d="M33.44,152.67v-4.75H32.15v-2.48h1.29v-2.22h3.64v2.22h2.1v2.48h-2.1v4.4a1,1,0,0,0,1.08,1.12,2.84,2.84,0,0,0,1-.18V156a7.32,7.32,0,0,1-2,.31C34.78,156.33,33.44,155.17,33.44,152.67Z" fill="#fff"/><path d="M40.48,142.55a2,2,0,1,1,2,1.87A1.9,1.9,0,0,1,40.48,142.55Zm.19,2.89h3.64v10.64H40.67Z" fill="#fff"/><path d="M46.37,140.76H50v15.32H46.37Z" fill="#fff"/><path d="M52.05,140.76h3.62v15.32H52.05Z" fill="#fff"/><path d="M61.88,147.92H60.54v-2.48h1.34v-.94c0-2.64,1.65-3.91,4.17-3.91a6.47,6.47,0,0,1,1.67.23v2.66a3.36,3.36,0,0,0-1-.14,1.07,1.07,0,0,0-1.23,1.16v.94h2.16v2.48H65.5v8.16H61.88Z" fill="#fff"/><path d="M68.8,142.55a2,2,0,1,1,2,1.87A1.9,1.9,0,0,1,68.8,142.55Zm.19,2.89h3.64v10.64H69Z" fill="#fff"/><path d="M74.59,145.44h3.64v1.71a3.76,3.76,0,0,1,3.5-2c2.06,0,3.48,1.29,3.48,4v6.92H81.57V149.9c0-1.2-.47-1.79-1.53-1.79s-1.81.65-1.81,2v6H74.59Z" fill="#fff"/><path d="M86.46,150.87v-.16c0-3.62,2-5.56,4.52-5.56a3.44,3.44,0,0,1,3.27,1.8v-6.19H97.9v15.32H94.25v-1.73a3.58,3.58,0,0,1-3.31,2C88.47,156.33,86.46,154.56,86.46,150.87Zm7.9-.06v-.16c0-1.79-.76-2.75-2.1-2.75s-2.1.92-2.1,2.77v.16c0,1.79.8,2.71,2.06,2.71S94.36,152.62,94.36,150.81Z" fill="#fff"/><path d="M99.67,142.55a2,2,0,1,1,2,1.87A1.9,1.9,0,0,1,99.67,142.55Zm.19,2.89h3.64v10.64H99.86Z" fill="#fff"/><path d="M105.46,145.44h3.64v1.71a3.76,3.76,0,0,1,3.5-2c2.06,0,3.48,1.29,3.48,4v6.92h-3.64V149.9c0-1.2-.47-1.79-1.53-1.79s-1.81.65-1.81,2v6h-3.64Z" fill="#fff"/><path d="M117.27,156.08h3.62c.16.78.63,1.39,2,1.39a2,2,0,0,0,2.26-2.24V153.6a3.73,3.73,0,0,1-3.29,2c-2.49,0-4.52-1.84-4.52-5.11v-.17c0-3.13,2-5.13,4.52-5.13a3.45,3.45,0,0,1,3.29,1.8v-1.51h3.65v9.75c0,3.17-2.1,4.84-5.91,4.84C119.22,160,117.55,158.51,117.27,156.08Zm7.94-5.65v-.15c0-1.46-.76-2.4-2.1-2.4s-2.1,1-2.1,2.42v.17c0,1.46.78,2.4,2.08,2.4S125.21,151.93,125.21,150.43Z" fill="#fff"/><path d="M19.51,189.49v-.17a5.35,5.35,0,0,1,5.68-5.57c2.6,0,5,1.13,5.21,4.37H27a1.57,1.57,0,0,0-1.71-1.55c-1.28,0-2,.92-2,2.71v.16c0,1.86.72,2.81,2.1,2.81a1.77,1.77,0,0,0,1.85-1.77h3.28c-.1,2.69-1.91,4.44-5.35,4.44C21.93,194.92,19.51,193.07,19.51,189.49Z" fill="#fff"/><path d="M31.64,184h3.65v2.12a3.35,3.35,0,0,1,3.44-2.26v3.4c-2.22-.06-3.44.63-3.44,2.34v5.05H31.64Z" fill="#fff"/><path d="M39.38,189.49v-.17a5.44,5.44,0,0,1,5.76-5.57c2.91,0,5.42,1.66,5.42,5.49v1H43.07a2.13,2.13,0,0,0,2.22,2.22c1.2,0,1.71-.55,1.85-1.27h3.42c-.33,2.41-2.18,3.77-5.4,3.77S39.38,193,39.38,189.49ZM47,188.14c-.07-1.28-.7-2-1.88-2a2,2,0,0,0-2,2Z" fill="#fff"/><path d="M51.29,189.46v-.16c0-3.62,2-5.55,4.52-5.55a3.45,3.45,0,0,1,3.28,1.79v-6.19h3.64v15.33H59.09V193a3.6,3.6,0,0,1-3.32,2C53.31,194.92,51.29,193.15,51.29,189.46Zm7.9-.06v-.16c0-1.79-.75-2.75-2.1-2.75s-2.09.92-2.09,2.77v.16c0,1.8.79,2.71,2,2.71S59.19,191.22,59.19,189.4Z" fill="#fff"/><path d="M64.51,181.14a1.89,1.89,0,0,1,2-1.89,1.88,1.88,0,1,1,0,3.76A1.88,1.88,0,0,1,64.51,181.14Zm.18,2.89h3.65v10.65H64.69Z" fill="#fff"/><path d="M70.78,191.26v-4.75H69.5V184h1.28v-2.22h3.64V184h2.1v2.48h-2.1v4.4A1,1,0,0,0,75.5,192a2.84,2.84,0,0,0,1-.18v2.76a7.31,7.31,0,0,1-2,.31C72.12,194.92,70.78,193.76,70.78,191.26Z" fill="#fff"/><path d="M77.34,191.3H80.7c.12.77.46,1.2,1.5,1.2s1.3-.35,1.3-.88-.5-.75-2-1c-2.85-.37-4-1.21-4-3.42,0-2.37,2.1-3.5,4.56-3.5,2.63,0,4.46.89,4.7,3.44h-3.3a1.18,1.18,0,0,0-1.36-1.06c-.79,0-1.2.34-1.2.83s.49.71,1.79.88c3,.36,4.38,1.14,4.38,3.42,0,2.52-1.88,3.66-4.83,3.66S77.42,193.66,77.34,191.3Z" fill="#fff"/><path d="M87.48,196.32,89.19,191l3.38,1.2-2.93,5Z" fill="#fff"/><path d="M19.55,228.06v-.17c0-3.62,2-5.55,4.52-5.55a3.46,3.46,0,0,1,3.28,1.79v-6.19H31v15.33H27.35v-1.73a3.58,3.58,0,0,1-3.32,2C21.56,233.51,19.55,231.74,19.55,228.06Zm7.9-.07v-.16c0-1.79-.76-2.75-2.1-2.75s-2.1.92-2.1,2.77V228c0,1.8.8,2.71,2.06,2.71S27.45,229.81,27.45,228Z" fill="#fff"/><path d="M32.28,228.08v-.17A5.44,5.44,0,0,1,38,222.34c2.91,0,5.41,1.66,5.41,5.49v1H36A2.13,2.13,0,0,0,38.18,231c1.2,0,1.71-.55,1.85-1.27h3.42c-.32,2.41-2.18,3.77-5.39,3.77S32.28,231.56,32.28,228.08Zm7.63-1.35c-.06-1.28-.69-2-1.87-2a2,2,0,0,0-2,2Z" fill="#fff"/><path d="M44.19,228.06v-.17c0-3.62,2-5.55,4.52-5.55A3.44,3.44,0,0,1,52,224.13v-6.19h3.65v15.33H52v-1.73a3.58,3.58,0,0,1-3.31,2C46.2,233.51,44.19,231.74,44.19,228.06Zm7.9-.07v-.16c0-1.79-.76-2.75-2.1-2.75s-2.1.92-2.1,2.77V228c0,1.8.8,2.71,2.06,2.71S52.09,229.81,52.09,228Z" fill="#fff"/><path d="M57.4,229.56v-6.94h3.65V229c0,1.2.46,1.79,1.5,1.79s1.81-.65,1.81-2v-6.13H68v10.65H64.36v-1.65A3.48,3.48,0,0,1,61,233.51C58.93,233.51,57.4,232.25,57.4,229.56Z" fill="#fff"/><path d="M69.29,228.08v-.17A5.35,5.35,0,0,1,75,222.34c2.61,0,5,1.14,5.21,4.37H76.76a1.57,1.57,0,0,0-1.7-1.55c-1.29,0-2,.92-2,2.71V228c0,1.86.71,2.81,2.1,2.81A1.77,1.77,0,0,0,77,229.07h3.28c-.11,2.69-1.92,4.44-5.36,4.44C71.72,233.51,69.29,231.66,69.29,228.08Z" fill="#fff"/><path d="M81.92,229.85V225.1H80.64v-2.48h1.28V220.4h3.64v2.22h2.1v2.48h-2.1v4.4a1,1,0,0,0,1.08,1.12,2.84,2.84,0,0,0,1-.18v2.77a7.79,7.79,0,0,1-2,.3C83.26,233.51,81.92,232.35,81.92,229.85Z" fill="#fff"/><path d="M89,219.73a2,2,0,1,1,2,1.87A1.9,1.9,0,0,1,89,219.73Zm.19,2.89h3.64v10.65H89.15Z" fill="#fff"/><path d="M94.18,228.08v-.17c0-3.42,2.54-5.57,5.84-5.57s5.8,2.09,5.8,5.47V228c0,3.46-2.54,5.54-5.82,5.54S94.18,231.52,94.18,228.08Zm7.94-.07v-.16c0-1.79-.72-2.79-2.1-2.79s-2.12,1-2.12,2.75V228c0,1.84.71,2.83,2.12,2.83S102.12,229.79,102.12,228Z" fill="#fff"/><path d="M107.11,222.62h3.64v1.71a3.75,3.75,0,0,1,3.5-2c2.06,0,3.48,1.28,3.48,4v6.92h-3.64v-6.19c0-1.2-.47-1.79-1.53-1.79s-1.81.65-1.81,2v6h-3.64Z" fill="#fff"/><path d="M118.79,229.89h3.36c.12.77.47,1.2,1.51,1.2s1.3-.35,1.3-.88-.51-.75-2-1c-2.85-.37-4-1.2-4-3.42s2.09-3.5,4.56-3.5c2.62,0,4.45.89,4.7,3.44h-3.3a1.18,1.18,0,0,0-1.36-1.06c-.8,0-1.2.34-1.2.83s.48.71,1.79.88c3,.36,4.37,1.14,4.37,3.42,0,2.52-1.87,3.66-4.82,3.66S118.88,232.25,118.79,229.89Z" fill="#fff"/><path d="M19.47,268.91c0-2.51,2.11-3.49,5.66-3.49h1v-.24c0-1-.24-1.69-1.4-1.69a1.32,1.32,0,0,0-1.45,1.26H19.88c.16-2.56,2.17-3.82,5.08-3.82s4.81,1.2,4.81,4v6.9H26.23v-1.24a3.51,3.51,0,0,1-3.16,1.48C21.16,272.1,19.47,271.17,19.47,268.91Zm6.67-.78v-.65h-.95c-1.47,0-2.12.29-2.12,1.16,0,.61.41,1,1.26,1A1.6,1.6,0,0,0,26.14,268.13Z" fill="#fff"/><path d="M31.54,261.21h3.65v1.71a3.75,3.75,0,0,1,3.5-2c2.05,0,3.48,1.28,3.48,4v6.92H38.52v-6.19c0-1.2-.46-1.79-1.52-1.79s-1.81.65-1.81,2v6H31.54Z" fill="#fff"/><path d="M43.41,266.65v-.17c0-3.62,2-5.55,4.52-5.55a3.45,3.45,0,0,1,3.28,1.79v-6.19h3.64v15.33H51.21v-1.73a3.58,3.58,0,0,1-3.32,2C45.43,272.1,43.41,270.33,43.41,266.65Zm7.9-.07v-.16c0-1.79-.75-2.75-2.1-2.75s-2.09.92-2.09,2.77v.17c0,1.79.79,2.7,2.05,2.7S51.31,268.4,51.31,266.58Z" fill="#fff"/><path d="M60.42,261.21h3.64v2.12a3.35,3.35,0,0,1,3.44-2.26v3.4c-2.22-.06-3.44.63-3.44,2.34v5.05H60.42Z" fill="#fff"/><path d="M68.15,266.67v-.17a5.44,5.44,0,0,1,5.76-5.57c2.92,0,5.42,1.67,5.42,5.49v1H71.84a2.13,2.13,0,0,0,2.22,2.22c1.2,0,1.71-.55,1.85-1.26h3.42c-.33,2.4-2.18,3.76-5.4,3.76S68.15,270.15,68.15,266.67Zm7.64-1.35c-.06-1.28-.69-2-1.88-2a2,2,0,0,0-2,2Z" fill="#fff"/><path d="M81.14,263.69H79.8v-2.48h1.34v-.94c0-2.64,1.65-3.9,4.18-3.9a6.63,6.63,0,0,1,1.67.22v2.67a3.4,3.4,0,0,0-1-.15,1.07,1.07,0,0,0-1.22,1.16v.94h2.16v2.48H84.77v8.17H81.14Z" fill="#fff"/><path d="M88.07,268.15v-6.94h3.64v6.35c0,1.2.47,1.79,1.51,1.79s1.81-.65,1.81-2v-6.13h3.64v10.65H95v-1.65a3.5,3.5,0,0,1-3.38,1.89C89.59,272.1,88.07,270.84,88.07,268.15Z" fill="#fff"/><path d="M100.53,261.21h3.64v1.71a3.75,3.75,0,0,1,3.5-2c2.06,0,3.48,1.28,3.48,4v6.92h-3.64v-6.19c0-1.2-.47-1.79-1.53-1.79s-1.81.65-1.81,2v6h-3.64Z" fill="#fff"/><path d="M112.4,266.65v-.17c0-3.62,2-5.55,4.52-5.55a3.45,3.45,0,0,1,3.28,1.79v-6.19h3.64v15.33H120.2v-1.73a3.58,3.58,0,0,1-3.32,2C114.42,272.1,112.4,270.33,112.4,266.65Zm7.9-.07v-.16c0-1.79-.76-2.75-2.1-2.75s-2.1.92-2.1,2.77v.17c0,1.79.8,2.7,2.06,2.7S120.3,268.4,120.3,266.58Z" fill="#fff"/><path d="M125,268.48h3.36c.12.77.47,1.2,1.51,1.2s1.3-.35,1.3-.88-.51-.75-2-.95c-2.85-.37-4.05-1.2-4.05-3.42s2.09-3.5,4.56-3.5c2.62,0,4.45.89,4.7,3.44h-3.3a1.18,1.18,0,0,0-1.36-1.06c-.8,0-1.2.34-1.2.83s.48.71,1.79.88c3,.36,4.37,1.14,4.37,3.42,0,2.52-1.87,3.66-4.82,3.66S125.07,270.84,125,268.48Z" fill="#fff"/><path d="M19.55,305.24v-.17c0-3.62,2-5.55,4.52-5.55a3.46,3.46,0,0,1,3.28,1.79v-6.19H31v15.33H27.35v-1.73a3.58,3.58,0,0,1-3.32,2C21.56,310.69,19.55,308.92,19.55,305.24Zm7.9-.07V305c0-1.79-.76-2.75-2.1-2.75s-2.1.92-2.1,2.77v.17c0,1.79.8,2.7,2.06,2.7S27.45,307,27.45,305.17Z" fill="#fff"/><path d="M32.24,307.5c0-2.51,2.11-3.49,5.65-3.49h1v-.24c0-1-.24-1.69-1.4-1.69a1.31,1.31,0,0,0-1.45,1.26H32.64c.17-2.56,2.18-3.82,5.09-3.82s4.81,1.2,4.81,4v6.9H39v-1.24a3.49,3.49,0,0,1-3.15,1.48C33.92,310.69,32.24,309.75,32.24,307.5Zm6.67-.78v-.65H38c-1.47,0-2.12.29-2.12,1.16,0,.61.41,1,1.26,1A1.6,1.6,0,0,0,38.91,306.72Z" fill="#fff"/><path d="M44.23,296.91a1.89,1.89,0,0,1,2-1.89,1.88,1.88,0,1,1,0,3.76A1.88,1.88,0,0,1,44.23,296.91Zm.18,2.89h3.65v10.65H44.41Z" fill="#fff"/><path d="M50.11,295.12h3.63v15.33H50.11Z" fill="#fff"/><path d="M59,309.37l-4.25-9.57h3.95l2.19,5.68,2-5.68h3.48L60.74,314H57.26Z" fill="#fff"/><path d="M65.67,308.62a2,2,0,0,1,2.08-2.06,2.06,2.06,0,1,1,0,4.11A2,2,0,0,1,65.67,308.62Z" fill="#fff"/></g></g></svg>