<svg xmlns="http://www.w3.org/2000/svg" viewBox="0 0 729 91"><title>Asset 14</title><g id="Layer_2" data-name="Layer 2"><g id="Layer_23" data-name="Layer 23"><rect x="0.5" y="0.5" width="728" height="90" fill="none" stroke="#000" stroke-miterlimit="10"/></g><g id="To-do:_drop_off_taxes." data-name="To-do: drop off taxes."><path d="M129.5,35.06h-8.08v-6.9h25.17v6.9H138.5V59.41h-9Z" fill="#fff"/><path d="M144.67,48.26v-.35c0-7.34,5.46-12,12.54-12s12.45,4.5,12.45,11.75V48c0,7.43-5.46,11.89-12.5,11.89S144.67,55.65,144.67,48.26Zm17-.13v-.35c0-3.84-1.53-6-4.5-6s-4.55,2.06-4.55,5.9V48c0,3.94,1.53,6.08,4.55,6.08S161.71,51.93,161.71,48.13Z" fill="#fff"/><path d="M172.33,44h12.23v5.9H172.33Z" fill="#fff"/><path d="M187.32,48.22v-.35c0-7.78,4.28-11.93,9.7-11.93,3.58,0,5.72,1.53,7,3.84V26.5h7.83V59.41h-7.83V55.69a7.69,7.69,0,0,1-7.12,4.24C191.64,59.93,187.32,56.13,187.32,48.22Zm17-.13v-.35c0-3.85-1.61-5.9-4.5-5.9s-4.5,2-4.5,5.94v.35c0,3.85,1.7,5.81,4.41,5.81S204.27,52,204.27,48.09Z" fill="#fff"/><path d="M214.63,48.26v-.35c0-7.34,5.46-12,12.54-12s12.46,4.5,12.46,11.75V48c0,7.43-5.47,11.89-12.5,11.89S214.63,55.65,214.63,48.26Zm17-.13v-.35c0-3.84-1.53-6-4.5-6s-4.54,2.06-4.54,5.9V48c0,3.94,1.53,6.08,4.54,6.08S231.67,51.93,231.67,48.13Z" fill="#fff"/><path d="M242.2,43a4.39,4.39,0,0,1,4.46-4.41,4.42,4.42,0,1,1,0,8.83A4.37,4.37,0,0,1,242.2,43Zm0,12.5a4.39,4.39,0,0,1,4.46-4.41,4.42,4.42,0,1,1,0,8.83A4.39,4.39,0,0,1,242.2,55.47Z" fill="#fff"/><path d="M261.87,48.22v-.35c0-7.78,4.28-11.93,9.7-11.93,3.58,0,5.72,1.53,7,3.84V26.5h7.83V59.41H278.6V55.69a7.69,7.69,0,0,1-7.12,4.24C266.19,59.93,261.87,56.13,261.87,48.22Zm16.95-.13v-.35c0-3.85-1.61-5.9-4.5-5.9s-4.5,2-4.5,5.94v.35c0,3.85,1.71,5.81,4.41,5.81S278.82,52,278.82,48.09Z" fill="#fff"/><path d="M290.4,36.55h7.83v4.54a7.21,7.21,0,0,1,7.38-4.85v7.3c-4.76-.13-7.38,1.36-7.38,5V59.41H290.4Z" fill="#fff"/><path d="M307,48.26v-.35c0-7.34,5.46-12,12.54-12S332,40.44,332,47.69V48c0,7.43-5.47,11.89-12.5,11.89S307,55.65,307,48.26Zm17-.13v-.35c0-3.84-1.53-6-4.5-6S315,43.85,315,47.69V48c0,3.94,1.53,6.08,4.54,6.08S324.05,51.93,324.05,48.13Z" fill="#fff"/><path d="M334.76,36.55h7.82V40a8.06,8.06,0,0,1,7.13-4c5.33,0,9.65,4,9.65,11.84v.35c0,7.87-4.32,11.8-9.7,11.8-3.45,0-5.94-1.62-7.08-3.89v11h-7.82Zm16.65,11.58v-.35c0-4-1.75-5.94-4.5-5.94s-4.55,2-4.55,5.9v.35c0,3.89,1.71,5.85,4.55,5.85S351.41,51.89,351.41,48.13Z" fill="#fff"/><path d="M368.93,48.26v-.35c0-7.34,5.46-12,12.54-12s12.46,4.5,12.46,11.75V48c0,7.43-5.46,11.89-12.5,11.89S368.93,55.65,368.93,48.26Zm17-.13v-.35c0-3.84-1.52-6-4.5-6s-4.54,2.06-4.54,5.9V48c0,3.94,1.53,6.08,4.54,6.08S386,51.93,386,48.13Z" fill="#fff"/><path d="M397.86,41.88H395V36.55h2.88V34.8c0-5.68,3.5-8.34,8.92-8.34a13.18,13.18,0,0,1,3.49.43v5.73a6.7,6.7,0,0,0-2.1-.31,2.29,2.29,0,0,0-2.53,2.49v1.75h6.64v-2c0-5.68,3.59-8.39,9-8.39a14,14,0,0,1,3.58.48v5.72a7.28,7.28,0,0,0-2.14-.3,2.28,2.28,0,0,0-2.58,2.49v2h4.64v5.33H420.1V59.41h-7.82V41.88h-6.64V59.41h-7.78Z" fill="#fff"/><path d="M436.32,52.06V41.88h-2.76V36.55h2.76V31.79h7.82v4.76h4.5v5.33h-4.5v9.44a2.09,2.09,0,0,0,2.32,2.4,6,6,0,0,0,2.22-.39v5.94a16,16,0,0,1-4.32.66C439.2,59.93,436.32,57.44,436.32,52.06Z" fill="#fff"/><path d="M450.39,53.07c0-5.38,4.54-7.47,12.15-7.47h2.18v-.53c0-2.18-.52-3.63-3-3.63a2.81,2.81,0,0,0-3.11,2.71h-7.34c.35-5.5,4.68-8.21,10.93-8.21s10.31,2.58,10.31,8.65V59.41h-7.6V56.74c-1.1,1.66-3.11,3.19-6.78,3.19C454,59.93,450.39,57.92,450.39,53.07Zm14.33-1.66V50h-2.05c-3.15,0-4.55.61-4.55,2.49,0,1.31.88,2.14,2.71,2.14C463.06,54.64,464.72,53.38,464.72,51.41Z" fill="#fff"/><path d="M482.07,47.78,475,36.55h9l3.54,6,3.45-6h8l-7.21,10.62,7.91,12.24h-9l-4.07-6.82-4.15,6.82h-8Z" fill="#fff"/><path d="M498.67,48.26v-.35c0-7.34,5.47-12,12.37-12,6.25,0,11.63,3.58,11.63,11.8v2H506.58c.22,3,2,4.76,4.77,4.76,2.58,0,3.67-1.17,4-2.7h7.35C522,57,518,59.93,511.09,59.93,503.92,59.93,498.67,55.73,498.67,48.26Zm16.39-2.88c-.13-2.76-1.48-4.29-4-4.29-2.36,0-4,1.53-4.37,4.29Z" fill="#fff"/><path d="M524.06,52.15h7.21c.27,1.66,1,2.58,3.24,2.58,1.92,0,2.79-.74,2.79-1.88s-1.09-1.62-4.23-2.05c-6.12-.79-8.7-2.58-8.7-7.35,0-5.06,4.5-7.51,9.79-7.51,5.64,0,9.57,1.92,10.09,7.38h-7.08c-.3-1.53-1.13-2.27-2.92-2.27s-2.58.74-2.58,1.79,1.05,1.53,3.84,1.88c6.34.79,9.4,2.45,9.4,7.34,0,5.42-4,7.87-10.36,7.87C528,59.93,524.24,57.22,524.06,52.15Z" fill="#fff"/><path d="M547.14,55.47a4.36,4.36,0,0,1,4.45-4.41,4.42,4.42,0,1,1,0,8.83A4.36,4.36,0,0,1,547.14,55.47Z" fill="#fff"/></g></g></svg>