<svg xmlns="http://www.w3.org/2000/svg" viewBox="0 0 728 90"><title>H49</title><g id="Layer_2" data-name="Layer 2"><g id="Rect"><rect width="728" height="90" fill="none"/></g><g id="H49"><g id="To_do:_drop_off_taxes." data-name="To do: drop off taxes."><path d="M129.18,34.73h-8.24v-7H146.6v7h-8.24V59.55h-9.18Z" fill="#fff"/><path d="M144.64,48.18v-.35c0-7.49,5.57-12.21,12.78-12.21s12.7,4.59,12.7,12V48c0,7.58-5.57,12.12-12.74,12.12S144.64,55.71,144.64,48.18ZM162,48.05v-.36c0-3.92-1.56-6.1-4.59-6.1s-4.63,2.09-4.63,6V48c0,4,1.56,6.19,4.63,6.19S162,51.93,162,48.05Z" fill="#fff"/><path d="M179.87,48.14v-.36c0-7.93,4.37-12.16,9.9-12.16,3.65,0,5.83,1.56,7.17,3.92V26h8V59.55h-8V55.76a7.86,7.86,0,0,1-7.26,4.32C184.29,60.08,179.87,56.2,179.87,48.14ZM197.16,48v-.36c0-3.92-1.65-6-4.59-6s-4.59,2-4.59,6.06v.36c0,3.92,1.74,5.93,4.5,5.93S197.16,52,197.16,48Z" fill="#fff"/><path d="M207.72,48.18v-.35c0-7.49,5.57-12.21,12.79-12.21s12.69,4.59,12.69,12V48c0,7.58-5.57,12.12-12.74,12.12S207.72,55.71,207.72,48.18Zm17.38-.13v-.36c0-3.92-1.56-6.1-4.59-6.1s-4.64,2.09-4.64,6V48c0,4,1.56,6.19,4.64,6.19S225.1,51.93,225.1,48.05Z" fill="#fff"/><path d="M235.83,42.79a4.47,4.47,0,0,1,4.54-4.5,4.5,4.5,0,1,1,0,9A4.44,4.44,0,0,1,235.83,42.79Zm0,12.75a4.47,4.47,0,0,1,4.54-4.5,4.5,4.5,0,1,1,0,9A4.47,4.47,0,0,1,235.83,55.54Z" fill="#fff"/><path d="M255.88,48.14v-.36c0-7.93,4.36-12.16,9.89-12.16,3.65,0,5.83,1.56,7.17,3.92V26h8V59.55h-8V55.76a7.86,7.86,0,0,1-7.26,4.32C260.29,60.08,255.88,56.2,255.88,48.14ZM273.16,48v-.36c0-3.92-1.65-6-4.59-6s-4.59,2-4.59,6.06v.36c0,3.92,1.74,5.93,4.5,5.93S273.16,52,273.16,48Z" fill="#fff"/><path d="M285,36.24h8v4.64a7.35,7.35,0,0,1,7.53-5v7.44c-4.85-.13-7.53,1.38-7.53,5.13v11h-8Z" fill="#fff"/><path d="M301.9,48.18v-.35c0-7.49,5.57-12.21,12.78-12.21s12.7,4.59,12.7,12V48c0,7.58-5.57,12.12-12.74,12.12S301.9,55.71,301.9,48.18Zm17.37-.13v-.36c0-3.92-1.56-6.1-4.59-6.1s-4.63,2.09-4.63,6V48c0,4,1.56,6.19,4.63,6.19S319.27,51.93,319.27,48.05Z" fill="#fff"/><path d="M330.19,36.24h8v3.48a8.22,8.22,0,0,1,7.26-4.1c5.44,0,9.85,4.1,9.85,12.07v.36c0,8-4.41,12-9.89,12-3.52,0-6.06-1.65-7.22-4V67.34h-8Zm17,11.81v-.36c0-4.1-1.78-6.06-4.59-6.06s-4.63,2.1-4.63,6V48c0,4,1.74,6,4.63,6S347.16,51.88,347.16,48.05Z" fill="#fff"/><path d="M365,48.18v-.35c0-7.49,5.57-12.21,12.79-12.21s12.7,4.59,12.7,12V48c0,7.58-5.57,12.12-12.74,12.12S365,55.71,365,48.18Zm17.38-.13v-.36c0-3.92-1.56-6.1-4.59-6.1s-4.63,2.09-4.63,6V48c0,4,1.56,6.19,4.63,6.19S382.4,51.93,382.4,48.05Z" fill="#fff"/><path d="M394.51,41.68h-2.94V36.24h2.94V34.46c0-5.79,3.57-8.51,9.09-8.51a13.33,13.33,0,0,1,3.57.45v5.83a7,7,0,0,0-2.14-.31,2.33,2.33,0,0,0-2.58,2.54v1.78h6.77V34.19c0-5.79,3.65-8.55,9.13-8.55a14,14,0,0,1,3.65.49V32a7.18,7.18,0,0,0-2.18-.32,2.33,2.33,0,0,0-2.63,2.54v2.05h4.73v5.44h-4.73V59.55h-8V41.68h-6.77V59.55h-7.94Z" fill="#fff"/><path d="M433.72,52.06V41.68h-2.81V36.24h2.81V31.39h8v4.85h4.59v5.44h-4.59V51.3c0,1.7.85,2.45,2.36,2.45a6.06,6.06,0,0,0,2.28-.4v6.06a16.65,16.65,0,0,1-4.41.67C436.66,60.08,433.72,57.54,433.72,52.06Z" fill="#fff"/><path d="M448.06,53.08c0-5.48,4.64-7.61,12.39-7.61h2.23v-.54c0-2.23-.54-3.7-3.08-3.7A2.87,2.87,0,0,0,456.44,44H449c.36-5.62,4.77-8.38,11.14-8.38s10.52,2.63,10.52,8.82V59.55h-7.76V56.83c-1.11,1.69-3.16,3.25-6.9,3.25C451.76,60.08,448.06,58,448.06,53.08Zm14.62-1.69V50h-2.1c-3.21,0-4.63.62-4.63,2.54,0,1.33.89,2.18,2.76,2.18C461,54.69,462.68,53.4,462.68,51.39Z" fill="#fff"/><path d="M480.36,47.69,473.1,36.24h9.18l3.61,6.15,3.52-6.15h8.19l-7.35,10.83,8.07,12.48h-9.18l-4.14-7-4.24,7h-8.15Z" fill="#fff"/><path d="M497.29,48.18v-.35c0-7.49,5.57-12.21,12.61-12.21,6.37,0,11.85,3.65,11.85,12v2.09h-16.4c.23,3.08,2,4.86,4.86,4.86,2.63,0,3.74-1.2,4.05-2.76h7.49c-.71,5.25-4.77,8.24-11.81,8.24C502.64,60.08,497.29,55.8,497.29,48.18ZM514,45.24c-.14-2.8-1.52-4.36-4.1-4.36-2.41,0-4.06,1.56-4.46,4.36Z" fill="#fff"/><path d="M523.17,52.15h7.35c.27,1.69,1,2.63,3.3,2.63,2,0,2.85-.76,2.85-1.92s-1.11-1.65-4.32-2.09c-6.24-.8-8.87-2.63-8.87-7.49,0-5.17,4.59-7.66,10-7.66,5.75,0,9.76,2,10.3,7.53h-7.22c-.31-1.56-1.16-2.32-3-2.32s-2.63.76-2.63,1.83,1.07,1.56,3.92,1.92c6.47.8,9.58,2.49,9.58,7.48,0,5.52-4.09,8-10.55,8C527.23,60.08,523.35,57.32,523.17,52.15Z" fill="#fff"/><path d="M546.69,55.54a4.44,4.44,0,0,1,4.55-4.5,4.5,4.5,0,1,1,0,9A4.45,4.45,0,0,1,546.69,55.54Z" fill="#fff"/></g></g></g></svg>