<svg xmlns="http://www.w3.org/2000/svg" viewBox="0 0 120 32"><title>find_a_tax_pro_sml</title><g id="Layer_2" data-name="Layer 2"><g id="Rectangle_1" data-name="Rectangle 1" style="isolation:isolate"><g id="Rectangle_1-2" data-name="Rectangle 1"><rect width="120" height="32" fill="none"/></g></g><g id="Find_a_tax_pro" data-name="Find a tax pro"><path d="M16.71,10.06h6.43v1.78H19v2.65h3.29V16.2H19v3.88H16.71Z" fill="#262626"/><path d="M24,10.65a1.16,1.16,0,1,1,1.15,1.11A1.12,1.12,0,0,1,24,10.65Zm.16,2.1h2v7.33h-2Z" fill="#262626"/><path d="M27.84,12.75h2v1.16a2.52,2.52,0,0,1,2.38-1.33c1.44,0,2.46.87,2.46,2.83v4.67h-2V15.71c0-1-.39-1.48-1.29-1.48a1.45,1.45,0,0,0-1.52,1.62v4.23h-2Z" fill="#262626"/><path d="M35.8,16.52v-.11c0-2.41,1.39-3.83,3.22-3.83a2.43,2.43,0,0,1,2.31,1.26V9.43h2V20.08h-2V18.86A2.65,2.65,0,0,1,39,20.23C37.2,20.23,35.8,19,35.8,16.52Zm5.59-.07v-.11c0-1.46-.64-2.2-1.75-2.2s-1.77.77-1.77,2.22v.12c0,1.45.7,2.17,1.71,2.17S41.39,17.93,41.39,16.45Z" fill="#262626"/><path d="M47.37,18c0-1.7,1.56-2.35,3.81-2.35H52V15.4c0-.87-.26-1.35-1.19-1.35a1.11,1.11,0,0,0-1.25,1H47.65c.12-1.74,1.49-2.51,3.29-2.51S54,13.31,54,15.3v4.78H52v-.89a2.49,2.49,0,0,1-2.21,1C48.49,20.23,47.37,19.59,47.37,18ZM52,17.51V16.9h-.78c-1.18,0-1.87.25-1.87,1,0,.53.33.89,1.07.89C51.32,18.82,52,18.33,52,17.51Z" fill="#262626"/><path d="M58.73,17.91V14.19h-.94V12.75h.94V11.17h2v1.58h1.54v1.44H60.75v3.53c0,.59.29.87.81.87a1.86,1.86,0,0,0,.77-.14V20a3.59,3.59,0,0,1-1.23.2A2.09,2.09,0,0,1,58.73,17.91Z" fill="#262626"/><path d="M63.06,18c0-1.7,1.57-2.35,3.81-2.35h.83V15.4c0-.87-.27-1.35-1.2-1.35a1.1,1.1,0,0,0-1.24,1H63.34c.12-1.74,1.5-2.51,3.29-2.51s3.07.73,3.07,2.72v4.78h-2v-.89a2.48,2.48,0,0,1-2.21,1C64.18,20.23,63.06,19.59,63.06,18Zm4.64-.53V16.9h-.79c-1.18,0-1.86.25-1.86,1,0,.53.32.89,1.06.89C67,18.82,67.7,18.33,67.7,17.51Z" fill="#262626"/><path d="M73.07,16.34l-2.34-3.59h2.33L74.43,15l1.34-2.2h2.1l-2.33,3.43,2.57,3.9H75.77l-1.54-2.47-1.58,2.47H70.56Z" fill="#262626"/><path d="M81.94,12.75h2V13.9a2.71,2.71,0,0,1,2.33-1.32c1.8,0,3.2,1.33,3.2,3.76v.11c0,2.42-1.37,3.78-3.2,3.78A2.55,2.55,0,0,1,84,19v3.61h-2Zm5.51,3.71v-.11c0-1.48-.73-2.21-1.75-2.21s-1.79.74-1.79,2.21v.11c0,1.47.7,2.19,1.8,2.19S87.45,17.89,87.45,16.46Z" fill="#262626"/><path d="M90.65,12.75h2v1.4a2.41,2.41,0,0,1,2.37-1.51v1.89c-1.5,0-2.37.48-2.37,1.88v3.67h-2Z" fill="#262626"/><path d="M95.59,16.49v-.11a3.68,3.68,0,0,1,3.87-3.8,3.64,3.64,0,0,1,3.85,3.76v.11a3.86,3.86,0,0,1-7.72,0Zm5.66,0v-.1c0-1.4-.66-2.24-1.79-2.24s-1.79.82-1.79,2.22v.11c0,1.4.64,2.24,1.79,2.24S101.25,17.85,101.25,16.46Z" fill="#262626"/></g></g></svg>