<svg xmlns="http://www.w3.org/2000/svg" viewBox="0 0 160 600"><title>H212</title><g id="Layer_2" data-name="Layer 2"><g id="Artboard_4" data-name="Artboard 4" style="isolation:isolate"><g id="Open_and_ready_to_get_your_maximum_refund_today." data-name="Open and ready to get your maximum refund today."><path d="M20.71,124.92v-.17c0-4.65,3.51-7.77,8.08-7.77s8.09,2.92,8.09,7.67v.17c0,4.7-3.22,7.9-8.16,7.9S20.71,129.52,20.71,124.92Zm11.6,0v-.17c0-2.71-1.36-4.31-3.52-4.31s-3.51,1.55-3.51,4.33v.17c0,2.78,1.41,4.38,3.53,4.38S32.31,127.62,32.31,124.88Z" fill="#fff"/><path d="M38.36,121.29h3.82V123a4,4,0,0,1,3.48-2c2.61,0,4.73,2,4.73,5.79V127c0,3.85-2.12,5.77-4.75,5.77a3.7,3.7,0,0,1-3.46-1.9v5.38H38.36ZM46.5,127v-.17c0-2-.86-2.9-2.2-2.9s-2.22,1-2.22,2.88v.17c0,1.9.83,2.86,2.22,2.86S46.5,128.79,46.5,127Z" fill="#fff"/><path d="M51.18,127v-.17a5.72,5.72,0,0,1,6-5.86c3.06,0,5.68,1.76,5.68,5.77v1H55a2.23,2.23,0,0,0,2.33,2.32c1.26,0,1.8-.57,1.94-1.32H62.9c-.34,2.52-2.28,3.95-5.66,3.95S51.18,130.67,51.18,127Zm8-1.41c-.07-1.35-.73-2.1-2-2.1a2.14,2.14,0,0,0-2.14,2.1Z" fill="#fff"/><path d="M64.23,121.29h3.82v1.8a4,4,0,0,1,3.68-2.1c2.15,0,3.65,1.35,3.65,4.21v7.26H71.55V126c0-1.26-.49-1.88-1.6-1.88s-1.9.68-1.9,2.12v6.25H64.23Z" fill="#fff"/><path d="M80.48,129.37c0-2.63,2.23-3.66,5.94-3.66h1.07v-.25c0-1.07-.26-1.77-1.47-1.77A1.37,1.37,0,0,0,84.5,125H80.91c.17-2.69,2.29-4,5.34-4s5,1.26,5,4.23v7.24H87.58v-1.3a3.68,3.68,0,0,1-3.31,1.56C82.26,132.72,80.48,131.74,80.48,129.37Zm7-.81v-.69h-1c-1.54,0-2.22.3-2.22,1.22,0,.64.42,1,1.32,1A1.68,1.68,0,0,0,87.49,128.56Z" fill="#fff"/><path d="M93.15,121.29H97v1.8a4,4,0,0,1,3.68-2.1c2.16,0,3.65,1.35,3.65,4.21v7.26h-3.82V126c0-1.26-.49-1.88-1.6-1.88s-1.91.68-1.91,2.12v6.25H93.15Z" fill="#fff"/><path d="M105.61,127v-.17c0-3.81,2.09-5.84,4.74-5.84a3.63,3.63,0,0,1,3.44,1.88v-6.49h3.82v16.08h-3.82v-1.81a3.78,3.78,0,0,1-3.49,2.07C107.72,132.72,105.61,130.86,105.61,127Zm8.28-.07v-.17c0-1.88-.79-2.88-2.2-2.88s-2.2,1-2.2,2.9V127c0,1.88.84,2.84,2.16,2.84S113.89,128.83,113.89,126.93Z" fill="#fff"/><path d="M21.18,156.11H25v2.22A3.53,3.53,0,0,1,28.62,156v3.57c-2.33-.07-3.61.66-3.61,2.46v5.29H21.18Z" fill="#fff"/><path d="M29.3,161.84v-.17a5.72,5.72,0,0,1,6.05-5.86c3,0,5.68,1.75,5.68,5.77v1H33.17a2.22,2.22,0,0,0,2.33,2.33c1.26,0,1.79-.57,1.94-1.32H41c-.34,2.52-2.29,3.95-5.66,3.95S29.3,165.49,29.3,161.84Zm8-1.41c-.06-1.35-.72-2.1-2-2.1a2.13,2.13,0,0,0-2.14,2.1Z" fill="#fff"/><path d="M41.82,164.19c0-2.63,2.22-3.66,5.94-3.66h1.07v-.25c0-1.07-.26-1.78-1.48-1.78a1.38,1.38,0,0,0-1.52,1.33H42.25c.17-2.69,2.28-4,5.34-4s5,1.26,5,4.23v7.24H48.91V166a3.67,3.67,0,0,1-3.31,1.56C43.59,167.54,41.82,166.56,41.82,164.19Zm7-.82v-.68h-1c-1.54,0-2.22.3-2.22,1.22,0,.64.43,1.05,1.32,1.05A1.69,1.69,0,0,0,48.83,163.37Z" fill="#fff"/><path d="M53.93,161.81v-.17c0-3.8,2.09-5.83,4.74-5.83a3.63,3.63,0,0,1,3.44,1.88V151.2h3.83v16.08H62.11v-1.81a3.76,3.76,0,0,1-3.48,2.07C56.05,167.54,53.93,165.68,53.93,161.81Zm8.29-.06v-.17c0-1.88-.79-2.88-2.2-2.88s-2.2,1-2.2,2.9v.17c0,1.88.83,2.84,2.16,2.84S62.22,163.65,62.22,161.75Z" fill="#fff"/><path d="M71.38,166.15l-4.46-10h4.14l2.31,6,2.14-6h3.65l-6,14.91H69.53Z" fill="#fff"/><path d="M84.54,163.69v-5H83.2v-2.61h1.34v-2.33h3.83v2.33h2.2v2.61h-2.2v4.61c0,.81.4,1.18,1.13,1.18a2.86,2.86,0,0,0,1.09-.2v2.91a8,8,0,0,1-2.12.32C86,167.54,84.54,166.32,84.54,163.69Z" fill="#fff"/><path d="M91.42,161.84v-.17c0-3.59,2.67-5.86,6.13-5.86s6.09,2.2,6.09,5.75v.17c0,3.63-2.67,5.81-6.11,5.81S91.42,165.45,91.42,161.84Zm8.33-.07v-.17c0-1.88-.75-2.93-2.2-2.93s-2.22,1-2.22,2.89v.17c0,1.92.75,3,2.22,3S99.75,163.63,99.75,161.77Z" fill="#fff"/><path d="M20.56,202.1h3.81c.17.81.66,1.46,2.05,1.46a2.12,2.12,0,0,0,2.37-2.35V199.5a3.94,3.94,0,0,1-3.46,2.05c-2.61,0-4.75-1.93-4.75-5.36V196c0-3.29,2.12-5.38,4.75-5.38a3.64,3.64,0,0,1,3.46,1.88v-1.58h3.82v10.23c0,3.34-2.2,5.09-6.19,5.09C22.61,206.25,20.86,204.64,20.56,202.1Zm8.33-5.94V196c0-1.53-.79-2.52-2.2-2.52s-2.2,1-2.2,2.55v.17c0,1.53.82,2.52,2.18,2.52S28.89,197.74,28.89,196.16Z" fill="#fff"/><path d="M34,196.66v-.18a5.72,5.72,0,0,1,6-5.85c3.06,0,5.69,1.75,5.69,5.77v1H37.82a2.24,2.24,0,0,0,2.33,2.33c1.26,0,1.8-.58,2-1.32h3.59c-.35,2.52-2.29,4-5.67,4S34,200.31,34,196.66Zm8-1.41c-.07-1.35-.73-2.1-2-2.1a2.12,2.12,0,0,0-2.13,2.1Z" fill="#fff"/><path d="M47.52,198.51v-5H46.18v-2.61h1.34V188.6h3.83v2.33h2.2v2.61h-2.2v4.61c0,.81.4,1.18,1.13,1.18a2.86,2.86,0,0,0,1.09-.2V202a8,8,0,0,1-2.12.32C48.93,202.36,47.52,201.14,47.52,198.51Z" fill="#fff"/><path d="M62.39,201l-4.47-10h4.15l2.31,6,2.13-6h3.66l-6,14.91H60.53Z" fill="#fff"/><path d="M70,196.66v-.18c0-3.58,2.67-5.85,6.13-5.85s6.09,2.2,6.09,5.75v.17c0,3.63-2.67,5.81-6.11,5.81S70,200.27,70,196.66Zm8.33-.07v-.17c0-1.88-.74-2.93-2.2-2.93s-2.22,1-2.22,2.89v.17c0,1.92.75,3,2.22,3S78.28,198.45,78.28,196.59Z" fill="#fff"/><path d="M83.43,198.21v-7.28h3.83v6.67c0,1.26.49,1.88,1.58,1.88s1.9-.69,1.9-2.12v-6.43h3.82V202.1H90.74v-1.73a3.67,3.67,0,0,1-3.55,2C85,202.36,83.43,201,83.43,198.21Z" fill="#fff"/><path d="M96.5,190.93h3.83v2.22a3.53,3.53,0,0,1,3.61-2.37v3.57c-2.33-.07-3.61.66-3.61,2.45v5.3H96.5Z" fill="#fff"/><path d="M21.18,225.75H25v1.71a3.89,3.89,0,0,1,3.5-2,3,3,0,0,1,3,1.86,4.44,4.44,0,0,1,3.7-1.86c2.11,0,3.65,1.37,3.65,4.17v7.3H35.07v-6.66c0-1.14-.56-1.69-1.43-1.69a1.65,1.65,0,0,0-1.71,1.88v6.47H28.15v-6.66c0-1.14-.56-1.69-1.43-1.69A1.65,1.65,0,0,0,25,230.45v6.47H21.18Z" fill="#fff"/><path d="M40.11,233.82c0-2.62,2.22-3.65,5.94-3.65h1.07v-.26c0-1.06-.26-1.77-1.48-1.77a1.37,1.37,0,0,0-1.51,1.33H40.54c.17-2.7,2.28-4,5.34-4s5,1.26,5,4.23v7.24H47.2v-1.3a3.66,3.66,0,0,1-3.31,1.56C41.88,237.18,40.11,236.2,40.11,233.82Zm7-.81v-.68h-1c-1.54,0-2.22.3-2.22,1.22,0,.64.43,1,1.33,1A1.68,1.68,0,0,0,47.12,233Z" fill="#fff"/><path d="M55.6,231.24l-3.48-5.49h4.4l1.73,2.95,1.68-2.95h3.93l-3.52,5.19,3.87,6h-4.4l-2-3.33-2,3.33H51.88Z" fill="#fff"/><path d="M65.19,222.72a2.11,2.11,0,1,1,2.09,2A2,2,0,0,1,65.19,222.72Zm.19,3h3.83v11.17H65.38Z" fill="#fff"/><path d="M71.26,225.75h3.82v1.71a3.9,3.9,0,0,1,3.5-2,3,3,0,0,1,3,1.86,4.43,4.43,0,0,1,3.69-1.86c2.12,0,3.65,1.37,3.65,4.17v7.3H85.14v-6.66c0-1.14-.55-1.69-1.43-1.69A1.65,1.65,0,0,0,82,230.45v6.47H78.22v-6.66c0-1.14-.56-1.69-1.43-1.69a1.65,1.65,0,0,0-1.71,1.88v6.47H71.26Z" fill="#fff"/><path d="M90.74,233v-7.28h3.82v6.66c0,1.26.49,1.88,1.58,1.88s1.9-.68,1.9-2.11v-6.43h3.83v11.17H98v-1.73a3.66,3.66,0,0,1-3.54,2C92.34,237.18,90.74,235.85,90.74,233Z" fill="#fff"/><path d="M103.81,225.75h3.83v1.71a3.89,3.89,0,0,1,3.5-2,3,3,0,0,1,3,1.86,4.44,4.44,0,0,1,3.7-1.86c2.11,0,3.65,1.37,3.65,4.17v7.3H117.7v-6.66c0-1.14-.56-1.69-1.43-1.69a1.65,1.65,0,0,0-1.71,1.88v6.47h-3.78v-6.66c0-1.14-.56-1.69-1.44-1.69a1.65,1.65,0,0,0-1.7,1.88v6.47h-3.83Z" fill="#fff"/><path d="M21.18,260.57H25v2.22a3.51,3.51,0,0,1,3.61-2.37V264c-2.33-.07-3.61.66-3.61,2.45v5.3H21.18Z" fill="#fff"/><path d="M29.3,266.29v-.17a5.71,5.71,0,0,1,6.05-5.85c3,0,5.68,1.75,5.68,5.77v1H33.17a2.23,2.23,0,0,0,2.33,2.33c1.26,0,1.79-.58,1.94-1.33H41c-.34,2.53-2.29,4-5.66,4S29.3,270,29.3,266.29Zm8-1.41c-.06-1.34-.72-2.09-2-2.09a2.12,2.12,0,0,0-2.14,2.09Z" fill="#fff"/><path d="M42.93,263.17H41.52v-2.6h1.41v-1c0-2.77,1.73-4.1,4.38-4.1a6.72,6.72,0,0,1,1.75.24v2.8a3.39,3.39,0,0,0-1.05-.15,1.12,1.12,0,0,0-1.28,1.21v1H49v2.6H46.73v8.57h-3.8Z" fill="#fff"/><path d="M50.19,267.85v-7.28H54v6.66c0,1.26.49,1.88,1.58,1.88s1.9-.68,1.9-2.11v-6.43h3.82v11.17H57.5V270A3.69,3.69,0,0,1,54,272C51.79,272,50.19,270.67,50.19,267.85Z" fill="#fff"/><path d="M63.27,260.57h3.82v1.79a4,4,0,0,1,3.67-2.09c2.16,0,3.66,1.34,3.66,4.21v7.26H70.59v-6.49c0-1.26-.49-1.88-1.6-1.88s-1.9.68-1.9,2.11v6.26H63.27Z" fill="#fff"/><path d="M75.72,266.27v-.17c0-3.8,2.09-5.83,4.74-5.83a3.63,3.63,0,0,1,3.44,1.88v-6.5h3.83v16.09H83.9v-1.82A3.75,3.75,0,0,1,80.42,272C77.84,272,75.72,270.14,75.72,266.27Zm8.29-.06V266c0-1.88-.79-2.89-2.2-2.89s-2.2,1-2.2,2.91v.17c0,1.88.83,2.84,2.16,2.84S84,268.11,84,266.21Z" fill="#fff"/><path d="M21.7,303v-5H20.35v-2.6H21.7v-2.33h3.82v2.33h2.2V298h-2.2v4.62a1,1,0,0,0,1.13,1.17,2.86,2.86,0,0,0,1.09-.19v2.9a8,8,0,0,1-2.11.32C23.11,306.81,21.7,305.6,21.7,303Z" fill="#fff"/><path d="M28.57,301.11v-.17c0-3.59,2.67-5.85,6.14-5.85s6.08,2.2,6.08,5.74V301c0,3.64-2.67,5.81-6.11,5.81S28.57,304.72,28.57,301.11Zm8.34-.06v-.17c0-1.88-.75-2.93-2.2-2.93s-2.23,1-2.23,2.88V301c0,1.93.75,3,2.23,3S36.91,302.91,36.91,301.05Z" fill="#fff"/><path d="M41.58,301.09v-.17c0-3.8,2.1-5.83,4.75-5.83A3.62,3.62,0,0,1,49.77,297v-6.5h3.82v16.09H49.77v-1.82a3.77,3.77,0,0,1-3.49,2.07C43.7,306.81,41.58,305,41.58,301.09Zm8.29-.06v-.18c0-1.87-.79-2.88-2.2-2.88s-2.2,1-2.2,2.91v.17c0,1.88.83,2.84,2.16,2.84S49.87,302.93,49.87,301Z" fill="#fff"/><path d="M54.89,303.46c0-2.63,2.22-3.65,5.94-3.65H61.9v-.26c0-1.07-.26-1.77-1.48-1.77a1.37,1.37,0,0,0-1.51,1.32H55.32c.17-2.69,2.28-4,5.34-4s5,1.26,5,4.23v7.24H62v-1.3a3.66,3.66,0,0,1-3.31,1.55C56.67,306.81,54.89,305.83,54.89,303.46Zm7-.81V302h-1c-1.53,0-2.22.29-2.22,1.21,0,.64.43,1.05,1.33,1.05A1.68,1.68,0,0,0,61.9,302.65Z" fill="#fff"/><path d="M70.68,305.43l-4.47-10h4.15l2.31,6,2.13-6h3.65l-6,14.91H68.82Z" fill="#fff"/><path d="M77.64,304.64a2.13,2.13,0,0,1,2.18-2.16,2.16,2.16,0,1,1,0,4.31A2.13,2.13,0,0,1,77.64,304.64Z" fill="#fff"/></g><g id="Layer_10" data-name="Layer 10"><rect width="160" height="600" fill="none"/></g></g></g></svg>