<svg xmlns="http://www.w3.org/2000/svg" viewBox="0 0 160 600"><title>Asset 18</title><g id="Layer_2" data-name="Layer 2"><g id="Rect"><rect width="160" height="600" fill="none"/></g><g id="Deduction_dedication._Find_the_perfect_tax_pro_for_you." data-name="Deduction dedication. Find the perfect tax pro for you."><path d="M21.52,140.83h5.72c5.59,0,8.43,2.8,8.43,7.68v.18c0,4.91-2.91,7.88-8.45,7.88h-5.7Zm5.56,12.26c2.69,0,3.88-1.41,3.88-4.34v-.17c0-3-1.19-4.27-3.92-4.27h-1v8.78Z" fill="#fff"/><path d="M36.57,151v-.18a5.88,5.88,0,0,1,6.22-6c3.15,0,5.86,1.8,5.86,5.94v1h-8.1a2.3,2.3,0,0,0,2.4,2.39c1.3,0,1.85-.59,2-1.36h3.7c-.36,2.6-2.36,4.07-5.84,4.07S36.57,154.72,36.57,151Zm8.25-1.46c-.07-1.38-.75-2.15-2-2.15a2.19,2.19,0,0,0-2.2,2.15Z" fill="#fff"/><path d="M49.44,150.93v-.17c0-3.92,2.15-6,4.88-6a3.73,3.73,0,0,1,3.54,1.94V140H61.8v16.57H57.86V154.7a3.89,3.89,0,0,1-3.58,2.13C51.61,156.83,49.44,154.92,49.44,150.93Zm8.53-.06v-.18c0-1.94-.81-3-2.26-3s-2.27,1-2.27,3v.18c0,1.94.86,2.93,2.22,2.93S58,152.83,58,150.87Z" fill="#fff"/><path d="M63.71,152.56v-7.5h3.94v6.86c0,1.3.51,1.94,1.63,1.94s2-.7,2-2.18v-6.62h3.94v11.51H71.24v-1.79a3.79,3.79,0,0,1-3.65,2.05C65.36,156.83,63.71,155.47,63.71,152.56Z" fill="#fff"/><path d="M76.56,151v-.18a5.79,5.79,0,0,1,6.14-6c2.82,0,5.41,1.23,5.63,4.73H84.64a1.7,1.7,0,0,0-1.85-1.67c-1.39,0-2.2,1-2.2,2.92v.18c0,2,.77,3,2.26,3a1.93,1.93,0,0,0,2-1.92H88.4c-.11,2.91-2.07,4.8-5.79,4.8C79.18,156.83,76.56,154.83,76.56,151Z" fill="#fff"/><path d="M90.2,152.87v-5.13H88.82v-2.68H90.2v-2.4h3.94v2.4h2.27v2.68H94.14v4.76a1.05,1.05,0,0,0,1.17,1.21,3,3,0,0,0,1.12-.2v3a8.42,8.42,0,0,1-2.18.33C91.65,156.83,90.2,155.58,90.2,152.87Z" fill="#fff"/><path d="M97.81,141.93a2.17,2.17,0,1,1,2.16,2A2.06,2.06,0,0,1,97.81,141.93Zm.2,3.13H102v11.51H98Z" fill="#fff"/><path d="M103.45,151v-.18c0-3.7,2.75-6,6.31-6S116,147,116,150.67v.17c0,3.75-2.75,6-6.29,6S103.45,154.67,103.45,151Zm8.58-.07v-.18c0-1.93-.77-3-2.27-3s-2.29,1-2.29,3v.17c0,2,.77,3.06,2.29,3.06S112,152.8,112,150.89Z" fill="#fff"/><path d="M117.42,145.06h3.93v1.85a4.07,4.07,0,0,1,3.79-2.16c2.22,0,3.76,1.39,3.76,4.33v7.49H125v-6.69c0-1.3-.5-1.94-1.65-1.94s-2,.7-2,2.18v6.45h-3.93Z" fill="#fff"/><path d="M20.59,177.93v-.17c0-3.92,2.16-6,4.89-6A3.73,3.73,0,0,1,29,173.69V167H33v16.57H29V181.7a3.89,3.89,0,0,1-3.59,2.13C22.77,183.83,20.59,181.92,20.59,177.93Zm8.54-.06v-.18c0-1.94-.81-3-2.26-3s-2.27,1-2.27,3v.18c0,1.94.86,2.93,2.22,2.93S29.13,179.83,29.13,177.87Z" fill="#fff"/><path d="M34.34,178v-.18a5.89,5.89,0,0,1,6.23-6c3.15,0,5.85,1.8,5.85,5.94v1H38.33a2.3,2.3,0,0,0,2.4,2.39c1.29,0,1.84-.59,2-1.36h3.69c-.35,2.6-2.35,4.07-5.83,4.07S34.34,181.72,34.34,178Zm8.26-1.46c-.07-1.38-.75-2.15-2-2.15a2.19,2.19,0,0,0-2.2,2.15Z" fill="#fff"/><path d="M47.21,177.93v-.17c0-3.92,2.16-6,4.89-6a3.73,3.73,0,0,1,3.54,1.94V167h3.94v16.57H55.64V181.7a3.89,3.89,0,0,1-3.59,2.13C49.39,183.83,47.21,181.92,47.21,177.93Zm8.54-.06v-.18c0-1.94-.81-3-2.27-3s-2.26,1-2.26,3v.18c0,1.94.86,2.93,2.22,2.93S55.75,179.83,55.75,177.87Z" fill="#fff"/><path d="M61.49,168.93a2.17,2.17,0,1,1,2.16,2A2.06,2.06,0,0,1,61.49,168.93Zm.2,3.13h3.94v11.51H61.69Z" fill="#fff"/><path d="M67.12,178v-.18a5.79,5.79,0,0,1,6.14-6c2.82,0,5.42,1.23,5.64,4.73H75.2a1.7,1.7,0,0,0-1.85-1.67c-1.39,0-2.2,1-2.2,2.92v.18c0,2,.77,3,2.27,3a1.91,1.91,0,0,0,2-1.92H79c-.11,2.91-2.07,4.8-5.79,4.8C69.74,183.83,67.12,181.83,67.12,178Z" fill="#fff"/><path d="M79.64,180.38c0-2.71,2.29-3.77,6.12-3.77h1.1v-.26c0-1.1-.27-1.83-1.52-1.83a1.41,1.41,0,0,0-1.56,1.37h-3.7c.18-2.78,2.36-4.14,5.5-4.14s5.2,1.3,5.2,4.36v7.46H87v-1.35a3.78,3.78,0,0,1-3.41,1.61C81.47,183.83,79.64,182.82,79.64,180.38Zm7.22-.84v-.71h-1c-1.58,0-2.28.31-2.28,1.26,0,.66.44,1.08,1.36,1.08A1.74,1.74,0,0,0,86.86,179.54Z" fill="#fff"/><path d="M93.15,179.87v-5.13H91.76v-2.68h1.39v-2.4h3.94v2.4h2.26v2.68H97.09v4.76a1.05,1.05,0,0,0,1.16,1.21,3.11,3.11,0,0,0,1.13-.2v3a8.42,8.42,0,0,1-2.18.33C94.6,183.83,93.15,182.58,93.15,179.87Z" fill="#fff"/><path d="M100.76,168.93a2.17,2.17,0,1,1,2.16,2A2.06,2.06,0,0,1,100.76,168.93Zm.2,3.13h3.94v11.51H101Z" fill="#fff"/><path d="M106.39,178v-.18c0-3.7,2.75-6,6.32-6S119,174,119,177.67v.17c0,3.75-2.75,6-6.29,6S106.39,181.67,106.39,178Zm8.58-.07v-.18c0-1.93-.77-3-2.26-3s-2.29,1-2.29,3v.17c0,2,.77,3.06,2.29,3.06S115,179.8,115,177.89Z" fill="#fff"/><path d="M120.36,172.06h3.94v1.85a4.07,4.07,0,0,1,3.79-2.16c2.22,0,3.76,1.39,3.76,4.33v7.49h-3.94v-6.69c0-1.3-.51-1.94-1.65-1.94s-2,.7-2,2.18v6.45h-3.94Z" fill="#fff"/><path d="M133.61,181.59a2.19,2.19,0,0,1,2.24-2.23,2.23,2.23,0,1,1,0,4.45A2.19,2.19,0,0,1,133.61,181.59Z" fill="#fff"/><path d="M21.52,194.83H32.15v3.5h-6.1v3.35h4.86V205H26.05v5.57H21.52Z" fill="#fff"/><path d="M33.27,195.93a2.05,2.05,0,0,1,2.15-2,2,2,0,1,1,0,4.07A2,2,0,0,1,33.27,195.93Zm.19,3.13H37.4v11.51H33.46Z" fill="#fff"/><path d="M39.51,199.06h3.94v1.85a4.07,4.07,0,0,1,3.79-2.16c2.22,0,3.76,1.39,3.76,4.33v7.49H47.06v-6.69c0-1.3-.5-1.94-1.65-1.94s-2,.7-2,2.18v6.45H39.51Z" fill="#fff"/><path d="M52.34,204.93v-.17c0-3.92,2.16-6,4.88-6a3.73,3.73,0,0,1,3.55,1.94V194h3.94v16.57H60.77V208.7a3.9,3.9,0,0,1-3.59,2.13C54.52,210.83,52.34,208.92,52.34,204.93Zm8.54-.06v-.18c0-1.94-.82-3-2.27-3s-2.27,1-2.27,3v.18c0,1.94.86,2.93,2.23,2.93S60.88,206.83,60.88,204.87Z" fill="#fff"/><path d="M71.24,206.87v-5.13H69.85v-2.68h1.39v-2.4h3.94v2.4h2.26v2.68H75.18v4.76c0,.83.41,1.21,1.16,1.21a3,3,0,0,0,1.12-.2v3a8.26,8.26,0,0,1-2.17.33C72.69,210.83,71.24,209.58,71.24,206.87Z" fill="#fff"/><path d="M78.94,194h3.94v6.91a4.05,4.05,0,0,1,3.78-2.16c2.22,0,3.76,1.39,3.76,4.33v7.49H86.48v-6.69c0-1.3-.5-1.94-1.65-1.94s-2,.7-2,2.18v6.45H78.94Z" fill="#fff"/><path d="M91.72,205v-.18a5.89,5.89,0,0,1,6.23-6c3.14,0,5.85,1.8,5.85,5.94v1H95.7a2.3,2.3,0,0,0,2.4,2.39c1.3,0,1.85-.59,2-1.36h3.7c-.35,2.6-2.36,4.07-5.83,4.07S91.72,208.72,91.72,205ZM100,203.5c-.07-1.38-.75-2.15-2-2.15a2.18,2.18,0,0,0-2.2,2.15Z" fill="#fff"/><path d="M21.17,226.06H25.1v1.71a4.06,4.06,0,0,1,3.59-2c2.69,0,4.86,2,4.86,6v.18c0,4-2.17,5.94-4.88,5.94a3.8,3.8,0,0,1-3.57-2v5.55H21.17Zm8.38,5.83v-.18c0-2-.88-3-2.27-3s-2.29,1-2.29,3v.18c0,2,.86,2.95,2.29,2.95S29.55,233.78,29.55,231.89Z" fill="#fff"/><path d="M34.37,232v-.18a5.88,5.88,0,0,1,6.22-6c3.15,0,5.86,1.8,5.86,5.94v1h-8.1a2.3,2.3,0,0,0,2.4,2.39c1.29,0,1.85-.59,2-1.36h3.7c-.36,2.6-2.36,4.07-5.84,4.07S34.37,235.72,34.37,232Zm8.25-1.46c-.07-1.38-.75-2.15-2-2.15a2.19,2.19,0,0,0-2.2,2.15Z" fill="#fff"/><path d="M47.81,226.06h3.94v2.29a3.62,3.62,0,0,1,3.71-2.45v3.68c-2.39-.07-3.71.68-3.71,2.53v5.46H47.81Z" fill="#fff"/><path d="M57.71,228.74H56.26v-2.68h1.45v-1c0-2.86,1.78-4.23,4.51-4.23a7.13,7.13,0,0,1,1.8.24V224a3.52,3.52,0,0,0-1.08-.16,1.16,1.16,0,0,0-1.32,1.26v1H64v2.68H61.62v8.83H57.71Z" fill="#fff"/><path d="M64.26,232v-.18a5.89,5.89,0,0,1,6.23-6c3.15,0,5.85,1.8,5.85,5.94v1H68.25a2.29,2.29,0,0,0,2.39,2.39c1.3,0,1.85-.59,2-1.36h3.69c-.35,2.6-2.35,4.07-5.83,4.07S64.26,235.72,64.26,232Zm8.25-1.46c-.06-1.38-.74-2.15-2-2.15a2.19,2.19,0,0,0-2.2,2.15Z" fill="#fff"/><path d="M77.09,232v-.18a5.79,5.79,0,0,1,6.14-6c2.81,0,5.41,1.23,5.63,4.73h-3.7a1.69,1.69,0,0,0-1.84-1.67c-1.39,0-2.2,1-2.2,2.92v.18c0,2,.77,3,2.26,3a1.91,1.91,0,0,0,2-1.92h3.55c-.11,2.91-2.07,4.8-5.79,4.8C79.71,237.83,77.09,235.83,77.09,232Z" fill="#fff"/><path d="M90.73,233.87v-5.13H89.34v-2.68h1.39v-2.4h3.94v2.4h2.26v2.68H94.67v4.76a1.05,1.05,0,0,0,1.16,1.21,3.11,3.11,0,0,0,1.13-.2v3a8.42,8.42,0,0,1-2.18.33C92.18,237.83,90.73,236.58,90.73,233.87Z" fill="#fff"/><path d="M21.69,260.87v-5.13H20.31v-2.68h1.38v-2.4h3.94v2.4H27.9v2.68H25.63v4.76a1.05,1.05,0,0,0,1.17,1.21,3,3,0,0,0,1.12-.2v3a8.28,8.28,0,0,1-2.18.33C23.15,264.83,21.69,263.58,21.69,260.87Z" fill="#fff"/><path d="M28.78,261.38c0-2.71,2.29-3.77,6.11-3.77H36v-.26c0-1.1-.27-1.83-1.52-1.83a1.42,1.42,0,0,0-1.57,1.37H29.22c.17-2.78,2.35-4.14,5.5-4.14s5.19,1.3,5.19,4.36v7.46H36.08v-1.35a3.77,3.77,0,0,1-3.41,1.61C30.6,264.83,28.78,263.82,28.78,261.38Zm7.22-.84v-.71H35c-1.58,0-2.29.31-2.29,1.26,0,.66.44,1.08,1.37,1.08A1.74,1.74,0,0,0,36,260.54Z" fill="#fff"/><path d="M44.73,258.71l-3.59-5.65h4.53l1.79,3,1.73-3h4.05l-3.63,5.34,4,6.17H49.06l-2-3.44-2.09,3.44h-4Z" fill="#fff"/><path d="M58.7,253.06h3.94v1.71a4,4,0,0,1,3.58-2c2.69,0,4.86,2,4.86,6v.18c0,4-2.17,5.94-4.88,5.94a3.78,3.78,0,0,1-3.56-2v5.55H58.7Zm8.38,5.83v-.18c0-2-.88-3-2.27-3s-2.28,1-2.28,3v.18c0,2,.85,2.95,2.28,2.95S67.08,260.78,67.08,258.89Z" fill="#fff"/><path d="M72.51,253.06h3.94v2.29a3.64,3.64,0,0,1,3.72-2.45v3.68c-2.4-.07-3.72.68-3.72,2.53v5.46H72.51Z" fill="#fff"/><path d="M80.87,259v-.18c0-3.7,2.75-6,6.32-6s6.27,2.27,6.27,5.92v.17c0,3.75-2.75,6-6.29,6S80.87,262.67,80.87,259Zm8.58-.07v-.18c0-1.93-.77-3-2.26-3s-2.29,1-2.29,3v.17c0,2,.77,3.06,2.29,3.06S89.45,260.8,89.45,258.89Z" fill="#fff"/><path d="M21.76,282.74H20.31v-2.68h1.45v-1c0-2.86,1.78-4.23,4.51-4.23a7.15,7.15,0,0,1,1.81.24V278a3.57,3.57,0,0,0-1.08-.16,1.16,1.16,0,0,0-1.32,1.26v1H28v2.68H25.68v8.83H21.76Z" fill="#fff"/><path d="M28.32,286v-.18c0-3.7,2.75-6,6.31-6s6.27,2.27,6.27,5.92v.17c0,3.75-2.75,6-6.29,6S28.32,289.67,28.32,286Zm8.58-.07v-.18c0-1.93-.77-3-2.27-3s-2.29,1-2.29,3v.17c0,2,.77,3.06,2.29,3.06S36.9,287.8,36.9,285.89Z" fill="#fff"/><path d="M42.29,280.06h3.93v2.29a3.64,3.64,0,0,1,3.72-2.45v3.68c-2.4-.07-3.72.68-3.72,2.53v5.46H42.29Z" fill="#fff"/><path d="M59,290.4l-4.59-10.34h4.26L61,286.2l2.2-6.14H67l-6.16,15.36H57.07Z" fill="#fff"/><path d="M66.77,286v-.18c0-3.7,2.75-6,6.32-6s6.27,2.27,6.27,5.92v.17c0,3.75-2.75,6-6.3,6S66.77,289.67,66.77,286Zm8.58-.07v-.18c0-1.93-.77-3-2.26-3s-2.29,1-2.29,3v.17c0,2,.77,3.06,2.29,3.06S75.35,287.8,75.35,285.89Z" fill="#fff"/><path d="M80.65,287.56v-7.5h3.94v6.86c0,1.3.51,1.94,1.63,1.94s2-.7,2-2.18v-6.62h3.94v11.51H88.18v-1.79a3.79,3.79,0,0,1-3.65,2.05C82.3,291.83,80.65,290.47,80.65,287.56Z" fill="#fff"/><path d="M94,289.59a2.2,2.2,0,0,1,2.25-2.23,2.23,2.23,0,1,1,0,4.45A2.2,2.2,0,0,1,94,289.59Z" fill="#fff"/></g></g></svg>