<svg xmlns="http://www.w3.org/2000/svg" viewBox="0 0 728 90"><title>Asset 4</title><g id="Layer_2" data-name="Layer 2"><g id="Rect"><rect width="728" height="90" fill="none"/></g><g id="Tired_of_TurboTax_Switch_to_Block_in_seconds." data-name="Tired of TurboTax? Switch to Block in seconds."><path d="M126.8,20.46h-6.11V15.25h19v5.21h-6.1V38.85h-6.8Z" fill="#fff"/><path d="M141.19,16.9a3.08,3.08,0,0,1,3.23-3.07,3.06,3.06,0,1,1,0,6.11A3.06,3.06,0,0,1,141.19,16.9Zm.29,4.69h5.91V38.85h-5.91Z" fill="#fff"/><path d="M150.56,21.59h5.91V25A5.43,5.43,0,0,1,162,21.36v5.51c-3.59-.1-5.57,1-5.57,3.79v8.19h-5.91Z" fill="#fff"/><path d="M163.1,30.43v-.26c0-5.55,4.12-9,9.34-9,4.72,0,8.78,2.71,8.78,8.92v1.55H169.07c.17,2.27,1.49,3.6,3.6,3.6,2,0,2.77-.9,3-2h5.55c-.53,3.89-3.53,6.1-8.75,6.1C167.06,39.24,163.1,36.08,163.1,30.43Zm12.38-2.18c-.1-2.08-1.13-3.23-3-3.23s-3,1.15-3.3,3.23Z" fill="#fff"/><path d="M182.4,30.4v-.26c0-5.88,3.24-9,7.33-9A5.59,5.59,0,0,1,195,24V14H201V38.85H195V36a5.79,5.79,0,0,1-5.38,3.2C185.67,39.24,182.4,36.37,182.4,30.4Zm12.81-.1V30c0-2.91-1.22-4.46-3.4-4.46s-3.4,1.49-3.4,4.49v.26c0,2.91,1.29,4.39,3.33,4.39S195.21,33.24,195.21,30.3Z" fill="#fff"/><path d="M209,30.43v-.26c0-5.55,4.13-9,9.48-9s9.4,3.4,9.4,8.88v.27c0,5.61-4.12,9-9.44,9S209,36,209,30.43Zm12.88-.1v-.26c0-2.9-1.16-4.52-3.4-4.52s-3.44,1.55-3.44,4.45v.27c0,3,1.16,4.58,3.44,4.58S221.91,33.21,221.91,30.33Z" fill="#fff"/><path d="M230.88,25.61H228.7v-4h2.18V20.07c0-4.29,2.67-6.34,6.77-6.34a10.41,10.41,0,0,1,2.7.37v4.32a5.47,5.47,0,0,0-1.62-.23,1.74,1.74,0,0,0-2,1.88v1.52h3.5v4h-3.5V38.85h-5.87Z" fill="#fff"/><path d="M253.29,20.46h-6.11V15.25h19v5.21h-6.1V38.85h-6.8Z" fill="#fff"/><path d="M266.72,32.84V21.59h5.9V31.88c0,1.95.76,2.91,2.45,2.91S278,33.73,278,31.52V21.59h5.91V38.85H278V36.18a5.65,5.65,0,0,1-5.47,3.06C269.19,39.24,266.72,37.2,266.72,32.84Z" fill="#fff"/><path d="M286.91,21.59h5.91V25a5.44,5.44,0,0,1,5.58-3.66v5.51c-3.6-.1-5.58,1-5.58,3.79v8.19h-5.91Z" fill="#fff"/><path d="M306.45,36.18v2.67h-5.91V14h5.91V24.16a6.09,6.09,0,0,1,5.38-3c4,0,7.29,3,7.29,9v.26c0,5.94-3.26,8.91-7.32,8.91A5.6,5.6,0,0,1,306.45,36.18Zm6.67-5.85v-.26c0-3-1.32-4.49-3.4-4.49s-3.44,1.55-3.44,4.46v.26c0,2.94,1.29,4.42,3.44,4.42S313.12,33.17,313.12,30.33Z" fill="#fff"/><path d="M320.34,30.43v-.26c0-5.55,4.13-9,9.47-9s9.41,3.4,9.41,8.88v.27c0,5.61-4.13,9-9.44,9S320.34,36,320.34,30.43Zm12.87-.1v-.26c0-2.9-1.15-4.52-3.4-4.52s-3.43,1.55-3.43,4.45v.27c0,3,1.16,4.58,3.43,4.58S333.21,33.21,333.21,30.33Z" fill="#fff"/><path d="M346.35,20.46h-6.11V15.25h19v5.21h-6.11V38.85h-6.79Z" fill="#fff"/><path d="M358.06,34.06c0-4.06,3.43-5.64,9.18-5.64h1.65V28c0-1.65-.4-2.74-2.28-2.74a2.13,2.13,0,0,0-2.35,2h-5.54c.26-4.16,3.53-6.21,8.25-6.21s7.79,1.95,7.79,6.54V38.85H369v-2a5.69,5.69,0,0,1-5.12,2.4C360.8,39.24,358.06,37.73,358.06,34.06Zm10.83-1.25V31.75h-1.56c-2.37,0-3.43.46-3.43,1.88,0,1,.66,1.62,2.05,1.62C367.63,35.25,368.89,34.29,368.89,32.81Z" fill="#fff"/><path d="M382,30.07l-5.38-8.48h6.79l2.68,4.55,2.61-4.55h6.07l-5.45,8,6,9.24h-6.8l-3.07-5.15-3.14,5.15h-6Z" fill="#fff"/><path d="M400.53,30.47c0-2.51,1.72-4.1,3.24-5.55,1.12-1.09,2.14-2.08,2.14-3.23a1.76,1.76,0,0,0-2-2c-1.42,0-2.38,1.08-2.61,2.9h-5.74c.16-5,3.73-7.69,8.81-7.69s7.95,2.28,7.95,6.2a6.75,6.75,0,0,1-2.4,5c-1.62,1.61-3.5,2.9-3.8,4.52v.49h-5.58Zm-.76,5.47a3.54,3.54,0,0,1,7.06,0,3.54,3.54,0,0,1-7.06,0Z" fill="#fff"/><path d="M120.76,66.36h6.43c.17,1.68.93,3.07,3.73,3.07,2,0,3-1,3-2.35s-.89-1.85-3.73-2.27c-6.67-.8-8.91-2.78-8.91-7.53,0-4.26,3.5-7.36,9.14-7.36s8.88,2.38,9.31,7.36H133.5a2.68,2.68,0,0,0-3-2.54c-1.81,0-2.74.82-2.74,2s.73,1.92,3.67,2.31c6,.66,9,2.21,9,7.33,0,4.32-3.43,7.86-9.51,7.86C124.32,74.25,121,71.47,120.76,66.36Z" fill="#fff"/><path d="M140.92,56.59h6.17l2.51,10.33,2.91-10.33h4.75l2.57,10.33,2.81-10.33h5.61l-5.48,17.26h-5.64l-2.58-9.64-2.67,9.64h-5.74Z" fill="#fff"/><path d="M169.63,51.9a3.26,3.26,0,1,1,3.24,3A3.09,3.09,0,0,1,169.63,51.9Zm.3,4.69h5.91V73.85h-5.91Z" fill="#fff"/><path d="M179.8,68.3V60.61h-2.08v-4h2.08V53h5.9v3.6h3.4v4h-3.4v7.13c0,1.26.63,1.82,1.75,1.82a4.5,4.5,0,0,0,1.69-.3v4.49a12.36,12.36,0,0,1-3.27.5C182,74.25,179.8,72.36,179.8,68.3Z" fill="#fff"/><path d="M190.42,65.43v-.26c0-5.74,4.13-9.05,9.21-9.05,4.22,0,8.12,1.85,8.45,7.1h-5.55c-.26-1.62-1.05-2.51-2.77-2.51-2.08,0-3.3,1.49-3.3,4.39v.27c0,3,1.16,4.55,3.4,4.55a2.87,2.87,0,0,0,3-2.87h5.32c-.17,4.36-3.1,7.2-8.68,7.2C194.35,74.25,190.42,71.24,190.42,65.43Z" fill="#fff"/><path d="M210.09,49H216V59.36a6.09,6.09,0,0,1,5.67-3.24c3.34,0,5.65,2.08,5.65,6.51V73.85h-5.91v-10c0-2-.76-2.91-2.48-2.91S216,62,216,64.18v9.67h-5.91Z" fill="#fff"/><path d="M237,68.3V60.61H234.9v-4H237V53h5.91v3.6h3.4v4h-3.4v7.13c0,1.26.63,1.82,1.75,1.82a4.42,4.42,0,0,0,1.68-.3v4.49a12.27,12.27,0,0,1-3.26.5C239.16,74.25,237,72.36,237,68.3Z" fill="#fff"/><path d="M247.61,65.43v-.26c0-5.55,4.12-9.05,9.47-9.05s9.41,3.4,9.41,8.88v.27c0,5.61-4.13,9-9.44,9S247.61,71,247.61,65.43Zm12.87-.1v-.26c0-2.9-1.15-4.52-3.4-4.52s-3.43,1.55-3.43,4.45v.27c0,3,1.15,4.59,3.43,4.59S260.48,68.21,260.48,65.33Z" fill="#fff"/><path d="M275.1,50.25h10.53c5.57,0,7.95,2.51,7.95,6.17v.13a4.87,4.87,0,0,1-4,5.09c2.9.49,4.72,2.24,4.72,5.51v.13c0,4.22-2.74,6.57-8.58,6.57H275.1Zm9.17,9.37c2.12,0,2.91-.72,2.91-2.41v-.13c0-1.62-.86-2.34-2.91-2.34H281.7v4.88Zm.23,9.71c2.15,0,3.14-1,3.14-2.74v-.13c0-1.79-1-2.71-3.33-2.71H281.7v5.58Z" fill="#fff"/><path d="M296.65,49h5.87V73.85h-5.87Z" fill="#fff"/><path d="M304.76,65.43v-.26c0-5.55,4.13-9.05,9.48-9.05s9.4,3.4,9.4,8.88v.27c0,5.61-4.12,9-9.44,9S304.76,71,304.76,65.43Zm12.88-.1v-.26c0-2.9-1.16-4.52-3.4-4.52S310.8,62.1,310.8,65v.27c0,3,1.16,4.59,3.44,4.59S317.64,68.21,317.64,65.33Z" fill="#fff"/><path d="M324.79,65.43v-.26c0-5.74,4.13-9.05,9.21-9.05,4.23,0,8.12,1.85,8.45,7.1h-5.54c-.27-1.62-1.06-2.51-2.77-2.51-2.08,0-3.31,1.49-3.31,4.39v.27c0,3,1.16,4.55,3.4,4.55a2.88,2.88,0,0,0,3-2.87h5.31c-.16,4.36-3.1,7.2-8.68,7.2C328.72,74.25,324.79,71.24,324.79,65.43Z" fill="#fff"/><path d="M344.46,49h5.91V63.42L355,56.59h6.14l-5.64,7.75,6.1,9.51H355l-4.65-7.56v7.56h-5.91Z" fill="#fff"/><path d="M368.88,51.9a3.26,3.26,0,1,1,3.24,3A3.09,3.09,0,0,1,368.88,51.9Zm.3,4.69h5.91V73.85h-5.91Z" fill="#fff"/><path d="M378.25,56.59h5.91v2.77a6.11,6.11,0,0,1,5.68-3.24c3.33,0,5.64,2.08,5.64,6.51V73.85h-5.9v-10c0-2-.76-2.91-2.48-2.91s-2.94,1.06-2.94,3.27v9.67h-5.91Z" fill="#fff"/><path d="M403.2,68.37h5.45c.2,1.25.76,1.95,2.44,1.95,1.45,0,2.11-.56,2.11-1.42s-.82-1.22-3.2-1.55c-4.62-.6-6.57-1.95-6.57-5.55,0-3.83,3.4-5.68,7.4-5.68,4.25,0,7.22,1.46,7.62,5.58H413.1A1.92,1.92,0,0,0,410.89,60c-1.29,0-1.95.56-1.95,1.35s.8,1.16,2.91,1.42c4.78.59,7.09,1.85,7.09,5.54,0,4.1-3,6-7.82,6S403.33,72.2,403.2,68.37Z" fill="#fff"/><path d="M420,65.43v-.26c0-5.55,4.13-9.05,9.34-9.05,4.72,0,8.78,2.71,8.78,8.92v1.55H426c.17,2.28,1.49,3.6,3.6,3.6,1.95,0,2.78-.9,3-2h5.54c-.53,3.89-3.53,6.11-8.75,6.11C424,74.25,420,71.08,420,65.43Zm12.38-2.18c-.1-2.08-1.12-3.23-3-3.23s-3,1.15-3.3,3.23Z" fill="#fff"/><path d="M439.27,65.43v-.26c0-5.74,4.13-9.05,9.21-9.05,4.22,0,8.12,1.85,8.45,7.1h-5.55c-.26-1.62-1.05-2.51-2.77-2.51-2.08,0-3.3,1.49-3.3,4.39v.27c0,3,1.15,4.55,3.4,4.55a2.87,2.87,0,0,0,3-2.87H457c-.17,4.36-3.11,7.2-8.68,7.2C443.2,74.25,439.27,71.24,439.27,65.43Z" fill="#fff"/><path d="M458,65.43v-.26c0-5.55,4.13-9.05,9.48-9.05s9.4,3.4,9.4,8.88v.27c0,5.61-4.12,9-9.44,9S458,71,458,65.43Zm12.88-.1v-.26c0-2.9-1.16-4.52-3.4-4.52s-3.44,1.55-3.44,4.45v.27c0,3,1.16,4.59,3.44,4.59S470.89,68.21,470.89,65.33Z" fill="#fff"/><path d="M479,56.59h5.91v2.77a6.09,6.09,0,0,1,5.67-3.24c3.34,0,5.65,2.08,5.65,6.51V73.85h-5.91v-10c0-2-.76-2.91-2.48-2.91s-2.93,1.06-2.93,3.27v9.67H479Z" fill="#fff"/><path d="M498.21,65.4v-.26c0-5.88,3.23-9,7.32-9A5.6,5.6,0,0,1,510.85,59V49h5.91V73.85h-5.91V71a5.81,5.81,0,0,1-5.38,3.21C501.47,74.25,498.21,71.37,498.21,65.4Zm12.8-.1V65c0-2.91-1.22-4.46-3.4-4.46s-3.4,1.49-3.4,4.49v.26c0,2.91,1.29,4.39,3.34,4.39S511,68.24,511,65.3Z" fill="#fff"/><path d="M518.6,68.37h5.45c.2,1.25.76,1.95,2.44,1.95,1.45,0,2.11-.56,2.11-1.42s-.82-1.22-3.2-1.55c-4.62-.6-6.57-1.95-6.57-5.55,0-3.83,3.4-5.68,7.4-5.68,4.25,0,7.22,1.46,7.62,5.58H528.5A1.93,1.93,0,0,0,526.29,60c-1.29,0-1.95.56-1.95,1.35s.8,1.16,2.91,1.42c4.78.59,7.09,1.85,7.09,5.54,0,4.1-3,6-7.82,6S518.73,72.2,518.6,68.37Z" fill="#fff"/><path d="M536,70.88a3.29,3.29,0,0,1,3.36-3.34,3.34,3.34,0,1,1,0,6.67A3.28,3.28,0,0,1,536,70.88Z" fill="#fff"/></g></g></svg>