<svg xmlns="http://www.w3.org/2000/svg" viewBox="0 0 300 250"><title>H155</title><g id="Layer_2" data-name="Layer 2"><g id="Rect"><rect width="300" height="250" fill="none"/></g><g id="Block_costs_less_on_average_than_other_area_tax_preparers." data-name="Block costs less on average than other area tax preparers."><path d="M21,42.66h4.71c2.49,0,3.55,1.12,3.55,2.76v.06a2.17,2.17,0,0,1-1.78,2.27,2.31,2.31,0,0,1,2.11,2.47v.06c0,1.89-1.23,2.93-3.84,2.93H21Zm4.1,4.19c.94,0,1.3-.32,1.3-1.07v-.06c0-.73-.39-1-1.3-1H24v2.18Zm.1,4.34c1,0,1.4-.44,1.4-1.22v-.06c0-.8-.42-1.21-1.49-1.21H24v2.49Z" fill="#14aa40"/><path d="M30.65,42.1h2.63V53.21H30.65Z" fill="#14aa40"/><path d="M34.28,49.45v-.12a4,4,0,0,1,4.23-4,3.91,3.91,0,0,1,4.21,4v.12a3.92,3.92,0,0,1-4.22,4C36.12,53.39,34.28,51.94,34.28,49.45Zm5.75,0v-.12c0-1.3-.51-2-1.52-2S37,48,37,49.26v.12c0,1.32.51,2,1.53,2S40,50.69,40,49.41Z" fill="#14aa40"/><path d="M43.23,49.45v-.12a3.89,3.89,0,0,1,4.12-4c1.89,0,3.63.83,3.77,3.17H48.65a1.15,1.15,0,0,0-1.24-1.12c-.93,0-1.48.66-1.48,2v.12c0,1.34.52,2,1.52,2a1.28,1.28,0,0,0,1.34-1.29h2.38c-.07,1.95-1.39,3.22-3.88,3.22A3.73,3.73,0,0,1,43.23,49.45Z" fill="#14aa40"/><path d="M52,42.1h2.64v6.45l2.08-3h2.75L57,49l2.73,4.25H56.74l-2.08-3.38v3.38H52Z" fill="#14aa40"/><path d="M62.58,49.45v-.12a3.89,3.89,0,0,1,4.12-4c1.89,0,3.63.83,3.78,3.17H68a1.14,1.14,0,0,0-1.24-1.12c-.93,0-1.48.66-1.48,2v.12c0,1.34.52,2,1.52,2a1.3,1.3,0,0,0,1.35-1.29h2.37c-.07,1.95-1.39,3.22-3.88,3.22A3.73,3.73,0,0,1,62.58,49.45Z" fill="#14aa40"/><path d="M71,49.45v-.12a4,4,0,0,1,4.24-4,3.91,3.91,0,0,1,4.2,4v.12a3.91,3.91,0,0,1-4.22,4C72.8,53.39,71,51.94,71,49.45Zm5.75,0v-.12c0-1.3-.51-2-1.51-2s-1.54.69-1.54,2v.12c0,1.32.52,2,1.54,2S76.71,50.69,76.71,49.41Z" fill="#14aa40"/><path d="M79.85,50.76h2.44c.09.56.34.87,1.09.87s1-.25,1-.63-.37-.55-1.44-.69C80.83,50,80,49.44,80,47.83s1.52-2.54,3.3-2.54,3.23.65,3.41,2.49H84.28a.86.86,0,0,0-1-.76c-.57,0-.87.25-.87.6s.36.52,1.3.64c2.14.26,3.17.82,3.17,2.47,0,1.83-1.35,2.66-3.49,2.66S79.91,52.48,79.85,50.76Z" fill="#14aa40"/><path d="M88.1,50.73V47.3h-.93V45.5h.93V43.89h2.64V45.5h1.52v1.8H90.74v3.18c0,.56.28.81.78.81a2,2,0,0,0,.76-.13v2a5.57,5.57,0,0,1-1.47.22A2.38,2.38,0,0,1,88.1,50.73Z" fill="#14aa40"/><path d="M92.85,50.76h2.43c.09.56.34.87,1.1.87s.94-.25.94-.63-.37-.55-1.43-.69C93.82,50,93,49.44,93,47.83s1.52-2.54,3.31-2.54,3.23.65,3.41,2.49H97.28a.87.87,0,0,0-1-.76c-.58,0-.87.25-.87.6s.35.52,1.29.64c2.14.26,3.18.82,3.18,2.47,0,1.83-1.36,2.66-3.5,2.66S92.91,52.48,92.85,50.76Z" fill="#14aa40"/><path d="M20.86,58.85h2.62V70H20.86Z" fill="#14aa40"/><path d="M24.48,66.2v-.12a4,4,0,0,1,4.18-4,3.66,3.66,0,0,1,3.92,4v.7H27.15a1.55,1.55,0,0,0,1.61,1.61c.87,0,1.24-.4,1.35-.92h2.47c-.23,1.74-1.57,2.73-3.91,2.73S24.48,68.72,24.48,66.2Zm5.54-1c-.05-.93-.5-1.45-1.36-1.45a1.48,1.48,0,0,0-1.48,1.45Z" fill="#14aa40"/><path d="M33.05,67.51h2.44c.09.56.34.87,1.09.87s.94-.25.94-.63-.36-.55-1.43-.69c-2.06-.27-2.93-.87-2.93-2.48S34.68,62,36.46,62s3.23.65,3.41,2.49H37.48a.86.86,0,0,0-1-.76c-.57,0-.87.25-.87.6s.36.52,1.3.64c2.14.26,3.17.82,3.17,2.47,0,1.83-1.36,2.66-3.5,2.66S33.11,69.23,33.05,67.51Z" fill="#14aa40"/><path d="M40.47,67.51h2.44c.09.56.34.87,1.09.87s.94-.25.94-.63-.37-.55-1.43-.69c-2.06-.27-2.93-.87-2.93-2.48S42.1,62,43.88,62s3.23.65,3.41,2.49H44.9a.86.86,0,0,0-1-.76c-.58,0-.87.25-.87.6s.35.52,1.3.64c2.14.26,3.17.82,3.17,2.47,0,1.83-1.36,2.66-3.5,2.66S40.53,69.23,40.47,67.51Z" fill="#14aa40"/><path d="M50.64,66.2v-.12a4,4,0,0,1,4.23-4,3.91,3.91,0,0,1,4.21,4v.12a3.92,3.92,0,0,1-4.23,4C52.48,70.14,50.64,68.69,50.64,66.2Zm5.75,0V66c0-1.3-.52-2-1.52-2s-1.53.69-1.53,2v.12c0,1.32.51,2.05,1.53,2.05S56.39,67.44,56.39,66.16Z" fill="#14aa40"/><path d="M60,62.25h2.64v1.24A2.74,2.74,0,0,1,65.18,62C66.67,62,67.7,63,67.7,65v5H65.06V65.48c0-.87-.34-1.3-1.1-1.3s-1.32.47-1.32,1.46V70H60Z" fill="#14aa40"/><path d="M71.23,67.82c0-1.81,1.53-2.52,4.1-2.52h.74v-.18c0-.73-.18-1.22-1-1.22a1,1,0,0,0-1,.91H71.52C71.64,63,73.1,62,75.21,62s3.48.87,3.48,2.92v5H76.12v-.9a2.51,2.51,0,0,1-2.28,1.08C72.45,70.14,71.23,69.46,71.23,67.82Zm4.84-.56v-.47h-.7c-1.06,0-1.53.21-1.53.84,0,.44.29.72.91.72S76.07,67.93,76.07,67.26Z" fill="#14aa40"/><path d="M79.09,62.25h2.82l1.6,5,1.58-5h2.53L84.8,70H81.92Z" fill="#14aa40"/><path d="M87.45,66.2v-.12a3.94,3.94,0,0,1,4.18-4,3.66,3.66,0,0,1,3.92,4v.7H90.12a1.55,1.55,0,0,0,1.61,1.61c.87,0,1.24-.4,1.34-.92h2.48c-.24,1.74-1.58,2.73-3.91,2.73S87.45,68.72,87.45,66.2Zm5.53-1c0-.93-.5-1.45-1.35-1.45a1.47,1.47,0,0,0-1.48,1.45Z" fill="#14aa40"/><path d="M96.46,62.25H99.1v1.53a2.45,2.45,0,0,1,2.5-1.64v2.47c-1.61,0-2.5.45-2.5,1.69V70H96.46Z" fill="#14aa40"/><path d="M101.93,67.82c0-1.81,1.54-2.52,4.11-2.52h.73v-.18c0-.73-.17-1.22-1-1.22a1,1,0,0,0-1.05.91h-2.48c.12-1.86,1.58-2.77,3.69-2.77s3.48.87,3.48,2.92v5h-2.57v-.9a2.52,2.52,0,0,1-2.28,1.08C103.16,70.14,101.93,69.46,101.93,67.82Zm4.84-.56v-.47h-.69c-1.06,0-1.53.21-1.53.84,0,.44.29.72.91.72S106.77,67.93,106.77,67.26Z" fill="#14aa40"/><path d="M110.25,70h2.63c.12.56.46,1,1.42,1a1.46,1.46,0,0,0,1.63-1.63V68.16a2.7,2.7,0,0,1-2.39,1.42c-1.8,0-3.27-1.33-3.27-3.7v-.12c0-2.27,1.46-3.72,3.27-3.72a2.51,2.51,0,0,1,2.39,1.3V62.25h2.65v7.06c0,2.31-1.52,3.52-4.28,3.52S110.46,71.72,110.25,70Zm5.76-4.1v-.1c0-1.06-.55-1.74-1.52-1.74s-1.52.69-1.52,1.75v.12c0,1.06.56,1.74,1.5,1.74S116,67,116,65.86Z" fill="#14aa40"/><path d="M119.5,66.2v-.12a4,4,0,0,1,4.18-4,3.66,3.66,0,0,1,3.92,4v.7h-5.43a1.55,1.55,0,0,0,1.61,1.61c.87,0,1.24-.4,1.34-.92h2.48c-.23,1.74-1.58,2.73-3.91,2.73S119.5,68.72,119.5,66.2Zm5.54-1c-.05-.93-.51-1.45-1.36-1.45a1.47,1.47,0,0,0-1.48,1.45Z" fill="#14aa40"/><path d="M21.14,84.23V80.8h-.93V79h.93V77.39h2.64V79H25.3v1.8H23.78V84c0,.56.28.81.78.81a2,2,0,0,0,.75-.13v2a5.48,5.48,0,0,1-1.46.22A2.38,2.38,0,0,1,21.14,84.23Z" fill="#14aa40"/><path d="M26.3,75.6h2.64v4.64a2.71,2.71,0,0,1,2.54-1.45c1.49,0,2.52.93,2.52,2.91v5H31.36V82.23c0-.87-.34-1.3-1.11-1.3s-1.31.47-1.31,1.46v4.32H26.3Z" fill="#14aa40"/><path d="M34.84,84.57c0-1.81,1.53-2.52,4.1-2.52h.74v-.18c0-.73-.18-1.22-1-1.22a1,1,0,0,0-1,.91H35.13c.12-1.86,1.58-2.77,3.69-2.77s3.48.87,3.48,2.92v5H39.74v-.9a2.54,2.54,0,0,1-2.29,1.08C36.06,86.89,34.84,86.21,34.84,84.57ZM39.68,84v-.47H39c-1.06,0-1.53.21-1.53.84,0,.44.3.72.91.72S39.68,84.68,39.68,84Z" fill="#14aa40"/><path d="M43.58,79h2.65v1.24a2.71,2.71,0,0,1,2.53-1.45c1.49,0,2.53.93,2.53,2.91v5H48.65V82.23c0-.87-.34-1.3-1.11-1.3s-1.31.47-1.31,1.46v4.32H43.58Z" fill="#14aa40"/><path d="M54.84,83v-.12a4,4,0,0,1,4.23-4,3.91,3.91,0,0,1,4.21,4v.12a3.92,3.92,0,0,1-4.22,4C56.68,86.89,54.84,85.44,54.84,83Zm5.75,0v-.12c0-1.3-.51-2-1.52-2s-1.53.69-1.53,2v.12c0,1.32.52,2.05,1.53,2.05S60.59,84.19,60.59,82.91Z" fill="#14aa40"/><path d="M64.56,84.23V80.8h-.93V79h.93V77.39H67.2V79h1.52v1.8H67.2V84c0,.56.28.81.78.81a2,2,0,0,0,.76-.13v2a5.57,5.57,0,0,1-1.47.22A2.38,2.38,0,0,1,64.56,84.23Z" fill="#14aa40"/><path d="M69.72,75.6h2.64v4.64a2.74,2.74,0,0,1,2.54-1.45c1.49,0,2.52.93,2.52,2.91v5H74.78V82.23c0-.87-.34-1.3-1.1-1.3s-1.32.47-1.32,1.46v4.32H69.72Z" fill="#14aa40"/><path d="M78.29,83v-.12a4,4,0,0,1,4.18-4,3.66,3.66,0,0,1,3.92,4v.7H81a1.55,1.55,0,0,0,1.61,1.61c.87,0,1.24-.4,1.34-.92h2.48c-.23,1.74-1.58,2.73-3.91,2.73S78.29,85.47,78.29,83Zm5.53-1c0-.93-.5-1.45-1.35-1.45A1.47,1.47,0,0,0,81,82Z" fill="#14aa40"/><path d="M87.3,79h2.64v1.53a2.45,2.45,0,0,1,2.5-1.64v2.47c-1.61,0-2.5.45-2.5,1.69v3.66H87.3Z" fill="#14aa40"/><path d="M95.64,84.57c0-1.81,1.53-2.52,4.1-2.52h.74v-.18c0-.73-.18-1.22-1-1.22a1,1,0,0,0-1,.91H95.93c.12-1.86,1.58-2.77,3.69-2.77s3.48.87,3.48,2.92v5h-2.56v-.9a2.54,2.54,0,0,1-2.29,1.08C96.86,86.89,95.64,86.21,95.64,84.57Zm4.84-.56v-.47h-.7c-1.06,0-1.53.21-1.53.84,0,.44.29.72.91.72S100.48,84.68,100.48,84Z" fill="#14aa40"/><path d="M104.38,79H107v1.53a2.45,2.45,0,0,1,2.5-1.64v2.47c-1.61,0-2.5.45-2.5,1.69v3.66h-2.64Z" fill="#14aa40"/><path d="M110,83v-.12a3.94,3.94,0,0,1,4.17-4,3.66,3.66,0,0,1,3.93,4v.7h-5.43a1.54,1.54,0,0,0,1.61,1.61c.87,0,1.24-.4,1.34-.92h2.48c-.24,1.74-1.58,2.73-3.91,2.73S110,85.47,110,83Zm5.53-1c0-.93-.5-1.45-1.36-1.45A1.47,1.47,0,0,0,112.69,82Z" fill="#14aa40"/><path d="M118.63,84.57c0-1.81,1.54-2.52,4.1-2.52h.74v-.18c0-.73-.18-1.22-1-1.22a.94.94,0,0,0-1,.91h-2.48c.11-1.86,1.58-2.77,3.69-2.77s3.48.87,3.48,2.92v5h-2.57v-.9a2.54,2.54,0,0,1-2.29,1.08C119.86,86.89,118.63,86.21,118.63,84.57Zm4.84-.56v-.47h-.69c-1.06,0-1.54.21-1.54.84,0,.44.3.72.92.72S123.47,84.68,123.47,84Z" fill="#14aa40"/><path d="M21.14,101V97.55h-.93v-1.8h.93V94.14h2.64v1.61H25.3v1.8H23.78v3.18c0,.56.28.81.78.81a2,2,0,0,0,.75-.13v2a5.48,5.48,0,0,1-1.46.22A2.38,2.38,0,0,1,21.14,101Z" fill="#14aa40"/><path d="M25.89,101.32c0-1.81,1.53-2.52,4.1-2.52h.74v-.18c0-.73-.18-1.22-1-1.22a1,1,0,0,0-1.05.91H26.18c.12-1.86,1.58-2.77,3.69-2.77s3.48.87,3.48,2.92v5H30.78v-.9a2.51,2.51,0,0,1-2.28,1.08C27.11,103.64,25.89,103,25.89,101.32Zm4.84-.56v-.47H30c-1.06,0-1.53.21-1.53.84,0,.44.29.72.91.72S30.73,101.43,30.73,100.76Z" fill="#14aa40"/><path d="M36.58,99.54l-2.41-3.79h3l1.2,2,1.17-2h2.71l-2.43,3.58,2.67,4.13h-3l-1.38-2.3-1.4,2.3H34Z" fill="#14aa40"/><path d="M45.94,95.75h2.65V96.9A2.72,2.72,0,0,1,51,95.54c1.8,0,3.26,1.36,3.26,4v.12c0,2.65-1.46,4-3.27,4a2.55,2.55,0,0,1-2.39-1.31v3.72H45.94Zm5.63,3.91v-.12c0-1.36-.59-2-1.52-2s-1.54.7-1.54,2v.12c0,1.31.58,2,1.54,2S51.57,100.93,51.57,99.66Z" fill="#14aa40"/><path d="M55.21,95.75h2.64v1.53a2.44,2.44,0,0,1,2.49-1.64v2.47c-1.61,0-2.49.45-2.49,1.69v3.66H55.21Z" fill="#14aa40"/><path d="M60.81,99.7v-.12a4,4,0,0,1,4.18-4,3.66,3.66,0,0,1,3.92,4v.7H63.48a1.55,1.55,0,0,0,1.61,1.61c.87,0,1.24-.4,1.34-.92h2.48c-.23,1.74-1.58,2.73-3.91,2.73S60.81,102.22,60.81,99.7Zm5.54-1c0-.93-.51-1.45-1.36-1.45a1.48,1.48,0,0,0-1.48,1.45Z" fill="#14aa40"/><path d="M69.82,95.75h2.65V96.9a2.72,2.72,0,0,1,2.4-1.36c1.8,0,3.26,1.36,3.26,4v.12c0,2.65-1.46,4-3.27,4a2.55,2.55,0,0,1-2.39-1.31v3.72H69.82Zm5.63,3.91v-.12c0-1.36-.59-2-1.52-2s-1.54.7-1.54,2v.12c0,1.31.58,2,1.54,2S75.45,100.93,75.45,99.66Z" fill="#14aa40"/><path d="M78.65,101.32c0-1.81,1.53-2.52,4.1-2.52h.73v-.18c0-.73-.17-1.22-1-1.22a1,1,0,0,0-1,.91H78.94c.12-1.86,1.58-2.77,3.69-2.77s3.48.87,3.48,2.92v5H83.54v-.9a2.52,2.52,0,0,1-2.28,1.08C79.87,103.64,78.65,103,78.65,101.32Zm4.83-.56v-.47h-.69c-1.06,0-1.53.21-1.53.84,0,.44.29.72.91.72S83.48,101.43,83.48,100.76Z" fill="#14aa40"/><path d="M87.39,95.75H90v1.53a2.45,2.45,0,0,1,2.5-1.64v2.47c-1.61,0-2.5.45-2.5,1.69v3.66H87.39Z" fill="#14aa40"/><path d="M93,99.7v-.12a3.94,3.94,0,0,1,4.17-4,3.66,3.66,0,0,1,3.93,4v.7H95.67a1.54,1.54,0,0,0,1.61,1.61c.87,0,1.24-.4,1.34-.92h2.48c-.24,1.74-1.58,2.73-3.91,2.73S93,102.22,93,99.7Zm5.53-1c0-.93-.5-1.45-1.36-1.45a1.47,1.47,0,0,0-1.47,1.45Z" fill="#14aa40"/><path d="M102,95.75h2.64v1.53a2.44,2.44,0,0,1,2.49-1.64v2.47c-1.6,0-2.49.45-2.49,1.69v3.66H102Z" fill="#14aa40"/><path d="M107.61,101h2.44c.09.56.34.87,1.09.87s.94-.25.94-.63-.36-.55-1.43-.69c-2.06-.27-2.93-.87-2.93-2.48s1.52-2.54,3.3-2.54,3.23.65,3.41,2.49H112a.86.86,0,0,0-1-.76c-.57,0-.87.25-.87.6s.36.52,1.3.64c2.14.26,3.17.82,3.17,2.47,0,1.83-1.36,2.66-3.5,2.66S107.67,102.73,107.61,101Z" fill="#14aa40"/><path d="M115.4,102.14a1.47,1.47,0,0,1,1.51-1.49,1.49,1.49,0,1,1,0,3A1.48,1.48,0,0,1,115.4,102.14Z" fill="#14aa40"/></g></g></svg>