<svg xmlns="http://www.w3.org/2000/svg" viewBox="0 0 160 600"><title>legal</title><g id="Layer_2" data-name="Layer 2"><g id="Optional_loan_from_Axos_Bank_._Not_your_tax_refund." data-name="Optional loan from Axos Bank®. Not your tax refund."><path d="M20.5,406.14v-.07a3.16,3.16,0,1,1,6.31,0v.07a3.16,3.16,0,1,1-6.31,0Zm5.5,0V406a2.36,2.36,0,1,0-4.69,0v.07a2.42,2.42,0,0,0,2.37,2.62A2.35,2.35,0,0,0,26,406.11Z" fill="#fff"/><path d="M27.92,404.61h.75v.79a1.93,1.93,0,0,1,1.59-.87,2.14,2.14,0,0,1,2.14,2.36V407a2.17,2.17,0,0,1-2.14,2.43,1.78,1.78,0,0,1-1.59-.86V411h-.75ZM31.63,407v-.07c0-1.19-.66-1.78-1.45-1.78s-1.54.57-1.54,1.78V407c0,1.21.63,1.78,1.55,1.78S31.63,408.15,31.63,407Z" fill="#fff"/><path d="M33.59,408.14v-2.9h-.67v-.63h.67v-1.07h.75v1.07h1.1v.63h-1.1v2.83c0,.45.2.68.58.68a1.59,1.59,0,0,0,.58-.1v.63a1.85,1.85,0,0,1-.64.1A1.14,1.14,0,0,1,33.59,408.14Z" fill="#fff"/><path d="M36.37,403.13a.5.5,0,0,1,.5-.49.49.49,0,0,1,.49.49.5.5,0,0,1-.49.5A.51.51,0,0,1,36.37,403.13Zm.14,1.48h.74v4.71h-.74Z" fill="#fff"/><path d="M38.3,407v-.07a2.31,2.31,0,1,1,4.62,0V407a2.31,2.31,0,1,1-4.62,0Zm3.85,0v-.06c0-1.09-.6-1.79-1.54-1.79a1.56,1.56,0,0,0-1.54,1.78V407c0,1.07.59,1.78,1.54,1.78S42.15,408.07,42.15,407Z" fill="#fff"/><path d="M44,404.61h.75v.75a1.59,1.59,0,0,1,1.51-.83c1,0,1.66.53,1.66,1.9v2.89h-.75v-2.95c0-.83-.35-1.2-1.11-1.2a1.24,1.24,0,0,0-1.31,1.29v2.86H44Z" fill="#fff"/><path d="M48.81,408c0-1.09,1.15-1.46,2.36-1.46h.67v-.34c0-.75-.29-1.06-1-1.06s-1,.27-1.08.84H49a1.64,1.64,0,0,1,1.86-1.46,1.52,1.52,0,0,1,1.72,1.68v3.11h-.75v-.6a1.69,1.69,0,0,1-1.46.68C49.5,409.4,48.81,409,48.81,408Zm3-.34v-.59h-.65c-.94,0-1.63.24-1.63.93,0,.49.23.79.89.79S51.84,408.4,51.84,407.67Z" fill="#fff"/><path d="M53.94,402.36h.75v7h-.75Z" fill="#fff"/><path d="M58.36,402.36h.75v7h-.75Z" fill="#fff"/><path d="M60.16,407v-.07a2.32,2.32,0,1,1,4.63,0V407a2.32,2.32,0,1,1-4.63,0ZM64,407v-.06c0-1.09-.6-1.79-1.54-1.79a1.56,1.56,0,0,0-1.54,1.78V407c0,1.07.59,1.78,1.54,1.78S64,408.07,64,407Z" fill="#fff"/><path d="M65.42,408c0-1.09,1.15-1.46,2.36-1.46h.68v-.34c0-.75-.29-1.06-1-1.06s-1,.27-1.08.84h-.75a1.64,1.64,0,0,1,1.86-1.46,1.52,1.52,0,0,1,1.72,1.68v3.11h-.74v-.6a1.71,1.71,0,0,1-1.47.68C66.12,409.4,65.42,409,65.42,408Zm3-.34v-.59h-.65c-1,0-1.64.24-1.64.93,0,.49.23.79.89.79S68.46,408.4,68.46,407.67Z" fill="#fff"/><path d="M70.53,404.61h.75v.75a1.61,1.61,0,0,1,1.51-.83c1,0,1.66.53,1.66,1.9v2.89H73.7v-2.95c0-.83-.35-1.2-1.1-1.2a1.25,1.25,0,0,0-1.32,1.29v2.86h-.75Z" fill="#fff"/><path d="M78.19,405.24h-.67v-.63h.67v-.77c0-.95.47-1.51,1.41-1.51a1.6,1.6,0,0,1,.56.09v.63a1.62,1.62,0,0,0-.54-.1c-.48,0-.68.33-.68.81v.85h1.15v.63H78.94v4.08h-.75Z" fill="#fff"/><path d="M81,404.61h.75v.84a1.62,1.62,0,0,1,1.55-.92v.7c-1,0-1.55.34-1.55,1.5v2.59H81Z" fill="#fff"/><path d="M83.77,407v-.07a2.32,2.32,0,1,1,4.63,0V407a2.32,2.32,0,1,1-4.63,0Zm3.86,0v-.06c0-1.09-.61-1.79-1.54-1.79s-1.54.7-1.54,1.78V407c0,1.07.58,1.78,1.54,1.78A1.57,1.57,0,0,0,87.63,407Z" fill="#fff"/><path d="M89.42,404.61h.75v.72a1.54,1.54,0,0,1,1.41-.8,1.36,1.36,0,0,1,1.37.88,1.84,1.84,0,0,1,1.62-.88c.84,0,1.58.5,1.58,1.87v2.92H95.4v-3c0-.83-.35-1.18-1-1.18a1.21,1.21,0,0,0-1.24,1.27v2.88h-.75v-3c0-.83-.35-1.18-1-1.18a1.21,1.21,0,0,0-1.25,1.27v2.88h-.75Z" fill="#fff"/><path d="M101.51,402.88h1l2.18,6.44h-.78l-.63-1.86h-2.65l-.62,1.86H99.3Zm-.64,4h2.24L102,403.53Z" fill="#fff"/><path d="M106.84,406.89l-1.58-2.28h.88l1.15,1.71,1.14-1.71h.81l-1.55,2.23,1.72,2.48h-.89l-1.27-1.9-1.29,1.9h-.8Z" fill="#fff"/><path d="M109.7,407v-.07a2.32,2.32,0,1,1,4.63,0V407a2.32,2.32,0,1,1-4.63,0Zm3.85,0v-.06c0-1.09-.6-1.79-1.53-1.79s-1.54.7-1.54,1.78V407c0,1.07.58,1.78,1.54,1.78S113.55,408.07,113.55,407Z" fill="#fff"/><path d="M115,407.87h.73c0,.55.35.91,1.1.91s1-.25,1-.75-.37-.66-1.1-.79c-1.22-.23-1.64-.57-1.64-1.39a1.47,1.47,0,0,1,1.6-1.32,1.51,1.51,0,0,1,1.7,1.36h-.72c-.11-.52-.4-.74-1-.74s-.89.27-.89.67.23.6,1.09.75,1.66.4,1.66,1.4c0,.85-.58,1.43-1.73,1.43S115,408.83,115,407.87Z" fill="#fff"/><path d="M20.81,411.88h1.94c1.19,0,2.07.4,2.07,1.66v0a1.32,1.32,0,0,1-1,1.36,1.42,1.42,0,0,1,1.29,1.54v0c0,1.21-.83,1.8-2.11,1.8H20.81Zm1.94,2.81c.94,0,1.3-.34,1.3-1.14v0c0-.73-.42-1-1.32-1H21.58v2.2Zm.25,3c.93,0,1.37-.41,1.37-1.19v0c0-.79-.44-1.17-1.48-1.17H21.58v2.4Z" fill="#fff"/><path d="M25.83,417c0-1.09,1.15-1.46,2.36-1.46h.68v-.34c0-.75-.29-1.06-1-1.06s-1,.27-1.08.84H26a1.64,1.64,0,0,1,1.86-1.46,1.52,1.52,0,0,1,1.72,1.68v3.11h-.74v-.6a1.72,1.72,0,0,1-1.47.68C26.53,418.4,25.83,418,25.83,417Zm3-.34v-.59h-.65c-.95,0-1.64.24-1.64.93,0,.49.23.79.89.79S28.87,417.4,28.87,416.67Z" fill="#fff"/><path d="M30.94,413.61h.75v.75a1.61,1.61,0,0,1,1.51-.83c1,0,1.66.53,1.66,1.9v2.89h-.75v-2.95c0-.83-.35-1.2-1.1-1.2a1.25,1.25,0,0,0-1.32,1.29v2.86h-.75Z" fill="#fff"/><path d="M36.19,411.36h.75v4.42l2-2.17h.88l-2,2.19,2.19,2.52H39l-2.09-2.44v2.44h-.75Z" fill="#fff"/><path d="M40.13,412.68a1.17,1.17,0,1,1,1.16,1.16A1.15,1.15,0,0,1,40.13,412.68Zm2.12,0a1,1,0,1,0-1,1A.94.94,0,0,0,42.25,412.68Zm-1.36-.59h.41c.27,0,.44.11.44.35h0a.3.3,0,0,1-.24.31l.31.49h-.27l-.27-.45h-.12v.45h-.26Zm.4.53c.13,0,.2-.06.2-.17h0c0-.12-.07-.16-.2-.16h-.14v.33Z" fill="#fff"/><path d="M42.18,417.79a.58.58,0,1,1,.57.57A.57.57,0,0,1,42.18,417.79Z" fill="#fff"/><path d="M47,411.88h1l3.14,5.32v-5.32h.74v6.44h-.9l-3.25-5.52v5.52H47Z" fill="#fff"/><path d="M52.92,416v-.07a2.32,2.32,0,1,1,4.63,0V416a2.32,2.32,0,1,1-4.63,0Zm3.85,0v-.06c0-1.09-.6-1.79-1.54-1.79s-1.53.7-1.53,1.78V416c0,1.07.58,1.78,1.53,1.78S56.77,417.07,56.77,416Z" fill="#fff"/><path d="M58.73,417.14v-2.9h-.67v-.63h.67v-1.07h.75v1.07h1.1v.63h-1.1v2.83c0,.45.21.68.59.68a1.57,1.57,0,0,0,.57-.1v.63a1.85,1.85,0,0,1-.64.1A1.14,1.14,0,0,1,58.73,417.14Z" fill="#fff"/><path d="M65.2,417.83l-1.85-4.22h.8L65.59,417l1.31-3.37h.76L65.06,420h-.75Z" fill="#fff"/><path d="M68,416v-.07a2.32,2.32,0,1,1,4.63,0V416A2.32,2.32,0,1,1,68,416Zm3.86,0v-.06c0-1.09-.61-1.79-1.54-1.79s-1.54.7-1.54,1.78V416c0,1.07.58,1.78,1.54,1.78A1.57,1.57,0,0,0,71.88,416Z" fill="#fff"/><path d="M73.63,416.59v-3h.75v2.94c0,.83.35,1.2,1.09,1.2a1.24,1.24,0,0,0,1.29-1.29v-2.85h.75v4.71h-.75v-.75a1.6,1.6,0,0,1-1.49.83C74.33,418.4,73.63,417.88,73.63,416.59Z" fill="#fff"/><path d="M78.89,413.61h.74v.84a1.63,1.63,0,0,1,1.55-.92v.7c-.94,0-1.55.34-1.55,1.5v2.59h-.74Z" fill="#fff"/><path d="M84.55,417.14v-2.9h-.68v-.63h.68v-1.07h.74v1.07h1.1v.63h-1.1v2.83c0,.45.21.68.59.68a1.67,1.67,0,0,0,.58-.1v.63a1.94,1.94,0,0,1-.64.1A1.14,1.14,0,0,1,84.55,417.14Z" fill="#fff"/><path d="M87.1,417c0-1.09,1.15-1.46,2.36-1.46h.68v-.34c0-.75-.29-1.06-1-1.06s-1,.27-1.08.84H87.3a1.64,1.64,0,0,1,1.86-1.46,1.52,1.52,0,0,1,1.72,1.68v3.11h-.74v-.6a1.71,1.71,0,0,1-1.47.68C87.8,418.4,87.1,418,87.1,417Zm3-.34v-.59h-.65c-.95,0-1.64.24-1.64.93,0,.49.23.79.89.79S90.14,417.4,90.14,416.67Z" fill="#fff"/><path d="M93.39,415.89l-1.57-2.28h.87l1.15,1.71L95,413.61h.81l-1.56,2.23L96,418.32h-.88l-1.27-1.9-1.3,1.9h-.8Z" fill="#fff"/><path d="M99.08,413.61h.75v.84a1.63,1.63,0,0,1,1.55-.92v.7c-.95,0-1.55.34-1.55,1.5v2.59h-.75Z" fill="#fff"/><path d="M101.84,416v-.07a2.22,2.22,0,0,1,2.21-2.41,2.06,2.06,0,0,1,2.12,2.34v.24h-3.55c0,1.07.55,1.67,1.51,1.67.73,0,1.15-.27,1.25-.82h.75a1.82,1.82,0,0,1-2,1.44A2.22,2.22,0,0,1,101.84,416Zm3.56-.5c-.07-1-.58-1.36-1.35-1.36a1.41,1.41,0,0,0-1.4,1.36Z" fill="#fff"/><path d="M107.33,414.24h-.67v-.63h.67v-.77c0-.95.47-1.51,1.41-1.51a1.6,1.6,0,0,1,.56.09v.63a1.61,1.61,0,0,0-.53-.1c-.49,0-.69.33-.69.81v.85h1.15v.63h-1.15v4.08h-.75Z" fill="#fff"/><path d="M110.11,416.59v-3h.74v2.94c0,.83.36,1.2,1.09,1.2a1.24,1.24,0,0,0,1.3-1.29v-2.85H114v4.71h-.75v-.75a1.61,1.61,0,0,1-1.49.83C110.81,418.4,110.11,417.88,110.11,416.59Z" fill="#fff"/><path d="M115.36,413.61h.75v.75a1.61,1.61,0,0,1,1.51-.83c1,0,1.66.53,1.66,1.9v2.89h-.75v-2.95c0-.83-.35-1.2-1.11-1.2a1.24,1.24,0,0,0-1.31,1.29v2.86h-.75Z" fill="#fff"/><path d="M120.26,416.06V416a2.23,2.23,0,0,1,2.2-2.45,1.69,1.69,0,0,1,1.53.83v-3h.75v7H124v-.81a2,2,0,0,1-1.61.89A2.11,2.11,0,0,1,120.26,416.06ZM124,416v-.07c0-1.21-.57-1.77-1.49-1.77s-1.5.66-1.5,1.8V416c0,1.19.64,1.76,1.43,1.76S124,417.2,124,416Z" fill="#fff"/><path d="M126.05,417.79a.58.58,0,0,1,.58-.58.58.58,0,1,1-.58.58Z" fill="#fff"/><rect width="160" height="600" fill="none"/></g></g></svg>