<svg xmlns="http://www.w3.org/2000/svg" viewBox="0 0 160 600"><title>H80</title><g id="Layer_2" data-name="Layer 2"><g id="Layer_3" data-name="Layer 3"><rect width="160" height="600" fill="none"/></g><g id="You_could_get_a_Refund_Advance_loan_up_to_3_500_within_minut" data-name="You could  get a Refund Advance loan  up to $3,500 within minut"><path d="M26.45,43.86,20.21,32.92h6l3.24,6.45,3.23-6.45H37.9L32,43.86v8.19H26.45Z" fill="#fff"/><path d="M35.89,45.23V45c0-4.49,3.34-7.33,7.68-7.33s7.62,2.76,7.62,7.2v.21c0,4.55-3.34,7.28-7.65,7.28S35.89,49.75,35.89,45.23Zm10.43-.08v-.22c0-2.35-.93-3.66-2.75-3.66s-2.79,1.25-2.79,3.61v.21c0,2.41.94,3.72,2.79,3.72S46.32,47.47,46.32,45.15Z" fill="#fff"/><path d="M52.77,47.18V38.06h4.79V46.4c0,1.58.61,2.36,2,2.36s2.38-.86,2.38-2.65v-8H66.7v14H61.92V49.88a4.61,4.61,0,0,1-4.44,2.49C54.77,52.37,52.77,50.71,52.77,47.18Z" fill="#fff"/><path d="M20.67,77v-.22c0-4.65,3.34-7.33,7.46-7.33,3.43,0,6.58,1.5,6.85,5.75H30.49a2.07,2.07,0,0,0-2.25-2c-1.69,0-2.68,1.2-2.68,3.56v.21c0,2.44.94,3.69,2.76,3.69a2.32,2.32,0,0,0,2.43-2.32h4.31c-.13,3.53-2.52,5.83-7,5.83C23.85,84.12,20.67,81.68,20.67,77Z" fill="#fff"/><path d="M35.86,77v-.22c0-4.49,3.35-7.33,7.68-7.33s7.62,2.76,7.62,7.2v.21c0,4.55-3.34,7.28-7.65,7.28S35.86,81.5,35.86,77Zm10.43-.08v-.22c0-2.35-.93-3.66-2.75-3.66s-2.78,1.25-2.78,3.61v.21c0,2.41.93,3.72,2.78,3.72S46.29,79.22,46.29,76.9Z" fill="#fff"/><path d="M52.74,78.93V69.81h4.79v8.34c0,1.58.62,2.36,2,2.36s2.38-.86,2.38-2.65v-8h4.79v14H61.89V81.63a4.6,4.6,0,0,1-4.44,2.49C54.75,84.12,52.74,82.46,52.74,78.93Z" fill="#fff"/><path d="M69.25,63.65H74V83.8H69.25Z" fill="#fff"/><path d="M75.88,77v-.22c0-4.76,2.62-7.3,5.94-7.3a4.53,4.53,0,0,1,4.3,2.36V63.65h4.79V83.8H86.12V81.52a4.7,4.7,0,0,1-4.36,2.6C78.53,84.12,75.88,81.79,75.88,77Zm10.38-.08v-.22c0-2.35-1-3.61-2.76-3.61s-2.75,1.21-2.75,3.64v.22c0,2.35,1,3.55,2.7,3.55S86.26,79.25,86.26,76.87Z" fill="#fff"/><path d="M20.64,115.55H25.4c.22,1,.83,1.82,2.57,1.82a2.65,2.65,0,0,0,3-3v-2.14a4.9,4.9,0,0,1-4.33,2.57c-3.27,0-5.94-2.41-5.94-6.71v-.22c0-4.12,2.65-6.74,5.94-6.74a4.54,4.54,0,0,1,4.33,2.36v-2h4.79v12.81c0,4.17-2.76,6.37-7.76,6.37C23.21,120.74,21,118.73,20.64,115.55Zm10.43-7.44v-.19c0-1.92-1-3.15-2.75-3.15S25.56,106,25.56,108v.21c0,1.93,1,3.16,2.73,3.16S31.07,110.09,31.07,108.11Z" fill="#fff"/><path d="M37.41,108.73v-.22c0-4.49,3.35-7.33,7.57-7.33,3.83,0,7.12,2.2,7.12,7.22v1.26H42.26a2.79,2.79,0,0,0,2.91,2.92c1.58,0,2.25-.73,2.43-1.66h4.5c-.43,3.16-2.86,5-7.09,5C40.62,115.87,37.41,113.3,37.41,108.73Zm10-1.77c-.08-1.69-.9-2.62-2.46-2.62A2.66,2.66,0,0,0,42.31,107Z" fill="#fff"/><path d="M54.4,111.05v-6.23H52.71v-3.26H54.4V98.64h4.79v2.92h2.75v3.26H59.19v5.78a1.28,1.28,0,0,0,1.42,1.47,3.66,3.66,0,0,0,1.36-.24v3.64a10.08,10.08,0,0,1-2.65.4C56.17,115.87,54.4,114.34,54.4,111.05Z" fill="#fff"/><path d="M67.83,111.67c0-3.29,2.78-4.58,7.43-4.58H76.6v-.32c0-1.33-.32-2.22-1.84-2.22a1.72,1.72,0,0,0-1.9,1.66h-4.5c.22-3.37,2.87-5,6.69-5s6.31,1.58,6.31,5.3v9.07H76.71v-1.64a4.6,4.6,0,0,1-4.15,2C70.05,115.87,67.83,114.64,67.83,111.67Zm8.77-1v-.85H75.34c-1.92,0-2.78.37-2.78,1.52,0,.8.54,1.31,1.66,1.31A2.11,2.11,0,0,0,76.6,110.65Z" fill="#fff"/><path d="M21.85,128.17h7.49c5,0,7.78,2,7.78,6.07v.11a5,5,0,0,1-3.45,5l4.57,7.92H32.46l-3.87-6.85H27.3v6.85H21.85Zm7.22,8.72c1.84,0,2.75-.77,2.75-2.33v-.1c0-1.55-1-2.17-2.73-2.17H27.3v4.6Z" fill="#fff"/><path d="M38.24,140.48v-.22c0-4.49,3.35-7.33,7.57-7.33,3.83,0,7.12,2.2,7.12,7.22v1.26H43.08A2.8,2.8,0,0,0,46,144.33c1.58,0,2.25-.73,2.43-1.66h4.5c-.43,3.16-2.86,5-7.09,5C41.45,147.62,38.24,145.05,38.24,140.48Zm10-1.77c-.08-1.69-.91-2.62-2.46-2.62a2.66,2.66,0,0,0-2.67,2.62Z" fill="#fff"/><path d="M55.31,136.57H53.54v-3.26h1.77v-1.23c0-3.48,2.17-5.14,5.48-5.14a8.63,8.63,0,0,1,2.2.29v3.51a4.33,4.33,0,0,0-1.31-.19,1.41,1.41,0,0,0-1.61,1.53v1.23h2.84v3.26H60.07V147.3H55.31Z" fill="#fff"/><path d="M64.4,142.43v-9.12h4.79v8.34c0,1.58.62,2.36,2,2.36s2.38-.86,2.38-2.65v-8.05h4.79v14H73.55v-2.17a4.6,4.6,0,0,1-4.44,2.49C66.41,147.62,64.4,146,64.4,142.43Z" fill="#fff"/><path d="M80.77,133.31h4.79v2.24a5,5,0,0,1,4.6-2.62c2.71,0,4.58,1.69,4.58,5.27v9.1H90v-8.14c0-1.57-.62-2.35-2-2.35s-2.38.86-2.38,2.65v7.84H80.77Z" fill="#fff"/><path d="M96.37,140.45v-.22c0-4.76,2.62-7.3,5.94-7.3a4.53,4.53,0,0,1,4.3,2.36v-8.14h4.79V147.3h-4.79V145a4.7,4.7,0,0,1-4.36,2.6C99,147.62,96.37,145.29,96.37,140.45Zm10.38-.08v-.22c0-2.35-1-3.61-2.76-3.61s-2.75,1.21-2.75,3.64v.22c0,2.35,1,3.55,2.7,3.55S106.75,142.75,106.75,140.37Z" fill="#fff"/><path d="M26.47,159.92h7.09l6.07,19.13h-5.8l-1-3.56H26.47l-1,3.56H20.35Zm1.07,11.8h4.2l-2.08-7.36Z" fill="#fff"/><path d="M40,172.2V172c0-4.76,2.62-7.3,5.93-7.3A4.53,4.53,0,0,1,50.2,167V158.9H55v20.15H50.2v-2.28a4.72,4.72,0,0,1-4.36,2.6C42.6,179.37,40,177,40,172.2Zm10.37-.08v-.22c0-2.35-1-3.61-2.75-3.61s-2.76,1.21-2.76,3.64v.22c0,2.35,1,3.55,2.71,3.55S50.33,174.5,50.33,172.12Z" fill="#fff"/><path d="M56.22,165.06h5.11l2.91,9,2.87-9h4.57l-5.11,14H61.36Z" fill="#fff"/><path d="M71.49,175.17c0-3.29,2.79-4.58,7.44-4.58h1.34v-.32c0-1.33-.32-2.22-1.85-2.22a1.72,1.72,0,0,0-1.9,1.66H72c.21-3.37,2.86-5,6.69-5S85,166.26,85,170v9.07H80.37v-1.64a4.56,4.56,0,0,1-4.14,2C73.71,179.37,71.49,178.14,71.49,175.17Zm8.78-1v-.85H79c-1.93,0-2.78.37-2.78,1.52,0,.8.53,1.31,1.66,1.31A2.11,2.11,0,0,0,80.27,174.15Z" fill="#fff"/><path d="M87.36,165.06h4.78v2.24a5,5,0,0,1,4.61-2.62c2.7,0,4.57,1.69,4.57,5.27v9.1H96.53v-8.14c0-1.57-.61-2.35-2-2.35s-2.38.86-2.38,2.65v7.84H87.36Z" fill="#fff"/><path d="M102.9,172.23V172c0-4.65,3.34-7.33,7.46-7.33,3.42,0,6.58,1.5,6.85,5.75h-4.5a2.06,2.06,0,0,0-2.24-2c-1.69,0-2.68,1.2-2.68,3.56v.21c0,2.44.94,3.69,2.76,3.69a2.32,2.32,0,0,0,2.43-2.32h4.31c-.13,3.53-2.52,5.83-7,5.83C106.08,179.37,102.9,176.93,102.9,172.23Z" fill="#fff"/><path d="M118.09,172.23V172c0-4.49,3.35-7.33,7.57-7.33,3.83,0,7.12,2.2,7.12,7.22v1.26h-9.85a2.8,2.8,0,0,0,2.92,2.92c1.58,0,2.25-.73,2.43-1.66h4.5c-.43,3.16-2.87,5-7.09,5C121.3,179.37,118.09,176.8,118.09,172.23Zm10-1.77c-.08-1.69-.91-2.62-2.46-2.62a2.66,2.66,0,0,0-2.67,2.62Z" fill="#fff"/><path d="M21.55,190.65h4.76V210.8H21.55Z" fill="#fff"/><path d="M28.13,204v-.22c0-4.49,3.35-7.33,7.68-7.33s7.62,2.76,7.62,7.2v.21c0,4.55-3.34,7.28-7.65,7.28S28.13,208.5,28.13,204Zm10.43-.08v-.22c0-2.35-.93-3.66-2.75-3.66S33,201.27,33,203.63v.21c0,2.41.93,3.72,2.78,3.72S38.56,206.22,38.56,203.9Z" fill="#fff"/><path d="M44.32,206.92c0-3.29,2.78-4.58,7.43-4.58h1.34V202c0-1.33-.32-2.22-1.85-2.22a1.72,1.72,0,0,0-1.9,1.66H44.85c.21-3.37,2.86-5,6.69-5s6.31,1.58,6.31,5.3v9.07H53.2v-1.64a4.6,4.6,0,0,1-4.15,2C46.54,211.12,44.32,209.89,44.32,206.92Zm8.77-1v-.85H51.83c-1.92,0-2.78.37-2.78,1.52,0,.8.53,1.31,1.66,1.31A2.11,2.11,0,0,0,53.09,205.9Z" fill="#fff"/><path d="M60.18,196.81H65v2.24a4.93,4.93,0,0,1,4.6-2.62c2.7,0,4.57,1.69,4.57,5.27v9.1H69.35v-8.14c0-1.57-.61-2.35-2-2.35S65,201.17,65,203v7.84H60.18Z" fill="#fff"/><path d="M21.31,237.68v-9.12H26.1v8.34c0,1.58.61,2.36,2,2.36s2.38-.86,2.38-2.65v-8.05h4.79v14H30.46v-2.17A4.6,4.6,0,0,1,26,242.87C23.32,242.87,21.31,241.21,21.31,237.68Z" fill="#fff"/><path d="M37.68,228.56h4.79v2.08a5,5,0,0,1,4.36-2.46c3.26,0,5.91,2.46,5.91,7.25v.22c0,4.81-2.65,7.22-5.94,7.22a4.61,4.61,0,0,1-4.33-2.38v6.74H37.68Zm10.19,7.09v-.22c0-2.46-1.07-3.64-2.75-3.64s-2.78,1.26-2.78,3.61v.22c0,2.38,1,3.58,2.78,3.58S47.87,238,47.87,235.65Z" fill="#fff"/><path d="M60,238.05v-6.23H58.31v-3.26H60v-2.92h4.79v2.92h2.75v3.26H64.78v5.78a1.28,1.28,0,0,0,1.42,1.47,3.66,3.66,0,0,0,1.36-.24v3.64a10.08,10.08,0,0,1-2.65.4C61.76,242.87,60,241.34,60,238.05Z" fill="#fff"/><path d="M68.6,235.73v-.22c0-4.49,3.35-7.33,7.68-7.33s7.62,2.76,7.62,7.2v.21c0,4.55-3.34,7.28-7.65,7.28S68.6,240.25,68.6,235.73ZM79,235.65v-.22c0-2.35-.94-3.66-2.76-3.66S73.5,233,73.5,235.38v.21c0,2.41.93,3.72,2.78,3.72S79,238,79,235.65Z" fill="#fff"/><path d="M27.7,274.56c-4.62-.32-6.87-2.78-7.06-6.31h4.95a2.54,2.54,0,0,0,2.11,2.52v-3.91c-4.65-.67-6.63-2.35-6.63-6.07,0-3.24,2.54-5.57,6.63-5.86v-2.38h2.09V255c3.88.32,6.18,2.11,6.5,5.77H31.45a2.12,2.12,0,0,0-1.66-2v3.69c4.09.59,6.77,2,6.77,5.86,0,3.26-2.12,6-6.77,6.28v3.35H27.7Zm0-12.46v-3.42c-1.2.21-1.82.85-1.82,1.71S26.26,261.8,27.7,262.1Zm2.09,5.11v3.56c1.18-.25,1.79-.94,1.79-1.9S31.21,267.53,29.79,267.21Z" fill="#fff"/><path d="M37.65,268h4.87a2.56,2.56,0,0,0,2.81,2.65c1.69,0,2.52-.8,2.52-2.17s-.81-2.24-2.52-2.24H43.81v-3.4h1.41c1.72,0,2.55-.78,2.55-2.12,0-1.15-.75-1.89-2.2-1.89A2.45,2.45,0,0,0,43,261.27H38.19c.24-3.77,2.75-6.37,7.52-6.37,4.49,0,7.19,2.06,7.19,5.25a4.08,4.08,0,0,1-3.24,4.12,4.3,4.3,0,0,1,3.72,4.33c0,3.64-2.7,6-7.75,6C40.3,274.62,37.81,272.16,37.65,268Z" fill="#fff"/><path d="M53.84,276.46l2.25-7L60.53,271l-3.86,6.55Z" fill="#fff"/><path d="M61.41,268.28h5a2.19,2.19,0,0,0,2.49,2.22c1.58,0,2.3-1.18,2.3-2.7a2.42,2.42,0,0,0-2.59-2.73,3.91,3.91,0,0,0-3.16,1.36H62.16l.4-11.26H75.45v4H66.52l-.11,4.23a5.11,5.11,0,0,1,4.47-2c3.5,0,5.8,2.35,5.8,6.5s-2.91,6.74-7.75,6.74C63.84,274.62,61.54,271.86,61.41,268.28Z" fill="#fff"/><path d="M78,265.15v-.8c0-6.05,3.77-9.45,8.83-9.45s8.82,3.13,8.82,9.34V265c0,6.07-3.47,9.63-8.93,9.63S78,271.17,78,265.15Zm12.17-.06v-.77c0-3.51-1-5.27-3.34-5.27s-3.35,1.74-3.35,5.27v.8c0,3.56,1,5.24,3.4,5.24S90.19,268.63,90.19,265.09Z" fill="#fff"/><path d="M97.2,265.15v-.8c0-6.05,3.77-9.45,8.83-9.45s8.82,3.13,8.82,9.34V265c0,6.07-3.47,9.63-8.93,9.63S97.2,271.17,97.2,265.15Zm12.17-.06v-.77c0-3.51-1-5.27-3.34-5.27s-3.35,1.74-3.35,5.27v.8c0,3.56,1,5.24,3.4,5.24S109.37,268.63,109.37,265.09Z" fill="#fff"/><path d="M20.24,292.06h5l2,8.37,2.35-8.37h3.85l2.09,8.37,2.27-8.37h4.55l-4.44,14H33.37l-2.08-7.81-2.17,7.81H24.47Z" fill="#fff"/><path d="M43.51,288.26a2.64,2.64,0,1,1,2.62,2.46A2.5,2.5,0,0,1,43.51,288.26Zm.24,3.8h4.79v14H43.75Z" fill="#fff"/><path d="M51.75,301.55v-6.23H50.07v-3.26h1.68v-2.92h4.79v2.92h2.75v3.26H56.54v5.78A1.28,1.28,0,0,0,58,302.57a3.66,3.66,0,0,0,1.36-.24V306a10,10,0,0,1-2.65.4C53.52,306.37,51.75,304.84,51.75,301.55Z" fill="#fff"/><path d="M61.11,285.9H65.9v8.4a5,5,0,0,1,4.6-2.62c2.7,0,4.58,1.69,4.58,5.27v9.1H70.29v-8.14c0-1.57-.62-2.35-2-2.35s-2.38.86-2.38,2.65v7.84H61.11Z" fill="#fff"/><path d="M77.3,288.26a2.5,2.5,0,0,1,2.62-2.49,2.48,2.48,0,1,1,0,5A2.47,2.47,0,0,1,77.3,288.26Zm.24,3.8h4.79v14H77.54Z" fill="#fff"/><path d="M84.89,292.06h4.79v2.24a5,5,0,0,1,4.6-2.62c2.71,0,4.58,1.69,4.58,5.27v9.1H94.07v-8.14c0-1.57-.62-2.35-2-2.35s-2.38.86-2.38,2.65v7.84H84.89Z" fill="#fff"/><path d="M21.42,323.81h4.79V326a4.88,4.88,0,0,1,4.38-2.52,3.8,3.8,0,0,1,3.8,2.33A5.55,5.55,0,0,1,39,323.43c2.65,0,4.57,1.71,4.57,5.22v9.15H38.8v-8.35c0-1.42-.69-2.11-1.79-2.11a2.07,2.07,0,0,0-2.14,2.35v8.11H30.14v-8.35c0-1.42-.7-2.11-1.79-2.11a2.07,2.07,0,0,0-2.14,2.35v8.11H21.42Z" fill="#fff"/><path d="M45.81,320a2.64,2.64,0,1,1,2.63,2.46A2.51,2.51,0,0,1,45.81,320Zm.24,3.8h4.79v14H46.05Z" fill="#fff"/><path d="M53.41,323.81H58.2v2.24a4.94,4.94,0,0,1,4.6-2.62c2.7,0,4.57,1.69,4.57,5.27v9.1H62.59v-8.13c0-1.58-.62-2.36-2-2.36s-2.38.86-2.38,2.65v7.84H53.41Z" fill="#fff"/><path d="M69.59,332.93v-9.12h4.79v8.34c0,1.58.62,2.36,2,2.36s2.38-.86,2.38-2.65v-8.05h4.79v14H78.74v-2.17a4.6,4.6,0,0,1-4.44,2.49C71.6,338.12,69.59,336.46,69.59,332.93Z" fill="#fff"/><path d="M86.61,333.3v-6.23H84.92v-3.26h1.69v-2.92h4.78v2.92h2.76v3.26H91.39v5.78a1.28,1.28,0,0,0,1.42,1.47,3.68,3.68,0,0,0,1.37-.24v3.64a10.15,10.15,0,0,1-2.65.4C88.37,338.12,86.61,336.59,86.61,333.3Z" fill="#fff"/><path d="M95.22,331v-.22c0-4.49,3.34-7.33,7.57-7.33,3.83,0,7.12,2.2,7.12,7.22v1.26h-9.85a2.8,2.8,0,0,0,2.92,2.92c1.58,0,2.24-.72,2.43-1.66h4.5c-.43,3.16-2.87,4.95-7.09,4.95C98.43,338.12,95.22,335.55,95.22,331Zm10-1.77c-.08-1.69-.91-2.62-2.46-2.62a2.66,2.66,0,0,0-2.67,2.62Z" fill="#fff"/><path d="M110.76,333.36h4.41c.16,1,.62,1.57,2,1.57,1.18,0,1.72-.45,1.72-1.15s-.67-1-2.6-1.25C112.53,332,111,331,111,328c0-3.1,2.75-4.6,6-4.6,3.45,0,5.86,1.18,6.18,4.52h-4.33a1.57,1.57,0,0,0-1.8-1.39c-1,0-1.57.46-1.57,1.1s.64.93,2.35,1.15c3.88.48,5.75,1.5,5.75,4.49,0,3.32-2.46,4.82-6.34,4.82S110.87,336.46,110.76,333.36Z" fill="#fff"/><path d="M20.67,362.73v-.22c0-4.49,3.34-7.33,7.68-7.33s7.62,2.76,7.62,7.2v.21c0,4.55-3.34,7.28-7.65,7.28S20.67,367.25,20.67,362.73Zm10.43-.08v-.22c0-2.35-.94-3.66-2.75-3.66s-2.79,1.25-2.79,3.61v.21c0,2.41.94,3.72,2.79,3.72S31.1,365,31.1,362.65Z" fill="#fff"/><path d="M38.38,358.82H36.61v-3.26h1.77v-1.23c0-3.48,2.16-5.14,5.48-5.14a8.55,8.55,0,0,1,2.19.29V353a4.23,4.23,0,0,0-1.31-.19,1.41,1.41,0,0,0-1.6,1.53v1.23H46v3.26H43.14v10.73H38.38Z" fill="#fff"/><path d="M53.17,358.82H51.4v-3.26h1.77v-1.23c0-3.48,2.17-5.14,5.48-5.14a8.63,8.63,0,0,1,2.2.29V353a4.33,4.33,0,0,0-1.31-.19,1.41,1.41,0,0,0-1.61,1.53v1.23h2.84v3.26H57.93v10.73H53.17Z" fill="#fff"/><path d="M62.26,351.76a2.64,2.64,0,1,1,2.63,2.46A2.51,2.51,0,0,1,62.26,351.76Zm.24,3.8h4.79v14H62.5Z" fill="#fff"/><path d="M70,349.4h4.77v20.15H70Z" fill="#fff"/><path d="M77.22,351.76a2.5,2.5,0,0,1,2.62-2.49,2.48,2.48,0,1,1,0,5A2.47,2.47,0,0,1,77.22,351.76Zm.24,3.8h4.79v14H77.46Z" fill="#fff"/><path d="M84.81,355.56H89.6v2.24a5,5,0,0,1,4.6-2.62c2.7,0,4.58,1.69,4.58,5.27v9.1H94v-8.13c0-1.58-.62-2.36-2-2.36s-2.38.86-2.38,2.65v7.84H84.81Z" fill="#fff"/><path d="M100.33,369.55h4.76c.21,1,.83,1.82,2.57,1.82a2.65,2.65,0,0,0,3-2.95v-2.14a4.92,4.92,0,0,1-4.34,2.57c-3.26,0-5.93-2.41-5.93-6.71v-.22c0-4.12,2.64-6.74,5.93-6.74a4.57,4.57,0,0,1,4.34,2.36v-2h4.79v12.81c0,4.17-2.76,6.37-7.76,6.37C102.9,374.74,100.7,372.73,100.33,369.55Zm10.43-7.44v-.19c0-1.92-1-3.15-2.75-3.15s-2.76,1.25-2.76,3.18v.21c0,1.93,1,3.16,2.73,3.16S110.76,364.09,110.76,362.11Z" fill="#fff"/><path d="M117.66,367.14a2.66,2.66,0,0,1,2.73-2.7,2.7,2.7,0,1,1,0,5.4A2.66,2.66,0,0,1,117.66,367.14Z" fill="#fff"/></g></g></svg>