<svg xmlns="http://www.w3.org/2000/svg" viewBox="0 0 300 600"><title>Asset 5</title><g id="Layer_2" data-name="Layer 2"><g id="Rect"><rect width="300" height="600" fill="none"/></g><g id="Don_t_guess_your_price._Know_as_you_go." data-name="Don&apos;t guess your price. Know as you go."><path d="M23,42.2H38.08c14.73,0,22.21,7.37,22.21,20.25v.46c0,12.93-7.65,20.76-22.27,20.76H23ZM37.68,74.51c7.07,0,10.2-3.71,10.2-11.43v-.46c0-7.89-3.13-11.25-10.32-11.25H35V74.51Z" fill="#fff"/><path d="M62.67,68.88v-.46c0-9.74,7.25-15.89,16.65-15.89s16.53,6,16.53,15.6v.46c0,9.86-7.25,15.78-16.59,15.78S62.67,78.69,62.67,68.88Zm22.62-.17v-.46c0-5.11-2-8-6-8s-6,2.73-6,7.83v.46c0,5.22,2,8.07,6,8.07S85.29,73.76,85.29,68.71Z" fill="#fff"/><path d="M99.5,53.34h10.39v4.87c1.62-3.13,4.92-5.68,10-5.68,5.86,0,9.92,3.65,9.92,11.42V83.67H119.4V66c0-3.42-1.34-5.1-4.35-5.1s-5.16,1.85-5.16,5.74v17H99.5Z" fill="#fff"/><path d="M132.8,42.2h10.14l-1.21,15.95H134Z" fill="#fff"/><path d="M149.44,73.93V60.42h-3.65V53.34h3.65V47h10.38v6.32h6v7.08h-6V72.94c0,2.21,1.1,3.19,3.08,3.19a7.8,7.8,0,0,0,2.95-.52V83.5a21.63,21.63,0,0,1-5.74.87C153.27,84.37,149.44,81.06,149.44,73.93Z" fill="#fff"/><path d="M20.39,141.67H30.72c.46,2.21,1.79,4,5.56,4,4.59,0,6.44-2.61,6.44-6.38V134.6a10.63,10.63,0,0,1-9.39,5.57c-7.08,0-12.88-5.22-12.88-14.56v-.47c0-8.93,5.74-14.61,12.88-14.61,4.81,0,7.65,2,9.39,5.1v-4.29H53.1v27.78c0,9-6,13.81-16.82,13.81C26,152.93,21.2,148.58,20.39,141.67ZM43,125.55v-.41c0-4.17-2.14-6.84-6-6.84s-6,2.73-6,6.9v.47c0,4.17,2.21,6.84,5.92,6.84S43,129.84,43,125.55Z" fill="#fff"/><path d="M58.15,131.12V111.34H68.53v18.1c0,3.42,1.34,5.1,4.29,5.1,3.14,0,5.16-1.86,5.16-5.74V111.34H88.37v30.33H78V137c-1.62,3.13-4.58,5.39-9.62,5.39C62.5,142.37,58.15,138.77,58.15,131.12Z" fill="#fff"/><path d="M92,126.88v-.46c0-9.74,7.25-15.89,16.41-15.89,8.3,0,15.43,4.75,15.43,15.66v2.72H102.52c.29,4,2.61,6.33,6.32,6.33,3.42,0,4.87-1.57,5.28-3.6h9.74c-.93,6.84-6.2,10.73-15.37,10.73C99,142.37,92,136.8,92,126.88Zm21.75-3.82c-.17-3.66-2-5.69-5.34-5.69-3.13,0-5.27,2-5.8,5.69Z" fill="#fff"/><path d="M125.72,132.05h9.57c.35,2.2,1.33,3.42,4.29,3.42,2.55,0,3.71-1,3.71-2.5s-1.45-2.14-5.62-2.72c-8.12-1.05-11.55-3.42-11.55-9.75,0-6.72,6-10,13-10,7.48,0,12.7,2.55,13.39,9.8h-9.39c-.41-2-1.51-3-3.89-3s-3.42,1-3.42,2.38,1.39,2,5.1,2.5c8.41,1,12.47,3.24,12.47,9.74,0,7.19-5.33,10.44-13.74,10.44C131,142.37,126,138.77,125.72,132.05Z" fill="#fff"/><path d="M154.89,132.05h9.57c.35,2.2,1.33,3.42,4.29,3.42,2.55,0,3.71-1,3.71-2.5s-1.45-2.14-5.62-2.72c-8.12-1.05-11.54-3.42-11.54-9.75,0-6.72,6-10,13-10,7.48,0,12.7,2.55,13.4,9.8h-9.4c-.41-2-1.51-3-3.89-3s-3.42,1-3.42,2.38,1.4,2,5.11,2.5c8.41,1,12.47,3.24,12.47,9.74,0,7.19-5.34,10.44-13.75,10.44C160.17,142.37,155.12,138.77,154.89,132.05Z" fill="#fff"/><path d="M31.59,196.6,19.46,169.34H30.72L37,185.52l5.8-16.18H52.7L36.46,209.82H26.54Z" fill="#fff"/><path d="M52.12,184.88v-.46c0-9.74,7.25-15.89,16.64-15.89s16.53,6,16.53,15.6v.46c0,9.86-7.25,15.78-16.58,15.78S52.12,194.69,52.12,184.88Zm22.62-.17v-.46c0-5.11-2-7.95-6-7.95s-6,2.73-6,7.83v.46c0,5.22,2,8.07,6,8.07S74.74,189.76,74.74,184.71Z" fill="#fff"/><path d="M88.71,189.12V169.34H99.1v18.1c0,3.42,1.33,5.1,4.29,5.1,3.13,0,5.16-1.86,5.16-5.74V169.34h10.38v30.33H108.55V195c-1.62,3.13-4.58,5.39-9.63,5.39C93.06,200.37,88.71,196.77,88.71,189.12Z" fill="#fff"/><path d="M124.21,169.34h10.38v6c1.92-4.52,5.11-6.49,9.8-6.44v9.69c-6.32-.17-9.8,1.8-9.8,6.67v14.38H124.21Z" fill="#fff"/><path d="M22.07,227.34H32.46v4.52a10.7,10.7,0,0,1,9.45-5.33c7.08,0,12.82,5.33,12.82,15.72v.46c0,10.44-5.74,15.66-12.88,15.66-4.58,0-7.89-2.15-9.39-5.16v14.61H22.07Zm22.1,15.37v-.46c0-5.34-2.32-7.89-6-7.89s-6,2.72-6,7.83v.46c0,5.16,2.26,7.77,6,7.77S44.17,247.7,44.17,242.71Z" fill="#fff"/><path d="M58.5,227.34H68.88v6c1.91-4.52,5.1-6.49,9.8-6.44v9.69c-6.32-.17-9.8,1.8-9.8,6.67v14.38H58.5Z" fill="#fff"/><path d="M82.22,219.1a5.72,5.72,0,1,1,5.68,5.34A5.41,5.41,0,0,1,82.22,219.1Zm.52,8.24H93.12v30.33H82.74Z" fill="#fff"/><path d="M97.07,242.88v-.46c0-10.09,7.25-15.89,16.18-15.89,7.42,0,14.27,3.25,14.85,12.47h-9.75c-.46-2.84-1.85-4.41-4.87-4.41-3.65,0-5.8,2.61-5.8,7.71v.47c0,5.28,2,8,6,8,2.9,0,4.93-1.74,5.28-5h9.34c-.29,7.65-5.45,12.64-15.25,12.64C104,258.37,97.07,253.09,97.07,242.88Z" fill="#fff"/><path d="M130,242.88v-.46c0-9.74,7.25-15.89,16.41-15.89,8.3,0,15.43,4.75,15.43,15.66v2.72H140.51c.29,4,2.61,6.33,6.32,6.33,3.42,0,4.87-1.57,5.28-3.6h9.74c-.93,6.84-6.2,10.73-15.37,10.73C137,258.37,130,252.8,130,242.88Zm21.75-3.82c-.17-3.66-2-5.69-5.34-5.69-3.13,0-5.27,2-5.8,5.69Z" fill="#fff"/><path d="M164.75,252.45a5.79,5.79,0,0,1,5.92-5.85,5.86,5.86,0,1,1,0,11.71A5.79,5.79,0,0,1,164.75,252.45Z" fill="#fff"/><path d="M23,274.2H35v16.42L47.42,274.2H59.83L44.64,293.46l16,22.21H46.9L35,298.33v17.34H23Z" fill="#fff"/><path d="M62.91,285.34H73.29v4.87c1.62-3.13,4.93-5.68,10-5.68,5.86,0,9.92,3.65,9.92,11.42v19.72H82.8V298c0-3.42-1.33-5.1-4.35-5.1s-5.16,1.85-5.16,5.74v17H62.91Z" fill="#fff"/><path d="M96.6,300.88v-.46c0-9.74,7.25-15.89,16.65-15.89s16.53,6,16.53,15.6v.46c0,9.86-7.25,15.78-16.59,15.78S96.6,310.69,96.6,300.88Zm22.62-.17v-.46c0-5.11-2-7.95-6-7.95s-6,2.73-6,7.83v.46c0,5.22,2,8.07,6,8.07S119.22,305.76,119.22,300.71Z" fill="#fff"/><path d="M129.9,285.34h10.84l4.41,18.15,5.1-18.15h8.36l4.52,18.15,4.93-18.15h9.86l-9.63,30.33h-9.92l-4.52-16.93-4.7,16.93H139.06Z" fill="#fff"/><path d="M20.33,365.26c0-7.13,6-9.91,16.13-9.91h2.9v-.7c0-2.9-.7-4.81-4-4.81a3.72,3.72,0,0,0-4.12,3.59H21.49c.47-7.31,6.21-10.9,14.5-10.9S49.68,346,49.68,354v19.66H39.59v-3.53c-1.45,2.2-4.12,4.23-9,4.23C25.15,374.37,20.33,371.7,20.33,365.26Zm19-2.2V361.2H36.63c-4.17,0-6,.82-6,3.31,0,1.74,1.16,2.84,3.6,2.84C37.15,367.35,39.36,365.67,39.36,363.06Z" fill="#fff"/><path d="M52.7,364.05h9.57c.35,2.2,1.33,3.42,4.29,3.42,2.55,0,3.71-1,3.71-2.5s-1.45-2.14-5.62-2.72c-8.12-1.05-11.55-3.42-11.55-9.75,0-6.72,6-10,13-10,7.49,0,12.71,2.55,13.4,9.8H70.1c-.41-2-1.51-3-3.89-3s-3.42,1-3.42,2.38,1.39,2,5.1,2.5c8.41,1,12.47,3.24,12.47,9.74,0,7.19-5.33,10.44-13.74,10.44C58,374.37,52.93,370.77,52.7,364.05Z" fill="#fff"/><path d="M103.79,370.6,91.67,343.34h11.25l6.27,16.18,5.8-16.18h9.92l-16.24,40.48H98.75Z" fill="#fff"/><path d="M124.33,358.88v-.46c0-9.74,7.25-15.89,16.64-15.89s16.53,6,16.53,15.6v.46c0,9.86-7.25,15.78-16.59,15.78S124.33,368.69,124.33,358.88Zm22.62-.17v-.46c0-5.11-2-7.95-6-7.95s-6,2.73-6,7.83v.46c0,5.22,2,8.07,6,8.07S147,363.76,147,358.71Z" fill="#fff"/><path d="M160.92,363.12V343.34h10.39v18.1c0,3.42,1.33,5.1,4.29,5.1,3.13,0,5.16-1.86,5.16-5.74V343.34h10.38v30.33H180.76V369c-1.62,3.13-4.58,5.39-9.63,5.39C165.27,374.37,160.92,370.77,160.92,363.12Z" fill="#fff"/><path d="M20.39,431.67H30.72c.46,2.21,1.79,3.95,5.56,3.95,4.59,0,6.44-2.61,6.44-6.38V424.6a10.63,10.63,0,0,1-9.39,5.57c-7.08,0-12.88-5.22-12.88-14.56v-.47c0-8.93,5.74-14.61,12.88-14.61,4.81,0,7.65,2,9.39,5.1v-4.29H53.1v27.78c0,9.05-6,13.8-16.82,13.8C26,442.92,21.2,438.58,20.39,431.67ZM43,415.55v-.41c0-4.17-2.14-6.84-6-6.84s-6,2.73-6,6.9v.47c0,4.17,2.21,6.84,5.92,6.84S43,419.84,43,415.55Z" fill="#fff"/><path d="M56.76,416.88v-.46c0-9.74,7.25-15.89,16.64-15.89s16.53,6,16.53,15.6v.46c0,9.86-7.25,15.78-16.58,15.78S56.76,426.69,56.76,416.88Zm22.62-.17v-.46c0-5.11-2-7.95-6-7.95s-6,2.73-6,7.83v.46c0,5.22,2,8.07,6,8.07S79.38,421.76,79.38,416.71Z" fill="#fff"/><path d="M91.91,426.45a5.78,5.78,0,0,1,5.91-5.85,5.86,5.86,0,1,1,0,11.71A5.78,5.78,0,0,1,91.91,426.45Z" fill="#fff"/></g></g></svg>