<svg xmlns="http://www.w3.org/2000/svg" viewBox="0 0 728 90"><title>H37</title><g id="Layer_2" data-name="Layer 2"><g id="Rect"><rect width="728" height="90" fill="none"/></g><g id="H37"><g id="Easy_to_switch._Easy_to_save." data-name="Easy to switch. Easy to save."><path d="M122.28,32.26h16.35v5.23H129v4.07h7.64v4.83H129v4.3h10.12v5.23H122.28Z" fill="#fff"/><path d="M140.52,51.13c0-4.08,3.44-5.66,9.2-5.66h1.66v-.4c0-1.66-.4-2.75-2.29-2.75a2.13,2.13,0,0,0-2.35,2h-5.56c.27-4.17,3.55-6.22,8.28-6.22s7.81,2,7.81,6.55V55.92h-5.76v-2a5.7,5.7,0,0,1-5.13,2.41C143.27,56.32,140.52,54.8,140.52,51.13Zm10.86-1.26V48.81h-1.56c-2.38,0-3.44.46-3.44,1.88,0,1,.66,1.63,2.05,1.63C150.12,52.32,151.38,51.36,151.38,49.87Z" fill="#fff"/><path d="M159,50.43h5.46c.2,1.26.76,2,2.45,2,1.46,0,2.12-.56,2.12-1.42s-.83-1.22-3.21-1.56c-4.63-.59-6.59-1.95-6.59-5.56,0-3.84,3.41-5.69,7.42-5.69,4.27,0,7.24,1.46,7.64,5.59h-5.36A1.94,1.94,0,0,0,166.7,42c-1.29,0-1.95.57-1.95,1.36s.79,1.16,2.91,1.42c4.8.6,7.12,1.86,7.12,5.56,0,4.11-3.05,6-7.85,6S159.12,54.27,159,50.43Z" fill="#fff"/><path d="M181.56,54.17l-6.91-15.56h6.42l3.57,9.24L188,38.61h5.66l-9.27,23.11h-5.65Z" fill="#fff"/><path d="M202,50.36V42.65h-2.08v-4H202V35h5.93v3.6h3.41v4h-3.41V49.8c0,1.26.63,1.82,1.75,1.82a4.5,4.5,0,0,0,1.69-.3v4.5a12.37,12.37,0,0,1-3.28.5C204.14,56.32,202,54.43,202,50.36Z" fill="#fff"/><path d="M212.61,47.48v-.26c0-5.56,4.14-9.07,9.5-9.07s9.43,3.41,9.43,8.9v.27c0,5.63-4.13,9-9.46,9S212.61,53.08,212.61,47.48Zm12.91-.1v-.26c0-2.91-1.16-4.53-3.41-4.53s-3.44,1.55-3.44,4.46v.27c0,3,1.16,4.6,3.44,4.6S225.52,50.26,225.52,47.38Z" fill="#fff"/><path d="M238.5,50.43H244c.2,1.26.76,2,2.45,2,1.45,0,2.11-.56,2.11-1.42s-.82-1.22-3.21-1.56c-4.63-.59-6.58-1.95-6.58-5.56,0-3.84,3.41-5.69,7.41-5.69,4.27,0,7.25,1.46,7.65,5.59h-5.37A1.94,1.94,0,0,0,246.21,42c-1.29,0-2,.57-2,1.36s.8,1.16,2.92,1.42c4.8.6,7.11,1.86,7.11,5.56,0,4.11-3,6-7.84,6S238.63,54.27,238.5,50.43Z" fill="#fff"/><path d="M254.35,38.61h6.19L263.06,49,266,38.61h4.76L273.32,49l2.81-10.36h5.62l-5.49,17.31H270.6L268,46.26l-2.68,9.66h-5.76Z" fill="#fff"/><path d="M283.15,33.92a3.09,3.09,0,0,1,3.24-3.08,3.07,3.07,0,1,1,0,6.12A3.06,3.06,0,0,1,283.15,33.92Zm.3,4.69h5.92V55.92h-5.92Z" fill="#fff"/><path d="M293.34,50.36V42.65h-2.08v-4h2.08V35h5.93v3.6h3.41v4h-3.41V49.8c0,1.26.63,1.82,1.75,1.82a4.5,4.5,0,0,0,1.69-.3v4.5a12.37,12.37,0,0,1-3.28.5C295.53,56.32,293.34,54.43,293.34,50.36Z" fill="#fff"/><path d="M304,47.48v-.26c0-5.76,4.14-9.07,9.23-9.07,4.24,0,8.15,1.85,8.48,7.12h-5.56c-.27-1.62-1.06-2.52-2.78-2.52-2.09,0-3.31,1.49-3.31,4.4v.27c0,3,1.16,4.57,3.41,4.57a2.89,2.89,0,0,0,3-2.88h5.33c-.17,4.36-3.11,7.21-8.71,7.21C307.94,56.32,304,53.31,304,47.48Z" fill="#fff"/><path d="M323.73,31h5.92V41.39a6.13,6.13,0,0,1,5.69-3.24c3.35,0,5.66,2.09,5.66,6.52V55.92h-5.92V45.86c0-2-.76-2.91-2.48-2.91s-3,1.06-3,3.28v9.69h-5.92Z" fill="#fff"/><path d="M343.65,53A3.31,3.31,0,0,1,347,49.6a3.35,3.35,0,1,1,0,6.69A3.3,3.3,0,0,1,343.65,53Z" fill="#fff"/><path d="M359.84,32.26h16.35v5.23h-9.6v4.07h7.65v4.83h-7.65v4.3h10.13v5.23H359.84Z" fill="#fff"/><path d="M378.08,51.13c0-4.08,3.44-5.66,9.2-5.66h1.65v-.4c0-1.66-.39-2.75-2.28-2.75a2.13,2.13,0,0,0-2.35,2h-5.56c.26-4.17,3.54-6.22,8.27-6.22s7.81,2,7.81,6.55V55.92h-5.75v-2a5.7,5.7,0,0,1-5.13,2.41C380.82,56.32,378.08,54.8,378.08,51.13Zm10.85-1.26V48.81h-1.55c-2.39,0-3.44.46-3.44,1.88,0,1,.66,1.63,2.05,1.63C387.67,52.32,388.93,51.36,388.93,49.87Z" fill="#fff"/><path d="M396.55,50.43H402c.2,1.26.76,2,2.45,2,1.45,0,2.12-.56,2.12-1.42s-.83-1.22-3.22-1.56c-4.63-.59-6.58-1.95-6.58-5.56,0-3.84,3.41-5.69,7.41-5.69,4.27,0,7.25,1.46,7.65,5.59h-5.36A1.94,1.94,0,0,0,404.26,42c-1.29,0-1.95.57-1.95,1.36s.79,1.16,2.91,1.42c4.8.6,7.11,1.86,7.11,5.56,0,4.11-3,6-7.84,6S396.68,54.27,396.55,50.43Z" fill="#fff"/><path d="M419.12,54.17,412.2,38.61h6.42l3.58,9.24,3.31-9.24h5.66L421.9,61.72h-5.66Z" fill="#fff"/><path d="M439.51,50.36V42.65h-2.09v-4h2.09V35h5.92v3.6h3.41v4h-3.41V49.8a1.58,1.58,0,0,0,1.76,1.82,4.5,4.5,0,0,0,1.69-.3v4.5a12.37,12.37,0,0,1-3.28.5C441.69,56.32,439.51,54.43,439.51,50.36Z" fill="#fff"/><path d="M450.17,47.48v-.26c0-5.56,4.13-9.07,9.5-9.07s9.43,3.41,9.43,8.9v.27c0,5.63-4.14,9-9.47,9S450.17,53.08,450.17,47.48Zm12.91-.1v-.26c0-2.91-1.16-4.53-3.41-4.53s-3.45,1.55-3.45,4.46v.27c0,3,1.16,4.6,3.45,4.6S463.08,50.26,463.08,47.38Z" fill="#fff"/><path d="M476.05,50.43h5.46c.2,1.26.76,2,2.45,2,1.46,0,2.12-.56,2.12-1.42s-.83-1.22-3.21-1.56c-4.63-.59-6.59-1.95-6.59-5.56,0-3.84,3.41-5.69,7.42-5.69,4.27,0,7.25,1.46,7.64,5.59H486A1.94,1.94,0,0,0,483.76,42c-1.29,0-1.95.57-1.95,1.36s.79,1.16,2.91,1.42c4.8.6,7.12,1.86,7.12,5.56,0,4.11-3,6-7.84,6S476.18,54.27,476.05,50.43Z" fill="#fff"/><path d="M492.77,51.13c0-4.08,3.44-5.66,9.2-5.66h1.65v-.4c0-1.66-.39-2.75-2.28-2.75a2.13,2.13,0,0,0-2.35,2h-5.56c.26-4.17,3.54-6.22,8.27-6.22s7.81,2,7.81,6.55V55.92h-5.76v-2c-.82,1.25-2.34,2.41-5.12,2.41C495.51,56.32,492.77,54.8,492.77,51.13Zm10.85-1.26V48.81h-1.55c-2.39,0-3.44.46-3.44,1.88,0,1,.66,1.63,2.05,1.63C502.37,52.32,503.62,51.36,503.62,49.87Z" fill="#fff"/><path d="M510.41,38.61h6.32l3.61,11.16,3.54-11.16h5.66l-6.32,17.31h-6.46Z" fill="#fff"/><path d="M529.18,47.48v-.26c0-5.56,4.13-9.07,9.36-9.07,4.74,0,8.81,2.72,8.81,8.94v1.55H535.17c.16,2.29,1.49,3.61,3.6,3.61s2.78-.89,3-2h5.56c-.53,3.9-3.55,6.12-8.77,6.12C533.15,56.32,529.18,53.14,529.18,47.48Zm12.41-2.18c-.1-2.09-1.13-3.24-3.05-3.24s-3,1.15-3.31,3.24Z" fill="#fff"/><path d="M549,53a3.31,3.31,0,0,1,3.38-3.35,3.35,3.35,0,1,1,0,6.69A3.3,3.3,0,0,1,549,53Z" fill="#fff"/></g></g></g></svg>