<svg xmlns="http://www.w3.org/2000/svg" viewBox="0 0 160 600"><title>H7</title><g data-name="Artboard 2" style="isolation:isolate"><g data-name="Expert tax prep with the snap of some pics. Try Tax Pro Go." fill="#fff"><path d="M23.24 149.46h8.91v2.85h-5.23v2.22h4.16v2.63h-4.16v2.34h5.51v2.85h-9.19zM36.13 157.55l-2.94-4.63h3.71l1.46 2.49 1.42-2.49h3.32l-3 4.38 3.26 5h-3.68L38 159.54l-1.71 2.81H33zM44.29 152.92h3.22v1.41a3.34 3.34 0 0 1 2.94-1.66c2.2 0 4 1.66 4 4.88v.15c0 3.24-1.78 4.86-4 4.86a3.11 3.11 0 0 1-2.92-1.6v4.54h-3.24zm6.86 4.78v-.15c0-1.65-.72-2.45-1.85-2.45s-1.88.85-1.88 2.43v.15c0 1.6.7 2.41 1.88 2.41s1.85-.84 1.85-2.39zM55.1 157.75v-.14a4.82 4.82 0 0 1 5.1-4.94 4.47 4.47 0 0 1 4.8 4.86v.85h-6.64a1.88 1.88 0 0 0 2 2c1.07 0 1.52-.49 1.64-1.12h3c-.29 2.12-1.93 3.33-4.78 3.33s-5.12-1.76-5.12-4.84zm6.75-1.19c-.05-1.13-.61-1.76-1.65-1.76a1.8 1.8 0 0 0-1.81 1.76zM66.1 152.92h3.23v1.88a3 3 0 0 1 3-2v3c-2-.05-3 .56-3 2.08v4.47H66.1zM74.12 159.32v-4.2H73v-2.2h1.13v-2h3.23v2h1.84v2.2h-1.85V159c0 .69.34 1 1 1a2.43 2.43 0 0 0 .92-.16v2.45a6.67 6.67 0 0 1-1.78.27c-2.18 0-3.37-1.02-3.37-3.24zM84.14 159.32v-4.2H83v-2.2h1.14v-2h3.22v2h1.86v2.2h-1.86V159a.86.86 0 0 0 1 1 2.43 2.43 0 0 0 .92-.16v2.45a6.76 6.76 0 0 1-1.79.27c-2.16 0-3.35-1.02-3.35-3.24zM89.94 159.73c0-2.21 1.87-3.08 5-3.08h.9v-.21c0-.91-.22-1.5-1.25-1.5a1.15 1.15 0 0 0-1.27 1.12h-3c.14-2.27 1.93-3.39 4.5-3.39s4.26 1.06 4.26 3.57v6.11h-3.16v-1.1a3.1 3.1 0 0 1-2.79 1.31c-1.7 0-3.19-.83-3.19-2.83zm5.91-.68v-.58H95c-1.3 0-1.87.25-1.87 1 0 .54.36.88 1.11.88.92.03 1.61-.49 1.61-1.3zM103 157.55l-2.94-4.63h3.71l1.46 2.49 1.43-2.49H110l-3 4.38 3.26 5h-3.71l-1.68-2.81-1.71 2.81h-3.3zM23 175.49h3.22v1.41a3.31 3.31 0 0 1 2.94-1.66c2.2 0 4 1.66 4 4.88v.14c0 3.25-1.78 4.87-4 4.87a3.12 3.12 0 0 1-2.92-1.6v4.54H23zm6.86 4.77v-.14c0-1.66-.72-2.45-1.86-2.45s-1.87.85-1.87 2.43v.15c0 1.6.7 2.41 1.87 2.41s1.82-.85 1.82-2.4zM34.27 175.49h3.23v1.87a3 3 0 0 1 3-2v3c-2-.05-3 .56-3 2.07v4.47h-3.23zM41.12 180.32v-.15a4.82 4.82 0 0 1 5.1-4.93A4.47 4.47 0 0 1 51 180.1v.9h-6.62a1.88 1.88 0 0 0 2 2c1.06 0 1.52-.48 1.64-1.11h3c-.29 2.12-1.93 3.33-4.78 3.33s-5.12-1.82-5.12-4.9zm6.75-1.19c0-1.14-.61-1.77-1.65-1.77a1.8 1.8 0 0 0-1.81 1.77zM52.12 175.49h3.23v1.41a3.31 3.31 0 0 1 2.94-1.66c2.2 0 4 1.66 4 4.88v.14c0 3.25-1.78 4.87-4 4.87a3.11 3.11 0 0 1-2.92-1.6v4.54h-3.25zm6.88 4.77v-.14c0-1.66-.72-2.45-1.86-2.45s-1.87.85-1.87 2.43v.15c0 1.6.7 2.41 1.87 2.41s1.86-.85 1.86-2.4zM65.92 175.49h3.37l1.37 5.64 1.59-5.64h2.59l1.41 5.64 1.53-5.64h3.06l-3 9.42h-3.07l-1.4-5.26-1.46 5.26h-3.14zM81.6 172.93a1.68 1.68 0 0 1 1.76-1.68 1.71 1.71 0 0 1 1.79 1.68 1.69 1.69 0 0 1-1.79 1.66 1.66 1.66 0 0 1-1.76-1.66zm.16 2.56H85v9.42h-3.24zM87.15 181.89v-4.2H86v-2.2h1.14v-2h3.22v2h1.86v2.2h-1.85v3.89c0 .69.34 1 1 1a2.43 2.43 0 0 0 .92-.16v2.45a6.76 6.76 0 0 1-1.79.27c-2.16-.01-3.35-1.04-3.35-3.25zM93.45 171.34h3.23V177a3.32 3.32 0 0 1 3.1-1.76c1.82 0 3.08 1.13 3.08 3.55v6.12h-3.23v-5.47c0-1.07-.41-1.59-1.35-1.59s-1.6.58-1.6 1.78v5.28h-3.23zM108.13 181.89v-4.2H107v-2.2h1.13v-2h3.23v2h1.86v2.2h-1.86v3.89c0 .69.34 1 1 1a2.35 2.35 0 0 0 .91-.16v2.45a6.61 6.61 0 0 1-1.78.27c-2.17-.01-3.36-1.04-3.36-3.25zM114.44 171.34h3.23V177a3.32 3.32 0 0 1 3.09-1.76c1.82 0 3.09 1.13 3.09 3.55v6.12h-3.23v-5.47c0-1.07-.41-1.59-1.35-1.59s-1.6.58-1.6 1.78v5.28h-3.23zM124.91 180.32v-.15a4.82 4.82 0 0 1 5.1-4.93 4.47 4.47 0 0 1 4.79 4.86v.9h-6.63a1.88 1.88 0 0 0 2 2c1.07 0 1.52-.48 1.64-1.11h3c-.29 2.12-1.93 3.33-4.78 3.33s-5.12-1.82-5.12-4.9zm6.75-1.19c0-1.14-.61-1.77-1.65-1.77a1.8 1.8 0 0 0-1.81 1.77zM22.32 204.49h3c.11.68.41 1.06 1.33 1.06s1.15-.3 1.15-.77-.45-.67-1.74-.85c-2.53-.32-3.59-1.06-3.59-3s1.86-3.1 4-3.1 3.94.8 4.16 3h-2.9a1.06 1.06 0 0 0-1.21-.94c-.7 0-1.06.31-1.06.74s.43.63 1.59.78c2.61.32 3.87 1 3.87 3 0 2.24-1.66 3.25-4.27 3.25s-4.25-1.08-4.33-3.17zM32 198.06h3.23v1.51a3.33 3.33 0 0 1 3.1-1.77c1.82 0 3.08 1.14 3.08 3.55v6.13h-3.27V202c0-1.06-.41-1.58-1.35-1.58s-1.6.57-1.6 1.78v5.28H32zM42.39 204.87c0-2.22 1.88-3.08 5-3.08h.91v-.22c0-.9-.22-1.49-1.25-1.49a1.16 1.16 0 0 0-1.28 1.11h-3c.15-2.27 1.93-3.39 4.51-3.39s4.25 1.07 4.25 3.57v6.11h-3.15v-1.1a3.09 3.09 0 0 1-2.8 1.32c-1.69 0-3.19-.83-3.19-2.83zm5.92-.69v-.57h-.85c-1.3 0-1.88.25-1.88 1 0 .54.36.89 1.12.89a1.43 1.43 0 0 0 1.61-1.32zM53.08 198.06h3.22v1.4a3.34 3.34 0 0 1 2.94-1.66c2.2 0 4 1.66 4 4.89v.14c0 3.25-1.78 4.87-4 4.87a3.11 3.11 0 0 1-2.92-1.61v4.55h-3.24zm6.86 4.77v-.14c0-1.66-.72-2.45-1.85-2.45s-1.88.84-1.88 2.43v.14c0 1.61.71 2.42 1.88 2.42s1.85-.85 1.85-2.4zM67.17 202.89v-.15a4.84 4.84 0 0 1 5.17-4.94c2.9 0 5.13 1.86 5.13 4.85v.15c0 3.06-2.25 4.9-5.15 4.9s-5.15-1.77-5.15-4.81zm7-.06v-.14c0-1.59-.63-2.47-1.85-2.47s-1.88.85-1.88 2.43v.15c0 1.62.63 2.5 1.88 2.5s1.87-.9 1.87-2.47zM79.09 200.26H77.9v-2.2h1.19v-.83c0-2.34 1.46-3.46 3.7-3.46a5.61 5.61 0 0 1 1.47.2v2.36a2.68 2.68 0 0 0-.88-.13 1 1 0 0 0-1.08 1v.83h1.91v2.2H82.3v7.22h-3.21zM87.94 204.49h3c.11.68.42 1.06 1.33 1.06s1.16-.3 1.16-.77-.45-.67-1.75-.85c-2.52-.32-3.59-1.06-3.59-3s1.86-3.1 4-3.1 4 .8 4.16 3h-2.91a1 1 0 0 0-1.2-.94c-.71 0-1.07.31-1.07.74s.44.63 1.59.78c2.61.32 3.87 1 3.87 3 0 2.24-1.65 3.25-4.27 3.25s-4.26-1.08-4.32-3.17zM97.13 202.89v-.15a4.84 4.84 0 0 1 5.17-4.94c2.9 0 5.13 1.86 5.13 4.85v.15c0 3.06-2.25 4.9-5.15 4.9s-5.15-1.77-5.15-4.81zm7-.06v-.14c0-1.59-.63-2.47-1.85-2.47s-1.88.85-1.88 2.43v.15c0 1.62.63 2.5 1.88 2.5s1.87-.9 1.87-2.47zM108.57 198.06h3.22v1.44a3.32 3.32 0 0 1 3-1.7 2.58 2.58 0 0 1 2.56 1.57 3.72 3.72 0 0 1 3.11-1.57c1.79 0 3.09 1.16 3.09 3.52v6.16h-3.23v-5.62c0-1-.47-1.42-1.21-1.42a1.39 1.39 0 0 0-1.44 1.58v5.46h-3.19v-5.62c0-1-.47-1.42-1.21-1.42a1.39 1.39 0 0 0-1.44 1.58v5.46h-3.22zM124.56 202.89v-.15a4.83 4.83 0 0 1 5.11-4.94 4.47 4.47 0 0 1 4.79 4.87v.85h-6.63a1.88 1.88 0 0 0 2 2c1.06 0 1.51-.49 1.64-1.12h3c-.29 2.13-1.93 3.34-4.78 3.34s-5.13-1.74-5.13-4.85zm6.76-1.19c0-1.14-.61-1.77-1.65-1.77a1.79 1.79 0 0 0-1.81 1.77zM23 220.62h3.22V222a3.33 3.33 0 0 1 2.94-1.66c2.2 0 4 1.66 4 4.89v.14c0 3.24-1.78 4.87-4 4.87a3.11 3.11 0 0 1-2.92-1.61v4.54H23zm6.86 4.78v-.14c0-1.66-.72-2.45-1.86-2.45s-1.87.84-1.87 2.43v.14c0 1.61.7 2.42 1.87 2.42s1.82-.8 1.82-2.4zM34.2 218.07a1.68 1.68 0 0 1 1.8-1.68 1.7 1.7 0 0 1 1.79 1.68 1.69 1.69 0 0 1-1.79 1.65 1.66 1.66 0 0 1-1.8-1.65zm.16 2.55h3.23v9.43h-3.23zM38.81 225.45v-.14a4.74 4.74 0 0 1 5-4.94c2.3 0 4.43 1 4.61 3.88h-3a1.38 1.38 0 0 0-1.51-1.37c-1.14 0-1.8.81-1.8 2.39v.15c0 1.64.63 2.48 1.85 2.48a1.56 1.56 0 0 0 1.64-1.56h2.9c-.09 2.38-1.69 3.93-4.73 3.93-2.77 0-4.96-1.64-4.96-4.82zM49 227.06h3c.1.68.41 1.06 1.33 1.06s1.15-.31 1.15-.77-.45-.67-1.75-.85c-2.52-.33-3.58-1.06-3.58-3s1.85-3.1 4-3.1 3.94.8 4.16 3h-2.86a1.06 1.06 0 0 0-1.21-.94c-.7 0-1.06.31-1.06.74s.43.63 1.58.77c2.62.33 3.88 1 3.88 3 0 2.24-1.66 3.25-4.27 3.25s-4.26-1.07-4.37-3.16zM58.56 228.43a1.79 1.79 0 0 1 1.83-1.82 1.82 1.82 0 1 1 0 3.64 1.79 1.79 0 0 1-1.83-1.82zM69.83 220H66.5v-2.85h10.38V220h-3.33v10h-3.72zM77.4 220.62h3.23v1.88a3 3 0 0 1 3-2v3c-2-.06-3 .56-3 2.07v4.47H77.4zM87.94 229.09l-3.77-8.47h3.5l1.94 5 1.81-5h3.08l-5 12.58h-3.13zM25.71 242.58h-3.33v-2.85h10.38v2.85h-3.34v10h-3.71zM32.11 250c0-2.21 1.87-3.08 5-3.08H38v-.21c0-.91-.22-1.5-1.25-1.5a1.15 1.15 0 0 0-1.27 1.12h-3c.14-2.27 1.93-3.39 4.5-3.39s4.26 1.06 4.26 3.57v6.11h-3.15v-1.1a3.1 3.1 0 0 1-2.79 1.31c-1.7 0-3.19-.83-3.19-2.83zm5.91-.68v-.58h-.85c-1.3 0-1.87.25-1.87 1 0 .54.36.88 1.11.88.92.03 1.59-.49 1.59-1.3zM45.17 247.82l-2.94-4.63h3.71l1.46 2.49 1.43-2.49h3.31l-3 4.38 3.26 5.05h-3.68L47 249.81l-1.71 2.81H42zM56.9 239.73h4.9c3.53 0 5.17 1.57 5.17 4.31v.07c0 2.7-1.82 4.16-5 4.16h-1.4v4.35H56.9zm4.74 6c1.19 0 1.82-.56 1.82-1.62v-.07c0-1.1-.65-1.55-1.81-1.55h-1.08v3.24zM68.08 243.19h3.23v1.88a3 3 0 0 1 3-2v3c-2-.06-3 .55-3 2.07v4.47h-3.23zM74.93 248v-.14a4.84 4.84 0 0 1 5.17-4.94c2.9 0 5.14 1.86 5.14 4.85v.14c0 3.06-2.25 4.9-5.16 4.9s-5.15-1.74-5.15-4.81zm7-.05v-.15c0-1.58-.63-2.47-1.86-2.47s-1.87.85-1.87 2.44v.14c0 1.62.63 2.51 1.87 2.51S82 249.54 82 248zM89.25 246.26v-.15a6.41 6.41 0 0 1 6.75-6.58c3 0 5.75 1.39 6 4.74h-3.65a2 2 0 0 0-2.35-1.83c-1.82 0-2.92 1.4-2.92 3.73v.14c0 2.09.77 3.71 3 3.71 1.8 0 2.49-.92 2.56-1.94h-2.38v-2.58h6.06v1.58c0 3.28-2.15 5.75-6.31 5.75-4.38 0-6.76-2.72-6.76-6.57zM103.05 248v-.14a4.84 4.84 0 0 1 5.17-4.94c2.91 0 5.14 1.86 5.14 4.85v.14c0 3.06-2.25 4.9-5.15 4.9s-5.16-1.74-5.16-4.81zm7-.05v-.15c0-1.58-.63-2.47-1.86-2.47s-1.87.85-1.87 2.44v.14c0 1.62.63 2.51 1.87 2.51s1.89-.88 1.89-2.42zM114 251a1.81 1.81 0 0 1 1.84-1.82 1.82 1.82 0 1 1 0 3.64A1.8 1.8 0 0 1 114 251z"/></g><path fill="none" d="M0 0h160v600H0z"/></g></svg>