<svg xmlns="http://www.w3.org/2000/svg" viewBox="0 0 300 250"><title>H127</title><g id="Layer_2" data-name="Layer 2"><g id="Rect"><rect width="300" height="250" fill="none"/></g><g id="H127"><g id="Garantizamos_un_100_de_exactitud_y_un_100_de_satisfacción." data-name="Garantizamos un 100% de exactitud  y un 100% de  satisfacción."><path d="M19.91,34.79v-.23c0-6.36,4.71-10.65,11-10.65,5,0,9.39,2.24,9.8,7.67h-6c-.3-2-1.56-3-3.8-3-3,0-4.76,2.28-4.76,6v.24c0,3.38,1.26,6,4.91,6,2.94,0,4.06-1.49,4.18-3.15H31.36V33.56h9.88v2.57c0,5.31-3.5,9.31-10.3,9.31C23.8,45.44,19.91,41,19.91,34.79Z" fill="#fff"/><path d="M42.3,40.86c0-3.59,3.06-5,8.18-5H52v-.35c0-1.46-.35-2.42-2-2.42a1.88,1.88,0,0,0-2.09,1.81H42.89c.24-3.68,3.15-5.49,7.35-5.49s6.95,1.72,6.95,5.78v9.89H52.07V43.31a5.07,5.07,0,0,1-4.56,2.13C44.74,45.44,42.3,44.1,42.3,40.86ZM52,39.75v-.93H50.57c-2.12,0-3.06.4-3.06,1.66,0,.87.59,1.43,1.82,1.43C50.83,41.91,52,41.06,52,39.75Z" fill="#fff"/><path d="M59.75,29.83H65v3a4.87,4.87,0,0,1,5-3.24V34.5c-3.21-.09-5,.9-5,3.35v7.24H59.75Z" fill="#fff"/><path d="M70.66,40.86c0-3.59,3.06-5,8.18-5h1.47v-.35c0-1.46-.35-2.42-2-2.42a1.88,1.88,0,0,0-2.09,1.81H71.25c.24-3.68,3.15-5.49,7.36-5.49s6.94,1.72,6.94,5.78v9.89H80.43V43.31a5.06,5.06,0,0,1-4.56,2.13C73.11,45.44,70.66,44.1,70.66,40.86Zm9.65-1.11v-.93H78.93c-2.12,0-3.06.4-3.06,1.66,0,.87.59,1.43,1.83,1.43C79.2,41.91,80.31,41.06,80.31,39.75Z" fill="#fff"/><path d="M88.11,29.83h5.27v2.45a5.43,5.43,0,0,1,5.06-2.86c3,0,5,1.84,5,5.75v9.92H98.2V36.22c0-1.72-.68-2.57-2.21-2.57s-2.61.93-2.61,2.89v8.55H88.11Z" fill="#fff"/><path d="M106.73,40.19v-6.8h-1.85V29.83h1.85V26.65H112v3.18h3v3.56h-3v6.3a1.4,1.4,0,0,0,1.56,1.6,3.93,3.93,0,0,0,1.5-.26v4a11,11,0,0,1-2.91.44C108.68,45.44,106.73,43.77,106.73,40.19Z" fill="#fff"/><path d="M116.91,25.69a2.91,2.91,0,1,1,2.89,2.68A2.75,2.75,0,0,1,116.91,25.69Zm.27,4.14h5.26V45.09h-5.26Z" fill="#fff"/><path d="M124,44.56l6.74-10.79h-6V29.83h13.56v.55l-6.91,10.77h6.56v3.94H124Z" fill="#fff"/><path d="M139,40.86c0-3.59,3.06-5,8.18-5h1.47v-.35c0-1.46-.35-2.42-2-2.42a1.88,1.88,0,0,0-2.09,1.81h-4.94c.23-3.68,3.15-5.49,7.35-5.49s7,1.72,7,5.78v9.89h-5.12V43.31a5.07,5.07,0,0,1-4.56,2.13C141.39,45.44,139,44.1,139,40.86Zm9.65-1.11v-.93h-1.38c-2.12,0-3.06.4-3.06,1.66,0,.87.59,1.43,1.82,1.43C147.48,41.91,148.6,41.06,148.6,39.75Z" fill="#fff"/><path d="M156.4,29.83h5.26v2.33a5.39,5.39,0,0,1,4.83-2.74A4.21,4.21,0,0,1,170.67,32a6.1,6.1,0,0,1,5.08-2.54c2.92,0,5,1.87,5,5.69v10h-5.27V36c0-1.55-.77-2.31-2-2.31a2.27,2.27,0,0,0-2.35,2.57v8.84H166V36c0-1.55-.77-2.31-2-2.31a2.27,2.27,0,0,0-2.36,2.57v8.84H156.4Z" fill="#fff"/><path d="M182.52,37.65v-.23c0-4.91,3.68-8,8.45-8s8.38,3,8.38,7.85v.23c0,5-3.68,7.94-8.41,7.94S182.52,42.58,182.52,37.65ZM194,37.56v-.23c0-2.57-1-4-3-4s-3.06,1.37-3.06,3.94v.23c0,2.63,1,4.06,3.06,4.06S194,40.1,194,37.56Z" fill="#fff"/><path d="M200.26,40.25h4.86c.17,1.1.67,1.72,2.17,1.72,1.3,0,1.89-.5,1.89-1.26s-.74-1.08-2.86-1.37c-4.11-.52-5.85-1.72-5.85-4.9,0-3.39,3-5,6.59-5,3.79,0,6.44,1.28,6.8,4.93h-4.77a1.72,1.72,0,0,0-2-1.52c-1.15,0-1.74.5-1.74,1.2s.71,1,2.59,1.26c4.27.52,6.33,1.63,6.33,4.9,0,3.61-2.71,5.25-7,5.25S200.38,43.63,200.26,40.25Z" fill="#fff"/><path d="M221.24,39.78v-10h5.27v9.1c0,1.72.67,2.57,2.17,2.57s2.62-.93,2.62-2.89V29.83h5.27V45.09H231.3V42.72a5,5,0,0,1-4.88,2.72C223.45,45.44,221.24,43.63,221.24,39.78Z" fill="#fff"/><path d="M239.25,29.83h5.26v2.45a5.44,5.44,0,0,1,5.06-2.86c3,0,5,1.84,5,5.75v9.92h-5.26V36.22c0-1.72-.68-2.57-2.21-2.57s-2.62.93-2.62,2.89v8.55h-5.26Z" fill="#fff"/><path d="M23.94,62.45l-4,2.45v-5l4.83-3.35H30V77.42h-6Z" fill="#fff"/><path d="M32.86,67.44v-.88c0-6.59,4.15-10.3,9.71-10.3s9.7,3.42,9.7,10.19v.81c0,6.63-3.82,10.51-9.82,10.51S32.86,74,32.86,67.44Zm13.38-.06v-.85c0-3.82-1.12-5.74-3.67-5.74s-3.68,1.89-3.68,5.74v.88c0,3.88,1.15,5.72,3.73,5.72S46.24,71.23,46.24,67.38Z" fill="#fff"/><path d="M54,67.44v-.88c0-6.59,4.15-10.3,9.71-10.3s9.71,3.42,9.71,10.19v.81c0,6.63-3.83,10.51-9.83,10.51S54,74,54,67.44Zm13.39-.06v-.85c0-3.82-1.12-5.74-3.68-5.74S60,62.68,60,66.53v.88c0,3.88,1.15,5.72,3.74,5.72S67.34,71.23,67.34,67.38Z" fill="#fff"/><path d="M74.52,61.52a5.28,5.28,0,0,1,5.59-5.2c3.15,0,5.56,2.13,5.56,5.11a5.25,5.25,0,0,1-5.59,5.37C76.61,66.8,74.52,64.52,74.52,61.52Zm17.33-5h2.88L80.14,77.42H77.25Zm-10.07,5c0-1.37-.58-2.22-1.67-2.22s-1.74.82-1.74,2.19.65,2.27,1.74,2.27S81.78,62.89,81.78,61.52Zm4.45,11a5.28,5.28,0,0,1,5.59-5.2c3.17,0,5.56,2.1,5.56,5.11a5.25,5.25,0,0,1-5.59,5.37C88.32,77.77,86.23,75.49,86.23,72.49Zm7.29,0c0-1.35-.59-2.19-1.7-2.19s-1.71.82-1.71,2.19.65,2.24,1.71,2.24S93.52,73.86,93.52,72.46Z" fill="#fff"/><path d="M103.82,70v-.24c0-5.19,2.88-8,6.53-8a5,5,0,0,1,4.74,2.57V55.45h5.26v22h-5.26V74.94a5.21,5.21,0,0,1-4.8,2.83C106.73,77.77,103.82,75.23,103.82,70Zm11.42-.09v-.23c0-2.57-1.09-3.94-3-3.94s-3,1.31-3,4v.23c0,2.57,1.14,3.88,3,3.88S115.24,72.46,115.24,69.86Z" fill="#fff"/><path d="M122.21,70v-.24c0-4.9,3.68-8,8.33-8,4.2,0,7.82,2.39,7.82,7.88V71H127.54a3.05,3.05,0,0,0,3.2,3.18c1.74,0,2.47-.79,2.68-1.81h4.94c-.47,3.44-3.15,5.4-7.8,5.4C125.74,77.77,122.21,75,122.21,70Zm11-1.93c-.09-1.84-1-2.86-2.7-2.86s-2.68,1-2.95,2.86Z" fill="#fff"/><path d="M144.72,70v-.24c0-4.9,3.67-8,8.32-8,4.21,0,7.83,2.39,7.83,7.88V71H150a3.07,3.07,0,0,0,3.21,3.18c1.73,0,2.47-.79,2.68-1.81h4.94c-.47,3.44-3.15,5.4-7.8,5.4C148.25,77.77,144.72,75,144.72,70Zm11-1.93c-.09-1.84-1-2.86-2.71-2.86s-2.67,1-2.94,2.86Z" fill="#fff"/><path d="M165.75,69.66,161,62.16H167l2.38,4,2.32-4h5.42l-4.86,7.09,5.33,8.17h-6.06l-2.74-4.55L166,77.42h-5.39Z" fill="#fff"/><path d="M178,73.19c0-3.59,3.06-5,8.18-5h1.47v-.35c0-1.46-.35-2.42-2-2.42a1.88,1.88,0,0,0-2.09,1.8h-4.94c.24-3.67,3.15-5.48,7.36-5.48s6.94,1.72,6.94,5.78v9.89h-5.12V75.64a5.07,5.07,0,0,1-4.56,2.13C180.43,77.77,178,76.42,178,73.19Zm9.65-1.11v-.94h-1.38c-2.12,0-3.06.41-3.06,1.67,0,.87.59,1.43,1.82,1.43C186.52,74.24,187.64,73.39,187.64,72.08Z" fill="#fff"/><path d="M194.61,70v-.24c0-5.07,3.68-8,8.21-8,3.77,0,7.24,1.63,7.53,6.27h-4.94a2.26,2.26,0,0,0-2.47-2.22c-1.85,0-2.94,1.32-2.94,3.89v.23c0,2.65,1,4,3,4a2.55,2.55,0,0,0,2.68-2.53h4.73c-.15,3.85-2.76,6.36-7.73,6.36C198.12,77.77,194.61,75.11,194.61,70Z" fill="#fff"/><path d="M212.86,72.52v-6.8H211V62.16h1.86V59h5.26v3.18h3v3.56h-3V72a1.4,1.4,0,0,0,1.56,1.6,3.93,3.93,0,0,0,1.5-.26v4a11.38,11.38,0,0,1-2.91.44C214.8,77.77,212.86,76.1,212.86,72.52Z" fill="#fff"/><path d="M223,58a2.91,2.91,0,1,1,2.89,2.68A2.75,2.75,0,0,1,223,58Zm.27,4.14h5.27V77.42H223.3Z" fill="#fff"/><path d="M232.1,72.52v-6.8h-1.86V62.16h1.86V59h5.26v3.18h3v3.56h-3V72a1.4,1.4,0,0,0,1.56,1.6,3.93,3.93,0,0,0,1.5-.26v4a11.23,11.23,0,0,1-2.91.44C234,77.77,232.1,76.1,232.1,72.52Z" fill="#fff"/><path d="M242.28,72.11v-10h5.26v9.1c0,1.72.68,2.57,2.18,2.57s2.62-.94,2.62-2.89V62.16h5.26V77.42h-5.26V75.05a5.08,5.08,0,0,1-4.89,2.72C244.48,77.77,242.28,76,242.28,72.11Z" fill="#fff"/><path d="M259.52,70v-.24c0-5.19,2.88-8,6.53-8a5,5,0,0,1,4.73,2.57V55.45h5.27v22h-5.27V74.94A5.19,5.19,0,0,1,266,77.77C262.43,77.77,259.52,75.23,259.52,70Zm11.41-.09v-.23c0-2.57-1.09-3.94-3-3.94s-3,1.31-3,4v.23c0,2.57,1.15,3.88,3,3.88S270.93,72.46,270.93,69.86Z" fill="#fff"/><path d="M25.38,108.2,19.24,94.49h5.7l3.18,8.14,2.94-8.14h5l-8.24,20.36h-5Z" fill="#fff"/><path d="M42.68,104.43V94.49H48v9.1c0,1.72.68,2.57,2.18,2.57s2.62-.94,2.62-2.89V94.49H58v15.25H52.75v-2.36a5.07,5.07,0,0,1-4.89,2.71C44.89,110.09,42.68,108.29,42.68,104.43Z" fill="#fff"/><path d="M60.69,94.49H66v2.45A5.43,5.43,0,0,1,71,94.08c3,0,5,1.84,5,5.75v9.91H70.78v-8.86c0-1.73-.68-2.57-2.21-2.57S66,99.24,66,101.2v8.54H60.69Z" fill="#fff"/><path d="M87.34,94.78l-4,2.45v-5l4.83-3.36h5.21v20.86h-6Z" fill="#fff"/><path d="M96.26,99.77v-.88c0-6.59,4.15-10.3,9.71-10.3s9.71,3.42,9.71,10.18v.82c0,6.62-3.83,10.5-9.83,10.5S96.26,106.33,96.26,99.77Zm13.39-.06v-.85c0-3.82-1.12-5.74-3.68-5.74s-3.68,1.89-3.68,5.74v.88c0,3.88,1.15,5.72,3.74,5.72S109.65,103.56,109.65,99.71Z" fill="#fff"/><path d="M117.35,99.77v-.88c0-6.59,4.15-10.3,9.71-10.3s9.71,3.42,9.71,10.18v.82c0,6.62-3.82,10.5-9.82,10.5S117.35,106.33,117.35,99.77Zm13.39-.06v-.85c0-3.82-1.12-5.74-3.68-5.74s-3.67,1.89-3.67,5.74v.88c0,3.88,1.14,5.72,3.73,5.72S130.74,103.56,130.74,99.71Z" fill="#fff"/><path d="M137.92,93.84a5.28,5.28,0,0,1,5.59-5.19c3.15,0,5.56,2.13,5.56,5.11a5.25,5.25,0,0,1-5.59,5.36C140,99.12,137.92,96.85,137.92,93.84Zm17.33-5h2.88l-14.59,20.86h-2.88Zm-10.06,5c0-1.37-.59-2.21-1.68-2.21s-1.74.81-1.74,2.19.65,2.27,1.74,2.27S145.19,95.22,145.19,93.84Zm4.44,11a5.28,5.28,0,0,1,5.59-5.19c3.18,0,5.56,2.1,5.56,5.11a5.25,5.25,0,0,1-5.59,5.36C151.72,110.09,149.63,107.82,149.63,104.81Zm7.29,0c0-1.35-.58-2.19-1.7-2.19s-1.71.81-1.71,2.19.65,2.24,1.71,2.24S156.92,106.19,156.92,104.79Z" fill="#fff"/><path d="M167.22,102.28V102c0-5.19,2.89-8,6.53-8a5,5,0,0,1,4.74,2.57V87.78h5.27v22h-5.27v-2.48a5.17,5.17,0,0,1-4.79,2.83C170.14,110.09,167.22,107.56,167.22,102.28Zm11.42-.09V102c0-2.57-1.09-3.94-3-3.94s-3,1.31-3,4v.24c0,2.57,1.14,3.88,3,3.88S178.64,104.79,178.64,102.19Z" fill="#fff"/><path d="M185.61,102.31v-.24c0-4.9,3.68-8,8.33-8,4.2,0,7.82,2.39,7.82,7.88v1.37H190.94a3.05,3.05,0,0,0,3.2,3.18c1.74,0,2.47-.79,2.68-1.81h4.94c-.47,3.44-3.15,5.39-7.79,5.39C189.14,110.09,185.61,107.29,185.61,102.31Zm11-1.93c-.08-1.84-1-2.86-2.7-2.86s-2.68,1-2.94,2.86Z" fill="#fff"/><path d="M19.53,137.23h4.85c.18,1.11.68,1.72,2.18,1.72,1.29,0,1.88-.49,1.88-1.25s-.73-1.08-2.85-1.37c-4.12-.53-5.85-1.73-5.85-4.91,0-3.38,3-5,6.59-5,3.79,0,6.44,1.28,6.79,4.93H28.36a1.73,1.73,0,0,0-2-1.52c-1.14,0-1.73.5-1.73,1.2s.7,1,2.59,1.25c4.26.53,6.32,1.63,6.32,4.9,0,3.62-2.7,5.25-7,5.25S19.65,140.61,19.53,137.23Z" fill="#fff"/><path d="M34.39,137.84c0-3.59,3.06-5,8.18-5H44v-.35c0-1.46-.36-2.42-2-2.42a1.88,1.88,0,0,0-2.09,1.81H35c.23-3.68,3.14-5.48,7.35-5.48s6.94,1.72,6.94,5.77v9.89H44.15v-1.78a5,5,0,0,1-4.56,2.13C36.83,142.42,34.39,141.08,34.39,137.84ZM44,136.73v-.93H42.65c-2.11,0-3.06.41-3.06,1.66,0,.88.59,1.43,1.83,1.43C42.92,138.89,44,138.05,44,136.73Z" fill="#fff"/><path d="M52.45,137.17v-6.8H50.6v-3.56h1.85v-3.18h5.27v3.18h3v3.56h-3v6.31a1.4,1.4,0,0,0,1.56,1.6,4.14,4.14,0,0,0,1.5-.26v4a11.46,11.46,0,0,1-2.92.43C54.39,142.42,52.45,140.76,52.45,137.17Z" fill="#fff"/><path d="M62.63,122.67a2.91,2.91,0,1,1,2.89,2.69A2.74,2.74,0,0,1,62.63,122.67Zm.27,4.14h5.26v15.26H62.9Z" fill="#fff"/><path d="M70,137.23h4.85C75,138.34,75.49,139,77,139c1.29,0,1.88-.49,1.88-1.25s-.73-1.08-2.85-1.37c-4.12-.53-5.86-1.73-5.86-4.91,0-3.38,3-5,6.59-5,3.8,0,6.45,1.28,6.8,4.93H78.78a1.71,1.71,0,0,0-2-1.52c-1.14,0-1.73.5-1.73,1.2s.7,1,2.59,1.25c4.26.53,6.32,1.63,6.32,4.9,0,3.62-2.71,5.25-7,5.25S70.08,140.61,70,137.23Z" fill="#fff"/><path d="M86.49,130.37H84.55v-3.56h1.94v-1.34c0-3.79,2.39-5.6,6-5.6a9.79,9.79,0,0,1,2.42.32V124a5.22,5.22,0,0,0-1.45-.2,1.54,1.54,0,0,0-1.76,1.66v1.34h3.12v3.56H91.73v11.7H86.49Z" fill="#fff"/><path d="M95.44,137.84c0-3.59,3.06-5,8.17-5h1.48v-.35c0-1.46-.36-2.42-2-2.42a1.88,1.88,0,0,0-2.09,1.81H96c.24-3.68,3.15-5.48,7.36-5.48s6.94,1.72,6.94,5.77v9.89H105.2v-1.78a5.06,5.06,0,0,1-4.56,2.13C97.88,142.42,95.44,141.08,95.44,137.84Zm9.65-1.11v-.93H103.7c-2.12,0-3.06.41-3.06,1.66,0,.88.59,1.43,1.83,1.43C104,138.89,105.09,138.05,105.09,136.73Z" fill="#fff"/><path d="M112.06,134.63v-.23c0-5.08,3.68-8,8.21-8,3.76,0,7.23,1.63,7.53,6.27h-4.94a2.28,2.28,0,0,0-2.48-2.22c-1.85,0-2.94,1.31-2.94,3.88v.24c0,2.65,1,4,3,4a2.56,2.56,0,0,0,2.68-2.54h4.74c-.15,3.85-2.77,6.36-7.74,6.36C115.56,142.42,112.06,139.77,112.06,134.63Z" fill="#fff"/><path d="M128.77,134.63v-.23c0-5.08,3.68-8,8.21-8,3.76,0,7.23,1.63,7.53,6.27h-4.94a2.27,2.27,0,0,0-2.47-2.22c-1.86,0-2.95,1.31-2.95,3.88v.24c0,2.65,1,4,3,4a2.56,2.56,0,0,0,2.68-2.54h4.74c-.15,3.85-2.77,6.36-7.74,6.36C132.27,142.42,128.77,139.77,128.77,134.63Z" fill="#fff"/><path d="M146.19,122.67a2.9,2.9,0,1,1,2.88,2.69A2.74,2.74,0,0,1,146.19,122.67Zm.26,4.14h5.27v15.26h-5.27Z" fill="#fff"/><path d="M153.72,134.63v-.23c0-4.9,3.68-8,8.44-8s8.39,3,8.39,7.84v.24c0,5-3.68,7.93-8.42,7.93S153.72,139.56,153.72,134.63Zm11.47-.08v-.24c0-2.56-1-4-3-4s-3.06,1.37-3.06,3.93v.24c0,2.62,1,4,3.06,4S165.19,137.08,165.19,134.55Zm-3.53-14.33H167l-3.09,4.84H160.1Z" fill="#fff"/><path d="M172.4,126.81h5.27v2.46a5.43,5.43,0,0,1,5.06-2.86c3,0,5,1.83,5,5.74v9.92h-5.27V133.2c0-1.72-.67-2.56-2.2-2.56s-2.62.93-2.62,2.89v8.54H172.4Z" fill="#fff"/><path d="M190.11,139.45a2.92,2.92,0,0,1,3-2.95,2.95,2.95,0,1,1,0,5.89A2.92,2.92,0,0,1,190.11,139.45Z" fill="#fff"/></g></g></g></svg>