<svg xmlns="http://www.w3.org/2000/svg" viewBox="0 0 600 500"><title>Asset 3</title><rect width="600" height="500" fill="none"/><path d="M41.86,66.81H69.52v8.85H53.28v6.88H66.22v8.18H53.28V98H70.42v8.85H41.86Z" fill="#fff"/><path d="M72.71,98.72c0-6.88,5.82-9.57,15.56-9.57h2.8v-.67c0-2.8-.67-4.65-3.86-4.65a3.6,3.6,0,0,0-4,3.47h-9.4c.45-7,6-10.52,14-10.52S101,80.08,101,87.86v19H91.3v-3.42c-1.4,2.13-4,4.09-8.68,4.09C77.36,107.51,72.71,104.94,72.71,98.72Zm18.36-2.13V94.8H88.44c-4,0-5.82.79-5.82,3.19,0,1.68,1.12,2.75,3.47,2.75C88.94,100.74,91.07,99.11,91.07,96.59Z" fill="#fff"/><path d="M104,97.55h9.23c.34,2.12,1.29,3.3,4.15,3.3,2.46,0,3.58-.95,3.58-2.41s-1.4-2.07-5.43-2.63c-7.84-1-11.14-3.3-11.14-9.41,0-6.49,5.76-9.62,12.54-9.62,7.22,0,12.26,2.46,12.93,9.46h-9.07c-.39-2-1.45-2.91-3.75-2.91s-3.3,1-3.3,2.29,1.34,2,4.92,2.41c8.12,1,12,3.13,12,9.4,0,6.95-5.15,10.08-13.27,10.08C109,107.51,104.17,104,104,97.55Z" fill="#fff"/><path d="M142.13,103.87l-11.7-26.31h10.86l6,15.62,5.6-15.62h9.57l-15.67,39.08h-9.57Z" fill="#fff"/><path d="M173.81,92.51v-.45c0-10,5.49-15.28,12.43-15.28,4.59,0,7.33,2,9,4.92v-17h10v42.16h-10v-4.76a9.86,9.86,0,0,1-9.12,5.43C179.35,107.51,173.81,102.64,173.81,92.51Zm21.72-.17v-.45c0-4.93-2.07-7.56-5.76-7.56S184,86.85,184,92v.45c0,4.92,2.18,7.44,5.65,7.44C193.29,99.84,195.53,97.32,195.53,92.34Z" fill="#fff"/><path d="M208.8,92.56v-.44c0-9.41,7-15.34,16.07-15.34s15.95,5.76,15.95,15.06v.44c0,9.52-7,15.23-16,15.23S208.8,102,208.8,92.56Zm21.83-.16V92c0-4.93-2-7.67-5.76-7.67S219,86.91,219,91.84v.44c0,5,2,7.79,5.83,7.79S230.63,97.27,230.63,92.4Z" fill="#fff"/><path d="M242.78,92.56v-.44c0-9.41,7-15.34,15.84-15.34,8,0,14.9,4.59,14.9,15.11v2.63H252.91c.28,3.87,2.52,6.1,6.11,6.1,3.3,0,4.7-1.51,5.09-3.47h9.41c-.9,6.61-6,10.36-14.84,10.36C249.5,107.51,242.78,102.14,242.78,92.56Zm21-3.69c-.16-3.53-1.9-5.49-5.15-5.49-3,0-5.09,2-5.59,5.49Z" fill="#fff"/><path d="M275.3,97.55h9.24c.34,2.12,1.29,3.3,4.15,3.3,2.46,0,3.58-.95,3.58-2.41s-1.4-2.07-5.43-2.63c-7.84-1-11.14-3.3-11.14-9.41,0-6.49,5.76-9.62,12.54-9.62,7.22,0,12.26,2.46,12.93,9.46H292.1c-.39-2-1.46-2.91-3.75-2.91s-3.3,1-3.3,2.29,1.34,2,4.92,2.41c8.12,1,12,3.13,12,9.4,0,6.95-5.15,10.08-13.27,10.08C280.4,107.51,275.53,104,275.3,97.55Z" fill="#fff"/><path d="M315.22,69.61a5.53,5.53,0,1,1,5.49,5.15A5.23,5.23,0,0,1,315.22,69.61Zm.5,8h10v29.28h-10Z" fill="#fff"/><path d="M332.46,97.43v-13h-3.52V77.56h3.52v-6.1h10v6.1h5.77v6.83h-5.77V96.48c0,2.13,1.07,3.08,3,3.08a7.8,7.8,0,0,0,2.86-.5v7.61a21,21,0,0,1-5.55.84C336.16,107.51,332.46,104.32,332.46,97.43Z" fill="#fff"/><path d="M351.66,101.8a5.58,5.58,0,0,1,5.71-5.65,5.66,5.66,0,1,1,0,11.31A5.59,5.59,0,0,1,351.66,101.8Z" fill="#fff"/><path d="M376.46,94.13h10.92c.28,2.86,1.57,5.21,6.33,5.21,3.3,0,5.15-1.63,5.15-4s-1.51-3.13-6.33-3.86c-11.31-1.34-15.11-4.7-15.11-12.76,0-7.23,5.93-12.49,15.5-12.49s15.06,4,15.79,12.49H398.07c-.39-2.86-2-4.32-5.15-4.32s-4.64,1.4-4.64,3.42c0,2.24,1.23,3.25,6.21,3.92,10.13,1.12,15.34,3.75,15.34,12.43,0,7.33-5.82,13.32-16.12,13.32C382.51,107.51,376.8,102.81,376.46,94.13Z" fill="#fff"/><path d="M410.67,77.56h10.47l4.25,17.52,4.93-17.52h8.06l4.37,17.52,4.76-17.52H457l-9.29,29.28h-9.57l-4.37-16.35-4.54,16.35h-9.74Z" fill="#fff"/><path d="M459.37,69.61a5.53,5.53,0,1,1,5.49,5.15A5.23,5.23,0,0,1,459.37,69.61Zm.51,8h10v29.28h-10Z" fill="#fff"/><path d="M476.61,97.43v-13h-3.52V77.56h3.52v-6.1h10v6.1h5.77v6.83h-5.77V96.48c0,2.13,1.07,3.08,3,3.08a7.8,7.8,0,0,0,2.86-.5v7.61a20.86,20.86,0,0,1-5.54.84C480.31,107.51,476.61,104.32,476.61,97.43Z" fill="#fff"/><path d="M494.64,92.56v-.44c0-9.75,7-15.34,15.62-15.34,7.16,0,13.77,3.13,14.33,12h-9.4c-.45-2.74-1.8-4.25-4.71-4.25-3.52,0-5.6,2.52-5.6,7.44v.45c0,5.1,2,7.73,5.77,7.73,2.8,0,4.76-1.68,5.1-4.87h9c-.28,7.39-5.26,12.2-14.73,12.2C501.3,107.51,494.64,102.42,494.64,92.56Z" fill="#fff"/><path d="M528,64.68h10V82.26a10.34,10.34,0,0,1,9.63-5.48c5.66,0,9.58,3.52,9.58,11v19h-10v-17c0-3.3-1.29-4.93-4.2-4.93s-5,1.8-5,5.55v16.4H528Z" fill="#fff"/><path d="M42.31,165.08V152H38.78V145.2h3.53v-6.1h10v6.1H58.1V152H52.33v12.09c0,2.13,1.07,3.08,3,3.08a7.51,7.51,0,0,0,2.85-.5v7.61a20.79,20.79,0,0,1-5.54.84C46,175.15,42.31,172,42.31,165.08Z" fill="#fff"/><path d="M60.34,160.21v-.45c0-9.41,7-15.34,16.06-15.34s16,5.76,16,15.06v.45c0,9.51-7,15.22-16,15.22S60.34,169.67,60.34,160.21ZM82.17,160v-.45c0-4.93-2-7.67-5.77-7.67s-5.82,2.63-5.82,7.56v.45c0,5,2,7.78,5.82,7.78S82.17,164.91,82.17,160Z" fill="#fff"/><path d="M107,134.45h17.86c9.46,0,13.49,4.26,13.49,10.47v.23c0,4.47-2.3,7.44-6.77,8.62,4.92.84,8,3.8,8,9.35v.22c0,7.17-4.65,11.14-14.55,11.14H107Zm15.56,15.9c3.59,0,4.93-1.23,4.93-4.08V146c0-2.74-1.46-4-4.93-4h-4.36v8.28Zm.39,16.46c3.64,0,5.32-1.68,5.32-4.64v-.23c0-3-1.62-4.59-5.65-4.59h-4.42v9.46Z" fill="#fff"/><path d="M143.52,132.33h10v42.15h-10Z" fill="#fff"/><path d="M157.29,160.21v-.45c0-9.41,7-15.34,16.07-15.34s16,5.76,16,15.06v.45c0,9.51-7,15.22-16,15.22S157.29,169.67,157.29,160.21Zm21.84-.17v-.45c0-4.93-2-7.67-5.77-7.67s-5.82,2.63-5.82,7.56v.45c0,5,2,7.78,5.82,7.78S179.13,164.91,179.13,160Z" fill="#fff"/><path d="M191.27,160.21v-.45c0-9.74,7-15.34,15.62-15.34,7.17,0,13.78,3.13,14.34,12h-9.41c-.45-2.75-1.79-4.26-4.7-4.26-3.53,0-5.6,2.52-5.6,7.45v.44c0,5.1,2,7.73,5.77,7.73,2.8,0,4.76-1.68,5.09-4.87h9c-.28,7.39-5.26,12.2-14.72,12.2C197.94,175.15,191.27,170.06,191.27,160.21Z" fill="#fff"/><path d="M224.64,132.33h10v24.46l7.9-11.59H253l-9.57,13.16,10.35,16.12H242.56l-7.9-12.82v12.82h-10Z" fill="#fff"/><path d="M266.07,137.25a5.52,5.52,0,1,1,5.48,5.15A5.23,5.23,0,0,1,266.07,137.25Zm.5,7.95h10v29.28h-10Z" fill="#fff"/><path d="M282,145.2h10v4.7c1.56-3,4.75-5.48,9.63-5.48,5.65,0,9.57,3.53,9.57,11v19h-10v-17c0-3.3-1.29-4.92-4.2-4.92s-5,1.79-5,5.54v16.4H282Z" fill="#fff"/><path d="M324.57,166.36c0-6.88,5.82-9.57,15.56-9.57h2.8v-.67c0-2.8-.67-4.65-3.86-4.65a3.6,3.6,0,0,0-4,3.47h-9.4c.44-7.05,6-10.52,14-10.52s13.21,3.3,13.21,11.08v19h-9.74v-3.41c-1.4,2.12-4,4.08-8.67,4.08C329.21,175.15,324.57,172.58,324.57,166.36Zm18.36-2.12v-1.79H340.3c-4,0-5.82.78-5.82,3.19,0,1.68,1.11,2.74,3.47,2.74C340.8,168.38,342.93,166.76,342.93,164.24Z" fill="#fff"/><path d="M355.8,165.19H365c.34,2.13,1.29,3.3,4.14,3.3,2.47,0,3.59-1,3.59-2.41s-1.4-2.07-5.43-2.63c-7.84-1-11.14-3.3-11.14-9.4,0-6.5,5.76-9.63,12.54-9.63,7.22,0,12.26,2.46,12.93,9.46H372.6c-.39-2-1.46-2.91-3.75-2.91s-3.3.95-3.3,2.29,1.34,2,4.92,2.41c8.12,1,12,3.14,12,9.41,0,6.94-5.15,10.07-13.27,10.07C360.9,175.15,356,171.68,355.8,165.19Z" fill="#fff"/><path d="M396.22,132.33h10v42.15h-10Z" fill="#fff"/><path d="M411.34,137.25a5.23,5.23,0,0,1,5.48-5.2,5.19,5.19,0,1,1,0,10.35A5.18,5.18,0,0,1,411.34,137.25Zm.5,7.95h10v29.28h-10Z" fill="#fff"/><path d="M428.58,165.08V152h-3.53V145.2h3.53v-6.1h10v6.1h5.77V152H438.6v12.09c0,2.13,1.07,3.08,3,3.08a7.51,7.51,0,0,0,2.85-.5v7.61a20.79,20.79,0,0,1-5.54.84C432.28,175.15,428.58,172,428.58,165.08Z" fill="#fff"/><path d="M449.52,165.08V152H446V145.2h3.53v-6.1h10v6.1h5.76V152h-5.76v12.09c0,2.13,1.06,3.08,3,3.08a7.59,7.59,0,0,0,2.86-.5v7.61a20.86,20.86,0,0,1-5.54.84C453.21,175.15,449.52,172,449.52,165.08Z" fill="#fff"/><path d="M469.39,132.33h10v42.15h-10Z" fill="#fff"/><path d="M483.16,160.21v-.45c0-9.41,7-15.34,15.84-15.34,8,0,14.9,4.59,14.9,15.11v2.64H493.29c.28,3.86,2.52,6.1,6.11,6.1,3.3,0,4.7-1.51,5.09-3.47h9.41c-.9,6.6-6,10.35-14.84,10.35C489.88,175.15,483.16,169.78,483.16,160.21Zm21-3.7C504,153,502.25,151,499,151c-3,0-5.09,2-5.59,5.49Z" fill="#fff"/><path d="M39.29,234c0-6.89,5.82-9.58,15.56-9.58h2.8v-.67c0-2.8-.67-4.65-3.86-4.65a3.61,3.61,0,0,0-4,3.48h-9.4c.44-7.06,6-10.53,14-10.53s13.22,3.3,13.22,11.09v19H57.87v-3.41c-1.39,2.13-4,4.09-8.67,4.09C43.93,242.8,39.29,240.22,39.29,234Zm18.36-2.13v-1.79H55c-4,0-5.82.78-5.82,3.19,0,1.68,1.12,2.74,3.47,2.74C55.52,236,57.65,234.4,57.65,231.88Z" fill="#fff"/><path d="M70.52,232.83h9.24c.34,2.13,1.29,3.3,4.15,3.3,2.46,0,3.58-.95,3.58-2.4s-1.4-2.08-5.43-2.63c-7.84-1-11.14-3.31-11.14-9.41,0-6.49,5.76-9.63,12.54-9.63,7.22,0,12.26,2.46,12.93,9.46H87.32c-.39-2-1.46-2.91-3.75-2.91s-3.3.95-3.3,2.3,1.34,2,4.92,2.4c8.12,1,12,3.14,12,9.41,0,6.94-5.15,10.08-13.27,10.08C75.62,242.8,70.75,239.32,70.52,232.83Z" fill="#fff"/><path d="M112,232.72V219.67h-3.53v-6.83H112v-6.1h10v6.1h5.76v6.83H122v12.1c0,2.12,1.06,3.08,3,3.08a7.5,7.5,0,0,0,2.85-.51V242a21.28,21.28,0,0,1-5.54.84C115.7,242.8,112,239.6,112,232.72Z" fill="#fff"/><path d="M129.14,212.84h10.47l4.25,17.53,4.93-17.53h8.06l4.37,17.53L166,212.84h9.52l-9.29,29.28h-9.58l-4.36-16.34-4.54,16.34H138Z" fill="#fff"/><path d="M175.21,227.85v-.45c0-9.41,7-15.34,16.07-15.34s15.95,5.77,15.95,15.06v.45c0,9.52-7,15.23-16,15.23S175.21,237.31,175.21,227.85Zm21.83-.17v-.45c0-4.92-2-7.67-5.76-7.67s-5.82,2.63-5.82,7.56v.45c0,5,1.95,7.78,5.82,7.78S197,232.55,197,227.68Z" fill="#fff"/><path d="M219.38,227.85v-.45c0-9.74,7-15.34,15.62-15.34,7.16,0,13.77,3.14,14.33,12h-9.41c-.44-2.75-1.79-4.26-4.7-4.26-3.52,0-5.6,2.52-5.6,7.45v.45c0,5.09,2,7.72,5.77,7.72,2.8,0,4.76-1.68,5.09-4.87h9c-.28,7.39-5.26,12.21-14.73,12.21C226,242.8,219.38,237.7,219.38,227.85Z" fill="#fff"/><path d="M253,200h10v42.15H253Z" fill="#fff"/><path d="M268.14,204.89a5.23,5.23,0,0,1,5.48-5.2,5.19,5.19,0,1,1,0,10.35A5.18,5.18,0,0,1,268.14,204.89Zm.5,8h10v29.28h-10Z" fill="#fff"/><path d="M282.47,227.85v-.45c0-9.74,7-15.34,15.62-15.34,7.16,0,13.77,3.14,14.33,12H303c-.45-2.75-1.8-4.26-4.71-4.26-3.52,0-5.6,2.52-5.6,7.45v.45c0,5.09,2,7.72,5.77,7.72,2.8,0,4.76-1.68,5.1-4.87h9c-.28,7.39-5.26,12.21-14.73,12.21C289.13,242.8,282.47,237.7,282.47,227.85Z" fill="#fff"/><path d="M315.83,200h10v24.46l7.9-11.59h10.41L334.59,226,345,242.12h-11.2l-7.9-12.82v12.82h-10Z" fill="#fff"/><path d="M344.61,232.83h9.24c.33,2.13,1.28,3.3,4.14,3.3,2.46,0,3.58-.95,3.58-2.4s-1.4-2.08-5.43-2.63c-7.84-1-11.14-3.31-11.14-9.41,0-6.49,5.77-9.63,12.54-9.63,7.22,0,12.26,2.46,12.93,9.46H361.4c-.39-2-1.45-2.91-3.75-2.91s-3.3.95-3.3,2.3,1.34,2,4.93,2.4c8.11,1,12,3.14,12,9.41,0,6.94-5.15,10.08-13.27,10.08C349.7,242.8,344.83,239.32,344.61,232.83Z" fill="#fff"/><path d="M374.17,237.09a5.59,5.59,0,0,1,5.71-5.66,5.66,5.66,0,1,1,0,11.31A5.58,5.58,0,0,1,374.17,237.09Z" fill="#fff"/></svg>