<svg xmlns="http://www.w3.org/2000/svg" viewBox="0 0 300 600"><title>H3</title><g id="Layer_2" data-name="Layer 2"><g id="Artboard_3" data-name="Artboard 3" style="isolation:isolate"><g id="headline1"><g id="Drop_off_your_docs_and_we_ll_do_the_rest." data-name="Drop off  your docs  and we’ll  do the rest."><path d="M22.33,146.1H34.87c12.26,0,18.48,6.13,18.48,16.84v.39c0,10.76-6.37,17.27-18.52,17.27H22.33ZM34.54,173c5.88,0,8.49-3.09,8.49-9.51v-.38c0-6.57-2.61-9.36-8.59-9.36H32.27V173Z" fill="#fff"/><path d="M56.68,155.37h8.64v5A8,8,0,0,1,73.47,155v8.06c-5.26-.15-8.15,1.49-8.15,5.54v12H56.68Z" fill="#fff"/><path d="M75,168.3v-.39c0-8.11,6-13.22,13.85-13.22s13.75,5,13.75,13v.38c0,8.21-6,13.13-13.8,13.13S75,176.45,75,168.3Zm18.81-.15v-.38c0-4.25-1.68-6.61-5-6.61s-5,2.26-5,6.51v.38c0,4.35,1.69,6.71,5,6.71S93.83,172.35,93.83,168.15Z" fill="#fff"/><path d="M105.66,155.37h8.63v3.76a8.93,8.93,0,0,1,7.87-4.44c5.88,0,10.66,4.44,10.66,13.08v.38c0,8.69-4.78,13-10.71,13-3.81,0-6.56-1.79-7.82-4.3V189h-8.63ZM124,168.15v-.38c0-4.44-1.93-6.57-5-6.57s-5,2.27-5,6.52v.38c0,4.3,1.88,6.47,5,6.47S124,172.3,124,168.15Z" fill="#fff"/><path d="M143.39,168.3v-.39c0-8.11,6-13.22,13.84-13.22s13.76,5,13.76,13v.38c0,8.21-6,13.13-13.8,13.13S143.39,176.45,143.39,168.3Zm18.81-.15v-.38c0-4.25-1.68-6.61-5-6.61s-5,2.26-5,6.51v.38c0,4.35,1.69,6.71,5,6.71S162.2,172.35,162.2,168.15Z" fill="#fff"/><path d="M175.33,161.25h-3.19v-5.88h3.19v-1.93c0-6.28,3.86-9.22,9.84-9.22a14.49,14.49,0,0,1,3.86.48V151a7.73,7.73,0,0,0-2.32-.33,2.52,2.52,0,0,0-2.79,2.75v1.93h7.33v-2.22c0-6.28,4-9.27,9.89-9.27a15.43,15.43,0,0,1,4,.53v6.32a8.09,8.09,0,0,0-2.37-.33,2.51,2.51,0,0,0-2.84,2.75v2.22H205v5.88h-5.11V180.6h-8.64V161.25h-7.33V180.6h-8.59Z" fill="#fff"/><path d="M29.47,228.29,19.39,205.62h9.36L34,219.08l4.82-13.46H47L33.52,239.29H25.27Z" fill="#fff"/><path d="M46.55,218.55v-.39c0-8.11,6-13.22,13.85-13.22s13.75,5,13.75,13v.38c0,8.21-6,13.13-13.8,13.13S46.55,226.7,46.55,218.55Zm18.82-.15V218c0-4.25-1.69-6.61-5-6.61s-5,2.26-5,6.51v.38c0,4.35,1.69,6.71,5,6.71S65.37,222.6,65.37,218.4Z" fill="#fff"/><path d="M77,222.07V205.62h8.63v15c0,2.85,1.11,4.25,3.57,4.25s4.3-1.55,4.3-4.78V205.62h8.63v25.23H93.5v-3.91c-1.35,2.61-3.81,4.49-8,4.49C80.61,231.43,77,228.44,77,222.07Z" fill="#fff"/><path d="M106.52,205.62h8.64v5a8,8,0,0,1,8.15-5.35v8.06c-5.25-.15-8.15,1.49-8.15,5.54v12h-8.64Z" fill="#fff"/><path d="M134,218.5v-.39c0-8.59,4.73-13.17,10.71-13.17,4,0,6.32,1.69,7.77,4.25V194.52h8.63v36.33h-8.63v-4.1a8.53,8.53,0,0,1-7.87,4.68C138.75,231.43,134,227.23,134,218.5Zm18.72-.15V218c0-4.25-1.79-6.52-5-6.52s-5,2.17-5,6.57v.38c0,4.25,1.88,6.42,4.87,6.42C150.77,224.82,152.7,222.65,152.7,218.35Z" fill="#fff"/><path d="M164.13,218.55v-.39c0-8.11,6-13.22,13.85-13.22s13.75,5,13.75,13v.38c0,8.21-6,13.13-13.8,13.13S164.13,226.7,164.13,218.55ZM183,218.4V218c0-4.25-1.69-6.61-5-6.61s-5,2.26-5,6.51v.38c0,4.35,1.69,6.71,5,6.71S183,222.6,183,218.4Z" fill="#fff"/><path d="M193.42,218.55v-.39c0-8.4,6-13.22,13.46-13.22,6.18,0,11.87,2.7,12.35,10.37h-8.1c-.39-2.36-1.55-3.66-4-3.66-3,0-4.83,2.17-4.83,6.41v.39c0,4.39,1.69,6.66,5,6.66,2.41,0,4.1-1.45,4.39-4.2h7.77c-.24,6.37-4.54,10.52-12.69,10.52C199.16,231.43,193.42,227,193.42,218.55Z" fill="#fff"/><path d="M220.83,222.84h8c.29,1.83,1.11,2.85,3.57,2.85,2.12,0,3.09-.82,3.09-2.08s-1.21-1.78-4.68-2.27c-6.76-.86-9.61-2.84-9.61-8.1,0-5.6,5-8.3,10.81-8.3,6.23,0,10.57,2.12,11.15,8.15H235.3c-.34-1.68-1.25-2.51-3.23-2.51s-2.85.83-2.85,2,1.16,1.69,4.25,2.08c7,.87,10.37,2.7,10.37,8.1,0,6-4.44,8.69-11.43,8.69C225.22,231.43,221,228.44,220.83,222.84Z" fill="#fff"/><path d="M20.11,274.1c0-5.93,5-8.25,13.41-8.25h2.42v-.58c0-2.41-.58-4-3.33-4a3.1,3.1,0,0,0-3.43,3H21.07c.39-6.08,5.17-9.07,12.07-9.07s11.38,2.85,11.38,9.55V281.1H36.13v-2.94c-1.21,1.83-3.43,3.52-7.48,3.52C24.11,281.68,20.11,279.46,20.11,274.1Zm15.83-1.83v-1.54H33.67c-3.48,0-5,.67-5,2.75,0,1.44,1,2.36,3,2.36C34.1,275.84,35.94,274.44,35.94,272.27Z" fill="#fff"/><path d="M48.72,255.87h8.64v4.05a8.9,8.9,0,0,1,8.3-4.73c4.87,0,8.25,3,8.25,9.5V281.1H65.27V266.43c0-2.84-1.11-4.24-3.62-4.24s-4.29,1.54-4.29,4.77V281.1H48.72Z" fill="#fff"/><path d="M76.85,268.75v-.39c0-8.59,4.73-13.17,10.71-13.17,4,0,6.32,1.69,7.77,4.25V244.77H104V281.1H95.33V277a8.5,8.5,0,0,1-7.86,4.68C81.63,281.68,76.85,277.48,76.85,268.75Zm18.72-.15v-.38c0-4.25-1.78-6.52-5-6.52s-5,2.17-5,6.57v.38c0,4.25,1.88,6.42,4.87,6.42C93.64,275.07,95.57,272.9,95.57,268.6Z" fill="#fff"/><path d="M115,255.87h9l3.67,15.1,4.24-15.1h7l3.76,15.1,4.1-15.1H155l-8,25.23h-8.25L134.94,267,131,281.1h-8.39Z" fill="#fff"/><path d="M154.73,268.8v-.39c0-8.11,6-13.22,13.65-13.22,6.9,0,12.83,4,12.83,13v2.26H163.46c.24,3.33,2.17,5.26,5.26,5.26,2.84,0,4.05-1.3,4.39-3h8.1c-.77,5.7-5.16,8.93-12.78,8.93C160.51,281.68,154.73,277.05,154.73,268.8Zm18.09-3.19c-.15-3-1.64-4.73-4.44-4.73-2.61,0-4.39,1.69-4.83,4.73Z" fill="#fff"/><path d="M182.08,258.57l3.86-12.6,7.63,2.56L187,260.45Z" fill="#fff"/><path d="M196.75,244.77h8.59V281.1h-8.59Z" fill="#fff"/><path d="M210.21,244.77h8.59V281.1h-8.59Z" fill="#fff"/><path d="M20.3,319v-.39C20.3,310,25,305.44,31,305.44c4,0,6.32,1.69,7.77,4.25V295h8.64v36.33H38.78v-4.1a8.5,8.5,0,0,1-7.86,4.68C25.08,331.93,20.3,327.73,20.3,319ZM39,318.85v-.38c0-4.25-1.78-6.52-5-6.52s-5,2.18-5,6.57v.38c0,4.25,1.89,6.42,4.88,6.42S39,323.15,39,318.85Z" fill="#fff"/><path d="M50.46,319.05v-.39c0-8.11,6-13.22,13.85-13.22s13.75,5,13.75,13v.38c0,8.21-6,13.13-13.8,13.13S50.46,327.2,50.46,319.05Zm18.82-.15v-.38c0-4.25-1.69-6.61-5-6.61s-5,2.26-5,6.51v.38c0,4.35,1.69,6.71,5,6.71S69.28,323.1,69.28,318.9Z" fill="#fff"/><path d="M91,323.24V312H88v-5.88h3v-5.26h8.63v5.26h5V312h-5v10.42c0,1.84.92,2.66,2.56,2.66a6.58,6.58,0,0,0,2.46-.44v6.57a18.56,18.56,0,0,1-4.78.72C94.22,331.93,91,329.18,91,323.24Z" fill="#fff"/><path d="M107.92,295h8.64v15.15a8.9,8.9,0,0,1,8.3-4.73c4.87,0,8.25,3,8.25,9.51v16.4h-8.64V316.68c0-2.85-1.11-4.24-3.62-4.24s-4.29,1.54-4.29,4.77v14.14h-8.64Z" fill="#fff"/><path d="M136,319.05v-.39c0-8.11,6-13.22,13.65-13.22,6.9,0,12.83,4,12.83,13v2.26H144.69c.24,3.33,2.17,5.26,5.26,5.26,2.84,0,4.05-1.3,4.39-3h8.1c-.77,5.7-5.16,8.93-12.78,8.93C141.75,331.93,136,327.3,136,319.05Zm18.09-3.19c-.15-3-1.64-4.73-4.44-4.73-2.6,0-4.39,1.69-4.82,4.73Z" fill="#fff"/><path d="M174.22,306.12h8.63v5c1.6-3.76,4.25-5.4,8.16-5.35v8.05c-5.26-.14-8.16,1.5-8.16,5.55v12h-8.63Z" fill="#fff"/><path d="M192.55,319.05v-.39c0-8.11,6-13.22,13.66-13.22,6.9,0,12.83,4,12.83,13v2.26H201.29c.24,3.33,2.17,5.26,5.25,5.26,2.85,0,4.06-1.3,4.4-3H219c-.77,5.7-5.16,8.93-12.78,8.93C198.34,331.93,192.55,327.3,192.55,319.05Zm18.1-3.19c-.15-3-1.64-4.73-4.44-4.73-2.61,0-4.39,1.69-4.83,4.73Z" fill="#fff"/><path d="M220.58,323.34h8c.29,1.83,1.11,2.85,3.57,2.85,2.12,0,3.09-.82,3.09-2.08s-1.21-1.78-4.69-2.27c-6.75-.86-9.6-2.84-9.6-8.1,0-5.6,5-8.3,10.81-8.3,6.23,0,10.57,2.12,11.15,8.15h-7.82c-.34-1.68-1.25-2.51-3.23-2.51s-2.85.83-2.85,2,1.16,1.69,4.25,2.08c7,.87,10.37,2.7,10.37,8.1,0,6-4.44,8.69-11.43,8.69C225,331.93,220.78,328.94,220.58,323.34Z" fill="#fff"/><path d="M247.56,323.24V312h-3v-5.88h3v-5.26h8.63v5.26h5V312h-5v10.42c0,1.84.92,2.66,2.56,2.66a6.54,6.54,0,0,0,2.46-.44v6.57a18.56,18.56,0,0,1-4.78.72C250.74,331.93,247.56,329.18,247.56,323.24Z" fill="#fff"/><path d="M264.11,327a4.81,4.81,0,0,1,4.92-4.88,4.88,4.88,0,1,1,0,9.75A4.81,4.81,0,0,1,264.11,327Z" fill="#fff"/><rect width="300" height="600" fill="none"/></g></g></g></g></svg>