<svg xmlns="http://www.w3.org/2000/svg" viewBox="0 0 300 600"><title>Asset 21</title><g id="Layer_2" data-name="Layer 2"><g id="Rect"><rect width="300" height="600" fill="none"/></g><g id="No_surprises_no_matter_how_you_file." data-name="No surprises no matter how you file."><path d="M23.05,71.23H36.62L50.08,94.91V71.23H60.59v42H49L33.63,86.86v26.38H23.05Z" fill="#fff"/><path d="M64.83,98.26v-.47c0-9.87,7.34-16.1,16.86-16.1s16.74,6,16.74,15.8V98c0,10-7.35,16-16.8,16S64.83,108.19,64.83,98.26Zm22.91-.18v-.47c0-5.17-2.06-8-6-8s-6.11,2.76-6.11,7.93V98c0,5.29,2,8.17,6.11,8.17S87.74,103.19,87.74,98.08Z" fill="#fff"/><path d="M20.06,162.24h9.69c.35,2.23,1.35,3.46,4.35,3.46,2.58,0,3.76-1,3.76-2.52s-1.47-2.18-5.7-2.76c-8.23-1.06-11.69-3.47-11.69-9.87,0-6.82,6.05-10.11,13.16-10.11,7.58,0,12.86,2.59,13.57,9.93H37.68c-.41-2.06-1.53-3.06-3.93-3.06s-3.47,1-3.47,2.41,1.41,2.06,5.17,2.53c8.52,1.06,12.63,3.29,12.63,9.87,0,7.28-5.41,10.57-13.92,10.57C25.4,172.69,20.29,169.05,20.06,162.24Z" fill="#fff"/><path d="M51.25,161.3v-20H61.77v18.33c0,3.47,1.35,5.17,4.35,5.17,3.17,0,5.22-1.88,5.22-5.81V141.26H81.86V172H71.34v-4.76c-1.64,3.17-4.64,5.46-9.75,5.46C55.66,172.69,51.25,169.05,51.25,161.3Z" fill="#fff"/><path d="M87.21,141.26H97.72v6.11c1.94-4.58,5.17-6.58,9.93-6.52v9.81c-6.4-.17-9.93,1.82-9.93,6.76V172H87.21Z" fill="#fff"/><path d="M111.47,141.26H122v4.59a10.83,10.83,0,0,1,9.57-5.41c7.17,0,13,5.41,13,15.92v.47c0,10.58-5.82,15.86-13.05,15.86-4.64,0-8-2.17-9.51-5.23v14.81H111.47Zm22.38,15.57v-.47c0-5.4-2.35-8-6-8s-6.11,2.76-6.11,7.93v.47c0,5.23,2.29,7.88,6.11,7.88S133.85,161.88,133.85,156.83Z" fill="#fff"/><path d="M148.37,141.26h10.51v6.11c1.94-4.58,5.17-6.58,9.93-6.52v9.81c-6.4-.17-9.93,1.82-9.93,6.76V172H148.37Z" fill="#fff"/><path d="M172.39,132.92a5.8,5.8,0,1,1,5.76,5.41A5.49,5.49,0,0,1,172.39,132.92Zm.53,8.34h10.52V172H172.92Z" fill="#fff"/><path d="M187,162.24h9.7c.35,2.23,1.35,3.46,4.34,3.46,2.59,0,3.76-1,3.76-2.52s-1.47-2.18-5.7-2.76c-8.22-1.06-11.69-3.47-11.69-9.87,0-6.82,6-10.11,13.16-10.11,7.58,0,12.87,2.59,13.57,9.93h-9.51c-.41-2.06-1.53-3.06-3.94-3.06s-3.47,1-3.47,2.41,1.41,2.06,5.17,2.53c8.52,1.06,12.63,3.29,12.63,9.87,0,7.28-5.4,10.57-13.92,10.57C192.37,172.69,187.26,169.05,187,162.24Z" fill="#fff"/><path d="M217,157v-.47c0-9.87,7.35-16.1,16.63-16.1,8.4,0,15.63,4.82,15.63,15.86v2.76H227.62c.29,4.06,2.64,6.41,6.4,6.41,3.47,0,4.94-1.59,5.35-3.64h9.87c-.94,6.93-6.29,10.86-15.57,10.86C224,172.69,217,167.05,217,157Zm22-3.88c-.17-3.7-2-5.76-5.4-5.76-3.17,0-5.35,2.06-5.87,5.76Z" fill="#fff"/><path d="M251.12,162.24h9.69c.35,2.23,1.35,3.46,4.35,3.46,2.58,0,3.76-1,3.76-2.52s-1.47-2.18-5.7-2.76c-8.23-1.06-11.69-3.47-11.69-9.87,0-6.82,6-10.11,13.16-10.11,7.58,0,12.86,2.59,13.57,9.93h-9.52c-.41-2.06-1.53-3.06-3.94-3.06s-3.46,1-3.46,2.41,1.41,2.06,5.17,2.53c8.52,1.06,12.63,3.29,12.63,9.87,0,7.28-5.41,10.57-13.92,10.57C256.46,172.69,251.35,169.05,251.12,162.24Z" fill="#fff"/><path d="M22.11,200H32.63V205c1.64-3.17,5-5.76,10.1-5.76,5.94,0,10.05,3.7,10.05,11.57v20H42.26V212.88c0-3.47-1.35-5.17-4.4-5.17s-5.23,1.88-5.23,5.82v17.21H22.11Z" fill="#fff"/><path d="M56.25,215.76v-.47c0-9.87,7.34-16.1,16.86-16.1s16.74,6.05,16.74,15.8v.47c0,10-7.34,16-16.8,16S56.25,225.69,56.25,215.76Zm22.91-.18v-.47c0-5.17-2.06-8.05-6-8.05S67,209.82,67,215v.47c0,5.29,2,8.17,6.11,8.17S79.16,220.69,79.16,215.58Z" fill="#fff"/><path d="M22.11,258.76H32.63v4.7a10.74,10.74,0,0,1,9.63-5.52c4.06,0,6.88,1.76,8.35,5.11a12.17,12.17,0,0,1,10.16-5.11c5.81,0,10,3.76,10,11.46v20.09H60.3V271.16c0-3.11-1.53-4.64-3.94-4.64-2.82,0-4.7,1.82-4.7,5.17v17.8H41.26V271.16c0-3.11-1.52-4.64-3.93-4.64-2.82,0-4.7,1.82-4.7,5.17v17.8H22.11Z" fill="#fff"/><path d="M74.17,281c0-7.23,6.11-10.05,16.33-10.05h2.94v-.7c0-2.94-.71-4.88-4.06-4.88A3.78,3.78,0,0,0,85.21,269H75.34c.47-7.41,6.29-11.05,14.69-11.05s13.86,3.47,13.86,11.63v19.92H93.67V285.9c-1.47,2.24-4.17,4.29-9.11,4.29C79,290.19,74.17,287.49,74.17,281Zm19.27-2.23v-1.88H90.67c-4.23,0-6.11.82-6.11,3.35,0,1.76,1.18,2.87,3.65,2.87C91.2,283.08,93.44,281.38,93.44,278.74Z" fill="#fff"/><path d="M110.24,279.62V265.93h-3.7v-7.17h3.7v-6.4h10.51v6.4h6v7.17h-6v12.69c0,2.23,1.12,3.23,3.12,3.23a8,8,0,0,0,3-.53v8a22.1,22.1,0,0,1-5.81.88C114.12,290.19,110.24,286.84,110.24,279.62Z" fill="#fff"/><path d="M132.21,279.62V265.93h-3.7v-7.17h3.7v-6.4h10.52v6.4h6.05v7.17h-6.05v12.69c0,2.23,1.11,3.23,3.11,3.23a8.1,8.1,0,0,0,3-.53v8a22.26,22.26,0,0,1-5.82.88C136.09,290.19,132.21,286.84,132.21,279.62Z" fill="#fff"/><path d="M151.13,274.51V274c0-9.87,7.34-16.1,16.62-16.1,8.4,0,15.63,4.82,15.63,15.86v2.76H161.76c.29,4.06,2.64,6.41,6.4,6.41,3.47,0,4.94-1.59,5.35-3.64h9.87c-.94,6.93-6.29,10.86-15.57,10.86C158.18,290.19,151.13,284.55,151.13,274.51Zm22-3.88c-.18-3.7-2-5.76-5.41-5.76-3.17,0-5.34,2.06-5.87,5.76Z" fill="#fff"/><path d="M187,258.76h10.52v6.11c1.94-4.58,5.17-6.58,9.93-6.52v9.81c-6.41-.17-9.93,1.82-9.93,6.76v14.57H187Z" fill="#fff"/><path d="M22.11,304H32.63v18.45c1.64-3.17,5-5.76,10.1-5.76,5.94,0,10.05,3.7,10.05,11.57v20H42.26V330.38c0-3.47-1.35-5.17-4.4-5.17s-5.23,1.88-5.23,5.82v17.21H22.11Z" fill="#fff"/><path d="M56.25,333.26v-.47c0-9.87,7.34-16.1,16.86-16.1s16.74,6.05,16.74,15.8V333c0,10-7.34,16-16.8,16S56.25,343.19,56.25,333.26Zm22.91-.18v-.47c0-5.17-2.06-8.05-6-8.05S67,327.32,67,332.49V333c0,5.29,2,8.17,6.11,8.17S79.16,338.19,79.16,333.08Z" fill="#fff"/><path d="M90,317.51h11l4.46,18.39,5.17-18.39h8.46l4.58,18.39,5-18.39h10l-9.75,30.73H118.81l-4.58-17.16-4.76,17.16H99.25Z" fill="#fff"/><path d="M31.75,403.88,19.47,376.26h11.4l6.34,16.39,5.88-16.39h10l-16.45,41h-10Z" fill="#fff"/><path d="M52.55,392v-.47c0-9.87,7.34-16.1,16.86-16.1s16.74,6.05,16.74,15.8v.47c0,10-7.34,16-16.8,16S52.55,401.94,52.55,392Zm22.91-.18v-.47c0-5.17-2.06-8.05-6-8.05s-6.11,2.76-6.11,7.93v.47c0,5.29,2,8.17,6.11,8.17S75.46,396.94,75.46,391.83Z" fill="#fff"/><path d="M89.62,396.3v-20h10.51v18.33c0,3.47,1.35,5.17,4.35,5.17,3.17,0,5.23-1.88,5.23-5.81V376.26h10.51V407H109.71v-4.76c-1.65,3.17-4.64,5.46-9.75,5.46C94,407.69,89.62,404.05,89.62,396.3Z" fill="#fff"/><path d="M137.85,383.43H134v-7.17h3.88v-2.7c0-7.64,4.76-11.28,12-11.28a18.85,18.85,0,0,1,4.82.65v7.69a9.84,9.84,0,0,0-2.88-.41c-2.47,0-3.52,1.35-3.52,3.35v2.7h6.22v7.17h-6.22V407H137.85Z" fill="#fff"/><path d="M157.82,367.92a5.8,5.8,0,1,1,5.76,5.41A5.49,5.49,0,0,1,157.82,367.92Zm.53,8.34h10.52V407H158.35Z" fill="#fff"/><path d="M174.8,362.75h10.46V407H174.8Z" fill="#fff"/><path d="M189.25,392v-.47c0-9.87,7.35-16.1,16.63-16.1,8.4,0,15.62,4.82,15.62,15.86v2.76H199.89c.29,4.06,2.64,6.41,6.4,6.41,3.47,0,4.93-1.59,5.35-3.64h9.86c-.93,6.93-6.28,10.86-15.56,10.86C196.3,407.69,189.25,402.05,189.25,392Zm22-3.88c-.17-3.7-2-5.76-5.4-5.76-3.17,0-5.35,2.06-5.88,5.76Z" fill="#fff"/><path d="M224.45,401.7a5.85,5.85,0,0,1,6-5.93,5.93,5.93,0,1,1,0,11.86A5.85,5.85,0,0,1,224.45,401.7Z" fill="#fff"/></g></g></svg>