<svg xmlns="http://www.w3.org/2000/svg" viewBox="0 0 728 90"><title>H34</title><g id="Layer_2" data-name="Layer 2"><g id="Rect"><rect width="728" height="90" fill="none"/></g><g id="H34"><g id="Transparent_pricing_from_start_to_finish." data-name="Transparent pricing from start to finish."><path d="M126.8,20.46h-6.11V15.25h19v5.21h-6.1V38.85h-6.8Z" fill="#fff"/><path d="M140.66,21.59h5.91V25a5.43,5.43,0,0,1,5.57-3.66v5.51c-3.59-.1-5.57,1-5.57,3.79v8.19h-5.91Z" fill="#fff"/><path d="M152.9,34.06c0-4.06,3.43-5.64,9.18-5.64h1.65V28c0-1.65-.4-2.74-2.28-2.74a2.12,2.12,0,0,0-2.34,2h-5.55c.27-4.16,3.53-6.2,8.25-6.2s7.79,1.94,7.79,6.53V38.85h-5.74v-2c-.83,1.25-2.34,2.4-5.12,2.4C155.64,39.24,152.9,37.73,152.9,34.06Zm10.83-1.25V31.75h-1.55c-2.38,0-3.44.46-3.44,1.88,0,1,.66,1.62,2,1.62C162.47,35.25,163.73,34.29,163.73,32.81Z" fill="#fff"/><path d="M172.47,21.59h5.91v2.77a6.08,6.08,0,0,1,5.67-3.23c3.34,0,5.65,2.07,5.65,6.5V38.85h-5.91v-10c0-1.95-.76-2.91-2.48-2.91s-2.93,1.06-2.93,3.27v9.67h-5.91Z" fill="#fff"/><path d="M191.41,33.37h5.45c.2,1.25.76,2,2.44,2,1.45,0,2.11-.56,2.11-1.42s-.82-1.22-3.2-1.55c-4.62-.6-6.57-2-6.57-5.55,0-3.83,3.4-5.67,7.4-5.67,4.25,0,7.22,1.45,7.62,5.57h-5.35A1.93,1.93,0,0,0,199.1,25c-1.29,0-1.95.56-1.95,1.35s.8,1.16,2.91,1.42c4.78.59,7.09,1.85,7.09,5.54,0,4.1-3,5.94-7.82,5.94S191.54,37.2,191.41,33.37Z" fill="#fff"/><path d="M209.07,21.59H215v2.57a6.1,6.1,0,0,1,5.38-3c4,0,7.3,3,7.3,8.94v.26c0,5.94-3.27,8.91-7.33,8.91A5.7,5.7,0,0,1,215,36.31v8.31h-5.9Zm12.57,8.74v-.26c0-3-1.32-4.49-3.4-4.49s-3.43,1.55-3.43,4.46v.26c0,2.94,1.29,4.42,3.43,4.42S221.64,33.17,221.64,30.33Z" fill="#fff"/><path d="M228.8,34.06c0-4.06,3.43-5.64,9.18-5.64h1.65V28c0-1.65-.4-2.74-2.28-2.74a2.13,2.13,0,0,0-2.35,2h-5.54c.26-4.16,3.53-6.2,8.25-6.2s7.79,1.94,7.79,6.53V38.85h-5.74v-2a5.69,5.69,0,0,1-5.12,2.4C231.54,39.24,228.8,37.73,228.8,34.06Zm10.83-1.25V31.75h-1.56c-2.37,0-3.43.46-3.43,1.88,0,1,.66,1.62,2.05,1.62C238.37,35.25,239.63,34.29,239.63,32.81Z" fill="#fff"/><path d="M248.37,21.59h5.91V25a5.43,5.43,0,0,1,5.57-3.66v5.51c-3.59-.1-5.57,1-5.57,3.79v8.19h-5.91Z" fill="#fff"/><path d="M260.91,30.43v-.26c0-5.55,4.12-9,9.34-9,4.72,0,8.78,2.7,8.78,8.91v1.55H266.88c.17,2.27,1.49,3.6,3.6,3.6,1.95,0,2.77-.9,3-2H279c-.53,3.89-3.53,6.1-8.75,6.1C264.87,39.24,260.91,36.08,260.91,30.43Zm12.38-2.18c-.1-2.08-1.13-3.23-3-3.23s-3,1.15-3.3,3.23Z" fill="#fff"/><path d="M281.07,21.59H287v2.77a6.1,6.1,0,0,1,5.68-3.23c3.33,0,5.64,2.07,5.64,6.5V38.85h-5.91v-10c0-1.95-.76-2.91-2.47-2.91S287,27,287,29.18v9.67h-5.91Z" fill="#fff"/><path d="M302,33.3V25.61h-2.08v-4H302V18h5.91v3.6h3.4v4h-3.4v7.13c0,1.26.63,1.82,1.75,1.82a4.45,4.45,0,0,0,1.68-.3v4.49a12.35,12.35,0,0,1-3.27.49C304.14,39.24,302,37.36,302,33.3Z" fill="#fff"/><path d="M319.52,21.59h5.9v2.57a6.1,6.1,0,0,1,5.38-3c4,0,7.3,3,7.3,8.94v.26c0,5.94-3.27,8.91-7.33,8.91a5.7,5.7,0,0,1-5.35-2.93v8.31h-5.9Zm12.57,8.74v-.26c0-3-1.32-4.49-3.4-4.49s-3.43,1.55-3.43,4.46v.26c0,2.94,1.29,4.42,3.43,4.42S332.09,33.17,332.09,30.33Z" fill="#fff"/><path d="M340.24,21.59h5.91V25a5.43,5.43,0,0,1,5.58-3.66v5.51c-3.6-.1-5.58,1-5.58,3.79v8.19h-5.91Z" fill="#fff"/><path d="M353.74,16.9A3.08,3.08,0,0,1,357,13.83a3.06,3.06,0,1,1,0,6.11A3.06,3.06,0,0,1,353.74,16.9Zm.29,4.69h5.91V38.85H354Z" fill="#fff"/><path d="M362.18,30.43v-.26c0-5.74,4.13-9,9.21-9,4.23,0,8.12,1.84,8.45,7.09H374.3c-.27-1.62-1.06-2.51-2.78-2.51-2.07,0-3.3,1.49-3.3,4.39v.27c0,3,1.16,4.55,3.4,4.55a2.88,2.88,0,0,0,3-2.87h5.31c-.16,4.36-3.1,7.19-8.68,7.19C366.11,39.24,362.18,36.24,362.18,30.43Z" fill="#fff"/><path d="M381.72,16.9a3.26,3.26,0,1,1,3.23,3A3.08,3.08,0,0,1,381.72,16.9Zm.3,4.69h5.9V38.85H382Z" fill="#fff"/><path d="M391.09,21.59H397v2.77a6.09,6.09,0,0,1,5.68-3.23c3.33,0,5.64,2.07,5.64,6.5V38.85h-5.91v-10c0-1.95-.76-2.91-2.47-2.91S397,27,397,29.18v9.67h-5.91Z" fill="#fff"/><path d="M410.23,38.85h5.88c.26,1.25,1,2.24,3.17,2.24,2.6,0,3.66-1.48,3.66-3.63V34.82A6.05,6.05,0,0,1,417.59,38c-4,0-7.33-3-7.33-8.28v-.27c0-5.08,3.27-8.31,7.33-8.31a5.61,5.61,0,0,1,5.35,2.9V21.59h5.91V37.4c0,5.15-3.4,7.85-9.57,7.85C413.4,45.25,410.69,42.78,410.23,38.85Zm12.87-9.18v-.23c0-2.37-1.22-3.89-3.4-3.89s-3.4,1.55-3.4,3.93v.26c0,2.38,1.26,3.89,3.37,3.89S423.1,32.12,423.1,29.67Z" fill="#fff"/><path d="M438.74,25.61h-2.18v-4h2.18V20.07c0-4.29,2.68-6.34,6.77-6.34a10.5,10.5,0,0,1,2.71.37v4.32a5.52,5.52,0,0,0-1.62-.23,1.73,1.73,0,0,0-2,1.88v1.52h3.5v4h-3.5V38.85h-5.88Z" fill="#fff"/><path d="M450.09,21.59H456V25a5.44,5.44,0,0,1,5.58-3.66v5.51c-3.6-.1-5.58,1-5.58,3.79v8.19h-5.91Z" fill="#fff"/><path d="M462.63,30.43v-.26c0-5.55,4.13-9,9.48-9s9.4,3.39,9.4,8.87v.27c0,5.61-4.12,9-9.44,9S462.63,36,462.63,30.43Zm12.88-.1v-.26c0-2.9-1.16-4.52-3.4-4.52s-3.44,1.55-3.44,4.45v.27c0,3,1.16,4.58,3.44,4.58S475.51,33.21,475.51,30.33Z" fill="#fff"/><path d="M483.59,21.59h5.91v2.64a6,6,0,0,1,5.41-3.1A4.71,4.71,0,0,1,499.6,24a6.82,6.82,0,0,1,5.71-2.87c3.26,0,5.64,2.11,5.64,6.43V38.85H505V28.55c0-1.75-.86-2.61-2.21-2.61-1.58,0-2.64,1-2.64,2.91v10h-5.84V28.55c0-1.75-.86-2.61-2.21-2.61-1.59,0-2.64,1-2.64,2.91v10h-5.91Z" fill="#fff"/><path d="M120.59,68.37H126c.2,1.25.76,1.95,2.44,1.95,1.45,0,2.11-.56,2.11-1.42s-.82-1.22-3.2-1.55c-4.62-.6-6.56-1.95-6.56-5.55,0-3.83,3.39-5.67,7.39-5.67,4.26,0,7.23,1.45,7.62,5.57H130.5A1.94,1.94,0,0,0,128.28,60c-1.28,0-1.94.56-1.94,1.35s.79,1.16,2.9,1.42c4.79.59,7.1,1.85,7.1,5.54,0,4.1-3,6-7.82,6S120.73,72.2,120.59,68.37Z" fill="#fff"/><path d="M139,68.3V60.61H137v-4H139V53H145v3.6h3.4v4H145v7.13c0,1.26.63,1.82,1.75,1.82a4.45,4.45,0,0,0,1.68-.3v4.49a12.28,12.28,0,0,1-3.27.5C141.22,74.25,139,72.36,139,68.3Z" fill="#fff"/><path d="M149.67,69.06c0-4.06,3.43-5.64,9.17-5.64h1.65V63c0-1.65-.39-2.74-2.28-2.74a2.12,2.12,0,0,0-2.34,2h-5.54c.26-4.16,3.53-6.2,8.25-6.2s7.79,1.94,7.79,6.53V73.85h-5.75v-2a5.65,5.65,0,0,1-5.11,2.42C152.41,74.25,149.67,72.73,149.67,69.06Zm10.82-1.25V66.75h-1.55c-2.38,0-3.43.46-3.43,1.88,0,1,.66,1.62,2.05,1.62C159.24,70.25,160.49,69.29,160.49,67.81Z" fill="#fff"/><path d="M169.24,56.59h5.9V60a5.44,5.44,0,0,1,5.58-3.66v5.51c-3.6-.1-5.58,1-5.58,3.79v8.19h-5.9Z" fill="#fff"/><path d="M183.92,68.3V60.61h-2.08v-4h2.08V53h5.91v3.6h3.4v4h-3.4v7.13c0,1.26.63,1.82,1.75,1.82a4.45,4.45,0,0,0,1.68-.3v4.49a12.28,12.28,0,0,1-3.27.5C186.1,74.25,183.92,72.36,183.92,68.3Z" fill="#fff"/><path d="M202.27,68.3V60.61h-2.08v-4h2.08V53h5.91v3.6h3.4v4h-3.4v7.13c0,1.26.62,1.82,1.74,1.82a4.5,4.5,0,0,0,1.69-.3v4.49a12.28,12.28,0,0,1-3.27.5C204.45,74.25,202.27,72.36,202.27,68.3Z" fill="#fff"/><path d="M212.89,65.43v-.26c0-5.55,4.13-9,9.48-9s9.4,3.39,9.4,8.87v.27c0,5.61-4.12,9-9.44,9S212.89,71,212.89,65.43Zm12.88-.1v-.26c0-2.9-1.16-4.52-3.4-4.52s-3.44,1.55-3.44,4.45v.27c0,3,1.16,4.59,3.44,4.59S225.77,68.21,225.77,65.33Z" fill="#fff"/><path d="M240.75,60.61h-2.18v-4h2.18V55.07c0-4.29,2.67-6.34,6.76-6.34a10.92,10.92,0,0,1,2.71.36v4.33a5.52,5.52,0,0,0-1.62-.23,1.73,1.73,0,0,0-2,1.88v1.52h3.5v4h-3.5V73.85h-5.87Z" fill="#fff"/><path d="M252,51.9a3.26,3.26,0,1,1,3.24,3A3.09,3.09,0,0,1,252,51.9Zm.3,4.69h5.91V73.85h-5.91Z" fill="#fff"/><path d="M261.34,56.59h5.9v2.77a6.11,6.11,0,0,1,5.68-3.23c3.33,0,5.64,2.07,5.64,6.5V73.85h-5.9v-10c0-2-.76-2.91-2.48-2.91s-2.94,1.06-2.94,3.27v9.67h-5.9Z" fill="#fff"/><path d="M281.3,51.9a3.26,3.26,0,1,1,3.24,3A3.09,3.09,0,0,1,281.3,51.9Zm.3,4.69h5.91V73.85H281.6Z" fill="#fff"/><path d="M289.52,68.37H295c.2,1.25.76,1.95,2.45,1.95,1.45,0,2.11-.56,2.11-1.42s-.83-1.22-3.2-1.55c-4.62-.6-6.57-1.95-6.57-5.55,0-3.83,3.4-5.67,7.39-5.67,4.26,0,7.23,1.45,7.63,5.57h-5.35A1.93,1.93,0,0,0,297.21,60c-1.29,0-1.95.56-1.95,1.35s.79,1.16,2.91,1.42c4.78.59,7.09,1.85,7.09,5.54,0,4.1-3,6-7.82,6S289.65,72.2,289.52,68.37Z" fill="#fff"/><path d="M307.17,49h5.91V59.36a6.1,6.1,0,0,1,5.68-3.23c3.33,0,5.64,2.07,5.64,6.5V73.85h-5.91v-10c0-2-.76-2.91-2.47-2.91s-2.94,1.06-2.94,3.27v9.67h-5.91Z" fill="#fff"/><path d="M327,70.88a3.3,3.3,0,0,1,3.37-3.34,3.34,3.34,0,1,1,0,6.67A3.29,3.29,0,0,1,327,70.88Z" fill="#fff"/></g></g></g></svg>