<svg xmlns="http://www.w3.org/2000/svg" viewBox="0 0 153 35"><title>file_now</title><g id="Layer_2" data-name="Layer 2"><g id="headline1"><g id="CTA_copy" data-name="CTA copy"><g id="Rectangle_1" data-name="Rectangle 1"><rect width="153" height="35" fill="none"/></g><g id="File_now" data-name="File now"><path d="M47.88,11.88H55v2H50.39v2.94H54v1.89H50.39V23H47.88Z" transform="translate(0)" fill="#262626"/><path d="M56,12.54a1.28,1.28,0,1,1,1.27,1.22A1.23,1.23,0,0,1,56,12.54Zm.17,2.32h2.23V23H56.15Z" transform="translate(0)" fill="#262626"/><path d="M60.28,11.19h2.23V23H60.28Z" transform="translate(0)" fill="#262626"/><path d="M63.83,19V18.9A4,4,0,0,1,68,14.68C70.1,14.68,72,15.9,72,18.8v.63H66.11a2,2,0,0,0,2,2.12c1,0,1.55-.45,1.69-1.13H72c-.27,1.75-1.66,2.73-3.88,2.73A3.94,3.94,0,0,1,63.83,19Zm6-1c-.08-1.22-.7-1.81-1.77-1.81A1.87,1.87,0,0,0,66.14,18Z" transform="translate(0)" fill="#262626"/><path d="M76.42,14.86h2.25v1.29a2.8,2.8,0,0,1,2.64-1.47c1.6,0,2.73,1,2.73,3.13V23H81.79V18.14c0-1.1-.44-1.63-1.43-1.63a1.61,1.61,0,0,0-1.69,1.78V23H76.42Z" transform="translate(0)" fill="#262626"/><path d="M85.23,19v-.13a4.28,4.28,0,0,1,8.56,0V19a4.28,4.28,0,0,1-8.56.05Zm6.27,0v-.11c0-1.55-.73-2.49-2-2.49s-2,.9-2,2.46V19c0,1.55.72,2.48,2,2.48S91.5,20.51,91.5,19Z" transform="translate(0)" fill="#262626"/><path d="M94.1,14.86h2.36l1.44,5.47,1.57-5.47h1.84l1.43,5.47,1.54-5.47h2.15L103.87,23h-2.2l-1.38-5.09L98.8,23H96.57Z" transform="translate(0)" fill="#262626"/></g></g></g></g></svg>