<svg xmlns="http://www.w3.org/2000/svg" viewBox="0 0 728 90"><title>H01</title><g id="Layer_2" data-name="Layer 2"><g id="Rect"><rect width="728" height="90" fill="none"/></g><g id="Free_EITC_Yep_free." data-name="Free EITC? Yep, free."><path d="M110.59,26.69h22.8V34.2H120.31v7.17h10.44V48.5H120.31v12h-9.72Z" fill="#fff"/><path d="M135.9,35.75h8.45v4.92a7.78,7.78,0,0,1,8-5.25v7.89c-5.15-.14-8,1.46-8,5.43V60.45H135.9Z" fill="#fff"/><path d="M154.07,48.41V48c0-7.93,5.91-12.94,13.37-12.94C174.19,35.09,180,39,180,47.84v2.22H162.62c.24,3.26,2.12,5.15,5.15,5.15,2.78,0,4-1.28,4.29-2.93H180c-.75,5.57-5.05,8.73-12.51,8.73C159.74,61,154.07,56.48,154.07,48.41Zm17.71-3.12c-.14-3-1.61-4.62-4.34-4.62-2.55,0-4.3,1.65-4.73,4.62Z" fill="#fff"/><path d="M181.84,48.41V48c0-7.93,5.9-12.94,13.36-12.94,6.75,0,12.56,3.88,12.56,12.75v2.22H190.38c.24,3.26,2.13,5.15,5.15,5.15,2.78,0,4-1.28,4.3-2.93h7.93c-.76,5.57-5,8.73-12.51,8.73C187.5,61,181.84,56.48,181.84,48.41Zm17.7-3.12c-.14-3-1.6-4.62-4.34-4.62-2.55,0-4.3,1.65-4.72,4.62Z" fill="#fff"/><path d="M220.51,26.69h23.32v7.46H230.14V40H241v6.89h-10.9V53h14.44v7.46H220.51Z" fill="#fff"/><path d="M249.12,26.69h9.77V60.45h-9.77Z" fill="#fff"/><path d="M271.55,34.15h-8.74V26.69H290v7.46h-8.74v26.3h-9.72Z" fill="#fff"/><path d="M290.86,43.78V43.4c0-10.38,7.37-17.23,17.23-17.23,8.78,0,14.87,4.06,15.68,13h-10c-.37-3.44-2.26-5.33-5.66-5.33-4.34,0-7.08,3.4-7.08,9.54v.37c0,6.09,2.59,9.54,7.22,9.54,3.4,0,5.81-1.79,6.28-5.52h9.63c-.66,8.73-7,13.26-15.72,13.26C296.67,61,290.86,54.12,290.86,43.78Z" fill="#fff"/><path d="M332.83,48.46c0-3.59,2.46-5.86,4.63-7.94,1.61-1.55,3.07-3,3.07-4.62,0-1.84-.9-2.84-2.88-2.84s-3.4,1.56-3.73,4.16h-8.21c.23-7.13,5.33-11,12.6-11s11.38,3.26,11.38,8.87c0,3.12-1.56,5.24-3.45,7.09-2.31,2.31-5,4.15-5.43,6.46v.71h-8Zm-1.08,7.83a5.06,5.06,0,0,1,10.1,0,5.06,5.06,0,0,1-10.1,0Z" fill="#fff"/><path d="M370.84,46l-11-19.31h10.53l5.71,11.38,5.72-11.38h9.25L380.57,46V60.45h-9.73Z" fill="#fff"/><path d="M387.75,48.41V48c0-7.93,5.9-12.94,13.36-12.94,6.75,0,12.56,3.88,12.56,12.75v2.22H396.29c.24,3.26,2.13,5.15,5.15,5.15,2.78,0,4-1.28,4.3-2.93h7.93c-.76,5.57-5.05,8.73-12.51,8.73C393.41,61,387.75,56.48,387.75,48.41Zm17.7-3.12c-.14-3-1.6-4.62-4.34-4.62-2.55,0-4.3,1.65-4.72,4.62Z" fill="#fff"/><path d="M416.83,35.75h8.45v3.69a8.73,8.73,0,0,1,7.7-4.35c5.76,0,10.43,4.35,10.43,12.8v.38c0,8.49-4.67,12.74-10.48,12.74-3.73,0-6.42-1.74-7.65-4.2v11.9h-8.45Zm18,12.52v-.38c0-4.35-1.89-6.42-4.86-6.42s-4.91,2.22-4.91,6.37v.38c0,4.2,1.84,6.32,4.91,6.32S434.82,52.33,434.82,48.27Z" fill="#fff"/><path d="M444.36,64.27l4-12.42,7.83,2.79-6.79,11.57Z" fill="#fff"/><path d="M470.19,41.51h-3.12V35.75h3.12V33.58c0-6.13,3.82-9.06,9.68-9.06a14.85,14.85,0,0,1,3.87.52v6.18a7.78,7.78,0,0,0-2.32-.33c-2,0-2.83,1.09-2.83,2.69v2.17h5v5.76h-5V60.45h-8.4Z" fill="#fff"/><path d="M486.67,35.75h8.45v4.92a7.78,7.78,0,0,1,8-5.25v7.89c-5.15-.14-8,1.46-8,5.43V60.45h-8.45Z" fill="#fff"/><path d="M504.85,48.41V48c0-7.93,5.9-12.94,13.36-12.94,6.75,0,12.55,3.88,12.55,12.75v2.22H513.39c.24,3.26,2.12,5.15,5.15,5.15,2.78,0,4-1.28,4.29-2.93h7.93c-.75,5.57-5,8.73-12.51,8.73C510.51,61,504.85,56.48,504.85,48.41Zm17.7-3.12c-.14-3-1.61-4.62-4.34-4.62-2.55,0-4.3,1.65-4.73,4.62Z" fill="#fff"/><path d="M532.61,48.41V48c0-7.93,5.9-12.94,13.36-12.94,6.75,0,12.56,3.88,12.56,12.75v2.22H541.15c.24,3.26,2.13,5.15,5.15,5.15,2.78,0,4-1.28,4.3-2.93h7.93c-.76,5.57-5,8.73-12.51,8.73C538.27,61,532.61,56.48,532.61,48.41Zm17.7-3.12c-.14-3-1.6-4.62-4.34-4.62-2.55,0-4.3,1.65-4.72,4.62Z" fill="#fff"/><path d="M561.13,56.2a4.7,4.7,0,0,1,4.81-4.77,4.77,4.77,0,1,1,0,9.54A4.71,4.71,0,0,1,561.13,56.2Z" fill="#fff"/></g></g></svg>