<svg xmlns="http://www.w3.org/2000/svg" viewBox="0 0 300 600"><title>H5</title><g id="Layer_2" data-name="Layer 2"><g id="Artboard_5" data-name="Artboard 5" style="isolation:isolate"><g id="headline1"><g id="Help_is_here_with_Tax_Pro_Go._Just_upload_your_docs_for_expert" data-name="Help is here with Tax Pro Go. Just upload your docs for expert"><path d="M22.26,73.72H32V86.63H43.1V73.72h9.69v33.79H43.1V94.19H32v13.32H22.26Z" fill="#fff"/><path d="M56.19,95.46v-.38c0-7.93,5.9-12.94,13.37-12.94,6.76,0,12.57,3.87,12.57,12.76v2.22H64.74c.24,3.26,2.13,5.15,5.15,5.15,2.79,0,4-1.28,4.3-2.93h7.94c-.76,5.57-5.06,8.74-12.52,8.74C61.86,108.08,56.19,103.54,56.19,95.46Zm17.72-3.12c-.14-3-1.61-4.63-4.35-4.63-2.55,0-4.3,1.66-4.73,4.63Z" fill="#fff"/><path d="M85.29,71.93H93.7v35.58H85.29Z" fill="#fff"/><path d="M98.24,82.8h8.46v3.68a8.71,8.71,0,0,1,7.7-4.34c5.77,0,10.44,4.34,10.44,12.8v.38c0,8.51-4.67,12.76-10.49,12.76-3.73,0-6.42-1.75-7.65-4.21v11.91H98.24Zm18,12.52v-.38c0-4.34-1.89-6.42-4.86-6.42s-4.92,2.22-4.92,6.38v.37c0,4.21,1.84,6.34,4.92,6.34S116.24,99.38,116.24,95.32Z" fill="#fff"/><path d="M136.32,76.09A4.67,4.67,0,1,1,141,80.44,4.42,4.42,0,0,1,136.32,76.09Zm.43,6.71h8.46v24.71h-8.46Z" fill="#fff"/><path d="M148.09,99.67h7.79c.29,1.79,1.09,2.79,3.5,2.79,2.08,0,3-.81,3-2s-1.18-1.74-4.58-2.22c-6.61-.85-9.4-2.78-9.4-7.94,0-5.48,4.86-8.12,10.58-8.12,6.1,0,10.35,2.08,10.92,8h-7.66c-.33-1.65-1.23-2.45-3.16-2.45s-2.79.8-2.79,1.93,1.13,1.66,4.16,2c6.85.86,10.16,2.65,10.16,7.94,0,5.86-4.35,8.51-11.2,8.51C152.39,108.08,148.27,105.15,148.09,99.67Z" fill="#fff"/><path d="M21.5,121.18H30V136a8.74,8.74,0,0,1,8.13-4.63c4.77,0,8.08,3,8.08,9.31v16.06H37.71V142.4c0-2.79-1.08-4.16-3.54-4.16S30,139.75,30,142.92v13.84H21.5Z" fill="#fff"/><path d="M49,144.71v-.38c0-7.93,5.9-12.94,13.37-12.94,6.76,0,12.57,3.87,12.57,12.76v2.22H57.51c.24,3.26,2.13,5.15,5.15,5.15,2.79,0,4-1.28,4.3-2.93H74.9c-.76,5.57-5.06,8.74-12.52,8.74C54.63,157.33,49,152.79,49,144.71Zm17.72-3.12c-.14-3-1.61-4.63-4.35-4.63-2.55,0-4.3,1.66-4.73,4.63Z" fill="#fff"/><path d="M77.83,132.05h8.45V137a7.79,7.79,0,0,1,8-5.24v7.89c-5.15-.14-8,1.46-8,5.43v11.72H77.83Z" fill="#fff"/><path d="M95.78,144.71v-.38c0-7.93,5.91-12.94,13.37-12.94,6.76,0,12.57,3.87,12.57,12.76v2.22H104.33c.24,3.26,2.13,5.15,5.16,5.15,2.78,0,4-1.28,4.3-2.93h7.93c-.75,5.57-5,8.74-12.52,8.74C101.45,157.33,95.78,152.79,95.78,144.71Zm17.72-3.12c-.14-3-1.6-4.63-4.35-4.63-2.55,0-4.3,1.66-4.72,4.63Z" fill="#fff"/><path d="M131.17,132.05H140l3.59,14.79,4.16-14.79h6.8l3.69,14.79,4-14.79h8l-7.85,24.71h-8.08L150.69,143l-3.83,13.8h-8.22Z" fill="#fff"/><path d="M172.28,125.34a4.41,4.41,0,0,1,4.63-4.4,4.38,4.38,0,1,1,0,8.75A4.38,4.38,0,0,1,172.28,125.34Zm.42,6.71h8.46v24.71H172.7Z" fill="#fff"/><path d="M186.83,148.82v-11h-3v-5.76h3V126.9h8.46v5.15h4.87v5.76h-4.87V148c0,1.8.9,2.6,2.5,2.6a6.28,6.28,0,0,0,2.41-.43v6.43a17.8,17.8,0,0,1-4.67.71C190,157.33,186.83,154.64,186.83,148.82Z" fill="#fff"/><path d="M203.37,121.18h8.46V136a8.71,8.71,0,0,1,8.12-4.63c4.78,0,8.09,3,8.09,9.31v16.06h-8.46V142.4c0-2.79-1.09-4.16-3.55-4.16s-4.2,1.51-4.2,4.68v13.84h-8.46Z" fill="#fff"/><path d="M28.73,179.69H20v-7.47H47.21v7.47H38.47V206H28.73Z" fill="#fff"/><path d="M45.51,199.16c0-5.81,4.91-8.08,13.14-8.08H61v-.57c0-2.36-.57-3.92-3.26-3.92a3,3,0,0,0-3.36,2.93H46.45c.38-6,5.06-8.88,11.82-8.88s11.15,2.78,11.15,9.35v16H61.2v-2.88c-1.18,1.8-3.36,3.45-7.33,3.45C49.43,206.58,45.51,204.41,45.51,199.16Zm15.5-1.8v-1.51H58.79c-3.41,0-4.92.66-4.92,2.7,0,1.41,1,2.31,2.93,2.31C59.21,200.86,61,199.49,61,197.36Z" fill="#fff"/><path d="M79.76,193.44l-7.7-12.14H81.8l3.82,6.52,3.74-6.52h8.69l-7.79,11.48L98.81,206H89.07l-4.39-7.37L80.19,206H71.54Z" fill="#fff"/><path d="M110.52,172.22h12.86c9.26,0,13.56,4.12,13.56,11.3v.19c0,7.09-4.77,10.91-13.14,10.91h-3.64V206h-9.64ZM123,188c3.12,0,4.77-1.47,4.77-4.26v-.18c0-2.89-1.7-4.07-4.72-4.07h-2.84V188Z" fill="#fff"/><path d="M139.86,181.3h8.46v4.91a7.79,7.79,0,0,1,8-5.24v7.89c-5.15-.14-8,1.46-8,5.43V206h-8.46Z" fill="#fff"/><path d="M157.82,194v-.38c0-7.93,5.91-12.94,13.56-12.94s13.47,4.86,13.47,12.71v.38c0,8-5.91,12.85-13.52,12.85S157.82,202,157.82,194Zm18.43-.14v-.38c0-4.16-1.65-6.47-4.87-6.47s-4.91,2.22-4.91,6.38v.38c0,4.25,1.65,6.56,4.91,6.56S176.25,197.93,176.25,193.82Z" fill="#fff"/><path d="M195.38,189.33V189c0-10.3,7.56-17.25,17.72-17.25,8,0,15.08,3.64,15.74,12.43h-9.59c-.48-3.16-2.51-4.82-6.1-4.82-4.77,0-7.65,3.69-7.65,9.79v.37c0,5.49,2,9.74,7.89,9.74,4.72,0,6.52-2.41,6.71-5.11h-6.33v-6.75h15.87v4.16c0,8.6-5.62,15.07-16.54,15.07C201.62,206.58,195.38,199.44,195.38,189.33Z" fill="#fff"/><path d="M231.58,194v-.38c0-7.93,5.9-12.94,13.56-12.94s13.47,4.86,13.47,12.71v.38c0,8-5.91,12.85-13.52,12.85S231.58,202,231.58,194Zm18.43-.14v-.38c0-4.16-1.66-6.47-4.87-6.47s-4.92,2.22-4.92,6.38v.38c0,4.25,1.66,6.56,4.92,6.56S250,197.93,250,193.82Z" fill="#fff"/><path d="M260.21,201.76A4.71,4.71,0,0,1,265,197a4.77,4.77,0,1,1,0,9.54A4.71,4.71,0,0,1,260.21,201.76Z" fill="#fff"/><path d="M20.56,254.55v-7.23a11.33,11.33,0,0,0,4.11.67c2.65,0,4.4-1.19,4.4-4.68V221.47H38.8V243.4c0,8.13-4.16,12.29-12.1,12.29A12.88,12.88,0,0,1,20.56,254.55Z" fill="#fff"/><path d="M43.05,246.66V230.55h8.46v14.74c0,2.79,1.09,4.16,3.5,4.16s4.2-1.51,4.2-4.68V230.55h8.46v24.71H59.21v-3.82c-1.32,2.55-3.73,4.39-7.84,4.39C46.6,255.83,43.05,252.9,43.05,246.66Z" fill="#fff"/><path d="M70.31,247.42h7.8c.28,1.79,1.09,2.79,3.5,2.79,2.08,0,3-.81,3-2s-1.18-1.74-4.58-2.22c-6.62-.85-9.41-2.78-9.41-7.94,0-5.48,4.87-8.12,10.59-8.12,6.1,0,10.35,2.08,10.92,8H84.49c-.33-1.65-1.23-2.45-3.17-2.45s-2.78.8-2.78,1.93,1.13,1.66,4.15,2c6.86.86,10.16,2.65,10.16,7.94,0,5.86-4.34,8.51-11.2,8.51C74.61,255.83,70.5,252.9,70.31,247.42Z" fill="#fff"/><path d="M96.73,247.32v-11h-3v-5.76h3V225.4h8.46v5.15h4.86v5.76h-4.86v10.21c0,1.8.89,2.6,2.5,2.6a6.35,6.35,0,0,0,2.41-.43v6.43a17.89,17.89,0,0,1-4.68.71C99.85,255.83,96.73,253.14,96.73,247.32Z" fill="#fff"/><path d="M121.67,246.66V230.55h8.46v14.74c0,2.79,1.09,4.16,3.5,4.16s4.2-1.51,4.2-4.68V230.55h8.46v24.71h-8.46v-3.82c-1.32,2.55-3.73,4.39-7.84,4.39C125.22,255.83,121.67,252.9,121.67,246.66Z" fill="#fff"/><path d="M150.59,230.55h8.46v3.68a8.72,8.72,0,0,1,7.7-4.34c5.77,0,10.45,4.34,10.45,12.8v.38c0,8.51-4.68,12.76-10.5,12.76-3.73,0-6.42-1.75-7.65-4.21v11.91h-8.46Zm18,12.52v-.38c0-4.34-1.89-6.42-4.86-6.42s-4.92,2.22-4.92,6.38V243c0,4.21,1.85,6.34,4.92,6.34S168.59,247.13,168.59,243.07Z" fill="#fff"/><path d="M180.5,219.68h8.41v35.58H180.5Z" fill="#fff"/><path d="M192.12,243.21v-.38c0-7.93,5.91-12.94,13.56-12.94s13.47,4.86,13.47,12.71V243c0,8-5.9,12.85-13.51,12.85S192.12,251.2,192.12,243.21Zm18.43-.14v-.38c0-4.16-1.65-6.47-4.87-6.47s-4.91,2.22-4.91,6.38V243c0,4.25,1.65,6.56,4.91,6.56S210.55,247.18,210.55,243.07Z" fill="#fff"/><path d="M220.71,248.41c0-5.81,4.91-8.08,13.13-8.08h2.37v-.57c0-2.36-.57-3.92-3.26-3.92a3,3,0,0,0-3.36,2.93h-7.94c.38-6,5.06-8.88,11.82-8.88s11.15,2.78,11.15,9.35v16H236.4v-2.88c-1.19,1.8-3.36,3.45-7.33,3.45C224.63,255.83,220.71,253.66,220.71,248.41Zm15.5-1.8V245.1H234c-3.41,0-4.92.66-4.92,2.7,0,1.41,1,2.31,2.93,2.31C234.41,250.11,236.21,248.74,236.21,246.61Z" fill="#fff"/><path d="M247.5,243.17v-.38c0-8.41,4.63-12.9,10.49-12.9,3.87,0,6.19,1.65,7.61,4.15V219.68h8.46v35.58H265.6v-4a8.33,8.33,0,0,1-7.71,4.58C252.18,255.83,247.5,251.72,247.5,243.17Zm18.33-.15v-.37c0-4.16-1.75-6.38-4.86-6.38s-4.87,2.12-4.87,6.42v.38c0,4.16,1.84,6.29,4.77,6.29S265.83,247.23,265.83,243Z" fill="#fff"/><path d="M29.25,302,19.38,279.8h9.17L33.65,293l4.73-13.18h8.08l-13.24,33H25.14Z" fill="#fff"/><path d="M46,292.46v-.38c0-7.93,5.91-12.94,13.56-12.94S73,284,73,291.85v.38c0,8-5.91,12.85-13.52,12.85S46,300.45,46,292.46Zm18.43-.14v-.38c0-4.16-1.65-6.47-4.87-6.47s-4.91,2.22-4.91,6.38v.38c0,4.25,1.65,6.56,4.91,6.56S64.41,296.43,64.41,292.32Z" fill="#fff"/><path d="M75.79,295.91V279.8h8.46v14.74c0,2.79,1.09,4.16,3.5,4.16S92,297.19,92,294V279.8h8.45v24.71H92v-3.82c-1.33,2.55-3.74,4.39-7.85,4.39C79.34,305.08,75.79,302.15,75.79,295.91Z" fill="#fff"/><path d="M104.71,279.8h8.46v4.91a7.79,7.79,0,0,1,8-5.24v7.89c-5.16-.14-8,1.46-8,5.43v11.72h-8.46Z" fill="#fff"/><path d="M131.59,292.42V292c0-8.41,4.64-12.9,10.5-12.9,3.87,0,6.19,1.65,7.6,4.15V268.93h8.46v35.58h-8.46v-4a8.32,8.32,0,0,1-7.7,4.58C136.27,305.08,131.59,301,131.59,292.42Zm18.34-.15v-.37c0-4.16-1.75-6.38-4.87-6.38s-4.86,2.12-4.86,6.42v.38c0,4.16,1.84,6.29,4.77,6.29S149.93,296.48,149.93,292.27Z" fill="#fff"/><path d="M161.13,292.46v-.38c0-7.93,5.9-12.94,13.56-12.94s13.47,4.86,13.47,12.71v.38c0,8-5.91,12.85-13.52,12.85S161.13,300.45,161.13,292.46Zm18.43-.14v-.38c0-4.16-1.66-6.47-4.87-6.47s-4.92,2.22-4.92,6.38v.38c0,4.25,1.66,6.56,4.92,6.56S179.56,296.43,179.56,292.32Z" fill="#fff"/><path d="M189.81,292.46v-.38c0-8.22,5.9-12.94,13.18-12.94,6,0,11.63,2.64,12.1,10.16h-7.94c-.38-2.32-1.51-3.6-4-3.6-3,0-4.73,2.13-4.73,6.29v.38c0,4.3,1.66,6.52,4.87,6.52,2.36,0,4-1.42,4.3-4.11h7.61c-.24,6.24-4.44,10.3-12.43,10.3C195.43,305.08,189.81,300.78,189.81,292.46Z" fill="#fff"/><path d="M216.64,296.67h7.8c.28,1.79,1.09,2.79,3.5,2.79,2.08,0,3-.81,3-2s-1.18-1.74-4.58-2.22c-6.62-.85-9.41-2.78-9.41-7.94,0-5.48,4.87-8.12,10.59-8.12,6.1,0,10.35,2.08,10.92,8h-7.66c-.33-1.65-1.23-2.45-3.17-2.45s-2.78.8-2.78,1.93,1.13,1.66,4.15,2c6.86.86,10.16,2.65,10.16,7.94,0,5.86-4.34,8.51-11.19,8.51C220.94,305.08,216.83,302.15,216.64,296.67Z" fill="#fff"/><path d="M22.78,334.81H19.66v-5.76h3.12v-2.18c0-6.14,3.83-9.07,9.69-9.07a15.16,15.16,0,0,1,3.87.52v6.19a7.7,7.7,0,0,0-2.31-.33c-2,0-2.84,1.09-2.84,2.69v2.18h5v5.76h-5v18.95H22.78Z" fill="#fff"/><path d="M36.86,341.71v-.38c0-7.93,5.91-12.94,13.56-12.94s13.47,4.86,13.47,12.71v.38c0,8-5.91,12.85-13.51,12.85S36.86,349.7,36.86,341.71Zm18.43-.14v-.38c0-4.16-1.65-6.47-4.87-6.47s-4.91,2.22-4.91,6.38v.38c0,4.25,1.65,6.56,4.91,6.56S55.29,345.68,55.29,341.57Z" fill="#fff"/><path d="M66.86,329.05h8.46V334a7.79,7.79,0,0,1,8-5.24v7.89c-5.15-.14-8,1.46-8,5.43v11.72H66.86Z" fill="#fff"/><path d="M93.65,341.71v-.38c0-7.93,5.91-12.94,13.38-12.94,6.76,0,12.57,3.87,12.57,12.76v2.22H102.21c.23,3.26,2.12,5.15,5.15,5.15,2.79,0,4-1.28,4.3-2.93h7.94c-.76,5.57-5.06,8.74-12.53,8.74C99.32,354.33,93.65,349.79,93.65,341.71Zm17.73-3.12c-.15-3-1.61-4.63-4.35-4.63-2.55,0-4.3,1.66-4.73,4.63Z" fill="#fff"/><path d="M127.44,341.19l-7.7-12.14h9.73l3.83,6.52,3.73-6.52h8.7l-7.8,11.48,8.55,13.23h-9.73l-4.4-7.37-4.49,7.37h-8.64Z" fill="#fff"/><path d="M148.84,329.05h8.46v3.68a8.72,8.72,0,0,1,7.7-4.34c5.77,0,10.45,4.34,10.45,12.8v.38c0,8.51-4.68,12.76-10.49,12.76-3.74,0-6.43-1.75-7.66-4.21V362h-8.46Zm18,12.52v-.38c0-4.35-1.89-6.42-4.87-6.42s-4.92,2.22-4.92,6.38v.37c0,4.21,1.85,6.34,4.92,6.34S166.85,345.63,166.85,341.57Z" fill="#fff"/><path d="M177.19,341.71v-.38c0-7.93,5.91-12.94,13.37-12.94,6.76,0,12.57,3.87,12.57,12.76v2.22H185.74c.24,3.26,2.13,5.15,5.16,5.15,2.78,0,4-1.28,4.3-2.93h7.93c-.75,5.57-5,8.74-12.52,8.74C182.86,354.33,177.19,349.79,177.19,341.71Zm17.72-3.12c-.14-3-1.61-4.63-4.35-4.63-2.55,0-4.3,1.66-4.72,4.63Z" fill="#fff"/><path d="M206.06,329.05h8.46V334a7.79,7.79,0,0,1,8-5.24v7.89c-5.16-.14-8,1.46-8,5.43v11.72h-8.46Z" fill="#fff"/><path d="M227.09,345.82v-11h-3v-5.76h3V323.9h8.45v5.15h4.87v5.76h-4.87V345c0,1.8.9,2.6,2.51,2.6a6.31,6.31,0,0,0,2.41-.43v6.43a17.89,17.89,0,0,1-4.68.71C230.21,354.33,227.09,351.64,227.09,345.82Z" fill="#fff"/><path d="M22.64,395.07v-11h-3V378.3h3v-5.15H31.1v5.15H36v5.76H31.1v10.21c0,1.8.9,2.6,2.5,2.6a6.28,6.28,0,0,0,2.41-.43v6.43a17.82,17.82,0,0,1-4.68.71C25.76,403.58,22.64,400.89,22.64,395.07Z" fill="#fff"/><path d="M37.85,396.16c0-5.81,4.92-8.08,13.14-8.08h2.36v-.57c0-2.36-.56-3.92-3.26-3.92a3,3,0,0,0-3.35,2.93H38.8c.38-5.95,5.05-8.88,11.81-8.88s11.15,2.78,11.15,9.35v16H53.54v-2.88c-1.18,1.8-3.35,3.45-7.32,3.45C41.77,403.58,37.85,401.41,37.85,396.16Zm15.5-1.79v-1.52H51.13c-3.4,0-4.91.66-4.91,2.7,0,1.41.94,2.31,2.93,2.31C51.56,397.86,53.35,396.49,53.35,394.37Z" fill="#fff"/><path d="M72.11,390.44l-7.7-12.14h9.73L78,384.82l3.73-6.52h8.7l-7.8,11.48L91.15,403H81.42L77,395.64,72.53,403H63.89Z" fill="#fff"/><path d="M102.11,378.3h8.46V382a8.72,8.72,0,0,1,7.7-4.34c5.77,0,10.45,4.34,10.45,12.8v.38c0,8.51-4.68,12.76-10.49,12.76-3.74,0-6.43-1.75-7.66-4.21v11.91h-8.46Zm18,12.52v-.38c0-4.35-1.89-6.42-4.87-6.42s-4.92,2.22-4.92,6.38v.37c0,4.21,1.85,6.34,4.92,6.34S120.12,394.88,120.12,390.82Z" fill="#fff"/><path d="M131.78,378.3h8.46v4.91a7.79,7.79,0,0,1,8-5.24v7.89c-5.15-.14-8,1.46-8,5.43V403h-8.46Z" fill="#fff"/><path d="M149.74,391v-.38c0-7.93,5.91-12.94,13.37-12.94,6.76,0,12.57,3.87,12.57,12.76v2.22H158.29c.24,3.26,2.13,5.15,5.15,5.15,2.79,0,4-1.28,4.3-2.93h7.94c-.75,5.57-5.05,8.74-12.52,8.74C155.41,403.58,149.74,399,149.74,391Zm17.72-3.12c-.14-3-1.61-4.63-4.35-4.63-2.55,0-4.3,1.66-4.72,4.63Z" fill="#fff"/><path d="M178.61,378.3h8.46V382a8.72,8.72,0,0,1,7.7-4.34c5.77,0,10.44,4.34,10.44,12.8v.38c0,8.51-4.67,12.76-10.49,12.76-3.73,0-6.42-1.75-7.65-4.21v11.91h-8.46Zm18,12.52v-.38c0-4.35-1.89-6.42-4.86-6.42s-4.92,2.22-4.92,6.38v.37c0,4.21,1.84,6.34,4.92,6.34S196.61,394.88,196.61,390.82Z" fill="#fff"/><path d="M207.34,398.76a4.71,4.71,0,0,1,4.82-4.77,4.77,4.77,0,1,1,0,9.54A4.71,4.71,0,0,1,207.34,398.76Z" fill="#fff"/><rect width="300" height="600" fill="none"/></g></g></g></g></svg>