<svg xmlns="http://www.w3.org/2000/svg" viewBox="0 0 728 90"><title>H73</title><g id="Layer_2" data-name="Layer 2"><g id="Rect"><rect width="728" height="90" fill="none"/></g><g id="H73"><g id="Think_your_tax_preparer_costs_less_than_H_R_Block_Think_again." data-name="Think your tax preparer costs less than H&amp;R Block? Think again."><path d="M124.31,20.27h-4.94V16.05h15.38v4.22h-4.94V35.15h-5.5Z" fill="#fff"/><path d="M136.73,15h4.78v8.38a4.93,4.93,0,0,1,4.6-2.61c2.69,0,4.56,1.68,4.56,5.26v9.08h-4.78V27c0-1.58-.61-2.35-2-2.35s-2.38.85-2.38,2.64v7.83h-4.78Z" fill="#fff"/><path d="M153.29,17.39a2.64,2.64,0,1,1,2.62,2.46A2.49,2.49,0,0,1,153.29,17.39Zm.24,3.79h4.78v14h-4.78Z" fill="#fff"/><path d="M161.28,21.18h4.78v2.24a4.92,4.92,0,0,1,4.59-2.61c2.7,0,4.57,1.68,4.57,5.26v9.08h-4.78V27c0-1.58-.62-2.35-2-2.35s-2.37.85-2.37,2.64v7.83h-4.78Z" fill="#fff"/><path d="M177.94,15h4.78V26.71l3.77-5.53h5l-4.56,6.28,4.94,7.69h-5.34L182.72,29v6.12h-4.78Z" fill="#fff"/><path d="M203,33.73l-5.58-12.55h5.18l2.89,7.45,2.67-7.45h4.56l-7.48,18.64h-4.56Z" fill="#fff"/><path d="M212.85,28.34v-.22c0-4.48,3.34-7.31,7.66-7.31s7.61,2.75,7.61,7.18v.21c0,4.54-3.34,7.27-7.64,7.27S212.85,32.85,212.85,28.34Zm10.41-.08V28c0-2.35-.93-3.65-2.75-3.65s-2.78,1.25-2.78,3.6v.21c0,2.41.94,3.72,2.78,3.72S223.26,30.58,223.26,28.26Z" fill="#fff"/><path d="M230.1,30.29V21.18h4.78v8.33c0,1.58.61,2.35,2,2.35s2.37-.85,2.37-2.64v-8H244v14h-4.78V33a4.58,4.58,0,0,1-4.43,2.49C232.1,35.47,230.1,33.81,230.1,30.29Z" fill="#fff"/><path d="M246.84,21.18h4.78V24a4.41,4.41,0,0,1,4.52-3v4.45c-2.91-.08-4.52.83-4.52,3.08v6.62h-4.78Z" fill="#fff"/><path d="M264.18,30.66V24.44H262.5V21.18h1.68V18.27H269v2.91h2.75v3.26H269v5.77c0,1,.5,1.47,1.41,1.47a3.59,3.59,0,0,0,1.36-.24v3.63a10,10,0,0,1-2.64.4C265.94,35.47,264.18,34,264.18,30.66Z" fill="#fff"/><path d="M273.18,31.28c0-3.29,2.77-4.57,7.42-4.57h1.34v-.32c0-1.34-.32-2.22-1.85-2.22a1.71,1.71,0,0,0-1.89,1.66h-4.49c.22-3.37,2.86-5,6.68-5s6.3,1.57,6.3,5.29v9H282V33.52a4.58,4.58,0,0,1-4.14,1.95C275.39,35.47,273.18,34.24,273.18,31.28Zm8.76-1v-.85h-1.26c-1.92,0-2.78.37-2.78,1.52,0,.8.54,1.31,1.66,1.31A2.11,2.11,0,0,0,281.94,30.26Z" fill="#fff"/><path d="M292.94,28l-4.35-6.86h5.5l2.16,3.69,2.11-3.69h4.91l-4.4,6.49,4.83,7.48h-5.5L295.72,31l-2.54,4.17h-4.89Z" fill="#fff"/><path d="M310.7,21.18h4.78v2.08a4.93,4.93,0,0,1,4.35-2.45c3.26,0,5.9,2.45,5.9,7.23v.22c0,4.8-2.64,7.21-5.92,7.21a4.61,4.61,0,0,1-4.33-2.38v6.73H310.7Zm10.17,7.08V28c0-2.45-1.06-3.63-2.75-3.63s-2.77,1.26-2.77,3.61v.21c0,2.38,1,3.58,2.77,3.58S320.87,30.55,320.87,28.26Z" fill="#fff"/><path d="M327.87,21.18h4.78V24a4.4,4.4,0,0,1,4.52-3v4.45c-2.92-.08-4.52.83-4.52,3.08v6.62h-4.78Z" fill="#fff"/><path d="M338.42,28.34v-.22c0-4.48,3.34-7.31,7.56-7.31,3.82,0,7.1,2.19,7.1,7.21v1.25h-9.82a2.78,2.78,0,0,0,2.91,2.91c1.57,0,2.24-.72,2.43-1.65h4.48c-.42,3.15-2.85,4.94-7.07,4.94C341.63,35.47,338.42,32.9,338.42,28.34Zm10-1.76c-.08-1.69-.91-2.62-2.46-2.62a2.66,2.66,0,0,0-2.67,2.62Z" fill="#fff"/><path d="M355.14,21.18h4.78v2.08a4.93,4.93,0,0,1,4.35-2.45c3.26,0,5.9,2.45,5.9,7.23v.22c0,4.8-2.64,7.21-5.92,7.21a4.61,4.61,0,0,1-4.33-2.38v6.73h-4.78Zm10.17,7.08V28c0-2.45-1.06-3.63-2.75-3.63s-2.77,1.26-2.77,3.61v.21c0,2.38,1,3.58,2.77,3.58S365.31,30.55,365.31,28.26Z" fill="#fff"/><path d="M371.51,31.28c0-3.29,2.78-4.57,7.42-4.57h1.34v-.32c0-1.34-.32-2.22-1.84-2.22a1.72,1.72,0,0,0-1.9,1.66h-4.48c.21-3.37,2.85-5,6.67-5s6.3,1.57,6.3,5.29v9h-4.64V33.52a4.61,4.61,0,0,1-4.14,1.95C373.73,35.47,371.51,34.24,371.51,31.28Zm8.76-1v-.85H379c-1.93,0-2.78.37-2.78,1.52,0,.8.53,1.31,1.65,1.31A2.11,2.11,0,0,0,380.27,30.26Z" fill="#fff"/><path d="M387.75,21.18h4.78V24A4.4,4.4,0,0,1,397,21v4.45c-2.91-.08-4.51.83-4.51,3.08v6.62h-4.78Z" fill="#fff"/><path d="M398.3,28.34v-.22c0-4.48,3.34-7.31,7.56-7.31,3.81,0,7.1,2.19,7.1,7.21v1.25h-9.83A2.79,2.79,0,0,0,406,32.18c1.58,0,2.25-.72,2.43-1.65H413c-.43,3.15-2.86,4.94-7.08,4.94C401.5,35.47,398.3,32.9,398.3,28.34Zm10-1.76c-.08-1.69-.9-2.62-2.45-2.62s-2.43.93-2.67,2.62Z" fill="#fff"/><path d="M415,21.18h4.78V24a4.4,4.4,0,0,1,4.51-3v4.45c-2.91-.08-4.51.83-4.51,3.08v6.62H415Z" fill="#fff"/><path d="M431,28.34v-.22c0-4.64,3.34-7.31,7.45-7.31,3.42,0,6.57,1.49,6.84,5.74h-4.49a2.06,2.06,0,0,0-2.24-2c-1.68,0-2.67,1.2-2.67,3.55v.21c0,2.43.93,3.69,2.75,3.69A2.33,2.33,0,0,0,441,29.65h4.3c-.14,3.52-2.51,5.82-7,5.82C434.14,35.47,431,33,431,28.34Z" fill="#fff"/><path d="M446.53,28.34v-.22c0-4.48,3.34-7.31,7.67-7.31s7.61,2.75,7.61,7.18v.21c0,4.54-3.34,7.27-7.64,7.27S446.53,32.85,446.53,28.34ZM457,28.26V28c0-2.35-.94-3.65-2.75-3.65s-2.78,1.25-2.78,3.6v.21c0,2.41.93,3.72,2.78,3.72S457,30.58,457,28.26Z" fill="#fff"/><path d="M463,30.71h4.4c.16,1,.62,1.58,2,1.58,1.17,0,1.71-.45,1.71-1.15s-.67-1-2.59-1.25c-3.74-.48-5.32-1.58-5.32-4.49,0-3.1,2.75-4.59,6-4.59,3.44,0,5.84,1.17,6.16,4.51h-4.32a1.57,1.57,0,0,0-1.79-1.39c-1,0-1.58.46-1.58,1.1s.64.93,2.35,1.15c3.87.48,5.74,1.49,5.74,4.48,0,3.31-2.45,4.81-6.32,4.81S463.14,33.81,463,30.71Z" fill="#fff"/><path d="M478.37,30.66V24.44h-1.69V21.18h1.69V18.27h4.78v2.91h2.75v3.26h-2.75v5.77c0,1,.5,1.47,1.41,1.47a3.62,3.62,0,0,0,1.36-.24v3.63a10,10,0,0,1-2.64.4C480.13,35.47,478.37,34,478.37,30.66Z" fill="#fff"/><path d="M487.37,30.71h4.4c.16,1,.62,1.58,2,1.58,1.17,0,1.71-.45,1.71-1.15s-.67-1-2.59-1.25c-3.74-.48-5.32-1.58-5.32-4.49,0-3.1,2.75-4.59,6-4.59,3.45,0,5.85,1.17,6.17,4.51h-4.32a1.57,1.57,0,0,0-1.79-1.39c-1,0-1.58.46-1.58,1.1s.64.93,2.35,1.15c3.87.48,5.74,1.49,5.74,4.48,0,3.31-2.45,4.81-6.33,4.81S487.47,33.81,487.37,30.71Z" fill="#fff"/><path d="M507.45,15h4.75V35.15h-4.75Z" fill="#fff"/><path d="M514.42,28.34v-.22c0-4.48,3.34-7.31,7.56-7.31,3.81,0,7.1,2.19,7.1,7.21v1.25h-9.83a2.79,2.79,0,0,0,2.91,2.91c1.58,0,2.25-.72,2.43-1.65h4.49c-.43,3.15-2.86,4.94-7.08,4.94C517.62,35.47,514.42,32.9,514.42,28.34Zm10-1.76c-.08-1.69-.91-2.62-2.45-2.62s-2.43.93-2.68,2.62Z" fill="#fff"/><path d="M530.33,30.71h4.41c.16,1,.62,1.58,2,1.58,1.17,0,1.71-.45,1.71-1.15s-.67-1-2.59-1.25c-3.74-.48-5.32-1.58-5.32-4.49,0-3.1,2.75-4.59,6-4.59,3.45,0,5.85,1.17,6.17,4.51h-4.32a1.57,1.57,0,0,0-1.79-1.39c-1,0-1.58.46-1.58,1.1s.64.93,2.35,1.15c3.87.48,5.74,1.49,5.74,4.48,0,3.31-2.45,4.81-6.33,4.81S530.44,33.81,530.33,30.71Z" fill="#fff"/><path d="M544.17,30.71h4.41c.16,1,.61,1.58,2,1.58,1.18,0,1.71-.45,1.71-1.15s-.67-1-2.59-1.25c-3.74-.48-5.31-1.58-5.31-4.49,0-3.1,2.75-4.59,6-4.59,3.44,0,5.85,1.17,6.17,4.51h-4.33a1.56,1.56,0,0,0-1.79-1.39c-1,0-1.57.46-1.57,1.1s.64.93,2.35,1.15c3.87.48,5.74,1.49,5.74,4.48,0,3.31-2.46,4.81-6.33,4.81S544.28,33.81,544.17,30.71Z" fill="#fff"/><path d="M120.87,65.5V59.28h-1.68V56h1.68V53.11h4.78V56h2.75v3.26h-2.75v5.77a1.27,1.27,0,0,0,1.41,1.46,3.68,3.68,0,0,0,1.37-.24v3.64a10.15,10.15,0,0,1-2.65.4C122.63,70.31,120.87,68.79,120.87,65.5Z" fill="#fff"/><path d="M130.62,49.88h4.78v8.38A4.92,4.92,0,0,1,140,55.65c2.7,0,4.57,1.68,4.57,5.26V70h-4.78V61.87c0-1.58-.62-2.35-2-2.35s-2.37.85-2.37,2.64V70h-4.78Z" fill="#fff"/><path d="M146.48,66.11c0-3.28,2.78-4.56,7.42-4.56h1.34v-.32c0-1.34-.32-2.22-1.84-2.22a1.72,1.72,0,0,0-1.9,1.66H147c.21-3.37,2.85-5,6.67-5s6.3,1.57,6.3,5.28V70h-4.64V68.36a4.61,4.61,0,0,1-4.14,2C148.7,70.31,146.48,69.08,146.48,66.11Zm8.76-1v-.85H154c-1.92,0-2.77.37-2.77,1.52,0,.8.53,1.31,1.65,1.31A2.11,2.11,0,0,0,155.24,65.1Z" fill="#fff"/><path d="M162.72,56h4.78v2.24a4.93,4.93,0,0,1,4.59-2.61c2.7,0,4.57,1.68,4.57,5.26V70h-4.78V61.87c0-1.58-.62-2.35-2-2.35s-2.38.85-2.38,2.64V70h-4.78Z" fill="#fff"/><path d="M185.07,50.89h5.5v7.29h6.28V50.89h5.47V70h-5.47V62.46h-6.28V70h-5.5Z" fill="#fff"/><path d="M221,66.09l3.18,3.9H218l-1.12-1.39a7.6,7.6,0,0,1-5.15,1.71c-4.06,0-6.71-2.14-6.71-5.77,0-2.46,1.5-4.27,4.19-5.56A6.13,6.13,0,0,1,208,55.65c0-3.26,2.78-5,6.14-5,3,0,5.8,1.53,5.8,4.46,0,2.09-1.23,3.61-3.82,4.73l2.4,2.94L220,60.05h4.17Zm-6.62-.56-3-3.63A2.25,2.25,0,0,0,210.12,64a2.22,2.22,0,0,0,2.43,2.38A2.53,2.53,0,0,0,214.42,65.53Zm-.59-7.69c1.29-.62,1.9-1.34,1.9-2.33A1.38,1.38,0,0,0,214.31,54a1.53,1.53,0,0,0-1.57,1.66A3.57,3.57,0,0,0,213.83,57.84Z" fill="#fff"/><path d="M226.36,50.89h7.48c5,0,7.77,2,7.77,6.07v.1a5,5,0,0,1-3.45,5L242.73,70H237l-3.87-6.84h-1.28V70h-5.45Zm7.21,8.71c1.84,0,2.75-.78,2.75-2.32v-.11c0-1.55-1-2.16-2.72-2.16h-1.79V59.6Z" fill="#fff"/><path d="M250.24,50.89h8.52c4.51,0,6.43,2,6.43,5V56A3.93,3.93,0,0,1,262,60.11a4.15,4.15,0,0,1,3.82,4.46v.1c0,3.42-2.22,5.32-6.94,5.32h-8.6Zm7.42,7.59c1.71,0,2.35-.59,2.35-1.95v-.11c0-1.31-.69-1.89-2.35-1.89h-2.08v3.95Zm.19,7.85c1.73,0,2.53-.8,2.53-2.22V64c0-1.44-.77-2.18-2.69-2.18h-2.11v4.51Z" fill="#fff"/><path d="M268.08,49.88h4.75V70h-4.75Z" fill="#fff"/><path d="M275.05,63.18V63c0-4.48,3.34-7.31,7.66-7.31s7.61,2.75,7.61,7.18V63c0,4.54-3.34,7.27-7.64,7.27S275.05,67.69,275.05,63.18Zm10.41-.08v-.22c0-2.35-.93-3.66-2.75-3.66s-2.78,1.26-2.78,3.61V63c0,2.41.94,3.71,2.78,3.71S285.46,65.42,285.46,63.1Z" fill="#fff"/><path d="M291.66,63.18V63c0-4.64,3.34-7.31,7.45-7.31,3.42,0,6.57,1.49,6.84,5.74h-4.49a2.06,2.06,0,0,0-2.24-2c-1.69,0-2.67,1.2-2.67,3.55v.21c0,2.43.93,3.69,2.75,3.69a2.33,2.33,0,0,0,2.43-2.32H306c-.14,3.52-2.51,5.82-7,5.82C294.84,70.31,291.66,67.88,291.66,63.18Z" fill="#fff"/><path d="M308,49.88h4.78V61.55L316.52,56h5l-4.57,6.28L321.86,70h-5.34l-3.76-6.12V70H308Z" fill="#fff"/><path d="M326.48,63.2c0-2,1.39-3.31,2.62-4.48.91-.88,1.74-1.68,1.74-2.62a1.42,1.42,0,0,0-1.63-1.6c-1.15,0-1.92.88-2.11,2.35h-4.65c.14-4,3-6.22,7.13-6.22s6.44,1.84,6.44,5a5.4,5.4,0,0,1-1.95,4C332.76,61,331.24,62,331,63.31v.4h-4.52Zm-.61,4.44a2.86,2.86,0,0,1,5.71,0,2.86,2.86,0,0,1-5.71,0Z" fill="#fff"/><path d="M347.58,55.11h-4.94V50.89H358v4.22h-4.94V70h-5.5Z" fill="#fff"/><path d="M360,49.88h4.78v8.38a4.93,4.93,0,0,1,4.59-2.61c2.7,0,4.57,1.68,4.57,5.26V70h-4.78V61.87c0-1.58-.61-2.35-2-2.35s-2.38.85-2.38,2.64V70H360Z" fill="#fff"/><path d="M376.56,52.23a2.64,2.64,0,1,1,2.62,2.46A2.49,2.49,0,0,1,376.56,52.23ZM376.8,56h4.78V70H376.8Z" fill="#fff"/><path d="M384.55,56h4.78v2.24a4.92,4.92,0,0,1,4.59-2.61c2.7,0,4.57,1.68,4.57,5.26V70h-4.78V61.87c0-1.58-.62-2.35-2-2.35s-2.37.85-2.37,2.64V70h-4.78Z" fill="#fff"/><path d="M401.21,49.88H406V61.55L409.76,56h5l-4.56,6.28L415.1,70h-5.34L406,63.87V70h-4.78Z" fill="#fff"/><path d="M421.08,66.11c0-3.28,2.78-4.56,7.42-4.56h1.34v-.32c0-1.34-.32-2.22-1.84-2.22a1.72,1.72,0,0,0-1.9,1.66h-4.48c.21-3.37,2.85-5,6.67-5s6.3,1.57,6.3,5.28V70H430V68.36a4.61,4.61,0,0,1-4.14,2C423.3,70.31,421.08,69.08,421.08,66.11Zm8.76-1v-.85h-1.26c-1.92,0-2.77.37-2.77,1.52,0,.8.53,1.31,1.65,1.31A2.11,2.11,0,0,0,429.84,65.1Z" fill="#fff"/><path d="M436.54,70h4.76c.21,1,.82,1.81,2.56,1.81a2.64,2.64,0,0,0,3-2.93V66.73a4.93,4.93,0,0,1-4.33,2.56c-3.26,0-5.93-2.4-5.93-6.7v-.21c0-4.12,2.64-6.73,5.93-6.73A4.56,4.56,0,0,1,446.83,58V56h4.77V68.81c0,4.17-2.75,6.36-7.74,6.36C439.11,75.17,436.92,73.16,436.54,70ZM447,62.56v-.18c0-1.93-1-3.16-2.75-3.16s-2.75,1.26-2.75,3.18v.22c0,1.92,1,3.15,2.72,3.15S447,64.54,447,62.56Z" fill="#fff"/><path d="M453.64,66.11c0-3.28,2.77-4.56,7.42-4.56h1.34v-.32c0-1.34-.32-2.22-1.85-2.22a1.71,1.71,0,0,0-1.89,1.66h-4.49c.21-3.37,2.86-5,6.68-5s6.3,1.57,6.3,5.28V70H462.5V68.36a4.59,4.59,0,0,1-4.14,2C455.85,70.31,453.64,69.08,453.64,66.11Zm8.76-1v-.85h-1.26c-1.92,0-2.78.37-2.78,1.52,0,.8.54,1.31,1.66,1.31A2.11,2.11,0,0,0,462.4,65.1Z" fill="#fff"/><path d="M469.77,52.23a2.49,2.49,0,0,1,2.61-2.48,2.48,2.48,0,1,1,0,4.94A2.48,2.48,0,0,1,469.77,52.23ZM470,56h4.78V70H470Z" fill="#fff"/><path d="M477.75,56h4.78v2.24a4.93,4.93,0,0,1,4.6-2.61c2.69,0,4.56,1.68,4.56,5.26V70h-4.78V61.87c0-1.58-.61-2.35-2-2.35s-2.38.85-2.38,2.64V70h-4.78Z" fill="#fff"/><path d="M494.23,67.58A2.66,2.66,0,0,1,497,64.89a2.7,2.7,0,1,1,0,5.39A2.66,2.66,0,0,1,494.23,67.58Z" fill="#fff"/></g></g></g></svg>