<svg xmlns="http://www.w3.org/2000/svg" viewBox="0 0 160 600"><title>Asset 1</title><g id="Layer_2" data-name="Layer 2"><g id="rect"><rect width="160" height="600" fill="none"/></g><g id="Open_and_ready_to_safely_get_your_maximum_refund." data-name="Open and ready to safely  get your  maximum refund."><path d="M19.69,121.35v-.19c0-5.37,4-9,9.3-9s9.34,3.38,9.34,8.84v.2c0,5.42-3.72,9.11-9.41,9.11S19.69,126.65,19.69,121.35Zm13.37,0v-.19c0-3.13-1.58-5-4.07-5s-4,1.8-4,5v.2c0,3.2,1.62,5,4.06,5S33.06,124.46,33.06,121.3Z" fill="#fff"/><path d="M40,117.17h4.41v1.92a4.55,4.55,0,0,1,4-2.27c3,0,5.44,2.27,5.44,6.68v.19c0,4.44-2.43,6.65-5.46,6.65a4.24,4.24,0,0,1-4-2.19v6.21H40Zm9.38,6.52v-.19c0-2.27-1-3.35-2.53-3.35s-2.57,1.15-2.57,3.32v.2c0,2.19,1,3.3,2.57,3.3S49.41,125.81,49.41,123.69Z" fill="#fff"/><path d="M54.81,123.77v-.2c0-4.14,3.08-6.75,7-6.75,3.52,0,6.55,2,6.55,6.65v1.16H59.27A2.56,2.56,0,0,0,62,127.31c1.45,0,2.07-.66,2.24-1.52h4.14c-.4,2.9-2.64,4.55-6.53,4.55S54.81,128,54.81,123.77ZM64,122.14c-.07-1.55-.83-2.41-2.26-2.41a2.46,2.46,0,0,0-2.47,2.41Z" fill="#fff"/><path d="M69.86,117.17h4.4v2.06a4.55,4.55,0,0,1,4.24-2.41c2.49,0,4.21,1.55,4.21,4.85v8.38H78.3v-7.49c0-1.45-.56-2.17-1.84-2.17s-2.2.79-2.2,2.44v7.22h-4.4Z" fill="#fff"/><path d="M88.6,126.48c0-3,2.56-4.22,6.85-4.22h1.23V122c0-1.23-.3-2-1.7-2a1.59,1.59,0,0,0-1.75,1.53H89.09c.2-3.1,2.64-4.63,6.16-4.63s5.81,1.45,5.81,4.88v8.35H96.78v-1.51a4.23,4.23,0,0,1-3.82,1.8C90.64,130.34,88.6,129.21,88.6,126.48Zm8.08-.94v-.79H95.52c-1.77,0-2.56.35-2.56,1.41,0,.73.49,1.2,1.53,1.2A1.94,1.94,0,0,0,96.68,125.54Z" fill="#fff"/><path d="M103.21,117.17h4.4v2.06a4.55,4.55,0,0,1,4.24-2.41c2.49,0,4.21,1.55,4.21,4.85v8.38h-4.41v-7.49c0-1.45-.56-2.17-1.84-2.17s-2.2.79-2.2,2.44v7.22h-4.4Z" fill="#fff"/><path d="M117.57,123.74v-.2c0-4.38,2.41-6.72,5.46-6.72a4.18,4.18,0,0,1,4,2.17V111.5h4.41v18.55H127V128a4.34,4.34,0,0,1-4,2.39C120,130.34,117.57,128.2,117.57,123.74Zm9.55-.07v-.2c0-2.17-.91-3.32-2.54-3.32s-2.53,1.1-2.53,3.35v.19c0,2.17,1,3.28,2.49,3.28S127.12,125.86,127.12,123.67Z" fill="#fff"/><path d="M20.23,153.3h4.41v2.56a4.05,4.05,0,0,1,4.16-2.73v4.11c-2.69-.07-4.16.77-4.16,2.84v6.1H20.23Z" fill="#fff"/><path d="M29.59,159.9v-.19c0-4.14,3.08-6.75,7-6.75,3.52,0,6.55,2,6.55,6.65v1.15H34a2.58,2.58,0,0,0,2.69,2.69c1.45,0,2.07-.67,2.24-1.53h4.14c-.4,2.91-2.64,4.56-6.53,4.56S29.59,164.11,29.59,159.9Zm9.23-1.62c-.07-1.55-.84-2.42-2.26-2.42a2.46,2.46,0,0,0-2.47,2.42Z" fill="#fff"/><path d="M44,162.61c0-3,2.56-4.21,6.85-4.21H52.1v-.3c0-1.23-.3-2-1.7-2a1.58,1.58,0,0,0-1.75,1.53H44.51c.2-3.11,2.64-4.63,6.16-4.63s5.81,1.45,5.81,4.87v8.35H52.2v-1.5a4.23,4.23,0,0,1-3.82,1.8C46.06,166.48,44,165.35,44,162.61Zm8.08-.93v-.79H50.94c-1.77,0-2.56.34-2.56,1.4,0,.74.49,1.21,1.53,1.21A2,2,0,0,0,52.1,161.68Z" fill="#fff"/><path d="M58,159.88v-.2c0-4.38,2.41-6.72,5.46-6.72a4.18,4.18,0,0,1,4,2.17v-7.49h4.41v18.54H67.42v-2.09a4.34,4.34,0,0,1-4,2.39C60.42,166.48,58,164.34,58,159.88Zm9.55-.08v-.19c0-2.17-.91-3.33-2.54-3.33s-2.53,1.11-2.53,3.35v.2c0,2.17,1,3.27,2.49,3.27S67.54,162,67.54,159.8Z" fill="#fff"/><path d="M78.11,164.88,73,153.3h4.78l2.66,6.87,2.46-6.87h4.21l-6.89,17.19H76Z" fill="#fff"/><path d="M93.28,162v-5.73H91.73v-3h1.55v-2.68h4.41v2.68h2.53v3H97.69v5.32A1.17,1.17,0,0,0,99,163a3.33,3.33,0,0,0,1.26-.22v3.35a9.22,9.22,0,0,1-2.44.37C94.9,166.48,93.28,165.07,93.28,162Z" fill="#fff"/><path d="M101.21,159.9v-.19c0-4.14,3.08-6.75,7.07-6.75s7,2.53,7,6.62v.2c0,4.19-3.08,6.7-7,6.7S101.21,164.06,101.21,159.9Zm9.61-.07v-.2c0-2.17-.87-3.37-2.54-3.37s-2.56,1.16-2.56,3.32v.2c0,2.22.86,3.42,2.56,3.42S110.82,162,110.82,159.83Z" fill="#fff"/><path d="M19.37,198.23h4.06c.15.94.57,1.45,1.82,1.45,1.08,0,1.58-.41,1.58-1.06s-.62-.91-2.39-1.15c-3.45-.45-4.9-1.46-4.9-4.14,0-2.86,2.53-4.24,5.51-4.24,3.18,0,5.4,1.09,5.69,4.17h-4A1.43,1.43,0,0,0,25.1,192c-1,0-1.45.41-1.45,1s.59.87,2.17,1.06c3.57.45,5.29,1.38,5.29,4.14,0,3.06-2.26,4.43-5.83,4.43S19.46,201.09,19.37,198.23Z" fill="#fff"/><path d="M31.8,198.75c0-3,2.56-4.21,6.85-4.21h1.23v-.3c0-1.23-.29-2-1.7-2a1.58,1.58,0,0,0-1.75,1.52H32.3c.19-3.1,2.63-4.63,6.15-4.63s5.81,1.46,5.81,4.88v8.35H40v-1.5a4.25,4.25,0,0,1-3.82,1.79C33.85,202.61,31.8,201.48,31.8,198.75Zm8.08-.94V197H38.72c-1.77,0-2.56.35-2.56,1.41,0,.74.49,1.2,1.53,1.2C39,199.63,39.88,198.92,39.88,197.81Z" fill="#fff"/><path d="M47.07,192.44H45.45v-3h1.62v-1.13c0-3.21,2-4.73,5-4.73a7.72,7.72,0,0,1,2,.27v3.22a4.32,4.32,0,0,0-1.2-.17,1.3,1.3,0,0,0-1.48,1.41v1.13h2.61v3H51.46v9.88H47.07Z" fill="#fff"/><path d="M54.41,196v-.2c0-4.14,3.08-6.75,7-6.75,3.53,0,6.55,2,6.55,6.65v1.16H58.87a2.57,2.57,0,0,0,2.69,2.68c1.45,0,2.07-.66,2.24-1.52h4.13c-.39,2.9-2.63,4.55-6.52,4.55S54.41,200.25,54.41,196Zm9.24-1.63c-.07-1.55-.84-2.41-2.27-2.41a2.45,2.45,0,0,0-2.46,2.41Z" fill="#fff"/><path d="M69.59,183.77H74v18.55H69.59Z" fill="#fff"/><path d="M80.37,201l-5.14-11.57H80l2.66,6.87,2.47-6.87h4.21l-6.9,17.19H78.23Z" fill="#fff"/><path d="M19.51,238.46H23.9c.19.93.76,1.67,2.36,1.67A2.43,2.43,0,0,0,29,237.42v-2a4.5,4.5,0,0,1-4,2.36c-3,0-5.46-2.21-5.46-6.18v-.19c0-3.8,2.44-6.21,5.46-6.21a4.17,4.17,0,0,1,4,2.17v-1.83H33.4v11.8c0,3.84-2.53,5.86-7.14,5.86C21.88,243.23,19.86,241.39,19.51,238.46Zm9.61-6.85v-.17c0-1.78-.91-2.91-2.54-2.91S24,229.69,24,231.46v.2c0,1.77.94,2.9,2.52,2.9S29.12,233.43,29.12,231.61Z" fill="#fff"/><path d="M35,232.17V232c0-4.14,3.07-6.75,7-6.75,3.52,0,6.55,2,6.55,6.65V233H39.41a2.57,2.57,0,0,0,2.69,2.68c1.45,0,2.07-.66,2.24-1.53h4.14c-.4,2.91-2.64,4.56-6.53,4.56C37.91,238.75,35,236.39,35,232.17Zm9.23-1.62c-.07-1.55-.84-2.41-2.26-2.41a2.45,2.45,0,0,0-2.47,2.41Z" fill="#fff"/><path d="M50.6,234.32v-5.74H49v-3H50.6v-2.68H55v2.68h2.54v3H55v5.32a1.18,1.18,0,0,0,1.31,1.35,3.37,3.37,0,0,0,1.26-.22v3.35a9.22,9.22,0,0,1-2.44.37C52.22,238.75,50.6,237.35,50.6,234.32Z" fill="#fff"/><path d="M67.74,237.15l-5.15-11.58h4.78L70,232.45l2.46-6.88H76.7l-6.89,17.2H65.6Z" fill="#fff"/><path d="M76.46,232.17V232c0-4.14,3.08-6.75,7.07-6.75s7,2.54,7,6.62v.2c0,4.19-3.07,6.7-7,6.7S76.46,236.34,76.46,232.17Zm9.6-.07v-.2c0-2.16-.86-3.37-2.53-3.37S81,229.69,81,231.85v.2c0,2.22.87,3.43,2.57,3.43S86.06,234.24,86.06,232.1Z" fill="#fff"/><path d="M92,234v-8.4h4.41v7.69c0,1.45.56,2.17,1.82,2.17s2.19-.79,2.19-2.44v-7.42h4.41v12.89h-4.41v-2a4.23,4.23,0,0,1-4.09,2.29C93.85,238.75,92,237.22,92,234Z" fill="#fff"/><path d="M107.07,225.57h4.41v2.57a4.07,4.07,0,0,1,4.16-2.74v4.12c-2.68-.08-4.16.76-4.16,2.83v6.11h-4.41Z" fill="#fff"/><path d="M20.23,261.71h4.41v2a4.49,4.49,0,0,1,4-2.31,3.5,3.5,0,0,1,3.5,2.14,5.12,5.12,0,0,1,4.26-2.14c2.44,0,4.21,1.57,4.21,4.8v8.42h-4.4v-7.68c0-1.31-.65-2-1.66-2a1.91,1.91,0,0,0-2,2.17v7.46H28.26v-7.68c0-1.31-.64-2-1.65-2a1.91,1.91,0,0,0-2,2.17v7.46H20.23Z" fill="#fff"/><path d="M42.05,271c0-3,2.56-4.21,6.85-4.21h1.23v-.3c0-1.23-.3-2-1.7-2A1.58,1.58,0,0,0,46.68,266H42.54c.2-3.11,2.64-4.63,6.16-4.63s5.81,1.45,5.81,4.87v8.35H50.23v-1.5a4.25,4.25,0,0,1-3.82,1.8C44.09,274.89,42.05,273.75,42.05,271Zm8.08-.94v-.78H49c-1.77,0-2.56.34-2.56,1.4,0,.74.49,1.21,1.53,1.21A2,2,0,0,0,50.13,270.08Z" fill="#fff"/><path d="M59.91,268l-4-6.33H61l2,3.4,1.95-3.4h4.53l-4.07,6,4.46,6.89H64.76l-2.29-3.84-2.34,3.84H55.62Z" fill="#fff"/><path d="M71,258.21a2.44,2.44,0,1,1,2.42,2.27A2.31,2.31,0,0,1,71,258.21Zm.23,3.5H75.6v12.88H71.19Z" fill="#fff"/><path d="M78,261.71h4.41v2a4.5,4.5,0,0,1,4-2.31,3.48,3.48,0,0,1,3.49,2.14,5.12,5.12,0,0,1,4.27-2.14c2.43,0,4.21,1.57,4.21,4.8v8.42H94v-7.68c0-1.31-.64-2-1.65-2a1.91,1.91,0,0,0-2,2.17v7.46H86v-7.68c0-1.31-.64-2-1.65-2a1.91,1.91,0,0,0-2,2.17v7.46H78Z" fill="#fff"/><path d="M100.42,270.11v-8.4h4.41v7.69c0,1.45.57,2.16,1.82,2.16s2.2-.79,2.2-2.44v-7.41h4.4v12.88h-4.4v-2a4.24,4.24,0,0,1-4.09,2.29C102.27,274.89,100.42,273.36,100.42,270.11Z" fill="#fff"/><path d="M115.5,261.71h4.41v2a4.48,4.48,0,0,1,4-2.31,3.5,3.5,0,0,1,3.5,2.14,5.12,5.12,0,0,1,4.26-2.14c2.44,0,4.21,1.57,4.21,4.8v8.42H131.5v-7.68c0-1.31-.64-2-1.65-2a1.91,1.91,0,0,0-2,2.17v7.46h-4.35v-7.68c0-1.31-.65-2-1.65-2a1.91,1.91,0,0,0-2,2.17v7.46H115.5Z" fill="#fff"/><path d="M20.23,297.85h4.41v2.56a4.06,4.06,0,0,1,4.16-2.74v4.12c-2.69-.08-4.16.76-4.16,2.83v6.11H20.23Z" fill="#fff"/><path d="M29.59,304.45v-.2c0-4.14,3.08-6.75,7-6.75,3.52,0,6.55,2,6.55,6.65v1.16H34A2.57,2.57,0,0,0,36.73,308c1.45,0,2.07-.66,2.24-1.52h4.14c-.4,2.9-2.64,4.55-6.53,4.55S29.59,308.66,29.59,304.45Zm9.23-1.63c-.07-1.55-.84-2.41-2.26-2.41a2.45,2.45,0,0,0-2.47,2.41Z" fill="#fff"/><path d="M45.3,300.85H43.68v-3H45.3v-1.14c0-3.2,2-4.72,5.05-4.72a7.78,7.78,0,0,1,2,.27v3.22a4,4,0,0,0-1.21-.17,1.3,1.3,0,0,0-1.48,1.4v1.14h2.61v3H49.68v9.88H45.3Z" fill="#fff"/><path d="M53.67,306.25v-8.4h4.41v7.68c0,1.45.57,2.17,1.83,2.17s2.19-.79,2.19-2.44v-7.41h4.41v12.88H62.1v-2A4.24,4.24,0,0,1,58,311C55.52,311,53.67,309.5,53.67,306.25Z" fill="#fff"/><path d="M68.75,297.85h4.41v2.07a4.54,4.54,0,0,1,4.23-2.42c2.49,0,4.21,1.55,4.21,4.85v8.38H77.19v-7.49c0-1.45-.56-2.17-1.84-2.17s-2.19.79-2.19,2.44v7.22H68.75Z" fill="#fff"/><path d="M83.11,304.42v-.19c0-4.39,2.41-6.73,5.46-6.73a4.18,4.18,0,0,1,4,2.17v-7.49H97v18.55H92.54v-2.1a4.34,4.34,0,0,1-4,2.39C85.55,311,83.11,308.88,83.11,304.42Zm9.55-.07v-.2c0-2.17-.91-3.32-2.53-3.32s-2.54,1.11-2.54,3.35v.19c0,2.17,1,3.28,2.49,3.28S92.66,306.54,92.66,304.35Z" fill="#fff"/><path d="M99,308.51a2.46,2.46,0,0,1,2.51-2.49,2.49,2.49,0,1,1,0,5A2.46,2.46,0,0,1,99,308.51Z" fill="#fff"/></g></g></svg>