<svg xmlns="http://www.w3.org/2000/svg" viewBox="0 0 300 250"><title>Asset 4</title><g id="Layer_2" data-name="Layer 2"><g id="rect"><rect width="300" height="250" fill="none"/></g><g id="Most_people_get_a_tax_refund._File_today_at_an_H_R_Block_near_y" data-name="Most people get a tax refund. File today at an H&amp;R Block near y"><path d="M22.67,39.65h6.48l3.32,9.24,3.32-9.24h6.35V57H37.2V46.2L33,57H31.3L27.11,46.2V57H22.67Z" fill="#fff"/><path d="M43.92,50.81v-.2c0-4.07,3-6.64,7-6.64s6.91,2.5,6.91,6.52v.2c0,4.12-3,6.59-6.94,6.59S43.92,54.91,43.92,50.81Zm9.45-.07v-.2c0-2.13-.85-3.32-2.49-3.32s-2.53,1.14-2.53,3.27v.2c0,2.18.85,3.37,2.53,3.37S53.37,52.84,53.37,50.74Z" fill="#fff"/><path d="M58.54,53h4c.14.92.56,1.43,1.79,1.43,1.07,0,1.56-.42,1.56-1s-.61-.89-2.36-1.14c-3.39-.43-4.82-1.43-4.82-4.07,0-2.81,2.5-4.17,5.43-4.17,3.13,0,5.31,1.07,5.6,4.1H65.81a1.41,1.41,0,0,0-1.62-1.26c-.95,0-1.43.41-1.43,1s.58.85,2.13,1c3.52.44,5.21,1.36,5.21,4.08,0,3-2.23,4.36-5.74,4.36S58.64,55.78,58.54,53Z" fill="#fff"/><path d="M72.09,52.92V47.27H70.57v-3h1.52V41.67h4.34v2.64h2.5v3h-2.5v5.24a1.16,1.16,0,0,0,1.29,1.33A3.26,3.26,0,0,0,79,53.62v3.3a9.44,9.44,0,0,1-2.4.36C73.69,57.28,72.09,55.9,72.09,52.92Z" fill="#fff"/><path d="M85,44.31h4.34V46.2a4.49,4.49,0,0,1,4-2.23c2.95,0,5.36,2.23,5.36,6.57v.2c0,4.36-2.41,6.54-5.39,6.54a4.19,4.19,0,0,1-3.93-2.16v6.11H85Zm9.24,6.43v-.2c0-2.23-1-3.3-2.5-3.3s-2.52,1.14-2.52,3.28v.19c0,2.16,1,3.25,2.52,3.25S94.23,52.82,94.23,50.74Z" fill="#fff"/><path d="M99.54,50.81v-.2c0-4.07,3-6.64,6.87-6.64,3.46,0,6.45,2,6.45,6.55v1.14h-8.93a2.53,2.53,0,0,0,2.65,2.64c1.43,0,2-.66,2.2-1.5h4.08c-.39,2.86-2.6,4.48-6.43,4.48C102.45,57.28,99.54,55,99.54,50.81Zm9.1-1.6c-.08-1.53-.83-2.38-2.23-2.38A2.42,2.42,0,0,0,104,49.21Z" fill="#fff"/><path d="M113.68,50.81v-.2c0-4.07,3-6.64,7-6.64s6.91,2.5,6.91,6.52v.2c0,4.12-3,6.59-6.93,6.59S113.68,54.91,113.68,50.81Zm9.46-.07v-.2c0-2.13-.85-3.32-2.5-3.32s-2.52,1.14-2.52,3.27v.2c0,2.18.85,3.37,2.52,3.37S123.14,52.84,123.14,50.74Z" fill="#fff"/><path d="M129.08,44.31h4.34V46.2a4.49,4.49,0,0,1,4-2.23c3,0,5.36,2.23,5.36,6.57v.2c0,4.36-2.4,6.54-5.38,6.54a4.18,4.18,0,0,1-3.93-2.16v6.11h-4.34Zm9.24,6.43v-.2c0-2.23-1-3.3-2.5-3.3s-2.52,1.14-2.52,3.28v.19c0,2.16.95,3.25,2.52,3.25S138.32,52.82,138.32,50.74Z" fill="#fff"/><path d="M144.43,38.73h4.32V57h-4.32Z" fill="#fff"/><path d="M150.4,50.81v-.2c0-4.07,3-6.64,6.86-6.64,3.47,0,6.45,2,6.45,6.55v1.14h-8.92a2.53,2.53,0,0,0,2.64,2.64c1.43,0,2-.66,2.2-1.5h4.08c-.39,2.86-2.6,4.48-6.43,4.48S150.4,55,150.4,50.81Zm9.09-1.6c-.07-1.53-.82-2.38-2.23-2.38a2.42,2.42,0,0,0-2.43,2.38Z" fill="#fff"/><path d="M168.92,57h4.32c.19.92.75,1.65,2.33,1.65A2.4,2.4,0,0,0,178.26,56V54a4.45,4.45,0,0,1-3.93,2.33c-3,0-5.38-2.18-5.38-6.09v-.19c0-3.73,2.4-6.11,5.38-6.11a4.14,4.14,0,0,1,3.93,2.13V44.31h4.34V55.92c0,3.79-2.5,5.77-7,5.77C171.25,61.69,169.26,59.88,168.92,57Zm9.46-6.74v-.17c0-1.75-.9-2.86-2.5-2.86s-2.5,1.14-2.5,2.88v.2c0,1.74.93,2.86,2.48,2.86S178.38,52,178.38,50.25Z" fill="#fff"/><path d="M184.13,50.81v-.2c0-4.07,3-6.64,6.86-6.64,3.47,0,6.45,2,6.45,6.55v1.14h-8.92a2.53,2.53,0,0,0,2.64,2.64c1.43,0,2-.66,2.21-1.5h4.07c-.39,2.86-2.59,4.48-6.43,4.48S184.13,55,184.13,50.81Zm9.09-1.6c-.07-1.53-.82-2.38-2.23-2.38a2.41,2.41,0,0,0-2.42,2.38Z" fill="#fff"/><path d="M199.53,52.92V47.27H198v-3h1.53V41.67h4.34v2.64h2.49v3h-2.49v5.24c0,.92.46,1.33,1.28,1.33a3.23,3.23,0,0,0,1.24-.22v3.3a9.37,9.37,0,0,1-2.4.36C201.13,57.28,199.53,55.9,199.53,52.92Z" fill="#fff"/><path d="M211.7,53.48c0-3,2.52-4.15,6.74-4.15h1.21V49c0-1.21-.29-2-1.67-2a1.55,1.55,0,0,0-1.72,1.5h-4.07c.19-3.06,2.59-4.56,6.06-4.56S224,45.4,224,48.77V57h-4.22V55.51A4.17,4.17,0,0,1,216,57.28C213.71,57.28,211.7,56.17,211.7,53.48Zm8-.93v-.77h-1.14c-1.74,0-2.52.34-2.52,1.38,0,.73.49,1.19,1.51,1.19A1.91,1.91,0,0,0,219.65,52.55Z" fill="#fff"/><path d="M231.08,52.92V47.27h-1.53v-3h1.53V41.67h4.34v2.64h2.49v3h-2.49v5.24c0,.92.46,1.33,1.28,1.33a3.23,3.23,0,0,0,1.24-.22v3.3a9.37,9.37,0,0,1-2.4.36C232.68,57.28,231.08,55.9,231.08,52.92Z" fill="#fff"/><path d="M238.88,53.48c0-3,2.53-4.15,6.75-4.15h1.21V49c0-1.21-.29-2-1.67-2a1.56,1.56,0,0,0-1.73,1.5h-4.07c.19-3.06,2.59-4.56,6.06-4.56s5.72,1.43,5.72,4.8V57h-4.22V55.51a4.15,4.15,0,0,1-3.75,1.77C240.9,57.28,238.88,56.17,238.88,53.48Zm8-.93v-.77H245.7c-1.75,0-2.52.34-2.52,1.38,0,.73.48,1.19,1.5,1.19A1.92,1.92,0,0,0,246.84,52.55Z" fill="#fff"/><path d="M256.46,50.54l-3.95-6.23h5l2,3.35,1.92-3.35h4.46l-4,5.89L266.24,57h-5L259,53.21,256.68,57h-4.43Z" fill="#fff"/><path d="M22.29,77.2h4.34v2.52A4,4,0,0,1,30.72,77v4c-2.64-.07-4.09.75-4.09,2.79v6H22.29Z" fill="#fff"/><path d="M31.5,83.7v-.19c0-4.08,3-6.65,6.86-6.65,3.47,0,6.45,2,6.45,6.55v1.14H35.89a2.53,2.53,0,0,0,2.64,2.64c1.43,0,2-.65,2.21-1.5h4.07c-.39,2.86-2.59,4.48-6.42,4.48C34.41,90.17,31.5,87.85,31.5,83.7Zm9.09-1.6c-.07-1.53-.82-2.38-2.23-2.38a2.41,2.41,0,0,0-2.42,2.38Z" fill="#fff"/><path d="M47,80.16h-1.6v-3H47V76.09c0-3.15,2-4.66,5-4.66a7.54,7.54,0,0,1,2,.27v3.18a3.9,3.9,0,0,0-1.19-.17,1.27,1.27,0,0,0-1.45,1.38V77.2h2.57v3H51.29v9.72H47Z" fill="#fff"/><path d="M55.22,85.47V77.2h4.34v7.57c0,1.43.55,2.13,1.79,2.13s2.16-.77,2.16-2.4V77.2h4.34V89.88H63.51v-2a4.17,4.17,0,0,1-4,2.25C57,90.17,55.22,88.67,55.22,85.47Z" fill="#fff"/><path d="M70.06,77.2H74.4v2a4.48,4.48,0,0,1,4.17-2.38c2.45,0,4.14,1.53,4.14,4.78v8.24H78.37V82.51c0-1.43-.55-2.13-1.81-2.13s-2.16.77-2.16,2.4v7.1H70.06Z" fill="#fff"/><path d="M84.19,83.68v-.2c0-4.31,2.38-6.62,5.39-6.62A4.1,4.1,0,0,1,93.48,79V71.63h4.34V89.88H93.48V87.82a4.27,4.27,0,0,1-4,2.35C86.6,90.17,84.19,88.06,84.19,83.68Zm9.41-.08v-.19c0-2.13-.89-3.27-2.5-3.27s-2.49,1.09-2.49,3.29v.2c0,2.13.94,3.22,2.45,3.22S93.6,85.76,93.6,83.6Z" fill="#fff"/><path d="M99.86,87.7a2.41,2.41,0,0,1,2.47-2.45,2.45,2.45,0,1,1,0,4.9A2.41,2.41,0,0,1,99.86,87.7Z" fill="#fff"/><path d="M111.72,72.55h11.71V76.4h-6.72v3.69h5.36v3.66h-5.36v6.13h-5Z" fill="#fff"/><path d="M124.67,73.76A2.39,2.39,0,1,1,127,76,2.27,2.27,0,0,1,124.67,73.76Zm.22,3.44h4.34V89.88h-4.34Z" fill="#fff"/><path d="M131.68,71.63H136V89.88h-4.31Z" fill="#fff"/><path d="M137.64,83.7v-.19c0-4.08,3-6.65,6.86-6.65,3.47,0,6.45,2,6.45,6.55v1.14H142a2.53,2.53,0,0,0,2.64,2.64c1.43,0,2-.65,2.21-1.5H151c-.39,2.86-2.59,4.48-6.42,4.48S137.64,87.85,137.64,83.7Zm9.09-1.6c-.07-1.53-.82-2.38-2.23-2.38a2.41,2.41,0,0,0-2.42,2.38Z" fill="#fff"/><path d="M157.45,85.81V80.16h-1.52v-3h1.52V74.56h4.34V77.2h2.5v3h-2.5V85.4a1.16,1.16,0,0,0,1.29,1.33,3.17,3.17,0,0,0,1.23-.22v3.3a8.88,8.88,0,0,1-2.4.36C159.05,90.17,157.45,88.79,157.45,85.81Z" fill="#fff"/><path d="M165.26,83.7v-.19c0-4.08,3-6.65,7-6.65s6.91,2.5,6.91,6.53v.19c0,4.12-3,6.59-6.93,6.59S165.26,87.8,165.26,83.7Zm9.46-.07v-.2c0-2.13-.85-3.32-2.5-3.32s-2.52,1.14-2.52,3.28v.19c0,2.18.85,3.37,2.52,3.37S174.72,85.74,174.72,83.63Z" fill="#fff"/><path d="M180,83.68v-.2c0-4.31,2.38-6.62,5.38-6.62A4.12,4.12,0,0,1,189.32,79V71.63h4.34V89.88h-4.34V87.82a4.28,4.28,0,0,1-4,2.35C182.43,90.17,180,88.06,180,83.68Zm9.41-.08v-.19c0-2.13-.9-3.27-2.5-3.27s-2.5,1.09-2.5,3.29v.2c0,2.13.95,3.22,2.45,3.22S189.44,85.76,189.44,83.6Z" fill="#fff"/><path d="M195.14,86.37c0-3,2.52-4.15,6.74-4.15h1.21v-.29c0-1.21-.29-2-1.67-2a1.55,1.55,0,0,0-1.72,1.5h-4.08c.2-3,2.6-4.56,6.06-4.56s5.73,1.43,5.73,4.8v8.22h-4.22V88.4a4.16,4.16,0,0,1-3.76,1.77C197.15,90.17,195.14,89.06,195.14,86.37Zm8-.92v-.78H202c-1.75,0-2.52.34-2.52,1.38,0,.73.48,1.19,1.5,1.19C202.17,87.24,203.09,86.54,203.09,85.45Z" fill="#fff"/><path d="M213.06,88.6,208,77.2h4.7L215.31,84l2.43-6.77h4.14l-6.79,16.93H211Z" fill="#fff"/><path d="M226.69,86.37c0-3,2.52-4.15,6.74-4.15h1.21v-.29c0-1.21-.29-2-1.67-2a1.55,1.55,0,0,0-1.72,1.5h-4.08c.2-3,2.6-4.56,6.06-4.56s5.73,1.43,5.73,4.8v8.22h-4.22V88.4A4.16,4.16,0,0,1,231,90.17C228.7,90.17,226.69,89.06,226.69,86.37Zm7.95-.92v-.78H233.5c-1.75,0-2.52.34-2.52,1.38,0,.73.48,1.19,1.5,1.19C233.72,87.24,234.64,86.54,234.64,85.45Z" fill="#fff"/><path d="M241.58,85.81V80.16h-1.53v-3h1.53V74.56h4.34V77.2h2.49v3h-2.49V85.4c0,.92.46,1.33,1.28,1.33a3.23,3.23,0,0,0,1.24-.22v3.3a8.94,8.94,0,0,1-2.4.36C243.18,90.17,241.58,88.79,241.58,85.81Z" fill="#fff"/><path d="M253.75,86.37c0-3,2.52-4.15,6.74-4.15h1.21v-.29c0-1.21-.29-2-1.67-2a1.55,1.55,0,0,0-1.72,1.5h-4.07c.19-3,2.59-4.56,6.06-4.56s5.72,1.43,5.72,4.8v8.22H261.8V88.4A4.15,4.15,0,0,1,258,90.17C255.76,90.17,253.75,89.06,253.75,86.37Zm7.95-.92v-.78h-1.14c-1.74,0-2.52.34-2.52,1.38,0,.73.49,1.19,1.5,1.19C260.78,87.24,261.7,86.54,261.7,85.45Z" fill="#fff"/><path d="M268.13,77.2h4.34v2a4.48,4.48,0,0,1,4.17-2.38c2.45,0,4.15,1.53,4.15,4.78v8.24h-4.34V82.51c0-1.43-.56-2.13-1.82-2.13s-2.16.77-2.16,2.4v7.1h-4.34Z" fill="#fff"/><path d="M22.67,105.44h5v6.62h5.7v-6.62h5v17.34h-5v-6.84h-5.7v6.84h-5Z" fill="#fff"/><path d="M55,119.24l2.89,3.54H52.21l-1-1.26a6.91,6.91,0,0,1-4.68,1.55c-3.69,0-6.09-1.94-6.09-5.24,0-2.23,1.36-3.88,3.81-5a5.57,5.57,0,0,1-1.07-3c0-3,2.53-4.54,5.58-4.54,2.76,0,5.26,1.38,5.26,4,0,1.89-1.11,3.27-3.46,4.29l2.18,2.67L54,113.76h3.78Zm-6-.51-2.74-3.3a2,2,0,0,0-1.16,1.87,2,2,0,0,0,2.2,2.15A2.28,2.28,0,0,0,49,118.73Zm-.53-7c1.16-.55,1.72-1.21,1.72-2.11a1.25,1.25,0,0,0-1.29-1.33,1.38,1.38,0,0,0-1.43,1.5A3.17,3.17,0,0,0,48.43,111.74Z" fill="#fff"/><path d="M59.44,105.44h6.79c4.53,0,7,1.84,7,5.5v.1a4.53,4.53,0,0,1-3.13,4.56l4.15,7.18H69.06l-3.51-6.21H64.38v6.21H59.44Zm6.54,7.9c1.68,0,2.5-.7,2.5-2.11v-.09c0-1.41-.87-2-2.47-2H64.38v4.17Z" fill="#fff"/><path d="M80.39,105.44h7.73c4.1,0,5.85,1.84,5.85,4.53v.1A3.57,3.57,0,0,1,91,113.8a3.77,3.77,0,0,1,3.47,4v.1c0,3.1-2,4.83-6.3,4.83H80.39Zm6.74,6.89c1.55,0,2.13-.54,2.13-1.77v-.1c0-1.19-.63-1.72-2.13-1.72H85.24v3.59Zm.17,7.12c1.57,0,2.3-.72,2.3-2v-.1c0-1.3-.7-2-2.45-2H85.24v4.09Z" fill="#fff"/><path d="M96.22,104.52h4.32v18.26H96.22Z" fill="#fff"/><path d="M102.19,116.59v-.19c0-4.07,3-6.64,7-6.64s6.91,2.49,6.91,6.52v.19c0,4.12-3,6.6-6.94,6.6S102.19,120.69,102.19,116.59Zm9.45-.07v-.19c0-2.14-.84-3.33-2.49-3.33s-2.52,1.14-2.52,3.28v.19c0,2.18.84,3.37,2.52,3.37S111.64,118.63,111.64,116.52Z" fill="#fff"/><path d="M116.91,116.59v-.19c0-4.22,3-6.64,6.76-6.64,3.11,0,6,1.35,6.21,5.21h-4.07a1.88,1.88,0,0,0-2-1.84c-1.53,0-2.43,1.09-2.43,3.22v.19c0,2.21.85,3.35,2.5,3.35a2.12,2.12,0,0,0,2.21-2.11H130c-.12,3.2-2.28,5.29-6.37,5.29C119.79,123.07,116.91,120.86,116.91,116.59Z" fill="#fff"/><path d="M131.36,104.52h4.34v10.59l3.42-5h4.51l-4.15,5.69,4.49,7h-4.85l-3.42-5.56v5.56h-4.34Z" fill="#fff"/><path d="M149.4,110.1h4.34v2a4.47,4.47,0,0,1,4.17-2.37c2.45,0,4.15,1.52,4.15,4.77v8.25h-4.34v-7.37c0-1.44-.56-2.14-1.82-2.14s-2.16.78-2.16,2.4v7.11H149.4Z" fill="#fff"/><path d="M163.49,116.59v-.19c0-4.07,3-6.64,6.86-6.64,3.47,0,6.45,2,6.45,6.54v1.14h-8.92a2.53,2.53,0,0,0,2.64,2.64c1.43,0,2-.65,2.21-1.5h4.07c-.38,2.86-2.59,4.49-6.42,4.49S163.49,120.74,163.49,116.59Zm9.09-1.6c-.07-1.52-.82-2.37-2.23-2.37a2.41,2.41,0,0,0-2.42,2.37Z" fill="#fff"/><path d="M177.7,119.26c0-3,2.52-4.15,6.74-4.15h1.21v-.29c0-1.21-.29-2-1.67-2a1.55,1.55,0,0,0-1.72,1.5h-4.07c.19-3,2.59-4.55,6.06-4.55s5.72,1.43,5.72,4.8v8.22h-4.22V121.3a4.17,4.17,0,0,1-3.76,1.77C179.71,123.07,177.7,122,177.7,119.26Zm8-.92v-.78h-1.14c-1.74,0-2.52.34-2.52,1.38,0,.73.49,1.19,1.51,1.19A1.91,1.91,0,0,0,185.65,118.34Z" fill="#fff"/><path d="M192.08,110.1h4.34v2.52a4,4,0,0,1,4.1-2.69v4c-2.64-.07-4.1.76-4.1,2.79v6h-4.34Z" fill="#fff"/><path d="M210.49,121.49l-5.07-11.39h4.7l2.62,6.76,2.43-6.76h4.14L212.52,127h-4.14Z" fill="#fff"/><path d="M219.07,116.59v-.19c0-4.07,3-6.64,7-6.64s6.91,2.49,6.91,6.52v.19c0,4.12-3,6.6-6.93,6.6S219.07,120.69,219.07,116.59Zm9.46-.07v-.19c0-2.14-.85-3.33-2.5-3.33s-2.52,1.14-2.52,3.28v.19c0,2.18.85,3.37,2.52,3.37S228.53,118.63,228.53,116.52Z" fill="#fff"/><path d="M234.37,118.36V110.1h4.34v7.56c0,1.43.56,2.13,1.8,2.13s2.16-.77,2.16-2.4V110.1H247v12.68h-4.34v-2a4.18,4.18,0,0,1-4,2.26C236.19,123.07,234.37,121.56,234.37,118.36Z" fill="#fff"/><path d="M249,120.59a2.42,2.42,0,0,1,2.48-2.44,2.45,2.45,0,1,1,0,4.89A2.42,2.42,0,0,1,249,120.59Z" fill="#fff"/></g></g></svg>