<svg xmlns="http://www.w3.org/2000/svg" viewBox="0 0 160 600"><title>H5</title><g id="Layer_2" data-name="Layer 2"><g id="Rect"><rect width="160" height="600" fill="none"/></g><g id="H5"><g id="You_could_get_up_to_3_500_within_minutes_of_filing._0_interes" data-name="You could get up to $3,500 within minutes of filing. 0% interes"><path d="M26.45,56,20.21,45h6l3.24,6.44L32.65,45H37.9L32,56v8.18H26.45Z" fill="#fff"/><path d="M35.89,57.32v-.21c0-4.5,3.34-7.33,7.68-7.33s7.62,2.75,7.62,7.19v.22c0,4.55-3.34,7.27-7.65,7.27S35.89,61.84,35.89,57.32Zm10.43-.08V57c0-2.36-.93-3.67-2.75-3.67S40.78,54.62,40.78,57v.22c0,2.41.94,3.72,2.79,3.72S46.32,59.57,46.32,57.24Z" fill="#fff"/><path d="M52.77,59.27V50.15h4.79V58.5c0,1.58.61,2.35,2,2.35s2.38-.85,2.38-2.65V50.15H66.7v14H61.92V62a4.61,4.61,0,0,1-4.44,2.48C54.77,64.46,52.77,62.81,52.77,59.27Z" fill="#fff"/><path d="M20.67,89.07v-.21c0-4.66,3.34-7.33,7.46-7.33,3.43,0,6.58,1.5,6.85,5.75H30.49a2.07,2.07,0,0,0-2.25-2c-1.69,0-2.68,1.2-2.68,3.55V89c0,2.43.94,3.69,2.76,3.69a2.32,2.32,0,0,0,2.43-2.33h4.31c-.13,3.53-2.52,5.83-7,5.83C23.85,96.21,20.67,93.78,20.67,89.07Z" fill="#fff"/><path d="M35.86,89.07v-.21c0-4.5,3.35-7.33,7.68-7.33s7.62,2.75,7.62,7.19v.22c0,4.55-3.34,7.27-7.65,7.27S35.86,93.59,35.86,89.07ZM46.29,89v-.21c0-2.36-.93-3.67-2.75-3.67s-2.78,1.26-2.78,3.61v.22c0,2.41.93,3.72,2.78,3.72S46.29,91.32,46.29,89Z" fill="#fff"/><path d="M52.74,91V81.9h4.79v8.35c0,1.58.62,2.35,2,2.35s2.38-.85,2.38-2.65v-8h4.79v14H61.89V93.73a4.6,4.6,0,0,1-4.44,2.48C54.75,96.21,52.74,94.56,52.74,91Z" fill="#fff"/><path d="M69.25,75.75H74V95.89H69.25Z" fill="#fff"/><path d="M75.88,89v-.21c0-4.76,2.62-7.3,5.94-7.3a4.52,4.52,0,0,1,4.3,2.35V75.75h4.79V95.89H86.12V93.62a4.7,4.7,0,0,1-4.36,2.59C78.53,96.21,75.88,93.89,75.88,89ZM86.26,89v-.21c0-2.35-1-3.61-2.76-3.61s-2.75,1.2-2.75,3.64V89c0,2.36,1,3.56,2.7,3.56S86.26,91.35,86.26,89Z" fill="#fff"/><path d="M97.44,95.89h4.76c.22,1,.83,1.82,2.57,1.82a2.65,2.65,0,0,0,3-2.94V92.63a4.9,4.9,0,0,1-4.33,2.57c-3.27,0-5.94-2.41-5.94-6.72v-.21c0-4.12,2.65-6.74,5.94-6.74a4.55,4.55,0,0,1,4.33,2.35v-2h4.79V94.72c0,4.17-2.76,6.36-7.76,6.36C100,101.08,97.81,99.08,97.44,95.89Zm10.43-7.43v-.19c0-1.93-1-3.16-2.75-3.16s-2.76,1.26-2.76,3.19v.21c0,1.93,1,3.16,2.73,3.16S107.87,90.44,107.87,88.46Z" fill="#fff"/><path d="M114.21,89.07v-.21c0-4.5,3.35-7.33,7.57-7.33,3.83,0,7.12,2.19,7.12,7.22V90h-9.85A2.8,2.8,0,0,0,122,92.92c1.58,0,2.25-.72,2.43-1.65h4.5c-.43,3.15-2.86,4.94-7.09,4.94C117.42,96.21,114.21,93.65,114.21,89.07Zm10-1.76c-.08-1.69-.91-2.63-2.46-2.63s-2.43.94-2.67,2.63Z" fill="#fff"/><path d="M131.2,91.4V85.17h-1.69V81.9h1.69V79H136V81.9h2.75v3.27H136v5.77c0,1,.5,1.48,1.41,1.48a3.68,3.68,0,0,0,1.37-.25v3.64a10.15,10.15,0,0,1-2.65.4C133,96.21,131.2,94.69,131.2,91.4Z" fill="#fff"/><path d="M21.31,122.77v-9.12H26.1V122c0,1.58.61,2.35,2,2.35s2.38-.85,2.38-2.65v-8h4.79v14H30.46v-2.16A4.6,4.6,0,0,1,26,128C23.32,128,21.31,126.31,21.31,122.77Z" fill="#fff"/><path d="M37.68,113.65h4.79v2.09a4.93,4.93,0,0,1,4.36-2.46c3.26,0,5.91,2.46,5.91,7.25v.21c0,4.82-2.65,7.22-5.94,7.22a4.61,4.61,0,0,1-4.33-2.38v6.74H37.68Zm10.19,7.09v-.21c0-2.46-1.07-3.64-2.75-3.64s-2.78,1.26-2.78,3.61v.21c0,2.39,1,3.59,2.78,3.59S47.87,123,47.87,120.74Z" fill="#fff"/><path d="M60,123.15v-6.23H58.31v-3.27H60v-2.91h4.79v2.91h2.75v3.27H64.78v5.77c0,1,.51,1.48,1.42,1.48a3.66,3.66,0,0,0,1.36-.25v3.64a10.08,10.08,0,0,1-2.65.4C61.76,128,60,126.44,60,123.15Z" fill="#fff"/><path d="M68.6,120.82v-.21c0-4.5,3.35-7.33,7.68-7.33s7.62,2.75,7.62,7.19v.22c0,4.55-3.34,7.27-7.65,7.27S68.6,125.34,68.6,120.82ZM79,120.74v-.21c0-2.36-.94-3.67-2.76-3.67s-2.78,1.26-2.78,3.61v.22c0,2.41.93,3.72,2.78,3.72S79,123.07,79,120.74Z" fill="#fff"/><path d="M24.49,150.64c-2.7-.19-4-1.62-4.12-3.68h2.89a1.48,1.48,0,0,0,1.23,1.47v-2.28c-2.71-.39-3.87-1.37-3.87-3.54,0-1.89,1.49-3.24,3.87-3.42v-1.38h1.22v1.4c2.26.19,3.6,1.23,3.79,3.37H26.67a1.23,1.23,0,0,0-1-1.17v2.15c2.38.34,3.94,1.15,3.94,3.42,0,1.9-1.23,3.49-3.94,3.66v2H24.49Zm0-7.27v-2c-.7.12-1.06.5-1.06,1S23.65,143.2,24.49,143.37Zm1.22,3v2.08a1.13,1.13,0,0,0,1-1.11C26.75,146.8,26.53,146.54,25.71,146.35Z" fill="#fff"/><path d="M30.6,153.11h4.87a2.56,2.56,0,0,0,2.81,2.64c1.69,0,2.52-.8,2.52-2.16s-.81-2.25-2.52-2.25H36.76v-3.4h1.41c1.72,0,2.55-.77,2.55-2.11,0-1.15-.75-1.9-2.2-1.9A2.45,2.45,0,0,0,36,146.37H31.14c.24-3.78,2.76-6.37,7.52-6.37,4.49,0,7.19,2.06,7.19,5.24a4.08,4.08,0,0,1-3.23,4.12,4.31,4.31,0,0,1,3.71,4.33c0,3.64-2.7,6-7.75,6C33.25,159.71,30.77,157.25,30.6,153.11Z" fill="#fff"/><path d="M46.79,161.56l2.25-7,4.44,1.58-3.86,6.56Z" fill="#fff"/><path d="M54.36,153.37h5a2.19,2.19,0,0,0,2.49,2.22c1.58,0,2.3-1.17,2.3-2.7a2.43,2.43,0,0,0-2.59-2.73,3.92,3.92,0,0,0-3.16,1.37H55.11l.4-11.26H68.4v4H59.47l-.11,4.23a5.09,5.09,0,0,1,4.47-2c3.5,0,5.8,2.36,5.8,6.5s-2.91,6.74-7.75,6.74C56.79,159.71,54.49,157,54.36,153.37Z" fill="#fff"/><path d="M71,150.24v-.8c0-6,3.77-9.44,8.83-9.44s8.82,3.13,8.82,9.33v.75c0,6.08-3.47,9.63-8.93,9.63S71,156.26,71,150.24Zm12.17-.05v-.77c0-3.51-1-5.27-3.34-5.27s-3.35,1.73-3.35,5.27v.8c0,3.56,1,5.24,3.4,5.24S83.14,153.72,83.14,150.19Z" fill="#fff"/><path d="M90.15,150.24v-.8c0-6,3.77-9.44,8.83-9.44s8.82,3.13,8.82,9.33v.75c0,6.08-3.47,9.63-8.93,9.63S90.15,156.26,90.15,150.24Zm12.17-.05v-.77c0-3.51-1-5.27-3.34-5.27s-3.35,1.73-3.35,5.27v.8c0,3.56,1.05,5.24,3.4,5.24S102.32,153.72,102.32,150.19Z" fill="#fff"/><path d="M20.24,177.15h5l2,8.38,2.35-8.38h3.85l2.09,8.38,2.27-8.38h4.55l-4.44,14H33.37l-2.08-7.81-2.17,7.81H24.47Z" fill="#fff"/><path d="M43.51,173.35a2.64,2.64,0,1,1,2.62,2.47A2.5,2.5,0,0,1,43.51,173.35Zm.24,3.8h4.79v14H43.75Z" fill="#fff"/><path d="M51.75,186.65v-6.23H50.07v-3.27h1.68v-2.91h4.79v2.91h2.75v3.27H56.54v5.77c0,1,.51,1.48,1.42,1.48a3.66,3.66,0,0,0,1.36-.25v3.64a10,10,0,0,1-2.65.4C53.52,191.46,51.75,189.94,51.75,186.65Z" fill="#fff"/><path d="M61.11,171H65.9v8.4a5,5,0,0,1,4.6-2.62c2.7,0,4.58,1.68,4.58,5.27v9.09H70.29V183c0-1.58-.62-2.35-2-2.35s-2.38.85-2.38,2.65v7.83H61.11Z" fill="#fff"/><path d="M77.3,173.35a2.5,2.5,0,0,1,2.62-2.48,2.48,2.48,0,1,1,0,4.95A2.48,2.48,0,0,1,77.3,173.35Zm.24,3.8h4.79v14H77.54Z" fill="#fff"/><path d="M84.89,177.15h4.79v2.25a5,5,0,0,1,4.6-2.62c2.71,0,4.58,1.68,4.58,5.27v9.09H94.07V183c0-1.58-.62-2.35-2-2.35s-2.38.85-2.38,2.65v7.83H84.89Z" fill="#fff"/><path d="M21.42,208.9h4.79V211a4.89,4.89,0,0,1,4.38-2.51,3.8,3.8,0,0,1,3.8,2.33A5.52,5.52,0,0,1,39,208.53c2.65,0,4.57,1.71,4.57,5.21v9.15H38.8v-8.34c0-1.42-.69-2.12-1.79-2.12a2.08,2.08,0,0,0-2.14,2.36v8.1H30.14v-8.34c0-1.42-.7-2.12-1.79-2.12a2.07,2.07,0,0,0-2.14,2.36v8.1H21.42Z" fill="#fff"/><path d="M45.81,205.1a2.64,2.64,0,1,1,2.63,2.47A2.5,2.5,0,0,1,45.81,205.1Zm.24,3.8h4.79v14H46.05Z" fill="#fff"/><path d="M53.41,208.9H58.2v2.25a4.94,4.94,0,0,1,4.6-2.62c2.7,0,4.57,1.68,4.57,5.27v9.09H62.59v-8.13c0-1.58-.62-2.35-2-2.35s-2.38.85-2.38,2.65v7.83H53.41Z" fill="#fff"/><path d="M69.59,218V208.9h4.79v8.35c0,1.58.62,2.35,2,2.35s2.38-.85,2.38-2.65v-8h4.79v14H78.74v-2.16a4.6,4.6,0,0,1-4.44,2.48C71.6,223.21,69.59,221.56,69.59,218Z" fill="#fff"/><path d="M86.61,218.4v-6.23H84.92V208.9h1.69V206h4.78v2.91h2.76v3.27H91.39v5.77c0,1,.51,1.48,1.42,1.48a3.68,3.68,0,0,0,1.37-.25v3.64a10.15,10.15,0,0,1-2.65.4C88.37,223.21,86.61,221.69,86.61,218.4Z" fill="#fff"/><path d="M95.22,216.07v-.21c0-4.5,3.34-7.33,7.57-7.33,3.83,0,7.12,2.19,7.12,7.22V217h-9.85a2.8,2.8,0,0,0,2.92,2.91c1.58,0,2.24-.72,2.43-1.65h4.5c-.43,3.15-2.87,4.94-7.09,4.94C98.43,223.21,95.22,220.65,95.22,216.07Zm10-1.76c-.08-1.69-.91-2.63-2.46-2.63s-2.43.94-2.67,2.63Z" fill="#fff"/><path d="M110.76,218.45h4.41c.16,1,.62,1.58,2,1.58,1.18,0,1.72-.45,1.72-1.15s-.67-1-2.6-1.26c-3.74-.48-5.32-1.58-5.32-4.49,0-3.1,2.75-4.6,6-4.6,3.45,0,5.86,1.18,6.18,4.52h-4.33a1.57,1.57,0,0,0-1.8-1.39c-1,0-1.57.45-1.57,1.09s.64.94,2.35,1.15c3.88.49,5.75,1.5,5.75,4.5,0,3.32-2.46,4.81-6.34,4.81S110.87,221.56,110.76,218.45Z" fill="#fff"/><path d="M20.67,247.82v-.21c0-4.5,3.34-7.33,7.68-7.33S36,243,36,247.47v.22c0,4.55-3.34,7.27-7.65,7.27S20.67,252.34,20.67,247.82Zm10.43-.08v-.21c0-2.36-.94-3.67-2.75-3.67s-2.79,1.26-2.79,3.61v.22c0,2.41.94,3.72,2.79,3.72S31.1,250.07,31.1,247.74Z" fill="#fff"/><path d="M38.38,243.92H36.61v-3.27h1.77v-1.23c0-3.47,2.16-5.13,5.48-5.13a8.55,8.55,0,0,1,2.19.29v3.5a4.59,4.59,0,0,0-1.31-.18,1.4,1.4,0,0,0-1.6,1.52v1.23H46v3.27H43.14v10.72H38.38Z" fill="#fff"/><path d="M53.17,243.92H51.4v-3.27h1.77v-1.23c0-3.47,2.17-5.13,5.48-5.13a8.63,8.63,0,0,1,2.2.29v3.5a4.7,4.7,0,0,0-1.31-.18,1.4,1.4,0,0,0-1.61,1.52v1.23h2.84v3.27H57.93v10.72H53.17Z" fill="#fff"/><path d="M62.26,236.85a2.64,2.64,0,1,1,2.63,2.47A2.5,2.5,0,0,1,62.26,236.85Zm.24,3.8h4.79v14H62.5Z" fill="#fff"/><path d="M70,234.5h4.77v20.14H70Z" fill="#fff"/><path d="M77.22,236.85a2.5,2.5,0,0,1,2.62-2.48,2.48,2.48,0,1,1,0,4.95A2.48,2.48,0,0,1,77.22,236.85Zm.24,3.8h4.79v14H77.46Z" fill="#fff"/><path d="M84.81,240.65H89.6v2.25a5,5,0,0,1,4.6-2.62c2.7,0,4.58,1.68,4.58,5.27v9.09H94v-8.13c0-1.58-.62-2.35-2-2.35s-2.38.85-2.38,2.65v7.83H84.81Z" fill="#fff"/><path d="M100.33,254.64h4.76c.21,1,.83,1.82,2.57,1.82a2.65,2.65,0,0,0,3-2.94v-2.14a4.92,4.92,0,0,1-4.34,2.57c-3.26,0-5.93-2.41-5.93-6.72V247c0-4.12,2.64-6.74,5.93-6.74a4.56,4.56,0,0,1,4.34,2.35v-2h4.79v12.82c0,4.17-2.76,6.36-7.76,6.36C102.9,259.83,100.7,257.83,100.33,254.64Zm10.43-7.43V247c0-1.93-1-3.16-2.75-3.16s-2.76,1.26-2.76,3.19v.21c0,1.93,1,3.16,2.73,3.16S110.76,249.19,110.76,247.21Z" fill="#fff"/><path d="M117.66,252.24a2.67,2.67,0,0,1,2.73-2.71,2.71,2.71,0,1,1,0,5.41A2.67,2.67,0,0,1,117.66,252.24Z" fill="#fff"/><path d="M21,277.24v-.8c0-6,3.77-9.44,8.83-9.44s8.83,3.13,8.83,9.33v.75c0,6.08-3.48,9.63-8.94,9.63S21,283.26,21,277.24Zm12.17-.05v-.77c0-3.51-1-5.27-3.34-5.27s-3.34,1.73-3.34,5.27v.8c0,3.56,1,5.24,3.39,5.24S33.13,280.72,33.13,277.19Z" fill="#fff"/><path d="M39.66,271.81a4.82,4.82,0,0,1,5.08-4.76,4.81,4.81,0,1,1,0,9.61A4.7,4.7,0,0,1,39.66,271.81Zm15.76-4.54H58L44.77,286.39H42.15Zm-9.15,4.54c0-1.25-.54-2-1.53-2s-1.57.75-1.57,2,.58,2.08,1.57,2.08S46.27,273.07,46.27,271.81Zm4,10.06a4.81,4.81,0,0,1,5.08-4.76c2.89,0,5.06,1.93,5.06,4.68a4.79,4.79,0,0,1-5.09,4.92A4.69,4.69,0,0,1,50.31,281.87Zm6.63,0c0-1.24-.53-2-1.55-2s-1.55.75-1.55,2,.59,2,1.55,2S56.94,283.13,56.94,281.85Z" fill="#fff"/><path d="M21.31,300.35a2.5,2.5,0,0,1,2.62-2.48,2.48,2.48,0,1,1,0,4.95A2.48,2.48,0,0,1,21.31,300.35Zm.24,3.8h4.79v14H21.55Z" fill="#fff"/><path d="M28.91,304.15H33.7v2.25a4.93,4.93,0,0,1,4.6-2.62c2.7,0,4.57,1.68,4.57,5.27v9.09H38.08V310c0-1.58-.61-2.35-2-2.35s-2.38.85-2.38,2.64v7.84H28.91Z" fill="#fff"/><path d="M45.84,313.65v-6.23H44.15v-3.27h1.69v-2.91h4.79v2.91h2.75v3.27H50.63v5.77c0,1,.51,1.48,1.42,1.48a3.66,3.66,0,0,0,1.36-.25v3.64a10.08,10.08,0,0,1-2.65.4C47.61,318.46,45.84,316.94,45.84,313.65Z" fill="#fff"/><path d="M54.45,311.32v-.21c0-4.5,3.35-7.33,7.57-7.33,3.83,0,7.12,2.19,7.12,7.22v1.26H59.29a2.8,2.8,0,0,0,2.92,2.91c1.58,0,2.25-.72,2.43-1.66h4.5c-.43,3.16-2.86,4.95-7.09,4.95C57.66,318.46,54.45,315.9,54.45,311.32Zm10-1.76c-.08-1.69-.91-2.63-2.46-2.63s-2.43.94-2.67,2.63Z" fill="#fff"/><path d="M70.8,304.15h4.79v2.78a4.4,4.4,0,0,1,4.52-3v4.46c-2.92-.08-4.52.83-4.52,3.08v6.63H70.8Z" fill="#fff"/><path d="M81,311.32v-.21c0-4.5,3.35-7.33,7.57-7.33,3.83,0,7.12,2.19,7.12,7.22v1.26H85.8a2.8,2.8,0,0,0,2.92,2.91c1.58,0,2.25-.72,2.43-1.66h4.5c-.43,3.16-2.86,4.95-7.09,4.95C84.17,318.46,81,315.9,81,311.32Zm10-1.76c-.08-1.69-.91-2.63-2.46-2.63s-2.43.94-2.67,2.63Z" fill="#fff"/><path d="M96.5,313.7h4.42c.16,1,.61,1.58,2,1.58,1.17,0,1.71-.45,1.71-1.15s-.67-1-2.6-1.26c-3.74-.48-5.32-1.58-5.32-4.49,0-3.1,2.76-4.6,6-4.6,3.45,0,5.86,1.18,6.18,4.52h-4.33a1.56,1.56,0,0,0-1.79-1.39c-1,0-1.58.45-1.58,1.09s.64.94,2.35,1.16c3.88.48,5.75,1.49,5.75,4.49,0,3.32-2.46,4.81-6.34,4.81S96.61,316.8,96.5,313.7Z" fill="#fff"/><path d="M111.46,313.65v-6.23h-1.69v-3.27h1.69v-2.91h4.79v2.91H119v3.27h-2.75v5.77c0,1,.5,1.48,1.41,1.48a3.68,3.68,0,0,0,1.37-.25v3.64a10.15,10.15,0,0,1-2.65.4C113.22,318.46,111.46,316.94,111.46,313.65Z" fill="#fff"/><path d="M21.55,329.75h4.76v20.14H21.55Z" fill="#fff"/><path d="M28.13,343.07v-.21c0-4.5,3.35-7.33,7.68-7.33s7.62,2.75,7.62,7.19v.22c0,4.55-3.34,7.27-7.65,7.27S28.13,347.59,28.13,343.07ZM38.56,343v-.21c0-2.36-.93-3.67-2.75-3.67S33,340.37,33,342.72v.22c0,2.41.93,3.72,2.78,3.72S38.56,345.32,38.56,343Z" fill="#fff"/><path d="M44.32,346c0-3.29,2.78-4.57,7.43-4.57h1.34v-.32c0-1.34-.32-2.22-1.85-2.22a1.72,1.72,0,0,0-1.9,1.66H44.85c.21-3.37,2.86-5,6.69-5s6.31,1.58,6.31,5.29v9.07H53.2v-1.63a4.59,4.59,0,0,1-4.15,1.95C46.54,350.21,44.32,349,44.32,346Zm8.77-1v-.86H51.83c-1.92,0-2.78.38-2.78,1.53,0,.8.53,1.31,1.66,1.31A2.11,2.11,0,0,0,53.09,345Z" fill="#fff"/><path d="M60.18,335.9H65v2.25a4.93,4.93,0,0,1,4.6-2.62c2.7,0,4.57,1.68,4.57,5.27v9.09H69.35v-8.13c0-1.58-.61-2.35-2-2.35s-2.38.85-2.38,2.64v7.84H60.18Z" fill="#fff"/><path d="M76.28,347.49A2.67,2.67,0,0,1,79,344.78a2.71,2.71,0,1,1,0,5.41A2.67,2.67,0,0,1,76.28,347.49Z" fill="#fff"/></g></g><g id="legal"><g id="Optional_loan_from_Axos_Bank_within_minutes_of_filing._Not_your" data-name="Optional loan from Axos Bank within minutes of filing. Not your"><path d="M20.5,397.78v-.07a3.16,3.16,0,1,1,6.31,0v.07a3.16,3.16,0,1,1-6.31,0Zm5.5,0v-.07a2.36,2.36,0,1,0-4.69,0v.07a2.42,2.42,0,0,0,2.37,2.62A2.35,2.35,0,0,0,26,397.75Z" fill="#fff"/><path d="M27.92,396.25h.75V397a1.93,1.93,0,0,1,1.59-.87,2.14,2.14,0,0,1,2.14,2.37v.07A2.17,2.17,0,0,1,30.26,401a1.78,1.78,0,0,1-1.59-.86v2.42h-.75Zm3.71,2.39v-.07c0-1.19-.66-1.78-1.45-1.78s-1.54.58-1.54,1.78v.07c0,1.21.63,1.78,1.55,1.78S31.63,399.79,31.63,398.64Z" fill="#fff"/><path d="M33.59,399.78v-2.9h-.67v-.63h.67v-1.07h.75v1.07h1.1v.63h-1.1v2.83c0,.46.2.68.58.68a1.59,1.59,0,0,0,.58-.1v.63a1.85,1.85,0,0,1-.64.1A1.14,1.14,0,0,1,33.59,399.78Z" fill="#fff"/><path d="M36.37,394.77a.5.5,0,0,1,.5-.49.49.49,0,0,1,.49.49.5.5,0,0,1-.49.5A.51.51,0,0,1,36.37,394.77Zm.14,1.48h.74V401h-.74Z" fill="#fff"/><path d="M38.3,398.64v-.07a2.31,2.31,0,1,1,4.62,0v.07a2.31,2.31,0,1,1-4.62,0Zm3.85,0v-.06c0-1.09-.6-1.79-1.54-1.79a1.56,1.56,0,0,0-1.54,1.78v.07c0,1.07.59,1.78,1.54,1.78S42.15,399.71,42.15,398.64Z" fill="#fff"/><path d="M44,396.25h.75V397a1.59,1.59,0,0,1,1.51-.83c1,0,1.66.53,1.66,1.9V401h-.75V398c0-.83-.35-1.19-1.11-1.19a1.23,1.23,0,0,0-1.31,1.28V401H44Z" fill="#fff"/><path d="M48.81,399.65c0-1.09,1.15-1.46,2.36-1.46h.67v-.34c0-.75-.29-1.06-1-1.06s-1,.27-1.08.84H49a1.64,1.64,0,0,1,1.86-1.46,1.52,1.52,0,0,1,1.72,1.68V401h-.75v-.6a1.69,1.69,0,0,1-1.46.68C49.5,401,48.81,400.62,48.81,399.65Zm3-.34v-.59h-.65c-.94,0-1.63.24-1.63.93,0,.49.23.79.89.79S51.84,400,51.84,399.31Z" fill="#fff"/><path d="M53.94,394h.75v7h-.75Z" fill="#fff"/><path d="M58.36,394h.75v7h-.75Z" fill="#fff"/><path d="M60.16,398.64v-.07a2.32,2.32,0,1,1,4.63,0v.07a2.32,2.32,0,1,1-4.63,0Zm3.85,0v-.06c0-1.09-.6-1.79-1.54-1.79a1.56,1.56,0,0,0-1.54,1.78v.07c0,1.07.59,1.78,1.54,1.78S64,399.71,64,398.64Z" fill="#fff"/><path d="M65.42,399.65c0-1.09,1.15-1.46,2.36-1.46h.68v-.34c0-.75-.29-1.06-1-1.06s-1,.27-1.08.84h-.75a1.64,1.64,0,0,1,1.86-1.46,1.52,1.52,0,0,1,1.72,1.68V401h-.74v-.6A1.71,1.71,0,0,1,67,401C66.12,401,65.42,400.62,65.42,399.65Zm3-.34v-.59h-.65c-1,0-1.64.24-1.64.93,0,.49.23.79.89.79S68.46,400,68.46,399.31Z" fill="#fff"/><path d="M70.53,396.25h.75V397a1.61,1.61,0,0,1,1.51-.83c1,0,1.66.53,1.66,1.9V401H73.7V398c0-.83-.35-1.19-1.1-1.19a1.24,1.24,0,0,0-1.32,1.28V401h-.75Z" fill="#fff"/><path d="M78.19,396.88h-.67v-.63h.67v-.77c0-1,.47-1.51,1.41-1.51a1.6,1.6,0,0,1,.56.09v.63a1.62,1.62,0,0,0-.54-.1c-.48,0-.68.33-.68.81v.85h1.15v.63H78.94V401h-.75Z" fill="#fff"/><path d="M81,396.25h.75v.84a1.62,1.62,0,0,1,1.55-.92v.7c-1,.05-1.55.34-1.55,1.5V401H81Z" fill="#fff"/><path d="M83.77,398.64v-.07a2.32,2.32,0,1,1,4.63,0v.07a2.32,2.32,0,1,1-4.63,0Zm3.86,0v-.06c0-1.09-.61-1.79-1.54-1.79s-1.54.7-1.54,1.78v.07c0,1.07.58,1.78,1.54,1.78A1.57,1.57,0,0,0,87.63,398.64Z" fill="#fff"/><path d="M89.42,396.25h.75V397a1.54,1.54,0,0,1,1.41-.8,1.36,1.36,0,0,1,1.37.88,1.84,1.84,0,0,1,1.62-.88c.84,0,1.58.5,1.58,1.87V401H95.4v-3c0-.83-.35-1.17-1-1.17a1.2,1.2,0,0,0-1.24,1.26V401h-.75v-3c0-.83-.35-1.17-1-1.17a1.2,1.2,0,0,0-1.25,1.26V401h-.75Z" fill="#fff"/><path d="M101.51,394.52h1l2.18,6.44h-.78l-.63-1.86h-2.65L100,401H99.3Zm-.64,4h2.24L102,395.17Z" fill="#fff"/><path d="M106.84,398.54l-1.58-2.29h.88l1.15,1.71,1.14-1.71h.81l-1.55,2.23,1.72,2.48h-.89l-1.27-1.9L106,401h-.8Z" fill="#fff"/><path d="M109.7,398.64v-.07a2.32,2.32,0,1,1,4.63,0v.07a2.32,2.32,0,1,1-4.63,0Zm3.85,0v-.06c0-1.09-.6-1.79-1.53-1.79s-1.54.7-1.54,1.78v.07c0,1.07.58,1.78,1.54,1.78S113.55,399.71,113.55,398.64Z" fill="#fff"/><path d="M115,399.51h.73c0,.56.35.91,1.1.91s1-.25,1-.75-.37-.66-1.1-.79c-1.22-.23-1.64-.57-1.64-1.39a1.47,1.47,0,0,1,1.6-1.32,1.51,1.51,0,0,1,1.7,1.36h-.72c-.11-.52-.4-.74-1-.74s-.89.27-.89.67.23.6,1.09.75,1.66.4,1.66,1.4c0,.85-.58,1.43-1.73,1.43S115,400.47,115,399.51Z" fill="#fff"/><path d="M20.81,403.52h1.94c1.19,0,2.07.4,2.07,1.67v0a1.32,1.32,0,0,1-1,1.36,1.42,1.42,0,0,1,1.29,1.54v0c0,1.21-.83,1.8-2.11,1.8H20.81Zm1.94,2.81c.94,0,1.3-.34,1.3-1.14v0c0-.73-.42-1-1.32-1H21.58v2.2Zm.25,3c.93,0,1.37-.41,1.37-1.19v0c0-.79-.44-1.17-1.48-1.17H21.58v2.4Z" fill="#fff"/><path d="M25.83,408.65c0-1.09,1.15-1.46,2.36-1.46h.68v-.34c0-.75-.29-1.06-1-1.06s-1,.27-1.08.84H26a1.64,1.64,0,0,1,1.86-1.46,1.52,1.52,0,0,1,1.72,1.68V410h-.74v-.6a1.72,1.72,0,0,1-1.47.68C26.53,410,25.83,409.62,25.83,408.65Zm3-.34v-.59h-.65c-.95,0-1.64.24-1.64.93,0,.49.23.79.89.79S28.87,409,28.87,408.31Z" fill="#fff"/><path d="M30.94,405.25h.75V406a1.61,1.61,0,0,1,1.51-.83c1,0,1.66.53,1.66,1.9V410h-.75V407c0-.83-.35-1.19-1.1-1.19a1.24,1.24,0,0,0-1.32,1.28V410h-.75Z" fill="#fff"/><path d="M36.19,403h.75v4.42l2-2.17h.88l-2,2.19L39.94,410H39l-2.09-2.44V410h-.75Z" fill="#fff"/><path d="M42.45,405.25h.81L44.35,409l1.15-3.79h.65L47.22,409l1.1-3.79h.77L47.62,410h-.83l-1-3.53L44.71,410H43.9Z" fill="#fff"/><path d="M49.84,403.77a.5.5,0,0,1,.5-.49.49.49,0,0,1,.49.49.5.5,0,0,1-.49.5A.51.51,0,0,1,49.84,403.77Zm.14,1.48h.75V410H50Z" fill="#fff"/><path d="M52.28,408.78v-2.9h-.67v-.63h.67v-1.07H53v1.07h1.1v.63H53v2.83c0,.46.21.68.59.68a1.57,1.57,0,0,0,.57-.1v.63a1.85,1.85,0,0,1-.64.1A1.14,1.14,0,0,1,52.28,408.78Z" fill="#fff"/><path d="M55.18,403h.75v3a1.6,1.6,0,0,1,1.51-.83c1,0,1.66.53,1.66,1.9V410h-.75V407c0-.83-.35-1.19-1.11-1.19a1.23,1.23,0,0,0-1.31,1.28V410h-.75Z" fill="#fff"/><path d="M60.31,403.77a.5.5,0,0,1,.5-.49.49.49,0,0,1,.49.49.5.5,0,0,1-.49.5A.51.51,0,0,1,60.31,403.77Zm.14,1.48h.74V410h-.74Z" fill="#fff"/><path d="M62.59,405.25h.74V406a1.61,1.61,0,0,1,1.52-.83c1,0,1.65.53,1.65,1.9V410h-.74V407c0-.83-.35-1.19-1.11-1.19a1.24,1.24,0,0,0-1.32,1.28V410h-.74Z" fill="#fff"/><path d="M70.08,405.25h.75V406a1.54,1.54,0,0,1,1.41-.8,1.36,1.36,0,0,1,1.37.88,1.84,1.84,0,0,1,1.62-.88c.84,0,1.58.5,1.58,1.87V410h-.75v-3c0-.83-.35-1.17-1-1.17a1.2,1.2,0,0,0-1.24,1.26V410h-.75v-3c0-.83-.35-1.17-1-1.17a1.2,1.2,0,0,0-1.24,1.26V410h-.75Z" fill="#fff"/><path d="M78,403.77a.5.5,0,0,1,.5-.49.49.49,0,0,1,.49.49.5.5,0,0,1-.49.5A.51.51,0,0,1,78,403.77Zm.14,1.48h.74V410h-.74Z" fill="#fff"/><path d="M80.3,405.25h.75V406a1.6,1.6,0,0,1,1.51-.83c1,0,1.66.53,1.66,1.9V410h-.75V407c0-.83-.35-1.19-1.11-1.19a1.23,1.23,0,0,0-1.31,1.28V410H80.3Z" fill="#fff"/><path d="M85.5,408.23v-3h.75v2.94c0,.83.35,1.2,1.09,1.2a1.24,1.24,0,0,0,1.29-1.29v-2.85h.75V410h-.75v-.75a1.59,1.59,0,0,1-1.49.83C86.2,410,85.5,409.52,85.5,408.23Z" fill="#fff"/><path d="M90.92,408.78v-2.9h-.68v-.63h.68v-1.07h.75v1.07h1.09v.63H91.67v2.83c0,.46.2.68.58.68a1.59,1.59,0,0,0,.58-.1v.63a1.89,1.89,0,0,1-.64.1A1.14,1.14,0,0,1,90.92,408.78Z" fill="#fff"/><path d="M93.47,407.65v-.07a2.21,2.21,0,0,1,2.2-2.41,2.06,2.06,0,0,1,2.12,2.34v.24H94.24c0,1.07.55,1.67,1.51,1.67.73,0,1.16-.27,1.25-.82h.75a1.81,1.81,0,0,1-2,1.44A2.21,2.21,0,0,1,93.47,407.65Zm3.55-.5c-.07-1-.57-1.36-1.35-1.36a1.41,1.41,0,0,0-1.4,1.36Z" fill="#fff"/><path d="M98.45,408.51h.73c.06.56.35.91,1.11.91s1-.25,1-.75-.36-.66-1.09-.79c-1.23-.23-1.64-.57-1.64-1.39a1.46,1.46,0,0,1,1.59-1.32,1.5,1.5,0,0,1,1.7,1.36h-.72c-.11-.52-.39-.74-1-.74s-.89.27-.89.67.23.6,1.1.75,1.66.4,1.66,1.4c0,.85-.59,1.43-1.73,1.43S98.5,409.47,98.45,408.51Z" fill="#fff"/><path d="M104.92,407.64v-.07a2.32,2.32,0,1,1,4.63,0v.07a2.32,2.32,0,1,1-4.63,0Zm3.86,0v-.06c0-1.09-.61-1.79-1.54-1.79s-1.54.7-1.54,1.78v.07c0,1.07.58,1.78,1.54,1.78A1.57,1.57,0,0,0,108.78,407.64Z" fill="#fff"/><path d="M110.74,405.88h-.68v-.63h.68v-.77c0-1,.47-1.51,1.4-1.51a1.6,1.6,0,0,1,.56.09v.63a1.56,1.56,0,0,0-.53-.1c-.49,0-.69.33-.69.81v.85h1.16v.63h-1.16V410h-.74Z" fill="#fff"/><path d="M116,405.88h-.68v-.63H116v-.77c0-1,.46-1.51,1.4-1.51a1.6,1.6,0,0,1,.56.09v.63a1.61,1.61,0,0,0-.53-.1c-.49,0-.69.33-.69.81v.85h1.16v.63h-1.16V410H116Z" fill="#fff"/><path d="M118.67,403.77a.49.49,0,0,1,.49-.49.5.5,0,0,1,.5.49.51.51,0,0,1-.5.5A.5.5,0,0,1,118.67,403.77Zm.13,1.48h.75V410h-.75Z" fill="#fff"/><path d="M121,403h.76v7H121Z" fill="#fff"/><path d="M123,403.77a.5.5,0,0,1,.5-.49.49.49,0,0,1,.49.49.5.5,0,0,1-.49.5A.51.51,0,0,1,123,403.77Zm.14,1.48h.75V410h-.75Z" fill="#fff"/><path d="M125.27,405.25H126V406a1.6,1.6,0,0,1,1.51-.83c1,0,1.66.53,1.66,1.9V410h-.75V407c0-.83-.35-1.19-1.11-1.19A1.23,1.23,0,0,0,126,407.1V410h-.75Z" fill="#fff"/><path d="M130.27,410.23H131c.11.54.56.82,1.36.82a1.32,1.32,0,0,0,1.51-1.45v-.69a2,2,0,0,1-1.59.89,2.12,2.12,0,0,1-2.14-2.23v-.06a2.23,2.23,0,0,1,2.19-2.34,1.69,1.69,0,0,1,1.54.83v-.75h.75v4.39a2,2,0,0,1-2.25,2C131,411.68,130.39,411,130.27,410.23Zm3.66-2.71v-.07a1.46,1.46,0,0,0-1.49-1.66,1.5,1.5,0,0,0-1.5,1.68v.07a1.49,1.49,0,0,0,1.45,1.64A1.51,1.51,0,0,0,133.93,407.52Z" fill="#fff"/><path d="M136,409.43a.57.57,0,0,1,.58-.58.58.58,0,1,1,0,1.15A.57.57,0,0,1,136,409.43Z" fill="#fff"/><path d="M20.81,412.52h1L25,417.84v-5.32h.75V419h-.9l-3.25-5.52V419h-.75Z" fill="#fff"/><path d="M26.79,416.64v-.07a2.31,2.31,0,1,1,4.62,0v.07a2.31,2.31,0,1,1-4.62,0Zm3.85,0v-.06c0-1.09-.6-1.79-1.54-1.79s-1.54.7-1.54,1.78v.07c0,1.07.59,1.78,1.54,1.78A1.57,1.57,0,0,0,30.64,416.64Z" fill="#fff"/><path d="M32.6,417.78v-2.9h-.68v-.63h.68v-1.07h.75v1.07h1.1v.63h-1.1v2.83c0,.46.2.68.58.68a1.59,1.59,0,0,0,.58-.1v.63a1.85,1.85,0,0,1-.64.1A1.14,1.14,0,0,1,32.6,417.78Z" fill="#fff"/><path d="M39.06,418.47l-1.84-4.22H38l1.44,3.37,1.3-3.37h.77l-2.6,6.35h-.76Z" fill="#fff"/><path d="M41.89,416.64v-.07a2.32,2.32,0,1,1,4.63,0v.07a2.32,2.32,0,1,1-4.63,0Zm3.85,0v-.06c0-1.09-.6-1.79-1.54-1.79a1.56,1.56,0,0,0-1.54,1.78v.07c0,1.07.59,1.78,1.54,1.78S45.74,417.71,45.74,416.64Z" fill="#fff"/><path d="M47.5,417.23v-3h.74v2.94c0,.83.35,1.2,1.09,1.2a1.24,1.24,0,0,0,1.3-1.29v-2.85h.75V419h-.75v-.75a1.62,1.62,0,0,1-1.5.83C48.2,419,47.5,418.52,47.5,417.23Z" fill="#fff"/><path d="M52.75,414.25h.75v.84a1.62,1.62,0,0,1,1.55-.92v.7c-.95.05-1.55.34-1.55,1.5V419h-.75Z" fill="#fff"/><path d="M58.41,417.78v-2.9h-.67v-.63h.67v-1.07h.75v1.07h1.1v.63h-1.1v2.83c0,.46.21.68.58.68a1.59,1.59,0,0,0,.58-.1v.63a1.85,1.85,0,0,1-.64.1A1.14,1.14,0,0,1,58.41,417.78Z" fill="#fff"/><path d="M61,417.65c0-1.09,1.15-1.46,2.36-1.46H64v-.34c0-.75-.29-1.06-1-1.06s-1,.27-1.08.84h-.74A1.64,1.64,0,0,1,63,414.17a1.52,1.52,0,0,1,1.72,1.68V419H64v-.6a1.7,1.7,0,0,1-1.47.68C61.66,419,61,418.62,61,417.65Zm3-.34v-.59h-.65c-.94,0-1.64.24-1.64.93,0,.49.24.79.9.79S64,418,64,417.31Z" fill="#fff"/><path d="M67.26,416.54l-1.58-2.29h.88L67.71,416l1.14-1.71h.81l-1.56,2.23L69.82,419h-.88l-1.27-1.9L66.38,419h-.8Z" fill="#fff"/><path d="M73,414.25h.74v.84a1.64,1.64,0,0,1,1.55-.92v.7c-.94.05-1.55.34-1.55,1.5V419H73Z" fill="#fff"/><path d="M75.71,416.65v-.07a2.22,2.22,0,0,1,2.21-2.41A2.06,2.06,0,0,1,80,416.51v.24H76.48c0,1.07.55,1.67,1.52,1.67.73,0,1.15-.27,1.25-.82H80A1.81,1.81,0,0,1,78,419,2.21,2.21,0,0,1,75.71,416.65Zm3.56-.5c-.08-1-.58-1.36-1.35-1.36a1.41,1.41,0,0,0-1.41,1.36Z" fill="#fff"/><path d="M81.2,414.88h-.68v-.63h.68v-.77c0-1,.47-1.51,1.4-1.51a1.57,1.57,0,0,1,.56.09v.63a1.51,1.51,0,0,0-.53-.1c-.49,0-.68.33-.68.81v.85H83.1v.63H82V419H81.2Z" fill="#fff"/><path d="M84,417.23v-3h.75v2.94c0,.83.35,1.2,1.09,1.2a1.24,1.24,0,0,0,1.29-1.29v-2.85h.75V419H87.1v-.75a1.59,1.59,0,0,1-1.49.83C84.67,419,84,418.52,84,417.23Z" fill="#fff"/><path d="M89.23,414.25H90V415a1.61,1.61,0,0,1,1.52-.83c1,0,1.65.53,1.65,1.9V419H92.4V416c0-.83-.36-1.19-1.11-1.19A1.24,1.24,0,0,0,90,416.1V419h-.74Z" fill="#fff"/><path d="M94.12,416.7v-.08a2.23,2.23,0,0,1,2.2-2.45,1.7,1.7,0,0,1,1.54.83v-3h.75v7h-.75v-.81a2,2,0,0,1-1.61.89A2.1,2.1,0,0,1,94.12,416.7Zm3.77-.07v-.07c0-1.2-.58-1.77-1.5-1.77s-1.49.66-1.49,1.8v.07c0,1.19.64,1.76,1.43,1.76S97.89,417.84,97.89,416.63Z" fill="#fff"/><path d="M99.92,418.43a.58.58,0,1,1,.58.57A.57.57,0,0,1,99.92,418.43Z" fill="#fff"/></g></g></g></svg>