<svg xmlns="http://www.w3.org/2000/svg" viewBox="0 0 300 250"><title>H5</title><g id="Layer_2" data-name="Layer 2"><g id="Artboard_5" data-name="Artboard 5" style="isolation:isolate"><g id="headline1"><g id="Help_is_here_with_Tax_Pro_Go._Just_upload_your_docs_for_expert" data-name="Help is here with Tax Pro Go. Just upload your docs for expert"><path d="M23.33,29.05h5.72v7.58h6.52V29.05h5.69V48.9H35.57V41.07H29.05V48.9H23.33Z" fill="#fff"/><path d="M43.26,41.82V41.6c0-4.67,3.47-7.61,7.85-7.61,4,0,7.39,2.28,7.39,7.49v1.31H48.28a2.9,2.9,0,0,0,3,3c1.64,0,2.33-.74,2.52-1.72H58.5c-.45,3.28-3,5.14-7.36,5.14C46.59,49.23,43.26,46.56,43.26,41.82ZM53.67,40c-.09-1.75-1-2.72-2.56-2.72s-2.52,1-2.77,2.72Z" fill="#fff"/><path d="M60.35,28h4.94V48.9H60.35Z" fill="#fff"/><path d="M68,34.38h5v2.16A5.16,5.16,0,0,1,77.45,34c3.38,0,6.13,2.55,6.13,7.52v.22c0,5-2.75,7.5-6.16,7.5a4.81,4.81,0,0,1-4.5-2.47v7H68Zm10.57,7.35v-.22c0-2.55-1.11-3.77-2.86-3.77s-2.88,1.3-2.88,3.74v.23c0,2.47,1.08,3.72,2.88,3.72S78.53,44.12,78.53,41.73Z" fill="#fff"/><path d="M90.32,30.44A2.74,2.74,0,1,1,93,33,2.6,2.6,0,0,1,90.32,30.44Zm.25,3.94h5V48.9h-5Z" fill="#fff"/><path d="M97.23,44.29h4.58c.17,1.05.64,1.64,2,1.64,1.23,0,1.78-.48,1.78-1.2s-.69-1-2.69-1.3c-3.89-.5-5.52-1.64-5.52-4.67,0-3.22,2.85-4.77,6.21-4.77,3.58,0,6.08,1.22,6.41,4.69h-4.49a1.62,1.62,0,0,0-1.86-1.44c-1.08,0-1.64.47-1.64,1.14s.67,1,2.44,1.19c4,.5,6,1.55,6,4.66,0,3.44-2.55,5-6.58,5S97.34,47.51,97.23,44.29Z" fill="#fff"/><path d="M117.13,28h5v8.71A5.11,5.11,0,0,1,126.87,34c2.8,0,4.75,1.75,4.75,5.47V48.9h-5V40.46c0-1.64-.64-2.44-2.08-2.44s-2.47.88-2.47,2.74V48.9h-5Z" fill="#fff"/><path d="M133.25,41.82V41.6c0-4.67,3.47-7.61,7.85-7.61,4,0,7.39,2.28,7.39,7.49v1.31H138.27a2.9,2.9,0,0,0,3,3c1.64,0,2.33-.74,2.53-1.72h4.66c-.45,3.28-3,5.14-7.36,5.14C136.58,49.23,133.25,46.56,133.25,41.82ZM143.66,40c-.08-1.75-.95-2.72-2.56-2.72s-2.52,1-2.77,2.72Z" fill="#fff"/><path d="M150.21,34.38h5v2.89a4.57,4.57,0,0,1,4.69-3.08v4.63c-3-.08-4.69.86-4.69,3.19V48.9h-5Z" fill="#fff"/><path d="M160.75,41.82V41.6c0-4.67,3.47-7.61,7.86-7.61,4,0,7.38,2.28,7.38,7.49v1.31H165.77a2.9,2.9,0,0,0,3,3c1.64,0,2.33-.74,2.53-1.72H176c-.45,3.28-3,5.14-7.36,5.14C164.08,49.23,160.75,46.56,160.75,41.82ZM171.16,40c-.08-1.75-.95-2.72-2.55-2.72s-2.53,1-2.78,2.72Z" fill="#fff"/><path d="M181.53,34.38h5.19l2.11,8.69,2.45-8.69h4l2.17,8.69,2.36-8.69h4.72L199.91,48.9h-4.75L193,40.79l-2.25,8.11h-4.83Z" fill="#fff"/><path d="M205.68,30.44A2.74,2.74,0,1,1,208.4,33,2.59,2.59,0,0,1,205.68,30.44Zm.25,3.94h5V48.9h-5Z" fill="#fff"/><path d="M214.22,44.23V37.77h-1.74V34.38h1.74v-3h5v3h2.86v3.39h-2.86v6c0,1.06.53,1.53,1.47,1.53a4,4,0,0,0,1.42-.25v3.77a10.26,10.26,0,0,1-2.75.42C216.06,49.23,214.22,47.65,214.22,44.23Z" fill="#fff"/><path d="M223.94,28h5v8.71A5.13,5.13,0,0,1,233.68,34c2.8,0,4.74,1.75,4.74,5.47V48.9h-5V40.46c0-1.64-.64-2.44-2.08-2.44s-2.48.88-2.48,2.74V48.9h-5Z" fill="#fff"/><path d="M27.14,63.19H22V58.8H38v4.39H32.85V78.65H27.14Z" fill="#fff"/><path d="M37,74.62c0-3.41,2.88-4.75,7.71-4.75h1.39v-.33c0-1.39-.33-2.3-1.91-2.3a1.78,1.78,0,0,0-2,1.72H37.54c.22-3.5,3-5.22,6.94-5.22S51,65.38,51,69.24v9.41H46.2V77a4.75,4.75,0,0,1-4.3,2C39.29,79,37,77.7,37,74.62Zm9.1-1.05v-.89h-1.3c-2,0-2.89.39-2.89,1.58,0,.83.56,1.36,1.72,1.36C45,75.62,46.09,74.82,46.09,73.57Z" fill="#fff"/><path d="M57.11,71.26l-4.53-7.13H58.3L60.55,68l2.19-3.83h5.11l-4.58,6.74,5,7.78H62.57L60,74.32l-2.63,4.33H52.28Z" fill="#fff"/><path d="M75.17,58.8h7.55c5.44,0,8,2.41,8,6.63v.11C90.69,69.71,87.88,72,83,72H80.83v6.69H75.17Zm7.3,9.27c1.83,0,2.8-.86,2.8-2.5v-.11c0-1.69-1-2.39-2.77-2.39H80.83v5Z" fill="#fff"/><path d="M92.4,64.13h5V67a4.57,4.57,0,0,1,4.69-3.08v4.63c-3-.08-4.69.86-4.69,3.19v6.89h-5Z" fill="#fff"/><path d="M103,71.57v-.22c0-4.67,3.47-7.61,8-7.61s7.91,2.86,7.91,7.47v.22c0,4.72-3.47,7.55-7.93,7.55S103,76.26,103,71.57Zm10.82-.09v-.22c0-2.44-1-3.8-2.86-3.8S108,68.76,108,71.21v.22c0,2.5,1,3.86,2.88,3.86S113.77,73.9,113.77,71.48Z" fill="#fff"/><path d="M125,68.85v-.22c0-6.06,4.44-10.14,10.41-10.14,4.69,0,8.85,2.14,9.24,7.3H139c-.28-1.85-1.48-2.83-3.59-2.83-2.8,0-4.49,2.17-4.49,5.75v.22c0,3.22,1.19,5.72,4.63,5.72,2.78,0,3.83-1.42,3.94-3h-3.71v-4h9.32v2.44c0,5.06-3.3,8.86-9.71,8.86C128.67,79,125,74.79,125,68.85Z" fill="#fff"/><path d="M146.26,71.57v-.22c0-4.67,3.47-7.61,8-7.61s7.91,2.86,7.91,7.47v.22c0,4.72-3.47,7.55-7.94,7.55S146.26,76.26,146.26,71.57Zm10.83-.09v-.22c0-2.44-1-3.8-2.86-3.8s-2.89,1.3-2.89,3.75v.22c0,2.5,1,3.86,2.89,3.86S157.09,73.9,157.09,71.48Z" fill="#fff"/><path d="M163.08,76.15a2.77,2.77,0,0,1,2.83-2.81,2.81,2.81,0,1,1,0,5.61A2.77,2.77,0,0,1,163.08,76.15Z" fill="#fff"/><path d="M175.65,78.23V74a6.8,6.8,0,0,0,2.42.39c1.55,0,2.58-.69,2.58-2.75V58.8h5.72V71.68c0,4.77-2.45,7.22-7.11,7.22A7.63,7.63,0,0,1,175.65,78.23Z" fill="#fff"/><path d="M188.86,73.59V64.13h5v8.66c0,1.64.64,2.44,2,2.44s2.47-.89,2.47-2.75V64.13h5V78.65h-5V76.4a4.75,4.75,0,0,1-4.6,2.58C190.94,79,188.86,77.26,188.86,73.59Z" fill="#fff"/><path d="M204.87,74h4.58c.17,1,.64,1.64,2.06,1.64,1.22,0,1.77-.48,1.77-1.2s-.69-1-2.69-1.3c-3.89-.5-5.52-1.64-5.52-4.67,0-3.22,2.86-4.77,6.21-4.77,3.58,0,6.08,1.22,6.42,4.69h-4.5A1.62,1.62,0,0,0,211.34,67c-1.08,0-1.64.47-1.64,1.14s.67,1,2.44,1.19c4,.5,6,1.55,6,4.66,0,3.44-2.55,5-6.58,5S205,77.26,204.87,74Z" fill="#fff"/><path d="M220.38,74V67.52h-1.74V64.13h1.74v-3h5v3h2.86v3.39h-2.86v6c0,1.06.53,1.53,1.47,1.53a3.91,3.91,0,0,0,1.42-.25v3.77a10.26,10.26,0,0,1-2.75.42C222.22,79,220.38,77.4,220.38,74Z" fill="#fff"/><path d="M22.78,103.34V93.88h5v8.66c0,1.64.64,2.44,2.05,2.44s2.47-.89,2.47-2.75V93.88h5V108.4h-5v-2.25a4.77,4.77,0,0,1-4.61,2.58C24.86,108.73,22.78,107,22.78,103.34Z" fill="#fff"/><path d="M39.76,93.88h5V96a5.13,5.13,0,0,1,4.52-2.55c3.39,0,6.14,2.55,6.14,7.52v.22c0,5-2.75,7.5-6.16,7.5a4.79,4.79,0,0,1-4.5-2.47v7h-5Zm10.58,7.35V101c0-2.55-1.11-3.77-2.86-3.77s-2.89,1.3-2.89,3.74v.23c0,2.47,1.08,3.72,2.89,3.72S50.34,103.62,50.34,101.23Z" fill="#fff"/><path d="M57.33,87.5h4.94v20.9H57.33Z" fill="#fff"/><path d="M64.15,101.32v-.22c0-4.67,3.47-7.61,8-7.61S80,96.35,80,101v.22c0,4.72-3.47,7.55-7.94,7.55S64.15,106,64.15,101.32ZM75,101.23V101c0-2.44-1-3.8-2.86-3.8s-2.89,1.3-2.89,3.75v.22c0,2.5,1,3.86,2.89,3.86S75,103.65,75,101.23Z" fill="#fff"/><path d="M80.94,104.37c0-3.41,2.89-4.75,7.72-4.75h1.39v-.33c0-1.39-.34-2.3-1.92-2.3a1.78,1.78,0,0,0-2,1.72H81.5c.22-3.5,3-5.22,6.94-5.22S95,95.13,95,99v9.41H90.16v-1.7a4.77,4.77,0,0,1-4.31,2C83.25,108.73,80.94,107.45,80.94,104.37Zm9.11-1.05v-.89H88.74c-2,0-2.89.39-2.89,1.58,0,.83.56,1.36,1.73,1.36C89,105.37,90.05,104.57,90.05,103.32Z" fill="#fff"/><path d="M96.68,101.29v-.22c0-4.94,2.72-7.58,6.16-7.58a4.72,4.72,0,0,1,4.47,2.44V87.5h5v20.9h-5V106a4.91,4.91,0,0,1-4.53,2.69C99.42,108.73,96.68,106.31,96.68,101.29Zm10.76-.08V101c0-2.44-1-3.74-2.85-3.74s-2.86,1.25-2.86,3.77v.22c0,2.45,1.08,3.7,2.8,3.7S107.44,103.68,107.44,101.21Z" fill="#fff"/><path d="M124.4,106.92l-5.8-13H124l3,7.74,2.78-7.74h4.74l-7.77,19.37H122Z" fill="#fff"/><path d="M134.22,101.32v-.22c0-4.67,3.47-7.61,8-7.61s7.91,2.86,7.91,7.47v.22c0,4.72-3.47,7.55-7.94,7.55S134.22,106,134.22,101.32Zm10.83-.09V101c0-2.44-1-3.8-2.86-3.8s-2.89,1.3-2.89,3.75v.22c0,2.5,1,3.86,2.89,3.86S145.05,103.65,145.05,101.23Z" fill="#fff"/><path d="M151.73,103.34V93.88h5v8.66c0,1.64.64,2.44,2.05,2.44s2.47-.89,2.47-2.75V93.88h5V108.4h-5v-2.25a4.75,4.75,0,0,1-4.6,2.58C153.81,108.73,151.73,107,151.73,103.34Z" fill="#fff"/><path d="M168.71,93.88h5v2.89a4.57,4.57,0,0,1,4.69-3.08v4.63c-3-.08-4.69.86-4.69,3.19v6.89h-5Z" fill="#fff"/><path d="M184.5,101.29v-.22c0-4.94,2.72-7.58,6.17-7.58a4.7,4.7,0,0,1,4.46,2.44V87.5h5v20.9h-5V106a4.88,4.88,0,0,1-4.52,2.69C187.25,108.73,184.5,106.31,184.5,101.29Zm10.77-.08V101c0-2.44-1-3.74-2.86-3.74s-2.86,1.25-2.86,3.77v.22c0,2.45,1.09,3.7,2.81,3.7S195.27,103.68,195.27,101.21Z" fill="#fff"/><path d="M201.85,101.32v-.22c0-4.67,3.47-7.61,8-7.61s7.91,2.86,7.91,7.47v.22c0,4.72-3.47,7.55-7.94,7.55S201.85,106,201.85,101.32Zm10.82-.09V101c0-2.44-1-3.8-2.86-3.8s-2.88,1.3-2.88,3.75v.22c0,2.5,1,3.86,2.88,3.86S212.67,103.65,212.67,101.23Z" fill="#fff"/><path d="M218.69,101.32v-.22c0-4.83,3.47-7.61,7.74-7.61,3.56,0,6.83,1.55,7.11,6h-4.66a2.15,2.15,0,0,0-2.33-2.11c-1.75,0-2.78,1.25-2.78,3.69v.22c0,2.53,1,3.83,2.86,3.83a2.41,2.41,0,0,0,2.52-2.41h4.47c-.14,3.66-2.61,6-7.3,6C222,108.73,218.69,106.2,218.69,101.32Z" fill="#fff"/><path d="M234.45,103.79H239c.17,1,.64,1.64,2.06,1.64,1.22,0,1.77-.48,1.77-1.2s-.69-1-2.69-1.3c-3.89-.5-5.52-1.64-5.52-4.67,0-3.22,2.85-4.77,6.21-4.77,3.58,0,6.08,1.22,6.42,4.69h-4.5a1.62,1.62,0,0,0-1.86-1.44c-1.08,0-1.64.47-1.64,1.14s.67,1,2.44,1.19c4,.5,6,1.55,6,4.66,0,3.44-2.55,5-6.58,5S234.56,107,234.45,103.79Z" fill="#fff"/><path d="M23.64,127H21.81v-3.39h1.83v-1.28c0-3.61,2.25-5.33,5.69-5.33a8.72,8.72,0,0,1,2.28.31V121a4.68,4.68,0,0,0-1.36-.19,1.46,1.46,0,0,0-1.67,1.58v1.28h2.94V127H28.58v11.13H23.64Z" fill="#fff"/><path d="M31.91,131.07v-.22c0-4.67,3.47-7.61,8-7.61s7.91,2.86,7.91,7.47v.22c0,4.72-3.46,7.55-7.93,7.55S31.91,135.76,31.91,131.07ZM42.73,131v-.22c0-2.44-1-3.8-2.86-3.8S37,128.26,37,130.71v.22c0,2.5,1,3.86,2.88,3.86S42.73,133.4,42.73,131Z" fill="#fff"/><path d="M49.53,123.63h5v2.89a4.56,4.56,0,0,1,4.69-3.08v4.63c-3-.08-4.69.86-4.69,3.19v6.89h-5Z" fill="#fff"/><path d="M65.26,131.07v-.22c0-4.67,3.47-7.61,7.86-7.61,4,0,7.38,2.28,7.38,7.49V132H70.29a2.9,2.9,0,0,0,3,3c1.64,0,2.33-.74,2.53-1.72H80.5c-.44,3.28-3,5.14-7.35,5.14C68.59,138.48,65.26,135.81,65.26,131.07Zm10.41-1.83c-.08-1.75-.94-2.72-2.55-2.72s-2.53,1-2.78,2.72Z" fill="#fff"/><path d="M85.11,130.76l-4.53-7.13H86.3l2.25,3.83,2.19-3.83h5.11l-4.58,6.74,5,7.78H90.57L88,133.82l-2.64,4.33H80.28Z" fill="#fff"/><path d="M97.67,123.63h5v2.16a5.15,5.15,0,0,1,4.53-2.55c3.38,0,6.13,2.55,6.13,7.52V131c0,5-2.75,7.5-6.16,7.5a4.8,4.8,0,0,1-4.5-2.47v7h-5ZM108.25,131v-.22c0-2.55-1.11-3.77-2.86-3.77s-2.89,1.3-2.89,3.74V131c0,2.47,1.09,3.72,2.89,3.72S108.25,133.37,108.25,131Z" fill="#fff"/><path d="M114.32,131.07v-.22c0-4.67,3.47-7.61,7.86-7.61,4,0,7.38,2.28,7.38,7.49V132H119.35a2.9,2.9,0,0,0,3,3c1.64,0,2.34-.74,2.53-1.72h4.66c-.44,3.28-3,5.14-7.35,5.14C117.66,138.48,114.32,135.81,114.32,131.07Zm10.41-1.83c-.08-1.75-.94-2.72-2.55-2.72s-2.53,1-2.78,2.72Z" fill="#fff"/><path d="M131.28,123.63h5v2.89a4.56,4.56,0,0,1,4.69-3.08v4.63c-3-.08-4.69.86-4.69,3.19v6.89h-5Z" fill="#fff"/><path d="M143.63,133.48V127h-1.75v-3.39h1.75v-3h5v3h2.86V127H148.6v6c0,1.06.52,1.53,1.47,1.53a3.89,3.89,0,0,0,1.41-.25v3.77a10.24,10.24,0,0,1-2.74.42C145.46,138.48,143.63,136.9,143.63,133.48Z" fill="#fff"/><path d="M159.06,133.48V127h-1.75v-3.39h1.75v-3h5v3h2.85V127H164v6c0,1.06.52,1.53,1.47,1.53a3.89,3.89,0,0,0,1.41-.25v3.77a10.26,10.26,0,0,1-2.75.42C160.89,138.48,159.06,136.9,159.06,133.48Z" fill="#fff"/><path d="M168,134.12c0-3.41,2.89-4.74,7.72-4.74h1.39V129c0-1.39-.34-2.3-1.92-2.3a1.78,1.78,0,0,0-2,1.72h-4.66c.22-3.5,3-5.22,6.94-5.22s6.55,1.64,6.55,5.5v9.41h-4.83v-1.7a4.77,4.77,0,0,1-4.31,2C170.3,138.48,168,137.2,168,134.12Zm9.11-1.05v-.89h-1.31c-2,0-2.89.39-2.89,1.58,0,.83.56,1.36,1.73,1.36C176,135.12,177.1,134.32,177.1,133.07Z" fill="#fff"/><path d="M188.11,130.76l-4.52-7.13h5.71l2.25,3.83,2.2-3.83h5.1l-4.58,6.74,5,7.78h-5.72L191,133.82l-2.64,4.33h-5.08Z" fill="#fff"/><path d="M205.73,123.63h5v2.16a5.13,5.13,0,0,1,4.52-2.55c3.39,0,6.14,2.55,6.14,7.52V131c0,5-2.75,7.5-6.16,7.5a4.79,4.79,0,0,1-4.5-2.47v7h-5ZM216.31,131v-.22c0-2.55-1.11-3.77-2.86-3.77s-2.89,1.3-2.89,3.74V131c0,2.47,1.08,3.72,2.89,3.72S216.31,133.37,216.31,131Z" fill="#fff"/><path d="M223.16,123.63h5v2.89a4.56,4.56,0,0,1,4.69-3.08v4.63c-3-.08-4.69.86-4.69,3.19v6.89h-5Z" fill="#fff"/><path d="M233.7,131.07v-.22c0-4.67,3.47-7.61,7.86-7.61,4,0,7.38,2.28,7.38,7.49V132H238.73a2.9,2.9,0,0,0,3,3c1.64,0,2.33-.74,2.53-1.72h4.66c-.44,3.28-3,5.14-7.36,5.14C237,138.48,233.7,135.81,233.7,131.07Zm10.41-1.83c-.08-1.75-.94-2.72-2.55-2.72s-2.53,1-2.78,2.72Z" fill="#fff"/><path d="M250.66,123.63h5v2.16a5.13,5.13,0,0,1,4.52-2.55c3.39,0,6.13,2.55,6.13,7.52V131c0,5-2.74,7.5-6.16,7.5a4.78,4.78,0,0,1-4.49-2.47v7h-5ZM261.23,131v-.22c0-2.55-1.11-3.77-2.86-3.77s-2.88,1.3-2.88,3.74V131c0,2.47,1.08,3.72,2.88,3.72S261.23,133.37,261.23,131Z" fill="#fff"/><path d="M267.53,135.65a2.77,2.77,0,0,1,2.83-2.81,2.81,2.81,0,1,1,0,5.61A2.77,2.77,0,0,1,267.53,135.65Z" fill="#fff"/><rect width="300" height="250" fill="none"/></g></g></g></g></svg>