<svg xmlns="http://www.w3.org/2000/svg" viewBox="0 0 300 250"><title>300x250</title><g id="Layer_2" data-name="Layer 2"><g id="Artboard_5" data-name="Artboard 5" style="isolation:isolate"><g id="headline1"><g id="Help_is_here_with_Tax_Pro_Go._Upload_your_docs_for_expert_tax_p" data-name="Help is here with Tax Pro Go. Upload your docs for expert tax p"><path d="M23.26,29h5.51v7.3h6.29V29h5.48V48.14H35.06V40.6H28.77v7.54H23.26Z" fill="#fff"/><path d="M42.47,41.32v-.21c0-4.5,3.34-7.33,7.57-7.33,3.83,0,7.12,2.19,7.12,7.22v1.26H47.31a2.8,2.8,0,0,0,2.92,2.91c1.58,0,2.25-.72,2.43-1.65h4.5c-.43,3.15-2.87,4.94-7.09,4.94C45.68,48.46,42.47,45.9,42.47,41.32Zm10-1.76c-.08-1.69-.91-2.63-2.46-2.63s-2.43.94-2.67,2.63Z" fill="#fff"/><path d="M59,28h4.76V48.14H59Z" fill="#fff"/><path d="M66.28,34.15h4.79v2.09a4.92,4.92,0,0,1,4.36-2.46c3.26,0,5.91,2.46,5.91,7.25v.21c0,4.82-2.65,7.22-5.94,7.22a4.61,4.61,0,0,1-4.33-2.38v6.74H66.28Zm10.19,7.09V41c0-2.46-1.07-3.64-2.76-3.64S70.93,38.65,70.93,41v.21c0,2.39,1,3.59,2.78,3.59S76.47,43.54,76.47,41.24Z" fill="#fff"/><path d="M87.84,30.35a2.5,2.5,0,0,1,2.62-2.48,2.48,2.48,0,1,1,0,4.95A2.48,2.48,0,0,1,87.84,30.35Zm.24,3.8h4.79v14H88.08Z" fill="#fff"/><path d="M94.5,43.7h4.41c.16,1,.62,1.58,2,1.58,1.18,0,1.71-.45,1.71-1.15s-.66-1-2.59-1.26c-3.75-.48-5.32-1.58-5.32-4.49,0-3.1,2.75-4.6,6-4.6,3.45,0,5.86,1.18,6.18,4.52h-4.34a1.55,1.55,0,0,0-1.79-1.39c-1,0-1.58.45-1.58,1.09s.65.94,2.36,1.15c3.88.49,5.75,1.5,5.75,4.5,0,3.32-2.46,4.81-6.34,4.81S94.61,46.81,94.5,43.7Z" fill="#fff"/><path d="M113.68,28h4.79v8.4a4.94,4.94,0,0,1,4.6-2.62c2.7,0,4.57,1.68,4.57,5.27v9.09h-4.79V40c0-1.58-.61-2.35-2-2.35s-2.38.85-2.38,2.65v7.83h-4.79Z" fill="#fff"/><path d="M129.22,41.32v-.21c0-4.5,3.34-7.33,7.57-7.33,3.83,0,7.12,2.19,7.12,7.22v1.26h-9.85A2.8,2.8,0,0,0,137,45.17c1.58,0,2.24-.72,2.43-1.65h4.5c-.43,3.15-2.87,4.94-7.09,4.94C132.43,48.46,129.22,45.9,129.22,41.32Zm10-1.76c-.08-1.69-.91-2.63-2.46-2.63s-2.43.94-2.67,2.63Z" fill="#fff"/><path d="M145.56,34.15h4.79v2.78a4.41,4.41,0,0,1,4.52-3v4.46c-2.91-.08-4.52.83-4.52,3.08v6.63h-4.79Z" fill="#fff"/><path d="M155.73,41.32v-.21c0-4.5,3.34-7.33,7.57-7.33,3.82,0,7.11,2.19,7.11,7.22v1.26h-9.84a2.79,2.79,0,0,0,2.92,2.91c1.57,0,2.24-.72,2.43-1.65h4.49c-.42,3.15-2.86,4.94-7.08,4.94C158.94,48.46,155.73,45.9,155.73,41.32Zm10-1.76c-.08-1.69-.91-2.63-2.46-2.63s-2.43.94-2.68,2.63Z" fill="#fff"/><path d="M175.76,34.15h5l2,8.38,2.35-8.38H189l2.09,8.38,2.28-8.38h4.54l-4.44,14H188.9l-2.09-7.81-2.16,7.81H180Z" fill="#fff"/><path d="M199,30.35a2.5,2.5,0,0,1,2.62-2.48,2.48,2.48,0,1,1,0,4.95A2.48,2.48,0,0,1,199,30.35Zm.24,3.8h4.79v14h-4.79Z" fill="#fff"/><path d="M207.28,43.65V37.42h-1.69V34.15h1.69V31.24h4.78v2.91h2.76v3.27h-2.76v5.77c0,1,.51,1.48,1.42,1.48a3.68,3.68,0,0,0,1.37-.25v3.64a10.15,10.15,0,0,1-2.65.4C209,48.46,207.28,46.94,207.28,43.65Z" fill="#fff"/><path d="M216.64,28h4.79v8.4a4.93,4.93,0,0,1,4.6-2.62c2.7,0,4.57,1.68,4.57,5.27v9.09h-4.79V40c0-1.58-.61-2.35-2-2.35s-2.38.85-2.38,2.65v7.83h-4.79Z" fill="#fff"/><path d="M26.93,63H22V58.77H37.39V63h-5v14.9H26.93Z" fill="#fff"/><path d="M36.43,74c0-3.29,2.78-4.57,7.43-4.57H45.2v-.32c0-1.34-.32-2.22-1.85-2.22a1.72,1.72,0,0,0-1.9,1.66H37c.21-3.37,2.86-5,6.69-5S50,65.11,50,68.82v9.07H45.31V76.26a4.59,4.59,0,0,1-4.15,1.95C38.65,78.21,36.43,77,36.43,74Zm8.77-1v-.86H43.94c-1.92,0-2.78.38-2.78,1.53,0,.8.54,1.31,1.66,1.31A2.11,2.11,0,0,0,45.2,73Z" fill="#fff"/><path d="M55.82,70.78,51.46,63.9H57l2.17,3.69,2.11-3.69h4.92l-4.41,6.5,4.84,7.49H61.09L58.6,73.72l-2.54,4.17H51.17Z" fill="#fff"/><path d="M73.23,58.77h7.28c5.24,0,7.68,2.32,7.68,6.39v.11c0,4-2.71,6.18-7.44,6.18H78.69v6.44H73.23Zm7,8.93c1.76,0,2.7-.83,2.7-2.41v-.1c0-1.63-1-2.3-2.68-2.3h-1.6V67.7Z" fill="#fff"/><path d="M89.84,63.9h4.79v2.78a4.41,4.41,0,0,1,4.52-3v4.46c-2.91-.08-4.52.83-4.52,3.08v6.63H89.84Z" fill="#fff"/><path d="M100,71.07v-.21c0-4.5,3.34-7.33,7.68-7.33s7.62,2.75,7.62,7.19v.22c0,4.55-3.34,7.27-7.65,7.27S100,75.59,100,71.07ZM110.44,71v-.21c0-2.36-.93-3.67-2.75-3.67s-2.79,1.26-2.79,3.61v.22c0,2.41.94,3.72,2.79,3.72S110.44,73.32,110.44,71Z" fill="#fff"/><path d="M121.28,68.45v-.21c0-5.83,4.28-9.77,10-9.77,4.52,0,8.53,2.06,8.9,7h-5.43c-.26-1.79-1.41-2.73-3.45-2.73-2.7,0-4.33,2.09-4.33,5.54v.21c0,3.1,1.15,5.51,4.47,5.51,2.67,0,3.69-1.36,3.8-2.89h-3.59V67.33h9v2.35c0,4.87-3.18,8.53-9.36,8.53C124.81,78.21,121.28,74.17,121.28,68.45Z" fill="#fff"/><path d="M141.77,71.07v-.21c0-4.5,3.34-7.33,7.67-7.33s7.63,2.75,7.63,7.19v.22c0,4.55-3.35,7.27-7.65,7.27S141.77,75.59,141.77,71.07ZM152.2,71v-.21c0-2.36-.94-3.67-2.76-3.67s-2.78,1.26-2.78,3.61v.22c0,2.41.94,3.72,2.78,3.72S152.2,73.32,152.2,71Z" fill="#fff"/><path d="M158,75.49a2.67,2.67,0,0,1,2.73-2.71,2.71,2.71,0,1,1,0,5.41A2.67,2.67,0,0,1,158,75.49Z" fill="#fff"/><path d="M170.92,70.14V58.77h5.49V69.89c0,2.71.67,4,3,4s3-1.23,3-4.1v-11h5.54V70.06c0,5.56-3.27,8.15-8.54,8.15S170.92,75.49,170.92,70.14Z" fill="#fff"/><path d="M190.53,63.9h4.79V66a4.93,4.93,0,0,1,4.36-2.46c3.26,0,5.91,2.46,5.91,7.25V71c0,4.82-2.65,7.22-5.94,7.22a4.61,4.61,0,0,1-4.33-2.38v6.74h-4.79ZM200.72,71v-.21c0-2.46-1.07-3.64-2.75-3.64s-2.78,1.26-2.78,3.61V71c0,2.39,1,3.59,2.78,3.59S200.72,73.29,200.72,71Z" fill="#fff"/><path d="M207.46,57.75h4.76V77.89h-4.76Z" fill="#fff"/><path d="M214,71.07v-.21c0-4.5,3.35-7.33,7.68-7.33s7.62,2.75,7.62,7.19v.22c0,4.55-3.34,7.27-7.65,7.27S214,75.59,214,71.07ZM224.48,71v-.21c0-2.36-.94-3.67-2.76-3.67s-2.78,1.26-2.78,3.61v.22c0,2.41.94,3.72,2.78,3.72S224.48,73.32,224.48,71Z" fill="#fff"/><path d="M230.23,74c0-3.29,2.78-4.57,7.43-4.57H239v-.32c0-1.34-.32-2.22-1.84-2.22a1.71,1.71,0,0,0-1.9,1.66h-4.5c.22-3.37,2.86-5,6.69-5s6.31,1.58,6.31,5.29v9.07h-4.65V76.26A4.59,4.59,0,0,1,235,78.21C232.45,78.21,230.23,77,230.23,74ZM239,73v-.86h-1.26c-1.92,0-2.78.38-2.78,1.53,0,.8.54,1.31,1.66,1.31A2.11,2.11,0,0,0,239,73Z" fill="#fff"/><path d="M245.39,71v-.21c0-4.76,2.63-7.3,5.94-7.3a4.53,4.53,0,0,1,4.31,2.35V57.75h4.79V77.89h-4.79V75.62a4.73,4.73,0,0,1-4.36,2.59C248,78.21,245.39,75.89,245.39,71ZM255.77,71v-.21c0-2.35-1-3.61-2.75-3.61s-2.76,1.2-2.76,3.64V71c0,2.36,1.05,3.56,2.7,3.56S255.77,73.35,255.77,71Z" fill="#fff"/><path d="M27.22,106.22,21.63,93.65h5.19l2.89,7.47,2.68-7.47H37l-7.49,18.67H24.9Z" fill="#fff"/><path d="M36.69,100.82v-.21c0-4.5,3.35-7.33,7.68-7.33S52,96,52,100.47v.22c0,4.55-3.34,7.27-7.65,7.27S36.69,105.34,36.69,100.82Zm10.44-.08v-.21c0-2.36-.94-3.67-2.76-3.67s-2.78,1.26-2.78,3.61v.22c0,2.41.93,3.72,2.78,3.72S47.13,103.07,47.13,100.74Z" fill="#fff"/><path d="M53.57,102.77V93.65h4.79V102c0,1.58.62,2.35,2,2.35s2.38-.85,2.38-2.65v-8h4.79v14H62.72v-2.16A4.6,4.6,0,0,1,58.28,108C55.58,108,53.57,106.31,53.57,102.77Z" fill="#fff"/><path d="M69.94,93.65h4.79v2.78a4.4,4.4,0,0,1,4.52-3v4.46c-2.91-.08-4.52.83-4.52,3.08v6.63H69.94Z" fill="#fff"/><path d="M85.16,100.79v-.21c0-4.76,2.62-7.3,5.94-7.3a4.55,4.55,0,0,1,4.31,2.35V87.5h4.79v20.14H95.41v-2.27A4.73,4.73,0,0,1,91.05,108C87.81,108,85.16,105.64,85.16,100.79Zm10.38-.08v-.21c0-2.35-1-3.61-2.75-3.61S90,98.09,90,100.53v.21c0,2.36,1,3.56,2.7,3.56S95.54,103.1,95.54,100.71Z" fill="#fff"/><path d="M101.88,100.82v-.21c0-4.5,3.35-7.33,7.68-7.33s7.62,2.75,7.62,7.19v.22c0,4.55-3.34,7.27-7.65,7.27S101.88,105.34,101.88,100.82Zm10.43-.08v-.21c0-2.36-.93-3.67-2.75-3.67s-2.78,1.26-2.78,3.61v.22c0,2.41.93,3.72,2.78,3.72S112.31,103.07,112.31,100.74Z" fill="#fff"/><path d="M118.12,100.82v-.21c0-4.66,3.34-7.33,7.46-7.33,3.43,0,6.58,1.5,6.85,5.75h-4.49a2.07,2.07,0,0,0-2.25-2C124,97,123,98.2,123,100.55v.22c0,2.43.94,3.69,2.76,3.69a2.32,2.32,0,0,0,2.43-2.33h4.31c-.13,3.53-2.51,5.83-7,5.83C121.3,108,118.12,105.53,118.12,100.82Z" fill="#fff"/><path d="M133.31,103.2h4.42c.16,1,.61,1.58,2,1.58,1.17,0,1.71-.45,1.71-1.15s-.67-1-2.6-1.26c-3.74-.48-5.32-1.58-5.32-4.49,0-3.1,2.75-4.6,6-4.6,3.45,0,5.86,1.18,6.18,4.52h-4.33a1.57,1.57,0,0,0-1.8-1.39c-1,0-1.57.45-1.57,1.09s.64.94,2.35,1.15c3.88.49,5.75,1.5,5.75,4.5,0,3.32-2.46,4.81-6.34,4.81S133.42,106.31,133.31,103.2Z" fill="#fff"/><path d="M153.21,96.92h-1.76V93.65h1.76V92.42c0-3.47,2.17-5.13,5.49-5.13a8.55,8.55,0,0,1,2.19.29v3.5a4.64,4.64,0,0,0-1.31-.18A1.41,1.41,0,0,0,158,92.42v1.23h2.84v3.27H158v10.72h-4.76Z" fill="#fff"/><path d="M161.19,100.82v-.21c0-4.5,3.34-7.33,7.67-7.33s7.63,2.75,7.63,7.19v.22c0,4.55-3.35,7.27-7.66,7.27S161.19,105.34,161.19,100.82Zm10.43-.08v-.21c0-2.36-.94-3.67-2.76-3.67s-2.78,1.26-2.78,3.61v.22c0,2.41.94,3.72,2.78,3.72S171.62,103.07,171.62,100.74Z" fill="#fff"/><path d="M178.17,93.65H183v2.78a4.4,4.4,0,0,1,4.52-3v4.46c-2.92-.08-4.52.83-4.52,3.08v6.63h-4.79Z" fill="#fff"/><path d="M193.34,100.82v-.21c0-4.5,3.34-7.33,7.57-7.33,3.82,0,7.11,2.19,7.11,7.22v1.26h-9.84a2.79,2.79,0,0,0,2.92,2.91c1.57,0,2.24-.72,2.43-1.65H208c-.42,3.15-2.86,4.94-7.09,4.94C196.55,108,193.34,105.4,193.34,100.82Zm10-1.76c-.08-1.69-.91-2.63-2.46-2.63a2.67,2.67,0,0,0-2.68,2.63Z" fill="#fff"/><path d="M212.46,100.53l-4.36-6.88h5.51l2.17,3.69,2.11-3.69h4.93l-4.42,6.5,4.84,7.49h-5.51l-2.48-4.17-2.54,4.17h-4.9Z" fill="#fff"/><path d="M224.58,93.65h4.79v2.09a4.93,4.93,0,0,1,4.36-2.46c3.26,0,5.91,2.46,5.91,7.25v.21c0,4.82-2.65,7.22-5.94,7.22a4.62,4.62,0,0,1-4.33-2.38v6.74h-4.79Zm10.19,7.09v-.21c0-2.46-1.07-3.64-2.75-3.64s-2.78,1.26-2.78,3.61v.21c0,2.39,1,3.59,2.78,3.59S234.77,103,234.77,100.74Z" fill="#fff"/><path d="M240.63,100.82v-.21c0-4.5,3.34-7.33,7.57-7.33,3.83,0,7.12,2.19,7.12,7.22v1.26h-9.85a2.8,2.8,0,0,0,2.92,2.91c1.58,0,2.25-.72,2.43-1.65h4.5c-.43,3.15-2.87,4.94-7.09,4.94C243.84,108,240.63,105.4,240.63,100.82Zm10-1.76c-.08-1.69-.91-2.63-2.46-2.63s-2.43.94-2.67,2.63Z" fill="#fff"/><path d="M257,93.65h4.78v2.78a4.41,4.41,0,0,1,4.52-3v4.46c-2.91-.08-4.52.83-4.52,3.08v6.63H257Z" fill="#fff"/><path d="M268.88,103.15V96.92h-1.69V93.65h1.69V90.74h4.79v2.91h2.75v3.27h-2.75v5.77c0,1,.5,1.48,1.41,1.48a3.68,3.68,0,0,0,1.37-.25v3.64a10.15,10.15,0,0,1-2.65.4C270.64,108,268.88,106.44,268.88,103.15Z" fill="#fff"/><path d="M23.48,132.9v-6.23H21.79V123.4h1.69v-2.91h4.79v2.91H31v3.27H28.27v5.77c0,1,.5,1.48,1.41,1.48a3.68,3.68,0,0,0,1.37-.25v3.64a10.15,10.15,0,0,1-2.65.4C25.24,137.71,23.48,136.19,23.48,132.9Z" fill="#fff"/><path d="M32.09,133.51c0-3.29,2.78-4.57,7.44-4.57h1.34v-.32c0-1.34-.33-2.22-1.85-2.22a1.72,1.72,0,0,0-1.9,1.66H32.63c.21-3.37,2.86-5,6.68-5s6.32,1.58,6.32,5.29v9.07H41v-1.63a4.58,4.58,0,0,1-4.14,2C34.31,137.71,32.09,136.48,32.09,133.51Zm8.78-1v-.86H39.61c-1.93,0-2.78.38-2.78,1.53,0,.8.53,1.31,1.65,1.31C39.85,134.48,40.87,133.7,40.87,132.5Z" fill="#fff"/><path d="M51.49,130.28l-4.36-6.88h5.51l2.16,3.69,2.12-3.69h4.92l-4.42,6.5,4.84,7.49H56.75l-2.48-4.17-2.54,4.17h-4.9Z" fill="#fff"/><path d="M68.47,123.4h4.79v2.09A4.93,4.93,0,0,1,77.62,123c3.26,0,5.91,2.46,5.91,7.25v.21c0,4.82-2.65,7.22-5.94,7.22a4.61,4.61,0,0,1-4.33-2.38v6.74H68.47Zm10.19,7.09v-.21c0-2.46-1.07-3.64-2.75-3.64s-2.78,1.26-2.78,3.61v.21c0,2.39,1,3.59,2.78,3.59S78.66,132.79,78.66,130.49Z" fill="#fff"/><path d="M85.27,123.4h4.79v2.78a4.4,4.4,0,0,1,4.52-3v4.46c-2.92-.08-4.52.83-4.52,3.08v6.63H85.27Z" fill="#fff"/><path d="M95.44,130.57v-.21c0-4.5,3.34-7.33,7.56-7.33,3.83,0,7.12,2.19,7.12,7.22v1.26h-9.84a2.79,2.79,0,0,0,2.91,2.91c1.58,0,2.25-.72,2.44-1.66h4.49c-.43,3.16-2.86,5-7.09,5C98.64,137.71,95.44,135.15,95.44,130.57Zm10-1.76c-.08-1.69-.91-2.63-2.47-2.63s-2.43.94-2.67,2.63Z" fill="#fff"/><path d="M111.78,123.4h4.79v2.09a4.92,4.92,0,0,1,4.36-2.46c3.26,0,5.91,2.46,5.91,7.25v.21c0,4.82-2.65,7.22-5.94,7.22a4.61,4.61,0,0,1-4.33-2.38v6.74h-4.79ZM122,130.49v-.21c0-2.46-1.07-3.64-2.76-3.64s-2.78,1.26-2.78,3.61v.21c0,2.39,1,3.59,2.78,3.59S122,132.79,122,130.49Z" fill="#fff"/><path d="M128,135a2.67,2.67,0,0,1,2.73-2.71,2.71,2.71,0,1,1,0,5.41A2.67,2.67,0,0,1,128,135Z" fill="#fff"/><rect width="300" height="250" fill="none"/></g></g></g></g></svg>