<svg xmlns="http://www.w3.org/2000/svg" viewBox="0 0 600 500"><title>Asset 2</title><rect width="600" height="500" fill="none"/><path d="M42.8,37.54H77.18v11H57V57.1H73.08V67.26H57v9H78.3v11H42.8Z" fill="#fff"/><path d="M82.2,77.21c0-8.56,7.23-11.9,19.34-11.9H105v-.83c0-3.48-.83-5.78-4.8-5.78-3.41,0-4.66,2-4.94,4.32H83.59C84.14,54.25,91,49.93,101,49.93S117.41,54,117.41,63.71V87.3H105.3V83.06c-1.74,2.64-4.94,5.08-10.79,5.08C88,88.14,82.2,84.94,82.2,77.21ZM105,74.57V72.34h-3.27c-5,0-7.24,1-7.24,4,0,2.09,1.4,3.41,4.32,3.41C102.38,79.72,105,77.7,105,74.57Z" fill="#fff"/><path d="M122.08,75.75h11.48c.42,2.65,1.6,4.11,5.15,4.11,3.06,0,4.45-1.19,4.45-3s-1.74-2.58-6.75-3.28c-9.74-1.25-13.85-4.1-13.85-11.69,0-8.07,7.17-12,15.59-12,9,0,15.24,3.06,16.08,11.76H143c-.48-2.43-1.8-3.62-4.66-3.62-2.71,0-4.1,1.19-4.1,2.86s1.67,2.43,6.12,3c10.09,1.25,15,3.9,15,11.69,0,8.63-6.4,12.53-16.49,12.53C128.41,88.14,122.35,83.82,122.08,75.75Z" fill="#fff"/><path d="M160.08,41a6.5,6.5,0,0,1,6.82-6.47A6.57,6.57,0,0,1,173.79,41c0,3.69-3,6.41-6.89,6.41S160.08,44.71,160.08,41Zm.62,9.89h12.46V87.3H160.7Z" fill="#fff"/><path d="M181.24,34.9h12.38V87.3H181.24Z" fill="#fff"/><path d="M212.76,83.62,198.22,50.91h13.5l7.52,19.41,6.95-19.41H238.1L218.61,99.48h-11.9Z" fill="#fff"/><path d="M257.72,75.61V59.4h-4.38V50.91h4.38V43.32h12.46v7.59h7.17V59.4h-7.17v15c0,2.64,1.32,3.83,3.69,3.83a9.44,9.44,0,0,0,3.55-.63V87.1a26.5,26.5,0,0,1-6.89,1C262.32,88.14,257.72,84.17,257.72,75.61Z" fill="#fff"/><path d="M283.13,34.9h12.45V56.75c1.95-3.76,5.92-6.82,12-6.82,7,0,11.91,4.39,11.91,13.71V87.3H307V66.15C307,62,305.4,60,301.78,60s-6.2,2.23-6.2,6.89V87.3H283.13Z" fill="#fff"/><path d="M324.61,69.56V69c0-11.69,8.7-19.07,19.69-19.07,10,0,18.52,5.71,18.52,18.79V72H337.21c.34,4.81,3.13,7.59,7.58,7.59,4.11,0,5.85-1.88,6.33-4.32h11.7c-1.12,8.22-7.45,12.88-18.45,12.88C333,88.14,324.61,81.46,324.61,69.56Zm26.1-4.6c-.21-4.38-2.37-6.82-6.41-6.82-3.76,0-6.33,2.44-7,6.82Z" fill="#fff"/><path d="M39.74,142.56V142c0-11.69,8.7-19.07,19.7-19.07,10,0,18.51,5.71,18.51,18.79V145H52.34c.34,4.81,3.13,7.59,7.58,7.59,4.11,0,5.85-1.88,6.34-4.32H78c-1.12,8.22-7.45,12.88-18.45,12.88C48.09,161.14,39.74,154.46,39.74,142.56Zm26.1-4.6c-.21-4.38-2.37-6.82-6.4-6.82-3.76,0-6.34,2.44-7,6.82Z" fill="#fff"/><path d="M81.57,150.21c0-8.56,7.24-11.9,19.35-11.9h3.48v-.83c0-3.48-.84-5.78-4.81-5.78-3.41,0-4.66,2-4.94,4.32H83c.56-8.77,7.45-13.09,17.4-13.09s16.42,4.11,16.42,13.78V160.3H104.67v-4.24c-1.74,2.64-4.94,5.08-10.78,5.08C87.34,161.14,81.57,157.94,81.57,150.21Zm22.83-2.64v-2.23h-3.28c-5,0-7.23,1-7.23,4,0,2.09,1.39,3.41,4.31,3.41C101.75,152.72,104.4,150.7,104.4,147.57Z" fill="#fff"/><path d="M121.45,148.75h11.48c.42,2.65,1.6,4.11,5.15,4.11,3.06,0,4.46-1.19,4.46-3s-1.74-2.58-6.76-3.28c-9.74-1.25-13.84-4.1-13.84-11.69,0-8.07,7.16-12,15.58-12,9,0,15.25,3.06,16.08,11.76H142.33c-.49-2.43-1.81-3.62-4.67-3.62-2.71,0-4.1,1.19-4.1,2.86s1.67,2.43,6.12,3c10.09,1.25,15,3.9,15,11.69,0,8.63-6.41,12.53-16.5,12.53C127.78,161.14,121.73,156.82,121.45,148.75Z" fill="#fff"/><path d="M159.45,114a6.87,6.87,0,0,1,13.71,0c0,3.69-3,6.41-6.89,6.41S159.45,117.71,159.45,114Zm.63,9.89h12.45V160.3H160.08Z" fill="#fff"/><path d="M178.31,142.56V142c0-11.69,8.7-19.07,19.7-19.07,10,0,18.51,5.71,18.51,18.79V145H190.91c.35,4.81,3.13,7.59,7.58,7.59,4.11,0,5.85-1.88,6.34-4.32h11.69c-1.12,8.22-7.45,12.88-18.44,12.88C186.66,161.14,178.31,154.46,178.31,142.56Zm26.1-4.6c-.21-4.38-2.37-6.82-6.4-6.82-3.76,0-6.34,2.44-7,6.82Z" fill="#fff"/><path d="M219.79,148.75h11.48c.42,2.65,1.6,4.11,5.15,4.11,3.07,0,4.46-1.19,4.46-3s-1.74-2.58-6.75-3.28c-9.75-1.25-13.85-4.1-13.85-11.69,0-8.07,7.17-12,15.59-12,9,0,15.24,3.06,16.07,11.76H240.67c-.49-2.43-1.81-3.62-4.66-3.62s-4.11,1.19-4.11,2.86,1.67,2.43,6.12,3c10.1,1.25,15,3.9,15,11.69,0,8.63-6.41,12.53-16.5,12.53C226.12,161.14,220.07,156.82,219.79,148.75Z" fill="#fff"/><path d="M259.74,148.61V132.4h-4.38v-8.49h4.38v-7.59H272.2v7.59h7.17v8.49H272.2v15c0,2.64,1.32,3.83,3.69,3.83a9.48,9.48,0,0,0,3.55-.63v9.47a26.5,26.5,0,0,1-6.89,1C264.33,161.14,259.74,157.17,259.74,148.61Z" fill="#fff"/><path d="M295.79,123.91h13l5.29,21.78,6.12-21.78h10l5.43,21.78,5.92-21.78h11.83L341.86,160.3H330L324.54,140,318.9,160.3H306.79Z" fill="#fff"/><path d="M354.19,150.21c0-8.56,7.23-11.9,19.34-11.9H377v-.83c0-3.48-.83-5.78-4.8-5.78-3.41,0-4.66,2-4.94,4.32H355.58c.56-8.77,7.45-13.09,17.4-13.09S389.4,127,389.4,136.71V160.3H377.29v-4.24c-1.74,2.64-4.94,5.08-10.79,5.08C360,161.14,354.19,157.94,354.19,150.21ZM377,147.57v-2.23h-3.27c-5,0-7.24,1-7.24,4,0,2.09,1.4,3.41,4.32,3.41C374.37,152.72,377,150.7,377,147.57Z" fill="#fff"/><path d="M406.66,156.62l-14.54-32.71h13.5l7.51,19.41,7-19.41H432l-19.49,48.57h-11.9Z" fill="#fff"/><path d="M451.62,148.61V132.4h-4.38v-8.49h4.38v-7.59h12.46v7.59h7.17v8.49h-7.17v15c0,2.64,1.32,3.83,3.69,3.83a9.44,9.44,0,0,0,3.55-.63v9.47a26.5,26.5,0,0,1-6.89,1C456.22,161.14,451.62,157.17,451.62,148.61Z" fill="#fff"/><path d="M475.08,142.56V142c0-11.69,8.7-19.07,20-19.07s19.84,7.17,19.84,18.72v.56c0,11.83-8.7,18.93-19.91,18.93S475.08,154.32,475.08,142.56Zm27.14-.21v-.56c0-6.12-2.43-9.53-7.17-9.53s-7.23,3.27-7.23,9.39v.56c0,6.26,2.43,9.67,7.23,9.67S502.22,148.4,502.22,142.35Z" fill="#fff"/><path d="M39.88,215.49v-.56c0-12.39,6.82-19,15.45-19,5.71,0,9.12,2.44,11.2,6.13V180.9H79v52.4H66.53v-5.91a12.25,12.25,0,0,1-11.34,6.75C46.77,234.14,39.88,228.08,39.88,215.49Zm27-.21v-.56c0-6.12-2.57-9.39-7.17-9.39s-7.16,3.13-7.16,9.46v.56c0,6.12,2.71,9.26,7,9.26C64.1,224.61,66.88,221.47,66.88,215.28Z" fill="#fff"/><path d="M84.42,215.56V215c0-11.69,8.7-19.07,20-19.07s19.83,7.17,19.83,18.72v.56c0,11.83-8.7,18.93-19.9,18.93S84.42,227.32,84.42,215.56Zm27.14-.21v-.56c0-6.12-2.43-9.53-7.16-9.53s-7.24,3.27-7.24,9.39v.56c0,6.26,2.43,9.67,7.24,9.67C109.06,224.88,111.56,221.4,111.56,215.35Z" fill="#fff"/><path d="M154.79,229.62l-14.55-32.71h13.5l7.52,19.41,7-19.41h11.9l-19.49,48.57h-11.9Z" fill="#fff"/><path d="M180.47,215.56V215c0-11.69,8.7-19.07,20-19.07s19.84,7.17,19.84,18.72v.56c0,11.83-8.7,18.93-19.91,18.93S180.47,227.32,180.47,215.56Zm27.14-.21v-.56c0-6.12-2.43-9.53-7.17-9.53s-7.23,3.27-7.23,9.39v.56c0,6.26,2.43,9.67,7.23,9.67S207.61,221.4,207.61,215.35Z" fill="#fff"/><path d="M225.43,220.64V196.91h12.46v21.71c0,4.11,1.6,6.12,5.15,6.12,3.76,0,6.19-2.22,6.19-6.89V196.91h12.46V233.3H249.23v-5.63c-1.95,3.76-5.5,6.47-11.55,6.47C230.65,234.14,225.43,229.82,225.43,220.64Z" fill="#fff"/><path d="M269.07,196.91h12.46v7.23c2.29-5.42,6.12-7.79,11.76-7.72V208c-7.59-.21-11.76,2.16-11.76,8V233.3H269.07Z" fill="#fff"/><path d="M310.62,215.56V215c0-11.69,8.7-19.07,20-19.07s19.84,7.17,19.84,18.72v.56c0,11.83-8.7,18.93-19.91,18.93S310.62,227.32,310.62,215.56Zm27.14-.21v-.56c0-6.12-2.43-9.53-7.17-9.53s-7.24,3.27-7.24,9.39v.56c0,6.26,2.44,9.67,7.24,9.67S337.76,221.4,337.76,215.35Z" fill="#fff"/><path d="M351.61,196.91h13l5.29,21.78L376,196.91h10l5.43,21.78,5.92-21.78h11.83L397.69,233.3h-11.9L380.36,213l-5.64,20.32H362.61Z" fill="#fff"/><path d="M413.49,196.91h12.45v5.84c1.95-3.76,5.92-6.82,12-6.82,7,0,11.91,4.39,11.91,13.71V233.3H437.36V212.15c0-4.11-1.6-6.13-5.22-6.13s-6.2,2.23-6.2,6.89V233.3H413.49Z" fill="#fff"/><path d="M43.36,294.61V278.4H39v-8.49h4.39v-7.59H55.82v7.59H63v8.49H55.82v15c0,2.64,1.32,3.83,3.68,3.83a9.4,9.4,0,0,0,3.55-.63v9.47a26.43,26.43,0,0,1-6.89,1C48,307.14,43.36,303.17,43.36,294.61Z" fill="#fff"/><path d="M66.81,296.21c0-8.56,7.24-11.9,19.35-11.9h3.48v-.83c0-3.48-.83-5.78-4.8-5.78-3.41,0-4.66,2-4.94,4.32H68.21c.55-8.77,7.44-13.09,17.39-13.09S102,273,102,282.71V306.3H89.92v-4.24c-1.74,2.64-4.94,5.08-10.79,5.08C72.59,307.14,66.81,303.94,66.81,296.21Zm22.83-2.64v-2.23H86.37c-5,0-7.24,1-7.24,4,0,2.09,1.39,3.41,4.32,3.41C87,298.72,89.64,296.7,89.64,293.57Z" fill="#fff"/><path d="M118.32,287.79,107,269.91h14.34l5.64,9.6,5.49-9.6h12.81l-11.48,16.91,12.59,19.48H132l-6.48-10.85-6.61,10.85H106.21Z" fill="#fff"/><path d="M145.81,288.56V288c0-11.69,8.7-19.07,19.69-19.07,10,0,18.52,5.71,18.52,18.79V291H158.4c.35,4.81,3.14,7.59,7.59,7.59,4.11,0,5.85-1.88,6.33-4.32H184c-1.12,8.22-7.45,12.88-18.45,12.88C154.16,307.14,145.81,300.46,145.81,288.56Zm26.1-4.6c-.21-4.38-2.37-6.82-6.41-6.82-3.75,0-6.33,2.44-7,6.82Z" fill="#fff"/><path d="M187.29,294.75h11.48c.42,2.65,1.6,4.11,5.15,4.11,3.06,0,4.46-1.19,4.46-3s-1.74-2.58-6.76-3.28c-9.74-1.25-13.84-4.1-13.84-11.69,0-8.07,7.16-12,15.58-12,9,0,15.25,3.06,16.08,11.76H208.17c-.49-2.43-1.81-3.62-4.67-3.62-2.71,0-4.1,1.19-4.1,2.86s1.67,2.43,6.12,3c10.09,1.25,15,3.9,15,11.69,0,8.63-6.41,12.53-16.5,12.53C193.62,307.14,187.57,302.83,187.29,294.75Z" fill="#fff"/><path d="M225.08,300a6.94,6.94,0,0,1,7.1-7,7,7,0,1,1,0,14.06A6.94,6.94,0,0,1,225.08,300Z" fill="#fff"/></svg>