<svg xmlns="http://www.w3.org/2000/svg" viewBox="0 0 728 90"><title>Asset 1</title><g style="isolation:isolate"><rect width="728" height="90" fill="none"/><path d="M108.43,23H113l-.56,7.41H109Zm5.72,0h4.55l-.56,7.41h-3.43Z" fill="#fff"/><path d="M121.37,23h5.55v7.35h6.33V23h5.53V42.29h-5.53v-7.6h-6.33v7.6h-5.55Z" fill="#fff"/><path d="M157.4,38.36l3.21,3.93h-6.28l-1.13-1.4a7.7,7.7,0,0,1-5.2,1.73c-4.1,0-6.77-2.16-6.77-5.82,0-2.48,1.51-4.32,4.23-5.61a6.15,6.15,0,0,1-1.18-3.37c0-3.28,2.8-5,6.2-5,3.07,0,5.84,1.54,5.84,4.5,0,2.11-1.24,3.64-3.85,4.77l2.43,3,1.4-2.75h4.2Zm-6.68-.57-3.05-3.66a2.28,2.28,0,0,0-1.29,2.07,2.24,2.24,0,0,0,2.45,2.4A2.53,2.53,0,0,0,150.72,37.79ZM150.13,30c1.29-.62,1.91-1.34,1.91-2.34a1.39,1.39,0,0,0-1.43-1.48A1.53,1.53,0,0,0,149,27.88,3.5,3.5,0,0,0,150.13,30Z" fill="#fff"/><path d="M162.5,23H170c5,0,7.84,2,7.84,6.11v.11a5,5,0,0,1-3.47,5.07l4.6,8h-5.82l-3.9-6.89H168v6.89H162.5Zm7.27,8.78c1.86,0,2.78-.78,2.78-2.34v-.11c0-1.56-1-2.18-2.75-2.18H168v4.63Z" fill="#fff"/><path d="M186.05,23h8.6c4.55,0,6.49,2,6.49,5v.1a4,4,0,0,1-3.26,4.15,4.19,4.19,0,0,1,3.85,4.5v.11c0,3.45-2.23,5.36-7,5.36h-8.68Zm7.49,7.65c1.73,0,2.37-.59,2.37-2V28.6c0-1.32-.7-1.91-2.37-1.91h-2.1v4Zm.19,7.92c1.75,0,2.56-.81,2.56-2.23v-.11c0-1.46-.78-2.21-2.72-2.21h-2.13V38.6Z" fill="#fff"/><path d="M203.78,22h4.8V42.29h-4.8Z" fill="#fff"/><path d="M210.55,35.42v-.21c0-4.53,3.37-7.39,7.73-7.39S226,30.6,226,35.07v.22c0,4.58-3.37,7.33-7.71,7.33S210.55,40,210.55,35.42Zm10.51-.08v-.21c0-2.38-.95-3.7-2.78-3.7s-2.8,1.27-2.8,3.64v.22c0,2.42.94,3.74,2.8,3.74S221.06,37.69,221.06,35.34Z" fill="#fff"/><path d="M227,35.42v-.21c0-4.69,3.37-7.39,7.52-7.39,3.45,0,6.63,1.51,6.9,5.8h-4.53a2.08,2.08,0,0,0-2.26-2c-1.7,0-2.7,1.21-2.7,3.58v.22c0,2.45.95,3.72,2.78,3.72a2.35,2.35,0,0,0,2.45-2.35h4.34c-.14,3.56-2.53,5.88-7.09,5.88C230.25,42.62,227,40.16,227,35.42Z" fill="#fff"/><path d="M243.24,22h4.82V33.78l3.8-5.58h5l-4.6,6.33,5,7.76h-5.39l-3.8-6.17v6.17h-4.82Z" fill="#fff"/><path d="M264,23h13v4.28h-7.46v4.1h6v4.07h-6v6.81H264Z" fill="#fff"/><path d="M278.43,28.2h4.83V31a4.44,4.44,0,0,1,4.55-3v4.5c-2.93-.08-4.55.84-4.55,3.1v6.68h-4.83Z" fill="#fff"/><path d="M288.81,35.42v-.21c0-4.53,3.37-7.39,7.63-7.39,3.85,0,7.16,2.21,7.16,7.28v1.27h-9.91a2.81,2.81,0,0,0,2.93,2.93c1.59,0,2.27-.73,2.46-1.67h4.52c-.43,3.18-2.88,5-7.14,5C292,42.62,288.81,40,288.81,35.42Zm10.11-1.78C298.83,32,298,31,296.44,31a2.69,2.69,0,0,0-2.7,2.64Z" fill="#fff"/><path d="M304.66,35.42v-.21c0-4.53,3.37-7.39,7.62-7.39,3.86,0,7.17,2.21,7.17,7.28v1.27h-9.92a2.82,2.82,0,0,0,2.94,2.93c1.59,0,2.27-.73,2.45-1.67h4.53c-.43,3.18-2.88,5-7.14,5C307.89,42.62,304.66,40,304.66,35.42Zm10.1-1.78c-.08-1.69-.91-2.64-2.48-2.64a2.68,2.68,0,0,0-2.69,2.64Z" fill="#fff"/><path d="M326.65,21.38h8.22v3.53H331.5V42.75h3.37v3.53h-8.22Z" fill="#fff"/><path d="M336.46,32.78v-.21c0-5.88,4.42-9.81,10.18-9.81s10.22,3.69,10.22,9.67v.22c0,5.92-4.07,10-10.3,10S336.46,38.57,336.46,32.78Zm14.63-.05v-.22c0-3.42-1.72-5.44-4.45-5.44s-4.42,2-4.42,5.47v.21c0,3.51,1.78,5.53,4.45,5.53S351.09,36.18,351.09,32.73Z" fill="#fff"/><path d="M358.85,28.2h4.83v2.26a5,5,0,0,1,4.63-2.64c2.72,0,4.61,1.7,4.61,5.31v9.16H368.1V34.1c0-1.59-.62-2.37-2-2.37s-2.39.86-2.39,2.67v7.89h-4.83Z" fill="#fff"/><path d="M375.54,22h4.79V42.29h-4.79Z" fill="#fff"/><path d="M383,24.37a2.66,2.66,0,1,1,2.64,2.48A2.52,2.52,0,0,1,383,24.37Zm.24,3.83H388V42.29h-4.82Z" fill="#fff"/><path d="M390.73,28.2h4.83v2.26a5,5,0,0,1,4.63-2.64c2.73,0,4.61,1.7,4.61,5.31v9.16H400V34.1c0-1.59-.62-2.37-2-2.37s-2.4.86-2.4,2.67v7.89h-4.83Z" fill="#fff"/><path d="M406.53,35.42v-.21c0-4.53,3.37-7.39,7.62-7.39,3.86,0,7.17,2.21,7.17,7.28v1.27h-9.91a2.81,2.81,0,0,0,2.93,2.93c1.59,0,2.27-.73,2.45-1.67h4.53c-.43,3.18-2.88,5-7.14,5C409.76,42.62,406.53,40,406.53,35.42Zm10.1-1.78c-.08-1.69-.91-2.64-2.48-2.64a2.68,2.68,0,0,0-2.69,2.64Z" fill="#fff"/><path d="M422.48,42.75h3.34V24.91h-3.34V21.38h8.19v24.9h-8.19Z" fill="#fff"/><path d="M437.71,37.82h4.45c.16,1,.62,1.59,2,1.59,1.18,0,1.72-.46,1.72-1.16s-.67-1-2.61-1.27c-3.77-.48-5.36-1.58-5.36-4.52,0-3.13,2.77-4.64,6-4.64,3.48,0,5.91,1.19,6.23,4.56h-4.37A1.57,1.57,0,0,0,444,31c-1.05,0-1.59.45-1.59,1.1s.64.94,2.37,1.16c3.91.48,5.79,1.51,5.79,4.53,0,3.34-2.48,4.85-6.38,4.85S437.82,41,437.71,37.82Z" fill="#fff"/><path d="M452.91,37.77V31.49h-1.7V28.2h1.7V25.26h4.82V28.2h2.78v3.29h-2.78v5.82a1.29,1.29,0,0,0,1.43,1.48,3.77,3.77,0,0,0,1.38-.24v3.66a10.19,10.19,0,0,1-2.67.41C454.69,42.62,452.91,41.08,452.91,37.77Z" fill="#fff"/><path d="M461.72,38.39c0-3.32,2.8-4.61,7.49-4.61h1.35v-.32c0-1.35-.32-2.24-1.86-2.24a1.73,1.73,0,0,0-1.91,1.67h-4.53c.22-3.4,2.88-5.07,6.74-5.07s6.36,1.59,6.36,5.34v9.13h-4.69V40.65a4.66,4.66,0,0,1-4.18,2C464,42.62,461.72,41.38,461.72,38.39Zm8.84-1V36.5h-1.27c-1.94,0-2.8.38-2.8,1.54,0,.8.54,1.32,1.67,1.32A2.13,2.13,0,0,0,470.56,37.36Z" fill="#fff"/><path d="M477.84,28.2h4.82v2.26a5,5,0,0,1,4.64-2.64c2.72,0,4.6,1.7,4.6,5.31v9.16h-4.82V34.1c0-1.59-.62-2.37-2-2.37s-2.4.86-2.4,2.67v7.89h-4.82Z" fill="#fff"/><path d="M493.68,35.4v-.22c0-4.8,2.65-7.36,6-7.36A4.59,4.59,0,0,1,504,30.19V22h4.82V42.29H504V40a4.77,4.77,0,0,1-4.4,2.62C496.35,42.62,493.68,40.27,493.68,35.4Zm10.46-.09V35.1c0-2.37-1-3.64-2.78-3.64s-2.77,1.21-2.77,3.67v.21c0,2.37,1.05,3.59,2.72,3.59S504.14,37.71,504.14,35.31Z" fill="#fff"/><path d="M510.47,37.82h4.45c.16,1,.62,1.59,2,1.59,1.18,0,1.72-.46,1.72-1.16S518,37.25,516,37c-3.78-.48-5.37-1.58-5.37-4.52,0-3.13,2.78-4.64,6-4.64,3.48,0,5.9,1.19,6.22,4.56h-4.36a1.57,1.57,0,0,0-1.81-1.4c-1,0-1.59.45-1.59,1.1s.65.94,2.38,1.16c3.9.48,5.79,1.51,5.79,4.53,0,3.34-2.48,4.85-6.39,4.85S510.58,41,510.47,37.82Z" fill="#fff"/><path d="M108,63.42v-.21c0-4.53,3.37-7.39,7.74-7.39s7.68,2.78,7.68,7.25v.22c0,4.58-3.37,7.33-7.71,7.33S108,68,108,63.42Zm10.51-.08v-.22c0-2.37-.94-3.69-2.77-3.69s-2.8,1.27-2.8,3.64v.22c0,2.42.94,3.74,2.8,3.74S118.51,65.68,118.51,63.34Z" fill="#fff"/><path d="M125.14,65.39V56.2H130v8.41c0,1.59.62,2.37,2,2.37s2.4-.86,2.4-2.67V56.2h4.82V70.29h-4.82V68.11a4.62,4.62,0,0,1-4.47,2.51C127.17,70.62,125.14,69,125.14,65.39Z" fill="#fff"/><path d="M142.42,65.77V59.49h-1.7V56.2h1.7V53.26h4.82V56.2H150v3.29h-2.78v5.82a1.29,1.29,0,0,0,1.43,1.48,3.68,3.68,0,0,0,1.37-.24v3.66a10.1,10.1,0,0,1-2.66.41C144.2,70.62,142.42,69.08,142.42,65.77Z" fill="#fff"/><path d="M157.75,59.49H156V56.2h1.78V55c0-3.5,2.19-5.17,5.53-5.17a8.71,8.71,0,0,1,2.21.29v3.53a4.4,4.4,0,0,0-1.32-.19A1.42,1.42,0,0,0,162.55,55V56.2h2.86v3.29h-2.86v10.8h-4.8Z" fill="#fff"/><path d="M167.16,56.2H172V59a4.44,4.44,0,0,1,4.56-3v4.5c-2.94-.08-4.56.84-4.56,3.1v6.68h-4.82Z" fill="#fff"/><path d="M177.53,63.42v-.21c0-4.53,3.37-7.39,7.74-7.39S193,58.6,193,63.07v.22c0,4.58-3.37,7.33-7.71,7.33S177.53,68,177.53,63.42ZM188,63.34v-.22c0-2.37-.94-3.69-2.77-3.69s-2.8,1.27-2.8,3.64v.22c0,2.42.94,3.74,2.8,3.74S188,65.68,188,63.34Z" fill="#fff"/><path d="M194.78,56.2h4.83v2.16A4.91,4.91,0,0,1,204,55.82a3.84,3.84,0,0,1,3.83,2.35,5.57,5.57,0,0,1,4.66-2.35c2.67,0,4.61,1.73,4.61,5.26v9.21H212.3v-8.4c0-1.43-.7-2.13-1.81-2.13a2.08,2.08,0,0,0-2.15,2.37v8.16h-4.77v-8.4c0-1.43-.7-2.13-1.81-2.13a2.08,2.08,0,0,0-2.15,2.37v8.16h-4.83Z" fill="#fff"/><path d="M225.29,65.77V59.49h-1.7V56.2h1.7V53.26h4.82V56.2h2.78v3.29h-2.78v5.82a1.29,1.29,0,0,0,1.43,1.48,3.68,3.68,0,0,0,1.37-.24v3.66a10.1,10.1,0,0,1-2.66.41C227.07,70.62,225.29,69.08,225.29,65.77Z" fill="#fff"/><path d="M234.86,50h4.82v8.46a5,5,0,0,1,4.63-2.64c2.73,0,4.61,1.7,4.61,5.31v9.16H244.1V62.1c0-1.59-.62-2.37-2-2.37s-2.4.86-2.4,2.67v7.89h-4.82Z" fill="#fff"/><path d="M250.65,63.42v-.21c0-4.53,3.37-7.39,7.62-7.39,3.86,0,7.17,2.21,7.17,7.28v1.26h-9.91a2.81,2.81,0,0,0,2.93,2.94c1.59,0,2.27-.73,2.46-1.67h4.52c-.43,3.18-2.88,5-7.14,5C253.88,70.62,250.65,68,250.65,63.42Zm10.1-1.78c-.08-1.69-.91-2.64-2.48-2.64a2.68,2.68,0,0,0-2.69,2.64Z" fill="#fff"/><path d="M271.53,63.42v-.21c0-4.69,3.37-7.39,7.52-7.39,3.45,0,6.63,1.51,6.9,5.8h-4.53a2.08,2.08,0,0,0-2.26-2c-1.7,0-2.69,1.21-2.69,3.58v.22c0,2.45.94,3.72,2.77,3.72a2.35,2.35,0,0,0,2.45-2.35H286c-.13,3.56-2.53,5.88-7.08,5.88C274.74,70.62,271.53,68.16,271.53,63.42Z" fill="#fff"/><path d="M287.73,56.2h4.83V59a4.43,4.43,0,0,1,4.55-3v4.5c-2.94-.08-4.55.84-4.55,3.1v6.68h-4.83Z" fill="#fff"/><path d="M298.11,63.42v-.21c0-4.53,3.37-7.39,7.73-7.39s7.68,2.78,7.68,7.25v.22c0,4.58-3.37,7.33-7.71,7.33S298.11,68,298.11,63.42Zm10.51-.08v-.22c0-2.37-.95-3.69-2.78-3.69S303,60.7,303,63.07v.22c0,2.42.94,3.74,2.8,3.74S308.62,65.68,308.62,63.34Z" fill="#fff"/><path d="M313.71,56.2h5l2.05,8.43,2.37-8.43h3.88l2.1,8.43,2.29-8.43H336l-4.47,14.09h-4.61l-2.1-7.87-2.18,7.87H318Z" fill="#fff"/><path d="M336.35,63.39v-.21c0-4.8,2.64-7.36,6-7.36a4.59,4.59,0,0,1,4.34,2.37V50h4.82V70.29h-4.82V68a4.74,4.74,0,0,1-4.39,2.62C339,70.62,336.35,68.27,336.35,63.39Zm10.46-.08V63.1c0-2.37-1-3.64-2.78-3.64s-2.78,1.21-2.78,3.66v.22c0,2.37,1.05,3.58,2.73,3.58S346.81,65.71,346.81,63.31Z" fill="#fff"/><path d="M353.89,67.87a2.69,2.69,0,0,1,2.75-2.72,2.72,2.72,0,1,1,0,5.44A2.69,2.69,0,0,1,353.89,67.87Z" fill="#fff"/><path d="M356.86,51h4.53l-.57,7.41H357.4Zm5.71,0h4.56l-.57,7.41h-3.42Z" fill="#fff"/><path d="M469,76.73h5.59v1.06H469Z" fill="#fff"/><path d="M478.86,71.77h2l3.81,6.56V71.77h1.54v9.07h-1.75l-4.08-7v7h-1.54Z" fill="#fff"/><path d="M487.51,77.59v-.1a3.23,3.23,0,0,1,3.3-3.42,3,3,0,0,1,3.13,3.34v.45h-4.86c.05,1.25.69,2,1.83,2,.92,0,1.41-.36,1.52-1h1.48c-.21,1.39-1.34,2.15-3,2.15A3.18,3.18,0,0,1,487.51,77.59Zm4.91-.76c-.08-1.14-.66-1.65-1.61-1.65a1.7,1.7,0,0,0-1.7,1.65Z" fill="#fff"/><path d="M495.12,74.21h1.53v1.24a2.22,2.22,0,0,1,2.16-1.35v1.44c-1.35,0-2.16.44-2.16,1.85v3.45h-1.53Z" fill="#fff"/><path d="M499.38,77.63v-.1c0-2.12,1.26-3.46,3-3.46a2.27,2.27,0,0,1,2.12,1.15V71.14H506v9.7h-1.53V79.72A2.55,2.55,0,0,1,502.3,81C500.64,81,499.38,79.79,499.38,77.63Zm5.15-.08v-.1c0-1.46-.67-2.18-1.79-2.18s-1.79.79-1.79,2.22v.1c0,1.46.74,2.16,1.73,2.16S504.53,79,504.53,77.55Z" fill="#fff"/><path d="M507.07,71.77h1.72l1.57,6.66,1.76-6.66h1.4l1.8,6.7,1.62-6.7h1.58l-2.27,9.07h-1.69l-1.79-6.61-1.84,6.61h-1.61Z" fill="#fff"/><path d="M518.64,79c0-1.55,1.5-2.11,3.4-2.11h.83v-.34c0-.89-.31-1.33-1.21-1.33a1.11,1.11,0,0,0-1.27,1h-1.48c.13-1.55,1.36-2.19,2.84-2.19s2.65.61,2.65,2.42v4.35h-1.51V80a2.3,2.3,0,0,1-2,.93C519.65,81,518.64,80.38,518.64,79Zm4.23-.48v-.66h-.79c-1.17,0-1.91.26-1.91,1.08,0,.55.3.92,1.06.92C522.17,79.86,522.87,79.37,522.87,78.52Z" fill="#fff"/><path d="M526,71.14h1.54v9.7H526Z" fill="#fff"/><path d="M529.26,71.14h1.53v9.7h-1.53Z" fill="#fff"/><path d="M532,77.59v-.1a3.23,3.23,0,0,1,3.3-3.42,3,3,0,0,1,3.13,3.34v.45H533.6c0,1.25.68,2,1.82,2,.93,0,1.41-.36,1.52-1h1.49c-.22,1.39-1.35,2.15-3,2.15A3.18,3.18,0,0,1,532,77.59Zm4.91-.76c-.07-1.14-.66-1.65-1.61-1.65a1.7,1.7,0,0,0-1.7,1.65Z" fill="#fff"/><path d="M539.89,79V75.36H539V74.21h.89V72.75h1.53v1.46h1.46v1.15h-1.46v3.49c0,.58.28.85.76.85a1.87,1.87,0,0,0,.75-.13v1.22a2.93,2.93,0,0,1-1,.16A1.78,1.78,0,0,1,539.89,79Z" fill="#fff"/></g></svg>