<svg xmlns="http://www.w3.org/2000/svg" viewBox="0 0 136.95 31.33"><title>cta</title><g id="Layer_2" data-name="Layer 2"><g id="CTA"><g id="Rectangle_1" data-name="Rectangle 1"><rect width="136.95" height="31.33" fill="none"/></g><g id="Download_the_app" data-name="Download the app"><path d="M9,9.43h3.36c3.59,0,5.37,2,5.37,5v.12c0,3.06-1.79,5.11-5.39,5.11H9Zm3.27,8.44c2.06,0,3-1.16,3-3.28v-.12c0-2.1-.9-3.24-3.07-3.24h-.91v6.64Z" fill="#262626"/><path d="M18.5,16v-.12a3.76,3.76,0,0,1,4-3.88,3.72,3.72,0,0,1,3.94,3.84V16a3.74,3.74,0,0,1-4,3.87A3.72,3.72,0,0,1,18.5,16Zm5.79,0v-.1c0-1.44-.67-2.3-1.83-2.3s-1.84.83-1.84,2.27V16c0,1.43.66,2.29,1.84,2.29S24.29,17.39,24.29,16Z" fill="#262626"/><path d="M26.68,12.18h2.18l1.33,5,1.45-5h1.7l1.32,5,1.42-5h2l-2.36,7.49h-2L32.4,15,31,19.67H29Z" fill="#262626"/><path d="M39,12.18h2.08v1.19A2.57,2.57,0,0,1,43.49,12C45,12,46,12.9,46,14.9v4.77H43.94V15.2c0-1-.4-1.5-1.32-1.5a1.48,1.48,0,0,0-1.56,1.65v4.32H39Z" fill="#262626"/><path d="M47.63,8.78h2.06V19.67H47.63Z" fill="#262626"/><path d="M50.91,16v-.12a3.95,3.95,0,0,1,7.89,0V16a3.95,3.95,0,0,1-7.89.05Zm5.79,0v-.1c0-1.44-.68-2.3-1.84-2.3S53,14.41,53,15.85V16c0,1.43.66,2.29,1.83,2.29S56.7,17.39,56.7,16Z" fill="#262626"/><path d="M59.49,17.6c0-1.75,1.6-2.41,3.89-2.41h.85v-.3c0-.89-.27-1.38-1.22-1.38a1.13,1.13,0,0,0-1.27,1.06h-2C59.9,12.8,61.31,12,63.14,12s3.14.74,3.14,2.78v4.88h-2v-.9A2.55,2.55,0,0,1,62,19.83C60.63,19.83,59.49,19.17,59.49,17.6Zm4.74-.55v-.63h-.8c-1.21,0-1.91.26-1.91,1.06,0,.55.33.9,1.09.9C63.53,18.38,64.23,17.88,64.23,17.05Z" fill="#262626"/><path d="M67.39,16v-.11c0-2.47,1.42-3.91,3.3-3.91a2.49,2.49,0,0,1,2.36,1.29V8.78h2.07V19.67H73.05V18.43a2.71,2.71,0,0,1-2.4,1.4C68.83,19.83,67.39,18.53,67.39,16ZM73.11,16v-.11c0-1.49-.66-2.25-1.79-2.25s-1.81.79-1.81,2.28V16c0,1.49.72,2.22,1.75,2.22S73.11,17.48,73.11,16Z" fill="#262626"/><path d="M80,17.45V13.66h-1V12.18h1V10.56h2.07v1.62h1.57v1.48H82.09v3.61c0,.6.3.88.83.88a2,2,0,0,0,.79-.14v1.61a3.84,3.84,0,0,1-1.26.2A2.15,2.15,0,0,1,80,17.45Z" fill="#262626"/><path d="M84.89,8.78H87v4.59A2.58,2.58,0,0,1,89.41,12c1.47,0,2.52.89,2.52,2.89v4.77H89.85V15.2c0-1-.4-1.5-1.32-1.5A1.48,1.48,0,0,0,87,15.35v4.32H84.89Z" fill="#262626"/><path d="M93,16V15.9A3.71,3.71,0,0,1,96.88,12a3.46,3.46,0,0,1,3.66,3.81v.57H95.13a1.79,1.79,0,0,0,1.87,2c1,0,1.43-.41,1.56-1h2c-.24,1.62-1.53,2.52-3.58,2.52A3.63,3.63,0,0,1,93,16Zm5.48-.9c-.07-1.14-.64-1.68-1.63-1.68a1.73,1.73,0,0,0-1.72,1.68Z" fill="#262626"/><path d="M104.15,17.6c0-1.75,1.61-2.41,3.9-2.41h.85v-.3c0-.89-.27-1.38-1.22-1.38a1.14,1.14,0,0,0-1.28,1.06h-2C104.57,12.8,106,12,107.81,12s3.14.74,3.14,2.78v4.88h-2v-.9a2.56,2.56,0,0,1-2.27,1.06C105.3,19.83,104.15,19.17,104.15,17.6Zm4.75-.55v-.63h-.81c-1.2,0-1.9.26-1.9,1.06,0,.55.33.9,1.09.9C108.2,18.38,108.9,17.88,108.9,17.05Z" fill="#262626"/><path d="M112.5,12.18h2.08v1.17A2.8,2.8,0,0,1,117,12c1.84,0,3.27,1.36,3.27,3.84V16c0,2.48-1.4,3.87-3.27,3.87a2.62,2.62,0,0,1-2.39-1.3v3.69H112.5Zm5.63,3.8v-.12c0-1.52-.74-2.26-1.79-2.26s-1.83.76-1.83,2.26V16c0,1.5.72,2.23,1.85,2.23S118.13,17.44,118.13,16Z" fill="#262626"/><path d="M121.41,12.18h2.08v1.17A2.78,2.78,0,0,1,125.88,12c1.84,0,3.27,1.36,3.27,3.84V16c0,2.48-1.41,3.87-3.27,3.87a2.62,2.62,0,0,1-2.39-1.3v3.69h-2.08ZM127,16v-.12c0-1.52-.74-2.26-1.79-2.26s-1.83.76-1.83,2.26V16c0,1.5.71,2.23,1.85,2.23S127,17.44,127,16Z" fill="#262626"/></g></g></g></svg>