<svg xmlns="http://www.w3.org/2000/svg" viewBox="0 0 320 480"><title>txt</title><g id="Layer_2" data-name="Layer 2"><g id="Tax_prep_at_your_fingertips." data-name="Tax prep at your fingertips."><g id="Tax_prep_at_your_fingertips.-2" data-name="Tax prep at your fingertips."><path d="M30.77,109.13H20.25v-9H53v9H42.48V140.8H30.77Z" fill="#fff"/><path d="M51,132.56c0-7,5.91-9.73,15.8-9.73h2.84v-.68c0-2.84-.68-4.72-3.92-4.72a3.65,3.65,0,0,0-4,3.53H52.09c.45-7.17,6.08-10.69,14.21-10.69s13.41,3.35,13.41,11.26V140.8H69.82v-3.46c-1.42,2.16-4,4.15-8.81,4.15C55.67,141.49,51,138.87,51,132.56Zm18.64-2.16v-1.82H66.92c-4.09,0-5.91.79-5.91,3.24,0,1.71,1.14,2.79,3.52,2.79C67.43,134.61,69.59,133,69.59,130.4Z" fill="#fff"/><path d="M92.16,125.68,82.9,111.06H94.6l4.61,7.85,4.49-7.85h10.46l-9.38,13.82,10.29,15.92H103.36l-5.29-8.87-5.4,8.87H82.27Z" fill="#fff"/><path d="M128.26,111.06h10.17v4.44a10.46,10.46,0,0,1,9.26-5.23c6.94,0,12.57,5.23,12.57,15.41v.45c0,10.24-5.63,15.36-12.62,15.36-4.49,0-7.73-2.11-9.21-5.06v14.33H128.26Zm21.65,15.07v-.45c0-5.23-2.27-7.74-5.85-7.74s-5.91,2.68-5.91,7.68v.46c0,5.06,2.21,7.62,5.91,7.62S149.91,131,149.91,126.13Z" fill="#fff"/><path d="M164,111.06h10.18V117c1.87-4.44,5-6.37,9.6-6.32v9.5c-6.19-.17-9.6,1.76-9.6,6.54v14.1H164Z" fill="#fff"/><path d="M185.55,126.3v-.45c0-9.56,7.11-15.58,16.09-15.58,8.13,0,15.12,4.66,15.12,15.35v2.67H195.84c.29,3.93,2.56,6.2,6.2,6.2,3.35,0,4.77-1.53,5.17-3.52h9.55c-.91,6.71-6.08,10.52-15.06,10.52C192.37,141.49,185.55,136,185.55,126.3Zm21.32-3.75c-.17-3.58-1.93-5.57-5.23-5.57-3.07,0-5.17,2-5.68,5.57Z" fill="#fff"/><path d="M220.29,111.06h10.17v4.44a10.46,10.46,0,0,1,9.26-5.23c6.94,0,12.57,5.23,12.57,15.41v.45c0,10.24-5.63,15.36-12.62,15.36-4.49,0-7.73-2.11-9.21-5.06v14.33H220.29Zm21.65,15.07v-.45c0-5.23-2.27-7.74-5.85-7.74s-5.92,2.68-5.92,7.68v.46c0,5.06,2.22,7.62,5.92,7.62S241.94,131,241.94,126.13Z" fill="#fff"/><path d="M20.37,190.3c0-7,5.91-9.72,15.8-9.72H39v-.68c0-2.85-.68-4.73-3.92-4.73a3.66,3.66,0,0,0-4,3.53H21.5C22,171.54,27.59,168,35.71,168s13.42,3.35,13.42,11.26v19.28H39.24v-3.47c-1.42,2.16-4,4.15-8.81,4.15C25.08,199.23,20.37,196.61,20.37,190.3ZM39,188.14v-1.82H36.34c-4.09,0-5.91.8-5.91,3.24,0,1.71,1.13,2.79,3.52,2.79C36.85,192.35,39,190.7,39,188.14Z" fill="#fff"/><path d="M55.27,189V175.74H51.69v-6.93h3.58v-6.2H65.44v6.2H71.3v6.93H65.44V188c0,2.16,1.08,3.13,3,3.13a7.75,7.75,0,0,0,2.89-.52v7.74a21.35,21.35,0,0,1-5.62.85C59,199.23,55.27,196,55.27,189Z" fill="#fff"/><path d="M94.83,195.53,83,168.81H94l6.14,15.86,5.68-15.86h9.72L99.6,208.5H89.89Z" fill="#fff"/><path d="M115,184.05v-.46C115,174,122.06,168,131.27,168s16.2,5.86,16.2,15.3v.45c0,9.67-7.11,15.47-16.26,15.47S115,193.66,115,184.05Zm22.17-.17v-.46c0-5-2-7.79-5.85-7.79s-5.92,2.67-5.92,7.68v.45c0,5.12,2,7.91,5.92,7.91S137.12,188.82,137.12,183.88Z" fill="#fff"/><path d="M150.82,188.2V168.81H161v17.74c0,3.35,1.3,5,4.2,5,3.07,0,5.06-1.82,5.06-5.63V168.81h10.17v29.74H170.26v-4.61c-1.59,3.07-4.49,5.29-9.43,5.29C155.08,199.23,150.82,195.71,150.82,188.2Z" fill="#fff"/><path d="M185.61,168.81h10.17v5.91c1.88-4.44,5-6.37,9.61-6.31v9.49c-6.2-.17-9.61,1.77-9.61,6.54v14.11H185.61Z" fill="#fff"/><path d="M23.61,233.49H19.86v-6.94h3.75v-2.62c0-7.39,4.6-10.92,11.65-10.92a18.17,18.17,0,0,1,4.66.63v7.45a9.28,9.28,0,0,0-2.79-.4c-2.38,0-3.41,1.31-3.41,3.24v2.62h6v6.94h-6v22.8H23.61Z" fill="#fff"/><path d="M42.93,218.47a5.31,5.31,0,0,1,5.57-5.28,5.27,5.27,0,1,1,0,10.52A5.27,5.27,0,0,1,42.93,218.47Zm.51,8.08H53.62v29.74H43.44Z" fill="#fff"/><path d="M59.08,226.55H69.25v4.78A10.5,10.5,0,0,1,79,225.75c5.74,0,9.72,3.59,9.72,11.21v19.33H78.57V239c0-3.35-1.3-5-4.26-5s-5.06,1.82-5.06,5.63v16.66H59.08Z" fill="#fff"/><path d="M92.05,256.29h10.11c.46,2.16,1.77,3.87,5.46,3.87,4.49,0,6.31-2.56,6.31-6.26v-4.55a10.43,10.43,0,0,1-9.21,5.46c-6.93,0-12.62-5.11-12.62-14.27v-.46c0-8.75,5.63-14.33,12.62-14.33,4.72,0,7.5,2,9.21,5v-4.21H124.1v27.24c0,8.87-5.85,13.53-16.48,13.53C97.5,267.32,92.84,263.06,92.05,256.29Zm22.16-15.81v-.4c0-4.09-2.1-6.71-5.85-6.71s-5.86,2.68-5.86,6.77v.46c0,4.09,2.16,6.71,5.8,6.71S114.21,244.69,114.21,240.48Z" fill="#fff"/><path d="M127.69,241.79v-.46c0-9.55,7.1-15.58,16.08-15.58,8.13,0,15.12,4.67,15.12,15.36v2.67H138c.29,3.93,2.56,6.2,6.2,6.2,3.35,0,4.77-1.54,5.17-3.53h9.55C158,253.16,152.81,257,143.83,257,134.51,257,127.69,251.51,127.69,241.79ZM149,238c-.17-3.59-1.93-5.58-5.23-5.58-3.07,0-5.17,2-5.68,5.58Z" fill="#fff"/><path d="M162.42,226.55h10.17v5.91c1.88-4.43,5-6.37,9.61-6.31v9.5c-6.2-.17-9.61,1.76-9.61,6.54v14.1H162.42Z" fill="#fff"/><path d="M187.71,246.74V233.49h-3.58v-6.94h3.58v-6.2h10.18v6.2h5.85v6.94h-5.85v12.28c0,2.16,1.08,3.13,3,3.13a7.77,7.77,0,0,0,2.9-.51v7.73a21.43,21.43,0,0,1-5.63.85C191.46,257,187.71,253.73,187.71,246.74Z" fill="#fff"/><path d="M207.38,218.47a5.61,5.61,0,1,1,5.57,5.24A5.31,5.31,0,0,1,207.38,218.47Zm.51,8.08h10.18v29.74H207.89Z" fill="#fff"/><path d="M223.52,226.55H233.7V231a10.48,10.48,0,0,1,9.26-5.23c6.94,0,12.56,5.23,12.56,15.42v.45c0,10.24-5.62,15.35-12.61,15.35-4.49,0-7.73-2.1-9.21-5.06v14.33H223.52Zm21.66,15.07v-.45c0-5.24-2.27-7.74-5.85-7.74s-5.92,2.67-5.92,7.68v.45c0,5.06,2.22,7.62,5.92,7.62S245.18,246.51,245.18,241.62Z" fill="#fff"/><path d="M257.4,246.85h9.38c.34,2.16,1.31,3.36,4.21,3.36,2.5,0,3.63-1,3.63-2.45s-1.42-2.1-5.51-2.67c-8-1-11.31-3.36-11.31-9.56,0-6.59,5.85-9.78,12.73-9.78,7.33,0,12.45,2.51,13.13,9.61h-9.21c-.39-2-1.47-3-3.8-3s-3.36,1-3.36,2.33,1.37,2,5,2.44c8.25,1,12.22,3.19,12.22,9.56,0,7-5.22,10.23-13.47,10.23C262.57,257,257.63,253.45,257.4,246.85Z" fill="#fff"/><path d="M287.42,251.17a5.66,5.66,0,0,1,5.79-5.74,5.75,5.75,0,1,1,0,11.49A5.67,5.67,0,0,1,287.42,251.17Z" fill="#fff"/><rect width="320" height="480" fill="none"/></g></g></g></svg>