<svg xmlns="http://www.w3.org/2000/svg" viewBox="0 0 301 251"><title>Asset 6</title><g id="Layer_2" data-name="Layer 2"><g id="Rect"><rect x="0.5" y="0.5" width="300" height="250" fill="none" stroke="#000" stroke-miterlimit="10"/></g><g id="No_charges._No_worries._Audit_Assistance_now_free." data-name="No charges. No worries. Audit Assistance now free."><path d="M22.73,22.72h7.45l7.38,13v-13h5.78V45.78H37L28.53,31.3V45.78h-5.8Z" fill="#fff"/><path d="M45.66,37.56V37.3c0-5.42,4-8.84,9.25-8.84s9.2,3.32,9.2,8.68v.26c0,5.48-4,8.77-9.23,8.77S45.66,43,45.66,37.56Zm12.58-.1V37.2c0-2.84-1.13-4.42-3.33-4.42s-3.35,1.52-3.35,4.36v.26c0,2.9,1.13,4.48,3.35,4.48S58.24,40.27,58.24,37.46Z" fill="#fff"/><path d="M71.1,37.56V37.3c0-5.61,4-8.84,9-8.84,4.13,0,7.94,1.81,8.26,6.94H82.94c-.26-1.58-1-2.45-2.71-2.45C78.2,33,77,34.4,77,37.24v.25C77,40.43,78.13,42,80.33,42a2.81,2.81,0,0,0,2.93-2.81h5.19c-.16,4.26-3,7-8.48,7C74.94,46.17,71.1,43.24,71.1,37.56Z" fill="#fff"/><path d="M90.32,21.49H96.1V31.62a6,6,0,0,1,5.54-3.16c3.26,0,5.52,2,5.52,6.36v11h-5.77V36c0-1.91-.75-2.84-2.42-2.84s-2.87,1-2.87,3.19v9.45H90.32Z" fill="#fff"/><path d="M109,41.11c0-4,3.36-5.52,9-5.52h1.61V35.2c0-1.61-.38-2.67-2.22-2.67a2.07,2.07,0,0,0-2.29,2h-5.42c.26-4.07,3.45-6.07,8.06-6.07s7.62,1.91,7.62,6.39V45.78H119.7v-2a5.54,5.54,0,0,1-5,2.35C111.67,46.17,109,44.69,109,41.11Zm10.58-1.23v-1h-1.51c-2.33,0-3.36.45-3.36,1.84,0,1,.65,1.58,2,1.58C118.35,42.27,119.57,41.33,119.57,39.88Z" fill="#fff"/><path d="M128.12,28.91h5.77v3.36a5.32,5.32,0,0,1,5.45-3.58v5.38c-3.51-.09-5.45,1-5.45,3.71v8h-5.77Z" fill="#fff"/><path d="M140.34,45.78h5.74c.26,1.23,1,2.2,3.1,2.2,2.55,0,3.58-1.45,3.58-3.55V41.85a5.93,5.93,0,0,1-5.23,3.1c-3.93,0-7.16-2.91-7.16-8.1v-.26c0-5,3.2-8.13,7.16-8.13a5.49,5.49,0,0,1,5.23,2.84V28.91h5.77V44.36c0,5-3.32,7.68-9.35,7.68C143.44,52,140.79,49.62,140.34,45.78Zm12.58-9v-.23c0-2.32-1.19-3.81-3.32-3.81s-3.32,1.52-3.32,3.84v.26c0,2.32,1.22,3.81,3.29,3.81S152.92,39.2,152.92,36.82Z" fill="#fff"/><path d="M160.56,37.56V37.3c0-5.42,4-8.84,9.13-8.84,4.61,0,8.58,2.65,8.58,8.71v1.52H166.4c.16,2.22,1.45,3.51,3.52,3.51,1.9,0,2.7-.87,2.93-2h5.42c-.52,3.81-3.45,6-8.55,6C164.43,46.17,160.56,43.07,160.56,37.56Zm12.1-2.13c-.1-2-1.1-3.16-3-3.16s-2.94,1.13-3.23,3.16Z" fill="#fff"/><path d="M179.3,40.43h5.32c.19,1.23.74,1.9,2.39,1.9,1.42,0,2.06-.55,2.06-1.38s-.81-1.2-3.13-1.52c-4.51-.58-6.42-1.9-6.42-5.42,0-3.74,3.33-5.55,7.23-5.55,4.16,0,7.06,1.42,7.45,5.45H189a1.87,1.87,0,0,0-2.16-1.67c-1.26,0-1.9.54-1.9,1.32s.77,1.13,2.84,1.39c4.68.58,6.93,1.8,6.93,5.41,0,4-3,5.81-7.64,5.81S179.43,44.17,179.3,40.43Z" fill="#fff"/><path d="M196.33,42.88a3.21,3.21,0,0,1,3.29-3.26,3.26,3.26,0,1,1,0,6.52A3.21,3.21,0,0,1,196.33,42.88Z" fill="#fff"/><path d="M22.73,57h7.45l7.38,13V57h5.78V80H37L28.53,65.55V80h-5.8Z" fill="#fff"/><path d="M45.66,71.81v-.26c0-5.42,4-8.84,9.25-8.84s9.2,3.32,9.2,8.68v.26c0,5.48-4,8.77-9.23,8.77S45.66,77.26,45.66,71.81Zm12.58-.1v-.26c0-2.84-1.13-4.42-3.33-4.42s-3.35,1.52-3.35,4.36v.26c0,2.9,1.13,4.48,3.35,4.48S58.24,74.52,58.24,71.71Z" fill="#fff"/><path d="M70.58,63.16h6l2.45,10.1,2.84-10.1h4.64l2.52,10.1,2.74-10.1h5.48L91.94,80H86.42l-2.51-9.42L81.29,80H75.68Z" fill="#fff"/><path d="M97.13,71.81v-.26c0-5.42,4-8.84,9.25-8.84s9.2,3.32,9.2,8.68v.26c0,5.48-4,8.77-9.23,8.77S97.13,77.26,97.13,71.81Zm12.58-.1v-.26c0-2.84-1.13-4.42-3.33-4.42S103,68.55,103,71.39v.26c0,2.9,1.13,4.48,3.35,4.48S109.71,74.52,109.71,71.71Z" fill="#fff"/><path d="M117.6,63.16h5.78v3.36a5.31,5.31,0,0,1,5.45-3.58v5.38c-3.52-.09-5.45,1-5.45,3.71v8H117.6Z" fill="#fff"/><path d="M130.92,63.16h5.78v3.36a5.31,5.31,0,0,1,5.45-3.58v5.38c-3.52-.09-5.45,1-5.45,3.71v8h-5.78Z" fill="#fff"/><path d="M144.11,58.58a3.19,3.19,0,1,1,3.16,3A3,3,0,0,1,144.11,58.58Zm.29,4.58h5.78V80H144.4Z" fill="#fff"/><path d="M152.37,71.81v-.26c0-5.42,4-8.84,9.13-8.84,4.61,0,8.58,2.65,8.58,8.71v1.52H158.21c.16,2.22,1.45,3.51,3.51,3.51,1.91,0,2.71-.87,2.94-2h5.42c-.52,3.81-3.45,6-8.55,6C156.24,80.42,152.37,77.32,152.37,71.81Zm12.1-2.13c-.1-2-1.1-3.16-3-3.16s-2.94,1.13-3.23,3.16Z" fill="#fff"/><path d="M171.11,74.68h5.32c.19,1.23.74,1.9,2.39,1.9,1.41,0,2.06-.55,2.06-1.38s-.81-1.2-3.13-1.52c-4.52-.58-6.42-1.9-6.42-5.42,0-3.74,3.32-5.55,7.23-5.55,4.16,0,7.06,1.42,7.45,5.45h-5.23a1.88,1.88,0,0,0-2.16-1.67c-1.26,0-1.9.54-1.9,1.32s.77,1.13,2.84,1.39c4.67.58,6.93,1.8,6.93,5.41,0,4-3,5.81-7.64,5.81S171.23,78.42,171.11,74.68Z" fill="#fff"/><path d="M188.13,77.13a3.22,3.22,0,0,1,3.29-3.26,3.26,3.26,0,1,1,0,6.52A3.22,3.22,0,0,1,188.13,77.13Z" fill="#fff"/><path d="M28.31,91.22h8.54l7.33,23.06h-7L36,110H28.31l-1.23,4.29H20.92Zm1.29,14.23h5.06l-2.51-8.88Z" fill="#fff"/><path d="M45.2,108.41v-11H51v10.07c0,1.9.74,2.84,2.38,2.84s2.88-1,2.88-3.2V97.41H62v16.87H56.24v-2.61a5.56,5.56,0,0,1-5.36,3C47.62,114.67,45.2,112.67,45.2,108.41Z" fill="#fff"/><path d="M64.1,106v-.26C64.1,100,67.26,97,71.26,97a5.48,5.48,0,0,1,5.2,2.84V90h5.77v24.29H76.46v-2.74a5.69,5.69,0,0,1-5.26,3.13C67.29,114.67,64.1,111.86,64.1,106Zm12.52-.1v-.26c0-2.84-1.2-4.35-3.33-4.35S70,102.77,70,105.7V106c0,2.84,1.26,4.29,3.26,4.29S76.62,108.8,76.62,105.93Z" fill="#fff"/><path d="M85,92.83a3.19,3.19,0,1,1,3.16,3A3,3,0,0,1,85,92.83Zm.29,4.58H91.1v16.87H85.32Z" fill="#fff"/><path d="M95,108.86v-7.51h-2V97.41h2V93.9h5.78v3.51h3.32v3.94h-3.32v7a1.54,1.54,0,0,0,1.71,1.77,4.44,4.44,0,0,0,1.64-.29v4.39a12.21,12.21,0,0,1-3.19.48C97.09,114.67,95,112.83,95,108.86Z" fill="#fff"/><path d="M118.22,91.22h8.55l7.32,23.06h-7L125.86,110h-7.64L117,114.28h-6.16Zm1.29,14.23h5.06l-2.51-8.88Z" fill="#fff"/><path d="M134.5,108.93h5.33c.19,1.23.74,1.9,2.38,1.9,1.42,0,2.07-.55,2.07-1.38s-.81-1.2-3.13-1.52c-4.52-.58-6.42-1.9-6.42-5.42,0-3.74,3.32-5.55,7.22-5.55,4.17,0,7.07,1.42,7.46,5.45h-5.23a1.88,1.88,0,0,0-2.16-1.67c-1.26,0-1.9.54-1.9,1.32s.77,1.13,2.83,1.39c4.68.58,6.94,1.8,6.94,5.41,0,4-3,5.81-7.65,5.81S134.63,112.67,134.5,108.93Z" fill="#fff"/><path d="M150.72,108.93h5.33c.19,1.23.74,1.9,2.38,1.9,1.42,0,2.07-.55,2.07-1.38s-.81-1.2-3.13-1.52c-4.52-.58-6.42-1.9-6.42-5.42,0-3.74,3.32-5.55,7.23-5.55,4.16,0,7.06,1.42,7.45,5.45H160.4a1.88,1.88,0,0,0-2.16-1.67c-1.26,0-1.9.54-1.9,1.32s.77,1.13,2.84,1.39c4.67.58,6.93,1.8,6.93,5.41,0,4-3,5.81-7.64,5.81S150.85,112.67,150.72,108.93Z" fill="#fff"/><path d="M167.85,92.83a3.18,3.18,0,1,1,3.16,3A3,3,0,0,1,167.85,92.83Zm.29,4.58h5.77v16.87h-5.77Z" fill="#fff"/><path d="M175.88,108.93h5.32c.19,1.23.74,1.9,2.39,1.9,1.42,0,2.06-.55,2.06-1.38s-.8-1.2-3.13-1.52c-4.51-.58-6.42-1.9-6.42-5.42,0-3.74,3.33-5.55,7.23-5.55,4.16,0,7.06,1.42,7.45,5.45h-5.22a1.89,1.89,0,0,0-2.17-1.67c-1.25,0-1.9.54-1.9,1.32s.78,1.13,2.84,1.39c4.68.58,6.94,1.8,6.94,5.41,0,4-3,5.81-7.65,5.81S176,112.67,175.88,108.93Z" fill="#fff"/><path d="M193.91,108.86v-7.51h-2V97.41h2V93.9h5.77v3.51H203v3.94h-3.32v7a1.54,1.54,0,0,0,1.71,1.77,4.49,4.49,0,0,0,1.65-.29v4.39a12.37,12.37,0,0,1-3.2.48C196,114.67,193.91,112.83,193.91,108.86Z" fill="#fff"/><path d="M204.29,109.61c0-4,3.36-5.52,9-5.52h1.61v-.39c0-1.61-.39-2.67-2.22-2.67a2.06,2.06,0,0,0-2.29,2h-5.42C205.19,99,208.39,97,213,97s7.61,1.91,7.61,6.39v10.93H215v-2a5.56,5.56,0,0,1-5,2.35C207,114.67,204.29,113.19,204.29,109.61Zm10.58-1.23v-1h-1.51c-2.33,0-3.36.45-3.36,1.84,0,1,.65,1.58,2,1.58C213.65,110.77,214.87,109.83,214.87,108.38Z" fill="#fff"/><path d="M223.42,97.41h5.77v2.71A6,6,0,0,1,234.74,97c3.26,0,5.51,2,5.51,6.36v11h-5.77v-9.8c0-1.91-.74-2.84-2.42-2.84s-2.87,1-2.87,3.19v9.45h-5.77Z" fill="#fff"/><path d="M242.15,106.06v-.26c0-5.61,4-8.84,9-8.84,4.13,0,7.94,1.81,8.26,6.94H254c-.26-1.58-1-2.45-2.71-2.45-2,0-3.23,1.45-3.23,4.29V106c0,2.94,1.13,4.46,3.33,4.46a2.81,2.81,0,0,0,2.93-2.81h5.2c-.17,4.26-3,7-8.49,7C246,114.67,242.15,111.74,242.15,106.06Z" fill="#fff"/><path d="M260.47,106.06v-.26c0-5.42,4-8.84,9.13-8.84,4.61,0,8.58,2.65,8.58,8.71v1.52H266.31c.16,2.22,1.45,3.51,3.51,3.51s2.71-.87,2.94-2h5.42c-.52,3.81-3.45,6-8.55,6C264.34,114.67,260.47,111.57,260.47,106.06Zm12.1-2.13c-.1-2-1.1-3.16-3-3.16s-2.94,1.13-3.23,3.16Z" fill="#fff"/><path d="M22.21,131.66H28v2.71a6,6,0,0,1,5.55-3.16c3.26,0,5.52,2,5.52,6.36v11H33.27v-9.8c0-1.91-.74-2.84-2.42-2.84s-2.87,1-2.87,3.19v9.45H22.21Z" fill="#fff"/><path d="M41,140.31v-.26c0-5.42,4-8.84,9.25-8.84s9.2,3.32,9.2,8.68v.26c0,5.48-4,8.77-9.23,8.77S41,145.76,41,140.31Zm12.58-.1V140c0-2.83-1.13-4.42-3.33-4.42s-3.35,1.52-3.35,4.36v.26c0,2.9,1.13,4.48,3.35,4.48S53.53,143,53.53,140.21Z" fill="#fff"/><path d="M59.46,131.66h6l2.45,10.1,2.84-10.1h4.64l2.52,10.1,2.74-10.1h5.49l-5.36,16.87H75.3l-2.52-9.41-2.61,9.41H64.55Z" fill="#fff"/><path d="M94.38,135.6H92.26v-3.94h2.12v-1.48C94.38,126,97,124,101,124a10.42,10.42,0,0,1,2.64.35v4.23a5.23,5.23,0,0,0-1.58-.23,1.69,1.69,0,0,0-1.93,1.84v1.48h3.42v3.94h-3.42v12.93H94.38Z" fill="#fff"/><path d="M105.48,131.66h5.77V135a5.32,5.32,0,0,1,5.45-3.58v5.38c-3.51-.09-5.45,1-5.45,3.71v8h-5.77Z" fill="#fff"/><path d="M117.73,140.31v-.26c0-5.42,4-8.84,9.13-8.84,4.61,0,8.58,2.65,8.58,8.71v1.52H123.57c.16,2.22,1.45,3.51,3.52,3.51,1.9,0,2.71-.87,2.93-2h5.42c-.51,3.81-3.45,6-8.55,6C121.6,148.92,117.73,145.82,117.73,140.31Zm12.1-2.13c-.1-2-1.1-3.16-3-3.16s-2.93,1.13-3.22,3.16Z" fill="#fff"/><path d="M136.53,140.31v-.26c0-5.42,4-8.84,9.13-8.84,4.62,0,8.58,2.65,8.58,8.71v1.52H142.37c.16,2.22,1.45,3.51,3.52,3.51,1.9,0,2.71-.87,2.93-2h5.42c-.51,3.81-3.45,6-8.55,6C140.4,148.92,136.53,145.82,136.53,140.31Zm12.1-2.13c-.1-2-1.1-3.16-3-3.16s-2.93,1.13-3.22,3.16Z" fill="#fff"/><path d="M155.85,145.63a3.22,3.22,0,0,1,3.29-3.26,3.26,3.26,0,1,1,0,6.52A3.22,3.22,0,0,1,155.85,145.63Z" fill="#fff"/></g></g></svg>