<svg xmlns="http://www.w3.org/2000/svg" viewBox="0 0 728 90"><title>H18 T3</title><g id="Layer_2" data-name="Layer 2"><g id="Rect"><rect width="728" height="90" fill="none"/></g><g id="H18"><g id="Easily_the_easiest_way_to_do_your_own_taxes." data-name="Easily the easiest way to do your own taxes."><path d="M122.28,17.7h16.35v5.23H129V27h7.64v4.83H129v4.3h10.12v5.23H122.28Z" fill="#fff"/><path d="M140.52,36.56c0-4.07,3.44-5.65,9.2-5.65h1.66v-.4c0-1.66-.4-2.75-2.29-2.75a2.13,2.13,0,0,0-2.35,2h-5.56c.27-4.17,3.55-6.22,8.28-6.22s7.81,1.95,7.81,6.55V41.36h-5.76v-2a5.7,5.7,0,0,1-5.13,2.41C143.27,41.76,140.52,40.24,140.52,36.56Zm10.86-1.25V34.25h-1.56c-2.38,0-3.44.46-3.44,1.88,0,1,.66,1.63,2.05,1.63C150.12,37.76,151.38,36.8,151.38,35.31Z" fill="#fff"/><path d="M159,35.87h5.46c.2,1.26.76,2,2.45,2,1.46,0,2.12-.56,2.12-1.42s-.83-1.23-3.21-1.56c-4.63-.59-6.59-2-6.59-5.56,0-3.84,3.41-5.69,7.42-5.69,4.27,0,7.24,1.46,7.64,5.59h-5.36a1.94,1.94,0,0,0-2.22-1.72c-1.29,0-1.95.57-1.95,1.36s.79,1.16,2.91,1.42c4.8.6,7.12,1.86,7.12,5.56,0,4.11-3.05,6-7.85,6S159.12,39.71,159,35.87Z" fill="#fff"/><path d="M176.57,19.35a3.09,3.09,0,0,1,3.24-3.07,3.07,3.07,0,1,1,0,6.12A3.07,3.07,0,0,1,176.57,19.35Zm.3,4.7h5.92V41.36h-5.92Z" fill="#fff"/><path d="M186.13,16.44H192V41.36h-5.89Z" fill="#fff"/><path d="M200.63,39.61l-6.92-15.56h6.42l3.58,9.24L207,24.05h5.66l-9.27,23.11h-5.66Z" fill="#fff"/><path d="M221,35.8V28.09h-2.09v-4H221v-3.6h5.92v3.6h3.41v4h-3.41v7.15a1.58,1.58,0,0,0,1.76,1.82,4.5,4.5,0,0,0,1.69-.3v4.5a12.44,12.44,0,0,1-3.28.5C223.2,41.76,221,39.87,221,35.8Z" fill="#fff"/><path d="M232.6,16.44h5.93V26.83a6.12,6.12,0,0,1,5.69-3.24c3.34,0,5.66,2.09,5.66,6.52V41.36H244V31.3c0-1.95-.76-2.91-2.49-2.91s-2.94,1.06-2.94,3.28v9.69H232.6Z" fill="#fff"/><path d="M251.84,32.92v-.26c0-5.56,4.13-9.07,9.36-9.07,4.73,0,8.8,2.72,8.8,8.94v1.55H257.83c.16,2.29,1.48,3.61,3.6,3.61,2,0,2.78-.89,3-2H270c-.52,3.9-3.54,6.12-8.77,6.12C255.81,41.76,251.84,38.58,251.84,32.92Zm12.41-2.18c-.1-2.09-1.13-3.24-3.05-3.24s-3,1.15-3.31,3.24Z" fill="#fff"/><path d="M277.16,32.92v-.26c0-5.56,4.13-9.07,9.36-9.07,4.74,0,8.81,2.72,8.81,8.94v1.55H283.15c.16,2.29,1.49,3.61,3.6,3.61,2,0,2.78-.89,3-2h5.56c-.53,3.9-3.55,6.12-8.77,6.12C281.13,41.76,277.16,38.58,277.16,32.92Zm12.41-2.18c-.1-2.09-1.13-3.24-3.05-3.24s-3,1.15-3.31,3.24Z" fill="#fff"/><path d="M296.55,36.56c0-4.07,3.44-5.65,9.2-5.65h1.66v-.4c0-1.66-.4-2.75-2.29-2.75a2.13,2.13,0,0,0-2.35,2h-5.56c.27-4.17,3.55-6.22,8.28-6.22s7.81,1.95,7.81,6.55V41.36h-5.76v-2a5.7,5.7,0,0,1-5.13,2.41C299.3,41.76,296.55,40.24,296.55,36.56Zm10.86-1.25V34.25h-1.56c-2.38,0-3.44.46-3.44,1.88,0,1,.66,1.63,2,1.63C306.15,37.76,307.41,36.8,307.41,35.31Z" fill="#fff"/><path d="M315,35.87h5.46c.2,1.26.76,2,2.45,2,1.46,0,2.12-.56,2.12-1.42s-.83-1.23-3.21-1.56c-4.63-.59-6.59-2-6.59-5.56,0-3.84,3.41-5.69,7.42-5.69,4.27,0,7.25,1.46,7.64,5.59H325a1.94,1.94,0,0,0-2.22-1.72c-1.29,0-2,.57-2,1.36s.79,1.16,2.91,1.42c4.8.6,7.12,1.86,7.12,5.56,0,4.11-3.05,6-7.85,6S315.15,39.71,315,35.87Z" fill="#fff"/><path d="M332.6,19.35a3.09,3.09,0,0,1,3.24-3.07,3.07,3.07,0,1,1,0,6.12A3.07,3.07,0,0,1,332.6,19.35Zm.3,4.7h5.92V41.36H332.9Z" fill="#fff"/><path d="M341.07,32.92v-.26c0-5.56,4.14-9.07,9.37-9.07,4.73,0,8.8,2.72,8.8,8.94v1.55H347.06c.17,2.29,1.49,3.61,3.61,3.61,1.95,0,2.78-.89,3-2h5.56c-.53,3.9-3.54,6.12-8.77,6.12C345,41.76,341.07,38.58,341.07,32.92Zm12.41-2.18c-.1-2.09-1.12-3.24-3-3.24s-3,1.15-3.31,3.24Z" fill="#fff"/><path d="M360.3,35.87h5.46c.2,1.26.76,2,2.45,2,1.46,0,2.12-.56,2.12-1.42s-.83-1.23-3.21-1.56c-4.63-.59-6.59-2-6.59-5.56,0-3.84,3.41-5.69,7.42-5.69,4.27,0,7.25,1.46,7.64,5.59h-5.36A1.94,1.94,0,0,0,368,27.46c-1.29,0-1.95.57-1.95,1.36s.79,1.16,2.91,1.42c4.8.6,7.12,1.86,7.12,5.56,0,4.11-3,6-7.84,6S360.43,39.71,360.3,35.87Z" fill="#fff"/><path d="M378.8,35.8V28.09h-2.08v-4h2.08v-3.6h5.93v3.6h3.41v4h-3.41v7.15c0,1.26.63,1.82,1.75,1.82a4.5,4.5,0,0,0,1.69-.3v4.5a12.37,12.37,0,0,1-3.28.5C381,41.76,378.8,39.87,378.8,35.8Z" fill="#fff"/><path d="M395,24.05h6.19l2.51,10.36,2.91-10.36h4.77l2.58,10.36,2.81-10.36h5.63l-5.49,17.31h-5.66l-2.58-9.66-2.69,9.66h-5.75Z" fill="#fff"/><path d="M422.23,36.56c0-4.07,3.44-5.65,9.2-5.65h1.66v-.4c0-1.66-.4-2.75-2.29-2.75a2.13,2.13,0,0,0-2.35,2h-5.56c.27-4.17,3.54-6.22,8.28-6.22S439,25.54,439,30.14V41.36h-5.76v-2a5.7,5.7,0,0,1-5.13,2.41C425,41.76,422.23,40.24,422.23,36.56Zm10.86-1.25V34.25h-1.56c-2.38,0-3.44.46-3.44,1.88,0,1,.66,1.63,2.05,1.63C431.83,37.76,433.09,36.8,433.09,35.31Z" fill="#fff"/><path d="M446.69,39.61l-6.92-15.56h6.42l3.58,9.24,3.31-9.24h5.66l-9.27,23.11h-5.66Z" fill="#fff"/><path d="M467.08,35.8V28.09H465v-4h2.08v-3.6H473v3.6h3.41v4H473v7.15a1.58,1.58,0,0,0,1.76,1.82,4.5,4.5,0,0,0,1.69-.3v4.5a12.37,12.37,0,0,1-3.28.5C469.26,41.76,467.08,39.87,467.08,35.8Z" fill="#fff"/><path d="M477.74,32.92v-.26c0-5.56,4.14-9.07,9.5-9.07s9.43,3.41,9.43,8.9v.27c0,5.63-4.14,9-9.47,9S477.74,38.52,477.74,32.92Zm12.91-.09v-.27c0-2.91-1.16-4.53-3.41-4.53s-3.45,1.55-3.45,4.46v.27c0,3,1.16,4.6,3.45,4.6S490.65,35.7,490.65,32.83Z" fill="#fff"/><path d="M503.92,32.89v-.26c0-5.89,3.24-9,7.35-9a5.63,5.63,0,0,1,5.33,2.91V16.44h5.92V41.36H516.6V38.55a5.83,5.83,0,0,1-5.4,3.21C507.2,41.76,503.92,38.88,503.92,32.89Zm12.84-.1v-.26c0-2.92-1.22-4.47-3.41-4.47s-3.41,1.49-3.41,4.5v.27c0,2.91,1.29,4.4,3.35,4.4S516.76,35.74,516.76,32.79Z" fill="#fff"/><path d="M524.61,32.92v-.26c0-5.56,4.14-9.07,9.5-9.07s9.43,3.41,9.43,8.9v.27c0,5.63-4.14,9-9.47,9S524.61,38.52,524.61,32.92Zm12.91-.09v-.27c0-2.91-1.16-4.53-3.41-4.53s-3.45,1.55-3.45,4.46v.27c0,3,1.16,4.6,3.45,4.6S537.52,35.7,537.52,32.83Z" fill="#fff"/><path d="M127.18,71.51,120.26,56h6.43l3.57,9.24L133.57,56h5.66L130,79.06H124.3Z" fill="#fff"/><path d="M138.9,64.82v-.26c0-5.56,4.14-9.07,9.5-9.07s9.43,3.41,9.43,8.9v.27c0,5.63-4.14,9-9.46,9S138.9,70.42,138.9,64.82Zm12.91-.1v-.26c0-2.91-1.16-4.53-3.41-4.53S145,61.48,145,64.39v.27c0,3,1.15,4.6,3.44,4.6S151.81,67.6,151.81,64.72Z" fill="#fff"/><path d="M159.79,67.24V56h5.92V66.28c0,2,.76,2.91,2.45,2.91s2.94-1.06,2.94-3.27V56H177V73.26H171.1V70.58a5.67,5.67,0,0,1-5.49,3.08C162.27,73.66,159.79,71.61,159.79,67.24Z" fill="#fff"/><path d="M180,56H186V59.4a5.46,5.46,0,0,1,5.59-3.68v5.53c-3.61-.1-5.59,1-5.59,3.81v8.2H180Z" fill="#fff"/><path d="M198.81,64.82v-.26c0-5.56,4.14-9.07,9.5-9.07s9.43,3.41,9.43,8.9v.27c0,5.63-4.14,9-9.47,9S198.81,70.42,198.81,64.82Zm12.91-.1v-.26c0-2.91-1.16-4.53-3.41-4.53s-3.44,1.55-3.44,4.46v.27c0,3,1.15,4.6,3.44,4.6S211.72,67.6,211.72,64.72Z" fill="#fff"/><path d="M217.81,56H224l2.51,10.36L229.43,56h4.76l2.58,10.36L239.59,56h5.62l-5.49,17.31h-5.66l-2.58-9.66-2.68,9.66H223Z" fill="#fff"/><path d="M246.74,56h5.92v2.78a6.13,6.13,0,0,1,5.69-3.24c3.35,0,5.66,2.09,5.66,6.52V73.26h-5.92V63.2c0-2-.76-2.91-2.48-2.91s-3,1.06-3,3.28v9.69h-5.92Z" fill="#fff"/><path d="M273.71,67.7V60h-2.08V56h2.08v-3.6h5.93V56h3.41v4h-3.41v7.15c0,1.26.63,1.82,1.75,1.82a4.5,4.5,0,0,0,1.69-.3v4.51a12.87,12.87,0,0,1-3.28.49C275.9,73.66,273.71,71.77,273.71,67.7Z" fill="#fff"/><path d="M284.37,68.46c0-4.07,3.44-5.65,9.2-5.65h1.66v-.4c0-1.66-.4-2.75-2.29-2.75a2.13,2.13,0,0,0-2.35,2.05H285c.27-4.17,3.54-6.22,8.28-6.22s7.81,1.95,7.81,6.55V73.26h-5.76v-2a5.7,5.7,0,0,1-5.13,2.41C287.12,73.66,284.37,72.14,284.37,68.46Zm10.86-1.25V66.15h-1.56c-2.38,0-3.44.46-3.44,1.89,0,1,.66,1.62,2,1.62C294,69.66,295.23,68.7,295.23,67.21Z" fill="#fff"/><path d="M308.37,64.46,303,56h6.82l2.68,4.57L315.09,56h6.09l-5.46,8,6,9.26h-6.82l-3.08-5.16-3.14,5.16h-6.06Z" fill="#fff"/><path d="M321,64.82v-.26c0-5.56,4.13-9.07,9.36-9.07,4.74,0,8.81,2.72,8.81,8.94V66H326.94c.16,2.29,1.49,3.61,3.6,3.61,2,0,2.78-.89,3-2h5.56c-.53,3.9-3.54,6.12-8.77,6.12C324.92,73.66,321,70.48,321,64.82Zm12.41-2.18c-.1-2.09-1.13-3.24-3.05-3.24s-3,1.15-3.31,3.24Z" fill="#fff"/><path d="M340.18,67.77h5.46c.2,1.26.76,2,2.45,2,1.45,0,2.12-.56,2.12-1.42s-.83-1.22-3.22-1.56c-4.63-.59-6.58-1.95-6.58-5.56,0-3.84,3.41-5.69,7.41-5.69,4.27,0,7.25,1.46,7.65,5.59h-5.36a1.94,1.94,0,0,0-2.22-1.72c-1.29,0-1.95.57-1.95,1.36s.79,1.16,2.91,1.42c4.8.6,7.11,1.86,7.11,5.56,0,4.11-3,6-7.84,6S340.31,71.61,340.18,67.77Z" fill="#fff"/><path d="M357.65,70.29A3.31,3.31,0,0,1,361,66.94a3.35,3.35,0,1,1,0,6.69A3.3,3.3,0,0,1,357.65,70.29Z" fill="#fff"/></g></g></g></svg>