<svg xmlns="http://www.w3.org/2000/svg" viewBox="0 0 728 90"><title>Asset 2</title><g id="Layer_2" data-name="Layer 2"><g id="rect"><rect width="728" height="90" fill="none"/></g><g id="Our_experts_will_get_you_the_biggest_refund_you_re_entitled_to" data-name="Our experts will get you the biggest refund you’re  entitled to"><path d="M112.94,23.38v-.15c0-4.24,3.18-7.08,7.34-7.08s7.37,2.67,7.37,7v.16c0,4.27-2.93,7.19-7.42,7.19S112.94,27.56,112.94,23.38Zm10.55,0v-.16c0-2.47-1.24-3.93-3.21-3.93s-3.18,1.42-3.18,3.95v.16c0,2.52,1.28,4,3.2,4S123.49,25.83,123.49,23.35Z" fill="#fff"/><path d="M128.92,26.71V20.08h3.48v6.07c0,1.14.45,1.71,1.44,1.71s1.73-.63,1.73-1.93V20.08h3.48V30.25h-3.48V28.67a3.35,3.35,0,0,1-3.23,1.81C130.38,30.48,128.92,29.27,128.92,26.71Z" fill="#fff"/><path d="M140.82,20.08h3.48v2a3.21,3.21,0,0,1,3.29-2.16v3.25c-2.12-.06-3.29.6-3.29,2.24v4.82h-3.48Z" fill="#fff"/><path d="M151.85,25.29v-.16a5.2,5.2,0,0,1,5.5-5.32c2.78,0,5.17,1.59,5.17,5.25V26h-7.16a2,2,0,0,0,2.12,2.12c1.15,0,1.64-.53,1.77-1.21h3.27c-.31,2.3-2.08,3.6-5.15,3.6S151.85,28.61,151.85,25.29ZM159.14,24c-.06-1.23-.66-1.91-1.79-1.91A1.94,1.94,0,0,0,155.4,24Z" fill="#fff"/><path d="M165.75,25.08l-3.17-5h4l1.58,2.68,1.54-2.68h3.57l-3.21,4.72,3.52,5.45h-4l-1.81-3-1.85,3h-3.55Z" fill="#fff"/><path d="M174.56,20.08H178V21.6a3.57,3.57,0,0,1,3.17-1.79c2.37,0,4.29,1.79,4.29,5.27v.15c0,3.5-1.92,5.25-4.31,5.25A3.35,3.35,0,0,1,178,28.75v4.9h-3.48ZM182,25.23v-.15c0-1.79-.78-2.65-2-2.65s-2,.92-2,2.63v.15c0,1.73.76,2.61,2,2.61S182,26.9,182,25.23Z" fill="#fff"/><path d="M186.23,25.29v-.16a5.2,5.2,0,0,1,5.5-5.32c2.78,0,5.17,1.59,5.17,5.25V26h-7.16a2,2,0,0,0,2.12,2.12c1.15,0,1.64-.53,1.77-1.21h3.27c-.31,2.3-2.08,3.6-5.15,3.6S186.23,28.61,186.23,25.29ZM193.52,24c-.06-1.23-.67-1.91-1.79-1.91A1.94,1.94,0,0,0,189.78,24Z" fill="#fff"/><path d="M198.11,20.08h3.48v2a3.21,3.21,0,0,1,3.28-2.16v3.25c-2.12-.06-3.28.6-3.28,2.24v4.82h-3.48Z" fill="#fff"/><path d="M206.76,27V22.45h-1.22V20.08h1.22V18h3.48v2.12h2v2.37h-2v4.2c0,.74.37,1.07,1,1.07a2.57,2.57,0,0,0,1-.18v2.65a7.2,7.2,0,0,1-1.92.29C208,30.48,206.76,29.37,206.76,27Z" fill="#fff"/><path d="M213,27h3.21c.12.74.45,1.15,1.44,1.15s1.24-.33,1.24-.84-.48-.72-1.88-.91c-2.72-.35-3.87-1.15-3.87-3.27s2-3.34,4.35-3.34c2.51,0,4.26.85,4.49,3.28h-3.15a1.13,1.13,0,0,0-1.3-1c-.76,0-1.15.33-1.15.8s.47.68,1.72.84c2.81.35,4.17,1.08,4.17,3.26,0,2.41-1.78,3.5-4.6,3.5S213.1,29.27,213,27Z" fill="#fff"/><path d="M226.11,20.08h3.63l1.48,6.08,1.71-6.08h2.8l1.52,6.08,1.65-6.08h3.31L239,30.25h-3.33l-1.51-5.68-1.58,5.68h-3.38Z" fill="#fff"/><path d="M243,17.32a1.81,1.81,0,0,1,1.9-1.81,1.8,1.8,0,1,1,0,3.6A1.8,1.8,0,0,1,243,17.32Zm.17,2.76h3.48V30.25H243.2Z" fill="#fff"/><path d="M248.65,15.61h3.46V30.25h-3.46Z" fill="#fff"/><path d="M254.07,15.61h3.46V30.25h-3.46Z" fill="#fff"/><path d="M262.38,30.25h3.45c.16.74.61,1.32,1.87,1.32a1.93,1.93,0,0,0,2.16-2.14V27.88a3.57,3.57,0,0,1-3.15,1.86c-2.37,0-4.32-1.75-4.32-4.88v-.15c0-3,1.93-4.9,4.32-4.9a3.31,3.31,0,0,1,3.15,1.71V20.08h3.48v9.31c0,3-2,4.63-5.64,4.63C264.24,34,262.65,32.56,262.38,30.25ZM270,24.84v-.13c0-1.4-.72-2.3-2-2.3s-2,.92-2,2.32v.15c0,1.4.74,2.3,2,2.3S270,26.28,270,24.84Z" fill="#fff"/><path d="M274.57,25.29v-.16a5.2,5.2,0,0,1,5.5-5.32c2.78,0,5.17,1.59,5.17,5.25V26h-7.15a2,2,0,0,0,2.11,2.12c1.15,0,1.64-.53,1.77-1.21h3.27c-.31,2.3-2.08,3.6-5.15,3.6S274.57,28.61,274.57,25.29ZM281.86,24c-.06-1.23-.66-1.91-1.79-1.91A1.94,1.94,0,0,0,278.12,24Z" fill="#fff"/><path d="M286.92,27V22.45h-1.23V20.08h1.23V18h3.47v2.12h2v2.37h-2v4.2c0,.74.37,1.07,1,1.07a2.62,2.62,0,0,0,1-.18v2.65a7.21,7.21,0,0,1-1.93.29C288.2,30.48,286.92,29.37,286.92,27Z" fill="#fff"/><path d="M300.45,29.22l-4.07-9.14h3.78l2.1,5.42,1.94-5.42h3.32l-5.44,13.57h-3.32Z" fill="#fff"/><path d="M307.33,25.29v-.16c0-3.26,2.43-5.32,5.58-5.32s5.54,2,5.54,5.23v.15c0,3.31-2.43,5.29-5.56,5.29S307.33,28.58,307.33,25.29Zm7.58-.06v-.15c0-1.71-.68-2.67-2-2.67s-2,.92-2,2.63v.15c0,1.75.68,2.71,2,2.71S314.91,26.92,314.91,25.23Z" fill="#fff"/><path d="M319.6,26.71V20.08h3.48v6.07c0,1.14.45,1.71,1.44,1.71s1.73-.63,1.73-1.93V20.08h3.48V30.25h-3.48V28.67A3.33,3.33,0,0,1,323,30.48C321.06,30.48,319.6,29.27,319.6,26.71Z" fill="#fff"/><path d="M335.51,27V22.45h-1.23V20.08h1.23V18H339v2.12h2v2.37h-2v4.2c0,.74.37,1.07,1,1.07a2.57,2.57,0,0,0,1-.18v2.65a7.2,7.2,0,0,1-1.92.29C336.79,30.48,335.51,29.37,335.51,27Z" fill="#fff"/><path d="M342.32,15.61h3.47v6.1a3.6,3.6,0,0,1,3.35-1.9c2,0,3.32,1.22,3.32,3.83v6.61H349V24.34c0-1.15-.44-1.71-1.45-1.71s-1.74.62-1.74,1.92v5.7h-3.47Z" fill="#fff"/><path d="M353.61,25.29v-.16a5.2,5.2,0,0,1,5.51-5.32c2.78,0,5.17,1.59,5.17,5.25V26h-7.16a2,2,0,0,0,2.12,2.12c1.15,0,1.63-.53,1.77-1.21h3.27c-.31,2.3-2.08,3.6-5.16,3.6S353.61,28.61,353.61,25.29ZM360.9,24c0-1.23-.66-1.91-1.78-1.91A1.94,1.94,0,0,0,357.17,24Z" fill="#fff"/><path d="M372.51,28.67v1.58H369V15.61h3.48v6a3.59,3.59,0,0,1,3.17-1.79c2.37,0,4.3,1.79,4.3,5.27v.15c0,3.5-1.93,5.25-4.32,5.25A3.31,3.31,0,0,1,372.51,28.67Zm3.93-3.44v-.15c0-1.79-.78-2.65-2-2.65s-2,.92-2,2.63v.15c0,1.73.75,2.61,2,2.61S376.44,26.9,376.44,25.23Z" fill="#fff"/><path d="M381.17,17.32a1.81,1.81,0,0,1,1.9-1.81,1.8,1.8,0,1,1,0,3.6A1.8,1.8,0,0,1,381.17,17.32Zm.17,2.76h3.48V30.25h-3.48Z" fill="#fff"/><path d="M386.13,30.25h3.46c.15.74.6,1.32,1.86,1.32a1.93,1.93,0,0,0,2.16-2.14V27.88a3.56,3.56,0,0,1-3.15,1.86c-2.37,0-4.31-1.75-4.31-4.88v-.15c0-3,1.92-4.9,4.31-4.9a3.3,3.3,0,0,1,3.15,1.71V20.08h3.48v9.31c0,3-2,4.63-5.64,4.63C388,34,386.4,32.56,386.13,30.25Zm7.58-5.41v-.13c0-1.4-.72-2.3-2-2.3s-2,.92-2,2.32v.15c0,1.4.73,2.3,2,2.3S393.71,26.28,393.71,24.84Z" fill="#fff"/><path d="M398.3,30.25h3.46c.16.74.6,1.32,1.87,1.32a1.93,1.93,0,0,0,2.16-2.14V27.88a3.58,3.58,0,0,1-3.15,1.86c-2.38,0-4.32-1.75-4.32-4.88v-.15c0-3,1.92-4.9,4.32-4.9a3.32,3.32,0,0,1,3.15,1.71V20.08h3.47v9.31c0,3-2,4.63-5.63,4.63C400.17,34,398.57,32.56,398.3,30.25Zm7.58-5.41v-.13c0-1.4-.72-2.3-2-2.3s-2,.92-2,2.32v.15c0,1.4.74,2.3,2,2.3S405.88,26.28,405.88,24.84Z" fill="#fff"/><path d="M410.49,25.29v-.16a5.2,5.2,0,0,1,5.5-5.32c2.78,0,5.18,1.59,5.18,5.25V26H414a2,2,0,0,0,2.12,2.12c1.15,0,1.63-.53,1.77-1.21h3.27c-.32,2.3-2.09,3.6-5.16,3.6S410.49,28.61,410.49,25.29ZM417.78,24c-.06-1.23-.66-1.91-1.79-1.91A1.94,1.94,0,0,0,414.05,24Z" fill="#fff"/><path d="M421.79,27H425c.12.74.45,1.15,1.44,1.15s1.24-.33,1.24-.84-.48-.72-1.88-.91c-2.72-.35-3.87-1.15-3.87-3.27s2-3.34,4.35-3.34c2.51,0,4.26.85,4.49,3.28h-3.15a1.13,1.13,0,0,0-1.3-1c-.76,0-1.15.33-1.15.8s.47.68,1.72.84c2.81.35,4.18,1.08,4.18,3.26,0,2.41-1.79,3.5-4.61,3.5S421.87,29.27,421.79,27Z" fill="#fff"/><path d="M432.66,27V22.45h-1.22V20.08h1.22V18h3.48v2.12h2v2.37h-2v4.2c0,.74.37,1.07,1,1.07a2.57,2.57,0,0,0,1-.18v2.65a7.06,7.06,0,0,1-1.92.29C434,30.48,432.66,29.37,432.66,27Z" fill="#fff"/><path d="M443,20.08h3.48v2a3.21,3.21,0,0,1,3.28-2.16v3.25c-2.12-.06-3.28.6-3.28,2.24v4.82H443Z" fill="#fff"/><path d="M450.4,25.29v-.16a5.2,5.2,0,0,1,5.5-5.32c2.78,0,5.17,1.59,5.17,5.25V26h-7.15A2,2,0,0,0,456,28.09c1.15,0,1.64-.53,1.77-1.21h3.27c-.31,2.3-2.08,3.6-5.15,3.6S450.4,28.61,450.4,25.29ZM457.69,24c-.06-1.23-.66-1.91-1.79-1.91A1.94,1.94,0,0,0,454,24Z" fill="#fff"/><path d="M462.8,22.45h-1.28V20.08h1.28v-.89c0-2.53,1.58-3.74,4-3.74a6,6,0,0,1,1.59.22v2.54a3.45,3.45,0,0,0-.95-.13,1,1,0,0,0-1.17,1.11v.89h2.06v2.37h-2.06v7.8H462.8Z" fill="#fff"/><path d="M469.41,26.71V20.08h3.48v6.07c0,1.14.45,1.71,1.44,1.71s1.73-.63,1.73-1.93V20.08h3.48V30.25h-3.48V28.67a3.33,3.33,0,0,1-3.23,1.81C470.87,30.48,469.41,29.27,469.41,26.71Z" fill="#fff"/><path d="M481.31,20.08h3.48v1.63a3.6,3.6,0,0,1,3.35-1.9c2,0,3.32,1.22,3.32,3.83v6.61H488V24.34c0-1.15-.44-1.71-1.46-1.71s-1.73.62-1.73,1.92v5.7h-3.48Z" fill="#fff"/><path d="M492.65,25.27v-.15c0-3.47,1.91-5.31,4.32-5.31a3.31,3.31,0,0,1,3.13,1.71V15.61h3.48V30.25H500.1V28.59a3.44,3.44,0,0,1-3.17,1.89C494.58,30.48,492.65,28.79,492.65,25.27Zm7.54-.06v-.15c0-1.71-.72-2.63-2-2.63s-2,.88-2,2.65v.15c0,1.71.76,2.59,2,2.59S500.19,26.94,500.19,25.21Z" fill="#fff"/><path d="M512.08,29.22,508,20.08h3.78l2.09,5.42,2-5.42h3.32l-5.44,13.57h-3.32Z" fill="#fff"/><path d="M519,25.29v-.16c0-3.26,2.43-5.32,5.58-5.32s5.54,2,5.54,5.23v.15c0,3.31-2.43,5.29-5.56,5.29S519,28.58,519,25.29Zm7.58-.06v-.15c0-1.71-.68-2.67-2-2.67s-2,.92-2,2.63v.15c0,1.75.68,2.71,2,2.71S526.54,26.92,526.54,25.23Z" fill="#fff"/><path d="M531.23,26.71V20.08h3.48v6.07c0,1.14.45,1.71,1.44,1.71s1.73-.63,1.73-1.93V20.08h3.48V30.25h-3.48V28.67a3.34,3.34,0,0,1-3.23,1.81C532.69,30.48,531.23,29.27,531.23,26.71Z" fill="#fff"/><path d="M542.86,21.17l1.56-5.08,3.07,1-2.67,4.8Z" fill="#fff"/><path d="M547.61,20.08h3.47v2a3.23,3.23,0,0,1,3.29-2.16v3.25c-2.12-.06-3.29.6-3.29,2.24v4.82h-3.47Z" fill="#fff"/><path d="M555,25.29v-.16a5.2,5.2,0,0,1,5.51-5.32c2.78,0,5.17,1.59,5.17,5.25V26h-7.16a2,2,0,0,0,2.12,2.12c1.15,0,1.63-.53,1.77-1.21h3.27c-.31,2.3-2.08,3.6-5.16,3.6S555,28.61,555,25.29ZM562.28,24c0-1.23-.66-1.91-1.78-1.91a1.94,1.94,0,0,0-2,1.91Z" fill="#fff"/><path d="M112.82,46.78v-.15a5.2,5.2,0,0,1,5.5-5.33c2.78,0,5.17,1.6,5.17,5.25v.91h-7.15a2,2,0,0,0,2.12,2.12c1.14,0,1.63-.52,1.77-1.2h3.26c-.31,2.29-2.08,3.59-5.15,3.59S112.82,50.11,112.82,46.78Zm7.29-1.28c-.06-1.22-.66-1.9-1.79-1.9a1.93,1.93,0,0,0-1.94,1.9Z" fill="#fff"/><path d="M124.7,41.57h3.48v1.64a3.58,3.58,0,0,1,3.34-1.91c2,0,3.33,1.23,3.33,3.83v6.61h-3.48V45.83c0-1.15-.45-1.71-1.46-1.71s-1.73.62-1.73,1.92v5.7H124.7Z" fill="#fff"/><path d="M137,48.47V43.94h-1.23V41.57H137V39.45h3.48v2.12h2v2.37h-2v4.2c0,.74.37,1.07,1,1.07a2.78,2.78,0,0,0,1-.17v2.64a7.2,7.2,0,0,1-1.92.29C138.29,52,137,50.87,137,48.47Z" fill="#fff"/><path d="M143.74,38.81a1.81,1.81,0,0,1,1.9-1.81,1.8,1.8,0,1,1,0,3.6A1.8,1.8,0,0,1,143.74,38.81Zm.17,2.76h3.48V51.74h-3.48Z" fill="#fff"/><path d="M149.73,48.47V43.94H148.5V41.57h1.23V39.45h3.48v2.12h2v2.37h-2v4.2c0,.74.37,1.07,1,1.07a2.78,2.78,0,0,0,1-.17v2.64a7.21,7.21,0,0,1-1.93.29C151,52,149.73,50.87,149.73,48.47Z" fill="#fff"/><path d="M156.63,37.1h3.46V51.74h-3.46Z" fill="#fff"/><path d="M161.41,46.78v-.15a5.2,5.2,0,0,1,5.51-5.33c2.78,0,5.17,1.6,5.17,5.25v.91h-7.16a2,2,0,0,0,2.12,2.12c1.15,0,1.63-.52,1.77-1.2h3.27C171.78,50.67,170,52,166.94,52S161.41,50.11,161.41,46.78Zm7.29-1.28c0-1.22-.66-1.9-1.78-1.9A1.94,1.94,0,0,0,165,45.5Z" fill="#fff"/><path d="M172.79,46.76v-.15c0-3.46,1.9-5.31,4.31-5.31A3.29,3.29,0,0,1,180.23,43V37.1h3.48V51.74h-3.48V50.09A3.41,3.41,0,0,1,177.07,52C174.71,52,172.79,50.28,172.79,46.76Zm7.54,0v-.16c0-1.71-.72-2.62-2-2.62s-2,.87-2,2.64v.15c0,1.72.76,2.59,2,2.59S180.33,48.44,180.33,46.71Z" fill="#fff"/><path d="M189.49,48.47V43.94h-1.22V41.57h1.22V39.45H193v2.12h2v2.37h-2v4.2c0,.74.37,1.07,1,1.07a2.87,2.87,0,0,0,1-.17v2.64a7.21,7.21,0,0,1-1.93.29C190.78,52,189.49,50.87,189.49,48.47Z" fill="#fff"/><path d="M195.75,46.78v-.15c0-3.27,2.44-5.33,5.58-5.33s5.54,2,5.54,5.23v.16c0,3.3-2.43,5.28-5.56,5.28S195.75,50.07,195.75,46.78Zm7.59-.06v-.15c0-1.71-.68-2.66-2-2.66s-2,.91-2,2.62v.16c0,1.75.68,2.7,2,2.7S203.34,48.42,203.34,46.72Z" fill="#fff"/><path d="M215.12,50.17v1.57h-3.48V37.1h3.48v6a3.59,3.59,0,0,1,3.17-1.79c2.37,0,4.3,1.79,4.3,5.27v.15c0,3.5-1.93,5.25-4.32,5.25A3.31,3.31,0,0,1,215.12,50.17Zm3.93-3.45v-.15c0-1.79-.78-2.64-2-2.64s-2,.91-2,2.62v.16c0,1.73.76,2.6,2,2.6S219.05,48.4,219.05,46.72Z" fill="#fff"/><path d="M223.31,46.78v-.15a5.2,5.2,0,0,1,5.5-5.33c2.78,0,5.17,1.6,5.17,5.25v.91h-7.15A2,2,0,0,0,229,49.58c1.14,0,1.63-.52,1.77-1.2H234c-.31,2.29-2.08,3.59-5.15,3.59S223.31,50.11,223.31,46.78Zm7.29-1.28c-.06-1.22-.66-1.9-1.79-1.9a1.93,1.93,0,0,0-1.94,1.9Z" fill="#fff"/><path d="M234.65,46.78v-.15a5.12,5.12,0,0,1,5.42-5.33c2.49,0,4.78,1.09,5,4.18h-3.27A1.5,1.5,0,0,0,240.15,44c-1.23,0-2,.88-2,2.59v.15c0,1.77.68,2.69,2,2.69A1.7,1.7,0,0,0,242,47.74h3.12C245,50.3,243.28,52,240,52,237,52,234.65,50.2,234.65,46.78Z" fill="#fff"/><path d="M245.71,48.92c0-2.39,2-3.32,5.4-3.32h1v-.24c0-1-.24-1.61-1.34-1.61A1.25,1.25,0,0,0,249.36,45H246.1c.15-2.45,2.08-3.66,4.86-3.66s4.59,1.15,4.59,3.85v6.59h-3.39V50.55a3.33,3.33,0,0,1-3,1.42C247.32,52,245.71,51.08,245.71,48.92Zm6.38-.74v-.62h-.92c-1.4,0-2,.27-2,1.11,0,.58.39.95,1.21.95C251.35,49.62,252.09,49.06,252.09,48.18Z" fill="#fff"/><path d="M257.16,48.2V41.57h3.48v6.07c0,1.15.45,1.71,1.44,1.71s1.73-.62,1.73-1.93V41.57h3.48V51.74h-3.48V50.17a3.33,3.33,0,0,1-3.23,1.8C258.62,52,257.16,50.77,257.16,48.2Z" fill="#fff"/><path d="M268.38,48.51h3.21c.12.74.45,1.15,1.44,1.15s1.24-.33,1.24-.84-.48-.71-1.88-.91c-2.72-.35-3.87-1.15-3.87-3.27s2-3.34,4.35-3.34c2.51,0,4.26.86,4.5,3.29h-3.15a1.14,1.14,0,0,0-1.31-1c-.75,0-1.14.33-1.14.79s.46.68,1.71.84c2.82.35,4.18,1.09,4.18,3.26,0,2.41-1.79,3.5-4.61,3.5S268.46,50.77,268.38,48.51Z" fill="#fff"/><path d="M278.3,46.78v-.15a5.2,5.2,0,0,1,5.5-5.33c2.78,0,5.17,1.6,5.17,5.25v.91h-7.15a2,2,0,0,0,2.12,2.12c1.15,0,1.63-.52,1.77-1.2H289c-.31,2.29-2.08,3.59-5.15,3.59S278.3,50.11,278.3,46.78Zm7.29-1.28c-.06-1.22-.66-1.9-1.79-1.9a1.93,1.93,0,0,0-1.94,1.9Z" fill="#fff"/><path d="M293.18,46.78v-.15a5.2,5.2,0,0,1,5.5-5.33c2.78,0,5.17,1.6,5.17,5.25v.91h-7.16a2,2,0,0,0,2.12,2.12c1.15,0,1.64-.52,1.77-1.2h3.27c-.31,2.29-2.08,3.59-5.15,3.59S293.18,50.11,293.18,46.78Zm7.29-1.28c-.06-1.22-.66-1.9-1.79-1.9a1.94,1.94,0,0,0-1.95,1.9Z" fill="#fff"/><path d="M303.83,41.57h3.72l2.12,6.55,2.08-6.55h3.32l-3.71,10.17h-3.79Z" fill="#fff"/><path d="M314.86,46.78v-.15a5.2,5.2,0,0,1,5.5-5.33c2.78,0,5.17,1.6,5.17,5.25v.91h-7.15a2,2,0,0,0,2.12,2.12c1.14,0,1.63-.52,1.77-1.2h3.26c-.31,2.29-2.08,3.59-5.15,3.59S314.86,50.11,314.86,46.78Zm7.29-1.28c-.06-1.22-.66-1.9-1.79-1.9a1.93,1.93,0,0,0-1.94,1.9Z" fill="#fff"/><path d="M326.74,41.57h3.48v2a3.2,3.2,0,0,1,3.28-2.16v3.24c-2.11,0-3.28.61-3.28,2.24v4.82h-3.48Z" fill="#fff"/><path d="M338.11,50.71l-4.06-9.14h3.77l2.1,5.43,1.95-5.43h3.32l-5.44,13.57h-3.33Z" fill="#fff"/><path d="M349.12,46.76v-.15c0-3.46,1.91-5.31,4.32-5.31A3.31,3.31,0,0,1,356.57,43V37.1h3.48V51.74h-3.48V50.09A3.43,3.43,0,0,1,353.4,52C351.05,52,349.12,50.28,349.12,46.76Zm7.54,0v-.16c0-1.71-.72-2.62-2-2.62s-2,.87-2,2.64v.15c0,1.72.76,2.59,2,2.59S356.66,48.44,356.66,46.71Z" fill="#fff"/><path d="M361.28,46.78v-.15a5.22,5.22,0,0,1,5.57-5.33c3.13,0,5.55,2,5.55,5.23v.16C372.4,50,370,52,366.83,52S361.28,50.07,361.28,46.78Zm7.58-.06v-.15c0-1.71-.68-2.66-2-2.66s-2,.91-2,2.62v.16c0,1.75.68,2.7,2,2.7S368.86,48.42,368.86,46.72Z" fill="#fff"/><path d="M373.72,37.1h3.46V51.74h-3.46Z" fill="#fff"/><path d="M379.15,37.1h3.46V51.74h-3.46Z" fill="#fff"/><path d="M383.89,48.92c0-2.39,2-3.32,5.4-3.32h1v-.24c0-1-.24-1.61-1.34-1.61A1.25,1.25,0,0,0,387.54,45h-3.26c.15-2.45,2.08-3.66,4.86-3.66s4.59,1.15,4.59,3.85v6.59h-3.39V50.55a3.33,3.33,0,0,1-3,1.42C385.5,52,383.89,51.08,383.89,48.92Zm6.38-.74v-.62h-.92c-1.4,0-2,.27-2,1.11,0,.58.39.95,1.21.95C389.53,49.62,390.27,49.06,390.27,48.18Z" fill="#fff"/><path d="M395.42,41.57h3.48v2a3.2,3.2,0,0,1,3.29-2.16v3.24c-2.12,0-3.29.61-3.29,2.24v4.82h-3.48Z" fill="#fff"/><path d="M407,41.57h3.48v1.56a3.56,3.56,0,0,1,3.19-1.83A2.77,2.77,0,0,1,416.42,43a4,4,0,0,1,3.36-1.69c1.93,0,3.33,1.25,3.33,3.79v6.65h-3.48V45.67c0-1-.51-1.53-1.31-1.53a1.5,1.5,0,0,0-1.55,1.71v5.89h-3.44V45.67c0-1-.51-1.53-1.3-1.53a1.51,1.51,0,0,0-1.56,1.71v5.89H407Z" fill="#fff"/><path d="M424.22,48.92c0-2.39,2-3.32,5.41-3.32h1v-.24c0-1-.24-1.61-1.34-1.61A1.24,1.24,0,0,0,427.88,45h-3.27c.16-2.45,2.08-3.66,4.86-3.66s4.59,1.15,4.59,3.85v6.59h-3.38V50.55a3.36,3.36,0,0,1-3,1.42C425.83,52,424.22,51.08,424.22,48.92Zm6.38-.74v-.62h-.92c-1.4,0-2,.27-2,1.11,0,.58.39.95,1.21.95C429.86,49.62,430.6,49.06,430.6,48.18Z" fill="#fff"/><path d="M436.16,48.47V43.94h-1.22V41.57h1.22V39.45h3.48v2.12h2v2.37h-2v4.2c0,.74.37,1.07,1,1.07a2.78,2.78,0,0,0,1-.17v2.64a7.2,7.2,0,0,1-1.92.29C437.44,52,436.16,50.87,436.16,48.47Z" fill="#fff"/><path d="M443.43,48.47V43.94h-1.22V41.57h1.22V39.45h3.48v2.12h2v2.37h-2v4.2c0,.74.37,1.07,1,1.07a2.78,2.78,0,0,0,1-.17v2.64A7.06,7.06,0,0,1,447,52C444.72,52,443.43,50.87,443.43,48.47Z" fill="#fff"/><path d="M449.69,46.78v-.15a5.2,5.2,0,0,1,5.51-5.33c2.78,0,5.17,1.6,5.17,5.25v.91h-7.16a2,2,0,0,0,2.12,2.12c1.15,0,1.63-.52,1.77-1.2h3.27c-.31,2.29-2.08,3.59-5.16,3.59S449.69,50.11,449.69,46.78ZM457,45.5c-.05-1.22-.66-1.9-1.78-1.9a1.94,1.94,0,0,0-1.95,1.9Z" fill="#fff"/><path d="M461.58,41.57h3.48v2a3.2,3.2,0,0,1,3.28-2.16v3.24c-2.12,0-3.28.61-3.28,2.24v4.82h-3.48Z" fill="#fff"/><path d="M469,48.51h3.21c.12.74.45,1.15,1.44,1.15s1.25-.33,1.25-.84-.49-.71-1.89-.91c-2.72-.35-3.87-1.15-3.87-3.27s2-3.34,4.36-3.34,4.25.86,4.49,3.29H474.8a1.14,1.14,0,0,0-1.31-1c-.75,0-1.14.33-1.14.79s.46.68,1.71.84c2.82.35,4.18,1.09,4.18,3.26,0,2.41-1.79,3.5-4.61,3.5S469,50.77,469,48.51Z" fill="#fff"/><path d="M479.23,50a1.94,1.94,0,0,1,2-2,2,2,0,1,1,0,3.92A1.94,1.94,0,0,1,479.23,50Z" fill="#fff"/></g></g></svg>