<svg xmlns="http://www.w3.org/2000/svg" viewBox="0 0 300 600"><title>H28</title><g id="Layer_2" data-name="Layer 2"><g id="Rect"><rect width="300" height="600" fill="none"/></g><g id="H28"><g id="_Business_Insider_on_H_R_Block_Online" data-name="– Business Insider on H&amp;R Block Online"><path d="M108.23,424h7.94v1.52h-7.94Z" fill="#fff"/><path d="M122.22,416.92h4.61c2.65,0,4.21,1,4.21,3.35v.08a2.63,2.63,0,0,1-2,2.73,2.83,2.83,0,0,1,2.57,3v.08c0,2.39-1.58,3.6-4.41,3.6h-5Zm4.32,5.42c1.59,0,2.2-.57,2.2-1.89v-.07c0-1.22-.7-1.75-2.23-1.75h-2v3.71Zm.34,5.75c1.61,0,2.34-.72,2.34-2V426c0-1.33-.73-2-2.5-2h-2.16v4.13Z" fill="#fff"/><path d="M133.29,426.41v-6h2.18v5.78c0,1.42.59,2.07,1.85,2.07a2.1,2.1,0,0,0,2.2-2.25v-5.6h2.18v9.42h-2.18v-1.48a3.18,3.18,0,0,1-3,1.66C134.68,430,133.29,428.92,133.29,426.41Z" fill="#fff"/><path d="M143.28,426.86h2.05c.11,1,.6,1.52,1.88,1.52s1.69-.42,1.69-1.21-.63-1.06-2-1.3c-2.48-.39-3.4-1.1-3.4-2.86s1.76-2.83,3.53-2.83c1.92,0,3.45.72,3.69,2.85h-2a1.44,1.44,0,0,0-1.67-1.26c-.94,0-1.5.45-1.5,1.11s.45,1,2,1.21c2.21.34,3.53.88,3.53,2.88s-1.35,3-3.77,3S143.37,428.86,143.28,426.86Z" fill="#fff"/><path d="M152.44,417.59a1.3,1.3,0,1,1,1.3,1.24A1.26,1.26,0,0,1,152.44,417.59Zm.24,2.79h2.17v9.42h-2.17Z" fill="#fff"/><path d="M157.23,420.38h2.18v1.5a3.24,3.24,0,0,1,3-1.7c1.89,0,3.22,1.1,3.22,3.7v5.92H163.5v-5.73c0-1.42-.58-2.07-1.88-2.07a2.09,2.09,0,0,0-2.21,2.25v5.55h-2.18Z" fill="#fff"/><path d="M167.27,425.19V425a4.58,4.58,0,0,1,4.69-4.86c2.34,0,4.44,1.39,4.44,4.76v.63h-6.89c.07,1.78,1,2.79,2.59,2.79,1.31,0,2-.52,2.16-1.44h2.11c-.31,2-1.91,3.06-4.33,3.06A4.51,4.51,0,0,1,167.27,425.19Zm7-1.08c-.11-1.62-.94-2.34-2.28-2.34a2.42,2.42,0,0,0-2.42,2.34Z" fill="#fff"/><path d="M177.44,426.86h2.06c.1,1,.59,1.52,1.87,1.52s1.69-.42,1.69-1.21-.63-1.06-2-1.3c-2.48-.39-3.4-1.1-3.4-2.86s1.77-2.83,3.53-2.83c1.93,0,3.46.72,3.69,2.85h-2a1.44,1.44,0,0,0-1.67-1.26c-.94,0-1.49.45-1.49,1.11s.45,1,1.94,1.21c2.21.34,3.53.88,3.53,2.88s-1.35,3-3.76,3S177.53,428.86,177.44,426.86Z" fill="#fff"/><path d="M186.08,426.86h2c.11,1,.6,1.52,1.88,1.52s1.69-.42,1.69-1.21-.63-1.06-2-1.3c-2.48-.39-3.4-1.1-3.4-2.86s1.76-2.83,3.53-2.83c1.93,0,3.46.72,3.69,2.85h-2a1.44,1.44,0,0,0-1.67-1.26c-.94,0-1.49.45-1.49,1.11s.45,1,1.94,1.21c2.21.34,3.53.88,3.53,2.88s-1.35,3-3.76,3S186.17,428.86,186.08,426.86Z" fill="#fff"/><path d="M199.69,416.92h2.41V429.8h-2.41Z" fill="#fff"/><path d="M204.69,420.38h2.18v1.5a3.25,3.25,0,0,1,3-1.7c1.89,0,3.22,1.1,3.22,3.7v5.92H211v-5.73c0-1.42-.58-2.07-1.87-2.07a2.09,2.09,0,0,0-2.22,2.25v5.55h-2.18Z" fill="#fff"/><path d="M214.65,426.86h2c.11,1,.59,1.52,1.87,1.52s1.7-.42,1.7-1.21-.63-1.06-2-1.3c-2.49-.39-3.4-1.1-3.4-2.86s1.76-2.83,3.53-2.83c1.92,0,3.45.72,3.69,2.85h-2a1.45,1.45,0,0,0-1.67-1.26c-.94,0-1.5.45-1.5,1.11s.45,1,2,1.21c2.21.34,3.52.88,3.52,2.88s-1.35,3-3.76,3S214.74,428.86,214.65,426.86Z" fill="#fff"/><path d="M223.81,417.59a1.3,1.3,0,1,1,1.3,1.24A1.26,1.26,0,0,1,223.81,417.59Zm.23,2.79h2.18v9.42H224Z" fill="#fff"/><path d="M228,425.24v-.14c0-3,1.78-4.92,4.23-4.92a3.22,3.22,0,0,1,3,1.64V416h2.18V429.8h-2.18v-1.59a3.6,3.6,0,0,1-3.09,1.77C229.77,430,228,428.3,228,425.24Zm7.31-.11V425c0-2.07-1-3.1-2.54-3.1s-2.54,1.12-2.54,3.15v.15c0,2.07,1,3.06,2.45,3.06S235.3,427.24,235.3,425.13Z" fill="#fff"/><path d="M239.09,425.19V425a4.58,4.58,0,0,1,4.68-4.86c2.34,0,4.45,1.39,4.45,4.76v.63h-6.9c.08,1.78,1,2.79,2.6,2.79,1.31,0,2-.52,2.16-1.44h2.1c-.3,2-1.9,3.06-4.32,3.06A4.51,4.51,0,0,1,239.09,425.19Zm7-1.08c-.11-1.62-.94-2.34-2.29-2.34a2.42,2.42,0,0,0-2.41,2.34Z" fill="#fff"/><path d="M249.89,420.38h2.18v1.77a3.14,3.14,0,0,1,3.06-1.91v2c-1.91,0-3.06.63-3.06,2.63v4.9h-2.18Z" fill="#fff"/><path d="M260.15,425.19V425a4.84,4.84,0,0,1,9.67-.05v.14a4.84,4.84,0,0,1-9.67.06Zm7.44,0V425c0-1.95-1-3.14-2.6-3.14s-2.61,1.17-2.61,3.12v.14c0,1.93,1,3.14,2.61,3.14S267.59,427.08,267.59,425.15Z" fill="#fff"/><path d="M271.51,420.38h2.18v1.5a3.24,3.24,0,0,1,3-1.7c1.89,0,3.22,1.1,3.22,3.7v5.92h-2.18v-5.73c0-1.42-.57-2.07-1.87-2.07a2.09,2.09,0,0,0-2.21,2.25v5.55h-2.18Z" fill="#fff"/><path d="M135.63,436.92H138v5.48h5.78v-5.48h2.42V449.8H143.8v-5.48H138v5.48h-2.39Z" fill="#fff"/><path d="M157.63,447.17l2.16,2.63H157L156,448.48a4.64,4.64,0,0,1-3.53,1.48c-2.5,0-4.23-1.42-4.23-3.67,0-1.89,1.17-3,2.9-3.82a4.31,4.31,0,0,1-1-2.54c0-2,1.68-3.11,3.55-3.11s3.24,1.06,3.24,2.79c0,1.49-1,2.55-2.68,3.27l2.27,2.78,1.31-2.52h2Zm-2.79-.07-2.74-3.33a2.43,2.43,0,0,0-1.64,2.28,2,2,0,0,0,2.22,2.11A2.79,2.79,0,0,0,154.84,447.1Zm-1.66-5.26c1.21-.56,1.71-1.13,1.71-2.14a1.21,1.21,0,0,0-1.26-1.28,1.37,1.37,0,0,0-1.42,1.53A3.2,3.2,0,0,0,153.18,441.84Z" fill="#fff"/><path d="M161.49,436.92h4.33c2.82,0,4.8,1.16,4.8,3.79v.07a3.39,3.39,0,0,1-2.86,3.45l3.62,5.57h-2.59l-3.37-5.21h-1.53v5.21h-2.4Zm4.33,6c1.6,0,2.44-.68,2.44-2.05v-.07c0-1.48-.91-2-2.44-2h-1.93v4.1Z" fill="#fff"/><path d="M177,436.92h4.61c2.64,0,4.21,1,4.21,3.35v.08a2.64,2.64,0,0,1-2,2.73,2.83,2.83,0,0,1,2.57,3v.08c0,2.39-1.58,3.6-4.41,3.6H177Zm4.32,5.42c1.58,0,2.2-.57,2.2-1.89v-.07c0-1.22-.71-1.75-2.24-1.75h-1.94v3.71Zm.34,5.75c1.6,0,2.34-.72,2.34-2V446c0-1.33-.74-2-2.5-2h-2.16v4.13Z" fill="#fff"/><path d="M188.24,436h2.18V449.8h-2.18Z" fill="#fff"/><path d="M192.17,445.19V445a4.83,4.83,0,1,1,9.66-.05v.14a4.83,4.83,0,0,1-9.66.06Zm7.43,0V445c0-1.95-1-3.14-2.59-3.14s-2.61,1.17-2.61,3.12v.14c0,1.93.95,3.14,2.61,3.14S199.6,447.08,199.6,445.15Z" fill="#fff"/><path d="M202.89,445.21v-.15a4.64,4.64,0,0,1,4.76-4.88c2.09,0,4,.94,4.3,3.53h-2.11a1.94,1.94,0,0,0-2.16-1.78c-1.49,0-2.55,1.15-2.55,3.1v.14c0,2.05,1,3.13,2.61,3.13a2.15,2.15,0,0,0,2.27-2h2c-.16,2.16-1.8,3.69-4.35,3.69A4.51,4.51,0,0,1,202.89,445.21Z" fill="#fff"/><path d="M213.6,436h2.18v8.5l3.37-4.14h2.38l-3.66,4.32,4,5.1h-2.52l-3.53-4.63v4.63H213.6Z" fill="#fff"/><path d="M226.6,443.44v-.14a6.32,6.32,0,0,1,6.52-6.56,6.23,6.23,0,0,1,6.48,6.5v.15a6.5,6.5,0,1,1-13,.05Zm10.51,0v-.15c0-2.64-1.47-4.61-4-4.61s-4,1.86-4,4.63v.14c0,2.81,1.71,4.63,4.05,4.63S237.11,446.2,237.11,443.41Z" fill="#fff"/><path d="M241.45,440.38h2.18v1.5a3.24,3.24,0,0,1,3-1.7c1.89,0,3.22,1.1,3.22,3.7v5.92h-2.17v-5.73c0-1.42-.58-2.07-1.88-2.07a2.09,2.09,0,0,0-2.21,2.25v5.55h-2.18Z" fill="#fff"/><path d="M252.18,436h2.18V449.8h-2.18Z" fill="#fff"/><path d="M256.55,437.59a1.3,1.3,0,1,1,1.3,1.24A1.26,1.26,0,0,1,256.55,437.59Zm.24,2.79H259v9.42h-2.17Z" fill="#fff"/><path d="M261.34,440.38h2.18v1.5a3.24,3.24,0,0,1,3-1.7c1.89,0,3.22,1.1,3.22,3.7v5.92h-2.17v-5.73c0-1.42-.58-2.07-1.88-2.07a2.09,2.09,0,0,0-2.21,2.25v5.55h-2.18Z" fill="#fff"/><path d="M271.38,445.19V445a4.58,4.58,0,0,1,4.68-4.86c2.34,0,4.45,1.39,4.45,4.76v.63h-6.89c.07,1.78,1,2.79,2.59,2.79,1.31,0,2-.52,2.16-1.44h2.11c-.31,2-1.91,3.06-4.33,3.06A4.51,4.51,0,0,1,271.38,445.19Zm7-1.08c-.11-1.62-.94-2.34-2.29-2.34a2.42,2.42,0,0,0-2.41,2.34Z" fill="#fff"/></g><g id="_H_R_Block_is_the_online_winner._" data-name="&quot;H&amp;R Block [is] the [online] winner.&quot;"><path d="M21.74,54.78H33l-1.4,18.4h-8.5Zm14.18,0H47.23l-1.41,18.4H37.33Z" fill="#fff"/><path d="M53.52,54.78H67.3V73.05H83V54.78H96.73v47.83H83V83.75H67.3v18.86H53.52Z" fill="#fff"/><path d="M142.63,92.85l8,9.76H135l-2.81-3.48c-3,2.41-6.69,4.29-12.91,4.29-10.17,0-16.79-5.36-16.79-14.45,0-6.16,3.75-10.71,10.5-13.92a15.25,15.25,0,0,1-2.94-8.36c0-8.16,7-12.51,15.39-12.51C133.06,54.18,140,58,140,65.35c0,5.22-3.08,9-9.56,11.84l6,7.36,3.47-6.82h10.44ZM126,91.44l-7.56-9.1a5.67,5.67,0,0,0-3.21,5.16c0,3.47,2.07,6,6.08,6A6.28,6.28,0,0,0,126,91.44Zm-1.47-19.26c3.21-1.54,4.74-3.35,4.74-5.82a3.44,3.44,0,0,0-3.54-3.68,3.82,3.82,0,0,0-4,4.14C121.82,68.56,122.89,70.24,124.57,72.18Z" fill="#fff"/><path d="M154.94,54.78h18.73c12.51,0,19.47,5.09,19.47,15.19v.27c0,6.82-3.62,10.63-8.63,12.57L196,102.61H181.5l-9.7-17.12h-3.21v17.12H154.94ZM173,76.59c4.62,0,6.89-1.94,6.89-5.82V70.5c0-3.88-2.41-5.41-6.82-5.41h-4.48v11.5Z" fill="#fff"/><path d="M23.62,121.68H45c11.3,0,16.12,5.09,16.12,12.51v.27c0,5.35-2.75,8.9-8.1,10.3,5.89,1,9.57,4.55,9.57,11.17v.27c0,8.56-5.55,13.31-17.39,13.31H23.62Zm18.59,19c4.28,0,5.89-1.47,5.89-4.88v-.27c0-3.28-1.74-4.75-5.89-4.75H37v9.9Zm.47,19.67c4.35,0,6.36-2,6.36-5.55v-.27c0-3.61-1.94-5.49-6.76-5.49H37v11.31Z" fill="#fff"/><path d="M67.3,119.14H79.21v50.37H67.3Z" fill="#fff"/><path d="M83.76,152.46v-.54c0-11.24,8.36-18.33,19.2-18.33s19.06,6.89,19.06,18v.53c0,11.37-8.36,18.2-19.13,18.2S83.76,163.76,83.76,152.46Zm26.09-.21v-.53c0-5.89-2.35-9.17-6.89-9.17s-7,3.15-7,9v.53c0,6,2.34,9.3,7,9.3S109.85,158.07,109.85,152.25Z" fill="#fff"/><path d="M124.37,152.46v-.54c0-11.64,8.36-18.33,18.66-18.33,8.56,0,16.46,3.75,17.12,14.38H148.92c-.54-3.27-2.15-5.08-5.62-5.08-4.22,0-6.69,3-6.69,8.9v.53c0,6.09,2.34,9.23,6.89,9.23,3.34,0,5.68-2,6.08-5.82h10.77c-.33,8.83-6.28,14.59-17.59,14.59C132.33,170.32,124.37,164.23,124.37,152.46Z" fill="#fff"/><path d="M164.24,119.14h12v29.23l9.43-13.84h12.45l-11.44,15.72L199,169.51H185.64l-9.43-15.32v15.32h-12Z" fill="#fff"/><path d="M23.42,184.5h20.4v8.77H35.46v44.28h8.36v8.76H23.42Z" fill="#fff"/><path d="M48.64,191.93a6.25,6.25,0,0,1,6.55-6.22,6.3,6.3,0,0,1,6.62,6.22c0,3.54-2.87,6.15-6.62,6.15S48.64,195.47,48.64,191.93Zm.6,9.5h12v35h-12Z" fill="#fff"/><path d="M65.29,225.31h11c.4,2.54,1.54,3.95,5,3.95,3,0,4.28-1.14,4.28-2.88s-1.67-2.48-6.49-3.14c-9.36-1.21-13.31-4-13.31-11.24,0-7.76,6.89-11.51,15-11.51,8.63,0,14.65,2.94,15.45,11.31H85.36c-.47-2.34-1.74-3.48-4.48-3.48s-3.95,1.14-3.95,2.74,1.61,2.34,5.89,2.88c9.7,1.2,14.38,3.74,14.38,11.24,0,8.29-6.15,12-15.85,12C71.38,237.22,65.56,233.07,65.29,225.31Z" fill="#fff"/><path d="M99.48,237.55h8.3V193.27h-8.3V184.5h20.34v61.81H99.48Z" fill="#fff"/><path d="M140.56,225.18V209.59h-4.22v-8.16h4.22v-7.29h12v7.29h6.89v8.16h-6.89V224c0,2.54,1.27,3.68,3.55,3.68a9.17,9.17,0,0,0,3.41-.6v9.09a25.21,25.21,0,0,1-6.63,1C145,237.22,140.56,233.4,140.56,225.18Z" fill="#fff"/><path d="M164,186h12v21c1.88-3.62,5.69-6.56,11.51-6.56,6.76,0,11.44,4.22,11.44,13.18v22.74h-12V216.08c0-4-1.54-5.89-5-5.89s-6,2.14-6,6.62v19.6H164Z" fill="#fff"/><path d="M202.84,219.36v-.54c0-11.24,8.36-18.33,18.93-18.33,9.57,0,17.79,5.49,17.79,18.06v3.15H215c.33,4.61,3,7.29,7.29,7.29,3.95,0,5.62-1.81,6.09-4.15h11.23c-1.07,7.89-7.15,12.38-17.72,12.38C210.87,237.22,202.84,230.79,202.84,219.36Zm25.08-4.42c-.2-4.21-2.27-6.56-6.15-6.56-3.61,0-6.09,2.35-6.69,6.56Z" fill="#fff"/><path d="M23.42,251.4h20.4v8.77H35.46v44.28h8.36v8.76H23.42Z" fill="#fff"/><path d="M46.23,286.26v-.54c0-11.24,8.36-18.33,19.2-18.33s19.06,6.89,19.06,18v.53c0,11.37-8.36,18.2-19.13,18.2S46.23,297.56,46.23,286.26Zm26.09-.21v-.53c0-5.89-2.34-9.17-6.89-9.17s-7,3.15-7,9v.53c0,6,2.34,9.3,7,9.3S72.32,291.87,72.32,286.05Z" fill="#fff"/><path d="M88.71,268.33h12V274c1.88-3.62,5.69-6.56,11.51-6.56,6.76,0,11.44,4.22,11.44,13.18v22.74h-12V283c0-4-1.53-5.89-5-5.89s-6,2.14-6,6.62v19.6h-12Z" fill="#fff"/><path d="M129.79,252.94h11.9v50.37h-11.9Z" fill="#fff"/><path d="M147.85,258.83a6.25,6.25,0,0,1,6.55-6.22,6.31,6.31,0,0,1,6.63,6.22c0,3.54-2.88,6.15-6.63,6.15S147.85,262.37,147.85,258.83Zm.6,9.5h12v35h-12Z" fill="#fff"/><path d="M166.85,268.33h12V274c1.87-3.62,5.69-6.56,11.51-6.56,6.75,0,11.44,4.22,11.44,13.18v22.74h-12V283c0-4-1.54-5.89-5-5.89s-6,2.14-6,6.62v19.6h-12Z" fill="#fff"/><path d="M205.72,286.26v-.54c0-11.24,8.36-18.33,18.93-18.33,9.56,0,17.79,5.49,17.79,18.06v3.15H217.82c.34,4.61,3,7.29,7.3,7.29,3.94,0,5.61-1.81,6.08-4.15h11.24c-1.07,7.89-7.16,12.38-17.73,12.38C213.74,304.12,205.72,297.69,205.72,286.26Zm25.08-4.42c-.2-4.21-2.27-6.56-6.15-6.56-3.61,0-6.09,2.35-6.69,6.56Z" fill="#fff"/><path d="M245,304.45h8.29V260.17H245V251.4h20.33v61.81H245Z" fill="#fff"/><path d="M19.6,335.23H32.11l5.09,20.94,5.88-20.94h9.63l5.22,20.94,5.69-20.94H75l-11.1,35H52.45l-5.22-19.53-5.42,19.53H30.17Z" fill="#fff"/><path d="M77.8,325.73a6.6,6.6,0,0,1,13.18,0c0,3.54-2.87,6.15-6.62,6.15S77.8,329.27,77.8,325.73Zm.61,9.5h12v35h-12Z" fill="#fff"/><path d="M96.8,335.23h12v5.62c1.87-3.62,5.68-6.56,11.5-6.56,6.76,0,11.44,4.21,11.44,13.18v22.74h-12V349.88c0-3.95-1.54-5.89-5-5.89s-6,2.14-6,6.62v19.6h-12Z" fill="#fff"/><path d="M137.54,335.23h12v5.62c1.87-3.62,5.69-6.56,11.51-6.56,6.75,0,11.43,4.21,11.43,13.18v22.74h-12V349.88c0-3.95-1.54-5.89-5-5.89s-5.95,2.14-5.95,6.62v19.6h-12Z" fill="#fff"/><path d="M176.41,353.16v-.54c0-11.24,8.37-18.33,18.93-18.33,9.57,0,17.8,5.49,17.8,18.06v3.15H188.52c.34,4.61,3,7.29,7.29,7.29,3.95,0,5.62-1.81,6.09-4.15h11.24C212.07,366.53,206,371,195.41,371,184.44,371,176.41,364.59,176.41,353.16Zm25.09-4.42c-.2-4.21-2.28-6.56-6.16-6.56-3.61,0-6.08,2.35-6.68,6.56Z" fill="#fff"/><path d="M217.29,335.23h12v6.95c2.21-5.21,5.89-7.49,11.31-7.42v11.17c-7.29-.2-11.31,2.07-11.31,7.69v16.59h-12Z" fill="#fff"/><path d="M240.44,364.19a6.66,6.66,0,0,1,6.82-6.75,6.76,6.76,0,1,1,0,13.51A6.67,6.67,0,0,1,240.44,364.19Z" fill="#fff"/><path d="M252.81,322.38h11.24l-1.4,18.4h-8.5Zm14.18,0H278.3l-1.41,18.4H268.4Z" fill="#fff"/></g></g></g></svg>