<svg xmlns="http://www.w3.org/2000/svg" viewBox="0 0 300 600"><title>H29</title><g id="Layer_2" data-name="Layer 2"><g id="Rect"><rect width="300" height="600" fill="none"/></g><g id="H29"><g id="_H_R_Block_Online_prices_are_significantly_lower_than_TurboTa" data-name="&quot;[H&amp;R Block Online] prices are significantly lower than TurboTa"><path d="M20.8,87.67h7.4l-.93,12.1H21.68Zm9.33,0h7.44l-.92,12.1H31.06Z" fill="#fff"/><path d="M41.57,85H55v5.77h-5.5v29.13H55v5.76H41.57Z" fill="#fff"/><path d="M59,87.67H68.1v12H78.45v-12h9v31.46h-9V106.72H68.1v12.41H59Z" fill="#fff"/><path d="M117.65,112.71l5.24,6.42H112.63l-1.84-2.29a12.51,12.51,0,0,1-8.5,2.82c-6.69,0-11-3.52-11-9.51,0-4,2.46-7,6.91-9.15a10,10,0,0,1-1.94-5.5c0-5.37,4.58-8.23,10.12-8.23,5,0,9.55,2.51,9.55,7.35,0,3.43-2,5.94-6.29,7.79l4,4.84,2.29-4.49h6.86Zm-10.91-.93-5-6a3.72,3.72,0,0,0-2.12,3.39,3.66,3.66,0,0,0,4,3.91A4.13,4.13,0,0,0,106.74,111.78Zm-1-12.67c2.11-1,3.12-2.2,3.12-3.83a2.26,2.26,0,0,0-2.33-2.42A2.51,2.51,0,0,0,104,95.59C104,96.73,104.67,97.83,105.77,99.11Z" fill="#fff"/><path d="M125.74,87.67h12.33c8.22,0,12.8,3.34,12.8,10v.17a8.24,8.24,0,0,1-5.68,8.28l7.53,13h-9.51l-6.38-11.26h-2.11v11.26h-9ZM137.62,102c3,0,4.54-1.27,4.54-3.83V98c0-2.55-1.59-3.57-4.49-3.57h-2.95V102Z" fill="#fff"/><path d="M163.76,87.67h14c7.43,0,10.6,3.34,10.6,8.23v.17c0,3.52-1.8,5.86-5.32,6.78,3.87.66,6.29,3,6.29,7.35v.17c0,5.64-3.65,8.76-11.44,8.76H163.76ZM176,100.17c2.82,0,3.88-1,3.88-3.22v-.17c0-2.16-1.15-3.13-3.88-3.13h-3.43v6.52Zm.31,12.93c2.86,0,4.18-1.32,4.18-3.65v-.18c0-2.37-1.27-3.6-4.44-3.6h-3.48v7.43Z" fill="#fff"/><path d="M192.49,86h7.83v33.14h-7.83Z" fill="#fff"/><path d="M203.31,107.91v-.35c0-7.39,5.5-12.06,12.63-12.06s12.55,4.53,12.55,11.84v.35c0,7.48-5.51,12-12.59,12S203.31,115.35,203.31,107.91Zm17.17-.13v-.35c0-3.88-1.54-6-4.54-6s-4.57,2.07-4.57,5.94v.35c0,4,1.54,6.12,4.57,6.12S220.48,111.61,220.48,107.78Z" fill="#fff"/><path d="M230,107.91v-.35c0-7.66,5.5-12.06,12.28-12.06,5.63,0,10.82,2.46,11.26,9.46h-7.39c-.35-2.15-1.41-3.34-3.7-3.34-2.77,0-4.4,2-4.4,5.85v.35c0,4,1.54,6.08,4.54,6.08,2.2,0,3.74-1.33,4-3.83h7.09c-.22,5.81-4.14,9.59-11.58,9.59C235.26,119.66,230,115.66,230,107.91Z" fill="#fff"/><path d="M256.25,86h7.87v19.24l6.21-9.11h8.18L271,106.46l8.14,12.67h-8.8l-6.21-10.08v10.08h-7.87Z" fill="#fff"/><path d="M20.36,149.6v-.35c0-9.6,7.22-16,16.64-16,9.59,0,16.68,6,16.68,15.8v.35c0,9.68-6.65,16.28-16.81,16.28S20.36,159.06,20.36,149.6Zm23.9-.09v-.35c0-5.59-2.82-8.89-7.26-8.89s-7.22,3.21-7.22,8.93v.35c0,5.72,2.91,9,7.26,9S44.26,155.14,44.26,149.51Z" fill="#fff"/><path d="M56.71,142.12h7.87v3.69a8.15,8.15,0,0,1,7.57-4.31c4.45,0,7.53,2.77,7.53,8.67v15H71.8V151.75c0-2.59-1-3.87-3.3-3.87s-3.92,1.41-3.92,4.36v12.89H56.71Z" fill="#fff"/><path d="M83.72,132h7.84v33.14H83.72Z" fill="#fff"/><path d="M95.6,135.87a4.35,4.35,0,1,1,4.32,4A4.12,4.12,0,0,1,95.6,135.87Zm.4,6.25h7.88v23H96Z" fill="#fff"/><path d="M108.1,142.12H116v3.69a8.13,8.13,0,0,1,7.56-4.31c4.45,0,7.53,2.77,7.53,8.67v15h-7.88V151.75c0-2.59-1-3.87-3.3-3.87s-3.91,1.41-3.91,4.36v12.89H108.1Z" fill="#fff"/><path d="M133.66,153.91v-.35c0-7.39,5.5-12.06,12.46-12.06,6.29,0,11.7,3.61,11.7,11.88v2.07H141.63c.22,3,2,4.8,4.79,4.8,2.6,0,3.7-1.19,4-2.73h7.39c-.7,5.19-4.71,8.14-11.66,8.14C138.94,165.66,133.66,161.44,133.66,153.91Zm16.51-2.9c-.14-2.78-1.5-4.32-4-4.32-2.38,0-4,1.54-4.4,4.32Z" fill="#fff"/><path d="M159.49,165.88H165V136.75h-5.46V131h13.38v40.66H159.49Z" fill="#fff"/><path d="M21.33,188.12h7.88v3.43a8.13,8.13,0,0,1,7.17-4.05c5.37,0,9.73,4.05,9.73,11.93v.35c0,7.92-4.36,11.88-9.77,11.88-3.48,0-6-1.63-7.13-3.92v11.09H21.33ZM38.1,199.78v-.35c0-4.05-1.76-6-4.53-6S29,195.51,29,199.38v.35c0,3.92,1.72,5.9,4.58,5.9S38.1,203.56,38.1,199.78Z" fill="#fff"/><path d="M49,188.12h7.88v4.57a7.24,7.24,0,0,1,7.44-4.88v7.35c-4.8-.13-7.44,1.36-7.44,5.06v10.91H49Z" fill="#fff"/><path d="M67,181.87a4.35,4.35,0,1,1,4.31,4A4.12,4.12,0,0,1,67,181.87Zm.4,6.25h7.87v23H67.36Z" fill="#fff"/><path d="M78.22,199.91v-.35c0-7.66,5.5-12.06,12.28-12.06,5.63,0,10.83,2.46,11.27,9.46h-7.4c-.35-2.15-1.4-3.34-3.69-3.34-2.78,0-4.4,2-4.4,5.85v.35c0,4,1.54,6.08,4.53,6.08,2.2,0,3.74-1.33,4-3.83h7.09c-.22,5.81-4.14,9.59-11.57,9.59C83.46,211.66,78.22,207.66,78.22,199.91Z" fill="#fff"/><path d="M103.21,199.91v-.35c0-7.39,5.51-12.06,12.46-12.06,6.29,0,11.7,3.61,11.7,11.88v2.07H111.18c.22,3,2,4.8,4.8,4.8,2.59,0,3.69-1.19,4-2.73h7.39c-.7,5.19-4.7,8.14-11.66,8.14C108.5,211.66,103.21,207.44,103.21,199.91Zm16.51-2.9c-.13-2.78-1.5-4.32-4-4.32-2.38,0-4,1.54-4.4,4.32Z" fill="#fff"/><path d="M128.78,203.83H136c.26,1.67,1,2.59,3.26,2.59,1.93,0,2.81-.75,2.81-1.89s-1.1-1.63-4.27-2.07c-6.16-.79-8.75-2.59-8.75-7.39,0-5.11,4.53-7.57,9.85-7.57,5.68,0,9.64,1.94,10.17,7.44H142c-.31-1.54-1.14-2.29-2.95-2.29s-2.59.75-2.59,1.8,1.05,1.54,3.87,1.9c6.38.79,9.46,2.46,9.46,7.39,0,5.46-4.05,7.92-10.43,7.92C132.78,211.66,129,208.93,128.78,203.83Z" fill="#fff"/><path d="M159,204.75c0-5.41,4.57-7.52,12.23-7.52h2.2v-.53c0-2.2-.53-3.66-3-3.66a2.83,2.83,0,0,0-3.12,2.73h-7.39c.35-5.54,4.7-8.27,11-8.27s10.38,2.6,10.38,8.71v14.92h-7.65v-2.68c-1.1,1.67-3.13,3.21-6.83,3.21C162.66,211.66,159,209.64,159,204.75Zm14.43-1.67v-1.41h-2.07c-3.17,0-4.58.62-4.58,2.51,0,1.32.88,2.15,2.73,2.15C171.77,206.33,173.44,205.06,173.44,203.08Z" fill="#fff"/><path d="M185.1,188.12H193v4.57a7.26,7.26,0,0,1,7.44-4.88v7.35c-4.79-.13-7.44,1.36-7.44,5.06v10.91H185.1Z" fill="#fff"/><path d="M201.82,199.91v-.35c0-7.39,5.5-12.06,12.45-12.06,6.29,0,11.71,3.61,11.71,11.88v2.07h-16.2c.22,3,2,4.8,4.8,4.8,2.6,0,3.7-1.19,4-2.73H226c-.71,5.19-4.71,8.14-11.66,8.14C207.1,211.66,201.82,207.44,201.82,199.91Zm16.5-2.9c-.13-2.78-1.5-4.32-4-4.32-2.38,0-4,1.54-4.4,4.32Z" fill="#fff"/><path d="M19.79,249.83h7.26c.27,1.67,1,2.59,3.26,2.59,1.94,0,2.82-.75,2.82-1.89s-1.1-1.63-4.27-2.07c-6.16-.79-8.76-2.59-8.76-7.39,0-5.11,4.53-7.57,9.86-7.57,5.67,0,9.63,1.94,10.16,7.44H33c-.3-1.54-1.14-2.29-2.94-2.29s-2.6.75-2.6,1.8,1.06,1.54,3.87,1.9c6.38.79,9.46,2.46,9.46,7.39,0,5.46-4.05,7.92-10.43,7.92C23.8,257.66,20,254.93,19.79,249.83Z" fill="#fff"/><path d="M43.16,227.87a4.11,4.11,0,0,1,4.31-4.1,4.08,4.08,0,1,1,0,8.15A4.07,4.07,0,0,1,43.16,227.87Zm.39,6.25h7.88v23H43.55Z" fill="#fff"/><path d="M54.38,257.13h7.83c.35,1.67,1.36,3,4.22,3,3.48,0,4.89-2,4.89-4.84v-3.52A8.08,8.08,0,0,1,64.19,256c-5.37,0-9.77-4-9.77-11.05v-.35c0-6.78,4.36-11.09,9.77-11.09,3.65,0,5.81,1.54,7.13,3.87v-3.25H79.2V255.2c0,6.86-4.54,10.47-12.77,10.47C58.6,265.67,55,262.37,54.38,257.13ZM71.54,244.9v-.31c0-3.17-1.63-5.19-4.53-5.19s-4.54,2.07-4.54,5.23V245c0,3.16,1.68,5.19,4.49,5.19S71.54,248.15,71.54,244.9Z" fill="#fff"/><path d="M83.2,234.12h7.87v3.69a8.14,8.14,0,0,1,7.57-4.31c4.45,0,7.53,2.77,7.53,8.67v15H98.29V243.75c0-2.59-1-3.87-3.3-3.87s-3.92,1.41-3.92,4.36v12.89H83.2Z" fill="#fff"/><path d="M109.82,227.87a4.34,4.34,0,1,1,4.31,4A4.11,4.11,0,0,1,109.82,227.87Zm.39,6.25h7.88v23h-7.88Z" fill="#fff"/><path d="M123.5,239.48h-2.9v-5.36h2.9v-2c0-5.72,3.56-8.45,9-8.45a13.81,13.81,0,0,1,3.61.49v5.76a7.45,7.45,0,0,0-2.16-.31,2.32,2.32,0,0,0-2.64,2.51v2H136v5.36h-4.67v17.65H123.5Z" fill="#fff"/><path d="M138.46,227.87a4.35,4.35,0,1,1,4.31,4A4.12,4.12,0,0,1,138.46,227.87Zm.39,6.25h7.88v23h-7.88Z" fill="#fff"/><path d="M149.72,245.91v-.35c0-7.66,5.5-12.06,12.28-12.06,5.63,0,10.83,2.46,11.27,9.46h-7.4c-.35-2.15-1.41-3.34-3.69-3.34-2.78,0-4.4,2-4.4,5.85v.35c0,4,1.54,6.08,4.53,6.08,2.2,0,3.74-1.33,4-3.83h7.09c-.22,5.81-4.14,9.59-11.58,9.59C155,257.66,149.72,253.66,149.72,245.91Z" fill="#fff"/><path d="M174.76,250.75c0-5.41,4.57-7.52,12.23-7.52h2.2v-.53c0-2.2-.53-3.66-3-3.66a2.83,2.83,0,0,0-3.13,2.73h-7.39c.35-5.54,4.71-8.27,11-8.27S197,236.1,197,242.21v14.92h-7.66v-2.68c-1.1,1.67-3.13,3.21-6.82,3.21C178.41,257.66,174.76,255.64,174.76,250.75Zm14.43-1.67v-1.41h-2.07c-3.16,0-4.57.62-4.57,2.51,0,1.32.88,2.15,2.73,2.15C187.52,252.33,189.19,251.06,189.19,249.08Z" fill="#fff"/><path d="M200.85,234.12h7.88v3.69a8.13,8.13,0,0,1,7.57-4.31c4.44,0,7.52,2.77,7.52,8.67v15h-7.88V243.75c0-2.59-1-3.87-3.3-3.87s-3.91,1.41-3.91,4.36v12.89h-7.88Z" fill="#fff"/><path d="M228.7,249.74V239.48h-2.77v-5.36h2.77v-4.8h7.88v4.8h4.53v5.36h-4.53V249a2.1,2.1,0,0,0,2.33,2.42,5.94,5.94,0,0,0,2.25-.4v6a16.77,16.77,0,0,1-4.36.66C231.61,257.66,228.7,255.15,228.7,249.74Z" fill="#fff"/><path d="M244.32,224h7.83v33.14h-7.83Z" fill="#fff"/><path d="M263.59,254.8l-9.19-20.68h8.53l4.76,12.27,4.4-12.27h7.52l-12.32,30.71h-7.53Z" fill="#fff"/><path d="M21.55,270h7.84v33.14H21.55Z" fill="#fff"/><path d="M32.38,291.91v-.35c0-7.39,5.5-12.06,12.63-12.06S57.55,284,57.55,291.34v.35c0,7.48-5.5,12-12.59,12S32.38,299.35,32.38,291.91Zm17.16-.13v-.35c0-3.88-1.54-6-4.53-6s-4.58,2.07-4.58,5.94v.35c0,4,1.54,6.12,4.58,6.12S49.54,295.61,49.54,291.78Z" fill="#fff"/><path d="M57.63,280.12h8.23l3.35,13.77,3.87-13.77h6.33l3.44,13.77,3.74-13.77h7.48l-7.31,23H79.24l-3.43-12.85-3.57,12.85H64.58Z" fill="#fff"/><path d="M93.84,291.91v-.35c0-7.39,5.5-12.06,12.46-12.06,6.29,0,11.7,3.61,11.7,11.88v2.07H101.81c.22,3,2,4.8,4.79,4.8,2.6,0,3.7-1.19,4-2.73H118c-.7,5.19-4.71,8.14-11.66,8.14C99.12,303.66,93.84,299.44,93.84,291.91Zm16.51-2.9c-.14-2.78-1.5-4.32-4-4.32-2.38,0-4,1.54-4.4,4.32Z" fill="#fff"/><path d="M120.73,280.12h7.87v4.57a7.26,7.26,0,0,1,7.44-4.88v7.35c-4.8-.13-7.44,1.36-7.44,5.06v10.91h-7.87Z" fill="#fff"/><path d="M148,295.74V285.48h-2.77v-5.36H148v-4.8h7.88v4.8h4.53v5.36h-4.53V295a2.1,2.1,0,0,0,2.33,2.42,5.94,5.94,0,0,0,2.25-.4v6a16.77,16.77,0,0,1-4.36.66C150.87,303.66,148,301.15,148,295.74Z" fill="#fff"/><path d="M163.36,270h7.88v13.82a8.13,8.13,0,0,1,7.57-4.31c4.44,0,7.52,2.77,7.52,8.67v15h-7.87V289.75c0-2.59-1-3.87-3.3-3.87s-3.92,1.41-3.92,4.36v12.89h-7.88Z" fill="#fff"/><path d="M188.84,296.75c0-5.41,4.57-7.52,12.23-7.52h2.2v-.53c0-2.2-.53-3.66-3-3.66a2.83,2.83,0,0,0-3.13,2.73h-7.39c.35-5.54,4.71-8.27,11-8.27s10.38,2.6,10.38,8.71v14.92h-7.65v-2.68c-1.1,1.67-3.13,3.21-6.82,3.21C192.49,303.66,188.84,301.64,188.84,296.75Zm14.43-1.67v-1.41H201.2c-3.16,0-4.57.62-4.57,2.51,0,1.32.88,2.15,2.73,2.15C201.6,298.33,203.27,297.06,203.27,295.08Z" fill="#fff"/><path d="M214.93,280.12h7.88v3.69a8.13,8.13,0,0,1,7.57-4.31c4.44,0,7.52,2.77,7.52,8.67v15H230V289.75c0-2.59-1-3.87-3.3-3.87s-3.91,1.41-3.91,4.36v12.89h-7.88Z" fill="#fff"/><path d="M28.07,324.62H19.92v-6.95H45.27v6.95H37.13v24.51H28.07Z" fill="#fff"/><path d="M46,341.12v-15h7.88v13.73c0,2.59,1,3.87,3.26,3.87S61,342.31,61,339.36V326.12H68.9v23H61v-3.56c-1.23,2.37-3.47,4.09-7.3,4.09C49.27,349.66,46,346.93,46,341.12Z" fill="#fff"/><path d="M72.9,326.12h7.88v4.57a7.24,7.24,0,0,1,7.43-4.88v7.35c-4.79-.13-7.43,1.36-7.43,5.06v10.91H72.9Z" fill="#fff"/><path d="M99,345.57v3.56H91.07V316H99v13.55a8.13,8.13,0,0,1,7.17-4.05c5.37,0,9.73,4.05,9.73,11.93v.35c0,7.92-4.36,11.88-9.77,11.88C102.65,349.66,100.09,348,99,345.57Zm8.89-7.79v-.35c0-4.05-1.76-6-4.53-6s-4.58,2.07-4.58,5.94v.35c0,3.92,1.72,5.9,4.58,5.9S107.84,341.56,107.84,337.78Z" fill="#fff"/><path d="M117.47,337.91v-.35c0-7.39,5.5-12.06,12.63-12.06s12.54,4.53,12.54,11.84v.35c0,7.48-5.5,12-12.58,12S117.47,345.35,117.47,337.91Zm17.16-.13v-.35c0-3.88-1.54-6-4.53-6s-4.58,2.06-4.58,5.94v.35c0,4,1.54,6.12,4.58,6.12S134.63,341.61,134.63,337.78Z" fill="#fff"/><path d="M152.14,324.62H144v-6.95h25.35v6.95h-8.14v24.51h-9.07Z" fill="#fff"/><path d="M167.76,342.75c0-5.41,4.58-7.52,12.24-7.52h2.2v-.53c0-2.2-.53-3.66-3-3.66a2.82,2.82,0,0,0-3.12,2.73h-7.4c.36-5.54,4.71-8.27,11-8.27S190,328.1,190,334.21v14.92h-7.66v-2.68c-1.1,1.67-3.12,3.21-6.82,3.21C171.42,349.66,167.76,347.64,167.76,342.75Zm14.44-1.67v-1.41h-2.07c-3.17,0-4.58.62-4.58,2.51,0,1.32.88,2.15,2.73,2.15C180.53,344.33,182.2,343.06,182.2,341.08Z" fill="#fff"/><path d="M199.66,337.43l-7.17-11.31h9.07l3.56,6.07,3.48-6.07h8.09l-7.26,10.69,8,12.32h-9.07l-4.09-6.86-4.18,6.86H192Z" fill="#fff"/><path d="M219,345.17a4.39,4.39,0,0,1,4.49-4.44,4.45,4.45,0,1,1,0,8.89A4.39,4.39,0,0,1,219,345.17Z" fill="#fff"/><path d="M231.47,345.17a4.39,4.39,0,0,1,4.49-4.44,4.45,4.45,0,1,1,0,8.89A4.39,4.39,0,0,1,231.47,345.17Z" fill="#fff"/><path d="M244,345.17a4.39,4.39,0,0,1,4.49-4.44,4.45,4.45,0,1,1,0,8.89A4.39,4.39,0,0,1,244,345.17Z" fill="#fff"/><path d="M252.11,317.67h7.39l-.92,12.1H253Zm9.33,0h7.44l-.93,12.1h-5.59Z" fill="#fff"/></g><g id="_PC_Mag" data-name="– PC Mag"><path d="M204,424H212v1.52H204Z" fill="#fff"/><path d="M218,416.92h4.14c2.88,0,4.77,1.28,4.77,4V421c0,2.71-2,3.92-4.72,3.92h-1.8v4.9H218Zm4.14,6.25c1.58,0,2.43-.77,2.43-2.19v-.08c0-1.53-.9-2.12-2.43-2.12h-1.75v4.39Z" fill="#fff"/><path d="M228.09,423.44v-.14c0-3.87,2.67-6.57,6.25-6.57,2.95,0,5.24,1.47,5.53,4.5h-2.43a2.76,2.76,0,0,0-3.08-2.6c-2.27,0-3.75,1.77-3.75,4.65v.14c0,2.9,1.39,4.61,3.77,4.61a3,3,0,0,0,3.29-2.71H240c-.38,3.09-2.57,4.66-5.63,4.66C230.34,430,228.09,427.4,228.09,423.44Z" fill="#fff"/><path d="M245.82,416.92H249l3.38,8.79,3.32-8.79h3.16V429.8H256.5v-9.72l-3.83,9.72h-.78L248,420.08v9.72h-2.16Z" fill="#fff"/><path d="M260.65,427.19c0-2.2,2.13-3,4.83-3h1.17v-.49c0-1.26-.43-1.89-1.71-1.89a1.57,1.57,0,0,0-1.8,1.48H261c.18-2.2,1.93-3.12,4-3.12s3.76.87,3.76,3.44v6.18h-2.14v-1.15a3.29,3.29,0,0,1-2.88,1.33C262.08,430,260.65,429.15,260.65,427.19Zm6-.69v-.93h-1.12c-1.65,0-2.71.38-2.71,1.53,0,.79.43,1.31,1.51,1.31C265.66,428.41,266.65,427.71,266.65,426.5Z" fill="#fff"/><path d="M270.54,430.12h2.19c.18.94.9,1.48,2.33,1.48a2.31,2.31,0,0,0,2.62-2.54v-1.39a3.66,3.66,0,0,1-3.07,1.75,4.16,4.16,0,0,1-4.18-4.48v-.13a4.33,4.33,0,0,1,4.23-4.63,3.25,3.25,0,0,1,3,1.64v-1.44h2.18v8.72c0,2.77-1.87,4.15-4.79,4.15S270.79,431.92,270.54,430.12Zm7.22-5.25v-.13c0-1.78-1-2.85-2.54-2.85s-2.56,1.17-2.56,2.88v.15a2.55,2.55,0,0,0,2.49,2.83A2.59,2.59,0,0,0,277.76,424.87Z" fill="#fff"/></g></g></g></svg>