<svg xmlns="http://www.w3.org/2000/svg" viewBox="0 0 600 500"><title>Asset 4</title><rect width="600" height="500" fill="none"/><path d="M42.07,78.4h28.5v9.38H54.23v9h13v8.91h-13v14.93H42.07Z" fill="#fff"/><path d="M73.58,81.35a5.82,5.82,0,1,1,5.78,5.43A5.51,5.51,0,0,1,73.58,81.35Zm.53,8.38H84.67v30.86H74.11Z" fill="#fff"/><path d="M90.63,76.16h10.5v44.43H90.63Z" fill="#fff"/><path d="M105.14,105.54v-.47c0-9.91,7.38-16.17,16.7-16.17,8.44,0,15.7,4.84,15.7,15.93v2.78H115.82c.3,4.07,2.66,6.43,6.43,6.43,3.48,0,5-1.6,5.37-3.66h9.92c-.95,7-6.32,10.92-15.64,10.92C112.22,121.3,105.14,115.63,105.14,105.54Zm22.13-3.89c-.18-3.72-2-5.79-5.43-5.79-3.19,0-5.37,2.07-5.9,5.79Z" fill="#fff"/><path d="M153.52,96.93h-3.89v-7.2h3.89V87c0-7.67,4.78-11.33,12.1-11.33a19.08,19.08,0,0,1,4.84.65v7.73a10,10,0,0,0-2.9-.41C165.09,83.65,164,85,164,87v2.72h6.26v7.2H164v23.66h-10.5Z" fill="#fff"/><path d="M171.1,105.54v-.47c0-9.91,7.38-16.17,16.94-16.17s16.81,6.08,16.81,15.87v.48c0,10-7.37,16-16.87,16S171.1,115.51,171.1,105.54Zm23-.18v-.47c0-5.19-2.07-8.08-6.08-8.08s-6.14,2.77-6.14,8v.48c0,5.31,2.07,8.2,6.14,8.2S194.12,110.5,194.12,105.36Z" fill="#fff"/><path d="M208.57,89.73h10.56v6.13c2-4.6,5.19-6.6,10-6.55v9.86c-6.43-.18-10,1.83-10,6.78v14.64H208.57Z" fill="#fff"/><path d="M243.67,89.73h10.56v5a10.92,10.92,0,0,1,10.15-5.78c6,0,10.09,3.72,10.09,11.63v20.06H263.91V102.65c0-3.48-1.36-5.19-4.42-5.19s-5.26,1.89-5.26,5.84v17.29H243.67Z" fill="#fff"/><path d="M277.83,112c0-7.26,6.14-10.09,16.41-10.09h2.95v-.71c0-3-.71-4.89-4.08-4.89a3.78,3.78,0,0,0-4.18,3.65H279c.47-7.43,6.32-11.09,14.75-11.09s13.93,3.48,13.93,11.68v20H297.42V117c-1.47,2.24-4.19,4.31-9.14,4.31C282.73,121.3,277.83,118.58,277.83,112Zm19.36-2.24V107.9h-2.78c-4.25,0-6.13.83-6.13,3.36,0,1.77,1.18,2.9,3.65,2.9C294.94,114.16,297.19,112.44,297.19,109.79Z" fill="#fff"/><path d="M311.28,105.48V105c0-10.5,5.79-16.11,13.1-16.11,4.84,0,7.73,2.07,9.5,5.19V76.16h10.56v44.43H333.88v-5a10.39,10.39,0,0,1-9.62,5.73C317.12,121.3,311.28,116.16,311.28,105.48Zm22.9-.18v-.47c0-5.19-2.19-8-6.08-8s-6.08,2.65-6.08,8v.47c0,5.2,2.3,7.85,6,7.85C331.82,113.21,334.18,110.56,334.18,105.3Z" fill="#fff"/><path d="M348,112c0-7.26,6.14-10.09,16.4-10.09h2.95v-.71c0-3-.7-4.89-4.07-4.89a3.79,3.79,0,0,0-4.19,3.65h-9.91c.47-7.43,6.31-11.09,14.75-11.09s13.93,3.48,13.93,11.68v20H367.63V117c-1.47,2.24-4.19,4.31-9.15,4.31C352.94,121.3,348,118.58,348,112Zm19.35-2.24V107.9h-2.77c-4.25,0-6.14.83-6.14,3.36,0,1.77,1.19,2.9,3.66,2.9C365.15,114.16,367.39,112.44,367.39,109.79Z" fill="#fff"/><path d="M380.84,125.37l5-15.52,9.8,3.48-8.5,14.46Z" fill="#fff"/><path d="M408.4,119.53l13.51-21.84h-12.1v-8H437v1.12l-13.86,21.77h13.16v8H408.4Z" fill="#fff"/><path d="M439.78,81.35a5.83,5.83,0,1,1,5.79,5.43A5.52,5.52,0,0,1,439.78,81.35Zm.53,8.38h10.57v30.86H440.31Z" fill="#fff"/><path d="M456.54,89.73H467.1v4.6a10.9,10.9,0,0,1,9.62-5.43c7.2,0,13,5.43,13,16v.47c0,10.62-5.84,15.94-13.1,15.94-4.66,0-8-2.19-9.56-5.26v14.87H456.54ZM479,105.36v-.47c0-5.43-2.36-8-6.08-8s-6.13,2.77-6.13,8v.47c0,5.26,2.3,7.91,6.13,7.91S479,110.44,479,105.36Z" fill="#fff"/><path d="M490.64,125.37l5-15.52,9.79,3.48-8.49,14.46Z" fill="#fff"/><path d="M38.59,183.5,52.1,161.67H40v-8h27.2v1.12L53.34,176.6H66.5v8H38.59Z" fill="#fff"/><path d="M68.09,169.52v-.47c0-9.91,7.38-16.17,16.7-16.17,8.44,0,15.69,4.84,15.69,15.93v2.78H78.77c.3,4.07,2.66,6.43,6.43,6.43,3.48,0,5-1.6,5.37-3.66h9.91c-.94,7-6.31,10.91-15.63,10.91C75.17,185.27,68.09,179.61,68.09,169.52Zm22.13-3.89c-.18-3.72-2-5.79-5.43-5.79-3.19,0-5.37,2.07-5.9,5.79Z" fill="#fff"/><path d="M104.14,153.71H114.7v6.13c2-4.6,5.19-6.61,10-6.55v9.86c-6.43-.18-10,1.83-10,6.78v14.64H104.14Z" fill="#fff"/><path d="M126.56,169.52v-.47c0-9.91,7.38-16.17,16.93-16.17s16.82,6.08,16.82,15.87v.48c0,10-7.38,16-16.88,16S126.56,179.49,126.56,169.52Zm23-.18v-.47c0-5.19-2.06-8.08-6.08-8.08s-6.13,2.77-6.13,8v.48c0,5.31,2.06,8.2,6.13,8.2S149.57,174.48,149.57,169.34Z" fill="#fff"/><path d="M162.31,179.26a5.88,5.88,0,0,1,6-6,6,6,0,1,1,0,11.92A5.89,5.89,0,0,1,162.31,179.26Z" fill="#fff"/><path d="M191.16,142.38h28.5v9.38H203.32v9h13v8.91h-13v14.93H191.16Z" fill="#fff"/><path d="M222.49,153.71h10.56v6.13c1.95-4.6,5.2-6.61,10-6.55v9.86c-6.44-.18-10,1.83-10,6.78v14.64H222.49Z" fill="#fff"/><path d="M244.91,169.52v-.47c0-9.91,7.38-16.17,16.7-16.17,8.44,0,15.7,4.84,15.7,15.93v2.78H255.59c.3,4.07,2.66,6.43,6.43,6.43,3.49,0,5-1.6,5.37-3.66h9.92c-.95,7-6.32,10.91-15.64,10.91C252,185.27,244.91,179.61,244.91,169.52ZM267,165.63c-.18-3.72-2-5.79-5.43-5.79-3.19,0-5.37,2.07-5.9,5.79Z" fill="#fff"/><path d="M279.31,169.52v-.47c0-9.91,7.38-16.17,16.7-16.17,8.44,0,15.69,4.84,15.69,15.93v2.78H290c.29,4.07,2.65,6.43,6.43,6.43,3.48,0,5-1.6,5.37-3.66h9.91c-.94,7-6.31,10.91-15.63,10.91C286.39,185.27,279.31,179.61,279.31,169.52Zm22.13-3.89c-.18-3.72-2-5.79-5.43-5.79-3.19,0-5.37,2.07-5.9,5.79Z" fill="#fff"/><path d="M327,142.38h28.5v9.38H339.19v9h13v8.91h-13v14.93H327Z" fill="#fff"/><path d="M356.36,169.52v-.47c0-9.91,7.38-16.17,16.7-16.17,8.44,0,15.7,4.84,15.7,15.93v2.78H367c.3,4.07,2.66,6.43,6.43,6.43,3.49,0,5-1.6,5.37-3.66h9.92c-.95,7-6.32,10.91-15.64,10.91C363.44,185.27,356.36,179.61,356.36,169.52Zm22.13-3.89c-.18-3.72-2-5.79-5.43-5.79-3.19,0-5.37,2.07-5.9,5.79Z" fill="#fff"/><path d="M390.88,169.46V169c0-10.5,5.78-16.11,13.1-16.11,4.83,0,7.73,2.07,9.5,5.19V140.14H424v44.43H413.48v-5a10.4,10.4,0,0,1-9.62,5.72C396.72,185.27,390.88,180.14,390.88,169.46Zm22.89-.18v-.47c0-5.19-2.18-8-6.08-8s-6.07,2.65-6.07,8v.47c0,5.2,2.3,7.85,6,7.85C411.41,177.19,413.77,174.54,413.77,169.28Z" fill="#fff"/><path d="M427.75,169.52v-.47c0-9.91,7.38-16.17,16.7-16.17,8.44,0,15.7,4.84,15.7,15.93v2.78H438.43c.3,4.07,2.66,6.43,6.43,6.43,3.48,0,5-1.6,5.37-3.66h9.92c-.95,7-6.32,10.91-15.64,10.91C434.83,185.27,427.75,179.61,427.75,169.52Zm22.13-3.89c-.18-3.72-2-5.79-5.43-5.79-3.19,0-5.37,2.07-5.9,5.79Z" fill="#fff"/><path d="M463.8,153.71h10.56v6.13c1.95-4.6,5.19-6.61,10-6.55v9.86c-6.43-.18-10,1.83-10,6.78v14.64H463.8Z" fill="#fff"/><path d="M485.69,176c0-7.26,6.14-10.09,16.4-10.09h3v-.71c0-3-.71-4.89-4.07-4.89a3.79,3.79,0,0,0-4.19,3.65h-9.91c.47-7.43,6.31-11.09,14.75-11.09s13.93,3.48,13.93,11.68v20H505.28V181c-1.48,2.24-4.19,4.3-9.15,4.3C490.59,185.27,485.69,182.56,485.69,176ZM505,173.77v-1.89h-2.77c-4.25,0-6.14.83-6.14,3.36,0,1.77,1.18,2.9,3.66,2.9C502.8,178.14,505,176.42,505,173.77Z" fill="#fff"/><path d="M521,140.14h10.5v44.43H521Z" fill="#fff"/><path d="M536.72,179.26a5.88,5.88,0,0,1,6-6,6,6,0,1,1,0,11.92A5.89,5.89,0,0,1,536.72,179.26Z" fill="#fff"/><path d="M42.07,206.36h28.5v9.38H54.23v9h13v8.91h-13v14.93H42.07Z" fill="#fff"/><path d="M73.4,217.69H84v6.13c2-4.6,5.19-6.61,10-6.55v9.86C87.5,227,84,229,84,233.91v14.64H73.4Z" fill="#fff"/><path d="M95.82,233.5V233c0-9.91,7.38-16.17,16.7-16.17,8.44,0,15.69,4.84,15.69,15.93v2.78H106.5c.29,4.07,2.66,6.43,6.43,6.43,3.48,0,5-1.6,5.37-3.66h9.91c-.94,7-6.31,10.91-15.63,10.91C102.9,249.25,95.82,243.59,95.82,233.5ZM118,229.61c-.18-3.72-2-5.79-5.43-5.79-3.19,0-5.37,2.07-5.9,5.79Z" fill="#fff"/><path d="M130.22,233.5V233c0-9.91,7.37-16.17,16.7-16.17,8.43,0,15.69,4.84,15.69,15.93v2.78H140.9c.29,4.07,2.65,6.43,6.43,6.43,3.48,0,5-1.6,5.37-3.66h9.91c-.94,7-6.31,10.91-15.64,10.91C137.3,249.25,130.22,243.59,130.22,233.5Zm22.12-3.89c-.17-3.72-2-5.79-5.42-5.79-3.19,0-5.37,2.07-5.91,5.79Z" fill="#fff"/><path d="M175.23,235.15h11.51c.29,3,1.65,5.49,6.67,5.49,3.48,0,5.43-1.71,5.43-4.19s-1.6-3.3-6.67-4.07c-11.92-1.42-15.93-5-15.93-13.45,0-7.62,6.25-13.16,16.34-13.16s15.87,4.25,16.64,13.16H198c-.41-3-2.12-4.55-5.43-4.55s-4.9,1.48-4.9,3.6c0,2.36,1.3,3.42,6.55,4.13,10.68,1.18,16.17,4,16.17,13.1,0,7.73-6.14,14-17,14C181.61,249.25,175.59,244.3,175.23,235.15Z" fill="#fff"/><path d="M215.71,238.63V224.89H212v-7.2h3.72v-6.43h10.56v6.43h6.08v7.2h-6.08v12.74c0,2.24,1.12,3.25,3.13,3.25a8.16,8.16,0,0,0,3-.53v8a22.45,22.45,0,0,1-5.85.88C219.6,249.25,215.71,245.89,215.71,238.63Z" fill="#fff"/><path d="M234.7,240c0-7.26,6.14-10.09,16.41-10.09h2.95v-.71c0-2.95-.71-4.89-4.07-4.89A3.79,3.79,0,0,0,245.8,228h-9.92c.48-7.43,6.32-11.09,14.76-11.09s13.92,3.48,13.92,11.68v20H254.29V245c-1.47,2.24-4.19,4.3-9.14,4.3C239.6,249.25,234.7,246.54,234.7,240Zm19.36-2.24v-1.89h-2.77c-4.25,0-6.14.83-6.14,3.36,0,1.77,1.18,2.9,3.66,2.9C251.82,242.12,254.06,240.4,254.06,237.75Z" fill="#fff"/><path d="M270.93,238.63V224.89h-3.72v-7.2h3.72v-6.43h10.56v6.43h6.08v7.2h-6.08v12.74c0,2.24,1.12,3.25,3.13,3.25a8.16,8.16,0,0,0,3-.53v8a22.36,22.36,0,0,1-5.84.88C274.82,249.25,270.93,245.89,270.93,238.63Z" fill="#fff"/><path d="M289.93,233.5V233c0-9.91,7.37-16.17,16.7-16.17,8.43,0,15.69,4.84,15.69,15.93v2.78H300.61c.29,4.07,2.65,6.43,6.43,6.43,3.48,0,5-1.6,5.37-3.66h9.91c-.94,7-6.31,10.91-15.64,10.91C297,249.25,289.93,243.59,289.93,233.5Zm22.12-3.89c-.17-3.72-2-5.79-5.42-5.79-3.19,0-5.37,2.07-5.9,5.79Z" fill="#fff"/><path d="M325.27,243.24a5.88,5.88,0,0,1,6-6,6,6,0,1,1,0,11.92A5.89,5.89,0,0,1,325.27,243.24Z" fill="#fff"/></svg>