<svg xmlns="http://www.w3.org/2000/svg" viewBox="0 0 970 250"><title>H06</title><g id="Layer_2" data-name="Layer 2"><g id="Rect"><rect width="970" height="250" fill="none"/></g><g id="Don_t_do_taxes._Let_a_tax_pro_do_them_for_you." data-name="Don&apos;t do taxes. Let a tax pro do them for you."><path d="M281.26,59.26h13.26c13,0,19.54,6.48,19.54,17.8v.41c0,11.37-6.73,18.25-19.59,18.25H281.26Zm12.91,28.41c6.22,0,9-3.27,9-10v-.41c0-6.93-2.75-9.89-9.08-9.89h-2.29V87.67Z" fill="#fff"/><path d="M316.15,82.72v-.41c0-8.56,6.38-14,14.64-14s14.54,5.25,14.54,13.72v.41c0,8.67-6.38,13.87-14.59,13.87S316.15,91.34,316.15,82.72Zm19.9-.15v-.41c0-4.49-1.79-7-5.26-7s-5.3,2.4-5.3,6.89v.41c0,4.59,1.78,7.08,5.3,7.08S336.05,87,336.05,82.57Z" fill="#fff"/><path d="M348.54,69.05h9.14v4.29a9.39,9.39,0,0,1,8.77-5c5.15,0,8.72,3.21,8.72,10V95.72H366V80.22c0-3-1.17-4.49-3.82-4.49s-4.54,1.64-4.54,5V95.72h-9.14Z" fill="#fff"/><path d="M377.83,59.26h8.92l-1.07,14h-6.83Z" fill="#fff"/><path d="M392.47,87.16V75.28h-3.22V69.05h3.22V63.5h9.13v5.55h5.25v6.23H401.6v11c0,1.94,1,2.81,2.7,2.81a7,7,0,0,0,2.6-.46v6.93a19,19,0,0,1-5,.77C395.83,96.34,392.47,93.43,392.47,87.16Z" fill="#fff"/><path d="M418.28,82.67v-.41c0-9.07,5-13.92,11.32-13.92,4.18,0,6.68,1.79,8.21,4.49V57.33h9.13V95.72h-9.13V91.39a9,9,0,0,1-8.31,5C423.33,96.34,418.28,91.9,418.28,82.67Zm19.79-.15v-.41c0-4.49-1.89-6.89-5.26-6.89s-5.25,2.3-5.25,6.94v.41c0,4.49,2,6.78,5.15,6.78C436,89.35,438.07,87.06,438.07,82.52Z" fill="#fff"/><path d="M450.16,82.72v-.41c0-8.56,6.38-14,14.64-14s14.54,5.25,14.54,13.72v.41c0,8.67-6.38,13.87-14.59,13.87S450.16,91.34,450.16,82.72Zm19.89-.15v-.41c0-4.49-1.78-7-5.25-7s-5.31,2.4-5.31,6.89v.41c0,4.59,1.79,7.08,5.31,7.08S470.05,87,470.05,82.57Z" fill="#fff"/><path d="M493.06,87.16V75.28h-3.21V69.05h3.21V63.5h9.13v5.55h5.25v6.23h-5.25v11c0,1.94,1,2.81,2.7,2.81a7.14,7.14,0,0,0,2.61-.46v6.93a19,19,0,0,1-5.05.77C496.43,96.34,493.06,93.43,493.06,87.16Z" fill="#fff"/><path d="M509.49,88.33c0-6.27,5.3-8.72,14.18-8.72h2.55V79c0-2.55-.62-4.23-3.52-4.23a3.27,3.27,0,0,0-3.62,3.16h-8.57c.4-6.43,5.45-9.59,12.75-9.59s12,3,12,10.1V95.72h-8.88V92.61c-1.27,1.94-3.62,3.73-7.91,3.73C513.72,96.34,509.49,94,509.49,88.33Zm16.73-1.94V84.76h-2.4c-3.67,0-5.31.71-5.31,2.91,0,1.53,1,2.5,3.17,2.5C524.28,90.17,526.22,88.69,526.22,86.39Z" fill="#fff"/><path d="M546.47,82.16l-8.32-13.11h10.51l4.13,7,4-7h9.39l-8.42,12.4L567,95.72H556.52l-4.75-8-4.84,8h-9.34Z" fill="#fff"/><path d="M565.85,82.72v-.41c0-8.56,6.38-14,14.44-14,7.29,0,13.57,4.18,13.57,13.77v2.4H575.08c.26,3.51,2.3,5.55,5.57,5.55,3,0,4.28-1.37,4.64-3.16h8.57c-.82,6-5.46,9.44-13.52,9.44C572,96.34,565.85,91.44,565.85,82.72ZM585,79.36c-.15-3.22-1.73-5-4.69-5-2.76,0-4.64,1.78-5.1,5Z" fill="#fff"/><path d="M595.49,87.26h8.42c.3,1.94,1.17,3,3.77,3,2.25,0,3.27-.87,3.27-2.19s-1.28-1.89-5-2.4c-7.14-.92-10.15-3-10.15-8.57,0-5.91,5.25-8.77,11.42-8.77,6.58,0,11.17,2.24,11.79,8.62h-8.27c-.35-1.79-1.32-2.65-3.41-2.65s-3,.86-3,2.09,1.22,1.78,4.48,2.19c7.4.92,11,2.86,11,8.57,0,6.32-4.69,9.18-12.09,9.18C600.13,96.34,595.69,93.17,595.49,87.26Z" fill="#fff"/><path d="M622.42,91.14A5.1,5.1,0,0,1,627.63,86a5.16,5.16,0,1,1,0,10.31A5.09,5.09,0,0,1,622.42,91.14Z" fill="#fff"/><path d="M647.37,59.26h10.51V87.62h13.77v8.1H647.37Z" fill="#fff"/><path d="M673.18,82.72v-.41c0-8.56,6.38-14,14.44-14,7.29,0,13.57,4.18,13.57,13.77v2.4H682.41c.26,3.51,2.3,5.55,5.56,5.55,3,0,4.29-1.37,4.65-3.16h8.57c-.82,6-5.46,9.44-13.52,9.44C679.3,96.34,673.18,91.44,673.18,82.72Zm19.13-3.36c-.15-3.22-1.73-5-4.69-5-2.76,0-4.65,1.78-5.1,5Z" fill="#fff"/><path d="M705.57,87.16V75.28h-3.21V69.05h3.21V63.5h9.13v5.55H720v6.23H714.7v11c0,1.94,1,2.81,2.71,2.81a7.09,7.09,0,0,0,2.6-.46v6.93a19,19,0,0,1-5,.77C708.94,96.34,705.57,93.43,705.57,87.16Z" fill="#fff"/><path d="M731.18,88.33c0-6.27,5.31-8.72,14.18-8.72h2.55V79c0-2.55-.61-4.23-3.52-4.23a3.27,3.27,0,0,0-3.62,3.16H732.2c.41-6.43,5.46-9.59,12.75-9.59s12,3,12,10.1V95.72h-8.87V92.61c-1.28,1.94-3.63,3.73-7.91,3.73C735.41,96.34,731.18,94,731.18,88.33Zm16.73-1.94V84.76h-2.4c-3.67,0-5.3.71-5.3,2.91,0,1.53,1,2.5,3.16,2.5C746,90.17,747.91,88.69,747.91,86.39Z" fill="#fff"/><path d="M771.94,87.16V75.28h-3.22V69.05h3.22V63.5h9.13v5.55h5.25v6.23h-5.25v11c0,1.94,1,2.81,2.7,2.81a7,7,0,0,0,2.6-.46v6.93a18.89,18.89,0,0,1-5,.77C775.3,96.34,771.94,93.43,771.94,87.16Z" fill="#fff"/><path d="M788.36,88.33c0-6.27,5.31-8.72,14.18-8.72h2.55V79c0-2.55-.61-4.23-3.51-4.23A3.28,3.28,0,0,0,798,77.93h-8.57c.41-6.43,5.46-9.59,12.76-9.59s12,3,12,10.1V95.72H805.3V92.61c-1.28,1.94-3.62,3.73-7.91,3.73C792.6,96.34,788.36,94,788.36,88.33Zm16.73-1.94V84.76H802.7c-3.68,0-5.31.71-5.31,2.91,0,1.53,1,2.5,3.16,2.5C803.16,90.17,805.09,88.69,805.09,86.39Z" fill="#fff"/><path d="M825.35,82.16,817,69.05h10.51l4.13,7,4-7h9.39l-8.42,12.4,9.23,14.27H835.4l-4.75-8-4.84,8h-9.34Z" fill="#fff"/><path d="M280.44,122.05h9.14v4a9.41,9.41,0,0,1,8.31-4.69c6.22,0,11.27,4.69,11.27,13.82v.41c0,9.18-5.05,13.77-11.32,13.77-4,0-6.94-1.89-8.26-4.54v12.85h-9.14Zm19.44,13.52v-.41c0-4.69-2-6.94-5.25-6.94s-5.31,2.4-5.31,6.89v.41c0,4.54,2,6.83,5.31,6.83S299.88,140,299.88,135.57Z" fill="#fff"/><path d="M312.48,122.05h9.13v5.31c1.68-4,4.49-5.71,8.62-5.66v8.51c-5.56-.15-8.62,1.58-8.62,5.87v12.64h-9.13Z" fill="#fff"/><path d="M331.86,135.72v-.41c0-8.56,6.38-14,14.64-14S361,126.59,361,135.06v.41c0,8.66-6.37,13.87-14.59,13.87S331.86,144.34,331.86,135.72Zm19.9-.15v-.41c0-4.49-1.79-7-5.26-7s-5.3,2.4-5.3,6.89v.41c0,4.59,1.78,7.08,5.3,7.08S351.76,140,351.76,135.57Z" fill="#fff"/><path d="M372.21,135.67v-.41c0-9.08,5-13.92,11.33-13.92,4.18,0,6.68,1.79,8.21,4.49v-15.5h9.13v38.39h-9.13v-4.33a9,9,0,0,1-8.31,5C377.26,149.34,372.21,144.9,372.21,135.67Zm19.8-.15v-.41c0-4.49-1.89-6.89-5.26-6.89s-5.25,2.3-5.25,6.94v.41c0,4.49,2,6.78,5.15,6.78C390,142.35,392,140.06,392,135.52Z" fill="#fff"/><path d="M404.1,135.72v-.41c0-8.56,6.37-14,14.64-14s14.53,5.25,14.53,13.72v.41c0,8.66-6.37,13.87-14.58,13.87S404.1,144.34,404.1,135.72Zm19.89-.15v-.41c0-4.49-1.78-7-5.25-7s-5.31,2.4-5.31,6.89v.41c0,4.59,1.79,7.08,5.31,7.08S424,140,424,135.57Z" fill="#fff"/><path d="M447,140.16V128.28h-3.22v-6.23H447V116.5h9.13v5.55h5.25v6.23h-5.25v11c0,1.94,1,2.81,2.7,2.81a7,7,0,0,0,2.6-.46v6.93a19,19,0,0,1-5.05.77C450.36,149.34,447,146.43,447,140.16Z" fill="#fff"/><path d="M464.85,110.33H474v16a9.41,9.41,0,0,1,8.77-5c5.16,0,8.73,3.21,8.73,10v17.33h-9.13v-15.5c0-3-1.18-4.49-3.83-4.49s-4.54,1.64-4.54,5.05v14.94h-9.13Z" fill="#fff"/><path d="M494.49,135.72v-.41c0-8.56,6.37-14,14.43-14,7.3,0,13.57,4.18,13.57,13.77v2.4H503.72c.25,3.51,2.3,5.55,5.56,5.55,3,0,4.29-1.37,4.64-3.16h8.57c-.81,6-5.46,9.44-13.52,9.44C500.61,149.34,494.49,144.44,494.49,135.72Zm19.13-3.36c-.16-3.22-1.74-5-4.7-5-2.75,0-4.64,1.78-5.1,5Z" fill="#fff"/><path d="M525.66,122.05h9.13v4.08a9.31,9.31,0,0,1,8.36-4.79c3.52,0,6,1.53,7.25,4.44a10.56,10.56,0,0,1,8.82-4.44c5,0,8.72,3.26,8.72,9.94v17.44h-9.13V132.81c0-2.7-1.32-4-3.42-4-2.44,0-4.08,1.58-4.08,4.48v15.45h-9V132.81c0-2.7-1.33-4-3.42-4-2.45,0-4.08,1.58-4.08,4.48v15.45h-9.13Z" fill="#fff"/><path d="M583,128.28h-3.36v-6.23H583v-2.34c0-6.63,4.13-9.79,10.46-9.79a16.08,16.08,0,0,1,4.18.56v6.68a8.18,8.18,0,0,0-2.5-.36c-2.14,0-3.06,1.17-3.06,2.91v2.34h5.41v6.23h-5.41v20.44H583Z" fill="#fff"/><path d="M598.25,135.72v-.41c0-8.56,6.37-14,14.64-14s14.53,5.25,14.53,13.72v.41c0,8.66-6.37,13.87-14.59,13.87S598.25,144.34,598.25,135.72Zm19.89-.15v-.41c0-4.49-1.79-7-5.25-7s-5.31,2.4-5.31,6.89v.41c0,4.59,1.79,7.08,5.31,7.08S618.14,140,618.14,135.57Z" fill="#fff"/><path d="M630.64,122.05h9.13v5.31c1.68-4,4.49-5.71,8.62-5.66v8.51c-5.56-.15-8.62,1.58-8.62,5.87v12.64h-9.13Z" fill="#fff"/><path d="M669.36,146l-10.67-24h9.9l5.51,14.23,5.1-14.23h8.72l-14.28,35.6h-8.72Z" fill="#fff"/><path d="M687.41,135.72v-.41c0-8.56,6.38-14,14.64-14s14.54,5.25,14.54,13.72v.41c0,8.66-6.37,13.87-14.59,13.87S687.41,144.34,687.41,135.72Zm19.9-.15v-.41c0-4.49-1.79-7-5.26-7s-5.3,2.4-5.3,6.89v.41c0,4.59,1.78,7.08,5.3,7.08S707.31,140,707.31,135.57Z" fill="#fff"/><path d="M719.6,139.44V122.05h9.13V138c0,3,1.18,4.49,3.78,4.49s4.54-1.63,4.54-5V122.05h9.13v26.67h-9.13v-4.13c-1.43,2.76-4,4.75-8.47,4.75C723.43,149.34,719.6,146.17,719.6,139.44Z" fill="#fff"/><path d="M750.46,144.13a5.09,5.09,0,0,1,5.21-5.15,5.16,5.16,0,1,1,0,10.31A5.1,5.1,0,0,1,750.46,144.13Z" fill="#fff"/></g></g></svg>