<svg xmlns="http://www.w3.org/2000/svg" viewBox="0 0 160 600"><title>Asset 14</title><g id="Layer_2" data-name="Layer 2"><g id="Rect"><rect width="160" height="600" fill="none"/></g><g id="To-do:_drop_off_taxes." data-name="To-do:dropofftaxes."><path d="M28.08,138.55H20.82v-6.2H43.43v6.2H36.17v21.86H28.08Z" fill="#fff"/><path d="M41.71,150.41v-.32c0-6.59,4.9-10.75,11.26-10.75s11.18,4,11.18,10.56v.31c0,6.67-4.9,10.68-11.22,10.68S41.71,157,41.71,150.41Zm15.3-.12V150c0-3.46-1.37-5.38-4-5.38s-4.08,1.84-4.08,5.3v.31c0,3.53,1.37,5.46,4.08,5.46S57,153.7,57,150.29Z" fill="#fff"/><path d="M66.55,146.56h11v5.3h-11Z" fill="#fff"/><path d="M80,150.37v-.32c0-7,3.85-10.71,8.71-10.71A6.64,6.64,0,0,1,95,142.79V130.86h7v29.55H95v-3.33a6.91,6.91,0,0,1-6.39,3.81C83.9,160.89,80,157.47,80,150.37Zm15.23-.12v-.31c0-3.46-1.45-5.3-4-5.3s-4,1.76-4,5.34v.31c0,3.45,1.53,5.22,4,5.22S95.24,153.74,95.24,150.25Z" fill="#fff"/><path d="M104.54,150.41v-.32c0-6.59,4.91-10.75,11.27-10.75s11.18,4,11.18,10.56v.31c0,6.67-4.9,10.68-11.22,10.68S104.54,157,104.54,150.41Zm15.31-.12V150c0-3.46-1.37-5.38-4-5.38s-4.08,1.84-4.08,5.3v.31c0,3.53,1.37,5.46,4.08,5.46S119.85,153.7,119.85,150.29Z" fill="#fff"/><path d="M129.31,145.66a3.94,3.94,0,0,1,4-4,4,4,0,1,1,0,7.93A3.91,3.91,0,0,1,129.31,145.66Zm0,11.22a3.93,3.93,0,0,1,4-4,4,4,0,1,1-4,4Z" fill="#fff"/><path d="M21.06,194.62v-.32c0-7,3.85-10.71,8.71-10.71A6.66,6.66,0,0,1,36.09,187V175.11h7v29.55h-7v-3.33a6.92,6.92,0,0,1-6.4,3.81C24.94,205.14,21.06,201.72,21.06,194.62Zm15.23-.12v-.31c0-3.46-1.46-5.3-4-5.3s-4,1.76-4,5.34v.31c0,3.45,1.53,5.22,4,5.22S36.29,198,36.29,194.5Z" fill="#fff"/><path d="M46.69,184.14h7v4.08a6.48,6.48,0,0,1,6.64-4.36v6.56c-4.28-.12-6.64,1.21-6.64,4.51v9.73h-7Z" fill="#fff"/><path d="M61.6,194.66v-.32c0-6.59,4.91-10.75,11.27-10.75s11.18,4,11.18,10.56v.31c0,6.67-4.9,10.68-11.22,10.68S61.6,201.29,61.6,194.66Zm15.31-.12v-.31c0-3.46-1.37-5.38-4-5.38s-4.08,1.84-4.08,5.3v.31c0,3.53,1.37,5.46,4.08,5.46S76.91,198,76.91,194.54Z" fill="#fff"/><path d="M86.53,184.14h7v3.06a7.26,7.26,0,0,1,6.4-3.61c4.79,0,8.67,3.61,8.67,10.64v.31c0,7.06-3.88,10.6-8.71,10.6a6.78,6.78,0,0,1-6.36-3.5v9.89h-7Zm15,10.4v-.31c0-3.62-1.57-5.34-4-5.34s-4.08,1.84-4.08,5.3v.31c0,3.49,1.53,5.26,4.08,5.26S101.48,197.91,101.48,194.54Z" fill="#fff"/><path d="M21,238.91v-.32c0-6.59,4.91-10.75,11.26-10.75s11.19,4,11.19,10.56v.31c0,6.67-4.91,10.68-11.22,10.68S21,245.54,21,238.91Zm15.31-.12v-.31c0-3.46-1.38-5.38-4-5.38s-4.08,1.84-4.08,5.3v.31c0,3.53,1.38,5.46,4.08,5.46S36.29,242.2,36.29,238.79Z" fill="#fff"/><path d="M47,233.18H44.37v-4.79H47v-1.57c0-5.1,3.14-7.5,8-7.5a11.54,11.54,0,0,1,3.14.4v5.14a6.06,6.06,0,0,0-1.88-.28A2.06,2.06,0,0,0,54,226.82v1.57h6v-1.81c0-5.1,3.21-7.53,8-7.53a12.3,12.3,0,0,1,3.22.43v5.14a6.37,6.37,0,0,0-1.92-.27,2,2,0,0,0-2.32,2.23v1.81H71.1v4.79H66.94v15.73h-7V233.18H54v15.73H47Z" fill="#fff"/><path d="M23,286.57v-9.14H20.55v-4.79H23v-4.28h7v4.28h4v4.79h-4v8.47c0,1.5.74,2.16,2.08,2.16a5.48,5.48,0,0,0,2-.35v5.34a15,15,0,0,1-3.89.59C25.61,293.64,23,291.4,23,286.57Z" fill="#fff"/><path d="M35.66,287.47c0-4.82,4.08-6.71,10.91-6.71h2v-.47c0-2-.47-3.26-2.71-3.26A2.52,2.52,0,0,0,43,279.47H36.45c.31-5,4.19-7.38,9.81-7.38s9.26,2.31,9.26,7.77v13.3H48.69v-2.39c-1,1.49-2.79,2.87-6.08,2.87C38.92,293.64,35.66,291.83,35.66,287.47ZM48.53,286v-1.25H46.69c-2.83,0-4.08.55-4.08,2.23,0,1.18.78,1.93,2.43,1.93C47,288.89,48.53,287.75,48.53,286Z" fill="#fff"/><path d="M64.12,282.73l-6.4-10.09H65.8L69,278.05l3.1-5.41H79.3l-6.47,9.54,7.1,11H71.85L68.2,287l-3.73,6.12H57.29Z" fill="#fff"/><path d="M79,283.16v-.32c0-6.59,4.91-10.75,11.11-10.75,5.61,0,10.44,3.22,10.44,10.6v1.84H86.13c.2,2.71,1.77,4.28,4.28,4.28,2.32,0,3.3-1.06,3.57-2.43h6.6c-.63,4.63-4.2,7.26-10.4,7.26C83.74,293.64,79,289.87,79,283.16Zm14.72-2.59c-.12-2.48-1.34-3.85-3.61-3.85s-3.57,1.37-3.93,3.85Z" fill="#fff"/><path d="M101.83,286.65h6.48c.23,1.49.9,2.31,2.9,2.31,1.73,0,2.52-.66,2.52-1.68s-1-1.45-3.81-1.85c-5.5-.7-7.81-2.31-7.81-6.59,0-4.55,4-6.75,8.79-6.75,5.06,0,8.6,1.73,9.07,6.63h-6.36a2.3,2.3,0,0,0-2.63-2c-1.53,0-2.32.67-2.32,1.61s.94,1.37,3.46,1.69c5.69.7,8.43,2.2,8.43,6.59,0,4.87-3.61,7.07-9.3,7.07C105.41,293.64,102,291.2,101.83,286.65Z" fill="#fff"/><path d="M122.56,289.63a3.91,3.91,0,0,1,4-4,4,4,0,1,1,0,7.93A3.92,3.92,0,0,1,122.56,289.63Z" fill="#fff"/></g></g></svg>