<svg xmlns="http://www.w3.org/2000/svg" viewBox="0 0 160 600"><title>H49</title><g id="Layer_2" data-name="Layer 2"><g id="Rect"><rect width="160" height="600" fill="none"/></g><g id="H49"><g id="To_do:_drop_off_taxes." data-name="To do:dropofftaxes."><path d="M28.6,132H20.88v-6.59h24V132H37.2V155.3H28.6Z" fill="#fff"/><path d="M43.09,144.65v-.33c0-7,5.22-11.44,12-11.44S67,137.18,67,144.11v.33c0,7.1-5.22,11.36-11.94,11.36S43.09,151.71,43.09,144.65Zm16.28-.12v-.34c0-3.67-1.46-5.72-4.3-5.72s-4.34,2-4.34,5.64v.33c0,3.76,1.46,5.81,4.34,5.81S59.37,148.16,59.37,144.53Z" fill="#fff"/><path d="M76.11,144.61v-.33c0-7.44,4.09-11.4,9.27-11.4a7.08,7.08,0,0,1,6.72,3.67V123.86h7.47V155.3H92.1v-3.55a7.36,7.36,0,0,1-6.8,4.05C80.24,155.8,76.11,152.17,76.11,144.61Zm16.2-.13v-.33c0-3.67-1.55-5.64-4.3-5.64s-4.3,1.88-4.3,5.68v.34c0,3.67,1.63,5.55,4.22,5.55S92.31,148.2,92.31,144.48Z" fill="#fff"/><path d="M102.21,144.65v-.33c0-7,5.21-11.44,12-11.44s11.89,4.3,11.89,11.23v.33c0,7.1-5.21,11.36-11.94,11.36S102.21,151.71,102.21,144.65Zm16.28-.12v-.34c0-3.67-1.46-5.72-4.3-5.72s-4.35,2-4.35,5.64v.33c0,3.76,1.47,5.81,4.35,5.81S118.49,148.16,118.49,144.53Z" fill="#fff"/><path d="M128.55,139.6a4.19,4.19,0,0,1,4.26-4.22,4.22,4.22,0,1,1,0,8.44A4.17,4.17,0,0,1,128.55,139.6Zm0,11.94a4.19,4.19,0,0,1,4.26-4.22,4.22,4.22,0,1,1,0,8.44A4.19,4.19,0,0,1,128.55,151.54Z" fill="#fff"/><path d="M21.13,191.36V191c0-7.44,4.09-11.4,9.27-11.4a7.09,7.09,0,0,1,6.72,3.67V170.61h7.47v31.44H37.12V198.5a7.38,7.38,0,0,1-6.81,4.05C25.26,202.55,21.13,198.92,21.13,191.36Zm16.2-.13v-.33c0-3.67-1.55-5.64-4.3-5.64s-4.3,1.88-4.3,5.68v.34c0,3.67,1.62,5.55,4.21,5.55S37.33,195,37.33,191.23Z" fill="#fff"/><path d="M48.39,180.21h7.47v4.34a6.9,6.9,0,0,1,7.06-4.63v7c-4.55-.12-7.06,1.3-7.06,4.8v10.36H48.39Z" fill="#fff"/><path d="M64.25,191.4v-.33c0-7,5.22-11.44,12-11.44s11.89,4.3,11.89,11.23v.33c0,7.1-5.21,11.36-11.94,11.36S64.25,198.46,64.25,191.4Zm16.29-.12v-.34c0-3.67-1.46-5.72-4.3-5.72s-4.34,2-4.34,5.64v.33c0,3.76,1.46,5.81,4.34,5.81S80.54,194.91,80.54,191.28Z" fill="#fff"/><path d="M90.77,180.21h7.47v3.26a7.7,7.7,0,0,1,6.8-3.84c5.1,0,9.23,3.84,9.23,11.31v.34c0,7.51-4.13,11.27-9.27,11.27-3.3,0-5.68-1.55-6.76-3.72v10.52H90.77Zm15.9,11.07v-.34c0-3.84-1.67-5.68-4.3-5.68s-4.34,2-4.34,5.64v.33c0,3.72,1.63,5.6,4.34,5.6S106.67,194.87,106.67,191.28Z" fill="#fff"/><path d="M21,238.15v-.33c0-7,5.22-11.44,12-11.44s11.89,4.3,11.89,11.23v.33c0,7.1-5.21,11.36-11.94,11.36S21,245.21,21,238.15ZM37.33,238v-.34c0-3.67-1.47-5.72-4.3-5.72s-4.35,2-4.35,5.64v.33c0,3.76,1.46,5.81,4.35,5.81S37.33,241.66,37.33,238Z" fill="#fff"/><path d="M48.68,232.06H45.93V227h2.75v-1.67c0-5.42,3.34-8,8.52-8a12.54,12.54,0,0,1,3.34.42v5.47a6.46,6.46,0,0,0-2-.3,2.19,2.19,0,0,0-2.42,2.38V227h6.35V225c0-5.43,3.42-8,8.56-8a13.35,13.35,0,0,1,3.42.46V223a7.1,7.1,0,0,0-2-.29A2.18,2.18,0,0,0,69.93,225V227h4.43v5.1H69.93V248.8H62.46V232.06H56.11V248.8H48.68Z" fill="#fff"/><path d="M23.21,288.53v-9.72H20.58v-5.1h2.63v-4.55h7.48v4.55H35v5.1h-4.3v9c0,1.59.79,2.3,2.21,2.3a5.7,5.7,0,0,0,2.13-.38v5.68a15.67,15.67,0,0,1-4.13.63C26,296.05,23.21,293.67,23.21,288.53Z" fill="#fff"/><path d="M36.66,289.49c0-5.13,4.34-7.14,11.6-7.14h2.09v-.5c0-2.08-.5-3.46-2.88-3.46a2.67,2.67,0,0,0-3,2.59h-7c.34-5.26,4.47-7.85,10.44-7.85s9.85,2.46,9.85,8.26v14.16H50.52V293c-1.05,1.59-3,3.05-6.47,3.05C40.12,296.05,36.66,294.13,36.66,289.49Zm13.69-1.58v-1.34h-2c-3,0-4.34.59-4.34,2.38,0,1.25.83,2.05,2.59,2.05C48.76,291,50.35,289.79,50.35,287.91Z" fill="#fff"/><path d="M66.93,284.44l-6.81-10.73h8.6l3.38,5.76,3.3-5.76h7.68l-6.89,10.15,7.56,11.69h-8.6L71.27,289l-4,6.52H59.66Z" fill="#fff"/><path d="M82.79,284.9v-.33c0-7,5.22-11.44,11.82-11.44,6,0,11.1,3.42,11.1,11.27v2H90.35c.21,2.88,1.88,4.55,4.55,4.55,2.46,0,3.5-1.12,3.8-2.59h7c-.67,4.93-4.47,7.73-11.06,7.73C87.8,296.05,82.79,292,82.79,284.9Zm15.66-2.75c-.13-2.63-1.42-4.1-3.84-4.1-2.26,0-3.8,1.47-4.18,4.1Z" fill="#fff"/><path d="M107.05,288.62h6.89c.25,1.58,1,2.46,3.08,2.46,1.84,0,2.68-.71,2.68-1.8s-1-1.54-4-2c-5.85-.75-8.31-2.46-8.31-7,0-4.84,4.3-7.18,9.35-7.18,5.39,0,9.14,1.83,9.64,7.05h-6.76c-.29-1.46-1.08-2.17-2.8-2.17s-2.46.71-2.46,1.71,1,1.47,3.67,1.8c6.06.75,9,2.34,9,7,0,5.18-3.84,7.52-9.89,7.52C110.85,296.05,107.21,293.46,107.05,288.62Z" fill="#fff"/><path d="M129.09,291.79a4.17,4.17,0,0,1,4.26-4.22,4.22,4.22,0,1,1,0,8.44A4.17,4.17,0,0,1,129.09,291.79Z" fill="#fff"/></g></g></g></svg>