<svg xmlns="http://www.w3.org/2000/svg" viewBox="0 0 156 35"><title>cta_lrg</title><g id="Layer_2" data-name="Layer 2"><g id="Encuentra_una_oficina" data-name="Encuentra una oficina"><path d="M9.63,12.28H16V14H11.83v2.26h3.33v1.61H11.83v2.41h4.39V22H9.63Z" fill="#262626"/><path d="M17.38,14.88h2V16a2.5,2.5,0,0,1,2.33-1.29c1.41,0,2.4.84,2.4,2.74V22h-2V17.75c0-1-.38-1.43-1.26-1.43a1.42,1.42,0,0,0-1.49,1.56V22h-2Z" fill="#262626"/><path d="M25.15,18.52v-.11a3.54,3.54,0,0,1,3.69-3.69c1.65,0,3.19.72,3.36,2.76H30.33a1.31,1.31,0,0,0-1.45-1.21c-1,0-1.71.76-1.71,2.11v.11c0,1.43.64,2.16,1.75,2.16a1.44,1.44,0,0,0,1.53-1.37h1.79c-.1,1.68-1.34,2.85-3.41,2.85A3.42,3.42,0,0,1,25.15,18.52Z" fill="#262626"/><path d="M33.23,19.46V14.88h2v4.31c0,1,.4,1.42,1.24,1.42a1.42,1.42,0,0,0,1.49-1.56V14.88h2V22h-2V20.87a2.35,2.35,0,0,1-2.26,1.26C34.27,22.13,33.23,21.31,33.23,19.46Z" fill="#262626"/><path d="M41,18.52v-.11a3.54,3.54,0,0,1,3.68-3.69,3.28,3.28,0,0,1,3.49,3.61v.54H43a1.71,1.71,0,0,0,1.78,1.86c.92,0,1.37-.39,1.49-1h1.87c-.23,1.53-1.46,2.39-3.41,2.39A3.46,3.46,0,0,1,41,18.52Zm5.24-.85c-.07-1.08-.62-1.59-1.56-1.59a1.63,1.63,0,0,0-1.64,1.59Z" fill="#262626"/><path d="M49.27,14.88h2V16a2.47,2.47,0,0,1,2.32-1.29c1.41,0,2.41.84,2.41,2.74V22H54V17.75c0-1-.38-1.43-1.25-1.43a1.41,1.41,0,0,0-1.49,1.56V22h-2Z" fill="#262626"/><path d="M57.78,19.88v-3.6h-.92v-1.4h.92V13.35h2v1.53h1.5v1.4h-1.5V19.7c0,.57.29.84.79.84a1.93,1.93,0,0,0,.75-.13v1.51a3.44,3.44,0,0,1-1.2.2A2,2,0,0,1,57.78,19.88Z" fill="#262626"/><path d="M62.43,14.88h2v1.36a2.34,2.34,0,0,1,2.31-1.46v1.83c-1.46,0-2.31.46-2.31,1.82V22h-2Z" fill="#262626"/><path d="M67.23,20c0-1.65,1.53-2.28,3.72-2.28h.81v-.28c0-.84-.26-1.3-1.17-1.3a1.07,1.07,0,0,0-1.21,1H67.5c.13-1.68,1.47-2.43,3.22-2.43s3,.71,3,2.63V22H71.78v-.86a2.44,2.44,0,0,1-2.16,1C68.32,22.13,67.23,21.5,67.23,20Zm4.53-.51v-.6H71c-1.15,0-1.82.24-1.82,1,0,.52.32.86,1,.86C71.09,20.76,71.76,20.28,71.76,19.5Z" fill="#262626"/><path d="M78,19.46V14.88h2v4.31c0,1,.39,1.42,1.24,1.42a1.42,1.42,0,0,0,1.49-1.56V14.88h2V22h-2V20.87a2.37,2.37,0,0,1-2.27,1.26C79,22.13,78,21.31,78,19.46Z" fill="#262626"/><path d="M86.2,14.88h2V16a2.49,2.49,0,0,1,2.32-1.29c1.41,0,2.41.84,2.41,2.74V22h-2V17.75c0-1-.38-1.43-1.26-1.43a1.41,1.41,0,0,0-1.49,1.56V22h-2Z" fill="#262626"/><path d="M93.94,20c0-1.65,1.53-2.28,3.72-2.28h.8v-.28c0-.84-.25-1.3-1.16-1.3a1.07,1.07,0,0,0-1.21,1H94.21c.13-1.68,1.47-2.43,3.22-2.43s3,.71,3,2.63V22H98.49v-.86a2.44,2.44,0,0,1-2.16,1C95,22.13,93.94,21.5,93.94,20Zm4.52-.51v-.6H97.7c-1.15,0-1.82.24-1.82,1,0,.52.32.86,1,.86C97.79,20.76,98.46,20.28,98.46,19.5Z" fill="#262626"/><path d="M104.31,18.51V18.4a3.77,3.77,0,0,1,7.53,0v.11a3.77,3.77,0,0,1-7.53,0Zm5.52,0v-.1c0-1.35-.64-2.17-1.75-2.17s-1.75.79-1.75,2.15v.11c0,1.35.63,2.17,1.75,2.17S109.83,19.82,109.83,18.48Z" fill="#262626"/><path d="M113.29,16.28h-.94v-1.4h.94v-.81a2.28,2.28,0,0,1,2.56-2.48,3.42,3.42,0,0,1,1,.13V13.2a2.4,2.4,0,0,0-.72-.12.82.82,0,0,0-.89.94v.86h1.56v1.4h-1.56V22h-2Z" fill="#262626"/><path d="M117.73,12.85a1.13,1.13,0,1,1,1.13,1.07A1.09,1.09,0,0,1,117.73,12.85Zm.15,2h2V22h-2Z" fill="#262626"/><path d="M121,18.52v-.11a3.54,3.54,0,0,1,3.69-3.69c1.66,0,3.19.72,3.37,2.76h-1.88a1.31,1.31,0,0,0-1.45-1.21c-1,0-1.71.76-1.71,2.11v.11c0,1.43.65,2.16,1.75,2.16a1.45,1.45,0,0,0,1.54-1.37h1.79c-.11,1.68-1.34,2.85-3.42,2.85A3.42,3.42,0,0,1,121,18.52Z" fill="#262626"/><path d="M129.07,12.85a1.13,1.13,0,1,1,1.12,1.07A1.08,1.08,0,0,1,129.07,12.85Zm.15,2h2V22h-2Z" fill="#262626"/><path d="M132.81,14.88h2V16a2.47,2.47,0,0,1,2.32-1.29c1.41,0,2.41.84,2.41,2.74V22h-2V17.75c0-1-.39-1.43-1.26-1.43a1.41,1.41,0,0,0-1.49,1.56V22h-2Z" fill="#262626"/><path d="M140.55,20c0-1.65,1.53-2.28,3.71-2.28h.81v-.28c0-.84-.26-1.3-1.16-1.3a1.07,1.07,0,0,0-1.22,1h-1.87c.12-1.68,1.46-2.43,3.21-2.43s3,.71,3,2.63V22H145.1v-.86a2.44,2.44,0,0,1-2.16,1C141.64,22.13,140.55,21.5,140.55,20Zm4.52-.51v-.6h-.76c-1.15,0-1.82.24-1.82,1,0,.52.31.86,1,.86S145.07,20.28,145.07,19.5Z" fill="#262626"/><rect width="156" height="35" fill="none"/></g></g></svg>