<svg xmlns="http://www.w3.org/2000/svg" viewBox="0 0 300 600"><title>H124</title><g id="Layer_2" data-name="Layer 2"><g id="Rect"><rect width="300" height="600" fill="none"/></g><g id="H124"><g id="Profesionales_de_taxes_bilingües._Tenemos_buen_domino_del_esp" data-name="Profesionales de taxes bilingües.  Tenemos buen domino del  esp"><path d="M21.5,104.43h9.83c7.09,0,10.38,3.12,10.38,8.57v.15c0,5.38-3.65,8.28-10,8.28H28.87v8.64H21.5Zm9.51,12c2.38,0,3.65-1.11,3.65-3.23V113c0-2.19-1.3-3.08-3.62-3.08H28.87v6.45Z" fill="#fff"/><path d="M44,111.32h6.47v3.73a6,6,0,0,1,6.12-4v6c-3.95-.11-6.12,1.11-6.12,4.12v8.89H44Z" fill="#fff"/><path d="M57.69,120.93v-.29c0-6,4.52-9.82,10.38-9.82s10.31,3.69,10.31,9.64v.29c0,6.09-4.52,9.75-10.35,9.75S57.69,127,57.69,120.93Zm14.11-.11v-.29c0-3.15-1.27-4.91-3.73-4.91s-3.76,1.69-3.76,4.84v.29c0,3.23,1.27,5,3.76,5S71.8,123.94,71.8,120.82Z" fill="#fff"/><path d="M81.63,115.69H79.24v-4.37h2.39v-1.65c0-4.66,2.93-6.89,7.41-6.89a11.41,11.41,0,0,1,3,.4v4.7a5.76,5.76,0,0,0-1.77-.26,1.9,1.9,0,0,0-2.17,2v1.65H91.9v4.37H88.07v14.38H81.63Z" fill="#fff"/><path d="M92.41,120.93v-.29c0-6,4.52-9.82,10.23-9.82,5.17,0,9.62,2.94,9.62,9.68v1.68H99c.18,2.48,1.63,3.91,3.94,3.91,2.14,0,3-1,3.29-2.22h6.08c-.58,4.23-3.87,6.63-9.58,6.63C96.75,130.5,92.41,127.06,92.41,120.93ZM106,118.56c-.11-2.26-1.23-3.51-3.33-3.51s-3.29,1.25-3.62,3.51Z" fill="#fff"/><path d="M113.42,124.12h6c.22,1.36.83,2.11,2.68,2.11,1.59,0,2.31-.6,2.31-1.54s-.9-1.32-3.51-1.68c-5.06-.65-7.19-2.12-7.19-6,0-4.16,3.72-6.16,8.1-6.16,4.66,0,7.92,1.57,8.35,6.06h-5.86a2.11,2.11,0,0,0-2.42-1.87c-1.41,0-2.13.61-2.13,1.47s.87,1.26,3.18,1.54c5.24.65,7.78,2,7.78,6,0,4.44-3.33,6.45-8.58,6.45S113.56,128.28,113.42,124.12Z" fill="#fff"/><path d="M132.62,106.23a3.57,3.57,0,1,1,3.54,3.29A3.33,3.33,0,0,1,132.62,106.23Zm.32,5.09h6.48v18.75h-6.48Z" fill="#fff"/><path d="M141.87,120.93v-.29c0-6,4.52-9.82,10.38-9.82s10.31,3.69,10.31,9.64v.29c0,6.09-4.52,9.75-10.34,9.75S141.87,127,141.87,120.93Zm14.11-.11v-.29c0-3.15-1.27-4.91-3.73-4.91s-3.76,1.69-3.76,4.84v.29c0,3.23,1.27,5,3.76,5S156,123.94,156,120.82Z" fill="#fff"/><path d="M164.84,111.32h6.47v3a6.67,6.67,0,0,1,6.22-3.51c3.65,0,6.18,2.26,6.18,7.06v12.19h-6.47v-10.9c0-2.11-.83-3.15-2.71-3.15s-3.22,1.14-3.22,3.55v10.5h-6.47Z" fill="#fff"/><path d="M185.77,124.87c0-4.41,3.76-6.13,10.06-6.13h1.8v-.43c0-1.79-.43-3-2.49-3a2.32,2.32,0,0,0-2.57,2.23H186.5c.29-4.52,3.87-6.74,9-6.74s8.53,2.11,8.53,7.1v12.15h-6.29v-2.19c-.9,1.37-2.57,2.62-5.61,2.62C188.77,130.5,185.77,128.85,185.77,124.87Zm11.86-1.36v-1.15h-1.69c-2.61,0-3.77.5-3.77,2,0,1.07.73,1.75,2.25,1.75C196.26,126.16,197.63,125.12,197.63,123.51Z" fill="#fff"/><path d="M207.4,103.07h6.43v27H207.4Z" fill="#fff"/><path d="M216.29,120.93v-.29c0-6,4.52-9.82,10.24-9.82,5.17,0,9.62,2.94,9.62,9.68v1.68H222.84c.18,2.48,1.62,3.91,3.94,3.91,2.13,0,3-1,3.29-2.22h6.08c-.58,4.23-3.87,6.63-9.59,6.63C220.63,130.5,216.29,127.06,216.29,120.93Zm13.56-2.37c-.11-2.26-1.23-3.51-3.32-3.51s-3.29,1.25-3.62,3.51Z" fill="#fff"/><path d="M237.3,124.12h6c.22,1.36.83,2.11,2.67,2.11,1.6,0,2.32-.6,2.32-1.54s-.91-1.32-3.51-1.68c-5.06-.65-7.2-2.12-7.2-6,0-4.16,3.73-6.16,8.11-6.16,4.66,0,7.92,1.57,8.35,6.06h-5.86a2.11,2.11,0,0,0-2.42-1.87c-1.41,0-2.14.61-2.14,1.47s.87,1.26,3.19,1.54c5.24.65,7.77,2,7.77,6,0,4.44-3.33,6.45-8.57,6.45S237.45,128.28,237.3,124.12Z" fill="#fff"/><path d="M20,160.63v-.29c0-6.38,3.54-9.79,8-9.79a6.14,6.14,0,0,1,5.83,3.16V142.8H40.3v27H33.83v-3.05a6.4,6.4,0,0,1-5.9,3.48C23.56,170.24,20,167.12,20,160.63Zm14-.11v-.29c0-3.15-1.34-4.84-3.73-4.84s-3.72,1.61-3.72,4.88v.28c0,3.16,1.41,4.77,3.65,4.77S34,163.71,34,160.52Z" fill="#fff"/><path d="M42.58,160.66v-.28c0-6,4.52-9.83,10.23-9.83,5.17,0,9.62,2.94,9.62,9.68v1.69H49.12c.18,2.47,1.63,3.91,3.94,3.91,2.14,0,3-1,3.29-2.23h6.08c-.58,4.23-3.87,6.64-9.58,6.64C46.92,170.24,42.58,166.79,42.58,160.66Zm13.56-2.36c-.11-2.26-1.23-3.52-3.33-3.52s-3.29,1.26-3.62,3.52Z" fill="#fff"/><path d="M72.12,163.78v-8.35H69.84v-4.38h2.28v-3.91h6.47v3.91h3.73v4.38H78.59v7.74a1.72,1.72,0,0,0,1.92,2,4.83,4.83,0,0,0,1.84-.32v4.88a13.87,13.87,0,0,1-3.58.54C74.51,170.24,72.12,168.19,72.12,163.78Z" fill="#fff"/><path d="M83.76,164.61c0-4.41,3.76-6.14,10.06-6.14h1.81V158c0-1.79-.44-3-2.5-3a2.32,2.32,0,0,0-2.57,2.22H84.49c.29-4.52,3.87-6.74,9-6.74s8.53,2.12,8.53,7.1v12.16H95.77v-2.19c-.9,1.36-2.57,2.62-5.6,2.62C86.77,170.24,83.76,168.59,83.76,164.61Zm11.87-1.37V162.1h-1.7c-2.61,0-3.76.5-3.76,2,0,1.08.72,1.76,2.24,1.76C94.25,165.9,95.63,164.86,95.63,163.24Z" fill="#fff"/><path d="M110,160.27l-5.89-9.22h7.45l2.92,4.95,2.86-4.95H124l-6,8.72,6.54,10H117.1l-3.36-5.6-3.43,5.6h-6.62Z" fill="#fff"/><path d="M123.72,160.66v-.28c0-6,4.52-9.83,10.24-9.83,5.17,0,9.61,2.94,9.61,9.68v1.69h-13.3c.18,2.47,1.62,3.91,3.94,3.91,2.13,0,3-1,3.29-2.23h6.07c-.57,4.23-3.86,6.64-9.58,6.64C128.06,170.24,123.72,166.79,123.72,160.66Zm13.56-2.36c-.11-2.26-1.23-3.52-3.32-3.52s-3.3,1.26-3.62,3.52Z" fill="#fff"/><path d="M144.73,163.85h6c.21,1.37.83,2.12,2.67,2.12,1.59,0,2.32-.61,2.32-1.54s-.91-1.33-3.51-1.69c-5.06-.64-7.2-2.11-7.2-6,0-4.16,3.73-6.17,8.1-6.17,4.67,0,7.92,1.58,8.36,6.06h-5.86a2.1,2.1,0,0,0-2.42-1.86c-1.41,0-2.14.6-2.14,1.47s.87,1.25,3.18,1.54c5.25.64,7.78,2,7.78,6,0,4.45-3.33,6.46-8.57,6.46S144.87,168,144.73,163.85Z" fill="#fff"/><path d="M27.39,206.64v2.9H20.92v-27h6.47v11a6.69,6.69,0,0,1,5.89-3.3c4.42,0,8,3.3,8,9.72v.29c0,6.45-3.58,9.68-8,9.68A6.15,6.15,0,0,1,27.39,206.64Zm7.3-6.35V200c0-3.3-1.44-4.88-3.72-4.88s-3.76,1.69-3.76,4.85v.28c0,3.19,1.41,4.81,3.76,4.81S34.69,203.37,34.69,200.29Z" fill="#fff"/><path d="M43.48,185.69A3.57,3.57,0,1,1,47,189,3.36,3.36,0,0,1,43.48,185.69Zm.33,5.1h6.47v18.75H43.81Z" fill="#fff"/><path d="M53.93,182.54h6.44v27H53.93Z" fill="#fff"/><path d="M63.69,185.69a3.58,3.58,0,1,1,3.55,3.3A3.36,3.36,0,0,1,63.69,185.69Zm.33,5.1h6.47v18.75H64Z" fill="#fff"/><path d="M74,190.79h6.48v3a6.68,6.68,0,0,1,6.22-3.52c3.65,0,6.18,2.26,6.18,7.07v12.19H86.37v-10.9c0-2.12-.83-3.16-2.71-3.16s-3.22,1.15-3.22,3.55v10.51H74Z" fill="#fff"/><path d="M94.94,209.54h6.43c.29,1.36,1.13,2.44,3.48,2.44,2.85,0,4-1.62,4-3.95v-2.86a6.65,6.65,0,0,1-5.86,3.44c-4.41,0-8-3.23-8-9v-.29c0-5.52,3.58-9,8-9a6.18,6.18,0,0,1,5.86,3.16v-2.65h6.47V208c0,5.6-3.72,8.54-10.48,8.54C98.41,216.5,95.44,213.81,94.94,209.54Zm14.1-10v-.25c0-2.58-1.34-4.23-3.72-4.23s-3.73,1.68-3.73,4.27v.28c0,2.58,1.37,4.23,3.69,4.23S109,202.22,109,199.57Z" fill="#fff"/><path d="M118.48,203V190.79H125V202c0,2.12.83,3.16,2.68,3.16s3.21-1.15,3.21-3.55V190.79h6.48v18.75h-6.48v-2.9c-1,1.93-2.85,3.33-6,3.33C121.19,210,118.48,207.75,118.48,203ZM121,185.77a3.1,3.1,0,0,1,6.19,0,3.1,3.1,0,0,1-6.19,0Zm7.71,0a3,3,0,0,1,3.07-3,3.07,3.07,0,0,1,3.11,3,3,3,0,0,1-3.11,3A3,3,0,0,1,128.68,185.77Z" fill="#fff"/><path d="M139.59,200.4v-.29c0-6,4.52-9.83,10.24-9.83,5.17,0,9.62,2.94,9.62,9.69v1.68H146.14c.18,2.47,1.63,3.91,3.94,3.91,2.14,0,3-1,3.29-2.22h6.08c-.58,4.23-3.87,6.63-9.59,6.63C143.93,210,139.59,206.53,139.59,200.4ZM153.16,198c-.11-2.26-1.23-3.51-3.33-3.51s-3.29,1.25-3.62,3.51Z" fill="#fff"/><path d="M160.6,203.59h6c.22,1.36.83,2.11,2.68,2.11,1.59,0,2.31-.61,2.31-1.54s-.9-1.33-3.51-1.68c-5.06-.65-7.19-2.12-7.19-6,0-4.16,3.72-6.17,8.1-6.17,4.66,0,7.92,1.58,8.35,6.06h-5.86a2.11,2.11,0,0,0-2.42-1.86c-1.41,0-2.13.61-2.13,1.47s.86,1.25,3.18,1.54c5.24.65,7.77,2,7.77,6,0,4.44-3.32,6.45-8.57,6.45S160.75,207.75,160.6,203.59Z" fill="#fff"/><path d="M179.7,206.31a3.59,3.59,0,0,1,3.69-3.62,3.62,3.62,0,1,1,0,7.24A3.59,3.59,0,0,1,179.7,206.31Z" fill="#fff"/><path d="M26.45,229.3H19.76v-5.67H40.59v5.67H33.9v20H26.45Z" fill="#fff"/><path d="M39,240.13v-.29c0-6,4.52-9.82,10.23-9.82,5.17,0,9.62,2.94,9.62,9.68v1.68H45.54c.18,2.48,1.63,3.91,3.94,3.91,2.14,0,3-1,3.29-2.22h6.08c-.58,4.23-3.87,6.63-9.58,6.63C43.34,249.7,39,246.26,39,240.13Zm13.56-2.37c-.11-2.26-1.23-3.51-3.33-3.51-1.95,0-3.29,1.25-3.62,3.51Z" fill="#fff"/><path d="M61.09,230.52h6.47v3A6.69,6.69,0,0,1,73.78,230c3.66,0,6.19,2.26,6.19,7.06v12.19H73.5v-10.9c0-2.11-.84-3.15-2.72-3.15s-3.22,1.14-3.22,3.55v10.5H61.09Z" fill="#fff"/><path d="M82.1,240.13v-.29c0-6,4.52-9.82,10.23-9.82,5.18,0,9.62,2.94,9.62,9.68v1.68H88.65c.18,2.48,1.62,3.91,3.94,3.91,2.13,0,3-1,3.29-2.22H102c-.57,4.23-3.87,6.63-9.58,6.63C86.44,249.7,82.1,246.26,82.1,240.13Zm13.56-2.37c-.11-2.26-1.23-3.51-3.33-3.51-2,0-3.29,1.25-3.61,3.51Z" fill="#fff"/><path d="M104.19,230.52h6.48v2.87A6.6,6.6,0,0,1,116.6,230a5.14,5.14,0,0,1,5.13,3.12A7.52,7.52,0,0,1,128,230c3.58,0,6.18,2.29,6.18,7v12.26H127.7V238.08c0-1.9-.94-2.83-2.42-2.83-1.74,0-2.9,1.11-2.9,3.16v10.86H116V238.08c0-1.9-.94-2.83-2.42-2.83-1.73,0-2.89,1.11-2.89,3.16v10.86h-6.48Z" fill="#fff"/><path d="M136.31,240.13v-.29c0-6,4.52-9.82,10.37-9.82S157,233.71,157,239.66V240c0,6.1-4.52,9.75-10.34,9.75S136.31,246.19,136.31,240.13Zm14.1-.11v-.29c0-3.15-1.27-4.91-3.73-4.91s-3.76,1.69-3.76,4.84V240c0,3.23,1.27,5,3.76,5S150.41,243.14,150.41,240Z" fill="#fff"/><path d="M158.11,243.32h6c.21,1.36.83,2.12,2.67,2.12,1.59,0,2.32-.61,2.32-1.55s-.91-1.32-3.51-1.68c-5.06-.65-7.2-2.12-7.2-6,0-4.15,3.73-6.16,8.1-6.16,4.67,0,7.92,1.57,8.36,6.06H169a2.11,2.11,0,0,0-2.42-1.87c-1.41,0-2.14.61-2.14,1.47s.87,1.26,3.18,1.54c5.25.65,7.78,2,7.78,6,0,4.45-3.33,6.45-8.57,6.45S158.25,247.48,158.11,243.32Z" fill="#fff"/><path d="M190.51,246.37v2.9H184v-27h6.47v11a6.68,6.68,0,0,1,5.9-3.3c4.41,0,8,3.3,8,9.71V240c0,6.46-3.58,9.68-8,9.68A6.14,6.14,0,0,1,190.51,246.37Zm7.31-6.35v-.29c0-3.29-1.45-4.87-3.73-4.87s-3.76,1.68-3.76,4.84V240c0,3.19,1.41,4.8,3.76,4.8S197.82,243.11,197.82,240Z" fill="#fff"/><path d="M206.6,242.75V230.52h6.47v11.19c0,2.11.84,3.15,2.68,3.15s3.22-1.15,3.22-3.55V230.52h6.47v18.75H219v-2.9c-1,1.93-2.86,3.33-6,3.33C209.31,249.7,206.6,247.48,206.6,242.75Z" fill="#fff"/><path d="M227.72,240.13v-.29c0-6,4.52-9.82,10.23-9.82,5.17,0,9.62,2.94,9.62,9.68v1.68H234.26c.19,2.48,1.63,3.91,4,3.91,2.13,0,3-1,3.29-2.22h6.07c-.58,4.23-3.87,6.63-9.58,6.63C232.06,249.7,227.72,246.26,227.72,240.13Zm13.56-2.37c-.11-2.26-1.23-3.51-3.33-3.51-1.95,0-3.29,1.25-3.61,3.51Z" fill="#fff"/><path d="M249.81,230.52h6.48v3a6.67,6.67,0,0,1,6.22-3.51c3.65,0,6.18,2.26,6.18,7.06v12.19h-6.47v-10.9c0-2.11-.84-3.15-2.72-3.15s-3.21,1.14-3.21,3.55v10.5h-6.48Z" fill="#fff"/><path d="M20,279.83v-.29c0-6.38,3.54-9.79,8-9.79a6.16,6.16,0,0,1,5.83,3.16V262H40.3v27H33.83V286a6.38,6.38,0,0,1-5.9,3.48C23.56,289.44,20,286.32,20,279.83Zm14-.11v-.29c0-3.15-1.34-4.84-3.73-4.84s-3.72,1.62-3.72,4.88v.29c0,3.15,1.41,4.76,3.65,4.76S34,282.91,34,279.72Z" fill="#fff"/><path d="M42.58,279.86v-.28c0-6,4.52-9.83,10.38-9.83s10.3,3.69,10.3,9.65v.28c0,6.1-4.52,9.76-10.34,9.76S42.58,285.92,42.58,279.86Zm14.1-.1v-.29c0-3.16-1.26-4.91-3.72-4.91s-3.77,1.68-3.77,4.84v.28c0,3.23,1.27,5,3.77,5S56.68,282.88,56.68,279.76Z" fill="#fff"/><path d="M65.54,270.25H72v2.87a6.62,6.62,0,0,1,5.93-3.37,5.17,5.17,0,0,1,5.14,3.12,7.51,7.51,0,0,1,6.25-3.12c3.58,0,6.19,2.3,6.19,7V289H89V277.82c0-1.9-.94-2.83-2.42-2.83-1.73,0-2.89,1.11-2.89,3.15V289h-6.4V277.82c0-1.9-.94-2.83-2.42-2.83-1.74,0-2.9,1.11-2.9,3.15V289H65.54Z" fill="#fff"/><path d="M98.52,265.16a3.57,3.57,0,1,1,3.54,3.3A3.36,3.36,0,0,1,98.52,265.16Zm.32,5.09h6.48V289H98.84Z" fill="#fff"/><path d="M108.79,270.25h6.47v3a6.68,6.68,0,0,1,6.22-3.52c3.65,0,6.19,2.26,6.19,7.06V289h-6.48v-10.9c0-2.12-.83-3.16-2.71-3.16s-3.22,1.15-3.22,3.55V289h-6.47Z" fill="#fff"/><path d="M129.8,279.86v-.28c0-6,4.52-9.83,10.38-9.83s10.3,3.69,10.3,9.65v.28c0,6.1-4.52,9.76-10.34,9.76S129.8,285.92,129.8,279.86Zm14.1-.1v-.29c0-3.16-1.27-4.91-3.72-4.91s-3.77,1.68-3.77,4.84v.28c0,3.23,1.27,5,3.77,5S143.9,282.88,143.9,279.76Z" fill="#fff"/><path d="M158.4,279.83v-.29c0-6.38,3.54-9.79,8-9.79a6.14,6.14,0,0,1,5.82,3.16V262h6.47v27h-6.47V286a6.37,6.37,0,0,1-5.89,3.48C162,289.44,158.4,286.32,158.4,279.83Zm14-.11v-.29c0-3.15-1.34-4.84-3.72-4.84s-3.73,1.62-3.73,4.88v.29c0,3.15,1.41,4.76,3.65,4.76S172.43,282.91,172.43,279.72Z" fill="#fff"/><path d="M181,279.86v-.28c0-6,4.52-9.83,10.23-9.83,5.18,0,9.62,2.94,9.62,9.68v1.69H187.54c.19,2.47,1.63,3.91,4,3.91,2.13,0,3-1,3.29-2.23h6.07c-.58,4.23-3.87,6.64-9.58,6.64C185.34,289.44,181,286,181,279.86Zm13.56-2.36c-.11-2.26-1.23-3.52-3.33-3.52-1.95,0-3.29,1.26-3.61,3.52Z" fill="#fff"/><path d="M203.27,262h6.44v27h-6.44Z" fill="#fff"/><path d="M19.9,319.6v-.29c0-6,4.52-9.83,10.24-9.83,5.17,0,9.62,2.94,9.62,9.69v1.68H26.45c.18,2.48,1.63,3.91,3.94,3.91,2.13,0,3-1,3.29-2.22h6.08c-.58,4.23-3.87,6.63-9.59,6.63C24.24,329.17,19.9,325.73,19.9,319.6Zm13.57-2.37c-.11-2.26-1.23-3.51-3.33-3.51-1.95,0-3.29,1.25-3.62,3.51Z" fill="#fff"/><path d="M40.91,322.79h6c.22,1.36.83,2.11,2.68,2.11,1.59,0,2.31-.61,2.31-1.54s-.9-1.32-3.51-1.68c-5.06-.65-7.19-2.12-7.19-6,0-4.16,3.72-6.17,8.1-6.17,4.66,0,7.92,1.58,8.35,6.06H51.76a2.11,2.11,0,0,0-2.42-1.86c-1.41,0-2.13.61-2.13,1.47s.86,1.26,3.18,1.54c5.24.65,7.77,2,7.77,6,0,4.44-3.32,6.45-8.57,6.45S41.06,327,40.91,322.79Z" fill="#fff"/><path d="M60.26,310h6.47v2.79a6.7,6.7,0,0,1,5.9-3.3c4.41,0,8,3.3,8,9.72v.29c0,6.45-3.58,9.68-8,9.68A6.25,6.25,0,0,1,66.73,326v9H60.26ZM74,319.49v-.29c0-3.3-1.45-4.87-3.73-4.87s-3.76,1.68-3.76,4.84v.28c0,3.19,1.41,4.81,3.76,4.81S74,322.57,74,319.49Z" fill="#fff"/><path d="M81.88,323.54c0-4.41,3.76-6.13,10.06-6.13h1.8V317c0-1.79-.43-3-2.49-3a2.32,2.32,0,0,0-2.57,2.23H82.61c.29-4.52,3.87-6.75,9-6.75s8.53,2.12,8.53,7.1v12.16H93.89v-2.19c-.9,1.37-2.57,2.62-5.61,2.62C84.88,329.17,81.88,327.52,81.88,323.54Zm11.86-1.36V321H92c-2.6,0-3.76.5-3.76,2,0,1.08.73,1.76,2.25,1.76C92.37,324.83,93.74,323.79,93.74,322.18Z" fill="#fff"/><path d="M103.33,310h6.47v3a6.68,6.68,0,0,1,6.22-3.52c3.65,0,6.18,2.26,6.18,7.07v12.19h-6.47v-10.9c0-2.12-.83-3.16-2.71-3.16s-3.22,1.15-3.22,3.55v10.51h-6.47Zm7.48-3.48a1.2,1.2,0,0,0-1.12,1.15h-3.51c.26-3.77,1.92-5.6,4.16-5.6,2,0,3.11,1.22,4.31,1.22.65,0,1-.47,1.15-1.15h3.51c-.29,3.73-2.1,5.56-4.27,5.56S111.93,306.51,110.81,306.51Z" fill="#fff"/><path d="M124.33,319.6v-.29c0-6,4.52-9.83,10.38-9.83s10.31,3.7,10.31,9.65v.29c0,6.09-4.52,9.75-10.34,9.75S124.33,325.66,124.33,319.6Zm14.11-.11v-.29c0-3.15-1.27-4.91-3.73-4.91S131,316,131,319.13v.29c0,3.22,1.27,5,3.76,5S138.44,322.61,138.44,319.49Z" fill="#fff"/><path d="M147.48,301.74h6.44v27h-6.44Z" fill="#fff"/><path d="M169.9,326.84,162.34,310h7l3.91,10,3.62-10h6.18l-10.13,25h-6.18Z" fill="#fff"/><path d="M190.36,319.56v-.29c0-6.38,3.55-9.79,8-9.79a6.13,6.13,0,0,1,5.82,3.16v-10.9h6.48v27h-6.48v-3.05a6.36,6.36,0,0,1-5.89,3.48C193.94,329.17,190.36,326.05,190.36,319.56Zm14-.11v-.28c0-3.16-1.33-4.84-3.72-4.84S197,315.94,197,319.2v.29c0,3.15,1.41,4.77,3.65,4.77S204.39,322.64,204.39,319.45Z" fill="#fff"/><path d="M213,319.6v-.29c0-6,4.52-9.83,10.24-9.83,5.17,0,9.62,2.94,9.62,9.69v1.68H219.51c.18,2.48,1.63,3.91,3.94,3.91,2.13,0,3-1,3.29-2.22h6.08c-.58,4.23-3.87,6.63-9.59,6.63C217.3,329.17,213,325.73,213,319.6Zm13.56-2.37c-.1-2.26-1.23-3.51-3.32-3.51s-3.29,1.25-3.62,3.51Z" fill="#fff"/><path d="M21.1,341.47h6.43v27H21.1Z" fill="#fff"/><path d="M30,359.33V359c0-6,4.52-9.82,10.38-9.82s10.31,3.69,10.31,9.64v.29c0,6.1-4.52,9.76-10.35,9.76S30,365.39,30,359.33Zm14.11-.11v-.28c0-3.16-1.27-4.92-3.73-4.92s-3.76,1.69-3.76,4.84v.29c0,3.23,1.27,5,3.76,5S44.1,362.34,44.1,359.22Z" fill="#fff"/><path d="M51.8,362.52h6c.22,1.36.84,2.12,2.68,2.12,1.59,0,2.31-.61,2.31-1.54s-.9-1.33-3.5-1.69c-5.07-.65-7.2-2.12-7.2-6,0-4.16,3.72-6.17,8.1-6.17,4.67,0,7.92,1.58,8.35,6.06H62.65a2.12,2.12,0,0,0-2.43-1.87c-1.41,0-2.13.61-2.13,1.47s.87,1.26,3.18,1.55c5.25.64,7.78,2,7.78,6,0,4.45-3.33,6.46-8.57,6.46S51.94,366.68,51.8,362.52Z" fill="#fff"/><path d="M78.59,362.45V354.1H76.31v-4.38h2.28v-3.91h6.48v3.91h3.72v4.38H85.07v7.74a1.71,1.71,0,0,0,1.91,2,4.88,4.88,0,0,0,1.85-.32v4.88a14,14,0,0,1-3.58.54C81,368.91,78.59,366.86,78.59,362.45Z" fill="#fff"/><path d="M90.24,363.28c0-4.42,3.76-6.14,10.05-6.14h1.81v-.43c0-1.79-.44-3-2.5-3A2.32,2.32,0,0,0,97,356H91c.29-4.52,3.87-6.74,9-6.74s8.53,2.11,8.53,7.1v12.15h-6.29v-2.18c-.9,1.36-2.57,2.62-5.6,2.62C93.24,368.91,90.24,367.26,90.24,363.28Zm11.86-1.37v-1.15h-1.7c-2.61,0-3.76.51-3.76,2.05,0,1.07.72,1.76,2.24,1.76C100.72,364.57,102.1,363.53,102.1,361.91Z" fill="#fff"/><path d="M116.45,358.94l-5.89-9.22H118l2.93,4.95,2.85-4.95h6.66l-6,8.71,6.55,10h-7.45l-3.37-5.59-3.43,5.59h-6.62Z" fill="#fff"/><path d="M130.19,359.33V359c0-6,4.52-9.82,10.24-9.82,5.17,0,9.62,2.94,9.62,9.68v1.69H136.74c.18,2.47,1.63,3.9,3.94,3.9,2.13,0,3-1,3.29-2.22h6.08c-.58,4.23-3.87,6.64-9.59,6.64C134.53,368.91,130.19,365.46,130.19,359.33ZM143.75,357c-.1-2.25-1.23-3.51-3.32-3.51s-3.29,1.26-3.62,3.51Z" fill="#fff"/><path d="M151.2,362.52h6c.22,1.36.83,2.12,2.67,2.12,1.6,0,2.32-.61,2.32-1.54s-.91-1.33-3.51-1.69c-5.06-.65-7.19-2.12-7.19-6,0-4.16,3.72-6.17,8.1-6.17,4.66,0,7.92,1.58,8.35,6.06h-5.86a2.11,2.11,0,0,0-2.42-1.87c-1.41,0-2.14.61-2.14,1.47s.87,1.26,3.19,1.55c5.24.64,7.77,2,7.77,6,0,4.45-3.33,6.46-8.57,6.46S151.35,366.68,151.2,362.52Z" fill="#fff"/><path d="M170.29,365.25a3.59,3.59,0,0,1,3.69-3.62,3.62,3.62,0,1,1,0,7.24A3.59,3.59,0,0,1,170.29,365.25Z" fill="#fff"/></g></g></g></svg>