<svg xmlns="http://www.w3.org/2000/svg" viewBox="0 0 160 600"><title>H1</title><g id="Layer_2" data-name="Layer 2"><g id="Rect"><rect width="160" height="600" fill="none"/></g><g id="H1"><g id="Up_to_3_500_today._No_interest._No_loan_fees._Starting_Jan_4." data-name="Up to $3,500 today. No interest. No loan fees. Starting Jan 4."><path d="M21.37,104.41V95.33h4.37v8.88c0,2.16.54,3.21,2.39,3.21s2.39-1,2.39-3.27V95.33h4.42v9c0,4.44-2.6,6.51-6.81,6.51S21.37,108.68,21.37,104.41Z" fill="#fff"/><path d="M37,99.43h3.82v1.67a3.94,3.94,0,0,1,3.48-2c2.6,0,4.71,2,4.71,5.79v.17c0,3.84-2.11,5.76-4.73,5.76a3.68,3.68,0,0,1-3.46-1.9v5.38H37Zm8.13,5.66v-.17c0-2-.85-2.9-2.2-2.9s-2.22,1-2.22,2.88v.17c0,1.9.83,2.86,2.22,2.86S45.15,106.93,45.15,105.09Z" fill="#fff"/><path d="M54.82,107v-5H53.48V99.43h1.34V97.11h3.82v2.32h2.2V102h-2.2v4.61a1,1,0,0,0,1.13,1.17,2.86,2.86,0,0,0,1.09-.19v2.9a7.88,7.88,0,0,1-2.11.32C56.23,110.85,54.82,109.64,54.82,107Z" fill="#fff"/><path d="M61.7,105.15V105c0-3.58,2.66-5.85,6.12-5.85s6.09,2.2,6.09,5.75v.17c0,3.63-2.67,5.8-6.11,5.8S61.7,108.76,61.7,105.15Zm8.32-.06v-.17c0-1.88-.75-2.92-2.2-2.92s-2.22,1-2.22,2.88v.17c0,1.92.75,3,2.22,3S70,107,70,105.09Z" fill="#fff"/><path d="M23.59,130c-2.16-.15-3.2-1.29-3.29-2.94h2.3a1.17,1.17,0,0,0,1,1.17v-1.81c-2.17-.31-3.09-1.1-3.09-2.83,0-1.51,1.18-2.59,3.09-2.73v-1.1h1v1.12c1.8.15,2.87,1,3,2.69H25.33a1,1,0,0,0-.77-.94v1.72c1.9.27,3.15.92,3.15,2.73,0,1.52-1,2.79-3.15,2.92v1.56h-1Zm0-5.8v-1.59c-.56.1-.85.4-.85.79S22.91,124,23.59,124.16Zm1,2.38v1.65a.89.89,0,0,0,.83-.88C25.39,126.9,25.22,126.69,24.56,126.54Z" fill="#fff"/><path d="M28.46,131.93h3.89A2,2,0,0,0,34.59,134c1.35,0,2-.64,2-1.72s-.64-1.8-2-1.8H33.37v-2.71h1.14c1.36,0,2-.62,2-1.69,0-.91-.59-1.51-1.75-1.51a2,2,0,0,0-2,1.94H28.89c.19-3,2.2-5.08,6-5.08,3.59,0,5.74,1.64,5.74,4.19a3.25,3.25,0,0,1-2.58,3.28,3.45,3.45,0,0,1,3,3.46c0,2.9-2.16,4.8-6.19,4.8C30.58,137.2,28.59,135.24,28.46,131.93Z" fill="#fff"/><path d="M41.38,138.68l1.79-5.62,3.55,1.26-3.08,5.23Z" fill="#fff"/><path d="M47.42,132.14h4a1.75,1.75,0,0,0,2,1.78c1.26,0,1.83-.94,1.83-2.16a1.94,1.94,0,0,0-2.07-2.18,3.1,3.1,0,0,0-2.51,1.09H48l.32-9H58.63v3.21H51.5l-.08,3.37A4.05,4.05,0,0,1,55,126.64c2.8,0,4.63,1.88,4.63,5.18s-2.32,5.38-6.19,5.38C49.37,137.2,47.53,135,47.42,132.14Z" fill="#fff"/><path d="M60.68,129.65V129c0-4.83,3-7.54,7.05-7.54s7,2.5,7,7.45v.6c0,4.84-2.77,7.68-7.13,7.68S60.68,134.45,60.68,129.65Zm9.71-.05V129c0-2.8-.81-4.21-2.66-4.21s-2.67,1.39-2.67,4.21v.64c0,2.83.83,4.18,2.71,4.18S70.39,132.42,70.39,129.6Z" fill="#fff"/><path d="M76,129.65V129c0-4.83,3-7.54,7-7.54s7,2.5,7,7.45v.6c0,4.84-2.78,7.68-7.13,7.68S76,134.45,76,129.65Zm9.71-.05V129c0-2.8-.81-4.21-2.67-4.21s-2.66,1.39-2.66,4.21v.64c0,2.83.83,4.18,2.71,4.18S85.7,132.42,85.7,129.6Z" fill="#fff"/><path d="M21.64,159.71v-5H20.3v-2.61h1.34v-2.32h3.82v2.32h2.2v2.61h-2.2v4.61a1,1,0,0,0,1.14,1.17,2.94,2.94,0,0,0,1.09-.19v2.9a8,8,0,0,1-2.12.32C23.05,163.55,21.64,162.34,21.64,159.71Z" fill="#fff"/><path d="M28.52,157.85v-.17c0-3.58,2.67-5.85,6.13-5.85s6.08,2.2,6.08,5.75v.17c0,3.63-2.67,5.8-6.11,5.8S28.52,161.46,28.52,157.85Zm8.32-.06v-.17c0-1.88-.74-2.93-2.19-2.93s-2.23,1-2.23,2.89v.17c0,1.92.75,3,2.23,3S36.84,159.65,36.84,157.79Z" fill="#fff"/><path d="M41.52,157.83v-.17c0-3.8,2.09-5.83,4.74-5.83a3.63,3.63,0,0,1,3.44,1.88v-6.49h3.82V163.3H49.7v-1.82a3.76,3.76,0,0,1-3.48,2.07C43.63,163.55,41.52,161.7,41.52,157.83Zm8.28-.06v-.17c0-1.88-.79-2.88-2.2-2.88s-2.19,1-2.19,2.9v.17c0,1.88.83,2.84,2.15,2.84S49.8,159.67,49.8,157.77Z" fill="#fff"/><path d="M54.82,160.2c0-2.62,2.22-3.65,5.94-3.65h1.06v-.25c0-1.07-.25-1.78-1.47-1.78a1.38,1.38,0,0,0-1.52,1.33H55.25c.17-2.69,2.28-4,5.33-4s5,1.26,5,4.23v7.24H61.91V162a3.67,3.67,0,0,1-3.31,1.55C56.59,163.55,54.82,162.57,54.82,160.2Zm7-.81v-.68h-1c-1.54,0-2.22.3-2.22,1.21,0,.65.43,1.05,1.32,1.05A1.68,1.68,0,0,0,61.82,159.39Z" fill="#fff"/><path d="M70.6,162.17l-4.46-10h4.14l2.3,6,2.14-6h3.65l-6,14.9H68.74Z" fill="#fff"/><path d="M77.56,161.38a2.13,2.13,0,0,1,2.18-2.16,2.16,2.16,0,1,1,0,4.31A2.13,2.13,0,0,1,77.56,161.38Z" fill="#fff"/><path d="M21.47,174.38H26.4L31.29,183v-8.61h3.82v15.27H30.89l-5.57-9.59v9.59H21.47Z" fill="#fff"/><path d="M36.65,184.2V184c0-3.58,2.67-5.85,6.13-5.85s6.08,2.2,6.08,5.75v.17c0,3.63-2.66,5.8-6.1,5.8S36.65,187.81,36.65,184.2Zm8.33-.06V184c0-1.88-.75-2.93-2.2-2.93s-2.22,1-2.22,2.89v.17c0,1.92.75,3,2.22,3S45,186,45,184.14Z" fill="#fff"/><path d="M54,175.45a2,2,0,0,1,2.09-2,2,2,0,1,1,0,3.95A2,2,0,0,1,54,175.45Zm.19,3H58v11.17H54.2Z" fill="#fff"/><path d="M60.07,178.48h3.82v1.8a4,4,0,0,1,3.68-2.1c2.15,0,3.65,1.35,3.65,4.21v7.26H67.4v-6.49c0-1.26-.5-1.88-1.61-1.88s-1.9.68-1.9,2.11v6.26H60.07Z" fill="#fff"/><path d="M73.59,186.06v-5H72.24v-2.61h1.35v-2.32h3.82v2.32h2.2v2.61h-2.2v4.61c0,.81.4,1.17,1.13,1.17a2.86,2.86,0,0,0,1.09-.19v2.9a8,8,0,0,1-2.11.32C75,189.9,73.59,188.69,73.59,186.06Z" fill="#fff"/><path d="M80.46,184.2V184a5.72,5.72,0,0,1,6-5.85c3.06,0,5.68,1.76,5.68,5.77v1H84.33a2.23,2.23,0,0,0,2.32,2.33c1.26,0,1.8-.58,1.95-1.33h3.58c-.34,2.52-2.28,4-5.65,4S80.46,187.85,80.46,184.2Zm8-1.4c-.07-1.35-.73-2.1-2-2.1a2.12,2.12,0,0,0-2.13,2.1Z" fill="#fff"/><path d="M93.51,178.48h3.82v2.22a3.53,3.53,0,0,1,3.61-2.37v3.57c-2.33-.07-3.61.66-3.61,2.45v5.3H93.51Z" fill="#fff"/><path d="M101.62,184.2V184a5.72,5.72,0,0,1,6-5.85c3,0,5.68,1.76,5.68,5.77v1h-7.86a2.24,2.24,0,0,0,2.33,2.33c1.26,0,1.79-.58,1.94-1.33h3.59c-.34,2.52-2.28,4-5.66,4S101.62,187.85,101.62,184.2Zm8-1.4c-.06-1.35-.72-2.1-2-2.1a2.12,2.12,0,0,0-2.13,2.1Z" fill="#fff"/><path d="M114,186.1h3.53c.12.82.49,1.26,1.58,1.26s1.36-.36,1.36-.91-.53-.79-2.07-1c-3-.38-4.25-1.26-4.25-3.58,0-2.48,2.2-3.68,4.79-3.68,2.75,0,4.67.94,4.93,3.61h-3.46a1.25,1.25,0,0,0-1.43-1.11c-.83,0-1.26.36-1.26.88s.51.74,1.88.92c3.09.38,4.59,1.19,4.59,3.58,0,2.65-2,3.84-5.06,3.84S114.11,188.58,114,186.1Z" fill="#fff"/><path d="M126,186.06v-5h-1.35v-2.61H126v-2.32h3.82v2.32H132v2.61h-2.2v4.61a1,1,0,0,0,1.13,1.17,2.86,2.86,0,0,0,1.09-.19v2.9a8,8,0,0,1-2.11.32C127.37,189.9,126,188.69,126,186.06Z" fill="#fff"/><path d="M133.28,187.73a2.13,2.13,0,0,1,2.18-2.16,2.16,2.16,0,1,1,0,4.31A2.13,2.13,0,0,1,133.28,187.73Z" fill="#fff"/><path d="M21.47,200.73H26.4l4.89,8.61v-8.61h3.82V216H30.89l-5.57-9.59V216H21.47Z" fill="#fff"/><path d="M36.65,210.55v-.17c0-3.58,2.67-5.85,6.13-5.85s6.08,2.2,6.08,5.75v.17c0,3.63-2.66,5.8-6.1,5.8S36.65,214.16,36.65,210.55Zm8.33-.06v-.17c0-1.88-.75-2.92-2.2-2.92s-2.22,1-2.22,2.88v.17c0,1.92.75,3,2.22,3S45,212.35,45,210.49Z" fill="#fff"/><path d="M54.2,199.92H58V216H54.2Z" fill="#fff"/><path d="M59.45,210.55v-.17c0-3.58,2.67-5.85,6.13-5.85s6.09,2.2,6.09,5.75v.17c0,3.63-2.67,5.8-6.11,5.8S59.45,214.16,59.45,210.55Zm8.33-.06v-.17c0-1.88-.75-2.92-2.2-2.92s-2.22,1-2.22,2.88v.17c0,1.92.75,3,2.22,3S67.78,212.35,67.78,210.49Z" fill="#fff"/><path d="M72.37,212.9c0-2.62,2.22-3.65,5.94-3.65h1.06V209c0-1.07-.25-1.78-1.47-1.78a1.38,1.38,0,0,0-1.52,1.33H72.8c.17-2.69,2.28-4,5.33-4s5,1.26,5,4.23V216H79.46v-1.3a3.68,3.68,0,0,1-3.31,1.55C74.14,216.25,72.37,215.27,72.37,212.9Zm7-.81v-.68h-1c-1.54,0-2.22.3-2.22,1.21,0,.65.43,1,1.32,1A1.68,1.68,0,0,0,79.37,212.09Z" fill="#fff"/><path d="M85,204.83h3.82v1.8a3.94,3.94,0,0,1,3.67-2.1c2.16,0,3.65,1.35,3.65,4.21V216H92.35v-6.49c0-1.26-.49-1.88-1.6-1.88s-1.9.68-1.9,2.11V216H85Z" fill="#fff"/><path d="M21.71,233.79H20.3v-2.61h1.41v-1c0-2.77,1.73-4.1,4.37-4.1a6.66,6.66,0,0,1,1.75.24v2.79a3.59,3.59,0,0,0-1-.15,1.12,1.12,0,0,0-1.28,1.22v1h2.26v2.61H25.51v8.56h-3.8Z" fill="#fff"/><path d="M28.07,236.9v-.17a5.72,5.72,0,0,1,6-5.85c3,0,5.68,1.75,5.68,5.77v1H31.93A2.24,2.24,0,0,0,34.26,240c1.26,0,1.79-.58,1.94-1.33h3.59c-.34,2.52-2.28,3.95-5.66,3.95S28.07,240.55,28.07,236.9Zm8-1.4c-.07-1.35-.73-2.1-2-2.1A2.12,2.12,0,0,0,32,235.5Z" fill="#fff"/><path d="M40.52,236.9v-.17a5.72,5.72,0,0,1,6-5.85c3,0,5.68,1.75,5.68,5.77v1H44.38A2.24,2.24,0,0,0,46.71,240c1.26,0,1.79-.58,1.94-1.33h3.59c-.34,2.52-2.29,3.95-5.66,3.95S40.52,240.55,40.52,236.9Zm8-1.4c-.06-1.35-.72-2.1-2-2.1a2.14,2.14,0,0,0-2.14,2.1Z" fill="#fff"/><path d="M52.92,238.8h3.52c.13.82.49,1.26,1.58,1.26.94,0,1.37-.36,1.37-.91s-.53-.79-2.07-1c-3-.38-4.25-1.26-4.25-3.58,0-2.48,2.2-3.68,4.78-3.68,2.76,0,4.68.94,4.93,3.61H59.33a1.26,1.26,0,0,0-1.43-1.11c-.84,0-1.26.37-1.26.88s.51.74,1.87.92c3.1.38,4.59,1.19,4.59,3.58,0,2.65-2,3.84-5.06,3.84S53,241.28,52.92,238.8Z" fill="#fff"/><path d="M64.19,240.43a2.13,2.13,0,0,1,2.18-2.16,2.16,2.16,0,1,1,0,4.31A2.13,2.13,0,0,1,64.19,240.43Z" fill="#fff"/><path d="M20.49,263.85h4.16c.11,1.09.6,2,2.42,2,1.26,0,2-.62,2-1.52s-.58-1.19-2.41-1.47c-4.31-.51-5.77-1.79-5.77-4.87,0-2.75,2.27-4.76,5.92-4.76s5.74,1.54,6,4.76H28.73a1.73,1.73,0,0,0-2-1.64c-1.18,0-1.77.53-1.77,1.3s.46,1.24,2.36,1.49c3.87.43,5.85,1.43,5.85,4.74,0,2.8-2.22,5.08-6.14,5.08C22.8,269,20.62,267.16,20.49,263.85Z" fill="#fff"/><path d="M35.14,265.11v-5H33.79v-2.61h1.35v-2.32H39v2.32h2.2v2.61H39v4.61c0,.81.4,1.17,1.13,1.17a2.86,2.86,0,0,0,1.09-.19v2.9a8,8,0,0,1-2.12.32C36.55,269,35.14,267.74,35.14,265.11Z" fill="#fff"/><path d="M42,265.6C42,263,44.23,262,48,262H49v-.25c0-1.07-.25-1.78-1.47-1.78A1.38,1.38,0,0,0,46,261.25H42.44c.17-2.69,2.28-4,5.33-4s5,1.26,5,4.23v7.24H49.1v-1.3A3.68,3.68,0,0,1,45.79,269C43.78,269,42,268,42,265.6Zm7-.81v-.68H48c-1.54,0-2.22.3-2.22,1.22,0,.64.43,1,1.32,1A1.68,1.68,0,0,0,49,264.79Z" fill="#fff"/><path d="M54.67,257.53h3.82v2.22a3.53,3.53,0,0,1,3.61-2.37V261c-2.33-.07-3.61.66-3.61,2.45v5.3H54.67Z" fill="#fff"/><path d="M64.17,265.11v-5H62.83v-2.61h1.34v-2.32H68v2.32h2.2v2.61H68v4.61a1,1,0,0,0,1.13,1.17,2.86,2.86,0,0,0,1.09-.19v2.9a7.88,7.88,0,0,1-2.11.32C65.58,269,64.17,267.74,64.17,265.11Z" fill="#fff"/><path d="M71.56,254.5a2.1,2.1,0,1,1,2.09,2A2,2,0,0,1,71.56,254.5Zm.19,3h3.82V268.7H71.75Z" fill="#fff"/><path d="M77.62,257.53h3.82v1.8a4,4,0,0,1,3.68-2.1c2.15,0,3.65,1.35,3.65,4.21v7.26H84.94v-6.49c0-1.26-.49-1.88-1.6-1.88s-1.9.68-1.9,2.11v6.26H77.62Z" fill="#fff"/><path d="M90,268.7h3.8c.18.81.67,1.45,2,1.45a2.11,2.11,0,0,0,2.37-2.35v-1.71a3.9,3.9,0,0,1-3.45,2.05c-2.61,0-4.74-1.92-4.74-5.36v-.17c0-3.28,2.11-5.38,4.74-5.38a3.62,3.62,0,0,1,3.45,1.88v-1.58H102v10.23c0,3.33-2.19,5.08-6.19,5.08C92.05,272.84,90.3,271.24,90,268.7Zm8.33-5.94v-.15c0-1.53-.79-2.51-2.2-2.51s-2.2,1-2.2,2.54v.17c0,1.53.81,2.52,2.18,2.52S98.33,264.34,98.33,262.76Z" fill="#fff"/><path d="M20.7,294.73v-3.27a5.25,5.25,0,0,0,1.86.3c1.2,0,2-.53,2-2.11v-9.87h4.39v9.91c0,3.67-1.87,5.55-5.46,5.55A5.89,5.89,0,0,1,20.7,294.73Z" fill="#fff"/><path d="M30.16,292c0-2.62,2.22-3.65,5.94-3.65h1.06v-.25c0-1.07-.25-1.78-1.47-1.78a1.37,1.37,0,0,0-1.51,1.33H30.59c.17-2.69,2.28-4,5.34-4s5,1.26,5,4.23v7.24H37.25v-1.3a3.67,3.67,0,0,1-3.31,1.55C31.93,295.3,30.16,294.32,30.16,292Zm7-.81v-.68h-1c-1.54,0-2.22.3-2.22,1.21,0,.65.43,1.05,1.32,1.05A1.68,1.68,0,0,0,37.16,291.14Z" fill="#fff"/><path d="M42.82,283.88h3.82v1.8a4,4,0,0,1,3.68-2.1c2.15,0,3.65,1.35,3.65,4.21v7.26H50.15v-6.49c0-1.26-.5-1.88-1.61-1.88s-1.9.68-1.9,2.11v6.26H42.82Z" fill="#fff"/><path d="M66.39,292.12H59v-1.64l6.36-10.7H70.6v9.33h2v3h-2v2.93H66.39Zm.11-3v-6l-3.42,6Z" fill="#fff"/><path d="M73.5,293.13A2.13,2.13,0,0,1,75.68,291a2.16,2.16,0,1,1,0,4.31A2.13,2.13,0,0,1,73.5,293.13Z" fill="#fff"/></g></g><g id="legal"><g id="Optional_loan_from_Axos_Bank_within_minutes_of_filing._Not_your" data-name="Optional loan from Axos Bank within minutes of filing. Not your"><path d="M20.5,397.78v-.07a3.16,3.16,0,1,1,6.31,0v.07a3.16,3.16,0,1,1-6.31,0Zm5.5,0v-.07a2.36,2.36,0,1,0-4.69,0v.07a2.42,2.42,0,0,0,2.37,2.62A2.35,2.35,0,0,0,26,397.75Z" fill="#fff"/><path d="M27.92,396.25h.75V397a1.93,1.93,0,0,1,1.59-.87,2.14,2.14,0,0,1,2.14,2.37v.07A2.17,2.17,0,0,1,30.26,401a1.78,1.78,0,0,1-1.59-.86v2.42h-.75Zm3.71,2.39v-.07c0-1.19-.66-1.78-1.45-1.78s-1.54.58-1.54,1.78v.07c0,1.21.63,1.78,1.55,1.78S31.63,399.79,31.63,398.64Z" fill="#fff"/><path d="M33.59,399.78v-2.9h-.67v-.63h.67v-1.07h.75v1.07h1.1v.63h-1.1v2.83c0,.46.2.68.58.68a1.59,1.59,0,0,0,.58-.1v.63a1.85,1.85,0,0,1-.64.1A1.14,1.14,0,0,1,33.59,399.78Z" fill="#fff"/><path d="M36.37,394.77a.5.5,0,0,1,.5-.49.49.49,0,0,1,.49.49.5.5,0,0,1-.49.5A.51.51,0,0,1,36.37,394.77Zm.14,1.48h.74V401h-.74Z" fill="#fff"/><path d="M38.3,398.64v-.07a2.31,2.31,0,1,1,4.62,0v.07a2.31,2.31,0,1,1-4.62,0Zm3.85,0v-.06c0-1.09-.6-1.79-1.54-1.79a1.56,1.56,0,0,0-1.54,1.78v.07c0,1.07.59,1.78,1.54,1.78S42.15,399.71,42.15,398.64Z" fill="#fff"/><path d="M44,396.25h.75V397a1.59,1.59,0,0,1,1.51-.83c1,0,1.66.53,1.66,1.9V401h-.75V398c0-.83-.35-1.19-1.11-1.19a1.23,1.23,0,0,0-1.31,1.28V401H44Z" fill="#fff"/><path d="M48.81,399.65c0-1.09,1.15-1.46,2.36-1.46h.67v-.34c0-.75-.29-1.06-1-1.06s-1,.27-1.08.84H49a1.64,1.64,0,0,1,1.86-1.46,1.52,1.52,0,0,1,1.72,1.68V401h-.75v-.6a1.69,1.69,0,0,1-1.46.68C49.5,401,48.81,400.62,48.81,399.65Zm3-.34v-.59h-.65c-.94,0-1.63.24-1.63.93,0,.49.23.79.89.79S51.84,400,51.84,399.31Z" fill="#fff"/><path d="M53.94,394h.75v7h-.75Z" fill="#fff"/><path d="M58.36,394h.75v7h-.75Z" fill="#fff"/><path d="M60.16,398.64v-.07a2.32,2.32,0,1,1,4.63,0v.07a2.32,2.32,0,1,1-4.63,0Zm3.85,0v-.06c0-1.09-.6-1.79-1.54-1.79a1.56,1.56,0,0,0-1.54,1.78v.07c0,1.07.59,1.78,1.54,1.78S64,399.71,64,398.64Z" fill="#fff"/><path d="M65.42,399.65c0-1.09,1.15-1.46,2.36-1.46h.68v-.34c0-.75-.29-1.06-1-1.06s-1,.27-1.08.84h-.75a1.64,1.64,0,0,1,1.86-1.46,1.52,1.52,0,0,1,1.72,1.68V401h-.74v-.6A1.71,1.71,0,0,1,67,401C66.12,401,65.42,400.62,65.42,399.65Zm3-.34v-.59h-.65c-1,0-1.64.24-1.64.93,0,.49.23.79.89.79S68.46,400,68.46,399.31Z" fill="#fff"/><path d="M70.53,396.25h.75V397a1.61,1.61,0,0,1,1.51-.83c1,0,1.66.53,1.66,1.9V401H73.7V398c0-.83-.35-1.19-1.1-1.19a1.24,1.24,0,0,0-1.32,1.28V401h-.75Z" fill="#fff"/><path d="M78.19,396.88h-.67v-.63h.67v-.77c0-1,.47-1.51,1.41-1.51a1.6,1.6,0,0,1,.56.09v.63a1.62,1.62,0,0,0-.54-.1c-.48,0-.68.33-.68.81v.85h1.15v.63H78.94V401h-.75Z" fill="#fff"/><path d="M81,396.25h.75v.84a1.62,1.62,0,0,1,1.55-.92v.7c-1,.05-1.55.34-1.55,1.5V401H81Z" fill="#fff"/><path d="M83.77,398.64v-.07a2.32,2.32,0,1,1,4.63,0v.07a2.32,2.32,0,1,1-4.63,0Zm3.86,0v-.06c0-1.09-.61-1.79-1.54-1.79s-1.54.7-1.54,1.78v.07c0,1.07.58,1.78,1.54,1.78A1.57,1.57,0,0,0,87.63,398.64Z" fill="#fff"/><path d="M89.42,396.25h.75V397a1.54,1.54,0,0,1,1.41-.8,1.36,1.36,0,0,1,1.37.88,1.84,1.84,0,0,1,1.62-.88c.84,0,1.58.5,1.58,1.87V401H95.4v-3c0-.83-.35-1.17-1-1.17a1.2,1.2,0,0,0-1.24,1.26V401h-.75v-3c0-.83-.35-1.17-1-1.17a1.2,1.2,0,0,0-1.25,1.26V401h-.75Z" fill="#fff"/><path d="M101.51,394.52h1l2.18,6.44h-.78l-.63-1.86h-2.65L100,401H99.3Zm-.64,4h2.24L102,395.17Z" fill="#fff"/><path d="M106.84,398.54l-1.58-2.29h.88l1.15,1.71,1.14-1.71h.81l-1.55,2.23,1.72,2.48h-.89l-1.27-1.9L106,401h-.8Z" fill="#fff"/><path d="M109.7,398.64v-.07a2.32,2.32,0,1,1,4.63,0v.07a2.32,2.32,0,1,1-4.63,0Zm3.85,0v-.06c0-1.09-.6-1.79-1.53-1.79s-1.54.7-1.54,1.78v.07c0,1.07.58,1.78,1.54,1.78S113.55,399.71,113.55,398.64Z" fill="#fff"/><path d="M115,399.51h.73c0,.56.35.91,1.1.91s1-.25,1-.75-.37-.66-1.1-.79c-1.22-.23-1.64-.57-1.64-1.39a1.47,1.47,0,0,1,1.6-1.32,1.51,1.51,0,0,1,1.7,1.36h-.72c-.11-.52-.4-.74-1-.74s-.89.27-.89.67.23.6,1.09.75,1.66.4,1.66,1.4c0,.85-.58,1.43-1.73,1.43S115,400.47,115,399.51Z" fill="#fff"/><path d="M20.81,403.52h1.94c1.19,0,2.07.4,2.07,1.67v0a1.32,1.32,0,0,1-1,1.36,1.42,1.42,0,0,1,1.29,1.54v0c0,1.21-.83,1.8-2.11,1.8H20.81Zm1.94,2.81c.94,0,1.3-.34,1.3-1.14v0c0-.73-.42-1-1.32-1H21.58v2.2Zm.25,3c.93,0,1.37-.41,1.37-1.19v0c0-.79-.44-1.17-1.48-1.17H21.58v2.4Z" fill="#fff"/><path d="M25.83,408.65c0-1.09,1.15-1.46,2.36-1.46h.68v-.34c0-.75-.29-1.06-1-1.06s-1,.27-1.08.84H26a1.64,1.64,0,0,1,1.86-1.46,1.52,1.52,0,0,1,1.72,1.68V410h-.74v-.6a1.72,1.72,0,0,1-1.47.68C26.53,410,25.83,409.62,25.83,408.65Zm3-.34v-.59h-.65c-.95,0-1.64.24-1.64.93,0,.49.23.79.89.79S28.87,409,28.87,408.31Z" fill="#fff"/><path d="M30.94,405.25h.75V406a1.61,1.61,0,0,1,1.51-.83c1,0,1.66.53,1.66,1.9V410h-.75V407c0-.83-.35-1.19-1.1-1.19a1.24,1.24,0,0,0-1.32,1.28V410h-.75Z" fill="#fff"/><path d="M36.19,403h.75v4.42l2-2.17h.88l-2,2.19L39.94,410H39l-2.09-2.44V410h-.75Z" fill="#fff"/><path d="M42.45,405.25h.81L44.35,409l1.15-3.79h.65L47.22,409l1.1-3.79h.77L47.62,410h-.83l-1-3.53L44.71,410H43.9Z" fill="#fff"/><path d="M49.84,403.77a.5.5,0,0,1,.5-.49.49.49,0,0,1,.49.49.5.5,0,0,1-.49.5A.51.51,0,0,1,49.84,403.77Zm.14,1.48h.75V410H50Z" fill="#fff"/><path d="M52.28,408.78v-2.9h-.67v-.63h.67v-1.07H53v1.07h1.1v.63H53v2.83c0,.46.21.68.59.68a1.57,1.57,0,0,0,.57-.1v.63a1.85,1.85,0,0,1-.64.1A1.14,1.14,0,0,1,52.28,408.78Z" fill="#fff"/><path d="M55.18,403h.75v3a1.6,1.6,0,0,1,1.51-.83c1,0,1.66.53,1.66,1.9V410h-.75V407c0-.83-.35-1.19-1.11-1.19a1.23,1.23,0,0,0-1.31,1.28V410h-.75Z" fill="#fff"/><path d="M60.31,403.77a.5.5,0,0,1,.5-.49.49.49,0,0,1,.49.49.5.5,0,0,1-.49.5A.51.51,0,0,1,60.31,403.77Zm.14,1.48h.74V410h-.74Z" fill="#fff"/><path d="M62.59,405.25h.74V406a1.61,1.61,0,0,1,1.52-.83c1,0,1.65.53,1.65,1.9V410h-.74V407c0-.83-.35-1.19-1.11-1.19a1.24,1.24,0,0,0-1.32,1.28V410h-.74Z" fill="#fff"/><path d="M70.08,405.25h.75V406a1.54,1.54,0,0,1,1.41-.8,1.36,1.36,0,0,1,1.37.88,1.84,1.84,0,0,1,1.62-.88c.84,0,1.58.5,1.58,1.87V410h-.75v-3c0-.83-.35-1.17-1-1.17a1.2,1.2,0,0,0-1.24,1.26V410h-.75v-3c0-.83-.35-1.17-1-1.17a1.2,1.2,0,0,0-1.24,1.26V410h-.75Z" fill="#fff"/><path d="M78,403.77a.5.5,0,0,1,.5-.49.49.49,0,0,1,.49.49.5.5,0,0,1-.49.5A.51.51,0,0,1,78,403.77Zm.14,1.48h.74V410h-.74Z" fill="#fff"/><path d="M80.3,405.25h.75V406a1.6,1.6,0,0,1,1.51-.83c1,0,1.66.53,1.66,1.9V410h-.75V407c0-.83-.35-1.19-1.11-1.19a1.23,1.23,0,0,0-1.31,1.28V410H80.3Z" fill="#fff"/><path d="M85.5,408.23v-3h.75v2.94c0,.83.35,1.2,1.09,1.2a1.24,1.24,0,0,0,1.29-1.29v-2.85h.75V410h-.75v-.75a1.59,1.59,0,0,1-1.49.83C86.2,410,85.5,409.52,85.5,408.23Z" fill="#fff"/><path d="M90.92,408.78v-2.9h-.68v-.63h.68v-1.07h.75v1.07h1.09v.63H91.67v2.83c0,.46.2.68.58.68a1.59,1.59,0,0,0,.58-.1v.63a1.89,1.89,0,0,1-.64.1A1.14,1.14,0,0,1,90.92,408.78Z" fill="#fff"/><path d="M93.47,407.65v-.07a2.21,2.21,0,0,1,2.2-2.41,2.06,2.06,0,0,1,2.12,2.34v.24H94.24c0,1.07.55,1.67,1.51,1.67.73,0,1.16-.27,1.25-.82h.75a1.81,1.81,0,0,1-2,1.44A2.21,2.21,0,0,1,93.47,407.65Zm3.55-.5c-.07-1-.57-1.36-1.35-1.36a1.41,1.41,0,0,0-1.4,1.36Z" fill="#fff"/><path d="M98.45,408.51h.73c.06.56.35.91,1.11.91s1-.25,1-.75-.36-.66-1.09-.79c-1.23-.23-1.64-.57-1.64-1.39a1.46,1.46,0,0,1,1.59-1.32,1.5,1.5,0,0,1,1.7,1.36h-.72c-.11-.52-.39-.74-1-.74s-.89.27-.89.67.23.6,1.1.75,1.66.4,1.66,1.4c0,.85-.59,1.43-1.73,1.43S98.5,409.47,98.45,408.51Z" fill="#fff"/><path d="M104.92,407.64v-.07a2.32,2.32,0,1,1,4.63,0v.07a2.32,2.32,0,1,1-4.63,0Zm3.86,0v-.06c0-1.09-.61-1.79-1.54-1.79s-1.54.7-1.54,1.78v.07c0,1.07.58,1.78,1.54,1.78A1.57,1.57,0,0,0,108.78,407.64Z" fill="#fff"/><path d="M110.74,405.88h-.68v-.63h.68v-.77c0-1,.47-1.51,1.4-1.51a1.6,1.6,0,0,1,.56.09v.63a1.56,1.56,0,0,0-.53-.1c-.49,0-.69.33-.69.81v.85h1.16v.63h-1.16V410h-.74Z" fill="#fff"/><path d="M116,405.88h-.68v-.63H116v-.77c0-1,.46-1.51,1.4-1.51a1.6,1.6,0,0,1,.56.09v.63a1.61,1.61,0,0,0-.53-.1c-.49,0-.69.33-.69.81v.85h1.16v.63h-1.16V410H116Z" fill="#fff"/><path d="M118.67,403.77a.49.49,0,0,1,.49-.49.5.5,0,0,1,.5.49.51.51,0,0,1-.5.5A.5.5,0,0,1,118.67,403.77Zm.13,1.48h.75V410h-.75Z" fill="#fff"/><path d="M121,403h.76v7H121Z" fill="#fff"/><path d="M123,403.77a.5.5,0,0,1,.5-.49.49.49,0,0,1,.49.49.5.5,0,0,1-.49.5A.51.51,0,0,1,123,403.77Zm.14,1.48h.75V410h-.75Z" fill="#fff"/><path d="M125.27,405.25H126V406a1.6,1.6,0,0,1,1.51-.83c1,0,1.66.53,1.66,1.9V410h-.75V407c0-.83-.35-1.19-1.11-1.19A1.23,1.23,0,0,0,126,407.1V410h-.75Z" fill="#fff"/><path d="M130.27,410.23H131c.11.54.56.82,1.36.82a1.32,1.32,0,0,0,1.51-1.45v-.69a2,2,0,0,1-1.59.89,2.12,2.12,0,0,1-2.14-2.23v-.06a2.23,2.23,0,0,1,2.19-2.34,1.69,1.69,0,0,1,1.54.83v-.75h.75v4.39a2,2,0,0,1-2.25,2C131,411.68,130.39,411,130.27,410.23Zm3.66-2.71v-.07a1.46,1.46,0,0,0-1.49-1.66,1.5,1.5,0,0,0-1.5,1.68v.07a1.49,1.49,0,0,0,1.45,1.64A1.51,1.51,0,0,0,133.93,407.52Z" fill="#fff"/><path d="M136,409.43a.57.57,0,0,1,.58-.58.58.58,0,1,1,0,1.15A.57.57,0,0,1,136,409.43Z" fill="#fff"/><path d="M20.81,412.52h1L25,417.84v-5.32h.75V419h-.9l-3.25-5.52V419h-.75Z" fill="#fff"/><path d="M26.79,416.64v-.07a2.31,2.31,0,1,1,4.62,0v.07a2.31,2.31,0,1,1-4.62,0Zm3.85,0v-.06c0-1.09-.6-1.79-1.54-1.79s-1.54.7-1.54,1.78v.07c0,1.07.59,1.78,1.54,1.78A1.57,1.57,0,0,0,30.64,416.64Z" fill="#fff"/><path d="M32.6,417.78v-2.9h-.68v-.63h.68v-1.07h.75v1.07h1.1v.63h-1.1v2.83c0,.46.2.68.58.68a1.59,1.59,0,0,0,.58-.1v.63a1.85,1.85,0,0,1-.64.1A1.14,1.14,0,0,1,32.6,417.78Z" fill="#fff"/><path d="M39.06,418.47l-1.84-4.22H38l1.44,3.37,1.3-3.37h.77l-2.6,6.35h-.76Z" fill="#fff"/><path d="M41.89,416.64v-.07a2.32,2.32,0,1,1,4.63,0v.07a2.32,2.32,0,1,1-4.63,0Zm3.85,0v-.06c0-1.09-.6-1.79-1.54-1.79a1.56,1.56,0,0,0-1.54,1.78v.07c0,1.07.59,1.78,1.54,1.78S45.74,417.71,45.74,416.64Z" fill="#fff"/><path d="M47.5,417.23v-3h.74v2.94c0,.83.35,1.2,1.09,1.2a1.24,1.24,0,0,0,1.3-1.29v-2.85h.75V419h-.75v-.75a1.62,1.62,0,0,1-1.5.83C48.2,419,47.5,418.52,47.5,417.23Z" fill="#fff"/><path d="M52.75,414.25h.75v.84a1.62,1.62,0,0,1,1.55-.92v.7c-.95.05-1.55.34-1.55,1.5V419h-.75Z" fill="#fff"/><path d="M58.41,417.78v-2.9h-.67v-.63h.67v-1.07h.75v1.07h1.1v.63h-1.1v2.83c0,.46.21.68.58.68a1.59,1.59,0,0,0,.58-.1v.63a1.85,1.85,0,0,1-.64.1A1.14,1.14,0,0,1,58.41,417.78Z" fill="#fff"/><path d="M61,417.65c0-1.09,1.15-1.46,2.36-1.46H64v-.34c0-.75-.29-1.06-1-1.06s-1,.27-1.08.84h-.74A1.64,1.64,0,0,1,63,414.17a1.52,1.52,0,0,1,1.72,1.68V419H64v-.6a1.7,1.7,0,0,1-1.47.68C61.66,419,61,418.62,61,417.65Zm3-.34v-.59h-.65c-.94,0-1.64.24-1.64.93,0,.49.24.79.9.79S64,418,64,417.31Z" fill="#fff"/><path d="M67.26,416.54l-1.58-2.29h.88L67.71,416l1.14-1.71h.81l-1.56,2.23L69.82,419h-.88l-1.27-1.9L66.38,419h-.8Z" fill="#fff"/><path d="M73,414.25h.74v.84a1.64,1.64,0,0,1,1.55-.92v.7c-.94.05-1.55.34-1.55,1.5V419H73Z" fill="#fff"/><path d="M75.71,416.65v-.07a2.22,2.22,0,0,1,2.21-2.41A2.06,2.06,0,0,1,80,416.51v.24H76.48c0,1.07.55,1.67,1.52,1.67.73,0,1.15-.27,1.25-.82H80A1.81,1.81,0,0,1,78,419,2.21,2.21,0,0,1,75.71,416.65Zm3.56-.5c-.08-1-.58-1.36-1.35-1.36a1.41,1.41,0,0,0-1.41,1.36Z" fill="#fff"/><path d="M81.2,414.88h-.68v-.63h.68v-.77c0-1,.47-1.51,1.4-1.51a1.57,1.57,0,0,1,.56.09v.63a1.51,1.51,0,0,0-.53-.1c-.49,0-.68.33-.68.81v.85H83.1v.63H82V419H81.2Z" fill="#fff"/><path d="M84,417.23v-3h.75v2.94c0,.83.35,1.2,1.09,1.2a1.24,1.24,0,0,0,1.29-1.29v-2.85h.75V419H87.1v-.75a1.59,1.59,0,0,1-1.49.83C84.67,419,84,418.52,84,417.23Z" fill="#fff"/><path d="M89.23,414.25H90V415a1.61,1.61,0,0,1,1.52-.83c1,0,1.65.53,1.65,1.9V419H92.4V416c0-.83-.36-1.19-1.11-1.19A1.24,1.24,0,0,0,90,416.1V419h-.74Z" fill="#fff"/><path d="M94.12,416.7v-.08a2.23,2.23,0,0,1,2.2-2.45,1.7,1.7,0,0,1,1.54.83v-3h.75v7h-.75v-.81a2,2,0,0,1-1.61.89A2.1,2.1,0,0,1,94.12,416.7Zm3.77-.07v-.07c0-1.2-.58-1.77-1.5-1.77s-1.49.66-1.49,1.8v.07c0,1.19.64,1.76,1.43,1.76S97.89,417.84,97.89,416.63Z" fill="#fff"/><path d="M99.92,418.43a.58.58,0,1,1,.58.57A.57.57,0,0,1,99.92,418.43Z" fill="#fff"/></g></g></g></svg>