<svg xmlns="http://www.w3.org/2000/svg" viewBox="0 0 160 600"><title>Asset 13</title><g id="Layer_2" data-name="Layer 2"><g id="Rect"><rect width="160" height="600" fill="none"/></g><g id="Know_the_price._No_surprises." data-name="Knowthe price.Nosurprises."><path d="M21.74,153.27h5.2v7.14l5.43-7.14h5.41l-6.62,8.38,7,9.67h-6l-5.21-7.55v7.55h-5.2Z" fill="#fff"/><path d="M39.11,158.11h4.52v2.13A4.66,4.66,0,0,1,48,157.76c2.55,0,4.32,1.59,4.32,5v8.58H47.78v-7.68c0-1.49-.58-2.22-1.9-2.22s-2.25.81-2.25,2.5v7.4H39.11Z" fill="#fff"/><path d="M53.78,164.88v-.2c0-4.24,3.16-6.92,7.25-6.92s7.2,2.6,7.2,6.79v.21c0,4.29-3.16,6.86-7.22,6.86S53.78,169.15,53.78,164.88Zm9.85-.07v-.21c0-2.22-.88-3.46-2.6-3.46s-2.62,1.19-2.62,3.41v.21c0,2.27.88,3.51,2.62,3.51S63.63,167,63.63,164.81Z" fill="#fff"/><path d="M68.28,158.11H73L74.92,166l2.22-7.91h3.64l2,7.91,2.14-7.91h4.3L85,171.32H80.68l-2-7.37-2,7.37H72.27Z" fill="#fff"/><path d="M21.94,197.33v-5.89H20.35v-3.08h1.59v-2.75h4.52v2.75h2.61v3.08H26.46v5.46a1.21,1.21,0,0,0,1.34,1.39,3.45,3.45,0,0,0,1.29-.23v3.44a9.6,9.6,0,0,1-2.5.37C23.61,201.87,21.94,200.44,21.94,197.33Z" fill="#fff"/><path d="M30.78,182.56H35.3v7.93A4.66,4.66,0,0,1,39.65,188c2.55,0,4.31,1.59,4.31,5v8.58H39.44v-7.68c0-1.49-.58-2.22-1.89-2.22s-2.25.81-2.25,2.5v7.4H30.78Z" fill="#fff"/><path d="M45.45,195.13v-.2c0-4.24,3.16-6.92,7.15-6.92,3.61,0,6.72,2.07,6.72,6.82V196H50a2.64,2.64,0,0,0,2.76,2.75c1.49,0,2.12-.68,2.29-1.57h4.25c-.41,3-2.71,4.67-6.7,4.67S45.45,199.45,45.45,195.13Zm9.47-1.66c-.07-1.6-.86-2.48-2.32-2.48a2.51,2.51,0,0,0-2.53,2.48Z" fill="#fff"/><path d="M65.47,188.36H70v2A4.65,4.65,0,0,1,74.11,188c3.08,0,5.58,2.32,5.58,6.84v.21c0,4.54-2.5,6.81-5.6,6.81A4.34,4.34,0,0,1,70,199.63V206H65.47Zm9.63,6.7v-.21c0-2.32-1-3.43-2.6-3.43s-2.63,1.19-2.63,3.41v.2c0,2.25,1,3.39,2.63,3.39S75.1,197.23,75.1,195.06Z" fill="#fff"/><path d="M81.33,188.36h4.52V191a4.15,4.15,0,0,1,4.27-2.8v4.21c-2.75-.07-4.27.79-4.27,2.91v6.26H81.33Z" fill="#fff"/><path d="M91.66,184.78a2.49,2.49,0,1,1,2.47,2.32A2.33,2.33,0,0,1,91.66,184.78Zm.23,3.58h4.52v13.21H91.89Z" fill="#fff"/><path d="M98.12,195.13v-.2c0-4.39,3.16-6.92,7-6.92,3.23,0,6.21,1.41,6.46,5.43h-4.24a2,2,0,0,0-2.12-1.92c-1.59,0-2.53,1.14-2.53,3.36v.2c0,2.3.89,3.49,2.6,3.49a2.2,2.2,0,0,0,2.3-2.2h4.07c-.13,3.33-2.38,5.5-6.64,5.5C101.13,201.87,98.12,199.58,98.12,195.13Z" fill="#fff"/><path d="M112.46,195.13v-.2c0-4.24,3.16-6.92,7.15-6.92,3.61,0,6.72,2.07,6.72,6.82V196H117a2.63,2.63,0,0,0,2.75,2.75c1.49,0,2.12-.68,2.3-1.57h4.24c-.41,3-2.7,4.67-6.69,4.67C115.49,201.87,112.46,199.45,112.46,195.13Zm9.47-1.66c-.07-1.6-.85-2.48-2.32-2.48a2.52,2.52,0,0,0-2.53,2.48Z" fill="#fff"/><path d="M127.59,199.3a2.51,2.51,0,0,1,2.58-2.55,2.55,2.55,0,1,1,0,5.1A2.52,2.52,0,0,1,127.59,199.3Z" fill="#fff"/><path d="M21.74,213.77h5.84l5.78,10.17V213.77h4.52v18h-5l-6.59-11.34v11.34H21.74Z" fill="#fff"/><path d="M39.7,225.38v-.2c0-4.24,3.15-6.92,7.24-6.92s7.2,2.6,7.2,6.79v.21c0,4.29-3.16,6.86-7.22,6.86S39.7,229.65,39.7,225.38Zm9.84-.07v-.21c0-2.22-.88-3.46-2.6-3.46s-2.62,1.19-2.62,3.41v.21c0,2.27.88,3.51,2.62,3.51S49.54,227.5,49.54,225.31Z" fill="#fff"/><path d="M20.45,257.88h4.17c.15,1,.58,1.49,1.87,1.49,1.11,0,1.62-.43,1.62-1.09s-.63-.93-2.45-1.18c-3.54-.46-5-1.49-5-4.25,0-2.93,2.6-4.34,5.66-4.34,3.26,0,5.53,1.11,5.83,4.27H28a1.47,1.47,0,0,0-1.69-1.31c-1,0-1.49.42-1.49,1s.6.88,2.22,1.09c3.66.45,5.43,1.41,5.43,4.24,0,3.13-2.32,4.54-6,4.54S20.56,260.81,20.45,257.88Z" fill="#fff"/><path d="M33.86,257.48v-8.62h4.52v7.88c0,1.49.58,2.23,1.87,2.23s2.25-.81,2.25-2.5v-7.61H47v13.21H42.5v-2a4.35,4.35,0,0,1-4.19,2.34C35.76,262.37,33.86,260.81,33.86,257.48Z" fill="#fff"/><path d="M49.31,248.86h4.53v2.63a4.15,4.15,0,0,1,4.26-2.8v4.21c-2.75-.07-4.26.79-4.26,2.91v6.26H49.31Z" fill="#fff"/><path d="M59.74,248.86h4.52v2a4.67,4.67,0,0,1,4.12-2.32c3.08,0,5.58,2.32,5.58,6.84v.21c0,4.54-2.5,6.81-5.61,6.81a4.36,4.36,0,0,1-4.09-2.24v6.36H59.74Zm9.62,6.7v-.21c0-2.32-1-3.43-2.6-3.43s-2.62,1.19-2.62,3.41v.2c0,2.25,1,3.39,2.62,3.39S69.36,257.73,69.36,255.56Z" fill="#fff"/><path d="M75.6,248.86h4.52v2.63a4.15,4.15,0,0,1,4.27-2.8v4.21c-2.75-.07-4.27.79-4.27,2.91v6.26H75.6Z" fill="#fff"/><path d="M85.93,245.28a2.49,2.49,0,1,1,2.47,2.32A2.33,2.33,0,0,1,85.93,245.28Zm.22,3.58h4.52v13.21H86.15Z" fill="#fff"/><path d="M92.21,257.88h4.17c.15,1,.58,1.49,1.87,1.49,1.11,0,1.62-.43,1.62-1.09s-.64-.93-2.45-1.18c-3.54-.46-5-1.49-5-4.25,0-2.93,2.6-4.34,5.66-4.34,3.26,0,5.53,1.11,5.83,4.27H99.79a1.47,1.47,0,0,0-1.69-1.31c-1,0-1.49.42-1.49,1s.6.88,2.22,1.09c3.66.45,5.43,1.41,5.43,4.24,0,3.13-2.32,4.54-6,4.54S92.32,260.81,92.21,257.88Z" fill="#fff"/><path d="M105.09,255.63v-.2c0-4.24,3.16-6.92,7.15-6.92,3.61,0,6.72,2.07,6.72,6.82v1.19h-9.3a2.64,2.64,0,0,0,2.76,2.75c1.48,0,2.12-.68,2.29-1.57H119c-.41,3-2.71,4.67-6.7,4.67C108.12,262.37,105.09,260,105.09,255.63Zm9.47-1.66c-.07-1.6-.86-2.48-2.32-2.48a2.51,2.51,0,0,0-2.53,2.48Z" fill="#fff"/><path d="M119.76,257.88h4.17c.15,1,.58,1.49,1.87,1.49,1.11,0,1.61-.43,1.61-1.09s-.63-.93-2.45-1.18c-3.53-.46-5-1.49-5-4.25,0-2.93,2.6-4.34,5.65-4.34,3.26,0,5.53,1.11,5.84,4.27h-4.09a1.47,1.47,0,0,0-1.69-1.31c-1,0-1.49.42-1.49,1s.6.88,2.22,1.09c3.66.45,5.43,1.41,5.43,4.24,0,3.13-2.33,4.54-6,4.54S119.86,260.81,119.76,257.88Z" fill="#fff"/><path d="M133.09,259.8a2.52,2.52,0,0,1,2.58-2.55,2.55,2.55,0,1,1,0,5.1A2.52,2.52,0,0,1,133.09,259.8Z" fill="#fff"/></g></g></svg>