<svg xmlns="http://www.w3.org/2000/svg" viewBox="0 0 111 30"><title>file_online_now</title><g id="Layer_2" data-name="Layer 2"><g id="Rect"><rect width="111" height="30" fill="none"/></g><g id="File_online_now" data-name="File online now"><path d="M7.11,8.76h6.43v1.78H9.38v2.65h3.29V14.9H9.38v3.88H7.11Z" fill="#262626"/><path d="M14.42,9.35a1.16,1.16,0,1,1,1.15,1.11A1.11,1.11,0,0,1,14.42,9.35Zm.15,2.1h2v7.33h-2Z" fill="#262626"/><path d="M18.3,8.13h2V18.78h-2Z" fill="#262626"/><path d="M21.5,15.21v-.12a3.64,3.64,0,0,1,3.77-3.81A3.38,3.38,0,0,1,28.84,15v.56H23.56a1.76,1.76,0,0,0,1.82,1.92c.94,0,1.4-.41,1.53-1h1.92c-.24,1.58-1.5,2.46-3.5,2.46A3.56,3.56,0,0,1,21.5,15.21Zm5.37-.89c-.07-1.1-.63-1.64-1.6-1.64a1.68,1.68,0,0,0-1.68,1.64Z" fill="#262626"/><path d="M32.41,15.19v-.11a3.67,3.67,0,0,1,3.86-3.8A3.64,3.64,0,0,1,40.13,15v.11a3.66,3.66,0,0,1-3.87,3.78A3.63,3.63,0,0,1,32.41,15.19Zm5.66,0v-.09c0-1.41-.66-2.25-1.8-2.25s-1.79.82-1.79,2.22v.11c0,1.4.64,2.24,1.79,2.24S38.07,16.55,38.07,15.16Z" fill="#262626"/><path d="M41.27,11.45h2v1.16a2.55,2.55,0,0,1,2.38-1.33c1.44,0,2.47.87,2.47,2.83v4.67h-2V14.41c0-1-.4-1.47-1.29-1.47a1.45,1.45,0,0,0-1.53,1.61v4.23h-2Z" fill="#262626"/><path d="M49.73,8.13h2V18.78h-2Z" fill="#262626"/><path d="M53.28,9.35a1.16,1.16,0,1,1,1.15,1.11A1.12,1.12,0,0,1,53.28,9.35Zm.16,2.1h2v7.33h-2Z" fill="#262626"/><path d="M57.1,11.45h2v1.16a2.56,2.56,0,0,1,2.39-1.33c1.44,0,2.46.87,2.46,2.83v4.67H62V14.41c0-1-.39-1.47-1.29-1.47a1.45,1.45,0,0,0-1.53,1.61v4.23h-2Z" fill="#262626"/><path d="M65.06,15.21v-.12a3.63,3.63,0,0,1,3.76-3.81A3.39,3.39,0,0,1,72.4,15v.56H67.12a1.75,1.75,0,0,0,1.82,1.92c.93,0,1.4-.41,1.52-1h1.92c-.24,1.58-1.5,2.46-3.5,2.46A3.55,3.55,0,0,1,65.06,15.21Zm5.36-.89c-.07-1.1-.63-1.64-1.6-1.64a1.69,1.69,0,0,0-1.68,1.64Z" fill="#262626"/><path d="M76.41,11.45h2v1.16a2.54,2.54,0,0,1,2.38-1.33c1.44,0,2.47.87,2.47,2.83v4.67h-2V14.41c0-1-.4-1.47-1.29-1.47a1.45,1.45,0,0,0-1.53,1.61v4.23h-2Z" fill="#262626"/><path d="M84.36,15.19v-.11a3.68,3.68,0,0,1,3.87-3.8A3.64,3.64,0,0,1,92.08,15v.11a3.86,3.86,0,0,1-7.72,0Zm5.66,0v-.09c0-1.41-.66-2.25-1.79-2.25s-1.8.82-1.8,2.22v.11c0,1.4.65,2.24,1.8,2.24S90,16.55,90,15.16Z" fill="#262626"/><path d="M92.36,11.45h2.12l1.31,4.93,1.41-4.93h1.67l1.29,4.93,1.38-4.93h1.95l-2.31,7.33h-2l-1.25-4.6-1.34,4.6h-2Z" fill="#262626"/></g></g></svg>