<svg xmlns="http://www.w3.org/2000/svg" viewBox="0 0 728 90"><title>H6</title><g id="Layer_2" data-name="Layer 2"><g id="Artboard_1" data-name="Artboard 1" style="isolation:isolate"><g id="Tax_prep_delivered_many_ways._Drop_off_try_Tax_Pro_Go_or_file" data-name="Tax prep delivered many ways. Drop off, try Tax Pro Go, or file"><path d="M121.69,24.56h-4.81v-4.1h15v4.1H127V39h-5.35Z" fill="#fff"/><path d="M130.92,35.27c0-3.2,2.7-4.45,7.22-4.45h1.3v-.31c0-1.3-.31-2.16-1.79-2.16A1.67,1.67,0,0,0,135.8,30h-4.36c.2-3.28,2.78-4.89,6.49-4.89s6.13,1.53,6.13,5.15V39h-4.52V37.45a4.45,4.45,0,0,1-4,1.9C133.07,39.35,130.92,38.15,130.92,35.27Zm8.52-1v-.83h-1.22c-1.87,0-2.7.36-2.7,1.48,0,.78.51,1.27,1.61,1.27A2,2,0,0,0,139.44,34.28Z" fill="#fff"/><path d="M149.76,32.12l-4.24-6.68h5.36L153,29,155,25.44h4.78l-4.28,6.32,4.7,7.27h-5.35L152.46,35,150,39h-4.75Z" fill="#fff"/><path d="M166.26,25.44h4.66v2a4.78,4.78,0,0,1,4.23-2.39c3.17,0,5.74,2.39,5.74,7v.21c0,4.68-2.57,7-5.76,7A4.46,4.46,0,0,1,170.92,37v6.55h-4.66Zm9.9,6.89v-.21c0-2.39-1-3.53-2.67-3.53s-2.7,1.22-2.7,3.51v.2c0,2.32,1,3.49,2.7,3.49S176.16,34.56,176.16,32.33Z" fill="#fff"/><path d="M182.59,25.44h4.65v2.71a4.29,4.29,0,0,1,4.39-2.89V29.6c-2.83-.08-4.39.81-4.39,3V39h-4.65Z" fill="#fff"/><path d="M192.46,32.41V32.2c0-4.37,3.25-7.12,7.36-7.12,3.71,0,6.91,2.13,6.91,7v1.22h-9.56A2.71,2.71,0,0,0,200,36.15c1.53,0,2.18-.7,2.36-1.61h4.37c-.42,3.07-2.78,4.81-6.89,4.81C195.58,39.35,192.46,36.85,192.46,32.41Zm9.75-1.72c-.08-1.63-.88-2.54-2.39-2.54a2.59,2.59,0,0,0-2.6,2.54Z" fill="#fff"/><path d="M208.35,25.44H213v2a4.79,4.79,0,0,1,4.23-2.39c3.17,0,5.75,2.39,5.75,7v.21c0,4.68-2.58,7-5.77,7A4.46,4.46,0,0,1,213,37v6.55h-4.65Zm9.9,6.89v-.21c0-2.39-1-3.53-2.68-3.53s-2.7,1.22-2.7,3.51v.2c0,2.32,1,3.49,2.7,3.49S218.25,34.56,218.25,32.33Z" fill="#fff"/><path d="M228.72,32.38v-.21c0-4.62,2.55-7.09,5.77-7.09a4.41,4.41,0,0,1,4.19,2.29v-7.9h4.65V39h-4.65v-2.2a4.6,4.6,0,0,1-4.24,2.52C231.3,39.35,228.72,37.09,228.72,32.38Zm10.09-.08v-.2c0-2.29-1-3.51-2.68-3.51s-2.68,1.17-2.68,3.53v.21c0,2.29,1,3.46,2.63,3.46S238.81,34.62,238.81,32.3Z" fill="#fff"/><path d="M245,32.41V32.2c0-4.37,3.25-7.12,7.35-7.12,3.72,0,6.91,2.13,6.91,7v1.22h-9.56a2.71,2.71,0,0,0,2.83,2.83c1.54,0,2.19-.7,2.37-1.61h4.36c-.41,3.07-2.78,4.81-6.88,4.81C248.09,39.35,245,36.85,245,32.41Zm9.74-1.72c-.08-1.63-.88-2.54-2.39-2.54a2.59,2.59,0,0,0-2.6,2.54Z" fill="#fff"/><path d="M261,19.47h4.62V39H261Z" fill="#fff"/><path d="M268,21.75a2.42,2.42,0,0,1,2.54-2.41,2.41,2.41,0,1,1,0,4.81A2.41,2.41,0,0,1,268,21.75Zm.23,3.69h4.65V39h-4.65Z" fill="#fff"/><path d="M274.21,25.44h5L282,34.2l2.79-8.76h4.44l-5,13.59H279.2Z" fill="#fff"/><path d="M289,32.41V32.2c0-4.37,3.24-7.12,7.35-7.12,3.72,0,6.91,2.13,6.91,7v1.22h-9.56a2.71,2.71,0,0,0,2.83,2.83c1.54,0,2.18-.7,2.37-1.61h4.36c-.41,3.07-2.78,4.81-6.88,4.81C292.06,39.35,289,36.85,289,32.41Zm9.74-1.72c-.08-1.63-.88-2.54-2.39-2.54a2.59,2.59,0,0,0-2.6,2.54Z" fill="#fff"/><path d="M304.83,25.44h4.65v2.71a4.29,4.29,0,0,1,4.39-2.89V29.6c-2.83-.08-4.39.81-4.39,3V39h-4.65Z" fill="#fff"/><path d="M314.7,32.41V32.2c0-4.37,3.25-7.12,7.36-7.12,3.71,0,6.91,2.13,6.91,7v1.22h-9.56a2.71,2.71,0,0,0,2.83,2.83c1.53,0,2.18-.7,2.37-1.61H329c-.41,3.07-2.78,4.81-6.89,4.81S314.7,36.85,314.7,32.41Zm9.75-1.72c-.08-1.63-.88-2.54-2.39-2.54a2.59,2.59,0,0,0-2.6,2.54Z" fill="#fff"/><path d="M329.91,32.38v-.21c0-4.62,2.55-7.09,5.77-7.09a4.4,4.4,0,0,1,4.18,2.29v-7.9h4.65V39h-4.65v-2.2a4.57,4.57,0,0,1-4.23,2.52C332.48,39.35,329.91,37.09,329.91,32.38ZM340,32.3v-.2c0-2.29-1-3.51-2.67-3.51s-2.68,1.17-2.68,3.53v.21c0,2.29,1,3.46,2.62,3.46S340,34.62,340,32.3Z" fill="#fff"/><path d="M351.61,25.44h4.66v2.08a4.73,4.73,0,0,1,4.26-2.44,3.71,3.71,0,0,1,3.69,2.26,5.4,5.4,0,0,1,4.49-2.26c2.58,0,4.45,1.66,4.45,5.07V39H368.5v-8.1c0-1.38-.67-2.06-1.74-2.06a2,2,0,0,0-2.08,2.29V39h-4.6v-8.1c0-1.38-.67-2.06-1.74-2.06a2,2,0,0,0-2.07,2.29V39h-4.66Z" fill="#fff"/><path d="M374.64,35.27c0-3.2,2.7-4.45,7.23-4.45h1.3v-.31c0-1.3-.32-2.16-1.8-2.16A1.67,1.67,0,0,0,379.53,30h-4.37c.21-3.28,2.78-4.89,6.5-4.89s6.13,1.53,6.13,5.15V39h-4.52V37.45a4.47,4.47,0,0,1-4,1.9C376.8,39.35,374.64,38.15,374.64,35.27Zm8.53-1v-.83h-1.23c-1.87,0-2.7.36-2.7,1.48,0,.78.52,1.27,1.61,1.27C382.18,36.2,383.17,35.45,383.17,34.28Z" fill="#fff"/><path d="M390.06,25.44h4.65v2.19a4.78,4.78,0,0,1,4.47-2.55c2.62,0,4.44,1.64,4.44,5.12V39H399v-7.9c0-1.53-.6-2.28-2-2.28s-2.31.83-2.31,2.57V39h-4.65Z" fill="#fff"/><path d="M409.68,37.66l-5.43-12.22h5l2.81,7.25,2.6-7.25h4.44l-7.28,18.14h-4.44Z" fill="#fff"/><path d="M423.92,25.44h4.86l2,8.14L433,25.44h3.75l2,8.14L441,25.44h4.42L441.13,39h-4.45l-2-7.58L432.55,39H428Z" fill="#fff"/><path d="M445.34,35.27c0-3.2,2.7-4.45,7.23-4.45h1.3v-.31c0-1.3-.32-2.16-1.8-2.16A1.67,1.67,0,0,0,450.23,30h-4.37c.21-3.28,2.78-4.89,6.5-4.89s6.13,1.53,6.13,5.15V39H454V37.45a4.47,4.47,0,0,1-4,1.9C447.5,39.35,445.34,38.15,445.34,35.27Zm8.53-1v-.83h-1.23c-1.87,0-2.7.36-2.7,1.48,0,.78.52,1.27,1.61,1.27C452.88,36.2,453.87,35.45,453.87,34.28Z" fill="#fff"/><path d="M464.55,37.66l-5.43-12.22h5L467,32.69l2.59-7.25H474l-7.28,18.14h-4.44Z" fill="#fff"/><path d="M474.22,34.72h4.29c.15,1,.59,1.53,1.92,1.53,1.14,0,1.66-.44,1.66-1.11s-.65-1-2.52-1.22c-3.64-.47-5.17-1.54-5.17-4.37,0-3,2.68-4.47,5.82-4.47,3.35,0,5.69,1.14,6,4.39H482a1.51,1.51,0,0,0-1.74-1.35c-1,0-1.53.44-1.53,1.07s.62.91,2.29,1.11c3.76.47,5.58,1.46,5.58,4.37,0,3.22-2.39,4.68-6.15,4.68S474.32,37.74,474.22,34.72Z" fill="#fff"/><path d="M487.94,36.7a2.59,2.59,0,0,1,2.65-2.63,2.63,2.63,0,1,1,0,5.25A2.59,2.59,0,0,1,487.94,36.7Z" fill="#fff"/><path d="M500.65,20.46h6.76c6.6,0,9.95,3.29,9.95,9.06v.21c0,5.8-3.43,9.3-10,9.3h-6.73Zm6.58,14.47c3.17,0,4.57-1.66,4.57-5.12V29.6c0-3.53-1.4-5-4.63-5H506V34.93Z" fill="#fff"/><path d="M519.16,25.44h4.65v2.71a4.29,4.29,0,0,1,4.39-2.89V29.6c-2.83-.08-4.39.81-4.39,3V39h-4.65Z" fill="#fff"/><path d="M529,32.41V32.2c0-4.37,3.24-7.12,7.45-7.12s7.41,2.68,7.41,7v.21c0,4.42-3.25,7.07-7.43,7.07S529,36.8,529,32.41Zm10.13-.08v-.21c0-2.28-.91-3.56-2.68-3.56s-2.7,1.22-2.7,3.51v.21c0,2.34.91,3.61,2.7,3.61S539.17,34.59,539.17,32.33Z" fill="#fff"/><path d="M545.54,25.44h4.65v2a4.81,4.81,0,0,1,4.24-2.39c3.17,0,5.74,2.39,5.74,7v.21c0,4.68-2.57,7-5.77,7A4.48,4.48,0,0,1,550.19,37v6.55h-4.65Zm9.9,6.89v-.21c0-2.39-1-3.53-2.67-3.53s-2.71,1.22-2.71,3.51v.2c0,2.32,1,3.49,2.71,3.49S555.44,34.56,555.44,32.33Z" fill="#fff"/><path d="M117,62.73v-.2c0-4.37,3.25-7.12,7.46-7.12s7.41,2.67,7.41,7v.2c0,4.42-3.25,7.07-7.43,7.07S117,67.13,117,62.73Zm10.14-.07v-.21c0-2.29-.91-3.56-2.68-3.56s-2.7,1.22-2.7,3.51v.2c0,2.34.91,3.61,2.7,3.61S127.12,64.92,127.12,62.66Z" fill="#fff"/><path d="M134.19,58.94h-1.72V55.77h1.72v-1c0-3.38,2.08-5,5.3-5a7.65,7.65,0,0,1,2.08.26v3.4a4.25,4.25,0,0,0-1.25-.18,1.36,1.36,0,0,0-1.51,1.48v1h4v-1.2c0-3.37,2.13-5,5.32-5a8.06,8.06,0,0,1,2.13.29v3.4a4.34,4.34,0,0,0-1.27-.18,1.35,1.35,0,0,0-1.53,1.48v1.2h2.75v3.17h-2.75V69.36h-4.65V58.94h-4V69.36h-4.62Z" fill="#fff"/><path d="M149.19,71.46l2.18-6.83,4.31,1.53-3.74,6.37Z" fill="#fff"/><path d="M163.07,65v-6h-1.64V55.77h1.64V52.94h4.65v2.83h2.67v3.17h-2.67v5.61c0,1,.49,1.43,1.38,1.43a3.69,3.69,0,0,0,1.32-.23v3.53a9.59,9.59,0,0,1-2.57.39C164.78,69.67,163.07,68.19,163.07,65Z" fill="#fff"/><path d="M172.16,55.77h4.66v2.7a4.26,4.26,0,0,1,4.39-2.88v4.34c-2.84-.08-4.39.8-4.39,3v6.44h-4.66Z" fill="#fff"/><path d="M187.37,68l-5.43-12.21h5l2.8,7.25,2.6-7.25h4.45l-7.28,18.14h-4.44Z" fill="#fff"/><path d="M206.73,54.89h-4.81V50.78h15v4.11h-4.81V69.36h-5.35Z" fill="#fff"/><path d="M216,65.59c0-3.19,2.7-4.44,7.22-4.44h1.3v-.31c0-1.3-.31-2.16-1.79-2.16a1.66,1.66,0,0,0-1.84,1.61h-4.37c.21-3.27,2.78-4.88,6.5-4.88s6.13,1.53,6.13,5.14v8.81h-4.52V67.77a4.47,4.47,0,0,1-4,1.9C218.12,69.67,216,68.48,216,65.59Zm8.52-1v-.83h-1.22c-1.87,0-2.7.37-2.7,1.48,0,.78.52,1.28,1.61,1.28A2,2,0,0,0,224.48,64.6Z" fill="#fff"/><path d="M234.8,62.45l-4.23-6.68h5.35L238,59.35l2.05-3.58h4.78l-4.29,6.31,4.71,7.28h-5.36l-2.41-4-2.47,4h-4.76Z" fill="#fff"/><path d="M251.72,50.78h7.07c5.1,0,7.46,2.26,7.46,6.21v.1c0,3.9-2.62,6-7.22,6h-2v6.26h-5.31Zm6.84,8.68c1.71,0,2.62-.81,2.62-2.34V57c0-1.59-.93-2.24-2.6-2.24H257v4.68Z" fill="#fff"/><path d="M267.87,55.77h4.65v2.7a4.26,4.26,0,0,1,4.39-2.88v4.34c-2.83-.08-4.39.8-4.39,3v6.44h-4.65Z" fill="#fff"/><path d="M277.74,62.73v-.2c0-4.37,3.25-7.12,7.46-7.12s7.41,2.67,7.41,7v.2c0,4.42-3.25,7.07-7.44,7.07S277.74,67.13,277.74,62.73Zm10.14-.07v-.21c0-2.29-.91-3.56-2.68-3.56s-2.7,1.22-2.7,3.51v.2c0,2.34.91,3.61,2.7,3.61S287.88,64.92,287.88,62.66Z" fill="#fff"/><path d="M298.41,60.19V60c0-5.67,4.15-9.49,9.74-9.49,4.39,0,8.29,2,8.65,6.84h-5.27c-.26-1.74-1.38-2.65-3.35-2.65-2.63,0-4.21,2-4.21,5.38v.2c0,3,1.11,5.36,4.34,5.36,2.6,0,3.58-1.33,3.69-2.81h-3.49V59.09h8.74v2.29c0,4.73-3.1,8.29-9.1,8.29C301.84,69.67,298.41,65.75,298.41,60.19Z" fill="#fff"/><path d="M318.32,62.73v-.2c0-4.37,3.24-7.12,7.45-7.12s7.41,2.67,7.41,7v.2c0,4.42-3.25,7.07-7.43,7.07S318.32,67.13,318.32,62.73Zm10.13-.07v-.21c0-2.29-.91-3.56-2.68-3.56s-2.7,1.22-2.7,3.51v.2c0,2.34.91,3.61,2.7,3.61S328.45,64.92,328.45,62.66Z" fill="#fff"/><path d="M333.29,71.46l2.18-6.83,4.31,1.53L336,72.53Z" fill="#fff"/><path d="M345.81,62.73v-.2c0-4.37,3.25-7.12,7.46-7.12s7.41,2.67,7.41,7v.2c0,4.42-3.25,7.07-7.43,7.07S345.81,67.13,345.81,62.73ZM356,62.66v-.21c0-2.29-.91-3.56-2.68-3.56s-2.7,1.22-2.7,3.51v.2c0,2.34.91,3.61,2.7,3.61S356,64.92,356,62.66Z" fill="#fff"/><path d="M362.32,55.77H367v2.7a4.27,4.27,0,0,1,4.39-2.88v4.34c-2.83-.08-4.39.8-4.39,3v6.44h-4.65Z" fill="#fff"/><path d="M378.49,58.94h-1.72V55.77h1.72v-1.2c0-3.37,2.1-5,5.32-5a8.2,8.2,0,0,1,2.14.29v3.4a4.47,4.47,0,0,0-1.28-.18,1.37,1.37,0,0,0-1.56,1.48v1.2h2.76v3.17h-2.76V69.36h-4.62Z" fill="#fff"/><path d="M387.32,52.08a2.57,2.57,0,1,1,2.55,2.39A2.43,2.43,0,0,1,387.32,52.08Zm.24,3.69h4.65V69.36h-4.65Z" fill="#fff"/><path d="M394.84,49.79h4.62V69.36h-4.62Z" fill="#fff"/><path d="M401.23,62.73v-.2c0-4.37,3.25-7.12,7.35-7.12,3.72,0,6.92,2.13,6.92,7v1.22h-9.57a2.71,2.71,0,0,0,2.84,2.83c1.53,0,2.18-.7,2.36-1.61h4.37c-.42,3.07-2.78,4.81-6.89,4.81S401.23,67.18,401.23,62.73ZM411,61c-.08-1.64-.89-2.55-2.4-2.55A2.58,2.58,0,0,0,406,61Z" fill="#fff"/><path d="M421.11,62.73v-.2c0-4.37,3.25-7.12,7.46-7.12s7.41,2.67,7.41,7v.2c0,4.42-3.25,7.07-7.43,7.07S421.11,67.13,421.11,62.73Zm10.14-.07v-.21c0-2.29-.91-3.56-2.68-3.56s-2.7,1.22-2.7,3.51v.2c0,2.34.91,3.61,2.7,3.61S431.25,64.92,431.25,62.66Z" fill="#fff"/><path d="M437.62,55.77h4.65V58a4.8,4.8,0,0,1,4.47-2.54c2.62,0,4.44,1.63,4.44,5.11v8.84h-4.65v-7.9c0-1.53-.6-2.29-1.95-2.29s-2.31.83-2.31,2.58v7.61h-4.65Z" fill="#fff"/><path d="M453.58,49.79h4.62V69.36h-4.62Z" fill="#fff"/><path d="M460.59,52.08a2.57,2.57,0,1,1,2.55,2.39A2.43,2.43,0,0,1,460.59,52.08Zm.24,3.69h4.65V69.36h-4.65Z" fill="#fff"/><path d="M468,55.77h4.65V58a4.8,4.8,0,0,1,4.47-2.54c2.62,0,4.44,1.63,4.44,5.11v8.84h-4.65v-7.9c0-1.53-.6-2.29-1.95-2.29s-2.31.83-2.31,2.58v7.61H468Z" fill="#fff"/><path d="M483.08,62.73v-.2c0-4.37,3.25-7.12,7.35-7.12,3.72,0,6.91,2.13,6.91,7v1.22h-9.56a2.71,2.71,0,0,0,2.83,2.83c1.54,0,2.19-.7,2.37-1.61h4.36c-.41,3.07-2.78,4.81-6.88,4.81C486.2,69.67,483.08,67.18,483.08,62.73ZM492.82,61c-.07-1.64-.88-2.55-2.39-2.55a2.59,2.59,0,0,0-2.6,2.55Z" fill="#fff"/><path d="M498.65,67a2.59,2.59,0,0,1,2.65-2.62,2.63,2.63,0,1,1,0,5.25A2.59,2.59,0,0,1,498.65,67Z" fill="#fff"/><rect width="728" height="90" fill="none"/></g></g></g></svg>