<svg xmlns="http://www.w3.org/2000/svg" viewBox="0 0 160 600"><title>Asset 1</title><g style="isolation:isolate"><rect width="160" height="600" fill="none"/><path d="M18.9,144.33h3.7l-.46,6h-2.8Zm4.67,0h3.72l-.47,6H24Z" fill="#fff"/><path d="M29.68,144.33h4.53v6h5.18v-6H43.9v15.74H39.39v-6.21H34.21v6.21H29.68Z" fill="#fff"/><path d="M59.32,156.85l2.62,3.22H56.81l-.92-1.15a6.28,6.28,0,0,1-4.25,1.41c-3.35,0-5.52-1.76-5.52-4.75,0-2,1.23-3.52,3.45-4.58a5,5,0,0,1-1-2.75c0-2.68,2.29-4.11,5.06-4.11,2.51,0,4.78,1.25,4.78,3.67,0,1.72-1,3-3.15,3.89l2,2.42,1.15-2.24h3.43Zm-5.46-.46-2.49-3a1.85,1.85,0,0,0-1,1.69,1.82,1.82,0,0,0,2,2A2.06,2.06,0,0,0,53.86,156.39Zm-.48-6.34c1-.5,1.56-1.1,1.56-1.91a1.13,1.13,0,0,0-1.17-1.21,1.26,1.26,0,0,0-1.3,1.36A2.86,2.86,0,0,0,53.38,150.05Z" fill="#fff"/><path d="M63.69,144.33h6.16c4.12,0,6.41,1.68,6.41,5v.09a4.11,4.11,0,0,1-2.84,4.13l3.76,6.52H72.43l-3.19-5.64H68.18v5.64H63.69Zm5.94,7.18c1.52,0,2.27-.64,2.27-1.92v-.09c0-1.27-.79-1.78-2.24-1.78H68.18v3.79Z" fill="#fff"/><path d="M19.52,169.33h7c3.72,0,5.3,1.68,5.3,4.12v.09a3.23,3.23,0,0,1-2.66,3.38,3.42,3.42,0,0,1,3.14,3.68v.09c0,2.81-1.82,4.38-5.72,4.38H19.52Zm6.12,6.25c1.4,0,1.93-.48,1.93-1.6v-.09c0-1.08-.57-1.56-1.93-1.56H23.92v3.25Zm.15,6.47c1.43,0,2.09-.66,2.09-1.82v-.09c0-1.19-.64-1.81-2.22-1.81H23.92v3.72Z" fill="#fff"/><path d="M34.21,168.5h3.92v16.57H34.21Z" fill="#fff"/><path d="M40,179.46v-.18c0-3.7,2.75-6,6.31-6s6.27,2.27,6.27,5.92v.17c0,3.75-2.75,6-6.29,6S40,183.17,40,179.46Zm8.58-.07v-.18c0-1.93-.77-3-2.27-3s-2.29,1-2.29,3v.17c0,2,.77,3.06,2.29,3.06S48.54,181.3,48.54,179.39Z" fill="#fff"/><path d="M53.64,179.46v-.18a5.79,5.79,0,0,1,6.14-6c2.81,0,5.41,1.23,5.63,4.73h-3.7a1.69,1.69,0,0,0-1.84-1.67c-1.39,0-2.2,1-2.2,2.92v.18c0,2,.77,3,2.26,3a1.91,1.91,0,0,0,2-1.92h3.55c-.11,2.91-2.07,4.8-5.79,4.8C56.26,185.33,53.64,183.33,53.64,179.46Z" fill="#fff"/><path d="M67.08,168.5H71v9.61l3.1-4.55h4.09l-3.76,5.17,4.07,6.34h-4.4L71,180v5H67.08Z" fill="#fff"/><path d="M84.46,169.33H95.09v3.5H89v3.35h4.87v3.32H89v5.57H84.46Z" fill="#fff"/><path d="M96.47,173.56h3.94v2.29a3.64,3.64,0,0,1,3.72-2.45v3.68c-2.4-.07-3.72.68-3.72,2.53v5.46H96.47Z" fill="#fff"/><path d="M105.16,179.46v-.18a5.89,5.89,0,0,1,6.23-6c3.15,0,5.85,1.8,5.85,5.94v1h-8.09a2.29,2.29,0,0,0,2.39,2.39c1.3,0,1.85-.59,2-1.36h3.69c-.35,2.6-2.35,4.07-5.83,4.07S105.16,183.22,105.16,179.46Zm8.25-1.46c-.06-1.38-.74-2.15-2-2.15a2.19,2.19,0,0,0-2.2,2.15Z" fill="#fff"/><path d="M118.32,179.46v-.18a5.89,5.89,0,0,1,6.23-6c3.14,0,5.85,1.8,5.85,5.94v1h-8.1a2.3,2.3,0,0,0,2.4,2.39c1.3,0,1.85-.59,2-1.36h3.7c-.35,2.6-2.36,4.07-5.83,4.07S118.32,183.22,118.32,179.46Zm8.25-1.46c-.07-1.38-.75-2.15-2-2.15a2.18,2.18,0,0,0-2.2,2.15Z" fill="#fff"/><path d="M19.45,193h6.71v2.88H23.41v14.57h2.75v2.88H19.45Z" fill="#fff"/><path d="M27.68,202.3v-.18c0-4.79,3.61-8,8.32-8s8.34,3,8.34,7.9v.18c0,4.84-3.33,8.14-8.41,8.14S27.68,207,27.68,202.3Zm12-.05v-.17c0-2.8-1.41-4.45-3.63-4.45s-3.61,1.61-3.61,4.47v.18c0,2.86,1.45,4.51,3.63,4.51S39.63,205.07,39.63,202.25Z" fill="#fff"/><path d="M46.18,198.56h3.94v1.85a4.06,4.06,0,0,1,3.78-2.16c2.23,0,3.77,1.39,3.77,4.33v7.49H53.73v-6.69c0-1.3-.51-1.94-1.65-1.94s-2,.7-2,2.18v6.45H46.18Z" fill="#fff"/><path d="M60,193.5h3.92v16.57H60Z" fill="#fff"/><path d="M66.29,195.43a2.17,2.17,0,1,1,2.16,2A2.05,2.05,0,0,1,66.29,195.43Zm.2,3.13h3.94v11.51H66.49Z" fill="#fff"/><path d="M72.87,198.56h3.94v1.85a4.05,4.05,0,0,1,3.78-2.16c2.22,0,3.76,1.39,3.76,4.33v7.49H80.41v-6.69c0-1.3-.5-1.94-1.65-1.94s-2,.7-2,2.18v6.45H72.87Z" fill="#fff"/><path d="M86,204.46v-.18a5.89,5.89,0,0,1,6.23-6c3.14,0,5.85,1.8,5.85,5.94v1H90a2.3,2.3,0,0,0,2.4,2.39c1.3,0,1.85-.59,2-1.36h3.7c-.35,2.6-2.36,4.07-5.83,4.07S86,208.22,86,204.46ZM94.23,203c-.07-1.38-.75-2.15-2-2.15A2.18,2.18,0,0,0,90,203Z" fill="#fff"/><path d="M99.22,210.44H102V195.87H99.22V193h6.69v20.33H99.22Z" fill="#fff"/><path d="M18.4,231.41H22c.13.84.5,1.3,1.62,1.3s1.41-.37,1.41-.94-.55-.82-2.13-1c-3.08-.4-4.38-1.3-4.38-3.7,0-2.55,2.27-3.78,4.93-3.78,2.84,0,4.82,1,5.08,3.72H25a1.3,1.3,0,0,0-1.48-1.15c-.86,0-1.3.38-1.3.91s.53.77,1.94.94c3.19.4,4.73,1.23,4.73,3.7,0,2.73-2,4-5.21,4S18.48,234,18.4,231.41Z" fill="#fff"/><path d="M31,231.37v-5.13H29.64v-2.68H31v-2.4H35v2.4h2.27v2.68H35V231a1.05,1.05,0,0,0,1.17,1.21,3,3,0,0,0,1.12-.2v3a8.28,8.28,0,0,1-2.18.33C32.48,235.33,31,234.08,31,231.37Z" fill="#fff"/><path d="M38.44,231.88c0-2.71,2.29-3.77,6.11-3.77h1.1v-.26c0-1.1-.26-1.83-1.51-1.83a1.42,1.42,0,0,0-1.57,1.37H38.88c.17-2.78,2.35-4.14,5.5-4.14s5.19,1.3,5.19,4.36v7.46H45.74v-1.35a3.77,3.77,0,0,1-3.41,1.61C40.26,235.33,38.44,234.32,38.44,231.88Zm7.21-.84v-.71h-1c-1.58,0-2.29.31-2.29,1.26,0,.66.44,1.08,1.37,1.08A1.73,1.73,0,0,0,45.65,231Z" fill="#fff"/><path d="M51.81,223.56h3.94v1.85a4.07,4.07,0,0,1,3.79-2.16c2.22,0,3.76,1.39,3.76,4.33v7.49H59.36v-6.69c0-1.3-.51-1.94-1.65-1.94s-2,.7-2,2.18v6.45H51.81Z" fill="#fff"/><path d="M65,229.43v-.17c0-3.92,2.16-6,4.88-6a3.73,3.73,0,0,1,3.55,1.94V218.5h3.94v16.57H73.4V233.2a3.9,3.9,0,0,1-3.59,2.13C67.15,235.33,65,233.42,65,229.43Zm8.54-.06v-.18c0-1.94-.82-3-2.27-3s-2.27,1-2.27,3v.18c0,1.94.86,2.93,2.23,2.93S73.51,231.33,73.51,229.37Z" fill="#fff"/><path d="M78.9,231.41h3.63c.13.84.5,1.3,1.62,1.3,1,0,1.41-.37,1.41-.94s-.55-.82-2.13-1c-3.08-.4-4.38-1.3-4.38-3.7,0-2.55,2.27-3.78,4.93-3.78,2.84,0,4.82,1,5.08,3.72H85.5A1.3,1.3,0,0,0,84,225.82c-.86,0-1.3.38-1.3.91s.53.77,1.94.94c3.19.4,4.73,1.23,4.73,3.7,0,2.73-2,4-5.21,4S79,234,78.9,231.41Z" fill="#fff"/><path d="M94.71,229.46v-.18c0-3.7,2.75-6,6.32-6s6.27,2.27,6.27,5.92v.17c0,3.75-2.75,6-6.29,6S94.71,233.17,94.71,229.46Zm8.58-.07v-.18c0-1.93-.77-3-2.26-3s-2.29,1-2.29,3v.17c0,2,.77,3.06,2.29,3.06S103.29,231.3,103.29,229.39Z" fill="#fff"/><path d="M108.93,231.06v-7.5h3.93v6.86c0,1.3.51,1.94,1.63,1.94s2-.7,2-2.18v-6.62h3.94v11.51h-3.94v-1.79a3.79,3.79,0,0,1-3.65,2.05C110.58,235.33,108.93,234,108.93,231.06Z" fill="#fff"/><path d="M123.25,231.37v-5.13h-1.39v-2.68h1.39v-2.4h3.94v2.4h2.26v2.68h-2.26V231c0,.83.41,1.21,1.16,1.21a3,3,0,0,0,1.12-.2v3a8.26,8.26,0,0,1-2.17.33C124.7,235.33,123.25,234.08,123.25,231.37Z" fill="#fff"/><path d="M19.76,251.24H18.31v-2.68h1.45v-1c0-2.86,1.78-4.23,4.51-4.23a7.15,7.15,0,0,1,1.81.24v2.89a3.57,3.57,0,0,0-1.08-.16,1.16,1.16,0,0,0-1.32,1.26v1H26v2.68H23.68v8.83H19.76Z" fill="#fff"/><path d="M27.66,248.56H31.6v2.29a3.62,3.62,0,0,1,3.71-2.45v3.68c-2.39-.07-3.71.68-3.71,2.53v5.46H27.66Z" fill="#fff"/><path d="M36.35,254.46v-.18c0-3.7,2.75-6,6.31-6s6.27,2.27,6.27,5.92v.17c0,3.75-2.75,6-6.29,6S36.35,258.17,36.35,254.46Zm8.58-.07v-.18c0-1.93-.77-3-2.27-3s-2.29,1-2.29,3v.17c0,2,.77,3.06,2.29,3.06S44.93,256.3,44.93,254.39Z" fill="#fff"/><path d="M50.65,248.56h3.94v1.76a4,4,0,0,1,3.6-2.07,3.14,3.14,0,0,1,3.13,1.91,4.56,4.56,0,0,1,3.81-1.91c2.17,0,3.76,1.41,3.76,4.29v7.53H65V253.2c0-1.17-.57-1.74-1.47-1.74a1.7,1.7,0,0,0-1.76,1.94v6.67h-3.9V253.2c0-1.17-.57-1.74-1.47-1.74a1.7,1.7,0,0,0-1.76,1.94v6.67H50.65Z" fill="#fff"/><path d="M76,256.37v-5.13H74.61v-2.68H76v-2.4h3.94v2.4H82.2v2.68H79.93V256a1.05,1.05,0,0,0,1.17,1.21,3,3,0,0,0,1.12-.2v3a8.42,8.42,0,0,1-2.18.33C77.44,260.33,76,259.08,76,256.37Z" fill="#fff"/><path d="M84,243.5H88v6.91a4.06,4.06,0,0,1,3.78-2.16c2.23,0,3.77,1.39,3.77,4.33v7.49H91.57v-6.69c0-1.3-.51-1.94-1.65-1.94s-2,.7-2,2.18v6.45H84Z" fill="#fff"/><path d="M97.13,254.46v-.18a5.89,5.89,0,0,1,6.23-6c3.15,0,5.85,1.8,5.85,5.94v1h-8.09a2.29,2.29,0,0,0,2.39,2.39c1.3,0,1.85-.59,2-1.36h3.69c-.35,2.6-2.35,4.07-5.83,4.07S97.13,258.22,97.13,254.46Zm8.25-1.46c-.06-1.38-.74-2.15-2-2.15a2.19,2.19,0,0,0-2.2,2.15Z" fill="#fff"/><path d="M18.55,279.46v-.18a5.79,5.79,0,0,1,6.14-6c2.82,0,5.41,1.23,5.63,4.73h-3.7a1.69,1.69,0,0,0-1.84-1.67c-1.39,0-2.2,1-2.2,2.92v.18c0,2,.77,3,2.26,3a1.93,1.93,0,0,0,2-1.92h3.54c-.11,2.91-2.07,4.8-5.79,4.8C21.17,285.33,18.55,283.33,18.55,279.46Z" fill="#fff"/><path d="M32,273.56h3.94v2.29a3.64,3.64,0,0,1,3.72-2.45v3.68c-2.4-.07-3.72.68-3.72,2.53v5.46H32Z" fill="#fff"/><path d="M40.68,279.46v-.18c0-3.7,2.75-6,6.32-6s6.27,2.27,6.27,5.92v.17c0,3.75-2.75,6-6.29,6S40.68,283.17,40.68,279.46Zm8.58-.07v-.18c0-1.93-.77-3-2.26-3s-2.29,1-2.29,3v.17c0,2,.77,3.06,2.29,3.06S49.26,281.3,49.26,279.39Z" fill="#fff"/><path d="M53.64,273.56h4.11l1.68,6.89,1.93-6.89h3.17l1.72,6.89,1.87-6.89h3.74l-3.65,11.51H64.44l-1.71-6.43-1.79,6.43H57.12Z" fill="#fff"/><path d="M72.34,279.43v-.17c0-3.92,2.16-6,4.88-6a3.73,3.73,0,0,1,3.55,1.94V268.5h3.94v16.57H80.77V283.2a3.89,3.89,0,0,1-3.59,2.13C74.52,285.33,72.34,283.42,72.34,279.43Zm8.54-.06v-.18c0-1.94-.82-3-2.27-3s-2.27,1-2.27,3v.18c0,1.94.86,2.93,2.23,2.93S80.88,281.33,80.88,279.37Z" fill="#fff"/><path d="M86.88,283.09a2.2,2.2,0,0,1,2.25-2.23,2.23,2.23,0,1,1,0,4.45A2.2,2.2,0,0,1,86.88,283.09Z" fill="#fff"/><path d="M89.52,269.33h3.7l-.46,6.05H90Zm4.67,0h3.72l-.47,6.05H94.65Z" fill="#fff"/><path d="M35.57,405h7.94v1.52H35.57Z" fill="#fff"/><path d="M49.56,397.92h2.86l5.42,9.31v-9.31H60V410.8H57.53l-5.8-9.87v9.87H49.56Z" fill="#fff"/><path d="M61.83,406.19V406a4.58,4.58,0,0,1,4.68-4.86c2.34,0,4.45,1.39,4.45,4.76v.63h-6.9c.08,1.78,1,2.79,2.6,2.79,1.31,0,2-.52,2.16-1.44h2.1c-.3,2-1.9,3.06-4.32,3.06A4.51,4.51,0,0,1,61.83,406.19Zm7-1.08c-.11-1.62-.94-2.34-2.29-2.34a2.42,2.42,0,0,0-2.41,2.34Z" fill="#fff"/><path d="M72.63,401.38h2.18v1.77a3.13,3.13,0,0,1,3.06-1.91v2c-1.91,0-3.06.63-3.06,2.63v4.9H72.63Z" fill="#fff"/><path d="M78.68,406.24v-.14c0-3,1.78-4.92,4.23-4.92a3.23,3.23,0,0,1,3,1.64V397H88.1V410.8H85.92v-1.59a3.61,3.61,0,0,1-3.1,1.77C80.46,411,78.68,409.3,78.68,406.24Zm7.31-.11V406c0-2.07-.95-3.1-2.54-3.1S80.91,404,80.91,406v.15c0,2.07,1,3.06,2.45,3.06S86,408.24,86,406.13Z" fill="#fff"/><path d="M89.59,397.92H92l2.23,9.46,2.5-9.46h2l2.56,9.51,2.3-9.51h2.24l-3.23,12.88h-2.39l-2.54-9.38-2.61,9.38H92.79Z" fill="#fff"/><path d="M106,408.19c0-2.2,2.13-3,4.83-3H112v-.49c0-1.26-.44-1.89-1.71-1.89a1.56,1.56,0,0,0-1.8,1.48H106.4c.18-2.2,1.93-3.12,4-3.12s3.77.87,3.77,3.44v6.18h-2.15v-1.15a3.27,3.27,0,0,1-2.88,1.33C107.44,411,106,410.15,106,408.19Zm6-.69v-.93H110.9c-1.66,0-2.72.37-2.72,1.53,0,.79.43,1.31,1.51,1.31C111,409.41,112,408.71,112,407.5Z" fill="#fff"/><path d="M116.48,397h2.18V410.8h-2.18Z" fill="#fff"/><path d="M121.09,397h2.18V410.8h-2.18Z" fill="#fff"/><path d="M125,406.19V406a4.58,4.58,0,0,1,4.68-4.86c2.34,0,4.45,1.39,4.45,4.76v.63h-6.9c.08,1.78,1,2.79,2.6,2.79,1.31,0,2-.52,2.16-1.44h2.1c-.3,2-1.91,3.06-4.32,3.06A4.51,4.51,0,0,1,125,406.19Zm7-1.08c-.11-1.62-.94-2.34-2.29-2.34a2.42,2.42,0,0,0-2.41,2.34Z" fill="#fff"/><path d="M136.17,408.17V403h-1.26v-1.64h1.26v-2.07h2.18v2.07h2.07V403h-2.07v5c0,.83.4,1.21,1.08,1.21a2.76,2.76,0,0,0,1.06-.18v1.73A4.33,4.33,0,0,1,139,411,2.53,2.53,0,0,1,136.17,408.17Z" fill="#fff"/></g></svg>