<svg xmlns="http://www.w3.org/2000/svg" viewBox="0 0 160 600"><title>133</title><g id="Layer_2" data-name="Layer 2"><g id="Rect"><rect width="160" height="600" fill="none"/></g><g id="_H_R_Block_Free_Online_stands_out_from_the_crowd._" data-name="&quot;H&amp;R Block Free [Online] stands out  from the crowd.&quot;"><path d="M18.78,163.22H22l-.4,5.23H19.16Zm4,0H26l-.4,5.23H23.21Z" fill="#fff"/><path d="M28.09,163.22H32v5.19h4.47v-5.19h3.89v13.59H36.47v-5.36H32v5.36H28.09Z" fill="#fff"/><path d="M53.68,174l2.26,2.78H51.51l-.79-1A5.44,5.44,0,0,1,47.05,177c-2.89,0-4.77-1.51-4.77-4.1,0-1.75,1.07-3,3-4a4.4,4.4,0,0,1-.83-2.37c0-2.32,2-3.56,4.37-3.56,2.16,0,4.12,1.09,4.12,3.18,0,1.48-.87,2.56-2.72,3.36l1.71,2.09,1-1.94h3Zm-4.71-.4-2.15-2.58a1.6,1.6,0,0,0-.91,1.46,1.58,1.58,0,0,0,1.73,1.69A1.79,1.79,0,0,0,49,173.63Zm-.42-5.47c.91-.43,1.35-.95,1.35-1.65a1,1,0,0,0-1-1,1.08,1.08,0,0,0-1.12,1.17A2.51,2.51,0,0,0,48.55,168.16Z" fill="#fff"/><path d="M57.46,163.22h5.32c3.55,0,5.53,1.45,5.53,4.32v.07a3.55,3.55,0,0,1-2.45,3.57l3.25,5.63H65l-2.75-4.87h-.91v4.87H57.46Zm5.13,6.2c1.31,0,2-.55,2-1.66v-.07c0-1.1-.69-1.54-1.94-1.54H61.34v3.27Z" fill="#fff"/><path d="M74.45,163.22h6.06c3.21,0,4.58,1.45,4.58,3.56v.07a2.8,2.8,0,0,1-2.3,2.93A2.94,2.94,0,0,1,85.5,173V173c0,2.43-1.57,3.78-4.93,3.78H74.45Zm5.28,5.4c1.22,0,1.67-.42,1.67-1.39v-.07c0-.93-.49-1.35-1.67-1.35H78.25v2.81Zm.13,5.58c1.24,0,1.81-.57,1.81-1.57v-.08c0-1-.55-1.56-1.92-1.56h-1.5v3.21Z" fill="#fff"/><path d="M87.14,162.5h3.38v14.31H87.14Z" fill="#fff"/><path d="M92.1,172v-.15c0-3.19,2.37-5.2,5.45-5.2s5.41,1.95,5.41,5.11v.15c0,3.23-2.37,5.16-5.43,5.16S92.1,175.17,92.1,172Zm7.41-.05v-.16c0-1.67-.67-2.6-2-2.6s-2,.89-2,2.57v.15c0,1.71.66,2.64,2,2.64S99.51,173.56,99.51,171.91Z" fill="#fff"/><path d="M103.92,172v-.15a5,5,0,0,1,5.3-5.2c2.43,0,4.67,1.06,4.86,4.08h-3.19a1.47,1.47,0,0,0-1.6-1.44c-1.19,0-1.9.85-1.9,2.52v.15c0,1.73.67,2.63,2,2.63a1.66,1.66,0,0,0,1.73-1.66h3.06c-.1,2.51-1.79,4.14-5,4.14C106.18,177,103.92,175.31,103.92,172Z" fill="#fff"/><path d="M115.53,162.5h3.4v8.3l2.67-3.93h3.54l-3.25,4.47,3.51,5.47h-3.8l-2.67-4.35v4.35h-3.4Z" fill="#fff"/><path d="M19.31,186.22h9.18v3H23.22v2.89h4.2V195h-4.2v4.81H19.31Z" fill="#fff"/><path d="M29.68,189.87h3.41v2a3.13,3.13,0,0,1,3.21-2.11v3.17c-2.07-.06-3.21.59-3.21,2.19v4.71H29.68Z" fill="#fff"/><path d="M37.19,195v-.15a5.08,5.08,0,0,1,5.38-5.2c2.71,0,5,1.55,5,5.12v.9h-7a2,2,0,0,0,2.07,2.07c1.12,0,1.59-.51,1.73-1.18h3.19c-.3,2.24-2,3.51-5,3.51S37.19,198.21,37.19,195Zm7.12-1.25c-.05-1.2-.64-1.86-1.74-1.86a1.88,1.88,0,0,0-1.9,1.86Z" fill="#fff"/><path d="M48.55,195v-.15a5.08,5.08,0,0,1,5.38-5.2c2.71,0,5,1.55,5,5.12v.9H52a2,2,0,0,0,2.07,2.07c1.12,0,1.6-.51,1.73-1.18H59c-.3,2.24-2,3.51-5,3.51S48.55,198.21,48.55,195Zm7.13-1.25c-.06-1.2-.65-1.86-1.75-1.86a1.88,1.88,0,0,0-1.9,1.86Z" fill="#fff"/><path d="M64.44,185.06h5.79v2.49H67.85v12.58h2.38v2.49H64.44Z" fill="#fff"/><path d="M71.54,193.1V193c0-4.14,3.12-6.92,7.18-6.92s7.2,2.61,7.2,6.82V193c0,4.18-2.87,7-7.25,7S71.54,197.19,71.54,193.1Zm10.32,0v-.15c0-2.41-1.22-3.84-3.14-3.84s-3.11,1.39-3.11,3.86v.15c0,2.47,1.25,3.9,3.13,3.9S81.86,195.49,81.86,193.06Z" fill="#fff"/><path d="M87.52,189.87h3.4v1.6a3.5,3.5,0,0,1,3.27-1.86c1.92,0,3.25,1.19,3.25,3.74v6.46H94V194c0-1.12-.44-1.67-1.43-1.67s-1.69.61-1.69,1.88v5.57h-3.4Z" fill="#fff"/><path d="M99.47,185.5h3.38v14.31H99.47Z" fill="#fff"/><path d="M104.89,187.17a1.77,1.77,0,0,1,1.86-1.76,1.76,1.76,0,1,1,0,3.51A1.75,1.75,0,0,1,104.89,187.17Zm.17,2.7h3.4v9.94h-3.4Z" fill="#fff"/><path d="M110.57,189.87H114v1.6a3.49,3.49,0,0,1,3.26-1.86c1.92,0,3.25,1.19,3.25,3.74v6.46h-3.4V194c0-1.12-.43-1.67-1.42-1.67S114,193,114,194.24v5.57h-3.4Z" fill="#fff"/><path d="M121.89,195v-.15a5.08,5.08,0,0,1,5.38-5.2c2.71,0,5,1.55,5,5.12v.9h-7a2,2,0,0,0,2.07,2.07c1.12,0,1.6-.51,1.73-1.18h3.19c-.3,2.24-2,3.51-5,3.51S121.89,198.21,121.89,195Zm7.12-1.25c0-1.2-.64-1.86-1.74-1.86a1.88,1.88,0,0,0-1.9,1.86Z" fill="#fff"/><path d="M133.33,200.13h2.35V187.55h-2.35v-2.49h5.77v17.56h-5.77Z" fill="#fff"/><path d="M18.34,219.65h3.14c.11.73.43,1.12,1.4,1.12s1.22-.32,1.22-.81-.48-.71-1.84-.9c-2.66-.34-3.78-1.12-3.78-3.19s1.95-3.26,4.25-3.26,4.16.83,4.39,3.21H24a1.1,1.1,0,0,0-1.27-1c-.74,0-1.12.32-1.12.78s.45.66,1.67.81c2.75.35,4.08,1.07,4.08,3.2,0,2.35-1.74,3.41-4.5,3.41S18.42,221.86,18.34,219.65Z" fill="#fff"/><path d="M29.25,219.62v-4.43h-1.2v-2.32h1.2V210.8h3.4v2.07h2v2.32h-2v4.1a.91.91,0,0,0,1,1.05,2.61,2.61,0,0,0,1-.17v2.58a7.27,7.27,0,0,1-1.88.28C30.5,223,29.25,222,29.25,219.62Z" fill="#fff"/><path d="M35.65,220.05c0-2.33,2-3.25,5.28-3.25h1v-.22c0-1-.23-1.58-1.31-1.58a1.22,1.22,0,0,0-1.35,1.18H36c.15-2.4,2-3.57,4.75-3.57s4.48,1.12,4.48,3.76v6.44H42v-1.16A3.28,3.28,0,0,1,39,223C37.23,223,35.65,222.16,35.65,220.05Zm6.23-.72v-.61H41c-1.37,0-2,.27-2,1.09,0,.57.38.93,1.18.93A1.5,1.5,0,0,0,41.88,219.33Z" fill="#fff"/><path d="M47.2,212.87h3.4v1.6a3.5,3.5,0,0,1,3.27-1.86c1.92,0,3.25,1.19,3.25,3.74v6.46h-3.4V217c0-1.12-.44-1.67-1.43-1.67s-1.69.61-1.69,1.88v5.57H47.2Z" fill="#fff"/><path d="M58.56,217.94v-.15c0-3.38,1.87-5.18,4.22-5.18a3.21,3.21,0,0,1,3.06,1.67V208.5h3.4v14.31h-3.4v-1.62a3.34,3.34,0,0,1-3.1,1.84C60.45,223,58.56,221.38,58.56,217.94Zm7.38-.05v-.16c0-1.67-.71-2.56-2-2.56s-2,.85-2,2.58v.16c0,1.67.74,2.52,1.92,2.52S65.94,219.58,65.94,217.89Z" fill="#fff"/><path d="M70.59,219.65h3.14c.11.73.43,1.12,1.4,1.12s1.22-.32,1.22-.81-.48-.71-1.85-.9c-2.65-.34-3.78-1.12-3.78-3.19s2-3.26,4.26-3.26c2.45,0,4.16.83,4.39,3.21H76.29a1.1,1.1,0,0,0-1.27-1c-.74,0-1.12.32-1.12.78s.45.66,1.67.81c2.75.35,4.08,1.07,4.08,3.2,0,2.35-1.74,3.41-4.5,3.41S70.67,221.86,70.59,219.65Z" fill="#fff"/><path d="M84.25,218v-.15a5.1,5.1,0,0,1,5.45-5.2c3.06,0,5.42,1.95,5.42,5.11v.15c0,3.23-2.38,5.16-5.43,5.16S84.25,221.17,84.25,218Zm7.41-.05v-.16c0-1.67-.66-2.6-2-2.6s-2,.89-2,2.57v.15c0,1.71.66,2.64,2,2.64S91.66,219.56,91.66,217.91Z" fill="#fff"/><path d="M96.53,219.35v-6.48h3.4v5.93c0,1.12.43,1.67,1.4,1.67s1.69-.61,1.69-1.88v-5.72h3.4v9.94H103v-1.54A3.27,3.27,0,0,1,99.87,223C98,223,96.53,221.86,96.53,219.35Z" fill="#fff"/><path d="M108.89,219.62v-4.43H107.7v-2.32h1.19V210.8h3.4v2.07h2v2.32h-2v4.1a.92.92,0,0,0,1,1.05,2.66,2.66,0,0,0,1-.17v2.58a7.34,7.34,0,0,1-1.88.28C110.15,223,108.89,222,108.89,219.62Z" fill="#fff"/><path d="M19.52,238.19H18.27v-2.32h1.25V235c0-2.47,1.54-3.65,3.89-3.65a5.77,5.77,0,0,1,1.56.21v2.49a2.94,2.94,0,0,0-.93-.14A1,1,0,0,0,22.9,235v.87h2v2.32h-2v7.62H19.52Z" fill="#fff"/><path d="M26.34,235.87h3.4v2A3.13,3.13,0,0,1,33,235.74v3.17c-2.07-.06-3.21.59-3.21,2.19v4.71h-3.4Z" fill="#fff"/><path d="M33.85,241v-.15c0-3.19,2.37-5.2,5.45-5.2s5.41,1.95,5.41,5.11v.15c0,3.23-2.37,5.16-5.43,5.16S33.85,244.17,33.85,241Zm7.4-.05v-.16c0-1.67-.66-2.6-2-2.6s-2,.89-2,2.57v.15c0,1.71.67,2.64,2,2.64S41.25,242.56,41.25,240.91Z" fill="#fff"/><path d="M46.2,235.87h3.4v1.52a3.46,3.46,0,0,1,3.11-1.78,2.72,2.72,0,0,1,2.7,1.65,3.92,3.92,0,0,1,3.29-1.65c1.88,0,3.24,1.21,3.24,3.7v6.5h-3.4v-5.93c0-1-.49-1.5-1.27-1.5a1.47,1.47,0,0,0-1.52,1.67v5.76H52.39v-5.93c0-1-.5-1.5-1.27-1.5a1.47,1.47,0,0,0-1.52,1.67v5.76H46.2Z" fill="#fff"/><path d="M68.08,242.62v-4.43H66.89v-2.32h1.19V233.8h3.4v2.07h2v2.32h-2v4.1a.91.91,0,0,0,1,1.05,2.66,2.66,0,0,0,1-.17v2.58a7.34,7.34,0,0,1-1.88.28C69.34,246,68.08,245,68.08,242.62Z" fill="#fff"/><path d="M75,231.5h3.4v6a3.49,3.49,0,0,1,3.27-1.86c1.91,0,3.24,1.19,3.24,3.74v6.46h-3.4V240c0-1.12-.43-1.67-1.42-1.67s-1.69.61-1.69,1.88v5.57H75Z" fill="#fff"/><path d="M86.34,241v-.15a5.08,5.08,0,0,1,5.38-5.2c2.71,0,5,1.55,5,5.12v.9h-7a2,2,0,0,0,2.07,2.07c1.12,0,1.6-.51,1.73-1.18h3.19c-.3,2.24-2,3.51-5,3.51S86.34,244.21,86.34,241Zm7.13-1.25c-.06-1.2-.65-1.86-1.75-1.86a1.88,1.88,0,0,0-1.9,1.86Z" fill="#fff"/><path d="M18.48,264v-.15a5,5,0,0,1,5.3-5.2c2.43,0,4.67,1.06,4.86,4.08H25.45a1.47,1.47,0,0,0-1.6-1.44c-1.2,0-1.9.85-1.9,2.52v.15c0,1.73.67,2.63,2,2.63a1.66,1.66,0,0,0,1.73-1.66H28.7c-.1,2.51-1.79,4.14-5,4.14C20.74,269,18.48,267.31,18.48,264Z" fill="#fff"/><path d="M30.08,258.87h3.4v2a3.14,3.14,0,0,1,3.21-2.11v3.17c-2.07-.06-3.21.59-3.21,2.19v4.71h-3.4Z" fill="#fff"/><path d="M37.59,264v-.15c0-3.19,2.37-5.2,5.45-5.2s5.42,1.95,5.42,5.11v.15c0,3.23-2.38,5.16-5.44,5.16S37.59,267.17,37.59,264Zm7.41,0v-.16c0-1.67-.67-2.6-2-2.6s-2,.89-2,2.57v.15c0,1.71.66,2.64,2,2.64S45,265.56,45,263.91Z" fill="#fff"/><path d="M48.78,258.87h3.55l1.45,5.95,1.67-5.95h2.73l1.49,5.95,1.61-5.95h3.23l-3.15,9.94H58.11l-1.48-5.55-1.54,5.55H51.78Z" fill="#fff"/><path d="M64.93,263.94v-.15c0-3.38,1.86-5.18,4.22-5.18a3.21,3.21,0,0,1,3.06,1.67V254.5h3.4v14.31h-3.4v-1.62a3.35,3.35,0,0,1-3.1,1.84C66.81,269,64.93,267.38,64.93,263.94Zm7.37-.05v-.16c0-1.67-.7-2.56-2-2.56s-2,.85-2,2.58v.16c0,1.67.74,2.52,1.92,2.52S72.3,265.58,72.3,263.89Z" fill="#fff"/><path d="M77.49,267.1a1.89,1.89,0,0,1,1.94-1.92,1.92,1.92,0,1,1,0,3.84A1.9,1.9,0,0,1,77.49,267.1Z" fill="#fff"/><path d="M79.77,255.22H83l-.4,5.23H80.15Zm4,0H87l-.4,5.23H84.2Z" fill="#fff"/></g><g id="_NerdWallet" data-name="– NerdWallet"><path d="M35.57,404h7.94v1.52H35.57Z" fill="#fff"/><path d="M49.56,396.92h2.86l5.42,9.31v-9.31H60V409.8H57.53l-5.8-9.87v9.87H49.56Z" fill="#fff"/><path d="M61.83,405.19V405a4.58,4.58,0,0,1,4.68-4.86c2.34,0,4.45,1.39,4.45,4.76v.63h-6.9c.08,1.78,1,2.79,2.6,2.79,1.31,0,2-.52,2.16-1.44h2.1c-.3,2-1.9,3.06-4.32,3.06A4.51,4.51,0,0,1,61.83,405.19Zm7-1.08c-.11-1.62-.94-2.34-2.29-2.34a2.42,2.42,0,0,0-2.41,2.34Z" fill="#fff"/><path d="M72.63,400.38h2.18v1.77a3.14,3.14,0,0,1,3.06-1.91v2c-1.91,0-3.06.63-3.06,2.63v4.9H72.63Z" fill="#fff"/><path d="M78.68,405.24v-.14c0-3,1.78-4.92,4.23-4.92a3.23,3.23,0,0,1,3,1.64V396H88.1V409.8H85.92v-1.59a3.61,3.61,0,0,1-3.1,1.77C80.46,410,78.68,408.3,78.68,405.24Zm7.31-.11V405c0-2.07-.95-3.1-2.54-3.1S80.91,403,80.91,405v.15c0,2.07,1,3.06,2.45,3.06S86,407.24,86,405.13Z" fill="#fff"/><path d="M89.59,396.92H92l2.23,9.46,2.5-9.46h2l2.56,9.51,2.3-9.51h2.24l-3.23,12.88h-2.39l-2.54-9.38-2.61,9.38H92.79Z" fill="#fff"/><path d="M106,407.19c0-2.2,2.13-3,4.83-3H112v-.49c0-1.26-.44-1.89-1.71-1.89a1.56,1.56,0,0,0-1.8,1.48H106.4c.18-2.2,1.93-3.12,4-3.12s3.77.87,3.77,3.44v6.18h-2.15v-1.15a3.27,3.27,0,0,1-2.88,1.33C107.44,410,106,409.15,106,407.19Zm6-.69v-.93H110.9c-1.66,0-2.72.38-2.72,1.53,0,.79.43,1.31,1.51,1.31C111,408.41,112,407.71,112,406.5Z" fill="#fff"/><path d="M116.48,396h2.18V409.8h-2.18Z" fill="#fff"/><path d="M121.09,396h2.18V409.8h-2.18Z" fill="#fff"/><path d="M125,405.19V405a4.58,4.58,0,0,1,4.68-4.86c2.34,0,4.45,1.39,4.45,4.76v.63h-6.9c.08,1.78,1,2.79,2.6,2.79,1.31,0,2-.52,2.16-1.44h2.1c-.3,2-1.9,3.06-4.32,3.06A4.51,4.51,0,0,1,125,405.19Zm7-1.08c-.11-1.62-.94-2.34-2.29-2.34a2.42,2.42,0,0,0-2.41,2.34Z" fill="#fff"/><path d="M136.17,407.17V402h-1.26v-1.64h1.26v-2.07h2.18v2.07h2.07V402h-2.07v5c0,.83.4,1.21,1.08,1.21a2.76,2.76,0,0,0,1.06-.18v1.73A4.33,4.33,0,0,1,139,410,2.53,2.53,0,0,1,136.17,407.17Z" fill="#fff"/></g></g></svg>