<svg xmlns="http://www.w3.org/2000/svg" viewBox="0 0 300 250"><title>H4</title><g id="Layer_2" data-name="Layer 2"><g id="Rect"><rect width="300" height="250" fill="none"/></g><g id="H04"><g id="You_could_get_a_Refund_Advance_loan._0_Interest._Starts_Jan_4." data-name="You could get a Refund Advance loan. 0% Interest. Starts Jan 4."><path d="M27.53,27,20.25,14.19h7L31,21.72l3.78-7.53h6.13L34,27v9.56H27.53Z" fill="#fff"/><path d="M38.56,28.56v-.25c0-5.25,3.91-8.56,9-8.56s8.91,3.22,8.91,8.41v.25c0,5.31-3.91,8.5-8.94,8.5S38.56,33.84,38.56,28.56Zm12.19-.09v-.25c0-2.75-1.09-4.28-3.22-4.28s-3.25,1.47-3.25,4.22v.25c0,2.81,1.1,4.34,3.25,4.34S50.75,31.19,50.75,28.47Z" fill="#fff"/><path d="M58.28,30.84V20.19h5.6v9.75c0,1.84.71,2.75,2.31,2.75s2.78-1,2.78-3.1v-9.4h5.59V36.53H69V34a5.38,5.38,0,0,1-5.19,2.91C60.62,36.91,58.28,35,58.28,30.84Z" fill="#fff"/><path d="M82.22,28.56v-.25c0-5.44,3.9-8.56,8.72-8.56,4,0,7.68,1.75,8,6.72H93.69a2.42,2.42,0,0,0-2.63-2.38c-2,0-3.12,1.41-3.12,4.16v.25c0,2.84,1.09,4.31,3.22,4.31A2.72,2.72,0,0,0,94,30.09h5c-.16,4.13-2.94,6.82-8.22,6.82C85.94,36.91,82.22,34.06,82.22,28.56Z" fill="#fff"/><path d="M100,28.56v-.25c0-5.25,3.9-8.56,9-8.56s8.9,3.22,8.9,8.41v.25c0,5.31-3.9,8.5-8.93,8.5S100,33.84,100,28.56Zm12.19-.09v-.25c0-2.75-1.1-4.28-3.22-4.28s-3.25,1.47-3.25,4.22v.25c0,2.81,1.09,4.34,3.25,4.34S112.16,31.19,112.16,28.47Z" fill="#fff"/><path d="M119.69,30.84V20.19h5.59v9.75c0,1.84.72,2.75,2.31,2.75s2.78-1,2.78-3.1v-9.4H136V36.53h-5.6V34a5.36,5.36,0,0,1-5.18,2.91C122,36.91,119.69,35,119.69,30.84Z" fill="#fff"/><path d="M139,13h5.56V36.53H139Z" fill="#fff"/><path d="M146.72,28.53v-.25c0-5.56,3.06-8.53,6.93-8.53a5.3,5.3,0,0,1,5,2.75V13h5.59V36.53h-5.59V33.87a5.53,5.53,0,0,1-5.1,3C149.81,36.91,146.72,34.19,146.72,28.53Zm12.12-.09v-.25c0-2.75-1.15-4.22-3.22-4.22s-3.22,1.4-3.22,4.25v.25c0,2.75,1.22,4.15,3.16,4.15S158.84,31.22,158.84,28.44Z" fill="#fff"/><path d="M171.9,36.53h5.57c.25,1.19,1,2.13,3,2.13,2.46,0,3.46-1.41,3.46-3.44v-2.5a5.72,5.72,0,0,1-5.06,3c-3.81,0-6.94-2.81-6.94-7.85v-.25c0-4.81,3.1-7.87,6.94-7.87a5.29,5.29,0,0,1,5.06,2.75V20.19h5.6v15c0,4.87-3.22,7.43-9.06,7.43C174.9,42.59,172.34,40.25,171.9,36.53Zm12.19-8.69v-.22c0-2.25-1.16-3.68-3.22-3.68s-3.22,1.47-3.22,3.72v.25c0,2.25,1.19,3.68,3.19,3.68S184.09,30.16,184.09,27.84Z" fill="#fff"/><path d="M191.5,28.56v-.25c0-5.25,3.9-8.56,8.84-8.56,4.47,0,8.31,2.56,8.31,8.44v1.47h-11.5c.16,2.15,1.41,3.4,3.41,3.4,1.84,0,2.62-.84,2.84-1.94h5.25c-.5,3.69-3.34,5.79-8.28,5.79C195.25,36.91,191.5,33.91,191.5,28.56Zm11.72-2.06c-.1-2-1.07-3.06-2.88-3.06s-2.84,1.09-3.12,3.06Z" fill="#fff"/><path d="M211.34,31.28V24h-2V20.19h2V16.78h5.59v3.41h3.22V24h-3.22v6.75a1.5,1.5,0,0,0,1.66,1.72,4.38,4.38,0,0,0,1.59-.28v4.25a12,12,0,0,1-3.09.47C213.4,36.91,211.34,35.12,211.34,31.28Z" fill="#fff"/><path d="M227,32c0-3.84,3.25-5.34,8.68-5.34h1.57v-.38c0-1.56-.38-2.59-2.16-2.59a2,2,0,0,0-2.22,1.93h-5.25c.25-3.93,3.35-5.87,7.81-5.87s7.38,1.84,7.38,6.19V36.53H237.4V34.62a5.36,5.36,0,0,1-4.84,2.29C229.62,36.91,227,35.47,227,32Zm10.25-1.19v-1h-1.47c-2.25,0-3.25.44-3.25,1.78,0,.94.62,1.53,1.94,1.53C236.09,33.12,237.28,32.22,237.28,30.81Z" fill="#fff"/><path d="M22.16,47.44h8.75c5.84,0,9.09,2.37,9.09,7.09v.13a5.85,5.85,0,0,1-4,5.87l5.34,9.25H34.56l-4.53-8h-1.5v8H22.16Zm8.43,10.18c2.16,0,3.22-.9,3.22-2.71v-.13c0-1.81-1.12-2.53-3.19-2.53H28.53v5.37Z" fill="#fff"/><path d="M41.31,61.81v-.25c0-5.25,3.91-8.56,8.85-8.56,4.46,0,8.31,2.56,8.31,8.44v1.47H47c.15,2.15,1.41,3.4,3.41,3.4,1.84,0,2.62-.84,2.84-1.94h5.25c-.5,3.69-3.35,5.79-8.28,5.79C45.06,70.16,41.31,67.16,41.31,61.81ZM53,59.75c-.09-2-1.06-3.06-2.87-3.06S47.31,57.78,47,59.75Z" fill="#fff"/><path d="M61.25,57.25H59.19V53.44h2.06V52c0-4.06,2.53-6,6.41-6a10.31,10.31,0,0,1,2.56.34v4.1a5,5,0,0,0-1.53-.22A1.64,1.64,0,0,0,66.81,52v1.44h3.31v3.81H66.81V69.78H61.25Z" fill="#fff"/><path d="M71.87,64.09V53.44h5.6v9.75c0,1.84.72,2.75,2.31,2.75s2.78-1,2.78-3.1v-9.4h5.6V69.78h-5.6V67.25a5.37,5.37,0,0,1-5.19,2.91C74.22,70.16,71.87,68.22,71.87,64.09Z" fill="#fff"/><path d="M91,53.44h5.59v2.62A5.78,5.78,0,0,1,102,53c3.15,0,5.34,2,5.34,6.16V69.78h-5.59v-9.5c0-1.84-.72-2.75-2.35-2.75s-2.78,1-2.78,3.09v9.16H91Z" fill="#fff"/><path d="M109.22,61.78v-.25c0-5.56,3.06-8.53,6.93-8.53a5.3,5.3,0,0,1,5,2.75v-9.5h5.59V69.78h-5.59V67.12a5.53,5.53,0,0,1-5.1,3C112.31,70.16,109.22,67.44,109.22,61.78Zm12.12-.09v-.25c0-2.75-1.15-4.22-3.22-4.22s-3.22,1.4-3.22,4.25v.25c0,2.75,1.22,4.15,3.16,4.15S121.34,64.47,121.34,61.69Z" fill="#fff"/><path d="M141.22,47.44h8.28l7.09,22.34h-6.78l-1.19-4.16h-7.4L140,69.78h-6Zm1.25,13.78h4.9l-2.43-8.6Z" fill="#fff"/><path d="M157,61.78v-.25C157,56,160,53,163.9,53a5.3,5.3,0,0,1,5,2.75v-9.5h5.59V69.78h-5.59V67.12a5.53,5.53,0,0,1-5.1,3C160.06,70.16,157,67.44,157,61.78Zm12.12-.09v-.25c0-2.75-1.15-4.22-3.22-4.22s-3.22,1.4-3.22,4.25v.25c0,2.75,1.22,4.15,3.16,4.15S169.09,64.47,169.09,61.69Z" fill="#fff"/><path d="M176,53.44h6L185.34,64l3.35-10.53H194l-6,16.34H182Z" fill="#fff"/><path d="M193.81,65.25c0-3.84,3.25-5.34,8.69-5.34h1.56v-.38c0-1.56-.37-2.59-2.16-2.59a2,2,0,0,0-2.21,1.93h-5.25c.25-3.93,3.34-5.87,7.81-5.87s7.37,1.84,7.37,6.19V69.78h-5.43V67.87a5.38,5.38,0,0,1-4.85,2.29C196.4,70.16,193.81,68.72,193.81,65.25Zm10.25-1.19v-1h-1.47c-2.25,0-3.25.44-3.25,1.78,0,.94.63,1.53,1.94,1.53C202.87,66.37,204.06,65.47,204.06,64.06Z" fill="#fff"/><path d="M212.34,53.44h5.6v2.62A5.75,5.75,0,0,1,223.31,53c3.16,0,5.34,2,5.34,6.16V69.78h-5.59v-9.5c0-1.84-.72-2.75-2.34-2.75s-2.78,1-2.78,3.09v9.16h-5.6Z" fill="#fff"/><path d="M230.5,61.81v-.25c0-5.44,3.9-8.56,8.72-8.56,4,0,7.68,1.75,8,6.72H242a2.42,2.42,0,0,0-2.63-2.38c-2,0-3.12,1.41-3.12,4.16v.25c0,2.84,1.09,4.31,3.22,4.31a2.72,2.72,0,0,0,2.84-2.72h5c-.16,4.13-2.94,6.82-8.22,6.82C234.22,70.16,230.5,67.31,230.5,61.81Z" fill="#fff"/><path d="M248.25,61.81v-.25c0-5.25,3.9-8.56,8.84-8.56,4.47,0,8.31,2.56,8.31,8.44v1.47H253.9c.16,2.15,1.41,3.4,3.41,3.4,1.84,0,2.62-.84,2.84-1.94h5.25c-.5,3.69-3.34,5.79-8.28,5.79C252,70.16,248.25,67.16,248.25,61.81ZM260,59.75c-.1-2-1.07-3.06-2.88-3.06s-2.84,1.09-3.12,3.06Z" fill="#fff"/><path d="M21.81,79.5h5.57V103H21.81Z" fill="#fff"/><path d="M29.5,95.06v-.25c0-5.25,3.91-8.56,9-8.56s8.9,3.22,8.9,8.41v.25c0,5.31-3.9,8.5-8.93,8.5S29.5,100.34,29.5,95.06ZM41.69,95v-.25c0-2.75-1.1-4.28-3.22-4.28s-3.25,1.47-3.25,4.22v.25c0,2.81,1.09,4.34,3.25,4.34S41.69,97.69,41.69,95Z" fill="#fff"/><path d="M48.41,98.5c0-3.84,3.25-5.34,8.68-5.34h1.57v-.38c0-1.56-.38-2.59-2.16-2.59a2,2,0,0,0-2.22,1.93H49c.25-3.93,3.34-5.87,7.81-5.87s7.38,1.84,7.38,6.19V103H58.78v-1.91a5.36,5.36,0,0,1-4.84,2.29C51,103.41,48.41,102,48.41,98.5Zm10.25-1.19v-1H57.19c-2.25,0-3.25.44-3.25,1.78,0,.94.62,1.53,1.93,1.53C57.47,99.62,58.66,98.72,58.66,97.31Z" fill="#fff"/><path d="M66.94,86.69h5.59v2.62a5.78,5.78,0,0,1,5.38-3.06c3.15,0,5.34,2,5.34,6.16V103H77.66v-9.5c0-1.84-.72-2.75-2.35-2.75s-2.78,1-2.78,3.09V103H66.94Z" fill="#fff"/><path d="M85.75,100.22a3.12,3.12,0,0,1,3.19-3.16,3.16,3.16,0,1,1,0,6.31A3.11,3.11,0,0,1,85.75,100.22Z" fill="#fff"/><path d="M100,92.34v-.93c0-7.07,4.4-11,10.31-11S120.62,84,120.62,91.28v.88c0,7.09-4.06,11.25-10.43,11.25S100,99.37,100,92.34Zm14.22-.06v-.91c0-4.09-1.19-6.15-3.91-6.15s-3.91,2-3.91,6.15v.94c0,4.16,1.22,6.13,4,6.13S114.22,96.41,114.22,92.28Z" fill="#fff"/><path d="M121.84,86a5.62,5.62,0,0,1,5.94-5.56c3.34,0,5.91,2.28,5.91,5.47a5.6,5.6,0,0,1-5.94,5.75C124.06,91.66,121.84,89.22,121.84,86Zm18.41-5.31h3.06L127.81,103h-3.06ZM129.56,86c0-1.47-.62-2.38-1.78-2.38s-1.84.88-1.84,2.35.68,2.44,1.84,2.44S129.56,87.47,129.56,86Zm4.72,11.75a5.62,5.62,0,0,1,5.94-5.56c3.37,0,5.9,2.25,5.9,5.47a5.59,5.59,0,0,1-5.93,5.75C136.5,103.41,134.28,101,134.28,97.75Zm7.75,0c0-1.44-.63-2.35-1.81-2.35s-1.82.88-1.82,2.35.69,2.4,1.82,2.4S142,99.22,142,97.72Z" fill="#fff"/><path d="M154.4,80.69h6.47V103H154.4Z" fill="#fff"/><path d="M164.31,86.69h5.59v2.62a5.78,5.78,0,0,1,5.38-3.06c3.16,0,5.34,2,5.34,6.16V103H175v-9.5c0-1.84-.72-2.75-2.34-2.75s-2.79,1-2.79,3.09V103h-5.59Z" fill="#fff"/><path d="M184.09,97.78V90.5h-2V86.69h2V83.28h5.6v3.41h3.21V90.5h-3.21v6.75c0,1.19.59,1.72,1.65,1.72a4.43,4.43,0,0,0,1.6-.28v4.25a12.13,12.13,0,0,1-3.1.47C186.15,103.41,184.09,101.62,184.09,97.78Z" fill="#fff"/><path d="M194.15,95.06v-.25c0-5.25,3.91-8.56,8.85-8.56,4.47,0,8.31,2.56,8.31,8.44v1.47h-11.5c.16,2.15,1.41,3.4,3.41,3.4,1.84,0,2.62-.84,2.84-1.94h5.25c-.5,3.69-3.34,5.79-8.28,5.79C197.9,103.41,194.15,100.41,194.15,95.06ZM205.87,93c-.09-2-1.06-3.06-2.87-3.06S200.15,91,199.87,93Z" fill="#fff"/><path d="M213.25,86.69h5.59v3.25a5.15,5.15,0,0,1,5.28-3.47v5.22c-3.4-.1-5.28,1-5.28,3.59V103h-5.59Z" fill="#fff"/><path d="M225.12,95.06v-.25c0-5.25,3.91-8.56,8.85-8.56,4.46,0,8.31,2.56,8.31,8.44v1.47h-11.5c.15,2.15,1.4,3.4,3.4,3.4,1.85,0,2.63-.84,2.85-1.94h5.25c-.5,3.69-3.35,5.79-8.28,5.79C228.87,103.41,225.12,100.41,225.12,95.06ZM236.84,93c-.09-2-1.06-3.06-2.87-3.06S231.12,91,230.84,93Z" fill="#fff"/><path d="M243.28,97.84h5.15c.19,1.19.72,1.85,2.32,1.85,1.37,0,2-.53,2-1.35s-.78-1.15-3-1.47c-4.38-.56-6.22-1.84-6.22-5.25,0-3.62,3.22-5.37,7-5.37,4,0,6.84,1.37,7.22,5.28h-5.07a1.82,1.82,0,0,0-2.09-1.62c-1.22,0-1.84.53-1.84,1.28s.75,1.09,2.75,1.34c4.53.56,6.71,1.75,6.71,5.25,0,3.88-2.87,5.63-7.4,5.63S243.4,101.47,243.28,97.84Z" fill="#fff"/><path d="M260.75,97.78V90.5h-2V86.69h2V83.28h5.59v3.41h3.22V90.5h-3.22v6.75c0,1.19.59,1.72,1.66,1.72a4.42,4.42,0,0,0,1.59-.28v4.25a12,12,0,0,1-3.09.47C262.81,103.41,260.75,101.62,260.75,97.78Z" fill="#fff"/><path d="M271.46,100.22a3.12,3.12,0,0,1,3.19-3.16,3.16,3.16,0,1,1,0,6.31A3.12,3.12,0,0,1,271.46,100.22Z" fill="#fff"/><path d="M20.72,129.19h6.09c.16,1.59.88,2.9,3.53,2.9,1.85,0,2.88-.9,2.88-2.21s-.84-1.76-3.53-2.16c-6.31-.75-8.44-2.63-8.44-7.13,0-4,3.31-7,8.66-7s8.4,2.25,8.81,7H32.78a2.53,2.53,0,0,0-2.87-2.4c-1.72,0-2.6.78-2.6,1.9s.69,1.82,3.47,2.19c5.66.63,8.56,2.09,8.56,6.94,0,4.09-3.25,7.44-9,7.44C24.09,136.66,20.91,134,20.72,129.19Z" fill="#fff"/><path d="M42.16,131v-7.28h-2v-3.81h2v-3.41h5.59v3.41H51v3.81H47.75v6.75c0,1.19.59,1.72,1.66,1.72a4.42,4.42,0,0,0,1.59-.28v4.25a11.62,11.62,0,0,1-3.09.47C44.22,136.66,42.16,134.88,42.16,131Z" fill="#fff"/><path d="M52.22,131.75c0-3.84,3.25-5.34,8.69-5.34h1.56V126c0-1.56-.38-2.59-2.16-2.59a2,2,0,0,0-2.22,1.94H52.84c.25-3.94,3.35-5.88,7.82-5.88S68,121.34,68,125.69v10.59H62.59v-1.9a5.38,5.38,0,0,1-4.84,2.28C54.81,136.66,52.22,135.22,52.22,131.75Zm10.25-1.19v-1H61c-2.25,0-3.25.44-3.25,1.78,0,.94.62,1.54,1.94,1.54C61.28,132.88,62.47,132,62.47,130.56Z" fill="#fff"/><path d="M70.75,119.94h5.59v3.25a5.15,5.15,0,0,1,5.28-3.47v5.22c-3.4-.1-5.28,1-5.28,3.59v7.75H70.75Z" fill="#fff"/><path d="M84.65,131v-7.28h-2v-3.81h2v-3.41h5.6v3.41h3.22v3.81H90.25v6.75c0,1.19.59,1.72,1.65,1.72a4.43,4.43,0,0,0,1.6-.28v4.25a11.64,11.64,0,0,1-3.1.47C86.72,136.66,84.65,134.88,84.65,131Z" fill="#fff"/><path d="M94.72,131.09h5.15c.19,1.19.72,1.85,2.32,1.85,1.37,0,2-.53,2-1.35s-.79-1.15-3-1.47c-4.37-.56-6.21-1.84-6.21-5.25,0-3.62,3.21-5.37,7-5.37,4,0,6.84,1.37,7.21,5.28h-5.06a1.82,1.82,0,0,0-2.09-1.62c-1.22,0-1.85.53-1.85,1.28s.75,1.09,2.75,1.34c4.54.56,6.72,1.75,6.72,5.25,0,3.88-2.87,5.63-7.4,5.63S94.84,134.72,94.72,131.09Z" fill="#fff"/><path d="M116.5,135.81V131a7.57,7.57,0,0,0,2.72.44c1.75,0,2.9-.78,2.9-3.09V113.94h6.44v14.5c0,5.37-2.75,8.12-8,8.12A8.55,8.55,0,0,1,116.5,135.81Z" fill="#fff"/><path d="M130.34,131.75c0-3.84,3.25-5.34,8.69-5.34h1.56V126c0-1.56-.37-2.59-2.15-2.59a2,2,0,0,0-2.22,1.94H131c.25-3.94,3.34-5.88,7.81-5.88s7.37,1.84,7.37,6.19v10.59h-5.43v-1.9a5.39,5.39,0,0,1-4.85,2.28C132.94,136.66,130.34,135.22,130.34,131.75Zm10.25-1.19v-1h-1.47c-2.25,0-3.25.44-3.25,1.78,0,.94.63,1.54,1.94,1.54C139.4,132.88,140.59,132,140.59,130.56Z" fill="#fff"/><path d="M148.87,119.94h5.6v2.62a5.75,5.75,0,0,1,5.37-3.06c3.16,0,5.34,2,5.34,6.16v10.62h-5.59v-9.5c0-1.84-.72-2.75-2.34-2.75s-2.78,1-2.78,3.09v9.16h-5.6Z" fill="#fff"/><path d="M183.37,132H172.5v-2.41l9.31-15.65h7.72v13.65h2.87V132h-2.87v4.28h-6.16Zm.16-4.41v-8.84l-5,8.84Z" fill="#fff"/><path d="M193.78,133.47a3.12,3.12,0,0,1,3.19-3.16,3.16,3.16,0,1,1,0,6.31A3.11,3.11,0,0,1,193.78,133.47Z" fill="#fff"/></g></g></g></svg>