<svg xmlns="http://www.w3.org/2000/svg" viewBox="0 0 300 250"><title>Asset 5</title><g id="Layer_2" data-name="Layer 2"><g id="Rect"><rect width="300" height="250" fill="none"/></g><g id="Still_open._Still_here_to_help." data-name="Still open. Still here to help."><path d="M21.86,70.24h7.26c.18,1.9,1,3.47,4.2,3.47,2.2,0,3.43-1.08,3.43-2.65s-1-2.08-4.21-2.57c-7.52-.89-10-3.12-10-8.49,0-4.8,4-8.3,10.31-8.3s10,2.68,10.5,8.3H36.23c-.26-1.89-1.34-2.86-3.43-2.86s-3.09.93-3.09,2.27c0,1.49.82,2.16,4.13,2.6,6.74.75,10.21,2.5,10.21,8.27,0,4.88-3.88,8.86-10.73,8.86C25.88,79.14,22.08,76,21.86,70.24Z" fill="#fff"/><path d="M47.39,72.44V63.76H45.05V59.22h2.34V55.16h6.67v4.06h3.83v4.54H54.06v8.05a1.77,1.77,0,0,0,2,2,5.11,5.11,0,0,0,1.9-.33v5.06a13.7,13.7,0,0,1-3.68.56C49.85,79.14,47.39,77,47.39,72.44Z" fill="#fff"/><path d="M60.28,53.94a3.48,3.48,0,0,1,3.64-3.47,3.45,3.45,0,1,1,0,6.89A3.44,3.44,0,0,1,60.28,53.94Zm.33,5.28h6.66V78.69H60.61Z" fill="#fff"/><path d="M71,50.66h6.63v28H71Z" fill="#fff"/><path d="M81.42,50.66h6.63v28H81.42Z" fill="#fff"/><path d="M97.35,69.2v-.3c0-6.25,4.66-10.2,10.69-10.2s10.61,3.84,10.61,10V69c0,6.33-4.65,10.13-10.65,10.13S97.35,75.49,97.35,69.2Zm14.52-.11v-.3c0-3.28-1.3-5.1-3.83-5.1s-3.87,1.75-3.87,5V69c0,3.36,1.3,5.18,3.87,5.18S111.87,72.33,111.87,69.09Z" fill="#fff"/><path d="M121,59.22h6.67v2.91a6.85,6.85,0,0,1,6.07-3.43c4.54,0,8.22,3.43,8.22,10.09v.3c0,6.7-3.68,10-8.26,10a6.43,6.43,0,0,1-6-3.31v9.38H121Zm14.19,9.87v-.3c0-3.42-1.49-5.06-3.84-5.06s-3.87,1.75-3.87,5v.3c0,3.32,1.45,5,3.87,5S135.18,72.29,135.18,69.09Z" fill="#fff"/><path d="M143.33,69.2v-.3c0-6.25,4.65-10.2,10.54-10.2,5.32,0,9.9,3,9.9,10V70.5h-13.7c.18,2.57,1.67,4.06,4.06,4.06,2.19,0,3.12-1,3.39-2.31h6.25c-.6,4.4-4,6.89-9.87,6.89C147.8,79.14,143.33,75.57,143.33,69.2Zm14-2.46c-.11-2.34-1.26-3.65-3.42-3.65-2,0-3.39,1.31-3.73,3.65Z" fill="#fff"/><path d="M166.08,59.22h6.66v3.13a6.88,6.88,0,0,1,6.4-3.65c3.77,0,6.37,2.35,6.37,7.34V78.69h-6.66V67.38c0-2.2-.86-3.28-2.8-3.28s-3.31,1.19-3.31,3.69v10.9h-6.66Z" fill="#fff"/><path d="M188.49,75.34a3.72,3.72,0,0,1,3.8-3.76,3.76,3.76,0,1,1,0,7.52A3.71,3.71,0,0,1,188.49,75.34Z" fill="#fff"/><path d="M205,70.24h7.26c.19,1.9,1,3.47,4.21,3.47,2.19,0,3.42-1.08,3.42-2.65s-1-2.08-4.2-2.57c-7.53-.89-10.06-3.12-10.06-8.49,0-4.8,3.95-8.3,10.32-8.3s10,2.68,10.49,8.3h-7.07c-.26-1.89-1.34-2.86-3.42-2.86s-3.1.93-3.1,2.27c0,1.49.82,2.16,4.14,2.6,6.74.75,10.2,2.5,10.2,8.27,0,4.88-3.87,8.86-10.72,8.86C209,79.14,205.2,76,205,70.24Z" fill="#fff"/><path d="M230.52,72.44V63.76h-2.35V59.22h2.35V55.16h6.66v4.06H241v4.54h-3.84v8.05a1.78,1.78,0,0,0,2,2,5.1,5.1,0,0,0,1.89-.33v5.06a13.64,13.64,0,0,1-3.68.56C233,79.14,230.52,77,230.52,72.44Z" fill="#fff"/><path d="M243.4,53.94a3.67,3.67,0,1,1,3.65,3.42A3.48,3.48,0,0,1,243.4,53.94Zm.33,5.28h6.67V78.69h-6.67Z" fill="#fff"/><path d="M254.16,50.66h6.63v28h-6.63Z" fill="#fff"/><path d="M264.54,50.66h6.63v28h-6.63Z" fill="#fff"/><path d="M23,91.66h6.67v11.69A6.87,6.87,0,0,1,36,99.7c3.76,0,6.37,2.35,6.37,7.34v12.65H35.74V108.38c0-2.2-.85-3.28-2.79-3.28s-3.31,1.19-3.31,3.69v10.9H23Z" fill="#fff"/><path d="M44.6,110.2v-.3c0-6.25,4.66-10.2,10.54-10.2,5.32,0,9.9,3,9.9,10v1.75H51.34c.19,2.57,1.68,4.06,4.06,4.06,2.2,0,3.13-1,3.39-2.31H65c-.59,4.4-4,6.89-9.86,6.89C49.07,120.14,44.6,116.57,44.6,110.2Zm14-2.46c-.11-2.34-1.26-3.65-3.42-3.65s-3.39,1.31-3.72,3.65Z" fill="#fff"/><path d="M67.35,100.22H74v3.87a6.14,6.14,0,0,1,6.3-4.13v6.22c-4.06-.11-6.3,1.15-6.3,4.28v9.23H67.35Z" fill="#fff"/><path d="M81.5,110.2v-.3c0-6.25,4.65-10.2,10.53-10.2,5.33,0,9.91,3,9.91,10v1.75H88.23c.19,2.57,1.68,4.06,4.06,4.06,2.2,0,3.13-1,3.39-2.31h6.26c-.6,4.4-4,6.89-9.87,6.89C86,120.14,81.5,116.57,81.5,110.2Zm14-2.46c-.11-2.34-1.27-3.65-3.43-3.65s-3.39,1.31-3.72,3.65Z" fill="#fff"/><path d="M111.91,113.44v-8.68h-2.34v-4.54h2.34V96.16h6.67v4.06h3.83v4.54h-3.83v8c0,1.41.7,2,2,2a5.19,5.19,0,0,0,1.9-.33v5.06a13.72,13.72,0,0,1-3.69.56C114.37,120.14,111.91,118,111.91,113.44Z" fill="#fff"/><path d="M123.9,110.2v-.3c0-6.25,4.65-10.2,10.68-10.2s10.61,3.84,10.61,10V110c0,6.33-4.65,10.13-10.64,10.13S123.9,116.49,123.9,110.2Zm14.52-.11v-.3c0-3.28-1.31-5.1-3.84-5.1s-3.87,1.75-3.87,5V110c0,3.36,1.3,5.18,3.87,5.18S138.42,113.33,138.42,110.09Z" fill="#fff"/><path d="M154.31,91.66H161v11.69a6.87,6.87,0,0,1,6.4-3.65c3.76,0,6.37,2.35,6.37,7.34v12.65h-6.67V108.38c0-2.2-.85-3.28-2.79-3.28s-3.31,1.19-3.31,3.69v10.9h-6.67Z" fill="#fff"/><path d="M175.94,110.2v-.3c0-6.25,4.66-10.2,10.54-10.2,5.32,0,9.9,3,9.9,10v1.75h-13.7c.19,2.57,1.68,4.06,4.06,4.06,2.2,0,3.13-1,3.39-2.31h6.25c-.59,4.4-4,6.89-9.86,6.89C180.41,120.14,175.94,116.57,175.94,110.2Zm14-2.46c-.11-2.34-1.26-3.65-3.42-3.65-2,0-3.39,1.31-3.72,3.65Z" fill="#fff"/><path d="M198.87,91.66h6.63v28h-6.63Z" fill="#fff"/><path d="M209.07,100.22h6.67v2.91a6.87,6.87,0,0,1,6.07-3.43c4.54,0,8.23,3.43,8.23,10.09v.3c0,6.7-3.69,10-8.27,10a6.43,6.43,0,0,1-6-3.31v9.38h-6.67Zm14.19,9.87v-.3c0-3.42-1.49-5.06-3.84-5.06s-3.87,1.75-3.87,5v.3c0,3.32,1.45,5,3.87,5S223.26,113.29,223.26,110.09Z" fill="#fff"/><path d="M231.71,116.34a3.72,3.72,0,0,1,3.8-3.76,3.76,3.76,0,1,1,0,7.52A3.71,3.71,0,0,1,231.71,116.34Z" fill="#fff"/></g></g></svg>