<svg xmlns="http://www.w3.org/2000/svg" viewBox="0 0 600 500"><title>H1</title><g id="Layer_2" data-name="Layer 2"><g id="Layer_4" data-name="Layer 4"><rect width="600" height="500" fill="none"/></g><g id="Get_more_with_Block_tax_software." data-name="Get more with Block tax software."><path d="M41,96.08v-.37c0-10.16,7.45-17,17.47-17C66.38,78.69,73.37,82.28,74,91H64.56c-.46-3.12-2.47-4.75-6-4.75-4.71,0-7.55,3.63-7.55,9.65v.37c0,5.41,2,9.6,7.78,9.6,4.66,0,6.43-2.37,6.62-5H59.16V94.12H74.81v4.1c0,8.49-5.54,14.88-16.31,14.88C47.18,113.1,41,106.06,41,96.08Z" fill="#13aa40"/><path d="M76.72,100.65v-.37c0-7.84,5.82-12.78,13.19-12.78,6.66,0,12.39,3.83,12.39,12.59v2.19H85.15c.24,3.22,2.1,5.08,5.08,5.08,2.75,0,3.92-1.26,4.24-2.89h7.83c-.74,5.5-5,8.63-12.35,8.63C82.31,113.1,76.72,108.62,76.72,100.65Zm17.47-3.08C94.06,94.64,92.61,93,89.91,93c-2.52,0-4.24,1.64-4.66,4.57Z" fill="#13aa40"/><path d="M106.31,104.7V93.84h-2.94V88.16h2.94V83.07h8.34v5.09h4.8v5.68h-4.8v10.07c0,1.77.88,2.57,2.47,2.57a6.39,6.39,0,0,0,2.38-.42v6.34a17.57,17.57,0,0,1-4.62.7C109.38,113.1,106.31,110.44,106.31,104.7Z" fill="#13aa40"/><path d="M131.1,88.16h8.34v3.72a8.5,8.5,0,0,1,7.64-4.38c3.21,0,5.45,1.4,6.62,4.06a9.63,9.63,0,0,1,8.06-4.06c4.61,0,8,3,8,9.09v16h-8.34V98c0-2.47-1.22-3.68-3.13-3.68-2.23,0-3.72,1.44-3.72,4.1v14.13h-8.25V98c0-2.47-1.21-3.68-3.12-3.68-2.24,0-3.73,1.44-3.73,4.1v14.13H131.1Z" fill="#13aa40"/><path d="M172.47,100.65v-.37c0-7.84,5.83-12.78,13.38-12.78s13.28,4.8,13.28,12.54v.38c0,7.92-5.83,12.68-13.33,12.68S172.47,108.53,172.47,100.65Zm18.18-.14v-.37c0-4.11-1.63-6.39-4.8-6.39S181,95.94,181,100v.38c0,4.19,1.63,6.48,4.85,6.48S190.65,104.56,190.65,100.51Z" fill="#13aa40"/><path d="M202.06,88.16h8.34V93a7.68,7.68,0,0,1,7.88-5.17v7.78c-5.08-.14-7.88,1.45-7.88,5.37v11.56h-8.34Z" fill="#13aa40"/><path d="M219.77,100.65v-.37c0-7.84,5.82-12.78,13.18-12.78,6.67,0,12.4,3.83,12.4,12.59v2.19H228.2c.23,3.22,2.1,5.08,5.08,5.08,2.75,0,3.92-1.26,4.24-2.89h7.83c-.75,5.5-5,8.63-12.35,8.63C225.36,113.1,219.77,108.62,219.77,100.65Zm17.47-3.08C237.1,94.64,235.66,93,233,93c-2.51,0-4.24,1.64-4.66,4.57Z" fill="#13aa40"/><path d="M40,134.66h8.72l3.54,14.59,4.1-14.59h6.71l3.64,14.59,4-14.59h7.92L70.85,159h-8l-3.63-13.62L55.47,159h-8.1Z" fill="#13aa40"/><path d="M80.54,128a4.6,4.6,0,1,1,4.57,4.28A4.31,4.31,0,0,1,80.54,128Zm.42,6.62H89.3V159H81Z" fill="#13aa40"/><path d="M94.89,151.2V140.34H92v-5.68h2.93v-5.09h8.34v5.09H108v5.68h-4.8v10.07c0,1.77.89,2.57,2.47,2.57a6.35,6.35,0,0,0,2.38-.42v6.34a17.49,17.49,0,0,1-4.61.7C98,159.6,94.89,156.94,94.89,151.2Z" fill="#13aa40"/><path d="M111.2,123.93h8.34v14.64a8.61,8.61,0,0,1,8-4.57c4.7,0,8,2.94,8,9.19V159h-8.35V144.86c0-2.75-1.07-4.1-3.49-4.1s-4.15,1.49-4.15,4.62V159H111.2Z" fill="#13aa40"/><path d="M42.8,172.21H57.66c7.88,0,11.24,3.54,11.24,8.71v.19c0,3.73-1.92,6.2-5.64,7.18,4.1.7,6.66,3.17,6.66,7.78v.19c0,6-3.87,9.28-12.12,9.28h-15Zm13,13.23c3,0,4.1-1,4.1-3.4v-.19c0-2.28-1.21-3.3-4.1-3.3H52.12v6.89Zm.33,13.71c3,0,4.43-1.4,4.43-3.87v-.19c0-2.51-1.35-3.82-4.71-3.82H52.12v7.88Z" fill="#13aa40"/><path d="M73.23,170.43h8.29v35.11H73.23Z" fill="#13aa40"/><path d="M84.69,193.65v-.37c0-7.84,5.82-12.78,13.37-12.78s13.28,4.8,13.28,12.54v.38c0,7.92-5.82,12.68-13.33,12.68S84.69,201.53,84.69,193.65Zm18.17-.14v-.37c0-4.11-1.63-6.39-4.8-6.39s-4.85,2.19-4.85,6.29v.38c0,4.19,1.64,6.48,4.85,6.48S102.86,197.56,102.86,193.51Z" fill="#13aa40"/><path d="M113,193.65v-.37c0-8.12,5.83-12.78,13-12.78,6,0,11.47,2.61,11.93,10h-7.83c-.37-2.29-1.49-3.55-3.91-3.55-2.94,0-4.66,2.1-4.66,6.2v.38c0,4.24,1.63,6.43,4.8,6.43,2.33,0,4-1.4,4.24-4.06H138c-.23,6.16-4.38,10.17-12.25,10.17C118.52,206.1,113,201.85,113,193.65Z" fill="#13aa40"/><path d="M140.74,170.43h8.34v20.38l6.57-9.65h8.67l-8,11L165,205.54h-9.32l-6.57-10.68v10.68h-8.34Z" fill="#13aa40"/><path d="M176.53,197.7V186.84h-2.94v-5.68h2.94v-5.09h8.34v5.09h4.8v5.68h-4.8v10.07c0,1.77.88,2.57,2.47,2.57a6.3,6.3,0,0,0,2.37-.42v6.34a17.42,17.42,0,0,1-4.61.7C179.6,206.1,176.53,203.44,176.53,197.7Z" fill="#13aa40"/><path d="M191.53,198.78c0-5.74,4.85-8,12.95-8h2.33v-.56c0-2.33-.56-3.87-3.21-3.87a3,3,0,0,0-3.31,2.89h-7.83c.37-5.88,5-8.77,11.65-8.77s11,2.75,11,9.23v15.81H207v-2.85c-1.16,1.77-3.31,3.41-7.22,3.41C195.4,206.1,191.53,204,191.53,198.78ZM206.81,197v-1.49h-2.19c-3.35,0-4.84.66-4.84,2.66,0,1.4.93,2.28,2.89,2.28C205,200.45,206.81,199.1,206.81,197Z" fill="#13aa40"/><path d="M225.31,193.14l-7.59-12h9.6l3.77,6.43,3.68-6.43h8.58l-7.69,11.32,8.43,13.06h-9.6l-4.33-7.28-4.43,7.28H217.2Z" fill="#13aa40"/><path d="M40.42,244.3h7.69c.28,1.77,1.07,2.75,3.45,2.75,2,0,3-.79,3-2s-1.16-1.72-4.52-2.19c-6.52-.84-9.27-2.75-9.27-7.83,0-5.41,4.8-8,10.44-8,6,0,10.2,2.05,10.76,7.88H54.4c-.32-1.63-1.21-2.42-3.12-2.42s-2.75.79-2.75,1.91,1.12,1.63,4.1,2c6.76.84,10,2.61,10,7.83,0,5.78-4.29,8.4-11,8.4C44.66,252.6,40.61,249.71,40.42,244.3Z" fill="#13aa40"/><path d="M64.19,240.15v-.37C64.19,231.94,70,227,77.56,227s13.28,4.81,13.28,12.54v.38c0,7.92-5.82,12.68-13.33,12.68S64.19,248,64.19,240.15ZM82.36,240v-.37c0-4.11-1.63-6.39-4.8-6.39s-4.85,2.19-4.85,6.29v.38c0,4.19,1.63,6.48,4.85,6.48S82.36,244.06,82.36,240Z" fill="#13aa40"/><path d="M95,233.34H92v-5.68H95v-2.15c0-6.06,3.78-8.95,9.55-8.95a14.93,14.93,0,0,1,3.83.51v6.11a7.61,7.61,0,0,0-2.29-.33,2.45,2.45,0,0,0-2.79,2.66v2.15h4.94v5.68h-4.94V252H95Z" fill="#13aa40"/><path d="M112.41,244.2V233.34h-2.93v-5.68h2.93v-5.08h8.34v5.08h4.8v5.68h-4.8v10.07c0,1.77.89,2.57,2.47,2.57a6.39,6.39,0,0,0,2.38-.42v6.34a17.49,17.49,0,0,1-4.61.7C115.49,252.6,112.41,249.94,112.41,244.2Z" fill="#13aa40"/><path d="M126.67,227.66h8.71l3.54,14.59L143,227.66h6.71l3.63,14.59,4-14.59h7.92L157.52,252h-8l-3.64-13.62L142.14,252H134Z" fill="#13aa40"/><path d="M165.06,245.28c0-5.74,4.85-8,13-8h2.33v-.56c0-2.33-.56-3.87-3.22-3.87a3,3,0,0,0-3.31,2.89H166c.37-5.88,5-8.77,11.65-8.77s11,2.75,11,9.23V252h-8.11v-2.85c-1.16,1.77-3.3,3.41-7.22,3.41C168.93,252.6,165.06,250.45,165.06,245.28Zm15.29-1.77V242h-2.19c-3.36,0-4.85.66-4.85,2.66,0,1.4.93,2.29,2.89,2.29C178.58,247,180.35,245.6,180.35,243.51Z" fill="#13aa40"/><path d="M192.69,227.66H201v4.84a7.67,7.67,0,0,1,7.87-5.17v7.78c-5.08-.14-7.87,1.45-7.87,5.37V252h-8.35Z" fill="#13aa40"/><path d="M210.4,240.15v-.37c0-7.84,5.83-12.78,13.19-12.78,6.66,0,12.39,3.83,12.39,12.59v2.19H218.83c.24,3.22,2.1,5.08,5.08,5.08,2.75,0,3.92-1.26,4.25-2.89H236c-.74,5.5-5,8.63-12.35,8.63C216,252.6,210.4,248.12,210.4,240.15Zm17.48-3.08c-.14-2.93-1.59-4.57-4.29-4.57-2.52,0-4.24,1.64-4.66,4.57Z" fill="#13aa40"/><path d="M238.31,247.84a4.65,4.65,0,0,1,4.75-4.71,4.71,4.71,0,1,1,0,9.42A4.65,4.65,0,0,1,238.31,247.84Z" fill="#13aa40"/></g></g></svg>