<svg xmlns="http://www.w3.org/2000/svg" viewBox="0 0 160 600"><title>Asset 9</title><g id="Layer_2" data-name="Layer 2"><g id="Rect"><rect width="160" height="600" fill="none"/></g><g id="Save_10._Switch_from_TurboTax." data-name="Save $10. Switch from TurboTax."><path d="M20.57,175h4.88c.12,1.28.7,2.32,2.82,2.32,1.48,0,2.3-.72,2.3-1.77s-.67-1.4-2.82-1.72c-5.05-.6-6.75-2.1-6.75-5.7,0-3.23,2.65-5.58,6.92-5.58s6.73,1.8,7,5.58H30.22a2,2,0,0,0-2.3-1.93c-1.37,0-2.07.63-2.07,1.53s.55,1.45,2.77,1.75c4.53.5,6.85,1.67,6.85,5.55,0,3.27-2.6,5.94-7.2,5.94C23.27,181,20.72,178.88,20.57,175Z" fill="#fff"/><path d="M36.37,177.06c0-3.07,2.6-4.27,7-4.27h1.25v-.3c0-1.25-.3-2.08-1.72-2.08A1.61,1.61,0,0,0,41.07,172h-4.2c.2-3.15,2.68-4.7,6.25-4.7s5.9,1.48,5.9,5v8.47H44.67v-1.52A4.28,4.28,0,0,1,40.8,181C38.45,181,36.37,179.83,36.37,177.06Zm8.2-.95v-.8H43.4c-1.8,0-2.6.35-2.6,1.43,0,.74.5,1.22,1.55,1.22A2,2,0,0,0,44.57,176.11Z" fill="#fff"/><path d="M49.7,167.61h4.77L57.2,176l2.67-8.43h4.28l-4.78,13.07H54.5Z" fill="#fff"/><path d="M63.87,174.31v-.2c0-4.2,3.13-6.85,7.08-6.85,3.57,0,6.65,2.05,6.65,6.75v1.18H68.4a2.6,2.6,0,0,0,2.72,2.72c1.48,0,2.1-.68,2.28-1.55h4.2C77.2,179.31,74.92,181,71,181S63.87,178.58,63.87,174.31Zm9.38-1.65c-.08-1.57-.85-2.45-2.3-2.45a2.49,2.49,0,0,0-2.5,2.45Z" fill="#fff"/><path d="M86.57,172.5c-2.52-.17-3.74-1.51-3.85-3.43h2.7a1.38,1.38,0,0,0,1.15,1.37v-2.13C84,167.94,83,167,83,165c0-1.76,1.38-3,3.61-3.19v-1.3h1.14v1.31c2.11.18,3.36,1.15,3.54,3.15H88.61a1.17,1.17,0,0,0-.9-1.09v2c2.23.32,3.68,1.08,3.68,3.19,0,1.78-1.15,3.26-3.68,3.42v1.83H86.57Zm0-6.79v-1.86c-.65.12-1,.47-1,.93S85.78,165.55,86.57,165.71Zm1.14,2.79v1.94c.64-.14,1-.51,1-1S88.48,168.67,87.71,168.5Z" fill="#fff"/><path d="M95.78,167.86l-3.4,2.1v-4.27l4.1-2.88h4.43v17.87H95.78Z" fill="#fff"/><path d="M103.36,172.14v-.75c0-5.65,3.52-8.83,8.25-8.83s8.25,2.93,8.25,8.73v.7c0,5.67-3.25,9-8.35,9S103.36,177.76,103.36,172.14Zm11.37,0v-.73c0-3.27-1-4.92-3.12-4.92s-3.13,1.62-3.13,4.92v.75c0,3.33,1,4.9,3.18,4.9S114.73,175.39,114.73,172.09Z" fill="#fff"/><path d="M120.29,178.43a2.49,2.49,0,0,1,2.54-2.52,2.53,2.53,0,1,1,0,5.05A2.49,2.49,0,0,1,120.29,178.43Z" fill="#fff"/><path d="M20.57,205h4.88c.12,1.28.7,2.32,2.82,2.32,1.48,0,2.3-.72,2.3-1.77s-.67-1.4-2.82-1.72c-5.05-.6-6.75-2.1-6.75-5.7,0-3.23,2.65-5.58,6.92-5.58s6.73,1.8,7,5.58H30.22a2,2,0,0,0-2.3-1.93c-1.37,0-2.07.63-2.07,1.53s.55,1.45,2.77,1.75c4.53.5,6.85,1.67,6.85,5.55,0,3.27-2.6,5.94-7.2,5.94C23.27,211,20.72,208.88,20.57,205Z" fill="#fff"/><path d="M35.85,197.61h4.67l1.9,7.83,2.2-7.83h3.6l2,7.83,2.13-7.83h4.24L52.4,210.68H48.12l-1.95-7.29-2,7.29H39.8Z" fill="#fff"/><path d="M57.6,194.06a2.47,2.47,0,1,1,2.45,2.3A2.33,2.33,0,0,1,57.6,194.06Zm.22,3.55H62.3v13.07H57.82Z" fill="#fff"/><path d="M65.3,206.49v-5.83H63.72v-3H65.3v-2.72h4.47v2.72h2.58v3H69.77v5.4a1.2,1.2,0,0,0,1.33,1.38,3.38,3.38,0,0,0,1.27-.23v3.4a9.34,9.34,0,0,1-2.47.37C67,211,65.3,209.56,65.3,206.49Z" fill="#fff"/><path d="M73.35,204.31v-.2c0-4.35,3.12-6.85,7-6.85,3.2,0,6.15,1.4,6.4,5.38h-4.2a1.93,1.93,0,0,0-2.1-1.9c-1.57,0-2.5,1.12-2.5,3.32v.2c0,2.28.88,3.45,2.58,3.45a2.17,2.17,0,0,0,2.27-2.17h4c-.13,3.29-2.35,5.44-6.58,5.44C76.32,211,73.35,208.71,73.35,204.31Z" fill="#fff"/><path d="M88.25,191.86h4.47v7.85a4.62,4.62,0,0,1,4.3-2.45c2.53,0,4.28,1.58,4.28,4.93v8.49H96.82v-7.59c0-1.48-.57-2.2-1.87-2.2s-2.23.8-2.23,2.47v7.32H88.25Z" fill="#fff"/><path d="M22,230.66H20.35v-3H22v-1.15c0-3.25,2-4.8,5.12-4.8a7.93,7.93,0,0,1,2.05.28v3.27A4.07,4.07,0,0,0,28,225a1.31,1.31,0,0,0-1.5,1.42v1.15H29.1v3H26.45v10H22Z" fill="#fff"/><path d="M30.6,227.61h4.47v2.6a4.12,4.12,0,0,1,4.23-2.77v4.17c-2.73-.07-4.23.78-4.23,2.88v6.19H30.6Z" fill="#fff"/><path d="M40.1,234.31v-.2c0-4.2,3.12-6.85,7.17-6.85s7.13,2.58,7.13,6.73v.2c0,4.24-3.13,6.79-7.15,6.79S40.1,238.53,40.1,234.31Zm9.75-.07V234c0-2.2-.88-3.43-2.58-3.43s-2.6,1.18-2.6,3.38v.2c0,2.25.88,3.47,2.6,3.47S49.85,236.41,49.85,234.24Z" fill="#fff"/><path d="M56,227.61h4.48v2a4.57,4.57,0,0,1,4.1-2.35,3.57,3.57,0,0,1,3.55,2.18,5.16,5.16,0,0,1,4.32-2.18c2.47,0,4.27,1.6,4.27,4.88v8.54H72.22v-7.79c0-1.33-.65-2-1.67-2a1.94,1.94,0,0,0-2,2.2v7.57H64.12v-7.79c0-1.33-.65-2-1.67-2a1.94,1.94,0,0,0-2,2.2v7.57H56Z" fill="#fff"/><path d="M25.15,256.76H20.52v-3.95h14.4v3.95H30.3v13.92H25.15Z" fill="#fff"/><path d="M35.33,266.14v-8.53H39.8v7.8c0,1.48.57,2.2,1.85,2.2s2.22-.8,2.22-2.47v-7.53h4.48v13.07H43.87v-2A4.29,4.29,0,0,1,39.72,271C37.2,271,35.33,269.43,35.33,266.14Z" fill="#fff"/><path d="M50.62,257.61H55.1v2.6a4.1,4.1,0,0,1,4.22-2.77v4.17c-2.72-.07-4.22.78-4.22,2.88v6.19H50.62Z" fill="#fff"/><path d="M65.42,268.66v2H61V251.86h4.47v7.7a4.62,4.62,0,0,1,4.08-2.3c3,0,5.52,2.3,5.52,6.78v.2c0,4.49-2.47,6.74-5.55,6.74A4.24,4.24,0,0,1,65.42,268.66Zm5-4.42V264c0-2.3-1-3.4-2.57-3.4s-2.6,1.17-2.6,3.37v.2c0,2.23,1,3.35,2.6,3.35S70.47,266.39,70.47,264.24Z" fill="#fff"/><path d="M76,264.31v-.2c0-4.2,3.12-6.85,7.17-6.85s7.13,2.58,7.13,6.73v.2c0,4.24-3.13,6.79-7.15,6.79S76,268.53,76,264.31Zm9.75-.07V264c0-2.2-.88-3.43-2.58-3.43s-2.6,1.18-2.6,3.38v.2c0,2.25.88,3.47,2.6,3.47S85.7,266.41,85.7,264.24Z" fill="#fff"/><path d="M95.65,256.76H91v-3.95h14.4v3.95H100.8v13.92H95.65Z" fill="#fff"/><path d="M104.52,267.06c0-3.07,2.6-4.27,7-4.27h1.25v-.3c0-1.25-.3-2.08-1.72-2.08a1.61,1.61,0,0,0-1.78,1.55H105c.2-3.15,2.68-4.7,6.25-4.7s5.9,1.48,5.9,4.95v8.47h-4.35v-1.52A4.28,4.28,0,0,1,109,271C106.6,271,104.52,269.83,104.52,267.06Zm8.2-.95v-.8h-1.17c-1.8,0-2.6.35-2.6,1.43,0,.74.5,1.22,1.55,1.22A2,2,0,0,0,112.72,266.11Z" fill="#fff"/><path d="M122.65,264l-4.08-6.43h5.15l2,3.45,2-3.45h4.6l-4.12,6.08,4.52,7h-5.15l-2.32-3.89-2.38,3.89H118.3Z" fill="#fff"/><path d="M133.62,268.43a2.5,2.5,0,0,1,2.55-2.52,2.53,2.53,0,1,1,0,5A2.5,2.5,0,0,1,133.62,268.43Z" fill="#fff"/></g></g></svg>