<svg xmlns="http://www.w3.org/2000/svg" viewBox="0 0 160 600"><title>H38</title><g id="Layer_2" data-name="Layer 2"><g id="Rect"><rect width="160" height="600" fill="none"/></g><g id="H38"><g id="Save_10_or_more._Switch_from_TurboTax." data-name="Save $10 or more. Switch from TurboTax."><path d="M20.57,163h4.88c.12,1.28.7,2.32,2.82,2.32,1.48,0,2.3-.72,2.3-1.77s-.67-1.4-2.82-1.72c-5.05-.6-6.75-2.1-6.75-5.7,0-3.23,2.65-5.58,6.92-5.58s6.73,1.8,7,5.58H30.22a2,2,0,0,0-2.3-1.93c-1.37,0-2.07.63-2.07,1.53s.55,1.45,2.77,1.75c4.53.5,6.85,1.67,6.85,5.55,0,3.27-2.6,5.94-7.2,5.94C23.27,169,20.72,166.88,20.57,163Z" fill="#fff"/><path d="M36.37,165.06c0-3.07,2.6-4.27,7-4.27h1.25v-.3c0-1.25-.3-2.08-1.72-2.08A1.61,1.61,0,0,0,41.07,160h-4.2c.2-3.15,2.68-4.7,6.25-4.7s5.9,1.48,5.9,5v8.47H44.67v-1.52A4.28,4.28,0,0,1,40.8,169C38.45,169,36.37,167.83,36.37,165.06Zm8.2-.95v-.8H43.4c-1.8,0-2.6.35-2.6,1.43,0,.74.5,1.22,1.55,1.22A2,2,0,0,0,44.57,164.11Z" fill="#fff"/><path d="M49.7,155.61h4.77L57.2,164l2.67-8.43h4.28l-4.78,13.07H54.5Z" fill="#fff"/><path d="M63.87,162.31v-.2c0-4.2,3.13-6.85,7.08-6.85,3.57,0,6.65,2.05,6.65,6.75v1.18H68.4a2.6,2.6,0,0,0,2.72,2.72c1.48,0,2.1-.68,2.28-1.55h4.2C77.2,167.31,74.92,169,71,169S63.87,166.58,63.87,162.31Zm9.38-1.65c-.08-1.57-.85-2.45-2.3-2.45a2.49,2.49,0,0,0-2.5,2.45Z" fill="#fff"/><path d="M86.57,160.5c-2.52-.17-3.74-1.51-3.85-3.43h2.7a1.38,1.38,0,0,0,1.15,1.37v-2.13C84,155.94,83,155,83,153c0-1.76,1.38-3,3.61-3.19v-1.3h1.14v1.31c2.11.18,3.36,1.15,3.54,3.15H88.61a1.17,1.17,0,0,0-.9-1.09v2c2.23.32,3.68,1.08,3.68,3.19,0,1.78-1.15,3.26-3.68,3.42v1.83H86.57Zm0-6.79v-1.86c-.65.12-1,.47-1,.93S85.78,153.55,86.57,153.71Zm1.14,2.79v1.94c.64-.14,1-.51,1-1S88.48,156.67,87.71,156.5Z" fill="#fff"/><path d="M95.78,155.86l-3.4,2.1v-4.27l4.1-2.88h4.43v17.87H95.78Z" fill="#fff"/><path d="M103.36,160.14v-.75c0-5.65,3.52-8.83,8.25-8.83s8.25,2.93,8.25,8.73v.7c0,5.67-3.25,9-8.35,9S103.36,165.76,103.36,160.14Zm11.37,0v-.73c0-3.27-1-4.92-3.12-4.92s-3.13,1.62-3.13,4.92v.75c0,3.33,1,4.9,3.18,4.9S114.73,163.39,114.73,160.09Z" fill="#fff"/><path d="M20.63,192.31v-.2c0-4.2,3.12-6.85,7.17-6.85s7.12,2.58,7.12,6.73v.2c0,4.24-3.12,6.79-7.15,6.79S20.63,196.53,20.63,192.31Zm9.74-.07V192c0-2.2-.87-3.43-2.57-3.43s-2.6,1.18-2.6,3.38v.2c0,2.25.87,3.47,2.6,3.47S30.37,194.41,30.37,192.24Z" fill="#fff"/><path d="M36.5,185.61H41v2.6a4.12,4.12,0,0,1,4.23-2.77v4.17c-2.73-.07-4.23.78-4.23,2.88v6.19H36.5Z" fill="#fff"/><path d="M51.37,185.61h4.48v2a4.57,4.57,0,0,1,4.1-2.35,3.57,3.57,0,0,1,3.55,2.18,5.16,5.16,0,0,1,4.32-2.18c2.47,0,4.27,1.6,4.27,4.88v8.54H67.62v-7.79c0-1.33-.65-2-1.67-2a1.94,1.94,0,0,0-2,2.2v7.57H59.52v-7.79c0-1.33-.65-2-1.67-2a1.94,1.94,0,0,0-2,2.2v7.57H51.37Z" fill="#fff"/><path d="M73.57,192.31v-.2c0-4.2,3.13-6.85,7.18-6.85s7.12,2.58,7.12,6.73v.2c0,4.24-3.12,6.79-7.15,6.79S73.57,196.53,73.57,192.31Zm9.75-.07V192c0-2.2-.87-3.43-2.57-3.43s-2.6,1.18-2.6,3.38v.2c0,2.25.87,3.47,2.6,3.47S83.32,194.41,83.32,192.24Z" fill="#fff"/><path d="M89.45,185.61h4.47v2.6a4.12,4.12,0,0,1,4.23-2.77v4.17c-2.73-.07-4.23.78-4.23,2.88v6.19H89.45Z" fill="#fff"/><path d="M99,192.31v-.2c0-4.2,3.12-6.85,7.07-6.85,3.58,0,6.65,2.05,6.65,6.75v1.18h-9.2a2.62,2.62,0,0,0,2.73,2.72c1.47,0,2.1-.68,2.27-1.55h4.2c-.4,2.95-2.67,4.62-6.62,4.62S99,196.58,99,192.31Zm9.37-1.65c-.07-1.57-.85-2.45-2.3-2.45a2.49,2.49,0,0,0-2.5,2.45Z" fill="#fff"/><path d="M113.92,196.43a2.5,2.5,0,0,1,2.55-2.52,2.53,2.53,0,1,1,0,5.05A2.5,2.5,0,0,1,113.92,196.43Z" fill="#fff"/><path d="M20.57,223h4.88c.12,1.28.7,2.32,2.82,2.32,1.48,0,2.3-.72,2.3-1.77s-.67-1.4-2.82-1.72c-5.05-.6-6.75-2.1-6.75-5.7,0-3.23,2.65-5.58,6.92-5.58s6.73,1.8,7,5.58H30.22a2,2,0,0,0-2.3-1.93c-1.37,0-2.07.63-2.07,1.53s.55,1.45,2.77,1.75c4.53.5,6.85,1.67,6.85,5.55,0,3.27-2.6,5.94-7.2,5.94C23.27,229,20.72,226.88,20.57,223Z" fill="#fff"/><path d="M35.85,215.61h4.67l1.9,7.83,2.2-7.83h3.6l2,7.83,2.13-7.83h4.24L52.4,228.68H48.12l-1.95-7.29-2,7.29H39.8Z" fill="#fff"/><path d="M57.6,212.06a2.47,2.47,0,1,1,2.45,2.3A2.33,2.33,0,0,1,57.6,212.06Zm.22,3.55H62.3v13.07H57.82Z" fill="#fff"/><path d="M65.3,224.49v-5.83H63.72v-3H65.3v-2.72h4.47v2.72h2.58v3H69.77v5.4a1.2,1.2,0,0,0,1.33,1.38,3.38,3.38,0,0,0,1.27-.23v3.4a9.34,9.34,0,0,1-2.47.37C67,229,65.3,227.56,65.3,224.49Z" fill="#fff"/><path d="M73.35,222.31v-.2c0-4.35,3.12-6.85,7-6.85,3.2,0,6.15,1.4,6.4,5.38h-4.2a1.93,1.93,0,0,0-2.1-1.9c-1.57,0-2.5,1.12-2.5,3.32v.2c0,2.28.88,3.45,2.58,3.45a2.17,2.17,0,0,0,2.27-2.17h4c-.13,3.29-2.35,5.44-6.58,5.44C76.32,229,73.35,226.71,73.35,222.31Z" fill="#fff"/><path d="M88.25,209.86h4.47v7.85a4.62,4.62,0,0,1,4.3-2.45c2.53,0,4.28,1.58,4.28,4.93v8.49H96.82v-7.59c0-1.48-.57-2.2-1.87-2.2s-2.23.8-2.23,2.47v7.32H88.25Z" fill="#fff"/><path d="M22,248.66H20.35v-3H22v-1.15c0-3.25,2-4.8,5.12-4.8a7.93,7.93,0,0,1,2.05.28v3.27A4.07,4.07,0,0,0,28,243a1.31,1.31,0,0,0-1.5,1.42v1.15H29.1v3H26.45v10H22Z" fill="#fff"/><path d="M30.6,245.61h4.47v2.6a4.12,4.12,0,0,1,4.23-2.77v4.17c-2.73-.07-4.23.78-4.23,2.88v6.19H30.6Z" fill="#fff"/><path d="M40.1,252.31v-.2c0-4.2,3.12-6.85,7.17-6.85s7.13,2.58,7.13,6.73v.2c0,4.24-3.13,6.79-7.15,6.79S40.1,256.53,40.1,252.31Zm9.75-.07V252c0-2.2-.88-3.43-2.58-3.43s-2.6,1.18-2.6,3.38v.2c0,2.25.88,3.47,2.6,3.47S49.85,254.41,49.85,252.24Z" fill="#fff"/><path d="M56,245.61h4.48v2a4.57,4.57,0,0,1,4.1-2.35,3.57,3.57,0,0,1,3.55,2.18,5.16,5.16,0,0,1,4.32-2.18c2.47,0,4.27,1.6,4.27,4.88v8.54H72.22v-7.79c0-1.33-.65-2-1.67-2a1.94,1.94,0,0,0-2,2.2v7.57H64.12v-7.79c0-1.33-.65-2-1.67-2a1.94,1.94,0,0,0-2,2.2v7.57H56Z" fill="#fff"/><path d="M25.15,274.76H20.52v-3.95h14.4v3.95H30.3v13.92H25.15Z" fill="#fff"/><path d="M35.33,284.14v-8.53H39.8v7.8c0,1.48.57,2.2,1.85,2.2s2.22-.8,2.22-2.47v-7.53h4.48v13.07H43.87v-2A4.29,4.29,0,0,1,39.72,289C37.2,289,35.33,287.43,35.33,284.14Z" fill="#fff"/><path d="M50.62,275.61H55.1v2.6a4.1,4.1,0,0,1,4.22-2.77v4.17c-2.72-.07-4.22.78-4.22,2.88v6.19H50.62Z" fill="#fff"/><path d="M65.42,286.66v2H61V269.86h4.47v7.7a4.62,4.62,0,0,1,4.08-2.3c3,0,5.52,2.3,5.52,6.78v.2c0,4.49-2.47,6.74-5.55,6.74A4.24,4.24,0,0,1,65.42,286.66Zm5-4.42V282c0-2.3-1-3.4-2.57-3.4s-2.6,1.17-2.6,3.37v.2c0,2.23,1,3.35,2.6,3.35S70.47,284.39,70.47,282.24Z" fill="#fff"/><path d="M76,282.31v-.2c0-4.2,3.12-6.85,7.17-6.85s7.13,2.58,7.13,6.73v.2c0,4.24-3.13,6.79-7.15,6.79S76,286.53,76,282.31Zm9.75-.07V282c0-2.2-.88-3.43-2.58-3.43s-2.6,1.18-2.6,3.38v.2c0,2.25.88,3.47,2.6,3.47S85.7,284.41,85.7,282.24Z" fill="#fff"/><path d="M95.65,274.76H91v-3.95h14.4v3.95H100.8v13.92H95.65Z" fill="#fff"/><path d="M104.52,285.06c0-3.07,2.6-4.27,7-4.27h1.25v-.3c0-1.25-.3-2.08-1.72-2.08a1.61,1.61,0,0,0-1.78,1.55H105c.2-3.15,2.68-4.7,6.25-4.7s5.9,1.48,5.9,4.95v8.47h-4.35v-1.52A4.28,4.28,0,0,1,109,289C106.6,289,104.52,287.83,104.52,285.06Zm8.2-.95v-.8h-1.17c-1.8,0-2.6.35-2.6,1.43,0,.74.5,1.22,1.55,1.22A2,2,0,0,0,112.72,284.11Z" fill="#fff"/><path d="M122.65,282l-4.08-6.43h5.15l2,3.45,2-3.45h4.6l-4.12,6.08,4.52,7h-5.15l-2.32-3.89-2.38,3.89H118.3Z" fill="#fff"/><path d="M133.62,286.43a2.5,2.5,0,0,1,2.55-2.52,2.53,2.53,0,1,1,0,5A2.5,2.5,0,0,1,133.62,286.43Z" fill="#fff"/></g></g></g></svg>