<svg xmlns="http://www.w3.org/2000/svg" viewBox="0 0 1940 500"><title>H2</title><g id="Layer_2" data-name="Layer 2"><g id="Rectangle_4" data-name="Rectangle 4" style="isolation:isolate"><g id="Rectangle_4-2" data-name="Rectangle 4"><rect width="1940" height="500" fill="none"/></g></g><g id="Image_19" data-name="Image 19"><g id="Totally_transparent_pricing." data-name="Totally transparent pricing."><path d="M578.55,161.37H557.83V143.68h64.51v17.69H601.62v62.37H578.55Z" fill="#fff"/><path d="M617.41,195.19v-.9c0-18.81,14-30.68,32.14-30.68s31.92,11.53,31.92,30.12v.9c0,19-14,30.45-32,30.45S617.41,214.11,617.41,195.19Zm43.68-.34V194c0-9.85-3.92-15.34-11.54-15.34s-11.64,5.27-11.64,15.12v.9c0,10.07,3.92,15.56,11.64,15.56C657.06,210.19,661.09,204.59,661.09,194.85Z" fill="#fff"/><path d="M691.21,204.93V178.84h-7.05V165.18h7.05V153h20v12.21h11.53v13.66H711.26V203c0,4.26,2.13,6.16,5.93,6.16a15.19,15.19,0,0,0,5.72-1V223.4a42.22,42.22,0,0,1-11.09,1.68C698.6,225.08,691.21,218.7,691.21,204.93Z" fill="#fff"/><path d="M727.27,207.5c0-13.77,11.65-19.14,31.14-19.14H764V187c0-5.6-1.34-9.29-7.72-9.29-5.49,0-7.51,3.25-7.95,6.94H729.51c.9-14.11,12-21,28-21s26.43,6.61,26.43,22.17v38H764.45v-6.83c-2.8,4.25-8,8.17-17.35,8.17C736.57,225.08,727.27,219.93,727.27,207.5ZM764,203.25v-3.58h-5.26c-8.06,0-11.64,1.56-11.64,6.38,0,3.36,2.23,5.48,6.94,5.48C759.75,211.53,764,208.29,764,203.25Z" fill="#fff"/><path d="M794.24,139.43h19.94v84.31H794.24Z" fill="#fff"/><path d="M825.49,139.43h19.93v84.31H825.49Z" fill="#fff"/><path d="M874.54,217.8l-23.41-52.62h21.73L885,196.42l11.2-31.24H915.3l-31.36,78.15H864.79Z" fill="#fff"/><path d="M943.52,204.93V178.84h-7V165.18h7V153h20.05v12.21H975.1v13.66H963.57V203c0,4.26,2.13,6.16,5.93,6.16a15.1,15.1,0,0,0,5.71-1V223.4a42.06,42.06,0,0,1-11.08,1.68C950.91,225.08,943.52,218.7,943.52,204.93Z" fill="#fff"/><path d="M982.72,165.18h20v11.64c3.7-8.73,9.86-12.54,18.93-12.43v18.7c-12.21-.33-18.93,3.47-18.93,12.88v27.77h-20Z" fill="#fff"/><path d="M1024.27,207.5c0-13.77,11.64-19.14,31.13-19.14h5.6V187c0-5.6-1.35-9.29-7.73-9.29-5.49,0-7.5,3.25-8,6.94h-18.81c.89-14.11,12-21,28-21s26.43,6.61,26.43,22.17v38h-19.48v-6.83c-2.8,4.25-8,8.17-17.36,8.17C1033.56,225.08,1024.27,219.93,1024.27,207.5Zm36.73-4.25v-3.58h-5.27c-8.06,0-11.64,1.56-11.64,6.38,0,3.36,2.24,5.48,6.94,5.48C1056.74,211.53,1061,208.29,1061,203.25Z" fill="#fff"/><path d="M1090.68,165.18h20v9.4c3.14-6,9.52-11,19.26-11,11.31,0,19.15,7.06,19.15,22.06v38.07h-20v-34c0-6.61-2.58-9.85-8.4-9.85s-10,3.58-10,11.08v32.81h-20Z" fill="#fff"/><path d="M1155,205.15h18.48c.67,4.26,2.57,6.61,8.28,6.61,4.93,0,7.17-1.91,7.17-4.82s-2.8-4.14-10.86-5.26c-15.68-2-22.29-6.61-22.29-18.81,0-13,11.54-19.26,25.09-19.26,14.44,0,24.52,4.93,25.87,18.92h-18.15c-.78-3.92-2.91-5.82-7.5-5.82-4.37,0-6.61,1.9-6.61,4.59s2.69,3.92,9.86,4.82c16.24,2,24.08,6.27,24.08,18.81,0,13.88-10.31,20.15-26.55,20.15C1165.15,225.08,1155.41,218.14,1155,205.15Z" fill="#fff"/><path d="M1214.87,165.18h20.05v8.73a20.67,20.67,0,0,1,18.25-10.3c13.66,0,24.75,10.3,24.75,30.34v.9c0,20.15-11.09,30.23-24.86,30.23-8.85,0-15.23-4.14-18.14-10v28.21h-20.05Zm42.67,29.67V194c0-10.3-4.48-15.22-11.54-15.22-7.27,0-11.64,5.26-11.64,15.11v.9c0,10,4.37,15,11.64,15C1253.51,209.74,1257.54,204.48,1257.54,194.85Z" fill="#fff"/><path d="M1281.84,207.5c0-13.77,11.65-19.14,31.13-19.14h5.6V187c0-5.6-1.34-9.29-7.72-9.29-5.49,0-7.51,3.25-7.95,6.94h-18.82c.9-14.11,12-21,28-21s26.43,6.61,26.43,22.17v38H1319v-6.83c-2.8,4.25-8,8.17-17.36,8.17C1291.14,225.08,1281.84,219.93,1281.84,207.5Zm36.73-4.25v-3.58h-5.26c-8.06,0-11.65,1.56-11.65,6.38,0,3.36,2.24,5.48,6.95,5.48C1314.32,211.53,1318.57,208.29,1318.57,203.25Z" fill="#fff"/><path d="M1348.25,165.18h20v11.64c3.69-8.73,9.85-12.54,18.92-12.43v18.7c-12.2-.33-18.92,3.47-18.92,12.88v27.77h-20Z" fill="#fff"/><path d="M1390.81,195.19v-.9c0-18.81,14-30.68,31.69-30.68,16,0,29.79,9.18,29.79,30.23v5.26h-41.21c.56,7.73,5,12.21,12.21,12.21,6.6,0,9.4-3,10.19-6.94h18.81c-1.79,13.21-12,20.71-29.68,20.71C1404.25,225.08,1390.81,214.33,1390.81,195.19Zm42-7.39c-.33-7.06-3.8-11-10.3-11-6,0-10.19,3.92-11.2,11Z" fill="#fff"/><path d="M1459.24,165.18h20v9.4c3.14-6,9.52-11,19.26-11,11.31,0,19.15,7.06,19.15,22.06v38.07h-20v-34c0-6.61-2.58-9.85-8.4-9.85s-10,3.58-10,11.08v32.81h-20Z" fill="#fff"/><path d="M1530.13,204.93V178.84h-7.06V165.18h7.06V153h20v12.21h11.53v13.66h-11.53V203c0,4.26,2.13,6.16,5.94,6.16a15.17,15.17,0,0,0,5.71-1V223.4a42.22,42.22,0,0,1-11.09,1.68C1537.52,225.08,1530.13,218.7,1530.13,204.93Z" fill="#fff"/><path d="M561.42,281.14h20v8.74a20.68,20.68,0,0,1,18.26-10.31c13.66,0,24.74,10.31,24.74,30.35v.89C624.46,331,613.38,341,599.6,341c-8.84,0-15.23-4.14-18.14-10V359.3h-20Zm42.66,29.67v-.89c0-10.3-4.48-15.23-11.53-15.23-7.28,0-11.65,5.26-11.65,15.12v.89c0,10,4.37,15,11.65,15C600.05,325.71,604.08,320.44,604.08,310.81Z" fill="#fff"/><path d="M631.75,281.14h20v11.65c3.7-8.74,9.86-12.54,18.93-12.43v18.7c-12.21-.34-18.93,3.47-18.93,12.87V339.7h-20Z" fill="#fff"/><path d="M677.55,265.24c0-5.93,4.7-10.41,11-10.41s11.09,4.48,11.09,10.41-4.82,10.3-11.09,10.3S677.55,271.18,677.55,265.24Zm1,15.9h20V339.7h-20Z" fill="#fff"/><path d="M706.22,311.15v-.9c0-19.48,14-30.68,31.24-30.68,14.34,0,27.55,6.27,28.67,24.08H747.32c-.9-5.49-3.59-8.51-9.41-8.51-7,0-11.2,5-11.2,14.89v.89c0,10.19,3.92,15.46,11.54,15.46,5.6,0,9.52-3.36,10.19-9.74h18C765.91,331.42,755.94,341,737,341,719.54,341,706.22,330.86,706.22,311.15Z" fill="#fff"/><path d="M772.52,265.24c0-5.93,4.7-10.41,11-10.41s11.09,4.48,11.09,10.41-4.82,10.3-11.09,10.3S772.52,271.18,772.52,265.24Zm1,15.9h20.05V339.7H773.52Z" fill="#fff"/><path d="M804.32,281.14h20v9.41c3.13-6.05,9.52-11,19.26-11,11.31,0,19.15,7.06,19.15,22.06V339.7h-20v-34c0-6.6-2.57-9.85-8.4-9.85s-10,3.58-10,11.08V339.7h-20Z" fill="#fff"/><path d="M869.28,339.7h19.93c.89,4.26,3.47,7.62,10.75,7.62,8.85,0,12.43-5,12.43-12.32v-9a20.54,20.54,0,0,1-18.14,10.75c-13.66,0-24.86-10.08-24.86-28.1v-.9c0-17.24,11.08-28.22,24.86-28.22,9.29,0,14.78,3.92,18.14,9.86v-8.29h20v53.63c0,17.47-11.53,26.65-32.47,26.65C880,361.42,870.84,353,869.28,339.7ZM913,308.57v-.78c0-8.06-4.14-13.21-11.53-13.21s-11.54,5.26-11.54,13.32v.9c0,8.06,4.26,13.21,11.42,13.21S913,316.86,913,308.57Z" fill="#fff"/><path d="M941.84,329.62a11.16,11.16,0,0,1,11.43-11.3c6.72,0,11.75,5,11.75,11.3a11.38,11.38,0,0,1-11.75,11.31A11.17,11.17,0,0,1,941.84,329.62Z" fill="#fff"/></g></g></g></svg>