<svg xmlns="http://www.w3.org/2000/svg" viewBox="0 0 160 600"><title>H45</title><g id="Layer_2" data-name="Layer 2"><g id="Rect"><rect width="160" height="600" fill="none"/></g><g id="H45"><g id="Totally_transparent_pricing." data-name="Totally transparent pricing."><path d="M24.23,191H20.35V187.7H32.44V191H28.55v11.68H24.23Z" fill="#fff"/><path d="M31.51,197.34v-.16c0-3.53,2.62-5.75,6-5.75s6,2.16,6,5.64v.17c0,3.56-2.62,5.7-6,5.7S31.51,200.89,31.51,197.34Zm8.18-.06v-.17c0-1.84-.73-2.87-2.16-2.87s-2.18,1-2.18,2.83v.17c0,1.89.74,2.91,2.18,2.91S39.69,199.1,39.69,197.28Z" fill="#fff"/><path d="M45.34,199.17v-4.89H44v-2.55h1.32v-2.29h3.75v2.29h2.16v2.55H49.09v4.53c0,.8.4,1.15,1.11,1.15a3,3,0,0,0,1.07-.18v2.85a8.09,8.09,0,0,1-2.07.31C46.72,202.94,45.34,201.75,45.34,199.17Z" fill="#fff"/><path d="M52.09,199.65c0-2.58,2.18-3.59,5.83-3.59h1v-.25c0-1-.25-1.74-1.44-1.74a1.35,1.35,0,0,0-1.49,1.3H52.51c.17-2.64,2.25-3.94,5.25-3.94s5,1.24,5,4.15v7.11H59.06v-1.28a3.6,3.6,0,0,1-3.25,1.53C53.83,202.94,52.09,202,52.09,199.65Zm6.88-.8v-.67H58c-1.51,0-2.18.3-2.18,1.2,0,.63.42,1,1.3,1C58.18,200.4,59,199.8,59,198.85Z" fill="#fff"/><path d="M64.64,186.9h3.73v15.79H64.64Z" fill="#fff"/><path d="M70.49,186.9h3.73v15.79H70.49Z" fill="#fff"/><path d="M79.68,201.58l-4.39-9.85h4.07l2.27,5.84,2.1-5.84h3.59l-5.88,14.63H77.85Z" fill="#fff"/><path d="M21.53,227.17v-4.89H20.2v-2.55h1.33v-2.29h3.75v2.29h2.16v2.55H25.28v4.53c0,.8.4,1.15,1.11,1.15a3,3,0,0,0,1.07-.18v2.85a8.09,8.09,0,0,1-2.07.31C22.91,230.94,21.53,229.75,21.53,227.17Z" fill="#fff"/><path d="M28.87,219.73h3.75v2.18a3.47,3.47,0,0,1,3.55-2.33v3.5c-2.29-.06-3.55.65-3.55,2.41v5.2H28.87Z" fill="#fff"/><path d="M36.65,227.65c0-2.58,2.18-3.59,5.83-3.59h1.05v-.25c0-1-.25-1.74-1.44-1.74a1.35,1.35,0,0,0-1.49,1.3H37.07c.17-2.64,2.25-3.94,5.25-3.94s5,1.24,5,4.15v7.11H43.62v-1.28a3.6,3.6,0,0,1-3.25,1.53C38.39,230.94,36.65,230,36.65,227.65Zm6.88-.8v-.67h-1c-1.51,0-2.18.3-2.18,1.2,0,.63.41,1,1.3,1C42.74,228.4,43.53,227.8,43.53,226.85Z" fill="#fff"/><path d="M49.09,219.73h3.76v1.76a3.86,3.86,0,0,1,3.61-2.06c2.12,0,3.58,1.32,3.58,4.13v7.13H56.29v-6.37c0-1.24-.48-1.85-1.58-1.85s-1.86.67-1.86,2.08v6.14H49.09Z" fill="#fff"/><path d="M61.13,227.21H64.6c.12.8.48,1.24,1.55,1.24.92,0,1.34-.36,1.34-.91s-.52-.77-2-1c-2.94-.38-4.18-1.24-4.18-3.52s2.16-3.61,4.7-3.61c2.71,0,4.59.92,4.85,3.54h-3.4A1.23,1.23,0,0,0,66,221.88c-.82,0-1.24.36-1.24.86s.51.74,1.85.91c3,.37,4.51,1.17,4.51,3.52,0,2.6-1.93,3.77-5,3.77S61.22,229.64,61.13,227.21Z" fill="#fff"/><path d="M72.36,219.73h3.75v1.63a3.88,3.88,0,0,1,3.42-1.93c2.56,0,4.64,1.93,4.64,5.68v.17c0,3.77-2.08,5.66-4.66,5.66a3.62,3.62,0,0,1-3.4-1.86v5.28H72.36Zm8,5.55v-.17c0-1.93-.84-2.85-2.16-2.85s-2.18,1-2.18,2.83v.17c0,1.87.82,2.81,2.18,2.81S80.35,227.08,80.35,225.28Z" fill="#fff"/><path d="M84.9,227.65c0-2.58,2.18-3.59,5.84-3.59h1v-.25c0-1-.25-1.74-1.44-1.74a1.35,1.35,0,0,0-1.49,1.3H85.32c.17-2.64,2.25-3.94,5.25-3.94s5,1.24,5,4.15v7.11H91.87v-1.28a3.6,3.6,0,0,1-3.25,1.53C86.64,230.94,84.9,230,84.9,227.65Zm6.88-.8v-.67h-1c-1.51,0-2.18.3-2.18,1.2,0,.63.42,1,1.3,1C91,228.4,91.78,227.8,91.78,226.85Z" fill="#fff"/><path d="M97.34,219.73h3.76v2.18a3.45,3.45,0,0,1,3.54-2.33v3.5c-2.28-.06-3.54.65-3.54,2.41v5.2H97.34Z" fill="#fff"/><path d="M105.31,225.34v-.16a5.62,5.62,0,0,1,5.94-5.75c3,0,5.58,1.72,5.58,5.66v1h-7.72a2.2,2.2,0,0,0,2.29,2.28c1.24,0,1.76-.56,1.91-1.3h3.52c-.33,2.48-2.24,3.88-5.56,3.88S105.31,228.93,105.31,225.34Zm7.87-1.38c-.06-1.32-.71-2.05-1.93-2.05a2.09,2.09,0,0,0-2.1,2.05Z" fill="#fff"/><path d="M118.13,219.73h3.76v1.76a3.86,3.86,0,0,1,3.61-2.06c2.12,0,3.58,1.32,3.58,4.13v7.13h-3.75v-6.37c0-1.24-.48-1.85-1.58-1.85s-1.86.67-1.86,2.08v6.14h-3.76Z" fill="#fff"/><path d="M131.41,227.17v-4.89h-1.32v-2.55h1.32v-2.29h3.76v2.29h2.16v2.55h-2.16v4.53c0,.8.4,1.15,1.11,1.15a3,3,0,0,0,1.07-.18v2.85a8.18,8.18,0,0,1-2.08.31C132.8,230.94,131.41,229.75,131.41,227.17Z" fill="#fff"/><path d="M21,247.73h3.76v1.63a3.87,3.87,0,0,1,3.42-1.93c2.56,0,4.63,1.93,4.63,5.68v.17c0,3.77-2.07,5.66-4.65,5.66a3.61,3.61,0,0,1-3.4-1.86v5.28H21Zm8,5.55v-.17c0-1.93-.84-2.85-2.17-2.85s-2.18,1-2.18,2.83v.17c0,1.87.82,2.81,2.18,2.81S29,255.08,29,253.28Z" fill="#fff"/><path d="M34.2,247.73H38v2.18a3.47,3.47,0,0,1,3.55-2.33v3.5c-2.29-.06-3.55.65-3.55,2.41v5.2H34.2Z" fill="#fff"/><path d="M42.78,244.75a2,2,0,0,1,2-1.95,1.94,1.94,0,1,1,0,3.88A1.94,1.94,0,0,1,42.78,244.75Zm.19,3h3.75v11H43Z" fill="#fff"/><path d="M48.15,253.34v-.16A5.52,5.52,0,0,1,54,247.43c2.69,0,5.16,1.18,5.37,4.51H55.85a1.62,1.62,0,0,0-1.76-1.59c-1.33,0-2.1.94-2.1,2.78v.17c0,1.91.73,2.89,2.16,2.89a1.82,1.82,0,0,0,1.91-1.82h3.38c-.11,2.77-2,4.57-5.52,4.57C50.64,258.94,48.15,257,48.15,253.34Z" fill="#fff"/><path d="M60.57,244.75a2,2,0,0,1,2-1.95,1.94,1.94,0,1,1,0,3.88A1.94,1.94,0,0,1,60.57,244.75Zm.19,3h3.75v11H60.76Z" fill="#fff"/><path d="M66.53,247.73h3.75v1.76a3.86,3.86,0,0,1,3.61-2.06c2.12,0,3.59,1.32,3.59,4.13v7.13H73.72v-6.37c0-1.24-.48-1.85-1.57-1.85s-1.87.67-1.87,2.08v6.14H66.53Z" fill="#fff"/><path d="M78.69,258.69h3.74c.16.8.65,1.43,2,1.43a2.08,2.08,0,0,0,2.33-2.31v-1.68a3.85,3.85,0,0,1-3.4,2c-2.56,0-4.66-1.89-4.66-5.27v-.17c0-3.22,2.08-5.28,4.66-5.28a3.58,3.58,0,0,1,3.4,1.85v-1.55h3.76v10c0,3.27-2.17,5-6.09,5C80.71,262.76,79,261.19,78.69,258.69Zm8.19-5.83v-.15c0-1.5-.78-2.47-2.17-2.47s-2.16,1-2.16,2.5v.16c0,1.51.8,2.48,2.14,2.48S86.88,254.41,86.88,252.86Z" fill="#fff"/><path d="M92.29,256.8a2.09,2.09,0,0,1,2.14-2.11,2.12,2.12,0,1,1,0,4.23A2.09,2.09,0,0,1,92.29,256.8Z" fill="#fff"/></g></g></g></svg>