<svg xmlns="http://www.w3.org/2000/svg" viewBox="0 0 320 1200"><title>H2</title><g id="Layer_2" data-name="Layer 2"><g id="Rectangle_2_copy" data-name="Rectangle 2 copy" style="isolation:isolate"><g id="Rectangle_2_copy-2" data-name="Rectangle 2 copy"><rect width="320" height="1200" fill="none"/></g></g><g id="Image_18" data-name="Image 18"><g id="Totally_transparent_pricing." data-name="Totally transparent pricing."><path d="M48.46,382H40.7V375.4H64.87V382H57.11v23.36H48.46Z" fill="#fff"/><path d="M63,394.69v-.34c0-7,5.25-11.49,12-11.49s12,4.32,12,11.28v.34c0,7.13-5.25,11.4-12,11.4S63,401.77,63,394.69Zm16.37-.13v-.33c0-3.69-1.47-5.75-4.32-5.75s-4.37,2-4.37,5.66v.34c0,3.77,1.47,5.83,4.37,5.83S79.39,398.21,79.39,394.56Z" fill="#fff"/><path d="M90.67,398.34v-9.77H88v-5.12h2.64v-4.57h7.51v4.57h4.33v5.12H98.18v9.05a2,2,0,0,0,2.23,2.31,5.75,5.75,0,0,0,2.14-.38v5.7a15.45,15.45,0,0,1-4.16.63C93.44,405.88,90.67,403.49,90.67,398.34Z" fill="#fff"/><path d="M104.18,399.3c0-5.16,4.37-7.17,11.67-7.17H118v-.5c0-2.1-.51-3.48-2.9-3.48a2.69,2.69,0,0,0-3,2.6h-7c.34-5.29,4.49-7.89,10.49-7.89s9.91,2.48,9.91,8.31v14.21h-7.31v-2.56c-1,1.6-3,3.06-6.5,3.06C107.67,405.88,104.18,404,104.18,399.3ZM118,397.71v-1.35h-2c-3,0-4.36.59-4.36,2.39,0,1.26.84,2.06,2.6,2.06C116.35,400.81,118,399.59,118,397.71Z" fill="#fff"/><path d="M129.27,373.81h7.47v31.57h-7.47Z" fill="#fff"/><path d="M141,373.81h7.47v31.57H141Z" fill="#fff"/><path d="M159.36,403.16l-8.77-19.71h8.14l4.53,11.7,4.2-11.7h7.17l-11.75,29.27h-7.17Z" fill="#fff"/><path d="M43.05,454.34v-9.77H40.41v-5.12h2.64v-4.57h7.51v4.57h4.32v5.12H50.56v9.05a2,2,0,0,0,2.23,2.31,5.79,5.79,0,0,0,2.14-.38v5.7a15.52,15.52,0,0,1-4.16.63C45.82,461.88,43.05,459.49,43.05,454.34Z" fill="#fff"/><path d="M57.74,439.45h7.51v4.36a6.9,6.9,0,0,1,7.09-4.65v7c-4.57-.13-7.09,1.3-7.09,4.82v10.4H57.74Z" fill="#fff"/><path d="M73.3,455.3c0-5.16,4.37-7.17,11.67-7.17h2.1v-.5c0-2.1-.51-3.48-2.9-3.48a2.69,2.69,0,0,0-3,2.6h-7c.34-5.29,4.49-7.89,10.49-7.89s9.9,2.48,9.9,8.31v14.21h-7.3v-2.56c-1,1.6-3,3.06-6.5,3.06C76.78,461.88,73.3,460,73.3,455.3Zm13.77-1.59v-1.35h-2c-3,0-4.36.59-4.36,2.39,0,1.26.84,2.06,2.6,2.06C85.47,456.81,87.07,455.59,87.07,453.71Z" fill="#fff"/><path d="M98.18,439.45h7.51V443a7.77,7.77,0,0,1,7.22-4.11c4.24,0,7.18,2.64,7.18,8.26v14.26h-7.51V448.63c0-2.47-1-3.69-3.15-3.69s-3.74,1.34-3.74,4.15v12.29H98.18Z" fill="#fff"/><path d="M122.27,454.42h6.92c.25,1.59,1,2.47,3.1,2.47,1.85,0,2.69-.71,2.69-1.8s-1-1.55-4.07-2c-5.87-.76-8.35-2.47-8.35-7,0-4.87,4.32-7.22,9.4-7.22,5.41,0,9.19,1.85,9.69,7.09h-6.8c-.29-1.47-1.09-2.18-2.81-2.18s-2.47.71-2.47,1.72,1,1.47,3.69,1.8c6.08.76,9,2.35,9,7,0,5.2-3.86,7.54-9.94,7.54C126.08,461.88,122.43,459.28,122.27,454.42Z" fill="#fff"/><path d="M144.71,439.45h7.51v3.27a7.75,7.75,0,0,1,6.84-3.86c5.12,0,9.28,3.86,9.28,11.37v.33c0,7.55-4.16,11.32-9.32,11.32-3.31,0-5.7-1.55-6.8-3.73v10.57h-7.51Zm16,11.11v-.33c0-3.86-1.68-5.71-4.32-5.71s-4.36,2-4.36,5.66v.34c0,3.73,1.63,5.62,4.36,5.62S160.7,454.17,160.7,450.56Z" fill="#fff"/><path d="M169.8,455.3c0-5.16,4.37-7.17,11.67-7.17h2.1v-.5c0-2.1-.51-3.48-2.9-3.48a2.7,2.7,0,0,0-3,2.6h-7.05c.34-5.29,4.49-7.89,10.49-7.89s9.91,2.48,9.91,8.31v14.21h-7.3v-2.56c-1.05,1.6-3,3.06-6.51,3.06C173.29,461.88,169.8,460,169.8,455.3Zm13.77-1.59v-1.35h-2c-3,0-4.37.59-4.37,2.39,0,1.26.84,2.06,2.6,2.06C182,456.81,183.57,455.59,183.57,453.71Z" fill="#fff"/><path d="M194.69,439.45h7.51v4.36a6.9,6.9,0,0,1,7.09-4.65v7c-4.58-.13-7.09,1.3-7.09,4.82v10.4h-7.51Z" fill="#fff"/><path d="M210.63,450.69v-.34c0-7,5.24-11.49,11.87-11.49,6,0,11.17,3.44,11.17,11.32v2H218.22c.21,2.89,1.89,4.57,4.58,4.57,2.47,0,3.52-1.14,3.82-2.6h7c-.67,4.94-4.49,7.75-11.12,7.75C215.66,461.88,210.63,457.86,210.63,450.69Zm15.74-2.77c-.13-2.64-1.43-4.11-3.87-4.11-2.26,0-3.81,1.47-4.19,4.11Z" fill="#fff"/><path d="M236.27,439.45h7.51V443a7.74,7.74,0,0,1,7.21-4.11c4.24,0,7.18,2.64,7.18,8.26v14.26h-7.51V448.63c0-2.47-1-3.69-3.15-3.69s-3.73,1.34-3.73,4.15v12.29h-7.51Z" fill="#fff"/><path d="M262.83,454.34v-9.77h-2.65v-5.12h2.65v-4.57h7.51v4.57h4.32v5.12h-4.32v9.05c0,1.6.79,2.31,2.22,2.31a5.75,5.75,0,0,0,2.14-.38v5.7a15.43,15.43,0,0,1-4.15.63C265.59,461.88,262.83,459.49,262.83,454.34Z" fill="#fff"/><path d="M42,495.45h7.52v3.27a7.72,7.72,0,0,1,6.84-3.86c5.11,0,9.27,3.86,9.27,11.37v.33c0,7.55-4.16,11.32-9.32,11.32-3.31,0-5.7-1.55-6.79-3.73v10.57H42Zm16,11.11v-.33c0-3.86-1.68-5.71-4.32-5.71s-4.36,2-4.36,5.66v.34c0,3.73,1.63,5.62,4.36,5.62S58,510.17,58,506.56Z" fill="#fff"/><path d="M68.39,495.45H75.9v4.36a6.92,6.92,0,0,1,7.1-4.65v7c-4.58-.13-7.1,1.3-7.1,4.82v10.4H68.39Z" fill="#fff"/><path d="M85.55,489.5a4.15,4.15,0,1,1,4.12,3.85A3.92,3.92,0,0,1,85.55,489.5Zm.38,5.95h7.51v21.93H85.93Z" fill="#fff"/><path d="M96.29,506.69v-.34c0-7.29,5.25-11.49,11.71-11.49,5.37,0,10.32,2.35,10.74,9h-7c-.33-2.06-1.34-3.19-3.52-3.19-2.64,0-4.2,1.89-4.2,5.58v.33c0,3.82,1.47,5.79,4.33,5.79,2.09,0,3.56-1.26,3.81-3.65h6.76c-.21,5.54-3.94,9.14-11,9.14C101.29,517.88,96.29,514.07,96.29,506.69Z" fill="#fff"/><path d="M121.13,489.5a4.15,4.15,0,1,1,4.12,3.85A3.92,3.92,0,0,1,121.13,489.5Zm.38,5.95H129v21.93h-7.51Z" fill="#fff"/><path d="M133.05,495.45h7.51V499a7.77,7.77,0,0,1,7.22-4.11c4.24,0,7.17,2.64,7.17,8.26v14.26h-7.51V504.63c0-2.47-1-3.69-3.15-3.69s-3.73,1.34-3.73,4.15v12.29h-7.51Z" fill="#fff"/><path d="M157.38,517.38h7.47c.34,1.59,1.3,2.85,4,2.85,3.32,0,4.66-1.89,4.66-4.61v-3.36a7.7,7.7,0,0,1-6.8,4c-5.12,0-9.31-3.77-9.31-10.52v-.34c0-6.46,4.15-10.57,9.31-10.57,3.48,0,5.54,1.47,6.8,3.69v-3.1h7.51v20.09c0,6.54-4.32,10-12.17,10C161.41,525.51,158,522.37,157.38,517.38Zm16.37-11.66v-.29c0-3-1.55-4.95-4.32-4.95s-4.32,2-4.32,5v.34c0,3,1.59,4.94,4.27,4.94S173.75,508.83,173.75,505.72Z" fill="#fff"/><path d="M184.57,513.61a4.19,4.19,0,0,1,4.28-4.24,4.24,4.24,0,1,1,0,8.47A4.19,4.19,0,0,1,184.57,513.61Z" fill="#fff"/></g></g></g></svg>