<svg xmlns="http://www.w3.org/2000/svg" viewBox="0 0 728 90"><title>H39</title><g id="Layer_2" data-name="Layer 2"><g id="Rect"><rect width="728" height="90" fill="none"/></g><g id="H39"><g id="For_a_better_deal_better_choose_Block." data-name="For a better deal, better choose Block."><path d="M121.68,35.93h11.79v3.88h-6.76v3.71h5.39V47.2h-5.39v6.17h-5Z" fill="#fff"/><path d="M133.81,47.15V47c0-4.1,3.05-6.69,7-6.69s7,2.51,7,6.56V47c0,4.15-3.05,6.64-7,6.64S133.81,51.27,133.81,47.15Zm9.52-.07v-.2c0-2.14-.86-3.34-2.52-3.34s-2.53,1.15-2.53,3.29V47c0,2.2.85,3.39,2.53,3.39S143.33,49.2,143.33,47.08Z" fill="#fff"/><path d="M149.3,40.61h4.37v2.54a4,4,0,0,1,4.12-2.71v4.08c-2.65-.08-4.12.75-4.12,2.8v6H149.3Z" fill="#fff"/><path d="M163.09,49.83c0-3,2.54-4.17,6.78-4.17h1.22v-.29c0-1.22-.29-2-1.68-2a1.55,1.55,0,0,0-1.73,1.51h-4.1c.19-3.08,2.61-4.59,6.1-4.59s5.76,1.44,5.76,4.83v8.27h-4.25V51.88a4.18,4.18,0,0,1-3.78,1.79C165.11,53.67,163.09,52.54,163.09,49.83Zm8-.92v-.78H170c-1.76,0-2.54.34-2.54,1.39,0,.73.49,1.19,1.51,1.19C170.17,50.71,171.09,50,171.09,48.91Z" fill="#fff"/><path d="M186.37,51.4v2H182V35h4.37v7.52a4.5,4.5,0,0,1,4-2.25c3,0,5.4,2.25,5.4,6.61v.2c0,4.39-2.42,6.59-5.42,6.59A4.14,4.14,0,0,1,186.37,51.4Zm4.92-4.32v-.2c0-2.24-1-3.32-2.51-3.32s-2.54,1.15-2.54,3.3v.19c0,2.18,1,3.27,2.54,3.27S191.29,49.18,191.29,47.08Z" fill="#fff"/><path d="M196.64,47.15V47c0-4.1,3.05-6.69,6.9-6.69,3.49,0,6.49,2,6.49,6.59V48h-9a2.54,2.54,0,0,0,2.65,2.67c1.44,0,2-.66,2.23-1.52H210c-.39,2.88-2.61,4.52-6.46,4.52C199.57,53.67,196.64,51.32,196.64,47.15Zm9.15-1.61c-.07-1.54-.83-2.39-2.25-2.39a2.43,2.43,0,0,0-2.44,2.39Z" fill="#fff"/><path d="M212.13,49.27V43.59H210.6v-3h1.53V38h4.37v2.66H219v3H216.5v5.27c0,.93.46,1.34,1.29,1.34A3.28,3.28,0,0,0,219,50V53.3a9,9,0,0,1-2.42.37C213.74,53.67,212.13,52.28,212.13,49.27Z" fill="#fff"/><path d="M221.26,49.27V43.59h-1.54v-3h1.54V38h4.37v2.66h2.51v3h-2.51v5.27c0,.93.46,1.34,1.29,1.34a3.23,3.23,0,0,0,1.24-.22V53.3a9,9,0,0,1-2.41.37C222.87,53.67,221.26,52.28,221.26,49.27Z" fill="#fff"/><path d="M229.11,47.15V47c0-4.1,3-6.69,6.91-6.69,3.49,0,6.49,2,6.49,6.59V48h-9a2.55,2.55,0,0,0,2.66,2.67c1.44,0,2.05-.66,2.22-1.52h4.1c-.39,2.88-2.61,4.52-6.47,4.52S229.11,51.32,229.11,47.15Zm9.15-1.61c-.07-1.54-.83-2.39-2.24-2.39a2.42,2.42,0,0,0-2.44,2.39Z" fill="#fff"/><path d="M244,40.61h4.37v2.54a4,4,0,0,1,4.12-2.71v4.08c-2.66-.08-4.12.75-4.12,2.8v6H244Z" fill="#fff"/><path d="M257.91,47.13v-.2c0-4.34,2.39-6.66,5.41-6.66a4.15,4.15,0,0,1,3.93,2.15V35h4.37V53.37h-4.37V51.3a4.3,4.3,0,0,1-4,2.37C260.32,53.67,257.91,51.54,257.91,47.13Zm9.46-.08v-.19c0-2.15-.9-3.3-2.51-3.3s-2.51,1.1-2.51,3.32v.2c0,2.15.95,3.24,2.46,3.24S267.37,49.23,267.37,47.05Z" fill="#fff"/><path d="M273.16,47.15V47c0-4.1,3-6.69,6.9-6.69,3.49,0,6.49,2,6.49,6.59V48h-9a2.55,2.55,0,0,0,2.66,2.67c1.44,0,2-.66,2.22-1.52h4.1c-.39,2.88-2.61,4.52-6.46,4.52C276.08,53.67,273.16,51.32,273.16,47.15Zm9.15-1.61c-.08-1.54-.83-2.39-2.25-2.39a2.42,2.42,0,0,0-2.44,2.39Z" fill="#fff"/><path d="M287.45,49.83c0-3,2.54-4.17,6.79-4.17h1.22v-.29c0-1.22-.3-2-1.69-2A1.57,1.57,0,0,0,292,44.86h-4.1c.2-3.08,2.61-4.59,6.1-4.59s5.76,1.44,5.76,4.83v8.27h-4.25V51.88a4.18,4.18,0,0,1-3.78,1.79C289.48,53.67,287.45,52.54,287.45,49.83Zm8-.92v-.78h-1.15c-1.76,0-2.54.34-2.54,1.39,0,.73.49,1.19,1.52,1.19C294.53,50.71,295.46,50,295.46,48.91Z" fill="#fff"/><path d="M302,35h4.35V53.37H302Z" fill="#fff"/><path d="M307.83,55.35l2.05-6.42,4.05,1.44-3.52,6Z" fill="#fff"/><path d="M324.64,51.4v2h-4.37V35h4.37v7.52a4.51,4.51,0,0,1,4-2.25c3,0,5.39,2.25,5.39,6.61v.2c0,4.39-2.42,6.59-5.42,6.59A4.14,4.14,0,0,1,324.64,51.4Zm4.93-4.32v-.2c0-2.24-1-3.32-2.52-3.32s-2.53,1.15-2.53,3.3v.19c0,2.18,1,3.27,2.53,3.27S329.57,49.18,329.57,47.08Z" fill="#fff"/><path d="M334.91,47.15V47c0-4.1,3-6.69,6.91-6.69,3.48,0,6.49,2,6.49,6.59V48h-9A2.55,2.55,0,0,0,342,50.67c1.44,0,2.05-.66,2.22-1.52h4.1c-.39,2.88-2.61,4.52-6.47,4.52S334.91,51.32,334.91,47.15Zm9.15-1.61c-.07-1.54-.83-2.39-2.24-2.39a2.42,2.42,0,0,0-2.44,2.39Z" fill="#fff"/><path d="M350.4,49.27V43.59h-1.53v-3h1.53V38h4.37v2.66h2.52v3h-2.52v5.27a1.17,1.17,0,0,0,1.3,1.34,3.26,3.26,0,0,0,1.24-.22V53.3a9,9,0,0,1-2.42.37C352,53.67,350.4,52.28,350.4,49.27Z" fill="#fff"/><path d="M359.53,49.27V43.59H358v-3h1.54V38h4.37v2.66h2.51v3H363.9v5.27c0,.93.46,1.34,1.29,1.34a3.23,3.23,0,0,0,1.24-.22V53.3a9,9,0,0,1-2.41.37C361.14,53.67,359.53,52.28,359.53,49.27Z" fill="#fff"/><path d="M367.39,47.15V47c0-4.1,3.05-6.69,6.9-6.69,3.49,0,6.49,2,6.49,6.59V48h-9a2.55,2.55,0,0,0,2.66,2.67c1.44,0,2.05-.66,2.22-1.52h4.1c-.39,2.88-2.61,4.52-6.46,4.52C370.31,53.67,367.39,51.32,367.39,47.15Zm9.15-1.61c-.08-1.54-.83-2.39-2.25-2.39a2.42,2.42,0,0,0-2.44,2.39Z" fill="#fff"/><path d="M382.29,40.61h4.37v2.54a4,4,0,0,1,4.13-2.71v4.08c-2.66-.08-4.13.75-4.13,2.8v6h-4.37Z" fill="#fff"/><path d="M396.13,47.15V47c0-4.25,3.05-6.69,6.81-6.69,3.12,0,6,1.37,6.24,5.25h-4.1A1.88,1.88,0,0,0,403,43.66c-1.53,0-2.44,1.1-2.44,3.25v.19c0,2.22.86,3.37,2.52,3.37a2.13,2.13,0,0,0,2.22-2.12h3.93c-.13,3.22-2.3,5.32-6.42,5.32C399,53.67,396.13,51.45,396.13,47.15Z" fill="#fff"/><path d="M410.67,35H415v7.66a4.49,4.49,0,0,1,4.2-2.39c2.46,0,4.17,1.54,4.17,4.81v8.29H419V46c0-1.44-.56-2.15-1.83-2.15s-2.17.78-2.17,2.41v7.15h-4.37Z" fill="#fff"/><path d="M424.85,47.15V47c0-4.1,3-6.69,7-6.69s6.95,2.51,6.95,6.56V47c0,4.15-3.05,6.64-7,6.64S424.85,51.27,424.85,47.15Zm9.51-.07v-.2c0-2.14-.85-3.34-2.51-3.34s-2.54,1.15-2.54,3.29V47c0,2.2.86,3.39,2.54,3.39S434.36,49.2,434.36,47.08Z" fill="#fff"/><path d="M439.66,47.15V47c0-4.1,3-6.69,7-6.69s6.95,2.51,6.95,6.56V47c0,4.15-3.05,6.64-7,6.64S439.66,51.27,439.66,47.15Zm9.51-.07v-.2c0-2.14-.85-3.34-2.51-3.34s-2.54,1.15-2.54,3.29V47c0,2.2.86,3.39,2.54,3.39S449.17,49.2,449.17,47.08Z" fill="#fff"/><path d="M454.37,49.32h4c.14.93.56,1.44,1.8,1.44,1.08,0,1.56-.41,1.56-1s-.61-.9-2.36-1.14c-3.42-.44-4.86-1.44-4.86-4.1,0-2.83,2.51-4.2,5.47-4.2,3.15,0,5.34,1.07,5.63,4.12h-3.95a1.42,1.42,0,0,0-1.63-1.26c-1,0-1.44.41-1.44,1s.58.85,2.14,1c3.54.44,5.25,1.37,5.25,4.1,0,3-2.25,4.4-5.78,4.4S454.47,52.15,454.37,49.32Z" fill="#fff"/><path d="M466.82,47.15V47c0-4.1,3.05-6.69,6.9-6.69,3.49,0,6.49,2,6.49,6.59V48h-9a2.55,2.55,0,0,0,2.66,2.67c1.44,0,2.05-.66,2.22-1.52h4.1c-.39,2.88-2.61,4.52-6.47,4.52S466.82,51.32,466.82,47.15ZM476,45.54c-.07-1.54-.83-2.39-2.24-2.39a2.42,2.42,0,0,0-2.44,2.39Z" fill="#fff"/><path d="M486.55,35.93h7.79c4.12,0,5.88,1.85,5.88,4.56v.1a3.6,3.6,0,0,1-3,3.76,3.78,3.78,0,0,1,3.48,4.07v.1c0,3.12-2,4.85-6.34,4.85h-7.86Zm6.79,6.93c1.56,0,2.14-.54,2.14-1.78V41c0-1.2-.63-1.73-2.14-1.73h-1.91v3.61Zm.17,7.17c1.58,0,2.32-.73,2.32-2v-.09c0-1.32-.71-2-2.47-2h-1.93V50Z" fill="#fff"/><path d="M502.49,35h4.34V53.37h-4.34Z" fill="#fff"/><path d="M508.49,47.15V47c0-4.1,3.05-6.69,7-6.69s7,2.51,7,6.56V47c0,4.15-3.05,6.64-7,6.64S508.49,51.27,508.49,47.15Zm9.51-.07v-.2c0-2.14-.85-3.34-2.51-3.34S513,44.69,513,46.83V47c0,2.2.86,3.39,2.54,3.39S518,49.2,518,47.08Z" fill="#fff"/><path d="M523.3,47.15V47c0-4.25,3.05-6.69,6.81-6.69,3.12,0,6,1.37,6.24,5.25h-4.1a1.88,1.88,0,0,0-2-1.86c-1.54,0-2.45,1.1-2.45,3.25v.19c0,2.22.86,3.37,2.52,3.37a2.13,2.13,0,0,0,2.22-2.12h3.93c-.13,3.22-2.3,5.32-6.42,5.32C526.2,53.67,523.3,51.45,523.3,47.15Z" fill="#fff"/><path d="M537.84,35h4.37V45.66l3.44-5h4.54L546,46.35l4.51,7h-4.88l-3.44-5.58v5.58h-4.37Z" fill="#fff"/><path d="M551.38,51.18a2.44,2.44,0,0,1,2.49-2.47,2.47,2.47,0,1,1,0,4.93A2.43,2.43,0,0,1,551.38,51.18Z" fill="#fff"/></g></g></g></svg>