<?xml version="1.0" encoding="utf-8"?>
<!-- Generator: Adobe Illustrator 23.1.0, SVG Export Plug-In . SVG Version: 6.00 Build 0)  -->
<svg version="1.1" id="Layer_1" xmlns="http://www.w3.org/2000/svg" xmlns:xlink="http://www.w3.org/1999/xlink" x="0px" y="0px"
	 viewBox="0 0 729 91" style="enable-background:new 0 0 729 91;" xml:space="preserve">
<style type="text/css">
	.st0{fill:none;}
	.st1{fill:#FFFFFF;}
</style>
<title>Asset 22</title>
<g>
	<g id="Layer_23">
		<rect class="st0" width="728" height="90"/>
	</g>
	<g id="Avoid_guessing_games._Know_the_price_before_you_begin.">
		<path class="st1" d="M127.3,19.6h7.4l6.4,20H135l-1.1-3.7h-6.6l-1.1,3.7h-5.3L127.3,19.6z M128.4,31.9h4.4l-2.2-7.7L128.4,31.9z"
			/>
		<path class="st1" d="M139.7,24.9h5.3l3.1,9.4l3-9.4h4.8l-5.3,14.6H145L139.7,24.9z"/>
		<path class="st1" d="M155.6,32.4v-0.2c0-4.7,3.5-7.7,8-7.7s8,2.9,8,7.5v0.2c0,4.8-3.5,7.6-8,7.6S155.6,37.2,155.6,32.4z
			 M166.5,32.4v-0.2c0-2.5-1-3.8-2.9-3.8s-2.9,1.3-2.9,3.8v0.2c0,2.5,1,3.9,2.9,3.9S166.5,34.8,166.5,32.4z"/>
		<path class="st1" d="M173.2,21c-0.1-1.5,1-2.9,2.5-3c1.5-0.1,2.9,1,3,2.5c0.1,1.5-1,2.9-2.5,3c-0.1,0-0.1,0-0.2,0
			C174.6,23.6,173.3,22.5,173.2,21C173.2,21.1,173.2,21,173.2,21z M173.5,25h5v14.6h-5V25z"/>
		<path class="st1" d="M180.4,32.4v-0.2c0-5,2.7-7.6,6.2-7.6c1.9-0.1,3.6,0.8,4.5,2.5v-8.5h5v21.1h-5v-2.4c-0.9,1.7-2.6,2.8-4.6,2.7
			C183.2,39.9,180.4,37.5,180.4,32.4z M191.3,32.3v-0.2c0-2.5-1-3.8-2.9-3.8s-2.9,1.3-2.9,3.8v0.2c0,2.5,1.1,3.7,2.8,3.7
			S191.3,34.8,191.3,32.3z"/>
		<path class="st1" d="M203,39.6h5c0.2,1.1,0.9,1.9,2.7,1.9c1.5,0.2,2.9-0.9,3.1-2.4c0-0.2,0-0.5,0-0.7v-2.2
			c-0.9,1.7-2.6,2.7-4.5,2.7c-3.4,0-6.2-2.5-6.2-7v-0.3c0-4.3,2.8-7,6.2-7c1.8-0.2,3.6,0.8,4.5,2.4v-2.1h5v13.4
			c0,4.4-2.9,6.7-8.1,6.7C205.7,45,203.4,42.9,203,39.6z M213.9,31.8v-0.2c0-2-1-3.3-2.9-3.3s-2.9,1.3-2.9,3.3v0.2
			c0,2,1.1,3.3,2.9,3.3S213.9,33.9,213.9,31.8L213.9,31.8z"/>
		<path class="st1" d="M221.2,34.5v-9.6h5v8.7c0,1.7,0.6,2.5,2.1,2.5s2.5-0.9,2.5-2.8v-8.4h5v14.6h-5v-2.3c-0.9,1.7-2.7,2.7-4.6,2.6
			C223.3,39.9,221.2,38.2,221.2,34.5z"/>
		<path class="st1" d="M237.6,32.4v-0.2c0-4.7,3.5-7.7,7.9-7.7c4,0,7.4,2.3,7.4,7.6v1.3h-10.3c-0.1,1.6,1.2,3,2.8,3.1
			c0.1,0,0.2,0,0.3,0c1.7,0,2.4-0.8,2.6-1.7h4.7c-0.4,3.3-3,5.2-7.4,5.2C241,39.9,237.6,37.2,237.6,32.4z M248.1,30.6
			c-0.1-1.8-1-2.8-2.6-2.8s-2.6,1-2.8,2.8H248.1z"/>
		<path class="st1" d="M253.9,34.9h4.6c0.2,1.1,0.6,1.7,2.1,1.7c1.2,0,1.8-0.5,1.8-1.2s-0.7-1-2.7-1.3c-3.9-0.5-5.6-1.7-5.6-4.7
			c0-3.2,2.9-4.8,6.3-4.8c3.6,0,6.1,1.2,6.5,4.7h-4.5c-0.1-0.9-0.9-1.6-1.8-1.5c0,0-0.1,0-0.1,0c-1.1,0-1.7,0.5-1.7,1.1
			s0.7,1,2.5,1.2c4.1,0.5,6,1.6,6,4.7c0,3.5-2.6,5-6.6,5S254,38.2,253.9,34.9z"/>
		<path class="st1" d="M268,34.9h4.6c0.2,1.1,0.6,1.7,2.1,1.7c1.2,0,1.8-0.5,1.8-1.2s-0.7-1-2.7-1.3c-3.9-0.5-5.6-1.7-5.6-4.7
			c0-3.2,2.9-4.8,6.3-4.8c3.6,0,6.1,1.2,6.5,4.7h-4.5c-0.1-0.9-0.9-1.6-1.8-1.5c0,0-0.1,0-0.1,0c-1.1,0-1.6,0.5-1.6,1.1
			s0.7,1,2.5,1.2c4.1,0.5,6,1.6,6,4.7c0,3.5-2.6,5-6.6,5S268.1,38.2,268,34.9z"/>
		<path class="st1" d="M282.8,21c-0.1-1.5,1-2.8,2.6-3c1.5-0.1,2.8,1,3,2.6c0.1,1.5-1,2.8-2.6,3c-0.1,0-0.1,0-0.2,0
			C284.1,23.7,282.9,22.5,282.8,21C282.8,21.1,282.8,21,282.8,21z M283.1,25h5v14.6h-5V25z"/>
		<path class="st1" d="M290.8,24.9h5v2.4c0.9-1.8,2.8-2.8,4.8-2.7c2.8,0,4.8,1.8,4.8,5.5v9.5h-5v-8.5c0-1.6-0.6-2.5-2.1-2.5
			s-2.5,0.9-2.5,2.8v8.2h-5L290.8,24.9z"/>
		<path class="st1" d="M307,39.6h5c0.2,1.1,0.9,1.9,2.7,1.9c1.5,0.2,2.9-0.9,3.1-2.4c0-0.2,0-0.5,0-0.7v-2.2
			c-0.9,1.7-2.6,2.7-4.5,2.7c-3.4,0-6.2-2.5-6.2-7v-0.3c0-4.3,2.8-7,6.2-7c1.8-0.1,3.6,0.8,4.5,2.4v-2.1h5v13.4
			c0,4.4-2.9,6.7-8.1,6.7C309.7,45,307.4,42.9,307,39.6z M317.9,31.8v-0.2c0-2-1-3.3-2.9-3.3s-2.9,1.3-2.9,3.3v0.2
			c0,2,1.1,3.3,2.9,3.3S317.9,33.9,317.9,31.8L317.9,31.8z"/>
		<path class="st1" d="M329.6,39.6h5c0.2,1.1,0.9,1.9,2.7,1.9c1.5,0.2,2.9-0.9,3.1-2.4c0-0.2,0-0.5,0-0.7v-2.2
			c-0.9,1.7-2.6,2.7-4.5,2.7c-3.4,0-6.2-2.5-6.2-7v-0.3c0-4.3,2.8-7,6.2-7c1.8-0.1,3.6,0.8,4.5,2.4v-2.1h5v13.4
			c0,4.4-2.9,6.7-8.1,6.7C332.3,45,330,42.9,329.6,39.6z M340.6,31.8v-0.2c0-2-1-3.3-2.9-3.3s-2.9,1.3-2.9,3.3v0.2
			c0,2,1.1,3.3,2.9,3.3S340.5,33.9,340.6,31.8L340.6,31.8z"/>
		<path class="st1" d="M347.1,35.5c0-3.4,2.9-4.8,7.8-4.8h1.4v-0.3c0-1.4-0.3-2.3-1.9-2.3c-1-0.1-1.9,0.6-2,1.6c0,0,0,0.1,0,0.1
			h-4.7c0.2-3.5,3-5.3,7-5.3s6.6,1.6,6.6,5.5v9.5h-4.9v-1.7c-1,1.4-2.6,2.1-4.3,2C349.5,39.9,347.1,38.6,347.1,35.5z M356.3,34.5
			v-0.9H355c-2,0-2.9,0.4-2.9,1.6c0,0.8,0.6,1.4,1.7,1.4C355.3,36.5,356.3,35.7,356.3,34.5z"/>
		<path class="st1" d="M363.7,24.9h5v2.2c0.9-1.7,2.7-2.7,4.6-2.6c1.7-0.1,3.3,0.8,4,2.4c1.1-1.6,2.9-2.5,4.9-2.4
			c2.8,0,4.8,1.8,4.8,5.5v9.6h-5v-8.7c0-1.5-0.7-2.2-1.9-2.2c-1.2-0.1-2.2,0.9-2.3,2.1c0,0.1,0,0.3,0,0.4v8.5h-5v-8.7
			c0-1.5-0.7-2.2-1.9-2.2c-1.2,0-2.2,0.9-2.3,2.1c0,0.1,0,0.3,0,0.4v8.5h-5L363.7,24.9z"/>
		<path class="st1" d="M388.6,32.4v-0.2c0-4.7,3.5-7.7,7.9-7.7c4,0,7.5,2.3,7.5,7.6v1.3h-10.3c-0.1,1.6,1.2,3,2.8,3.1
			c0.1,0,0.2,0,0.3,0c1.6,0,2.4-0.8,2.5-1.7h4.7c-0.5,3.3-3,5.2-7.4,5.2C392,39.9,388.6,37.2,388.6,32.4z M399.1,30.6
			c-0.1-1.8-1-2.8-2.6-2.8s-2.5,1-2.8,2.8H399.1z"/>
		<path class="st1" d="M404.9,34.9h4.6c0.2,1.1,0.6,1.7,2.1,1.7c1.2,0,1.8-0.5,1.8-1.2s-0.7-1-2.7-1.3c-3.9-0.5-5.6-1.7-5.6-4.7
			c0-3.2,2.9-4.8,6.3-4.8c3.6,0,6.1,1.2,6.5,4.7h-4.5c-0.1-0.9-0.9-1.6-1.8-1.5c0,0-0.1,0-0.1,0c-1.1,0-1.6,0.5-1.6,1.1
			s0.7,1,2.5,1.2c4.1,0.5,6,1.6,6,4.7c0,3.5-2.6,5-6.6,5S405,38.2,404.9,34.9z"/>
		<path class="st1" d="M419.6,37.1c0-1.5,1.2-2.8,2.8-2.8c0,0,0.1,0,0.1,0c1.6-0.1,2.9,1.1,3,2.7c0.1,1.6-1.1,2.9-2.7,3
			c-0.1,0-0.2,0-0.3,0c-1.5,0-2.8-1.2-2.8-2.7C419.6,37.1,419.6,37.1,419.6,37.1z"/>
		<path class="st1" d="M122.4,49.6h5.8v7.9l6-7.9h6l-7.3,9.3l7.7,10.7H134l-5.8-8.4v8.4h-5.8L122.4,49.6z"/>
		<path class="st1" d="M141.7,54.9h5v2.3c0.9-1.8,2.8-2.8,4.8-2.7c2.8,0,4.8,1.8,4.8,5.5v9.5h-5v-8.5c0-1.7-0.6-2.5-2.1-2.5
			s-2.5,0.9-2.5,2.8v8.2h-5L141.7,54.9z"/>
		<path class="st1" d="M158,62.4v-0.2c0-4.7,3.5-7.7,8-7.7s8,2.9,8,7.5v0.2c0,4.8-3.5,7.6-8,7.6S158,67.2,158,62.4z M168.9,62.4
			v-0.2c0-2.5-1-3.8-2.9-3.8s-2.9,1.3-2.9,3.8v0.2c0,2.5,1,3.9,2.9,3.9S168.9,64.8,168.9,62.4L168.9,62.4z"/>
		<path class="st1" d="M174,54.9h5.2l2.1,8.8l2.5-8.8h4l2.2,8.8l2.4-8.8h4.8l-4.6,14.6h-4.8l-2.2-8.2l-2.3,8.2h-4.9L174,54.9z"/>
		<path class="st1" d="M204.3,64.9v-6.5h-1.8v-3.4h1.8v-3h5v3h2.9v3.4h-2.9v6c0,1.1,0.5,1.5,1.5,1.5c0.5,0,1-0.1,1.4-0.3v3.8
			c-0.9,0.3-1.8,0.4-2.8,0.4C206.1,69.9,204.3,68.3,204.3,64.9z"/>
		<path class="st1" d="M214.1,48.5h5v8.8c0.9-1.8,2.8-2.8,4.8-2.7c2.8,0,4.8,1.8,4.8,5.5v9.5h-5v-8.5c0-1.7-0.6-2.5-2.1-2.5
			s-2.5,0.9-2.5,2.8v8.2h-5L214.1,48.5z"/>
		<path class="st1" d="M230.3,62.4v-0.2c0-4.7,3.5-7.7,7.9-7.7c4,0,7.4,2.3,7.4,7.6v1.3h-10.3c-0.1,1.6,1.2,3,2.8,3.1
			c0.1,0,0.2,0,0.3,0c1.6,0,2.4-0.8,2.6-1.7h4.7c-0.4,3.3-3,5.2-7.4,5.2C233.7,69.9,230.3,67.2,230.3,62.4z M240.8,60.6
			c-0.1-1.8-1-2.8-2.6-2.8s-2.6,1-2.8,2.8H240.8z"/>
		<path class="st1" d="M252.6,54.9h5v2.2c0.9-1.6,2.7-2.6,4.6-2.6c3.4,0,6.2,2.6,6.2,7.6v0.2c0,5-2.8,7.6-6.2,7.6
			c-1.9,0.1-3.6-0.9-4.5-2.5v7h-5L252.6,54.9z M263.2,62.4v-0.2c0-2.6-1.1-3.8-2.9-3.8s-2.9,1.3-2.9,3.8v0.2c0,2.5,1.1,3.8,2.9,3.8
			S263.2,64.8,263.2,62.4z"/>
		<path class="st1" d="M270.1,54.9h5v2.9c0.7-2,2.6-3.3,4.7-3.1v4.7c-3-0.1-4.7,0.9-4.7,3.2v6.9h-5V54.9z"/>
		<path class="st1" d="M281.6,51c-0.1-1.5,1-2.8,2.6-3c1.5-0.1,2.8,1,3,2.6c0.1,1.5-1,2.8-2.6,3c-0.1,0-0.1,0-0.2,0
			C282.9,53.7,281.7,52.5,281.6,51C281.6,51.1,281.6,51,281.6,51z M281.8,55h5v14.6h-5V55z"/>
		<path class="st1" d="M288.8,62.4v-0.2c0-4.9,3.5-7.7,7.8-7.7c3.6,0,6.9,1.6,7.2,6H299c0-1.2-1-2.2-2.2-2.1c-0.1,0-0.1,0-0.2,0
			c-1.8,0-2.8,1.3-2.8,3.7v0.2c0,2.6,1,3.9,2.9,3.9c1.3,0.1,2.5-1,2.5-2.3c0,0,0-0.1,0-0.1h4.5c-0.1,3.7-2.6,6.1-7.4,6.1
			C292.1,69.9,288.8,67.4,288.8,62.4z"/>
		<path class="st1" d="M304.6,62.4v-0.2c0-4.7,3.5-7.7,7.9-7.7c4,0,7.5,2.3,7.5,7.6v1.3h-10.3c-0.1,1.6,1.2,3,2.8,3.1
			c0.1,0,0.1,0,0.2,0c1.7,0,2.4-0.8,2.5-1.7h4.7c-0.5,3.3-3,5.2-7.4,5.2C308,69.9,304.6,67.2,304.6,62.4z M315.1,60.6
			c-0.1-1.8-1-2.8-2.6-2.8s-2.5,1-2.8,2.8H315.1z"/>
		<path class="st1" d="M331.9,67.3v2.3h-5V48.5h5v8.6c0.9-1.6,2.7-2.6,4.6-2.6c3.4,0,6.2,2.6,6.2,7.6v0.2c0,5-2.8,7.6-6.2,7.6
			C334.5,70,332.7,69,331.9,67.3z M337.5,62.3v-0.2c0-2.6-1.1-3.8-2.9-3.8s-2.9,1.3-2.9,3.8v0.2c0,2.5,1.1,3.7,2.9,3.7
			S337.5,64.8,337.5,62.3L337.5,62.3z"/>
		<path class="st1" d="M343.7,62.4v-0.2c0-4.7,3.5-7.7,7.9-7.7c4,0,7.5,2.3,7.5,7.6v1.3h-10.3c-0.1,1.6,1.1,3,2.8,3.1
			c0.1,0,0.2,0,0.2,0c1.6,0,2.4-0.8,2.5-1.7h4.7c-0.5,3.3-3,5.2-7.4,5.2C347,69.9,343.7,67.2,343.7,62.4z M354.2,60.6
			c-0.1-1.8-1-2.8-2.6-2.8s-2.5,1-2.8,2.8H354.2z"/>
		<path class="st1" d="M361.5,58.4h-1.9v-3.4h1.9v-1.3c0-3.6,2.3-5.4,5.7-5.4c0.8,0,1.5,0.1,2.3,0.3v3.7c-0.4-0.1-0.9-0.2-1.4-0.2
			c-0.8-0.1-1.6,0.4-1.7,1.2c0,0.1,0,0.2,0,0.4v1.3h3v3.4h-3v11.2h-5L361.5,58.4z"/>
		<path class="st1" d="M369.9,62.4v-0.2c0-4.7,3.5-7.7,8-7.7s8,2.9,8,7.5v0.2c0,4.8-3.5,7.6-8,7.6S369.9,67.2,369.9,62.4z
			 M380.8,62.4v-0.2c0-2.5-1-3.8-2.9-3.8s-2.9,1.3-2.9,3.8v0.2c0,2.5,1,3.9,2.9,3.9S380.8,64.8,380.8,62.4z"/>
		<path class="st1" d="M387.6,54.9h5v2.9c0.7-2,2.6-3.3,4.7-3.1v4.7c-3-0.1-4.7,0.9-4.7,3.2v6.9h-5V54.9z"/>
		<path class="st1" d="M398.3,62.4v-0.2c0-4.7,3.5-7.7,7.9-7.7c4,0,7.5,2.3,7.5,7.6v1.3h-10.3c-0.1,1.6,1.2,3,2.8,3.1
			c0.1,0,0.1,0,0.2,0c1.7,0,2.4-0.8,2.5-1.7h4.7c-0.5,3.3-3,5.2-7.4,5.2C401.6,69.9,398.3,67.2,398.3,62.4z M408.8,60.6
			c-0.1-1.8-1-2.8-2.6-2.8s-2.5,1-2.8,2.8H408.8z"/>
		<path class="st1" d="M425.1,68.1l-5.9-13.2h5.4l3,7.8l2.8-7.8h4.8l-7.8,19.5h-4.8L425.1,68.1z"/>
		<path class="st1" d="M435,62.4v-0.2c0-4.7,3.5-7.7,8-7.7s8,2.9,8,7.5v0.2c0,4.8-3.5,7.6-8,7.6S435,67.2,435,62.4z M445.9,62.4
			v-0.2c0-2.5-1-3.8-2.9-3.8s-2.9,1.3-2.9,3.8v0.2c0,2.5,1,3.9,2.9,3.9S445.9,64.8,445.9,62.4L445.9,62.4z"/>
		<path class="st1" d="M452.7,64.5v-9.5h5v8.7c0,1.7,0.6,2.5,2.1,2.5s2.5-0.9,2.5-2.8v-8.4h5v14.6h-5v-2.3c-0.9,1.7-2.7,2.7-4.6,2.6
			C454.8,69.9,452.7,68.2,452.7,64.5z"/>
		<path class="st1" d="M479.9,67.3v2.3h-5V48.5h5v8.6c0.9-1.6,2.7-2.6,4.6-2.6c3.4,0,6.2,2.6,6.2,7.6v0.2c0,5-2.8,7.6-6.2,7.6
			C482.5,70,480.8,69,479.9,67.3z M485.6,62.3v-0.2c0-2.6-1.1-3.8-2.9-3.8s-2.9,1.3-2.9,3.8v0.2c0,2.5,1.1,3.7,2.9,3.7
			S485.6,64.8,485.6,62.3L485.6,62.3z"/>
		<path class="st1" d="M491.7,62.4v-0.2c0-4.7,3.5-7.7,7.9-7.7c4,0,7.5,2.3,7.5,7.6v1.3h-10.3c-0.1,1.6,1.2,3,2.8,3.1
			c0.1,0,0.2,0,0.3,0c1.6,0,2.4-0.8,2.5-1.7h4.7c-0.5,3.3-3,5.2-7.4,5.2C495,69.9,491.7,67.2,491.7,62.4z M502.2,60.6
			c-0.1-1.8-1-2.8-2.6-2.8s-2.5,1-2.8,2.8H502.2z"/>
		<path class="st1" d="M508,69.6h5c0.2,1.1,0.9,1.9,2.7,1.9c1.5,0.2,2.9-0.9,3.1-2.4c0-0.2,0-0.5,0-0.7v-2.2
			c-0.9,1.7-2.6,2.7-4.5,2.7c-3.4,0-6.2-2.5-6.2-7v-0.3c0-4.3,2.8-7,6.2-7c1.9-0.1,3.6,0.8,4.5,2.5v-2.1h5v13.4
			c0,4.4-2.9,6.7-8.1,6.7C510.7,75,508.4,72.9,508,69.6z M518.9,61.8v-0.2c0-2-1-3.3-2.9-3.3s-2.9,1.3-2.9,3.3v0.2
			c0,2,1.1,3.3,2.8,3.3S518.9,63.9,518.9,61.8L518.9,61.8z"/>
		<path class="st1" d="M526.2,51c-0.1-1.5,1-2.9,2.5-3c1.5-0.1,2.9,1,3,2.5c0.1,1.5-1,2.9-2.5,3c-0.1,0-0.1,0-0.2,0
			C527.6,53.6,526.3,52.5,526.2,51C526.2,51.1,526.2,51,526.2,51z M526.5,55h5v14.6h-5V55z"/>
		<path class="st1" d="M534.2,54.9h5v2.3c0.9-1.8,2.8-2.8,4.8-2.7c2.8,0,4.8,1.8,4.8,5.5v9.5h-5v-8.5c0-1.7-0.6-2.5-2.1-2.5
			s-2.5,0.9-2.5,2.8v8.2h-5L534.2,54.9z"/>
		<path class="st1" d="M551,67.1c0-1.5,1.2-2.8,2.8-2.8c0,0,0.1,0,0.1,0c1.6-0.1,2.9,1.1,3,2.7c0.1,1.6-1.1,2.9-2.7,3
			c-0.1,0-0.2,0-0.3,0C552.3,69.9,551,68.7,551,67.1C551,67.1,551,67.1,551,67.1z"/>
	</g>
</g>
</svg>
