<svg xmlns="http://www.w3.org/2000/svg" viewBox="0 0 729 91"><title>Asset 22</title><g id="Layer_2" data-name="Layer 2"><g id="Layer_23" data-name="Layer 23"><rect x="0.5" y="0.5" width="728" height="90" fill="none" stroke="#000" stroke-miterlimit="10"/></g><g id="Avoid_guessing_games._Know_the_price_before_you_begin." data-name="Avoid guessing games. Know the price before you begin."><path d="M127.28,19.56h7.42l6.35,20H135l-1.07-3.72h-6.63l-1.07,3.72h-5.35Zm1.12,12.35h4.39l-2.18-7.7Z" fill="#fff"/><path d="M139.68,24.94H145l3.05,9.44,3-9.44h4.78l-5.34,14.64h-5.46Z" fill="#fff"/><path d="M155.56,32.44v-.22c0-4.7,3.5-7.67,8-7.67s8,2.88,8,7.53v.22c0,4.76-3.5,7.62-8,7.62S155.56,37.18,155.56,32.44Zm10.92-.08v-.22c0-2.47-1-3.84-2.89-3.84s-2.91,1.32-2.91,3.78v.22c0,2.52,1,3.9,2.91,3.9S166.48,34.8,166.48,32.36Z" fill="#fff"/><path d="M173.22,21A2.77,2.77,0,1,1,176,23.54,2.62,2.62,0,0,1,173.22,21Zm.26,4h5V39.58h-5Z" fill="#fff"/><path d="M180.45,32.42v-.23c0-5,2.74-7.64,6.21-7.64A4.75,4.75,0,0,1,191.17,27V18.5h5V39.58h-5V37.2a4.92,4.92,0,0,1-4.56,2.72C183.22,39.92,180.45,37.48,180.45,32.42Zm10.86-.09v-.22c0-2.47-1-3.78-2.88-3.78s-2.89,1.26-2.89,3.81v.22c0,2.46,1.1,3.72,2.83,3.72S191.31,34.82,191.31,32.33Z" fill="#fff"/><path d="M203,39.58h5c.22,1.07.87,1.91,2.69,1.91a2.77,2.77,0,0,0,3.1-3.08V36.17a5.12,5.12,0,0,1-4.53,2.69c-3.42,0-6.22-2.52-6.22-7V31.6c0-4.31,2.77-7,6.22-7A4.75,4.75,0,0,1,213.79,27V24.94h5V38.35c0,4.37-2.89,6.67-8.12,6.67C205.7,45,203.41,42.92,203,39.58Zm10.92-7.78v-.2c0-2-1-3.3-2.89-3.3s-2.88,1.32-2.88,3.33v.23c0,2,1.06,3.3,2.85,3.3S213.94,33.87,213.94,31.8Z" fill="#fff"/><path d="M221.24,34.49V24.94h5v8.74c0,1.65.65,2.46,2.08,2.46s2.49-.9,2.49-2.77V24.94h5V39.58h-5V37.32a4.82,4.82,0,0,1-4.65,2.6C223.34,39.92,221.24,38.18,221.24,34.49Z" fill="#fff"/><path d="M237.59,32.44v-.22c0-4.7,3.5-7.67,7.93-7.67,4,0,7.45,2.29,7.45,7.56v1.31H242.66a2.93,2.93,0,0,0,3.05,3.06c1.66,0,2.36-.76,2.55-1.74H253c-.45,3.3-3,5.18-7.42,5.18C241,39.92,237.59,37.23,237.59,32.44Zm10.5-1.84c-.08-1.77-1-2.75-2.57-2.75s-2.55,1-2.8,2.75Z" fill="#fff"/><path d="M253.86,34.94h4.62c.17,1.06.65,1.65,2.07,1.65,1.24,0,1.8-.48,1.8-1.21s-.7-1-2.72-1.31c-3.92-.51-5.57-1.65-5.57-4.71,0-3.24,2.88-4.81,6.27-4.81,3.61,0,6.13,1.23,6.47,4.73h-4.54a1.63,1.63,0,0,0-1.87-1.46c-1.1,0-1.66.48-1.66,1.15s.68,1,2.47,1.21c4.06.5,6,1.56,6,4.7,0,3.47-2.58,5-6.64,5S254,38.18,253.86,34.94Z" fill="#fff"/><path d="M268,34.94h4.62c.16,1.06.64,1.65,2.07,1.65,1.23,0,1.79-.48,1.79-1.21s-.7-1-2.72-1.31c-3.92-.51-5.57-1.65-5.57-4.71,0-3.24,2.89-4.81,6.27-4.81,3.62,0,6.14,1.23,6.47,4.73h-4.53a1.64,1.64,0,0,0-1.88-1.46c-1.09,0-1.65.48-1.65,1.15s.67,1,2.46,1.21c4.06.5,6,1.56,6,4.7,0,3.47-2.57,5-6.63,5S268.06,38.18,268,34.94Z" fill="#fff"/><path d="M282.81,21a2.77,2.77,0,1,1,2.75,2.58A2.62,2.62,0,0,1,282.81,21Zm.26,4h5V39.58h-5Z" fill="#fff"/><path d="M290.77,24.94h5v2.35a5.16,5.16,0,0,1,4.81-2.74c2.83,0,4.79,1.76,4.79,5.51v9.52h-5V31.07c0-1.65-.64-2.46-2.1-2.46s-2.49.89-2.49,2.77v8.2h-5Z" fill="#fff"/><path d="M307,39.58h5c.22,1.07.87,1.91,2.69,1.91a2.77,2.77,0,0,0,3.11-3.08V36.17a5.15,5.15,0,0,1-4.54,2.69c-3.42,0-6.22-2.52-6.22-7V31.6c0-4.31,2.78-7,6.22-7A4.78,4.78,0,0,1,317.79,27V24.94h5V38.35c0,4.37-2.89,6.67-8.12,6.67C309.69,45,307.4,42.92,307,39.58Zm10.92-7.78v-.2c0-2-1-3.3-2.89-3.3s-2.88,1.32-2.88,3.33v.23c0,2,1.06,3.3,2.85,3.3S317.93,33.87,317.93,31.8Z" fill="#fff"/><path d="M329.63,39.58h5c.23,1.07.87,1.91,2.69,1.91a2.77,2.77,0,0,0,3.11-3.08V36.17a5.14,5.14,0,0,1-4.54,2.69c-3.41,0-6.21-2.52-6.21-7V31.6c0-4.31,2.77-7,6.21-7A4.77,4.77,0,0,1,340.41,27V24.94h5V38.35c0,4.37-2.88,6.67-8.12,6.67C332.32,45,330,42.92,329.63,39.58Zm10.92-7.78v-.2c0-2-1-3.3-2.88-3.3s-2.89,1.32-2.89,3.33v.23c0,2,1.06,3.3,2.86,3.3S340.55,33.87,340.55,31.8Z" fill="#fff"/><path d="M347.13,35.52c0-3.44,2.91-4.78,7.78-4.78h1.4V30.4c0-1.4-.33-2.32-1.93-2.32a1.8,1.8,0,0,0-2,1.73h-4.7c.22-3.53,3-5.26,7-5.26s6.61,1.65,6.61,5.54v9.49h-4.88v-1.7a4.81,4.81,0,0,1-4.34,2C349.45,39.92,347.13,38.63,347.13,35.52Zm9.18-1.06v-.9H355c-2,0-2.92.4-2.92,1.6,0,.84.56,1.37,1.74,1.37C355.25,36.53,356.31,35.72,356.31,34.46Z" fill="#fff"/><path d="M363.73,24.94h5v2.24a5.14,5.14,0,0,1,4.6-2.63,4,4,0,0,1,4,2.43,5.83,5.83,0,0,1,4.85-2.43c2.77,0,4.78,1.79,4.78,5.46v9.57h-5V30.85c0-1.49-.73-2.21-1.87-2.21a2.16,2.16,0,0,0-2.24,2.46v8.48h-5V30.85c0-1.49-.73-2.21-1.88-2.21a2.17,2.17,0,0,0-2.24,2.46v8.48h-5Z" fill="#fff"/><path d="M388.6,32.44v-.22c0-4.7,3.5-7.67,7.92-7.67,4,0,7.45,2.29,7.45,7.56v1.31H393.66a2.93,2.93,0,0,0,3.06,3.06c1.65,0,2.35-.76,2.54-1.74H404c-.45,3.3-3,5.18-7.42,5.18C392,39.92,388.6,37.23,388.6,32.44Zm10.5-1.84c-.09-1.77-1-2.75-2.58-2.75s-2.55,1-2.8,2.75Z" fill="#fff"/><path d="M404.86,34.94h4.62c.17,1.06.65,1.65,2.08,1.65,1.23,0,1.79-.48,1.79-1.21s-.7-1-2.72-1.31c-3.92-.51-5.57-1.65-5.57-4.71,0-3.24,2.88-4.81,6.27-4.81,3.61,0,6.13,1.23,6.47,4.73h-4.54a1.63,1.63,0,0,0-1.87-1.46c-1.09,0-1.65.48-1.65,1.15s.67,1,2.46,1.21c4.06.5,6,1.56,6,4.7,0,3.47-2.58,5-6.64,5S405,38.18,404.86,34.94Z" fill="#fff"/><path d="M419.65,37.06a2.79,2.79,0,0,1,2.85-2.82,2.83,2.83,0,1,1,0,5.65A2.79,2.79,0,0,1,419.65,37.06Z" fill="#fff"/><path d="M122.43,49.56h5.77v7.93l6-7.93h6l-7.33,9.3,7.72,10.72H134l-5.77-8.37v8.37h-5.77Z" fill="#fff"/><path d="M141.7,54.94h5v2.35a5.16,5.16,0,0,1,4.81-2.74c2.83,0,4.79,1.76,4.79,5.51v9.52h-5V61.07c0-1.65-.64-2.46-2.1-2.46s-2.49.89-2.49,2.77v8.2h-5Z" fill="#fff"/><path d="M158,62.44v-.22c0-4.7,3.5-7.67,8-7.67s8,2.88,8,7.53v.22c0,4.76-3.5,7.62-8,7.62S158,67.18,158,62.44Zm10.92-.08v-.22c0-2.47-1-3.84-2.88-3.84s-2.91,1.32-2.91,3.78v.22c0,2.52,1,3.9,2.91,3.9S168.88,64.8,168.88,62.36Z" fill="#fff"/><path d="M174,54.94h5.23l2.13,8.76,2.46-8.76h4l2.18,8.76,2.38-8.76h4.76l-4.65,14.64h-4.79l-2.18-8.17-2.27,8.17h-4.87Z" fill="#fff"/><path d="M204.28,64.88V58.36h-1.77V54.94h1.77v-3h5v3h2.88v3.42h-2.88v6c0,1.07.53,1.54,1.48,1.54a3.8,3.8,0,0,0,1.43-.25V69.5a10.43,10.43,0,0,1-2.77.42C206.12,69.92,204.28,68.32,204.28,64.88Z" fill="#fff"/><path d="M214.08,48.5h5v8.79a5.16,5.16,0,0,1,4.81-2.74c2.83,0,4.79,1.76,4.79,5.51v9.52h-5V61.07c0-1.65-.64-2.46-2.1-2.46s-2.49.89-2.49,2.77v8.2h-5Z" fill="#fff"/><path d="M230.34,62.44v-.22c0-4.7,3.5-7.67,7.93-7.67,4,0,7.44,2.29,7.44,7.56v1.31h-10.3a2.93,2.93,0,0,0,3.05,3.06c1.65,0,2.35-.76,2.55-1.74h4.7c-.44,3.3-3,5.18-7.42,5.18C233.7,69.92,230.34,67.23,230.34,62.44Zm10.5-1.84c-.08-1.77-1-2.75-2.57-2.75s-2.55,1-2.8,2.75Z" fill="#fff"/><path d="M252.55,54.94h5v2.18a5.16,5.16,0,0,1,4.56-2.57c3.42,0,6.19,2.57,6.19,7.59v.22c0,5-2.77,7.56-6.22,7.56a4.83,4.83,0,0,1-4.53-2.49v7h-5Zm10.66,7.42v-.22c0-2.58-1.12-3.81-2.88-3.81s-2.91,1.31-2.91,3.78v.22c0,2.49,1.09,3.75,2.91,3.75S263.21,64.77,263.21,62.36Z" fill="#fff"/><path d="M270.13,54.94h5v2.91a4.64,4.64,0,0,1,4.73-3.11v4.68c-3.05-.08-4.73.87-4.73,3.22v6.94h-5Z" fill="#fff"/><path d="M281.58,51a2.77,2.77,0,1,1,2.75,2.58A2.62,2.62,0,0,1,281.58,51Zm.25,4h5V69.58h-5Z" fill="#fff"/><path d="M288.75,62.44v-.22c0-4.87,3.5-7.67,7.81-7.67,3.59,0,6.89,1.57,7.17,6H299a2.17,2.17,0,0,0-2.36-2.13c-1.76,0-2.8,1.26-2.8,3.72v.23c0,2.55,1,3.86,2.89,3.86a2.44,2.44,0,0,0,2.55-2.43h4.5c-.14,3.69-2.63,6.1-7.36,6.1C292.08,69.92,288.75,67.37,288.75,62.44Z" fill="#fff"/><path d="M304.65,62.44v-.22c0-4.7,3.5-7.67,7.93-7.67,4,0,7.45,2.29,7.45,7.56v1.31H309.72a2.93,2.93,0,0,0,3,3.06c1.66,0,2.36-.76,2.55-1.74H320c-.45,3.3-3,5.18-7.42,5.18C308,69.92,304.65,67.23,304.65,62.44Zm10.5-1.84c-.08-1.77-.95-2.75-2.57-2.75s-2.55,1-2.8,2.75Z" fill="#fff"/><path d="M331.87,67.32v2.26h-5V48.5h5v8.62a5.16,5.16,0,0,1,4.56-2.57c3.42,0,6.19,2.57,6.19,7.59v.22c0,5-2.77,7.56-6.21,7.56A4.76,4.76,0,0,1,331.87,67.32Zm5.66-5v-.22c0-2.58-1.12-3.81-2.89-3.81s-2.91,1.31-2.91,3.78v.22c0,2.49,1.09,3.75,2.91,3.75S337.53,64.77,337.53,62.36Z" fill="#fff"/><path d="M343.66,62.44v-.22c0-4.7,3.5-7.67,7.92-7.67,4,0,7.45,2.29,7.45,7.56v1.31h-10.3a2.91,2.91,0,0,0,3,3.06c1.65,0,2.35-.76,2.54-1.74H359c-.45,3.3-3,5.18-7.42,5.18C347,69.92,343.66,67.23,343.66,62.44Zm10.5-1.84c-.09-1.77-1-2.75-2.58-2.75s-2.55,1-2.8,2.75Z" fill="#fff"/><path d="M361.52,58.36h-1.85V54.94h1.85V53.65c0-3.64,2.27-5.37,5.74-5.37a9.44,9.44,0,0,1,2.3.3v3.67a4.73,4.73,0,0,0-1.38-.19,1.47,1.47,0,0,0-1.68,1.59v1.29h3v3.42h-3V69.58h-5Z" fill="#fff"/><path d="M369.86,62.44v-.22c0-4.7,3.5-7.67,8-7.67s8,2.88,8,7.53v.22c0,4.76-3.5,7.62-8,7.62S369.86,67.18,369.86,62.44Zm10.92-.08v-.22c0-2.47-1-3.84-2.88-3.84S375,59.62,375,62.08v.22c0,2.52,1,3.9,2.91,3.9S380.78,64.8,380.78,62.36Z" fill="#fff"/><path d="M387.64,54.94h5v2.91a4.62,4.62,0,0,1,4.73-3.11v4.68c-3.05-.08-4.73.87-4.73,3.22v6.94h-5Z" fill="#fff"/><path d="M398.28,62.44v-.22c0-4.7,3.5-7.67,7.93-7.67,4,0,7.45,2.29,7.45,7.56v1.31H403.35a2.93,2.93,0,0,0,3,3.06c1.66,0,2.36-.76,2.55-1.74h4.71c-.45,3.3-3,5.18-7.42,5.18C401.64,69.92,398.28,67.23,398.28,62.44Zm10.5-1.84c-.08-1.77-.95-2.75-2.57-2.75s-2.55,1-2.8,2.75Z" fill="#fff"/><path d="M425.08,68.1l-5.85-13.16h5.43l3,7.81,2.8-7.81h4.79l-7.84,19.54h-4.79Z" fill="#fff"/><path d="M435,62.44v-.22c0-4.7,3.5-7.67,8-7.67s8,2.88,8,7.53v.22c0,4.76-3.5,7.62-8,7.62S435,67.18,435,62.44Zm10.92-.08v-.22c0-2.47-1-3.84-2.88-3.84s-2.91,1.32-2.91,3.78v.22c0,2.52,1,3.9,2.91,3.9S445.91,64.8,445.91,62.36Z" fill="#fff"/><path d="M452.66,64.49V54.94h5v8.74c0,1.65.65,2.46,2.07,2.46s2.5-.9,2.5-2.77V54.94h5V69.58h-5V67.32a4.83,4.83,0,0,1-4.65,2.6C454.76,69.92,452.66,68.18,452.66,64.49Z" fill="#fff"/><path d="M479.9,67.32v2.26h-5V48.5h5v8.62a5.16,5.16,0,0,1,4.57-2.57c3.41,0,6.19,2.57,6.19,7.59v.22c0,5-2.78,7.56-6.22,7.56A4.76,4.76,0,0,1,479.9,67.32Zm5.66-5v-.22c0-2.58-1.12-3.81-2.89-3.81s-2.91,1.31-2.91,3.78v.22c0,2.49,1.09,3.75,2.91,3.75S485.56,64.77,485.56,62.36Z" fill="#fff"/><path d="M491.69,62.44v-.22c0-4.7,3.5-7.67,7.92-7.67,4,0,7.45,2.29,7.45,7.56v1.31h-10.3a2.93,2.93,0,0,0,3.05,3.06c1.65,0,2.35-.76,2.55-1.74h4.7c-.45,3.3-3,5.18-7.42,5.18C495.05,69.92,491.69,67.23,491.69,62.44Zm10.5-1.84c-.08-1.77-.95-2.75-2.58-2.75s-2.54,1-2.8,2.75Z" fill="#fff"/><path d="M508,69.58h5c.22,1.07.87,1.91,2.69,1.91a2.77,2.77,0,0,0,3.11-3.08V66.17a5.15,5.15,0,0,1-4.54,2.69c-3.42,0-6.22-2.52-6.22-7V61.6c0-4.31,2.78-7.05,6.22-7.05A4.78,4.78,0,0,1,518.77,57V54.94h5V68.35c0,4.37-2.89,6.67-8.12,6.67C510.67,75,508.38,72.92,508,69.58Zm10.92-7.78v-.2c0-2-1-3.3-2.89-3.3s-2.88,1.32-2.88,3.33v.23c0,2,1.06,3.3,2.85,3.3S518.91,63.87,518.91,61.8Z" fill="#fff"/><path d="M526.21,51A2.77,2.77,0,1,1,529,53.54,2.62,2.62,0,0,1,526.21,51Zm.26,4h5V69.58h-5Z" fill="#fff"/><path d="M534.17,54.94h5v2.35A5.16,5.16,0,0,1,544,54.55c2.83,0,4.79,1.76,4.79,5.51v9.52h-5V61.07c0-1.65-.64-2.46-2.1-2.46s-2.49.89-2.49,2.77v8.2h-5Z" fill="#fff"/><path d="M551,67.06a2.79,2.79,0,0,1,2.86-2.82,2.83,2.83,0,1,1,0,5.65A2.8,2.8,0,0,1,551,67.06Z" fill="#fff"/></g></g></svg>