<svg xmlns="http://www.w3.org/2000/svg" viewBox="0 0 121 32"><title>file_today</title><g id="Layer_2" data-name="Layer 2"><g id="Rect"><rect width="121" height="32" fill="none"/></g><g id="File_today" data-name="File today"><path d="M29.23,10.39h6.43v1.78H31.5v2.65h3.29v1.71H31.5v3.88H29.23Z" fill="#262626"/><path d="M36.54,11a1.16,1.16,0,1,1,1.15,1.11A1.11,1.11,0,0,1,36.54,11Zm.15,2.1h2v7.33h-2Z" fill="#262626"/><path d="M40.42,9.76h2V20.41h-2Z" fill="#262626"/><path d="M43.62,16.83v-.11a3.64,3.64,0,0,1,3.77-3.81A3.38,3.38,0,0,1,51,16.64v.56H45.68a1.76,1.76,0,0,0,1.82,1.92c.94,0,1.4-.41,1.53-1H51c-.24,1.59-1.5,2.47-3.5,2.47A3.56,3.56,0,0,1,43.62,16.83ZM49,16c-.07-1.1-.63-1.64-1.6-1.64A1.68,1.68,0,0,0,45.71,16Z" fill="#262626"/><path d="M55.28,18.24V14.52h-.94V13.08h.94V11.5h2v1.58h1.54v1.44H57.3v3.53c0,.59.29.87.81.87a1.83,1.83,0,0,0,.77-.14v1.57a3.59,3.59,0,0,1-1.23.2A2.09,2.09,0,0,1,55.28,18.24Z" fill="#262626"/><path d="M59.6,16.82v-.11a3.86,3.86,0,0,1,7.71,0v.11a3.86,3.86,0,0,1-7.71,0Zm5.65,0v-.1c0-1.4-.65-2.24-1.79-2.24s-1.79.82-1.79,2.22v.11c0,1.4.64,2.24,1.79,2.24S65.25,18.18,65.25,16.79Z" fill="#262626"/><path d="M68,16.85v-.11c0-2.41,1.39-3.83,3.22-3.83a2.46,2.46,0,0,1,2.32,1.26V9.76h2V20.41h-2V19.19a2.68,2.68,0,0,1-2.36,1.37C69.42,20.56,68,19.29,68,16.85Zm5.59-.07v-.11c0-1.46-.64-2.2-1.75-2.2s-1.76.77-1.76,2.22v.12c0,1.45.7,2.17,1.7,2.17S73.61,18.26,73.61,16.78Z" fill="#262626"/><path d="M76.69,18.38c0-1.71,1.57-2.36,3.81-2.36h.83v-.29c0-.87-.27-1.35-1.2-1.35a1.1,1.1,0,0,0-1.24,1H77c.12-1.74,1.5-2.51,3.29-2.51s3.07.73,3.07,2.72v4.78h-2v-.89a2.48,2.48,0,0,1-2.21,1C77.81,20.56,76.69,19.92,76.69,18.38Zm4.64-.54v-.61h-.79c-1.18,0-1.86.25-1.86,1,0,.53.32.89,1.06.89C80.64,19.15,81.33,18.66,81.33,17.84Z" fill="#262626"/><path d="M86.83,19.66l-2.92-6.58H86.1l1.78,4.4,1.64-4.4h1.94l-4,9.82h-2Z" fill="#262626"/></g></g></svg>