<svg xmlns="http://www.w3.org/2000/svg" viewBox="0 0 728 90"><title>H02</title><g id="Layer_2" data-name="Layer 2"><g id="Rect"><rect width="728" height="90" fill="none"/></g><g id="Claiming_EITC_Try_H_R_Block_Free_Online._" data-name="Claiming EITC?  Try H&amp;R Block Free Online.   "><path d="M108.3,28.88v-.24c0-6.67,4.73-11.07,11.07-11.07,5.64,0,9.55,2.61,10.06,8.34H123c-.25-2.22-1.46-3.43-3.64-3.43-2.79,0-4.55,2.19-4.55,6.13v.24c0,3.91,1.67,6.12,4.64,6.12a3.73,3.73,0,0,0,4-3.54h6.19C129.28,37,125.22,40,119.61,40,112,40,108.3,35.52,108.3,28.88Z" fill="#fff"/><path d="M132.1,16.75h5.4V39.58h-5.4Z" fill="#fff"/><path d="M140,35.19c0-3.73,3.15-5.19,8.43-5.19h1.51v-.36c0-1.52-.36-2.52-2.09-2.52A1.94,1.94,0,0,0,145.66,29h-5.1c.25-3.82,3.25-5.7,7.58-5.7s7.16,1.79,7.16,6V39.58H150V37.73a5.21,5.21,0,0,1-4.7,2.22C142.47,40,140,38.55,140,35.19ZM149.9,34v-1h-1.42c-2.19,0-3.16.43-3.16,1.73,0,.91.61,1.49,1.88,1.49C148.75,36.28,149.9,35.4,149.9,34Z" fill="#fff"/><path d="M158.27,19.42a3,3,0,1,1,3,2.79A2.83,2.83,0,0,1,158.27,19.42Zm.27,4.31H164V39.58h-5.43Z" fill="#fff"/><path d="M167.34,23.73h5.42v2.42a5.55,5.55,0,0,1,5-2.85,4.31,4.31,0,0,1,4.3,2.64,6.3,6.3,0,0,1,5.25-2.64c3,0,5.18,1.94,5.18,5.91V39.58H187V30.12c0-1.6-.78-2.39-2-2.39a2.35,2.35,0,0,0-2.42,2.67v9.18h-5.37V30.12c0-1.6-.79-2.39-2-2.39a2.35,2.35,0,0,0-2.43,2.67v9.18h-5.42Z" fill="#fff"/><path d="M195.45,19.42a3,3,0,1,1,3,2.79A2.83,2.83,0,0,1,195.45,19.42Zm.27,4.31h5.43V39.58h-5.43Z" fill="#fff"/><path d="M204.51,23.73h5.43v2.54a5.6,5.6,0,0,1,5.22-3c3.06,0,5.18,1.91,5.18,6V39.58h-5.43V30.37c0-1.79-.69-2.67-2.27-2.67s-2.7,1-2.7,3v8.88h-5.43Z" fill="#fff"/><path d="M222.55,39.58H228c.24,1.15.94,2.06,2.91,2.06,2.4,0,3.37-1.36,3.37-3.33V35.88a5.56,5.56,0,0,1-4.91,2.91c-3.7,0-6.74-2.73-6.74-7.61v-.24c0-4.67,3-7.64,6.74-7.64A5.16,5.16,0,0,1,234.23,26V23.73h5.42V38.25c0,4.73-3.12,7.21-8.79,7.21C225.47,45.46,223,43.19,222.55,39.58Zm11.83-8.43v-.21c0-2.18-1.12-3.58-3.12-3.58s-3.13,1.43-3.13,3.61v.24c0,2.19,1.16,3.58,3.1,3.58S234.38,33.4,234.38,31.15Z" fill="#fff"/><path d="M249.33,17.9h15v4.79h-8.8v3.73h7v4.43h-7v3.94h9.28v4.79H249.33Z" fill="#fff"/><path d="M268,17.9h6.27V39.58H268Z" fill="#fff"/><path d="M282.71,22.69H277.1V17.9h17.47v4.79H289V39.58h-6.25Z" fill="#fff"/><path d="M295.42,28.88v-.24c0-6.67,4.73-11.07,11.07-11.07,5.64,0,9.55,2.61,10.06,8.34h-6.4c-.24-2.22-1.45-3.43-3.63-3.43-2.79,0-4.55,2.19-4.55,6.13v.24c0,3.91,1.67,6.12,4.64,6.12a3.73,3.73,0,0,0,4-3.54h6.18C316.4,37,312.34,40,306.73,40,299.15,40,295.42,35.52,295.42,28.88Z" fill="#fff"/><path d="M322.68,31.88c0-2.3,1.58-3.76,3-5.09,1-1,2-1.91,2-3A1.62,1.62,0,0,0,325.77,22c-1.3,0-2.18,1-2.39,2.67H318.1c.15-4.58,3.43-7.07,8.1-7.07s7.3,2.09,7.3,5.7a6.16,6.16,0,0,1-2.21,4.55c-1.49,1.48-3.21,2.67-3.49,4.15v.46h-5.12Zm-.7,5a3.25,3.25,0,0,1,6.49,0,3.25,3.25,0,0,1-6.49,0Z" fill="#fff"/><path d="M113.58,55.35H108V50.56h17.46v4.79h-5.61V72.24h-6.24Z" fill="#fff"/><path d="M126.77,56.38h5.42v3.15a5,5,0,0,1,5.13-3.36v5.06c-3.31-.09-5.13.94-5.13,3.49v7.52h-5.42Z" fill="#fff"/><path d="M145,70.63l-6.34-14.25h5.88l3.28,8.46,3-8.46H156l-8.49,21.16h-5.19Z" fill="#fff"/><path d="M164.31,50.56h6.24v8.28h7.13V50.56h6.21V72.24h-6.21V63.69h-7.13v8.55h-6.24Z" fill="#fff"/><path d="M205.15,67.81l3.61,4.43h-7.07l-1.27-1.58a8.65,8.65,0,0,1-5.85,1.94c-4.61,0-7.61-2.42-7.61-6.55,0-2.79,1.69-4.85,4.76-6.3A6.94,6.94,0,0,1,190.38,56c0-3.7,3.16-5.67,7-5.67,3.45,0,6.58,1.72,6.58,5.06,0,2.36-1.4,4.09-4.34,5.37l2.73,3.33L203.9,61h4.73Zm-7.52-.64-3.43-4.12a2.56,2.56,0,0,0-1.45,2.33,2.52,2.52,0,0,0,2.76,2.7A2.83,2.83,0,0,0,197.63,67.17ZM197,58.44c1.46-.69,2.15-1.51,2.15-2.64a1.55,1.55,0,0,0-1.6-1.66A1.73,1.73,0,0,0,195.72,56,4,4,0,0,0,197,58.44Z" fill="#fff"/><path d="M211.18,50.56h8.49c5.67,0,8.83,2.3,8.83,6.88v.12a5.66,5.66,0,0,1-3.92,5.7l5.19,9h-6.55l-4.4-7.76h-1.45v7.76h-6.19Zm8.19,9.88c2.09,0,3.12-.88,3.12-2.63v-.13c0-1.75-1.09-2.45-3.09-2.45h-2v5.21Z" fill="#fff"/><path d="M238.29,50.56H248c5.13,0,7.31,2.3,7.31,5.67v.12A4.46,4.46,0,0,1,251.6,61a4.71,4.71,0,0,1,4.34,5.06v.12c0,3.88-2.52,6-7.89,6h-9.76Zm8.43,8.61c1.94,0,2.67-.67,2.67-2.21v-.13c0-1.48-.79-2.15-2.67-2.15h-2.36v4.49Zm.21,8.91c2,0,2.88-.91,2.88-2.51v-.12c0-1.64-.88-2.49-3.06-2.49h-2.39v5.12Z" fill="#fff"/><path d="M258.55,49.41h5.39V72.24h-5.39Z" fill="#fff"/><path d="M266.46,64.51v-.25c0-5.09,3.79-8.3,8.7-8.3s8.64,3.12,8.64,8.15v.24c0,5.16-3.79,8.25-8.67,8.25S266.46,69.63,266.46,64.51Zm11.83-.09v-.25c0-2.67-1.07-4.15-3.13-4.15S272,61.44,272,64.11v.24c0,2.73,1.06,4.22,3.15,4.22S278.29,67.05,278.29,64.42Z" fill="#fff"/><path d="M285.32,64.51v-.25c0-5.27,3.79-8.3,8.46-8.3,3.88,0,7.46,1.69,7.76,6.51h-5.09a2.34,2.34,0,0,0-2.55-2.3c-1.91,0-3,1.36-3,4v.25c0,2.75,1.06,4.18,3.12,4.18A2.64,2.64,0,0,0,296.75,66h4.88c-.15,4-2.85,6.61-8,6.61C288.93,72.6,285.32,69.84,285.32,64.51Z" fill="#fff"/><path d="M303.85,49.41h5.42V62.66l4.28-6.28h5.64L314,63.51l5.61,8.73h-6.06l-4.28-6.95v6.95h-5.42Z" fill="#fff"/><path d="M327.8,50.56h14.65v4.82h-8.4V60h6.7v4.58h-6.7v7.67H327.8Z" fill="#fff"/><path d="M344.36,56.38h5.43v3.15a5,5,0,0,1,5.12-3.36v5.06c-3.31-.09-5.12.94-5.12,3.49v7.52h-5.43Z" fill="#fff"/><path d="M356.34,64.51v-.25c0-5.09,3.79-8.3,8.58-8.3,4.33,0,8.06,2.48,8.06,8.18v1.43H361.82c.16,2.09,1.37,3.3,3.31,3.3s2.54-.82,2.76-1.88H373c-.48,3.58-3.24,5.61-8,5.61C360,72.6,356.34,69.69,356.34,64.51Zm11.37-2c-.1-1.91-1-3-2.79-3s-2.76,1.06-3,3Z" fill="#fff"/><path d="M374.47,64.51v-.25c0-5.09,3.79-8.3,8.58-8.3,4.33,0,8.06,2.48,8.06,8.18v1.43H380c.15,2.09,1.36,3.3,3.3,3.3s2.55-.82,2.76-1.88h5.09c-.48,3.58-3.24,5.61-8,5.61C378.11,72.6,374.47,69.69,374.47,64.51Zm11.37-2c-.09-1.91-1-3-2.79-3s-2.76,1.06-3,3Z" fill="#fff"/><path d="M398.76,61.53v-.24c0-6.61,5-11,11.46-11s11.49,4.15,11.49,10.88v.24c0,6.67-4.58,11.22-11.58,11.22S398.76,68.05,398.76,61.53Zm16.46-.06v-.24c0-3.85-1.94-6.12-5-6.12s-5,2.21-5,6.15v.24c0,4,2,6.22,5,6.22S415.22,65.35,415.22,61.47Z" fill="#fff"/><path d="M424.26,56.38h5.42v2.55a5.6,5.6,0,0,1,5.22-3c3.06,0,5.18,1.91,5.18,6V72.24h-5.42V63c0-1.79-.7-2.67-2.28-2.67s-2.7,1-2.7,3v8.89h-5.42Z" fill="#fff"/><path d="M443.33,49.41h5.4V72.24h-5.4Z" fill="#fff"/><path d="M452,52.08a2.84,2.84,0,0,1,3-2.83,2.87,2.87,0,0,1,3,2.83,2.84,2.84,0,0,1-3,2.78A2.81,2.81,0,0,1,452,52.08Zm.28,4.3h5.42V72.24h-5.42Z" fill="#fff"/><path d="M461,56.38h5.43v2.55a5.57,5.57,0,0,1,5.21-3c3.06,0,5.19,1.91,5.19,6V72.24h-5.43V63c0-1.79-.7-2.67-2.28-2.67s-2.69,1-2.69,3v8.89H461Z" fill="#fff"/><path d="M479.11,64.51v-.25c0-5.09,3.79-8.3,8.58-8.3,4.34,0,8.07,2.48,8.07,8.18v1.43H484.6c.15,2.09,1.36,3.3,3.3,3.3s2.55-.82,2.76-1.88h5.1c-.49,3.58-3.25,5.61-8,5.61C482.75,72.6,479.11,69.69,479.11,64.51Zm11.37-2c-.09-1.91-1-3-2.79-3s-2.76,1.06-3,3Z" fill="#fff"/><path d="M497.73,69.51a3,3,0,0,1,3.09-3.06,3.06,3.06,0,1,1,0,6.12A3,3,0,0,1,497.73,69.51Z" fill="#fff"/></g></g></svg>