<svg xmlns="http://www.w3.org/2000/svg" viewBox="0 0 300 250"><title>H193</title><g id="Layer_2" data-name="Layer 2"><g id="Rect"><rect width="300" height="250" fill="none"/></g><g id="Drop_off_your_taxes._No_appointment_needed." data-name="Drop off your taxes. No appointment needed."><path d="M22.87,46.53h7.07c6.89,0,10.4,3.45,10.4,9.48v.22c0,6.06-3.59,9.72-10.43,9.72h-7Zm6.88,15.13c3.31,0,4.78-1.74,4.78-5.35v-.22c0-3.69-1.47-5.27-4.84-5.27H28.47V61.66Z" fill="#fff"/><path d="M42.21,51.75h4.86v2.82a4.47,4.47,0,0,1,4.59-3v4.53c-3-.08-4.59.84-4.59,3.13V66H42.21Z" fill="#fff"/><path d="M52.53,59v-.22c0-4.56,3.4-7.44,7.8-7.44s7.74,2.79,7.74,7.3v.22c0,4.62-3.4,7.39-7.77,7.39S52.53,63.62,52.53,59Zm10.6-.09v-.21c0-2.39-1-3.72-2.8-3.72s-2.83,1.27-2.83,3.66v.22c0,2.44,1,3.78,2.83,3.78S63.13,61.31,63.13,58.94Z" fill="#fff"/><path d="M69.78,51.75h4.86v2.12a5,5,0,0,1,4.43-2.5c3.31,0,6,2.5,6,7.36v.21c0,4.89-2.69,7.34-6,7.34a4.7,4.7,0,0,1-4.4-2.42v6.85H69.78Zm10.35,7.19v-.21c0-2.5-1.09-3.7-2.8-3.7s-2.82,1.28-2.82,3.67v.22c0,2.41,1,3.64,2.82,3.64S80.13,61.28,80.13,58.94Z" fill="#fff"/><path d="M91,59v-.22c0-4.56,3.39-7.44,7.79-7.44s7.74,2.79,7.74,7.3v.22c0,4.62-3.39,7.39-7.76,7.39S91,63.62,91,59Zm10.59-.09v-.21c0-2.39-1-3.72-2.8-3.72S96,56.28,96,58.67v.22c0,2.44,1,3.78,2.82,3.78S101.61,61.31,101.61,58.94Z" fill="#fff"/><path d="M109,55.06h-1.79V51.75H109V50.66c0-3.53,2.17-5.19,5.54-5.19a8.22,8.22,0,0,1,2.17.27V49.3a4.21,4.21,0,0,0-1.3-.19,1.42,1.42,0,0,0-1.58,1.55v1.09H118V50.5c0-3.53,2.23-5.22,5.57-5.22a8.78,8.78,0,0,1,2.23.3v3.56a4.47,4.47,0,0,0-1.33-.19,1.42,1.42,0,0,0-1.61,1.55v1.25h2.88v3.31h-2.88V66H118V55.06h-4.13V66H109Z" fill="#fff"/><path d="M136.7,64.51,131,51.75h5.26l2.94,7.58,2.71-7.58h4.65l-7.61,19h-4.64Z" fill="#fff"/><path d="M146.32,59v-.22c0-4.56,3.39-7.44,7.79-7.44s7.74,2.79,7.74,7.3v.22c0,4.62-3.39,7.39-7.76,7.39S146.32,63.62,146.32,59Zm10.59-.09v-.21c0-2.39-.95-3.72-2.8-3.72s-2.82,1.27-2.82,3.66v.22c0,2.44,1,3.78,2.82,3.78S156.91,61.31,156.91,58.94Z" fill="#fff"/><path d="M163.46,61V51.75h4.86v8.47c0,1.6.62,2.39,2,2.39s2.42-.87,2.42-2.69V51.75h4.86V66h-4.86v-2.2a4.68,4.68,0,0,1-4.51,2.53C165.49,66.28,163.46,64.59,163.46,61Z" fill="#fff"/><path d="M180.08,51.75h4.86v2.82a4.46,4.46,0,0,1,4.59-3v4.53c-3-.08-4.59.84-4.59,3.13V66h-4.86Z" fill="#fff"/><path d="M196.89,61.39V55.06h-1.71V51.75h1.71v-3h4.86v3h2.8v3.31h-2.8v5.87a1.3,1.3,0,0,0,1.44,1.49,3.79,3.79,0,0,0,1.39-.24v3.69a10.36,10.36,0,0,1-2.69.41C198.68,66.28,196.89,64.73,196.89,61.39Z" fill="#fff"/><path d="M205.64,62c0-3.34,2.82-4.64,7.55-4.64h1.35V57c0-1.35-.32-2.25-1.87-2.25a1.75,1.75,0,0,0-1.93,1.68h-4.56c.22-3.42,2.9-5.1,6.79-5.1s6.41,1.6,6.41,5.37V66h-4.73V64.3a4.67,4.67,0,0,1-4.21,2C207.89,66.28,205.64,65,205.64,62Zm8.9-1v-.87h-1.27c-2,0-2.83.38-2.83,1.55,0,.82.55,1.33,1.69,1.33A2.14,2.14,0,0,0,214.54,61Z" fill="#fff"/><path d="M225.33,58.73l-4.43-7h5.59l2.2,3.75,2.15-3.75h5l-4.48,6.6,4.91,7.6h-5.59l-2.53-4.24L225.57,66h-5Z" fill="#fff"/><path d="M235.65,59v-.22c0-4.56,3.39-7.44,7.68-7.44,3.89,0,7.23,2.22,7.23,7.33V60h-10a2.84,2.84,0,0,0,3,3c1.61,0,2.29-.74,2.48-1.69h4.56c-.44,3.21-2.91,5-7.2,5C238.91,66.28,235.65,63.67,235.65,59Zm10.18-1.8c-.08-1.71-.92-2.66-2.5-2.66a2.7,2.7,0,0,0-2.71,2.66Z" fill="#fff"/><path d="M251.43,61.44h4.48c.16,1,.62,1.61,2,1.61,1.19,0,1.74-.47,1.74-1.17s-.68-1-2.64-1.28c-3.8-.49-5.4-1.6-5.4-4.56,0-3.15,2.8-4.67,6.08-4.67,3.51,0,5.95,1.19,6.28,4.59h-4.4a1.6,1.6,0,0,0-1.82-1.42c-1.06,0-1.61.47-1.61,1.12s.65,1,2.39,1.17c3.94.48,5.84,1.52,5.84,4.56,0,3.37-2.5,4.89-6.43,4.89S251.54,64.59,251.43,61.44Z" fill="#fff"/><path d="M265.77,63.51a2.72,2.72,0,0,1,2.77-2.75,2.75,2.75,0,1,1,0,5.49A2.71,2.71,0,0,1,265.77,63.51Z" fill="#fff"/><path d="M22.87,75.78h6.28l6.22,11v-11h4.86V95.2H34.85L27.76,83V95.2H22.87Z" fill="#fff"/><path d="M42.19,88.28v-.22c0-4.56,3.39-7.44,7.79-7.44s7.74,2.79,7.74,7.3v.22c0,4.62-3.39,7.39-7.77,7.39S42.19,92.87,42.19,88.28Zm10.59-.09V88c0-2.39-1-3.72-2.8-3.72s-2.82,1.27-2.82,3.66v.22c0,2.44,1,3.78,2.82,3.78S52.78,90.56,52.78,88.19Z" fill="#fff"/><path d="M63.56,91.26c0-3.34,2.82-4.64,7.55-4.64h1.36v-.33c0-1.35-.33-2.25-1.88-2.25a1.73,1.73,0,0,0-1.92,1.68H64.1c.22-3.42,2.91-5.1,6.79-5.1S77.3,82.22,77.3,86V95.2H72.58V93.55a4.67,4.67,0,0,1-4.21,2C65.81,95.53,63.56,94.28,63.56,91.26Zm8.91-1v-.87H71.19c-2,0-2.82.38-2.82,1.55,0,.82.54,1.33,1.68,1.33C71.44,92.24,72.47,91.45,72.47,90.23Z" fill="#fff"/><path d="M79.67,81h4.86v2.12A5,5,0,0,1,89,80.62c3.31,0,6,2.5,6,7.36v.21c0,4.89-2.69,7.34-6,7.34a4.68,4.68,0,0,1-4.4-2.42V100H79.67ZM90,88.19V88c0-2.5-1.08-3.7-2.79-3.7S84.39,85.56,84.39,88v.22c0,2.41,1.06,3.64,2.83,3.64S90,90.53,90,88.19Z" fill="#fff"/><path d="M96.72,81h4.86v2.12a5,5,0,0,1,4.43-2.5c3.31,0,6,2.5,6,7.36v.21c0,4.89-2.69,7.34-6,7.34a4.7,4.7,0,0,1-4.4-2.42V100H96.72Zm10.35,7.19V88c0-2.5-1.09-3.7-2.8-3.7s-2.82,1.28-2.82,3.67v.22c0,2.41,1.06,3.64,2.82,3.64S107.07,90.53,107.07,88.19Z" fill="#fff"/><path d="M113,88.28v-.22c0-4.56,3.39-7.44,7.79-7.44s7.74,2.79,7.74,7.3v.22c0,4.62-3.39,7.39-7.76,7.39S113,92.87,113,88.28Zm10.59-.09V88c0-2.39-1-3.72-2.8-3.72S118,85.53,118,87.92v.22c0,2.44,1,3.78,2.82,3.78S123.61,90.56,123.61,88.19Z" fill="#fff"/><path d="M130.16,77.14a2.54,2.54,0,0,1,2.66-2.53,2.52,2.52,0,1,1,0,5A2.52,2.52,0,0,1,130.16,77.14ZM130.4,81h4.86V95.2H130.4Z" fill="#fff"/><path d="M137.87,81h4.86v2.28a5,5,0,0,1,4.67-2.66c2.75,0,4.65,1.71,4.65,5.35V95.2h-4.86V87c0-1.61-.63-2.39-2-2.39s-2.42.86-2.42,2.68v8h-4.86Z" fill="#fff"/><path d="M155.06,90.64V84.31h-1.71V81h1.71V78h4.86v3h2.8v3.31h-2.8v5.87a1.3,1.3,0,0,0,1.44,1.49,3.79,3.79,0,0,0,1.39-.24v3.69a10.36,10.36,0,0,1-2.69.41C156.85,95.53,155.06,94,155.06,90.64Z" fill="#fff"/><path d="M164.57,81h4.86v2.17a5,5,0,0,1,4.45-2.55A3.86,3.86,0,0,1,177.74,83a5.62,5.62,0,0,1,4.7-2.36c2.69,0,4.64,1.73,4.64,5.29V95.2h-4.86V86.73c0-1.44-.7-2.15-1.82-2.15A2.1,2.1,0,0,0,178.23,87V95.2h-4.81V86.73c0-1.44-.7-2.15-1.82-2.15A2.1,2.1,0,0,0,169.43,87V95.2h-4.86Z" fill="#fff"/><path d="M188.69,88.28v-.22c0-4.56,3.39-7.44,7.68-7.44,3.89,0,7.23,2.22,7.23,7.33v1.28h-10a2.84,2.84,0,0,0,3,3c1.61,0,2.28-.74,2.48-1.69h4.56c-.44,3.21-2.91,5-7.2,5C192,95.53,188.69,92.92,188.69,88.28Zm10.18-1.8c-.08-1.71-.92-2.66-2.5-2.66a2.7,2.7,0,0,0-2.71,2.66Z" fill="#fff"/><path d="M205.28,81h4.86v2.28a5,5,0,0,1,4.68-2.66c2.74,0,4.64,1.71,4.64,5.35V95.2H214.6V87c0-1.61-.63-2.39-2-2.39s-2.42.86-2.42,2.68v8h-4.86Z" fill="#fff"/><path d="M222.48,90.64V84.31h-1.72V81h1.72V78h4.86v3h2.79v3.31h-2.79v5.87c0,1,.51,1.49,1.44,1.49a3.73,3.73,0,0,0,1.38-.24v3.69a10.29,10.29,0,0,1-2.69.41C224.27,95.53,222.48,94,222.48,90.64Z" fill="#fff"/><path d="M22.44,110.25H27.3v2.28A5,5,0,0,1,32,109.87c2.75,0,4.65,1.71,4.65,5.35v9.23H31.76V116.2c0-1.61-.63-2.39-2-2.39s-2.42.86-2.42,2.68v8H22.44Z" fill="#fff"/><path d="M38.22,117.53v-.22c0-4.56,3.4-7.44,7.69-7.44,3.88,0,7.22,2.22,7.22,7.33v1.28h-10a2.83,2.83,0,0,0,3,3c1.6,0,2.28-.74,2.47-1.69h4.56c-.43,3.21-2.9,5-7.2,5C41.48,124.78,38.22,122.17,38.22,117.53Zm10.19-1.8c-.09-1.71-.93-2.66-2.5-2.66s-2.47,1-2.72,2.66Z" fill="#fff"/><path d="M54.05,117.53v-.22c0-4.56,3.4-7.44,7.69-7.44,3.88,0,7.23,2.22,7.23,7.33v1.28H59a2.84,2.84,0,0,0,3,3c1.6,0,2.28-.74,2.47-1.69H69c-.44,3.21-2.91,5-7.2,5C57.31,124.78,54.05,122.17,54.05,117.53Zm10.19-1.8c-.08-1.71-.92-2.66-2.5-2.66s-2.47,1-2.72,2.66Z" fill="#fff"/><path d="M69.94,117.5v-.22c0-4.83,2.66-7.41,6-7.41a4.62,4.62,0,0,1,4.38,2.39V104h4.86v20.45H80.35v-2.31a4.8,4.8,0,0,1-4.43,2.64C72.63,124.78,69.94,122.42,69.94,117.5Zm10.54-.08v-.22c0-2.39-1-3.67-2.8-3.67s-2.79,1.23-2.79,3.7v.21c0,2.39,1.06,3.62,2.74,3.62S80.48,119.83,80.48,117.42Z" fill="#fff"/><path d="M86.92,117.53v-.22c0-4.56,3.39-7.44,7.68-7.44,3.89,0,7.23,2.22,7.23,7.33v1.28h-10a2.84,2.84,0,0,0,3,3c1.61,0,2.29-.74,2.48-1.69h4.56c-.43,3.21-2.91,5-7.2,5C90.18,124.78,86.92,122.17,86.92,117.53Zm10.18-1.8c-.08-1.71-.92-2.66-2.5-2.66a2.7,2.7,0,0,0-2.71,2.66Z" fill="#fff"/><path d="M102.81,117.5v-.22c0-4.83,2.66-7.41,6-7.41a4.61,4.61,0,0,1,4.37,2.39V104h4.86v20.45h-4.86v-2.31a4.79,4.79,0,0,1-4.43,2.64C105.5,124.78,102.81,122.42,102.81,117.5Zm10.53-.08v-.22c0-2.39-1-3.67-2.79-3.67s-2.8,1.23-2.8,3.7v.21c0,2.39,1.06,3.62,2.74,3.62S113.34,119.83,113.34,117.42Z" fill="#fff"/><path d="M120.35,122a2.72,2.72,0,0,1,2.77-2.75,2.75,2.75,0,1,1,0,5.49A2.71,2.71,0,0,1,120.35,122Z" fill="#fff"/></g></g></svg>