<svg xmlns="http://www.w3.org/2000/svg" viewBox="0 0 728 90"><title>Asset 7</title><g id="Layer_2" data-name="Layer 2"><g id="Rect"><rect width="728" height="90" fill="none"/></g><g id="Save_on_online_tax_prep._Switch_from_TurboTax." data-name="Save on online tax prep. Switch from TurboTax."><path d="M120.76,31.36h6.43c.17,1.68.93,3.07,3.73,3.07,2,0,3-1,3-2.35s-.89-1.85-3.73-2.27c-6.67-.8-8.91-2.78-8.91-7.53,0-4.26,3.5-7.36,9.14-7.36s8.88,2.38,9.31,7.36H133.5a2.68,2.68,0,0,0-3-2.54c-1.81,0-2.74.82-2.74,2s.73,1.92,3.67,2.31c6,.66,9,2.21,9,7.33,0,4.32-3.43,7.85-9.51,7.85C124.32,39.24,121,36.47,120.76,31.36Z" fill="#fff"/><path d="M141.61,34.06c0-4.06,3.44-5.64,9.18-5.64h1.65V28c0-1.65-.4-2.74-2.28-2.74a2.12,2.12,0,0,0-2.34,2h-5.55c.27-4.16,3.54-6.21,8.26-6.21s7.78,1.95,7.78,6.54V38.85h-5.74v-2c-.82,1.25-2.34,2.4-5.11,2.4C144.35,39.24,141.61,37.73,141.61,34.06Zm10.83-1.25V31.75h-1.55c-2.38,0-3.43.46-3.43,1.88,0,1,.66,1.62,2,1.62C151.19,35.25,152.44,34.29,152.44,32.81Z" fill="#fff"/><path d="M159.2,21.59h6.31l3.59,11.12,3.54-11.12h5.64L172,38.85h-6.44Z" fill="#fff"/><path d="M177.91,30.43v-.26c0-5.55,4.13-9,9.34-9C192,21.12,196,23.83,196,30v1.55H183.89c.16,2.27,1.48,3.6,3.6,3.6,1.94,0,2.77-.9,3-2H196c-.52,3.89-3.53,6.1-8.74,6.1C181.87,39.24,177.91,36.08,177.91,30.43Zm12.38-2.18c-.1-2.08-1.12-3.23-3-3.23s-3,1.15-3.3,3.23Z" fill="#fff"/><path d="M203.16,30.43v-.26c0-5.55,4.12-9,9.47-9S222,24.52,222,30v.27c0,5.61-4.13,9-9.44,9S203.16,36,203.16,30.43Zm12.87-.1v-.26c0-2.9-1.15-4.52-3.4-4.52S209.2,27.1,209.2,30v.27c0,3,1.15,4.58,3.43,4.58S216,33.21,216,30.33Z" fill="#fff"/><path d="M224.11,21.59H230v2.77a6.11,6.11,0,0,1,5.68-3.24c3.33,0,5.64,2.08,5.64,6.51V38.85h-5.91v-10c0-1.95-.76-2.91-2.47-2.91S230,27,230,29.18v9.67h-5.91Z" fill="#fff"/><path d="M249.29,30.43v-.26c0-5.55,4.13-9,9.47-9s9.41,3.4,9.41,8.88v.27c0,5.61-4.13,9-9.44,9S249.29,36,249.29,30.43Zm12.87-.1v-.26c0-2.9-1.15-4.52-3.4-4.52s-3.43,1.55-3.43,4.45v.27c0,3,1.16,4.58,3.43,4.58S262.16,33.21,262.16,30.33Z" fill="#fff"/><path d="M270.25,21.59h5.9v2.77a6.11,6.11,0,0,1,5.68-3.24c3.33,0,5.65,2.08,5.65,6.51V38.85h-5.91v-10c0-1.95-.76-2.91-2.48-2.91s-2.94,1.06-2.94,3.27v9.67h-5.9Z" fill="#fff"/><path d="M290.51,14h5.87V38.85h-5.87Z" fill="#fff"/><path d="M299.42,16.9a3.08,3.08,0,0,1,3.23-3.07,3.06,3.06,0,1,1,0,6.11A3.06,3.06,0,0,1,299.42,16.9Zm.29,4.69h5.91V38.85h-5.91Z" fill="#fff"/><path d="M308.79,21.59h5.91v2.77a6.09,6.09,0,0,1,5.67-3.24c3.34,0,5.65,2.08,5.65,6.51V38.85h-5.91v-10c0-1.95-.76-2.91-2.47-2.91S314.7,27,314.7,29.18v9.67h-5.91Z" fill="#fff"/><path d="M328,30.43v-.26c0-5.55,4.13-9,9.34-9,4.72,0,8.78,2.71,8.78,8.92v1.55H333.94c.16,2.27,1.48,3.6,3.59,3.6,2,0,2.78-.9,3-2h5.54c-.53,3.89-3.53,6.1-8.74,6.1C331.92,39.24,328,36.08,328,30.43Zm12.38-2.18c-.1-2.08-1.12-3.23-3-3.23s-3,1.15-3.3,3.23Z" fill="#fff"/><path d="M354.92,33.3V25.61h-2.08v-4h2.08V18h5.91v3.6h3.4v4h-3.4v7.13c0,1.26.63,1.82,1.75,1.82a4.42,4.42,0,0,0,1.68-.3v4.49a12.33,12.33,0,0,1-3.26.49C357.1,39.24,354.92,37.36,354.92,33.3Z" fill="#fff"/><path d="M365.55,34.06c0-4.06,3.43-5.64,9.17-5.64h1.65V28c0-1.65-.39-2.74-2.27-2.74a2.13,2.13,0,0,0-2.35,2h-5.54c.26-4.16,3.53-6.21,8.25-6.21s7.79,1.95,7.79,6.54V38.85h-5.74v-2a5.69,5.69,0,0,1-5.12,2.4C368.29,39.24,365.55,37.73,365.55,34.06Zm10.82-1.25V31.75h-1.55c-2.37,0-3.43.46-3.43,1.88,0,1,.66,1.62,2.05,1.62C375.12,35.25,376.37,34.29,376.37,32.81Z" fill="#fff"/><path d="M389.47,30.07l-5.38-8.48h6.8l2.68,4.55,2.6-4.55h6.08l-5.45,8,6,9.24H396l-3.07-5.15-3.14,5.15h-6Z" fill="#fff"/><path d="M410.43,21.59h5.91v2.57a6.09,6.09,0,0,1,5.38-3c4,0,7.29,3,7.29,9v.26c0,5.94-3.27,8.91-7.33,8.91a5.69,5.69,0,0,1-5.34-2.93v8.31h-5.91ZM423,30.33v-.26c0-3-1.32-4.49-3.4-4.49s-3.43,1.55-3.43,4.46v.26c0,2.94,1.29,4.42,3.43,4.42S423,33.17,423,30.33Z" fill="#fff"/><path d="M431.15,21.59h5.91V25a5.43,5.43,0,0,1,5.58-3.66v5.51c-3.6-.1-5.58,1-5.58,3.79v8.19h-5.91Z" fill="#fff"/><path d="M443.69,30.43v-.26c0-5.55,4.13-9,9.34-9,4.72,0,8.78,2.71,8.78,8.92v1.55H449.67c.16,2.27,1.48,3.6,3.59,3.6,1.95,0,2.78-.9,3-2h5.54c-.53,3.89-3.53,6.1-8.75,6.1C447.65,39.24,443.69,36.08,443.69,30.43Zm12.38-2.18C456,26.17,455,25,453,25s-3,1.15-3.3,3.23Z" fill="#fff"/><path d="M463.85,21.59h5.91v2.57a6.09,6.09,0,0,1,5.38-3c4,0,7.3,3,7.3,9v.26c0,5.94-3.27,8.91-7.33,8.91a5.7,5.7,0,0,1-5.35-2.93v8.31h-5.91Zm12.58,8.74v-.26c0-3-1.32-4.49-3.4-4.49S469.6,27.13,469.6,30v.26c0,2.94,1.28,4.42,3.43,4.42S476.43,33.17,476.43,30.33Z" fill="#fff"/><path d="M483.92,35.88a3.3,3.3,0,0,1,3.37-3.34,3.34,3.34,0,1,1,0,6.67A3.29,3.29,0,0,1,483.92,35.88Z" fill="#fff"/><path d="M120.76,66.36h6.43c.17,1.68.93,3.07,3.73,3.07,2,0,3-1,3-2.35s-.89-1.85-3.73-2.27c-6.67-.8-8.91-2.78-8.91-7.53,0-4.26,3.5-7.36,9.14-7.36s8.88,2.38,9.31,7.36H133.5a2.68,2.68,0,0,0-3-2.54c-1.81,0-2.74.82-2.74,2s.73,1.92,3.67,2.31c6,.66,9,2.21,9,7.33,0,4.32-3.43,7.86-9.51,7.86C124.32,74.25,121,71.47,120.76,66.36Z" fill="#fff"/><path d="M140.92,56.59h6.17l2.51,10.33,2.91-10.33h4.75l2.57,10.33,2.81-10.33h5.61l-5.48,17.26h-5.64l-2.58-9.64-2.67,9.64h-5.74Z" fill="#fff"/><path d="M169.63,51.9a3.26,3.26,0,1,1,3.24,3A3.09,3.09,0,0,1,169.63,51.9Zm.3,4.69h5.91V73.85h-5.91Z" fill="#fff"/><path d="M179.8,68.3V60.61h-2.08v-4h2.08V53h5.9v3.6h3.4v4h-3.4v7.13c0,1.26.63,1.82,1.75,1.82a4.5,4.5,0,0,0,1.69-.3v4.49a12.36,12.36,0,0,1-3.27.5C182,74.25,179.8,72.36,179.8,68.3Z" fill="#fff"/><path d="M190.42,65.43v-.26c0-5.74,4.13-9.05,9.21-9.05,4.22,0,8.12,1.85,8.45,7.1h-5.55c-.26-1.62-1.05-2.51-2.77-2.51-2.08,0-3.3,1.49-3.3,4.39v.27c0,3,1.16,4.55,3.4,4.55a2.87,2.87,0,0,0,3-2.87h5.32c-.17,4.36-3.1,7.2-8.68,7.2C194.35,74.25,190.42,71.24,190.42,65.43Z" fill="#fff"/><path d="M210.09,49H216V59.36a6.09,6.09,0,0,1,5.67-3.24c3.34,0,5.65,2.08,5.65,6.51V73.85h-5.91v-10c0-2-.76-2.91-2.48-2.91S216,62,216,64.18v9.67h-5.91Z" fill="#fff"/><path d="M237.08,60.61H234.9v-4h2.18V55.07c0-4.29,2.68-6.34,6.77-6.34a11,11,0,0,1,2.71.36v4.33a5.52,5.52,0,0,0-1.62-.23,1.73,1.73,0,0,0-2,1.88v1.52h3.5v4H243V73.85h-5.88Z" fill="#fff"/><path d="M248.43,56.59h5.91V60a5.44,5.44,0,0,1,5.58-3.66v5.51c-3.6-.1-5.58,1-5.58,3.79v8.19h-5.91Z" fill="#fff"/><path d="M261,65.43v-.26c0-5.55,4.13-9.05,9.48-9.05s9.4,3.4,9.4,8.88v.27c0,5.61-4.12,9-9.44,9S261,71,261,65.43Zm12.88-.1v-.26c0-2.9-1.16-4.52-3.4-4.52S267,62.1,267,65v.27c0,3,1.16,4.59,3.44,4.59S273.85,68.21,273.85,65.33Z" fill="#fff"/><path d="M281.93,56.59h5.91v2.64a6,6,0,0,1,5.41-3.11A4.72,4.72,0,0,1,297.94,59a6.83,6.83,0,0,1,5.71-2.88c3.26,0,5.64,2.12,5.64,6.44V73.85h-5.91V63.55c0-1.75-.86-2.61-2.21-2.61-1.58,0-2.64,1-2.64,2.91v10h-5.84V63.55c0-1.75-.86-2.61-2.21-2.61-1.59,0-2.64,1-2.64,2.91v10h-5.91Z" fill="#fff"/><path d="M323.21,55.46h-6.1V50.25h19v5.21H330V73.85h-6.8Z" fill="#fff"/><path d="M336.64,67.84V56.59h5.91V66.88c0,2,.76,2.91,2.44,2.91s2.94-1.06,2.94-3.27V56.59h5.91V73.85h-5.91V71.18a5.67,5.67,0,0,1-5.48,3.07C339.12,74.25,336.64,72.2,336.64,67.84Z" fill="#fff"/><path d="M356.84,56.59h5.91V60a5.43,5.43,0,0,1,5.57-3.66v5.51c-3.59-.1-5.57,1-5.57,3.79v8.19h-5.91Z" fill="#fff"/><path d="M376.38,71.18v2.67h-5.91V49h5.91V59.16a6.09,6.09,0,0,1,5.37-3c4,0,7.3,3,7.3,8.95v.26c0,5.94-3.27,8.92-7.33,8.92A5.6,5.6,0,0,1,376.38,71.18ZM383,65.33v-.26c0-3-1.32-4.49-3.4-4.49s-3.43,1.55-3.43,4.46v.26c0,2.94,1.29,4.42,3.43,4.42S383,68.17,383,65.33Z" fill="#fff"/><path d="M390.27,65.43v-.26c0-5.55,4.12-9.05,9.47-9.05s9.41,3.4,9.41,8.88v.27c0,5.61-4.13,9-9.44,9S390.27,71,390.27,65.43Zm12.87-.1v-.26c0-2.9-1.16-4.52-3.4-4.52s-3.43,1.55-3.43,4.45v.27c0,3,1.15,4.59,3.43,4.59S403.14,68.21,403.14,65.33Z" fill="#fff"/><path d="M416.27,55.46h-6.1V50.25h19v5.21h-6.11V73.85h-6.8Z" fill="#fff"/><path d="M428,69.06c0-4.06,3.43-5.64,9.17-5.64h1.65V63c0-1.65-.39-2.74-2.28-2.74a2.12,2.12,0,0,0-2.34,2h-5.54c.26-4.16,3.53-6.21,8.25-6.21s7.79,2,7.79,6.54V73.85h-5.75v-2a5.65,5.65,0,0,1-5.11,2.42C430.73,74.25,428,72.73,428,69.06Zm10.82-1.25V66.75h-1.55c-2.38,0-3.43.46-3.43,1.88,0,1,.66,1.62,2,1.62C437.56,70.25,438.81,69.29,438.81,67.81Z" fill="#fff"/><path d="M451.91,65.07l-5.38-8.48h6.8L456,61.14l2.61-4.55h6.07l-5.44,8,6,9.24h-6.8l-3.07-5.15-3.13,5.15h-6Z" fill="#fff"/><path d="M466.4,70.88a3.29,3.29,0,0,1,3.36-3.34,3.34,3.34,0,1,1,0,6.67A3.29,3.29,0,0,1,466.4,70.88Z" fill="#fff"/></g></g></svg>