<svg xmlns="http://www.w3.org/2000/svg" viewBox="0 0 728 90"><title>Asset 5</title><g id="Layer_2" data-name="Layer 2"><g id="Rect"><rect width="728" height="90" fill="none"/></g><g id="Still_open._Still_here_to_help." data-name="Still open. Still here to help."><path d="M116.8,50.12h6.75c.18,1.77,1,3.22,3.92,3.22,2,0,3.19-1,3.19-2.46s-.94-1.94-3.92-2.39c-7-.83-9.35-2.91-9.35-7.9,0-4.47,3.67-7.72,9.59-7.72s9.33,2.49,9.78,7.72h-6.59A2.81,2.81,0,0,0,127,37.92c-1.9,0-2.87.87-2.87,2.12s.76,2,3.85,2.42c6.27.7,9.49,2.33,9.49,7.7,0,4.54-3.6,8.24-10,8.24C120.54,58.4,117,55.49,116.8,50.12Z" fill="#fff"/><path d="M140.56,52.17V44.09h-2.18V39.86h2.18V36.09h6.21v3.77h3.57v4.23h-3.57v7.49a1.65,1.65,0,0,0,1.83,1.9,4.66,4.66,0,0,0,1.77-.31v4.71a12.91,12.91,0,0,1-3.43.52C142.85,58.4,140.56,56.43,140.56,52.17Z" fill="#fff"/><path d="M152.55,34.94a3.42,3.42,0,1,1,3.4,3.19A3.24,3.24,0,0,1,152.55,34.94Zm.31,4.92h6.21V58h-6.21Z" fill="#fff"/><path d="M162.56,31.9h6.17V58h-6.17Z" fill="#fff"/><path d="M172.23,31.9h6.17V58h-6.17Z" fill="#fff"/><path d="M187.06,49.15v-.27c0-5.83,4.33-9.5,9.94-9.5s9.88,3.57,9.88,9.32V49c0,5.89-4.33,9.42-9.91,9.42S187.06,55,187.06,49.15Zm13.51-.1v-.28c0-3.05-1.21-4.75-3.57-4.75s-3.6,1.63-3.6,4.68V49c0,3.12,1.21,4.81,3.6,4.81S200.57,52.06,200.57,49.05Z" fill="#fff"/><path d="M209.06,39.86h6.2v2.71a6.38,6.38,0,0,1,5.65-3.19c4.23,0,7.66,3.19,7.66,9.39v.28c0,6.24-3.43,9.35-7.69,9.35a6,6,0,0,1-5.62-3.08v8.73h-6.2Zm13.2,9.19v-.28c0-3.19-1.38-4.71-3.57-4.71s-3.6,1.63-3.6,4.68V49c0,3.09,1.35,4.65,3.6,4.65S222.26,52,222.26,49.05Z" fill="#fff"/><path d="M229.85,49.15v-.27c0-5.83,4.33-9.5,9.8-9.5,5,0,9.22,2.84,9.22,9.36v1.62H236.12c.17,2.4,1.56,3.78,3.77,3.78,2.05,0,2.92-.93,3.16-2.15h5.82c-.55,4.09-3.71,6.41-9.18,6.41C234,58.4,229.85,55.08,229.85,49.15Zm13-2.28c-.1-2.19-1.18-3.4-3.19-3.4s-3.15,1.21-3.46,3.4Z" fill="#fff"/><path d="M251,39.86h6.21v2.92a6.38,6.38,0,0,1,6-3.4c3.5,0,5.92,2.18,5.92,6.83V58h-6.2V47.45c0-2-.8-3.05-2.6-3.05s-3.08,1.11-3.08,3.43V58H251Z" fill="#fff"/><path d="M271.87,54.87a3.46,3.46,0,0,1,3.54-3.5,3.5,3.5,0,1,1,0,7A3.46,3.46,0,0,1,271.87,54.87Z" fill="#fff"/><path d="M287.22,50.12H294c.17,1.77,1,3.22,3.91,3.22,2.05,0,3.19-1,3.19-2.46s-.94-1.94-3.92-2.39c-7-.83-9.35-2.91-9.35-7.9,0-4.47,3.67-7.72,9.6-7.72s9.32,2.49,9.77,7.72h-6.59a2.81,2.81,0,0,0-3.18-2.67c-1.91,0-2.88.87-2.88,2.12s.76,2,3.85,2.42c6.27.7,9.49,2.33,9.49,7.7,0,4.54-3.6,8.24-10,8.24C291,58.4,287.43,55.49,287.22,50.12Z" fill="#fff"/><path d="M311,52.17V44.09H308.8V39.86H311V36.09h6.2v3.77h3.57v4.23h-3.57v7.49a1.65,1.65,0,0,0,1.84,1.9,4.64,4.64,0,0,0,1.76-.31v4.71a12.84,12.84,0,0,1-3.43.52C313.27,58.4,311,56.43,311,52.17Z" fill="#fff"/><path d="M323,34.94a3.42,3.42,0,1,1,3.4,3.19A3.24,3.24,0,0,1,323,34.94Zm.31,4.92h6.21V58h-6.21Z" fill="#fff"/><path d="M333,31.9h6.16V58H333Z" fill="#fff"/><path d="M342.65,31.9h6.17V58h-6.17Z" fill="#fff"/><path d="M358.45,31.9h6.2V42.78a6.39,6.39,0,0,1,6-3.4c3.5,0,5.93,2.18,5.93,6.83V58h-6.2V47.45c0-2-.8-3.05-2.6-3.05s-3.09,1.11-3.09,3.43V58h-6.2Z" fill="#fff"/><path d="M378.58,49.15v-.27c0-5.83,4.33-9.5,9.81-9.5,4.95,0,9.21,2.84,9.21,9.36v1.62H384.85c.17,2.4,1.56,3.78,3.78,3.78,2,0,2.91-.93,3.15-2.15h5.82c-.55,4.09-3.7,6.41-9.18,6.41C382.74,58.4,378.58,55.08,378.58,49.15Zm13-2.28c-.1-2.19-1.17-3.4-3.18-3.4s-3.16,1.21-3.47,3.4Z" fill="#fff"/><path d="M399.75,39.86H406v3.61a5.72,5.72,0,0,1,5.86-3.85v5.79c-3.78-.1-5.86,1.07-5.86,4V58h-6.2Z" fill="#fff"/><path d="M412.91,49.15v-.27c0-5.83,4.34-9.5,9.81-9.5,4.95,0,9.22,2.84,9.22,9.36v1.62H419.19c.17,2.4,1.56,3.78,3.77,3.78,2.05,0,2.91-.93,3.16-2.15h5.82c-.56,4.09-3.71,6.41-9.19,6.41C417.07,58.4,412.91,55.08,412.91,49.15Zm13-2.28c-.11-2.19-1.18-3.4-3.19-3.4s-3.15,1.21-3.47,3.4Z" fill="#fff"/><path d="M441.22,52.17V44.09H439V39.86h2.18V36.09h6.2v3.77H451v4.23h-3.57v7.49a1.65,1.65,0,0,0,1.84,1.9,4.64,4.64,0,0,0,1.76-.31v4.71a12.84,12.84,0,0,1-3.43.52C443.5,58.4,441.22,56.43,441.22,52.17Z" fill="#fff"/><path d="M452.37,49.15v-.27c0-5.83,4.34-9.5,9.95-9.5S472.2,43,472.2,48.7V49c0,5.89-4.34,9.42-9.91,9.42S452.37,55,452.37,49.15Zm13.52-.1v-.28c0-3.05-1.21-4.75-3.57-4.75s-3.6,1.63-3.6,4.68V49c0,3.12,1.21,4.81,3.6,4.81S465.89,52.06,465.89,49.05Z" fill="#fff"/><path d="M480.68,31.9h6.2V42.78a6.39,6.39,0,0,1,6-3.4c3.5,0,5.93,2.18,5.93,6.83V58h-6.2V47.45c0-2-.8-3.05-2.6-3.05s-3.09,1.11-3.09,3.43V58h-6.2Z" fill="#fff"/><path d="M500.81,49.15v-.27c0-5.83,4.33-9.5,9.81-9.5,5,0,9.21,2.84,9.21,9.36v1.62H507.08c.17,2.4,1.56,3.78,3.78,3.78,2,0,2.91-.93,3.15-2.15h5.82c-.55,4.09-3.7,6.41-9.18,6.41C505,58.4,500.81,55.08,500.81,49.15Zm13-2.28c-.1-2.19-1.17-3.4-3.18-3.4s-3.16,1.21-3.47,3.4Z" fill="#fff"/><path d="M522.15,31.9h6.17V58h-6.17Z" fill="#fff"/><path d="M531.64,39.86h6.21v2.71a6.38,6.38,0,0,1,5.64-3.19c4.23,0,7.66,3.19,7.66,9.39v.28c0,6.24-3.43,9.35-7.69,9.35a6,6,0,0,1-5.61-3.08v8.73h-6.21Zm13.21,9.19v-.28c0-3.19-1.39-4.71-3.57-4.71s-3.61,1.63-3.61,4.68V49c0,3.09,1.35,4.65,3.61,4.65S544.85,52,544.85,49.05Z" fill="#fff"/><path d="M552.71,54.87a3.45,3.45,0,0,1,3.53-3.5,3.5,3.5,0,1,1,0,7A3.45,3.45,0,0,1,552.71,54.87Z" fill="#fff"/></g></g></svg>