<svg xmlns="http://www.w3.org/2000/svg" viewBox="0 0 160 600"><title>H3</title><g id="Layer_2" data-name="Layer 2"><g id="Rect"><rect width="160" height="600" fill="none"/></g><g id="H3"><g id="You_could_get_a_Refund_Advance_loan_up_to_3_500._Starting_Jan" data-name="You could get a Refund Advance loan up to $3,500. Starting Jan"><path d="M26.71,50.4,20.22,39h6.21l3.37,6.71L33.17,39h5.46L32.45,50.4v8.52H26.71Z" fill="#fff"/><path d="M36.54,51.82v-.23c0-4.67,3.48-7.63,8-7.63s7.93,2.87,7.93,7.5v.22c0,4.73-3.48,7.57-8,7.57S36.54,56.52,36.54,51.82Zm10.86-.09v-.22c0-2.45-1-3.81-2.86-3.81s-2.9,1.3-2.9,3.76v.22c0,2.5,1,3.87,2.9,3.87S47.4,54.16,47.4,51.73Z" fill="#fff"/><path d="M54.12,53.85v-9.5h5V53c0,1.65.64,2.45,2.06,2.45s2.48-.89,2.48-2.75V44.35h5V58.92h-5V56.66A4.77,4.77,0,0,1,59,59.25C56.2,59.25,54.12,57.53,54.12,53.85Z" fill="#fff"/><path d="M20.7,84.67v-.23c0-4.84,3.48-7.63,7.77-7.63,3.56,0,6.85,1.56,7.12,6H30.92a2.16,2.16,0,0,0-2.34-2.11c-1.76,0-2.79,1.25-2.79,3.7v.22c0,2.54,1,3.84,2.87,3.84A2.42,2.42,0,0,0,31.19,86h4.49c-.14,3.68-2.62,6.07-7.33,6.07C24,92.1,20.7,89.57,20.7,84.67Z" fill="#fff"/><path d="M36.51,84.67v-.23c0-4.67,3.49-7.63,8-7.63s7.93,2.87,7.93,7.5v.22c0,4.73-3.48,7.57-8,7.57S36.51,89.37,36.51,84.67Zm10.87-.09v-.22c0-2.45-1-3.81-2.87-3.81s-2.9,1.3-2.9,3.76v.22c0,2.5,1,3.87,2.9,3.87S47.38,87,47.38,84.58Z" fill="#fff"/><path d="M54.09,86.7V77.2h5v8.69c0,1.65.64,2.45,2.06,2.45s2.48-.89,2.48-2.75V77.2h5V91.77h-5V89.51A4.77,4.77,0,0,1,59,92.1C56.18,92.1,54.09,90.38,54.09,86.7Z" fill="#fff"/><path d="M71.27,70.8h5v21h-5Z" fill="#fff"/><path d="M78.18,84.64v-.22c0-5,2.73-7.61,6.18-7.61a4.72,4.72,0,0,1,4.48,2.45V70.8h5v21h-5V89.4a4.91,4.91,0,0,1-4.54,2.7C80.93,92.1,78.18,89.68,78.18,84.64ZM89,84.56v-.23c0-2.45-1-3.76-2.87-3.76s-2.86,1.26-2.86,3.79v.22c0,2.45,1.08,3.71,2.81,3.71S89,87,89,84.56Z" fill="#fff"/><path d="M20.67,124.62h4.95c.23,1.06.87,1.89,2.68,1.89a2.75,2.75,0,0,0,3.09-3.06v-2.23a5.11,5.11,0,0,1-4.51,2.67c-3.4,0-6.18-2.5-6.18-7v-.22c0-4.29,2.75-7,6.18-7a4.75,4.75,0,0,1,4.51,2.45v-2.06h5v13.34c0,4.35-2.86,6.63-8.07,6.63C23.34,130,21.06,127.93,20.67,124.62Zm10.86-7.74v-.2c0-2-1-3.28-2.87-3.28s-2.87,1.3-2.87,3.31v.22c0,2,1.06,3.29,2.84,3.29S31.53,118.94,31.53,116.88Z" fill="#fff"/><path d="M38.13,117.52v-.23c0-4.67,3.48-7.63,7.88-7.63,4,0,7.41,2.29,7.41,7.52v1.31H43.17a2.91,2.91,0,0,0,3,3c1.64,0,2.33-.76,2.53-1.73h4.68C53,123.09,50.44,125,46,125,41.47,125,38.13,122.28,38.13,117.52Zm10.44-1.84c-.08-1.76-.94-2.73-2.56-2.73s-2.53,1-2.78,2.73Z" fill="#fff"/><path d="M55.81,119.94v-6.49H54.06v-3.4h1.75v-3h5v3h2.87v3.4H60.8v6A1.33,1.33,0,0,0,62.27,121a4,4,0,0,0,1.43-.25v3.78a10.41,10.41,0,0,1-2.76.42C57.65,125,55.81,123.36,55.81,119.94Z" fill="#fff"/><path d="M69.79,120.58c0-3.43,2.9-4.76,7.75-4.76h1.39v-.34c0-1.39-.34-2.31-1.92-2.31a1.79,1.79,0,0,0-2,1.73H70.35c.22-3.51,3-5.24,7-5.24s6.58,1.65,6.58,5.52v9.44H79v-1.7a4.79,4.79,0,0,1-4.32,2C72.11,125,69.79,123.67,69.79,120.58Zm9.14-1.06v-.89H77.62c-2,0-2.9.39-2.9,1.59,0,.83.56,1.36,1.73,1.36A2.2,2.2,0,0,0,78.93,119.52Z" fill="#fff"/><path d="M21.92,137.56h7.8c5.21,0,8.1,2.11,8.1,6.32V144a5.21,5.21,0,0,1-3.59,5.24L39,157.47H33l-4-7.13H27.6v7.13H21.92Zm7.52,9.08c1.92,0,2.87-.81,2.87-2.43v-.11c0-1.61-1-2.25-2.84-2.25H27.6v4.79Z" fill="#fff"/><path d="M39,150.37v-.23c0-4.67,3.48-7.63,7.88-7.63,4,0,7.41,2.29,7.41,7.52v1.31H44a2.92,2.92,0,0,0,3,3c1.64,0,2.34-.76,2.53-1.73h4.68c-.44,3.29-3,5.15-7.38,5.15C42.34,157.8,39,155.13,39,150.37Zm10.45-1.84c-.09-1.76-.95-2.73-2.57-2.73s-2.53,1-2.78,2.73Z" fill="#fff"/><path d="M56.76,146.3H54.92v-3.4h1.84v-1.28c0-3.62,2.26-5.34,5.71-5.34a9.14,9.14,0,0,1,2.28.3v3.65a4.58,4.58,0,0,0-1.36-.19,1.46,1.46,0,0,0-1.67,1.58v1.28h3v3.4h-3v11.17h-5Z" fill="#fff"/><path d="M66.23,152.4v-9.5h5v8.69c0,1.65.65,2.45,2.07,2.45s2.47-.89,2.47-2.75V142.9h5v14.57h-5v-2.26a4.77,4.77,0,0,1-4.62,2.59C68.32,157.8,66.23,156.08,66.23,152.4Z" fill="#fff"/><path d="M83.27,142.9h5v2.34a5.15,5.15,0,0,1,4.79-2.73c2.81,0,4.76,1.76,4.76,5.49v9.47h-5V149c0-1.64-.64-2.45-2.09-2.45s-2.48.89-2.48,2.76v8.16h-5Z" fill="#fff"/><path d="M99.51,150.34v-.22c0-5,2.73-7.61,6.18-7.61a4.74,4.74,0,0,1,4.49,2.45V136.5h5v21h-5V155.1a4.92,4.92,0,0,1-4.54,2.7C102.27,157.8,99.51,155.38,99.51,150.34Zm10.81-.08V150c0-2.45-1-3.76-2.87-3.76s-2.87,1.26-2.87,3.79v.22c0,2.45,1.09,3.71,2.81,3.71S110.32,152.73,110.32,150.26Z" fill="#fff"/><path d="M26.74,170.41h7.38l6.32,19.91h-6l-1.06-3.71h-6.6l-1.06,3.71H20.36Zm1.11,12.28h4.38L30.05,175Z" fill="#fff"/><path d="M40.78,183.19V183c0-5,2.73-7.61,6.18-7.61a4.72,4.72,0,0,1,4.48,2.45v-8.46h5v21h-5V188a4.91,4.91,0,0,1-4.54,2.7C43.53,190.65,40.78,188.23,40.78,183.19Zm10.8-.08v-.23c0-2.45-1-3.76-2.87-3.76s-2.87,1.26-2.87,3.79v.22c0,2.45,1.09,3.71,2.82,3.71S51.58,185.58,51.58,183.11Z" fill="#fff"/><path d="M57.71,175.75H63l3,9.39,3-9.39H73.8l-5.31,14.57H63.06Z" fill="#fff"/><path d="M73.61,186.28c0-3.43,2.9-4.76,7.74-4.76h1.4v-.34c0-1.39-.34-2.31-1.93-2.31a1.79,1.79,0,0,0-2,1.73H74.17c.22-3.51,3-5.24,7-5.24s6.57,1.65,6.57,5.52v9.44H82.86v-1.7a4.79,4.79,0,0,1-4.32,2C75.92,190.65,73.61,189.37,73.61,186.28Zm9.14-1.06v-.89H81.44c-2,0-2.9.39-2.9,1.59,0,.83.56,1.36,1.73,1.36C81.69,187.28,82.75,186.48,82.75,185.22Z" fill="#fff"/><path d="M90.13,175.75h5v2.34a5.15,5.15,0,0,1,4.79-2.73c2.81,0,4.76,1.76,4.76,5.49v9.47h-5v-8.47c0-1.64-.64-2.45-2.09-2.45s-2.48.89-2.48,2.76v8.16h-5Z" fill="#fff"/><path d="M106.31,183.22V183c0-4.84,3.48-7.63,7.77-7.63,3.56,0,6.85,1.56,7.13,6h-4.68a2.16,2.16,0,0,0-2.34-2.12c-1.76,0-2.79,1.26-2.79,3.71v.22c0,2.54,1,3.84,2.87,3.84a2.42,2.42,0,0,0,2.53-2.42h4.49c-.14,3.68-2.62,6.07-7.33,6.07C109.62,190.65,106.31,188.12,106.31,183.22Z" fill="#fff"/><path d="M122.12,183.22V183c0-4.67,3.49-7.63,7.89-7.63,4,0,7.4,2.29,7.4,7.52v1.31H127.17a2.9,2.9,0,0,0,3,3c1.64,0,2.34-.75,2.54-1.73h4.67c-.44,3.29-3,5.15-7.38,5.15C125.47,190.65,122.12,188,122.12,183.22Zm10.45-1.84c-.09-1.76-.95-2.73-2.56-2.73s-2.54,1-2.79,2.73Z" fill="#fff"/><path d="M21.62,202.2h4.95v21H21.62Z" fill="#fff"/><path d="M28.47,216.07v-.23c0-4.67,3.48-7.63,8-7.63s7.93,2.87,7.93,7.5v.22c0,4.73-3.48,7.57-8,7.57S28.47,220.77,28.47,216.07ZM39.33,216v-.22c0-2.45-1-3.81-2.87-3.81s-2.9,1.3-2.9,3.76v.22c0,2.5,1,3.87,2.9,3.87S39.33,218.41,39.33,216Z" fill="#fff"/><path d="M45.31,219.13c0-3.42,2.9-4.76,7.75-4.76h1.39V214c0-1.39-.34-2.31-1.92-2.31a1.79,1.79,0,0,0-2,1.73H45.87c.22-3.51,3-5.24,7-5.24s6.58,1.65,6.58,5.52v9.44H54.56v-1.7a4.79,4.79,0,0,1-4.32,2C47.63,223.5,45.31,222.22,45.31,219.13Zm9.14-1.06v-.89H53.14c-2,0-2.9.39-2.9,1.59,0,.83.56,1.36,1.73,1.36C53.39,220.13,54.45,219.33,54.45,218.07Z" fill="#fff"/><path d="M61.83,208.6h5v2.34a5.15,5.15,0,0,1,4.79-2.73c2.82,0,4.77,1.76,4.77,5.49v9.47h-5V214.7c0-1.64-.64-2.45-2.09-2.45s-2.48.89-2.48,2.76v8.16h-5Z" fill="#fff"/><path d="M21.36,251v-9.5h5v8.69c0,1.65.64,2.45,2.06,2.45s2.48-.89,2.48-2.75v-8.39h5V256h-5v-2.26a4.77,4.77,0,0,1-4.62,2.59C23.45,256.35,21.36,254.63,21.36,251Z" fill="#fff"/><path d="M38.41,241.45h5v2.18a5.14,5.14,0,0,1,4.54-2.57c3.4,0,6.16,2.57,6.16,7.55v.22c0,5-2.76,7.52-6.19,7.52a4.81,4.81,0,0,1-4.51-2.48v7h-5ZM49,248.83v-.22c0-2.56-1.12-3.79-2.87-3.79s-2.9,1.31-2.9,3.76v.23c0,2.47,1.09,3.73,2.9,3.73S49,251.23,49,248.83Z" fill="#fff"/><path d="M61.63,251.34v-6.49H59.88v-3.4h1.75v-3h5v3h2.87v3.4H66.62v6a1.33,1.33,0,0,0,1.48,1.53,4,4,0,0,0,1.42-.25v3.78a10.34,10.34,0,0,1-2.76.42C63.47,256.35,61.63,254.77,61.63,251.34Z" fill="#fff"/><path d="M70.6,248.92v-.23c0-4.67,3.48-7.63,8-7.63s7.94,2.87,7.94,7.5v.22c0,4.73-3.48,7.57-8,7.57S70.6,253.62,70.6,248.92Zm10.86-.09v-.22c0-2.45-1-3.81-2.87-3.81s-2.89,1.3-2.89,3.76v.22c0,2.5,1,3.87,2.89,3.87S81.46,251.26,81.46,248.83Z" fill="#fff"/><path d="M24.68,279.76c-2.81-.2-4.18-1.69-4.29-3.84h3a1.54,1.54,0,0,0,1.29,1.53v-2.37c-2.83-.41-4-1.43-4-3.68,0-2,1.54-3.38,4-3.56v-1.45h1.26v1.47c2.36.19,3.75,1.28,3.95,3.5H27a1.29,1.29,0,0,0-1-1.21v2.24c2.49.35,4.11,1.2,4.11,3.55,0,2-1.28,3.64-4.11,3.82v2H24.68Zm0-7.57v-2.08c-.73.13-1.11.52-1.11,1S23.8,272,24.68,272.19Zm1.26,3.1v2.16c.72-.15,1.09-.57,1.09-1.15S26.8,275.49,25.94,275.29Z" fill="#fff"/><path d="M31,282.32h5.07c.17,1.65,1,2.76,2.92,2.76,1.76,0,2.62-.83,2.62-2.25s-.83-2.34-2.62-2.34H37.45V277h1.47c1.78,0,2.65-.81,2.65-2.2,0-1.2-.78-2-2.29-2a2.54,2.54,0,0,0-2.64,2.54h-5c.25-3.93,2.87-6.63,7.82-6.63,4.68,0,7.49,2.14,7.49,5.46a4.26,4.26,0,0,1-3.37,4.29,4.48,4.48,0,0,1,3.88,4.51c0,3.78-2.82,6.26-8.08,6.26C33.8,289.2,31.21,286.64,31,282.32Z" fill="#fff"/><path d="M47.89,291.12l2.34-7.32,4.62,1.64-4,6.83Z" fill="#fff"/><path d="M55.77,282.6H61a2.28,2.28,0,0,0,2.59,2.31c1.64,0,2.4-1.22,2.4-2.81a2.53,2.53,0,0,0-2.7-2.84A4.07,4.07,0,0,0,60,280.68h-3.4L57,269H70.39v4.17h-9.3l-.11,4.4a5.31,5.31,0,0,1,4.65-2.11c3.65,0,6,2.45,6,6.76s-3,7-8.07,7C58.31,289.2,55.91,286.33,55.77,282.6Z" fill="#fff"/><path d="M73.07,279.34v-.83c0-6.29,3.92-9.83,9.19-9.83s9.19,3.26,9.19,9.72v.78c0,6.32-3.62,10-9.3,10S73.07,285.61,73.07,279.34Zm12.67,0v-.81c0-3.65-1.06-5.48-3.48-5.48s-3.48,1.81-3.48,5.48v.84c0,3.7,1.08,5.45,3.53,5.45S85.74,283,85.74,279.29Z" fill="#fff"/><path d="M93,279.34v-.83c0-6.29,3.92-9.83,9.19-9.83s9.19,3.26,9.19,9.72v.78c0,6.32-3.63,10-9.31,10S93,285.61,93,279.34Zm12.67,0v-.81c0-3.65-1.06-5.48-3.48-5.48s-3.49,1.81-3.49,5.48v.84c0,3.7,1.09,5.45,3.54,5.45S105.71,283,105.71,279.29Z" fill="#fff"/><path d="M111.89,286.36a2.78,2.78,0,0,1,2.84-2.81,2.81,2.81,0,1,1,0,5.62A2.78,2.78,0,0,1,111.89,286.36Z" fill="#fff"/><path d="M20.64,315.4h5.43c.14,1.42.78,2.59,3.15,2.59,1.64,0,2.56-.81,2.56-2s-.75-1.56-3.15-1.92c-5.62-.67-7.52-2.34-7.52-6.35,0-3.59,3-6.21,7.72-6.21s7.49,2,7.85,6.21H31.39a2.27,2.27,0,0,0-2.56-2.15c-1.53,0-2.31.7-2.31,1.7s.61,1.62,3.09,1.95c5,.56,7.63,1.87,7.63,6.18,0,3.65-2.9,6.63-8,6.63C23.65,322.05,20.81,319.71,20.64,315.4Z" fill="#fff"/><path d="M39.75,317v-6.49H38v-3.4h1.76v-3h5v3H47.6v3.4H44.73v6a1.33,1.33,0,0,0,1.48,1.53,4,4,0,0,0,1.42-.25v3.78a10.34,10.34,0,0,1-2.76.42C41.58,322.05,39.75,320.46,39.75,317Z" fill="#fff"/><path d="M48.71,317.68c0-3.43,2.9-4.76,7.74-4.76h1.4v-.34c0-1.39-.34-2.31-1.92-2.31A1.79,1.79,0,0,0,54,312H49.27c.22-3.51,3-5.24,7-5.24s6.57,1.65,6.57,5.52v9.44H58V320a4.79,4.79,0,0,1-4.32,2C51,322.05,48.71,320.77,48.71,317.68Zm9.14-1.06v-.89H56.54c-2,0-2.9.39-2.9,1.59,0,.83.56,1.36,1.73,1.36C56.79,318.68,57.85,317.88,57.85,316.62Z" fill="#fff"/><path d="M65.23,307.15h5v2.9A4.59,4.59,0,0,1,74.92,307v4.65c-3-.08-4.71.86-4.71,3.2v6.91h-5Z" fill="#fff"/><path d="M77.62,317v-6.49H75.87v-3.4h1.75v-3h5v3h2.87v3.4H82.6v6a1.33,1.33,0,0,0,1.48,1.53,3.91,3.91,0,0,0,1.42-.25v3.78a10.34,10.34,0,0,1-2.76.42C79.46,322.05,77.62,320.46,77.62,317Z" fill="#fff"/><path d="M87.26,303.2A2.75,2.75,0,1,1,90,305.76,2.6,2.6,0,0,1,87.26,303.2Zm.25,3.95h5v14.57h-5Z" fill="#fff"/><path d="M95.17,307.15h5v2.34a5.15,5.15,0,0,1,4.79-2.73c2.81,0,4.76,1.76,4.76,5.49v9.47h-5v-8.47c0-1.64-.64-2.45-2.09-2.45s-2.48.89-2.48,2.76v8.16h-5Z" fill="#fff"/><path d="M111.32,321.72h5c.22,1.06.86,1.89,2.67,1.89a2.75,2.75,0,0,0,3.09-3.06v-2.23a5.11,5.11,0,0,1-4.51,2.67c-3.4,0-6.18-2.5-6.18-7v-.22c0-4.29,2.75-7,6.18-7a4.75,4.75,0,0,1,4.51,2.45v-2.06h5v13.34c0,4.35-2.86,6.63-8.07,6.63C114,327.12,111.71,325,111.32,321.72ZM122.18,314v-.2c0-2-1-3.28-2.87-3.28s-2.87,1.3-2.87,3.31V314c0,2,1.06,3.29,2.84,3.29S122.18,316,122.18,314Z" fill="#fff"/><path d="M20.92,354.15v-4.26a6.8,6.8,0,0,0,2.42.39c1.56,0,2.59-.7,2.59-2.76V334.66h5.74v12.92c0,4.79-2.45,7.24-7.13,7.24A7.65,7.65,0,0,1,20.92,354.15Z" fill="#fff"/><path d="M33.26,350.53c0-3.42,2.89-4.76,7.74-4.76h1.39v-.34c0-1.39-.33-2.31-1.92-2.31a1.79,1.79,0,0,0-2,1.73H33.81c.23-3.51,3-5.24,7-5.24s6.57,1.65,6.57,5.52v9.44H42.5v-1.7a4.77,4.77,0,0,1-4.31,2C35.57,354.9,33.26,353.62,33.26,350.53Zm9.13-1.06v-.89H41.08c-2,0-2.89.39-2.89,1.59,0,.83.55,1.36,1.72,1.36C41.33,351.53,42.39,350.73,42.39,349.47Z" fill="#fff"/><path d="M49.77,340h5v2.34a5.14,5.14,0,0,1,4.79-2.73c2.81,0,4.76,1.76,4.76,5.49v9.47h-5V346.1c0-1.64-.64-2.45-2.09-2.45s-2.47.89-2.47,2.76v8.16h-5Z" fill="#fff"/><path d="M80.52,350.75H70.83v-2.14l8.29-13.95H86v12.17h2.56v3.92H86v3.82H80.52Zm.14-3.92V339l-4.46,7.88Z" fill="#fff"/><path d="M89.79,352.06a2.78,2.78,0,0,1,2.84-2.81,2.81,2.81,0,1,1,0,5.62A2.78,2.78,0,0,1,89.79,352.06Z" fill="#fff"/></g></g><g id="legal"><g id="Optional_loan_from_Axos_Bank_within_minutes_of_filing._Not_your" data-name="Optional loan from Axos Bank within minutes of filing. Not your"><path d="M20.5,397.78v-.07a3.16,3.16,0,1,1,6.31,0v.07a3.16,3.16,0,1,1-6.31,0Zm5.5,0v-.07a2.36,2.36,0,1,0-4.69,0v.07a2.42,2.42,0,0,0,2.37,2.62A2.35,2.35,0,0,0,26,397.75Z" fill="#fff"/><path d="M27.92,396.25h.75V397a1.93,1.93,0,0,1,1.59-.87,2.14,2.14,0,0,1,2.14,2.37v.07A2.17,2.17,0,0,1,30.26,401a1.78,1.78,0,0,1-1.59-.86v2.42h-.75Zm3.71,2.39v-.07c0-1.19-.66-1.78-1.45-1.78s-1.54.58-1.54,1.78v.07c0,1.21.63,1.78,1.55,1.78S31.63,399.79,31.63,398.64Z" fill="#fff"/><path d="M33.59,399.78v-2.9h-.67v-.63h.67v-1.07h.75v1.07h1.1v.63h-1.1v2.83c0,.46.2.68.58.68a1.59,1.59,0,0,0,.58-.1v.63a1.85,1.85,0,0,1-.64.1A1.14,1.14,0,0,1,33.59,399.78Z" fill="#fff"/><path d="M36.37,394.77a.5.5,0,0,1,.5-.49.49.49,0,0,1,.49.49.5.5,0,0,1-.49.5A.51.51,0,0,1,36.37,394.77Zm.14,1.48h.74V401h-.74Z" fill="#fff"/><path d="M38.3,398.64v-.07a2.31,2.31,0,1,1,4.62,0v.07a2.31,2.31,0,1,1-4.62,0Zm3.85,0v-.06c0-1.09-.6-1.79-1.54-1.79a1.56,1.56,0,0,0-1.54,1.78v.07c0,1.07.59,1.78,1.54,1.78S42.15,399.71,42.15,398.64Z" fill="#fff"/><path d="M44,396.25h.75V397a1.59,1.59,0,0,1,1.51-.83c1,0,1.66.53,1.66,1.9V401h-.75V398c0-.83-.35-1.19-1.11-1.19a1.23,1.23,0,0,0-1.31,1.28V401H44Z" fill="#fff"/><path d="M48.81,399.65c0-1.09,1.15-1.46,2.36-1.46h.67v-.34c0-.75-.29-1.06-1-1.06s-1,.27-1.08.84H49a1.64,1.64,0,0,1,1.86-1.46,1.52,1.52,0,0,1,1.72,1.68V401h-.75v-.6a1.69,1.69,0,0,1-1.46.68C49.5,401,48.81,400.62,48.81,399.65Zm3-.34v-.59h-.65c-.94,0-1.63.24-1.63.93,0,.49.23.79.89.79S51.84,400,51.84,399.31Z" fill="#fff"/><path d="M53.94,394h.75v7h-.75Z" fill="#fff"/><path d="M58.36,394h.75v7h-.75Z" fill="#fff"/><path d="M60.16,398.64v-.07a2.32,2.32,0,1,1,4.63,0v.07a2.32,2.32,0,1,1-4.63,0Zm3.85,0v-.06c0-1.09-.6-1.79-1.54-1.79a1.56,1.56,0,0,0-1.54,1.78v.07c0,1.07.59,1.78,1.54,1.78S64,399.71,64,398.64Z" fill="#fff"/><path d="M65.42,399.65c0-1.09,1.15-1.46,2.36-1.46h.68v-.34c0-.75-.29-1.06-1-1.06s-1,.27-1.08.84h-.75a1.64,1.64,0,0,1,1.86-1.46,1.52,1.52,0,0,1,1.72,1.68V401h-.74v-.6A1.71,1.71,0,0,1,67,401C66.12,401,65.42,400.62,65.42,399.65Zm3-.34v-.59h-.65c-1,0-1.64.24-1.64.93,0,.49.23.79.89.79S68.46,400,68.46,399.31Z" fill="#fff"/><path d="M70.53,396.25h.75V397a1.61,1.61,0,0,1,1.51-.83c1,0,1.66.53,1.66,1.9V401H73.7V398c0-.83-.35-1.19-1.1-1.19a1.24,1.24,0,0,0-1.32,1.28V401h-.75Z" fill="#fff"/><path d="M78.19,396.88h-.67v-.63h.67v-.77c0-1,.47-1.51,1.41-1.51a1.6,1.6,0,0,1,.56.09v.63a1.62,1.62,0,0,0-.54-.1c-.48,0-.68.33-.68.81v.85h1.15v.63H78.94V401h-.75Z" fill="#fff"/><path d="M81,396.25h.75v.84a1.62,1.62,0,0,1,1.55-.92v.7c-1,.05-1.55.34-1.55,1.5V401H81Z" fill="#fff"/><path d="M83.77,398.64v-.07a2.32,2.32,0,1,1,4.63,0v.07a2.32,2.32,0,1,1-4.63,0Zm3.86,0v-.06c0-1.09-.61-1.79-1.54-1.79s-1.54.7-1.54,1.78v.07c0,1.07.58,1.78,1.54,1.78A1.57,1.57,0,0,0,87.63,398.64Z" fill="#fff"/><path d="M89.42,396.25h.75V397a1.54,1.54,0,0,1,1.41-.8,1.36,1.36,0,0,1,1.37.88,1.84,1.84,0,0,1,1.62-.88c.84,0,1.58.5,1.58,1.87V401H95.4v-3c0-.83-.35-1.17-1-1.17a1.2,1.2,0,0,0-1.24,1.26V401h-.75v-3c0-.83-.35-1.17-1-1.17a1.2,1.2,0,0,0-1.25,1.26V401h-.75Z" fill="#fff"/><path d="M101.51,394.52h1l2.18,6.44h-.78l-.63-1.86h-2.65L100,401H99.3Zm-.64,4h2.24L102,395.17Z" fill="#fff"/><path d="M106.84,398.54l-1.58-2.29h.88l1.15,1.71,1.14-1.71h.81l-1.55,2.23,1.72,2.48h-.89l-1.27-1.9L106,401h-.8Z" fill="#fff"/><path d="M109.7,398.64v-.07a2.32,2.32,0,1,1,4.63,0v.07a2.32,2.32,0,1,1-4.63,0Zm3.85,0v-.06c0-1.09-.6-1.79-1.53-1.79s-1.54.7-1.54,1.78v.07c0,1.07.58,1.78,1.54,1.78S113.55,399.71,113.55,398.64Z" fill="#fff"/><path d="M115,399.51h.73c0,.56.35.91,1.1.91s1-.25,1-.75-.37-.66-1.1-.79c-1.22-.23-1.64-.57-1.64-1.39a1.47,1.47,0,0,1,1.6-1.32,1.51,1.51,0,0,1,1.7,1.36h-.72c-.11-.52-.4-.74-1-.74s-.89.27-.89.67.23.6,1.09.75,1.66.4,1.66,1.4c0,.85-.58,1.43-1.73,1.43S115,400.47,115,399.51Z" fill="#fff"/><path d="M20.81,403.52h1.94c1.19,0,2.07.4,2.07,1.67v0a1.32,1.32,0,0,1-1,1.36,1.42,1.42,0,0,1,1.29,1.54v0c0,1.21-.83,1.8-2.11,1.8H20.81Zm1.94,2.81c.94,0,1.3-.34,1.3-1.14v0c0-.73-.42-1-1.32-1H21.58v2.2Zm.25,3c.93,0,1.37-.41,1.37-1.19v0c0-.79-.44-1.17-1.48-1.17H21.58v2.4Z" fill="#fff"/><path d="M25.83,408.65c0-1.09,1.15-1.46,2.36-1.46h.68v-.34c0-.75-.29-1.06-1-1.06s-1,.27-1.08.84H26a1.64,1.64,0,0,1,1.86-1.46,1.52,1.52,0,0,1,1.72,1.68V410h-.74v-.6a1.72,1.72,0,0,1-1.47.68C26.53,410,25.83,409.62,25.83,408.65Zm3-.34v-.59h-.65c-.95,0-1.64.24-1.64.93,0,.49.23.79.89.79S28.87,409,28.87,408.31Z" fill="#fff"/><path d="M30.94,405.25h.75V406a1.61,1.61,0,0,1,1.51-.83c1,0,1.66.53,1.66,1.9V410h-.75V407c0-.83-.35-1.19-1.1-1.19a1.24,1.24,0,0,0-1.32,1.28V410h-.75Z" fill="#fff"/><path d="M36.19,403h.75v4.42l2-2.17h.88l-2,2.19L39.94,410H39l-2.09-2.44V410h-.75Z" fill="#fff"/><path d="M42.45,405.25h.81L44.35,409l1.15-3.79h.65L47.22,409l1.1-3.79h.77L47.62,410h-.83l-1-3.53L44.71,410H43.9Z" fill="#fff"/><path d="M49.84,403.77a.5.5,0,0,1,.5-.49.49.49,0,0,1,.49.49.5.5,0,0,1-.49.5A.51.51,0,0,1,49.84,403.77Zm.14,1.48h.75V410H50Z" fill="#fff"/><path d="M52.28,408.78v-2.9h-.67v-.63h.67v-1.07H53v1.07h1.1v.63H53v2.83c0,.46.21.68.59.68a1.57,1.57,0,0,0,.57-.1v.63a1.85,1.85,0,0,1-.64.1A1.14,1.14,0,0,1,52.28,408.78Z" fill="#fff"/><path d="M55.18,403h.75v3a1.6,1.6,0,0,1,1.51-.83c1,0,1.66.53,1.66,1.9V410h-.75V407c0-.83-.35-1.19-1.11-1.19a1.23,1.23,0,0,0-1.31,1.28V410h-.75Z" fill="#fff"/><path d="M60.31,403.77a.5.5,0,0,1,.5-.49.49.49,0,0,1,.49.49.5.5,0,0,1-.49.5A.51.51,0,0,1,60.31,403.77Zm.14,1.48h.74V410h-.74Z" fill="#fff"/><path d="M62.59,405.25h.74V406a1.61,1.61,0,0,1,1.52-.83c1,0,1.65.53,1.65,1.9V410h-.74V407c0-.83-.35-1.19-1.11-1.19a1.24,1.24,0,0,0-1.32,1.28V410h-.74Z" fill="#fff"/><path d="M70.08,405.25h.75V406a1.54,1.54,0,0,1,1.41-.8,1.36,1.36,0,0,1,1.37.88,1.84,1.84,0,0,1,1.62-.88c.84,0,1.58.5,1.58,1.87V410h-.75v-3c0-.83-.35-1.17-1-1.17a1.2,1.2,0,0,0-1.24,1.26V410h-.75v-3c0-.83-.35-1.17-1-1.17a1.2,1.2,0,0,0-1.24,1.26V410h-.75Z" fill="#fff"/><path d="M78,403.77a.5.5,0,0,1,.5-.49.49.49,0,0,1,.49.49.5.5,0,0,1-.49.5A.51.51,0,0,1,78,403.77Zm.14,1.48h.74V410h-.74Z" fill="#fff"/><path d="M80.3,405.25h.75V406a1.6,1.6,0,0,1,1.51-.83c1,0,1.66.53,1.66,1.9V410h-.75V407c0-.83-.35-1.19-1.11-1.19a1.23,1.23,0,0,0-1.31,1.28V410H80.3Z" fill="#fff"/><path d="M85.5,408.23v-3h.75v2.94c0,.83.35,1.2,1.09,1.2a1.24,1.24,0,0,0,1.29-1.29v-2.85h.75V410h-.75v-.75a1.59,1.59,0,0,1-1.49.83C86.2,410,85.5,409.52,85.5,408.23Z" fill="#fff"/><path d="M90.92,408.78v-2.9h-.68v-.63h.68v-1.07h.75v1.07h1.09v.63H91.67v2.83c0,.46.2.68.58.68a1.59,1.59,0,0,0,.58-.1v.63a1.89,1.89,0,0,1-.64.1A1.14,1.14,0,0,1,90.92,408.78Z" fill="#fff"/><path d="M93.47,407.65v-.07a2.21,2.21,0,0,1,2.2-2.41,2.06,2.06,0,0,1,2.12,2.34v.24H94.24c0,1.07.55,1.67,1.51,1.67.73,0,1.16-.27,1.25-.82h.75a1.81,1.81,0,0,1-2,1.44A2.21,2.21,0,0,1,93.47,407.65Zm3.55-.5c-.07-1-.57-1.36-1.35-1.36a1.41,1.41,0,0,0-1.4,1.36Z" fill="#fff"/><path d="M98.45,408.51h.73c.06.56.35.91,1.11.91s1-.25,1-.75-.36-.66-1.09-.79c-1.23-.23-1.64-.57-1.64-1.39a1.46,1.46,0,0,1,1.59-1.32,1.5,1.5,0,0,1,1.7,1.36h-.72c-.11-.52-.39-.74-1-.74s-.89.27-.89.67.23.6,1.1.75,1.66.4,1.66,1.4c0,.85-.59,1.43-1.73,1.43S98.5,409.47,98.45,408.51Z" fill="#fff"/><path d="M104.92,407.64v-.07a2.32,2.32,0,1,1,4.63,0v.07a2.32,2.32,0,1,1-4.63,0Zm3.86,0v-.06c0-1.09-.61-1.79-1.54-1.79s-1.54.7-1.54,1.78v.07c0,1.07.58,1.78,1.54,1.78A1.57,1.57,0,0,0,108.78,407.64Z" fill="#fff"/><path d="M110.74,405.88h-.68v-.63h.68v-.77c0-1,.47-1.51,1.4-1.51a1.6,1.6,0,0,1,.56.09v.63a1.56,1.56,0,0,0-.53-.1c-.49,0-.69.33-.69.81v.85h1.16v.63h-1.16V410h-.74Z" fill="#fff"/><path d="M116,405.88h-.68v-.63H116v-.77c0-1,.46-1.51,1.4-1.51a1.6,1.6,0,0,1,.56.09v.63a1.61,1.61,0,0,0-.53-.1c-.49,0-.69.33-.69.81v.85h1.16v.63h-1.16V410H116Z" fill="#fff"/><path d="M118.67,403.77a.49.49,0,0,1,.49-.49.5.5,0,0,1,.5.49.51.51,0,0,1-.5.5A.5.5,0,0,1,118.67,403.77Zm.13,1.48h.75V410h-.75Z" fill="#fff"/><path d="M121,403h.76v7H121Z" fill="#fff"/><path d="M123,403.77a.5.5,0,0,1,.5-.49.49.49,0,0,1,.49.49.5.5,0,0,1-.49.5A.51.51,0,0,1,123,403.77Zm.14,1.48h.75V410h-.75Z" fill="#fff"/><path d="M125.27,405.25H126V406a1.6,1.6,0,0,1,1.51-.83c1,0,1.66.53,1.66,1.9V410h-.75V407c0-.83-.35-1.19-1.11-1.19A1.23,1.23,0,0,0,126,407.1V410h-.75Z" fill="#fff"/><path d="M130.27,410.23H131c.11.54.56.82,1.36.82a1.32,1.32,0,0,0,1.51-1.45v-.69a2,2,0,0,1-1.59.89,2.12,2.12,0,0,1-2.14-2.23v-.06a2.23,2.23,0,0,1,2.19-2.34,1.69,1.69,0,0,1,1.54.83v-.75h.75v4.39a2,2,0,0,1-2.25,2C131,411.68,130.39,411,130.27,410.23Zm3.66-2.71v-.07a1.46,1.46,0,0,0-1.49-1.66,1.5,1.5,0,0,0-1.5,1.68v.07a1.49,1.49,0,0,0,1.45,1.64A1.51,1.51,0,0,0,133.93,407.52Z" fill="#fff"/><path d="M136,409.43a.57.57,0,0,1,.58-.58.58.58,0,1,1,0,1.15A.57.57,0,0,1,136,409.43Z" fill="#fff"/><path d="M20.81,412.52h1L25,417.84v-5.32h.75V419h-.9l-3.25-5.52V419h-.75Z" fill="#fff"/><path d="M26.79,416.64v-.07a2.31,2.31,0,1,1,4.62,0v.07a2.31,2.31,0,1,1-4.62,0Zm3.85,0v-.06c0-1.09-.6-1.79-1.54-1.79s-1.54.7-1.54,1.78v.07c0,1.07.59,1.78,1.54,1.78A1.57,1.57,0,0,0,30.64,416.64Z" fill="#fff"/><path d="M32.6,417.78v-2.9h-.68v-.63h.68v-1.07h.75v1.07h1.1v.63h-1.1v2.83c0,.46.2.68.58.68a1.59,1.59,0,0,0,.58-.1v.63a1.85,1.85,0,0,1-.64.1A1.14,1.14,0,0,1,32.6,417.78Z" fill="#fff"/><path d="M39.06,418.47l-1.84-4.22H38l1.44,3.37,1.3-3.37h.77l-2.6,6.35h-.76Z" fill="#fff"/><path d="M41.89,416.64v-.07a2.32,2.32,0,1,1,4.63,0v.07a2.32,2.32,0,1,1-4.63,0Zm3.85,0v-.06c0-1.09-.6-1.79-1.54-1.79a1.56,1.56,0,0,0-1.54,1.78v.07c0,1.07.59,1.78,1.54,1.78S45.74,417.71,45.74,416.64Z" fill="#fff"/><path d="M47.5,417.23v-3h.74v2.94c0,.83.35,1.2,1.09,1.2a1.24,1.24,0,0,0,1.3-1.29v-2.85h.75V419h-.75v-.75a1.62,1.62,0,0,1-1.5.83C48.2,419,47.5,418.52,47.5,417.23Z" fill="#fff"/><path d="M52.75,414.25h.75v.84a1.62,1.62,0,0,1,1.55-.92v.7c-.95.05-1.55.34-1.55,1.5V419h-.75Z" fill="#fff"/><path d="M58.41,417.78v-2.9h-.67v-.63h.67v-1.07h.75v1.07h1.1v.63h-1.1v2.83c0,.46.21.68.58.68a1.59,1.59,0,0,0,.58-.1v.63a1.85,1.85,0,0,1-.64.1A1.14,1.14,0,0,1,58.41,417.78Z" fill="#fff"/><path d="M61,417.65c0-1.09,1.15-1.46,2.36-1.46H64v-.34c0-.75-.29-1.06-1-1.06s-1,.27-1.08.84h-.74A1.64,1.64,0,0,1,63,414.17a1.52,1.52,0,0,1,1.72,1.68V419H64v-.6a1.7,1.7,0,0,1-1.47.68C61.66,419,61,418.62,61,417.65Zm3-.34v-.59h-.65c-.94,0-1.64.24-1.64.93,0,.49.24.79.9.79S64,418,64,417.31Z" fill="#fff"/><path d="M67.26,416.54l-1.58-2.29h.88L67.71,416l1.14-1.71h.81l-1.56,2.23L69.82,419h-.88l-1.27-1.9L66.38,419h-.8Z" fill="#fff"/><path d="M73,414.25h.74v.84a1.64,1.64,0,0,1,1.55-.92v.7c-.94.05-1.55.34-1.55,1.5V419H73Z" fill="#fff"/><path d="M75.71,416.65v-.07a2.22,2.22,0,0,1,2.21-2.41A2.06,2.06,0,0,1,80,416.51v.24H76.48c0,1.07.55,1.67,1.52,1.67.73,0,1.15-.27,1.25-.82H80A1.81,1.81,0,0,1,78,419,2.21,2.21,0,0,1,75.71,416.65Zm3.56-.5c-.08-1-.58-1.36-1.35-1.36a1.41,1.41,0,0,0-1.41,1.36Z" fill="#fff"/><path d="M81.2,414.88h-.68v-.63h.68v-.77c0-1,.47-1.51,1.4-1.51a1.57,1.57,0,0,1,.56.09v.63a1.51,1.51,0,0,0-.53-.1c-.49,0-.68.33-.68.81v.85H83.1v.63H82V419H81.2Z" fill="#fff"/><path d="M84,417.23v-3h.75v2.94c0,.83.35,1.2,1.09,1.2a1.24,1.24,0,0,0,1.29-1.29v-2.85h.75V419H87.1v-.75a1.59,1.59,0,0,1-1.49.83C84.67,419,84,418.52,84,417.23Z" fill="#fff"/><path d="M89.23,414.25H90V415a1.61,1.61,0,0,1,1.52-.83c1,0,1.65.53,1.65,1.9V419H92.4V416c0-.83-.36-1.19-1.11-1.19A1.24,1.24,0,0,0,90,416.1V419h-.74Z" fill="#fff"/><path d="M94.12,416.7v-.08a2.23,2.23,0,0,1,2.2-2.45,1.7,1.7,0,0,1,1.54.83v-3h.75v7h-.75v-.81a2,2,0,0,1-1.61.89A2.1,2.1,0,0,1,94.12,416.7Zm3.77-.07v-.07c0-1.2-.58-1.77-1.5-1.77s-1.49.66-1.49,1.8v.07c0,1.19.64,1.76,1.43,1.76S97.89,417.84,97.89,416.63Z" fill="#fff"/><path d="M99.92,418.43a.58.58,0,1,1,.58.57A.57.57,0,0,1,99.92,418.43Z" fill="#fff"/></g></g></g></svg>