<svg xmlns="http://www.w3.org/2000/svg" viewBox="0 0 300 250"><title>H137</title><g id="Layer_2" data-name="Layer 2"><g id="Artboard_2" data-name="Artboard 2" style="isolation:isolate"><g id="headline1"><g id="File_for_nada_zilch_zip_with_Free_Online." data-name="File for nada, zilch, zip with Free Online."><path d="M21.86,57.8h13v4.29H27.42v4.1h6v4.08h-6V77.1H21.86Z" fill="#fff"/><path d="M36.28,59.15a2.67,2.67,0,1,1,2.65,2.48A2.52,2.52,0,0,1,36.28,59.15ZM36.52,63h4.84V77.1H36.52Z" fill="#fff"/><path d="M44.08,56.77h4.81V77.1H44.08Z" fill="#fff"/><path d="M50.73,70.21V70c0-4.54,3.37-7.4,7.63-7.4,3.86,0,7.18,2.22,7.18,7.29v1.27H55.61a2.82,2.82,0,0,0,2.94,2.94c1.6,0,2.27-.73,2.46-1.67h4.53c-.43,3.18-2.88,5-7.15,5C54,77.42,50.73,74.83,50.73,70.21Zm10.12-1.78c-.08-1.7-.92-2.64-2.49-2.64a2.68,2.68,0,0,0-2.69,2.64Z" fill="#fff"/><path d="M72.87,66.27H71.08V63h1.79V61.74c0-3.51,2.18-5.18,5.53-5.18a8.71,8.71,0,0,1,2.21.29v3.54a4.35,4.35,0,0,0-1.32-.19,1.42,1.42,0,0,0-1.62,1.54V63h2.86v3.29H77.67V77.1h-4.8Z" fill="#fff"/><path d="M80.91,70.21V70c0-4.54,3.38-7.4,7.75-7.4s7.69,2.78,7.69,7.26v.22c0,4.59-3.37,7.34-7.72,7.34S80.91,74.78,80.91,70.21Zm10.53-.08v-.21c0-2.38-1-3.7-2.78-3.7s-2.81,1.27-2.81,3.64v.22c0,2.43,1,3.75,2.81,3.75S91.44,72.48,91.44,70.13Z" fill="#fff"/><path d="M98.06,63h4.83v2.81a4.44,4.44,0,0,1,4.56-3V67.3c-2.94-.08-4.56.84-4.56,3.1v6.7H98.06Z" fill="#fff"/><path d="M114.12,63H119v2.27a5,5,0,0,1,4.65-2.65c2.72,0,4.61,1.7,4.61,5.32V77.1h-4.83V68.89c0-1.59-.62-2.37-2-2.37s-2.4.86-2.4,2.67V77.1h-4.83Z" fill="#fff"/><path d="M129.75,73.18c0-3.32,2.81-4.61,7.51-4.61h1.35v-.33c0-1.35-.33-2.24-1.87-2.24a1.74,1.74,0,0,0-1.91,1.68h-4.54c.22-3.4,2.89-5.08,6.75-5.08s6.37,1.6,6.37,5.35V77.1h-4.69V75.45a4.64,4.64,0,0,1-4.19,2C132,77.42,129.75,76.18,129.75,73.18Zm8.86-1v-.87h-1.27c-1.94,0-2.81.38-2.81,1.54,0,.81.54,1.33,1.68,1.33A2.13,2.13,0,0,0,138.61,72.16Z" fill="#fff"/><path d="M145.06,70.19V70c0-4.8,2.65-7.37,6-7.37A4.58,4.58,0,0,1,155.4,65V56.77h4.83V77.1H155.4V74.8a4.76,4.76,0,0,1-4.4,2.62C147.73,77.42,145.06,75.07,145.06,70.19Zm10.48-.08v-.22c0-2.37-1-3.64-2.79-3.64S150,67.46,150,69.92v.21c0,2.38,1.06,3.59,2.73,3.59S155.54,72.51,155.54,70.11Z" fill="#fff"/><path d="M161.88,73.18c0-3.32,2.81-4.61,7.51-4.61h1.35v-.33c0-1.35-.33-2.24-1.87-2.24A1.73,1.73,0,0,0,167,67.68h-4.54c.22-3.4,2.89-5.08,6.75-5.08s6.37,1.6,6.37,5.35V77.1h-4.7V75.45a4.61,4.61,0,0,1-4.18,2C164.12,77.42,161.88,76.18,161.88,73.18Zm8.86-1v-.87h-1.27c-1.95,0-2.81.38-2.81,1.54,0,.81.54,1.33,1.67,1.33A2.14,2.14,0,0,0,170.74,72.16Z" fill="#fff"/><path d="M176.89,79.28l2.27-7.09,4.48,1.59-3.89,6.61Z" fill="#fff"/><path d="M189.5,76.61l6.18-10h-5.53V63h12.44v.51l-6.34,10h6V77.1H189.5Z" fill="#fff"/><path d="M203.86,59.15a2.67,2.67,0,1,1,2.65,2.48A2.53,2.53,0,0,1,203.86,59.15Zm.25,3.83h4.83V77.1h-4.83Z" fill="#fff"/><path d="M211.67,56.77h4.8V77.1h-4.8Z" fill="#fff"/><path d="M218.31,70.21V70c0-4.7,3.37-7.4,7.53-7.4,3.46,0,6.64,1.51,6.91,5.81h-4.53A2.1,2.1,0,0,0,226,66.35c-1.7,0-2.7,1.22-2.7,3.59v.22c0,2.46.94,3.73,2.78,3.73a2.36,2.36,0,0,0,2.46-2.35h4.34c-.13,3.56-2.54,5.88-7.1,5.88C221.52,77.42,218.31,75,218.31,70.21Z" fill="#fff"/><path d="M234.4,56.77h4.83v8.48a5,5,0,0,1,4.65-2.65c2.72,0,4.61,1.7,4.61,5.32V77.1h-4.83V68.89c0-1.59-.62-2.37-2-2.37s-2.41.86-2.41,2.67V77.1H234.4Z" fill="#fff"/><path d="M249.85,79.28l2.26-7.09,4.48,1.59-3.88,6.61Z" fill="#fff"/><path d="M20.27,108.61l6.18-10H20.92V95H33.36v.51l-6.34,10h6v3.65H20.27Z" fill="#fff"/><path d="M34.63,91.15a2.67,2.67,0,1,1,2.65,2.48A2.53,2.53,0,0,1,34.63,91.15ZM34.88,95h4.83V109.1H34.88Z" fill="#fff"/><path d="M42.3,95h4.83v2.11a5,5,0,0,1,4.4-2.49c3.3,0,6,2.49,6,7.32v.21c0,4.86-2.67,7.29-6,7.29a4.66,4.66,0,0,1-4.38-2.4v6.8H42.3Zm10.29,7.15v-.21c0-2.49-1.08-3.67-2.78-3.67S47,99.52,47,101.89v.22c0,2.4,1,3.61,2.81,3.61S52.59,104.46,52.59,102.13Z" fill="#fff"/><path d="M63,95H68l2,8.45L72.46,95h3.88l2.11,8.45L80.74,95h4.59L80.85,109.1H76.24l-2.11-7.88-2.19,7.88H67.25Z" fill="#fff"/><path d="M86.47,91.15a2.67,2.67,0,1,1,2.65,2.48A2.53,2.53,0,0,1,86.47,91.15ZM86.72,95h4.83V109.1H86.72Z" fill="#fff"/><path d="M94.79,104.56V98.27h-1.7V95h1.7V92h4.83V95h2.78v3.29H99.62v5.83c0,1,.51,1.49,1.43,1.49a3.73,3.73,0,0,0,1.38-.24V109a10.27,10.27,0,0,1-2.68.4C96.57,109.42,94.79,107.88,94.79,104.56Z" fill="#fff"/><path d="M104.24,88.77h4.83v8.48a5,5,0,0,1,4.64-2.65c2.73,0,4.62,1.7,4.62,5.32v9.18H113.5v-8.21c0-1.59-.62-2.37-2-2.37s-2.4.86-2.4,2.67v7.91h-4.83Z" fill="#fff"/><path d="M126,89.8h13v4.29h-7.47v4.1h6v4.08h-6v6.83H126Z" fill="#fff"/><path d="M140.36,95h4.84v2.81a4.44,4.44,0,0,1,4.56-3V99.3c-2.95-.08-4.56.84-4.56,3.1v6.7h-4.84Z" fill="#fff"/><path d="M150.62,102.21V102c0-4.54,3.38-7.4,7.64-7.4,3.86,0,7.18,2.22,7.18,7.29v1.27h-9.93a2.81,2.81,0,0,0,2.94,2.94c1.59,0,2.27-.73,2.46-1.67h4.53c-.43,3.18-2.89,5-7.15,5C153.86,109.42,150.62,106.83,150.62,102.21Zm10.13-1.78c-.08-1.7-.92-2.64-2.49-2.64a2.69,2.69,0,0,0-2.7,2.64Z" fill="#fff"/><path d="M166.36,102.21V102c0-4.54,3.38-7.4,7.64-7.4,3.86,0,7.18,2.22,7.18,7.29v1.27h-9.93a2.81,2.81,0,0,0,2.94,2.94c1.6,0,2.27-.73,2.46-1.67h4.53c-.43,3.18-2.89,5-7.15,5C169.6,109.42,166.36,106.83,166.36,102.21Zm10.13-1.78c-.08-1.7-.92-2.64-2.49-2.64a2.69,2.69,0,0,0-2.7,2.64Z" fill="#fff"/><path d="M187.18,99.57v-.22c0-5.88,4.43-9.82,10.2-9.82s10.23,3.7,10.23,9.69v.21c0,5.94-4.07,10-10.31,10S187.18,105.37,187.18,99.57Zm14.66,0V99.3c0-3.43-1.73-5.45-4.46-5.45s-4.42,2-4.42,5.48v.21c0,3.51,1.78,5.54,4.45,5.54S201.84,103,201.84,99.52Z" fill="#fff"/><path d="M209.48,95h4.83v2.27A5,5,0,0,1,219,94.6c2.72,0,4.61,1.7,4.61,5.32v9.18h-4.83v-8.21c0-1.59-.62-2.37-2-2.37s-2.41.86-2.41,2.67v7.91h-4.83Z" fill="#fff"/><path d="M226.06,88.77h4.8V109.1h-4.8Z" fill="#fff"/><path d="M233.35,91.15A2.52,2.52,0,0,1,236,88.64a2.5,2.5,0,1,1,0,5A2.49,2.49,0,0,1,233.35,91.15Zm.24,3.83h4.83V109.1h-4.83Z" fill="#fff"/><path d="M241,95h4.83v2.27a5,5,0,0,1,4.64-2.65c2.73,0,4.62,1.7,4.62,5.32v9.18h-4.83v-8.21c0-1.59-.63-2.37-2-2.37s-2.4.86-2.4,2.67v7.91H241Z" fill="#fff"/><path d="M256.7,102.21V102c0-4.54,3.38-7.4,7.64-7.4,3.86,0,7.18,2.22,7.18,7.29v1.27h-9.93a2.81,2.81,0,0,0,2.94,2.94c1.59,0,2.27-.73,2.46-1.67h4.53c-.43,3.18-2.89,5-7.15,5C259.94,109.42,256.7,106.83,256.7,102.21Zm10.13-1.78c-.09-1.7-.92-2.64-2.49-2.64s-2.45.94-2.7,2.64Z" fill="#fff"/><path d="M272.88,106.67a2.69,2.69,0,0,1,2.75-2.73,2.73,2.73,0,1,1,0,5.45A2.69,2.69,0,0,1,272.88,106.67Z" fill="#fff"/></g><g id="Layer_10" data-name="Layer 10"><rect width="300" height="250" fill="none"/></g></g></g></g></svg>