<svg xmlns="http://www.w3.org/2000/svg" viewBox="0 0 160 600"><title>H21</title><g id="Layer_2" data-name="Layer 2"><g id="Rect"><rect width="160" height="600" fill="none"/></g><g id="H21"><g id="Easy_does_it._Switch_to_Block_in_as_little_as_two_clicks." data-name="Easy does it. Switch  to Block in as  little  as two clicks."><path d="M22,96.44H36.81v4.74H28.1v3.69H35v4.38H28.1v3.9h9.19v4.74H22Z" fill="#fff"/><path d="M38.52,113.54c0-3.69,3.12-5.13,8.34-5.13h1.5v-.36c0-1.5-.36-2.49-2.07-2.49a1.93,1.93,0,0,0-2.13,1.86h-5c.24-3.78,3.21-5.64,7.5-5.64s7.09,1.77,7.09,5.94v10.17H48.48v-1.83a5.15,5.15,0,0,1-4.65,2.19C41,118.25,38.52,116.87,38.52,113.54Zm9.84-1.14v-1H47c-2.16,0-3.12.42-3.12,1.71,0,.9.6,1.47,1.86,1.47C47.22,114.62,48.36,113.75,48.36,112.4Z" fill="#fff"/><path d="M55.27,112.91h4.95c.18,1.14.69,1.77,2.22,1.77,1.32,0,1.92-.51,1.92-1.29s-.75-1.11-2.91-1.41c-4.2-.54-6-1.77-6-5,0-3.48,3.09-5.16,6.72-5.16,3.87,0,6.57,1.32,6.93,5.07H64.27a1.75,1.75,0,0,0-2-1.56c-1.17,0-1.77.51-1.77,1.23s.72,1,2.64,1.29c4.35.54,6.45,1.68,6.45,5,0,3.72-2.76,5.4-7.11,5.4S55.39,116.39,55.27,112.91Z" fill="#fff"/><path d="M75.74,116.3l-6.28-14.1h5.83l3.24,8.37,3-8.37h5.13l-8.4,20.94H73.13Z" fill="#fff"/><path d="M20.72,143.37v-.24c0-5.34,2.94-8.19,6.66-8.19a5.1,5.1,0,0,1,4.84,2.64v-9.12h5.37v22.59H32.22V148.5a5.3,5.3,0,0,1-4.9,2.91C23.69,151.41,20.72,148.8,20.72,143.37Zm11.65-.09V143c0-2.64-1.11-4-3.1-4s-3.09,1.35-3.09,4.08v.24c0,2.64,1.17,4,3,4S32.37,146,32.37,143.28Z" fill="#fff"/><path d="M39.48,143.4v-.24c0-5,3.75-8.22,8.61-8.22S56.65,138,56.65,143v.24c0,5.1-3.75,8.16-8.59,8.16S39.48,148.47,39.48,143.4Zm11.71-.09v-.24c0-2.64-1.06-4.11-3.1-4.11S45,140.37,45,143v.24c0,2.7,1.05,4.17,3.12,4.17S51.19,145.92,51.19,143.31Z" fill="#fff"/><path d="M57.7,143.4v-.24c0-5,3.75-8.22,8.49-8.22,4.29,0,8,2.46,8,8.1v1.41H63.13c.15,2.07,1.35,3.27,3.27,3.27,1.77,0,2.52-.81,2.73-1.86h5.05c-.48,3.54-3.22,5.55-8,5.55C61.3,151.41,57.7,148.53,57.7,143.4Zm11.25-2c-.09-1.89-1-2.94-2.76-2.94s-2.73,1.05-3,2.94Z" fill="#fff"/><path d="M75.14,146.07h5c.18,1.14.69,1.77,2.22,1.77,1.32,0,1.92-.51,1.92-1.29s-.75-1.11-2.91-1.41c-4.2-.54-6-1.77-6-5,0-3.48,3.09-5.16,6.72-5.16,3.87,0,6.57,1.32,6.93,5.07H84.14a1.75,1.75,0,0,0-2-1.56c-1.17,0-1.77.51-1.77,1.23s.72,1,2.64,1.29c4.35.54,6.45,1.68,6.45,5,0,3.72-2.76,5.4-7.11,5.4S75.26,149.55,75.14,146.07Z" fill="#fff"/><path d="M96.54,131.1a3,3,0,1,1,2.94,2.76A2.8,2.8,0,0,1,96.54,131.1Zm.27,4.26h5.37v15.69H96.81Z" fill="#fff"/><path d="M105.78,146v-7h-1.89v-3.66h1.89v-3.27h5.37v3.27h3.1V139h-3.1v6.48a1.44,1.44,0,0,0,1.6,1.65,4.09,4.09,0,0,0,1.53-.27V151a11.35,11.35,0,0,1-3,.45C107.76,151.41,105.78,149.7,105.78,146Z" fill="#fff"/><path d="M116.08,148.35a3,3,0,0,1,3.06-3,3,3,0,1,1,0,6.06A3,3,0,0,1,116.08,148.35Z" fill="#fff"/><path d="M20.6,177.4h5.85c.15,1.53.84,2.79,3.39,2.79,1.78,0,2.77-.87,2.77-2.13s-.81-1.68-3.4-2.07c-6.06-.72-8.1-2.52-8.1-6.84,0-3.86,3.18-6.68,8.31-6.68s8.08,2.15,8.47,6.68h-5.7a2.43,2.43,0,0,0-2.77-2.3c-1.65,0-2.49.75-2.49,1.82s.66,1.75,3.34,2.1c5.43.61,8.22,2,8.22,6.66,0,3.93-3.12,7.14-8.65,7.14C23.84,184.57,20.78,182.05,20.6,177.4Z" fill="#fff"/><path d="M38.94,168.52h5.61l2.28,9.39,2.64-9.39H53.8l2.34,9.39,2.55-9.39h5.1l-5,15.69H53.68l-2.34-8.76-2.44,8.76H43.68Z" fill="#fff"/><path d="M65.05,164.27A3,3,0,1,1,68,167,2.8,2.8,0,0,1,65.05,164.27Zm.27,4.25h5.37v15.69H65.32Z" fill="#fff"/><path d="M74.3,179.17v-7H72.41v-3.67H74.3v-3.27h5.37v3.27h3.09v3.67H79.67v6.47a1.43,1.43,0,0,0,1.59,1.65,4.09,4.09,0,0,0,1.53-.27v4.08a11.27,11.27,0,0,1-3,.45C76.28,184.57,74.3,182.86,74.3,179.17Z" fill="#fff"/><path d="M84,176.56v-.24c0-5.22,3.75-8.22,8.37-8.22,3.85,0,7.39,1.69,7.69,6.45H95a2.32,2.32,0,0,0-2.52-2.28c-1.9,0-3,1.35-3,4v.24c0,2.73,1,4.14,3.09,4.14A2.62,2.62,0,0,0,95.28,178h4.83c-.15,4-2.82,6.54-7.9,6.54C87.53,184.57,84,181.84,84,176.56Z" fill="#fff"/><path d="M101.85,161.63h5.37V171a5.54,5.54,0,0,1,5.16-2.94c3,0,5.14,1.9,5.14,5.91v10.2h-5.38v-9.12c0-1.77-.69-2.63-2.25-2.63s-2.67,1-2.67,3v8.79h-5.37Z" fill="#fff"/><path d="M22.22,212.34v-7H20.33v-3.66h1.89v-3.27h5.37v3.27h3.1v3.66h-3.1v6.48a1.43,1.43,0,0,0,1.59,1.65,4.18,4.18,0,0,0,1.54-.27v4.08a11.43,11.43,0,0,1-3,.45C24.2,217.74,22.22,216,22.22,212.34Z" fill="#fff"/><path d="M31.89,209.73v-.24c0-5,3.75-8.22,8.61-8.22s8.55,3.09,8.55,8.07v.24c0,5.1-3.75,8.16-8.58,8.16S31.89,214.8,31.89,209.73Zm11.7-.09v-.24c0-2.64-1.05-4.11-3.09-4.11s-3.12,1.41-3.12,4.05v.24c0,2.7,1,4.17,3.12,4.17S43.59,212.25,43.59,209.64Z" fill="#fff"/><path d="M56.89,195.93h9.57c5.07,0,7.24,2.28,7.24,5.61v.12a4.42,4.42,0,0,1-3.64,4.62c2.65.45,4.3,2,4.3,5v.12c0,3.84-2.5,6-7.81,6H56.89Zm8.34,8.52c1.92,0,2.64-.66,2.64-2.19v-.12c0-1.47-.78-2.13-2.64-2.13H62.89v4.44Zm.21,8.82c2,0,2.85-.9,2.85-2.49v-.12c0-1.62-.87-2.46-3-2.46H62.89v5.07Z" fill="#fff"/><path d="M76.49,194.79h5.34v22.59H76.49Z" fill="#fff"/><path d="M83.87,209.73v-.24c0-5,3.75-8.22,8.61-8.22s8.56,3.09,8.56,8.07v.24c0,5.1-3.75,8.16-8.59,8.16S83.87,214.8,83.87,209.73Zm11.71-.09v-.24c0-2.64-1-4.11-3.1-4.11s-3.12,1.41-3.12,4.05v.24c0,2.7,1,4.17,3.12,4.17S95.58,212.25,95.58,209.64Z" fill="#fff"/><path d="M102.09,209.73v-.24c0-5.22,3.75-8.22,8.37-8.22,3.84,0,7.39,1.68,7.69,6.45H113.1a2.32,2.32,0,0,0-2.52-2.28c-1.89,0-3,1.35-3,4v.24c0,2.73,1,4.14,3.09,4.14a2.61,2.61,0,0,0,2.73-2.61h4.84c-.15,4-2.82,6.54-7.9,6.54C105.66,217.74,102.09,215,102.09,209.73Z" fill="#fff"/><path d="M120,194.79h5.37V207.9l4.23-6.21h5.59L130,208.74l5.55,8.64h-6l-4.23-6.87v6.87H120Z" fill="#fff"/><path d="M21.38,230.59a2.8,2.8,0,0,1,2.94-2.79,2.78,2.78,0,1,1,0,5.55A2.78,2.78,0,0,1,21.38,230.59Zm.27,4.26H27v15.69H21.65Z" fill="#fff"/><path d="M29.91,234.85h5.37v2.52a5.54,5.54,0,0,1,5.16-2.94c3,0,5.13,1.89,5.13,5.91v10.2H40.2v-9.12c0-1.77-.69-2.64-2.25-2.64s-2.67,1-2.67,3v8.79H29.91Z" fill="#fff"/><path d="M52.75,246.19c0-3.69,3.12-5.13,8.34-5.13h1.5v-.36c0-1.5-.36-2.49-2.07-2.49a1.93,1.93,0,0,0-2.13,1.86h-5c.24-3.78,3.21-5.64,7.5-5.64s7.08,1.77,7.08,5.94v10.17H62.71v-1.83a5.15,5.15,0,0,1-4.65,2.19C55.24,250.9,52.75,249.52,52.75,246.19Zm9.84-1.14v-1H61.18c-2.16,0-3.12.42-3.12,1.71,0,.9.6,1.47,1.86,1.47C61.45,247.27,62.59,246.4,62.59,245.05Z" fill="#fff"/><path d="M69.49,245.56h5c.18,1.14.69,1.77,2.22,1.77,1.32,0,1.92-.51,1.92-1.29s-.75-1.11-2.91-1.41c-4.21-.54-6-1.77-6-5,0-3.48,3.1-5.16,6.73-5.16,3.87,0,6.57,1.32,6.93,5.07H78.5a1.75,1.75,0,0,0-2-1.56c-1.17,0-1.77.51-1.77,1.23s.72,1.05,2.64,1.29c4.35.54,6.45,1.68,6.45,5,0,3.72-2.76,5.4-7.11,5.4S69.61,249,69.49,245.56Z" fill="#fff"/><path d="M21.65,261.11H27V283.7H21.65Z" fill="#fff"/><path d="M29.75,263.75a3,3,0,1,1,3,2.76A2.81,2.81,0,0,1,29.75,263.75ZM30,268H35.4V283.7H30Z" fill="#fff"/><path d="M39,278.66v-7H37.11V268H39v-3.27h5.37V268h3.09v3.66H44.37v6.48A1.43,1.43,0,0,0,46,279.8a4.09,4.09,0,0,0,1.53-.27v4.08a11.27,11.27,0,0,1-3,.45C41,284.06,39,282.35,39,278.66Z" fill="#fff"/><path d="M50.23,278.66v-7h-1.9V268h1.9v-3.27H55.6V268h3.09v3.66H55.6v6.48a1.43,1.43,0,0,0,1.59,1.65,4.09,4.09,0,0,0,1.53-.27v4.08a11.27,11.27,0,0,1-3,.45C52.21,284.06,50.23,282.35,50.23,278.66Z" fill="#fff"/><path d="M60.88,261.11h5.34V283.7H60.88Z" fill="#fff"/><path d="M68.26,276.05v-.24c0-5,3.76-8.22,8.5-8.22,4.29,0,8,2.46,8,8.1v1.41h-11c.15,2.07,1.35,3.27,3.27,3.27,1.77,0,2.52-.81,2.73-1.86h5c-.48,3.54-3.21,5.55-7.95,5.55C71.87,284.06,68.26,281.18,68.26,276.05Zm11.26-2c-.09-1.89-1-2.94-2.76-2.94s-2.73,1.05-3,2.94Z" fill="#fff"/><path d="M20.6,312.52c0-3.69,3.12-5.13,8.34-5.13h1.51V307c0-1.5-.37-2.49-2.08-2.49a1.93,1.93,0,0,0-2.13,1.86h-5c.24-3.78,3.21-5.64,7.5-5.64s7.09,1.77,7.09,5.94v10.17H30.56V315a5.15,5.15,0,0,1-4.65,2.19C23.09,317.23,20.6,315.85,20.6,312.52Zm9.85-1.14v-1H29c-2.16,0-3.12.42-3.12,1.71,0,.9.6,1.47,1.86,1.47C29.3,313.6,30.45,312.73,30.45,311.38Z" fill="#fff"/><path d="M37.35,311.89H42.3c.18,1.14.69,1.77,2.22,1.77,1.32,0,1.92-.51,1.92-1.29s-.75-1.11-2.91-1.41c-4.2-.54-6-1.77-6-5,0-3.48,3.09-5.16,6.72-5.16,3.87,0,6.57,1.32,6.93,5.07H46.35a1.75,1.75,0,0,0-2-1.56c-1.17,0-1.77.51-1.77,1.23s.72,1.05,2.64,1.29c4.35.54,6.46,1.68,6.46,5,0,3.72-2.77,5.4-7.12,5.4S37.47,315.37,37.35,311.89Z" fill="#fff"/><path d="M59.59,311.83v-7H57.7v-3.66h1.89v-3.27H65v3.27h3.09v3.66H65v6.48A1.43,1.43,0,0,0,66.55,313a4.09,4.09,0,0,0,1.53-.27v4.08a11.27,11.27,0,0,1-3,.45C61.57,317.23,59.59,315.52,59.59,311.83Z" fill="#fff"/><path d="M68.77,301.18h5.62l2.28,9.39,2.64-9.39h4.32L86,310.57l2.55-9.39h5.1l-5,15.69H83.51l-2.34-8.76-2.43,8.76H73.52Z" fill="#fff"/><path d="M93.47,309.22V309c0-5,3.76-8.22,8.62-8.22s8.55,3.09,8.55,8.07v.24c0,5.1-3.75,8.16-8.58,8.16S93.47,314.29,93.47,309.22Zm11.71-.09v-.24c0-2.64-1.05-4.11-3.09-4.11S99,306.19,99,308.83v.24c0,2.7,1,4.17,3.12,4.17S105.18,311.74,105.18,309.13Z" fill="#fff"/><path d="M20.66,342.38v-.24c0-5.22,3.75-8.22,8.37-8.22,3.85,0,7.39,1.68,7.69,6.45h-5a2.32,2.32,0,0,0-2.53-2.28c-1.89,0-3,1.35-3,4v.24c0,2.73,1.05,4.14,3.09,4.14A2.62,2.62,0,0,0,32,343.85h4.83c-.15,4-2.82,6.54-7.9,6.54C24.23,350.39,20.66,347.66,20.66,342.38Z" fill="#fff"/><path d="M38.7,327.44H44V350H38.7Z" fill="#fff"/><path d="M46.8,330.08a2.8,2.8,0,0,1,2.94-2.79,2.78,2.78,0,1,1,0,5.55A2.78,2.78,0,0,1,46.8,330.08Zm.27,4.26h5.38V350H47.07Z" fill="#fff"/><path d="M54.49,342.38v-.24c0-5.22,3.75-8.22,8.37-8.22,3.84,0,7.38,1.68,7.68,6.45h-5A2.32,2.32,0,0,0,63,338.09c-1.89,0-3,1.35-3,4v.24c0,2.73,1.05,4.14,3.09,4.14a2.61,2.61,0,0,0,2.73-2.61h4.83c-.15,4-2.82,6.54-7.89,6.54C58.06,350.39,54.49,347.66,54.49,342.38Z" fill="#fff"/><path d="M72.38,327.44h5.37v13.11L82,334.34h5.58l-5.13,7.05L88,350H82l-4.23-6.87V350H72.38Z" fill="#fff"/><path d="M87.8,345.05h5c.18,1.14.69,1.77,2.22,1.77,1.32,0,1.92-.51,1.92-1.29s-.75-1.11-2.91-1.41c-4.2-.54-6-1.77-6-5,0-3.48,3.1-5.16,6.73-5.16,3.87,0,6.57,1.32,6.93,5.07H96.81a1.75,1.75,0,0,0-2-1.56c-1.17,0-1.77.51-1.77,1.23s.72,1,2.64,1.29c4.35.54,6.45,1.68,6.45,5,0,3.72-2.76,5.4-7.11,5.4S87.92,348.53,87.8,345.05Z" fill="#fff"/><path d="M103.65,347.33a3,3,0,0,1,3.06-3,3,3,0,1,1,0,6.06A3,3,0,0,1,103.65,347.33Z" fill="#fff"/></g></g></g></svg>