<svg xmlns="http://www.w3.org/2000/svg" viewBox="0 0 160 600"><title>Asset 8</title><g id="Layer_2" data-name="Layer 2"><g id="Rect"><rect width="160" height="600" fill="none"/></g><g id="Federal_State:_fast_easy_and_at_least_10_cheaper_than_Turbo" data-name="Federal &amp; State: fast, easy and at least $10 cheaper than Turbo"><path d="M22.05,59.44H36.42v4.73H28.18v4.52h6.58v4.49H28.18v7.53H22.05Z" fill="#fff"/><path d="M36.84,73.12v-.24c0-5,3.72-8.15,8.42-8.15,4.25,0,7.91,2.44,7.91,8v1.39h-11c.15,2.06,1.34,3.25,3.25,3.25,1.75,0,2.5-.81,2.71-1.85h5c-.47,3.51-3.18,5.51-7.88,5.51C40.41,81.07,36.84,78.21,36.84,73.12Zm11.16-2c-.09-1.88-1-2.92-2.74-2.92s-2.71,1-3,2.92Z" fill="#fff"/><path d="M54.24,73.09v-.24c0-5.29,2.92-8.12,6.61-8.12a5,5,0,0,1,4.79,2.62v-9H71V80.71H65.64V78.18a5.25,5.25,0,0,1-4.85,2.89C57.19,81.07,54.24,78.48,54.24,73.09ZM65.79,73v-.23c0-2.62-1.1-4-3.07-4s-3.06,1.34-3.06,4V73c0,2.62,1.16,4,3,4S65.79,75.65,65.79,73Z" fill="#fff"/><path d="M72.84,73.12v-.24c0-5,3.72-8.15,8.42-8.15,4.25,0,7.91,2.44,7.91,8v1.39h-11c.15,2.06,1.34,3.25,3.24,3.25s2.5-.81,2.71-1.85h5c-.47,3.51-3.18,5.51-7.88,5.51C76.41,81.07,72.84,78.21,72.84,73.12Zm11.15-2c-.09-1.88-1-2.92-2.73-2.92s-2.71,1-3,2.92Z" fill="#fff"/><path d="M91,65.15h5.33v3.09a4.9,4.9,0,0,1,5-3.3v5c-3.25-.09-5,.92-5,3.42v7.38H91Z" fill="#fff"/><path d="M102.05,76.4c0-3.66,3.09-5.09,8.27-5.09h1.49V71c0-1.49-.36-2.47-2-2.47a1.92,1.92,0,0,0-2.12,1.85h-5c.23-3.75,3.18-5.6,7.43-5.6s7,1.76,7,5.89V80.71h-5.18V78.9a5.11,5.11,0,0,1-4.61,2.17C104.52,81.07,102.05,79.7,102.05,76.4Zm9.76-1.13v-1h-1.4c-2.14,0-3.09.42-3.09,1.7,0,.89.59,1.46,1.84,1.46C110.68,77.47,111.81,76.6,111.81,75.27Z" fill="#fff"/><path d="M119.84,58.3h5.3V80.71h-5.3Z" fill="#fff"/><path d="M38.8,111.12l3.55,4.34H35.41l-1.25-1.55a8.47,8.47,0,0,1-5.74,1.91c-4.52,0-7.47-2.38-7.47-6.43,0-2.74,1.67-4.76,4.67-6.19a6.81,6.81,0,0,1-1.31-3.72c0-3.63,3.1-5.56,6.85-5.56,3.39,0,6.45,1.69,6.45,5,0,2.32-1.36,4-4.25,5.26L36,107.43l1.54-3h4.65Zm-7.37-.63-3.37-4a2.54,2.54,0,0,0-1.42,2.3,2.46,2.46,0,0,0,2.7,2.64A2.78,2.78,0,0,0,31.43,110.49Zm-.66-8.57c1.43-.68,2.11-1.49,2.11-2.59a1.52,1.52,0,0,0-1.57-1.63,1.69,1.69,0,0,0-1.76,1.84A3.93,3.93,0,0,0,30.77,101.92Z" fill="#fff"/><path d="M48.32,108.71h5.8c.15,1.51.84,2.76,3.37,2.76,1.75,0,2.73-.86,2.73-2.11s-.8-1.67-3.36-2c-6-.72-8-2.5-8-6.79,0-3.83,3.15-6.63,8.24-6.63s8,2.14,8.39,6.63H59.81a2.42,2.42,0,0,0-2.74-2.29c-1.64,0-2.47.75-2.47,1.82s.65,1.72,3.3,2.08c5.39.6,8.16,2,8.16,6.61,0,3.89-3.1,7.08-8.57,7.08C51.54,115.82,48.5,113.32,48.32,108.71Z" fill="#fff"/><path d="M68.73,110.46v-6.93H66.86V99.9h1.87V96.66h5.33V99.9h3.06v3.63H74.06V110c0,1.13.56,1.63,1.57,1.63a4,4,0,0,0,1.52-.27v4.05a11.08,11.08,0,0,1-2.94.45C70.69,115.82,68.73,114.12,68.73,110.46Z" fill="#fff"/><path d="M78.31,111.15c0-3.66,3.09-5.09,8.27-5.09h1.49v-.36c0-1.49-.36-2.47-2-2.47a1.92,1.92,0,0,0-2.12,1.85h-5c.24-3.75,3.19-5.6,7.44-5.6s7,1.76,7,5.89v10.09H88.19v-1.81a5.11,5.11,0,0,1-4.61,2.17C80.78,115.82,78.31,114.45,78.31,111.15ZM88.07,110v-1h-1.4c-2.14,0-3.09.42-3.09,1.7,0,.89.59,1.46,1.84,1.46C86.94,112.22,88.07,111.35,88.07,110Z" fill="#fff"/><path d="M96.58,110.46v-6.93H94.7V99.9h1.88V96.66h5.32V99.9H105v3.63H101.9V110a1.42,1.42,0,0,0,1.58,1.63,4.07,4.07,0,0,0,1.52-.27v4.05a11.17,11.17,0,0,1-3,.45C98.54,115.82,96.58,114.12,96.58,110.46Z" fill="#fff"/><path d="M106.15,107.87v-.24c0-5,3.72-8.15,8.43-8.15,4.25,0,7.91,2.44,7.91,8v1.39H111.54c.15,2.06,1.34,3.25,3.24,3.25s2.5-.81,2.71-1.85h5c-.48,3.51-3.18,5.51-7.89,5.51C109.73,115.82,106.15,113,106.15,107.87Zm11.16-2c-.09-1.88-1-2.92-2.73-2.92s-2.71,1-3,2.92Z" fill="#fff"/><path d="M124.21,104.27a3,3,0,0,1,3-3,3,3,0,1,1,0,6A3,3,0,0,1,124.21,104.27Zm0,8.51a3,3,0,0,1,3-3,3,3,0,1,1,0,6A3,3,0,0,1,124.21,112.78Z" fill="#fff"/><path d="M22.38,138.28h-2v-3.63h2v-1.37c0-3.87,2.41-5.71,6.1-5.71a9.89,9.89,0,0,1,2.44.32v3.9a4.86,4.86,0,0,0-1.46-.21,1.56,1.56,0,0,0-1.78,1.7v1.37h3.15v3.63H27.68v11.93h-5.3Z" fill="#fff"/><path d="M31.42,145.9c0-3.66,3.1-5.09,8.28-5.09h1.48v-.36c0-1.49-.35-2.47-2-2.47A1.91,1.91,0,0,0,37,139.83H32c.24-3.75,3.18-5.6,7.44-5.6s7,1.76,7,5.89v10.09H41.3V148.4a5.1,5.1,0,0,1-4.61,2.17C33.89,150.57,31.42,149.2,31.42,145.9Zm9.76-1.13v-1H39.79c-2.15,0-3.1.42-3.1,1.7,0,.89.6,1.46,1.85,1.46C40.05,147,41.18,146.1,41.18,144.77Z" fill="#fff"/><path d="M48,145.27h4.91c.18,1.13.69,1.76,2.21,1.76,1.3,0,1.9-.51,1.9-1.28s-.74-1.1-2.89-1.4c-4.16-.54-5.92-1.76-5.92-5,0-3.45,3.07-5.12,6.67-5.12,3.84,0,6.51,1.31,6.87,5H57a1.74,1.74,0,0,0-2-1.55c-1.16,0-1.76.51-1.76,1.22s.72,1,2.62,1.28c4.31.54,6.4,1.67,6.4,5,0,3.69-2.74,5.36-7,5.36S48.14,148.72,48,145.27Z" fill="#fff"/><path d="M64.65,145.21v-6.93H62.78v-3.63h1.87v-3.24H70v3.24h3.07v3.63H70v6.43a1.42,1.42,0,0,0,1.58,1.63,4.07,4.07,0,0,0,1.52-.27v4.05a11.17,11.17,0,0,1-3,.45C66.62,150.57,64.65,148.87,64.65,145.21Z" fill="#fff"/><path d="M74,152.62l2.5-7.83,4.93,1.76-4.28,7.29Z" fill="#fff"/><path d="M20.74,177.37v-.24c0-5,3.72-8.15,8.42-8.15,4.26,0,7.92,2.44,7.92,8v1.39H26.13c.15,2.06,1.34,3.25,3.24,3.25s2.5-.81,2.71-1.85h5c-.48,3.51-3.18,5.51-7.89,5.51C24.31,185.32,20.74,182.46,20.74,177.37Zm11.16-2c-.09-1.88-1-2.92-2.74-2.92s-2.7,1-3,2.92Z" fill="#fff"/><path d="M38.18,180.65c0-3.66,3.09-5.09,8.27-5.09h1.49v-.36c0-1.49-.36-2.47-2.06-2.47a1.91,1.91,0,0,0-2.11,1.85h-5C39,170.83,42,169,46.21,169s7,1.76,7,5.89V185H48.06v-1.81a5.13,5.13,0,0,1-4.62,2.17C40.65,185.32,38.18,184,38.18,180.65Zm9.76-1.13v-1h-1.4c-2.14,0-3.1.42-3.1,1.7,0,.89.6,1.46,1.85,1.46C46.81,181.72,47.94,180.85,47.94,179.52Z" fill="#fff"/><path d="M54.78,180h4.91c.17,1.13.68,1.76,2.2,1.76,1.31,0,1.9-.51,1.9-1.28s-.74-1.1-2.88-1.4c-4.17-.54-5.92-1.76-5.92-5,0-3.45,3.06-5.12,6.66-5.12,3.84,0,6.52,1.31,6.87,5H63.7a1.73,1.73,0,0,0-2-1.55c-1.16,0-1.76.51-1.76,1.22s.72,1,2.62,1.28c4.32.54,6.4,1.67,6.4,5,0,3.69-2.74,5.36-7,5.36S54.9,183.47,54.78,180Z" fill="#fff"/><path d="M75.07,183.38l-6.22-14h5.77l3.21,8.3,3-8.3H85.9l-8.33,20.77H72.48Z" fill="#fff"/><path d="M20.68,215.4c0-3.66,3.1-5.09,8.28-5.09h1.48V210c0-1.49-.35-2.47-2.05-2.47a1.91,1.91,0,0,0-2.11,1.85h-5c.24-3.75,3.18-5.6,7.44-5.6s7,1.76,7,5.89v10.09H30.56V217.9A5.1,5.1,0,0,1,26,220.07C23.15,220.07,20.68,218.7,20.68,215.4Zm9.76-1.13v-1H29.05c-2.15,0-3.1.42-3.1,1.7,0,.89.6,1.46,1.85,1.46C29.31,216.47,30.44,215.6,30.44,214.27Z" fill="#fff"/><path d="M38.33,204.15h5.32v2.5a5.49,5.49,0,0,1,5.12-2.92c3,0,5.09,1.88,5.09,5.86v10.12H48.53v-9.05c0-1.75-.68-2.61-2.23-2.61s-2.65.95-2.65,2.94v8.72H38.33Z" fill="#fff"/><path d="M55.67,212.09v-.24c0-5.29,2.92-8.12,6.61-8.12a5,5,0,0,1,4.79,2.62v-9h5.32v22.41H67.07v-2.53a5.25,5.25,0,0,1-4.85,2.89C58.62,220.07,55.67,217.48,55.67,212.09ZM67.21,212v-.23c0-2.62-1.1-4-3.06-4s-3.07,1.34-3.07,4.05V212c0,2.62,1.17,4,3,4S67.21,214.65,67.21,212Z" fill="#fff"/><path d="M79.62,215.4c0-3.66,3.09-5.09,8.27-5.09h1.49V210c0-1.49-.36-2.47-2.06-2.47a1.91,1.91,0,0,0-2.11,1.85h-5c.24-3.75,3.19-5.6,7.44-5.6s7,1.76,7,5.89v10.09H89.5V217.9a5.13,5.13,0,0,1-4.62,2.17C82.09,220.07,79.62,218.7,79.62,215.4Zm9.76-1.13v-1H88c-2.14,0-3.1.42-3.1,1.7,0,.89.6,1.46,1.85,1.46C88.25,216.47,89.38,215.6,89.38,214.27Z" fill="#fff"/><path d="M97.88,214.71v-6.93H96v-3.63h1.87v-3.24h5.33v3.24h3.07v3.63h-3.07v6.43a1.42,1.42,0,0,0,1.58,1.63,4.07,4.07,0,0,0,1.52-.27v4.05a11.17,11.17,0,0,1-3,.45C99.85,220.07,97.88,218.37,97.88,214.71Z" fill="#fff"/><path d="M21.73,232.05H27v22.41H21.73Z" fill="#fff"/><path d="M29,246.87v-.24c0-5,3.72-8.15,8.42-8.15,4.26,0,7.92,2.44,7.92,8v1.39h-11c.15,2.06,1.34,3.25,3.24,3.25s2.5-.81,2.71-1.85h5c-.48,3.51-3.18,5.51-7.89,5.51C32.61,254.82,29,252,29,246.87Zm11.16-2c-.09-1.88-1-2.92-2.74-2.92s-2.7,1-3,2.92Z" fill="#fff"/><path d="M46.48,250.15c0-3.66,3.09-5.09,8.27-5.09h1.49v-.36c0-1.49-.36-2.47-2.06-2.47a1.91,1.91,0,0,0-2.11,1.85h-5c.24-3.75,3.19-5.6,7.44-5.6s7,1.76,7,5.89v10.09H56.36v-1.81a5.13,5.13,0,0,1-4.62,2.17C49,254.82,46.48,253.45,46.48,250.15ZM56.24,249v-1h-1.4c-2.14,0-3.1.42-3.1,1.7,0,.89.6,1.46,1.85,1.46C55.11,251.22,56.24,250.35,56.24,249Z" fill="#fff"/><path d="M63.08,249.52H68c.18,1.13.68,1.76,2.2,1.76,1.31,0,1.9-.51,1.9-1.28s-.74-1.1-2.88-1.4c-4.17-.54-5.92-1.76-5.92-5,0-3.45,3.06-5.12,6.66-5.12,3.84,0,6.52,1.31,6.87,5H72A1.74,1.74,0,0,0,70,242c-1.16,0-1.76.51-1.76,1.22s.72,1,2.62,1.28c4.32.54,6.4,1.67,6.4,5,0,3.69-2.74,5.36-7,5.36S63.2,253,63.08,249.52Z" fill="#fff"/><path d="M79.71,249.46v-6.93H77.83V238.9h1.88v-3.24H85v3.24H88.1v3.63H85V249a1.42,1.42,0,0,0,1.58,1.63,4,4,0,0,0,1.52-.27v4.05a11.17,11.17,0,0,1-2.95.45C81.67,254.82,79.71,253.12,79.71,249.46Z" fill="#fff"/><path d="M99,244.73c-3-.21-4.46-1.81-4.58-4.1h3.21A1.64,1.64,0,0,0,99,242.26v-2.53c-3-.43-4.3-1.53-4.3-3.94,0-2.1,1.65-3.61,4.3-3.8v-1.54h1.36V232c2.51.21,4,1.37,4.21,3.75h-3.14a1.37,1.37,0,0,0-1.07-1.3v2.39c2.65.38,4.39,1.28,4.39,3.8,0,2.12-1.37,3.89-4.39,4.08v2.17H99Zm0-8.09v-2.22c-.78.14-1.18.56-1.18,1.11S98,236.45,99,236.64Zm1.36,3.32v2.3a1.24,1.24,0,0,0,1.16-1.23C101.47,240.46,101.23,240.16,100.31,240Z" fill="#fff"/><path d="M109.92,239.2l-4,2.5v-5.09l4.88-3.42H116v21.27h-6.1Z" fill="#fff"/><path d="M118.93,244.28v-.89c0-6.72,4.2-10.5,9.82-10.5s9.82,3.48,9.82,10.38v.84c0,6.75-3.87,10.71-9.94,10.71S118.93,251,118.93,244.28Zm13.54-.06v-.86c0-3.9-1.13-5.86-3.72-5.86s-3.72,1.93-3.72,5.86v.89c0,4,1.16,5.84,3.78,5.84S132.47,248.15,132.47,244.22Z" fill="#fff"/><path d="M20.74,281.62v-.24c0-5.17,3.72-8.15,8.31-8.15,3.8,0,7.32,1.67,7.61,6.4h-5a2.29,2.29,0,0,0-2.5-2.26c-1.87,0-3,1.34-3,4v.23c0,2.71,1,4.11,3.06,4.11A2.59,2.59,0,0,0,32,283.08h4.79c-.15,3.93-2.79,6.49-7.82,6.49C24.28,289.57,20.74,286.86,20.74,281.62Z" fill="#fff"/><path d="M38.47,266.8H43.8v9.35a5.49,5.49,0,0,1,5.12-2.92c3,0,5.09,1.88,5.09,5.86v10.12H48.68v-9c0-1.75-.68-2.61-2.23-2.61s-2.65.95-2.65,2.94v8.72H38.47Z" fill="#fff"/><path d="M55.76,281.62v-.24c0-5,3.72-8.15,8.42-8.15,4.25,0,7.91,2.44,7.91,8v1.39h-11c.15,2.06,1.34,3.25,3.25,3.25,1.75,0,2.5-.81,2.71-1.85h5c-.47,3.51-3.18,5.51-7.88,5.51C59.33,289.57,55.76,286.71,55.76,281.62Zm11.16-2c-.09-1.88-1-2.92-2.74-2.92s-2.71,1-3,2.92Z" fill="#fff"/><path d="M73.19,284.9c0-3.66,3.1-5.09,8.27-5.09H83v-.36c0-1.49-.36-2.47-2-2.47a1.9,1.9,0,0,0-2.11,1.85h-5c.24-3.75,3.18-5.6,7.44-5.6s7,1.76,7,5.89v10.09H83.07V287.4a5.1,5.1,0,0,1-4.61,2.17C75.66,289.57,73.19,288.2,73.19,284.9ZM83,283.77v-1h-1.4c-2.14,0-3.09.42-3.09,1.7,0,.89.59,1.46,1.84,1.46C81.82,286,83,285.1,83,283.77Z" fill="#fff"/><path d="M90.83,273.65h5.33V276a5.49,5.49,0,0,1,4.85-2.74c3.63,0,6.58,2.74,6.58,8.07v.23c0,5.36-3,8-6.61,8a5.13,5.13,0,0,1-4.82-2.65v7.5H90.83Zm11.34,7.88v-.23c0-2.74-1.19-4.05-3.06-4.05s-3.1,1.4-3.1,4v.23c0,2.65,1.16,4,3.1,4S102.17,284.09,102.17,281.53Z" fill="#fff"/><path d="M108.68,281.62v-.24c0-5,3.72-8.15,8.42-8.15,4.26,0,7.92,2.44,7.92,8v1.39h-11c.15,2.06,1.34,3.25,3.24,3.25s2.5-.81,2.71-1.85h5c-.48,3.51-3.19,5.51-7.89,5.51C112.25,289.57,108.68,286.71,108.68,281.62Zm11.16-2c-.09-1.88-1-2.92-2.74-2.92s-2.7,1-3,2.92Z" fill="#fff"/><path d="M126.86,273.65h5.33v3.09a4.89,4.89,0,0,1,5-3.3v5c-3.24-.09-5,.92-5,3.42v7.38h-5.33Z" fill="#fff"/><path d="M22.29,319V312H20.42V308.4h1.87v-3.24h5.33v3.24h3.06V312H27.62v6.43c0,1.13.56,1.63,1.57,1.63a4,4,0,0,0,1.52-.27v4.05a11,11,0,0,1-2.94.45C24.25,324.32,22.29,322.62,22.29,319Z" fill="#fff"/><path d="M32.7,301.55H38v9.35A5.49,5.49,0,0,1,43.15,308c3,0,5.09,1.88,5.09,5.86V324H42.91v-9c0-1.76-.69-2.62-2.23-2.62s-2.65.95-2.65,2.94V324H32.7Z" fill="#fff"/><path d="M49.93,319.65c0-3.66,3.09-5.09,8.27-5.09h1.49v-.36c0-1.49-.36-2.47-2.06-2.47a1.91,1.91,0,0,0-2.11,1.85h-5c.24-3.75,3.19-5.6,7.44-5.6s7,1.76,7,5.89V324H59.81v-1.81a5.13,5.13,0,0,1-4.62,2.17C52.4,324.32,49.93,323,49.93,319.65Zm9.76-1.14v-.95h-1.4c-2.14,0-3.1.42-3.1,1.7,0,.89.6,1.46,1.85,1.46C58.56,320.72,59.69,319.85,59.69,318.51Z" fill="#fff"/><path d="M67.57,308.4H72.9v2.5A5.47,5.47,0,0,1,78,308c3,0,5.09,1.88,5.09,5.86V324H77.78v-9c0-1.76-.69-2.62-2.24-2.62s-2.64.95-2.64,2.94V324H67.57Z" fill="#fff"/><path d="M26.13,342.14H20.62v-4.7H37.76v4.7h-5.5v16.57H26.13Z" fill="#fff"/><path d="M38.24,353.29V343.15h5.32v9.28c0,1.76.69,2.62,2.21,2.62s2.64-.95,2.64-2.95v-9h5.33v15.56H48.41V356.3a5.11,5.11,0,0,1-4.94,2.77C40.47,359.07,38.24,357.22,38.24,353.29Z" fill="#fff"/><path d="M56.44,343.15h5.33v3.09a4.9,4.9,0,0,1,5-3.3v5c-3.24-.09-5,.92-5,3.42v7.38H56.44Z" fill="#fff"/><path d="M74.06,356.3v2.41H68.73V336.3h5.33v9.17a5.49,5.49,0,0,1,4.85-2.74c3.63,0,6.57,2.74,6.57,8.06V351c0,5.36-2.94,8-6.6,8A5,5,0,0,1,74.06,356.3Zm6-5.27v-.24c0-2.73-1.19-4-3.07-4s-3.09,1.4-3.09,4V351c0,2.65,1.16,4,3.09,4S80.07,353.59,80.07,351Z" fill="#fff"/><path d="M86.58,351.12v-.24c0-5,3.72-8.15,8.54-8.15s8.48,3.07,8.48,8V351c0,5.06-3.72,8.1-8.51,8.1S86.58,356.15,86.58,351.12Zm11.6-.09v-.24c0-2.61-1-4.07-3.06-4.07s-3.09,1.4-3.09,4V351c0,2.68,1,4.14,3.09,4.14S98.18,353.62,98.18,351Z" fill="#fff"/><path d="M104.61,356a3,3,0,0,1,3-3,3,3,0,1,1,0,6A3,3,0,0,1,104.61,356Z" fill="#fff"/></g></g></svg>