<svg xmlns="http://www.w3.org/2000/svg" viewBox="0 0 160 600"><title>H36</title><g id="Layer_2" data-name="Layer 2"><g id="Rect"><rect width="160" height="600" fill="none"/></g><g id="H36"><g id="Federal_State:_fast_easy_and_at_least_10_cheaper_than_Turbo" data-name="Federal &amp; State: fast, easy and at least $10 cheaper than Turbo"><path d="M21.71,95.25H33.66v3.93H26.81V103h5.47v3.73H26.81V113h-5.1Z" fill="#fff"/><path d="M34,106.63v-.19c0-4.16,3.09-6.79,7-6.79,3.54,0,6.59,2,6.59,6.69v1.16H38.49a2.58,2.58,0,0,0,2.7,2.7c1.46,0,2.07-.67,2.25-1.54H47.6c-.4,2.92-2.65,4.58-6.56,4.58S34,110.87,34,106.63ZM43.29,105c-.07-1.56-.84-2.42-2.28-2.42A2.46,2.46,0,0,0,38.54,105Z" fill="#fff"/><path d="M48.49,106.61v-.2c0-4.4,2.42-6.76,5.49-6.76a4.22,4.22,0,0,1,4,2.18V94.31H62.4V113H58v-2.11a4.37,4.37,0,0,1-4,2.4C50.94,113.24,48.49,111.09,48.49,106.61Zm9.6-.07v-.2c0-2.18-.92-3.34-2.55-3.34S53,104.11,53,106.36v.2c0,2.18,1,3.29,2.5,3.29S58.09,108.74,58.09,106.54Z" fill="#fff"/><path d="M64,106.63v-.19c0-4.16,3.09-6.79,7-6.79,3.54,0,6.58,2,6.58,6.69v1.16h-9.1a2.58,2.58,0,0,0,2.69,2.7c1.46,0,2.08-.67,2.26-1.54h4.15c-.39,2.92-2.64,4.58-6.56,4.58S64,110.87,64,106.63ZM73.24,105c-.08-1.56-.84-2.42-2.28-2.42A2.46,2.46,0,0,0,68.48,105Z" fill="#fff"/><path d="M79.08,100h4.43v2.58a4.06,4.06,0,0,1,4.18-2.75V104c-2.7-.07-4.18.77-4.18,2.85V113H79.08Z" fill="#fff"/><path d="M88.26,109.36c0-3,2.57-4.24,6.88-4.24h1.24v-.29c0-1.24-.3-2.06-1.71-2.06a1.6,1.6,0,0,0-1.76,1.54H88.75c.2-3.12,2.65-4.66,6.19-4.66s5.84,1.46,5.84,4.91V113h-4.3v-1.51a4.26,4.26,0,0,1-3.84,1.8C90.31,113.24,88.26,112.1,88.26,109.36Zm8.12-.94v-.8H95.21c-1.78,0-2.57.35-2.57,1.41,0,.75.5,1.22,1.53,1.22C95.44,110.25,96.38,109.53,96.38,108.42Z" fill="#fff"/><path d="M103.06,94.31h4.41V113h-4.41Z" fill="#fff"/><path d="M35.64,139.08l3,3.62H32.82l-1-1.29A7,7,0,0,1,27,143c-3.76,0-6.21-2-6.21-5.34,0-2.28,1.39-4,3.89-5.15a5.62,5.62,0,0,1-1.09-3.1c0-3,2.57-4.62,5.69-4.62,2.82,0,5.37,1.41,5.37,4.13,0,1.93-1.14,3.34-3.54,4.38L33.34,136l1.29-2.52h3.86Zm-6.14-.52-2.79-3.36a2.09,2.09,0,0,0-1.19,1.9,2.05,2.05,0,0,0,2.25,2.2A2.29,2.29,0,0,0,29.5,138.56ZM29,131.43c1.19-.57,1.76-1.23,1.76-2.15a1.28,1.28,0,0,0-1.32-1.36,1.41,1.41,0,0,0-1.46,1.53A3.22,3.22,0,0,0,29,131.43Z" fill="#fff"/><path d="M43.56,137.08h4.83c.12,1.26.69,2.3,2.79,2.3,1.46,0,2.28-.72,2.28-1.76s-.67-1.38-2.8-1.71c-5-.59-6.68-2.08-6.68-5.64,0-3.19,2.63-5.52,6.86-5.52s6.66,1.78,7,5.52h-4.7a2,2,0,0,0-2.28-1.9c-1.36,0-2.06.61-2.06,1.5s.55,1.44,2.75,1.74c4.48.49,6.78,1.66,6.78,5.49,0,3.24-2.57,5.89-7.13,5.89C46.23,143,43.71,140.91,43.56,137.08Z" fill="#fff"/><path d="M60.54,138.54v-5.77H59v-3h1.56v-2.7H65v2.7h2.55v3H65v5.35c0,.94.47,1.36,1.31,1.36a3.29,3.29,0,0,0,1.26-.23v3.37a9.24,9.24,0,0,1-2.45.37C62.17,143,60.54,141.58,60.54,138.54Z" fill="#fff"/><path d="M68.51,139.11c0-3.05,2.57-4.24,6.88-4.24h1.24v-.29c0-1.24-.3-2.06-1.71-2.06a1.6,1.6,0,0,0-1.76,1.54H69c.2-3.12,2.65-4.66,6.19-4.66S81,130.86,81,134.31v8.39h-4.3v-1.51a4.26,4.26,0,0,1-3.84,1.8C70.56,143,68.51,141.85,68.51,139.11Zm8.12-.94v-.8H75.46c-1.78,0-2.57.35-2.57,1.41,0,.75.49,1.22,1.53,1.22C75.69,140,76.63,139.28,76.63,138.17Z" fill="#fff"/><path d="M83.71,138.54v-5.77H82.15v-3h1.56v-2.7h4.43v2.7h2.54v3H88.14v5.35c0,.94.47,1.36,1.31,1.36a3.37,3.37,0,0,0,1.26-.23v3.37a9.24,9.24,0,0,1-2.45.37C85.34,143,83.71,141.58,83.71,138.54Z" fill="#fff"/><path d="M91.67,136.38v-.19c0-4.16,3.1-6.79,7-6.79,3.54,0,6.58,2,6.58,6.69v1.16H96.15a2.59,2.59,0,0,0,2.7,2.7c1.46,0,2.08-.67,2.25-1.54h4.16c-.39,2.92-2.65,4.58-6.56,4.58C94.64,143,91.67,140.62,91.67,136.38Zm9.29-1.63c-.08-1.56-.85-2.42-2.28-2.42a2.46,2.46,0,0,0-2.48,2.42Z" fill="#fff"/><path d="M106.7,133.39a2.48,2.48,0,0,1,2.52-2.5,2.5,2.5,0,1,1,0,5A2.47,2.47,0,0,1,106.7,133.39Zm0,7.08a2.48,2.48,0,0,1,2.52-2.5,2.5,2.5,0,1,1,0,5A2.49,2.49,0,0,1,106.7,140.47Z" fill="#fff"/><path d="M22,162.52H20.35v-3H22v-1.14c0-3.21,2-4.75,5.07-4.75a7.8,7.8,0,0,1,2,.27v3.25a4,4,0,0,0-1.21-.18,1.3,1.3,0,0,0-1.48,1.41v1.14H29v3H26.39v9.93H22Z" fill="#fff"/><path d="M29.5,168.86c0-3.05,2.58-4.24,6.88-4.24h1.24v-.29c0-1.24-.3-2.06-1.71-2.06a1.59,1.59,0,0,0-1.75,1.54H30c.2-3.12,2.65-4.66,6.19-4.66S42,160.61,42,164.06v8.39H37.72v-1.51a4.26,4.26,0,0,1-3.84,1.8C31.56,172.74,29.5,171.6,29.5,168.86Zm8.12-.94v-.8H36.46c-1.78,0-2.58.35-2.58,1.41,0,.75.5,1.22,1.54,1.22A2,2,0,0,0,37.62,167.92Z" fill="#fff"/><path d="M43.31,168.34H47.4c.15.94.57,1.46,1.83,1.46,1.09,0,1.58-.42,1.58-1.07s-.62-.91-2.4-1.16c-3.46-.45-4.92-1.46-4.92-4.16,0-2.87,2.55-4.26,5.54-4.26,3.19,0,5.42,1.09,5.72,4.19h-4a1.44,1.44,0,0,0-1.66-1.29c-1,0-1.46.42-1.46,1s.59.87,2.18,1.07c3.59.44,5.32,1.39,5.32,4.16,0,3.07-2.28,4.45-5.87,4.45S43.41,171.21,43.31,168.34Z" fill="#fff"/><path d="M57.15,168.29v-5.77H55.59v-3h1.56v-2.7h4.43v2.7h2.55v3H61.58v5.35c0,.94.47,1.36,1.31,1.36a3.29,3.29,0,0,0,1.26-.23v3.37a9.24,9.24,0,0,1-2.45.37C58.78,172.74,57.15,171.33,57.15,168.29Z" fill="#fff"/><path d="M64.9,174.45,67,167.94l4.11,1.46-3.56,6.06Z" fill="#fff"/><path d="M76.83,166.13v-.19c0-4.16,3.09-6.79,7-6.79,3.54,0,6.58,2,6.58,6.69V167H81.3a2.59,2.59,0,0,0,2.7,2.7c1.46,0,2.08-.67,2.25-1.54h4.16c-.39,2.92-2.65,4.58-6.56,4.58S76.83,170.37,76.83,166.13Zm9.28-1.63c-.08-1.56-.85-2.42-2.28-2.42a2.46,2.46,0,0,0-2.48,2.42Z" fill="#fff"/><path d="M91.33,168.86c0-3.05,2.57-4.24,6.88-4.24h1.24v-.29c0-1.24-.3-2.06-1.71-2.06A1.6,1.6,0,0,0,96,163.81H91.82c.2-3.12,2.65-4.66,6.19-4.66s5.84,1.46,5.84,4.91v8.39H99.54v-1.51a4.23,4.23,0,0,1-3.83,1.8C93.38,172.74,91.33,171.6,91.33,168.86Zm8.12-.94v-.8H98.28c-1.78,0-2.57.35-2.57,1.41,0,.75.49,1.22,1.53,1.22C98.51,169.75,99.45,169,99.45,167.92Z" fill="#fff"/><path d="M105.14,168.34h4.08c.15.94.57,1.46,1.83,1.46,1.09,0,1.59-.42,1.59-1.07s-.62-.91-2.4-1.16c-3.47-.45-4.93-1.46-4.93-4.16,0-2.87,2.55-4.26,5.55-4.26,3.19,0,5.42,1.09,5.71,4.19h-4a1.44,1.44,0,0,0-1.65-1.29c-1,0-1.47.42-1.47,1s.6.87,2.18,1.07c3.59.44,5.32,1.39,5.32,4.16,0,3.07-2.27,4.45-5.86,4.45S105.24,171.21,105.14,168.34Z" fill="#fff"/><path d="M122,171.13l-5.18-11.63h4.81l2.67,6.91,2.47-6.91H131l-6.93,17.28h-4.24Z" fill="#fff"/><path d="M20.57,198.61c0-3.05,2.57-4.24,6.88-4.24h1.24v-.29c0-1.24-.3-2.06-1.71-2.06a1.6,1.6,0,0,0-1.76,1.54H21.06c.2-3.12,2.65-4.66,6.19-4.66s5.84,1.46,5.84,4.91v8.39h-4.3v-1.51a4.26,4.26,0,0,1-3.84,1.8C22.62,202.49,20.57,201.35,20.57,198.61Zm8.12-.94v-.8H27.52c-1.78,0-2.57.35-2.57,1.41,0,.75.49,1.22,1.53,1.22C27.75,199.5,28.69,198.78,28.69,197.67Z" fill="#fff"/><path d="M35.25,189.25h4.43v2.08a4.56,4.56,0,0,1,4.25-2.43c2.5,0,4.24,1.56,4.24,4.88v8.42H43.73v-7.53c0-1.46-.56-2.18-1.85-2.18s-2.2.8-2.2,2.45v7.26H35.25Z" fill="#fff"/><path d="M49.67,195.86v-.2c0-4.4,2.43-6.76,5.5-6.76a4.19,4.19,0,0,1,4,2.18v-7.52h4.43V202.2H59.15v-2.11a4.35,4.35,0,0,1-4,2.4C52.13,202.49,49.67,200.34,49.67,195.86Zm9.61-.07v-.2c0-2.18-.92-3.34-2.55-3.34s-2.55,1.11-2.55,3.36v.2c0,2.18,1,3.29,2.5,3.29S59.28,198,59.28,195.79Z" fill="#fff"/><path d="M69.6,198.61c0-3.05,2.57-4.24,6.88-4.24h1.24v-.29c0-1.24-.3-2.06-1.71-2.06a1.6,1.6,0,0,0-1.76,1.54H70.09c.2-3.12,2.65-4.66,6.19-4.66s5.84,1.46,5.84,4.91v8.39H77.81v-1.51a4.23,4.23,0,0,1-3.83,1.8C71.65,202.49,69.6,201.35,69.6,198.61Zm8.12-.94v-.8H76.55c-1.78,0-2.57.35-2.57,1.41,0,.75.49,1.22,1.53,1.22C76.78,199.5,77.72,198.78,77.72,197.67Z" fill="#fff"/><path d="M84.79,198v-5.77H83.24v-3h1.55v-2.7h4.43v2.7h2.55v3H89.22v5.35A1.19,1.19,0,0,0,90.54,199a3.37,3.37,0,0,0,1.26-.23v3.37a9.24,9.24,0,0,1-2.45.37C86.43,202.49,84.79,201.08,84.79,198Z" fill="#fff"/><path d="M21.44,213.31h4.4V232h-4.4Z" fill="#fff"/><path d="M27.52,225.63v-.19c0-4.16,3.1-6.79,7-6.79,3.54,0,6.58,2,6.58,6.69v1.16H32a2.59,2.59,0,0,0,2.7,2.7c1.46,0,2.08-.67,2.25-1.54h4.16c-.39,2.92-2.65,4.58-6.56,4.58S27.52,229.87,27.52,225.63ZM36.8,224c-.07-1.56-.84-2.42-2.27-2.42A2.46,2.46,0,0,0,32.05,224Z" fill="#fff"/><path d="M42,228.36c0-3.05,2.57-4.24,6.88-4.24h1.23v-.29c0-1.24-.29-2.06-1.7-2.06a1.59,1.59,0,0,0-1.76,1.54H42.52c.2-3.12,2.65-4.66,6.19-4.66s5.84,1.46,5.84,4.91V232H50.24v-1.51a4.23,4.23,0,0,1-3.83,1.8C44.08,232.24,42,231.1,42,228.36Zm8.11-.94v-.8H49c-1.78,0-2.57.35-2.57,1.41,0,.75.49,1.22,1.53,1.22A2,2,0,0,0,50.14,227.42Z" fill="#fff"/><path d="M55.84,227.84h4.08c.15.94.57,1.46,1.83,1.46,1.09,0,1.59-.42,1.59-1.07s-.62-.91-2.4-1.16c-3.47-.45-4.93-1.46-4.93-4.16,0-2.87,2.55-4.26,5.54-4.26,3.2,0,5.42,1.09,5.72,4.19h-4a1.44,1.44,0,0,0-1.66-1.29c-1,0-1.46.42-1.46,1s.6.87,2.18,1.07c3.59.44,5.32,1.39,5.32,4.16,0,3.07-2.27,4.45-5.86,4.45S55.94,230.71,55.84,227.84Z" fill="#fff"/><path d="M69.67,227.79V222H68.11v-3h1.56v-2.7H74.1V219h2.55v3H74.1v5.35c0,.94.47,1.36,1.31,1.36a3.38,3.38,0,0,0,1.27-.23v3.37a9.24,9.24,0,0,1-2.45.37C71.31,232.24,69.67,230.83,69.67,227.79Z" fill="#fff"/><path d="M85.68,223.85c-2.49-.18-3.71-1.5-3.81-3.41h2.67a1.38,1.38,0,0,0,1.14,1.36v-2.11c-2.51-.36-3.58-1.27-3.58-3.28,0-1.74,1.38-3,3.58-3.16V212h1.13v1.3c2.09.17,3.33,1.14,3.51,3.11H87.71a1.17,1.17,0,0,0-.9-1.08v2c2.21.32,3.65,1.07,3.65,3.17,0,1.76-1.14,3.23-3.65,3.39v1.8H85.68Zm0-6.73v-1.85c-.64.12-1,.47-1,.93S84.91,217,85.68,217.12Zm1.13,2.76v1.92a1,1,0,0,0,1-1C87.78,220.3,87.58,220.05,86.81,219.88Z" fill="#fff"/><path d="M94.8,219.25l-3.36,2.08V217.1l4.06-2.85h4.38V232H94.8Z" fill="#fff"/><path d="M102.3,223.48v-.74c0-5.6,3.49-8.74,8.17-8.74s8.17,2.9,8.17,8.64v.69c0,5.62-3.22,8.91-8.27,8.91S102.3,229.05,102.3,223.48Zm11.26,0v-.72c0-3.24-.94-4.87-3.09-4.87s-3.09,1.61-3.09,4.87v.75c0,3.29,1,4.85,3.14,4.85S113.56,226.7,113.56,223.43Z" fill="#fff"/><path d="M20.62,255.38v-.19c0-4.31,3.09-6.79,6.9-6.79,3.17,0,6.09,1.39,6.34,5.33H29.7a1.92,1.92,0,0,0-2.08-1.89c-1.56,0-2.47,1.12-2.47,3.3v.19c0,2.26.86,3.42,2.55,3.42A2.16,2.16,0,0,0,30,256.6h4c-.12,3.26-2.32,5.39-6.51,5.39C23.56,262,20.62,259.74,20.62,255.38Z" fill="#fff"/><path d="M35.37,243.06H39.8v7.77a4.56,4.56,0,0,1,4.26-2.43c2.5,0,4.23,1.56,4.23,4.88v8.42H43.86v-7.53c0-1.46-.57-2.18-1.86-2.18s-2.2.8-2.2,2.45v7.26H35.37Z" fill="#fff"/><path d="M49.75,255.38v-.19c0-4.16,3.09-6.79,7-6.79,3.54,0,6.59,2,6.59,6.69v1.16H54.23a2.58,2.58,0,0,0,2.7,2.7c1.46,0,2.08-.67,2.25-1.54h4.16c-.4,2.92-2.65,4.58-6.56,4.58C52.72,262,49.75,259.62,49.75,255.38ZM59,253.75c-.07-1.56-.84-2.42-2.28-2.42a2.46,2.46,0,0,0-2.47,2.42Z" fill="#fff"/><path d="M64.25,258.11c0-3.05,2.58-4.24,6.88-4.24h1.24v-.29c0-1.24-.3-2.06-1.71-2.06a1.58,1.58,0,0,0-1.75,1.54H64.75c.2-3.12,2.65-4.66,6.18-4.66s5.85,1.46,5.85,4.91v8.39H72.47v-1.51a4.26,4.26,0,0,1-3.84,1.8C66.31,262,64.25,260.85,64.25,258.11Zm8.12-.94v-.8H71.21c-1.79,0-2.58.35-2.58,1.41,0,.75.5,1.22,1.54,1.22A2,2,0,0,0,72.37,257.17Z" fill="#fff"/><path d="M78.93,248.75h4.43v1.93a4.56,4.56,0,0,1,4-2.28c3,0,5.47,2.28,5.47,6.71v.2c0,4.45-2.45,6.68-5.49,6.68a4.25,4.25,0,0,1-4-2.2V266H78.93Zm9.43,6.56v-.2c0-2.28-1-3.36-2.55-3.36s-2.57,1.16-2.57,3.34v.2c0,2.2,1,3.31,2.57,3.31S88.36,257.44,88.36,255.31Z" fill="#fff"/><path d="M93.78,255.38v-.19c0-4.16,3.09-6.79,7-6.79,3.54,0,6.59,2,6.59,6.69v1.16H98.26A2.58,2.58,0,0,0,101,259c1.46,0,2.08-.67,2.25-1.54h4.16c-.4,2.92-2.65,4.58-6.56,4.58C96.75,262,93.78,259.62,93.78,255.38Zm9.28-1.63c-.07-1.56-.84-2.42-2.28-2.42a2.46,2.46,0,0,0-2.47,2.42Z" fill="#fff"/><path d="M108.9,248.75h4.43v2.58a4.07,4.07,0,0,1,4.18-2.75v4.13c-2.69-.07-4.18.77-4.18,2.85v6.14H108.9Z" fill="#fff"/><path d="M21.91,287.29v-5.77H20.35v-3h1.56v-2.7h4.43v2.7h2.55v3H26.34v5.35c0,.94.47,1.36,1.31,1.36a3.37,3.37,0,0,0,1.26-.23v3.37a9.24,9.24,0,0,1-2.45.37C23.54,291.74,21.91,290.33,21.91,287.29Z" fill="#fff"/><path d="M30.57,272.81H35v7.77a4.56,4.56,0,0,1,4.26-2.43c2.49,0,4.23,1.56,4.23,4.88v8.42H39.06v-7.53c0-1.46-.57-2.18-1.86-2.18s-2.2.8-2.2,2.45v7.26H30.57Z" fill="#fff"/><path d="M44.9,287.86c0-3.05,2.57-4.24,6.88-4.24H53v-.29c0-1.24-.3-2.06-1.71-2.06a1.6,1.6,0,0,0-1.76,1.54H45.39c.2-3.12,2.65-4.66,6.19-4.66s5.84,1.46,5.84,4.91v8.39h-4.3v-1.51a4.26,4.26,0,0,1-3.84,1.8C47,291.74,44.9,290.6,44.9,287.86Zm8.12-.94v-.8H51.85c-1.78,0-2.57.35-2.57,1.41,0,.75.49,1.22,1.53,1.22C52.08,288.75,53,288,53,286.92Z" fill="#fff"/><path d="M59.57,278.5H64v2.08a4.58,4.58,0,0,1,4.26-2.43c2.5,0,4.23,1.56,4.23,4.88v8.42H68.06v-7.53c0-1.46-.57-2.18-1.85-2.18s-2.21.8-2.21,2.45v7.26H59.57Z" fill="#fff"/><path d="M25.1,307.41H20.52V303.5H34.78v3.91H30.2V321.2H25.1Z" fill="#fff"/><path d="M35.17,316.69v-8.44H39.6V316c0,1.46.57,2.18,1.83,2.18s2.21-.79,2.21-2.45v-7.45h4.43V321.2H43.64v-2a4.26,4.26,0,0,1-4.11,2.3C37,321.49,35.17,320,35.17,316.69Z" fill="#fff"/><path d="M50.32,308.25h4.43v2.58a4.07,4.07,0,0,1,4.18-2.75v4.13c-2.7-.07-4.18.77-4.18,2.85v6.14H50.32Z" fill="#fff"/><path d="M65,319.19v2H60.54V302.56H65v7.62a4.56,4.56,0,0,1,4-2.28c3,0,5.47,2.28,5.47,6.71v.2c0,4.45-2.45,6.68-5.49,6.68A4.19,4.19,0,0,1,65,319.19Zm5-4.38v-.2c0-2.28-1-3.36-2.55-3.36s-2.57,1.16-2.57,3.34v.2c0,2.2,1,3.31,2.57,3.31S70,316.94,70,314.81Z" fill="#fff"/><path d="M75.39,314.88v-.19c0-4.16,3.09-6.79,7.1-6.79s7.06,2.55,7.06,6.66v.2c0,4.21-3.1,6.73-7.08,6.73S75.39,319.07,75.39,314.88Zm9.65-.07v-.2c0-2.18-.86-3.39-2.55-3.39s-2.57,1.16-2.57,3.34v.2c0,2.23.87,3.44,2.57,3.44S85,317,85,314.81Z" fill="#fff"/><path d="M94.89,307.41H90.31V303.5h14.26v3.91H100V321.2h-5.1Z" fill="#fff"/><path d="M103.68,317.61c0-3.05,2.57-4.24,6.88-4.24h1.24v-.29c0-1.24-.3-2.06-1.71-2.06a1.6,1.6,0,0,0-1.76,1.54h-4.16c.2-3.12,2.65-4.66,6.19-4.66s5.84,1.46,5.84,4.9v8.4h-4.3v-1.51a4.26,4.26,0,0,1-3.84,1.8C105.73,321.49,103.68,320.35,103.68,317.61Zm8.12-.94v-.8h-1.17c-1.78,0-2.57.35-2.57,1.41,0,.75.49,1.22,1.53,1.22C110.86,318.5,111.8,317.78,111.8,316.67Z" fill="#fff"/><path d="M121.62,314.61l-4-6.36h5.1l2,3.42,2-3.42h4.55l-4.08,6,4.48,6.93h-5.1l-2.3-3.87-2.35,3.87h-4.53Z" fill="#fff"/><path d="M132.49,319a2.46,2.46,0,0,1,2.52-2.5,2.5,2.5,0,1,1,0,5A2.47,2.47,0,0,1,132.49,319Z" fill="#fff"/></g></g></g></svg>