<svg xmlns="http://www.w3.org/2000/svg" viewBox="0 0 600 500"><title>H2</title><g id="Layer_2" data-name="Layer 2"><g id="Rectangle_3" data-name="Rectangle 3" style="isolation:isolate"><g id="Rectangle_3-2" data-name="Rectangle 3"><rect width="600" height="500" fill="none"/></g></g><g id="TOTALLY"><g id="Totally_transparent_pricing." data-name="Totally transparent pricing."><path d="M53,72.39H39.53V60.85H81.59V72.39H68.08v40.67H53Z" fill="#fff"/><path d="M78.38,94.44v-.58c0-12.27,9.12-20,21-20s20.81,7.52,20.81,19.64v.59c0,12.41-9.13,19.86-20.88,19.86S78.38,106.78,78.38,94.44Zm28.47-.22v-.58c0-6.43-2.55-10-7.52-10s-7.59,3.43-7.59,9.85v.59c0,6.57,2.55,10.15,7.59,10.15S106.85,100.57,106.85,94.22Z" fill="#fff"/><path d="M126.49,100.79v-17h-4.6V74.87h4.6v-8h13.07v8h7.52v8.91h-7.52V99.55c0,2.78,1.39,4,3.87,4a10,10,0,0,0,3.73-.66v9.93a27.31,27.31,0,0,1-7.23,1.1C131.31,113.94,126.49,109.77,126.49,100.79Z" fill="#fff"/><path d="M150,102.47c0-9,7.59-12.48,20.29-12.48H174v-.88c0-3.65-.87-6.06-5-6.06-3.58,0-4.9,2.12-5.19,4.53H151.47c.58-9.2,7.81-13.73,18.25-13.73S187,78.16,187,88.31v24.75h-12.7v-4.45c-1.83,2.77-5.19,5.33-11.32,5.33C156.07,113.94,150,110.58,150,102.47ZM174,99.7V97.36h-3.43c-5.25,0-7.59,1-7.59,4.16,0,2.19,1.46,3.58,4.53,3.58C171.18,105.1,174,103,174,99.7Z" fill="#fff"/><path d="M193.67,58.08h13v55h-13Z" fill="#fff"/><path d="M214,58.08h13v55H214Z" fill="#fff"/><path d="M246,109.19,230.76,74.87h14.16l7.89,20.37,7.3-20.37H272.6l-20.45,51H239.67Z" fill="#fff"/><path d="M43.62,178V161H39v-8.91h4.6v-8H56.69v8h7.52V161H56.69v15.77c0,2.78,1.39,4,3.87,4a9.87,9.87,0,0,0,3.72-.66V190a27.28,27.28,0,0,1-7.22,1.09C48.44,191.12,43.62,187,43.62,178Z" fill="#fff"/><path d="M69.18,152.06H82.25v7.6c2.41-5.7,6.42-8.18,12.34-8.11v12.19c-8-.21-12.34,2.27-12.34,8.4v18.11H69.18Z" fill="#fff"/><path d="M96.27,179.66c0-9,7.59-12.48,20.29-12.48h3.65v-.88c0-3.65-.87-6.06-5-6.06-3.58,0-4.89,2.12-5.19,4.53H97.73c.58-9.2,7.81-13.73,18.25-13.73s17.23,4.31,17.23,14.46v24.75h-12.7v-4.46c-1.83,2.78-5.19,5.33-11.32,5.33C102.33,191.12,96.27,187.77,96.27,179.66Zm23.94-2.77v-2.34h-3.43c-5.25,0-7.59,1-7.59,4.16,0,2.19,1.46,3.58,4.53,3.58C117.44,182.29,120.21,180.17,120.21,176.89Z" fill="#fff"/><path d="M139.56,152.06h13.07v6.14c2.05-3.95,6.21-7.16,12.56-7.16,7.38,0,12.49,4.6,12.49,14.38v24.83H164.61v-22.2c0-4.31-1.68-6.42-5.48-6.42s-6.5,2.33-6.5,7.22v21.4H139.56Z" fill="#fff"/><path d="M181.48,178.13h12c.44,2.77,1.68,4.31,5.41,4.31,3.21,0,4.67-1.25,4.67-3.14s-1.83-2.71-7.08-3.44c-10.23-1.31-14.53-4.3-14.53-12.26,0-8.47,7.52-12.56,16.35-12.56,9.42,0,16,3.21,16.87,12.34H203.38c-.51-2.56-1.9-3.8-4.89-3.8s-4.31,1.24-4.31,3,1.75,2.55,6.42,3.14c10.59,1.31,15.7,4.08,15.7,12.26,0,9.06-6.71,13.14-17.3,13.14C188.12,191.12,181.77,186.6,181.48,178.13Z" fill="#fff"/><path d="M220.54,152.06h13.07v5.7a13.47,13.47,0,0,1,11.9-6.72c8.91,0,16.14,6.72,16.14,19.79v.58c0,13.14-7.23,19.71-16.21,19.71-5.77,0-9.93-2.7-11.83-6.49V203H220.54Zm27.82,19.35v-.58c0-6.72-2.92-9.93-7.52-9.93-4.75,0-7.6,3.43-7.6,9.85v.59c0,6.5,2.85,9.78,7.6,9.78S248.36,177.69,248.36,171.41Z" fill="#fff"/><path d="M264.2,179.66c0-9,7.6-12.48,20.3-12.48h3.65v-.88c0-3.65-.88-6.06-5-6.06-3.57,0-4.89,2.12-5.18,4.53H265.66c.59-9.2,7.82-13.73,18.26-13.73s17.23,4.31,17.23,14.46v24.75H288.44v-4.46c-1.82,2.78-5.18,5.33-11.31,5.33C270.26,191.12,264.2,187.77,264.2,179.66Zm23.95-2.77v-2.34h-3.43c-5.26,0-7.59,1-7.59,4.16,0,2.19,1.46,3.58,4.52,3.58C285.38,182.29,288.15,180.17,288.15,176.89Z" fill="#fff"/><path d="M307.5,152.06h13.07v7.6c2.41-5.7,6.42-8.18,12.34-8.11v12.19c-8-.21-12.34,2.27-12.34,8.4v18.11H307.5Z" fill="#fff"/><path d="M335.25,171.63v-.58c0-12.27,9.12-20,20.66-20,10.44,0,19.42,6,19.42,19.71v3.44H348.46c.37,5,3.29,7.95,8,7.95,4.31,0,6.13-2,6.64-4.52h12.27c-1.17,8.61-7.81,13.5-19.35,13.5C344,191.12,335.25,184.11,335.25,171.63Zm27.38-4.82c-.22-4.6-2.49-7.15-6.72-7.15-4,0-6.65,2.55-7.3,7.15Z" fill="#fff"/><path d="M379.86,152.06h13.07v6.14c2-3.95,6.2-7.16,12.55-7.16,7.38,0,12.49,4.6,12.49,14.38v24.83H404.9v-22.2c0-4.31-1.68-6.42-5.48-6.42s-6.49,2.33-6.49,7.22v21.4H379.86Z" fill="#fff"/><path d="M426.08,178V161h-4.6v-8.91h4.6v-8h13.07v8h7.52V161h-7.52v15.77c0,2.78,1.38,4,3.87,4a9.91,9.91,0,0,0,3.72-.66V190a27.37,27.37,0,0,1-7.23,1.09C430.89,191.12,426.08,187,426.08,178Z" fill="#fff"/><path d="M41.87,229.25H54.94V235a13.45,13.45,0,0,1,11.9-6.72C75.75,228.23,83,235,83,248v.58c0,13.14-7.23,19.71-16.21,19.71-5.77,0-9.93-2.7-11.83-6.5v18.4H41.87ZM69.69,248.6V248c0-6.72-2.92-9.94-7.52-9.94-4.75,0-7.6,3.44-7.6,9.86v.59c0,6.49,2.85,9.78,7.6,9.78S69.69,254.88,69.69,248.6Z" fill="#fff"/><path d="M87.72,229.25h13.07v7.59c2.41-5.69,6.43-8.17,12.34-8.1v12.19c-8-.22-12.34,2.27-12.34,8.4v18.11H87.72Z" fill="#fff"/><path d="M117.59,218.88a6.82,6.82,0,0,1,7.15-6.79c4.09,0,7.23,2.92,7.23,6.79s-3.14,6.72-7.23,6.72S117.59,222.75,117.59,218.88Zm.65,10.37h13.07v38.19H118.24Z" fill="#fff"/><path d="M136.28,248.82v-.59c0-12.7,9.13-20,20.37-20,9.35,0,18,4.09,18.69,15.7H163.07c-.58-3.58-2.33-5.55-6.13-5.55-4.6,0-7.3,3.28-7.3,9.71v.58c0,6.65,2.56,10.08,7.52,10.08,3.65,0,6.21-2.19,6.64-6.35h11.76c-.37,9.63-6.86,15.91-19.2,15.91C145,268.31,136.28,261.67,136.28,248.82Z" fill="#fff"/><path d="M179.5,218.88a6.82,6.82,0,0,1,7.16-6.79c4.09,0,7.23,2.92,7.23,6.79s-3.14,6.72-7.23,6.72S179.5,222.75,179.5,218.88Zm.66,10.37h13.07v38.19H180.16Z" fill="#fff"/><path d="M200.24,229.25h13.07v6.13c2-3.94,6.21-7.15,12.56-7.15,7.37,0,12.48,4.6,12.48,14.38v24.83H225.28v-22.2c0-4.31-1.68-6.42-5.47-6.42s-6.5,2.33-6.5,7.22v21.4H200.24Z" fill="#fff"/><path d="M242.59,267.44h13c.59,2.77,2.27,5,7,5,5.77,0,8.11-3.28,8.11-8v-5.84a13.39,13.39,0,0,1-11.83,7c-8.91,0-16.21-6.57-16.21-18.33v-.58c0-11.25,7.23-18.4,16.21-18.4,6.06,0,9.64,2.55,11.83,6.42v-5.4h13.07v35c0,11.39-7.52,17.38-21.18,17.38C249.6,281.6,243.61,276.13,242.59,267.44Zm28.47-20.3v-.51c0-5.26-2.7-8.62-7.52-8.62S256,241.44,256,246.7v.58c0,5.26,2.78,8.62,7.45,8.62S271.06,252.54,271.06,247.14Z" fill="#fff"/><path d="M289.9,260.87a7.28,7.28,0,0,1,7.45-7.38,7.38,7.38,0,1,1,0,14.75A7.28,7.28,0,0,1,289.9,260.87Z" fill="#fff"/></g></g></g></svg>