<svg xmlns="http://www.w3.org/2000/svg" viewBox="0 0 300 600"><title>H51</title><g id="Layer_2" data-name="Layer 2"><g id="Rect"><rect width="300" height="600" fill="none"/></g><g id="H51"><g id="Power_hour._Your_taxes_could_be_done_in_an_hour._" data-name="Power hour. Your taxes could be done in an hour. "><path d="M21.16,108.14H33.63c9,0,13.16,4,13.16,11v.19c0,6.87-4.63,10.59-12.75,10.59H30.51v11H21.16Zm12.06,15.31c3,0,4.63-1.42,4.63-4.13v-.18c0-2.8-1.65-3.94-4.59-3.94H30.51v8.25Z" fill="#fff"/><path d="M47.52,129.22v-.36c0-7.7,5.73-12.56,13.15-12.56S73.74,121,73.74,128.63V129c0,7.79-5.73,12.46-13.11,12.46S47.52,137,47.52,129.22Zm17.87-.13v-.37c0-4-1.6-6.28-4.72-6.28s-4.76,2.16-4.76,6.19V129c0,4.12,1.6,6.37,4.76,6.37S65.39,133.08,65.39,129.09Z" fill="#fff"/><path d="M73.83,116.94H82.4l3.48,14.35,4-14.35h6.6l3.57,14.35,3.9-14.35h7.79l-7.61,24H96.33l-3.57-13.38L89,140.91h-8Z" fill="#fff"/><path d="M111.55,129.22v-.36c0-7.7,5.73-12.56,13-12.56,6.56,0,12.19,3.76,12.19,12.37v2.16H119.85c.22,3.16,2.06,5,5,5,2.71,0,3.85-1.24,4.17-2.85h7.7c-.73,5.41-4.9,8.48-12.14,8.48C117.05,141.46,111.55,137.06,111.55,129.22Zm17.19-3c-.14-2.89-1.56-4.49-4.22-4.49-2.47,0-4.17,1.6-4.58,4.49Z" fill="#fff"/><path d="M139.55,116.94h8.21v4.77a7.54,7.54,0,0,1,7.74-5.09v7.65c-5-.13-7.74,1.43-7.74,5.28v11.36h-8.21Z" fill="#fff"/><path d="M166.83,106.4H175v14.39a8.47,8.47,0,0,1,7.88-4.49c4.63,0,7.84,2.89,7.84,9v15.58h-8.2V127c0-2.71-1.06-4-3.44-4s-4.08,1.47-4.08,4.54v13.43h-8.2Z" fill="#fff"/><path d="M193.45,129.22v-.36c0-7.7,5.73-12.56,13.16-12.56s13.06,4.72,13.06,12.33V129c0,7.79-5.73,12.46-13.11,12.46S193.45,137,193.45,129.22Zm17.88-.13v-.37c0-4-1.6-6.28-4.72-6.28s-4.77,2.16-4.77,6.19V129c0,4.12,1.61,6.37,4.77,6.37S211.33,133.08,211.33,129.09Z" fill="#fff"/><path d="M222.38,132.57V116.94h8.2v14.3c0,2.71,1.06,4,3.39,4s4.08-1.47,4.08-4.54v-13.8h8.21v24h-8.21V137.2c-1.28,2.48-3.62,4.26-7.61,4.26C225.81,141.46,222.38,138.62,222.38,132.57Z" fill="#fff"/><path d="M250.43,116.94h8.2v4.77a7.55,7.55,0,0,1,7.75-5.09v7.65c-5-.13-7.75,1.43-7.75,5.28v11.36h-8.2Z" fill="#fff"/><path d="M266.29,136.79a4.57,4.57,0,0,1,4.67-4.63,4.63,4.63,0,1,1,0,9.26A4.57,4.57,0,0,1,266.29,136.79Z" fill="#fff"/><path d="M29.05,185.05,18.37,166.31H28.59l5.54,11,5.55-11h9L38.49,185.05v14H29.05Z" fill="#fff"/><path d="M45.23,187.39V187c0-7.7,5.73-12.55,13.15-12.55s13.06,4.72,13.06,12.33v.36c0,7.79-5.72,12.47-13.1,12.47S45.23,195.14,45.23,187.39Zm17.87-.14v-.36c0-4-1.6-6.28-4.72-6.28s-4.77,2.15-4.77,6.19v.36c0,4.13,1.61,6.37,4.77,6.37S63.1,191.24,63.1,187.25Z" fill="#fff"/><path d="M74.15,190.74V175.11h8.2v14.3c0,2.7,1.06,4,3.39,4,2.48,0,4.08-1.46,4.08-4.54V175.11H98v24H89.82v-3.71c-1.28,2.47-3.62,4.26-7.61,4.26C77.59,199.63,74.15,196.79,74.15,190.74Z" fill="#fff"/><path d="M102.2,175.11h8.2v4.76a7.56,7.56,0,0,1,7.75-5.08v7.65c-5-.14-7.75,1.42-7.75,5.27v11.37h-8.2Z" fill="#fff"/><path d="M130.57,191.38V180.7h-2.89v-5.59h2.89v-5h8.2v5h4.73v5.59h-4.73v9.9a2.19,2.19,0,0,0,2.43,2.52,6.34,6.34,0,0,0,2.34-.41v6.23a17,17,0,0,1-4.54.69C133.59,199.63,130.57,197,130.57,191.38Z" fill="#fff"/><path d="M145.33,192.43c0-5.63,4.76-7.83,12.74-7.83h2.29v-.55c0-2.3-.55-3.81-3.16-3.81a2.94,2.94,0,0,0-3.25,2.84h-7.71c.37-5.77,4.91-8.61,11.46-8.61s10.82,2.7,10.82,9.07v15.54h-8v-2.8c-1.15,1.75-3.26,3.35-7.11,3.35C149.13,199.63,145.33,197.52,145.33,192.43Zm15-1.74v-1.46h-2.15c-3.3,0-4.77.64-4.77,2.61,0,1.37.92,2.24,2.84,2.24C158.62,194.08,160.36,192.75,160.36,190.69Z" fill="#fff"/><path d="M178.56,186.89l-7.47-11.78h9.44l3.71,6.32,3.62-6.32h8.44l-7.57,11.14,8.3,12.83h-9.44l-4.26-7.15L179,199.08h-8.39Z" fill="#fff"/><path d="M196,187.39V187c0-7.7,5.73-12.55,13-12.55,6.55,0,12.19,3.75,12.19,12.37V189H204.27c.23,3.16,2.06,5,5,5,2.7,0,3.85-1.24,4.17-2.84h7.7c-.73,5.41-4.91,8.48-12.15,8.48C201.47,199.63,196,195.23,196,187.39Zm17.19-3c-.13-2.89-1.56-4.5-4.21-4.5-2.48,0-4.17,1.61-4.59,4.5Z" fill="#fff"/><path d="M222.6,191.47h7.57c.27,1.74,1.05,2.71,3.39,2.71,2,0,2.93-.78,2.93-2s-1.14-1.69-4.44-2.15c-6.42-.82-9.13-2.7-9.13-7.7,0-5.32,4.73-7.88,10.27-7.88,5.92,0,10,2,10.59,7.74h-7.43c-.32-1.6-1.19-2.38-3.07-2.38s-2.7.78-2.7,1.88,1.1,1.6,4,2c6.65.82,9.86,2.57,9.86,7.7,0,5.68-4.22,8.25-10.87,8.25C226.77,199.63,222.79,196.79,222.6,191.47Z" fill="#fff"/><path d="M19.15,245.56v-.37c0-8,5.73-12.56,12.78-12.56,5.87,0,11.28,2.57,11.74,9.86H36c-.37-2.25-1.47-3.49-3.85-3.49-2.89,0-4.59,2.07-4.59,6.1v.37c0,4.17,1.61,6.32,4.73,6.32,2.29,0,3.89-1.37,4.17-4h7.38c-.23,6-4.31,10-12.06,10C24.6,257.8,19.15,253.63,19.15,245.56Z" fill="#fff"/><path d="M45.18,245.56v-.37c0-7.7,5.73-12.56,13.16-12.56S71.4,237.35,71.4,245v.37c0,7.79-5.73,12.47-13.11,12.47S45.18,253.3,45.18,245.56Zm17.88-.14v-.37c0-4-1.61-6.28-4.72-6.28s-4.77,2.16-4.77,6.19v.37c0,4.12,1.6,6.37,4.77,6.37S63.06,249.41,63.06,245.42Z" fill="#fff"/><path d="M74.1,248.9V233.27h8.21v14.3c0,2.71,1,4,3.39,4s4.08-1.47,4.08-4.54v-13.8H98v24h-8.2v-3.72c-1.29,2.48-3.62,4.27-7.61,4.27C77.54,257.8,74.1,255,74.1,248.9Z" fill="#fff"/><path d="M102.38,222.73h8.16v34.52h-8.16Z" fill="#fff"/><path d="M113.75,245.51v-.36c0-8.16,4.49-12.52,10.17-12.52,3.76,0,6,1.61,7.38,4V222.73h8.21v34.52H131.3v-3.9a8.07,8.07,0,0,1-7.47,4.45C118.29,257.8,113.75,253.81,113.75,245.51Zm17.78-.14V245c0-4-1.69-6.19-4.72-6.19s-4.72,2.06-4.72,6.23v.37c0,4,1.79,6.1,4.63,6.1S131.53,249.45,131.53,245.37Z" fill="#fff"/><path d="M160.22,253.53v3.72H152V222.73h8.2v14.12a8.49,8.49,0,0,1,7.48-4.22c5.59,0,10.13,4.22,10.13,12.42v.37c0,8.25-4.54,12.38-10.18,12.38C164.08,257.8,161.42,256.1,160.22,253.53Zm9.26-8.11v-.37c0-4.21-1.83-6.23-4.72-6.23S160,241,160,245v.36c0,4.08,1.78,6.15,4.76,6.15S169.48,249.36,169.48,245.42Z" fill="#fff"/><path d="M179.52,245.56v-.37c0-7.7,5.73-12.56,13-12.56,6.56,0,12.19,3.76,12.19,12.38v2.15H187.82c.23,3.17,2.06,5,5,5,2.71,0,3.85-1.24,4.17-2.84h7.7c-.73,5.41-4.9,8.48-12.14,8.48C185,257.8,179.52,253.4,179.52,245.56Zm17.19-3c-.14-2.88-1.56-4.49-4.22-4.49-2.47,0-4.17,1.61-4.58,4.49Z" fill="#fff"/><path d="M19.24,303.68v-.37c0-8.16,4.49-12.51,10.17-12.51,3.76,0,6,1.6,7.38,4V280.9H45v34.51H36.79v-3.89A8.08,8.08,0,0,1,29.32,316C23.78,316,19.24,312,19.24,303.68ZM37,303.54v-.37c0-4-1.69-6.18-4.72-6.18s-4.72,2.06-4.72,6.23v.37c0,4,1.79,6.09,4.63,6.09S37,307.62,37,303.54Z" fill="#fff"/><path d="M47.88,303.72v-.36c0-7.7,5.73-12.56,13.16-12.56s13.06,4.72,13.06,12.33v.37C74.1,311.29,68.37,316,61,316S47.88,311.47,47.88,303.72Zm17.88-.13v-.37c0-4-1.6-6.28-4.72-6.28s-4.77,2.16-4.77,6.19v.37c0,4.12,1.61,6.37,4.77,6.37S65.76,307.58,65.76,303.59Z" fill="#fff"/><path d="M77,291.44h8.2v3.85a8.48,8.48,0,0,1,7.89-4.49c4.63,0,7.84,2.89,7.84,9v15.58H92.71V301.48c0-2.71-1-4-3.44-4s-4.08,1.47-4.08,4.54v13.43H77Z" fill="#fff"/><path d="M103.62,303.72v-.36c0-7.7,5.73-12.56,13-12.56,6.56,0,12.19,3.76,12.19,12.37v2.16H111.92c.23,3.16,2.06,5,5,5,2.71,0,3.85-1.24,4.17-2.85h7.7c-.73,5.41-4.9,8.48-12.14,8.48C109.12,316,103.62,311.56,103.62,303.72Zm17.19-3c-.14-2.89-1.56-4.49-4.22-4.49-2.47,0-4.17,1.6-4.58,4.49Z" fill="#fff"/><path d="M139.78,284.93a4.53,4.53,0,1,1,4.49,4.22A4.28,4.28,0,0,1,139.78,284.93Zm.41,6.51h8.21v24h-8.21Z" fill="#fff"/><path d="M152.8,291.44H161v3.85a8.48,8.48,0,0,1,7.89-4.49c4.63,0,7.84,2.89,7.84,9v15.58h-8.21V301.48c0-2.71-1.05-4-3.44-4S161,298.91,161,302v13.43h-8.2Z" fill="#fff"/><path d="M187.68,308.77c0-5.64,4.77-7.84,12.74-7.84h2.29v-.55c0-2.29-.55-3.81-3.16-3.81a2.94,2.94,0,0,0-3.25,2.85h-7.7c.36-5.78,4.9-8.62,11.45-8.62s10.82,2.7,10.82,9.07v15.54h-8v-2.79c-1.15,1.74-3.26,3.34-7.11,3.34C191.48,316,187.68,313.85,187.68,308.77Zm15-1.74v-1.47h-2.15c-3.3,0-4.77.64-4.77,2.61,0,1.38.92,2.25,2.84,2.25C201,310.42,202.71,309.09,202.71,307Z" fill="#fff"/><path d="M214.86,291.44h8.2v3.85A8.48,8.48,0,0,1,231,290.8c4.63,0,7.84,2.89,7.84,9v15.58h-8.21V301.48c0-2.71-1.05-4-3.44-4s-4.08,1.47-4.08,4.54v13.43h-8.2Z" fill="#fff"/><path d="M20.43,339.06h8.2v14.4a8.47,8.47,0,0,1,7.89-4.5c4.63,0,7.84,2.89,7.84,9v15.58H36.15V359.65c0-2.71-1-4-3.44-4s-4.08,1.47-4.08,4.54v13.43h-8.2Z" fill="#fff"/><path d="M47.06,361.89v-.37c0-7.7,5.73-12.56,13.15-12.56s13.07,4.73,13.07,12.34v.36c0,7.79-5.73,12.47-13.11,12.47S47.06,369.64,47.06,361.89Zm17.88-.14v-.36c0-4-1.61-6.28-4.73-6.28s-4.76,2.15-4.76,6.19v.36c0,4.13,1.6,6.37,4.76,6.37S64.94,365.74,64.94,361.75Z" fill="#fff"/><path d="M76,365.24V349.61h8.21v14.3c0,2.7,1,4,3.39,4s4.08-1.46,4.08-4.54V349.61h8.2v24h-8.2v-3.71c-1.29,2.47-3.62,4.26-7.61,4.26C79.42,374.13,76,371.29,76,365.24Z" fill="#fff"/><path d="M104,349.61h8.21v4.76a7.54,7.54,0,0,1,7.74-5.08v7.65c-5-.14-7.74,1.42-7.74,5.27v11.37H104Z" fill="#fff"/><path d="M119.89,369.45a4.57,4.57,0,0,1,4.68-4.62,4.63,4.63,0,1,1,0,9.25A4.57,4.57,0,0,1,119.89,369.45Z" fill="#fff"/></g></g></g></svg>