<svg xmlns="http://www.w3.org/2000/svg" viewBox="0 0 320 50"><title>H122</title><g id="Layer_2" data-name="Layer 2"><g id="Tax_prep_at_your_fingertips." data-name="Tax prep at your fingertips."><path d="M66.89,20.69h-3.3V17.87H73.86v2.82h-3.3v10H66.89Z" fill="#fff"/><path d="M73.22,28.06c0-2.2,1.86-3.06,5-3.06h.89v-.21c0-.9-.21-1.49-1.23-1.49a1.14,1.14,0,0,0-1.26,1.11h-3c.14-2.25,1.91-3.36,4.46-3.36s4.21,1.06,4.21,3.54v6.06h-3.1V29.56a3.08,3.08,0,0,1-2.77,1.31C74.7,30.87,73.22,30.05,73.22,28.06Zm5.85-.68v-.57h-.83c-1.29,0-1.86.25-1.86,1,0,.54.36.88,1.11.88A1.4,1.4,0,0,0,79.07,27.38Z" fill="#fff"/><path d="M86.16,25.9l-2.91-4.6h3.68l1.44,2.47,1.41-2.47h3.28l-2.94,4.35,3.23,5H89.67L88,27.86l-1.69,2.79H83.06Z" fill="#fff"/><path d="M97.49,21.3h3.19v1.4a3.29,3.29,0,0,1,2.91-1.65c2.18,0,3.94,1.65,3.94,4.85V26c0,3.22-1.76,4.83-4,4.83a3.08,3.08,0,0,1-2.89-1.59v4.5H97.49Zm6.8,4.74V25.9c0-1.65-.72-2.43-1.84-2.43s-1.86.84-1.86,2.41V26c0,1.59.7,2.4,1.86,2.4S104.29,27.58,104.29,26Z" fill="#fff"/><path d="M108.7,21.3h3.19v1.86a2.94,2.94,0,0,1,3-2v3c-1.94-.05-3,.56-3,2.06v4.43H108.7Z" fill="#fff"/><path d="M115.48,26.09V26a4.78,4.78,0,0,1,5-4.9,4.43,4.43,0,0,1,4.74,4.83v.84h-6.56a1.87,1.87,0,0,0,1.94,2c1,0,1.5-.48,1.62-1.11h3c-.29,2.11-1.91,3.31-4.73,3.31S115.48,29.15,115.48,26.09Zm6.69-1.18c-.06-1.12-.61-1.75-1.64-1.75a1.78,1.78,0,0,0-1.79,1.75Z" fill="#fff"/><path d="M126.38,21.3h3.19v1.4a3.29,3.29,0,0,1,2.91-1.65c2.18,0,3.94,1.65,3.94,4.85V26c0,3.22-1.76,4.83-4,4.83a3.08,3.08,0,0,1-2.89-1.59v4.5h-3.19Zm6.8,4.74V25.9c0-1.65-.72-2.43-1.84-2.43s-1.86.84-1.86,2.41V26c0,1.59.7,2.4,1.86,2.4S133.18,27.58,133.18,26Z" fill="#fff"/><path d="M140.3,28.06c0-2.2,1.85-3.06,5-3.06h.89v-.21c0-.9-.21-1.49-1.23-1.49a1.15,1.15,0,0,0-1.27,1.11h-3c.14-2.25,1.9-3.36,4.45-3.36s4.21,1.06,4.21,3.54v6.06h-3.1V29.56a3.07,3.07,0,0,1-2.76,1.31C141.78,30.87,140.3,30.05,140.3,28.06Zm5.85-.68v-.57h-.84c-1.28,0-1.85.25-1.85,1,0,.54.35.88,1.1.88A1.41,1.41,0,0,0,146.15,27.38Z" fill="#fff"/><path d="M151.25,27.65V23.48h-1.12V21.3h1.12V19.35h3.2V21.3h1.83v2.18h-1.83v3.87c0,.68.34,1,.94,1a2.35,2.35,0,0,0,.91-.16V30.6a6.57,6.57,0,0,1-1.76.27C152.43,30.87,151.25,29.85,151.25,27.65Z" fill="#fff"/><path d="M163.67,29.71l-3.73-8.41h3.46l1.93,5,1.78-5h3l-5,12.48h-3Z" fill="#fff"/><path d="M170,26.09V26a4.8,4.8,0,0,1,5.12-4.9c2.87,0,5.08,1.84,5.08,4.81V26c0,3-2.23,4.87-5.1,4.87S170,29.12,170,26.09Zm7-.05V25.9c0-1.58-.63-2.45-1.84-2.45s-1.86.84-1.86,2.41V26c0,1.61.63,2.49,1.86,2.49S177,27.6,177,26Z" fill="#fff"/><path d="M181.25,27.4V21.3h3.19v5.58c0,1.06.41,1.58,1.32,1.58s1.59-.58,1.59-1.78V21.3h3.19v9.35h-3.19V29.21a3.07,3.07,0,0,1-3,1.66C182.59,30.87,181.25,29.76,181.25,27.4Z" fill="#fff"/><path d="M192.17,21.3h3.19v1.86a2.94,2.94,0,0,1,3-2v3c-1.95-.05-3,.56-3,2.06v4.43h-3.19Z" fill="#fff"/><path d="M203.27,23.48h-1.18V21.3h1.18v-.82c0-2.33,1.44-3.44,3.65-3.44a5.47,5.47,0,0,1,1.46.2v2.34a2.94,2.94,0,0,0-.87-.12.94.94,0,0,0-1.07,1v.82h1.89v2.18h-1.89v7.17h-3.17Z" fill="#fff"/><path d="M209.33,18.76a1.67,1.67,0,0,1,1.75-1.66,1.66,1.66,0,1,1,0,3.31A1.66,1.66,0,0,1,209.33,18.76Zm.16,2.54h3.2v9.35h-3.2Z" fill="#fff"/><path d="M214.4,21.3h3.19v1.5a3.31,3.31,0,0,1,3.07-1.75c1.8,0,3.05,1.13,3.05,3.52v6.08h-3.19V25.22c0-1.06-.41-1.58-1.34-1.58s-1.59.58-1.59,1.77v5.24H214.4Z" fill="#fff"/><path d="M224.75,30.65h3.17c.15.68.56,1.22,1.72,1.22a1.77,1.77,0,0,0,2-2V28.47a3.27,3.27,0,0,1-2.89,1.72c-2.18,0-4-1.61-4-4.49v-.14c0-2.76,1.76-4.51,4-4.51a3,3,0,0,1,2.89,1.57V21.3h3.19v8.57c0,2.79-1.84,4.25-5.17,4.25C226.46,34.12,225,32.78,224.75,30.65Zm7-5v-.12c0-1.29-.66-2.11-1.84-2.11s-1.84.84-1.84,2.13v.14c0,1.29.68,2.11,1.82,2.11S231.71,27,231.71,25.68Z" fill="#fff"/><path d="M235.94,26.09V26a4.78,4.78,0,0,1,5.05-4.9,4.43,4.43,0,0,1,4.74,4.83v.84h-6.56a1.86,1.86,0,0,0,1.94,2c1,0,1.5-.48,1.62-1.11h3c-.29,2.11-1.91,3.31-4.73,3.31S235.94,29.15,235.94,26.09Zm6.69-1.18c-.06-1.12-.61-1.75-1.64-1.75a1.78,1.78,0,0,0-1.79,1.75Z" fill="#fff"/><path d="M246.84,21.3H250v1.86a2.94,2.94,0,0,1,3-2v3c-2-.05-3,.56-3,2.06v4.43h-3.19Z" fill="#fff"/><path d="M254.78,27.65V23.48h-1.12V21.3h1.12V19.35H258V21.3h1.84v2.18H258v3.87a.85.85,0,0,0,.95,1,2.42,2.42,0,0,0,.91-.16V30.6a6.59,6.59,0,0,1-1.77.27C256,30.87,254.78,29.85,254.78,27.65Z" fill="#fff"/><path d="M261,18.76a1.67,1.67,0,0,1,1.75-1.66,1.66,1.66,0,1,1,0,3.31A1.66,1.66,0,0,1,261,18.76Zm.16,2.54h3.2v9.35h-3.2Z" fill="#fff"/><path d="M266,21.3h3.19v1.4a3.29,3.29,0,0,1,2.91-1.65c2.18,0,3.94,1.65,3.94,4.85V26c0,3.22-1.76,4.83-4,4.83a3.09,3.09,0,0,1-2.89-1.59v4.5H266Zm6.8,4.74V25.9c0-1.65-.72-2.43-1.84-2.43s-1.86.84-1.86,2.41V26c0,1.59.7,2.4,1.86,2.4S272.82,27.58,272.82,26Z" fill="#fff"/><path d="M276.66,27.69h2.94c.11.68.41,1,1.32,1s1.14-.3,1.14-.77-.44-.66-1.73-.84c-2.5-.32-3.55-1.05-3.55-3s1.84-3.08,4-3.08,3.9.79,4.12,3H282a1.06,1.06,0,0,0-1.2-.93c-.69,0-1.05.31-1.05.74s.43.62,1.57.77c2.59.32,3.84,1,3.84,3,0,2.22-1.65,3.22-4.23,3.22S276.73,29.76,276.66,27.69Z" fill="#fff"/><path d="M286.08,29a1.78,1.78,0,0,1,1.82-1.8,1.81,1.81,0,1,1,0,3.61A1.78,1.78,0,0,1,286.08,29Z" fill="#fff"/><rect width="320" height="50" fill="none"/></g></g></svg>