<svg xmlns="http://www.w3.org/2000/svg" viewBox="0 0 160 600"><title>Asset 3</title><g id="Layer_2" data-name="Layer 2"><g id="rect"><rect width="160" height="600" fill="none"/></g><g id="Still_open._Still_maximizing_refunds." data-name="Still open. Still maximizing refunds."><path d="M20.54,158.62h4.17c.1,1.09.6,2,2.41,2,1.26,0,2-.62,2-1.51s-.58-1.2-2.42-1.48c-4.31-.51-5.76-1.79-5.76-4.87,0-2.75,2.26-4.76,5.91-4.76s5.75,1.54,6,4.76H28.79a1.73,1.73,0,0,0-2-1.64c-1.17,0-1.77.53-1.77,1.3s.47,1.24,2.37,1.49c3.87.43,5.85,1.44,5.85,4.75,0,2.8-2.22,5.08-6.15,5.08C22.85,163.72,20.67,161.93,20.54,158.62Z" fill="#fff"/><path d="M35.2,159.88v-5H33.85v-2.61H35.2V150H39v2.33h2.2v2.61H39v4.61a1,1,0,0,0,1.13,1.18,3.07,3.07,0,0,0,1.09-.19v2.9a8,8,0,0,1-2.11.32C36.61,163.72,35.2,162.5,35.2,159.88Z" fill="#fff"/><path d="M42.59,149.26a2,2,0,0,1,2.09-2,2,2,0,0,1,2.12,2,2,2,0,0,1-2.12,2A2,2,0,0,1,42.59,149.26Zm.19,3H46.6v11.17H42.78Z" fill="#fff"/><path d="M48.76,147.38h3.8v16.08h-3.8Z" fill="#fff"/><path d="M54.72,147.38h3.8v16.08h-3.8Z" fill="#fff"/><path d="M63.86,158v-.17c0-3.59,2.67-5.86,6.13-5.86s6.09,2.2,6.09,5.75v.17c0,3.63-2.67,5.81-6.11,5.81S63.86,161.63,63.86,158Zm8.33-.07v-.17c0-1.88-.74-2.92-2.2-2.92s-2.22,1-2.22,2.88v.17c0,1.92.75,3,2.22,3S72.19,159.81,72.19,158Z" fill="#fff"/><path d="M77.43,152.29h3.82V154a4,4,0,0,1,3.48-2c2.61,0,4.73,2,4.73,5.79V158c0,3.85-2.12,5.77-4.75,5.77a3.7,3.7,0,0,1-3.46-1.9v5.38H77.43ZM85.57,158v-.17c0-2-.86-2.9-2.2-2.9s-2.22,1-2.22,2.88v.17c0,1.9.83,2.86,2.22,2.86S85.57,159.79,85.57,158Z" fill="#fff"/><path d="M90.25,158v-.17a5.72,5.72,0,0,1,6-5.86c3.06,0,5.68,1.76,5.68,5.77v1H94.11a2.23,2.23,0,0,0,2.33,2.32c1.26,0,1.79-.57,1.94-1.32H102c-.34,2.52-2.28,3.95-5.66,3.95S90.25,161.67,90.25,158Zm8-1.41c-.07-1.35-.73-2.1-2-2.1a2.14,2.14,0,0,0-2.14,2.1Z" fill="#fff"/><path d="M103.3,152.29h3.82v1.8a3.94,3.94,0,0,1,3.67-2.1c2.16,0,3.66,1.35,3.66,4.21v7.26h-3.82V157c0-1.26-.5-1.88-1.61-1.88s-1.9.68-1.9,2.12v6.25H103.3Z" fill="#fff"/><path d="M116.16,161.54a2.14,2.14,0,0,1,2.18-2.16,2.16,2.16,0,1,1,0,4.32A2.13,2.13,0,0,1,116.16,161.54Z" fill="#fff"/><path d="M20.54,193.43h4.17c.1,1.09.6,2,2.41,2,1.26,0,2-.62,2-1.52s-.58-1.19-2.42-1.47c-4.31-.51-5.76-1.79-5.76-4.87,0-2.76,2.26-4.76,5.91-4.76s5.75,1.53,6,4.76H28.79a1.73,1.73,0,0,0-2-1.64c-1.17,0-1.77.53-1.77,1.3s.47,1.24,2.37,1.49c3.87.43,5.85,1.43,5.85,4.75,0,2.79-2.22,5.08-6.15,5.08C22.85,198.54,20.67,196.75,20.54,193.43Z" fill="#fff"/><path d="M35.2,194.69v-5H33.85v-2.61H35.2v-2.33H39v2.33h2.2v2.61H39v4.61a1,1,0,0,0,1.13,1.18,2.86,2.86,0,0,0,1.09-.2v2.91a8,8,0,0,1-2.11.32C36.61,198.54,35.2,197.32,35.2,194.69Z" fill="#fff"/><path d="M42.59,184.08a2,2,0,0,1,2.09-2,2,2,0,0,1,2.12,2,2,2,0,0,1-2.12,2A2,2,0,0,1,42.59,184.08Zm.19,3H46.6v11.17H42.78Z" fill="#fff"/><path d="M48.76,182.2h3.8v16.08h-3.8Z" fill="#fff"/><path d="M54.72,182.2h3.8v16.08h-3.8Z" fill="#fff"/><path d="M21.18,221.93H25v1.71a3.89,3.89,0,0,1,3.5-2,3,3,0,0,1,3,1.86,4.44,4.44,0,0,1,3.7-1.86c2.11,0,3.65,1.37,3.65,4.17v7.3H35.07v-6.66c0-1.13-.56-1.69-1.43-1.69a1.65,1.65,0,0,0-1.71,1.88v6.47H28.15v-6.66c0-1.13-.56-1.69-1.43-1.69A1.65,1.65,0,0,0,25,226.63v6.47H21.18Z" fill="#fff"/><path d="M40.11,230c0-2.62,2.22-3.65,5.94-3.65h1.07v-.25c0-1.07-.26-1.78-1.48-1.78a1.37,1.37,0,0,0-1.51,1.33H40.54c.17-2.69,2.28-4,5.34-4s5,1.26,5,4.23v7.24H47.2v-1.3a3.66,3.66,0,0,1-3.31,1.56C41.88,233.36,40.11,232.38,40.11,230Zm7-.81v-.68h-1c-1.54,0-2.22.3-2.22,1.22,0,.64.43,1,1.33,1A1.68,1.68,0,0,0,47.12,229.19Z" fill="#fff"/><path d="M55.6,227.42l-3.48-5.49h4.4l1.73,2.95,1.68-2.95h3.93l-3.52,5.19,3.87,6h-4.4l-2-3.33-2,3.33H51.88Z" fill="#fff"/><path d="M65.19,218.9a2.11,2.11,0,1,1,2.09,2A2,2,0,0,1,65.19,218.9Zm.19,3h3.83V233.1H65.38Z" fill="#fff"/><path d="M71.26,221.93h3.82v1.71a3.9,3.9,0,0,1,3.5-2,3,3,0,0,1,3,1.86,4.43,4.43,0,0,1,3.69-1.86c2.12,0,3.65,1.37,3.65,4.17v7.3H85.14v-6.66c0-1.13-.55-1.69-1.43-1.69A1.65,1.65,0,0,0,82,226.63v6.47H78.22v-6.66c0-1.13-.56-1.69-1.43-1.69a1.65,1.65,0,0,0-1.71,1.88v6.47H71.26Z" fill="#fff"/><path d="M90.74,218.9a2.11,2.11,0,1,1,2.09,2A2,2,0,0,1,90.74,218.9Zm.19,3h3.82V233.1H90.93Z" fill="#fff"/><path d="M95.89,232.72l4.89-7.91H96.4v-2.88h9.85v.41l-5,7.88H106v2.88H95.89Z" fill="#fff"/><path d="M107.25,218.9a2.11,2.11,0,1,1,2.09,2A2,2,0,0,1,107.25,218.9Zm.19,3h3.83V233.1h-3.83Z" fill="#fff"/><path d="M113.32,221.93h3.82v1.79a4,4,0,0,1,3.68-2.09c2.15,0,3.65,1.35,3.65,4.21v7.26h-3.83v-6.49c0-1.26-.49-1.88-1.6-1.88s-1.9.68-1.9,2.11v6.26h-3.82Z" fill="#fff"/><path d="M125.71,233.1h3.8c.17.81.66,1.46,2.05,1.46a2.12,2.12,0,0,0,2.37-2.35V230.5a3.92,3.92,0,0,1-3.46,2.05c-2.6,0-4.74-1.93-4.74-5.36V227c0-3.29,2.11-5.38,4.74-5.38a3.63,3.63,0,0,1,3.46,1.88v-1.58h3.83v10.23c0,3.34-2.2,5.09-6.2,5.09C127.76,237.25,126,235.64,125.71,233.1Zm8.33-5.94V227c0-1.53-.79-2.52-2.2-2.52s-2.2,1-2.2,2.55v.17c0,1.53.81,2.52,2.18,2.52S134,228.74,134,227.16Z" fill="#fff"/><path d="M21.18,256.75H25V259a3.51,3.51,0,0,1,3.61-2.37v3.57c-2.33-.07-3.61.66-3.61,2.45v5.3H21.18Z" fill="#fff"/><path d="M29.3,262.47v-.17a5.71,5.71,0,0,1,6.05-5.85c3,0,5.68,1.75,5.68,5.77v1H33.17a2.22,2.22,0,0,0,2.33,2.33c1.26,0,1.79-.58,1.94-1.32H41c-.34,2.52-2.29,3.95-5.66,3.95S29.3,266.13,29.3,262.47Zm8-1.41c-.06-1.34-.72-2.09-2-2.09a2.12,2.12,0,0,0-2.14,2.09Z" fill="#fff"/><path d="M42.93,259.35H41.52v-2.6h1.41v-1c0-2.78,1.73-4.11,4.38-4.11a6.72,6.72,0,0,1,1.75.24v2.8a3.39,3.39,0,0,0-1.05-.15,1.12,1.12,0,0,0-1.28,1.22v1H49v2.6H46.73v8.57h-3.8Z" fill="#fff"/><path d="M50.19,264v-7.28H54v6.66c0,1.26.49,1.88,1.58,1.88s1.9-.68,1.9-2.11v-6.43h3.82v11.17H57.5v-1.73a3.69,3.69,0,0,1-3.55,2C51.79,268.18,50.19,266.85,50.19,264Z" fill="#fff"/><path d="M63.27,256.75h3.82v1.79a4,4,0,0,1,3.67-2.09c2.16,0,3.66,1.35,3.66,4.21v7.26H70.59v-6.49c0-1.26-.49-1.88-1.6-1.88s-1.9.68-1.9,2.11v6.26H63.27Z" fill="#fff"/><path d="M75.72,262.45v-.17c0-3.8,2.09-5.83,4.74-5.83a3.63,3.63,0,0,1,3.44,1.88v-6.49h3.83v16.08H83.9v-1.81a3.76,3.76,0,0,1-3.48,2.07C77.84,268.18,75.72,266.32,75.72,262.45Zm8.29-.06v-.17c0-1.88-.79-2.89-2.2-2.89s-2.2,1-2.2,2.91v.17c0,1.88.83,2.84,2.16,2.84S84,264.29,84,262.39Z" fill="#fff"/><path d="M88.92,264.38h3.53c.13.81.49,1.26,1.58,1.26.94,0,1.37-.37,1.37-.92s-.54-.79-2.08-1c-3-.38-4.25-1.26-4.25-3.59s2.2-3.67,4.79-3.67c2.75,0,4.68.94,4.93,3.61H95.33A1.24,1.24,0,0,0,93.9,259c-.83,0-1.26.36-1.26.88s.51.74,1.88.91c3.1.39,4.59,1.2,4.59,3.59,0,2.65-2,3.85-5.06,3.85S89,266.85,88.92,264.38Z" fill="#fff"/><path d="M100.2,266a2.13,2.13,0,0,1,2.18-2.16,2.16,2.16,0,1,1,0,4.32A2.13,2.13,0,0,1,100.2,266Z" fill="#fff"/></g></g></svg>