<svg xmlns="http://www.w3.org/2000/svg" viewBox="0 0 300 250"><title>legal</title><g id="Layer_2" data-name="Layer 2"><g id="rect"><rect width="300" height="250" fill="none"/></g><g id="_All_tax_situations_are_different._Not_everyone_gets_a_refund." data-name=" All tax situations are different. Not everyone gets a refund."><path d="M25.4,150.64H27l2.12,6.44H27.85l-.51-1.6H24.88l-.5,1.6H23.25Zm-.24,4h1.9l-.95-3Z" fill="#fff"/><path d="M29.87,150.19H31v6.89H29.87Z" fill="#fff"/><path d="M32.18,150.19h1.09v6.89H32.18Z" fill="#fff"/><path d="M36.64,155.76v-2.57H36v-.82h.63v-1h1.09v1h1v.82h-1v2.47c0,.42.2.61.54.61a1.36,1.36,0,0,0,.53-.09V157a2.13,2.13,0,0,1-.74.12A1.27,1.27,0,0,1,36.64,155.76Z" fill="#fff"/><path d="M39.34,155.77c0-1.1,1.06-1.49,2.41-1.49h.59V154c0-.63-.22-.94-.86-.94a.79.79,0,0,0-.9.74h-1c.09-1.1,1-1.56,2-1.56s1.88.43,1.88,1.72v3.09H42.36v-.58a1.63,1.63,0,0,1-1.44.67C40.05,157.17,39.34,156.75,39.34,155.77Zm3-.34V155h-.56c-.83,0-1.36.19-1.36.77,0,.39.22.65.76.65S42.34,156,42.34,155.43Z" fill="#fff"/><path d="M45.72,154.66l-1.53-2.29h1.26l1,1.52,1-1.52h1.14L47,154.58l1.68,2.5H47.44l-1.1-1.7-1.12,1.7H44.08Z" fill="#fff"/><path d="M51.06,155.61h1c0,.48.29.76.93.76s.85-.21.85-.61-.32-.53-1-.65c-1.24-.19-1.7-.54-1.7-1.43s.88-1.41,1.76-1.41,1.73.36,1.85,1.42h-1a.73.73,0,0,0-.84-.63c-.46,0-.74.23-.74.56s.22.48,1,.6c1.11.17,1.76.44,1.76,1.44s-.67,1.51-1.88,1.51S51.1,156.61,51.06,155.61Z" fill="#fff"/><path d="M55.64,151a.65.65,0,1,1,.65.62A.63.63,0,0,1,55.64,151Zm.12,1.4h1.09v4.71H55.76Z" fill="#fff"/><path d="M58.21,155.76v-2.57h-.63v-.82h.63v-1H59.3v1h1v.82h-1v2.47c0,.42.2.61.54.61a1.45,1.45,0,0,0,.54-.09V157a2.22,2.22,0,0,1-.74.12A1.27,1.27,0,0,1,58.21,155.76Z" fill="#fff"/><path d="M61.18,155.38v-3h1.08v2.89c0,.71.3,1,.93,1a1,1,0,0,0,1.1-1.12v-2.8h1.09v4.71H64.29v-.74a1.58,1.58,0,0,1-1.49.83C61.87,157.17,61.18,156.64,61.18,155.38Z" fill="#fff"/><path d="M66.19,155.77c0-1.1,1.06-1.49,2.41-1.49h.59V154c0-.63-.22-.94-.86-.94a.78.78,0,0,0-.9.74H66.38c.09-1.1,1-1.56,2-1.56s1.89.43,1.89,1.72v3.09H69.2v-.58a1.62,1.62,0,0,1-1.44.67C66.9,157.17,66.19,156.75,66.19,155.77Zm3-.34V155h-.56c-.83,0-1.36.19-1.36.77,0,.39.21.65.75.65S69.19,156,69.19,155.43Z" fill="#fff"/><path d="M71.56,155.76v-2.57h-.63v-.82h.63v-1h1.09v1h1v.82h-1v2.47c0,.42.2.61.54.61a1.36,1.36,0,0,0,.53-.09V157a2.13,2.13,0,0,1-.74.12A1.27,1.27,0,0,1,71.56,155.76Z" fill="#fff"/><path d="M74.48,151a.63.63,0,0,1,.65-.63.63.63,0,1,1,0,1.25A.63.63,0,0,1,74.48,151Zm.11,1.4h1.09v4.71H74.59Z" fill="#fff"/><path d="M76.56,154.77v-.07a2.42,2.42,0,0,1,4.83,0v.08a2.42,2.42,0,0,1-4.83,0Zm3.71,0v-.06c0-1-.48-1.56-1.29-1.56s-1.31.58-1.31,1.55v.07c0,1,.48,1.57,1.31,1.57S80.27,155.72,80.27,154.75Z" fill="#fff"/><path d="M82.24,152.37h1.08v.75a1.64,1.64,0,0,1,1.53-.85c.94,0,1.61.55,1.61,1.85v3H85.37v-2.87c0-.71-.29-1-.94-1a1,1,0,0,0-1.11,1.12v2.78H82.24Z" fill="#fff"/><path d="M87.21,155.61h1c.05.48.29.76.93.76s.85-.21.85-.61-.31-.53-1-.65c-1.24-.19-1.7-.54-1.7-1.43s.88-1.41,1.77-1.41,1.72.36,1.84,1.42h-1a.72.72,0,0,0-.83-.63c-.47,0-.75.23-.75.56s.22.48,1,.6c1.11.17,1.76.44,1.76,1.44s-.67,1.51-1.88,1.51S87.26,156.61,87.21,155.61Z" fill="#fff"/><path d="M93.55,155.77c0-1.1,1.06-1.49,2.41-1.49h.59V154c0-.63-.22-.94-.86-.94a.78.78,0,0,0-.9.74H93.74c.09-1.1,1-1.56,2-1.56s1.88.43,1.88,1.72v3.09H96.56v-.58a1.62,1.62,0,0,1-1.44.67C94.26,157.17,93.55,156.75,93.55,155.77Zm3-.34V155H96c-.83,0-1.36.19-1.36.77,0,.39.21.65.75.65S96.55,156,96.55,155.43Z" fill="#fff"/><path d="M98.75,152.37h1.09v.88a1.58,1.58,0,0,1,1.53-.95v1c-1,0-1.53.32-1.53,1.32v2.45H98.75Z" fill="#fff"/><path d="M101.77,154.77v-.07a2.29,2.29,0,0,1,2.34-2.43,2.13,2.13,0,0,1,2.23,2.38V155h-3.45c0,.89.49,1.4,1.3,1.4.65,0,1-.26,1.08-.72h1c-.15,1-.95,1.53-2.16,1.53A2.26,2.26,0,0,1,101.77,154.77Zm3.49-.54c-.06-.81-.47-1.17-1.15-1.17a1.21,1.21,0,0,0-1.2,1.17Z" fill="#fff"/><path d="M108.87,154.8v-.07a2.19,2.19,0,0,1,2.12-2.46,1.59,1.59,0,0,1,1.5.82v-2.9h1.09v6.89h-1.09v-.79a1.81,1.81,0,0,1-1.55.88A2.09,2.09,0,0,1,108.87,154.8Zm3.66-.05v-.08c0-1-.48-1.54-1.27-1.54s-1.27.55-1.27,1.57v.07c0,1,.52,1.53,1.22,1.53S112.53,155.8,112.53,154.75Z" fill="#fff"/><path d="M114.65,151a.65.65,0,1,1,.65.62A.63.63,0,0,1,114.65,151Zm.12,1.4h1.09v4.71h-1.09Z" fill="#fff"/><path d="M117.24,153.19h-.64v-.82h.64v-.57a1.42,1.42,0,0,1,1.57-1.59,1.93,1.93,0,0,1,.62.09v.84a1.52,1.52,0,0,0-.48-.09c-.45,0-.62.29-.62.7v.62H120v-.63a1.43,1.43,0,0,1,1.58-1.59,1.71,1.71,0,0,1,.63.09v.84a1.69,1.69,0,0,0-.5-.08c-.44,0-.62.29-.62.69v.68h1.07v.82h-1.07v3.89H120v-3.89h-1.65v3.89h-1.09Z" fill="#fff"/><path d="M122.4,154.77v-.07a2.29,2.29,0,0,1,2.34-2.43,2.13,2.13,0,0,1,2.23,2.38V155h-3.45c0,.89.48,1.4,1.29,1.4.66,0,1-.26,1.08-.72H127c-.16,1-1,1.53-2.16,1.53A2.26,2.26,0,0,1,122.4,154.77Zm3.49-.54c-.06-.81-.47-1.17-1.15-1.17a1.19,1.19,0,0,0-1.2,1.17Z" fill="#fff"/><path d="M127.8,152.37h1.09v.88a1.58,1.58,0,0,1,1.53-.95v1c-.95,0-1.53.32-1.53,1.32v2.45H127.8Z" fill="#fff"/><path d="M130.82,154.77v-.07a2.29,2.29,0,0,1,2.35-2.43,2.12,2.12,0,0,1,2.22,2.38V155h-3.45c0,.89.49,1.4,1.3,1.4.65,0,1-.26,1.08-.72h1.05c-.15,1-1,1.53-2.16,1.53A2.26,2.26,0,0,1,130.82,154.77Zm3.49-.54c-.06-.81-.47-1.17-1.14-1.17a1.21,1.21,0,0,0-1.21,1.17Z" fill="#fff"/><path d="M136.22,152.37h1.09v.75a1.64,1.64,0,0,1,1.53-.85c.94,0,1.61.55,1.61,1.85v3h-1.09v-2.87c0-.71-.29-1-.94-1a1,1,0,0,0-1.11,1.12v2.78h-1.09Z" fill="#fff"/><path d="M141.74,155.76v-2.57h-.63v-.82h.63v-1h1.09v1h1v.82h-1v2.47c0,.42.2.61.54.61a1.36,1.36,0,0,0,.53-.09V157a2.13,2.13,0,0,1-.74.12A1.27,1.27,0,0,1,141.74,155.76Z" fill="#fff"/><path d="M144.68,156.44a.72.72,0,1,1,.72.7A.71.71,0,0,1,144.68,156.44Z" fill="#fff"/><path d="M149.31,150.64h1.43l2.71,4.65v-4.65h1.09v6.44H153.3l-2.9-4.94v4.94h-1.09Z" fill="#fff"/><path d="M155.45,154.77v-.07a2.42,2.42,0,0,1,4.83,0v.08a2.42,2.42,0,0,1-4.83,0Zm3.72,0v-.06c0-1-.49-1.56-1.3-1.56s-1.31.58-1.31,1.55v.07c0,1,.48,1.57,1.31,1.57S159.17,155.72,159.17,154.75Z" fill="#fff"/><path d="M161.31,155.76v-2.57h-.63v-.82h.63v-1h1.09v1h1v.82h-1v2.47c0,.42.19.61.54.61a1.44,1.44,0,0,0,.53-.09V157a2.18,2.18,0,0,1-.74.12A1.27,1.27,0,0,1,161.31,155.76Z" fill="#fff"/><path d="M166,154.77v-.07a2.29,2.29,0,0,1,2.35-2.43,2.12,2.12,0,0,1,2.22,2.38V155h-3.45c0,.89.49,1.4,1.3,1.4s1-.26,1.08-.72h1.05c-.15,1-1,1.53-2.16,1.53A2.26,2.26,0,0,1,166,154.77Zm3.49-.54c-.06-.81-.47-1.17-1.14-1.17a1.21,1.21,0,0,0-1.21,1.17Z" fill="#fff"/><path d="M170.83,152.37H172l1.23,3.59,1.22-3.59h1.07l-1.7,4.71h-1.27Z" fill="#fff"/><path d="M175.7,154.77v-.07a2.29,2.29,0,0,1,2.34-2.43,2.12,2.12,0,0,1,2.22,2.38V155h-3.45c0,.89.49,1.4,1.3,1.4.66,0,1-.26,1.08-.72h1.05c-.15,1-1,1.53-2.16,1.53A2.26,2.26,0,0,1,175.7,154.77Zm3.48-.54c-.05-.81-.47-1.17-1.14-1.17a1.21,1.21,0,0,0-1.21,1.17Z" fill="#fff"/><path d="M181.1,152.37h1.09v.88a1.56,1.56,0,0,1,1.53-.95v1c-1,0-1.53.32-1.53,1.32v2.45H181.1Z" fill="#fff"/><path d="M186,156.6l-1.87-4.23h1.18l1.25,3,1.16-3h1.06l-2.57,6.32h-1.07Z" fill="#fff"/><path d="M188.94,154.77v-.07a2.42,2.42,0,0,1,4.83,0v.08a2.42,2.42,0,0,1-4.83,0Zm3.71,0v-.06c0-1-.48-1.56-1.29-1.56s-1.31.58-1.31,1.55v.07c0,1,.48,1.57,1.31,1.57S192.65,155.72,192.65,154.75Z" fill="#fff"/><path d="M194.62,152.37h1.08v.75a1.64,1.64,0,0,1,1.53-.85c.94,0,1.61.55,1.61,1.85v3h-1.09v-2.87c0-.71-.29-1-.94-1a1,1,0,0,0-1.11,1.12v2.78h-1.08Z" fill="#fff"/><path d="M199.64,154.77v-.07a2.29,2.29,0,0,1,2.34-2.43,2.12,2.12,0,0,1,2.22,2.38V155h-3.45c0,.89.49,1.4,1.3,1.4.66,0,1-.26,1.08-.72h1.05c-.15,1-1,1.53-2.16,1.53A2.26,2.26,0,0,1,199.64,154.77Zm3.48-.54c-.05-.81-.47-1.17-1.14-1.17a1.21,1.21,0,0,0-1.21,1.17Z" fill="#fff"/><path d="M206.78,157.24h1.1c.09.47.45.74,1.16.74a1.16,1.16,0,0,0,1.32-1.27V156a1.84,1.84,0,0,1-1.54.88,2.08,2.08,0,0,1-2.09-2.24v-.07a2.16,2.16,0,0,1,2.11-2.31,1.63,1.63,0,0,1,1.52.82v-.72h1.09v4.36c0,1.38-.94,2.08-2.4,2.08S206.91,158.14,206.78,157.24Zm3.61-2.63v-.06a1.24,1.24,0,0,0-1.27-1.42,1.27,1.27,0,0,0-1.28,1.44v.07a1.27,1.27,0,0,0,1.25,1.41A1.3,1.3,0,0,0,210.39,154.61Z" fill="#fff"/><path d="M212.29,154.77v-.07a2.29,2.29,0,0,1,2.34-2.43,2.12,2.12,0,0,1,2.22,2.38V155h-3.44c0,.89.48,1.4,1.29,1.4s1-.26,1.08-.72h1.06c-.16,1-1,1.53-2.16,1.53A2.26,2.26,0,0,1,212.29,154.77Zm3.48-.54c-.05-.81-.46-1.17-1.14-1.17a1.21,1.21,0,0,0-1.21,1.17Z" fill="#fff"/><path d="M217.87,155.76v-2.57h-.63v-.82h.63v-1H219v1h1v.82h-1v2.47c0,.42.2.61.54.61a1.36,1.36,0,0,0,.53-.09V157a2.13,2.13,0,0,1-.74.12A1.27,1.27,0,0,1,217.87,155.76Z" fill="#fff"/><path d="M220.54,155.61h1c.05.48.3.76.94.76s.84-.21.84-.61-.31-.53-1-.65c-1.24-.19-1.7-.54-1.7-1.43s.88-1.41,1.77-1.41,1.72.36,1.84,1.42h-1a.72.72,0,0,0-.83-.63c-.47,0-.75.23-.75.56s.22.48,1,.6c1.11.17,1.77.44,1.77,1.44s-.68,1.51-1.89,1.51S220.59,156.61,220.54,155.61Z" fill="#fff"/><path d="M226.88,155.77c0-1.1,1.06-1.49,2.41-1.49h.59V154c0-.63-.22-.94-.86-.94a.79.79,0,0,0-.9.74h-1.05c.09-1.1,1-1.56,2-1.56S231,152.7,231,154v3.09H229.9v-.58a1.65,1.65,0,0,1-1.44.67C227.59,157.17,226.88,156.75,226.88,155.77Zm3-.34V155h-.56c-.83,0-1.36.19-1.36.77,0,.39.22.65.76.65S229.88,156,229.88,155.43Z" fill="#fff"/><path d="M234.09,152.37h1.09v.88a1.57,1.57,0,0,1,1.53-.95v1c-1,0-1.53.32-1.53,1.32v2.45h-1.09Z" fill="#fff"/><path d="M237.11,154.77v-.07a2.29,2.29,0,0,1,2.34-2.43,2.13,2.13,0,0,1,2.23,2.38V155h-3.45c0,.89.48,1.4,1.3,1.4.65,0,1-.26,1.08-.72h1c-.15,1-1,1.53-2.16,1.53A2.26,2.26,0,0,1,237.11,154.77Zm3.49-.54c-.06-.81-.47-1.17-1.15-1.17a1.2,1.2,0,0,0-1.2,1.17Z" fill="#fff"/><path d="M242.7,153.19h-.64v-.82h.64v-.63a1.43,1.43,0,0,1,1.59-1.59,1.69,1.69,0,0,1,.62.09v.84a1.69,1.69,0,0,0-.5-.08c-.44,0-.62.29-.62.69v.68h1.07v.82h-1.07v3.89H242.7Z" fill="#fff"/><path d="M245.59,155.38v-3h1.09v2.89c0,.71.3,1,.93,1a1,1,0,0,0,1.09-1.12v-2.8h1.09v4.71H248.7v-.74a1.57,1.57,0,0,1-1.49.83C246.28,157.17,245.59,156.64,245.59,155.38Z" fill="#fff"/><path d="M251,152.37H252v.75a1.64,1.64,0,0,1,1.53-.85c.94,0,1.61.55,1.61,1.85v3h-1.09v-2.87c0-.71-.29-1-.94-1A1,1,0,0,0,252,154.3v2.78H251Z" fill="#fff"/><path d="M256,154.8v-.07a2.18,2.18,0,0,1,2.11-2.46,1.59,1.59,0,0,1,1.5.82v-2.9h1.09v6.89h-1.09v-.79a1.81,1.81,0,0,1-1.54.88A2.09,2.09,0,0,1,256,154.8Zm3.65-.05v-.08c0-1-.48-1.54-1.27-1.54s-1.27.55-1.27,1.57v.07c0,1,.52,1.53,1.23,1.53S259.63,155.8,259.63,154.75Z" fill="#fff"/><path d="M261.78,156.44a.72.72,0,1,1,.71.7A.71.71,0,0,1,261.78,156.44Z" fill="#fff"/></g></g></svg>