<svg xmlns="http://www.w3.org/2000/svg" viewBox="0 0 300 250"><title>h2</title><g id="Layer_2" data-name="Layer 2"><g id="rect"><rect width="300" height="250" fill="none"/></g><g id="Every_dollar_matters._Our_experts_will_get_your_max_refund." data-name="Every dollar matters. Our experts will  get your max refund."><path d="M21.79,44.75H34.64v4.11H27.1v3.2h6v3.8h-6v3.38h7.95v4.1H21.79Z" fill="#fff"/><path d="M35.34,49.75h5l2.83,8.76,2.78-8.76h4.45l-5,13.59H40.33Z" fill="#fff"/><path d="M50.08,56.71v-.2c0-4.37,3.25-7.13,7.36-7.13,3.72,0,6.92,2.13,6.92,7v1.22H54.79a2.72,2.72,0,0,0,2.83,2.84c1.54,0,2.19-.7,2.37-1.61h4.37c-.42,3.06-2.79,4.81-6.89,4.81C53.2,63.66,50.08,61.16,50.08,56.71ZM59.83,55c-.08-1.64-.88-2.55-2.39-2.55A2.59,2.59,0,0,0,54.84,55Z" fill="#fff"/><path d="M66,49.75h4.65v2.7A4.3,4.3,0,0,1,75,49.56v4.35c-2.84-.08-4.4.8-4.4,3v6.44H66Z" fill="#fff"/><path d="M81.18,62,75.74,49.75h5.05L83.6,57l2.6-7.25h4.44L83.36,67.9H78.92Z" fill="#fff"/><path d="M95.89,56.69v-.21c0-4.63,2.55-7.1,5.78-7.1a4.4,4.4,0,0,1,4.18,2.29v-7.9h4.66V63.34h-4.66V61.13a4.57,4.57,0,0,1-4.24,2.53C98.47,63.66,95.89,61.39,95.89,56.69ZM106,56.61V56.4c0-2.29-1-3.51-2.68-3.51s-2.67,1.17-2.67,3.54v.21c0,2.28,1,3.45,2.62,3.45S106,58.92,106,56.61Z" fill="#fff"/><path d="M112.14,56.71v-.2c0-4.37,3.25-7.13,7.46-7.13s7.42,2.68,7.42,7v.2c0,4.42-3.25,7.08-7.44,7.08S112.14,61.11,112.14,56.71Zm10.14-.07v-.21c0-2.29-.91-3.56-2.68-3.56s-2.7,1.22-2.7,3.51v.2c0,2.34.91,3.62,2.7,3.62S122.28,58.9,122.28,56.64Z" fill="#fff"/><path d="M128.78,43.77h4.63V63.34h-4.63Z" fill="#fff"/><path d="M136,43.77h4.62V63.34H136Z" fill="#fff"/><path d="M142.38,59.57c0-3.19,2.7-4.44,7.23-4.44h1.3v-.31c0-1.3-.31-2.16-1.8-2.16a1.66,1.66,0,0,0-1.84,1.61H142.9c.21-3.28,2.78-4.89,6.5-4.89s6.14,1.54,6.14,5.15v8.81H151V61.76a4.46,4.46,0,0,1-4,1.9C144.54,63.66,142.38,62.46,142.38,59.57Zm8.53-1v-.84h-1.22c-1.88,0-2.71.37-2.71,1.49,0,.78.52,1.27,1.61,1.27C149.92,60.51,150.91,59.76,150.91,58.59Z" fill="#fff"/><path d="M157.8,49.75h4.65v2.7a4.3,4.3,0,0,1,4.4-2.89v4.35c-2.84-.08-4.4.8-4.4,3v6.44H157.8Z" fill="#fff"/><path d="M173.27,49.75h4.65v2.08a4.77,4.77,0,0,1,4.27-2.45,3.71,3.71,0,0,1,3.69,2.26,5.4,5.4,0,0,1,4.5-2.26c2.57,0,4.44,1.67,4.44,5.07v8.89h-4.65V55.23c0-1.38-.68-2-1.74-2a2,2,0,0,0-2.08,2.29v7.87h-4.61V55.23c0-1.38-.67-2-1.74-2a2,2,0,0,0-2.08,2.29v7.87h-4.65Z" fill="#fff"/><path d="M196.3,59.57c0-3.19,2.71-4.44,7.23-4.44h1.3v-.31c0-1.3-.31-2.16-1.79-2.16a1.67,1.67,0,0,0-1.85,1.61h-4.37c.21-3.28,2.79-4.89,6.5-4.89s6.14,1.54,6.14,5.15v8.81h-4.52V61.76a4.47,4.47,0,0,1-4,1.9C198.46,63.66,196.3,62.46,196.3,59.57Zm8.53-1v-.84h-1.22c-1.87,0-2.7.37-2.7,1.49,0,.78.52,1.27,1.61,1.27A2,2,0,0,0,204.83,58.59Z" fill="#fff"/><path d="M212.27,59V52.92h-1.64V49.75h1.64V46.91h4.65v2.84h2.68v3.17h-2.68v5.61A1.24,1.24,0,0,0,218.3,60a3.5,3.5,0,0,0,1.33-.23v3.54a10.11,10.11,0,0,1-2.58.39C214,63.66,212.27,62.17,212.27,59Z" fill="#fff"/><path d="M222,59V52.92h-1.64V49.75H222V46.91h4.65v2.84h2.68v3.17h-2.68v5.61A1.24,1.24,0,0,0,228,60a3.5,3.5,0,0,0,1.33-.23v3.54a10,10,0,0,1-2.58.39C223.71,63.66,222,62.17,222,59Z" fill="#fff"/><path d="M230.36,56.71v-.2c0-4.37,3.25-7.13,7.36-7.13,3.72,0,6.92,2.13,6.92,7v1.22h-9.57a2.72,2.72,0,0,0,2.83,2.84c1.54,0,2.19-.7,2.37-1.61h4.37c-.42,3.06-2.78,4.81-6.89,4.81C233.48,63.66,230.36,61.16,230.36,56.71ZM240.11,55c-.07-1.64-.88-2.55-2.39-2.55a2.59,2.59,0,0,0-2.6,2.55Z" fill="#fff"/><path d="M246.25,49.75h4.65v2.7a4.3,4.3,0,0,1,4.4-2.89v4.35c-2.84-.08-4.4.8-4.4,3v6.44h-4.65Z" fill="#fff"/><path d="M256.13,59h4.29c.16,1,.6,1.53,1.92,1.53,1.15,0,1.67-.44,1.67-1.12s-.65-1-2.52-1.22c-3.64-.47-5.18-1.53-5.18-4.37,0-3,2.68-4.47,5.83-4.47,3.35,0,5.69,1.15,6,4.4h-4.21a1.53,1.53,0,0,0-1.74-1.36c-1,0-1.54.45-1.54,1.07s.63.91,2.29,1.12c3.77.47,5.59,1.45,5.59,4.37,0,3.22-2.39,4.68-6.16,4.68S256.23,62,256.13,59Z" fill="#fff"/><path d="M269.86,61a2.59,2.59,0,0,1,2.65-2.62,2.63,2.63,0,1,1,0,5.25A2.59,2.59,0,0,1,269.86,61Z" fill="#fff"/><path d="M20.81,86.17V86c0-5.67,4.26-9.47,9.82-9.47s9.86,3.57,9.86,9.34V86c0,5.72-3.93,9.62-9.93,9.62S20.81,91.76,20.81,86.17Zm14.11-.06v-.2c0-3.31-1.66-5.26-4.29-5.26s-4.26,1.9-4.26,5.28v.21c0,3.38,1.72,5.33,4.29,5.33S34.92,89.44,34.92,86.11Z" fill="#fff"/><path d="M42.18,90.61V81.75h4.65v8.11c0,1.53.6,2.29,1.93,2.29s2.31-.84,2.31-2.58V81.75h4.65V95.34H51.07v-2.1a4.48,4.48,0,0,1-4.32,2.42C44.13,95.66,42.18,94,42.18,90.61Z" fill="#fff"/><path d="M58.09,81.75h4.65v2.7a4.3,4.3,0,0,1,4.4-2.89v4.35c-2.84-.08-4.4.8-4.4,3v6.44H58.09Z" fill="#fff"/><path d="M72.83,88.71v-.2c0-4.37,3.25-7.13,7.36-7.13,3.72,0,6.92,2.13,6.92,7v1.22H77.54a2.72,2.72,0,0,0,2.83,2.84c1.54,0,2.19-.7,2.37-1.61h4.37c-.42,3.06-2.79,4.81-6.9,4.81S72.83,93.16,72.83,88.71ZM82.58,87c-.08-1.64-.88-2.55-2.39-2.55A2.59,2.59,0,0,0,77.59,87Z" fill="#fff"/><path d="M91.42,88.43l-4.24-6.68h5.36l2.1,3.58,2.06-3.58h4.78l-4.29,6.31,4.71,7.28H96.54l-2.42-4-2.47,4H86.9Z" fill="#fff"/><path d="M103.2,81.75h4.65v2a4.81,4.81,0,0,1,4.24-2.39c3.17,0,5.75,2.39,5.75,7.05v.21c0,4.68-2.58,7-5.78,7a4.5,4.5,0,0,1-4.21-2.32V99.9H103.2Zm9.9,6.89v-.21c0-2.39-1-3.54-2.67-3.54s-2.71,1.22-2.71,3.51v.21c0,2.31,1,3.48,2.71,3.48S113.1,90.87,113.1,88.64Z" fill="#fff"/><path d="M118.8,88.71v-.2c0-4.37,3.25-7.13,7.36-7.13,3.71,0,6.91,2.13,6.91,7v1.22H123.5a2.72,2.72,0,0,0,2.84,2.84c1.53,0,2.18-.7,2.36-1.61h4.37c-.41,3.06-2.78,4.81-6.89,4.81C121.92,95.66,118.8,93.16,118.8,88.71ZM128.55,87c-.08-1.64-.89-2.55-2.39-2.55a2.58,2.58,0,0,0-2.6,2.55Z" fill="#fff"/><path d="M134.68,81.75h4.66v2.7a4.29,4.29,0,0,1,4.39-2.89v4.35c-2.83-.08-4.39.8-4.39,3v6.44h-4.66Z" fill="#fff"/><path d="M146.25,91V84.92h-1.63V81.75h1.63V78.91h4.66v2.84h2.68v3.17h-2.68v5.61c0,1,.49,1.43,1.38,1.43a3.42,3.42,0,0,0,1.32-.23v3.54a10,10,0,0,1-2.57.39C148,95.66,146.25,94.17,146.25,91Z" fill="#fff"/><path d="M154.62,91h4.29c.16,1,.6,1.53,1.93,1.53,1.14,0,1.66-.44,1.66-1.12s-.65-1-2.52-1.22c-3.64-.47-5.17-1.53-5.17-4.37,0-3,2.67-4.47,5.82-4.47,3.35,0,5.69,1.15,6,4.4h-4.22a1.52,1.52,0,0,0-1.74-1.36c-1,0-1.53.45-1.53,1.07s.62.91,2.29,1.12c3.77.47,5.59,1.45,5.59,4.37,0,3.22-2.4,4.68-6.17,4.68S154.73,94,154.62,91Z" fill="#fff"/><path d="M172.12,81.75H177l2,8.13,2.29-8.13H185l2,8.13,2.21-8.13h4.42l-4.32,13.59h-4.44l-2-7.59-2.11,7.59h-4.52Z" fill="#fff"/><path d="M194.74,78.05a2.57,2.57,0,1,1,2.55,2.4A2.43,2.43,0,0,1,194.74,78.05Zm.24,3.7h4.65V95.34H195Z" fill="#fff"/><path d="M202.26,75.77h4.62V95.34h-4.62Z" fill="#fff"/><path d="M209.51,75.77h4.63V95.34h-4.63Z" fill="#fff"/><path d="M20.62,127.34h4.63c.21,1,.81,1.77,2.5,1.77a2.57,2.57,0,0,0,2.88-2.86v-2.08a4.76,4.76,0,0,1-4.21,2.5c-3.17,0-5.77-2.34-5.77-6.53v-.21c0-4,2.57-6.55,5.77-6.55a4.42,4.42,0,0,1,4.21,2.29v-1.92h4.66V126.2c0,4.06-2.68,6.19-7.54,6.19C23.12,132.39,21,130.44,20.62,127.34Zm10.14-7.22v-.19c0-1.87-1-3.06-2.67-3.06s-2.68,1.22-2.68,3.09v.21c0,1.87,1,3.07,2.65,3.07S30.76,122,30.76,120.12Z" fill="#fff"/><path d="M36.93,120.71v-.2c0-4.37,3.25-7.13,7.35-7.13,3.72,0,6.92,2.13,6.92,7v1.22H41.63a2.72,2.72,0,0,0,2.84,2.84c1.53,0,2.18-.7,2.36-1.61H51.2c-.42,3.07-2.78,4.81-6.89,4.81C40.05,127.66,36.93,125.16,36.93,120.71ZM46.68,119c-.08-1.64-.89-2.55-2.4-2.55a2.59,2.59,0,0,0-2.6,2.55Z" fill="#fff"/><path d="M53.44,123v-6.06H51.8v-3.17h1.64v-2.84h4.65v2.84h2.68v3.17H58.09v5.61c0,1,.49,1.43,1.38,1.43a3.42,3.42,0,0,0,1.32-.23v3.54a9.94,9.94,0,0,1-2.57.39C55.15,127.66,53.44,126.17,53.44,123Z" fill="#fff"/><path d="M71.53,126,66.1,113.75h5L74,121l2.6-7.25H81l-7.28,18.14H69.27Z" fill="#fff"/><path d="M80.73,120.71v-.2c0-4.37,3.25-7.13,7.47-7.13s7.41,2.68,7.41,7v.2c0,4.42-3.25,7.08-7.44,7.08S80.73,125.11,80.73,120.71Zm10.15-.07v-.21c0-2.29-.92-3.56-2.68-3.56s-2.71,1.22-2.71,3.51v.2c0,2.34.91,3.62,2.71,3.62S90.88,122.9,90.88,120.64Z" fill="#fff"/><path d="M97.14,122.61v-8.86h4.65v8.11c0,1.53.6,2.29,1.93,2.29s2.31-.84,2.31-2.58v-7.82h4.66v13.59H106v-2.1a4.46,4.46,0,0,1-4.31,2.42C99.09,127.66,97.14,126,97.14,122.61Z" fill="#fff"/><path d="M113.05,113.75h4.66v2.7a4.28,4.28,0,0,1,4.39-2.89v4.35c-2.83-.08-4.39.8-4.39,3v6.44h-4.66Z" fill="#fff"/><path d="M128.52,113.75h4.66v2.08a4.74,4.74,0,0,1,4.26-2.45,3.71,3.71,0,0,1,3.69,2.26,5.4,5.4,0,0,1,4.5-2.26c2.58,0,4.45,1.67,4.45,5.07v8.89h-4.66v-8.11c0-1.38-.67-2-1.74-2a2,2,0,0,0-2.08,2.29v7.87H137v-8.11c0-1.38-.68-2-1.74-2a2,2,0,0,0-2.08,2.29v7.87h-4.66Z" fill="#fff"/><path d="M151.56,123.57c0-3.19,2.7-4.44,7.23-4.44h1.3v-.31c0-1.3-.32-2.16-1.8-2.16a1.66,1.66,0,0,0-1.84,1.61h-4.37c.21-3.28,2.78-4.89,6.5-4.89s6.13,1.54,6.13,5.15v8.81h-4.52v-1.58a4.47,4.47,0,0,1-4,1.9C153.72,127.66,151.56,126.46,151.56,123.57Zm8.53-1v-.84h-1.23c-1.87,0-2.7.37-2.7,1.49,0,.78.52,1.27,1.61,1.27C159.1,124.51,160.09,123.76,160.09,122.59Z" fill="#fff"/><path d="M170.41,120.43l-4.24-6.68h5.36l2.1,3.58,2.06-3.58h4.78l-4.29,6.31,4.71,7.28h-5.36l-2.42-4-2.47,4h-4.76Z" fill="#fff"/><path d="M186.92,113.75h4.65v2.7a4.3,4.3,0,0,1,4.4-2.89v4.35c-2.84-.08-4.4.8-4.4,3v6.44h-4.65Z" fill="#fff"/><path d="M196.8,120.71v-.2c0-4.37,3.25-7.13,7.36-7.13,3.71,0,6.91,2.13,6.91,7v1.22H201.5a2.72,2.72,0,0,0,2.84,2.84c1.53,0,2.18-.7,2.36-1.61h4.37c-.41,3.07-2.78,4.81-6.89,4.81C199.92,127.66,196.8,125.16,196.8,120.71Zm9.75-1.71c-.08-1.64-.89-2.55-2.39-2.55a2.58,2.58,0,0,0-2.6,2.55Z" fill="#fff"/><path d="M213.39,116.92h-1.72v-3.17h1.72v-1.2c0-3.38,2.1-5,5.33-5a8.66,8.66,0,0,1,2.13.28v3.41a4.47,4.47,0,0,0-1.28-.18,1.37,1.37,0,0,0-1.56,1.48v1.2h2.76v3.17H218v10.42h-4.62Z" fill="#fff"/><path d="M222.23,122.61v-8.86h4.65v8.11c0,1.53.6,2.29,1.92,2.29s2.32-.84,2.32-2.58v-7.82h4.65v13.59h-4.65v-2.1a4.49,4.49,0,0,1-4.32,2.42C224.18,127.66,222.23,126,222.23,122.61Z" fill="#fff"/><path d="M238.14,113.75h4.65v2.18a4.81,4.81,0,0,1,4.47-2.55c2.63,0,4.45,1.64,4.45,5.12v8.84h-4.66v-7.9c0-1.53-.59-2.29-1.94-2.29s-2.32.83-2.32,2.58v7.61h-4.65Z" fill="#fff"/><path d="M253.29,120.69v-.21c0-4.63,2.55-7.1,5.78-7.1a4.4,4.4,0,0,1,4.18,2.29v-7.9h4.66v19.57h-4.66v-2.21a4.57,4.57,0,0,1-4.24,2.53C255.87,127.66,253.29,125.39,253.29,120.69Zm10.09-.08v-.21c0-2.29-1-3.51-2.67-3.51s-2.68,1.17-2.68,3.54v.21c0,2.28,1,3.45,2.62,3.45S263.38,122.92,263.38,120.61Z" fill="#fff"/><path d="M270.09,125a2.59,2.59,0,0,1,2.65-2.62,2.63,2.63,0,1,1,0,5.25A2.59,2.59,0,0,1,270.09,125Z" fill="#fff"/></g></g></svg>