<svg xmlns="http://www.w3.org/2000/svg" viewBox="0 0 300 600"><title>H191</title><g id="Layer_2" data-name="Layer 2"><g id="Rect"><rect width="300" height="600" fill="none"/></g><g id="We_re_here_to_help._Drop_off_your_docs_with_a_tax_pro_now." data-name="We’re here  to help.  Drop off your docs with a tax pro now."><path d="M19.67,95.15h9.85l4.39,21.24,4.57-21.24h8.67l5,21.43,4.62-21.43h9l-8,34H47.62l-5.24-21.62L37.1,129.2H27.57Z" fill="#fff"/><path d="M64.66,117.06v-.38c0-8,6-13.05,13.48-13.05,6.81,0,12.67,3.91,12.67,12.86v2.24H73.28c.24,3.28,2.15,5.19,5.2,5.19,2.81,0,4-1.29,4.33-3h8c-.76,5.61-5.1,8.81-12.62,8.81C70.38,129.78,64.66,125.2,64.66,117.06Zm17.86-3.14c-.14-3-1.62-4.67-4.38-4.67-2.57,0-4.33,1.67-4.76,4.67Z" fill="#fff"/><path d="M91.66,107l3.81-12.43L103,97.06l-6.53,11.76Z" fill="#fff"/><path d="M103.28,104.3h8.53v5a7.87,7.87,0,0,1,8-5.29v8c-5.2-.15-8,1.47-8,5.47V129.2h-8.53Z" fill="#fff"/><path d="M121.38,117.06v-.38c0-8,6-13.05,13.47-13.05,6.81,0,12.67,3.91,12.67,12.86v2.24H130c.23,3.28,2.14,5.19,5.19,5.19,2.81,0,4-1.29,4.33-3h8c-.76,5.61-5.09,8.81-12.62,8.81C127.09,129.78,121.38,125.2,121.38,117.06Zm17.86-3.14c-.15-3-1.62-4.67-4.39-4.67-2.57,0-4.33,1.67-4.76,4.67Z" fill="#fff"/><path d="M159.14,93.34h8.52v15a8.81,8.81,0,0,1,8.19-4.67c4.81,0,8.15,3,8.15,9.38V129.2h-8.53V114.73c0-2.81-1.09-4.19-3.57-4.19s-4.24,1.52-4.24,4.71V129.2h-8.52Z" fill="#fff"/><path d="M186.8,117.06v-.38c0-8,5.95-13.05,13.48-13.05,6.81,0,12.67,3.91,12.67,12.86v2.24H195.42c.24,3.28,2.14,5.19,5.19,5.19,2.81,0,4-1.29,4.34-3h8c-.77,5.61-5.1,8.81-12.62,8.81C192.52,129.78,186.8,125.2,186.8,117.06Zm17.86-3.14c-.14-3-1.62-4.67-4.38-4.67-2.57,0-4.33,1.67-4.76,4.67Z" fill="#fff"/><path d="M215.9,104.3h8.52v5a7.87,7.87,0,0,1,8.05-5.29v8c-5.19-.15-8.05,1.47-8.05,5.47V129.2H215.9Z" fill="#fff"/><path d="M234,117.06v-.38c0-8,5.95-13.05,13.48-13.05,6.81,0,12.66,3.91,12.66,12.86v2.24H242.61c.24,3.28,2.14,5.19,5.19,5.19,2.81,0,4-1.29,4.33-3h8c-.76,5.61-5.09,8.81-12.62,8.81C239.7,129.78,234,125.2,234,117.06Zm17.86-3.14c-.14-3-1.62-4.67-4.38-4.67-2.58,0-4.34,1.67-4.77,4.67Z" fill="#fff"/><path d="M22.67,172.17V161.08h-3v-5.81h3v-5.19h8.52v5.19H36.1v5.81H31.19v10.28c0,1.81.91,2.62,2.53,2.62a6.37,6.37,0,0,0,2.42-.43V180a17.66,17.66,0,0,1-4.71.71C25.81,180.74,22.67,178,22.67,172.17Z" fill="#fff"/><path d="M38,168v-.38c0-8,6-13.05,13.67-13.05s13.57,4.9,13.57,12.81v.38c0,8.1-5.95,13-13.62,13S38,176.08,38,168Zm18.57-.14v-.38c0-4.2-1.66-6.53-4.9-6.53s-5,2.24-5,6.43v.38c0,4.29,1.67,6.62,5,6.62S56.57,172,56.57,167.89Z" fill="#fff"/><path d="M76.9,144.31h8.53v15a8.78,8.78,0,0,1,8.19-4.67c4.81,0,8.14,3,8.14,9.38v16.19H93.24V165.7c0-2.81-1.1-4.19-3.57-4.19s-4.24,1.52-4.24,4.71v13.95H76.9Z" fill="#fff"/><path d="M104.57,168v-.38c0-8,6-13.05,13.47-13.05,6.81,0,12.67,3.9,12.67,12.86v2.24H113.19c.24,3.28,2.14,5.19,5.19,5.19,2.81,0,4-1.29,4.33-3h8c-.76,5.62-5.09,8.81-12.62,8.81C110.28,180.74,104.57,176.17,104.57,168Zm17.86-3.14c-.15-3-1.62-4.67-4.39-4.67-2.57,0-4.33,1.67-4.76,4.67Z" fill="#fff"/><path d="M133.9,144.31h8.48v35.86H133.9Z" fill="#fff"/><path d="M147,155.27h8.52V159a8.79,8.79,0,0,1,7.76-4.38c5.81,0,10.53,4.38,10.53,12.91v.38c0,8.57-4.72,12.85-10.57,12.85-3.77,0-6.48-1.76-7.72-4.23v12H147Zm18.14,12.62v-.38c0-4.39-1.9-6.48-4.91-6.48s-5,2.24-5,6.43v.38c0,4.24,1.86,6.38,5,6.38S165.09,172,165.09,167.89Z" fill="#fff"/><path d="M175.9,175.89a4.75,4.75,0,0,1,4.85-4.81,4.81,4.81,0,1,1,0,9.62A4.75,4.75,0,0,1,175.9,175.89Z" fill="#fff"/><path d="M22.29,197.09H34.67c12.09,0,18.24,6,18.24,16.62v.38c0,10.62-6.29,17-18.29,17H22.29Zm12,26.53c5.81,0,8.39-3.05,8.39-9.38v-.38c0-6.48-2.58-9.24-8.48-9.24H32.1v19Z" fill="#fff"/><path d="M56.19,206.24h8.52v4.95a7.86,7.86,0,0,1,8.05-5.29v8c-5.19-.15-8.05,1.47-8.05,5.47v11.81H56.19Z" fill="#fff"/><path d="M74.28,219v-.38c0-8,6-13.05,13.67-13.05s13.57,4.9,13.57,12.81v.38c0,8.1-6,13-13.62,13S74.28,227.05,74.28,219Zm18.58-.14v-.38c0-4.2-1.67-6.53-4.91-6.53s-5,2.24-5,6.43v.38c0,4.29,1.67,6.62,5,6.62S92.86,223,92.86,218.86Z" fill="#fff"/><path d="M104.52,206.24H113V210a8.81,8.81,0,0,1,7.77-4.38c5.81,0,10.52,4.38,10.52,12.91v.38c0,8.57-4.71,12.85-10.57,12.85-3.76,0-6.48-1.76-7.72-4.23v12h-8.52Zm18.15,12.62v-.38c0-4.39-1.91-6.48-4.91-6.48s-5,2.24-5,6.43v.38c0,4.24,1.85,6.38,5,6.38S122.67,223,122.67,218.86Z" fill="#fff"/><path d="M141.76,219v-.38c0-8,6-13.05,13.66-13.05S169,210.47,169,218.38v.38c0,8.1-6,13-13.62,13S141.76,227.05,141.76,219Zm18.57-.14v-.38c0-4.2-1.67-6.53-4.91-6.53s-4.95,2.24-4.95,6.43v.38c0,4.29,1.67,6.62,4.95,6.62S160.33,223,160.33,218.86Z" fill="#fff"/><path d="M173.28,212.05h-3.14v-5.81h3.14v-1.91c0-6.19,3.81-9.09,9.72-9.09a14.6,14.6,0,0,1,3.81.47V202a7.56,7.56,0,0,0-2.29-.33,2.49,2.49,0,0,0-2.76,2.71v1.91H189v-2.19c0-6.2,3.9-9.15,9.76-9.15a14.94,14.94,0,0,1,3.9.53v6.23a7.85,7.85,0,0,0-2.33-.33,2.49,2.49,0,0,0-2.81,2.72v2.19h5v5.81h-5v19.09H189V212.05h-7.24v19.09h-8.48Z" fill="#fff"/><path d="M29.33,279.59l-9.95-22.38h9.24l5.14,13.28,4.77-13.28h8.14L33.33,290.45H25.19Z" fill="#fff"/><path d="M46.19,270v-.38c0-8,6-13,13.67-13s13.57,4.9,13.57,12.81v.38c0,8.1-6,12.95-13.62,12.95S46.19,278,46.19,270Zm18.57-.14v-.39c0-4.19-1.67-6.52-4.9-6.52s-5,2.24-5,6.43v.38c0,4.29,1.67,6.62,5,6.62S64.76,274,64.76,269.83Z" fill="#fff"/><path d="M76.23,273.44V257.21h8.53v14.85c0,2.81,1.09,4.19,3.52,4.19s4.24-1.52,4.24-4.71V257.21h8.53v24.9H92.52v-3.86c-1.33,2.58-3.76,4.43-7.9,4.43C79.81,282.68,76.23,279.73,76.23,273.44Z" fill="#fff"/><path d="M105.38,257.21h8.52v5a7.84,7.84,0,0,1,8-5.29v8c-5.19-.15-8,1.47-8,5.47v11.81h-8.52Z" fill="#fff"/><path d="M132.47,269.92v-.38c0-8.48,4.67-13,10.57-13,3.91,0,6.24,1.67,7.67,4.19V246.25h8.52v35.86h-8.52v-4.05a8.38,8.38,0,0,1-7.76,4.62C137.18,282.68,132.47,278.54,132.47,269.92Zm18.48-.14v-.38c0-4.19-1.76-6.43-4.91-6.43s-4.9,2.14-4.9,6.47v.39c0,4.19,1.85,6.33,4.81,6.33S151,274,151,269.78Z" fill="#fff"/><path d="M162.23,270v-.38c0-8,6-13,13.67-13s13.57,4.9,13.57,12.81v.38c0,8.1-5.95,12.95-13.62,12.95S162.23,278,162.23,270Zm18.57-.14v-.39c0-4.19-1.66-6.52-4.9-6.52s-5,2.24-5,6.43v.38c0,4.29,1.66,6.62,5,6.62S180.8,274,180.8,269.83Z" fill="#fff"/><path d="M191.13,270v-.38c0-8.29,6-13,13.29-13,6.1,0,11.72,2.67,12.19,10.24h-8c-.38-2.34-1.52-3.62-4-3.62-3,0-4.76,2.14-4.76,6.33v.38c0,4.34,1.67,6.58,4.9,6.58,2.39,0,4.05-1.43,4.34-4.15h7.67c-.24,6.29-4.48,10.38-12.53,10.38C196.8,282.68,191.13,278.35,191.13,270Z" fill="#fff"/><path d="M218.18,274.21H226c.28,1.81,1.09,2.81,3.52,2.81,2.1,0,3.05-.81,3.05-2s-1.19-1.76-4.62-2.24c-6.67-.86-9.48-2.81-9.48-8,0-5.52,4.91-8.19,10.67-8.19,6.14,0,10.43,2.09,11,8h-7.71c-.34-1.67-1.24-2.48-3.19-2.48s-2.81.81-2.81,1.95,1.14,1.67,4.19,2.05c6.9.86,10.24,2.67,10.24,8,0,5.91-4.38,8.57-11.29,8.57C222.51,282.68,218.37,279.73,218.18,274.21Z" fill="#fff"/><path d="M19.43,308.18h8.9L32,323.08l4.19-14.9H43l3.72,14.9,4-14.9h8.1L51,333.08H42.81l-3.71-13.9-3.86,13.9H27Z" fill="#fff"/><path d="M60.85,301.41a4.71,4.71,0,1,1,4.67,4.38A4.41,4.41,0,0,1,60.85,301.41Zm.43,6.77h8.53v24.9H61.28Z" fill="#fff"/><path d="M75.52,325.08V314h-3v-5.81h3V303h8.53v5.2H89V314h-4.9v10.28c0,1.81.9,2.62,2.52,2.62a6.42,6.42,0,0,0,2.43-.43v6.48a18.24,18.24,0,0,1-4.72.71C78.66,333.65,75.52,330.94,75.52,325.08Z" fill="#fff"/><path d="M92.19,297.22h8.52v15a8.78,8.78,0,0,1,8.19-4.67c4.81,0,8.15,3,8.15,9.38v16.19h-8.53V318.6c0-2.81-1.09-4.19-3.57-4.19s-4.24,1.53-4.24,4.72v13.95H92.19Z" fill="#fff"/><path d="M128.42,326.18c0-5.86,5-8.15,13.24-8.15H144v-.57c0-2.38-.57-3.95-3.28-3.95a3.05,3.05,0,0,0-3.38,2.95h-8c.38-6,5.09-8.95,11.9-8.95s11.24,2.81,11.24,9.43v16.14h-8.29v-2.9c-1.19,1.81-3.38,3.47-7.38,3.47C132.38,333.65,128.42,331.46,128.42,326.18ZM144,324.37v-1.53H141.8c-3.42,0-5,.67-5,2.72,0,1.43,1,2.33,3,2.33C142.23,327.89,144,326.51,144,324.37Z" fill="#fff"/><path d="M166.47,325.08V314h-3v-5.81h3V303H175v5.2h4.91V314H175v10.28c0,1.81.91,2.62,2.53,2.62a6.46,6.46,0,0,0,2.43-.43v6.48a18.24,18.24,0,0,1-4.72.71C169.61,333.65,166.47,330.94,166.47,325.08Z" fill="#fff"/><path d="M181.8,326.18c0-5.86,4.95-8.15,13.24-8.15h2.38v-.57c0-2.38-.57-3.95-3.29-3.95a3.06,3.06,0,0,0-3.38,2.95h-8c.38-6,5.1-8.95,11.91-8.95s11.24,2.81,11.24,9.43v16.14h-8.29v-2.9c-1.19,1.81-3.38,3.47-7.38,3.47C185.75,333.65,181.8,331.46,181.8,326.18Zm15.62-1.81v-1.53h-2.24c-3.43,0-5,.67-5,2.72,0,1.43,1,2.33,3,2.33C195.61,327.89,197.42,326.51,197.42,324.37Z" fill="#fff"/><path d="M216.32,320.41l-7.76-12.23h9.81l3.86,6.57,3.76-6.57h8.76l-7.86,11.57,8.62,13.33H225.7l-4.43-7.43-4.52,7.43H208Z" fill="#fff"/><path d="M21.52,359.14h8.53v3.72a8.79,8.79,0,0,1,7.76-4.38c5.81,0,10.53,4.38,10.53,12.9v.38c0,8.58-4.72,12.86-10.58,12.86-3.76,0-6.47-1.76-7.71-4.24v12H21.52Zm18.15,12.62v-.38c0-4.38-1.91-6.47-4.91-6.47s-4.95,2.23-4.95,6.43v.38c0,4.24,1.86,6.38,4.95,6.38S39.67,375.86,39.67,371.76Z" fill="#fff"/><path d="M51.43,359.14H60v5a7.84,7.84,0,0,1,8-5.29v7.95c-5.19-.14-8,1.48-8,5.48v11.81H51.43Z" fill="#fff"/><path d="M69.52,371.91v-.38c0-8,6-13,13.67-13s13.57,4.9,13.57,12.81v.38c0,8.09-6,12.95-13.62,12.95S69.52,380,69.52,371.91Zm18.57-.15v-.38c0-4.19-1.66-6.52-4.9-6.52s-5,2.24-5,6.43v.38c0,4.29,1.66,6.62,5,6.62S88.09,375.91,88.09,371.76Z" fill="#fff"/><path d="M108.42,359.14H117v4a8.79,8.79,0,0,1,8.19-4.66c4.81,0,8.14,3,8.14,9.38v16.19h-8.52V369.57c0-2.81-1.1-4.19-3.57-4.19S117,366.91,117,370.1v13.95h-8.53Z" fill="#fff"/><path d="M136.09,371.91v-.38c0-8,5.95-13,13.67-13s13.57,4.9,13.57,12.81v.38c0,8.09-6,12.95-13.62,12.95S136.09,380,136.09,371.91Zm18.57-.15v-.38c0-4.19-1.66-6.52-4.9-6.52s-5,2.24-5,6.43v.38c0,4.29,1.67,6.62,5,6.62S154.66,375.91,154.66,371.76Z" fill="#fff"/><path d="M163.42,359.14h8.91L176,374.05l4.19-14.91H187l3.71,14.91,4-14.91h8.09L195,384.05h-8.14l-3.72-13.91-3.86,13.91H171Z" fill="#fff"/><path d="M201.23,379.76a4.75,4.75,0,0,1,4.86-4.8,4.81,4.81,0,1,1,0,9.61A4.75,4.75,0,0,1,201.23,379.76Z" fill="#fff"/></g></g></svg>