<svg xmlns="http://www.w3.org/2000/svg" viewBox="0 0 160 600"><title>h6</title><g id="Layer_2" data-name="Layer 2"><g id="rect"><rect width="160" height="600" fill="none"/></g><g id="Still_open._Still_finding_credits_and_deductions_daily." data-name="Still open. Still finding credits and deductions daily."><path d="M19.47,133.21h4c.1,1,.57,1.89,2.3,1.89,1.2,0,1.87-.59,1.87-1.44s-.55-1.14-2.3-1.41c-4.11-.49-5.5-1.71-5.5-4.64,0-2.63,2.16-4.54,5.64-4.54s5.48,1.47,5.74,4.54H27.33A1.66,1.66,0,0,0,25.45,126c-1.12,0-1.69.51-1.69,1.24s.45,1.18,2.26,1.43c3.69.41,5.58,1.36,5.58,4.52,0,2.66-2.12,4.84-5.86,4.84C21.67,138.07,19.59,136.36,19.47,133.21Z" fill="#fff"/><path d="M33.44,134.41v-4.74H32.15v-2.49h1.29V125h3.64v2.22h2.1v2.49h-2.1v4.39c0,.78.39,1.12,1.08,1.12a2.84,2.84,0,0,0,1-.18v2.77a7.79,7.79,0,0,1-2,.3C34.78,138.07,33.44,136.91,33.44,134.41Z" fill="#fff"/><path d="M40.48,124.29a2,2,0,1,1,2,1.87A1.9,1.9,0,0,1,40.48,124.29Zm.19,2.89h3.64v10.65H40.67Z" fill="#fff"/><path d="M46.37,122.5H50v15.33H46.37Z" fill="#fff"/><path d="M52.05,122.5h3.62v15.33H52.05Z" fill="#fff"/><path d="M60.76,132.64v-.17c0-3.41,2.55-5.57,5.84-5.57s5.81,2.09,5.81,5.47v.17c0,3.46-2.55,5.53-5.83,5.53S60.76,136.08,60.76,132.64Zm7.94-.06v-.17c0-1.79-.71-2.78-2.1-2.78s-2.11,1-2.11,2.74v.17c0,1.83.71,2.83,2.11,2.83S68.7,134.35,68.7,132.58Z" fill="#fff"/><path d="M73.69,127.18h3.64v1.59a3.76,3.76,0,0,1,3.32-1.87c2.49,0,4.5,1.87,4.5,5.51v.17c0,3.66-2,5.49-4.52,5.49a3.51,3.51,0,0,1-3.3-1.81v5.13H73.69Zm7.76,5.4v-.17c0-1.87-.82-2.76-2.1-2.76s-2.12.95-2.12,2.74v.17c0,1.81.8,2.72,2.12,2.72S81.45,134.33,81.45,132.58Z" fill="#fff"/><path d="M85.91,132.64v-.17a5.44,5.44,0,0,1,5.76-5.57c2.91,0,5.41,1.67,5.41,5.49v1H89.59a2.14,2.14,0,0,0,2.22,2.22c1.2,0,1.71-.55,1.86-1.26h3.41c-.32,2.4-2.17,3.76-5.39,3.76S85.91,136.12,85.91,132.64Zm7.63-1.35c-.06-1.28-.69-2-1.87-2a2,2,0,0,0-2,2Z" fill="#fff"/><path d="M98.35,127.18H102v1.71a3.76,3.76,0,0,1,3.51-2c2,0,3.48,1.28,3.48,4v6.92h-3.65v-6.19c0-1.2-.47-1.79-1.52-1.79s-1.82.65-1.82,2v6H98.35Z" fill="#fff"/><path d="M110.61,136a2,2,0,0,1,2.07-2.06,2.06,2.06,0,1,1,0,4.11A2,2,0,0,1,110.61,136Z" fill="#fff"/><path d="M19.47,171.8h4c.1,1,.57,1.89,2.3,1.89,1.2,0,1.87-.59,1.87-1.44s-.55-1.14-2.3-1.41c-4.11-.49-5.5-1.71-5.5-4.64,0-2.63,2.16-4.54,5.64-4.54s5.48,1.47,5.74,4.54H27.33a1.66,1.66,0,0,0-1.88-1.57c-1.12,0-1.69.51-1.69,1.24s.45,1.19,2.26,1.43c3.69.41,5.58,1.36,5.58,4.52,0,2.66-2.12,4.84-5.86,4.84C21.67,176.66,19.59,175,19.47,171.8Z" fill="#fff"/><path d="M33.44,173v-4.74H32.15v-2.49h1.29v-2.22h3.64v2.22h2.1v2.49h-2.1v4.39c0,.78.39,1.12,1.08,1.12a2.84,2.84,0,0,0,1-.18v2.77a7.79,7.79,0,0,1-2,.3C34.78,176.66,33.44,175.5,33.44,173Z" fill="#fff"/><path d="M40.48,162.88a2,2,0,1,1,2,1.87A1.9,1.9,0,0,1,40.48,162.88Zm.19,2.89h3.64v10.65H40.67Z" fill="#fff"/><path d="M46.37,161.09H50v15.33H46.37Z" fill="#fff"/><path d="M52.05,161.09h3.62v15.33H52.05Z" fill="#fff"/><path d="M61.88,168.26H60.54v-2.49h1.34v-.93c0-2.65,1.65-3.91,4.17-3.91a6.5,6.5,0,0,1,1.67.22v2.67a3.36,3.36,0,0,0-1-.14,1.07,1.07,0,0,0-1.23,1.16v.93h2.16v2.49H65.5v8.16H61.88Z" fill="#fff"/><path d="M68.8,162.88a2,2,0,1,1,2,1.87A1.9,1.9,0,0,1,68.8,162.88Zm.19,2.89h3.64v10.65H69Z" fill="#fff"/><path d="M74.59,165.77h3.64v1.71a3.75,3.75,0,0,1,3.5-2c2.06,0,3.48,1.28,3.48,4v6.92H81.57v-6.19c0-1.2-.47-1.79-1.53-1.79s-1.81.65-1.81,2v6H74.59Z" fill="#fff"/><path d="M86.46,171.21V171c0-3.62,2-5.55,4.52-5.55a3.44,3.44,0,0,1,3.27,1.79v-6.19H97.9v15.33H94.25v-1.73a3.57,3.57,0,0,1-3.31,2C88.47,176.66,86.46,174.89,86.46,171.21Zm7.9-.06V171c0-1.79-.76-2.74-2.1-2.74s-2.1.91-2.1,2.76v.17c0,1.79.8,2.7,2.06,2.7S94.36,173,94.36,171.15Z" fill="#fff"/><path d="M99.67,162.88a2,2,0,1,1,2,1.87A1.9,1.9,0,0,1,99.67,162.88Zm.19,2.89h3.64v10.65H99.86Z" fill="#fff"/><path d="M105.46,165.77h3.64v1.71a3.75,3.75,0,0,1,3.5-2c2.06,0,3.48,1.28,3.48,4v6.92h-3.64v-6.19c0-1.2-.47-1.79-1.53-1.79s-1.81.65-1.81,2v6h-3.64Z" fill="#fff"/><path d="M117.27,176.42h3.62c.16.77.63,1.38,2,1.38a2,2,0,0,0,2.26-2.24v-1.62a3.74,3.74,0,0,1-3.29,1.95c-2.49,0-4.52-1.83-4.52-5.11v-.16c0-3.14,2-5.13,4.52-5.13a3.45,3.45,0,0,1,3.29,1.79v-1.51h3.65v9.75c0,3.18-2.1,4.85-5.91,4.85C119.22,180.37,117.55,178.84,117.27,176.42Zm7.94-5.66v-.14c0-1.47-.76-2.4-2.1-2.4s-2.1.95-2.1,2.42v.16c0,1.47.78,2.4,2.08,2.4S125.21,172.27,125.21,170.76Z" fill="#fff"/><path d="M19.51,209.82v-.16a5.35,5.35,0,0,1,5.68-5.58c2.6,0,5,1.14,5.21,4.38H27a1.57,1.57,0,0,0-1.71-1.55c-1.28,0-2,.91-2,2.71v.16c0,1.85.72,2.81,2.1,2.81a1.77,1.77,0,0,0,1.85-1.77h3.28c-.1,2.68-1.91,4.43-5.35,4.43C21.93,215.25,19.51,213.4,19.51,209.82Z" fill="#fff"/><path d="M31.64,204.36h3.65v2.12a3.35,3.35,0,0,1,3.44-2.26v3.4c-2.22-.06-3.44.63-3.44,2.34v5H31.64Z" fill="#fff"/><path d="M39.38,209.82v-.16a5.45,5.45,0,0,1,5.76-5.58c2.91,0,5.42,1.67,5.42,5.49v1H43.07a2.12,2.12,0,0,0,2.22,2.22c1.2,0,1.71-.55,1.85-1.26h3.42c-.33,2.4-2.18,3.76-5.4,3.76S39.38,213.3,39.38,209.82ZM47,208.48c-.07-1.29-.7-2-1.88-2a2,2,0,0,0-2,2Z" fill="#fff"/><path d="M51.29,209.8v-.16c0-3.63,2-5.56,4.52-5.56a3.45,3.45,0,0,1,3.28,1.79v-6.19h3.64V215H59.09v-1.73a3.58,3.58,0,0,1-3.32,2C53.31,215.25,51.29,213.48,51.29,209.8Zm7.9-.06v-.17c0-1.79-.75-2.74-2.1-2.74s-2.09.91-2.09,2.76v.17c0,1.79.79,2.7,2,2.7S59.19,211.55,59.19,209.74Z" fill="#fff"/><path d="M64.51,201.47a1.89,1.89,0,0,1,2-1.89,1.89,1.89,0,1,1,0,3.77A1.89,1.89,0,0,1,64.51,201.47Zm.18,2.89h3.65V215H64.69Z" fill="#fff"/><path d="M70.78,211.59v-4.74H69.5v-2.49h1.28v-2.22h3.64v2.22h2.1v2.49h-2.1v4.39c0,.78.39,1.12,1.08,1.12a2.84,2.84,0,0,0,1-.18V215a7.77,7.77,0,0,1-2,.3C72.12,215.25,70.78,214.09,70.78,211.59Z" fill="#fff"/><path d="M77.34,211.63H80.7c.12.77.46,1.2,1.5,1.2s1.3-.34,1.3-.87-.5-.76-2-1c-2.85-.37-4-1.2-4-3.42s2.1-3.5,4.56-3.5c2.63,0,4.46.89,4.7,3.44h-3.3a1.19,1.19,0,0,0-1.36-1.06c-.79,0-1.2.35-1.2.83s.49.72,1.79.88c3,.37,4.38,1.14,4.38,3.42,0,2.52-1.88,3.66-4.83,3.66S77.42,214,77.34,211.63Z" fill="#fff"/><path d="M91.33,212.06c0-2.51,2.11-3.48,5.65-3.48h1v-.25c0-1-.24-1.69-1.4-1.69a1.31,1.31,0,0,0-1.45,1.27H91.73c.17-2.57,2.18-3.83,5.09-3.83s4.81,1.2,4.81,4V215H98.08v-1.24a3.49,3.49,0,0,1-3.15,1.48C93,215.25,91.33,214.32,91.33,212.06Zm6.67-.78v-.65H97c-1.46,0-2.11.29-2.11,1.16,0,.61.41,1,1.26,1A1.6,1.6,0,0,0,98,211.28Z" fill="#fff"/><path d="M103.4,204.36H107v1.71a3.75,3.75,0,0,1,3.5-2c2.06,0,3.49,1.28,3.49,4V215h-3.65v-6.19c0-1.2-.47-1.79-1.52-1.79s-1.82.65-1.82,2v6H103.4Z" fill="#fff"/><path d="M115.27,209.8v-.16c0-3.63,2-5.56,4.52-5.56a3.45,3.45,0,0,1,3.28,1.79v-6.19h3.64V215h-3.64v-1.73a3.58,3.58,0,0,1-3.32,2C117.29,215.25,115.27,213.48,115.27,209.8Zm7.9-.06v-.17c0-1.79-.75-2.74-2.1-2.74s-2.09.91-2.09,2.76v.17c0,1.79.79,2.7,2,2.7S123.17,211.55,123.17,209.74Z" fill="#fff"/><path d="M19.55,248.39v-.16c0-3.63,2-5.56,4.52-5.56a3.46,3.46,0,0,1,3.28,1.79v-6.19H31V253.6H27.35v-1.73a3.58,3.58,0,0,1-3.32,2C21.56,253.84,19.55,252.07,19.55,248.39Zm7.9-.06v-.17c0-1.79-.76-2.74-2.1-2.74s-2.1.91-2.1,2.77v.16c0,1.79.8,2.71,2.06,2.71S27.45,250.14,27.45,248.33Z" fill="#fff"/><path d="M32.28,248.41v-.16A5.44,5.44,0,0,1,38,242.67c2.91,0,5.41,1.67,5.41,5.49v1H36a2.12,2.12,0,0,0,2.22,2.22c1.2,0,1.71-.55,1.85-1.26h3.42c-.32,2.4-2.18,3.76-5.39,3.76S32.28,251.89,32.28,248.41Zm7.63-1.34c-.06-1.29-.69-2-1.87-2a2,2,0,0,0-2,2Z" fill="#fff"/><path d="M44.19,248.39v-.16c0-3.63,2-5.56,4.52-5.56A3.44,3.44,0,0,1,52,244.46v-6.19h3.65V253.6H52v-1.73a3.58,3.58,0,0,1-3.31,2C46.2,253.84,44.19,252.07,44.19,248.39Zm7.9-.06v-.17c0-1.79-.76-2.74-2.1-2.74s-2.1.91-2.1,2.77v.16c0,1.79.8,2.71,2.06,2.71S52.09,250.14,52.09,248.33Z" fill="#fff"/><path d="M57.4,249.9v-7h3.65v6.35c0,1.21.46,1.8,1.5,1.8s1.81-.66,1.81-2V243H68V253.6H64.36V252A3.48,3.48,0,0,1,61,253.84C58.93,253.84,57.4,252.58,57.4,249.9Z" fill="#fff"/><path d="M69.29,248.41v-.16A5.36,5.36,0,0,1,75,242.67c2.61,0,5,1.14,5.21,4.38H76.76a1.57,1.57,0,0,0-1.7-1.55c-1.29,0-2,.91-2,2.71v.16c0,1.85.71,2.81,2.1,2.81A1.77,1.77,0,0,0,77,249.41h3.28c-.11,2.68-1.92,4.43-5.36,4.43C71.72,253.84,69.29,252,69.29,248.41Z" fill="#fff"/><path d="M81.92,250.18v-4.74H80.64V243h1.28v-2.21h3.64V243h2.1v2.49h-2.1v4.39c0,.78.39,1.12,1.08,1.12a2.84,2.84,0,0,0,1-.18v2.77a7.79,7.79,0,0,1-2,.3C83.26,253.84,81.92,252.68,81.92,250.18Z" fill="#fff"/><path d="M89,240.06a2,2,0,1,1,2,1.88A1.9,1.9,0,0,1,89,240.06Zm.19,2.89h3.64V253.6H89.15Z" fill="#fff"/><path d="M94.18,248.41v-.16c0-3.42,2.54-5.58,5.84-5.58s5.8,2.1,5.8,5.47v.17c0,3.46-2.54,5.53-5.82,5.53S94.18,251.85,94.18,248.41Zm7.94-.06v-.16c0-1.8-.72-2.79-2.1-2.79s-2.12.95-2.12,2.74v.17c0,1.83.71,2.83,2.12,2.83S102.12,250.12,102.12,248.35Z" fill="#fff"/><path d="M107.11,243h3.64v1.71a3.75,3.75,0,0,1,3.5-2c2.06,0,3.48,1.28,3.48,4v6.92h-3.64v-6.19c0-1.2-.47-1.79-1.53-1.79s-1.81.65-1.81,2v6h-3.64Z" fill="#fff"/><path d="M118.79,250.22h3.36c.12.77.47,1.2,1.51,1.2s1.3-.34,1.3-.87-.51-.76-2-1c-2.85-.37-4-1.2-4-3.42s2.09-3.5,4.56-3.5c2.62,0,4.45.89,4.7,3.44h-3.3a1.19,1.19,0,0,0-1.36-1.06c-.8,0-1.2.35-1.2.83s.48.72,1.79.88c3,.37,4.37,1.14,4.37,3.42,0,2.52-1.87,3.66-4.82,3.66S118.88,252.58,118.79,250.22Z" fill="#fff"/><path d="M19.55,287v-.16c0-3.63,2-5.56,4.52-5.56a3.46,3.46,0,0,1,3.28,1.79v-6.19H31v15.33H27.35v-1.73a3.58,3.58,0,0,1-3.32,2C21.56,292.43,19.55,290.66,19.55,287Zm7.9-.06v-.16c0-1.8-.76-2.75-2.1-2.75s-2.1.91-2.1,2.77v.16c0,1.79.8,2.71,2.06,2.71S27.45,288.73,27.45,286.92Z" fill="#fff"/><path d="M32.24,289.24c0-2.5,2.11-3.48,5.65-3.48h1v-.25c0-1-.24-1.69-1.4-1.69a1.31,1.31,0,0,0-1.45,1.27H32.64c.17-2.57,2.18-3.83,5.09-3.83s4.81,1.2,4.81,4v6.9H39V291a3.49,3.49,0,0,1-3.15,1.48C33.92,292.43,32.24,291.5,32.24,289.24Zm6.67-.77v-.66H38c-1.47,0-2.12.29-2.12,1.16,0,.61.41,1,1.26,1C38.14,290,38.91,289.38,38.91,288.47Z" fill="#fff"/><path d="M44.23,278.65a1.9,1.9,0,0,1,2-1.89,1.89,1.89,0,1,1,0,3.77A1.89,1.89,0,0,1,44.23,278.65Zm.18,2.89h3.65v10.65H44.41Z" fill="#fff"/><path d="M50.11,276.86h3.63v15.33H50.11Z" fill="#fff"/><path d="M59,291.11l-4.25-9.57h3.95l2.19,5.68,2-5.68h3.48l-5.7,14.21H57.26Z" fill="#fff"/><path d="M65.67,290.36a2,2,0,0,1,2.08-2.06,2.06,2.06,0,1,1,0,4.11A2,2,0,0,1,65.67,290.36Z" fill="#fff"/></g></g></svg>