<svg xmlns="http://www.w3.org/2000/svg" viewBox="0 0 160 600"><title>H191</title><g id="Layer_2" data-name="Layer 2"><g id="Rect"><rect width="160" height="600" fill="none"/></g><g id="We_re_here_to_help._Drop_off_your_docs_with_a_tax_pro_now." data-name="We’re here to help. Drop off your docs with a tax pro now."><path d="M20.65,144.69h4.62l2.06,10,2.14-10h4.07l2.32,10.05L38,144.69h4.24l-3.73,16H33.76L31.3,150.52l-2.48,10.14H24.35Z" fill="#fff"/><path d="M41.75,155v-.17a6,6,0,0,1,6.32-6.12c3.2,0,5.94,1.83,5.94,6v1.05H45.79a2.34,2.34,0,0,0,2.44,2.43c1.32,0,1.87-.6,2-1.38H54c-.35,2.63-2.39,4.13-5.92,4.13S41.75,158.78,41.75,155Zm8.38-1.47c-.07-1.41-.76-2.19-2.06-2.19a2.22,2.22,0,0,0-2.23,2.19Z" fill="#fff"/><path d="M54.41,150.23l1.79-5.83,3.53,1.18-3.06,5.52Z" fill="#fff"/><path d="M59.86,149h4v2.32a3.7,3.7,0,0,1,3.78-2.48v3.73c-2.44-.06-3.78.69-3.78,2.57v5.54h-4Z" fill="#fff"/><path d="M68.35,155v-.17a6,6,0,0,1,6.32-6.12c3.19,0,5.94,1.83,5.94,6v1.05H72.39a2.33,2.33,0,0,0,2.44,2.43c1.31,0,1.87-.6,2-1.38h3.75c-.36,2.63-2.39,4.13-5.92,4.13S68.35,158.78,68.35,155Zm8.38-1.47c-.07-1.41-.76-2.19-2.06-2.19a2.22,2.22,0,0,0-2.23,2.19Z" fill="#fff"/><path d="M86.06,143.84h4v7a4.11,4.11,0,0,1,3.84-2.18c2.25,0,3.82,1.4,3.82,4.4v7.59h-4v-6.79c0-1.32-.51-2-1.68-2s-2,.72-2,2.22v6.54h-4Z" fill="#fff"/><path d="M99,155v-.17a6,6,0,0,1,6.32-6.12c3.2,0,5.94,1.83,5.94,6v1.05h-8.22a2.34,2.34,0,0,0,2.44,2.43c1.32,0,1.88-.6,2-1.38h3.75c-.35,2.63-2.38,4.13-5.91,4.13S99,158.78,99,155Zm8.38-1.47c-.07-1.41-.76-2.19-2.06-2.19a2.22,2.22,0,0,0-2.23,2.19Z" fill="#fff"/><path d="M112.68,149h4v2.32a3.7,3.7,0,0,1,3.78-2.48v3.73c-2.43-.06-3.78.69-3.78,2.57v5.54h-4Z" fill="#fff"/><path d="M121.16,155v-.17a6,6,0,0,1,6.32-6.12c3.2,0,6,1.83,6,6v1.05h-8.22a2.32,2.32,0,0,0,2.43,2.43c1.32,0,1.88-.6,2-1.38h3.76c-.36,2.63-2.39,4.13-5.92,4.13S121.16,158.78,121.16,155Zm8.38-1.47c-.07-1.41-.76-2.19-2.06-2.19a2.22,2.22,0,0,0-2.23,2.19Z" fill="#fff"/><path d="M22.05,182.07v-5.2h-1.4v-2.73h1.4v-2.43h4v2.43h2.3v2.73h-2.3v4.82a1.07,1.07,0,0,0,1.19,1.23,3,3,0,0,0,1.14-.2v3a8.64,8.64,0,0,1-2.22.34C23.53,186.1,22.05,184.82,22.05,182.07Z" fill="#fff"/><path d="M29.24,180.13V180c0-3.75,2.8-6.12,6.42-6.12s6.36,2.3,6.36,6V180c0,3.8-2.79,6.08-6.39,6.08S29.24,183.91,29.24,180.13Zm8.72-.07v-.18c0-2-.79-3.06-2.3-3.06s-2.33,1.05-2.33,3V180c0,2,.78,3.1,2.33,3.1S38,182,38,180.06Z" fill="#fff"/><path d="M47.49,169h4v7a4.11,4.11,0,0,1,3.84-2.19c2.26,0,3.82,1.41,3.82,4.4v7.6h-4V179c0-1.32-.51-2-1.67-2s-2,.72-2,2.21v6.55h-4Z" fill="#fff"/><path d="M60.46,180.13V180a6,6,0,0,1,6.33-6.12c3.19,0,5.94,1.83,5.94,6v1H64.51a2.33,2.33,0,0,0,2.43,2.44c1.32,0,1.88-.61,2-1.39h3.75c-.36,2.64-2.39,4.14-5.92,4.14S60.46,184,60.46,180.13Zm8.38-1.47c-.07-1.41-.76-2.19-2-2.19a2.22,2.22,0,0,0-2.24,2.19Z" fill="#fff"/><path d="M74.22,169h4v16.82h-4Z" fill="#fff"/><path d="M80.34,174.14h4v1.75A4.11,4.11,0,0,1,88,173.83c2.72,0,4.94,2.06,4.94,6v.18c0,4-2.22,6-5,6a3.85,3.85,0,0,1-3.62-2v5.63h-4Zm8.51,5.92v-.18c0-2-.89-3-2.3-3s-2.32,1.05-2.32,3V180c0,2,.87,3,2.32,3S88.85,182,88.85,180.06Z" fill="#fff"/><path d="M93.92,183.82a2.23,2.23,0,0,1,2.28-2.26,2.26,2.26,0,1,1,0,4.51A2.22,2.22,0,0,1,93.92,183.82Z" fill="#fff"/><path d="M21.88,195h5.8c5.68,0,8.56,2.84,8.56,7.8V203c0,5-3,8-8.58,8H21.88Zm5.65,12.44c2.72,0,3.93-1.43,3.93-4.4v-.18c0-3-1.21-4.33-4-4.33h-1v8.91Z" fill="#fff"/><path d="M37.78,199.31h4v2.32a3.7,3.7,0,0,1,3.78-2.48v3.73c-2.44-.06-3.78.7-3.78,2.57V211h-4Z" fill="#fff"/><path d="M46.26,205.3v-.18c0-3.75,2.79-6.12,6.41-6.12S59,201.3,59,205v.18c0,3.79-2.79,6.07-6.39,6.07S46.26,209.07,46.26,205.3Zm8.71-.07v-.18c0-2-.78-3.06-2.3-3.06s-2.32,1-2.32,3v.18c0,2,.78,3.1,2.32,3.1S55,207.17,55,205.23Z" fill="#fff"/><path d="M60.44,199.31h4v1.74A4.14,4.14,0,0,1,68.08,199c2.73,0,4.94,2.05,4.94,6.05v.18c0,4-2.21,6-5,6a3.86,3.86,0,0,1-3.62-2v5.63h-4ZM69,205.23v-.18c0-2.05-.89-3-2.3-3s-2.32,1.05-2.32,3v.18c0,2,.87,3,2.32,3S69,207.15,69,205.23Z" fill="#fff"/><path d="M77.91,205.3v-.18c0-3.75,2.79-6.12,6.41-6.12s6.36,2.3,6.36,6v.18c0,3.79-2.79,6.07-6.39,6.07S77.91,209.07,77.91,205.3Zm8.71-.07v-.18c0-2-.78-3.06-2.3-3.06S82,203,82,205v.18c0,2,.79,3.1,2.33,3.1S86.62,207.17,86.62,205.23Z" fill="#fff"/><path d="M92.69,202H91.22v-2.73h1.47v-.89c0-2.91,1.79-4.27,4.56-4.27a7,7,0,0,1,1.79.22v2.93a3.57,3.57,0,0,0-1.08-.16,1.17,1.17,0,0,0-1.29,1.28v.89h3.39v-1c0-2.9,1.83-4.29,4.58-4.29a6.8,6.8,0,0,1,1.83.25v2.93a3.59,3.59,0,0,0-1.09-.16,1.16,1.16,0,0,0-1.32,1.27v1h2.37V202h-2.37v9h-4v-9H96.67v9h-4Z" fill="#fff"/><path d="M25.18,235l-4.67-10.5h4.34l2.41,6.23,2.23-6.23h3.82l-6.25,15.59H23.24Z" fill="#fff"/><path d="M33.08,230.46v-.18c0-3.75,2.8-6.12,6.42-6.12s6.36,2.3,6.36,6v.18c0,3.8-2.79,6.08-6.39,6.08S33.08,234.24,33.08,230.46Zm8.72-.06v-.18c0-2-.78-3.06-2.3-3.06s-2.33,1.05-2.33,3v.18c0,2,.78,3.11,2.33,3.11S41.8,232.34,41.8,230.4Z" fill="#fff"/><path d="M47.18,232.09v-7.61h4v7c0,1.31.51,2,1.65,2s2-.71,2-2.21v-6.72h4v11.68h-4v-1.81a3.85,3.85,0,0,1-3.71,2.08C48.85,236.43,47.18,235,47.18,232.09Z" fill="#fff"/><path d="M60.84,224.48h4v2.32a3.7,3.7,0,0,1,3.78-2.48v3.73c-2.44-.07-3.78.69-3.78,2.57v5.54h-4Z" fill="#fff"/><path d="M73.55,230.44v-.18c0-4,2.19-6.1,5-6.1a3.8,3.8,0,0,1,3.6,2v-6.79h4v16.82h-4v-1.9a3.94,3.94,0,0,1-3.65,2.17C75.76,236.43,73.55,234.48,73.55,230.44Zm8.67-.07v-.18c0-2-.83-3-2.3-3s-2.3,1-2.3,3v.18c0,2,.87,3,2.25,3S82.22,232.36,82.22,230.37Z" fill="#fff"/><path d="M87.51,230.46v-.18c0-3.75,2.79-6.12,6.41-6.12s6.37,2.3,6.37,6v.18c0,3.8-2.8,6.08-6.39,6.08S87.51,234.24,87.51,230.46Zm8.71-.06v-.18c0-2-.78-3.06-2.3-3.06s-2.32,1.05-2.32,3v.18c0,2,.78,3.11,2.32,3.11S96.22,232.34,96.22,230.4Z" fill="#fff"/><path d="M101.06,230.46v-.18a5.89,5.89,0,0,1,6.24-6.12c2.86,0,5.49,1.25,5.72,4.81h-3.76a1.72,1.72,0,0,0-1.87-1.7c-1.41,0-2.24,1-2.24,3v.18c0,2,.78,3.08,2.3,3.08a2,2,0,0,0,2-1.94h3.59c-.11,2.95-2.1,4.87-5.87,4.87C103.72,236.43,101.06,234.39,101.06,230.46Z" fill="#fff"/><path d="M113.75,232.45h3.68c.14.85.52,1.32,1.66,1.32,1,0,1.43-.38,1.43-1s-.56-.83-2.17-1.05c-3.13-.4-4.44-1.32-4.44-3.75,0-2.6,2.3-3.85,5-3.85,2.88,0,4.89,1,5.16,3.78h-3.62a1.31,1.31,0,0,0-1.5-1.16c-.87,0-1.31.38-1.31.91s.53.78,2,1c3.24.41,4.8,1.25,4.8,3.76,0,2.77-2.05,4-5.29,4S113.84,235,113.75,232.45Z" fill="#fff"/><path d="M20.53,249.64h4.18l1.7,7,2-7h3.21l1.74,7,1.9-7H39l-3.71,11.69H31.5l-1.74-6.53L28,261.33H24.06Z" fill="#fff"/><path d="M40,246.47a2.21,2.21,0,1,1,2.19,2.05A2.07,2.07,0,0,1,40,246.47Zm.2,3.17h4v11.69h-4Z" fill="#fff"/><path d="M46.84,257.57v-5.2H45.43v-2.73h1.41v-2.43h4v2.43h2.3v2.73h-2.3v4.82c0,.85.42,1.23,1.18,1.23a3.09,3.09,0,0,0,1.14-.2v3a8.54,8.54,0,0,1-2.21.33C48.32,261.59,46.84,260.32,46.84,257.57Z" fill="#fff"/><path d="M54.66,244.5h4v7a4.11,4.11,0,0,1,3.84-2.19c2.25,0,3.82,1.41,3.82,4.4v7.6h-4v-6.8c0-1.31-.51-2-1.68-2s-2,.71-2,2.21v6.55h-4Z" fill="#fff"/><path d="M71.65,258.09c0-2.75,2.33-3.82,6.21-3.82H79V254c0-1.12-.27-1.86-1.54-1.86a1.44,1.44,0,0,0-1.59,1.39H72.1c.18-2.82,2.39-4.2,5.58-4.2S83,250.65,83,253.75v7.58H79.07V260a3.84,3.84,0,0,1-3.46,1.63C73.51,261.59,71.65,260.57,71.65,258.09Zm7.33-.85v-.72h-1c-1.61,0-2.32.31-2.32,1.28,0,.67.44,1.09,1.38,1.09A1.76,1.76,0,0,0,79,257.24Z" fill="#fff"/><path d="M89.5,257.57v-5.2H88.09v-2.73H89.5v-2.43h4v2.43h2.3v2.73h-2.3v4.82a1.07,1.07,0,0,0,1.19,1.23,3.13,3.13,0,0,0,1.14-.2v3a8.69,8.69,0,0,1-2.21.33C91,261.59,89.5,260.32,89.5,257.57Z" fill="#fff"/><path d="M96.69,258.09c0-2.75,2.32-3.82,6.21-3.82H104V254c0-1.12-.26-1.86-1.54-1.86a1.43,1.43,0,0,0-1.58,1.39H97.13c.18-2.82,2.39-4.2,5.59-4.2s5.27,1.32,5.27,4.42v7.58H104.1V260a3.83,3.83,0,0,1-3.46,1.63C98.54,261.59,96.69,260.57,96.69,258.09Zm7.32-.85v-.72H103c-1.61,0-2.32.31-2.32,1.28,0,.67.45,1.09,1.38,1.09A1.76,1.76,0,0,0,104,257.24Z" fill="#fff"/><path d="M112.88,255.38l-3.64-5.74h4.6l1.81,3.08,1.76-3.08h4.11l-3.68,5.43,4,6.26h-4.6l-2.08-3.49-2.12,3.49H109Z" fill="#fff"/><path d="M21.52,274.81h4v1.74a4.1,4.1,0,0,1,3.64-2.05c2.72,0,4.93,2.05,4.93,6.05v.18c0,4-2.21,6-5,6a3.85,3.85,0,0,1-3.61-2v5.63h-4ZM30,280.73v-.18c0-2.06-.9-3-2.3-3s-2.33,1.05-2.33,3v.18c0,2,.88,3,2.33,3S30,282.65,30,280.73Z" fill="#fff"/><path d="M35.54,274.81h4v2.32a3.7,3.7,0,0,1,3.78-2.48v3.73c-2.44-.06-3.78.69-3.78,2.57v5.54h-4Z" fill="#fff"/><path d="M44,280.79v-.17c0-3.76,2.79-6.12,6.41-6.12s6.37,2.3,6.37,6v.18c0,3.8-2.8,6.08-6.39,6.08S44,284.57,44,280.79Zm8.71-.06v-.18c0-2-.78-3.06-2.3-3.06s-2.32,1.05-2.32,3v.18c0,2,.78,3.11,2.32,3.11S52.74,282.67,52.74,280.73Z" fill="#fff"/><path d="M62.27,274.81h4v1.87a4.13,4.13,0,0,1,3.84-2.18c2.26,0,3.82,1.4,3.82,4.4v7.59h-4V279.7c0-1.32-.52-2-1.68-2s-2,.72-2,2.22v6.54h-4Z" fill="#fff"/><path d="M75.25,280.79v-.17c0-3.76,2.79-6.12,6.41-6.12s6.37,2.3,6.37,6v.18c0,3.8-2.8,6.08-6.39,6.08S75.25,284.57,75.25,280.79Zm8.71-.06v-.18c0-2-.78-3.06-2.3-3.06s-2.32,1.05-2.32,3v.18c0,2,.78,3.11,2.32,3.11S84,282.67,84,280.73Z" fill="#fff"/><path d="M88.07,274.81h4.17l1.7,7,2-7h3.21l1.75,7,1.9-7h3.79l-3.71,11.68H99L97.29,280l-1.81,6.52H91.6Z" fill="#fff"/><path d="M105.8,284.48a2.23,2.23,0,0,1,2.28-2.26,2.26,2.26,0,1,1,0,4.52A2.23,2.23,0,0,1,105.8,284.48Z" fill="#fff"/></g></g></svg>