<svg xmlns="http://www.w3.org/2000/svg" viewBox="0 0 160 600"><title>H42</title><g id="Layer_2" data-name="Layer 2"><g id="Rect"><rect width="160" height="600" fill="none"/></g><g id="H42"><g id="Tax_pros_standing_by_with_answers_advice_and_fast-typing_finge" data-name="Tax pros standing by with answers, advice and fast-typing finge"><path d="M24.69,130.45H20.48v-3.59h13.1v3.59H29.37v12.67H24.69Z" fill="#fff"/><path d="M32.76,139.82c0-2.79,2.37-3.89,6.33-3.89h1.14v-.27c0-1.14-.28-1.89-1.57-1.89A1.46,1.46,0,0,0,37,135.18H33.22c.18-2.86,2.43-4.27,5.69-4.27s5.36,1.34,5.36,4.5v7.71h-4v-1.39a3.91,3.91,0,0,1-3.53,1.67C34.65,143.4,32.76,142.35,32.76,139.82Zm7.47-.86v-.73H39.16c-1.64,0-2.37.32-2.37,1.3,0,.68.46,1.11,1.41,1.11C39.36,140.64,40.23,140,40.23,139Z" fill="#fff"/><path d="M49.26,137.07l-3.71-5.85h4.68l1.85,3.14,1.8-3.14h4.18l-3.75,5.53,4.12,6.37H53.74l-2.12-3.55-2.16,3.55H45.3Z" fill="#fff"/><path d="M63.7,131.22h4.07V133a4.21,4.21,0,0,1,3.71-2.09c2.78,0,5,2.09,5,6.16v.18c0,4.1-2.25,6.15-5.05,6.15a4,4,0,0,1-3.69-2v5.73H63.7Zm8.67,6v-.18c0-2.09-.91-3.09-2.34-3.09s-2.37,1.07-2.37,3.07v.18c0,2,.89,3.05,2.37,3.05S72.37,139.21,72.37,137.25Z" fill="#fff"/><path d="M78,131.22h4.07v2.37a3.76,3.76,0,0,1,3.85-2.53v3.8c-2.48-.06-3.85.71-3.85,2.62v5.64H78Z" fill="#fff"/><path d="M86.63,137.32v-.18c0-3.82,2.85-6.23,6.53-6.23s6.49,2.34,6.49,6.12v.18c0,3.87-2.85,6.19-6.51,6.19S86.63,141.17,86.63,137.32Zm8.88-.07v-.18c0-2-.8-3.12-2.35-3.12S90.8,135,90.8,137v.18c0,2,.79,3.16,2.36,3.16S95.51,139.23,95.51,137.25Z" fill="#fff"/><path d="M100.35,139.35h3.76c.13.86.52,1.34,1.68,1.34,1,0,1.46-.39,1.46-1s-.57-.84-2.21-1.07c-3.19-.41-4.53-1.34-4.53-3.82,0-2.64,2.34-3.91,5.1-3.91,2.93,0,5,1,5.25,3.84h-3.68a1.33,1.33,0,0,0-1.53-1.18c-.88,0-1.34.38-1.34.93s.55.8,2,1c3.3.41,4.89,1.27,4.89,3.82,0,2.82-2.09,4.1-5.39,4.1S100.44,142,100.35,139.35Z" fill="#fff"/><path d="M20.41,167.1h3.75c.14.86.53,1.34,1.69,1.34,1,0,1.45-.39,1.45-1s-.57-.84-2.2-1.07c-3.19-.41-4.53-1.34-4.53-3.82,0-2.64,2.34-3.91,5.1-3.91,2.93,0,5,1,5.25,3.84H27.23a1.32,1.32,0,0,0-1.52-1.18c-.89,0-1.34.38-1.34.93s.54.8,2,1c3.3.41,4.89,1.27,4.89,3.82,0,2.82-2.09,4.1-5.39,4.1S20.5,169.74,20.41,167.1Z" fill="#fff"/><path d="M33.13,167.05v-5.3H31.69V159h1.44v-2.48H37.2V159h2.34v2.78H37.2v4.91c0,.87.43,1.26,1.2,1.26a3.09,3.09,0,0,0,1.17-.21v3.09a8.43,8.43,0,0,1-2.26.35C34.63,171.15,33.13,169.85,33.13,167.05Z" fill="#fff"/><path d="M40.45,167.57c0-2.79,2.37-3.89,6.33-3.89h1.13v-.27c0-1.14-.27-1.89-1.57-1.89a1.46,1.46,0,0,0-1.61,1.41H40.91c.18-2.86,2.43-4.27,5.68-4.27S52,160,52,163.16v7.71H48v-1.39a3.91,3.91,0,0,1-3.53,1.67C42.34,171.15,40.45,170.1,40.45,167.57Zm7.46-.86V166H46.85c-1.64,0-2.37.32-2.37,1.3,0,.68.45,1.11,1.41,1.11A1.79,1.79,0,0,0,47.91,166.71Z" fill="#fff"/><path d="M53.94,159H58v1.92a4.18,4.18,0,0,1,3.91-2.23c2.3,0,3.89,1.43,3.89,4.48v7.73H61.75V164c0-1.35-.53-2-1.71-2s-2,.73-2,2.26v6.66H53.94Z" fill="#fff"/><path d="M67.21,165.05v-.18c0-4.05,2.23-6.21,5.05-6.21a3.85,3.85,0,0,1,3.66,2v-6.92H80v17.13H75.92v-1.93a4,4,0,0,1-3.71,2.21C69.46,171.15,67.21,169.17,67.21,165.05ZM76,165v-.18c0-2-.84-3.07-2.34-3.07s-2.34,1-2.34,3.09V165c0,2,.88,3,2.29,3S76,167,76,165Z" fill="#fff"/><path d="M82,155.74a2.24,2.24,0,1,1,2.23,2.1A2.13,2.13,0,0,1,82,155.74Zm.2,3.23h4.08v11.9H82.17Z" fill="#fff"/><path d="M88.43,159H92.5v1.92a4.21,4.21,0,0,1,3.92-2.23c2.29,0,3.89,1.43,3.89,4.48v7.73H96.23V164c0-1.35-.52-2-1.7-2s-2,.73-2,2.26v6.66H88.43Z" fill="#fff"/><path d="M101.63,170.87h4.05c.18.87.7,1.55,2.18,1.55a2.24,2.24,0,0,0,2.52-2.5V168.1a4.18,4.18,0,0,1-3.68,2.18c-2.78,0-5-2.05-5-5.71v-.18c0-3.5,2.25-5.73,5-5.73a3.85,3.85,0,0,1,3.68,2V159h4.08v10.9c0,3.55-2.35,5.42-6.6,5.42C103.81,175.29,101.94,173.58,101.63,170.87Zm8.87-6.32v-.16c0-1.64-.84-2.69-2.34-2.69s-2.35,1.07-2.35,2.71v.18c0,1.64.87,2.69,2.32,2.69S110.5,166.23,110.5,164.55Z" fill="#fff"/><path d="M25.28,196.78v1.84H21.21V181.49h4.07v7A4.19,4.19,0,0,1,29,186.41c2.77,0,5,2.09,5,6.16v.18c0,4.1-2.25,6.15-5,6.15A3.86,3.86,0,0,1,25.28,196.78Zm4.59-4v-.18c0-2.09-.91-3.09-2.34-3.09s-2.37,1.07-2.37,3.07v.18c0,2,.89,3.05,2.37,3.05S29.87,194.71,29.87,192.75Z" fill="#fff"/><path d="M38.77,197.42,34,186.72h4.42l2.45,6.35,2.28-6.35h3.89L40.68,202.6H36.79Z" fill="#fff"/><path d="M51.24,186.72h4.25l1.73,7.13,2-7.13H62.5l1.77,7.13,1.94-7.13h3.86l-3.77,11.9H62.41L60.63,192l-1.84,6.64h-4Z" fill="#fff"/><path d="M71,183.49a2.12,2.12,0,0,1,2.23-2.11,2.11,2.11,0,1,1,0,4.21A2.11,2.11,0,0,1,71,183.49Zm.2,3.23H75.3v11.9H71.23Z" fill="#fff"/><path d="M78,194.8v-5.3H76.6v-2.78H78v-2.48h4.08v2.48h2.34v2.78H82.11v4.91c0,.87.43,1.26,1.2,1.26a3,3,0,0,0,1.16-.21v3.09a8.28,8.28,0,0,1-2.25.35C79.54,198.9,78,197.6,78,194.8Z" fill="#fff"/><path d="M86,181.49h4.07v7.15A4.2,4.2,0,0,1,94,186.41c2.3,0,3.89,1.43,3.89,4.48v7.73H93.8v-6.91c0-1.35-.52-2-1.71-2s-2,.73-2,2.26v6.66H86Z" fill="#fff"/><path d="M20.52,223.07c0-2.79,2.37-3.89,6.33-3.89H28v-.27c0-1.14-.28-1.89-1.57-1.89a1.46,1.46,0,0,0-1.62,1.41H21c.18-2.86,2.43-4.27,5.69-4.27S32,215.5,32,218.66v7.71h-4V225a3.91,3.91,0,0,1-3.53,1.67C22.41,226.65,20.52,225.6,20.52,223.07Zm7.47-.86v-.73H26.92c-1.64,0-2.37.32-2.37,1.3,0,.68.46,1.11,1.41,1.11C27.12,223.89,28,223.23,28,222.21Z" fill="#fff"/><path d="M34,214.47h4.08v1.92A4.18,4.18,0,0,1,42,214.16c2.3,0,3.89,1.43,3.89,4.48v7.73H41.82v-6.91c0-1.35-.53-2-1.71-2s-2,.73-2,2.26v6.66H34Z" fill="#fff"/><path d="M47.07,222.6h3.76c.13.86.52,1.34,1.68,1.34,1,0,1.46-.39,1.46-1s-.57-.84-2.21-1.07c-3.19-.41-4.53-1.34-4.53-3.82,0-2.64,2.34-3.91,5.1-3.91,2.93,0,5,1,5.25,3.84H53.9a1.33,1.33,0,0,0-1.53-1.18c-.88,0-1.34.38-1.34.93s.55.8,2,1c3.3.41,4.89,1.27,4.89,3.82,0,2.82-2.09,4.1-5.39,4.1S47.16,225.24,47.07,222.6Z" fill="#fff"/><path d="M58,214.47h4.25L64,221.6l2-7.13h3.27L71,221.6l1.93-7.13h3.87L73,226.37H69.14l-1.77-6.64-1.85,6.64h-4Z" fill="#fff"/><path d="M76.69,220.57v-.18a6.09,6.09,0,0,1,6.44-6.23c3.25,0,6.05,1.86,6.05,6.14v1.07H80.81a2.37,2.37,0,0,0,2.48,2.48c1.34,0,1.91-.62,2.07-1.41h3.82c-.36,2.68-2.43,4.21-6,4.21S76.69,224.46,76.69,220.57Zm8.53-1.5c-.06-1.43-.77-2.23-2.09-2.23a2.26,2.26,0,0,0-2.27,2.23Z" fill="#fff"/><path d="M90.59,214.47h4.08v2.37a3.76,3.76,0,0,1,3.84-2.53v3.8c-2.48-.06-3.84.71-3.84,2.62v5.64H90.59Z" fill="#fff"/><path d="M99.24,222.6H103c.14.86.52,1.34,1.68,1.34s1.46-.39,1.46-1-.57-.84-2.21-1.07c-3.18-.41-4.52-1.34-4.52-3.82,0-2.64,2.34-3.91,5.09-3.91,2.94,0,5,1,5.26,3.84h-3.69a1.32,1.32,0,0,0-1.52-1.18c-.89,0-1.34.38-1.34.93s.54.8,2,1c3.3.41,4.89,1.27,4.89,3.82,0,2.82-2.09,4.1-5.39,4.1S99.33,225.24,99.24,222.6Z" fill="#fff"/><path d="M110.57,228.22l1.91-6,3.77,1.34L113,229.15Z" fill="#fff"/><path d="M20.52,250.82c0-2.79,2.37-3.89,6.33-3.89H28v-.27c0-1.14-.28-1.89-1.57-1.89a1.46,1.46,0,0,0-1.62,1.41H21c.18-2.86,2.43-4.27,5.69-4.27s5.37,1.34,5.37,4.5v7.71h-4v-1.39a3.91,3.91,0,0,1-3.53,1.67C22.41,254.4,20.52,253.35,20.52,250.82ZM28,250v-.73H26.92c-1.64,0-2.37.32-2.37,1.3,0,.68.46,1.11,1.41,1.11C27.12,251.64,28,251,28,250Z" fill="#fff"/><path d="M33.42,248.3v-.18c0-4.05,2.23-6.21,5-6.21a3.86,3.86,0,0,1,3.67,2V237h4.07v17.13H42.14v-1.93a4,4,0,0,1-3.71,2.21C35.67,254.4,33.42,252.42,33.42,248.3Zm8.83-.07v-.18c0-2-.84-3.07-2.34-3.07s-2.35,1-2.35,3.09v.18c0,2,.89,3,2.3,3S42.25,250.25,42.25,248.23Z" fill="#fff"/><path d="M47.25,242.22H51.6l2.48,7.67,2.43-7.67H60.4l-4.34,11.9H51.62Z" fill="#fff"/><path d="M61.34,239a2.12,2.12,0,0,1,2.23-2.11,2.11,2.11,0,1,1,0,4.21A2.11,2.11,0,0,1,61.34,239Zm.2,3.23h4.07v11.9H61.54Z" fill="#fff"/><path d="M67.16,248.32v-.18c0-4,2.84-6.23,6.35-6.23,2.91,0,5.59,1.27,5.82,4.89H75.51a1.76,1.76,0,0,0-1.91-1.73c-1.43,0-2.28,1-2.28,3v.19c0,2.07.8,3.14,2.35,3.14a2,2,0,0,0,2.07-2H79.4c-.11,3-2.14,5-6,5C69.87,254.4,67.16,252.33,67.16,248.32Z" fill="#fff"/><path d="M80.08,248.32v-.18a6.09,6.09,0,0,1,6.44-6.23c3.25,0,6,1.86,6,6.14v1.07H84.2a2.37,2.37,0,0,0,2.48,2.48c1.34,0,1.91-.62,2.07-1.41h3.82c-.36,2.68-2.43,4.21-6,4.21S80.08,252.21,80.08,248.32Zm8.53-1.5c-.07-1.43-.77-2.23-2.09-2.23a2.26,2.26,0,0,0-2.27,2.23Z" fill="#fff"/><path d="M97.44,250.82c0-2.79,2.37-3.89,6.32-3.89h1.14v-.27c0-1.14-.27-1.89-1.57-1.89a1.46,1.46,0,0,0-1.61,1.41H97.89c.19-2.86,2.44-4.27,5.69-4.27s5.37,1.34,5.37,4.5v7.71h-4v-1.39a3.89,3.89,0,0,1-3.52,1.67C99.33,254.4,97.44,253.35,97.44,250.82Zm7.46-.86v-.73h-1.07c-1.64,0-2.36.32-2.36,1.3,0,.68.45,1.11,1.41,1.11A1.79,1.79,0,0,0,104.9,250Z" fill="#fff"/><path d="M110.93,242.22H115v1.92a4.21,4.21,0,0,1,3.92-2.23c2.29,0,3.89,1.43,3.89,4.48v7.73h-4.08v-6.91c0-1.35-.52-2-1.7-2s-2,.73-2,2.26v6.66h-4.07Z" fill="#fff"/><path d="M124.19,248.3v-.18c0-4.05,2.23-6.21,5.05-6.21a3.86,3.86,0,0,1,3.67,2V237H137v17.13h-4.07v-1.93a4,4,0,0,1-3.71,2.21C126.45,254.4,124.19,252.42,124.19,248.3Zm8.83-.07v-.18c0-2-.84-3.07-2.34-3.07s-2.35,1-2.35,3.09v.18c0,2,.89,3,2.3,3S133,250.25,133,248.23Z" fill="#fff"/><path d="M21.82,272.75h-1.5V270h1.5v-1c0-3,1.84-4.37,4.66-4.37a7.17,7.17,0,0,1,1.87.25v3a3.8,3.8,0,0,0-1.12-.16,1.19,1.19,0,0,0-1.36,1.3v1h2.41v2.78H25.87v9.12H21.82Z" fill="#fff"/><path d="M28.74,278.57c0-2.79,2.36-3.89,6.32-3.89H36.2v-.27c0-1.14-.27-1.89-1.57-1.89A1.46,1.46,0,0,0,33,273.93H29.19c.18-2.86,2.43-4.27,5.69-4.27s5.37,1.34,5.37,4.5v7.71h-4v-1.39a3.91,3.91,0,0,1-3.53,1.67C30.62,282.15,28.74,281.1,28.74,278.57Zm7.46-.86V277H35.13c-1.64,0-2.37.32-2.37,1.3,0,.68.46,1.11,1.41,1.11C35.33,279.39,36.2,278.73,36.2,277.71Z" fill="#fff"/><path d="M41.43,278.1h3.75c.14.86.53,1.34,1.69,1.34,1,0,1.45-.39,1.45-1s-.57-.84-2.2-1.07c-3.19-.41-4.53-1.34-4.53-3.82,0-2.64,2.34-3.91,5.1-3.91,2.93,0,5,1,5.25,3.84H48.26a1.33,1.33,0,0,0-1.53-1.18c-.89,0-1.34.38-1.34.93s.54.8,2,1c3.3.41,4.89,1.27,4.89,3.82,0,2.82-2.09,4.1-5.39,4.1S41.52,280.74,41.43,278.1Z" fill="#fff"/><path d="M54.15,278.05v-5.3H52.71V270h1.44v-2.48h4.07V270h2.34v2.78H58.22v4.91c0,.87.43,1.26,1.21,1.26a3.07,3.07,0,0,0,1.16-.21v3.09a8.43,8.43,0,0,1-2.26.35C55.65,282.15,54.15,280.85,54.15,278.05Z" fill="#fff"/><path d="M62.06,273.84h6.37v3.07H62.06Z" fill="#fff"/><path d="M71,278.05v-5.3H69.57V270H71v-2.48h4.08V270h2.34v2.78H75.08v4.91c0,.87.43,1.26,1.2,1.26a3,3,0,0,0,1.16-.21v3.09a8.28,8.28,0,0,1-2.25.35C72.51,282.15,71,280.85,71,278.05Z" fill="#fff"/><path d="M82.7,280.67,77.94,270h4.42l2.45,6.35L87.09,270H91l-6.37,15.88H80.72Z" fill="#fff"/><path d="M92,270H96.1v1.78a4.19,4.19,0,0,1,3.71-2.09c2.77,0,5,2.09,5,6.16V276c0,4.1-2.25,6.15-5,6.15a3.93,3.93,0,0,1-3.68-2v5.73H92Zm8.66,6v-.18c0-2.09-.91-3.09-2.34-3.09S96,273.8,96,275.8V276c0,2,.89,3,2.37,3S100.69,278,100.69,276Z" fill="#fff"/><path d="M106.22,266.74a2.24,2.24,0,1,1,2.23,2.1A2.13,2.13,0,0,1,106.22,266.74Zm.21,3.23h4.07v11.9h-4.07Z" fill="#fff"/><path d="M112.68,270h4.07v1.92a4.21,4.21,0,0,1,3.92-2.23c2.29,0,3.89,1.43,3.89,4.48v7.73h-4.07V275c0-1.35-.53-2-1.71-2s-2,.73-2,2.26v6.66h-4.07Z" fill="#fff"/><path d="M125.88,281.87h4.05c.18.87.7,1.55,2.18,1.55a2.25,2.25,0,0,0,2.53-2.5V279.1a4.2,4.2,0,0,1-3.69,2.18c-2.78,0-5-2-5-5.71v-.18c0-3.5,2.25-5.73,5-5.73a3.87,3.87,0,0,1,3.69,2V270h4.07v10.9c0,3.55-2.34,5.42-6.6,5.42C128.06,286.29,126.2,284.58,125.88,281.87Zm8.87-6.32v-.16c0-1.64-.84-2.69-2.34-2.69s-2.35,1.07-2.35,2.71v.18c0,1.64.87,2.69,2.32,2.69S134.75,277.23,134.75,275.55Z" fill="#fff"/><path d="M21.82,300.5h-1.5v-2.78h1.5v-1c0-3,1.84-4.37,4.66-4.37a7.17,7.17,0,0,1,1.87.25v3a3.8,3.8,0,0,0-1.12-.16,1.19,1.19,0,0,0-1.36,1.3v1h2.41v2.78H25.87v9.12H21.82Z" fill="#fff"/><path d="M29.55,294.49a2.25,2.25,0,1,1,2.23,2.1A2.13,2.13,0,0,1,29.55,294.49Zm.21,3.23h4.07v11.9H29.76Z" fill="#fff"/><path d="M36,297.72h4.07v1.92A4.2,4.2,0,0,1,44,297.41c2.3,0,3.89,1.43,3.89,4.48v7.73H43.82v-6.91c0-1.35-.52-2-1.71-2s-2,.73-2,2.26v6.66H36Z" fill="#fff"/><path d="M49.21,309.62h4c.18.87.71,1.55,2.18,1.55a2.25,2.25,0,0,0,2.53-2.5v-1.82A4.18,4.18,0,0,1,54.28,309c-2.77,0-5.05-2-5.05-5.71v-.18c0-3.5,2.26-5.73,5.05-5.73a3.86,3.86,0,0,1,3.69,2v-1.69H62v10.9c0,3.55-2.34,5.42-6.6,5.42C51.39,314,49.53,312.33,49.21,309.62Zm8.87-6.32v-.16c0-1.64-.84-2.69-2.34-2.69s-2.34,1.07-2.34,2.71v.18c0,1.64.86,2.69,2.32,2.69S58.08,305,58.08,303.3Z" fill="#fff"/><path d="M63.47,303.82v-.18a6.09,6.09,0,0,1,6.44-6.23c3.26,0,6,1.86,6,6.14v1.07H67.59a2.38,2.38,0,0,0,2.48,2.48c1.34,0,1.91-.62,2.07-1.41H76c-.36,2.68-2.43,4.21-6,4.21S63.47,307.71,63.47,303.82Zm8.54-1.5c-.07-1.43-.78-2.23-2.1-2.23a2.26,2.26,0,0,0-2.27,2.23Z" fill="#fff"/><path d="M77.37,297.72h4.08v2.37a3.76,3.76,0,0,1,3.84-2.53v3.8c-2.48-.06-3.84.71-3.84,2.62v5.64H77.37Z" fill="#fff"/><path d="M86,305.85h3.75c.14.86.53,1.34,1.69,1.34,1,0,1.45-.39,1.45-1s-.57-.84-2.2-1.07c-3.19-.41-4.53-1.34-4.53-3.82,0-2.64,2.34-3.91,5.09-3.91,2.94,0,5,1,5.26,3.84H92.84a1.32,1.32,0,0,0-1.52-1.18c-.89,0-1.34.38-1.34.93s.54.8,2,1c3.3.41,4.89,1.27,4.89,3.82,0,2.82-2.09,4.1-5.39,4.1S86.11,308.49,86,305.85Z" fill="#fff"/><path d="M98,307.58a2.27,2.27,0,0,1,2.32-2.3,2.3,2.3,0,1,1,0,4.59A2.27,2.27,0,0,1,98,307.58Z" fill="#fff"/></g></g></g></svg>