<?xml version="1.0" encoding="utf-8"?>
<!-- Generator: Adobe Illustrator 23.1.0, SVG Export Plug-In . SVG Version: 6.00 Build 0)  -->
<svg version="1.1" id="Layer_1" xmlns="http://www.w3.org/2000/svg" xmlns:xlink="http://www.w3.org/1999/xlink" x="0px" y="0px"
	 viewBox="0 0 729 91" style="enable-background:new 0 0 729 91;" xml:space="preserve">
<style type="text/css">
	.st0{fill:none;}
	.st1{fill:#FFFFFF;}
</style>
<title>Asset 21</title>
<g>
	<g id="Layer_23">
		<rect class="st0" width="728" height="90"/>
	</g>
	<g id="No_surprises_no_matter_how_you_file.">
		<path class="st1" d="M122.3,34.2h6l5.9,10.4V34.2h4.6v18.5h-5.1L127,41v11.6h-4.7L122.3,34.2z"/>
		<path class="st1" d="M140.7,46.1v-0.2c0-4.3,3.2-7.1,7.4-7.1s7.4,2.7,7.4,7v0.2c0,4.4-3.2,7-7.4,7S140.7,50.4,140.7,46.1z
			 M150.7,46v-0.2c0-2.3-0.9-3.5-2.7-3.5s-2.7,1.2-2.7,3.5V46c0,2.3,0.9,3.6,2.7,3.6S150.7,48.2,150.7,46z"/>
		<path class="st1" d="M160.9,48.4h4.3c0.2,1,0.6,1.5,1.9,1.5c1.1,0,1.6-0.4,1.6-1.1s-0.6-1-2.5-1.2c-3.6-0.5-5.1-1.5-5.1-4.3
			c0-3,2.7-4.4,5.8-4.4c3.3,0,5.7,1.1,6,4.4h-4.2c-0.1-0.8-0.8-1.4-1.7-1.3c0,0-0.1,0-0.1,0c-1,0-1.5,0.4-1.5,1.1s0.6,0.9,2.3,1.1
			c3.8,0.5,5.6,1.5,5.6,4.3c0,3.2-2.4,4.7-6.1,4.7S161,51.4,160.9,48.4z"/>
		<path class="st1" d="M174.6,48v-8.9h4.6v8.1c0,1.5,0.6,2.3,1.9,2.3s2.3-0.8,2.3-2.6v-7.8h4.6v13.5h-4.6v-2.1
			c-0.8,1.6-2.5,2.6-4.3,2.4C176.5,53,174.6,51.4,174.6,48z"/>
		<path class="st1" d="M190.4,39.1h4.6v2.7c0.6-1.8,2.4-3,4.4-2.8v4.3c-2.8-0.1-4.4,0.8-4.4,3v6.4h-4.6V39.1z"/>
		<path class="st1" d="M201.1,39.1h4.6v2c0.9-1.5,2.5-2.4,4.2-2.4c3.1,0,5.7,2.4,5.7,7V46c0,4.7-2.6,7-5.7,7
			c-1.7,0.1-3.4-0.8-4.2-2.3v6.5h-4.6V39.1z M211,46v-0.2c0-2.4-1-3.5-2.7-3.5s-2.7,1.2-2.7,3.5V46c0,2.3,1,3.5,2.7,3.5
			S211,48.2,211,46z"/>
		<path class="st1" d="M217.3,39.1h4.7v2.7c0.6-1.8,2.4-3,4.3-2.8v4.3c-2.8-0.1-4.4,0.8-4.4,3v6.4h-4.6V39.1z"/>
		<path class="st1" d="M227.9,35.5c0-1.3,1.1-2.4,2.4-2.4c0,0,0.1,0,0.1,0c1.3-0.1,2.5,0.9,2.5,2.2c0.1,1.3-0.9,2.5-2.2,2.5
			c-0.1,0-0.2,0-0.3,0c-1.3,0.1-2.4-0.9-2.5-2.2C227.9,35.6,227.9,35.5,227.9,35.5z M228.1,39.1h4.6v13.5h-4.6V39.1z"/>
		<path class="st1" d="M234.3,48.4h4.3c0.1,1,0.6,1.5,1.9,1.5c1.1,0,1.6-0.4,1.6-1.1s-0.6-1-2.5-1.2c-3.6-0.5-5.1-1.5-5.1-4.3
			c0-3,2.7-4.4,5.8-4.4c3.3,0,5.7,1.1,6,4.4h-4.2c-0.1-0.8-0.8-1.4-1.7-1.3c0,0,0,0-0.1,0c-1,0-1.5,0.4-1.5,1.1s0.6,0.9,2.3,1.1
			c3.8,0.5,5.6,1.5,5.6,4.3c0,3.2-2.4,4.7-6.1,4.7S234.4,51.4,234.3,48.4z"/>
		<path class="st1" d="M247.5,46.1v-0.2c0-4.3,3.2-7.1,7.3-7.1c3.7,0,6.9,2.1,6.9,7V47h-9.5c0,1.5,1.1,2.7,2.6,2.8
			c0.1,0,0.1,0,0.2,0c1.5,0,2.2-0.7,2.4-1.6h4.4c-0.4,3-2.8,4.8-6.9,4.8C250.6,53,247.5,50.5,247.5,46.1z M257.2,44.4
			c-0.1-1.6-0.9-2.5-2.4-2.5c-1.4,0-2.6,1.1-2.6,2.5H257.2z"/>
		<path class="st1" d="M262.5,48.4h4.3c0.1,1,0.6,1.5,1.9,1.5c1.1,0,1.7-0.4,1.7-1.1s-0.6-1-2.5-1.2c-3.6-0.5-5.1-1.5-5.1-4.3
			c0-3,2.7-4.4,5.8-4.4c3.3,0,5.7,1.1,6,4.4h-4.2c-0.1-0.8-0.8-1.4-1.7-1.3c0,0-0.1,0-0.1,0c-1,0-1.5,0.4-1.5,1.1s0.6,0.9,2.3,1.1
			c3.7,0.5,5.5,1.5,5.5,4.3c0,3.2-2.4,4.7-6.1,4.7S262.6,51.4,262.5,48.4z"/>
		<path class="st1" d="M281.1,39.1h4.6v2.2c0.9-1.6,2.6-2.6,4.5-2.5c2.6,0,4.4,1.6,4.4,5.1v8.8h-4.6v-7.9c0-1.5-0.6-2.3-1.9-2.3
			s-2.3,0.8-2.3,2.6v7.6h-4.6L281.1,39.1z"/>
		<path class="st1" d="M296.1,46.1v-0.2c0-4.3,3.2-7.1,7.4-7.1s7.4,2.7,7.4,7v0.2c0,4.4-3.2,7-7.4,7S296.1,50.4,296.1,46.1z
			 M306.2,46v-0.2c0-2.3-0.9-3.5-2.7-3.5s-2.7,1.2-2.7,3.5V46c0,2.3,0.9,3.6,2.7,3.6S306.2,48.2,306.2,46z"/>
		<path class="st1" d="M317.2,39.1h4.6v2.1c0.9-1.5,2.5-2.5,4.2-2.4c1.6-0.1,3.1,0.8,3.7,2.2c1-1.4,2.7-2.3,4.5-2.2
			c2.6,0,4.4,1.7,4.4,5v8.8H334v-8c0-1.4-0.7-2-1.7-2c-1.1,0-2,0.8-2.1,1.9c0,0.1,0,0.2,0,0.4v7.8h-4.6v-8.1c0-1.4-0.7-2-1.7-2
			c-1.1,0-2,0.8-2.1,1.9c0,0.1,0,0.2,0,0.4v7.8h-4.6L317.2,39.1z"/>
		<path class="st1" d="M340.1,48.9c0-3.2,2.7-4.4,7.2-4.4h1.3v-0.3c0-1.3-0.3-2.2-1.8-2.2c-0.9-0.1-1.7,0.6-1.8,1.5c0,0,0,0.1,0,0.1
			h-4.3c0.2-3.3,2.8-4.9,6.5-4.9s6.1,1.5,6.1,5.1v8.8h-4.5v-1.6c-0.9,1.3-2.4,2-4,1.9C342.3,53,340.1,51.8,340.1,48.9z M348.6,47.9
			v-0.8h-1.2c-1.9,0-2.7,0.4-2.7,1.5c0,0.8,0.5,1.3,1.6,1.3c1.1,0.2,2.1-0.6,2.3-1.7C348.6,48.1,348.6,48,348.6,47.9L348.6,47.9z"/>
		<path class="st1" d="M356,48.3v-6h-1.6v-3.2h1.6v-2.8h4.6v2.8h2.7v3.2h-2.7v5.6c0,1,0.5,1.4,1.4,1.4c0.5,0,0.9-0.1,1.3-0.2v3.5
			c-0.8,0.2-1.7,0.4-2.6,0.4C357.7,53,356,51.5,356,48.3z"/>
		<path class="st1" d="M365.7,48.3v-6H364v-3.2h1.6v-2.8h4.6v2.8h2.7v3.2h-2.7v5.6c0,1,0.5,1.4,1.4,1.4c0.4,0,0.9-0.1,1.3-0.2v3.5
			c-0.8,0.2-1.7,0.4-2.6,0.4C367.4,53,365.7,51.5,365.7,48.3z"/>
		<path class="st1" d="M374,46.1v-0.2c0-4.3,3.2-7.1,7.3-7.1c3.7,0,6.9,2.1,6.9,7V47h-9.5c-0.1,1.5,1.1,2.8,2.6,2.8
			c0.1,0,0.2,0,0.2,0c1.5,0,2.2-0.7,2.4-1.6h4.3c-0.4,3-2.8,4.8-6.9,4.8S374,50.5,374,46.1z M383.7,44.4c-0.1-1.6-0.9-2.5-2.4-2.5
			c-1.4,0-2.6,1.1-2.6,2.5H383.7z"/>
		<path class="st1" d="M389.8,39.1h4.6v2.7c0.6-1.8,2.4-3,4.4-2.8v4.3c-2.8-0.1-4.4,0.8-4.4,3v6.4h-4.6V39.1z"/>
		<path class="st1" d="M405.2,33.2h4.6v8.1c0.9-1.6,2.6-2.6,4.5-2.5c2.6,0,4.4,1.6,4.4,5.1v8.8H414v-7.9c0-1.5-0.6-2.3-1.9-2.3
			s-2.3,0.8-2.3,2.6v7.6h-4.6L405.2,33.2z"/>
		<path class="st1" d="M420.2,46.1v-0.2c0-4.3,3.2-7.1,7.4-7.1s7.4,2.7,7.4,7v0.2c0,4.4-3.2,7-7.4,7S420.2,50.4,420.2,46.1z
			 M430.3,46v-0.2c0-2.3-0.9-3.5-2.7-3.5s-2.7,1.2-2.7,3.5V46c0,2.3,0.9,3.6,2.7,3.6S430.3,48.2,430.3,46z"/>
		<path class="st1" d="M435,39.1h4.8l2,8.1l2.3-8.1h3.7l2,8.1l2.2-8.1h4.4l-4.3,13.5h-4.4l-2-7.5l-2.1,7.5h-4.5L435,39.1z"/>
		<path class="st1" d="M466.5,51.3l-5.4-12.2h5l2.9,7.2l2.6-7.2h4.4l-7.2,18h-4.5L466.5,51.3z"/>
		<path class="st1" d="M475.7,46.1v-0.2c0-4.3,3.2-7.1,7.4-7.1s7.4,2.7,7.4,7v0.2c0,4.4-3.2,7-7.4,7S475.7,50.4,475.7,46.1z
			 M485.8,46v-0.2c0-2.3-0.9-3.5-2.7-3.5s-2.7,1.2-2.7,3.5V46c0,2.3,0.9,3.6,2.7,3.6S485.8,48.2,485.8,46z"/>
		<path class="st1" d="M492,48v-8.9h4.6v8.1c0,1.5,0.6,2.3,1.9,2.3s2.3-0.8,2.3-2.6v-7.8h4.6v13.5h-4.6v-2.1
			c-0.8,1.6-2.5,2.6-4.3,2.4C494,53,492,51.4,492,48z"/>
		<path class="st1" d="M513.2,42.3h-1.7v-3.2h1.7V38c0-3.4,2.1-5,5.3-5c0.7,0,1.4,0.1,2.1,0.3v3.4c-0.4-0.1-0.8-0.2-1.3-0.2
			c-0.7-0.1-1.4,0.4-1.5,1.1c0,0.1,0,0.2,0,0.4v1.2h2.7v3.2h-2.7v10.3h-4.6L513.2,42.3z"/>
		<path class="st1" d="M522,35.5c-0.1-1.4,1-2.6,2.4-2.7c1.4-0.1,2.6,1,2.7,2.4c0.1,1.4-1,2.6-2.4,2.7c-0.1,0-0.1,0-0.2,0
			C523.2,37.9,522.1,36.9,522,35.5C522,35.5,522,35.5,522,35.5z M522.2,39.1h4.6v13.5h-4.6V39.1z"/>
		<path class="st1" d="M529.5,33.2h4.6v19.5h-4.6V33.2z"/>
		<path class="st1" d="M535.8,46.1v-0.2c0-4.3,3.2-7.1,7.3-7.1c3.7,0,6.9,2.1,6.9,7V47h-9.5c-0.1,1.5,1.1,2.8,2.6,2.8
			c0.1,0,0.2,0,0.2,0c1.5,0,2.2-0.7,2.3-1.6h4.3c-0.4,3-2.8,4.8-6.8,4.8C539,53,535.8,50.5,535.8,46.1z M545.5,44.4
			c-0.1-1.6-0.9-2.5-2.4-2.5c-1.4,0-2.6,1.1-2.6,2.5H545.5z"/>
		<path class="st1" d="M551.3,50.3c0-1.4,1.1-2.6,2.5-2.6c0,0,0.1,0,0.1,0c1.4,0,2.6,1.2,2.6,2.6s-1.2,2.6-2.6,2.6
			c-1.4,0-2.6-1.1-2.7-2.5C551.3,50.4,551.3,50.4,551.3,50.3z"/>
	</g>
</g>
</svg>
