<svg xmlns="http://www.w3.org/2000/svg" viewBox="0 0 729 91"><title>Asset 21</title><g id="Layer_2" data-name="Layer 2"><g id="Layer_23" data-name="Layer 23"><rect x="0.5" y="0.5" width="728" height="90" fill="none" stroke="#000" stroke-miterlimit="10"/></g><g id="No_surprises_no_matter_how_you_file." data-name="No surprises no matter how you file."><path d="M122.28,34.17h6l5.92,10.42V34.17h4.63V52.66h-5.12l-6.74-11.61V52.66h-4.66Z" fill="#fff"/><path d="M140.66,46.06v-.2c0-4.34,3.23-7.08,7.42-7.08s7.37,2.66,7.37,6.95v.21c0,4.39-3.23,7-7.39,7S140.66,50.43,140.66,46.06ZM150.74,46v-.21c0-2.27-.9-3.54-2.66-3.54s-2.69,1.21-2.69,3.49v.21c0,2.32.91,3.59,2.69,3.59S150.74,48.24,150.74,46Z" fill="#fff"/><path d="M160.88,48.37h4.26c.16,1,.6,1.52,1.92,1.52,1.13,0,1.65-.44,1.65-1.11s-.65-1-2.51-1.22c-3.62-.46-5.14-1.52-5.14-4.34,0-3,2.66-4.44,5.79-4.44,3.33,0,5.66,1.13,6,4.36h-4.19a1.51,1.51,0,0,0-1.73-1.34c-1,0-1.52.44-1.52,1.06s.62.9,2.27,1.11c3.75.47,5.56,1.45,5.56,4.34,0,3.21-2.38,4.66-6.13,4.66S161,51.36,160.88,48.37Z" fill="#fff"/><path d="M174.6,48V39.14h4.63V47.2c0,1.53.6,2.28,1.91,2.28s2.3-.83,2.3-2.56V39.14h4.63V52.66h-4.63v-2.1A4.43,4.43,0,0,1,179.15,53C176.54,53,174.6,51.36,174.6,48Z" fill="#fff"/><path d="M190.42,39.14h4.63v2.69A4.25,4.25,0,0,1,199.42,39v4.31c-2.82-.07-4.37.8-4.37,3v6.41h-4.63Z" fill="#fff"/><path d="M201.1,39.14h4.63v2a4.76,4.76,0,0,1,4.21-2.37c3.15,0,5.71,2.37,5.71,7V46c0,4.65-2.56,7-5.74,7a4.45,4.45,0,0,1-4.18-2.3v6.51H201.1ZM211,46v-.21c0-2.38-1-3.51-2.66-3.51s-2.69,1.21-2.69,3.48V46c0,2.3,1,3.46,2.69,3.46S211,48.21,211,46Z" fill="#fff"/><path d="M217.33,39.14H222v2.69A4.25,4.25,0,0,1,226.33,39v4.31c-2.82-.07-4.37.8-4.37,3v6.41h-4.63Z" fill="#fff"/><path d="M227.91,35.47a2.42,2.42,0,0,1,2.53-2.41,2.4,2.4,0,1,1,0,4.79A2.39,2.39,0,0,1,227.91,35.47Zm.23,3.67h4.63V52.66h-4.63Z" fill="#fff"/><path d="M234.34,48.37h4.27c.15,1,.59,1.52,1.91,1.52,1.14,0,1.65-.44,1.65-1.11s-.64-1-2.5-1.22c-3.62-.46-5.15-1.52-5.15-4.34,0-3,2.67-4.44,5.79-4.44,3.34,0,5.66,1.13,6,4.36H242.1a1.52,1.52,0,0,0-1.74-1.34c-1,0-1.52.44-1.52,1.06s.62.9,2.27,1.11c3.75.47,5.56,1.45,5.56,4.34,0,3.21-2.38,4.66-6.12,4.66S234.45,51.36,234.34,48.37Z" fill="#fff"/><path d="M247.53,46.06v-.2c0-4.34,3.23-7.08,7.31-7.08,3.7,0,6.88,2.12,6.88,7V47H252.2A2.71,2.71,0,0,0,255,49.79c1.53,0,2.17-.7,2.35-1.61h4.35c-.42,3-2.77,4.79-6.85,4.79C250.63,53,247.53,50.49,247.53,46.06Zm9.69-1.7c-.08-1.63-.88-2.53-2.38-2.53a2.56,2.56,0,0,0-2.58,2.53Z" fill="#fff"/><path d="M262.54,48.37h4.27c.15,1,.59,1.52,1.91,1.52,1.14,0,1.66-.44,1.66-1.11s-.65-1-2.51-1.22c-3.62-.46-5.15-1.52-5.15-4.34,0-3,2.67-4.44,5.79-4.44,3.34,0,5.67,1.13,6,4.36H270.3a1.51,1.51,0,0,0-1.73-1.34c-1,0-1.53.44-1.53,1.06s.62.9,2.28,1.11c3.74.47,5.55,1.45,5.55,4.34,0,3.21-2.37,4.66-6.12,4.66S262.65,51.36,262.54,48.37Z" fill="#fff"/><path d="M281.08,39.14h4.62v2.17a4.77,4.77,0,0,1,4.45-2.53c2.61,0,4.42,1.62,4.42,5.09v8.79h-4.63V44.8c0-1.53-.59-2.28-1.94-2.28s-2.3.83-2.3,2.56v7.58h-4.62Z" fill="#fff"/><path d="M296.1,46.06v-.2c0-4.34,3.23-7.08,7.42-7.08s7.36,2.66,7.36,6.95v.21c0,4.39-3.23,7-7.39,7S296.1,50.43,296.1,46.06ZM306.18,46v-.21c0-2.27-.91-3.54-2.66-3.54s-2.69,1.21-2.69,3.49v.21c0,2.32.9,3.59,2.69,3.59S306.18,48.24,306.18,46Z" fill="#fff"/><path d="M317.22,39.14h4.62v2.07a4.73,4.73,0,0,1,4.24-2.43A3.67,3.67,0,0,1,329.75,41a5.38,5.38,0,0,1,4.47-2.24c2.56,0,4.42,1.65,4.42,5v8.84H334V44.59c0-1.37-.68-2-1.73-2a2,2,0,0,0-2.07,2.27v7.84h-4.58V44.59c0-1.37-.67-2-1.73-2a2,2,0,0,0-2.07,2.27v7.84h-4.62Z" fill="#fff"/><path d="M340.12,48.91c0-3.18,2.69-4.42,7.18-4.42h1.3v-.31c0-1.29-.31-2.15-1.79-2.15A1.66,1.66,0,0,0,345,43.64h-4.34c.2-3.26,2.76-4.86,6.46-4.86s6.1,1.52,6.1,5.11v8.77h-4.5V51.08a4.45,4.45,0,0,1-4,1.89C342.26,53,340.12,51.78,340.12,48.91Zm8.48-1V47.1h-1.22c-1.86,0-2.69.36-2.69,1.47,0,.78.52,1.27,1.61,1.27A2,2,0,0,0,348.6,47.93Z" fill="#fff"/><path d="M356,48.31v-6h-1.63V39.14H356V36.32h4.63v2.82h2.66v3.15h-2.66v5.58c0,1,.49,1.43,1.37,1.43a3.49,3.49,0,0,0,1.32-.24v3.52a10,10,0,0,1-2.56.39C357.7,53,356,51.49,356,48.31Z" fill="#fff"/><path d="M365.66,48.31v-6H364V39.14h1.63V36.32h4.63v2.82H373v3.15h-2.66v5.58c0,1,.49,1.43,1.37,1.43a3.4,3.4,0,0,0,1.31-.24v3.52a9.85,9.85,0,0,1-2.56.39C367.36,53,365.66,51.49,365.66,48.31Z" fill="#fff"/><path d="M374,46.06v-.2c0-4.34,3.23-7.08,7.32-7.08,3.69,0,6.87,2.12,6.87,7V47h-9.51a2.7,2.7,0,0,0,2.82,2.82c1.52,0,2.17-.7,2.35-1.61h4.34c-.41,3-2.76,4.79-6.85,4.79S374,50.49,374,46.06Zm9.69-1.7c-.07-1.63-.87-2.53-2.37-2.53a2.57,2.57,0,0,0-2.59,2.53Z" fill="#fff"/><path d="M389.78,39.14h4.62v2.69A4.26,4.26,0,0,1,398.77,39v4.31c-2.82-.07-4.37.8-4.37,3v6.41h-4.62Z" fill="#fff"/><path d="M405.16,33.19h4.62v8.12a4.77,4.77,0,0,1,4.45-2.53c2.61,0,4.42,1.62,4.42,5.09v8.79H414V44.8c0-1.53-.59-2.28-1.94-2.28s-2.3.83-2.3,2.56v7.58h-4.62Z" fill="#fff"/><path d="M420.17,46.06v-.2c0-4.34,3.24-7.08,7.42-7.08S435,41.44,435,45.73v.21c0,4.39-3.23,7-7.39,7S420.17,50.43,420.17,46.06ZM430.26,46v-.21c0-2.27-.91-3.54-2.67-3.54s-2.68,1.21-2.68,3.49v.21c0,2.32.9,3.59,2.68,3.59S430.26,48.24,430.26,46Z" fill="#fff"/><path d="M435,39.14h4.84l2,8.09,2.27-8.09h3.73l2,8.09,2.2-8.09h4.4l-4.3,13.52H447.7l-2-7.55-2.1,7.55H439.1Z" fill="#fff"/><path d="M466.55,51.29l-5.4-12.15h5L469,46.35l2.59-7.21H476l-7.24,18H464.3Z" fill="#fff"/><path d="M475.7,46.06v-.2c0-4.34,3.23-7.08,7.42-7.08s7.37,2.66,7.37,6.95v.21c0,4.39-3.24,7-7.4,7S475.7,50.43,475.7,46.06ZM485.78,46v-.21c0-2.27-.9-3.54-2.66-3.54s-2.69,1.21-2.69,3.49v.21c0,2.32.9,3.59,2.69,3.59S485.78,48.24,485.78,46Z" fill="#fff"/><path d="M492,48V39.14h4.63V47.2c0,1.53.59,2.28,1.91,2.28s2.3-.83,2.3-2.56V39.14h4.63V52.66h-4.63v-2.1A4.43,4.43,0,0,1,496.56,53C494,53,492,51.36,492,48Z" fill="#fff"/><path d="M513.23,42.29h-1.7V39.14h1.7V38c0-3.36,2.1-5,5.3-5a8.07,8.07,0,0,1,2.12.28v3.39a4,4,0,0,0-1.27-.18A1.36,1.36,0,0,0,517.83,38v1.19h2.74v3.15h-2.74V52.66h-4.6Z" fill="#fff"/><path d="M522,35.47a2.55,2.55,0,1,1,2.53,2.38A2.42,2.42,0,0,1,522,35.47Zm.23,3.67h4.63V52.66h-4.63Z" fill="#fff"/><path d="M529.49,33.19h4.6V52.66h-4.6Z" fill="#fff"/><path d="M535.85,46.06v-.2c0-4.34,3.23-7.08,7.32-7.08,3.69,0,6.87,2.12,6.87,7V47h-9.51a2.7,2.7,0,0,0,2.82,2.82c1.52,0,2.17-.7,2.35-1.61H550c-.41,3-2.76,4.79-6.85,4.79C539,53,535.85,50.49,535.85,46.06Zm9.69-1.7c-.07-1.63-.87-2.53-2.37-2.53a2.57,2.57,0,0,0-2.59,2.53Z" fill="#fff"/><path d="M551.33,50.33A2.58,2.58,0,0,1,554,47.72a2.61,2.61,0,1,1,0,5.22A2.58,2.58,0,0,1,551.33,50.33Z" fill="#fff"/></g></g></svg>