<svg xmlns="http://www.w3.org/2000/svg" viewBox="0 0 728 90"><title>H57</title><g id="Layer_2" data-name="Layer 2"><g id="Rect"><rect width="728" height="90" fill="none"/></g><g id="H57"><g id="Don_t_just_tax_prep._Tax_pro_prep." data-name="Don&apos;t just tax prep. Tax pro prep."><path d="M122,32.09h7.44c7.26,0,11,3.63,11,10v.23c0,6.37-3.78,10.24-11,10.24H122ZM129.21,48c3.49,0,5-1.83,5-5.64v-.22c0-3.89-1.54-5.55-5.09-5.55h-1.29V48Z" fill="#fff"/><path d="M141.54,45.24V45c0-4.8,3.57-7.83,8.2-7.83s8.15,3,8.15,7.69v.23c0,4.86-3.57,7.78-8.18,7.78S141.54,50.08,141.54,45.24Zm11.15-.08v-.23c0-2.52-1-3.92-2.95-3.92s-3,1.35-3,3.86v.23c0,2.57,1,4,3,4S152.69,47.65,152.69,45.16Z" fill="#fff"/><path d="M159.7,37.58h5.11V40a5.31,5.31,0,0,1,4.92-2.8c2.89,0,4.89,1.8,4.89,5.63v9.73H169.5v-8.7c0-1.68-.65-2.51-2.14-2.51s-2.55.91-2.55,2.83v8.38H159.7Z" fill="#fff"/><path d="M176.11,32.09h5l-.6,7.86h-3.84Z" fill="#fff"/><path d="M184.32,47.73V41.07h-1.8V37.58h1.8V34.46h5.12v3.12h2.94v3.49h-2.94v6.18A1.36,1.36,0,0,0,191,48.82a3.88,3.88,0,0,0,1.46-.26v3.89a10.81,10.81,0,0,1-2.83.43C186.21,52.88,184.32,51.25,184.32,47.73Z" fill="#fff"/><path d="M197.85,54.08c1.26-.09,1.83-.6,1.83-1.77V37.58h5.09V52.42c0,3.23-1.52,5.38-6.92,5.38Zm1.57-20.56a2.82,2.82,0,1,1,2.8,2.63A2.67,2.67,0,0,1,199.42,33.52Z" fill="#fff"/><path d="M207.43,47.33V37.58h5.12V46.5c0,1.69.66,2.52,2.11,2.52s2.55-.92,2.55-2.83V37.58h5.12v15h-5.12V50.22a4.92,4.92,0,0,1-4.75,2.66C209.57,52.88,207.43,51.11,207.43,47.33Z" fill="#fff"/><path d="M223.93,47.79h4.72c.17,1.09.66,1.69,2.12,1.69,1.25,0,1.83-.49,1.83-1.23s-.72-1.06-2.78-1.35c-4-.51-5.69-1.69-5.69-4.8,0-3.32,3-4.92,6.41-4.92,3.69,0,6.26,1.26,6.6,4.83h-4.63a1.67,1.67,0,0,0-1.92-1.48c-1.11,0-1.68.48-1.68,1.17s.68,1,2.51,1.23c4.15.51,6.15,1.6,6.15,4.8,0,3.55-2.63,5.15-6.78,5.15S224,51.11,223.93,47.79Z" fill="#fff"/><path d="M239.92,47.73V41.07h-1.8V37.58h1.8V34.46H245v3.12H248v3.49H245v6.18a1.36,1.36,0,0,0,1.51,1.57,4,4,0,0,0,1.46-.26v3.89a10.81,10.81,0,0,1-2.83.43C241.81,52.88,239.92,51.25,239.92,47.73Z" fill="#fff"/><path d="M255.82,47.73V41.07H254V37.58h1.8V34.46h5.12v3.12h2.94v3.49h-2.94v6.18a1.36,1.36,0,0,0,1.51,1.57,4,4,0,0,0,1.46-.26v3.89a10.81,10.81,0,0,1-2.83.43C257.71,52.88,255.82,51.25,255.82,47.73Z" fill="#fff"/><path d="M265,48.39c0-3.52,3-4.89,8-4.89h1.43v-.34c0-1.43-.35-2.38-2-2.38a1.84,1.84,0,0,0-2,1.78h-4.8c.23-3.61,3.06-5.38,7.15-5.38s6.75,1.69,6.75,5.66v9.7h-5V50.79a4.9,4.9,0,0,1-4.43,2.09C267.4,52.88,265,51.56,265,48.39Zm9.38-1.09v-.91h-1.35c-2.06,0-3,.4-3,1.63,0,.86.57,1.4,1.77,1.4C273.32,49.42,274.41,48.59,274.41,47.3Z" fill="#fff"/><path d="M285.76,44.93l-4.66-7.35H287l2.32,4,2.26-4h5.26l-4.72,7,5.18,8H291.4l-2.66-4.46L286,52.54h-5.23Z" fill="#fff"/><path d="M303.92,37.58H309v2.23a5.28,5.28,0,0,1,4.66-2.63c3.49,0,6.32,2.63,6.32,7.75v.23c0,5.14-2.83,7.72-6.35,7.72A4.94,4.94,0,0,1,309,50.33v7.21h-5.12Zm10.9,7.58v-.23c0-2.63-1.15-3.89-2.95-3.89s-3,1.34-3,3.86v.23c0,2.54,1.11,3.83,3,3.83S314.82,47.62,314.82,45.16Z" fill="#fff"/><path d="M321.88,37.58H327v3a4.71,4.71,0,0,1,4.83-3.17v4.78c-3.11-.09-4.83.88-4.83,3.28v7.1h-5.12Z" fill="#fff"/><path d="M332.75,45.24V45c0-4.8,3.58-7.83,8.09-7.83,4.09,0,7.61,2.34,7.61,7.72v1.35H337.93A3,3,0,0,0,341,49.36c1.69,0,2.41-.77,2.61-1.77h4.8c-.46,3.37-3.06,5.29-7.58,5.29C336.18,52.88,332.75,50.13,332.75,45.24Zm10.73-1.88c-.09-1.8-1-2.81-2.64-2.81s-2.6,1-2.86,2.81Z" fill="#fff"/><path d="M350.23,37.58h5.11v2.23A5.29,5.29,0,0,1,360,37.18c3.48,0,6.32,2.63,6.32,7.75v.23c0,5.14-2.84,7.72-6.35,7.72a5,5,0,0,1-4.64-2.55v7.21h-5.11Zm10.89,7.58v-.23c0-2.63-1.14-3.89-2.94-3.89s-3,1.34-3,3.86v.23c0,2.54,1.12,3.83,3,3.83S361.12,47.62,361.12,45.16Z" fill="#fff"/><path d="M367.62,50a2.85,2.85,0,0,1,2.91-2.89,2.89,2.89,0,1,1,0,5.78A2.85,2.85,0,0,1,367.62,50Z" fill="#fff"/><path d="M385.52,36.61h-5.29V32.09H396.7v4.52h-5.29V52.54h-5.89Z" fill="#fff"/><path d="M395.67,48.39c0-3.52,3-4.89,7.95-4.89h1.43v-.34c0-1.43-.34-2.38-2-2.38a1.84,1.84,0,0,0-2,1.78h-4.81c.23-3.61,3.06-5.38,7.15-5.38s6.75,1.69,6.75,5.66v9.7h-5V50.79a4.93,4.93,0,0,1-4.44,2.09C398,52.88,395.67,51.56,395.67,48.39Zm9.38-1.09v-.91h-1.34c-2.06,0-3,.4-3,1.63,0,.86.57,1.4,1.78,1.4A2.26,2.26,0,0,0,405.05,47.3Z" fill="#fff"/><path d="M416.41,44.93l-4.67-7.35h5.89l2.32,4,2.26-4h5.26l-4.72,7,5.18,8H422l-2.66-4.46-2.72,4.46h-5.23Z" fill="#fff"/><path d="M434.57,37.58h5.12v2.23a5.26,5.26,0,0,1,4.66-2.63c3.48,0,6.32,2.63,6.32,7.75v.23c0,5.14-2.84,7.72-6.35,7.72a4.92,4.92,0,0,1-4.63-2.55v7.21h-5.12Zm10.89,7.58v-.23c0-2.63-1.14-3.89-2.94-3.89s-3,1.34-3,3.86v.23c0,2.54,1.12,3.83,3,3.83S445.46,47.62,445.46,45.16Z" fill="#fff"/><path d="M452.53,37.58h5.12v3a4.7,4.7,0,0,1,4.83-3.17v4.78c-3.12-.09-4.83.88-4.83,3.28v7.1h-5.12Z" fill="#fff"/><path d="M463.4,45.24V45c0-4.8,3.57-7.83,8.2-7.83s8.15,3,8.15,7.69v.23c0,4.86-3.57,7.78-8.18,7.78S463.4,50.08,463.4,45.24Zm11.15-.08v-.23c0-2.52-1-3.92-2.95-3.92s-3,1.35-3,3.86v.23c0,2.57,1,4,3,4S474.55,47.65,474.55,45.16Z" fill="#fff"/><path d="M486.76,37.58h5.12v2.23a5.28,5.28,0,0,1,4.66-2.63c3.49,0,6.32,2.63,6.32,7.75v.23c0,5.14-2.83,7.72-6.35,7.72a4.92,4.92,0,0,1-4.63-2.55v7.21h-5.12Zm10.9,7.58v-.23c0-2.63-1.15-3.89-3-3.89s-3,1.34-3,3.86v.23c0,2.54,1.11,3.83,3,3.83S497.66,47.62,497.66,45.16Z" fill="#fff"/><path d="M504.72,37.58h5.12v3a4.71,4.71,0,0,1,4.83-3.17v4.78c-3.11-.09-4.83.88-4.83,3.28v7.1h-5.12Z" fill="#fff"/><path d="M515.59,45.24V45c0-4.8,3.57-7.83,8.09-7.83,4.09,0,7.61,2.34,7.61,7.72v1.35H520.77a3,3,0,0,0,3.11,3.11c1.69,0,2.4-.77,2.6-1.77h4.81c-.46,3.37-3.06,5.29-7.58,5.29C519,52.88,515.59,50.13,515.59,45.24Zm10.72-1.88c-.08-1.8-1-2.81-2.63-2.81s-2.6,1-2.86,2.81Z" fill="#fff"/><path d="M533.06,37.58h5.12v2.23a5.28,5.28,0,0,1,4.66-2.63c3.49,0,6.32,2.63,6.32,7.75v.23c0,5.14-2.83,7.72-6.35,7.72a4.94,4.94,0,0,1-4.63-2.55v7.21h-5.12ZM544,45.16v-.23c0-2.63-1.15-3.89-3-3.89s-3,1.34-3,3.86v.23c0,2.54,1.11,3.83,3,3.83S544,47.62,544,45.16Z" fill="#fff"/><path d="M550.45,50a2.85,2.85,0,0,1,2.92-2.89,2.89,2.89,0,1,1,0,5.78A2.85,2.85,0,0,1,550.45,50Z" fill="#fff"/></g></g></g></svg>