<svg xmlns="http://www.w3.org/2000/svg" viewBox="0 0 300 600"><title>Asset 1</title><g id="Layer_2" data-name="Layer 2"><g id="Rect"><rect width="300" height="600" fill="none"/></g><g id="Drop_off_work_with_a_pro_remotely_or_file_online._We_re_open" data-name="Drop off, work with a pro  remotely, or file online. We’re open"><path d="M27.57,111.22l9.82,0c9.59,0,14.44,4.86,14.39,13.25v.3c0,8.42-5.05,13.49-14.57,13.45l-9.78-.05ZM37,132.3c4.61,0,6.66-2.38,6.68-7.41v-.3c0-5.14-2-7.34-6.68-7.36h-1.7l-.08,15.07Z" fill="#fff"/><path d="M54.42,118.6l6.76,0,0,3.93a6.23,6.23,0,0,1,6.4-4.16l0,6.31c-4.11-.14-6.38,1.14-6.4,4.31l-.05,9.37-6.76,0Z" fill="#fff"/><path d="M68.72,128.79v-.3c0-6.34,4.78-10.32,10.89-10.29s10.75,3.94,10.72,10.21v.3c0,6.42-4.78,10.25-10.86,10.22S68.69,135.18,68.72,128.79Zm14.73,0v-.3c0-3.32-1.29-5.18-3.86-5.19s-3.94,1.75-4,5.08v.3c0,3.4,1.3,5.25,3.91,5.27S83.44,132,83.45,128.75Z" fill="#fff"/><path d="M92.75,118.79l6.76,0v2.94a7,7,0,0,1,6.17-3.44c4.61,0,8.33,3.51,8.3,10.27v.3c0,6.8-3.79,10.18-8.44,10.16a6.52,6.52,0,0,1-6.1-3.39l-.05,9.52-6.76,0Zm14.34,10.08v-.3c0-3.48-1.48-5.15-3.86-5.16s-3.94,1.76-4,5.08v.3c0,3.37,1.45,5.07,3.91,5.08S107.08,132.12,107.09,128.87Z" fill="#fff"/><path d="M122.24,129.06v-.3c0-6.35,4.77-10.33,10.89-10.3s10.74,4,10.71,10.22v.3c0,6.42-4.77,10.25-10.85,10.22S122.2,135.44,122.24,129.06ZM137,129v-.3c0-3.33-1.3-5.18-3.87-5.2s-3.93,1.76-3.95,5.08v.3c0,3.4,1.29,5.26,3.9,5.27S137,132.3,137,129Z" fill="#fff"/><path d="M147.26,123.67h-2.49l0-4.61h2.5v-1.51c0-4.91,3.06-7.2,7.74-7.17a11.08,11.08,0,0,1,3,.39l0,5a5.93,5.93,0,0,0-1.81-.28,2,2,0,0,0-2.2,2.15v1.51l5.74,0v-1.73c0-4.91,3.13-7.24,7.78-7.22a12.27,12.27,0,0,1,3.09.44l0,4.94a6.24,6.24,0,0,0-1.85-.27,2,2,0,0,0-2.24,2.14v1.74l4,0,0,4.61-4,0-.08,15.14-6.76,0,.08-15.15-5.74,0-.08,15.15-6.72,0Z" fill="#fff"/><path d="M169,142l3.23-9.92,6.25,2.26L173,143.55Z" fill="#fff"/><path d="M186.68,119.26l7.06,0,2.81,11.84,3.38-11.81,5.44,0,2.89,11.84,3.26-11.81,6.42,0-6.36,19.72-6.46,0-2.89-11-3.11,11-6.58,0Z" fill="#fff"/><path d="M217.71,129.53v-.3c0-6.34,4.77-10.32,10.89-10.29s10.74,3.94,10.71,10.21v.3c0,6.42-4.77,10.25-10.85,10.22S217.67,135.92,217.71,129.53Zm14.72,0v-.3c0-3.32-1.3-5.18-3.87-5.19s-3.93,1.75-3.95,5.08v.3c0,3.4,1.29,5.26,3.9,5.27S232.42,132.78,232.43,129.49Z" fill="#fff"/><path d="M241.74,119.53l6.76,0,0,3.92a6.22,6.22,0,0,1,6.4-4.16l0,6.31c-4.12-.13-6.39,1.14-6.4,4.31l0,9.37-6.76,0Z" fill="#fff"/><path d="M257.38,110.92l6.76,0-.08,16.5,5.36-7.79,7,0-6.5,8.84,6.93,10.91-7.55,0L264,130.75l0,8.64-6.76,0Z" fill="#fff"/><path d="M25,163.74l7.06,0,2.81,11.84,3.39-11.8,5.43,0,2.89,11.84,3.27-11.81,6.42,0-6.37,19.72-6.45,0-2.9-11-3.11,11-6.57,0Z" fill="#fff"/><path d="M57.92,158.54A3.73,3.73,0,1,1,61.61,162,3.53,3.53,0,0,1,57.92,158.54Zm.32,5.36,6.76,0-.1,19.75-6.76,0Z" fill="#fff"/><path d="M69.46,177.37l.05-8.8H67.13l0-4.61h2.38l0-4.12,6.76,0,0,4.11,3.89,0,0,4.61-3.89,0,0,8.16a1.8,1.8,0,0,0,2,2.09,5.26,5.26,0,0,0,1.92-.33l0,5.13a14.21,14.21,0,0,1-3.74.55C71.92,184.18,69.44,182,69.46,177.37Z" fill="#fff"/><path d="M82.79,155.34l6.76,0-.06,11.86A7,7,0,0,1,96,163.56c3.82,0,6.45,2.41,6.42,7.48l-.06,12.84-6.76,0,.06-11.48c0-2.23-.85-3.33-2.82-3.34s-3.36,1.2-3.38,3.73l0,11.06-6.76,0Z" fill="#fff"/><path d="M111.41,178.44c0-4.64,4-6.43,10.54-6.4h1.88v-.46c0-1.88-.44-3.13-2.59-3.14a2.43,2.43,0,0,0-2.7,2.33l-6.34,0c.32-4.75,4.07-7.08,9.48-7.05s8.9,2.27,8.87,7.52L130.5,184l-6.57,0v-2.3c-1,1.43-2.7,2.74-5.87,2.73C114.52,184.39,111.39,182.64,111.41,178.44Zm12.4-1.37v-1.21H122c-2.72,0-3.93.51-3.94,2.14,0,1.13.75,1.85,2.33,1.86C122.36,179.86,123.8,178.77,123.81,177.07Z" fill="#fff"/><path d="M140.75,164.31l6.76,0v2.94a7,7,0,0,1,6.17-3.44c4.61,0,8.33,3.52,8.3,10.28v.3c0,6.8-3.79,10.18-8.44,10.15a6.5,6.5,0,0,1-6.1-3.39l-.05,9.52-6.76,0Zm14.34,10.08v-.3c0-3.47-1.48-5.14-3.86-5.15s-3.94,1.75-3.95,5.08v.3c0,3.36,1.44,5.07,3.9,5.08S155.08,177.64,155.09,174.39Z" fill="#fff"/><path d="M164.47,164.43l6.76,0,0,3.92a6.22,6.22,0,0,1,6.4-4.16l0,6.31c-4.11-.13-6.39,1.14-6.4,4.31l-.05,9.37-6.76,0Z" fill="#fff"/><path d="M178.77,174.63v-.31c0-6.34,4.78-10.32,10.89-10.29s10.75,3.94,10.72,10.21v.3c0,6.42-4.77,10.25-10.85,10.22S178.74,181,178.77,174.63Zm14.73,0v-.3c0-3.32-1.29-5.18-3.86-5.19s-3.94,1.76-3.95,5.08v.3c0,3.4,1.3,5.26,3.9,5.27S193.48,177.87,193.5,174.58Z" fill="#fff"/><path d="M26.48,209l6.76,0,0,3.93a6.22,6.22,0,0,1,6.4-4.16l0,6.31c-4.12-.14-6.39,1.14-6.4,4.31l0,9.37-6.76,0Z" fill="#fff"/><path d="M40.78,219.22v-.3c0-6.34,4.77-10.32,10.74-10.29,5.4,0,10,3.14,10,10.24v1.78l-13.89-.07c.17,2.61,1.68,4.12,4.09,4.14,2.23,0,3.18-1,3.45-2.33l6.35,0c-.63,4.46-4.08,7-10,6.94C45.26,229.33,40.75,225.68,40.78,219.22ZM55,216.8c-.1-2.38-1.26-3.71-3.45-3.72s-3.45,1.31-3.8,3.69Z" fill="#fff"/><path d="M63.9,209.22l6.76,0v3a6.91,6.91,0,0,1,6.21-3.52,5.4,5.4,0,0,1,5.35,3.31,7.84,7.84,0,0,1,6.55-3.25c3.73,0,6.44,2.45,6.42,7.4l-.07,12.91-6.76,0,.06-11.78c0-2-1-3-2.51-3-1.82,0-3,1.16-3,3.31l-.06,11.44-6.68,0,.06-11.78c0-2-1-3-2.52-3-1.81,0-3,1.16-3,3.31L70.57,229l-6.76,0Z" fill="#fff"/><path d="M97.39,219.5v-.3c0-6.34,4.77-10.32,10.89-10.29S119,212.85,119,219.12v.3c0,6.42-4.77,10.25-10.85,10.22S97.36,225.89,97.39,219.5Zm14.73,0v-.3c0-3.32-1.3-5.18-3.86-5.19s-3.94,1.76-4,5.08v.3c0,3.4,1.3,5.26,3.9,5.27S112.1,222.75,112.12,219.46Z" fill="#fff"/><path d="M122.26,222.91l0-8.8h-2.38l0-4.6h2.38l0-4.12,6.76,0,0,4.12,3.89,0,0,4.61-3.89,0,0,8.16c0,1.43.71,2.08,2,2.08a4.87,4.87,0,0,0,1.92-.33l0,5.14a14.64,14.64,0,0,1-3.74.55C124.72,229.72,122.24,227.56,122.26,222.91Z" fill="#fff"/><path d="M134.44,219.69v-.3c0-6.35,4.77-10.33,10.74-10.3,5.4,0,10,3.15,10,10.25v1.77l-13.9-.07c.17,2.61,1.68,4.13,4.09,4.14,2.23,0,3.18-1,3.45-2.32l6.35,0c-.63,4.45-4.08,7-10,6.94C138.92,229.79,134.41,226.15,134.44,219.69Zm14.17-2.42c-.1-2.38-1.26-3.71-3.45-3.72-2,0-3.45,1.3-3.8,3.68Z" fill="#fff"/><path d="M157.79,201l6.73,0-.14,28.44-6.73,0Z" fill="#fff"/><path d="M174.21,227.52l-7.81-17.79,7.33,0,4,10.56,3.83-10.52,6.46,0-10.71,26.31-6.45,0Z" fill="#fff"/><path d="M185.36,232.63l3.22-9.92,6.26,2.26-5.49,9.23Z" fill="#fff"/><path d="M203.62,220v-.3c0-6.34,4.77-10.32,10.89-10.29s10.74,3.94,10.71,10.21v.3c0,6.42-4.77,10.25-10.85,10.22S203.59,226.42,203.62,220Zm14.73,0v-.3c0-3.32-1.29-5.18-3.86-5.19s-3.94,1.75-4,5.08v.3c0,3.4,1.29,5.25,3.9,5.27S218.34,223.28,218.35,220Z" fill="#fff"/><path d="M227.66,210l6.76,0,0,3.93a6.22,6.22,0,0,1,6.4-4.16l0,6.31c-4.12-.14-6.39,1.14-6.41,4.31l0,9.37-6.76,0Z" fill="#fff"/><path d="M27.25,258.93l-2.49,0,0-4.6h2.49v-1.74c0-4.91,3.1-7.23,7.78-7.21a12.24,12.24,0,0,1,3.09.43l0,4.95a6.21,6.21,0,0,0-1.85-.28A2,2,0,0,0,34,252.62v1.73l4,0L38,259l-4,0L33.9,274.1l-6.73,0Z" fill="#fff"/><path d="M40.14,249a3.53,3.53,0,0,1,3.72-3.49,3.5,3.5,0,1,1,0,7A3.5,3.5,0,0,1,40.14,249Zm.31,5.37,6.76,0-.1,19.75-6.76,0Z" fill="#fff"/><path d="M51.07,245.75l6.72,0-.14,28.43-6.72,0Z" fill="#fff"/><path d="M60.27,264.6v-.3C60.3,258,65,254,71,254c5.4,0,10,3.15,10,10.24V266L67.09,266c.18,2.61,1.68,4.13,4.1,4.14,2.23,0,3.18-1,3.45-2.33l6.34,0c-.62,4.45-4.07,7-10,6.93C64.75,274.71,60.23,271.06,60.27,264.6Zm14.17-2.42c-.1-2.38-1.27-3.7-3.46-3.72s-3.44,1.31-3.79,3.69Z" fill="#fff"/><path d="M89.16,264.75v-.3c0-6.35,4.77-10.33,10.89-10.3s10.74,4,10.71,10.22v.3c0,6.42-4.77,10.25-10.85,10.22S89.13,271.13,89.16,264.75Zm14.73,0v-.3c0-3.33-1.3-5.18-3.87-5.2s-3.93,1.76-4,5.08v.3c0,3.4,1.29,5.26,3.9,5.27S103.87,268,103.89,264.71Z" fill="#fff"/><path d="M113.19,254.75l6.76,0,0,3.17a7,7,0,0,1,6.51-3.67c3.82,0,6.45,2.42,6.43,7.48l-.07,12.84-6.76,0,.06-11.48c0-2.23-.85-3.33-2.82-3.34s-3.36,1.2-3.38,3.73l-.05,11.06-6.76,0Z" fill="#fff"/><path d="M136.42,246.18l6.72,0L143,274.65l-6.72,0Z" fill="#fff"/><path d="M146.6,249.55a3.53,3.53,0,0,1,3.72-3.49,3.5,3.5,0,1,1,0,7A3.5,3.5,0,0,1,146.6,249.55Zm.31,5.36,6.76,0-.1,19.75-6.76,0Z" fill="#fff"/><path d="M157.3,255l6.76,0,0,3.17a7,7,0,0,1,6.52-3.67c3.81,0,6.44,2.41,6.42,7.48l-.07,12.84-6.76,0,.06-11.48c0-2.23-.85-3.33-2.81-3.34s-3.37,1.2-3.38,3.73L164,274.75l-6.76,0Z" fill="#fff"/><path d="M179.19,265.2v-.31c0-6.34,4.77-10.32,10.74-10.29,5.4,0,10,3.15,10,10.25v1.77l-13.9-.07c.18,2.61,1.68,4.13,4.1,4.14,2.22,0,3.17-1,3.44-2.33l6.35,0c-.63,4.45-4.08,7-10,6.93C183.67,275.3,179.16,271.65,179.19,265.2Zm14.17-2.43c-.1-2.38-1.26-3.7-3.45-3.71-2,0-3.44,1.3-3.8,3.68Z" fill="#fff"/><path d="M201.78,271.54a3.77,3.77,0,0,1,3.87-3.8,3.82,3.82,0,1,1,0,7.63A3.77,3.77,0,0,1,201.78,271.54Z" fill="#fff"/><path d="M24.59,292.34l7.82,0,3.39,16.86,3.71-16.83,6.87,0,3.84,17,3.75-17,7.18,0-6.44,27-8.09,0-4.06-17.16-4.28,17.12-7.55,0Z" fill="#fff"/><path d="M60.19,309.89v-.3c0-6.35,4.78-10.33,10.74-10.3,5.4,0,10,3.15,10,10.25v1.77L67,311.25c.18,2.6,1.68,4.12,4.1,4.13,2.23,0,3.17-1,3.45-2.32l6.34,0c-.63,4.45-4.08,7-10,6.94C64.67,320,60.16,316.35,60.19,309.89Zm14.18-2.42c-.1-2.38-1.27-3.71-3.46-3.72-2,0-3.44,1.3-3.79,3.68Z" fill="#fff"/><path d="M81.65,302l3.07-9.84,6,2-5.22,9.3Z" fill="#fff"/><path d="M90.87,299.92l6.76,0,0,3.93a6.23,6.23,0,0,1,6.4-4.16l0,6.31c-4.11-.14-6.39,1.14-6.4,4.31l0,9.37-6.76,0Z" fill="#fff"/><path d="M105.17,310.11v-.3c0-6.34,4.77-10.32,10.74-10.29,5.4,0,10,3.14,10,10.24v1.78l-13.9-.07c.18,2.61,1.68,4.12,4.1,4.14,2.22,0,3.17-1,3.44-2.33l6.35,0c-.63,4.46-4.08,7-10,6.94C109.65,320.22,105.14,316.57,105.17,310.11Zm14.18-2.42c-.11-2.38-1.27-3.71-3.46-3.72s-3.44,1.31-3.8,3.69Z" fill="#fff"/><path d="M134.06,310.26V310c0-6.35,4.77-10.33,10.89-10.3s10.75,3.94,10.72,10.21v.31c0,6.42-4.77,10.24-10.85,10.21S134,316.64,134.06,310.26Zm14.73,0v-.3c0-3.33-1.29-5.19-3.86-5.2s-3.94,1.76-4,5.08v.3c0,3.4,1.3,5.26,3.91,5.27S148.77,313.5,148.79,310.22Z" fill="#fff"/><path d="M158.09,300.25l6.76,0v2.94a7,7,0,0,1,6.17-3.44c4.61,0,8.33,3.52,8.3,10.28v.3c0,6.8-3.79,10.18-8.43,10.15a6.5,6.5,0,0,1-6.1-3.39l-.05,9.52-6.76,0Zm14.34,10.08V310c0-3.47-1.48-5.14-3.86-5.15s-3.94,1.75-3.95,5.08v.3c0,3.36,1.44,5.07,3.9,5.08S172.42,313.58,172.43,310.33Z" fill="#fff"/><path d="M180.7,310.49v-.3c0-6.35,4.78-10.33,10.74-10.3,5.4,0,10,3.15,10,10.25v1.77l-13.9-.07c.18,2.61,1.68,4.13,4.1,4.14,2.22,0,3.17-1,3.44-2.32l6.35,0c-.63,4.45-4.08,7-10,6.94C185.18,320.59,180.67,317,180.7,310.49Zm14.18-2.42c-.11-2.38-1.27-3.71-3.46-3.72-2,0-3.44,1.3-3.79,3.68Z" fill="#fff"/><path d="M203.83,300.48l6.76,0,0,3.17a7,7,0,0,1,6.51-3.67c3.82,0,6.45,2.41,6.42,7.47l-.06,12.84-6.76,0,.06-11.48c0-2.23-.85-3.33-2.82-3.34s-3.36,1.19-3.38,3.72l0,11.07-6.76,0Z" fill="#fff"/><path d="M24.6,359.15c0-4.64,4-6.44,10.53-6.4H37v-.45c0-1.89-.44-3.13-2.59-3.15a2.43,2.43,0,0,0-2.69,2.33l-6.35,0c.33-4.76,4.08-7.08,9.48-7.05s8.9,2.27,8.87,7.52l-.06,12.8-6.57,0v-2.3c-.95,1.43-2.69,2.74-5.87,2.72C27.7,365.1,24.58,363.34,24.6,359.15ZM37,357.78v-1.21H35.22c-2.72,0-3.93.51-3.94,2.13,0,1.14.75,1.86,2.34,1.87C35.54,360.57,37,359.48,37,357.78Z" fill="#fff"/><path d="M47.06,345l6.76,0v3.17a7,7,0,0,1,6.51-3.67c3.82,0,6.45,2.42,6.42,7.48l-.06,12.84-6.76,0L60,353.32c0-2.23-.86-3.32-2.82-3.33s-3.37,1.19-3.38,3.72l-.05,11.06-6.76,0Z" fill="#fff"/><path d="M69,355.18v-.3c0-6.72,3.75-10.29,8.44-10.27A6.42,6.42,0,0,1,83.53,348l.06-11.48,6.76,0L90.21,365l-6.76,0v-3.21a6.65,6.65,0,0,1-6.17,3.63C72.72,365.32,69,362,69,355.18Zm14.65,0v-.3c0-3.33-1.38-5.11-3.87-5.12s-3.9,1.68-3.91,5.12v.3c0,3.32,1.45,5,3.79,5S83.67,358.5,83.68,355.14Z" fill="#fff"/><path d="M99.41,359.52c0-4.64,4-6.44,10.53-6.4h1.89v-.46c0-1.88-.44-3.13-2.59-3.14a2.42,2.42,0,0,0-2.69,2.32l-6.35,0c.33-4.75,4.08-7.08,9.48-7.05s8.9,2.27,8.88,7.52l-.07,12.8-6.57,0v-2.3c-1,1.43-2.69,2.74-5.86,2.73C102.52,365.47,99.39,363.71,99.41,359.52Zm12.39-1.37v-1.21H110c-2.72,0-3.93.51-3.94,2.14,0,1.13.74,1.85,2.33,1.86C110.36,360.94,111.8,359.85,111.8,358.15Z" fill="#fff"/><path d="M119.61,345.35l7.22,0,4,12.75,4.1-12.71,6.46,0-7.31,19.71-7.37,0Z" fill="#fff"/><path d="M141.1,359.73c0-4.65,4-6.44,10.54-6.4h1.88v-.45c0-1.89-.44-3.14-2.59-3.15a2.44,2.44,0,0,0-2.7,2.33l-6.34,0c.32-4.76,4.08-7.08,9.48-7s8.9,2.27,8.87,7.52l-.06,12.8-6.57,0V363c-.95,1.44-2.7,2.75-5.87,2.73C144.21,365.67,141.08,363.92,141.1,359.73Zm12.4-1.37v-1.21h-1.78c-2.72,0-3.93.51-3.94,2.13,0,1.14.75,1.86,2.33,1.86C152.05,361.14,153.49,360.06,153.5,358.36Z" fill="#fff"/><path d="M163.45,340.2a3.53,3.53,0,0,1,3.72-3.49,3.5,3.5,0,1,1,0,7A3.5,3.5,0,0,1,163.45,340.2Zm.31,5.37,6.76,0-.1,19.75-6.76,0Z" fill="#fff"/><path d="M174.38,336.93l6.72,0L181,365.4l-6.72,0Z" fill="#fff"/><path d="M183.48,359.94c0-4.64,4-6.44,10.53-6.4h1.89v-.45c0-1.89-.44-3.13-2.59-3.15a2.42,2.42,0,0,0-2.69,2.33l-6.35,0c.33-4.76,4.08-7.08,9.48-7.05s8.9,2.27,8.87,7.52l-.06,12.8-6.57,0v-2.3c-.95,1.43-2.69,2.74-5.87,2.72C186.58,365.89,183.46,364.13,183.48,359.94Zm12.39-1.37v-1.21H194.1c-2.72,0-3.93.51-3.93,2.13,0,1.14.74,1.86,2.33,1.87C194.42,361.36,195.86,360.27,195.87,358.57Z" fill="#fff"/><path d="M212.62,362.5v3.06l-6.76,0,.14-28.44,6.76,0-.06,11.63a7,7,0,0,1,6.17-3.45c4.61,0,8.33,3.52,8.3,10.28v.3c0,6.8-3.79,10.18-8.44,10.16A6.42,6.42,0,0,1,212.62,362.5Zm7.66-6.64v-.31c0-3.47-1.49-5.14-3.87-5.15s-3.93,1.75-3.95,5.08v.3c0,3.36,1.44,5.07,3.9,5.08S220.27,359.1,220.28,355.86Z" fill="#fff"/><path d="M229.89,337.21l6.73,0-.15,28.44-6.72,0Z" fill="#fff"/><path d="M239.09,356.06v-.3c0-6.34,4.78-10.32,10.74-10.29,5.4,0,10,3.14,10,10.24v1.78l-13.9-.07c.18,2.61,1.68,4.12,4.1,4.14,2.22,0,3.17-1,3.44-2.33l6.35,0c-.63,4.46-4.08,7-10,6.94C243.57,366.17,239.06,362.52,239.09,356.06Zm14.18-2.42c-.11-2.38-1.27-3.71-3.46-3.72-2,0-3.44,1.31-3.8,3.68Z" fill="#fff"/><path d="M261.68,362.41a3.77,3.77,0,0,1,3.87-3.8,3.82,3.82,0,1,1,0,7.63A3.77,3.77,0,0,1,261.68,362.41Z" fill="#fff"/></g></g></svg>