<svg xmlns="http://www.w3.org/2000/svg" viewBox="0 0 970 250"><title>H05</title><g id="Layer_2" data-name="Layer 2"><g id="Rect"><rect width="970" height="250" fill="none"/></g><g id="Easy_peasy_taxes_made_breezy." data-name="Easy, peasy, taxes made breezy."><path d="M281.87,53.3h29.55v9.45H294.07V70.1h13.82v8.73H294.07V86.6h18.3v9.45h-30.5Z" fill="#fff"/><path d="M314.83,87.38c0-7.35,6.22-10.22,16.63-10.22h3v-.72c0-3-.72-5-4.13-5a3.84,3.84,0,0,0-4.25,3.7H316c.48-7.53,6.4-11.24,15-11.24s14.11,3.53,14.11,11.84V96.05H334.68V92.41c-1.49,2.27-4.24,4.36-9.27,4.36C319.79,96.77,314.83,94,314.83,87.38Zm19.62-2.27V83.2h-2.82c-4.3,0-6.22.83-6.22,3.4,0,1.8,1.2,2.94,3.71,2.94C332.17,89.54,334.45,87.8,334.45,85.11Z" fill="#fff"/><path d="M348.2,86.13h9.87c.36,2.27,1.38,3.52,4.43,3.52,2.63,0,3.83-1,3.83-2.57s-1.5-2.21-5.8-2.81c-8.38-1.07-11.91-3.53-11.91-10,0-6.94,6.16-10.29,13.4-10.29,7.72,0,13.1,2.63,13.82,10.11h-9.69c-.42-2.1-1.56-3.11-4-3.11s-3.53,1-3.53,2.45,1.44,2.09,5.27,2.57C372.55,77,376.74,79.31,376.74,86c0,7.41-5.51,10.76-14.18,10.76C353.65,96.77,348.44,93.06,348.2,86.13Z" fill="#fff"/><path d="M389,92.88l-12.5-28.1h11.6l6.46,16.68,6-16.68h10.23L394,106.52H383.79Z" fill="#fff"/><path d="M406.7,100.9l5-15.73,9.93,3.53L413,103.35Z" fill="#fff"/><path d="M437.21,64.78h10.71v4.66a11,11,0,0,1,9.75-5.5c7.29,0,13.22,5.5,13.22,16.21v.48c0,10.76-5.93,16.14-13.28,16.14-4.73,0-8.14-2.21-9.69-5.32v15.07H437.21ZM460,80.63v-.48c0-5.5-2.39-8.14-6.16-8.14s-6.22,2.81-6.22,8.08v.48c0,5.32,2.33,8,6.22,8S460,85.77,460,80.63Z" fill="#fff"/><path d="M473.1,80.8v-.47c0-10,7.48-16.39,16.93-16.39,8.55,0,15.91,4.9,15.91,16.15V82.9h-22c.29,4.12,2.69,6.52,6.52,6.52,3.52,0,5-1.62,5.44-3.71h10.05c-1,7.05-6.4,11.06-15.85,11.06C480.28,96.77,473.1,91,473.1,80.8Zm22.43-3.94c-.18-3.77-2-5.86-5.5-5.86-3.23,0-5.45,2.09-6,5.86Z" fill="#fff"/><path d="M508.15,87.38c0-7.35,6.22-10.22,16.63-10.22h3v-.72c0-3-.72-5-4.13-5-2.93,0-4,1.73-4.24,3.7h-10c.48-7.53,6.4-11.24,14.95-11.24s14.12,3.53,14.12,11.84V96.05H528V92.41c-1.5,2.27-4.25,4.36-9.27,4.36C513.12,96.77,508.15,94,508.15,87.38Zm19.62-2.27V83.2H525c-4.31,0-6.22.83-6.22,3.4,0,1.8,1.19,2.94,3.71,2.94C525.5,89.54,527.77,87.8,527.77,85.11Z" fill="#fff"/><path d="M541.53,86.13h9.87c.35,2.27,1.37,3.52,4.42,3.52,2.63,0,3.83-1,3.83-2.57s-1.49-2.21-5.8-2.81c-8.38-1.07-11.9-3.53-11.9-10,0-6.94,6.16-10.29,13.39-10.29,7.72,0,13.1,2.63,13.82,10.11h-9.69c-.42-2.1-1.55-3.11-4-3.11s-3.53,1-3.53,2.45,1.44,2.09,5.27,2.57C565.87,77,570.06,79.31,570.06,86c0,7.41-5.5,10.76-14.18,10.76C547,96.77,541.77,93.06,541.53,86.13Z" fill="#fff"/><path d="M582.32,92.88l-12.5-28.1h11.6l6.46,16.68,6-16.68h10.22l-16.74,41.74H577.12Z" fill="#fff"/><path d="M600,100.9l5-15.73L615,88.7l-8.61,14.65Z" fill="#fff"/><path d="M632,86V72.07H628.2V64.78H632V58.26h10.71v6.52h6.16v7.29h-6.16V85c0,2.27,1.13,3.29,3.17,3.29a8.17,8.17,0,0,0,3-.54v8.13a22.45,22.45,0,0,1-5.93.9C635.92,96.77,632,93.36,632,86Z" fill="#fff"/><path d="M651.23,87.38c0-7.35,6.22-10.22,16.63-10.22h3v-.72c0-3-.72-5-4.13-5a3.84,3.84,0,0,0-4.25,3.7h-10c.47-7.53,6.4-11.24,15-11.24s14.12,3.53,14.12,11.84V96.05H671.09V92.41c-1.5,2.27-4.25,4.36-9.27,4.36C656.19,96.77,651.23,94,651.23,87.38Zm19.62-2.27V83.2H668c-4.31,0-6.22.83-6.22,3.4,0,1.8,1.19,2.94,3.71,2.94C668.58,89.54,670.85,87.8,670.85,85.11Z" fill="#fff"/><path d="M694.59,80.15l-9.74-15.37h12.32L702,73l4.73-8.25h11l-9.87,14.53L718.7,96.05H706.38l-5.56-9.33-5.69,9.33H684.19Z" fill="#fff"/><path d="M717.33,80.8v-.47c0-10,7.47-16.39,16.92-16.39,8.56,0,15.91,4.9,15.91,16.15V82.9h-22c.3,4.12,2.69,6.52,6.52,6.52,3.53,0,5-1.62,5.45-3.71h10c-.95,7.05-6.4,11.06-15.85,11.06C724.5,96.77,717.33,91,717.33,80.8Zm22.43-3.94c-.18-3.77-2-5.86-5.51-5.86-3.23,0-5.44,2.09-6,5.86Z" fill="#fff"/><path d="M752.08,86.13H762c.36,2.27,1.37,3.52,4.42,3.52,2.64,0,3.83-1,3.83-2.57s-1.49-2.21-5.8-2.81c-8.37-1.07-11.9-3.53-11.9-10,0-6.94,6.16-10.29,13.4-10.29,7.71,0,13.1,2.63,13.81,10.11H770c-.42-2.1-1.55-3.11-4-3.11s-3.53,1-3.53,2.45,1.43,2.09,5.26,2.57C776.42,77,780.61,79.31,780.61,86c0,7.41-5.5,10.76-14.18,10.76C757.52,96.77,752.32,93.06,752.08,86.13Z" fill="#fff"/><path d="M280.91,126.84h10.71v4.78a10.93,10.93,0,0,1,9.81-5.62c4.12,0,7,1.79,8.49,5.2a12.39,12.39,0,0,1,10.35-5.2c5.92,0,10.23,3.83,10.23,11.66v20.45H319.79V139.46c0-3.17-1.55-4.73-4-4.73-2.87,0-4.78,1.85-4.78,5.26v18.12H300.41V139.46c0-3.17-1.55-4.73-4-4.73-2.87,0-4.78,1.85-4.78,5.26v18.12H280.91Z" fill="#fff"/><path d="M333.91,149.44c0-7.35,6.22-10.22,16.63-10.22h3v-.72c0-3-.72-5-4.13-5a3.84,3.84,0,0,0-4.25,3.7h-10c.48-7.53,6.4-11.24,15-11.24s14.11,3.53,14.11,11.84v20.27h-10.4v-3.65c-1.5,2.28-4.25,4.37-9.27,4.37C338.87,158.83,333.91,156.08,333.91,149.44Zm19.62-2.27v-1.91h-2.81c-4.31,0-6.22.83-6.22,3.4,0,1.8,1.19,2.93,3.7,2.93C351.25,151.59,353.53,149.86,353.53,147.17Z" fill="#fff"/><path d="M367.82,142.8v-.47c0-10.65,5.87-16.33,13.28-16.33,4.91,0,7.84,2.09,9.63,5.26V113.08h10.71v45H390.73V153a10.53,10.53,0,0,1-9.75,5.8C373.75,158.83,367.82,153.63,367.82,142.8Zm23.21-.18v-.47c0-5.27-2.21-8.08-6.16-8.08s-6.16,2.69-6.16,8.14v.47c0,5.27,2.33,8,6,8C388.64,150.64,391,148,391,142.62Z" fill="#fff"/><path d="M405.21,142.86v-.48c0-10,7.48-16.38,16.93-16.38,8.55,0,15.91,4.9,15.91,16.15V145H416c.3,4.12,2.7,6.51,6.52,6.51,3.53,0,5-1.61,5.45-3.7h10.05c-1,7-6.4,11.06-15.85,11.06C412.39,158.83,405.21,153.09,405.21,142.86Zm22.43-3.94c-.18-3.77-2-5.86-5.5-5.86-3.23,0-5.45,2.09-6,5.86Z" fill="#fff"/><path d="M463.35,153.27v4.84H452.64v-45h10.71V131.5a11,11,0,0,1,9.75-5.5c7.3,0,13.22,5.5,13.22,16.21v.47c0,10.77-5.92,16.15-13.28,16.15C468.37,158.83,464.9,156.62,463.35,153.27Zm12.08-10.59v-.47c0-5.51-2.39-8.14-6.16-8.14s-6.22,2.81-6.22,8.08v.47c0,5.33,2.33,8,6.22,8S475.43,147.83,475.43,142.68Z" fill="#fff"/><path d="M490.21,126.84h10.7v6.22c2-4.67,5.27-6.7,10.11-6.64v10c-6.52-.18-10.11,1.85-10.11,6.87v14.83h-10.7Z" fill="#fff"/><path d="M512.94,142.86v-.48c0-10,7.47-16.38,16.92-16.38,8.56,0,15.91,4.9,15.91,16.15V145h-22c.3,4.12,2.69,6.51,6.52,6.51,3.53,0,5-1.61,5.44-3.7h10c-.95,7-6.4,11.06-15.85,11.06C520.11,158.83,512.94,153.09,512.94,142.86Zm22.43-3.94c-.18-3.77-2-5.86-5.51-5.86-3.23,0-5.44,2.09-6,5.86Z" fill="#fff"/><path d="M547.81,142.86v-.48c0-10,7.48-16.38,16.93-16.38,8.55,0,15.91,4.9,15.91,16.15V145h-22c.3,4.12,2.7,6.51,6.52,6.51,3.53,0,5-1.61,5.45-3.7h10c-1,7-6.4,11.06-15.86,11.06C555,158.83,547.81,153.09,547.81,142.86Zm22.43-3.94c-.18-3.77-2-5.86-5.5-5.86-3.23,0-5.45,2.09-6,5.86Z" fill="#fff"/><path d="M581.48,157l13.7-22.13H582.92v-8.07H610.5V128L596.44,150h13.34v8.07h-28.3Z" fill="#fff"/><path d="M623.65,154.94l-12.5-28.1h11.61l6.46,16.68,6-16.68h10.23l-16.75,41.74H618.45Z" fill="#fff"/><path d="M643.15,152.73a6,6,0,0,1,6.1-6,6,6,0,1,1,0,12.08A6,6,0,0,1,643.15,152.73Z" fill="#fff"/></g></g></svg>