<svg xmlns="http://www.w3.org/2000/svg" viewBox="0 0 121 32"><title>file_online_now</title><g id="Layer_2" data-name="Layer 2"><g id="Rect"><rect width="121" height="32" fill="none"/></g><g id="File_online_now" data-name="File online now"><path d="M12.05,9.81h6.43v1.78H14.32v2.65h3.29V16H14.32v3.88H12.05Z" fill="#262626"/><path d="M19.36,10.4a1.16,1.16,0,1,1,1.15,1.1A1.11,1.11,0,0,1,19.36,10.4Zm.15,2.1h2v7.33h-2Z" fill="#262626"/><path d="M23.24,9.18h2V19.83h-2Z" fill="#262626"/><path d="M26.44,16.25v-.11a3.64,3.64,0,0,1,3.77-3.81,3.38,3.38,0,0,1,3.57,3.73v.56H28.5a1.76,1.76,0,0,0,1.82,1.92c.94,0,1.4-.41,1.53-1h1.92c-.24,1.59-1.5,2.47-3.5,2.47A3.56,3.56,0,0,1,26.44,16.25Zm5.37-.88c-.07-1.11-.63-1.64-1.6-1.64a1.68,1.68,0,0,0-1.68,1.64Z" fill="#262626"/><path d="M37.35,16.24v-.11a3.86,3.86,0,0,1,7.72-.05v.12A3.66,3.66,0,0,1,41.2,20,3.64,3.64,0,0,1,37.35,16.24Zm5.66,0v-.1c0-1.4-.66-2.24-1.8-2.24s-1.79.81-1.79,2.21v.12c0,1.4.65,2.24,1.79,2.24S43,17.6,43,16.21Z" fill="#262626"/><path d="M46.21,12.5h2v1.16a2.53,2.53,0,0,1,2.38-1.33c1.45,0,2.47.87,2.47,2.83v4.67h-2V15.46c0-1-.39-1.48-1.29-1.48a1.46,1.46,0,0,0-1.53,1.61v4.24h-2Z" fill="#262626"/><path d="M54.67,9.18h2V19.83h-2Z" fill="#262626"/><path d="M58.22,10.4a1.16,1.16,0,0,1,2.31,0,1.16,1.16,0,0,1-2.31,0Zm.16,2.1h2v7.33h-2Z" fill="#262626"/><path d="M62,12.5h2v1.16a2.52,2.52,0,0,1,2.38-1.33c1.44,0,2.46.87,2.46,2.83v4.67h-2V15.46c0-1-.39-1.48-1.29-1.48a1.45,1.45,0,0,0-1.52,1.61v4.24H62Z" fill="#262626"/><path d="M70,16.25v-.11a3.63,3.63,0,0,1,3.76-3.81,3.38,3.38,0,0,1,3.58,3.73v.56H72.06a1.75,1.75,0,0,0,1.82,1.92c.93,0,1.4-.41,1.52-1h1.92c-.24,1.59-1.5,2.47-3.5,2.47A3.56,3.56,0,0,1,70,16.25Zm5.36-.88c-.07-1.11-.63-1.64-1.6-1.64a1.68,1.68,0,0,0-1.68,1.64Z" fill="#262626"/><path d="M81.35,12.5h2v1.16a2.53,2.53,0,0,1,2.38-1.33c1.45,0,2.47.87,2.47,2.83v4.67h-2V15.46c0-1-.4-1.48-1.29-1.48a1.46,1.46,0,0,0-1.53,1.61v4.24h-2Z" fill="#262626"/><path d="M89.3,16.24v-.11a3.68,3.68,0,0,1,3.87-3.8A3.63,3.63,0,0,1,97,16.08v.12a3.86,3.86,0,0,1-7.72,0Zm5.66,0v-.1c0-1.4-.66-2.24-1.79-2.24s-1.79.81-1.79,2.21v.12c0,1.4.64,2.24,1.79,2.24S95,17.6,95,16.21Z" fill="#262626"/><path d="M97.29,12.5h2.13l1.31,4.93,1.41-4.93h1.67l1.29,4.93,1.38-4.93h2l-2.31,7.33h-2l-1.25-4.6-1.34,4.6h-2Z" fill="#262626"/></g></g></svg>