<svg xmlns="http://www.w3.org/2000/svg" viewBox="0 0 160 600"><title>H155</title><g id="Layer_2" data-name="Layer 2"><g id="Rect"><rect width="160" height="600" fill="none"/></g><g id="Block_costs_less_on_average_than_other_area_tax_preparers." data-name="Block costs less on  average than other area tax preparers."><path d="M21.51,35.83h7c3.69,0,5.26,1.66,5.26,4.09V40a3.22,3.22,0,0,1-2.64,3.37A3.39,3.39,0,0,1,34.22,47v.08c0,2.8-1.81,4.35-5.68,4.35h-7ZM27.58,42c1.4,0,1.92-.49,1.92-1.6v-.09c0-1.07-.56-1.55-1.92-1.55h-1.7V42Zm.16,6.42c1.42,0,2.07-.66,2.07-1.81v-.09c0-1.18-.63-1.79-2.21-1.79H25.88v3.69Z" fill="#14aa40"/><path d="M35.78,35h3.89V51.45H35.78Z" fill="#14aa40"/><path d="M41.15,45.88v-.17c0-3.67,2.73-6,6.27-6S53.65,42,53.65,45.6v.17c0,3.72-2.73,5.94-6.25,5.94S41.15,49.57,41.15,45.88Zm8.52-.06v-.18c0-1.92-.76-3-2.25-3s-2.27,1-2.27,3v.17c0,2,.76,3,2.27,3S49.67,47.72,49.67,45.82Z" fill="#14aa40"/><path d="M54.41,45.88v-.17a5.75,5.75,0,0,1,6.1-6c2.8,0,5.37,1.22,5.59,4.7H62.43a1.69,1.69,0,0,0-1.83-1.66c-1.38,0-2.19,1-2.19,2.9v.18c0,2,.77,3,2.25,3a1.9,1.9,0,0,0,2-1.9h3.52c-.11,2.89-2.06,4.76-5.75,4.76C57,51.71,54.41,49.73,54.41,45.88Z" fill="#14aa40"/><path d="M67.44,35h3.91v9.55L74.43,40h4.06l-3.73,5.14,4,6.29H74.43l-3.08-5v5H67.44Z" fill="#14aa40"/><path d="M83.08,45.88v-.17a5.75,5.75,0,0,1,6.1-6c2.79,0,5.37,1.22,5.59,4.7H91.1a1.69,1.69,0,0,0-1.84-1.66c-1.37,0-2.18,1-2.18,2.9v.18c0,2,.76,3,2.25,3a1.9,1.9,0,0,0,2-1.9h3.52c-.11,2.89-2.06,4.76-5.75,4.76C85.68,51.71,83.08,49.73,83.08,45.88Z" fill="#14aa40"/><path d="M95.49,45.88v-.17c0-3.67,2.73-6,6.27-6S108,42,108,45.6v.17c0,3.72-2.73,5.94-6.25,5.94S95.49,49.57,95.49,45.88Zm8.52-.06v-.18c0-1.92-.76-3-2.25-3s-2.27,1-2.27,3v.17c0,2,.76,3,2.27,3S104,47.72,104,45.82Z" fill="#14aa40"/><path d="M108.67,47.83h3.6c.13.83.5,1.28,1.62,1.28,1,0,1.4-.37,1.4-.93s-.55-.81-2.12-1c-3.06-.4-4.35-1.29-4.35-3.67,0-2.54,2.25-3.76,4.89-3.76,2.82,0,4.79,1,5.05,3.69h-3.54a1.27,1.27,0,0,0-1.46-1.13c-.86,0-1.29.37-1.29.89s.52.77,1.92.94c3.17.39,4.7,1.22,4.7,3.67,0,2.71-2,3.93-5.18,3.93S108.75,50.36,108.67,47.83Z" fill="#14aa40"/><path d="M120.88,47.78V42.69H119.5V40h1.38V37.64h3.91V40H127v2.67h-2.25v4.72a1,1,0,0,0,1.16,1.2,3,3,0,0,0,1.11-.19v3a8.24,8.24,0,0,1-2.16.32C122.32,51.71,120.88,50.47,120.88,47.78Z" fill="#14aa40"/><path d="M127.92,47.83h3.6c.13.83.5,1.28,1.62,1.28,1,0,1.4-.37,1.4-.93s-.55-.81-2.12-1c-3.06-.4-4.35-1.29-4.35-3.67,0-2.54,2.25-3.76,4.89-3.76,2.82,0,4.79,1,5,3.69h-3.54A1.27,1.27,0,0,0,133,42.28c-.86,0-1.29.37-1.29.89s.52.77,1.92.94c3.17.39,4.7,1.22,4.7,3.67,0,2.71-2,3.93-5.18,3.93S128,50.36,127.92,47.83Z" fill="#14aa40"/><path d="M21.27,58.85h3.89V75.3H21.27Z" fill="#14aa40"/><path d="M26.64,69.73v-.17a5.85,5.85,0,0,1,6.19-6c3.12,0,5.81,1.79,5.81,5.9v1h-8A2.28,2.28,0,0,0,33,72.88c1.29,0,1.83-.59,2-1.36h3.67c-.35,2.58-2.34,4-5.79,4S26.64,73.47,26.64,69.73Zm8.2-1.44c-.07-1.38-.75-2.14-2-2.14a2.18,2.18,0,0,0-2.19,2.14Z" fill="#14aa40"/><path d="M39.34,71.68h3.6c.13.83.5,1.28,1.62,1.28,1,0,1.4-.37,1.4-.93s-.55-.81-2.12-1c-3.06-.4-4.35-1.29-4.35-3.67,0-2.54,2.25-3.76,4.89-3.76,2.82,0,4.79,1,5,3.69H45.89a1.27,1.27,0,0,0-1.46-1.13c-.85,0-1.29.37-1.29.89s.52.77,1.92.94c3.17.39,4.7,1.22,4.7,3.67,0,2.71-2,3.93-5.18,3.93S39.42,74.21,39.34,71.68Z" fill="#14aa40"/><path d="M50.33,71.68h3.6c.13.83.51,1.28,1.62,1.28S57,72.59,57,72s-.55-.81-2.12-1c-3.06-.4-4.35-1.29-4.35-3.67,0-2.54,2.25-3.76,4.89-3.76,2.82,0,4.79,1,5.05,3.69H56.88a1.27,1.27,0,0,0-1.46-1.13c-.85,0-1.29.37-1.29.89s.52.77,1.92.94c3.17.39,4.7,1.22,4.7,3.67,0,2.71-2,3.93-5.18,3.93S50.41,74.21,50.33,71.68Z" fill="#14aa40"/><path d="M65.38,69.73v-.17c0-3.67,2.73-6,6.27-6s6.23,2.25,6.23,5.88v.17c0,3.72-2.73,5.94-6.25,5.94S65.38,73.42,65.38,69.73Zm8.52-.06v-.18c0-1.92-.76-3-2.25-3s-2.27,1-2.27,3v.17c0,2,.77,3,2.27,3S73.9,71.57,73.9,69.67Z" fill="#14aa40"/><path d="M79.26,63.88h3.91v1.83a4,4,0,0,1,3.76-2.14c2.2,0,3.73,1.38,3.73,4.3V75.3H86.75V68.66c0-1.29-.5-1.92-1.64-1.92s-1.94.7-1.94,2.16v6.4H79.26Z" fill="#14aa40"/><path d="M20.5,96c0-2.68,2.27-3.73,6.08-3.73h1.09V92c0-1.1-.26-1.82-1.51-1.82a1.41,1.41,0,0,0-1.55,1.36H20.94c.17-2.76,2.34-4.11,5.46-4.11s5.16,1.29,5.16,4.33v7.4h-3.8V97.82a3.76,3.76,0,0,1-3.39,1.6C22.32,99.42,20.5,98.41,20.5,96Zm7.17-.83v-.69h-1c-1.57,0-2.27.3-2.27,1.24,0,.66.44,1.07,1.35,1.07C26.84,96.77,27.67,96.14,27.67,95.15Z" fill="#14aa40"/><path d="M32.15,87.73h4.17l2.38,7.36L41,87.73h3.74L40.6,99.15H36.34Z" fill="#14aa40"/><path d="M44.54,93.58v-.17a5.85,5.85,0,0,1,6.18-6c3.13,0,5.81,1.79,5.81,5.9v1h-8a2.29,2.29,0,0,0,2.38,2.38c1.29,0,1.84-.59,2-1.36h3.67c-.35,2.58-2.34,4-5.79,4S44.54,97.32,44.54,93.58Zm8.19-1.44c-.06-1.38-.74-2.14-2-2.14a2.16,2.16,0,0,0-2.18,2.14Z" fill="#14aa40"/><path d="M57.89,87.73H61.8V90a3.6,3.6,0,0,1,3.69-2.43v3.65c-2.38-.06-3.69.68-3.69,2.51v5.42H57.89Z" fill="#14aa40"/><path d="M66,96c0-2.68,2.28-3.73,6.08-3.73h1.09V92c0-1.1-.26-1.82-1.51-1.82a1.41,1.41,0,0,0-1.55,1.36H66.43c.18-2.76,2.34-4.11,5.46-4.11s5.16,1.29,5.16,4.33v7.4h-3.8V97.82a3.76,3.76,0,0,1-3.39,1.6C67.81,99.42,66,98.41,66,96Zm7.17-.83v-.69h-1c-1.57,0-2.27.3-2.27,1.24,0,.66.44,1.07,1.36,1.07A1.72,1.72,0,0,0,73.16,95.15Z" fill="#14aa40"/><path d="M78.32,99.15h3.89c.17.83.67,1.49,2.09,1.49a2.16,2.16,0,0,0,2.43-2.4V96.49a4,4,0,0,1-3.54,2.09c-2.67,0-4.85-2-4.85-5.48v-.17c0-3.37,2.16-5.51,4.85-5.51a3.72,3.72,0,0,1,3.54,1.92V87.73h3.91V98.19c0,3.41-2.25,5.2-6.34,5.2C80.41,103.39,78.62,101.75,78.32,99.15Zm8.52-6.07v-.15c0-1.58-.81-2.58-2.25-2.58s-2.25,1-2.25,2.6v.17c0,1.58.83,2.58,2.23,2.58S86.84,94.7,86.84,93.08Z" fill="#14aa40"/><path d="M92,93.58v-.17a5.85,5.85,0,0,1,6.18-6c3.13,0,5.81,1.79,5.81,5.9v1H96a2.29,2.29,0,0,0,2.38,2.38c1.29,0,1.84-.59,2-1.36H104c-.35,2.58-2.34,4-5.79,4S92,97.32,92,93.58Zm8.19-1.44c-.07-1.38-.74-2.14-2-2.14A2.18,2.18,0,0,0,96,92.14Z" fill="#14aa40"/><path d="M21.68,119.33v-5.09H20.31v-2.66h1.37v-2.39h3.91v2.39h2.25v2.66H25.59V119a1,1,0,0,0,1.16,1.2,3,3,0,0,0,1.12-.19v3a8.34,8.34,0,0,1-2.17.33C23.12,123.27,21.68,122,21.68,119.33Z" fill="#14aa40"/><path d="M29.33,106.55h3.91v6.86A4,4,0,0,1,37,111.27c2.21,0,3.74,1.38,3.74,4.3V123H36.82v-6.64c0-1.29-.5-1.92-1.63-1.92s-1.95.7-1.95,2.16V123H29.33Z" fill="#14aa40"/><path d="M42,119.83c0-2.68,2.27-3.73,6.08-3.73h1.09v-.26c0-1.1-.26-1.82-1.51-1.82a1.41,1.41,0,0,0-1.55,1.36H42.42c.17-2.76,2.34-4.11,5.46-4.11S53,112.56,53,115.6V123h-3.8v-1.33a3.77,3.77,0,0,1-3.39,1.6C43.79,123.27,42,122.26,42,119.83Zm7.17-.83v-.69h-1c-1.57,0-2.27.3-2.27,1.24,0,.66.44,1.07,1.35,1.07C48.32,120.62,49.15,120,49.15,119Z" fill="#14aa40"/><path d="M54.94,111.58h3.91v1.83a4,4,0,0,1,3.76-2.14c2.2,0,3.73,1.38,3.73,4.3V123H62.43v-6.64c0-1.29-.5-1.92-1.64-1.92s-1.94.7-1.94,2.16V123H54.94Z" fill="#14aa40"/><path d="M71.61,117.43v-.17c0-3.67,2.73-6,6.27-6s6.23,2.25,6.23,5.88v.17c0,3.72-2.73,6-6.25,6S71.61,121.12,71.61,117.43Zm8.52-.06v-.18c0-1.92-.76-3-2.25-3s-2.27,1-2.27,3v.17c0,2,.76,3,2.27,3S80.13,119.27,80.13,117.37Z" fill="#14aa40"/><path d="M86,119.33v-5.09H84.63v-2.66H86v-2.39h3.91v2.39h2.25v2.66H89.92V119c0,.83.41,1.2,1.16,1.2a3,3,0,0,0,1.11-.19v3a8.18,8.18,0,0,1-2.16.33C87.45,123.27,86,122,86,119.33Z" fill="#14aa40"/><path d="M93.66,106.55h3.91v6.86a4,4,0,0,1,3.75-2.14c2.21,0,3.74,1.38,3.74,4.3V123h-3.91v-6.64c0-1.29-.5-1.92-1.64-1.92s-1.94.7-1.94,2.16V123H93.66Z" fill="#14aa40"/><path d="M106.35,117.43v-.17a5.85,5.85,0,0,1,6.18-6c3.13,0,5.82,1.79,5.82,5.9v1h-8a2.29,2.29,0,0,0,2.39,2.38c1.29,0,1.83-.59,2-1.36h3.68c-.35,2.58-2.34,4-5.79,4S106.35,121.17,106.35,117.43Zm8.19-1.44c-.06-1.38-.74-2.14-2-2.14a2.16,2.16,0,0,0-2.18,2.14Z" fill="#14aa40"/><path d="M119.7,111.58h3.91v2.27a3.6,3.6,0,0,1,3.69-2.43v3.65c-2.38-.06-3.69.68-3.69,2.51V123H119.7Z" fill="#14aa40"/><path d="M20.5,143.68c0-2.68,2.27-3.73,6.08-3.73h1.09v-.26c0-1.1-.26-1.82-1.51-1.82a1.41,1.41,0,0,0-1.55,1.36H20.94c.17-2.76,2.34-4.11,5.46-4.11s5.16,1.29,5.16,4.33v7.4h-3.8v-1.33a3.76,3.76,0,0,1-3.39,1.6C22.32,147.12,20.5,146.11,20.5,143.68Zm7.17-.83v-.7h-1c-1.57,0-2.27.31-2.27,1.25,0,.66.44,1.07,1.35,1.07C26.84,144.47,27.67,143.84,27.67,142.85Z" fill="#14aa40"/><path d="M33.46,135.42h3.91v2.28a3.6,3.6,0,0,1,3.69-2.43v3.65c-2.38-.06-3.69.68-3.69,2.51v5.42H33.46Z" fill="#14aa40"/><path d="M41.76,141.28v-.17a5.85,5.85,0,0,1,6.19-6c3.12,0,5.81,1.79,5.81,5.9v1h-8a2.28,2.28,0,0,0,2.38,2.38c1.29,0,1.83-.59,2-1.36h3.67c-.35,2.58-2.34,4.05-5.79,4.05S41.76,145,41.76,141.28Zm8.2-1.44c-.07-1.38-.75-2.14-2-2.14a2.18,2.18,0,0,0-2.19,2.14Z" fill="#14aa40"/><path d="M54.57,143.68c0-2.68,2.27-3.73,6.07-3.73h1.09v-.26c0-1.1-.26-1.82-1.5-1.82a1.41,1.41,0,0,0-1.56,1.36H55c.18-2.76,2.34-4.11,5.47-4.11s5.15,1.29,5.15,4.33v7.4h-3.8v-1.33a3.76,3.76,0,0,1-3.39,1.6C56.38,147.12,54.57,146.11,54.57,143.68Zm7.16-.83v-.7h-1c-1.58,0-2.28.31-2.28,1.25,0,.66.44,1.07,1.36,1.07A1.72,1.72,0,0,0,61.73,142.85Z" fill="#14aa40"/><path d="M72,143.18v-5.09H70.65v-2.67H72V133h3.92v2.38h2.25v2.67H75.94v4.72c0,.83.41,1.2,1.15,1.2a3,3,0,0,0,1.12-.19v3a8.26,8.26,0,0,1-2.17.33C73.47,147.12,72,145.87,72,143.18Z" fill="#14aa40"/><path d="M79.06,143.68c0-2.68,2.27-3.73,6.07-3.73h1.1v-.26c0-1.1-.27-1.82-1.51-1.82a1.4,1.4,0,0,0-1.55,1.36H79.5c.17-2.76,2.33-4.11,5.46-4.11s5.16,1.29,5.16,4.33v7.4H86.31v-1.33a3.74,3.74,0,0,1-3.38,1.6C80.87,147.12,79.06,146.11,79.06,143.68Zm7.17-.83v-.7h-1c-1.57,0-2.27.31-2.27,1.25,0,.66.43,1.07,1.35,1.07C85.4,144.47,86.23,143.84,86.23,142.85Z" fill="#14aa40"/><path d="M94.9,141l-3.56-5.62h4.5l1.77,3,1.73-3h4l-3.61,5.31,4,6.12h-4.5l-2-3.41-2.07,3.41h-4Z" fill="#14aa40"/><path d="M21.16,159.27h3.91V161a4,4,0,0,1,3.56-2c2.67,0,4.83,2,4.83,5.92v.18c0,3.93-2.16,5.89-4.85,5.89A3.76,3.76,0,0,1,25.07,169v5.51H21.16Zm8.32,5.8v-.18c0-2-.87-3-2.25-3s-2.27,1-2.27,3V165c0,2,.85,2.93,2.27,2.93S29.48,166.94,29.48,165.07Z" fill="#14aa40"/><path d="M34.88,159.27h3.91v2.28a3.6,3.6,0,0,1,3.69-2.43v3.65c-2.38-.06-3.69.68-3.69,2.51v5.42H34.88Z" fill="#14aa40"/><path d="M43.18,165.13V165a5.85,5.85,0,0,1,6.19-6c3.12,0,5.81,1.79,5.81,5.9v1h-8a2.28,2.28,0,0,0,2.38,2.38c1.29,0,1.83-.59,2-1.36h3.67c-.35,2.58-2.34,4-5.79,4S43.18,168.87,43.18,165.13Zm8.2-1.44c-.07-1.38-.75-2.14-2-2.14a2.18,2.18,0,0,0-2.19,2.14Z" fill="#14aa40"/><path d="M56.53,159.27h3.91V161A4.05,4.05,0,0,1,64,159c2.66,0,4.82,2,4.82,5.92v.18C68.83,169,66.67,171,64,171A3.77,3.77,0,0,1,60.44,169v5.51H56.53Zm8.33,5.8v-.18c0-2-.88-3-2.25-3s-2.28,1-2.28,3V165c0,2,.86,2.93,2.28,2.93S64.86,166.94,64.86,165.07Z" fill="#14aa40"/><path d="M69.6,167.53c0-2.68,2.27-3.73,6.07-3.73h1.1v-.26c0-1.1-.27-1.82-1.51-1.82a1.4,1.4,0,0,0-1.55,1.36H70c.17-2.76,2.33-4.11,5.46-4.11s5.16,1.29,5.16,4.33v7.4H76.85v-1.33A3.74,3.74,0,0,1,73.47,171C71.41,171,69.6,170,69.6,167.53Zm7.17-.83V166h-1c-1.57,0-2.27.31-2.27,1.25,0,.66.43,1.07,1.35,1.07C75.94,168.32,76.77,167.69,76.77,166.7Z" fill="#14aa40"/><path d="M82.56,159.27h3.91v2.28a3.6,3.6,0,0,1,3.69-2.43v3.65c-2.38-.06-3.69.68-3.69,2.51v5.42H82.56Z" fill="#14aa40"/><path d="M90.86,165.13V165A5.85,5.85,0,0,1,97,159c3.13,0,5.81,1.79,5.81,5.9v1h-8a2.29,2.29,0,0,0,2.39,2.38c1.28,0,1.83-.59,2-1.36h3.67c-.35,2.58-2.33,4-5.79,4S90.86,168.87,90.86,165.13Zm8.19-1.44c-.06-1.38-.74-2.14-2-2.14a2.16,2.16,0,0,0-2.18,2.14Z" fill="#14aa40"/><path d="M104.21,159.27h3.91v2.28a3.6,3.6,0,0,1,3.69-2.43v3.65c-2.38-.06-3.69.68-3.69,2.51v5.42h-3.91Z" fill="#14aa40"/><path d="M112.51,167.08h3.61c.13.83.5,1.28,1.61,1.28s1.4-.37,1.4-.93-.54-.81-2.12-1c-3.06-.4-4.34-1.29-4.34-3.67,0-2.54,2.25-3.76,4.89-3.76,2.82,0,4.78,1,5,3.69h-3.54a1.28,1.28,0,0,0-1.47-1.13c-.85,0-1.29.37-1.29.89s.53.77,1.93.94c3.17.39,4.69,1.22,4.69,3.67,0,2.71-2,3.93-5.17,3.93S112.6,169.61,112.51,167.08Z" fill="#14aa40"/><path d="M124.05,168.74a2.18,2.18,0,0,1,2.23-2.21,2.21,2.21,0,1,1,0,4.41A2.18,2.18,0,0,1,124.05,168.74Z" fill="#14aa40"/></g></g></svg>