<svg xmlns="http://www.w3.org/2000/svg" viewBox="0 0 728 90"><title>H26</title><g id="Layer_2" data-name="Layer 2"><g id="Rect"><rect width="728" height="90" fill="none"/></g><g id="H26"><g id="Get_your_max_refund_in_about_an_hour." data-name="Get your max refund in about an hour."><path d="M121,27.2v-.27c0-7.19,5.28-12,12.38-12,5.58,0,10.53,2.54,11,8.68h-6.7c-.33-2.21-1.75-3.37-4.26-3.37-3.33,0-5.34,2.58-5.34,6.83v.27c0,3.83,1.42,6.8,5.51,6.8,3.3,0,4.55-1.69,4.68-3.57h-4.42V25.81H145v2.91c0,6-3.93,10.52-11.55,10.52C125.38,39.24,121,34.26,121,27.2Z" fill="#fff"/><path d="M146.3,30.43v-.26c0-5.55,4.13-9,9.34-9,4.72,0,8.78,2.71,8.78,8.92v1.55H152.27c.17,2.27,1.49,3.6,3.6,3.6,1.95,0,2.77-.9,3-2h5.54c-.53,3.89-3.53,6.1-8.75,6.1C150.26,39.24,146.3,36.08,146.3,30.43Zm12.38-2.18c-.1-2.08-1.12-3.23-3-3.23s-3,1.15-3.3,3.23Z" fill="#fff"/><path d="M167.26,33.3V25.61h-2.08v-4h2.08V18h5.9v3.6h3.4v4h-3.4v7.13c0,1.26.63,1.82,1.75,1.82a4.5,4.5,0,0,0,1.69-.3v4.49a12.42,12.42,0,0,1-3.27.49C169.43,39.24,167.26,37.36,167.26,33.3Z" fill="#fff"/><path d="M190.22,37.1l-6.89-15.51h6.4l3.56,9.21,3.3-9.21h5.65l-9.24,23h-5.65Z" fill="#fff"/><path d="M201.9,30.43v-.26c0-5.55,4.13-9,9.48-9s9.4,3.4,9.4,8.88v.27c0,5.61-4.12,9-9.44,9S201.9,36,201.9,30.43Zm12.88-.1v-.26c0-2.9-1.16-4.52-3.4-4.52s-3.44,1.55-3.44,4.45v.27c0,3,1.16,4.58,3.44,4.58S214.78,33.21,214.78,30.33Z" fill="#fff"/><path d="M222.73,32.84V21.59h5.91V31.88c0,1.95.75,2.91,2.44,2.91S234,33.73,234,31.52V21.59h5.9V38.85H234V36.18a5.68,5.68,0,0,1-5.48,3.06C225.2,39.24,222.73,37.2,222.73,32.84Z" fill="#fff"/><path d="M242.92,21.59h5.91V25a5.44,5.44,0,0,1,5.58-3.66v5.51c-3.6-.1-5.58,1-5.58,3.79v8.19h-5.91Z" fill="#fff"/><path d="M262.56,21.59h5.91v2.64a6,6,0,0,1,5.41-3.11A4.69,4.69,0,0,1,278.56,24a6.85,6.85,0,0,1,5.71-2.88c3.27,0,5.65,2.12,5.65,6.44V38.85H284V28.55c0-1.75-.86-2.61-2.21-2.61-1.59,0-2.64,1-2.64,2.91v10h-5.84V28.55c0-1.75-.86-2.61-2.21-2.61-1.59,0-2.64,1-2.64,2.91v10h-5.91Z" fill="#fff"/><path d="M291.8,34.06c0-4.06,3.43-5.64,9.17-5.64h1.65V28c0-1.65-.4-2.74-2.28-2.74a2.12,2.12,0,0,0-2.34,2h-5.54c.26-4.16,3.53-6.21,8.25-6.21s7.79,1.95,7.79,6.54V38.85h-5.75v-2c-.82,1.25-2.34,2.4-5.11,2.4C294.53,39.24,291.8,37.73,291.8,34.06Zm10.82-1.25V31.75h-1.55c-2.38,0-3.43.46-3.43,1.88,0,1,.66,1.62,2,1.62C301.37,35.25,302.62,34.29,302.62,32.81Z" fill="#fff"/><path d="M315.72,30.07l-5.38-8.48h6.8l2.67,4.55,2.61-4.55h6.07l-5.44,8,6,9.24h-6.8l-3.07-5.15L316,38.85h-6Z" fill="#fff"/><path d="M336.67,21.59h5.91V25a5.44,5.44,0,0,1,5.58-3.66v5.51c-3.6-.1-5.58,1-5.58,3.79v8.19h-5.91Z" fill="#fff"/><path d="M349.21,30.43v-.26c0-5.55,4.13-9,9.34-9,4.72,0,8.78,2.71,8.78,8.92v1.55H355.19c.16,2.27,1.48,3.6,3.6,3.6,1.94,0,2.77-.9,3-2h5.54c-.52,3.89-3.53,6.1-8.74,6.1C353.17,39.24,349.21,36.08,349.21,30.43Zm12.38-2.18c-.1-2.08-1.12-3.23-3-3.23s-3,1.15-3.3,3.23Z" fill="#fff"/><path d="M370.27,25.61h-2.18v-4h2.18V20.07c0-4.29,2.67-6.34,6.76-6.34a10.43,10.43,0,0,1,2.71.37v4.32a5.52,5.52,0,0,0-1.62-.23,1.74,1.74,0,0,0-2,1.88v1.52h3.5v4h-3.5V38.85h-5.87Z" fill="#fff"/><path d="M381.49,32.84V21.59h5.91V31.88c0,1.95.76,2.91,2.44,2.91s2.94-1.06,2.94-3.27V21.59h5.9V38.85h-5.9V36.18a5.68,5.68,0,0,1-5.48,3.06C384,39.24,381.49,37.2,381.49,32.84Z" fill="#fff"/><path d="M401.68,21.59h5.91v2.77a6.11,6.11,0,0,1,5.68-3.24c3.33,0,5.64,2.08,5.64,6.51V38.85H413v-10c0-1.95-.75-2.91-2.47-2.91s-2.94,1.06-2.94,3.27v9.67h-5.91Z" fill="#fff"/><path d="M420.92,30.4v-.26c0-5.88,3.24-9,7.33-9A5.59,5.59,0,0,1,433.56,24V14h5.91V38.85h-5.91V36a5.79,5.79,0,0,1-5.38,3.2C424.19,39.24,420.92,36.37,420.92,30.4Zm12.81-.1V30c0-2.91-1.22-4.46-3.4-4.46s-3.4,1.49-3.4,4.49v.26c0,2.91,1.29,4.39,3.33,4.39S433.73,33.24,433.73,30.3Z" fill="#fff"/><path d="M121.62,51.9a3.08,3.08,0,0,1,3.23-3.07,3.06,3.06,0,1,1,0,6.11A3.06,3.06,0,0,1,121.62,51.9Zm.29,4.69h5.91V73.85h-5.91Z" fill="#fff"/><path d="M131,56.59h5.91v2.77a6.09,6.09,0,0,1,5.67-3.24c3.34,0,5.65,2.08,5.65,6.51V73.85h-5.91v-10c0-2-.76-2.91-2.48-2.91S136.9,62,136.9,64.18v9.67H131Z" fill="#fff"/><path d="M156.1,69.06c0-4.06,3.43-5.64,9.18-5.64h1.65V63c0-1.65-.4-2.74-2.28-2.74a2.12,2.12,0,0,0-2.34,2h-5.55c.27-4.16,3.53-6.21,8.25-6.21s7.79,2,7.79,6.54V73.85h-5.74v-2a5.67,5.67,0,0,1-5.12,2.42C158.84,74.25,156.1,72.73,156.1,69.06Zm10.83-1.25V66.75h-1.55c-2.38,0-3.44.46-3.44,1.88,0,1,.66,1.62,2.05,1.62C165.67,70.25,166.93,69.29,166.93,67.81Z" fill="#fff"/><path d="M181.58,71.18v2.67h-5.91V49h5.91V59.16a6.09,6.09,0,0,1,5.38-3c4,0,7.29,3,7.29,8.95v.26c0,5.94-3.27,8.92-7.33,8.92A5.61,5.61,0,0,1,181.58,71.18Zm6.67-5.85v-.26c0-3-1.33-4.49-3.4-4.49s-3.44,1.55-3.44,4.46v.26c0,2.94,1.29,4.42,3.44,4.42S188.25,68.17,188.25,65.33Z" fill="#fff"/><path d="M195.47,65.43v-.26c0-5.55,4.13-9.05,9.47-9.05s9.41,3.4,9.41,8.88v.27c0,5.61-4.13,9-9.44,9S195.47,71,195.47,65.43Zm12.87-.1v-.26c0-2.9-1.15-4.52-3.4-4.52s-3.43,1.55-3.43,4.45v.27c0,3,1.16,4.59,3.43,4.59S208.34,68.21,208.34,65.33Z" fill="#fff"/><path d="M216.29,67.84V56.59h5.91V66.88c0,2,.76,2.91,2.44,2.91s2.94-1.06,2.94-3.27V56.59h5.91V73.85h-5.91V71.18a5.67,5.67,0,0,1-5.48,3.07C218.77,74.25,216.29,72.2,216.29,67.84Z" fill="#fff"/><path d="M237.28,68.3V60.61H235.2v-4h2.08V53h5.91v3.6h3.4v4h-3.4v7.13c0,1.26.63,1.82,1.75,1.82a4.45,4.45,0,0,0,1.68-.3v4.49a12.28,12.28,0,0,1-3.27.5C239.46,74.25,237.28,72.36,237.28,68.3Z" fill="#fff"/><path d="M253.85,69.06c0-4.06,3.43-5.64,9.17-5.64h1.65V63c0-1.65-.4-2.74-2.28-2.74a2.12,2.12,0,0,0-2.34,2h-5.54c.26-4.16,3.53-6.21,8.25-6.21s7.79,2,7.79,6.54V73.85H264.8v-2a5.65,5.65,0,0,1-5.11,2.42C256.58,74.25,253.85,72.73,253.85,69.06Zm10.82-1.25V66.75h-1.55c-2.38,0-3.43.46-3.43,1.88,0,1,.66,1.62,2,1.62C263.42,70.25,264.67,69.29,264.67,67.81Z" fill="#fff"/><path d="M273.41,56.59h5.91v2.77A6.11,6.11,0,0,1,285,56.12c3.33,0,5.64,2.08,5.64,6.51V73.85h-5.91v-10c0-2-.75-2.91-2.47-2.91s-2.94,1.06-2.94,3.27v9.67h-5.91Z" fill="#fff"/><path d="M299.52,49h5.9V59.36a6.11,6.11,0,0,1,5.68-3.24c3.34,0,5.65,2.08,5.65,6.51V73.85h-5.91v-10c0-2-.76-2.91-2.48-2.91s-2.94,1.06-2.94,3.27v9.67h-5.9Z" fill="#fff"/><path d="M318.69,65.43v-.26c0-5.55,4.12-9.05,9.47-9.05s9.41,3.4,9.41,8.88v.27c0,5.61-4.13,9-9.44,9S318.69,71,318.69,65.43Zm12.87-.1v-.26c0-2.9-1.15-4.52-3.4-4.52s-3.43,1.55-3.43,4.45v.27c0,3,1.15,4.59,3.43,4.59S331.56,68.21,331.56,65.33Z" fill="#fff"/><path d="M339.51,67.84V56.59h5.91V66.88c0,2,.76,2.91,2.44,2.91s2.94-1.06,2.94-3.27V56.59h5.91V73.85H350.8V71.18a5.67,5.67,0,0,1-5.48,3.07C342,74.25,339.51,72.2,339.51,67.84Z" fill="#fff"/><path d="M359.71,56.59h5.91V60a5.43,5.43,0,0,1,5.57-3.66v5.51c-3.59-.1-5.57,1-5.57,3.79v8.19h-5.91Z" fill="#fff"/><path d="M371.13,70.88a3.29,3.29,0,0,1,3.36-3.34,3.34,3.34,0,1,1,0,6.67A3.28,3.28,0,0,1,371.13,70.88Z" fill="#fff"/></g></g></g></svg>