<?xml version="1.0" encoding="utf-8"?>
<!-- Generator: Adobe Illustrator 23.1.0, SVG Export Plug-In . SVG Version: 6.00 Build 0)  -->
<svg version="1.1" id="Layer_1" xmlns="http://www.w3.org/2000/svg" xmlns:xlink="http://www.w3.org/1999/xlink" x="0px" y="0px"
	 viewBox="0 0 301 251" style="enable-background:new 0 0 301 251;" xml:space="preserve">
<style type="text/css">
	.st0{fill:none;}
	.st1{fill:#FFFFFF;}
</style>
<title>Asset 2</title>
<g>
	<g id="Rect">
		<rect class="st0" width="300" height="250"/>
	</g>
	<g id="Why_pay_to_file_if_you_don_t_have_to_">
		<path class="st1" d="M21,31h8.1l3.6,17.5L36.5,31h7.1l4.1,17.7L51.6,31H59l-6.5,28h-8.4l-4.3-17.8L35.4,59h-7.9L21,31z"/>
		<path class="st1" d="M61.1,29.5h7v12.3c1.3-2.5,4-4,6.8-3.8c4,0,6.7,2.5,6.7,7.7V59h-7V47.1c0-2.3-0.9-3.5-2.9-3.5
			s-3.5,1.3-3.5,3.9V59h-7L61.1,29.5z"/>
		<path class="st1" d="M90.7,57l-8.2-18.5h7.6l4.2,11l3.9-11h6.7L94,65.9h-6.7L90.7,57z"/>
		<path class="st1" d="M114,38.5h7v3.1c1.3-2.3,3.8-3.7,6.4-3.6c4.8,0,8.7,3.6,8.7,10.6v0.3c0,7.1-3.9,10.6-8.7,10.6
			c-2.6,0.2-5.1-1.2-6.4-3.5v9.9h-7V38.5z M129,48.9v-0.3c0-3.6-1.6-5.3-4-5.3s-4.1,1.8-4.1,5.3v0.3c0,3.5,1.5,5.3,4.1,5.3
			S128.9,52.3,129,48.9L129,48.9z"/>
		<path class="st1" d="M137.4,53.4c0-4.8,4.1-6.7,10.9-6.7h2v-0.5c0-2-0.5-3.3-2.7-3.3c-1.4-0.1-2.6,0.9-2.8,2.3c0,0.1,0,0.1,0,0.2
			h-6.6c0.3-5,4.2-7.4,9.8-7.4s9.3,2.3,9.3,7.8V59h-6.8v-2.4c-1,1.5-2.8,2.9-6.1,2.9C140.7,59.5,137.4,57.7,137.4,53.4z M150.3,51.9
			v-1.3h-1.9c-2.8,0-4.1,0.5-4.1,2.2c0,1.2,0.8,1.9,2.4,1.9C148.8,54.8,150.3,53.6,150.3,51.9z"/>
		<path class="st1" d="M166.4,57l-8.2-18.5h7.6l4.2,11l3.9-11h6.7l-11,27.4H163L166.4,57z"/>
		<path class="st1" d="M190.6,52.5v-9.1h-2.5v-4.8h2.5v-4.3h7v4.3h4v4.8h-4v8.5c0,1.5,0.8,2.2,2.1,2.2c0.7,0,1.4-0.1,2-0.3v5.3
			c-1.3,0.4-2.6,0.6-3.9,0.6C193.2,59.5,190.6,57.3,190.6,52.5z"/>
		<path class="st1" d="M203.3,49v-0.3c0-6.6,4.9-10.8,11.3-10.8s11.2,4,11.2,10.6v0.3c0,6.7-4.9,10.7-11.2,10.7S203.3,55.7,203.3,49
			z M218.6,48.9v-0.3c0-3.5-1.4-5.4-4-5.4s-4.1,1.8-4.1,5.3v0.3c0,3.5,1.4,5.5,4.1,5.5S218.6,52.3,218.6,48.9z"/>
		<path class="st1" d="M23.6,84.6H21v-4.8h2.6V78c0-5.1,3.2-7.5,8-7.5c1.1,0,2.2,0.2,3.2,0.4V76c-0.6-0.2-1.3-0.3-1.9-0.3
			c-1.1-0.2-2.2,0.6-2.4,1.7c0,0.2,0,0.4,0,0.5v1.8h4.2v4.8h-4.2v15.7h-7L23.6,84.6z"/>
		<path class="st1" d="M37,74.2c-0.1-2.1,1.5-4,3.6-4.1s4,1.5,4.1,3.6s-1.5,4-3.6,4.1c-0.1,0-0.2,0-0.3,0c-2,0.1-3.7-1.5-3.8-3.5
			C37,74.3,37,74.3,37,74.2z M37.4,79.8h7v20.5h-7V79.8z"/>
		<path class="st1" d="M48.3,70.8h7v29.6h-7V70.8z"/>
		<path class="st1" d="M58,90.3V90c0-6.6,4.9-10.8,11.1-10.8c5.6,0,10.4,3.2,10.4,10.6v1.8H65.1c0.2,2.7,1.8,4.3,4.3,4.3
			c2.3,0,3.3-1.1,3.6-2.4h6.6c-0.6,4.6-4.2,7.3-10.4,7.3C62.7,100.8,58,97,58,90.3z M72.7,87.7c-0.1-2.5-1.3-3.8-3.6-3.8
			c-2.1,0-3.6,1.4-3.9,3.8H72.7z"/>
		<path class="st1" d="M89,74.2c-0.1-2.1,1.5-4,3.6-4.1s4,1.5,4.1,3.6c0.1,2.1-1.5,4-3.6,4.1c-0.1,0-0.2,0-0.3,0
			c-2,0.1-3.7-1.5-3.8-3.5C89,74.3,89,74.3,89,74.2z M89.3,79.8h7v20.5h-7V79.8z"/>
		<path class="st1" d="M101.2,84.6h-2.6v-4.8h2.6V78c0-5.1,3.2-7.5,8-7.5c1.1,0,2.2,0.1,3.2,0.4V76c-0.6-0.2-1.3-0.3-1.9-0.3
			c-1.1-0.2-2.2,0.6-2.3,1.8c0,0.2,0,0.3,0,0.5v1.8h4.2v4.8h-4.2v15.7h-7L101.2,84.6z"/>
		<path class="st1" d="M128.2,98.2L120,79.8h7.6l4.2,11l3.9-11h6.7l-11,27.4h-6.7L128.2,98.2z"/>
		<path class="st1" d="M142.1,90.3V90c0-6.6,4.9-10.8,11.3-10.8s11.2,4,11.2,10.6v0.3c0,6.7-4.9,10.7-11.2,10.7
			S142.1,96.9,142.1,90.3z M157.4,90.2v-0.3c0-3.5-1.4-5.4-4-5.4s-4.1,1.8-4.1,5.3v0.3c0,3.5,1.4,5.5,4.1,5.5S157.4,93.6,157.4,90.2
			z"/>
		<path class="st1" d="M166.9,93.2V79.8h7V92c0,2.3,0.9,3.5,2.9,3.5s3.5-1.3,3.5-3.9V79.8h7v20.5h-7v-3.2c-1.1,2.1-3.1,3.7-6.5,3.7
			C169.8,100.8,166.9,98.3,166.9,93.2z"/>
		<path class="st1" d="M21.6,131.5v-0.3c0-7,3.9-10.7,8.7-10.7c2.6-0.2,5.1,1.2,6.3,3.4V112h7v29.6h-7v-3.3
			c-1.2,2.4-3.7,3.9-6.4,3.8C25.4,142,21.6,138.6,21.6,131.5z M36.8,131.4v-0.3c0-3.5-1.5-5.3-4-5.3s-4,1.8-4,5.3v0.3
			c0,3.4,1.5,5.2,4,5.2S36.8,134.9,36.8,131.4z"/>
		<path class="st1" d="M46.1,131.6v-0.3c0-6.6,4.9-10.8,11.3-10.8s11.2,4,11.2,10.6v0.3c0,6.7-4.9,10.7-11.2,10.7
			S46.1,138.2,46.1,131.6z M61.4,131.4v-0.3c0-3.5-1.4-5.4-4-5.4s-4.1,1.8-4.1,5.3v0.3c0,3.5,1.4,5.5,4.1,5.5S61.4,134.8,61.4,131.4
			L61.4,131.4z"/>
		<path class="st1" d="M71,121h7v3.3c1.3-2.5,3.9-4,6.8-3.8c4,0,6.7,2.5,6.7,7.7v13.3h-7v-11.9c0-2.3-0.9-3.4-3-3.4
			s-3.5,1.3-3.5,3.9v11.5h-7V121z"/>
		<path class="st1" d="M93.5,113.5h6.9l-0.8,10.8h-5.3L93.5,113.5z"/>
		<path class="st1" d="M104.8,135v-9.1h-2.5V121h2.5v-4.3h7v4.3h4v4.8h-4v8.5c0,1.5,0.8,2.2,2.1,2.2c0.7,0,1.4-0.1,2-0.4v5.3
			c-1.3,0.4-2.6,0.6-3.9,0.6C107.4,142,104.8,139.8,104.8,135z"/>
		<path class="st1" d="M125.7,112h7v12.3c1.3-2.5,3.9-4,6.8-3.8c4,0,6.7,2.5,6.7,7.7v13.3h-7v-11.9c0-2.3-0.9-3.4-2.9-3.4
			s-3.5,1.3-3.5,3.9v11.5h-7L125.7,112z"/>
		<path class="st1" d="M148.4,135.9c0-4.8,4.1-6.7,10.9-6.7h2v-0.5c0-2-0.5-3.3-2.7-3.3c-1.4-0.1-2.6,0.9-2.8,2.3c0,0.1,0,0.1,0,0.2
			h-6.6c0.3-5,4.2-7.4,9.8-7.4s9.3,2.3,9.3,7.8v13.3h-6.8v-2.4c-1,1.5-2.8,2.9-6.1,2.9C151.7,142,148.4,140.2,148.4,135.9z
			 M161.3,134.4v-1.3h-1.9c-2.8,0-4.1,0.6-4.1,2.2c0,1.2,0.8,1.9,2.4,1.9C159.8,137.3,161.3,136.1,161.3,134.4L161.3,134.4z"/>
		<path class="st1" d="M169.3,121h7.5l4.3,13.2l4.2-13.2h6.7l-7.5,20.5h-7.6L169.3,121z"/>
		<path class="st1" d="M191.6,131.6v-0.3c0-6.6,4.9-10.8,11.1-10.8c5.6,0,10.4,3.2,10.4,10.6v1.8h-14.4c0.2,2.7,1.8,4.3,4.3,4.3
			c2.3,0,3.3-1.1,3.6-2.4h6.6c-0.6,4.6-4.2,7.3-10.4,7.3C196.3,142,191.6,138.3,191.6,131.6z M206.3,129c-0.1-2.5-1.3-3.8-3.6-3.8
			c-2.1,0-3.6,1.4-3.9,3.8H206.3z"/>
		<path class="st1" d="M223.6,135v-9.1h-2.5V121h2.5v-4.3h7v4.3h4v4.8h-4v8.5c0,1.5,0.7,2.2,2.1,2.2c0.7,0,1.4-0.1,2-0.4v5.3
			c-1.3,0.4-2.6,0.6-3.9,0.6C226.2,142,223.6,139.8,223.6,135z"/>
		<path class="st1" d="M236.3,131.6v-0.3c0-6.6,4.9-10.8,11.3-10.8s11.2,4,11.2,10.6v0.3c0,6.7-4.9,10.7-11.2,10.7
			S236.3,138.2,236.3,131.6z M251.6,131.4v-0.3c0-3.5-1.4-5.4-4-5.4s-4.1,1.8-4.1,5.3v0.3c0,3.5,1.4,5.5,4.1,5.5
			S251.6,134.8,251.6,131.4L251.6,131.4z"/>
		<path class="st1" d="M264.5,131.6c0-3,2-4.9,3.9-6.6c1.3-1.3,2.5-2.5,2.5-3.8c0.2-1.1-0.6-2.2-1.8-2.4c-0.2,0-0.4,0-0.6,0
			c-1.7,0-2.8,1.3-3.1,3.5h-6.8c0.2-5.9,4.4-9.2,10.5-9.2s9.5,2.7,9.5,7.4c-0.1,2.3-1.1,4.4-2.9,5.9c-1.9,1.9-4.2,3.4-4.5,5.4v0.6
			h-6.6V131.6z M263.6,138.1c-0.2-2.3,1.6-4.3,3.9-4.5c2.3-0.2,4.3,1.6,4.5,3.9c0.2,2.3-1.6,4.3-3.9,4.5c-0.1,0-0.2,0-0.3,0
			C265.6,142.1,263.7,140.3,263.6,138.1L263.6,138.1z"/>
	</g>
</g>
</svg>
