<svg xmlns="http://www.w3.org/2000/svg" viewBox="0 0 301 251"><title>Asset 2</title><g id="Layer_2" data-name="Layer 2"><g id="Rect"><rect x="0.5" y="0.5" width="300" height="250" fill="none" stroke="#000" stroke-miterlimit="10"/></g><g id="Why_pay_to_file_if_you_don_t_have_to_" data-name="Why pay to file if you don&apos;t have to?"><path d="M21.05,31h8.12L32.78,48.5,36.55,31h7.14l4.09,17.66L51.58,31H59L52.49,59.05h-8.4L39.77,41.24,35.41,59.05H27.56Z" fill="#fff"/><path d="M61.08,29.5h7V41.83A7.24,7.24,0,0,1,74.86,38c4,0,6.71,2.47,6.71,7.73V59.05h-7V47.12c0-2.31-.9-3.45-2.94-3.45s-3.49,1.26-3.49,3.89V59.05h-7Z" fill="#fff"/><path d="M90.72,57,82.51,38.53h7.62l4.24,10.95,3.92-10.95H105L94,65.92H87.3Z" fill="#fff"/><path d="M114,38.53h7v3.06a7.24,7.24,0,0,1,6.4-3.61c4.78,0,8.67,3.61,8.67,10.64v.31c0,7.06-3.89,10.6-8.71,10.6A6.78,6.78,0,0,1,121,56v9.89h-7Zm15,10.4v-.31c0-3.62-1.57-5.34-4-5.34s-4.08,1.84-4.08,5.3v.31c0,3.49,1.53,5.26,4.08,5.26S128.91,52.3,128.91,48.93Z" fill="#fff"/><path d="M137.42,53.36c0-4.82,4.09-6.71,10.91-6.71h2v-.47c0-2-.47-3.26-2.71-3.26a2.53,2.53,0,0,0-2.79,2.44h-6.59c.31-5,4.2-7.38,9.81-7.38s9.26,2.32,9.26,7.77v13.3h-6.83V56.66c-1,1.49-2.78,2.87-6.08,2.87C140.68,59.53,137.42,57.72,137.42,53.36Zm12.88-1.49V50.62h-1.85c-2.82,0-4.08.55-4.08,2.23,0,1.18.79,1.93,2.43,1.93C148.81,54.78,150.3,53.64,150.3,51.87Z" fill="#fff"/><path d="M166.43,57l-8.2-18.45h7.61l4.24,10.95L174,38.53h6.71l-11,27.39H163Z" fill="#fff"/><path d="M190.61,52.46V43.32h-2.48V38.53h2.48V34.25h7v4.28h4v4.79h-4v8.47c0,1.5.75,2.16,2.08,2.16a5.25,5.25,0,0,0,2-.35v5.34a14.89,14.89,0,0,1-3.88.59C193.2,59.53,190.61,57.29,190.61,52.46Z" fill="#fff"/><path d="M203.25,49.05v-.32c0-6.59,4.9-10.75,11.26-10.75s11.18,4,11.18,10.56v.31c0,6.67-4.9,10.68-11.22,10.68S203.25,55.68,203.25,49.05Zm15.3-.12v-.31c0-3.46-1.37-5.38-4-5.38s-4.08,1.84-4.08,5.3v.31c0,3.53,1.37,5.46,4.08,5.46S218.55,52.34,218.55,48.93Z" fill="#fff"/><path d="M23.64,84.57H21.05V79.78h2.59V78c0-5.1,3.18-7.53,8.05-7.53a12.72,12.72,0,0,1,3.21.43V76A6.32,6.32,0,0,0,33,75.74,2.06,2.06,0,0,0,30.63,78v1.81h4.16v4.79H30.63V100.3h-7Z" fill="#fff"/><path d="M37,74.21a3.88,3.88,0,1,1,3.85,3.61A3.67,3.67,0,0,1,37,74.21Zm.36,5.57h7V100.3h-7Z" fill="#fff"/><path d="M48.33,70.75h7V100.3h-7Z" fill="#fff"/><path d="M58,90.3V90c0-6.59,4.91-10.75,11.11-10.75,5.61,0,10.44,3.22,10.44,10.6v1.84H65.09c.19,2.71,1.76,4.28,4.27,4.28,2.32,0,3.3-1.06,3.58-2.43h6.59c-.63,4.63-4.2,7.26-10.4,7.26C62.69,100.78,58,97,58,90.3ZM72.7,87.71c-.12-2.48-1.33-3.85-3.61-3.85-2.12,0-3.57,1.37-3.93,3.85Z" fill="#fff"/><path d="M89,74.21a3.87,3.87,0,1,1,3.85,3.61A3.67,3.67,0,0,1,89,74.21Zm.35,5.57h7V100.3h-7Z" fill="#fff"/><path d="M101.16,84.57H98.57V79.78h2.59V78c0-5.1,3.18-7.53,8-7.53a12.74,12.74,0,0,1,3.22.43V76a6.37,6.37,0,0,0-1.92-.27A2.06,2.06,0,0,0,108.14,78v1.81h4.16v4.79h-4.16V100.3h-7Z" fill="#fff"/><path d="M128.24,98.23,120,79.78h7.61l4.24,11,3.92-11h6.71l-11,27.39h-6.71Z" fill="#fff"/><path d="M142.13,90.3V90c0-6.59,4.91-10.75,11.27-10.75s11.18,4,11.18,10.56v.31c0,6.67-4.9,10.68-11.22,10.68S142.13,96.93,142.13,90.3Zm15.31-.12v-.31c0-3.46-1.38-5.38-4-5.38s-4.09,1.84-4.09,5.3v.31c0,3.53,1.38,5.46,4.09,5.46S157.44,93.59,157.44,90.18Z" fill="#fff"/><path d="M166.9,93.16V79.78h7V92c0,2.32.91,3.46,2.91,3.46s3.49-1.26,3.49-3.89V79.78h7V100.3h-7V97.13c-1.1,2.12-3.1,3.65-6.51,3.65C169.84,100.78,166.9,98.34,166.9,93.16Z" fill="#fff"/><path d="M21.56,131.51v-.32c0-7,3.85-10.71,8.71-10.71a6.66,6.66,0,0,1,6.32,3.45V112h7v29.55h-7v-3.33a6.92,6.92,0,0,1-6.4,3.81C25.44,142,21.56,138.61,21.56,131.51Zm15.23-.12v-.31c0-3.46-1.46-5.3-4-5.3s-4,1.76-4,5.34v.31c0,3.45,1.53,5.22,4,5.22S36.79,134.88,36.79,131.39Z" fill="#fff"/><path d="M46.09,131.55v-.32c0-6.59,4.91-10.75,11.26-10.75s11.19,4,11.19,10.56v.31C68.54,138,63.63,142,57.31,142S46.09,138.18,46.09,131.55Zm15.31-.12v-.31c0-3.46-1.38-5.38-4-5.38s-4.08,1.84-4.08,5.3v.31c0,3.53,1.38,5.46,4.08,5.46S61.4,134.84,61.4,131.43Z" fill="#fff"/><path d="M71,121h7v3.3a7.25,7.25,0,0,1,6.75-3.85c4,0,6.71,2.47,6.71,7.73v13.34h-7V129.62c0-2.31-.91-3.45-3-3.45S78,127.43,78,130.06v11.49H71Z" fill="#fff"/><path d="M93.54,113.49h6.87l-.82,10.8H94.33Z" fill="#fff"/><path d="M104.81,135v-9.14h-2.47V121h2.47v-4.28h7V121h4v4.79h-4v8.47c0,1.5.75,2.16,2.08,2.16a5.41,5.41,0,0,0,2-.35v5.34A14.89,14.89,0,0,1,112,142C107.4,142,104.81,139.79,104.81,135Z" fill="#fff"/><path d="M125.69,112h7v12.33a7.25,7.25,0,0,1,6.75-3.85c4,0,6.71,2.47,6.71,7.73v13.34h-7V129.62c0-2.31-.9-3.45-2.94-3.45s-3.5,1.26-3.5,3.89v11.49h-7Z" fill="#fff"/><path d="M148.41,135.86c0-4.82,4.09-6.71,10.91-6.71h2v-.47c0-2-.47-3.26-2.71-3.26a2.53,2.53,0,0,0-2.79,2.44H149.2c.31-5,4.2-7.38,9.81-7.38s9.26,2.32,9.26,7.77v13.3h-6.83v-2.39c-1,1.49-2.78,2.87-6.08,2.87C151.67,142,148.41,140.22,148.41,135.86Zm12.88-1.49v-1.25h-1.85c-2.82,0-4.08.55-4.08,2.23,0,1.18.79,1.93,2.43,1.93C159.79,137.28,161.29,136.14,161.29,134.37Z" fill="#fff"/><path d="M169.33,121h7.5l4.28,13.22,4.2-13.22H192l-7.5,20.52h-7.65Z" fill="#fff"/><path d="M191.59,131.55v-.32c0-6.59,4.9-10.75,11.1-10.75,5.62,0,10.44,3.22,10.44,10.6v1.84H198.69c.2,2.71,1.77,4.28,4.28,4.28,2.32,0,3.3-1.06,3.57-2.43h6.59c-.62,4.63-4.2,7.26-10.4,7.26C196.3,142,191.59,138.26,191.59,131.55ZM206.3,129c-.11-2.48-1.33-3.85-3.61-3.85-2.11,0-3.57,1.37-3.92,3.85Z" fill="#fff"/><path d="M223.65,135v-9.14h-2.47V121h2.47v-4.28h7V121h4v4.79h-4v8.47c0,1.5.74,2.16,2.08,2.16a5.48,5.48,0,0,0,2-.35v5.34a15,15,0,0,1-3.88.59C226.24,142,223.65,139.79,223.65,135Z" fill="#fff"/><path d="M236.29,131.55v-.32c0-6.59,4.91-10.75,11.27-10.75s11.18,4,11.18,10.56v.31c0,6.67-4.9,10.68-11.22,10.68S236.29,138.18,236.29,131.55Zm15.31-.12v-.31c0-3.46-1.38-5.38-4-5.38s-4.09,1.84-4.09,5.3v.31c0,3.53,1.38,5.46,4.09,5.46S251.6,134.84,251.6,131.43Z" fill="#fff"/><path d="M264.51,131.59c0-3,2-4.87,3.85-6.6,1.33-1.29,2.55-2.47,2.55-3.84a2.1,2.1,0,0,0-2.39-2.36c-1.69,0-2.83,1.3-3.1,3.46h-6.83c.19-5.93,4.43-9.15,10.48-9.15s9.45,2.71,9.45,7.38a8,8,0,0,1-2.86,5.89c-1.92,1.92-4.16,3.45-4.51,5.37v.59h-6.64Zm-.9,6.51a4.21,4.21,0,1,1,4.24,3.89A4.08,4.08,0,0,1,263.61,138.1Z" fill="#fff"/></g></g></svg>