<svg xmlns="http://www.w3.org/2000/svg" viewBox="0 0 300 600"><title>H17</title><g id="Layer_2" data-name="Layer 2"><g id="Rect"><rect width="300" height="600" fill="none"/></g><g id="H17"><g id="File_with_H_R_Block_Online_for_everyone_s_favorite_price:_free." data-name="File with H&amp;R Block Online for everyone’s favorite price: free."><path d="M22.49,72.61H46.9v8h-14v7.68H44.07V96H32.9v12.79H22.49Z" fill="#fff"/><path d="M49.48,75.14a5,5,0,1,1,5,4.65A4.72,4.72,0,0,1,49.48,75.14Zm.46,7.18H59v26.44H49.94Z" fill="#fff"/><path d="M64.09,70.69h9v38.07h-9Z" fill="#fff"/><path d="M76.53,95.87v-.41c0-8.49,6.31-13.85,14.3-13.85,7.23,0,13.45,4.15,13.45,13.65v2.38H85.68c.25,3.48,2.27,5.51,5.51,5.51,3,0,4.24-1.37,4.6-3.14h8.49c-.81,6-5.41,9.35-13.4,9.35C82.59,109.36,76.53,104.51,76.53,95.87Zm19-3.34c-.15-3.19-1.72-5-4.65-5-2.73,0-4.6,1.76-5,5Z" fill="#fff"/><path d="M114.39,82.32h9.45l3.84,15.82,4.45-15.82h7.28l3.94,15.82,4.3-15.82h8.59l-8.39,26.44h-8.64l-4-14.76-4.09,14.76h-8.8Z" fill="#fff"/><path d="M158.36,75.14a5,5,0,1,1,5,4.65A4.73,4.73,0,0,1,158.36,75.14Zm.46,7.18h9.05v26.44h-9.05Z" fill="#fff"/><path d="M173.93,100.26V88.49h-3.18V82.32h3.18V76.81h9v5.51h5.21v6.17H183V99.4c0,1.93,1,2.79,2.68,2.79a7,7,0,0,0,2.58-.46v6.88a19.14,19.14,0,0,1-5,.75C177.27,109.36,173.93,106.48,173.93,100.26Z" fill="#fff"/><path d="M191.63,70.69h9V86.56a9.34,9.34,0,0,1,8.7-5c5.11,0,8.64,3.19,8.64,10v17.19h-9V93.39c0-3-1.16-4.45-3.79-4.45s-4.5,1.62-4.5,5v14.81h-9Z" fill="#fff"/><path d="M22.49,123.16H32.9V137H44.78v-13.8H55.15v36.15H44.78V145.05H32.9v14.26H22.49Z" fill="#fff"/><path d="M89.82,151.93l6,7.38H84.06l-2.12-2.63a14.42,14.42,0,0,1-9.76,3.23c-7.68,0-12.69-4-12.69-10.92,0-4.65,2.83-8.08,7.94-10.51a11.5,11.5,0,0,1-2.23-6.32c0-6.17,5.26-9.45,11.63-9.45,5.76,0,11,2.88,11,8.44,0,3.94-2.33,6.82-7.23,8.95l4.55,5.56,2.63-5.16h7.89Zm-12.54-1.07L71.57,144a4.28,4.28,0,0,0-2.42,3.89c0,2.63,1.56,4.5,4.6,4.5A4.7,4.7,0,0,0,77.28,150.86Zm-1.11-14.55c2.43-1.17,3.59-2.53,3.59-4.4a2.6,2.6,0,0,0-2.68-2.78,2.88,2.88,0,0,0-3,3.13C74.1,133.58,74.91,134.84,76.17,136.31Z" fill="#fff"/><path d="M99.12,123.16h14.16c9.45,0,14.71,3.84,14.71,11.48v.2a9.44,9.44,0,0,1-6.52,9.5l8.64,15H119.19l-7.33-12.94h-2.43v12.94H99.12Zm13.65,16.48c3.49,0,5.21-1.46,5.21-4.4V135c0-2.93-1.82-4.09-5.16-4.09h-3.39v8.69Z" fill="#fff"/><path d="M142.8,123.16h16.12c8.54,0,12.19,3.84,12.19,9.46v.2c0,4-2.08,6.72-6.12,7.78,4.45.76,7.23,3.44,7.23,8.44v.21c0,6.47-4.2,10.06-13.15,10.06H142.8Zm14,14.36c3.23,0,4.45-1.11,4.45-3.69v-.2c0-2.48-1.32-3.59-4.45-3.59h-3.94v7.48Zm.35,14.86c3.29,0,4.81-1.52,4.81-4.19V148c0-2.73-1.47-4.14-5.11-4.14h-4v8.54Z" fill="#fff"/><path d="M175.8,121.24h9v38.07h-9Z" fill="#fff"/><path d="M188.24,146.42V146c0-8.49,6.32-13.85,14.51-13.85s14.41,5.21,14.41,13.6v.4c0,8.6-6.32,13.75-14.46,13.75S188.24,155,188.24,146.42Zm19.71-.16v-.4c0-4.45-1.77-6.93-5.2-6.93s-5.26,2.38-5.26,6.83v.4c0,4.55,1.77,7,5.26,7S208,150.66,208,146.26Z" fill="#fff"/><path d="M218.92,146.42V146c0-8.79,6.32-13.85,14.11-13.85,6.47,0,12.43,2.83,12.94,10.87h-8.5c-.4-2.48-1.61-3.84-4.24-3.84-3.19,0-5.06,2.27-5.06,6.72v.4c0,4.61,1.77,7,5.21,7,2.53,0,4.3-1.52,4.6-4.4h8.14c-.25,6.68-4.75,11-13.3,11C224.94,159.91,218.92,155.31,218.92,146.42Z" fill="#fff"/><path d="M249.05,121.24h9.05v22.09l7.13-10.46h9.4L266,144.75l9.35,14.56H265.23l-7.13-11.58v11.58h-9.05Z" fill="#fff"/><path d="M20.57,192v-.4c0-11,8.29-18.4,19.11-18.4,11,0,19.16,6.92,19.16,18.14v.41c0,11.12-7.64,18.7-19.32,18.7S20.57,202.88,20.57,192Zm27.45-.1v-.4c0-6.42-3.24-10.22-8.34-10.22s-8.29,3.7-8.29,10.27v.4c0,6.57,3.33,10.36,8.34,10.36S48,198.38,48,191.91Z" fill="#fff"/><path d="M62.32,183.42h9.05v4.24a9.34,9.34,0,0,1,8.69-4.95c5.11,0,8.65,3.19,8.65,10v17.19h-9V194.49c0-3-1.16-4.45-3.79-4.45s-4.5,1.62-4.5,5v14.81H62.32Z" fill="#fff"/><path d="M93.36,171.79h9v38.07h-9Z" fill="#fff"/><path d="M107,176.24a5,5,0,1,1,4.95,4.65A4.72,4.72,0,0,1,107,176.24Zm.45,7.18h9.05v26.44h-9.05Z" fill="#fff"/><path d="M121.36,183.42h9v4.24a9.34,9.34,0,0,1,8.7-4.95c5.1,0,8.64,3.19,8.64,10v17.19H138.7V194.49c0-3-1.16-4.45-3.79-4.45s-4.5,1.62-4.5,5v14.81h-9Z" fill="#fff"/><path d="M150.73,197v-.41c0-8.49,6.32-13.85,14.31-13.85,7.23,0,13.44,4.15,13.44,13.65v2.38h-18.6c.25,3.48,2.28,5.51,5.51,5.51,3,0,4.25-1.37,4.6-3.14h8.49c-.8,6-5.4,9.35-13.39,9.35C156.8,210.46,150.73,205.61,150.73,197Zm19-3.34c-.15-3.19-1.72-4.95-4.65-4.95-2.73,0-4.6,1.76-5.06,4.95Z" fill="#fff"/><path d="M192.18,189.59h-3.34v-6.17h3.34v-2.33c0-6.57,4.1-9.7,10.36-9.7a16.3,16.3,0,0,1,4.15.55v6.62a8.44,8.44,0,0,0-2.48-.35c-2.12,0-3,1.16-3,2.88v2.33h5.36v6.17h-5.36v20.27h-9Z" fill="#fff"/><path d="M207.25,197v-.41c0-8.49,6.31-13.85,14.5-13.85s14.41,5.21,14.41,13.6v.4c0,8.6-6.32,13.75-14.46,13.75S207.25,205.51,207.25,197Zm19.71-.16v-.4c0-4.45-1.77-6.93-5.21-6.93s-5.25,2.38-5.25,6.83v.4c0,4.55,1.77,7,5.25,7S227,201.21,227,196.81Z" fill="#fff"/><path d="M239.34,183.42h9v5.26c1.67-4,4.45-5.67,8.55-5.62v8.45c-5.51-.16-8.55,1.56-8.55,5.81v12.54h-9Z" fill="#fff"/><path d="M20.26,247.52v-.41c0-8.49,6.32-13.85,14.31-13.85,7.23,0,13.45,4.15,13.45,13.65v2.38H29.41c.26,3.48,2.28,5.51,5.51,5.51,3,0,4.25-1.37,4.6-3.14H48c-.81,6-5.41,9.35-13.4,9.35C26.33,261,20.26,256.16,20.26,247.52Zm19-3.34c-.15-3.18-1.72-5-4.65-5-2.73,0-4.6,1.77-5.06,5Z" fill="#fff"/><path d="M48,234h9.65l5.51,17,5.41-17h8.64l-9.65,26.44H57.67Z" fill="#fff"/><path d="M76.63,247.52v-.41c0-8.49,6.32-13.85,14.3-13.85,7.23,0,13.45,4.15,13.45,13.65v2.38H85.78c.25,3.48,2.27,5.51,5.51,5.51,3,0,4.24-1.37,4.6-3.14h8.49c-.81,6-5.41,9.35-13.4,9.35C82.69,261,76.63,256.16,76.63,247.52Zm19-3.34c-.15-3.18-1.72-5-4.65-5-2.73,0-4.6,1.77-5.05,5Z" fill="#fff"/><path d="M107.51,234h9v5.26c1.67-3.95,4.45-5.67,8.54-5.62v8.45c-5.51-.16-8.54,1.56-8.54,5.81v12.54h-9Z" fill="#fff"/><path d="M137.08,257.73,126.52,234h9.81l5.46,14.1,5.05-14.1h8.64l-14.15,35.28h-8.64Z" fill="#fff"/><path d="M155,247.52v-.41c0-8.49,6.32-13.85,14.51-13.85s14.4,5.21,14.4,13.6v.4c0,8.6-6.32,13.75-14.45,13.75S155,256.06,155,247.52Zm19.71-.16V247c0-4.45-1.77-6.93-5.2-6.93s-5.26,2.38-5.26,6.83v.4c0,4.55,1.77,7,5.26,7S174.69,251.76,174.69,247.36Z" fill="#fff"/><path d="M187.08,234h9v4.24a9.31,9.31,0,0,1,8.69-5c5.11,0,8.64,3.19,8.64,10v17.19h-9V245c0-3-1.17-4.45-3.79-4.45s-4.5,1.62-4.5,5v14.81h-9Z" fill="#fff"/><path d="M216.45,247.52v-.41c0-8.49,6.31-13.85,14.3-13.85,7.23,0,13.45,4.15,13.45,13.65v2.38H225.6c.25,3.48,2.27,5.51,5.51,5.51,3,0,4.24-1.37,4.6-3.14h8.49c-.81,6-5.41,9.35-13.4,9.35C222.51,261,216.45,256.16,216.45,247.52Zm19-3.34c-.15-3.18-1.72-5-4.65-5-2.73,0-4.6,1.77-5.05,5Z" fill="#fff"/><path d="M245.11,236.8l4-13.2,8,2.68-6.93,12.49Z" fill="#fff"/><path d="M254.11,252h8.34c.3,1.92,1.16,3,3.74,3,2.22,0,3.23-.86,3.23-2.18s-1.26-1.87-4.9-2.37c-7.08-.91-10.06-3-10.06-8.49,0-5.87,5.21-8.7,11.32-8.7,6.52,0,11.07,2.22,11.68,8.54h-8.19c-.35-1.77-1.31-2.63-3.39-2.63s-3,.86-3,2.08,1.22,1.77,4.45,2.17c7.33.91,10.87,2.83,10.87,8.49,0,6.27-4.65,9.1-12,9.1C258.71,261,254.31,257.88,254.11,252Z" fill="#fff"/><path d="M23,290.69H19.71v-6.17H23v-2.33c0-6.57,4.1-9.7,10.37-9.7a16.22,16.22,0,0,1,4.14.55v6.63a8,8,0,0,0-2.47-.36c-2.13,0-3,1.16-3,2.88v2.33H37.4v6.17H32V311H23Z" fill="#fff"/><path d="M38.41,303.63c0-6.22,5.26-8.65,14.05-8.65H55v-.6c0-2.53-.6-4.2-3.49-4.2a3.26,3.26,0,0,0-3.59,3.13H39.42c.41-6.37,5.41-9.5,12.64-9.5s11.93,3,11.93,10V311h-8.8v-3.09c-1.26,1.92-3.59,3.69-7.83,3.69C42.61,311.56,38.41,309.24,38.41,303.63ZM55,301.71v-1.62H52.62c-3.64,0-5.26.71-5.26,2.88,0,1.52,1,2.48,3.13,2.48C53.07,305.45,55,304,55,301.71Z" fill="#fff"/><path d="M65.35,284.52H75l5.51,17,5.41-17h8.64L84.92,311H75.06Z" fill="#fff"/><path d="M94,298.07v-.41c0-8.49,6.32-13.85,14.51-13.85s14.41,5.21,14.41,13.6v.4c0,8.6-6.32,13.75-14.46,13.75S94,306.61,94,298.07Zm19.72-.16v-.4c0-4.45-1.77-6.93-5.21-6.93s-5.25,2.38-5.25,6.83v.4c0,4.55,1.77,7,5.25,7S113.73,302.31,113.73,297.91Z" fill="#fff"/><path d="M126.11,284.52h9v5.26c1.67-3.95,4.45-5.67,8.55-5.62v8.45c-5.51-.15-8.55,1.56-8.55,5.81V311h-9Z" fill="#fff"/><path d="M146.79,277.34a4.72,4.72,0,0,1,5-4.7,4.69,4.69,0,1,1,0,9.35A4.68,4.68,0,0,1,146.79,277.34Zm.45,7.18h9V311h-9Z" fill="#fff"/><path d="M162.36,302.46V290.69h-3.19v-6.17h3.19V279h9v5.51h5.2v6.17h-5.2V301.6c0,1.93,1,2.78,2.68,2.78a6.89,6.89,0,0,0,2.57-.45v6.88a19.14,19.14,0,0,1-5,.75C165.69,311.56,162.36,308.68,162.36,302.46Z" fill="#fff"/><path d="M178.63,298.07v-.41c0-8.49,6.32-13.85,14.31-13.85,7.23,0,13.45,4.15,13.45,13.65v2.38H187.78c.26,3.48,2.28,5.51,5.51,5.51,3,0,4.25-1.37,4.6-3.14h8.5c-.81,6-5.41,9.35-13.4,9.35C184.7,311.56,178.63,306.71,178.63,298.07Zm19-3.34c-.15-3.19-1.72-5-4.65-5-2.73,0-4.6,1.76-5.05,5Z" fill="#fff"/><path d="M21.68,335.07h9.05V339A9.31,9.31,0,0,1,39,334.36c6.17,0,11.17,4.65,11.17,13.7v.4c0,9.1-5,13.65-11.22,13.65-4,0-6.88-1.87-8.19-4.5v12.74h-9Zm19.26,13.39v-.4c0-4.65-2-6.88-5.21-6.88s-5.25,2.38-5.25,6.83v.4c0,4.5,2,6.78,5.25,6.78S40.94,352.81,40.94,348.46Z" fill="#fff"/><path d="M53.42,335.07h9v5.26c1.67-3.95,4.45-5.67,8.55-5.62v8.45c-5.51-.16-8.55,1.56-8.55,5.81v12.54h-9Z" fill="#fff"/><path d="M74.1,327.89a4.72,4.72,0,0,1,5-4.7,4.69,4.69,0,1,1,0,9.35A4.68,4.68,0,0,1,74.1,327.89Zm.45,7.18h9v26.44h-9Z" fill="#fff"/><path d="M87,348.62v-.41c0-8.79,6.32-13.85,14.1-13.85,6.47,0,12.44,2.83,12.94,10.87h-8.49c-.4-2.48-1.62-3.84-4.24-3.84-3.19,0-5.06,2.27-5.06,6.72v.4c0,4.61,1.77,7,5.21,7,2.52,0,4.29-1.52,4.6-4.4h8.14c-.26,6.68-4.76,11-13.3,11C93.06,362.11,87,357.51,87,348.62Z" fill="#fff"/><path d="M115.75,348.62v-.41c0-8.49,6.32-13.85,14.31-13.85,7.23,0,13.44,4.15,13.44,13.65v2.38H124.9c.25,3.48,2.28,5.51,5.51,5.51,3,0,4.25-1.37,4.6-3.14h8.49c-.8,6-5.4,9.35-13.39,9.35C121.82,362.11,115.75,357.26,115.75,348.62Zm19-3.34c-.15-3.19-1.72-4.95-4.65-4.95-2.73,0-4.6,1.76-5.06,4.95Z" fill="#fff"/><path d="M146.44,342.5a5.07,5.07,0,0,1,5.15-5.11,5.11,5.11,0,1,1,0,10.22A5,5,0,0,1,146.44,342.5Zm0,14.46a5.07,5.07,0,0,1,5.15-5.11,5.11,5.11,0,1,1,0,10.21A5.06,5.06,0,0,1,146.44,357Z" fill="#fff"/><path d="M23,391.79H19.71v-6.17H23v-2.33c0-6.57,4.1-9.7,10.37-9.7a16.22,16.22,0,0,1,4.14.55v6.63a8,8,0,0,0-2.47-.36c-2.13,0-3,1.16-3,2.88v2.33H37.4v6.17H32v20.27H23Z" fill="#fff"/><path d="M40.43,385.62h9v5.26c1.67-3.95,4.45-5.67,8.54-5.62v8.45c-5.51-.16-8.54,1.56-8.54,5.81v12.54h-9Z" fill="#fff"/><path d="M59.64,399.17v-.41c0-8.49,6.32-13.85,14.31-13.85,7.23,0,13.45,4.15,13.45,13.65v2.38H68.79c.25,3.48,2.28,5.51,5.51,5.51,3,0,4.25-1.37,4.6-3.14h8.5c-.81,6-5.41,9.35-13.4,9.35C65.71,412.66,59.64,407.81,59.64,399.17Zm19-3.34c-.15-3.19-1.72-4.95-4.65-4.95-2.73,0-4.6,1.76-5.06,4.95Z" fill="#fff"/><path d="M89.11,399.17v-.41c0-8.49,6.32-13.85,14.31-13.85,7.23,0,13.45,4.15,13.45,13.65v2.38H98.26c.25,3.48,2.28,5.51,5.51,5.51,3,0,4.25-1.37,4.6-3.14h8.5c-.81,6-5.41,9.35-13.4,9.35C95.18,412.66,89.11,407.81,89.11,399.17Zm19-3.34c-.15-3.19-1.72-4.95-4.65-4.95-2.73,0-4.6,1.76-5.06,4.95Z" fill="#fff"/><path d="M119.39,407.51a5,5,0,0,1,5.16-5.11,5.11,5.11,0,1,1,0,10.21A5,5,0,0,1,119.39,407.51Z" fill="#fff"/></g></g></g></svg>