<svg xmlns="http://www.w3.org/2000/svg" viewBox="0 0 300 600"><title>Asset 3</title><g id="Layer_2" data-name="Layer 2"><g id="Rect"><rect width="300" height="600" fill="none"/></g><g id="File_for_everyone_s_favorite_price:_free." data-name="File for everyone’s favorite price: free."><path d="M22.49,144.19H46.9v8h-14v7.69H44.07v7.63H32.9v12.79H22.49Z" fill="#fff"/><path d="M49.48,146.71a5,5,0,1,1,5,4.65A4.72,4.72,0,0,1,49.48,146.71Zm.46,7.18H59v26.44H49.94Z" fill="#fff"/><path d="M64.09,142.27h9v38.06h-9Z" fill="#fff"/><path d="M76.53,167.44V167c0-8.5,6.31-13.86,14.3-13.86,7.23,0,13.45,4.15,13.45,13.65v2.38H85.68c.25,3.49,2.27,5.51,5.51,5.51,3,0,4.24-1.37,4.6-3.13h8.49c-.81,6-5.41,9.35-13.4,9.35C82.59,180.94,76.53,176.08,76.53,167.44Zm19-3.34c-.15-3.18-1.72-4.95-4.65-4.95-2.73,0-4.6,1.77-5,4.95Z" fill="#fff"/><path d="M118,160.06h-3.34v-6.17H118v-2.32c0-6.57,4.09-9.71,10.36-9.71a15.75,15.75,0,0,1,4.14.56V149a8.31,8.31,0,0,0-2.47-.35c-2.13,0-3,1.16-3,2.88v2.32h5.36v6.17H127v20.27h-9Z" fill="#fff"/><path d="M133,167.44V167c0-8.5,6.32-13.86,14.51-13.86S162,158.39,162,166.78v.41c0,8.59-6.32,13.75-14.46,13.75S133,176,133,167.44Zm19.71-.15v-.41c0-4.44-1.76-6.92-5.2-6.92s-5.26,2.37-5.26,6.82v.41c0,4.55,1.77,7,5.26,7S152.75,171.69,152.75,167.29Z" fill="#fff"/><path d="M165.14,153.89h9.05v5.26c1.67-3.94,4.45-5.66,8.54-5.61V162c-5.51-.15-8.54,1.57-8.54,5.81v12.54h-9.05Z" fill="#fff"/><path d="M20.26,218v-.4c0-8.5,6.32-13.86,14.31-13.86,7.23,0,13.45,4.15,13.45,13.65v2.38H29.41c.26,3.49,2.28,5.51,5.51,5.51,3,0,4.25-1.36,4.6-3.13H48c-.81,6-5.41,9.35-13.4,9.35C26.33,231.49,20.26,226.63,20.26,218Zm19-3.34c-.15-3.18-1.72-5-4.65-5-2.73,0-4.6,1.77-5.06,5Z" fill="#fff"/><path d="M48,204.44h9.65l5.51,17,5.41-17h8.64l-9.65,26.44H57.67Z" fill="#fff"/><path d="M76.63,218v-.4c0-8.5,6.32-13.86,14.3-13.86,7.23,0,13.45,4.15,13.45,13.65v2.38H85.78c.25,3.49,2.27,5.51,5.51,5.51,3,0,4.24-1.36,4.6-3.13h8.49c-.81,6-5.41,9.35-13.4,9.35C82.69,231.49,76.63,226.63,76.63,218Zm19-3.34c-.15-3.18-1.72-5-4.65-5-2.73,0-4.6,1.77-5.05,5Z" fill="#fff"/><path d="M107.51,204.44h9v5.26c1.67-3.94,4.45-5.66,8.54-5.61v8.44c-5.51-.15-8.54,1.57-8.54,5.81v12.54h-9Z" fill="#fff"/><path d="M137.08,228.2l-10.56-23.76h9.81l5.46,14.11,5.05-14.11h8.64l-14.15,35.29h-8.64Z" fill="#fff"/><path d="M155,218v-.4c0-8.5,6.32-13.86,14.51-13.86s14.4,5.21,14.4,13.6v.41c0,8.59-6.32,13.75-14.45,13.75S155,226.53,155,218Zm19.71-.15v-.41c0-4.44-1.77-6.92-5.2-6.92s-5.26,2.37-5.26,6.82v.41c0,4.55,1.77,7,5.26,7S174.69,222.24,174.69,217.84Z" fill="#fff"/><path d="M187.08,204.44h9v4.25a9.35,9.35,0,0,1,8.7-5c5.11,0,8.64,3.19,8.64,10v17.19h-9V215.51c0-3-1.17-4.45-3.8-4.45s-4.5,1.62-4.5,5v14.81h-9Z" fill="#fff"/><path d="M216.45,218v-.4c0-8.5,6.31-13.86,14.3-13.86,7.23,0,13.45,4.15,13.45,13.65v2.38H225.6c.25,3.49,2.27,5.51,5.51,5.51,3,0,4.24-1.36,4.6-3.13h8.49c-.81,6-5.41,9.35-13.4,9.35C222.51,231.49,216.45,226.63,216.45,218Zm19-3.34c-.15-3.18-1.72-5-4.65-5-2.73,0-4.6,1.77-5.05,5Z" fill="#fff"/><path d="M245.11,207.27l4-13.19,8,2.68-6.93,12.48Z" fill="#fff"/><path d="M254.11,222.49h8.34c.3,1.92,1.16,3,3.74,3,2.22,0,3.23-.86,3.23-2.17s-1.26-1.87-4.9-2.38c-7.08-.91-10.06-3-10.06-8.49,0-5.86,5.21-8.7,11.32-8.7,6.52,0,11.07,2.23,11.68,8.55h-8.19c-.35-1.77-1.31-2.63-3.39-2.63s-3,.86-3,2.07,1.22,1.77,4.45,2.18c7.33.91,10.87,2.83,10.87,8.49,0,6.27-4.65,9.1-12,9.1C258.71,231.49,254.31,228.35,254.11,222.49Z" fill="#fff"/><path d="M23,261.16H19.71V255H23v-2.32c0-6.57,4.1-9.71,10.37-9.71a15.75,15.75,0,0,1,4.14.56v6.62a8.31,8.31,0,0,0-2.47-.35c-2.13,0-3,1.16-3,2.88V255H37.4v6.17H32v20.27H23Z" fill="#fff"/><path d="M38.41,274.1c0-6.22,5.26-8.64,14.05-8.64H55v-.61c0-2.53-.6-4.2-3.49-4.2a3.26,3.26,0,0,0-3.59,3.14H39.42c.41-6.37,5.41-9.51,12.64-9.51s11.93,3,11.93,10v17.14h-8.8v-3.08c-1.26,1.92-3.59,3.69-7.83,3.69C42.61,282,38.41,279.71,38.41,274.1ZM55,272.18v-1.62H52.62c-3.64,0-5.26.71-5.26,2.88,0,1.52,1,2.48,3.13,2.48C53.07,275.92,55,274.46,55,272.18Z" fill="#fff"/><path d="M65.35,255H75l5.51,17,5.41-17h8.64l-9.65,26.44H75.06Z" fill="#fff"/><path d="M94,268.54v-.4c0-8.5,6.32-13.86,14.51-13.86s14.41,5.21,14.41,13.6v.41c0,8.59-6.32,13.75-14.46,13.75S94,277.08,94,268.54Zm19.72-.15V268c0-4.44-1.77-6.92-5.21-6.92s-5.25,2.37-5.25,6.82v.41c0,4.55,1.77,7,5.25,7S113.73,272.79,113.73,268.39Z" fill="#fff"/><path d="M126.11,255h9v5.26c1.67-3.94,4.45-5.66,8.55-5.61v8.44c-5.51-.15-8.55,1.57-8.55,5.81v12.54h-9Z" fill="#fff"/><path d="M146.79,247.81a4.72,4.72,0,0,1,5-4.7,4.69,4.69,0,1,1,0,9.35A4.68,4.68,0,0,1,146.79,247.81Zm.45,7.18h9v26.44h-9Z" fill="#fff"/><path d="M162.36,272.94V261.16h-3.19V255h3.19v-5.51h9V255h5.2v6.17h-5.2v10.92c0,1.92,1,2.78,2.68,2.78a6.69,6.69,0,0,0,2.57-.46v6.88a19.08,19.08,0,0,1-5,.76C165.69,282,162.36,279.16,162.36,272.94Z" fill="#fff"/><path d="M178.63,268.54v-.4c0-8.5,6.32-13.86,14.31-13.86,7.23,0,13.45,4.15,13.45,13.65v2.38H187.78c.26,3.49,2.28,5.51,5.51,5.51,3,0,4.25-1.36,4.6-3.13h8.5c-.81,6-5.41,9.35-13.4,9.35C184.7,282,178.63,277.19,178.63,268.54Zm19-3.34c-.15-3.18-1.72-4.95-4.65-4.95-2.73,0-4.6,1.77-5.05,4.95Z" fill="#fff"/><path d="M21.68,305.54h9.05v3.95A9.32,9.32,0,0,1,39,304.83c6.17,0,11.17,4.66,11.17,13.7v.41c0,9.1-5,13.65-11.22,13.65-4,0-6.88-1.87-8.19-4.5v12.74h-9Zm19.26,13.4v-.41c0-4.65-2-6.87-5.21-6.87s-5.25,2.38-5.25,6.82v.41c0,4.5,2,6.77,5.25,6.77S40.94,323.29,40.94,318.94Z" fill="#fff"/><path d="M53.42,305.54h9v5.26c1.67-3.94,4.45-5.66,8.55-5.61v8.44c-5.51-.15-8.55,1.57-8.55,5.81V332h-9Z" fill="#fff"/><path d="M74.1,298.36a4.72,4.72,0,0,1,5-4.7,4.69,4.69,0,1,1,0,9.35A4.68,4.68,0,0,1,74.1,298.36Zm.45,7.18h9V332h-9Z" fill="#fff"/><path d="M87,319.09v-.4c0-8.8,6.32-13.86,14.1-13.86,6.47,0,12.44,2.84,12.94,10.87h-8.49c-.4-2.47-1.62-3.84-4.24-3.84-3.19,0-5.06,2.28-5.06,6.72V319c0,4.6,1.77,7,5.21,7,2.52,0,4.29-1.52,4.6-4.4h8.14c-.26,6.67-4.76,11-13.3,11C93.06,332.59,87,328,87,319.09Z" fill="#fff"/><path d="M115.75,319.09v-.4c0-8.5,6.32-13.86,14.31-13.86,7.23,0,13.44,4.15,13.44,13.65v2.38H124.9c.25,3.49,2.28,5.51,5.51,5.51,3,0,4.25-1.37,4.6-3.13h8.49c-.8,6-5.4,9.35-13.39,9.35C121.82,332.59,115.75,327.73,115.75,319.09Zm19-3.34c-.15-3.18-1.72-4.95-4.65-4.95-2.73,0-4.6,1.77-5.06,4.95Z" fill="#fff"/><path d="M146.44,313a5.06,5.06,0,0,1,5.15-5.1,5.11,5.11,0,1,1,0,10.21A5,5,0,0,1,146.44,313Zm0,14.46a5.06,5.06,0,0,1,5.15-5.1,5.11,5.11,0,1,1,0,10.21A5.07,5.07,0,0,1,146.44,327.43Z" fill="#fff"/><path d="M171.86,311.71h-3.34v-6.17h3.34v-2.32c0-6.57,4.1-9.71,10.36-9.71a15.84,15.84,0,0,1,4.15.56v6.62a8.44,8.44,0,0,0-2.48-.35c-2.12,0-3,1.16-3,2.88v2.32h5.36v6.17h-5.36V332h-9Z" fill="#fff"/><path d="M189.25,305.54h9.05v5.26c1.67-3.94,4.45-5.66,8.54-5.61v8.44c-5.51-.15-8.54,1.57-8.54,5.81V332h-9.05Z" fill="#fff"/><path d="M208.46,319.09v-.4c0-8.5,6.32-13.86,14.3-13.86,7.23,0,13.45,4.15,13.45,13.65v2.38h-18.6c.25,3.49,2.27,5.51,5.51,5.51,3,0,4.25-1.37,4.6-3.13h8.49c-.81,6-5.41,9.35-13.39,9.35C214.52,332.59,208.46,327.73,208.46,319.09Zm19-3.34c-.16-3.18-1.72-4.95-4.66-4.95-2.72,0-4.6,1.77-5,4.95Z" fill="#fff"/><path d="M237.93,319.09v-.4c0-8.5,6.32-13.86,14.31-13.86,7.22,0,13.44,4.15,13.44,13.65v2.38h-18.6c.25,3.49,2.27,5.51,5.51,5.51,3,0,4.24-1.37,4.6-3.13h8.49c-.81,6-5.41,9.35-13.39,9.35C244,332.59,237.93,327.73,237.93,319.09Zm19-3.34c-.16-3.18-1.72-4.95-4.65-4.95-2.74,0-4.61,1.77-5.06,4.95Z" fill="#fff"/><path d="M268.21,327.43a5,5,0,0,1,5.15-5.1,5.11,5.11,0,1,1,0,10.21A5,5,0,0,1,268.21,327.43Z" fill="#fff"/></g></g></svg>