<svg xmlns="http://www.w3.org/2000/svg" viewBox="0 0 1456 180"><title>Asset 1</title><rect width="1456" height="180" fill="none"/><path d="M244.42,30.84H276V41H257.47v7.87h14.78v9.35H257.47v8.32h19.58V76.6H244.42Z" fill="#fff"/><path d="M279.68,67.32c0-7.87,6.66-10.94,17.79-10.94h3.2v-.77c0-3.2-.77-5.31-4.42-5.31-3.13,0-4.28,1.85-4.54,4H281c.51-8.06,6.85-12,16-12s15.1,3.78,15.1,12.67V76.6H300.93V72.69c-1.6,2.44-4.55,4.68-9.92,4.68C285,77.37,279.68,74.42,279.68,67.32Zm21-2.43v-2h-3c-4.61,0-6.65.89-6.65,3.65,0,1.92,1.28,3.13,4,3.13C298.24,69.62,300.67,67.77,300.67,64.89Z" fill="#fff"/><path d="M315.39,66H326c.38,2.44,1.47,3.78,4.74,3.78,2.81,0,4.09-1.09,4.09-2.75s-1.6-2.37-6.21-3c-9-1.15-12.73-3.78-12.73-10.75,0-7.42,6.59-11,14.33-11,8.26,0,14,2.82,14.79,10.82H334.59c-.45-2.24-1.66-3.33-4.29-3.33s-3.77,1.09-3.77,2.62,1.53,2.24,5.63,2.76c9.28,1.15,13.76,3.58,13.76,10.75,0,7.93-5.89,11.52-15.17,11.52C321.21,77.37,315.65,73.4,315.39,66Z" fill="#fff"/><path d="M359,73.21,345.66,43.13h12.42L365,61l6.4-17.85h10.94L364.41,87.8H353.47Z" fill="#fff"/><path d="M395.26,60.21V59.7c0-11.39,6.27-17.47,14.21-17.47,5.25,0,8.38,2.24,10.3,5.63V28.41h11.46V76.6H419.77V71.16a11.28,11.28,0,0,1-10.43,6.21C401.6,77.37,395.26,71.8,395.26,60.21ZM420.09,60v-.51c0-5.63-2.37-8.64-6.59-8.64s-6.59,2.88-6.59,8.7v.52c0,5.63,2.5,8.51,6.46,8.51C417.53,68.6,420.09,65.72,420.09,60Z" fill="#fff"/><path d="M435.26,60.28v-.51c0-10.75,8-17.54,18.37-17.54s18.24,6.59,18.24,17.22V60c0,10.88-8,17.41-18.31,17.41S435.26,71.09,435.26,60.28Zm25-.19v-.52c0-5.63-2.24-8.76-6.59-8.76s-6.66,3-6.66,8.64V60c0,5.76,2.24,8.89,6.66,8.89S460.22,65.65,460.22,60.09Z" fill="#fff"/><path d="M474.11,60.28v-.51c0-10.75,8-17.54,18.11-17.54,9.15,0,17,5.25,17,17.28v3H485.69c.32,4.41,2.88,7,7,7,3.77,0,5.37-1.72,5.82-4h10.75c-1,7.55-6.84,11.84-17,11.84C481.79,77.37,474.11,71.22,474.11,60.28Zm24-4.22c-.19-4-2.18-6.28-5.89-6.28-3.46,0-5.82,2.24-6.4,6.28Z" fill="#fff"/><path d="M511.29,66h10.56c.39,2.44,1.47,3.78,4.74,3.78,2.81,0,4.09-1.09,4.09-2.75s-1.6-2.37-6.2-3c-9-1.15-12.74-3.78-12.74-10.75,0-7.42,6.59-11,14.34-11,8.25,0,14,2.82,14.78,10.82H530.49c-.45-2.24-1.66-3.33-4.29-3.33s-3.77,1.09-3.77,2.62,1.53,2.24,5.63,2.76c9.28,1.15,13.76,3.58,13.76,10.75,0,7.93-5.89,11.52-15.17,11.52C517.12,77.37,511.55,73.4,511.29,66Z" fill="#fff"/><path d="M556.92,34a6.32,6.32,0,0,1,12.61,0c0,3.39-2.75,5.89-6.34,5.89A5.93,5.93,0,0,1,556.92,34Zm.58,9.09H569V76.6H557.5Z" fill="#fff"/><path d="M576.64,65.85V50.94h-4V43.13h4v-7h11.45v7h6.59v7.81h-6.59V64.76c0,2.43,1.22,3.52,3.39,3.52a8.66,8.66,0,0,0,3.27-.58v8.71a24.28,24.28,0,0,1-6.34,1C580.86,77.37,576.64,73.72,576.64,65.85Z" fill="#fff"/><path d="M598.59,70.84a6.38,6.38,0,0,1,6.52-6.47,6.47,6.47,0,1,1,0,12.93A6.38,6.38,0,0,1,598.59,70.84Z" fill="#fff"/><path d="M626.94,62.07h12.48c.32,3.26,1.79,5.95,7.23,5.95,3.77,0,5.89-1.85,5.89-4.54s-1.73-3.58-7.24-4.42C632.38,57.53,628,53.69,628,44.47c0-8.25,6.78-14.27,17.72-14.27s17.22,4.61,18,14.27H651.64c-.45-3.26-2.3-4.93-5.89-4.93s-5.31,1.6-5.31,3.91c0,2.56,1.41,3.71,7.1,4.48,11.59,1.28,17.54,4.29,17.54,14.2,0,8.39-6.66,15.24-18.43,15.24C633.85,77.37,627.32,72,626.94,62.07Z" fill="#fff"/><path d="M666,43.13h12l4.86,20,5.63-20h9.22l5,20,5.44-20H719L708.41,76.6H697.46l-5-18.69L687.29,76.6H676.15Z" fill="#fff"/><path d="M721.72,34a6.32,6.32,0,0,1,12.61,0c0,3.39-2.75,5.89-6.34,5.89A5.93,5.93,0,0,1,721.72,34Zm.58,9.09h11.45V76.6H722.3Z" fill="#fff"/><path d="M741.43,65.85V50.94h-4V43.13h4v-7h11.46v7h6.59v7.81h-6.59V64.76c0,2.43,1.21,3.52,3.39,3.52a8.57,8.57,0,0,0,3.26-.58v8.71a24.12,24.12,0,0,1-6.33,1C745.66,77.37,741.43,73.72,741.43,65.85Z" fill="#fff"/><path d="M762,60.28v-.51c0-11.14,8-17.54,17.85-17.54,8.2,0,15.75,3.59,16.39,13.76H785.53c-.52-3.13-2-4.86-5.38-4.86-4,0-6.4,2.88-6.4,8.51v.51C773.75,66,776,69,780.34,69c3.2,0,5.44-1.92,5.83-5.57h10.3c-.32,8.45-6,14-16.83,14C769.66,77.37,762,71.54,762,60.28Z" fill="#fff"/><path d="M800.18,28.41h11.46V48.5c1.79-3.45,5.44-6.27,11-6.27,6.46,0,10.94,4,10.94,12.61V76.6H822.13V57.14c0-3.77-1.47-5.63-4.8-5.63s-5.69,2.05-5.69,6.34V76.6H800.18Z" fill="#fff"/><path d="M852.34,65.85V50.94h-4V43.13h4v-7H863.8v7h6.59v7.81H863.8V64.76c0,2.43,1.21,3.52,3.39,3.52a8.57,8.57,0,0,0,3.26-.58v8.71a24.12,24.12,0,0,1-6.33,1C856.57,77.37,852.34,73.72,852.34,65.85Z" fill="#fff"/><path d="M873,60.28v-.51c0-10.75,8-17.54,18.37-17.54s18.24,6.59,18.24,17.22V60c0,10.88-8,17.41-18.31,17.41S873,71.09,873,60.28Zm25-.19v-.52c0-5.63-2.24-8.76-6.59-8.76s-6.66,3-6.66,8.64V60c0,5.76,2.24,8.89,6.66,8.89S897.91,65.65,897.91,60.09Z" fill="#fff"/><path d="M926.26,30.84h20.42c10.81,0,15.42,4.86,15.42,12v.25c0,5.12-2.63,8.52-7.74,9.86,5.63,1,9.15,4.35,9.15,10.69v.25c0,8.19-5.31,12.74-16.64,12.74H926.26ZM944.05,49c4.1,0,5.63-1.41,5.63-4.68v-.25c0-3.14-1.66-4.55-5.63-4.55h-5V49Zm.45,18.81c4.16,0,6.08-1.92,6.08-5.31v-.26c0-3.45-1.86-5.24-6.46-5.24h-5.06V67.83Z" fill="#fff"/><path d="M968.05,28.41h11.39V76.6H968.05Z" fill="#fff"/><path d="M983.8,60.28v-.51c0-10.75,8-17.54,18.36-17.54s18.24,6.59,18.24,17.22V60c0,10.88-8,17.41-18.3,17.41S983.8,71.09,983.8,60.28Zm25-.19v-.52c0-5.63-2.24-8.76-6.59-8.76s-6.65,3-6.65,8.64V60c0,5.76,2.24,8.89,6.65,8.89S1008.75,65.65,1008.75,60.09Z" fill="#fff"/><path d="M1022.64,60.28v-.51c0-11.14,8-17.54,17.86-17.54,8.19,0,15.74,3.59,16.38,13.76h-10.75c-.51-3.13-2.05-4.86-5.38-4.86-4,0-6.39,2.88-6.39,8.51v.51c0,5.82,2.23,8.83,6.59,8.83,3.2,0,5.44-1.92,5.82-5.57h10.3c-.32,8.45-6,14-16.83,14C1030.26,77.37,1022.64,71.54,1022.64,60.28Z" fill="#fff"/><path d="M1060.79,28.41h11.45v28l9-13.25h11.9l-10.94,15,11.83,18.43h-12.79l-9-14.66V76.6h-11.45Z" fill="#fff"/><path d="M243.14,102a6.31,6.31,0,0,1,12.6,0c0,3.39-2.75,5.89-6.33,5.89A5.93,5.93,0,0,1,243.14,102Zm.57,9.09h11.46V144.6H243.71Z" fill="#fff"/><path d="M261.31,111.13h11.46v5.37c1.79-3.45,5.44-6.27,11-6.27,6.47,0,11,4,11,12.61V144.6H283.26V125.14c0-3.77-1.47-5.63-4.8-5.63s-5.69,2-5.69,6.34V144.6H261.31Z" fill="#fff"/><path d="M310,135.32c0-7.87,6.66-10.94,17.8-10.94H331v-.77c0-3.2-.77-5.31-4.42-5.31-3.14,0-4.29,1.85-4.54,4H311.29c.52-8.06,6.85-12,16-12S342.4,114,342.4,122.9v21.7H331.26v-3.91c-1.6,2.44-4.54,4.68-9.92,4.68C315.33,145.37,310,142.42,310,135.32Zm21-2.43v-2h-3c-4.61,0-6.66.89-6.66,3.65,0,1.92,1.28,3.13,4,3.13C328.57,137.62,331,135.77,331,132.89Z" fill="#fff"/><path d="M345.73,134h10.56c.38,2.44,1.47,3.78,4.73,3.78,2.82,0,4.1-1.09,4.1-2.75s-1.6-2.37-6.21-3c-9-1.15-12.74-3.78-12.74-10.75,0-7.42,6.6-11,14.34-11,8.25,0,14,2.82,14.78,10.82H364.92c-.44-2.24-1.66-3.33-4.28-3.33s-3.78,1.09-3.78,2.62,1.54,2.24,5.63,2.76c9.28,1.15,13.76,3.58,13.76,10.75,0,7.93-5.89,11.52-15.17,11.52C351.55,145.37,346,141.4,345.73,134Z" fill="#fff"/><path d="M391.93,96.41h11.39V144.6H391.93Z" fill="#fff"/><path d="M409.21,102a6.32,6.32,0,0,1,12.61,0c0,3.39-2.75,5.89-6.34,5.89A5.93,5.93,0,0,1,409.21,102Zm.58,9.09h11.45V144.6H409.79Z" fill="#fff"/><path d="M428.92,133.85V118.94h-4v-7.81h4v-7h11.46v7H447v7.81h-6.59v13.82c0,2.43,1.22,3.52,3.39,3.52a8.66,8.66,0,0,0,3.27-.58v8.71a24.28,24.28,0,0,1-6.34,1C433.15,145.37,428.92,141.72,428.92,133.85Z" fill="#fff"/><path d="M452.86,133.85V118.94h-4v-7.81h4v-7h11.45v7h6.6v7.81h-6.6v13.82c0,2.43,1.22,3.52,3.4,3.52a8.57,8.57,0,0,0,3.26-.58v8.71a24.21,24.21,0,0,1-6.34,1C457.08,145.37,452.86,141.72,452.86,133.85Z" fill="#fff"/><path d="M475.58,96.41H487V144.6H475.58Z" fill="#fff"/><path d="M491.32,128.28v-.51c0-10.75,8-17.54,18.11-17.54,9.15,0,17,5.25,17,17.28v3H502.91c.32,4.41,2.88,7,7,7,3.78,0,5.38-1.72,5.83-4h10.75c-1,7.55-6.85,11.84-17,11.84C499,145.37,491.32,139.22,491.32,128.28Zm24-4.23c-.19-4-2.17-6.27-5.89-6.27-3.45,0-5.82,2.24-6.4,6.27Z" fill="#fff"/><path d="M540.15,135.32c0-7.87,6.66-10.94,17.79-10.94h3.2v-.77c0-3.2-.76-5.31-4.41-5.31-3.14,0-4.29,1.85-4.54,4H541.43c.52-8.06,6.85-12,16-12s15.11,3.78,15.11,12.67v21.7H561.4v-3.91c-1.6,2.44-4.54,4.68-9.92,4.68C545.47,145.37,540.15,142.42,540.15,135.32Zm21-2.43v-2h-3c-4.61,0-6.66.89-6.66,3.65,0,1.92,1.28,3.13,4,3.13C558.71,137.62,561.14,135.77,561.14,132.89Z" fill="#fff"/><path d="M575.87,134h10.55c.39,2.44,1.48,3.78,4.74,3.78,2.82,0,4.1-1.09,4.1-2.75s-1.6-2.37-6.21-3c-9-1.15-12.74-3.78-12.74-10.75,0-7.42,6.59-11,14.34-11,8.25,0,14,2.82,14.78,10.82H595.06c-.44-2.24-1.66-3.33-4.28-3.33s-3.78,1.09-3.78,2.62,1.54,2.24,5.63,2.76c9.28,1.15,13.76,3.58,13.76,10.75,0,7.93-5.89,11.52-15.17,11.52C581.69,145.37,576.12,141.4,575.87,134Z" fill="#fff"/><path d="M623.29,133.85V118.94h-4v-7.81h4v-7h11.45v7h6.59v7.81h-6.59v13.82c0,2.43,1.22,3.52,3.4,3.52a8.57,8.57,0,0,0,3.26-.58v8.71a24.21,24.21,0,0,1-6.34,1C627.51,145.37,623.29,141.72,623.29,133.85Z" fill="#fff"/><path d="M642.87,111.13h12l4.86,20,5.63-20h9.22l5,20,5.44-20h10.88L685.24,144.6h-11l-5-18.69-5.18,18.69H653Z" fill="#fff"/><path d="M695.54,128.28v-.51c0-10.75,8-17.54,18.37-17.54s18.24,6.59,18.24,17.22V128c0,10.88-8,17.41-18.3,17.41S695.54,139.09,695.54,128.28Zm25-.19v-.51c0-5.64-2.24-8.77-6.59-8.77s-6.66,3-6.66,8.64V128c0,5.76,2.24,8.89,6.66,8.89S720.5,133.65,720.5,128.09Z" fill="#fff"/><path d="M746,128.28v-.51c0-11.14,8-17.54,17.85-17.54,8.19,0,15.75,3.59,16.39,13.76H769.52c-.51-3.13-2-4.86-5.37-4.86-4,0-6.4,2.88-6.4,8.51v.51c0,5.82,2.24,8.83,6.59,8.83,3.2,0,5.44-1.92,5.83-5.56h10.3c-.32,8.44-6,14-16.83,14C753.65,145.37,746,139.54,746,128.28Z" fill="#fff"/><path d="M784.5,96.41h11.39V144.6H784.5Z" fill="#fff"/><path d="M801.78,102a6.32,6.32,0,0,1,12.61,0c0,3.39-2.75,5.89-6.34,5.89A5.93,5.93,0,0,1,801.78,102Zm.58,9.09h11.45V144.6H802.36Z" fill="#fff"/><path d="M818.17,128.28v-.51c0-11.14,8-17.54,17.85-17.54,8.19,0,15.74,3.59,16.38,13.76H841.65c-.51-3.13-2-4.86-5.37-4.86-4,0-6.4,2.88-6.4,8.51v.51c0,5.82,2.24,8.83,6.59,8.83,3.2,0,5.44-1.92,5.82-5.56h10.3c-.32,8.44-6,14-16.83,14C825.78,145.37,818.17,139.54,818.17,128.28Z" fill="#fff"/><path d="M856.31,96.41h11.45v28l9-13.25h11.9l-10.94,15,11.84,18.43h-12.8l-9-14.66V144.6H856.31Z" fill="#fff"/><path d="M889.21,134h10.55c.39,2.44,1.48,3.78,4.74,3.78,2.82,0,4.1-1.09,4.1-2.75s-1.6-2.37-6.21-3c-9-1.15-12.74-3.78-12.74-10.75,0-7.42,6.6-11,14.34-11,8.25,0,14,2.82,14.78,10.82H908.4c-.44-2.24-1.66-3.33-4.28-3.33s-3.78,1.09-3.78,2.62,1.54,2.24,5.63,2.76c9.28,1.15,13.76,3.58,13.76,10.75,0,7.93-5.89,11.52-15.17,11.52C895,145.37,889.46,141.4,889.21,134Z" fill="#fff"/><path d="M923,138.84a6.37,6.37,0,0,1,6.53-6.46,6.46,6.46,0,1,1,0,12.92A6.38,6.38,0,0,1,923,138.84Z" fill="#fff"/></svg>