<svg xmlns="http://www.w3.org/2000/svg" viewBox="0 0 728 90"><title>H21</title><g id="Layer_2" data-name="Layer 2"><g id="Rect"><rect width="728" height="90" fill="none"/></g><g id="H21"><g id="Easy_does_it._Switch_to_Block_in_as_little_as_two_clicks." data-name="Easy does it. Switch to Block  in as little as two clicks."><path d="M122.21,15.42H138v5.06h-9.27v3.93h7.39v4.67h-7.39v4.16h9.79V38.3H122.21Z" fill="#fff"/><path d="M139.84,33.66c0-3.94,3.33-5.47,8.9-5.47h1.59V27.8c0-1.6-.38-2.65-2.2-2.65a2,2,0,0,0-2.27,2h-5.38c.26-4,3.42-6,8-6S156,23,156,27.45V38.3h-5.57V36.35a5.5,5.5,0,0,1-5,2.33C142.5,38.68,139.84,37.21,139.84,33.66Zm10.49-1.22v-1h-1.5c-2.3,0-3.33.45-3.33,1.82,0,1,.64,1.57,2,1.57C149.12,34.81,150.33,33.88,150.33,32.44Z" fill="#fff"/><path d="M157.7,33H163c.19,1.21.73,1.89,2.36,1.89,1.41,0,2-.55,2-1.38s-.8-1.18-3.1-1.5c-4.48-.58-6.37-1.89-6.37-5.38,0-3.71,3.3-5.5,7.17-5.5,4.12,0,7,1.4,7.39,5.4h-5.19a1.86,1.86,0,0,0-2.14-1.66c-1.25,0-1.89.54-1.89,1.31s.77,1.12,2.82,1.38c4.64.57,6.88,1.79,6.88,5.37,0,4-3,5.76-7.58,5.76S157.82,36.7,157.7,33Z" fill="#fff"/><path d="M179.52,36.6l-6.69-15H179l3.46,8.93,3.19-8.93h5.48l-9,22.34h-5.47Z" fill="#fff"/><path d="M197.63,30.11v-.26c0-5.69,3.14-8.73,7.1-8.73a5.44,5.44,0,0,1,5.16,2.81V14.2h5.72V38.3h-5.72V35.58a5.65,5.65,0,0,1-5.22,3.1C200.8,38.68,197.63,35.9,197.63,30.11Zm12.42-.1v-.25c0-2.82-1.19-4.32-3.3-4.32s-3.3,1.44-3.3,4.35V30c0,2.82,1.25,4.26,3.24,4.26S210.05,32.86,210.05,30Z" fill="#fff"/><path d="M217.63,30.14v-.26c0-5.37,4-8.76,9.18-8.76s9.12,3.29,9.12,8.6V30c0,5.44-4,8.7-9.15,8.7S217.63,35.55,217.63,30.14Zm12.48-.1v-.25c0-2.82-1.12-4.39-3.3-4.39s-3.32,1.51-3.32,4.32V30c0,2.88,1.12,4.45,3.32,4.45S230.11,32.83,230.11,30Z" fill="#fff"/><path d="M237.05,30.14v-.26c0-5.37,4-8.76,9.06-8.76,4.58,0,8.51,2.62,8.51,8.64v1.5H242.85c.16,2.21,1.44,3.49,3.48,3.49,1.89,0,2.69-.87,2.92-2h5.37c-.51,3.78-3.42,5.92-8.48,5.92C240.89,38.68,237.05,35.61,237.05,30.14Zm12-2.11c-.09-2-1.08-3.14-2.94-3.14S243.2,26,242.91,28Z" fill="#fff"/><path d="M255.65,33h5.28c.19,1.21.73,1.89,2.36,1.89,1.41,0,2-.55,2-1.38s-.8-1.18-3.1-1.5c-4.48-.58-6.37-1.89-6.37-5.38,0-3.71,3.3-5.5,7.17-5.5,4.13,0,7,1.4,7.39,5.4h-5.18a1.88,1.88,0,0,0-2.15-1.66c-1.25,0-1.89.54-1.89,1.31s.77,1.12,2.82,1.38c4.64.57,6.88,1.79,6.88,5.37,0,4-2.94,5.76-7.58,5.76S255.77,36.7,255.65,33Z" fill="#fff"/><path d="M278.46,17A3.16,3.16,0,1,1,281.6,20,3,3,0,0,1,278.46,17Zm.29,4.54h5.73V38.3h-5.73Z" fill="#fff"/><path d="M288.32,32.92V25.47h-2V21.56h2V18.08h5.73v3.48h3.29v3.91h-3.29v6.91c0,1.22.6,1.76,1.69,1.76a4.39,4.39,0,0,0,1.63-.29V38.2a11.61,11.61,0,0,1-3.16.48C290.43,38.68,288.32,36.86,288.32,32.92Z" fill="#fff"/><path d="M299.29,35.42a3.19,3.19,0,0,1,3.27-3.23,3.23,3.23,0,1,1,0,6.46A3.19,3.19,0,0,1,299.29,35.42Z" fill="#fff"/><path d="M313.47,31h6.24c.16,1.63.89,3,3.61,3,1.89,0,2.95-.93,2.95-2.27s-.87-1.79-3.62-2.21c-6.46-.77-8.64-2.69-8.64-7.29,0-4.13,3.39-7.14,8.87-7.14s8.6,2.3,9,7.14h-6.08a2.59,2.59,0,0,0-2.94-2.47c-1.76,0-2.66.8-2.66,1.95s.7,1.86,3.55,2.24c5.79.64,8.77,2.15,8.77,7.11,0,4.19-3.33,7.61-9.22,7.61C316.92,38.68,313.66,36,313.47,31Z" fill="#fff"/><path d="M333,21.56h6l2.44,10,2.81-10h4.61l2.5,10,2.72-10h5.44L354.2,38.3h-5.47L346.24,29l-2.6,9.34h-5.56Z" fill="#fff"/><path d="M360.86,17A3.16,3.16,0,1,1,364,20,3,3,0,0,1,360.86,17Zm.29,4.54h5.73V38.3h-5.73Z" fill="#fff"/><path d="M370.72,32.92V25.47h-2V21.56h2V18.08h5.72v3.48h3.3v3.91h-3.3v6.91a1.53,1.53,0,0,0,1.7,1.76,4.39,4.39,0,0,0,1.63-.29V38.2a11.63,11.63,0,0,1-3.17.48C372.83,38.68,370.72,36.86,370.72,32.92Z" fill="#fff"/><path d="M381,30.14v-.26c0-5.56,4-8.76,8.93-8.76,4.09,0,7.87,1.79,8.19,6.88h-5.38c-.25-1.57-1-2.44-2.68-2.44-2,0-3.2,1.44-3.2,4.26v.26c0,2.91,1.12,4.41,3.29,4.41a2.78,2.78,0,0,0,2.91-2.78h5.15c-.16,4.22-3,7-8.41,7C384.83,38.68,381,35.77,381,30.14Z" fill="#fff"/><path d="M400.09,14.2h5.73V24.25a5.89,5.89,0,0,1,5.5-3.13c3.23,0,5.47,2,5.47,6.3V38.3h-5.72V28.57c0-1.89-.74-2.81-2.4-2.81s-2.85,1-2.85,3.16V38.3h-5.73Z" fill="#fff"/><path d="M426.17,32.92V25.47h-2V21.56h2V18.08h5.73v3.48h3.29v3.91H431.9v6.91c0,1.22.61,1.76,1.69,1.76a4.48,4.48,0,0,0,1.64-.29V38.2a11.76,11.76,0,0,1-3.17.48C428.28,38.68,426.17,36.86,426.17,32.92Z" fill="#fff"/><path d="M436.47,30.14v-.26c0-5.37,4-8.76,9.19-8.76s9.12,3.29,9.12,8.6V30c0,5.44-4,8.7-9.15,8.7S436.47,35.55,436.47,30.14ZM449,30v-.25c0-2.82-1.12-4.39-3.29-4.39s-3.33,1.51-3.33,4.32V30c0,2.88,1.12,4.45,3.33,4.45S449,32.83,449,30Z" fill="#fff"/><path d="M463.13,15.42h10.21c5.4,0,7.71,2.43,7.71,6v.13a4.71,4.71,0,0,1-3.87,4.93c2.81.48,4.57,2.18,4.57,5.34v.13c0,4.1-2.65,6.37-8.32,6.37h-10.3Zm8.9,9.09c2,0,2.81-.71,2.81-2.34V22c0-1.56-.83-2.27-2.81-2.27h-2.5v4.74Zm.22,9.41c2.08,0,3-1,3-2.66v-.13c0-1.73-.93-2.62-3.23-2.62h-2.53v5.41Z" fill="#fff"/><path d="M484,14.2h5.69V38.3H484Z" fill="#fff"/><path d="M491.9,30.14v-.26c0-5.37,4-8.76,9.18-8.76s9.12,3.29,9.12,8.6V30c0,5.44-4,8.7-9.15,8.7S491.9,35.55,491.9,30.14Zm12.48-.1v-.25c0-2.82-1.12-4.39-3.3-4.39s-3.33,1.51-3.33,4.32V30c0,2.88,1.12,4.45,3.33,4.45S504.38,32.83,504.38,30Z" fill="#fff"/><path d="M511.32,30.14v-.26c0-5.56,4-8.76,8.93-8.76,4.1,0,7.87,1.79,8.19,6.88h-5.37c-.26-1.57-1-2.44-2.69-2.44-2,0-3.2,1.44-3.2,4.26v.26c0,2.91,1.12,4.41,3.29,4.41a2.8,2.8,0,0,0,2.92-2.78h5.15c-.16,4.22-3,7-8.42,7C515.13,38.68,511.32,35.77,511.32,30.14Z" fill="#fff"/><path d="M530.39,14.2h5.73v14l4.51-6.63h6l-5.47,7.52L547,38.3h-6.4L536.12,31V38.3h-5.73Z" fill="#fff"/><path d="M121.57,51A3.16,3.16,0,1,1,124.7,54,3,3,0,0,1,121.57,51Zm.29,4.54h5.72V72.3h-5.72Z" fill="#fff"/><path d="M130.66,55.56h5.72v2.69a5.91,5.91,0,0,1,5.51-3.13c3.23,0,5.47,2,5.47,6.3V72.3h-5.73V62.57c0-1.89-.73-2.81-2.4-2.81s-2.85,1-2.85,3.16V72.3h-5.72Z" fill="#fff"/><path d="M155,67.66c0-3.94,3.32-5.47,8.89-5.47h1.6V61.8c0-1.6-.38-2.65-2.21-2.65a2.06,2.06,0,0,0-2.27,2h-5.37c.25-4,3.42-6,8-6s7.55,1.88,7.55,6.33V72.3h-5.57v-2a5.5,5.5,0,0,1-5,2.33C157.66,72.68,155,71.21,155,67.66Zm10.49-1.22v-1H164c-2.31,0-3.33.45-3.33,1.82,0,1,.64,1.57,2,1.57C164.29,68.81,165.5,67.88,165.5,66.44Z" fill="#fff"/><path d="M172.86,67h5.28c.19,1.21.74,1.89,2.37,1.89,1.41,0,2.05-.55,2.05-1.38s-.8-1.18-3.11-1.5c-4.47-.58-6.36-1.89-6.36-5.38,0-3.71,3.29-5.5,7.16-5.5,4.13,0,7,1.4,7.4,5.4h-5.19a1.86,1.86,0,0,0-2.14-1.66c-1.25,0-1.89.54-1.89,1.31s.77,1.12,2.82,1.38c4.64.57,6.88,1.79,6.88,5.37,0,4-2.95,5.76-7.59,5.76S173,70.7,172.86,67Z" fill="#fff"/><path d="M196,48.2h5.69V72.3H196Z" fill="#fff"/><path d="M204.61,51a3,3,0,0,1,3.13-3,3,3,0,0,1,3.17,3A3,3,0,0,1,207.74,54,3,3,0,0,1,204.61,51Zm.28,4.54h5.73V72.3h-5.73Z" fill="#fff"/><path d="M214.46,66.92V59.47h-2V55.56h2V52.08h5.73v3.48h3.3v3.91h-3.3v6.91a1.53,1.53,0,0,0,1.7,1.76,4.39,4.39,0,0,0,1.63-.29V72.2a12.18,12.18,0,0,1-3.17.48C216.57,72.68,214.46,70.86,214.46,66.92Z" fill="#fff"/><path d="M226.43,66.92V59.47h-2V55.56h2V52.08h5.73v3.48h3.29v3.91h-3.29v6.91a1.53,1.53,0,0,0,1.69,1.76,4.48,4.48,0,0,0,1.64-.29V72.2a12.18,12.18,0,0,1-3.17.48C228.54,72.68,226.43,70.86,226.43,66.92Z" fill="#fff"/><path d="M237.79,48.2h5.7V72.3h-5.7Z" fill="#fff"/><path d="M245.66,64.14v-.26c0-5.37,4-8.76,9.06-8.76,4.57,0,8.51,2.62,8.51,8.64v1.5H251.45c.16,2.21,1.44,3.49,3.49,3.49,1.89,0,2.69-.87,2.91-2h5.38c-.51,3.78-3.43,5.92-8.48,5.92C249.5,72.68,245.66,69.61,245.66,64.14Zm12-2.11c-.1-2-1.09-3.14-2.94-3.14S251.81,60,251.52,62Z" fill="#fff"/><path d="M270.08,67.66c0-3.94,3.32-5.47,8.89-5.47h1.6V61.8c0-1.6-.38-2.65-2.21-2.65a2.06,2.06,0,0,0-2.27,2h-5.37c.25-4,3.42-6,8-6s7.55,1.88,7.55,6.33V72.3H280.7v-2a5.5,5.5,0,0,1-5,2.33C272.73,72.68,270.08,71.21,270.08,67.66Zm10.49-1.22v-1h-1.5c-2.31,0-3.33.45-3.33,1.82,0,1,.64,1.57,2,1.57C279.36,68.81,280.57,67.88,280.57,66.44Z" fill="#fff"/><path d="M287.93,67h5.28c.19,1.21.74,1.89,2.37,1.89,1.41,0,2.05-.55,2.05-1.38s-.8-1.18-3.11-1.5c-4.48-.58-6.36-1.89-6.36-5.38,0-3.71,3.29-5.5,7.16-5.5,4.13,0,7,1.4,7.4,5.4h-5.19a1.86,1.86,0,0,0-2.14-1.66c-1.25,0-1.89.54-1.89,1.31s.77,1.12,2.82,1.38c4.64.57,6.88,1.79,6.88,5.37,0,4-2.95,5.76-7.59,5.76S288.06,70.7,287.93,67Z" fill="#fff"/><path d="M311.64,66.92V59.47h-2V55.56h2V52.08h5.73v3.48h3.3v3.91h-3.3v6.91a1.53,1.53,0,0,0,1.7,1.76,4.39,4.39,0,0,0,1.63-.29V72.2a12.11,12.11,0,0,1-3.17.48C313.76,72.68,311.64,70.86,311.64,66.92Z" fill="#fff"/><path d="M321.44,55.56h6l2.43,10,2.82-10h4.6l2.5,10,2.72-10h5.44L342.62,72.3h-5.47L334.65,63l-2.59,9.34h-5.57Z" fill="#fff"/><path d="M347.77,64.14v-.26c0-5.37,4-8.76,9.19-8.76s9.11,3.29,9.11,8.6V64c0,5.44-4,8.7-9.15,8.7S347.77,69.55,347.77,64.14Zm12.48-.1v-.25c0-2.82-1.12-4.39-3.29-4.39s-3.33,1.51-3.33,4.32V64c0,2.88,1.12,4.45,3.33,4.45S360.25,66.83,360.25,64Z" fill="#fff"/><path d="M373,64.14v-.26c0-5.56,4-8.76,8.93-8.76,4.09,0,7.87,1.79,8.19,6.88h-5.38c-.25-1.57-1-2.44-2.68-2.44-2,0-3.2,1.44-3.2,4.26v.26c0,2.91,1.12,4.41,3.29,4.41a2.78,2.78,0,0,0,2.91-2.78h5.16c-.16,4.22-3,7-8.42,7C376.83,72.68,373,69.77,373,64.14Z" fill="#fff"/><path d="M392.25,48.2H398V72.3h-5.7Z" fill="#fff"/><path d="M400.89,51A3.16,3.16,0,1,1,404,54,3,3,0,0,1,400.89,51Zm.29,4.54h5.73V72.3h-5.73Z" fill="#fff"/><path d="M409.08,64.14v-.26c0-5.56,4-8.76,8.93-8.76,4.1,0,7.87,1.79,8.19,6.88h-5.37c-.26-1.57-1-2.44-2.69-2.44-2,0-3.2,1.44-3.2,4.26v.26c0,2.91,1.12,4.41,3.29,4.41a2.8,2.8,0,0,0,2.92-2.78h5.15c-.16,4.22-3,7-8.42,7C412.89,72.68,409.08,69.77,409.08,64.14Z" fill="#fff"/><path d="M428.16,48.2h5.72v14l4.51-6.63h6l-5.48,7.52,5.92,9.22h-6.4L433.88,65V72.3h-5.72Z" fill="#fff"/><path d="M444.6,67h5.28c.2,1.21.74,1.89,2.37,1.89,1.41,0,2.05-.55,2.05-1.38s-.8-1.18-3.1-1.5c-4.49-.58-6.37-1.89-6.37-5.38,0-3.71,3.29-5.5,7.17-5.5,4.12,0,7,1.4,7.39,5.4H454.2a1.86,1.86,0,0,0-2.14-1.66c-1.25,0-1.89.54-1.89,1.31s.77,1.12,2.82,1.38c4.64.57,6.88,1.79,6.88,5.37,0,4-2.95,5.76-7.59,5.76S444.73,70.7,444.6,67Z" fill="#fff"/><path d="M461.5,69.42a3.19,3.19,0,0,1,3.26-3.23,3.23,3.23,0,1,1,0,6.46A3.19,3.19,0,0,1,461.5,69.42Z" fill="#fff"/></g></g></g></svg>