<svg xmlns="http://www.w3.org/2000/svg" viewBox="0 0 153 35"><title>get_started</title><g id="Layer_2" data-name="Layer 2"><g id="Rect"><rect width="153" height="35" fill="none"/></g><g id="Get_started" data-name="Get started"><path d="M35.21,16.33V16.2A5.6,5.6,0,0,1,41,10.36c2.55,0,4.82,1.17,5.09,4H43.54a2.21,2.21,0,0,0-2.48-1.95c-2,0-3.15,1.49-3.15,3.82v.13c0,2.21.94,3.79,3.19,3.79a2.41,2.41,0,0,0,2.75-2.41H41.27V15.85h5.14v1.22c0,3.05-1.95,5.09-5.38,5.09C37.29,22.16,35.21,19.72,35.21,16.33Z" fill="#262626"/><path d="M47.32,17.9v-.13a4.15,4.15,0,0,1,4.3-4.35c2.16,0,4.08,1.26,4.08,4.25v.64h-6a2,2,0,0,0,2.08,2.2c1.07,0,1.6-.47,1.75-1.17h2.19c-.27,1.81-1.71,2.82-4,2.82A4.07,4.07,0,0,1,47.32,17.9Zm6.13-1c-.08-1.27-.72-1.87-1.83-1.87a1.92,1.92,0,0,0-1.92,1.87Z" fill="#262626"/><path d="M57.33,19.5V15.26H56.26V13.61h1.07V11.8h2.31v1.81H61.4v1.65H59.64v4c0,.67.33,1,.93,1a2.23,2.23,0,0,0,.88-.16v1.8a4.32,4.32,0,0,1-1.41.22A2.39,2.39,0,0,1,57.33,19.5Z" fill="#262626"/><path d="M65.48,19.35h2.16c.09.76.46,1.19,1.47,1.19s1.31-.34,1.31-.91-.49-.82-1.69-1c-2.23-.33-3.09-1-3.09-2.61s1.6-2.6,3.31-2.6,3.25.67,3.46,2.59H70.28A1.13,1.13,0,0,0,69,15c-.76,0-1.19.35-1.19.87s.4.73,1.62.91c2.1.3,3.25.83,3.25,2.62s-1.32,2.76-3.52,2.76S65.56,21.16,65.48,19.35Z" fill="#262626"/><path d="M74.23,19.5V15.26H73.16V13.61h1.07V11.8h2.3v1.81h1.76v1.65H76.53v4c0,.67.34,1,.93,1a2.19,2.19,0,0,0,.88-.16v1.8a4.27,4.27,0,0,1-1.41.22A2.38,2.38,0,0,1,74.23,19.5Z" fill="#262626"/><path d="M79.17,19.66C79.17,17.71,81,17,83.53,17h.94v-.34c0-1-.3-1.53-1.36-1.53a1.25,1.25,0,0,0-1.42,1.18h-2.2c.15-2,1.72-2.86,3.76-2.86s3.51.83,3.51,3.1V22H84.5V21A2.85,2.85,0,0,1,82,22.16C80.45,22.16,79.17,21.42,79.17,19.66Zm5.3-.61v-.7h-.9c-1.34,0-2.12.28-2.12,1.18,0,.61.36,1,1.21,1C83.69,20.54,84.47,20,84.47,19.05Z" fill="#262626"/><path d="M88.5,13.61h2.32v1.6a2.76,2.76,0,0,1,2.71-1.73v2.16c-1.72,0-2.71.55-2.71,2.15V22H88.5Z" fill="#262626"/><path d="M95.27,19.5V15.26H94.2V13.61h1.07V11.8h2.3v1.81h1.76v1.65H97.57v4c0,.67.34,1,.93,1a2.19,2.19,0,0,0,.88-.16v1.8a4.27,4.27,0,0,1-1.41.22A2.38,2.38,0,0,1,95.27,19.5Z" fill="#262626"/><path d="M100.2,17.9v-.13a4.15,4.15,0,0,1,4.3-4.35c2.16,0,4.08,1.26,4.08,4.25v.64h-6a2,2,0,0,0,2.08,2.2c1.07,0,1.6-.47,1.74-1.17h2.2c-.28,1.81-1.72,2.82-4,2.82A4.07,4.07,0,0,1,100.2,17.9Zm6.13-1c-.08-1.27-.72-1.87-1.83-1.87a1.92,1.92,0,0,0-1.92,1.87Z" fill="#262626"/><path d="M109.36,17.91v-.12c0-2.76,1.59-4.37,3.69-4.37a2.79,2.79,0,0,1,2.64,1.44v-5H118V22h-2.3V20.59A3.06,3.06,0,0,1,113,22.16C111,22.16,109.36,20.7,109.36,17.91Zm6.39-.08v-.12c0-1.67-.74-2.52-2-2.52s-2,.88-2,2.55v.13c0,1.66.8,2.48,2,2.48S115.75,19.53,115.75,17.83Z" fill="#262626"/></g></g></svg>