<svg xmlns="http://www.w3.org/2000/svg" viewBox="0 0 300 600"><title>H03</title><g id="Layer_2" data-name="Layer 2"><g id="Rect"><rect width="300" height="600" fill="none"/></g><g id="Claim_EITC_for_free_with_H_R_Block_Free_Online." data-name="Claim EITC for free with H&amp;R Block Free Online."><path d="M21.38,168.2v-.34c0-9.46,6.7-15.7,15.69-15.7,8,0,13.55,3.7,14.28,11.83H42.27c-.34-3.14-2.06-4.86-5.16-4.86-4,0-6.45,3.09-6.45,8.68v.35c0,5.54,2.37,8.68,6.58,8.68a5.29,5.29,0,0,0,5.72-5h8.77c-.6,8-6.36,12.08-14.32,12.08C26.67,183.89,21.38,177.62,21.38,168.2Z" fill="#fff"/><path d="M55.13,151h7.65v32.38H55.13Z" fill="#fff"/><path d="M66.27,177.14c0-5.29,4.47-7.35,12-7.35h2.15v-.52c0-2.15-.52-3.56-3-3.56a2.76,2.76,0,0,0-3.05,2.66H67.13c.34-5.42,4.6-8.08,10.75-8.08S88,162.82,88,168.8v14.58H80.54v-2.62c-1.07,1.63-3.05,3.13-6.66,3.13C69.84,183.89,66.27,181.92,66.27,177.14Zm14.1-1.63v-1.38h-2c-3.1,0-4.47.61-4.47,2.45,0,1.29.86,2.11,2.66,2.11C78.74,178.69,80.37,177.44,80.37,175.51Z" fill="#fff"/><path d="M92.24,154.78a4,4,0,0,1,4.21-4,4,4,0,1,1,0,8A4,4,0,0,1,92.24,154.78Zm.39,6.11h7.69v22.49H92.63Z" fill="#fff"/><path d="M105.1,160.89h7.69v3.44a7.87,7.87,0,0,1,7-4A6.12,6.12,0,0,1,126,164a8.93,8.93,0,0,1,7.44-3.74c4.26,0,7.35,2.75,7.35,8.38v14.71H133V170c0-2.28-1.11-3.39-2.88-3.39-2.06,0-3.44,1.33-3.44,3.78v13h-7.61V170c0-2.28-1.11-3.39-2.88-3.39-2.06,0-3.44,1.33-3.44,3.78v13H105.1Z" fill="#fff"/><path d="M154.29,152.63h21.24v6.8H163.06v5.29H173V171h-9.93v5.59h13.16v6.8H154.29Z" fill="#fff"/><path d="M180.78,152.63h8.9v30.75h-8.9Z" fill="#fff"/><path d="M201.63,159.43h-8v-6.8h24.77v6.8h-7.95v23.95h-8.86Z" fill="#fff"/><path d="M219.65,168.2v-.34c0-9.46,6.7-15.7,15.69-15.7,8,0,13.55,3.7,14.28,11.83h-9.08c-.34-3.14-2.06-4.86-5.16-4.86-3.95,0-6.45,3.09-6.45,8.68v.35c0,5.54,2.37,8.68,6.58,8.68a5.29,5.29,0,0,0,5.72-5H250c-.6,8-6.36,12.08-14.31,12.08C224.94,183.89,219.65,177.62,219.65,168.2Z" fill="#fff"/><path d="M23.44,212.14H20.6v-5.25h2.84v-2c0-5.59,3.48-8.25,8.81-8.25a13.66,13.66,0,0,1,3.53.47v5.63a7.17,7.17,0,0,0-2.11-.3,2.26,2.26,0,0,0-2.58,2.45v2h4.56v5.25H31.09v17.24H23.44Z" fill="#fff"/><path d="M36.9,218.41v-.34c0-7.22,5.37-11.78,12.34-11.78s12.25,4.43,12.25,11.56v.35c0,7.31-5.37,11.69-12.29,11.69S36.9,225.68,36.9,218.41Zm16.77-.13v-.34c0-3.78-1.51-5.89-4.43-5.89s-4.47,2-4.47,5.8v.35c0,3.87,1.5,6,4.47,6S53.67,222,53.67,218.28Z" fill="#fff"/><path d="M64.85,206.89h7.7v4.47a7.08,7.08,0,0,1,7.26-4.77v7.18c-4.68-.13-7.26,1.33-7.26,4.94v10.67h-7.7Z" fill="#fff"/><path d="M92.88,212.14H90.05v-5.25h2.83v-2c0-5.59,3.49-8.25,8.82-8.25a13.57,13.57,0,0,1,3.52.47v5.63a7,7,0,0,0-2.1-.3,2.26,2.26,0,0,0-2.58,2.45v2h4.56v5.25h-4.56v17.24H92.88Z" fill="#fff"/><path d="M108.32,206.89H116v4.47a7.09,7.09,0,0,1,7.26-4.77v7.18c-4.68-.13-7.26,1.33-7.26,4.94v10.67h-7.7Z" fill="#fff"/><path d="M125.31,218.41v-.34c0-7.22,5.37-11.78,12.16-11.78,6.15,0,11.44,3.52,11.44,11.61v2H133.09c.21,3,1.93,4.69,4.69,4.69,2.53,0,3.61-1.17,3.91-2.67h7.22c-.69,5.07-4.6,7.95-11.39,7.95C130.47,229.89,125.31,225.77,125.31,218.41Zm16.12-2.83c-.13-2.71-1.46-4.22-4-4.22-2.32,0-3.91,1.51-4.3,4.22Z" fill="#fff"/><path d="M151,218.41v-.34c0-7.22,5.37-11.78,12.17-11.78,6.15,0,11.44,3.52,11.44,11.61v2H158.8c.22,3,1.94,4.69,4.69,4.69,2.54,0,3.61-1.17,3.91-2.67h7.23c-.69,5.07-4.61,7.95-11.4,7.95C156.18,229.89,151,225.77,151,218.41Zm16.12-2.83c-.13-2.71-1.46-4.22-3.95-4.22-2.32,0-3.91,1.51-4.3,4.22Z" fill="#fff"/><path d="M184.52,206.89h8l3.26,13.46,3.79-13.46h6.19l3.35,13.46,3.66-13.46h7.31L213,229.38h-7.35l-3.36-12.56-3.48,12.56h-7.48Z" fill="#fff"/><path d="M222.57,200.78a4.24,4.24,0,1,1,4.21,4A4,4,0,0,1,222.57,200.78Zm.39,6.11h7.69v22.49H223Z" fill="#fff"/><path d="M236.46,222.15v-10h-2.71v-5.25h2.71V202.2h7.7v4.69h4.42v5.25h-4.42v9.28c0,1.64.81,2.37,2.27,2.37a5.87,5.87,0,0,0,2.2-.39v5.85a16.1,16.1,0,0,1-4.26.64C239.3,229.89,236.46,227.44,236.46,222.15Z" fill="#fff"/><path d="M252.15,197h7.7v13.5a7.93,7.93,0,0,1,7.4-4.21c4.34,0,7.35,2.71,7.35,8.47v14.62h-7.7V216.31c0-2.54-1-3.79-3.22-3.79s-3.83,1.38-3.83,4.26v12.6h-7.7Z" fill="#fff"/><path d="M23,244.63h8.85v11.74H41.93V244.63h8.81v30.75H41.93V263.25H31.82v12.13H23Z" fill="#fff"/><path d="M80.89,269.1,86,275.38H76l-1.81-2.24a12.24,12.24,0,0,1-8.3,2.75c-6.54,0-10.79-3.44-10.79-9.28,0-4,2.41-6.88,6.75-8.95A9.81,9.81,0,0,1,60,252.29c0-5.25,4.47-8,9.89-8,4.9,0,9.33,2.45,9.33,7.18,0,3.35-2,5.8-6.15,7.61l3.87,4.73,2.23-4.39h6.71Zm-10.67-.9-4.86-5.85a3.64,3.64,0,0,0-2.06,3.31,3.57,3.57,0,0,0,3.91,3.83A4,4,0,0,0,70.22,268.2Zm-.94-12.39c2.06-1,3-2.15,3-3.74a2.21,2.21,0,0,0-2.28-2.36,2.45,2.45,0,0,0-2.54,2.66C67.51,253.49,68.2,254.57,69.28,255.81Z" fill="#fff"/><path d="M89.44,244.63h12c8,0,12.52,3.27,12.52,9.76v.18a8,8,0,0,1-5.55,8.08l7.35,12.73h-9.28l-6.24-11H98.22v11H89.44Zm11.61,14c3,0,4.43-1.25,4.43-3.74v-.17c0-2.5-1.54-3.48-4.38-3.48H98.22v7.39Z" fill="#fff"/><path d="M127.89,244.63H141.6c7.27,0,10.36,3.27,10.36,8v.18c0,3.44-1.76,5.72-5.2,6.62,3.79.64,6.15,2.92,6.15,7.18v.17c0,5.51-3.57,8.56-11.18,8.56H127.89Zm12,12.22c2.75,0,3.78-1,3.78-3.14v-.18c0-2.1-1.11-3.05-3.78-3.05h-3.35v6.37Zm.3,12.64c2.8,0,4.09-1.29,4.09-3.57v-.17c0-2.33-1.25-3.53-4.35-3.53h-3.39v7.27Z" fill="#fff"/><path d="M156.61,243h7.65v32.38h-7.65Z" fill="#fff"/><path d="M167.83,264.41v-.34c0-7.22,5.38-11.78,12.34-11.78s12.26,4.43,12.26,11.56v.35c0,7.31-5.38,11.69-12.3,11.69S167.83,271.68,167.83,264.41Zm16.77-.13v-.34c0-3.78-1.5-5.89-4.43-5.89s-4.47,2-4.47,5.8v.35c0,3.87,1.51,6,4.47,6S184.6,268,184.6,264.28Z" fill="#fff"/><path d="M194.58,264.41v-.34c0-7.48,5.37-11.78,12-11.78,5.51,0,10.58,2.41,11,9.24h-7.22c-.35-2.1-1.38-3.27-3.61-3.27-2.71,0-4.3,1.94-4.3,5.72v.35c0,3.91,1.5,5.93,4.43,5.93,2.15,0,3.65-1.29,3.91-3.74h6.92c-.21,5.68-4,9.37-11.31,9.37C199.69,275.89,194.58,272,194.58,264.41Z" fill="#fff"/><path d="M220.85,243h7.7v18.79l6.06-8.9h8L235.25,263l8,12.39h-8.6l-6.06-9.85v9.85h-7.7Z" fill="#fff"/><path d="M23,290.63H43.74v6.84H31.82V304h9.51v6.49H31.82v10.88H23Z" fill="#fff"/><path d="M46.44,298.89h7.7v4.47a7.1,7.1,0,0,1,7.27-4.77v7.18c-4.69-.13-7.27,1.33-7.27,4.94v10.67h-7.7Z" fill="#fff"/><path d="M63.43,310.41v-.34c0-7.22,5.37-11.78,12.17-11.78,6.15,0,11.44,3.52,11.44,11.61v2H71.21c.22,3,1.94,4.69,4.69,4.69,2.54,0,3.61-1.17,3.91-2.67H87c-.69,5.07-4.6,7.95-11.4,7.95C68.59,321.89,63.43,317.77,63.43,310.41Zm16.12-2.83c-.12-2.71-1.46-4.22-4-4.22-2.32,0-3.91,1.51-4.3,4.22Z" fill="#fff"/><path d="M89.14,310.41v-.34c0-7.22,5.38-11.78,12.17-11.78,6.15,0,11.44,3.52,11.44,11.61v2H96.93c.21,3,1.93,4.69,4.68,4.69,2.54,0,3.62-1.17,3.92-2.67h7.22c-.69,5.07-4.6,7.95-11.39,7.95C94.3,321.89,89.14,317.77,89.14,310.41Zm16.13-2.83c-.13-2.71-1.46-4.22-4-4.22-2.32,0-3.91,1.51-4.3,4.22Z" fill="#fff"/><path d="M123.59,306.2v-.34c0-9.38,7-15.66,16.25-15.66,9.37,0,16.3,5.89,16.3,15.44V306c0,9.46-6.5,15.91-16.43,15.91S123.59,315.44,123.59,306.2Zm23.34-.09v-.34c0-5.46-2.75-8.69-7.09-8.69s-7.05,3.14-7.05,8.73v.35c0,5.59,2.84,8.81,7.09,8.81S146.93,311.62,146.93,306.11Z" fill="#fff"/><path d="M159.75,298.89h7.7v3.61a7.93,7.93,0,0,1,7.39-4.21c4.34,0,7.35,2.71,7.35,8.47v14.62H174.5V308.31c0-2.54-1-3.79-3.23-3.79s-3.82,1.38-3.82,4.26v12.6h-7.7Z" fill="#fff"/><path d="M186.79,289h7.66v32.38h-7.66Z" fill="#fff"/><path d="M199.05,292.78a4.24,4.24,0,1,1,4.21,4A4,4,0,0,1,199.05,292.78Zm.39,6.11h7.69v22.49h-7.69Z" fill="#fff"/><path d="M211.91,298.89h7.69v3.61a8,8,0,0,1,7.4-4.21c4.34,0,7.35,2.71,7.35,8.47v14.62h-7.69V308.31c0-2.54-1-3.79-3.23-3.79s-3.83,1.38-3.83,4.26v12.6h-7.69Z" fill="#fff"/><path d="M237.53,310.41v-.34c0-7.22,5.38-11.78,12.17-11.78,6.15,0,11.44,3.52,11.44,11.61v2H245.32c.21,3,1.93,4.69,4.68,4.69,2.54,0,3.62-1.17,3.92-2.67h7.22c-.69,5.07-4.6,7.95-11.39,7.95C242.69,321.89,237.53,317.77,237.53,310.41Zm16.13-2.83c-.13-2.71-1.46-4.22-4-4.22-2.32,0-3.91,1.51-4.3,4.22Z" fill="#fff"/><path d="M263.94,317.51a4.28,4.28,0,0,1,4.38-4.34,4.34,4.34,0,1,1,0,8.68A4.28,4.28,0,0,1,263.94,317.51Z" fill="#fff"/></g></g></svg>