<svg xmlns="http://www.w3.org/2000/svg" viewBox="0 0 160 600"><title>160x600</title><g id="Layer_2" data-name="Layer 2"><g id="Artboard_1" data-name="Artboard 1" style="isolation:isolate"><g id="Rect"><rect width="160" height="600" fill="none"/></g><g id="headline2"><g id="H_R_Block_Free_Online_includes_student_loan_interest_deducti" data-name="H&amp;R Block Free Online includes  student loan  interest  deducti"><path d="M19.48,115.14h4.43V121H29v-5.87h4.41v15.37H29v-6.06H23.91v6.06H19.48Z" fill="#fff"/><path d="M48.44,127.37,51,130.51H46l-.9-1.12a6.1,6.1,0,0,1-4.15,1.38c-3.27,0-5.4-1.72-5.4-4.65,0-2,1.21-3.44,3.38-4.47A4.85,4.85,0,0,1,38,119c0-2.62,2.24-4,5-4,2.45,0,4.66,1.23,4.66,3.59,0,1.68-1,2.91-3.07,3.81l1.93,2.36,1.12-2.19h3.36Zm-5.33-.45L40.68,124a1.81,1.81,0,0,0-1,1.65,1.78,1.78,0,0,0,2,1.91A2,2,0,0,0,43.11,126.92Zm-.47-6.19c1-.5,1.53-1.08,1.53-1.87A1.12,1.12,0,0,0,43,117.67,1.23,1.23,0,0,0,41.76,119,2.82,2.82,0,0,0,42.64,120.73Z" fill="#fff"/><path d="M52.72,115.14h6c4,0,6.26,1.63,6.26,4.88v.08a4,4,0,0,1-2.77,4.05l3.67,6.36H61.26L58.14,125h-1v5.5H52.72Zm5.81,7c1.48,0,2.21-.63,2.21-1.87v-.09c0-1.25-.77-1.74-2.19-1.74H57.11v3.7Z" fill="#fff"/><path d="M71.94,115.14H78.8c3.63,0,5.18,1.63,5.18,4v.08a3.16,3.16,0,0,1-2.6,3.31,3.36,3.36,0,0,1,3.08,3.6v.08c0,2.75-1.79,4.28-5.59,4.28H71.94Zm6,6.1c1.38,0,1.89-.47,1.89-1.57v-.08c0-1.06-.56-1.53-1.89-1.53H76.24v3.18Zm.15,6.32c1.4,0,2-.64,2-1.78v-.09c0-1.16-.62-1.76-2.17-1.76h-1.7v3.63Z" fill="#fff"/><path d="M86.3,114.32h3.83v16.19H86.3Z" fill="#fff"/><path d="M91.92,125v-.18c0-3.61,2.68-5.89,6.17-5.89s6.12,2.22,6.12,5.79v.17c0,3.65-2.68,5.85-6.15,5.85S91.92,128.66,91.92,125Zm8.38-.07v-.17c0-1.89-.75-2.94-2.21-2.94s-2.24,1-2.24,2.9v.17c0,1.93.75,3,2.24,3S100.3,126.83,100.3,125Z" fill="#fff"/><path d="M105.29,125v-.18a5.66,5.66,0,0,1,6-5.89c2.75,0,5.29,1.21,5.5,4.63h-3.61a1.66,1.66,0,0,0-1.81-1.64c-1.35,0-2.15,1-2.15,2.86V125c0,2,.76,3,2.22,3a1.87,1.87,0,0,0,2-1.87h3.47c-.11,2.84-2,4.69-5.66,4.69C107.85,130.77,105.29,128.81,105.29,125Z" fill="#fff"/><path d="M118.42,114.32h3.85v9.4l3-4.45h4l-3.67,5,4,6.19h-4.3l-3-4.92v4.92h-3.85Z" fill="#fff"/><path d="M19.48,138.64H29.87v3.42h-6v3.26h4.75v3.25H23.91V154H19.48Z" fill="#fff"/><path d="M31.22,142.77h3.85V145a3.54,3.54,0,0,1,3.63-2.39v3.6c-2.34-.07-3.63.66-3.63,2.47V154H31.22Z" fill="#fff"/><path d="M39.71,148.53v-.18a5.75,5.75,0,0,1,6.09-5.89c3.07,0,5.72,1.77,5.72,5.81v1H43.61A2.24,2.24,0,0,0,46,151.62c1.27,0,1.81-.58,2-1.33h3.61c-.35,2.54-2.3,4-5.7,4S39.71,152.2,39.71,148.53Zm8.07-1.42c-.07-1.36-.73-2.11-2-2.11a2.14,2.14,0,0,0-2.15,2.11Z" fill="#fff"/><path d="M52.57,148.53v-.18a5.75,5.75,0,0,1,6.09-5.89c3.07,0,5.72,1.77,5.72,5.81v1H56.46a2.25,2.25,0,0,0,2.35,2.34c1.27,0,1.8-.58,1.95-1.33h3.62c-.35,2.54-2.31,4-5.7,4S52.57,152.2,52.57,148.53Zm8.06-1.42c-.06-1.36-.73-2.11-2-2.11a2.14,2.14,0,0,0-2.15,2.11Z" fill="#fff"/><path d="M69.79,146.42v-.17c0-4.69,3.53-7.83,8.13-7.83s8.15,3,8.15,7.72v.17c0,4.73-3.25,8-8.21,8S69.79,151,69.79,146.42Zm11.68,0v-.17c0-2.74-1.38-4.35-3.55-4.35s-3.53,1.57-3.53,4.37v.17c0,2.79,1.42,4.41,3.55,4.41S81.47,149.13,81.47,146.38Z" fill="#fff"/><path d="M87.87,142.77h3.85v1.8a4,4,0,0,1,3.7-2.11c2.17,0,3.68,1.36,3.68,4.24V154H95.25v-6.54c0-1.26-.5-1.89-1.61-1.89s-1.92.69-1.92,2.13V154H87.87Z" fill="#fff"/><path d="M101.4,137.82h3.82V154H101.4Z" fill="#fff"/><path d="M107.52,139.71a2.12,2.12,0,1,1,2.11,2A2,2,0,0,1,107.52,139.71Zm.2,3.06h3.85V154h-3.85Z" fill="#fff"/><path d="M114,142.77h3.85v1.8a4,4,0,0,1,3.7-2.11c2.17,0,3.68,1.36,3.68,4.24V154h-3.85v-6.54c0-1.26-.5-1.89-1.62-1.89s-1.91.69-1.91,2.13V154H114Z" fill="#fff"/><path d="M126.77,148.53v-.18a5.75,5.75,0,0,1,6.08-5.89c3.08,0,5.72,1.77,5.72,5.81v1h-7.91a2.25,2.25,0,0,0,2.34,2.34c1.27,0,1.81-.58,2-1.33h3.61c-.34,2.54-2.3,4-5.7,4S126.77,152.2,126.77,148.53Zm8.06-1.42c-.07-1.36-.73-2.11-2-2.11a2.14,2.14,0,0,0-2.15,2.11Z" fill="#fff"/><path d="M19.05,163.21a2.12,2.12,0,1,1,2.11,2A2,2,0,0,1,19.05,163.21Zm.2,3.06H23.1v11.24H19.25Z" fill="#fff"/><path d="M25.48,166.27h3.85v1.8A4,4,0,0,1,33,166c2.17,0,3.67,1.36,3.67,4.24v7.31H32.86V171c0-1.26-.5-1.89-1.62-1.89s-1.91.69-1.91,2.13v6.3H25.48Z" fill="#fff"/><path d="M38.3,172v-.18a5.65,5.65,0,0,1,6-5.89c2.76,0,5.29,1.21,5.51,4.63H46.19A1.67,1.67,0,0,0,44.38,169c-1.35,0-2.15,1-2.15,2.86V172c0,2,.75,3,2.21,3a1.87,1.87,0,0,0,2-1.87h3.46c-.11,2.84-2,4.69-5.65,4.69C40.85,177.77,38.3,175.81,38.3,172Z" fill="#fff"/><path d="M51.54,161.32h3.83v16.19H51.54Z" fill="#fff"/><path d="M57.67,173.6v-7.33h3.85V173c0,1.27.49,1.9,1.59,1.9s1.91-.69,1.91-2.13v-6.47h3.85v11.24H65v-1.74a3.7,3.7,0,0,1-3.57,2C59.28,177.77,57.67,176.43,57.67,173.6Z" fill="#fff"/><path d="M70.59,172v-.18c0-3.82,2.11-5.87,4.77-5.87a3.65,3.65,0,0,1,3.46,1.9v-6.54h3.85v16.19H78.82v-1.83a3.79,3.79,0,0,1-3.5,2.09C72.72,177.77,70.59,175.9,70.59,172Zm8.34-.07v-.17c0-1.89-.8-2.9-2.21-2.9s-2.22,1-2.22,2.92V172c0,1.89.84,2.86,2.17,2.86S78.93,173.85,78.93,171.94Z" fill="#fff"/><path d="M84.35,172v-.18A5.75,5.75,0,0,1,90.43,166c3.08,0,5.72,1.77,5.72,5.81v1H88.24a2.25,2.25,0,0,0,2.34,2.34c1.27,0,1.81-.58,2-1.33h3.61c-.34,2.54-2.3,4-5.7,4S84.35,175.7,84.35,172Zm8.06-1.42c-.06-1.36-.73-2.11-2-2.11a2.14,2.14,0,0,0-2.15,2.11Z" fill="#fff"/><path d="M97.16,173.94h3.55c.13.82.49,1.27,1.59,1.27s1.38-.37,1.38-.93-.54-.79-2.09-1c-3-.38-4.28-1.26-4.28-3.61s2.22-3.7,4.82-3.7c2.77,0,4.71.95,5,3.64h-3.48a1.26,1.26,0,0,0-1.44-1.12c-.84,0-1.27.37-1.27.88s.52.75,1.89.93c3.12.38,4.63,1.2,4.63,3.61,0,2.66-2,3.87-5.1,3.87S97.25,176.43,97.16,173.94Z" fill="#fff"/><path d="M18.39,197.44h3.54c.13.82.5,1.27,1.6,1.27.94,0,1.37-.37,1.37-.93s-.54-.79-2.08-1c-3-.38-4.28-1.26-4.28-3.61s2.21-3.7,4.81-3.7c2.78,0,4.71.95,5,3.64H24.84A1.26,1.26,0,0,0,23.4,192c-.84,0-1.27.37-1.27.88s.51.75,1.89.93c3.12.38,4.62,1.2,4.62,3.61,0,2.66-2,3.87-5.09,3.87S18.47,199.93,18.39,197.44Z" fill="#fff"/><path d="M30.73,197.4v-5H29.37v-2.62h1.36v-2.35h3.85v2.35h2.21v2.62H34.58V197c0,.82.4,1.18,1.14,1.18a2.86,2.86,0,0,0,1.09-.19V201a8.41,8.41,0,0,1-2.13.32C32.15,201.27,30.73,200,30.73,197.4Z" fill="#fff"/><path d="M38.49,197.1v-7.33h3.85v6.7c0,1.27.49,1.9,1.59,1.9s1.91-.69,1.91-2.13v-6.47h3.85V201H45.84v-1.74a3.7,3.7,0,0,1-3.57,2C40.1,201.27,38.49,199.93,38.49,197.1Z" fill="#fff"/><path d="M51.41,195.51v-.18c0-3.82,2.11-5.87,4.77-5.87a3.66,3.66,0,0,1,3.47,1.9v-6.54h3.84V201H59.65v-1.83a3.8,3.8,0,0,1-3.51,2.09C53.54,201.27,51.41,199.4,51.41,195.51Zm8.34-.07v-.17c0-1.89-.79-2.9-2.21-2.9s-2.22,1-2.22,2.92v.17c0,1.89.84,2.86,2.18,2.86S59.75,197.35,59.75,195.44Z" fill="#fff"/><path d="M65.17,195.53v-.18a5.75,5.75,0,0,1,6.08-5.89c3.08,0,5.72,1.77,5.72,5.81v1H69.06a2.25,2.25,0,0,0,2.35,2.34c1.26,0,1.8-.58,2-1.33H77c-.34,2.54-2.3,4-5.69,4S65.17,199.2,65.17,195.53Zm8.06-1.42c-.06-1.36-.73-2.11-2-2.11a2.14,2.14,0,0,0-2.15,2.11Z" fill="#fff"/><path d="M78.63,189.77h3.85v1.8a4,4,0,0,1,3.7-2.11c2.17,0,3.67,1.36,3.67,4.24V201H86v-6.54c0-1.26-.49-1.89-1.61-1.89s-1.91.69-1.91,2.13V201H78.63Z" fill="#fff"/><path d="M92.56,197.4v-5H91.21v-2.62h1.35v-2.35h3.85v2.35h2.21v2.62H96.41V197a1,1,0,0,0,1.14,1.18,3,3,0,0,0,1.1-.19V201a8.57,8.57,0,0,1-2.13.32C94,201.27,92.56,200,92.56,197.4Z" fill="#fff"/><path d="M19.25,208.32h3.82v16.19H19.25Z" fill="#fff"/><path d="M24.86,219v-.18c0-3.61,2.69-5.89,6.17-5.89s6.13,2.22,6.13,5.79v.17c0,3.65-2.69,5.85-6.15,5.85S24.86,222.66,24.86,219Zm8.38-.07v-.17c0-1.89-.75-2.94-2.21-2.94s-2.24,1-2.24,2.9v.17c0,1.93.76,3,2.24,3S33.24,220.83,33.24,219Z" fill="#fff"/><path d="M38.19,221.39c0-2.64,2.23-3.67,6-3.67h1.07v-.26c0-1.08-.26-1.79-1.48-1.79A1.39,1.39,0,0,0,42.23,217H38.62c.17-2.71,2.3-4,5.37-4s5.08,1.27,5.08,4.26v7.29H45.33V223.2A3.7,3.7,0,0,1,42,224.77C40,224.77,38.19,223.78,38.19,221.39Zm7.05-.81v-.69h-1c-1.55,0-2.24.3-2.24,1.22,0,.65.43,1.06,1.34,1.06A1.7,1.7,0,0,0,45.24,220.58Z" fill="#fff"/><path d="M51.26,213.27h3.85v1.8a4,4,0,0,1,3.7-2.11c2.17,0,3.67,1.36,3.67,4.24v7.31H58.63V218c0-1.26-.49-1.89-1.61-1.89s-1.91.69-1.91,2.13v6.3H51.26Z" fill="#fff"/><path d="M19.05,233.71a2.12,2.12,0,1,1,2.11,2A2,2,0,0,1,19.05,233.71Zm.2,3.06H23.1V248H19.25Z" fill="#fff"/><path d="M25.48,236.77h3.85v1.8a4,4,0,0,1,3.7-2.11c2.17,0,3.67,1.36,3.67,4.24V248H32.86v-6.54c0-1.26-.5-1.89-1.62-1.89s-1.91.69-1.91,2.13V248H25.48Z" fill="#fff"/><path d="M39.41,244.4v-5H38.06v-2.62h1.35v-2.35h3.85v2.35h2.22v2.62H43.26V244a1,1,0,0,0,1.14,1.18,3,3,0,0,0,1.1-.19V248a8.57,8.57,0,0,1-2.13.32C40.83,248.27,39.41,247,39.41,244.4Z" fill="#fff"/><path d="M46.66,242.53v-.18a5.75,5.75,0,0,1,6.08-5.89c3.08,0,5.72,1.77,5.72,5.81v1H50.55a2.25,2.25,0,0,0,2.34,2.34c1.27,0,1.81-.58,2-1.33h3.61c-.34,2.54-2.3,4-5.69,4S46.66,246.2,46.66,242.53Zm8.06-1.42c-.06-1.36-.73-2.11-2-2.11a2.14,2.14,0,0,0-2.15,2.11Z" fill="#fff"/><path d="M60.12,236.77H64V239a3.54,3.54,0,0,1,3.63-2.39v3.6c-2.34-.07-3.63.66-3.63,2.47V248H60.12Z" fill="#fff"/><path d="M68.61,242.53v-.18a5.75,5.75,0,0,1,6.08-5.89c3.08,0,5.72,1.77,5.72,5.81v1H72.5a2.25,2.25,0,0,0,2.35,2.34c1.26,0,1.8-.58,2-1.33h3.61c-.34,2.54-2.3,4-5.69,4S68.61,246.2,68.61,242.53Zm8.06-1.42c-.06-1.36-.73-2.11-2-2.11a2.14,2.14,0,0,0-2.15,2.11Z" fill="#fff"/><path d="M81.42,244.44H85c.13.82.5,1.27,1.59,1.27s1.38-.37,1.38-.93-.54-.79-2.09-1c-3-.38-4.28-1.26-4.28-3.61s2.22-3.7,4.82-3.7c2.77,0,4.71.95,5,3.64H87.87A1.25,1.25,0,0,0,86.43,239c-.84,0-1.26.37-1.26.88s.51.75,1.89.93c3.11.38,4.62,1.2,4.62,3.61,0,2.66-2,3.87-5.1,3.87S81.51,246.93,81.42,244.44Z" fill="#fff"/><path d="M93.76,244.4v-5H92.41v-2.62h1.35v-2.35h3.85v2.35h2.22v2.62H97.61V244a1,1,0,0,0,1.14,1.18,2.92,2.92,0,0,0,1.1-.19V248a8.49,8.49,0,0,1-2.13.32C95.18,248.27,93.76,247,93.76,244.4Z" fill="#fff"/><path d="M18.58,266v-.18c0-3.82,2.11-5.87,4.77-5.87a3.64,3.64,0,0,1,3.46,1.9v-6.54h3.85v16.19H26.81v-1.83a3.78,3.78,0,0,1-3.5,2.09C20.71,271.77,18.58,269.9,18.58,266Zm8.34-.07v-.17c0-1.89-.79-2.9-2.21-2.9s-2.22,1-2.22,2.92V266c0,1.89.84,2.86,2.18,2.86S26.92,267.85,26.92,265.94Z" fill="#fff"/><path d="M32.34,266v-.18A5.75,5.75,0,0,1,38.42,260c3.08,0,5.72,1.77,5.72,5.81v1H36.23a2.25,2.25,0,0,0,2.35,2.34c1.26,0,1.8-.58,2-1.33h3.61c-.34,2.54-2.3,4-5.69,4S32.34,269.7,32.34,266Zm8.06-1.42c-.06-1.36-.73-2.11-2-2.11a2.14,2.14,0,0,0-2.15,2.11Z" fill="#fff"/><path d="M45.24,266v-.18C45.24,262,47.35,260,50,260a3.64,3.64,0,0,1,3.46,1.9v-6.54h3.85v16.19H53.47v-1.83a3.78,3.78,0,0,1-3.5,2.09C47.37,271.77,45.24,269.9,45.24,266Zm8.34-.07v-.17c0-1.89-.79-2.9-2.21-2.9s-2.22,1-2.22,2.92V266c0,1.89.84,2.86,2.17,2.86S53.58,267.85,53.58,265.94Z" fill="#fff"/><path d="M59.52,267.6v-7.33h3.84V267c0,1.27.5,1.9,1.6,1.9s1.91-.69,1.91-2.13v-6.47h3.85v11.24H66.87v-1.74a3.7,3.7,0,0,1-3.57,2C61.13,271.77,59.52,270.43,59.52,267.6Z" fill="#fff"/><path d="M72.39,266v-.18a5.66,5.66,0,0,1,6-5.89c2.75,0,5.29,1.21,5.51,4.63H80.29A1.67,1.67,0,0,0,78.48,263c-1.36,0-2.15,1-2.15,2.86V266c0,2,.75,3,2.21,3a1.87,1.87,0,0,0,2-1.87H84c-.11,2.84-2,4.69-5.65,4.69C75,271.77,72.39,269.81,72.39,266Z" fill="#fff"/><path d="M86.05,267.9v-5H84.69v-2.62h1.36v-2.35H89.9v2.35h2.21v2.62H89.9v4.64c0,.82.4,1.18,1.14,1.18a2.9,2.9,0,0,0,1.09-.19v2.93a8.41,8.41,0,0,1-2.13.32C87.47,271.77,86.05,270.54,86.05,267.9Z" fill="#fff"/><path d="M93.81,257.21a2.12,2.12,0,1,1,2.11,2A2,2,0,0,1,93.81,257.21Zm.19,3.06h3.85v11.24H94Z" fill="#fff"/><path d="M99.63,266v-.18c0-3.61,2.69-5.89,6.17-5.89s6.13,2.22,6.13,5.79v.17c0,3.65-2.68,5.85-6.15,5.85S99.63,269.66,99.63,266ZM108,266v-.17c0-1.89-.75-2.94-2.22-2.94s-2.23,1-2.23,2.9v.17c0,1.93.75,3,2.23,3S108,267.83,108,266Z" fill="#fff"/><path d="M113.61,260.27h3.85v1.8a4,4,0,0,1,3.7-2.11c2.17,0,3.67,1.36,3.67,4.24v7.31H121V265c0-1.26-.49-1.89-1.61-1.89s-1.91.69-1.91,2.13v6.3h-3.85Z" fill="#fff"/><path d="M126.1,273.25l1.78-5.65,3.57,1.27-3.07,5.26Zm1.33-9.82a2.15,2.15,0,0,1,2.2-2.18,2.18,2.18,0,1,1,0,4.35A2.14,2.14,0,0,1,127.43,263.43Z" fill="#fff"/><path d="M22.43,283h-4v-3.39H30.84V283h-4v12H22.43Z" fill="#fff"/><path d="M31.5,291.1v-7.33h3.85v6.7c0,1.27.5,1.9,1.59,1.9s1.91-.69,1.91-2.13v-6.47H42.7V295H38.85v-1.74a3.68,3.68,0,0,1-3.56,2C33.11,295.27,31.5,293.93,31.5,291.1Z" fill="#fff"/><path d="M45,283.77h3.85V286a3.54,3.54,0,0,1,3.63-2.39v3.6c-2.34-.07-3.63.66-3.63,2.47V295H45Z" fill="#fff"/><path d="M58,293.27V295H54.18V278.82H58v6.62a4,4,0,0,1,3.51-2c2.62,0,4.75,2,4.75,5.83v.17c0,3.87-2.13,5.81-4.77,5.81A3.66,3.66,0,0,1,58,293.27Zm4.35-3.81v-.17c0-2-.86-2.92-2.22-2.92s-2.23,1-2.23,2.9v.17c0,1.91.83,2.88,2.23,2.88S62.38,291.31,62.38,289.46Z" fill="#fff"/><path d="M67.41,289.53v-.18c0-3.61,2.68-5.89,6.17-5.89s6.12,2.22,6.12,5.79v.17c0,3.65-2.68,5.85-6.14,5.85S67.41,293.16,67.41,289.53Zm8.38-.07v-.17c0-1.89-.75-2.94-2.21-2.94s-2.24,1-2.24,2.9v.17c0,1.93.75,3,2.24,3S75.79,291.33,75.79,289.46Z" fill="#fff"/><path d="M84.67,283h-4v-3.39H93.08V283h-4v12H84.67Z" fill="#fff"/><path d="M92.63,291.89c0-2.64,2.23-3.67,6-3.67h1.08V288c0-1.08-.26-1.79-1.49-1.79a1.38,1.38,0,0,0-1.52,1.34H93.06c.17-2.71,2.3-4.05,5.37-4.05s5.07,1.27,5.07,4.26V295H99.76V293.7a3.67,3.67,0,0,1-3.33,1.57C94.41,295.27,92.63,294.28,92.63,291.89Zm7.05-.81v-.69h-1c-1.55,0-2.24.3-2.24,1.22,0,.65.43,1.06,1.33,1.06A1.7,1.7,0,0,0,99.68,291.08Z" fill="#fff"/><path d="M108.54,289.29,105,283.77h4.43l1.74,3,1.7-3h4L113.31,289l3.89,6h-4.43l-2-3.35-2,3.35h-3.94Z" fill="#fff"/><path d="M18.58,313v-.18c0-3.82,2.11-5.87,4.77-5.87a3.64,3.64,0,0,1,3.46,1.9v-6.54h3.85v16.19H26.81v-1.83a3.78,3.78,0,0,1-3.5,2.09C20.71,318.77,18.58,316.9,18.58,313Zm8.34-.07v-.17c0-1.89-.79-2.9-2.21-2.9s-2.22,1-2.22,2.92V313c0,1.89.84,2.86,2.18,2.86S26.92,314.85,26.92,312.94Z" fill="#fff"/><path d="M32.34,313v-.17c0-3.62,2.69-5.9,6.17-5.9s6.13,2.22,6.13,5.79v.17c0,3.65-2.69,5.85-6.15,5.85S32.34,316.66,32.34,313Zm8.39-.07v-.17c0-1.89-.76-2.94-2.22-2.94s-2.24,1-2.24,2.9v.17c0,1.93.76,3,2.24,3S40.73,314.83,40.73,313Z" fill="#fff"/><path d="M45.71,313v-.17A5.76,5.76,0,0,1,51.8,307c3.07,0,5.72,1.77,5.72,5.81v1H49.6A2.25,2.25,0,0,0,52,316.12c1.27,0,1.8-.58,1.95-1.33h3.62c-.35,2.54-2.3,4-5.7,4S45.71,316.7,45.71,313Zm8.07-1.42c-.07-1.36-.74-2.11-2-2.11a2.14,2.14,0,0,0-2.15,2.11Z" fill="#fff"/><path d="M58.53,314.94h3.54c.13.82.5,1.27,1.6,1.27.94,0,1.37-.37,1.37-.92s-.54-.8-2.08-1c-3-.38-4.28-1.26-4.28-3.61s2.21-3.7,4.81-3.7c2.78,0,4.71,1,5,3.64H65a1.26,1.26,0,0,0-1.44-1.12c-.84,0-1.27.37-1.27.88s.51.75,1.89.93c3.12.38,4.62,1.2,4.62,3.61,0,2.66-2,3.87-5.09,3.87S58.61,317.43,58.53,314.94Z" fill="#fff"/><path d="M70.35,307.27H74.2v1.8A4,4,0,0,1,77.9,307c2.17,0,3.67,1.36,3.67,4.24v7.31H77.73V312c0-1.26-.5-1.89-1.62-1.89s-1.91.69-1.91,2.13v6.3H70.35Z" fill="#fff"/><path d="M83.1,308.47l1.72-5.61,3.4,1.14-3,5.31Z" fill="#fff"/><path d="M90.05,314.9v-5H88.69v-2.62h1.36v-2.35h3.84v2.35h2.22v2.62H93.89v4.64A1,1,0,0,0,95,315.71a2.92,2.92,0,0,0,1.1-.19v2.93a8.41,8.41,0,0,1-2.13.32C91.46,318.77,90.05,317.54,90.05,314.9Z" fill="#fff"/><path d="M97.74,316.57a2.15,2.15,0,0,1,2.2-2.17,2.18,2.18,0,1,1,0,4.35A2.15,2.15,0,0,1,97.74,316.57Z" fill="#fff"/></g></g></g></g></svg>