<?xml version="1.0" encoding="utf-8"?>
<!-- Generator: Adobe Illustrator 23.1.0, SVG Export Plug-In . SVG Version: 6.00 Build 0)  -->
<svg version="1.1" id="Layer_1" xmlns="http://www.w3.org/2000/svg" xmlns:xlink="http://www.w3.org/1999/xlink" x="0px" y="0px"
	 viewBox="0 0 729 91" style="enable-background:new 0 0 729 91;" xml:space="preserve">
<style type="text/css">
	.st0{fill:none;}
	.st1{fill:#FFFFFF;}
</style>
<title>Asset 19</title>
<g>
	<g id="Layer_23">
		<rect x="0.5" y="0.5" class="st0" width="728" height="90"/>
	</g>
	<g id="Get_your_very_own_deduction_detector.">
		<path class="st1" d="M121.2,43.1v-0.2c0-5.2,3.8-8.8,9-8.8c4.1,0,7.7,1.8,8,6.3h-4.9c-0.3-1.6-1.3-2.5-3.1-2.5
			c-2.4,0-3.9,1.9-3.9,5v0.2c0,2.8,1,5,4,5c2.4,0,3.3-1.2,3.4-2.6h-3.2v-3.5h8.1v2.1c0,4.4-2.9,7.7-8.4,7.7
			C124.4,51.9,121.2,48.2,121.2,43.1z"/>
		<path class="st1" d="M139.6,45.5v-0.2c0-4,3-6.6,6.8-6.6c3.4,0,6.4,2,6.4,6.5v1.1H144c-0.1,1.4,1,2.6,2.4,2.6c0.1,0,0.2,0,0.2,0
			c1.4,0,2-0.7,2.2-1.5h4c-0.4,2.8-2.6,4.4-6.4,4.4S139.6,49.6,139.6,45.5z M148.6,43.9c-0.1-1.5-0.8-2.3-2.2-2.3
			c-1.3,0-2.4,1-2.4,2.3H148.6z"/>
		<path class="st1" d="M154.9,47.5V42h-1.5v-3h1.5v-2.6h4.3V39h2.5v3h-2.5v5.2c-0.1,0.6,0.3,1.2,1,1.3c0.1,0,0.2,0,0.3,0
			c0.4,0,0.8-0.1,1.2-0.2v3.2c-0.8,0.2-1.6,0.3-2.4,0.4C156.4,51.9,154.9,50.5,154.9,47.5z"/>
		<path class="st1" d="M171.6,50.3l-5-11.3h4.6l2.6,6.7l2.4-6.7h4.1l-6.7,16.8h-4.1L171.6,50.3z"/>
		<path class="st1" d="M180.1,45.5v-0.2c0-4,3-6.6,6.9-6.6s6.8,2.5,6.8,6.5v0.2c0,4.1-3,6.5-6.9,6.5S180.1,49.5,180.1,45.5z
			 M189.4,45.4v-0.2c0-2.1-0.8-3.3-2.5-3.3s-2.5,1.1-2.5,3.2v0.2c0,2.2,0.8,3.3,2.5,3.3S189.4,47.5,189.4,45.4L189.4,45.4z"/>
		<path class="st1" d="M195.2,47.2V39h4.3v7.5c0,1.4,0.6,2.1,1.8,2.1s2.1-0.8,2.1-2.4V39h4.3v12.6h-4.3v-1.9c-0.8,1.5-2.3,2.4-4,2.2
			C197,51.9,195.2,50.4,195.2,47.2z"/>
		<path class="st1" d="M209.9,39h4.3v2.5c0.6-1.7,2.3-2.8,4.1-2.7v4c-2.6-0.1-4.1,0.7-4.1,2.8v6h-4.3V39z"/>
		<path class="st1" d="M223.1,39h4.6l2.6,8.1l2.6-8.1h4.1l-4.6,12.5h-4.7L223.1,39z"/>
		<path class="st1" d="M236.7,45.5v-0.2c0-4,3-6.6,6.8-6.6c3.4,0,6.4,2,6.4,6.5v1.1h-8.8c-0.1,1.4,1,2.6,2.4,2.6c0.1,0,0.2,0,0.2,0
			c1.4,0,2-0.7,2.2-1.5h4c-0.4,2.8-2.6,4.4-6.4,4.4S236.7,49.6,236.7,45.5z M245.7,43.9c-0.1-1.5-0.8-2.3-2.2-2.3
			c-1.3,0-2.4,1-2.4,2.3H245.7z"/>
		<path class="st1" d="M251.4,39h4.3v2.5c0.6-1.7,2.3-2.8,4.1-2.7v4c-2.6-0.1-4.1,0.7-4.1,2.8v6h-4.3V39z"/>
		<path class="st1" d="M265.4,50.3l-5-11.3h4.7l2.6,6.7L270,39h4.1l-6.7,16.8h-4.1L265.4,50.3z"/>
		<path class="st1" d="M278.9,45.5v-0.2c0-4,3-6.6,6.9-6.6s6.8,2.5,6.8,6.5v0.2c0,4.1-3,6.5-6.9,6.5S278.9,49.5,278.9,45.5z
			 M288.3,45.4v-0.2c0-2.1-0.8-3.3-2.5-3.3s-2.5,1.1-2.5,3.2v0.2c0,2.2,0.8,3.3,2.5,3.3S288.3,47.5,288.3,45.4z"/>
		<path class="st1" d="M292.7,39h4.5l1.8,7.5l2.1-7.5h3.5l1.9,7.5l2-7.5h4.1l-4,12.5h-4.1l-1.9-7l-1.9,7h-4.2L292.7,39z"/>
		<path class="st1" d="M313.7,39h4.3v2c0.8-1.5,2.4-2.4,4.1-2.3c2.4,0,4.1,1.5,4.1,4.7v8.2h-4.3v-7.3c0-1.4-0.5-2.1-1.8-2.1
			s-2.1,0.8-2.1,2.4v7h-4.3V39z"/>
		<path class="st1" d="M332.1,45.4v-0.2c0-4.3,2.4-6.6,5.3-6.6c1.6-0.1,3.1,0.7,3.9,2.1v-7.3h4.3v18.1h-4.3v-2
			c-0.7,1.5-2.3,2.4-3.9,2.3C334.4,51.9,332.1,49.8,332.1,45.4z M341.4,45.4v-0.2c0-2.1-0.9-3.2-2.5-3.2s-2.5,1.1-2.5,3.3v0.2
			c0,2.1,0.9,3.2,2.4,3.2S341.4,47.5,341.4,45.4z"/>
		<path class="st1" d="M347.1,45.5v-0.2c0-4,3-6.6,6.8-6.6c3.4,0,6.4,2,6.4,6.5v1.1h-8.8c-0.1,1.4,1,2.6,2.4,2.6c0.1,0,0.1,0,0.2,0
			c1.4,0,2-0.7,2.2-1.5h4c-0.4,2.8-2.6,4.4-6.4,4.4S347.1,49.6,347.1,45.5z M356.1,43.9c-0.1-1.5-0.8-2.3-2.2-2.3
			c-1.3,0-2.4,1-2.4,2.3H356.1z"/>
		<path class="st1" d="M361.1,45.4v-0.2c0-4.3,2.4-6.6,5.3-6.6c1.6-0.1,3.1,0.7,3.9,2.1v-7.3h4.3v18.1h-4.3v-2
			c-0.7,1.5-2.3,2.4-3.9,2.3C363.5,51.9,361.1,49.8,361.1,45.4z M370.4,45.4v-0.2c0-2.1-0.9-3.2-2.5-3.2s-2.5,1.1-2.5,3.3v0.2
			c0,2.1,0.9,3.2,2.4,3.2S370.4,47.5,370.4,45.4z"/>
		<path class="st1" d="M376.7,47.2V39h4.3v7.5c0,1.4,0.5,2.1,1.8,2.1s2.1-0.8,2.1-2.4V39h4.3v12.6h-4.3v-1.9c-0.8,1.5-2.3,2.4-4,2.2
			C378.5,51.9,376.7,50.4,376.7,47.2z"/>
		<path class="st1" d="M390.7,45.5v-0.2c0-4.2,3-6.6,6.7-6.6c3.1,0,5.9,1.3,6.1,5.2h-4c0-1-0.9-1.8-1.9-1.8c0,0-0.1,0-0.1,0
			c-1.5,0-2.4,1.1-2.4,3.2v0.2c0,2.2,0.8,3.3,2.5,3.3c1.2,0,2.1-0.8,2.2-2c0,0,0-0.1,0-0.1h3.9c-0.1,3.2-2.3,5.2-6.3,5.2
			C393.5,51.9,390.7,49.7,390.7,45.5z"/>
		<path class="st1" d="M405.6,47.5V42h-1.5v-3h1.5v-2.6h4.3V39h2.5v3h-2.5v5.2c-0.1,0.6,0.3,1.2,1,1.3c0.1,0,0.2,0,0.3,0
			c0.4,0,0.8-0.1,1.2-0.2v3.2c-0.8,0.2-1.6,0.3-2.4,0.4C407.1,51.9,405.6,50.5,405.6,47.5z"/>
		<path class="st1" d="M413.9,35.6c-0.1-1.3,0.9-2.4,2.2-2.5c1.3-0.1,2.4,0.9,2.5,2.2s-0.9,2.4-2.2,2.5c-0.1,0-0.1,0-0.2,0
			C415,37.9,413.9,36.9,413.9,35.6C413.9,35.7,413.9,35.6,413.9,35.6z M414.1,39h4.3v12.5h-4.3V39z"/>
		<path class="st1" d="M420,45.5v-0.2c0-4,3-6.6,6.9-6.6s6.8,2.5,6.8,6.5v0.2c0,4.1-3,6.5-6.9,6.5S420,49.5,420,45.5z M429.4,45.4
			v-0.2c0-2.1-0.8-3.3-2.5-3.3s-2.5,1.1-2.5,3.2v0.2c0,2.2,0.8,3.3,2.5,3.3S429.4,47.5,429.4,45.4L429.4,45.4z"/>
		<path class="st1" d="M435.3,39h4.3v2c0.8-1.5,2.4-2.4,4.1-2.3c2.4,0,4.1,1.5,4.1,4.7v8.2h-4.3v-7.3c0-1.4-0.5-2.1-1.8-2.1
			s-2.1,0.8-2.1,2.4v7h-4.3V39z"/>
		<path class="st1" d="M453.6,45.4v-0.2c0-4.3,2.4-6.6,5.3-6.6c1.6-0.1,3.1,0.7,3.9,2.1v-7.3h4.3v18.1h-4.3v-2
			c-0.7,1.5-2.3,2.4-3.9,2.3C456,51.9,453.6,49.8,453.6,45.4z M462.9,45.4v-0.2c0-2.1-0.9-3.2-2.5-3.2S458,43,458,45.2v0.2
			c0,2.1,0.9,3.2,2.4,3.2S462.9,47.5,462.9,45.4z"/>
		<path class="st1" d="M468.6,45.5v-0.2c0-4,3-6.6,6.8-6.6c3.4,0,6.4,2,6.4,6.5v1.1H473c-0.1,1.4,1,2.6,2.4,2.6c0.1,0,0.2,0,0.2,0
			c1.4,0,2-0.7,2.2-1.5h4c-0.4,2.8-2.6,4.4-6.4,4.4S468.6,49.6,468.6,45.5z M477.6,43.9c-0.1-1.5-0.8-2.3-2.2-2.3
			c-1.3,0-2.4,1-2.4,2.3H477.6z"/>
		<path class="st1" d="M483.9,47.5V42h-1.5v-3h1.5v-2.6h4.3V39h2.5v3h-2.5v5.2c-0.1,0.6,0.3,1.2,1,1.3c0.1,0,0.2,0,0.3,0
			c0.4,0,0.8-0.1,1.2-0.2v3.2c-0.8,0.2-1.6,0.3-2.4,0.4C485.4,51.9,483.9,50.5,483.9,47.5z"/>
		<path class="st1" d="M491.6,45.5v-0.2c0-4,3-6.6,6.8-6.6c3.4,0,6.4,2,6.4,6.5v1.1h-8.8c-0.1,1.4,1,2.6,2.4,2.6c0.1,0,0.1,0,0.2,0
			c1.4,0,2-0.7,2.2-1.5h4c-0.4,2.8-2.6,4.4-6.4,4.4S491.6,49.6,491.6,45.5z M500.6,43.9c-0.1-1.5-0.8-2.3-2.2-2.3
			c-1.3,0-2.4,1-2.4,2.3H500.6z"/>
		<path class="st1" d="M505.6,45.5v-0.2c0-4.2,3-6.6,6.7-6.6c3.1,0,5.9,1.3,6.2,5.2h-4c0-1-0.9-1.8-1.9-1.8c0,0-0.1,0-0.1,0
			c-1.5,0-2.4,1.1-2.4,3.2v0.2c0,2.2,0.8,3.3,2.5,3.3c1.2,0,2.1-0.8,2.2-2c0,0,0-0.1,0-0.1h3.9c-0.1,3.2-2.3,5.2-6.3,5.2
			C508.4,51.9,505.6,49.7,505.6,45.5z"/>
		<path class="st1" d="M520.5,47.5V42h-1.5v-3h1.5v-2.6h4.3V39h2.5v3h-2.5v5.2c-0.1,0.6,0.4,1.2,1,1.3c0.1,0,0.2,0,0.2,0
			c0.4,0,0.8-0.1,1.2-0.2v3.3c-0.8,0.2-1.6,0.3-2.4,0.4C522,51.9,520.5,50.5,520.5,47.5z"/>
		<path class="st1" d="M528.2,45.5v-0.2c0-4,3-6.6,6.9-6.6s6.8,2.5,6.8,6.5v0.2c0,4.1-3,6.5-6.9,6.5S528.2,49.5,528.2,45.5z
			 M537.5,45.4v-0.2c0-2.1-0.8-3.3-2.5-3.3s-2.5,1.1-2.5,3.2v0.2c0,2.2,0.8,3.3,2.5,3.3S537.5,47.5,537.5,45.4z"/>
		<path class="st1" d="M543.4,39h4.3v2.5c0.6-1.7,2.2-2.8,4-2.7v4c-2.6-0.1-4,0.7-4,2.8v6h-4.3V39z"/>
		<path class="st1" d="M551.7,49.4c0-1.3,1-2.4,2.4-2.4c0,0,0,0,0.1,0c1.3-0.1,2.5,0.9,2.6,2.3s-0.9,2.5-2.3,2.6c-0.1,0-0.2,0-0.3,0
			c-1.3,0-2.4-1-2.4-2.3C551.7,49.5,551.7,49.4,551.7,49.4z"/>
	</g>
</g>
</svg>
