<svg xmlns="http://www.w3.org/2000/svg" viewBox="0 0 729 91"><title>Asset 19</title><g id="Layer_2" data-name="Layer 2"><g id="Layer_23" data-name="Layer 23"><rect x="0.5" y="0.5" width="728" height="90" fill="none" stroke="#000" stroke-miterlimit="10"/></g><g id="Get_your_very_own_deduction_detector." data-name="Get your very own deduction detector."><path d="M121.24,43.1v-.19c0-5.24,3.84-8.76,9-8.76,4.06,0,7.66,1.84,8,6.31h-4.87c-.25-1.61-1.28-2.45-3.1-2.45-2.43,0-3.89,1.87-3.89,5v.19c0,2.79,1,4.95,4,4.95,2.4,0,3.31-1.23,3.41-2.6h-3.22V42.09h8.07V44.2c0,4.37-2.86,7.66-8.41,7.66C124.41,51.86,121.24,48.24,121.24,43.1Z" fill="#fff"/><path d="M139.63,45.45v-.19c0-4,3-6.58,6.79-6.58,3.43,0,6.38,2,6.38,6.48v1.13H144a2.51,2.51,0,0,0,2.62,2.62c1.41,0,2-.65,2.18-1.49h4c-.38,2.83-2.56,4.44-6.36,4.44S139.63,49.56,139.63,45.45Zm9-1.58c-.07-1.52-.82-2.35-2.21-2.35a2.38,2.38,0,0,0-2.4,2.35Z" fill="#fff"/><path d="M154.87,47.54V42h-1.51V39h1.51V36.4h4.29V39h2.48V42h-2.48v5.18a1.15,1.15,0,0,0,1.28,1.32,3.32,3.32,0,0,0,1.22-.21V51.5a9.19,9.19,0,0,1-2.38.36C156.45,51.86,154.87,50.49,154.87,47.54Z" fill="#fff"/><path d="M171.57,50.3l-5-11.28h4.65l2.59,6.69L176.2,39h4.11l-6.72,16.75h-4.11Z" fill="#fff"/><path d="M180.07,45.45v-.19c0-4,3-6.58,6.89-6.58s6.84,2.47,6.84,6.46v.19c0,4.08-3,6.53-6.87,6.53S180.07,49.51,180.07,45.45Zm9.36-.07v-.19c0-2.11-.84-3.29-2.47-3.29s-2.5,1.13-2.5,3.24v.19c0,2.16.84,3.34,2.5,3.34S189.43,47.47,189.43,45.38Z" fill="#fff"/><path d="M195.21,47.2V39h4.3v7.49c0,1.41.55,2.11,1.77,2.11s2.14-.77,2.14-2.38V39h4.3V51.57h-4.3V49.63a4.13,4.13,0,0,1-4,2.23C197,51.86,195.21,50.37,195.21,47.2Z" fill="#fff"/><path d="M209.9,39h4.29v2.5a4,4,0,0,1,4.06-2.67v4c-2.62-.07-4.06.74-4.06,2.76v6H209.9Z" fill="#fff"/><path d="M223.1,39h4.58l2.62,8.09L232.87,39H237l-4.58,12.55h-4.68Z" fill="#fff"/><path d="M236.71,45.45v-.19c0-4,3-6.58,6.79-6.58,3.43,0,6.38,2,6.38,6.48v1.13h-8.83a2.51,2.51,0,0,0,2.62,2.62c1.41,0,2-.65,2.18-1.49h4c-.38,2.83-2.57,4.44-6.36,4.44S236.71,49.56,236.71,45.45Zm9-1.58c-.08-1.52-.82-2.35-2.21-2.35a2.38,2.38,0,0,0-2.4,2.35Z" fill="#fff"/><path d="M251.37,39h4.3v2.5a4,4,0,0,1,4.05-2.67v4c-2.61-.07-4.05.74-4.05,2.76v6h-4.3Z" fill="#fff"/><path d="M265.41,50.3l-5-11.28h4.66l2.59,6.69L270,39h4.11l-6.72,16.75h-4.11Z" fill="#fff"/><path d="M278.94,45.45v-.19c0-4,3-6.58,6.89-6.58s6.84,2.47,6.84,6.46v.19c0,4.08-3,6.53-6.86,6.53S278.94,49.51,278.94,45.45Zm9.37-.07v-.19c0-2.11-.84-3.29-2.48-3.29s-2.49,1.13-2.49,3.24v.19c0,2.16.84,3.34,2.49,3.34S288.31,47.47,288.31,45.38Z" fill="#fff"/><path d="M292.72,39h4.49L299,46.53,301.15,39h3.45l1.87,7.51,2-7.51h4.08l-4,12.55h-4.1l-1.88-7-1.94,7h-4.18Z" fill="#fff"/><path d="M313.7,39H318v2a4.45,4.45,0,0,1,4.13-2.35c2.43,0,4.11,1.51,4.11,4.73v8.16h-4.3V44.28c0-1.42-.55-2.12-1.8-2.12s-2.14.77-2.14,2.38v7H313.7Z" fill="#fff"/><path d="M332.06,45.43v-.19c0-4.28,2.35-6.56,5.32-6.56a4.08,4.08,0,0,1,3.87,2.11V33.5h4.29V51.57h-4.29v-2a4.23,4.23,0,0,1-3.91,2.33C334.43,51.86,332.06,49.77,332.06,45.43Zm9.31-.07v-.2c0-2.11-.89-3.24-2.47-3.24s-2.48,1.08-2.48,3.27v.19c0,2.11.94,3.19,2.43,3.19S341.37,47.49,341.37,45.36Z" fill="#fff"/><path d="M347.06,45.45v-.19c0-4,3-6.58,6.79-6.58,3.43,0,6.38,2,6.38,6.48v1.13H351.4A2.51,2.51,0,0,0,354,48.91c1.41,0,2-.65,2.18-1.49h4c-.38,2.83-2.56,4.44-6.36,4.44S347.06,49.56,347.06,45.45Zm9-1.58c-.08-1.52-.82-2.35-2.21-2.35a2.38,2.38,0,0,0-2.4,2.35Z" fill="#fff"/><path d="M361.1,45.43v-.19c0-4.28,2.35-6.56,5.32-6.56a4.08,4.08,0,0,1,3.87,2.11V33.5h4.29V51.57h-4.29v-2a4.23,4.23,0,0,1-3.91,2.33C363.47,51.86,361.1,49.77,361.1,45.43Zm9.31-.07v-.2c0-2.11-.89-3.24-2.47-3.24s-2.48,1.08-2.48,3.27v.19c0,2.11.94,3.19,2.43,3.19S370.41,47.49,370.41,45.36Z" fill="#fff"/><path d="M376.67,47.2V39H381v7.49c0,1.41.55,2.11,1.77,2.11s2.14-.77,2.14-2.38V39h4.3V51.57h-4.3V49.63a4.13,4.13,0,0,1-4,2.23C378.47,51.86,376.67,50.37,376.67,47.2Z" fill="#fff"/><path d="M390.69,45.45v-.19c0-4.18,3-6.58,6.69-6.58,3.08,0,5.91,1.35,6.15,5.16h-4a1.86,1.86,0,0,0-2-1.82c-1.51,0-2.4,1.08-2.4,3.19v.19c0,2.19.84,3.32,2.47,3.32a2.1,2.1,0,0,0,2.19-2.09h3.86c-.12,3.17-2.26,5.23-6.31,5.23C393.54,51.86,390.69,49.68,390.69,45.45Z" fill="#fff"/><path d="M405.57,47.54V42h-1.52V39h1.52V36.4h4.29V39h2.48V42h-2.48v5.18a1.15,1.15,0,0,0,1.28,1.32,3.32,3.32,0,0,0,1.22-.21V51.5a9.19,9.19,0,0,1-2.38.36C407.15,51.86,405.57,50.49,405.57,47.54Z" fill="#fff"/><path d="M413.87,35.61a2.37,2.37,0,1,1,2.35,2.21A2.24,2.24,0,0,1,413.87,35.61Zm.22,3.41h4.29V51.57h-4.29Z" fill="#fff"/><path d="M420,45.45v-.19c0-4,3-6.58,6.89-6.58s6.84,2.47,6.84,6.46v.19c0,4.08-3,6.53-6.86,6.53S420,49.51,420,45.45Zm9.37-.07v-.19c0-2.11-.84-3.29-2.48-3.29s-2.49,1.13-2.49,3.24v.19c0,2.16.84,3.34,2.49,3.34S429.38,47.47,429.38,45.38Z" fill="#fff"/><path d="M435.25,39h4.3v2a4.44,4.44,0,0,1,4.13-2.35c2.42,0,4.1,1.51,4.1,4.73v8.16h-4.29V44.28c0-1.42-.55-2.12-1.8-2.12s-2.14.77-2.14,2.38v7h-4.3Z" fill="#fff"/><path d="M453.61,45.43v-.19c0-4.28,2.36-6.56,5.33-6.56a4.08,4.08,0,0,1,3.87,2.11V33.5h4.29V51.57h-4.29v-2a4.24,4.24,0,0,1-3.92,2.33C456,51.86,453.61,49.77,453.61,45.43Zm9.32-.07v-.2c0-2.11-.89-3.24-2.47-3.24S458,43,458,45.19v.19c0,2.11.94,3.19,2.43,3.19S462.93,47.49,462.93,45.36Z" fill="#fff"/><path d="M468.61,45.45v-.19c0-4,3-6.58,6.8-6.58,3.43,0,6.38,2,6.38,6.48v1.13H473a2.51,2.51,0,0,0,2.62,2.62c1.41,0,2-.65,2.18-1.49h4c-.38,2.83-2.57,4.44-6.36,4.44S468.61,49.56,468.61,45.45Zm9-1.58c-.08-1.52-.82-2.35-2.21-2.35a2.38,2.38,0,0,0-2.4,2.35Z" fill="#fff"/><path d="M483.85,47.54V42h-1.51V39h1.51V36.4h4.3V39h2.47V42h-2.47v5.18a1.15,1.15,0,0,0,1.27,1.32,3.41,3.41,0,0,0,1.23-.21V51.5a9.26,9.26,0,0,1-2.38.36C485.44,51.86,483.85,50.49,483.85,47.54Z" fill="#fff"/><path d="M491.58,45.45v-.19c0-4,3-6.58,6.8-6.58,3.43,0,6.38,2,6.38,6.48v1.13h-8.83a2.51,2.51,0,0,0,2.61,2.62c1.42,0,2-.65,2.19-1.49h4c-.38,2.83-2.57,4.44-6.36,4.44S491.58,49.56,491.58,45.45Zm9-1.58c-.07-1.52-.81-2.35-2.2-2.35A2.39,2.39,0,0,0,496,43.87Z" fill="#fff"/><path d="M505.57,45.45v-.19c0-4.18,3-6.58,6.7-6.58,3.07,0,5.9,1.35,6.15,5.16h-4a1.85,1.85,0,0,0-2-1.82c-1.52,0-2.4,1.08-2.4,3.19v.19c0,2.19.84,3.32,2.47,3.32a2.09,2.09,0,0,0,2.18-2.09h3.87c-.12,3.17-2.26,5.23-6.32,5.23C508.43,51.86,505.57,49.68,505.57,45.45Z" fill="#fff"/><path d="M520.45,47.54V42h-1.51V39h1.51V36.4h4.3V39h2.47V42h-2.47v5.18A1.15,1.15,0,0,0,526,48.45a3.41,3.41,0,0,0,1.23-.21V51.5a9.26,9.26,0,0,1-2.38.36C522,51.86,520.45,50.49,520.45,47.54Z" fill="#fff"/><path d="M528.18,45.45v-.19c0-4,3-6.58,6.89-6.58s6.84,2.47,6.84,6.46v.19c0,4.08-3,6.53-6.86,6.53S528.18,49.51,528.18,45.45Zm9.36-.07v-.19c0-2.11-.84-3.29-2.47-3.29s-2.5,1.13-2.5,3.24v.19c0,2.16.84,3.34,2.5,3.34S537.54,47.47,537.54,45.38Z" fill="#fff"/><path d="M543.42,39h4.3v2.5a4,4,0,0,1,4-2.67v4c-2.61-.07-4,.74-4,2.76v6h-4.3Z" fill="#fff"/><path d="M551.73,49.41A2.39,2.39,0,0,1,554.17,47a2.43,2.43,0,1,1,0,4.85A2.39,2.39,0,0,1,551.73,49.41Z" fill="#fff"/></g></g></svg>