<svg xmlns="http://www.w3.org/2000/svg" viewBox="0 0 300 600"><title>H6</title><g id="Layer_2" data-name="Layer 2"><g id="Artboard_1" data-name="Artboard 1" style="isolation:isolate"><g id="headline1"><g id="Tax_prep_delivered_many_ways._Drop_off_try_Tax_Pro_Go_or_fil" data-name="Tax prep  delivered many ways. Drop off, try Tax Pro Go, or fil"><path d="M28.81,111.53H21.2V105H44.9v6.5H37.29v22.92H28.81Z" fill="#fff"/><path d="M43.42,128.48c0-5.06,4.28-7,11.44-7h2.06V121c0-2-.49-3.41-2.84-3.41a2.64,2.64,0,0,0-2.92,2.55H44.25c.32-5.19,4.4-7.74,10.28-7.74s9.72,2.43,9.72,8.15v13.95H57.08v-2.51c-1,1.57-2.92,3-6.37,3C46.84,135,43.42,133.05,43.42,128.48Zm13.5-1.56V125.6H55c-3,0-4.28.58-4.28,2.35,0,1.23.82,2,2.55,2C55.36,130,56.92,128.77,56.92,126.92Z" fill="#fff"/><path d="M73.26,123.5l-6.71-10.57H75l3.33,5.68,3.25-5.68h7.57l-6.79,10,7.45,11.52H81.36L77.54,128l-3.91,6.42H66.1Z" fill="#fff"/><path d="M99.39,112.93h7.37v3.21a7.58,7.58,0,0,1,6.7-3.79c5,0,9.1,3.79,9.1,11.15v.33c0,7.41-4.07,11.12-9.14,11.12a7.09,7.09,0,0,1-6.66-3.67v10.37H99.39Zm15.68,10.9v-.33c0-3.78-1.65-5.59-4.24-5.59s-4.28,1.93-4.28,5.55v.33c0,3.67,1.61,5.52,4.28,5.52S115.07,127.37,115.07,123.83Z" fill="#fff"/><path d="M125.24,112.93h7.36v4.28a6.79,6.79,0,0,1,7-4.57v6.87c-4.49-.12-7,1.28-7,4.74v10.2h-7.36Z" fill="#fff"/><path d="M140.87,124v-.33c0-6.92,5.15-11.28,11.65-11.28,5.88,0,10.95,3.38,10.95,11.11v1.94H148.32c.21,2.84,1.85,4.48,4.49,4.48,2.43,0,3.45-1.11,3.74-2.55h6.92c-.66,4.86-4.41,7.62-10.91,7.62C145.81,135,140.87,131,140.87,124Zm15.44-2.72c-.13-2.59-1.4-4-3.79-4-2.22,0-3.75,1.44-4.12,4Z" fill="#fff"/><path d="M166,112.93h7.37v3.21a7.58,7.58,0,0,1,6.7-3.79c5,0,9.1,3.79,9.1,11.15v.33c0,7.41-4.08,11.12-9.14,11.12a7.09,7.09,0,0,1-6.66-3.67v10.37H166Zm15.68,10.9v-.33c0-3.78-1.65-5.59-4.24-5.59s-4.28,1.93-4.28,5.55v.33c0,3.67,1.6,5.52,4.28,5.52S181.7,127.37,181.7,123.83Z" fill="#fff"/><path d="M21.44,168.92v-.33c0-7.33,4-11.24,9.14-11.24A7,7,0,0,1,37.21,161V148.46h7.36v31H37.21V176a7.25,7.25,0,0,1-6.71,4C25.52,180,21.44,176.37,21.44,168.92Zm16-.13v-.33c0-3.62-1.52-5.55-4.24-5.55s-4.24,1.85-4.24,5.59v.33c0,3.63,1.61,5.48,4.16,5.48S37.41,172.46,37.41,168.79Z" fill="#fff"/><path d="M47.17,169v-.33c0-6.92,5.14-11.28,11.64-11.28,5.89,0,11,3.38,11,11.11v1.94H54.62c.2,2.84,1.85,4.48,4.48,4.48,2.43,0,3.46-1.11,3.75-2.55h6.91c-.66,4.86-4.4,7.62-10.91,7.62C52.1,180,47.17,176,47.17,169Zm15.43-2.72c-.12-2.59-1.4-4-3.79-4-2.22,0-3.74,1.44-4.11,4Z" fill="#fff"/><path d="M72.52,148.46h7.32v31H72.52Z" fill="#fff"/><path d="M83.63,152.08a4.06,4.06,0,1,1,4,3.79A3.84,3.84,0,0,1,83.63,152.08Zm.37,5.85h7.37v21.52H84Z" fill="#fff"/><path d="M93.46,157.93h7.87l4.48,13.87,4.4-13.87h7l-7.86,21.52h-8Z" fill="#fff"/><path d="M116.8,169v-.33c0-6.92,5.14-11.28,11.65-11.28,5.88,0,10.94,3.38,10.94,11.11v1.94H124.25c.2,2.84,1.85,4.48,4.48,4.48,2.43,0,3.46-1.11,3.75-2.55h6.91c-.66,4.86-4.4,7.62-10.9,7.62C121.74,180,116.8,176,116.8,169Zm15.43-2.72c-.12-2.59-1.4-4-3.78-4-2.23,0-3.75,1.44-4.12,4Z" fill="#fff"/><path d="M141.94,157.93h7.37v4.28a6.79,6.79,0,0,1,7-4.57v6.87c-4.49-.12-7,1.28-7,4.74v10.2h-7.37Z" fill="#fff"/><path d="M157.58,169v-.33c0-6.92,5.15-11.28,11.65-11.28,5.88,0,11,3.38,11,11.11v1.94H165c.21,2.84,1.85,4.48,4.49,4.48,2.43,0,3.45-1.11,3.74-2.55h6.92c-.66,4.86-4.41,7.62-10.91,7.62C162.52,180,157.58,176,157.58,169ZM173,166.24c-.13-2.59-1.4-4-3.79-4-2.22,0-3.74,1.44-4.12,4Z" fill="#fff"/><path d="M181.66,168.92v-.33c0-7.33,4-11.24,9.13-11.24a7,7,0,0,1,6.63,3.62V148.46h7.37v31h-7.37V176a7.25,7.25,0,0,1-6.71,4C185.73,180,181.66,176.37,181.66,168.92Zm16-.13v-.33c0-3.62-1.53-5.55-4.24-5.55s-4.24,1.85-4.24,5.59v.33c0,3.63,1.6,5.48,4.16,5.48S197.63,172.46,197.63,168.79Z" fill="#fff"/><path d="M22.51,202.93h7.37v3.29a7.52,7.52,0,0,1,6.75-3.87,5.86,5.86,0,0,1,5.84,3.58,8.55,8.55,0,0,1,7.12-3.58c4.08,0,7,2.64,7,8v14.07H49.26V211.61c0-2.18-1.07-3.25-2.75-3.25-2,0-3.3,1.28-3.3,3.62v12.47H35.93V211.61c0-2.18-1.07-3.25-2.76-3.25-2,0-3.29,1.28-3.29,3.62v12.47H22.51Z" fill="#fff"/><path d="M59,218.48c0-5.06,4.28-7,11.44-7h2.06V211c0-2-.5-3.41-2.84-3.41a2.65,2.65,0,0,0-2.93,2.55H59.8c.33-5.19,4.4-7.74,10.29-7.74s9.71,2.43,9.71,8.15v13.95H72.64v-2.51c-1,1.57-2.92,3-6.38,3C62.39,225,59,223.05,59,218.48Zm13.5-1.56V215.6H70.54c-3,0-4.28.58-4.28,2.35,0,1.23.82,2,2.55,2C70.91,220,72.48,218.77,72.48,216.92Z" fill="#fff"/><path d="M83.38,202.93h7.37v3.46a7.59,7.59,0,0,1,7.08-4c4.15,0,7,2.6,7,8.11v14H97.5V211.94c0-2.43-1-3.62-3.09-3.62s-3.66,1.32-3.66,4.07v12.06H83.38Z" fill="#fff"/><path d="M114.45,222.27l-8.6-19.34h8l4.44,11.48,4.12-11.48h7l-11.52,28.72h-7Z" fill="#fff"/><path d="M137,202.93h7.69l3.13,12.88,3.62-12.88h5.93l3.21,12.88,3.49-12.88h7l-6.83,21.52h-7l-3.21-12-3.33,12h-7.16Z" fill="#fff"/><path d="M170.92,218.48c0-5.06,4.28-7,11.44-7h2V211c0-2-.49-3.41-2.83-3.41a2.65,2.65,0,0,0-2.93,2.55h-6.91c.33-5.19,4.4-7.74,10.29-7.74s9.71,2.43,9.71,8.15v13.95h-7.16v-2.51c-1,1.57-2.92,3-6.38,3C174.33,225,170.92,223.05,170.92,218.48Zm13.49-1.56V215.6h-1.93c-3,0-4.28.58-4.28,2.35,0,1.23.82,2,2.55,2C182.85,220,184.41,218.77,184.41,216.92Z" fill="#fff"/><path d="M201.33,222.27l-8.6-19.34h8l4.45,11.48,4.11-11.48h7l-11.52,28.72h-7Z" fill="#fff"/><path d="M216.64,217.62h6.79c.25,1.56.95,2.43,3,2.43,1.82,0,2.64-.7,2.64-1.77s-1-1.52-4-1.94c-5.76-.74-8.19-2.42-8.19-6.91,0-4.77,4.24-7.08,9.22-7.08,5.3,0,9,1.81,9.5,7H229a2.41,2.41,0,0,0-2.76-2.14c-1.61,0-2.43.7-2.43,1.68s1,1.44,3.62,1.77c6,.75,8.85,2.31,8.85,6.92,0,5.1-3.79,7.41-9.75,7.41C220.38,225,216.8,222.39,216.64,217.62Z" fill="#fff"/><path d="M238.37,220.75a4.1,4.1,0,0,1,4.2-4.16,4.16,4.16,0,1,1,0,8.31A4.1,4.1,0,0,1,238.37,220.75Z" fill="#fff"/><path d="M23.17,240h10.7c10.46,0,15.76,5.22,15.76,14.36v.33c0,9.18-5.43,14.73-15.8,14.73H23.17ZM33.58,263c5,0,7.25-2.63,7.25-8.11v-.33c0-5.59-2.22-8-7.33-8H31.65V263Z" fill="#fff"/><path d="M52.48,247.93h7.36v4.28a6.79,6.79,0,0,1,7-4.57v6.87c-4.49-.12-7,1.28-7,4.74v10.2H52.48Z" fill="#fff"/><path d="M68.11,259v-.33c0-6.92,5.15-11.28,11.81-11.28s11.73,4.24,11.73,11.07v.33c0,7-5.14,11.2-11.77,11.2S68.11,265.91,68.11,259Zm16-.13v-.33c0-3.62-1.44-5.63-4.24-5.63s-4.28,1.93-4.28,5.55v.33c0,3.71,1.44,5.72,4.28,5.72S84.16,262.41,84.16,258.83Z" fill="#fff"/><path d="M94.25,247.93h7.36v3.21a7.61,7.61,0,0,1,6.71-3.79c5,0,9.1,3.79,9.1,11.15v.33c0,7.41-4.08,11.12-9.14,11.12a7.11,7.11,0,0,1-6.67-3.67v10.37H94.25Zm15.68,10.9v-.33c0-3.78-1.65-5.59-4.24-5.59s-4.28,1.93-4.28,5.55v.33c0,3.67,1.6,5.52,4.28,5.52S109.93,262.37,109.93,258.83Z" fill="#fff"/><path d="M126.43,259v-.33c0-6.92,5.14-11.28,11.81-11.28S150,251.59,150,258.42v.33c0,7-5.15,11.2-11.77,11.2S126.43,265.91,126.43,259Zm16-.13v-.33c0-3.62-1.44-5.63-4.24-5.63S134,254.8,134,258.42v.33c0,3.71,1.44,5.72,4.28,5.72S142.48,262.41,142.48,258.83Z" fill="#fff"/><path d="M153.67,253H151v-5h2.71v-1.65c0-5.35,3.29-7.86,8.4-7.86a12.65,12.65,0,0,1,3.29.41v5.4a6.28,6.28,0,0,0-2-.29,2.15,2.15,0,0,0-2.38,2.34v1.65h6.25V246c0-5.35,3.38-7.91,8.44-7.91a12.88,12.88,0,0,1,3.37.46V244a6.53,6.53,0,0,0-2-.29,2.15,2.15,0,0,0-2.43,2.35v1.89H179v5h-4.36v16.5h-7.37V253H161v16.5h-7.33Z" fill="#fff"/><path d="M177.42,272.79,180.88,262l6.83,2.43-5.93,10.08Z" fill="#fff"/><path d="M199.4,262.54V253h-2.6v-5h2.6v-4.49h7.36v4.49H211v5h-4.24v8.89a2,2,0,0,0,2.18,2.26,5.54,5.54,0,0,0,2.1-.37v5.6A15.29,15.29,0,0,1,207,270C202.11,270,199.4,267.6,199.4,262.54Z" fill="#fff"/><path d="M213.8,247.93h7.37v4.28a6.78,6.78,0,0,1,7-4.57v6.87c-4.49-.12-7,1.28-7,4.74v10.2H213.8Z" fill="#fff"/><path d="M237.88,267.27l-8.61-19.34h8l4.44,11.48,4.12-11.48h7l-11.52,28.72h-7Z" fill="#fff"/><path d="M28.81,291.53H21.2V285H44.9v6.5H37.29v22.92H28.81Z" fill="#fff"/><path d="M43.42,308.48c0-5.06,4.28-7,11.44-7h2.06V301c0-2.05-.49-3.41-2.84-3.41a2.64,2.64,0,0,0-2.92,2.55H44.25c.32-5.19,4.4-7.74,10.28-7.74s9.72,2.43,9.72,8.15v13.95H57.08v-2.51c-1,1.56-2.92,3-6.37,3C46.84,315,43.42,313.05,43.42,308.48Zm13.5-1.56V305.6H55c-3,0-4.28.58-4.28,2.35,0,1.23.82,2,2.55,2C55.36,310,56.92,308.77,56.92,306.92Z" fill="#fff"/><path d="M73.26,303.5l-6.71-10.57H75l3.33,5.68,3.25-5.68h7.57l-6.79,10,7.45,11.52H81.36L77.54,308l-3.91,6.42H66.1Z" fill="#fff"/><path d="M100.05,285h11.19c8.07,0,11.81,3.58,11.81,9.83V295c0,6.17-4.15,9.5-11.44,9.5h-3.17v9.92h-8.39Zm10.82,13.74c2.72,0,4.16-1.27,4.16-3.7v-.17c0-2.51-1.48-3.54-4.12-3.54h-2.47v7.41Z" fill="#fff"/><path d="M125.61,292.93H133v4.28a6.79,6.79,0,0,1,7-4.57v6.87c-4.49-.12-7,1.28-7,4.74v10.2h-7.36Z" fill="#fff"/><path d="M141.24,304v-.33c0-6.92,5.15-11.28,11.81-11.28s11.73,4.24,11.73,11.07v.33c0,7-5.14,11.2-11.77,11.2S141.24,310.91,141.24,304Zm16-.13v-.33c0-3.62-1.44-5.63-4.24-5.63s-4.27,1.93-4.27,5.55v.33c0,3.71,1.44,5.72,4.27,5.72S157.29,307.41,157.29,303.83Z" fill="#fff"/><path d="M174,299.92v-.33c0-9,6.59-15,15.43-15,7,0,13.13,3.17,13.71,10.83h-8.36c-.41-2.76-2.18-4.2-5.3-4.2-4.16,0-6.67,3.21-6.67,8.52v.33c0,4.77,1.77,8.48,6.87,8.48,4.12,0,5.68-2.1,5.85-4.45H190V298.2H203.8v3.62c0,7.49-4.9,13.13-14.41,13.13C179.39,315,174,308.73,174,299.92Z" fill="#fff"/><path d="M205.49,304v-.33c0-6.92,5.14-11.28,11.81-11.28S229,296.59,229,303.42v.33c0,7-5.15,11.2-11.77,11.2S205.49,310.91,205.49,304Zm16-.13v-.33c0-3.62-1.45-5.63-4.24-5.63S213,299.8,213,303.42v.33c0,3.71,1.44,5.72,4.28,5.72S221.54,307.41,221.54,303.83Z" fill="#fff"/><path d="M229.19,317.78,232.65,307l6.83,2.43-5.93,10.08Z" fill="#fff"/><path d="M21.36,349v-.33c0-6.92,5.15-11.28,11.81-11.28s11.73,4.24,11.73,11.07v.33c0,7-5.14,11.2-11.77,11.2S21.36,355.91,21.36,349Zm16-.13v-.33c0-3.62-1.44-5.63-4.24-5.63s-4.28,1.93-4.28,5.55v.33c0,3.71,1.44,5.72,4.28,5.72S37.41,352.41,37.41,348.83Z" fill="#fff"/><path d="M47.5,337.93h7.36v4.28a6.79,6.79,0,0,1,7-4.57v6.87c-4.49-.12-7,1.28-7,4.74v10.2H47.5Z" fill="#fff"/><path d="M73.09,343H70.38v-5h2.71V336c0-5.35,3.34-7.91,8.44-7.91a12.88,12.88,0,0,1,3.37.46V334a6.53,6.53,0,0,0-2-.29A2.17,2.17,0,0,0,80.42,336v1.89h4.36v5H80.42v16.5H73.09Z" fill="#fff"/><path d="M87.08,332.08a4.06,4.06,0,1,1,4,3.79A3.84,3.84,0,0,1,87.08,332.08Zm.38,5.85h7.36v21.52H87.46Z" fill="#fff"/><path d="M99,328.46h7.32v31H99Z" fill="#fff"/><path d="M109.1,349v-.33c0-6.92,5.15-11.28,11.65-11.28,5.88,0,10.94,3.38,10.94,11.11v1.94H116.55c.21,2.84,1.85,4.48,4.49,4.48,2.42,0,3.45-1.11,3.74-2.55h6.91c-.65,4.86-4.4,7.62-10.9,7.62C114,360,109.1,356,109.1,349Zm15.43-2.72c-.12-2.59-1.39-4-3.78-4-2.22,0-3.75,1.44-4.12,4Z" fill="#fff"/><path d="M140.58,349v-.33c0-6.92,5.15-11.28,11.82-11.28s11.72,4.24,11.72,11.07v.33c0,7-5.14,11.2-11.77,11.2S140.58,355.91,140.58,349Zm16-.13v-.33c0-3.62-1.44-5.63-4.23-5.63s-4.28,1.93-4.28,5.55v.33c0,3.71,1.44,5.72,4.28,5.72S156.63,352.41,156.63,348.83Z" fill="#fff"/><path d="M166.72,337.93h7.36v3.45a7.61,7.61,0,0,1,7.08-4c4.16,0,7,2.59,7,8.11v14h-7.37V346.94c0-2.43-.94-3.62-3.08-3.62s-3.67,1.32-3.67,4.07v12.06h-7.36Z" fill="#fff"/><path d="M192,328.46h7.32v31H192Z" fill="#fff"/><path d="M203.1,332.08a4.06,4.06,0,1,1,4,3.79A3.84,3.84,0,0,1,203.1,332.08Zm.37,5.85h7.36v21.52h-7.36Z" fill="#fff"/><path d="M214.79,337.93h7.36v3.45a7.6,7.6,0,0,1,7.08-4c4.16,0,7,2.59,7,8.11v14H228.9V346.94c0-2.43-1-3.62-3.09-3.62s-3.66,1.32-3.66,4.07v12.06h-7.36Z" fill="#fff"/><path d="M238.7,349v-.33c0-6.92,5.14-11.28,11.64-11.28,5.89,0,11,3.38,11,11.11v1.94H246.15c.2,2.84,1.85,4.48,4.48,4.48,2.43,0,3.46-1.11,3.75-2.55h6.91c-.66,4.86-4.4,7.62-10.91,7.62C243.63,360,238.7,356,238.7,349Zm15.43-2.72c-.12-2.59-1.4-4-3.79-4-2.22,0-3.74,1.44-4.11,4Z" fill="#fff"/><path d="M263.35,355.75a4.1,4.1,0,0,1,4.2-4.16,4.16,4.16,0,1,1,0,8.31A4.1,4.1,0,0,1,263.35,355.75Z" fill="#fff"/><rect width="300" height="600" fill="none"/></g></g></g></g></svg>