<svg xmlns="http://www.w3.org/2000/svg" viewBox="0 0 300 250"><title>Asset 6</title><g id="Layer_2" data-name="Layer 2"><g id="rect"><rect width="300" height="250" fill="none"/></g><g id="Still_open._Still_finding_credits_deductions_and_refunds_dail" data-name="Still open. Still finding credits, deductions  and refunds dail"><path d="M21.58,56.91h4.91c.12,1.28.7,2.34,2.84,2.34,1.49,0,2.32-.73,2.32-1.79S31,56.05,28.8,55.72C23.72,55.12,22,53.61,22,50c0-3.24,2.67-5.61,7-5.61s6.77,1.81,7.1,5.61H31.3A2,2,0,0,0,29,48.05c-1.38,0-2.09.62-2.09,1.53s.56,1.46,2.8,1.76c4.55.51,6.89,1.69,6.89,5.59,0,3.3-2.61,6-7.25,6C24.3,62.93,21.73,60.81,21.58,56.91Z" fill="#fff"/><path d="M38.85,58.39V52.53H37.27V49.46h1.58V46.71h4.51v2.75H46v3.07H43.36V58a1.2,1.2,0,0,0,1.33,1.38A3.45,3.45,0,0,0,46,59.12v3.43a9.52,9.52,0,0,1-2.49.38C40.51,62.93,38.85,61.49,38.85,58.39Z" fill="#fff"/><path d="M47.57,45.88A2.35,2.35,0,0,1,50,43.54a2.34,2.34,0,1,1,0,4.66A2.33,2.33,0,0,1,47.57,45.88Zm.22,3.58H52.3V62.62H47.79Z" fill="#fff"/><path d="M54.84,43.66h4.48v19H54.84Z" fill="#fff"/><path d="M61.87,43.66h4.48v19H61.87Z" fill="#fff"/><path d="M72.65,56.2V56c0-4.23,3.14-6.9,7.22-6.9s7.18,2.6,7.18,6.78v.2c0,4.28-3.15,6.85-7.2,6.85S72.65,60.46,72.65,56.2Zm9.81-.07v-.2c0-2.22-.88-3.45-2.59-3.45s-2.62,1.18-2.62,3.4v.2c0,2.26.88,3.5,2.62,3.5S82.46,58.32,82.46,56.13Z" fill="#fff"/><path d="M88.63,49.46h4.51v2a4.66,4.66,0,0,1,4.11-2.32c3.07,0,5.56,2.32,5.56,6.83v.2c0,4.53-2.49,6.8-5.59,6.8a4.35,4.35,0,0,1-4.08-2.25V67H88.63Zm9.6,6.67v-.2c0-2.32-1-3.43-2.6-3.43S93,53.69,93,55.9v.2c0,2.24,1,3.38,2.61,3.38S98.23,58.29,98.23,56.13Z" fill="#fff"/><path d="M103.74,56.2V56c0-4.23,3.15-6.9,7.13-6.9,3.6,0,6.7,2.07,6.7,6.8v1.18H108.3A2.63,2.63,0,0,0,111,59.83c1.49,0,2.12-.68,2.3-1.56h4.23c-.41,3-2.7,4.66-6.68,4.66S103.74,60.51,103.74,56.2Zm9.44-1.66c-.07-1.58-.85-2.47-2.31-2.47a2.52,2.52,0,0,0-2.52,2.47Z" fill="#fff"/><path d="M119.13,49.46h4.51v2.11A4.64,4.64,0,0,1,128,49.1c2.54,0,4.3,1.59,4.3,5v8.56h-4.51V55c0-1.49-.57-2.22-1.88-2.22s-2.24.81-2.24,2.5v7.37h-4.51Z" fill="#fff"/><path d="M134.29,60.36a2.52,2.52,0,0,1,2.57-2.55,2.55,2.55,0,1,1,0,5.09A2.51,2.51,0,0,1,134.29,60.36Z" fill="#fff"/><path d="M145.44,56.91h4.91c.13,1.28.71,2.34,2.85,2.34,1.48,0,2.31-.73,2.31-1.79s-.68-1.41-2.84-1.74c-5.09-.6-6.8-2.11-6.8-5.74,0-3.24,2.67-5.61,7-5.61s6.78,1.81,7.1,5.61h-4.78a2,2,0,0,0-2.32-1.93c-1.38,0-2.09.62-2.09,1.53s.56,1.46,2.8,1.76c4.56.51,6.9,1.69,6.9,5.59,0,3.3-2.62,6-7.25,6C148.16,62.93,145.59,60.81,145.44,56.91Z" fill="#fff"/><path d="M162.72,58.39V52.53h-1.59V49.46h1.59V46.71h4.5v2.75h2.6v3.07h-2.6V58a1.2,1.2,0,0,0,1.34,1.38,3.44,3.44,0,0,0,1.28-.23v3.43a9.45,9.45,0,0,1-2.49.38C164.38,62.93,162.72,61.49,162.72,58.39Z" fill="#fff"/><path d="M171.43,45.88a2.49,2.49,0,1,1,2.47,2.32A2.36,2.36,0,0,1,171.43,45.88Zm.22,3.58h4.51V62.62h-4.51Z" fill="#fff"/><path d="M178.71,43.66h4.48v19h-4.48Z" fill="#fff"/><path d="M185.73,43.66h4.48v19h-4.48Z" fill="#fff"/><path d="M197.89,52.53h-1.66V49.46h1.66V48.3c0-3.28,2-4.84,5.16-4.84a8.16,8.16,0,0,1,2.07.28V47a4.18,4.18,0,0,0-1.24-.18,1.32,1.32,0,0,0-1.5,1.44v1.16H205v3.07h-2.66V62.62h-4.49Z" fill="#fff"/><path d="M206.45,45.88a2.49,2.49,0,1,1,2.47,2.32A2.36,2.36,0,0,1,206.45,45.88Zm.23,3.58h4.51V62.62h-4.51Z" fill="#fff"/><path d="M213.61,49.46h4.5v2.11a4.65,4.65,0,0,1,4.33-2.47c2.55,0,4.31,1.59,4.31,5v8.56h-4.51V55c0-1.49-.58-2.22-1.89-2.22s-2.24.81-2.24,2.5v7.37h-4.5Z" fill="#fff"/><path d="M228.29,56.18V56c0-4.49,2.46-6.88,5.59-6.88a4.27,4.27,0,0,1,4.05,2.22V43.66h4.51v19h-4.51V60.48a4.43,4.43,0,0,1-4.1,2.45C230.78,62.93,228.29,60.73,228.29,56.18Zm9.77-.08v-.2c0-2.21-.94-3.4-2.6-3.4s-2.59,1.13-2.59,3.43v.2c0,2.21,1,3.35,2.54,3.35S238.06,58.34,238.06,56.1Z" fill="#fff"/><path d="M244.63,45.88a2.49,2.49,0,1,1,2.47,2.32A2.36,2.36,0,0,1,244.63,45.88Zm.23,3.58h4.5V62.62h-4.5Z" fill="#fff"/><path d="M251.78,49.46h4.51v2.11a4.64,4.64,0,0,1,4.33-2.47c2.54,0,4.3,1.59,4.3,5v8.56h-4.5V55c0-1.49-.58-2.22-1.89-2.22s-2.24.81-2.24,2.5v7.37h-4.51Z" fill="#fff"/><path d="M266.39,62.62h4.48c.2,1,.78,1.71,2.41,1.71a2.49,2.49,0,0,0,2.8-2.76v-2A4.63,4.63,0,0,1,272,62c-3.07,0-5.59-2.27-5.59-6.32v-.2c0-3.88,2.49-6.35,5.59-6.35a4.28,4.28,0,0,1,4.08,2.22V49.46h4.5V61.52c0,3.92-2.59,6-7.3,6C268.8,67.51,266.74,65.62,266.39,62.62Zm9.81-7v-.17c0-1.82-.93-3-2.59-3s-2.59,1.18-2.59,3v.2c0,1.82,1,3,2.57,3S276.2,57.49,276.2,55.62Z" fill="#fff"/><path d="M21.63,85.16V85c0-4.38,3.15-6.89,7-6.89,3.23,0,6.2,1.41,6.45,5.41H30.87a2,2,0,0,0-2.12-1.91c-1.58,0-2.51,1.13-2.51,3.34v.21c0,2.29.88,3.47,2.59,3.47a2.19,2.19,0,0,0,2.29-2.19h4.05c-.12,3.32-2.36,5.49-6.62,5.49C24.63,91.88,21.63,89.59,21.63,85.16Z" fill="#fff"/><path d="M36.64,78.41h4.5V81a4.16,4.16,0,0,1,4.26-2.8v4.21c-2.75-.08-4.26.78-4.26,2.89v6.25h-4.5Z" fill="#fff"/><path d="M46.21,85.16V85c0-4.22,3.14-6.89,7.12-6.89,3.6,0,6.7,2.06,6.7,6.79V86H50.76a2.64,2.64,0,0,0,2.75,2.74c1.48,0,2.11-.68,2.29-1.56H60c-.4,3-2.7,4.66-6.67,4.66C49.23,91.88,46.21,89.46,46.21,85.16Zm9.44-1.67c-.08-1.58-.86-2.46-2.32-2.46a2.51,2.51,0,0,0-2.52,2.46Z" fill="#fff"/><path d="M60.94,85.13v-.2c0-4.48,2.46-6.87,5.59-6.87a4.28,4.28,0,0,1,4,2.21V72.62h4.51v19H70.58V89.44a4.43,4.43,0,0,1-4.1,2.44C63.43,91.88,60.94,89.69,60.94,85.13Zm9.77-.07v-.21c0-2.21-.94-3.39-2.6-3.39s-2.59,1.13-2.59,3.42v.2c0,2.22,1,3.35,2.54,3.35S70.71,87.3,70.71,85.06Z" fill="#fff"/><path d="M77.28,74.83a2.49,2.49,0,1,1,2.47,2.32A2.36,2.36,0,0,1,77.28,74.83Zm.23,3.58H82V91.58h-4.5Z" fill="#fff"/><path d="M85,87.35V81.48H83.45V78.41H85V75.66h4.51v2.75h2.59v3.07H89.54v5.44a1.2,1.2,0,0,0,1.34,1.38,3.44,3.44,0,0,0,1.28-.22V91.5a9.52,9.52,0,0,1-2.49.38C86.7,91.88,85,90.44,85,87.35Z" fill="#fff"/><path d="M93.14,87.4H97.3c.15.95.58,1.48,1.86,1.48,1.11,0,1.61-.43,1.61-1.08s-.63-.93-2.44-1.18c-3.53-.46-5-1.49-5-4.23,0-2.92,2.59-4.33,5.64-4.33,3.25,0,5.51,1.1,5.81,4.25H100.7A1.48,1.48,0,0,0,99,81c-1,0-1.49.43-1.49,1s.61.89,2.22,1.09c3.65.45,5.41,1.41,5.41,4.23,0,3.12-2.31,4.53-6,4.53S93.24,90.32,93.14,87.4Z" fill="#fff"/><path d="M105.68,93.62,107.8,87,112,88.48l-3.63,6.17Z" fill="#fff"/><path d="M117.87,85.13v-.2c0-4.48,2.47-6.87,5.59-6.87a4.27,4.27,0,0,1,4.05,2.21V72.62H132v19h-4.51V89.44a4.42,4.42,0,0,1-4.1,2.44C120.36,91.88,117.87,89.69,117.87,85.13Zm9.77-.07v-.21c0-2.21-.93-3.39-2.59-3.39s-2.6,1.13-2.6,3.42v.2c0,2.22,1,3.35,2.55,3.35S127.64,87.3,127.64,85.06Z" fill="#fff"/><path d="M133.61,85.16V85c0-4.22,3.15-6.89,7.12-6.89,3.6,0,6.7,2.06,6.7,6.79V86h-9.26a2.62,2.62,0,0,0,2.74,2.74c1.49,0,2.11-.68,2.29-1.56h4.23c-.4,3-2.69,4.66-6.67,4.66S133.61,89.46,133.61,85.16Zm9.44-1.67c-.08-1.58-.86-2.46-2.32-2.46a2.49,2.49,0,0,0-2.51,2.46Z" fill="#fff"/><path d="M148.34,85.13v-.2c0-4.48,2.47-6.87,5.59-6.87a4.27,4.27,0,0,1,4,2.21V72.62h4.51v19H158V89.44a4.42,4.42,0,0,1-4.1,2.44C150.83,91.88,148.34,89.69,148.34,85.13Zm9.77-.07v-.21c0-2.21-.93-3.39-2.59-3.39s-2.6,1.13-2.6,3.42v.2c0,2.22,1,3.35,2.55,3.35S158.11,87.3,158.11,85.06Z" fill="#fff"/><path d="M164.68,87V78.41h4.51v7.85c0,1.49.58,2.22,1.86,2.22s2.24-.81,2.24-2.49V78.41h4.51V91.58h-4.51v-2a4.32,4.32,0,0,1-4.18,2.34C166.57,91.88,164.68,90.32,164.68,87Z" fill="#fff"/><path d="M179.39,85.16V85c0-4.38,3.15-6.89,7-6.89,3.22,0,6.2,1.41,6.45,5.41h-4.23a2,2,0,0,0-2.12-1.91c-1.58,0-2.51,1.13-2.51,3.34v.21c0,2.29.88,3.47,2.59,3.47a2.19,2.19,0,0,0,2.29-2.19h4.05c-.12,3.32-2.36,5.49-6.62,5.49C182.38,91.88,179.39,89.59,179.39,85.16Z" fill="#fff"/><path d="M195,87.35V81.48h-1.59V78.41H195V75.66h4.51v2.75h2.59v3.07h-2.59v5.44c0,1,.48,1.38,1.33,1.38a3.53,3.53,0,0,0,1.29-.22V91.5a9.54,9.54,0,0,1-2.5.38C196.66,91.88,195,90.44,195,87.35Z" fill="#fff"/><path d="M203.71,74.83a2.49,2.49,0,1,1,2.47,2.32A2.36,2.36,0,0,1,203.71,74.83Zm.23,3.58h4.51V91.58h-4.51Z" fill="#fff"/><path d="M210.16,85.16V85c0-4.22,3.15-6.89,7.22-6.89s7.18,2.59,7.18,6.77V85c0,4.28-3.15,6.85-7.2,6.85S210.16,89.41,210.16,85.16Zm9.82-.08v-.2c0-2.22-.88-3.45-2.6-3.45s-2.61,1.18-2.61,3.4V85c0,2.27.88,3.5,2.61,3.5S220,87.27,220,85.08Z" fill="#fff"/><path d="M226.15,78.41h4.51v2.11A4.64,4.64,0,0,1,235,78.06c2.54,0,4.3,1.58,4.3,5v8.56h-4.51V83.92c0-1.48-.57-2.21-1.88-2.21s-2.24.8-2.24,2.49v7.38h-4.51Z" fill="#fff"/><path d="M240.6,87.4h4.16c.15.95.58,1.48,1.86,1.48,1.11,0,1.61-.43,1.61-1.08s-.63-.93-2.44-1.18c-3.53-.46-5-1.49-5-4.23,0-2.92,2.59-4.33,5.64-4.33,3.25,0,5.51,1.1,5.81,4.25h-4.07A1.48,1.48,0,0,0,246.47,81c-1,0-1.49.43-1.49,1s.61.89,2.22,1.09c3.65.45,5.41,1.41,5.41,4.23,0,3.12-2.31,4.53-6,4.53S240.7,90.32,240.6,87.4Z" fill="#fff"/><path d="M21.58,116.88c0-3.1,2.62-4.31,7-4.31h1.26v-.3c0-1.26-.3-2.09-1.74-2.09a1.62,1.62,0,0,0-1.79,1.56H22.08c.2-3.17,2.7-4.73,6.3-4.73s5.94,1.48,5.94,5v8.54H29.94V119a4.32,4.32,0,0,1-3.9,1.84C23.67,120.83,21.58,119.67,21.58,116.88Zm8.26-1v-.8H28.65c-1.81,0-2.61.35-2.61,1.43,0,.76.5,1.23,1.56,1.23A2,2,0,0,0,29.84,115.92Z" fill="#fff"/><path d="M36.51,107.36H41v2.12A4.64,4.64,0,0,1,45.35,107c2.54,0,4.3,1.58,4.3,5v8.56h-4.5v-7.65c0-1.49-.58-2.22-1.89-2.22s-2.24.8-2.24,2.49v7.38H36.51Z" fill="#fff"/><path d="M51.19,114.08v-.2c0-4.48,2.47-6.87,5.59-6.87a4.26,4.26,0,0,1,4,2.21v-7.65h4.51v19H60.83v-2.14a4.42,4.42,0,0,1-4.1,2.44C53.68,120.83,51.19,118.64,51.19,114.08ZM61,114v-.2c0-2.22-.93-3.4-2.59-3.4s-2.6,1.13-2.6,3.42v.2c0,2.22,1,3.35,2.55,3.35S61,116.25,61,114Z" fill="#fff"/><path d="M72.22,107.36h4.5V110A4.15,4.15,0,0,1,81,107.19v4.2c-2.75-.08-4.26.78-4.26,2.9v6.24h-4.5Z" fill="#fff"/><path d="M81.79,114.11v-.2c0-4.23,3.14-6.9,7.12-6.9,3.6,0,6.7,2.06,6.7,6.8V115H86.34a2.63,2.63,0,0,0,2.75,2.74c1.48,0,2.11-.68,2.29-1.56h4.23c-.4,3-2.7,4.66-6.67,4.66C84.81,120.83,81.79,118.41,81.79,114.11Zm9.44-1.66c-.08-1.59-.86-2.47-2.32-2.47a2.51,2.51,0,0,0-2.52,2.47Z" fill="#fff"/><path d="M97.85,110.43H96.19v-3.07h1.66V106.2c0-3.27,2-4.83,5.16-4.83a8.16,8.16,0,0,1,2.07.28v3.29a4.21,4.21,0,0,0-1.24-.17,1.32,1.32,0,0,0-1.51,1.43v1.16H105v3.07h-2.67v10.1H97.85Z" fill="#fff"/><path d="M106.41,116v-8.59h4.51v7.86c0,1.48.58,2.21,1.86,2.21s2.24-.8,2.24-2.49v-7.58h4.51v13.17H115v-2a4.32,4.32,0,0,1-4.18,2.34C108.3,120.83,106.41,119.27,106.41,116Z" fill="#fff"/><path d="M121.82,107.36h4.51v2.12a4.64,4.64,0,0,1,4.33-2.47c2.54,0,4.31,1.58,4.31,5v8.56h-4.51v-7.65c0-1.49-.58-2.22-1.89-2.22s-2.24.8-2.24,2.49v7.38h-4.51Z" fill="#fff"/><path d="M136.5,114.08v-.2c0-4.48,2.47-6.87,5.59-6.87a4.28,4.28,0,0,1,4.06,2.21v-7.65h4.5v19h-4.5v-2.14a4.45,4.45,0,0,1-4.11,2.44C139,120.83,136.5,118.64,136.5,114.08Zm9.77-.07v-.2c0-2.22-.93-3.4-2.59-3.4s-2.59,1.13-2.59,3.42v.2c0,2.22,1,3.35,2.54,3.35S146.27,116.25,146.27,114Z" fill="#fff"/><path d="M152.07,116.35h4.15c.15,1,.58,1.48,1.86,1.48,1.11,0,1.61-.42,1.61-1.08s-.63-.93-2.44-1.18c-3.52-.45-5-1.49-5-4.23,0-2.92,2.59-4.33,5.64-4.33,3.25,0,5.52,1.11,5.82,4.25h-4.08a1.48,1.48,0,0,0-1.69-1.31c-1,0-1.48.43-1.48,1s.6.88,2.21,1.08c3.65.45,5.42,1.41,5.42,4.23,0,3.12-2.32,4.53-6,4.53S152.17,119.27,152.07,116.35Z" fill="#fff"/><path d="M169.47,114.08v-.2c0-4.48,2.46-6.87,5.59-6.87a4.28,4.28,0,0,1,4.05,2.21v-7.65h4.51v19h-4.51v-2.14a4.42,4.42,0,0,1-4.1,2.44C172,120.83,169.47,118.64,169.47,114.08Zm9.77-.07v-.2c0-2.22-.94-3.4-2.6-3.4s-2.59,1.13-2.59,3.42v.2c0,2.22,1,3.35,2.54,3.35S179.24,116.25,179.24,114Z" fill="#fff"/><path d="M185.15,116.88c0-3.1,2.62-4.31,7-4.31h1.26v-.3c0-1.26-.3-2.09-1.74-2.09a1.61,1.61,0,0,0-1.78,1.56h-4.23c.2-3.17,2.69-4.73,6.29-4.73s5.94,1.48,5.94,5v8.54h-4.38V119a4.31,4.31,0,0,1-3.9,1.84C187.24,120.83,185.15,119.67,185.15,116.88Zm8.26-1v-.8h-1.18c-1.81,0-2.62.35-2.62,1.43,0,.76.5,1.23,1.56,1.23C192.46,117.78,193.41,117.05,193.41,115.92Z" fill="#fff"/><path d="M200,103.79a2.35,2.35,0,0,1,2.46-2.35,2.38,2.38,0,0,1,2.5,2.35,2.36,2.36,0,0,1-2.5,2.31A2.32,2.32,0,0,1,200,103.79Zm.22,3.57h4.51v13.17h-4.51Z" fill="#fff"/><path d="M207.26,101.57h4.48v19h-4.48Z" fill="#fff"/><path d="M218.29,119.19,213,107.36h4.88l2.72,7,2.52-7h4.31l-7.05,17.57H216.1Z" fill="#fff"/><path d="M226.5,118.26a2.51,2.51,0,0,1,2.57-2.54,2.55,2.55,0,1,1,0,5.09A2.52,2.52,0,0,1,226.5,118.26Z" fill="#fff"/></g></g></svg>