<svg xmlns="http://www.w3.org/2000/svg" viewBox="0 0 300 250"><title>H27</title><g id="Layer_2" data-name="Layer 2"><g id="Rect"><rect width="300" height="250" fill="none"/></g><g id="H27"><g id="_PCMag_on_H_R_Block_Online" data-name="– PCMag on H&amp;R Block Online"><path d="M58.4,146.05h7.06v1.35H58.4Z" fill="#fff"/><path d="M70.84,139.79h3.68c2.56,0,4.24,1.14,4.24,3.54v.07c0,2.41-1.75,3.49-4.2,3.49H73v4.35H70.84Zm3.68,5.56c1.41,0,2.16-.69,2.16-1.95v-.07c0-1.36-.8-1.89-2.16-1.89H73v3.91Z" fill="#fff"/><path d="M79.81,145.59v-.13a5.5,5.5,0,0,1,5.56-5.84c2.62,0,4.65,1.31,4.91,4H88.12a2.45,2.45,0,0,0-2.74-2.3c-2,0-3.33,1.56-3.33,4.13v.12c0,2.58,1.23,4.1,3.35,4.1a2.68,2.68,0,0,0,2.93-2.42h2.08c-.34,2.76-2.29,4.15-5,4.15C81.81,151.4,79.81,149.11,79.81,145.59Z" fill="#fff"/><path d="M92,139.79h2.85l3,7.82,3-7.82h2.81v11.45H101.5V142.6l-3.41,8.64H97.4l-3.48-8.64v8.64H92Z" fill="#fff"/><path d="M105.19,148.92c0-1.95,1.89-2.66,4.29-2.66h1v-.43c0-1.12-.39-1.68-1.52-1.68a1.39,1.39,0,0,0-1.6,1.31h-1.88c.16-2,1.72-2.77,3.59-2.77s3.34.77,3.34,3.06v5.49h-1.9v-1A2.92,2.92,0,0,1,108,151.4C106.45,151.4,105.19,150.66,105.19,148.92Zm5.33-.61v-.83h-1c-1.47,0-2.41.33-2.41,1.36,0,.7.38,1.17,1.34,1.17C109.64,150,110.52,149.38,110.52,148.31Z" fill="#fff"/><path d="M114,151.53h2c.16.83.8,1.31,2.07,1.31a2.06,2.06,0,0,0,2.34-2.26v-1.23a3.28,3.28,0,0,1-2.74,1.55,3.7,3.7,0,0,1-3.71-4v-.11a3.85,3.85,0,0,1,3.76-4.12,2.9,2.9,0,0,1,2.69,1.46v-1.28h1.93v7.75c0,2.46-1.66,3.69-4.26,3.69S114.2,153.13,114,151.53Zm6.42-4.68v-.11a2.22,2.22,0,0,0-2.26-2.53,2.26,2.26,0,0,0-2.27,2.56v.13a2.26,2.26,0,0,0,2.21,2.52A2.31,2.31,0,0,0,120.39,146.85Z" fill="#fff"/><path d="M127.33,147.14V147a4.3,4.3,0,0,1,8.6,0v.12a4.3,4.3,0,0,1-8.6,0Zm6.61,0V147c0-1.73-.86-2.79-2.3-2.79s-2.32,1-2.32,2.77v.13c0,1.71.84,2.79,2.32,2.79S133.94,148.82,133.94,147.11Z" fill="#fff"/><path d="M137.43,142.87h1.93v1.33a2.88,2.88,0,0,1,2.71-1.51c1.68,0,2.86,1,2.86,3.28v5.27H143v-5.09c0-1.26-.52-1.84-1.67-1.84a1.85,1.85,0,0,0-2,2v4.93h-1.93Z" fill="#fff"/><path d="M150.64,139.79h2.13v4.87h5.14v-4.87h2.14v11.45h-2.14v-4.87h-5.14v4.87h-2.13Z" fill="#fff"/><path d="M170.2,148.9l1.92,2.34h-2.45l-1-1.17a4.12,4.12,0,0,1-3.14,1.31c-2.22,0-3.76-1.26-3.76-3.26,0-1.68,1-2.66,2.58-3.39a3.84,3.84,0,0,1-.9-2.26c0-1.81,1.49-2.77,3.15-2.77a2.62,2.62,0,0,1,2.89,2.48c0,1.33-.9,2.27-2.39,2.91l2,2.47,1.17-2.24h1.74Zm-2.48-.06-2.44-3a2.16,2.16,0,0,0-1.45,2,1.77,1.77,0,0,0,2,1.87A2.48,2.48,0,0,0,167.72,148.84Zm-1.48-4.67c1.08-.5,1.52-1,1.52-1.91a1.08,1.08,0,0,0-1.12-1.14,1.22,1.22,0,0,0-1.26,1.36A2.86,2.86,0,0,0,166.24,144.17Z" fill="#fff"/><path d="M173.63,139.79h3.85c2.51,0,4.27,1,4.27,3.37v.06a3,3,0,0,1-2.55,3.07l3.22,5h-2.3l-3-4.63h-1.36v4.63h-2.13Zm3.85,5.3c1.42,0,2.17-.6,2.17-1.82v-.06c0-1.32-.81-1.77-2.17-1.77h-1.72v3.65Z" fill="#fff"/><path d="M187.44,139.79h4.1c2.35,0,3.75.9,3.75,3v.07a2.35,2.35,0,0,1-1.81,2.43,2.51,2.51,0,0,1,2.29,2.7V148c0,2.13-1.41,3.2-3.93,3.2h-4.4Zm3.84,4.82c1.41,0,2-.51,2-1.68v-.06c0-1.09-.63-1.55-2-1.55h-1.73v3.29Zm.31,5.11c1.42,0,2.08-.64,2.08-1.83v-.06c0-1.18-.66-1.78-2.23-1.78h-1.92v3.67Z" fill="#fff"/><path d="M197.41,139h1.94v12.24h-1.94Z" fill="#fff"/><path d="M200.9,147.14V147a4.3,4.3,0,1,1,8.59,0v.12a4.3,4.3,0,0,1-8.59,0Zm6.61,0V147c0-1.73-.87-2.79-2.31-2.79s-2.32,1-2.32,2.77v.13c0,1.71.85,2.79,2.32,2.79S207.51,148.82,207.51,147.11Z" fill="#fff"/><path d="M210.43,147.16V147a4.13,4.13,0,0,1,4.23-4.34c1.86,0,3.6.83,3.82,3.14h-1.87a1.72,1.72,0,0,0-1.92-1.58c-1.33,0-2.27,1-2.27,2.75v.13c0,1.82.89,2.78,2.32,2.78a1.92,1.92,0,0,0,2-1.79h1.77a3.54,3.54,0,0,1-3.87,3.28A4,4,0,0,1,210.43,147.16Z" fill="#fff"/><path d="M220,139h1.94v7.55l3-3.68H227l-3.25,3.84,3.52,4.53H225l-3.14-4.11v4.11H220Z" fill="#fff"/><path d="M231.5,145.59v-.13a5.62,5.62,0,0,1,5.8-5.82,5.53,5.53,0,0,1,5.76,5.77v.13a5.78,5.78,0,1,1-11.56.05Zm9.35,0v-.13c0-2.35-1.31-4.1-3.55-4.1s-3.57,1.65-3.57,4.12v.12c0,2.5,1.52,4.12,3.6,4.12S240.85,148,240.85,145.56Z" fill="#fff"/><path d="M244.71,142.87h1.93v1.33a2.88,2.88,0,0,1,2.71-1.51c1.68,0,2.86,1,2.86,3.28v5.27h-1.93v-5.09c0-1.26-.52-1.84-1.67-1.84a1.85,1.85,0,0,0-2,2v4.93h-1.93Z" fill="#fff"/><path d="M254.24,139h1.94v12.24h-1.94Z" fill="#fff"/><path d="M258.13,140.39a1.15,1.15,0,1,1,1.15,1.1A1.12,1.12,0,0,1,258.13,140.39Zm.21,2.48h1.93v8.37h-1.93Z" fill="#fff"/><path d="M262.38,142.87h1.94v1.33a2.88,2.88,0,0,1,2.71-1.51c1.68,0,2.86,1,2.86,3.28v5.27H268v-5.09c0-1.26-.52-1.84-1.67-1.84a1.85,1.85,0,0,0-2,2v4.93h-1.94Z" fill="#fff"/><path d="M271.31,147.14V147a4.07,4.07,0,0,1,4.16-4.32c2.08,0,4,1.23,4,4.23v.56H273.3c.06,1.58.86,2.48,2.3,2.48,1.17,0,1.78-.46,1.92-1.28h1.88c-.28,1.76-1.7,2.72-3.85,2.72A4,4,0,0,1,271.31,147.14Zm6.2-1c-.1-1.44-.84-2.08-2-2.08a2.15,2.15,0,0,0-2.14,2.08Z" fill="#fff"/></g><g id="_Our_top_choice_for_online_tax_prep._" data-name="&quot;Our top choice for online tax prep.&quot;"><path d="M21.18,46.09H26L25.4,54H21.75Zm6.09,0h4.86L31.53,54H27.88Z" fill="#fff"/><path d="M33.37,56.5v-.23c0-6.27,4.71-10.46,10.87-10.46s10.89,3.94,10.89,10.32v.23c0,6.32-4.34,10.63-11,10.63S33.37,62.68,33.37,56.5ZM49,56.44v-.23c0-3.65-1.84-5.8-4.74-5.8s-4.72,2.09-4.72,5.83v.23c0,3.74,1.9,5.9,4.74,5.9S49,60.12,49,56.44Z" fill="#fff"/><path d="M57,61.42V51.61h5.15v9c0,1.7.66,2.53,2.12,2.53s2.56-.92,2.56-2.84V51.61H72v15H66.83V64.32A4.93,4.93,0,0,1,62.06,67C59.16,67,57,65.21,57,61.42Z" fill="#fff"/><path d="M74.6,51.61h5.14v3a4.74,4.74,0,0,1,4.86-3.19v4.8c-3.13-.08-4.86.89-4.86,3.31v7.13H74.6Z" fill="#fff"/><path d="M92.39,61.82v-6.7H90.58V51.61h1.81V48.48h5.15v3.13h3v3.51h-3v6.21c0,1.09.54,1.58,1.52,1.58a3.78,3.78,0,0,0,1.47-.26v3.91a10.92,10.92,0,0,1-2.85.43C94.29,67,92.39,65.35,92.39,61.82Z" fill="#fff"/><path d="M101.65,59.32v-.23c0-4.83,3.59-7.88,8.25-7.88s8.19,3,8.19,7.73v.23c0,4.89-3.59,7.82-8.22,7.82S101.65,64.18,101.65,59.32Zm11.21-.09V59c0-2.53-1-3.94-3-3.94s-3,1.35-3,3.88v.23c0,2.59,1,4,3,4S112.86,61.73,112.86,59.23Z" fill="#fff"/><path d="M119.9,51.61h5.15v2.25a5.31,5.31,0,0,1,4.69-2.65c3.5,0,6.35,2.65,6.35,7.79v.23c0,5.18-2.85,7.76-6.38,7.76a5,5,0,0,1-4.66-2.55v7.24H119.9Zm11,7.62V59c0-2.64-1.15-3.91-3-3.91s-3,1.35-3,3.88v.23c0,2.56,1.12,3.86,3,3.86S130.86,61.7,130.86,59.23Z" fill="#fff"/><path d="M142.39,59.32v-.23c0-5,3.59-7.88,8-7.88,3.68,0,7.07,1.61,7.36,6.18h-4.83a2.22,2.22,0,0,0-2.42-2.18c-1.81,0-2.87,1.29-2.87,3.82v.23c0,2.62,1,4,3,4a2.49,2.49,0,0,0,2.61-2.5h4.63c-.14,3.79-2.7,6.26-7.56,6.26C145.81,67,142.39,64.38,142.39,59.32Z" fill="#fff"/><path d="M159.52,45h5.15v9a5.3,5.3,0,0,1,4.94-2.82c2.91,0,4.92,1.81,4.92,5.66v9.78h-5.15V57.91c0-1.7-.66-2.53-2.15-2.53s-2.56.92-2.56,2.85v8.42h-5.15Z" fill="#fff"/><path d="M176.22,59.32v-.23c0-4.83,3.6-7.88,8.26-7.88s8.19,3,8.19,7.73v.23c0,4.89-3.59,7.82-8.22,7.82S176.22,64.18,176.22,59.32Zm11.22-.09V59c0-2.53-1-3.94-3-3.94s-3,1.35-3,3.88v.23c0,2.59,1,4,3,4S187.44,61.73,187.44,59.23Z" fill="#fff"/><path d="M194.37,47.53a2.68,2.68,0,0,1,2.81-2.67,2.67,2.67,0,1,1,0,5.32A2.66,2.66,0,0,1,194.37,47.53Zm.25,4.08h5.15v15h-5.15Z" fill="#fff"/><path d="M201.73,59.32v-.23c0-5,3.59-7.88,8-7.88,3.68,0,7.07,1.61,7.36,6.18h-4.83a2.22,2.22,0,0,0-2.42-2.18c-1.81,0-2.87,1.29-2.87,3.82v.23c0,2.62,1,4,3,4a2.5,2.5,0,0,0,2.61-2.5h4.63c-.14,3.79-2.7,6.26-7.56,6.26C205.15,67,201.73,64.38,201.73,59.32Z" fill="#fff"/><path d="M218.06,59.32v-.23c0-4.83,3.59-7.88,8.13-7.88,4.11,0,7.65,2.36,7.65,7.76v1.35H223.26c.14,2,1.29,3.14,3.13,3.14s2.42-.78,2.62-1.78h4.83c-.46,3.39-3.08,5.31-7.62,5.31C221.51,67,218.06,64.23,218.06,59.32Zm10.78-1.9c-.09-1.81-1-2.82-2.65-2.82s-2.61,1-2.87,2.82Z" fill="#fff"/><path d="M241.63,55.12h-1.9V51.61h1.9V50.29c0-3.74,2.33-5.52,5.89-5.52a9.28,9.28,0,0,1,2.36.32v3.76a4.86,4.86,0,0,0-1.41-.2,1.51,1.51,0,0,0-1.72,1.64v1.32h3v3.51h-3V66.65h-5.12Z" fill="#fff"/><path d="M250.2,59.32v-.23c0-4.83,3.59-7.88,8.25-7.88s8.19,3,8.19,7.73v.23c0,4.89-3.59,7.82-8.22,7.82S250.2,64.18,250.2,59.32Zm11.21-.09V59c0-2.53-1-3.94-3-3.94s-3,1.35-3,3.88v.23c0,2.59,1,4,3,4S261.41,61.73,261.41,59.23Z" fill="#fff"/><path d="M268.45,51.61h5.15v3a4.74,4.74,0,0,1,4.86-3.19v4.8c-3.14-.08-4.86.89-4.86,3.31v7.13h-5.15Z" fill="#fff"/><path d="M20.72,90.07v-.23C20.72,85,24.31,82,29,82s8.19,3,8.19,7.73v.23c0,4.89-3.59,7.82-8.22,7.82S20.72,94.93,20.72,90.07ZM31.93,90v-.23c0-2.53-1-3.94-3-3.94s-3,1.35-3,3.88v.23c0,2.59,1,4,3,4S31.93,92.48,31.93,90Z" fill="#fff"/><path d="M39,82.36h5.15v2.42A5.31,5.31,0,0,1,49.06,82C52,82,54,83.77,54,87.62V97.4H48.83V88.66c0-1.7-.66-2.53-2.15-2.53s-2.56.92-2.56,2.85V97.4H39Z" fill="#fff"/><path d="M56.63,75.75h5.11V97.4H56.63Z" fill="#fff"/><path d="M64.39,78.28a2.84,2.84,0,1,1,2.82,2.65A2.69,2.69,0,0,1,64.39,78.28Zm.26,4.08h5.14v15H64.65Z" fill="#fff"/><path d="M72.55,82.36H77.7v2.42A5.3,5.3,0,0,1,82.64,82c2.91,0,4.92,1.81,4.92,5.66V97.4H82.41V88.66c0-1.7-.66-2.53-2.15-2.53S77.7,87.05,77.7,89V97.4H72.55Z" fill="#fff"/><path d="M89.26,90.07v-.23C89.26,85,92.85,82,97.39,82c4.11,0,7.65,2.36,7.65,7.76v1.35H94.46c.14,2,1.29,3.14,3.13,3.14s2.42-.78,2.62-1.78H105c-.46,3.39-3.08,5.31-7.62,5.31C92.71,97.74,89.26,95,89.26,90.07ZM100,88.17c-.09-1.81-1-2.82-2.65-2.82s-2.61,1-2.87,2.82Z" fill="#fff"/><path d="M112.75,92.57v-6.7h-1.82V82.36h1.82V79.23h5.14v3.13h3v3.51h-3v6.21a1.38,1.38,0,0,0,1.53,1.58,3.76,3.76,0,0,0,1.46-.26v3.91a10.9,10.9,0,0,1-2.84.43C114.64,97.74,112.75,96.1,112.75,92.57Z" fill="#fff"/><path d="M122,93.23c0-3.54,3-4.92,8-4.92h1.43V88c0-1.44-.34-2.39-2-2.39a1.85,1.85,0,0,0-2,1.79h-4.83c.23-3.63,3.07-5.41,7.19-5.41s6.78,1.7,6.78,5.69V97.4h-5V95.65a4.94,4.94,0,0,1-4.46,2.09C124.39,97.74,122,96.42,122,93.23Zm9.43-1.09v-.92h-1.35c-2.07,0-3,.4-3,1.64,0,.86.58,1.41,1.78,1.41C130.34,94.27,131.43,93.43,131.43,92.14Z" fill="#fff"/><path d="M142.85,89.75l-4.69-7.39h5.92l2.33,4,2.27-4H154l-4.74,7,5.2,8.05h-5.92l-2.67-4.49L143.1,97.4h-5.26Z" fill="#fff"/><path d="M161.1,82.36h5.15v2.25A5.29,5.29,0,0,1,170.93,82c3.51,0,6.36,2.65,6.36,7.79V90c0,5.18-2.85,7.76-6.38,7.76a5,5,0,0,1-4.66-2.55v7.24H161.1Zm11,7.62v-.23c0-2.64-1.14-3.91-3-3.91s-3,1.35-3,3.88V90c0,2.56,1.13,3.86,3,3.86S172.05,92.45,172.05,90Z" fill="#fff"/><path d="M179.16,82.36h5.14v3a4.74,4.74,0,0,1,4.86-3.19V87c-3.13-.08-4.86.89-4.86,3.31V97.4h-5.14Z" fill="#fff"/><path d="M190.08,90.07v-.23c0-4.83,3.6-7.88,8.14-7.88,4.11,0,7.64,2.36,7.64,7.76v1.35H195.29c.14,2,1.29,3.14,3.13,3.14s2.41-.78,2.62-1.78h4.82c-.46,3.39-3.07,5.31-7.61,5.31C193.53,97.74,190.08,95,190.08,90.07Zm10.78-1.9c-.08-1.81-1-2.82-2.64-2.82s-2.62,1-2.88,2.82Z" fill="#fff"/><path d="M207.65,82.36h5.14v2.25A5.32,5.32,0,0,1,217.48,82c3.51,0,6.35,2.65,6.35,7.79V90c0,5.18-2.84,7.76-6.38,7.76a5,5,0,0,1-4.66-2.55v7.24h-5.14ZM218.6,90v-.23c0-2.64-1.15-3.91-3-3.91s-3,1.35-3,3.88V90c0,2.56,1.12,3.86,3,3.86S218.6,92.45,218.6,90Z" fill="#fff"/><path d="M225.13,94.81a2.86,2.86,0,0,1,2.93-2.9,2.9,2.9,0,1,1,0,5.8A2.86,2.86,0,0,1,225.13,94.81Z" fill="#fff"/><path d="M230.45,76.84h4.83l-.61,7.91H231Zm6.09,0h4.86l-.6,7.91h-3.65Z" fill="#fff"/></g></g></g></svg>