<svg xmlns="http://www.w3.org/2000/svg" viewBox="0 0 728 90"><title>H7</title><g id="Layer_2" data-name="Layer 2"><g id="Artboard_2" data-name="Artboard 2" style="isolation:isolate"><g id="headline2"><g id="Expert_tax_prep_with_the_snap_of_some_pics._Try_Tax_Pro_Go." data-name="Expert tax prep with the snap of some pics. Try Tax Pro Go."><path d="M117,18.64h14.2v4.54h-8.34v3.53h6.64v4.2h-6.64v3.73h8.8v4.54H117Z" fill="#fff"/><path d="M137.53,31.54l-4.68-7.39h5.92l2.32,4,2.27-4h5.29l-4.74,7,5.2,8h-5.92l-2.67-4.48-2.73,4.48h-5.26Z" fill="#fff"/><path d="M150.55,24.15h5.14v2.24a5.34,5.34,0,0,1,4.69-2.64c3.5,0,6.35,2.64,6.35,7.79v.23c0,5.17-2.85,7.75-6.38,7.75A5,5,0,0,1,155.69,37v7.24h-5.14Zm10.95,7.62v-.23c0-2.65-1.15-3.91-3-3.91s-3,1.35-3,3.88v.23c0,2.56,1.12,3.85,3,3.85S161.5,34.24,161.5,31.77Z" fill="#fff"/><path d="M167.79,31.85v-.23c0-4.82,3.6-7.87,8.14-7.87,4.1,0,7.64,2.36,7.64,7.76v1.35H173A3,3,0,0,0,176.13,36c1.69,0,2.41-.77,2.61-1.78h4.83c-.46,3.39-3.08,5.31-7.62,5.31C171.24,39.52,167.79,36.77,167.79,31.85ZM178.57,30c-.09-1.81-1-2.82-2.64-2.82s-2.62,1-2.88,2.82Z" fill="#fff"/><path d="M185.35,24.15h5.15v3A4.74,4.74,0,0,1,195.35,24v4.8c-3.13-.09-4.85.89-4.85,3.3v7.13h-5.15Z" fill="#fff"/><path d="M198.14,34.35V27.66h-1.81V24.15h1.81V21h5.15v3.13h3v3.51h-3v6.2c0,1.1.54,1.58,1.52,1.58a4,4,0,0,0,1.46-.25v3.9a10.42,10.42,0,0,1-2.84.43C200,39.52,198.14,37.89,198.14,34.35Z" fill="#fff"/><path d="M214.12,34.35V27.66h-1.81V24.15h1.81V21h5.14v3.13h3v3.51h-3v6.2a1.37,1.37,0,0,0,1.53,1.58,4,4,0,0,0,1.46-.25v3.9a10.42,10.42,0,0,1-2.84.43C216,39.52,214.12,37.89,214.12,34.35Z" fill="#fff"/><path d="M223.38,35c0-3.53,3-4.91,8-4.91h1.44v-.34c0-1.44-.34-2.39-2-2.39a1.84,1.84,0,0,0-2,1.78H224c.23-3.62,3.08-5.4,7.18-5.4s6.78,1.7,6.78,5.69v9.74h-5V37.43a4.94,4.94,0,0,1-4.46,2.09C225.76,39.52,223.38,38.2,223.38,35Zm9.42-1.09V33h-1.35c-2.07,0-3,.4-3,1.64,0,.86.58,1.41,1.78,1.41C231.71,36.05,232.8,35.22,232.8,33.92Z" fill="#fff"/><path d="M244.21,31.54l-4.68-7.39h5.92l2.32,4,2.27-4h5.29l-4.74,7,5.2,8h-5.92L247.2,34.7l-2.73,4.48h-5.26Z" fill="#fff"/><path d="M262.46,24.15h5.14v2.24a5.34,5.34,0,0,1,4.69-2.64c3.5,0,6.35,2.64,6.35,7.79v.23c0,5.17-2.85,7.75-6.38,7.75A5,5,0,0,1,267.6,37v7.24h-5.14Zm11,7.62v-.23c0-2.65-1.15-3.91-3-3.91s-3,1.35-3,3.88v.23c0,2.56,1.12,3.85,3,3.85S273.41,34.24,273.41,31.77Z" fill="#fff"/><path d="M280.51,24.15h5.14v3A4.74,4.74,0,0,1,290.51,24v4.8c-3.13-.09-4.86.89-4.86,3.3v7.13h-5.14Z" fill="#fff"/><path d="M291.43,31.85v-.23c0-4.82,3.59-7.87,8.13-7.87,4.11,0,7.64,2.36,7.64,7.76v1.35H296.63A3,3,0,0,0,299.76,36c1.7,0,2.42-.77,2.62-1.78h4.82c-.45,3.39-3.07,5.31-7.61,5.31C294.88,39.52,291.43,36.77,291.43,31.85ZM302.21,30c-.09-1.81-1-2.82-2.65-2.82s-2.61,1-2.87,2.82Z" fill="#fff"/><path d="M309,24.15h5.14v2.24a5.34,5.34,0,0,1,4.69-2.64c3.5,0,6.35,2.64,6.35,7.79v.23c0,5.17-2.85,7.75-6.38,7.75A5,5,0,0,1,314.13,37v7.24H309Zm10.95,7.62v-.23c0-2.65-1.15-3.91-3-3.91s-3,1.35-3,3.88v.23c0,2.56,1.12,3.85,3,3.85S319.94,34.24,319.94,31.77Z" fill="#fff"/><path d="M331,24.15h5.37l2.18,9,2.53-9h4.14l2.24,9,2.44-9h4.89l-4.77,15h-4.92l-2.24-8.39-2.33,8.39h-5Z" fill="#fff"/><path d="M356,20.07a2.68,2.68,0,0,1,2.81-2.67,2.67,2.67,0,1,1,0,5.32A2.66,2.66,0,0,1,356,20.07Zm.26,4.08h5.14v15h-5.14Z" fill="#fff"/><path d="M364.86,34.35V27.66h-1.81V24.15h1.81V21H370v3.13h3v3.51h-3v6.2a1.37,1.37,0,0,0,1.53,1.58,4,4,0,0,0,1.46-.25v3.9a10.49,10.49,0,0,1-2.84.43C366.76,39.52,364.86,37.89,364.86,34.35Z" fill="#fff"/><path d="M374.92,17.54h5.14v9A5.31,5.31,0,0,1,385,23.75c2.91,0,4.92,1.81,4.92,5.66v9.77h-5.15V30.45c0-1.7-.66-2.53-2.15-2.53s-2.56.92-2.56,2.84v8.42h-5.14Z" fill="#fff"/><path d="M398.34,34.35V27.66h-1.81V24.15h1.81V21h5.14v3.13h3v3.51h-3v6.2A1.37,1.37,0,0,0,405,35.44a4,4,0,0,0,1.46-.25v3.9a10.49,10.49,0,0,1-2.84.43C400.24,39.52,398.34,37.89,398.34,34.35Z" fill="#fff"/><path d="M408.4,17.54h5.14v9a5.32,5.32,0,0,1,4.94-2.82c2.91,0,4.92,1.81,4.92,5.66v9.77h-5.15V30.45c0-1.7-.66-2.53-2.15-2.53s-2.56.92-2.56,2.84v8.42H408.4Z" fill="#fff"/><path d="M425.1,31.85v-.23c0-4.82,3.59-7.87,8.13-7.87,4.11,0,7.64,2.36,7.64,7.76v1.35H430.3A3,3,0,0,0,433.43,36c1.7,0,2.41-.77,2.61-1.78h4.83c-.46,3.39-3.07,5.31-7.61,5.31C428.55,39.52,425.1,36.77,425.1,31.85ZM435.87,30c-.08-1.81-1-2.82-2.64-2.82s-2.61,1-2.87,2.82Z" fill="#fff"/><path d="M446.88,34.41h4.74c.18,1.09.66,1.7,2.13,1.7,1.26,0,1.84-.49,1.84-1.24s-.72-1.06-2.79-1.35c-4-.52-5.72-1.7-5.72-4.83,0-3.33,3-4.94,6.44-4.94,3.71,0,6.29,1.27,6.64,4.86H455.5a1.68,1.68,0,0,0-1.92-1.5c-1.12,0-1.7.49-1.7,1.18s.69,1,2.53,1.24c4.17.51,6.18,1.61,6.18,4.82,0,3.57-2.65,5.17-6.81,5.17S447,37.74,446.88,34.41Z" fill="#fff"/><path d="M462.26,24.15h5.14v2.42a5.31,5.31,0,0,1,4.94-2.82c2.9,0,4.92,1.81,4.92,5.66v9.77h-5.15V30.45c0-1.7-.66-2.53-2.15-2.53s-2.56.92-2.56,2.84v8.42h-5.14Z" fill="#fff"/><path d="M478.9,35c0-3.53,3-4.91,8-4.91h1.43v-.34c0-1.44-.34-2.39-2-2.39a1.85,1.85,0,0,0-2,1.78h-4.83c.23-3.62,3.08-5.4,7.19-5.4s6.78,1.7,6.78,5.69v9.74h-5V37.43A4.94,4.94,0,0,1,484,39.52C481.28,39.52,478.9,38.2,478.9,35Zm9.42-1.09V33H487c-2.07,0-3,.4-3,1.64,0,.86.58,1.41,1.79,1.41C487.23,36.05,488.32,35.22,488.32,33.92Z" fill="#fff"/><path d="M495.94,24.15h5.14v2.24a5.34,5.34,0,0,1,4.69-2.64c3.5,0,6.35,2.64,6.35,7.79v.23c0,5.17-2.85,7.75-6.38,7.75A5,5,0,0,1,501.08,37v7.24h-5.14Zm10.95,7.62v-.23c0-2.65-1.15-3.91-3-3.91s-3,1.35-3,3.88v.23c0,2.56,1.12,3.85,3,3.85S506.89,34.24,506.89,31.77Z" fill="#fff"/><path d="M518.42,31.85v-.23c0-4.82,3.59-7.87,8.24-7.87s8.19,3,8.19,7.73v.23c0,4.88-3.59,7.81-8.22,7.81S518.42,36.71,518.42,31.85Zm11.2-.08v-.23c0-2.53-1-3.94-3-3.94s-3,1.35-3,3.88v.23c0,2.59,1,4,3,4S529.62,34.27,529.62,31.77Z" fill="#fff"/><path d="M537.44,27.66h-1.9V24.15h1.9V22.83c0-3.73,2.33-5.52,5.89-5.52a9.28,9.28,0,0,1,2.36.32V21.4a4.61,4.61,0,0,0-1.41-.21,1.51,1.51,0,0,0-1.73,1.64v1.32h3.05v3.51h-3.05V39.18h-5.11Z" fill="#fff"/><path d="M115.52,67.24h4.74c.17,1.09.66,1.69,2.12,1.69,1.27,0,1.84-.49,1.84-1.23s-.72-1.07-2.78-1.35c-4-.52-5.72-1.7-5.72-4.83,0-3.33,3-4.94,6.43-4.94,3.71,0,6.3,1.26,6.64,4.85h-4.65a1.68,1.68,0,0,0-1.93-1.49c-1.12,0-1.69.49-1.69,1.18s.69,1,2.52,1.23c4.17.52,6.18,1.61,6.18,4.83,0,3.56-2.64,5.17-6.81,5.17S115.63,70.57,115.52,67.24Z" fill="#fff"/><path d="M130.17,64.68v-.23c0-4.83,3.6-7.87,8.25-7.87s8.19,3,8.19,7.73v.23c0,4.88-3.59,7.81-8.22,7.81S130.17,69.54,130.17,64.68Zm11.21-.09v-.23c0-2.53-1-3.93-3-3.93s-3,1.35-3,3.88v.23c0,2.58,1,4,3,4S141.38,67.09,141.38,64.59Z" fill="#fff"/><path d="M148.42,57h5.15v2.3a5.23,5.23,0,0,1,4.71-2.7,4.09,4.09,0,0,1,4.08,2.5,5.93,5.93,0,0,1,5-2.5c2.84,0,4.91,1.84,4.91,5.6V72H167.1V63c0-1.52-.75-2.27-1.93-2.27a2.22,2.22,0,0,0-2.29,2.53V72h-5.09V63c0-1.52-.75-2.27-1.93-2.27a2.23,2.23,0,0,0-2.29,2.53V72h-5.15Z" fill="#fff"/><path d="M173.94,64.68v-.23c0-4.83,3.6-7.87,8.14-7.87,4.1,0,7.64,2.35,7.64,7.75v1.35H179.15c.14,2,1.29,3.14,3.13,3.14,1.69,0,2.41-.78,2.61-1.78h4.83c-.46,3.39-3.08,5.31-7.62,5.31C177.39,72.35,173.94,69.59,173.94,64.68Zm10.78-1.9c-.09-1.81-1-2.81-2.64-2.81s-2.62,1-2.88,2.81Z" fill="#fff"/><path d="M196.73,57h5.15v2.24a5.29,5.29,0,0,1,4.68-2.64c3.51,0,6.35,2.64,6.35,7.78v.23c0,5.17-2.84,7.76-6.38,7.76a4.94,4.94,0,0,1-4.65-2.56V77h-5.15Zm11,7.61v-.23c0-2.64-1.15-3.9-3-3.9s-3,1.35-3,3.87v.23c0,2.56,1.12,3.85,3,3.85S207.68,67.06,207.68,64.59Z" fill="#fff"/><path d="M214.67,52.9a2.68,2.68,0,0,1,2.81-2.67,2.66,2.66,0,1,1,0,5.31A2.66,2.66,0,0,1,214.67,52.9Zm.26,4.08h5.14V72h-5.14Z" fill="#fff"/><path d="M222,64.68v-.23c0-5,3.59-7.87,8-7.87,3.68,0,7.07,1.61,7.36,6.17h-4.83a2.22,2.22,0,0,0-2.41-2.18c-1.81,0-2.88,1.29-2.88,3.82v.23c0,2.62,1,4,3,4a2.51,2.51,0,0,0,2.62-2.5h4.62c-.14,3.79-2.7,6.26-7.55,6.26C225.44,72.35,222,69.74,222,64.68Z" fill="#fff"/><path d="M238.35,67.24h4.74c.17,1.09.66,1.69,2.13,1.69,1.26,0,1.83-.49,1.83-1.23s-.71-1.07-2.78-1.35c-4-.52-5.72-1.7-5.72-4.83,0-3.33,3-4.94,6.44-4.94,3.7,0,6.29,1.26,6.63,4.85H247A1.68,1.68,0,0,0,245,59.94c-1.12,0-1.69.49-1.69,1.18s.69,1,2.53,1.23c4.16.52,6.17,1.61,6.17,4.83,0,3.56-2.64,5.17-6.81,5.17S238.46,70.57,238.35,67.24Z" fill="#fff"/><path d="M253.52,69.42a2.87,2.87,0,0,1,2.93-2.9,2.9,2.9,0,1,1,0,5.8A2.87,2.87,0,0,1,253.52,69.42Z" fill="#fff"/><path d="M271.51,56H266.2V51.46h16.55V56h-5.32V72h-5.92Z" fill="#fff"/><path d="M283.58,57h5.15v3a4.74,4.74,0,0,1,4.85-3.19v4.8c-3.13-.09-4.85.89-4.85,3.3V72h-5.15Z" fill="#fff"/><path d="M300.4,70.48l-6-13.5H300l3.11,8,2.87-8h4.91l-8,20.05H297.9Z" fill="#fff"/><path d="M321.81,56h-5.32V51.46H333V56h-5.31V72h-5.92Z" fill="#fff"/><path d="M332,67.84c0-3.53,3-4.91,8-4.91h1.44v-.35c0-1.43-.35-2.38-2-2.38a1.85,1.85,0,0,0-2,1.78h-4.82c.23-3.62,3.07-5.4,7.18-5.4s6.78,1.69,6.78,5.69V72h-5V70.25a4.94,4.94,0,0,1-4.45,2.1C334.4,72.35,332,71,332,67.84Zm9.43-1.09v-.92h-1.36c-2.06,0-3,.4-3,1.64,0,.86.57,1.4,1.78,1.4C340.34,68.87,341.44,68,341.44,66.75Z" fill="#fff"/><path d="M352.85,64.36,348.16,57h5.92l2.33,4,2.27-4H364l-4.75,7,5.2,8.05h-5.91l-2.68-4.49L353.1,72h-5.25Z" fill="#fff"/><path d="M371.56,51.46h7.81c5.63,0,8.25,2.5,8.25,6.87v.11c0,4.31-2.91,6.64-8,6.64h-2.21V72h-5.86Zm7.55,9.6c1.9,0,2.9-.89,2.9-2.59v-.11c0-1.75-1-2.47-2.87-2.47h-1.72v5.17Z" fill="#fff"/><path d="M389.4,57h5.15v3a4.72,4.72,0,0,1,4.85-3.19v4.8c-3.13-.09-4.85.89-4.85,3.3V72H389.4Z" fill="#fff"/><path d="M400.33,64.68v-.23c0-4.83,3.59-7.87,8.24-7.87s8.19,3,8.19,7.73v.23c0,4.88-3.59,7.81-8.22,7.81S400.33,69.54,400.33,64.68Zm11.2-.09v-.23c0-2.53-1-3.93-3-3.93s-3,1.35-3,3.88v.23c0,2.58,1,4,3,4S411.53,67.09,411.53,64.59Z" fill="#fff"/><path d="M423.17,61.86v-.23c0-6.26,4.6-10.48,10.78-10.48,4.85,0,9.16,2.21,9.56,7.55h-5.83c-.29-1.92-1.52-2.93-3.7-2.93-2.91,0-4.66,2.24-4.66,5.95V62c0,3.33,1.24,5.92,4.8,5.92,2.87,0,4-1.47,4.08-3.1h-3.85V60.66H444v2.52c0,5.23-3.42,9.17-10.05,9.17C427,72.35,423.17,68,423.17,61.86Z" fill="#fff"/><path d="M445.19,64.68v-.23c0-4.83,3.59-7.87,8.24-7.87s8.19,3,8.19,7.73v.23c0,4.88-3.59,7.81-8.22,7.81S445.19,69.54,445.19,64.68Zm11.2-.09v-.23c0-2.53-1-3.93-3-3.93s-3,1.35-3,3.88v.23c0,2.58,1,4,3,4S456.39,67.09,456.39,64.59Z" fill="#fff"/><path d="M462.6,69.42a2.87,2.87,0,0,1,2.93-2.9,2.9,2.9,0,1,1,0,5.8A2.87,2.87,0,0,1,462.6,69.42Z" fill="#fff"/><rect width="728" height="90" fill="none"/></g></g></g></g></svg>