<svg xmlns="http://www.w3.org/2000/svg" viewBox="0 0 300 250"><title>legal</title><g id="Layer_2" data-name="Layer 2"><g id="Optional_loan_from_Axos_Bank_._Not_your_tax_refund." data-name="Optional loan from Axos Bank®. Not your tax refund."><path d="M20.5,153.78v-.07a3.16,3.16,0,1,1,6.31,0v.07a3.16,3.16,0,1,1-6.31,0Zm5.5,0v-.07a2.36,2.36,0,1,0-4.69,0v.07a2.42,2.42,0,0,0,2.37,2.62A2.35,2.35,0,0,0,26,153.75Z" fill="#fff"/><path d="M27.92,152.25h.75V153a1.93,1.93,0,0,1,1.59-.87,2.14,2.14,0,0,1,2.14,2.37v.07A2.17,2.17,0,0,1,30.26,157a1.78,1.78,0,0,1-1.59-.86v2.42h-.75Zm3.71,2.39v-.07c0-1.19-.66-1.78-1.45-1.78s-1.54.58-1.54,1.78v.07c0,1.21.63,1.78,1.55,1.78S31.63,155.79,31.63,154.64Z" fill="#fff"/><path d="M33.59,155.78v-2.9h-.67v-.63h.67v-1.07h.75v1.07h1.1v.63h-1.1v2.83c0,.46.2.68.58.68a1.59,1.59,0,0,0,.58-.1v.63a1.85,1.85,0,0,1-.64.1A1.14,1.14,0,0,1,33.59,155.78Z" fill="#fff"/><path d="M36.37,150.77a.5.5,0,0,1,.5-.49.49.49,0,0,1,.49.49.5.5,0,0,1-.49.5A.51.51,0,0,1,36.37,150.77Zm.14,1.48h.74V157h-.74Z" fill="#fff"/><path d="M38.3,154.64v-.07a2.31,2.31,0,1,1,4.62,0v.07a2.31,2.31,0,1,1-4.62,0Zm3.85,0v-.06c0-1.09-.6-1.79-1.54-1.79a1.56,1.56,0,0,0-1.54,1.78v.07c0,1.07.59,1.78,1.54,1.78S42.15,155.71,42.15,154.64Z" fill="#fff"/><path d="M44,152.25h.75V153a1.59,1.59,0,0,1,1.51-.83c1,0,1.66.53,1.66,1.9V157h-.75v-3c0-.83-.35-1.19-1.11-1.19a1.23,1.23,0,0,0-1.31,1.28V157H44Z" fill="#fff"/><path d="M48.81,155.65c0-1.09,1.15-1.46,2.36-1.46h.67v-.34c0-.75-.29-1.06-1-1.06s-1,.27-1.08.84H49a1.64,1.64,0,0,1,1.86-1.46,1.52,1.52,0,0,1,1.72,1.68V157h-.75v-.6a1.69,1.69,0,0,1-1.46.68C49.5,157,48.81,156.62,48.81,155.65Zm3-.34v-.59h-.65c-.94,0-1.63.24-1.63.93,0,.49.23.79.89.79S51.84,156,51.84,155.31Z" fill="#fff"/><path d="M53.94,150h.75v7h-.75Z" fill="#fff"/><path d="M58.36,150h.75v7h-.75Z" fill="#fff"/><path d="M60.16,154.64v-.07a2.32,2.32,0,1,1,4.63,0v.07a2.32,2.32,0,1,1-4.63,0Zm3.85,0v-.06c0-1.09-.6-1.79-1.54-1.79a1.56,1.56,0,0,0-1.54,1.78v.07c0,1.07.59,1.78,1.54,1.78S64,155.71,64,154.64Z" fill="#fff"/><path d="M65.42,155.65c0-1.09,1.15-1.46,2.36-1.46h.68v-.34c0-.75-.29-1.06-1-1.06s-1,.27-1.08.84h-.75a1.64,1.64,0,0,1,1.86-1.46,1.52,1.52,0,0,1,1.72,1.68V157h-.74v-.6A1.71,1.71,0,0,1,67,157C66.12,157,65.42,156.62,65.42,155.65Zm3-.34v-.59h-.65c-1,0-1.64.24-1.64.93,0,.49.23.79.89.79S68.46,156,68.46,155.31Z" fill="#fff"/><path d="M70.53,152.25h.75V153a1.61,1.61,0,0,1,1.51-.83c1,0,1.66.53,1.66,1.9V157H73.7v-3c0-.83-.35-1.19-1.1-1.19a1.24,1.24,0,0,0-1.32,1.28V157h-.75Z" fill="#fff"/><path d="M78.19,152.88h-.67v-.63h.67v-.77c0-.95.47-1.51,1.41-1.51a1.6,1.6,0,0,1,.56.09v.63a1.62,1.62,0,0,0-.54-.1c-.48,0-.68.33-.68.81v.85h1.15v.63H78.94V157h-.75Z" fill="#fff"/><path d="M81,152.25h.75v.84a1.62,1.62,0,0,1,1.55-.92v.7c-1,0-1.55.34-1.55,1.5V157H81Z" fill="#fff"/><path d="M83.77,154.64v-.07a2.32,2.32,0,1,1,4.63,0v.07a2.32,2.32,0,1,1-4.63,0Zm3.86,0v-.06c0-1.09-.61-1.79-1.54-1.79s-1.54.7-1.54,1.78v.07c0,1.07.58,1.78,1.54,1.78A1.57,1.57,0,0,0,87.63,154.64Z" fill="#fff"/><path d="M89.43,152.25h.74V153a1.54,1.54,0,0,1,1.41-.8,1.36,1.36,0,0,1,1.37.88,1.84,1.84,0,0,1,1.62-.88c.84,0,1.58.5,1.58,1.87V157H95.4v-3c0-.83-.35-1.17-1-1.17a1.2,1.2,0,0,0-1.24,1.26V157h-.75v-3c0-.83-.35-1.17-1-1.17a1.2,1.2,0,0,0-1.25,1.26V157h-.74Z" fill="#fff"/><path d="M101.51,150.52h1l2.18,6.44h-.78l-.63-1.86h-2.65L100,157H99.3Zm-.64,4h2.24L102,151.17Z" fill="#fff"/><path d="M106.84,154.54l-1.57-2.29h.87l1.15,1.71,1.14-1.71h.81l-1.55,2.23,1.72,2.48h-.89l-1.27-1.9L106,157h-.8Z" fill="#fff"/><path d="M109.7,154.64v-.07a2.32,2.32,0,1,1,4.63,0v.07a2.32,2.32,0,1,1-4.63,0Zm3.86,0v-.06c0-1.09-.61-1.79-1.54-1.79s-1.54.7-1.54,1.78v.07c0,1.07.58,1.78,1.54,1.78A1.57,1.57,0,0,0,113.56,154.64Z" fill="#fff"/><path d="M115,155.51h.73c0,.56.35.91,1.1.91s1-.25,1-.75-.37-.66-1.1-.79c-1.22-.23-1.64-.57-1.64-1.39a1.47,1.47,0,0,1,1.6-1.32,1.51,1.51,0,0,1,1.7,1.36h-.72c-.11-.52-.4-.74-1-.74s-.89.27-.89.67.23.6,1.09.75,1.66.4,1.66,1.4c0,.85-.58,1.43-1.73,1.43S115,156.47,115,155.51Z" fill="#fff"/><path d="M121.84,150.52h1.94c1.2,0,2.07.4,2.07,1.67v0a1.31,1.31,0,0,1-1,1.36,1.41,1.41,0,0,1,1.28,1.54v0c0,1.21-.82,1.8-2.11,1.8h-2.21Zm1.94,2.81c.94,0,1.3-.34,1.3-1.14v0c0-.73-.42-1-1.32-1h-1.15v2.2Zm.25,3c.94,0,1.37-.41,1.37-1.19v0c0-.79-.44-1.17-1.48-1.17h-1.31v2.4Z" fill="#fff"/><path d="M126.86,155.65c0-1.09,1.16-1.46,2.36-1.46h.68v-.34c0-.75-.29-1.06-1-1.06s-1,.27-1.08.84h-.75a1.65,1.65,0,0,1,1.87-1.46,1.52,1.52,0,0,1,1.72,1.68V157h-.75v-.6a1.71,1.71,0,0,1-1.47.68C127.56,157,126.86,156.62,126.86,155.65Zm3-.34v-.59h-.65c-.94,0-1.64.24-1.64.93,0,.49.24.79.89.79C129.3,156.44,129.9,156,129.9,155.31Z" fill="#fff"/><path d="M132,152.25h.74V153a1.61,1.61,0,0,1,1.52-.83c1,0,1.65.53,1.65,1.9V157h-.74v-3c0-.83-.36-1.19-1.11-1.19a1.24,1.24,0,0,0-1.32,1.28V157H132Z" fill="#fff"/><path d="M137.22,150H138v4.42l1.95-2.17h.88l-2,2.19L141,157h-.91L138,154.52V157h-.75Z" fill="#fff"/><path d="M141.16,151.33a1.16,1.16,0,0,1,1.17-1.17,1.16,1.16,0,1,1-1.17,1.17Zm2.12,0a1,1,0,1,0-.95,1A.92.92,0,0,0,143.28,151.32Zm-1.35-.59h.4c.27,0,.44.11.44.35h0a.3.3,0,0,1-.23.31l.3.49h-.26l-.28-.44h-.12v.44h-.25Zm.4.53c.13,0,.19-.06.19-.17h0c0-.12-.07-.16-.19-.16h-.15v.33Z" fill="#fff"/><path d="M143.21,156.43a.58.58,0,1,1,.57.57A.57.57,0,0,1,143.21,156.43Z" fill="#fff"/><path d="M148,150.52h1l3.13,5.32v-5.32h.75V157H152l-3.24-5.52V157H148Z" fill="#fff"/><path d="M154,154.64v-.07a2.32,2.32,0,1,1,4.63,0v.07a2.32,2.32,0,1,1-4.63,0Zm3.86,0v-.06c0-1.09-.61-1.79-1.54-1.79s-1.54.7-1.54,1.78v.07c0,1.07.58,1.78,1.54,1.78A1.57,1.57,0,0,0,157.81,154.64Z" fill="#fff"/><path d="M159.77,155.78v-2.9h-.68v-.63h.68v-1.07h.74v1.07h1.1v.63h-1.1v2.83c0,.46.21.68.59.68a1.67,1.67,0,0,0,.58-.1v.63a1.94,1.94,0,0,1-.64.1A1.14,1.14,0,0,1,159.77,155.78Z" fill="#fff"/><path d="M166.23,156.47l-1.85-4.22h.81l1.44,3.37,1.3-3.37h.77l-2.61,6.35h-.75Z" fill="#fff"/><path d="M169.06,154.64v-.07a2.31,2.31,0,1,1,4.62,0v.07a2.31,2.31,0,1,1-4.62,0Zm3.85,0v-.06c0-1.09-.6-1.79-1.54-1.79s-1.54.7-1.54,1.78v.07c0,1.07.59,1.78,1.54,1.78A1.57,1.57,0,0,0,172.91,154.64Z" fill="#fff"/><path d="M174.66,155.23v-3h.75v2.94c0,.83.35,1.2,1.09,1.2a1.24,1.24,0,0,0,1.3-1.29v-2.85h.74V157h-.74v-.75a1.62,1.62,0,0,1-1.5.83C175.37,157,174.66,156.52,174.66,155.23Z" fill="#fff"/><path d="M179.92,152.25h.75v.84a1.62,1.62,0,0,1,1.54-.92v.7c-.94,0-1.54.34-1.54,1.5V157h-.75Z" fill="#fff"/><path d="M185.58,155.78v-2.9h-.68v-.63h.68v-1.07h.75v1.07h1.09v.63h-1.09v2.83c0,.46.2.68.58.68a1.59,1.59,0,0,0,.58-.1v.63a1.89,1.89,0,0,1-.64.1A1.14,1.14,0,0,1,185.58,155.78Z" fill="#fff"/><path d="M188.13,155.65c0-1.09,1.16-1.46,2.36-1.46h.68v-.34c0-.75-.29-1.06-1-1.06s-1,.27-1.08.84h-.75a1.65,1.65,0,0,1,1.87-1.46,1.52,1.52,0,0,1,1.72,1.68V157h-.75v-.6a1.71,1.71,0,0,1-1.47.68C188.83,157,188.13,156.62,188.13,155.65Zm3-.34v-.59h-.65c-.94,0-1.64.24-1.64.93,0,.49.24.79.89.79S191.17,156,191.17,155.31Z" fill="#fff"/><path d="M194.43,154.54l-1.58-2.29h.87l1.16,1.71,1.14-1.71h.81l-1.56,2.23L197,157h-.88l-1.27-1.9-1.3,1.9h-.8Z" fill="#fff"/><path d="M200.11,152.25h.75v.84a1.63,1.63,0,0,1,1.55-.92v.7c-.95,0-1.55.34-1.55,1.5V157h-.75Z" fill="#fff"/><path d="M202.88,154.65v-.07a2.21,2.21,0,0,1,2.2-2.41,2.06,2.06,0,0,1,2.12,2.34v.24h-3.55c0,1.07.55,1.67,1.51,1.67.73,0,1.16-.27,1.26-.82h.74a1.81,1.81,0,0,1-2,1.44A2.21,2.21,0,0,1,202.88,154.65Zm3.55-.5c-.07-1-.57-1.36-1.35-1.36a1.41,1.41,0,0,0-1.4,1.36Z" fill="#fff"/><path d="M208.37,152.88h-.68v-.63h.68v-.77c0-.95.46-1.51,1.4-1.51a1.6,1.6,0,0,1,.56.09v.63a1.56,1.56,0,0,0-.53-.1c-.49,0-.69.33-.69.81v.85h1.16v.63h-1.16V157h-.74Z" fill="#fff"/><path d="M211.14,155.23v-3h.75v2.94c0,.83.35,1.2,1.09,1.2a1.24,1.24,0,0,0,1.29-1.29v-2.85H215V157h-.75v-.75a1.6,1.6,0,0,1-1.49.83C211.84,157,211.14,156.52,211.14,155.23Z" fill="#fff"/><path d="M216.39,152.25h.75V153a1.61,1.61,0,0,1,1.51-.83c1,0,1.66.53,1.66,1.9V157h-.75v-3c0-.83-.35-1.19-1.1-1.19a1.24,1.24,0,0,0-1.32,1.28V157h-.75Z" fill="#fff"/><path d="M221.29,154.7v-.08a2.23,2.23,0,0,1,2.2-2.45A1.7,1.7,0,0,1,225,153v-3h.74v7H225v-.81a2,2,0,0,1-1.61.89A2.1,2.1,0,0,1,221.29,154.7Zm3.76-.07v-.07c0-1.2-.57-1.77-1.49-1.77s-1.49.66-1.49,1.8v.07c0,1.19.63,1.76,1.43,1.76S225.05,155.84,225.05,154.63Z" fill="#fff"/><path d="M227.09,156.43a.58.58,0,1,1,.57.57A.57.57,0,0,1,227.09,156.43Z" fill="#fff"/><rect width="300" height="250" fill="none"/></g></g></svg>