<svg xmlns="http://www.w3.org/2000/svg" viewBox="0 0 300 250"><title>H80</title><g id="Layer_2" data-name="Layer 2"><g id="Layer_3" data-name="Layer 3"><rect width="300" height="250" fill="none"/></g><g id="You_could_get_a_Refund_Advance_loan_up_to_3_500_within_minutes" data-name="You could get a Refund Advance loan up to $3,500 within minutes"><path d="M26.17,32.8l-6-10.47h5.71L29,28.5l3.09-6.17h5L31.44,32.8v7.83H26.17Z" fill="#fff"/><path d="M35.2,34.1v-.2c0-4.3,3.2-7,7.35-7s7.29,2.63,7.29,6.88V34c0,4.35-3.2,7-7.32,7S35.2,38.43,35.2,34.1Zm10-.08v-.2c0-2.25-.89-3.51-2.63-3.51s-2.66,1.21-2.66,3.46V34c0,2.31.89,3.56,2.66,3.56S45.18,36.25,45.18,34Z" fill="#fff"/><path d="M51.35,36V27.24h4.58v8c0,1.51.59,2.25,1.9,2.25S60.1,36.66,60.1,35V27.24h4.59V40.63H60.1V38.55a4.37,4.37,0,0,1-4.24,2.38C53.27,40.93,51.35,39.35,51.35,36Z" fill="#fff"/><path d="M71,34.1v-.2c0-4.46,3.2-7,7.14-7,3.27,0,6.29,1.43,6.55,5.5h-4.3a2,2,0,0,0-2.15-1.95c-1.61,0-2.56,1.15-2.56,3.41v.2c0,2.33.9,3.53,2.64,3.53a2.23,2.23,0,0,0,2.33-2.22h4.12c-.13,3.37-2.41,5.57-6.73,5.57C74,40.93,71,38.61,71,34.1Z" fill="#fff"/><path d="M85.5,34.1v-.2c0-4.3,3.2-7,7.34-7s7.29,2.63,7.29,6.88V34c0,4.35-3.19,7-7.31,7S85.5,38.43,85.5,34.1Zm10-.08v-.2c0-2.25-.9-3.51-2.64-3.51s-2.66,1.21-2.66,3.46V34c0,2.31.9,3.56,2.66,3.56S95.48,36.25,95.48,34Z" fill="#fff"/><path d="M101.65,36V27.24h4.58v8c0,1.51.59,2.25,1.89,2.25s2.28-.82,2.28-2.53V27.24H115V40.63H110.4V38.55a4.39,4.39,0,0,1-4.25,2.38C103.57,40.93,101.65,39.35,101.65,36Z" fill="#fff"/><path d="M117.44,21.36H122V40.63h-4.55Z" fill="#fff"/><path d="M123.79,34.08v-.21c0-4.55,2.5-7,5.68-7a4.33,4.33,0,0,1,4.12,2.25V21.36h4.58V40.63h-4.58V38.45a4.52,4.52,0,0,1-4.17,2.48C126.32,40.93,123.79,38.71,123.79,34.08Zm9.93-.08v-.21c0-2.25-.95-3.45-2.64-3.45s-2.64,1.15-2.64,3.48V34c0,2.26,1,3.41,2.59,3.41S133.72,36.28,133.72,34Z" fill="#fff"/><path d="M144.42,40.63H149c.21,1,.79,1.74,2.46,1.74a2.53,2.53,0,0,0,2.84-2.82v-2A4.7,4.7,0,0,1,150.12,40c-3.12,0-5.68-2.3-5.68-6.42v-.21c0-3.94,2.54-6.44,5.68-6.44a4.35,4.35,0,0,1,4.15,2.25v-1.9h4.58V39.5c0,4-2.64,6.09-7.42,6.09C146.87,45.59,144.77,43.67,144.42,40.63Zm10-7.12v-.18c0-1.84-1-3-2.64-3s-2.64,1.21-2.64,3.05v.2c0,1.85,1,3,2.61,3S154.4,35.41,154.4,33.51Z" fill="#fff"/><path d="M160.46,34.1v-.2c0-4.3,3.2-7,7.25-7,3.66,0,6.8,2.09,6.8,6.9V35H165.1a2.67,2.67,0,0,0,2.78,2.79c1.51,0,2.15-.69,2.33-1.59h4.3c-.41,3-2.74,4.73-6.78,4.73C163.53,40.93,160.46,38.48,160.46,34.1Zm9.6-1.69c-.08-1.61-.87-2.5-2.35-2.5a2.54,2.54,0,0,0-2.56,2.5Z" fill="#fff"/><path d="M176.72,36.33v-6H175.1V27.24h1.62V24.45h4.58v2.79h2.63v3.13H181.3v5.52c0,1,.48,1.41,1.35,1.41a3.56,3.56,0,0,0,1.31-.23v3.48a9.82,9.82,0,0,1-2.54.38C178.41,40.93,176.72,39.48,176.72,36.33Z" fill="#fff"/><path d="M189.57,36.92c0-3.15,2.66-4.38,7.11-4.38H198v-.31c0-1.28-.31-2.12-1.77-2.12a1.64,1.64,0,0,0-1.81,1.59h-4.3c.2-3.23,2.73-4.81,6.39-4.81s6,1.51,6,5.06v8.68h-4.45V39.07a4.4,4.4,0,0,1-4,1.86C191.69,40.93,189.57,39.76,189.57,36.92Zm8.39-1v-.81h-1.2c-1.85,0-2.67.35-2.67,1.45,0,.77.52,1.26,1.59,1.26C197,37.84,198,37.1,198,35.94Z" fill="#fff"/><path d="M21.77,49.83h7.16c4.79,0,7.45,2,7.45,5.81v.1a4.78,4.78,0,0,1-3.3,4.81l4.37,7.58H31.92l-3.71-6.55H27v6.55H21.77Zm6.9,8.34c1.77,0,2.64-.74,2.64-2.22v-.11c0-1.48-.92-2.07-2.61-2.07H27v4.4Z" fill="#fff"/><path d="M37.46,61.6v-.2c0-4.3,3.19-7,7.24-7,3.66,0,6.8,2.09,6.8,6.9V62.5H42.09a2.68,2.68,0,0,0,2.79,2.79c1.51,0,2.15-.69,2.33-1.59H51.5c-.41,3-2.73,4.73-6.78,4.73S37.46,66,37.46,61.6Zm9.59-1.69c-.08-1.61-.87-2.5-2.35-2.5a2.54,2.54,0,0,0-2.56,2.5Z" fill="#fff"/><path d="M53.78,57.87H52.1V54.74h1.68V53.57c0-3.33,2.08-4.92,5.25-4.92a7.94,7.94,0,0,1,2.1.29v3.35a4.27,4.27,0,0,0-1.26-.18,1.34,1.34,0,0,0-1.53,1.46v1.17h2.71v3.13H58.34V68.13H53.78Z" fill="#fff"/><path d="M62.49,63.47V54.74h4.58v8c0,1.51.59,2.25,1.89,2.25s2.28-.82,2.28-2.53V54.74h4.58V68.13H71.24V66.05A4.39,4.39,0,0,1,67,68.43C64.41,68.43,62.49,66.85,62.49,63.47Z" fill="#fff"/><path d="M78.15,54.74h4.58v2.15a4.73,4.73,0,0,1,4.4-2.5c2.59,0,4.38,1.61,4.38,5v8.7H86.93V60.35c0-1.51-.59-2.25-1.92-2.25s-2.28.82-2.28,2.53v7.5H78.15Z" fill="#fff"/><path d="M93.07,61.58v-.21c0-4.55,2.51-7,5.68-7a4.32,4.32,0,0,1,4.12,2.25V48.86h4.58V68.13h-4.58V66a4.51,4.51,0,0,1-4.17,2.48C95.61,68.43,93.07,66.21,93.07,61.58ZM103,61.5v-.21c0-2.25-1-3.45-2.63-3.45S97.73,59,97.73,61.32v.2c0,2.26,1,3.41,2.58,3.41S103,63.78,103,61.5Z" fill="#fff"/><path d="M119.28,49.83h6.78l5.81,18.3h-5.55l-1-3.41h-6.07l-1,3.41h-4.89Zm1,11.29h4l-2-7Z" fill="#fff"/><path d="M132.18,61.58v-.21c0-4.55,2.51-7,5.68-7A4.33,4.33,0,0,1,142,56.64V48.86h4.58V68.13H142V66a4.51,4.51,0,0,1-4.17,2.48C134.71,68.43,132.18,66.21,132.18,61.58Zm9.93-.08v-.21c0-2.25-1-3.45-2.64-3.45s-2.63,1.15-2.63,3.48v.2c0,2.26,1,3.41,2.58,3.41S142.11,63.78,142.11,61.5Z" fill="#fff"/><path d="M147.74,54.74h4.89l2.79,8.63,2.74-8.63h4.37l-4.88,13.39h-5Z" fill="#fff"/><path d="M162.36,64.42c0-3.15,2.66-4.38,7.11-4.38h1.28v-.31c0-1.28-.31-2.12-1.76-2.12a1.64,1.64,0,0,0-1.82,1.59h-4.3c.2-3.23,2.74-4.81,6.4-4.81s6,1.51,6,5.06v8.68h-4.46V66.57a4.39,4.39,0,0,1-4,1.86C164.48,68.43,162.36,67.26,162.36,64.42Zm8.39-1v-.81h-1.2c-1.84,0-2.66.35-2.66,1.45,0,.77.51,1.26,1.58,1.26C169.78,65.34,170.75,64.6,170.75,63.44Z" fill="#fff"/><path d="M177.54,54.74h4.58v2.15a4.71,4.71,0,0,1,4.4-2.5c2.58,0,4.37,1.61,4.37,5v8.7h-4.58V60.35c0-1.51-.59-2.25-1.92-2.25s-2.27.82-2.27,2.53v7.5h-4.58Z" fill="#fff"/><path d="M192.41,61.6v-.2c0-4.46,3.19-7,7.13-7,3.28,0,6.3,1.43,6.56,5.5h-4.3a2,2,0,0,0-2.15-2c-1.61,0-2.56,1.15-2.56,3.41v.2c0,2.33.89,3.53,2.63,3.53a2.23,2.23,0,0,0,2.33-2.22h4.12c-.13,3.37-2.4,5.57-6.73,5.57C195.45,68.43,192.41,66.11,192.41,61.6Z" fill="#fff"/><path d="M206.94,61.6v-.2c0-4.3,3.2-7,7.25-7,3.65,0,6.8,2.09,6.8,6.9V62.5h-9.41a2.67,2.67,0,0,0,2.78,2.79c1.51,0,2.15-.69,2.33-1.59H221c-.41,3-2.74,4.73-6.78,4.73C210,68.43,206.94,66,206.94,61.6Zm9.6-1.69c-.08-1.61-.87-2.5-2.35-2.5a2.54,2.54,0,0,0-2.56,2.5Z" fill="#fff"/><path d="M227.37,48.86h4.55V68.13h-4.55Z" fill="#fff"/><path d="M233.66,61.6v-.2c0-4.3,3.2-7,7.35-7s7.29,2.63,7.29,6.88v.2c0,4.35-3.2,7-7.32,7S233.66,65.93,233.66,61.6Zm10-.08v-.2c0-2.25-.89-3.51-2.63-3.51s-2.66,1.21-2.66,3.46v.2c0,2.31.89,3.56,2.66,3.56S243.64,63.75,243.64,61.52Z" fill="#fff"/><path d="M249.15,64.42c0-3.15,2.66-4.38,7.11-4.38h1.28v-.31c0-1.28-.3-2.12-1.76-2.12A1.64,1.64,0,0,0,254,59.2h-4.3c.21-3.23,2.74-4.81,6.4-4.81s6,1.51,6,5.06v8.68h-4.46V66.57a4.39,4.39,0,0,1-4,1.86C251.27,68.43,249.15,67.26,249.15,64.42Zm8.39-1v-.81h-1.2c-1.84,0-2.66.35-2.66,1.45,0,.77.51,1.26,1.58,1.26C256.57,65.34,257.54,64.6,257.54,63.44Z" fill="#fff"/><path d="M264.33,54.74h4.58v2.15a4.71,4.71,0,0,1,4.4-2.5c2.58,0,4.37,1.61,4.37,5v8.7H273.1V60.35c0-1.51-.59-2.25-1.92-2.25s-2.27.82-2.27,2.53v7.5h-4.58Z" fill="#fff"/><path d="M21.25,91V82.24h4.58v8c0,1.51.59,2.25,1.9,2.25S30,91.66,30,90V82.24h4.58V95.63H30V93.55a4.4,4.4,0,0,1-4.25,2.38C23.17,95.93,21.25,94.35,21.25,91Z" fill="#fff"/><path d="M36.92,82.24H41.5v2a4.72,4.72,0,0,1,4.17-2.35c3.12,0,5.65,2.35,5.65,6.93V89c0,4.61-2.53,6.91-5.68,6.91a4.4,4.4,0,0,1-4.14-2.27v6.44H36.92ZM46.67,89v-.2c0-2.35-1-3.48-2.64-3.48s-2.66,1.2-2.66,3.45V89c0,2.28,1,3.43,2.66,3.43S46.67,91.23,46.67,89Z" fill="#fff"/><path d="M58.26,91.33v-6H56.65V82.24h1.61V79.45h4.58v2.79h2.64v3.13H62.84v5.52c0,1,.49,1.41,1.36,1.41a3.51,3.51,0,0,0,1.3-.23v3.48a9.66,9.66,0,0,1-2.53.38C60,95.93,58.26,94.48,58.26,91.33Z" fill="#fff"/><path d="M66.5,89.1v-.2c0-4.3,3.2-7,7.35-7s7.29,2.63,7.29,6.88V89c0,4.35-3.2,7-7.32,7S66.5,93.43,66.5,89.1Zm10-.08v-.2c0-2.25-.89-3.51-2.63-3.51s-2.66,1.21-2.66,3.46V89c0,2.31.89,3.56,2.66,3.56S76.48,91.25,76.48,89Z" fill="#fff"/><path d="M93.43,95.88c-4.43-.3-6.58-2.66-6.76-6h4.74a2.43,2.43,0,0,0,2,2.41V88.51c-4.45-.64-6.35-2.25-6.35-5.81,0-3.09,2.43-5.32,6.35-5.6V74.82h2v2.31c3.72.3,5.92,2,6.22,5.52H97a2,2,0,0,0-1.59-1.92v3.54c3.92.56,6.48,1.89,6.48,5.6,0,3.12-2,5.73-6.48,6v3.2h-2Zm0-11.92V80.68c-1.15.21-1.74.82-1.74,1.64S92.05,83.68,93.43,84Zm2,4.89v3.4a1.85,1.85,0,0,0,1.72-1.82C97.14,89.59,96.78,89.15,95.42,88.85Z" fill="#fff"/><path d="M103,89.61h4.66a2.45,2.45,0,0,0,2.69,2.54c1.61,0,2.4-.77,2.4-2.08s-.77-2.15-2.4-2.15h-1.46V84.67h1.35c1.64,0,2.43-.74,2.43-2,0-1.1-.71-1.81-2.09-1.81a2.35,2.35,0,0,0-2.44,2.33h-4.63c.23-3.61,2.64-6.1,7.19-6.1,4.3,0,6.89,2,6.89,5a3.9,3.9,0,0,1-3.1,3.94A4.13,4.13,0,0,1,118,90.18c0,3.48-2.59,5.75-7.42,5.75C105.48,95.93,103.1,93.58,103,89.61Z" fill="#fff"/><path d="M118.44,97.7,120.59,91l4.24,1.51-3.68,6.27Z" fill="#fff"/><path d="M125.68,89.87h4.76A2.09,2.09,0,0,0,132.82,92c1.51,0,2.2-1.12,2.2-2.58a2.33,2.33,0,0,0-2.48-2.61,3.74,3.74,0,0,0-3,1.3H126.4l.38-10.77h12.33v3.84h-8.54l-.1,4a4.86,4.86,0,0,1,4.27-1.94c3.35,0,5.55,2.25,5.55,6.22s-2.79,6.44-7.42,6.44C128,95.93,125.81,93.3,125.68,89.87Z" fill="#fff"/><path d="M141.58,86.88v-.77c0-5.79,3.6-9,8.44-9s8.44,3,8.44,8.94v.71c0,5.81-3.32,9.21-8.54,9.21S141.58,92.63,141.58,86.88Zm11.64-.06v-.74c0-3.35-1-5-3.2-5s-3.2,1.66-3.2,5v.77c0,3.4,1,5,3.25,5S153.22,90.2,153.22,86.82Z" fill="#fff"/><path d="M159.93,86.88v-.77c0-5.79,3.6-9,8.44-9s8.44,3,8.44,8.94v.71c0,5.81-3.32,9.21-8.54,9.21S159.93,92.63,159.93,86.88Zm11.64-.06v-.74c0-3.35-1-5-3.2-5s-3.2,1.66-3.2,5v.77c0,3.4,1,5,3.25,5S171.57,90.2,171.57,86.82Z" fill="#fff"/><path d="M182.25,82.24H187l1.94,8,2.26-8h3.68l2,8,2.17-8h4.35l-4.25,13.39h-4.37l-2-7.48-2.07,7.48h-4.45Z" fill="#fff"/><path d="M204.51,78.61A2.53,2.53,0,1,1,207,81,2.39,2.39,0,0,1,204.51,78.61Zm.23,3.63h4.58V95.63h-4.58Z" fill="#fff"/><path d="M212.4,91.33v-6h-1.62V82.24h1.62V79.45H217v2.79h2.63v3.13H217v5.52c0,1,.48,1.41,1.35,1.41a3.6,3.6,0,0,0,1.31-.23v3.48a9.82,9.82,0,0,1-2.54.38C214.08,95.93,212.4,94.48,212.4,91.33Z" fill="#fff"/><path d="M221.35,76.36h4.58v8a4.74,4.74,0,0,1,4.41-2.5c2.58,0,4.37,1.61,4.37,5v8.7h-4.58V87.85c0-1.51-.59-2.25-1.92-2.25s-2.28.82-2.28,2.53v7.5h-4.58Z" fill="#fff"/><path d="M236.84,78.61A2.53,2.53,0,1,1,239.35,81,2.39,2.39,0,0,1,236.84,78.61Zm.23,3.63h4.58V95.63h-4.58Z" fill="#fff"/><path d="M244.11,82.24h4.58v2.15a4.71,4.71,0,0,1,4.4-2.5c2.58,0,4.37,1.61,4.37,5v8.7h-4.58V87.85c0-1.51-.58-2.25-1.92-2.25s-2.27.82-2.27,2.53v7.5h-4.58Z" fill="#fff"/><path d="M21.36,109.74h4.58v2.05a4.66,4.66,0,0,1,4.19-2.4,3.64,3.64,0,0,1,3.64,2.22,5.29,5.29,0,0,1,4.42-2.22c2.54,0,4.38,1.63,4.38,5v8.75H38v-8c0-1.35-.67-2-1.72-2a2,2,0,0,0-2,2.25v7.76H29.7v-8c0-1.35-.67-2-1.72-2a2,2,0,0,0-2,2.25v7.76H21.36Z" fill="#fff"/><path d="M44.7,106.11a2.53,2.53,0,1,1,2.51,2.35A2.39,2.39,0,0,1,44.7,106.11Zm.23,3.63h4.58v13.39H44.93Z" fill="#fff"/><path d="M52,109.74h4.58v2.15a4.71,4.71,0,0,1,4.4-2.5c2.58,0,4.38,1.61,4.38,5v8.7H60.74v-7.78c0-1.51-.58-2.25-1.91-2.25s-2.28.82-2.28,2.53v7.5H52Z" fill="#fff"/><path d="M67.45,118.47v-8.73H72v8c0,1.51.59,2.25,1.9,2.25s2.27-.82,2.27-2.53v-7.71h4.58v13.39H76.2v-2.08A4.37,4.37,0,0,1,72,123.43C69.37,123.43,67.45,121.85,67.45,118.47Z" fill="#fff"/><path d="M83.73,118.83v-6H82.12v-3.13h1.61V107h4.58v2.79H91v3.13H88.31v5.52c0,1,.49,1.41,1.36,1.41a3.54,3.54,0,0,0,1.3-.23v3.48a9.8,9.8,0,0,1-2.53.38C85.42,123.43,83.73,122,83.73,118.83Z" fill="#fff"/><path d="M92,116.6v-.2c0-4.3,3.2-7,7.24-7,3.66,0,6.81,2.09,6.81,6.9v1.21H96.6a2.68,2.68,0,0,0,2.79,2.79c1.51,0,2.15-.69,2.33-1.59H106c-.41,3-2.74,4.73-6.78,4.73C95,123.43,92,121,92,116.6Zm9.6-1.69c-.08-1.61-.87-2.5-2.36-2.5a2.53,2.53,0,0,0-2.55,2.5Z" fill="#fff"/><path d="M106.84,118.88h4.22c.16,1,.59,1.51,1.9,1.51,1.12,0,1.64-.44,1.64-1.1s-.64-1-2.49-1.2c-3.58-.46-5.09-1.51-5.09-4.3,0-3,2.64-4.4,5.73-4.4,3.3,0,5.61,1.12,5.91,4.32h-4.14a1.5,1.5,0,0,0-1.72-1.33c-1,0-1.51.43-1.51,1.05s.62.89,2.26,1.1c3.71.46,5.5,1.43,5.5,4.3,0,3.17-2.36,4.6-6.07,4.6S106.94,121.85,106.84,118.88Z" fill="#fff"/><path d="M124.48,116.6v-.2c0-4.3,3.2-7,7.34-7s7.29,2.63,7.29,6.88v.2c0,4.35-3.19,7-7.31,7S124.48,120.93,124.48,116.6Zm10-.08v-.2c0-2.25-.9-3.51-2.64-3.51s-2.66,1.21-2.66,3.46v.2c0,2.31.9,3.56,2.66,3.56S134.46,118.75,134.46,116.52Z" fill="#fff"/><path d="M141.42,112.87h-1.69v-3.13h1.69v-1.17c0-3.33,2.07-4.92,5.25-4.92a7.8,7.8,0,0,1,2.09.29v3.35a4.25,4.25,0,0,0-1.25-.18,1.34,1.34,0,0,0-1.53,1.46v1.17h2.71v3.13H146v10.26h-4.56Z" fill="#fff"/><path d="M155.57,112.87h-1.69v-3.13h1.69v-1.17c0-3.33,2.08-4.92,5.25-4.92a7.94,7.94,0,0,1,2.1.29v3.35a4.32,4.32,0,0,0-1.26-.18,1.34,1.34,0,0,0-1.53,1.46v1.17h2.71v3.13h-2.71v10.26h-4.56Z" fill="#fff"/><path d="M164.28,106.11a2.38,2.38,0,0,1,2.5-2.38,2.37,2.37,0,1,1,0,4.73A2.36,2.36,0,0,1,164.28,106.11Zm.23,3.63h4.58v13.39h-4.58Z" fill="#fff"/><path d="M171.67,103.86h4.56v19.27h-4.56Z" fill="#fff"/><path d="M178.58,106.11a2.53,2.53,0,1,1,2.51,2.35A2.39,2.39,0,0,1,178.58,106.11Zm.23,3.63h4.58v13.39h-4.58Z" fill="#fff"/><path d="M185.85,109.74h4.58v2.15a4.73,4.73,0,0,1,4.4-2.5c2.59,0,4.38,1.61,4.38,5v8.7h-4.58v-7.78c0-1.51-.59-2.25-1.92-2.25s-2.28.82-2.28,2.53v7.5h-4.58Z" fill="#fff"/><path d="M200.7,123.13h4.55c.21,1,.79,1.74,2.46,1.74a2.53,2.53,0,0,0,2.84-2.82v-2a4.7,4.7,0,0,1-4.15,2.46c-3.12,0-5.68-2.3-5.68-6.42v-.21c0-3.94,2.54-6.44,5.68-6.44a4.35,4.35,0,0,1,4.15,2.25v-1.9h4.58V122c0,4-2.64,6.09-7.42,6.09C203.15,128.09,201.06,126.17,200.7,123.13Zm10-7.12v-.18c0-1.84-1-3-2.64-3s-2.63,1.21-2.63,3v.2c0,1.85,1,3,2.61,3S210.68,117.91,210.68,116Z" fill="#fff"/><path d="M217.28,120.82a2.55,2.55,0,0,1,2.61-2.58,2.59,2.59,0,1,1,0,5.17A2.55,2.55,0,0,1,217.28,120.82Z" fill="#fff"/></g></g></svg>