<svg xmlns="http://www.w3.org/2000/svg" viewBox="0 0 160 600"><title>Asset 3</title><g id="Layer_2" data-name="Layer 2"><g id="Rect"><rect width="160" height="600" fill="none"/></g><g id="Expert_tax_prep_available_through_July_15." data-name="Expert tax prep available through July 15."><path d="M21.81,121.12H34.74v4.14H27.15v3.22H33.2v3.82H27.15v3.41h8v4.13H21.81Z" fill="#fff"/><path d="M40.53,132.88l-4.27-6.73h5.39l2.12,3.61,2.07-3.61h4.82l-4.32,6.36,4.74,7.33H45.69l-2.44-4.08-2.49,4.08H36Z" fill="#fff"/><path d="M52.39,126.15h4.68v2a4.84,4.84,0,0,1,4.27-2.41c3.2,0,5.79,2.41,5.79,7.1v.21c0,4.71-2.59,7.07-5.82,7.07a4.52,4.52,0,0,1-4.24-2.33v6.6H52.39Zm10,6.94v-.21c0-2.41-1-3.56-2.69-3.56s-2.73,1.23-2.73,3.53v.21c0,2.33,1,3.51,2.73,3.51S62.36,135.34,62.36,133.09Z" fill="#fff"/><path d="M68.09,133.17V133c0-4.4,3.28-7.18,7.41-7.18,3.75,0,7,2.15,7,7.07v1.23H72.83a2.74,2.74,0,0,0,2.86,2.86c1.54,0,2.2-.71,2.38-1.63h4.4c-.42,3.09-2.8,4.85-6.94,4.85C71.24,140.16,68.09,137.64,68.09,133.17Zm9.82-1.73c-.08-1.65-.89-2.57-2.41-2.57a2.6,2.6,0,0,0-2.61,2.57Z" fill="#fff"/><path d="M84.09,126.15h4.69v2.72A4.3,4.3,0,0,1,93.2,126v4.37c-2.85-.08-4.42.81-4.42,3v6.49H84.09Z" fill="#fff"/><path d="M95.74,135.44v-6.1H94.09v-3.19h1.65v-2.86h4.69v2.86h2.7v3.19h-2.7V135c0,1,.49,1.44,1.39,1.44a3.5,3.5,0,0,0,1.33-.24v3.56a9.63,9.63,0,0,1-2.59.4C97.47,140.16,95.74,138.67,95.74,135.44Z" fill="#fff"/><path d="M22,170.26v-6.1H20.37V161H22v-2.86H26.7V161h2.7v3.19H26.7v5.66a1.25,1.25,0,0,0,1.39,1.44,3.56,3.56,0,0,0,1.34-.24v3.56a9.79,9.79,0,0,1-2.6.4C23.74,175,22,173.48,22,170.26Z" fill="#fff"/><path d="M30.45,170.87c0-3.23,2.72-4.48,7.28-4.48H39v-.32c0-1.31-.31-2.17-1.8-2.17a1.68,1.68,0,0,0-1.86,1.62H31c.21-3.3,2.8-4.92,6.55-4.92s6.18,1.55,6.18,5.19v8.87H39.14v-1.6A4.5,4.5,0,0,1,35.08,175C32.62,175,30.45,173.77,30.45,170.87Zm8.58-1V169H37.8c-1.88,0-2.72.37-2.72,1.49,0,.79.52,1.29,1.62,1.29C38,171.81,39,171.05,39,169.87Z" fill="#fff"/><path d="M49.43,167.7,45.16,161h5.39l2.12,3.61L54.74,161h4.82l-4.32,6.36L60,174.66H54.59l-2.44-4.08-2.49,4.08H44.87Z" fill="#fff"/><path d="M66.05,161h4.69v2A4.83,4.83,0,0,1,75,160.6c3.19,0,5.78,2.41,5.78,7.1v.21c0,4.71-2.59,7.07-5.81,7.07a4.51,4.51,0,0,1-4.24-2.33v6.59H66.05Zm10,6.94v-.21c0-2.41-1-3.56-2.7-3.56s-2.72,1.23-2.72,3.53v.21c0,2.33,1,3.51,2.72,3.51S76,170.16,76,167.91Z" fill="#fff"/><path d="M82.49,161h4.69v2.72a4.32,4.32,0,0,1,4.43-2.91v4.38c-2.86-.08-4.43.81-4.43,3v6.49H82.49Z" fill="#fff"/><path d="M92.44,168v-.21c0-4.4,3.27-7.18,7.41-7.18,3.75,0,7,2.15,7,7.07v1.23H97.18a2.74,2.74,0,0,0,2.86,2.86c1.54,0,2.19-.71,2.38-1.63h4.4c-.42,3.09-2.81,4.85-6.94,4.85C95.58,175,92.44,172.46,92.44,168Zm9.82-1.73c-.08-1.65-.89-2.57-2.41-2.57a2.62,2.62,0,0,0-2.62,2.57Z" fill="#fff"/><path d="M108.44,161h4.69v2a4.82,4.82,0,0,1,4.26-2.41c3.2,0,5.79,2.41,5.79,7.1v.21c0,4.71-2.59,7.07-5.81,7.07a4.51,4.51,0,0,1-4.24-2.33v6.59h-4.69Zm10,6.94v-.21c0-2.41-1-3.56-2.7-3.56s-2.73,1.23-2.73,3.53v.21c0,2.33,1,3.51,2.73,3.51S118.42,170.16,118.42,167.91Z" fill="#fff"/><path d="M20.6,205.68c0-3.22,2.73-4.47,7.28-4.47h1.31v-.32c0-1.31-.31-2.17-1.81-2.17a1.69,1.69,0,0,0-1.86,1.62H21.13c.21-3.3,2.8-4.92,6.54-4.92s6.18,1.54,6.18,5.18v8.88H29.3v-1.6a4.5,4.5,0,0,1-4.06,1.91C22.78,209.79,20.6,208.59,20.6,205.68Zm8.59-1v-.84H28c-1.89,0-2.72.37-2.72,1.49,0,.79.52,1.29,1.62,1.29C28.2,206.63,29.19,205.87,29.19,204.69Z" fill="#fff"/><path d="M34.56,195.79h5l2.85,8.82,2.8-8.82h4.48l-5,13.69H39.58Z" fill="#fff"/><path d="M49.51,205.68c0-3.22,2.72-4.47,7.27-4.47h1.31v-.32c0-1.31-.31-2.17-1.8-2.17a1.68,1.68,0,0,0-1.86,1.62H50c.21-3.3,2.8-4.92,6.55-4.92s6.17,1.54,6.17,5.18v8.88H58.2v-1.6a4.5,4.5,0,0,1-4.06,1.91C51.68,209.79,49.51,208.59,49.51,205.68Zm8.58-1v-.84H56.86c-1.88,0-2.72.37-2.72,1.49,0,.79.52,1.29,1.62,1.29C57.1,206.63,58.09,205.87,58.09,204.69Z" fill="#fff"/><path d="M64.93,192.07a2.58,2.58,0,1,1,2.56,2.41A2.45,2.45,0,0,1,64.93,192.07Zm.23,3.72h4.69v13.69H65.16Z" fill="#fff"/><path d="M72.49,189.76h4.66v19.72H72.49Z" fill="#fff"/><path d="M78.88,205.68c0-3.22,2.72-4.47,7.28-4.47h1.31v-.32c0-1.31-.32-2.17-1.81-2.17a1.69,1.69,0,0,0-1.86,1.62H79.4c.21-3.3,2.81-4.92,6.55-4.92s6.18,1.54,6.18,5.18v8.88H87.57v-1.6a4.48,4.48,0,0,1-4.06,1.91C81.05,209.79,78.88,208.59,78.88,205.68Zm8.59-1v-.84H86.24c-1.89,0-2.73.37-2.73,1.49,0,.79.53,1.29,1.63,1.29A2.07,2.07,0,0,0,87.47,204.69Z" fill="#fff"/><path d="M99.09,207.36v2.12H94.41V189.76h4.68v8.07a4.84,4.84,0,0,1,4.27-2.41c3.19,0,5.79,2.41,5.79,7.1v.21c0,4.71-2.6,7.06-5.82,7.06A4.43,4.43,0,0,1,99.09,207.36Zm5.29-4.63v-.21c0-2.41-1-3.56-2.7-3.56S99,200.19,99,202.49v.21c0,2.33,1,3.51,2.72,3.51S104.38,205,104.38,202.73Z" fill="#fff"/><path d="M111,189.76h4.66v19.72H111Z" fill="#fff"/><path d="M117.42,202.8v-.21c0-4.39,3.27-7.17,7.41-7.17,3.74,0,7,2.15,7,7.07v1.23h-9.63a2.73,2.73,0,0,0,2.85,2.85c1.55,0,2.2-.7,2.38-1.62h4.4c-.42,3.09-2.8,4.84-6.94,4.84S117.42,207.28,117.42,202.8Zm9.82-1.72c-.08-1.65-.89-2.57-2.41-2.57a2.61,2.61,0,0,0-2.62,2.57Z" fill="#fff"/><path d="M22,239.9v-6.1H20.37v-3.19H22v-2.86H26.7v2.86h2.7v3.19H26.7v5.66a1.25,1.25,0,0,0,1.39,1.44,3.56,3.56,0,0,0,1.34-.24v3.56a9.85,9.85,0,0,1-2.6.39C23.74,244.61,22,243.12,22,239.9Z" fill="#fff"/><path d="M31.18,224.58h4.69v8.23a4.81,4.81,0,0,1,4.5-2.57c2.64,0,4.48,1.65,4.48,5.16v8.9H40.16v-8c0-1.55-.6-2.3-2-2.3s-2.33.83-2.33,2.59v7.67H31.18Z" fill="#fff"/><path d="M47.12,230.61h4.69v2.72a4.32,4.32,0,0,1,4.43-2.91v4.37c-2.86-.07-4.43.82-4.43,3v6.49H47.12Z" fill="#fff"/><path d="M57.07,237.62v-.21c0-4.4,3.28-7.17,7.52-7.17s7.46,2.7,7.46,7v.21c0,4.45-3.27,7.12-7.49,7.12S57.07,242.05,57.07,237.62Zm10.21-.08v-.21c0-2.3-.91-3.58-2.69-3.58s-2.73,1.23-2.73,3.53v.21c0,2.36.92,3.64,2.73,3.64S67.28,239.82,67.28,237.54Z" fill="#fff"/><path d="M73.59,239.53v-8.92h4.69v8.16c0,1.55.6,2.31,1.94,2.31s2.33-.84,2.33-2.59v-7.88h4.68V244.3H82.55v-2.12a4.51,4.51,0,0,1-4.35,2.43C75.56,244.61,73.59,243,73.59,239.53Z" fill="#fff"/><path d="M88.86,244.3h4.66c.21,1,.81,1.78,2.51,1.78a2.59,2.59,0,0,0,2.91-2.88v-2.09a4.83,4.83,0,0,1-4.25,2.51c-3.19,0-5.81-2.36-5.81-6.57v-.21c0-4,2.59-6.6,5.81-6.6a4.48,4.48,0,0,1,4.25,2.3v-1.93h4.68v12.54c0,4.08-2.69,6.23-7.59,6.23C91.37,249.38,89.22,247.42,88.86,244.3ZM99.07,237v-.18c0-1.89-1-3.09-2.7-3.09s-2.7,1.23-2.7,3.11v.21c0,1.89,1,3.09,2.67,3.09S99.07,239,99.07,237Z" fill="#fff"/><path d="M106,224.58h4.69v8.23a4.83,4.83,0,0,1,4.5-2.57c2.65,0,4.48,1.65,4.48,5.16v8.9H115v-8c0-1.55-.61-2.3-2-2.3s-2.33.83-2.33,2.59v7.67H106Z" fill="#fff"/><path d="M20.86,278.73v-4a6.35,6.35,0,0,0,2.28.37c1.47,0,2.44-.66,2.44-2.6V260.4H31v12.15c0,4.5-2.3,6.8-6.7,6.8A7.32,7.32,0,0,1,20.86,278.73Z" fill="#fff"/><path d="M33.33,274.35v-8.93H38v8.17c0,1.55.61,2.31,1.94,2.31s2.33-.84,2.33-2.59v-7.89H47v13.7H42.28V277a4.5,4.5,0,0,1-4.34,2.43C35.29,279.43,33.33,277.81,33.33,274.35Z" fill="#fff"/><path d="M49.48,259.4h4.66v19.72H49.48Z" fill="#fff"/><path d="M61,277.73l-5.47-12.31h5.08l2.82,7.31L66,265.42h4.48L63.15,283.7H58.67Z" fill="#fff"/><path d="M79.46,265.69l-3.56,2.2v-4.48l4.29-3h4.64v18.72H79.46Z" fill="#fff"/><path d="M87.13,273.23H92a2.14,2.14,0,0,0,2.43,2.17c1.55,0,2.26-1.15,2.26-2.64a2.39,2.39,0,0,0-2.54-2.68,3.82,3.82,0,0,0-3.09,1.34h-3.2l.39-11h12.63v3.92H92.13L92,268.46a5,5,0,0,1,4.38-2c3.43,0,5.68,2.31,5.68,6.36s-2.86,6.6-7.59,6.6C89.51,279.43,87.26,276.74,87.13,273.23Z" fill="#fff"/><path d="M102.92,276.76a2.61,2.61,0,0,1,2.67-2.64,2.65,2.65,0,1,1,0,5.29A2.61,2.61,0,0,1,102.92,276.76Z" fill="#fff"/></g></g></svg>