<svg xmlns="http://www.w3.org/2000/svg" viewBox="0 0 153 35"><title>get_started</title><g id="Layer_2" data-name="Layer 2"><g id="Rectangle_1" data-name="Rectangle 1" style="isolation:isolate"><g id="Rectangle_1-2" data-name="Rectangle 1"><rect width="153" height="35" fill="none"/></g></g><g id="Get_started" data-name="Get started"><path d="M36.33,16.5v-.12A5.44,5.44,0,0,1,42,10.71c2.46,0,4.67,1.14,4.93,3.88h-2.5A2.14,2.14,0,0,0,42,12.7c-1.93,0-3.06,1.44-3.06,3.71v.12c0,2.14.92,3.68,3.09,3.68a2.34,2.34,0,0,0,2.67-2.34h-2.5V16h5v1.18c0,3-1.89,4.93-5.21,4.93A5.27,5.27,0,0,1,36.33,16.5Z" transform="translate(0)" fill="#262626"/><path d="M48.08,18V17.9a4,4,0,0,1,4.17-4.22,3.74,3.74,0,0,1,4,4.12v.63H50.36a1.94,1.94,0,0,0,2,2.12c1,0,1.55-.45,1.69-1.13h2.12c-.26,1.75-1.66,2.73-3.87,2.73A3.94,3.94,0,0,1,48.08,18ZM54,17c-.08-1.22-.7-1.81-1.77-1.81A1.86,1.86,0,0,0,50.39,17Z" transform="translate(0)" fill="#262626"/><path d="M57.79,19.57V15.46h-1v-1.6h1V12.11H60v1.75h1.71v1.6H60v3.91c0,.65.33,1,.9,1a2,2,0,0,0,.85-.15v1.74a4.07,4.07,0,0,1-1.36.21A2.31,2.31,0,0,1,57.79,19.57Z" transform="translate(0)" fill="#262626"/><path d="M65.69,19.43h2.1c.09.73.45,1.15,1.43,1.15s1.27-.32,1.27-.88-.48-.79-1.65-1c-2.15-.33-3-.95-3-2.53s1.55-2.53,3.21-2.53,3.15.65,3.35,2.51H70.35a1.1,1.1,0,0,0-1.27-1c-.73,0-1.15.34-1.15.84s.39.72,1.57.89c2,.29,3.15.8,3.15,2.54s-1.28,2.67-3.42,2.67S65.77,21.19,65.69,19.43Z" transform="translate(0)" fill="#262626"/><path d="M74.18,19.57V15.46h-1v-1.6h1V12.11h2.24v1.75h1.71v1.6H76.42v3.91c0,.65.33,1,.9,1a2,2,0,0,0,.85-.15v1.74a4.07,4.07,0,0,1-1.36.21A2.31,2.31,0,0,1,74.18,19.57Z" transform="translate(0)" fill="#262626"/><path d="M79,19.73c0-1.89,1.74-2.61,4.22-2.61h.92V16.8c0-1-.3-1.49-1.32-1.49a1.22,1.22,0,0,0-1.38,1.15H79.29c.14-1.93,1.66-2.78,3.65-2.78s3.4.8,3.4,3V22H84.15V21a2.77,2.77,0,0,1-2.45,1.15C80.22,22.15,79,21.44,79,19.73Zm5.14-.59v-.68h-.87c-1.31,0-2.07.28-2.07,1.15,0,.59.36,1,1.18,1C83.36,20.58,84.12,20,84.12,19.14Z" transform="translate(0)" fill="#262626"/><path d="M88,13.86h2.25v1.56a2.65,2.65,0,0,1,2.62-1.68v2.09c-1.66,0-2.62.53-2.62,2.08V22H88Z" transform="translate(0)" fill="#262626"/><path d="M94.59,19.57V15.46h-1v-1.6h1V12.11h2.24v1.75h1.71v1.6H96.83v3.91c0,.65.33,1,.9,1a2,2,0,0,0,.85-.15v1.74a4.07,4.07,0,0,1-1.36.21A2.31,2.31,0,0,1,94.59,19.57Z" transform="translate(0)" fill="#262626"/><path d="M99.38,18V17.9a4,4,0,0,1,4.17-4.22,3.74,3.74,0,0,1,4,4.12v.63h-5.85a1.94,1.94,0,0,0,2,2.12c1,0,1.55-.45,1.69-1.13h2.13c-.26,1.75-1.66,2.73-3.88,2.73A3.94,3.94,0,0,1,99.38,18Zm5.94-1c-.08-1.22-.7-1.81-1.77-1.81A1.86,1.86,0,0,0,101.69,17Z" transform="translate(0)" fill="#262626"/><path d="M108.27,18v-.13c0-2.67,1.53-4.23,3.57-4.23a2.7,2.7,0,0,1,2.56,1.39V10.19h2.23V22H114.4V20.63a3,3,0,0,1-2.61,1.52C109.82,22.15,108.27,20.74,108.27,18Zm6.19-.08v-.12c0-1.62-.71-2.44-1.94-2.44s-2,.85-2,2.47V18c0,1.62.78,2.41,1.9,2.41S114.46,19.61,114.46,18Z" transform="translate(0)" fill="#262626"/></g></g></svg>