<svg xmlns="http://www.w3.org/2000/svg" viewBox="0 0 300 600"><title>Asset 4</title><g id="Layer_2" data-name="Layer 2"><g id="Rect"><rect width="300" height="600" fill="none"/></g><g id="The_same_expertise_care_now_through_July_15." data-name="The same expertise  &amp; care, now through July 15."><path d="M38.7,128.49H30.89v-6.68H55.21v6.68H47.4V152H38.7Z" fill="#fff"/><path d="M57.71,120.21h7.56v13.26a7.8,7.8,0,0,1,7.27-4.14c4.26,0,7.22,2.66,7.22,8.32V152H72.2V139.17c0-2.49-1-3.71-3.17-3.71s-3.76,1.35-3.76,4.18V152H57.71Z" fill="#fff"/><path d="M82.25,141.24v-.34c0-7.09,5.28-11.57,12-11.57,6,0,11.23,3.46,11.23,11.41v2H89.9c.21,2.91,1.9,4.6,4.6,4.6,2.49,0,3.55-1.14,3.85-2.61h7.09c-.67,5-4.52,7.81-11.19,7.81C87.32,152.52,82.25,148.46,82.25,141.24Zm15.84-2.78c-.12-2.67-1.43-4.14-3.88-4.14-2.28,0-3.85,1.47-4.23,4.14Z" fill="#fff"/><path d="M114.27,145h7c.26,1.61,1,2.49,3.13,2.49,1.86,0,2.7-.71,2.7-1.81s-1-1.57-4.1-2c-5.91-.76-8.4-2.49-8.4-7.09,0-4.9,4.35-7.27,9.46-7.27,5.45,0,9.25,1.86,9.76,7.14h-6.85c-.29-1.48-1.09-2.2-2.83-2.2s-2.49.72-2.49,1.73,1,1.48,3.72,1.82c6.12.76,9.08,2.37,9.08,7.1,0,5.23-3.89,7.6-10,7.6C118.12,152.52,114.44,149.9,114.27,145Z" fill="#fff"/><path d="M135.61,145.89c0-5.2,4.39-7.22,11.74-7.22h2.11v-.51c0-2.11-.51-3.51-2.92-3.51a2.71,2.71,0,0,0-3,2.62h-7.1c.34-5.32,4.52-7.94,10.56-7.94s10,2.49,10,8.36V152h-7.35v-2.57c-1.06,1.6-3,3.08-6.55,3.08C139.11,152.52,135.61,150.58,135.61,145.89Zm13.85-1.61v-1.35h-2c-3,0-4.39.59-4.39,2.41,0,1.27.85,2.07,2.62,2.07C147.85,147.41,149.46,146.18,149.46,144.28Z" fill="#fff"/><path d="M160.66,129.92h7.56v3.38a7.71,7.71,0,0,1,6.92-4,6,6,0,0,1,6,3.68,8.75,8.75,0,0,1,7.31-3.68c4.18,0,7.22,2.71,7.22,8.24V152h-7.56V138.83c0-2.23-1.1-3.33-2.83-3.33-2,0-3.38,1.31-3.38,3.71V152h-7.48V138.83c0-2.23-1.09-3.33-2.83-3.33-2,0-3.37,1.31-3.37,3.71V152h-7.56Z" fill="#fff"/><path d="M198.17,141.24v-.34c0-7.09,5.28-11.57,12-11.57,6,0,11.24,3.46,11.24,11.41v2H205.81c.21,2.91,1.9,4.6,4.61,4.6,2.49,0,3.54-1.14,3.84-2.61h7.1c-.68,5-4.52,7.81-11.2,7.81C203.24,152.52,198.17,148.46,198.17,141.24ZM214,138.46c-.13-2.67-1.44-4.14-3.89-4.14-2.28,0-3.84,1.47-4.22,4.14Z" fill="#fff"/><path d="M31.06,189.06v-.34c0-7.1,5.28-11.57,12-11.57,6,0,11.23,3.46,11.23,11.4v2H38.7c.21,2.91,1.9,4.6,4.6,4.6,2.5,0,3.55-1.14,3.85-2.62h7.09c-.67,5-4.52,7.81-11.19,7.81C36.12,200.33,31.06,196.28,31.06,189.06Zm15.83-2.79c-.12-2.66-1.43-4.14-3.88-4.14-2.28,0-3.84,1.48-4.22,4.14Z" fill="#fff"/><path d="M61.26,188.59l-6.89-10.85h8.7l3.43,5.83,3.33-5.83H77.6l-7,10.26,7.65,11.83h-8.7l-3.93-6.59-4,6.59H53.91Z" fill="#fff"/><path d="M80.39,177.74H88V181a7.77,7.77,0,0,1,6.88-3.88c5.15,0,9.33,3.88,9.33,11.44v.34c0,7.6-4.18,11.4-9.37,11.4-3.34,0-5.75-1.56-6.84-3.75v10.64H80.39Zm16.1,11.19v-.34c0-3.88-1.69-5.74-4.35-5.74s-4.4,2-4.4,5.7v.34c0,3.76,1.65,5.66,4.4,5.66S96.49,192.56,96.49,188.93Z" fill="#fff"/><path d="M105.74,189.06v-.34c0-7.1,5.28-11.57,12-11.57,6,0,11.24,3.46,11.24,11.4v2H113.38c.22,2.91,1.91,4.6,4.61,4.6,2.49,0,3.55-1.14,3.84-2.62h7.1c-.68,5-4.52,7.81-11.19,7.81C110.81,200.33,105.74,196.28,105.74,189.06Zm15.84-2.79c-.13-2.66-1.44-4.14-3.89-4.14-2.28,0-3.84,1.48-4.22,4.14Z" fill="#fff"/><path d="M131.55,177.74h7.56v4.39a7,7,0,0,1,7.14-4.69v7.06c-4.61-.13-7.14,1.31-7.14,4.85v10.48h-7.56Z" fill="#fff"/><path d="M150.35,192.73v-9.84h-2.66v-5.15h2.66v-4.61h7.56v4.61h4.35v5.15h-4.35V192c0,1.61.8,2.33,2.24,2.33a5.8,5.8,0,0,0,2.15-.38v5.74a16,16,0,0,1-4.18.63C153.13,200.33,150.35,197.93,150.35,192.73Z" fill="#fff"/><path d="M165,171.74a4.17,4.17,0,1,1,4.14,3.89A4,4,0,0,1,165,171.74Zm.38,6h7.56v22.09h-7.56Z" fill="#fff"/><path d="M175.48,192.82h7c.26,1.6,1,2.49,3.13,2.49,1.86,0,2.7-.72,2.7-1.82s-1.06-1.56-4.1-2c-5.91-.76-8.4-2.49-8.4-7.1,0-4.9,4.35-7.26,9.46-7.26,5.45,0,9.25,1.85,9.76,7.13h-6.85c-.29-1.47-1.09-2.19-2.83-2.19s-2.49.72-2.49,1.73,1,1.48,3.72,1.82c6.12.76,9.08,2.36,9.08,7.09,0,5.24-3.89,7.6-10,7.6C179.33,200.33,175.65,197.72,175.48,192.82Z" fill="#fff"/><path d="M197,189.06v-.34c0-7.1,5.27-11.57,11.95-11.57,6,0,11.23,3.46,11.23,11.4v2H204.67c.21,2.91,1.9,4.6,4.6,4.6,2.5,0,3.55-1.14,3.85-2.62h7.09c-.67,5-4.52,7.81-11.19,7.81C202.09,200.33,197,196.28,197,189.06Zm15.83-2.79c-.12-2.66-1.43-4.14-3.88-4.14-2.28,0-3.85,1.48-4.23,4.14Z" fill="#fff"/><path d="M56.69,241.48l5,6.16H51.88l-1.78-2.19a12,12,0,0,1-8.15,2.7c-6.42,0-10.6-3.38-10.6-9.12,0-3.89,2.37-6.76,6.63-8.79A9.62,9.62,0,0,1,36.12,225c0-5.15,4.4-7.9,9.72-7.9,4.81,0,9.16,2.41,9.16,7.06,0,3.29-1.94,5.7-6,7.47l3.81,4.65L55,231.93h6.59Zm-10.47-.89-4.77-5.75a3.59,3.59,0,0,0-2,3.26,3.51,3.51,0,0,0,3.84,3.76A4,4,0,0,0,46.22,240.59Zm-.93-12.17c2-1,3-2.11,3-3.67a2.17,2.17,0,0,0-2.24-2.32,2.4,2.4,0,0,0-2.49,2.62A5.51,5.51,0,0,0,45.29,228.42Z" fill="#fff"/><path d="M70.3,236.87v-.34c0-7.34,5.28-11.57,11.78-11.57,5.41,0,10.39,2.37,10.82,9.08H85.8c-.34-2.07-1.35-3.21-3.55-3.21-2.66,0-4.22,1.9-4.22,5.62v.34c0,3.84,1.48,5.83,4.35,5.83,2.11,0,3.59-1.27,3.84-3.68H93c-.21,5.58-4,9.21-11.11,9.21C75.33,248.15,70.3,244.31,70.3,236.87Z" fill="#fff"/><path d="M94.33,241.52c0-5.2,4.4-7.22,11.75-7.22h2.11v-.51c0-2.11-.51-3.51-2.92-3.51a2.7,2.7,0,0,0-3,2.62h-7.1c.34-5.32,4.52-7.94,10.56-7.94s10,2.49,10,8.36v14.32h-7.35v-2.57c-1.06,1.6-3,3.08-6.55,3.08C97.84,248.15,94.33,246.21,94.33,241.52Zm13.86-1.61v-1.35h-2c-3,0-4.39.59-4.39,2.41,0,1.27.85,2.07,2.62,2.07C106.58,243,108.19,241.81,108.19,239.91Z" fill="#fff"/><path d="M119.38,225.55h7.56V230a7,7,0,0,1,7.14-4.69v7.05c-4.6-.13-7.14,1.31-7.14,4.86v10.47h-7.56Z" fill="#fff"/><path d="M135.44,236.87v-.34c0-7.09,5.28-11.57,11.95-11.57,6,0,11.23,3.46,11.23,11.41v2H143.08c.21,2.91,1.9,4.6,4.6,4.6,2.5,0,3.55-1.14,3.85-2.61h7.09c-.67,5-4.52,7.81-11.19,7.81C140.5,248.15,135.44,244.09,135.44,236.87Zm15.84-2.79c-.13-2.66-1.44-4.13-3.89-4.13-2.28,0-3.84,1.47-4.22,4.13Z" fill="#fff"/><path d="M159.47,251.06,163,240l7,2.49L164,252.8Z" fill="#fff"/><path d="M181,225.55h7.56v3.55a7.79,7.79,0,0,1,7.26-4.14c4.27,0,7.22,2.66,7.22,8.32v14.36H195.5V234.8c0-2.49-1-3.71-3.16-3.71s-3.76,1.35-3.76,4.18v12.37H181Z" fill="#fff"/><path d="M205.56,236.87v-.34c0-7.09,5.28-11.57,12.12-11.57s12,4.35,12,11.36v.34c0,7.18-5.28,11.49-12.08,11.49S205.56,244,205.56,236.87Zm16.47-.12v-.34c0-3.72-1.48-5.79-4.35-5.79s-4.39,2-4.39,5.7v.34c0,3.8,1.48,5.87,4.39,5.87S222,240.42,222,236.75Z" fill="#fff"/><path d="M229.81,225.55h7.9l3.21,13.22,3.71-13.22h6.08l3.3,13.22,3.59-13.22h7.18l-7,22.09h-7.23l-3.29-12.33-3.42,12.33h-7.35Z" fill="#fff"/><path d="M33.25,288.36v-9.84H30.59v-5.15h2.66v-4.61h7.56v4.61h4.35v5.15H40.81v9.12A2,2,0,0,0,43.05,290a5.86,5.86,0,0,0,2.16-.38v5.74A16.12,16.12,0,0,1,41,296C36,296,33.25,293.56,33.25,288.36Z" fill="#fff"/><path d="M48,263.65H55.6v13.27a7.78,7.78,0,0,1,7.26-4.14c4.27,0,7.22,2.66,7.22,8.32v14.36H62.52V282.62c0-2.49-1-3.72-3.16-3.72s-3.76,1.35-3.76,4.18v12.38H48Z" fill="#fff"/><path d="M73.76,273.37h7.56v4.39a7,7,0,0,1,7.14-4.69v7.06c-4.6-.13-7.14,1.31-7.14,4.85v10.48H73.76Z" fill="#fff"/><path d="M89.82,284.69v-.34c0-7.1,5.27-11.57,12.12-11.57s12,4.35,12,11.36v.34c0,7.18-5.28,11.48-12.08,11.48S89.82,291.83,89.82,284.69Zm16.47-.13v-.34c0-3.71-1.48-5.78-4.35-5.78s-4.4,2-4.4,5.7v.34c0,3.8,1.48,5.87,4.4,5.87S106.29,288.24,106.29,284.56Z" fill="#fff"/><path d="M116.47,287.77v-14.4H124v13.18c0,2.49,1,3.71,3.13,3.71s3.76-1.35,3.76-4.18V273.37h7.56v22.09h-7.56V292c-1.19,2.28-3.34,3.92-7,3.92C119.64,296,116.47,293.35,116.47,287.77Z" fill="#fff"/><path d="M141.1,295.46h7.52c.33,1.6,1.3,2.87,4,2.87,3.34,0,4.69-1.9,4.69-4.65V290.3a7.74,7.74,0,0,1-6.84,4.06c-5.16,0-9.38-3.8-9.38-10.6v-.34c0-6.5,4.18-10.64,9.38-10.64,3.5,0,5.57,1.47,6.84,3.71v-3.12h7.56V293.6c0,6.59-4.35,10-12.25,10C145.15,303.65,141.69,300.48,141.1,295.46Zm16.47-11.74v-.3c0-3-1.56-5-4.35-5s-4.35,2-4.35,5v.34c0,3,1.6,5,4.31,5S157.57,286.84,157.57,283.72Z" fill="#fff"/><path d="M168.77,263.65h7.56v13.27a7.78,7.78,0,0,1,7.26-4.14c4.27,0,7.22,2.66,7.22,8.32v14.36h-7.56V282.62c0-2.49-1-3.72-3.17-3.72s-3.75,1.35-3.75,4.18v12.38h-7.56Z" fill="#fff"/><path d="M31.39,342.64v-6.46a10.47,10.47,0,0,0,3.68.59c2.36,0,3.93-1.06,3.93-4.18V313.07h8.7v19.6c0,7.27-3.72,11-10.82,11A11.65,11.65,0,0,1,31.39,342.64Z" fill="#fff"/><path d="M51.5,335.59V321.18h7.56v13.18c0,2.49,1,3.72,3.13,3.72S66,336.73,66,333.9V321.18h7.56v22.09H66v-3.42c-1.19,2.28-3.34,3.93-7,3.93C54.67,343.78,51.5,341.16,51.5,335.59Z" fill="#fff"/><path d="M77.56,311.47h7.52v31.8H77.56Z" fill="#fff"/><path d="M96.07,341l-8.83-19.85h8.19L100,333l4.23-11.79h7.22L99.61,350.66H92.39Z" fill="#fff"/><path d="M125.93,321.61l-5.74,3.54v-7.22l6.92-4.86h7.48v30.2h-8.66Z" fill="#fff"/><path d="M138.31,333.77h7.86c.29,2.11,1.14,3.51,3.92,3.51,2.49,0,3.64-1.86,3.64-4.27,0-2.7-1.48-4.31-4.1-4.31a6.18,6.18,0,0,0-5,2.16h-5.15l.64-17.79h20.35v6.34h-14.1l-.17,6.67c1.14-1.64,3.29-3.21,7-3.21,5.53,0,9.17,3.72,9.17,10.27s-4.61,10.64-12.25,10.64C142.15,343.78,138.52,339.43,138.31,333.77Z" fill="#fff"/><path d="M163.78,339.47a4.21,4.21,0,0,1,4.31-4.26,4.27,4.27,0,1,1,0,8.53A4.21,4.21,0,0,1,163.78,339.47Z" fill="#fff"/></g></g></svg>