<svg xmlns="http://www.w3.org/2000/svg" viewBox="0 0 160 600"><title>txt</title><g id="Layer_2" data-name="Layer 2"><g id="Artboard_1" data-name="Artboard 1" style="isolation:isolate"><g id="headline1"><g id="Get_unlimited_access_to_a_tax_pro_with_H_R_Block_Online." data-name="Get unlimited access  to a tax pro with H&amp;R Block Online."><path d="M20.89,163.38v-.15a6.4,6.4,0,0,1,6.75-6.57c3.05,0,5.75,1.39,6,4.74H30a2,2,0,0,0-2.32-1.84c-1.82,0-2.92,1.4-2.92,3.73v.14c0,2.09.78,3.71,3,3.71,1.8,0,2.49-.92,2.56-1.94H27.9v-2.58H34v1.58c0,3.28-2.15,5.75-6.31,5.75C23.27,170,20.89,167.23,20.89,163.38Z" fill="#fff"/><path d="M34.68,165.14V165a4.82,4.82,0,0,1,5.09-4.94,4.47,4.47,0,0,1,4.79,4.86v.85H37.94a1.88,1.88,0,0,0,2,2c1.06,0,1.51-.48,1.64-1.11h3c-.28,2.12-1.92,3.33-4.77,3.33S34.68,168.22,34.68,165.14ZM41.43,164c0-1.13-.61-1.76-1.66-1.76A1.8,1.8,0,0,0,38,164Z" fill="#fff"/><path d="M46.11,166.71v-4.2H45v-2.19h1.14v-2h3.22v2h1.86v2.19H49.33v3.89c0,.69.34,1,1,1a2.35,2.35,0,0,0,.91-.16v2.45a6.61,6.61,0,0,1-1.78.27C47.3,170,46.11,168.92,46.11,166.71Z" fill="#fff"/><path d="M55.61,166.46v-6.14h3.23v5.61c0,1.07.41,1.59,1.33,1.59s1.6-.58,1.6-1.78v-5.42H65v9.41H61.77v-1.46a3.08,3.08,0,0,1-3,1.68C57,170,55.61,168.83,55.61,166.46Z" fill="#fff"/><path d="M66.63,160.32h3.22v1.51a3.34,3.34,0,0,1,3.1-1.77c1.82,0,3.08,1.14,3.08,3.55v6.12H72.8v-5.47c0-1.06-.41-1.59-1.35-1.59s-1.6.58-1.6,1.79v5.27H66.63Z" fill="#fff"/><path d="M77.68,156.17h3.21v13.56H77.68Z" fill="#fff"/><path d="M82.54,157.76a1.68,1.68,0,0,1,1.76-1.68,1.67,1.67,0,1,1,0,3.34A1.67,1.67,0,0,1,82.54,157.76Zm.16,2.56h3.23v9.41H82.7Z" fill="#fff"/><path d="M87.65,160.32h3.23v1.44a3.29,3.29,0,0,1,3-1.7,2.55,2.55,0,0,1,2.55,1.57,3.74,3.74,0,0,1,3.12-1.57c1.78,0,3.08,1.16,3.08,3.51v6.16H99.36v-5.62c0-1-.47-1.42-1.21-1.42a1.4,1.4,0,0,0-1.44,1.59v5.45H93.52v-5.62c0-1-.47-1.42-1.21-1.42a1.39,1.39,0,0,0-1.43,1.59v5.45H87.65Z" fill="#fff"/><path d="M104.07,157.76a1.68,1.68,0,0,1,1.76-1.68,1.67,1.67,0,1,1,0,3.34A1.67,1.67,0,0,1,104.07,157.76Zm.16,2.56h3.22v9.41h-3.22Z" fill="#fff"/><path d="M109.61,166.71v-4.2h-1.13v-2.19h1.13v-2h3.22v2h1.86v2.19h-1.86v3.89a.86.86,0,0,0,1,1,2.43,2.43,0,0,0,.92-.16v2.45a6.76,6.76,0,0,1-1.79.27C110.8,170,109.61,168.92,109.61,166.71Z" fill="#fff"/><path d="M115.41,165.14V165a4.82,4.82,0,0,1,5.09-4.94,4.47,4.47,0,0,1,4.79,4.86v.85h-6.62a1.88,1.88,0,0,0,2,2c1.06,0,1.51-.48,1.64-1.11h3c-.29,2.12-1.92,3.33-4.77,3.33S115.41,168.22,115.41,165.14Zm6.75-1.19c0-1.13-.61-1.76-1.66-1.76a1.79,1.79,0,0,0-1.8,1.76Z" fill="#fff"/><path d="M125.94,165.12V165c0-3.21,1.76-4.92,4-4.92a3,3,0,0,1,2.9,1.59v-5.48h3.23v13.56h-3.23V168.2A3.18,3.18,0,0,1,129.9,170C127.72,170,125.94,168.38,125.94,165.12Zm7-.05v-.15c0-1.58-.66-2.43-1.85-2.43s-1.86.81-1.86,2.45v.15c0,1.58.71,2.39,1.82,2.39S132.92,166.67,132.92,165.07Z" fill="#fff"/><path d="M20.75,190.12c0-2.21,1.87-3.08,5-3.08h.9v-.21c0-.9-.21-1.5-1.24-1.5a1.16,1.16,0,0,0-1.28,1.12h-3c.14-2.27,1.92-3.39,4.5-3.39s4.25,1.07,4.25,3.57v6.1H26.73v-1.1a3.09,3.09,0,0,1-2.8,1.32C22.24,193,20.75,192.12,20.75,190.12Zm5.9-.68v-.58h-.84c-1.3,0-1.88.25-1.88,1,0,.54.36.88,1.12.88C26,190.77,26.65,190.25,26.65,189.44Z" fill="#fff"/><path d="M30.92,188.14V188a4.74,4.74,0,0,1,5-4.94c2.31,0,4.43,1,4.61,3.87h-3A1.39,1.39,0,0,0,36,185.57c-1.13,0-1.8.81-1.8,2.39v.14c0,1.64.63,2.49,1.86,2.49A1.57,1.57,0,0,0,37.71,189H40.6c-.09,2.38-1.69,3.93-4.73,3.93C33.06,193,30.92,191.31,30.92,188.14Z" fill="#fff"/><path d="M41.14,188.14V188a4.74,4.74,0,0,1,5-4.94c2.31,0,4.43,1,4.61,3.87h-3a1.39,1.39,0,0,0-1.51-1.36c-1.14,0-1.8.81-1.8,2.39v.14c0,1.64.63,2.49,1.85,2.49A1.57,1.57,0,0,0,47.93,189h2.9c-.09,2.38-1.69,3.93-4.74,3.93C43.28,193,41.14,191.31,41.14,188.14Z" fill="#fff"/><path d="M51.36,188.14V188a4.83,4.83,0,0,1,5.1-4.94,4.47,4.47,0,0,1,4.79,4.86v.85H54.62a1.88,1.88,0,0,0,2,2c1.06,0,1.51-.48,1.63-1.11h3C61,191.74,59.32,193,56.48,193S51.36,191.22,51.36,188.14ZM58.12,187c-.06-1.13-.62-1.76-1.66-1.76a1.79,1.79,0,0,0-1.8,1.76Z" fill="#fff"/><path d="M61.82,189.74h3c.11.69.42,1.07,1.34,1.07s1.15-.31,1.15-.78-.45-.66-1.75-.84c-2.52-.33-3.58-1.07-3.58-3s1.85-3.1,4-3.1,3.94.8,4.16,3.05H67.22a1,1,0,0,0-1.2-.94c-.7,0-1.06.31-1.06.74s.43.63,1.58.77c2.61.33,3.87,1,3.87,3,0,2.23-1.66,3.24-4.27,3.24S61.89,191.83,61.82,189.74Z" fill="#fff"/><path d="M70.88,189.74h3c.1.69.41,1.07,1.33,1.07s1.15-.31,1.15-.78-.45-.66-1.75-.84c-2.52-.33-3.58-1.07-3.58-3s1.86-3.1,4-3.1,3.94.8,4.15,3.05H76.28a1.06,1.06,0,0,0-1.21-.94c-.7,0-1.06.31-1.06.74s.43.63,1.58.77c2.61.33,3.87,1,3.87,3,0,2.23-1.65,3.24-4.26,3.24S71,191.83,70.88,189.74Z" fill="#fff"/><path d="M21.72,212.71v-4.2H20.59v-2.19h1.13v-2h3.22v2H26.8v2.19H24.94v3.89a.86.86,0,0,0,1,1,2.43,2.43,0,0,0,.92-.16v2.45A6.76,6.76,0,0,1,25,216C22.91,216,21.72,214.92,21.72,212.71Z" fill="#fff"/><path d="M27.52,211.14V211a4.84,4.84,0,0,1,5.16-4.94c2.9,0,5.13,1.86,5.13,4.85v.14c0,3.06-2.25,4.9-5.14,4.9S27.52,214.18,27.52,211.14Zm7,0v-.15c0-1.58-.63-2.46-1.86-2.46s-1.87.84-1.87,2.43v.14c0,1.62.63,2.5,1.87,2.5S34.54,212.65,34.54,211.09Z" fill="#fff"/><path d="M41.68,213.12c0-2.21,1.87-3.08,5-3.08h.9v-.21c0-.9-.22-1.5-1.25-1.5a1.15,1.15,0,0,0-1.27,1.12H42c.15-2.27,1.93-3.39,4.5-3.39s4.25,1.07,4.25,3.57v6.1H47.66v-1.1A3.08,3.08,0,0,1,44.87,216C43.18,216,41.68,215.12,41.68,213.12Zm5.91-.68v-.58h-.85c-1.3,0-1.87.25-1.87,1,0,.54.36.88,1.11.88C46.9,213.77,47.59,213.25,47.59,212.44Z" fill="#fff"/><path d="M56.06,212.71v-4.2H54.93v-2.19h1.13v-2h3.23v2h1.85v2.19H59.29v3.89c0,.69.34,1,1,1a2.43,2.43,0,0,0,.92-.16v2.45a6.74,6.74,0,0,1-1.78.27C57.25,216,56.06,214.92,56.06,212.71Z" fill="#fff"/><path d="M61.86,213.12c0-2.21,1.87-3.08,5-3.08h.9v-.21c0-.9-.21-1.5-1.24-1.5a1.16,1.16,0,0,0-1.28,1.12h-3c.14-2.27,1.93-3.39,4.5-3.39S71,207.13,71,209.63v6.1H67.84v-1.1A3.08,3.08,0,0,1,65.05,216C63.35,216,61.86,215.12,61.86,213.12Zm5.9-.68v-.58h-.84c-1.3,0-1.87.25-1.87,1,0,.54.36.88,1.11.88C67.08,213.77,67.76,213.25,67.76,212.44Z" fill="#fff"/><path d="M74.91,210.94,72,206.32h3.71l1.46,2.48,1.42-2.48h3.32l-3,4.37,3.26,5H78.46l-1.68-2.81-1.71,2.81H71.78Z" fill="#fff"/><path d="M86.34,206.32h3.22v1.4a3.33,3.33,0,0,1,2.94-1.66c2.19,0,4,1.66,4,4.88v.15c0,3.24-1.79,4.86-4,4.86a3.12,3.12,0,0,1-2.92-1.6v4.53H86.34Zm6.86,4.77v-.15c0-1.65-.72-2.45-1.86-2.45s-1.87.85-1.87,2.43v.15c0,1.6.7,2.41,1.87,2.41S93.2,212.64,93.2,211.09Z" fill="#fff"/><path d="M97.64,206.32h3.23v1.87a3,3,0,0,1,3-2v3c-2-.06-3,.55-3,2.07v4.46H97.64Z" fill="#fff"/><path d="M104.48,211.14V211a4.84,4.84,0,0,1,5.17-4.94c2.9,0,5.13,1.86,5.13,4.85v.14c0,3.06-2.25,4.9-5.15,4.9S104.48,214.18,104.48,211.14Zm7,0v-.15c0-1.58-.63-2.46-1.86-2.46s-1.87.84-1.87,2.43v.14c0,1.62.63,2.5,1.87,2.5S111.51,212.65,111.51,211.09Z" fill="#fff"/><path d="M20.5,229.32h3.36L25.23,235l1.59-5.63h2.59l1.4,5.63,1.53-5.63H35.4l-3,9.41H29.34l-1.41-5.26-1.46,5.26H23.34Z" fill="#fff"/><path d="M36.16,226.76a1.68,1.68,0,0,1,1.76-1.68,1.67,1.67,0,1,1,0,3.34A1.67,1.67,0,0,1,36.16,226.76Zm.16,2.56h3.22v9.41H36.32Z" fill="#fff"/><path d="M41.7,235.71v-4.2H40.57v-2.19H41.7v-2h3.22v2h1.86v2.19H44.92v3.89a.86.86,0,0,0,1,1,2.43,2.43,0,0,0,.92-.16v2.45A6.76,6.76,0,0,1,45,239C42.89,239,41.7,237.92,41.7,235.71Z" fill="#fff"/><path d="M48,225.17h3.22v5.66a3.34,3.34,0,0,1,3.1-1.77c1.82,0,3.08,1.14,3.08,3.55v6.12H54.18v-5.47c0-1.06-.42-1.59-1.35-1.59s-1.61.58-1.61,1.79v5.27H48Z" fill="#fff"/><path d="M62.53,225.86h3.7v4.91h4.24v-4.91h3.69v12.87H70.47v-5.08H66.23v5.08h-3.7Z" fill="#fff"/><path d="M86.5,236.1l2.15,2.63h-4.2l-.75-.93A5.19,5.19,0,0,1,80.22,239c-2.74,0-4.52-1.44-4.52-3.89,0-1.66,1-2.88,2.83-3.75a4.06,4.06,0,0,1-.79-2.25c0-2.19,1.87-3.36,4.14-3.36,2.05,0,3.9,1,3.9,3,0,1.41-.82,2.43-2.57,3.19l1.62,2,.94-1.84h2.81ZM82,235.73l-2-2.45a1.52,1.52,0,0,0-.86,1.38,1.5,1.5,0,0,0,1.64,1.61A1.69,1.69,0,0,0,82,235.73Zm-.4-5.19c.87-.41,1.28-.9,1.28-1.57a.93.93,0,0,0-1-1,1,1,0,0,0-1.07,1.12A2.36,2.36,0,0,0,81.64,230.54Z" fill="#fff"/><path d="M89.81,225.86h5c3.36,0,5.23,1.37,5.23,4.09V230a3.36,3.36,0,0,1-2.32,3.38l3.08,5.33H97l-2.61-4.61h-.86v4.61H89.81Zm4.86,5.87c1.25,0,1.86-.52,1.86-1.57v-.07c0-1-.65-1.46-1.84-1.46h-1.2v3.1Z" fill="#fff"/><path d="M21.58,248.86h5.74c3,0,4.34,1.37,4.34,3.37v.07a2.65,2.65,0,0,1-2.18,2.77,2.8,2.8,0,0,1,2.58,3v.07c0,2.3-1.5,3.58-4.69,3.58H21.58Zm5,5.11c1.15,0,1.59-.39,1.59-1.31v-.07c0-.89-.47-1.28-1.59-1.28h-1.4V254Zm.13,5.3c1.17,0,1.71-.54,1.71-1.5v-.07c0-1-.52-1.48-1.82-1.48H25.18v3Z" fill="#fff"/><path d="M33.33,248.17h3.2v13.56h-3.2Z" fill="#fff"/><path d="M37.76,257.14V257a4.84,4.84,0,0,1,5.16-4.94c2.9,0,5.14,1.86,5.14,4.85v.14c0,3.06-2.25,4.9-5.15,4.9S37.76,260.18,37.76,257.14Zm7-.05v-.15c0-1.58-.63-2.46-1.86-2.46s-1.87.84-1.87,2.43v.14c0,1.62.63,2.5,1.87,2.5S44.78,258.65,44.78,257.09Z" fill="#fff"/><path d="M48.68,257.14V257a4.74,4.74,0,0,1,5-4.94c2.3,0,4.43,1,4.61,3.87h-3a1.39,1.39,0,0,0-1.51-1.36c-1.14,0-1.8.81-1.8,2.39v.14c0,1.64.63,2.49,1.85,2.49A1.57,1.57,0,0,0,55.47,258h2.9c-.09,2.38-1.69,3.93-4.74,3.93C50.83,262,48.68,260.31,48.68,257.14Z" fill="#fff"/><path d="M59.41,248.17h3.22V256l2.54-3.72h3.35l-3.08,4.23,3.33,5.18h-3.6l-2.54-4.12v4.12H59.41Z" fill="#fff"/><path d="M72.41,255.38v-.15a6.44,6.44,0,0,1,6.8-6.55c3.93,0,6.83,2.47,6.83,6.46v.15c0,4-2.72,6.66-6.88,6.66S72.41,259.25,72.41,255.38Zm9.77,0v-.14c0-2.29-1.15-3.64-3-3.64s-2.95,1.31-2.95,3.65v.15c0,2.34,1.19,3.69,3,3.69S82.18,257.65,82.18,255.34Z" fill="#fff"/><path d="M87.27,252.32H90.5v1.51a3.32,3.32,0,0,1,3.09-1.77c1.82,0,3.08,1.14,3.08,3.55v6.12H93.45v-5.47c0-1.06-.41-1.59-1.35-1.59s-1.6.58-1.6,1.79v5.27H87.27Z" fill="#fff"/><path d="M98.33,248.17h3.2v13.56h-3.2Z" fill="#fff"/><path d="M103.19,249.76a1.68,1.68,0,0,1,1.76-1.68,1.67,1.67,0,1,1,0,3.34A1.67,1.67,0,0,1,103.19,249.76Zm.16,2.56h3.22v9.41h-3.22Z" fill="#fff"/><path d="M108.3,252.32h3.22v1.51a3.33,3.33,0,0,1,3.1-1.77c1.82,0,3.08,1.14,3.08,3.55v6.12h-3.23v-5.47c0-1.06-.41-1.59-1.35-1.59s-1.6.58-1.6,1.79v5.27H108.3Z" fill="#fff"/><path d="M118.75,257.14V257a4.83,4.83,0,0,1,5.1-4.94,4.47,4.47,0,0,1,4.79,4.86v.85H122a1.88,1.88,0,0,0,2,2c1.06,0,1.51-.48,1.64-1.11h3c-.29,2.12-1.93,3.33-4.77,3.33S118.75,260.22,118.75,257.14Zm6.76-1.19c-.06-1.13-.62-1.76-1.66-1.76a1.79,1.79,0,0,0-1.8,1.76Z" fill="#fff"/><path d="M129.54,260.11a1.79,1.79,0,0,1,1.83-1.82,1.82,1.82,0,1,1,0,3.64A1.79,1.79,0,0,1,129.54,260.11Z" fill="#fff"/></g><g id="rect"><rect width="160" height="600" fill="none"/></g></g></g></g></svg>