<svg xmlns="http://www.w3.org/2000/svg" viewBox="0 0 728 90"><title>H1</title><g id="Layer_2" data-name="Layer 2"><g id="Rect"><rect width="728" height="90" fill="none"/></g><g id="H1"><g id="Up_to_3_500_today._No_interest._No_loan_fees._Starting_Jan_4." data-name="Up to $3,500 today. No interest. No loan fees. Starting Jan 4."><path d="M121.86,26.42V14.1h5.94V26.16c0,2.93.73,4.35,3.25,4.35s3.25-1.33,3.25-4.43v-12h6V26.34c0,6-3.53,8.84-9.25,8.84S121.86,32.23,121.86,26.42Z" fill="#fff"/><path d="M143.11,19.67h5.2v2.26A5.34,5.34,0,0,1,153,19.26c3.54,0,6.41,2.67,6.41,7.86v.23c0,5.22-2.87,7.83-6.44,7.83a5,5,0,0,1-4.69-2.58v7.31h-5.2Zm11.06,7.68v-.23c0-2.67-1.17-3.94-3-3.94s-3,1.36-3,3.91v.23c0,2.59,1.13,3.89,3,3.89S154.17,29.85,154.17,27.35Z" fill="#fff"/><path d="M167.3,30V23.21h-1.83V19.67h1.83V16.5h5.19v3.17h3v3.54h-3v6.26a1.39,1.39,0,0,0,1.54,1.6,3.86,3.86,0,0,0,1.48-.27v3.95a11.17,11.17,0,0,1-2.87.43C169.21,35.18,167.3,33.53,167.3,30Z" fill="#fff"/><path d="M176.64,27.44v-.23c0-4.88,3.62-7.95,8.32-7.95s8.27,3,8.27,7.8v.23c0,4.94-3.63,7.89-8.3,7.89S176.64,32.34,176.64,27.44ZM188,27.35v-.23c0-2.55-1-4-3-4s-3,1.36-3,3.91v.23c0,2.62,1,4,3,4S188,29.88,188,27.35Z" fill="#fff"/><path d="M203.66,25.35c-2.92-.2-4.34-1.76-4.46-4h3.13A1.59,1.59,0,0,0,203.66,23V20.48c-2.94-.42-4.19-1.49-4.19-3.84,0-2,1.6-3.52,4.19-3.7V11.43H205V13c2.45.2,3.91,1.33,4.11,3.65H206A1.36,1.36,0,0,0,205,15.34v2.33c2.59.37,4.28,1.25,4.28,3.71,0,2.06-1.34,3.78-4.28,4v2.11h-1.32Zm0-7.88V15.31c-.76.13-1.15.54-1.15,1.08S202.75,17.28,203.66,17.47ZM205,20.7V23a1.22,1.22,0,0,0,1.13-1.2C206.11,21.19,205.88,20.9,205,20.7Z" fill="#fff"/><path d="M210.29,28h5.28c.17,1.71,1,2.87,3,2.87,1.83,0,2.73-.87,2.73-2.35s-.87-2.43-2.73-2.43H217V22.42h1.54c1.85,0,2.75-.84,2.75-2.29,0-1.25-.81-2.06-2.37-2.06a2.65,2.65,0,0,0-2.76,2.64h-5.25c.26-4.09,3-6.9,8.15-6.9,4.87,0,7.8,2.23,7.8,5.68A4.43,4.43,0,0,1,223.31,24a4.67,4.67,0,0,1,4,4.7c0,3.94-2.93,6.52-8.42,6.52C213.16,35.18,210.46,32.52,210.29,28Z" fill="#fff"/><path d="M227.83,37.19l2.44-7.63,4.82,1.71-4.18,7.11Z" fill="#fff"/><path d="M236,28.31h5.4c.2,1.45.78,2.41,2.69,2.41,1.72,0,2.5-1.28,2.5-2.93a2.64,2.64,0,0,0-2.81-3,4.26,4.26,0,0,0-3.43,1.48h-3.54l.44-12.21h14v4.35h-9.69L241.47,23a5.52,5.52,0,0,1,4.84-2.2c3.8,0,6.29,2.55,6.29,7.05s-3.16,7.3-8.41,7.3C238.68,35.18,236.19,32.2,236,28.31Z" fill="#fff"/><path d="M254.05,24.92v-.87c0-6.56,4.09-10.24,9.57-10.24s9.58,3.39,9.58,10.12v.81c0,6.59-3.78,10.44-9.69,10.44S254.05,31.44,254.05,24.92Zm13.2-.06V24c0-3.8-1.1-5.72-3.63-5.72S260,20.19,260,24v.87c0,3.86,1.13,5.68,3.68,5.68S267.25,28.69,267.25,24.86Z" fill="#fff"/><path d="M274.84,24.92v-.87c0-6.56,4.09-10.24,9.58-10.24S294,17.2,294,23.93v.81c0,6.59-3.77,10.44-9.69,10.44S274.84,31.44,274.84,24.92Zm13.2-.06V24c0-3.8-1.1-5.72-3.62-5.72s-3.63,1.89-3.63,5.72v.87c0,3.86,1.13,5.68,3.68,5.68S288,28.69,288,24.86Z" fill="#fff"/><path d="M302.1,30V23.21h-1.82V19.67h1.82V16.5h5.2v3.17h3v3.54h-3v6.26c0,1.1.55,1.6,1.53,1.6a3.83,3.83,0,0,0,1.48-.27v3.95a11,11,0,0,1-2.87.43C304,35.18,302.1,33.53,302.1,30Z" fill="#fff"/><path d="M311.44,27.44v-.23c0-4.88,3.63-7.95,8.33-7.95s8.26,3,8.26,7.8v.23c0,4.94-3.62,7.89-8.29,7.89S311.44,32.34,311.44,27.44Zm11.31-.09v-.23c0-2.55-1-4-3-4s-3,1.36-3,3.91v.23c0,2.62,1,4,3,4S322.75,29.88,322.75,27.35Z" fill="#fff"/><path d="M329.1,27.41v-.23c0-5.16,2.84-7.92,6.44-7.92a4.93,4.93,0,0,1,4.67,2.55V13h5.19V34.84h-5.19V32.37a5.1,5.1,0,0,1-4.73,2.81C332,35.18,329.1,32.66,329.1,27.41Zm11.26-.09v-.23c0-2.55-1.08-3.91-3-3.91s-3,1.3-3,3.94v.23c0,2.56,1.13,3.86,2.93,3.86S340.36,29.91,340.36,27.32Z" fill="#fff"/><path d="M347.17,30.63c0-3.57,3-5,8.06-5h1.45v-.35c0-1.45-.35-2.4-2-2.4a1.87,1.87,0,0,0-2.06,1.79h-4.87c.23-3.65,3.1-5.45,7.25-5.45S361.85,21,361.85,25v9.84H356.8V33.07a5,5,0,0,1-4.5,2.11C349.58,35.18,347.17,33.85,347.17,30.63Zm9.51-1.1V28.6h-1.36c-2.09,0-3,.41-3,1.65,0,.87.58,1.42,1.8,1.42C355.58,31.67,356.68,30.83,356.68,29.53Z" fill="#fff"/><path d="M368.6,33.3l-6.06-13.63h5.63l3.13,8.09,2.9-8.09h5L371,39.91h-5Z" fill="#fff"/><path d="M378.05,32.23a2.89,2.89,0,0,1,3-2.93,2.93,2.93,0,1,1,0,5.86A2.9,2.9,0,0,1,378.05,32.23Z" fill="#fff"/><path d="M392.23,14.1h6.7l6.65,11.69V14.1h5.19V34.84H405l-7.57-13v13h-5.23Z" fill="#fff"/><path d="M412.85,27.44v-.23c0-4.88,3.63-7.95,8.33-7.95s8.27,3,8.27,7.8v.23c0,4.94-3.63,7.89-8.3,7.89S412.85,32.34,412.85,27.44Zm11.32-.09v-.23c0-2.55-1-4-3-4s-3,1.36-3,3.91v.23c0,2.62,1,4,3,4S424.17,29.88,424.17,27.35Z" fill="#fff"/><path d="M436.43,15.55a2.86,2.86,0,1,1,2.84,2.67A2.71,2.71,0,0,1,436.43,15.55Zm.26,4.12h5.19V34.84h-5.19Z" fill="#fff"/><path d="M444.67,19.67h5.19V22.1a5.36,5.36,0,0,1,5-2.84c2.93,0,5,1.83,5,5.71v9.87h-5.19V26c0-1.71-.67-2.55-2.18-2.55s-2.58.92-2.58,2.87v8.5h-5.19Z" fill="#fff"/><path d="M463,30V23.21H461.2V19.67H463V16.5h5.19v3.17h3v3.54h-3v6.26a1.39,1.39,0,0,0,1.54,1.6,3.83,3.83,0,0,0,1.48-.27v3.95a11.09,11.09,0,0,1-2.87.43C464.94,35.18,463,33.53,463,30Z" fill="#fff"/><path d="M472.36,27.44v-.23c0-4.88,3.63-7.95,8.21-7.95,4.15,0,7.72,2.38,7.72,7.83v1.37H477.61c.15,2,1.31,3.16,3.16,3.16s2.44-.79,2.64-1.8h4.88c-.47,3.42-3.11,5.36-7.69,5.36C475.84,35.18,472.36,32.4,472.36,27.44Zm10.88-1.91c-.09-1.83-1-2.85-2.67-2.85s-2.64,1-2.9,2.85Z" fill="#fff"/><path d="M490.08,19.67h5.19v3a4.78,4.78,0,0,1,4.9-3.22v4.85c-3.16-.09-4.9.9-4.9,3.33v7.2h-5.19Z" fill="#fff"/><path d="M501.1,27.44v-.23c0-4.88,3.62-7.95,8.21-7.95,4.15,0,7.71,2.38,7.71,7.83v1.37H506.35a3,3,0,0,0,3.16,3.16c1.71,0,2.44-.79,2.64-1.8H517c-.46,3.42-3.1,5.36-7.68,5.36C504.58,35.18,501.1,32.4,501.1,27.44ZM512,25.53c-.09-1.83-1-2.85-2.67-2.85s-2.64,1-2.9,2.85Z" fill="#fff"/><path d="M518,30h4.78c.18,1.1.67,1.71,2.15,1.71,1.28,0,1.86-.49,1.86-1.24s-.73-1.08-2.82-1.37c-4.06-.52-5.77-1.71-5.77-4.87,0-3.37,3-5,6.5-5,3.74,0,6.35,1.28,6.7,4.9h-4.7a1.69,1.69,0,0,0-1.94-1.51c-1.13,0-1.71.5-1.71,1.19s.69,1,2.55,1.25c4.2.52,6.23,1.62,6.23,4.87,0,3.6-2.66,5.22-6.87,5.22S518.06,33.39,518,30Z" fill="#fff"/><path d="M534.16,30V23.21h-1.83V19.67h1.83V16.5h5.19v3.17h3v3.54h-3v6.26a1.39,1.39,0,0,0,1.54,1.6,3.86,3.86,0,0,0,1.48-.27v3.95a11.17,11.17,0,0,1-2.87.43C536.07,35.18,534.16,33.53,534.16,30Z" fill="#fff"/><path d="M544.11,32.23a2.88,2.88,0,0,1,2.95-2.93,2.93,2.93,0,1,1,0,5.86A2.89,2.89,0,0,1,544.11,32.23Z" fill="#fff"/><path d="M122,45.1h6.7l6.64,11.69V45.1h5.2V65.84h-5.75l-7.57-13v13H122Z" fill="#fff"/><path d="M142.62,58.44v-.23c0-4.88,3.63-8,8.33-8s8.26,3,8.26,7.8v.23c0,4.94-3.62,7.89-8.29,7.89S142.62,63.34,142.62,58.44Zm11.31-.09v-.23c0-2.55-1-4-3-4s-3,1.36-3,3.91v.23c0,2.62,1,4,3,4S153.93,60.88,153.93,58.35Z" fill="#fff"/><path d="M166.46,44h5.16V65.84h-5.16Z" fill="#fff"/><path d="M173.59,58.44v-.23c0-4.88,3.63-8,8.33-8s8.26,3,8.26,7.8v.23c0,4.94-3.62,7.89-8.29,7.89S173.59,63.34,173.59,58.44Zm11.31-.09v-.23c0-2.55-1-4-3-4s-3,1.36-3,3.91v.23c0,2.62,1,4,3,4S184.9,60.88,184.9,58.35Z" fill="#fff"/><path d="M191.14,61.63c0-3.57,3-5,8.06-5h1.45v-.35c0-1.45-.35-2.4-2-2.4a1.87,1.87,0,0,0-2.06,1.79h-4.87c.23-3.65,3.1-5.45,7.25-5.45S205.81,52,205.81,56v9.84h-5V64.07a5,5,0,0,1-4.5,2.11C193.54,66.18,191.14,64.85,191.14,61.63Zm9.51-1.1V59.6h-1.36c-2.09,0-3,.41-3,1.65,0,.87.58,1.42,1.8,1.42C199.55,62.67,200.65,61.83,200.65,60.53Z" fill="#fff"/><path d="M208.33,50.67h5.2V53.1a5.35,5.35,0,0,1,5-2.84c2.93,0,5,1.83,5,5.71v9.87h-5.2V57c0-1.71-.66-2.55-2.17-2.55s-2.58.92-2.58,2.87v8.5h-5.2Z" fill="#fff"/><path d="M232.06,54.21h-1.92V50.67h1.92V49.33c0-3.77,2.34-5.57,5.94-5.57a9.45,9.45,0,0,1,2.38.32v3.8a5,5,0,0,0-1.42-.2,1.52,1.52,0,0,0-1.74,1.65v1.34h3.07v3.54h-3.07V65.84h-5.16Z" fill="#fff"/><path d="M240.7,58.44v-.23c0-4.88,3.62-8,8.21-8,4.14,0,7.71,2.38,7.71,7.83v1.37H246a3,3,0,0,0,3.16,3.16c1.71,0,2.43-.79,2.64-1.8h4.87c-.46,3.42-3.1,5.36-7.69,5.36C244.18,66.18,240.7,63.4,240.7,58.44Zm10.87-1.91c-.08-1.83-1-2.85-2.66-2.85s-2.64,1-2.91,2.85Z" fill="#fff"/><path d="M257.6,58.44v-.23c0-4.88,3.63-8,8.21-8,4.15,0,7.72,2.38,7.72,7.83v1.37H262.85A3,3,0,0,0,266,62.62c1.71,0,2.43-.79,2.63-1.8h4.88c-.47,3.42-3.11,5.36-7.69,5.36C261.08,66.18,257.6,63.4,257.6,58.44Zm10.88-1.91c-.09-1.83-1-2.85-2.67-2.85s-2.64,1-2.9,2.85Z" fill="#fff"/><path d="M274.45,61h4.79c.17,1.1.66,1.71,2.14,1.71,1.28,0,1.86-.49,1.86-1.24s-.72-1.08-2.81-1.37c-4.06-.52-5.78-1.71-5.78-4.87,0-3.37,3-5,6.5-5,3.74,0,6.35,1.28,6.7,4.9h-4.7a1.69,1.69,0,0,0-1.94-1.51c-1.13,0-1.71.5-1.71,1.19s.69,1,2.55,1.25c4.21.52,6.24,1.62,6.24,4.87,0,3.6-2.67,5.22-6.88,5.22S274.57,64.39,274.45,61Z" fill="#fff"/><path d="M289.76,63.23a2.89,2.89,0,0,1,3-2.93,2.93,2.93,0,1,1,0,5.86A2.9,2.9,0,0,1,289.76,63.23Z" fill="#fff"/><path d="M302.61,59.25h5.66c.14,1.48.81,2.7,3.27,2.7,1.72,0,2.67-.84,2.67-2.06s-.78-1.62-3.27-2c-5.86-.7-7.84-2.44-7.84-6.61,0-3.75,3.08-6.47,8-6.47s7.8,2.09,8.18,6.47h-5.51A2.37,2.37,0,0,0,311.14,49c-1.6,0-2.41.73-2.41,1.77s.64,1.68,3.22,2c5.25.58,7.95,1.95,7.95,6.44,0,3.8-3,6.9-8.36,6.9C305.74,66.18,302.78,63.75,302.61,59.25Z" fill="#fff"/><path d="M322.5,61V54.21h-1.82V50.67h1.82V47.5h5.2v3.17h3v3.54h-3v6.26c0,1.1.55,1.6,1.53,1.6a3.83,3.83,0,0,0,1.48-.27v4a11,11,0,0,1-2.87.43C324.42,66.18,322.5,64.53,322.5,61Z" fill="#fff"/><path d="M331.84,61.63c0-3.57,3-5,8.07-5h1.45v-.35c0-1.45-.35-2.4-2-2.4a1.87,1.87,0,0,0-2.06,1.79h-4.87c.23-3.65,3.11-5.45,7.25-5.45S346.52,52,346.52,56v9.84h-5V64.07A5,5,0,0,1,337,66.18C334.25,66.18,331.84,64.85,331.84,61.63Zm9.52-1.1V59.6H340c-2.09,0-3,.41-3,1.65,0,.87.58,1.42,1.79,1.42C340.25,62.67,341.36,61.83,341.36,60.53Z" fill="#fff"/><path d="M349,50.67h5.19v3a4.78,4.78,0,0,1,4.9-3.22v4.85c-3.16-.09-4.9.9-4.9,3.33v7.2H349Z" fill="#fff"/><path d="M361.94,61V54.21h-1.82V50.67h1.82V47.5h5.2v3.17h3v3.54h-3v6.26c0,1.1.55,1.6,1.53,1.6a3.83,3.83,0,0,0,1.48-.27v4a11,11,0,0,1-2.87.43C363.86,66.18,361.94,64.53,361.94,61Z" fill="#fff"/><path d="M372,46.55a2.86,2.86,0,1,1,2.84,2.67A2.71,2.71,0,0,1,372,46.55Zm.26,4.12h5.19V65.84h-5.19Z" fill="#fff"/><path d="M380.21,50.67h5.2V53.1a5.35,5.35,0,0,1,5-2.84c2.93,0,5,1.83,5,5.71v9.87h-5.19V57c0-1.71-.66-2.55-2.17-2.55s-2.58.92-2.58,2.87v8.5h-5.2Z" fill="#fff"/><path d="M397,65.84h5.17c.23,1.1.89,2,2.78,2a2.87,2.87,0,0,0,3.22-3.19V62.3a5.32,5.32,0,0,1-4.7,2.78c-3.54,0-6.44-2.61-6.44-7.28v-.23c0-4.47,2.87-7.31,6.44-7.31a4.94,4.94,0,0,1,4.7,2.55V50.67h5.19V64.56c0,4.53-3,6.9-8.41,6.9C399.82,71.46,397.44,69.29,397,65.84Zm11.32-8.07v-.2c0-2.09-1.08-3.42-3-3.42s-3,1.36-3,3.45v.23c0,2.09,1.1,3.42,3,3.42S408.35,59.92,408.35,57.77Z" fill="#fff"/><path d="M420.72,65.4V61a6.89,6.89,0,0,0,2.53.41c1.62,0,2.7-.73,2.7-2.87V45.1h6V58.56c0,5-2.55,7.54-7.42,7.54A8,8,0,0,1,420.72,65.4Z" fill="#fff"/><path d="M433.57,61.63c0-3.57,3-5,8.07-5h1.45v-.35c0-1.45-.35-2.4-2-2.4A1.85,1.85,0,0,0,439,55.71h-4.88c.23-3.65,3.11-5.45,7.25-5.45S448.25,52,448.25,56v9.84H443.2V64.07a5,5,0,0,1-4.49,2.11C436,66.18,433.57,64.85,433.57,61.63Zm9.52-1.1V59.6h-1.37c-2.09,0-3,.41-3,1.65,0,.87.58,1.42,1.79,1.42C442,62.67,443.09,61.83,443.09,60.53Z" fill="#fff"/><path d="M450.77,50.67H456V53.1a5.37,5.37,0,0,1,5-2.84c2.93,0,5,1.83,5,5.71v9.87h-5.19V57c0-1.71-.67-2.55-2.18-2.55s-2.58.92-2.58,2.87v8.5h-5.19Z" fill="#fff"/><path d="M482.79,61.86h-10.1V59.63l8.65-14.53h7.16V57.77h2.67v4.09H488.5v4h-5.71Zm.14-4.09V49.56l-4.64,8.21Z" fill="#fff"/><path d="M492.44,63.23a2.89,2.89,0,0,1,3-2.93,2.93,2.93,0,1,1,0,5.86A2.9,2.9,0,0,1,492.44,63.23Z" fill="#fff"/></g></g><g id="Legal"><g id="Optional_loan_from_Axos_Bank_within_minutes_of_filing._Not_your" data-name="Optional loan from Axos Bank within minutes of filing. Not your"><path d="M120.5,82.78v-.07a3.16,3.16,0,1,1,6.31,0v.07a3.16,3.16,0,1,1-6.31,0Zm5.5,0v-.07a2.36,2.36,0,1,0-4.69,0v.07a2.42,2.42,0,0,0,2.37,2.62A2.35,2.35,0,0,0,126,82.75Z" fill="#fff"/><path d="M127.92,81.25h.75V82a1.93,1.93,0,0,1,1.59-.87,2.14,2.14,0,0,1,2.14,2.37v.07A2.17,2.17,0,0,1,130.26,86a1.78,1.78,0,0,1-1.59-.86V87.6h-.75Zm3.71,2.39v-.07c0-1.19-.66-1.78-1.45-1.78s-1.54.58-1.54,1.78v.07c0,1.21.63,1.78,1.55,1.78S131.63,84.79,131.63,83.64Z" fill="#fff"/><path d="M133.59,84.78v-2.9h-.67v-.63h.67V80.18h.75v1.07h1.1v.63h-1.1v2.83c0,.46.2.68.58.68a1.59,1.59,0,0,0,.58-.1v.63a1.85,1.85,0,0,1-.64.1A1.14,1.14,0,0,1,133.59,84.78Z" fill="#fff"/><path d="M136.37,79.77a.5.5,0,0,1,.5-.49.49.49,0,0,1,.49.49.5.5,0,0,1-.49.5A.51.51,0,0,1,136.37,79.77Zm.14,1.48h.74V86h-.74Z" fill="#fff"/><path d="M138.3,83.64v-.07a2.31,2.31,0,1,1,4.62,0v.07a2.31,2.31,0,1,1-4.62,0Zm3.85,0v-.06c0-1.09-.6-1.79-1.54-1.79a1.56,1.56,0,0,0-1.54,1.78v.07c0,1.07.59,1.78,1.54,1.78S142.15,84.71,142.15,83.64Z" fill="#fff"/><path d="M144,81.25h.75V82a1.59,1.59,0,0,1,1.51-.83c1,0,1.66.53,1.66,1.9V86h-.75V83c0-.83-.35-1.19-1.11-1.19a1.23,1.23,0,0,0-1.31,1.28V86H144Z" fill="#fff"/><path d="M148.81,84.65c0-1.09,1.15-1.46,2.36-1.46h.67v-.34c0-.75-.29-1.06-1-1.06s-1,.27-1.08.84H149a1.64,1.64,0,0,1,1.86-1.46,1.52,1.52,0,0,1,1.72,1.68V86h-.75v-.6a1.69,1.69,0,0,1-1.46.68C149.5,86,148.81,85.62,148.81,84.65Zm3-.34v-.59h-.65c-.94,0-1.63.24-1.63.93,0,.49.23.79.89.79S151.84,85,151.84,84.31Z" fill="#fff"/><path d="M153.94,79h.75v7h-.75Z" fill="#fff"/><path d="M158.36,79h.75v7h-.75Z" fill="#fff"/><path d="M160.16,83.64v-.07a2.32,2.32,0,1,1,4.63,0v.07a2.32,2.32,0,1,1-4.63,0Zm3.85,0v-.06c0-1.09-.6-1.79-1.54-1.79a1.56,1.56,0,0,0-1.54,1.78v.07c0,1.07.59,1.78,1.54,1.78S164,84.71,164,83.64Z" fill="#fff"/><path d="M165.42,84.65c0-1.09,1.15-1.46,2.36-1.46h.68v-.34c0-.75-.29-1.06-1-1.06s-1,.27-1.08.84h-.75a1.64,1.64,0,0,1,1.86-1.46,1.52,1.52,0,0,1,1.72,1.68V86h-.74v-.6A1.71,1.71,0,0,1,167,86C166.12,86,165.42,85.62,165.42,84.65Zm3-.34v-.59h-.65c-.95,0-1.64.24-1.64.93,0,.49.23.79.89.79S168.46,85,168.46,84.31Z" fill="#fff"/><path d="M170.53,81.25h.75V82a1.61,1.61,0,0,1,1.51-.83c1,0,1.66.53,1.66,1.9V86h-.75V83c0-.83-.35-1.19-1.1-1.19a1.24,1.24,0,0,0-1.32,1.28V86h-.75Z" fill="#fff"/><path d="M178.19,81.88h-.67v-.63h.67v-.77c0-1,.47-1.51,1.41-1.51a1.6,1.6,0,0,1,.56.09v.63a1.62,1.62,0,0,0-.54-.1c-.48,0-.68.33-.68.81v.85h1.15v.63h-1.15V86h-.75Z" fill="#fff"/><path d="M181,81.25h.75v.84a1.62,1.62,0,0,1,1.55-.92v.7c-.95,0-1.55.34-1.55,1.5V86H181Z" fill="#fff"/><path d="M183.77,83.64v-.07a2.32,2.32,0,1,1,4.63,0v.07a2.32,2.32,0,1,1-4.63,0Zm3.86,0v-.06c0-1.09-.61-1.79-1.54-1.79s-1.54.7-1.54,1.78v.07c0,1.07.58,1.78,1.54,1.78A1.57,1.57,0,0,0,187.63,83.64Z" fill="#fff"/><path d="M189.43,81.25h.74V82a1.54,1.54,0,0,1,1.41-.8,1.36,1.36,0,0,1,1.37.88,1.84,1.84,0,0,1,1.62-.88c.84,0,1.58.5,1.58,1.87V86h-.75V83c0-.83-.35-1.17-1-1.17a1.2,1.2,0,0,0-1.24,1.26V86h-.75V83c0-.83-.35-1.17-1-1.17a1.2,1.2,0,0,0-1.25,1.26V86h-.74Z" fill="#fff"/><path d="M201.51,79.52h1L204.72,86h-.78l-.63-1.86h-2.65L200,86h-.74Zm-.64,4h2.24L202,80.17Z" fill="#fff"/><path d="M206.84,83.54l-1.57-2.29h.87L207.29,83l1.14-1.71h.81l-1.55,2.23L209.41,86h-.89l-1.27-1.9L206,86h-.8Z" fill="#fff"/><path d="M209.7,83.64v-.07a2.32,2.32,0,1,1,4.63,0v.07a2.32,2.32,0,1,1-4.63,0Zm3.86,0v-.06c0-1.09-.61-1.79-1.54-1.79s-1.54.7-1.54,1.78v.07c0,1.07.58,1.78,1.54,1.78A1.57,1.57,0,0,0,213.56,83.64Z" fill="#fff"/><path d="M215,84.51h.73c.05.56.35.91,1.1.91s1-.25,1-.75-.37-.66-1.1-.79c-1.22-.23-1.64-.57-1.64-1.39a1.47,1.47,0,0,1,1.6-1.32,1.51,1.51,0,0,1,1.7,1.36h-.72c-.11-.52-.4-.74-1-.74s-.89.27-.89.67.23.6,1.09.75,1.66.4,1.66,1.4c0,.85-.58,1.43-1.73,1.43S215,85.47,215,84.51Z" fill="#fff"/><path d="M221.84,79.52h1.94c1.2,0,2.07.4,2.07,1.67v0a1.31,1.31,0,0,1-1,1.36,1.41,1.41,0,0,1,1.28,1.54v0c0,1.21-.82,1.8-2.11,1.8h-2.21Zm1.94,2.81c.94,0,1.3-.34,1.3-1.14v0c0-.73-.42-1-1.32-1h-1.15v2.2Zm.25,3c.94,0,1.37-.41,1.37-1.19v0c0-.79-.44-1.17-1.48-1.17h-1.31v2.4Z" fill="#fff"/><path d="M226.86,84.65c0-1.09,1.16-1.46,2.36-1.46h.68v-.34c0-.75-.29-1.06-1-1.06s-1,.27-1.08.84h-.75a1.65,1.65,0,0,1,1.87-1.46,1.52,1.52,0,0,1,1.72,1.68V86h-.75v-.6a1.71,1.71,0,0,1-1.47.68C227.56,86,226.86,85.62,226.86,84.65Zm3-.34v-.59h-.65c-.94,0-1.64.24-1.64.93,0,.49.24.79.89.79C229.3,85.44,229.9,85,229.9,84.31Z" fill="#fff"/><path d="M232,81.25h.74V82a1.61,1.61,0,0,1,1.52-.83c1,0,1.65.53,1.65,1.9V86h-.74V83c0-.83-.36-1.19-1.11-1.19a1.24,1.24,0,0,0-1.32,1.28V86H232Z" fill="#fff"/><path d="M237.22,79H238v4.42l1.95-2.17h.88l-2,2.19L241,86h-.91L238,83.52V86h-.75Z" fill="#fff"/><path d="M243.48,81.25h.81l1.1,3.79,1.14-3.79h.65L248.25,85l1.11-3.79h.76L248.66,86h-.83l-1-3.53L245.75,86h-.82Z" fill="#fff"/><path d="M250.88,79.77a.49.49,0,0,1,.49-.49.5.5,0,0,1,.5.49.51.51,0,0,1-.5.5A.5.5,0,0,1,250.88,79.77Zm.13,1.48h.75V86H251Z" fill="#fff"/><path d="M253.32,84.78v-2.9h-.68v-.63h.68V80.18h.74v1.07h1.1v.63h-1.1v2.83c0,.46.21.68.59.68a1.57,1.57,0,0,0,.57-.1v.63a1.85,1.85,0,0,1-.64.1A1.14,1.14,0,0,1,253.32,84.78Z" fill="#fff"/><path d="M256.21,79H257v3a1.61,1.61,0,0,1,1.51-.83c1,0,1.66.53,1.66,1.9V86h-.75V83c0-.83-.35-1.19-1.11-1.19A1.23,1.23,0,0,0,257,83.1V86h-.75Z" fill="#fff"/><path d="M261.34,79.77a.5.5,0,0,1,.5-.49.49.49,0,0,1,.49.49.5.5,0,0,1-.49.5A.51.51,0,0,1,261.34,79.77Zm.14,1.48h.75V86h-.75Z" fill="#fff"/><path d="M263.62,81.25h.75V82a1.6,1.6,0,0,1,1.51-.83c1,0,1.66.53,1.66,1.9V86h-.75V83c0-.83-.35-1.19-1.11-1.19a1.23,1.23,0,0,0-1.31,1.28V86h-.75Z" fill="#fff"/><path d="M271.12,81.25h.74V82a1.54,1.54,0,0,1,1.41-.8,1.38,1.38,0,0,1,1.38.88,1.81,1.81,0,0,1,1.61-.88c.84,0,1.58.5,1.58,1.87V86h-.74V83c0-.83-.36-1.17-1-1.17a1.2,1.2,0,0,0-1.25,1.26V86h-.74V83c0-.83-.36-1.17-1-1.17a1.2,1.2,0,0,0-1.25,1.26V86h-.74Z" fill="#fff"/><path d="M279.06,79.77a.49.49,0,0,1,.49-.49.5.5,0,0,1,.5.49.51.51,0,0,1-.5.5A.5.5,0,0,1,279.06,79.77Zm.13,1.48h.75V86h-.75Z" fill="#fff"/><path d="M281.33,81.25h.75V82a1.61,1.61,0,0,1,1.51-.83c1,0,1.66.53,1.66,1.9V86h-.75V83c0-.83-.35-1.19-1.11-1.19a1.23,1.23,0,0,0-1.31,1.28V86h-.75Z" fill="#fff"/><path d="M286.53,84.23v-3h.75v2.94c0,.83.35,1.2,1.09,1.2a1.24,1.24,0,0,0,1.3-1.29V81.25h.74V86h-.74v-.75a1.62,1.62,0,0,1-1.5.83C287.24,86,286.53,85.52,286.53,84.23Z" fill="#fff"/><path d="M292,84.78v-2.9h-.67v-.63H292V80.18h.75v1.07h1.1v.63h-1.1v2.83c0,.46.21.68.58.68a1.59,1.59,0,0,0,.58-.1v.63a1.85,1.85,0,0,1-.64.1A1.14,1.14,0,0,1,292,84.78Z" fill="#fff"/><path d="M294.5,83.65v-.07a2.21,2.21,0,0,1,2.2-2.41,2.06,2.06,0,0,1,2.12,2.34v.24h-3.55c0,1.07.55,1.67,1.52,1.67.72,0,1.15-.27,1.25-.82h.74a1.81,1.81,0,0,1-2,1.44A2.21,2.21,0,0,1,294.5,83.65Zm3.55-.5c-.07-1-.57-1.36-1.35-1.36a1.41,1.41,0,0,0-1.4,1.36Z" fill="#fff"/><path d="M299.48,84.51h.73c.06.56.35.91,1.11.91s1-.25,1-.75-.37-.66-1.1-.79c-1.23-.23-1.64-.57-1.64-1.39a1.47,1.47,0,0,1,1.59-1.32,1.51,1.51,0,0,1,1.71,1.36h-.72c-.11-.52-.4-.74-1-.74s-.9.27-.9.67.24.6,1.1.75,1.66.4,1.66,1.4c0,.85-.59,1.43-1.73,1.43S299.53,85.47,299.48,84.51Z" fill="#fff"/><path d="M306,83.64v-.07a2.31,2.31,0,1,1,4.62,0v.07a2.31,2.31,0,1,1-4.62,0Zm3.85,0v-.06c0-1.09-.6-1.79-1.54-1.79s-1.54.7-1.54,1.78v.07c0,1.07.58,1.78,1.54,1.78A1.57,1.57,0,0,0,309.81,83.64Z" fill="#fff"/><path d="M311.77,81.88h-.68v-.63h.68v-.77c0-1,.47-1.51,1.4-1.51a1.57,1.57,0,0,1,.56.09v.63a1.51,1.51,0,0,0-.53-.1c-.49,0-.68.33-.68.81v.85h1.15v.63h-1.15V86h-.75Z" fill="#fff"/><path d="M317,81.88h-.68v-.63H317v-.77c0-1,.47-1.51,1.4-1.51a1.57,1.57,0,0,1,.56.09v.63a1.51,1.51,0,0,0-.53-.1c-.49,0-.68.33-.68.81v.85h1.15v.63h-1.15V86H317Z" fill="#fff"/><path d="M319.7,79.77a.49.49,0,0,1,.49-.49.5.5,0,0,1,.5.49.51.51,0,0,1-.5.5A.5.5,0,0,1,319.7,79.77Zm.13,1.48h.75V86h-.75Z" fill="#fff"/><path d="M322,79h.76v7H322Z" fill="#fff"/><path d="M324,79.77a.49.49,0,0,1,.49-.49.5.5,0,0,1,.5.49.51.51,0,0,1-.5.5A.5.5,0,0,1,324,79.77Zm.13,1.48h.75V86h-.75Z" fill="#fff"/><path d="M326.3,81.25h.75V82a1.61,1.61,0,0,1,1.51-.83c1,0,1.66.53,1.66,1.9V86h-.75V83c0-.83-.35-1.19-1.1-1.19a1.24,1.24,0,0,0-1.32,1.28V86h-.75Z" fill="#fff"/><path d="M331.3,86.23h.76c.11.54.56.82,1.36.82a1.33,1.33,0,0,0,1.52-1.45v-.69a2,2,0,0,1-1.6.89,2.12,2.12,0,0,1-2.14-2.23v-.06a2.23,2.23,0,0,1,2.2-2.34,1.7,1.7,0,0,1,1.54.83v-.75h.74v4.39a2,2,0,0,1-2.25,2C332,87.68,331.43,87,331.3,86.23ZM335,83.52v-.07a1.45,1.45,0,0,0-1.49-1.66,1.5,1.5,0,0,0-1.5,1.68v.07a1.49,1.49,0,0,0,1.45,1.64A1.51,1.51,0,0,0,335,83.52Z" fill="#fff"/><path d="M337,85.43a.58.58,0,1,1,.57.57A.57.57,0,0,1,337,85.43Z" fill="#fff"/><path d="M341.77,79.52h1l3.14,5.32V79.52h.74V86h-.9l-3.25-5.52V86h-.74Z" fill="#fff"/><path d="M347.74,83.64v-.07a2.32,2.32,0,1,1,4.63,0v.07a2.32,2.32,0,1,1-4.63,0Zm3.86,0v-.06c0-1.09-.61-1.79-1.54-1.79s-1.54.7-1.54,1.78v.07c0,1.07.58,1.78,1.54,1.78A1.57,1.57,0,0,0,351.6,83.64Z" fill="#fff"/><path d="M353.56,84.78v-2.9h-.68v-.63h.68V80.18h.74v1.07h1.1v.63h-1.1v2.83c0,.46.21.68.59.68a1.57,1.57,0,0,0,.57-.1v.63a1.82,1.82,0,0,1-.63.1A1.14,1.14,0,0,1,353.56,84.78Z" fill="#fff"/><path d="M360,85.47l-1.85-4.22h.8l1.44,3.37,1.31-3.37h.76l-2.6,6.35h-.75Z" fill="#fff"/><path d="M362.84,83.64v-.07a2.32,2.32,0,1,1,4.63,0v.07a2.32,2.32,0,1,1-4.63,0Zm3.86,0v-.06c0-1.09-.61-1.79-1.54-1.79s-1.54.7-1.54,1.78v.07c0,1.07.58,1.78,1.54,1.78A1.57,1.57,0,0,0,366.7,83.64Z" fill="#fff"/><path d="M368.45,84.23v-3h.75v2.94c0,.83.35,1.2,1.09,1.2a1.24,1.24,0,0,0,1.29-1.29V81.25h.75V86h-.75v-.75a1.59,1.59,0,0,1-1.49.83C369.15,86,368.45,85.52,368.45,84.23Z" fill="#fff"/><path d="M373.71,81.25h.74v.84a1.64,1.64,0,0,1,1.55-.92v.7c-.94,0-1.55.34-1.55,1.5V86h-.74Z" fill="#fff"/><path d="M379.37,84.78v-2.9h-.68v-.63h.68V80.18h.75v1.07h1.09v.63h-1.09v2.83c0,.46.2.68.58.68a1.67,1.67,0,0,0,.58-.1v.63a1.94,1.94,0,0,1-.64.1A1.14,1.14,0,0,1,379.37,84.78Z" fill="#fff"/><path d="M381.92,84.65c0-1.09,1.16-1.46,2.36-1.46H385v-.34c0-.75-.29-1.06-1-1.06s-1,.27-1.08.84h-.75A1.65,1.65,0,0,1,384,81.17a1.51,1.51,0,0,1,1.71,1.68V86H385v-.6a1.71,1.71,0,0,1-1.47.68C382.62,86,381.92,85.62,381.92,84.65Zm3-.34v-.59h-.65c-.95,0-1.64.24-1.64.93,0,.49.23.79.89.79S385,85,385,84.31Z" fill="#fff"/><path d="M388.21,83.54l-1.57-2.29h.87L388.67,83l1.14-1.71h.81l-1.56,2.23L390.78,86h-.88l-1.27-1.9-1.3,1.9h-.8Z" fill="#fff"/><path d="M393.9,81.25h.75v.84a1.63,1.63,0,0,1,1.55-.92v.7c-.95,0-1.55.34-1.55,1.5V86h-.75Z" fill="#fff"/><path d="M396.67,83.65v-.07a2.21,2.21,0,0,1,2.2-2.41A2.06,2.06,0,0,1,401,83.51v.24h-3.55c0,1.07.55,1.67,1.51,1.67.73,0,1.15-.27,1.25-.82H401a1.82,1.82,0,0,1-2,1.44A2.21,2.21,0,0,1,396.67,83.65Zm3.55-.5c-.07-1-.57-1.36-1.35-1.36a1.41,1.41,0,0,0-1.4,1.36Z" fill="#fff"/><path d="M402.16,81.88h-.68v-.63h.68v-.77c0-1,.46-1.51,1.4-1.51a1.6,1.6,0,0,1,.56.09v.63a1.61,1.61,0,0,0-.53-.1c-.49,0-.69.33-.69.81v.85h1.15v.63H402.9V86h-.74Z" fill="#fff"/><path d="M404.93,84.23v-3h.74v2.94c0,.83.36,1.2,1.09,1.2a1.24,1.24,0,0,0,1.3-1.29V81.25h.75V86h-.75v-.75a1.61,1.61,0,0,1-1.49.83C405.63,86,404.93,85.52,404.93,84.23Z" fill="#fff"/><path d="M410.18,81.25h.75V82a1.61,1.61,0,0,1,1.51-.83c1,0,1.66.53,1.66,1.9V86h-.75V83c0-.83-.35-1.19-1.1-1.19a1.24,1.24,0,0,0-1.32,1.28V86h-.75Z" fill="#fff"/><path d="M415.08,83.7v-.08a2.23,2.23,0,0,1,2.2-2.45,1.72,1.72,0,0,1,1.54.83V79h.74v7h-.74v-.81a2,2,0,0,1-1.62.89A2.1,2.1,0,0,1,415.08,83.7Zm3.76-.07v-.07c0-1.2-.57-1.77-1.49-1.77s-1.5.66-1.5,1.8v.07c0,1.19.64,1.76,1.44,1.76S418.84,84.84,418.84,83.63Z" fill="#fff"/><path d="M420.88,85.43a.58.58,0,1,1,.57.57A.57.57,0,0,1,420.88,85.43Z" fill="#fff"/></g></g></g></svg>