<svg xmlns="http://www.w3.org/2000/svg" viewBox="0 0 728 90"><title>H1</title><g id="Layer_2" data-name="Layer 2"><g id="Rect"><rect width="728" height="90" fill="none"/></g><g id="H01"><g id="Up_to_3_500_today._No_Interest._No_Loan_Fees._Starting_Jan_4th" data-name="Up to $3,500 today. No Interest. No Loan Fees. Starting Jan 4th"><path d="M121.86,26.42V14.1h5.94V26.16c0,2.93.73,4.35,3.25,4.35s3.25-1.33,3.25-4.43v-12h6V26.34c0,6-3.53,8.84-9.25,8.84S121.86,32.23,121.86,26.42Z" fill="#fff"/><path d="M143.11,19.67h5.2v2.26A5.34,5.34,0,0,1,153,19.26c3.54,0,6.41,2.67,6.41,7.86v.23c0,5.22-2.87,7.83-6.44,7.83a5,5,0,0,1-4.69-2.58v7.31h-5.2Zm11.06,7.68v-.23c0-2.67-1.17-3.94-3-3.94s-3,1.36-3,3.91v.23c0,2.59,1.13,3.89,3,3.89S154.17,29.85,154.17,27.35Z" fill="#fff"/><path d="M167.3,30V23.21h-1.83V19.67h1.83V16.5h5.19v3.17h3v3.54h-3v6.26a1.39,1.39,0,0,0,1.54,1.6,3.86,3.86,0,0,0,1.48-.27v3.95a11.17,11.17,0,0,1-2.87.43C169.21,35.18,167.3,33.53,167.3,30Z" fill="#fff"/><path d="M176.64,27.44v-.23c0-4.88,3.62-7.95,8.32-7.95s8.27,3,8.27,7.8v.23c0,4.94-3.63,7.89-8.3,7.89S176.64,32.34,176.64,27.44ZM188,27.35v-.23c0-2.55-1-4-3-4s-3,1.36-3,3.91v.23c0,2.62,1,4,3,4S188,29.88,188,27.35Z" fill="#fff"/><path d="M203.66,25.35c-2.92-.2-4.34-1.76-4.46-4h3.13A1.59,1.59,0,0,0,203.66,23V20.48c-2.94-.42-4.19-1.49-4.19-3.84,0-2,1.6-3.52,4.19-3.7V11.43H205V13c2.45.2,3.91,1.33,4.11,3.65H206A1.36,1.36,0,0,0,205,15.34v2.33c2.59.37,4.28,1.25,4.28,3.71,0,2.06-1.34,3.78-4.28,4v2.11h-1.32Zm0-7.88V15.31c-.76.13-1.15.54-1.15,1.08S202.75,17.28,203.66,17.47ZM205,20.7V23a1.22,1.22,0,0,0,1.13-1.2C206.11,21.19,205.88,20.9,205,20.7Z" fill="#fff"/><path d="M210.29,28h5.28c.17,1.71,1,2.87,3,2.87,1.83,0,2.73-.87,2.73-2.35s-.87-2.43-2.73-2.43H217V22.42h1.54c1.85,0,2.75-.84,2.75-2.29,0-1.25-.81-2.06-2.37-2.06a2.65,2.65,0,0,0-2.76,2.64h-5.25c.26-4.09,3-6.9,8.15-6.9,4.87,0,7.8,2.23,7.8,5.68A4.43,4.43,0,0,1,223.31,24a4.67,4.67,0,0,1,4,4.7c0,3.94-2.93,6.52-8.42,6.52C213.16,35.18,210.46,32.52,210.29,28Z" fill="#fff"/><path d="M227.83,37.19l2.44-7.63,4.82,1.71-4.18,7.11Z" fill="#fff"/><path d="M236,28.31h5.4c.2,1.45.78,2.41,2.69,2.41,1.72,0,2.5-1.28,2.5-2.93a2.64,2.64,0,0,0-2.81-3,4.26,4.26,0,0,0-3.43,1.48h-3.54l.44-12.21h14v4.35h-9.69L241.47,23a5.52,5.52,0,0,1,4.84-2.2c3.8,0,6.29,2.55,6.29,7.05s-3.16,7.3-8.41,7.3C238.68,35.18,236.19,32.2,236,28.31Z" fill="#fff"/><path d="M254.05,24.92v-.87c0-6.56,4.09-10.24,9.57-10.24s9.58,3.39,9.58,10.12v.81c0,6.59-3.78,10.44-9.69,10.44S254.05,31.44,254.05,24.92Zm13.2-.06V24c0-3.8-1.1-5.72-3.63-5.72S260,20.19,260,24v.87c0,3.86,1.13,5.68,3.68,5.68S267.25,28.69,267.25,24.86Z" fill="#fff"/><path d="M274.84,24.92v-.87c0-6.56,4.09-10.24,9.58-10.24S294,17.2,294,23.93v.81c0,6.59-3.77,10.44-9.69,10.44S274.84,31.44,274.84,24.92Zm13.2-.06V24c0-3.8-1.1-5.72-3.62-5.72s-3.63,1.89-3.63,5.72v.87c0,3.86,1.13,5.68,3.68,5.68S288,28.69,288,24.86Z" fill="#fff"/><path d="M302.1,30V23.21h-1.82V19.67h1.82V16.5h5.2v3.17h3v3.54h-3v6.26c0,1.1.55,1.6,1.53,1.6a3.83,3.83,0,0,0,1.48-.27v3.95a11,11,0,0,1-2.87.43C304,35.18,302.1,33.53,302.1,30Z" fill="#fff"/><path d="M311.44,27.44v-.23c0-4.88,3.63-7.95,8.33-7.95s8.26,3,8.26,7.8v.23c0,4.94-3.62,7.89-8.29,7.89S311.44,32.34,311.44,27.44Zm11.31-.09v-.23c0-2.55-1-4-3-4s-3,1.36-3,3.91v.23c0,2.62,1,4,3,4S322.75,29.88,322.75,27.35Z" fill="#fff"/><path d="M329.1,27.41v-.23c0-5.16,2.84-7.92,6.44-7.92a4.93,4.93,0,0,1,4.67,2.55V13h5.19V34.84h-5.19V32.37a5.1,5.1,0,0,1-4.73,2.81C332,35.18,329.1,32.66,329.1,27.41Zm11.26-.09v-.23c0-2.55-1.08-3.91-3-3.91s-3,1.3-3,3.94v.23c0,2.56,1.13,3.86,2.93,3.86S340.36,29.91,340.36,27.32Z" fill="#fff"/><path d="M347.17,30.63c0-3.57,3-5,8.06-5h1.45v-.35c0-1.45-.35-2.4-2-2.4a1.87,1.87,0,0,0-2.06,1.79h-4.87c.23-3.65,3.1-5.45,7.25-5.45S361.85,21,361.85,25v9.84H356.8V33.07a5,5,0,0,1-4.5,2.11C349.58,35.18,347.17,33.85,347.17,30.63Zm9.51-1.1V28.6h-1.36c-2.09,0-3,.41-3,1.65,0,.87.58,1.42,1.8,1.42C355.58,31.67,356.68,30.83,356.68,29.53Z" fill="#fff"/><path d="M368.6,33.3l-6.06-13.63h5.63l3.13,8.09,2.9-8.09h5L371,39.91h-5Z" fill="#fff"/><path d="M378.05,32.23a2.89,2.89,0,0,1,3-2.93,2.93,2.93,0,1,1,0,5.86A2.9,2.9,0,0,1,378.05,32.23Z" fill="#fff"/><path d="M392.23,14.1h6.7l6.65,11.69V14.1h5.19V34.84H405l-7.57-13v13h-5.23Z" fill="#fff"/><path d="M412.85,27.44v-.23c0-4.88,3.63-7.95,8.33-7.95s8.27,3,8.27,7.8v.23c0,4.94-3.63,7.89-8.3,7.89S412.85,32.34,412.85,27.44Zm11.32-.09v-.23c0-2.55-1-4-3-4s-3,1.36-3,3.91v.23c0,2.62,1,4,3,4S424.17,29.88,424.17,27.35Z" fill="#fff"/><path d="M437.13,14.1h6V34.84h-6Z" fill="#fff"/><path d="M446.32,19.67h5.19V22.1a5.37,5.37,0,0,1,5-2.84c2.93,0,5,1.83,5,5.71v9.87h-5.19V26c0-1.71-.67-2.55-2.18-2.55s-2.58.92-2.58,2.87v8.5h-5.19Z" fill="#fff"/><path d="M464.68,30V23.21h-1.83V19.67h1.83V16.5h5.19v3.17h3v3.54h-3v6.26a1.39,1.39,0,0,0,1.54,1.6,3.78,3.78,0,0,0,1.47-.27v3.95a11,11,0,0,1-2.87.43C466.59,35.18,464.68,33.53,464.68,30Z" fill="#fff"/><path d="M474,27.44v-.23c0-4.88,3.63-7.95,8.21-7.95,4.15,0,7.72,2.38,7.72,7.83v1.37H479.26c.15,2,1.31,3.16,3.16,3.16s2.44-.79,2.64-1.8h4.88c-.47,3.42-3.11,5.36-7.69,5.36C477.49,35.18,474,32.4,474,27.44Zm10.88-1.91c-.09-1.83-1-2.85-2.67-2.85s-2.64,1-2.9,2.85Z" fill="#fff"/><path d="M491.73,19.67h5.19v3a4.79,4.79,0,0,1,4.91-3.22v4.85c-3.16-.09-4.91.9-4.91,3.33v7.2h-5.19Z" fill="#fff"/><path d="M502.75,27.44v-.23c0-4.88,3.63-7.95,8.21-7.95,4.15,0,7.72,2.38,7.72,7.83v1.37H508c.15,2,1.31,3.16,3.16,3.16s2.44-.79,2.64-1.8h4.88c-.47,3.42-3.11,5.36-7.69,5.36C506.23,35.18,502.75,32.4,502.75,27.44Zm10.88-1.91c-.09-1.83-1-2.85-2.67-2.85s-2.64,1-2.9,2.85Z" fill="#fff"/><path d="M519.6,30h4.79c.17,1.1.66,1.71,2.14,1.71,1.28,0,1.86-.49,1.86-1.24s-.73-1.08-2.81-1.37c-4.07-.52-5.78-1.71-5.78-4.87,0-3.37,3-5,6.5-5,3.74,0,6.35,1.28,6.7,4.9h-4.7a1.69,1.69,0,0,0-1.94-1.51c-1.13,0-1.71.5-1.71,1.19s.69,1,2.55,1.25c4.21.52,6.24,1.62,6.24,4.87,0,3.6-2.67,5.22-6.88,5.22S519.72,33.39,519.6,30Z" fill="#fff"/><path d="M535.81,30V23.21H534V19.67h1.83V16.5H541v3.17h3v3.54h-3v6.26a1.39,1.39,0,0,0,1.54,1.6A3.83,3.83,0,0,0,544,30.8v3.95a11.09,11.09,0,0,1-2.87.43C537.73,35.18,535.81,33.53,535.81,30Z" fill="#fff"/><path d="M545.76,32.23a2.89,2.89,0,0,1,3-2.93,2.93,2.93,0,1,1,0,5.86A2.9,2.9,0,0,1,545.76,32.23Z" fill="#fff"/><path d="M122,45.1h6.7l6.64,11.69V45.1h5.2V65.84h-5.75l-7.57-13v13H122Z" fill="#fff"/><path d="M142.62,58.44v-.23c0-4.88,3.63-8,8.33-8s8.26,3,8.26,7.8v.23c0,4.94-3.62,7.89-8.29,7.89S142.62,63.34,142.62,58.44Zm11.31-.09v-.23c0-2.55-1-4-3-4s-3,1.36-3,3.91v.23c0,2.62,1,4,3,4S153.93,60.88,153.93,58.35Z" fill="#fff"/><path d="M166.78,45.1h6V61.22h7.83v4.62h-13.8Z" fill="#fff"/><path d="M181.45,58.44v-.23c0-4.88,3.63-8,8.33-8s8.26,3,8.26,7.8v.23c0,4.94-3.62,7.89-8.29,7.89S181.45,63.34,181.45,58.44Zm11.31-.09v-.23c0-2.55-1-4-3-4s-3,1.36-3,3.91v.23c0,2.62,1,4,3,4S192.76,60.88,192.76,58.35Z" fill="#fff"/><path d="M199,61.63c0-3.57,3-5,8.06-5h1.45v-.35c0-1.45-.35-2.4-2-2.4a1.86,1.86,0,0,0-2.06,1.79h-4.87c.23-3.65,3.1-5.45,7.25-5.45S213.67,52,213.67,56v9.84h-5V64.07a5,5,0,0,1-4.5,2.11C201.4,66.18,199,64.85,199,61.63Zm9.51-1.1V59.6h-1.36c-2.09,0-3,.41-3,1.65,0,.87.58,1.42,1.8,1.42C207.41,62.67,208.51,61.83,208.51,60.53Z" fill="#fff"/><path d="M216.19,50.67h5.19V53.1a5.38,5.38,0,0,1,5-2.84c2.93,0,5,1.83,5,5.71v9.87h-5.19V57c0-1.71-.67-2.55-2.17-2.55s-2.59.92-2.59,2.87v8.5h-5.19Z" fill="#fff"/><path d="M239.6,45.1h14v4.61h-8v4.41H252V58.5h-6.41v7.34h-6Z" fill="#fff"/><path d="M254,58.44v-.23c0-4.88,3.62-8,8.21-8,4.14,0,7.71,2.38,7.71,7.83v1.37H259.26a3,3,0,0,0,3.16,3.16c1.71,0,2.44-.79,2.64-1.8h4.87c-.46,3.42-3.1,5.36-7.68,5.36C257.49,66.18,254,63.4,254,58.44Zm10.88-1.91c-.09-1.83-1-2.85-2.67-2.85s-2.64,1-2.9,2.85Z" fill="#fff"/><path d="M270.91,58.44v-.23c0-4.88,3.63-8,8.21-8,4.15,0,7.72,2.38,7.72,7.83v1.37H276.17a3,3,0,0,0,3.16,3.16c1.71,0,2.43-.79,2.64-1.8h4.87c-.46,3.42-3.1,5.36-7.69,5.36C274.4,66.18,270.91,63.4,270.91,58.44Zm10.88-1.91c-.08-1.83-1-2.85-2.67-2.85s-2.64,1-2.9,2.85Z" fill="#fff"/><path d="M287.76,61h4.79c.17,1.1.67,1.71,2.15,1.71,1.27,0,1.85-.49,1.85-1.24s-.72-1.08-2.81-1.37c-4.06-.52-5.77-1.71-5.77-4.87,0-3.37,3-5,6.49-5,3.75,0,6.36,1.28,6.7,4.9h-4.69a1.71,1.71,0,0,0-2-1.51c-1.13,0-1.71.5-1.71,1.19s.7,1,2.55,1.25c4.21.52,6.24,1.62,6.24,4.87,0,3.6-2.67,5.22-6.88,5.22S287.88,64.39,287.76,61Z" fill="#fff"/><path d="M303.08,63.23A2.88,2.88,0,0,1,306,60.3a2.93,2.93,0,1,1,0,5.86A2.89,2.89,0,0,1,303.08,63.23Z" fill="#fff"/><path d="M315.92,59.25h5.66c.14,1.48.81,2.7,3.28,2.7,1.71,0,2.66-.84,2.66-2.06s-.78-1.62-3.27-2c-5.86-.7-7.83-2.44-7.83-6.61,0-3.75,3.07-6.47,8-6.47s7.8,2.09,8.18,6.47h-5.51A2.36,2.36,0,0,0,324.45,49c-1.6,0-2.41.73-2.41,1.77s.64,1.68,3.22,2c5.25.58,7.95,1.95,7.95,6.44,0,3.8-3,6.9-8.35,6.9C319.05,66.18,316.1,63.75,315.92,59.25Z" fill="#fff"/><path d="M335.82,61V54.21H334V50.67h1.83V47.5H341v3.17h3v3.54h-3v6.26a1.39,1.39,0,0,0,1.54,1.6A3.78,3.78,0,0,0,344,61.8v4a11,11,0,0,1-2.87.43C337.73,66.18,335.82,64.53,335.82,61Z" fill="#fff"/><path d="M345.15,61.63c0-3.57,3-5,8.07-5h1.45v-.35c0-1.45-.35-2.4-2-2.4a1.85,1.85,0,0,0-2.06,1.79h-4.88c.24-3.65,3.11-5.45,7.25-5.45S359.83,52,359.83,56v9.84h-5.05V64.07a5,5,0,0,1-4.49,2.11C347.56,66.18,345.15,64.85,345.15,61.63Zm9.52-1.1V59.6H353.3c-2.08,0-3,.41-3,1.65,0,.87.58,1.42,1.8,1.42C353.56,62.67,354.67,61.83,354.67,60.53Z" fill="#fff"/><path d="M362.35,50.67h5.19v3a4.78,4.78,0,0,1,4.9-3.22v4.85c-3.16-.09-4.9.9-4.9,3.33v7.2h-5.19Z" fill="#fff"/><path d="M375.25,61V54.21h-1.82V50.67h1.82V47.5h5.2v3.17h3v3.54h-3v6.26c0,1.1.55,1.6,1.53,1.6a3.83,3.83,0,0,0,1.48-.27v4a11,11,0,0,1-2.87.43C377.17,66.18,375.25,64.53,375.25,61Z" fill="#fff"/><path d="M385.29,46.55a2.86,2.86,0,1,1,2.84,2.67A2.71,2.71,0,0,1,385.29,46.55Zm.26,4.12h5.19V65.84h-5.19Z" fill="#fff"/><path d="M393.52,50.67h5.2V53.1a5.36,5.36,0,0,1,5-2.84c2.93,0,5,1.83,5,5.71v9.87h-5.2V57c0-1.71-.66-2.55-2.17-2.55s-2.58.92-2.58,2.87v8.5h-5.2Z" fill="#fff"/><path d="M410.34,65.84h5.17c.23,1.1.9,2,2.78,2a2.87,2.87,0,0,0,3.22-3.19V62.3a5.31,5.31,0,0,1-4.7,2.78c-3.54,0-6.44-2.61-6.44-7.28v-.23c0-4.47,2.88-7.31,6.44-7.31a4.94,4.94,0,0,1,4.7,2.55V50.67h5.19V64.56c0,4.53-3,6.9-8.41,6.9C413.13,71.46,410.75,69.29,410.34,65.84Zm11.32-8.07v-.2c0-2.09-1.08-3.42-3-3.42s-3,1.36-3,3.45v.23c0,2.09,1.1,3.42,3,3.42S421.66,59.92,421.66,57.77Z" fill="#fff"/><path d="M434,65.4V61a6.79,6.79,0,0,0,2.52.41c1.62,0,2.7-.73,2.7-2.87V45.1h6V58.56c0,5-2.55,7.54-7.42,7.54A7.89,7.89,0,0,1,434,65.4Z" fill="#fff"/><path d="M446.88,61.63c0-3.57,3-5,8.07-5h1.45v-.35c0-1.45-.35-2.4-2-2.4a1.85,1.85,0,0,0-2.06,1.79h-4.88c.24-3.65,3.11-5.45,7.26-5.45S461.56,52,461.56,56v9.84h-5.05V64.07A5,5,0,0,1,452,66.18C449.29,66.18,446.88,64.85,446.88,61.63Zm9.52-1.1V59.6H455c-2.08,0-3,.41-3,1.65,0,.87.58,1.42,1.8,1.42C455.3,62.67,456.4,61.83,456.4,60.53Z" fill="#fff"/><path d="M464.08,50.67h5.19V53.1a5.37,5.37,0,0,1,5-2.84c2.93,0,5,1.83,5,5.71v9.87H474V57c0-1.71-.67-2.55-2.18-2.55s-2.58.92-2.58,2.87v8.5h-5.19Z" fill="#fff"/><path d="M496.1,61.86H486V59.63l8.65-14.53h7.16V57.77h2.67v4.09h-2.67v4H496.1Zm.14-4.09V49.56l-4.64,8.21Z" fill="#fff"/><path d="M506.94,61V54.21h-1.83V50.67h1.83V47.5h5.19v3.17h3v3.54h-3v6.26a1.39,1.39,0,0,0,1.54,1.6,3.83,3.83,0,0,0,1.48-.27v4a11.09,11.09,0,0,1-2.87.43C508.86,66.18,506.94,64.53,506.94,61Z" fill="#fff"/><path d="M517.09,44h5.19V53.1a5.38,5.38,0,0,1,5-2.84c2.93,0,5,1.83,5,5.71v9.87H527V57c0-1.71-.67-2.55-2.17-2.55s-2.59.92-2.59,2.87v8.5h-5.19Z" fill="#fff"/><path d="M534.55,63.23a2.89,2.89,0,0,1,3-2.93,2.93,2.93,0,1,1,0,5.86A2.9,2.9,0,0,1,534.55,63.23Z" fill="#fff"/></g></g></g></svg>