<?xml version="1.0" encoding="utf-8"?>
<!-- Generator: Adobe Illustrator 23.1.0, SVG Export Plug-In . SVG Version: 6.00 Build 0)  -->
<svg version="1.1" id="Layer_1" xmlns="http://www.w3.org/2000/svg" xmlns:xlink="http://www.w3.org/1999/xlink" x="0px" y="0px"
	 viewBox="0 0 729 91" style="enable-background:new 0 0 729 91;" xml:space="preserve">
<style type="text/css">
	.st0{fill:none;}
	.st1{fill:#FFFFFF;}
</style>
<title>Asset 18</title>
<g>
	<g id="Layer_23">
		<rect x="0.5" y="0.5" class="st0" width="728" height="90"/>
	</g>
	<g id="Deduction_dedication._Find_the_perfect_tax_pro_for_you.">
		<path class="st1" d="M122.5,17.6h7.7c7.5,0,11.3,3.7,11.3,10.3v0.2c0,6.6-3.9,10.5-11.3,10.5h-7.6L122.5,17.6z M130,34
			c3.6,0,5.2-1.9,5.2-5.8V28c0-4-1.6-5.7-5.3-5.7h-1.3V34H130z"/>
		<path class="st1" d="M142.7,31.2v-0.2c0-5,3.7-8.1,8.3-8.1c4.2,0,7.8,2.4,7.8,8v1.3H148c-0.1,1.7,1.2,3.1,2.9,3.2
			c0.1,0,0.2,0,0.3,0c1.7,0,2.5-0.8,2.7-1.8h4.9c-0.5,3.5-3.1,5.5-7.8,5.5C146.2,39,142.7,36.2,142.7,31.2z M153.7,29.2
			c-0.1-1.9-1-2.9-2.7-2.9s-2.7,1-2.9,2.9L153.7,29.2z"/>
		<path class="st1" d="M159.9,31.1v-0.2c0-5.2,2.9-8,6.5-8c2-0.1,3.8,0.9,4.7,2.6v-9h5.3v22.2h-5.3v-2.5c-0.9,1.8-2.8,2.9-4.8,2.9
			C162.8,39,159.9,36.5,159.9,31.1z M171.3,31v-0.2c0-2.6-1.1-4-3-4s-3,1.3-3,4V31c0,2.6,1.1,3.9,3,3.9S171.3,33.7,171.3,31
			L171.3,31z"/>
		<path class="st1" d="M179,33.3v-10h5.3v9.2c0,1.7,0.7,2.6,2.2,2.6s2.6-0.9,2.6-2.9v-8.9h5.3v15.4h-5.3v-2.4
			c-0.9,1.8-2.9,2.9-4.9,2.7C181.2,39,179,37.2,179,33.3z"/>
		<path class="st1" d="M196.2,31.2v-0.2c0-5.1,3.7-8.1,8.2-8.1c3.8,0,7.3,1.6,7.5,6.3h-5c0-1.3-1.1-2.2-2.3-2.2c0,0-0.1,0-0.1,0
			c-1.9,0-3,1.3-3,3.9v0.2c0,2.7,1,4.1,3,4.1c1.4,0.1,2.6-1,2.7-2.5c0,0,0-0.1,0-0.1h4.7c-0.1,3.9-2.8,6.4-7.8,6.4
			C199.7,39,196.2,36.3,196.2,31.2z"/>
		<path class="st1" d="M214.5,33.7v-6.9h-1.9v-3.6h1.9v-3.2h5.3v3.2h3v3.6h-3v6.4c0,1.1,0.6,1.6,1.6,1.6c0.5,0,1-0.1,1.5-0.3v4
			c-1,0.3-1.9,0.4-2.9,0.4C216.4,39,214.5,37.3,214.5,33.7z"/>
		<path class="st1" d="M224.7,19.1c-0.1-1.6,1.1-3,2.7-3.1s3,1.1,3.1,2.7s-1.1,3-2.7,3.1c-0.1,0-0.1,0-0.2,0
			C226,21.9,224.7,20.7,224.7,19.1C224.7,19.1,224.7,19.1,224.7,19.1z M224.9,23.3h5.3v15.4h-5.3V23.3z"/>
		<path class="st1" d="M232.2,31.2v-0.2c0-5,3.7-8.1,8.4-8.1s8.4,3,8.4,7.9V31c0,5-3.7,8-8.4,8S232.2,36.1,232.2,31.2z M243.7,31.1
			v-0.2c0-2.6-1-4-3-4s-3.1,1.4-3.1,4V31c0,2.7,1,4.1,3.1,4.1S243.7,33.6,243.7,31.1z"/>
		<path class="st1" d="M250.9,23.3h5.3v2.5c1-1.9,3-3,5.1-2.9c3,0,5,1.9,5,5.8v10H261v-9c0-1.7-0.7-2.6-2.2-2.6s-2.6,0.9-2.6,2.9
			v8.6h-5.3V23.3z"/>
		<path class="st1" d="M273.4,31.1v-0.2c0-5.2,2.9-8,6.5-8c2-0.1,3.8,0.9,4.7,2.6v-9h5.3v22.2h-5.3v-2.5c-0.9,1.8-2.8,2.9-4.8,2.9
			C276.4,39,273.4,36.5,273.4,31.1z M284.9,31v-0.2c0-2.6-1.1-4-3-4s-3,1.3-3,4V31c0,2.6,1.1,3.9,3,3.9S284.9,33.7,284.9,31z"/>
		<path class="st1" d="M291.8,31.2v-0.2c0-5,3.7-8.1,8.3-8.1c4.2,0,7.8,2.4,7.8,8v1.3h-10.8c0.1,2,1.3,3.2,3.2,3.2s2.5-0.8,2.7-1.8
			h4.9c-0.5,3.5-3.2,5.5-7.8,5.5C295.4,39,291.8,36.2,291.8,31.2z M302.8,29.2c-0.1-1.9-1-2.9-2.7-2.9s-2.7,1-2.9,2.9L302.8,29.2z"
			/>
		<path class="st1" d="M309.1,31.1v-0.2c0-5.2,2.9-8,6.5-8c2-0.1,3.8,0.9,4.8,2.6v-9h5.3v22.2h-5.3v-2.5c-0.9,1.8-2.8,2.9-4.8,2.8
			C312,39,309.1,36.5,309.1,31.1z M320.5,31v-0.2c0-2.6-1.1-4-3-4s-3,1.3-3,4V31c0,2.6,1.1,3.9,3,3.9S320.5,33.7,320.5,31L320.5,31z
			"/>
		<path class="st1" d="M328.2,19.1c0-1.5,1.2-2.7,2.8-2.7c0,0,0.1,0,0.1,0c1.5-0.1,2.8,1.1,2.9,2.6c0.1,1.5-1.1,2.8-2.6,2.9
			c-0.1,0-0.2,0-0.3,0c-1.5,0.1-2.8-1.1-2.9-2.6C328.2,19.2,328.2,19.1,328.2,19.1z M328.4,23.3h5.3v15.4h-5.3V23.3z"/>
		<path class="st1" d="M335.7,31.2v-0.2c0-5.1,3.7-8.1,8.2-8.1c3.8,0,7.3,1.6,7.5,6.3h-4.9c-0.1-1.3-1.1-2.2-2.4-2.2
			c0,0-0.1,0-0.1,0c-1.9,0-2.9,1.3-2.9,3.9v0.2c0,2.7,1,4.1,3,4.1c1.4,0.1,2.6-1,2.7-2.5c0,0,0-0.1,0-0.1h4.7
			c-0.1,3.9-2.8,6.4-7.7,6.4C339.2,39,335.7,36.3,335.7,31.2z"/>
		<path class="st1" d="M352.5,34.4c0-3.6,3.1-5,8.2-5h1.5V29c0-1.5-0.4-2.5-2-2.5c-1-0.1-2,0.6-2.1,1.7c0,0.1,0,0.1,0,0.2h-5
			c0.2-3.7,3.1-5.5,7.4-5.5s7,1.7,7,5.8v10h-5.1v-1.8c-1,1.5-2.8,2.3-4.5,2.1C354.9,39,352.5,37.7,352.5,34.4z M362.1,33.3v-1h-1.4
			c-2.1,0-3.1,0.4-3.1,1.7c0,0.9,0.6,1.5,1.8,1.5C361,35.5,362.1,34.6,362.1,33.3z"/>
		<path class="st1" d="M370.6,33.7v-6.9h-1.9v-3.6h1.9v-3.2h5.3v3.2h3v3.6h-3v6.4c0,1.1,0.6,1.6,1.6,1.6c0.5,0,1-0.1,1.5-0.3v4
			c-0.9,0.3-1.9,0.4-2.9,0.4C372.5,39,370.6,37.3,370.6,33.7z"/>
		<path class="st1" d="M380.8,19.1c0-1.5,1.2-2.7,2.8-2.7c0,0,0.1,0,0.1,0c1.5-0.1,2.8,1.1,2.9,2.6c0.1,1.5-1.1,2.8-2.6,2.9
			c-0.1,0-0.2,0-0.3,0c-1.5,0.1-2.8-1.1-2.9-2.6C380.8,19.2,380.8,19.1,380.8,19.1z M381,23.3h5.3v15.4H381L381,23.3z"/>
		<path class="st1" d="M388.3,31.2v-0.2c0-5,3.7-8.1,8.5-8.1s8.4,3,8.4,7.9V31c0,5-3.7,8-8.4,8S388.3,36.1,388.3,31.2z M399.8,31.1
			v-0.2c0-2.6-1-4-3-4s-3.1,1.4-3.1,4V31c0,2.7,1,4.1,3.1,4.1S399.8,33.6,399.8,31.1L399.8,31.1z"/>
		<path class="st1" d="M407,23.3h5.3v2.5c1-1.9,3-3,5.1-2.9c3,0,5,1.9,5,5.8v10h-5.3v-9c0-1.7-0.7-2.6-2.2-2.6s-2.6,0.9-2.6,2.9v8.6
			H407V23.3z"/>
		<path class="st1" d="M424.7,36c0-1.6,1.3-3,2.9-3c0,0,0.1,0,0.1,0c1.7,0,3,1.3,3,3s-1.3,3-3,3c-1.6,0-3-1.3-3-2.9
			C424.7,36.1,424.7,36,424.7,36z"/>
		<path class="st1" d="M122.5,49.1h14.2v4.7h-8.2v4.5h6.5v4.4h-6.5v7.5h-6.1L122.5,49.1z"/>
		<path class="st1" d="M138.3,50.5c0-1.5,1.2-2.7,2.8-2.7c0,0,0.1,0,0.1,0c1.5-0.1,2.8,1.1,2.9,2.6c0.1,1.5-1.1,2.8-2.6,2.9
			c-0.1,0-0.2,0-0.3,0c-1.5,0.1-2.8-1.1-2.9-2.6C138.3,50.6,138.3,50.6,138.3,50.5z M138.5,54.7h5.3v15.4h-5.3V54.7z"/>
		<path class="st1" d="M146.6,54.7h5.3v2.5c1-1.9,3-3,5.1-2.9c3,0,5,1.9,5,5.8v10h-5.3v-9c0-1.7-0.7-2.6-2.2-2.6s-2.6,0.9-2.6,2.9
			v8.6h-5.3L146.6,54.7z"/>
		<path class="st1" d="M163.8,62.6v-0.2c0-5.2,2.9-8,6.5-8c2-0.1,3.8,0.9,4.7,2.6V48h5.3v22.1h-5.3v-2.5c-0.9,1.8-2.8,2.9-4.8,2.9
			C166.7,70.5,163.8,67.9,163.8,62.6z M175.2,62.5v-0.2c0-2.6-1.1-4-3-4s-3,1.3-3,4v0.2c0,2.6,1.1,3.9,3,3.9S175.2,65.1,175.2,62.5z
			"/>
		<path class="st1" d="M189.1,65.2v-6.9h-1.9v-3.6h1.9v-3.2h5.3v3.2h3v3.6h-3v6.4c0,1.1,0.6,1.6,1.6,1.6c0.5,0,1-0.1,1.5-0.3v4
			c-0.9,0.3-1.9,0.4-2.9,0.4C191,70.5,189.1,68.8,189.1,65.2z"/>
		<path class="st1" d="M199.4,48h5.3v9.2c1-1.9,3-3,5.1-2.9c3,0,5,1.9,5,5.8v10h-5.2v-9c0-1.7-0.7-2.6-2.2-2.6s-2.6,0.9-2.6,2.9v8.6
			h-5.3V48z"/>
		<path class="st1" d="M216.5,62.6v-0.2c0-5,3.7-8.1,8.3-8.1c4.2,0,7.8,2.4,7.8,8v1.4h-10.8c-0.1,1.7,1.2,3.1,2.9,3.2
			c0.1,0,0.2,0,0.3,0c1.7,0,2.5-0.8,2.7-1.8h4.9c-0.5,3.5-3.1,5.4-7.8,5.4C220,70.5,216.5,67.7,216.5,62.6z M227.5,60.7
			c-0.1-1.8-1-2.9-2.7-2.9s-2.7,1-2.9,2.9H227.5z"/>
		<path class="st1" d="M239.9,54.7h5.3V57c1-1.7,2.8-2.7,4.8-2.7c3.6,0,6.5,2.7,6.5,8v0.2c0,5.3-2.9,8-6.5,8c-2,0.1-3.8-0.9-4.8-2.6
			v7.4h-5.3V54.7z M251.1,62.5v-0.2c0-2.7-1.2-4-3-4s-3.1,1.4-3.1,4v0.2c0,2.6,1.1,3.9,3.1,3.9S251.1,65.1,251.1,62.5z"/>
		<path class="st1" d="M257.5,62.6v-0.2c0-5,3.7-8.1,8.3-8.1c4.2,0,7.8,2.4,7.8,8v1.4h-10.8c0.1,2,1.3,3.2,3.2,3.2s2.5-0.8,2.7-1.8
			h5c-0.5,3.5-3.1,5.4-7.8,5.4C261.1,70.5,257.5,67.7,257.5,62.6z M268.5,60.7c-0.1-1.8-1-2.9-2.7-2.9s-2.7,1-2.9,2.9H268.5z"/>
		<path class="st1" d="M275.5,54.7h5.3v3.1c0.7-2.1,2.8-3.5,5-3.3v4.9c-3.2-0.1-5,0.9-5,3.4v7.3h-5.3V54.7z"/>
		<path class="st1" d="M288.8,58.3h-1.9v-3.6h1.9v-1.4c0-3.8,2.4-5.7,6-5.7c0.8,0,1.6,0.1,2.4,0.3v3.9c-0.5-0.1-1-0.2-1.5-0.2
			c-0.8-0.1-1.6,0.5-1.7,1.3c0,0.1,0,0.2,0,0.3v1.3h3.1v3.6H294v11.8h-5.3L288.8,58.3z"/>
		<path class="st1" d="M297.5,62.6v-0.2c0-5,3.7-8.1,8.3-8.1c4.2,0,7.8,2.4,7.8,8v1.4h-10.8c0.1,2,1.3,3.2,3.2,3.2s2.5-0.8,2.7-1.8
			h5c-0.5,3.5-3.1,5.4-7.8,5.4C301.1,70.5,297.5,67.7,297.5,62.6z M308.5,60.7c-0.1-1.8-1-2.9-2.7-2.9s-2.7,1-2.9,2.9H308.5z"/>
		<path class="st1" d="M314.7,62.6v-0.2c0-5.1,3.7-8.1,8.2-8.1c3.8,0,7.2,1.7,7.5,6.3h-5c0-1.3-1.1-2.3-2.3-2.2c-0.1,0-0.1,0-0.2,0
			c-1.9,0-2.9,1.3-2.9,3.9v0.2c0,2.7,1,4.1,3,4.1c1.4,0.1,2.6-1,2.7-2.4c0,0,0-0.1,0-0.1h4.7c-0.1,3.9-2.8,6.4-7.7,6.4
			C318.2,70.5,314.7,67.8,314.7,62.6z"/>
		<path class="st1" d="M333,65.2v-6.9h-1.9v-3.6h1.9v-3.2h5.3v3.2h3v3.6h-3v6.4c0,1.1,0.6,1.6,1.6,1.6c0.5,0,1-0.1,1.5-0.3v4
			c-0.9,0.3-1.9,0.4-2.9,0.4C334.9,70.5,333,68.8,333,65.2z"/>
		<path class="st1" d="M349.4,65.2v-6.9h-1.9v-3.6h1.9v-3.2h5.3v3.2h3v3.6h-3v6.4c0,1.1,0.6,1.6,1.6,1.6c0.5,0,1-0.1,1.5-0.3v4
			c-1,0.3-1.9,0.4-2.9,0.4C351.3,70.5,349.4,68.8,349.4,65.2z"/>
		<path class="st1" d="M358.8,65.9c0-3.6,3.1-5,8.2-5h1.5v-0.3c0-1.5-0.4-2.5-2-2.5c-1-0.1-2,0.7-2.1,1.7c0,0,0,0.1,0,0.1h-5
			c0.2-3.7,3.2-5.5,7.4-5.5s7,1.7,7,5.8v10h-5.1v-1.8c-1,1.5-2.8,2.3-4.6,2.2C361.3,70.5,358.8,69.1,358.8,65.9z M368.5,64.7v-1
			h-1.4c-2.1,0-3.1,0.4-3.1,1.7c0,0.9,0.6,1.4,1.8,1.4C367.4,66.9,368.5,66.1,368.5,64.7z"/>
		<path class="st1" d="M380.2,62.3l-4.8-7.6h6.1l2.4,4.1l2.3-4.1h5.4l-4.9,7.2l5.3,8.3H386l-2.7-4.6l-2.8,4.6h-5.4L380.2,62.3z"/>
		<path class="st1" d="M398.9,54.7h5.3V57c1-1.7,2.8-2.7,4.8-2.7c3.6,0,6.5,2.7,6.5,8v0.2c0,5.3-2.9,8-6.5,8c-2,0.1-3.8-0.9-4.8-2.6
			v7.4h-5.3V54.7z M410.1,62.5v-0.2c0-2.7-1.2-4-3-4s-3.1,1.4-3.1,4v0.2c0,2.6,1.1,3.9,3.1,3.9S410.1,65.1,410.1,62.5L410.1,62.5z"
			/>
		<path class="st1" d="M417.4,54.7h5.3v3.1c0.7-2.1,2.8-3.5,5-3.3v4.9c-3.2-0.1-5,0.9-5,3.4v7.3h-5.3V54.7z"/>
		<path class="st1" d="M428.6,62.6v-0.2c0-5,3.7-8.1,8.5-8.1s8.4,3,8.4,7.9v0.2c0,5-3.7,8-8.4,8S428.6,67.6,428.6,62.6z M440.1,62.5
			v-0.2c0-2.6-1-4-3-4s-3.1,1.4-3.1,4v0.2c0,2.7,1,4.1,3.1,4.1S440.1,65.1,440.1,62.5z"/>
		<path class="st1" d="M453.4,58.3h-2v-3.6h2v-1.4c0-3.8,2.4-5.7,6-5.7c0.8,0,1.6,0.1,2.4,0.3v3.9c-0.5-0.1-1-0.2-1.4-0.2
			c-0.8-0.1-1.6,0.5-1.8,1.3c0,0.1,0,0.2,0,0.4v1.3h3.1v3.6h-3.1v11.8h-5.2L453.4,58.3z"/>
		<path class="st1" d="M462.2,62.6v-0.2c0-5,3.7-8.1,8.5-8.1s8.4,3,8.4,7.9v0.2c0,5-3.7,8-8.4,8S462.2,67.6,462.2,62.6z M473.7,62.5
			v-0.2c0-2.6-1-4-3-4s-3.1,1.4-3.1,4v0.2c0,2.7,1,4.1,3.1,4.1S473.7,65.1,473.7,62.5z"/>
		<path class="st1" d="M480.9,54.7h5.3v3.1c0.7-2.1,2.8-3.5,5-3.3v4.9c-3.2-0.1-5,0.9-5,3.4v7.3h-5.3V54.7z"/>
		<path class="st1" d="M503.3,68.6l-6.2-13.8h5.7l3.2,8.2l3-8.2h5l-8.2,20.6h-5L503.3,68.6z"/>
		<path class="st1" d="M513.7,62.6v-0.2c0-5,3.7-8.1,8.5-8.1s8.4,3,8.4,7.9v0.2c0,5-3.7,8-8.4,8S513.7,67.6,513.7,62.6z M525.2,62.5
			v-0.2c0-2.6-1-4-3-4s-3.1,1.4-3.1,4v0.2c0,2.7,1,4.1,3.1,4.1S525.2,65.1,525.2,62.5z"/>
		<path class="st1" d="M532.3,64.8v-10h5.3V64c0,1.7,0.7,2.6,2.2,2.6s2.6-0.9,2.6-2.9v-8.9h5.3v15.4h-5.3v-2.4
			c-0.9,1.8-2.8,2.9-4.9,2.7C534.5,70.5,532.3,68.7,532.3,64.8z"/>
		<path class="st1" d="M550.1,67.5c0-1.6,1.3-3,2.9-3c0,0,0.1,0,0.1,0c1.7,0,3,1.3,3,3s-1.3,3-3,3c-1.6,0-3-1.3-3-2.9
			C550.1,67.6,550.1,67.5,550.1,67.5z"/>
	</g>
</g>
</svg>
