<svg xmlns="http://www.w3.org/2000/svg" viewBox="0 0 729 91"><title>Asset 18</title><g id="Layer_2" data-name="Layer 2"><g id="Layer_23" data-name="Layer 23"><rect x="0.5" y="0.5" width="728" height="90" fill="none" stroke="#000" stroke-miterlimit="10"/></g><g id="Deduction_dedication._Find_the_perfect_tax_pro_for_you." data-name="Deduction dedication. Find the perfect tax pro for you."><path d="M122.53,17.62h7.66c7.48,0,11.28,3.74,11.28,10.28v.23c0,6.57-3.89,10.55-11.31,10.55h-7.63ZM130,34c3.6,0,5.19-1.88,5.19-5.8V28c0-4-1.59-5.72-5.25-5.72H128.6V34Z" fill="#fff"/><path d="M142.68,31.17v-.24c0-4.95,3.68-8.07,8.33-8.07,4.21,0,7.83,2.42,7.83,8V32.2H148a3.07,3.07,0,0,0,3.21,3.21c1.73,0,2.47-.8,2.68-1.83h4.94c-.47,3.48-3.15,5.45-7.8,5.45C146.21,39,142.68,36.2,142.68,31.17Zm11-2c-.09-1.85-1-2.88-2.71-2.88s-2.68,1-2.95,2.88Z" fill="#fff"/><path d="M159.9,31.14V30.9c0-5.24,2.89-8,6.54-8a5,5,0,0,1,4.74,2.59V16.5h5.27V38.68h-5.27V36.17a5.18,5.18,0,0,1-4.8,2.86C162.82,39,159.9,36.47,159.9,31.14Zm11.43-.09v-.24c0-2.59-1.09-4-3-4s-3,1.32-3,4v.24c0,2.59,1.15,3.91,3,3.91S171.33,33.67,171.33,31.05Z" fill="#fff"/><path d="M179,33.32v-10h5.27v9.19c0,1.74.68,2.59,2.18,2.59s2.62-.94,2.62-2.91V23.27h5.27V38.68h-5.27V36.29A5.07,5.07,0,0,1,184.2,39C181.23,39,179,37.2,179,33.32Z" fill="#fff"/><path d="M196.21,31.17v-.24c0-5.12,3.69-8.07,8.22-8.07,3.77,0,7.25,1.65,7.54,6.33H207A2.27,2.27,0,0,0,204.55,27c-1.86,0-3,1.33-3,3.92v.24c0,2.68,1,4.06,3,4.06a2.57,2.57,0,0,0,2.68-2.56h4.74c-.15,3.89-2.77,6.42-7.75,6.42C199.72,39,196.21,36.35,196.21,31.17Z" fill="#fff"/><path d="M214.47,33.73V26.87h-1.85v-3.6h1.85V20.06h5.28v3.21h3v3.6h-3v6.36c0,1.12.55,1.62,1.56,1.62a3.93,3.93,0,0,0,1.5-.27v4a11.4,11.4,0,0,1-2.92.44C216.42,39,214.47,37.35,214.47,33.73Z" fill="#fff"/><path d="M224.66,19.09a2.91,2.91,0,1,1,2.89,2.71A2.76,2.76,0,0,1,224.66,19.09Zm.27,4.18h5.27V38.68h-5.27Z" fill="#fff"/><path d="M232.2,31.17v-.24c0-4.95,3.68-8.07,8.45-8.07s8.4,3,8.4,7.92V31c0,5-3.68,8-8.43,8S232.2,36.14,232.2,31.17Zm11.49-.09v-.24c0-2.59-1-4-3-4s-3.06,1.38-3.06,4V31c0,2.65,1,4.09,3.06,4.09S243.69,33.64,243.69,31.08Z" fill="#fff"/><path d="M250.9,23.27h5.27v2.48a5.46,5.46,0,0,1,5.07-2.89c3,0,5,1.86,5,5.8v10H261v-9c0-1.73-.67-2.59-2.2-2.59s-2.63.94-2.63,2.92v8.63H250.9Z" fill="#fff"/><path d="M273.43,31.14V30.9c0-5.24,2.89-8,6.54-8a5,5,0,0,1,4.74,2.59V16.5H290V38.68h-5.27V36.17a5.18,5.18,0,0,1-4.8,2.86C276.35,39,273.43,36.47,273.43,31.14Zm11.43-.09v-.24c0-2.59-1.09-4-3-4s-3,1.32-3,4v.24c0,2.59,1.15,3.91,3,3.91S284.86,33.67,284.86,31.05Z" fill="#fff"/><path d="M291.84,31.17v-.24c0-4.95,3.68-8.07,8.33-8.07,4.21,0,7.84,2.42,7.84,8V32.2H297.17c.15,2,1.32,3.21,3.21,3.21s2.47-.8,2.68-1.83H308c-.48,3.48-3.16,5.45-7.81,5.45C295.37,39,291.84,36.2,291.84,31.17Zm11-2c-.09-1.85-1-2.88-2.71-2.88s-2.68,1-2.94,2.88Z" fill="#fff"/><path d="M309.07,31.14V30.9c0-5.24,2.88-8,6.53-8a5,5,0,0,1,4.75,2.59V16.5h5.27V38.68h-5.27V36.17A5.21,5.21,0,0,1,315.54,39C312,39,309.07,36.47,309.07,31.14Zm11.42-.09v-.24c0-2.59-1.09-4-3-4s-3,1.32-3,4v.24c0,2.59,1.14,3.91,3,3.91S320.49,33.67,320.49,31.05Z" fill="#fff"/><path d="M328.18,19.09a2.75,2.75,0,0,1,2.88-2.74,2.73,2.73,0,1,1,0,5.45A2.73,2.73,0,0,1,328.18,19.09Zm.26,4.18h5.28V38.68h-5.28Z" fill="#fff"/><path d="M335.72,31.17v-.24c0-5.12,3.68-8.07,8.21-8.07,3.77,0,7.25,1.65,7.54,6.33h-4.94A2.29,2.29,0,0,0,344.05,27c-1.85,0-2.94,1.33-2.94,3.92v.24c0,2.68,1,4.06,3,4.06a2.57,2.57,0,0,0,2.68-2.56h4.74c-.15,3.89-2.77,6.42-7.74,6.42C339.22,39,335.72,36.35,335.72,31.17Z" fill="#fff"/><path d="M352.47,34.41c0-3.63,3.07-5,8.19-5h1.47V29c0-1.48-.35-2.45-2-2.45A1.9,1.9,0,0,0,358,28.4h-4.95c.24-3.71,3.15-5.54,7.37-5.54s6.95,1.74,6.95,5.83v10h-5.13v-1.8A5,5,0,0,1,357.69,39C354.92,39,352.47,37.67,352.47,34.41Zm9.66-1.12v-.95h-1.38c-2.12,0-3.06.42-3.06,1.68,0,.89.59,1.45,1.82,1.45C361,35.47,362.13,34.61,362.13,33.29Z" fill="#fff"/><path d="M370.56,33.73V26.87H368.7v-3.6h1.86V20.06h5.27v3.21h3v3.6h-3v6.36c0,1.12.56,1.62,1.56,1.62a3.93,3.93,0,0,0,1.5-.27v4A11.38,11.38,0,0,1,376,39C372.5,39,370.56,37.35,370.56,33.73Z" fill="#fff"/><path d="M380.75,19.09a2.75,2.75,0,0,1,2.88-2.74,2.73,2.73,0,1,1,0,5.45A2.72,2.72,0,0,1,380.75,19.09Zm.26,4.18h5.27V38.68H381Z" fill="#fff"/><path d="M388.29,31.17v-.24c0-4.95,3.68-8.07,8.45-8.07s8.39,3,8.39,7.92V31c0,5-3.68,8-8.42,8S388.29,36.14,388.29,31.17Zm11.48-.09v-.24c0-2.59-1-4-3-4s-3.07,1.38-3.07,4V31c0,2.65,1,4.09,3.07,4.09S399.77,33.64,399.77,31.08Z" fill="#fff"/><path d="M407,23.27h5.27v2.48a5.43,5.43,0,0,1,5.06-2.89c3,0,5,1.86,5,5.8v10h-5.27v-9c0-1.73-.68-2.59-2.21-2.59s-2.62.94-2.62,2.92v8.63H407Z" fill="#fff"/><path d="M424.71,36a2.94,2.94,0,0,1,3-3,3,3,0,1,1,0,6A2.94,2.94,0,0,1,424.71,36Z" fill="#fff"/><path d="M122.53,49.07h14.23v4.68H128.6v4.48h6.51v4.44H128.6v7.46h-6.07Z" fill="#fff"/><path d="M138.26,50.54a2.75,2.75,0,0,1,2.88-2.74,2.73,2.73,0,1,1,0,5.45A2.73,2.73,0,0,1,138.26,50.54Zm.26,4.18h5.27V70.13h-5.27Z" fill="#fff"/><path d="M146.62,54.72h5.27V57.2A5.46,5.46,0,0,1,157,54.31c3,0,5,1.86,5,5.8v10h-5.27v-9c0-1.73-.67-2.59-2.21-2.59s-2.62.94-2.62,2.92v8.63h-5.27Z" fill="#fff"/><path d="M163.79,62.59v-.24c0-5.24,2.89-8,6.54-8a5,5,0,0,1,4.74,2.59V48h5.27V70.13h-5.27V67.62a5.19,5.19,0,0,1-4.8,2.86C166.71,70.48,163.79,67.92,163.79,62.59Zm11.43-.09v-.24c0-2.59-1.09-4-3-4s-3,1.32-3,4v.24c0,2.59,1.15,3.91,3,3.91S175.22,65.12,175.22,62.5Z" fill="#fff"/><path d="M189.09,65.18V58.32h-1.86v-3.6h1.86V51.51h5.27v3.21h3v3.6h-3v6.36c0,1.12.56,1.62,1.56,1.62a3.93,3.93,0,0,0,1.5-.27v4a11.31,11.31,0,0,1-2.91.44C191,70.48,189.09,68.8,189.09,65.18Z" fill="#fff"/><path d="M199.4,48h5.27V57.2a5.43,5.43,0,0,1,5.06-2.89c3,0,5,1.86,5,5.8v10H209.5v-9c0-1.73-.68-2.59-2.21-2.59s-2.62.94-2.62,2.92v8.63H199.4Z" fill="#fff"/><path d="M216.51,62.62v-.24c0-5,3.68-8.07,8.33-8.07,4.21,0,7.83,2.42,7.83,7.95v1.39H221.84a3.07,3.07,0,0,0,3.21,3.21c1.73,0,2.47-.8,2.68-1.83h4.94c-.47,3.48-3.15,5.45-7.8,5.45C220,70.48,216.51,67.65,216.51,62.62Zm11-1.95c-.09-1.85-1-2.88-2.71-2.88s-2.68,1-2.94,2.88Z" fill="#fff"/><path d="M239.86,54.72h5.27V57a5.43,5.43,0,0,1,4.8-2.71c3.59,0,6.51,2.71,6.51,8v.24c0,5.3-2.92,8-6.54,8a5.09,5.09,0,0,1-4.77-2.62v7.42h-5.27Zm11.22,7.81v-.24c0-2.71-1.18-4-3-4s-3.07,1.38-3.07,4v.24c0,2.62,1.15,3.94,3.07,3.94S251.08,65.06,251.08,62.53Z" fill="#fff"/><path d="M257.53,62.62v-.24c0-5,3.68-8.07,8.33-8.07,4.21,0,7.84,2.42,7.84,7.95v1.39H262.86c.15,2,1.32,3.21,3.21,3.21s2.47-.8,2.68-1.83h4.95c-.47,3.48-3.15,5.45-7.81,5.45C261.06,70.48,257.53,67.65,257.53,62.62Zm11-1.95c-.09-1.85-1-2.88-2.71-2.88s-2.68,1-2.94,2.88Z" fill="#fff"/><path d="M275.52,54.72h5.27v3.07a4.86,4.86,0,0,1,5-3.27v4.92c-3.21-.09-5,.91-5,3.38v7.31h-5.27Z" fill="#fff"/><path d="M288.77,58.32h-1.94v-3.6h1.94V53.37c0-3.83,2.39-5.66,6-5.66a9.31,9.31,0,0,1,2.42.33V51.9a4.84,4.84,0,0,0-1.45-.21A1.55,1.55,0,0,0,294,53.37v1.35h3.12v3.6H294V70.13h-5.25Z" fill="#fff"/><path d="M297.55,62.62v-.24c0-5,3.68-8.07,8.33-8.07,4.22,0,7.84,2.42,7.84,7.95v1.39H302.88c.15,2,1.33,3.21,3.21,3.21s2.47-.8,2.68-1.83h5c-.47,3.48-3.15,5.45-7.81,5.45C301.08,70.48,297.55,67.65,297.55,62.62Zm11-1.95c-.08-1.85-1-2.88-2.71-2.88s-2.67,1-2.94,2.88Z" fill="#fff"/><path d="M314.72,62.62v-.24c0-5.12,3.68-8.07,8.22-8.07,3.77,0,7.24,1.65,7.54,6.33h-5a2.28,2.28,0,0,0-2.48-2.24c-1.85,0-2.94,1.33-2.94,3.92v.24c0,2.68,1,4.06,3,4.06a2.56,2.56,0,0,0,2.68-2.56h4.74c-.14,3.89-2.76,6.42-7.74,6.42C318.22,70.48,314.72,67.8,314.72,62.62Z" fill="#fff"/><path d="M333,65.18V58.32h-1.86v-3.6H333V51.51h5.27v3.21h3v3.6h-3v6.36c0,1.12.56,1.62,1.56,1.62a3.93,3.93,0,0,0,1.5-.27v4a11.31,11.31,0,0,1-2.91.44C334.92,70.48,333,68.8,333,65.18Z" fill="#fff"/><path d="M349.35,65.18V58.32H347.5v-3.6h1.85V51.51h5.27v3.21h3v3.6h-3v6.36c0,1.12.56,1.62,1.56,1.62a4,4,0,0,0,1.51-.27v4a11.4,11.4,0,0,1-2.92.44C351.3,70.48,349.35,68.8,349.35,65.18Z" fill="#fff"/><path d="M358.83,65.86c0-3.63,3.07-5,8.19-5h1.47v-.35c0-1.48-.35-2.45-2-2.45a1.9,1.9,0,0,0-2.09,1.83h-4.95c.24-3.71,3.16-5.54,7.37-5.54s6.95,1.74,6.95,5.83v10h-5.13v-1.8a5,5,0,0,1-4.56,2.15C361.28,70.48,358.83,69.12,358.83,65.86Zm9.66-1.12v-.95h-1.38c-2.12,0-3.06.42-3.06,1.68,0,.89.59,1.45,1.82,1.45C367.38,66.92,368.49,66.06,368.49,64.74Z" fill="#fff"/><path d="M380.19,62.29l-4.8-7.57h6.06l2.39,4.07,2.32-4.07h5.42l-4.86,7.16,5.33,8.25H386l-2.74-4.6-2.8,4.6h-5.39Z" fill="#fff"/><path d="M398.89,54.72h5.27V57a5.43,5.43,0,0,1,4.8-2.71c3.59,0,6.51,2.71,6.51,8v.24c0,5.3-2.92,8-6.54,8a5.07,5.07,0,0,1-4.77-2.62v7.42h-5.27Zm11.22,7.81v-.24c0-2.71-1.18-4-3-4s-3.06,1.38-3.06,4v.24c0,2.62,1.15,3.94,3.06,3.94S410.11,65.06,410.11,62.53Z" fill="#fff"/><path d="M417.38,54.72h5.27v3.07a4.85,4.85,0,0,1,5-3.27v4.92c-3.21-.09-5,.91-5,3.38v7.31h-5.27Z" fill="#fff"/><path d="M428.57,62.62v-.24c0-5,3.68-8.07,8.45-8.07s8.4,3,8.4,7.92v.24c0,5-3.68,8-8.43,8S428.57,67.59,428.57,62.62Zm11.49-.09v-.24c0-2.59-1-4-3-4s-3.06,1.38-3.06,4v.24c0,2.65,1,4.09,3.06,4.09S440.06,65.09,440.06,62.53Z" fill="#fff"/><path d="M453.43,58.32h-1.95v-3.6h1.95V53.37c0-3.83,2.38-5.66,6-5.66a9.24,9.24,0,0,1,2.42.33V51.9a4.77,4.77,0,0,0-1.44-.21,1.55,1.55,0,0,0-1.77,1.68v1.35h3.12v3.6h-3.12V70.13h-5.24Z" fill="#fff"/><path d="M462.2,62.62v-.24c0-5,3.68-8.07,8.46-8.07s8.39,3,8.39,7.92v.24c0,5-3.68,8-8.43,8S462.2,67.59,462.2,62.62Zm11.49-.09v-.24c0-2.59-1-4-3-4s-3.07,1.38-3.07,4v.24c0,2.65,1,4.09,3.07,4.09S473.69,65.09,473.69,62.53Z" fill="#fff"/><path d="M480.9,54.72h5.27v3.07a4.86,4.86,0,0,1,5-3.27v4.92c-3.21-.09-5,.91-5,3.38v7.31H480.9Z" fill="#fff"/><path d="M503.26,68.56,497.1,54.72h5.71L506,62.94l2.95-8.22h5l-8.24,20.56h-5Z" fill="#fff"/><path d="M513.68,62.62v-.24c0-5,3.68-8.07,8.45-8.07s8.4,3,8.4,7.92v.24c0,5-3.69,8-8.43,8S513.68,67.59,513.68,62.62Zm11.49-.09v-.24c0-2.59-1-4-3-4s-3.06,1.38-3.06,4v.24c0,2.65,1,4.09,3.06,4.09S525.17,65.09,525.17,62.53Z" fill="#fff"/><path d="M532.26,64.77v-10h5.28v9.19c0,1.74.67,2.59,2.17,2.59s2.62-.94,2.62-2.91V54.72h5.28V70.13h-5.28V67.74a5,5,0,0,1-4.88,2.74C534.47,70.48,532.26,68.65,532.26,64.77Z" fill="#fff"/><path d="M550.08,67.48a2.94,2.94,0,0,1,3-3,3,3,0,1,1,0,6A2.94,2.94,0,0,1,550.08,67.48Z" fill="#fff"/></g></g></svg>