<svg xmlns="http://www.w3.org/2000/svg" viewBox="0 0 728 90"><title>H191</title><g id="Layer_2" data-name="Layer 2"><g id="Rect"><rect width="728" height="90" fill="none"/></g><g id="Drop_off_your_taxes._No_appointment_needed." data-name="Drop off your taxes.  No appointment needed."><path d="M118.13,16.72h8C134,16.72,138,20.64,138,27.49v.25c0,6.88-4.08,11.05-11.85,11.05h-8Zm7.81,17.19c3.77,0,5.43-2,5.43-6.08v-.24c0-4.2-1.66-6-5.49-6h-1.39V33.91Z" fill="#fff"/><path d="M140.11,22.65h5.52v3.21a5.09,5.09,0,0,1,5.22-3.43v5.16c-3.37-.1-5.22.95-5.22,3.55v7.65h-5.52Z" fill="#fff"/><path d="M151.84,30.92v-.25c0-5.18,3.85-8.45,8.86-8.45s8.79,3.17,8.79,8.3v.25c0,5.24-3.86,8.39-8.83,8.39S151.84,36.14,151.84,30.92Zm12-.09v-.25c0-2.72-1.09-4.23-3.18-4.23s-3.21,1.45-3.21,4.17v.25c0,2.77,1.08,4.29,3.21,4.29S163.88,33.51,163.88,30.83Z" fill="#fff"/><path d="M171.44,22.65H177v2.41a5.68,5.68,0,0,1,5-2.84c3.77,0,6.82,2.84,6.82,8.36v.25c0,5.55-3.05,8.33-6.85,8.33a5.31,5.31,0,0,1-5-2.75v7.78h-5.52Zm11.76,8.18v-.25c0-2.84-1.24-4.2-3.18-4.2s-3.21,1.45-3.21,4.17v.25c0,2.74,1.2,4.13,3.21,4.13S183.2,33.48,183.2,30.83Z" fill="#fff"/><path d="M195.57,30.92v-.25c0-5.18,3.86-8.45,8.86-8.45s8.8,3.17,8.8,8.3v.25c0,5.24-3.86,8.39-8.83,8.39S195.57,36.14,195.57,30.92Zm12-.09v-.25c0-2.72-1.08-4.23-3.18-4.23s-3.21,1.45-3.21,4.17v.25c0,2.77,1.08,4.29,3.21,4.29S207.61,33.51,207.61,30.83Z" fill="#fff"/><path d="M216,26.41h-2V22.65h2V21.41c0-4,2.47-5.89,6.29-5.89a9.07,9.07,0,0,1,2.47.31v4a4.92,4.92,0,0,0-1.48-.22,1.62,1.62,0,0,0-1.79,1.76v1.24h4.69V21.23c0-4,2.53-5.93,6.33-5.93a10.06,10.06,0,0,1,2.53.34v4a5.17,5.17,0,0,0-1.51-.21,1.61,1.61,0,0,0-1.82,1.76v1.42H235v3.76h-3.27V38.79h-5.53V26.41H221.5V38.79H216Z" fill="#fff"/><path d="M247.49,37.16,241,22.65h6l3.33,8.61,3.09-8.61h5.28l-8.65,21.54H244.8Z" fill="#fff"/><path d="M258.42,30.92v-.25c0-5.18,3.85-8.45,8.85-8.45s8.8,3.17,8.8,8.3v.25c0,5.24-3.86,8.39-8.83,8.39S258.42,36.14,258.42,30.92Zm12-.09v-.25c0-2.72-1.08-4.23-3.18-4.23s-3.21,1.45-3.21,4.17v.25c0,2.77,1.08,4.29,3.21,4.29S270.45,33.51,270.45,30.83Z" fill="#fff"/><path d="M277.89,33.17V22.65h5.53v9.63c0,1.82.71,2.71,2.28,2.71s2.75-1,2.75-3.05V22.65H294V38.79h-5.52v-2.5a5.31,5.31,0,0,1-5.13,2.87C280.21,39.16,277.89,37.25,277.89,33.17Z" fill="#fff"/><path d="M296.78,22.65h5.53v3.21a5.08,5.08,0,0,1,5.21-3.43v5.16c-3.36-.1-5.21.95-5.21,3.55v7.65h-5.53Z" fill="#fff"/><path d="M315.89,33.61v-7.2h-1.95V22.65h1.95V19.28h5.52v3.37h3.18v3.76h-3.18v6.67a1.48,1.48,0,0,0,1.64,1.7,4.07,4.07,0,0,0,1.57-.28v4.2a11.83,11.83,0,0,1-3.05.46C317.92,39.16,315.89,37.4,315.89,33.61Z" fill="#fff"/><path d="M325.83,34.32c0-3.8,3.21-5.28,8.58-5.28H336v-.37c0-1.55-.37-2.57-2.13-2.57A2,2,0,0,0,331.63,28h-5.19c.25-3.89,3.31-5.8,7.72-5.8s7.29,1.82,7.29,6.11V38.79h-5.38V36.91a5.3,5.3,0,0,1-4.78,2.25C328.39,39.16,325.83,37.74,325.83,34.32ZM336,33.14v-1H334.5c-2.22,0-3.21.44-3.21,1.76,0,.93.62,1.52,1.91,1.52C334.78,35.43,336,34.53,336,33.14Z" fill="#fff"/><path d="M348.2,30.58l-5-7.93h6.36l2.5,4.26,2.44-4.26h5.68l-5.09,7.5,5.58,8.64h-6.35L351.41,34l-2.93,4.81h-5.65Z" fill="#fff"/><path d="M359.93,30.92v-.25c0-5.18,3.86-8.45,8.74-8.45,4.41,0,8.21,2.53,8.21,8.33V32H365.52c.15,2.13,1.39,3.37,3.36,3.37s2.6-.84,2.81-1.92h5.19c-.49,3.64-3.3,5.71-8.18,5.71C363.64,39.16,359.93,36.2,359.93,30.92Zm11.58-2c-.09-1.94-1.05-3-2.84-3s-2.81,1.08-3.09,3Z" fill="#fff"/><path d="M377.87,33.67H383c.18,1.17.71,1.82,2.28,1.82,1.36,0,2-.53,2-1.33s-.77-1.14-3-1.45c-4.32-.56-6.14-1.82-6.14-5.19,0-3.58,3.18-5.3,6.92-5.3,4,0,6.76,1.35,7.13,5.21h-5a1.81,1.81,0,0,0-2.07-1.6c-1.21,0-1.82.52-1.82,1.26s.74,1.08,2.71,1.33c4.48.56,6.64,1.73,6.64,5.19,0,3.82-2.84,5.55-7.32,5.55S378,37.25,377.87,33.67Z" fill="#fff"/><path d="M394.16,36a3.07,3.07,0,0,1,3.15-3.11,3.12,3.12,0,1,1,0,6.23A3.08,3.08,0,0,1,394.16,36Z" fill="#fff"/><path d="M118.13,49.64h7.13l7.07,12.44V49.64h5.52V71.71h-6.11l-8.05-13.86V71.71h-5.56Z" fill="#fff"/><path d="M140.08,63.84V63.6c0-5.19,3.85-8.46,8.86-8.46s8.79,3.18,8.79,8.3v.25c0,5.25-3.86,8.39-8.83,8.39S140.08,69.06,140.08,63.84Zm12-.09V63.5c0-2.71-1.08-4.23-3.17-4.23s-3.22,1.46-3.22,4.17v.25c0,2.78,1.09,4.29,3.22,4.29S152.11,66.44,152.11,63.75Z" fill="#fff"/><path d="M164.37,67.24c0-3.8,3.21-5.28,8.58-5.28h1.54v-.37c0-1.54-.37-2.56-2.13-2.56a2,2,0,0,0-2.19,1.91H165c.25-3.89,3.31-5.8,7.72-5.8S180,57,180,61.25V71.71h-5.37V69.83a5.33,5.33,0,0,1-4.79,2.25C166.93,72.08,164.37,70.67,164.37,67.24Zm10.12-1.17v-1H173c-2.22,0-3.21.43-3.21,1.76,0,.92.62,1.51,1.91,1.51C173.32,68.35,174.49,67.46,174.49,66.07Z" fill="#fff"/><path d="M182.67,55.57h5.53V58a5.67,5.67,0,0,1,5-2.84c3.76,0,6.82,2.84,6.82,8.36v.25c0,5.56-3.06,8.33-6.85,8.33a5.32,5.32,0,0,1-5-2.74v7.78h-5.53Zm11.76,8.18V63.5c0-2.84-1.23-4.19-3.18-4.19S188,60.76,188,63.47v.25c0,2.75,1.21,4.14,3.21,4.14S194.43,66.41,194.43,63.75Z" fill="#fff"/><path d="M202.05,55.57h5.53V58a5.68,5.68,0,0,1,5-2.84c3.77,0,6.82,2.84,6.82,8.36v.25c0,5.56-3.05,8.33-6.85,8.33a5.32,5.32,0,0,1-5-2.74v7.78h-5.53Zm11.77,8.18V63.5c0-2.84-1.24-4.19-3.18-4.19s-3.21,1.45-3.21,4.16v.25c0,2.75,1.2,4.14,3.21,4.14S213.82,66.41,213.82,63.75Z" fill="#fff"/><path d="M220.57,63.84V63.6c0-5.19,3.86-8.46,8.86-8.46s8.8,3.18,8.8,8.3v.25c0,5.25-3.86,8.39-8.83,8.39S220.57,69.06,220.57,63.84Zm12-.09V63.5c0-2.71-1.08-4.23-3.18-4.23s-3.21,1.46-3.21,4.17v.25c0,2.78,1.08,4.29,3.21,4.29S232.61,66.44,232.61,63.75Z" fill="#fff"/><path d="M240.05,51.19a3,3,0,1,1,3,2.84A2.88,2.88,0,0,1,240.05,51.19Zm.28,4.38h5.52V71.71h-5.52Z" fill="#fff"/><path d="M248.82,55.57h5.52v2.59a5.72,5.72,0,0,1,5.31-3c3.12,0,5.28,1.94,5.28,6.08V71.71H259.4V62.33c0-1.82-.71-2.72-2.31-2.72s-2.75,1-2.75,3.06v9h-5.52Z" fill="#fff"/><path d="M268.35,66.53V59.34h-1.94V55.57h1.94V52.21h5.53v3.36h3.18v3.77h-3.18V66c0,1.18.59,1.7,1.64,1.7a4.11,4.11,0,0,0,1.57-.28v4.2a11.43,11.43,0,0,1-3.06.46C270.39,72.08,268.35,70.33,268.35,66.53Z" fill="#fff"/><path d="M279.16,55.57h5.52V58a5.67,5.67,0,0,1,5.07-2.9,4.39,4.39,0,0,1,4.38,2.68,6.4,6.4,0,0,1,5.34-2.68c3,0,5.28,2,5.28,6V71.71h-5.53V62.08c0-1.63-.8-2.43-2.07-2.43a2.39,2.39,0,0,0-2.47,2.71v9.35h-5.46V62.08c0-1.63-.8-2.43-2.07-2.43a2.39,2.39,0,0,0-2.47,2.71v9.35h-5.52Z" fill="#fff"/><path d="M306.57,63.84V63.6c0-5.19,3.86-8.46,8.73-8.46,4.42,0,8.21,2.53,8.21,8.33v1.45H312.15c.16,2.13,1.39,3.37,3.37,3.37,1.82,0,2.59-.83,2.81-1.91h5.18c-.49,3.64-3.3,5.7-8.18,5.7C310.27,72.08,306.57,69.12,306.57,63.84Zm11.57-2c-.09-2-1.05-3-2.84-3s-2.81,1.08-3.08,3Z" fill="#fff"/><path d="M325.43,55.57H331v2.59a5.7,5.7,0,0,1,5.31-3c3.12,0,5.28,1.94,5.28,6.08V71.71H336V62.33c0-1.82-.71-2.72-2.31-2.72s-2.75,1-2.75,3.06v9h-5.52Z" fill="#fff"/><path d="M345,66.53V59.34H343V55.57H345V52.21h5.53v3.36h3.18v3.77h-3.18V66c0,1.18.59,1.7,1.64,1.7a4.11,4.11,0,0,0,1.57-.28v4.2a11.43,11.43,0,0,1-3.06.46C347,72.08,345,70.33,345,66.53Z" fill="#fff"/><path d="M361.38,55.57h5.53v2.59a5.7,5.7,0,0,1,5.31-3c3.12,0,5.28,1.94,5.28,6.08V71.71H372V62.33c0-1.82-.71-2.72-2.31-2.72s-2.75,1-2.75,3.06v9h-5.53Z" fill="#fff"/><path d="M379.32,63.84V63.6c0-5.19,3.85-8.46,8.73-8.46,4.42,0,8.21,2.53,8.21,8.33v1.45H384.9c.16,2.13,1.39,3.37,3.37,3.37,1.82,0,2.59-.83,2.81-1.91h5.18c-.49,3.64-3.3,5.7-8.18,5.7C383,72.08,379.32,69.12,379.32,63.84Zm11.57-2c-.09-2-1.05-3-2.84-3s-2.81,1.08-3.08,3Z" fill="#fff"/><path d="M397.31,63.84V63.6c0-5.19,3.86-8.46,8.74-8.46,4.41,0,8.21,2.53,8.21,8.33v1.45H402.9c.15,2.13,1.39,3.37,3.36,3.37s2.6-.83,2.81-1.91h5.19c-.5,3.64-3.3,5.7-8.18,5.7C401,72.08,397.31,69.12,397.31,63.84Zm11.58-2c-.1-2-1.05-3-2.84-3s-2.81,1.08-3.09,3Z" fill="#fff"/><path d="M415.37,63.81v-.24c0-5.5,3-8.43,6.85-8.43a5.24,5.24,0,0,1,5,2.71V48.47h5.53V71.71h-5.53V69.09a5.43,5.43,0,0,1-5,3C418.42,72.08,415.37,69.4,415.37,63.81Zm12-.09v-.25c0-2.71-1.15-4.16-3.18-4.16S421,60.69,421,63.5v.25c0,2.72,1.2,4.11,3.11,4.11S427.35,66.47,427.35,63.72Z" fill="#fff"/><path d="M434.66,63.84V63.6c0-5.19,3.86-8.46,8.74-8.46,4.41,0,8.21,2.53,8.21,8.33v1.45H440.25c.15,2.13,1.39,3.37,3.36,3.37,1.82,0,2.6-.83,2.81-1.91h5.19c-.5,3.64-3.31,5.7-8.18,5.7C438.36,72.08,434.66,69.12,434.66,63.84Zm11.58-2c-.1-2-1.05-3-2.84-3s-2.81,1.08-3.09,3Z" fill="#fff"/><path d="M452.72,63.81v-.24c0-5.5,3-8.43,6.85-8.43a5.25,5.25,0,0,1,5,2.71V48.47h5.53V71.71h-5.53V69.09a5.43,5.43,0,0,1-5,3C455.77,72.08,452.72,69.4,452.72,63.81Zm12-.09v-.25c0-2.71-1.14-4.16-3.18-4.16s-3.18,1.38-3.18,4.19v.25c0,2.72,1.21,4.11,3.12,4.11S464.69,66.47,464.69,63.72Z" fill="#fff"/><path d="M472.66,68.94a3.07,3.07,0,0,1,3.15-3.12,3.12,3.12,0,1,1,0,6.23A3.07,3.07,0,0,1,472.66,68.94Z" fill="#fff"/></g></g></svg>