<svg xmlns="http://www.w3.org/2000/svg" viewBox="0 0 600 500"><title>H2</title><g id="Layer_2" data-name="Layer 2"><g id="Layer_4" data-name="Layer 4"><rect width="600" height="500" fill="none"/></g><g id="Your_maximum_refund_guaranteed." data-name="Your  maximum  refund,  guaranteed."><path d="M49.35,109l-9-15.73H49l4.65,9.27,4.65-9.27H65.8L57.26,109v11.76H49.35Z" fill="#13aa40"/><path d="M62.92,111v-.31c0-6.46,4.8-10.54,11-10.54s11,4,11,10.35v.31c0,6.53-4.8,10.45-11,10.45S62.92,117.48,62.92,111Zm15-.12v-.31c0-3.38-1.35-5.26-4-5.26s-4,1.8-4,5.19v.31c0,3.46,1.35,5.34,4,5.34S77.91,114.21,77.91,110.86Z" fill="#13aa40"/><path d="M87.17,113.78V100.67h6.88v12c0,2.27.89,3.38,2.85,3.38s3.42-1.23,3.42-3.8V100.67h6.88v20.11h-6.88v-3.11c-1.08,2.07-3,3.57-6.38,3.57C90.05,121.24,87.17,118.86,87.17,113.78Z" fill="#13aa40"/><path d="M110.69,100.67h6.89v4a6.32,6.32,0,0,1,6.49-4.27v6.42c-4.19-.11-6.49,1.2-6.49,4.43v9.53h-6.89Z" fill="#13aa40"/><path d="M42.12,143.79H49v3.07a7,7,0,0,1,6.3-3.61,5.47,5.47,0,0,1,5.46,3.34,8,8,0,0,1,6.65-3.34c3.81,0,6.57,2.46,6.57,7.5V163.9H67.1v-12c0-2-1-3-2.57-3-1.85,0-3.08,1.19-3.08,3.38V163.9h-6.8v-12c0-2-1-3-2.57-3-1.85,0-3.08,1.19-3.08,3.38V163.9H42.12Z" fill="#13aa40"/><path d="M76.18,158.32c0-4.73,4-6.58,10.68-6.58h1.92v-.46c0-1.92-.46-3.19-2.65-3.19a2.48,2.48,0,0,0-2.73,2.39H77c.3-4.85,4.11-7.23,9.61-7.23s9.07,2.27,9.07,7.61v13H88.94v-2.35c-1,1.46-2.73,2.81-6,2.81C79.37,164.36,76.18,162.59,76.18,158.32Zm12.6-1.46v-1.23H87c-2.77,0-4,.54-4,2.19,0,1.15.77,1.88,2.38,1.88C87.32,159.7,88.78,158.59,88.78,156.86Z" fill="#13aa40"/><path d="M104,153.67l-6.26-9.88h7.92l3.11,5.3,3-5.3h7.07l-6.34,9.34,7,10.77h-7.92l-3.58-6-3.65,6h-7Z" fill="#13aa40"/><path d="M121.3,138.32a3.8,3.8,0,1,1,3.77,3.54A3.6,3.6,0,0,1,121.3,138.32Zm.35,5.47h6.88V163.9h-6.88Z" fill="#13aa40"/><path d="M132.22,143.79h6.88v3.07a7,7,0,0,1,6.3-3.61,5.47,5.47,0,0,1,5.46,3.34,8,8,0,0,1,6.65-3.34c3.81,0,6.57,2.46,6.57,7.5V163.9H157.2v-12c0-2-1-3-2.57-3-1.85,0-3.08,1.19-3.08,3.38V163.9h-6.8v-12c0-2-1-3-2.57-3-1.85,0-3.08,1.19-3.08,3.38V163.9h-6.88Z" fill="#13aa40"/><path d="M167.28,156.9V143.79h6.88v12c0,2.27.88,3.39,2.84,3.39s3.42-1.23,3.42-3.81V143.79h6.88V163.9h-6.88v-3.12c-1.07,2.08-3,3.58-6.38,3.58C170.16,164.36,167.28,162,167.28,156.9Z" fill="#13aa40"/><path d="M190.8,143.79h6.88v3.07a7,7,0,0,1,6.3-3.61,5.47,5.47,0,0,1,5.46,3.34,8,8,0,0,1,6.65-3.34c3.81,0,6.58,2.46,6.58,7.5V163.9h-6.89v-12c0-2-1-3-2.57-3-1.85,0-3.08,1.19-3.08,3.38V163.9h-6.8v-12c0-2-1-3-2.57-3-1.85,0-3.08,1.19-3.08,3.38V163.9H190.8Z" fill="#13aa40"/><path d="M42.12,186.9H49v4a6.33,6.33,0,0,1,6.5-4.27v6.42c-4.19-.11-6.5,1.19-6.5,4.42V207H42.12Z" fill="#13aa40"/><path d="M56.73,197.2v-.3c0-6.46,4.8-10.54,10.87-10.54,5.5,0,10.23,3.15,10.23,10.38v1.81H63.68c.2,2.65,1.73,4.19,4.19,4.19,2.27,0,3.23-1,3.5-2.38h6.46c-.62,4.53-4.11,7.11-10.19,7.11C61.34,207.47,56.73,203.78,56.73,197.2Zm14.41-2.53c-.11-2.43-1.31-3.77-3.54-3.77-2.07,0-3.49,1.34-3.84,3.77Z" fill="#13aa40"/><path d="M81.25,191.59H78.71V186.9h2.54v-1.77c0-5,3.11-7.38,7.88-7.38a12.26,12.26,0,0,1,3.15.42v5a6.09,6.09,0,0,0-1.88-.27,2,2,0,0,0-2.31,2.19v1.77h4.08v4.69H88.09V207H81.25Z" fill="#13aa40"/><path d="M94.32,200V186.9h6.88v12c0,2.26.88,3.38,2.84,3.38s3.43-1.23,3.43-3.81V186.9h6.88V207h-6.88v-3.12c-1.08,2.08-3,3.58-6.39,3.58C97.2,207.47,94.32,205.09,94.32,200Z" fill="#13aa40"/><path d="M117.84,186.9h6.88v3.23a7.1,7.1,0,0,1,6.62-3.77c3.88,0,6.57,2.42,6.57,7.58V207H131V195.32c0-2.27-.89-3.38-2.88-3.38s-3.43,1.23-3.43,3.8V207h-6.88Z" fill="#13aa40"/><path d="M140.25,197.17v-.31c0-6.85,3.77-10.5,8.54-10.5a6.54,6.54,0,0,1,6.19,3.38V178.05h6.88v29H155v-3.27a6.77,6.77,0,0,1-6.27,3.73C144.06,207.47,140.25,204.12,140.25,197.17Zm14.92-.12v-.31c0-3.38-1.42-5.19-4-5.19s-4,1.73-4,5.23v.31c0,3.38,1.5,5.11,3.88,5.11S155.17,200.47,155.17,197.05Z" fill="#13aa40"/><path d="M163.93,210.12,167.16,200l6.38,2.27L168,211.7Z" fill="#13aa40"/><path d="M41,250.12h6.84c.31,1.46,1.19,2.62,3.69,2.62,3,0,4.26-1.73,4.26-4.23v-3.08a7,7,0,0,1-6.22,3.69c-4.69,0-8.54-3.46-8.54-9.65v-.31c0-5.92,3.81-9.69,8.54-9.69a6.53,6.53,0,0,1,6.22,3.39V230h6.88v18.42c0,6-4,9.15-11.14,9.15C44.7,257.58,41.54,254.7,41,250.12Zm15-10.69v-.27c0-2.77-1.43-4.53-4-4.53s-4,1.8-4,4.57v.31c0,2.77,1.46,4.54,3.92,4.54S56,242.28,56,239.43Z" fill="#13aa40"/><path d="M66,243.12V230h6.88v12c0,2.27.88,3.38,2.84,3.38s3.42-1.23,3.42-3.8V230h6.89v20.11H79.17V247c-1.07,2.07-3,3.57-6.38,3.57C68.91,250.58,66,248.2,66,243.12Z" fill="#13aa40"/><path d="M88.4,244.55c0-4.73,4-6.58,10.69-6.58H101v-.46c0-1.92-.46-3.19-2.65-3.19a2.46,2.46,0,0,0-2.73,2.38H89.17c.31-4.84,4.11-7.23,9.61-7.23s9.07,2.27,9.07,7.62v13h-6.69v-2.34c-1,1.46-2.73,2.8-6,2.8C91.59,250.58,88.4,248.81,88.4,244.55ZM101,243.09v-1.24H99.2c-2.77,0-4,.54-4,2.2,0,1.15.77,1.88,2.39,1.88C99.55,245.93,101,244.82,101,243.09Z" fill="#13aa40"/><path d="M111.19,230h6.88v4a6.34,6.34,0,0,1,6.5-4.27v6.42c-4.19-.11-6.5,1.2-6.5,4.43v9.53h-6.88Z" fill="#13aa40"/><path d="M125.46,244.55c0-4.73,4-6.58,10.68-6.58h1.92v-.46c0-1.92-.46-3.19-2.65-3.19a2.47,2.47,0,0,0-2.73,2.38h-6.46c.31-4.84,4.12-7.23,9.61-7.23s9.07,2.27,9.07,7.62v13h-6.68v-2.34c-1,1.46-2.73,2.8-6,2.8C128.65,250.58,125.46,248.81,125.46,244.55Zm12.6-1.46v-1.24h-1.8c-2.77,0-4,.54-4,2.2,0,1.15.77,1.88,2.38,1.88C136.6,245.93,138.06,244.82,138.06,243.09Z" fill="#13aa40"/><path d="M148.25,230h6.88v3.23a7.11,7.11,0,0,1,6.61-3.77c3.88,0,6.57,2.43,6.57,7.58v13.07h-6.88V238.43c0-2.27-.88-3.38-2.88-3.38s-3.42,1.23-3.42,3.81v11.26h-6.88Z" fill="#13aa40"/><path d="M172.58,243.66v-9h-2.42V230h2.42v-4.19h6.88V230h4v4.69h-4V243a1.83,1.83,0,0,0,2,2.11,5.27,5.27,0,0,0,2-.34V250a14.55,14.55,0,0,1-3.81.57C175.12,250.58,172.58,248.39,172.58,243.66Z" fill="#13aa40"/><path d="M185,240.32V240c0-6.46,4.8-10.54,10.88-10.54,5.49,0,10.22,3.16,10.22,10.39v1.8H191.92c.19,2.66,1.72,4.19,4.18,4.19,2.27,0,3.23-1,3.5-2.38h6.46c-.62,4.54-4.11,7.11-10.19,7.11C189.57,250.58,185,246.89,185,240.32Zm14.41-2.54c-.11-2.42-1.31-3.77-3.53-3.77s-3.5,1.35-3.85,3.77Z" fill="#13aa40"/><path d="M207.37,240.32V240c0-6.46,4.8-10.54,10.88-10.54,5.49,0,10.22,3.16,10.22,10.39v1.8H214.32c.2,2.66,1.73,4.19,4.19,4.19,2.27,0,3.23-1,3.5-2.38h6.46c-.62,4.54-4.11,7.11-10.19,7.11C212,250.58,207.37,246.89,207.37,240.32Zm14.41-2.54c-.11-2.42-1.31-3.77-3.53-3.77s-3.5,1.35-3.85,3.77Z" fill="#13aa40"/><path d="M229.85,240.28V240c0-6.84,3.77-10.5,8.54-10.5a6.53,6.53,0,0,1,6.19,3.39V221.17h6.88v29h-6.88v-3.27a6.77,6.77,0,0,1-6.27,3.73C233.66,250.58,229.85,247.24,229.85,240.28Zm14.92-.12v-.3c0-3.39-1.42-5.2-4-5.2s-4,1.73-4,5.23v.31c0,3.38,1.5,5.12,3.88,5.12S244.77,243.58,244.77,240.16Z" fill="#13aa40"/><path d="M254.69,246.66a3.83,3.83,0,0,1,3.92-3.88,3.88,3.88,0,1,1,0,7.76A3.83,3.83,0,0,1,254.69,246.66Z" fill="#13aa40"/></g></g></svg>