<svg xmlns="http://www.w3.org/2000/svg" viewBox="0 0 728 90"><title>728x90</title><g id="Layer_2" data-name="Layer 2"><g id="Artboard_1" data-name="Artboard 1" style="isolation:isolate"><g id="Rect"><rect width="728" height="90" fill="none"/></g><g id="H_R_Block_Free_Online_includes_student_loan_interest_deduction_" data-name="H&amp;R Block Free Online includes student loan interest deduction;"><path d="M108.75,25.56H113v5.63h4.84V25.56h4.23V40.3h-4.23V34.48H113V40.3h-4.25Z" fill="#fff"/><path d="M136.31,37.29l2.45,3H134l-.87-1.07a5.85,5.85,0,0,1-4,1.32c-3.14,0-5.18-1.65-5.18-4.46,0-1.89,1.16-3.3,3.24-4.29a4.66,4.66,0,0,1-.91-2.57c0-2.52,2.14-3.86,4.74-3.86,2.35,0,4.48,1.18,4.48,3.45,0,1.6-1,2.78-3,3.64l1.85,2.27,1.07-2.1h3.22Zm-5.11-.44-2.33-2.8a1.74,1.74,0,0,0-1,1.59,1.71,1.71,0,0,0,1.87,1.83A1.91,1.91,0,0,0,131.2,36.85Zm-.46-5.93c1-.48,1.47-1,1.47-1.8a1.06,1.06,0,0,0-1.1-1.13,1.17,1.17,0,0,0-1.21,1.28A2.72,2.72,0,0,0,130.74,30.92Z" fill="#fff"/><path d="M140.2,25.56H146c3.86,0,6,1.57,6,4.68v.08a3.86,3.86,0,0,1-2.66,3.88l3.53,6.1h-4.45l-3-5.28h-1V40.3H140.2Zm5.57,6.72c1.42,0,2.12-.6,2.12-1.79V30.4c0-1.19-.74-1.67-2.1-1.67h-1.38v3.55Z" fill="#fff"/><path d="M158.21,25.56h6.58c3.48,0,5,1.57,5,3.85v.09a3,3,0,0,1-2.5,3.17,3.2,3.2,0,0,1,3,3.44v.09c0,2.63-1.71,4.1-5.36,4.1h-6.64Zm5.73,5.85c1.32,0,1.82-.45,1.82-1.5v-.08c0-1-.54-1.47-1.82-1.47h-1.6v3.05Zm.15,6.06c1.34,0,2-.62,2-1.71v-.08c0-1.11-.6-1.69-2.09-1.69h-1.62v3.48Z" fill="#fff"/><path d="M171.77,24.77h3.67V40.3h-3.67Z" fill="#fff"/><path d="M177,35v-.16c0-3.47,2.57-5.65,5.91-5.65s5.88,2.12,5.88,5.54v.17c0,3.5-2.58,5.61-5.9,5.61S177,38.52,177,35Zm8-.06v-.17c0-1.81-.73-2.82-2.13-2.82s-2.14,1-2.14,2.78v.17c0,1.85.72,2.86,2.14,2.86S185,36.77,185,35Z" fill="#fff"/><path d="M189.56,35v-.16a5.42,5.42,0,0,1,5.75-5.65c2.64,0,5.07,1.15,5.28,4.43h-3.47a1.59,1.59,0,0,0-1.73-1.57c-1.3,0-2.06.93-2.06,2.74V35c0,1.88.72,2.84,2.12,2.84a1.79,1.79,0,0,0,1.88-1.79h3.32c-.1,2.72-1.94,4.5-5.42,4.5C192,40.55,189.56,38.67,189.56,35Z" fill="#fff"/><path d="M201.94,24.77h3.69v9l2.91-4.26h3.84l-3.53,4.84,3.81,5.94h-4.12l-2.91-4.72V40.3h-3.69Z" fill="#fff"/><path d="M217.81,25.56h10v3.28h-5.71V32h4.56v3.11h-4.56V40.3h-4.25Z" fill="#fff"/><path d="M228.86,29.52h3.69v2.14A3.39,3.39,0,0,1,236,29.37v3.44c-2.24-.06-3.48.64-3.48,2.38V40.3h-3.69Z" fill="#fff"/><path d="M236.79,35v-.16a5.52,5.52,0,0,1,5.84-5.65c3,0,5.48,1.69,5.48,5.56v1h-7.59A2.16,2.16,0,0,0,242.77,38c1.22,0,1.73-.56,1.88-1.28h3.46c-.33,2.43-2.2,3.82-5.46,3.82S236.79,38.57,236.79,35Zm7.73-1.36c-.06-1.3-.7-2-1.89-2a2,2,0,0,0-2.06,2Z" fill="#fff"/><path d="M248.91,35v-.16a5.52,5.52,0,0,1,5.84-5.65c2.94,0,5.48,1.69,5.48,5.56v1h-7.59A2.16,2.16,0,0,0,254.89,38c1.22,0,1.73-.56,1.88-1.28h3.46c-.33,2.43-2.21,3.82-5.46,3.82S248.91,38.57,248.91,35Zm7.73-1.36c-.06-1.3-.7-2-1.89-2a2.06,2.06,0,0,0-2.07,2Z" fill="#fff"/><path d="M265,33v-.16c0-4.5,3.38-7.51,7.79-7.51s7.81,2.83,7.81,7.4v.17c0,4.53-3.11,7.63-7.87,7.63S265,37.45,265,33Zm11.19,0v-.17c0-2.61-1.32-4.16-3.4-4.16s-3.38,1.51-3.38,4.19V33c0,2.68,1.36,4.23,3.4,4.23S276.2,35.62,276.2,33Z" fill="#fff"/><path d="M282.13,29.52h3.69v1.73a3.81,3.81,0,0,1,3.55-2c2.08,0,3.52,1.3,3.52,4.06v7H289.2V34c0-1.22-.47-1.81-1.54-1.81s-1.84.66-1.84,2v6h-3.69Z" fill="#fff"/><path d="M294.89,24.77h3.67V40.3h-3.67Z" fill="#fff"/><path d="M300.56,26.59a1.93,1.93,0,0,1,2-1.92,1.91,1.91,0,1,1,0,3.82A1.91,1.91,0,0,1,300.56,26.59Zm.18,2.93h3.69V40.3h-3.69Z" fill="#fff"/><path d="M306.51,29.52h3.69v1.73a3.81,3.81,0,0,1,3.55-2c2.08,0,3.52,1.3,3.52,4.06v7h-3.69V34c0-1.22-.47-1.81-1.54-1.81s-1.84.66-1.84,2v6h-3.69Z" fill="#fff"/><path d="M318.59,35v-.16a5.51,5.51,0,0,1,5.83-5.65c2.95,0,5.49,1.69,5.49,5.56v1h-7.59A2.15,2.15,0,0,0,324.57,38c1.21,0,1.73-.56,1.87-1.28h3.47c-.33,2.43-2.21,3.82-5.47,3.82S318.59,38.57,318.59,35Zm7.73-1.36c-.06-1.3-.7-2-1.9-2a2.05,2.05,0,0,0-2.06,2Z" fill="#fff"/><path d="M335.06,26.59a1.93,1.93,0,0,1,2-1.92,1.91,1.91,0,1,1,0,3.82A1.91,1.91,0,0,1,335.06,26.59Zm.18,2.93h3.69V40.3h-3.69Z" fill="#fff"/><path d="M341,29.52h3.69v1.73a3.8,3.8,0,0,1,3.55-2c2.08,0,3.52,1.3,3.52,4.06v7h-3.69V34c0-1.22-.47-1.81-1.54-1.81s-1.84.66-1.84,2v6H341Z" fill="#fff"/><path d="M353.09,35v-.16a5.42,5.42,0,0,1,5.75-5.65c2.64,0,5.07,1.15,5.28,4.43h-3.47a1.59,1.59,0,0,0-1.73-1.57c-1.3,0-2.06.93-2.06,2.74V35c0,1.88.72,2.84,2.12,2.84a1.79,1.79,0,0,0,1.88-1.79h3.32c-.1,2.72-1.94,4.5-5.42,4.5C355.54,40.55,353.09,38.67,353.09,35Z" fill="#fff"/><path d="M365.58,24.77h3.67V40.3h-3.67Z" fill="#fff"/><path d="M371.24,36.55v-7h3.69V36c0,1.21.48,1.81,1.53,1.81s1.83-.66,1.83-2v-6.2H382V40.3h-3.69V38.63a3.53,3.53,0,0,1-3.42,1.92C372.79,40.55,371.24,39.27,371.24,36.55Z" fill="#fff"/><path d="M383.42,35v-.16c0-3.67,2-5.63,4.58-5.63A3.5,3.5,0,0,1,391.32,31V24.77H395V40.3h-3.69V38.55a3.64,3.64,0,0,1-3.36,2C385.46,40.55,383.42,38.75,383.42,35Zm8-.06v-.17c0-1.81-.76-2.78-2.12-2.78s-2.12.93-2.12,2.8V35c0,1.81.8,2.74,2.08,2.74S391.42,36.79,391.42,35Z" fill="#fff"/><path d="M396.41,35v-.16a5.51,5.51,0,0,1,5.83-5.65c2.95,0,5.48,1.69,5.48,5.56v1h-7.58A2.15,2.15,0,0,0,402.38,38c1.22,0,1.74-.56,1.88-1.28h3.46c-.33,2.43-2.2,3.82-5.46,3.82S396.41,38.57,396.41,35Zm7.73-1.36c-.06-1.3-.7-2-1.9-2a2.05,2.05,0,0,0-2.06,2Z" fill="#fff"/><path d="M408.48,36.88h3.4c.13.78.48,1.21,1.53,1.21s1.32-.35,1.32-.88-.52-.77-2-1c-2.89-.37-4.1-1.22-4.1-3.47s2.12-3.54,4.62-3.54,4.51.9,4.76,3.48h-3.34a1.21,1.21,0,0,0-1.38-1.07c-.81,0-1.22.35-1.22.84s.5.73,1.81.89c3,.37,4.44,1.16,4.44,3.46,0,2.56-1.9,3.72-4.89,3.72S408.57,39.27,408.48,36.88Z" fill="#fff"/><path d="M422.74,36.88h3.41c.12.78.47,1.21,1.52,1.21s1.32-.35,1.32-.88-.52-.77-2-1c-2.89-.37-4.1-1.22-4.1-3.47s2.12-3.54,4.62-3.54c2.66,0,4.51.9,4.76,3.48h-3.34a1.21,1.21,0,0,0-1.38-1.07c-.81,0-1.22.35-1.22.84s.5.73,1.82.89c3,.37,4.43,1.16,4.43,3.46,0,2.56-1.9,3.72-4.89,3.72S422.83,39.27,422.74,36.88Z" fill="#fff"/><path d="M434.37,36.83V32h-1.3V29.52h1.3V27.27h3.69v2.25h2.12V32h-2.12v4.45c0,.79.39,1.14,1.09,1.14a2.69,2.69,0,0,0,1.05-.19v2.81a7.83,7.83,0,0,1-2,.31C435.73,40.55,434.37,39.37,434.37,36.83Z" fill="#fff"/><path d="M441.6,36.55v-7h3.69V36c0,1.21.47,1.81,1.53,1.81s1.83-.66,1.83-2v-6.2h3.69V40.3h-3.69V38.63a3.55,3.55,0,0,1-3.42,1.92C443.15,40.55,441.6,39.27,441.6,36.55Z" fill="#fff"/><path d="M453.78,35v-.16c0-3.67,2-5.63,4.58-5.63A3.5,3.5,0,0,1,461.68,31V24.77h3.69V40.3h-3.69V38.55a3.65,3.65,0,0,1-3.36,2C455.82,40.55,453.78,38.75,453.78,35Zm8-.06v-.17c0-1.81-.76-2.78-2.12-2.78s-2.13.93-2.13,2.8V35c0,1.81.81,2.74,2.08,2.74S461.78,36.79,461.78,35Z" fill="#fff"/><path d="M466.76,35v-.16a5.52,5.52,0,0,1,5.84-5.65c2.94,0,5.48,1.69,5.48,5.56v1H470.5A2.14,2.14,0,0,0,472.74,38c1.22,0,1.73-.56,1.88-1.28h3.46c-.33,2.43-2.2,3.82-5.46,3.82S466.76,38.57,466.76,35Zm7.73-1.36c-.06-1.3-.7-2-1.89-2a2,2,0,0,0-2.06,2Z" fill="#fff"/><path d="M479.46,29.52h3.69v1.73a3.79,3.79,0,0,1,3.54-2c2.09,0,3.53,1.3,3.53,4.06v7h-3.69V34c0-1.22-.47-1.81-1.55-1.81s-1.83.66-1.83,2v6h-3.69Z" fill="#fff"/><path d="M492.61,36.83V32h-1.3V29.52h1.3V27.27h3.69v2.25h2.12V32H496.3v4.45c0,.79.39,1.14,1.09,1.14a2.69,2.69,0,0,0,1.05-.19v2.81a7.83,7.83,0,0,1-2,.31C494,40.55,492.61,39.37,492.61,36.83Z" fill="#fff"/><path d="M503.88,24.77h3.67V40.3h-3.67Z" fill="#fff"/><path d="M509.05,35v-.16c0-3.47,2.58-5.65,5.92-5.65s5.87,2.12,5.87,5.54v.17c0,3.5-2.57,5.61-5.89,5.61S509.05,38.52,509.05,35Zm8-.06v-.17c0-1.81-.72-2.82-2.12-2.82s-2.14,1-2.14,2.78v.17c0,1.85.72,2.86,2.14,2.86S517.09,36.77,517.09,35Z" fill="#fff"/><path d="M521.62,37.31c0-2.54,2.15-3.53,5.73-3.53h1v-.24c0-1-.24-1.71-1.42-1.71a1.31,1.31,0,0,0-1.46,1.27H522c.16-2.59,2.2-3.87,5.15-3.87s4.86,1.21,4.86,4.08v7h-3.58V39a3.57,3.57,0,0,1-3.2,1.51C523.33,40.55,521.62,39.6,521.62,37.31Zm6.76-.78v-.66h-1c-1.49,0-2.15.28-2.15,1.17,0,.62.41,1,1.28,1A1.62,1.62,0,0,0,528.38,36.53Z" fill="#fff"/><path d="M534,29.52h3.69v1.73a3.78,3.78,0,0,1,3.54-2c2.08,0,3.53,1.3,3.53,4.06v7H541V34c0-1.22-.48-1.81-1.55-1.81s-1.83.66-1.83,2v6H534Z" fill="#fff"/><path d="M108.34,49.2a2,2,0,1,1,2,1.89A1.91,1.91,0,0,1,108.34,49.2Zm.19,2.93h3.69V62.91h-3.69Z" fill="#fff"/><path d="M114.3,52.13H118v1.73a3.78,3.78,0,0,1,3.54-2c2.08,0,3.53,1.3,3.53,4.06v7h-3.69V56.64c0-1.22-.48-1.81-1.55-1.81s-1.83.66-1.83,2v6H114.3Z" fill="#fff"/><path d="M127.44,59.44v-4.8h-1.29V52.13h1.29V49.88h3.69v2.25h2.13v2.51h-2.13v4.45a1,1,0,0,0,1.1,1.14,2.69,2.69,0,0,0,1.05-.19v2.81a8,8,0,0,1-2,.3C128.81,63.15,127.44,62,127.44,59.44Z" fill="#fff"/><path d="M134.18,57.65v-.16A5.52,5.52,0,0,1,140,51.84c2.95,0,5.48,1.69,5.48,5.56v1h-7.59a2.16,2.16,0,0,0,2.25,2.25c1.22,0,1.73-.56,1.88-1.28h3.46c-.33,2.43-2.21,3.81-5.46,3.81S134.18,61.18,134.18,57.65Zm7.73-1.36c-.06-1.3-.7-2-1.89-2a2,2,0,0,0-2.06,2Z" fill="#fff"/><path d="M146.88,52.13h3.69v2.14A3.39,3.39,0,0,1,154.05,52v3.44c-2.24-.06-3.48.64-3.48,2.37v5.12h-3.69Z" fill="#fff"/><path d="M154.81,57.65v-.16a5.52,5.52,0,0,1,5.84-5.65c2.94,0,5.48,1.69,5.48,5.56v1h-7.59a2.16,2.16,0,0,0,2.25,2.25c1.22,0,1.73-.56,1.88-1.28h3.46c-.33,2.43-2.21,3.81-5.46,3.81S154.81,61.18,154.81,57.65Zm7.73-1.36c-.06-1.3-.7-2-1.89-2a2.06,2.06,0,0,0-2.07,2Z" fill="#fff"/><path d="M166.89,59.49h3.4c.12.78.48,1.21,1.53,1.21s1.32-.35,1.32-.88-.52-.77-2-1c-2.89-.38-4.11-1.22-4.11-3.47s2.13-3.54,4.62-3.54c2.66,0,4.52.9,4.76,3.48h-3.34a1.2,1.2,0,0,0-1.38-1.07c-.8,0-1.21.35-1.21.84s.49.73,1.81.89c3,.37,4.43,1.15,4.43,3.46,0,2.56-1.89,3.71-4.88,3.71S167,61.88,166.89,59.49Z" fill="#fff"/><path d="M178.51,59.44v-4.8h-1.3V52.13h1.3V49.88h3.69v2.25h2.13v2.51H182.2v4.45c0,.79.39,1.14,1.1,1.14a2.69,2.69,0,0,0,1-.19v2.81a8,8,0,0,1-2,.3C179.87,63.15,178.51,62,178.51,59.44Z" fill="#fff"/><path d="M189.15,57.63v-.17c0-3.66,2-5.62,4.57-5.62A3.5,3.5,0,0,1,197,53.65V47.38h3.69V62.91H197V61.16a3.62,3.62,0,0,1-3.36,2C191.19,63.15,189.15,61.36,189.15,57.63Zm8-.06V57.4c0-1.81-.77-2.78-2.13-2.78s-2.12.93-2.12,2.8v.17c0,1.81.8,2.74,2.08,2.74S197.15,59.4,197.15,57.57Z" fill="#fff"/><path d="M202.13,57.65v-.16A5.51,5.51,0,0,1,208,51.84c2.95,0,5.49,1.69,5.49,5.56v1h-7.59a2.16,2.16,0,0,0,2.25,2.25c1.21,0,1.73-.56,1.87-1.28h3.47c-.33,2.43-2.21,3.81-5.47,3.81S202.13,61.18,202.13,57.65Zm7.73-1.36c-.06-1.3-.7-2-1.9-2a2.05,2.05,0,0,0-2.06,2Z" fill="#fff"/><path d="M214.29,57.63v-.17c0-3.66,2-5.62,4.58-5.62a3.5,3.5,0,0,1,3.32,1.81V47.38h3.69V62.91h-3.69V61.16a3.65,3.65,0,0,1-3.37,2C216.33,63.15,214.29,61.36,214.29,57.63Zm8-.06V57.4c0-1.81-.76-2.78-2.13-2.78s-2.12.93-2.12,2.8v.17c0,1.81.81,2.74,2.08,2.74S222.29,59.4,222.29,57.57Z" fill="#fff"/><path d="M227.77,59.16v-7h3.69v6.43c0,1.21.47,1.81,1.52,1.81s1.84-.66,1.84-2v-6.2h3.69V62.91h-3.69V61.24a3.55,3.55,0,0,1-3.42,1.91C229.31,63.15,227.77,61.88,227.77,59.16Z" fill="#fff"/><path d="M239.91,57.65v-.16a5.42,5.42,0,0,1,5.75-5.65c2.64,0,5.07,1.15,5.28,4.43h-3.47a1.59,1.59,0,0,0-1.73-1.57c-1.3,0-2.06.93-2.06,2.74v.17c0,1.88.72,2.84,2.12,2.84a1.8,1.8,0,0,0,1.88-1.79H251c-.11,2.72-1.94,4.49-5.42,4.49C242.36,63.15,239.91,61.28,239.91,57.65Z" fill="#fff"/><path d="M252.79,59.44v-4.8h-1.3V52.13h1.3V49.88h3.69v2.25h2.12v2.51h-2.12v4.45c0,.79.39,1.14,1.09,1.14a2.69,2.69,0,0,0,1.05-.19v2.81a7.89,7.89,0,0,1-2,.3C254.15,63.15,252.79,62,252.79,59.44Z" fill="#fff"/><path d="M260,49.2a2,2,0,1,1,2,1.89A1.91,1.91,0,0,1,260,49.2Zm.19,2.93h3.69V62.91h-3.69Z" fill="#fff"/><path d="M265.4,57.65v-.16c0-3.47,2.58-5.65,5.92-5.65s5.87,2.12,5.87,5.54v.17c0,3.5-2.58,5.6-5.9,5.6S265.4,61.13,265.4,57.65Zm8-.06v-.17c0-1.81-.72-2.82-2.12-2.82s-2.15,1-2.15,2.78v.17c0,1.85.72,2.86,2.15,2.86S273.44,59.38,273.44,57.59Z" fill="#fff"/><path d="M278.59,52.13h3.69v1.73a3.79,3.79,0,0,1,3.54-2c2.09,0,3.53,1.3,3.53,4.06v7h-3.69V56.64c0-1.22-.47-1.81-1.55-1.81s-1.83.66-1.83,2v6h-3.69Z" fill="#fff"/><path d="M290.36,64.58l1.71-5.42,3.42,1.21-2.95,5.05Zm1.27-9.42a2.06,2.06,0,0,1,2.11-2.09,2.09,2.09,0,1,1,0,4.17A2,2,0,0,1,291.63,55.16Z" fill="#fff"/><path d="M304.66,51.42h-3.81V48.17h11.87v3.25h-3.81V62.91h-4.25Z" fill="#fff"/><path d="M313.15,59.16v-7h3.69v6.43c0,1.21.47,1.81,1.53,1.81s1.83-.66,1.83-2v-6.2h3.69V62.91H320.2V61.24a3.55,3.55,0,0,1-3.42,1.91C314.7,63.15,313.15,61.88,313.15,59.16Z" fill="#fff"/><path d="M325.87,52.13h3.69v2.14A3.39,3.39,0,0,1,333,52v3.44c-2.25-.06-3.48.64-3.48,2.37v5.12h-3.69Z" fill="#fff"/><path d="M338.17,61.24v1.67h-3.69V47.38h3.69v6.35a3.8,3.8,0,0,1,3.36-1.89c2.51,0,4.56,1.89,4.56,5.58v.17c0,3.71-2,5.56-4.58,5.56A3.5,3.5,0,0,1,338.17,61.24Zm4.16-3.65v-.17c0-1.89-.82-2.8-2.12-2.8s-2.14,1-2.14,2.78v.17c0,1.83.8,2.76,2.14,2.76S342.33,59.36,342.33,57.59Z" fill="#fff"/><path d="M347,57.65v-.16c0-3.47,2.57-5.65,5.91-5.65s5.88,2.12,5.88,5.54v.17c0,3.5-2.58,5.6-5.9,5.6S347,61.13,347,57.65Zm8-.06v-.17c0-1.81-.72-2.82-2.13-2.82s-2.14,1-2.14,2.78v.17c0,1.85.72,2.86,2.14,2.86S355,59.38,355,57.59Z" fill="#fff"/><path d="M363.29,51.42h-3.81V48.17h11.87v3.25h-3.81V62.91h-4.25Z" fill="#fff"/><path d="M370.71,59.92c0-2.54,2.14-3.53,5.73-3.53h1v-.24c0-1-.25-1.72-1.42-1.72a1.32,1.32,0,0,0-1.46,1.28h-3.47c.17-2.59,2.21-3.87,5.16-3.87s4.86,1.21,4.86,4.08v7h-3.59V61.65a3.53,3.53,0,0,1-3.19,1.5C372.42,63.15,370.71,62.21,370.71,59.92Zm6.76-.79v-.66h-1c-1.48,0-2.14.29-2.14,1.18,0,.62.41,1,1.28,1A1.62,1.62,0,0,0,377.47,59.13Z" fill="#fff"/><path d="M385.76,57.42l-3.36-5.29h4.24L388.31,55l1.63-2.84h3.79l-3.4,5,3.73,5.78h-4.24l-1.92-3.22-2,3.22h-3.77Z" fill="#fff"/><path d="M398.51,57.63v-.17c0-3.66,2-5.62,4.58-5.62a3.5,3.5,0,0,1,3.32,1.81V47.38h3.69V62.91h-3.69V61.16a3.63,3.63,0,0,1-3.36,2C400.55,63.15,398.51,61.36,398.51,57.63Zm8-.06V57.4c0-1.81-.76-2.78-2.12-2.78s-2.13.93-2.13,2.8v.17c0,1.81.81,2.74,2.09,2.74S406.51,59.4,406.51,57.57Z" fill="#fff"/><path d="M411.5,57.65v-.16c0-3.47,2.57-5.65,5.91-5.65s5.88,2.12,5.88,5.54v.17c0,3.5-2.58,5.6-5.9,5.6S411.5,61.13,411.5,57.65Zm8-.06v-.17c0-1.81-.72-2.82-2.12-2.82s-2.14,1-2.14,2.78v.17c0,1.85.72,2.86,2.14,2.86S419.53,59.38,419.53,57.59Z" fill="#fff"/><path d="M424.11,57.65v-.16a5.51,5.51,0,0,1,5.83-5.65c2.95,0,5.48,1.69,5.48,5.56v1h-7.58a2.15,2.15,0,0,0,2.24,2.25c1.22,0,1.74-.56,1.88-1.28h3.46c-.33,2.43-2.2,3.81-5.46,3.81S424.11,61.18,424.11,57.65Zm7.73-1.36c-.06-1.3-.7-2-1.9-2a2.05,2.05,0,0,0-2.06,2Z" fill="#fff"/><path d="M436.18,59.49h3.4c.13.78.48,1.21,1.53,1.21s1.32-.35,1.32-.88-.52-.77-2-1c-2.89-.38-4.1-1.22-4.1-3.47s2.12-3.54,4.62-3.54c2.65,0,4.51.9,4.76,3.48h-3.34A1.21,1.21,0,0,0,441,54.25c-.81,0-1.22.35-1.22.84s.5.73,1.81.89c3,.37,4.44,1.15,4.44,3.46,0,2.56-1.9,3.71-4.89,3.71S436.27,61.88,436.18,59.49Z" fill="#fff"/><path d="M447.31,52.13H451v1.73a3.8,3.8,0,0,1,3.55-2c2.08,0,3.52,1.3,3.52,4.06v7h-3.69V56.64c0-1.22-.47-1.81-1.54-1.81s-1.84.66-1.84,2v6h-3.69Z" fill="#fff"/><path d="M459.33,53.28,461,47.9,464.23,49l-2.82,5.09Z" fill="#fff"/><path d="M465.78,59.44v-4.8h-1.3V52.13h1.3V49.88h3.69v2.25h2.12v2.51h-2.12v4.45c0,.79.39,1.14,1.09,1.14a2.69,2.69,0,0,0,1.05-.19v2.81a7.89,7.89,0,0,1-2,.3C467.14,63.15,465.78,62,465.78,59.44Z" fill="#fff"/><path d="M473,61.05a2.06,2.06,0,0,1,2.1-2.08,2.08,2.08,0,1,1,0,4.16A2.05,2.05,0,0,1,473,61.05Z" fill="#fff"/></g></g></g></svg>