<svg xmlns="http://www.w3.org/2000/svg" viewBox="0 0 160 600"><title>H27</title><g id="Layer_2" data-name="Layer 2"><g id="Rect"><rect width="160" height="600" fill="none"/></g><g id="H27"><g id="_Our_top_choice_for_online_tax_prep._" data-name="&quot;Our top choice for online tax prep.&quot;"><path d="M21.51,53.29h6.17L26.91,63.4H22.24Zm7.79,0h6.21L34.73,63.4H30.07Z" fill="#fff"/><path d="M37.09,66.59V66.3c0-8,6-13.37,13.89-13.37S64.9,58,64.9,66.12v.29c0,8.08-5.55,13.6-14,13.6S37.09,74.49,37.09,66.59ZM57,66.52v-.29c0-4.67-2.35-7.42-6.06-7.42s-6,2.68-6,7.45v.3c0,4.77,2.43,7.53,6.06,7.53S57,71.22,57,66.52Z" fill="#fff"/><path d="M67.3,72.88V60.35h6.57V71.81c0,2.17.85,3.24,2.72,3.24s3.27-1.18,3.27-3.64V60.35h6.58V79.56H79.86v-3A6.32,6.32,0,0,1,73.76,80C70.05,80,67.3,77.73,67.3,72.88Z" fill="#fff"/><path d="M89.79,60.35h6.57v3.82a6.06,6.06,0,0,1,6.21-4.08v6.14c-4-.11-6.21,1.14-6.21,4.22v9.11H89.79Z" fill="#fff"/><path d="M22.83,115.14v-8.56H20.51V102.1h2.32v-4h6.58v4h3.78v4.48H29.41v7.94c0,1.39.69,2,1.94,2a5,5,0,0,0,1.88-.33v5a13.44,13.44,0,0,1-3.64.56C25.25,121.76,22.83,119.66,22.83,115.14Z" fill="#fff"/><path d="M34.66,112v-.3c0-6.17,4.6-10.07,10.55-10.07s10.47,3.79,10.47,9.89v.29c0,6.25-4.59,10-10.51,10S34.66,118.16,34.66,112ZM49,111.84v-.3c0-3.23-1.28-5-3.78-5s-3.82,1.72-3.82,5v.29c0,3.31,1.28,5.11,3.82,5.11S49,115,49,111.84Z" fill="#fff"/><path d="M58,102.1h6.58V105a6.78,6.78,0,0,1,6-3.38c4.49,0,8.13,3.38,8.13,10v.3c0,6.61-3.64,9.92-8.16,9.92a6.33,6.33,0,0,1-6-3.27v9.26H58Zm14,9.74v-.3c0-3.38-1.47-5-3.79-5s-3.82,1.73-3.82,5v.3c0,3.27,1.43,4.92,3.82,4.92S72,115,72,111.84Z" fill="#fff"/><path d="M20.92,153.7v-.3c0-6.39,4.59-10.07,10.25-10.07,4.7,0,9,2.06,9.41,7.9H34.4c-.29-1.8-1.17-2.79-3.08-2.79-2.32,0-3.68,1.65-3.68,4.89v.29c0,3.35,1.29,5.07,3.79,5.07a3.2,3.2,0,0,0,3.34-3.19h5.92c-.19,4.85-3.46,8-9.67,8C25.29,163.51,20.92,160.16,20.92,153.7Z" fill="#fff"/><path d="M42.82,135.4H49.4v11.53a6.79,6.79,0,0,1,6.32-3.6c3.71,0,6.28,2.32,6.28,7.24v12.49H55.42V151.9c0-2.17-.84-3.24-2.75-3.24s-3.27,1.18-3.27,3.64v10.76H42.82Z" fill="#fff"/><path d="M64.17,153.7v-.3c0-6.17,4.6-10.07,10.55-10.07s10.47,3.79,10.47,9.89v.29c0,6.25-4.59,10-10.51,10S64.17,159.91,64.17,153.7Zm14.33-.11v-.3c0-3.23-1.28-5-3.78-5s-3.82,1.72-3.82,5v.29c0,3.31,1.28,5.11,3.82,5.11S78.5,156.78,78.5,153.59Z" fill="#fff"/><path d="M87.36,138.63A3.63,3.63,0,1,1,91,142,3.44,3.44,0,0,1,87.36,138.63Zm.33,5.22h6.58v19.21H87.69Z" fill="#fff"/><path d="M96.77,153.7v-.3c0-6.39,4.59-10.07,10.25-10.07,4.7,0,9,2.06,9.41,7.9h-6.18c-.29-1.8-1.17-2.79-3.08-2.79-2.32,0-3.68,1.65-3.68,4.89v.29c0,3.35,1.29,5.07,3.79,5.07a3.19,3.19,0,0,0,3.34-3.19h5.92c-.19,4.85-3.46,8-9.67,8C101.14,163.51,96.77,160.16,96.77,153.7Z" fill="#fff"/><path d="M117.64,153.7v-.3c0-6.17,4.6-10.07,10.4-10.07,5.26,0,9.78,3,9.78,9.92V155H124.29c.19,2.54,1.66,4,4,4,2.17,0,3.09-1,3.34-2.28h6.18c-.59,4.33-3.94,6.8-9.74,6.8C122.05,163.51,117.64,160,117.64,153.7Zm13.78-2.43c-.11-2.31-1.25-3.6-3.38-3.6-2,0-3.34,1.29-3.67,3.6Z" fill="#fff"/><path d="M22.94,190.08H20.51V185.6h2.43v-1.69c0-4.78,3-7.06,7.53-7.06a11.7,11.7,0,0,1,3,.41v4.81a5.87,5.87,0,0,0-1.8-.26,1.93,1.93,0,0,0-2.2,2.1v1.69h3.89v4.48H29.48v14.73H22.94Z" fill="#fff"/><path d="M33.89,195.45v-.3c0-6.17,4.59-10.07,10.55-10.07s10.47,3.79,10.47,9.89v.29c0,6.25-4.59,10-10.51,10S33.89,201.66,33.89,195.45Zm14.33-.11V195c0-3.23-1.28-5-3.78-5s-3.82,1.72-3.82,5v.29c0,3.31,1.28,5.11,3.82,5.11S48.22,198.53,48.22,195.34Z" fill="#fff"/><path d="M57.23,185.6H63.8v3.82A6.06,6.06,0,0,1,70,185.34v6.14c-4-.11-6.21,1.14-6.21,4.22v9.11H57.23Z" fill="#fff"/><path d="M20.92,237.2v-.3c0-6.17,4.59-10.07,10.54-10.07s10.48,3.79,10.48,9.89V237c0,6.25-4.6,10-10.51,10S20.92,243.41,20.92,237.2Zm14.33-.11v-.3c0-3.23-1.29-5-3.79-5s-3.82,1.72-3.82,5V237c0,3.31,1.29,5.11,3.82,5.11S35.25,240.28,35.25,237.09Z" fill="#fff"/><path d="M44.25,227.35h6.58v3.08a6.79,6.79,0,0,1,6.32-3.6c3.71,0,6.28,2.32,6.28,7.24v12.49H56.86V235.4c0-2.17-.85-3.24-2.76-3.24s-3.27,1.18-3.27,3.64v10.76H44.25Z" fill="#fff"/><path d="M66.82,218.9h6.54v27.66H66.82Z" fill="#fff"/><path d="M76.74,222.13a3.43,3.43,0,0,1,3.6-3.42,3.41,3.41,0,1,1,0,6.8A3.4,3.4,0,0,1,76.74,222.13Zm.33,5.22h6.58v19.21H77.07Z" fill="#fff"/><path d="M87.18,227.35h6.57v3.08a6.8,6.8,0,0,1,6.32-3.6c3.72,0,6.29,2.32,6.29,7.24v12.49H99.78V235.4c0-2.17-.84-3.24-2.75-3.24s-3.28,1.18-3.28,3.64v10.76H87.18Z" fill="#fff"/><path d="M108.53,237.2v-.3c0-6.17,4.59-10.07,10.4-10.07,5.25,0,9.77,3,9.77,9.92v1.73H115.18c.18,2.54,1.65,4,4,4,2.17,0,3.09-1,3.35-2.28h6.17c-.59,4.33-3.93,6.8-9.74,6.8C112.94,247,108.53,243.48,108.53,237.2Zm13.78-2.43c-.11-2.31-1.25-3.6-3.38-3.6s-3.35,1.29-3.68,3.6Z" fill="#fff"/><path d="M22.83,282.14v-8.56H20.51V269.1h2.32v-4h6.58v4h3.78v4.48H29.41v7.94c0,1.39.69,2,1.94,2a5,5,0,0,0,1.88-.33v5a13.44,13.44,0,0,1-3.64.56C25.25,288.76,22.83,286.66,22.83,282.14Z" fill="#fff"/><path d="M34.66,283c0-4.52,3.82-6.29,10.22-6.29h1.83v-.44c0-1.83-.44-3.05-2.53-3.05a2.37,2.37,0,0,0-2.61,2.28H35.4c.29-4.63,3.93-6.91,9.18-6.91s8.67,2.17,8.67,7.28v12.45H46.86v-2.24c-.92,1.4-2.61,2.69-5.69,2.69C37.71,288.76,34.66,287.07,34.66,283Zm12.05-1.4v-1.17H45c-2.65,0-3.82.51-3.82,2.09,0,1.1.73,1.8,2.27,1.8C45.32,284.31,46.71,283.24,46.71,281.59Z" fill="#fff"/><path d="M61.31,278.54l-6-9.44h7.56l3,5.07,2.9-5.07h6.76L69.46,278l6.65,10.28H68.54l-3.41-5.73-3.49,5.73H54.91Z" fill="#fff"/><path d="M22,310.85h6.57v2.86a6.81,6.81,0,0,1,6-3.38c4.49,0,8.12,3.38,8.12,10v.29c0,6.62-3.63,9.93-8.15,9.93a6.35,6.35,0,0,1-6-3.27v9.26H22Zm14,9.73v-.29c0-3.38-1.47-5-3.79-5s-3.82,1.73-3.82,5v.3c0,3.27,1.43,4.92,3.82,4.92S36,323.75,36,320.58Z" fill="#fff"/><path d="M45,310.85H51.6v3.82a6.06,6.06,0,0,1,6.21-4.08v6.14c-4-.11-6.21,1.14-6.21,4.22v9.12H45Z" fill="#fff"/><path d="M59,320.7v-.3c0-6.17,4.59-10.07,10.4-10.07,5.25,0,9.77,3,9.77,9.92V322H65.64c.19,2.54,1.66,4,4,4,2.16,0,3.08-1,3.34-2.28h6.17c-.58,4.33-3.93,6.8-9.73,6.8C63.4,330.51,59,327,59,320.7Zm13.78-2.43c-.11-2.31-1.25-3.6-3.38-3.6s-3.34,1.29-3.67,3.6Z" fill="#fff"/><path d="M81.45,310.85H88v2.86a6.8,6.8,0,0,1,6-3.38c4.48,0,8.12,3.38,8.12,10v.29c0,6.62-3.64,9.93-8.16,9.93a6.34,6.34,0,0,1-6-3.27v9.26H81.45Zm14,9.73v-.29c0-3.38-1.47-5-3.78-5s-3.82,1.73-3.82,5v.3c0,3.27,1.43,4.92,3.82,4.92S95.44,323.75,95.44,320.58Z" fill="#fff"/><path d="M103.79,326.76a3.66,3.66,0,0,1,3.75-3.71,3.71,3.71,0,1,1,0,7.42A3.66,3.66,0,0,1,103.79,326.76Z" fill="#fff"/><path d="M110.59,303.79h6.17L116,313.9h-4.67Zm7.79,0h6.21l-.77,10.11h-4.67Z" fill="#fff"/></g><g id="_PCMag_on_H_R_Block_Online" data-name="– PCMag onH&amp;R Block Online"><path d="M68.83,387.73h5.73v1.1H68.83Z" fill="#fff"/><path d="M78.93,382.65h3c2.08,0,3.44.92,3.44,2.87v.06c0,2-1.41,2.83-3.4,2.83h-1.3V392H78.93Zm3,4.51c1.14,0,1.75-.56,1.75-1.58v-.06c0-1.1-.65-1.53-1.75-1.53H80.66v3.17Z" fill="#fff"/><path d="M86.22,387.36v-.11a4.47,4.47,0,0,1,4.51-4.74c2.13,0,3.78,1.06,4,3.25H93a2,2,0,0,0-2.23-1.88c-1.63,0-2.7,1.28-2.7,3.36v.1c0,2.1,1,3.33,2.72,3.33a2.18,2.18,0,0,0,2.38-2h1.69c-.28,2.23-1.86,3.37-4.07,3.37C87.84,392.08,86.22,390.22,86.22,387.36Z" fill="#fff"/><path d="M96.12,382.65h2.32l2.44,6.34,2.4-6.34h2.28V392h-1.73v-7l-2.76,7h-.56l-2.82-7v7H96.12Z" fill="#fff"/><path d="M106.84,390.06c0-1.59,1.53-2.16,3.48-2.16h.85v-.35c0-.91-.32-1.36-1.24-1.36a1.13,1.13,0,0,0-1.3,1.06h-1.52c.13-1.58,1.39-2.25,2.91-2.25s2.72.63,2.72,2.49V392h-1.55v-.84a2.36,2.36,0,0,1-2.08,1C107.86,392.08,106.84,391.48,106.84,390.06Zm4.33-.49v-.68h-.81c-1.19,0-2,.27-2,1.11,0,.57.31.94,1.09.94C110.45,390.94,111.17,390.44,111.17,389.57Z" fill="#fff"/><path d="M114,392.18h1.59c.13.68.65,1.07,1.68,1.07a1.68,1.68,0,0,0,1.9-1.84v-1a2.67,2.67,0,0,1-2.23,1.26,3,3,0,0,1-3-3.24v-.09a3.12,3.12,0,0,1,3-3.34,2.35,2.35,0,0,1,2.19,1.19v-1h1.57v6.29c0,2-1.35,3-3.46,3S114.16,393.48,114,392.18Zm5.22-3.8v-.09a1.8,1.8,0,0,0-1.84-2.05,1.83,1.83,0,0,0-1.84,2.08v.1a1.84,1.84,0,0,0,1.79,2A1.88,1.88,0,0,0,119.19,388.38Z" fill="#fff"/><path d="M124.83,388.62v-.11a3.49,3.49,0,0,1,7,0v.11a3.49,3.49,0,0,1-7,0Zm5.37,0v-.09c0-1.4-.7-2.26-1.87-2.26s-1.89.84-1.89,2.25v.1c0,1.39.69,2.26,1.89,2.26S130.2,390,130.2,388.59Z" fill="#fff"/><path d="M133,385.15h1.58v1.07A2.33,2.33,0,0,1,136.8,385c1.37,0,2.33.8,2.33,2.67V392h-1.57v-4.14c0-1-.42-1.49-1.36-1.49a1.5,1.5,0,0,0-1.59,1.62v4H133Z" fill="#fff"/><path d="M34.9,397.65h1.73v4H40.8v-4h1.74V407H40.8v-4H36.63v4H34.9Z" fill="#fff"/><path d="M50.78,405.05l1.56,1.9h-2l-.78-.95A3.36,3.36,0,0,1,47,407.06c-1.81,0-3.06-1-3.06-2.65,0-1.37.85-2.16,2.09-2.76a3.1,3.1,0,0,1-.72-1.83,2.31,2.31,0,0,1,2.56-2.25,2.12,2.12,0,0,1,2.34,2c0,1.08-.73,1.84-1.94,2.36l1.64,2,1-1.83H52.3Zm-2-.05-2-2.41a1.75,1.75,0,0,0-1.18,1.65,1.43,1.43,0,0,0,1.6,1.52A2,2,0,0,0,48.77,405Zm-1.2-3.8c.87-.4,1.24-.82,1.24-1.55a.88.88,0,0,0-.91-.92,1,1,0,0,0-1,1.1A2.3,2.3,0,0,0,47.57,401.2Z" fill="#fff"/><path d="M53.58,397.65H56.7c2,0,3.47.83,3.47,2.73v.05a2.45,2.45,0,0,1-2.07,2.5l2.61,4H58.84l-2.43-3.76h-1.1V407H53.58ZM56.7,402c1.15,0,1.77-.49,1.77-1.48v-.05c0-1.07-.67-1.43-1.77-1.43H55.31v3Z" fill="#fff"/><path d="M64.8,397.65h3.32c1.92,0,3,.73,3,2.42v.05a1.92,1.92,0,0,1-1.47,2,2,2,0,0,1,1.86,2.19v0c0,1.73-1.15,2.61-3.19,2.61H64.8Zm3.12,3.91c1.14,0,1.58-.41,1.58-1.36v-.05c0-.89-.5-1.27-1.61-1.27h-1.4v2.68Zm.24,4.15c1.16,0,1.69-.52,1.69-1.48v-.05c0-1-.53-1.45-1.8-1.45H66.49v3Z" fill="#fff"/><path d="M72.9,397h1.57V407H72.9Z" fill="#fff"/><path d="M75.73,403.62v-.11a3.49,3.49,0,0,1,7,0v.11a3.49,3.49,0,0,1-7,0Zm5.37,0v-.09c0-1.4-.7-2.26-1.87-2.26s-1.89.84-1.89,2.25v.1c0,1.39.69,2.26,1.89,2.26S81.1,405,81.1,403.59Z" fill="#fff"/><path d="M83.48,403.63v-.1A3.35,3.35,0,0,1,86.91,400,2.79,2.79,0,0,1,90,402.55H88.5a1.41,1.41,0,0,0-1.56-1.29c-1.08,0-1.85.84-1.85,2.24v.1c0,1.49.73,2.27,1.88,2.27a1.55,1.55,0,0,0,1.64-1.46h1.45a2.9,2.9,0,0,1-3.15,2.67A3.25,3.25,0,0,1,83.48,403.63Z" fill="#fff"/><path d="M91.21,397h1.58v6.14l2.43-3h1.71l-2.64,3.12L97.15,407H95.33l-2.54-3.35V407H91.21Z" fill="#fff"/><path d="M100.6,402.36v-.11a4.56,4.56,0,0,1,4.7-4.73,4.49,4.49,0,0,1,4.68,4.69v.11a4.69,4.69,0,1,1-9.38,0Zm7.59,0v-.1c0-1.92-1.07-3.33-2.89-3.33s-2.9,1.34-2.9,3.34v.1c0,2,1.24,3.34,2.93,3.34S108.19,404.34,108.19,402.33Z" fill="#fff"/><path d="M111.32,400.15h1.58v1.07a2.33,2.33,0,0,1,2.19-1.22c1.37,0,2.33.8,2.33,2.67V407h-1.57v-4.14c0-1-.42-1.49-1.35-1.49a1.5,1.5,0,0,0-1.6,1.62v4h-1.58Z" fill="#fff"/><path d="M119.07,397h1.57V407h-1.57Z" fill="#fff"/><path d="M122.23,398.13a.94.94,0,0,1,1.87,0,.94.94,0,0,1-1.87,0Zm.17,2H124V407H122.4Z" fill="#fff"/><path d="M125.69,400.15h1.57v1.07a2.35,2.35,0,0,1,2.2-1.22c1.36,0,2.32.8,2.32,2.67V407h-1.57v-4.14c0-1-.41-1.49-1.35-1.49a1.51,1.51,0,0,0-1.6,1.62v4h-1.57Z" fill="#fff"/><path d="M132.94,403.62v-.11a3.31,3.31,0,0,1,3.38-3.51,3.07,3.07,0,0,1,3.21,3.43v.46h-5c.06,1.29.7,2,1.88,2,.94,0,1.44-.38,1.56-1h1.52c-.22,1.42-1.38,2.21-3.12,2.21A3.26,3.26,0,0,1,132.94,403.62Zm5-.78c-.08-1.17-.67-1.69-1.65-1.69a1.74,1.74,0,0,0-1.74,1.69Z" fill="#fff"/></g></g></g></svg>