<svg xmlns="http://www.w3.org/2000/svg" viewBox="0 0 300 600"><title>300x600</title><g id="Layer_2" data-name="Layer 2"><g id="Optional_loan_from_Axos_Bank_could_be_within_minutes_of_filing" data-name="Optional loan from Axos Bank® could be within minutes of filing"><path d="M20.5,465v-.08a3.16,3.16,0,1,1,6.31,0v.07a3.16,3.16,0,1,1-6.31,0Zm5.5,0v-.07a2.37,2.37,0,0,0-2.34-2.61,2.34,2.34,0,0,0-2.35,2.62v.08a2.42,2.42,0,0,0,2.37,2.62A2.35,2.35,0,0,0,26,464.92Z" fill="#fff"/><path d="M27.92,463.42h.75v.79a1.94,1.94,0,0,1,1.59-.88,2.14,2.14,0,0,1,2.14,2.37v.07a2.17,2.17,0,0,1-2.14,2.43,1.78,1.78,0,0,1-1.59-.85v2.41h-.75Zm3.71,2.39v-.07c0-1.19-.66-1.78-1.45-1.78s-1.54.57-1.54,1.78v.07c0,1.21.63,1.77,1.55,1.77S31.63,467,31.63,465.81Z" fill="#fff"/><path d="M33.59,466.94V464h-.67v-.62h.67v-1.08h.75v1.08h1.1V464h-1.1v2.83c0,.46.2.69.58.69a1.59,1.59,0,0,0,.58-.1v.63a1.85,1.85,0,0,1-.64.1A1.15,1.15,0,0,1,33.59,466.94Z" fill="#fff"/><path d="M36.37,461.94a.51.51,0,0,1,.5-.5.5.5,0,0,1,.49.5.49.49,0,0,1-.49.49A.5.5,0,0,1,36.37,461.94Zm.14,1.48h.74v4.7h-.74Z" fill="#fff"/><path d="M38.3,465.81v-.07a2.31,2.31,0,1,1,4.62,0v.07a2.31,2.31,0,1,1-4.62,0Zm3.85,0v-.06c0-1.09-.6-1.79-1.54-1.79a1.56,1.56,0,0,0-1.54,1.78v.07a1.55,1.55,0,1,0,3.08,0Z" fill="#fff"/><path d="M44,463.42h.75v.74a1.6,1.6,0,0,1,1.51-.83c1,0,1.66.53,1.66,1.9v2.89h-.75v-2.94c0-.83-.35-1.2-1.11-1.2a1.24,1.24,0,0,0-1.31,1.29v2.85H44Z" fill="#fff"/><path d="M48.81,466.82c0-1.09,1.15-1.46,2.36-1.46h.67V465c0-.75-.29-1.06-1-1.06s-1,.26-1.08.84H49a1.65,1.65,0,0,1,1.86-1.47A1.52,1.52,0,0,1,52.59,465v3.1h-.75v-.59a1.68,1.68,0,0,1-1.46.67C49.5,468.2,48.81,467.78,48.81,466.82Zm3-.34v-.59h-.65c-.94,0-1.63.23-1.63.93,0,.48.23.79.89.79S51.84,467.21,51.84,466.48Z" fill="#fff"/><path d="M53.94,461.16h.75v7h-.75Z" fill="#fff"/><path d="M58.36,461.16h.75v7h-.75Z" fill="#fff"/><path d="M60.16,465.81v-.07a2.32,2.32,0,1,1,4.63,0v.07a2.32,2.32,0,1,1-4.63,0Zm3.85,0v-.06c0-1.09-.6-1.79-1.54-1.79a1.56,1.56,0,0,0-1.54,1.78v.07a1.55,1.55,0,1,0,3.08,0Z" fill="#fff"/><path d="M65.42,466.82c0-1.09,1.15-1.46,2.36-1.46h.68V465c0-.75-.29-1.06-1-1.06s-1,.26-1.08.84h-.75a1.65,1.65,0,0,1,1.86-1.47A1.52,1.52,0,0,1,69.2,465v3.1h-.74v-.59a1.7,1.7,0,0,1-1.47.67C66.12,468.2,65.42,467.78,65.42,466.82Zm3-.34v-.59h-.65c-1,0-1.64.23-1.64.93,0,.48.23.79.89.79S68.46,467.21,68.46,466.48Z" fill="#fff"/><path d="M70.53,463.42h.75v.74a1.63,1.63,0,0,1,1.51-.83c1,0,1.66.53,1.66,1.9v2.89H73.7v-2.94c0-.83-.35-1.2-1.1-1.2a1.24,1.24,0,0,0-1.32,1.29v2.85h-.75Z" fill="#fff"/><path d="M78.19,464h-.67v-.62h.67v-.77c0-.95.47-1.51,1.41-1.51a1.4,1.4,0,0,1,.56.09v.63a1.41,1.41,0,0,0-.54-.1c-.48,0-.68.33-.68.81v.85h1.15V464H78.94v4.08h-.75Z" fill="#fff"/><path d="M81,463.42h.75v.84a1.64,1.64,0,0,1,1.55-.93V464c-1,0-1.55.34-1.55,1.5v2.58H81Z" fill="#fff"/><path d="M83.77,465.81v-.07a2.32,2.32,0,1,1,4.63,0v.07a2.32,2.32,0,1,1-4.63,0Zm3.86,0v-.06c0-1.09-.61-1.79-1.54-1.79s-1.54.7-1.54,1.78v.07c0,1.07.58,1.77,1.54,1.77A1.57,1.57,0,0,0,87.63,465.81Z" fill="#fff"/><path d="M89.43,463.42h.74v.71a1.54,1.54,0,0,1,1.41-.8,1.36,1.36,0,0,1,1.37.89,1.83,1.83,0,0,1,1.62-.89c.84,0,1.58.51,1.58,1.88v2.91H95.4v-3c0-.83-.35-1.17-1-1.17a1.21,1.21,0,0,0-1.24,1.26v2.88h-.75v-3c0-.83-.35-1.17-1-1.17a1.21,1.21,0,0,0-1.25,1.26v2.88h-.74Z" fill="#fff"/><path d="M101.51,461.69h1l2.18,6.43h-.78l-.63-1.85h-2.65l-.62,1.85H99.3Zm-.64,4h2.24L102,462.33Z" fill="#fff"/><path d="M106.84,465.7l-1.57-2.28h.87l1.15,1.7,1.14-1.7h.81l-1.55,2.23,1.72,2.47h-.89l-1.27-1.9-1.29,1.9h-.8Z" fill="#fff"/><path d="M109.7,465.81v-.07a2.32,2.32,0,1,1,4.63,0v.07a2.32,2.32,0,1,1-4.63,0Zm3.86,0v-.06c0-1.09-.61-1.79-1.54-1.79s-1.54.7-1.54,1.78v.07c0,1.07.58,1.77,1.54,1.77A1.57,1.57,0,0,0,113.56,465.81Z" fill="#fff"/><path d="M115,466.67h.73c0,.56.35.91,1.1.91s1-.24,1-.74-.37-.66-1.1-.8c-1.22-.22-1.64-.56-1.64-1.38a1.47,1.47,0,0,1,1.6-1.33,1.51,1.51,0,0,1,1.7,1.36h-.72c-.11-.51-.4-.73-1-.73s-.89.26-.89.67.23.59,1.09.75,1.66.39,1.66,1.39-.58,1.43-1.73,1.43S115,467.64,115,466.67Z" fill="#fff"/><path d="M121.84,461.69h1.94c1.2,0,2.07.39,2.07,1.66v0a1.32,1.32,0,0,1-1,1.36,1.41,1.41,0,0,1,1.28,1.54v0c0,1.22-.82,1.8-2.11,1.8h-2.21Zm1.94,2.81c.94,0,1.3-.35,1.3-1.14v0c0-.72-.42-1-1.32-1h-1.15v2.2Zm.25,3c.94,0,1.37-.41,1.37-1.2v0c0-.79-.44-1.17-1.48-1.17h-1.31v2.4Z" fill="#fff"/><path d="M126.86,466.82c0-1.09,1.16-1.46,2.36-1.46h.68V465c0-.75-.29-1.06-1-1.06s-1,.26-1.08.84h-.75a1.66,1.66,0,0,1,1.87-1.47,1.52,1.52,0,0,1,1.72,1.69v3.1h-.75v-.59a1.7,1.7,0,0,1-1.47.67C127.56,468.2,126.86,467.78,126.86,466.82Zm3-.34v-.59h-.65c-.94,0-1.64.23-1.64.93,0,.48.24.79.89.79C129.3,467.61,129.9,467.21,129.9,466.48Z" fill="#fff"/><path d="M132,463.42h.74v.74a1.63,1.63,0,0,1,1.52-.83c1,0,1.65.53,1.65,1.9v2.89h-.74v-2.94c0-.83-.36-1.2-1.11-1.2a1.24,1.24,0,0,0-1.32,1.29v2.85H132Z" fill="#fff"/><path d="M137.22,461.16H138v4.42l1.95-2.16h.88l-2,2.18,2.19,2.52h-.91L138,465.68v2.44h-.75Z" fill="#fff"/><path d="M141.16,462.49a1.16,1.16,0,0,1,1.17-1.16,1.16,1.16,0,1,1-1.17,1.16Zm2.12,0a1,1,0,1,0-.95,1A.93.93,0,0,0,143.28,462.49Zm-1.35-.59h.4c.27,0,.44.11.44.34h0a.31.31,0,0,1-.23.31l.3.49h-.26l-.28-.45h-.12v.45h-.25Zm.4.53c.13,0,.19-.06.19-.17h0c0-.12-.07-.16-.19-.16h-.15v.34Z" fill="#fff"/><path d="M146.25,465.82v-.07a2.3,2.3,0,0,1,2.29-2.42,1.84,1.84,0,0,1,2,1.65h-.74a1.17,1.17,0,0,0-1.3-1,1.59,1.59,0,0,0-1.52,1.79v.07c0,1.15.63,1.76,1.54,1.76a1.26,1.26,0,0,0,1.35-1.15h.7a2,2,0,0,1-2.06,1.77A2.23,2.23,0,0,1,146.25,465.82Z" fill="#fff"/><path d="M151.25,465.81v-.07a2.31,2.31,0,1,1,4.62,0v.07a2.31,2.31,0,1,1-4.62,0Zm3.85,0v-.06c0-1.09-.6-1.79-1.54-1.79s-1.54.7-1.54,1.78v.07c0,1.07.58,1.77,1.54,1.77A1.57,1.57,0,0,0,155.1,465.81Z" fill="#fff"/><path d="M156.85,466.39v-3h.75v2.94c0,.83.35,1.2,1.09,1.2a1.24,1.24,0,0,0,1.29-1.29v-2.85h.75v4.7H160v-.74a1.59,1.59,0,0,1-1.49.82C157.55,468.2,156.85,467.69,156.85,466.39Z" fill="#fff"/><path d="M162.13,461.16h.75v7h-.75Z" fill="#fff"/><path d="M163.93,465.86v-.07a2.24,2.24,0,0,1,2.19-2.46,1.68,1.68,0,0,1,1.54.84v-3h.75v7h-.75v-.81a2,2,0,0,1-1.61.89A2.1,2.1,0,0,1,163.93,465.86Zm3.76-.06v-.07c0-1.21-.58-1.77-1.5-1.77s-1.49.65-1.49,1.79v.08c0,1.19.64,1.75,1.43,1.75S167.69,467,167.69,465.8Z" fill="#fff"/><path d="M172.78,467.35v.77H172v-7h.75v3a1.94,1.94,0,0,1,1.6-.88,2.14,2.14,0,0,1,2.14,2.37v.07a2.18,2.18,0,0,1-2.14,2.43A1.79,1.79,0,0,1,172.78,467.35Zm3-1.54v-.07c0-1.19-.65-1.78-1.45-1.78s-1.54.57-1.54,1.78v.07c0,1.21.63,1.77,1.55,1.77S175.74,467,175.74,465.81Z" fill="#fff"/><path d="M177.19,465.82v-.07a2.22,2.22,0,0,1,2.21-2.42,2.06,2.06,0,0,1,2.11,2.34v.25H178c0,1.07.54,1.66,1.51,1.66.73,0,1.15-.27,1.25-.82h.75a1.82,1.82,0,0,1-2,1.44A2.21,2.21,0,0,1,177.19,465.82Zm3.56-.51c-.07-1-.58-1.35-1.35-1.35a1.41,1.41,0,0,0-1.41,1.35Z" fill="#fff"/><path d="M184.27,463.42h.81l1.09,3.79,1.15-3.79H188l1.07,3.79,1.1-3.79h.77l-1.47,4.7h-.83l-1-3.53-1.1,3.53h-.82Z" fill="#fff"/><path d="M191.66,461.94a.51.51,0,0,1,.5-.5.5.5,0,0,1,.49.5.49.49,0,0,1-.49.49A.5.5,0,0,1,191.66,461.94Zm.14,1.48h.75v4.7h-.75Z" fill="#fff"/><path d="M194.1,466.94V464h-.67v-.62h.67v-1.08h.75v1.08H196V464h-1.1v2.83c0,.46.21.69.58.69a1.59,1.59,0,0,0,.58-.1v.63a1.85,1.85,0,0,1-.64.1A1.15,1.15,0,0,1,194.1,466.94Z" fill="#fff"/><path d="M197,461.16h.75v3a1.61,1.61,0,0,1,1.51-.83c1,0,1.66.53,1.66,1.9v2.89h-.75v-2.94c0-.83-.35-1.2-1.11-1.2a1.24,1.24,0,0,0-1.31,1.29v2.85H197Z" fill="#fff"/><path d="M202.13,461.94a.5.5,0,1,1,1,0,.5.5,0,0,1-1,0Zm.14,1.48H203v4.7h-.74Z" fill="#fff"/><path d="M204.41,463.42h.74v.74a1.63,1.63,0,0,1,1.52-.83c1,0,1.65.53,1.65,1.9v2.89h-.74v-2.94c0-.83-.36-1.2-1.11-1.2a1.24,1.24,0,0,0-1.32,1.29v2.85h-.74Z" fill="#fff"/><path d="M211.9,463.42h.75v.71a1.54,1.54,0,0,1,1.41-.8,1.36,1.36,0,0,1,1.37.89,1.82,1.82,0,0,1,1.61-.89c.85,0,1.59.51,1.59,1.88v2.91h-.75v-3c0-.83-.35-1.17-1-1.17a1.21,1.21,0,0,0-1.24,1.26v2.88h-.75v-3c0-.83-.35-1.17-1-1.17a1.21,1.21,0,0,0-1.24,1.26v2.88h-.75Z" fill="#fff"/><path d="M219.84,461.94a.51.51,0,0,1,.5-.5.5.5,0,0,1,.49.5.49.49,0,0,1-.49.49A.5.5,0,0,1,219.84,461.94Zm.14,1.48h.74v4.7H220Z" fill="#fff"/><path d="M222.12,463.42h.75v.74a1.6,1.6,0,0,1,1.51-.83c1,0,1.66.53,1.66,1.9v2.89h-.75v-2.94c0-.83-.35-1.2-1.11-1.2a1.24,1.24,0,0,0-1.31,1.29v2.85h-.75Z" fill="#fff"/><path d="M227.32,466.39v-3h.75v2.94c0,.83.35,1.2,1.09,1.2a1.24,1.24,0,0,0,1.29-1.29v-2.85h.75v4.7h-.75v-.74a1.59,1.59,0,0,1-1.49.82C228,468.2,227.32,467.69,227.32,466.39Z" fill="#fff"/><path d="M232.74,466.94V464h-.68v-.62h.68v-1.08h.75v1.08h1.09V464h-1.09v2.83c0,.46.2.69.58.69a1.59,1.59,0,0,0,.58-.1v.63a1.94,1.94,0,0,1-.64.1A1.15,1.15,0,0,1,232.74,466.94Z" fill="#fff"/><path d="M235.29,465.82v-.07a2.22,2.22,0,0,1,2.2-2.42,2.06,2.06,0,0,1,2.12,2.34v.25h-3.55c0,1.07.55,1.66,1.51,1.66.73,0,1.15-.27,1.25-.82h.75a1.81,1.81,0,0,1-2,1.44A2.2,2.2,0,0,1,235.29,465.82Zm3.55-.51c-.07-1-.57-1.35-1.35-1.35a1.4,1.4,0,0,0-1.4,1.35Z" fill="#fff"/><path d="M240.27,466.67H241c.05.56.35.91,1.11.91s1-.24,1-.74-.36-.66-1.09-.8c-1.23-.22-1.64-.56-1.64-1.38a1.46,1.46,0,0,1,1.59-1.33,1.5,1.5,0,0,1,1.7,1.36H243c-.11-.51-.39-.73-1-.73s-.89.26-.89.67.24.59,1.1.75,1.66.39,1.66,1.39-.59,1.43-1.73,1.43S240.32,467.64,240.27,466.67Z" fill="#fff"/><path d="M246.74,465.81v-.07a2.32,2.32,0,1,1,4.63,0v.07a2.32,2.32,0,1,1-4.63,0Zm3.86,0v-.06c0-1.09-.61-1.79-1.54-1.79s-1.54.7-1.54,1.78v.07c0,1.07.58,1.77,1.54,1.77A1.57,1.57,0,0,0,250.6,465.81Z" fill="#fff"/><path d="M252.56,464h-.68v-.62h.68v-.77c0-.95.46-1.51,1.4-1.51a1.4,1.4,0,0,1,.56.09v.63a1.35,1.35,0,0,0-.53-.1c-.49,0-.69.33-.69.81v.85h1.16V464H253.3v4.08h-.74Z" fill="#fff"/><path d="M257.79,464h-.68v-.62h.68v-.77c0-.95.46-1.51,1.4-1.51a1.4,1.4,0,0,1,.56.09v.63a1.39,1.39,0,0,0-.53-.1c-.49,0-.69.33-.69.81v.85h1.15V464h-1.15v4.08h-.74Z" fill="#fff"/><path d="M260.49,461.94a.5.5,0,0,1,.49-.5.51.51,0,0,1,.5.5.5.5,0,0,1-.5.49A.49.49,0,0,1,260.49,461.94Zm.13,1.48h.75v4.7h-.75Z" fill="#fff"/><path d="M262.78,461.16h.76v7h-.76Z" fill="#fff"/><path d="M264.81,461.94a.51.51,0,0,1,.5-.5.5.5,0,0,1,.49.5.49.49,0,0,1-.49.49A.5.5,0,0,1,264.81,461.94Zm.14,1.48h.75v4.7H265Z" fill="#fff"/><path d="M267.09,463.42h.75v.74a1.61,1.61,0,0,1,1.51-.83c1,0,1.66.53,1.66,1.9v2.89h-.75v-2.94c0-.83-.35-1.2-1.11-1.2a1.24,1.24,0,0,0-1.31,1.29v2.85h-.75Z" fill="#fff"/><path d="M272.09,468.39h.76c.11.54.56.82,1.36.82a1.32,1.32,0,0,0,1.51-1.45v-.68a2,2,0,0,1-1.59.89,2.12,2.12,0,0,1-2.14-2.23v-.07a2.23,2.23,0,0,1,2.19-2.34,1.68,1.68,0,0,1,1.54.84v-.75h.75v4.39a2,2,0,0,1-2.25,2C272.82,469.84,272.21,469.19,272.09,468.39Zm3.66-2.71v-.06a1.46,1.46,0,0,0-1.49-1.66,1.5,1.5,0,0,0-1.5,1.68v.07a1.49,1.49,0,0,0,1.45,1.64A1.52,1.52,0,0,0,275.75,465.68Z" fill="#fff"/><path d="M277.78,467.59a.57.57,0,0,1,.58-.57.58.58,0,1,1-.58.57Z" fill="#fff"/><path d="M20.81,470.69h1L25,476v-5.32h.75v6.43h-.9l-3.25-5.52v5.52h-.75Z" fill="#fff"/><path d="M26.79,474.81v-.07a2.31,2.31,0,1,1,4.62,0v.07a2.31,2.31,0,1,1-4.62,0Zm3.85,0v-.06c0-1.09-.6-1.79-1.54-1.79s-1.54.7-1.54,1.78v.07a1.55,1.55,0,1,0,3.08,0Z" fill="#fff"/><path d="M32.6,475.94V473h-.68v-.62h.68v-1.08h.75v1.08h1.1V473h-1.1v2.83c0,.46.2.69.58.69a1.59,1.59,0,0,0,.58-.1v.63a1.85,1.85,0,0,1-.64.1A1.15,1.15,0,0,1,32.6,475.94Z" fill="#fff"/><path d="M39.06,476.64l-1.84-4.22H38l1.44,3.37,1.3-3.37h.77l-2.6,6.34h-.76Z" fill="#fff"/><path d="M41.89,474.81v-.07a2.32,2.32,0,1,1,4.63,0v.07a2.32,2.32,0,1,1-4.63,0Zm3.85,0v-.06c0-1.09-.6-1.79-1.54-1.79a1.56,1.56,0,0,0-1.54,1.78v.07a1.55,1.55,0,1,0,3.08,0Z" fill="#fff"/><path d="M47.5,475.39v-3h.74v2.94c0,.83.35,1.2,1.09,1.2a1.25,1.25,0,0,0,1.3-1.29v-2.85h.75v4.7h-.75v-.74a1.61,1.61,0,0,1-1.5.82C48.2,477.2,47.5,476.69,47.5,475.39Z" fill="#fff"/><path d="M52.75,472.42h.75v.84a1.64,1.64,0,0,1,1.55-.93V473c-.95,0-1.55.34-1.55,1.5v2.58h-.75Z" fill="#fff"/><path d="M58.41,475.94V473h-.67v-.62h.67v-1.08h.75v1.08h1.1V473h-1.1v2.83c0,.46.21.69.58.69a1.59,1.59,0,0,0,.58-.1v.63a1.85,1.85,0,0,1-.64.1A1.15,1.15,0,0,1,58.41,475.94Z" fill="#fff"/><path d="M61,475.82c0-1.09,1.15-1.46,2.36-1.46H64V474c0-.75-.29-1.06-1-1.06s-1,.26-1.08.84h-.74A1.64,1.64,0,0,1,63,472.33,1.52,1.52,0,0,1,64.75,474v3.1H64v-.59a1.69,1.69,0,0,1-1.47.67C61.66,477.2,61,476.78,61,475.82Zm3-.34v-.59h-.65c-.94,0-1.64.23-1.64.93,0,.48.24.79.9.79S64,476.21,64,475.48Z" fill="#fff"/><path d="M67.26,474.7l-1.58-2.28h.88l1.15,1.7,1.14-1.7h.81l-1.56,2.23,1.72,2.47h-.88l-1.27-1.9-1.29,1.9h-.8Z" fill="#fff"/><path d="M73,472.42h.74v.84a1.66,1.66,0,0,1,1.55-.93V473c-.94,0-1.55.34-1.55,1.5v2.58H73Z" fill="#fff"/><path d="M75.71,474.82v-.07a2.22,2.22,0,0,1,2.21-2.42A2.06,2.06,0,0,1,80,474.67v.25H76.48c0,1.07.55,1.66,1.52,1.66.73,0,1.15-.27,1.25-.82H80a1.8,1.8,0,0,1-2,1.44A2.21,2.21,0,0,1,75.71,474.82Zm3.56-.51c-.08-1-.58-1.35-1.35-1.35a1.41,1.41,0,0,0-1.41,1.35Z" fill="#fff"/><path d="M81.2,473h-.68v-.62h.68v-.77c0-.95.47-1.51,1.4-1.51a1.37,1.37,0,0,1,.56.09v.63a1.32,1.32,0,0,0-.53-.1c-.49,0-.68.33-.68.81v.85H83.1V473H82v4.08H81.2Z" fill="#fff"/><path d="M84,475.39v-3h.75v2.94c0,.83.35,1.2,1.09,1.2a1.24,1.24,0,0,0,1.29-1.29v-2.85h.75v4.7H87.1v-.74a1.59,1.59,0,0,1-1.49.82C84.67,477.2,84,476.69,84,475.39Z" fill="#fff"/><path d="M89.23,472.42H90v.74a1.63,1.63,0,0,1,1.52-.83c1,0,1.65.53,1.65,1.9v2.89H92.4v-2.94c0-.83-.36-1.2-1.11-1.2A1.24,1.24,0,0,0,90,474.27v2.85h-.74Z" fill="#fff"/><path d="M94.12,474.86v-.07a2.24,2.24,0,0,1,2.2-2.46,1.69,1.69,0,0,1,1.54.84v-3h.75v7h-.75v-.81a2,2,0,0,1-1.61.89A2.1,2.1,0,0,1,94.12,474.86Zm3.77-.06v-.07c0-1.21-.58-1.77-1.5-1.77s-1.49.65-1.49,1.79v.08c0,1.19.64,1.75,1.43,1.75S97.89,476,97.89,474.8Z" fill="#fff"/><path d="M99.92,476.59a.58.58,0,1,1,.58.58A.57.57,0,0,1,99.92,476.59Z" fill="#fff"/><rect width="300" height="600" fill="none"/></g></g></svg>