<svg xmlns="http://www.w3.org/2000/svg" viewBox="0 0 239.31 63.63"><title>cta</title><g id="Layer_2" data-name="Layer 2"><g id="CTA"><g id="Rectangle_1" data-name="Rectangle 1"><rect width="239.31" height="63.63" fill="none"/></g><g id="Buy_now" data-name="Buy now"><path d="M66.58,19.63h7.87c4.37,0,6.64,1.79,6.64,5.21V25a4.11,4.11,0,0,1-3.25,4.28c2.6.54,4,2,4,4.71v.11c0,3.67-2.41,5.6-7,5.6H66.58Zm7.14,8.23c2.19,0,3-.78,3-2.57v-.12c0-1.68-1-2.43-3.08-2.43H71v5.12Zm.39,8.65c2.24,0,3.25-1,3.25-2.82v-.12c0-1.84-1-2.8-3.47-2.8H71v5.74Z" fill="#262626"/><path d="M84.14,34.44V25h4v8.87c0,2,.81,2.94,2.55,2.94a2.91,2.91,0,0,0,3-3.22V25h4V39.65h-4v-2.3A4.86,4.86,0,0,1,89.12,40C86.27,40,84.14,38.28,84.14,34.44Z" fill="#262626"/><path d="M105.39,38.17,99.57,25h4.36l3.56,8.79L110.77,25h3.89l-7.93,19.62h-3.92Z" fill="#262626"/><path d="M122.22,25h4.06v2.32A5,5,0,0,1,131,24.67c2.88,0,4.93,1.74,4.93,5.66v9.32h-4.06V30.91c0-2-.79-2.94-2.58-2.94a2.9,2.9,0,0,0-3.05,3.22v8.46h-4.06Z" fill="#262626"/><path d="M138.12,32.48v-.22a7.35,7.35,0,0,1,7.73-7.59c4.39,0,7.7,2.94,7.7,7.5v.23c0,4.62-3.33,7.56-7.73,7.56S138.12,37.05,138.12,32.48Zm11.31,0v-.2c0-2.8-1.31-4.48-3.58-4.48s-3.59,1.62-3.59,4.42v.23c0,2.8,1.29,4.48,3.59,4.48S149.43,35.2,149.43,32.43Z" fill="#262626"/><path d="M154.11,25h4.26l2.6,9.85L163.8,25h3.33l2.58,9.85L172.48,25h3.89l-4.62,14.64h-4l-2.49-9.18-2.69,9.18h-4Z" fill="#262626"/></g></g></g></svg>