<svg xmlns="http://www.w3.org/2000/svg" viewBox="0 0 1456 180"><title>txt</title><g id="Layer_2" data-name="Layer 2"><g id="Get_more_with_Block_tax_software." data-name="Get more with Block  tax software."><path d="M241.86,62.08V61.6c0-13.11,9.63-22,22.55-22,10.17,0,19.19,4.63,20,15.81H272.23c-.6-4-3.19-6.13-7.75-6.13-6.08,0-9.75,4.69-9.75,12.45v.48c0,7,2.59,12.39,10,12.39,6,0,8.29-3.07,8.53-6.49h-8.05v-8.6h20.2v5.29c0,11-7.15,19.19-21,19.19C249.8,84,241.86,75,241.86,62.08Z" fill="#13aa40"/><path d="M287.93,68V67.5c0-10.11,7.52-16.49,17-16.49,8.6,0,16,4.94,16,16.24v2.83H298.81c.31,4.15,2.71,6.56,6.56,6.56,3.55,0,5.05-1.63,5.47-3.73h10.1C320,80,314.51,84,305,84,295.15,84,287.93,78.26,287.93,68Zm22.55-4c-.18-3.79-2-5.9-5.53-5.9-3.25,0-5.47,2.11-6,5.9Z" fill="#13aa40"/><path d="M326.12,73.21v-14h-3.79V51.86h3.79V45.3h10.76v6.56h6.2v7.33h-6.2v13c0,2.28,1.14,3.31,3.19,3.31a8.27,8.27,0,0,0,3.07-.55v8.18a22.23,22.23,0,0,1-6,.91C330.09,84,326.12,80.61,326.12,73.21Z" fill="#13aa40"/><path d="M358.11,51.86h10.77v4.81A11,11,0,0,1,378.74,51c4.15,0,7,1.81,8.54,5.24A12.46,12.46,0,0,1,397.68,51C403.63,51,408,54.86,408,62.74V83.31H397.2V64.55c0-3.19-1.56-4.75-4-4.75-2.89,0-4.81,1.86-4.81,5.29V83.31H377.72V64.55c0-3.19-1.57-4.75-4-4.75-2.89,0-4.81,1.86-4.81,5.29V83.31H358.11Z" fill="#13aa40"/><path d="M411.52,68V67.5C411.52,57.39,419,51,428.77,51s17.14,6.2,17.14,16.18v.49c0,10.22-7.51,16.36-17.2,16.36S411.52,78.14,411.52,68ZM435,67.8v-.49c0-5.29-2.11-8.24-6.2-8.24s-6.25,2.83-6.25,8.12v.49c0,5.41,2.11,8.36,6.25,8.36S435,73,435,67.8Z" fill="#13aa40"/><path d="M449.7,51.86h10.77v6.25c2-4.69,5.29-6.74,10.16-6.67v10c-6.55-.18-10.16,1.86-10.16,6.92V83.31H449.7Z" fill="#13aa40"/><path d="M472.56,68V67.5c0-10.11,7.51-16.49,17-16.49,8.59,0,16,4.94,16,16.24v2.83H483.44c.3,4.15,2.71,6.56,6.56,6.56,3.54,0,5.05-1.63,5.47-3.73h10.1C504.61,80,499.14,84,489.64,84,479.77,84,472.56,78.26,472.56,68Zm22.55-4c-.18-3.79-2.05-5.9-5.53-5.9-3.25,0-5.48,2.11-6,5.9Z" fill="#13aa40"/><path d="M517.6,51.86h11.25l4.57,18.82,5.29-18.82h8.66l4.69,18.82,5.11-18.82h10.22l-10,31.45H547.13l-4.69-17.56-4.87,17.56H527.1Z" fill="#13aa40"/><path d="M569.92,43.31a5.94,5.94,0,1,1,5.89,5.54A5.62,5.62,0,0,1,569.92,43.31Zm.54,8.55h10.77V83.31H570.46Z" fill="#13aa40"/><path d="M588.44,73.21v-14h-3.78V51.86h3.78V45.3h10.77v6.56h6.19v7.33h-6.19v13c0,2.28,1.14,3.31,3.19,3.31a8.18,8.18,0,0,0,3.06-.55v8.18a22.15,22.15,0,0,1-6,.91C592.41,84,588.44,80.61,588.44,73.21Z" fill="#13aa40"/><path d="M609.49,38h10.77V56.91c1.68-3.25,5.11-5.9,10.34-5.9,6.07,0,10.28,3.79,10.28,11.85V83.31H630.12V65c0-3.55-1.38-5.29-4.51-5.29s-5.35,1.92-5.35,5.95V83.31H609.49Z" fill="#13aa40"/><path d="M658,40.31h19.19c10.16,0,14.49,4.57,14.49,11.25v.24c0,4.81-2.47,8-7.28,9.26,5.3.9,8.6,4.09,8.6,10v.24c0,7.7-5,12-15.63,12H658Zm16.72,17.08c3.85,0,5.29-1.32,5.29-4.39v-.24c0-2.95-1.56-4.27-5.29-4.27h-4.69v8.9Zm.42,17.68c3.91,0,5.72-1.8,5.72-5v-.24c0-3.25-1.75-4.93-6.08-4.93h-4.75V75.07Z" fill="#13aa40"/><path d="M697.3,38H708V83.31H697.3Z" fill="#13aa40"/><path d="M712.09,68V67.5c0-10.11,7.52-16.49,17.26-16.49s17.14,6.2,17.14,16.18v.49C746.49,77.9,739,84,729.29,84S712.09,78.14,712.09,68Zm23.45-.18v-.49c0-5.29-2.1-8.24-6.19-8.24s-6.26,2.83-6.26,8.12v.49c0,5.41,2.11,8.36,6.26,8.36S735.54,73,735.54,67.8Z" fill="#13aa40"/><path d="M748.59,68V67.5C748.59,57,756.11,51,765.37,51c7.7,0,14.8,3.37,15.4,12.94H770.66c-.48-3-1.92-4.58-5-4.58-3.79,0-6,2.71-6,8v.49c0,5.47,2.1,8.3,6.19,8.3,3,0,5.11-1.81,5.47-5.24H781c-.3,7.94-5.66,13.12-15.82,13.12C755.75,84,748.59,78.56,748.59,68Z" fill="#13aa40"/><path d="M784.44,38H795.2V64.31l8.48-12.45h11.19L804.58,66l11.13,17.32h-12L795.2,69.54V83.31H784.44Z" fill="#13aa40"/><path d="M244.63,135.23v-14h-3.79v-7.34h3.79v-6.55h10.76v6.55h6.2v7.34h-6.2v13c0,2.29,1.15,3.31,3.19,3.31a8.24,8.24,0,0,0,3.07-.54v8.18a22.62,22.62,0,0,1-5.95.9C248.6,146.06,244.63,142.63,244.63,135.23Z" fill="#13aa40"/><path d="M264,136.62c0-7.4,6.25-10.29,16.71-10.29h3v-.72c0-3-.72-5-4.15-5a3.86,3.86,0,0,0-4.27,3.73H265.2c.48-7.58,6.43-11.31,15-11.31s14.19,3.55,14.19,11.91v20.39H284v-3.67c-1.5,2.29-4.27,4.39-9.32,4.39C269,146.06,264,143.29,264,136.62Zm19.72-2.29v-1.92h-2.83c-4.33,0-6.25.84-6.25,3.43,0,1.8,1.2,2.94,3.73,2.94C281.43,138.78,283.72,137,283.72,134.33Z" fill="#13aa40"/><path d="M307.59,129.34l-9.8-15.46h12.39l4.87,8.3,4.75-8.3h11.07l-9.93,14.62,10.89,16.84H319.44L313.85,136l-5.71,9.38h-11Z" fill="#13aa40"/><path d="M343.68,135.35h9.92c.36,2.29,1.38,3.55,4.45,3.55,2.65,0,3.85-1,3.85-2.58s-1.5-2.23-5.83-2.83c-8.42-1.08-12-3.55-12-10.11,0-7,6.19-10.34,13.47-10.34,7.76,0,13.17,2.65,13.89,10.17h-9.74c-.42-2.11-1.56-3.13-4-3.13s-3.55,1-3.55,2.46,1.44,2.11,5.29,2.59c8.72,1.08,12.93,3.37,12.93,10.1,0,7.46-5.53,10.83-14.25,10.83C349.15,146.06,343.92,142.33,343.68,135.35Z" fill="#13aa40"/><path d="M374.35,130v-.48c0-10.1,7.52-16.48,17.26-16.48s17.14,6.19,17.14,16.18v.48c0,10.23-7.52,16.36-17.2,16.36S374.35,140.17,374.35,130Zm23.45-.18v-.48c0-5.29-2.1-8.24-6.19-8.24s-6.26,2.83-6.26,8.12v.48c0,5.41,2.11,8.36,6.26,8.36S397.8,135.05,397.8,129.82Z" fill="#13aa40"/><path d="M414.16,121.22h-4v-7.34h4v-2.77c0-7.82,4.87-11.54,12.33-11.54a19.22,19.22,0,0,1,4.93.66v7.88a9.89,9.89,0,0,0-2.95-.42c-2.52,0-3.61,1.38-3.61,3.42v2.77h6.38v7.34h-6.38v24.12h-10.7Z" fill="#13aa40"/><path d="M436.59,135.23v-14H432.8v-7.34h3.79v-6.55h10.76v6.55h6.2v7.34h-6.2v13c0,2.29,1.15,3.31,3.19,3.31a8.24,8.24,0,0,0,3.07-.54v8.18a22.62,22.62,0,0,1-5.95.9C440.56,146.06,436.59,142.63,436.59,135.23Z" fill="#13aa40"/><path d="M455,113.88h11.25l4.57,18.83,5.29-18.83h8.66l4.69,18.83,5.11-18.83h10.23l-10,31.46H484.52l-4.69-17.56L475,145.34H464.49Z" fill="#13aa40"/><path d="M504.55,136.62c0-7.4,6.25-10.29,16.72-10.29h3v-.72c0-3-.72-5-4.15-5a3.87,3.87,0,0,0-4.27,3.73h-10.1c.48-7.58,6.44-11.31,15-11.31S535,116.59,535,125v20.39H524.51v-3.67c-1.5,2.29-4.27,4.39-9.32,4.39C509.54,146.06,504.55,143.29,504.55,136.62Zm19.72-2.29v-1.92h-2.82c-4.33,0-6.26.84-6.26,3.43,0,1.8,1.2,2.94,3.73,2.94C522,138.78,524.27,137,524.27,134.33Z" fill="#13aa40"/><path d="M540.21,113.88H551v6.26c2-4.69,5.3-6.74,10.17-6.68v10c-6.56-.17-10.17,1.87-10.17,6.92v14.92H540.21Z" fill="#13aa40"/><path d="M563.06,130v-.48c0-10.1,7.52-16.48,17-16.48,8.6,0,16,4.93,16,16.24v2.83H574c.3,4.15,2.7,6.55,6.55,6.55,3.55,0,5-1.62,5.47-3.73h10.11c-1,7.1-6.44,11.13-15.94,11.13C570.28,146.06,563.06,140.29,563.06,130Zm22.55-4c-.18-3.79-2-5.89-5.53-5.89-3.25,0-5.47,2.1-6,5.89Z" fill="#13aa40"/><path d="M599.09,139.93a6,6,0,0,1,6.13-6.08,6.08,6.08,0,1,1,0,12.15A6,6,0,0,1,599.09,139.93Z" fill="#13aa40"/><rect width="1456" height="180" fill="none"/></g></g></svg>