<svg xmlns="http://www.w3.org/2000/svg" viewBox="0 0 300 600"><title>H212</title><g id="Layer_2" data-name="Layer 2"><g id="Artboard_4" data-name="Artboard 4" style="isolation:isolate"><g id="Open_and_ready_to_get_your_maximum_refund_today." data-name="Open and ready to  get your maximum refund today."><path d="M23.06,94.58v-.41c0-11.28,8.48-18.84,19.56-18.84,11.28,0,19.61,7.09,19.61,18.58v.41c0,11.38-7.82,19.15-19.77,19.15S23.06,105.7,23.06,94.58Zm28.09-.1v-.42c0-6.57-3.31-10.45-8.53-10.45s-8.49,3.78-8.49,10.5v.42c0,6.72,3.42,10.61,8.54,10.61S51.15,101.1,51.15,94.48Z" fill="#fff"/><path d="M65.8,85.78h9.26v4a9.54,9.54,0,0,1,8.43-4.76c6.32,0,11.44,4.76,11.44,14v.42c0,9.31-5.12,14-11.49,14-4.09,0-7-1.92-8.38-4.61v13H65.8ZM85.51,99.5v-.42c0-4.76-2.07-7-5.33-7s-5.38,2.44-5.38,7v.41c0,4.61,2,6.94,5.38,6.94S85.51,104,85.51,99.5Z" fill="#fff"/><path d="M96.84,99.65v-.41c0-8.7,6.47-14.18,14.65-14.18,7.4,0,13.76,4.24,13.76,14v2.43h-19c.26,3.57,2.33,5.64,5.64,5.64,3.05,0,4.35-1.4,4.71-3.21h8.69c-.83,6.11-5.54,9.58-13.71,9.58C103.05,113.47,96.84,108.5,96.84,99.65Zm19.41-3.41c-.16-3.26-1.76-5.07-4.76-5.07-2.8,0-4.71,1.81-5.18,5.07Z" fill="#fff"/><path d="M128.46,85.78h9.26v4.35a9.56,9.56,0,0,1,8.9-5.07c5.23,0,8.85,3.26,8.85,10.19v17.6h-9.26V97.12c0-3.06-1.19-4.56-3.88-4.56s-4.61,1.66-4.61,5.12v15.17h-9.26Z" fill="#fff"/><path d="M167.83,105.34c0-6.36,5.39-8.85,14.39-8.85h2.59v-.62c0-2.58-.62-4.29-3.57-4.29a3.33,3.33,0,0,0-3.68,3.21h-8.69c.41-6.52,5.54-9.73,12.93-9.73S194,88.11,194,95.3v17.55h-9v-3.16c-1.29,2-3.67,3.78-8,3.78C172.13,113.47,167.83,111.09,167.83,105.34Zm17-2v-1.66h-2.44c-3.72,0-5.38.72-5.38,3,0,1.55,1,2.54,3.21,2.54C182.84,107.21,184.81,105.7,184.81,103.38Z" fill="#fff"/><path d="M198.52,85.78h9.26v4.35a9.56,9.56,0,0,1,8.9-5.07c5.23,0,8.85,3.26,8.85,10.19v17.6h-9.26V97.12c0-3.06-1.19-4.56-3.89-4.56s-4.6,1.66-4.6,5.12v15.17h-9.26Z" fill="#fff"/><path d="M228.68,99.6v-.41c0-9.21,5.07-14.13,11.49-14.13,4.24,0,6.78,1.81,8.33,4.55V73.88h9.26v39H248.5v-4.4a9.11,9.11,0,0,1-8.43,5C233.81,113.47,228.68,109,228.68,99.6Zm20.08-.16V99c0-4.55-1.91-7-5.33-7s-5.33,2.33-5.33,7v.42c0,4.55,2,6.88,5.23,6.88S248.76,104.05,248.76,99.44Z" fill="#fff"/><path d="M24.2,142.67h9.26v5.38c1.71-4,4.55-5.79,8.74-5.74V151c-5.64-.16-8.74,1.6-8.74,6v12.83H24.2Z" fill="#fff"/><path d="M43.86,156.54v-.42c0-8.69,6.47-14.17,14.64-14.17,7.4,0,13.77,4.24,13.77,14v2.43h-19c.25,3.57,2.32,5.64,5.63,5.64,3.06,0,4.35-1.4,4.71-3.21h8.7c-.83,6.11-5.54,9.57-13.72,9.57C50.07,170.35,43.86,165.39,43.86,156.54Zm19.4-3.42c-.15-3.26-1.76-5.07-4.76-5.07-2.79,0-4.71,1.81-5.17,5.07Z" fill="#fff"/><path d="M74.18,162.23c0-6.37,5.38-8.85,14.39-8.85h2.58v-.62c0-2.59-.62-4.29-3.57-4.29a3.32,3.32,0,0,0-3.67,3.2H75.22c.41-6.52,5.53-9.72,12.93-9.72s12.21,3.05,12.21,10.24v17.54h-9v-3.15c-1.29,2-3.67,3.77-8,3.77C78.48,170.35,74.18,168,74.18,162.23Zm17-2v-1.65H88.72c-3.72,0-5.38.72-5.38,2.95,0,1.55,1,2.53,3.21,2.53C89.19,164.09,91.15,162.59,91.15,160.26Z" fill="#fff"/><path d="M103.52,156.49v-.42c0-9.21,5.07-14.12,11.49-14.12,4.24,0,6.77,1.81,8.33,4.55V130.77h9.26v39h-9.26v-4.4a9.12,9.12,0,0,1-8.44,5C108.64,170.35,103.52,165.85,103.52,156.49Zm20.07-.16v-.41c0-4.56-1.91-7-5.32-7s-5.33,2.33-5.33,7v.41c0,4.56,2,6.88,5.22,6.88C121.52,163.26,123.59,160.94,123.59,156.33Z" fill="#fff"/><path d="M145.79,167,135,142.67h10l5.59,14.44,5.17-14.44h8.85l-14.49,36.12h-8.85Z" fill="#fff"/><path d="M177.67,161V149h-3.26v-6.31h3.26V137h9.26v5.64h5.33V149h-5.33v11.18c0,2,1,2.85,2.74,2.85a7.06,7.06,0,0,0,2.64-.47v7a19.49,19.49,0,0,1-5.12.77C181.08,170.35,177.67,167.4,177.67,161Z" fill="#fff"/><path d="M194.33,156.54v-.42c0-8.69,6.47-14.17,14.85-14.17s14.74,5.33,14.74,13.91v.42c0,8.8-6.46,14.07-14.79,14.07S194.33,165.28,194.33,156.54Zm20.18-.16V156c0-4.55-1.81-7.09-5.33-7.09s-5.38,2.43-5.38,7v.42c0,4.66,1.81,7.19,5.38,7.19S214.51,160.88,214.51,156.38Z" fill="#fff"/><path d="M22.7,226.62h9.21c.41,2,1.6,3.52,5,3.52,4.09,0,5.75-2.33,5.75-5.7v-4.13a9.51,9.51,0,0,1-8.39,5c-6.31,0-11.48-4.65-11.48-13v-.42c0-8,5.12-13,11.48-13,4.3,0,6.83,1.81,8.39,4.56v-3.83h9.26v24.78c0,8.07-5.33,12.32-15,12.32C27.66,236.66,23.42,232.78,22.7,226.62Zm20.18-14.39v-.36c0-3.72-1.92-6.1-5.33-6.1s-5.33,2.43-5.33,6.15v.42c0,3.72,2,6.1,5.27,6.1S42.88,216.06,42.88,212.23Z" fill="#fff"/><path d="M55.14,213.42V213c0-8.69,6.47-14.18,14.64-14.18,7.4,0,13.77,4.25,13.77,14v2.43h-19c.26,3.58,2.33,5.64,5.64,5.64,3.06,0,4.35-1.39,4.71-3.2h8.7c-.83,6.1-5.54,9.57-13.72,9.57C61.35,227.24,55.14,222.27,55.14,213.42ZM74.54,210c-.15-3.26-1.76-5.07-4.76-5.07-2.79,0-4.71,1.81-5.17,5.07Z" fill="#fff"/><path d="M88,217.93V205.87H84.74v-6.31H88v-5.64h9.26v5.64h5.33v6.31H97.26v11.18c0,2,1,2.84,2.74,2.84a7.06,7.06,0,0,0,2.64-.46v7a19.43,19.43,0,0,1-5.12.78C91.41,227.24,88,224.29,88,217.93Z" fill="#fff"/><path d="M124,223.88l-10.82-24.32h10L128.82,214,134,199.56h8.85l-14.49,36.11h-8.84Z" fill="#fff"/><path d="M142.33,213.42V213c0-8.69,6.46-14.18,14.85-14.18s14.74,5.33,14.74,13.92v.42c0,8.79-6.47,14.07-14.8,14.07S142.33,222.17,142.33,213.42Zm20.17-.15v-.42c0-4.55-1.81-7.08-5.32-7.08s-5.39,2.43-5.39,7v.42c0,4.65,1.82,7.19,5.39,7.19S162.5,217.77,162.5,213.27Z" fill="#fff"/><path d="M175,217.2V199.56h9.27V215.7c0,3.05,1.19,4.55,3.83,4.55,2.79,0,4.6-1.65,4.6-5.12V199.56h9.26v27.06h-9.26v-4.19c-1.45,2.79-4.09,4.81-8.59,4.81C178.86,227.24,175,224,175,217.2Z" fill="#fff"/><path d="M206.64,199.56h9.26v5.38c1.71-4,4.56-5.8,8.75-5.75v8.65c-5.64-.16-8.75,1.6-8.75,5.95v12.83h-9.26Z" fill="#fff"/><path d="M24.2,256.44h9.26v4.14a9.46,9.46,0,0,1,8.48-4.86c3.57,0,6.06,1.55,7.35,4.5a10.72,10.72,0,0,1,9-4.5c5.13,0,8.85,3.31,8.85,10.09V283.5H57.83V267.36c0-2.74-1.35-4.09-3.47-4.09-2.48,0-4.14,1.61-4.14,4.56V283.5H41.06V267.36c0-2.74-1.34-4.09-3.46-4.09-2.49,0-4.14,1.61-4.14,4.56V283.5H24.2Z" fill="#fff"/><path d="M70,276c0-6.36,5.38-8.85,14.39-8.85H87v-.62c0-2.58-.62-4.29-3.57-4.29a3.33,3.33,0,0,0-3.67,3.21H71.08c.41-6.52,5.53-9.73,12.93-9.73s12.21,3,12.21,10.24V283.5h-9v-3.15c-1.29,2-3.67,3.78-8,3.78C74.34,284.13,70,281.75,70,276Zm17-2v-1.66H84.58c-3.72,0-5.38.72-5.38,2.95,0,1.55,1,2.53,3.21,2.53C85.05,277.86,87,276.36,87,274Z" fill="#fff"/><path d="M107.56,269.74l-8.44-13.3h10.66l4.19,7.14,4.09-7.14h9.52L119,269l9.37,14.48H117.75l-4.81-8.07L108,283.5H98.55Z" fill="#fff"/><path d="M130.79,249.1a5.11,5.11,0,1,1,5.07,4.76A4.83,4.83,0,0,1,130.79,249.1Zm.46,7.34h9.27V283.5h-9.27Z" fill="#fff"/><path d="M145.48,256.44h9.26v4.14a9.48,9.48,0,0,1,8.49-4.86c3.57,0,6.05,1.55,7.35,4.5a10.71,10.71,0,0,1,8.95-4.5c5.12,0,8.85,3.31,8.85,10.09V283.5h-9.26V267.36c0-2.74-1.35-4.09-3.47-4.09-2.48,0-4.14,1.61-4.14,4.56V283.5h-9.16V267.36c0-2.74-1.35-4.09-3.47-4.09-2.48,0-4.14,1.61-4.14,4.56V283.5h-9.26Z" fill="#fff"/><path d="M192.67,274.09V256.44h9.26v16.15c0,3.05,1.19,4.55,3.83,4.55,2.8,0,4.61-1.66,4.61-5.12V256.44h9.26V283.5h-9.26v-4.19c-1.45,2.8-4.09,4.82-8.59,4.82C196.55,284.13,192.67,280.92,192.67,274.09Z" fill="#fff"/><path d="M224.34,256.44h9.26v4.14a9.47,9.47,0,0,1,8.49-4.86c3.57,0,6,1.55,7.34,4.5a10.72,10.72,0,0,1,8.95-4.5c5.13,0,8.85,3.31,8.85,10.09V283.5H258V267.36c0-2.74-1.34-4.09-3.47-4.09-2.48,0-4.14,1.61-4.14,4.56V283.5h-9.15V267.36c0-2.74-1.35-4.09-3.47-4.09-2.48,0-4.14,1.61-4.14,4.56V283.5h-9.26Z" fill="#fff"/><path d="M24.2,313.33h9.26v5.38c1.71-4,4.55-5.79,8.74-5.74v8.64c-5.64-.16-8.74,1.6-8.74,5.95v12.83H24.2Z" fill="#fff"/><path d="M43.86,327.2v-.42c0-8.69,6.47-14.17,14.64-14.17,7.4,0,13.77,4.24,13.77,14V329h-19c.25,3.57,2.32,5.64,5.63,5.64,3.06,0,4.35-1.4,4.71-3.21h8.7c-.83,6.11-5.54,9.57-13.72,9.57C50.07,341,43.86,336,43.86,327.2Zm19.4-3.42c-.15-3.26-1.76-5.07-4.76-5.07-2.79,0-4.71,1.81-5.17,5.07Z" fill="#fff"/><path d="M76.87,319.64H73.46v-6.31h3.41V311c0-6.73,4.19-9.93,10.61-9.93a16.51,16.51,0,0,1,4.24.56v6.78a8.72,8.72,0,0,0-2.53-.36c-2.18,0-3.11,1.19-3.11,2.95v2.38h5.49v6.31H86.08v20.75H76.87Z" fill="#fff"/><path d="M94.46,331V313.33h9.27v16.14c0,3.06,1.19,4.56,3.82,4.56,2.8,0,4.61-1.66,4.61-5.13V313.33h9.26v27.06h-9.26V336.2c-1.45,2.79-4.09,4.81-8.59,4.81C98.34,341,94.46,337.8,94.46,331Z" fill="#fff"/><path d="M126.13,313.33h9.26v4.35a9.55,9.55,0,0,1,8.9-5.07c5.23,0,8.85,3.26,8.85,10.19v17.59h-9.26V324.66c0-3.05-1.19-4.55-3.88-4.55s-4.61,1.65-4.61,5.12v15.16h-9.26Z" fill="#fff"/><path d="M156.3,327.15v-.42c0-9.21,5.07-14.12,11.48-14.12,4.25,0,6.78,1.81,8.33,4.55V301.43h9.27v39h-9.27V336a9.1,9.1,0,0,1-8.43,5C161.42,341,156.3,336.51,156.3,327.15Zm20.07-.16v-.41c0-4.56-1.91-7-5.33-7s-5.33,2.33-5.33,7V327c0,4.56,2,6.88,5.23,6.88C174.3,333.92,176.37,331.6,176.37,327Z" fill="#fff"/><path d="M25.44,388.58V376.53H22.18v-6.31h3.26v-5.64H34.7v5.64H40v6.31H34.7v11.18c0,2,1,2.84,2.74,2.84a6.87,6.87,0,0,0,2.64-.47v7a19.43,19.43,0,0,1-5.12.78C28.85,397.9,25.44,395,25.44,388.58Z" fill="#fff"/><path d="M42.1,384.08v-.41c0-8.69,6.47-14.18,14.85-14.18s14.75,5.33,14.75,13.92v.41c0,8.8-6.47,14.08-14.8,14.08S42.1,392.83,42.1,384.08Zm20.18-.15v-.42c0-4.55-1.81-7.09-5.33-7.09s-5.38,2.44-5.38,7v.41c0,4.66,1.81,7.2,5.38,7.2S62.28,388.43,62.28,383.93Z" fill="#fff"/><path d="M73.61,384v-.41c0-9.21,5.07-14.13,11.49-14.13,4.24,0,6.78,1.81,8.33,4.55V358.32h9.26v39H93.43v-4.4a9.14,9.14,0,0,1-8.44,5C78.73,397.9,73.61,393.4,73.61,384Zm20.08-.15v-.42c0-4.55-1.92-7-5.33-7s-5.33,2.33-5.33,7v.42c0,4.55,2,6.88,5.22,6.88C91.62,390.81,93.69,388.48,93.69,383.88Z" fill="#fff"/><path d="M105.85,389.77c0-6.36,5.38-8.84,14.38-8.84h2.59v-.62c0-2.59-.62-4.3-3.57-4.3a3.33,3.33,0,0,0-3.68,3.21h-8.69c.42-6.52,5.54-9.73,12.94-9.73S132,372.54,132,379.74v17.54h-9v-3.16c-1.3,2-3.68,3.78-8,3.78C110.14,397.9,105.85,395.52,105.85,389.77Zm17-2v-1.66h-2.43c-3.73,0-5.38.73-5.38,3,0,1.55,1,2.54,3.2,2.54C120.85,391.64,122.82,390.14,122.82,387.81Z" fill="#fff"/><path d="M144.09,394.54l-10.82-24.32h10l5.59,14.43,5.17-14.43h8.85l-14.49,36.11h-8.85Z" fill="#fff"/><path d="M161,392.62a5.16,5.16,0,0,1,5.28-5.23,5.23,5.23,0,1,1,0,10.46A5.16,5.16,0,0,1,161,392.62Z" fill="#fff"/></g><g id="Layer_10" data-name="Layer 10"><rect width="300" height="600" fill="none"/></g></g></g></svg>