<svg xmlns="http://www.w3.org/2000/svg" viewBox="0 0 300 600"><title>H3</title><g id="Layer_2" data-name="Layer 2"><g id="Rect"><rect width="300" height="600" fill="none"/></g><g id="H3"><g id="You_could_get_a_Refund_Advance_loan_up_to_3_500._Starting_Jan" data-name="You could get a Refund Advance loan up to $3,500. Starting Jan"><path d="M31.89,44.92,19.43,23H31.36l6.47,12.9L44.3,23H54.79L42.91,44.92V61.29h-11Z" fill="#fff"/><path d="M50.78,47.64v-.42c0-9,6.69-14.66,15.35-14.66S81.38,38.07,81.38,47v.43c0,9.09-6.69,14.55-15.3,14.55S50.78,56.68,50.78,47.64Zm20.86-.16v-.43c0-4.7-1.87-7.32-5.51-7.32S60.57,42.24,60.57,47v.43c0,4.81,1.87,7.43,5.56,7.43S71.64,52.14,71.64,47.48Z" fill="#fff"/><path d="M84.54,51.55V33.31h9.57V50c0,3.15,1.23,4.71,4,4.71,2.89,0,4.76-1.72,4.76-5.3V33.31h9.58v28h-9.58V57c-1.5,2.89-4.22,5-8.88,5C88.55,61.93,84.54,58.61,84.54,51.55Z" fill="#fff"/><path d="M125.52,47.64v-.42c0-9.31,6.68-14.66,14.92-14.66,6.85,0,13.16,3,13.7,11.5h-9c-.43-2.62-1.71-4.07-4.49-4.07-3.37,0-5.35,2.41-5.35,7.12v.43c0,4.86,1.87,7.38,5.51,7.38,2.67,0,4.54-1.61,4.87-4.66h8.61c-.27,7.07-5,11.67-14.07,11.67C131.88,61.93,125.52,57.06,125.52,47.64Z" fill="#fff"/><path d="M155.9,47.64v-.42c0-9,6.69-14.66,15.36-14.66S186.5,38.07,186.5,47v.43c0,9.09-6.68,14.55-15.29,14.55S155.9,56.68,155.9,47.64Zm20.87-.16v-.43c0-4.7-1.87-7.32-5.51-7.32s-5.57,2.51-5.57,7.22v.43c0,4.81,1.88,7.43,5.57,7.43S176.77,52.14,176.77,47.48Z" fill="#fff"/><path d="M189.66,51.55V33.31h9.58V50c0,3.15,1.23,4.71,4,4.71,2.89,0,4.76-1.72,4.76-5.3V33.31h9.57v28H208V57c-1.5,2.89-4.23,5-8.88,5C193.67,61.93,189.66,58.61,189.66,51.55Z" fill="#fff"/><path d="M222.67,21h9.52V61.29h-9.52Z" fill="#fff"/><path d="M235.94,47.59v-.43c0-9.52,5.24-14.6,11.88-14.6,4.38,0,7,1.87,8.61,4.7V21H266V61.29h-9.57V56.74a9.43,9.43,0,0,1-8.72,5.19C241.24,61.93,235.94,57.27,235.94,47.59Zm20.76-.16V47c0-4.71-2-7.22-5.51-7.22s-5.51,2.41-5.51,7.27v.43c0,4.71,2.08,7.12,5.4,7.12C254.56,54.6,256.7,52.19,256.7,47.43Z" fill="#fff"/><path d="M20.28,114.79h9.53c.42,2,1.65,3.63,5.13,3.63,4.23,0,5.94-2.4,5.94-5.88v-4.28a9.81,9.81,0,0,1-8.67,5.13c-6.52,0-11.87-4.81-11.87-13.42v-.43c0-8.24,5.29-13.48,11.87-13.48,4.44,0,7.07,1.87,8.67,4.7v-4h9.58v25.62c0,8.35-5.51,12.73-15.52,12.73C25.42,125.16,21,121.15,20.28,114.79ZM41.15,99.91v-.37c0-3.85-2-6.31-5.51-6.31s-5.51,2.51-5.51,6.36V100c0,3.85,2,6.31,5.45,6.31S41.15,103.87,41.15,99.91Z" fill="#fff"/><path d="M53.83,101.14v-.42c0-9,6.69-14.66,15.14-14.66,7.65,0,14.23,4.38,14.23,14.44V103H63.51c.27,3.69,2.41,5.83,5.83,5.83,3.16,0,4.5-1.45,4.87-3.32h9c-.86,6.31-5.73,9.9-14.18,9.9C60.25,115.43,53.83,110.29,53.83,101.14Zm20.06-3.53c-.16-3.37-1.82-5.24-4.92-5.24-2.89,0-4.87,1.87-5.35,5.24Z" fill="#fff"/><path d="M87.8,105.8V93.33H84.43V86.81H87.8V81h9.58v5.84h5.51v6.52H97.38v11.56c0,2,1,2.94,2.83,2.94a7.34,7.34,0,0,0,2.73-.48v7.27a19.68,19.68,0,0,1-5.3.81C91.33,115.43,87.8,112.38,87.8,105.8Z" fill="#fff"/><path d="M114.66,107c0-6.58,5.56-9.15,14.87-9.15h2.67v-.64c0-2.68-.64-4.44-3.69-4.44a3.44,3.44,0,0,0-3.8,3.31h-9c.42-6.74,5.72-10,13.37-10s12.63,3.15,12.63,10.59v18.14h-9.31v-3.27c-1.34,2-3.8,3.91-8.3,3.91C119.1,115.43,114.66,113,114.66,107Zm17.54-2v-1.72h-2.51c-3.85,0-5.57.75-5.57,3,0,1.61,1.08,2.62,3.32,2.62C130.17,109,132.2,107.4,132.2,105Z" fill="#fff"/><path d="M22.69,130h15c10,0,15.57,4.07,15.57,12.15v.21a10,10,0,0,1-6.9,10.06l9.15,15.84H43.93l-7.76-13.7H33.6v13.7H22.69Zm14.45,17.44c3.69,0,5.51-1.55,5.51-4.65v-.21c0-3.11-1.93-4.34-5.46-4.34H33.6v9.2Z" fill="#fff"/><path d="M55.49,154.64v-.42c0-9,6.68-14.66,15.14-14.66,7.65,0,14.23,4.38,14.23,14.44v2.52H65.17c.27,3.69,2.41,5.83,5.83,5.83,3.16,0,4.49-1.45,4.87-3.32h9c-.86,6.31-5.73,9.9-14.18,9.9C61.91,168.93,55.49,163.79,55.49,154.64Zm20.06-3.53c-.16-3.37-1.82-5.24-4.92-5.24-2.89,0-4.87,1.87-5.35,5.24Z" fill="#fff"/><path d="M89.62,146.83H86.09v-6.52h3.53v-2.46c0-7,4.33-10.28,11-10.28a17.06,17.06,0,0,1,4.38.59v7a8.9,8.9,0,0,0-2.62-.37c-2.25,0-3.21,1.23-3.21,3v2.46h5.67v6.52H99.14v21.46H89.62Z" fill="#fff"/><path d="M107.81,158.55V140.31h9.57V157c0,3.15,1.24,4.71,4,4.71,2.89,0,4.76-1.72,4.76-5.3v-16.1h9.58v28H126.1V164c-1.49,2.89-4.22,5-8.88,5C111.82,168.93,107.81,165.61,107.81,158.55Z" fill="#fff"/><path d="M140.55,140.31h9.58v4.49a9.85,9.85,0,0,1,9.2-5.24c5.4,0,9.15,3.37,9.15,10.54v18.19H158.9V152c0-3.15-1.23-4.71-4-4.71s-4.76,1.72-4.76,5.3v15.68h-9.58Z" fill="#fff"/><path d="M171.74,154.59v-.43c0-9.52,5.24-14.6,11.88-14.6,4.38,0,7,1.87,8.61,4.7V128h9.58v40.29h-9.58v-4.55a9.42,9.42,0,0,1-8.72,5.19C177,168.93,171.74,164.27,171.74,154.59Zm20.76-.16V154c0-4.71-2-7.22-5.51-7.22s-5.51,2.41-5.51,7.27v.43c0,4.71,2.08,7.12,5.4,7.12C190.36,161.6,192.5,159.19,192.5,154.43Z" fill="#fff"/><path d="M32,183.53H46.12l12.15,38.26H46.66l-2-7.12H32l-2,7.12H19.7Zm2.14,23.6h8.4l-4.18-14.71Z" fill="#fff"/><path d="M58.91,208.09v-.43c0-9.52,5.24-14.6,11.88-14.6,4.38,0,7,1.87,8.61,4.7V181.5H89v40.29H79.4v-4.55a9.42,9.42,0,0,1-8.72,5.19C64.21,222.43,58.91,217.77,58.91,208.09Zm20.76-.16v-.43c0-4.71-2-7.22-5.51-7.22s-5.51,2.41-5.51,7.27V208c0,4.71,2.08,7.12,5.4,7.12C77.53,215.1,79.67,212.69,79.67,207.93Z" fill="#fff"/><path d="M91.44,193.81h10.22l5.83,18,5.72-18h9.15l-10.22,28H101.71Z" fill="#fff"/><path d="M122,214c0-6.58,5.56-9.15,14.87-9.15h2.67v-.64c0-2.68-.64-4.44-3.69-4.44a3.43,3.43,0,0,0-3.79,3.31h-9c.43-6.74,5.72-10.05,13.37-10.05s12.63,3.15,12.63,10.59v18.14h-9.31v-3.27c-1.34,2-3.8,3.91-8.29,3.91C126.43,222.43,122,220,122,214Zm17.54-2v-1.72H137c-3.85,0-5.56.75-5.56,3.05,0,1.61,1.07,2.62,3.31,2.62C137.5,216,139.53,214.4,139.53,212Z" fill="#fff"/><path d="M153.71,193.81h9.58v4.49a9.88,9.88,0,0,1,9.2-5.24c5.4,0,9.15,3.37,9.15,10.54v18.19h-9.58V205.52c0-3.15-1.23-4.71-4-4.71s-4.76,1.72-4.76,5.3v15.68h-9.58Z" fill="#fff"/><path d="M184.8,208.14v-.42c0-9.31,6.68-14.66,14.92-14.66,6.85,0,13.16,3,13.7,11.5h-9c-.43-2.62-1.71-4.07-4.49-4.07-3.37,0-5.35,2.41-5.35,7.12V208c0,4.86,1.87,7.38,5.51,7.38,2.67,0,4.54-1.61,4.86-4.66h8.62c-.27,7.07-5,11.67-14.07,11.67C191.16,222.43,184.8,217.56,184.8,208.14Z" fill="#fff"/><path d="M215.18,208.14v-.42c0-9,6.69-14.66,15.14-14.66,7.65,0,14.23,4.38,14.23,14.44V210H224.87c.26,3.69,2.4,5.83,5.83,5.83,3.15,0,4.49-1.45,4.87-3.32h9c-.85,6.31-5.72,9.9-14.17,9.9C221.6,222.43,215.18,217.29,215.18,208.14Zm20.07-3.53c-.17-3.37-1.82-5.24-4.93-5.24-2.89,0-4.86,1.87-5.35,5.24Z" fill="#fff"/><path d="M22.1,235h9.53v40.29H22.1Z" fill="#fff"/><path d="M35.26,261.64v-.42c0-9,6.69-14.66,15.36-14.66S65.86,252.07,65.86,261v.43c0,9.09-6.68,14.55-15.3,14.55S35.26,270.68,35.26,261.64Zm20.87-.16v-.43c0-4.7-1.88-7.32-5.51-7.32s-5.57,2.51-5.57,7.22v.43c0,4.81,1.88,7.43,5.57,7.43S56.13,266.14,56.13,261.48Z" fill="#fff"/><path d="M67.63,267.53c0-6.58,5.56-9.15,14.87-9.15h2.68v-.64c0-2.68-.64-4.44-3.69-4.44a3.44,3.44,0,0,0-3.8,3.31h-9c.43-6.74,5.72-10.05,13.37-10.05s12.63,3.15,12.63,10.59v18.14H85.39V272c-1.34,2-3.8,3.91-8.29,3.91C72.07,275.93,67.63,273.47,67.63,267.53Zm17.55-2v-1.72H82.66c-3.85,0-5.56.75-5.56,3.05,0,1.61,1.07,2.62,3.32,2.62C83.15,269.45,85.18,267.9,85.18,265.5Z" fill="#fff"/><path d="M99.36,247.31h9.57v4.49a9.88,9.88,0,0,1,9.2-5.24c5.41,0,9.15,3.37,9.15,10.54v18.19h-9.57V259c0-3.15-1.24-4.71-4-4.71s-4.76,1.72-4.76,5.3v15.68H99.36Z" fill="#fff"/><path d="M141.46,265.55V247.31H151V264c0,3.15,1.23,4.71,4,4.71,2.89,0,4.76-1.72,4.76-5.3v-16.1h9.58v28h-9.58V271c-1.49,2.89-4.22,5-8.87,5C145.47,275.93,141.46,272.61,141.46,265.55Z" fill="#fff"/><path d="M174.2,247.31h9.58v4.17a9.85,9.85,0,0,1,8.72-4.92c6.52,0,11.82,4.92,11.82,14.49v.43c0,9.63-5.3,14.45-11.88,14.45-4.22,0-7.27-2-8.66-4.76v13.48H174.2Zm20.38,14.17v-.43c0-4.92-2.14-7.27-5.51-7.27s-5.56,2.51-5.56,7.22v.43c0,4.76,2.08,7.17,5.56,7.17S194.58,266.08,194.58,261.48Z" fill="#fff"/><path d="M218.82,266.3V253.83h-3.37v-6.52h3.37v-5.84h9.57v5.84h5.51v6.52h-5.51v11.56c0,2,1,2.94,2.84,2.94a7.34,7.34,0,0,0,2.73-.48v7.27a19.68,19.68,0,0,1-5.3.81C222.35,275.93,218.82,272.88,218.82,266.3Z" fill="#fff"/><path d="M236,261.64v-.42c0-9,6.69-14.66,15.36-14.66s15.25,5.51,15.25,14.39v.43c0,9.09-6.69,14.55-15.31,14.55S236,270.68,236,261.64Zm20.87-.16v-.43c0-4.7-1.87-7.32-5.51-7.32s-5.57,2.51-5.57,7.22v.43c0,4.81,1.88,7.43,5.57,7.43S256.91,266.14,256.91,261.48Z" fill="#fff"/><path d="M28,311.28c-5.39-.37-8-3.24-8.23-7.36h5.77A2.94,2.94,0,0,0,28,306.85V302.3c-5.42-.78-7.73-2.75-7.73-7.08,0-3.77,3-6.49,7.73-6.83v-2.78h2.44v2.81c4.52.37,7.2,2.46,7.57,6.74H32.35a2.49,2.49,0,0,0-1.93-2.34v4.3c4.77.69,7.89,2.31,7.89,6.83,0,3.81-2.47,7-7.89,7.33v3.9H28Zm0-14.53v-4c-1.4.24-2.12,1-2.12,2S26.3,296.4,28,296.75Zm2.44,5.95v4.15a2.24,2.24,0,0,0,2.08-2.21C32.5,303.61,32.07,303.08,30.42,302.7Z" fill="#fff"/><path d="M40.21,316.21H50c.32,3.16,1.82,5.3,5.61,5.3,3.37,0,5-1.61,5-4.33,0-3-1.6-4.5-5-4.5H52.51v-6.79h2.84c3.42,0,5.08-1.55,5.08-4.23,0-2.3-1.5-3.8-4.39-3.8s-4.65,1.77-5.08,4.87H41.28c.48-7.54,5.51-12.73,15-12.73,9,0,14.39,4.12,14.39,10.49,0,4.27-2.46,7.06-6.47,8.23,4.39.91,7.44,4,7.44,8.67,0,7.28-5.41,12-15.52,12C45.51,329.43,40.53,324.5,40.21,316.21Z" fill="#fff"/><path d="M72.58,333.12l4.49-14.07L86,322.21l-7.7,13.1Z" fill="#fff"/><path d="M87.72,316.75h10c.37,2.67,1.44,4.44,5,4.44,3.16,0,4.61-2.36,4.61-5.4,0-3.43-1.88-5.46-5.19-5.46a7.83,7.83,0,0,0-6.32,2.73H89.22l.8-22.53H115.8v8H97.94L97.72,307c1.45-2.09,4.18-4.06,8.94-4.06,7,0,11.61,4.7,11.61,13,0,8.13-5.84,13.48-15.52,13.48C92.59,329.43,88,323.92,87.72,316.75Z" fill="#fff"/><path d="M120.94,310.49v-1.61c0-12.09,7.55-18.88,17.66-18.88s17.65,6.26,17.65,18.67v1.5c0,12.14-6.95,19.26-17.87,19.26C127.68,329.43,120.94,322.53,120.94,310.49Zm24.34-.11v-1.55c0-7-2-10.54-6.68-10.54s-6.69,3.48-6.69,10.54v1.61c0,7.11,2.09,10.48,6.79,10.48S145.28,317.44,145.28,310.38Z" fill="#fff"/><path d="M159.3,310.49v-1.61c0-12.09,7.54-18.88,17.66-18.88s17.65,6.26,17.65,18.67v1.5c0,12.14-7,19.26-17.87,19.26C166,329.43,159.3,322.53,159.3,310.49Zm24.34-.11v-1.55c0-7-2-10.54-6.68-10.54s-6.69,3.48-6.69,10.54v1.61c0,7.11,2.09,10.48,6.79,10.48S183.64,317.44,183.64,310.38Z" fill="#fff"/><path d="M195.52,324a5.33,5.33,0,0,1,5.46-5.4,5.4,5.4,0,1,1,0,10.8A5.33,5.33,0,0,1,195.52,324Z" fill="#fff"/><path d="M20.23,370.14H30.66c.27,2.73,1.5,5,6.05,5,3.15,0,4.92-1.56,4.92-3.8s-1.44-3-6.05-3.69c-10.8-1.29-14.44-4.5-14.44-12.2,0-6.9,5.67-11.93,14.82-11.93S50.35,347.35,51,355.43H40.88c-.37-2.73-1.93-4.12-4.92-4.12s-4.44,1.34-4.44,3.26c0,2.14,1.18,3.11,5.94,3.75,9.68,1.07,14.65,3.58,14.65,11.87,0,7-5.56,12.74-15.4,12.74C26,382.93,20.55,378.43,20.23,370.14Z" fill="#fff"/><path d="M56.93,373.3V360.83H53.56v-6.52h3.37v-5.84h9.58v5.84H72v6.52H66.51v11.56c0,2,1,2.94,2.83,2.94a7.34,7.34,0,0,0,2.73-.48v7.27a19.68,19.68,0,0,1-5.3.81C60.46,382.93,56.93,379.88,56.93,373.3Z" fill="#fff"/><path d="M74.16,374.53c0-6.58,5.56-9.15,14.87-9.15H91.7v-.64c0-2.68-.64-4.44-3.69-4.44a3.44,3.44,0,0,0-3.8,3.31h-9c.43-6.74,5.72-10.05,13.37-10.05s12.63,3.15,12.63,10.59v18.14H91.92V379c-1.34,2-3.8,3.91-8.29,3.91C78.6,382.93,74.16,380.47,74.16,374.53Zm17.54-2v-1.72H89.19c-3.85,0-5.56.75-5.56,3.05,0,1.61,1.07,2.62,3.31,2.62C89.67,376.45,91.7,374.9,91.7,372.5Z" fill="#fff"/><path d="M105.88,354.31h9.58v5.56c1.76-4.17,4.71-6,9-5.94v8.94c-5.83-.16-9,1.65-9,6.15v13.27h-9.58Z" fill="#fff"/><path d="M129.69,373.3V360.83h-3.37v-6.52h3.37v-5.84h9.58v5.84h5.51v6.52h-5.51v11.56c0,2,1,2.94,2.83,2.94a7.34,7.34,0,0,0,2.73-.48v7.27a19.68,19.68,0,0,1-5.3.81C133.22,382.93,129.69,379.88,129.69,373.3Z" fill="#fff"/><path d="M148.2,346.71a5.28,5.28,0,1,1,5.24,4.92A5,5,0,0,1,148.2,346.71Zm.48,7.6h9.58v28h-9.58Z" fill="#fff"/><path d="M163.39,354.31H173v4.49a9.88,9.88,0,0,1,9.2-5.24c5.4,0,9.15,3.37,9.15,10.54v18.19h-9.58V366c0-3.15-1.23-4.71-4-4.71S173,363,173,366.61v15.68h-9.58Z" fill="#fff"/><path d="M194.42,382.29H204c.42,2,1.65,3.63,5.13,3.63,4.23,0,5.94-2.4,5.94-5.88v-4.28a9.81,9.81,0,0,1-8.67,5.13c-6.52,0-11.87-4.81-11.87-13.42V367c0-8.24,5.29-13.48,11.87-13.48,4.44,0,7.07,1.87,8.67,4.7v-3.95h9.58v25.62c0,8.35-5.52,12.73-15.52,12.73C199.56,392.66,195.17,388.65,194.42,382.29Zm20.87-14.88V367c0-3.85-2-6.31-5.51-6.31s-5.51,2.51-5.51,6.36v.43c0,3.85,2,6.31,5.45,6.31S215.29,371.37,215.29,367.41Z" fill="#fff"/><path d="M20.77,435V426.8a12.87,12.87,0,0,0,4.65.75c3,0,5-1.34,5-5.3V397.53h11v24.83c0,9.2-4.71,13.91-13.7,13.91A14.67,14.67,0,0,1,20.77,435Z" fill="#fff"/><path d="M44.47,428c0-6.58,5.56-9.15,14.87-9.15H62v-.64c0-2.68-.64-4.44-3.69-4.44a3.44,3.44,0,0,0-3.8,3.31h-9c.42-6.74,5.72-10.05,13.37-10.05s12.63,3.15,12.63,10.59v18.14H62.23v-3.27c-1.34,2-3.8,3.91-8.29,3.91C48.91,436.43,44.47,434,44.47,428ZM62,426v-1.72H59.5c-3.85,0-5.56.75-5.56,3.05,0,1.61,1.06,2.62,3.31,2.62C60,430,62,428.4,62,426Z" fill="#fff"/><path d="M76.19,407.81h9.58v4.49a9.85,9.85,0,0,1,9.2-5.24c5.4,0,9.15,3.37,9.15,10.54v18.19H94.54V419.52c0-3.15-1.23-4.71-4-4.71s-4.76,1.72-4.76,5.3v15.68H76.19Z" fill="#fff"/><path d="M135.25,428.46H116.64v-4.12l15.94-26.81h13.21v23.38h4.92v7.55h-4.92v7.33H135.25Zm.27-7.55V405.77L127,420.91Z" fill="#fff"/><path d="M155.26,426.8V414.33h-3.37v-6.52h3.37V402h9.58v5.84h5.51v6.52h-5.51v11.56c0,2,1,2.94,2.83,2.94a7.3,7.3,0,0,0,2.73-.48v7.27a19.67,19.67,0,0,1-5.29.81C158.79,436.43,155.26,433.38,155.26,426.8Z" fill="#fff"/><path d="M174,395.5h9.57v16.8a9.88,9.88,0,0,1,9.2-5.24c5.41,0,9.15,3.37,9.15,10.54v18.19h-9.57V419.52c0-3.15-1.23-4.71-4-4.71s-4.76,1.72-4.76,5.3v15.68H174Z" fill="#fff"/><path d="M206.19,431a5.33,5.33,0,0,1,5.46-5.4,5.4,5.4,0,1,1,0,10.8A5.33,5.33,0,0,1,206.19,431Z" fill="#fff"/></g></g></g></svg>