<svg xmlns="http://www.w3.org/2000/svg" viewBox="0 0 1456 180"><title>H3</title><g id="Layer_2" data-name="Layer 2"><g id="Rectangle_4" data-name="Rectangle 4" style="isolation:isolate"><g id="Rectangle_4-2" data-name="Rectangle 4"><rect width="1456" height="180" fill="none"/></g></g><g id="POWER"><g id="Power_hour._Your_taxes_could_be_done_in_an_hour." data-name="Power hour. Your taxes could be done in an hour."><path d="M244.55,30.51H262.5c12.94,0,18.94,5.74,18.94,15.77v.27c0,9.9-6.66,15.24-18.34,15.24H258V77.7H244.55Zm17.36,22c4.36,0,6.67-2,6.67-5.94v-.26c0-4-2.38-5.68-6.6-5.68h-4V52.55Z" fill="#fff"/><path d="M282.5,60.87v-.53c0-11.09,8.25-18.08,18.94-18.08s18.81,6.8,18.81,17.75v.53c0,11.22-8.25,17.95-18.87,17.95S282.5,72,282.5,60.87Zm25.74-.2v-.53c0-5.8-2.31-9-6.8-9s-6.86,3.1-6.86,8.91v.53c0,5.94,2.31,9.17,6.86,9.17S308.24,66.41,308.24,60.67Z" fill="#fff"/><path d="M320.39,43.18h12.34l5,20.66,5.8-20.66h9.51l5.14,20.66,5.61-20.66H375L364.08,77.7H352.79l-5.15-19.27L342.3,77.7H330.82Z" fill="#fff"/><path d="M374.71,60.87v-.53c0-11.09,8.24-18.08,18.67-18.08,9.44,0,17.56,5.41,17.56,17.82v3.1H386.65c.33,4.55,3,7.19,7.19,7.19,3.9,0,5.55-1.78,6-4.09h11.09c-1.06,7.79-7.07,12.21-17.49,12.21C382.62,78.49,374.71,72.15,374.71,60.87Zm24.74-4.36c-.2-4.15-2.24-6.46-6.07-6.46-3.56,0-6,2.31-6.6,6.46Z" fill="#fff"/><path d="M415,43.18h11.81v6.87c2.18-5.15,5.81-7.4,11.16-7.33v11c-7.2-.2-11.16,2-11.16,7.59V77.7H415Z" fill="#fff"/><path d="M454.3,28h11.81V48.73c1.85-3.57,5.61-6.47,11.35-6.47,6.67,0,11.29,4.16,11.29,13V77.7H476.94V57.63c0-3.89-1.52-5.8-4.95-5.8s-5.88,2.11-5.88,6.53V77.7H454.3Z" fill="#fff"/><path d="M492.65,60.87v-.53c0-11.09,8.24-18.08,18.94-18.08s18.8,6.8,18.8,17.75v.53c0,11.22-8.24,17.95-18.87,17.95S492.65,72,492.65,60.87Zm25.73-.2v-.53c0-5.8-2.31-9-6.79-9s-6.87,3.1-6.87,8.91v.53c0,5.94,2.31,9.17,6.87,9.17S518.38,66.41,518.38,60.67Z" fill="#fff"/><path d="M534.29,65.69V43.18H546.1V63.77c0,3.9,1.52,5.81,4.89,5.81,3.56,0,5.87-2.11,5.87-6.53V43.18h11.81V77.7H556.86V72.35c-1.85,3.57-5.21,6.14-11,6.14C539.24,78.49,534.29,74.4,534.29,65.69Z" fill="#fff"/><path d="M574.68,43.18H586.5v6.87c2.17-5.15,5.8-7.4,11.15-7.33v11c-7.19-.2-11.15,2-11.15,7.59V77.7H574.68Z" fill="#fff"/><path d="M597.52,71.76a6.58,6.58,0,0,1,6.73-6.67,6.67,6.67,0,1,1,0,13.33A6.58,6.58,0,0,1,597.52,71.76Z" fill="#fff"/><path d="M641.14,57.5l-15.37-27h14.71l8,15.91,8-15.91h12.94l-14.65,27V77.7h-13.6Z" fill="#fff"/><path d="M664.44,60.87v-.53c0-11.09,8.25-18.08,18.94-18.08s18.81,6.8,18.81,17.75v.53c0,11.22-8.25,17.95-18.87,17.95S664.44,72,664.44,60.87Zm25.74-.2v-.53c0-5.8-2.31-9-6.8-9s-6.86,3.1-6.86,8.91v.53c0,5.94,2.31,9.17,6.86,9.17S690.18,66.41,690.18,60.67Z" fill="#fff"/><path d="M706.09,65.69V43.18H717.9V63.77c0,3.9,1.52,5.81,4.88,5.81,3.57,0,5.88-2.11,5.88-6.53V43.18h11.81V77.7H728.66V72.35c-1.85,3.57-5.22,6.14-11,6.14C711,78.49,706.09,74.4,706.09,65.69Z" fill="#fff"/><path d="M746.48,43.18h11.81v6.87c2.18-5.15,5.81-7.4,11.15-7.33v11c-7.19-.2-11.15,2-11.15,7.59V77.7H746.48Z" fill="#fff"/><path d="M787.33,66.61V51.23h-4.16v-8h4.16V36h11.81v7.19h6.8v8h-6.8V65.49c0,2.51,1.26,3.63,3.5,3.63a9,9,0,0,0,3.37-.6v9a24.63,24.63,0,0,1-6.54,1C791.69,78.49,787.33,74.73,787.33,66.61Z" fill="#fff"/><path d="M808.58,68.13c0-8.12,6.87-11.29,18.35-11.29h3.3v-.79c0-3.3-.79-5.48-4.56-5.48-3.23,0-4.42,1.92-4.68,4.1H809.9c.53-8.32,7.06-12.41,16.5-12.41S842,46.15,842,55.33V77.7H830.49v-4c-1.65,2.51-4.68,4.82-10.23,4.82C814.06,78.49,808.58,75.45,808.58,68.13Zm21.65-2.51V63.51h-3.1c-4.75,0-6.87.92-6.87,3.76,0,2,1.32,3.23,4.09,3.23C827.72,70.5,830.23,68.59,830.23,65.62Z" fill="#fff"/><path d="M856.43,60.14l-10.76-17h13.6l5.35,9.11,5.21-9.11H882l-10.89,16L883,77.7h-13.6l-6.14-10.3L857,77.7H845Z" fill="#fff"/><path d="M881.51,60.87v-.53c0-11.09,8.25-18.08,18.68-18.08,9.44,0,17.55,5.41,17.55,17.82v3.1H893.46c.33,4.55,3,7.19,7.19,7.19,3.89,0,5.54-1.78,6-4.09h11.08c-1,7.79-7.06,12.21-17.49,12.21C889.43,78.49,881.51,72.15,881.51,60.87Zm24.75-4.36c-.2-4.15-2.24-6.46-6.07-6.46-3.56,0-6,2.31-6.6,6.46Z" fill="#fff"/><path d="M919.86,66.74h10.89c.39,2.51,1.51,3.9,4.88,3.9,2.9,0,4.22-1.13,4.22-2.84s-1.65-2.44-6.4-3.1c-9.24-1.19-13.13-3.9-13.13-11.09,0-7.66,6.8-11.35,14.78-11.35,8.52,0,14.45,2.9,15.25,11.15H939.66c-.47-2.31-1.72-3.43-4.43-3.43s-3.89,1.12-3.89,2.71,1.58,2.31,5.81,2.83c9.57,1.19,14.19,3.7,14.19,11.09,0,8.18-6.08,11.88-15.64,11.88C925.86,78.49,920.12,74.4,919.86,66.74Z" fill="#fff"/><path d="M241.65,130.87v-.53c0-11.48,8.25-18.08,18.41-18.08,8.45,0,16.24,3.69,16.9,14.19H265.87c-.53-3.24-2.11-5-5.54-5-4.16,0-6.6,3-6.6,8.78v.53c0,6,2.31,9.1,6.79,9.1,3.3,0,5.61-2,6-5.74h10.62c-.33,8.71-6.2,14.39-17.35,14.39C249.5,148.49,241.65,142.48,241.65,130.87Z" fill="#fff"/><path d="M279.14,130.87v-.53c0-11.09,8.25-18.08,18.94-18.08s18.81,6.8,18.81,17.75v.53c0,11.22-8.25,18-18.88,18S279.14,142,279.14,130.87Zm25.74-.2v-.53c0-5.81-2.32-9-6.8-9s-6.87,3.1-6.87,8.91v.53c0,5.94,2.31,9.17,6.87,9.17S304.88,136.41,304.88,130.67Z" fill="#fff"/><path d="M320.78,135.69V113.18H332.6v20.59c0,3.9,1.51,5.81,4.88,5.81,3.56,0,5.87-2.11,5.87-6.53V113.18h11.82V147.7H343.35v-5.35c-1.84,3.57-5.21,6.14-11,6.14C325.73,148.49,320.78,144.4,320.78,135.69Z" fill="#fff"/><path d="M361.5,98h11.75v49.7H361.5Z" fill="#fff"/><path d="M377.87,130.8v-.53c0-11.74,6.47-18,14.65-18,5.41,0,8.65,2.31,10.63,5.81V98H415v49.7H403.15v-5.61a11.65,11.65,0,0,1-10.76,6.4C384.41,148.49,377.87,142.75,377.87,130.8Zm25.61-.2v-.52c0-5.81-2.44-8.91-6.8-8.91s-6.8,3-6.8,9v.53c0,5.81,2.58,8.78,6.67,8.78C400.84,139.45,403.48,136.48,403.48,130.6Z" fill="#fff"/><path d="M444.79,142.35v5.35H433V98h11.81v20.33a12.19,12.19,0,0,1,10.76-6.07c8.05,0,14.59,6.07,14.59,17.88v.53c0,11.88-6.54,17.82-14.65,17.82C450.34,148.49,446.51,146.05,444.79,142.35Zm13.34-11.68v-.53c0-6.07-2.64-9-6.8-9s-6.87,3.1-6.87,8.91v.52c0,5.88,2.58,8.85,6.87,8.85S458.13,136.35,458.13,130.67Z" fill="#fff"/><path d="M472.58,130.87v-.53c0-11.09,8.25-18.08,18.68-18.08,9.43,0,17.55,5.41,17.55,17.82v3.1H484.53c.33,4.55,3,7.19,7.19,7.19,3.89,0,5.54-1.78,6-4.09h11.09c-1.05,7.79-7.06,12.21-17.49,12.21C480.5,148.49,472.58,142.15,472.58,130.87Zm24.75-4.36c-.2-4.15-2.25-6.46-6.07-6.46-3.57,0-6,2.31-6.6,6.46Z" fill="#fff"/><path d="M523.2,130.8v-.53c0-11.74,6.47-18,14.65-18,5.41,0,8.65,2.31,10.63,5.81V98h11.81v49.7H548.48v-5.61a11.65,11.65,0,0,1-10.76,6.4C529.73,148.49,523.2,142.75,523.2,130.8Zm25.61-.2v-.52c0-5.81-2.44-8.91-6.8-8.91s-6.8,3-6.8,9v.53c0,5.81,2.58,8.78,6.67,8.78C546.17,139.45,548.81,136.48,548.81,130.6Z" fill="#fff"/><path d="M564.45,130.87v-.53c0-11.09,8.25-18.08,18.94-18.08s18.81,6.8,18.81,17.75v.53c0,11.22-8.25,18-18.87,18S564.45,142,564.45,130.87Zm25.74-.2v-.53c0-5.81-2.31-9-6.8-9s-6.86,3.1-6.86,8.91v.53c0,5.94,2.31,9.17,6.86,9.17S590.19,136.41,590.19,130.67Z" fill="#fff"/><path d="M606.36,113.18h11.81v5.55c1.85-3.57,5.61-6.47,11.35-6.47,6.67,0,11.29,4.16,11.29,13V147.7H629V127.63c0-3.89-1.52-5.8-5-5.8s-5.88,2.11-5.88,6.53V147.7H606.36Z" fill="#fff"/><path d="M644.71,130.87v-.53c0-11.09,8.25-18.08,18.67-18.08,9.44,0,17.56,5.41,17.56,17.82v3.1H656.65c.33,4.55,3,7.19,7.2,7.19,3.89,0,5.54-1.78,6-4.09h11.09c-1.06,7.79-7.06,12.21-17.49,12.21C652.63,148.49,644.71,142.15,644.71,130.87Zm24.75-4.36c-.2-4.15-2.25-6.46-6.08-6.46-3.56,0-6,2.31-6.6,6.46Z" fill="#fff"/><path d="M696.78,103.81a6.51,6.51,0,0,1,13,0c0,3.5-2.84,6.07-6.53,6.07S696.78,107.31,696.78,103.81Zm.59,9.37h11.82V147.7H697.37Z" fill="#fff"/><path d="M715.52,113.18h11.82v5.55c1.84-3.57,5.61-6.47,11.35-6.47,6.66,0,11.28,4.16,11.28,13V147.7H738.16V127.63c0-3.89-1.52-5.8-4.95-5.8s-5.87,2.11-5.87,6.53V147.7H715.52Z" fill="#fff"/><path d="M765.75,138.13c0-8.12,6.86-11.29,18.34-11.29h3.3v-.79c0-3.3-.79-5.48-4.55-5.48-3.23,0-4.42,1.92-4.69,4.1H767.07c.52-8.32,7.06-12.41,16.5-12.41s15.57,3.89,15.57,13.07V147.7H787.66v-4c-1.65,2.51-4.69,4.82-10.23,4.82C771.22,148.49,765.75,145.45,765.75,138.13Zm21.64-2.51v-2.11h-3.1c-4.75,0-6.86.92-6.86,3.76,0,2,1.32,3.23,4.09,3.23C784.89,140.5,787.39,138.59,787.39,135.62Z" fill="#fff"/><path d="M804.88,113.18H816.7v5.55c1.84-3.57,5.61-6.47,11.35-6.47,6.66,0,11.28,4.16,11.28,13V147.7H827.52V127.63c0-3.89-1.52-5.8-4.95-5.8s-5.87,2.11-5.87,6.53V147.7H804.88Z" fill="#fff"/><path d="M857.09,98H868.9v20.73c1.85-3.57,5.61-6.47,11.35-6.47,6.67,0,11.29,4.16,11.29,13V147.7H879.73V127.63c0-3.89-1.52-5.8-5-5.8s-5.88,2.11-5.88,6.53V147.7H857.09Z" fill="#fff"/><path d="M895.43,130.87v-.53c0-11.09,8.25-18.08,19-18.08s18.8,6.8,18.8,17.75v.53c0,11.22-8.25,18-18.87,18S895.43,142,895.43,130.87Zm25.74-.2v-.53c0-5.81-2.31-9-6.79-9s-6.87,3.1-6.87,8.91v.53c0,5.94,2.31,9.17,6.87,9.17S921.17,136.41,921.17,130.67Z" fill="#fff"/><path d="M937.08,135.69V113.18h11.81v20.59c0,3.9,1.52,5.81,4.89,5.81,3.56,0,5.87-2.11,5.87-6.53V113.18h11.81V147.7H959.65v-5.35c-1.85,3.57-5.21,6.14-10.95,6.14C942,148.49,937.08,144.4,937.08,135.69Z" fill="#fff"/><path d="M977.47,113.18h11.81v6.87c2.18-5.15,5.81-7.4,11.16-7.33v11c-7.2-.2-11.16,2.05-11.16,7.59V147.7H977.47Z" fill="#fff"/><path d="M1000.31,141.76a6.58,6.58,0,0,1,6.73-6.67,6.67,6.67,0,1,1,0,13.33A6.58,6.58,0,0,1,1000.31,141.76Z" fill="#fff"/></g></g></g></svg>