<svg xmlns="http://www.w3.org/2000/svg" viewBox="0 0 306 70.01"><title>306x70_cta</title><g id="Layer_2" data-name="Layer 2"><g id="POWER"><g id="CTA"><g id="Rectangle_1" data-name="Rectangle 1"><rect width="306" height="70.01" fill="none"/></g><g id="Find_an_office" data-name="Find an office"><path d="M55.57,21.09H70.25v4.06h-9.5V31.2h7.52v3.9H60.75V44H55.57Z" transform="translate(0 0)" fill="#262626"/><path d="M72.27,22.43A2.64,2.64,0,1,1,74.89,25,2.54,2.54,0,0,1,72.27,22.43Zm.35,4.8h4.61V44H72.62Z" transform="translate(0 0)" fill="#262626"/><path d="M81,27.23h4.64v2.65a5.78,5.78,0,0,1,5.44-3c3.29,0,5.63,2,5.63,6.47V44H92.08V34c0-2.27-.9-3.36-3-3.36s-3.48,1.22-3.48,3.68V44H81Z" transform="translate(0 0)" fill="#262626"/><path d="M99.21,35.84v-.26c0-5.5,3.17-8.74,7.36-8.74a5.58,5.58,0,0,1,5.28,2.88V19.64h4.61V44h-4.61V41.18a6.07,6.07,0,0,1-5.37,3.13C102.41,44.31,99.21,41.4,99.21,35.84ZM112,35.68v-.26c0-3.33-1.47-5-4-5s-4,1.76-4,5.08v.26c0,3.33,1.6,5,3.9,5S112,39.07,112,35.68Z" transform="translate(0 0)" fill="#262626"/><path d="M125.65,39.32c0-3.9,3.58-5.37,8.7-5.37h1.89v-.67c0-2-.61-3.08-2.72-3.08a2.52,2.52,0,0,0-2.85,2.37h-4.38c.28-4,3.42-5.73,7.51-5.73s7,1.67,7,6.21V44H136.3V42a5.69,5.69,0,0,1-5.05,2.36C128.21,44.31,125.65,42.84,125.65,39.32Zm10.59-1.21V36.7h-1.79c-2.69,0-4.26.58-4.26,2.37,0,1.21.73,2,2.43,2C134.67,41.08,136.24,40,136.24,38.11Z" transform="translate(0 0)" fill="#262626"/><path d="M144.3,27.23h4.64v2.65a5.79,5.79,0,0,1,5.44-3c3.3,0,5.63,2,5.63,6.47V44h-4.64V34c0-2.27-.89-3.36-2.94-3.36a3.32,3.32,0,0,0-3.49,3.68V44H144.3Z" transform="translate(0 0)" fill="#262626"/><path d="M169.1,35.77v-.25c0-5.25,3.81-8.68,8.83-8.68s8.8,3.36,8.8,8.58v.26c0,5.28-3.81,8.63-8.83,8.63S169.1,41,169.1,35.77ZM182,35.71v-.23c0-3.2-1.51-5.12-4.1-5.12s-4.09,1.86-4.09,5.06v.26c0,3.2,1.47,5.12,4.09,5.12S182,38.88,182,35.71Z" transform="translate(0 0)" fill="#262626"/><path d="M190.12,30.52h-2.2V27.23h2.2V25.5c0-3.87,2.24-5.86,6-5.86a7.14,7.14,0,0,1,2.36.36v3.45a5.75,5.75,0,0,0-1.66-.25c-1.44,0-2.05.89-2.05,2.2v1.83h5.47V25.31c0-3.91,2.28-5.86,6-5.86a7.79,7.79,0,0,1,2.4.32v3.49a5.09,5.09,0,0,0-1.7-.29,1.94,1.94,0,0,0-2.08,2.21v2.05h3.65v3.29h-3.65V44H200.2V30.52h-5.47V44h-4.61Z" transform="translate(0 0)" fill="#262626"/><path d="M210.6,22.43A2.64,2.64,0,1,1,213.23,25,2.54,2.54,0,0,1,210.6,22.43Zm.36,4.8h4.6V44H211Z" transform="translate(0 0)" fill="#262626"/><path d="M218.32,35.8v-.25A8.32,8.32,0,0,1,227,26.84c3.87,0,7.45,1.7,7.87,6.5h-4.39a3.08,3.08,0,0,0-3.39-2.85c-2.4,0-4,1.79-4,5v.26c0,3.36,1.51,5.09,4.1,5.09a3.39,3.39,0,0,0,3.58-3.23h4.19c-.25,4-3.13,6.71-8,6.71S218.32,41.28,218.32,35.8Z" transform="translate(0 0)" fill="#262626"/><path d="M236.33,35.8v-.25a8.32,8.32,0,0,1,8.61-8.71c4.32,0,8.16,2.53,8.16,8.52v1.28H241c.12,2.78,1.63,4.38,4.16,4.38,2.14,0,3.19-.93,3.48-2.34h4.39c-.55,3.62-3.43,5.63-8,5.63C240,44.31,236.33,41.15,236.33,35.8Zm12.26-2c-.16-2.53-1.44-3.75-3.65-3.75s-3.49,1.38-3.84,3.75Z" transform="translate(0 0)" fill="#262626"/></g></g></g></g></svg>