<svg xmlns="http://www.w3.org/2000/svg" viewBox="0 0 300 600"><title>H23 C5 T3</title><g id="Layer_2" data-name="Layer 2"><g id="Rect"><rect width="300" height="600" fill="none"/></g><g id="H23_C5_T3" data-name="H23 C5 T3"><g id="Your_maximum_refund_guaranteed." data-name="Your  maximum  refund,  guaranteed."><path d="M29.72,166,19.36,147.77h9.91l5.39,10.72L40,147.77h8.72L38.88,166v13.62H29.72Z" fill="#fff"/><path d="M45.42,168.23v-.35c0-7.48,5.56-12.19,12.77-12.19s12.68,4.58,12.68,12V168c0,7.56-5.56,12.1-12.72,12.1S45.42,175.75,45.42,168.23Zm17.35-.13v-.36c0-3.91-1.56-6.09-4.58-6.09s-4.63,2.09-4.63,6V168c0,4,1.56,6.18,4.63,6.18S62.77,172,62.77,168.1Z" fill="#fff"/><path d="M73.49,171.48V156.31h8v13.88c0,2.63,1,3.92,3.29,3.92s4-1.43,4-4.41V156.31h8v23.27h-8V176c-1.25,2.41-3.52,4.14-7.39,4.14C76.83,180.11,73.49,177.35,73.49,171.48Z" fill="#fff"/><path d="M100.72,156.31h8v4.63A7.31,7.31,0,0,1,116.2,156v7.43c-4.85-.14-7.52,1.38-7.52,5.11v11h-8Z" fill="#fff"/><path d="M21.36,202.81h8v3.56a8.11,8.11,0,0,1,7.29-4.18c3.07,0,5.21,1.33,6.32,3.87a9.2,9.2,0,0,1,7.69-3.87c4.41,0,7.61,2.84,7.61,8.67v15.22h-8V212.2c0-2.36-1.16-3.52-3-3.52-2.14,0-3.56,1.38-3.56,3.92v13.48H35.86V212.2c0-2.36-1.16-3.52-3-3.52-2.14,0-3.56,1.38-3.56,3.92v13.48h-8Z" fill="#fff"/><path d="M60.77,219.63c0-5.48,4.63-7.61,12.37-7.61h2.22v-.54c0-2.22-.53-3.69-3.07-3.69a2.86,2.86,0,0,0-3.16,2.76H61.66c.36-5.61,4.76-8.36,11.12-8.36s10.5,2.62,10.5,8.81v15.08H75.54v-2.72c-1.11,1.7-3.16,3.25-6.9,3.25C64.46,226.61,60.77,224.57,60.77,219.63Zm14.59-1.69v-1.43H73.27c-3.2,0-4.63.63-4.63,2.54,0,1.33.89,2.18,2.76,2.18C73.67,221.23,75.36,219.94,75.36,217.94Z" fill="#fff"/><path d="M93,214.24l-7.25-11.43h9.17l3.6,6.14,3.51-6.14h8.19l-7.34,10.81,8,12.46h-9.16l-4.14-6.94-4.23,6.94H85.28Z" fill="#fff"/><path d="M113,196.49a4.39,4.39,0,1,1,4.36,4.09A4.16,4.16,0,0,1,113,196.49Zm.4,6.32h8v23.27h-8Z" fill="#fff"/><path d="M125.63,202.81h8v3.56a8.13,8.13,0,0,1,7.3-4.18c3.07,0,5.2,1.33,6.31,3.87a9.22,9.22,0,0,1,7.7-3.87c4.4,0,7.6,2.84,7.6,8.67v15.22h-8V212.2c0-2.36-1.15-3.52-3-3.52-2.13,0-3.56,1.38-3.56,3.92v13.48h-7.87V212.2c0-2.36-1.16-3.52-3-3.52-2.13,0-3.56,1.38-3.56,3.92v13.48h-8Z" fill="#fff"/><path d="M166.2,218V202.81h8v13.88c0,2.63,1,3.92,3.29,3.92,2.41,0,4-1.43,4-4.41V202.81h8v23.27h-8v-3.61c-1.24,2.41-3.51,4.14-7.38,4.14C169.54,226.61,166.2,223.85,166.2,218Z" fill="#fff"/><path d="M193.43,202.81h8v3.56a8.11,8.11,0,0,1,7.29-4.18c3.07,0,5.21,1.33,6.32,3.87a9.2,9.2,0,0,1,7.69-3.87c4.41,0,7.61,2.84,7.61,8.67v15.22h-8V212.2c0-2.36-1.16-3.52-3-3.52-2.14,0-3.56,1.38-3.56,3.92v13.48h-7.87V212.2c0-2.36-1.16-3.52-3-3.52-2.14,0-3.56,1.38-3.56,3.92v13.48h-8Z" fill="#fff"/><path d="M21.36,249.31h8v4.63A7.31,7.31,0,0,1,36.84,249v7.43c-4.85-.14-7.52,1.38-7.52,5.11v11h-8Z" fill="#fff"/><path d="M38.26,261.23v-.35c0-7.48,5.56-12.19,12.59-12.19,6.36,0,11.83,3.64,11.83,12v2.09H46.31c.23,3.07,2,4.85,4.85,4.85,2.63,0,3.74-1.2,4.05-2.76h7.47c-.71,5.25-4.76,8.23-11.79,8.23C43.6,273.11,38.26,268.84,38.26,261.23Zm16.68-2.93c-.13-2.81-1.51-4.36-4.09-4.36-2.4,0-4.05,1.55-4.45,4.36Z" fill="#fff"/><path d="M66.64,254.74H63.71v-5.43h2.93v-2.05c0-5.78,3.61-8.54,9.12-8.54a14.08,14.08,0,0,1,3.65.49V245a7.26,7.26,0,0,0-2.18-.31,2.33,2.33,0,0,0-2.67,2.53v2.05h4.72v5.43H74.56v17.84H66.64Z" fill="#fff"/><path d="M81.77,264.48V249.31h8v13.88c0,2.63,1,3.92,3.29,3.92s4-1.43,4-4.41V249.31h8v23.27H97V269c-1.25,2.41-3.51,4.14-7.38,4.14C85.1,273.11,81.77,270.35,81.77,264.48Z" fill="#fff"/><path d="M109,249.31h8v3.74a8.21,8.21,0,0,1,7.65-4.36c4.5,0,7.61,2.8,7.61,8.76v15.13h-8V259.05c0-2.62-1-3.91-3.34-3.91s-4,1.42-4,4.4v13h-8Z" fill="#fff"/><path d="M134.93,261.19v-.36c0-7.92,4.36-12.14,9.87-12.14,3.65,0,5.83,1.55,7.16,3.91V239.07h8v33.51h-8V268.8a7.82,7.82,0,0,1-7.25,4.31C139.33,273.11,134.93,269.24,134.93,261.19Zm17.26-.14v-.35c0-3.92-1.65-6-4.59-6s-4.58,2-4.58,6.05v.36c0,3.91,1.74,5.92,4.5,5.92S152.19,265,152.19,261.05Z" fill="#fff"/><path d="M162.33,276.18l3.74-11.7,7.38,2.63-6.4,10.9Z" fill="#fff"/><path d="M20.07,319.08H28c.36,1.69,1.38,3,4.27,3,3.52,0,4.94-2,4.94-4.89v-3.56a8.14,8.14,0,0,1-7.2,4.27c-5.43,0-9.88-4-9.88-11.17v-.35c0-6.86,4.41-11.22,9.88-11.22,3.69,0,5.87,1.56,7.2,3.92v-3.29h8v21.31c0,6.94-4.58,10.59-12.9,10.59C24.34,327.71,20.69,324.37,20.07,319.08Zm17.34-12.37v-.31c0-3.21-1.64-5.25-4.58-5.25s-4.58,2.09-4.58,5.29v.36c0,3.2,1.69,5.25,4.54,5.25S37.41,310,37.41,306.71Z" fill="#fff"/><path d="M49,311V295.81h8v13.88c0,2.62,1,3.92,3.29,3.92s4-1.43,4-4.41V295.81h8v23.27h-8v-3.61c-1.25,2.41-3.51,4.14-7.38,4.14C52.36,319.61,49,316.85,49,311Z" fill="#fff"/><path d="M74.92,312.63c0-5.48,4.62-7.61,12.36-7.61h2.23v-.54c0-2.22-.54-3.69-3.07-3.69a2.86,2.86,0,0,0-3.16,2.76H75.81c.35-5.61,4.76-8.37,11.12-8.37s10.49,2.63,10.49,8.81v15.09H89.68v-2.72c-1.11,1.69-3.15,3.25-6.89,3.25C78.61,319.61,74.92,317.57,74.92,312.63Zm14.59-1.69v-1.43H87.42c-3.21,0-4.63.62-4.63,2.54,0,1.33.89,2.18,2.76,2.18C87.82,314.23,89.51,312.94,89.51,310.94Z" fill="#fff"/><path d="M101.3,295.81h8v4.62a7.32,7.32,0,0,1,7.52-4.93v7.43c-4.85-.14-7.52,1.38-7.52,5.11v11h-8Z" fill="#fff"/><path d="M117.8,312.63c0-5.48,4.63-7.61,12.37-7.61h2.22v-.54c0-2.22-.53-3.69-3.07-3.69a2.86,2.86,0,0,0-3.16,2.76h-7.47c.36-5.61,4.76-8.37,11.12-8.37s10.5,2.63,10.5,8.81v15.09h-7.74v-2.72c-1.11,1.69-3.16,3.25-6.9,3.25C121.49,319.61,117.8,317.57,117.8,312.63Zm14.59-1.69v-1.43H130.3c-3.2,0-4.63.62-4.63,2.54,0,1.33.89,2.18,2.76,2.18C130.7,314.23,132.39,312.94,132.39,310.94Z" fill="#fff"/><path d="M144.18,295.81h8v3.73a8.22,8.22,0,0,1,7.65-4.36c4.5,0,7.61,2.81,7.61,8.77v15.13h-8V305.55c0-2.62-1-3.91-3.34-3.91s-4,1.42-4,4.4v13h-8Z" fill="#fff"/><path d="M172.34,311.6V301.24h-2.8v-5.43h2.8V291h8v4.85h4.58v5.43H180.3v9.61a2.12,2.12,0,0,0,2.36,2.44,6,6,0,0,0,2.27-.4v6.05a16.65,16.65,0,0,1-4.41.67C175.28,319.61,172.34,317.08,172.34,311.6Z" fill="#fff"/><path d="M186.67,307.73v-.35c0-7.48,5.55-12.2,12.58-12.2,6.36,0,11.83,3.65,11.83,12v2.09H194.72c.22,3.07,2,4.85,4.84,4.85,2.63,0,3.74-1.2,4.05-2.76h7.47c-.71,5.25-4.76,8.23-11.78,8.23C192,319.61,186.67,315.34,186.67,307.73Zm16.67-2.94c-.13-2.8-1.51-4.36-4.09-4.36-2.4,0-4,1.56-4.45,4.36Z" fill="#fff"/><path d="M212.6,307.73v-.35c0-7.48,5.56-12.2,12.59-12.2,6.36,0,11.83,3.65,11.83,12v2.09H220.65c.22,3.07,2,4.85,4.85,4.85,2.62,0,3.74-1.2,4.05-2.76H237c-.71,5.25-4.76,8.23-11.79,8.23C217.94,319.61,212.6,315.34,212.6,307.73Zm16.68-2.94c-.13-2.8-1.51-4.36-4.09-4.36-2.4,0-4.05,1.56-4.45,4.36Z" fill="#fff"/><path d="M238.62,307.69v-.36c0-7.92,4.36-12.15,9.88-12.15,3.65,0,5.83,1.56,7.16,3.92V285.57h8v33.51h-8V315.3a7.85,7.85,0,0,1-7.25,4.31C243,319.61,238.62,315.74,238.62,307.69Zm17.26-.14v-.35c0-3.92-1.64-6-4.58-6s-4.58,2-4.58,6.05v.36c0,3.91,1.73,5.92,4.49,5.92S255.88,311.51,255.88,307.55Z" fill="#fff"/><path d="M267.36,315.07a4.43,4.43,0,0,1,4.54-4.49,4.5,4.5,0,1,1,0,9A4.43,4.43,0,0,1,267.36,315.07Z" fill="#fff"/></g></g></g></svg>