<svg xmlns="http://www.w3.org/2000/svg" viewBox="0 0 300 600"><title>Asset 1</title><g id="Layer_2" data-name="Layer 2"><g id="Rect"><rect width="300" height="600" fill="none"/></g><g id="More_parents_can_file_free_with_H_R_Block_Online_than_TurboTax." data-name="More parents can file free with H&amp;R Block Online than TurboTax."><path d="M22.55,44H36.3l7.06,19.62,7-19.62h13.5V80.78H53.4V57.86l-9,22.92h-3.5L32,57.86V80.78H22.55Z" fill="#fff"/><path d="M67.67,67.65v-.42c0-8.65,6.43-14.11,14.78-14.11S97.12,58.43,97.12,67v.41c0,8.75-6.43,14-14.72,14S67.67,76.35,67.67,67.65Zm20.08-.16v-.41c0-4.53-1.8-7-5.3-7s-5.36,2.42-5.36,7v.41c0,4.63,1.8,7.16,5.36,7.16S87.75,72,87.75,67.49Z" fill="#fff"/><path d="M100.37,53.85h9.22V59.2c1.7-4,4.53-5.77,8.7-5.72v8.6c-5.61-.15-8.7,1.6-8.7,5.93V80.78h-9.22Z" fill="#fff"/><path d="M119.94,67.65v-.42c0-8.65,6.44-14.11,14.57-14.11,7.37,0,13.7,4.23,13.7,13.91v2.42h-19c.26,3.55,2.32,5.61,5.61,5.61,3,0,4.33-1.39,4.69-3.19h8.65c-.82,6.08-5.51,9.53-13.64,9.53C126.12,81.4,119.94,76.45,119.94,67.65Zm19.31-3.4c-.15-3.25-1.75-5-4.74-5-2.78,0-4.68,1.8-5.15,5Z" fill="#fff"/><path d="M21.73,105.35H31v4a9.5,9.5,0,0,1,8.39-4.74c6.28,0,11.38,4.74,11.38,14V119c0,9.27-5.1,13.91-11.43,13.91-4.07,0-7-1.91-8.34-4.59v13H21.73ZM41.35,119v-.41c0-4.74-2.06-7-5.3-7s-5.36,2.42-5.36,7v.41c0,4.58,2,6.9,5.36,6.9S41.35,123.42,41.35,119Z" fill="#fff"/><path d="M52.53,124.81c0-6.33,5.35-8.8,14.31-8.8h2.58v-.62c0-2.58-.62-4.28-3.56-4.28a3.31,3.31,0,0,0-3.65,3.2H53.56c.41-6.49,5.51-9.69,12.87-9.69s12.15,3,12.15,10.2v17.46h-9v-3.14c-1.28,2-3.65,3.76-8,3.76C56.8,132.9,52.53,130.53,52.53,124.81Zm16.89-2v-1.64H67c-3.71,0-5.36.72-5.36,2.93,0,1.55,1,2.53,3.19,2.53C67.46,126.67,69.42,125.17,69.42,122.85Z" fill="#fff"/><path d="M83.06,105.35h9.22v5.35c1.7-4,4.53-5.77,8.71-5.72v8.6c-5.62-.15-8.71,1.6-8.71,5.93v12.77H83.06Z" fill="#fff"/><path d="M102.64,119.15v-.42c0-8.65,6.43-14.11,14.57-14.11,7.36,0,13.7,4.23,13.7,13.91V121H112c.25,3.55,2.31,5.61,5.61,5.61,3,0,4.33-1.39,4.69-3.19h8.65c-.83,6.08-5.51,9.53-13.65,9.53C108.81,132.9,102.64,128,102.64,119.15Zm19.31-3.4c-.16-3.25-1.75-5-4.74-5-2.78,0-4.69,1.8-5.15,5Z" fill="#fff"/><path d="M134.1,105.35h9.22v4.32a9.51,9.51,0,0,1,8.86-5c5.2,0,8.8,3.25,8.8,10.15v17.51h-9.22V116.62c0-3-1.18-4.53-3.86-4.53s-4.58,1.65-4.58,5.1v15.09H134.1Z" fill="#fff"/><path d="M166.7,123.63v-12h-3.24v-6.28h3.24V99.73h9.22v5.62h5.3v6.28h-5.3v11.12c0,2,1,2.83,2.73,2.83a7,7,0,0,0,2.62-.46v7a19.17,19.17,0,0,1-5.09.78C170.1,132.9,166.7,130,166.7,123.63Z" fill="#fff"/><path d="M183.28,123.73h8.5c.31,2,1.18,3,3.81,3,2.27,0,3.3-.88,3.3-2.22s-1.29-1.9-5-2.42c-7.21-.92-10.25-3-10.25-8.65,0-6,5.31-8.86,11.54-8.86,6.64,0,11.28,2.27,11.89,8.71h-8.34c-.36-1.8-1.34-2.68-3.45-2.68s-3,.88-3,2.11,1.24,1.8,4.53,2.22c7.47.92,11.08,2.88,11.08,8.65,0,6.38-4.74,9.27-12.21,9.27C188,132.9,183.49,129.7,183.28,123.73Z" fill="#fff"/><path d="M20.29,170.65v-.42c0-9,6.43-14.11,14.37-14.11,6.59,0,12.66,2.89,13.18,11.08H39.19c-.41-2.53-1.65-3.92-4.33-3.92-3.24,0-5.15,2.32-5.15,6.85v.41c0,4.69,1.8,7.11,5.31,7.11,2.57,0,4.37-1.54,4.68-4.48H48c-.25,6.8-4.84,11.23-13.54,11.23C26.42,184.4,20.29,179.71,20.29,170.65Z" fill="#fff"/><path d="M49.59,176.31c0-6.33,5.36-8.8,14.32-8.8h2.57v-.62c0-2.58-.62-4.28-3.55-4.28a3.32,3.32,0,0,0-3.66,3.2H50.62c.41-6.49,5.51-9.69,12.87-9.69s12.16,3,12.16,10.2v17.46h-9v-3.14c-1.29,2-3.66,3.76-8,3.76C53.86,184.4,49.59,182,49.59,176.31Zm16.89-2v-1.64H64.06c-3.71,0-5.35.72-5.35,2.93,0,1.55,1,2.53,3.19,2.53C64.52,178.17,66.48,176.67,66.48,174.35Z" fill="#fff"/><path d="M80.13,156.85h9.22v4.32a9.5,9.5,0,0,1,8.86-5c5.2,0,8.8,3.25,8.8,10.15v17.51H97.79V168.12c0-3-1.18-4.53-3.86-4.53s-4.58,1.65-4.58,5.1v15.09H80.13Z" fill="#fff"/><path d="M122.25,163.13h-3.39v-6.28h3.39v-2.37c0-6.7,4.18-9.89,10.56-9.89a16.45,16.45,0,0,1,4.23.57v6.74a8.72,8.72,0,0,0-2.53-.36c-2.16,0-3.09,1.19-3.09,2.94v2.37h5.46v6.28h-5.46v20.65h-9.17Z" fill="#fff"/><path d="M139.76,149.53a5.09,5.09,0,1,1,5.05,4.74A4.82,4.82,0,0,1,139.76,149.53Zm.47,7.32h9.22v26.93h-9.22Z" fill="#fff"/><path d="M154.65,145h9.16v38.78h-9.16Z" fill="#fff"/><path d="M167.32,170.65v-.42c0-8.65,6.43-14.11,14.57-14.11,7.36,0,13.7,4.23,13.7,13.91v2.42h-19c.26,3.55,2.32,5.61,5.61,5.61,3,0,4.33-1.39,4.69-3.19h8.65c-.83,6.08-5.51,9.53-13.65,9.53C173.5,184.4,167.32,179.45,167.32,170.65Zm19.31-3.4c-.16-3.25-1.75-5.05-4.74-5.05-2.78,0-4.69,1.8-5.15,5.05Z" fill="#fff"/><path d="M23.12,214.63h-3.4v-6.28h3.4V206c0-6.7,4.17-9.89,10.56-9.89a16.37,16.37,0,0,1,4.22.57v6.74a8.64,8.64,0,0,0-2.52-.36c-2.17,0-3.09,1.19-3.09,2.94v2.37h5.46v6.28H32.29v20.65H23.12Z" fill="#fff"/><path d="M40.84,208.35h9.21v5.35c1.7-4,4.54-5.77,8.71-5.72v8.6c-5.62-.15-8.71,1.6-8.71,5.93v12.77H40.84Z" fill="#fff"/><path d="M60.41,222.15v-.42c0-8.65,6.43-14.11,14.57-14.11,7.36,0,13.7,4.23,13.7,13.91V224h-19c.25,3.55,2.31,5.61,5.61,5.61,3,0,4.33-1.39,4.69-3.19h8.65c-.83,6.08-5.51,9.53-13.65,9.53C66.59,235.9,60.41,231,60.41,222.15Zm19.31-3.4C79.56,215.5,78,213.7,75,213.7c-2.78,0-4.69,1.8-5.15,5.05Z" fill="#fff"/><path d="M90.43,222.15v-.42c0-8.65,6.44-14.11,14.57-14.11,7.37,0,13.7,4.23,13.7,13.91V224h-19c.26,3.55,2.32,5.61,5.61,5.61,3,0,4.33-1.39,4.69-3.19h8.65c-.82,6.08-5.51,9.53-13.64,9.53C96.61,235.9,90.43,231,90.43,222.15Zm19.31-3.4c-.15-3.25-1.75-5.05-4.74-5.05-2.78,0-4.68,1.8-5.15,5.05Z" fill="#fff"/><path d="M129,208.35h9.63l3.92,16.11,4.53-16.11h7.41l4,16.11,4.38-16.11h8.75l-8.55,26.93h-8.8l-4-15-4.17,15h-9Z" fill="#fff"/><path d="M173.81,201a5.08,5.08,0,1,1,5,4.74A4.81,4.81,0,0,1,173.81,201Zm.46,7.32h9.22v26.93h-9.22Z" fill="#fff"/><path d="M189.67,226.63v-12h-3.25v-6.28h3.25v-5.62h9.22v5.62h5.3v6.28h-5.3v11.12c0,2,1,2.83,2.73,2.83a7,7,0,0,0,2.62-.46v7a19.19,19.19,0,0,1-5.1.78C193.07,235.9,189.67,233,189.67,226.63Z" fill="#fff"/><path d="M207.69,196.5h9.22v16.17a9.51,9.51,0,0,1,8.86-5c5.2,0,8.81,3.25,8.81,10.15v17.51h-9.22V219.62c0-3-1.19-4.53-3.87-4.53s-4.58,1.65-4.58,5.1v15.09h-9.22Z" fill="#fff"/><path d="M22.55,250H33.16V264h12.1V250H55.82v36.82H45.26V272.26H33.16v14.52H22.55Z" fill="#fff"/><path d="M91.15,279.26l6.13,7.52h-12l-2.16-2.68a14.64,14.64,0,0,1-9.94,3.3c-7.83,0-12.93-4.12-12.93-11.13,0-4.73,2.89-8.24,8.09-10.71a11.69,11.69,0,0,1-2.27-6.44c0-6.28,5.36-9.63,11.85-9.63,5.87,0,11.17,2.94,11.17,8.6,0,4-2.37,7-7.36,9.12l4.63,5.66L89,267.62h8Zm-12.77-1.08-5.82-7a4.37,4.37,0,0,0-2.47,4c0,2.68,1.59,4.58,4.68,4.58A4.84,4.84,0,0,0,78.38,278.18Zm-1.13-14.83c2.47-1.19,3.65-2.58,3.65-4.48A2.65,2.65,0,0,0,78.17,256a2.94,2.94,0,0,0-3,3.2C75.13,260.57,76,261.85,77.25,263.35Z" fill="#fff"/><path d="M100.63,250h14.42c9.63,0,15,3.91,15,11.69v.2a9.63,9.63,0,0,1-6.64,9.69l8.81,15.24H121.07L113.6,273.6h-2.47v13.18h-10.5Zm13.9,16.79c3.55,0,5.31-1.5,5.31-4.48v-.21c0-3-1.86-4.17-5.26-4.17h-3.45v8.86Z" fill="#fff"/><path d="M145.12,250h16.43c8.7,0,12.41,3.91,12.41,9.63v.2c0,4.12-2.11,6.85-6.23,7.93,4.53.78,7.36,3.51,7.36,8.6v.21c0,6.59-4.27,10.25-13.39,10.25H145.12Zm14.32,14.62c3.29,0,4.53-1.13,4.53-3.76v-.2c0-2.53-1.34-3.66-4.53-3.66h-4v7.62Zm.36,15.14c3.35,0,4.89-1.54,4.89-4.27v-.21c0-2.78-1.49-4.22-5.2-4.22h-4.07v8.7Z" fill="#fff"/><path d="M178.75,248h9.17v38.78h-9.17Z" fill="#fff"/><path d="M191.42,273.65v-.42c0-8.65,6.44-14.11,14.78-14.11s14.68,5.31,14.68,13.86v.41c0,8.75-6.44,14-14.73,14S191.42,282.35,191.42,273.65Zm20.08-.16v-.41c0-4.53-1.8-7.05-5.3-7.05s-5.36,2.42-5.36,7v.41c0,4.63,1.81,7.16,5.36,7.16S211.5,278,211.5,273.49Z" fill="#fff"/><path d="M222.68,273.65v-.42c0-9,6.44-14.11,14.37-14.11,6.59,0,12.67,2.89,13.18,11.08h-8.65c-.41-2.53-1.65-3.92-4.33-3.92-3.24,0-5.15,2.32-5.15,6.85v.41c0,4.69,1.81,7.11,5.31,7.11,2.57,0,4.38-1.54,4.68-4.48h8.3c-.26,6.8-4.85,11.23-13.55,11.23C228.81,287.4,222.68,282.71,222.68,273.65Z" fill="#fff"/><path d="M253.37,248h9.22v22.51l7.26-10.66h9.58L270.62,272l9.53,14.83h-10.3L262.59,275v11.79h-9.22Z" fill="#fff"/><path d="M20.6,320.1v-.41c0-11.23,8.44-18.75,19.46-18.75,11.23,0,19.52,7.06,19.52,18.49v.41c0,11.33-7.78,19.06-19.67,19.06S20.6,331.17,20.6,320.1Zm28-.1v-.42c0-6.54-3.3-10.4-8.5-10.4s-8.44,3.76-8.44,10.46v.41c0,6.69,3.4,10.56,8.49,10.56S48.56,326.59,48.56,320Z" fill="#fff"/><path d="M63.13,311.35h9.22v4.32a9.51,9.51,0,0,1,8.86-5.05c5.2,0,8.81,3.25,8.81,10.15v17.51H80.8V322.62c0-3-1.19-4.53-3.86-4.53s-4.59,1.65-4.59,5.1v15.09H63.13Z" fill="#fff"/><path d="M94.76,299.5h9.16v38.78H94.76Z" fill="#fff"/><path d="M108.66,304a4.81,4.81,0,0,1,5-4.79,4.78,4.78,0,1,1,0,9.53A4.77,4.77,0,0,1,108.66,304Zm.46,7.32h9.22v26.93h-9.22Z" fill="#fff"/><path d="M123.29,311.35h9.21v4.32a9.52,9.52,0,0,1,8.86-5.05c5.2,0,8.81,3.25,8.81,10.15v17.51H141V322.62c0-3-1.18-4.53-3.86-4.53s-4.59,1.65-4.59,5.1v15.09h-9.21Z" fill="#fff"/><path d="M153.21,325.15v-.41c0-8.66,6.43-14.12,14.57-14.12,7.37,0,13.7,4.23,13.7,13.91V327H162.53c.26,3.55,2.32,5.61,5.61,5.61,3,0,4.33-1.39,4.69-3.19h8.65c-.82,6.08-5.51,9.53-13.65,9.53C159.39,338.9,153.21,334,153.21,325.15Zm19.31-3.4c-.16-3.25-1.75-5.05-4.74-5.05-2.78,0-4.69,1.8-5.15,5.05Z" fill="#fff"/><path d="M23,381.13v-12H19.72v-6.28H23v-5.62h9.21v5.62h5.31v6.28H32.18v11.12c0,2,1,2.83,2.73,2.83a7,7,0,0,0,2.63-.46v7a19.33,19.33,0,0,1-5.1.78C26.36,390.4,23,387.46,23,381.13Z" fill="#fff"/><path d="M41,351h9.22v16.17a9.51,9.51,0,0,1,8.86-5.05c5.2,0,8.8,3.25,8.8,10.15v17.51H58.65V374.12c0-3-1.18-4.53-3.86-4.53s-4.58,1.65-4.58,5.1v15.09H41Z" fill="#fff"/><path d="M70.81,382.31c0-6.33,5.35-8.8,14.31-8.8H87.7v-.62c0-2.58-.62-4.28-3.55-4.28a3.32,3.32,0,0,0-3.66,3.2H71.84c.41-6.49,5.51-9.69,12.87-9.69s12.16,3,12.16,10.2v17.46h-9v-3.14c-1.29,1.95-3.66,3.76-8,3.76C75.08,390.4,70.81,388,70.81,382.31Zm16.89-2v-1.64H85.28c-3.71,0-5.36.72-5.36,2.93,0,1.55,1,2.53,3.2,2.53C85.74,384.17,87.7,382.67,87.7,380.35Z" fill="#fff"/><path d="M101.35,362.85h9.22v4.32a9.5,9.5,0,0,1,8.85-5.05c5.2,0,8.81,3.25,8.81,10.15v17.51H119V374.12c0-3-1.18-4.53-3.86-4.53s-4.58,1.65-4.58,5.1v15.09h-9.22Z" fill="#fff"/><path d="M29.61,412.59H20.08v-8.13H49.74v8.13H40.22v28.69H29.61Z" fill="#fff"/><path d="M50.57,431.91V414.35h9.22v16.06c0,3,1.18,4.53,3.81,4.53s4.58-1.64,4.58-5.09v-15.5H77.4v26.93H68.18v-4.17c-1.44,2.78-4.07,4.79-8.55,4.79C54.43,441.9,50.57,438.7,50.57,431.91Z" fill="#fff"/><path d="M82.09,414.35h9.22v5.35c1.69-4,4.53-5.77,8.7-5.72v8.6c-5.61-.15-8.7,1.6-8.7,5.93v12.77H82.09Z" fill="#fff"/><path d="M112.57,437.11v4.17h-9.21V402.5h9.21v15.86a9.53,9.53,0,0,1,8.4-4.74c6.28,0,11.38,4.74,11.38,14V428c0,9.27-5.1,13.91-11.43,13.91C116.9,441.9,113.91,440,112.57,437.11ZM123,428v-.41c0-4.74-2.06-7-5.31-7s-5.35,2.42-5.35,6.95v.41c0,4.58,2,6.9,5.35,6.9S123,432.42,123,428Z" fill="#fff"/><path d="M134.26,428.15v-.41c0-8.66,6.43-14.12,14.78-14.12s14.67,5.31,14.67,13.86v.41c0,8.75-6.43,14-14.73,14S134.26,436.85,134.26,428.15Zm20.08-.16v-.41c0-4.53-1.8-7.05-5.3-7.05s-5.36,2.42-5.36,7v.41c0,4.63,1.8,7.16,5.36,7.16S154.34,432.47,154.34,428Z" fill="#fff"/><path d="M174.84,412.59h-9.53v-8.13H195v8.13h-9.52v28.69H174.84Z" fill="#fff"/><path d="M193.12,433.81c0-6.33,5.36-8.8,14.32-8.8H210v-.62c0-2.58-.62-4.28-3.55-4.28a3.32,3.32,0,0,0-3.66,3.2h-8.65c.41-6.49,5.51-9.69,12.88-9.69s12.15,3,12.15,10.2v17.46h-9v-3.14c-1.29,1.95-3.66,3.76-8,3.76C197.39,441.9,193.12,439.53,193.12,433.81Zm16.89-2v-1.64h-2.42c-3.71,0-5.35.72-5.35,2.93,0,1.55,1,2.53,3.19,2.53C208.05,435.67,210,434.17,210,431.85Z" fill="#fff"/><path d="M230.46,427.58l-8.4-13.23h10.61l4.17,7.1,4.07-7.1h9.48l-8.5,12.51,9.32,14.42H240.6l-4.79-8-4.89,8H221.5Z" fill="#fff"/><path d="M253.07,436.64a5.13,5.13,0,0,1,5.25-5.2,5.21,5.21,0,1,1,0,10.41A5.14,5.14,0,0,1,253.07,436.64Z" fill="#fff"/></g></g></svg>