<svg xmlns="http://www.w3.org/2000/svg" viewBox="0 0 300 600"><title>H156</title><g id="Layer_2" data-name="Layer 2"><g id="Rect"><rect width="300" height="600" fill="none"/></g><g id="If_you_re_not_using_H_R_Block_you_may_be_paying_too_much_for_t" data-name="If you&apos;re not using H&amp;R Block, you may be paying too much for t"><path d="M22.17,62.3h6.16V83.58H22.17Z" fill="#14aa40"/><path d="M32.41,71.64h-2V68h2V66.65c0-3.87,2.41-5.72,6.1-5.72a9.47,9.47,0,0,1,2.44.33v3.9A4.91,4.91,0,0,0,39.49,65a1.57,1.57,0,0,0-1.79,1.7V68h3.16v3.63H37.7V83.58H32.41Z" fill="#14aa40"/><path d="M52.93,82,46.71,68h5.78l3.21,8.31,3-8.31h5.08L55.43,88.78H50.34Z" fill="#14aa40"/><path d="M63.46,76v-.24c0-5,3.72-8.15,8.54-8.15s8.48,3.06,8.48,8v.24c0,5.06-3.72,8.09-8.51,8.09S63.46,81,63.46,76Zm11.61-.09v-.24c0-2.62-1-4.08-3.07-4.08s-3.09,1.4-3.09,4v.24C68.91,78.52,70,80,72,80S75.07,78.49,75.07,75.9Z" fill="#14aa40"/><path d="M82.24,78.16V68h5.32V77.3c0,1.75.69,2.62,2.2,2.62s2.65-1,2.65-3V68h5.33V83.58H92.41V81.17a5.12,5.12,0,0,1-4.94,2.76C84.47,83.93,82.24,82.09,82.24,78.16Z" fill="#14aa40"/><path d="M100.09,62.3h5.2l-.62,8.18h-4Z" fill="#14aa40"/><path d="M107.61,68h5.33v3.1a4.9,4.9,0,0,1,5-3.3v5c-3.25-.08-5,.93-5,3.43v7.38h-5.33Z" fill="#14aa40"/><path d="M118.92,76v-.24c0-5,3.72-8.15,8.42-8.15,4.25,0,7.91,2.44,7.91,8V77h-11c.15,2,1.34,3.24,3.25,3.24,1.75,0,2.5-.8,2.7-1.84h5c-.47,3.51-3.18,5.5-7.88,5.5C122.49,83.93,118.92,81.08,118.92,76Zm11.16-2c-.09-1.87-1-2.91-2.74-2.91s-2.71,1-3,2.91Z" fill="#14aa40"/><path d="M142.51,68h5.32v2.5A5.51,5.51,0,0,1,153,67.6c3,0,5.09,1.87,5.09,5.86V83.58h-5.33v-9c0-1.76-.68-2.62-2.23-2.62s-2.65,1-2.65,3v8.72h-5.32Z" fill="#14aa40"/><path d="M159.79,76v-.24c0-5,3.72-8.15,8.54-8.15s8.48,3.06,8.48,8v.24c0,5.06-3.72,8.09-8.51,8.09S159.79,81,159.79,76Zm11.61-.09v-.24c0-2.62-1-4.08-3.07-4.08s-3.09,1.4-3.09,4v.24c0,2.68,1,4.14,3.09,4.14S171.4,78.49,171.4,75.9Z" fill="#14aa40"/><path d="M179.4,78.58V71.64h-1.88V68h1.88V64.77h5.32V68h3.07v3.63h-3.07v6.43a1.43,1.43,0,0,0,1.58,1.64,4,4,0,0,0,1.52-.27v4a11.23,11.23,0,0,1-2.95.44C181.36,83.93,179.4,82.24,179.4,78.58Z" fill="#14aa40"/><path d="M195.11,78.16V68h5.32V77.3c0,1.75.69,2.62,2.2,2.62s2.65-1,2.65-3V68h5.33V83.58h-5.33V81.17a5.12,5.12,0,0,1-4.94,2.76C197.34,83.93,195.11,82.09,195.11,78.16Z" fill="#14aa40"/><path d="M212.27,78.64h4.91c.18,1.13.68,1.75,2.2,1.75,1.31,0,1.91-.5,1.91-1.28s-.75-1.1-2.89-1.4c-4.17-.53-5.92-1.75-5.92-5,0-3.46,3.06-5.12,6.66-5.12,3.84,0,6.52,1.31,6.88,5H221.2a1.74,1.74,0,0,0-2-1.55c-1.16,0-1.75.5-1.75,1.22s.71,1,2.62,1.28c4.31.53,6.39,1.66,6.39,5,0,3.69-2.73,5.35-7.05,5.35S212.39,82.09,212.27,78.64Z" fill="#14aa40"/><path d="M228.07,63.79A2.78,2.78,0,0,1,231,61a2.76,2.76,0,1,1,0,5.51A2.76,2.76,0,0,1,228.07,63.79Zm.27,4.22h5.32V83.58h-5.32Z" fill="#14aa40"/><path d="M236.52,68h5.32v2.5A5.51,5.51,0,0,1,247,67.6c3,0,5.09,1.87,5.09,5.86V83.58h-5.33v-9c0-1.76-.68-2.62-2.23-2.62s-2.65,1-2.65,3v8.72h-5.32Z" fill="#14aa40"/><path d="M253.77,83.58h5.3c.24,1.13.92,2,2.85,2,2.36,0,3.31-1.34,3.31-3.27V80a5.48,5.48,0,0,1-4.82,2.85c-3.63,0-6.61-2.68-6.61-7.47V75.1c0-4.59,2.95-7.5,6.61-7.5a5.06,5.06,0,0,1,4.82,2.62V68h5.32V82.27c0,4.64-3.06,7.08-8.63,7.08C256.63,89.35,254.19,87.12,253.77,83.58Zm11.61-8.28v-.2c0-2.15-1.1-3.52-3.07-3.52s-3.06,1.4-3.06,3.55v.23c0,2.15,1.13,3.51,3,3.51S265.38,77.51,265.38,75.3Z" fill="#14aa40"/><path d="M22.05,94.05h6.13v8.12h7V94.05h6.1v21.28h-6.1v-8.39h-7v8.39H22.05Z" fill="#14aa40"/><path d="M61.68,111l3.54,4.35H58.29L57,113.78a8.47,8.47,0,0,1-5.74,1.9c-4.52,0-7.47-2.38-7.47-6.42,0-2.74,1.67-4.76,4.67-6.19a6.81,6.81,0,0,1-1.31-3.72c0-3.63,3.1-5.57,6.85-5.57,3.39,0,6.45,1.7,6.45,5,0,2.32-1.37,4-4.25,5.27l2.68,3.27,1.54-3H65.1Zm-7.38-.62-3.36-4a2.53,2.53,0,0,0-1.43,2.29,2.47,2.47,0,0,0,2.71,2.65A2.8,2.8,0,0,0,54.3,110.36Zm-.65-8.57c1.43-.69,2.11-1.49,2.11-2.59a1.53,1.53,0,0,0-1.58-1.64,1.7,1.7,0,0,0-1.75,1.85A3.9,3.9,0,0,0,53.65,101.79Z" fill="#14aa40"/><path d="M67.15,94.05h8.33c5.57,0,8.66,2.26,8.66,6.76v.11a5.56,5.56,0,0,1-3.83,5.6l5.08,8.81H79l-4.32-7.62H73.22v7.62H67.15Zm8,9.7c2,0,3.06-.86,3.06-2.59V101c0-1.72-1.07-2.41-3-2.41h-2v5.12Z" fill="#14aa40"/><path d="M92.86,94.05h9.49c5,0,7.17,2.26,7.17,5.57v.11a4.39,4.39,0,0,1-3.6,4.59,4.61,4.61,0,0,1,4.25,5v.11c0,3.81-2.47,5.93-7.73,5.93H92.86Zm8.27,8.45c1.9,0,2.62-.65,2.62-2.17v-.12c0-1.46-.78-2.11-2.62-2.11H98.81v4.4Zm.21,8.75c1.93,0,2.82-.89,2.82-2.47v-.12c0-1.61-.86-2.44-3-2.44H98.81v5Z" fill="#14aa40"/><path d="M112.28,92.92h5.3v22.41h-5.3Z" fill="#14aa40"/><path d="M119.6,107.74v-.24c0-5,3.72-8.15,8.54-8.15s8.48,3.06,8.48,8v.24c0,5.06-3.72,8.09-8.51,8.09S119.6,112.77,119.6,107.74Zm11.61-.09v-.24c0-2.62-1.05-4.08-3.07-4.08s-3.09,1.4-3.09,4v.24c0,2.68,1,4.14,3.09,4.14S131.21,110.24,131.21,107.65Z" fill="#14aa40"/><path d="M137.66,107.74v-.24c0-5.18,3.72-8.15,8.3-8.15,3.81,0,7.32,1.66,7.62,6.39h-5a2.3,2.3,0,0,0-2.5-2.26c-1.87,0-3,1.34-3,4v.24c0,2.71,1.05,4.11,3.07,4.11a2.6,2.6,0,0,0,2.71-2.59h4.79c-.15,3.92-2.8,6.48-7.83,6.48C141.2,115.68,137.66,113,137.66,107.74Z" fill="#14aa40"/><path d="M155.39,92.92h5.33v13l4.19-6.16h5.54l-5.09,7,5.5,8.57h-6l-4.19-6.82v6.82h-5.33Z" fill="#14aa40"/><path d="M171,117.74l2.5-7.83,4.94,1.76L174.16,119Z" fill="#14aa40"/><path d="M191.06,113.75l-6.22-14h5.78l3.21,8.31,3-8.31h5.09l-8.33,20.77h-5.09Z" fill="#14aa40"/><path d="M201.59,107.74v-.24c0-5,3.72-8.15,8.54-8.15s8.48,3.06,8.48,8v.24c0,5.06-3.72,8.09-8.51,8.09S201.59,112.77,201.59,107.74Zm11.61-.09v-.24c0-2.62-1-4.08-3.07-4.08s-3.09,1.4-3.09,4v.24c0,2.68,1,4.14,3.09,4.14S213.2,110.24,213.2,107.65Z" fill="#14aa40"/><path d="M220.36,109.91V99.76h5.33v9.29c0,1.75.68,2.62,2.2,2.62s2.65-1,2.65-3v-9h5.33v15.57h-5.33v-2.41a5.12,5.12,0,0,1-4.94,2.76C222.59,115.68,220.36,113.84,220.36,109.91Z" fill="#14aa40"/><path d="M21.58,131.51H26.9v2.38a5.46,5.46,0,0,1,4.88-2.79A4.24,4.24,0,0,1,36,133.69a6.15,6.15,0,0,1,5.15-2.59c2.94,0,5.08,1.9,5.08,5.8v10.18H40.92v-9.29c0-1.57-.78-2.35-2-2.35a2.31,2.31,0,0,0-2.38,2.62v9H31.28v-9.29c0-1.57-.78-2.35-2-2.35a2.31,2.31,0,0,0-2.38,2.62v9H21.58Z" fill="#14aa40"/><path d="M47.94,142.76c0-3.66,3.09-5.09,8.27-5.09h1.48v-.35c0-1.49-.35-2.47-2-2.47a1.91,1.91,0,0,0-2.11,1.84h-5c.24-3.75,3.18-5.59,7.44-5.59s7,1.75,7,5.89v10.09H57.81v-1.82a5.1,5.1,0,0,1-4.61,2.17C50.4,147.43,47.94,146.06,47.94,142.76Zm9.75-1.13v-.95H56.3c-2.15,0-3.1.42-3.1,1.69,0,.9.6,1.46,1.85,1.46C56.56,143.83,57.69,143,57.69,141.63Z" fill="#14aa40"/><path d="M69.92,145.5l-6.22-14h5.78l3.21,8.31,3-8.31h5.09l-8.33,20.77H67.33Z" fill="#14aa40"/><path d="M92.86,144.67v2.41H87.53V124.67h5.33v9.16a5.5,5.5,0,0,1,4.85-2.73c3.63,0,6.57,2.73,6.57,8.06v.24c0,5.35-2.94,8-6.6,8A5,5,0,0,1,92.86,144.67Zm6-5.27v-.24c0-2.74-1.19-4-3.07-4s-3.09,1.4-3.09,4v.24c0,2.65,1.16,4,3.09,4S98.87,142,98.87,139.4Z" fill="#14aa40"/><path d="M105.38,139.49v-.24c0-5,3.72-8.15,8.42-8.15,4.26,0,7.92,2.44,7.92,8v1.4h-11c.15,2.05,1.34,3.24,3.24,3.24s2.5-.8,2.71-1.84h5c-.48,3.51-3.19,5.5-7.89,5.5C109,147.43,105.38,144.58,105.38,139.49Zm11.16-2c-.09-1.87-1-2.91-2.74-2.91s-2.71,1-3,2.91Z" fill="#14aa40"/><path d="M129,131.51h5.33v2.32a5.5,5.5,0,0,1,4.85-2.73c3.63,0,6.57,2.73,6.57,8.06v.24c0,5.35-2.94,8-6.6,8a5.13,5.13,0,0,1-4.82-2.65v7.5H129Zm11.34,7.89v-.24c0-2.74-1.19-4-3.07-4s-3.09,1.4-3.09,4v.24c0,2.65,1.16,4,3.09,4S140.31,142,140.31,139.4Z" fill="#14aa40"/><path d="M146.76,142.76c0-3.66,3.1-5.09,8.28-5.09h1.48v-.35c0-1.49-.35-2.47-2.05-2.47a1.91,1.91,0,0,0-2.11,1.84h-5c.24-3.75,3.18-5.59,7.44-5.59s7,1.75,7,5.89v10.09h-5.18v-1.82a5.1,5.1,0,0,1-4.61,2.17C149.23,147.43,146.76,146.06,146.76,142.76Zm9.76-1.13v-.95h-1.4c-2.14,0-3.09.42-3.09,1.69,0,.9.59,1.46,1.84,1.46C155.39,143.83,156.52,143,156.52,141.63Z" fill="#14aa40"/><path d="M168.75,145.5l-6.22-14h5.77l3.22,8.31,3-8.31h5.09l-8.33,20.77h-5.09Z" fill="#14aa40"/><path d="M180.83,127.29a2.78,2.78,0,0,1,2.91-2.77,2.76,2.76,0,1,1,0,5.51A2.76,2.76,0,0,1,180.83,127.29Zm.26,4.22h5.33v15.57h-5.33Z" fill="#14aa40"/><path d="M189.28,131.51h5.32V134a5.5,5.5,0,0,1,5.12-2.91c3,0,5.09,1.87,5.09,5.86v10.12h-5.33V138c0-1.76-.68-2.62-2.23-2.62s-2.65,1-2.65,3v8.72h-5.32Z" fill="#14aa40"/><path d="M206.53,147.08h5.3c.23,1.13.92,2,2.85,2,2.35,0,3.31-1.34,3.31-3.27v-2.38a5.48,5.48,0,0,1-4.82,2.85c-3.63,0-6.61-2.68-6.61-7.47v-.23c0-4.59,2.95-7.5,6.61-7.5a5.07,5.07,0,0,1,4.82,2.62v-2.21h5.32v14.26c0,4.64-3.06,7.08-8.63,7.08C209.39,152.85,207,150.62,206.53,147.08Zm11.6-8.28v-.2c0-2.15-1.1-3.52-3.06-3.52s-3.07,1.4-3.07,3.55v.23c0,2.15,1.14,3.51,3,3.51S218.13,141,218.13,138.8Z" fill="#14aa40"/><path d="M232.14,142.08v-6.94h-1.87v-3.63h1.87v-3.24h5.33v3.24h3.07v3.63h-3.07v6.43a1.43,1.43,0,0,0,1.58,1.64,4.07,4.07,0,0,0,1.52-.27V147a11.23,11.23,0,0,1-2.95.44C234.11,147.43,232.14,145.74,232.14,142.08Z" fill="#14aa40"/><path d="M241.72,139.49v-.24c0-5,3.72-8.15,8.54-8.15s8.48,3.06,8.48,8v.24c0,5.06-3.72,8.09-8.51,8.09S241.72,144.52,241.72,139.49Zm11.61-.09v-.24c0-2.62-1-4.08-3.07-4.08s-3.09,1.4-3.09,4v.24c0,2.68,1,4.14,3.09,4.14S253.33,142,253.33,139.4Z" fill="#14aa40"/><path d="M259.78,139.49v-.24c0-5,3.72-8.15,8.54-8.15s8.48,3.06,8.48,8v.24c0,5.06-3.72,8.09-8.51,8.09S259.78,144.52,259.78,139.49Zm11.61-.09v-.24c0-2.62-1.05-4.08-3.07-4.08s-3.09,1.4-3.09,4v.24c0,2.68,1,4.14,3.09,4.14S271.39,142,271.39,139.4Z" fill="#14aa40"/><path d="M21.58,163.26H26.9v2.38a5.46,5.46,0,0,1,4.88-2.79A4.24,4.24,0,0,1,36,165.44a6.15,6.15,0,0,1,5.15-2.59c2.94,0,5.08,1.9,5.08,5.8v10.18H40.92v-9.29c0-1.57-.78-2.35-2-2.35a2.31,2.31,0,0,0-2.38,2.62v9H31.28v-9.29c0-1.57-.78-2.35-2-2.35a2.31,2.31,0,0,0-2.38,2.62v9H21.58Z" fill="#14aa40"/><path d="M48.71,173.41V163.26H54v9.29c0,1.75.68,2.62,2.2,2.62s2.65-1,2.65-2.95v-9h5.32v15.57H58.89v-2.41A5.14,5.14,0,0,1,54,179.18C50.94,179.18,48.71,177.34,48.71,173.41Z" fill="#14aa40"/><path d="M66.08,171.24V171c0-5.18,3.72-8.15,8.3-8.15,3.81,0,7.32,1.66,7.62,6.39H77A2.3,2.3,0,0,0,74.5,167c-1.87,0-3,1.34-3,4v.24c0,2.71,1,4.11,3.06,4.11a2.6,2.6,0,0,0,2.71-2.59h4.79c-.15,3.92-2.8,6.48-7.82,6.48C69.62,179.18,66.08,176.48,66.08,171.24Z" fill="#14aa40"/><path d="M83.81,156.42h5.33v9.34a5.5,5.5,0,0,1,5.12-2.91c3,0,5.09,1.87,5.09,5.86v10.12H94v-9.05c0-1.76-.69-2.62-2.23-2.62s-2.65,1-2.65,3v8.72H83.81Z" fill="#14aa40"/><path d="M108.15,166.89h-2v-3.63h2V161.9c0-3.87,2.41-5.72,6.1-5.72a9.47,9.47,0,0,1,2.44.33v3.9a4.86,4.86,0,0,0-1.46-.21,1.57,1.57,0,0,0-1.79,1.7v1.36h3.16v3.63h-3.16v11.94h-5.29Z" fill="#14aa40"/><path d="M117,171.24V171c0-5,3.72-8.15,8.54-8.15s8.48,3.06,8.48,8v.24c0,5.06-3.72,8.09-8.51,8.09S117,176.27,117,171.24Zm11.61-.09v-.24c0-2.62-1-4.08-3.07-4.08s-3.09,1.4-3.09,4v.24c0,2.68,1,4.14,3.09,4.14S128.62,173.74,128.62,171.15Z" fill="#14aa40"/><path d="M135.9,163.26h5.33v3.1a4.9,4.9,0,0,1,5-3.3v5c-3.24-.08-5,.93-5,3.43v7.38H135.9Z" fill="#14aa40"/><path d="M154.32,173.83v-6.94h-1.87v-3.63h1.87V160h5.33v3.24h3.06v3.63h-3.06v6.43c0,1.13.56,1.64,1.57,1.64a4,4,0,0,0,1.52-.27v4.05a11.16,11.16,0,0,1-3,.44C156.28,179.18,154.32,177.49,154.32,173.83Z" fill="#14aa40"/><path d="M163.9,174.51c0-3.66,3.09-5.09,8.27-5.09h1.49v-.35c0-1.49-.36-2.47-2-2.47a1.92,1.92,0,0,0-2.12,1.84h-5c.24-3.75,3.19-5.59,7.44-5.59s7,1.75,7,5.89v10.09h-5.17V177a5.11,5.11,0,0,1-4.61,2.17C166.37,179.18,163.9,177.81,163.9,174.51Zm9.76-1.13v-.95h-1.4c-2.14,0-3.09.42-3.09,1.69,0,.9.59,1.46,1.84,1.46C172.53,175.58,173.66,174.72,173.66,173.38Z" fill="#14aa40"/><path d="M185.47,170.91l-4.85-7.65h6.13l2.41,4.11,2.35-4.11H197l-4.91,7.23,5.39,8.34h-6.13l-2.77-4.65-2.82,4.65h-5.45Z" fill="#14aa40"/><path d="M204.36,163.26h5.32v2.32a5.51,5.51,0,0,1,4.85-2.73c3.63,0,6.58,2.73,6.58,8.06v.24c0,5.35-3,8-6.61,8a5.14,5.14,0,0,1-4.82-2.65V184h-5.32Zm11.33,7.89v-.24c0-2.74-1.19-4-3.06-4s-3.09,1.4-3.09,4v.24c0,2.65,1.16,4,3.09,4S215.69,173.71,215.69,171.15Z" fill="#14aa40"/><path d="M223,163.26h5.33v3.1a4.9,4.9,0,0,1,5-3.3v5c-3.25-.08-5,.93-5,3.43v7.38H223Z" fill="#14aa40"/><path d="M234.35,171.24V171c0-5,3.71-8.15,8.42-8.15,4.25,0,7.91,2.44,7.91,8v1.4h-11c.15,2.05,1.34,3.24,3.24,3.24s2.5-.8,2.71-1.84h5c-.47,3.51-3.18,5.5-7.88,5.5C237.92,179.18,234.35,176.33,234.35,171.24Zm11.15-2c-.09-1.87-1-2.91-2.73-2.91s-2.71,1-3,2.91Z" fill="#14aa40"/><path d="M252.52,163.26h5.33v2.32a5.5,5.5,0,0,1,4.85-2.73c3.63,0,6.57,2.73,6.57,8.06v.24c0,5.35-2.94,8-6.6,8a5.13,5.13,0,0,1-4.82-2.65V184h-5.33Zm11.34,7.89v-.24c0-2.74-1.19-4-3.07-4s-3.09,1.4-3.09,4v.24c0,2.65,1.16,4,3.09,4S263.86,173.71,263.86,171.15Z" fill="#14aa40"/><path d="M270.61,176.15a3,3,0,0,1,3-3,3,3,0,1,1,0,6A3,3,0,0,1,270.61,176.15Z" fill="#14aa40"/></g></g></svg>