<svg xmlns="http://www.w3.org/2000/svg" viewBox="0 0 160 600"><title>Asset 19</title><g id="Layer_2" data-name="Layer 2"><g id="Rect"><rect width="160" height="600" fill="none"/></g><g id="Get_your_very_own_deduction_detector." data-name="Get your very own deduction detector."><path d="M20.75,168.7v-.19c0-5.29,3.88-8.85,9.09-8.85,4.1,0,7.74,1.86,8.08,6.37H33c-.25-1.62-1.29-2.47-3.13-2.47-2.45,0-3.93,1.89-3.93,5v.19c0,2.82,1,5,4,5,2.42,0,3.35-1.24,3.44-2.62H30.18v-3.47h8.15v2.14c0,4.41-2.89,7.73-8.49,7.73C24,177.55,20.75,173.89,20.75,168.7Z" fill="#fff"/><path d="M39.33,171.08v-.2c0-4.07,3-6.64,6.86-6.64,3.47,0,6.45,2,6.45,6.55v1.14H43.72a2.53,2.53,0,0,0,2.64,2.64c1.43,0,2-.66,2.2-1.5h4.08c-.39,2.86-2.6,4.48-6.43,4.48S39.33,175.22,39.33,171.08Zm9.09-1.6c-.07-1.53-.83-2.38-2.23-2.38a2.42,2.42,0,0,0-2.43,2.38Z" fill="#fff"/><path d="M54.73,173.19v-5.65H53.2v-3h1.53v-2.64h4.34v2.64h2.49v3H59.07v5.23c0,.93.46,1.34,1.28,1.34a3.23,3.23,0,0,0,1.24-.22v3.3a9.37,9.37,0,0,1-2.4.36C56.33,177.55,54.73,176.17,54.73,173.19Z" fill="#fff"/><path d="M71.6,176l-5.07-11.4h4.71l2.62,6.76,2.42-6.76h4.15L73.64,181.5H69.49Z" fill="#fff"/><path d="M80.19,171.08v-.2c0-4.07,3-6.64,7-6.64s6.91,2.5,6.91,6.52v.2c0,4.12-3,6.59-6.94,6.59S80.19,175.17,80.19,171.08Zm9.45-.08v-.19c0-2.13-.85-3.32-2.49-3.32s-2.53,1.14-2.53,3.27v.2c0,2.18.85,3.37,2.53,3.37S89.64,173.11,89.64,171Z" fill="#fff"/><path d="M95.49,172.85v-8.27h4.34v7.56c0,1.43.56,2.14,1.79,2.14s2.16-.78,2.16-2.4v-7.3h4.34v12.68h-4.34v-2a4.16,4.16,0,0,1-4,2.25C97.31,177.55,95.49,176.05,95.49,172.85Z" fill="#fff"/><path d="M110.33,164.58h4.34v2.52a4,4,0,0,1,4.1-2.69v4.05c-2.65-.07-4.1.75-4.1,2.79v6h-4.34Z" fill="#fff"/><path d="M20.19,193.83h4.64L27.47,202l2.59-8.17h4.15l-4.63,12.68H24.85Z" fill="#fff"/><path d="M33.94,200.33v-.2c0-4.07,3-6.64,6.87-6.64,3.46,0,6.44,2,6.44,6.55v1.14H38.33A2.53,2.53,0,0,0,41,203.82c1.44,0,2-.66,2.21-1.5h4.07c-.38,2.86-2.59,4.48-6.42,4.48S33.94,204.47,33.94,200.33Zm9.1-1.6c-.08-1.53-.83-2.38-2.23-2.38a2.42,2.42,0,0,0-2.43,2.38Z" fill="#fff"/><path d="M48.76,193.83H53.1v2.52a4,4,0,0,1,4.1-2.69v4.05c-2.65-.07-4.1.75-4.1,2.79v6H48.76Z" fill="#fff"/><path d="M63,205.23l-5.07-11.4h4.7l2.62,6.76,2.42-6.76h4.15L65,210.75H60.84Z" fill="#fff"/><path d="M76.62,200.33v-.2c0-4.07,3-6.64,7-6.64s6.91,2.5,6.91,6.52v.2c0,4.12-3,6.59-6.93,6.59S76.62,204.42,76.62,200.33Zm9.46-.08v-.19c0-2.13-.85-3.32-2.5-3.32s-2.52,1.14-2.52,3.27v.2c0,2.18.85,3.37,2.52,3.37S86.08,202.36,86.08,200.25Z" fill="#fff"/><path d="M90.54,193.83h4.54l1.84,7.59,2.13-7.59h3.49l1.89,7.59,2.07-7.59h4.12l-4,12.68h-4.14l-1.89-7.08-2,7.08H94.37Z" fill="#fff"/><path d="M111.74,193.83h4.34v2a4.47,4.47,0,0,1,4.17-2.38c2.45,0,4.14,1.53,4.14,4.78v8.24h-4.34v-7.37c0-1.43-.56-2.13-1.82-2.13s-2.15.77-2.15,2.4v7.1h-4.34Z" fill="#fff"/><path d="M20.65,229.55v-.19c0-4.32,2.38-6.62,5.39-6.62a4.11,4.11,0,0,1,3.9,2.13V217.5h4.34v18.26H29.94V233.7a4.27,4.27,0,0,1-4,2.35C23.06,236.05,20.65,233.94,20.65,229.55Zm9.41-.07v-.19c0-2.14-.89-3.28-2.5-3.28s-2.49,1.09-2.49,3.3v.19c0,2.14.94,3.23,2.45,3.23S30.06,231.64,30.06,229.48Z" fill="#fff"/><path d="M35.81,229.58v-.2c0-4.07,3-6.64,6.86-6.64,3.47,0,6.45,2,6.45,6.55v1.14H40.2a2.53,2.53,0,0,0,2.64,2.64c1.43,0,2-.66,2.21-1.5h4.07c-.39,2.86-2.59,4.48-6.42,4.48C38.72,236.05,35.81,233.72,35.81,229.58ZM44.9,228c-.07-1.53-.82-2.38-2.23-2.38A2.41,2.41,0,0,0,40.25,228Z" fill="#fff"/><path d="M50,229.55v-.19c0-4.32,2.37-6.62,5.38-6.62a4.1,4.1,0,0,1,3.9,2.13V217.5h4.34v18.26H59.28V233.7a4.26,4.26,0,0,1-4,2.35C52.4,236.05,50,233.94,50,229.55Zm9.4-.07v-.19c0-2.14-.89-3.28-2.49-3.28s-2.5,1.09-2.5,3.3v.19c0,2.14,1,3.23,2.45,3.23S59.4,231.64,59.4,229.48Z" fill="#fff"/><path d="M65.73,231.35v-8.27h4.35v7.56c0,1.43.55,2.14,1.79,2.14S74,232,74,230.38v-7.3h4.34v12.68H74v-2a4.17,4.17,0,0,1-4,2.25C67.55,236.05,65.73,234.55,65.73,231.35Z" fill="#fff"/><path d="M79.9,229.58v-.2c0-4.22,3-6.64,6.76-6.64,3.1,0,6,1.36,6.21,5.21H88.79a1.86,1.86,0,0,0-2-1.84c-1.53,0-2.43,1.09-2.43,3.22v.2c0,2.21.85,3.34,2.5,3.34a2.11,2.11,0,0,0,2.21-2.1h3.9c-.12,3.2-2.28,5.28-6.38,5.28C82.78,236.05,79.9,233.84,79.9,229.58Z" fill="#fff"/><path d="M94.93,231.69V226H93.4v-3h1.53v-2.64h4.34v2.64h2.5v3h-2.5v5.23c0,.93.46,1.34,1.29,1.34a3.17,3.17,0,0,0,1.23-.22v3.3a9.29,9.29,0,0,1-2.4.36C96.53,236.05,94.93,234.67,94.93,231.69Z" fill="#fff"/><path d="M103.32,219.64a2.4,2.4,0,1,1,2.38,2.23A2.27,2.27,0,0,1,103.32,219.64Zm.22,3.44h4.34v12.68h-4.34Z" fill="#fff"/><path d="M109.53,229.58v-.2c0-4.07,3-6.64,7-6.64s6.91,2.5,6.91,6.52v.2c0,4.12-3,6.59-6.94,6.59S109.53,233.67,109.53,229.58Zm9.46-.08v-.19c0-2.13-.85-3.32-2.5-3.32s-2.52,1.14-2.52,3.27v.2c0,2.18.85,3.37,2.52,3.37S119,231.61,119,229.5Z" fill="#fff"/><path d="M124.93,223.08h4.34v2a4.48,4.48,0,0,1,4.17-2.38c2.45,0,4.14,1.53,4.14,4.78v8.24h-4.33v-7.37c0-1.43-.56-2.13-1.82-2.13s-2.16.77-2.16,2.4v7.1h-4.34Z" fill="#fff"/><path d="M20.65,258.8v-.19C20.65,254.29,23,252,26,252a4.11,4.11,0,0,1,3.9,2.13v-7.37h4.34V265H29.94V263a4.27,4.27,0,0,1-4,2.35C23.06,265.3,20.65,263.19,20.65,258.8Zm9.41-.07v-.19c0-2.14-.89-3.28-2.5-3.28s-2.49,1.09-2.49,3.3v.19c0,2.14.94,3.23,2.45,3.23S30.06,260.89,30.06,258.73Z" fill="#fff"/><path d="M35.81,258.83v-.2c0-4.07,3-6.64,6.86-6.64,3.47,0,6.45,2,6.45,6.55v1.14H40.2a2.53,2.53,0,0,0,2.64,2.64c1.43,0,2-.66,2.21-1.5h4.07c-.39,2.86-2.59,4.48-6.42,4.48C38.72,265.3,35.81,263,35.81,258.83Zm9.09-1.6c-.07-1.53-.82-2.38-2.23-2.38a2.41,2.41,0,0,0-2.42,2.38Z" fill="#fff"/><path d="M51.21,260.94v-5.65H49.68v-3h1.53v-2.64h4.34v2.64h2.5v3h-2.5v5.23c0,.93.46,1.34,1.28,1.34a3.23,3.23,0,0,0,1.24-.22v3.3a9.37,9.37,0,0,1-2.4.36C52.81,265.3,51.21,263.92,51.21,260.94Z" fill="#fff"/><path d="M59,258.83v-.2c0-4.07,3-6.64,6.86-6.64,3.47,0,6.45,2,6.45,6.55v1.14H63.41a2.53,2.53,0,0,0,2.64,2.64c1.43,0,2-.66,2.21-1.5h4.07c-.39,2.86-2.6,4.48-6.43,4.48S59,263,59,258.83Zm9.09-1.6c-.07-1.53-.82-2.38-2.23-2.38a2.42,2.42,0,0,0-2.43,2.38Z" fill="#fff"/><path d="M73.16,258.83v-.2c0-4.22,3-6.64,6.76-6.64,3.1,0,6,1.36,6.21,5.21H82.05a1.86,1.86,0,0,0-2-1.84c-1.53,0-2.43,1.09-2.43,3.22v.2c0,2.21.85,3.34,2.5,3.34A2.11,2.11,0,0,0,82.3,260h3.9c-.12,3.2-2.28,5.28-6.38,5.28C76,265.3,73.16,263.09,73.16,258.83Z" fill="#fff"/><path d="M88.19,260.94v-5.65H86.66v-3h1.53v-2.64h4.34v2.64H95v3h-2.5v5.23c0,.93.46,1.34,1.29,1.34a3.21,3.21,0,0,0,1.23-.22v3.3a9.37,9.37,0,0,1-2.4.36C89.79,265.3,88.19,263.92,88.19,260.94Z" fill="#fff"/><path d="M96,258.83v-.2c0-4.07,3-6.64,7-6.64s6.91,2.5,6.91,6.52v.2c0,4.12-3,6.59-6.94,6.59S96,262.92,96,258.83Zm9.45-.08v-.19c0-2.13-.84-3.32-2.49-3.32s-2.52,1.14-2.52,3.27v.2c0,2.18.84,3.37,2.52,3.37S105.45,260.86,105.45,258.75Z" fill="#fff"/><path d="M111.4,252.33h4.34v2.52a4,4,0,0,1,4.09-2.69v4c-2.64-.07-4.09.75-4.09,2.79v6H111.4Z" fill="#fff"/><path d="M119.79,262.83a2.41,2.41,0,0,1,2.47-2.45,2.45,2.45,0,1,1,0,4.9A2.41,2.41,0,0,1,119.79,262.83Z" fill="#fff"/></g></g></svg>