<svg xmlns="http://www.w3.org/2000/svg" viewBox="0 0 728 90"><title>h72</title><g id="Layer_2" data-name="Layer 2"><g id="Rect"><rect width="728" height="90" fill="none"/></g><g id="H72"><g id="Texan_Taxpayer_Filing_at_H_R_Block_could_save_you_money." data-name="Texan? Taxpayer? Filing at  H&amp;R Block could save you money."><path d="M124.06,19.1h-5.12V14.74h15.92V19.1h-5.11V34.49h-5.69Z" fill="#fff"/><path d="M133.65,27.45v-.22c0-4.65,3.45-7.58,7.82-7.58,3.95,0,7.35,2.27,7.35,7.47v1.29H138.65a2.89,2.89,0,0,0,3,3c1.63,0,2.32-.75,2.51-1.72h4.65c-.45,3.26-3,5.12-7.33,5.12C137,34.83,133.65,32.17,133.65,27.45ZM144,25.62c-.08-1.74-.94-2.7-2.54-2.7s-2.52,1-2.77,2.7Z" fill="#fff"/><path d="M153.4,27.14,148.9,20h5.69l2.24,3.81L159,20h5.09l-4.56,6.72,5,7.73h-5.69l-2.57-4.31-2.63,4.31H148.6Z" fill="#fff"/><path d="M164.9,30.49c0-3.4,2.87-4.73,7.68-4.73H174v-.33c0-1.38-.33-2.29-1.9-2.29a1.78,1.78,0,0,0-2,1.71h-4.64c.22-3.48,3-5.2,6.91-5.2s6.52,1.64,6.52,5.48v9.36h-4.81V32.81a4.74,4.74,0,0,1-4.28,2C167.19,34.83,164.9,33.55,164.9,30.49Zm9.06-1v-.89h-1.3c-2,0-2.87.39-2.87,1.58,0,.83.55,1.35,1.71,1.35C172.91,31.48,174,30.68,174,29.44Z" fill="#fff"/><path d="M181.29,20h4.94v2.32A5.12,5.12,0,0,1,191,19.65c2.79,0,4.72,1.75,4.72,5.45v9.39h-5v-8.4c0-1.63-.63-2.43-2.07-2.43s-2.46.89-2.46,2.74v8.09h-4.94Z" fill="#fff"/><path d="M200.77,27.48c0-2.1,1.44-3.43,2.71-4.65.94-.91,1.79-1.74,1.79-2.71a1.47,1.47,0,0,0-1.68-1.65c-1.19,0-2,.91-2.19,2.43h-4.8c.13-4.17,3.12-6.44,7.37-6.44s6.66,1.91,6.66,5.19a5.62,5.62,0,0,1-2,4.15c-1.36,1.35-2.93,2.43-3.18,3.79V28h-4.67Zm-.64,4.58a3,3,0,0,1,5.92,0,3,3,0,0,1-5.92,0Z" fill="#fff"/><path d="M221.77,19.1h-5.11V14.74h15.92V19.1h-5.12V34.49h-5.69Z" fill="#fff"/><path d="M231.58,30.49c0-3.4,2.87-4.73,7.68-4.73h1.38v-.33c0-1.38-.33-2.29-1.9-2.29a1.77,1.77,0,0,0-2,1.71h-4.65c.22-3.48,3-5.2,6.91-5.2s6.52,1.64,6.52,5.48v9.36h-4.8V32.81a4.77,4.77,0,0,1-4.29,2C233.87,34.83,231.58,33.55,231.58,30.49Zm9.06-1v-.89h-1.29c-2,0-2.88.39-2.88,1.58,0,.83.55,1.35,1.72,1.35A2.17,2.17,0,0,0,240.64,29.44Z" fill="#fff"/><path d="M251.62,27.14,247.11,20h5.69L255,23.85,257.22,20h5.09l-4.56,6.72,5,7.73h-5.69l-2.57-4.31-2.63,4.31h-5.05Z" fill="#fff"/><path d="M264.13,20h4.95V22.2a5.11,5.11,0,0,1,4.5-2.55c3.38,0,6.11,2.55,6.11,7.49v.22c0,5-2.73,7.47-6.13,7.47a4.78,4.78,0,0,1-4.48-2.46v7h-4.95Zm10.53,7.32v-.22c0-2.54-1.1-3.75-2.84-3.75s-2.88,1.29-2.88,3.73v.22c0,2.46,1.08,3.7,2.88,3.7S274.66,29.74,274.66,27.36Z" fill="#fff"/><path d="M280.66,30.49c0-3.4,2.87-4.73,7.68-4.73h1.38v-.33c0-1.38-.33-2.29-1.91-2.29a1.77,1.77,0,0,0-2,1.71h-4.64c.22-3.48,3-5.2,6.91-5.2s6.52,1.64,6.52,5.48v9.36h-4.81V32.81a4.74,4.74,0,0,1-4.28,2C283,34.83,280.66,33.55,280.66,30.49Zm9.06-1v-.89h-1.3c-2,0-2.87.39-2.87,1.58,0,.83.55,1.35,1.71,1.35C288.67,31.48,289.72,30.68,289.72,29.44Z" fill="#fff"/><path d="M301.08,33,295.3,20h5.37l3,7.71L306.41,20h4.73L303.4,39.33h-4.72Z" fill="#fff"/><path d="M310.86,27.45v-.22c0-4.65,3.46-7.58,7.82-7.58,3.95,0,7.35,2.27,7.35,7.47v1.29H315.86a2.9,2.9,0,0,0,3,3c1.63,0,2.32-.75,2.51-1.72H326c-.44,3.26-2.95,5.12-7.32,5.12C314.18,34.83,310.86,32.17,310.86,27.45Zm10.36-1.83c-.08-1.74-.94-2.7-2.54-2.7s-2.51,1-2.76,2.7Z" fill="#fff"/><path d="M327.75,20h4.94v2.88a4.55,4.55,0,0,1,4.67-3.07v4.61c-3-.08-4.67.86-4.67,3.18v6.85h-4.94Z" fill="#fff"/><path d="M342.64,27.48c0-2.1,1.44-3.43,2.71-4.65.94-.91,1.79-1.74,1.79-2.71a1.47,1.47,0,0,0-1.68-1.65c-1.19,0-2,.91-2.18,2.43h-4.81c.14-4.17,3.12-6.44,7.38-6.44s6.66,1.91,6.66,5.19a5.63,5.63,0,0,1-2,4.15c-1.36,1.35-2.93,2.43-3.18,3.79V28h-4.67ZM342,32.06a3,3,0,0,1,5.92,0,3,3,0,0,1-5.92,0Z" fill="#fff"/><path d="M359.86,14.74H373.2v4.39h-7.65v4.2h6.11V27.5h-6.11v7h-5.69Z" fill="#fff"/><path d="M374.61,16.12a2.58,2.58,0,0,1,2.71-2.57,2.56,2.56,0,1,1,0,5.11A2.56,2.56,0,0,1,374.61,16.12Zm.25,3.92h4.95V34.49h-4.95Z" fill="#fff"/><path d="M382.6,13.69h4.92v20.8H382.6Z" fill="#fff"/><path d="M390.06,16.12a2.73,2.73,0,1,1,2.71,2.54A2.58,2.58,0,0,1,390.06,16.12Zm.25,3.92h4.94V34.49h-4.94Z" fill="#fff"/><path d="M397.91,20h4.94v2.32a5.12,5.12,0,0,1,4.76-2.71c2.79,0,4.72,1.75,4.72,5.45v9.39h-4.94v-8.4c0-1.63-.64-2.43-2.08-2.43s-2.46.89-2.46,2.74v8.09h-4.94Z" fill="#fff"/><path d="M413.94,34.49h4.91c.23,1,.86,1.88,2.66,1.88a2.73,2.73,0,0,0,3.06-3V31.12a5.07,5.07,0,0,1-4.47,2.66c-3.37,0-6.14-2.49-6.14-6.94v-.22c0-4.26,2.74-7,6.14-7a4.68,4.68,0,0,1,4.47,2.44V20h4.95V33.28c0,4.31-2.85,6.57-8,6.57C416.59,39.85,414.32,37.78,413.94,34.49Zm10.77-7.68v-.19c0-2-1-3.26-2.84-3.26S419,24.66,419,26.65v.22c0,2,1.05,3.26,2.82,3.26S424.71,28.86,424.71,26.81Z" fill="#fff"/><path d="M436.24,30.49c0-3.4,2.87-4.73,7.68-4.73h1.38v-.33c0-1.38-.33-2.29-1.91-2.29a1.77,1.77,0,0,0-2,1.71h-4.64c.22-3.48,3-5.2,6.91-5.2s6.52,1.64,6.52,5.48v9.36h-4.81V32.81a4.74,4.74,0,0,1-4.28,2C438.53,34.83,436.24,33.55,436.24,30.49Zm9.06-1v-.89H444c-2,0-2.87.39-2.87,1.58,0,.83.55,1.35,1.71,1.35C444.25,31.48,445.3,30.68,445.3,29.44Z" fill="#fff"/><path d="M453.2,29.85V23.41h-1.74V20h1.74V17h4.95v3H461v3.37h-2.85v6c0,1.05.52,1.52,1.46,1.52a3.66,3.66,0,0,0,1.41-.25v3.76a10.09,10.09,0,0,1-2.73.42C455,34.83,453.2,33.25,453.2,29.85Z" fill="#fff"/><path d="M120.27,51.18H126v7.54h6.5V51.18h5.66V70.94h-5.66V63.15H126v7.79h-5.69Z" fill="#fff"/><path d="M157.08,66.9l3.29,4h-6.44l-1.16-1.44a7.86,7.86,0,0,1-5.33,1.77c-4.21,0-6.94-2.21-6.94-6,0-2.54,1.55-4.42,4.34-5.75a6.25,6.25,0,0,1-1.22-3.45c0-3.37,2.88-5.17,6.36-5.17,3.15,0,6,1.58,6,4.62,0,2.15-1.27,3.73-3.95,4.89l2.49,3L156,60.66h4.31Zm-6.85-.58-3.13-3.75a2.34,2.34,0,0,0-1.32,2.12,2.29,2.29,0,0,0,2.51,2.46A2.58,2.58,0,0,0,150.23,66.32Zm-.61-7.95c1.32-.64,2-1.39,2-2.41a1.42,1.42,0,0,0-1.46-1.52,1.58,1.58,0,0,0-1.63,1.71A3.66,3.66,0,0,0,149.62,58.37Z" fill="#fff"/><path d="M162.16,51.18h7.74c5.17,0,8,2.1,8,6.27v.11a5.17,5.17,0,0,1-3.56,5.2l4.72,8.18h-6l-4-7.08H167.8v7.08h-5.64Zm7.46,9c1.91,0,2.85-.8,2.85-2.4v-.12c0-1.6-1-2.23-2.82-2.23H167.8v4.75Z" fill="#fff"/><path d="M186,51.18h8.81c4.67,0,6.66,2.1,6.66,5.17v.11a4.06,4.06,0,0,1-3.34,4.25,4.3,4.3,0,0,1,4,4.62v.11c0,3.54-2.29,5.5-7.18,5.5H186ZM193.72,59c1.77,0,2.43-.61,2.43-2V56.9c0-1.35-.71-2-2.43-2h-2.15V59Zm.2,8.12c1.79,0,2.62-.83,2.62-2.29v-.11c0-1.49-.8-2.27-2.79-2.27h-2.18v4.67Z" fill="#fff"/><path d="M204.08,50.13H209V70.94h-4.92Z" fill="#fff"/><path d="M210.88,63.89v-.22c0-4.64,3.46-7.57,7.93-7.57s7.88,2.85,7.88,7.43v.22c0,4.7-3.46,7.52-7.9,7.52S210.88,68.56,210.88,63.89Zm10.78-.08v-.22c0-2.43-1-3.79-2.85-3.79s-2.87,1.3-2.87,3.73v.22c0,2.49,1,3.84,2.87,3.84S221.66,66.21,221.66,63.81Z" fill="#fff"/><path d="M227.66,63.89v-.22c0-4.81,3.45-7.57,7.71-7.57,3.53,0,6.79,1.55,7.07,5.94H237.8a2.14,2.14,0,0,0-2.32-2.1c-1.74,0-2.77,1.24-2.77,3.68v.22c0,2.51,1,3.81,2.85,3.81a2.4,2.4,0,0,0,2.51-2.4h4.45c-.14,3.64-2.59,6-7.26,6C230.94,71.27,227.66,68.76,227.66,63.89Z" fill="#fff"/><path d="M244.13,50.13h4.94V62.21l3.9-5.72h5.14L253.38,63l5.12,8H253l-3.9-6.33v6.33h-4.94Z" fill="#fff"/><path d="M263.91,63.89v-.22c0-4.81,3.46-7.57,7.71-7.57,3.54,0,6.8,1.55,7.08,5.94h-4.65a2.14,2.14,0,0,0-2.32-2.1c-1.74,0-2.76,1.24-2.76,3.68v.22c0,2.51,1,3.81,2.84,3.81a2.41,2.41,0,0,0,2.52-2.4h4.45c-.14,3.64-2.6,6-7.27,6C267.2,71.27,263.91,68.76,263.91,63.89Z" fill="#fff"/><path d="M279.61,63.89v-.22c0-4.64,3.45-7.57,7.93-7.57s7.87,2.85,7.87,7.43v.22c0,4.7-3.45,7.52-7.9,7.52S279.61,68.56,279.61,63.89Zm10.77-.08v-.22c0-2.43-1-3.79-2.84-3.79s-2.88,1.3-2.88,3.73v.22c0,2.49,1,3.84,2.88,3.84S290.38,66.21,290.38,63.81Z" fill="#fff"/><path d="M297,65.91V56.49H302v8.62c0,1.63.64,2.43,2.05,2.43s2.46-.88,2.46-2.74V56.49h4.94V70.94H306.5V68.7a4.77,4.77,0,0,1-4.59,2.57C299.12,71.27,297,69.56,297,65.91Z" fill="#fff"/><path d="M314.09,50.13H319V70.94h-4.92Z" fill="#fff"/><path d="M321,63.86v-.22c0-4.92,2.71-7.54,6.13-7.54a4.69,4.69,0,0,1,4.45,2.43v-8.4h5V70.94h-5V68.59a4.87,4.87,0,0,1-4.5,2.68C323.68,71.27,321,68.87,321,63.86Zm10.72-.08v-.22c0-2.43-1-3.73-2.85-3.73S326,61.07,326,63.59v.22c0,2.43,1.07,3.67,2.79,3.67S331.67,66.24,331.67,63.78Z" fill="#fff"/><path d="M343.05,66.35h4.56c.17,1.05.64,1.63,2.05,1.63,1.22,0,1.77-.47,1.77-1.19s-.69-1-2.68-1.29c-3.87-.5-5.5-1.64-5.5-4.65,0-3.2,2.84-4.75,6.19-4.75,3.56,0,6.05,1.22,6.38,4.67h-4.48a1.61,1.61,0,0,0-1.85-1.44c-1.07,0-1.63.47-1.63,1.13s.67,1,2.43,1.19c4,.5,5.95,1.55,5.95,4.65,0,3.42-2.55,5-6.55,5S343.17,69.56,343.05,66.35Z" fill="#fff"/><path d="M357,66.93c0-3.4,2.87-4.72,7.68-4.72h1.38v-.33c0-1.39-.33-2.3-1.9-2.3a1.78,1.78,0,0,0-2,1.71h-4.64c.22-3.48,3-5.19,6.91-5.19S371,57.73,371,61.57v9.37h-4.81V69.25a4.74,4.74,0,0,1-4.28,2C359.3,71.27,357,70,357,66.93Zm9.06-1.05V65h-1.3c-2,0-2.87.38-2.87,1.57,0,.83.55,1.36,1.71,1.36A2.18,2.18,0,0,0,366.07,65.88Z" fill="#fff"/><path d="M371.74,56.49H377l3,9.31,3-9.31h4.72l-5.28,14.45H377Z" fill="#fff"/><path d="M387.41,63.89v-.22c0-4.64,3.45-7.57,7.82-7.57,3.95,0,7.35,2.27,7.35,7.46v1.3H392.41a2.88,2.88,0,0,0,3,3c1.63,0,2.32-.75,2.52-1.71h4.64c-.44,3.26-3,5.11-7.33,5.11C390.72,71.27,387.41,68.62,387.41,63.89Zm10.36-1.82c-.08-1.74-.94-2.71-2.54-2.71s-2.52,1-2.77,2.71Z" fill="#fff"/><path d="M413.85,69.47l-5.77-13h5.36l3,7.71,2.77-7.71h4.72l-7.74,19.28h-4.72Z" fill="#fff"/><path d="M423.63,63.89v-.22c0-4.64,3.46-7.57,7.94-7.57s7.87,2.85,7.87,7.43v.22c0,4.7-3.45,7.52-7.9,7.52S423.63,68.56,423.63,63.89Zm10.78-.08v-.22c0-2.43-1-3.79-2.84-3.79s-2.88,1.3-2.88,3.73v.22c0,2.49,1,3.84,2.88,3.84S434.41,66.21,434.41,63.81Z" fill="#fff"/><path d="M441.07,65.91V56.49H446v8.62c0,1.63.63,2.43,2,2.43s2.46-.88,2.46-2.74V56.49h5V70.94h-5V68.7a4.74,4.74,0,0,1-4.58,2.57C443.14,71.27,441.07,69.56,441.07,65.91Z" fill="#fff"/><path d="M463,56.49H468V58.7a5,5,0,0,1,4.53-2.6,4,4,0,0,1,3.93,2.4,5.73,5.73,0,0,1,4.78-2.4c2.73,0,4.72,1.77,4.72,5.39v9.45H481V62.32c0-1.47-.71-2.19-1.85-2.19a2.15,2.15,0,0,0-2.21,2.44v8.37H472V62.32c0-1.47-.72-2.19-1.85-2.19A2.14,2.14,0,0,0,468,62.57v8.37H463Z" fill="#fff"/><path d="M487.55,63.89v-.22c0-4.64,3.46-7.57,7.93-7.57s7.88,2.85,7.88,7.43v.22c0,4.7-3.46,7.52-7.9,7.52S487.55,68.56,487.55,63.89Zm10.78-.08v-.22c0-2.43-1-3.79-2.85-3.79s-2.87,1.3-2.87,3.73v.22c0,2.49,1,3.84,2.87,3.84S498.33,66.21,498.33,63.81Z" fill="#fff"/><path d="M505.1,56.49h4.95v2.32a5.1,5.1,0,0,1,4.75-2.71c2.79,0,4.73,1.74,4.73,5.44v9.4h-4.95v-8.4c0-1.63-.64-2.43-2.07-2.43s-2.46.88-2.46,2.73v8.1H505.1Z" fill="#fff"/><path d="M521.15,63.89v-.22c0-4.64,3.46-7.57,7.82-7.57,4,0,7.36,2.27,7.36,7.46v1.3H526.16a2.88,2.88,0,0,0,3,3c1.63,0,2.32-.75,2.51-1.71h4.65c-.45,3.26-3,5.11-7.33,5.11C524.47,71.27,521.15,68.62,521.15,63.89Zm10.37-1.82c-.09-1.74-.94-2.71-2.55-2.71s-2.51,1-2.76,2.71Z" fill="#fff"/><path d="M541.88,69.47l-5.77-13h5.36l3,7.71,2.76-7.71h4.73L544.2,75.77h-4.72Z" fill="#fff"/><path d="M550.89,68.45a2.75,2.75,0,0,1,2.82-2.79,2.79,2.79,0,1,1,0,5.58A2.75,2.75,0,0,1,550.89,68.45Z" fill="#fff"/></g></g></g></svg>