<svg xmlns="http://www.w3.org/2000/svg" viewBox="0 0 728 90"><title>728x90</title><g id="Layer_2" data-name="Layer 2"><g id="Artboard_5" data-name="Artboard 5" style="isolation:isolate"><g id="headline2"><g id="Help_is_here_with_Tax_Pro_Go._Upload_your_docs_for_expert_tax" data-name="Help is here with Tax Pro Go.  Upload your docs for expert tax"><path d="M117.4,22.41h4.84v6.46h5.53V22.41h4.82V39.32h-4.82V32.65h-5.53v6.67H117.4Z" fill="#fff"/><path d="M134.28,33.29V33.1a6.31,6.31,0,0,1,6.65-6.48c3.37,0,6.26,1.94,6.26,6.39v1.11h-8.65a2.46,2.46,0,0,0,2.56,2.58c1.39,0,2-.64,2.14-1.47h3.95c-.38,2.79-2.52,4.37-6.23,4.37C137.1,39.6,134.28,37.33,134.28,33.29Zm8.82-1.56c-.07-1.49-.8-2.32-2.17-2.32a2.35,2.35,0,0,0-2.35,2.32Z" fill="#fff"/><path d="M148.76,21.51H153V39.32h-4.19Z" fill="#fff"/><path d="M155.2,27h4.21V28.8a4.33,4.33,0,0,1,3.83-2.18c2.87,0,5.2,2.18,5.2,6.41v.19c0,4.26-2.33,6.38-5.22,6.38a4,4,0,0,1-3.81-2.1v6H155.2Zm9,6.27V33c0-2.18-.94-3.22-2.42-3.22s-2.45,1.12-2.45,3.2v.19c0,2.1.92,3.16,2.45,3.16S164.16,35.25,164.16,33.22Z" fill="#fff"/><path d="M174.15,23.59a2.32,2.32,0,1,1,2.3,2.18A2.21,2.21,0,0,1,174.15,23.59Zm.21,3.36h4.21V39.32h-4.21Z" fill="#fff"/><path d="M180,35.4h3.88c.14.89.54,1.39,1.74,1.39,1,0,1.51-.4,1.51-1s-.59-.87-2.29-1.11c-3.29-.42-4.67-1.39-4.67-4,0-2.74,2.42-4.07,5.26-4.07,3,0,5.15,1,5.43,4h-3.8a1.38,1.38,0,0,0-1.58-1.23c-.92,0-1.39.4-1.39,1s.57.83,2.07,1c3.41.43,5.06,1.33,5.06,4,0,2.93-2.17,4.25-5.58,4.25S180.09,38.14,180,35.4Z" fill="#fff"/><path d="M196.86,21.51h4.2v7.43a4.34,4.34,0,0,1,4.05-2.32c2.37,0,4,1.49,4,4.66v8h-4.21V32.13c0-1.39-.54-2.08-1.76-2.08s-2.1.76-2.1,2.34v6.93h-4.2Z" fill="#fff"/><path d="M210.51,33.29V33.1a6.31,6.31,0,0,1,6.66-6.48c3.36,0,6.25,1.94,6.25,6.39v1.11h-8.65a2.47,2.47,0,0,0,2.56,2.58c1.39,0,2-.64,2.14-1.47h3.95c-.37,2.79-2.51,4.37-6.23,4.37S210.51,37.33,210.51,33.29Zm8.82-1.56c-.07-1.49-.8-2.32-2.16-2.32a2.35,2.35,0,0,0-2.35,2.32Z" fill="#fff"/><path d="M224.88,27h4.21v2.46a3.86,3.86,0,0,1,4-2.62v3.95c-2.56-.07-4,.73-4,2.72v5.86h-4.21Z" fill="#fff"/><path d="M233.81,33.29V33.1a6.31,6.31,0,0,1,6.65-6.48c3.37,0,6.26,1.94,6.26,6.39v1.11h-8.65a2.46,2.46,0,0,0,2.56,2.58c1.39,0,2-.64,2.14-1.47h3.95c-.38,2.79-2.52,4.37-6.23,4.37C236.63,39.6,233.81,37.33,233.81,33.29Zm8.82-1.56c-.07-1.49-.8-2.32-2.17-2.32a2.35,2.35,0,0,0-2.35,2.32Z" fill="#fff"/><path d="M251.42,27h4.39l1.79,7.4,2.07-7.4h3.39l1.83,7.4,2-7.4h4L267,39.32h-4l-1.83-6.9-1.91,6.9h-4.09Z" fill="#fff"/><path d="M271.87,23.59a2.32,2.32,0,1,1,2.3,2.18A2.21,2.21,0,0,1,271.87,23.59Zm.21,3.36h4.21V39.32h-4.21Z" fill="#fff"/><path d="M279.11,35.35V29.84h-1.48V27h1.48V24.37h4.21V27h2.42v2.89h-2.42V35c0,.89.44,1.3,1.24,1.3a3,3,0,0,0,1.2-.22v3.22a8.87,8.87,0,0,1-2.32.35C280.66,39.6,279.11,38.26,279.11,35.35Z" fill="#fff"/><path d="M287.34,21.51h4.2v7.43a4.34,4.34,0,0,1,4-2.32c2.37,0,4,1.49,4,4.66v8H295.4V32.13c0-1.39-.54-2.08-1.76-2.08s-2.1.76-2.1,2.34v6.93h-4.2Z" fill="#fff"/><path d="M309.53,26.15h-4.35V22.41h13.54v3.74h-4.35V39.32h-4.84Z" fill="#fff"/><path d="M317.87,35.89c0-2.91,2.45-4,6.54-4h1.18v-.29c0-1.18-.29-2-1.63-2a1.52,1.52,0,0,0-1.67,1.47h-4c.19-3,2.52-4.45,5.88-4.45s5.55,1.4,5.55,4.68v8h-4.09V37.88A4,4,0,0,1,322,39.6C319.83,39.6,317.87,38.52,317.87,35.89Zm7.72-.9v-.75h-1.11c-1.69,0-2.44.33-2.44,1.34,0,.71.47,1.16,1.45,1.16A1.86,1.86,0,0,0,325.59,35Z" fill="#fff"/><path d="M334.92,33,331.08,27h4.85l1.9,3.27L339.69,27H344l-3.88,5.75,4.25,6.62h-4.84l-2.19-3.69-2.23,3.69h-4.3Z" fill="#fff"/><path d="M350.22,22.41h6.4c4.6,0,6.74,2.06,6.74,5.65v.1c0,3.55-2.37,5.46-6.53,5.46H355v5.7h-4.8Zm6.18,7.9c1.56,0,2.38-.73,2.38-2.13v-.09c0-1.45-.85-2-2.35-2H355v4.26Z" fill="#fff"/><path d="M364.82,27H369v2.46a3.86,3.86,0,0,1,4-2.62v3.95c-2.56-.07-4,.73-4,2.72v5.86h-4.21Z" fill="#fff"/><path d="M373.75,33.29V33.1c0-4,2.94-6.48,6.75-6.48s6.7,2.44,6.7,6.36v.19c0,4-2.94,6.43-6.72,6.43S373.75,37.29,373.75,33.29Zm9.17-.07V33c0-2.08-.82-3.24-2.42-3.24s-2.45,1.11-2.45,3.19v.19c0,2.13.83,3.29,2.45,3.29S382.92,35.28,382.92,33.22Z" fill="#fff"/><path d="M392.44,31v-.19c0-5.15,3.76-8.63,8.82-8.63,4,0,7.5,1.82,7.83,6.22h-4.78c-.23-1.58-1.24-2.41-3-2.41-2.37,0-3.81,1.84-3.81,4.89V31c0,2.75,1,4.88,3.93,4.88,2.35,0,3.24-1.21,3.34-2.56h-3.15V30h7.9v2.08c0,4.3-2.8,7.54-8.23,7.54C395.54,39.6,392.44,36,392.44,31Z" fill="#fff"/><path d="M410.45,33.29V33.1c0-4,2.94-6.48,6.74-6.48s6.71,2.44,6.71,6.36v.19c0,4-2.94,6.43-6.73,6.43S410.45,37.29,410.45,33.29Zm9.17-.07V33c0-2.08-.83-3.24-2.43-3.24s-2.44,1.11-2.44,3.19v.19c0,2.13.82,3.29,2.44,3.29S419.62,35.28,419.62,33.22Z" fill="#fff"/><path d="M424.69,37.19a2.35,2.35,0,0,1,2.4-2.39,2.39,2.39,0,1,1,0,4.78A2.35,2.35,0,0,1,424.69,37.19Z" fill="#fff"/><path d="M117.28,61.55v-10h4.82v9.84c0,2.39.59,3.55,2.64,3.55s2.63-1.09,2.63-3.62V51.5h4.87v10c0,4.92-2.87,7.22-7.5,7.22S117.28,66.28,117.28,61.55Z" fill="#fff"/><path d="M134.51,56h4.21v1.85a4.34,4.34,0,0,1,3.84-2.18c2.86,0,5.19,2.18,5.19,6.41v.19c0,4.26-2.33,6.39-5.22,6.39a4.05,4.05,0,0,1-3.81-2.11v6h-4.21Zm9,6.27v-.19c0-2.18-.94-3.22-2.42-3.22s-2.44,1.11-2.44,3.2v.19c0,2.1.91,3.17,2.44,3.17S143.47,64.34,143.47,62.31Z" fill="#fff"/><path d="M149.39,50.6h4.19V68.41h-4.19Z" fill="#fff"/><path d="M155.18,62.38v-.19c0-4,2.94-6.48,6.75-6.48s6.7,2.44,6.7,6.36v.19c0,4-2.94,6.44-6.73,6.44S155.18,66.38,155.18,62.38Zm9.17-.07v-.19c0-2.08-.83-3.24-2.42-3.24s-2.45,1.11-2.45,3.19v.19c0,2.13.82,3.29,2.45,3.29S164.35,64.37,164.35,62.31Z" fill="#fff"/><path d="M169.4,65c0-2.91,2.44-4,6.54-4h1.17v-.29c0-1.18-.28-2-1.62-2a1.52,1.52,0,0,0-1.67,1.47h-3.95c.19-3,2.51-4.45,5.88-4.45s5.55,1.4,5.55,4.68v8h-4.09V67a4,4,0,0,1-3.65,1.73C171.35,68.7,169.4,67.61,169.4,65Zm7.71-.9v-.75H176c-1.7,0-2.45.33-2.45,1.34,0,.71.47,1.16,1.46,1.16A1.85,1.85,0,0,0,177.11,64.08Z" fill="#fff"/><path d="M182.73,62.36v-.19c0-4.21,2.3-6.46,5.22-6.46a4,4,0,0,1,3.78,2.08V50.6h4.21V68.41h-4.21v-2a4.13,4.13,0,0,1-3.83,2.3C185.06,68.7,182.73,66.64,182.73,62.36Zm9.12-.07V62.1c0-2.09-.87-3.2-2.42-3.2S187,60,187,62.12v.19c0,2.08.91,3.15,2.37,3.15S191.85,64.39,191.85,62.29Z" fill="#fff"/><path d="M206.21,67.16,201.3,56h4.56l2.54,6.6,2.35-6.6h4l-6.58,16.51h-4Z" fill="#fff"/><path d="M214.53,62.38v-.19c0-4,2.94-6.48,6.75-6.48s6.7,2.44,6.7,6.36v.19c0,4-2.94,6.44-6.72,6.44S214.53,66.38,214.53,62.38Zm9.17-.07v-.19c0-2.08-.82-3.24-2.42-3.24s-2.44,1.11-2.44,3.19v.19c0,2.13.82,3.29,2.44,3.29S223.7,64.37,223.7,62.31Z" fill="#fff"/><path d="M229.37,64.11V56h4.21v7.38c0,1.4.54,2.08,1.74,2.08s2.09-.75,2.09-2.34V56h4.21V68.41h-4.21V66.5a4.06,4.06,0,0,1-3.91,2.2C231.13,68.7,229.37,67.23,229.37,64.11Z" fill="#fff"/><path d="M243.75,56H248V58.5a3.88,3.88,0,0,1,4-2.62v3.95c-2.57-.08-4,.73-4,2.72v5.86h-4.21Z" fill="#fff"/><path d="M257.13,62.36v-.19c0-4.21,2.3-6.46,5.22-6.46a4,4,0,0,1,3.78,2.08V50.6h4.21V68.41h-4.21v-2a4.13,4.13,0,0,1-3.83,2.3C259.46,68.7,257.13,66.64,257.13,62.36Zm9.12-.07V62.1c0-2.09-.87-3.2-2.42-3.2s-2.42,1.07-2.42,3.22v.19c0,2.08.91,3.15,2.37,3.15S266.25,64.39,266.25,62.29Z" fill="#fff"/><path d="M271.82,62.38v-.19c0-4,2.94-6.48,6.75-6.48s6.7,2.44,6.7,6.36v.19c0,4-2.94,6.44-6.72,6.44S271.82,66.38,271.82,62.38Zm9.17-.07v-.19c0-2.08-.82-3.24-2.42-3.24s-2.45,1.11-2.45,3.19v.19c0,2.13.83,3.29,2.45,3.29S281,64.37,281,62.31Z" fill="#fff"/><path d="M286.09,62.38v-.19a6.21,6.21,0,0,1,6.56-6.48c3,0,5.78,1.33,6,5.09h-3.95a1.82,1.82,0,0,0-2-1.8c-1.48,0-2.35,1.06-2.35,3.14v.19c0,2.16.83,3.27,2.42,3.27A2.05,2.05,0,0,0,295,63.54h3.79c-.12,3.12-2.21,5.16-6.18,5.16C288.89,68.7,286.09,66.54,286.09,62.38Z" fill="#fff"/><path d="M299.44,64.49h3.88c.14.89.54,1.39,1.74,1.39,1,0,1.51-.4,1.51-1s-.59-.87-2.28-1.11c-3.3-.42-4.68-1.39-4.68-4,0-2.74,2.42-4.07,5.26-4.07,3,0,5.15,1,5.43,4h-3.8a1.38,1.38,0,0,0-1.58-1.23c-.92,0-1.39.4-1.39,1s.57.83,2.07,1c3.41.43,5.06,1.33,5.06,4,0,2.93-2.17,4.26-5.58,4.26S299.54,67.23,299.44,64.49Z" fill="#fff"/><path d="M316.93,58.93h-1.55V56h1.55V55c0-3.07,1.91-4.54,4.82-4.54a7.51,7.51,0,0,1,1.93.26v3.1a4,4,0,0,0-1.15-.16A1.23,1.23,0,0,0,321.12,55V56h2.49v2.89h-2.49v9.48h-4.19Z" fill="#fff"/><path d="M323.94,62.38v-.19c0-4,2.94-6.48,6.74-6.48s6.71,2.44,6.71,6.36v.19c0,4-2.94,6.44-6.73,6.44S323.94,66.38,323.94,62.38Zm9.17-.07v-.19c0-2.08-.83-3.24-2.43-3.24s-2.44,1.11-2.44,3.19v.19c0,2.13.82,3.29,2.44,3.29S333.11,64.37,333.11,62.31Z" fill="#fff"/><path d="M338.86,56h4.21V58.5a3.88,3.88,0,0,1,4-2.62v3.95c-2.57-.08-4,.73-4,2.72v5.86h-4.21Z" fill="#fff"/><path d="M352.19,62.38v-.19a6.31,6.31,0,0,1,6.66-6.48c3.36,0,6.25,1.94,6.25,6.39v1.11h-8.65A2.47,2.47,0,0,0,359,65.79c1.39,0,2-.64,2.14-1.47h4c-.38,2.79-2.52,4.38-6.23,4.38C355,68.7,352.19,66.42,352.19,62.38ZM361,60.82c-.07-1.49-.8-2.32-2.16-2.32a2.35,2.35,0,0,0-2.35,2.32Z" fill="#fff"/><path d="M369,62.12,365.17,56H370l1.91,3.27L373.77,56h4.33l-3.88,5.75,4.26,6.62h-4.85l-2.18-3.69-2.24,3.69h-4.3Z" fill="#fff"/><path d="M379.65,56h4.21v1.85a4.31,4.31,0,0,1,3.83-2.18c2.87,0,5.2,2.18,5.2,6.41v.19c0,4.26-2.33,6.39-5.22,6.39a4.05,4.05,0,0,1-3.81-2.11v6h-4.21Zm9,6.27v-.19c0-2.18-.94-3.22-2.42-3.22s-2.45,1.11-2.45,3.2v.19c0,2.1.92,3.17,2.45,3.17S388.61,64.34,388.61,62.31Z" fill="#fff"/><path d="M393.75,62.38v-.19a6.31,6.31,0,0,1,6.66-6.48c3.36,0,6.25,1.94,6.25,6.39v1.11H398a2.47,2.47,0,0,0,2.56,2.58c1.39,0,2-.64,2.14-1.47h4c-.37,2.79-2.51,4.38-6.23,4.38S393.75,66.42,393.75,62.38Zm8.82-1.56c-.07-1.49-.8-2.32-2.16-2.32a2.35,2.35,0,0,0-2.35,2.32Z" fill="#fff"/><path d="M408.12,56h4.21V58.5a3.86,3.86,0,0,1,4-2.62v3.95c-2.56-.08-4,.73-4,2.72v5.86h-4.21Z" fill="#fff"/><path d="M418.58,64.44V58.93H417.1V56h1.48V53.46h4.21V56h2.42v2.89h-2.42V64c0,.89.44,1.3,1.24,1.3a3,3,0,0,0,1.2-.22v3.22a8.83,8.83,0,0,1-2.33.36C420.13,68.7,418.58,67.35,418.58,64.44Z" fill="#fff"/><path d="M431.65,64.44V58.93h-1.48V56h1.48V53.46h4.21V56h2.42v2.89h-2.42V64c0,.89.44,1.3,1.24,1.3a3,3,0,0,0,1.2-.22v3.22a8.83,8.83,0,0,1-2.33.36C433.2,68.7,431.65,67.35,431.65,64.44Z" fill="#fff"/><path d="M439.22,65c0-2.91,2.44-4,6.53-4h1.18v-.29c0-1.18-.28-2-1.62-2a1.52,1.52,0,0,0-1.67,1.47h-3.95c.19-3,2.51-4.45,5.88-4.45s5.55,1.4,5.55,4.68v8H447V67a4,4,0,0,1-3.64,1.73C441.17,68.7,439.22,67.61,439.22,65Zm7.71-.9v-.75h-1.1c-1.7,0-2.45.33-2.45,1.34,0,.71.47,1.16,1.46,1.16A1.85,1.85,0,0,0,446.93,64.08Z" fill="#fff"/><path d="M456.26,62.12,452.43,56h4.84l1.91,3.27L461,56h4.33l-3.88,5.75,4.26,6.62h-4.85l-2.18-3.69-2.24,3.69h-4.3Z" fill="#fff"/><path d="M471.19,56h4.21v1.85a4.31,4.31,0,0,1,3.83-2.18c2.87,0,5.19,2.18,5.19,6.41v.19c0,4.26-2.32,6.39-5.21,6.39a4.05,4.05,0,0,1-3.81-2.11v6h-4.21Zm9,6.27v-.19c0-2.18-.94-3.22-2.43-3.22s-2.44,1.11-2.44,3.2v.19c0,2.1.92,3.17,2.44,3.17S480.15,64.34,480.15,62.31Z" fill="#fff"/><path d="M486,56h4.21V58.5a3.86,3.86,0,0,1,4-2.62v3.95c-2.56-.08-4,.73-4,2.72v5.86H486Z" fill="#fff"/><path d="M494.88,62.38v-.19a6.31,6.31,0,0,1,6.66-6.48c3.36,0,6.25,1.94,6.25,6.39v1.11h-8.65a2.47,2.47,0,0,0,2.56,2.58c1.39,0,2-.64,2.14-1.47h4c-.37,2.79-2.51,4.38-6.23,4.38S494.88,66.42,494.88,62.38Zm8.82-1.56c-.07-1.49-.8-2.32-2.16-2.32a2.35,2.35,0,0,0-2.35,2.32Z" fill="#fff"/><path d="M509.25,56h4.21v1.85a4.31,4.31,0,0,1,3.83-2.18c2.87,0,5.19,2.18,5.19,6.41v.19c0,4.26-2.32,6.39-5.22,6.39a4,4,0,0,1-3.8-2.11v6h-4.21Zm9,6.27v-.19c0-2.18-1-3.22-2.43-3.22s-2.44,1.11-2.44,3.2v.19c0,2.1.91,3.17,2.44,3.17S518.21,64.34,518.21,62.31Z" fill="#fff"/><path d="M523.54,66.28a2.35,2.35,0,0,1,2.4-2.39,2.39,2.39,0,1,1,0,4.78A2.35,2.35,0,0,1,523.54,66.28Z" fill="#fff"/><rect width="728" height="90" fill="none"/></g></g></g></g></svg>