<svg xmlns="http://www.w3.org/2000/svg" viewBox="0 0 728 90"><title>H5</title><g id="Layer_2" data-name="Layer 2"><g id="Artboard_5" data-name="Artboard 5" style="isolation:isolate"><g id="headline2"><g id="Help_is_here_with_Tax_Pro_Go._Just_upload_your_docs_for_expert" data-name="Help is here with Tax Pro Go. Just upload your docs for expert"><path d="M117.4,22.41h4.84v6.46h5.53V22.41h4.82V39.32h-4.82V32.65h-5.53v6.67H117.4Z" fill="#fff"/><path d="M134.28,33.29V33.1a6.31,6.31,0,0,1,6.65-6.48c3.37,0,6.26,1.94,6.26,6.39v1.11h-8.65a2.46,2.46,0,0,0,2.56,2.58c1.39,0,2-.64,2.14-1.47h3.95c-.38,2.79-2.52,4.37-6.23,4.37C137.1,39.6,134.28,37.33,134.28,33.29Zm8.82-1.56c-.07-1.49-.8-2.32-2.17-2.32a2.35,2.35,0,0,0-2.35,2.32Z" fill="#fff"/><path d="M148.76,21.51H153V39.32h-4.19Z" fill="#fff"/><path d="M155.2,27h4.21V28.8a4.33,4.33,0,0,1,3.83-2.18c2.87,0,5.2,2.18,5.2,6.41v.19c0,4.26-2.33,6.38-5.22,6.38a4,4,0,0,1-3.81-2.1v6H155.2Zm9,6.27V33c0-2.18-.94-3.22-2.42-3.22s-2.45,1.12-2.45,3.2v.19c0,2.1.92,3.16,2.45,3.16S164.16,35.25,164.16,33.22Z" fill="#fff"/><path d="M174.15,23.59a2.32,2.32,0,1,1,2.3,2.18A2.21,2.21,0,0,1,174.15,23.59Zm.21,3.36h4.21V39.32h-4.21Z" fill="#fff"/><path d="M180,35.4h3.88c.14.89.54,1.39,1.74,1.39,1,0,1.51-.4,1.51-1s-.59-.87-2.29-1.11c-3.29-.42-4.67-1.39-4.67-4,0-2.74,2.42-4.07,5.26-4.07,3,0,5.15,1,5.43,4h-3.8a1.38,1.38,0,0,0-1.58-1.23c-.92,0-1.39.4-1.39,1s.57.83,2.07,1c3.41.43,5.06,1.33,5.06,4,0,2.93-2.17,4.25-5.58,4.25S180.09,38.14,180,35.4Z" fill="#fff"/><path d="M196.86,21.51h4.2v7.43a4.34,4.34,0,0,1,4.05-2.32c2.37,0,4,1.49,4,4.66v8h-4.21V32.13c0-1.39-.54-2.08-1.76-2.08s-2.1.76-2.1,2.34v6.93h-4.2Z" fill="#fff"/><path d="M210.51,33.29V33.1a6.31,6.31,0,0,1,6.66-6.48c3.36,0,6.25,1.94,6.25,6.39v1.11h-8.65a2.47,2.47,0,0,0,2.56,2.58c1.39,0,2-.64,2.14-1.47h3.95c-.37,2.79-2.51,4.37-6.23,4.37S210.51,37.33,210.51,33.29Zm8.82-1.56c-.07-1.49-.8-2.32-2.16-2.32a2.35,2.35,0,0,0-2.35,2.32Z" fill="#fff"/><path d="M224.88,27h4.21v2.46a3.86,3.86,0,0,1,4-2.62v3.95c-2.56-.07-4,.73-4,2.72v5.86h-4.21Z" fill="#fff"/><path d="M233.81,33.29V33.1a6.31,6.31,0,0,1,6.65-6.48c3.37,0,6.26,1.94,6.26,6.39v1.11h-8.65a2.46,2.46,0,0,0,2.56,2.58c1.39,0,2-.64,2.14-1.47h3.95c-.38,2.79-2.52,4.37-6.23,4.37C236.63,39.6,233.81,37.33,233.81,33.29Zm8.82-1.56c-.07-1.49-.8-2.32-2.17-2.32a2.35,2.35,0,0,0-2.35,2.32Z" fill="#fff"/><path d="M251.42,27h4.39l1.79,7.4,2.07-7.4h3.39l1.83,7.4,2-7.4h4L267,39.32h-4l-1.83-6.9-1.91,6.9h-4.09Z" fill="#fff"/><path d="M271.87,23.59a2.32,2.32,0,1,1,2.3,2.18A2.21,2.21,0,0,1,271.87,23.59Zm.21,3.36h4.21V39.32h-4.21Z" fill="#fff"/><path d="M279.11,35.35V29.84h-1.48V27h1.48V24.37h4.21V27h2.42v2.89h-2.42V35c0,.89.44,1.3,1.24,1.3a3,3,0,0,0,1.2-.22v3.22a8.87,8.87,0,0,1-2.32.35C280.66,39.6,279.11,38.26,279.11,35.35Z" fill="#fff"/><path d="M287.34,21.51h4.2v7.43a4.34,4.34,0,0,1,4-2.32c2.37,0,4,1.49,4,4.66v8H295.4V32.13c0-1.39-.54-2.08-1.76-2.08s-2.1.76-2.1,2.34v6.93h-4.2Z" fill="#fff"/><path d="M309.53,26.15h-4.35V22.41h13.54v3.74h-4.35V39.32h-4.84Z" fill="#fff"/><path d="M317.87,35.89c0-2.91,2.45-4,6.54-4h1.18v-.29c0-1.18-.29-2-1.63-2a1.52,1.52,0,0,0-1.67,1.47h-4c.19-3,2.52-4.45,5.88-4.45s5.55,1.4,5.55,4.68v8h-4.09V37.88A4,4,0,0,1,322,39.6C319.83,39.6,317.87,38.52,317.87,35.89Zm7.72-.9v-.75h-1.11c-1.69,0-2.44.33-2.44,1.34,0,.71.47,1.16,1.45,1.16A1.86,1.86,0,0,0,325.59,35Z" fill="#fff"/><path d="M334.92,33,331.08,27h4.85l1.9,3.27L339.69,27H344l-3.88,5.75,4.25,6.62h-4.84l-2.19-3.69-2.23,3.69h-4.3Z" fill="#fff"/><path d="M350.22,22.41h6.4c4.6,0,6.74,2.06,6.74,5.65v.1c0,3.55-2.37,5.46-6.53,5.46H355v5.7h-4.8Zm6.18,7.9c1.56,0,2.38-.73,2.38-2.13v-.09c0-1.45-.85-2-2.35-2H355v4.26Z" fill="#fff"/><path d="M364.82,27H369v2.46a3.86,3.86,0,0,1,4-2.62v3.95c-2.56-.07-4,.73-4,2.72v5.86h-4.21Z" fill="#fff"/><path d="M373.75,33.29V33.1c0-4,2.94-6.48,6.75-6.48s6.7,2.44,6.7,6.36v.19c0,4-2.94,6.43-6.72,6.43S373.75,37.29,373.75,33.29Zm9.17-.07V33c0-2.08-.82-3.24-2.42-3.24s-2.45,1.11-2.45,3.19v.19c0,2.13.83,3.29,2.45,3.29S382.92,35.28,382.92,33.22Z" fill="#fff"/><path d="M392.44,31v-.19c0-5.15,3.76-8.63,8.82-8.63,4,0,7.5,1.82,7.83,6.22h-4.78c-.23-1.58-1.24-2.41-3-2.41-2.37,0-3.81,1.84-3.81,4.89V31c0,2.75,1,4.88,3.93,4.88,2.35,0,3.24-1.21,3.34-2.56h-3.15V30h7.9v2.08c0,4.3-2.8,7.54-8.23,7.54C395.54,39.6,392.44,36,392.44,31Z" fill="#fff"/><path d="M410.45,33.29V33.1c0-4,2.94-6.48,6.74-6.48s6.71,2.44,6.71,6.36v.19c0,4-2.94,6.43-6.73,6.43S410.45,37.29,410.45,33.29Zm9.17-.07V33c0-2.08-.83-3.24-2.43-3.24s-2.44,1.11-2.44,3.19v.19c0,2.13.82,3.29,2.44,3.29S419.62,35.28,419.62,33.22Z" fill="#fff"/><path d="M424.69,37.19a2.35,2.35,0,0,1,2.4-2.39,2.39,2.39,0,1,1,0,4.78A2.35,2.35,0,0,1,424.69,37.19Z" fill="#fff"/><path d="M435.34,39V35.35a5.67,5.67,0,0,0,2.05.33c1.31,0,2.18-.59,2.18-2.34V22.41h4.85v11c0,4.07-2.07,6.15-6,6.15A6.46,6.46,0,0,1,435.34,39Z" fill="#fff"/><path d="M446.53,35V27h4.21v7.38c0,1.4.54,2.08,1.74,2.08s2.09-.75,2.09-2.34V27h4.21V39.32h-4.21V37.41a4,4,0,0,1-3.9,2.19C448.29,39.6,446.53,38.14,446.53,35Z" fill="#fff"/><path d="M460.09,35.4H464c.15.89.54,1.39,1.74,1.39,1,0,1.51-.4,1.51-1s-.59-.87-2.28-1.11c-3.29-.42-4.68-1.39-4.68-4,0-2.74,2.42-4.07,5.27-4.07,3,0,5.15,1,5.43,4h-3.81a1.38,1.38,0,0,0-1.58-1.23c-.91,0-1.38.4-1.38,1s.56.83,2.06,1c3.41.43,5.06,1.33,5.06,4,0,2.93-2.16,4.25-5.57,4.25S460.19,38.14,460.09,35.4Z" fill="#fff"/><path d="M473.24,35.35V29.84h-1.49V27h1.49V24.37h4.2V27h2.43v2.89h-2.43V35a1.13,1.13,0,0,0,1.25,1.3,3.06,3.06,0,0,0,1.2-.22v3.22a8.89,8.89,0,0,1-2.33.35C474.79,39.6,473.24,38.26,473.24,35.35Z" fill="#fff"/><path d="M485.65,35V27h4.21v7.38c0,1.4.54,2.08,1.74,2.08s2.09-.75,2.09-2.34V27h4.21V39.32h-4.21V37.41a4,4,0,0,1-3.9,2.19C487.41,39.6,485.65,38.14,485.65,35Z" fill="#fff"/><path d="M500,27h4.21V28.8a4.34,4.34,0,0,1,3.84-2.18c2.86,0,5.19,2.18,5.19,6.41v.19c0,4.26-2.33,6.38-5.22,6.38a4.06,4.06,0,0,1-3.81-2.1v6H500Zm9,6.27V33c0-2.18-.94-3.22-2.42-3.22s-2.44,1.12-2.44,3.2v.19c0,2.1.91,3.16,2.44,3.16S509,35.25,509,33.22Z" fill="#fff"/><path d="M514.92,21.51h4.18V39.32h-4.18Z" fill="#fff"/><path d="M520.7,33.29V33.1c0-4,2.94-6.48,6.75-6.48s6.7,2.44,6.7,6.36v.19c0,4-2.94,6.43-6.73,6.43S520.7,37.29,520.7,33.29Zm9.17-.07V33c0-2.08-.83-3.24-2.42-3.24S525,30.9,525,33v.19c0,2.13.82,3.29,2.45,3.29S529.87,35.28,529.87,33.22Z" fill="#fff"/><path d="M534.92,35.89c0-2.91,2.45-4,6.54-4h1.17v-.29c0-1.18-.28-2-1.62-2a1.52,1.52,0,0,0-1.67,1.47h-4c.19-3,2.52-4.45,5.88-4.45s5.55,1.4,5.55,4.68v8h-4.09V37.88a4,4,0,0,1-3.65,1.72C536.87,39.6,534.92,38.52,534.92,35.89Zm7.71-.9v-.75h-1.1c-1.7,0-2.45.33-2.45,1.34,0,.71.47,1.16,1.46,1.16A1.85,1.85,0,0,0,542.63,35Z" fill="#fff"/><path d="M548.25,33.27v-.19c0-4.21,2.3-6.46,5.22-6.46a4,4,0,0,1,3.78,2.08V21.51h4.21V39.32h-4.21v-2a4.13,4.13,0,0,1-3.83,2.29C550.58,39.6,548.25,37.55,548.25,33.27Zm9.12-.07V33c0-2.08-.87-3.2-2.42-3.2s-2.42,1.07-2.42,3.22v.19c0,2.08.91,3.14,2.37,3.14S557.37,35.3,557.37,33.2Z" fill="#fff"/><path d="M120.88,67.16,116,56h4.56l2.54,6.6,2.35-6.6h4l-6.58,16.51h-4Z" fill="#fff"/><path d="M129.2,62.38v-.19c0-4,2.94-6.48,6.75-6.48s6.7,2.44,6.7,6.36v.19c0,4-2.94,6.44-6.72,6.44S129.2,66.38,129.2,62.38Zm9.17-.07v-.19c0-2.08-.82-3.24-2.42-3.24S133.5,60,133.5,62.07v.19c0,2.13.83,3.29,2.45,3.29S138.37,64.37,138.37,62.31Z" fill="#fff"/><path d="M144,64.11V56h4.21v7.38c0,1.4.54,2.08,1.74,2.08s2.1-.75,2.1-2.34V56h4.2V68.41h-4.2V66.5a4.06,4.06,0,0,1-3.91,2.2C145.8,68.7,144,67.23,144,64.11Z" fill="#fff"/><path d="M158.42,56h4.21V58.5a3.87,3.87,0,0,1,4-2.62v3.95c-2.56-.08-4,.73-4,2.72v5.86h-4.21Z" fill="#fff"/><path d="M171.8,62.36v-.19c0-4.21,2.3-6.46,5.22-6.46a4,4,0,0,1,3.78,2.08V50.6H185V68.41H180.8v-2A4.13,4.13,0,0,1,177,68.7C174.12,68.7,171.8,66.64,171.8,62.36Zm9.12-.07V62.1c0-2.09-.87-3.2-2.42-3.2s-2.42,1.07-2.42,3.22v.19c0,2.08.91,3.15,2.37,3.15S180.92,64.39,180.92,62.29Z" fill="#fff"/><path d="M186.49,62.38v-.19c0-4,2.94-6.48,6.75-6.48s6.7,2.44,6.7,6.36v.19c0,4-2.94,6.44-6.73,6.44S186.49,66.38,186.49,62.38Zm9.17-.07v-.19c0-2.08-.83-3.24-2.42-3.24s-2.45,1.11-2.45,3.19v.19c0,2.13.82,3.29,2.45,3.29S195.66,64.37,195.66,62.31Z" fill="#fff"/><path d="M200.76,62.38v-.19a6.21,6.21,0,0,1,6.56-6.48c3,0,5.78,1.33,6,5.09h-4a1.83,1.83,0,0,0-2-1.8c-1.48,0-2.35,1.06-2.35,3.14v.19c0,2.16.82,3.27,2.42,3.27a2.05,2.05,0,0,0,2.14-2.06h3.79c-.12,3.12-2.21,5.16-6.19,5.16C203.55,68.7,200.76,66.54,200.76,62.38Z" fill="#fff"/><path d="M214.11,64.49H218c.14.89.54,1.39,1.74,1.39,1,0,1.5-.4,1.5-1s-.58-.87-2.28-1.11c-3.29-.42-4.68-1.39-4.68-4,0-2.74,2.43-4.07,5.27-4.07,3,0,5.15,1,5.43,4h-3.81a1.37,1.37,0,0,0-1.57-1.23c-.92,0-1.39.4-1.39,1s.56.83,2.07,1c3.41.43,5,1.33,5,4,0,2.93-2.16,4.26-5.57,4.26S214.2,67.23,214.11,64.49Z" fill="#fff"/><path d="M231.6,58.93h-1.55V56h1.55V55c0-3.07,1.9-4.54,4.82-4.54a7.64,7.64,0,0,1,1.93.26v3.1a4,4,0,0,0-1.16-.16A1.24,1.24,0,0,0,235.78,55V56h2.5v2.89h-2.5v9.48H231.6Z" fill="#fff"/><path d="M238.6,62.38v-.19c0-4,2.94-6.48,6.75-6.48s6.7,2.44,6.7,6.36v.19c0,4-2.94,6.44-6.72,6.44S238.6,66.38,238.6,62.38Zm9.17-.07v-.19c0-2.08-.82-3.24-2.42-3.24s-2.44,1.11-2.44,3.19v.19c0,2.13.82,3.29,2.44,3.29S247.77,64.37,247.77,62.31Z" fill="#fff"/><path d="M253.53,56h4.21V58.5a3.87,3.87,0,0,1,4-2.62v3.95c-2.56-.08-4,.73-4,2.72v5.86h-4.21Z" fill="#fff"/><path d="M266.86,62.38v-.19a6.31,6.31,0,0,1,6.65-6.48c3.37,0,6.26,1.94,6.26,6.39v1.11h-8.65a2.46,2.46,0,0,0,2.56,2.58c1.39,0,2-.64,2.14-1.47h3.95c-.38,2.79-2.52,4.38-6.23,4.38C269.68,68.7,266.86,66.42,266.86,62.38Zm8.82-1.56c-.07-1.49-.8-2.32-2.17-2.32a2.35,2.35,0,0,0-2.35,2.32Z" fill="#fff"/><path d="M283.67,62.12,279.84,56h4.84l1.9,3.27L288.44,56h4.33l-3.88,5.75,4.25,6.62H288.3l-2.19-3.69-2.23,3.69h-4.3Z" fill="#fff"/><path d="M294.32,56h4.2v1.85a4.34,4.34,0,0,1,3.84-2.18c2.87,0,5.19,2.18,5.19,6.41v.19c0,4.26-2.32,6.39-5.22,6.39a4.07,4.07,0,0,1-3.81-2.11v6h-4.2Zm8.95,6.27v-.19c0-2.18-.94-3.22-2.42-3.22s-2.44,1.11-2.44,3.2v.19c0,2.1.91,3.17,2.44,3.17S303.27,64.34,303.27,62.31Z" fill="#fff"/><path d="M308.42,62.38v-.19a6.31,6.31,0,0,1,6.65-6.48c3.37,0,6.26,1.94,6.26,6.39v1.11h-8.65a2.46,2.46,0,0,0,2.56,2.58c1.39,0,2-.64,2.14-1.47h3.95c-.38,2.79-2.52,4.38-6.23,4.38C311.24,68.7,308.42,66.42,308.42,62.38Zm8.82-1.56c-.07-1.49-.8-2.32-2.17-2.32a2.36,2.36,0,0,0-2.35,2.32Z" fill="#fff"/><path d="M322.78,56H327V58.5a3.88,3.88,0,0,1,4-2.62v3.95c-2.57-.08-4,.73-4,2.72v5.86h-4.21Z" fill="#fff"/><path d="M333.24,64.44V58.93h-1.48V56h1.48V53.46h4.21V56h2.43v2.89h-2.43V64a1.13,1.13,0,0,0,1.25,1.3,3.06,3.06,0,0,0,1.2-.22v3.22a8.83,8.83,0,0,1-2.33.36C334.8,68.7,333.24,67.35,333.24,64.44Z" fill="#fff"/><path d="M346.31,64.44V58.93h-1.48V56h1.48V53.46h4.21V56H353v2.89h-2.43V64a1.13,1.13,0,0,0,1.25,1.3,3.06,3.06,0,0,0,1.2-.22v3.22a8.83,8.83,0,0,1-2.33.36C347.87,68.7,346.31,67.35,346.31,64.44Z" fill="#fff"/><path d="M353.88,65c0-2.91,2.45-4,6.54-4h1.18v-.29c0-1.18-.29-2-1.63-2a1.52,1.52,0,0,0-1.67,1.47h-3.95c.19-3,2.52-4.45,5.88-4.45s5.55,1.4,5.55,4.68v8h-4.09V67a4,4,0,0,1-3.64,1.73C355.84,68.7,353.88,67.61,353.88,65Zm7.72-.9v-.75h-1.11c-1.69,0-2.44.33-2.44,1.34,0,.71.47,1.16,1.45,1.16A1.86,1.86,0,0,0,361.6,64.08Z" fill="#fff"/><path d="M370.93,62.12,367.1,56h4.84l1.9,3.27L375.7,56H380l-3.88,5.75,4.25,6.62h-4.84l-2.19-3.69-2.23,3.69h-4.3Z" fill="#fff"/><path d="M385.85,56h4.21v1.85a4.34,4.34,0,0,1,3.84-2.18c2.86,0,5.19,2.18,5.19,6.41v.19c0,4.26-2.33,6.39-5.22,6.39a4.06,4.06,0,0,1-3.81-2.11v6h-4.21Zm9,6.27v-.19c0-2.18-.94-3.22-2.42-3.22S390,60,390,62.1v.19c0,2.1.91,3.17,2.44,3.17S394.81,64.34,394.81,62.31Z" fill="#fff"/><path d="M400.62,56h4.21V58.5a3.86,3.86,0,0,1,4-2.62v3.95c-2.56-.08-4,.73-4,2.72v5.86h-4.21Z" fill="#fff"/><path d="M409.55,62.38v-.19a6.31,6.31,0,0,1,6.66-6.48c3.36,0,6.25,1.94,6.25,6.39v1.11h-8.65a2.46,2.46,0,0,0,2.56,2.58c1.39,0,2-.64,2.14-1.47h3.95c-.38,2.79-2.52,4.38-6.23,4.38C412.37,68.7,409.55,66.42,409.55,62.38Zm8.82-1.56c-.07-1.49-.8-2.32-2.16-2.32a2.36,2.36,0,0,0-2.36,2.32Z" fill="#fff"/><path d="M423.91,56h4.21v1.85A4.34,4.34,0,0,1,432,55.71c2.86,0,5.19,2.18,5.19,6.41v.19c0,4.26-2.33,6.39-5.22,6.39a4.06,4.06,0,0,1-3.81-2.11v6h-4.21Zm9,6.27v-.19c0-2.18-.94-3.22-2.42-3.22S428,60,428,62.1v.19c0,2.1.91,3.17,2.44,3.17S432.87,64.34,432.87,62.31Z" fill="#fff"/><path d="M438.21,66.28a2.35,2.35,0,0,1,2.4-2.39,2.39,2.39,0,1,1,0,4.78A2.35,2.35,0,0,1,438.21,66.28Z" fill="#fff"/><rect width="728" height="90" fill="none"/></g></g></g></g></svg>