<svg xmlns="http://www.w3.org/2000/svg" viewBox="0 0 160 600"><title>Asset 5</title><g id="Layer_2" data-name="Layer 2"><g id="Rect"><rect width="160" height="600" fill="none"/></g><g id="Don_t_guess_your_price._Know_as_you_go." data-name="Don&apos;t guess your price. Know as you go."><path d="M22.73,61.81H33c10,0,15.13,5,15.13,13.78v.32c0,8.81-5.22,14.14-15.17,14.14H22.73Zm10,22c4.82,0,7-2.53,7-7.78v-.32c0-5.37-2.13-7.66-7-7.66H30.86V83.81Z" fill="#fff"/><path d="M49.74,80v-.32c0-6.64,4.94-10.82,11.34-10.82s11.26,4.07,11.26,10.62v.32c0,6.72-4.94,10.75-11.3,10.75S49.74,86.65,49.74,80Zm15.41-.12v-.32c0-3.47-1.38-5.41-4.07-5.41S57,76,57,79.46v.32c0,3.56,1.39,5.49,4.11,5.49S65.15,83.3,65.15,79.86Z" fill="#fff"/><path d="M74.83,69.39H81.9v3.32a7.28,7.28,0,0,1,6.79-3.87c4,0,6.76,2.49,6.76,7.78V90.05H88.38V78c0-2.33-.91-3.47-3-3.47s-3.51,1.26-3.51,3.91V90.05H74.83Z" fill="#fff"/><path d="M97.5,61.81h6.91l-.83,10.86H98.29Z" fill="#fff"/><path d="M108.83,83.42V74.21h-2.48V69.39h2.48V65.08h7.08v4.31H120v4.82h-4.07v8.53c0,1.5.75,2.18,2.09,2.18a5.3,5.3,0,0,0,2-.36v5.37a14.59,14.59,0,0,1-3.91.6C111.44,90.53,108.83,88.27,108.83,83.42Z" fill="#fff"/><path d="M21,134.55h7c.32,1.5,1.22,2.69,3.79,2.69,3.12,0,4.39-1.78,4.39-4.35v-3.16a7.24,7.24,0,0,1-6.4,3.79c-4.82,0-8.77-3.55-8.77-9.91v-.32c0-6.08,3.91-10,8.77-10a6.73,6.73,0,0,1,6.4,3.47v-2.92h7.07v18.92c0,6.17-4.07,9.41-11.46,9.41C24.74,142.22,21.5,139.25,21,134.55Zm15.4-11v-.28c0-2.84-1.46-4.66-4.06-4.66s-4.07,1.86-4.07,4.7v.32c0,2.84,1.5,4.66,4,4.66S36.35,126.49,36.35,123.57Z" fill="#fff"/><path d="M46.66,127.36V113.89h7.07v12.33c0,2.33.91,3.47,2.93,3.47s3.51-1.26,3.51-3.91V113.89h7.07v20.66H60.17v-3.2c-1.1,2.13-3.12,3.68-6.55,3.68C49.63,135,46.66,132.58,46.66,127.36Z" fill="#fff"/><path d="M69.73,124.48v-.32c0-6.64,4.94-10.82,11.18-10.82,5.65,0,10.51,3.24,10.51,10.66v1.86H76.88c.2,2.73,1.78,4.31,4.31,4.31,2.33,0,3.31-1.07,3.59-2.45h6.64C90.79,132.38,87.19,135,81,135,74.47,135,69.73,131.23,69.73,124.48Zm14.81-2.61c-.11-2.49-1.34-3.87-3.63-3.87-2.13,0-3.6,1.38-4,3.87Z" fill="#fff"/><path d="M92.68,128H99.2c.23,1.51.91,2.33,2.92,2.33,1.74,0,2.53-.67,2.53-1.69s-1-1.47-3.83-1.86c-5.53-.71-7.86-2.33-7.86-6.64,0-4.58,4.06-6.79,8.84-6.79,5.1,0,8.66,1.74,9.13,6.67h-6.4a2.31,2.31,0,0,0-2.65-2.05c-1.54,0-2.33.67-2.33,1.62s1,1.38,3.48,1.7c5.73.71,8.49,2.21,8.49,6.64,0,4.89-3.63,7.11-9.36,7.11C96.27,135,92.84,132.58,92.68,128Z" fill="#fff"/><path d="M112.55,128h6.51c.24,1.51.91,2.33,2.93,2.33,1.74,0,2.53-.67,2.53-1.69s-1-1.47-3.84-1.86c-5.53-.71-7.86-2.33-7.86-6.64,0-4.58,4.07-6.79,8.85-6.79,5.1,0,8.65,1.74,9.13,6.67h-6.4a2.31,2.31,0,0,0-2.65-2.05c-1.54,0-2.33.67-2.33,1.62s1,1.38,3.48,1.7c5.72.71,8.49,2.21,8.49,6.64,0,4.89-3.63,7.11-9.36,7.11C116.14,135,112.7,132.58,112.55,128Z" fill="#fff"/><path d="M28.57,177l-8.25-18.57H28l4.27,11,4-11H43L31.89,186H25.14Z" fill="#fff"/><path d="M42.55,169v-.32c0-6.64,4.94-10.82,11.34-10.82s11.26,4.07,11.26,10.62v.32c0,6.72-4.94,10.75-11.3,10.75S42.55,175.65,42.55,169ZM58,168.86v-.32c0-3.47-1.38-5.41-4.07-5.41s-4.11,1.86-4.11,5.33v.32c0,3.56,1.39,5.49,4.11,5.49S58,172.3,58,168.86Z" fill="#fff"/><path d="M67.48,171.86V158.39h7.07v12.33c0,2.33.91,3.47,2.92,3.47S81,172.93,81,170.28V158.39h7.07v20.66H81v-3.2c-1.11,2.13-3.12,3.68-6.56,3.68C70.44,179.53,67.48,177.08,67.48,171.86Z" fill="#fff"/><path d="M91.65,158.39h7.07v4.11a6.53,6.53,0,0,1,6.68-4.39v6.6c-4.31-.12-6.68,1.23-6.68,4.54v9.8H91.65Z" fill="#fff"/><path d="M22.09,202.89h7.08V206a7.28,7.28,0,0,1,6.43-3.63c4.82,0,8.73,3.63,8.73,10.7v.32c0,7.11-3.91,10.67-8.77,10.67a6.8,6.8,0,0,1-6.39-3.52v10H22.09Zm15.06,10.47V213c0-3.63-1.59-5.37-4.07-5.37S29,209.53,29,213v.32c0,3.52,1.54,5.29,4.11,5.29S37.15,216.76,37.15,213.36Z" fill="#fff"/><path d="M46.9,202.89H54V207a6.52,6.52,0,0,1,6.68-4.39v6.6c-4.31-.12-6.68,1.23-6.68,4.54v9.8H46.9Z" fill="#fff"/><path d="M63.05,197.28a3.9,3.9,0,1,1,3.88,3.64A3.69,3.69,0,0,1,63.05,197.28Zm.36,5.61h7.07v20.66H63.41Z" fill="#fff"/><path d="M73.17,213.48v-.32c0-6.87,4.93-10.82,11-10.82,5.06,0,9.72,2.21,10.11,8.49H87.67c-.32-1.93-1.27-3-3.32-3-2.49,0-3.95,1.78-3.95,5.25v.32c0,3.59,1.38,5.45,4.06,5.45a3.44,3.44,0,0,0,3.6-3.44h6.36C94.22,220.63,90.71,224,84,224,77.87,224,73.17,220.43,73.17,213.48Z" fill="#fff"/><path d="M95.6,213.48v-.32c0-6.64,4.94-10.82,11.18-10.82,5.65,0,10.51,3.24,10.51,10.66v1.86H102.75c.2,2.73,1.78,4.31,4.31,4.31,2.33,0,3.32-1.07,3.59-2.45h6.64c-.63,4.66-4.23,7.31-10.47,7.31C100.34,224,95.6,220.23,95.6,213.48Zm14.82-2.61c-.12-2.49-1.35-3.87-3.64-3.87-2.13,0-3.59,1.38-4,3.87Z" fill="#fff"/><path d="M119.26,220a3.94,3.94,0,0,1,4-4,4,4,0,1,1,0,8A3.94,3.94,0,0,1,119.26,220Z" fill="#fff"/><path d="M22.73,239.81h8.13V251l8.5-11.18h8.45L37.46,252.92l10.9,15.13H39l-8.14-11.81v11.81H22.73Z" fill="#fff"/><path d="M49.9,247.39H57v3.32a7.31,7.31,0,0,1,6.8-3.87c4,0,6.75,2.49,6.75,7.78v13.43H63.45V256c0-2.33-.91-3.47-3-3.47S57,253.83,57,256.48v11.57H49.9Z" fill="#fff"/><path d="M72.85,258v-.32c0-6.64,4.94-10.82,11.34-10.82s11.26,4.07,11.26,10.62v.32c0,6.72-4.94,10.75-11.3,10.75S72.85,264.65,72.85,258Zm15.41-.12v-.32c0-3.47-1.38-5.41-4.07-5.41s-4.11,1.86-4.11,5.33v.32c0,3.56,1.38,5.49,4.11,5.49S88.26,261.3,88.26,257.86Z" fill="#fff"/><path d="M95.52,247.39h7.39l3,12.37,3.48-12.37h5.69l3.08,12.37,3.36-12.37h6.71l-6.55,20.66h-6.76l-3.08-11.53-3.2,11.53h-6.87Z" fill="#fff"/><path d="M20.91,306.82c0-4.86,4.11-6.75,11-6.75h2v-.48c0-2-.48-3.28-2.73-3.28a2.53,2.53,0,0,0-2.8,2.45H21.7c.31-5,4.23-7.42,9.88-7.42s9.32,2.33,9.32,7.82v13.39H34v-2.41c-1,1.5-2.8,2.89-6.12,2.89C24.19,313,20.91,311.21,20.91,306.82Zm13-1.5v-1.26H32c-2.84,0-4.11.55-4.11,2.25,0,1.19.79,1.94,2.45,1.94C32.37,308.25,33.87,307.1,33.87,305.32Z" fill="#fff"/><path d="M43,306h6.52c.23,1.51.91,2.33,2.92,2.33,1.74,0,2.53-.67,2.53-1.69s-1-1.47-3.83-1.86c-5.53-.71-7.86-2.33-7.86-6.64,0-4.58,4.06-6.79,8.84-6.79,5.1,0,8.66,1.74,9.13,6.67H54.8A2.31,2.31,0,0,0,52.15,296c-1.54,0-2.33.67-2.33,1.62s1,1.38,3.48,1.7c5.73.71,8.49,2.21,8.49,6.64,0,4.89-3.63,7.11-9.36,7.11C46.54,313,43.11,310.58,43,306Z" fill="#fff"/><path d="M77.75,310.46l-8.26-18.57h7.67l4.26,11,4-11h6.76L81.07,319.46H74.31Z" fill="#fff"/><path d="M91.73,302.48v-.32c0-6.64,4.94-10.82,11.34-10.82s11.26,4.07,11.26,10.62v.32c0,6.72-4.94,10.75-11.3,10.75S91.73,309.15,91.73,302.48Zm15.41-.12V302c0-3.47-1.39-5.41-4.07-5.41S99,298.49,99,302v.32c0,3.56,1.38,5.49,4.11,5.49S107.14,305.8,107.14,302.36Z" fill="#fff"/><path d="M116.66,305.36V291.89h7.07v12.33c0,2.33.9,3.47,2.92,3.47s3.52-1.26,3.52-3.91V291.89h7.07v20.66h-7.07v-3.2c-1.11,2.14-3.13,3.68-6.56,3.68C119.62,313,116.66,310.58,116.66,305.36Z" fill="#fff"/><path d="M21,357.05h7c.32,1.5,1.22,2.69,3.79,2.69,3.12,0,4.39-1.78,4.39-4.35v-3.16a7.24,7.24,0,0,1-6.4,3.79c-4.82,0-8.77-3.55-8.77-9.91v-.32c0-6.08,3.91-10,8.77-10a6.73,6.73,0,0,1,6.4,3.47v-2.92h7.07v18.92c0,6.17-4.07,9.41-11.46,9.41C24.74,364.72,21.5,361.75,21,357.05Zm15.4-11v-.28c0-2.84-1.46-4.66-4.06-4.66s-4.07,1.86-4.07,4.7v.32c0,2.84,1.5,4.66,4,4.66S36.35,349,36.35,346.07Z" fill="#fff"/><path d="M45.71,347v-.32c0-6.63,4.94-10.82,11.34-10.82s11.26,4.07,11.26,10.62v.32c0,6.72-4.94,10.75-11.3,10.75S45.71,353.65,45.71,347Zm15.41-.12v-.32c0-3.47-1.38-5.41-4.07-5.41s-4.11,1.86-4.11,5.33v.32c0,3.56,1.39,5.49,4.11,5.49S61.12,350.3,61.12,346.86Z" fill="#fff"/><path d="M69.65,353.5a3.94,3.94,0,0,1,4-4,4,4,0,1,1,0,8A3.94,3.94,0,0,1,69.65,353.5Z" fill="#fff"/></g></g></svg>