<svg xmlns="http://www.w3.org/2000/svg" viewBox="0 0 600 500"><title>txt</title><g id="Layer_2" data-name="Layer 2"><g id="Easily_the_easiest_way_to_do_your_own_taxes." data-name="Easily the easiest way to do your own taxes."><path d="M41.14,37.62H63v7H50.17v5.45H60.39v6.47H50.17v5.75H63.71v7H41.14Z" fill="#13aa40"/><path d="M65.53,62.86c0-5.45,4.6-7.57,12.3-7.57h2.22v-.54c0-2.21-.53-3.67-3.06-3.67a2.84,2.84,0,0,0-3.14,2.75H66.41c.36-5.58,4.74-8.33,11.07-8.33s10.45,2.61,10.45,8.77v15H80.22v-2.7c-1.1,1.68-3.14,3.23-6.86,3.23C69.2,69.81,65.53,67.77,65.53,62.86Zm14.52-1.68V59.76H78c-3.19,0-4.61.62-4.61,2.52,0,1.33.89,2.17,2.75,2.17C78.36,64.45,80.05,63.17,80.05,61.18Z" fill="#13aa40"/><path d="M90.23,61.93h7.3c.27,1.68,1,2.61,3.28,2.61,1.94,0,2.83-.75,2.83-1.9s-1.11-1.64-4.29-2.08c-6.2-.8-8.81-2.62-8.81-7.44,0-5.14,4.56-7.62,9.91-7.62,5.71,0,9.7,2,10.23,7.48h-7.17c-.31-1.55-1.15-2.3-3-2.3s-2.61.75-2.61,1.82,1.06,1.55,3.9,1.9c6.41.8,9.51,2.48,9.51,7.44,0,5.49-4.07,8-10.49,8C94.26,69.81,90.4,67.07,90.23,61.93Z" fill="#13aa40"/><path d="M113.73,39.83a4.37,4.37,0,1,1,4.34,4.08A4.14,4.14,0,0,1,113.73,39.83Zm.4,6.29h7.92V69.28h-7.92Z" fill="#13aa40"/><path d="M126.52,35.94h7.88V69.28h-7.88Z" fill="#13aa40"/><path d="M145.91,66.93l-9.25-20.81h8.59L150,58.47l4.43-12.35H162L149.63,77h-7.57Z" fill="#13aa40"/><path d="M173.18,61.84V51.52h-2.79v-5.4h2.79V41.29h7.92v4.83h4.56v5.4H181.1v9.57a2.11,2.11,0,0,0,2.35,2.43,6,6,0,0,0,2.26-.4v6a17,17,0,0,1-4.39.66C176.1,69.81,173.18,67.29,173.18,61.84Z" fill="#13aa40"/><path d="M188.67,35.94h7.92v13.9a8.19,8.19,0,0,1,7.62-4.34c4.47,0,7.57,2.79,7.57,8.72V69.28h-7.93V55.82c0-2.61-1-3.9-3.32-3.9s-3.94,1.42-3.94,4.39v13h-7.92Z" fill="#13aa40"/><path d="M214.39,58v-.36c0-7.44,5.53-12.13,12.53-12.13,6.33,0,11.77,3.63,11.77,12v2.08H222.4c.22,3.05,2,4.82,4.83,4.82,2.61,0,3.71-1.19,4-2.74h7.44C238,66.84,234,69.81,227,69.81,219.7,69.81,214.39,65.56,214.39,58ZM231,55.06c-.13-2.78-1.51-4.33-4.07-4.33-2.39,0-4,1.55-4.43,4.33Z" fill="#13aa40"/><path d="M39.19,103.66v-.36c0-7.44,5.53-12.13,12.53-12.13,6.33,0,11.77,3.63,11.77,12v2.08H47.2c.22,3.05,2,4.82,4.83,4.82,2.61,0,3.72-1.19,4-2.74h7.43c-.71,5.22-4.73,8.19-11.73,8.19C44.5,115.48,39.19,111.23,39.19,103.66Zm16.6-2.93c-.13-2.79-1.51-4.34-4.07-4.34-2.39,0-4,1.55-4.43,4.34Z" fill="#13aa40"/><path d="M65.13,108.53c0-5.45,4.6-7.57,12.3-7.57h2.22v-.54c0-2.21-.53-3.67-3.06-3.67a2.84,2.84,0,0,0-3.14,2.74H66c.36-5.58,4.74-8.32,11.07-8.32s10.45,2.61,10.45,8.77v15H79.82v-2.7c-1.1,1.68-3.14,3.23-6.86,3.23C68.8,115.48,65.13,113.44,65.13,108.53Zm14.52-1.69v-1.41H77.57c-3.19,0-4.61.62-4.61,2.52,0,1.33.89,2.17,2.75,2.17C78,110.12,79.65,108.84,79.65,106.84Z" fill="#13aa40"/><path d="M89.83,107.6h7.3c.27,1.68,1,2.61,3.28,2.61,2,0,2.83-.75,2.83-1.9s-1.11-1.64-4.29-2.08c-6.2-.8-8.81-2.62-8.81-7.44,0-5.14,4.56-7.62,9.91-7.62,5.71,0,9.7,2,10.23,7.48h-7.17c-.31-1.55-1.15-2.3-3-2.3s-2.61.75-2.61,1.82,1.06,1.55,3.9,1.9c6.41.8,9.51,2.48,9.51,7.44,0,5.49-4.07,8-10.49,8C93.86,115.48,90,112.73,89.83,107.6Z" fill="#13aa40"/><path d="M113.33,85.5a4.37,4.37,0,1,1,4.34,4.08A4.14,4.14,0,0,1,113.33,85.5Zm.4,6.29h7.93V115h-7.93Z" fill="#13aa40"/><path d="M124.66,103.66v-.36c0-7.44,5.54-12.13,12.53-12.13,6.33,0,11.78,3.63,11.78,12v2.08H132.68c.22,3.05,2,4.82,4.82,4.82,2.61,0,3.72-1.19,4-2.74H149c-.71,5.22-4.74,8.19-11.73,8.19C130,115.48,124.66,111.23,124.66,103.66Zm16.6-2.93c-.13-2.79-1.5-4.34-4.07-4.34-2.39,0-4,1.55-4.42,4.34Z" fill="#13aa40"/><path d="M150.38,107.6h7.31c.26,1.68,1,2.61,3.27,2.61,1.95,0,2.83-.75,2.83-1.9s-1.1-1.64-4.29-2.08c-6.2-.8-8.81-2.62-8.81-7.44,0-5.14,4.56-7.62,9.92-7.62,5.71,0,9.69,2,10.22,7.48h-7.17c-.31-1.55-1.15-2.3-3-2.3s-2.62.75-2.62,1.82,1.07,1.55,3.9,1.9c6.42.8,9.52,2.48,9.52,7.44,0,5.49-4.08,8-10.49,8C154.41,115.48,150.56,112.73,150.38,107.6Z" fill="#13aa40"/><path d="M175.13,107.51V97.19h-2.79v-5.4h2.79V87h7.92v4.83h4.56v5.4h-4.56v9.57a2.11,2.11,0,0,0,2.35,2.43,5.9,5.9,0,0,0,2.25-.4v6a16.8,16.8,0,0,1-4.38.66C178.05,115.48,175.13,113,175.13,107.51Z" fill="#13aa40"/><path d="M38.48,137.46h8.28l3.36,13.86L54,137.46h6.37l3.46,13.86,3.76-13.86h7.52l-7.34,23.16H60.22l-3.46-12.93-3.58,12.93h-7.7Z" fill="#13aa40"/><path d="M75,154.2c0-5.45,4.6-7.58,12.3-7.58h2.22v-.53c0-2.21-.54-3.67-3.06-3.67a2.84,2.84,0,0,0-3.14,2.74H75.84c.36-5.58,4.74-8.32,11.07-8.32s10.44,2.61,10.44,8.77v15h-7.7v-2.7c-1.1,1.68-3.14,3.23-6.86,3.23C78.63,161.15,75,159.11,75,154.2Zm14.52-1.69V151.1H87.39c-3.18,0-4.6.62-4.6,2.52,0,1.33.89,2.17,2.75,2.17C87.79,155.79,89.48,154.51,89.48,152.51Z" fill="#13aa40"/><path d="M107.67,158.27l-9.25-20.81H107l4.78,12.35,4.43-12.35h7.57l-12.39,30.91h-7.57Z" fill="#13aa40"/><path d="M134.93,153.18V142.86h-2.78v-5.4h2.78v-4.83h7.93v4.83h4.56v5.4h-4.56v9.57c0,1.68.84,2.43,2.34,2.43a6,6,0,0,0,2.26-.4v6a16.39,16.39,0,0,1-4.38.67C137.86,161.15,134.93,158.62,134.93,153.18Z" fill="#13aa40"/><path d="M149.19,149.33V149c0-7.44,5.53-12.13,12.7-12.13s12.62,4.56,12.62,11.91v.35c0,7.53-5.54,12.05-12.66,12.05S149.19,156.81,149.19,149.33Zm17.26-.14v-.35c0-3.9-1.55-6.07-4.56-6.07s-4.6,2.08-4.6,6v.35c0,4,1.55,6.16,4.6,6.16S166.45,153,166.45,149.19Z" fill="#13aa40"/><path d="M184.2,149.28v-.35c0-7.89,4.34-12.09,9.83-12.09,3.63,0,5.8,1.55,7.12,3.89V127.27h7.93v33.35h-7.93v-3.77a7.79,7.79,0,0,1-7.21,4.3C188.58,161.15,184.2,157.3,184.2,149.28Zm17.18-.13v-.36c0-3.89-1.64-6-4.56-6s-4.56,2-4.56,6v.35c0,3.9,1.72,5.89,4.47,5.89S201.38,153.09,201.38,149.15Z" fill="#13aa40"/><path d="M211.87,149.33V149c0-7.44,5.53-12.13,12.7-12.13s12.62,4.56,12.62,11.91v.35c0,7.53-5.54,12.05-12.66,12.05S211.87,156.81,211.87,149.33Zm17.26-.14v-.35c0-3.9-1.55-6.07-4.56-6.07s-4.6,2.08-4.6,6v.35c0,4,1.55,6.16,4.6,6.16S229.13,153,229.13,149.19Z" fill="#13aa40"/><path d="M47.69,203.94l-9.25-20.81H47l4.78,12.35,4.42-12.35H63.8L51.41,214H43.84Z" fill="#13aa40"/><path d="M63.36,195v-.35c0-7.44,5.53-12.13,12.7-12.13s12.62,4.56,12.62,11.91v.35c0,7.53-5.53,12-12.66,12S63.36,202.48,63.36,195Zm17.26-.13v-.35c0-3.9-1.55-6.07-4.56-6.07s-4.6,2.08-4.6,6v.35c0,4,1.55,6.16,4.6,6.16S80.62,198.71,80.62,194.86Z" fill="#13aa40"/><path d="M91.29,198.23v-15.1h7.92v13.81c0,2.61,1,3.9,3.28,3.9s3.94-1.42,3.94-4.38V183.13h7.92v23.16h-7.92V202.7c-1.24,2.39-3.5,4.12-7.35,4.12C94.61,206.82,91.29,204.07,91.29,198.23Z" fill="#13aa40"/><path d="M118.38,183.13h7.92v4.6a7.29,7.29,0,0,1,7.48-4.91v7.39c-4.82-.13-7.48,1.37-7.48,5.09v11h-7.92Z" fill="#13aa40"/><path d="M143.48,195v-.35c0-7.44,5.53-12.13,12.7-12.13s12.62,4.56,12.62,11.91v.35c0,7.53-5.54,12-12.66,12S143.48,202.48,143.48,195Zm17.26-.13v-.35c0-3.9-1.55-6.07-4.56-6.07s-4.6,2.08-4.6,6v.35c0,4,1.55,6.16,4.6,6.16S160.74,198.71,160.74,194.86Z" fill="#13aa40"/><path d="M168.89,183.13h8.27L180.53,197l3.89-13.86h6.38L194.25,197,198,183.13h7.53l-7.35,23.16h-7.57l-3.45-12.93-3.59,12.93h-7.7Z" fill="#13aa40"/><path d="M207.57,183.13h7.93v3.72a8.17,8.17,0,0,1,7.61-4.34c4.47,0,7.57,2.79,7.57,8.72v15.06h-7.92V192.82c0-2.61-1-3.89-3.32-3.89s-3.94,1.41-3.94,4.38v13h-7.93Z" fill="#13aa40"/><path d="M41.49,244.52V234.2H38.7v-5.4h2.79V224h7.93v4.83H54v5.4H49.42v9.56c0,1.69.84,2.44,2.34,2.44a6,6,0,0,0,2.26-.4v6a16.39,16.39,0,0,1-4.38.67C44.41,252.49,41.49,250,41.49,244.52Z" fill="#13aa40"/><path d="M55.74,245.53c0-5.44,4.61-7.57,12.31-7.57h2.21v-.53c0-2.21-.53-3.67-3.05-3.67a2.83,2.83,0,0,0-3.14,2.74H56.63c.35-5.58,4.74-8.32,11.07-8.32s10.44,2.61,10.44,8.76v15h-7.7v-2.71c-1.11,1.69-3.14,3.24-6.86,3.24C59.42,252.49,55.74,250.45,55.74,245.53Zm14.52-1.68v-1.42H68.18c-3.18,0-4.6.62-4.6,2.53,0,1.33.88,2.17,2.74,2.17C68.58,247.13,70.26,245.84,70.26,243.85Z" fill="#13aa40"/><path d="M87.84,240.18,80.62,228.8h9.12l3.59,6.11,3.49-6.11H105l-7.31,10.76,8,12.4H96.56l-4.12-6.91L88.23,252h-8.1Z" fill="#13aa40"/><path d="M104.66,240.66v-.35c0-7.44,5.53-12.13,12.52-12.13,6.33,0,11.78,3.63,11.78,11.95v2.08H112.67c.22,3.06,2,4.83,4.82,4.83,2.62,0,3.72-1.2,4-2.75H129c-.71,5.23-4.74,8.2-11.73,8.2C110,252.49,104.66,248.24,104.66,240.66Zm16.6-2.92c-.14-2.79-1.51-4.34-4.08-4.34-2.39,0-4,1.55-4.42,4.34Z" fill="#13aa40"/><path d="M130.37,244.6h7.31c.26,1.69,1,2.62,3.27,2.62,2,0,2.84-.76,2.84-1.91s-1.11-1.64-4.3-2.08c-6.19-.8-8.81-2.61-8.81-7.44,0-5.13,4.56-7.61,9.92-7.61,5.71,0,9.69,1.94,10.22,7.48h-7.17c-.31-1.55-1.15-2.3-3-2.3s-2.61.75-2.61,1.81,1.06,1.55,3.89,1.91c6.42.79,9.52,2.48,9.52,7.44,0,5.49-4.07,8-10.49,8C134.4,252.49,130.55,249.74,130.37,244.6Z" fill="#13aa40"/><path d="M153.75,248a4.41,4.41,0,0,1,4.51-4.47,4.47,4.47,0,1,1,0,8.94A4.41,4.41,0,0,1,153.75,248Z" fill="#13aa40"/><rect width="600" height="500" fill="none"/></g></g></svg>