<svg xmlns="http://www.w3.org/2000/svg" viewBox="0 0 728 90"><title>H23 C9 T4</title><g id="Layer_2" data-name="Layer 2"><g id="Rect"><rect width="728" height="90" fill="none"/></g><g id="H23_C9_T4" data-name="H23 C9 T4"><g id="Your_maximum_refund_guaranteed." data-name="Your maximum  refund, guaranteed."><path d="M127.6,29.8l-7.35-12.9h7l3.81,7.6,3.82-7.6h6.18l-7,12.9v9.65h-6.5Z" fill="#13aa40"/><path d="M138.73,31.41v-.25c0-5.3,4-8.64,9.06-8.64s9,3.24,9,8.48v.25c0,5.36-3.95,8.58-9,8.58S138.73,36.74,138.73,31.41ZM151,31.32v-.26c0-2.77-1.11-4.32-3.25-4.32s-3.28,1.48-3.28,4.26v.25c0,2.84,1.1,4.39,3.28,4.39S151,34.06,151,31.32Z" fill="#13aa40"/><path d="M158.64,33.71V23h5.64V32.8c0,1.86.73,2.77,2.34,2.77s2.8-1,2.8-3.12V23h5.65V39.45h-5.65V36.9a5.42,5.42,0,0,1-5.23,2.93C161,39.83,158.64,37.88,158.64,33.71Z" fill="#13aa40"/><path d="M177.94,23h5.64v3.28a5.21,5.21,0,0,1,5.34-3.5V28c-3.44-.09-5.34,1-5.34,3.63v7.82h-5.64Z" fill="#13aa40"/><path d="M196.71,23h5.64v2.52a5.76,5.76,0,0,1,5.17-3A4.49,4.49,0,0,1,212,25.26a6.55,6.55,0,0,1,5.46-2.74c3.12,0,5.39,2,5.39,6.15V39.45h-5.64V29.61c0-1.67-.82-2.49-2.12-2.49-1.51,0-2.52,1-2.52,2.78v9.55H207V29.61c0-1.67-.82-2.49-2.12-2.49-1.51,0-2.52,1-2.52,2.78v9.55h-5.64Z" fill="#13aa40"/><path d="M224.65,34.88c0-3.88,3.28-5.39,8.77-5.39H235v-.38c0-1.58-.38-2.62-2.18-2.62a2,2,0,0,0-2.24,2h-5.3c.25-4,3.38-5.93,7.89-5.93s7.44,1.86,7.44,6.24V39.45h-5.49V37.53a5.42,5.42,0,0,1-4.89,2.3C227.27,39.83,224.65,38.38,224.65,34.88ZM235,33.68v-1h-1.49c-2.27,0-3.28.44-3.28,1.8,0,1,.63,1.54,2,1.54C233.8,36,235,35.1,235,33.68Z" fill="#13aa40"/><path d="M247.52,31.06,242.38,23h6.49l2.56,4.35L253.92,23h5.8l-5.2,7.66,5.71,8.83h-6.5l-2.93-4.92-3,4.92H242Z" fill="#13aa40"/><path d="M261.68,18.48a3.11,3.11,0,1,1,3.09,2.9A2.94,2.94,0,0,1,261.68,18.48ZM262,23h5.65V39.45H262Z" fill="#13aa40"/><path d="M270.64,23h5.64v2.52a5.77,5.77,0,0,1,5.18-3,4.47,4.47,0,0,1,4.47,2.74,6.55,6.55,0,0,1,5.46-2.74c3.12,0,5.39,2,5.39,6.15V39.45h-5.64V29.61c0-1.67-.82-2.49-2.11-2.49-1.52,0-2.53,1-2.53,2.78v9.55h-5.58V29.61c0-1.67-.82-2.49-2.11-2.49-1.52,0-2.53,1-2.53,2.78v9.55h-5.64Z" fill="#13aa40"/><path d="M299.4,33.71V23h5.65V32.8c0,1.86.72,2.77,2.33,2.77s2.81-1,2.81-3.12V23h5.65V39.45h-5.65V36.9A5.42,5.42,0,0,1,305,39.83C301.77,39.83,299.4,37.88,299.4,33.71Z" fill="#13aa40"/><path d="M318.71,23h5.64v2.52a5.76,5.76,0,0,1,5.17-3A4.49,4.49,0,0,1,334,25.26a6.55,6.55,0,0,1,5.46-2.74c3.12,0,5.39,2,5.39,6.15V39.45h-5.64V29.61c0-1.67-.82-2.49-2.12-2.49-1.51,0-2.52,1-2.52,2.78v9.55H329V29.61c0-1.67-.82-2.49-2.12-2.49-1.51,0-2.52,1-2.52,2.78v9.55h-5.64Z" fill="#13aa40"/><path d="M121.67,56.88h5.65v3.28a5.19,5.19,0,0,1,5.33-3.5v5.27c-3.44-.1-5.33,1-5.33,3.63v7.82h-5.65Z" fill="#13aa40"/><path d="M133.66,65.33v-.25c0-5.3,3.94-8.64,8.92-8.64C147.09,56.44,151,59,151,65v1.48h-11.6c.15,2.18,1.42,3.44,3.43,3.44s2.65-.85,2.87-2H151c-.5,3.72-3.37,5.84-8.36,5.84C137.44,73.76,133.66,70.73,133.66,65.33Zm11.83-2.08c-.1-2-1.08-3.09-2.91-3.09s-2.87,1.11-3.15,3.09Z" fill="#13aa40"/><path d="M153.78,60.73H151.7V56.88h2.08V55.43c0-4.1,2.56-6,6.47-6a10,10,0,0,1,2.58.34v4.13a5.36,5.36,0,0,0-1.54-.22,1.66,1.66,0,0,0-1.9,1.8v1.45h3.35v3.85h-3.35V73.38h-5.61Z" fill="#13aa40"/><path d="M164.5,67.64V56.88h5.65v9.84c0,1.86.73,2.78,2.33,2.78s2.81-1,2.81-3.12v-9.5h5.65v16.5h-5.65V70.82a5.41,5.41,0,0,1-5.23,2.94C166.87,73.76,164.5,71.8,164.5,67.64Z" fill="#13aa40"/><path d="M183.81,56.88h5.64v2.65a5.83,5.83,0,0,1,5.43-3.09c3.18,0,5.39,2,5.39,6.21V73.38h-5.65V63.79c0-1.86-.72-2.78-2.36-2.78s-2.81,1-2.81,3.13v9.24h-5.64Z" fill="#13aa40"/><path d="M202.19,65.3v-.25c0-5.61,3.1-8.61,7-8.61a5.32,5.32,0,0,1,5.07,2.78V49.63h5.65V73.38h-5.65V70.7a5.56,5.56,0,0,1-5.14,3.06C205.32,73.76,202.19,71,202.19,65.3Zm12.24-.09V65c0-2.78-1.17-4.26-3.25-4.26s-3.25,1.42-3.25,4.29v.25c0,2.78,1.23,4.2,3.19,4.2S214.43,68,214.43,65.21Z" fill="#13aa40"/><path d="M221.62,75.93l2.65-8.29,5.24,1.86L225,77.23Z" fill="#13aa40"/><path d="M236.79,73.38h5.62c.25,1.2,1,2.14,3,2.14,2.49,0,3.5-1.42,3.5-3.47V69.53a5.78,5.78,0,0,1-5.11,3c-3.85,0-7-2.84-7-7.92v-.25c0-4.86,3.12-8,7-8a5.36,5.36,0,0,1,5.11,2.78V56.88h5.64V72c0,4.92-3.25,7.51-9.14,7.51C239.82,79.5,237.24,77.13,236.79,73.38Zm12.31-8.77v-.22c0-2.27-1.17-3.72-3.25-3.72s-3.25,1.48-3.25,3.75v.25c0,2.27,1.2,3.72,3.21,3.72S249.1,66.94,249.1,64.61Z" fill="#13aa40"/><path d="M257.33,67.64V56.88H263v9.84c0,1.86.73,2.78,2.34,2.78s2.8-1,2.8-3.12v-9.5h5.65v16.5h-5.65V70.82a5.41,5.41,0,0,1-5.23,2.94C259.69,73.76,257.33,71.8,257.33,67.64Z" fill="#13aa40"/><path d="M275.68,68.8c0-3.88,3.28-5.39,8.77-5.39H286V63c0-1.57-.38-2.61-2.18-2.61a2,2,0,0,0-2.24,1.95h-5.3c.26-4,3.38-5.93,7.89-5.93s7.44,1.86,7.44,6.25V73.38h-5.49V71.45a5.39,5.39,0,0,1-4.88,2.31C278.3,73.76,275.68,72.31,275.68,68.8ZM286,67.61v-1h-1.48c-2.27,0-3.28.44-3.28,1.79,0,1,.63,1.55,2,1.55C284.83,69.94,286,69,286,67.61Z" fill="#13aa40"/><path d="M294.39,56.88H300v3.28a5.2,5.2,0,0,1,5.33-3.5v5.27c-3.44-.1-5.33,1-5.33,3.63v7.82h-5.64Z" fill="#13aa40"/><path d="M306.09,68.8c0-3.88,3.28-5.39,8.77-5.39h1.57V63c0-1.57-.37-2.61-2.17-2.61A2,2,0,0,0,312,62.37h-5.3c.25-4,3.37-5.93,7.88-5.93s7.45,1.86,7.45,6.25V73.38h-5.49V71.45a5.42,5.42,0,0,1-4.89,2.31C308.71,73.76,306.09,72.31,306.09,68.8Zm10.34-1.19v-1H315c-2.27,0-3.28.44-3.28,1.79,0,1,.63,1.55,2,1.55C315.24,69.94,316.43,69,316.43,67.61Z" fill="#13aa40"/><path d="M324.79,56.88h5.65v2.65a5.82,5.82,0,0,1,5.42-3.09c3.19,0,5.4,2,5.4,6.21V73.38h-5.65V63.79c0-1.86-.73-2.78-2.36-2.78s-2.81,1-2.81,3.13v9.24h-5.65Z" fill="#13aa40"/><path d="M344.76,68.08V60.73h-2V56.88h2V53.44h5.64v3.44h3.25v3.85H350.4v6.81c0,1.2.6,1.74,1.67,1.74a4.24,4.24,0,0,0,1.61-.29v4.29a11.67,11.67,0,0,1-3.12.48C346.84,73.76,344.76,72,344.76,68.08Z" fill="#13aa40"/><path d="M354.91,65.33v-.25c0-5.3,3.95-8.64,8.93-8.64,4.51,0,8.39,2.59,8.39,8.52v1.48H360.62c.16,2.18,1.42,3.44,3.44,3.44,1.86,0,2.65-.85,2.87-2h5.3c-.51,3.72-3.38,5.84-8.36,5.84C358.7,73.76,354.91,70.73,354.91,65.33Zm11.83-2.08c-.09-2-1.07-3.09-2.9-3.09s-2.87,1.11-3.16,3.09Z" fill="#13aa40"/><path d="M373.3,65.33v-.25c0-5.3,3.94-8.64,8.93-8.64,4.51,0,8.39,2.59,8.39,8.52v1.48H379c.16,2.18,1.42,3.44,3.44,3.44,1.86,0,2.65-.85,2.87-2h5.3c-.51,3.72-3.38,5.84-8.36,5.84C377.09,73.76,373.3,70.73,373.3,65.33Zm11.83-2.08c-.1-2-1.07-3.09-2.9-3.09s-2.87,1.11-3.16,3.09Z" fill="#13aa40"/><path d="M391.75,65.3v-.25c0-5.61,3.09-8.61,7-8.61a5.33,5.33,0,0,1,5.08,2.78V49.63h5.65V73.38h-5.65V70.7a5.56,5.56,0,0,1-5.14,3.06C394.87,73.76,391.75,71,391.75,65.3ZM404,65.21V65c0-2.78-1.17-4.26-3.25-4.26s-3.25,1.42-3.25,4.29v.25c0,2.78,1.23,4.2,3.19,4.2S404,68,404,65.21Z" fill="#13aa40"/><path d="M412.13,70.54a3.14,3.14,0,0,1,3.22-3.19,3.19,3.19,0,1,1,0,6.37A3.14,3.14,0,0,1,412.13,70.54Z" fill="#13aa40"/></g></g></g></svg>