<svg xmlns="http://www.w3.org/2000/svg" viewBox="0 0 1456 180"><title>H2</title><g id="Layer_2" data-name="Layer 2"><g id="Layer_4" data-name="Layer 4"><rect width="1456" height="180" fill="none"/></g><g id="Your_maximum_refund_guaranteed." data-name="Your maximum  refund, guaranteed."><path d="M255.2,59.6,240.5,33.79h14.07L262.2,49l7.64-15.21H282.2l-14,25.81V78.91h-13Z" fill="#13aa40"/><path d="M277.47,62.82v-.51c0-10.6,7.89-17.29,18.1-17.29s18,6.5,18,17v.5c0,10.73-7.88,17.16-18,17.16S277.47,73.48,277.47,62.82Zm24.6-.19v-.51c0-5.55-2.21-8.64-6.5-8.64S289,56.44,289,62v.5c0,5.68,2.21,8.77,6.56,8.77S302.07,68.12,302.07,62.63Z" fill="#13aa40"/><path d="M317.27,67.42V45.91h11.3V65.59c0,3.73,1.45,5.56,4.66,5.56,3.41,0,5.62-2,5.62-6.25v-19h11.29v33H338.85V73.8c-1.77,3.4-5,5.86-10.47,5.86C322,79.66,317.27,75.75,317.27,67.42Z" fill="#13aa40"/><path d="M355.88,45.91h11.29v6.56c2.08-4.92,5.55-7.07,10.66-7V56c-6.87-.19-10.66,2-10.66,7.26V78.91H355.88Z" fill="#13aa40"/><path d="M393.41,45.91H404.7V51A11.54,11.54,0,0,1,415.05,45c4.35,0,7.38,1.9,9,5.49A13.06,13.06,0,0,1,434.92,45c6.24,0,10.79,4,10.79,12.31V78.91h-11.3V59.22c0-3.34-1.64-5-4.22-5-3,0-5.05,1.95-5.05,5.55V78.91H414V59.22c0-3.34-1.64-5-4.23-5-3,0-5.05,1.95-5.05,5.55V78.91H393.41Z" fill="#13aa40"/><path d="M449.3,69.76C449.3,62,455.86,59,466.84,59H470v-.76c0-3.15-.75-5.24-4.35-5.24-3.09,0-4.23,1.83-4.48,3.92h-10.6c.51-8,6.75-11.87,15.77-11.87s14.89,3.73,14.89,12.5V78.91h-11V75.06c-1.58,2.4-4.48,4.6-9.78,4.6C454.54,79.66,449.3,76.76,449.3,69.76ZM470,67.36v-2h-3c-4.54,0-6.56.88-6.56,3.6,0,1.89,1.26,3.09,3.91,3.09C467.6,72,470,70.2,470,67.36Z" fill="#13aa40"/><path d="M495,62.12,484.75,45.91h13l5.11,8.7,5-8.7h11.61L509,61.24l11.42,17.67h-13l-5.86-9.85-6,9.85H484.06Z" fill="#13aa40"/><path d="M523.36,37a5.89,5.89,0,0,1,6.18-5.87A6,6,0,0,1,535.79,37c0,3.34-2.72,5.8-6.25,5.8A5.84,5.84,0,0,1,523.36,37Zm.57,9h11.29v33H523.93Z" fill="#13aa40"/><path d="M541.27,45.91h11.3V51A11.51,11.51,0,0,1,562.91,45c4.35,0,7.38,1.9,9,5.49A13.07,13.07,0,0,1,582.78,45c6.25,0,10.79,4,10.79,12.31V78.91H582.28V59.22c0-3.34-1.64-5-4.23-5-3,0-5,1.95-5,5.55V78.91H561.84V59.22c0-3.34-1.64-5-4.23-5-3,0-5,1.95-5,5.55V78.91h-11.3Z" fill="#13aa40"/><path d="M598.8,67.42V45.91h11.3V65.59c0,3.73,1.45,5.56,4.66,5.56,3.41,0,5.62-2,5.62-6.25v-19h11.29v33H620.38V73.8c-1.77,3.4-5,5.86-10.47,5.86C603.54,79.66,598.8,75.75,598.8,67.42Z" fill="#13aa40"/><path d="M637.41,45.91H648.7V51A11.54,11.54,0,0,1,659.05,45c4.35,0,7.38,1.9,9,5.49A13.08,13.08,0,0,1,678.92,45c6.24,0,10.78,4,10.78,12.31V78.91H678.41V59.22c0-3.34-1.64-5-4.22-5-3,0-5.05,1.95-5.05,5.55V78.91H658V59.22c0-3.34-1.64-5-4.22-5-3,0-5,1.95-5,5.55V78.91H637.41Z" fill="#13aa40"/><path d="M243.34,113.76h11.29v6.56c2.09-4.92,5.56-7.07,10.66-7v10.53c-6.87-.19-10.66,2-10.66,7.26v15.65H243.34Z" fill="#13aa40"/><path d="M267.31,130.67v-.51c0-10.6,7.89-17.29,17.86-17.29,9,0,16.78,5.18,16.78,17v3H278.73c.32,4.36,2.84,6.88,6.88,6.88,3.72,0,5.3-1.7,5.74-3.91H302c-1,7.45-6.75,11.67-16.72,11.67C274.88,147.51,267.31,141.46,267.31,130.67ZM291,126.5c-.19-4-2.15-6.18-5.8-6.18-3.41,0-5.74,2.21-6.31,6.18Z" fill="#13aa40"/><path d="M307.56,121.46H303.4v-7.7h4.16v-2.91c0-8.2,5.11-12.11,12.93-12.11a20.48,20.48,0,0,1,5.17.69v8.27a10.45,10.45,0,0,0-3.09-.44c-2.65,0-3.78,1.45-3.78,3.59v2.91h6.68v7.7h-6.68v25.3H307.56Z" fill="#13aa40"/><path d="M329,135.27V113.76H340.3v19.68c0,3.73,1.45,5.56,4.67,5.56,3.4,0,5.61-2,5.61-6.25v-19h11.29v33H350.58v-5.11c-1.77,3.4-5,5.86-10.47,5.86C333.74,147.51,329,143.6,329,135.27Z" fill="#13aa40"/><path d="M367.61,113.76H378.9v5.3c1.77-3.41,5.36-6.19,10.85-6.19,6.37,0,10.79,4,10.79,12.43v21.46H389.25V127.58c0-3.73-1.45-5.56-4.73-5.56s-5.62,2-5.62,6.25v18.49H367.61Z" fill="#13aa40"/><path d="M404.39,130.6v-.5c0-11.23,6.18-17.23,14-17.23,5.17,0,8.27,2.21,10.16,5.56V99.25h11.29v47.51H428.55v-5.37a11.11,11.11,0,0,1-10.28,6.12C410.63,147.51,404.39,142,404.39,130.6Zm24.47-.19v-.5c0-5.55-2.33-8.52-6.49-8.52s-6.5,2.84-6.5,8.58v.51c0,5.55,2.46,8.39,6.37,8.39C426.34,138.87,428.86,136,428.86,130.41Z" fill="#13aa40"/><path d="M443.25,151.87l5.3-16.6L459,139l-9.09,15.45Z" fill="#13aa40"/><path d="M473.59,146.76h11.23c.5,2.39,1.95,4.29,6.05,4.29,5,0,7-2.84,7-6.94v-5.05a11.56,11.56,0,0,1-10.21,6.06c-7.7,0-14-5.68-14-15.84v-.51c0-9.71,6.25-15.9,14-15.9,5.23,0,8.32,2.21,10.21,5.56v-4.67h11.3V144c0,9.84-6.5,15-18.3,15C479.64,159,474.47,154.26,473.59,146.76Zm24.6-17.54v-.45c0-4.54-2.33-7.44-6.5-7.44s-6.49,3-6.49,7.51v.5c0,4.54,2.39,7.45,6.43,7.45S498.19,133.88,498.19,129.22Z" fill="#13aa40"/><path d="M514.65,135.27V113.76H526v19.68c0,3.73,1.45,5.56,4.66,5.56,3.41,0,5.62-2,5.62-6.25v-19h11.29v33H536.23v-5.11c-1.77,3.4-5,5.86-10.47,5.86C519.39,147.51,514.65,143.6,514.65,135.27Z" fill="#13aa40"/><path d="M551.37,137.61c0-7.76,6.56-10.79,17.53-10.79h3.16v-.76c0-3.15-.76-5.24-4.36-5.24-3.09,0-4.22,1.83-4.47,3.92h-10.6c.5-7.95,6.75-11.87,15.77-11.87s14.89,3.73,14.89,12.5v21.39h-11v-3.85c-1.58,2.39-4.48,4.6-9.78,4.6C556.6,147.51,551.37,144.61,551.37,137.61Zm20.69-2.4v-2h-3c-4.54,0-6.56.88-6.56,3.6,0,1.89,1.26,3.09,3.91,3.09C569.66,139.88,572.06,138.05,572.06,135.21Z" fill="#13aa40"/><path d="M588.77,113.76h11.29v6.56c2.09-4.92,5.56-7.07,10.67-7v10.53c-6.88-.19-10.67,2-10.67,7.26v15.65H588.77Z" fill="#13aa40"/><path d="M612.18,137.61c0-7.76,6.56-10.79,17.53-10.79h3.16v-.76c0-3.15-.76-5.24-4.35-5.24-3.1,0-4.23,1.83-4.48,3.92h-10.6c.5-7.95,6.75-11.87,15.77-11.87s14.89,3.73,14.89,12.5v21.39h-11v-3.85c-1.58,2.39-4.48,4.6-9.78,4.6C617.41,147.51,612.18,144.61,612.18,137.61Zm20.69-2.4v-2h-3c-4.54,0-6.56.88-6.56,3.6,0,1.89,1.26,3.09,3.91,3.09C630.47,139.88,632.87,138.05,632.87,135.21Z" fill="#13aa40"/><path d="M649.58,113.76h11.3v5.3c1.76-3.41,5.36-6.19,10.85-6.19,6.37,0,10.78,4,10.78,12.43v21.46H671.22V127.58c0-3.73-1.45-5.56-4.73-5.56s-5.61,2-5.61,6.25v18.49h-11.3Z" fill="#13aa40"/><path d="M689.51,136.16v-14.7h-4v-7.7h4v-6.88h11.3v6.88h6.49v7.7h-6.49v13.62c0,2.4,1.19,3.47,3.34,3.47a8.8,8.8,0,0,0,3.22-.56v8.58a23.7,23.7,0,0,1-6.25.94C693.68,147.51,689.51,143.92,689.51,136.16Z" fill="#13aa40"/><path d="M709.83,130.67v-.51c0-10.6,7.88-17.29,17.85-17.29,9,0,16.78,5.18,16.78,17v3H721.24c.32,4.36,2.84,6.88,6.88,6.88,3.72,0,5.3-1.7,5.74-3.91h10.6c-1,7.45-6.75,11.67-16.72,11.67C717.4,147.51,709.83,141.46,709.83,130.67Zm23.65-4.17c-.19-4-2.14-6.18-5.8-6.18-3.41,0-5.74,2.21-6.31,6.18Z" fill="#13aa40"/><path d="M746.6,130.67v-.51c0-10.6,7.89-17.29,17.85-17.29,9,0,16.78,5.18,16.78,17v3H758c.31,4.36,2.84,6.88,6.88,6.88,3.72,0,5.29-1.7,5.74-3.91h10.59c-1,7.45-6.75,11.67-16.71,11.67C754.17,147.51,746.6,141.46,746.6,130.67Zm23.66-4.17c-.19-4-2.15-6.18-5.81-6.18-3.4,0-5.74,2.21-6.3,6.18Z" fill="#13aa40"/><path d="M783.5,130.6v-.5c0-11.23,6.19-17.23,14-17.23,5.17,0,8.26,2.21,10.15,5.56V99.25H819v47.51h-11.3v-5.37a11.1,11.1,0,0,1-10.28,6.12C789.75,147.51,783.5,142,783.5,130.6Zm24.48-.19v-.5c0-5.55-2.33-8.52-6.5-8.52S795,124.23,795,130v.51c0,5.55,2.46,8.39,6.37,8.39C805.46,138.87,808,136,808,130.41Z" fill="#13aa40"/><path d="M824.25,141.08a6.29,6.29,0,0,1,6.44-6.37,6.37,6.37,0,1,1,0,12.74A6.3,6.3,0,0,1,824.25,141.08Z" fill="#13aa40"/></g></g></svg>