<svg xmlns="http://www.w3.org/2000/svg" viewBox="0 0 300 600"><title>H2</title><g id="Layer_2" data-name="Layer 2"><g id="Artboard_2" data-name="Artboard 2" style="isolation:isolate"><g id="headline1"><g id="Expert_tax_prep_without_an_appointment._Just_drop_off_your_d" data-name="Expert tax prep without an  appointment.  Just drop off  your d"><path d="M21.43,145.61H38.84v5.57H28.62v4.33h8.14v5.15H28.62v4.58H39.41v5.57h-18Z" fill="#fff"/><path d="M46.64,161.43l-5.75-9.05h7.26L51,157.24l2.78-4.86h6.49l-5.82,8.56,6.38,9.87H53.58l-3.28-5.5L47,170.81H40.5Z" fill="#fff"/><path d="M62.6,152.38h6.31v2.75a6.5,6.5,0,0,1,5.75-3.25c4.3,0,7.79,3.25,7.79,9.55v.29c0,6.34-3.49,9.51-7.83,9.51a6.09,6.09,0,0,1-5.71-3.13V177H62.6ZM76,161.72v-.29c0-3.24-1.41-4.79-3.63-4.79s-3.66,1.66-3.66,4.76v.28c0,3.14,1.37,4.72,3.66,4.72S76,164.75,76,161.72Z" fill="#fff"/><path d="M83.75,161.82v-.28c0-5.92,4.41-9.66,10-9.66,5,0,9.37,2.89,9.37,9.52v1.66h-13c.18,2.43,1.59,3.84,3.85,3.84,2.07,0,3-1,3.2-2.19h5.92c-.56,4.16-3.77,6.52-9.34,6.52C88,171.23,83.75,167.85,83.75,161.82ZM97,159.5c-.1-2.22-1.2-3.46-3.24-3.46s-3.21,1.24-3.53,3.46Z" fill="#fff"/><path d="M105.29,152.38h6.31V156a5.8,5.8,0,0,1,6-3.91V158c-3.85-.11-6,1.09-6,4v8.74h-6.31Z" fill="#fff"/><path d="M121,164.89v-8.21h-2.22v-4.3H121v-3.85h6.31v3.85h3.63v4.3h-3.63v7.61c0,1.34.67,1.94,1.86,1.94a4.82,4.82,0,0,0,1.8-.32v4.79a12.89,12.89,0,0,1-3.49.53C123.3,171.23,121,169.22,121,164.89Z" fill="#fff"/><path d="M140.58,164.89v-8.21h-2.23v-4.3h2.23v-3.85h6.3v3.85h3.63v4.3h-3.63v7.61a1.68,1.68,0,0,0,1.87,1.94,4.82,4.82,0,0,0,1.8-.32v4.79a12.89,12.89,0,0,1-3.49.53C142.9,171.23,140.58,169.22,140.58,164.89Z" fill="#fff"/><path d="M151.93,165.7c0-4.34,3.66-6,9.79-6h1.77v-.42c0-1.76-.43-2.93-2.44-2.93a2.27,2.27,0,0,0-2.5,2.19h-5.92c.28-4.44,3.77-6.63,8.81-6.63s8.32,2.08,8.32,7v11.95h-6.13v-2.15c-.88,1.34-2.5,2.57-5.47,2.57C154.85,171.23,151.93,169.61,151.93,165.7Zm11.56-1.34v-1.13h-1.66c-2.54,0-3.67.5-3.67,2,0,1.06.71,1.73,2.19,1.73C162.15,167,163.49,166,163.49,164.36Z" fill="#fff"/><path d="M177.48,161.43l-5.74-9.05H179l2.85,4.86,2.79-4.86h6.48l-5.81,8.56,6.38,9.87h-7.27l-3.27-5.5-3.35,5.5h-6.45Z" fill="#fff"/><path d="M199.86,152.38h6.31v2.75a6.5,6.5,0,0,1,5.75-3.25c4.3,0,7.79,3.25,7.79,9.55v.29c0,6.34-3.49,9.51-7.83,9.51a6.09,6.09,0,0,1-5.71-3.13V177h-6.31Zm13.43,9.34v-.29c0-3.24-1.41-4.79-3.63-4.79S206,158.3,206,161.4v.28c0,3.14,1.37,4.72,3.66,4.72S213.29,164.75,213.29,161.72Z" fill="#fff"/><path d="M222,152.38h6.31V156a5.8,5.8,0,0,1,6-3.91V158c-3.85-.11-6,1.09-6,4v8.74H222Z" fill="#fff"/><path d="M235.4,161.82v-.28c0-5.92,4.4-9.66,10-9.66,5,0,9.38,2.89,9.38,9.52v1.66h-13c.17,2.43,1.58,3.84,3.84,3.84,2.08,0,3-1,3.21-2.19h5.92c-.57,4.16-3.77,6.52-9.34,6.52C239.63,171.23,235.4,167.85,235.4,161.82Zm13.21-2.32c-.1-2.22-1.19-3.46-3.24-3.46s-3.21,1.24-3.52,3.46Z" fill="#fff"/><path d="M256.93,152.38h6.31v2.75a6.5,6.5,0,0,1,5.75-3.25c4.3,0,7.79,3.25,7.79,9.55v.29c0,6.34-3.49,9.51-7.83,9.51a6.09,6.09,0,0,1-5.71-3.13V177h-6.31Zm13.43,9.34v-.29c0-3.24-1.41-4.79-3.63-4.79s-3.66,1.66-3.66,4.76v.28c0,3.14,1.37,4.72,3.66,4.72S270.36,164.75,270.36,161.72Z" fill="#fff"/><path d="M19.32,189.63h6.59l2.68,11,3.1-11h5.07l2.75,11,3-11h6l-5.85,18.43h-6l-2.75-10.29L31,208.06H24.89Z" fill="#fff"/><path d="M50,184.62a3.48,3.48,0,1,1,3.46,3.24A3.3,3.3,0,0,1,50,184.62Zm.32,5h6.31v18.43H50.3Z" fill="#fff"/><path d="M60.84,202.14v-8.21H58.62v-4.3h2.22v-3.85h6.31v3.85h3.63v4.3H67.15v7.61A1.68,1.68,0,0,0,69,203.48a4.89,4.89,0,0,0,1.8-.32V208a12.89,12.89,0,0,1-3.49.53C63.17,208.48,60.84,206.47,60.84,202.14Z" fill="#fff"/><path d="M73.18,181.52h6.31v11.07a6.48,6.48,0,0,1,6.06-3.46c3.56,0,6,2.22,6,7v12H85.27V197.35c0-2.08-.81-3.11-2.65-3.11s-3.13,1.13-3.13,3.49v10.33H73.18Z" fill="#fff"/><path d="M93.66,199.07v-.28c0-5.92,4.4-9.66,10.11-9.66s10,3.63,10,9.48v.29c0,6-4.41,9.58-10.08,9.58S93.66,205,93.66,199.07Zm13.74-.1v-.29c0-3.1-1.23-4.82-3.63-4.82s-3.66,1.65-3.66,4.75v.29c0,3.17,1.23,4.9,3.66,4.9S107.4,202,107.4,199Z" fill="#fff"/><path d="M115.9,201.65v-12h6.31v11c0,2.08.81,3.11,2.61,3.11s3.14-1.13,3.14-3.49V189.63h6.31v18.43H128v-2.85a6.07,6.07,0,0,1-5.86,3.27C118.54,208.48,115.9,206.3,115.9,201.65Z" fill="#fff"/><path d="M138.32,202.14v-8.21H136.1v-4.3h2.22v-3.85h6.31v3.85h3.63v4.3h-3.63v7.61a1.68,1.68,0,0,0,1.87,1.94,4.8,4.8,0,0,0,1.79-.32V208a12.82,12.82,0,0,1-3.49.53C140.65,208.48,138.32,206.47,138.32,202.14Z" fill="#fff"/><path d="M156,203c0-4.34,3.67-6,9.8-6h1.77v-.42c0-1.76-.43-2.93-2.44-2.93a2.27,2.27,0,0,0-2.5,2.19h-5.92c.28-4.44,3.77-6.63,8.81-6.63s8.32,2.08,8.32,7v11.95h-6.13v-2.15c-.89,1.34-2.51,2.57-5.47,2.57C158.94,208.48,156,206.86,156,203Zm11.57-1.34v-1.13h-1.66c-2.54,0-3.67.5-3.67,2,0,1.06.71,1.73,2.19,1.73C166.24,204.22,167.58,203.2,167.58,201.61Z" fill="#fff"/><path d="M176.92,189.63h6.31v3a6.48,6.48,0,0,1,6.06-3.46c3.56,0,6,2.22,6,7v12H189V197.35c0-2.08-.81-3.11-2.65-3.11s-3.13,1.13-3.13,3.49v10.33h-6.31Z" fill="#fff"/><path d="M19.81,240.2c0-4.34,3.67-6,9.8-6h1.76v-.42c0-1.76-.42-2.93-2.43-2.93a2.27,2.27,0,0,0-2.5,2.19H20.52c.28-4.44,3.77-6.63,8.81-6.63s8.32,2.08,8.32,7v11.95H31.51v-2.15c-.88,1.34-2.5,2.57-5.46,2.57C22.74,245.73,19.81,244.11,19.81,240.2Zm11.56-1.34v-1.13H29.72c-2.54,0-3.67.5-3.67,2,0,1.06.7,1.73,2.18,1.73C30,241.47,31.37,240.45,31.37,238.86Z" fill="#fff"/><path d="M40.71,226.88H47v2.75a6.5,6.5,0,0,1,5.75-3.25c4.3,0,7.79,3.25,7.79,9.55v.29c0,6.34-3.49,9.51-7.83,9.51A6.09,6.09,0,0,1,47,242.6v8.88H40.71Zm13.43,9.34v-.29c0-3.24-1.41-4.79-3.63-4.79s-3.66,1.66-3.66,4.76v.28c0,3.14,1.37,4.72,3.66,4.72S54.14,239.25,54.14,236.22Z" fill="#fff"/><path d="M62.85,226.88h6.31v2.75a6.5,6.5,0,0,1,5.74-3.25c4.31,0,7.79,3.25,7.79,9.55v.29c0,6.34-3.48,9.51-7.82,9.51a6.08,6.08,0,0,1-5.71-3.13v8.88H62.85Zm13.43,9.34v-.29c0-3.24-1.41-4.79-3.63-4.79S69,232.8,69,235.9v.28c0,3.14,1.38,4.72,3.67,4.72S76.28,239.25,76.28,236.22Z" fill="#fff"/><path d="M84,236.32V236c0-5.92,4.41-9.66,10.12-9.66s10,3.63,10,9.48v.29c0,6-4.4,9.58-10.08,9.58S84,242.28,84,236.32Zm13.75-.1v-.29c0-3.1-1.24-4.82-3.63-4.82s-3.67,1.65-3.67,4.75v.29c0,3.17,1.23,4.9,3.67,4.9S97.75,239.28,97.75,236.22Z" fill="#fff"/><path d="M106.24,221.87a3.48,3.48,0,1,1,3.46,3.24A3.3,3.3,0,0,1,106.24,221.87Zm.32,5h6.31v18.43h-6.31Z" fill="#fff"/><path d="M116.25,226.88h6.31v3a6.51,6.51,0,0,1,6.07-3.46c3.56,0,6,2.22,6,7v12h-6.31V234.6c0-2.08-.81-3.11-2.64-3.11s-3.14,1.13-3.14,3.49v10.33h-6.31Z" fill="#fff"/><path d="M138.57,239.39v-8.21h-2.22v-4.3h2.22V223h6.31v3.85h3.63v4.3h-3.63v7.61c0,1.34.67,1.94,1.86,1.94a4.82,4.82,0,0,0,1.8-.32v4.79a12.89,12.89,0,0,1-3.49.53C140.89,245.73,138.57,243.72,138.57,239.39Z" fill="#fff"/><path d="M150.9,226.88h6.31v2.82a6.44,6.44,0,0,1,5.78-3.32,5,5,0,0,1,5,3.07,7.3,7.3,0,0,1,6.1-3.07c3.49,0,6,2.26,6,6.88v12.05h-6.31v-11c0-1.87-.91-2.78-2.36-2.78-1.69,0-2.82,1.09-2.82,3.1v10.68h-6.24v-11c0-1.87-.91-2.78-2.36-2.78-1.69,0-2.82,1.09-2.82,3.1v10.68H150.9Z" fill="#fff"/><path d="M182.21,236.32V236c0-5.92,4.4-9.66,10-9.66,5,0,9.38,2.89,9.38,9.52v1.66h-13c.18,2.43,1.59,3.84,3.85,3.84,2.08,0,3-1,3.2-2.19h5.93c-.57,4.16-3.77,6.52-9.34,6.52C186.44,245.73,182.21,242.35,182.21,236.32ZM195.42,234c-.1-2.22-1.2-3.46-3.24-3.46s-3.21,1.24-3.52,3.46Z" fill="#fff"/><path d="M203.74,226.88h6.31v3a6.51,6.51,0,0,1,6.07-3.46c3.55,0,6,2.22,6,7v12h-6.31V234.6c0-2.08-.81-3.11-2.64-3.11s-3.14,1.13-3.14,3.49v10.33h-6.31Z" fill="#fff"/><path d="M226.06,239.39v-8.21h-2.23v-4.3h2.23V223h6.31v3.85H236v4.3h-3.63v7.61c0,1.34.67,1.94,1.86,1.94a4.82,4.82,0,0,0,1.8-.32v4.79a12.89,12.89,0,0,1-3.49.53C228.38,245.73,226.06,243.72,226.06,239.39Z" fill="#fff"/><path d="M238.15,242.14a3.51,3.51,0,0,1,3.59-3.56,3.56,3.56,0,1,1,0,7.12A3.51,3.51,0,0,1,238.15,242.14Z" fill="#fff"/><path d="M20.16,282v-5.39a8.6,8.6,0,0,0,3.07.49c2,0,3.28-.88,3.28-3.49V257.36h7.26v16.35c0,6.07-3.1,9.17-9,9.17A9.64,9.64,0,0,1,20.16,282Z" fill="#fff"/><path d="M36.94,276.15v-12h6.31v11c0,2.08.81,3.11,2.61,3.11S49,277.1,49,274.74V264.13h6.31v18.43H49v-2.85A6.07,6.07,0,0,1,43.15,283C39.59,283,36.94,280.8,36.94,276.15Z" fill="#fff"/><path d="M57.28,276.71H63.1c.21,1.34.81,2.08,2.61,2.08,1.55,0,2.25-.6,2.25-1.52s-.88-1.3-3.42-1.65c-4.93-.64-7-2.08-7-5.93,0-4.08,3.63-6.06,7.89-6.06,4.55,0,7.72,1.55,8.15,6H67.86a2.07,2.07,0,0,0-2.37-1.83c-1.37,0-2.08.6-2.08,1.44s.85,1.24,3.11,1.52c5.11.63,7.57,2,7.57,5.92,0,4.37-3.24,6.34-8.35,6.34S57.42,280.8,57.28,276.71Z" fill="#fff"/><path d="M77,276.64v-8.21H74.77v-4.3H77v-3.85h6.3v3.85h3.64v4.3H83.29V276A1.68,1.68,0,0,0,85.16,278a4.82,4.82,0,0,0,1.8-.32v4.79a12.89,12.89,0,0,1-3.49.53C79.31,283,77,281,77,276.64Z" fill="#fff"/><path d="M94.82,273.54v-.29c0-6.27,3.46-9.62,7.83-9.62a6,6,0,0,1,5.67,3.1V256h6.31v26.54h-6.31v-3a6.19,6.19,0,0,1-5.74,3.42C98.31,283,94.82,279.92,94.82,273.54Zm13.68-.11v-.28c0-3.1-1.31-4.76-3.63-4.76s-3.63,1.59-3.63,4.79v.29c0,3.1,1.37,4.68,3.56,4.68S108.5,276.57,108.5,273.43Z" fill="#fff"/><path d="M117.84,264.13h6.31v3.66a5.8,5.8,0,0,1,6-3.91v5.89c-3.85-.11-6,1.09-6,4.05v8.74h-6.31Z" fill="#fff"/><path d="M131.24,273.57v-.28c0-5.92,4.4-9.66,10.11-9.66s10.05,3.63,10.05,9.48v.29c0,6-4.41,9.58-10.08,9.58S131.24,279.53,131.24,273.57Zm13.74-.1v-.29c0-3.1-1.23-4.82-3.63-4.82s-3.66,1.65-3.66,4.75v.29c0,3.17,1.23,4.9,3.66,4.9S145,276.53,145,273.47Z" fill="#fff"/><path d="M153.62,264.13h6.31v2.75a6.5,6.5,0,0,1,5.74-3.25c4.3,0,7.79,3.25,7.79,9.55v.29c0,6.34-3.49,9.51-7.82,9.51a6.07,6.07,0,0,1-5.71-3.13v8.88h-6.31Zm13.43,9.34v-.29c0-3.24-1.41-4.79-3.63-4.79s-3.67,1.66-3.67,4.76v.28c0,3.14,1.38,4.72,3.67,4.72S167.05,276.5,167.05,273.47Z" fill="#fff"/><path d="M181.18,273.57v-.28c0-5.92,4.41-9.66,10.12-9.66s10,3.63,10,9.48v.29c0,6-4.4,9.58-10.08,9.58S181.18,279.53,181.18,273.57Zm13.75-.1v-.29c0-3.1-1.23-4.82-3.63-4.82s-3.67,1.65-3.67,4.75v.29c0,3.17,1.24,4.9,3.67,4.9S194.93,276.53,194.93,273.47Z" fill="#fff"/><path d="M204.52,268.43h-2.33v-4.3h2.33v-1.41c0-4.59,2.82-6.74,7.19-6.74a10.24,10.24,0,0,1,2.82.36V261a5.62,5.62,0,0,0-1.69-.24,1.85,1.85,0,0,0-2.05,2v1.41h5.36V262.5c0-4.58,2.89-6.76,7.23-6.76a11.38,11.38,0,0,1,2.89.38v4.62a5.9,5.9,0,0,0-1.73-.24,1.84,1.84,0,0,0-2.08,2v1.63h3.74v4.3h-3.74v14.13h-6.31V268.43h-5.36v14.13h-6.27Z" fill="#fff"/><path d="M26.65,317.94l-7.37-16.56h6.84l3.81,9.83,3.52-9.83h6L29.61,326h-6Z" fill="#fff"/><path d="M39.13,310.82v-.28c0-5.92,4.4-9.66,10.11-9.66s10,3.63,10,9.48v.29c0,6-4.41,9.58-10.08,9.58S39.13,316.78,39.13,310.82Zm13.74-.1v-.29c0-3.1-1.23-4.82-3.63-4.82s-3.66,1.65-3.66,4.75v.29c0,3.17,1.23,4.9,3.66,4.9S52.87,313.78,52.87,310.72Z" fill="#fff"/><path d="M61.37,313.4v-12h6.31v11c0,2.08.81,3.1,2.61,3.1s3.13-1.12,3.13-3.48V301.38h6.31v18.43H73.42V317a6,6,0,0,1-5.85,3.27C64,320.23,61.37,318.05,61.37,313.4Z" fill="#fff"/><path d="M82.94,301.38h6.31V305a5.81,5.81,0,0,1,6-3.91V307c-3.84-.11-6,1.09-6,4.05v8.74H82.94Z" fill="#fff"/><path d="M103,310.79v-.29c0-6.27,3.45-9.62,7.82-9.62a6,6,0,0,1,5.68,3.1V293.27h6.31v26.54H116.5v-3a6.21,6.21,0,0,1-5.75,3.42C106.49,320.23,103,317.17,103,310.79Zm13.68-.11v-.28c0-3.1-1.31-4.76-3.64-4.76s-3.63,1.59-3.63,4.79v.29c0,3.1,1.38,4.68,3.56,4.68S116.68,313.82,116.68,310.68Z" fill="#fff"/><path d="M125,310.82v-.28c0-5.92,4.41-9.66,10.12-9.66s10,3.63,10,9.48v.29c0,6-4.4,9.58-10.08,9.58S125,316.78,125,310.82Zm13.75-.1v-.29c0-3.1-1.24-4.82-3.63-4.82s-3.67,1.65-3.67,4.75v.29c0,3.17,1.23,4.9,3.67,4.9S138.78,313.78,138.78,310.72Z" fill="#fff"/><path d="M146.43,310.82v-.28c0-6.13,4.4-9.66,9.83-9.66,4.51,0,8.67,2,9,7.58h-5.92c-.28-1.73-1.13-2.68-3-2.68-2.22,0-3.52,1.59-3.52,4.69v.28c0,3.21,1.23,4.87,3.63,4.87a3.07,3.07,0,0,0,3.2-3.07h5.68c-.18,4.65-3.31,7.68-9.27,7.68C150.62,320.23,146.43,317,146.43,310.82Z" fill="#fff"/><path d="M166.45,314h5.81c.22,1.34.81,2.08,2.61,2.08,1.55,0,2.26-.6,2.26-1.52s-.88-1.3-3.42-1.65c-4.94-.64-7-2.08-7-5.92,0-4.09,3.63-6.07,7.89-6.07,4.55,0,7.72,1.55,8.14,6H177a2.05,2.05,0,0,0-2.36-1.83c-1.37,0-2.08.6-2.08,1.44s.85,1.24,3.1,1.52c5.11.63,7.58,2,7.58,5.92,0,4.37-3.24,6.34-8.35,6.34S166.59,318.05,166.45,314Z" fill="#fff"/><path d="M185.06,316.64a3.51,3.51,0,0,1,3.6-3.56,3.56,3.56,0,1,1,0,7.12A3.52,3.52,0,0,1,185.06,316.64Z" fill="#fff"/><rect width="300" height="600" fill="none"/></g></g></g></g></svg>