<svg xmlns="http://www.w3.org/2000/svg" viewBox="0 0 970 250"><title>H07</title><g id="Layer_2" data-name="Layer 2"><g id="Rect"><rect width="970" height="250" fill="none"/></g><g id="Your_tax_pro_won_t_know_you_re_in_your_pajamas." data-name="Your tax pro won&apos;t know you&apos;re in your pajamas."><path d="M289.55,82.79l-11.42-20h10.93L295,74.56l5.93-11.81h9.61l-10.88,20v15h-10.1Z" fill="#fff"/><path d="M306.85,85.29v-.4c0-8.23,6.13-13.42,14.07-13.42s14,5,14,13.18V85c0,8.33-6.13,13.33-14,13.33S306.85,93.57,306.85,85.29ZM326,85.14v-.39c0-4.32-1.72-6.72-5.05-6.72s-5.1,2.31-5.1,6.62V85c0,4.41,1.72,6.81,5.1,6.81S326,89.4,326,85.14Z" fill="#fff"/><path d="M337.78,88.86V72.15h8.77V87.44c0,2.89,1.13,4.31,3.63,4.31s4.36-1.56,4.36-4.85V72.15h8.77V97.78h-8.77v-4c-1.37,2.65-3.87,4.56-8.13,4.56C341.46,98.37,337.78,95.33,337.78,88.86Z" fill="#fff"/><path d="M367.77,72.15h8.78v5.1c1.61-3.82,4.31-5.49,8.28-5.44V80c-5.34-.14-8.28,1.52-8.28,5.64V97.78h-8.78Z" fill="#fff"/><path d="M398.11,89.55V78.13H395v-6h3.09V66.81h8.77v5.34h5.05v6h-5.05V88.71c0,1.87.94,2.7,2.6,2.7A6.75,6.75,0,0,0,412,91v6.66a18.12,18.12,0,0,1-4.85.74C401.35,98.37,398.11,95.57,398.11,89.55Z" fill="#fff"/><path d="M413.89,90.67c0-6,5.1-8.37,13.63-8.37H430v-.59c0-2.45-.59-4.07-3.38-4.07a3.14,3.14,0,0,0-3.48,3h-8.24c.39-6.17,5.25-9.21,12.26-9.21s11.56,2.89,11.56,9.7V97.78h-8.53v-3c-1.22,1.86-3.48,3.58-7.59,3.58C418,98.37,413.89,96.11,413.89,90.67ZM430,88.81V87.25h-2.31c-3.52,0-5.09.68-5.09,2.79,0,1.47,1,2.4,3,2.4C428.11,92.44,430,91,430,88.81Z" fill="#fff"/><path d="M449.43,84.75l-8-12.6h10.09l4,6.77,3.88-6.77h9l-8.08,11.91,8.87,13.72h-10.1l-4.56-7.64-4.65,7.64h-9Z" fill="#fff"/><path d="M480.55,72.15h8.77V76a9.05,9.05,0,0,1,8-4.51c6,0,10.83,4.51,10.83,13.28v.39c0,8.82-4.85,13.23-10.88,13.23-3.87,0-6.67-1.82-7.94-4.36v12.34h-8.77Zm18.67,13v-.39c0-4.51-2-6.67-5.05-6.67s-5.09,2.31-5.09,6.62v.39c0,4.36,1.91,6.56,5.09,6.56S499.22,89.35,499.22,85.14Z" fill="#fff"/><path d="M511.33,72.15h8.77v5.1c1.62-3.82,4.31-5.49,8.28-5.44V80c-5.34-.14-8.28,1.52-8.28,5.64V97.78h-8.77Z" fill="#fff"/><path d="M530,85.29v-.4c0-8.23,6.13-13.42,14.07-13.42s14,5,14,13.18V85c0,8.33-6.12,13.33-14,13.33S530,93.57,530,85.29Zm19.11-.15v-.39c0-4.32-1.71-6.72-5-6.72s-5.1,2.31-5.1,6.62V85c0,4.41,1.71,6.81,5.1,6.81S549.06,89.4,549.06,85.14Z" fill="#fff"/><path d="M567.84,72.15H577l3.73,15.34L585,72.15h7.06l3.82,15.34,4.16-15.34h8.34l-8.14,25.63H591.9l-3.82-14.31-4,14.31h-8.53Z" fill="#fff"/><path d="M608.17,85.29v-.4c0-8.23,6.13-13.42,14.07-13.42s14,5,14,13.18V85c0,8.33-6.13,13.33-14,13.33S608.17,93.57,608.17,85.29Zm19.12-.15v-.39c0-4.32-1.72-6.72-5-6.72s-5.1,2.31-5.1,6.62V85c0,4.41,1.72,6.81,5.1,6.81S627.29,89.4,627.29,85.14Z" fill="#fff"/><path d="M639.29,72.15h8.78v4.12a9,9,0,0,1,8.43-4.8c5,0,8.38,3.09,8.38,9.65V97.78h-8.77V82.88c0-2.89-1.13-4.31-3.68-4.31s-4.36,1.57-4.36,4.85V97.78h-8.78Z" fill="#fff"/><path d="M667.43,62.75H676l-1,13.47h-6.57Z" fill="#fff"/><path d="M681.49,89.55V78.13h-3.08v-6h3.08V66.81h8.78v5.34h5v6h-5V88.71c0,1.87.93,2.7,2.59,2.7a6.75,6.75,0,0,0,2.5-.44v6.66a18.05,18.05,0,0,1-4.85.74C684.73,98.37,681.49,95.57,681.49,89.55Z" fill="#fff"/><path d="M707.57,60.89h8.77V82.3l6.91-10.15h9.12L724,83.67l9.06,14.11h-9.8l-6.91-11.22V97.78h-8.77Z" fill="#fff"/><path d="M735.11,72.15h8.77v4.12a9.06,9.06,0,0,1,8.44-4.8c4.95,0,8.38,3.09,8.38,9.65V97.78h-8.78V82.88c0-2.89-1.12-4.31-3.67-4.31s-4.37,1.57-4.37,4.85V97.78h-8.77Z" fill="#fff"/><path d="M763.59,85.29v-.4c0-8.23,6.12-13.42,14.06-13.42s14,5,14,13.18V85c0,8.33-6.12,13.33-14,13.33S763.59,93.57,763.59,85.29Zm19.11-.15v-.39c0-4.32-1.71-6.72-5.05-6.72s-5.09,2.31-5.09,6.62V85c0,4.41,1.71,6.81,5.09,6.81S782.7,89.4,782.7,85.14Z" fill="#fff"/><path d="M791.72,72.15h9.16l3.73,15.34,4.31-15.34H816l3.82,15.34L824,72.15h8.33l-8.13,25.63h-8.39L812,83.47l-4,14.31h-8.53Z" fill="#fff"/><path d="M288.38,146.18l-10.25-23h9.51l5.29,13.67,4.91-13.67h8.38l-13.73,34.2h-8.38Z" fill="#fff"/><path d="M305.73,136.29v-.4c0-8.23,6.12-13.42,14.06-13.42s14,5,14,13.18V136c0,8.33-6.13,13.33-14,13.33S305.73,144.57,305.73,136.29Zm19.11-.15v-.39c0-4.32-1.72-6.72-5-6.72s-5.1,2.31-5.1,6.62V136c0,4.41,1.72,6.81,5.1,6.81S324.84,140.4,324.84,136.14Z" fill="#fff"/><path d="M336.65,139.86V123.15h8.77v15.29c0,2.89,1.13,4.31,3.63,4.31s4.36-1.57,4.36-4.85V123.15h8.78v25.63h-8.78v-4c-1.37,2.65-3.87,4.56-8.13,4.56C340.33,149.37,336.65,146.33,336.65,139.86Z" fill="#fff"/><path d="M366.06,113.75h8.57l-1,13.47H367Z" fill="#fff"/><path d="M378.46,123.15h8.77v5.1c1.62-3.82,4.31-5.49,8.28-5.44V131c-5.34-.14-8.28,1.52-8.28,5.64v12.15h-8.77Z" fill="#fff"/><path d="M397.08,136.29v-.4c0-8.23,6.13-13.42,13.87-13.42,7,0,13,4,13,13.23V138H406c.25,3.38,2.21,5.34,5.35,5.34,2.89,0,4.11-1.32,4.46-3H424c-.78,5.78-5.24,9.07-13,9.07C403,149.37,397.08,144.66,397.08,136.29Zm18.38-3.24c-.15-3.09-1.66-4.8-4.51-4.8-2.64,0-4.46,1.71-4.9,4.8Z" fill="#fff"/><path d="M435.75,116.2a4.84,4.84,0,1,1,4.81,4.5A4.58,4.58,0,0,1,435.75,116.2Zm.44,7H445v25.63h-8.78Z" fill="#fff"/><path d="M449.67,123.15h8.77v4.12a9.05,9.05,0,0,1,8.43-4.8c4.95,0,8.39,3.09,8.39,9.65v16.66h-8.78v-14.9c0-2.89-1.13-4.31-3.67-4.31s-4.37,1.57-4.37,4.85v14.36h-8.77Z" fill="#fff"/><path d="M496.48,146.18l-10.25-23h9.51L501,136.82l4.91-13.67h8.38l-13.73,34.2h-8.38Z" fill="#fff"/><path d="M513.83,136.29v-.4c0-8.23,6.12-13.42,14.06-13.42s14,5,14,13.18V136c0,8.33-6.13,13.33-14,13.33S513.83,144.57,513.83,136.29Zm19.11-.15v-.39c0-4.32-1.72-6.72-5.05-6.72s-5.1,2.31-5.1,6.62V136c0,4.41,1.72,6.81,5.1,6.81S532.94,140.4,532.94,136.14Z" fill="#fff"/><path d="M544.75,139.86V123.15h8.78v15.29c0,2.89,1.12,4.31,3.62,4.31s4.36-1.57,4.36-4.85V123.15h8.78v25.63h-8.78v-4c-1.37,2.65-3.87,4.56-8.13,4.56C548.43,149.37,544.75,146.33,544.75,139.86Z" fill="#fff"/><path d="M574.75,123.15h8.77v5.1c1.62-3.82,4.31-5.49,8.28-5.44V131c-5.34-.14-8.28,1.52-8.28,5.64v12.15h-8.77Z" fill="#fff"/><path d="M603.91,123.15h8.77V127a9.05,9.05,0,0,1,8-4.51c6,0,10.83,4.51,10.83,13.28v.39c0,8.82-4.85,13.23-10.88,13.23-3.87,0-6.66-1.82-7.94-4.36v12.34h-8.77Zm18.67,13v-.39c0-4.51-2-6.67-5.05-6.67s-5.09,2.31-5.09,6.62v.39c0,4.36,1.91,6.57,5.09,6.57S622.58,140.35,622.58,136.14Z" fill="#fff"/><path d="M633.22,141.67c0-6,5.09-8.37,13.62-8.37h2.45v-.59c0-2.45-.59-4.07-3.38-4.07a3.15,3.15,0,0,0-3.48,3H634.2c.39-6.17,5.24-9.21,12.25-9.21s11.57,2.89,11.57,9.7v16.61h-8.53v-3c-1.23,1.86-3.48,3.58-7.6,3.58C637.28,149.37,633.22,147.11,633.22,141.67Zm16.07-1.86v-1.56H647c-3.53,0-5.1.68-5.1,2.79,0,1.47,1,2.4,3,2.4C647.43,143.44,649.29,142,649.29,139.81Z" fill="#fff"/><path d="M659.39,151.42c2.15-.14,3.13-1,3.13-3V123.15h8.73v25.43c0,5.54-2.6,9.21-11.86,9.21Zm2.69-35.22a4.84,4.84,0,1,1,4.81,4.5A4.58,4.58,0,0,1,662.08,116.2Z" fill="#fff"/><path d="M674.53,141.67c0-6,5.1-8.37,13.63-8.37h2.45v-.59c0-2.45-.59-4.07-3.38-4.07a3.14,3.14,0,0,0-3.48,3h-8.24c.39-6.17,5.25-9.21,12.25-9.21s11.57,2.89,11.57,9.7v16.61H690.8v-3c-1.22,1.86-3.48,3.58-7.59,3.58C678.6,149.37,674.53,147.11,674.53,141.67Zm16.08-1.86v-1.56H688.3c-3.52,0-5.09.68-5.09,2.79,0,1.47,1,2.4,3,2.4C688.75,143.44,690.61,142,690.61,139.81Z" fill="#fff"/><path d="M703.59,123.15h8.78v3.92a9,9,0,0,1,8-4.6c3.38,0,5.73,1.47,7,4.26a10.14,10.14,0,0,1,8.47-4.26c4.86,0,8.38,3.13,8.38,9.55v16.76h-8.77V133.49c0-2.59-1.27-3.87-3.28-3.87-2.35,0-3.92,1.52-3.92,4.31v14.85h-8.68V133.49c0-2.59-1.27-3.87-3.28-3.87-2.35,0-3.92,1.52-3.92,4.31v14.85h-8.78Z" fill="#fff"/><path d="M747,141.67c0-6,5.1-8.37,13.62-8.37h2.46v-.59c0-2.45-.59-4.07-3.39-4.07a3.15,3.15,0,0,0-3.48,3H748c.39-6.17,5.24-9.21,12.25-9.21s11.57,2.89,11.57,9.7v16.61h-8.53v-3c-1.22,1.86-3.48,3.58-7.59,3.58C751.09,149.37,747,147.11,747,141.67Zm16.08-1.86v-1.56h-2.31c-3.53,0-5.09.68-5.09,2.79,0,1.47,1,2.4,3,2.4C761.23,143.44,763.1,142,763.1,139.81Z" fill="#fff"/><path d="M774.37,140.65h8.08c.3,1.86,1.13,2.89,3.63,2.89,2.16,0,3.14-.84,3.14-2.11s-1.23-1.81-4.76-2.3c-6.86-.88-9.75-2.89-9.75-8.23,0-5.69,5-8.43,11-8.43,6.32,0,10.73,2.15,11.32,8.28h-7.94c-.34-1.72-1.27-2.55-3.28-2.55s-2.89.83-2.89,2,1.17,1.71,4.31,2.11c7.11.88,10.54,2.74,10.54,8.23,0,6.07-4.51,8.82-11.62,8.82C778.83,149.37,774.56,146.33,774.37,140.65Z" fill="#fff"/><path d="M800.25,144.37a4.89,4.89,0,0,1,5-5,5,5,0,1,1,0,9.9A4.89,4.89,0,0,1,800.25,144.37Z" fill="#fff"/></g></g></svg>