<svg xmlns="http://www.w3.org/2000/svg" viewBox="0 0 300 600"><title>H1</title><g id="Layer_2" data-name="Layer 2"><g id="Rect"><rect width="300" height="600" fill="none"/></g><g id="H1"><g id="Up_to_3_500_today._No_interest._No_loan_fees._Starting_Jan_4." data-name="Up to $3,500 today. No interest. No loan fees. Starting Jan 4."><path d="M21.55,129.45V112.51h8.17v16.58c0,4,1,6,4.47,6s4.46-1.84,4.46-6.1V112.51H46.9v16.82c0,8.29-4.86,12.15-12.71,12.15C26.13,141.48,21.55,137.42,21.55,129.45Z" fill="#fff"/><path d="M50.76,120.16H57.9v3.11a7.34,7.34,0,0,1,6.49-3.67c4.86,0,8.81,3.67,8.81,10.8v.32c0,7.18-4,10.76-8.85,10.76-3.15,0-5.42-1.47-6.45-3.54v10H50.76ZM66,130.72v-.32c0-3.66-1.6-5.42-4.11-5.42s-4.14,1.88-4.14,5.39v.31c0,3.55,1.55,5.34,4.14,5.34S66,134.15,66,130.72Z" fill="#fff"/><path d="M84,134.31V125H81.48v-4.86H84v-4.34h7.13v4.34h4.1V125h-4.1v8.61c0,1.52.76,2.2,2.11,2.2a5.37,5.37,0,0,0,2-.36v5.42a14.91,14.91,0,0,1-3.94.59C86.63,141.48,84,139.21,84,134.31Z" fill="#fff"/><path d="M96.83,130.84v-.32c0-6.69,5-10.92,11.44-10.92s11.35,4.11,11.35,10.73v.31c0,6.78-5,10.84-11.39,10.84S96.83,137.58,96.83,130.84Zm15.54-.12v-.32c0-3.5-1.39-5.46-4.1-5.46s-4.15,1.88-4.15,5.39v.31c0,3.59,1.39,5.54,4.15,5.54S112.37,134.19,112.37,130.72Z" fill="#fff"/><path d="M25.69,169.82c-4-.28-6-2.42-6.13-5.49h4.3a2.19,2.19,0,0,0,1.83,2.19v-3.39c-4-.59-5.76-2-5.76-5.28,0-2.81,2.21-4.83,5.76-5.09v-2.07h1.82v2.09c3.37.28,5.36,1.84,5.64,5H29a1.86,1.86,0,0,0-1.44-1.74v3.21c3.55.51,5.88,1.72,5.88,5.09,0,2.83-1.84,5.2-5.88,5.46v2.9H25.69Zm0-10.83v-3c-1,.18-1.58.74-1.58,1.48S24.44,158.73,25.69,159Zm1.82,4.44v3.09a1.67,1.67,0,0,0,1.55-1.65C29.06,164.1,28.74,163.71,27.51,163.43Z" fill="#fff"/><path d="M34.8,173.49h7.25c.24,2.35,1.36,3.95,4.19,3.95,2.51,0,3.74-1.2,3.74-3.23,0-2.23-1.19-3.35-3.74-3.35H44V165.8h2.11c2.55,0,3.78-1.16,3.78-3.15,0-1.71-1.11-2.83-3.26-2.83s-3.47,1.32-3.79,3.63H35.6C36,157.83,39.7,154,46.8,154c6.69,0,10.72,3.07,10.72,7.81,0,3.19-1.84,5.26-4.83,6.14,3.27.68,5.54,3,5.54,6.46,0,5.42-4,9-11.55,9C38.74,183.33,35,179.67,34.8,173.49Z" fill="#fff"/><path d="M58.91,186.08l3.35-10.48L68.87,178l-5.74,9.77Z" fill="#fff"/><path d="M70.19,173.89H77.6c.28,2,1.08,3.31,3.71,3.31,2.35,0,3.42-1.76,3.42-4,0-2.55-1.39-4.06-3.86-4.06a5.83,5.83,0,0,0-4.71,2H71.3l.6-16.78H91.11v6H77.8l-.16,6.3c1.08-1.56,3.11-3,6.65-3,5.23,0,8.65,3.5,8.65,9.68s-4.34,10-11.55,10C73.81,183.33,70.39,179.23,70.19,173.89Z" fill="#fff"/><path d="M94.93,169.23V168c0-9,5.62-14.07,13.16-14.07s13.15,4.66,13.15,13.91V169c0,9-5.18,14.34-13.31,14.34C100,183.33,94.93,178.19,94.93,169.23Zm18.14-.08V168c0-5.22-1.52-7.85-5-7.85s-5,2.59-5,7.85v1.2c0,5.3,1.56,7.81,5.07,7.81S113.07,174.41,113.07,169.15Z" fill="#fff"/><path d="M123.51,169.23V168c0-9,5.61-14.07,13.15-14.07s13.15,4.66,13.15,13.91V169c0,9-5.18,14.34-13.31,14.34C128.53,183.33,123.51,178.19,123.51,169.23Zm18.13-.08V168c0-5.22-1.51-7.85-5-7.85s-5,2.59-5,7.85v1.2c0,5.3,1.55,7.81,5.06,7.81S141.64,174.41,141.64,169.15Z" fill="#fff"/><path d="M161,176.16v-9.29h-2.51V162H161v-4.34h7.14V162h4.1v4.86h-4.1v8.61c0,1.52.76,2.2,2.11,2.2a5.37,5.37,0,0,0,2-.36v5.42a14.91,14.91,0,0,1-3.94.59C163.59,183.33,161,181.06,161,176.16Z" fill="#fff"/><path d="M173.79,172.69v-.32c0-6.69,5-10.92,11.44-10.92s11.36,4.11,11.36,10.73v.31c0,6.78-5,10.84-11.4,10.84S173.79,179.43,173.79,172.69Zm15.55-.12v-.32c0-3.5-1.4-5.46-4.11-5.46s-4.14,1.88-4.14,5.39v.31c0,3.59,1.39,5.54,4.14,5.54S189.34,176,189.34,172.57Z" fill="#fff"/><path d="M198.06,172.65v-.32c0-7.09,3.91-10.88,8.85-10.88a6.77,6.77,0,0,1,6.42,3.51V152.85h7.13v30h-7.13v-3.39a7,7,0,0,1-6.5,3.86C202,183.33,198.06,179.87,198.06,172.65Zm15.47-.12v-.31c0-3.51-1.48-5.39-4.11-5.39s-4.1,1.8-4.1,5.42v.32c0,3.51,1.55,5.3,4,5.3S213.53,176.08,213.53,172.53Z" fill="#fff"/><path d="M222.89,177.08c0-4.9,4.15-6.82,11.08-6.82h2v-.48c0-2-.48-3.3-2.75-3.3a2.56,2.56,0,0,0-2.83,2.47h-6.69c.32-5,4.26-7.5,10-7.5s9.41,2.36,9.41,7.9v13.51h-6.94v-2.43c-1,1.51-2.83,2.9-6.18,2.9C226.2,183.33,222.89,181.5,222.89,177.08ZM236,175.56v-1.27h-1.87c-2.87,0-4.15.56-4.15,2.27,0,1.19.8,1.95,2.48,1.95C234.45,178.51,236,177.36,236,175.56Z" fill="#fff"/><path d="M252.34,180.74,244,162h7.73l4.31,11.12L260,162h6.82l-11.16,27.82h-6.82Z" fill="#fff"/><path d="M265.33,179.27a4,4,0,0,1,4.07-4,4,4,0,1,1,0,8A4,4,0,0,1,265.33,179.27Z" fill="#fff"/><path d="M21.75,196.21H31l9.12,16.06V196.21h7.14v28.5H39.33l-10.41-17.9v17.9H21.75Z" fill="#fff"/><path d="M50.08,214.54v-.32c0-6.69,5-10.92,11.44-10.92S72.88,207.41,72.88,214v.31c0,6.78-5,10.85-11.4,10.85S50.08,221.28,50.08,214.54Zm15.55-.12v-.32c0-3.5-1.4-5.46-4.11-5.46s-4.14,1.88-4.14,5.39v.31c0,3.59,1.39,5.54,4.14,5.54S65.63,217.89,65.63,214.42Z" fill="#fff"/><path d="M82.48,198.2a3.93,3.93,0,1,1,3.91,3.67A3.72,3.72,0,0,1,82.48,198.2Zm.36,5.66H90v20.85H82.84Z" fill="#fff"/><path d="M93.8,203.86h7.13v3.35a7.37,7.37,0,0,1,6.86-3.91c4,0,6.81,2.51,6.81,7.86v13.55h-7.13V212.59c0-2.35-.92-3.51-3-3.51s-3.55,1.28-3.55,3.95v11.68H93.8Z" fill="#fff"/><path d="M119,218v-9.29h-2.51v-4.86H119v-4.34h7.14v4.34h4.1v4.86h-4.1v8.61c0,1.52.75,2.2,2.11,2.2a5.4,5.4,0,0,0,2-.36v5.42a14.85,14.85,0,0,1-3.94.6C121.65,225.19,119,222.91,119,218Z" fill="#fff"/><path d="M131.85,214.54v-.32c0-6.69,5-10.92,11.28-10.92,5.7,0,10.61,3.27,10.61,10.76v1.88H139.07c.2,2.75,1.79,4.34,4.34,4.34,2.35,0,3.35-1.07,3.63-2.47h6.7c-.64,4.7-4.27,7.38-10.57,7.38C136.64,225.19,131.85,221.36,131.85,214.54Zm15-2.63c-.12-2.51-1.35-3.9-3.67-3.9-2.15,0-3.62,1.39-4,3.9Z" fill="#fff"/><path d="M156.2,203.86h7.14V208a6.56,6.56,0,0,1,6.73-4.43v6.66c-4.34-.12-6.73,1.23-6.73,4.58v9.89H156.2Z" fill="#fff"/><path d="M171.35,214.54v-.32c0-6.69,5-10.92,11.27-10.92,5.7,0,10.61,3.27,10.61,10.76v1.88H178.56c.2,2.75,1.79,4.34,4.34,4.34,2.35,0,3.35-1.07,3.63-2.47h6.7c-.64,4.7-4.27,7.38-10.57,7.38C176.13,225.19,171.35,221.36,171.35,214.54Zm14.94-2.63c-.12-2.51-1.35-3.9-3.67-3.9-2.15,0-3.62,1.39-4,3.9Z" fill="#fff"/><path d="M194.5,218.09h6.57c.24,1.51.92,2.35,3,2.35,1.76,0,2.55-.68,2.55-1.71s-1-1.48-3.86-1.88c-5.58-.71-7.93-2.35-7.93-6.69,0-4.62,4.1-6.86,8.92-6.86,5.15,0,8.73,1.76,9.21,6.74h-6.46a2.32,2.32,0,0,0-2.67-2.07c-1.55,0-2.35.67-2.35,1.63s1,1.4,3.51,1.71c5.78.72,8.57,2.24,8.57,6.7,0,4.94-3.67,7.18-9.45,7.18C198.12,225.19,194.66,222.71,194.5,218.09Z" fill="#fff"/><path d="M216.77,218v-9.29h-2.51v-4.86h2.51v-4.34h7.14v4.34H228v4.86h-4.1v8.61c0,1.52.76,2.2,2.11,2.2a5.37,5.37,0,0,0,2-.36v5.42a14.85,14.85,0,0,1-3.94.6C219.4,225.19,216.77,222.91,216.77,218Z" fill="#fff"/><path d="M230.44,221.12a4,4,0,0,1,4.07-4,4,4,0,1,1,0,8.06A4,4,0,0,1,230.44,221.12Z" fill="#fff"/><path d="M21.75,238.06H31l9.12,16.06V238.06h7.14v28.5H39.33l-10.41-17.9v17.9H21.75Z" fill="#fff"/><path d="M50.08,256.39v-.32c0-6.69,5-10.92,11.44-10.92s11.36,4.11,11.36,10.73v.31c0,6.78-5,10.85-11.4,10.85S50.08,263.13,50.08,256.39Zm15.55-.12V256c0-3.51-1.4-5.47-4.11-5.47s-4.14,1.88-4.14,5.39v.31c0,3.59,1.39,5.54,4.14,5.54S65.63,259.74,65.63,256.27Z" fill="#fff"/><path d="M82.84,236.54h7.09v30H82.84Z" fill="#fff"/><path d="M92.64,256.39v-.32c0-6.69,5-10.92,11.44-10.92s11.36,4.11,11.36,10.73v.31c0,6.78-5,10.85-11.4,10.85S92.64,263.13,92.64,256.39Zm15.55-.12V256c0-3.51-1.4-5.47-4.11-5.47s-4.14,1.88-4.14,5.39v.31c0,3.59,1.39,5.54,4.14,5.54S108.19,259.74,108.19,256.27Z" fill="#fff"/><path d="M116.75,260.78c0-4.9,4.15-6.82,11.08-6.82h2v-.48c0-2-.47-3.3-2.75-3.3a2.56,2.56,0,0,0-2.83,2.47h-6.69c.32-5,4.26-7.5,10-7.5s9.41,2.36,9.41,7.9v13.51H130v-2.43c-1,1.51-2.83,2.91-6.17,2.91C120.06,267,116.75,265.2,116.75,260.78Zm13.07-1.52V258H128c-2.87,0-4.14.56-4.14,2.27,0,1.2.79,1.95,2.47,1.95C128.31,262.21,129.82,261.06,129.82,259.26Z" fill="#fff"/><path d="M140.38,245.71h7.14v3.35a7.35,7.35,0,0,1,6.85-3.91c4,0,6.82,2.52,6.82,7.86v13.55h-7.14V254.44c0-2.35-.91-3.51-3-3.51s-3.54,1.28-3.54,3.95v11.68h-7.14Z" fill="#fff"/><path d="M173,250.57h-2.63v-4.86H173v-1.83c0-5.18,3.23-7.65,8.17-7.65a13.23,13.23,0,0,1,3.27.43v5.23a6.58,6.58,0,0,0-2-.28,2.09,2.09,0,0,0-2.39,2.27v1.83h4.23v4.86h-4.23v16H173Z" fill="#fff"/><path d="M184.85,256.39v-.32c0-6.69,5-10.92,11.28-10.92,5.7,0,10.6,3.27,10.6,10.77v1.87H192.07c.2,2.75,1.79,4.34,4.34,4.34,2.35,0,3.35-1.07,3.63-2.47h6.69c-.63,4.7-4.26,7.38-10.56,7.38C189.64,267,184.85,263.21,184.85,256.39Zm15-2.63c-.12-2.51-1.36-3.9-3.67-3.9-2.15,0-3.62,1.39-4,3.9Z" fill="#fff"/><path d="M208.09,256.39v-.32c0-6.69,5-10.92,11.28-10.92,5.69,0,10.6,3.27,10.6,10.77v1.87H215.3c.2,2.75,1.79,4.34,4.34,4.34,2.36,0,3.35-1.07,3.63-2.47H230c-.64,4.7-4.27,7.38-10.56,7.38C212.87,267,208.09,263.21,208.09,256.39ZM223,253.76c-.12-2.51-1.35-3.9-3.66-3.9-2.16,0-3.63,1.39-4,3.9Z" fill="#fff"/><path d="M231.24,259.94h6.57c.24,1.52.92,2.35,2.95,2.35,1.76,0,2.55-.68,2.55-1.71s-1-1.48-3.86-1.87c-5.58-.72-7.93-2.36-7.93-6.7,0-4.62,4.1-6.86,8.92-6.86,5.15,0,8.73,1.76,9.21,6.74h-6.46a2.32,2.32,0,0,0-2.67-2.07c-1.55,0-2.35.67-2.35,1.63s1,1.4,3.51,1.72c5.78.71,8.57,2.23,8.57,6.69,0,4.94-3.67,7.18-9.45,7.18C234.86,267,231.4,264.56,231.24,259.94Z" fill="#fff"/><path d="M252.28,263a4,4,0,0,1,4.06-4,4,4,0,1,1,0,8.06A4,4,0,0,1,252.28,263Z" fill="#fff"/><path d="M19.92,299.36h7.77c.2,2,1.11,3.71,4.5,3.71,2.35,0,3.67-1.16,3.67-2.83s-1.08-2.24-4.5-2.75c-8.06-1-10.77-3.35-10.77-9.09,0-5.14,4.23-8.89,11-8.89s10.73,2.87,11.24,8.89H35.3c-.28-2-1.43-3.07-3.67-3.07s-3.3,1-3.3,2.43c0,1.6.87,2.31,4.42,2.79,7.21.8,10.92,2.67,10.92,8.85,0,5.22-4.14,9.48-11.48,9.48C24.22,308.88,20.16,305.54,19.92,299.36Z" fill="#fff"/><path d="M47.25,301.71v-9.29H44.74v-4.86h2.51v-4.34h7.14v4.34h4.1v4.86h-4.1V301c0,1.52.76,2.2,2.11,2.2a5.37,5.37,0,0,0,2-.36v5.42a14.91,14.91,0,0,1-3.94.59C49.88,308.88,47.25,306.61,47.25,301.71Z" fill="#fff"/><path d="M60.08,302.63c0-4.9,4.15-6.82,11.08-6.82h2v-.48c0-2-.48-3.3-2.75-3.3a2.55,2.55,0,0,0-2.83,2.47h-6.7c.32-5,4.27-7.5,10-7.5s9.4,2.36,9.4,7.9v13.51H73.32V306c-1,1.51-2.83,2.9-6.18,2.9C63.39,308.88,60.08,307.05,60.08,302.63Zm13.08-1.52v-1.27H71.28c-2.87,0-4.14.56-4.14,2.27,0,1.19.8,1.95,2.47,1.95C71.64,304.06,73.16,302.91,73.16,301.11Z" fill="#fff"/><path d="M83.72,287.56h7.13v4.15a6.58,6.58,0,0,1,6.74-4.43v6.66c-4.35-.12-6.74,1.23-6.74,4.58v9.89H83.72Z" fill="#fff"/><path d="M101.45,301.71v-9.29H98.94v-4.86h2.51v-4.34h7.13v4.34h4.11v4.86h-4.11V301c0,1.52.76,2.2,2.11,2.2a5.46,5.46,0,0,0,2-.36v5.42a15,15,0,0,1-4,.59C104.08,308.88,101.45,306.61,101.45,301.71Z" fill="#fff"/><path d="M115.24,281.9a3.72,3.72,0,0,1,3.9-3.7,3.69,3.69,0,1,1,0,7.37A3.69,3.69,0,0,1,115.24,281.9Zm.35,5.66h7.14v20.85h-7.14Z" fill="#fff"/><path d="M126.55,287.56h7.14v3.35a7.36,7.36,0,0,1,6.85-3.91c4,0,6.82,2.52,6.82,7.86v13.55h-7.14V296.29c0-2.35-.91-3.51-3-3.51s-3.54,1.28-3.54,4v11.68h-7.14Z" fill="#fff"/><path d="M149.67,308.41h7.09c.32,1.51,1.24,2.71,3.83,2.71,3.15,0,4.42-1.8,4.42-4.39v-3.19a7.31,7.31,0,0,1-6.46,3.83c-4.86,0-8.84-3.59-8.84-10v-.32c0-6.14,3.94-10.05,8.84-10.05a6.79,6.79,0,0,1,6.46,3.51v-2.95h7.13v19.09c0,6.22-4.1,9.49-11.55,9.49C153.49,316.14,150.22,313.15,149.67,308.41Zm15.54-11.08v-.28c0-2.87-1.47-4.71-4.11-4.71s-4.1,1.88-4.1,4.75v.32c0,2.87,1.51,4.7,4.06,4.7S165.21,300.28,165.21,297.33Z" fill="#fff"/><path d="M20.32,349.66v-6.1a9.56,9.56,0,0,0,3.46.56c2.23,0,3.71-1,3.71-3.95V321.76H35.7v18.49c0,6.86-3.51,10.37-10.2,10.37A10.91,10.91,0,0,1,20.32,349.66Z" fill="#fff"/><path d="M38,344.48c0-4.9,4.14-6.82,11.08-6.82h2v-.48c0-2-.48-3.3-2.75-3.3a2.56,2.56,0,0,0-2.83,2.47H38.77c.31-5,4.26-7.5,10-7.5s9.41,2.36,9.41,7.9v13.51H51.2v-2.43c-1,1.51-2.83,2.91-6.18,2.91C41.28,350.74,38,348.9,38,344.48ZM51,343v-1.27H49.17c-2.87,0-4.15.56-4.15,2.27,0,1.2.8,2,2.47,2C49.53,345.91,51,344.76,51,343Z" fill="#fff"/><path d="M61.6,329.41h7.13v3.35a7.37,7.37,0,0,1,6.86-3.91c4,0,6.81,2.52,6.81,7.86v13.55H75.27V338.14c0-2.35-.92-3.51-3-3.51s-3.55,1.28-3.55,3.95v11.68H61.6Z" fill="#fff"/><path d="M105.6,344.8H91.73v-3.07l11.87-20h9.85v17.42h3.66v5.62h-3.66v5.46H105.6Zm.19-5.62V327.9l-6.37,11.28Z" fill="#fff"/><path d="M118.86,346.67a4,4,0,0,1,4.07-4,4,4,0,1,1,0,8.06A4,4,0,0,1,118.86,346.67Z" fill="#fff"/></g></g><g id="Legal"><g id="Optional_loan_from_Axos_Bank_within_minutes_of_filing._Not_your" data-name="Optional loan from Axos Bank within minutes of filing. Not your"><path d="M20.5,465v-.08a3.16,3.16,0,1,1,6.31,0v.07a3.16,3.16,0,1,1-6.31,0Zm5.5,0v-.07a2.37,2.37,0,0,0-2.34-2.61,2.34,2.34,0,0,0-2.35,2.62v.08a2.42,2.42,0,0,0,2.37,2.62A2.35,2.35,0,0,0,26,464.92Z" fill="#fff"/><path d="M27.92,463.42h.75v.79a1.94,1.94,0,0,1,1.59-.88,2.14,2.14,0,0,1,2.14,2.37v.07a2.17,2.17,0,0,1-2.14,2.43,1.78,1.78,0,0,1-1.59-.85v2.41h-.75Zm3.71,2.39v-.07c0-1.19-.66-1.78-1.45-1.78s-1.54.57-1.54,1.78v.07c0,1.21.63,1.77,1.55,1.77S31.63,467,31.63,465.81Z" fill="#fff"/><path d="M33.59,466.94V464h-.67v-.62h.67v-1.08h.75v1.08h1.1V464h-1.1v2.83c0,.46.2.69.58.69a1.59,1.59,0,0,0,.58-.1v.63a1.85,1.85,0,0,1-.64.1A1.15,1.15,0,0,1,33.59,466.94Z" fill="#fff"/><path d="M36.37,461.94a.51.51,0,0,1,.5-.5.5.5,0,0,1,.49.5.49.49,0,0,1-.49.49A.5.5,0,0,1,36.37,461.94Zm.14,1.48h.74v4.7h-.74Z" fill="#fff"/><path d="M38.3,465.81v-.07a2.31,2.31,0,1,1,4.62,0v.07a2.31,2.31,0,1,1-4.62,0Zm3.85,0v-.06c0-1.09-.6-1.79-1.54-1.79a1.56,1.56,0,0,0-1.54,1.78v.07a1.55,1.55,0,1,0,3.08,0Z" fill="#fff"/><path d="M44,463.42h.75v.74a1.6,1.6,0,0,1,1.51-.83c1,0,1.66.53,1.66,1.9v2.89h-.75v-2.94c0-.83-.35-1.2-1.11-1.2a1.24,1.24,0,0,0-1.31,1.29v2.85H44Z" fill="#fff"/><path d="M48.81,466.82c0-1.09,1.15-1.46,2.36-1.46h.67V465c0-.75-.29-1.06-1-1.06s-1,.26-1.08.84H49a1.65,1.65,0,0,1,1.86-1.47A1.52,1.52,0,0,1,52.59,465v3.1h-.75v-.59a1.68,1.68,0,0,1-1.46.67C49.5,468.2,48.81,467.78,48.81,466.82Zm3-.34v-.59h-.65c-.94,0-1.63.23-1.63.93,0,.48.23.79.89.79S51.84,467.21,51.84,466.48Z" fill="#fff"/><path d="M53.94,461.16h.75v7h-.75Z" fill="#fff"/><path d="M58.36,461.16h.75v7h-.75Z" fill="#fff"/><path d="M60.16,465.81v-.07a2.32,2.32,0,1,1,4.63,0v.07a2.32,2.32,0,1,1-4.63,0Zm3.85,0v-.06c0-1.09-.6-1.79-1.54-1.79a1.56,1.56,0,0,0-1.54,1.78v.07a1.55,1.55,0,1,0,3.08,0Z" fill="#fff"/><path d="M65.42,466.82c0-1.09,1.15-1.46,2.36-1.46h.68V465c0-.75-.29-1.06-1-1.06s-1,.26-1.08.84h-.75a1.65,1.65,0,0,1,1.86-1.47A1.52,1.52,0,0,1,69.2,465v3.1h-.74v-.59a1.7,1.7,0,0,1-1.47.67C66.12,468.2,65.42,467.78,65.42,466.82Zm3-.34v-.59h-.65c-1,0-1.64.23-1.64.93,0,.48.23.79.89.79S68.46,467.21,68.46,466.48Z" fill="#fff"/><path d="M70.53,463.42h.75v.74a1.63,1.63,0,0,1,1.51-.83c1,0,1.66.53,1.66,1.9v2.89H73.7v-2.94c0-.83-.35-1.2-1.1-1.2a1.24,1.24,0,0,0-1.32,1.29v2.85h-.75Z" fill="#fff"/><path d="M78.19,464h-.67v-.62h.67v-.77c0-.95.47-1.51,1.41-1.51a1.4,1.4,0,0,1,.56.09v.63a1.41,1.41,0,0,0-.54-.1c-.48,0-.68.33-.68.81v.85h1.15V464H78.94v4.08h-.75Z" fill="#fff"/><path d="M81,463.42h.75v.84a1.64,1.64,0,0,1,1.55-.93V464c-1,0-1.55.34-1.55,1.5v2.58H81Z" fill="#fff"/><path d="M83.77,465.81v-.07a2.32,2.32,0,1,1,4.63,0v.07a2.32,2.32,0,1,1-4.63,0Zm3.86,0v-.06c0-1.09-.61-1.79-1.54-1.79s-1.54.7-1.54,1.78v.07c0,1.07.58,1.77,1.54,1.77A1.57,1.57,0,0,0,87.63,465.81Z" fill="#fff"/><path d="M89.43,463.42h.74v.71a1.54,1.54,0,0,1,1.41-.8,1.36,1.36,0,0,1,1.37.89,1.83,1.83,0,0,1,1.62-.89c.84,0,1.58.51,1.58,1.88v2.91H95.4v-3c0-.83-.35-1.17-1-1.17a1.21,1.21,0,0,0-1.24,1.26v2.88h-.75v-3c0-.83-.35-1.17-1-1.17a1.21,1.21,0,0,0-1.25,1.26v2.88h-.74Z" fill="#fff"/><path d="M101.51,461.69h1l2.18,6.43h-.78l-.63-1.85h-2.65l-.62,1.85H99.3Zm-.64,4h2.24L102,462.33Z" fill="#fff"/><path d="M106.84,465.7l-1.57-2.28h.87l1.15,1.7,1.14-1.7h.81l-1.55,2.23,1.72,2.47h-.89l-1.27-1.9-1.29,1.9h-.8Z" fill="#fff"/><path d="M109.7,465.81v-.07a2.32,2.32,0,1,1,4.63,0v.07a2.32,2.32,0,1,1-4.63,0Zm3.86,0v-.06c0-1.09-.61-1.79-1.54-1.79s-1.54.7-1.54,1.78v.07c0,1.07.58,1.77,1.54,1.77A1.57,1.57,0,0,0,113.56,465.81Z" fill="#fff"/><path d="M115,466.67h.73c0,.56.35.91,1.1.91s1-.24,1-.74-.37-.66-1.1-.8c-1.22-.22-1.64-.56-1.64-1.38a1.47,1.47,0,0,1,1.6-1.33,1.51,1.51,0,0,1,1.7,1.36h-.72c-.11-.51-.4-.73-1-.73s-.89.26-.89.67.23.59,1.09.75,1.66.39,1.66,1.39-.58,1.43-1.73,1.43S115,467.64,115,466.67Z" fill="#fff"/><path d="M121.84,461.69h1.94c1.2,0,2.07.39,2.07,1.66v0a1.32,1.32,0,0,1-1,1.36,1.41,1.41,0,0,1,1.28,1.54v0c0,1.22-.82,1.8-2.11,1.8h-2.21Zm1.94,2.81c.94,0,1.3-.35,1.3-1.14v0c0-.72-.42-1-1.32-1h-1.15v2.2Zm.25,3c.94,0,1.37-.41,1.37-1.2v0c0-.79-.44-1.17-1.48-1.17h-1.31v2.4Z" fill="#fff"/><path d="M126.86,466.82c0-1.09,1.16-1.46,2.36-1.46h.68V465c0-.75-.29-1.06-1-1.06s-1,.26-1.08.84h-.75a1.66,1.66,0,0,1,1.87-1.47,1.52,1.52,0,0,1,1.72,1.69v3.1h-.75v-.59a1.7,1.7,0,0,1-1.47.67C127.56,468.2,126.86,467.78,126.86,466.82Zm3-.34v-.59h-.65c-.94,0-1.64.23-1.64.93,0,.48.24.79.89.79C129.3,467.61,129.9,467.21,129.9,466.48Z" fill="#fff"/><path d="M132,463.42h.74v.74a1.63,1.63,0,0,1,1.52-.83c1,0,1.65.53,1.65,1.9v2.89h-.74v-2.94c0-.83-.36-1.2-1.11-1.2a1.24,1.24,0,0,0-1.32,1.29v2.85H132Z" fill="#fff"/><path d="M137.22,461.16H138v4.42l1.95-2.16h.88l-2,2.18,2.19,2.52h-.91L138,465.68v2.44h-.75Z" fill="#fff"/><path d="M143.48,463.42h.81l1.1,3.79,1.14-3.79h.65l1.07,3.79,1.11-3.79h.76l-1.46,4.7h-.83l-1-3.53-1.1,3.53h-.82Z" fill="#fff"/><path d="M150.88,461.94a.5.5,0,0,1,.49-.5.51.51,0,0,1,.5.5.5.5,0,0,1-.5.49A.49.49,0,0,1,150.88,461.94Zm.13,1.48h.75v4.7H151Z" fill="#fff"/><path d="M153.32,466.94V464h-.68v-.62h.68v-1.08h.74v1.08h1.1V464h-1.1v2.83c0,.46.21.69.59.69a1.57,1.57,0,0,0,.57-.1v.63a1.85,1.85,0,0,1-.64.1A1.14,1.14,0,0,1,153.32,466.94Z" fill="#fff"/><path d="M156.21,461.16H157v3a1.63,1.63,0,0,1,1.51-.83c1,0,1.66.53,1.66,1.9v2.89h-.75v-2.94c0-.83-.35-1.2-1.1-1.2a1.24,1.24,0,0,0-1.32,1.29v2.85h-.75Z" fill="#fff"/><path d="M161.34,461.94a.51.51,0,0,1,.5-.5.5.5,0,0,1,.49.5.49.49,0,0,1-.49.49A.5.5,0,0,1,161.34,461.94Zm.14,1.48h.75v4.7h-.75Z" fill="#fff"/><path d="M163.62,463.42h.75v.74a1.61,1.61,0,0,1,1.51-.83c1,0,1.66.53,1.66,1.9v2.89h-.75v-2.94c0-.83-.35-1.2-1.11-1.2a1.24,1.24,0,0,0-1.31,1.29v2.85h-.75Z" fill="#fff"/><path d="M171.12,463.42h.74v.71a1.54,1.54,0,0,1,1.41-.8,1.38,1.38,0,0,1,1.38.89,1.8,1.8,0,0,1,1.61-.89c.84,0,1.58.51,1.58,1.88v2.91h-.75v-3c0-.83-.35-1.17-1-1.17a1.21,1.21,0,0,0-1.25,1.26v2.88h-.74v-3c0-.83-.36-1.17-1-1.17a1.21,1.21,0,0,0-1.25,1.26v2.88h-.74Z" fill="#fff"/><path d="M179.05,461.94a.51.51,0,0,1,.5-.5.5.5,0,0,1,.49.5.49.49,0,0,1-.49.49A.5.5,0,0,1,179.05,461.94Zm.14,1.48h.75v4.7h-.75Z" fill="#fff"/><path d="M181.33,463.42h.75v.74a1.61,1.61,0,0,1,1.51-.83c1,0,1.66.53,1.66,1.9v2.89h-.75v-2.94c0-.83-.35-1.2-1.11-1.2a1.24,1.24,0,0,0-1.31,1.29v2.85h-.75Z" fill="#fff"/><path d="M186.53,466.39v-3h.75v2.94c0,.83.35,1.2,1.09,1.2a1.25,1.25,0,0,0,1.3-1.29v-2.85h.74v4.7h-.74v-.74a1.61,1.61,0,0,1-1.5.82C187.24,468.2,186.53,467.69,186.53,466.39Z" fill="#fff"/><path d="M192,466.94V464h-.67v-.62H192v-1.08h.75v1.08h1.1V464h-1.1v2.83c0,.46.21.69.58.69a1.59,1.59,0,0,0,.58-.1v.63a1.85,1.85,0,0,1-.64.1A1.15,1.15,0,0,1,192,466.94Z" fill="#fff"/><path d="M194.5,465.82v-.07a2.22,2.22,0,0,1,2.2-2.42,2.06,2.06,0,0,1,2.12,2.34v.25h-3.55c0,1.07.55,1.66,1.52,1.66.72,0,1.15-.27,1.25-.82h.74a1.8,1.8,0,0,1-2,1.44A2.21,2.21,0,0,1,194.5,465.82Zm3.55-.51c-.07-1-.57-1.35-1.35-1.35a1.41,1.41,0,0,0-1.4,1.35Z" fill="#fff"/><path d="M199.48,466.67h.73c.06.56.35.91,1.11.91s1-.24,1-.74-.37-.66-1.1-.8c-1.23-.22-1.64-.56-1.64-1.38a1.47,1.47,0,0,1,1.59-1.33,1.52,1.52,0,0,1,1.71,1.36h-.72c-.11-.51-.4-.73-1-.73s-.9.26-.9.67.24.59,1.1.75,1.66.39,1.66,1.39-.59,1.43-1.73,1.43S199.53,467.64,199.48,466.67Z" fill="#fff"/><path d="M206,465.81v-.07a2.31,2.31,0,1,1,4.62,0v.07a2.31,2.31,0,1,1-4.62,0Zm3.85,0v-.06c0-1.09-.6-1.79-1.54-1.79s-1.54.7-1.54,1.78v.07a1.55,1.55,0,1,0,3.08,0Z" fill="#fff"/><path d="M211.77,464h-.68v-.62h.68v-.77c0-.95.47-1.51,1.4-1.51a1.37,1.37,0,0,1,.56.09v.63a1.32,1.32,0,0,0-.53-.1c-.49,0-.68.33-.68.81v.85h1.15V464h-1.15v4.08h-.75Z" fill="#fff"/><path d="M217,464h-.68v-.62H217v-.77c0-.95.47-1.51,1.4-1.51a1.37,1.37,0,0,1,.56.09v.63a1.32,1.32,0,0,0-.53-.1c-.49,0-.68.33-.68.81v.85h1.15V464h-1.15v4.08H217Z" fill="#fff"/><path d="M219.7,461.94a.5.5,0,0,1,.49-.5.51.51,0,0,1,.5.5.5.5,0,0,1-.5.49A.49.49,0,0,1,219.7,461.94Zm.13,1.48h.75v4.7h-.75Z" fill="#fff"/><path d="M222,461.16h.76v7H222Z" fill="#fff"/><path d="M224,461.94a.5.5,0,0,1,.49-.5.51.51,0,0,1,.5.5.5.5,0,0,1-.5.49A.49.49,0,0,1,224,461.94Zm.13,1.48h.75v4.7h-.75Z" fill="#fff"/><path d="M226.3,463.42h.75v.74a1.63,1.63,0,0,1,1.51-.83c1,0,1.66.53,1.66,1.9v2.89h-.75v-2.94c0-.83-.35-1.2-1.1-1.2a1.24,1.24,0,0,0-1.32,1.29v2.85h-.75Z" fill="#fff"/><path d="M231.3,468.39h.76c.11.54.56.82,1.36.82a1.33,1.33,0,0,0,1.52-1.45v-.68a2,2,0,0,1-1.6.89,2.12,2.12,0,0,1-2.14-2.23v-.07a2.23,2.23,0,0,1,2.2-2.34,1.69,1.69,0,0,1,1.54.84v-.75h.74v4.39a2,2,0,0,1-2.25,2C232,469.84,231.42,469.19,231.3,468.39Zm3.66-2.71v-.06a1.45,1.45,0,0,0-1.49-1.66,1.5,1.5,0,0,0-1.5,1.68v.07a1.49,1.49,0,0,0,1.45,1.64A1.51,1.51,0,0,0,235,465.68Z" fill="#fff"/><path d="M237,467.59a.58.58,0,1,1,.57.58A.57.57,0,0,1,237,467.59Z" fill="#fff"/><path d="M20.81,470.69h1L25,476v-5.32h.75v6.43h-.9l-3.25-5.52v5.52h-.75Z" fill="#fff"/><path d="M26.79,474.81v-.07a2.31,2.31,0,1,1,4.62,0v.07a2.31,2.31,0,1,1-4.62,0Zm3.85,0v-.06c0-1.09-.6-1.79-1.54-1.79s-1.54.7-1.54,1.78v.07a1.55,1.55,0,1,0,3.08,0Z" fill="#fff"/><path d="M32.6,475.94V473h-.68v-.62h.68v-1.08h.75v1.08h1.1V473h-1.1v2.83c0,.46.2.69.58.69a1.59,1.59,0,0,0,.58-.1v.63a1.85,1.85,0,0,1-.64.1A1.15,1.15,0,0,1,32.6,475.94Z" fill="#fff"/><path d="M39.06,476.64l-1.84-4.22H38l1.44,3.37,1.3-3.37h.77l-2.6,6.34h-.76Z" fill="#fff"/><path d="M41.89,474.81v-.07a2.32,2.32,0,1,1,4.63,0v.07a2.32,2.32,0,1,1-4.63,0Zm3.85,0v-.06c0-1.09-.6-1.79-1.54-1.79a1.56,1.56,0,0,0-1.54,1.78v.07a1.55,1.55,0,1,0,3.08,0Z" fill="#fff"/><path d="M47.5,475.39v-3h.74v2.94c0,.83.35,1.2,1.09,1.2a1.25,1.25,0,0,0,1.3-1.29v-2.85h.75v4.7h-.75v-.74a1.61,1.61,0,0,1-1.5.82C48.2,477.2,47.5,476.69,47.5,475.39Z" fill="#fff"/><path d="M52.75,472.42h.75v.84a1.64,1.64,0,0,1,1.55-.93V473c-.95,0-1.55.34-1.55,1.5v2.58h-.75Z" fill="#fff"/><path d="M58.41,475.94V473h-.67v-.62h.67v-1.08h.75v1.08h1.1V473h-1.1v2.83c0,.46.21.69.58.69a1.59,1.59,0,0,0,.58-.1v.63a1.85,1.85,0,0,1-.64.1A1.15,1.15,0,0,1,58.41,475.94Z" fill="#fff"/><path d="M61,475.82c0-1.09,1.15-1.46,2.36-1.46H64V474c0-.75-.29-1.06-1-1.06s-1,.26-1.08.84h-.74A1.64,1.64,0,0,1,63,472.33,1.52,1.52,0,0,1,64.75,474v3.1H64v-.59a1.69,1.69,0,0,1-1.47.67C61.66,477.2,61,476.78,61,475.82Zm3-.34v-.59h-.65c-.94,0-1.64.23-1.64.93,0,.48.24.79.9.79S64,476.21,64,475.48Z" fill="#fff"/><path d="M67.26,474.7l-1.58-2.28h.88l1.15,1.7,1.14-1.7h.81l-1.56,2.23,1.72,2.47h-.88l-1.27-1.9-1.29,1.9h-.8Z" fill="#fff"/><path d="M73,472.42h.74v.84a1.66,1.66,0,0,1,1.55-.93V473c-.94,0-1.55.34-1.55,1.5v2.58H73Z" fill="#fff"/><path d="M75.71,474.82v-.07a2.22,2.22,0,0,1,2.21-2.42A2.06,2.06,0,0,1,80,474.67v.25H76.48c0,1.07.55,1.66,1.52,1.66.73,0,1.15-.27,1.25-.82H80a1.8,1.8,0,0,1-2,1.44A2.21,2.21,0,0,1,75.71,474.82Zm3.56-.51c-.08-1-.58-1.35-1.35-1.35a1.41,1.41,0,0,0-1.41,1.35Z" fill="#fff"/><path d="M81.2,473h-.68v-.62h.68v-.77c0-.95.47-1.51,1.4-1.51a1.37,1.37,0,0,1,.56.09v.63a1.32,1.32,0,0,0-.53-.1c-.49,0-.68.33-.68.81v.85H83.1V473H82v4.08H81.2Z" fill="#fff"/><path d="M84,475.39v-3h.75v2.94c0,.83.35,1.2,1.09,1.2a1.24,1.24,0,0,0,1.29-1.29v-2.85h.75v4.7H87.1v-.74a1.59,1.59,0,0,1-1.49.82C84.67,477.2,84,476.69,84,475.39Z" fill="#fff"/><path d="M89.23,472.42H90v.74a1.63,1.63,0,0,1,1.52-.83c1,0,1.65.53,1.65,1.9v2.89H92.4v-2.94c0-.83-.36-1.2-1.11-1.2A1.24,1.24,0,0,0,90,474.27v2.85h-.74Z" fill="#fff"/><path d="M94.12,474.86v-.07a2.24,2.24,0,0,1,2.2-2.46,1.69,1.69,0,0,1,1.54.84v-3h.75v7h-.75v-.81a2,2,0,0,1-1.61.89A2.1,2.1,0,0,1,94.12,474.86Zm3.77-.06v-.07c0-1.21-.58-1.77-1.5-1.77s-1.49.65-1.49,1.79v.08c0,1.19.64,1.75,1.43,1.75S97.89,476,97.89,474.8Z" fill="#fff"/><path d="M99.92,476.59a.58.58,0,1,1,.58.58A.57.57,0,0,1,99.92,476.59Z" fill="#fff"/></g></g></g></svg>