<svg xmlns="http://www.w3.org/2000/svg" viewBox="0 0 300 600"><title>300x600</title><g id="Layer_2" data-name="Layer 2"><g id="Artboard_1" data-name="Artboard 1" style="isolation:isolate"><g id="Rect"><rect width="300" height="600" fill="none"/></g><g id="headline2"><g id="H_R_Block_Free_Online_includes_student_loan_interest_deductio" data-name="H&amp;R Block Free Online includes  student loan interest  deductio"><path d="M20.76,77.38H29V88.3h9.4V77.38h8.2V106H38.4V94.7H29V106H20.76Z" fill="#fff"/><path d="M74.64,100.14,79.4,106H70.08L68.4,103.9a11.44,11.44,0,0,1-7.72,2.56c-6.08,0-10-3.2-10-8.64,0-3.68,2.24-6.4,6.28-8.32a9.12,9.12,0,0,1-1.76-5c0-4.88,4.16-7.48,9.2-7.48C68.92,77,73,79.3,73,83.7c0,3.12-1.84,5.4-5.72,7.08l3.6,4.4L73,91.1h6.23Zm-9.92-.84L60.2,93.86a3.39,3.39,0,0,0-1.92,3.08,3.32,3.32,0,0,0,3.64,3.56A3.75,3.75,0,0,0,64.72,99.3Zm-.88-11.52c1.92-.92,2.84-2,2.84-3.48a2.06,2.06,0,0,0-2.12-2.2,2.28,2.28,0,0,0-2.36,2.48A5.25,5.25,0,0,0,63.84,87.78Z" fill="#fff"/><path d="M82.6,77.38H93.8c7.48,0,11.64,3,11.64,9.08v.16a7.48,7.48,0,0,1-5.16,7.52L107.12,106H98.48l-5.8-10.24H90.76V106H82.6Zm10.8,13c2.76,0,4.12-1.16,4.12-3.48v-.16c0-2.32-1.44-3.24-4.08-3.24H90.76v6.88Z" fill="#fff"/><path d="M118.36,77.38h12.76c6.76,0,9.63,3,9.63,7.48V85a5.89,5.89,0,0,1-4.83,6.16c3.52.6,5.71,2.72,5.71,6.68V98c0,5.12-3.32,8-10.39,8H118.36Zm11.12,11.36c2.56,0,3.52-.88,3.52-2.92v-.16c0-2-1-2.84-3.52-2.84h-3.12v5.92Zm.28,11.76c2.6,0,3.8-1.2,3.8-3.32V97c0-2.16-1.16-3.28-4-3.28h-3.16v6.76Z" fill="#fff"/><path d="M145.08,75.86h7.12V106h-7.12Z" fill="#fff"/><path d="M155.52,95.78v-.32c0-6.72,5-11,11.48-11s11.39,4.12,11.39,10.76v.32c0,6.8-5,10.88-11.43,10.88S155.52,102.54,155.52,95.78Zm15.6-.12v-.32c0-3.52-1.4-5.48-4.12-5.48s-4.16,1.88-4.16,5.4v.32c0,3.6,1.4,5.56,4.16,5.56S171.12,99.14,171.12,95.66Z" fill="#fff"/><path d="M180.4,95.78v-.32c0-7,5-11,11.16-11,5.11,0,9.83,2.24,10.23,8.6h-6.71c-.33-2-1.29-3-3.36-3-2.52,0-4,1.8-4,5.32v.32c0,3.64,1.4,5.52,4.12,5.52a3.48,3.48,0,0,0,3.63-3.48h6.44c-.2,5.28-3.76,8.72-10.51,8.72C185.16,106.46,180.4,102.82,180.4,95.78Z" fill="#fff"/><path d="M204.84,75.86H212V93.34l5.63-8.28h7.44l-6.84,9.4,7.4,11.52h-8L212,96.82V106h-7.16Z" fill="#fff"/><path d="M20.76,119.38H40.08v6.36H29v6.08h8.84v6H29V148H20.76Z" fill="#fff"/><path d="M42.6,127.06h7.16v4.16a6.59,6.59,0,0,1,6.76-4.44v6.68c-4.36-.12-6.76,1.24-6.76,4.6V148H42.6Z" fill="#fff"/><path d="M58.4,137.78v-.32c0-6.72,5-11,11.32-11,5.72,0,10.64,3.28,10.64,10.8v1.88H65.64c.2,2.76,1.8,4.36,4.36,4.36,2.36,0,3.36-1.08,3.64-2.48h6.72c-.64,4.72-4.28,7.4-10.6,7.4C63.2,148.46,58.4,144.62,58.4,137.78Zm15-2.64c-.12-2.52-1.36-3.92-3.68-3.92-2.16,0-3.64,1.4-4,3.92Z" fill="#fff"/><path d="M82.32,137.78v-.32c0-6.72,5-11,11.32-11,5.72,0,10.64,3.28,10.64,10.8v1.88H89.56c.2,2.76,1.8,4.36,4.36,4.36,2.36,0,3.36-1.08,3.64-2.48h6.72c-.64,4.72-4.28,7.4-10.6,7.4C87.12,148.46,82.32,144.62,82.32,137.78Zm15-2.64c-.12-2.52-1.36-3.92-3.68-3.92-2.16,0-3.64,1.4-4,3.92Z" fill="#fff"/><path d="M114.36,133.86v-.32c0-8.72,6.56-14.56,15.12-14.56,8.71,0,15.15,5.48,15.15,14.36v.32c0,8.8-6,14.8-15.27,14.8S114.36,142.46,114.36,133.86Zm21.72-.08v-.32c0-5.08-2.56-8.08-6.6-8.08s-6.56,2.92-6.56,8.12v.32c0,5.2,2.64,8.2,6.6,8.2S136.08,138.9,136.08,133.78Z" fill="#fff"/><path d="M148,127.06h7.16v3.36A7.38,7.38,0,0,1,162,126.5c4,0,6.84,2.52,6.84,7.88V148h-7.16V135.82c0-2.36-.92-3.52-3-3.52s-3.56,1.28-3.56,4V148H148Z" fill="#fff"/><path d="M173.16,117.86h7.12V148h-7.12Z" fill="#fff"/><path d="M184.56,121.38a3.95,3.95,0,1,1,3.92,3.68A3.74,3.74,0,0,1,184.56,121.38Zm.36,5.68h7.16V148h-7.16Z" fill="#fff"/><path d="M196.52,127.06h7.16v3.36a7.38,7.38,0,0,1,6.87-3.92c4,0,6.84,2.52,6.84,7.88V148h-7.15V135.82c0-2.36-.92-3.52-3-3.52s-3.56,1.28-3.56,4V148h-7.16Z" fill="#fff"/><path d="M220.36,137.78v-.32c0-6.72,5-11,11.32-11,5.71,0,10.63,3.28,10.63,10.8v1.88H227.6c.2,2.76,1.8,4.36,4.36,4.36,2.35,0,3.35-1.08,3.63-2.48h6.72c-.64,4.72-4.28,7.4-10.59,7.4C225.16,148.46,220.36,144.62,220.36,137.78Zm15-2.64c-.12-2.52-1.35-3.92-3.67-3.92-2.16,0-3.64,1.4-4,3.92Z" fill="#fff"/><path d="M20,163.38a3.74,3.74,0,0,1,3.92-3.72,3.71,3.71,0,1,1,0,7.4A3.71,3.71,0,0,1,20,163.38Zm.36,5.68h7.16V190H20.32Z" fill="#fff"/><path d="M31.92,169.06h7.16v3.36A7.38,7.38,0,0,1,46,168.5c4,0,6.84,2.52,6.84,7.88V190H45.64V177.82c0-2.36-.92-3.52-3-3.52s-3.56,1.28-3.56,4V190H31.92Z" fill="#fff"/><path d="M55.76,179.78v-.32c0-7,5-11,11.16-11,5.12,0,9.84,2.24,10.24,8.6H70.44c-.32-2-1.28-3-3.36-3-2.52,0-4,1.8-4,5.32v.32c0,3.64,1.4,5.52,4.12,5.52a3.48,3.48,0,0,0,3.64-3.48h6.44c-.2,5.28-3.76,8.72-10.52,8.72C60.52,190.46,55.76,186.82,55.76,179.78Z" fill="#fff"/><path d="M80.4,159.86h7.12V190H80.4Z" fill="#fff"/><path d="M91.8,182.7V169.06H99v12.48c0,2.36.92,3.52,3,3.52s3.56-1.28,3.56-4v-12h7.16V190h-7.16v-3.24c-1.12,2.16-3.16,3.72-6.64,3.72C94.8,190.46,91.8,188,91.8,182.7Z" fill="#fff"/><path d="M115.84,179.74v-.32c0-7.12,3.92-10.92,8.88-10.92a6.78,6.78,0,0,1,6.44,3.52V159.86h7.15V190h-7.15v-3.4a7,7,0,0,1-6.52,3.88C119.8,190.46,115.84,187,115.84,179.74Zm15.52-.12v-.32c0-3.52-1.48-5.4-4.12-5.4s-4.12,1.8-4.12,5.44v.32c0,3.52,1.56,5.32,4,5.32S131.36,183.18,131.36,179.62Z" fill="#fff"/><path d="M141.44,179.78v-.32c0-6.72,5-11,11.32-11,5.72,0,10.63,3.28,10.63,10.8v1.88H148.68c.2,2.76,1.8,4.36,4.36,4.36,2.36,0,3.36-1.08,3.64-2.48h6.71c-.64,4.72-4.27,7.4-10.59,7.4C146.24,190.46,141.44,186.62,141.44,179.78Zm15-2.64c-.12-2.52-1.36-3.92-3.68-3.92-2.16,0-3.64,1.4-4,3.92Z" fill="#fff"/><path d="M165.28,183.34h6.6c.24,1.52.92,2.36,3,2.36,1.76,0,2.56-.68,2.56-1.72s-1-1.48-3.88-1.88c-5.6-.72-8-2.36-8-6.72,0-4.64,4.12-6.88,9-6.88,5.15,0,8.75,1.76,9.23,6.76h-6.47a2.34,2.34,0,0,0-2.68-2.08c-1.56,0-2.36.68-2.36,1.64s1,1.4,3.52,1.72c5.79.72,8.59,2.24,8.59,6.72,0,5-3.68,7.2-9.47,7.2C168.92,190.46,165.44,188,165.28,183.34Z" fill="#fff"/><path d="M18.72,225.34h6.6c.24,1.52.92,2.36,3,2.36,1.76,0,2.56-.68,2.56-1.72s-1-1.48-3.88-1.88c-5.6-.72-8-2.36-8-6.72,0-4.64,4.12-6.88,9-6.88,5.16,0,8.76,1.76,9.24,6.76H30.72A2.34,2.34,0,0,0,28,215.18c-1.56,0-2.36.68-2.36,1.64s1,1.4,3.52,1.72c5.8.72,8.6,2.24,8.6,6.72,0,5-3.68,7.2-9.48,7.2C22.36,232.46,18.88,230,18.72,225.34Z" fill="#fff"/><path d="M41.68,225.26v-9.32H39.16v-4.88h2.52V206.7h7.16v4.36H53v4.88H48.84v8.64a1.91,1.91,0,0,0,2.12,2.2,5.46,5.46,0,0,0,2-.36v5.43a14.56,14.56,0,0,1-4,.61C44.32,232.46,41.68,230.18,41.68,225.26Z" fill="#fff"/><path d="M56.12,224.7V211.06h7.16v12.48c0,2.36.92,3.52,3,3.52s3.56-1.28,3.56-4v-12H77V232H69.8v-3.24c-1.12,2.16-3.16,3.72-6.64,3.72C59.12,232.46,56.12,230,56.12,224.7Z" fill="#fff"/><path d="M80.16,221.74v-.32c0-7.12,3.92-10.92,8.88-10.92A6.78,6.78,0,0,1,95.48,214V201.86h7.16V232H95.48v-3.4A7,7,0,0,1,89,232.46C84.12,232.46,80.16,229,80.16,221.74Zm15.52-.12v-.32c0-3.52-1.48-5.4-4.12-5.4s-4.12,1.8-4.12,5.44v.32c0,3.52,1.56,5.32,4,5.32S95.68,225.18,95.68,221.62Z" fill="#fff"/><path d="M105.76,221.78v-.32c0-6.72,5-11,11.32-11,5.72,0,10.64,3.28,10.64,10.8v1.88H113c.2,2.76,1.8,4.36,4.36,4.36,2.36,0,3.36-1.08,3.64-2.48h6.72c-.64,4.72-4.28,7.4-10.6,7.4C110.56,232.46,105.76,228.62,105.76,221.78Zm15-2.64c-.12-2.52-1.36-3.92-3.68-3.92-2.16,0-3.64,1.4-4,3.92Z" fill="#fff"/><path d="M130.8,211.06H138v3.36a7.38,7.38,0,0,1,6.88-3.92c4,0,6.83,2.52,6.83,7.88V232h-7.15V219.82c0-2.36-.92-3.52-3-3.52s-3.56,1.28-3.56,4V232H130.8Z" fill="#fff"/><path d="M156.72,225.26v-9.32H154.2v-4.88h2.52V206.7h7.16v4.36H168v4.88h-4.12v8.64a1.91,1.91,0,0,0,2.12,2.2,5.46,5.46,0,0,0,2-.36v5.43a14.56,14.56,0,0,1-4,.61C159.36,232.46,156.72,230.18,156.72,225.26Z" fill="#fff"/><path d="M179.4,201.86h7.12V232H179.4Z" fill="#fff"/><path d="M189.84,221.78v-.32c0-6.72,5-11,11.48-11s11.39,4.12,11.39,10.76v.32c0,6.8-5,10.88-11.43,10.88S189.84,228.54,189.84,221.78Zm15.59-.12v-.32c0-3.52-1.39-5.48-4.11-5.48s-4.16,1.88-4.16,5.4v.32c0,3.6,1.4,5.56,4.16,5.56S205.43,225.14,205.43,221.66Z" fill="#fff"/><path d="M214.64,226.18c0-4.92,4.16-6.84,11.11-6.84h2v-.48c0-2-.48-3.32-2.75-3.32a2.57,2.57,0,0,0-2.84,2.48h-6.72c.32-5,4.28-7.52,10-7.52s9.43,2.36,9.43,7.92V232h-7v-2.44c-1,1.52-2.84,2.92-6.2,2.92C218,232.46,214.64,230.62,214.64,226.18Zm13.11-1.52v-1.28h-1.87c-2.88,0-4.16.56-4.16,2.28,0,1.2.8,2,2.48,2C226.24,227.62,227.75,226.46,227.75,224.66Z" fill="#fff"/><path d="M239,211.06h7.16v3.36A7.37,7.37,0,0,1,253,210.5c4,0,6.84,2.52,6.84,7.88V232h-7.16V219.82c0-2.36-.92-3.52-3-3.52s-3.55,1.28-3.55,4V232H239Z" fill="#fff"/><path d="M20,247.38a3.74,3.74,0,0,1,3.92-3.72,3.71,3.71,0,1,1,0,7.4A3.71,3.71,0,0,1,20,247.38Zm.36,5.68h7.16V274H20.32Z" fill="#fff"/><path d="M31.92,253.06h7.16v3.36A7.38,7.38,0,0,1,46,252.5c4,0,6.84,2.52,6.84,7.88V274H45.64V261.82c0-2.36-.92-3.52-3-3.52s-3.56,1.28-3.56,4V274H31.92Z" fill="#fff"/><path d="M57.84,267.26v-9.32H55.32v-4.88h2.52V248.7H65v4.36h4.12v4.88H65v8.64a1.91,1.91,0,0,0,2.12,2.2,5.46,5.46,0,0,0,2-.36v5.43a14.56,14.56,0,0,1-4,.61C60.48,274.46,57.84,272.18,57.84,267.26Z" fill="#fff"/><path d="M71.32,263.78v-.32c0-6.72,5-11,11.32-11,5.72,0,10.64,3.28,10.64,10.8v1.88H78.56c.2,2.76,1.8,4.36,4.36,4.36,2.36,0,3.36-1.08,3.64-2.48h6.72c-.64,4.72-4.28,7.4-10.6,7.4C76.12,274.46,71.32,270.62,71.32,263.78Zm15-2.64c-.12-2.52-1.36-3.92-3.68-3.92-2.16,0-3.64,1.4-4,3.92Z" fill="#fff"/><path d="M96.36,253.06h7.16v4.16a6.59,6.59,0,0,1,6.76-4.44v6.68c-4.36-.12-6.76,1.24-6.76,4.6V274H96.36Z" fill="#fff"/><path d="M112.16,263.78v-.32c0-6.72,5-11,11.32-11,5.72,0,10.64,3.28,10.64,10.8v1.88H119.4c.2,2.76,1.8,4.36,4.36,4.36,2.36,0,3.36-1.08,3.64-2.48h6.72c-.64,4.72-4.28,7.4-10.6,7.4C117,274.46,112.16,270.62,112.16,263.78Zm15-2.64c-.12-2.52-1.36-3.92-3.68-3.92-2.16,0-3.64,1.4-4,3.92Z" fill="#fff"/><path d="M136,267.34h6.6c.24,1.52.92,2.36,3,2.36,1.76,0,2.56-.68,2.56-1.72s-1-1.48-3.88-1.88c-5.6-.72-8-2.36-8-6.72,0-4.64,4.12-6.88,9-6.88,5.16,0,8.76,1.76,9.24,6.76H148a2.34,2.34,0,0,0-2.68-2.08c-1.56,0-2.36.68-2.36,1.64s1,1.4,3.52,1.72c5.8.72,8.6,2.24,8.6,6.72,0,5-3.68,7.2-9.48,7.2C139.64,274.46,136.16,272,136,267.34Z" fill="#fff"/><path d="M159,267.26v-9.32h-2.52v-4.88H159V248.7h7.16v4.36h4.12v4.88h-4.12v8.64a1.91,1.91,0,0,0,2.12,2.2,5.46,5.46,0,0,0,2-.36v5.43a14.56,14.56,0,0,1-4,.61C161.6,274.46,159,272.18,159,267.26Z" fill="#fff"/><path d="M19.08,305.74v-.32c0-7.12,3.92-10.92,8.88-10.92A6.78,6.78,0,0,1,34.4,298V285.86h7.16V316H34.4v-3.39a7,7,0,0,1-6.52,3.88C23,316.46,19.08,313,19.08,305.74Zm15.52-.12v-.32c0-3.52-1.48-5.4-4.12-5.4s-4.12,1.8-4.12,5.44v.32c0,3.52,1.56,5.32,4,5.32S34.6,309.18,34.6,305.62Z" fill="#fff"/><path d="M44.68,305.78v-.32c0-6.72,5-11,11.32-11,5.72,0,10.64,3.28,10.64,10.8v1.88H51.92c.2,2.76,1.8,4.36,4.36,4.36,2.36,0,3.36-1.08,3.64-2.48h6.72c-.64,4.72-4.28,7.4-10.6,7.4C49.48,316.46,44.68,312.62,44.68,305.78Zm15-2.64c-.12-2.52-1.36-3.92-3.68-3.92-2.16,0-3.64,1.4-4,3.92Z" fill="#fff"/><path d="M68.68,305.74v-.32c0-7.12,3.92-10.92,8.88-10.92A6.78,6.78,0,0,1,84,298V285.86h7.16V316H84v-3.39a7,7,0,0,1-6.52,3.88C72.64,316.46,68.68,313,68.68,305.74Zm15.52-.12v-.32c0-3.52-1.48-5.4-4.12-5.4S76,301.7,76,305.34v.32c0,3.52,1.56,5.32,4,5.32S84.2,309.18,84.2,305.62Z" fill="#fff"/><path d="M95.24,308.7V295.06h7.16v12.48c0,2.36.92,3.52,3,3.52s3.56-1.28,3.56-4v-12h7.16V316h-7.16v-3.23c-1.12,2.16-3.16,3.72-6.64,3.72C98.24,316.46,95.24,314,95.24,308.7Z" fill="#fff"/><path d="M119.2,305.78v-.32c0-7,5-11,11.16-11,5.12,0,9.84,2.24,10.24,8.6h-6.72c-.32-2-1.28-3-3.36-3-2.52,0-4,1.8-4,5.32v.32c0,3.64,1.4,5.52,4.12,5.52a3.48,3.48,0,0,0,3.64-3.48h6.44c-.2,5.28-3.76,8.72-10.52,8.72C124,316.46,119.2,312.82,119.2,305.78Z" fill="#fff"/><path d="M144.6,309.26v-9.32h-2.52v-4.88h2.52V290.7h7.16v4.36h4.12v4.88h-4.12v8.64a1.91,1.91,0,0,0,2.12,2.2,5.46,5.46,0,0,0,2-.36v5.44a15.45,15.45,0,0,1-4,.6C147.24,316.46,144.6,314.18,144.6,309.26Z" fill="#fff"/><path d="M159,289.38a3.95,3.95,0,1,1,3.92,3.68A3.74,3.74,0,0,1,159,289.38Zm.36,5.68h7.16V316H159.4Z" fill="#fff"/><path d="M169.88,305.78v-.32c0-6.72,5-11,11.48-11s11.39,4.12,11.39,10.76v.32c0,6.8-5,10.88-11.43,10.88S169.88,312.54,169.88,305.78Zm15.6-.12v-.32c0-3.52-1.4-5.48-4.12-5.48s-4.16,1.88-4.16,5.4v.32c0,3.6,1.4,5.56,4.16,5.56S185.48,309.14,185.48,305.66Z" fill="#fff"/><path d="M195.88,295.06H203v3.36a7.38,7.38,0,0,1,6.88-3.92c4,0,6.83,2.52,6.83,7.88V316H209.6V303.82c0-2.36-.92-3.52-3-3.52s-3.56,1.28-3.56,4V316h-7.16Z" fill="#fff"/><path d="M219.12,319.21l3.32-10.51,6.64,2.36-5.72,9.79Zm2.48-18.27a4,4,0,0,1,4.08-4,4,4,0,1,1,0,8.08A4,4,0,0,1,221.6,300.94Z" fill="#fff"/><path d="M26.24,335.7h-7.4v-6.32h23v6.32h-7.4V358H26.24Z" fill="#fff"/><path d="M43.12,350.7V337.06h7.16v12.48c0,2.36.92,3.52,3,3.52s3.56-1.28,3.56-4v-12H64V358H56.8v-3.23c-1.12,2.16-3.16,3.72-6.64,3.72C46.12,358.46,43.12,356,43.12,350.7Z" fill="#fff"/><path d="M68.2,337.06h7.16v4.16a6.59,6.59,0,0,1,6.76-4.44v6.68c-4.36-.12-6.76,1.24-6.76,4.6V358H68.2Z" fill="#fff"/><path d="M92.48,354.74V358H85.32V327.86h7.16v12.32A7.38,7.38,0,0,1,99,336.5c4.88,0,8.84,3.68,8.84,10.84v.32c0,7.2-4,10.8-8.88,10.8A6.78,6.78,0,0,1,92.48,354.74Zm8.08-7.08v-.32c0-3.68-1.6-5.44-4.12-5.44s-4.16,1.88-4.16,5.4v.32c0,3.56,1.56,5.36,4.16,5.36S100.56,351.1,100.56,347.66Z" fill="#fff"/><path d="M109.92,347.78v-.32c0-6.72,5-11,11.48-11s11.4,4.12,11.4,10.76v.32c0,6.8-5,10.88-11.44,10.88S109.92,354.54,109.92,347.78Zm15.6-.12v-.32c0-3.52-1.4-5.48-4.12-5.48s-4.16,1.88-4.16,5.4v.32c0,3.6,1.4,5.56,4.16,5.56S125.52,351.14,125.52,347.66Z" fill="#fff"/><path d="M142,335.7h-7.4v-6.32h23v6.32h-7.39V358H142Z" fill="#fff"/><path d="M156.84,352.18c0-4.92,4.16-6.84,11.12-6.84h2v-.48c0-2-.48-3.32-2.76-3.32a2.57,2.57,0,0,0-2.84,2.48h-6.72c.32-5,4.28-7.52,10-7.52s9.44,2.36,9.44,7.92V358h-7v-2.43c-1,1.52-2.84,2.92-6.2,2.92C160.16,358.46,156.84,356.62,156.84,352.18ZM170,350.66v-1.28h-1.88c-2.88,0-4.16.56-4.16,2.28,0,1.2.8,2,2.48,2C168.44,353.62,170,352.46,170,350.66Z" fill="#fff"/><path d="M186.44,347.34l-6.52-10.28h8.24l3.24,5.52,3.16-5.52h7.36l-6.6,9.72L202.55,358h-8.23l-3.72-6.23L186.8,358h-7.32Z" fill="#fff"/><path d="M19.08,389.74v-.32c0-7.12,3.92-10.92,8.88-10.92A6.78,6.78,0,0,1,34.4,382V369.86h7.16V400H34.4v-3.39a7,7,0,0,1-6.52,3.88C23,400.46,19.08,397,19.08,389.74Zm15.52-.12v-.32c0-3.52-1.48-5.4-4.12-5.4s-4.12,1.8-4.12,5.44v.32c0,3.52,1.56,5.32,4,5.32S34.6,393.18,34.6,389.62Z" fill="#fff"/><path d="M44.68,389.78v-.32c0-6.72,5-11,11.48-11s11.4,4.12,11.4,10.76v.32c0,6.8-5,10.88-11.44,10.88S44.68,396.54,44.68,389.78Zm15.6-.12v-.32c0-3.52-1.4-5.48-4.12-5.48S52,385.74,52,389.26v.32c0,3.6,1.4,5.56,4.16,5.56S60.28,393.14,60.28,389.66Z" fill="#fff"/><path d="M69.56,389.78v-.32c0-6.72,5-11,11.32-11,5.72,0,10.64,3.28,10.64,10.8v1.88H76.8c.2,2.76,1.8,4.36,4.36,4.36,2.36,0,3.36-1.08,3.64-2.48h6.72c-.64,4.72-4.28,7.4-10.6,7.4C74.36,400.46,69.56,396.62,69.56,389.78Zm15-2.64c-.12-2.52-1.36-3.92-3.68-3.92-2.16,0-3.64,1.4-4,3.92Z" fill="#fff"/><path d="M93.4,393.34H100c.24,1.52.92,2.36,3,2.36,1.76,0,2.56-.68,2.56-1.72s-1-1.48-3.88-1.88c-5.6-.72-8-2.36-8-6.72,0-4.64,4.12-6.88,9-6.88,5.16,0,8.76,1.76,9.24,6.76H105.4a2.34,2.34,0,0,0-2.68-2.08c-1.56,0-2.36.68-2.36,1.64s1,1.4,3.52,1.72c5.8.72,8.6,2.24,8.6,6.72,0,5-3.68,7.2-9.48,7.2C97,400.46,93.56,398,93.4,393.34Z" fill="#fff"/><path d="M115.4,379.06h7.16v3.36a7.38,7.38,0,0,1,6.88-3.92c4,0,6.83,2.52,6.83,7.88V400h-7.15V387.82c0-2.36-.92-3.52-3-3.52s-3.56,1.28-3.56,4V400H115.4Z" fill="#fff"/><path d="M139.12,381.3l3.2-10.44,6.32,2.12-5.48,9.88Z" fill="#fff"/><path d="M152,393.26v-9.32h-2.52v-4.88H152V374.7h7.16v4.36h4.12v4.88H159.2v8.64a1.91,1.91,0,0,0,2.12,2.2,5.46,5.46,0,0,0,2-.36v5.44a15.45,15.45,0,0,1-4,.6C154.68,400.46,152,398.18,152,393.26Z" fill="#fff"/><path d="M166.36,396.38a4,4,0,0,1,4.08-4,4,4,0,1,1,0,8.08A4,4,0,0,1,166.36,396.38Z" fill="#fff"/></g></g></g></g></svg>