<svg xmlns="http://www.w3.org/2000/svg" viewBox="0 0 300 600"><title>H67</title><g id="Layer_2" data-name="Layer 2"><g id="Rect"><rect width="300" height="600" fill="none"/></g><g id="H67"><g id="File_for_nada_zip_zero._Free_Federal._Free_State." data-name="File for nada, zip, zero. Free Federal. Free State."><path d="M21.44,91.79H45.51v7.93H31.7v7.57h11v7.53h-11v12.6H21.44Z" fill="#fff"/><path d="M48.05,94.28a4.65,4.65,0,0,1,4.88-4.63,4.62,4.62,0,1,1,0,9.22A4.62,4.62,0,0,1,48.05,94.28Zm.45,7.08h8.92v26.06H48.5Z" fill="#fff"/><path d="M62.45,89.9h8.87v37.52H62.45Z" fill="#fff"/><path d="M74.71,114.72v-.4c0-8.38,6.23-13.66,14.1-13.66,7.13,0,13.26,4.09,13.26,13.46v2.34H83.73c.25,3.44,2.24,5.43,5.43,5.43,2.94,0,4.19-1.34,4.54-3.09h8.37c-.8,5.88-5.33,9.22-13.21,9.22C80.69,128,74.71,123.24,74.71,114.72Zm18.69-3.29c-.15-3.14-1.7-4.89-4.59-4.89-2.69,0-4.53,1.75-5,4.89Z" fill="#fff"/><path d="M115.57,107.44h-3.29v-6.08h3.29V99.07c0-6.48,4-9.57,10.22-9.57a15.93,15.93,0,0,1,4.09.55v6.53a8.22,8.22,0,0,0-2.45-.35c-2.09,0-3,1.14-3,2.84v2.29h5.29v6.08h-5.29v20h-8.87Z" fill="#fff"/><path d="M130.42,114.72v-.4c0-8.38,6.23-13.66,14.31-13.66s14.2,5.14,14.2,13.41v.4c0,8.47-6.23,13.55-14.25,13.55S130.42,123.14,130.42,114.72Zm19.44-.15v-.4c0-4.39-1.75-6.83-5.13-6.83s-5.19,2.34-5.19,6.73v.4c0,4.48,1.75,6.92,5.19,6.92S149.86,118.9,149.86,114.57Z" fill="#fff"/><path d="M162.07,101.36H171v5.18c1.64-3.88,4.38-5.58,8.42-5.53v8.32c-5.43-.15-8.42,1.55-8.42,5.73v12.36h-8.92Z" fill="#fff"/><path d="M20.64,159.53h8.92v4.18a9.21,9.21,0,0,1,8.57-4.88c5,0,8.53,3.14,8.53,9.82v16.94H37.73V170.44c0-2.94-1.14-4.38-3.73-4.38s-4.44,1.59-4.44,4.93v14.6H20.64Z" fill="#fff"/><path d="M49.49,178.36c0-6.13,5.19-8.52,13.86-8.52h2.49v-.6c0-2.49-.6-4.13-3.44-4.13a3.2,3.2,0,0,0-3.54,3.09H50.49c.4-6.28,5.33-9.37,12.46-9.37s11.76,2.94,11.76,9.87v16.89H66v-3c-1.25,1.89-3.54,3.64-7.72,3.64C53.63,186.19,49.49,183.9,49.49,178.36Zm16.35-1.89v-1.59H63.5c-3.59,0-5.18.69-5.18,2.84,0,1.49,1,2.44,3.08,2.44C64,180.16,65.84,178.71,65.84,176.47Z" fill="#fff"/><path d="M77.75,172.83v-.4c0-8.87,4.88-13.6,11.06-13.6,4.09,0,6.53,1.74,8,4.38V148.06h8.92v37.53H96.84v-4.24a8.78,8.78,0,0,1-8.13,4.84C82.68,186.19,77.75,181.85,77.75,172.83Zm19.34-.15v-.4c0-4.38-1.85-6.72-5.14-6.72s-5.13,2.24-5.13,6.77v.4c0,4.39,1.94,6.63,5,6.63C95.09,179.36,97.09,177.12,97.09,172.68Z" fill="#fff"/><path d="M108.8,178.36c0-6.13,5.18-8.52,13.85-8.52h2.49v-.6c0-2.49-.6-4.13-3.44-4.13a3.2,3.2,0,0,0-3.54,3.09h-8.37c.4-6.28,5.33-9.37,12.46-9.37S134,161.77,134,168.7v16.89h-8.67v-3c-1.25,1.89-3.54,3.64-7.72,3.64C112.93,186.19,108.8,183.9,108.8,178.36Zm16.34-1.89v-1.59H122.8c-3.59,0-5.18.69-5.18,2.84,0,1.49,1,2.44,3.09,2.44C123.25,180.16,125.14,178.71,125.14,176.47Z" fill="#fff"/><path d="M136.5,189.63l4.19-13.11,8.27,2.94-7.18,12.21Z" fill="#fff"/><path d="M159.77,184.69l11.42-18.44H161v-6.72h23v.94l-11.71,18.39h11.12v6.73H159.77Z" fill="#fff"/><path d="M186.29,152.45a4.92,4.92,0,1,1,4.88,4.59A4.65,4.65,0,0,1,186.29,152.45Zm.44,7.08h8.92v26.06h-8.92Z" fill="#fff"/><path d="M200.44,159.53h8.92v3.88a9.18,9.18,0,0,1,8.12-4.58c6.08,0,11,4.58,11,13.5v.4c0,9-4.94,13.46-11.07,13.46-3.94,0-6.78-1.85-8.07-4.44v12.56h-8.92Zm19,13.2v-.4c0-4.58-2-6.77-5.13-6.77s-5.18,2.34-5.18,6.72v.4c0,4.44,1.94,6.68,5.18,6.68S219.42,177,219.42,172.73Z" fill="#fff"/><path d="M229.24,189.63l4.19-13.11,8.27,2.94-7.18,12.21Z" fill="#fff"/><path d="M18.5,242.86l11.41-18.44H19.69v-6.73h23v.95L31,237H42.07v6.73H18.5Z" fill="#fff"/><path d="M43.42,231.05v-.4c0-8.37,6.22-13.65,14.1-13.65,7.13,0,13.25,4.08,13.25,13.45v2.34H52.44c.24,3.44,2.24,5.44,5.43,5.44,2.94,0,4.18-1.35,4.53-3.09h8.37c-.79,5.88-5.33,9.22-13.2,9.22C49.4,244.36,43.42,239.57,43.42,231.05Zm18.68-3.29c-.15-3.14-1.69-4.88-4.58-4.88-2.69,0-4.54,1.74-5,4.88Z" fill="#fff"/><path d="M73.86,217.69h8.92v5.19c1.65-3.89,4.39-5.59,8.43-5.54v8.33c-5.44-.15-8.43,1.54-8.43,5.73v12.36H73.86Z" fill="#fff"/><path d="M92.8,231.05v-.4C92.8,222.28,99,217,107.1,217s14.21,5.13,14.21,13.4v.4c0,8.47-6.23,13.56-14.26,13.56S92.8,239.47,92.8,231.05Zm19.44-.15v-.4c0-4.38-1.75-6.83-5.14-6.83s-5.18,2.35-5.18,6.73v.4c0,4.49,1.74,6.93,5.18,6.93S112.24,235.24,112.24,230.9Z" fill="#fff"/><path d="M123,239.27a5,5,0,0,1,5.08-5,5,5,0,1,1,0,10.07A5,5,0,0,1,123,239.27Z" fill="#fff"/><path d="M147.37,208.12h24.07v7.93H157.63v7.57h11v7.53h-11v12.61H147.37Z" fill="#fff"/><path d="M173.83,217.69h8.92v5.19c1.64-3.89,4.38-5.59,8.42-5.54v8.33c-5.43-.15-8.42,1.54-8.42,5.73v12.36h-8.92Z" fill="#fff"/><path d="M192.76,231.05v-.4c0-8.37,6.23-13.65,14.11-13.65,7.13,0,13.25,4.08,13.25,13.45v2.34H201.79c.24,3.44,2.24,5.44,5.43,5.44,2.94,0,4.18-1.35,4.53-3.09h8.37c-.79,5.88-5.33,9.22-13.2,9.22C198.75,244.36,192.76,239.57,192.76,231.05Zm18.69-3.29c-.15-3.14-1.69-4.88-4.58-4.88-2.69,0-4.54,1.74-5,4.88Z" fill="#fff"/><path d="M221.82,231.05v-.4c0-8.37,6.23-13.65,14.1-13.65,7.13,0,13.26,4.08,13.26,13.45v2.34H230.84c.25,3.44,2.24,5.44,5.43,5.44,2.94,0,4.19-1.35,4.53-3.09h8.38c-.8,5.88-5.34,9.22-13.21,9.22C227.8,244.36,221.82,239.57,221.82,231.05Zm18.69-3.29c-.15-3.14-1.7-4.88-4.59-4.88-2.69,0-4.53,1.74-5,4.88Z" fill="#fff"/><path d="M21.44,266.29H45.51v7.93H31.7v7.57h11v7.53h-11v12.6H21.44Z" fill="#fff"/><path d="M46.21,289.22v-.4c0-8.38,6.23-13.66,14.1-13.66,7.13,0,13.26,4.09,13.26,13.46V291H55.23c.25,3.44,2.24,5.43,5.43,5.43,2.94,0,4.18-1.34,4.53-3.09h8.38c-.8,5.88-5.34,9.22-13.21,9.22C52.19,302.52,46.21,297.74,46.21,289.22Zm18.68-3.29c-.15-3.14-1.69-4.89-4.58-4.89-2.69,0-4.54,1.75-5,4.89Z" fill="#fff"/><path d="M75.36,289.17v-.4c0-8.87,4.88-13.61,11.06-13.61,4.09,0,6.53,1.75,8,4.39V264.4h8.93v37.52H94.44v-4.23a8.77,8.77,0,0,1-8.12,4.83C80.29,302.52,75.36,298.19,75.36,289.17ZM94.69,289v-.4c0-4.39-1.84-6.73-5.13-6.73s-5.13,2.24-5.13,6.78v.4c0,4.38,1.94,6.62,5,6.62C92.7,295.69,94.69,293.45,94.69,289Z" fill="#fff"/><path d="M106.5,289.22v-.4c0-8.38,6.23-13.66,14.11-13.66,7.12,0,13.25,4.09,13.25,13.46V291H115.52c.25,3.44,2.25,5.43,5.44,5.43,2.94,0,4.18-1.34,4.53-3.09h8.37c-.79,5.88-5.33,9.22-13.2,9.22C112.48,302.52,106.5,297.74,106.5,289.22Zm18.69-3.29c-.15-3.14-1.69-4.89-4.58-4.89-2.69,0-4.54,1.75-5,4.89Z" fill="#fff"/><path d="M137,275.86h8.92V281c1.65-3.88,4.39-5.58,8.42-5.53v8.32c-5.43-.15-8.42,1.55-8.42,5.73v12.36H137Z" fill="#fff"/><path d="M155.44,294.7c0-6.13,5.18-8.52,13.85-8.52h2.5v-.6c0-2.49-.6-4.14-3.44-4.14a3.21,3.21,0,0,0-3.54,3.09h-8.37c.39-6.28,5.33-9.37,12.45-9.37s11.77,2.94,11.77,9.87v16.89H172v-3c-1.24,1.9-3.53,3.64-7.72,3.64C159.58,302.52,155.44,300.23,155.44,294.7Zm16.35-1.9v-1.59h-2.35c-3.58,0-5.18.7-5.18,2.84,0,1.49,1,2.44,3.09,2.44C169.89,296.49,171.79,295.05,171.79,292.8Z" fill="#fff"/><path d="M185.24,264.4h8.87v37.52h-8.87Z" fill="#fff"/><path d="M198.54,297.44a5,5,0,0,1,5.09-5,5,5,0,1,1,0,10.06A5,5,0,0,1,198.54,297.44Z" fill="#fff"/><path d="M21.44,324.46H45.51v7.92H31.7V340h11v7.52h-11v12.61H21.44Z" fill="#fff"/><path d="M47.9,334h8.92v5.18c1.64-3.89,4.39-5.58,8.42-5.53V342c-5.43-.15-8.42,1.54-8.42,5.73v12.36H47.9Z" fill="#fff"/><path d="M66.84,347.38V347c0-8.37,6.23-13.65,14.1-13.65,7.13,0,13.26,4.09,13.26,13.45v2.35H75.86c.25,3.44,2.24,5.43,5.43,5.43,2.94,0,4.19-1.35,4.53-3.09H94.2c-.8,5.88-5.34,9.22-13.21,9.22C72.82,360.69,66.84,355.9,66.84,347.38Zm18.68-3.29c-.14-3.14-1.69-4.88-4.58-4.88-2.69,0-4.53,1.74-5,4.88Z" fill="#fff"/><path d="M95.89,347.38V347c0-8.37,6.23-13.65,14.1-13.65,7.13,0,13.26,4.09,13.26,13.45v2.35H104.91c.25,3.44,2.24,5.43,5.43,5.43,2.94,0,4.19-1.35,4.54-3.09h8.37c-.8,5.88-5.33,9.22-13.21,9.22C101.87,360.69,95.89,355.9,95.89,347.38Zm18.69-3.29c-.15-3.14-1.7-4.88-4.59-4.88-2.69,0-4.53,1.74-5,4.88Z" fill="#fff"/><path d="M133.91,348.78h9.72c.25,2.54,1.39,4.63,5.63,4.63,2.94,0,4.59-1.44,4.59-3.54s-1.35-2.79-5.64-3.43c-10.06-1.2-13.45-4.19-13.45-11.37,0-6.43,5.28-11.11,13.8-11.11s13.41,3.59,14.06,11.11h-9.47c-.35-2.54-1.8-3.83-4.59-3.83s-4.13,1.24-4.13,3c0,2,1.09,2.89,5.53,3.48,9,1,13.65,3.34,13.65,11.07,0,6.53-5.18,11.86-14.35,11.86C139.29,360.69,134.21,356.5,133.91,348.78Z" fill="#fff"/><path d="M168.1,351.72V340.11H165V334h3.14v-5.44H177V334h5.13v6.08H177v10.76c0,1.89.94,2.74,2.64,2.74a6.8,6.8,0,0,0,2.54-.45v6.78a18.68,18.68,0,0,1-4.93.75C171.39,360.69,168.1,357.85,168.1,351.72Z" fill="#fff"/><path d="M184.14,352.86c0-6.13,5.19-8.52,13.86-8.52h2.49v-.59c0-2.5-.6-4.14-3.44-4.14a3.2,3.2,0,0,0-3.54,3.09h-8.37c.4-6.28,5.33-9.37,12.46-9.37s11.76,2.94,11.76,9.87v16.89h-8.67v-3c-1.25,1.89-3.54,3.64-7.73,3.64C188.28,360.69,184.14,358.4,184.14,352.86ZM200.49,351v-1.59h-2.34c-3.59,0-5.19.69-5.19,2.84,0,1.49,1,2.44,3.09,2.44C198.59,354.66,200.49,353.21,200.49,351Z" fill="#fff"/><path d="M214.74,351.72V340.11H211.6V334h3.14v-5.44h8.92V334h5.13v6.08h-5.13v10.76c0,1.89,1,2.74,2.64,2.74a6.73,6.73,0,0,0,2.54-.45v6.78a18.61,18.61,0,0,1-4.93.75C218,360.69,214.74,357.85,214.74,351.72Z" fill="#fff"/><path d="M230.79,347.38V347c0-8.37,6.22-13.65,14.1-13.65,7.13,0,13.26,4.09,13.26,13.45v2.35H239.81c.24,3.44,2.24,5.43,5.43,5.43,2.94,0,4.18-1.35,4.53-3.09h8.38c-.8,5.88-5.34,9.22-13.21,9.22C236.77,360.69,230.79,355.9,230.79,347.38Zm18.68-3.29c-.15-3.14-1.69-4.88-4.58-4.88-2.69,0-4.54,1.74-5,4.88Z" fill="#fff"/><path d="M260.64,355.61a5,5,0,0,1,5.08-5,5,5,0,1,1,0,10.07A5,5,0,0,1,260.64,355.61Z" fill="#fff"/></g></g></g></svg>