<?xml version="1.0" encoding="utf-8"?>
<!-- Generator: Adobe Illustrator 23.1.1, SVG Export Plug-In . SVG Version: 6.00 Build 0)  -->
<svg version="1.1" id="Layer_1" xmlns="http://www.w3.org/2000/svg" xmlns:xlink="http://www.w3.org/1999/xlink" x="0px" y="0px"
	 viewBox="0 0 320 1200" style="enable-background:new 0 0 320 1200;" xml:space="preserve">
<style type="text/css">
	.st0{fill:#FFFFFF;}
	.st1{fill:none;}
</style>
<title>160x600</title>
<g>
	<g id="Optional_loan_from_Axos_Bank_could_be_within_minutes_of_filing">
		<path class="st0" d="M41,781.6v-0.1c-0.2-3.5,2.5-6.5,6-6.7s6.5,2.5,6.7,6c0,0.2,0,0.5,0,0.7v0.1c0.2,3.5-2.5,6.5-6,6.7
			s-6.5-2.5-6.7-6C41,782,41,781.8,41,781.6z M52,781.6v-0.1c0.3-2.6-1.6-4.9-4.2-5.2s-4.9,1.6-5.2,4.2c0,0.4,0,0.7,0,1.1v0.1
			c-0.2,2.7,1.8,5,4.4,5.2c0.1,0,0.2,0,0.3,0c2.6,0,4.7-2.1,4.7-4.7C52,781.9,52,781.7,52,781.6L52,781.6z"/>
		<path class="st0" d="M55.8,778.5h1.5v1.5c0.7-1.1,1.9-1.7,3.2-1.7c2.4,0,4.3,1.9,4.3,4.3c0,0.2,0,0.3,0,0.5v0.1
			c0.3,2.4-1.4,4.5-3.8,4.8c-0.2,0-0.3,0-0.5,0c-1.3,0-2.5-0.6-3.2-1.7v4.8h-1.5V778.5z M63.3,783.3v-0.1c0-2.4-1.3-3.6-2.9-3.6
			s-3.1,1.2-3.1,3.6v0.1c0,2.4,1.3,3.6,3.1,3.6S63.3,785.6,63.3,783.3z"/>
		<path class="st0" d="M67.2,785.6v-5.8h-1.3v-1.3h1.3v-2.1h1.5v2.1h2.2v1.3h-2.2v5.7c0,0.9,0.4,1.4,1.2,1.4c0.4,0,0.8-0.1,1.2-0.2
			v1.3c-0.4,0.1-0.8,0.2-1.3,0.2c-1.3,0.1-2.4-0.7-2.5-2C67.2,785.9,67.2,785.7,67.2,785.6z"/>
		<path class="st0" d="M72.7,775.5c0-0.5,0.5-1,1-1c0.5,0,1,0.4,1,1c0,0.5-0.4,1-1,1C73.2,776.5,72.8,776.1,72.7,775.5z M73,778.5
			h1.5v9.5H73V778.5z"/>
		<path class="st0" d="M76.6,783.3v-0.1c0-2.6,2.1-4.6,4.6-4.6c2.6,0,4.6,2.1,4.6,4.6c0,0,0,0,0,0v0.1c0,2.6-2.1,4.6-4.6,4.6
			C78.7,787.9,76.6,785.8,76.6,783.3C76.6,783.3,76.6,783.3,76.6,783.3z M84.3,783.3v-0.1c0-2.2-1.2-3.6-3.1-3.6
			c-1.7,0-3.1,1.4-3.1,3.1c0,0.1,0,0.3,0,0.4v0.1c0,2.1,1.2,3.6,3.1,3.6S84.3,785.4,84.3,783.3z"/>
		<path class="st0" d="M88,778.5h1.5v1.5c0.6-1.1,1.8-1.7,3-1.7c2,0,3.3,1.1,3.3,3.8v5.9h-1.5v-6c0-1.7-0.7-2.4-2.2-2.4
			c-1.4-0.1-2.5,0.9-2.6,2.3c0,0.1,0,0.2,0,0.3v5.8H88V778.5z"/>
		<path class="st0" d="M97.6,785.3c0-2.2,2.3-2.9,4.7-2.9h1.3v-0.7c0-1.5-0.6-2.1-2-2.1s-2,0.5-2.2,1.7H98c0.2-1.8,1.8-3.1,3.6-2.9
			c0,0,0.1,0,0.1,0c1.7-0.2,3.2,0.9,3.4,2.6c0,0.3,0,0.5,0,0.8v6.3h-1.5v-1.2c-0.7,0.9-1.8,1.4-2.9,1.4
			C99,788,97.6,787.2,97.6,785.3z M103.6,784.6v-1.2h-1.3c-1.9,0-3.3,0.5-3.3,1.9c0,1,0.5,1.6,1.8,1.6S103.7,786,103.6,784.6
			L103.6,784.6z"/>
		<path class="st0" d="M107.9,774h1.5v14h-1.5V774z"/>
		<path class="st0" d="M116.7,774h1.5v14h-1.5V774z"/>
		<path class="st0" d="M120.3,783.3v-0.1c-0.2-2.6,1.8-4.8,4.3-4.9c2.6-0.2,4.8,1.8,4.9,4.3c0,0.2,0,0.4,0,0.6v0.1
			c0.2,2.6-1.8,4.8-4.3,4.9c-2.6,0.2-4.8-1.8-4.9-4.3C120.3,783.7,120.3,783.5,120.3,783.3z M128,783.3v-0.1c0-2.2-1.2-3.6-3.1-3.6
			c-1.7,0-3.1,1.4-3.1,3.1c0,0.1,0,0.3,0,0.4v0.1c0,2.1,1.2,3.6,3.1,3.6S128,785.4,128,783.3L128,783.3z"/>
		<path class="st0" d="M130.8,785.3c0-2.2,2.3-2.9,4.7-2.9h1.4v-0.7c0-1.5-0.6-2.1-2-2.1s-2,0.5-2.2,1.7h-1.5
			c0.2-1.8,1.8-3.1,3.6-2.9c0,0,0.1,0,0.1,0c1.7-0.2,3.2,0.9,3.4,2.6c0,0.3,0,0.5,0,0.8v6.3h-1.5v-1.2c-0.7,0.9-1.8,1.3-2.9,1.2
			C132.2,788,130.8,787.2,130.8,785.3z M136.8,784.6v-1.2h-1.3c-2,0-3.3,0.5-3.3,1.9c0,1,0.5,1.6,1.8,1.6S136.9,786,136.8,784.6
			L136.8,784.6z"/>
		<path class="st0" d="M141.1,778.5h1.5v1.5c0.6-1.1,1.8-1.7,3-1.7c2,0,3.3,1.1,3.3,3.8v5.9h-1.5v-6c0-1.7-0.7-2.4-2.2-2.4
			c-1.4-0.1-2.5,0.9-2.6,2.3c0,0.1,0,0.2,0,0.2v5.8h-1.5V778.5z"/>
		<path class="st0" d="M156.4,779.8H155v-1.3h1.3V777c0-2,0.9-3,2.8-3c0.4,0,0.8,0.1,1.1,0.2v1.3c-0.3-0.1-0.7-0.2-1.1-0.2
			c-1,0-1.4,0.7-1.4,1.6v1.7h2.3v1.3h-2.3v8.2h-1.5V779.8z"/>
		<path class="st0" d="M162,778.5h1.5v1.7c0.6-1.2,1.8-1.9,3.1-1.8v1.4c-2,0.1-3.1,0.7-3.1,3v5.3H162V778.5z"/>
		<path class="st0" d="M167.5,783.3v-0.1c-0.2-2.6,1.8-4.8,4.3-4.9c2.6-0.2,4.8,1.8,4.9,4.3c0,0.2,0,0.4,0,0.6v0.1
			c0.2,2.6-1.8,4.8-4.3,4.9c-2.6,0.2-4.8-1.8-4.9-4.3C167.5,783.7,167.5,783.5,167.5,783.3z M175.3,783.3v-0.1
			c0-2.2-1.2-3.6-3.1-3.6s-3.1,1.4-3.1,3.6v0.1c0,2.1,1.2,3.6,3.1,3.6c1.7,0,3.1-1.4,3.1-3.2C175.3,783.5,175.3,783.4,175.3,783.3z"
			/>
		<path class="st0" d="M178.8,778.5h1.5v1.5c0.6-1,1.7-1.6,2.8-1.6c1.2-0.1,2.3,0.6,2.7,1.8c0.7-1.1,1.9-1.8,3.2-1.8
			c1.7,0,3.2,1,3.2,3.7v5.9h-1.5v-6c0-1.7-0.7-2.3-2-2.3c-1.3,0-2.4,1-2.5,2.3c0,0.1,0,0.1,0,0.2v5.8h-1.5v-6c0-1.7-0.7-2.3-2-2.3
			c-1.3-0.1-2.4,1-2.5,2.3c0,0.1,0,0.2,0,0.2v5.8h-1.5L178.8,778.5z"/>
		<path class="st0" d="M203,775h2l4.4,12.9h-1.6l-1.3-3.7h-5.3L200,788h-1.4L203,775z M201.7,783h4.5l-2.2-6.7L201.7,783z"/>
		<path class="st0" d="M213.7,783.1l-3.2-4.6h1.8l2.3,3.4l2.3-3.4h1.6l-3.1,4.5l3.4,5H217l-2.5-3.8L212,788h-1.6L213.7,783.1z"/>
		<path class="st0" d="M219.4,783.3v-0.1c-0.2-2.6,1.8-4.8,4.3-4.9c2.6-0.2,4.8,1.8,4.9,4.3c0,0.2,0,0.4,0,0.6v0.1
			c0.2,2.6-1.8,4.8-4.3,4.9c-2.6,0.2-4.8-1.8-4.9-4.3C219.4,783.7,219.4,783.5,219.4,783.3z M227.1,783.3v-0.1
			c0-2.2-1.2-3.6-3.1-3.6s-3.1,1.4-3.1,3.6v0.1c0,2.1,1.2,3.6,3.1,3.6S227.1,785.4,227.1,783.3z"/>
		<path class="st0" d="M230,785h1.5c0,1.1,0.7,1.8,2.2,1.8s2-0.5,2-1.5s-0.7-1.3-2.2-1.6c-2.4-0.5-3.3-1.1-3.3-2.8
			c0.2-1.6,1.6-2.8,3.2-2.6c1.7-0.2,3.2,0.9,3.4,2.6c0,0,0,0.1,0,0.1h-1.4c-0.2-1-0.8-1.5-2-1.5s-1.8,0.5-1.8,1.3s0.5,1.2,2.2,1.5
			s3.3,0.8,3.3,2.8c0,1.7-1.2,2.9-3.5,2.9S230,786.9,230,785z"/>
		<path class="st0" d="M41.6,793h3.9c2.4,0,4.1,0.8,4.1,3.3l0,0c0.1,1.3-0.8,2.4-2,2.7c1.6,0.1,2.7,1.5,2.6,3.1c0,0,0,0,0,0l0,0
			c0,2.4-1.7,3.6-4.2,3.6h-4.4V793z M45.5,798.7c1.9,0,2.6-0.7,2.6-2.3l0,0c0-1.5-0.8-2-2.6-2h-2.3v4.4L45.5,798.7z M46,804.7
			c1.9,0,2.7-0.8,2.7-2.4l0,0c0-1.6-0.9-2.3-3-2.3h-2.6v4.8L46,804.7z"/>
		<path class="st0" d="M51.7,803.3c0-2.2,2.3-2.9,4.7-2.9h1.4v-0.7c0-1.5-0.6-2.1-2-2.1s-2,0.5-2.2,1.7H52c0.2-1.8,1.8-3.1,3.6-2.9
			c0,0,0.1,0,0.1,0c1.7-0.2,3.2,0.9,3.4,2.6c0,0.3,0,0.5,0,0.8v6.3h-1.5v-1.2c-0.7,0.9-1.8,1.4-2.9,1.4
			C53.1,806,51.7,805.2,51.7,803.3z M57.7,802.6v-1.2h-1.3c-1.9,0-3.3,0.5-3.3,1.9c0,1,0.5,1.6,1.8,1.6S57.7,804,57.7,802.6
			L57.7,802.6z"/>
		<path class="st0" d="M61.9,796.5h1.5v1.5c0.6-1.1,1.8-1.7,3-1.7c2,0,3.3,1.1,3.3,3.8v5.9h-1.5v-6c0-1.7-0.7-2.4-2.2-2.4
			c-1.4-0.1-2.5,0.9-2.6,2.3c0,0.1,0,0.2,0,0.2v5.8h-1.5L61.9,796.5z"/>
		<path class="st0" d="M72.4,792h1.5v8.8l4-4.3h1.8l-4,4.4l4.2,5.1H78l-4.2-4.9v4.9h-1.5L72.4,792z"/>
		<path class="st0" d="M80.3,794.7c0-1.3,1-2.4,2.3-2.4s2.4,1,2.4,2.3c0,1.3-1,2.4-2.3,2.4c0,0,0,0-0.1,0
			C81.3,797,80.3,795.9,80.3,794.7z M84.5,794.7c0-1.1-0.9-2-2-2s-2,0.9-2,2s0.9,2,2,2c1,0.1,1.9-0.7,2-1.8
			C84.5,794.8,84.5,794.7,84.5,794.7L84.5,794.7z M81.8,793.5h0.8c0.5,0,0.9,0.2,0.9,0.7l0,0c0,0.3-0.2,0.6-0.5,0.6l0.6,1h-0.5
			l-0.5-0.9h-0.2v0.9h-0.5V793.5z M82.6,794.5c0.3,0,0.4-0.1,0.4-0.3l0,0c0-0.2-0.1-0.3-0.4-0.3h-0.3v0.7L82.6,794.5z"/>
		<path class="st0" d="M90.4,801.3v-0.1c-0.1-2.5,1.8-4.7,4.3-4.8c0.1,0,0.2,0,0.3,0c2-0.2,3.8,1.3,4,3.3h-1.5
			c-0.2-1.3-1.3-2.2-2.6-2c-1.8,0.1-3.1,1.7-2.9,3.4c0,0,0,0.1,0,0.1v0.1c0,2.3,1.3,3.5,3.1,3.5c1.4,0.1,2.6-0.9,2.7-2.3h1.4
			c-0.2,2-2,3.6-4,3.6c-2.5,0.1-4.6-1.8-4.7-4.2C90.4,801.7,90.4,801.5,90.4,801.3z"/>
		<path class="st0" d="M100.4,801.3v-0.1c-0.2-2.6,1.8-4.8,4.3-4.9c2.6-0.2,4.8,1.8,4.9,4.3c0,0.2,0,0.4,0,0.6v0.1
			c0.2,2.6-1.8,4.8-4.3,4.9c-2.6,0.2-4.8-1.8-4.9-4.3C100.4,801.7,100.4,801.5,100.4,801.3z M108.1,801.3v-0.1
			c0-2.2-1.2-3.6-3.1-3.6s-3.1,1.4-3.1,3.6v0.1c0,2.1,1.2,3.6,3.1,3.6S108.1,803.4,108.1,801.3z"/>
		<path class="st0" d="M111.6,802.5v-6h1.5v5.9c0,1.7,0.7,2.4,2.2,2.4c1.4,0.1,2.6-0.9,2.7-2.3c0-0.1,0-0.2,0-0.3v-5.7h1.5v9.5H118
			v-1.5c-0.6,1.1-1.7,1.7-3,1.7C113,806,111.6,805,111.6,802.5z"/>
		<path class="st0" d="M122.2,792h1.5v14h-1.5V792z"/>
		<path class="st0" d="M125.8,801.4v-0.2c-0.2-2.5,1.5-4.6,4-4.9c0.1,0,0.3,0,0.4,0c1.3-0.1,2.4,0.6,3.1,1.7v-6h1.5v14h-1.5v-1.6
			c-0.8,1-2,1.6-3.3,1.6c-2.3,0-4.2-1.8-4.2-4.2C125.8,801.7,125.8,801.5,125.8,801.4z M133.3,801.3v-0.1c0-2.4-1.2-3.5-3-3.5
			s-3,1.3-3,3.6v0.1c0,2.4,1.3,3.5,2.9,3.5S133.3,803.7,133.3,801.3z"/>
		<path class="st0" d="M143.5,804.4v1.6H142v-14h1.5v6c0.7-1.1,1.9-1.7,3.2-1.7c2.4,0,4.3,1.9,4.3,4.2c0,0.2,0,0.3,0,0.5v0.1
			c0.3,2.4-1.4,4.6-3.8,4.8c-0.2,0-0.3,0-0.5,0C145.4,806.1,144.2,805.4,143.5,804.4z M149.5,801.3v-0.1c0-2.4-1.3-3.6-2.9-3.6
			s-3.1,1.2-3.1,3.6v0.1c0,2.4,1.3,3.6,3.1,3.6S149.4,803.6,149.5,801.3L149.5,801.3z"/>
		<path class="st0" d="M152.3,801.3v-0.1c-0.2-2.4,1.6-4.6,4-4.8c0.1,0,0.3,0,0.4,0c2.3-0.1,4.2,1.7,4.3,4c0,0.2,0,0.5,0,0.7v0.5
			h-7.1c0,2.1,1.1,3.3,3,3.3c1.4,0,2.3-0.5,2.5-1.6h1.5c-0.4,1.9-2.1,3.1-4,2.9c-2.4,0.1-4.5-1.8-4.6-4.3
			C152.3,801.6,152.3,801.5,152.3,801.3z M159.4,800.3c-0.1-2-1.1-2.7-2.7-2.7c-1.5,0-2.7,1.2-2.8,2.7H159.4z"/>
		<path class="st0" d="M166.5,796.5h1.5l2.2,7.6l2.3-7.6h1.3l2.2,7.5l2.2-7.6h1.5l-2.9,9.6h-1.7l-2-7.1L171,806h-1.6L166.5,796.5z"
			/>
		<path class="st0" d="M181.3,793.5c0-0.5,0.5-1,1-1c0.5,0,1,0.4,1,1c0,0.5-0.4,1-1,1C181.7,794.5,181.3,794.1,181.3,793.5z
			 M181.5,796.5h1.5v9.5h-1.5V796.5z"/>
		<path class="st0" d="M186.1,803.6v-5.8h-1.4v-1.3h1.4v-2.1h1.5v2.1h2.2v1.3h-2.2v5.7c0,0.9,0.4,1.4,1.2,1.4c0.4,0,0.8-0.1,1.2-0.2
			v1.3c-0.4,0.1-0.8,0.2-1.3,0.2c-1.3,0.1-2.4-0.7-2.5-2C186.1,803.9,186.1,803.7,186.1,803.6z"/>
		<path class="st0" d="M192,792h1.5v6c0.6-1.1,1.8-1.7,3-1.7c2,0,3.3,1.1,3.3,3.8v5.9h-1.5v-6c0-1.7-0.7-2.4-2.2-2.4
			c-1.4-0.1-2.5,0.9-2.6,2.3c0,0.1,0,0.2,0,0.2v5.8H192V792z"/>
		<path class="st0" d="M202.2,793.5c0-0.5,0.4-1,1-1c0.5,0,1,0.4,1,1c0,0.5-0.5,1-1,1C202.6,794.5,202.2,794.1,202.2,793.5z
			 M202.5,796.5h1.5v9.5h-1.5L202.5,796.5z"/>
		<path class="st0" d="M206.7,796.5h1.5v1.5c0.6-1.1,1.8-1.7,3-1.7c2,0,3.3,1.1,3.3,3.8v5.9h-1.5v-6c0-1.7-0.7-2.4-2.2-2.4
			c-1.4-0.1-2.5,0.9-2.6,2.3c0,0.1,0,0.2,0,0.2v5.8h-1.5L206.7,796.5z"/>
		<path class="st0" d="M41.5,814.5H43v1.5c0.6-1,1.7-1.6,2.8-1.6c1.2-0.1,2.3,0.6,2.8,1.8c0.7-1.1,1.9-1.8,3.2-1.8
			c1.7,0,3.2,1,3.2,3.7v5.9h-1.5v-6c0-1.7-0.7-2.3-2-2.3c-1.3,0-2.4,1-2.5,2.3c0,0.1,0,0.1,0,0.2v5.8h-1.5v-6c0-1.7-0.7-2.3-2-2.3
			c-1.3-0.1-2.4,1-2.5,2.3c0,0.1,0,0.2,0,0.2v5.8h-1.5V814.5z"/>
		<path class="st0" d="M57.4,811.5c0-0.5,0.5-1,1-1c0.5,0,1,0.4,1,1c0,0.5-0.4,1-1,1C57.8,812.5,57.4,812.1,57.4,811.5z M57.7,814.5
			h1.5v9.5h-1.5V814.5z"/>
		<path class="st0" d="M62,814.5h1.5v1.5c0.6-1.1,1.8-1.7,3-1.7c2,0,3.3,1.1,3.3,3.8v5.9h-1.5v-6c0-1.7-0.7-2.4-2.2-2.4
			c-1.4-0.1-2.5,0.9-2.6,2.3c0,0.1,0,0.2,0,0.3v5.8H62V814.5z"/>
		<path class="st0" d="M72.3,820.5v-6h1.5v5.9c0,1.7,0.7,2.4,2.2,2.4c1.4,0.1,2.5-1,2.6-2.4c0-0.1,0-0.2,0-0.2v-5.7h1.5v9.5h-1.5
			v-1.5c-0.6,1.1-1.8,1.7-3,1.7C73.8,824,72.3,823,72.3,820.5z"/>
		<path class="st0" d="M83.2,821.6v-5.8h-1.3v-1.3h1.3v-2.1h1.5v2.1h2.2v1.3h-2.2v5.7c0,0.9,0.4,1.4,1.2,1.4c0.4,0,0.8-0.1,1.2-0.2
			v1.3c-0.4,0.1-0.8,0.2-1.3,0.2c-1.3,0.1-2.4-0.7-2.5-2C83.2,821.9,83.2,821.7,83.2,821.6z"/>
		<path class="st0" d="M88.3,819.3v-0.1c-0.2-2.4,1.6-4.6,4-4.8c0.1,0,0.3,0,0.4,0c2.3-0.1,4.2,1.7,4.3,4c0,0.2,0,0.5,0,0.7v0.5
			h-7.1c0,2.1,1.1,3.3,3,3.3c1.5,0,2.3-0.5,2.5-1.6h1.5c-0.4,1.9-2.1,3.1-4,2.9c-2.4,0.1-4.5-1.8-4.6-4.3
			C88.3,819.6,88.3,819.5,88.3,819.3z M95.4,818.3c-0.1-2-1.1-2.7-2.7-2.7c-1.5,0-2.7,1.2-2.8,2.7H95.4z"/>
		<path class="st0" d="M98.2,821h1.5c0.1,1.1,0.7,1.8,2.2,1.8s2-0.5,2-1.5s-0.7-1.3-2.2-1.6c-2.5-0.5-3.3-1.1-3.3-2.8
			c0.1-1.6,1.6-2.8,3.2-2.6c0,0,0,0,0,0c1.6-0.2,3.2,0.9,3.4,2.6c0,0.1,0,0.1,0,0.2h-1.4c-0.2-1-0.8-1.5-2-1.5s-1.8,0.5-1.8,1.3
			s0.5,1.2,2.2,1.5s3.3,0.8,3.3,2.8c0,1.7-1.2,2.9-3.5,2.9S98.3,822.9,98.2,821z"/>
		<path class="st0" d="M111.2,819.3v-0.1c-0.2-2.6,1.8-4.8,4.3-4.9c2.6-0.2,4.8,1.8,4.9,4.3c0,0.2,0,0.4,0,0.6v0.1
			c0.2,2.6-1.8,4.8-4.3,4.9c-2.6,0.2-4.8-1.8-4.9-4.3C111.2,819.7,111.2,819.5,111.2,819.3z M118.9,819.3v-0.1
			c0-2.2-1.2-3.6-3.1-3.6s-3.1,1.4-3.1,3.6v0.1c0,2.1,1.2,3.6,3.1,3.6c1.7,0,3.1-1.4,3.1-3.2C118.9,819.5,118.9,819.4,118.9,819.3z"
			/>
		<path class="st0" d="M122.8,815.8h-1.4v-1.3h1.4V813c0-2,0.9-3,2.8-3c0.4,0,0.8,0.1,1.1,0.2v1.3c-0.3-0.1-0.7-0.2-1.1-0.2
			c-1,0-1.4,0.7-1.4,1.6v1.7h2.3v1.3h-2.3v8.2h-1.5V815.8z"/>
		<path class="st0" d="M133.3,815.8H132v-1.3h1.4V813c0-2,0.9-3,2.8-3c0.4,0,0.8,0.1,1.1,0.2v1.3c-0.3-0.1-0.7-0.2-1.1-0.2
			c-1,0-1.4,0.7-1.4,1.6v1.7h2.3v1.3h-2.4v8.2h-1.5V815.8z"/>
		<path class="st0" d="M138.7,811.5c0-0.5,0.4-1,1-1c0.5,0,1,0.4,1,1c0,0.5-0.5,1-1,1C139.1,812.5,138.7,812.1,138.7,811.5z
			 M138.9,814.5h1.5v9.5h-1.5V814.5z"/>
		<path class="st0" d="M143.3,810h1.5v14h-1.5V810z"/>
		<path class="st0" d="M147.3,811.5c0-0.5,0.4-1,1-1c0.5,0,1,0.4,1,1c0,0.5-0.5,1-1,1C147.8,812.5,147.3,812.1,147.3,811.5z
			 M147.6,814.5h1.5v9.5h-1.5L147.6,814.5z"/>
		<path class="st0" d="M151.9,814.5h1.5v1.5c0.6-1.1,1.8-1.7,3-1.7c2,0,3.3,1.1,3.3,3.8v5.9h-1.5v-6c0-1.7-0.7-2.4-2.2-2.4
			c-1.4-0.1-2.5,0.9-2.6,2.3c0,0.1,0,0.2,0,0.3v5.8h-1.5L151.9,814.5z"/>
		<path class="st0" d="M161.9,824.5h1.5c0.2,1.1,1.1,1.6,2.7,1.6c1.5,0.2,2.8-0.8,3-2.2c0-0.2,0-0.4,0-0.7v-1.4
			c-0.7,1.1-1.9,1.7-3.2,1.8c-2.3,0-4.3-1.9-4.3-4.2c0-0.1,0-0.2,0-0.3V819c-0.1-2.5,1.8-4.6,4.2-4.7c0.1,0,0.1,0,0.2,0
			c1.3,0,2.4,0.6,3.1,1.7v-1.5h1.5v8.8c0,2.2-1.8,4-4,4c-0.2,0-0.4,0-0.5,0C163.4,827.4,162.1,826,161.9,824.5z M169.2,819v-0.1
			c0.2-1.6-0.9-3.1-2.4-3.3c-0.2,0-0.4,0-0.5,0c-1.7,0-3,1.3-3,3c0,0.1,0,0.3,0,0.4v0.1c-0.2,1.6,1,3.1,2.7,3.3c0.1,0,0.2,0,0.2,0
			c1.7,0,3.1-1.3,3.1-2.9C169.2,819.3,169.2,819.2,169.2,819L169.2,819z"/>
		<path class="st0" d="M173.3,822.9c0-0.6,0.5-1.2,1.2-1.2c0.6,0,1.2,0.5,1.2,1.2c0,0.6-0.5,1.2-1.2,1.2
			C173.8,824,173.3,823.5,173.3,822.9L173.3,822.9z"/>
		<path class="st0" d="M182.8,811h2l6.3,10.6V811h1.5v13h-1.8l-6.5-11v11h-1.5L182.8,811z"/>
		<path class="st0" d="M194.8,819.3v-0.1c-0.2-2.6,1.8-4.8,4.3-4.9c2.6-0.2,4.8,1.8,4.9,4.3c0,0.2,0,0.4,0,0.6v0.1
			c0.2,2.6-1.8,4.8-4.3,4.9c-2.6,0.2-4.8-1.8-4.9-4.3C194.7,819.7,194.7,819.5,194.8,819.3z M202.5,819.3v-0.1
			c0-2.2-1.2-3.6-3.1-3.6s-3.1,1.4-3.1,3.6v0.1c0,2.1,1.2,3.6,3.1,3.6S202.5,821.4,202.5,819.3z"/>
		<path class="st0" d="M206.4,821.6v-5.8H205v-1.3h1.4v-2.1h1.5v2.1h2.1v1.3h-2.2v5.7c0,0.9,0.4,1.4,1.2,1.4c0.4,0,0.8-0.1,1.1-0.2
			v1.3c-0.4,0.1-0.8,0.2-1.3,0.2c-1.3,0.1-2.3-0.8-2.4-2.1C206.4,821.8,206.4,821.7,206.4,821.6z"/>
		<path class="st0" d="M219.3,822.9l-3.7-8.4h1.6l2.9,6.7l2.6-6.7h1.5l-5.2,12.7h-1.5L219.3,822.9z"/>
		<path class="st0" d="M225,819.3v-0.1c-0.2-2.6,1.8-4.8,4.3-4.9c2.6-0.2,4.8,1.8,4.9,4.3c0,0.2,0,0.4,0,0.6v0.1
			c0.2,2.6-1.8,4.8-4.3,4.9c-2.6,0.2-4.8-1.8-4.9-4.3C224.9,819.7,224.9,819.5,225,819.3z M232.7,819.3v-0.1c0-2.2-1.2-3.6-3.1-3.6
			s-3.1,1.4-3.1,3.6v0.1c0,2.1,1.2,3.6,3.1,3.6c1.7,0,3.1-1.4,3.1-3.2C232.7,819.5,232.7,819.4,232.7,819.3z"/>
		<path class="st0" d="M236.2,820.5v-6h1.5v5.9c0,1.7,0.7,2.4,2.2,2.4c1.4,0.1,2.5-1,2.6-2.4c0-0.1,0-0.1,0-0.2v-5.7h1.6v9.5h-1.5
			v-1.5c-0.6,1.1-1.7,1.7-3,1.7C237.6,824,236.2,823,236.2,820.5z"/>
		<path class="st0" d="M246.7,814.5h1.5v1.7c0.6-1.2,1.8-1.9,3.1-1.8v1.4c-1.9,0.1-3.1,0.7-3.1,3v5.3h-1.5V814.5z"/>
		<path class="st0" d="M41.8,839.6v-5.8h-1.4v-1.3h1.4v-2.1h1.5v2.1h2.2v1.3h-2.2v5.7c0,0.9,0.4,1.4,1.2,1.4c0.4,0,0.8-0.1,1.2-0.2
			v1.3c-0.4,0.1-0.8,0.2-1.3,0.2c-1.3,0.1-2.4-0.7-2.5-2C41.8,839.9,41.8,839.7,41.8,839.6z"/>
		<path class="st0" d="M46.9,839.3c0-2.2,2.3-2.9,4.7-2.9H53v-0.7c0-1.5-0.6-2.1-2-2.1s-2,0.5-2.2,1.7h-1.5c0.2-1.8,1.8-3.1,3.6-2.9
			c0,0,0.1,0,0.1,0c1.7-0.2,3.2,0.9,3.4,2.6c0,0.3,0,0.5,0,0.8v6.3H53v-1.2c-0.7,0.9-1.9,1.3-3,1.2C48.3,842,46.9,841.2,46.9,839.3z
			 M52.9,838.6v-1.2h-1.3c-1.9,0-3.3,0.5-3.3,1.9c0,1,0.5,1.6,1.8,1.6S53,840,52.9,838.6L52.9,838.6z"/>
		<path class="st0" d="M59.5,837.1l-3.2-4.6h1.7l2.3,3.5l2.3-3.4h1.6l-3.1,4.5l3.4,5h-1.8l-2.5-3.8l-2.6,3.8h-1.6L59.5,837.1z"/>
		<path class="st0" d="M70.9,832.5h1.5v1.7c0.6-1.2,1.8-1.9,3.1-1.8v1.4c-2,0.1-3.1,0.7-3.1,3v5.3h-1.5V832.5z"/>
		<path class="st0" d="M76.4,837.3v-0.1c-0.2-2.4,1.6-4.6,4-4.8c0.1,0,0.3,0,0.4,0c2.3-0.1,4.2,1.7,4.3,4c0,0.2,0,0.5,0,0.7v0.5H78
			c0,2.1,1.1,3.3,3,3.3c1.5,0,2.3-0.5,2.5-1.6H85c-0.4,1.9-2.1,3.1-4,2.9c-2.4,0.1-4.5-1.8-4.6-4.2
			C76.4,837.7,76.4,837.5,76.4,837.3z M83.5,836.3c-0.1-2-1.1-2.7-2.7-2.7c-1.5,0-2.7,1.2-2.8,2.7H83.5z"/>
		<path class="st0" d="M87.4,833.8H86v-1.3h1.4V831c0-2,0.9-3,2.8-3c0.4,0,0.8,0.1,1.1,0.2v1.3c-0.3-0.1-0.7-0.2-1.1-0.2
			c-1,0-1.4,0.7-1.4,1.6v1.7h2.3v1.3h-2.3v8.2h-1.5V833.8z"/>
		<path class="st0" d="M93,838.5v-6h1.5v5.9c0,1.7,0.7,2.4,2.2,2.4c1.4,0.1,2.5-1,2.6-2.4c0-0.1,0-0.2,0-0.2v-5.7h1.5v9.5h-1.5v-1.5
			c-0.6,1.1-1.8,1.7-3,1.7C94.4,842,93,841,93,838.5z"/>
		<path class="st0" d="M103.5,832.5h1.5v1.5c0.6-1.1,1.8-1.7,3-1.7c2,0,3.3,1.1,3.3,3.8v5.9h-1.5v-6c0-1.7-0.7-2.4-2.2-2.4
			c-1.4-0.1-2.5,0.9-2.6,2.3c0,0.1,0,0.2,0,0.2v5.8h-1.5L103.5,832.5z"/>
		<path class="st0" d="M113.3,837.4v-0.2c-0.2-2.5,1.5-4.6,4-4.9c0.1,0,0.3,0,0.4,0c1.3-0.1,2.4,0.6,3.1,1.7v-6h1.5v14h-1.5v-1.6
			c-0.7,1.1-1.9,1.8-3.2,1.8c-2.3,0-4.2-1.8-4.3-4.1C113.2,837.8,113.2,837.6,113.3,837.4z M120.8,837.3v-0.1c0-2.4-1.1-3.5-3-3.5
			s-3,1.3-3,3.6v0.1c0,2.4,1.3,3.5,2.9,3.5S120.8,839.7,120.8,837.3z"/>
		<path class="st0" d="M124.9,840.9c0-0.6,0.5-1.2,1.1-1.2c0.6,0,1.2,0.5,1.2,1.1c0,0.6-0.5,1.2-1.1,1.2c0,0,0,0,0,0
			C125.4,842,124.9,841.5,124.9,840.9L124.9,840.9z"/>
		<rect class="st1" width="320" height="1200"/>
	</g>
</g>
</svg>
