<svg xmlns="http://www.w3.org/2000/svg" viewBox="0 0 320 1200"><title>H2</title><g id="Layer_2" data-name="Layer 2"><g id="Layer_4" data-name="Layer 4"><rect width="320" height="1200" fill="none"/></g><g id="Your_maximum_refund_guaranteed." data-name="Your  maximum refund, guaranteed."><path d="M48.11,295l-9.82-17.25h9.4l5.1,10.16,5.11-10.16h8.26L56.8,295v12.9H48.11Z" fill="#14aa40"/><path d="M63,297.11v-.34c0-7.08,5.27-11.55,12.1-11.55s12,4.34,12,11.34v.34c0,7.16-5.27,11.46-12,11.46S63,304.23,63,297.11ZM79.44,297v-.34c0-3.71-1.47-5.77-4.34-5.77s-4.39,2-4.39,5.69v.34c0,3.79,1.48,5.85,4.39,5.85S79.44,300.65,79.44,297Z" fill="#14aa40"/><path d="M89.6,300.18V285.81h7.55V299c0,2.49,1,3.71,3.12,3.71s3.75-1.35,3.75-4.17V285.81h7.55v22.05H104v-3.42c-1.18,2.28-3.33,3.92-7,3.92C92.77,308.36,89.6,305.75,89.6,300.18Z" fill="#14aa40"/><path d="M115.41,285.81H123v4.38a7,7,0,0,1,7.12-4.68v7c-4.6-.12-7.12,1.31-7.12,4.85v10.46h-7.55Z" fill="#14aa40"/><path d="M40.19,335h7.54v3.38a7.71,7.71,0,0,1,6.92-4,6,6,0,0,1,6,3.67,8.73,8.73,0,0,1,7.29-3.67c4.17,0,7.21,2.7,7.21,8.23v14.41H67.59V343.93c0-2.23-1.09-3.33-2.82-3.33-2,0-3.38,1.31-3.38,3.71v12.77H53.93V343.93c0-2.23-1.09-3.33-2.82-3.33-2,0-3.38,1.31-3.38,3.71v12.77H40.19Z" fill="#14aa40"/><path d="M77.55,351c0-5.18,4.38-7.21,11.72-7.21h2.1v-.5c0-2.11-.5-3.5-2.9-3.5a2.71,2.71,0,0,0-3,2.61H78.39c.34-5.31,4.51-7.93,10.54-7.93s9.95,2.49,9.95,8.35v14.29H91.54v-2.57c-1.05,1.6-3,3.08-6.53,3.08C81,357.59,77.55,355.65,77.55,351Zm13.82-1.6V348h-2c-3,0-4.38.59-4.38,2.4,0,1.27.84,2.07,2.61,2.07C89.77,352.49,91.37,351.27,91.37,349.37Z" fill="#14aa40"/><path d="M108.11,345.87,101.24,335h8.69l3.41,5.82,3.33-5.82h7.76l-7,10.25,7.63,11.8h-8.68l-3.92-6.57-4,6.57h-7.71Z" fill="#14aa40"/><path d="M127.05,329.05a4.16,4.16,0,1,1,4.13,3.88A3.93,3.93,0,0,1,127.05,329.05Zm.38,6H135v22.05h-7.54Z" fill="#14aa40"/><path d="M139,335h7.55v3.38a7.71,7.71,0,0,1,6.91-4,6,6,0,0,1,6,3.67,8.75,8.75,0,0,1,7.29-3.67c4.18,0,7.21,2.7,7.21,8.23v14.41h-7.55V343.93c0-2.23-1.09-3.33-2.82-3.33-2,0-3.37,1.31-3.37,3.71v12.77h-7.47V343.93c0-2.23-1.09-3.33-2.82-3.33-2,0-3.37,1.31-3.37,3.71v12.77H139Z" fill="#14aa40"/><path d="M177.47,349.41V335H185v13.16c0,2.49,1,3.71,3.12,3.71s3.75-1.35,3.75-4.17V335h7.55v22.05h-7.55v-3.41c-1.18,2.28-3.33,3.92-7,3.92C180.64,357.59,177.47,355,177.47,349.41Z" fill="#14aa40"/><path d="M203.28,335h7.55v3.38a7.7,7.7,0,0,1,6.91-4,6,6,0,0,1,6,3.67,8.73,8.73,0,0,1,7.29-3.67c4.17,0,7.21,2.7,7.21,8.23v14.41h-7.55V343.93c0-2.23-1.09-3.33-2.82-3.33-2,0-3.37,1.31-3.37,3.71v12.77H217V343.93c0-2.23-1.09-3.33-2.82-3.33-2,0-3.37,1.31-3.37,3.71v12.77h-7.55Z" fill="#14aa40"/><path d="M40.19,384.26h7.54v4.39A7,7,0,0,1,54.86,384v7c-4.6-.13-7.13,1.31-7.13,4.85v10.45H40.19Z" fill="#14aa40"/><path d="M56.21,395.56v-.34c0-7.08,5.27-11.55,11.93-11.55,6,0,11.22,3.46,11.22,11.39v2H63.84c.21,2.91,1.9,4.59,4.6,4.59,2.48,0,3.54-1.14,3.83-2.61h7.09c-.68,5-4.51,7.8-11.18,7.8C61.27,406.82,56.21,402.77,56.21,395.56ZM72,392.78c-.13-2.66-1.43-4.13-3.88-4.13-2.27,0-3.83,1.47-4.21,4.13Z" fill="#14aa40"/><path d="M83.11,389.41H80.33v-5.15h2.78v-1.94c0-5.48,3.42-8.09,8.64-8.09a13.55,13.55,0,0,1,3.46.46v5.53a6.86,6.86,0,0,0-2.06-.3,2.21,2.21,0,0,0-2.53,2.4v1.94h4.46v5.15H90.62v16.9H83.11Z" fill="#14aa40"/><path d="M97.45,398.64V384.26H105v13.16c0,2.48,1,3.71,3.12,3.71s3.76-1.35,3.76-4.18V384.26h7.54v22.05h-7.54V402.9c-1.18,2.27-3.34,3.92-7,3.92C100.61,406.82,97.45,404.2,97.45,398.64Z" fill="#14aa40"/><path d="M123.25,384.26h7.55v3.54a7.79,7.79,0,0,1,7.25-4.13c4.26,0,7.21,2.66,7.21,8.31v14.33h-7.55V393.5c0-2.49-1-3.71-3.16-3.71s-3.75,1.34-3.75,4.17v12.35h-7.55Z" fill="#14aa40"/><path d="M147.83,395.52v-.34c0-7.5,4.13-11.51,9.36-11.51a7.16,7.16,0,0,1,6.79,3.71V374.57h7.55v31.74H164v-3.58a7.43,7.43,0,0,1-6.87,4.09C152,406.82,147.83,403.15,147.83,395.52Zm16.36-.13v-.33c0-3.71-1.56-5.7-4.34-5.7s-4.34,1.9-4.34,5.74v.34c0,3.71,1.64,5.6,4.25,5.6S164.19,399.15,164.19,395.39Z" fill="#14aa40"/><path d="M173.81,409.73l3.54-11.09,7,2.49-6.07,10.33Z" fill="#14aa40"/><path d="M39,455.54h7.51c.34,1.6,1.31,2.87,4.05,2.87,3.33,0,4.68-1.9,4.68-4.64V450.4a7.74,7.74,0,0,1-6.83,4c-5.15,0-9.36-3.79-9.36-10.58v-.34c0-6.49,4.17-10.62,9.36-10.62,3.5,0,5.56,1.48,6.83,3.71v-3.12h7.54v20.2c0,6.57-4.34,10-12.22,10C43,463.72,39.56,460.56,39,455.54Zm16.45-11.72v-.3c0-3-1.56-5-4.35-5s-4.34,2-4.34,5v.33c0,3,1.6,5,4.3,5S55.41,446.94,55.41,443.82Z" fill="#14aa40"/><path d="M66.41,447.87V433.49H74v13.15c0,2.49,1,3.71,3.12,3.71s3.75-1.34,3.75-4.17V433.49h7.55v22.05H80.83v-3.42c-1.18,2.28-3.33,3.93-7,3.93C69.58,456.05,66.41,453.43,66.41,447.87Z" fill="#14aa40"/><path d="M91,449.43c0-5.19,4.39-7.21,11.72-7.21h2.11v-.51c0-2.11-.5-3.5-2.91-3.5a2.71,2.71,0,0,0-3,2.62H91.8c.33-5.32,4.51-7.93,10.54-7.93s10,2.49,10,8.35v14.29H105V453c-1,1.6-3,3.08-6.53,3.08C94.45,456.05,91,454.11,91,449.43Zm13.83-1.61v-1.34h-2c-3,0-4.38.59-4.38,2.4,0,1.26.84,2.06,2.61,2.06C103.18,450.94,104.78,449.72,104.78,447.82Z" fill="#14aa40"/><path d="M116,433.49h7.54v4.39a6.94,6.94,0,0,1,7.13-4.68v7c-4.6-.13-7.13,1.3-7.13,4.84v10.46H116Z" fill="#14aa40"/><path d="M131.6,449.43c0-5.19,4.38-7.21,11.72-7.21h2.11v-.51c0-2.11-.51-3.5-2.91-3.5a2.7,2.7,0,0,0-3,2.62h-7.09c.34-5.32,4.51-7.93,10.54-7.93s10,2.49,10,8.35v14.29H145.6V453c-1.06,1.6-3,3.08-6.54,3.08C135.1,456.05,131.6,454.11,131.6,449.43Zm13.83-1.61v-1.34h-2c-3,0-4.39.59-4.39,2.4,0,1.26.85,2.06,2.62,2.06C143.83,450.94,145.43,449.72,145.43,447.82Z" fill="#14aa40"/><path d="M156.6,433.49h7.55V437a7.79,7.79,0,0,1,7.25-4.13c4.26,0,7.21,2.66,7.21,8.31v14.33h-7.55V442.72c0-2.48-1-3.71-3.16-3.71s-3.75,1.35-3.75,4.18v12.35H156.6Z" fill="#14aa40"/><path d="M183.29,448.46v-9.83h-2.65v-5.14h2.65V428.9h7.55v4.59h4.34v5.14h-4.34v9.11c0,1.6.8,2.32,2.23,2.32a5.77,5.77,0,0,0,2.15-.38v5.73a15.47,15.47,0,0,1-4.17.64C186.08,456.05,183.29,453.64,183.29,448.46Z" fill="#14aa40"/><path d="M196.87,444.79v-.34c0-7.08,5.27-11.55,11.93-11.55,6,0,11.21,3.46,11.21,11.38v2H204.5c.21,2.91,1.9,4.6,4.59,4.6,2.49,0,3.55-1.14,3.84-2.61H220c-.67,5-4.51,7.8-11.17,7.8C201.93,456.05,196.87,452,196.87,444.79ZM212.68,442c-.13-2.66-1.43-4.13-3.88-4.13-2.28,0-3.84,1.47-4.22,4.13Z" fill="#14aa40"/><path d="M221.45,444.79v-.34c0-7.08,5.27-11.55,11.93-11.55,6,0,11.22,3.46,11.22,11.38v2H229.08c.21,2.91,1.9,4.6,4.6,4.6,2.48,0,3.54-1.14,3.83-2.61h7.09c-.68,5-4.52,7.8-11.18,7.8C226.51,456.05,221.45,452,221.45,444.79ZM237.26,442c-.13-2.66-1.43-4.13-3.88-4.13-2.27,0-3.84,1.47-4.21,4.13Z" fill="#14aa40"/><path d="M246.12,444.75v-.34c0-7.5,4.13-11.51,9.36-11.51a7.15,7.15,0,0,1,6.78,3.71V423.79h7.55v31.75h-7.55V452a7.43,7.43,0,0,1-6.87,4.09C250.29,456.05,246.12,452.38,246.12,444.75Zm16.35-.13v-.34c0-3.71-1.56-5.69-4.34-5.69s-4.34,1.9-4.34,5.74v.33c0,3.71,1.64,5.61,4.26,5.61S262.47,448.37,262.47,444.62Z" fill="#14aa40"/><path d="M273.35,451.75a4.2,4.2,0,0,1,4.3-4.26,4.26,4.26,0,1,1,0,8.51A4.2,4.2,0,0,1,273.35,451.75Z" fill="#14aa40"/></g></g></svg>