<svg xmlns="http://www.w3.org/2000/svg" viewBox="0 0 160 600"><title>H6</title><g id="Layer_2" data-name="Layer 2"><g id="Rect"><rect width="160" height="600" fill="none"/></g><g id="H06"><g id="You_could_get_a_Refund_Advance_loan_up_to_3_500_within_minutes" data-name="You could get a Refund Advance loan up to $3,500 within minutes"><path d="M26.41,87.68,20.21,76.8h5.93l3.22,6.41,3.22-6.41h5.21l-5.9,10.88v8.14H26.41Z" fill="#fff"/><path d="M35.8,89v-.21c0-4.47,3.32-7.29,7.63-7.29S51,84.28,51,88.69v.22c0,4.52-3.32,7.23-7.6,7.23S35.8,93.53,35.8,89ZM46.17,89v-.21c0-2.34-.93-3.65-2.74-3.65s-2.76,1.25-2.76,3.59v.22c0,2.39.93,3.69,2.76,3.69S46.17,91.27,46.17,89Z" fill="#fff"/><path d="M52.58,91V81.91h4.77v8.3c0,1.57.61,2.34,2,2.34s2.37-.85,2.37-2.63v-8h4.76V95.82H61.68V93.67a4.57,4.57,0,0,1-4.41,2.47C54.58,96.14,52.58,94.49,52.58,91Z" fill="#fff"/><path d="M20.67,120.64v-.21c0-4.63,3.32-7.29,7.41-7.29,3.41,0,6.55,1.49,6.81,5.72H30.43a2.06,2.06,0,0,0-2.24-2c-1.67,0-2.66,1.19-2.66,3.53v.22c0,2.42.93,3.67,2.74,3.67a2.32,2.32,0,0,0,2.42-2.32H35c-.13,3.51-2.5,5.8-7,5.8C23.83,127.74,20.67,125.32,20.67,120.64Z" fill="#fff"/><path d="M35.77,120.64v-.21c0-4.47,3.33-7.29,7.64-7.29S51,115.88,51,120.29v.22c0,4.52-3.33,7.23-7.61,7.23S35.77,125.13,35.77,120.64Zm10.38-.08v-.21c0-2.34-.93-3.65-2.74-3.65s-2.77,1.25-2.77,3.59v.22c0,2.39.93,3.69,2.77,3.69S46.15,122.87,46.15,120.56Z" fill="#fff"/><path d="M52.56,122.58v-9.07h4.76v8.3c0,1.57.61,2.34,2,2.34s2.36-.85,2.36-2.63v-8h4.76v13.91H61.65v-2.15a4.57,4.57,0,0,1-4.41,2.47C54.55,127.74,52.56,126.09,52.56,122.58Z" fill="#fff"/><path d="M69,107.39H73.7v20H69Z" fill="#fff"/><path d="M75.57,120.61v-.21c0-4.73,2.6-7.26,5.9-7.26a4.5,4.5,0,0,1,4.28,2.34v-8.09h4.76v20H85.75v-2.26a4.67,4.67,0,0,1-4.33,2.58C78.2,127.74,75.57,125.43,75.57,120.61Zm10.32-.08v-.21c0-2.34-1-3.59-2.74-3.59s-2.74,1.2-2.74,3.62v.21c0,2.34,1,3.54,2.68,3.54S85.89,122.9,85.89,120.53Z" fill="#fff"/><path d="M97,127.42h4.73c.21,1,.82,1.81,2.55,1.81a2.64,2.64,0,0,0,3-2.93v-2.12a4.89,4.89,0,0,1-4.31,2.55c-3.25,0-5.91-2.39-5.91-6.68v-.21c0-4.09,2.64-6.7,5.91-6.7a4.54,4.54,0,0,1,4.31,2.34v-2H112v12.74c0,4.15-2.74,6.33-7.72,6.33C99.56,132.58,97.38,130.59,97,127.42ZM107.38,120v-.19c0-1.91-1-3.14-2.74-3.14s-2.74,1.25-2.74,3.17v.21c0,1.92,1,3.14,2.71,3.14S107.38,122,107.38,120Z" fill="#fff"/><path d="M113.68,120.64v-.21c0-4.47,3.33-7.29,7.53-7.29,3.8,0,7.08,2.18,7.08,7.18v1.25H118.5a2.78,2.78,0,0,0,2.9,2.9c1.57,0,2.23-.72,2.42-1.65h4.47c-.43,3.14-2.85,4.92-7,4.92C116.88,127.74,113.68,125.19,113.68,120.64Zm10-1.76c-.08-1.67-.91-2.6-2.45-2.6a2.64,2.64,0,0,0-2.66,2.6Z" fill="#fff"/><path d="M130.57,123v-6.19H128.9v-3.25h1.67v-2.9h4.76v2.9h2.74v3.25h-2.74v5.74a1.27,1.27,0,0,0,1.41,1.46,3.59,3.59,0,0,0,1.36-.24v3.62a10,10,0,0,1-2.63.4C132.33,127.74,130.57,126.22,130.57,123Z" fill="#fff"/><path d="M20.61,155.16c0-3.27,2.77-4.54,7.4-4.54h1.33v-.32c0-1.33-.32-2.21-1.84-2.21a1.71,1.71,0,0,0-1.89,1.65H21.14c.22-3.35,2.85-5,6.65-5s6.28,1.57,6.28,5.26v9H29.44V157.4a4.56,4.56,0,0,1-4.12,1.94C22.82,159.34,20.61,158.12,20.61,155.16Zm8.73-1v-.85H28.08c-1.91,0-2.76.37-2.76,1.52,0,.8.53,1.3,1.65,1.3A2.1,2.1,0,0,0,29.34,154.15Z" fill="#fff"/><path d="M41.65,140H49.1c5,0,7.74,2,7.74,6v.11a5,5,0,0,1-3.43,5L58,159H52.21l-3.86-6.81H47.08V159H41.65Zm7.18,8.67c1.84,0,2.74-.77,2.74-2.31v-.11c0-1.54-1-2.15-2.71-2.15H47.08v4.57Z" fill="#fff"/><path d="M58,152.24V152c0-4.47,3.32-7.29,7.52-7.29,3.81,0,7.08,2.18,7.08,7.18v1.25H62.77a2.78,2.78,0,0,0,2.9,2.9c1.57,0,2.23-.72,2.42-1.65h4.47c-.43,3.14-2.85,4.92-7,4.92C61.15,159.34,58,156.79,58,152.24Zm10-1.76c-.08-1.67-.9-2.6-2.45-2.6a2.65,2.65,0,0,0-2.66,2.6Z" fill="#fff"/><path d="M74.93,148.36H73.17v-3.25h1.76v-1.22c0-3.46,2.15-5.11,5.45-5.11a8.46,8.46,0,0,1,2.18.29v3.49a4.26,4.26,0,0,0-1.3-.19,1.4,1.4,0,0,0-1.6,1.52v1.22h2.82v3.25H79.66V159H74.93Z" fill="#fff"/><path d="M84,154.18v-9.07h4.76v8.3c0,1.57.61,2.34,2,2.34s2.37-.85,2.37-2.63v-8h4.76V159H93.07v-2.15a4.59,4.59,0,0,1-4.42,2.47C86,159.34,84,157.69,84,154.18Z" fill="#fff"/><path d="M100.25,145.11H105v2.23a4.92,4.92,0,0,1,4.58-2.6c2.68,0,4.54,1.67,4.54,5.24v9h-4.76v-8.08c0-1.57-.61-2.35-2-2.35s-2.37.86-2.37,2.64V159h-4.76Z" fill="#fff"/><path d="M115.76,152.21V152c0-4.73,2.6-7.26,5.9-7.26a4.5,4.5,0,0,1,4.28,2.34V139h4.77v20h-4.77v-2.26a4.67,4.67,0,0,1-4.33,2.58C118.39,159.34,115.76,157,115.76,152.21Zm10.32-.08v-.21c0-2.34-1-3.59-2.74-3.59s-2.74,1.2-2.74,3.62v.21c0,2.34,1,3.54,2.69,3.54S126.08,154.5,126.08,152.13Z" fill="#fff"/><path d="M26.44,171.6h7l6,19H33.75l-1-3.54h-6.3l-1,3.54H20.35Zm1.06,11.73h4.18L29.6,176Z" fill="#fff"/><path d="M39.84,183.81v-.21c0-4.73,2.61-7.26,5.91-7.26A4.51,4.51,0,0,1,50,178.68v-8.09h4.76v20H50v-2.26a4.68,4.68,0,0,1-4.34,2.58C42.48,190.94,39.84,188.63,39.84,183.81Zm10.32-.08v-.21c0-2.34-1-3.59-2.74-3.59s-2.74,1.2-2.74,3.62v.21c0,2.34,1,3.54,2.69,3.54S50.16,186.1,50.16,183.73Z" fill="#fff"/><path d="M56,176.71H61.1l2.9,9,2.84-9h4.55l-5.08,13.91H61.12Z" fill="#fff"/><path d="M71.21,186.76c0-3.27,2.76-4.54,7.39-4.54h1.33v-.32c0-1.33-.32-2.21-1.84-2.21a1.7,1.7,0,0,0-1.88,1.65H71.74c.21-3.35,2.84-5,6.65-5s6.27,1.57,6.27,5.26v9H80V189a4.58,4.58,0,0,1-4.13,1.94C73.41,190.94,71.21,189.72,71.21,186.76Zm8.72-1v-.85H78.68c-1.92,0-2.77.37-2.77,1.52,0,.8.53,1.3,1.65,1.3C78.92,187.72,79.93,187,79.93,185.75Z" fill="#fff"/><path d="M87,176.71h4.76v2.23a4.91,4.91,0,0,1,4.57-2.6c2.69,0,4.55,1.67,4.55,5.24v9H96.1v-8.08c0-1.57-.61-2.35-2-2.35s-2.37.86-2.37,2.64v7.79H87Z" fill="#fff"/><path d="M102.43,183.84v-.21c0-4.63,3.33-7.29,7.42-7.29,3.41,0,6.55,1.49,6.81,5.72h-4.47a2,2,0,0,0-2.23-2c-1.68,0-2.66,1.19-2.66,3.53v.22c0,2.42.93,3.67,2.74,3.67a2.32,2.32,0,0,0,2.42-2.32h4.28c-.13,3.51-2.5,5.8-7,5.8C105.6,190.94,102.43,188.52,102.43,183.84Z" fill="#fff"/><path d="M117.54,183.84v-.21c0-4.47,3.33-7.29,7.53-7.29,3.8,0,7.07,2.18,7.07,7.18v1.25h-9.78a2.77,2.77,0,0,0,2.89,2.9c1.57,0,2.24-.72,2.42-1.65h4.47c-.42,3.14-2.84,4.92-7,4.92S117.54,188.39,117.54,183.84Zm10-1.76c-.07-1.67-.9-2.6-2.44-2.6a2.64,2.64,0,0,0-2.66,2.6Z" fill="#fff"/><path d="M21.54,202.19h4.74v20H21.54Z" fill="#fff"/><path d="M28.09,215.44v-.21c0-4.47,3.32-7.29,7.63-7.29s7.58,2.74,7.58,7.15v.22c0,4.52-3.33,7.23-7.61,7.23S28.09,219.93,28.09,215.44Zm10.37-.08v-.21c0-2.34-.93-3.65-2.74-3.65S33,212.75,33,215.09v.22c0,2.39.93,3.69,2.77,3.69S38.46,217.67,38.46,215.36Z" fill="#fff"/><path d="M44.18,218.36c0-3.27,2.76-4.54,7.39-4.54H52.9v-.32c0-1.33-.32-2.21-1.83-2.21a1.71,1.71,0,0,0-1.89,1.65H44.71c.21-3.35,2.85-5,6.65-5s6.28,1.57,6.28,5.26v9H53V220.6a4.58,4.58,0,0,1-4.12,1.94C46.39,222.54,44.18,221.32,44.18,218.36Zm8.72-1v-.85H51.65c-1.91,0-2.76.38-2.76,1.52,0,.8.53,1.3,1.65,1.3A2.09,2.09,0,0,0,52.9,217.35Z" fill="#fff"/><path d="M60,208.31h4.76v2.23a4.92,4.92,0,0,1,4.58-2.6c2.68,0,4.55,1.67,4.55,5.24v9H69.07v-8.08c0-1.57-.61-2.35-2-2.35s-2.37.86-2.37,2.64v7.79H60Z" fill="#fff"/><path d="M80.89,217.38v-9.07h4.76v8.3c0,1.57.61,2.34,2,2.34S90,218.1,90,216.32v-8h4.76v13.91H90v-2.15a4.57,4.57,0,0,1-4.41,2.47C82.88,222.54,80.89,220.89,80.89,217.38Z" fill="#fff"/><path d="M97.17,208.31h4.76v2.08a4.89,4.89,0,0,1,4.33-2.45c3.25,0,5.88,2.45,5.88,7.21v.21c0,4.79-2.63,7.18-5.91,7.18a4.56,4.56,0,0,1-4.3-2.37v6.71H97.17Zm10.13,7.05v-.21c0-2.45-1.07-3.62-2.74-3.62s-2.77,1.25-2.77,3.59v.21c0,2.37,1,3.57,2.77,3.57S107.3,217.65,107.3,215.36Z" fill="#fff"/><path d="M22.05,249.35v-6.19H20.37v-3.25h1.68V237h4.76v2.9h2.74v3.25H26.81v5.74c0,1,.5,1.46,1.41,1.46a3.57,3.57,0,0,0,1.35-.24v3.62a9.91,9.91,0,0,1-2.63.4C23.8,254.14,22.05,252.62,22.05,249.35Z" fill="#fff"/><path d="M30.61,247v-.21c0-4.47,3.33-7.29,7.64-7.29s7.58,2.74,7.58,7.15v.22c0,4.52-3.33,7.23-7.61,7.23S30.61,251.53,30.61,247ZM41,247v-.21c0-2.34-.94-3.65-2.74-3.65s-2.77,1.25-2.77,3.59v.22c0,2.39.93,3.69,2.77,3.69S41,249.27,41,247Z" fill="#fff"/><path d="M55.4,245.12c-2.68-.19-4-1.61-4.09-3.66h2.87a1.47,1.47,0,0,0,1.22,1.46v-2.27c-2.7-.38-3.84-1.36-3.84-3.52,0-1.87,1.47-3.22,3.84-3.39v-1.38h1.21v1.39c2.25.19,3.58,1.23,3.77,3.35H57.57a1.22,1.22,0,0,0-1-1.16v2.14c2.37.34,3.92,1.15,3.92,3.39,0,1.9-1.22,3.48-3.92,3.65v1.94H55.4Zm0-7.23v-2c-.7.12-1,.5-1,1S54.56,237.72,55.4,237.89Zm1.21,3v2.07a1.12,1.12,0,0,0,1-1.1C57.65,241.3,57.43,241,56.61,240.85Z" fill="#fff"/><path d="M61.48,247.57h4.84a2.54,2.54,0,0,0,2.79,2.63c1.68,0,2.5-.79,2.5-2.15s-.79-2.24-2.5-2.24H67.6v-3.37H69c1.7,0,2.52-.77,2.52-2.1,0-1.15-.74-1.89-2.18-1.89a2.43,2.43,0,0,0-2.52,2.42H62c.24-3.75,2.74-6.33,7.48-6.33,4.46,0,7.15,2.05,7.15,5.21a4.06,4.06,0,0,1-3.22,4.1,4.28,4.28,0,0,1,3.7,4.31c0,3.61-2.69,6-7.71,6C64.11,254.14,61.64,251.69,61.48,247.57Z" fill="#fff"/><path d="M77.57,256l2.24-7,4.41,1.57-3.83,6.52Z" fill="#fff"/><path d="M85.1,247.84h5a2.17,2.17,0,0,0,2.47,2.2c1.57,0,2.29-1.17,2.29-2.68a2.41,2.41,0,0,0-2.58-2.71A3.91,3.91,0,0,0,89.09,246H85.85l.4-11.2H99.06v4H90.18l-.1,4.21a5,5,0,0,1,4.44-2c3.48,0,5.77,2.34,5.77,6.47s-2.9,6.7-7.71,6.7C87.52,254.14,85.23,251.4,85.1,247.84Z" fill="#fff"/><path d="M101.62,244.72v-.79c0-6,3.75-9.39,8.78-9.39s8.77,3.11,8.77,9.28v.74c0,6-3.45,9.58-8.88,9.58S101.62,250.71,101.62,244.72Zm12.1-.05v-.77c0-3.48-1-5.24-3.32-5.24s-3.33,1.73-3.33,5.24v.8c0,3.54,1,5.21,3.38,5.21S113.72,248.18,113.72,244.67Z" fill="#fff"/><path d="M120.69,244.72v-.79c0-6,3.75-9.39,8.78-9.39s8.78,3.11,8.78,9.28v.74c0,6-3.46,9.58-8.89,9.58S120.69,250.71,120.69,244.72Zm12.1-.05v-.77c0-3.48-1-5.24-3.32-5.24s-3.33,1.73-3.33,5.24v.8c0,3.54,1,5.21,3.38,5.21S132.79,248.18,132.79,244.67Z" fill="#fff"/><path d="M20.24,271.51h5l2,8.33,2.34-8.33H33.4l2.08,8.33,2.26-8.33h4.52l-4.41,13.91H33.3l-2.08-7.77-2.15,7.77H24.44Z" fill="#fff"/><path d="M43.38,267.73A2.63,2.63,0,1,1,46,270.18,2.48,2.48,0,0,1,43.38,267.73Zm.24,3.78h4.76v13.91H43.62Z" fill="#fff"/><path d="M51.57,281v-6.19H49.9v-3.25h1.67v-2.9h4.76v2.9h2.74v3.25H56.33v5.74A1.27,1.27,0,0,0,57.74,282a3.62,3.62,0,0,0,1.36-.24v3.62a10,10,0,0,1-2.63.4C53.33,285.74,51.57,284.22,51.57,281Z" fill="#fff"/><path d="M60.88,265.39h4.76v8.36a4.91,4.91,0,0,1,4.58-2.61c2.68,0,4.55,1.67,4.55,5.24v9H70v-8.08c0-1.57-.62-2.34-2-2.34s-2.37.85-2.37,2.63v7.79H60.88Z" fill="#fff"/><path d="M77,267.73a2.48,2.48,0,0,1,2.6-2.47,2.47,2.47,0,1,1,0,4.92A2.46,2.46,0,0,1,77,267.73Zm.24,3.78H82v13.91H77.22Z" fill="#fff"/><path d="M84.53,271.51h4.76v2.24a4.91,4.91,0,0,1,4.58-2.61c2.68,0,4.54,1.67,4.54,5.24v9H93.65v-8.08c0-1.57-.61-2.34-2-2.34s-2.37.85-2.37,2.63v7.79H84.53Z" fill="#fff"/><path d="M21.41,303.11h4.76v2.13a4.87,4.87,0,0,1,4.36-2.5,3.8,3.8,0,0,1,3.78,2.31,5.51,5.51,0,0,1,4.6-2.31c2.63,0,4.55,1.7,4.55,5.18V317H38.7v-8.3c0-1.41-.69-2.1-1.78-2.1A2.06,2.06,0,0,0,34.79,309V317H30.08v-8.3c0-1.41-.69-2.1-1.78-2.1A2.06,2.06,0,0,0,26.17,309V317H21.41Z" fill="#fff"/><path d="M45.67,299.33a2.63,2.63,0,1,1,2.61,2.45A2.48,2.48,0,0,1,45.67,299.33Zm.24,3.78h4.76V317H45.91Z" fill="#fff"/><path d="M53.22,303.11H58v2.23a4.92,4.92,0,0,1,4.58-2.6c2.68,0,4.55,1.67,4.55,5.24v9H62.35v-8.08c0-1.57-.62-2.35-2-2.35s-2.37.86-2.37,2.64V317H53.22Z" fill="#fff"/><path d="M69.32,312.18v-9.07h4.76v8.3c0,1.57.61,2.34,2,2.34s2.37-.85,2.37-2.63v-8h4.76V317H78.41v-2.15A4.57,4.57,0,0,1,74,317.34C71.31,317.34,69.32,315.69,69.32,312.18Z" fill="#fff"/><path d="M86.23,312.55v-6.19H84.56v-3.25h1.67v-2.9H91v2.9h2.74v3.25H91v5.74a1.27,1.27,0,0,0,1.41,1.46,3.62,3.62,0,0,0,1.36-.24v3.62a10,10,0,0,1-2.63.4C88,317.34,86.23,315.82,86.23,312.55Z" fill="#fff"/><path d="M94.8,310.24V310c0-4.47,3.32-7.29,7.53-7.29,3.8,0,7.07,2.18,7.07,7.18v1.25H99.61a2.79,2.79,0,0,0,2.9,2.9c1.57,0,2.24-.72,2.42-1.65h4.47c-.43,3.14-2.85,4.92-7.05,4.92C98,317.34,94.8,314.79,94.8,310.24Zm10-1.76c-.08-1.67-.9-2.6-2.44-2.6a2.64,2.64,0,0,0-2.66,2.6Z" fill="#fff"/><path d="M110.25,312.61h4.39c.16,1,.61,1.56,2,1.56,1.17,0,1.7-.45,1.7-1.14s-.66-1-2.58-1.25c-3.72-.48-5.29-1.57-5.29-4.47,0-3.08,2.74-4.57,6-4.57,3.43,0,5.82,1.17,6.14,4.49h-4.31a1.55,1.55,0,0,0-1.78-1.38c-1,0-1.57.45-1.57,1.09s.64.93,2.34,1.14c3.86.48,5.72,1.49,5.72,4.47,0,3.3-2.45,4.79-6.3,4.79S110.36,315.69,110.25,312.61Z" fill="#fff"/><path d="M124.3,314.63a2.65,2.65,0,0,1,2.71-2.69,2.69,2.69,0,1,1,0,5.37A2.64,2.64,0,0,1,124.3,314.63Z" fill="#fff"/></g></g></g></svg>