<svg xmlns="http://www.w3.org/2000/svg" viewBox="0 0 160 600"><title>H17</title><g id="Layer_2" data-name="Layer 2"><g id="Rect"><rect width="160" height="600" fill="none"/></g><g id="H17"><g id="File_with_H_R_Block_Online_for_everyone_s_favorite_price:_free." data-name="File with H&amp;R Block Online for everyone’s favorite price: free."><path d="M21.59,122.88h11.1v3.65H26.32V130h5.09v3.47H26.32v5.82H21.59Z" fill="#fff"/><path d="M33.87,124a2.14,2.14,0,0,1,2.25-2.14A2.17,2.17,0,0,1,38.4,124a2.15,2.15,0,0,1-2.28,2.11A2.12,2.12,0,0,1,33.87,124Zm.21,3.26h4.11v12H34.08Z" fill="#fff"/><path d="M40.52,122h4.09v17.32H40.52Z" fill="#fff"/><path d="M46.17,133.46v-.19a6.16,6.16,0,0,1,6.51-6.3c3.29,0,6.12,1.89,6.12,6.21v1.08H50.34a2.4,2.4,0,0,0,2.5,2.51c1.36,0,1.93-.62,2.09-1.43H58.8c-.37,2.71-2.46,4.25-6.1,4.25S46.17,137.39,46.17,133.46Zm8.63-1.52c-.07-1.45-.78-2.26-2.12-2.26a2.3,2.3,0,0,0-2.3,2.26Z" fill="#fff"/><path d="M63.4,127.29h4.3l1.75,7.2,2-7.2h3.31l1.8,7.2,2-7.2h3.91l-3.82,12H74.69L72.9,132.6,71,139.32H67Z" fill="#fff"/><path d="M83.41,124a2.27,2.27,0,1,1,2.25,2.11A2.13,2.13,0,0,1,83.41,124Zm.21,3.26h4.11v12H83.62Z" fill="#fff"/><path d="M90.49,135.46V130.1H89v-2.81h1.45v-2.5h4.12v2.5H97v2.81H94.61v5c0,.88.44,1.27,1.22,1.27a3.09,3.09,0,0,0,1.17-.21v3.13a8.59,8.59,0,0,1-2.28.34C92,139.59,90.49,138.28,90.49,135.46Z" fill="#fff"/><path d="M98.54,122h4.12v7.22a4.24,4.24,0,0,1,4-2.25c2.32,0,3.93,1.45,3.93,4.53v7.82h-4.12v-7c0-1.36-.53-2-1.72-2s-2,.74-2,2.28v6.74H98.54Z" fill="#fff"/><path d="M21.59,150.88h4.73v6.27h5.41v-6.27h4.71v16.44H31.73v-6.49H26.32v6.49H21.59Z" fill="#fff"/><path d="M52.22,164,55,167.32H49.6l-1-1.2a6.53,6.53,0,0,1-4.44,1.47c-3.49,0-5.77-1.84-5.77-5,0-2.12,1.29-3.68,3.61-4.79A5.25,5.25,0,0,1,41,155c0-2.8,2.39-4.3,5.29-4.3,2.62,0,5,1.31,5,3.84,0,1.79-1.06,3.1-3.29,4.07l2.07,2.53,1.2-2.35h3.58Zm-5.7-.48-2.6-3.13a2,2,0,0,0-1.11,1.77,1.92,1.92,0,0,0,2.1,2A2.16,2.16,0,0,0,46.52,163.48ZM46,156.86c1.1-.53,1.63-1.15,1.63-2a1.18,1.18,0,0,0-1.22-1.27A1.31,1.31,0,0,0,45.07,155,3.07,3.07,0,0,0,46,156.86Z" fill="#fff"/><path d="M56.45,150.88h6.44c4.3,0,6.69,1.75,6.69,5.22v.09a4.29,4.29,0,0,1-3,4.32l3.93,6.81h-5l-3.33-5.89h-1.1v5.89h-4.7Zm6.21,7.49c1.59,0,2.37-.66,2.37-2v-.09c0-1.33-.83-1.86-2.34-1.86H61.15v4Z" fill="#fff"/><path d="M76.33,150.88h7.33c3.89,0,5.54,1.75,5.54,4.3v.09a3.38,3.38,0,0,1-2.78,3.54,3.58,3.58,0,0,1,3.29,3.84v.09c0,2.95-1.91,4.58-6,4.58h-7.4Zm6.39,6.53c1.47,0,2-.51,2-1.68v-.09c0-1.13-.6-1.64-2-1.64h-1.8v3.41Zm.16,6.76c1.49,0,2.18-.69,2.18-1.91v-.09c0-1.24-.66-1.89-2.32-1.89H80.92v3.89Z" fill="#fff"/><path d="M91.34,150h4.1v17.32h-4.1Z" fill="#fff"/><path d="M97,161.46v-.19c0-3.86,2.88-6.3,6.6-6.3s6.56,2.37,6.56,6.19v.18c0,3.91-2.88,6.25-6.58,6.25S97,165.34,97,161.46Zm9-.07v-.19c0-2-.8-3.15-2.37-3.15s-2.39,1.08-2.39,3.11v.18c0,2.07.81,3.2,2.39,3.2S106,163.39,106,161.39Z" fill="#fff"/><path d="M111,161.46v-.19a6.05,6.05,0,0,1,6.42-6.3c2.94,0,5.66,1.29,5.89,4.94H119.4a1.77,1.77,0,0,0-1.93-1.74c-1.45,0-2.3,1-2.3,3.06v.18c0,2.09.81,3.17,2.37,3.17a2,2,0,0,0,2.09-2h3.7c-.11,3-2.16,5-6,5C113.7,167.59,111,165.5,111,161.46Z" fill="#fff"/><path d="M124.67,150h4.12v10.05l3.24-4.76h4.28l-3.93,5.41,4.25,6.62H132l-3.24-5.27v5.27h-4.12Z" fill="#fff"/><path d="M20.71,187.2V187c0-5,3.77-8.37,8.69-8.37s8.72,3.15,8.72,8.25v.19c0,5.06-3.47,8.5-8.78,8.5S20.71,192.15,20.71,187.2Zm12.49,0V187c0-2.92-1.47-4.64-3.8-4.64S25.63,184,25.63,187v.19c0,3,1.52,4.71,3.8,4.71S33.2,190.1,33.2,187.16Z" fill="#fff"/><path d="M39.71,183.29h4.12v1.93a4.23,4.23,0,0,1,4-2.25c2.32,0,3.93,1.45,3.93,4.53v7.82H47.6v-7c0-1.36-.53-2-1.73-2s-2,.74-2,2.28v6.74H39.71Z" fill="#fff"/><path d="M53.83,178h4.1v17.32h-4.1Z" fill="#fff"/><path d="M60,180a2.27,2.27,0,1,1,2.26,2.11A2.13,2.13,0,0,1,60,180Zm.21,3.26h4.12v12H60.25Z" fill="#fff"/><path d="M66.57,183.29h4.12v1.93a4.24,4.24,0,0,1,4-2.25c2.32,0,3.93,1.45,3.93,4.53v7.82H74.46v-7c0-1.36-.53-2-1.72-2s-2,.74-2,2.28v6.74H66.57Z" fill="#fff"/><path d="M79.94,189.46v-.19a6.15,6.15,0,0,1,6.5-6.3c3.29,0,6.12,1.89,6.12,6.21v1.08H84.1a2.4,2.4,0,0,0,2.51,2.51c1.35,0,1.93-.62,2.09-1.43h3.86c-.37,2.71-2.46,4.25-6.09,4.25S79.94,193.39,79.94,189.46Zm8.62-1.52c-.07-1.45-.78-2.26-2.12-2.26a2.28,2.28,0,0,0-2.29,2.26Z" fill="#fff"/><path d="M98.8,186.1H97.28v-2.81H98.8v-1.06c0-3,1.86-4.41,4.71-4.41a7.34,7.34,0,0,1,1.89.25v3a3.88,3.88,0,0,0-1.13-.16,1.21,1.21,0,0,0-1.38,1.31v1.06h2.44v2.81h-2.44v9.22H98.8Z" fill="#fff"/><path d="M105.65,189.46v-.19c0-3.86,2.87-6.3,6.6-6.3s6.55,2.37,6.55,6.19v.18c0,3.91-2.87,6.25-6.57,6.25S105.65,193.34,105.65,189.46Zm9-.07v-.19c0-2-.81-3.15-2.37-3.15s-2.39,1.08-2.39,3.11v.18c0,2.07.8,3.2,2.39,3.2S114.62,191.39,114.62,189.39Z" fill="#fff"/><path d="M120.25,183.29h4.12v2.39a3.8,3.8,0,0,1,3.89-2.55V187c-2.51-.07-3.89.71-3.89,2.65v5.7h-4.12Z" fill="#fff"/><path d="M20.57,217.46v-.19a6.16,6.16,0,0,1,6.51-6.3c3.29,0,6.12,1.89,6.12,6.21v1.08H24.74a2.4,2.4,0,0,0,2.5,2.51c1.36,0,1.93-.62,2.1-1.43H33.2c-.37,2.71-2.46,4.25-6.09,4.25C23.33,223.59,20.57,221.39,20.57,217.46Zm8.63-1.52c-.07-1.45-.78-2.26-2.12-2.26a2.3,2.3,0,0,0-2.3,2.26Z" fill="#fff"/><path d="M33.18,211.29h4.39L40.08,219l2.46-7.75h3.93l-4.39,12H37.59Z" fill="#fff"/><path d="M46.22,217.46v-.19a6.15,6.15,0,0,1,6.51-6.3c3.29,0,6.11,1.89,6.11,6.21v1.08H50.38a2.41,2.41,0,0,0,2.51,2.51c1.36,0,1.93-.62,2.09-1.43h3.86c-.36,2.71-2.46,4.25-6.09,4.25S46.22,221.39,46.22,217.46Zm8.62-1.52c-.07-1.45-.78-2.26-2.11-2.26a2.29,2.29,0,0,0-2.3,2.26Z" fill="#fff"/><path d="M60.27,211.29h4.12v2.39a3.79,3.79,0,0,1,3.88-2.55V215c-2.5-.07-3.88.71-3.88,2.65v5.7H60.27Z" fill="#fff"/><path d="M73.73,222.1l-4.81-10.81h4.46l2.48,6.42,2.3-6.42H82.1l-6.44,16.05H71.73Z" fill="#fff"/><path d="M81.87,217.46v-.19c0-3.86,2.87-6.3,6.6-6.3S95,213.34,95,217.16v.18c0,3.91-2.87,6.25-6.57,6.25S81.87,221.34,81.87,217.46Zm9-.07v-.19c0-2-.81-3.15-2.37-3.15s-2.39,1.08-2.39,3.11v.18c0,2.07.8,3.2,2.39,3.2S90.84,219.39,90.84,217.39Z" fill="#fff"/><path d="M96.47,211.29h4.12v1.93a4.23,4.23,0,0,1,4-2.25c2.33,0,3.94,1.45,3.94,4.53v7.82h-4.12v-7c0-1.36-.53-2-1.72-2s-2,.74-2,2.28v6.74H96.47Z" fill="#fff"/><path d="M109.84,217.46v-.19a6.15,6.15,0,0,1,6.5-6.3c3.29,0,6.12,1.89,6.12,6.21v1.08H114a2.4,2.4,0,0,0,2.5,2.51c1.36,0,1.94-.62,2.1-1.43h3.86c-.37,2.71-2.46,4.25-6.09,4.25S109.84,221.39,109.84,217.46Zm8.62-1.52c-.07-1.45-.78-2.26-2.12-2.26a2.3,2.3,0,0,0-2.3,2.26Z" fill="#fff"/><path d="M122.88,212.58l1.84-6,3.63,1.22-3.15,5.68Z" fill="#fff"/><path d="M127,219.5h3.8c.13.88.52,1.36,1.7,1.36,1,0,1.47-.39,1.47-1s-.58-.85-2.23-1.08c-3.22-.41-4.58-1.36-4.58-3.86,0-2.67,2.37-4,5.15-4,3,0,5,1,5.32,3.89h-3.73a1.34,1.34,0,0,0-1.54-1.2c-.9,0-1.36.39-1.36.94s.56.81,2,1c3.33.42,4.94,1.29,4.94,3.87,0,2.85-2.11,4.13-5.45,4.13S127.06,222.17,127,219.5Z" fill="#fff"/><path d="M21.84,242.1H20.32v-2.81h1.52v-1.06c0-3,1.86-4.41,4.71-4.41a7.27,7.27,0,0,1,1.89.25v3a3.88,3.88,0,0,0-1.13-.16,1.21,1.21,0,0,0-1.38,1.31v1.06h2.44v2.81H25.93v9.22H21.84Z" fill="#fff"/><path d="M28.83,248c0-2.82,2.39-3.93,6.39-3.93h1.15v-.27c0-1.15-.27-1.91-1.58-1.91a1.48,1.48,0,0,0-1.64,1.42H29.29C29.48,240.4,31.75,239,35,239s5.43,1.36,5.43,4.55v7.8h-4v-1.4a4,4,0,0,1-3.57,1.67C30.74,251.59,28.83,250.54,28.83,248Zm7.54-.87v-.73H35.29c-1.65,0-2.39.32-2.39,1.31,0,.69.46,1.12,1.43,1.12C35.5,248.81,36.37,248.15,36.37,247.11Z" fill="#fff"/><path d="M41.09,239.29h4.39L48,247l2.46-7.75h3.93l-4.39,12H45.51Z" fill="#fff"/><path d="M54.13,245.46v-.19c0-3.86,2.88-6.3,6.6-6.3s6.55,2.37,6.55,6.19v.18c0,3.91-2.87,6.25-6.57,6.25S54.13,249.34,54.13,245.46Zm9-.07v-.19c0-2-.81-3.15-2.37-3.15s-2.39,1.08-2.39,3.11v.18c0,2.07.8,3.2,2.39,3.2S63.1,247.39,63.1,245.39Z" fill="#fff"/><path d="M68.74,239.29h4.11v2.39a3.8,3.8,0,0,1,3.89-2.55V243c-2.51-.07-3.89.71-3.89,2.65v5.7H68.74Z" fill="#fff"/><path d="M78.14,236a2.27,2.27,0,1,1,2.26,2.11A2.13,2.13,0,0,1,78.14,236Zm.21,3.26h4.12v12H78.35Z" fill="#fff"/><path d="M85.23,247.46V242.1H83.78v-2.81h1.45v-2.5h4.11v2.5h2.37v2.81H89.34v5c0,.88.44,1.27,1.22,1.27a3.05,3.05,0,0,0,1.17-.21v3.13a8.51,8.51,0,0,1-2.27.34C86.74,251.59,85.23,250.28,85.23,247.46Z" fill="#fff"/><path d="M92.63,245.46v-.19a6.16,6.16,0,0,1,6.51-6.3c3.29,0,6.12,1.89,6.12,6.21v1.08H96.79a2.41,2.41,0,0,0,2.51,2.51c1.36,0,1.93-.62,2.09-1.43h3.87c-.37,2.71-2.46,4.25-6.1,4.25S92.63,249.39,92.63,245.46Zm8.63-1.52c-.07-1.45-.79-2.26-2.12-2.26a2.3,2.3,0,0,0-2.3,2.26Z" fill="#fff"/><path d="M21.22,267.29h4.11v1.8A4.26,4.26,0,0,1,29.08,267c2.81,0,5.09,2.12,5.09,6.23v.19c0,4.14-2.28,6.2-5.11,6.2a4,4,0,0,1-3.73-2v5.79H21.22Zm8.76,6.1v-.19c0-2.11-.92-3.13-2.37-3.13s-2.39,1.09-2.39,3.11v.18c0,2.05.9,3.08,2.39,3.08S30,275.36,30,273.39Z" fill="#fff"/><path d="M35.66,267.29h4.12v2.39a3.79,3.79,0,0,1,3.88-2.55V271c-2.5-.07-3.88.71-3.88,2.65v5.7H35.66Z" fill="#fff"/><path d="M45.07,264a2.27,2.27,0,1,1,2.25,2.11A2.13,2.13,0,0,1,45.07,264Zm.21,3.26h4.11v12H45.28Z" fill="#fff"/><path d="M51,273.46v-.19a6,6,0,0,1,6.41-6.3c3,0,5.66,1.29,5.89,4.94H59.4a1.78,1.78,0,0,0-1.94-1.74c-1.44,0-2.29,1-2.29,3.06v.18c0,2.09.8,3.17,2.36,3.17a2,2,0,0,0,2.1-2h3.7c-.12,3-2.16,5-6,5C53.69,279.59,51,277.5,51,273.46Z" fill="#fff"/><path d="M64,273.46v-.19a6.16,6.16,0,0,1,6.51-6.3c3.29,0,6.12,1.89,6.12,6.21v1.08H68.18a2.41,2.41,0,0,0,2.51,2.51c1.36,0,1.93-.62,2.09-1.43h3.87c-.37,2.71-2.46,4.25-6.1,4.25S64,277.39,64,273.46Zm8.62-1.52c-.06-1.45-.78-2.26-2.11-2.26a2.3,2.3,0,0,0-2.3,2.26Z" fill="#fff"/><path d="M78,270.67a2.3,2.3,0,0,1,2.35-2.32,2.33,2.33,0,1,1,0,4.65A2.3,2.3,0,0,1,78,270.67Zm0,6.58a2.3,2.3,0,0,1,2.35-2.32,2.32,2.32,0,1,1,0,4.64A2.3,2.3,0,0,1,78,277.25Z" fill="#fff"/><path d="M21.84,298.1H20.32v-2.81h1.52v-1.06c0-3,1.86-4.41,4.71-4.41a7.27,7.27,0,0,1,1.89.25v3a3.88,3.88,0,0,0-1.13-.16,1.21,1.21,0,0,0-1.38,1.31v1.06h2.44v2.81H25.93v9.22H21.84Z" fill="#fff"/><path d="M29.75,295.29h4.12v2.39a3.79,3.79,0,0,1,3.88-2.55V299c-2.5-.07-3.88.71-3.88,2.65v5.7H29.75Z" fill="#fff"/><path d="M38.49,301.46v-.19A6.16,6.16,0,0,1,45,295c3.29,0,6.12,1.89,6.12,6.21v1.08H42.65a2.41,2.41,0,0,0,2.51,2.51c1.36,0,1.93-.62,2.09-1.43h3.87c-.37,2.71-2.46,4.25-6.1,4.25S38.49,305.39,38.49,301.46Zm8.62-1.52c-.06-1.45-.78-2.26-2.11-2.26a2.3,2.3,0,0,0-2.3,2.26Z" fill="#fff"/><path d="M51.9,301.46v-.19a6.15,6.15,0,0,1,6.51-6.3c3.29,0,6.11,1.89,6.11,6.21v1.08H56.06a2.41,2.41,0,0,0,2.51,2.51c1.36,0,1.93-.62,2.09-1.43h3.86c-.36,2.71-2.46,4.25-6.09,4.25S51.9,305.39,51.9,301.46Zm8.62-1.52c-.07-1.45-.78-2.26-2.11-2.26a2.3,2.3,0,0,0-2.3,2.26Z" fill="#fff"/><path d="M65.68,305.25A2.29,2.29,0,0,1,68,302.93a2.32,2.32,0,1,1,0,4.64A2.29,2.29,0,0,1,65.68,305.25Z" fill="#fff"/></g></g></g></svg>