<svg xmlns="http://www.w3.org/2000/svg" viewBox="0 0 728 90"><title>Asset 4</title><g id="Layer_2" data-name="Layer 2"><g id="Rect"><rect width="728" height="90" fill="none"/></g><g id="The_same_expertise_care_now_through_July_15." data-name="The same expertise &amp; care,  now through July 15."><path d="M122.48,20.32h-5.82v-5h18.11v5H129V37.83h-6.47Z" fill="#fff"/><path d="M136.62,14.16h5.62V24A5.8,5.8,0,0,1,147.65,21c3.17,0,5.37,2,5.37,6.19V37.83H147.4V28.27c0-1.85-.73-2.76-2.36-2.76s-2.8,1-2.8,3.11v9.21h-5.62Z" fill="#fff"/><path d="M154.87,29.81v-.25c0-5.28,3.93-8.61,8.9-8.61,4.49,0,8.36,2.58,8.36,8.49v1.47H160.56c.16,2.17,1.42,3.43,3.43,3.43,1.85,0,2.64-.85,2.86-2h5.28c-.5,3.71-3.36,5.82-8.33,5.82C158.65,38.21,154.87,35.19,154.87,29.81Zm11.79-2.07c-.09-2-1.07-3.08-2.89-3.08s-2.86,1.1-3.14,3.08Z" fill="#fff"/><path d="M178.7,32.61h5.18c.19,1.2.72,1.86,2.33,1.86,1.38,0,2-.54,2-1.36s-.79-1.16-3.05-1.47c-4.4-.57-6.25-1.86-6.25-5.28,0-3.65,3.23-5.41,7-5.41,4,0,6.88,1.38,7.26,5.31h-5.09A1.84,1.84,0,0,0,186,24.63c-1.23,0-1.86.53-1.86,1.29s.76,1.1,2.77,1.35c4.56.56,6.76,1.76,6.76,5.28,0,3.9-2.89,5.66-7.45,5.66S178.82,36.26,178.7,32.61Z" fill="#fff"/><path d="M194.57,33.27c0-3.86,3.26-5.37,8.73-5.37h1.58v-.38c0-1.57-.38-2.61-2.17-2.61a2,2,0,0,0-2.23,1.95h-5.29c.26-4,3.37-5.91,7.86-5.91s7.42,1.85,7.42,6.22V37.83H205V35.91a5.38,5.38,0,0,1-4.87,2.3C197.17,38.21,194.57,36.76,194.57,33.27Zm10.31-1.19v-1H203.4c-2.26,0-3.27.44-3.27,1.79,0,1,.63,1.54,2,1.54C203.68,34.4,204.88,33.49,204.88,32.08Z" fill="#fff"/><path d="M213.2,21.39h5.63V23.9A5.75,5.75,0,0,1,224,21a4.49,4.49,0,0,1,4.47,2.73A6.52,6.52,0,0,1,233.88,21c3.12,0,5.38,2,5.38,6.13V37.83h-5.63V28c0-1.66-.81-2.48-2.1-2.48A2.44,2.44,0,0,0,229,28.3v9.53h-5.56V28c0-1.66-.82-2.48-2.11-2.48-1.51,0-2.51,1-2.51,2.76v9.53H213.2Z" fill="#fff"/><path d="M241.11,29.81v-.25C241.11,24.28,245,21,250,21c4.5,0,8.36,2.58,8.36,8.49v1.47H246.8c.15,2.17,1.41,3.43,3.42,3.43s2.64-.85,2.86-2h5.28c-.5,3.71-3.36,5.82-8.32,5.82C244.88,38.21,241.11,35.19,241.11,29.81Zm11.79-2.07c-.1-2-1.07-3.08-2.9-3.08s-2.86,1.1-3.14,3.08Z" fill="#fff"/><path d="M265.15,29.81v-.25c0-5.28,3.93-8.61,8.89-8.61,4.5,0,8.37,2.58,8.37,8.49v1.47H270.84c.16,2.17,1.41,3.43,3.42,3.43s2.65-.85,2.87-2h5.28c-.51,3.71-3.37,5.82-8.33,5.82C268.92,38.21,265.15,35.19,265.15,29.81Zm11.79-2.07c-.1-2-1.07-3.08-2.9-3.08s-2.86,1.1-3.14,3.08Z" fill="#fff"/><path d="M287.62,29.47l-5.12-8.08H289l2.55,4.34L294,21.39h5.79L294.6,29l5.69,8.8h-6.48l-2.92-4.9-3,4.9h-5.75Z" fill="#fff"/><path d="M301.85,21.39h5.63v2.45A5.8,5.8,0,0,1,312.6,21c3.84,0,6.95,2.89,6.95,8.52v.25c0,5.66-3.11,8.49-7,8.49a5.43,5.43,0,0,1-5.09-2.8v7.92h-5.63Zm12,8.33v-.25c0-2.89-1.26-4.28-3.24-4.28s-3.27,1.48-3.27,4.25v.25c0,2.8,1.23,4.21,3.27,4.21S313.83,32.42,313.83,29.72Z" fill="#fff"/><path d="M320.71,29.81v-.25c0-5.28,3.93-8.61,8.9-8.61,4.49,0,8.36,2.58,8.36,8.49v1.47H326.4c.16,2.17,1.41,3.43,3.43,3.43,1.85,0,2.64-.85,2.86-2H338c-.51,3.71-3.37,5.82-8.33,5.82C324.48,38.21,320.71,35.19,320.71,29.81Zm11.79-2.07c-.1-2-1.07-3.08-2.89-3.08s-2.86,1.1-3.15,3.08Z" fill="#fff"/><path d="M339.91,21.39h5.63v3.27a5.18,5.18,0,0,1,5.31-3.49v5.25c-3.43-.1-5.31,1-5.31,3.61v7.8h-5.63Z" fill="#fff"/><path d="M353.9,32.55V25.22h-2V21.39h2V18h5.62v3.43h3.24v3.83h-3.24V32a1.5,1.5,0,0,0,1.67,1.73,4.23,4.23,0,0,0,1.6-.28v4.27a11.66,11.66,0,0,1-3.11.48C356,38.21,353.9,36.41,353.9,32.55Z" fill="#fff"/><path d="M364.77,16.93a3.1,3.1,0,1,1,3.08,2.89A2.94,2.94,0,0,1,364.77,16.93Zm.28,4.46h5.63V37.83h-5.63Z" fill="#fff"/><path d="M372.59,32.61h5.19c.19,1.2.72,1.86,2.33,1.86,1.38,0,2-.54,2-1.36s-.79-1.16-3.05-1.47c-4.4-.57-6.25-1.86-6.25-5.28,0-3.65,3.23-5.41,7-5.41,4.05,0,6.88,1.38,7.26,5.31H382a1.84,1.84,0,0,0-2.11-1.63c-1.23,0-1.86.53-1.86,1.29s.76,1.1,2.77,1.35c4.56.56,6.76,1.76,6.76,5.28,0,3.9-2.89,5.66-7.45,5.66S372.72,36.26,372.59,32.61Z" fill="#fff"/><path d="M388.62,29.81v-.25c0-5.28,3.93-8.61,8.9-8.61,4.49,0,8.36,2.58,8.36,8.49v1.47H394.31c.16,2.17,1.42,3.43,3.43,3.43,1.85,0,2.64-.85,2.86-2h5.28c-.5,3.71-3.36,5.82-8.33,5.82C392.39,38.21,388.62,35.19,388.62,29.81Zm11.79-2.07c-.1-2-1.07-3.08-2.89-3.08s-2.86,1.1-3.15,3.08Z" fill="#fff"/><path d="M431.74,33.24l3.74,4.59h-7.32l-1.32-1.64a8.92,8.92,0,0,1-6.07,2c-4.78,0-7.89-2.52-7.89-6.79,0-2.9,1.76-5,4.94-6.54A7.13,7.13,0,0,1,416.43,21c0-3.84,3.27-5.88,7.23-5.88,3.59,0,6.82,1.79,6.82,5.25,0,2.45-1.44,4.24-4.49,5.56l2.83,3.46,1.63-3.2h4.91ZM424,32.58l-3.56-4.28a2.69,2.69,0,0,0-1.5,2.43,2.6,2.6,0,0,0,2.86,2.79A3,3,0,0,0,424,32.58Zm-.7-9c1.51-.73,2.24-1.57,2.24-2.74a1.62,1.62,0,0,0-1.67-1.73A1.79,1.79,0,0,0,422,21,4.14,4.14,0,0,0,423.25,23.53Z" fill="#fff"/><path d="M441.86,29.81v-.25c0-5.47,3.93-8.61,8.77-8.61,4,0,7.73,1.76,8,6.76h-5.28a2.43,2.43,0,0,0-2.64-2.39c-2,0-3.14,1.41-3.14,4.18v.25c0,2.86,1.1,4.34,3.24,4.34a2.74,2.74,0,0,0,2.86-2.74h5.06c-.16,4.15-3,6.86-8.27,6.86C445.6,38.21,441.86,35.35,441.86,29.81Z" fill="#fff"/><path d="M459.74,33.27c0-3.86,3.27-5.37,8.74-5.37h1.57v-.38c0-1.57-.38-2.61-2.17-2.61a2,2,0,0,0-2.23,1.95h-5.28c.25-4,3.36-5.91,7.86-5.91s7.41,1.85,7.41,6.22V37.83h-5.47V35.91a5.38,5.38,0,0,1-4.87,2.3C462.35,38.21,459.74,36.76,459.74,33.27Zm10.31-1.19v-1h-1.48c-2.26,0-3.27.44-3.27,1.79,0,1,.63,1.54,1.95,1.54C468.85,34.4,470.05,33.49,470.05,32.08Z" fill="#fff"/><path d="M478.38,21.39H484v3.27a5.19,5.19,0,0,1,5.31-3.49v5.25c-3.42-.1-5.31,1-5.31,3.61v7.8h-5.62Z" fill="#fff"/><path d="M490.32,29.81v-.25c0-5.28,3.93-8.61,8.89-8.61,4.5,0,8.36,2.58,8.36,8.49v1.47H496c.15,2.17,1.41,3.43,3.42,3.43s2.64-.85,2.86-2h5.28c-.5,3.71-3.36,5.82-8.33,5.82C494.09,38.21,490.32,35.19,490.32,29.81Zm11.78-2.07c-.09-2-1.06-3.08-2.89-3.08s-2.86,1.1-3.14,3.08Z" fill="#fff"/><path d="M508.2,40.38l2.64-8.27L516.06,34l-4.53,7.7Z" fill="#fff"/><path d="M117.67,56.14h5.62v2.64a5.8,5.8,0,0,1,5.41-3.08c3.17,0,5.37,2,5.37,6.19V72.58h-5.62V63c0-1.85-.73-2.76-2.36-2.76s-2.8,1-2.8,3.11v9.21h-5.62Z" fill="#fff"/><path d="M135.92,64.56v-.25c0-5.28,3.93-8.61,9-8.61s9,3.24,9,8.45v.26c0,5.34-3.92,8.55-9,8.55S135.92,69.88,135.92,64.56Zm12.26-.09v-.25c0-2.77-1.1-4.31-3.23-4.31s-3.27,1.48-3.27,4.24v.26c0,2.82,1.1,4.36,3.27,4.36S148.18,67.2,148.18,64.47Z" fill="#fff"/><path d="M154,56.14h5.88L162.23,66,165,56.14h4.52L172,66l2.68-9.84H180l-5.22,16.44H169.4l-2.46-9.18-2.54,9.18h-5.47Z" fill="#fff"/><path d="M187.9,67.3V60h-2V56.14h2V52.71h5.63v3.43h3.24V60h-3.24v6.79a1.5,1.5,0,0,0,1.67,1.73,4.26,4.26,0,0,0,1.6-.28v4.27a11.66,11.66,0,0,1-3.11.48C190,73,187.9,71.16,187.9,67.3Z" fill="#fff"/><path d="M198.9,48.91h5.63v9.87a5.8,5.8,0,0,1,5.41-3.08c3.17,0,5.37,2,5.37,6.19V72.58h-5.63V63c0-1.85-.72-2.76-2.35-2.76s-2.8,1-2.8,3.11v9.21H198.9Z" fill="#fff"/><path d="M218,56.14h5.63v3.27A5.17,5.17,0,0,1,229,55.92v5.25c-3.43-.1-5.31,1-5.31,3.61v7.8H218Z" fill="#fff"/><path d="M230,64.56v-.25c0-5.28,3.93-8.61,9-8.61s9,3.24,9,8.45v.26C248,69.75,244,73,239,73S230,69.88,230,64.56Zm12.26-.09v-.25c0-2.77-1.1-4.31-3.24-4.31s-3.26,1.48-3.26,4.24v.26c0,2.82,1.1,4.36,3.26,4.36S242.24,67.2,242.24,64.47Z" fill="#fff"/><path d="M249.81,66.86V56.14h5.63V66c0,1.85.72,2.76,2.33,2.76s2.79-1,2.79-3.11V56.14h5.63V72.58h-5.63V70A5.39,5.39,0,0,1,255.35,73C252.17,73,249.81,71,249.81,66.86Z" fill="#fff"/><path d="M268.13,72.58h5.6c.25,1.19,1,2.14,3,2.14,2.48,0,3.49-1.42,3.49-3.46V68.74a5.77,5.77,0,0,1-5.1,3c-3.83,0-7-2.83-7-7.89v-.25c0-4.84,3.11-7.92,7-7.92a5.37,5.37,0,0,1,5.1,2.76V56.14h5.62V71.2c0,4.9-3.23,7.48-9.11,7.48C271.15,78.68,268.57,76.32,268.13,72.58Zm12.26-8.74v-.22c0-2.26-1.16-3.71-3.23-3.71s-3.24,1.48-3.24,3.74v.25c0,2.27,1.19,3.71,3.2,3.71S280.39,66.17,280.39,63.84Z" fill="#fff"/><path d="M288.72,48.91h5.63v9.87a5.79,5.79,0,0,1,5.4-3.08c3.18,0,5.38,2,5.38,6.19V72.58H299.5V63c0-1.85-.72-2.76-2.36-2.76s-2.79,1-2.79,3.11v9.21h-5.63Z" fill="#fff"/><path d="M313,72.11V67.3a7.59,7.59,0,0,0,2.73.44c1.76,0,2.93-.79,2.93-3.11V50.1h6.47V64.69c0,5.4-2.77,8.17-8.05,8.17A8.64,8.64,0,0,1,313,72.11Z" fill="#fff"/><path d="M327.91,66.86V56.14h5.62V66c0,1.85.73,2.76,2.33,2.76s2.8-1,2.8-3.11V56.14h5.62V72.58h-5.62V70A5.41,5.41,0,0,1,333.44,73C330.26,73,327.91,71,327.91,66.86Z" fill="#fff"/><path d="M347.3,48.91h5.59V72.58H347.3Z" fill="#fff"/><path d="M361.06,70.91l-6.57-14.77h6.1l3.4,8.77,3.14-8.77h5.37l-8.8,21.94h-5.37Z" fill="#fff"/><path d="M383.28,56.45,379,59.09V53.72l5.16-3.62h5.56V72.58h-6.44Z" fill="#fff"/><path d="M392.49,65.51h5.84c.22,1.57.85,2.6,2.93,2.6,1.85,0,2.7-1.38,2.7-3.17,0-2-1.1-3.21-3-3.21a4.61,4.61,0,0,0-3.71,1.61h-3.83l.47-13.24H409v4.72h-10.5l-.13,5a6,6,0,0,1,5.25-2.39c4.12,0,6.82,2.76,6.82,7.63S407,73,401.32,73C395.35,73,392.64,69.72,392.49,65.51Z" fill="#fff"/><path d="M411.44,69.75a3.14,3.14,0,0,1,3.2-3.18,3.18,3.18,0,1,1,0,6.35A3.13,3.13,0,0,1,411.44,69.75Z" fill="#fff"/></g></g></svg>