<svg xmlns="http://www.w3.org/2000/svg" viewBox="0 0 728 90"><title>134</title><g id="Layer_2" data-name="Layer 2"><g id="Rect"><rect width="728" height="90" fill="none"/></g><g id="_H_R_Block_Free_Online_supports_more_forms_and_deductions_at" data-name="&quot;H&amp;R Block Free [Online] supports more  forms and deductions…at"><path d="M108.21,23.81h3.59l-.45,5.89h-2.71Zm4.54,0h3.61l-.45,5.89H113.2Z" fill="#fff"/><path d="M118.69,23.81h4.41v5.84h5V23.81h4.38V39.12h-4.38v-6h-5v6h-4.41Z" fill="#fff"/><path d="M147.53,36l2.54,3.13h-5l-.9-1.12a6.12,6.12,0,0,1-4.14,1.37c-3.25,0-5.37-1.71-5.37-4.62,0-2,1.2-3.43,3.36-4.46a4.88,4.88,0,0,1-.94-2.67c0-2.61,2.23-4,4.92-4,2.44,0,4.65,1.22,4.65,3.57,0,1.67-1,2.89-3.06,3.79l1.93,2.35,1.11-2.18H150Zm-5.31-.45-2.42-2.91a1.81,1.81,0,0,0-1,1.65,1.77,1.77,0,0,0,1.95,1.9A2,2,0,0,0,142.22,35.54Zm-.47-6.17c1-.49,1.52-1.07,1.52-1.86a1.11,1.11,0,0,0-1.14-1.18,1.22,1.22,0,0,0-1.26,1.33A2.77,2.77,0,0,0,141.75,29.37Z" fill="#fff"/><path d="M151.78,23.81h6c4,0,6.23,1.63,6.23,4.86v.08a4,4,0,0,1-2.77,4l3.66,6.34h-4.62l-3.1-5.49h-1v5.49h-4.37Zm5.78,7c1.48,0,2.21-.62,2.21-1.87v-.08c0-1.24-.77-1.73-2.19-1.73h-1.43v3.68Z" fill="#fff"/><path d="M170.91,23.81h6.83c3.62,0,5.16,1.63,5.16,4v.09a3.15,3.15,0,0,1-2.59,3.29,3.33,3.33,0,0,1,3.06,3.58v.08c0,2.75-1.77,4.27-5.56,4.27h-6.9Zm6,6.08c1.37,0,1.88-.47,1.88-1.56v-.09c0-1-.56-1.52-1.88-1.52H175.2v3.17Zm.15,6.29c1.39,0,2-.64,2-1.77v-.09c0-1.16-.62-1.76-2.16-1.76H175.2v3.62Z" fill="#fff"/><path d="M185.21,23H189V39.12h-3.81Z" fill="#fff"/><path d="M190.8,33.66v-.18c0-3.59,2.67-5.86,6.14-5.86s6.1,2.2,6.1,5.76v.17c0,3.64-2.68,5.82-6.12,5.82S190.8,37.27,190.8,33.66Zm8.34-.07v-.17c0-1.88-.74-2.93-2.2-2.93s-2.23,1-2.23,2.89v.17c0,1.93.75,3,2.23,3S199.14,35.45,199.14,33.59Z" fill="#fff"/><path d="M204.11,33.66v-.18a5.63,5.63,0,0,1,6-5.86c2.74,0,5.27,1.2,5.48,4.6H212a1.65,1.65,0,0,0-1.79-1.63c-1.35,0-2.15,1-2.15,2.85v.17c0,2,.75,3,2.21,3a1.87,1.87,0,0,0,2-1.86h3.44c-.1,2.82-2,4.66-5.63,4.66C206.65,39.37,204.11,37.42,204.11,33.66Z" fill="#fff"/><path d="M217.18,23H221v9.35l3-4.43h4l-3.67,5,4,6.17H224l-3-4.91v4.91h-3.84Z" fill="#fff"/><path d="M234.09,23.81h10.34v3.4H238.5v3.26h4.73V33.7H238.5v5.42h-4.41Z" fill="#fff"/><path d="M245.78,27.92h3.83v2.23a3.53,3.53,0,0,1,3.62-2.38v3.57c-2.34-.06-3.62.67-3.62,2.47v5.31h-3.83Z" fill="#fff"/><path d="M254.23,33.66v-.18a5.73,5.73,0,0,1,6.06-5.86c3.06,0,5.69,1.75,5.69,5.78v1H258.1a2.24,2.24,0,0,0,2.34,2.33c1.26,0,1.8-.58,1.95-1.33H266c-.34,2.53-2.29,4-5.67,4S254.23,37.32,254.23,33.66Zm8-1.42c-.07-1.35-.73-2.09-2-2.09a2.12,2.12,0,0,0-2.14,2.09Z" fill="#fff"/><path d="M267,33.66v-.18a5.72,5.72,0,0,1,6.06-5.86c3.06,0,5.69,1.75,5.69,5.78v1H270.9a2.24,2.24,0,0,0,2.34,2.33c1.26,0,1.79-.58,1.94-1.33h3.6c-.34,2.53-2.29,4-5.67,4S267,37.32,267,33.66Zm8-1.42c-.06-1.35-.72-2.09-2-2.09a2.13,2.13,0,0,0-2.15,2.09Z" fill="#fff"/><path d="M284.92,22.5h6.53v2.81h-2.68V39.48h2.68v2.8h-6.53Z" fill="#fff"/><path d="M292.92,31.56v-.17c0-4.67,3.51-7.8,8.09-7.8s8.12,2.94,8.12,7.69v.17c0,4.71-3.23,7.92-8.18,7.92S292.92,36.16,292.92,31.56Zm11.63,0v-.18c0-2.71-1.37-4.32-3.54-4.32s-3.51,1.56-3.51,4.35v.17c0,2.78,1.42,4.39,3.54,4.39S304.55,34.26,304.55,31.52Z" fill="#fff"/><path d="M310.92,27.92h3.83v1.8a4,4,0,0,1,3.69-2.1c2.16,0,3.66,1.35,3.66,4.22v7.28h-3.84V32.61c0-1.27-.49-1.89-1.6-1.89s-1.91.69-1.91,2.12v6.28h-3.83Z" fill="#fff"/><path d="M324.38,23h3.81V39.12h-3.81Z" fill="#fff"/><path d="M330.48,24.88a2.11,2.11,0,1,1,2.1,2A2,2,0,0,1,330.48,24.88Zm.19,3h3.84v11.2h-3.84Z" fill="#fff"/><path d="M336.88,27.92h3.83v1.8a4,4,0,0,1,3.69-2.1c2.16,0,3.66,1.35,3.66,4.22v7.28h-3.84V32.61c0-1.27-.49-1.89-1.6-1.89s-1.91.69-1.91,2.12v6.28h-3.83Z" fill="#fff"/><path d="M349.64,33.66v-.18a5.72,5.72,0,0,1,6.05-5.86c3.07,0,5.7,1.75,5.7,5.78v1h-7.88a2.24,2.24,0,0,0,2.33,2.33c1.27,0,1.8-.58,2-1.33h3.6c-.34,2.53-2.29,4-5.67,4S349.64,37.32,349.64,33.66Zm8-1.42c-.06-1.35-.72-2.09-2-2.09a2.13,2.13,0,0,0-2.14,2.09Z" fill="#fff"/><path d="M362.52,39.48h2.65V25.31h-2.65V22.5H369V42.28h-6.51Z" fill="#fff"/><path d="M375,35.56h3.53c.13.82.49,1.26,1.59,1.26.94,0,1.37-.36,1.37-.92s-.54-.79-2.08-1c-3-.39-4.26-1.27-4.26-3.6s2.2-3.68,4.8-3.68c2.76,0,4.68.94,4.94,3.62h-3.47A1.25,1.25,0,0,0,380,30.12c-.84,0-1.27.37-1.27.88s.52.75,1.89.92c3.1.39,4.6,1.2,4.6,3.6,0,2.65-2,3.85-5.07,3.85S375.13,38,375,35.56Z" fill="#fff"/><path d="M386.72,35.22v-7.3h3.84V34.6c0,1.26.49,1.88,1.58,1.88s1.91-.68,1.91-2.12V27.92h3.83v11.2h-3.83V37.38a3.67,3.67,0,0,1-3.56,2C388.33,39.37,386.72,38,386.72,35.22Z" fill="#fff"/><path d="M400.14,27.92H404v1.67a3.94,3.94,0,0,1,3.48-2c2.62,0,4.74,2,4.74,5.8v.17c0,3.86-2.12,5.78-4.76,5.78a3.68,3.68,0,0,1-3.46-1.9v5.39h-3.84Zm8.16,5.67v-.17c0-2-.86-2.91-2.21-2.91s-2.22,1-2.22,2.89v.17c0,1.91.83,2.87,2.22,2.87S408.3,35.43,408.3,33.59Z" fill="#fff"/><path d="M413.9,27.92h3.84v1.67a3.94,3.94,0,0,1,3.49-2c2.61,0,4.73,2,4.73,5.8v.17c0,3.86-2.12,5.78-4.76,5.78a3.68,3.68,0,0,1-3.46-1.9v5.39H413.9Zm8.16,5.67v-.17c0-2-.86-2.91-2.2-2.91s-2.23,1-2.23,2.89v.17c0,1.91.83,2.87,2.23,2.87S422.06,35.43,422.06,33.59Z" fill="#fff"/><path d="M427.07,33.66v-.18c0-3.59,2.67-5.86,6.14-5.86s6.1,2.2,6.1,5.76v.17c0,3.64-2.68,5.82-6.12,5.82S427.07,37.27,427.07,33.66Zm8.35-.07v-.17c0-1.88-.75-2.93-2.21-2.93s-2.23,1-2.23,2.89v.17c0,1.93.75,3,2.23,3S435.42,35.45,435.42,33.59Z" fill="#fff"/><path d="M441,27.92h3.83v2.23a3.53,3.53,0,0,1,3.62-2.38v3.57c-2.34-.06-3.62.67-3.62,2.47v5.31H441Z" fill="#fff"/><path d="M450.82,35.52v-5h-1.35V27.92h1.35V25.59h3.83v2.33h2.21v2.61h-2.21v4.62a1,1,0,0,0,1.14,1.18,2.86,2.86,0,0,0,1.09-.19v2.91a8,8,0,0,1-2.12.32C452.23,39.37,450.82,38.15,450.82,35.52Z" fill="#fff"/><path d="M458,35.56h3.54c.12.82.49,1.26,1.58,1.26s1.37-.36,1.37-.92-.54-.79-2.08-1c-3-.39-4.26-1.27-4.26-3.6s2.21-3.68,4.8-3.68c2.76,0,4.69.94,4.94,3.62h-3.46A1.26,1.26,0,0,0,463,30.12c-.83,0-1.26.37-1.26.88s.51.75,1.88.92c3.11.39,4.6,1.2,4.6,3.6,0,2.65-2,3.85-5.07,3.85S458.12,38,458,35.56Z" fill="#fff"/><path d="M474,27.92h3.83v1.71a3.92,3.92,0,0,1,3.51-2,3,3,0,0,1,3,1.86,4.46,4.46,0,0,1,3.71-1.86c2.12,0,3.66,1.37,3.66,4.17v7.33h-3.84V32.44c0-1.14-.55-1.7-1.43-1.7a1.66,1.66,0,0,0-1.71,1.89v6.49H481V32.44c0-1.14-.56-1.7-1.44-1.7a1.67,1.67,0,0,0-1.71,1.89v6.49H474Z" fill="#fff"/><path d="M493.34,33.66v-.18c0-3.59,2.68-5.86,6.15-5.86s6.1,2.2,6.1,5.76v.17c0,3.64-2.68,5.82-6.12,5.82S493.34,37.27,493.34,33.66Zm8.35-.07v-.17c0-1.88-.75-2.93-2.2-2.93s-2.23,1-2.23,2.89v.17c0,1.93.75,3,2.23,3S501.69,35.45,501.69,33.59Z" fill="#fff"/><path d="M507.26,27.92h3.83v2.23a3.53,3.53,0,0,1,3.62-2.38v3.57c-2.34-.06-3.62.67-3.62,2.47v5.31h-3.83Z" fill="#fff"/><path d="M515.71,33.66v-.18a5.73,5.73,0,0,1,6.06-5.86c3.06,0,5.69,1.75,5.69,5.78v1h-7.88a2.24,2.24,0,0,0,2.34,2.33c1.26,0,1.8-.58,2-1.33h3.59c-.34,2.53-2.29,4-5.67,4S515.71,37.32,515.71,33.66Zm8-1.42c-.07-1.35-.73-2.09-2-2.09a2.12,2.12,0,0,0-2.14,2.09Z" fill="#fff"/><path d="M109,52.72h-1.41V50.11H109v-1c0-2.78,1.74-4.11,4.39-4.11a7.3,7.3,0,0,1,1.76.23v2.81a3.39,3.39,0,0,0-1-.15,1.13,1.13,0,0,0-1.29,1.22v1h2.27v2.61h-2.27v8.59H109Z" fill="#fff"/><path d="M115.74,55.85v-.17c0-3.6,2.68-5.87,6.15-5.87S128,52,128,55.57v.17c0,3.64-2.68,5.83-6.13,5.83S115.74,59.47,115.74,55.85Zm8.35-.06v-.17c0-1.89-.75-2.94-2.2-2.94s-2.23,1-2.23,2.89v.17c0,1.93.75,3,2.23,3S124.09,57.65,124.09,55.79Z" fill="#fff"/><path d="M129.65,50.11h3.83v2.23A3.54,3.54,0,0,1,137.1,50v3.58c-2.33-.07-3.62.66-3.62,2.46v5.31h-3.83Z" fill="#fff"/><path d="M138.81,50.11h3.83v1.72a3.92,3.92,0,0,1,3.51-2,3,3,0,0,1,3,1.87,4.45,4.45,0,0,1,3.71-1.87c2.12,0,3.66,1.37,3.66,4.18v7.32h-3.83V54.63c0-1.13-.56-1.69-1.44-1.69a1.65,1.65,0,0,0-1.71,1.88v6.49h-3.79V54.63c0-1.13-.56-1.69-1.43-1.69a1.66,1.66,0,0,0-1.72,1.88v6.49h-3.83Z" fill="#fff"/><path d="M158,57.76h3.53c.13.81.49,1.26,1.58,1.26s1.37-.36,1.37-.92-.53-.79-2.07-1c-3-.38-4.26-1.26-4.26-3.59,0-2.49,2.2-3.69,4.79-3.69,2.76,0,4.69.95,4.95,3.62h-3.47A1.25,1.25,0,0,0,163,52.32c-.84,0-1.27.36-1.27.88s.52.75,1.89.92c3.1.38,4.6,1.2,4.6,3.59,0,2.66-2,3.86-5.07,3.86S158.07,60.24,158,57.76Z" fill="#fff"/><path d="M173.33,58.21c0-2.64,2.23-3.67,5.95-3.67h1.07v-.25c0-1.07-.25-1.78-1.47-1.78a1.37,1.37,0,0,0-1.52,1.33h-3.6c.17-2.7,2.29-4,5.35-4s5,1.27,5,4.24v7.26h-3.72V60a3.67,3.67,0,0,1-3.32,1.57C175.11,61.57,173.33,60.58,173.33,58.21Zm7-.82v-.68h-1c-1.54,0-2.23.3-2.23,1.22,0,.64.43,1,1.33,1A1.68,1.68,0,0,0,180.35,57.39Z" fill="#fff"/><path d="M186.34,50.11h3.84v1.8a4,4,0,0,1,3.68-2.1c2.16,0,3.66,1.35,3.66,4.22v7.28h-3.83V54.8c0-1.26-.49-1.88-1.61-1.88s-1.9.68-1.9,2.12v6.27h-3.84Z" fill="#fff"/><path d="M199.14,55.83v-.17c0-3.81,2.1-5.85,4.76-5.85a3.62,3.62,0,0,1,3.44,1.89V45.19h3.83V61.31h-3.83V59.49a3.76,3.76,0,0,1-3.49,2.08C201.26,61.57,199.14,59.7,199.14,55.83Zm8.31-.07v-.17c0-1.88-.79-2.89-2.21-2.89s-2.2,1-2.2,2.92v.17c0,1.88.83,2.84,2.16,2.84S207.45,57.67,207.45,55.76Z" fill="#fff"/><path d="M217.1,55.83v-.17c0-3.81,2.1-5.85,4.75-5.85a3.63,3.63,0,0,1,3.45,1.89V45.19h3.83V61.31H225.3V59.49a3.77,3.77,0,0,1-3.49,2.08C219.22,61.57,217.1,59.7,217.1,55.83Zm8.3-.07v-.17c0-1.88-.79-2.89-2.2-2.89s-2.21,1-2.21,2.92v.17c0,1.88.84,2.84,2.17,2.84S225.4,57.67,225.4,55.76Z" fill="#fff"/><path d="M230.79,55.85v-.17a5.73,5.73,0,0,1,6.06-5.87c3.07,0,5.7,1.76,5.7,5.78v1h-7.88A2.23,2.23,0,0,0,237,58.93c1.27,0,1.8-.57,1.95-1.32h3.6c-.34,2.52-2.29,4-5.67,4S230.79,59.51,230.79,55.85Zm8-1.41c-.06-1.35-.72-2.1-2-2.1a2.14,2.14,0,0,0-2.14,2.1Z" fill="#fff"/><path d="M243.64,55.83v-.17c0-3.81,2.09-5.85,4.75-5.85a3.62,3.62,0,0,1,3.44,1.89V45.19h3.84V61.31h-3.84V59.49a3.75,3.75,0,0,1-3.48,2.08C245.75,61.57,243.64,59.7,243.64,55.83Zm8.3-.07v-.17c0-1.88-.79-2.89-2.2-2.89s-2.21,1-2.21,2.92v.17c0,1.88.84,2.84,2.16,2.84S251.94,57.67,251.94,55.76Z" fill="#fff"/><path d="M257.85,57.41v-7.3h3.83v6.68c0,1.27.49,1.89,1.58,1.89s1.91-.69,1.91-2.12V50.11H269v11.2h-3.83V59.58a3.69,3.69,0,0,1-3.56,2C259.45,61.57,257.85,60.24,257.85,57.41Z" fill="#fff"/><path d="M270.67,55.85v-.17a5.63,5.63,0,0,1,6-5.87c2.74,0,5.26,1.2,5.48,4.61h-3.6a1.65,1.65,0,0,0-1.8-1.63c-1.34,0-2.14,1-2.14,2.85v.17c0,1.95.75,2.95,2.21,2.95a1.87,1.87,0,0,0,1.95-1.86h3.44c-.1,2.83-2,4.67-5.63,4.67C273.21,61.57,270.67,59.62,270.67,55.85Z" fill="#fff"/><path d="M284.26,57.71v-5h-1.35V50.11h1.35V47.78h3.83v2.33h2.2v2.61h-2.2v4.63c0,.81.4,1.18,1.13,1.18a2.86,2.86,0,0,0,1.09-.2v2.92a8.4,8.4,0,0,1-2.12.32C285.67,61.57,284.26,60.35,284.26,57.71Z" fill="#fff"/><path d="M292,47.07a2.11,2.11,0,1,1,2.1,2A2,2,0,0,1,292,47.07Zm.19,3H296v11.2h-3.84Z" fill="#fff"/><path d="M297.78,55.85v-.17c0-3.6,2.68-5.87,6.15-5.87S310,52,310,55.57v.17c0,3.64-2.68,5.83-6.13,5.83S297.78,59.47,297.78,55.85Zm8.35-.06v-.17c0-1.89-.75-2.94-2.2-2.94s-2.23,1-2.23,2.89v.17c0,1.93.75,3,2.23,3S306.13,57.65,306.13,55.79Z" fill="#fff"/><path d="M311.69,50.11h3.83v1.8a4,4,0,0,1,3.69-2.1c2.16,0,3.66,1.35,3.66,4.22v7.28H319V54.8c0-1.26-.5-1.88-1.61-1.88s-1.91.68-1.91,2.12v6.27h-3.83Z" fill="#fff"/><path d="M324.3,57.76h3.53c.13.81.49,1.26,1.58,1.26s1.37-.36,1.37-.92-.53-.79-2.07-1c-3-.38-4.26-1.26-4.26-3.59,0-2.49,2.2-3.69,4.79-3.69,2.76,0,4.69.95,4.95,3.62h-3.47a1.25,1.25,0,0,0-1.43-1.11c-.84,0-1.27.36-1.27.88s.52.75,1.89.92c3.1.38,4.6,1.2,4.6,3.59,0,2.66-2,3.86-5.07,3.86S324.38,60.24,324.3,57.76Z" fill="#fff"/><path d="M335.92,59.38a2.13,2.13,0,0,1,2.18-2.16,2.16,2.16,0,1,1,0,4.32A2.13,2.13,0,0,1,335.92,59.38Zm6.36,0a2.13,2.13,0,0,1,2.18-2.16,2.16,2.16,0,1,1,0,4.32A2.13,2.13,0,0,1,342.28,59.38Zm6.35,0a2.14,2.14,0,0,1,2.19-2.16,2.16,2.16,0,1,1,0,4.32A2.14,2.14,0,0,1,348.63,59.38Z" fill="#fff"/><path d="M354.54,58.21c0-2.64,2.22-3.67,5.95-3.67h1.07v-.25c0-1.07-.26-1.78-1.48-1.78a1.38,1.38,0,0,0-1.52,1.33H355c.17-2.7,2.29-4,5.35-4s5.05,1.27,5.05,4.24v7.26h-3.72V60a3.67,3.67,0,0,1-3.32,1.57C356.31,61.57,354.54,60.58,354.54,58.21Zm7-.82v-.68h-1c-1.54,0-2.22.3-2.22,1.22,0,.64.42,1,1.32,1C360.75,59,361.56,58.36,361.56,57.39Z" fill="#fff"/><path d="M368,57.71v-5h-1.35V50.11H368V47.78h3.83v2.33H374v2.61h-2.21v4.63A1,1,0,0,0,373,58.53a2.94,2.94,0,0,0,1.09-.2v2.92a8.4,8.4,0,0,1-2.12.32C369.41,61.57,368,60.35,368,57.71Z" fill="#fff"/><path d="M380,50.11h3.83v1.8a4,4,0,0,1,3.68-2.1c2.16,0,3.66,1.35,3.66,4.22v7.28h-3.83V54.8c0-1.26-.49-1.88-1.61-1.88s-1.9.68-1.9,2.12v6.27H380Z" fill="#fff"/><path d="M392.78,55.85v-.17c0-3.6,2.68-5.87,6.15-5.87S405,52,405,55.57v.17c0,3.64-2.68,5.83-6.13,5.83S392.78,59.47,392.78,55.85Zm8.35-.06v-.17c0-1.89-.75-2.94-2.2-2.94s-2.23,1-2.23,2.89v.17c0,1.93.75,3,2.23,3S401.13,57.65,401.13,55.79Z" fill="#fff"/><path d="M410.31,55.85v-.17a5.73,5.73,0,0,1,6.06-5.87c3.06,0,5.69,1.76,5.69,5.78v1h-7.88a2.24,2.24,0,0,0,2.34,2.33c1.26,0,1.8-.57,1.94-1.32h3.6c-.34,2.52-2.29,4-5.67,4S410.31,59.51,410.31,55.85Zm8-1.41c-.07-1.35-.73-2.1-2-2.1a2.13,2.13,0,0,0-2.14,2.1Z" fill="#fff"/><path d="M425.93,55.62l-3.49-5.51h4.41l1.74,3,1.69-3h3.94l-3.53,5.21,3.87,6h-4.41l-2-3.34-2,3.34h-3.92Z" fill="#fff"/><path d="M436.31,57.71v-5H435V50.11h1.35V47.78h3.83v2.33h2.21v2.61h-2.21v4.63a1,1,0,0,0,1.14,1.18,2.86,2.86,0,0,0,1.09-.2v2.92a8.4,8.4,0,0,1-2.12.32C437.72,61.57,436.31,60.35,436.31,57.71Z" fill="#fff"/><path d="M444.12,50.11H448v2.23A3.52,3.52,0,0,1,451.57,50v3.58c-2.33-.07-3.61.66-3.61,2.46v5.31h-3.84Z" fill="#fff"/><path d="M452.38,58.21c0-2.64,2.23-3.67,6-3.67h1.07v-.25c0-1.07-.26-1.78-1.48-1.78a1.38,1.38,0,0,0-1.52,1.33h-3.6c.17-2.7,2.29-4,5.36-4s5.05,1.27,5.05,4.24v7.26h-3.73V60a3.66,3.66,0,0,1-3.32,1.57C454.16,61.57,452.38,60.58,452.38,58.21Zm7-.82v-.68h-1c-1.54,0-2.23.3-2.23,1.22,0,.64.43,1,1.33,1A1.69,1.69,0,0,0,459.41,57.39Z" fill="#fff"/><path d="M469,55.85v-.17a5.64,5.64,0,0,1,6-5.87c2.74,0,5.26,1.2,5.48,4.61h-3.6a1.65,1.65,0,0,0-1.8-1.63c-1.35,0-2.14,1-2.14,2.85v.17c0,1.95.75,2.95,2.21,2.95a1.85,1.85,0,0,0,1.94-1.86h3.45c-.11,2.83-2,4.67-5.63,4.67C471.56,61.57,469,59.62,469,55.85Z" fill="#fff"/><path d="M481.49,55.85v-.17c0-3.6,2.68-5.87,6.14-5.87s6.11,2.21,6.11,5.76v.17c0,3.64-2.68,5.83-6.13,5.83S481.49,59.47,481.49,55.85Zm8.35-.06v-.17c0-1.89-.75-2.94-2.21-2.94s-2.22,1-2.22,2.89v.17c0,1.93.75,3,2.22,3S489.84,57.65,489.84,55.79Z" fill="#fff"/><path d="M494.72,57.76h3.53c.13.81.49,1.26,1.58,1.26s1.37-.36,1.37-.92-.53-.79-2.07-1c-3-.38-4.26-1.26-4.26-3.59,0-2.49,2.2-3.69,4.79-3.69,2.76,0,4.69.95,4.95,3.62h-3.47a1.25,1.25,0,0,0-1.44-1.11c-.83,0-1.26.36-1.26.88s.51.75,1.88.92c3.11.38,4.61,1.2,4.61,3.59,0,2.66-2,3.86-5.08,3.86S494.8,60.24,494.72,57.76Z" fill="#fff"/><path d="M507,57.71v-5h-1.35V50.11H507V47.78h3.83v2.33H513v2.61h-2.21v4.63A1,1,0,0,0,512,58.53a2.9,2.9,0,0,0,1.09-.2v2.92a8.4,8.4,0,0,1-2.12.32C508.41,61.57,507,60.35,507,57.71Z" fill="#fff"/><path d="M514.66,59.38a2.13,2.13,0,0,1,2.18-2.16,2.16,2.16,0,1,1,0,4.32A2.13,2.13,0,0,1,514.66,59.38Z" fill="#fff"/><path d="M518.94,46h3.6l-.45,5.89h-2.72Zm4.54,0h3.62l-.45,5.89h-2.72Z" fill="#fff"/></g><g id="_NerdWallet" data-name="– NerdWallet"><path d="M482,76.73h5.59v1.06H482Z" fill="#fff"/><path d="M491.86,71.77h2l3.81,6.56V71.77h1.54v9.07h-1.75l-4.08-7v7h-1.54Z" fill="#fff"/><path d="M500.51,77.59v-.1a3.23,3.23,0,0,1,3.3-3.42,3,3,0,0,1,3.13,3.34v.45h-4.86c.05,1.25.69,2,1.83,2,.92,0,1.41-.36,1.52-1h1.49c-.22,1.39-1.35,2.15-3.05,2.15A3.18,3.18,0,0,1,500.51,77.59Zm4.91-.76c-.08-1.14-.66-1.65-1.61-1.65a1.7,1.7,0,0,0-1.7,1.65Z" fill="#fff"/><path d="M508.12,74.21h1.53v1.24a2.22,2.22,0,0,1,2.16-1.35v1.44c-1.34,0-2.16.44-2.16,1.85v3.45h-1.53Z" fill="#fff"/><path d="M512.38,77.63v-.1c0-2.12,1.26-3.46,3-3.46a2.27,2.27,0,0,1,2.12,1.15V71.14H519v9.7h-1.53V79.72A2.55,2.55,0,0,1,515.3,81C513.64,81,512.38,79.79,512.38,77.63Zm5.15-.08v-.1c0-1.46-.67-2.18-1.79-2.18s-1.79.79-1.79,2.22v.1c0,1.46.74,2.16,1.73,2.16S517.53,79,517.53,77.55Z" fill="#fff"/><path d="M520.07,71.77h1.72l1.57,6.66,1.77-6.66h1.39l1.8,6.7,1.62-6.7h1.58l-2.27,9.07h-1.69l-1.79-6.61-1.84,6.61h-1.61Z" fill="#fff"/><path d="M531.65,79c0-1.55,1.49-2.11,3.39-2.11h.83v-.34c0-.89-.31-1.33-1.21-1.33a1.1,1.1,0,0,0-1.26,1h-1.49c.13-1.55,1.36-2.19,2.84-2.19s2.65.61,2.65,2.42v4.35h-1.51V80a2.29,2.29,0,0,1-2,.93C532.65,81,531.65,80.38,531.65,79Zm4.22-.48v-.66h-.79c-1.16,0-1.91.26-1.91,1.08,0,.55.3.92,1.06.92C535.17,79.86,535.87,79.37,535.87,78.52Z" fill="#fff"/><path d="M539,71.14h1.53v9.7H539Z" fill="#fff"/><path d="M542.26,71.14h1.54v9.7h-1.54Z" fill="#fff"/><path d="M545,77.59v-.1a3.22,3.22,0,0,1,3.29-3.42,3,3,0,0,1,3.14,3.34v.45H546.6c0,1.25.68,2,1.82,2,.93,0,1.41-.36,1.53-1h1.48c-.22,1.39-1.35,2.15-3,2.15A3.17,3.17,0,0,1,545,77.59Zm4.9-.76c-.07-1.14-.66-1.65-1.61-1.65a1.71,1.71,0,0,0-1.7,1.65Z" fill="#fff"/><path d="M552.89,79V75.36H552V74.21h.89V72.75h1.53v1.46h1.46v1.15h-1.46v3.49c0,.58.28.85.76.85a1.83,1.83,0,0,0,.75-.13v1.22a2.93,2.93,0,0,1-1,.16A1.78,1.78,0,0,1,552.89,79Z" fill="#fff"/></g></g></svg>