<svg xmlns="http://www.w3.org/2000/svg" viewBox="0 0 728 90"><title>H23</title><g id="Layer_2" data-name="Layer 2"><g id="Rect"><rect width="728" height="90" fill="none"/></g><g id="H23"><g id="Your_maximum_refund_guaranteed." data-name="Your maximum refund, guaranteed."><path d="M128,28.75l-7.69-13.5h7.36l4,8,4-7.95h6.47l-7.33,13.5v10.1H128Z" fill="#fff"/><path d="M139.6,30.43v-.26c0-5.55,4.13-9,9.47-9s9.41,3.4,9.41,8.88v.27c0,5.61-4.12,9-9.44,9S139.6,36,139.6,30.43Zm12.87-.1v-.26c0-2.9-1.15-4.52-3.4-4.52s-3.43,1.55-3.43,4.45v.27c0,3,1.16,4.58,3.43,4.58S152.47,33.21,152.47,30.33Z" fill="#fff"/><path d="M160.42,32.84V21.59h5.91V31.88c0,1.95.76,2.91,2.45,2.91s2.93-1.06,2.93-3.27V21.59h5.91V38.85h-5.91V36.18a5.66,5.66,0,0,1-5.48,3.06C162.9,39.24,160.42,37.2,160.42,32.84Z" fill="#fff"/><path d="M180.62,21.59h5.91V25a5.43,5.43,0,0,1,5.58-3.66v5.51c-3.6-.1-5.58,1-5.58,3.79v8.19h-5.91Z" fill="#fff"/><path d="M200.25,21.59h5.91v2.64a6.05,6.05,0,0,1,5.42-3.11A4.7,4.7,0,0,1,216.26,24,6.84,6.84,0,0,1,222,21.12c3.27,0,5.65,2.12,5.65,6.44V38.85h-5.91V28.55c0-1.75-.86-2.61-2.21-2.61-1.59,0-2.64,1-2.64,2.91v10H211V28.55c0-1.75-.85-2.61-2.21-2.61-1.58,0-2.64,1-2.64,2.91v10h-5.91Z" fill="#fff"/><path d="M229.49,34.06c0-4.06,3.44-5.64,9.18-5.64h1.65V28c0-1.65-.4-2.74-2.28-2.74a2.12,2.12,0,0,0-2.34,2h-5.55c.27-4.16,3.53-6.21,8.25-6.21s7.79,1.95,7.79,6.54V38.85h-5.74v-2c-.82,1.25-2.34,2.4-5.12,2.4C232.23,39.24,229.49,37.73,229.49,34.06Zm10.83-1.25V31.75h-1.55c-2.38,0-3.44.46-3.44,1.88,0,1,.66,1.62,2,1.62C239.06,35.25,240.32,34.29,240.32,32.81Z" fill="#fff"/><path d="M253.42,30.07,248,21.59h6.8l2.67,4.55,2.61-4.55h6.07l-5.44,8,6,9.24h-6.8l-3.07-5.15-3.13,5.15h-6Z" fill="#fff"/><path d="M268.23,16.9a3.26,3.26,0,1,1,3.24,3A3.09,3.09,0,0,1,268.23,16.9Zm.3,4.69h5.91V38.85h-5.91Z" fill="#fff"/><path d="M277.61,21.59h5.9v2.64a6.05,6.05,0,0,1,5.42-3.11A4.7,4.7,0,0,1,293.61,24a6.85,6.85,0,0,1,5.71-2.88c3.27,0,5.65,2.12,5.65,6.44V38.85h-5.91V28.55c0-1.75-.86-2.61-2.21-2.61-1.59,0-2.64,1-2.64,2.91v10h-5.84V28.55c0-1.75-.86-2.61-2.22-2.61-1.58,0-2.64,1-2.64,2.91v10h-5.9Z" fill="#fff"/><path d="M307.7,32.84V21.59h5.91V31.88c0,1.95.76,2.91,2.44,2.91S319,33.73,319,31.52V21.59h5.91V38.85H319V36.18a5.67,5.67,0,0,1-5.48,3.06C310.18,39.24,307.7,37.2,307.7,32.84Z" fill="#fff"/><path d="M327.9,21.59h5.91v2.64a6,6,0,0,1,5.41-3.11A4.72,4.72,0,0,1,343.91,24a6.82,6.82,0,0,1,5.7-2.88c3.27,0,5.65,2.12,5.65,6.44V38.85h-5.91V28.55c0-1.75-.86-2.61-2.21-2.61-1.58,0-2.64,1-2.64,2.91v10h-5.84V28.55c0-1.75-.86-2.61-2.21-2.61-1.59,0-2.64,1-2.64,2.91v10H327.9Z" fill="#fff"/><path d="M364.13,21.59H370V25a5.43,5.43,0,0,1,5.58-3.66v5.51c-3.6-.1-5.58,1-5.58,3.79v8.19h-5.91Z" fill="#fff"/><path d="M376.67,30.43v-.26c0-5.55,4.13-9,9.34-9,4.72,0,8.78,2.71,8.78,8.92v1.55H382.65c.16,2.27,1.48,3.6,3.59,3.6,1.95,0,2.78-.9,3-2h5.54c-.53,3.89-3.53,6.1-8.75,6.1C380.63,39.24,376.67,36.08,376.67,30.43Zm12.38-2.18c-.1-2.08-1.12-3.23-3-3.23s-3,1.15-3.3,3.23Z" fill="#fff"/><path d="M397.73,25.61h-2.18v-4h2.18V20.07c0-4.29,2.67-6.34,6.76-6.34a10.43,10.43,0,0,1,2.71.37v4.32a5.52,5.52,0,0,0-1.62-.23,1.73,1.73,0,0,0-2,1.88v1.52h3.5v4h-3.5V38.85h-5.87Z" fill="#fff"/><path d="M409,32.84V21.59h5.9V31.88c0,1.95.76,2.91,2.44,2.91s2.94-1.06,2.94-3.27V21.59h5.91V38.85h-5.91V36.18a5.67,5.67,0,0,1-5.48,3.06C411.42,39.24,409,37.2,409,32.84Z" fill="#fff"/><path d="M429.14,21.59h5.91v2.77a6.09,6.09,0,0,1,5.68-3.24c3.33,0,5.64,2.08,5.64,6.51V38.85h-5.91v-10c0-1.95-.76-2.91-2.47-2.91s-2.94,1.06-2.94,3.27v9.67h-5.91Z" fill="#fff"/><path d="M448.38,30.4v-.26c0-5.88,3.23-9,7.33-9A5.6,5.6,0,0,1,461,24V14h5.91V38.85H461V36a5.8,5.8,0,0,1-5.38,3.2C451.65,39.24,448.38,36.37,448.38,30.4Zm12.8-.1V30c0-2.91-1.22-4.46-3.39-4.46s-3.4,1.49-3.4,4.49v.26c0,2.91,1.28,4.39,3.33,4.39S461.18,33.24,461.18,30.3Z" fill="#fff"/><path d="M468.71,41.52l2.77-8.68L477,34.79l-4.75,8.09Z" fill="#fff"/><path d="M120.79,73.85h5.88c.26,1.25,1,2.24,3.17,2.24,2.6,0,3.66-1.48,3.66-3.63V69.82A6.05,6.05,0,0,1,128.15,73c-4,0-7.32-3-7.32-8.28v-.27c0-5.08,3.26-8.32,7.32-8.32A5.62,5.62,0,0,1,133.5,59V56.59h5.91V72.4c0,5.14-3.4,7.85-9.57,7.85C124,80.25,121.25,77.78,120.79,73.85Zm12.87-9.18v-.23c0-2.37-1.22-3.89-3.4-3.89s-3.39,1.55-3.39,3.93v.26c0,2.38,1.25,3.89,3.36,3.89S133.66,67.12,133.66,64.67Z" fill="#fff"/><path d="M142.27,67.84V56.59h5.91V66.88c0,2,.76,2.91,2.44,2.91s2.94-1.06,2.94-3.27V56.59h5.91V73.85h-5.91V71.18a5.66,5.66,0,0,1-5.48,3.07C144.75,74.25,142.27,72.2,142.27,67.84Z" fill="#fff"/><path d="M161.48,69.06c0-4.06,3.43-5.64,9.18-5.64h1.65V63c0-1.65-.4-2.74-2.28-2.74a2.12,2.12,0,0,0-2.34,2h-5.55c.26-4.16,3.53-6.21,8.25-6.21s7.79,2,7.79,6.54V73.85h-5.74v-2a5.68,5.68,0,0,1-5.12,2.42C164.22,74.25,161.48,72.73,161.48,69.06Zm10.83-1.25V66.75h-1.56c-2.37,0-3.43.46-3.43,1.88,0,1,.66,1.62,2.05,1.62C171.05,70.25,172.31,69.29,172.31,67.81Z" fill="#fff"/><path d="M181.05,56.59H187V60a5.43,5.43,0,0,1,5.57-3.66v5.51c-3.59-.1-5.57,1-5.57,3.79v8.19h-5.91Z" fill="#fff"/><path d="M193.29,69.06c0-4.06,3.43-5.64,9.18-5.64h1.65V63c0-1.65-.4-2.74-2.28-2.74a2.12,2.12,0,0,0-2.34,2H194c.27-4.16,3.53-6.21,8.25-6.21s7.79,2,7.79,6.54V73.85h-5.74v-2a5.67,5.67,0,0,1-5.12,2.42C196,74.25,193.29,72.73,193.29,69.06Zm10.83-1.25V66.75h-1.55c-2.38,0-3.44.46-3.44,1.88,0,1,.66,1.62,2.05,1.62C202.86,70.25,204.12,69.29,204.12,67.81Z" fill="#fff"/><path d="M212.86,56.59h5.91v2.77a6.09,6.09,0,0,1,5.68-3.24c3.33,0,5.64,2.08,5.64,6.51V73.85h-5.91v-10c0-2-.76-2.91-2.47-2.91s-2.94,1.06-2.94,3.27v9.67h-5.91Z" fill="#fff"/><path d="M233.75,68.3V60.61h-2.08v-4h2.08V53h5.91v3.6h3.4v4h-3.4v7.13c0,1.26.62,1.82,1.75,1.82a4.45,4.45,0,0,0,1.68-.3v4.49a12.28,12.28,0,0,1-3.27.5C235.93,74.25,233.75,72.36,233.75,68.3Z" fill="#fff"/><path d="M244.38,65.43v-.26c0-5.55,4.12-9.05,9.34-9.05,4.72,0,8.77,2.71,8.77,8.92v1.55H250.35c.16,2.28,1.48,3.6,3.6,3.6,1.94,0,2.77-.9,3-2h5.54C262,72,259,74.25,253.75,74.25,248.34,74.25,244.38,71.08,244.38,65.43Zm12.37-2.18c-.1-2.08-1.12-3.23-3-3.23s-3,1.15-3.3,3.23Z" fill="#fff"/><path d="M263.61,65.43v-.26c0-5.55,4.13-9.05,9.34-9.05,4.72,0,8.78,2.71,8.78,8.92v1.55H269.59c.16,2.28,1.48,3.6,3.6,3.6,1.94,0,2.77-.9,3-2h5.54c-.52,3.89-3.53,6.11-8.74,6.11C267.57,74.25,263.61,71.08,263.61,65.43ZM276,63.25c-.1-2.08-1.12-3.23-3-3.23s-3,1.15-3.3,3.23Z" fill="#fff"/><path d="M282.92,65.4v-.26c0-5.88,3.23-9,7.33-9A5.6,5.6,0,0,1,295.56,59V49h5.91V73.85h-5.91V71a5.81,5.81,0,0,1-5.38,3.21C286.19,74.25,282.92,71.37,282.92,65.4Zm12.8-.1V65c0-2.91-1.22-4.46-3.4-4.46s-3.39,1.49-3.39,4.49v.26c0,2.91,1.28,4.39,3.33,4.39S295.72,68.24,295.72,65.3Z" fill="#fff"/><path d="M304.24,70.88a3.29,3.29,0,0,1,3.36-3.34,3.34,3.34,0,1,1,0,6.67A3.29,3.29,0,0,1,304.24,70.88Z" fill="#fff"/></g></g></g></svg>