<svg xmlns="http://www.w3.org/2000/svg" viewBox="0 0 160 600"><title>H45</title><g id="Layer_2" data-name="Layer 2"><g id="Rect"><rect width="160" height="600" fill="none"/></g><g id="H45"><g id="Totally_transparent_pricing." data-name="Totally transparent pricing."><path d="M24.38,186.16H20.45V182.8H32.69v3.36H28.76V198H24.38Z" fill="#fff"/><path d="M31.75,192.58v-.17c0-3.57,2.66-5.82,6.1-5.82s6.06,2.19,6.06,5.71v.17c0,3.62-2.66,5.79-6.08,5.79S31.75,196.17,31.75,192.58Zm8.29-.06v-.17c0-1.87-.74-2.91-2.19-2.91s-2.21,1-2.21,2.86v.17c0,1.92.75,3,2.21,3S40,194.37,40,192.52Z" fill="#fff"/><path d="M45.76,194.43v-5H44.42v-2.6h1.34v-2.31h3.8v2.31h2.19v2.6H49.56v4.59c0,.81.4,1.17,1.13,1.17a3.06,3.06,0,0,0,1.08-.19v2.89a8.29,8.29,0,0,1-2.1.32C47.16,198.26,45.76,197,45.76,194.43Z" fill="#fff"/><path d="M52.6,194.92c0-2.62,2.21-3.64,5.91-3.64h1.06V191c0-1.06-.26-1.76-1.47-1.76a1.37,1.37,0,0,0-1.51,1.31H53c.17-2.68,2.28-4,5.32-4s5,1.25,5,4.21V198h-3.7v-1.3a3.63,3.63,0,0,1-3.29,1.56C54.36,198.26,52.6,197.28,52.6,194.92Zm7-.81v-.68h-1c-1.53,0-2.21.3-2.21,1.21,0,.64.42,1,1.32,1C58.76,195.68,59.57,195.07,59.57,194.11Z" fill="#fff"/><path d="M65.3,182h3.79v16H65.3Z" fill="#fff"/><path d="M71.23,182H75v16H71.23Z" fill="#fff"/><path d="M80.54,196.87l-4.44-10h4.12l2.3,5.93,2.12-5.93h3.64l-6,14.84H78.69Z" fill="#fff"/><path d="M21.64,220.68v-5H20.3v-2.6h1.34v-2.31h3.8v2.31h2.19v2.6H25.44v4.59a1,1,0,0,0,1.13,1.17,3.06,3.06,0,0,0,1.08-.19v2.89a8.29,8.29,0,0,1-2.1.32C23,224.51,21.64,223.29,21.64,220.68Z" fill="#fff"/><path d="M29.07,213.13h3.81v2.22A3.49,3.49,0,0,1,36.47,213v3.55c-2.32-.07-3.59.65-3.59,2.44v5.27H29.07Z" fill="#fff"/><path d="M37,221.17c0-2.62,2.21-3.64,5.91-3.64h1.06v-.25c0-1.06-.26-1.76-1.47-1.76A1.37,1.37,0,0,0,41,216.83H37.38c.17-2.68,2.28-4,5.32-4s5,1.25,5,4.21v7.2H44V223a3.63,3.63,0,0,1-3.29,1.56C38.72,224.51,37,223.53,37,221.17Zm7-.81v-.68h-1c-1.53,0-2.21.3-2.21,1.21,0,.64.43,1,1.32,1C43.12,221.93,43.93,221.32,43.93,220.36Z" fill="#fff"/><path d="M49.56,213.13h3.8v1.79A3.93,3.93,0,0,1,57,212.84c2.15,0,3.63,1.34,3.63,4.18v7.23h-3.8v-6.46c0-1.25-.49-1.87-1.6-1.87s-1.89.68-1.89,2.1v6.23h-3.8Z" fill="#fff"/><path d="M61.76,220.72h3.5c.13.81.49,1.26,1.58,1.26.93,0,1.36-.36,1.36-.92s-.54-.78-2.07-1c-3-.38-4.23-1.25-4.23-3.57s2.19-3.65,4.77-3.65c2.74,0,4.65.93,4.91,3.59H68.13a1.25,1.25,0,0,0-1.42-1.11c-.83,0-1.26.37-1.26.88s.51.74,1.87.91c3.09.38,4.57,1.19,4.57,3.57,0,2.64-2,3.83-5,3.83S61.84,223.19,61.76,220.72Z" fill="#fff"/><path d="M73.12,213.13h3.81v1.66a3.92,3.92,0,0,1,3.46-1.95c2.6,0,4.7,1.95,4.7,5.76v.17c0,3.82-2.1,5.74-4.72,5.74a3.65,3.65,0,0,1-3.44-1.9V228H73.12Zm8.1,5.64v-.17c0-2-.85-2.89-2.19-2.89s-2.21,1-2.21,2.87v.17c0,1.89.83,2.84,2.21,2.84S81.22,220.6,81.22,218.77Z" fill="#fff"/><path d="M85.83,221.17c0-2.62,2.21-3.64,5.91-3.64H92.8v-.25c0-1.06-.25-1.76-1.46-1.76a1.36,1.36,0,0,0-1.51,1.31H86.26c.17-2.68,2.27-4,5.31-4s5,1.25,5,4.21v7.2h-3.7V223a3.65,3.65,0,0,1-3.3,1.56C87.6,224.51,85.83,223.53,85.83,221.17Zm7-.81v-.68h-1c-1.53,0-2.21.3-2.21,1.21,0,.64.43,1,1.32,1C92,221.93,92.8,221.32,92.8,220.36Z" fill="#fff"/><path d="M98.43,213.13h3.81v2.22a3.49,3.49,0,0,1,3.59-2.36v3.55c-2.32-.07-3.59.65-3.59,2.44v5.27H98.43Z" fill="#fff"/><path d="M106.51,218.83v-.17a5.68,5.68,0,0,1,6-5.82c3,0,5.66,1.74,5.66,5.74v1h-7.82a2.21,2.21,0,0,0,2.31,2.32c1.26,0,1.79-.57,1.94-1.32h3.57c-.34,2.51-2.28,3.94-5.64,3.94S106.51,222.47,106.51,218.83Zm8-1.4c-.06-1.34-.72-2.08-2-2.08a2.11,2.11,0,0,0-2.12,2.08Z" fill="#fff"/><path d="M119.49,213.13h3.81v1.79a3.9,3.9,0,0,1,3.65-2.08c2.15,0,3.64,1.34,3.64,4.18v7.23h-3.81v-6.46c0-1.25-.49-1.87-1.59-1.87s-1.89.68-1.89,2.1v6.23h-3.81Z" fill="#fff"/><path d="M132.94,220.68v-5H131.6v-2.6h1.34v-2.31h3.81v2.31h2.19v2.6h-2.19v4.59c0,.81.4,1.17,1.12,1.17a3.07,3.07,0,0,0,1.09-.19v2.89a8.31,8.31,0,0,1-2.11.32C134.35,224.51,132.94,223.29,132.94,220.68Z" fill="#fff"/><path d="M21.13,239.38h3.8V241a3.94,3.94,0,0,1,3.47-1.95c2.59,0,4.69,1.95,4.69,5.76V245c0,3.82-2.1,5.74-4.72,5.74a3.67,3.67,0,0,1-3.44-1.9v5.36h-3.8Zm8.1,5.64v-.17c0-2-.86-2.89-2.19-2.89s-2.21,1-2.21,2.87V245c0,1.89.82,2.84,2.21,2.84S29.23,246.85,29.23,245Z" fill="#fff"/><path d="M34.47,239.38h3.81v2.22a3.49,3.49,0,0,1,3.59-2.36v3.55c-2.32-.07-3.59.65-3.59,2.44v5.27H34.47Z" fill="#fff"/><path d="M43.16,236.37a2.1,2.1,0,1,1,2.09,1.95A2,2,0,0,1,43.16,236.37Zm.19,3h3.81V250.5H43.35Z" fill="#fff"/><path d="M48.6,245.08v-.17a5.59,5.59,0,0,1,5.93-5.82c2.72,0,5.23,1.19,5.44,4.57H56.4A1.65,1.65,0,0,0,54.62,242c-1.34,0-2.13,1-2.13,2.83V245c0,1.93.75,2.93,2.19,2.93a1.86,1.86,0,0,0,1.94-1.85H60c-.11,2.81-2,4.64-5.59,4.64C51.13,250.76,48.6,248.82,48.6,245.08Z" fill="#fff"/><path d="M61.18,236.37a2.1,2.1,0,1,1,2.09,1.95A2,2,0,0,1,61.18,236.37Zm.19,3h3.81V250.5H61.37Z" fill="#fff"/><path d="M67.22,239.38H71v1.79a3.93,3.93,0,0,1,3.66-2.08c2.14,0,3.63,1.34,3.63,4.18v7.23h-3.8V244c0-1.25-.49-1.87-1.6-1.87s-1.89.68-1.89,2.1v6.23h-3.8Z" fill="#fff"/><path d="M79.54,250.5h3.79c.17.81.65,1.45,2,1.45a2.11,2.11,0,0,0,2.36-2.34v-1.7a3.92,3.92,0,0,1-3.45,2c-2.59,0-4.72-1.91-4.72-5.34v-.17c0-3.27,2.11-5.35,4.72-5.35A3.62,3.62,0,0,1,87.73,241v-1.58h3.8v10.19c0,3.31-2.19,5.05-6.16,5.05C81.58,254.62,79.84,253,79.54,250.5Zm8.29-5.91v-.15c0-1.53-.79-2.5-2.19-2.5s-2.19,1-2.19,2.52v.17c0,1.54.81,2.51,2.17,2.51S87.83,246.17,87.83,244.59Z" fill="#fff"/><path d="M93.31,248.59a2.13,2.13,0,0,1,2.17-2.15,2.15,2.15,0,1,1,0,4.29A2.12,2.12,0,0,1,93.31,248.59Z" fill="#fff"/></g></g></g></svg>