<svg xmlns="http://www.w3.org/2000/svg" viewBox="0 0 300 250"><title>H2</title><g id="Layer_2" data-name="Layer 2"><g id="Rect"><rect width="300" height="250" fill="none"/></g><g id="Get_expert_tax_prep_without_the_office_visit._Call_your_tax_pro" data-name="Get expert tax prep without the office visit. Call your tax pro"><path d="M20.87,39.76v-.22c0-6.14,4.51-10.28,10.56-10.28,4.76,0,9,2.17,9.37,7.41H35.09c-.28-1.89-1.49-2.87-3.63-2.87-2.85,0-4.56,2.19-4.56,5.82v.23c0,3.26,1.21,5.8,4.7,5.8,2.81,0,3.88-1.44,4-3H31.82v-4h9.46v2.48c0,5.12-3.35,9-9.85,9C24.59,50,20.87,45.79,20.87,39.76Z" fill="#fff"/><path d="M42.44,42.52V42.3c0-4.73,3.52-7.72,8-7.72,4,0,7.49,2.31,7.49,7.61v1.32H47.54a2.94,2.94,0,0,0,3.06,3.07c1.66,0,2.37-.76,2.57-1.75H57.9c-.46,3.32-3,5.21-7.46,5.21C45.82,50,42.44,47.34,42.44,42.52ZM53,40.66c-.09-1.77-1-2.75-2.59-2.75a2.8,2.8,0,0,0-2.82,2.75Z" fill="#fff"/><path d="M60.32,45V38.41H58.54V35h1.78V31.91h5V35h2.9v3.43h-2.9v6.08c0,1.07.53,1.55,1.49,1.55a3.89,3.89,0,0,0,1.44-.25v3.83A10.6,10.6,0,0,1,65.5,50C62.18,50,60.32,48.43,60.32,45Z" fill="#fff"/><path d="M74.51,42.52V42.3c0-4.73,3.52-7.72,8-7.72,4,0,7.48,2.31,7.48,7.61v1.32H79.6a2.94,2.94,0,0,0,3.07,3.07c1.66,0,2.37-.76,2.56-1.75H90C89.51,48.15,87,50,82.5,50,77.89,50,74.51,47.34,74.51,42.52Zm10.56-1.86c-.09-1.77-1-2.75-2.59-2.75a2.8,2.8,0,0,0-2.82,2.75Z" fill="#fff"/><path d="M94.64,42.21,90.05,35h5.8l2.28,3.88L100.35,35h5.18l-4.64,6.84L106,49.7h-5.79l-2.62-4.39L94.89,49.7H89.74Z" fill="#fff"/><path d="M107.39,35h5v2.19A5.23,5.23,0,0,1,117,34.58c3.44,0,6.22,2.59,6.22,7.63v.23c0,5.07-2.78,7.6-6.25,7.6a4.85,4.85,0,0,1-4.56-2.51v7.1h-5Zm10.73,7.46v-.23c0-2.59-1.13-3.83-2.9-3.83s-2.93,1.33-2.93,3.81v.22c0,2.51,1.1,3.77,2.93,3.77S118.12,44.86,118.12,42.44Z" fill="#fff"/><path d="M124.29,42.52V42.3c0-4.73,3.52-7.72,8-7.72,4,0,7.49,2.31,7.49,7.61v1.32H129.38a2.94,2.94,0,0,0,3.07,3.07c1.66,0,2.37-.76,2.56-1.75h4.73c-.45,3.32-3,5.21-7.46,5.21C127.67,50,124.29,47.34,124.29,42.52Zm10.55-1.86c-.08-1.77-1-2.75-2.59-2.75s-2.56,1-2.81,2.75Z" fill="#fff"/><path d="M141.49,35h5v2.93a4.64,4.64,0,0,1,4.76-3.13v4.7c-3.07-.08-4.76.87-4.76,3.24v7h-5Z" fill="#fff"/><path d="M154,45V38.41h-1.77V35H154V31.91h5V35H162v3.43h-2.9v6.08c0,1.07.53,1.55,1.49,1.55a3.85,3.85,0,0,0,1.44-.25v3.83a10.6,10.6,0,0,1-2.79.42C155.88,50,154,48.43,154,45Z" fill="#fff"/><path d="M169.67,45V38.41H167.9V35h1.77V31.91h5V35h2.9v3.43h-2.9v6.08a1.35,1.35,0,0,0,1.5,1.55,3.8,3.8,0,0,0,1.43-.25v3.83a10.53,10.53,0,0,1-2.79.42C171.53,50,169.67,48.43,169.67,45Z" fill="#fff"/><path d="M178.74,45.62c0-3.46,2.93-4.81,7.83-4.81H188v-.34c0-1.41-.33-2.34-1.94-2.34a1.81,1.81,0,0,0-2,1.75H179.3c.23-3.55,3-5.3,7-5.3S193,36.24,193,40.16V49.7h-4.89V48A4.85,4.85,0,0,1,183.72,50C181.08,50,178.74,48.74,178.74,45.62ZM188,44.55v-.9h-1.32c-2,0-2.93.39-2.93,1.6,0,.85.57,1.38,1.75,1.38C186.9,46.63,188,45.82,188,44.55Z" fill="#fff"/><path d="M199.15,42.21,194.56,35h5.8l2.28,3.88L204.87,35h5.18l-4.65,6.84,5.1,7.88h-5.8l-2.62-4.39-2.67,4.39h-5.16Z" fill="#fff"/><path d="M217,35h5v2.19a5.23,5.23,0,0,1,4.59-2.59c3.43,0,6.22,2.59,6.22,7.63v.23c0,5.07-2.79,7.6-6.25,7.6a4.85,4.85,0,0,1-4.56-2.51v7.1h-5Zm10.73,7.46v-.23c0-2.59-1.13-3.83-2.9-3.83s-2.93,1.33-2.93,3.81v.22c0,2.51,1.1,3.77,2.93,3.77S227.76,44.86,227.76,42.44Z" fill="#fff"/><path d="M234.71,35h5v2.93a4.64,4.64,0,0,1,4.76-3.13v4.7c-3.07-.08-4.76.87-4.76,3.24v7h-5Z" fill="#fff"/><path d="M245.41,42.52V42.3c0-4.73,3.52-7.72,8-7.72,4,0,7.49,2.31,7.49,7.61v1.32H250.51a2.94,2.94,0,0,0,3.07,3.07c1.66,0,2.36-.76,2.56-1.75h4.73c-.45,3.32-3,5.21-7.46,5.21C248.79,50,245.41,47.34,245.41,42.52ZM256,40.66c-.09-1.77-1-2.75-2.59-2.75s-2.56,1-2.82,2.75Z" fill="#fff"/><path d="M262.61,35h5v2.19a5.23,5.23,0,0,1,4.59-2.59c3.44,0,6.22,2.59,6.22,7.63v.23c0,5.07-2.78,7.6-6.25,7.6a4.86,4.86,0,0,1-4.56-2.51v7.1h-5Zm10.73,7.46v-.23c0-2.59-1.13-3.83-2.9-3.83s-2.93,1.33-2.93,3.81v.22c0,2.51,1.1,3.77,2.93,3.77S273.34,44.86,273.34,42.44Z" fill="#fff"/><path d="M20.25,65.14h5.27L27.66,74l2.47-8.82h4.06L36.38,74l2.4-8.82h4.78L38.89,79.87H34.08l-2.2-8.22L29.6,79.87H24.7Z" fill="#fff"/><path d="M44.75,61.15a2.78,2.78,0,1,1,2.76,2.59A2.63,2.63,0,0,1,44.75,61.15Zm.25,4h5V79.87H45Z" fill="#fff"/><path d="M53.42,75.14V68.58H51.65V65.14h1.77V62.08h5v3.06h2.9v3.44h-2.9v6.08c0,1.07.53,1.55,1.49,1.55A3.81,3.81,0,0,0,61.39,76v3.83a10.54,10.54,0,0,1-2.79.43C55.28,80.21,53.42,78.6,53.42,75.14Z" fill="#fff"/><path d="M63.28,58.67h5v8.84a5.21,5.21,0,0,1,4.85-2.76C76,64.75,78,66.52,78,70.3v9.57h-5V71.31c0-1.66-.65-2.48-2.11-2.48s-2.51.9-2.51,2.79v8.25h-5Z" fill="#fff"/><path d="M79.63,72.69v-.23c0-4.73,3.52-7.71,8.08-7.71s8,2.9,8,7.57v.23c0,4.78-3.52,7.66-8,7.66S79.63,77.45,79.63,72.69Zm11-.09v-.22c0-2.48-1-3.86-2.9-3.86s-2.92,1.33-2.92,3.8v.23c0,2.53,1,3.91,2.92,3.91S90.61,75.05,90.61,72.6Z" fill="#fff"/><path d="M97.4,74.74v-9.6h5v8.79c0,1.66.65,2.47,2.08,2.47s2.51-.9,2.51-2.78V65.14h5V79.87h-5V77.59a4.85,4.85,0,0,1-4.68,2.62C99.51,80.21,97.4,78.46,97.4,74.74Z" fill="#fff"/><path d="M115.31,75.14V68.58h-1.78V65.14h1.78V62.08h5v3.06h2.9v3.44h-2.9v6.08c0,1.07.53,1.55,1.49,1.55a3.8,3.8,0,0,0,1.43-.26v3.83a10.38,10.38,0,0,1-2.78.43C117.16,80.21,115.31,78.6,115.31,75.14Z" fill="#fff"/><path d="M131,75.14V68.58h-1.77V65.14H131V62.08h5v3.06h2.9v3.44H136v6.08c0,1.07.53,1.55,1.49,1.55a3.85,3.85,0,0,0,1.44-.26v3.83a10.54,10.54,0,0,1-2.79.43C132.82,80.21,131,78.6,131,75.14Z" fill="#fff"/><path d="M140.81,58.67h5v8.84a5.21,5.21,0,0,1,4.85-2.76c2.84,0,4.81,1.77,4.81,5.55v9.57h-5V71.31c0-1.66-.65-2.48-2.11-2.48s-2.51.9-2.51,2.79v8.25h-5Z" fill="#fff"/><path d="M157.17,72.69v-.23c0-4.73,3.52-7.71,8-7.71,4,0,7.49,2.31,7.49,7.6v1.32H162.27a2.94,2.94,0,0,0,3.07,3.07c1.66,0,2.36-.76,2.56-1.74h4.73c-.45,3.32-3,5.21-7.46,5.21C160.55,80.21,157.17,77.5,157.17,72.69Zm10.56-1.86c-.08-1.77-1-2.76-2.59-2.76s-2.56,1-2.81,2.76Z" fill="#fff"/><path d="M178.71,72.69v-.23c0-4.73,3.52-7.71,8.08-7.71s8,2.9,8,7.57v.23c0,4.78-3.52,7.66-8.06,7.66S178.71,77.45,178.71,72.69Zm11-.09v-.22c0-2.48-1-3.86-2.9-3.86s-2.93,1.33-2.93,3.8v.23c0,2.53,1,3.91,2.93,3.91S189.69,75.05,189.69,72.6Z" fill="#fff"/><path d="M197.35,68.58h-1.86V65.14h1.86V64c0-3.66,2.25-5.38,5.74-5.38a8.49,8.49,0,0,1,2.26.28v3.69a4.53,4.53,0,0,0-1.35-.2A1.48,1.48,0,0,0,202.36,64v1.12h4.28V63.85c0-3.66,2.31-5.41,5.77-5.41a8.9,8.9,0,0,1,2.31.31v3.69a4.64,4.64,0,0,0-1.38-.2,1.47,1.47,0,0,0-1.66,1.61v1.29h3v3.44h-3V79.87h-5V68.58h-4.28V79.87h-5Z" fill="#fff"/><path d="M216.22,61.15A2.62,2.62,0,0,1,219,58.53a2.61,2.61,0,1,1,0,5.21A2.61,2.61,0,0,1,216.22,61.15Zm.25,4h5V79.87h-5Z" fill="#fff"/><path d="M223.42,72.69v-.23c0-4.9,3.52-7.71,7.86-7.71,3.6,0,6.92,1.58,7.21,6h-4.73a2.19,2.19,0,0,0-2.37-2.14c-1.77,0-2.81,1.27-2.81,3.75v.22c0,2.56,1,3.89,2.9,3.89A2.46,2.46,0,0,0,234,74.07h4.53c-.14,3.71-2.65,6.14-7.4,6.14C226.77,80.21,223.42,77.64,223.42,72.69Z" fill="#fff"/><path d="M239.42,72.69v-.23c0-4.73,3.51-7.71,8-7.71,4,0,7.49,2.31,7.49,7.6v1.32H244.51a2.94,2.94,0,0,0,3.07,3.07c1.66,0,2.36-.76,2.56-1.74h4.73c-.45,3.32-3,5.21-7.46,5.21C242.79,80.21,239.42,77.5,239.42,72.69ZM250,70.83c-.08-1.77-.95-2.76-2.59-2.76s-2.56,1-2.81,2.76Z" fill="#fff"/><path d="M20.23,95.31H25.6l3.07,9.49,3-9.49H36.5L31.12,110H25.63Z" fill="#fff"/><path d="M37.65,91.31a2.78,2.78,0,1,1,2.76,2.59A2.64,2.64,0,0,1,37.65,91.31Zm.26,4h5V110h-5Z" fill="#fff"/><path d="M44.66,105.36h4.65c.17,1.07.65,1.66,2.08,1.66,1.24,0,1.8-.48,1.8-1.21s-.7-1-2.73-1.32c-3.94-.51-5.6-1.66-5.6-4.73,0-3.27,2.9-4.84,6.31-4.84,3.63,0,6.16,1.23,6.5,4.75H53.11a1.65,1.65,0,0,0-1.89-1.46c-1.09,0-1.66.48-1.66,1.15s.68,1,2.48,1.21c4.08.51,6.05,1.58,6.05,4.73,0,3.49-2.59,5.07-6.67,5.07S44.78,108.63,44.66,105.36Z" fill="#fff"/><path d="M59.62,91.31a2.63,2.63,0,0,1,2.75-2.62,2.61,2.61,0,1,1,0,5.21A2.61,2.61,0,0,1,59.62,91.31Zm.25,4h5V110h-5Z" fill="#fff"/><path d="M68.29,105.3V98.74H66.51V95.31h1.78V92.24h5v3.07h2.9v3.43h-2.9v6.09c0,1.07.53,1.54,1.49,1.54a3.8,3.8,0,0,0,1.43-.25V110a10.45,10.45,0,0,1-2.78.42C70.15,110.37,68.29,108.77,68.29,105.3Z" fill="#fff"/><path d="M77.94,107.5a2.81,2.81,0,0,1,2.88-2.84,2.84,2.84,0,1,1,0,5.68A2.81,2.81,0,0,1,77.94,107.5Z" fill="#fff"/><path d="M90.67,100.1v-.23c0-6.19,4.39-10.27,10.28-10.27,5.23,0,8.86,2.42,9.34,7.74h-5.94c-.22-2.06-1.35-3.18-3.38-3.18-2.59,0-4.22,2-4.22,5.68v.23c0,3.63,1.55,5.68,4.31,5.68a3.46,3.46,0,0,0,3.74-3.29h5.75c-.4,5.21-4.17,7.91-9.38,7.91C94.13,110.37,90.67,106.26,90.67,100.1Z" fill="#fff"/><path d="M111.45,106c0-3.46,2.93-4.81,7.83-4.81h1.4v-.34c0-1.41-.33-2.34-1.94-2.34a1.81,1.81,0,0,0-2,1.75H112c.23-3.55,3-5.29,7-5.29s6.64,1.66,6.64,5.57V110H120.8v-1.71a4.85,4.85,0,0,1-4.37,2.05C113.79,110.37,111.45,109.08,111.45,106Zm9.23-1.07V104h-1.32c-2,0-2.93.4-2.93,1.61,0,.84.57,1.37,1.75,1.37C119.61,107,120.68,106.15,120.68,104.88Z" fill="#fff"/><path d="M128.29,88.83h5V110h-5Z" fill="#fff"/><path d="M136.14,88.83h5V110h-5Z" fill="#fff"/><path d="M153.6,108.54l-5.89-13.23h5.46l3,7.85L159,95.31h4.81L156,115h-4.81Z" fill="#fff"/><path d="M163.56,102.85v-.22c0-4.73,3.52-7.71,8.08-7.71s8,2.9,8,7.57v.22c0,4.79-3.52,7.66-8,7.66S163.56,107.61,163.56,102.85Zm11-.08v-.23c0-2.47-1-3.85-2.9-3.85s-2.92,1.32-2.92,3.8v.22c0,2.54,1,3.92,2.92,3.92S174.54,105.22,174.54,102.77Z" fill="#fff"/><path d="M181.33,104.91v-9.6h5v8.78c0,1.66.65,2.48,2.08,2.48s2.51-.9,2.51-2.79V95.31h5V110h-5v-2.28a4.85,4.85,0,0,1-4.68,2.62C183.44,110.37,181.33,108.63,181.33,104.91Z" fill="#fff"/><path d="M198.56,95.31h5v2.93a4.64,4.64,0,0,1,4.76-3.13v4.7c-3.07-.08-4.76.88-4.76,3.24v7h-5Z" fill="#fff"/><path d="M216,105.3V98.74h-1.77V95.31H216V92.24h5v3.07h2.9v3.43H221v6.09c0,1.07.53,1.54,1.49,1.54a3.85,3.85,0,0,0,1.44-.25V110a10.6,10.6,0,0,1-2.79.42C217.85,110.37,216,108.77,216,105.3Z" fill="#fff"/><path d="M225.06,106c0-3.46,2.92-4.81,7.82-4.81h1.41v-.34c0-1.41-.34-2.34-1.94-2.34a1.81,1.81,0,0,0-2,1.75h-4.73c.22-3.55,3-5.29,7-5.29s6.64,1.66,6.64,5.57V110h-4.9v-1.71a4.83,4.83,0,0,1-4.36,2.05C227.39,110.37,225.06,109.08,225.06,106Zm9.23-1.07V104H233c-2,0-2.93.4-2.93,1.61,0,.84.56,1.37,1.74,1.37C233.22,107,234.29,106.15,234.29,104.88Z" fill="#fff"/><path d="M245.47,102.54l-4.59-7.23h5.8L249,99.19l2.22-3.88h5.18l-4.64,6.84,5.09,7.88H251l-2.61-4.39L245.72,110h-5.15Z" fill="#fff"/><path d="M21.49,125.48h5v2.19a5.2,5.2,0,0,1,4.59-2.59c3.43,0,6.22,2.59,6.22,7.63v.23c0,5.06-2.79,7.6-6.25,7.6A4.85,4.85,0,0,1,26.53,138v7.1h-5Zm10.73,7.46v-.23c0-2.59-1.13-3.83-2.9-3.83s-2.93,1.33-2.93,3.8v.23c0,2.5,1.1,3.77,2.93,3.77S32.22,135.36,32.22,132.94Z" fill="#fff"/><path d="M39.17,125.48h5v2.92A4.64,4.64,0,0,1,49,125.28V130c-3.07-.08-4.76.87-4.76,3.24v7h-5Z" fill="#fff"/><path d="M49.87,133v-.23c0-4.72,3.52-7.71,8.08-7.71s8,2.9,8,7.57v.23c0,4.79-3.52,7.66-8.06,7.66S49.87,137.78,49.87,133Zm11-.08v-.23c0-2.48-1-3.86-2.9-3.86S55,130.18,55,132.65v.23c0,2.53,1,3.91,2.93,3.91S60.85,135.38,60.85,132.94Z" fill="#fff"/><path d="M73.55,135.47v-6.56H71.78v-3.43h1.77v-3.07h5v3.07h2.9v3.43h-2.9V135a1.35,1.35,0,0,0,1.49,1.55,3.81,3.81,0,0,0,1.44-.25v3.83a11,11,0,0,1-2.79.42C75.41,140.54,73.55,138.93,73.55,135.47Z" fill="#fff"/><path d="M82.62,133v-.23c0-4.72,3.52-7.71,8.08-7.71s8,2.9,8,7.57v.23c0,4.79-3.52,7.66-8,7.66S82.62,137.78,82.62,133Zm11-.08v-.23c0-2.48-1-3.86-2.9-3.86s-2.93,1.33-2.93,3.8v.23c0,2.53,1,3.91,2.93,3.91S93.6,135.38,93.6,132.94Z" fill="#fff"/><path d="M99.76,133v-.22c0-5,2.76-7.69,6.25-7.69a4.79,4.79,0,0,1,4.54,2.48V119h5v21.2h-5v-2.39a5,5,0,0,1-4.59,2.73C102.55,140.54,99.76,138.09,99.76,133Zm10.93-.08v-.23c0-2.47-1-3.8-2.9-3.8s-2.9,1.27-2.9,3.83v.23c0,2.47,1.1,3.74,2.84,3.74S110.69,135.41,110.69,132.91Z" fill="#fff"/><path d="M117.31,136.12c0-3.47,2.92-4.82,7.82-4.82h1.41V131c0-1.4-.34-2.33-1.94-2.33a1.81,1.81,0,0,0-2,1.74h-4.73c.22-3.54,3-5.29,7-5.29s6.64,1.66,6.64,5.58v9.54h-4.9v-1.72a4.83,4.83,0,0,1-4.36,2.06C119.64,140.54,117.31,139.24,117.31,136.12Zm9.23-1.07v-.9h-1.32c-2,0-2.93.39-2.93,1.6,0,.85.56,1.38,1.74,1.38C125.47,137.13,126.54,136.31,126.54,135.05Z" fill="#fff"/><path d="M138.11,138.71l-5.88-13.23h5.46l3,7.85,2.82-7.85h4.81l-7.88,19.65h-4.82Z" fill="#fff"/><path d="M147.29,137.67a2.81,2.81,0,0,1,2.87-2.85,2.85,2.85,0,1,1,0,5.69A2.81,2.81,0,0,1,147.29,137.67Z" fill="#fff"/></g></g></svg>