<svg xmlns="http://www.w3.org/2000/svg" viewBox="0 0 728 90"><title>H03</title><g id="Layer_2" data-name="Layer 2"><g id="Rect"><rect width="728" height="90" fill="none"/></g><g id="Claim_EITC_for_free_with_H_R_Block_Free_Online." data-name="Claim EITC for free with  H&amp;R Block Free Online."><path d="M105.37,28.46V28.2c0-7.17,5.09-11.9,11.9-11.9,6.06,0,10.27,2.8,10.82,9h-6.88c-.26-2.38-1.56-3.68-3.91-3.68-3,0-4.89,2.35-4.89,6.58v.26c0,4.21,1.8,6.59,5,6.59a4,4,0,0,0,4.33-3.82h6.65c-.45,6-4.82,9.16-10.85,9.16C109.38,40.35,105.37,35.59,105.37,28.46Z" fill="#fff"/><path d="M131,15.42h5.81V40H131Z" fill="#fff"/><path d="M139.39,35.24c0-4,3.39-5.58,9.07-5.58h1.62v-.39c0-1.63-.39-2.7-2.24-2.7a2.09,2.09,0,0,0-2.32,2h-5.47c.26-4.11,3.48-6.13,8.14-6.13s7.7,1.92,7.7,6.45V40h-5.68V38a5.58,5.58,0,0,1-5.05,2.38C142.1,40.35,139.39,38.85,139.39,35.24ZM150.08,34V33h-1.53c-2.34,0-3.39.46-3.39,1.86,0,1,.65,1.6,2,1.6C148.85,36.41,150.08,35.46,150.08,34Z" fill="#fff"/><path d="M159.08,18.29a3.22,3.22,0,1,1,3.19,3A3,3,0,0,1,159.08,18.29Zm.29,4.63h5.83V40h-5.83Z" fill="#fff"/><path d="M168.82,22.92h5.83v2.6A6,6,0,0,1,180,22.46a4.65,4.65,0,0,1,4.63,2.83,6.77,6.77,0,0,1,5.64-2.83c3.22,0,5.57,2.09,5.57,6.36V40H190V29.79c0-1.72-.85-2.57-2.19-2.57-1.56,0-2.61,1-2.61,2.87V40h-5.76V29.79c0-1.72-.85-2.57-2.19-2.57-1.56,0-2.61,1-2.61,2.87V40h-5.83Z" fill="#fff"/><path d="M206.1,16.66h16.1v5.15h-9.45v4h7.53v4.76h-7.53v4.23h10V40H206.1Z" fill="#fff"/><path d="M226.18,16.66h6.74V40h-6.74Z" fill="#fff"/><path d="M242,21.81h-6V16.66h18.77v5.15h-6V40H242Z" fill="#fff"/><path d="M255.63,28.46V28.2c0-7.17,5.09-11.9,11.9-11.9,6.06,0,10.27,2.8,10.82,9h-6.88c-.26-2.38-1.56-3.68-3.91-3.68-3,0-4.89,2.35-4.89,6.58v.26c0,4.21,1.8,6.59,5,6.59A4,4,0,0,0,272,31.19h6.64c-.45,6-4.82,9.16-10.85,9.16C259.64,40.35,255.63,35.59,255.63,28.46Z" fill="#fff"/><path d="M288.35,26.89H286.2v-4h2.15v-1.5c0-4.24,2.64-6.26,6.68-6.26a10.28,10.28,0,0,1,2.68.36v4.27a5.43,5.43,0,0,0-1.6-.23,1.72,1.72,0,0,0-2,1.86v1.5h3.46v4h-3.46V40h-5.8Z" fill="#fff"/><path d="M298.55,31.65v-.26c0-5.48,4.08-8.93,9.36-8.93s9.28,3.36,9.28,8.77v.26c0,5.54-4.07,8.86-9.32,8.86S298.55,37.16,298.55,31.65Zm12.71-.1v-.26c0-2.87-1.14-4.46-3.35-4.46s-3.39,1.53-3.39,4.4v.26c0,2.93,1.14,4.53,3.39,4.53S311.26,34.39,311.26,31.55Z" fill="#fff"/><path d="M319.73,22.92h5.84v3.39a5.37,5.37,0,0,1,5.51-3.62v5.44c-3.56-.1-5.51,1-5.51,3.75V40h-5.84Z" fill="#fff"/><path d="M341,26.89h-2.15v-4H341v-1.5c0-4.24,2.64-6.26,6.68-6.26a10.14,10.14,0,0,1,2.67.36v4.27a5.3,5.3,0,0,0-1.59-.23,1.72,1.72,0,0,0-2,1.86v1.5h3.46v4h-3.46V40H341Z" fill="#fff"/><path d="M352.68,22.92h5.83v3.39A5.37,5.37,0,0,1,364,22.69v5.44c-3.55-.1-5.51,1-5.51,3.75V40h-5.83Z" fill="#fff"/><path d="M365.55,31.65v-.26c0-5.48,4.07-8.93,9.23-8.93,4.66,0,8.66,2.67,8.66,8.8v1.53h-12c.16,2.25,1.47,3.55,3.55,3.55s2.74-.88,3-2h5.47c-.52,3.85-3.48,6-8.63,6C369.46,40.35,365.55,37.22,365.55,31.65Zm12.22-2.15c-.09-2.05-1.1-3.19-3-3.19s-3,1.14-3.26,3.19Z" fill="#fff"/><path d="M385,31.65v-.26c0-5.48,4.07-8.93,9.22-8.93,4.66,0,8.67,2.67,8.67,8.8v1.53h-12c.16,2.25,1.46,3.55,3.55,3.55,1.92,0,2.74-.88,3-2h5.47c-.52,3.85-3.49,6-8.64,6C389,40.35,385,37.22,385,31.65Zm12.22-2.15c-.1-2.05-1.11-3.19-3-3.19s-3,1.14-3.26,3.19Z" fill="#fff"/><path d="M410.42,22.92h6.1L419,33.12l2.86-10.2h4.7l2.54,10.2,2.77-10.2h5.54L432,40h-5.57l-2.55-9.52L421.25,40h-5.68Z" fill="#fff"/><path d="M439.26,18.29a3.22,3.22,0,1,1,3.2,3A3,3,0,0,1,439.26,18.29Zm.3,4.63h5.83V40h-5.83Z" fill="#fff"/><path d="M449.79,34.49v-7.6h-2.05v-4h2.05V19.36h5.83v3.56H459v4h-3.36v7a1.55,1.55,0,0,0,1.73,1.79,4.35,4.35,0,0,0,1.66-.29v4.43a12,12,0,0,1-3.22.49C451.94,40.35,449.79,38.5,449.79,34.49Z" fill="#fff"/><path d="M461.68,15.42h5.84V25.65a6,6,0,0,1,5.6-3.19c3.3,0,5.58,2.05,5.58,6.42V40h-5.84V30.05c0-1.92-.75-2.86-2.44-2.86s-2.9,1-2.9,3.22V40h-5.84Z" fill="#fff"/><path d="M106.58,51.54h6.71v8.89H121V51.54h6.68v23.3H121V65.65h-7.66v9.19h-6.71Z" fill="#fff"/><path d="M150.48,70.08l3.88,4.76h-7.6l-1.37-1.7a9.24,9.24,0,0,1-6.29,2.09c-4.95,0-8.18-2.61-8.18-7,0-3,1.83-5.22,5.12-6.78a7.45,7.45,0,0,1-1.44-4.07c0-4,3.39-6.1,7.5-6.1,3.72,0,7.07,1.86,7.07,5.44,0,2.55-1.5,4.4-4.66,5.77L147.45,66l1.69-3.33h5.09Zm-8.09-.68L138.71,65a2.76,2.76,0,0,0-1.56,2.51,2.7,2.7,0,0,0,3,2.9A3,3,0,0,0,142.39,69.4ZM141.68,60c1.56-.75,2.31-1.63,2.31-2.84a1.67,1.67,0,0,0-1.73-1.79,1.86,1.86,0,0,0-1.92,2A4.27,4.27,0,0,0,141.68,60Z" fill="#fff"/><path d="M157,51.54h9.13c6.09,0,9.48,2.47,9.48,7.39v.13a6.09,6.09,0,0,1-4.2,6.13l5.57,9.65h-7l-4.73-8.34h-1.56v8.34H157Zm8.8,10.62c2.25,0,3.36-.95,3.36-2.84v-.13c0-1.89-1.18-2.64-3.33-2.64h-2.18v5.61Z" fill="#fff"/><path d="M186.09,51.54h10.4c5.51,0,7.85,2.47,7.85,6.09v.13a4.8,4.8,0,0,1-3.94,5c2.87.49,4.66,2.22,4.66,5.44v.13c0,4.17-2.7,6.49-8.47,6.49h-10.5Zm9.06,9.25c2.09,0,2.87-.72,2.87-2.38v-.13c0-1.6-.85-2.31-2.87-2.31h-2.54v4.82Zm.23,9.58c2.12,0,3.1-1,3.1-2.7v-.13c0-1.76-.95-2.67-3.29-2.67h-2.58v5.5Z" fill="#fff"/><path d="M207.86,50.3h5.8V74.84h-5.8Z" fill="#fff"/><path d="M216.37,66.53v-.26c0-5.48,4.07-8.93,9.35-8.93S235,60.69,235,66.1v.27c0,5.54-4.08,8.86-9.32,8.86S216.37,72,216.37,66.53Zm12.71-.1v-.26c0-2.87-1.14-4.47-3.36-4.47s-3.39,1.54-3.39,4.4v.27c0,2.93,1.14,4.53,3.39,4.53S229.08,69.27,229.08,66.43Z" fill="#fff"/><path d="M236.63,66.53v-.26c0-5.67,4.08-8.93,9.1-8.93,4.17,0,8,1.82,8.34,7H248.6a2.52,2.52,0,0,0-2.74-2.47c-2.05,0-3.26,1.46-3.26,4.33v.26c0,3,1.14,4.5,3.36,4.5a2.83,2.83,0,0,0,3-2.84h5.25c-.16,4.31-3.06,7.11-8.57,7.11C240.51,75.23,236.63,72.26,236.63,66.53Z" fill="#fff"/><path d="M256.55,50.3h5.83V64.54l4.6-6.75H273l-5.58,7.66,6,9.39H267l-4.6-7.46v7.46h-5.83Z" fill="#fff"/><path d="M282.29,51.54H298v5.18h-9v5h7.21v4.92H289v8.25h-6.71Z" fill="#fff"/><path d="M300.08,57.79h5.84v3.39a5.38,5.38,0,0,1,5.51-3.62V63c-3.56-.1-5.51,1-5.51,3.75v8.08h-5.84Z" fill="#fff"/><path d="M313,66.53v-.26c0-5.48,4.07-8.93,9.22-8.93,4.66,0,8.67,2.67,8.67,8.8v1.53h-12c.17,2.25,1.47,3.55,3.56,3.55,1.92,0,2.73-.88,3-2h5.48c-.52,3.85-3.49,6-8.64,6C316.87,75.23,313,72.1,313,66.53Zm12.22-2.15c-.1-2.06-1.11-3.2-3-3.2s-3,1.14-3.26,3.2Z" fill="#fff"/><path d="M332.44,66.53v-.26c0-5.48,4.08-8.93,9.23-8.93,4.66,0,8.67,2.67,8.67,8.8v1.53h-12c.16,2.25,1.47,3.55,3.55,3.55s2.74-.88,3-2h5.48c-.53,3.85-3.49,6-8.64,6C336.35,75.23,332.44,72.1,332.44,66.53Zm12.22-2.15c-.09-2.06-1.1-3.2-3-3.2s-3,1.14-3.26,3.2Z" fill="#fff"/><path d="M358.54,63.33v-.26c0-7.1,5.35-11.86,12.32-11.86s12.36,4.46,12.36,11.7v.26c0,7.17-4.92,12.06-12.45,12.06S358.54,70.34,358.54,63.33Zm17.7-.06V63c0-4.14-2.08-6.59-5.38-6.59s-5.34,2.38-5.34,6.62v.26c0,4.24,2.15,6.68,5.38,6.68S376.24,67.44,376.24,63.27Z" fill="#fff"/><path d="M386,57.79h5.83v2.74a6,6,0,0,1,5.61-3.19c3.29,0,5.57,2,5.57,6.42V74.84h-5.83V64.93c0-1.92-.75-2.87-2.45-2.87s-2.9,1-2.9,3.23v9.55H386Z" fill="#fff"/><path d="M406.45,50.3h5.8V74.84h-5.8Z" fill="#fff"/><path d="M415.73,53.17a3.05,3.05,0,0,1,3.2-3,3.08,3.08,0,0,1,3.23,3,3.05,3.05,0,0,1-3.23,3A3,3,0,0,1,415.73,53.17Zm.3,4.62h5.83V74.84H416Z" fill="#fff"/><path d="M425.48,57.79h5.83v2.74a6,6,0,0,1,5.61-3.19c3.29,0,5.57,2,5.57,6.42V74.84h-5.83V64.93c0-1.92-.75-2.87-2.45-2.87s-2.9,1-2.9,3.23v9.55h-5.83Z" fill="#fff"/><path d="M444.9,66.53v-.26c0-5.48,4.07-8.93,9.22-8.93,4.67,0,8.67,2.67,8.67,8.8v1.53h-12c.16,2.25,1.47,3.55,3.55,3.55,1.93,0,2.74-.88,3-2h5.47c-.52,3.85-3.48,6-8.63,6C448.81,75.23,444.9,72.1,444.9,66.53Zm12.22-2.15c-.09-2.06-1.11-3.2-3-3.2s-3,1.14-3.25,3.2Z" fill="#fff"/><path d="M464.91,71.91a3.25,3.25,0,0,1,3.32-3.3,3.3,3.3,0,1,1,0,6.59A3.25,3.25,0,0,1,464.91,71.91Z" fill="#fff"/></g></g></svg>