<?xml version="1.0" encoding="utf-8"?>
<!-- Generator: Adobe Illustrator 23.1.1, SVG Export Plug-In . SVG Version: 6.00 Build 0)  -->
<svg version="1.1" id="Layer_1" xmlns="http://www.w3.org/2000/svg" xmlns:xlink="http://www.w3.org/1999/xlink" x="0px" y="0px"
	 viewBox="0 0 301 251" style="enable-background:new 0 0 301 251;" xml:space="preserve">
<style type="text/css">
	.st0{fill:none;}
	.st1{fill:#FFFFFF;}
</style>
<title>Asset 10</title>
<g>
	<g id="Rect">
		<rect x="0.5" y="0.5" class="st0" width="300" height="250"/>
	</g>
	<g id="Your_maximum_refund_guaranteed.">
		<path class="st1" d="M28.5,32.2l-7.7-13.5h7.4l4,8l4-8h6.5l-7.3,13.5v10.1h-6.8L28.5,32.2z"/>
		<path class="st1" d="M40.1,33.9v-0.3c0-5.5,4.1-9,9.5-9S59,28,59,33.5v0.3c0,5.6-4.1,9-9.4,9S40.1,39.5,40.1,33.9z M53,33.8v-0.3
			c0-2.9-1.2-4.5-3.4-4.5s-3.4,1.5-3.4,4.5v0.3c0,3,1.2,4.6,3.4,4.6S53,36.7,53,33.8z"/>
		<path class="st1" d="M60.9,36.3V25.1h5.9v10.3c0,2,0.8,2.9,2.4,2.9s2.9-1.1,2.9-3.3v-9.9h5.9v17.3h-5.9v-2.7c-1,2-3.2,3.2-5.5,3.1
			C63.4,42.7,60.9,40.7,60.9,36.3z"/>
		<path class="st1" d="M81.1,25.1H87v3.4c0.8-2.4,3.1-3.9,5.6-3.7v5.5c-3.6-0.1-5.6,1-5.6,3.8v8.2h-5.9V25.1z"/>
		<path class="st1" d="M22.2,60.1h5.9v2.6c1.1-2,3.2-3.2,5.4-3.1c2-0.1,3.9,1,4.7,2.9c1.3-1.9,3.5-2.9,5.7-2.9
			c3.3,0,5.6,2.1,5.6,6.4v11.3h-5.9V67.1c0-1.8-0.9-2.6-2.2-2.6c-1.6,0-2.6,1-2.6,2.9v10H33V67.1c0-1.8-0.9-2.6-2.2-2.6
			c-1.6,0-2.6,1-2.6,2.9v10h-5.9V60.1z"/>
		<path class="st1" d="M51.5,72.6c0-4.1,3.4-5.6,9.2-5.6h1.7v-0.4c0-1.7-0.4-2.7-2.3-2.7c-1.2-0.1-2.2,0.7-2.3,1.9c0,0,0,0.1,0,0.1
			h-5.5c0.3-4.2,3.5-6.2,8.2-6.2s7.8,2,7.8,6.5v11.2h-5.8v-2c-0.8,1.2-2.3,2.4-5.1,2.4C54.2,77.7,51.5,76.2,51.5,72.6z M62.3,71.3
			v-1.1h-1.6c-2.4,0-3.4,0.5-3.4,1.9c0,1,0.7,1.6,2,1.6C61.1,73.8,62.3,72.8,62.3,71.3z"/>
		<path class="st1" d="M75.4,68.6L70,60.1h6.8l2.7,4.5l2.6-4.5h6.1l-5.4,8l6,9.2h-6.8l-3.1-5.1l-3.1,5.2h-6L75.4,68.6z"/>
		<path class="st1" d="M90.2,55.4c0-1.7,1.4-3.1,3.1-3.1c0,0,0.1,0,0.1,0c1.7-0.1,3.1,1.2,3.2,2.9s-1.2,3.1-2.9,3.2
			c-0.1,0-0.2,0-0.3,0c-1.7,0.1-3.1-1.2-3.2-2.9C90.2,55.5,90.2,55.5,90.2,55.4z M90.5,60.1h5.9v17.3h-5.9V60.1z"/>
		<path class="st1" d="M99.6,60.1h5.9v2.6c1.1-2,3.2-3.2,5.4-3.1c2-0.1,3.9,1,4.7,2.9c1.3-1.8,3.4-2.9,5.7-2.9
			c3.3,0,5.6,2.1,5.6,6.4v11.3h-5.9V67.1c0-1.8-0.8-2.6-2.2-2.6c-1.6,0-2.6,1-2.6,2.9v10h-5.8V67.1c0-1.8-0.9-2.6-2.2-2.6
			c-1.6,0-2.6,1-2.6,2.9v10h-5.9V60.1z"/>
		<path class="st1" d="M129.7,71.3V60.1h5.9v10.3c0,2,0.8,2.9,2.4,2.9s3-1.1,3-3.3v-9.9h5.9v17.3H141v-2.7c-1,2-3.2,3.2-5.5,3.1
			C132.2,77.7,129.7,75.7,129.7,71.3z"/>
		<path class="st1" d="M149.9,60.1h5.9v2.6c1.1-2,3.2-3.2,5.4-3.1c2-0.1,3.9,1,4.7,2.9c1.3-1.8,3.4-2.9,5.7-2.9
			c3.3,0,5.6,2.1,5.6,6.4v11.3h-5.9V67.1c0-1.8-0.9-2.6-2.2-2.6c-1.6,0-2.6,1-2.6,2.9v10h-5.8V67.1c0-1.8-0.9-2.6-2.2-2.6
			c-1.6,0-2.6,1-2.6,2.9v10h-5.9V60.1z"/>
		<path class="st1" d="M22.2,95.1h5.9v3.4c0.8-2.3,3.1-3.9,5.6-3.7v5.5c-3.6-0.1-5.6,1-5.6,3.8v8.2h-5.9V95.1z"/>
		<path class="st1" d="M34.8,103.9v-0.3c0-5.6,4.1-9,9.3-9c4.7,0,8.8,2.7,8.8,8.9v1.6H40.8c0.2,2.3,1.5,3.6,3.6,3.6c2,0,2.8-0.9,3-2
			h5.5c-0.5,3.9-3.5,6.1-8.8,6.1C38.8,112.7,34.8,109.6,34.8,103.9z M47.2,101.8c-0.1-2.1-1.1-3.2-3-3.2s-3,1.2-3.3,3.2H47.2z"/>
		<path class="st1" d="M55.8,99.1h-2.2v-4h2.2v-1.5c0-4.3,2.7-6.3,6.8-6.3c0.9,0,1.8,0.1,2.7,0.4v4.3c-0.5-0.2-1.1-0.2-1.6-0.2
			c-0.9-0.2-1.8,0.5-2,1.4c0,0.1,0,0.3,0,0.5v1.5h3.5v4h-3.5v13.2h-5.9V99.1z"/>
		<path class="st1" d="M67.1,106.3V95.1H73v10.3c0,2,0.8,2.9,2.4,2.9s2.9-1.1,2.9-3.3v-9.9h5.9v17.3h-5.9v-2.7c-1,2-3.2,3.2-5.5,3.1
			C69.5,112.7,67.1,110.7,67.1,106.3z"/>
		<path class="st1" d="M87.3,95.1h5.9v2.8c1.1-2.1,3.3-3.4,5.7-3.2c3.3,0,5.7,2.1,5.7,6.5v11.2h-5.9v-10c0-1.9-0.8-2.9-2.5-2.9
			s-2.9,1.1-2.9,3.3v9.7h-5.9V95.1z"/>
		<path class="st1" d="M106.5,103.9v-0.3c0-5.9,3.2-9,7.3-9c2.2-0.2,4.3,1,5.3,2.9v-10h5.9v24.8h-5.9v-2.8c-1,2-3.1,3.3-5.4,3.2
			C109.8,112.7,106.5,109.9,106.5,103.9z M119.3,103.8v-0.3c0-2.9-1.2-4.5-3.4-4.5s-3.4,1.5-3.4,4.5v0.3c0,2.9,1.3,4.4,3.3,4.4
			S119.3,106.7,119.3,103.8z"/>
		<path class="st1" d="M126.8,115l2.8-8.7l5.5,2l-4.8,8.1L126.8,115z"/>
		<path class="st1" d="M21.3,147.4h5.9c0.3,1.2,1,2.2,3.2,2.2c2.6,0,3.7-1.5,3.7-3.6v-2.6c-1.1,2-3.1,3.2-5.4,3.2
			c-4,0-7.3-3-7.3-8.3v-0.3c0-5.1,3.3-8.3,7.3-8.3c2.2-0.2,4.3,1,5.3,2.9v-2.4h5.9v15.8c0,5.1-3.4,7.9-9.6,7.9
			C24.5,153.8,21.8,151.3,21.3,147.4z M34.2,138.2v-0.2c0-2.4-1.2-3.9-3.4-3.9s-3.4,1.6-3.4,3.9v0.3c0,2.4,1.2,3.9,3.4,3.9
			S34.2,140.6,34.2,138.2L34.2,138.2z"/>
		<path class="st1" d="M42.8,141.3v-11.2h5.9v10.3c0,2,0.8,2.9,2.4,2.9s2.9-1.1,2.9-3.3v-9.9H60v17.3h-5.9v-2.7
			c-1,2-3.2,3.2-5.5,3.1C45.2,147.8,42.8,145.7,42.8,141.3z"/>
		<path class="st1" d="M62,142.6c0-4.1,3.4-5.6,9.2-5.6h1.7v-0.4c0-1.6-0.4-2.7-2.3-2.7c-1.2-0.1-2.2,0.7-2.3,1.9c0,0.1,0,0.1,0,0.2
			h-5.6c0.3-4.2,3.5-6.2,8.2-6.2s7.8,1.9,7.8,6.5v11.2h-5.7v-2c-1.2,1.7-3.1,2.6-5.1,2.4C64.7,147.8,62,146.2,62,142.6z M72.8,141.3
			v-1.1h-1.6c-2.4,0-3.4,0.5-3.4,1.9c0,1,0.7,1.6,2.1,1.6C71.6,143.8,72.8,142.8,72.8,141.3L72.8,141.3z"/>
		<path class="st1" d="M81.6,130.1h5.9v3.4c0.8-2.3,3.1-3.8,5.5-3.7v5.5c-3.6-0.1-5.6,1-5.6,3.8v8.2h-5.9V130.1z"/>
		<path class="st1" d="M93.8,142.6c0-4.1,3.4-5.6,9.2-5.6h1.7v-0.4c0-1.6-0.4-2.7-2.3-2.7c-1.2-0.1-2.2,0.7-2.3,1.9
			c0,0.1,0,0.1,0,0.2h-5.6c0.3-4.2,3.5-6.2,8.2-6.2s7.8,1.9,7.8,6.5v11.2h-5.7v-2c-1.2,1.7-3.1,2.6-5.1,2.4
			C96.5,147.8,93.8,146.2,93.8,142.6z M104.6,141.3v-1.1h-1.6c-2.4,0-3.4,0.5-3.4,1.9c0,1,0.7,1.6,2.1,1.6
			C103.4,143.8,104.6,142.8,104.6,141.3z"/>
		<path class="st1" d="M113.4,130.1h5.9v2.8c1.1-2.1,3.3-3.4,5.7-3.2c3.3,0,5.6,2.1,5.6,6.5v11.2h-5.9v-10c0-1.9-0.8-2.9-2.5-2.9
			s-2.9,1.1-2.9,3.3v9.7h-5.9V130.1z"/>
		<path class="st1" d="M134.2,141.8v-7.7h-2.1v-4h2.1v-3.6h5.9v3.6h3.4v4h-3.4v7.1c0,1.3,0.6,1.8,1.8,1.8c0.6,0,1.1-0.1,1.7-0.3v4.5
			c-1.1,0.3-2.2,0.5-3.3,0.5C136.4,147.8,134.2,145.9,134.2,141.8z"/>
		<path class="st1" d="M144.9,138.9v-0.3c0-5.6,4.1-9,9.3-9c4.7,0,8.8,2.7,8.8,8.9v1.6h-12.1c0.2,2.3,1.5,3.6,3.6,3.6
			c1.9,0,2.8-0.9,3-2.1h5.5c-0.5,3.9-3.5,6.1-8.8,6.1C148.8,147.8,144.9,144.6,144.9,138.9z M157.2,136.8c-0.1-2.1-1.1-3.2-3-3.2
			s-3,1.1-3.3,3.2H157.2z"/>
		<path class="st1" d="M164.1,138.9v-0.3c0-5.6,4.1-9,9.3-9c4.7,0,8.8,2.7,8.8,8.9v1.6h-12.1c0.2,2.3,1.5,3.6,3.6,3.6
			c1.9,0,2.8-0.9,3-2.1h5.5c-0.5,3.9-3.5,6.1-8.7,6.1C168.1,147.8,164.1,144.6,164.1,138.9z M176.5,136.8c-0.1-2.1-1.1-3.2-3-3.2
			s-3,1.1-3.3,3.2H176.5z"/>
		<path class="st1" d="M183.4,138.9v-0.3c0-5.9,3.2-9,7.3-9c2.2-0.2,4.3,1,5.3,2.9v-10h5.9v24.9h-5.9v-2.8c-1,2-3.1,3.3-5.4,3.2
			C186.7,147.8,183.4,144.9,183.4,138.9z M196.2,138.8v-0.3c0-2.9-1.2-4.5-3.4-4.5s-3.4,1.5-3.4,4.5v0.3c0,2.9,1.3,4.4,3.3,4.4
			S196.2,141.7,196.2,138.8L196.2,138.8z"/>
		<path class="st1" d="M204.7,144.4c-0.1-1.8,1.4-3.3,3.2-3.4c0.1,0,0.1,0,0.2,0c1.8-0.1,3.4,1.3,3.5,3.2s-1.3,3.4-3.2,3.5
			c-0.1,0-0.2,0-0.4,0C206.3,147.7,204.8,146.3,204.7,144.4C204.7,144.4,204.7,144.4,204.7,144.4z"/>
	</g>
</g>
</svg>
