<svg xmlns="http://www.w3.org/2000/svg" viewBox="0 0 300 250"><title>H23</title><g id="Layer_2" data-name="Layer 2"><g id="Rect"><rect width="300" height="250" fill="none"/></g><g id="H23"><g id="Your_maximum_refund_guaranteed." data-name="Your maximum refund, guaranteed."><path d="M28,31.75l-7.69-13.5h7.36l4,8,4-7.95h6.47l-7.33,13.5v10.1H28Z" fill="#fff"/><path d="M39.6,33.43v-.26c0-5.55,4.13-9,9.47-9s9.41,3.4,9.41,8.88v.27c0,5.61-4.12,9-9.44,9S39.6,39,39.6,33.43Zm12.87-.1v-.26c0-2.9-1.15-4.52-3.4-4.52S45.64,30.1,45.64,33v.27c0,3,1.16,4.58,3.43,4.58S52.47,36.21,52.47,33.33Z" fill="#fff"/><path d="M60.42,35.84V24.59h5.91V34.88c0,1.95.76,2.91,2.45,2.91s2.93-1.06,2.93-3.27V24.59h5.91V41.85H71.71V39.18a5.66,5.66,0,0,1-5.48,3.06C62.9,42.24,60.42,40.2,60.42,35.84Z" fill="#fff"/><path d="M80.62,24.59h5.91V28a5.43,5.43,0,0,1,5.58-3.66v5.51c-3.6-.1-5.58,1-5.58,3.79v8.19H80.62Z" fill="#fff"/><path d="M21.75,59.59h5.91v2.64a6,6,0,0,1,5.41-3.11A4.72,4.72,0,0,1,37.76,62a6.83,6.83,0,0,1,5.71-2.88c3.26,0,5.64,2.12,5.64,6.44V76.85H43.2V66.55c0-1.75-.86-2.61-2.21-2.61-1.58,0-2.64,1-2.64,2.91v10H32.51V66.55c0-1.75-.86-2.61-2.21-2.61-1.59,0-2.64,1-2.64,2.91v10H21.75Z" fill="#fff"/><path d="M51,72.06c0-4.06,3.43-5.64,9.17-5.64h1.65V66c0-1.65-.39-2.74-2.27-2.74a2.13,2.13,0,0,0-2.35,2H51.65c.26-4.16,3.53-6.21,8.25-6.21s7.79,2,7.79,6.54V76.85H61.94v-2c-.82,1.25-2.34,2.4-5.11,2.4C53.73,77.24,51,75.73,51,72.06Zm10.82-1.25V69.75H60.26c-2.37,0-3.43.46-3.43,1.88,0,1,.66,1.62,2.05,1.62C60.56,73.25,61.81,72.29,61.81,70.81Z" fill="#fff"/><path d="M74.91,68.07l-5.38-8.48h6.8L79,64.14l2.61-4.55h6.08l-5.45,8,6,9.24h-6.8L78.34,71.7l-3.13,5.15h-6Z" fill="#fff"/><path d="M89.73,54.9A3.08,3.08,0,0,1,93,51.83a3.06,3.06,0,1,1,0,6.11A3.06,3.06,0,0,1,89.73,54.9Zm.3,4.69h5.9V76.85H90Z" fill="#fff"/><path d="M99.1,59.59H105v2.64a6,6,0,0,1,5.41-3.11A4.72,4.72,0,0,1,115.11,62a6.83,6.83,0,0,1,5.71-2.88c3.26,0,5.64,2.12,5.64,6.44V76.85h-5.91V66.55c0-1.75-.85-2.61-2.21-2.61-1.58,0-2.64,1-2.64,2.91v10h-5.84V66.55c0-1.75-.86-2.61-2.21-2.61-1.59,0-2.64,1-2.64,2.91v10H99.1Z" fill="#fff"/><path d="M129.2,70.84V59.59h5.9V69.88c0,2,.76,2.91,2.45,2.91s2.93-1.06,2.93-3.27V59.59h5.91V76.85h-5.91V74.18A5.65,5.65,0,0,1,135,77.24C131.67,77.24,129.2,75.2,129.2,70.84Z" fill="#fff"/><path d="M149.39,59.59h5.91v2.64a6,6,0,0,1,5.41-3.11A4.72,4.72,0,0,1,165.4,62a6.83,6.83,0,0,1,5.71-2.88c3.27,0,5.64,2.12,5.64,6.44V76.85h-5.91V66.55c0-1.75-.85-2.61-2.21-2.61-1.58,0-2.64,1-2.64,2.91v10h-5.84V66.55c0-1.75-.86-2.61-2.21-2.61-1.58,0-2.64,1-2.64,2.91v10h-5.91Z" fill="#fff"/><path d="M21.75,94.59h5.91V98a5.43,5.43,0,0,1,5.57-3.66v5.51c-3.59-.1-5.57,1-5.57,3.79v8.19H21.75Z" fill="#fff"/><path d="M34.29,103.43v-.26c0-5.55,4.13-9,9.34-9,4.72,0,8.78,2.71,8.78,8.92v1.55H40.26c.17,2.27,1.49,3.6,3.6,3.6,2,0,2.77-.9,3-2h5.55c-.53,3.89-3.53,6.1-8.75,6.1C38.25,112.24,34.29,109.08,34.29,103.43Zm12.38-2.18c-.1-2.08-1.13-3.23-3-3.23s-3,1.15-3.3,3.23Z" fill="#fff"/><path d="M55.34,98.61H53.17v-4h2.17V93.07c0-4.29,2.68-6.34,6.77-6.34a10.5,10.5,0,0,1,2.71.37v4.32a5.52,5.52,0,0,0-1.62-.23,1.73,1.73,0,0,0-2,1.88v1.52h3.5v4h-3.5v13.24H55.34Z" fill="#fff"/><path d="M66.56,105.84V94.59h5.91v10.29c0,2,.76,2.91,2.44,2.91s2.94-1.06,2.94-3.27V94.59h5.91v17.26H77.85v-2.67a5.67,5.67,0,0,1-5.48,3.06C69,112.24,66.56,110.2,66.56,105.84Z" fill="#fff"/><path d="M86.76,94.59h5.91v2.77a6.09,6.09,0,0,1,5.67-3.24c3.34,0,5.65,2.08,5.65,6.51v11.22H98.08v-10c0-1.95-.76-2.91-2.48-2.91s-2.93,1.06-2.93,3.27v9.67H86.76Z" fill="#fff"/><path d="M106,103.4v-.26c0-5.88,3.23-9,7.32-9A5.6,5.6,0,0,1,118.64,97V87h5.91v24.85h-5.91V109a5.8,5.8,0,0,1-5.38,3.2C109.26,112.24,106,109.37,106,103.4Zm12.8-.1V103c0-2.91-1.22-4.46-3.4-4.46s-3.4,1.49-3.4,4.49v.26c0,2.91,1.29,4.39,3.34,4.39S118.8,106.24,118.8,103.3Z" fill="#fff"/><path d="M126.32,114.52l2.78-8.68,5.48,2-4.76,8.09Z" fill="#fff"/><path d="M20.79,146.85h5.88c.26,1.25,1,2.24,3.17,2.24,2.6,0,3.66-1.48,3.66-3.63v-2.64A6.05,6.05,0,0,1,28.15,146c-4,0-7.32-3-7.32-8.28v-.27c0-5.08,3.26-8.32,7.32-8.32A5.62,5.62,0,0,1,33.5,132v-2.44h5.91V145.4c0,5.14-3.4,7.85-9.57,7.85C24,153.25,21.25,150.78,20.79,146.85Zm12.87-9.18v-.23c0-2.37-1.22-3.89-3.4-3.89s-3.39,1.55-3.39,3.93v.26c0,2.38,1.25,3.89,3.36,3.89S33.66,140.12,33.66,137.67Z" fill="#fff"/><path d="M42.27,140.84V129.59h5.91v10.29c0,2,.76,2.91,2.44,2.91s2.94-1.06,2.94-3.27v-9.93h5.91v17.26H53.56v-2.67a5.66,5.66,0,0,1-5.48,3.07C44.75,147.25,42.27,145.2,42.27,140.84Z" fill="#fff"/><path d="M61.48,142.06c0-4.06,3.43-5.64,9.18-5.64h1.65V136c0-1.65-.4-2.74-2.28-2.74a2.12,2.12,0,0,0-2.34,2.05H62.14c.26-4.16,3.53-6.21,8.25-6.21s7.79,1.95,7.79,6.54v11.19H72.44v-2a5.68,5.68,0,0,1-5.12,2.42C64.22,147.25,61.48,145.73,61.48,142.06Zm10.83-1.25v-1.06H70.75c-2.37,0-3.43.46-3.43,1.88,0,1,.66,1.62,2.05,1.62C71.05,143.25,72.31,142.29,72.31,140.81Z" fill="#fff"/><path d="M81.05,129.59H87V133a5.43,5.43,0,0,1,5.57-3.66v5.51c-3.59-.1-5.57,1-5.57,3.79v8.19H81.05Z" fill="#fff"/><path d="M93.29,142.06c0-4.06,3.43-5.64,9.18-5.64h1.65V136c0-1.65-.4-2.74-2.28-2.74a2.12,2.12,0,0,0-2.34,2.05H94c.27-4.16,3.53-6.21,8.25-6.21s7.79,1.95,7.79,6.54v11.19h-5.74v-2a5.67,5.67,0,0,1-5.12,2.42C96,147.25,93.29,145.73,93.29,142.06Zm10.83-1.25v-1.06h-1.55c-2.38,0-3.44.46-3.44,1.88,0,1,.66,1.62,2.05,1.62C102.86,143.25,104.12,142.29,104.12,140.81Z" fill="#fff"/><path d="M112.86,129.59h5.91v2.77a6.09,6.09,0,0,1,5.68-3.24c3.33,0,5.64,2.08,5.64,6.51v11.22h-5.91v-10c0-1.95-.76-2.91-2.47-2.91s-2.94,1.06-2.94,3.27v9.67h-5.91Z" fill="#fff"/><path d="M133.75,141.3v-7.69h-2.08v-4h2.08V126h5.91v3.6h3.4v4h-3.4v7.13c0,1.26.62,1.82,1.75,1.82a4.45,4.45,0,0,0,1.68-.3v4.49a12.28,12.28,0,0,1-3.27.5C135.93,147.25,133.75,145.36,133.75,141.3Z" fill="#fff"/><path d="M144.38,138.43v-.26c0-5.55,4.12-9,9.34-9,4.72,0,8.78,2.71,8.78,8.92v1.55H150.35c.16,2.28,1.48,3.6,3.6,3.6,1.94,0,2.77-.9,3-2.05h5.55c-.53,3.89-3.54,6.11-8.75,6.11C148.34,147.25,144.38,144.08,144.38,138.43Zm12.37-2.18c-.1-2.08-1.12-3.23-3-3.23s-3,1.15-3.3,3.23Z" fill="#fff"/><path d="M163.61,138.43v-.26c0-5.55,4.13-9,9.34-9,4.72,0,8.78,2.71,8.78,8.92v1.55H169.59c.16,2.28,1.48,3.6,3.6,3.6,1.94,0,2.77-.9,3-2.05h5.54c-.52,3.89-3.53,6.11-8.74,6.11C167.57,147.25,163.61,144.08,163.61,138.43ZM176,136.25c-.1-2.08-1.12-3.23-3-3.23s-3,1.15-3.3,3.23Z" fill="#fff"/><path d="M182.92,138.4v-.26c0-5.88,3.23-9,7.33-9a5.6,5.6,0,0,1,5.31,2.91V122h5.91v24.85h-5.91V144a5.81,5.81,0,0,1-5.38,3.21C186.19,147.25,182.92,144.37,182.92,138.4Zm12.8-.1V138c0-2.91-1.22-4.46-3.39-4.46s-3.4,1.49-3.4,4.49v.26c0,2.91,1.28,4.39,3.33,4.39S195.72,141.24,195.72,138.3Z" fill="#fff"/><path d="M204.24,143.88a3.29,3.29,0,0,1,3.36-3.34,3.34,3.34,0,1,1,0,6.67A3.29,3.29,0,0,1,204.24,143.88Z" fill="#fff"/></g></g></g></svg>