<svg xmlns="http://www.w3.org/2000/svg" viewBox="0 0 300 600"><title>H26</title><g id="Layer_2" data-name="Layer 2"><g id="Rect"><rect width="300" height="600" fill="none"/></g><g id="H26"><g id="_Text_Layer_4" data-name="&lt;Text Layer&gt; 4"><path d="M21.08,67.9v-.54c0-14.66,10.76-24.54,25.22-24.54,11.37,0,21.45,5.18,22.39,17.68H55c-.67-4.5-3.56-6.85-8.67-6.85-6.79,0-10.89,5.24-10.89,13.91v.54C35.48,75.9,38.37,82,46.71,82c6.72,0,9.27-3.43,9.54-7.27h-9V65.08h22.6V71c0,12.24-8,21.46-23.54,21.46C30,92.45,21.08,82.29,21.08,67.9Z" fill="#fff"/><path d="M72.6,74.49V74c0-11.29,8.4-18.42,19-18.42,9.61,0,17.89,5.51,17.89,18.15v3.16H84.77c.33,4.64,3,7.33,7.33,7.33,4,0,5.65-1.81,6.12-4.16h11.3c-1.08,7.93-7.2,12.44-17.83,12.44C80.67,92.45,72.6,86,72.6,74.49Zm25.21-4.44c-.2-4.23-2.28-6.59-6.18-6.59-3.63,0-6.12,2.36-6.73,6.59Z" fill="#fff"/><path d="M115.3,80.34V64.67h-4.24v-8.2h4.24V49.14h12v7.33h6.92v8.2h-6.92V79.2c0,2.55,1.27,3.7,3.56,3.7a9.24,9.24,0,0,0,3.43-.61v9.15a25.4,25.4,0,0,1-6.66,1C119.74,92.45,115.3,88.61,115.3,80.34Z" fill="#fff"/><path d="M33.59,157.32l-14.05-31.6h13l7.27,18.76,6.72-18.76h11.5L39.24,172.66H27.74Z" fill="#fff"/><path d="M57.4,143.74v-.54c0-11.29,8.4-18.42,19.3-18.42s19.16,6.92,19.16,18.09v.53c0,11.44-8.4,18.3-19.23,18.3S57.4,155.11,57.4,143.74Zm26.22-.2V143c0-5.92-2.35-9.21-6.92-9.21s-7,3.16-7,9.08v.53c0,6.06,2.35,9.35,7,9.35S83.62,149.39,83.62,143.54Z" fill="#fff"/><path d="M99.83,148.65V125.72h12v21c0,4,1.55,5.92,5,5.92,3.63,0,6-2.15,6-6.66V125.72h12v35.17h-12v-5.45c-1.88,3.63-5.31,6.26-11.16,6.26C104.88,161.7,99.83,157.53,99.83,148.65Z" fill="#fff"/><path d="M141,125.72h12v7c2.22-5.24,5.91-7.53,11.36-7.46v11.23c-7.33-.2-11.36,2.08-11.36,7.73v16.68H141Z" fill="#fff"/><path d="M22.56,195h12v5.38a12.29,12.29,0,0,1,11-6.32c4.64,0,7.87,2,9.55,5.85A13.93,13.93,0,0,1,66.81,194c6.66,0,11.5,4.3,11.5,13.11v23h-12v-21c0-3.57-1.74-5.31-4.5-5.31-3.23,0-5.38,2.08-5.38,5.91v20.38H44.49v-21c0-3.57-1.75-5.31-4.51-5.31-3.23,0-5.38,2.08-5.38,5.91v20.38h-12Z" fill="#fff"/><path d="M82.15,220.39c0-8.27,7-11.5,18.69-11.5h3.36v-.81c0-3.36-.8-5.58-4.64-5.58-3.29,0-4.5,1.95-4.77,4.17H83.49C84,198.2,90.69,194,100.3,194s15.87,4,15.87,13.31v22.8h-11.7V226c-1.68,2.55-4.77,4.91-10.42,4.91C87.73,231,82.15,227.85,82.15,220.39Zm22-2.56v-2.15H101c-4.84,0-7,.94-7,3.83,0,2,1.35,3.3,4.17,3.3C101.65,222.81,104.2,220.86,104.2,217.83Z" fill="#fff"/><path d="M130.9,212.25l-11-17.28h13.85l5.45,9.28,5.31-9.28h12.38l-11.1,16.34L158,230.14H144.15l-6.25-10.49-6.39,10.49H119.2Z" fill="#fff"/><path d="M22.56,264.22h12v7c2.22-5.24,5.92-7.53,11.37-7.46V275c-7.33-.2-11.37,2.08-11.37,7.73v16.68h-12Z" fill="#fff"/><path d="M48.12,282.24v-.54c0-11.29,8.4-18.42,19-18.42,9.62,0,17.89,5.51,17.89,18.15v3.16H60.29c.34,4.64,3,7.33,7.33,7.33,4,0,5.65-1.81,6.12-4.16H85c-1.08,7.93-7.2,12.44-17.82,12.44C56.19,300.2,48.12,293.74,48.12,282.24Zm25.22-4.44c-.21-4.23-2.29-6.59-6.19-6.59-3.63,0-6.12,2.36-6.72,6.59Z" fill="#fff"/><path d="M91,272.42H86.59v-8.2H91v-3.09c0-8.75,5.45-12.92,13.79-12.92a21.54,21.54,0,0,1,5.51.74v8.81a11,11,0,0,0-3.29-.47c-2.83,0-4,1.55-4,3.84v3.09h7.13v8.2H103v27H91Z" fill="#fff"/><path d="M113.89,287.15V264.22h12v21c0,4,1.54,5.92,5,5.92,3.63,0,6-2.15,6-6.66V264.22h12v35.17h-12v-5.45c-1.89,3.63-5.32,6.26-11.17,6.26C118.93,300.2,113.89,296,113.89,287.15Z" fill="#fff"/><path d="M155,264.22h12v5.65c1.88-3.63,5.72-6.59,11.57-6.59,6.79,0,11.5,4.23,11.5,13.25v22.86h-12V279c0-4-1.55-5.92-5-5.92s-6,2.15-6,6.66v19.7H155Z" fill="#fff"/><path d="M194.25,282.17v-.53c0-12,6.59-18.36,14.93-18.36,5.51,0,8.81,2.35,10.83,5.92V248.75h12v50.64H220v-5.72a11.87,11.87,0,0,1-11,6.53C200.91,300.2,194.25,294.35,194.25,282.17Zm26.09-.2v-.54c0-5.91-2.49-9.07-6.92-9.07s-6.93,3-6.93,9.14V282c0,5.92,2.62,8.94,6.79,8.94C217.65,291,220.34,288,220.34,282Z" fill="#fff"/><path d="M22.29,323.92a6.29,6.29,0,0,1,6.6-6.25,6.34,6.34,0,0,1,6.65,6.25c0,3.56-2.89,6.19-6.65,6.19S22.29,327.48,22.29,323.92Zm.61,9.55h12v35.17h-12Z" fill="#fff"/><path d="M41.39,333.47h12v5.65c1.88-3.63,5.72-6.59,11.57-6.59,6.79,0,11.5,4.23,11.5,13.25v22.86h-12V348.2c0-4-1.55-5.92-5-5.92s-6,2.15-6,6.66v19.7h-12Z" fill="#fff"/><path d="M92.57,358.89c0-8.27,7-11.5,18.69-11.5h3.37v-.81c0-3.36-.81-5.58-4.64-5.58-3.3,0-4.51,1.95-4.78,4.17H93.92c.53-8.47,7.19-12.64,16.81-12.64s15.87,4,15.87,13.31v22.8H114.9v-4.1c-1.69,2.55-4.78,4.91-10.43,4.91C98.15,369.45,92.57,366.35,92.57,358.89Zm22.06-2.56v-2.15h-3.16c-4.85,0-7,.94-7,3.83,0,2,1.35,3.3,4.17,3.3C112.07,361.31,114.63,359.36,114.63,356.33Z" fill="#fff"/><path d="M144.49,363.19v5.45h-12V318h12v20.71a12.39,12.39,0,0,1,11-6.18c8.2,0,14.86,6.18,14.86,18.22v.54c0,12.1-6.66,18.16-14.93,18.16C150.13,369.45,146.23,367,144.49,363.19Zm13.58-11.9v-.54c0-6.19-2.69-9.14-6.93-9.14s-7,3.16-7,9.07v.54c0,6,2.62,9,7,9S158.07,357.07,158.07,351.29Z" fill="#fff"/><path d="M172.8,351.49V351c0-11.29,8.4-18.42,19.3-18.42s19.16,6.92,19.16,18.09v.53c0,11.44-8.4,18.3-19.23,18.3S172.8,362.86,172.8,351.49Zm26.22-.2v-.54c0-5.92-2.35-9.21-6.92-9.21s-7,3.16-7,9.08v.53c0,6.06,2.36,9.35,7,9.35S199,357.14,199,351.29Z" fill="#fff"/><path d="M215.23,356.4V333.47h12v21c0,4,1.55,5.92,5,5.92,3.63,0,6-2.15,6-6.66V333.47h12v35.17h-12v-5.45c-1.88,3.63-5.31,6.26-11.16,6.26C220.28,369.45,215.23,365.28,215.23,356.4Z" fill="#fff"/><path d="M258,357.34V341.67h-4.23v-8.2H258v-7.33h12v7.33H277v8.2H270V356.2c0,2.55,1.28,3.7,3.56,3.7a9,9,0,0,0,3.43-.61v9.15a25.31,25.31,0,0,1-6.65,1C262.44,369.45,258,365.61,258,357.34Z" fill="#fff"/><path d="M20.55,428.14c0-8.27,7-11.5,18.69-11.5H42.6v-.81c0-3.36-.8-5.58-4.64-5.58-3.29,0-4.5,1.95-4.77,4.17H21.89c.54-8.47,7.2-12.64,16.81-12.64s15.87,4,15.87,13.31v22.8H42.87v-4.1c-1.68,2.55-4.77,4.91-10.42,4.91C26.13,438.7,20.55,435.6,20.55,428.14Zm22.05-2.56v-2.15H39.44c-4.84,0-7,.94-7,3.83,0,2,1.34,3.3,4.17,3.3C40.05,430.56,42.6,428.61,42.6,425.58Z" fill="#fff"/><path d="M60.42,402.72h12v5.65c1.88-3.63,5.72-6.59,11.57-6.59,6.79,0,11.5,4.23,11.5,13.25v22.86h-12V417.45c0-4-1.55-5.92-5-5.92s-6,2.15-6,6.66v19.7h-12Z" fill="#fff"/><path d="M113.62,387.25h12v21.12c1.88-3.63,5.71-6.59,11.56-6.59,6.79,0,11.5,4.23,11.5,13.25v22.86h-12V417.45c0-4-1.54-5.92-5-5.92s-6,2.15-6,6.66v19.7h-12Z" fill="#fff"/><path d="M152.69,420.74v-.54c0-11.29,8.41-18.42,19.3-18.42s19.17,6.92,19.17,18.09v.53c0,11.44-8.41,18.3-19.24,18.3S152.69,432.11,152.69,420.74Zm26.23-.2V420c0-5.92-2.36-9.21-6.93-9.21s-7,3.16-7,9.08v.53c0,6.06,2.35,9.35,7,9.35S178.92,426.39,178.92,420.54Z" fill="#fff"/><path d="M195.12,425.65V402.72h12v21c0,4,1.55,5.92,5,5.92,3.63,0,6-2.15,6-6.66V402.72h12v35.17h-12v-5.45c-1.88,3.63-5.31,6.26-11.16,6.26C200.17,438.7,195.12,434.53,195.12,425.65Z" fill="#fff"/><path d="M236.28,402.72h12v7c2.22-5.24,5.92-7.53,11.36-7.46v11.23c-7.33-.2-11.36,2.08-11.36,7.73v16.68h-12Z" fill="#fff"/><path d="M259.55,431.84a6.71,6.71,0,0,1,6.86-6.8,6.8,6.8,0,1,1,0,13.59A6.71,6.71,0,0,1,259.55,431.84Z" fill="#fff"/></g></g></g></svg>