<svg xmlns="http://www.w3.org/2000/svg" viewBox="0 0 160 600"><title>H5</title><g id="Layer_2" data-name="Layer 2"><g id="Artboard_1" data-name="Artboard 1" style="isolation:isolate"><g id="headline1"><g id="Tax_prep_delivered_many_ways._Drop_off_try_Tax_Pro_Go_or_f" data-name="Tax prep delivered many ways.  Drop off, try  Tax Pro Go,  or f"><path d="M24,138.37H20.71v-2.85H31.08v2.85H27.75v10H24Z" fill="#fff"/><path d="M30.43,145.79c0-2.22,1.87-3.08,5-3.08h.9v-.22c0-.9-.22-1.49-1.24-1.49a1.15,1.15,0,0,0-1.28,1.12h-3c.15-2.27,1.93-3.39,4.5-3.39s4.25,1.06,4.25,3.56v6.11H36.41v-1.1a3.11,3.11,0,0,1-2.79,1.32C31.93,148.62,30.43,147.79,30.43,145.79Zm5.91-.69v-.57h-.85c-1.3,0-1.87.25-1.87,1,0,.54.36.89,1.11.89A1.43,1.43,0,0,0,36.34,145.1Z" fill="#fff"/><path d="M43.48,143.61,40.55,139h3.71l1.45,2.49L47.14,139h3.31l-3,4.38,3.26,5H47l-1.68-2.81-1.71,2.81H40.35Z" fill="#fff"/><path d="M54.91,139h3.22v1.41a3.34,3.34,0,0,1,2.94-1.66c2.2,0,4,1.66,4,4.88v.14c0,3.24-1.78,4.87-4,4.87A3.11,3.11,0,0,1,58.13,147v4.54H54.91Zm6.86,4.77v-.14c0-1.66-.72-2.45-1.85-2.45S58,142,58,143.59v.15c0,1.6.71,2.41,1.88,2.41S61.77,145.3,61.77,143.75Z" fill="#fff"/><path d="M66.21,139h3.23v1.87a3,3,0,0,1,3-2v3c-2-.05-3,.56-3,2.07v4.47H66.21Z" fill="#fff"/><path d="M73.06,143.81v-.15a4.81,4.81,0,0,1,5.09-4.93,4.47,4.47,0,0,1,4.79,4.86v.85H76.31a1.88,1.88,0,0,0,2,2c1.06,0,1.51-.49,1.64-1.12h3c-.29,2.13-1.93,3.34-4.77,3.34S73.06,146.89,73.06,143.81Zm6.75-1.19c-.06-1.14-.62-1.77-1.66-1.77a1.79,1.79,0,0,0-1.8,1.77Z" fill="#fff"/><path d="M84.05,139h3.23v1.41a3.32,3.32,0,0,1,2.93-1.66c2.2,0,4,1.66,4,4.88v.14c0,3.24-1.78,4.87-4,4.87A3.1,3.1,0,0,1,87.28,147v4.54H84.05Zm6.86,4.77v-.14c0-1.66-.72-2.45-1.85-2.45s-1.87.85-1.87,2.43v.15c0,1.6.7,2.41,1.87,2.41S90.91,145.3,90.91,143.75Z" fill="#fff"/><path d="M98.17,143.79v-.14c0-3.21,1.76-4.92,4-4.92a3.06,3.06,0,0,1,2.9,1.58v-5.47h3.23V148.4h-3.23v-1.53a3.18,3.18,0,0,1-2.93,1.75C100,148.62,98.17,147.05,98.17,143.79Zm7,0v-.15c0-1.58-.66-2.43-1.85-2.43s-1.86.81-1.86,2.45v.14c0,1.59.7,2.4,1.82,2.4S105.15,145.34,105.15,143.74Z" fill="#fff"/><path d="M109.42,143.81v-.15a4.81,4.81,0,0,1,5.09-4.93,4.47,4.47,0,0,1,4.79,4.86v.85h-6.63a1.88,1.88,0,0,0,2,2c1.06,0,1.51-.49,1.64-1.12h3c-.29,2.13-1.93,3.34-4.77,3.34S109.42,146.89,109.42,143.81Zm6.75-1.19c-.06-1.14-.62-1.77-1.66-1.77a1.79,1.79,0,0,0-1.8,1.77Z" fill="#fff"/><path d="M120.38,142h5v2.43h-5Z" fill="#fff"/><path d="M21.38,157.84h3.2V171.4h-3.2Z" fill="#fff"/><path d="M26.24,159.43A1.68,1.68,0,0,1,28,157.75a1.7,1.7,0,0,1,1.78,1.68A1.68,1.68,0,0,1,28,161.08,1.66,1.66,0,0,1,26.24,159.43ZM26.4,162h3.22v9.42H26.4Z" fill="#fff"/><path d="M30.54,162H34l2,6.07L37.87,162H41l-3.44,9.42H34Z" fill="#fff"/><path d="M40.75,166.81v-.15a4.81,4.81,0,0,1,5.09-4.93,4.47,4.47,0,0,1,4.79,4.86v.85H44a1.88,1.88,0,0,0,2,2c1.06,0,1.51-.49,1.64-1.12h3c-.29,2.13-1.93,3.34-4.77,3.34S40.75,169.89,40.75,166.81Zm6.75-1.19c-.06-1.14-.61-1.77-1.66-1.77a1.79,1.79,0,0,0-1.8,1.77Z" fill="#fff"/><path d="M51.74,162H55v1.87a3,3,0,0,1,3-2v3c-2-.05-3,.56-3,2.07v4.47H51.74Z" fill="#fff"/><path d="M58.58,166.81v-.15a4.82,4.82,0,0,1,5.1-4.93,4.47,4.47,0,0,1,4.79,4.86v.85H61.84a1.88,1.88,0,0,0,2,2c1.06,0,1.51-.49,1.63-1.12h3c-.29,2.13-1.93,3.34-4.77,3.34S58.58,169.89,58.58,166.81Zm6.76-1.19c-.06-1.14-.62-1.77-1.66-1.77a1.79,1.79,0,0,0-1.8,1.77Z" fill="#fff"/><path d="M69.11,166.79v-.14c0-3.21,1.77-4.92,4-4.92a3.06,3.06,0,0,1,2.9,1.58v-5.47h3.22V171.4H76v-1.53a3.18,3.18,0,0,1-2.94,1.75C70.9,171.62,69.11,170.05,69.11,166.79Zm7,0v-.15c0-1.58-.67-2.43-1.86-2.43s-1.85.81-1.85,2.45v.14c0,1.59.7,2.4,1.82,2.4S76.1,168.34,76.1,166.74Z" fill="#fff"/><path d="M84.14,162h3.23v1.44a3.28,3.28,0,0,1,2.95-1.69,2.58,2.58,0,0,1,2.56,1.57A3.72,3.72,0,0,1,96,161.73c1.78,0,3.08,1.15,3.08,3.51v6.16H95.85v-5.62c0-.95-.47-1.42-1.21-1.42a1.4,1.4,0,0,0-1.44,1.58v5.46H90v-5.62c0-.95-.47-1.42-1.2-1.42a1.39,1.39,0,0,0-1.44,1.58v5.46H84.14Z" fill="#fff"/><path d="M100.09,168.79c0-2.22,1.87-3.08,5-3.08h.9v-.22c0-.9-.22-1.49-1.25-1.49a1.15,1.15,0,0,0-1.27,1.12h-3c.14-2.27,1.93-3.39,4.5-3.39s4.25,1.06,4.25,3.56v6.11h-3.13v-1.1a3.11,3.11,0,0,1-2.79,1.32C101.58,171.62,100.09,170.79,100.09,168.79Zm5.91-.69v-.57h-.85c-1.3,0-1.87.25-1.87,1,0,.54.36.89,1.11.89A1.43,1.43,0,0,0,106,168.1Z" fill="#fff"/><path d="M110.76,162H114v1.51a3.32,3.32,0,0,1,3.09-1.76c1.82,0,3.08,1.13,3.08,3.55v6.12h-3.22v-5.47c0-1.07-.41-1.59-1.35-1.59s-1.6.58-1.6,1.78v5.28h-3.23Z" fill="#fff"/><path d="M124.35,170.44,120.59,162h3.49l2,5,1.8-5h3.08l-5,12.57h-3.08Z" fill="#fff"/><path d="M20.5,185h3.36l1.37,5.64L26.82,185h2.59l1.4,5.64L32.34,185H35.4l-3,9.42H29.34l-1.41-5.26-1.46,5.26H23.34Z" fill="#fff"/><path d="M35.33,191.79c0-2.22,1.87-3.08,5-3.08h.9v-.22c0-.9-.21-1.49-1.24-1.49a1.16,1.16,0,0,0-1.28,1.12h-3c.14-2.27,1.92-3.39,4.5-3.39s4.25,1.06,4.25,3.56v6.11H41.31v-1.1a3.11,3.11,0,0,1-2.8,1.32C36.82,194.62,35.33,193.79,35.33,191.79Zm5.9-.69v-.57h-.84c-1.3,0-1.88.25-1.88,1,0,.54.37.89,1.12.89A1.42,1.42,0,0,0,41.23,191.1Z" fill="#fff"/><path d="M48.63,193.44,44.87,185h3.49l2,5,1.8-5h3.07l-5,12.57H47.06Z" fill="#fff"/><path d="M55.33,191.41h3c.1.68.41,1.06,1.33,1.06s1.15-.3,1.15-.77-.45-.67-1.75-.85c-2.52-.32-3.58-1.06-3.58-3s1.86-3.1,4-3.1c2.33,0,4,.79,4.16,3H60.73a1.05,1.05,0,0,0-1.21-.93c-.7,0-1.06.3-1.06.73s.43.64,1.58.78c2.61.32,3.87,1,3.87,3,0,2.24-1.65,3.25-4.26,3.25S55.4,193.5,55.33,191.41Z" fill="#fff"/><path d="M64.83,192.78A1.79,1.79,0,0,1,66.67,191a1.82,1.82,0,1,1,0,3.64A1.79,1.79,0,0,1,64.83,192.78Z" fill="#fff"/><path d="M21.58,204.52h4.68c4.57,0,6.89,2.29,6.89,6.29V211c0,4-2.37,6.45-6.91,6.45H21.58Zm4.55,10c2.2,0,3.17-1.15,3.17-3.54v-.15c0-2.45-1-3.49-3.2-3.49h-.81v7.18Z" fill="#fff"/><path d="M34.39,208h3.22v1.87a3,3,0,0,1,3-2v3c-2-.05-3,.56-3,2.07v4.47H34.39Z" fill="#fff"/><path d="M41.23,212.81v-.15a4.84,4.84,0,0,1,5.17-4.93c2.9,0,5.13,1.85,5.13,4.84v.15c0,3.06-2.25,4.9-5.15,4.9S41.23,215.85,41.23,212.81Zm7-.06v-.14c0-1.59-.63-2.47-1.85-2.47s-1.87.85-1.87,2.43v.15c0,1.62.63,2.5,1.87,2.5S48.25,214.32,48.25,212.75Z" fill="#fff"/><path d="M52.66,208h3.22v1.41a3.34,3.34,0,0,1,2.94-1.66c2.2,0,4,1.66,4,4.88v.14c0,3.24-1.78,4.87-4,4.87A3.11,3.11,0,0,1,55.88,216v4.54H52.66Zm6.86,4.77v-.14c0-1.66-.72-2.45-1.85-2.45s-1.88.85-1.88,2.43v.15c0,1.6.71,2.41,1.88,2.41S59.52,214.3,59.52,212.75Z" fill="#fff"/><path d="M66.74,212.81v-.15a4.83,4.83,0,0,1,5.16-4.93c2.9,0,5.14,1.85,5.14,4.84v.15c0,3.06-2.25,4.9-5.15,4.9S66.74,215.85,66.74,212.81Zm7-.06v-.14c0-1.59-.63-2.47-1.86-2.47S70,211,70,212.57v.15c0,1.62.63,2.5,1.87,2.5S73.76,214.32,73.76,212.75Z" fill="#fff"/><path d="M78.65,210.18H77.46V208h1.19v-.72c0-2.34,1.44-3.44,3.68-3.44a5.82,5.82,0,0,1,1.44.18v2.36a3,3,0,0,0-.87-.12.94.94,0,0,0-1,1V208h2.73v-.83c0-2.34,1.48-3.45,3.7-3.45a5.61,5.61,0,0,1,1.47.2v2.35a3,3,0,0,0-.88-.12.93.93,0,0,0-1.06,1V208h1.91v2.2H87.82v7.22H84.59v-7.22H81.86v7.22H78.65Z" fill="#fff"/><path d="M89,218.86l1.51-4.74,3,1.06L91,219.6Z" fill="#fff"/><path d="M98.65,214.37v-4.19H97.52V208h1.13v-2h3.22v2h1.86v2.2h-1.86v3.89a.87.87,0,0,0,1,1,2.65,2.65,0,0,0,.92-.16v2.44a6.7,6.7,0,0,1-1.79.28C99.84,217.62,98.65,216.59,98.65,214.37Z" fill="#fff"/><path d="M105,208h3.22v1.87a3,3,0,0,1,3-2v3c-2-.05-3,.56-3,2.07v4.47H105Z" fill="#fff"/><path d="M115.48,216.44,111.72,208h3.49l2,5,1.8-5H122l-5,12.57h-3.08Z" fill="#fff"/><path d="M24,230.37H20.71v-2.85H31.08v2.85H27.75v10H24Z" fill="#fff"/><path d="M30.43,237.79c0-2.22,1.87-3.08,5-3.08h.9v-.22c0-.9-.22-1.49-1.24-1.49a1.15,1.15,0,0,0-1.28,1.12h-3c.15-2.27,1.93-3.39,4.5-3.39s4.25,1.06,4.25,3.56v6.11H36.41v-1.1a3.11,3.11,0,0,1-2.79,1.32C31.93,240.62,30.43,239.79,30.43,237.79Zm5.91-.69v-.57h-.85c-1.3,0-1.87.25-1.87,1,0,.54.36.89,1.11.89A1.43,1.43,0,0,0,36.34,237.1Z" fill="#fff"/><path d="M43.48,235.61,40.55,231h3.71l1.45,2.49L47.14,231h3.31l-3,4.38,3.26,5H47l-1.68-2.81-1.71,2.81H40.35Z" fill="#fff"/><path d="M55.2,227.52h4.9c3.53,0,5.16,1.57,5.16,4.31v.07c0,2.7-1.81,4.16-5,4.16H58.87v4.34H55.2Zm4.73,6c1.19,0,1.82-.56,1.82-1.62v-.07c0-1.1-.65-1.55-1.8-1.55H58.87v3.24Z" fill="#fff"/><path d="M66.38,231H69.6v1.87a3,3,0,0,1,3-2v3c-2-.05-3,.56-3,2.07v4.47H66.38Z" fill="#fff"/><path d="M73.22,235.81v-.15a4.83,4.83,0,0,1,5.16-4.93c2.9,0,5.14,1.85,5.14,4.84v.15c0,3.06-2.25,4.9-5.15,4.9S73.22,238.85,73.22,235.81Zm7-.06v-.14c0-1.59-.63-2.47-1.86-2.47s-1.87.85-1.87,2.43v.15c0,1.62.63,2.5,1.87,2.5S80.24,237.32,80.24,235.75Z" fill="#fff"/><path d="M87.53,234v-.14a6.4,6.4,0,0,1,6.75-6.57c3,0,5.74,1.38,6,4.73H96.62a2,2,0,0,0-2.32-1.83c-1.82,0-2.92,1.4-2.92,3.72v.15c0,2.09.77,3.71,3,3.71,1.8,0,2.48-.92,2.55-1.95H94.53v-2.57h6v1.58c0,3.28-2.14,5.75-6.3,5.75C89.9,240.62,87.53,237.9,87.53,234Z" fill="#fff"/><path d="M101.32,235.81v-.15a4.83,4.83,0,0,1,5.16-4.93c2.9,0,5.13,1.85,5.13,4.84v.15c0,3.06-2.25,4.9-5.15,4.9S101.32,238.85,101.32,235.81Zm7-.06v-.14c0-1.59-.63-2.47-1.86-2.47s-1.87.85-1.87,2.43v.15c0,1.62.63,2.5,1.87,2.5S108.34,237.32,108.34,235.75Z" fill="#fff"/><path d="M111.68,241.86l1.52-4.74,3,1.06-2.59,4.42Z" fill="#fff"/><path d="M20.78,258.81v-.15A4.84,4.84,0,0,1,26,253.73c2.9,0,5.13,1.85,5.13,4.84v.15c0,3.06-2.25,4.9-5.15,4.9S20.78,261.85,20.78,258.81Zm7-.06v-.14c0-1.59-.63-2.47-1.86-2.47s-1.87.85-1.87,2.43v.15c0,1.62.63,2.5,1.87,2.5S27.81,260.32,27.81,258.75Z" fill="#fff"/><path d="M32.21,254h3.23v1.87a3,3,0,0,1,3-2v3c-2-.05-3,.56-3,2.07v4.47H32.21Z" fill="#fff"/><path d="M43.41,256.18H42.22V254h1.19v-.83c0-2.34,1.46-3.45,3.69-3.45a5.69,5.69,0,0,1,1.48.2v2.35a3.08,3.08,0,0,0-.89-.12,1,1,0,0,0-1.08,1V254h1.91v2.2H46.61v7.22h-3.2Z" fill="#fff"/><path d="M49.53,251.43a1.68,1.68,0,0,1,1.76-1.68,1.7,1.7,0,0,1,1.79,1.68,1.69,1.69,0,0,1-1.79,1.65A1.67,1.67,0,0,1,49.53,251.43Zm.16,2.55h3.22v9.42H49.69Z" fill="#fff"/><path d="M54.73,249.84h3.21V263.4H54.73Z" fill="#fff"/><path d="M59.16,258.81v-.15a4.81,4.81,0,0,1,5.09-4.93A4.47,4.47,0,0,1,69,258.59v.85H62.42a1.88,1.88,0,0,0,2,2c1.06,0,1.51-.49,1.64-1.12h3c-.28,2.13-1.92,3.34-4.77,3.34S59.16,261.89,59.16,258.81Zm6.75-1.19c0-1.14-.61-1.77-1.66-1.77a1.8,1.8,0,0,0-1.8,1.77Z" fill="#fff"/><path d="M72.93,258.81v-.15a4.84,4.84,0,0,1,5.17-4.93c2.9,0,5.13,1.85,5.13,4.84v.15c0,3.06-2.25,4.9-5.15,4.9S72.93,261.85,72.93,258.81Zm7-.06v-.14c0-1.59-.63-2.47-1.85-2.47s-1.88.85-1.88,2.43v.15c0,1.62.63,2.5,1.88,2.5S80,260.32,80,258.75Z" fill="#fff"/><path d="M84.36,254h3.22v1.51a3.33,3.33,0,0,1,3.1-1.76c1.82,0,3.08,1.13,3.08,3.55v6.12H90.54v-5.47c0-1.07-.42-1.59-1.36-1.59s-1.6.58-1.6,1.78v5.28H84.36Z" fill="#fff"/><path d="M95.41,249.84h3.21V263.4H95.41Z" fill="#fff"/><path d="M100.27,251.43a1.78,1.78,0,1,1,1.77,1.65A1.67,1.67,0,0,1,100.27,251.43Zm.16,2.55h3.23v9.42h-3.23Z" fill="#fff"/><path d="M105.38,254h3.23v1.51a3.32,3.32,0,0,1,3.09-1.76c1.82,0,3.08,1.13,3.08,3.55v6.12h-3.22v-5.47c0-1.07-.42-1.59-1.35-1.59s-1.6.58-1.6,1.78v5.28h-3.23Z" fill="#fff"/><path d="M115.84,258.81v-.15a4.82,4.82,0,0,1,5.1-4.93,4.46,4.46,0,0,1,4.78,4.86v.85H119.1a1.88,1.88,0,0,0,2,2c1.06,0,1.51-.49,1.64-1.12h3c-.28,2.13-1.92,3.34-4.77,3.34S115.84,261.89,115.84,258.81Zm6.75-1.19c0-1.14-.61-1.77-1.65-1.77a1.8,1.8,0,0,0-1.81,1.77Z" fill="#fff"/><path d="M126.62,261.78a1.8,1.8,0,0,1,1.84-1.82,1.82,1.82,0,1,1,0,3.64A1.8,1.8,0,0,1,126.62,261.78Z" fill="#fff"/></g><g id="rect"><rect width="160" height="600" fill="none"/></g></g></g></g></svg>