<svg xmlns="http://www.w3.org/2000/svg" viewBox="0 0 160 600"><title>H3</title><g id="Layer_2" data-name="Layer 2"><g id="Digital_Drop-Off_is_easy._Call_your_tax_pro_and_upload_your_do" data-name="Digital Drop-Off  is easy. Call your tax pro and upload your do"><path d="M16.79,83.43h6.76c6.61,0,10,3.31,10,9.08v.21c0,5.79-3.43,9.3-10,9.3H16.79Zm6.58,14.49c3.17,0,4.58-1.67,4.58-5.13v-.2c0-3.54-1.41-5-4.63-5H22.15V97.92Z" fill="#fff"/><path d="M35.2,84.73a2.57,2.57,0,1,1,2.55,2.4A2.43,2.43,0,0,1,35.2,84.73Zm.24,3.7h4.65V102H35.44Z" fill="#fff"/><path d="M41.83,102h4.63c.21,1,.81,1.77,2.5,1.77a2.57,2.57,0,0,0,2.88-2.86V98.85a4.76,4.76,0,0,1-4.21,2.5c-3.17,0-5.77-2.34-5.77-6.53v-.21c0-4,2.57-6.55,5.77-6.55a4.42,4.42,0,0,1,4.21,2.29V88.43H56.5v12.45c0,4.06-2.68,6.19-7.54,6.19C44.33,107.07,42.2,105.12,41.83,102ZM52,94.8v-.19c0-1.87-1-3.06-2.68-3.06s-2.67,1.22-2.67,3.09v.21c0,1.87,1,3.07,2.65,3.07S52,96.72,52,94.8Z" fill="#fff"/><path d="M58.76,84.73a2.57,2.57,0,1,1,2.55,2.4A2.43,2.43,0,0,1,58.76,84.73Zm.23,3.7h4.66V102H59Z" fill="#fff"/><path d="M66.77,97.66V91.6H65.13V88.43h1.64V85.59h4.65v2.84H74.1V91.6H71.42v5.61c0,1,.49,1.43,1.38,1.43a3.42,3.42,0,0,0,1.32-.23V102a9.94,9.94,0,0,1-2.57.39C68.48,102.34,66.77,100.85,66.77,97.66Z" fill="#fff"/><path d="M75.14,98.25c0-3.19,2.7-4.44,7.23-4.44h1.3V93.5c0-1.3-.32-2.16-1.8-2.16A1.68,1.68,0,0,0,80,93H75.66c.2-3.28,2.78-4.89,6.5-4.89s6.13,1.54,6.13,5.15V102H83.77v-1.58a4.47,4.47,0,0,1-4,1.9C77.29,102.34,75.14,101.14,75.14,98.25Zm8.53-1v-.84H82.44c-1.87,0-2.7.37-2.7,1.49,0,.78.52,1.27,1.61,1.27C82.68,99.19,83.67,98.44,83.67,97.27Z" fill="#fff"/><path d="M90.68,82.45h4.63V102H90.68Z" fill="#fff"/><path d="M16.79,114.52h6.76c6.61,0,10,3.31,10,9.08v.21c0,5.79-3.43,9.3-10,9.3H16.79ZM23.37,129c3.17,0,4.58-1.67,4.58-5.13v-.2c0-3.54-1.41-5.05-4.63-5.05H22.15V129Z" fill="#fff"/><path d="M35.31,119.52H40v2.7a4.29,4.29,0,0,1,4.39-2.89v4.35c-2.83-.08-4.39.8-4.39,3v6.44H35.31Z" fill="#fff"/><path d="M45.19,126.48v-.2c0-4.37,3.25-7.13,7.46-7.13s7.41,2.68,7.41,7v.2c0,4.42-3.25,7.08-7.44,7.08S45.19,130.88,45.19,126.48Zm10.14-.07v-.21c0-2.29-.91-3.56-2.68-3.56s-2.71,1.22-2.71,3.51v.2c0,2.34.91,3.62,2.71,3.62S55.33,128.67,55.33,126.41Z" fill="#fff"/><path d="M61.7,119.52h4.65v2a4.79,4.79,0,0,1,4.24-2.39c3.17,0,5.74,2.39,5.74,7v.21c0,4.68-2.57,7-5.77,7a4.5,4.5,0,0,1-4.21-2.32v6.55H61.7Zm9.9,6.89v-.21c0-2.39-1-3.54-2.68-3.54s-2.7,1.22-2.7,3.51v.21c0,2.31,1,3.48,2.7,3.48S71.6,128.64,71.6,126.41Z" fill="#fff"/><path d="M78,123.94h7.28v3.51H78Z" fill="#fff"/><path d="M87,123.94v-.21c0-5.67,4.27-9.47,9.83-9.47s9.86,3.57,9.86,9.34v.21c0,5.72-3.93,9.62-9.94,9.62S87,129.53,87,123.94Zm14.12-.06v-.2c0-3.31-1.66-5.26-4.29-5.26s-4.26,1.9-4.26,5.28v.21c0,3.38,1.71,5.33,4.29,5.33S101.11,127.21,101.11,123.88Z" fill="#fff"/><path d="M109.38,122.69h-1.72v-3.17h1.72v-1c0-3.38,2.08-5,5.3-5a7.6,7.6,0,0,1,2.08.26v3.41a3.8,3.8,0,0,0-1.24-.19,1.37,1.37,0,0,0-1.51,1.49v1H118v-1.2c0-3.38,2.13-5,5.33-5a8.53,8.53,0,0,1,2.13.28V117a4.4,4.4,0,0,0-1.27-.18,1.36,1.36,0,0,0-1.54,1.48v1.2h2.76v3.17h-2.76v10.42H118V122.69H114v10.42h-4.63Z" fill="#fff"/><path d="M16.27,146.91a2.43,2.43,0,0,1,2.55-2.42,2.41,2.41,0,1,1,0,4.81A2.41,2.41,0,0,1,16.27,146.91Zm.24,3.69h4.65v13.6H16.51Z" fill="#fff"/><path d="M22.75,159.89H27c.15,1,.6,1.53,1.92,1.53,1.15,0,1.67-.44,1.67-1.12s-.65-1-2.53-1.22c-3.64-.47-5.17-1.53-5.17-4.37,0-3,2.68-4.47,5.82-4.47,3.36,0,5.7,1.14,6,4.39H30.55a1.52,1.52,0,0,0-1.74-1.35c-1,0-1.54.44-1.54,1.07s.63.91,2.29,1.12c3.77.46,5.59,1.45,5.59,4.36,0,3.23-2.39,4.69-6.16,4.69S22.85,162.9,22.75,159.89Z" fill="#fff"/><path d="M40.66,157.57v-.21c0-4.36,3.25-7.12,7.36-7.12,3.72,0,6.92,2.13,6.92,7v1.22H45.37a2.72,2.72,0,0,0,2.83,2.84c1.54,0,2.19-.7,2.37-1.61h4.37c-.42,3.06-2.79,4.81-6.89,4.81C43.78,164.52,40.66,162,40.66,157.57Zm9.75-1.71c-.08-1.64-.88-2.55-2.39-2.55a2.59,2.59,0,0,0-2.6,2.55Z" fill="#fff"/><path d="M55.9,160.43c0-3.2,2.7-4.44,7.23-4.44h1.3v-.32c0-1.29-.32-2.15-1.8-2.15a1.66,1.66,0,0,0-1.84,1.61H56.42c.21-3.28,2.78-4.89,6.5-4.89s6.13,1.53,6.13,5.15v8.81H64.53v-1.58a4.49,4.49,0,0,1-4,1.9C58.06,164.52,55.9,163.32,55.9,160.43Zm8.53-1v-.83H63.2c-1.87,0-2.7.37-2.7,1.48,0,.79.52,1.28,1.61,1.28C63.44,161.37,64.43,160.62,64.43,159.44Z" fill="#fff"/><path d="M70.41,159.89H74.7c.15,1,.59,1.53,1.92,1.53,1.14,0,1.66-.44,1.66-1.12s-.65-1-2.52-1.22c-3.64-.47-5.17-1.53-5.17-4.37,0-3,2.68-4.47,5.82-4.47,3.36,0,5.7,1.14,6,4.39H78.21a1.53,1.53,0,0,0-1.75-1.35c-1,0-1.53.44-1.53,1.07s.62.91,2.29,1.12c3.77.46,5.59,1.45,5.59,4.36,0,3.23-2.39,4.69-6.16,4.69S70.51,162.9,70.41,159.89Z" fill="#fff"/><path d="M88.14,162.83,82.7,150.6h5l2.81,7.26,2.6-7.26H97.6l-7.28,18.15H85.88Z" fill="#fff"/><path d="M96.61,161.86a2.59,2.59,0,0,1,2.65-2.62,2.63,2.63,0,1,1,0,5.25A2.59,2.59,0,0,1,96.61,161.86Z" fill="#fff"/><path d="M15.83,186.11v-.2a9.09,9.09,0,0,1,9.49-9.49c4.84,0,8.19,2.23,8.63,7.15H28.47a2.9,2.9,0,0,0-3.12-2.94c-2.39,0-3.9,1.87-3.9,5.25v.21c0,3.35,1.43,5.25,4,5.25a3.2,3.2,0,0,0,3.45-3h5.31c-.37,4.81-3.85,7.3-8.66,7.3C19,195.6,15.83,191.81,15.83,186.11Z" fill="#fff"/><path d="M35,191.52c0-3.2,2.7-4.44,7.23-4.44h1.3v-.32c0-1.3-.31-2.15-1.8-2.15a1.66,1.66,0,0,0-1.84,1.61H35.54c.21-3.28,2.78-4.89,6.5-4.89s6.14,1.53,6.14,5.15v8.81H43.65v-1.58a4.47,4.47,0,0,1-4,1.89C37.18,195.6,35,194.41,35,191.52Zm8.53-1v-.83H42.33c-1.88,0-2.71.37-2.71,1.48,0,.78.52,1.28,1.61,1.28A2.06,2.06,0,0,0,43.55,190.53Z" fill="#fff"/><path d="M50.57,175.71H55.2v19.58H50.57Z" fill="#fff"/><path d="M57.82,175.71h4.63v19.58H57.82Z" fill="#fff"/><path d="M73.94,193.91l-5.43-12.22h5L76.36,189l2.6-7.26H83.4l-7.28,18.15H71.68Z" fill="#fff"/><path d="M83.14,188.66v-.21c0-4.36,3.25-7.12,7.47-7.12S98,184,98,188.32v.21c0,4.42-3.25,7.07-7.44,7.07S83.14,193.06,83.14,188.66Zm10.14-.08v-.2c0-2.29-.9-3.57-2.67-3.57S87.9,186,87.9,188.32v.21c0,2.34.91,3.62,2.71,3.62S93.28,190.85,93.28,188.58Z" fill="#fff"/><path d="M99.55,190.56v-8.87h4.65v8.12c0,1.53.6,2.28,1.93,2.28s2.31-.83,2.31-2.57v-7.83h4.66v13.6h-4.66v-2.1a4.46,4.46,0,0,1-4.31,2.41C101.5,195.6,99.55,194,99.55,190.56Z" fill="#fff"/><path d="M115.46,181.69h4.66v2.71a4.28,4.28,0,0,1,4.39-2.89v4.34c-2.83-.07-4.39.81-4.39,3v6.45h-4.66Z" fill="#fff"/><path d="M17,222v-6H15.36v-3.18H17V210h4.66v2.83h2.67V216H21.66v5.61c0,1,.49,1.43,1.37,1.43a3.71,3.71,0,0,0,1.33-.23v3.53a9.59,9.59,0,0,1-2.57.39C18.72,226.69,17,225.21,17,222Z" fill="#fff"/><path d="M25.37,222.61c0-3.2,2.71-4.44,7.23-4.44h1.3v-.32c0-1.3-.31-2.16-1.79-2.16a1.68,1.68,0,0,0-1.85,1.62H25.89c.21-3.28,2.79-4.89,6.5-4.89s6.14,1.53,6.14,5.15v8.81H34V224.8a4.49,4.49,0,0,1-4,1.89C27.53,226.69,25.37,225.5,25.37,222.61Zm8.53-1v-.83H32.68c-1.87,0-2.7.37-2.7,1.48,0,.78.52,1.28,1.61,1.28A2.05,2.05,0,0,0,33.9,221.62Z" fill="#fff"/><path d="M44.22,219.46,40,212.78h5.35l2.11,3.59,2-3.59h4.79L50,219.1l4.7,7.28H49.35l-2.42-4-2.47,4H39.7Z" fill="#fff"/><path d="M60.73,212.78h4.66v2a4.79,4.79,0,0,1,4.24-2.39c3.17,0,5.74,2.39,5.74,7v.21c0,4.68-2.57,7-5.77,7a4.47,4.47,0,0,1-4.21-2.31v6.55H60.73Zm9.91,6.89v-.21c0-2.39-1-3.53-2.68-3.53s-2.7,1.22-2.7,3.51v.21c0,2.31,1,3.48,2.7,3.48S70.64,221.91,70.64,219.67Z" fill="#fff"/><path d="M77.06,212.78h4.65v2.71a4.29,4.29,0,0,1,4.4-2.89v4.34c-2.84-.07-4.4.81-4.4,3v6.45H77.06Z" fill="#fff"/><path d="M86.94,219.75v-.21c0-4.37,3.25-7.12,7.46-7.12s7.41,2.68,7.41,7v.21c0,4.42-3.25,7.07-7.43,7.07S86.94,224.15,86.94,219.75Zm10.14-.08v-.21c0-2.28-.91-3.56-2.68-3.56s-2.7,1.23-2.7,3.51v.21c0,2.34.91,3.62,2.7,3.62S97.08,221.94,97.08,219.67Z" fill="#fff"/><path d="M15.6,253.7c0-3.2,2.7-4.45,7.23-4.45h1.3v-.31c0-1.3-.32-2.16-1.8-2.16a1.67,1.67,0,0,0-1.84,1.62H16.12c.21-3.28,2.78-4.89,6.5-4.89s6.13,1.53,6.13,5.15v8.81H24.23v-1.59a4.47,4.47,0,0,1-4,1.9C17.76,257.78,15.6,256.59,15.6,253.7Zm8.53-1v-.83H22.9c-1.87,0-2.7.36-2.7,1.48,0,.78.52,1.28,1.61,1.28A2.06,2.06,0,0,0,24.13,252.71Z" fill="#fff"/><path d="M31,243.87h4.65v2.19a4.79,4.79,0,0,1,4.47-2.55c2.63,0,4.45,1.64,4.45,5.12v8.84H39.93v-7.9c0-1.54-.59-2.29-2-2.29s-2.31.83-2.31,2.57v7.62H31Z" fill="#fff"/><path d="M46.17,250.81v-.2c0-4.63,2.55-7.1,5.78-7.1a4.4,4.4,0,0,1,4.18,2.29v-7.91h4.66v19.58H56.13v-2.21a4.58,4.58,0,0,1-4.24,2.52C48.75,257.78,46.17,255.52,46.17,250.81Zm10.09-.07v-.21c0-2.29-1-3.51-2.68-3.51s-2.67,1.17-2.67,3.53v.21c0,2.29,1,3.46,2.62,3.46S56.26,253.05,56.26,250.74Z" fill="#fff"/><path d="M16.27,283.83V275h4.66v8.11c0,1.54.6,2.29,1.92,2.29s2.32-.83,2.32-2.57V275h4.65v13.6H25.17v-2.11a4.47,4.47,0,0,1-4.32,2.42C18.22,288.87,16.27,287.26,16.27,283.83Z" fill="#fff"/><path d="M32.19,275h4.65v2a4.79,4.79,0,0,1,4.24-2.39c3.17,0,5.74,2.39,5.74,7v.21c0,4.68-2.57,7-5.77,7a4.49,4.49,0,0,1-4.21-2.31v6.55H32.19Zm9.9,6.89v-.21c0-2.39-1-3.53-2.68-3.53s-2.7,1.22-2.7,3.51v.21c0,2.31,1,3.48,2.7,3.48S42.09,284.09,42.09,281.85Z" fill="#fff"/><path d="M48.64,269h4.63v19.58H48.64Z" fill="#fff"/><path d="M55,281.93v-.21c0-4.37,3.25-7.12,7.46-7.12s7.41,2.68,7.41,7v.21c0,4.42-3.25,7.07-7.43,7.07S55,286.32,55,281.93Zm10.14-.08v-.21c0-2.28-.91-3.56-2.68-3.56s-2.7,1.22-2.7,3.51v.21c0,2.34.91,3.61,2.7,3.61S65.18,284.11,65.18,281.85Z" fill="#fff"/><path d="M70.77,284.79c0-3.2,2.7-4.45,7.23-4.45h1.3V280c0-1.3-.31-2.16-1.8-2.16a1.67,1.67,0,0,0-1.84,1.62H71.29c.21-3.28,2.78-4.89,6.5-4.89s6.14,1.53,6.14,5.15v8.81H79.4V287a4.46,4.46,0,0,1-4,1.9C72.93,288.87,70.77,287.68,70.77,284.79Zm8.53-1V283H78.08c-1.88,0-2.71.36-2.71,1.48,0,.78.52,1.28,1.61,1.28A2.06,2.06,0,0,0,79.3,283.8Z" fill="#fff"/><path d="M85.51,281.9v-.2c0-4.63,2.55-7.1,5.77-7.1a4.4,4.4,0,0,1,4.19,2.29V269h4.65v19.58H95.47v-2.21a4.59,4.59,0,0,1-4.24,2.52C88.08,288.87,85.51,286.61,85.51,281.9Zm10.09-.07v-.21c0-2.29-1-3.51-2.68-3.51s-2.68,1.17-2.68,3.53v.21c0,2.29,1,3.46,2.63,3.46S95.6,284.14,95.6,281.83Z" fill="#fff"/><path d="M20.64,318.27l-5.43-12.22h5l2.81,7.25,2.6-7.25h4.45L22.83,324.2H18.38Z" fill="#fff"/><path d="M29.85,313v-.21c0-4.37,3.25-7.12,7.46-7.12s7.41,2.68,7.41,7v.21c0,4.42-3.25,7.07-7.44,7.07S29.85,317.41,29.85,313ZM40,312.94v-.21c0-2.28-.91-3.56-2.68-3.56s-2.71,1.22-2.71,3.51v.21c0,2.34.91,3.61,2.71,3.61S40,315.2,40,312.94Z" fill="#fff"/><path d="M46.25,314.92v-8.87h4.66v8.11c0,1.54.59,2.29,1.92,2.29s2.31-.83,2.31-2.57v-7.83H59.8v13.6H55.14v-2.11A4.44,4.44,0,0,1,50.83,320C48.2,320,46.25,318.35,46.25,314.92Z" fill="#fff"/><path d="M62.16,306.05h4.66v2.7a4.29,4.29,0,0,1,4.39-2.88v4.34c-2.83-.08-4.39.81-4.39,3v6.45H62.16Z" fill="#fff"/><path d="M77,313v-.2c0-4.63,2.54-7.1,5.77-7.1A4.44,4.44,0,0,1,86.92,308v-7.9h4.65v19.58H86.92v-2.21A4.6,4.6,0,0,1,82.68,320C79.53,320,77,317.7,77,313ZM87,312.92v-.21c0-2.29-1-3.51-2.67-3.51s-2.68,1.17-2.68,3.53v.21c0,2.29,1,3.46,2.62,3.46S87,315.23,87,312.92Z" fill="#fff"/><path d="M93.21,313v-.21c0-4.37,3.25-7.12,7.46-7.12s7.41,2.68,7.41,7v.21c0,4.42-3.25,7.07-7.44,7.07S93.21,317.41,93.21,313Zm10.14-.08v-.21c0-2.28-.91-3.56-2.68-3.56s-2.7,1.22-2.7,3.51v.21c0,2.34.91,3.61,2.7,3.61S103.35,315.2,103.35,312.94Z" fill="#fff"/><path d="M109,313v-.21c0-4.52,3.25-7.12,7.25-7.12,3.33,0,6.4,1.45,6.66,5.59h-4.37a2,2,0,0,0-2.18-2c-1.64,0-2.6,1.17-2.6,3.46V313c0,2.36.91,3.59,2.67,3.59a2.27,2.27,0,0,0,2.37-2.27H123c-.13,3.44-2.45,5.67-6.84,5.67C112.08,320,109,317.6,109,313Z" fill="#fff"/><path d="M123.76,315.33h4.29c.15,1,.6,1.54,1.92,1.54,1.15,0,1.67-.44,1.67-1.12s-.65-1-2.53-1.22c-3.64-.47-5.17-1.54-5.17-4.37,0-3,2.68-4.47,5.82-4.47,3.36,0,5.7,1.14,6,4.39h-4.21a1.52,1.52,0,0,0-1.74-1.35c-1,0-1.54.44-1.54,1.06s.63.92,2.29,1.12c3.77.47,5.59,1.46,5.59,4.37,0,3.23-2.39,4.68-6.16,4.68S123.86,318.35,123.76,315.33Z" fill="#fff"/><path d="M17,346.37v-6.06H15.36v-3.17H17v-2.83h4.66v2.83h2.67v3.17H21.66v5.62c0,1,.49,1.43,1.37,1.43a3.5,3.5,0,0,0,1.33-.24v3.54a9.59,9.59,0,0,1-2.57.39C18.72,351.05,17,349.57,17,346.37Z" fill="#fff"/><path d="M25.37,344.11v-.21c0-4.37,3.25-7.12,7.47-7.12s7.41,2.67,7.41,7V344c0,4.42-3.25,7.07-7.44,7.07S25.37,348.5,25.37,344.11ZM35.51,344v-.21c0-2.29-.91-3.56-2.67-3.56s-2.71,1.22-2.71,3.51V344c0,2.34.91,3.61,2.71,3.61S35.51,346.29,35.51,344Z" fill="#fff"/><path d="M41.21,344.08v-.21c0-4.62,2.55-7.09,5.77-7.09a4.43,4.43,0,0,1,4.19,2.28v-7.9h4.65v19.58H51.17v-2.21a4.6,4.6,0,0,1-4.24,2.52C43.78,351.05,41.21,348.79,41.21,344.08ZM51.3,344v-.2c0-2.29-1-3.51-2.68-3.51s-2.68,1.17-2.68,3.53V344c0,2.29,1,3.46,2.63,3.46S51.3,346.32,51.3,344Z" fill="#fff"/><path d="M57.41,347c0-3.2,2.7-4.45,7.22-4.45h1.3v-.31c0-1.3-.31-2.16-1.79-2.16a1.68,1.68,0,0,0-1.85,1.61H57.93c.2-3.27,2.78-4.88,6.5-4.88s6.13,1.53,6.13,5.14v8.82H66v-1.59a4.47,4.47,0,0,1-4,1.9C59.56,351.05,57.41,349.85,57.41,347Zm8.52-1v-.83H64.71c-1.87,0-2.7.36-2.7,1.48,0,.78.52,1.27,1.61,1.27C65,347.9,65.93,347.15,65.93,346Z" fill="#fff"/><path d="M76.62,349.36l-5.43-12.22h5L79,344.39l2.6-7.25h4.44L78.8,355.29H74.36Z" fill="#fff"/><path d="M85.1,348.4a2.59,2.59,0,0,1,2.65-2.63,2.63,2.63,0,1,1,0,5.25A2.59,2.59,0,0,1,85.1,348.4Z" fill="#fff"/></g><g id="Rect"><rect width="160" height="600" fill="none"/></g></g></svg>