<svg xmlns="http://www.w3.org/2000/svg" viewBox="0 0 300 600"><title>Asset 2</title><g id="Layer_2" data-name="Layer 2"><g id="Rect"><rect width="300" height="600" fill="none"/></g><g id="Why_pay_to_file_if_you_don_t_have_to_" data-name="Why pay to file if you don&apos;t have to?"><path d="M19.83,128.26H32.15l5.47,26.54,5.71-26.54H54.16L60.35,155l5.77-26.78h11.3L67.49,170.8H54.76l-6.55-27-6.6,27H29.71Z" fill="#fff"/><path d="M80.52,126H91.17v18.69c1.67-3.22,5.06-5.84,10.23-5.84,6,0,10.18,3.75,10.18,11.73V170.8H100.93V152.72c0-3.51-1.37-5.24-4.46-5.24s-5.3,1.91-5.3,5.89V170.8H80.52Z" fill="#fff"/><path d="M125.44,167.65l-12.43-28h11.54l6.43,16.6,6-16.6H147.1l-16.66,41.52H120.27Z" fill="#fff"/><path d="M160.67,139.69h10.65v4.64a11,11,0,0,1,9.69-5.48c7.26,0,13.15,5.48,13.15,16.13v.47c0,10.71-5.89,16.07-13.2,16.07-4.71,0-8.1-2.2-9.64-5.3v15H160.67Zm22.66,15.76V155c0-5.48-2.37-8.09-6.12-8.09s-6.19,2.79-6.19,8v.47c0,5.3,2.32,8,6.19,8S183.33,160.57,183.33,155.45Z" fill="#fff"/><path d="M196.25,162.18c0-7.32,6.19-10.18,16.54-10.18h3v-.71c0-3-.71-4.94-4.1-4.94a3.83,3.83,0,0,0-4.23,3.69h-10c.47-7.5,6.36-11.19,14.87-11.19s14,3.51,14,11.78V170.8H216v-3.63c-1.49,2.26-4.22,4.35-9.22,4.35C201.19,171.52,196.25,168.78,196.25,162.18Zm19.51-2.26V158H213c-4.29,0-6.19.83-6.19,3.39,0,1.79,1.19,2.92,3.69,2.92C213.5,164.32,215.76,162.59,215.76,159.92Z" fill="#fff"/><path d="M240.22,167.65l-12.44-28h11.55l6.42,16.6,5.95-16.6h10.17l-16.66,41.52H235Z" fill="#fff"/><path d="M23.58,222.31V208.45H19.83v-7.26h3.75V194.7H34.23v6.49h6.13v7.26H34.23V221.3c0,2.26,1.13,3.27,3.15,3.27a8.08,8.08,0,0,0,3-.54v8.09a22.17,22.17,0,0,1-5.89.9C27.51,233,23.58,229.63,23.58,222.31Z" fill="#fff"/><path d="M42.74,217.13v-.47c0-10,7.44-16.31,17.07-16.31s17,6.13,17,16v.47c0,10.12-7.44,16.19-17,16.19S42.74,227.19,42.74,217.13Zm23.2-.18v-.47c0-5.24-2.08-8.15-6.13-8.15s-6.18,2.79-6.18,8v.47c0,5.36,2.08,8.27,6.18,8.27S65.94,222.13,65.94,217Z" fill="#fff"/><path d="M93,208.45H89v-7.26H93v-2.74c0-7.73,4.82-11.42,12.19-11.42a19.29,19.29,0,0,1,4.88.65v7.8a9.65,9.65,0,0,0-2.91-.42c-2.5,0-3.57,1.37-3.57,3.39v2.74h6.3v7.26h-6.3V232.3H93Z" fill="#fff"/><path d="M113.19,192.74a5.55,5.55,0,0,1,5.83-5.53,5.51,5.51,0,1,1,0,11A5.51,5.51,0,0,1,113.19,192.74Zm.53,8.45h10.65V232.3H113.72Z" fill="#fff"/><path d="M130.38,187.5H141v44.8H130.38Z" fill="#fff"/><path d="M145,217.13v-.47c0-10,7.44-16.31,16.83-16.31,8.51,0,15.83,4.88,15.83,16.07v2.79H155.79c.29,4.11,2.67,6.49,6.48,6.49,3.51,0,5-1.61,5.42-3.69h10c-1,7-6.37,11-15.77,11C152.16,233,145,227.31,145,217.13Zm22.31-3.92c-.18-3.75-2-5.83-5.48-5.83-3.21,0-5.41,2.08-5.94,5.83Z" fill="#fff"/><path d="M192,192.74a5.87,5.87,0,1,1,5.83,5.47A5.56,5.56,0,0,1,192,192.74Zm.54,8.45h10.65V232.3H192.5Z" fill="#fff"/><path d="M210.47,208.45h-3.93v-7.26h3.93v-2.74c0-7.73,4.82-11.42,12.19-11.42a19.29,19.29,0,0,1,4.88.65v7.8a9.65,9.65,0,0,0-2.91-.42c-2.5,0-3.57,1.37-3.57,3.39v2.74h6.3v7.26h-6.3V232.3H210.47Z" fill="#fff"/><path d="M31.91,290.65l-12.43-28H31l6.42,16.6,6-16.6H53.57L36.91,304.21H26.73Z" fill="#fff"/><path d="M53,278.63v-.47c0-10,7.44-16.31,17.08-16.31s17,6.13,17,16v.47c0,10.12-7.43,16.19-17,16.19S53,288.69,53,278.63Zm23.21-.18V278c0-5.24-2.09-8.15-6.13-8.15s-6.19,2.79-6.19,8v.47c0,5.36,2.08,8.27,6.19,8.27S76.18,283.63,76.18,278.45Z" fill="#fff"/><path d="M90.52,283V262.69h10.65v18.56c0,3.51,1.37,5.24,4.4,5.24,3.21,0,5.29-1.91,5.29-5.89V262.69h10.65V293.8H110.86V289c-1.66,3.22-4.7,5.54-9.87,5.54C95,294.52,90.52,290.83,90.52,283Z" fill="#fff"/><path d="M136.21,278.57v-.47c0-10.59,5.83-16.25,13.21-16.25,4.88,0,7.79,2.09,9.58,5.24V249h10.65v44.8H159v-5.05a10.5,10.5,0,0,1-9.7,5.77C142.1,294.52,136.21,289.34,136.21,278.57Zm23.09-.18v-.47c0-5.24-2.21-8-6.13-8S147,272.56,147,278v.47c0,5.24,2.32,7.92,6,7.92C156.92,286.37,159.3,283.69,159.3,278.39Z" fill="#fff"/><path d="M173.4,278.63v-.47c0-10,7.44-16.31,17.07-16.31s17,6.13,17,16v.47c0,10.12-7.44,16.19-17,16.19S173.4,288.69,173.4,278.63Zm23.2-.18V278c0-5.24-2.08-8.15-6.13-8.15s-6.18,2.79-6.18,8v.47c0,5.36,2.08,8.27,6.18,8.27S196.6,283.63,196.6,278.45Z" fill="#fff"/><path d="M211.18,262.69h10.65v5c1.67-3.22,5.06-5.84,10.23-5.84,6,0,10.18,3.75,10.18,11.73V293.8H231.59V275.72c0-3.51-1.37-5.24-4.46-5.24s-5.3,1.91-5.3,5.89V293.8H211.18Z" fill="#fff"/><path d="M245.33,251.26h10.42l-1.25,16.37h-8Z" fill="#fff"/><path d="M262.41,283.81V270h-3.75v-7.26h3.75V256.2h10.65v6.49h6.13V270h-6.13V282.8c0,2.26,1.13,3.27,3.15,3.27a8.08,8.08,0,0,0,3-.54v8.09a22.17,22.17,0,0,1-5.89.9C266.34,294.52,262.41,291.13,262.41,283.81Z" fill="#fff"/><path d="M22.15,310.5H32.8v18.69c1.67-3.22,5.06-5.84,10.24-5.84,6,0,10.17,3.75,10.17,11.73V355.3H42.56V337.22c0-3.51-1.37-5.24-4.46-5.24s-5.3,1.9-5.3,5.89V355.3H22.15Z" fill="#fff"/><path d="M56.6,346.68c0-7.32,6.19-10.18,16.54-10.18h3v-.71c0-3-.72-4.94-4.11-4.94a3.83,3.83,0,0,0-4.22,3.69h-10c.48-7.5,6.37-11.19,14.88-11.19s14,3.52,14,11.78V355.3H76.36v-3.63c-1.49,2.26-4.23,4.35-9.23,4.35C61.54,356,56.6,353.28,56.6,346.68Zm19.52-2.26v-1.91h-2.8c-4.28,0-6.19.83-6.19,3.39,0,1.79,1.19,2.92,3.69,2.92C73.86,348.82,76.12,347.09,76.12,344.42Z" fill="#fff"/><path d="M88.32,324.19H99.68l6.48,20.05,6.37-20.05H122.7L111.34,355.3H99.74Z" fill="#fff"/><path d="M122.05,340.13v-.47c0-10,7.44-16.31,16.84-16.31,8.51,0,15.82,4.88,15.82,16.07v2.79H132.82c.3,4.11,2.68,6.49,6.49,6.49,3.51,0,5-1.61,5.41-3.69h10c-1,7-6.36,11-15.76,11C129.19,356,122.05,350.31,122.05,340.13Zm22.31-3.92c-.18-3.75-2-5.83-5.47-5.83-3.21,0-5.42,2.08-5.95,5.83Z" fill="#fff"/><path d="M170.66,345.31V331.45h-3.75v-7.26h3.75V317.7h10.65v6.49h6.13v7.26h-6.13V344.3c0,2.26,1.13,3.27,3.15,3.27a8.08,8.08,0,0,0,3-.54v8.09a22.17,22.17,0,0,1-5.89.9C174.59,356,170.66,352.63,170.66,345.31Z" fill="#fff"/><path d="M189.82,340.13v-.47c0-10,7.44-16.31,17.08-16.31s16.95,6.13,16.95,16v.47c0,10.12-7.43,16.19-17,16.19S189.82,350.19,189.82,340.13ZM213,340v-.47c0-5.24-2.08-8.15-6.12-8.15s-6.19,2.79-6.19,8v.47c0,5.36,2.08,8.27,6.19,8.27S213,345.13,213,340Z" fill="#fff"/><path d="M232.6,340.19c0-4.52,3.09-7.38,5.83-10,2-2,3.87-3.75,3.87-5.83,0-2.32-1.13-3.57-3.63-3.57s-4.29,2-4.7,5.23H223.62c.29-9,6.72-13.86,15.88-13.86s14.34,4.1,14.34,11.18c0,3.93-2,6.61-4.34,8.93-2.92,2.91-6.31,5.23-6.84,8.15v.89H232.6Zm-1.37,9.88a6.38,6.38,0,0,1,12.73,0,6.38,6.38,0,0,1-12.73,0Z" fill="#fff"/></g></g></svg>