<?xml version="1.0" encoding="utf-8"?>
<!-- Generator: Adobe Illustrator 23.1.0, SVG Export Plug-In . SVG Version: 6.00 Build 0)  -->
<svg version="1.1" id="Layer_1" xmlns="http://www.w3.org/2000/svg" xmlns:xlink="http://www.w3.org/1999/xlink" x="0px" y="0px"
	 viewBox="0 0 729 91" style="enable-background:new 0 0 729 91;" xml:space="preserve">
<style type="text/css">
	.st0{fill:none;}
	.st1{fill:#FFFFFF;}
</style>
<title>Asset 16</title>
<g>
	<g id="Layer_23">
		<rect class="st0" width="728" height="90"/>
	</g>
	<g id="Put_our_taxpertise_to_work_for_you.">
		<path class="st1" d="M122.4,33.5h7.4c5.4,0,7.8,2.4,7.8,6.5v0.1c0,4.1-2.8,6.3-7.6,6.3H128v6.6h-5.6L122.4,33.5z M129.6,42.7
			c1.8,0,2.8-0.8,2.8-2.5v-0.1c0-1.7-1-2.3-2.7-2.3H128v4.9L129.6,42.7z"/>
		<path class="st1" d="M139.2,48.1v-9.3h4.9v8.5c0,1.6,0.6,2.4,2,2.4s2.4-0.9,2.4-2.7v-8.2h4.9v14.3h-4.9v-2.2
			c-0.9,1.7-2.7,2.7-4.5,2.5C141.3,53.4,139.2,51.7,139.2,48.1z"/>
		<path class="st1" d="M156.6,48.5v-6.4h-1.7v-3.3h1.7v-3h4.9v3h2.8v3.3h-2.8V48c0,1,0.5,1.5,1.4,1.5c0.5,0,0.9-0.1,1.4-0.3V53
			c-0.9,0.3-1.8,0.4-2.7,0.4C158.4,53.4,156.6,51.8,156.6,48.5z"/>
		<path class="st1" d="M170.4,46.1v-0.2c0-4.6,3.4-7.5,7.8-7.5s7.8,2.8,7.8,7.3V46c0,4.6-3.4,7.4-7.8,7.4S170.4,50.7,170.4,46.1z
			 M181,46v-0.2c0-2.4-1-3.7-2.8-3.7s-2.8,1.3-2.8,3.7V46c0,2.5,1,3.8,2.8,3.8S181,48.4,181,46z"/>
		<path class="st1" d="M187.6,48.1v-9.3h4.9v8.5c0,1.6,0.6,2.4,2,2.4s2.4-0.9,2.4-2.7v-8.2h4.9v14.3h-4.9v-2.2
			c-0.9,1.7-2.6,2.7-4.5,2.5C189.6,53.4,187.6,51.7,187.6,48.1z"/>
		<path class="st1" d="M204.3,38.8h4.9v2.8c0.7-1.9,2.6-3.2,4.6-3v4.6c-3-0.1-4.6,0.8-4.6,3.1v6.8h-4.9V38.8z"/>
		<path class="st1" d="M221.2,48.5v-6.4h-1.7v-3.3h1.7v-3h4.9v3h2.8v3.3h-2.8V48c0,1,0.5,1.5,1.4,1.5c0.5,0,1-0.1,1.4-0.3V53
			c-0.9,0.3-1.8,0.4-2.7,0.4C223,53.4,221.2,51.8,221.2,48.5z"/>
		<path class="st1" d="M230,49.1c0-3.4,2.8-4.7,7.6-4.7h1.4v-0.3c0-1.4-0.3-2.3-1.9-2.3c-1-0.1-1.8,0.6-1.9,1.5c0,0,0,0.1,0,0.1
			h-4.6c0.2-3.4,2.9-5.1,6.8-5.1s6.4,1.6,6.4,5.4v9.3H239v-1.7c-1,1.4-2.6,2.1-4.2,2C232.2,53.4,230,52.1,230,49.1z M238.9,48.1
			v-0.9h-1.3c-2,0-2.8,0.4-2.8,1.5c0,0.8,0.6,1.3,1.7,1.3c1.2,0.1,2.2-0.7,2.4-1.9C238.9,48.2,238.9,48.1,238.9,48.1L238.9,48.1z"/>
		<path class="st1" d="M249.8,45.8l-4.4-7h5.6l2.2,3.8l2.1-3.8h5l-4.5,6.6l4.9,7.7h-5.6l-2.5-4.3l-2.6,4.3h-5L249.8,45.8z"/>
		<path class="st1" d="M262.1,38.8h4.9v2.1c0.9-1.6,2.6-2.6,4.5-2.5c3.3,0,6,2.5,6,7.4V46c0,4.9-2.7,7.4-6.1,7.4
			c-1.8,0.1-3.5-0.8-4.4-2.4v6.9h-4.9L262.1,38.8z M272.5,46v-0.2c0-2.5-1.1-3.7-2.8-3.7s-2.8,1.3-2.8,3.7V46c0,2.4,1.1,3.7,2.8,3.7
			S272.5,48.4,272.5,46z"/>
		<path class="st1" d="M278.5,46.1v-0.2c0-4.6,3.4-7.5,7.7-7.5c3.9,0,7.3,2.2,7.3,7.4V47h-10c-0.1,1.6,1.1,2.9,2.7,3
			c0.1,0,0.2,0,0.3,0c1.6,0,2.3-0.7,2.5-1.7h4.6c-0.4,3.2-2.9,5-7.2,5C281.8,53.4,278.5,50.8,278.5,46.1z M288.8,44.3
			c-0.1-1.7-0.9-2.7-2.5-2.7s-2.5,1-2.7,2.7L288.8,44.3z"/>
		<path class="st1" d="M295.2,38.8h4.9v2.8c0.7-1.9,2.6-3.2,4.6-3v4.6c-3-0.1-4.6,0.8-4.6,3.1v6.8h-4.9V38.8z"/>
		<path class="st1" d="M307.3,48.5v-6.4h-1.7v-3.3h1.7v-3h4.9v3h2.8v3.3h-2.8V48c-0.1,0.7,0.4,1.4,1.1,1.5c0.1,0,0.2,0,0.4,0
			c0.5,0,0.9-0.1,1.4-0.3V53c-0.9,0.3-1.8,0.4-2.7,0.4C309.1,53.4,307.3,51.8,307.3,48.5z"/>
		<path class="st1" d="M316.8,34.9c-0.1-1.5,1-2.8,2.5-2.9s2.8,1,2.9,2.5c0.1,1.5-1,2.8-2.5,2.9c-0.1,0-0.1,0-0.2,0
			C318,37.5,316.8,36.4,316.8,34.9C316.8,35,316.8,34.9,316.8,34.9z M317,38.8h4.9v14.3H317L317,38.8z"/>
		<path class="st1" d="M323.6,48.5h4.5c0.2,1,0.6,1.6,2,1.6c1.2,0,1.8-0.5,1.8-1.2s-0.7-1-2.6-1.3c-3.8-0.5-5.4-1.6-5.4-4.6
			c0-3.2,2.8-4.7,6.1-4.7c3.5,0,6,1.2,6.3,4.6h-4.4c-0.1-0.9-0.9-1.5-1.8-1.4c0,0-0.1,0-0.1,0c-1.1,0-1.6,0.5-1.6,1.1s0.7,1,2.4,1.2
			c4,0.5,5.9,1.5,5.9,4.6c0,3.4-2.5,4.9-6.5,4.9S323.7,51.7,323.6,48.5z"/>
		<path class="st1" d="M337.5,46.1v-0.2c0-4.6,3.4-7.5,7.7-7.5c3.9,0,7.3,2.2,7.3,7.4V47h-10.1c-0.1,1.6,1.1,2.9,2.7,3
			c0.1,0,0.2,0,0.3,0c1.6,0,2.3-0.7,2.5-1.7h4.6c-0.4,3.2-2.9,5-7.2,5C340.8,53.4,337.5,50.8,337.5,46.1z M347.7,44.3
			c-0.1-1.7-0.9-2.7-2.5-2.7c-1.5,0-2.7,1.2-2.7,2.7L347.7,44.3z"/>
		<path class="st1" d="M359.8,48.5v-6.4h-1.7v-3.3h1.7v-3h4.9v3h2.8v3.3h-2.8V48c-0.1,0.7,0.4,1.4,1.1,1.5c0.1,0,0.2,0,0.4,0
			c0.5,0,0.9-0.1,1.4-0.3V53c-0.9,0.3-1.8,0.4-2.7,0.4C361.6,53.4,359.8,51.8,359.8,48.5z"/>
		<path class="st1" d="M368.6,46.1v-0.2c0-4.6,3.4-7.5,7.8-7.5s7.8,2.8,7.8,7.3V46c0,4.6-3.4,7.4-7.8,7.4S368.6,50.7,368.6,46.1z
			 M379.2,46v-0.2c0-2.4-1-3.7-2.8-3.7s-2.8,1.3-2.8,3.7V46c0,2.5,1,3.8,2.8,3.8S379.2,48.4,379.2,46z"/>
		<path class="st1" d="M389.7,38.8h5.1l2.1,8.5l2.4-8.5h3.9l2.1,8.5l2.3-8.5h4.6l-4.5,14.3h-4.7l-2.1-8l-2.2,8H394L389.7,38.8z"/>
		<path class="st1" d="M412.2,46.1v-0.2c0-4.6,3.4-7.5,7.8-7.5s7.8,2.8,7.8,7.3V46c0,4.6-3.4,7.4-7.8,7.4S412.2,50.7,412.2,46.1z
			 M422.8,46v-0.2c0-2.4-1-3.7-2.8-3.7s-2.8,1.3-2.8,3.7V46c0,2.5,1,3.8,2.8,3.8S422.8,48.4,422.8,46z"/>
		<path class="st1" d="M429.5,38.8h4.9v2.8c0.7-1.9,2.6-3.2,4.6-3v4.6c-3-0.1-4.6,0.8-4.6,3.1v6.8h-4.9V38.8z"/>
		<path class="st1" d="M440.8,32.5h4.9v11.9l3.9-5.7h5.1l-4.7,6.4l5.1,7.9h-5.5l-3.9-6.3v6.3h-4.9L440.8,32.5z"/>
		<path class="st1" d="M461.8,42.1H460v-3.3h1.8v-1.3c0-3.5,2.2-5.2,5.6-5.2c0.8,0,1.5,0.1,2.2,0.3v3.6c-0.4-0.1-0.9-0.2-1.3-0.2
			c-0.8-0.1-1.5,0.4-1.6,1.2c0,0.1,0,0.2,0,0.3v1.3h2.9v3.3h-2.9v11h-4.9L461.8,42.1z"/>
		<path class="st1" d="M470,46.1v-0.2c0-4.6,3.4-7.5,7.8-7.5s7.8,2.8,7.8,7.3V46c0,4.6-3.4,7.4-7.8,7.4S470,50.7,470,46.1z
			 M480.6,46v-0.2c0-2.4-1-3.7-2.8-3.7s-2.8,1.3-2.8,3.7V46c0,2.5,1,3.8,2.8,3.8S480.6,48.4,480.6,46z"/>
		<path class="st1" d="M487.3,38.8h4.9v2.8c0.7-1.9,2.6-3.2,4.6-3v4.6c-3-0.1-4.6,0.8-4.6,3.1v6.8h-4.9V38.8z"/>
		<path class="st1" d="M508,51.6l-5.7-12.8h5.3l2.9,7.6l2.7-7.6h4.7l-7.6,19h-4.7L508,51.6z"/>
		<path class="st1" d="M517.7,46.1v-0.2c0-4.6,3.4-7.5,7.8-7.5s7.8,2.8,7.8,7.3V46c0,4.6-3.4,7.4-7.8,7.4S517.7,50.7,517.7,46.1z
			 M528.3,46v-0.2c0-2.4-1-3.7-2.8-3.7s-2.8,1.3-2.8,3.7V46c0,2.5,1,3.8,2.8,3.8S528.3,48.4,528.3,46z"/>
		<path class="st1" d="M534.9,48.1v-9.3h4.9v8.5c0,1.6,0.6,2.4,2,2.4s2.4-0.9,2.4-2.7v-8.2h4.9v14.3h-4.9v-2.2
			c-0.9,1.7-2.6,2.7-4.5,2.5C537,53.4,534.9,51.7,534.9,48.1z"/>
		<path class="st1" d="M551.4,50.6c0-1.5,1.2-2.7,2.7-2.8c0,0,0.1,0,0.1,0c1.5,0,2.8,1.2,2.8,2.8c0,1.5-1.2,2.8-2.8,2.8
			C552.7,53.4,551.5,52.2,551.4,50.6C551.4,50.7,551.4,50.6,551.4,50.6z"/>
	</g>
</g>
</svg>
