<svg xmlns="http://www.w3.org/2000/svg" viewBox="0 0 729 91"><title>Asset 16</title><g id="Layer_2" data-name="Layer 2"><g id="Layer_23" data-name="Layer 23"><rect x="0.5" y="0.5" width="728" height="90" fill="none" stroke="#000" stroke-miterlimit="10"/></g><g id="Put_our_taxpertise_to_work_for_you." data-name="Put our taxpertise to work for you."><path d="M122.38,33.54h7.43c5.35,0,7.83,2.37,7.83,6.52v.11c0,4.1-2.75,6.31-7.59,6.31H128v6.58h-5.57Zm7.18,9.12c1.8,0,2.76-.85,2.76-2.46v-.11c0-1.67-1-2.35-2.73-2.35H128v4.92Z" fill="#fff"/><path d="M139.23,48.09V38.78h4.88V47.3c0,1.61.63,2.4,2,2.4s2.43-.87,2.43-2.7V38.78h4.89V53.06h-4.89V50.85A4.68,4.68,0,0,1,144,53.38C141.27,53.38,139.23,51.69,139.23,48.09Z" fill="#fff"/><path d="M156.59,48.47V42.11h-1.72V38.78h1.72v-3h4.89v3h2.81v3.33h-2.81V48c0,1,.51,1.5,1.44,1.5a3.55,3.55,0,0,0,1.39-.25V53a9.9,9.9,0,0,1-2.7.41C158.39,53.38,156.59,51.83,156.59,48.47Z" fill="#fff"/><path d="M170.35,46.1v-.22c0-4.59,3.41-7.48,7.83-7.48S186,41.21,186,45.74V46c0,4.64-3.41,7.42-7.8,7.42S170.35,50.71,170.35,46.1ZM181,46v-.22c0-2.4-1-3.73-2.82-3.73s-2.84,1.28-2.84,3.68V46c0,2.46,1,3.79,2.84,3.79S181,48.39,181,46Z" fill="#fff"/><path d="M187.57,48.09V38.78h4.89V47.3c0,1.61.63,2.4,2,2.4s2.43-.87,2.43-2.7V38.78h4.89V53.06h-4.89V50.85a4.69,4.69,0,0,1-4.53,2.53C189.62,53.38,187.57,51.69,187.57,48.09Z" fill="#fff"/><path d="M204.28,38.78h4.89v2.84a4.49,4.49,0,0,1,4.61-3v4.56c-3-.08-4.61.84-4.61,3.14v6.77h-4.89Z" fill="#fff"/><path d="M221.18,48.47V42.11h-1.72V38.78h1.72v-3h4.89v3h2.81v3.33h-2.81V48c0,1,.51,1.5,1.44,1.5a3.64,3.64,0,0,0,1.4-.25V53a10,10,0,0,1-2.71.41C223,53.38,221.18,51.83,221.18,48.47Z" fill="#fff"/><path d="M230,49.1c0-3.36,2.84-4.67,7.59-4.67h1.36V44.1c0-1.36-.32-2.26-1.88-2.26a1.75,1.75,0,0,0-1.94,1.69h-4.58c.21-3.44,2.92-5.13,6.82-5.13s6.44,1.61,6.44,5.4v9.26H239V51.39a4.67,4.67,0,0,1-4.23,2C232.24,53.38,230,52.13,230,49.1Zm8.95-1v-.87h-1.28c-2,0-2.84.38-2.84,1.55,0,.82.55,1.34,1.7,1.34A2.14,2.14,0,0,0,238.92,48.06Z" fill="#fff"/><path d="M249.76,45.79l-4.45-7h5.63l2.21,3.77,2.15-3.77h5l-4.51,6.63,4.94,7.65h-5.62L252.6,48.8,250,53.06h-5Z" fill="#fff"/><path d="M262.13,38.78H267v2.13a5,5,0,0,1,4.45-2.51c3.33,0,6,2.51,6,7.39V46c0,4.92-2.7,7.37-6.06,7.37A4.71,4.71,0,0,1,267,51v6.87h-4.89ZM272.53,46v-.22c0-2.51-1.09-3.71-2.81-3.71s-2.84,1.29-2.84,3.69V46c0,2.43,1.06,3.65,2.84,3.65S272.53,48.36,272.53,46Z" fill="#fff"/><path d="M278.51,46.1v-.22c0-4.59,3.41-7.48,7.72-7.48,3.91,0,7.27,2.24,7.27,7.37v1.28H283.45a2.86,2.86,0,0,0,3,3c1.61,0,2.29-.74,2.48-1.7h4.59c-.44,3.23-2.93,5.05-7.24,5.05C281.79,53.38,278.51,50.76,278.51,46.1Zm10.24-1.81c-.09-1.72-.93-2.67-2.52-2.67s-2.48,1-2.73,2.67Z" fill="#fff"/><path d="M295.19,38.78h4.89v2.84a4.49,4.49,0,0,1,4.61-3v4.56c-3-.08-4.61.84-4.61,3.14v6.77h-4.89Z" fill="#fff"/><path d="M307.34,48.47V42.11h-1.72V38.78h1.72v-3h4.88v3H315v3.33h-2.82V48a1.31,1.31,0,0,0,1.45,1.5,3.55,3.55,0,0,0,1.39-.25V53a9.9,9.9,0,0,1-2.7.41C309.14,53.38,307.34,51.83,307.34,48.47Z" fill="#fff"/><path d="M316.78,34.9a2.7,2.7,0,1,1,2.68,2.52A2.56,2.56,0,0,1,316.78,34.9Zm.25,3.88h4.89V53.06H317Z" fill="#fff"/><path d="M323.58,48.53h4.5c.17,1,.63,1.61,2,1.61,1.21,0,1.75-.47,1.75-1.18s-.68-1-2.65-1.28c-3.82-.49-5.43-1.61-5.43-4.59,0-3.16,2.81-4.69,6.12-4.69,3.52,0,6,1.2,6.3,4.61h-4.42a1.6,1.6,0,0,0-1.83-1.42c-1.06,0-1.61.47-1.61,1.12s.66,1,2.4,1.17c4,.5,5.87,1.53,5.87,4.59,0,3.39-2.51,4.91-6.47,4.91S323.69,51.69,323.58,48.53Z" fill="#fff"/><path d="M337.5,46.1v-.22c0-4.59,3.42-7.48,7.73-7.48,3.9,0,7.26,2.24,7.26,7.37v1.28H342.44a2.86,2.86,0,0,0,3,3c1.61,0,2.29-.74,2.48-1.7h4.59c-.44,3.23-2.92,5.05-7.23,5.05C340.78,53.38,337.5,50.76,337.5,46.1Zm10.24-1.81c-.08-1.72-.93-2.67-2.51-2.67a2.71,2.71,0,0,0-2.73,2.67Z" fill="#fff"/><path d="M359.81,48.47V42.11h-1.72V38.78h1.72v-3h4.88v3h2.81v3.33h-2.81V48a1.31,1.31,0,0,0,1.45,1.5,3.55,3.55,0,0,0,1.39-.25V53a10,10,0,0,1-2.7.41C361.61,53.38,359.81,51.83,359.81,48.47Z" fill="#fff"/><path d="M368.6,46.1v-.22c0-4.59,3.41-7.48,7.83-7.48s7.78,2.81,7.78,7.34V46c0,4.64-3.41,7.42-7.81,7.42S368.6,50.71,368.6,46.1ZM379.24,46v-.22c0-2.4-.95-3.73-2.81-3.73s-2.84,1.28-2.84,3.68V46c0,2.46,1,3.79,2.84,3.79S379.24,48.39,379.24,46Z" fill="#fff"/><path d="M389.7,38.78h5.1l2.08,8.54,2.4-8.54h3.93l2.13,8.54,2.32-8.54h4.64l-4.53,14.28H403.1l-2.13-8-2.21,8H394Z" fill="#fff"/><path d="M412.17,46.1v-.22c0-4.59,3.41-7.48,7.83-7.48s7.78,2.81,7.78,7.34V46c0,4.64-3.41,7.42-7.81,7.42S412.17,50.71,412.17,46.1ZM422.81,46v-.22c0-2.4-.95-3.73-2.81-3.73s-2.84,1.28-2.84,3.68V46c0,2.46,1,3.79,2.84,3.79S422.81,48.39,422.81,46Z" fill="#fff"/><path d="M429.5,38.78h4.89v2.84a4.49,4.49,0,0,1,4.61-3v4.56c-3-.08-4.61.84-4.61,3.14v6.77H429.5Z" fill="#fff"/><path d="M440.78,32.5h4.88V44.43l3.85-5.65h5.08l-4.67,6.41L455,53.06h-5.46l-3.85-6.25v6.25h-4.88Z" fill="#fff"/><path d="M461.83,42.11H460V38.78h1.81V37.52c0-3.54,2.21-5.24,5.59-5.24a8.93,8.93,0,0,1,2.24.3v3.58a4.49,4.49,0,0,0-1.34-.19,1.44,1.44,0,0,0-1.64,1.55v1.26h2.9v3.33h-2.9v11h-4.85Z" fill="#fff"/><path d="M470,46.1v-.22c0-4.59,3.41-7.48,7.83-7.48s7.79,2.81,7.79,7.34V46c0,4.64-3.42,7.42-7.81,7.42S470,50.71,470,46.1ZM480.61,46v-.22c0-2.4-1-3.73-2.82-3.73S475,43.34,475,45.74V46c0,2.46,1,3.79,2.83,3.79S480.61,48.39,480.61,46Z" fill="#fff"/><path d="M487.3,38.78h4.88v2.84a4.5,4.5,0,0,1,4.62-3v4.56c-3-.08-4.62.84-4.62,3.14v6.77H487.3Z" fill="#fff"/><path d="M508,51.61l-5.71-12.83h5.3l2.94,7.62,2.73-7.62H518l-7.64,19h-4.67Z" fill="#fff"/><path d="M517.68,46.1v-.22c0-4.59,3.41-7.48,7.83-7.48s7.78,2.81,7.78,7.34V46c0,4.64-3.41,7.42-7.8,7.42S517.68,50.71,517.68,46.1ZM528.33,46v-.22c0-2.4-1-3.73-2.82-3.73s-2.83,1.28-2.83,3.68V46c0,2.46,1,3.79,2.83,3.79S528.33,48.39,528.33,46Z" fill="#fff"/><path d="M534.91,48.09V38.78h4.88V47.3c0,1.61.63,2.4,2,2.4s2.43-.87,2.43-2.7V38.78h4.89V53.06h-4.89V50.85a4.68,4.68,0,0,1-4.53,2.53C537,53.38,534.91,51.69,534.91,48.09Z" fill="#fff"/><path d="M551.42,50.6a2.73,2.73,0,0,1,2.79-2.76,2.76,2.76,0,1,1,0,5.52A2.73,2.73,0,0,1,551.42,50.6Z" fill="#fff"/></g></g></svg>