<svg xmlns="http://www.w3.org/2000/svg" viewBox="0 0 121 32"><title>get_started</title><g id="Layer_2" data-name="Layer 2"><g id="Get_started" data-name="Get started"><path d="M24.41,14.88v-.11a4.91,4.91,0,0,1,5.1-5.11c2.23,0,4.22,1,4.45,3.5H31.71a1.94,1.94,0,0,0-2.17-1.71c-1.74,0-2.76,1.3-2.76,3.35v.11c0,1.93.82,3.32,2.79,3.32A2.12,2.12,0,0,0,32,16.11H29.72V14.46h4.5v1.06c0,2.68-1.71,4.46-4.71,4.46A4.75,4.75,0,0,1,24.41,14.88Z" fill="#262626"/><path d="M35,16.25v-.11a3.64,3.64,0,0,1,3.77-3.81,3.38,3.38,0,0,1,3.57,3.73v.56H37.07a1.75,1.75,0,0,0,1.82,1.92c.94,0,1.4-.41,1.53-1h1.92C42.1,19.1,40.84,20,38.83,20A3.56,3.56,0,0,1,35,16.25Zm5.36-.88c-.07-1.11-.63-1.64-1.59-1.64a1.68,1.68,0,0,0-1.68,1.64Z" fill="#262626"/><path d="M43.77,17.65V13.94h-.94V12.5h.94V10.92h2V12.5h1.54v1.44H45.79v3.53c0,.59.29.87.81.87a1.83,1.83,0,0,0,.77-.14v1.57a3.63,3.63,0,0,1-1.23.19A2.09,2.09,0,0,1,43.77,17.65Z" fill="#262626"/><path d="M50.9,17.53h1.89c.08.66.41,1,1.29,1s1.15-.29,1.15-.79-.44-.72-1.49-.87C51.8,16.6,51,16,51,14.61s1.4-2.28,2.9-2.28,2.84.59,3,2.27H55.1c-.11-.6-.45-.88-1.15-.88s-1,.31-1,.75.35.65,1.41.8c1.84.27,2.84.73,2.84,2.3S56,20,54.09,20,51,19.11,50.9,17.53Z" fill="#262626"/><path d="M58.56,17.65V13.94h-.94V12.5h.94V10.92h2V12.5h1.55v1.44H60.57v3.53c0,.59.3.87.82.87a1.86,1.86,0,0,0,.77-.14v1.57a3.7,3.7,0,0,1-1.24.19A2.08,2.08,0,0,1,58.56,17.65Z" fill="#262626"/><path d="M62.88,17.79c0-1.71,1.57-2.35,3.81-2.35h.83v-.29c0-.87-.27-1.35-1.19-1.35a1.11,1.11,0,0,0-1.25,1H63.16c.13-1.74,1.5-2.51,3.3-2.51s3.06.73,3.06,2.72v4.78h-2v-.89a2.5,2.5,0,0,1-2.22,1A2.15,2.15,0,0,1,62.88,17.79Zm4.64-.53v-.61h-.78c-1.18,0-1.87.25-1.87,1,0,.53.32.88,1.07.88S67.52,18.07,67.52,17.26Z" fill="#262626"/><path d="M71,12.5h2v1.4a2.39,2.39,0,0,1,2.36-1.51v1.89c-1.5,0-2.36.47-2.36,1.88v3.67H71Z" fill="#262626"/><path d="M77,17.65V13.94H76V12.5H77V10.92h2V12.5h1.55v1.44H79v3.53c0,.59.3.87.82.87a1.86,1.86,0,0,0,.77-.14v1.57a3.7,3.7,0,0,1-1.24.19A2.08,2.08,0,0,1,77,17.65Z" fill="#262626"/><path d="M81.28,16.25v-.11a3.64,3.64,0,0,1,3.77-3.81,3.38,3.38,0,0,1,3.57,3.73v.56H83.34a1.75,1.75,0,0,0,1.82,1.92c.94,0,1.4-.41,1.53-1H88.6C88.37,19.1,87.11,20,85.1,20A3.56,3.56,0,0,1,81.28,16.25Zm5.36-.88c-.07-1.11-.63-1.64-1.59-1.64a1.68,1.68,0,0,0-1.68,1.64Z" fill="#262626"/><path d="M89.3,16.27v-.11c0-2.41,1.39-3.83,3.22-3.83a2.43,2.43,0,0,1,2.31,1.26V9.18h2V19.83h-2V18.61A2.65,2.65,0,0,1,92.48,20C90.7,20,89.3,18.71,89.3,16.27Zm5.59-.07v-.12c0-1.45-.64-2.19-1.75-2.19s-1.77.77-1.77,2.22v.12c0,1.45.7,2.17,1.71,2.17S94.89,17.68,94.89,16.2Z" fill="#262626"/></g><g id="Rect"><rect width="121" height="32" fill="none"/></g></g></svg>