<svg xmlns="http://www.w3.org/2000/svg" viewBox="0 0 300 250"><title>H03</title><g id="Layer_2" data-name="Layer 2"><g id="Rect"><rect width="300" height="250" fill="none"/></g><g id="Claim_EITC_for_free_with_H_R_Block_Free_Online." data-name="Claim EITC for free with H&amp;R Block Free Online."><path d="M19.88,48v-.22a9.58,9.58,0,0,1,10-10c5.1,0,8.63,2.35,9.1,7.53H33.2c-.22-2-1.32-3.09-3.29-3.09-2.52,0-4.11,2-4.11,5.53v.22c0,3.54,1.5,5.54,4.19,5.54a3.37,3.37,0,0,0,3.64-3.21h5.59c-.38,5.07-4,7.7-9.12,7.7C23.25,58,19.88,54,19.88,48Z" fill="#fff"/><path d="M41.39,37h4.87V57.63H41.39Z" fill="#fff"/><path d="M48.48,53.66c0-3.37,2.85-4.69,7.62-4.69h1.37v-.33c0-1.37-.33-2.27-1.89-2.27a1.76,1.76,0,0,0-1.95,1.7H49c.22-3.45,2.93-5.15,6.85-5.15s6.47,1.61,6.47,5.42v9.29H57.58V56a4.7,4.7,0,0,1-4.25,2C50.76,58,48.48,56.7,48.48,53.66Zm9-1v-.88H56.18c-2,0-2.85.38-2.85,1.56,0,.82.55,1.35,1.7,1.35A2.16,2.16,0,0,0,57.47,52.62Z" fill="#fff"/><path d="M65,39.41a2.71,2.71,0,1,1,2.69,2.52A2.56,2.56,0,0,1,65,39.41Zm.25,3.89h4.9V57.63h-4.9Z" fill="#fff"/><path d="M73.23,43.3h4.9v2.19a5,5,0,0,1,4.49-2.57,3.91,3.91,0,0,1,3.9,2.38,5.67,5.67,0,0,1,4.74-2.38c2.71,0,4.68,1.75,4.68,5.34v9.37H91V49.08c0-1.45-.71-2.16-1.84-2.16A2.13,2.13,0,0,0,87,49.33v8.3H82.16V49.08c0-1.45-.71-2.16-1.84-2.16a2.13,2.13,0,0,0-2.19,2.41v8.3h-4.9Z" fill="#fff"/><path d="M104.57,38h13.54v4.33h-8v3.37h6.33v4h-6.33V53.3h8.39v4.33h-14Z" fill="#fff"/><path d="M121.45,38h5.67V57.63h-5.67Z" fill="#fff"/><path d="M134.74,42.37h-5.07V38h15.78v4.33h-5.07V57.63h-5.64Z" fill="#fff"/><path d="M146.22,48v-.22a9.58,9.58,0,0,1,10-10c5.1,0,8.63,2.35,9.1,7.53h-5.78c-.22-2-1.32-3.09-3.29-3.09-2.52,0-4.11,2-4.11,5.53v.22c0,3.54,1.51,5.54,4.19,5.54A3.38,3.38,0,0,0,160,50.26h5.59c-.39,5.07-4.06,7.7-9.13,7.7C149.59,58,146.22,54,146.22,48Z" fill="#fff"/><path d="M173.73,46.64h-1.81V43.3h1.81V42c0-3.56,2.22-5.26,5.62-5.26a8.43,8.43,0,0,1,2.24.3v3.59a4.44,4.44,0,0,0-1.34-.19A1.44,1.44,0,0,0,178.61,42V43.3h2.9v3.34h-2.9v11h-4.88Z" fill="#fff"/><path d="M182.31,50.64v-.22c0-4.6,3.42-7.5,7.86-7.5S198,45.74,198,50.29v.22c0,4.66-3.42,7.45-7.84,7.45S182.31,55.28,182.31,50.64ZM193,50.56v-.22c0-2.41-1-3.75-2.82-3.75s-2.85,1.29-2.85,3.7v.22c0,2.46,1,3.81,2.85,3.81S193,53,193,50.56Z" fill="#fff"/><path d="M200.12,43.3H205v2.85a4.51,4.51,0,0,1,4.63-3v4.57c-3-.08-4.63.85-4.63,3.16v6.79h-4.9Z" fill="#fff"/><path d="M218,46.64h-1.81V43.3H218V42c0-3.56,2.22-5.26,5.62-5.26a8.57,8.57,0,0,1,2.25.3v3.59a4.56,4.56,0,0,0-1.35-.19A1.44,1.44,0,0,0,222.86,42V43.3h2.9v3.34h-2.9v11H218Z" fill="#fff"/><path d="M227.82,43.3h4.9v2.85a4.51,4.51,0,0,1,4.63-3v4.57c-3-.08-4.63.85-4.63,3.16v6.79h-4.9Z" fill="#fff"/><path d="M238.64,50.64v-.22c0-4.6,3.43-7.5,7.76-7.5,3.91,0,7.29,2.24,7.29,7.4V51.6H243.6a2.86,2.86,0,0,0,3,3c1.61,0,2.3-.74,2.49-1.7h4.61c-.44,3.23-2.94,5.07-7.27,5.07C241.93,58,238.64,55.33,238.64,50.64Zm10.28-1.8c-.09-1.73-.93-2.69-2.52-2.69a2.72,2.72,0,0,0-2.74,2.69Z" fill="#fff"/><path d="M255,50.64v-.22c0-4.6,3.42-7.5,7.75-7.5,3.92,0,7.29,2.24,7.29,7.4V51.6H260a2.86,2.86,0,0,0,3,3c1.62,0,2.3-.74,2.5-1.7h4.6c-.44,3.23-2.93,5.07-7.26,5.07C258.31,58,255,55.33,255,50.64Zm10.27-1.8c-.08-1.73-.93-2.69-2.52-2.69s-2.49,1-2.74,2.69Z" fill="#fff"/><path d="M19.25,79.7h5.12l2.08,8.58,2.42-8.58h3.94L35,88.28l2.33-8.58h4.66L37.39,94H32.7l-2.14-8-2.21,8H23.58Z" fill="#fff"/><path d="M43.5,75.81a2.7,2.7,0,1,1,2.68,2.52A2.56,2.56,0,0,1,43.5,75.81Zm.24,3.89h4.91V94H43.74Z" fill="#fff"/><path d="M52.35,89.43V83H50.62V79.7h1.73v-3h4.9v3h2.82V83H57.25V89c0,1,.52,1.51,1.45,1.51a3.64,3.64,0,0,0,1.4-.25V94a10.47,10.47,0,0,1-2.71.41C54.16,94.36,52.35,92.8,52.35,89.43Z" fill="#fff"/><path d="M62.35,73.4h4.9V82A5.06,5.06,0,0,1,72,79.32c2.76,0,4.68,1.72,4.68,5.39V94h-4.9V85.7c0-1.62-.63-2.41-2.06-2.41s-2.44.88-2.44,2.71v8h-4.9Z" fill="#fff"/><path d="M85.28,74.44h5.65v7.48h6.44V74.44H103V94H97.37V86.3H90.93V94H85.28Z" fill="#fff"/><path d="M122.19,90l3.26,4h-6.38l-1.15-1.42a7.85,7.85,0,0,1-5.29,1.75c-4.17,0-6.88-2.19-6.88-5.92,0-2.52,1.53-4.38,4.3-5.7a6.21,6.21,0,0,1-1.2-3.42c0-3.35,2.85-5.13,6.3-5.13,3.12,0,5.95,1.56,5.95,4.58,0,2.14-1.26,3.7-3.92,4.85l2.46,3,1.43-2.79h4.27Zm-6.79-.57-3.1-3.73A2.32,2.32,0,0,0,111,87.84a2.28,2.28,0,0,0,2.5,2.44A2.6,2.6,0,0,0,115.4,89.46Zm-.61-7.9c1.32-.63,1.95-1.37,1.95-2.38a1.41,1.41,0,0,0-1.45-1.51,1.56,1.56,0,0,0-1.62,1.7A3.61,3.61,0,0,0,114.79,81.56Z" fill="#fff"/><path d="M127.64,74.44h7.68c5.12,0,8,2.08,8,6.22v.11a5.12,5.12,0,0,1-3.54,5.15L144.44,94h-5.92l-4-7h-1.32v7h-5.59Zm7.4,8.93c1.89,0,2.82-.79,2.82-2.38v-.11c0-1.59-1-2.22-2.79-2.22h-1.84v4.71Z" fill="#fff"/><path d="M152.14,74.44h8.74c4.63,0,6.6,2.08,6.6,5.12v.11a4,4,0,0,1-3.31,4.22,4.26,4.26,0,0,1,3.92,4.58v.11c0,3.51-2.28,5.45-7.13,5.45h-8.82Zm7.62,7.78c1.75,0,2.41-.6,2.41-2v-.11c0-1.34-.71-1.94-2.41-1.94h-2.14v4Zm.19,8.06c1.78,0,2.6-.82,2.6-2.28v-.11c0-1.48-.79-2.24-2.77-2.24h-2.16v4.63Z" fill="#fff"/><path d="M170.44,73.4h4.88V94h-4.88Z" fill="#fff"/><path d="M177.59,87v-.22c0-4.6,3.43-7.5,7.87-7.5s7.81,2.82,7.81,7.37v.22c0,4.66-3.43,7.45-7.84,7.45S177.59,91.68,177.59,87ZM188.28,87v-.22c0-2.41-1-3.75-2.82-3.75s-2.85,1.29-2.85,3.7v.22c0,2.46,1,3.81,2.85,3.81S188.28,89.35,188.28,87Z" fill="#fff"/><path d="M194.63,87v-.22c0-4.76,3.43-7.5,7.65-7.5,3.51,0,6.74,1.53,7,5.89h-4.61a2.12,2.12,0,0,0-2.3-2.09c-1.73,0-2.74,1.24-2.74,3.65V87c0,2.49,1,3.78,2.82,3.78a2.39,2.39,0,0,0,2.5-2.38h4.41c-.14,3.61-2.58,6-7.21,6C197.9,94.36,194.63,91.87,194.63,87Z" fill="#fff"/><path d="M211.38,73.4h4.9v12l3.87-5.67h5.09l-4.68,6.44L225.63,94h-5.48l-3.87-6.27V94h-4.9Z" fill="#fff"/><path d="M20.89,110.84H34.13v4.36H26.54v4.16h6.05v4.14H26.54v6.93H20.89Z" fill="#fff"/><path d="M35.85,116.1h4.91V119a4.5,4.5,0,0,1,4.63-3v4.57c-3-.08-4.63.85-4.63,3.16v6.79H35.85Z" fill="#fff"/><path d="M46.67,123.44v-.21c0-4.61,3.43-7.51,7.76-7.51,3.92,0,7.29,2.24,7.29,7.4v1.28H51.63a2.87,2.87,0,0,0,3,3c1.62,0,2.3-.74,2.5-1.7h4.6c-.44,3.23-2.93,5.07-7.26,5.07C50,130.76,46.67,128.13,46.67,123.44ZM57,121.64c-.08-1.73-.93-2.69-2.52-2.69s-2.49,1-2.74,2.69Z" fill="#fff"/><path d="M63.06,123.44v-.21c0-4.61,3.43-7.51,7.76-7.51,3.91,0,7.29,2.24,7.29,7.4v1.28H68a2.86,2.86,0,0,0,3,3c1.61,0,2.3-.74,2.49-1.7h4.61c-.44,3.23-2.94,5.07-7.27,5.07C66.35,130.76,63.06,128.13,63.06,123.44Zm10.28-1.8c-.09-1.73-.93-2.69-2.52-2.69a2.72,2.72,0,0,0-2.74,2.69Z" fill="#fff"/><path d="M85,120.76v-.22c0-6,4.49-10,10.36-10s10.38,3.76,10.38,9.84v.22c0,6-4.14,10.14-10.47,10.14S85,126.65,85,120.76Zm14.88-.06v-.22c0-3.48-1.76-5.53-4.52-5.53s-4.5,2-4.5,5.56v.22c0,3.56,1.81,5.62,4.52,5.62S99.89,124.21,99.89,120.7Z" fill="#fff"/><path d="M108.05,116.1H113v2.3a5,5,0,0,1,4.71-2.68c2.77,0,4.69,1.72,4.69,5.39v9.32h-4.91V122.1c0-1.62-.63-2.41-2-2.41s-2.44.88-2.44,2.71v8h-4.91Z" fill="#fff"/><path d="M125.29,109.8h4.87v20.63h-4.87Z" fill="#fff"/><path d="M133.09,112.21a2.71,2.71,0,1,1,2.69,2.52A2.57,2.57,0,0,1,133.09,112.21Zm.25,3.89h4.91v14.33h-4.91Z" fill="#fff"/><path d="M141.29,116.1h4.9v2.3a5.06,5.06,0,0,1,4.72-2.68c2.76,0,4.68,1.72,4.68,5.39v9.32h-4.9V122.1c0-1.62-.63-2.41-2.06-2.41s-2.44.88-2.44,2.71v8h-4.9Z" fill="#fff"/><path d="M157.62,123.44v-.21c0-4.61,3.42-7.51,7.75-7.51,3.92,0,7.29,2.24,7.29,7.4v1.28H162.58a2.86,2.86,0,0,0,3,3c1.61,0,2.3-.74,2.49-1.7h4.6c-.44,3.23-2.93,5.07-7.26,5.07C160.91,130.76,157.62,128.13,157.62,123.44Zm10.27-1.8c-.08-1.73-.93-2.69-2.52-2.69s-2.49,1-2.74,2.69Z" fill="#fff"/><path d="M174.44,128a2.73,2.73,0,0,1,2.8-2.77,2.77,2.77,0,1,1,0,5.53A2.73,2.73,0,0,1,174.44,128Z" fill="#fff"/></g></g></svg>