<svg xmlns="http://www.w3.org/2000/svg" viewBox="0 0 301 251"><title>Asset 7</title><g id="Layer_2" data-name="Layer 2"><g id="Rect"><rect x="0.5" y="0.5" width="300" height="250" fill="none" stroke="#000" stroke-miterlimit="10"/></g><g id="Save_on_online_tax_prep._Switch_from_TurboTax." data-name="Save on online tax prep. Switch from TurboTax."><path d="M21.26,35.86h6.43c.17,1.68.93,3.07,3.73,3.07,1.95,0,3-1,3-2.35s-.89-1.85-3.73-2.27c-6.67-.8-8.91-2.78-8.91-7.53,0-4.26,3.5-7.36,9.14-7.36s8.88,2.38,9.31,7.36H34a2.68,2.68,0,0,0-3-2.54c-1.81,0-2.74.82-2.74,2s.73,1.92,3.67,2.31c6,.66,9,2.21,9,7.33,0,4.32-3.43,7.85-9.51,7.85C24.82,43.74,21.46,41,21.26,35.86Z" fill="#fff"/><path d="M42.11,38.56c0-4.06,3.44-5.64,9.18-5.64h1.65v-.4c0-1.65-.4-2.74-2.28-2.74a2.12,2.12,0,0,0-2.34,2H42.77c.27-4.16,3.54-6.21,8.26-6.21s7.78,1.95,7.78,6.54V43.35H53.07v-2c-.82,1.25-2.34,2.4-5.11,2.4C44.85,43.74,42.11,42.23,42.11,38.56Zm10.83-1.25V36.25H51.39c-2.38,0-3.43.46-3.43,1.88,0,1,.66,1.62,2,1.62C51.69,39.75,52.94,38.79,52.94,37.31Z" fill="#fff"/><path d="M59.7,26.09H66L69.6,37.21l3.54-11.12h5.64l-6.3,17.26H66Z" fill="#fff"/><path d="M78.41,34.93v-.26c0-5.55,4.13-9,9.34-9,4.72,0,8.78,2.71,8.78,8.92v1.55H84.39c.16,2.27,1.48,3.6,3.6,3.6,1.94,0,2.77-.9,3-2h5.54c-.52,3.89-3.53,6.1-8.74,6.1C82.37,43.74,78.41,40.58,78.41,34.93Zm12.38-2.18c-.1-2.08-1.12-3.23-3-3.23s-3,1.15-3.3,3.23Z" fill="#fff"/><path d="M103.66,34.93v-.26c0-5.55,4.12-9,9.47-9s9.41,3.4,9.41,8.88v.27c0,5.61-4.13,9-9.44,9S103.66,40.51,103.66,34.93Zm12.87-.1v-.26c0-2.9-1.15-4.52-3.4-4.52s-3.43,1.55-3.43,4.45v.27c0,3,1.15,4.58,3.43,4.58S116.53,37.71,116.53,34.83Z" fill="#fff"/><path d="M124.61,26.09h5.91v2.77a6.11,6.11,0,0,1,5.68-3.24c3.33,0,5.64,2.08,5.64,6.51V43.35h-5.91v-10c0-1.95-.76-2.91-2.47-2.91s-2.94,1.06-2.94,3.27v9.67h-5.91Z" fill="#fff"/><path d="M149.79,34.93v-.26c0-5.55,4.13-9,9.47-9s9.41,3.4,9.41,8.88v.27c0,5.61-4.13,9-9.44,9S149.79,40.51,149.79,34.93Zm12.87-.1v-.26c0-2.9-1.15-4.52-3.4-4.52s-3.43,1.55-3.43,4.45v.27c0,3,1.16,4.58,3.43,4.58S162.66,37.71,162.66,34.83Z" fill="#fff"/><path d="M170.75,26.09h5.9v2.77a6.11,6.11,0,0,1,5.68-3.24c3.34,0,5.64,2.08,5.64,6.51V43.35h-5.9v-10c0-1.95-.76-2.91-2.48-2.91s-2.94,1.06-2.94,3.27v9.67h-5.9Z" fill="#fff"/><path d="M191,18.5h5.87V43.35H191Z" fill="#fff"/><path d="M199.92,21.4a3.08,3.08,0,0,1,3.23-3.07,3.06,3.06,0,1,1,0,6.11A3.06,3.06,0,0,1,199.92,21.4Zm.29,4.69h5.91V43.35h-5.91Z" fill="#fff"/><path d="M209.29,26.09h5.91v2.77a6.09,6.09,0,0,1,5.68-3.24c3.33,0,5.64,2.08,5.64,6.51V43.35h-5.91v-10c0-1.95-.76-2.91-2.48-2.91s-2.93,1.06-2.93,3.27v9.67h-5.91Z" fill="#fff"/><path d="M228.46,34.93v-.26c0-5.55,4.13-9,9.34-9,4.72,0,8.78,2.71,8.78,8.92v1.55H234.44c.16,2.27,1.48,3.6,3.59,3.6,1.95,0,2.78-.9,3-2h5.54c-.53,3.89-3.53,6.1-8.74,6.1C232.42,43.74,228.46,40.58,228.46,34.93Zm12.38-2.18c-.1-2.08-1.12-3.23-3-3.23s-3,1.15-3.3,3.23Z" fill="#fff"/><path d="M23,72.8V65.11H21v-4H23v-3.6H29v3.6h3.4v4H29v7.13c0,1.26.63,1.82,1.75,1.82a4.45,4.45,0,0,0,1.68-.3v4.49a12.35,12.35,0,0,1-3.27.49C25.22,78.74,23,76.86,23,72.8Z" fill="#fff"/><path d="M33.67,73.56c0-4.06,3.43-5.64,9.17-5.64h1.65v-.4c0-1.65-.39-2.74-2.28-2.74a2.12,2.12,0,0,0-2.34,2H34.33c.26-4.16,3.53-6.21,8.25-6.21s7.79,2,7.79,6.54V78.35H44.62v-2c-.82,1.25-2.34,2.4-5.11,2.4C36.41,78.74,33.67,77.23,33.67,73.56Zm10.82-1.25V71.25H42.94c-2.38,0-3.43.46-3.43,1.88,0,1,.66,1.62,2.05,1.62C43.24,74.75,44.49,73.79,44.49,72.31Z" fill="#fff"/><path d="M57.59,69.57l-5.38-8.48H59l2.67,4.55,2.61-4.55h6.08l-5.45,8,6,9.24h-6.8L61,73.2l-3.13,5.15h-6Z" fill="#fff"/><path d="M78.55,61.09h5.9v2.57a6.1,6.1,0,0,1,5.38-3c4,0,7.3,3,7.3,8.95v.26c0,5.94-3.27,8.91-7.33,8.91a5.7,5.7,0,0,1-5.35-2.93v8.31h-5.9Zm12.57,8.74v-.26c0-3-1.32-4.49-3.4-4.49s-3.43,1.55-3.43,4.46v.26c0,2.94,1.29,4.42,3.43,4.42S91.12,72.67,91.12,69.83Z" fill="#fff"/><path d="M99.27,61.09h5.91v3.43a5.43,5.43,0,0,1,5.58-3.66v5.51c-3.6-.1-5.58,1-5.58,3.79v8.19H99.27Z" fill="#fff"/><path d="M111.81,69.93v-.26c0-5.55,4.13-9.05,9.34-9.05,4.72,0,8.78,2.71,8.78,8.92v1.55H117.78c.17,2.27,1.49,3.6,3.6,3.6,2,0,2.77-.9,3-2h5.55c-.53,3.89-3.53,6.1-8.75,6.1C115.77,78.74,111.81,75.58,111.81,69.93Zm12.38-2.18c-.1-2.08-1.13-3.23-3-3.23s-3,1.15-3.3,3.23Z" fill="#fff"/><path d="M132,61.09h5.91v2.57a6.09,6.09,0,0,1,5.38-3c4,0,7.29,3,7.29,8.95v.26c0,5.94-3.26,8.91-7.32,8.91a5.7,5.7,0,0,1-5.35-2.93v8.31H132Zm12.58,8.74v-.26c0-3-1.32-4.49-3.4-4.49s-3.43,1.55-3.43,4.46v.26c0,2.94,1.28,4.42,3.43,4.42S144.55,72.67,144.55,69.83Z" fill="#fff"/><path d="M152,75.38A3.29,3.29,0,0,1,155.4,72a3.34,3.34,0,1,1,0,6.67A3.29,3.29,0,0,1,152,75.38Z" fill="#fff"/><path d="M21.26,105.86h6.43c.17,1.68.93,3.07,3.73,3.07,1.95,0,3-1,3-2.35s-.89-1.85-3.73-2.27c-6.67-.8-8.91-2.78-8.91-7.53,0-4.26,3.5-7.36,9.14-7.36s8.88,2.38,9.31,7.36H34a2.68,2.68,0,0,0-3-2.54c-1.81,0-2.74.82-2.74,2s.73,1.92,3.67,2.31c6,.66,9,2.21,9,7.33,0,4.32-3.43,7.85-9.51,7.85C24.82,113.74,21.46,111,21.26,105.86Z" fill="#fff"/><path d="M41.42,96.09h6.17l2.51,10.33L53,96.09h4.75l2.57,10.33,2.81-10.33h5.61l-5.48,17.26H57.63l-2.58-9.64-2.67,9.64H46.64Z" fill="#fff"/><path d="M70.13,91.4a3.26,3.26,0,1,1,3.24,3A3.09,3.09,0,0,1,70.13,91.4Zm.3,4.69h5.91v17.26H70.43Z" fill="#fff"/><path d="M80.3,107.8v-7.69H78.22v-4H80.3v-3.6h5.9v3.6h3.4v4H86.2v7.13c0,1.26.63,1.82,1.75,1.82a4.5,4.5,0,0,0,1.69-.3v4.49a12.42,12.42,0,0,1-3.27.49C82.47,113.74,80.3,111.86,80.3,107.8Z" fill="#fff"/><path d="M90.92,104.93v-.26c0-5.74,4.13-9,9.21-9,4.22,0,8.12,1.85,8.45,7.1H103c-.26-1.62-1-2.51-2.77-2.51-2.08,0-3.3,1.49-3.3,4.39v.27c0,3,1.16,4.55,3.4,4.55a2.87,2.87,0,0,0,3-2.87h5.32c-.17,4.36-3.1,7.19-8.68,7.19C94.85,113.74,90.92,110.74,90.92,104.93Z" fill="#fff"/><path d="M110.59,88.5h5.91V98.86a6.09,6.09,0,0,1,5.67-3.24c3.34,0,5.65,2.08,5.65,6.51v11.22h-5.91v-10c0-1.95-.76-2.91-2.48-2.91s-2.93,1.06-2.93,3.27v9.67h-5.91Z" fill="#fff"/><path d="M137.58,100.11H135.4v-4h2.18V94.57c0-4.29,2.68-6.34,6.77-6.34a10.5,10.5,0,0,1,2.71.37v4.32a5.52,5.52,0,0,0-1.62-.23,1.73,1.73,0,0,0-2,1.88v1.52H147v4h-3.5v13.24h-5.88Z" fill="#fff"/><path d="M148.93,96.09h5.91v3.43a5.44,5.44,0,0,1,5.58-3.66v5.51c-3.6-.1-5.58,1-5.58,3.79v8.19h-5.91Z" fill="#fff"/><path d="M161.47,104.93v-.26c0-5.55,4.13-9,9.48-9s9.4,3.4,9.4,8.88v.27c0,5.61-4.12,9-9.44,9S161.47,110.51,161.47,104.93Zm12.88-.1v-.26c0-2.9-1.16-4.52-3.4-4.52s-3.44,1.55-3.44,4.45v.27c0,3,1.16,4.58,3.44,4.58S174.35,107.71,174.35,104.83Z" fill="#fff"/><path d="M182.43,96.09h5.91v2.64a6,6,0,0,1,5.41-3.11,4.72,4.72,0,0,1,4.69,2.88,6.83,6.83,0,0,1,5.71-2.88c3.26,0,5.64,2.12,5.64,6.44v11.29h-5.91v-10.3c0-1.75-.86-2.61-2.21-2.61-1.58,0-2.64,1-2.64,2.91v10h-5.84v-10.3c0-1.75-.86-2.61-2.21-2.61-1.59,0-2.64,1-2.64,2.91v10h-5.91Z" fill="#fff"/><path d="M27.3,130H21.19v-5.21h19V130H34.1v18.39H27.3Z" fill="#fff"/><path d="M40.73,142.34V131.09h5.91v10.29c0,2,.76,2.91,2.44,2.91S52,143.23,52,141v-9.93h5.9v17.26H52v-2.67a5.69,5.69,0,0,1-5.48,3.07C43.21,148.75,40.73,146.7,40.73,142.34Z" fill="#fff"/><path d="M60.93,131.09h5.9v3.43a5.44,5.44,0,0,1,5.58-3.66v5.51c-3.6-.1-5.58,1-5.58,3.79v8.19h-5.9Z" fill="#fff"/><path d="M80.46,145.68v2.67H74.55V123.5h5.91v10.16a6.09,6.09,0,0,1,5.38-3c4,0,7.3,3,7.3,8.95v.26c0,5.94-3.27,8.92-7.33,8.92A5.61,5.61,0,0,1,80.46,145.68Zm6.67-5.85v-.26c0-3-1.32-4.49-3.4-4.49s-3.43,1.55-3.43,4.46v.26c0,2.94,1.28,4.42,3.43,4.42S87.13,142.67,87.13,139.83Z" fill="#fff"/><path d="M94.35,139.93v-.26c0-5.55,4.13-9,9.48-9s9.4,3.4,9.4,8.88v.27c0,5.61-4.12,9-9.44,9S94.35,145.51,94.35,139.93Zm12.88-.1v-.26c0-2.9-1.16-4.52-3.4-4.52s-3.44,1.55-3.44,4.45v.27c0,3,1.16,4.59,3.44,4.59S107.23,142.71,107.23,139.83Z" fill="#fff"/><path d="M120.36,130h-6.11v-5.21h19V130h-6.1v18.39h-6.8Z" fill="#fff"/><path d="M132.07,143.56c0-4.06,3.43-5.64,9.18-5.64h1.65v-.4c0-1.65-.4-2.74-2.28-2.74a2.12,2.12,0,0,0-2.34,2.05h-5.55c.27-4.16,3.53-6.21,8.25-6.21s7.79,1.95,7.79,6.54v11.19H143v-2c-.82,1.26-2.34,2.42-5.12,2.42C134.81,148.75,132.07,147.23,132.07,143.56Zm10.83-1.25v-1.06h-1.55c-2.38,0-3.44.46-3.44,1.88,0,1,.66,1.62,2.05,1.62C141.64,144.75,142.9,143.79,142.9,142.31Z" fill="#fff"/><path d="M156,139.57l-5.38-8.48h6.8l2.67,4.55,2.61-4.55h6.07l-5.44,8,6,9.24h-6.8l-3.07-5.15-3.14,5.15h-6Z" fill="#fff"/><path d="M170.48,145.38a3.3,3.3,0,0,1,3.37-3.34,3.34,3.34,0,1,1,0,6.67A3.29,3.29,0,0,1,170.48,145.38Z" fill="#fff"/></g></g></svg>