<?xml version="1.0" encoding="utf-8"?>
<!-- Generator: Adobe Illustrator 23.1.0, SVG Export Plug-In . SVG Version: 6.00 Build 0)  -->
<svg version="1.1" id="Layer_1" xmlns="http://www.w3.org/2000/svg" xmlns:xlink="http://www.w3.org/1999/xlink" x="0px" y="0px"
	 viewBox="0 0 301 251" style="enable-background:new 0 0 301 251;" xml:space="preserve">
<style type="text/css">
	.st0{fill:none;}
	.st1{fill:#FFFFFF;}
</style>
<title>Asset 7</title>
<g>
	<g id="Rect">
		<rect class="st0" width="300" height="250"/>
	</g>
	<g id="Save_on_online_tax_prep._Switch_from_TurboTax.">
		<path class="st1" d="M21.3,35.9h6.4c0.2,1.7,0.9,3.1,3.7,3.1c1.9,0,3-1,3-2.3s-0.9-1.8-3.7-2.3c-6.7-0.8-8.9-2.8-8.9-7.5
			c0-4.3,3.5-7.4,9.1-7.4s8.9,2.4,9.3,7.4H34c-0.1-1.5-1.3-2.6-2.8-2.6c-0.1,0-0.1,0-0.2,0c-1.8,0-2.7,0.8-2.7,2s0.7,1.9,3.7,2.3
			c6,0.7,9,2.2,9,7.3c0,4.3-3.4,7.8-9.5,7.8C24.8,43.7,21.5,41,21.3,35.9z"/>
		<path class="st1" d="M42.1,38.6c0-4.1,3.4-5.6,9.2-5.6h1.7v-0.4c0-1.6-0.4-2.7-2.3-2.7c-1.2-0.1-2.2,0.7-2.3,1.9c0,0,0,0.1,0,0.1
			h-5.6c0.3-4.2,3.5-6.2,8.3-6.2s7.8,2,7.8,6.5v11.2h-5.7v-2c-0.8,1.3-2.3,2.4-5.1,2.4C44.8,43.7,42.1,42.2,42.1,38.6z M52.9,37.3
			v-1.1h-1.6c-2.4,0-3.4,0.5-3.4,1.9c0,1,0.7,1.6,2,1.6C51.7,39.8,52.9,38.8,52.9,37.3z"/>
		<path class="st1" d="M59.7,26.1H66l3.6,11.1l3.5-11.1h5.6l-6.3,17.3H66L59.7,26.1z"/>
		<path class="st1" d="M78.4,34.9v-0.3c0-5.5,4.1-9,9.3-9c4.7,0,8.8,2.7,8.8,8.9v1.5H84.4c0.2,2.3,1.5,3.6,3.6,3.6
			c1.9,0,2.8-0.9,3-2h5.5c-0.5,3.9-3.5,6.1-8.7,6.1C82.4,43.7,78.4,40.6,78.4,34.9z M90.8,32.8c-0.1-2.1-1.1-3.2-3-3.2
			s-3,1.1-3.3,3.2H90.8z"/>
		<path class="st1" d="M103.7,34.9v-0.3c0-5.5,4.1-9,9.5-9s9.4,3.4,9.4,8.9v0.3c0,5.6-4.1,9-9.4,9S103.7,40.5,103.7,34.9z
			 M116.5,34.8v-0.3c0-2.9-1.2-4.5-3.4-4.5s-3.4,1.5-3.4,4.5v0.3c0,3,1.2,4.6,3.4,4.6S116.5,37.7,116.5,34.8z"/>
		<path class="st1" d="M124.6,26.1h5.9v2.8c1.1-2.1,3.3-3.3,5.7-3.2c3.3,0,5.6,2.1,5.6,6.5v11.2h-5.9v-10c0-2-0.8-2.9-2.5-2.9
			s-2.9,1.1-2.9,3.3v9.7h-5.9L124.6,26.1z"/>
		<path class="st1" d="M149.8,34.9v-0.3c0-5.5,4.1-9,9.5-9s9.4,3.4,9.4,8.9v0.3c0,5.6-4.1,9-9.4,9S149.8,40.5,149.8,34.9z
			 M162.7,34.8v-0.3c0-2.9-1.1-4.5-3.4-4.5s-3.4,1.5-3.4,4.5v0.3c0,3,1.2,4.6,3.4,4.6S162.7,37.7,162.7,34.8L162.7,34.8z"/>
		<path class="st1" d="M170.8,26.1h5.9v2.8c1.1-2.1,3.3-3.3,5.7-3.2c3.3,0,5.6,2.1,5.6,6.5v11.2h-5.9v-10c0-2-0.8-2.9-2.5-2.9
			s-2.9,1.1-2.9,3.3v9.7h-5.9V26.1z"/>
		<path class="st1" d="M191,18.5h5.9v24.8H191V18.5z"/>
		<path class="st1" d="M199.9,21.4c0-1.7,1.4-3.1,3.1-3.1c0,0,0.1,0,0.1,0c1.7-0.1,3.1,1.2,3.2,2.9c0.1,1.7-1.2,3.1-2.9,3.2
			c-0.1,0-0.2,0-0.3,0c-1.7,0.1-3.1-1.2-3.2-2.9C199.9,21.5,199.9,21.5,199.9,21.4z M200.2,26.1h5.9v17.3h-5.9V26.1z"/>
		<path class="st1" d="M209.3,26.1h5.9v2.8c1.1-2.1,3.3-3.4,5.7-3.2c3.3,0,5.6,2.1,5.6,6.5v11.2h-5.9v-10c0-2-0.8-2.9-2.5-2.9
			s-2.9,1.1-2.9,3.3v9.7h-5.9V26.1z"/>
		<path class="st1" d="M228.5,34.9v-0.3c0-5.5,4.1-9,9.3-9c4.7,0,8.8,2.7,8.8,8.9v1.5h-12.1c0.2,2.3,1.5,3.6,3.6,3.6
			c1.9,0,2.8-0.9,3-2h5.5c-0.5,3.9-3.5,6.1-8.7,6.1C232.4,43.7,228.5,40.6,228.5,34.9z M240.8,32.8c-0.1-2.1-1.1-3.2-3-3.2
			s-3,1.1-3.3,3.2H240.8z"/>
		<path class="st1" d="M23,72.8v-7.7h-2v-4h2v-3.6h6v3.6h3.4v4H29v7.1c0,1.3,0.6,1.8,1.8,1.8c0.6,0,1.1-0.1,1.7-0.3v4.5
			c-1.1,0.3-2.2,0.5-3.3,0.5C25.2,78.7,23,76.9,23,72.8z"/>
		<path class="st1" d="M33.7,73.6c0-4.1,3.4-5.6,9.2-5.6h1.7v-0.4c0-1.7-0.4-2.7-2.3-2.7c-1.2-0.1-2.2,0.7-2.3,1.9c0,0,0,0.1,0,0.1
			h-5.5c0.3-4.2,3.5-6.2,8.3-6.2s7.8,2,7.8,6.5v11.2h-5.8v-2c-0.8,1.3-2.3,2.4-5.1,2.4C36.4,78.7,33.7,77.2,33.7,73.6z M44.5,72.3
			v-1.1h-1.5c-2.4,0-3.4,0.5-3.4,1.9c0,1,0.7,1.6,2,1.6C43.2,74.8,44.5,73.8,44.5,72.3z"/>
		<path class="st1" d="M57.6,69.6l-5.4-8.5H59l2.7,4.5l2.6-4.5h6.1l-5.4,8l6,9.2h-6.8L61,73.2l-3.1,5.2h-6L57.6,69.6z"/>
		<path class="st1" d="M78.6,61.1h5.9v2.6c1.1-1.9,3.2-3,5.4-3c4,0,7.3,3,7.3,9v0.3c0,5.9-3.3,8.9-7.3,8.9c-2.2,0.1-4.3-1-5.3-2.9
			v8.3h-5.9V61.1z M91.1,69.8v-0.3c0-3-1.3-4.5-3.4-4.5s-3.4,1.6-3.4,4.5v0.3c0,2.9,1.3,4.4,3.4,4.4S91.1,72.7,91.1,69.8z"/>
		<path class="st1" d="M99.3,61.1h5.9v3.4c0.8-2.4,3.1-3.9,5.6-3.7v5.5c-3.6-0.1-5.6,1-5.6,3.8v8.2h-5.9V61.1z"/>
		<path class="st1" d="M111.8,69.9v-0.3c0-5.6,4.1-9,9.3-9c4.7,0,8.8,2.7,8.8,8.9v1.6h-12.1c0.2,2.3,1.5,3.6,3.6,3.6
			c2,0,2.8-0.9,3-2h5.5c-0.5,3.9-3.5,6.1-8.8,6.1C115.8,78.7,111.8,75.6,111.8,69.9z M124.2,67.8c-0.1-2.1-1.1-3.2-3-3.2
			s-3,1.2-3.3,3.2H124.2z"/>
		<path class="st1" d="M132,61.1h5.9v2.6c1.1-1.9,3.2-3,5.4-3c4,0,7.3,3,7.3,9v0.3c0,5.9-3.3,8.9-7.3,8.9c-2.2,0.1-4.3-1-5.4-2.9
			v8.3H132V61.1z M144.6,69.8v-0.3c0-3-1.3-4.5-3.4-4.5s-3.4,1.6-3.4,4.5v0.3c0,2.9,1.3,4.4,3.4,4.4S144.6,72.7,144.6,69.8
			L144.6,69.8z"/>
		<path class="st1" d="M152,75.4c-0.1-1.8,1.4-3.3,3.2-3.4c0.1,0,0.1,0,0.2,0c1.8-0.1,3.4,1.3,3.5,3.2c0.1,1.8-1.3,3.4-3.2,3.5
			c-0.1,0-0.2,0-0.4,0c-1.8,0.1-3.3-1.4-3.4-3.2C152,75.5,152,75.4,152,75.4z"/>
		<path class="st1" d="M21.3,105.9h6.4c0.2,1.7,0.9,3.1,3.7,3.1c1.9,0,3-1,3-2.3s-0.9-1.8-3.7-2.3c-6.7-0.8-8.9-2.8-8.9-7.5
			c0-4.3,3.5-7.4,9.1-7.4s8.9,2.4,9.3,7.4H34c-0.1-1.5-1.3-2.6-2.8-2.6c-0.1,0-0.1,0-0.2,0c-1.8,0-2.7,0.8-2.7,2s0.7,1.9,3.7,2.3
			c6,0.7,9,2.2,9,7.3c0,4.3-3.4,7.8-9.5,7.8C24.8,113.7,21.5,111,21.3,105.9z"/>
		<path class="st1" d="M41.4,96.1h6.2l2.5,10.3L53,96.1h4.8l2.6,10.3l2.8-10.3h5.6l-5.5,17.3h-5.6l-2.6-9.6l-2.7,9.6h-5.7L41.4,96.1
			z"/>
		<path class="st1" d="M70.1,91.4c-0.1-1.8,1.2-3.4,3-3.5c1.8-0.1,3.4,1.2,3.5,3c0.1,1.8-1.2,3.4-3,3.5c-0.1,0-0.2,0-0.3,0
			C71.7,94.5,70.2,93.2,70.1,91.4C70.1,91.4,70.1,91.4,70.1,91.4z M70.4,96.1h5.9v17.3h-5.9V96.1z"/>
		<path class="st1" d="M80.3,107.8v-7.7h-2.1v-4h2.1v-3.6h5.9v3.6h3.4v4h-3.4v7.1c0,1.3,0.6,1.8,1.8,1.8c0.6,0,1.2-0.1,1.7-0.3v4.5
			c-1.1,0.3-2.2,0.5-3.3,0.5C82.5,113.7,80.3,111.9,80.3,107.8z"/>
		<path class="st1" d="M90.9,104.9v-0.3c0-5.7,4.1-9,9.2-9c4.2,0,8.1,1.8,8.4,7.1H103c-0.3-1.6-1-2.5-2.8-2.5
			c-2.1,0-3.3,1.5-3.3,4.4v0.3c0,3,1.2,4.6,3.4,4.6c1.6,0.1,2.9-1.2,3-2.7c0,0,0-0.1,0-0.1h5.3c-0.2,4.4-3.1,7.2-8.7,7.2
			C94.8,113.7,90.9,110.7,90.9,104.9z"/>
		<path class="st1" d="M110.6,88.5h5.9v10.4c1.1-2.1,3.3-3.4,5.7-3.2c3.3,0,5.7,2.1,5.7,6.5v11.2h-5.9v-10c0-1.9-0.8-2.9-2.5-2.9
			s-2.9,1.1-2.9,3.3v9.7h-5.9V88.5z"/>
		<path class="st1" d="M137.6,100.1h-2.2v-4h2.2v-1.5c0-4.3,2.7-6.3,6.8-6.3c0.9,0,1.8,0.1,2.7,0.4v4.3c-0.5-0.2-1.1-0.2-1.6-0.2
			c-0.9-0.2-1.8,0.5-2,1.4c0,0.1,0,0.3,0,0.5v1.5h3.6v4h-3.5v13.2h-5.9L137.6,100.1z"/>
		<path class="st1" d="M148.9,96.1h5.9v3.4c0.8-2.4,3.1-3.9,5.6-3.7v5.5c-3.6-0.1-5.6,1-5.6,3.8v8.2h-5.9V96.1z"/>
		<path class="st1" d="M161.5,104.9v-0.3c0-5.6,4.1-9,9.5-9s9.4,3.4,9.4,8.9v0.3c0,5.6-4.1,9-9.4,9S161.5,110.5,161.5,104.9z
			 M174.4,104.8v-0.3c0-2.9-1.2-4.5-3.4-4.5s-3.4,1.6-3.4,4.4v0.3c0,3,1.2,4.6,3.4,4.6S174.4,107.7,174.4,104.8z"/>
		<path class="st1" d="M182.4,96.1h5.9v2.6c1.1-2,3.2-3.2,5.4-3.1c2-0.1,3.9,1,4.7,2.9c1.3-1.8,3.4-2.9,5.7-2.9
			c3.3,0,5.6,2.1,5.6,6.4v11.3h-5.9V103c0-1.8-0.9-2.6-2.2-2.6c-1.6,0-2.6,1-2.6,2.9v10h-5.8V103c0-1.8-0.9-2.6-2.2-2.6
			c-1.6,0-2.6,1-2.6,2.9v10h-5.9V96.1z"/>
		<path class="st1" d="M27.3,130h-6.1v-5.2h19v5.2h-6.1v18.4h-6.8V130z"/>
		<path class="st1" d="M40.7,142.3v-11.3h5.9v10.3c0,2,0.8,2.9,2.4,2.9s2.9-1.1,2.9-3.3v-9.9h5.9v17.3H52v-2.7c-1,2-3.2,3.2-5.5,3.1
			C43.2,148.8,40.7,146.7,40.7,142.3z"/>
		<path class="st1" d="M60.9,131.1h5.9v3.4c0.8-2.4,3.1-3.9,5.6-3.7v5.5c-3.6-0.1-5.6,1-5.6,3.8v8.2h-5.9V131.1z"/>
		<path class="st1" d="M80.5,145.7v2.7h-5.9v-24.8h5.9v10.2c1.1-1.9,3.2-3,5.4-3c4,0,7.3,3,7.3,8.9v0.3c0,5.9-3.3,8.9-7.3,8.9
			C83.6,148.9,81.5,147.7,80.5,145.7z M87.1,139.8v-0.3c0-3-1.3-4.5-3.4-4.5s-3.4,1.6-3.4,4.5v0.3c0,2.9,1.3,4.4,3.4,4.4
			S87.1,142.7,87.1,139.8L87.1,139.8z"/>
		<path class="st1" d="M94.3,139.9v-0.3c0-5.6,4.1-9,9.5-9s9.4,3.4,9.4,8.9v0.3c0,5.6-4.1,9-9.4,9S94.3,145.5,94.3,139.9z
			 M107.2,139.8v-0.3c0-2.9-1.2-4.5-3.4-4.5s-3.4,1.6-3.4,4.4v0.3c0,3,1.2,4.6,3.4,4.6S107.2,142.7,107.2,139.8L107.2,139.8z"/>
		<path class="st1" d="M120.4,130h-6.1v-5.2h19v5.2h-6.1v18.4h-6.8L120.4,130z"/>
		<path class="st1" d="M132.1,143.6c0-4.1,3.4-5.6,9.2-5.6h1.6v-0.4c0-1.6-0.4-2.7-2.3-2.7c-1.2-0.1-2.2,0.7-2.3,1.9
			c0,0.1,0,0.1,0,0.2h-5.6c0.3-4.2,3.5-6.2,8.3-6.2s7.8,1.9,7.8,6.5v11.2H143v-2c-0.8,1.3-2.3,2.4-5.1,2.4
			C134.8,148.8,132.1,147.2,132.1,143.6z M142.9,142.3v-1.1h-1.6c-2.4,0-3.4,0.5-3.4,1.9c0,1,0.7,1.6,2.1,1.6
			C141.6,144.8,142.9,143.8,142.9,142.3L142.9,142.3z"/>
		<path class="st1" d="M156,139.6l-5.4-8.5h6.8l2.7,4.6l2.6-4.6h6.1l-5.4,8l6,9.2h-6.8l-3.1-5.1l-3.1,5.1h-6L156,139.6z"/>
		<path class="st1" d="M170.5,145.4c0-1.8,1.4-3.3,3.3-3.3c0,0,0.1,0,0.1,0c1.8-0.1,3.4,1.3,3.5,3.2s-1.3,3.4-3.2,3.5
			c-0.1,0-0.2,0-0.4,0c-1.8,0-3.3-1.4-3.4-3.2C170.5,145.5,170.5,145.4,170.5,145.4z"/>
	</g>
</g>
</svg>
