<svg xmlns="http://www.w3.org/2000/svg" viewBox="0 0 160 600"><title>H1</title><g id="Layer_2" data-name="Layer 2"><g id="Artboard_1" data-name="Artboard 1" style="isolation:isolate"><g id="headline1"><g id="Refund_help_is_here._Drop_off_Tax_Pro_Go_or_file_online." data-name="Refund help is here.  Drop off, Tax Pro Go or file online."><path d="M23,111.57h6.37c4.25,0,6.62,1.73,6.62,5.17v.09A4.24,4.24,0,0,1,33,121.1l3.9,6.74H32L28.72,122H27.63v5.83H23ZM29.13,119c1.57,0,2.34-.66,2.34-2v-.09c0-1.32-.81-1.84-2.32-1.84H27.63V119Z" fill="#fff"/><path d="M36.93,122v-.18a6.09,6.09,0,0,1,6.44-6.24c3.26,0,6.05,1.87,6.05,6.14v1.07H41.05a2.38,2.38,0,0,0,2.48,2.48c1.34,0,1.91-.61,2.07-1.41h3.82c-.36,2.69-2.43,4.21-6,4.21S36.93,125.93,36.93,122Zm8.54-1.5c-.07-1.44-.78-2.23-2.1-2.23a2.25,2.25,0,0,0-2.27,2.23Z" fill="#fff"/><path d="M51.45,118.72H50v-2.78h1.5v-1c0-3,1.84-4.36,4.66-4.36a7.17,7.17,0,0,1,1.87.25v3a3.8,3.8,0,0,0-1.12-.16,1.19,1.19,0,0,0-1.36,1.29v1h2.41v2.78H55.5v9.12h-4Z" fill="#fff"/><path d="M59.18,123.7v-7.76h4.08V123c0,1.34.52,2,1.68,2s2-.73,2-2.25v-6.85H71v11.9H67V126a3.9,3.9,0,0,1-3.77,2.11C60.89,128.11,59.18,126.7,59.18,123.7Z" fill="#fff"/><path d="M73.11,115.94h4.07v1.91a4.2,4.2,0,0,1,3.91-2.23c2.3,0,3.89,1.44,3.89,4.48v7.74H80.91v-6.92c0-1.34-.52-2-1.71-2s-2,.73-2,2.25v6.67H73.11Z" fill="#fff"/><path d="M86.37,122v-.18c0-4,2.23-6.21,5-6.21a3.85,3.85,0,0,1,3.66,2v-6.91h4.08v17.13H95.08v-1.93a4,4,0,0,1-3.71,2.2C88.62,128.11,86.37,126.13,86.37,122ZM95.2,122v-.19c0-2-.85-3.07-2.35-3.07s-2.34,1-2.34,3.1V122c0,2,.89,3,2.3,3S95.2,124,95.2,122Z" fill="#fff"/><path d="M22.62,137.46H26.7v7.14a4.18,4.18,0,0,1,3.91-2.23c2.3,0,3.89,1.44,3.89,4.48v7.74H30.43v-6.92c0-1.34-.53-2-1.71-2s-2,.73-2,2.25v6.67H22.62Z" fill="#fff"/><path d="M35.84,148.79v-.18a6.09,6.09,0,0,1,6.44-6.24c3.25,0,6,1.87,6,6.14v1.07H40a2.37,2.37,0,0,0,2.48,2.48c1.34,0,1.91-.61,2.07-1.41h3.82c-.36,2.69-2.43,4.21-6,4.21S35.84,152.68,35.84,148.79Zm8.53-1.5c-.06-1.44-.77-2.23-2.09-2.23A2.25,2.25,0,0,0,40,147.29Z" fill="#fff"/><path d="M49.86,137.46h4v17.13h-4Z" fill="#fff"/><path d="M56.09,142.69h4.07v1.77a4.21,4.21,0,0,1,3.71-2.09c2.78,0,5,2.09,5,6.17v.18c0,4.09-2.25,6.14-5.05,6.14a3.93,3.93,0,0,1-3.69-2v5.73H56.09Zm8.67,6v-.18c0-2.1-.91-3.1-2.35-3.1s-2.36,1.07-2.36,3.07v.19c0,2,.89,3.05,2.36,3.05S64.76,150.68,64.76,148.72Z" fill="#fff"/><path d="M74.43,139.46a2.12,2.12,0,0,1,2.23-2.12,2.15,2.15,0,0,1,2.25,2.12,2.12,2.12,0,0,1-2.25,2.09A2.1,2.1,0,0,1,74.43,139.46Zm.2,3.23H78.7v11.9H74.63Z" fill="#fff"/><path d="M80.09,150.81h3.75c.14.87.53,1.34,1.69,1.34,1,0,1.45-.38,1.45-1s-.56-.85-2.2-1.07c-3.19-.41-4.53-1.35-4.53-3.82,0-2.64,2.34-3.92,5.1-3.92,2.93,0,5,1,5.25,3.85H86.92A1.34,1.34,0,0,0,85.39,145c-.89,0-1.34.39-1.34.94s.54.79,2,1c3.3.41,4.89,1.28,4.89,3.83,0,2.82-2.09,4.09-5.39,4.09S80.18,153.45,80.09,150.81Z" fill="#fff"/><path d="M22.62,164.21H26.7v7.14a4.18,4.18,0,0,1,3.91-2.23c2.3,0,3.89,1.44,3.89,4.48v7.74H30.43v-6.92c0-1.34-.53-2-1.71-2s-2,.73-2,2.25v6.67H22.62Z" fill="#fff"/><path d="M35.84,175.54v-.18a6.09,6.09,0,0,1,6.44-6.24c3.25,0,6,1.87,6,6.14v1.07H40a2.37,2.37,0,0,0,2.48,2.48c1.34,0,1.91-.61,2.07-1.41h3.82c-.36,2.69-2.43,4.21-6,4.21S35.84,179.43,35.84,175.54Zm8.53-1.5c-.06-1.44-.77-2.23-2.09-2.23A2.25,2.25,0,0,0,40,174Z" fill="#fff"/><path d="M49.74,169.44h4.07v2.37a3.77,3.77,0,0,1,3.85-2.53v3.8c-2.48-.07-3.85.71-3.85,2.62v5.64H49.74Z" fill="#fff"/><path d="M58.39,175.54v-.18a6.09,6.09,0,0,1,6.44-6.24c3.25,0,6,1.87,6,6.14v1.07H62.51A2.37,2.37,0,0,0,65,178.81c1.34,0,1.91-.61,2.07-1.41h3.82c-.37,2.69-2.44,4.21-6,4.21S58.39,179.43,58.39,175.54Zm8.53-1.5c-.07-1.44-.77-2.23-2.09-2.23A2.27,2.27,0,0,0,62.55,174Z" fill="#fff"/><path d="M72,179.29a2.28,2.28,0,0,1,2.33-2.3,2.3,2.3,0,1,1,0,4.6A2.27,2.27,0,0,1,72,179.29Z" fill="#fff"/><path d="M23,191.82H28.9c5.78,0,8.72,2.89,8.72,7.94v.18c0,5.08-3,8.15-8.74,8.15H23Zm5.75,12.67c2.78,0,4-1.45,4-4.48v-.18c0-3.09-1.23-4.41-4.05-4.41h-1v9.07Z" fill="#fff"/><path d="M39.19,196.19h4.07v2.37A3.75,3.75,0,0,1,47.1,196v3.8c-2.48-.07-3.84.71-3.84,2.62v5.64H39.19Z" fill="#fff"/><path d="M47.83,202.29v-.18c0-3.83,2.85-6.24,6.53-6.24s6.49,2.35,6.49,6.12v.18c0,3.87-2.85,6.19-6.51,6.19S47.83,206.13,47.83,202.29Zm8.87-.07V202c0-2-.79-3.12-2.34-3.12S52,200,52,202v.18c0,2.05.79,3.17,2.36,3.17S56.7,204.2,56.7,202.22Z" fill="#fff"/><path d="M62.28,196.19h4.07V198a4.21,4.21,0,0,1,3.71-2.09c2.77,0,5,2.09,5,6.17v.18c0,4.09-2.26,6.14-5,6.14a3.93,3.93,0,0,1-3.69-2v5.73H62.28Zm8.67,6V202c0-2.1-.91-3.1-2.35-3.1S66.24,200,66.24,202v.19c0,2,.88,3.05,2.36,3.05S71,204.18,71,202.22Z" fill="#fff"/><path d="M80.07,202.29v-.18c0-3.83,2.84-6.24,6.53-6.24s6.48,2.35,6.48,6.12v.18c0,3.87-2.84,6.19-6.51,6.19S80.07,206.13,80.07,202.29Zm8.87-.07V202c0-2-.8-3.12-2.34-3.12S84.23,200,84.23,202v.18c0,2.05.8,3.17,2.37,3.17S88.94,204.2,88.94,202.22Z" fill="#fff"/><path d="M95.13,199h-1.5v-2.78h1.5v-.91c0-3,1.82-4.34,4.64-4.34a7.13,7.13,0,0,1,1.82.22v3a3.64,3.64,0,0,0-1.09-.16,1.19,1.19,0,0,0-1.32,1.3v.91h3.46v-1.05c0-2.95,1.86-4.36,4.66-4.36a7.17,7.17,0,0,1,1.87.25v3a3.8,3.8,0,0,0-1.12-.16,1.18,1.18,0,0,0-1.34,1.29v1.05h2.41V199h-2.41v9.12h-4.07V199H99.18v9.12H95.13Z" fill="#fff"/><path d="M108.25,209.93l1.92-6,3.77,1.34-3.27,5.57Z" fill="#fff"/><path d="M26.11,222.17H21.9v-3.6H35v3.6H30.79v12.67H26.11Z" fill="#fff"/><path d="M34.18,231.54c0-2.8,2.37-3.89,6.33-3.89h1.13v-.27c0-1.14-.27-1.89-1.57-1.89a1.46,1.46,0,0,0-1.61,1.41H34.64c.18-2.87,2.43-4.28,5.68-4.28s5.37,1.34,5.37,4.51v7.71H41.74v-1.39a3.91,3.91,0,0,1-3.53,1.66C36.07,235.11,34.18,234.07,34.18,231.54Zm7.46-.86V230H40.57c-1.63,0-2.36.32-2.36,1.29,0,.69.45,1.12,1.41,1.12A1.79,1.79,0,0,0,41.64,230.68Z" fill="#fff"/><path d="M50.68,228.79,47,222.94h4.68l1.85,3.14,1.79-3.14h4.19l-3.75,5.53,4.11,6.37H55.16L53,231.29l-2.16,3.55H46.72Z" fill="#fff"/><path d="M65.49,218.57h6.18c4.46,0,6.53,2,6.53,5.44v.09c0,3.41-2.29,5.26-6.32,5.26H70.13v5.48H65.49Zm6,7.6c1.5,0,2.3-.7,2.3-2V224c0-1.39-.82-1.95-2.28-1.95H70.13v4.09Z" fill="#fff"/><path d="M79.61,222.94h4.08v2.37a3.75,3.75,0,0,1,3.84-2.53v3.8c-2.48-.07-3.84.71-3.84,2.62v5.64H79.61Z" fill="#fff"/><path d="M88.26,229v-.18c0-3.83,2.84-6.24,6.53-6.24s6.48,2.35,6.48,6.12v.18c0,3.87-2.84,6.19-6.51,6.19S88.26,232.88,88.26,229Zm8.87-.07v-.18c0-2-.8-3.12-2.34-3.12s-2.37,1.07-2.37,3.07v.18c0,2.05.8,3.17,2.37,3.17S97.13,231,97.13,229Z" fill="#fff"/><path d="M106.34,226.81v-.18c0-5,3.64-8.31,8.54-8.31,3.84,0,7.25,1.75,7.57,6h-4.62c-.22-1.53-1.2-2.33-2.93-2.33-2.3,0-3.69,1.78-3.69,4.71v.19c0,2.64,1,4.68,3.8,4.68,2.28,0,3.14-1.16,3.23-2.45h-3v-3.26h7.65v2c0,4.15-2.71,7.26-8,7.26C109.35,235.11,106.34,231.68,106.34,226.81Z" fill="#fff"/><path d="M123.77,229v-.18c0-3.83,2.84-6.24,6.53-6.24s6.48,2.35,6.48,6.12v.18c0,3.87-2.84,6.19-6.5,6.19S123.77,232.88,123.77,229Zm8.87-.07v-.18c0-2-.79-3.12-2.34-3.12s-2.37,1.07-2.37,3.07v.18c0,2.05.8,3.17,2.37,3.17S132.64,231,132.64,229Z" fill="#fff"/><path d="M22,255.79v-.18c0-3.83,2.84-6.24,6.53-6.24S35,251.72,35,255.49v.18c0,3.87-2.84,6.19-6.51,6.19S22,259.63,22,255.79Zm8.87-.07v-.18c0-2-.8-3.12-2.34-3.12s-2.37,1.07-2.37,3.07v.18c0,2.05.8,3.17,2.37,3.17S30.86,257.7,30.86,255.72Z" fill="#fff"/><path d="M36.43,249.69h4.08v2.37a3.75,3.75,0,0,1,3.84-2.53v3.8c-2.48-.07-3.84.71-3.84,2.62v5.64H36.43Z" fill="#fff"/><path d="M50.58,252.47h-1.5v-2.78h1.5v-1.05c0-2.95,1.85-4.36,4.67-4.36a7,7,0,0,1,1.86.25v3a3.73,3.73,0,0,0-1.11-.16,1.19,1.19,0,0,0-1.37,1.29v1.05h2.42v2.78H54.63v9.12H50.58Z" fill="#fff"/><path d="M58.32,246.46a2.12,2.12,0,0,1,2.23-2.12,2.15,2.15,0,0,1,2.25,2.12,2.12,2.12,0,0,1-2.25,2.09A2.1,2.1,0,0,1,58.32,246.46Zm.2,3.23H62.6v11.9H58.52Z" fill="#fff"/><path d="M64.89,244.46h4v17.13h-4Z" fill="#fff"/><path d="M70.49,255.79v-.18a6.09,6.09,0,0,1,6.44-6.24c3.25,0,6,1.87,6,6.14v1.07H74.61a2.37,2.37,0,0,0,2.48,2.48c1.34,0,1.91-.61,2.07-1.41H83c-.36,2.69-2.43,4.21-6,4.21S70.49,259.68,70.49,255.79Zm8.53-1.5c-.07-1.44-.77-2.23-2.09-2.23a2.27,2.27,0,0,0-2.28,2.23Z" fill="#fff"/><path d="M22,282.54v-.18c0-3.83,2.84-6.24,6.53-6.24S35,278.47,35,282.24v.18c0,3.87-2.84,6.19-6.51,6.19S22,286.38,22,282.54Zm8.87-.07v-.18c0-2-.8-3.12-2.34-3.12s-2.37,1.07-2.37,3.07v.18c0,2.05.8,3.17,2.37,3.17S30.86,284.45,30.86,282.47Z" fill="#fff"/><path d="M36.43,276.44h4.08v1.91a4.18,4.18,0,0,1,3.91-2.23c2.3,0,3.89,1.44,3.89,4.48v7.74H44.24v-6.92c0-1.34-.53-2-1.71-2s-2,.73-2,2.25v6.67H36.43Z" fill="#fff"/><path d="M50.4,271.21h4.05v17.13H50.4Z" fill="#fff"/><path d="M56.54,273.21a2.25,2.25,0,1,1,2.23,2.09A2.11,2.11,0,0,1,56.54,273.21Zm.21,3.23h4.07v11.9H56.75Z" fill="#fff"/><path d="M63,276.44h4.07v1.91A4.18,4.18,0,0,1,71,276.12c2.3,0,3.89,1.44,3.89,4.48v7.74H70.81v-6.92c0-1.34-.52-2-1.71-2s-2,.73-2,2.25v6.67H63Z" fill="#fff"/><path d="M76.22,282.54v-.18a6.09,6.09,0,0,1,6.44-6.24c3.26,0,6,1.87,6,6.14v1.07H80.34a2.38,2.38,0,0,0,2.48,2.48c1.34,0,1.91-.61,2.07-1.41h3.82c-.36,2.69-2.43,4.21-6,4.21S76.22,286.43,76.22,282.54Zm8.53-1.5c-.06-1.44-.77-2.23-2.09-2.23A2.25,2.25,0,0,0,80.39,281Z" fill="#fff"/><path d="M89.85,286.29a2.27,2.27,0,0,1,2.32-2.3,2.3,2.3,0,1,1,0,4.6A2.27,2.27,0,0,1,89.85,286.29Z" fill="#fff"/><rect width="160" height="600" fill="none"/></g></g></g></g></svg>