<svg xmlns="http://www.w3.org/2000/svg" viewBox="0 0 728 90"><title>H27</title><g id="Layer_2" data-name="Layer 2"><g id="Rect"><rect width="728" height="90" fill="none"/></g><g id="H27"><g id="_Our_top_choice_for_online_tax_prep._" data-name="&quot;Our top choice for online tax prep.&quot;"><path d="M121.06,27h4.34l-.54,7.11h-3.28Zm5.48,0h4.37l-.54,7.11h-3.29Z" fill="#fff"/><path d="M132,36.34v-.21c0-5.63,4.24-9.41,9.77-9.41s9.8,3.55,9.8,9.28v.21c0,5.69-3.91,9.57-9.88,9.57S132,41.9,132,36.34Zm14-.05v-.21c0-3.28-1.66-5.22-4.27-5.22s-4.24,1.89-4.24,5.25v.2c0,3.36,1.71,5.3,4.27,5.3S146.06,39.6,146.06,36.29Z" fill="#fff"/><path d="M153.27,40.76V32h4.63V40c0,1.53.59,2.28,1.91,2.28s2.3-.83,2.3-2.56V32h4.63V45.46h-4.63V43.37a4.44,4.44,0,0,1-4.29,2.41C155.21,45.78,153.27,44.17,153.27,40.76Z" fill="#fff"/><path d="M169.09,32h4.63v2.68a4.25,4.25,0,0,1,4.36-2.86v4.31c-2.81-.08-4.36.8-4.36,3v6.41h-4.63Z" fill="#fff"/><path d="M185.09,41.12v-6h-1.63V32h1.63V29.13h4.63V32h2.66V35.1h-2.66v5.58c0,1,.49,1.42,1.37,1.42a3.4,3.4,0,0,0,1.31-.23v3.52a9.84,9.84,0,0,1-2.55.39C186.79,45.78,185.09,44.3,185.09,41.12Z" fill="#fff"/><path d="M193.41,38.87v-.2c0-4.35,3.23-7.09,7.42-7.09s7.37,2.67,7.37,7v.2c0,4.4-3.23,7-7.39,7S193.41,43.24,193.41,38.87Zm10.08-.07v-.21c0-2.28-.9-3.54-2.66-3.54s-2.69,1.21-2.69,3.49v.2c0,2.33.91,3.6,2.69,3.6S203.49,41,203.49,38.8Z" fill="#fff"/><path d="M209.83,32h4.62v2a4.8,4.8,0,0,1,4.22-2.38c3.15,0,5.71,2.38,5.71,7v.21c0,4.65-2.56,7-5.74,7a4.47,4.47,0,0,1-4.19-2.31V50h-4.62Zm9.85,6.85v-.21c0-2.38-1-3.52-2.67-3.52s-2.69,1.22-2.69,3.49v.21c0,2.3,1,3.46,2.69,3.46S219.68,41,219.68,38.8Z" fill="#fff"/><path d="M230,38.87v-.2c0-4.5,3.23-7.09,7.21-7.09,3.31,0,6.36,1.45,6.62,5.56h-4.34a2,2,0,0,0-2.17-2c-1.63,0-2.59,1.16-2.59,3.43v.21c0,2.35.91,3.57,2.66,3.57a2.26,2.26,0,0,0,2.36-2.25H244c-.13,3.41-2.43,5.64-6.8,5.64C233.12,45.78,230,43.42,230,38.87Z" fill="#fff"/><path d="M245.45,26h4.62v8.12a4.78,4.78,0,0,1,4.45-2.54c2.61,0,4.42,1.63,4.42,5.1v8.78h-4.63V37.61c0-1.53-.59-2.28-1.93-2.28s-2.31.83-2.31,2.56v7.57h-4.62Z" fill="#fff"/><path d="M260.47,38.87v-.2c0-4.35,3.23-7.09,7.42-7.09s7.36,2.67,7.36,7v.2c0,4.4-3.23,7-7.39,7S260.47,43.24,260.47,38.87Zm10.08-.07v-.21c0-2.28-.91-3.54-2.66-3.54s-2.69,1.21-2.69,3.49v.2c0,2.33.9,3.6,2.69,3.6S270.55,41,270.55,38.8Z" fill="#fff"/><path d="M276.78,28.28a2.42,2.42,0,0,1,2.53-2.41,2.44,2.44,0,0,1,2.56,2.41,2.41,2.41,0,0,1-2.56,2.37A2.38,2.38,0,0,1,276.78,28.28ZM277,32h4.63V45.46H277Z" fill="#fff"/><path d="M283.4,38.87v-.2c0-4.5,3.23-7.09,7.21-7.09,3.31,0,6.36,1.45,6.61,5.56h-4.34a2,2,0,0,0-2.17-2c-1.63,0-2.58,1.16-2.58,3.43v.21c0,2.35.9,3.57,2.66,3.57a2.26,2.26,0,0,0,2.35-2.25h4.16c-.13,3.41-2.43,5.64-6.8,5.64C286.47,45.78,283.4,43.42,283.4,38.87Z" fill="#fff"/><path d="M298.08,38.87v-.2c0-4.35,3.23-7.09,7.31-7.09,3.7,0,6.88,2.12,6.88,7v1.22h-9.51a2.7,2.7,0,0,0,2.81,2.82c1.53,0,2.18-.7,2.36-1.61h4.34c-.42,3-2.77,4.79-6.85,4.79C301.18,45.78,298.08,43.29,298.08,38.87Zm9.69-1.7c-.08-1.63-.88-2.54-2.38-2.54a2.58,2.58,0,0,0-2.58,2.54Z" fill="#fff"/><path d="M319.27,35.1h-1.7V32h1.7V30.76c0-3.36,2.1-5,5.3-5a8,8,0,0,1,2.12.29v3.38a4.32,4.32,0,0,0-1.26-.18,1.36,1.36,0,0,0-1.55,1.48V32h2.74V35.1h-2.74V45.46h-4.61Z" fill="#fff"/><path d="M327,38.87v-.2c0-4.35,3.23-7.09,7.42-7.09s7.36,2.67,7.36,7v.2c0,4.4-3.23,7-7.39,7S327,43.24,327,38.87Zm10.08-.07v-.21c0-2.28-.91-3.54-2.66-3.54s-2.69,1.21-2.69,3.49v.2c0,2.33.9,3.6,2.69,3.6S337.06,41,337.06,38.8Z" fill="#fff"/><path d="M343.39,32H348v2.68a4.25,4.25,0,0,1,4.37-2.86v4.31c-2.82-.08-4.37.8-4.37,3v6.41h-4.63Z" fill="#fff"/><path d="M358.05,38.87v-.2c0-4.35,3.23-7.09,7.42-7.09s7.36,2.67,7.36,7v.2c0,4.4-3.23,7-7.39,7S358.05,43.24,358.05,38.87Zm10.08-.07v-.21c0-2.28-.91-3.54-2.66-3.54s-2.69,1.21-2.69,3.49v.2c0,2.33.9,3.6,2.69,3.6S368.13,41,368.13,38.8Z" fill="#fff"/><path d="M374.46,32h4.63v2.17a4.77,4.77,0,0,1,4.45-2.54c2.61,0,4.42,1.63,4.42,5.1v8.78h-4.63V37.61c0-1.53-.6-2.28-1.94-2.28s-2.3.83-2.3,2.56v7.57h-4.63Z" fill="#fff"/><path d="M390.33,26h4.61V45.46h-4.61Z" fill="#fff"/><path d="M397.31,28.28a2.56,2.56,0,1,1,2.54,2.37A2.39,2.39,0,0,1,397.31,28.28Zm.24,3.67h4.62V45.46h-4.62Z" fill="#fff"/><path d="M404.66,32h4.62v2.17a4.78,4.78,0,0,1,4.45-2.54c2.61,0,4.42,1.63,4.42,5.1v8.78h-4.63V37.61c0-1.53-.59-2.28-1.94-2.28s-2.3.83-2.3,2.56v7.57h-4.62Z" fill="#fff"/><path d="M419.67,38.87v-.2c0-4.35,3.24-7.09,7.32-7.09,3.7,0,6.88,2.12,6.88,7v1.22h-9.52a2.71,2.71,0,0,0,2.82,2.82c1.53,0,2.17-.7,2.35-1.61h4.35c-.42,3-2.77,4.79-6.85,4.79C422.78,45.78,419.67,43.29,419.67,38.87Zm9.7-1.7c-.08-1.63-.88-2.54-2.38-2.54a2.58,2.58,0,0,0-2.59,2.54Z" fill="#fff"/><path d="M440.79,41.12v-6h-1.62V32h1.62V29.13h4.63V32h2.66V35.1h-2.66v5.58c0,1,.49,1.42,1.37,1.42a3.42,3.42,0,0,0,1.32-.23v3.52a10,10,0,0,1-2.56.39C442.5,45.78,440.79,44.3,440.79,41.12Z" fill="#fff"/><path d="M449.12,41.72c0-3.18,2.68-4.42,7.18-4.42h1.29V37c0-1.3-.3-2.15-1.78-2.15a1.65,1.65,0,0,0-1.83,1.6h-4.35c.21-3.25,2.77-4.86,6.47-4.86s6.1,1.53,6.1,5.12v8.76h-4.5V43.89a4.46,4.46,0,0,1-4,1.89C451.26,45.78,449.12,44.59,449.12,41.72Zm8.47-1v-.82h-1.21c-1.86,0-2.69.36-2.69,1.47,0,.78.52,1.27,1.6,1.27A2,2,0,0,0,457.59,40.73Z" fill="#fff"/><path d="M467.86,38.59,463.64,32H469l2.09,3.56,2-3.56h4.76l-4.26,6.28,4.67,7.23H473l-2.4-4-2.46,4h-4.73Z" fill="#fff"/><path d="M484.27,32h4.63v2a4.77,4.77,0,0,1,4.21-2.38c3.16,0,5.71,2.38,5.71,7v.21c0,4.65-2.55,7-5.73,7a4.45,4.45,0,0,1-4.19-2.31V50h-4.63Zm9.85,6.85v-.21c0-2.38-1-3.52-2.66-3.52s-2.69,1.22-2.69,3.49v.21c0,2.3,1,3.46,2.69,3.46S494.12,41,494.12,38.8Z" fill="#fff"/><path d="M500.51,32h4.62v2.68a4.27,4.27,0,0,1,4.37-2.86v4.31c-2.82-.08-4.37.8-4.37,3v6.41h-4.62Z" fill="#fff"/><path d="M510.33,38.87v-.2c0-4.35,3.23-7.09,7.31-7.09,3.7,0,6.88,2.12,6.88,7v1.22H515a2.7,2.7,0,0,0,2.81,2.82c1.53,0,2.18-.7,2.36-1.61h4.34c-.41,3-2.77,4.79-6.85,4.79C513.43,45.78,510.33,43.29,510.33,38.87Zm9.69-1.7c-.08-1.63-.88-2.54-2.38-2.54a2.58,2.58,0,0,0-2.58,2.54Z" fill="#fff"/><path d="M526.12,32h4.63v2A4.78,4.78,0,0,1,535,31.58c3.16,0,5.72,2.38,5.72,7v.21c0,4.65-2.56,7-5.74,7a4.46,4.46,0,0,1-4.19-2.31V50h-4.63ZM536,38.8v-.21c0-2.38-1-3.52-2.66-3.52s-2.69,1.22-2.69,3.49v.21c0,2.3,1,3.46,2.69,3.46S536,41,536,38.8Z" fill="#fff"/><path d="M541.84,43.14a2.58,2.58,0,0,1,2.64-2.61,2.61,2.61,0,1,1,0,5.22A2.58,2.58,0,0,1,541.84,43.14Z" fill="#fff"/><path d="M546.62,27H551l-.54,7.11h-3.28Zm5.48,0h4.37l-.54,7.11h-3.29Z" fill="#fff"/></g><g id="_PCMag_on_H_R_Block_Online" data-name="– PCMag on H&amp;R Block Online"><path d="M364.1,72.17h6.18v1.18H364.1Z" fill="#fff"/><path d="M375,66.69h3.22c2.24,0,3.72,1,3.72,3.1v.06c0,2.11-1.53,3.05-3.67,3.05h-1.41v3.81H375Zm3.22,4.87c1.24,0,1.89-.61,1.89-1.71v-.06c0-1.19-.7-1.65-1.89-1.65h-1.36v3.42Z" fill="#fff"/><path d="M382.83,71.77v-.12a4.82,4.82,0,0,1,4.87-5.11c2.29,0,4.07,1.15,4.3,3.5h-1.9a2.14,2.14,0,0,0-2.39-2c-1.77,0-2.91,1.37-2.91,3.61v.11c0,2.26,1.07,3.59,2.92,3.59a2.34,2.34,0,0,0,2.57-2.12h1.82c-.3,2.41-2,3.63-4.39,3.63C384.59,76.85,382.83,74.85,382.83,71.77Z" fill="#fff"/><path d="M393.5,66.69H396l2.63,6.84,2.58-6.84h2.46v10h-1.86V69.15l-3,7.56h-.61l-3-7.56v7.56H393.5Z" fill="#fff"/><path d="M405,74.68c0-1.71,1.65-2.33,3.75-2.33h.91V72c0-1-.33-1.48-1.33-1.48a1.22,1.22,0,0,0-1.4,1.15h-1.64c.14-1.71,1.5-2.42,3.14-2.42s2.93.67,2.93,2.68v4.8h-1.67v-.9a2.56,2.56,0,0,1-2.24,1C406.15,76.85,405,76.21,405,74.68Zm4.66-.53v-.73h-.87c-1.28,0-2.11.29-2.11,1.19,0,.62.34,1,1.18,1C408.93,75.63,409.7,75.08,409.7,74.15Z" fill="#fff"/><path d="M412.72,77h1.71c.14.73.7,1.15,1.81,1.15a1.8,1.8,0,0,0,2.05-2V75.06a2.87,2.87,0,0,1-2.4,1.36,3.25,3.25,0,0,1-3.25-3.49v-.1a3.37,3.37,0,0,1,3.29-3.6,2.54,2.54,0,0,1,2.36,1.27V69.38H420v6.78c0,2.16-1.46,3.24-3.73,3.24S412.92,78.36,412.72,77Zm5.62-4.09v-.1a1.94,1.94,0,0,0-2-2.21,2,2,0,0,0-2,2.24v.11a2,2,0,0,0,1.93,2.2A2,2,0,0,0,418.34,72.87Z" fill="#fff"/><path d="M424.41,73.12V73a3.77,3.77,0,0,1,7.53,0v.11a3.77,3.77,0,0,1-7.53,0Zm5.79,0V73c0-1.51-.76-2.44-2-2.44s-2,.91-2,2.42v.12c0,1.49.74,2.43,2,2.43S430.2,74.59,430.2,73.1Z" fill="#fff"/><path d="M433.25,69.38h1.69v1.17a2.52,2.52,0,0,1,2.37-1.32c1.47,0,2.51.85,2.51,2.87v4.61h-1.7V72.26c0-1.11-.45-1.62-1.45-1.62a1.63,1.63,0,0,0-1.73,1.76v4.31h-1.69Z" fill="#fff"/><path d="M444.81,66.69h1.87V71h4.49V66.69h1.88v10h-1.88V72.45h-4.49v4.26h-1.87Z" fill="#fff"/><path d="M461.92,74.67l1.68,2h-2.14l-.84-1a3.63,3.63,0,0,1-2.74,1.15c-1.95,0-3.3-1.11-3.3-2.86,0-1.47.91-2.33,2.26-3a3.36,3.36,0,0,1-.79-2,2.5,2.5,0,0,1,2.76-2.42,2.29,2.29,0,0,1,2.53,2.17c0,1.16-.79,2-2.09,2.55L461,73.49l1-2h1.52Zm-2.17-.06L457.62,72a1.89,1.89,0,0,0-1.27,1.78,1.55,1.55,0,0,0,1.72,1.64A2.13,2.13,0,0,0,459.75,74.61Zm-1.29-4.09c.94-.44,1.33-.88,1.33-1.67a.94.94,0,0,0-1-1,1.07,1.07,0,0,0-1.1,1.19A2.51,2.51,0,0,0,458.46,70.52Z" fill="#fff"/><path d="M464.93,66.69h3.36c2.2,0,3.74.9,3.74,3v0a2.64,2.64,0,0,1-2.23,2.69l2.82,4.33h-2l-2.62-4h-1.19v4h-1.86Zm3.36,4.64c1.25,0,1.91-.53,1.91-1.6v0c0-1.15-.72-1.54-1.91-1.54h-1.5v3.19Z" fill="#fff"/><path d="M477,66.69h3.59c2.06,0,3.28.79,3.28,2.61v.06a2.06,2.06,0,0,1-1.59,2.13,2.19,2.19,0,0,1,2,2.36v.06c0,1.86-1.24,2.8-3.44,2.8H477Zm3.36,4.22c1.24,0,1.71-.45,1.71-1.47v-.06c0-.95-.54-1.35-1.73-1.35h-1.52v2.88Zm.27,4.47c1.25,0,1.82-.56,1.82-1.6v0c0-1-.57-1.56-1.95-1.56h-1.68v3.21Z" fill="#fff"/><path d="M485.73,66h1.7V76.71h-1.7Z" fill="#fff"/><path d="M488.79,73.12V73a3.76,3.76,0,0,1,7.52,0v.11a3.76,3.76,0,0,1-7.52,0Zm5.78,0V73c0-1.51-.76-2.44-2-2.44s-2,.91-2,2.42v.12c0,1.49.74,2.43,2,2.43S494.57,74.59,494.57,73.1Z" fill="#fff"/><path d="M497.13,73.14V73a3.61,3.61,0,0,1,3.7-3.8c1.62,0,3.15.73,3.34,2.75h-1.63a1.52,1.52,0,0,0-1.68-1.39c-1.17,0-2,.9-2,2.41v.11c0,1.6.78,2.44,2,2.44A1.67,1.67,0,0,0,502.66,74h1.56a3.11,3.11,0,0,1-3.39,2.87A3.5,3.5,0,0,1,497.13,73.14Z" fill="#fff"/><path d="M505.46,66h1.69v6.62l2.62-3.23h1.85l-2.84,3.37,3.08,4h-2l-2.75-3.6v3.6h-1.69Z" fill="#fff"/><path d="M515.57,71.77v-.12a4.92,4.92,0,0,1,5.07-5.1,4.85,4.85,0,0,1,5,5.06v.11a5.06,5.06,0,1,1-10.11,0Zm8.18,0v-.12c0-2.05-1.15-3.58-3.11-3.58s-3.13,1.44-3.13,3.6v.11c0,2.19,1.33,3.6,3.16,3.6S523.75,73.91,523.75,71.74Z" fill="#fff"/><path d="M527.12,69.38h1.69v1.17a2.51,2.51,0,0,1,2.37-1.32c1.47,0,2.51.85,2.51,2.87v4.61H532V72.26c0-1.11-.45-1.62-1.45-1.62a1.63,1.63,0,0,0-1.73,1.76v4.31h-1.69Z" fill="#fff"/><path d="M535.46,66h1.7V76.71h-1.7Z" fill="#fff"/><path d="M538.86,67.21a1,1,0,1,1,1,1A1,1,0,0,1,538.86,67.21Zm.18,2.17h1.7v7.33H539Z" fill="#fff"/><path d="M542.59,69.38h1.69v1.17a2.51,2.51,0,0,1,2.37-1.32c1.47,0,2.51.85,2.51,2.87v4.61h-1.7V72.26c0-1.11-.45-1.62-1.46-1.62a1.63,1.63,0,0,0-1.72,1.76v4.31h-1.69Z" fill="#fff"/><path d="M550.4,73.12V73A3.56,3.56,0,0,1,554,69.23c1.82,0,3.46,1.08,3.46,3.7v.49h-5.36c.05,1.38.75,2.17,2,2.17,1,0,1.56-.41,1.68-1.12h1.64c-.24,1.54-1.48,2.38-3.36,2.38A3.51,3.51,0,0,1,550.4,73.12Zm5.42-.84c-.08-1.26-.73-1.82-1.78-1.82a1.89,1.89,0,0,0-1.88,1.82Z" fill="#fff"/></g></g></g></svg>