<svg xmlns="http://www.w3.org/2000/svg" viewBox="0 0 133 35"><title>cta_txt</title><g id="Layer_2" data-name="Layer 2"><g id="CTA"><rect width="133" height="35" fill="none"/><path d="M8.12,10.69H15.6v2.07H10.76v3.08h3.83v2H10.76v4.52H8.12Z" fill="#231f20"/><path d="M16.63,11.37A1.35,1.35,0,1,1,18,12.66,1.3,1.3,0,0,1,16.63,11.37Zm.18,2.45h2.35v8.53H16.81Z" fill="#231f20"/><path d="M21.15,10h2.34v12.4H21.15Z" fill="#231f20"/><path d="M24.88,18.19v-.13a4.24,4.24,0,0,1,4.39-4.44c2.2,0,4.16,1.29,4.16,4.34v.65H27.28a2,2,0,0,0,2.12,2.24c1.09,0,1.63-.47,1.78-1.19h2.23c-.28,1.84-1.74,2.87-4.08,2.87A4.14,4.14,0,0,1,24.88,18.19Zm6.25-1c-.08-1.29-.74-1.91-1.86-1.91a2,2,0,0,0-2,1.91Z" fill="#231f20"/><path d="M37.71,16.59v-.13a5.78,5.78,0,0,1,6-5.94,5.68,5.68,0,0,1,6,5.88v.13a5.73,5.73,0,0,1-6,6A5.69,5.69,0,0,1,37.71,16.59Zm9.25,0v-.13c0-2.27-1.21-3.82-3.24-3.82s-3.25,1.49-3.25,3.83v.14c0,2.38,1.37,3.85,3.28,3.85S47,18.91,47,16.56Z" fill="#231f20"/><path d="M51.16,13.82h2.37v1.35a2.93,2.93,0,0,1,2.77-1.55c1.68,0,2.87,1,2.87,3.3v5.43H56.81V17.26c0-1.16-.46-1.71-1.5-1.71a1.69,1.69,0,0,0-1.78,1.87v4.93H51.16Z" fill="#231f20"/><path d="M61,10h2.35v12.4H61Z" fill="#231f20"/><path d="M65.15,11.37a1.35,1.35,0,1,1,1.34,1.29A1.3,1.3,0,0,1,65.15,11.37Zm.18,2.45h2.35v8.53H65.33Z" fill="#231f20"/><path d="M69.61,13.82H72v1.35a3,3,0,0,1,2.77-1.55c1.69,0,2.88,1,2.88,3.3v5.43H75.25V17.26c0-1.16-.46-1.71-1.5-1.71A1.69,1.69,0,0,0,72,17.42v4.93H69.61Z" fill="#231f20"/><path d="M78.87,18.19v-.13a4.24,4.24,0,0,1,4.39-4.44c2.2,0,4.16,1.29,4.16,4.34v.65H81.27a2,2,0,0,0,2.12,2.24c1.09,0,1.63-.47,1.77-1.19H87.4c-.28,1.84-1.75,2.87-4.08,2.87A4.14,4.14,0,0,1,78.87,18.19Zm6.25-1c-.09-1.29-.74-1.91-1.86-1.91a2,2,0,0,0-2,1.91Z" fill="#231f20"/><path d="M92.3,10.69h3.07l4.44,7.68V10.69h2.35V22.35H99.51l-4.86-8.3v8.3H92.3Z" fill="#231f20"/><path d="M103.62,18.17V18a4.5,4.5,0,0,1,9-.05v.14a4.5,4.5,0,0,1-9,0Zm6.59,0V18c0-1.63-.77-2.61-2.09-2.61S106,16.36,106,18v.14c0,1.63.75,2.6,2.09,2.6S110.21,19.76,110.21,18.14Z" fill="#231f20"/><path d="M112.93,13.82h2.48l1.52,5.74,1.65-5.74h1.94l1.5,5.74,1.61-5.74h2.27l-2.69,8.53h-2.32L119.44,17l-1.57,5.35h-2.34Z" fill="#231f20"/></g></g></svg>