<svg xmlns="http://www.w3.org/2000/svg" viewBox="0 0 300 80"><title>footer</title><g id="Layer_2" data-name="Layer 2"><g id="Footer"><rect width="300" height="80" fill="#fff"/><path d="M37.94,48.83c0,1,1,1.37,1.69,1.37a2.14,2.14,0,0,0,1.08-.28c-.36-.39-2.06-2.3-2.06-2.3A1.51,1.51,0,0,0,37.94,48.83Z" fill="#14aa40"/><path d="M52.46,45.59a1.12,1.12,0,0,0-1.21-1.26H49.67v2.49h1.58A1.14,1.14,0,0,0,52.46,45.59Z" fill="#14aa40"/><path d="M29.75,61.31H27.59v1.75h2.18a.8.8,0,0,0,.82-.88A.83.83,0,0,0,29.75,61.31Z" fill="#14aa40"/><path d="M29.91,58.24a.76.76,0,0,0-.78-.8H27.61v1.67h1.52A.78.78,0,0,0,29.91,58.24Z" fill="#14aa40"/><path d="M48.32,57.54c-1.11,0-1.72.66-1.72,1.86v1.69c0,1.21.61,1.86,1.72,1.86S50,62.3,50,61.09V59.4C50,58.2,49.42,57.54,48.32,57.54Z" fill="#14aa40"/><path d="M76.56,55.47h-.07v.16h.07c.06,0,.09,0,.09-.08A.08.08,0,0,0,76.56,55.47Z" fill="#14aa40"/><path d="M76.54,55a.63.63,0,0,0-.67.67.68.68,0,1,0,.67-.67Zm.1,1-.1-.2h-.05V56h-.23v-.72h.33c.19,0,.29.1.29.26a.27.27,0,0,1-.11.22l.14.24Z" fill="#14aa40"/><path d="M20,10V70H80.12V10ZM46.41,41.73h5.22c2.65,0,4.09,1.57,4.09,3.84a3.59,3.59,0,0,1-1.79,3.27L56,52.13H52.21l-1.6-2.73h-.94v2.73H46.41ZM30,65.45H24.51V55.05h5.41c1.95,0,3.09,1.13,3.09,2.69a2.49,2.49,0,0,1-1.36,2.33,2.35,2.35,0,0,1,2,2.42C33.65,64.25,32.37,65.45,30,65.45Zm3.73-13.32H30.45V48.4H27.77v3.73H24.51V41.73h3.26v3.7h2.68v-3.7h3.27Zm8.76,13.32H35V55.05h3.26v7.7h4.23Zm-.22-13.82a4.69,4.69,0,0,1-2.57.71c-2.87,0-4.49-1.37-4.49-3.44a3.1,3.1,0,0,1,1.89-2.84,2.45,2.45,0,0,1-.85-1.82c0-1.64,1.33-2.72,3.4-2.72,1.91,0,3.27,1,3.27,2.66v.65H40.43v-.5a.74.74,0,0,0-1.48,0,1.29,1.29,0,0,0,.39.86l2.42,2.7V46.31h2.3v1.63a4.05,4.05,0,0,1-.41,2l2,2.2h-2.9Zm11,9.27c0,2.83-1.71,4.76-5,4.76s-5-1.93-5-4.76V59.59c0-2.82,1.72-4.75,5-4.75s5,1.93,5,4.75Zm6,2.05A1.53,1.53,0,0,0,61,61.41H64a4.29,4.29,0,0,1-4.65,4.25c-3.36,0-5-1.91-5-4.73V59.56c0-2.82,1.61-4.72,5-4.72A4.28,4.28,0,0,1,64,59.09H61a1.53,1.53,0,0,0-1.63-1.55c-1.11,0-1.65.73-1.65,1.88v1.66C57.68,62.22,58.22,63,59.33,63Zm12.16,2.5-2.16-4.33h-.25v4.33H65.81V55.05h3.27v3.62h.2l2.12-3.62h3.66l-2.74,4.69,3,5.71Zm5.05-8.94a.84.84,0,1,1,.87-.84A.82.82,0,0,1,76.54,56.51Z" fill="#14aa40"/></g></g></svg>