<svg xmlns="http://www.w3.org/2000/svg" viewBox="0 0 300 250"><title>txt</title><g id="Layer_2" data-name="Layer 2"><g id="more_parents_can_file" data-name="more parents can file"><path d="M23.73,15.84h7.48L35,26.51l3.84-10.67h7.34v20H40.5V23.4L35.6,35.86H33.7L28.86,23.4V35.86H23.73Z" fill="#fff"/><path d="M48.68,28.72V28.5c0-4.71,3.5-7.68,8-7.68s8,2.89,8,7.54v.22c0,4.76-3.5,7.62-8,7.62S48.68,33.45,48.68,28.72Zm10.92-.08v-.23c0-2.46-1-3.83-2.88-3.83s-2.92,1.31-2.92,3.78v.22c0,2.52,1,3.89,2.92,3.89S59.6,31.07,59.6,28.64Z" fill="#fff"/><path d="M66.88,21.22h5v2.91A4.62,4.62,0,0,1,76.62,21V25.7c-3.05-.09-4.73.86-4.73,3.22v6.94h-5Z" fill="#fff"/><path d="M77.94,28.72V28.5c0-4.71,3.5-7.68,7.92-7.68,4,0,7.45,2.3,7.45,7.56V29.7H83a2.92,2.92,0,0,0,3,3.05c1.65,0,2.35-.75,2.55-1.73h4.7c-.45,3.3-3,5.18-7.42,5.18C81.3,36.2,77.94,33.51,77.94,28.72Zm10.5-1.85c-.08-1.76-1-2.74-2.58-2.74s-2.54,1-2.8,2.74Z" fill="#fff"/><path d="M101,21.22h5V23.4a5.17,5.17,0,0,1,4.56-2.58c3.42,0,6.19,2.58,6.19,7.59v.23c0,5-2.77,7.56-6.22,7.56A4.82,4.82,0,0,1,106,33.71v7h-5Zm10.67,7.42v-.23c0-2.57-1.12-3.81-2.88-3.81s-2.91,1.32-2.91,3.78v.23c0,2.49,1.09,3.75,2.91,3.75S111.65,31,111.65,28.64Z" fill="#fff"/><path d="M118.15,31.8c0-3.44,2.91-4.79,7.78-4.79h1.4v-.33c0-1.4-.33-2.33-1.93-2.33a1.81,1.81,0,0,0-2,1.74h-4.7c.22-3.53,3-5.27,7-5.27s6.61,1.66,6.61,5.55v9.49h-4.88V34.15a4.79,4.79,0,0,1-4.34,2.05C120.47,36.2,118.15,34.91,118.15,31.8Zm9.18-1.06v-.9H126c-2,0-2.92.39-2.92,1.6,0,.84.56,1.37,1.74,1.37C126.27,32.81,127.33,32,127.33,30.74Z" fill="#fff"/><path d="M135.17,21.22h5v2.91A4.62,4.62,0,0,1,144.92,21V25.7c-3.06-.09-4.74.86-4.74,3.22v6.94h-5Z" fill="#fff"/><path d="M146.23,28.72V28.5c0-4.71,3.5-7.68,7.93-7.68,4,0,7.44,2.3,7.44,7.56V29.7H151.3a2.92,2.92,0,0,0,3,3.05c1.65,0,2.35-.75,2.55-1.73h4.7c-.44,3.3-3,5.18-7.42,5.18C149.59,36.2,146.23,33.51,146.23,28.72Zm10.5-1.85c-.08-1.76-.95-2.74-2.57-2.74s-2.55,1-2.8,2.74Z" fill="#fff"/><path d="M163.76,21.22h5v2.35a5.17,5.17,0,0,1,4.82-2.75c2.82,0,4.78,1.77,4.78,5.52v9.52h-5V27.35c0-1.65-.64-2.47-2.1-2.47s-2.49.9-2.49,2.78v8.2h-5Z" fill="#fff"/><path d="M181.9,31.16V24.63h-1.76V21.22h1.76v-3h5v3h2.88v3.41h-2.88v6.05c0,1.06.53,1.54,1.48,1.54a3.8,3.8,0,0,0,1.43-.25v3.81a11,11,0,0,1-2.78.42C183.75,36.2,181.9,34.6,181.9,31.16Z" fill="#fff"/><path d="M191.34,31.21H196c.17,1.07.64,1.65,2.07,1.65,1.23,0,1.79-.47,1.79-1.2s-.7-1-2.71-1.32c-3.92-.5-5.58-1.65-5.58-4.7,0-3.25,2.89-4.82,6.28-4.82,3.61,0,6.13,1.24,6.46,4.74h-4.53a1.64,1.64,0,0,0-1.88-1.46c-1.09,0-1.65.48-1.65,1.15s.67,1,2.46,1.2c4.06.51,6,1.57,6,4.71,0,3.47-2.57,5-6.63,5S191.45,34.46,191.34,31.21Z" fill="#fff"/><path d="M22.5,58.72V58.5c0-4.88,3.5-7.68,7.81-7.68,3.59,0,6.89,1.57,7.17,6h-4.7a2.17,2.17,0,0,0-2.36-2.12c-1.76,0-2.8,1.26-2.8,3.72v.23c0,2.54,1,3.86,2.89,3.86a2.44,2.44,0,0,0,2.55-2.44h4.5c-.14,3.7-2.63,6.11-7.36,6.11C25.83,66.2,22.5,63.65,22.5,58.72Z" fill="#fff"/><path d="M38.85,61.8c0-3.44,2.91-4.79,7.79-4.79H48v-.33c0-1.4-.34-2.33-1.94-2.33a1.8,1.8,0,0,0-2,1.74H39.41c.23-3.53,3-5.27,7-5.27S53,52.48,53,56.37v9.49H48.15V64.15a4.8,4.8,0,0,1-4.34,2C41.18,66.2,38.85,64.91,38.85,61.8ZM48,60.74v-.9H46.72c-2,0-2.91.39-2.91,1.6,0,.84.56,1.37,1.73,1.37C47,62.81,48,62,48,60.74Z" fill="#fff"/><path d="M55.88,51.22h5v2.35a5.17,5.17,0,0,1,4.81-2.75c2.83,0,4.79,1.77,4.79,5.52v9.52h-5V57.35c0-1.65-.64-2.47-2.1-2.47s-2.49.9-2.49,2.78v8.2h-5Z" fill="#fff"/><path d="M79.62,54.63H77.77V51.22h1.85V49.93c0-3.64,2.27-5.38,5.71-5.38a8.75,8.75,0,0,1,2.24.28V48.5a4.36,4.36,0,0,0-1.32-.17,1.47,1.47,0,0,0-1.65,1.6v1.29h3v3.41h-3V65.86h-5Z" fill="#fff"/><path d="M89.28,47.24A2.76,2.76,0,1,1,92,49.82,2.61,2.61,0,0,1,89.28,47.24Zm.25,4h5V65.86h-5Z" fill="#fff"/><path d="M97.79,44.78h5V65.86h-5Z" fill="#fff"/><path d="M105.1,58.72V58.5c0-4.71,3.5-7.68,7.92-7.68,4,0,7.45,2.3,7.45,7.56V59.7h-10.3a2.92,2.92,0,0,0,3,3c1.65,0,2.35-.75,2.55-1.73h4.7c-.45,3.3-3,5.18-7.42,5.18C108.46,66.2,105.1,63.51,105.1,58.72Zm10.5-1.85c-.09-1.76-.95-2.74-2.58-2.74s-2.55,1-2.8,2.74Z" fill="#fff"/><path d="M128.9,54.63h-1.85V51.22h1.85V49.93c0-3.64,2.27-5.38,5.74-5.38a8.8,8.8,0,0,1,2.29.31v3.67a4.62,4.62,0,0,0-1.37-.2,1.48,1.48,0,0,0-1.68,1.6v1.29h3v3.41h-3V65.86h-5Z" fill="#fff"/><path d="M137.66,58.72V58.5c0-4.71,3.5-7.68,8-7.68s8,2.89,8,7.54v.22c0,4.76-3.5,7.62-8,7.62S137.66,63.45,137.66,58.72Zm10.92-.08v-.23c0-2.46-1-3.83-2.88-3.83s-2.91,1.31-2.91,3.78v.22c0,2.52,1,3.89,2.91,3.89S148.58,61.07,148.58,58.64Z" fill="#fff"/><path d="M155.86,51.22h5v2.91A4.62,4.62,0,0,1,165.6,51V55.7c-3-.09-4.73.86-4.73,3.22v6.94h-5Z" fill="#fff"/><path d="M174.12,54.63h-1.85V51.22h1.85V49.93c0-3.64,2.26-5.38,5.74-5.38a8.8,8.8,0,0,1,2.29.31v3.67a4.62,4.62,0,0,0-1.37-.2,1.47,1.47,0,0,0-1.68,1.6v1.29h3v3.41h-3V65.86h-5Z" fill="#fff"/><path d="M184.17,51.22h5v2.91A4.6,4.6,0,0,1,193.91,51V55.7c-3-.09-4.73.86-4.73,3.22v6.94h-5Z" fill="#fff"/><path d="M195.23,58.72V58.5c0-4.71,3.5-7.68,7.92-7.68,4,0,7.45,2.3,7.45,7.56V59.7H200.29a2.94,2.94,0,0,0,3.06,3c1.65,0,2.35-.75,2.55-1.73h4.7c-.45,3.3-3,5.18-7.42,5.18C198.59,66.2,195.23,63.51,195.23,58.72Zm10.5-1.85c-.09-1.76-.95-2.74-2.58-2.74s-2.55,1-2.8,2.74Z" fill="#fff"/><path d="M212,58.72V58.5c0-4.71,3.5-7.68,7.93-7.68,4,0,7.44,2.3,7.44,7.56V59.7H217a2.92,2.92,0,0,0,3.05,3c1.65,0,2.35-.75,2.55-1.73h4.7c-.44,3.3-3,5.18-7.42,5.18C215.33,66.2,212,63.51,212,58.72Zm10.5-1.85c-.08-1.76-.95-2.74-2.57-2.74s-2.55,1-2.8,2.74Z" fill="#fff"/><path d="M22.05,81.22h5.24L29.42,90l2.46-8.76h4L38.1,90l2.38-8.76h4.76L40.59,95.86H35.8l-2.18-8.17-2.27,8.17H26.48Z" fill="#fff"/><path d="M46.83,77.24a2.77,2.77,0,1,1,2.75,2.58A2.62,2.62,0,0,1,46.83,77.24Zm.25,4h5V95.86h-5Z" fill="#fff"/><path d="M55.88,91.16V84.63H54.11V81.22h1.77v-3h5v3h2.88v3.41H60.89v6.05c0,1.06.53,1.54,1.48,1.54A3.8,3.8,0,0,0,63.8,92v3.81A10.86,10.86,0,0,1,61,96.2C57.72,96.2,55.88,94.6,55.88,91.16Z" fill="#fff"/><path d="M66.1,74.78h5v8.79a5.17,5.17,0,0,1,4.81-2.75c2.83,0,4.79,1.77,4.79,5.52v9.52h-5V87.35c0-1.65-.64-2.47-2.1-2.47s-2.49.9-2.49,2.78v8.2h-5Z" fill="#fff"/><path d="M89.53,75.84H95.3v7.64h6.58V75.84h5.74v20h-5.74V88H95.3v7.9H89.53Z" fill="#fff"/><path d="M127.25,91.77l3.33,4.09h-6.53l-1.17-1.46a8,8,0,0,1-5.41,1.8c-4.25,0-7-2.24-7-6,0-2.58,1.56-4.48,4.39-5.83a6.34,6.34,0,0,1-1.23-3.5c0-3.41,2.91-5.23,6.44-5.23,3.19,0,6.08,1.6,6.08,4.68,0,2.18-1.29,3.77-4,5l2.52,3.08,1.46-2.86h4.37Zm-7-.58-3.16-3.81a2.35,2.35,0,0,0-1.35,2.15A2.32,2.32,0,0,0,118.34,92,2.64,2.64,0,0,0,120.3,91.19Zm-.61-8.07c1.34-.64,2-1.4,2-2.43a1.43,1.43,0,0,0-1.48-1.54,1.59,1.59,0,0,0-1.65,1.73A3.67,3.67,0,0,0,119.69,83.12Z" fill="#fff"/><path d="M132.82,75.84h7.84c5.23,0,8.15,2.13,8.15,6.36v.11a5.23,5.23,0,0,1-3.62,5.26L150,95.86h-6l-4.06-7.17h-1.34v7.17h-5.71ZM140.38,85c1.93,0,2.88-.81,2.88-2.44v-.11c0-1.62-1-2.27-2.85-2.27h-1.88V85Z" fill="#fff"/><path d="M157.85,75.84h8.93c4.73,0,6.75,2.13,6.75,5.24v.11a4.13,4.13,0,0,1-3.39,4.31,4.35,4.35,0,0,1,4,4.68v.11c0,3.58-2.33,5.57-7.28,5.57h-9Zm7.78,8c1.8,0,2.47-.61,2.47-2v-.11c0-1.37-.73-2-2.47-2h-2.18v4.14Zm.2,8.23c1.82,0,2.66-.83,2.66-2.32v-.11c0-1.51-.81-2.3-2.83-2.3h-2.21V92Z" fill="#fff"/><path d="M176.55,74.78h5V95.86h-5Z" fill="#fff"/><path d="M183.86,88.72V88.5c0-4.71,3.5-7.68,8-7.68s8,2.89,8,7.54v.22c0,4.76-3.5,7.62-8,7.62S183.86,93.45,183.86,88.72Zm10.92-.08v-.23c0-2.46-1-3.83-2.88-3.83S189,85.89,189,88.36v.22c0,2.52,1,3.89,2.91,3.89S194.78,91.07,194.78,88.64Z" fill="#fff"/><path d="M201.28,88.72V88.5c0-4.88,3.5-7.68,7.81-7.68,3.58,0,6.89,1.57,7.17,6h-4.71a2.15,2.15,0,0,0-2.35-2.12c-1.76,0-2.8,1.26-2.8,3.72v.23c0,2.54,1,3.86,2.89,3.86a2.43,2.43,0,0,0,2.54-2.44h4.51c-.14,3.7-2.63,6.11-7.36,6.11C204.61,96.2,201.28,93.65,201.28,88.72Z" fill="#fff"/><path d="M218.39,74.78h5V87l3.95-5.79h5.2l-4.78,6.58L233,95.86h-5.6l-3.95-6.41v6.41h-5Z" fill="#fff"/><path d="M22.67,116v-.23c0-6.1,4.59-10.19,10.58-10.19s10.61,3.84,10.61,10v.23c0,6.16-4.22,10.36-10.69,10.36S22.67,122,22.67,116Zm15.2-.06v-.22c0-3.56-1.79-5.66-4.62-5.66s-4.59,2-4.59,5.69V116c0,3.64,1.85,5.74,4.62,5.74S37.87,119.5,37.87,115.92Z" fill="#fff"/><path d="M46.22,111.22h5v2.35A5.17,5.17,0,0,1,56,110.82c2.83,0,4.79,1.77,4.79,5.52v9.52h-5v-8.51c0-1.65-.64-2.47-2.1-2.47s-2.49.9-2.49,2.78v8.2h-5Z" fill="#fff"/><path d="M63.83,104.78h5v21.08h-5Z" fill="#fff"/><path d="M71.81,107.24a2.76,2.76,0,1,1,2.74,2.58A2.61,2.61,0,0,1,71.81,107.24Zm.25,4h5v14.64h-5Z" fill="#fff"/><path d="M80.18,111.22h5v2.35A5.19,5.19,0,0,1,90,110.82c2.83,0,4.79,1.77,4.79,5.52v9.52h-5v-8.51c0-1.65-.64-2.47-2.1-2.47s-2.49.9-2.49,2.78v8.2h-5Z" fill="#fff"/><path d="M96.87,118.72v-.22c0-4.71,3.5-7.68,7.92-7.68,4,0,7.45,2.3,7.45,7.56v1.32h-10.3a2.92,2.92,0,0,0,3,3c1.65,0,2.35-.75,2.55-1.73h4.7c-.45,3.3-3,5.18-7.42,5.18C100.23,126.2,96.87,123.51,96.87,118.72Zm10.5-1.85c-.09-1.76-1-2.74-2.58-2.74s-2.55,1-2.8,2.74Z" fill="#fff"/><path d="M120.58,121.16v-6.53h-1.76v-3.41h1.76v-3h5v3h2.89v3.41h-2.89v6.05a1.34,1.34,0,0,0,1.49,1.54,3.8,3.8,0,0,0,1.43-.25v3.81a11,11,0,0,1-2.78.42C122.43,126.2,120.58,124.6,120.58,121.16Z" fill="#fff"/><path d="M130.8,104.78h5v8.79a5.19,5.19,0,0,1,4.82-2.75c2.83,0,4.79,1.77,4.79,5.52v9.52h-5v-8.51c0-1.65-.65-2.47-2.1-2.47s-2.5.9-2.5,2.78v8.2h-5Z" fill="#fff"/><path d="M147.43,121.8c0-3.44,2.92-4.79,7.79-4.79h1.4v-.33c0-1.4-.34-2.33-1.93-2.33a1.8,1.8,0,0,0-2,1.74H148c.23-3.53,3-5.27,7-5.27s6.61,1.66,6.61,5.55v9.49h-4.87v-1.71a4.8,4.8,0,0,1-4.34,2C149.76,126.2,147.43,124.91,147.43,121.8Zm9.19-1.06v-.9H155.3c-2,0-2.91.39-2.91,1.6,0,.84.56,1.37,1.74,1.37A2.21,2.21,0,0,0,156.62,120.74Z" fill="#fff"/><path d="M164.46,111.22h5v2.35a5.17,5.17,0,0,1,4.82-2.75c2.82,0,4.78,1.77,4.78,5.52v9.52h-5v-8.51c0-1.65-.64-2.47-2.1-2.47s-2.49.9-2.49,2.78v8.2h-5Z" fill="#fff"/><path d="M27.57,140.27H22.39v-4.43H38.52v4.43H33.34v15.59H27.57Z" fill="#fff"/><path d="M39.38,150.77v-9.55h5V150c0,1.66.64,2.47,2.07,2.47s2.49-.9,2.49-2.77v-8.43h5v14.64H49v-2.27a4.8,4.8,0,0,1-4.65,2.61C41.48,156.2,39.38,154.46,39.38,150.77Z" fill="#fff"/><path d="M56.94,141.22h5v2.91A4.63,4.63,0,0,1,66.68,141v4.68c-3.05-.09-4.73.87-4.73,3.22v6.94h-5Z" fill="#fff"/><path d="M73.94,153.59v2.27h-5V134.78h5v8.62a5.16,5.16,0,0,1,4.56-2.57c3.42,0,6.19,2.57,6.19,7.58v.23c0,5-2.77,7.56-6.22,7.56A4.74,4.74,0,0,1,73.94,153.59Zm5.65-5v-.23c0-2.57-1.12-3.8-2.88-3.8s-2.91,1.31-2.91,3.78v.22c0,2.49,1.09,3.75,2.91,3.75S79.59,151,79.59,148.64Z" fill="#fff"/><path d="M86.14,148.72v-.22c0-4.71,3.5-7.67,8-7.67s8,2.88,8,7.53v.22c0,4.76-3.5,7.62-8,7.62S86.14,153.45,86.14,148.72Zm10.92-.08v-.23c0-2.46-1-3.83-2.88-3.83s-2.91,1.31-2.91,3.78v.22c0,2.52,1,3.89,2.91,3.89S97.06,151.07,97.06,148.64Z" fill="#fff"/><path d="M108.63,140.27h-5.18v-4.43h16.13v4.43H114.4v15.59h-5.77Z" fill="#fff"/><path d="M119,151.8c0-3.44,2.91-4.79,7.78-4.79h1.4v-.33c0-1.4-.33-2.33-1.93-2.33a1.81,1.81,0,0,0-2,1.74h-4.7c.22-3.53,3-5.26,7-5.26s6.61,1.65,6.61,5.54v9.49h-4.88v-1.71a4.79,4.79,0,0,1-4.34,2C121.31,156.2,119,154.91,119,151.8Zm9.18-1.06v-.9h-1.31c-2,0-2.92.39-2.92,1.6,0,.84.56,1.37,1.74,1.37C127.11,152.81,128.17,152,128.17,150.74Z" fill="#fff"/><path d="M139.71,148.41l-4.57-7.19h5.77l2.27,3.86,2.21-3.86h5.15l-4.62,6.8,5.07,7.84h-5.77l-2.6-4.37L140,155.86h-5.12Z" fill="#fff"/><path d="M152.42,153.34a2.79,2.79,0,0,1,2.86-2.83,2.83,2.83,0,1,1,0,5.66A2.79,2.79,0,0,1,152.42,153.34Z" fill="#fff"/><rect width="300" height="250" fill="none"/></g></g></svg>