<svg xmlns="http://www.w3.org/2000/svg" viewBox="0 0 160 600"><title>H18 T4</title><g id="Layer_2" data-name="Layer 2"><g id="Rect"><rect width="160" height="600" fill="none"/></g><g id="H18_T4" data-name="H18 T4"><g id="Easily_the_easiest_way_to_do_your_own_taxes." data-name="Easily the easiest way to do your own taxes."><path d="M22.33,99.94H35.46v4.2h-7.7v3.28H33.9v3.88H27.76v3.46h8.13V119H22.33Z" fill="#13aa40"/><path d="M37,115.1c0-3.27,2.77-4.55,7.39-4.55H45.7v-.32c0-1.32-.32-2.2-1.83-2.2A1.7,1.7,0,0,0,42,109.68H37.51c.22-3.35,2.85-5,6.65-5s6.27,1.57,6.27,5.26v9H45.81v-1.62a4.58,4.58,0,0,1-4.12,1.94C39.19,119.28,37,118.05,37,115.1Zm8.72-1v-.85H44.45c-1.91,0-2.76.37-2.76,1.52,0,.79.53,1.3,1.64,1.3C44.69,116.06,45.7,115.29,45.7,114.09Z" fill="#13aa40"/><path d="M51.81,114.54H56.2c.16,1,.61,1.57,2,1.57,1.17,0,1.7-.45,1.7-1.14s-.67-1-2.58-1.25c-3.72-.48-5.29-1.57-5.29-4.47,0-3.08,2.74-4.57,6-4.57,3.42,0,5.82,1.17,6.14,4.49H59.79A1.55,1.55,0,0,0,58,107.79c-1,0-1.57.45-1.57,1.09s.64.93,2.34,1.14c3.85.48,5.71,1.49,5.71,4.47,0,3.3-2.44,4.79-6.3,4.79S51.92,117.63,51.81,114.54Z" fill="#13aa40"/><path d="M65.93,101.27a2.63,2.63,0,1,1,2.61,2.45A2.48,2.48,0,0,1,65.93,101.27Zm.24,3.78h4.76V119H66.17Z" fill="#13aa40"/><path d="M73.61,98.93h4.73v20H73.61Z" fill="#13aa40"/><path d="M85.26,117.55l-5.56-12.5h5.16l2.87,7.42,2.66-7.42h4.54l-7.44,18.56H82.94Z" fill="#13aa40"/><path d="M101.63,114.49v-6.2H100v-3.24h1.67v-2.9h4.76v2.9h2.74v3.24h-2.74V114c0,1,.5,1.46,1.41,1.46a3.57,3.57,0,0,0,1.35-.24v3.62a9.91,9.91,0,0,1-2.63.4C103.38,119.28,101.63,117.76,101.63,114.49Z" fill="#13aa40"/><path d="M110.93,98.93h4.76v8.35a4.92,4.92,0,0,1,4.57-2.6c2.69,0,4.55,1.67,4.55,5.24v9h-4.76v-8.09c0-1.57-.61-2.34-2-2.34s-2.37.85-2.37,2.64V119h-4.76Z" fill="#13aa40"/><path d="M126.38,112.18V112c0-4.46,3.32-7.28,7.52-7.28,3.8,0,7.07,2.18,7.07,7.18v1.25h-9.78a2.78,2.78,0,0,0,2.9,2.9c1.57,0,2.23-.72,2.42-1.65H141c-.42,3.14-2.84,4.92-7,4.92C129.57,119.28,126.38,116.72,126.38,112.18Zm10-1.76c-.08-1.67-.91-2.61-2.45-2.61a2.66,2.66,0,0,0-2.66,2.61Z" fill="#13aa40"/><path d="M21.16,139.6v-.21c0-4.47,3.33-7.29,7.53-7.29,3.8,0,7.07,2.18,7.07,7.18v1.25H26a2.77,2.77,0,0,0,2.89,2.9c1.57,0,2.24-.72,2.42-1.65h4.47c-.43,3.14-2.85,4.92-7,4.92C24.35,146.7,21.16,144.15,21.16,139.6Zm10-1.75c-.08-1.68-.9-2.61-2.44-2.61A2.65,2.65,0,0,0,26,137.85Z" fill="#13aa40"/><path d="M36.74,142.53c0-3.27,2.77-4.55,7.39-4.55h1.33v-.32c0-1.33-.32-2.21-1.83-2.21a1.71,1.71,0,0,0-1.89,1.65H37.27c.22-3.35,2.85-5,6.65-5s6.27,1.57,6.27,5.27v9H45.57v-1.62a4.58,4.58,0,0,1-4.12,1.94C39,146.7,36.74,145.48,36.74,142.53Zm8.72-1v-.85H44.21c-1.91,0-2.76.37-2.76,1.51,0,.8.53,1.31,1.64,1.31A2.1,2.1,0,0,0,45.46,141.52Z" fill="#13aa40"/><path d="M51.58,142H56c.16,1,.61,1.57,2,1.57,1.17,0,1.7-.45,1.7-1.14s-.67-1-2.58-1.25c-3.72-.48-5.29-1.57-5.29-4.47,0-3.09,2.74-4.58,6-4.58,3.42,0,5.82,1.17,6.14,4.5H59.55a1.56,1.56,0,0,0-1.78-1.39c-1,0-1.57.46-1.57,1.09s.64.94,2.34,1.15c3.85.48,5.71,1.49,5.71,4.47,0,3.29-2.44,4.78-6.3,4.78S51.68,145.06,51.58,142Z" fill="#13aa40"/><path d="M65.69,128.7a2.63,2.63,0,1,1,2.61,2.45A2.48,2.48,0,0,1,65.69,128.7Zm.24,3.78h4.76v13.9H65.93Z" fill="#13aa40"/><path d="M72.5,139.6v-.21c0-4.47,3.32-7.29,7.52-7.29,3.8,0,7.07,2.18,7.07,7.18v1.25H77.31a2.77,2.77,0,0,0,2.89,2.9c1.57,0,2.24-.72,2.42-1.65h4.47c-.43,3.14-2.85,4.92-7,4.92C75.69,146.7,72.5,144.15,72.5,139.6Zm10-1.75c-.08-1.68-.9-2.61-2.44-2.61a2.65,2.65,0,0,0-2.66,2.61Z" fill="#13aa40"/><path d="M87.94,142h4.39c.16,1,.61,1.57,2,1.57,1.17,0,1.7-.45,1.7-1.14s-.66-1-2.57-1.25c-3.73-.48-5.29-1.57-5.29-4.47,0-3.09,2.73-4.58,6-4.58,3.43,0,5.82,1.17,6.14,4.5h-4.3a1.57,1.57,0,0,0-1.79-1.39c-1,0-1.56.46-1.56,1.09s.63.94,2.33,1.15c3.86.48,5.72,1.49,5.72,4.47,0,3.29-2.45,4.78-6.3,4.78S88.05,145.06,87.94,142Z" fill="#13aa40"/><path d="M102.8,141.92v-6.2h-1.67v-3.24h1.67v-2.9h4.76v2.9h2.74v3.24h-2.74v5.74c0,1,.5,1.47,1.41,1.47a3.57,3.57,0,0,0,1.35-.24v3.62a10.41,10.41,0,0,1-2.63.39C104.55,146.7,102.8,145.19,102.8,141.92Z" fill="#13aa40"/><path d="M20.74,159.9h5l2,8.33,2.34-8.33H33.9L36,168.23l2.26-8.33h4.52l-4.41,13.91H33.79L31.72,166l-2.16,7.77H24.94Z" fill="#13aa40"/><path d="M42.64,170c0-3.27,2.77-4.54,7.39-4.54h1.33v-.32c0-1.33-.32-2.21-1.83-2.21a1.71,1.71,0,0,0-1.89,1.65H43.18c.21-3.35,2.84-5,6.64-5s6.27,1.57,6.27,5.26v9H51.47v-1.62a4.58,4.58,0,0,1-4.12,1.94C44.85,174.13,42.64,172.91,42.64,170Zm8.72-1v-.85H50.11c-1.91,0-2.76.38-2.76,1.52,0,.8.53,1.3,1.65,1.3A2.09,2.09,0,0,0,51.36,168.94Z" fill="#13aa40"/><path d="M62.29,172.4l-5.56-12.5h5.16l2.87,7.42,2.66-7.42H72l-7.44,18.57H60Z" fill="#13aa40"/><path d="M78.66,169.34v-6.19H77V159.9h1.67V157h4.76v2.9h2.74v3.25H83.42v5.74a1.27,1.27,0,0,0,1.41,1.46,3.66,3.66,0,0,0,1.36-.24v3.62a10.06,10.06,0,0,1-2.64.4C80.42,174.13,78.66,172.61,78.66,169.34Z" fill="#13aa40"/><path d="M87.22,167v-.21c0-4.47,3.32-7.29,7.63-7.29s7.58,2.74,7.58,7.15v.22c0,4.52-3.33,7.23-7.61,7.23S87.22,171.52,87.22,167ZM97.59,167v-.21c0-2.34-.93-3.65-2.74-3.65s-2.76,1.25-2.76,3.59v.22c0,2.39.93,3.69,2.76,3.69S97.59,169.26,97.59,167Z" fill="#13aa40"/><path d="M108.25,167v-.21c0-4.73,2.6-7.26,5.9-7.26a4.51,4.51,0,0,1,4.28,2.34v-8.09h4.76v20h-4.76v-2.26a4.67,4.67,0,0,1-4.33,2.58C110.88,174.13,108.25,171.82,108.25,167Zm10.31-.08v-.21c0-2.34-1-3.59-2.74-3.59s-2.73,1.2-2.73,3.62V167c0,2.34,1,3.54,2.68,3.54S118.56,169.29,118.56,166.92Z" fill="#13aa40"/><path d="M124.86,167v-.21c0-4.47,3.33-7.29,7.63-7.29s7.58,2.74,7.58,7.15v.22c0,4.52-3.33,7.23-7.61,7.23S124.86,171.52,124.86,167Zm10.37-.08v-.21c0-2.34-.93-3.65-2.74-3.65s-2.76,1.25-2.76,3.59v.22c0,2.39.93,3.69,2.76,3.69S135.23,169.26,135.23,167Z" fill="#13aa40"/><path d="M26.27,199.83l-5.56-12.5h5.16l2.87,7.42,2.66-7.42h4.54L28.5,205.89H24Z" fill="#13aa40"/><path d="M35.68,194.46v-.22c0-4.47,3.32-7.28,7.63-7.28s7.57,2.73,7.57,7.15v.21c0,4.52-3.32,7.24-7.6,7.24S35.68,199,35.68,194.46Zm10.37-.08v-.22c0-2.34-.94-3.64-2.74-3.64s-2.77,1.25-2.77,3.59v.21c0,2.4.93,3.7,2.77,3.7S46.05,196.69,46.05,194.38Z" fill="#13aa40"/><path d="M52.45,196.4v-9.07h4.76v8.3c0,1.56.61,2.34,2,2.34s2.36-.86,2.36-2.64v-8H66.3v13.91H61.54v-2.16a4.56,4.56,0,0,1-4.41,2.48C54.45,201.56,52.45,199.91,52.45,196.4Z" fill="#13aa40"/><path d="M68.72,187.33h4.76v2.76a4.38,4.38,0,0,1,4.49-3v4.44c-2.9-.08-4.49.83-4.49,3.06v6.6H68.72Z" fill="#13aa40"/><path d="M83.79,194.46v-.22c0-4.47,3.33-7.28,7.63-7.28S99,189.69,99,194.11v.21c0,4.52-3.33,7.24-7.6,7.24S83.79,199,83.79,194.46Zm10.37-.08v-.22c0-2.34-.93-3.64-2.74-3.64s-2.76,1.25-2.76,3.59v.21c0,2.4.93,3.7,2.76,3.7S94.16,196.69,94.16,194.38Z" fill="#13aa40"/><path d="M99.05,187.33h5l2,8.32,2.34-8.32h3.83l2.07,8.32,2.26-8.32h4.52l-4.41,13.91H112.1L110,193.47l-2.15,7.77h-4.63Z" fill="#13aa40"/><path d="M122.29,187.33H127v2.23a4.92,4.92,0,0,1,4.58-2.6c2.68,0,4.54,1.67,4.54,5.23v9.05H131.4v-8.09c0-1.57-.61-2.34-2-2.34s-2.37.85-2.37,2.63v7.8h-4.75Z" fill="#13aa40"/><path d="M22.55,224.2V218H20.87v-3.25h1.68v-2.9H27.3v2.9H30V218H27.3v5.74a1.28,1.28,0,0,0,1.41,1.47,3.62,3.62,0,0,0,1.36-.24v3.61a10,10,0,0,1-2.63.4C24.3,229,22.55,227.47,22.55,224.2Z" fill="#13aa40"/><path d="M31.11,224.81c0-3.27,2.76-4.55,7.39-4.55h1.33v-.32c0-1.33-.32-2.21-1.84-2.21a1.71,1.71,0,0,0-1.89,1.65H31.64c.21-3.35,2.84-5,6.64-5s6.28,1.57,6.28,5.27v9H39.93V227A4.56,4.56,0,0,1,35.81,229C33.31,229,31.11,227.76,31.11,224.81Zm8.72-1V223H38.58c-1.92,0-2.77.37-2.77,1.51,0,.8.53,1.3,1.65,1.3A2.1,2.1,0,0,0,39.83,223.8Z" fill="#13aa40"/><path d="M50.38,221.59l-4.33-6.84h5.47l2.15,3.67,2.1-3.67h4.9l-4.39,6.47,4.81,7.44H55.62l-2.48-4.15-2.52,4.15H45.75Z" fill="#13aa40"/><path d="M60.48,221.88v-.21c0-4.47,3.32-7.29,7.52-7.29,3.8,0,7.07,2.18,7.07,7.18v1.25H65.29a2.78,2.78,0,0,0,2.9,2.9c1.57,0,2.23-.72,2.42-1.65h4.46c-.42,3.14-2.84,4.92-7,4.92C63.67,229,60.48,226.43,60.48,221.88Zm10-1.75c-.08-1.68-.91-2.61-2.45-2.61a2.65,2.65,0,0,0-2.66,2.61Z" fill="#13aa40"/><path d="M75.92,224.25h4.39c.16,1,.61,1.57,2,1.57,1.17,0,1.7-.45,1.7-1.15s-.67-1-2.58-1.25c-3.72-.47-5.29-1.57-5.29-4.46,0-3.09,2.74-4.58,6-4.58,3.43,0,5.83,1.17,6.15,4.5H83.9a1.56,1.56,0,0,0-1.78-1.39c-1,0-1.57.46-1.57,1.09s.64.93,2.34,1.15c3.85.48,5.71,1.49,5.71,4.47,0,3.29-2.44,4.78-6.3,4.78S76,227.33,75.92,224.25Z" fill="#13aa40"/><path d="M90,226.27a2.65,2.65,0,0,1,2.71-2.69,2.69,2.69,0,1,1,0,5.38A2.65,2.65,0,0,1,90,226.27Z" fill="#13aa40"/></g></g></g></svg>