<svg xmlns="http://www.w3.org/2000/svg" viewBox="0 0 300 250"><title>Asset 15</title><g id="Layer_2" data-name="Layer 2"><g id="Rect"><rect width="300" height="250" fill="none"/></g><g id="Power_hour._Your_taxes_could_be_done_in_an_hour." data-name="Power hour. Your taxes could be done in an hour."><path d="M22.28,20.25h9c6.47,0,9.48,2.87,9.48,7.89v.13c0,4.95-3.34,7.62-9.18,7.62H29v8H22.28Zm8.68,11c2.18,0,3.33-1,3.33-3v-.13c0-2-1.19-2.84-3.3-2.84H29v5.94Z" fill="#fff"/><path d="M41.25,35.43v-.26c0-5.55,4.13-9,9.47-9s9.41,3.4,9.41,8.88v.27c0,5.61-4.12,9-9.44,9S41.25,41,41.25,35.43Zm12.87-.1v-.26c0-2.9-1.15-4.52-3.4-4.52S47.29,32.1,47.29,35v.27c0,3,1.16,4.58,3.43,4.58S54.12,38.21,54.12,35.33Z" fill="#fff"/><path d="M60.19,26.59h6.18l2.5,10.33,2.91-10.33h4.75l2.58,10.33,2.8-10.33h5.61L82,43.85H76.4l-2.57-9.64-2.68,9.64H65.41Z" fill="#fff"/><path d="M87.35,35.43v-.26c0-5.55,4.13-9,9.34-9,4.72,0,8.78,2.71,8.78,8.92v1.55H93.33c.16,2.27,1.48,3.6,3.59,3.6,2,0,2.78-.9,3-2h5.54c-.53,3.89-3.53,6.1-8.74,6.1C91.31,44.24,87.35,41.08,87.35,35.43Zm12.38-2.18c-.1-2.08-1.12-3.23-3-3.23s-3,1.15-3.3,3.23Z" fill="#fff"/><path d="M107.52,26.59h5.9V30A5.44,5.44,0,0,1,119,26.36v5.51c-3.6-.1-5.58,1-5.58,3.79v8.19h-5.9Z" fill="#fff"/><path d="M127.15,19h5.91V29.36a6.09,6.09,0,0,1,5.67-3.24c3.34,0,5.65,2.08,5.65,6.51V43.85h-5.91v-10c0-1.95-.76-2.91-2.47-2.91s-2.94,1.06-2.94,3.27v9.67h-5.91Z" fill="#fff"/><path d="M146.32,35.43v-.26c0-5.55,4.13-9,9.47-9s9.41,3.4,9.41,8.88v.27c0,5.61-4.12,9-9.44,9S146.32,41,146.32,35.43Zm12.87-.1v-.26c0-2.9-1.15-4.52-3.4-4.52s-3.43,1.55-3.43,4.45v.27c0,3,1.16,4.58,3.43,4.58S159.19,38.21,159.19,35.33Z" fill="#fff"/><path d="M167.15,37.84V26.59h5.9V36.88c0,1.95.76,2.91,2.45,2.91s2.93-1.06,2.93-3.27V26.59h5.91V43.85h-5.91V41.18A5.66,5.66,0,0,1,173,44.24C169.62,44.24,167.15,42.2,167.15,37.84Z" fill="#fff"/><path d="M187.34,26.59h5.91V30a5.43,5.43,0,0,1,5.58-3.66v5.51c-3.6-.1-5.58,1-5.58,3.79v8.19h-5.91Z" fill="#fff"/><path d="M198.76,40.88a3.3,3.3,0,0,1,3.37-3.34,3.34,3.34,0,1,1,0,6.67A3.29,3.29,0,0,1,198.76,40.88Z" fill="#fff"/><path d="M28,68.75l-7.69-13.5h7.36l4,8,4-8h6.47l-7.33,13.5v10.1H28Z" fill="#fff"/><path d="M39.6,70.43v-.26c0-5.55,4.13-9.05,9.47-9.05s9.41,3.4,9.41,8.88v.27c0,5.61-4.12,9-9.44,9S39.6,76,39.6,70.43Zm12.87-.1v-.26c0-2.9-1.15-4.52-3.4-4.52S45.64,67.1,45.64,70v.27c0,3,1.16,4.58,3.43,4.58S52.47,73.21,52.47,70.33Z" fill="#fff"/><path d="M60.42,72.84V61.59h5.91V71.88c0,2,.76,2.91,2.45,2.91s2.93-1.06,2.93-3.27V61.59h5.91V78.85H71.71V76.18a5.66,5.66,0,0,1-5.48,3.06C62.9,79.24,60.42,77.2,60.42,72.84Z" fill="#fff"/><path d="M80.62,61.59h5.91V65a5.43,5.43,0,0,1,5.58-3.66v5.51c-3.6-.1-5.58,1-5.58,3.79v8.19H80.62Z" fill="#fff"/><path d="M101.05,73.3V65.61H99v-4h2.08V58H107v3.6h3.39v4H107v7.13c0,1.26.62,1.82,1.74,1.82a4.5,4.5,0,0,0,1.69-.3v4.49a12.35,12.35,0,0,1-3.27.49C103.23,79.24,101.05,77.36,101.05,73.3Z" fill="#fff"/><path d="M111.67,74.06c0-4.06,3.43-5.64,9.18-5.64h1.65V68c0-1.65-.4-2.74-2.28-2.74a2.12,2.12,0,0,0-2.34,2h-5.55c.27-4.16,3.53-6.21,8.25-6.21s7.79,2,7.79,6.54V78.85h-5.74v-2c-.82,1.25-2.34,2.4-5.12,2.4C114.41,79.24,111.67,77.73,111.67,74.06Zm10.83-1.25V71.75H121c-2.38,0-3.44.46-3.44,1.88,0,1,.66,1.62,2,1.62C121.24,75.25,122.5,74.29,122.5,72.81Z" fill="#fff"/><path d="M135.6,70.07l-5.38-8.48H137l2.67,4.55,2.61-4.55h6.07l-5.44,8,6,9.24h-6.8L139,73.7l-3.13,5.15h-6.05Z" fill="#fff"/><path d="M148.14,70.43v-.26c0-5.55,4.12-9.05,9.34-9.05,4.72,0,8.78,2.71,8.78,8.92v1.55H154.11c.17,2.27,1.49,3.6,3.6,3.6,1.95,0,2.77-.9,3-2h5.55c-.53,3.89-3.54,6.1-8.75,6.1C152.1,79.24,148.14,76.08,148.14,70.43Zm12.37-2.18c-.09-2.08-1.12-3.23-3-3.23s-3,1.15-3.3,3.23Z" fill="#fff"/><path d="M167.31,73.37h5.44c.2,1.25.76,1.95,2.45,1.95,1.45,0,2.11-.56,2.11-1.42s-.83-1.22-3.2-1.55c-4.62-.6-6.57-1.95-6.57-5.55,0-3.83,3.4-5.68,7.39-5.68,4.26,0,7.23,1.46,7.63,5.58h-5.35A1.93,1.93,0,0,0,175,65c-1.29,0-1.95.56-1.95,1.35s.79,1.16,2.91,1.42c4.78.59,7.09,1.85,7.09,5.54,0,4.1-3,5.94-7.82,5.94S167.44,77.2,167.31,73.37Z" fill="#fff"/><path d="M20.83,105.43v-.26c0-5.74,4.12-9,9.2-9,4.23,0,8.12,1.85,8.45,7.1H32.94c-.27-1.62-1.06-2.51-2.77-2.51-2.08,0-3.3,1.49-3.3,4.39v.27c0,3,1.15,4.55,3.39,4.55a2.88,2.88,0,0,0,3-2.87h5.31c-.16,4.36-3.1,7.19-8.68,7.19C24.75,114.24,20.83,111.24,20.83,105.43Z" fill="#fff"/><path d="M39.57,105.43v-.26c0-5.55,4.12-9,9.47-9s9.41,3.4,9.41,8.88v.27c0,5.61-4.13,9-9.44,9S39.57,111,39.57,105.43Zm12.87-.1v-.26c0-2.9-1.15-4.52-3.4-4.52s-3.43,1.55-3.43,4.45v.27c0,3,1.15,4.58,3.43,4.58S52.44,108.21,52.44,105.33Z" fill="#fff"/><path d="M60.39,107.84V96.59H66.3v10.29c0,2,.76,2.91,2.44,2.91s2.94-1.06,2.94-3.27V96.59h5.91v17.26H71.68v-2.67a5.67,5.67,0,0,1-5.48,3.06C62.87,114.24,60.39,112.2,60.39,107.84Z" fill="#fff"/><path d="M80.75,89h5.88v24.85H80.75Z" fill="#fff"/><path d="M88.94,105.4v-.26c0-5.88,3.23-9,7.32-9A5.6,5.6,0,0,1,101.58,99V89h5.9v24.85h-5.9V111a5.81,5.81,0,0,1-5.38,3.2C92.2,114.24,88.94,111.37,88.94,105.4Zm12.8-.1V105c0-2.91-1.22-4.46-3.4-4.46s-3.4,1.49-3.4,4.49v.26c0,2.91,1.29,4.39,3.34,4.39S101.74,108.24,101.74,105.3Z" fill="#fff"/><path d="M122.4,111.18v2.67h-5.91V89h5.91V99.16a6.09,6.09,0,0,1,5.38-3c4,0,7.29,3,7.29,8.95v.26c0,5.94-3.27,8.91-7.32,8.91A5.6,5.6,0,0,1,122.4,111.18Zm6.67-5.85v-.26c0-3-1.32-4.49-3.4-4.49s-3.44,1.55-3.44,4.46v.26c0,2.94,1.29,4.42,3.44,4.42S129.07,108.17,129.07,105.33Z" fill="#fff"/><path d="M136.29,105.43v-.26c0-5.55,4.13-9,9.34-9,4.72,0,8.78,2.71,8.78,8.92v1.55H142.26c.17,2.27,1.49,3.6,3.6,3.6,1.95,0,2.77-.9,3-2h5.54c-.53,3.89-3.53,6.1-8.75,6.1C140.25,114.24,136.29,111.08,136.29,105.43Zm12.38-2.18c-.1-2.08-1.13-3.23-3-3.23s-3,1.15-3.3,3.23Z" fill="#fff"/><path d="M161.6,105.4v-.26c0-5.88,3.23-9,7.33-9A5.6,5.6,0,0,1,174.24,99V89h5.91v24.85h-5.91V111a5.8,5.8,0,0,1-5.38,3.2C164.87,114.24,161.6,111.37,161.6,105.4Zm12.81-.1V105c0-2.91-1.22-4.46-3.4-4.46s-3.4,1.49-3.4,4.49v.26c0,2.91,1.28,4.39,3.33,4.39S174.41,108.24,174.41,105.3Z" fill="#fff"/><path d="M182.23,105.43v-.26c0-5.55,4.12-9,9.47-9s9.4,3.4,9.4,8.88v.27c0,5.61-4.12,9-9.43,9S182.23,111,182.23,105.43Zm12.87-.1v-.26c0-2.9-1.16-4.52-3.4-4.52s-3.43,1.55-3.43,4.45v.27c0,3,1.15,4.58,3.43,4.58S195.1,108.21,195.1,105.33Z" fill="#fff"/><path d="M203.18,96.59h5.91v2.77a6.09,6.09,0,0,1,5.68-3.24c3.33,0,5.64,2.08,5.64,6.51v11.22H214.5v-10c0-1.95-.76-2.91-2.47-2.91s-2.94,1.06-2.94,3.27v9.67h-5.91Z" fill="#fff"/><path d="M222.35,105.43v-.26c0-5.55,4.13-9,9.34-9,4.72,0,8.78,2.71,8.78,8.92v1.55H228.33c.16,2.27,1.48,3.6,3.59,3.6,2,0,2.78-.9,3-2h5.54c-.53,3.89-3.53,6.1-8.74,6.1C226.31,114.24,222.35,111.08,222.35,105.43Zm12.38-2.18c-.1-2.08-1.12-3.23-3-3.23s-3,1.15-3.3,3.23Z" fill="#fff"/><path d="M21.62,126.9a3.08,3.08,0,0,1,3.23-3.07,3.06,3.06,0,1,1,0,6.11A3.06,3.06,0,0,1,21.62,126.9Zm.29,4.69h5.91v17.26H21.91Z" fill="#fff"/><path d="M31,131.59H36.9v2.77a6.09,6.09,0,0,1,5.67-3.24c3.34,0,5.65,2.08,5.65,6.51v11.22H42.31v-10c0-1.95-.76-2.91-2.48-2.91S36.9,137,36.9,139.18v9.67H31Z" fill="#fff"/><path d="M56.1,144.06c0-4.06,3.43-5.64,9.18-5.64h1.65V138c0-1.65-.4-2.74-2.28-2.74a2.12,2.12,0,0,0-2.34,2.05H56.76c.27-4.16,3.53-6.21,8.25-6.21s7.79,1.95,7.79,6.54v11.19H67.06v-2a5.67,5.67,0,0,1-5.12,2.42C58.84,149.25,56.1,147.73,56.1,144.06Zm10.83-1.25v-1.06H65.38c-2.38,0-3.44.46-3.44,1.88,0,1,.66,1.62,2.05,1.62C65.67,145.25,66.93,144.29,66.93,142.81Z" fill="#fff"/><path d="M75.67,131.59h5.91v2.77a6.09,6.09,0,0,1,5.67-3.24c3.34,0,5.65,2.08,5.65,6.51v11.22H87v-10c0-1.95-.76-2.91-2.47-2.91s-2.94,1.06-2.94,3.27v9.67H75.67Z" fill="#fff"/><path d="M101.77,124h5.91v10.36a6.1,6.1,0,0,1,5.68-3.24c3.33,0,5.64,2.08,5.64,6.51v11.22h-5.91v-10c0-1.95-.76-2.91-2.47-2.91s-2.94,1.06-2.94,3.27v9.67h-5.91Z" fill="#fff"/><path d="M121,140.43v-.26c0-5.55,4.12-9,9.47-9s9.4,3.4,9.4,8.88v.27c0,5.61-4.12,9-9.44,9S121,146,121,140.43Zm12.87-.1v-.26c0-2.9-1.16-4.52-3.4-4.52S127,137.1,127,140v.27c0,3,1.15,4.59,3.43,4.59S133.82,143.21,133.82,140.33Z" fill="#fff"/><path d="M141.77,142.84V131.59h5.91v10.29c0,2,.76,2.91,2.44,2.91s2.94-1.06,2.94-3.27v-9.93H159v17.26h-5.9v-2.67a5.69,5.69,0,0,1-5.48,3.07C144.24,149.25,141.77,147.2,141.77,142.84Z" fill="#fff"/><path d="M162,131.59h5.91V135a5.44,5.44,0,0,1,5.58-3.66v5.51c-3.6-.1-5.58,1-5.58,3.79v8.19H162Z" fill="#fff"/><path d="M173.38,145.88a3.3,3.3,0,0,1,3.37-3.34,3.34,3.34,0,1,1,0,6.67A3.29,3.29,0,0,1,173.38,145.88Z" fill="#fff"/></g></g></svg>