<svg xmlns="http://www.w3.org/2000/svg" viewBox="0 0 728 90"><title>H21</title><g id="Layer_2" data-name="Layer 2"><g id="Rect"><rect width="728" height="90" fill="none"/></g><g id="H21"><g id="Easy_does_it._Switch_to_Block_in_as_little_as_two_clicks." data-name="Easy does it. Switch to Block in as little as two clicks."><path d="M122.26,15.25h16.18v5.17h-9.5v4h7.56v4.78h-7.56v4.26h10v5.17h-16.7Z" fill="#fff"/><path d="M140.3,33.91c0-4,3.41-5.6,9.11-5.6h1.64v-.39c0-1.64-.4-2.72-2.26-2.72a2.1,2.1,0,0,0-2.33,2H141c.26-4.12,3.5-6.15,8.19-6.15s7.72,1.93,7.72,6.48v11.1h-5.69v-2a5.62,5.62,0,0,1-5.08,2.39C143,39.05,140.3,37.55,140.3,33.91Zm10.75-1.24V31.62h-1.54c-2.36,0-3.41.46-3.41,1.87,0,1,.66,1.6,2,1.6C149.8,35.09,151.05,34.14,151.05,32.67Z" fill="#fff"/><path d="M158.58,33.22H164c.2,1.25.76,1.94,2.43,1.94,1.44,0,2.09-.56,2.09-1.41s-.82-1.21-3.18-1.54c-4.58-.59-6.51-1.93-6.51-5.5,0-3.8,3.37-5.63,7.33-5.63,4.23,0,7.17,1.44,7.57,5.53H168.4a1.91,1.91,0,0,0-2.19-1.7c-1.28,0-1.93.55-1.93,1.34s.78,1.15,2.88,1.41c4.75.59,7,1.83,7,5.5,0,4.06-3,5.89-7.76,5.89S158.71,37,158.58,33.22Z" fill="#fff"/><path d="M180.91,36.92l-6.84-15.39h6.35L184,30.67l3.27-9.14h5.6l-9.17,22.86h-5.6Z" fill="#fff"/><path d="M199.45,30.28V30c0-5.83,3.21-8.94,7.27-8.94A5.54,5.54,0,0,1,212,24V14h5.86V38.66H212V35.88a5.76,5.76,0,0,1-5.34,3.17C202.69,39.05,199.45,36.2,199.45,30.28Zm12.71-.1v-.26c0-2.88-1.22-4.42-3.38-4.42S205.41,27,205.41,30v.26c0,2.88,1.28,4.36,3.31,4.36S212.16,33.09,212.16,30.18Z" fill="#fff"/><path d="M219.92,30.31v-.26c0-5.5,4.09-9,9.4-9s9.33,3.37,9.33,8.8v.27c0,5.56-4.09,8.9-9.37,8.9S219.92,35.84,219.92,30.31Zm12.77-.1V30c0-2.88-1.15-4.49-3.37-4.49s-3.41,1.54-3.41,4.42v.27c0,2.94,1.15,4.55,3.41,4.55S232.69,33.06,232.69,30.21Z" fill="#fff"/><path d="M239.8,30.31v-.26c0-5.5,4.09-9,9.26-9,4.69,0,8.72,2.68,8.72,8.84v1.54h-12c.16,2.26,1.47,3.57,3.56,3.57,1.94,0,2.75-.89,3-2h5.51c-.53,3.86-3.51,6-8.68,6C243.73,39.05,239.8,35.91,239.8,30.31Zm12.28-2.16c-.1-2.06-1.12-3.21-3-3.21s-3,1.15-3.27,3.21Z" fill="#fff"/><path d="M258.83,33.22h5.4c.19,1.25.75,1.94,2.42,1.94,1.44,0,2.1-.56,2.1-1.41s-.82-1.21-3.18-1.54c-4.58-.59-6.52-1.93-6.52-5.5,0-3.8,3.38-5.63,7.34-5.63,4.22,0,7.17,1.44,7.56,5.53h-5.3a1.91,1.91,0,0,0-2.19-1.7c-1.28,0-1.94.55-1.94,1.34s.79,1.15,2.88,1.41c4.75.59,7,1.83,7,5.5,0,4.06-3,5.89-7.76,5.89S259,37,258.83,33.22Z" fill="#fff"/><path d="M282.18,16.88a3.05,3.05,0,0,1,3.2-3,3,3,0,1,1,0,6.06A3,3,0,0,1,282.18,16.88Zm.29,4.65h5.86V38.66h-5.86Z" fill="#fff"/><path d="M292.26,33.16V25.53H290.2v-4h2.06V18h5.86v3.56h3.38v4h-3.38V32.6a1.56,1.56,0,0,0,1.74,1.8,4.4,4.4,0,0,0,1.67-.29v4.45a12.16,12.16,0,0,1-3.24.49C294.42,39.05,292.26,37.19,292.26,33.16Z" fill="#fff"/><path d="M303.5,35.71a3.26,3.26,0,0,1,3.34-3.3,3.31,3.31,0,1,1,0,6.61A3.26,3.26,0,0,1,303.5,35.71Z" fill="#fff"/><path d="M318,31.23h6.39c.16,1.67.92,3,3.7,3,1.93,0,3-1,3-2.32s-.88-1.84-3.7-2.26c-6.61-.79-8.84-2.75-8.84-7.47,0-4.22,3.47-7.3,9.07-7.3s8.81,2.36,9.23,7.3h-6.22a2.66,2.66,0,0,0-3-2.52c-1.8,0-2.72.82-2.72,2s.72,1.9,3.64,2.29c5.92.66,9,2.19,9,7.27,0,4.29-3.41,7.79-9.43,7.79C321.54,39.05,318.2,36.3,318,31.23Z" fill="#fff"/><path d="M338,21.53h6.13l2.49,10.25,2.88-10.25h4.71l2.56,10.25,2.78-10.25h5.57l-5.44,17.13h-5.6l-2.55-9.56-2.65,9.56h-5.7Z" fill="#fff"/><path d="M366.51,16.88a3.05,3.05,0,0,1,3.2-3,3,3,0,1,1,0,6.06A3,3,0,0,1,366.51,16.88Zm.29,4.65h5.86V38.66H366.8Z" fill="#fff"/><path d="M376.59,33.16V25.53h-2.06v-4h2.06V18h5.86v3.56h3.38v4h-3.38V32.6a1.56,1.56,0,0,0,1.74,1.8,4.44,4.44,0,0,0,1.67-.29v4.45a12.16,12.16,0,0,1-3.24.49C378.75,39.05,376.59,37.19,376.59,33.16Z" fill="#fff"/><path d="M387.14,30.31v-.26c0-5.7,4.09-9,9.13-9,4.19,0,8.06,1.83,8.39,7h-5.5c-.27-1.61-1.05-2.49-2.76-2.49-2.06,0-3.27,1.47-3.27,4.35v.27c0,3,1.15,4.51,3.37,4.51a2.84,2.84,0,0,0,3-2.84h5.27c-.16,4.32-3.07,7.13-8.61,7.13C391,39.05,387.14,36.07,387.14,30.31Z" fill="#fff"/><path d="M406.66,14h5.86V24.29a6,6,0,0,1,5.63-3.21c3.31,0,5.6,2.06,5.6,6.45V38.66h-5.86V28.71c0-1.94-.76-2.89-2.46-2.89s-2.91,1.05-2.91,3.25v9.59h-5.86Z" fill="#fff"/><path d="M433.35,33.16V25.53h-2.07v-4h2.07V18h5.86v3.56h3.37v4h-3.37V32.6c0,1.25.62,1.8,1.73,1.8a4.37,4.37,0,0,0,1.67-.29v4.45a12.09,12.09,0,0,1-3.24.49C435.51,39.05,433.35,37.19,433.35,33.16Z" fill="#fff"/><path d="M443.89,30.31v-.26c0-5.5,4.1-9,9.4-9s9.33,3.37,9.33,8.8v.27c0,5.56-4.09,8.9-9.36,8.9S443.89,35.84,443.89,30.31Zm12.77-.1V30c0-2.88-1.14-4.49-3.37-4.49s-3.41,1.54-3.41,4.42v.27c0,2.94,1.15,4.55,3.41,4.55S456.66,33.06,456.66,30.21Z" fill="#fff"/><path d="M471.17,15.25h10.45c5.53,0,7.89,2.49,7.89,6.12v.13a4.81,4.81,0,0,1-4,5c2.88.5,4.68,2.23,4.68,5.47v.13c0,4.2-2.72,6.52-8.51,6.52H471.17Zm9.11,9.3c2.09,0,2.88-.72,2.88-2.39V22c0-1.61-.85-2.33-2.88-2.33h-2.56v4.85Zm.22,9.62c2.13,0,3.12-1,3.12-2.71v-.13c0-1.77-.95-2.69-3.31-2.69h-2.59v5.53Z" fill="#fff"/><path d="M492.56,14h5.83V38.66h-5.83Z" fill="#fff"/><path d="M500.61,30.31v-.26c0-5.5,4.1-9,9.4-9s9.33,3.37,9.33,8.8v.27c0,5.56-4.09,8.9-9.36,8.9S500.61,35.84,500.61,30.31Zm12.77-.1V30c0-2.88-1.14-4.49-3.37-4.49s-3.4,1.54-3.4,4.42v.27c0,2.94,1.14,4.55,3.4,4.55S513.38,33.06,513.38,30.21Z" fill="#fff"/><path d="M520.49,30.31v-.26c0-5.7,4.1-9,9.14-9,4.19,0,8,1.83,8.38,7h-5.5c-.26-1.61-1-2.49-2.75-2.49-2.06,0-3.27,1.47-3.27,4.35v.27c0,3,1.14,4.51,3.37,4.51a2.85,2.85,0,0,0,3-2.84h5.27c-.16,4.32-3.08,7.13-8.61,7.13C524.39,39.05,520.49,36.07,520.49,30.31Z" fill="#fff"/><path d="M540,14h5.86V28.31l4.62-6.78h6.09l-5.6,7.7L557,38.66h-6.55l-4.62-7.5v7.5H540Z" fill="#fff"/><path d="M121.6,51.63a3.24,3.24,0,1,1,3.21,3A3.06,3.06,0,0,1,121.6,51.63Zm.3,4.65h5.86V73.41H121.9Z" fill="#fff"/><path d="M130.91,56.28h5.86V59a6,6,0,0,1,5.63-3.21c3.31,0,5.6,2.06,5.6,6.45V73.41h-5.86V63.46c0-1.94-.76-2.89-2.46-2.89s-2.91,1-2.91,3.25v9.59h-5.86Z" fill="#fff"/><path d="M155.83,68.66c0-4,3.4-5.6,9.1-5.6h1.64v-.39c0-1.64-.39-2.72-2.26-2.72A2.1,2.1,0,0,0,162,62h-5.5c.26-4.12,3.51-6.15,8.19-6.15s7.73,1.93,7.73,6.48v11.1h-5.7v-2a5.62,5.62,0,0,1-5.08,2.39C158.55,73.8,155.83,72.3,155.83,68.66Zm10.74-1.24v-1H165c-2.36,0-3.41.46-3.41,1.87,0,1,.66,1.6,2,1.6C165.32,69.84,166.57,68.89,166.57,67.42Z" fill="#fff"/><path d="M174.1,68h5.4c.2,1.25.76,1.94,2.43,1.94,1.44,0,2.09-.56,2.09-1.41s-.81-1.21-3.17-1.54c-4.59-.59-6.52-1.93-6.52-5.5,0-3.8,3.37-5.63,7.34-5.63,4.22,0,7.17,1.44,7.56,5.53h-5.3a1.92,1.92,0,0,0-2.2-1.7c-1.28,0-1.93.55-1.93,1.34s.79,1.15,2.88,1.41c4.75.59,7,1.83,7,5.5,0,4.06-3,5.89-7.76,5.89S174.23,71.77,174.1,68Z" fill="#fff"/><path d="M197.75,48.75h5.83V73.41h-5.83Z" fill="#fff"/><path d="M206.59,51.63a3.06,3.06,0,0,1,3.21-3,3,3,0,1,1,0,6.06A3,3,0,0,1,206.59,51.63Zm.29,4.65h5.87V73.41h-5.87Z" fill="#fff"/><path d="M216.68,67.91V60.28h-2.07v-4h2.07V52.72h5.86v3.56h3.37v4h-3.37v7.07c0,1.25.62,1.8,1.73,1.8a4.37,4.37,0,0,0,1.67-.29v4.45a12.09,12.09,0,0,1-3.24.49C218.84,73.8,216.68,71.94,216.68,67.91Z" fill="#fff"/><path d="M228.92,67.91V60.28h-2.06v-4h2.06V52.72h5.87v3.56h3.37v4h-3.37v7.07c0,1.25.62,1.8,1.73,1.8a4.37,4.37,0,0,0,1.67-.29v4.45a12.16,12.16,0,0,1-3.24.49C231.09,73.8,228.92,71.94,228.92,67.91Z" fill="#fff"/><path d="M240.55,48.75h5.83V73.41h-5.83Z" fill="#fff"/><path d="M248.61,65.06V64.8c0-5.5,4.09-9,9.26-9,4.69,0,8.71,2.68,8.71,8.84v1.54h-12c.17,2.26,1.48,3.57,3.57,3.57,1.93,0,2.75-.89,3-2h5.5c-.52,3.86-3.5,6-8.67,6C252.54,73.8,248.61,70.66,248.61,65.06Zm12.28-2.16c-.1-2.06-1.12-3.21-3-3.21s-3,1.15-3.27,3.21Z" fill="#fff"/><path d="M273.59,68.66c0-4,3.41-5.6,9.11-5.6h1.63v-.39c0-1.64-.39-2.72-2.25-2.72a2.1,2.1,0,0,0-2.33,2h-5.5c.26-4.12,3.5-6.15,8.19-6.15s7.72,1.93,7.72,6.48v11.1h-5.69v-2a5.62,5.62,0,0,1-5.08,2.39C276.31,73.8,273.59,72.3,273.59,68.66Zm10.74-1.24v-1H282.8c-2.36,0-3.41.46-3.41,1.87,0,1,.65,1.6,2,1.6C283.09,69.84,284.33,68.89,284.33,67.42Z" fill="#fff"/><path d="M291.87,68h5.4c.2,1.25.75,1.94,2.42,1.94,1.45,0,2.1-.56,2.1-1.41S301,67.29,298.61,67c-4.58-.59-6.51-1.93-6.51-5.5,0-3.8,3.37-5.63,7.33-5.63,4.23,0,7.17,1.44,7.57,5.53h-5.31a1.91,1.91,0,0,0-2.19-1.7c-1.28,0-1.93.55-1.93,1.34s.78,1.15,2.88,1.41c4.75.59,7,1.83,7,5.5,0,4.06-3,5.89-7.76,5.89S292,71.77,291.87,68Z" fill="#fff"/><path d="M316.14,67.91V60.28h-2.07v-4h2.07V52.72H322v3.56h3.37v4H322v7.07c0,1.25.62,1.8,1.73,1.8a4.37,4.37,0,0,0,1.67-.29v4.45a12.09,12.09,0,0,1-3.24.49C318.3,73.8,316.14,71.94,316.14,67.91Z" fill="#fff"/><path d="M326.16,56.28h6.12l2.49,10.25,2.88-10.25h4.72l2.55,10.25,2.78-10.25h5.57l-5.44,17.13h-5.6l-2.55-9.56L337,73.41h-5.7Z" fill="#fff"/><path d="M353.11,65.06V64.8c0-5.5,4.09-9,9.4-9s9.33,3.37,9.33,8.8v.27c0,5.56-4.09,8.9-9.36,8.9S353.11,70.59,353.11,65.06Zm12.77-.1V64.7c0-2.88-1.15-4.49-3.37-4.49s-3.41,1.54-3.41,4.42v.27c0,2.94,1.15,4.55,3.41,4.55S365.88,67.81,365.88,65Z" fill="#fff"/><path d="M379,65.06V64.8c0-5.7,4.09-9,9.13-9,4.2,0,8.06,1.83,8.39,7H391c-.26-1.61-1.05-2.49-2.75-2.49-2.07,0-3.28,1.47-3.28,4.35V65c0,3,1.15,4.51,3.37,4.51a2.84,2.84,0,0,0,3-2.84h5.28C396.4,71,393.49,73.8,388,73.8,382.85,73.8,379,70.82,379,65.06Z" fill="#fff"/><path d="M398.63,48.75h5.83V73.41h-5.83Z" fill="#fff"/><path d="M407.47,51.63a3.23,3.23,0,1,1,3.21,3A3.06,3.06,0,0,1,407.47,51.63Zm.3,4.65h5.86V73.41h-5.86Z" fill="#fff"/><path d="M415.86,65.06V64.8c0-5.7,4.09-9,9.13-9,4.2,0,8.06,1.83,8.39,7h-5.5c-.27-1.61-1.05-2.49-2.76-2.49-2.06,0-3.27,1.47-3.27,4.35V65c0,3,1.15,4.51,3.37,4.51a2.84,2.84,0,0,0,3-2.84h5.27c-.16,4.32-3.07,7.13-8.61,7.13C419.75,73.8,415.86,70.82,415.86,65.06Z" fill="#fff"/><path d="M435.38,48.75h5.86V63.06l4.62-6.78H452l-5.6,7.7,6,9.43h-6.54l-4.62-7.5v7.5h-5.86Z" fill="#fff"/><path d="M452.21,68h5.4c.2,1.25.76,1.94,2.43,1.94,1.44,0,2.09-.56,2.09-1.41S461.31,67.29,459,67c-4.59-.59-6.52-1.93-6.52-5.5,0-3.8,3.37-5.63,7.33-5.63,4.23,0,7.18,1.44,7.57,5.53H462a1.91,1.91,0,0,0-2.19-1.7c-1.28,0-1.93.55-1.93,1.34s.78,1.15,2.88,1.41c4.75.59,7,1.83,7,5.5,0,4.06-3,5.89-7.76,5.89S452.34,71.77,452.21,68Z" fill="#fff"/><path d="M469.5,70.46a3.26,3.26,0,0,1,3.34-3.3,3.31,3.31,0,1,1,0,6.61A3.26,3.26,0,0,1,469.5,70.46Z" fill="#fff"/></g></g></g></svg>