<svg xmlns="http://www.w3.org/2000/svg" viewBox="0 0 300 600"><title>135</title><g id="Layer_2" data-name="Layer 2"><g id="Rect"><rect width="300" height="600" fill="none"/></g><g id="_Our_choice_for_value_support_and_modern_features._" data-name="&quot;Our choice for value, support and modern features.&quot;"><path d="M19.8,106.17h7.4l-.93,12.1H20.68Zm9.33,0h7.44l-.92,12.1H30.06Z" fill="#fff"/><path d="M39.12,122.1v-.35c0-9.6,7.22-16,16.63-16,9.6,0,16.68,6,16.68,15.8v.35c0,9.68-6.64,16.28-16.81,16.28S39.12,131.56,39.12,122.1ZM63,122v-.35c0-5.59-2.82-8.89-7.27-8.89s-7.21,3.21-7.21,8.93v.35c0,5.72,2.9,9,7.26,9S63,127.64,63,122Z" fill="#fff"/><path d="M76,129.62v-15h7.88v13.73c0,2.59,1,3.87,3.25,3.87S91,130.81,91,127.86V114.62h7.88v23H91v-3.56c-1.23,2.37-3.48,4.09-7.31,4.09C79.25,138.16,76,135.43,76,129.62Z" fill="#fff"/><path d="M103.54,114.62h7.87v4.57a7.25,7.25,0,0,1,7.44-4.88v7.35c-4.8-.13-7.44,1.36-7.44,5.06v10.91h-7.87Z" fill="#fff"/><path d="M129.8,126.41v-.35c0-7.66,5.5-12.06,12.28-12.06,5.63,0,10.83,2.46,11.27,9.46H146c-.35-2.15-1.41-3.34-3.69-3.34-2.78,0-4.4,2-4.4,5.85v.35c0,4,1.54,6.08,4.53,6.08,2.2,0,3.74-1.33,4-3.83h7.09c-.22,5.81-4.14,9.59-11.58,9.59C135,138.16,129.8,134.16,129.8,126.41Z" fill="#fff"/><path d="M156.69,104.49h7.87v13.82a8.14,8.14,0,0,1,7.57-4.31c4.45,0,7.53,2.77,7.53,8.67v15h-7.88V124.25c0-2.59-1-3.87-3.3-3.87s-3.92,1.41-3.92,4.36v12.89h-7.87Z" fill="#fff"/><path d="M182.91,126.41v-.35c0-7.39,5.5-12.06,12.63-12.06s12.54,4.53,12.54,11.84v.35c0,7.48-5.5,12-12.58,12S182.91,133.85,182.91,126.41Zm17.16-.13v-.35c0-3.88-1.54-6-4.53-6S191,122,191,125.84v.35c0,4,1.54,6.12,4.58,6.12S200.07,130.11,200.07,126.28Z" fill="#fff"/><path d="M211.33,108.37a4.35,4.35,0,1,1,4.32,4A4.12,4.12,0,0,1,211.33,108.37Zm.4,6.25h7.88v23h-7.88Z" fill="#fff"/><path d="M223.26,126.41v-.35c0-7.66,5.5-12.06,12.28-12.06,5.63,0,10.82,2.46,11.26,9.46h-7.39c-.35-2.15-1.41-3.34-3.7-3.34-2.77,0-4.4,2-4.4,5.85v.35c0,4,1.54,6.08,4.53,6.08,2.2,0,3.74-1.33,4-3.83h7.08c-.22,5.81-4.13,9.59-11.57,9.59C228.49,138.16,223.26,134.16,223.26,126.41Z" fill="#fff"/><path d="M248.91,126.41v-.35c0-7.39,5.5-12.06,12.45-12.06,6.3,0,11.71,3.61,11.71,11.88V128h-16.2c.22,3,2,4.8,4.8,4.8,2.6,0,3.7-1.19,4-2.73h7.39c-.71,5.19-4.71,8.14-11.66,8.14C254.19,138.16,248.91,133.94,248.91,126.41Zm16.5-2.9c-.13-2.78-1.49-4.32-4.05-4.32-2.37,0-4,1.54-4.4,4.32Z" fill="#fff"/><path d="M21.52,166h-2.9v-5.36h2.9v-2c0-5.72,3.56-8.45,9-8.45a13.81,13.81,0,0,1,3.61.49v5.76a7.45,7.45,0,0,0-2.16-.31,2.32,2.32,0,0,0-2.64,2.51v2H34V166H29.35v17.65H21.52Z" fill="#fff"/><path d="M35.29,172.41v-.35c0-7.39,5.5-12.06,12.63-12.06s12.54,4.53,12.54,11.84v.35c0,7.48-5.5,12-12.58,12S35.29,179.85,35.29,172.41Zm17.16-.13v-.35c0-3.88-1.54-6-4.53-6s-4.57,2.07-4.57,5.94v.35c0,4,1.54,6.12,4.57,6.12S52.45,176.11,52.45,172.28Z" fill="#fff"/><path d="M63.89,160.62h7.88v4.57a7.24,7.24,0,0,1,7.44-4.88v7.35c-4.8-.13-7.44,1.36-7.44,5.06v10.91H63.89Z" fill="#fff"/><path d="M89.41,160.62h8.41l4.79,14.83,4.71-14.83h7.53l-8.41,23H97.86Z" fill="#fff"/><path d="M115.19,177.25c0-5.41,4.58-7.52,12.24-7.52h2.2v-.53c0-2.2-.53-3.66-3-3.66a2.83,2.83,0,0,0-3.12,2.73h-7.39c.35-5.54,4.7-8.27,11-8.27s10.38,2.6,10.38,8.71v14.92h-7.65V181c-1.1,1.67-3.13,3.21-6.83,3.21C118.85,184.16,115.19,182.14,115.19,177.25Zm14.44-1.67v-1.41h-2.07c-3.17,0-4.58.62-4.58,2.51,0,1.32.88,2.15,2.73,2.15C128,178.83,129.63,177.56,129.63,175.58Z" fill="#fff"/><path d="M142.17,150.49H150v33.14h-7.83Z" fill="#fff"/><path d="M154.71,175.62v-15h7.87v13.73c0,2.59,1,3.87,3.26,3.87s3.92-1.41,3.92-4.36V160.62h7.87v23h-7.87v-3.56c-1.24,2.37-3.48,4.09-7.31,4.09C158,184.16,154.71,181.43,154.71,175.62Z" fill="#fff"/><path d="M181.06,172.41v-.35c0-7.39,5.5-12.06,12.46-12.06,6.29,0,11.7,3.61,11.7,11.88V174H189c.22,3,2,4.8,4.79,4.8,2.6,0,3.7-1.19,4-2.73h7.39c-.7,5.19-4.71,8.14-11.66,8.14C186.34,184.16,181.06,179.94,181.06,172.41Zm16.5-2.9c-.13-2.78-1.49-4.32-4-4.32-2.38,0-4,1.54-4.41,4.32Z" fill="#fff"/><path d="M206.76,187.2l3.69-11.58,7.31,2.6L211.42,189Z" fill="#fff"/><path d="M18.79,222.33h7.26c.27,1.67,1,2.59,3.26,2.59,1.94,0,2.82-.75,2.82-1.89S31,221.4,27.86,221c-6.16-.79-8.76-2.59-8.76-7.39,0-5.11,4.53-7.57,9.86-7.57,5.67,0,9.63,1.94,10.16,7.44H32c-.3-1.54-1.14-2.29-2.94-2.29s-2.6.75-2.6,1.8,1.06,1.54,3.87,1.9c6.38.79,9.46,2.46,9.46,7.39,0,5.46-4.05,7.92-10.43,7.92C22.8,230.16,19,227.43,18.79,222.33Z" fill="#fff"/><path d="M42.82,221.62v-15h7.87v13.73c0,2.59,1,3.87,3.26,3.87s3.92-1.41,3.92-4.36V206.62h7.87v23H57.87v-3.56c-1.24,2.37-3.48,4.09-7.31,4.09C46.12,230.16,42.82,227.43,42.82,221.62Z" fill="#fff"/><path d="M70.4,206.62h7.88v3.43A8.13,8.13,0,0,1,85.45,206c5.37,0,9.73,4.05,9.73,11.93v.35c0,7.92-4.36,11.88-9.77,11.88-3.48,0-6-1.63-7.13-3.92v11.09H70.4Zm16.77,11.66v-.35c0-4.05-1.76-6-4.53-6s-4.58,2.07-4.58,5.94v.35c0,3.92,1.72,5.9,4.58,5.9S87.17,222.06,87.17,218.28Z" fill="#fff"/><path d="M98.7,206.62h7.87v3.43a8.13,8.13,0,0,1,7.18-4.05c5.36,0,9.72,4.05,9.72,11.93v.35c0,7.92-4.36,11.88-9.77,11.88-3.47,0-6-1.63-7.13-3.92v11.09H98.7Zm16.76,11.66v-.35c0-4.05-1.76-6-4.53-6s-4.58,2.07-4.58,5.94v.35c0,3.92,1.72,5.9,4.58,5.9S115.46,222.06,115.46,218.28Z" fill="#fff"/><path d="M125.75,218.41v-.35c0-7.39,5.51-12.06,12.63-12.06s12.55,4.53,12.55,11.84v.35c0,7.48-5.5,12-12.59,12S125.75,225.85,125.75,218.41Zm17.17-.13v-.35c0-3.88-1.54-6-4.54-6s-4.57,2.07-4.57,5.94v.35c0,4,1.54,6.12,4.57,6.12S142.92,222.11,142.92,218.28Z" fill="#fff"/><path d="M154.35,206.62h7.88v4.57a7.24,7.24,0,0,1,7.44-4.88v7.35c-4.8-.13-7.44,1.36-7.44,5.06v10.91h-7.88Z" fill="#fff"/><path d="M174.59,222.24V212h-2.77v-5.36h2.77v-4.8h7.88v4.8H187V212h-4.53v9.51a2.1,2.1,0,0,0,2.33,2.42,5.94,5.94,0,0,0,2.25-.4v6a16.7,16.7,0,0,1-4.36.66C177.5,230.16,174.59,227.65,174.59,222.24Z" fill="#fff"/><path d="M19,269.25c0-5.41,4.58-7.52,12.24-7.52h2.2v-.53c0-2.2-.53-3.66-3-3.66a2.82,2.82,0,0,0-3.12,2.73h-7.4c.35-5.54,4.71-8.27,11-8.27s10.39,2.6,10.39,8.71v14.92H33.62V273c-1.1,1.67-3.12,3.21-6.82,3.21C22.66,276.16,19,274.14,19,269.25Zm14.44-1.67v-1.41H31.38c-3.17,0-4.58.62-4.58,2.51,0,1.32.88,2.15,2.73,2.15C31.77,270.83,33.45,269.56,33.45,267.58Z" fill="#fff"/><path d="M45.76,252.62h7.88v3.69A8.13,8.13,0,0,1,61.21,252c4.44,0,7.53,2.77,7.53,8.67v15H60.86V262.25c0-2.59-1-3.87-3.3-3.87s-3.92,1.41-3.92,4.36v12.89H45.76Z" fill="#fff"/><path d="M72.08,264.37V264c0-7.83,4.31-12,9.76-12,3.61,0,5.77,1.54,7.09,3.87V242.49h7.88v33.14H88.93v-3.74a7.75,7.75,0,0,1-7.17,4.27C76.43,276.16,72.08,272.33,72.08,264.37Zm17.07-.14v-.35c0-3.87-1.63-5.94-4.53-5.94s-4.54,2-4.54,6v.35c0,3.87,1.72,5.85,4.45,5.85S89.15,268.15,89.15,264.23Z" fill="#fff"/><path d="M110.13,252.62H118v3.52a8,8,0,0,1,7.22-4.14,6.26,6.26,0,0,1,6.25,3.83,9.11,9.11,0,0,1,7.61-3.83c4.36,0,7.53,2.82,7.53,8.58v15.05h-7.88V261.9c0-2.33-1.15-3.47-3-3.47-2.11,0-3.52,1.36-3.52,3.87v13.33h-7.79V261.9c0-2.33-1.14-3.47-3-3.47-2.11,0-3.52,1.36-3.52,3.87v13.33h-7.88Z" fill="#fff"/><path d="M149.87,264.41v-.35c0-7.39,5.5-12.06,12.63-12.06S175,256.53,175,263.84v.35c0,7.48-5.5,12-12.59,12S149.87,271.85,149.87,264.41Zm17.16-.13v-.35c0-3.88-1.54-6-4.53-6s-4.58,2.07-4.58,5.94v.35c0,4,1.54,6.12,4.58,6.12S167,268.11,167,264.28Z" fill="#fff"/><path d="M177.32,264.37V264c0-7.83,4.31-12,9.77-12,3.61,0,5.77,1.54,7.09,3.87V242.49h7.87v33.14h-7.87v-3.74a7.76,7.76,0,0,1-7.18,4.27C181.68,276.16,177.32,272.33,177.32,264.37Zm17.08-.14v-.35c0-3.87-1.63-5.94-4.54-5.94s-4.53,2-4.53,6v.35c0,3.87,1.72,5.85,4.45,5.85S194.4,268.15,194.4,264.23Z" fill="#fff"/><path d="M205.48,264.41v-.35c0-7.39,5.5-12.06,12.46-12.06,6.29,0,11.7,3.61,11.7,11.88V266H213.45c.22,3,2,4.8,4.79,4.8,2.6,0,3.7-1.19,4-2.73h7.39c-.7,5.19-4.71,8.14-11.66,8.14C210.76,276.16,205.48,271.94,205.48,264.41Zm16.5-2.9c-.13-2.78-1.49-4.32-4-4.32-2.38,0-4,1.54-4.4,4.32Z" fill="#fff"/><path d="M233,252.62h7.87v4.57a7.26,7.26,0,0,1,7.44-4.88v7.35c-4.8-.13-7.44,1.36-7.44,5.06v10.91H233Z" fill="#fff"/><path d="M251.86,252.62h7.88v3.69A8.13,8.13,0,0,1,267.3,252c4.45,0,7.53,2.77,7.53,8.67v15H267V262.25c0-2.59-1-3.87-3.3-3.87s-3.91,1.41-3.91,4.36v12.89h-7.88Z" fill="#fff"/><path d="M21.52,304h-2.9v-5.37h2.9v-2c0-5.72,3.56-8.45,9-8.45a13.81,13.81,0,0,1,3.61.49v5.76a7.45,7.45,0,0,0-2.16-.31,2.32,2.32,0,0,0-2.64,2.51v2H34V304H29.35v17.64H21.52Z" fill="#fff"/><path d="M35.29,310.41v-.35c0-7.39,5.5-12.06,12.46-12.06,6.29,0,11.7,3.61,11.7,11.88V312H43.26c.22,3,2,4.8,4.79,4.8,2.6,0,3.7-1.19,4-2.73h7.39c-.7,5.19-4.71,8.14-11.66,8.14C40.57,322.16,35.29,317.94,35.29,310.41Zm16.5-2.9c-.13-2.78-1.49-4.32-4-4.32-2.38,0-4,1.54-4.4,4.32Z" fill="#fff"/><path d="M61.74,315.25c0-5.41,4.57-7.52,12.23-7.52h2.2v-.53c0-2.2-.53-3.66-3-3.66A2.83,2.83,0,0,0,70,306.27H62.62c.35-5.54,4.7-8.27,11-8.27S84,300.6,84,306.71v14.92H76.35V319c-1.1,1.67-3.13,3.21-6.83,3.21C65.39,322.16,61.74,320.14,61.74,315.25Zm14.43-1.67v-1.41H74.1c-3.17,0-4.58.62-4.58,2.51,0,1.32.88,2.15,2.73,2.15C74.5,316.83,76.17,315.56,76.17,313.58Z" fill="#fff"/><path d="M89.41,314.24V304H86.64v-5.37h2.77v-4.8h7.88v4.8h4.53V304H97.29v9.5c0,1.67.83,2.42,2.33,2.42a5.94,5.94,0,0,0,2.25-.4v6a16.77,16.77,0,0,1-4.36.66C92.32,322.16,89.41,319.65,89.41,314.24Z" fill="#fff"/><path d="M105.29,313.62v-15h7.88v13.73c0,2.59,1,3.87,3.26,3.87s3.92-1.41,3.92-4.36V298.62h7.87v23h-7.87v-3.56c-1.24,2.37-3.48,4.09-7.31,4.09C108.6,322.16,105.29,319.43,105.29,313.62Z" fill="#fff"/><path d="M132.88,298.62h7.88v4.57a7.24,7.24,0,0,1,7.44-4.88v7.35c-4.8-.13-7.44,1.36-7.44,5.06v10.91h-7.88Z" fill="#fff"/><path d="M150.26,310.41v-.35c0-7.39,5.5-12.06,12.46-12.06,6.29,0,11.7,3.61,11.7,11.88V312H158.23c.22,3,2,4.8,4.79,4.8,2.6,0,3.7-1.19,4-2.73h7.39c-.7,5.19-4.71,8.14-11.66,8.14C155.54,322.16,150.26,317.94,150.26,310.41Zm16.5-2.9c-.13-2.78-1.49-4.32-4-4.32-2.38,0-4,1.54-4.4,4.32Z" fill="#fff"/><path d="M176.49,314.33h7.26c.26,1.67,1,2.59,3.25,2.59,1.94,0,2.82-.75,2.82-1.89s-1.1-1.63-4.27-2.07c-6.16-.79-8.76-2.59-8.76-7.39,0-5.11,4.54-7.57,9.86-7.57,5.68,0,9.64,1.94,10.17,7.44h-7.13c-.31-1.54-1.15-2.29-2.95-2.29s-2.6.75-2.6,1.8,1.06,1.54,3.87,1.9c6.39.79,9.47,2.46,9.47,7.39,0,5.46-4,7.92-10.43,7.92C180.49,322.16,176.66,319.43,176.49,314.33Z" fill="#fff"/><path d="M200.38,317.67a4.39,4.39,0,0,1,4.49-4.44,4.45,4.45,0,1,1,0,8.89A4.39,4.39,0,0,1,200.38,317.67Z" fill="#fff"/><path d="M208.3,290.17h7.39l-.92,12.1h-5.59Zm9.33,0h7.43l-.92,12.1h-5.59Z" fill="#fff"/></g><g id="_NerdWallet_on_H_R_Block_Free_Online" data-name="– NerdWallet on  H&amp;R Block Free Online"><path d="M144.15,424h7.94v1.52h-7.94Z" fill="#fff"/><path d="M158.14,416.92H161l5.42,9.31v-9.31h2.18V429.8h-2.48l-5.8-9.87v9.87h-2.18Z" fill="#fff"/><path d="M170.42,425.19V425a4.58,4.58,0,0,1,4.68-4.86c2.34,0,4.44,1.39,4.44,4.76v.63h-6.89c.07,1.78,1,2.79,2.59,2.79,1.32,0,2-.52,2.16-1.44h2.11c-.31,2-1.91,3.06-4.32,3.06A4.51,4.51,0,0,1,170.42,425.19Zm7-1.08c-.1-1.62-.93-2.34-2.28-2.34a2.42,2.42,0,0,0-2.42,2.34Z" fill="#fff"/><path d="M181.22,420.38h2.17v1.77a3.15,3.15,0,0,1,3.07-1.91v2c-1.91,0-3.07.63-3.07,2.63v4.9h-2.17Z" fill="#fff"/><path d="M187.26,425.24v-.14c0-3,1.79-4.92,4.24-4.92a3.22,3.22,0,0,1,3,1.64V416h2.18V429.8H194.5v-1.59a3.6,3.6,0,0,1-3.09,1.77C189.05,430,187.26,428.3,187.26,425.24Zm7.31-.11V425c0-2.07-.95-3.1-2.53-3.1S189.5,423,189.5,425v.15c0,2.07,1,3.06,2.45,3.06S194.57,427.24,194.57,425.13Z" fill="#fff"/><path d="M198.17,416.92h2.45l2.23,9.46,2.51-9.46h2l2.55,9.51,2.31-9.51h2.23l-3.22,12.88h-2.4l-2.54-9.38-2.61,9.38h-2.28Z" fill="#fff"/><path d="M214.61,427.19c0-2.2,2.12-3,4.82-3h1.17v-.49c0-1.26-.43-1.89-1.71-1.89a1.57,1.57,0,0,0-1.8,1.48H215c.18-2.2,1.93-3.12,4-3.12s3.76.87,3.76,3.44v6.18h-2.14v-1.15a3.27,3.27,0,0,1-2.88,1.33C216,430,214.61,429.15,214.61,427.19Zm6-.69v-.93h-1.11c-1.66,0-2.72.38-2.72,1.53,0,.79.43,1.31,1.51,1.31C219.61,428.41,220.6,427.71,220.6,426.5Z" fill="#fff"/><path d="M225.06,416h2.18V429.8h-2.18Z" fill="#fff"/><path d="M229.67,416h2.18V429.8h-2.18Z" fill="#fff"/><path d="M233.6,425.19V425a4.58,4.58,0,0,1,4.68-4.86c2.34,0,4.44,1.39,4.44,4.76v.63h-6.89c.07,1.78,1,2.79,2.59,2.79,1.32,0,2-.52,2.16-1.44h2.11c-.31,2-1.91,3.06-4.32,3.06A4.51,4.51,0,0,1,233.6,425.19Zm7-1.08c-.1-1.62-.93-2.34-2.28-2.34a2.42,2.42,0,0,0-2.42,2.34Z" fill="#fff"/><path d="M244.76,427.17V422H243.5v-1.64h1.26v-2.07h2.17v2.07H249V422h-2.07v5c0,.83.4,1.21,1.08,1.21a2.82,2.82,0,0,0,1.07-.18v1.73a4.39,4.39,0,0,1-1.48.23A2.53,2.53,0,0,1,244.76,427.17Z" fill="#fff"/><path d="M254.15,425.19V425a4.84,4.84,0,0,1,9.67-.05v.14a4.84,4.84,0,0,1-9.67.06Zm7.44,0V425c0-1.95-1-3.14-2.6-3.14s-2.61,1.17-2.61,3.12v.14c0,1.93,1,3.14,2.61,3.14S261.59,427.08,261.59,425.15Z" fill="#fff"/><path d="M265.51,420.38h2.18v1.5a3.24,3.24,0,0,1,3-1.7c1.89,0,3.22,1.1,3.22,3.7v5.92h-2.18v-5.73c0-1.42-.57-2.07-1.87-2.07a2.09,2.09,0,0,0-2.21,2.25v5.55h-2.18Z" fill="#fff"/><path d="M89.15,436.92h2.39v5.48h5.78v-5.48h2.41V449.8H97.32v-5.48H91.54v5.48H89.15Z" fill="#fff"/><path d="M111.15,447.17l2.16,2.63h-2.76l-1.08-1.32a4.64,4.64,0,0,1-3.53,1.48c-2.5,0-4.23-1.42-4.23-3.67,0-1.89,1.17-3,2.9-3.82a4.31,4.31,0,0,1-1-2.54c0-2,1.68-3.11,3.55-3.11s3.24,1.06,3.24,2.79c0,1.49-1,2.55-2.68,3.27l2.27,2.78,1.31-2.52h2Zm-2.79-.07-2.74-3.33a2.42,2.42,0,0,0-1.64,2.28,2,2,0,0,0,2.21,2.11A2.8,2.8,0,0,0,108.36,447.1Zm-1.66-5.26c1.21-.56,1.71-1.13,1.71-2.14a1.21,1.21,0,0,0-1.26-1.28,1.37,1.37,0,0,0-1.42,1.53A3.2,3.2,0,0,0,106.7,441.84Z" fill="#fff"/><path d="M115,436.92h4.32c2.83,0,4.81,1.16,4.81,3.79v.07a3.39,3.39,0,0,1-2.86,3.45l3.62,5.57h-2.59l-3.37-5.21h-1.53v5.21H115Zm4.32,6c1.61,0,2.45-.68,2.45-2.05v-.07c0-1.48-.91-2-2.45-2h-1.92v4.1Z" fill="#fff"/><path d="M130.55,436.92h4.61c2.64,0,4.21,1,4.21,3.35v.08a2.64,2.64,0,0,1-2,2.73,2.83,2.83,0,0,1,2.58,3.05v.07c0,2.39-1.58,3.6-4.41,3.6h-4.95Zm4.32,5.42c1.58,0,2.19-.57,2.19-1.89v-.07c0-1.22-.7-1.75-2.23-1.75h-1.94v3.71Zm.34,5.75c1.6,0,2.34-.72,2.34-2V446c0-1.33-.74-2-2.5-2h-2.16v4.13Z" fill="#fff"/><path d="M141.76,436h2.18V449.8h-2.18Z" fill="#fff"/><path d="M145.68,445.19V445a4.84,4.84,0,0,1,9.67-.05v.14a4.84,4.84,0,0,1-9.67.06Zm7.44,0V445c0-1.95-1-3.14-2.59-3.14s-2.61,1.17-2.61,3.12v.14c0,1.93,1,3.14,2.61,3.14S153.12,447.08,153.12,445.15Z" fill="#fff"/><path d="M156.41,445.21v-.15a4.64,4.64,0,0,1,4.76-4.88c2.08,0,4.05.94,4.3,3.53h-2.11a1.94,1.94,0,0,0-2.16-1.78c-1.49,0-2.55,1.15-2.55,3.1v.14c0,2.05,1,3.13,2.61,3.13a2.13,2.13,0,0,0,2.26-2h2c-.16,2.16-1.8,3.69-4.35,3.69A4.5,4.5,0,0,1,156.41,445.21Z" fill="#fff"/><path d="M167.12,436h2.18v8.5l3.37-4.14H175l-3.65,4.32,4,5.1h-2.52l-3.53-4.63v4.63h-2.18Z" fill="#fff"/><path d="M180.77,436.92h8v1.91h-5.58v3.84h4.39v1.85h-4.39v5.28h-2.39Z" fill="#fff"/><path d="M190,440.38h2.17v1.77a3.15,3.15,0,0,1,3.07-1.91v2c-1.91,0-3.07.63-3.07,2.63v4.9H190Z" fill="#fff"/><path d="M196.08,445.19V445a4.58,4.58,0,0,1,4.69-4.86c2.34,0,4.44,1.39,4.44,4.76v.63h-6.89c.07,1.78,1,2.79,2.59,2.79,1.31,0,2-.52,2.16-1.44h2.11c-.31,2-1.91,3.06-4.32,3.06A4.52,4.52,0,0,1,196.08,445.19Zm7-1.08c-.11-1.62-.93-2.34-2.28-2.34a2.42,2.42,0,0,0-2.42,2.34Z" fill="#fff"/><path d="M206.25,445.19V445a4.58,4.58,0,0,1,4.69-4.86c2.34,0,4.44,1.39,4.44,4.76v.63h-6.89c.07,1.78,1,2.79,2.59,2.79,1.31,0,2-.52,2.16-1.44h2.11c-.31,2-1.91,3.06-4.32,3.06A4.52,4.52,0,0,1,206.25,445.19Zm7-1.08c-.11-1.62-.93-2.34-2.28-2.34a2.42,2.42,0,0,0-2.42,2.34Z" fill="#fff"/><path d="M220.6,443.44v-.14a6.32,6.32,0,0,1,6.52-6.56,6.23,6.23,0,0,1,6.48,6.5v.15a6.5,6.5,0,1,1-13,.05Zm10.51,0v-.15c0-2.64-1.47-4.61-4-4.61s-4,1.86-4,4.63v.14c0,2.81,1.71,4.63,4.05,4.63S231.11,446.2,231.11,443.41Z" fill="#fff"/><path d="M235.45,440.38h2.18v1.5a3.24,3.24,0,0,1,3-1.7c1.89,0,3.22,1.1,3.22,3.7v5.92h-2.17v-5.73c0-1.42-.58-2.07-1.88-2.07a2.09,2.09,0,0,0-2.21,2.25v5.55h-2.18Z" fill="#fff"/><path d="M246.18,436h2.18V449.8h-2.18Z" fill="#fff"/><path d="M250.55,437.59a1.3,1.3,0,1,1,1.3,1.24A1.26,1.26,0,0,1,250.55,437.59Zm.24,2.79H253v9.42h-2.17Z" fill="#fff"/><path d="M255.34,440.38h2.18v1.5a3.24,3.24,0,0,1,3-1.7c1.89,0,3.22,1.1,3.22,3.7v5.92h-2.17v-5.73c0-1.42-.58-2.07-1.88-2.07a2.09,2.09,0,0,0-2.21,2.25v5.55h-2.18Z" fill="#fff"/><path d="M265.38,445.19V445a4.58,4.58,0,0,1,4.68-4.86c2.34,0,4.45,1.39,4.45,4.76v.63h-6.89c.07,1.78,1,2.79,2.59,2.79,1.31,0,2-.52,2.16-1.44h2.11c-.31,2-1.91,3.06-4.33,3.06A4.51,4.51,0,0,1,265.38,445.19Zm7-1.08c-.11-1.62-.94-2.34-2.29-2.34a2.42,2.42,0,0,0-2.41,2.34Z" fill="#fff"/></g></g></svg>