<svg xmlns="http://www.w3.org/2000/svg" viewBox="0 0 160 600"><title>Asset 1</title><g id="Layer_2" data-name="Layer 2"><g id="Rect"><rect width="160" height="600" fill="none"/></g><g id="More_parents_can_file_free_with_H_R_Block_Online_than_TurboTax." data-name="More parents can file free with H&amp;R Block Online than TurboTax."><path d="M21.62,101.75H27.9l3.21,9,3.22-9h6.16v16.8H35.7V108.1l-4.12,10.45H30L25.92,108.1v10.45h-4.3Z" fill="#fff"/><path d="M42.21,112.56v-.19c0-3.94,2.93-6.43,6.74-6.43s6.7,2.42,6.7,6.32v.18c0,4-2.94,6.4-6.72,6.4S42.21,116.53,42.21,112.56Zm9.16-.07v-.19c0-2.06-.82-3.22-2.42-3.22s-2.44,1.11-2.44,3.18v.18c0,2.12.82,3.27,2.44,3.27S51.37,114.54,51.37,112.49Z" fill="#fff"/><path d="M57.13,106.27h4.21v2.44a3.87,3.87,0,0,1,4-2.61V110c-2.56-.07-4,.73-4,2.71v5.82H57.13Z" fill="#fff"/><path d="M66.06,112.56v-.19c0-3.94,2.94-6.43,6.65-6.43,3.36,0,6.25,1.92,6.25,6.34v1.1H70.31A2.46,2.46,0,0,0,72.87,116c1.39,0,2-.64,2.14-1.46H79c-.38,2.77-2.51,4.35-6.23,4.35S66.06,116.58,66.06,112.56ZM74.87,111c-.07-1.48-.8-2.3-2.16-2.3a2.33,2.33,0,0,0-2.35,2.3Z" fill="#fff"/><path d="M21.25,134.77h4.2v1.83a4.34,4.34,0,0,1,3.83-2.16c2.87,0,5.2,2.16,5.2,6.36V141c0,4.23-2.33,6.35-5.22,6.35a4.06,4.06,0,0,1-3.81-2.09v5.92h-4.2Zm9,6.22v-.19c0-2.16-.94-3.19-2.42-3.19s-2.45,1.1-2.45,3.17V141c0,2.09.92,3.15,2.45,3.15S30.2,143,30.2,141Z" fill="#fff"/><path d="M35.3,143.65c0-2.89,2.44-4,6.53-4H43v-.28c0-1.18-.29-1.95-1.63-1.95a1.5,1.5,0,0,0-1.66,1.45H35.77c.19-3,2.51-4.41,5.87-4.41s5.55,1.38,5.55,4.65v8H43.1v-1.43a4,4,0,0,1-3.64,1.72C37.25,147.34,35.3,146.26,35.3,143.65Zm7.71-.9V142H41.9c-1.69,0-2.44.33-2.44,1.34,0,.71.47,1.15,1.45,1.15C42.11,144.49,43,143.81,43,142.75Z" fill="#fff"/><path d="M49.23,134.77h4.21v2.44a3.88,3.88,0,0,1,4-2.61v3.92c-2.56-.07-4,.73-4,2.71v5.82H49.23Z" fill="#fff"/><path d="M58.16,141.06v-.19c0-3.94,2.94-6.43,6.65-6.43,3.36,0,6.25,1.92,6.25,6.34v1.1H62.42A2.45,2.45,0,0,0,65,144.45c1.38,0,2-.64,2.14-1.46h3.94c-.37,2.77-2.51,4.35-6.22,4.35C61,147.34,58.16,145.08,58.16,141.06ZM67,139.51c-.08-1.48-.8-2.3-2.17-2.3a2.34,2.34,0,0,0-2.35,2.3Z" fill="#fff"/><path d="M72.52,134.77h4.21v2a4.34,4.34,0,0,1,4-2.3c2.37,0,4,1.48,4,4.62v8H80.58v-7.14c0-1.39-.54-2.07-1.76-2.07s-2.09.76-2.09,2.33v6.88H72.52Z" fill="#fff"/><path d="M87.4,143.11v-5.48H85.92v-2.86H87.4V132.2h4.2v2.57H94v2.86H91.6v5.08A1.12,1.12,0,0,0,92.85,144a3.25,3.25,0,0,0,1.2-.21V147a8.83,8.83,0,0,1-2.33.36C89,147.34,87.4,146,87.4,143.11Z" fill="#fff"/><path d="M95,143.15h3.88c.14.9.54,1.39,1.74,1.39,1,0,1.5-.4,1.5-1s-.58-.87-2.28-1.1c-3.29-.43-4.67-1.39-4.67-4,0-2.73,2.42-4,5.26-4,3,0,5.15,1,5.43,4H102a1.36,1.36,0,0,0-1.57-1.22c-.92,0-1.39.39-1.39,1s.57.82,2.07,1c3.41.42,5,1.32,5,4,0,2.91-2.16,4.23-5.57,4.23S95.06,145.88,95,143.15Z" fill="#fff"/><path d="M20.59,169.56v-.19c0-4.08,2.93-6.43,6.55-6.43,3,0,5.78,1.31,6,5.05H29.21a1.82,1.82,0,0,0-2-1.79c-1.48,0-2.35,1.06-2.35,3.13v.19c0,2.13.82,3.24,2.42,3.24a2.05,2.05,0,0,0,2.14-2h3.78c-.12,3.11-2.21,5.13-6.18,5.13C23.38,175.84,20.59,173.7,20.59,169.56Z" fill="#fff"/><path d="M34,172.15c0-2.89,2.44-4,6.53-4h1.18v-.28c0-1.18-.29-1.95-1.63-1.95a1.5,1.5,0,0,0-1.66,1.45h-4c.19-3,2.51-4.41,5.87-4.41s5.55,1.38,5.55,4.65v8H41.76v-1.43a4,4,0,0,1-3.64,1.72C35.91,175.84,34,174.76,34,172.15Zm7.71-.9v-.75H40.56c-1.69,0-2.44.33-2.44,1.34,0,.71.47,1.15,1.45,1.15C40.77,173,41.67,172.31,41.67,171.25Z" fill="#fff"/><path d="M47.89,163.27H52.1v2a4.34,4.34,0,0,1,4-2.3c2.38,0,4,1.48,4,4.62v8H56v-7.14c0-1.39-.54-2.07-1.76-2.07s-2.09.76-2.09,2.33v6.88H47.89Z" fill="#fff"/><path d="M67.12,166.13H65.57v-2.86h1.55v-1.09c0-3.05,1.9-4.51,4.81-4.51a7.51,7.51,0,0,1,1.93.26V161a4,4,0,0,0-1.15-.17,1.24,1.24,0,0,0-1.41,1.34v1.09h2.49v2.86H71.3v9.42H67.12Z" fill="#fff"/><path d="M75.11,159.93a2.19,2.19,0,0,1,2.3-2.19,2.18,2.18,0,1,1,0,4.35A2.17,2.17,0,0,1,75.11,159.93Zm.21,3.34h4.2v12.28h-4.2Z" fill="#fff"/><path d="M81.9,157.86h4.18v17.69H81.9Z" fill="#fff"/><path d="M87.68,169.56v-.19c0-3.94,2.94-6.43,6.65-6.43,3.36,0,6.25,1.92,6.25,6.34v1.1H91.93A2.46,2.46,0,0,0,94.49,173c1.39,0,2-.64,2.14-1.46h4c-.38,2.77-2.52,4.35-6.23,4.35S87.68,173.58,87.68,169.56ZM96.49,168c-.07-1.48-.8-2.3-2.16-2.3A2.33,2.33,0,0,0,92,168Z" fill="#fff"/><path d="M21.88,194.63H20.33v-2.86h1.55v-1.09c0-3.05,1.9-4.51,4.82-4.51a7.49,7.49,0,0,1,1.92.26v3.08a3.94,3.94,0,0,0-1.15-.17,1.24,1.24,0,0,0-1.41,1.34v1.09h2.49v2.86H26.06v9.42H21.88Z" fill="#fff"/><path d="M30,191.77h4.21v2.44a3.89,3.89,0,0,1,4-2.61v3.92c-2.56-.07-4,.73-4,2.71v5.82H30Z" fill="#fff"/><path d="M38.89,198.06v-.19c0-3.94,2.94-6.43,6.65-6.43,3.36,0,6.25,1.92,6.25,6.34v1.1H43.15a2.45,2.45,0,0,0,2.56,2.57c1.38,0,2-.64,2.14-1.46h3.94c-.37,2.77-2.51,4.35-6.22,4.35S38.89,202.08,38.89,198.06Zm8.82-1.55c-.07-1.48-.8-2.3-2.17-2.3a2.34,2.34,0,0,0-2.35,2.3Z" fill="#fff"/><path d="M52.59,198.06v-.19c0-3.94,2.94-6.43,6.65-6.43,3.36,0,6.25,1.92,6.25,6.34v1.1H56.85a2.45,2.45,0,0,0,2.56,2.57c1.38,0,2-.64,2.14-1.46h3.94c-.37,2.77-2.51,4.35-6.22,4.35C55.41,204.34,52.59,202.08,52.59,198.06Zm8.82-1.55c-.07-1.48-.8-2.3-2.17-2.3a2.35,2.35,0,0,0-2.35,2.3Z" fill="#fff"/><path d="M70.2,191.77h4.39l1.79,7.35,2.06-7.35h3.39l1.83,7.35,2-7.35h4l-3.9,12.28h-4l-1.83-6.86L78,204.05H73.91Z" fill="#fff"/><path d="M90.64,188.43a2.32,2.32,0,1,1,2.3,2.16A2.2,2.2,0,0,1,90.64,188.43Zm.21,3.34h4.21v12.28H90.85Z" fill="#fff"/><path d="M97.88,200.11v-5.48H96.4v-2.86h1.48V189.2h4.2v2.57h2.42v2.86h-2.42v5.08a1.12,1.12,0,0,0,1.25,1.29,3.25,3.25,0,0,0,1.2-.21V204a8.83,8.83,0,0,1-2.33.36C99.43,204.34,97.88,203,97.88,200.11Z" fill="#fff"/><path d="M106.1,186.36h4.21v7.38a4.34,4.34,0,0,1,4-2.3c2.37,0,4,1.48,4,4.62v8h-4.21v-7.14c0-1.39-.54-2.07-1.76-2.07s-2.09.76-2.09,2.33v6.88H106.1Z" fill="#fff"/><path d="M21.62,215.75h4.84v6.42H32v-6.42H36.8v16.8H32v-6.62H26.46v6.62H21.62Z" fill="#fff"/><path d="M52.92,229.12l2.8,3.43H50.24l-1-1.22a6.68,6.68,0,0,1-4.54,1.51c-3.57,0-5.9-1.88-5.9-5.08,0-2.16,1.32-3.76,3.69-4.89a5.33,5.33,0,0,1-1-2.93c0-2.87,2.44-4.4,5.4-4.4,2.68,0,5.1,1.34,5.1,3.93,0,1.83-1.08,3.17-3.36,4.15l2.12,2.59,1.22-2.4h3.66Zm-5.83-.49-2.65-3.2a2,2,0,0,0-1.13,1.81,2,2,0,0,0,2.14,2.1A2.2,2.2,0,0,0,47.09,228.63Zm-.51-6.77c1.13-.54,1.67-1.17,1.67-2A1.21,1.21,0,0,0,47,218.53,1.34,1.34,0,0,0,45.61,220,3.08,3.08,0,0,0,46.58,221.86Z" fill="#fff"/><path d="M57.25,215.75h6.58c4.39,0,6.84,1.79,6.84,5.34v.09a4.39,4.39,0,0,1-3,4.42l4,7H66.58l-3.41-6H62v6H57.25Zm6.34,7.66c1.62,0,2.42-.68,2.42-2v-.09c0-1.37-.84-1.91-2.39-1.91H62v4Z" fill="#fff"/><path d="M77.55,215.75h7.5c4,0,5.66,1.79,5.66,4.4v.09a3.46,3.46,0,0,1-2.84,3.62,3.65,3.65,0,0,1,3.36,3.92v.1c0,3-2,4.67-6.11,4.67H77.55Zm6.53,6.68c1.51,0,2.07-.52,2.07-1.72v-.09c0-1.15-.61-1.67-2.07-1.67H82.25v3.48Zm.17,6.91c1.53,0,2.23-.71,2.23-2v-.09c0-1.27-.68-1.93-2.37-1.93H82.25v4Z" fill="#fff"/><path d="M92.9,214.86h4.18v17.69H92.9Z" fill="#fff"/><path d="M98.68,226.56v-.19c0-3.94,2.93-6.43,6.74-6.43s6.7,2.42,6.7,6.32v.18c0,4-2.94,6.4-6.72,6.4S98.68,230.53,98.68,226.56Zm9.16-.07v-.19c0-2.06-.82-3.22-2.42-3.22s-2.44,1.11-2.44,3.18v.18c0,2.12.82,3.27,2.44,3.27S107.84,228.54,107.84,226.49Z" fill="#fff"/><path d="M112.94,226.56v-.19c0-4.08,2.94-6.43,6.56-6.43,3,0,5.78,1.31,6,5.05h-3.94a1.83,1.83,0,0,0-2-1.79c-1.48,0-2.35,1.06-2.35,3.13v.19c0,2.13.82,3.24,2.42,3.24a2,2,0,0,0,2.14-2h3.78c-.11,3.11-2.21,5.13-6.18,5.13C115.74,232.84,112.94,230.7,112.94,226.56Z" fill="#fff"/><path d="M127,214.86h4.2v10.27l3.32-4.86h4.37l-4,5.52,4.35,6.76h-4.7l-3.32-5.38v5.38H127Z" fill="#fff"/><path d="M20.73,252.76v-.19c0-5.12,3.85-8.55,8.88-8.55s8.91,3.22,8.91,8.43v.19c0,5.17-3.55,8.7-9,8.7S20.73,257.81,20.73,252.76Zm12.76,0v-.19c0-3-1.51-4.74-3.88-4.74s-3.85,1.71-3.85,4.77v.19c0,3,1.55,4.81,3.87,4.81S33.49,255.72,33.49,252.71Z" fill="#fff"/><path d="M40.14,248.77h4.21v2a4.32,4.32,0,0,1,4-2.3c2.37,0,4,1.48,4,4.62v8H48.2v-7.14c0-1.39-.54-2.07-1.76-2.07s-2.09.76-2.09,2.33v6.88H40.14Z" fill="#fff"/><path d="M54.57,243.36h4.18v17.69H54.57Z" fill="#fff"/><path d="M60.91,245.43a2.32,2.32,0,1,1,2.31,2.16A2.2,2.2,0,0,1,60.91,245.43Zm.21,3.34h4.21v12.28H61.12Z" fill="#fff"/><path d="M67.59,248.77h4.2v2a4.34,4.34,0,0,1,4-2.3c2.38,0,4,1.48,4,4.62v8h-4.2v-7.14c0-1.39-.54-2.07-1.77-2.07s-2.09.76-2.09,2.33v6.88h-4.2Z" fill="#fff"/><path d="M81.24,255.06v-.19c0-3.94,2.94-6.43,6.65-6.43,3.36,0,6.25,1.92,6.25,6.34v1.1H85.49a2.46,2.46,0,0,0,2.56,2.57c1.39,0,2-.64,2.14-1.46h4c-.38,2.77-2.51,4.35-6.23,4.35S81.24,259.08,81.24,255.06Zm8.81-1.55c-.07-1.48-.8-2.3-2.16-2.3a2.33,2.33,0,0,0-2.35,2.3Z" fill="#fff"/><path d="M21.81,285.61v-5.48H20.33v-2.86h1.48V274.7H26v2.57h2.42v2.86H26v5.08c0,.89.44,1.29,1.24,1.29a3.25,3.25,0,0,0,1.2-.21v3.19a8.83,8.83,0,0,1-2.33.36C23.36,289.84,21.81,288.5,21.81,285.61Z" fill="#fff"/><path d="M30,271.86h4.21v7.38a4.34,4.34,0,0,1,4-2.3c2.38,0,4,1.48,4,4.62v8H38.09v-7.14c0-1.39-.54-2.07-1.76-2.07s-2.09.76-2.09,2.33v6.88H30Z" fill="#fff"/><path d="M43.64,286.15c0-2.89,2.44-4,6.53-4h1.18v-.28c0-1.18-.28-2-1.62-2a1.51,1.51,0,0,0-1.67,1.45h-4c.19-3,2.51-4.41,5.88-4.41s5.54,1.38,5.54,4.65v8H51.44v-1.43a4,4,0,0,1-3.64,1.72C45.59,289.84,43.64,288.76,43.64,286.15Zm7.71-.9v-.75H50.24c-1.69,0-2.44.33-2.44,1.34,0,.71.47,1.15,1.46,1.15C50.46,287,51.35,286.31,51.35,285.25Z" fill="#fff"/><path d="M57.58,277.27h4.2v2a4.34,4.34,0,0,1,4-2.3c2.38,0,4,1.48,4,4.62v8h-4.2v-7.14c0-1.39-.54-2.07-1.77-2.07s-2.09.76-2.09,2.33v6.88h-4.2Z" fill="#fff"/><path d="M24.84,305H20.49v-3.72H34V305H29.68v13.08H24.84Z" fill="#fff"/><path d="M34.41,313.78v-8h4.2v7.34c0,1.38.54,2.06,1.74,2.06s2.09-.75,2.09-2.32v-7.08h4.21v12.29H42.44v-1.9a4,4,0,0,1-3.9,2.19C36.17,318.34,34.41,316.88,34.41,313.78Z" fill="#fff"/><path d="M48.79,305.76H53v2.45a3.89,3.89,0,0,1,4-2.61v3.92c-2.56-.07-4,.73-4,2.71v5.82h-4.2Z" fill="#fff"/><path d="M62.7,316.15v1.9H58.49V300.36H62.7v7.24a4.31,4.31,0,0,1,3.83-2.16c2.87,0,5.19,2.16,5.19,6.36V312c0,4.23-2.32,6.35-5.21,6.35A4,4,0,0,1,62.7,316.15ZM67.45,312v-.19c0-2.16-.94-3.19-2.42-3.19s-2.45,1.1-2.45,3.17V312c0,2.09.92,3.15,2.45,3.15S67.45,314,67.45,312Z" fill="#fff"/><path d="M72.59,312.06v-.18c0-3.95,2.94-6.44,6.75-6.44S86,307.86,86,311.76V312c0,4-2.93,6.39-6.72,6.39S72.59,316,72.59,312.06Zm9.17-.07v-.19c0-2.06-.83-3.22-2.42-3.22s-2.45,1.11-2.45,3.18V312c0,2.11.83,3.26,2.45,3.26S81.76,314,81.76,312Z" fill="#fff"/><path d="M91.11,305H86.76v-3.72H100.3V305H96v13.08H91.11Z" fill="#fff"/><path d="M99.45,314.65c0-2.89,2.45-4,6.54-4h1.17v-.28c0-1.18-.28-2-1.62-2a1.51,1.51,0,0,0-1.67,1.45h-4c.19-3,2.52-4.41,5.88-4.41s5.54,1.38,5.54,4.65v8h-4.09v-1.43a4,4,0,0,1-3.64,1.72C101.4,318.34,99.45,317.26,99.45,314.65Zm7.71-.9V313h-1.1c-1.7,0-2.45.33-2.45,1.34,0,.71.47,1.15,1.46,1.15C106.27,315.49,107.16,314.81,107.16,313.75Z" fill="#fff"/><path d="M116.49,311.8l-3.83-6h4.84l1.9,3.25,1.86-3.25h4.32l-3.87,5.71,4.25,6.58h-4.84l-2.19-3.66-2.23,3.66h-4.3Z" fill="#fff"/><path d="M126.81,315.94a2.34,2.34,0,0,1,2.39-2.37,2.37,2.37,0,1,1,0,4.74A2.34,2.34,0,0,1,126.81,315.94Z" fill="#fff"/></g></g></svg>