<svg xmlns="http://www.w3.org/2000/svg" viewBox="0 0 300 600"><title>H49</title><g id="Layer_2" data-name="Layer 2"><g id="Rect"><rect width="300" height="600" fill="none"/></g><g id="H49"><g id="To_do:_drop_off_taxes." data-name="To do:drop offtaxes."><path d="M32.91,158.23H20.42V147.56H59.3v10.67H46.81v37.6H32.91Z" fill="#fff"/><path d="M56.33,178.61v-.54c0-11.34,8.44-18.49,19.37-18.49s19.24,6.95,19.24,18.16v.54c0,11.47-8.44,18.36-19.31,18.36S56.33,190,56.33,178.61Zm26.32-.2v-.54c0-5.94-2.36-9.25-7-9.25s-7,3.17-7,9.12v.54c0,6.07,2.36,9.38,7,9.38S82.65,184.28,82.65,178.41Z" fill="#fff"/><path d="M109.72,178.55V178c0-12,6.61-18.43,15-18.43,5.53,0,8.84,2.36,10.86,5.94V145h12.09v50.83H135.57v-5.74a11.9,11.9,0,0,1-11,6.55C116.4,196.64,109.72,190.76,109.72,178.55Zm26.19-.21v-.54c0-5.94-2.5-9.11-6.95-9.11s-7,3-7,9.18v.54c0,5.94,2.64,9,6.82,9C133.21,187.39,135.91,184.35,135.91,178.34Z" fill="#fff"/><path d="M151.91,178.61v-.54c0-11.34,8.43-18.49,19.37-18.49s19.24,6.95,19.24,18.16v.54c0,11.47-8.44,18.36-19.31,18.36S151.91,190,151.91,178.61Zm26.32-.2v-.54c0-5.94-2.36-9.25-6.95-9.25s-7,3.17-7,9.12v.54c0,6.07,2.36,9.38,7,9.38S178.23,184.28,178.23,178.41Z" fill="#fff"/><path d="M194.5,170.44a6.76,6.76,0,0,1,6.88-6.81,6.82,6.82,0,1,1,0,13.63A6.73,6.73,0,0,1,194.5,170.44Zm0,19.31a6.77,6.77,0,0,1,6.88-6.82,6.83,6.83,0,1,1,0,13.64A6.77,6.77,0,0,1,194.5,189.75Z" fill="#fff"/><path d="M20.82,246.05v-.54c0-12,6.62-18.43,15-18.43,5.53,0,8.84,2.36,10.87,5.94V212.5H58.76v50.83H46.68v-5.74a11.92,11.92,0,0,1-11,6.55C27.51,264.14,20.82,258.26,20.82,246.05ZM47,245.84v-.54c0-5.94-2.49-9.11-6.95-9.11s-7,3-7,9.18v.54c0,5.94,2.63,9,6.82,9C44.31,254.89,47,251.85,47,245.84Z" fill="#fff"/><path d="M64.9,228H77v7c2.23-5.26,5.94-7.56,11.41-7.49v11.27C81,238.62,77,240.92,77,246.59v16.74H64.9Z" fill="#fff"/><path d="M90.55,246.11v-.54c0-11.34,8.44-18.49,19.37-18.49s19.24,6.95,19.24,18.16v.54c0,11.47-8.43,18.36-19.3,18.36S90.55,257.52,90.55,246.11Zm26.33-.2v-.54c0-5.94-2.37-9.25-7-9.25s-7,3.17-7,9.12v.54c0,6.07,2.37,9.38,7,9.38S116.88,251.78,116.88,245.91Z" fill="#fff"/><path d="M133.41,228H145.5v5.27a12.44,12.44,0,0,1,11-6.21c8.23,0,14.92,6.21,14.92,18.29v.54c0,12.15-6.69,18.23-15,18.23-5.33,0-9.18-2.5-10.93-6v17H133.41Zm25.72,17.89v-.54c0-6.21-2.7-9.18-6.95-9.18s-7,3.17-7,9.11v.54c0,6,2.63,9,7,9S159.13,251.72,159.13,245.91Z" fill="#fff"/><path d="M186.2,246.11v-.54c0-11.34,8.43-18.49,19.37-18.49s19.24,6.95,19.24,18.16v.54c0,11.47-8.44,18.36-19.31,18.36S186.2,257.52,186.2,246.11Zm26.32-.2v-.54c0-5.94-2.36-9.25-7-9.25s-7,3.17-7,9.12v.54c0,6.07,2.36,9.38,7,9.38S212.52,251.78,212.52,245.91Z" fill="#fff"/><path d="M230.88,236.26h-4.45V228h4.45v-2.7c0-8.77,5.4-12.89,13.77-12.89a20.47,20.47,0,0,1,5.4.67V222a10.61,10.61,0,0,0-3.24-.48c-2.7,0-3.91,1.62-3.91,3.85V228h10.26v-3.1c0-8.78,5.53-13,13.84-13a21.33,21.33,0,0,1,5.53.74v8.84a11.14,11.14,0,0,0-3.31-.47c-2.76,0-4,1.55-4,3.85V228h7.16v8.24h-7.16v27.07H253.16V236.26H242.9v27.07h-12Z" fill="#fff"/><path d="M24.2,319.49V303.76H20v-8.24H24.2v-7.36H36.28v7.36h6.95v8.24H36.28v14.58c0,2.56,1.28,3.71,3.58,3.71a9.09,9.09,0,0,0,3.44-.61v9.18a25.09,25.09,0,0,1-6.68,1C28.65,331.64,24.2,327.79,24.2,319.49Z" fill="#fff"/><path d="M45.93,321c0-8.3,7-11.54,18.77-11.54h3.37v-.81c0-3.38-.81-5.61-4.65-5.61-3.31,0-4.53,2-4.8,4.19H47.28c.54-8.51,7.22-12.69,16.88-12.69s15.93,4,15.93,13.36v22.89H68.34v-4.12c-1.68,2.56-4.79,4.93-10.46,4.93C51.53,331.64,45.93,328.53,45.93,321Zm22.14-2.57v-2.16H64.9c-4.86,0-7,.95-7,3.85,0,2,1.35,3.31,4.19,3.31C65.51,323.47,68.07,321.51,68.07,318.47Z" fill="#fff"/><path d="M94.87,312.87l-11-17.35h13.9l5.47,9.32,5.33-9.32H121l-11.13,16.41,12.21,18.9h-13.9l-6.28-10.53-6.41,10.53H83.12Z" fill="#fff"/><path d="M120.52,313.61v-.54c0-11.34,8.44-18.49,19.1-18.49,9.66,0,18,5.53,18,18.22V316H132.74c.33,4.65,3,7.35,7.35,7.35,4,0,5.68-1.82,6.15-4.18h11.34c-1.08,8-7.22,12.49-17.89,12.49C128.62,331.64,120.52,325.16,120.52,313.61Zm25.31-4.45c-.2-4.25-2.29-6.62-6.21-6.62-3.64,0-6.14,2.37-6.75,6.62Z" fill="#fff"/><path d="M159.73,319.62h11.14c.41,2.57,1.56,4,5,4,3,0,4.32-1.14,4.32-2.9s-1.69-2.5-6.55-3.17c-9.45-1.22-13.43-4-13.43-11.34,0-7.83,6.95-11.61,15.12-11.61,8.71,0,14.78,3,15.59,11.41H180c-.48-2.37-1.76-3.52-4.53-3.52s-4,1.15-4,2.77,1.62,2.37,5.94,2.91c9.79,1.21,14.51,3.78,14.51,11.34,0,8.37-6.21,12.15-16,12.15C165.88,331.64,160,327.45,159.73,319.62Z" fill="#fff"/><path d="M195.37,324.75a6.74,6.74,0,0,1,6.89-6.82,6.83,6.83,0,1,1,0,13.64A6.74,6.74,0,0,1,195.37,324.75Z" fill="#fff"/></g></g></g></svg>