<svg xmlns="http://www.w3.org/2000/svg" viewBox="0 0 160 600"><title>legal</title><g id="Layer_2" data-name="Layer 2"><g id="rect"><rect width="160" height="600" fill="none"/></g><g id="All_tax_situations_are_different._Not_everyone_gets_a_refund." data-name="All tax situations are  different.  Not everyone gets a refund."><path d="M18.31,388.89h2.38l2,6.44h-2l-.34-1.2H18.31l-.34,1.2H16.25Zm.36,4h1.41l-.7-2.47Z" fill="#fff"/><path d="M23.15,388.55h1.6v6.78h-1.6Z" fill="#fff"/><path d="M25.57,388.55h1.6v6.78h-1.6Z" fill="#fff"/><path d="M29.71,393.82v-2.1h-.57v-1.1h.57v-1h1.61v1h.93v1.1h-.93v1.94a.43.43,0,0,0,.48.5,1.3,1.3,0,0,0,.46-.08v1.22a3.12,3.12,0,0,1-.89.14A1.46,1.46,0,0,1,29.71,393.82Z" fill="#fff"/><path d="M32.52,394c0-1.1.94-1.54,2.5-1.54h.45v-.1c0-.46-.11-.75-.62-.75a.58.58,0,0,0-.64.56H32.7c.07-1.14,1-1.7,2.25-1.7s2.12.53,2.12,1.79v3.05H35.51v-.55a1.56,1.56,0,0,1-1.4.66A1.41,1.41,0,0,1,32.52,394Zm2.95-.34v-.29h-.42c-.65,0-.94.13-.94.52s.18.44.56.44A.71.71,0,0,0,35.47,393.68Z" fill="#fff"/><path d="M39,392.93l-1.46-2.31h1.85l.73,1.24.71-1.24h1.66L41,392.81l1.63,2.52H40.73l-.84-1.41L39,395.33H37.39Z" fill="#fff"/><path d="M44.17,393.83h1.49c.05.35.21.54.67.54s.57-.16.57-.39-.22-.34-.87-.43c-1.26-.16-1.79-.53-1.79-1.51s.92-1.55,2-1.55,2,.4,2.08,1.53H46.87a.52.52,0,0,0-.6-.47c-.35,0-.53.15-.53.37s.22.31.79.38c1.31.16,1.94.51,1.94,1.52s-.83,1.62-2.14,1.62S44.21,394.88,44.17,393.83Z" fill="#fff"/><path d="M48.86,389.34a.89.89,0,1,1,.89.83A.84.84,0,0,1,48.86,389.34Zm.08,1.28h1.62v4.71H48.94Z" fill="#fff"/><path d="M51.54,393.82v-2.1H51v-1.1h.56v-1h1.62v1h.92v1.1h-.92v1.94c0,.34.17.5.47.5a1.3,1.3,0,0,0,.46-.08v1.22a3.06,3.06,0,0,1-.89.14A1.46,1.46,0,0,1,51.54,393.82Z" fill="#fff"/><path d="M54.57,393.69v-3.07h1.61v2.81c0,.53.21.79.67.79s.8-.29.8-.89v-2.71h1.61v4.71H57.65v-.73a1.56,1.56,0,0,1-1.5.84A1.53,1.53,0,0,1,54.57,393.69Z" fill="#fff"/><path d="M59.72,394c0-1.1.93-1.54,2.5-1.54h.45v-.1c0-.46-.11-.75-.62-.75a.58.58,0,0,0-.64.56H59.9c.07-1.14,1-1.7,2.25-1.7s2.12.53,2.12,1.79v3.05H62.71v-.55a1.56,1.56,0,0,1-1.4.66A1.4,1.4,0,0,1,59.72,394Zm3-.34v-.29h-.42c-.65,0-.94.13-.94.52s.18.44.56.44A.71.71,0,0,0,62.67,393.68Z" fill="#fff"/><path d="M65.15,393.82v-2.1h-.56v-1.1h.56v-1h1.61v1h.93v1.1h-.93v1.94a.44.44,0,0,0,.48.5,1.3,1.3,0,0,0,.46-.08v1.22a3.12,3.12,0,0,1-.89.14A1.46,1.46,0,0,1,65.15,393.82Z" fill="#fff"/><path d="M68.18,389.34a.84.84,0,0,1,.88-.84.84.84,0,1,1,0,1.67A.83.83,0,0,1,68.18,389.34Zm.08,1.28h1.61v4.71H68.26Z" fill="#fff"/><path d="M70.39,393V393A2.42,2.42,0,0,1,73,390.49a2.39,2.39,0,0,1,2.57,2.43V393a2.58,2.58,0,0,1-5.15,0Zm3.51,0v-.08c0-.79-.31-1.23-.93-1.23s-.93.42-.93,1.22V393c0,.81.31,1.25.93,1.25S73.9,393.79,73.9,393Z" fill="#fff"/><path d="M76,390.62h1.61v.76a1.65,1.65,0,0,1,1.55-.89c.9,0,1.53.57,1.53,1.78v3.06H79.1v-2.74c0-.53-.2-.79-.67-.79s-.8.29-.8.89v2.64H76Z" fill="#fff"/><path d="M81.09,393.83h1.49c0,.35.2.54.66.54s.58-.16.58-.39-.23-.34-.87-.43c-1.26-.16-1.8-.53-1.8-1.51s.93-1.55,2-1.55,2,.4,2.08,1.53H83.79a.52.52,0,0,0-.6-.47c-.35,0-.53.15-.53.37s.21.31.79.38c1.31.16,1.94.51,1.94,1.52s-.83,1.62-2.14,1.62S81.13,394.88,81.09,393.83Z" fill="#fff"/><path d="M87.09,394c0-1.1.94-1.54,2.51-1.54h.45v-.1c0-.46-.11-.75-.62-.75a.57.57,0,0,0-.64.56H87.27c.08-1.14,1-1.7,2.26-1.7s2.12.53,2.12,1.79v3.05H90.08v-.55a1.54,1.54,0,0,1-1.39.66A1.41,1.41,0,0,1,87.09,394Zm3-.34v-.29h-.43c-.64,0-.93.13-.93.52s.18.44.56.44A.71.71,0,0,0,90.05,393.68Z" fill="#fff"/><path d="M92.34,390.62H94v.94a1.48,1.48,0,0,1,1.52-1v1.5c-1,0-1.52.28-1.52,1v2.23H92.34Z" fill="#fff"/><path d="M95.67,393V393a2.42,2.42,0,0,1,2.55-2.47,2.23,2.23,0,0,1,2.39,2.43v.43H97.3a.94.94,0,0,0,1,1c.53,0,.76-.24.82-.56h1.51c-.14,1.06-1,1.67-2.38,1.67A2.33,2.33,0,0,1,95.67,393Zm3.38-.59c0-.57-.31-.88-.83-.88a.89.89,0,0,0-.9.88Z" fill="#fff"/><path d="M103.94,393V393c0-1.6.88-2.46,2-2.46a1.53,1.53,0,0,1,1.45.8v-2.74H109v6.78h-1.61v-.77a1.59,1.59,0,0,1-1.47.88C104.83,395.44,103.94,394.65,103.94,393Zm3.49,0v-.08c0-.79-.33-1.21-.92-1.21s-.93.4-.93,1.22V393c0,.79.35,1.19.91,1.19S107.43,393.8,107.43,393Z" fill="#fff"/><path d="M109.69,389.34a.89.89,0,1,1,.89.83A.84.84,0,0,1,109.69,389.34Zm.08,1.28h1.62v4.71h-1.62Z" fill="#fff"/><path d="M112.4,391.72h-.59v-1.1h.59v-.36a1.61,1.61,0,0,1,1.84-1.72,2.88,2.88,0,0,1,.72.09v1.18a1.31,1.31,0,0,0-.43-.06.47.47,0,0,0-.53.51v.36h1.37v-.41a1.63,1.63,0,0,1,1.85-1.73,2.65,2.65,0,0,1,.74.1v1.18a1.35,1.35,0,0,0-.44-.07.48.48,0,0,0-.54.52v.41h1v1.1h-1v3.61h-1.61v-3.61H114v3.61h-1.6Z" fill="#fff"/><path d="M118,393V393a2.42,2.42,0,0,1,2.55-2.47,2.24,2.24,0,0,1,2.4,2.43v.43h-3.32a.94.94,0,0,0,1,1c.54,0,.76-.24.82-.56h1.52c-.15,1.06-1,1.67-2.39,1.67A2.33,2.33,0,0,1,118,393Zm3.38-.59c0-.57-.31-.88-.83-.88a.89.89,0,0,0-.9.88Z" fill="#fff"/><path d="M123.37,390.62H125v.94a1.49,1.49,0,0,1,1.53-1v1.5c-1,0-1.53.28-1.53,1v2.23h-1.61Z" fill="#fff"/><path d="M126.7,393V393a2.42,2.42,0,0,1,2.55-2.47,2.24,2.24,0,0,1,2.4,2.43v.43h-3.32a.94.94,0,0,0,1,1c.53,0,.76-.24.82-.56h1.52c-.15,1.06-1,1.67-2.39,1.67A2.33,2.33,0,0,1,126.7,393Zm3.38-.59c0-.57-.31-.88-.83-.88a.89.89,0,0,0-.9.88Z" fill="#fff"/><path d="M132.11,390.62h1.61v.76a1.68,1.68,0,0,1,1.55-.89c.91,0,1.54.57,1.54,1.78v3.06H135.2v-2.74c0-.53-.21-.79-.68-.79s-.8.29-.8.89v2.64h-1.61Z" fill="#fff"/><path d="M137.72,393.82v-2.1h-.57v-1.1h.57v-1h1.61v1h.93v1.1h-.93v1.94a.43.43,0,0,0,.48.5,1.34,1.34,0,0,0,.46-.08v1.22a3.18,3.18,0,0,1-.89.14A1.46,1.46,0,0,1,137.72,393.82Z" fill="#fff"/><path d="M140.72,394.52a.89.89,0,0,1,.91-.91.91.91,0,1,1,0,1.82A.89.89,0,0,1,140.72,394.52Z" fill="#fff"/><path d="M16.75,399.89h2.08l2.06,3.63v-3.63H22.5v6.44H20.72l-2.35-4v4H16.75Z" fill="#fff"/><path d="M23.15,404V404a2.42,2.42,0,0,1,2.58-2.47,2.39,2.39,0,0,1,2.57,2.43V404a2.39,2.39,0,0,1-2.57,2.45A2.37,2.37,0,0,1,23.15,404Zm3.51,0v-.08c0-.79-.31-1.23-.93-1.23s-.93.42-.93,1.22V404c0,.81.31,1.25.93,1.25S26.66,404.79,26.66,404Z" fill="#fff"/><path d="M29.08,404.82v-2.1h-.57v-1.1h.57v-1h1.61v1h.93v1.1h-.93v1.94a.43.43,0,0,0,.48.5,1.3,1.3,0,0,0,.46-.08v1.22a3.12,3.12,0,0,1-.89.14A1.46,1.46,0,0,1,29.08,404.82Z" fill="#fff"/><path d="M33.62,404V404a2.41,2.41,0,0,1,2.55-2.47,2.23,2.23,0,0,1,2.39,2.43v.43H35.25a.93.93,0,0,0,1,1c.53,0,.75-.24.82-.56h1.51c-.14,1.06-1,1.67-2.39,1.67A2.33,2.33,0,0,1,33.62,404Zm3.37-.59c0-.57-.3-.88-.82-.88a.9.9,0,0,0-.91.88Z" fill="#fff"/><path d="M38.55,401.62h1.72l1,3,1-3h1.54L42,406.33H40.28Z" fill="#fff"/><path d="M43.65,404V404a2.42,2.42,0,0,1,2.55-2.47,2.23,2.23,0,0,1,2.39,2.43v.43H45.28a.94.94,0,0,0,1,1c.53,0,.76-.24.82-.56h1.51c-.14,1.06-1,1.67-2.38,1.67A2.33,2.33,0,0,1,43.65,404Zm3.38-.59c0-.57-.31-.88-.83-.88a.89.89,0,0,0-.9.88Z" fill="#fff"/><path d="M49.15,401.62h1.61v.94a1.47,1.47,0,0,1,1.52-1v1.5c-1,0-1.52.28-1.52,1v2.23H49.15Z" fill="#fff"/><path d="M54.42,405.85l-1.88-4.23h1.74l1,2.51.9-2.51h1.54l-2.52,6.28H53.63Z" fill="#fff"/><path d="M57.6,404V404a2.43,2.43,0,0,1,2.59-2.47,2.38,2.38,0,0,1,2.56,2.43V404a2.58,2.58,0,0,1-5.15,0Zm3.51,0v-.08c0-.79-.31-1.23-.92-1.23s-.94.42-.94,1.22V404c0,.81.31,1.25.94,1.25S61.11,404.79,61.11,404Z" fill="#fff"/><path d="M63.32,401.62h1.61v.76a1.65,1.65,0,0,1,1.55-.89c.91,0,1.54.57,1.54,1.78v3.06H66.4v-2.74c0-.53-.2-.79-.67-.79s-.8.29-.8.89v2.64H63.32Z" fill="#fff"/><path d="M68.55,404V404a2.41,2.41,0,0,1,2.54-2.47,2.24,2.24,0,0,1,2.4,2.43v.43H70.18a.93.93,0,0,0,1,1c.53,0,.75-.24.82-.56h1.51c-.15,1.06-1,1.67-2.39,1.67A2.33,2.33,0,0,1,68.55,404Zm3.37-.59c0-.57-.3-.88-.83-.88a.89.89,0,0,0-.9.88Z" fill="#fff"/><path d="M75.42,406.33H77c.08.34.28.61.87.61a.89.89,0,0,0,1-1v-.72a1.66,1.66,0,0,1-1.46.86,2,2,0,0,1-2-2.26v-.07a2.07,2.07,0,0,1,2-2.27,1.53,1.53,0,0,1,1.46.8v-.67H80.5v4.31c0,1.41-.93,2.14-2.61,2.14S75.55,407.4,75.42,406.33Zm3.51-2.5v-.07c0-.65-.33-1.06-.92-1.06s-.93.42-.93,1.07v.07c0,.65.34,1.07.92,1.07S78.93,404.49,78.93,403.83Z" fill="#fff"/><path d="M81.06,404V404a2.42,2.42,0,0,1,2.55-2.47,2.24,2.24,0,0,1,2.4,2.43v.43H82.69a1,1,0,0,0,1,1c.53,0,.75-.24.81-.56H86c-.15,1.06-1,1.67-2.39,1.67A2.33,2.33,0,0,1,81.06,404Zm3.38-.59c0-.57-.31-.88-.83-.88a.89.89,0,0,0-.9.88Z" fill="#fff"/><path d="M86.78,404.82v-2.1h-.57v-1.1h.57v-1h1.61v1h.93v1.1h-.93v1.94a.43.43,0,0,0,.48.5,1.34,1.34,0,0,0,.46-.08v1.22a3.18,3.18,0,0,1-.89.14A1.46,1.46,0,0,1,86.78,404.82Z" fill="#fff"/><path d="M89.68,404.83h1.48c.06.35.21.54.67.54s.58-.16.58-.39-.23-.34-.88-.43c-1.26-.16-1.79-.53-1.79-1.51s.93-1.55,2-1.55,2,.4,2.08,1.53H92.38a.52.52,0,0,0-.6-.47c-.36,0-.54.15-.54.37s.22.31.8.38c1.3.16,1.93.51,1.93,1.52s-.83,1.62-2.13,1.62S89.71,405.88,89.68,404.83Z" fill="#fff"/><path d="M95.86,405c0-1.1.94-1.54,2.5-1.54h.45v-.1c0-.46-.1-.75-.62-.75a.58.58,0,0,0-.64.56H96c.07-1.14,1-1.7,2.25-1.7s2.13.53,2.13,1.79v3.05H98.85v-.55a1.56,1.56,0,0,1-1.4.66A1.41,1.41,0,0,1,95.86,405Zm3-.34v-.29h-.42c-.65,0-.94.13-.94.52s.18.44.56.44A.71.71,0,0,0,98.81,404.68Z" fill="#fff"/><path d="M102.83,401.62h1.62v.94a1.47,1.47,0,0,1,1.52-1v1.5c-1,0-1.52.28-1.52,1v2.23h-1.62Z" fill="#fff"/><path d="M106.25,404V404a2.42,2.42,0,0,1,2.55-2.47,2.24,2.24,0,0,1,2.4,2.43v.43h-3.32a1,1,0,0,0,1,1c.53,0,.75-.24.82-.56h1.51c-.15,1.06-1,1.67-2.39,1.67A2.33,2.33,0,0,1,106.25,404Zm3.38-.59c0-.57-.3-.88-.83-.88a.89.89,0,0,0-.9.88Z" fill="#fff"/><path d="M112,402.72h-.6v-1.1h.6v-.41a1.62,1.62,0,0,1,1.84-1.73,2.6,2.6,0,0,1,.74.1v1.18a1.35,1.35,0,0,0-.44-.07.48.48,0,0,0-.54.52v.41h1v1.1h-1v3.61H112Z" fill="#fff"/><path d="M115.06,404.69v-3.07h1.61v2.81c0,.53.21.79.66.79s.81-.29.81-.89v-2.71h1.61v4.71h-1.61v-.73a1.58,1.58,0,0,1-1.5.84A1.53,1.53,0,0,1,115.06,404.69Z" fill="#fff"/><path d="M120.56,401.62h1.62v.76a1.65,1.65,0,0,1,1.54-.89c.91,0,1.54.57,1.54,1.78v3.06h-1.61v-2.74c0-.53-.2-.79-.67-.79s-.8.29-.8.89v2.64h-1.62Z" fill="#fff"/><path d="M125.81,404V404c0-1.6.88-2.46,2-2.46a1.53,1.53,0,0,1,1.45.8v-2.74h1.61v6.78h-1.61v-.77a1.59,1.59,0,0,1-1.47.88C126.7,406.44,125.81,405.65,125.81,404Zm3.49,0v-.08c0-.79-.33-1.21-.92-1.21s-.93.4-.93,1.22V404c0,.79.35,1.19.91,1.19S129.3,404.8,129.3,404Z" fill="#fff"/><path d="M131.63,405.52a.89.89,0,0,1,.91-.91.91.91,0,1,1,0,1.82A.89.89,0,0,1,131.63,405.52Z" fill="#fff"/></g></g></svg>