<svg xmlns="http://www.w3.org/2000/svg" viewBox="0 0 160 600"><title>Asset 5</title><g id="Layer_2" data-name="Layer 2"><g id="rect"><rect width="160" height="600" fill="none"/></g><g id="Need_some_tax_relief_We_ll_get_your_maximum_refund_guaranteed" data-name="Need some tax relief? We’ll get your maximum refund, guaranteed"><path d="M21.29,108.53h4.32l4.29,7.54v-7.54h3.34V121.9h-3.7l-4.88-8.4v8.4H21.29Z" fill="#fff"/><path d="M34.59,117.13V117a5,5,0,0,1,5.29-5.12c2.68,0,5,1.53,5,5v.88H38a2,2,0,0,0,2,2c1.11,0,1.57-.51,1.7-1.16h3.15c-.3,2.21-2,3.46-5,3.46S34.59,120.33,34.59,117.13Zm7-1.23c-.05-1.18-.63-1.83-1.72-1.83A1.86,1.86,0,0,0,38,115.9Z" fill="#fff"/><path d="M45.49,117.13V117a5,5,0,0,1,5.29-5.12c2.68,0,5,1.53,5,5v.88H48.87a2,2,0,0,0,2,2c1.11,0,1.57-.51,1.71-1.16h3.14c-.3,2.21-2,3.46-5,3.46S45.49,120.33,45.49,117.13Zm7-1.23c0-1.18-.63-1.83-1.72-1.83a1.86,1.86,0,0,0-1.87,1.83Z" fill="#fff"/><path d="M56.43,117.11V117c0-3.32,1.83-5.1,4.15-5.1a3.17,3.17,0,0,1,3,1.64v-5.68h3.35V121.9H63.59v-1.59a3.29,3.29,0,0,1-3.05,1.82C58.28,122.13,56.43,120.5,56.43,117.11Zm7.26,0v-.15c0-1.65-.7-2.53-1.93-2.53s-1.93.85-1.93,2.55v.15c0,1.64.73,2.49,1.89,2.49S63.69,118.72,63.69,117.06Z" fill="#fff"/><path d="M71.39,118.8h3.08c.12.71.43,1.1,1.39,1.1s1.2-.32,1.2-.8-.47-.69-1.82-.88c-2.62-.34-3.72-1.11-3.72-3.14s1.93-3.22,4.19-3.22c2.41,0,4.1.82,4.32,3.16H77a1.09,1.09,0,0,0-1.25-1c-.73,0-1.11.31-1.11.76s.45.66,1.65.81c2.71.34,4,1,4,3.14,0,2.32-1.72,3.37-4.43,3.37S71.46,121,71.39,118.8Z" fill="#fff"/><path d="M80.92,117.13V117a5,5,0,0,1,5.37-5.12c3,0,5.34,1.92,5.34,5V117c0,3.18-2.34,5.09-5.35,5.09S80.92,120.29,80.92,117.13Zm7.3,0v-.15c0-1.65-.65-2.57-1.93-2.57s-1.94.88-1.94,2.53V117c0,1.68.65,2.6,1.94,2.6S88.22,118.71,88.22,117.08Z" fill="#fff"/><path d="M92.8,112.12h3.35v1.5a3.4,3.4,0,0,1,3.06-1.76,2.66,2.66,0,0,1,2.66,1.63,3.86,3.86,0,0,1,3.24-1.63c1.85,0,3.2,1.2,3.2,3.65v6.39H105v-5.83c0-1-.49-1.48-1.26-1.48a1.45,1.45,0,0,0-1.49,1.65v5.66H98.9v-5.83c0-1-.49-1.48-1.26-1.48a1.45,1.45,0,0,0-1.49,1.65v5.66H92.8Z" fill="#fff"/><path d="M109.4,117.13V117a5,5,0,0,1,5.3-5.12c2.67,0,5,1.53,5,5v.88h-6.88a2,2,0,0,0,2,2c1.1,0,1.57-.51,1.7-1.16h3.14c-.29,2.21-2,3.46-5,3.46S109.4,120.33,109.4,117.13Zm7-1.23c-.06-1.18-.64-1.83-1.72-1.83a1.86,1.86,0,0,0-1.87,1.83Z" fill="#fff"/><path d="M21.44,154.94v-4.36H20.26V148.3h1.18v-2h3.35v2h1.93v2.28H24.79v4c0,.71.35,1,1,1a2.37,2.37,0,0,0,.95-.17V158a7.07,7.07,0,0,1-1.85.28C22.68,158.31,21.44,157.24,21.44,154.94Z" fill="#fff"/><path d="M27.46,155.37c0-2.3,1.95-3.2,5.2-3.2h.94V152c0-.94-.23-1.55-1.29-1.55A1.2,1.2,0,0,0,31,151.56H27.84c.15-2.36,2-3.52,4.67-3.52s4.42,1.1,4.42,3.7v6.34H33.67v-1.14a3.22,3.22,0,0,1-2.9,1.37C29,158.31,27.46,157.45,27.46,155.37Zm6.14-.71v-.6h-.88c-1.35,0-1.95.26-1.95,1.07,0,.56.38.92,1.16.92A1.48,1.48,0,0,0,33.6,154.66Z" fill="#fff"/><path d="M41,153.11,38,148.3h3.85l1.52,2.58,1.48-2.58h3.44l-3.09,4.55,3.39,5.23H44.71L43,155.17l-1.78,2.91H37.76Z" fill="#fff"/><path d="M52.89,148.3h3.35v1.95a3.09,3.09,0,0,1,3.16-2.08v3.12c-2,0-3.16.58-3.16,2.16v4.63H52.89Z" fill="#fff"/><path d="M60,153.31v-.14A5,5,0,0,1,65.29,148c2.68,0,5,1.53,5,5.05V154H63.38a2,2,0,0,0,2,2c1.11,0,1.58-.51,1.71-1.16h3.14c-.3,2.21-2,3.46-5,3.46S60,156.51,60,153.31Zm7-1.23c-.05-1.18-.63-1.83-1.72-1.83a1.86,1.86,0,0,0-1.87,1.83Z" fill="#fff"/><path d="M71.52,144h3.33v14.08H71.52Z" fill="#fff"/><path d="M76.57,145.64a1.84,1.84,0,1,1,1.83,1.73A1.74,1.74,0,0,1,76.57,145.64Zm.16,2.66h3.35v9.78H76.73Z" fill="#fff"/><path d="M81.35,153.31v-.14a5,5,0,0,1,5.3-5.13c2.67,0,5,1.53,5,5.05V154H84.74a2,2,0,0,0,2,2c1.1,0,1.57-.51,1.7-1.16h3.14c-.3,2.21-2,3.46-5,3.46S81.35,156.51,81.35,153.31Zm7-1.23c-.06-1.18-.64-1.83-1.72-1.83a1.86,1.86,0,0,0-1.87,1.83Z" fill="#fff"/><path d="M93.29,150.58H92.05V148.3h1.24v-.86c0-2.43,1.51-3.59,3.83-3.59a6,6,0,0,1,1.53.2v2.46a2.85,2.85,0,0,0-.91-.14,1,1,0,0,0-1.13,1.07v.86h2v2.28h-2v7.5H93.29Z" fill="#fff"/><path d="M102.26,153.33c0-1.42,1-2.32,1.83-3.14.64-.62,1.22-1.18,1.22-1.83a1,1,0,0,0-1.14-1.13c-.8,0-1.35.62-1.48,1.65H99.44c.09-2.82,2.11-4.36,5-4.36s4.51,1.29,4.51,3.52a3.81,3.81,0,0,1-1.37,2.81c-.91.91-2,1.64-2.15,2.56v.28h-3.16Zm-.43,3.11a2,2,0,0,1,4,0,2,2,0,0,1-4,0Z" fill="#fff"/><path d="M20.26,180.89h3.87l1.73,8.34,1.79-8.34h3.41L33,189.31l1.82-8.42h3.55l-3.12,13.38h-4l-2-8.5-2.08,8.5H23.37Z" fill="#fff"/><path d="M37.93,189.5v-.15a5,5,0,0,1,5.3-5.13c2.67,0,5,1.53,5,5.05v.88H41.32a2,2,0,0,0,2,2c1.1,0,1.57-.51,1.7-1.16H48.2c-.3,2.21-2,3.46-5,3.46S37.93,192.69,37.93,189.5Zm7-1.24c-.06-1.18-.64-1.83-1.72-1.83a1.86,1.86,0,0,0-1.87,1.83Z" fill="#fff"/><path d="M48.54,185.53,50,180.65l3,1-2.56,4.62Z" fill="#fff"/><path d="M54.22,180.18h3.33v14.09H54.22Z" fill="#fff"/><path d="M59.44,180.18h3.33v14.09H59.44Z" fill="#fff"/><path d="M67.42,194.27h3.33c.15.71.58,1.27,1.8,1.27a1.85,1.85,0,0,0,2.08-2.06V192a3.45,3.45,0,0,1-3,1.8c-2.28,0-4.15-1.68-4.15-4.7v-.15c0-2.88,1.85-4.71,4.15-4.71a3.2,3.2,0,0,1,3,1.65v-1.39H78v9c0,2.92-1.92,4.46-5.42,4.46C69.22,197.9,67.68,196.49,67.42,194.27Zm7.3-5.2v-.14c0-1.34-.69-2.2-1.93-2.2s-1.93.88-1.93,2.22v.15c0,1.35.72,2.21,1.91,2.21S74.72,190.45,74.72,189.07Z" fill="#fff"/><path d="M79.15,189.5v-.15a5,5,0,0,1,5.29-5.13c2.68,0,5,1.53,5,5.05v.88H82.53a2,2,0,0,0,2,2c1.11,0,1.57-.51,1.71-1.16h3.14c-.3,2.21-2,3.46-5,3.46S79.15,192.69,79.15,189.5Zm7-1.24c0-1.18-.63-1.83-1.72-1.83a1.86,1.86,0,0,0-1.87,1.83Z" fill="#fff"/><path d="M91,191.12v-4.36H89.84v-2.28H91v-2h3.35v2H96.3v2.28H94.37v4.05a.89.89,0,0,0,1,1,2.61,2.61,0,0,0,1-.16v2.54a7.16,7.16,0,0,1-1.86.28C92.26,194.49,91,193.42,91,191.12Z" fill="#fff"/><path d="M104,193.27l-3.91-8.79h3.63l2,5.22,1.87-5.22h3.2l-5.24,13.06h-3.2Z" fill="#fff"/><path d="M110.66,189.5v-.15a5,5,0,0,1,5.36-5.13c3,0,5.34,1.93,5.34,5v.15c0,3.18-2.34,5.09-5.35,5.09S110.66,192.66,110.66,189.5Zm7.29-.06v-.15c0-1.65-.65-2.56-1.93-2.56s-1.94.88-1.94,2.52v.15c0,1.69.65,2.6,1.94,2.6S118,191.07,118,189.44Z" fill="#fff"/><path d="M122.46,190.86v-6.38h3.34v5.84c0,1.1.43,1.65,1.39,1.65s1.66-.6,1.66-1.86v-5.63h3.35v9.79h-3.35v-1.52a3.2,3.2,0,0,1-3.1,1.74C123.86,194.49,122.46,193.33,122.46,190.86Z" fill="#fff"/><path d="M133.9,184.48h3.35v2a3.07,3.07,0,0,1,3.16-2.08v3.13c-2-.06-3.16.58-3.16,2.15v4.64H133.9Z" fill="#fff"/><path d="M21,220.66h3.35v1.5a3.41,3.41,0,0,1,3.07-1.76A2.65,2.65,0,0,1,30.06,222a3.91,3.91,0,0,1,3.24-1.63c1.85,0,3.2,1.2,3.2,3.65v6.4H33.15v-5.84c0-1-.48-1.48-1.25-1.48a1.45,1.45,0,0,0-1.5,1.65v5.67H27.09v-5.84c0-1-.49-1.48-1.25-1.48a1.45,1.45,0,0,0-1.5,1.65v5.67H21Z" fill="#fff"/><path d="M37.56,227.73c0-2.3,1.95-3.19,5.2-3.19h.94v-.23c0-.93-.23-1.55-1.3-1.55a1.19,1.19,0,0,0-1.32,1.16H37.93c.15-2.36,2-3.52,4.68-3.52S47,221.51,47,224.11v6.34H43.77v-1.14a3.22,3.22,0,0,1-2.9,1.36C39.11,230.67,37.56,229.81,37.56,227.73ZM43.7,227v-.59h-.88c-1.35,0-2,.26-2,1.06,0,.56.38.92,1.16.92A1.48,1.48,0,0,0,43.7,227Z" fill="#fff"/><path d="M51.12,225.47l-3-4.81h3.85l1.52,2.59,1.48-2.59h3.44l-3.09,4.55,3.39,5.24H54.8l-1.74-2.92-1.77,2.92H47.86Z" fill="#fff"/><path d="M59.51,218a1.85,1.85,0,1,1,1.84,1.72A1.75,1.75,0,0,1,59.51,218Zm.17,2.65H63v9.79H59.68Z" fill="#fff"/><path d="M64.82,220.66h3.35v1.5a3.43,3.43,0,0,1,3.07-1.76A2.67,2.67,0,0,1,73.9,222a3.88,3.88,0,0,1,3.23-1.63c1.86,0,3.2,1.2,3.2,3.65v6.4H77v-5.84c0-1-.48-1.48-1.25-1.48a1.45,1.45,0,0,0-1.5,1.65v5.67H70.92v-5.84c0-1-.48-1.48-1.25-1.48a1.45,1.45,0,0,0-1.5,1.65v5.67H64.82Z" fill="#fff"/><path d="M81.88,227v-6.38h3.35v5.84c0,1.1.43,1.65,1.38,1.65s1.67-.6,1.67-1.86v-5.63h3.35v9.79H88.28v-1.52a3.23,3.23,0,0,1-3.11,1.74C83.28,230.67,81.88,229.51,81.88,227Z" fill="#fff"/><path d="M93.32,220.66h3.35v1.5a3.42,3.42,0,0,1,3.07-1.76A2.67,2.67,0,0,1,102.4,222a3.88,3.88,0,0,1,3.23-1.63c1.85,0,3.2,1.2,3.2,3.65v6.4h-3.35v-5.84c0-1-.48-1.48-1.25-1.48a1.45,1.45,0,0,0-1.5,1.65v5.67H99.42v-5.84c0-1-.49-1.48-1.25-1.48a1.45,1.45,0,0,0-1.5,1.65v5.67H93.32Z" fill="#fff"/><path d="M21,256.84h3.35v2a3.09,3.09,0,0,1,3.16-2.08v3.13c-2-.06-3.16.58-3.16,2.15v4.64H21Z" fill="#fff"/><path d="M28.1,261.86v-.15a5,5,0,0,1,5.29-5.13c2.68,0,5,1.54,5,5.05v.88H31.48a2,2,0,0,0,2,2c1.11,0,1.57-.5,1.71-1.16h3.14c-.3,2.21-2,3.46-5,3.46S28.1,265.06,28.1,261.86Zm7-1.24c0-1.18-.63-1.83-1.72-1.83a1.86,1.86,0,0,0-1.87,1.83Z" fill="#fff"/><path d="M40,259.13H38.79v-2.29H40V256c0-2.43,1.51-3.59,3.83-3.59a6.09,6.09,0,0,1,1.54.21v2.45a3,3,0,0,0-.92-.13A1,1,0,0,0,43.36,256v.86h2v2.29h-2v7.5H40Z" fill="#fff"/><path d="M46.39,263.22v-6.38h3.34v5.84c0,1.11.43,1.65,1.39,1.65s1.66-.6,1.66-1.85v-5.64h3.35v9.79H52.78v-1.52a3.2,3.2,0,0,1-3.1,1.74C47.79,266.85,46.39,265.69,46.39,263.22Z" fill="#fff"/><path d="M57.83,256.84h3.35v1.58a3.46,3.46,0,0,1,3.22-1.84c1.89,0,3.2,1.18,3.2,3.69v6.36H64.25v-5.69c0-1.1-.43-1.65-1.41-1.65s-1.66.6-1.66,1.86v5.48H57.83Z" fill="#fff"/><path d="M68.73,261.84v-.15c0-3.33,1.83-5.11,4.15-5.11a3.18,3.18,0,0,1,3,1.65v-5.69h3.35v14.09H75.9V265a3.3,3.3,0,0,1-3.05,1.81C70.58,266.85,68.73,265.23,68.73,261.84Zm7.26-.06v-.15c0-1.64-.69-2.52-1.93-2.52s-1.92.84-1.92,2.54v.15c0,1.65.73,2.49,1.89,2.49S76,263.45,76,261.78Z" fill="#fff"/><path d="M80.25,268.14l1.57-4.92,3.11,1.11-2.7,4.58Z" fill="#fff"/><path d="M20.45,302.81h3.33c.15.71.58,1.27,1.79,1.27A1.85,1.85,0,0,0,27.65,302v-1.49a3.43,3.43,0,0,1-3,1.79c-2.28,0-4.15-1.68-4.15-4.69v-.15c0-2.88,1.85-4.72,4.15-4.72a3.19,3.19,0,0,1,3,1.65V293H31v9c0,2.91-1.93,4.45-5.43,4.45C22.25,306.44,20.71,305,20.45,302.81Zm7.29-5.2v-.13c0-1.35-.69-2.21-1.92-2.21s-1.93.88-1.93,2.23v.15c0,1.34.71,2.2,1.91,2.2S27.74,299,27.74,297.61Z" fill="#fff"/><path d="M32.62,299.4V293H36v5.83c0,1.11.43,1.65,1.39,1.65s1.66-.6,1.66-1.85V293h3.35v9.78H39v-1.52a3.21,3.21,0,0,1-3.1,1.74C34,303,32.62,301.87,32.62,299.4Z" fill="#fff"/><path d="M43.51,300.1c0-2.3,1.94-3.2,5.2-3.2h.93v-.23c0-.93-.22-1.55-1.29-1.55A1.2,1.2,0,0,0,47,296.28H43.88c.15-2.36,2-3.52,4.68-3.52S53,293.87,53,296.47v6.34H49.72v-1.14a3.22,3.22,0,0,1-2.9,1.36C45.06,303,43.51,302.17,43.51,300.1Zm6.13-.71v-.6h-.88c-1.34,0-1.94.26-1.94,1.06,0,.57.37.92,1.16.92A1.47,1.47,0,0,0,49.64,299.39Z" fill="#fff"/><path d="M54.6,293h3.34V295a3.1,3.1,0,0,1,3.16-2.08V296c-2-.06-3.16.58-3.16,2.15v4.64H54.6Z" fill="#fff"/><path d="M61.53,300.1c0-2.3,1.95-3.2,5.2-3.2h.94v-.23c0-.93-.23-1.55-1.29-1.55a1.2,1.2,0,0,0-1.33,1.16H61.91c.15-2.36,2-3.52,4.67-3.52S71,293.87,71,296.47v6.34H67.74v-1.14a3.19,3.19,0,0,1-2.9,1.36C63.08,303,61.53,302.17,61.53,300.1Zm6.14-.71v-.6h-.88c-1.35,0-2,.26-2,1.06,0,.57.38.92,1.16.92C67,300.77,67.67,300.23,67.67,299.39Z" fill="#fff"/><path d="M72.62,293H76v1.57a3.46,3.46,0,0,1,3.22-1.84c1.89,0,3.2,1.18,3.2,3.69v6.36H79v-5.69c0-1.1-.43-1.64-1.4-1.64s-1.67.6-1.67,1.85v5.48H72.62Z" fill="#fff"/><path d="M84.46,299.67v-4.36H83.28V293h1.18v-2h3.35v2h1.92v2.28H87.81v4c0,.71.35,1,1,1a2.59,2.59,0,0,0,1-.17v2.54a6.67,6.67,0,0,1-1.85.28C85.69,303,84.46,302,84.46,299.67Z" fill="#fff"/><path d="M90.48,298v-.15a5,5,0,0,1,5.29-5.13c2.68,0,5,1.54,5,5.05v.88H93.87a2,2,0,0,0,2,2c1.11,0,1.58-.5,1.71-1.16h3.14c-.3,2.21-2,3.46-5,3.46S90.48,301.24,90.48,298Zm7-1.24c0-1.17-.63-1.83-1.72-1.83a1.87,1.87,0,0,0-1.87,1.83Z" fill="#fff"/><path d="M101.38,298v-.15a5,5,0,0,1,5.3-5.13c2.67,0,5,1.54,5,5.05v.88h-6.88a2,2,0,0,0,2,2c1.1,0,1.57-.5,1.7-1.16h3.14c-.3,2.21-2,3.46-5,3.46S101.38,301.24,101.38,298Zm7-1.24c-.06-1.17-.64-1.83-1.72-1.83a1.87,1.87,0,0,0-1.88,1.83Z" fill="#fff"/><path d="M112.32,298v-.15c0-3.33,1.84-5.11,4.15-5.11a3.19,3.19,0,0,1,3,1.65v-5.69h3.34v14.09h-3.34v-1.59a3.3,3.3,0,0,1-3,1.81C114.17,303,112.32,301.41,112.32,298Zm7.26-.06v-.15c0-1.64-.69-2.52-1.93-2.52s-1.92.84-1.92,2.54V298c0,1.65.73,2.49,1.89,2.49S119.58,299.63,119.58,298Z" fill="#fff"/><path d="M124.4,301.13a1.87,1.87,0,0,1,1.91-1.89,1.89,1.89,0,1,1,0,3.78A1.87,1.87,0,0,1,124.4,301.13Z" fill="#fff"/></g></g></svg>