<svg xmlns="http://www.w3.org/2000/svg" viewBox="0 0 111 30"><title>file_today</title><g id="Layer_2" data-name="Layer 2"><g id="Rect"><rect width="111" height="30" fill="none"/></g><g id="File_today" data-name="File today"><path d="M24.19,8.76h6.43v1.78H26.46v2.65h3.29V14.9H26.46v3.88H24.19Z" fill="#262626"/><path d="M31.5,9.35a1.16,1.16,0,1,1,1.15,1.11A1.11,1.11,0,0,1,31.5,9.35Zm.15,2.1h2v7.33h-2Z" fill="#262626"/><path d="M35.38,8.13h2V18.78h-2Z" fill="#262626"/><path d="M38.58,15.21v-.12a3.64,3.64,0,0,1,3.77-3.81A3.38,3.38,0,0,1,45.92,15v.56H40.64a1.76,1.76,0,0,0,1.82,1.92c.94,0,1.4-.41,1.53-1h1.92c-.24,1.58-1.5,2.46-3.5,2.46A3.56,3.56,0,0,1,38.58,15.21ZM44,14.32c-.07-1.1-.63-1.64-1.6-1.64a1.68,1.68,0,0,0-1.68,1.64Z" fill="#262626"/><path d="M50.24,16.61V12.89h-.93V11.45h.93V9.87h2v1.58H53.8v1.44H52.26v3.53c0,.59.3.87.81.87a1.83,1.83,0,0,0,.77-.14v1.57a3.59,3.59,0,0,1-1.23.2A2.09,2.09,0,0,1,50.24,16.61Z" fill="#262626"/><path d="M54.56,15.19v-.11a3.86,3.86,0,0,1,7.71,0v.11a3.86,3.86,0,0,1-7.71,0Zm5.65,0v-.09c0-1.41-.65-2.25-1.79-2.25s-1.79.82-1.79,2.22v.11c0,1.4.64,2.24,1.79,2.24S60.21,16.55,60.21,15.16Z" fill="#262626"/><path d="M63,15.22v-.11c0-2.41,1.39-3.83,3.23-3.83a2.45,2.45,0,0,1,2.31,1.26V8.13h2V18.78h-2V17.56a2.68,2.68,0,0,1-2.36,1.37C64.38,18.93,63,17.66,63,15.22Zm5.59-.07V15c0-1.46-.64-2.2-1.75-2.2s-1.76.77-1.76,2.23v.11c0,1.45.7,2.17,1.71,2.17S68.57,16.63,68.57,15.15Z" fill="#262626"/><path d="M71.65,16.75c0-1.71,1.57-2.36,3.81-2.36h.83V14.1c0-.87-.27-1.35-1.19-1.35a1.11,1.11,0,0,0-1.25,1H71.93c.13-1.74,1.5-2.51,3.29-2.51S78.29,12,78.29,14v4.78h-2v-.89a2.48,2.48,0,0,1-2.21,1C72.77,18.93,71.65,18.29,71.65,16.75Zm4.64-.54V15.6H75.5c-1.17,0-1.86.25-1.86,1,0,.54.32.89,1.06.89C75.6,17.52,76.29,17,76.29,16.21Z" fill="#262626"/><path d="M81.79,18l-2.92-6.59h2.19l1.78,4.4,1.64-4.4h1.94l-4,9.82h-2Z" fill="#262626"/></g></g></svg>