<svg xmlns="http://www.w3.org/2000/svg" viewBox="0 0 300 600"><title>txt2</title><g id="Layer_2" data-name="Layer 2"><g id="_300x600" data-name="300x600" style="isolation:isolate"><g id="txt2"><path d="M21.84,307.05v-25.5h12.3v25c0,6.06,1.5,9,6.72,9s6.72-2.76,6.72-9.18V281.55H60v25.32c0,12.48-7.32,18.3-19.14,18.3C28.74,325.17,21.84,319.05,21.84,307.05Z" fill="#fff"/><path d="M65.82,293.07H76.56v5c1.68-3.24,5.1-5.88,10.32-5.88,6.06,0,10.26,3.78,10.26,11.82v20.4H86.4V306.21c0-3.54-1.38-5.28-4.5-5.28s-5.34,1.92-5.34,5.94v17.58H65.82Z" fill="#fff"/><path d="M102.66,279.27h10.68v45.18H102.66Z" fill="#fff"/><path d="M117.42,309.15v-.48c0-10.08,7.5-16.44,17-16.44,8.58,0,16,4.92,16,16.2v2.82H128.28c.3,4.14,2.7,6.54,6.54,6.54,3.54,0,5-1.62,5.46-3.72h10.08c-1,7.08-6.42,11.1-15.9,11.1C124.62,325.17,117.42,319.41,117.42,309.15Zm22.5-4c-.18-3.78-2-5.88-5.52-5.88-3.24,0-5.46,2.1-6,5.88Z" fill="#fff"/><path d="M152.28,314.49h9.9c.36,2.28,1.38,3.54,4.44,3.54,2.64,0,3.84-1,3.84-2.58s-1.5-2.22-5.82-2.82c-8.4-1.08-11.94-3.54-11.94-10.08,0-7,6.18-10.32,13.44-10.32,7.74,0,13.14,2.64,13.86,10.14h-9.72c-.42-2.1-1.56-3.12-4-3.12s-3.54,1-3.54,2.46,1.44,2.1,5.28,2.58c8.7,1.08,12.9,3.36,12.9,10.08,0,7.44-5.52,10.8-14.22,10.8C157.74,325.17,152.52,321.45,152.28,314.49Z" fill="#fff"/><path d="M182.46,314.49h9.9c.36,2.28,1.38,3.54,4.44,3.54,2.64,0,3.84-1,3.84-2.58s-1.5-2.22-5.82-2.82c-8.4-1.08-11.94-3.54-11.94-10.08,0-7,6.18-10.32,13.44-10.32,7.74,0,13.14,2.64,13.86,10.14h-9.72c-.42-2.1-1.56-3.12-4-3.12s-3.54,1-3.54,2.46,1.44,2.1,5.28,2.58c8.7,1.08,12.9,3.36,12.9,10.08,0,7.44-5.52,10.8-14.22,10.8C187.92,325.17,182.7,321.45,182.46,314.49Z" fill="#fff"/><path d="M31,381.27l-12.54-28.2H30.12l6.48,16.74,6-16.74H52.86L36.06,395H25.8Z" fill="#fff"/><path d="M52.26,369.15v-.48c0-10.08,7.5-16.44,17.22-16.44s17.1,6.18,17.1,16.14v.48c0,10.2-7.5,16.32-17.16,16.32S52.26,379.29,52.26,369.15Zm23.4-.18v-.48c0-5.28-2.1-8.22-6.18-8.22s-6.24,2.82-6.24,8.1v.48c0,5.4,2.1,8.34,6.24,8.34S75.66,374.19,75.66,369Z" fill="#fff"/><path d="M90.12,373.53V353.07h10.74v18.72c0,3.54,1.38,5.28,4.44,5.28,3.24,0,5.34-1.92,5.34-5.94V353.07h10.74v31.38H110.64v-4.86c-1.68,3.24-4.74,5.58-10,5.58C94.62,385.17,90.12,381.45,90.12,373.53Z" fill="#fff"/><path d="M18.54,413.07H29.76l4.56,18.78,5.28-18.78h8.64l4.68,18.78L58,413.07h10.2l-10,31.38H48l-4.68-17.52-4.86,17.52H28Z" fill="#fff"/><path d="M68,435.75c0-7.38,6.24-10.26,16.68-10.26h3v-.72c0-3-.72-5-4.14-5a3.85,3.85,0,0,0-4.26,3.72H69.18c.48-7.56,6.42-11.28,15-11.28s14.16,3.54,14.16,11.88v20.34H87.9v-3.66c-1.5,2.28-4.26,4.38-9.3,4.38C73,445.17,68,442.41,68,435.75Zm19.68-2.28v-1.92H84.84c-4.32,0-6.24.84-6.24,3.42,0,1.8,1.2,2.94,3.72,2.94C85.38,437.91,87.66,436.17,87.66,433.47Z" fill="#fff"/><path d="M103.56,413.07H114.3v5c1.68-3.24,5.1-5.88,10.32-5.88,6.06,0,10.26,3.78,10.26,11.82v20.4H124.14V426.21c0-3.54-1.38-5.28-4.5-5.28s-5.34,1.92-5.34,5.94v17.58H103.56Z" fill="#fff"/><path d="M141.54,434.37v-14h-3.78v-7.32h3.78v-6.54h10.74v6.54h6.18v7.32h-6.18v13c0,2.28,1.14,3.3,3.18,3.3a8.18,8.18,0,0,0,3.06-.54v8.16a22.53,22.53,0,0,1-5.94.9C145.5,445.17,141.54,441.75,141.54,434.37Z" fill="#fff"/><path d="M174.9,434.37v-14h-3.78v-7.32h3.78v-6.54h10.74v6.54h6.18v7.32h-6.18v13c0,2.28,1.14,3.3,3.18,3.3a8.18,8.18,0,0,0,3.06-.54v8.16a22.53,22.53,0,0,1-5.94.9C178.86,445.17,174.9,441.75,174.9,434.37Z" fill="#fff"/><path d="M194.22,429.15v-.48c0-10.08,7.5-16.44,17.22-16.44s17.1,6.18,17.1,16.14v.48c0,10.2-7.5,16.32-17.16,16.32S194.22,439.29,194.22,429.15Zm23.4-.18v-.48c0-5.28-2.1-8.22-6.18-8.22s-6.24,2.82-6.24,8.1v.48c0,5.4,2.1,8.34,6.24,8.34S217.62,434.19,217.62,429Z" fill="#fff"/><path d="M230.58,439.05A6,6,0,0,1,236.7,433a6.06,6.06,0,1,1,0,12.12A6,6,0,0,1,230.58,439.05Z" fill="#fff"/><rect width="300" height="600" fill="none"/></g></g></g></svg>