<svg xmlns="http://www.w3.org/2000/svg" viewBox="0 0 300 250"><title>300x250</title><g id="Layer_2" data-name="Layer 2"><g id="Paying_too_much_for_tax_prep_Try_Block." data-name="Paying too much for tax prep? Try Block."><path d="M21.45,18.8h5.71c4.11,0,6,1.83,6,5v.08c0,3.15-2.13,4.85-5.84,4.85H25.73v5.06H21.45Zm5.52,7c1.39,0,2.12-.65,2.12-1.89v-.08c0-1.28-.75-1.81-2.1-1.81H25.73v3.78Z" fill="#14aa40"/><path d="M33.48,30.77c0-2.58,2.19-3.59,5.84-3.59h1v-.25c0-1.05-.25-1.75-1.45-1.75a1.35,1.35,0,0,0-1.49,1.31H33.9c.17-2.65,2.25-3.95,5.25-3.95s5,1.24,5,4.16v7.11H40.45V32.53a3.59,3.59,0,0,1-3.25,1.53C35.22,34.06,33.48,33.1,33.48,30.77Zm6.89-.8V29.3h-1c-1.51,0-2.18.29-2.18,1.2,0,.63.42,1,1.3,1C39.57,31.52,40.37,30.92,40.37,30Z" fill="#14aa40"/><path d="M49,32.7l-4.39-9.87h4.08L51,28.69l2.1-5.86h3.59L50.76,37.49H47.17Z" fill="#14aa40"/><path d="M57.53,19.85a2,2,0,0,1,2-2,1.94,1.94,0,1,1,0,3.88A1.94,1.94,0,0,1,57.53,19.85Zm.19,3h3.75v11H57.72Z" fill="#14aa40"/><path d="M63.49,22.83h3.76V24.6a3.86,3.86,0,0,1,3.61-2.06c2.12,0,3.59,1.32,3.59,4.13v7.14H70.69V27.43c0-1.24-.48-1.85-1.57-1.85s-1.87.67-1.87,2.08v6.15H63.49Z" fill="#14aa40"/><path d="M75.67,33.81h3.74c.17.8.65,1.43,2,1.43a2.07,2.07,0,0,0,2.33-2.31V31.25a3.84,3.84,0,0,1-3.4,2c-2.56,0-4.66-1.89-4.66-5.27v-.17c0-3.23,2.08-5.29,4.66-5.29a3.55,3.55,0,0,1,3.4,1.85V22.83h3.76V32.89c0,3.27-2.16,5-6.09,5C77.69,37.89,76,36.31,75.67,33.81ZM83.86,28v-.15c0-1.51-.78-2.48-2.16-2.48s-2.17,1-2.17,2.5V28c0,1.51.8,2.48,2.15,2.48S83.86,29.53,83.86,28Z" fill="#14aa40"/><path d="M93.75,30.29v-4.9H92.43V22.83h1.32V20.54h3.76v2.29h2.16v2.56H97.51v4.54c0,.8.4,1.15,1.11,1.15a2.76,2.76,0,0,0,1.07-.19v2.86a7.69,7.69,0,0,1-2.08.31C95.14,34.06,93.75,32.87,93.75,30.29Z" fill="#14aa40"/><path d="M100.51,28.46v-.17c0-3.53,2.63-5.75,6-5.75s6,2.16,6,5.65v.16c0,3.57-2.62,5.71-6,5.71S100.51,32,100.51,28.46Zm8.19-.06v-.17c0-1.85-.73-2.88-2.16-2.88s-2.18,1-2.18,2.84v.16c0,1.89.73,2.92,2.18,2.92S108.7,30.22,108.7,28.4Z" fill="#14aa40"/><path d="M113.26,28.46v-.17c0-3.53,2.62-5.75,6-5.75s6,2.16,6,5.65v.16c0,3.57-2.62,5.71-6,5.71S113.26,32,113.26,28.46Zm8.19-.06v-.17c0-1.85-.74-2.88-2.16-2.88s-2.19,1-2.19,2.84v.16c0,1.89.74,2.92,2.19,2.92S121.45,30.22,121.45,28.4Z" fill="#14aa40"/><path d="M21.11,44.83h3.76v1.68a3.83,3.83,0,0,1,3.44-2,3,3,0,0,1,3,1.82,4.33,4.33,0,0,1,3.63-1.82c2.08,0,3.59,1.34,3.59,4.09v7.18H34.76V49.26c0-1.11-.55-1.66-1.41-1.66a1.63,1.63,0,0,0-1.68,1.85v6.36H28V49.26c0-1.11-.55-1.66-1.41-1.66a1.63,1.63,0,0,0-1.68,1.85v6.36H21.11Z" fill="#14aa40"/><path d="M40.26,52V44.83H44v6.55c0,1.24.49,1.85,1.56,1.85s1.87-.67,1.87-2.08V44.83H51.2v11H47.45v-1.7a3.6,3.6,0,0,1-3.49,2C41.84,56.06,40.26,54.76,40.26,52Z" fill="#14aa40"/><path d="M52.53,50.46v-.17a5.52,5.52,0,0,1,5.86-5.75c2.68,0,5.16,1.17,5.37,4.51H60.23a1.61,1.61,0,0,0-1.76-1.59c-1.32,0-2.1.94-2.1,2.79v.17c0,1.91.74,2.89,2.16,2.89a1.82,1.82,0,0,0,1.91-1.82h3.38c-.1,2.77-2,4.57-5.52,4.57C55,56.06,52.53,54.15,52.53,50.46Z" fill="#14aa40"/><path d="M65,40H68.8v6.6a3.87,3.87,0,0,1,3.61-2.06c2.12,0,3.59,1.32,3.59,4.13v7.14H72.25V49.43c0-1.24-.49-1.85-1.58-1.85s-1.87.67-1.87,2.08v6.15H65Z" fill="#14aa40"/><path d="M82.22,47.39H80.84V44.83h1.38v-1c0-2.73,1.7-4,4.31-4a6.54,6.54,0,0,1,1.72.24v2.75a3.3,3.3,0,0,0-1-.15A1.1,1.1,0,0,0,86,43.87v1h2.22v2.56H86v8.42H82.22Z" fill="#14aa40"/><path d="M88.48,50.46v-.17c0-3.53,2.62-5.75,6-5.75s6,2.16,6,5.65v.16c0,3.57-2.62,5.71-6,5.71S88.48,54,88.48,50.46Zm8.19-.06v-.17c0-1.85-.74-2.88-2.16-2.88s-2.19,1-2.19,2.84v.16c0,1.89.74,2.92,2.19,2.92S96.67,52.22,96.67,50.4Z" fill="#14aa40"/><path d="M101.81,44.83h3.76V47a3.45,3.45,0,0,1,3.55-2.33v3.5c-2.29-.06-3.55.65-3.55,2.42v5.2h-3.76Z" fill="#14aa40"/><path d="M21.62,74.29v-4.9H20.29V66.83h1.33V64.54h3.76v2.29h2.16v2.56H25.38v4.54c0,.8.39,1.15,1.11,1.15a2.8,2.8,0,0,0,1.07-.19v2.86a7.76,7.76,0,0,1-2.08.31C23,78.06,21.62,76.87,21.62,74.29Z" fill="#14aa40"/><path d="M28.38,74.77c0-2.58,2.18-3.59,5.84-3.59h1.05v-.25c0-1.05-.26-1.75-1.45-1.75a1.35,1.35,0,0,0-1.49,1.31H28.8c.17-2.65,2.25-3.95,5.25-3.95s5,1.24,5,4.16v7.11H35.35V76.53a3.6,3.6,0,0,1-3.25,1.53C30.12,78.06,28.38,77.1,28.38,74.77Zm6.89-.8V73.3h-1c-1.51,0-2.18.29-2.18,1.2,0,.63.42,1,1.3,1C34.47,75.52,35.27,74.92,35.27,74Z" fill="#14aa40"/><path d="M43.6,72.23l-3.42-5.4h4.33l1.7,2.9,1.66-2.9h3.86l-3.47,5.1,3.8,5.88H47.74l-2-3.27-2,3.27H40Z" fill="#14aa40"/><path d="M56.94,66.83H60.7v1.64a3.87,3.87,0,0,1,3.42-1.93c2.56,0,4.64,1.93,4.64,5.69v.17c0,3.78-2.08,5.66-4.66,5.66a3.61,3.61,0,0,1-3.4-1.86v5.29H56.94Zm8,5.57v-.17c0-1.93-.84-2.86-2.17-2.86s-2.18,1-2.18,2.84v.17c0,1.86.82,2.81,2.18,2.81S64.94,74.2,64.94,72.4Z" fill="#14aa40"/><path d="M70.13,66.83h3.75V69a3.45,3.45,0,0,1,3.55-2.33v3.5c-2.29-.06-3.55.65-3.55,2.42v5.2H70.13Z" fill="#14aa40"/><path d="M78.11,72.46v-.17a5.61,5.61,0,0,1,5.94-5.75c3,0,5.58,1.72,5.58,5.67v1H81.91a2.19,2.19,0,0,0,2.28,2.29c1.24,0,1.77-.56,1.92-1.3h3.52c-.33,2.48-2.24,3.88-5.56,3.88S78.11,76.05,78.11,72.46ZM86,71.07c-.06-1.32-.71-2-1.93-2a2.08,2.08,0,0,0-2.1,2Z" fill="#14aa40"/><path d="M90.94,66.83h3.75v1.64a3.89,3.89,0,0,1,3.43-1.93c2.56,0,4.64,1.93,4.64,5.69v.17c0,3.78-2.08,5.66-4.66,5.66a3.64,3.64,0,0,1-3.41-1.86v5.29H90.94Zm8,5.57v-.17c0-1.93-.84-2.86-2.17-2.86s-2.18,1-2.18,2.84v.17c0,1.86.82,2.81,2.18,2.81S98.94,74.2,98.94,72.4Z" fill="#14aa40"/><path d="M106,72.48c0-1.6,1.09-2.6,2-3.53.72-.69,1.37-1.32,1.37-2a1.12,1.12,0,0,0-1.28-1.26c-.91,0-1.51.69-1.66,1.84h-3.66c.11-3.17,2.38-4.89,5.61-4.89s5.06,1.45,5.06,4A4.27,4.27,0,0,1,112,69.69c-1,1-2.23,1.85-2.42,2.87v.32H106ZM105.55,76a2.26,2.26,0,0,1,4.5,0,2.26,2.26,0,0,1-4.5,0Z" fill="#14aa40"/><path d="M24.33,88.12H20.44V84.8H32.53v3.32H28.65V99.81H24.33Z" fill="#14aa40"/><path d="M33.15,88.83H36.9V91a3.45,3.45,0,0,1,3.55-2.33v3.5c-2.29-.06-3.55.65-3.55,2.42v5.2H33.15Z" fill="#14aa40"/><path d="M45.43,98.7,41,88.83h4.07l2.27,5.86,2.1-5.86h3.59l-5.88,14.66H43.6Z" fill="#14aa40"/><path d="M58.2,84.8h6.7c3.54,0,5.06,1.6,5.06,3.93v.08A3.09,3.09,0,0,1,67.42,92a3.27,3.27,0,0,1,3,3.51v.08c0,2.69-1.74,4.18-5.46,4.18H58.2Zm5.84,6c1.34,0,1.84-.46,1.84-1.53v-.08c0-1-.54-1.49-1.84-1.49H62.4v3.1Zm.14,6.18c1.37,0,2-.63,2-1.75v-.08c0-1.13-.61-1.72-2.12-1.72H62.4v3.55Z" fill="#14aa40"/><path d="M71.91,84h3.74V99.81H71.91Z" fill="#14aa40"/><path d="M77.08,94.46v-.17c0-3.53,2.62-5.75,6-5.75s6,2.16,6,5.65v.16c0,3.57-2.63,5.71-6,5.71S77.08,98,77.08,94.46Zm8.19-.06v-.17c0-1.85-.74-2.88-2.17-2.88s-2.18,1-2.18,2.84v.16c0,1.89.73,2.92,2.18,2.92S85.27,96.22,85.27,94.4Z" fill="#14aa40"/><path d="M89.82,94.46v-.17a5.53,5.53,0,0,1,5.86-5.75c2.69,0,5.17,1.17,5.38,4.51H97.53a1.62,1.62,0,0,0-1.76-1.59c-1.33,0-2.1.94-2.1,2.79v.17c0,1.91.73,2.89,2.16,2.89a1.83,1.83,0,0,0,1.91-1.82h3.38c-.11,2.77-2,4.57-5.52,4.57C92.32,100.06,89.82,98.15,89.82,94.46Z" fill="#14aa40"/><path d="M102.34,84h3.76v9.18l3-4.35H113l-3.59,4.94,3.89,6h-4.2l-3-4.81v4.81h-3.76Z" fill="#14aa40"/><path d="M114,97.92a2.1,2.1,0,0,1,2.15-2.12,2.12,2.12,0,1,1,0,4.24A2.1,2.1,0,0,1,114,97.92Z" fill="#14aa40"/><rect width="300" height="250" fill="none"/></g></g></svg>