<svg xmlns="http://www.w3.org/2000/svg" viewBox="0 0 728 90"><title>H62</title><g id="Layer_2" data-name="Layer 2"><g id="Rect"><rect width="728" height="90" fill="none"/></g><g id="H62"><g id="Avoid_surprise_fees_and_file_with_ease." data-name="Avoid surprise fees and file with ease."><path d="M126,33.94h6.53l5.6,17.62h-5.35l-.94-3.28H126L125,51.56h-4.71Zm1,10.87h3.87L128.9,38Z" fill="#fff"/><path d="M136.89,38.67h4.7L144.28,47l2.64-8.31h4.21l-4.71,12.89h-4.8Z" fill="#fff"/><path d="M150.86,45.28v-.2c0-4.14,3.08-6.75,7.07-6.75s7,2.54,7,6.63v.19c0,4.19-3.08,6.71-7.05,6.71S150.86,49.44,150.86,45.28Zm9.61-.08V45c0-2.17-.86-3.38-2.54-3.38s-2.56,1.16-2.56,3.33v.19c0,2.22.86,3.43,2.56,3.43S160.47,47.35,160.47,45.2Z" fill="#fff"/><path d="M166.42,35.17a2.3,2.3,0,0,1,2.41-2.29,2.29,2.29,0,1,1,0,4.56A2.28,2.28,0,0,1,166.42,35.17Zm.22,3.5h4.41V51.56h-4.41Z" fill="#fff"/><path d="M172.77,45.25v-.19c0-4.39,2.42-6.73,5.48-6.73a4.16,4.16,0,0,1,4,2.17V33h4.41V51.56h-4.41V49.47a4.34,4.34,0,0,1-4,2.39C175.21,51.86,172.77,49.71,172.77,45.25Zm9.57-.07V45c0-2.17-.92-3.33-2.54-3.33s-2.54,1.11-2.54,3.36v.19c0,2.17,1,3.28,2.49,3.28S182.34,47.37,182.34,45.18Z" fill="#fff"/><path d="M192.49,47.47h4.07c.15.94.57,1.45,1.82,1.45,1.09,0,1.58-.41,1.58-1.05s-.61-.92-2.39-1.16c-3.45-.45-4.9-1.46-4.9-4.14,0-2.86,2.54-4.24,5.52-4.24,3.18,0,5.39,1.08,5.69,4.16h-4a1.44,1.44,0,0,0-1.65-1.28c-1,0-1.46.42-1.46,1s.59.86,2.17,1.06c3.57.44,5.3,1.38,5.3,4.14,0,3.06-2.27,4.44-5.84,4.44S192.59,50.33,192.49,47.47Z" fill="#fff"/><path d="M205.58,47.08V38.67H210v7.69c0,1.46.57,2.17,1.83,2.17s2.19-.79,2.19-2.44V38.67h4.41V51.56H214v-2a4.24,4.24,0,0,1-4.09,2.29C207.43,51.86,205.58,50.33,205.58,47.08Z" fill="#fff"/><path d="M220.67,38.67h4.41v2.57a4.06,4.06,0,0,1,4.16-2.74v4.12c-2.68-.08-4.16.76-4.16,2.83v6.11h-4.41Z" fill="#fff"/><path d="M230.85,38.67h4.41V40.6a4.54,4.54,0,0,1,4-2.27c3,0,5.44,2.27,5.44,6.68v.19c0,4.44-2.44,6.66-5.47,6.66a4.24,4.24,0,0,1-4-2.2v6.21h-4.41Zm9.39,6.53V45c0-2.27-1-3.36-2.54-3.36s-2.56,1.16-2.56,3.33v.2c0,2.19,1,3.3,2.56,3.3S240.24,47.32,240.24,45.2Z" fill="#fff"/><path d="M246.33,38.67h4.41v2.57a4.06,4.06,0,0,1,4.17-2.74v4.12c-2.69-.08-4.17.76-4.17,2.83v6.11h-4.41Z" fill="#fff"/><path d="M256.41,35.17a2.44,2.44,0,1,1,2.42,2.27A2.31,2.31,0,0,1,256.41,35.17Zm.22,3.5H261V51.56h-4.41Z" fill="#fff"/><path d="M262.55,47.47h4.07c.14.94.56,1.45,1.82,1.45,1.08,0,1.58-.41,1.58-1.05s-.62-.92-2.39-1.16c-3.45-.45-4.91-1.46-4.91-4.14,0-2.86,2.54-4.24,5.52-4.24,3.18,0,5.4,1.08,5.69,4.16h-4a1.44,1.44,0,0,0-1.65-1.28c-1,0-1.45.42-1.45,1s.59.86,2.17,1.06c3.57.44,5.29,1.38,5.29,4.14,0,3.06-2.26,4.44-5.84,4.44S262.65,50.33,262.55,47.47Z" fill="#fff"/><path d="M275.12,45.28v-.2c0-4.14,3.08-6.75,7-6.75,3.53,0,6.56,2,6.56,6.65v1.16h-9.07a2.58,2.58,0,0,0,2.69,2.69c1.45,0,2.07-.67,2.24-1.53h4.14c-.4,2.91-2.64,4.56-6.53,4.56C278.08,51.86,275.12,49.49,275.12,45.28Zm9.24-1.63c-.07-1.55-.84-2.41-2.27-2.41a2.45,2.45,0,0,0-2.46,2.41Z" fill="#fff"/><path d="M295.33,41.68h-1.62v-3h1.62V37.54c0-3.2,2-4.73,5.05-4.73a7.72,7.72,0,0,1,2,.27v3.23a3.94,3.94,0,0,0-1.2-.18,1.3,1.3,0,0,0-1.48,1.41v1.13h2.61v3h-2.61v9.88h-4.39Z" fill="#fff"/><path d="M302.68,45.28v-.2c0-4.14,3.08-6.75,7-6.75,3.53,0,6.56,2,6.56,6.65v1.16h-9.07a2.57,2.57,0,0,0,2.68,2.69c1.46,0,2.08-.67,2.25-1.53h4.14c-.4,2.91-2.64,4.56-6.53,4.56C305.64,51.86,302.68,49.49,302.68,45.28Zm9.24-1.63c-.07-1.55-.84-2.41-2.27-2.41a2.45,2.45,0,0,0-2.46,2.41Z" fill="#fff"/><path d="M317.05,45.28v-.2c0-4.14,3.08-6.75,7-6.75,3.53,0,6.56,2,6.56,6.65v1.16h-9.07a2.58,2.58,0,0,0,2.69,2.69c1.45,0,2.07-.67,2.24-1.53h4.14c-.4,2.91-2.64,4.56-6.53,4.56C320,51.86,317.05,49.49,317.05,45.28Zm9.24-1.63c-.07-1.55-.84-2.41-2.27-2.41a2.45,2.45,0,0,0-2.46,2.41Z" fill="#fff"/><path d="M331.37,47.47h4.07c.14.94.56,1.45,1.82,1.45,1.08,0,1.58-.41,1.58-1.05s-.62-.92-2.39-1.16c-3.45-.45-4.91-1.46-4.91-4.14,0-2.86,2.54-4.24,5.52-4.24,3.18,0,5.4,1.08,5.7,4.16h-4a1.44,1.44,0,0,0-1.65-1.28c-1,0-1.45.42-1.45,1s.59.86,2.17,1.06c3.57.44,5.3,1.38,5.3,4.14,0,3.06-2.27,4.44-5.85,4.44S331.47,50.33,331.37,47.47Z" fill="#fff"/><path d="M348.3,48c0-3,2.57-4.22,6.86-4.22h1.23v-.29c0-1.23-.3-2-1.7-2A1.59,1.59,0,0,0,352.94,43H348.8c.19-3.1,2.63-4.63,6.16-4.63s5.81,1.45,5.81,4.88v8.35h-4.28v-1.5a4.25,4.25,0,0,1-3.82,1.8C350.35,51.86,348.3,50.72,348.3,48Zm8.09-.94v-.79h-1.16c-1.77,0-2.56.35-2.56,1.41,0,.74.49,1.21,1.52,1.21A2,2,0,0,0,356.39,47.05Z" fill="#fff"/><path d="M362.92,38.67h4.41v2.07a4.55,4.55,0,0,1,4.24-2.41c2.49,0,4.22,1.55,4.22,4.85v8.38h-4.42V44.07c0-1.45-.56-2.17-1.84-2.17s-2.2.79-2.2,2.44v7.22h-4.41Z" fill="#fff"/><path d="M377.29,45.25v-.19c0-4.39,2.42-6.73,5.47-6.73a4.18,4.18,0,0,1,4,2.17V33h4.41V51.56h-4.41V49.47a4.34,4.34,0,0,1-4,2.39C379.73,51.86,377.29,49.71,377.29,45.25Zm9.56-.07V45c0-2.17-.91-3.33-2.53-3.33s-2.54,1.11-2.54,3.36v.19c0,2.17,1,3.28,2.49,3.28S386.85,47.37,386.85,45.18Z" fill="#fff"/><path d="M398.54,41.68h-1.63v-3h1.63V37.54c0-3.2,2-4.73,5-4.73a7.72,7.72,0,0,1,2,.27v3.23a3.94,3.94,0,0,0-1.2-.18,1.3,1.3,0,0,0-1.48,1.41v1.13h2.61v3h-2.61v9.88h-4.39Z" fill="#fff"/><path d="M406.92,35.17a2.44,2.44,0,1,1,2.42,2.27A2.31,2.31,0,0,1,406.92,35.17Zm.22,3.5h4.41V51.56h-4.41Z" fill="#fff"/><path d="M414,33h4.39V51.56H414Z" fill="#fff"/><path d="M420.11,45.28v-.2c0-4.14,3.08-6.75,7-6.75,3.53,0,6.56,2,6.56,6.65v1.16h-9.07a2.57,2.57,0,0,0,2.68,2.69c1.46,0,2.08-.67,2.25-1.53h4.14c-.4,2.91-2.64,4.56-6.53,4.56C423.07,51.86,420.11,49.49,420.11,45.28Zm9.24-1.63c-.07-1.55-.84-2.41-2.27-2.41a2.45,2.45,0,0,0-2.46,2.41Z" fill="#fff"/><path d="M438.57,38.67h4.61l1.87,7.72,2.17-7.72h3.55l1.92,7.72,2.1-7.72H459l-4.1,12.89h-4.21l-1.92-7.19-2,7.19h-4.29Z" fill="#fff"/><path d="M460,35.17a2.3,2.3,0,0,1,2.41-2.29,2.29,2.29,0,1,1,0,4.56A2.28,2.28,0,0,1,460,35.17Zm.22,3.5h4.41V51.56h-4.41Z" fill="#fff"/><path d="M467.61,47.42V41.68h-1.55v-3h1.55V36H472v2.68h2.54v3H472V47c0,.94.47,1.36,1.31,1.36a3.48,3.48,0,0,0,1.25-.22v3.35a9.51,9.51,0,0,1-2.44.37C469.23,51.86,467.61,50.45,467.61,47.42Z" fill="#fff"/><path d="M476.24,33h4.41v7.74a4.54,4.54,0,0,1,4.23-2.41c2.49,0,4.22,1.55,4.22,4.85v8.38h-4.41V44.07c0-1.45-.57-2.17-1.85-2.17s-2.19.79-2.19,2.44v7.22h-4.41Z" fill="#fff"/><path d="M495,45.28v-.2c0-4.14,3.08-6.75,7-6.75,3.52,0,6.55,2,6.55,6.65v1.16H499.5a2.58,2.58,0,0,0,2.69,2.69c1.45,0,2.07-.67,2.24-1.53h4.14c-.39,2.91-2.63,4.56-6.53,4.56S495,49.49,495,45.28Zm9.24-1.63c-.07-1.55-.83-2.41-2.26-2.41a2.45,2.45,0,0,0-2.47,2.41Z" fill="#fff"/><path d="M509.49,48c0-3,2.56-4.22,6.85-4.22h1.23v-.29c0-1.23-.3-2-1.7-2A1.59,1.59,0,0,0,514.12,43H510c.2-3.1,2.64-4.63,6.16-4.63S522,39.78,522,43.21v8.35h-4.29v-1.5a4.25,4.25,0,0,1-3.82,1.8C511.53,51.86,509.49,50.72,509.49,48Zm8.08-.94v-.79h-1.16c-1.77,0-2.56.35-2.56,1.41,0,.74.49,1.21,1.53,1.21A2,2,0,0,0,517.57,47.05Z" fill="#fff"/><path d="M523.24,47.47h4.07c.15.94.57,1.45,1.82,1.45,1.09,0,1.58-.41,1.58-1.05s-.62-.92-2.39-1.16c-3.45-.45-4.91-1.46-4.91-4.14,0-2.86,2.54-4.24,5.52-4.24,3.18,0,5.4,1.08,5.7,4.16h-4A1.44,1.44,0,0,0,529,41.21c-1,0-1.45.42-1.45,1s.59.86,2.17,1.06c3.57.44,5.3,1.38,5.3,4.14,0,3.06-2.27,4.44-5.84,4.44S523.34,50.33,523.24,47.47Z" fill="#fff"/><path d="M535.81,45.28v-.2c0-4.14,3.08-6.75,7-6.75,3.52,0,6.55,2,6.55,6.65v1.16h-9.07A2.58,2.58,0,0,0,543,48.83c1.45,0,2.07-.67,2.24-1.53h4.14c-.39,2.91-2.63,4.56-6.53,4.56S535.81,49.49,535.81,45.28Zm9.24-1.63c-.07-1.55-.83-2.41-2.26-2.41a2.45,2.45,0,0,0-2.47,2.41Z" fill="#fff"/><path d="M550.58,49.34a2.46,2.46,0,0,1,2.51-2.49,2.49,2.49,0,1,1,0,5A2.46,2.46,0,0,1,550.58,49.34Z" fill="#fff"/></g></g></g></svg>