<svg xmlns="http://www.w3.org/2000/svg" viewBox="0 0 160 600"><title>H51</title><g id="Layer_2" data-name="Layer 2"><g id="Rect"><rect width="160" height="600" fill="none"/></g><g id="H51"><g id="Power_hour._Your_taxes_could_be_done_in_an_hour._" data-name="Power hour.  Your taxes could be done in  an hour. "><path d="M22.45,139.51h6c4.31,0,6.32,1.92,6.32,5.26v.09c0,3.3-2.23,5.08-6.12,5.08H26.94v5.31H22.45Zm5.78,7.35c1.46,0,2.23-.68,2.23-2v-.09c0-1.34-.8-1.89-2.2-1.89H26.94v4Z" fill="#fff"/><path d="M35.1,149.64v-.18c0-3.7,2.75-6,6.31-6s6.27,2.27,6.27,5.92v.18c0,3.74-2.75,6-6.29,6S35.1,153.35,35.1,149.64Zm8.58-.07v-.18c0-1.93-.77-3-2.27-3s-2.29,1-2.29,3v.18c0,2,.78,3.05,2.29,3.05S43.68,151.48,43.68,149.57Z" fill="#fff"/><path d="M47.73,143.74h4.11l1.68,6.89,1.93-6.89h3.17l1.72,6.89,1.87-6.89H66l-3.66,11.51H58.53l-1.71-6.43L55,155.25H51.21Z" fill="#fff"/><path d="M65.84,149.64v-.18a5.88,5.88,0,0,1,6.22-6c3.15,0,5.86,1.81,5.86,5.94v1h-8.1a2.3,2.3,0,0,0,2.4,2.39c1.3,0,1.85-.59,2-1.36h3.7c-.35,2.6-2.36,4.07-5.83,4.07S65.84,153.4,65.84,149.64Zm8.25-1.46c-.07-1.38-.75-2.15-2-2.15a2.19,2.19,0,0,0-2.2,2.15Z" fill="#fff"/><path d="M79.28,143.74h3.94V146a3.64,3.64,0,0,1,3.72-2.45v3.68c-2.4-.07-3.72.68-3.72,2.53v5.46H79.28Z" fill="#fff"/><path d="M92.38,138.68h3.93v6.91a4.07,4.07,0,0,1,3.79-2.16c2.22,0,3.76,1.39,3.76,4.34v7.48H99.92v-6.69c0-1.3-.5-1.94-1.65-1.94s-2,.71-2,2.18v6.45H92.38Z" fill="#fff"/><path d="M105.16,149.64v-.18c0-3.7,2.75-6,6.31-6s6.28,2.27,6.28,5.92v.18c0,3.74-2.75,6-6.3,6S105.16,153.35,105.16,149.64Zm8.58-.07v-.18c0-1.93-.77-3-2.27-3s-2.28,1-2.28,3v.18c0,2,.77,3.05,2.28,3.05S113.74,151.48,113.74,149.57Z" fill="#fff"/><path d="M119,151.24v-7.5H123v6.86c0,1.3.51,1.94,1.63,1.94s2-.7,2-2.18v-6.62h3.94v11.51h-3.94v-1.79a3.79,3.79,0,0,1-3.65,2C120.69,155.51,119,154.15,119,151.24Z" fill="#fff"/><path d="M132.51,143.74h3.94V146a3.62,3.62,0,0,1,3.72-2.45v3.68c-2.4-.07-3.72.68-3.72,2.53v5.46h-3.94Z" fill="#fff"/><path d="M140.12,153.27a2.2,2.2,0,0,1,2.25-2.23,2.23,2.23,0,1,1,0,4.45A2.2,2.2,0,0,1,140.12,153.27Z" fill="#fff"/><path d="M26.23,181.68l-5.13-9H26l2.66,5.3,2.67-5.3h4.31l-4.89,9v6.73H26.23Z" fill="#fff"/><path d="M34,182.8v-.18c0-3.69,2.75-6,6.31-6s6.27,2.26,6.27,5.91v.18c0,3.74-2.75,6-6.29,6S34,186.52,34,182.8Zm8.58-.07v-.17c0-1.94-.77-3-2.27-3s-2.28,1-2.28,3v.18c0,2,.77,3.06,2.28,3.06S42.58,184.65,42.58,182.73Z" fill="#fff"/><path d="M47.88,184.41V176.9h3.94v6.87c0,1.3.51,1.94,1.63,1.94s2-.71,2-2.18V176.9h3.94v11.51H55.41v-1.78a3.79,3.79,0,0,1-3.65,2.05C49.53,188.68,47.88,187.31,47.88,184.41Z" fill="#fff"/><path d="M61.35,176.9h3.94v2.29A3.63,3.63,0,0,1,69,176.75v3.67c-2.4-.06-3.72.69-3.72,2.54v5.45H61.35Z" fill="#fff"/><path d="M75,184.71v-5.12H73.58V176.9H75v-2.39h3.94v2.39h2.26v2.69H78.91v4.75c0,.84.42,1.21,1.16,1.21a2.92,2.92,0,0,0,1.13-.2v3a8.42,8.42,0,0,1-2.18.33C76.42,188.68,75,187.42,75,184.71Z" fill="#fff"/><path d="M82.05,185.22c0-2.71,2.29-3.76,6.12-3.76h1.1v-.27c0-1.1-.26-1.82-1.52-1.82a1.41,1.41,0,0,0-1.56,1.36h-3.7c.18-2.77,2.36-4.13,5.51-4.13s5.19,1.29,5.19,4.35v7.46H89.36v-1.34A3.77,3.77,0,0,1,86,188.68C83.88,188.68,82.05,187.66,82.05,185.22Zm7.22-.83v-.71h-1c-1.59,0-2.29.31-2.29,1.26,0,.66.44,1.07,1.36,1.07C88.43,186,89.27,185.38,89.27,184.39Z" fill="#fff"/><path d="M98,182.56l-3.59-5.66H99l1.78,3,1.74-3h4l-3.63,5.35,4,6.16h-4.53l-2-3.43-2.09,3.43h-4Z" fill="#fff"/><path d="M106.37,182.8v-.18a5.88,5.88,0,0,1,6.22-6c3.15,0,5.86,1.8,5.86,5.94v1h-8.1a2.3,2.3,0,0,0,2.4,2.4c1.3,0,1.85-.59,2-1.37h3.7c-.36,2.6-2.36,4.08-5.83,4.08S106.37,186.56,106.37,182.8Zm8.25-1.45c-.07-1.39-.75-2.16-2-2.16a2.2,2.2,0,0,0-2.2,2.16Z" fill="#fff"/><path d="M119.15,184.76h3.63c.13.84.51,1.3,1.63,1.3s1.41-.38,1.41-.95-.55-.81-2.14-1c-3.08-.4-4.38-1.3-4.38-3.7s2.27-3.78,4.93-3.78c2.84,0,4.82,1,5.09,3.71h-3.57a1.28,1.28,0,0,0-1.47-1.14c-.86,0-1.3.37-1.3.9s.53.77,1.94,1c3.19.39,4.73,1.23,4.73,3.69,0,2.73-2,4-5.22,4S119.24,187.31,119.15,184.76Z" fill="#fff"/><path d="M21.48,216v-.18a5.79,5.79,0,0,1,6.14-6c2.81,0,5.41,1.23,5.63,4.73h-3.7a1.69,1.69,0,0,0-1.84-1.67c-1.39,0-2.21,1-2.21,2.93v.17c0,2,.77,3,2.27,3a1.91,1.91,0,0,0,2-1.92h3.55c-.11,2.91-2.07,4.8-5.79,4.8C24.1,221.84,21.48,219.84,21.48,216Z" fill="#fff"/><path d="M34,216v-.18c0-3.7,2.75-6,6.31-6s6.27,2.27,6.27,5.92v.18c0,3.74-2.75,6-6.29,6S34,219.68,34,216Zm8.58-.07v-.18c0-1.93-.77-3-2.27-3s-2.29,1-2.29,3v.18c0,2,.77,3,2.29,3S42.56,217.81,42.56,215.9Z" fill="#fff"/><path d="M47.86,217.57v-7.5H51.8v6.86c0,1.3.51,1.94,1.63,1.94s2-.7,2-2.18v-6.62h3.93v11.51H55.39v-1.79a3.79,3.79,0,0,1-3.66,2.05C49.51,221.84,47.86,220.48,47.86,217.57Z" fill="#fff"/><path d="M61.44,205h3.91v16.57H61.44Z" fill="#fff"/><path d="M66.89,215.94v-.17c0-3.92,2.16-6,4.89-6a3.73,3.73,0,0,1,3.54,1.94V205h3.94v16.57H75.32v-1.87a3.89,3.89,0,0,1-3.59,2.13C69.07,221.84,66.89,219.93,66.89,215.94Zm8.54-.06v-.18c0-1.93-.81-3-2.27-3s-2.26,1-2.26,3v.18c0,1.94.86,2.93,2.22,2.93S75.43,217.84,75.43,215.88Z" fill="#fff"/><path d="M89.21,219.79v1.79H85.27V205h3.94v6.78a4.05,4.05,0,0,1,3.58-2c2.69,0,4.86,2,4.86,6v.18c0,4-2.17,5.94-4.88,5.94A3.71,3.71,0,0,1,89.21,219.79Zm4.44-3.89v-.18c0-2-.88-3-2.27-3s-2.28,1-2.28,3v.18c0,2,.85,3,2.28,3S93.65,217.79,93.65,215.9Z" fill="#fff"/><path d="M98.47,216v-.18a5.89,5.89,0,0,1,6.23-6c3.14,0,5.85,1.81,5.85,5.94v1h-8.1a2.3,2.3,0,0,0,2.4,2.39c1.3,0,1.85-.59,2-1.36h3.7c-.35,2.6-2.36,4.07-5.83,4.07S98.47,219.73,98.47,216Zm8.25-1.46c-.07-1.38-.75-2.15-2-2.15a2.18,2.18,0,0,0-2.2,2.15Z" fill="#fff"/><path d="M21.52,249.11v-.18c0-3.91,2.16-6,4.89-6A3.74,3.74,0,0,1,30,244.86v-6.69h3.94v16.57H30v-1.87A3.88,3.88,0,0,1,26.36,255C23.7,255,21.52,253.09,21.52,249.11Zm8.54-.07v-.17c0-1.94-.81-3-2.27-3s-2.26,1-2.26,3v.17c0,1.94.85,2.93,2.22,2.93S30.06,251,30.06,249Z" fill="#fff"/><path d="M35.27,249.13V249c0-3.7,2.75-6,6.32-6s6.27,2.26,6.27,5.91V249c0,3.74-2.75,6-6.29,6S35.27,252.85,35.27,249.13Zm8.59-.07v-.17c0-1.94-.77-3-2.27-3s-2.29,1-2.29,3V249c0,2,.77,3.06,2.29,3.06S43.86,251,43.86,249.06Z" fill="#fff"/><path d="M49.25,243.23h3.94v1.85A4,4,0,0,1,57,242.93c2.22,0,3.76,1.38,3.76,4.33v7.48H56.79v-6.69c0-1.3-.5-1.93-1.65-1.93s-2,.7-2,2.17v6.45H49.25Z" fill="#fff"/><path d="M62,249.13V249a5.89,5.89,0,0,1,6.23-6c3.14,0,5.85,1.8,5.85,5.94v1H66a2.3,2.3,0,0,0,2.4,2.4c1.3,0,1.85-.59,2-1.36h3.7c-.35,2.59-2.35,4.07-5.83,4.07S62,252.89,62,249.13Zm8.25-1.45c-.06-1.39-.75-2.16-2-2.16a2.19,2.19,0,0,0-2.2,2.16Z" fill="#fff"/><path d="M79.39,240.11a2.18,2.18,0,1,1,2.16,2A2,2,0,0,1,79.39,240.11Zm.2,3.12h3.94v11.51H79.59Z" fill="#fff"/><path d="M85.64,243.23h3.94v1.85a4.06,4.06,0,0,1,3.78-2.15c2.23,0,3.77,1.38,3.77,4.33v7.48H93.19v-6.69c0-1.3-.51-1.93-1.65-1.93s-2,.7-2,2.17v6.45H85.64Z" fill="#fff"/><path d="M21.43,284.72c0-2.71,2.29-3.77,6.12-3.77h1.1v-.26c0-1.1-.26-1.83-1.52-1.83a1.42,1.42,0,0,0-1.56,1.37h-3.7c.18-2.78,2.36-4.14,5.51-4.14s5.19,1.3,5.19,4.36v7.46H28.74v-1.35a3.77,3.77,0,0,1-3.41,1.61C23.26,288.17,21.43,287.16,21.43,284.72Zm7.22-.84v-.7h-1c-1.59,0-2.29.3-2.29,1.25,0,.66.44,1.08,1.36,1.08C27.82,285.51,28.65,284.87,28.65,283.88Z" fill="#fff"/><path d="M34.48,276.4h3.94v1.85a4.07,4.07,0,0,1,3.79-2.16c2.22,0,3.76,1.39,3.76,4.34v7.48H42v-6.69c0-1.3-.51-1.94-1.65-1.94s-2,.71-2,2.18v6.45H34.48Z" fill="#fff"/><path d="M51.89,271.34h3.94v6.91a4.05,4.05,0,0,1,3.78-2.16c2.22,0,3.76,1.39,3.76,4.34v7.48H59.43v-6.69c0-1.3-.5-1.94-1.65-1.94s-2,.71-2,2.18v6.45H51.89Z" fill="#fff"/><path d="M64.67,282.3v-.18c0-3.7,2.75-6,6.32-6s6.27,2.27,6.27,5.92v.18c0,3.74-2.75,6-6.3,6S64.67,286,64.67,282.3Zm8.58-.07v-.18c0-1.93-.77-3-2.26-3s-2.29,1-2.29,3v.18c0,2,.77,3.05,2.29,3.05S73.25,284.14,73.25,282.23Z" fill="#fff"/><path d="M78.56,283.9v-7.5h3.93v6.86c0,1.3.51,1.94,1.63,1.94s2-.7,2-2.18V276.4H90v11.51H86.08v-1.79a3.79,3.79,0,0,1-3.65,2.05C80.21,288.17,78.56,286.81,78.56,283.9Z" fill="#fff"/><path d="M92,276.4H96v2.29a3.64,3.64,0,0,1,3.72-2.45v3.68c-2.4-.07-3.72.68-3.72,2.53v5.46H92Z" fill="#fff"/><path d="M99.63,285.93a2.2,2.2,0,0,1,2.25-2.23,2.23,2.23,0,1,1,0,4.45A2.2,2.2,0,0,1,99.63,285.93Z" fill="#fff"/></g></g></g></svg>