<svg xmlns="http://www.w3.org/2000/svg" viewBox="0 0 160 600"><title>H79</title><g id="Layer_2" data-name="Layer 2"><g id="Layer_3" data-name="Layer 3"><rect width="160" height="600" fill="none"/></g><g id="Up_to_3_500_today._No_interest._No_loan_fees." data-name="Up to $3,500 today. No  interest. No loan fees."><path d="M21.93,98.35V85.51h6.2V98.08c0,3,.75,4.53,3.38,4.53s3.38-1.39,3.38-4.62V85.51h6.26V98.26c0,6.29-3.69,9.22-9.64,9.22C25.41,107.48,21.93,104.39,21.93,98.35Z" fill="#fff"/><path d="M44.08,91.31h5.41v2.36a5.58,5.58,0,0,1,4.92-2.78c3.69,0,6.68,2.78,6.68,8.19v.24c0,5.44-3,8.16-6.71,8.16a5.21,5.21,0,0,1-4.89-2.69v7.61H44.08Zm11.51,8v-.24c0-2.78-1.21-4.11-3.11-4.11s-3.14,1.42-3.14,4.08v.24c0,2.69,1.18,4,3.14,4S55.59,101.92,55.59,99.32Z" fill="#fff"/><path d="M69.28,102V95h-1.9V91.31h1.9V88h5.41v3.29H77.8V95H74.69v6.52c0,1.15.57,1.67,1.6,1.67a4,4,0,0,0,1.54-.28V107a11.38,11.38,0,0,1-3,.46C71.27,107.48,69.28,105.75,69.28,102Z" fill="#fff"/><path d="M79,99.41v-.24c0-5.08,3.78-8.28,8.67-8.28S96.29,94,96.29,99v.24c0,5.13-3.78,8.22-8.64,8.22S79,104.52,79,99.41Zm11.78-.09v-.24c0-2.66-1.06-4.14-3.11-4.14S84.54,96.36,84.54,99v.24c0,2.72,1,4.2,3.14,4.2S90.79,102,90.79,99.32Z" fill="#fff"/><path d="M28.7,143.28c-5.23-.36-7.76-3.14-8-7.13h5.58A2.87,2.87,0,0,0,28.7,139v-4.41c-5.26-.76-7.49-2.66-7.49-6.86,0-3.66,2.87-6.29,7.49-6.62v-2.69h2.36v2.72c4.38.37,7,2.39,7.34,6.53H32.93a2.4,2.4,0,0,0-1.87-2.27v4.17c4.62.67,7.64,2.24,7.64,6.62,0,3.68-2.39,6.77-7.64,7.1v3.77H28.7Zm0-14.08v-3.87c-1.36.24-2.05,1-2.05,1.94S27.07,128.87,28.7,129.2ZM31.06,135v4a2.17,2.17,0,0,0,2-2.15C33.08,135.85,32.66,135.33,31.06,135Z" fill="#fff"/><path d="M39.94,135.88h5.5c.18,1.78,1,3,3.17,3,1.91,0,2.84-.91,2.84-2.45s-.9-2.54-2.84-2.54H46.89V130h1.6c1.93,0,2.87-.87,2.87-2.38,0-1.3-.84-2.15-2.48-2.15s-2.62,1-2.87,2.75H40.55c.27-4.26,3.11-7.19,8.49-7.19,5.07,0,8.12,2.33,8.12,5.92a4.62,4.62,0,0,1-3.65,4.66,4.87,4.87,0,0,1,4.2,4.89c0,4.11-3.06,6.8-8.77,6.8C42.93,143.34,40.12,140.56,39.94,135.88Z" fill="#fff"/><path d="M58.22,145.42l2.54-7.94,5,1.78-4.35,7.4Z" fill="#fff"/><path d="M66.77,136.18h5.62c.21,1.51.82,2.51,2.81,2.51,1.78,0,2.6-1.33,2.6-3.06a2.75,2.75,0,0,0-2.93-3.08,4.46,4.46,0,0,0-3.57,1.54H67.62l.45-12.72H82.63v4.54H72.54l-.12,4.77a5.77,5.77,0,0,1,5-2.3c4,0,6.55,2.66,6.55,7.35s-3.29,7.61-8.76,7.61C69.52,143.34,66.92,140.23,66.77,136.18Z" fill="#fff"/><path d="M85.54,132.64v-.9c0-6.83,4.26-10.67,10-10.67s10,3.54,10,10.55v.84c0,6.86-3.93,10.88-10.1,10.88S85.54,139.44,85.54,132.64Zm13.74-.06v-.87c0-4-1.15-6-3.77-6s-3.78,2-3.78,6v.9c0,4,1.18,5.92,3.84,5.92S99.28,136.57,99.28,132.58Z" fill="#fff"/><path d="M107.2,132.64v-.9c0-6.83,4.26-10.67,10-10.67s10,3.54,10,10.55v.84c0,6.86-3.93,10.88-10.09,10.88S107.2,139.44,107.2,132.64Zm13.75-.06v-.87c0-4-1.15-6-3.78-6s-3.78,2-3.78,6v.9c0,4,1.18,5.92,3.84,5.92S121,136.57,121,132.58Z" fill="#fff"/><path d="M22.33,173.76v-7H20.42V163h1.91v-3.3h5.4V163h3.12v3.68H27.73v6.53a1.45,1.45,0,0,0,1.61,1.66,4.18,4.18,0,0,0,1.54-.27v4.11a11.51,11.51,0,0,1-3,.45C24.32,179.2,22.33,177.48,22.33,173.76Z" fill="#fff"/><path d="M32.06,171.13v-.24c0-5.07,3.77-8.28,8.67-8.28s8.61,3.12,8.61,8.13V171c0,5.14-3.78,8.22-8.64,8.22S32.06,176.24,32.06,171.13ZM43.84,171v-.24c0-2.66-1.06-4.14-3.11-4.14s-3.15,1.42-3.15,4.08V171c0,2.72,1.06,4.2,3.15,4.2S43.84,173.67,43.84,171Z" fill="#fff"/><path d="M50.46,171.1v-.24c0-5.38,3-8.25,6.7-8.25A5.14,5.14,0,0,1,62,165.27v-9.18h5.41v22.75H62v-2.57a5.34,5.34,0,0,1-4.93,2.93C53.45,179.2,50.46,176.57,50.46,171.1ZM62.18,171v-.24c0-2.66-1.12-4.08-3.11-4.08S56,168.05,56,170.8V171c0,2.66,1.17,4,3,4S62.18,173.7,62.18,171Z" fill="#fff"/><path d="M69.28,174.46c0-3.72,3.14-5.17,8.4-5.17h1.51v-.36c0-1.51-.36-2.51-2.09-2.51A1.94,1.94,0,0,0,75,168.29H69.88c.25-3.8,3.24-5.68,7.56-5.68s7.13,1.79,7.13,6v10.24H79.31V177a5.19,5.19,0,0,1-4.68,2.2C71.79,179.2,69.28,177.81,69.28,174.46Zm9.91-1.15v-1H77.77c-2.18,0-3.14.43-3.14,1.72,0,.91.6,1.49,1.87,1.49C78,175.55,79.19,174.67,79.19,173.31Z" fill="#fff"/><path d="M91.61,177.24,85.29,163h5.86l3.27,8.43,3-8.43h5.17l-8.46,21.09H89Z" fill="#fff"/><path d="M101.46,176.12a3,3,0,0,1,3.08-3.05,3.05,3.05,0,1,1,0,6.1A3,3,0,0,1,101.46,176.12Z" fill="#fff"/><path d="M22.08,193.1h7L36,205.27V193.1h5.41v21.6h-6l-7.89-13.56V214.7H22.08Z" fill="#fff"/><path d="M43.57,207v-.25c0-5.07,3.77-8.27,8.67-8.27s8.61,3.11,8.61,8.12v.25c0,5.13-3.78,8.21-8.64,8.21S43.57,212.1,43.57,207Zm11.78-.09v-.25c0-2.65-1.06-4.14-3.11-4.14S49.1,204,49.1,206.6v.25c0,2.71,1,4.19,3.14,4.19S55.35,209.53,55.35,206.91Z" fill="#fff"/><path d="M21.48,230.47a2.82,2.82,0,0,1,3-2.81,2.8,2.8,0,1,1,0,5.59A2.8,2.8,0,0,1,21.48,230.47Zm.27,4.29h5.41v15.8H21.75Z" fill="#fff"/><path d="M30.06,234.76h5.41v2.54a5.59,5.59,0,0,1,5.2-3c3,0,5.16,1.9,5.16,5.95v10.27H40.42v-9.18c0-1.78-.69-2.66-2.26-2.66s-2.69,1-2.69,3v8.85H30.06Z" fill="#fff"/><path d="M49.19,245.49v-7H47.28v-3.69h1.91v-3.29H54.6v3.29h3.11v3.69H54.6V245c0,1.15.57,1.67,1.6,1.67a4.18,4.18,0,0,0,1.54-.28v4.11a11.38,11.38,0,0,1-3,.46C51.18,250.93,49.19,249.2,49.19,245.49Z" fill="#fff"/><path d="M58.92,242.86v-.24c0-5.08,3.77-8.28,8.55-8.28,4.32,0,8,2.48,8,8.16v1.42H64.38c.16,2.08,1.36,3.29,3.3,3.29,1.78,0,2.54-.82,2.75-1.87H75.5c-.48,3.56-3.23,5.59-8,5.59C62.54,250.93,58.92,248,58.92,242.86Zm11.33-2c-.1-1.9-1-3-2.78-3s-2.75,1.06-3,3Z" fill="#fff"/><path d="M77.38,234.76h5.41v3.14a5,5,0,0,1,5.1-3.35v5c-3.29-.09-5.1.93-5.1,3.47v7.49H77.38Z" fill="#fff"/><path d="M88.86,242.86v-.24c0-5.08,3.78-8.28,8.55-8.28,4.32,0,8,2.48,8,8.16v1.42H94.33c.15,2.08,1.36,3.29,3.29,3.29,1.78,0,2.54-.82,2.75-1.87h5.08c-.49,3.56-3.24,5.59-8,5.59C92.49,250.93,88.86,248,88.86,242.86Zm11.33-2c-.09-1.9-1-3-2.78-3s-2.75,1.06-3,3Z" fill="#fff"/><path d="M106.41,245.55h5c.18,1.15.69,1.78,2.23,1.78,1.33,0,1.94-.51,1.94-1.3s-.76-1.12-2.93-1.42c-4.23-.54-6-1.78-6-5.07,0-3.51,3.12-5.2,6.77-5.2,3.9,0,6.62,1.33,7,5.1h-4.89a1.77,1.77,0,0,0-2-1.57c-1.18,0-1.78.52-1.78,1.24s.72,1.06,2.66,1.3c4.38.55,6.49,1.69,6.49,5.08,0,3.74-2.78,5.44-7.16,5.44S106.53,249.05,106.41,245.55Z" fill="#fff"/><path d="M123.3,245.49v-7h-1.9v-3.69h1.9v-3.29h5.41v3.29h3.11v3.69h-3.11V245c0,1.15.58,1.67,1.6,1.67a4.11,4.11,0,0,0,1.54-.28v4.11a11.31,11.31,0,0,1-3,.46C125.3,250.93,123.3,249.2,123.3,245.49Z" fill="#fff"/><path d="M133.67,247.84a3,3,0,0,1,3.08-3.05,3.06,3.06,0,1,1,0,6.11A3,3,0,0,1,133.67,247.84Z" fill="#fff"/><path d="M22.08,264.82h7L36,277V264.82h5.41v21.61h-6l-7.89-13.57v13.57H22.08Z" fill="#fff"/><path d="M43.57,278.72v-.24c0-5.08,3.77-8.28,8.67-8.28s8.61,3.11,8.61,8.13v.24c0,5.14-3.78,8.22-8.64,8.22S43.57,283.83,43.57,278.72Zm11.78-.09v-.24c0-2.66-1.06-4.14-3.11-4.14s-3.14,1.42-3.14,4.08v.24c0,2.72,1,4.2,3.14,4.2S55.35,281.26,55.35,278.63Z" fill="#fff"/><path d="M68.4,263.68h5.38v22.75H68.4Z" fill="#fff"/><path d="M75.84,278.72v-.24c0-5.08,3.77-8.28,8.67-8.28s8.61,3.11,8.61,8.13v.24c0,5.14-3.78,8.22-8.64,8.22S75.84,283.83,75.84,278.72Zm11.78-.09v-.24c0-2.66-1.06-4.14-3.11-4.14s-3.14,1.42-3.14,4.08v.24c0,2.72,1,4.2,3.14,4.2S87.62,281.26,87.62,278.63Z" fill="#fff"/><path d="M94.12,282c0-3.71,3.14-5.16,8.4-5.16H104v-.36c0-1.52-.37-2.51-2.09-2.51a1.93,1.93,0,0,0-2.14,1.87H94.72c.24-3.81,3.23-5.68,7.55-5.68s7.13,1.78,7.13,6v10.25h-5.25v-1.85a5.2,5.2,0,0,1-4.69,2.21C96.62,286.79,94.12,285.4,94.12,282ZM104,280.9v-1h-1.42c-2.18,0-3.15.42-3.15,1.72,0,.91.61,1.48,1.88,1.48C102.88,283.13,104,282.26,104,280.9Z" fill="#fff"/><path d="M112,270.62h5.41v2.54a5.59,5.59,0,0,1,5.2-3c3,0,5.16,1.9,5.16,5.95v10.28h-5.4v-9.19c0-1.78-.7-2.66-2.27-2.66s-2.69,1-2.69,3v8.86H112Z" fill="#fff"/><path d="M22.42,310.17h-2v-3.68h2V305.1c0-3.93,2.44-5.8,6.19-5.8a9.74,9.74,0,0,1,2.48.33v4a5,5,0,0,0-1.48-.21,1.59,1.59,0,0,0-1.82,1.72v1.39H31v3.68H27.79v12.12H22.42Z" fill="#fff"/><path d="M31.42,314.58v-.24c0-5.07,3.78-8.28,8.55-8.28,4.32,0,8,2.48,8,8.16v1.42H36.89c.15,2.09,1.36,3.29,3.29,3.29s2.54-.81,2.75-1.87H48c-.49,3.57-3.23,5.59-8,5.59C35.05,322.65,31.42,319.75,31.42,314.58Zm11.33-2c-.09-1.9-1-3-2.78-3s-2.75,1.06-3,3Z" fill="#fff"/><path d="M49,314.58v-.24c0-5.07,3.77-8.28,8.55-8.28,4.32,0,8,2.48,8,8.16v1.42H54.5c.16,2.09,1.36,3.29,3.3,3.29,1.78,0,2.54-.81,2.75-1.87h5.07c-.48,3.57-3.23,5.59-8,5.59C52.66,322.65,49,319.75,49,314.58Zm11.33-2c-.09-1.9-1-3-2.78-3s-2.75,1.06-3,3Z" fill="#fff"/><path d="M66.59,317.27h5c.18,1.15.69,1.79,2.23,1.79,1.33,0,1.94-.52,1.94-1.3s-.76-1.12-2.94-1.42c-4.23-.55-6-1.79-6-5.08,0-3.5,3.11-5.2,6.77-5.2,3.9,0,6.62,1.33,7,5.11h-4.9a1.76,1.76,0,0,0-2-1.57c-1.18,0-1.78.51-1.78,1.24s.72,1.05,2.66,1.3c4.38.54,6.49,1.69,6.49,5.07,0,3.75-2.78,5.44-7.16,5.44S66.71,320.78,66.59,317.27Z" fill="#fff"/><path d="M82.54,319.57a3,3,0,0,1,3.09-3.05,3.05,3.05,0,1,1,0,6.1A3,3,0,0,1,82.54,319.57Z" fill="#fff"/></g></g></svg>