<svg xmlns="http://www.w3.org/2000/svg" viewBox="0 0 728 90"><title>H11</title><g id="Layer_2" data-name="Layer 2"><g id="Rect"><rect width="728" height="90" fill="none"/></g><g id="H11"><g id="File_for_nada_zilch_zip_with_H_R_Block_Online." data-name="File for nada, zilch, zip with H&amp;R Block Online."><path d="M122.28,15.25h15.94V20.5h-9.14v5h7.29v5h-7.29v8.35h-6.8Z" fill="#fff"/><path d="M139.9,16.9a3.26,3.26,0,1,1,3.23,3A3.08,3.08,0,0,1,139.9,16.9Zm.3,4.69h5.9V38.85h-5.9Z" fill="#fff"/><path d="M149.44,14h5.87V38.85h-5.87Z" fill="#fff"/><path d="M157.55,30.43v-.26c0-5.55,4.13-9,9.34-9,4.72,0,8.78,2.71,8.78,8.92v1.55H163.53c.16,2.27,1.48,3.6,3.59,3.6,1.95,0,2.78-.9,3-2h5.54c-.52,3.89-3.53,6.1-8.74,6.1C161.51,39.24,157.55,36.08,157.55,30.43Zm12.38-2.18c-.1-2.08-1.12-3.23-3-3.23s-3,1.15-3.3,3.23Z" fill="#fff"/><path d="M184.61,25.61h-2.17v-4h2.17V20.07c0-4.29,2.68-6.34,6.77-6.34a10.5,10.5,0,0,1,2.71.37v4.32a5.52,5.52,0,0,0-1.62-.23,1.73,1.73,0,0,0-2,1.88v1.52H194v4h-3.5V38.85h-5.88Z" fill="#fff"/><path d="M194.45,30.43v-.26c0-5.55,4.12-9,9.47-9s9.41,3.4,9.41,8.88v.27c0,5.61-4.13,9-9.44,9S194.45,36,194.45,30.43Zm12.87-.1v-.26c0-2.9-1.16-4.52-3.4-4.52s-3.43,1.55-3.43,4.45v.27c0,3,1.15,4.58,3.43,4.58S207.32,33.21,207.32,30.33Z" fill="#fff"/><path d="M215.4,21.59h5.91V25a5.43,5.43,0,0,1,5.58-3.66v5.51c-3.6-.1-5.58,1-5.58,3.79v8.19H215.4Z" fill="#fff"/><path d="M235,21.59h5.9v2.77a6.11,6.11,0,0,1,5.68-3.24c3.33,0,5.65,2.08,5.65,6.51V38.85h-5.91v-10c0-1.95-.76-2.91-2.48-2.91s-2.94,1.06-2.94,3.27v9.67H235Z" fill="#fff"/><path d="M254.14,34.06c0-4.06,3.44-5.64,9.18-5.64H265V28c0-1.65-.4-2.74-2.28-2.74a2.12,2.12,0,0,0-2.34,2H254.8c.27-4.16,3.53-6.21,8.25-6.21s7.79,1.95,7.79,6.54V38.85H265.1v-2c-.82,1.25-2.34,2.4-5.12,2.4C256.88,39.24,254.14,37.73,254.14,34.06ZM265,32.81V31.75h-1.55c-2.38,0-3.44.46-3.44,1.88,0,1,.67,1.62,2,1.62C263.71,35.25,265,34.29,265,32.81Z" fill="#fff"/><path d="M272.85,30.4v-.26c0-5.88,3.24-9,7.33-9A5.59,5.59,0,0,1,285.49,24V14h5.91V38.85h-5.91V36a5.79,5.79,0,0,1-5.38,3.2C276.12,39.24,272.85,36.37,272.85,30.4Zm12.81-.1V30c0-2.91-1.22-4.46-3.4-4.46s-3.4,1.49-3.4,4.49v.26c0,2.91,1.29,4.39,3.33,4.39S285.66,33.24,285.66,30.3Z" fill="#fff"/><path d="M293.41,34.06c0-4.06,3.44-5.64,9.18-5.64h1.65V28c0-1.65-.4-2.74-2.28-2.74a2.12,2.12,0,0,0-2.34,2h-5.55c.27-4.16,3.53-6.21,8.25-6.21s7.79,1.95,7.79,6.54V38.85h-5.74v-2c-.83,1.25-2.34,2.4-5.12,2.4C296.15,39.24,293.41,37.73,293.41,34.06Zm10.83-1.25V31.75h-1.55c-2.38,0-3.44.46-3.44,1.88,0,1,.66,1.62,2.05,1.62C303,35.25,304.24,34.29,304.24,32.81Z" fill="#fff"/><path d="M311.76,41.52l2.77-8.68L320,34.79l-4.75,8.09Z" fill="#fff"/><path d="M327.17,38.25,334.73,26H328V21.59h15.22v.62l-7.76,12.18h7.36v4.46H327.17Z" fill="#fff"/><path d="M344.73,16.9A3.08,3.08,0,0,1,348,13.83a3.06,3.06,0,1,1,0,6.11A3.06,3.06,0,0,1,344.73,16.9Zm.29,4.69h5.91V38.85H345Z" fill="#fff"/><path d="M354.26,14h5.88V38.85h-5.88Z" fill="#fff"/><path d="M362.38,30.43v-.26c0-5.74,4.13-9,9.21-9,4.22,0,8.12,1.85,8.45,7.1h-5.55c-.26-1.62-1.05-2.51-2.77-2.51-2.08,0-3.3,1.49-3.3,4.39v.27c0,3,1.16,4.55,3.4,4.55a2.87,2.87,0,0,0,3-2.87h5.32c-.17,4.36-3.1,7.19-8.68,7.19C366.31,39.24,362.38,36.24,362.38,30.43Z" fill="#fff"/><path d="M382.05,14H388V24.36a6.09,6.09,0,0,1,5.67-3.24c3.34,0,5.65,2.08,5.65,6.51V38.85h-5.91v-10c0-1.95-.76-2.91-2.48-2.91S388,27,388,29.18v9.67h-5.91Z" fill="#fff"/><path d="M400.92,41.52l2.78-8.68,5.48,1.95-4.76,8.09Z" fill="#fff"/><path d="M416.34,38.25,423.89,26h-6.76V21.59h15.21v.62l-7.75,12.18H432v4.46H416.34Z" fill="#fff"/><path d="M433.89,16.9a3.26,3.26,0,1,1,3.24,3A3.09,3.09,0,0,1,433.89,16.9Zm.3,4.69h5.91V38.85h-5.91Z" fill="#fff"/><path d="M443.26,21.59h5.91v2.57a6.09,6.09,0,0,1,5.38-3c4,0,7.3,3,7.3,9v.26c0,5.94-3.27,8.91-7.33,8.91a5.7,5.7,0,0,1-5.35-2.93v8.31h-5.91Zm12.58,8.74v-.26c0-3-1.32-4.49-3.4-4.49S449,27.13,449,30v.26c0,2.94,1.28,4.42,3.43,4.42S455.84,33.17,455.84,30.33Z" fill="#fff"/><path d="M468.54,21.59h6.17l2.51,10.33,2.9-10.33h4.76l2.57,10.33,2.81-10.33h5.61l-5.48,17.26h-5.64l-2.58-9.64-2.67,9.64h-5.74Z" fill="#fff"/><path d="M497.25,16.9a3.26,3.26,0,1,1,3.24,3A3.09,3.09,0,0,1,497.25,16.9Zm.3,4.69h5.91V38.85h-5.91Z" fill="#fff"/><path d="M507.42,33.3V25.61h-2.09v-4h2.09V18h5.9v3.6h3.4v4h-3.4v7.13c0,1.26.63,1.82,1.75,1.82a4.42,4.42,0,0,0,1.68-.3v4.49a12.26,12.26,0,0,1-3.26.49C509.59,39.24,507.42,37.36,507.42,33.3Z" fill="#fff"/><path d="M519,14h5.91V24.36a6.11,6.11,0,0,1,5.68-3.24c3.33,0,5.64,2.08,5.64,6.51V38.85h-5.9v-10c0-1.95-.76-2.91-2.48-2.91s-2.94,1.06-2.94,3.27v9.67H519Z" fill="#fff"/><path d="M122.28,50.25h6.8v9h7.75v-9h6.77v23.6h-6.77V64.54h-7.75v9.31h-6.8Z" fill="#fff"/><path d="M166.24,69l3.92,4.82h-7.69l-1.38-1.72a9.4,9.4,0,0,1-6.37,2.12c-5,0-8.29-2.65-8.29-7.13,0-3,1.85-5.29,5.18-6.87a7.53,7.53,0,0,1-1.45-4.13c0-4,3.44-6.17,7.59-6.17,3.77,0,7.17,1.88,7.17,5.51,0,2.58-1.52,4.46-4.72,5.85l3,3.63,1.71-3.37H170Zm-8.19-.69-3.73-4.49a2.79,2.79,0,0,0-1.58,2.54,2.74,2.74,0,0,0,3,2.94A3.1,3.1,0,0,0,158.05,68.34Zm-.73-9.51c1.59-.76,2.35-1.65,2.35-2.87a1.7,1.7,0,0,0-1.75-1.82,1.89,1.89,0,0,0-1.95,2A4.35,4.35,0,0,0,157.32,58.83Z" fill="#fff"/><path d="M172.31,50.25h9.24c6.17,0,9.6,2.51,9.6,7.49v.13a6.17,6.17,0,0,1-4.26,6.21l5.65,9.77h-7.13l-4.79-8.45H179v8.45h-6.73ZM181.22,61q3.41,0,3.4-2.87V58c0-1.92-1.19-2.68-3.37-2.68H179V61Z" fill="#fff"/><path d="M200.82,50.25h10.52c5.58,0,8,2.51,8,6.17v.13a4.87,4.87,0,0,1-4,5.09c2.9.49,4.72,2.24,4.72,5.51v.13c0,4.22-2.74,6.57-8.59,6.57H200.82ZM210,59.62c2.11,0,2.91-.72,2.91-2.41v-.13c0-1.62-.86-2.34-2.91-2.34h-2.57v4.88Zm.23,9.71c2.15,0,3.14-1,3.14-2.74v-.13c0-1.79-1-2.71-3.34-2.71h-2.6v5.58Z" fill="#fff"/><path d="M222.36,49h5.88V73.85h-5.88Z" fill="#fff"/><path d="M230.48,65.43v-.26c0-5.55,4.13-9.05,9.47-9.05s9.41,3.4,9.41,8.88v.27c0,5.61-4.12,9-9.44,9S230.48,71,230.48,65.43Zm12.87-.1v-.26c0-2.9-1.15-4.52-3.4-4.52s-3.43,1.55-3.43,4.45v.27c0,3,1.16,4.59,3.43,4.59S243.35,68.21,243.35,65.33Z" fill="#fff"/><path d="M250.51,65.43v-.26c0-5.74,4.13-9.05,9.21-9.05,4.23,0,8.12,1.85,8.45,7.1h-5.54c-.27-1.62-1.06-2.51-2.78-2.51-2.08,0-3.3,1.49-3.3,4.39v.27c0,3,1.16,4.55,3.4,4.55a2.88,2.88,0,0,0,3-2.87h5.31c-.17,4.36-3.1,7.2-8.68,7.2C254.44,74.25,250.51,71.24,250.51,65.43Z" fill="#fff"/><path d="M270.18,49h5.91V63.42l4.65-6.83h6.14l-5.64,7.75,6.1,9.51h-6.6l-4.65-7.56v7.56h-5.91Z" fill="#fff"/><path d="M294,62.2v-.27c0-7.19,5.41-12,12.47-12S319,54.44,319,61.77V62c0,7.26-5,12.22-12.61,12.22S294,69.29,294,62.2Zm17.92-.07v-.26c0-4.19-2.11-6.67-5.45-6.67s-5.41,2.41-5.41,6.7v.27c0,4.29,2.18,6.76,5.45,6.76S311.93,66.36,311.93,62.13Z" fill="#fff"/><path d="M321.26,56.59h5.91v2.77a6.11,6.11,0,0,1,5.68-3.24c3.33,0,5.64,2.08,5.64,6.51V73.85h-5.91v-10c0-2-.75-2.91-2.47-2.91s-2.94,1.06-2.94,3.27v9.67h-5.91Z" fill="#fff"/><path d="M341.53,49h5.87V73.85h-5.87Z" fill="#fff"/><path d="M350.44,51.9a3.08,3.08,0,0,1,3.23-3.07,3.06,3.06,0,1,1,0,6.11A3.06,3.06,0,0,1,350.44,51.9Zm.29,4.69h5.91V73.85h-5.91Z" fill="#fff"/><path d="M359.81,56.59h5.91v2.77a6.09,6.09,0,0,1,5.67-3.24c3.34,0,5.65,2.08,5.65,6.51V73.85h-5.91v-10c0-2-.76-2.91-2.48-2.91s-2.93,1.06-2.93,3.27v9.67h-5.91Z" fill="#fff"/><path d="M379,65.43v-.26c0-5.55,4.13-9.05,9.34-9.05,4.72,0,8.78,2.71,8.78,8.92v1.55H385c.17,2.28,1.49,3.6,3.6,3.6,1.95,0,2.77-.9,3-2h5.55c-.53,3.89-3.53,6.11-8.75,6.11C382.94,74.25,379,71.08,379,65.43Zm12.38-2.18c-.1-2.08-1.13-3.23-3-3.23s-3,1.15-3.3,3.23Z" fill="#fff"/><path d="M398.75,70.88a3.29,3.29,0,0,1,3.36-3.34,3.34,3.34,0,1,1,0,6.67A3.29,3.29,0,0,1,398.75,70.88Z" fill="#fff"/></g></g></g></svg>