<svg xmlns="http://www.w3.org/2000/svg" viewBox="0 0 728 90"><title>H11</title><g id="Layer_2" data-name="Layer 2"><g id="Rect"><rect width="728" height="90" fill="none"/></g><g id="H11"><g id="File_for_nada_zilch_zip." data-name="File for nada, zilch, zip."><path d="M122.84,28.56h19.85v6.53H131.3v6.25h9.09v6.21H131.3V58h-8.46Z" fill="#fff"/><path d="M144.78,30.61a4.06,4.06,0,1,1,4,3.78A3.84,3.84,0,0,1,144.78,30.61Zm.37,5.84h7.36V58h-7.36Z" fill="#fff"/><path d="M156.66,27H164V58h-7.32Z" fill="#fff"/><path d="M166.77,47.47v-.33c0-6.91,5.14-11.27,11.63-11.27,5.88,0,10.94,3.37,10.94,11.1V48.9H174.21c.21,2.84,1.85,4.48,4.48,4.48,2.43,0,3.46-1.1,3.74-2.54h6.91c-.66,4.85-4.4,7.6-10.89,7.6C171.7,58.44,166.77,54.5,166.77,47.47Zm15.42-2.72c-.13-2.59-1.4-4-3.79-4-2.21,0-3.74,1.44-4.11,4Z" fill="#fff"/><path d="M200.47,41.46h-2.71v-5h2.71V34.56c0-5.35,3.33-7.89,8.43-7.89a13,13,0,0,1,3.37.45V32.5a6.85,6.85,0,0,0-2-.29,2.17,2.17,0,0,0-2.47,2.35v1.89h4.36v5h-4.36V58h-7.32Z" fill="#fff"/><path d="M212.72,47.47v-.33c0-6.91,5.14-11.27,11.8-11.27s11.71,4.24,11.71,11.06v.33c0,7-5.13,11.18-11.75,11.18S212.72,54.41,212.72,47.47Zm16-.13V47c0-3.61-1.44-5.63-4.23-5.63s-4.28,1.93-4.28,5.55v.33c0,3.7,1.44,5.71,4.28,5.71S228.75,50.92,228.75,47.34Z" fill="#fff"/><path d="M238.82,36.45h7.36v4.27a6.77,6.77,0,0,1,6.94-4.56V43c-4.48-.13-6.94,1.27-6.94,4.72V58h-7.36Z" fill="#fff"/><path d="M263.27,36.45h7.36V39.9a7.58,7.58,0,0,1,7.07-4c4.15,0,7,2.59,7,8.1V58h-7.36V45.45c0-2.42-.94-3.62-3.08-3.62s-3.66,1.32-3.66,4.07V58h-7.36Z" fill="#fff"/><path d="M287.07,52c0-5.06,4.27-7,11.43-7h2.05v-.5c0-2.05-.49-3.41-2.83-3.41a2.64,2.64,0,0,0-2.92,2.55h-6.91c.33-5.18,4.4-7.73,10.28-7.73s9.7,2.43,9.7,8.14V58h-7.15V55.44c-1,1.56-2.92,3-6.37,3C290.48,58.44,287.07,56.55,287.07,52Zm13.48-1.56V49.11h-1.93c-3,0-4.27.58-4.27,2.34,0,1.24.82,2,2.54,2C299,53.47,300.55,52.28,300.55,50.43Z" fill="#fff"/><path d="M310.37,47.42V47.1c0-7.32,4-11.23,9.13-11.23a7,7,0,0,1,6.62,3.62V27h7.35V58h-7.35v-3.5a7.26,7.26,0,0,1-6.7,4C314.44,58.44,310.37,54.87,310.37,47.42Zm15.95-.12V47c0-3.62-1.52-5.55-4.23-5.55s-4.24,1.85-4.24,5.59v.33c0,3.62,1.61,5.47,4.16,5.47S326.32,51,326.32,47.3Z" fill="#fff"/><path d="M336,52c0-5.06,4.27-7,11.43-7h2v-.5c0-2.05-.49-3.41-2.84-3.41a2.64,2.64,0,0,0-2.91,2.55H336.8c.33-5.18,4.4-7.73,10.28-7.73s9.7,2.43,9.7,8.14V58h-7.16V55.44c-1,1.56-2.91,3-6.37,3C339.39,58.44,336,56.55,336,52Zm13.48-1.56V49.11h-1.93c-3,0-4.28.58-4.28,2.34,0,1.24.83,2,2.55,2C347.9,53.47,349.46,52.28,349.46,50.43Z" fill="#fff"/><path d="M358.83,61.28l3.45-10.81,6.83,2.42L363.19,63Z" fill="#fff"/><path d="M378,57.21,387.44,42H379V36.45H398v.78L388.3,52.4h9.17V58H378Z" fill="#fff"/><path d="M399.89,30.61a3.83,3.83,0,0,1,4-3.82,3.81,3.81,0,1,1,0,7.6A3.8,3.8,0,0,1,399.89,30.61Zm.37,5.84h7.36V58h-7.36Z" fill="#fff"/><path d="M411.76,27h7.32V58h-7.32Z" fill="#fff"/><path d="M421.88,47.47v-.33c0-7.16,5.13-11.27,11.46-11.27,5.27,0,10.12,2.31,10.53,8.84H437c-.33-2-1.31-3.12-3.45-3.12-2.59,0-4.11,1.85-4.11,5.46v.33c0,3.74,1.44,5.68,4.23,5.68a3.58,3.58,0,0,0,3.74-3.58H444c-.2,5.43-3.86,9-10.81,9C426.77,58.44,421.88,54.7,421.88,47.47Z" fill="#fff"/><path d="M446.37,27h7.36V39.9a7.58,7.58,0,0,1,7.07-4c4.15,0,7,2.59,7,8.1V58h-7.36V45.45c0-2.42-1-3.62-3.08-3.62s-3.66,1.32-3.66,4.07V58h-7.36Z" fill="#fff"/><path d="M469.88,61.28l3.45-10.81,6.83,2.42L474.24,63Z" fill="#fff"/><path d="M489.07,57.21,498.49,42h-8.43V36.45H509v.78L499.35,52.4h9.17V58H489.07Z" fill="#fff"/><path d="M510.94,30.61a3.83,3.83,0,0,1,4-3.82,3.81,3.81,0,1,1,0,7.6A3.8,3.8,0,0,1,510.94,30.61Zm.37,5.84h7.36V58h-7.36Z" fill="#fff"/><path d="M522.61,36.45H530v3.21a7.58,7.58,0,0,1,6.7-3.79c5,0,9.08,3.79,9.08,11.14v.33c0,7.4-4.07,11.1-9.12,11.1-3.25,0-5.59-1.52-6.66-3.66V65.14h-7.36Zm15.66,10.89V47c0-3.78-1.64-5.59-4.23-5.59s-4.28,1.93-4.28,5.55v.33c0,3.66,1.61,5.51,4.28,5.51S538.27,50.88,538.27,47.34Z" fill="#fff"/><path d="M547.6,54.25a4.1,4.1,0,0,1,4.19-4.15,4.15,4.15,0,1,1,0,8.3A4.1,4.1,0,0,1,547.6,54.25Z" fill="#fff"/></g></g></g></svg>