<svg xmlns="http://www.w3.org/2000/svg" viewBox="0 0 300 250"><title>Asset 1</title><g id="Layer_2" data-name="Layer 2"><g id="rect"><rect width="300" height="250" fill="none"/></g><g id="Open_and_ready_to_safely_get_your_maximum_refund." data-name="Open and ready  to safely get your maximum refund."><path d="M21.93,46.63v-.24c0-6.54,4.92-10.92,11.34-10.92s11.37,4.11,11.37,10.77v.24c0,6.6-4.53,11.1-11.46,11.1S21.93,53.08,21.93,46.63Zm16.29-.06v-.24c0-3.81-1.92-6.06-4.95-6.06s-4.92,2.19-4.92,6.09v.24c0,3.9,2,6.15,4.95,6.15S38.22,50.41,38.22,46.57Z" fill="#fff"/><path d="M46.71,41.53h5.37v2.34A5.54,5.54,0,0,1,57,41.11c3.66,0,6.63,2.76,6.63,8.13v.24c0,5.4-3,8.1-6.66,8.1a5.17,5.17,0,0,1-4.86-2.67v7.56H46.71Zm11.43,7.95v-.24c0-2.76-1.2-4.08-3.09-4.08s-3.12,1.41-3.12,4.05v.24c0,2.67,1.17,4,3.12,4S58.14,52.06,58.14,49.48Z" fill="#fff"/><path d="M64.71,49.57v-.24c0-5,3.75-8.22,8.49-8.22,4.29,0,8,2.46,8,8.1v1.41h-11c.15,2.07,1.35,3.27,3.27,3.27s2.52-.81,2.73-1.86h5c-.48,3.54-3.21,5.55-8,5.55C68.31,57.58,64.71,54.7,64.71,49.57Zm11.25-2c-.09-1.89-1-2.94-2.76-2.94s-2.73,1.05-3,2.94Z" fill="#fff"/><path d="M83,41.53h5.37v2.52a5.54,5.54,0,0,1,5.16-2.94c3,0,5.13,1.89,5.13,5.91v10.2H93.33V48.1c0-1.77-.69-2.64-2.25-2.64s-2.67,1-2.67,3v8.79H83Z" fill="#fff"/><path d="M105.87,52.87c0-3.69,3.12-5.13,8.34-5.13h1.5v-.36c0-1.5-.36-2.49-2.07-2.49a1.93,1.93,0,0,0-2.13,1.86h-5c.24-3.78,3.21-5.64,7.5-5.64s7.08,1.77,7.08,5.94V57.22h-5.22V55.39a5.15,5.15,0,0,1-4.65,2.19C108.36,57.58,105.87,56.2,105.87,52.87Zm9.84-1.14v-1H114.3c-2.16,0-3.12.42-3.12,1.71,0,.9.6,1.47,1.86,1.47C114.57,54,115.71,53.08,115.71,51.73Z" fill="#fff"/><path d="M123.66,41.53H129v2.52a5.54,5.54,0,0,1,5.16-2.94c3,0,5.13,1.89,5.13,5.91v10.2H134V48.1c0-1.77-.69-2.64-2.25-2.64s-2.67,1-2.67,3v8.79h-5.37Z" fill="#fff"/><path d="M141.15,49.54V49.3c0-5.34,2.94-8.19,6.66-8.19a5.09,5.09,0,0,1,4.83,2.64V34.63H158V57.22h-5.37V54.67a5.29,5.29,0,0,1-4.89,2.91C144.12,57.58,141.15,55,141.15,49.54Zm11.64-.09v-.24c0-2.64-1.11-4.05-3.09-4.05s-3.09,1.35-3.09,4.08v.24c0,2.64,1.17,4,3,4S152.79,52.12,152.79,49.45Z" fill="#fff"/><path d="M166.2,41.53h5.37v3.12a4.94,4.94,0,0,1,5.07-3.33v5c-3.27-.09-5.07.93-5.07,3.45v7.44H166.2Z" fill="#fff"/><path d="M177.6,49.57v-.24c0-5,3.75-8.22,8.49-8.22,4.29,0,8,2.46,8,8.1v1.41H183c.15,2.07,1.35,3.27,3.27,3.27,1.77,0,2.52-.81,2.73-1.86h5c-.48,3.54-3.21,5.55-7.95,5.55C181.2,57.58,177.6,54.7,177.6,49.57Zm11.25-2c-.09-1.89-1-2.94-2.76-2.94s-2.73,1.05-3,2.94Z" fill="#fff"/><path d="M195.18,52.87c0-3.69,3.12-5.13,8.34-5.13H205v-.36c0-1.5-.36-2.49-2.07-2.49a1.93,1.93,0,0,0-2.13,1.86h-5c.24-3.78,3.21-5.64,7.5-5.64s7.08,1.77,7.08,5.94V57.22h-5.22V55.39a5.15,5.15,0,0,1-4.65,2.19C197.67,57.58,195.18,56.2,195.18,52.87ZM205,51.73v-1h-1.41c-2.16,0-3.12.42-3.12,1.71,0,.9.6,1.47,1.86,1.47C203.88,54,205,53.08,205,51.73Z" fill="#fff"/><path d="M212.19,49.54V49.3c0-5.34,2.94-8.19,6.66-8.19a5.09,5.09,0,0,1,4.83,2.64V34.63h5.37V57.22h-5.37V54.67a5.29,5.29,0,0,1-4.89,2.91C215.16,57.58,212.19,55,212.19,49.54Zm11.64-.09v-.24c0-2.64-1.11-4.05-3.09-4.05s-3.09,1.35-3.09,4.08v.24c0,2.64,1.17,4,3,4S223.83,52.12,223.83,49.45Z" fill="#fff"/><path d="M236.7,55.63l-6.27-14.1h5.82l3.24,8.37,3-8.37h5.13l-8.4,20.94h-5.13Z" fill="#fff"/><path d="M23.31,85.32v-7H21.42V74.67h1.89V71.4h5.37v3.27h3.09v3.66H28.68v6.48a1.43,1.43,0,0,0,1.59,1.65,4.09,4.09,0,0,0,1.53-.27v4.08a11.27,11.27,0,0,1-3,.45C25.29,90.72,23.31,89,23.31,85.32Z" fill="#fff"/><path d="M33,82.71v-.24c0-5,3.75-8.22,8.61-8.22s8.55,3.09,8.55,8.07v.24c0,5.1-3.75,8.16-8.58,8.16S33,87.78,33,82.71Zm11.7-.09v-.24c0-2.64-1.05-4.11-3.09-4.11s-3.12,1.41-3.12,4v.24c0,2.7,1,4.17,3.12,4.17S44.67,85.23,44.67,82.62Z" fill="#fff"/><path d="M56.43,85.38h5c.18,1.14.69,1.77,2.22,1.77,1.32,0,1.92-.51,1.92-1.29s-.75-1.11-2.91-1.41c-4.2-.54-6-1.77-6-5,0-3.48,3.09-5.16,6.72-5.16,3.87,0,6.57,1.32,6.93,5.07H65.43a1.75,1.75,0,0,0-2-1.56c-1.17,0-1.77.51-1.77,1.23s.72,1.05,2.64,1.29c4.35.54,6.45,1.68,6.45,5,0,3.72-2.76,5.4-7.11,5.4S56.55,88.86,56.43,85.38Z" fill="#fff"/><path d="M71.58,86c0-3.69,3.12-5.13,8.34-5.13h1.5v-.36c0-1.5-.36-2.49-2.07-2.49a1.93,1.93,0,0,0-2.13,1.86h-5c.24-3.78,3.21-5.64,7.5-5.64s7.08,1.77,7.08,5.94V90.36H81.54V88.53a5.15,5.15,0,0,1-4.65,2.19C74.07,90.72,71.58,89.34,71.58,86Zm9.84-1.14v-1H80c-2.16,0-3.12.42-3.12,1.71,0,.9.6,1.47,1.86,1.47C80.28,87.09,81.42,86.22,81.42,84.87Z" fill="#fff"/><path d="M90.18,78.33h-2V74.67h2V73.29c0-3.9,2.43-5.76,6.15-5.76a9.57,9.57,0,0,1,2.46.33v3.93a4.93,4.93,0,0,0-1.47-.21,1.58,1.58,0,0,0-1.8,1.71v1.38H98.7v3.66H95.52v12H90.18Z" fill="#fff"/><path d="M99.12,82.71v-.24c0-5,3.75-8.22,8.49-8.22,4.29,0,8,2.46,8,8.1v1.41h-11c.15,2.07,1.35,3.27,3.27,3.27s2.52-.81,2.73-1.86h5c-.48,3.54-3.21,5.55-8,5.55C102.72,90.72,99.12,87.84,99.12,82.71Zm11.25-2c-.09-1.89-1-2.94-2.76-2.94s-2.73,1-3,2.94Z" fill="#fff"/><path d="M117.6,67.77h5.34V90.36H117.6Z" fill="#fff"/><path d="M130.74,88.77l-6.27-14.1h5.82L133.53,83l3-8.37h5.13l-8.4,20.94h-5.13Z" fill="#fff"/><path d="M147.63,90.36H153c.24,1.14.93,2,2.88,2,2.37,0,3.33-1.35,3.33-3.3V86.7a5.5,5.5,0,0,1-4.86,2.88c-3.66,0-6.66-2.7-6.66-7.53v-.24c0-4.62,3-7.56,6.66-7.56a5.1,5.1,0,0,1,4.86,2.64V74.67h5.37V89c0,4.68-3.09,7.14-8.7,7.14C150.51,96.18,148.05,93.93,147.63,90.36ZM159.33,82v-.21c0-2.16-1.11-3.54-3.09-3.54s-3.09,1.41-3.09,3.57v.24c0,2.16,1.14,3.54,3.06,3.54S159.33,84.24,159.33,82Z" fill="#fff"/><path d="M166.44,82.71v-.24c0-5,3.75-8.22,8.49-8.22,4.29,0,8,2.46,8,8.1v1.41h-11c.15,2.07,1.35,3.27,3.27,3.27s2.52-.81,2.73-1.86h5c-.48,3.54-3.21,5.55-7.95,5.55C170,90.72,166.44,87.84,166.44,82.71Zm11.25-2c-.09-1.89-1-2.94-2.76-2.94s-2.73,1-3,2.94Z" fill="#fff"/><path d="M185.49,85.32v-7H183.6V74.67h1.89V71.4h5.37v3.27H194v3.66h-3.09v6.48a1.43,1.43,0,0,0,1.59,1.65,4.09,4.09,0,0,0,1.53-.27v4.08a11.27,11.27,0,0,1-3,.45C187.47,90.72,185.49,89,185.49,85.32Z" fill="#fff"/><path d="M206.37,88.77l-6.27-14.1h5.82L209.16,83l3-8.37h5.13l-8.4,20.94h-5.13Z" fill="#fff"/><path d="M217,82.71v-.24c0-5,3.75-8.22,8.61-8.22s8.55,3.09,8.55,8.07v.24c0,5.1-3.75,8.16-8.58,8.16S217,87.78,217,82.71Zm11.7-.09v-.24c0-2.64-1.05-4.11-3.09-4.11s-3.12,1.41-3.12,4v.24c0,2.7,1.05,4.17,3.12,4.17S228.69,85.23,228.69,82.62Z" fill="#fff"/><path d="M235.92,84.9V74.67h5.37V84c0,1.77.69,2.64,2.22,2.64s2.67-1,2.67-3v-9h5.37V90.36h-5.37V87.93a5.16,5.16,0,0,1-5,2.79C238.17,90.72,235.92,88.86,235.92,84.9Z" fill="#fff"/><path d="M254.28,74.67h5.37v3.12a4.94,4.94,0,0,1,5.07-3.33v5c-3.27-.09-5.07.93-5.07,3.45v7.44h-5.37Z" fill="#fff"/><path d="M22.59,107.8H28v2.4a5.49,5.49,0,0,1,4.92-2.82A4.27,4.27,0,0,1,37.14,110a6.22,6.22,0,0,1,5.19-2.61c3,0,5.13,1.92,5.13,5.85v10.26H42.09v-9.36c0-1.59-.78-2.37-2-2.37a2.33,2.33,0,0,0-2.4,2.64v9.09H32.37v-9.36c0-1.59-.78-2.37-2-2.37A2.33,2.33,0,0,0,28,114.4v9.09H22.59Z" fill="#fff"/><path d="M49.17,119.14c0-3.69,3.12-5.13,8.34-5.13H59v-.36c0-1.5-.36-2.49-2.07-2.49A1.93,1.93,0,0,0,54.81,113h-5c.24-3.78,3.21-5.64,7.5-5.64s7.08,1.77,7.08,5.94v10.17H59.13v-1.83a5.15,5.15,0,0,1-4.65,2.19C51.66,123.85,49.17,122.47,49.17,119.14ZM59,118v-1H57.6c-2.16,0-3.12.42-3.12,1.71,0,.9.6,1.47,1.86,1.47C57.87,120.22,59,119.35,59,118Z" fill="#fff"/><path d="M70.92,115.51,66,107.8h6.18l2.43,4.14L77,107.8h5.52l-5,7.29,5.43,8.4H76.83L74,118.81l-2.85,4.68H65.7Z" fill="#fff"/><path d="M84.39,103.54a3,3,0,1,1,2.94,2.76A2.8,2.8,0,0,1,84.39,103.54Zm.27,4.26H90v15.69H84.66Z" fill="#fff"/><path d="M92.91,107.8h5.37v2.4a5.49,5.49,0,0,1,4.92-2.82,4.27,4.27,0,0,1,4.26,2.61,6.22,6.22,0,0,1,5.19-2.61c3,0,5.13,1.92,5.13,5.85v10.26h-5.37v-9.36c0-1.59-.78-2.37-2-2.37a2.33,2.33,0,0,0-2.4,2.64v9.09h-5.31v-9.36c0-1.59-.78-2.37-2-2.37a2.33,2.33,0,0,0-2.4,2.64v9.09H92.91Z" fill="#fff"/><path d="M120.27,118V107.8h5.37v9.36c0,1.77.69,2.64,2.22,2.64s2.67-1,2.67-3v-9h5.37v15.69h-5.37v-2.43a5.16,5.16,0,0,1-5,2.79C122.52,123.85,120.27,122,120.27,118Z" fill="#fff"/><path d="M138.63,107.8H144v2.4a5.49,5.49,0,0,1,4.92-2.82,4.27,4.27,0,0,1,4.26,2.61,6.22,6.22,0,0,1,5.19-2.61c3,0,5.13,1.92,5.13,5.85v10.26h-5.37v-9.36c0-1.59-.78-2.37-2-2.37a2.33,2.33,0,0,0-2.4,2.64v9.09h-5.31v-9.36c0-1.59-.78-2.37-2-2.37a2.33,2.33,0,0,0-2.4,2.64v9.09h-5.37Z" fill="#fff"/><path d="M171.57,107.8h5.37v3.12a4.94,4.94,0,0,1,5.07-3.33v5c-3.27-.09-5.07.93-5.07,3.45v7.44h-5.37Z" fill="#fff"/><path d="M183,115.84v-.24c0-5,3.75-8.22,8.48-8.22,4.29,0,8,2.46,8,8.1v1.41h-11c.15,2.07,1.34,3.27,3.26,3.27s2.53-.81,2.74-1.86h5c-.49,3.54-3.21,5.55-7.95,5.55C186.58,123.85,183,121,183,115.84Zm11.24-2c-.09-1.89-1-2.94-2.76-2.94s-2.72,1-3,2.94Z" fill="#fff"/><path d="M202.12,111.46h-2V107.8h2v-1.38c0-3.9,2.43-5.76,6.15-5.76a9.57,9.57,0,0,1,2.46.33v3.93a5,5,0,0,0-1.47-.21,1.58,1.58,0,0,0-1.8,1.71v1.38h3.18v3.66h-3.18v12h-5.34Z" fill="#fff"/><path d="M212.32,118V107.8h5.37v9.36c0,1.77.69,2.64,2.22,2.64s2.67-1,2.67-3v-9H228v15.69h-5.37v-2.43a5.16,5.16,0,0,1-5,2.79C214.57,123.85,212.32,122,212.32,118Z" fill="#fff"/><path d="M230.68,107.8h5.37v2.52a5.54,5.54,0,0,1,5.16-2.94c3,0,5.12,1.89,5.12,5.91v10.2H241v-9.12c0-1.77-.69-2.64-2.25-2.64s-2.67,1-2.67,3v8.79h-5.37Z" fill="#fff"/><path d="M248.17,115.81v-.24c0-5.34,2.94-8.19,6.66-8.19a5.09,5.09,0,0,1,4.83,2.64V100.9H265v22.59h-5.37v-2.55a5.29,5.29,0,0,1-4.89,2.91C251.14,123.85,248.17,121.24,248.17,115.81Zm11.64-.09v-.24c0-2.64-1.11-4-3.09-4s-3.09,1.35-3.09,4.08v.24c0,2.64,1.17,4,3,4S259.81,118.39,259.81,115.72Z" fill="#fff"/><path d="M267.55,120.79a3,3,0,0,1,3.06-3,3,3,0,1,1,0,6.06A3,3,0,0,1,267.55,120.79Z" fill="#fff"/></g></g></svg>