<svg xmlns="http://www.w3.org/2000/svg" viewBox="0 0 160 600"><title>H02</title><g id="Layer_2" data-name="Layer 2"><g id="Rect"><rect width="160" height="600" fill="none"/></g><g id="Claiming_EITC_Try_H_R_Block_Free_Online." data-name="Claiming EITC? Try H&amp;R Block Free Online."><path d="M20.67,70.92v-.17a7.34,7.34,0,0,1,7.67-7.66c3.9,0,6.61,1.81,7,5.77H30.88a2.34,2.34,0,0,0-2.52-2.37c-1.94,0-3.15,1.51-3.15,4.24v.17c0,2.71,1.15,4.24,3.21,4.24a2.58,2.58,0,0,0,2.79-2.45H35.5c-.3,3.88-3.11,5.9-7,5.9C23.25,78.59,20.67,75.52,20.67,70.92Z" fill="#14aa40"/><path d="M36.84,62.52h3.74V78.33H36.84Z" fill="#14aa40"/><path d="M42,75.29c0-2.58,2.18-3.59,5.83-3.59h1.05v-.25c0-1-.25-1.75-1.45-1.75A1.35,1.35,0,0,0,45.91,71H42.39c.16-2.65,2.24-4,5.24-4s5,1.24,5,4.16v7.11H48.94V77.05a3.61,3.61,0,0,1-3.26,1.54C43.71,78.59,42,77.62,42,75.29Zm6.88-.8v-.67h-1c-1.52,0-2.19.29-2.19,1.2,0,.63.42,1,1.3,1C48.05,76,48.85,75.44,48.85,74.49Z" fill="#14aa40"/><path d="M54.33,64.37a2.08,2.08,0,1,1,2.06,1.93A2,2,0,0,1,54.33,64.37Zm.19,3h3.76v11H54.52Z" fill="#14aa40"/><path d="M60.3,67.35h3.76V69a3.82,3.82,0,0,1,3.44-2,3,3,0,0,1,3,1.83,4.34,4.34,0,0,1,3.63-1.83c2.08,0,3.59,1.34,3.59,4.09v7.18H74V71.78c0-1.11-.55-1.66-1.41-1.66A1.63,1.63,0,0,0,70.86,72v6.36H67.14V71.78c0-1.11-.54-1.66-1.4-1.66A1.63,1.63,0,0,0,64.06,72v6.36H60.3Z" fill="#14aa40"/><path d="M79.45,64.37a2,2,0,0,1,2.06-2,1.94,1.94,0,1,1,0,3.88A2,2,0,0,1,79.45,64.37Zm.19,3H83.4v11H79.64Z" fill="#14aa40"/><path d="M85.41,67.35h3.76v1.77a3.87,3.87,0,0,1,3.61-2.06c2.12,0,3.59,1.32,3.59,4.13v7.14H92.62V72c0-1.24-.49-1.85-1.58-1.85s-1.87.67-1.87,2.08v6.15H85.41Z" fill="#14aa40"/><path d="M97.59,78.33h3.74c.17.8.65,1.43,2,1.43a2.07,2.07,0,0,0,2.33-2.31V75.77a3.87,3.87,0,0,1-3.4,2c-2.57,0-4.66-1.89-4.66-5.27v-.17c0-3.23,2.07-5.29,4.66-5.29a3.56,3.56,0,0,1,3.4,1.85V67.35h3.76V77.41c0,3.28-2.17,5-6.09,5C99.61,82.41,97.89,80.83,97.59,78.33Zm8.19-5.83v-.15c0-1.51-.77-2.48-2.16-2.48s-2.16,1-2.16,2.5v.17c0,1.51.79,2.48,2.14,2.48S105.78,74.05,105.78,72.5Z" fill="#14aa40"/><path d="M21.45,87.32H31.82v3.32H25.73v2.58h4.85v3.07H25.73V99h6.43v3.31H21.45Z" fill="#14aa40"/><path d="M34.07,87.32h4.35v15H34.07Z" fill="#14aa40"/><path d="M43.94,90.64H40.05V87.32h12.1v3.32H48.26v11.69H43.94Z" fill="#14aa40"/><path d="M52.42,94.92v-.17a7.34,7.34,0,0,1,7.67-7.66c3.9,0,6.61,1.81,7,5.77H62.63a2.34,2.34,0,0,0-2.52-2.37C58.18,90.49,57,92,57,94.73v.17c0,2.71,1.15,4.24,3.21,4.24A2.58,2.58,0,0,0,63,96.69h4.29c-.3,3.88-3.11,5.9-7,5.9C55,102.59,52.42,99.52,52.42,94.92Z" fill="#14aa40"/><path d="M71,97c0-1.6,1.09-2.6,2.05-3.53.72-.69,1.37-1.32,1.37-2a1.12,1.12,0,0,0-1.28-1.26c-.9,0-1.51.69-1.66,1.84H67.82c.1-3.17,2.37-4.89,5.6-4.89s5.06,1.45,5.06,4A4.27,4.27,0,0,1,77,94.21c-1,1-2.23,1.85-2.41,2.87v.32H71Zm-.49,3.49a2.26,2.26,0,0,1,4.5,0,2.26,2.26,0,0,1-4.5,0Z" fill="#14aa40"/><path d="M87,90.64H83.06V87.32h12.1v3.32H91.27v11.69H87Z" fill="#14aa40"/><path d="M95.77,91.35h3.76v2.19a3.44,3.44,0,0,1,3.54-2.33v3.5c-2.28-.06-3.54.65-3.54,2.42v5.2H95.77Z" fill="#14aa40"/><path d="M108.05,101.22l-4.39-9.87h4.08L110,97.21l2.1-5.86h3.59L109.81,106h-3.59Z" fill="#14aa40"/><path d="M21.45,111.32h4.32v5.73h4.94v-5.73H35v15h-4.3v-5.92H25.77v5.92H21.45Z" fill="#14aa40"/><path d="M49.42,123.27l2.5,3.06H47l-.88-1.09a6,6,0,0,1-4,1.35c-3.19,0-5.27-1.68-5.27-4.54,0-1.93,1.18-3.36,3.3-4.37a4.8,4.8,0,0,1-.93-2.62c0-2.56,2.19-3.93,4.83-3.93,2.4,0,4.56,1.2,4.56,3.51,0,1.64-1,2.83-3,3.71l1.89,2.31,1.09-2.14h3.27Zm-5.21-.44L41.84,120a1.78,1.78,0,0,0-1,1.62,1.74,1.74,0,0,0,1.91,1.87A2,2,0,0,0,44.21,122.83Zm-.46-6c1-.48,1.49-1,1.49-1.83a1.08,1.08,0,0,0-1.11-1.15,1.19,1.19,0,0,0-1.24,1.3A2.72,2.72,0,0,0,43.75,116.78Z" fill="#14aa40"/><path d="M53.28,111.32h5.88c3.93,0,6.11,1.6,6.11,4.77v.08a3.92,3.92,0,0,1-2.71,4l3.6,6.21H61.62l-3-5.37h-1v5.37H53.28ZM59,118.17c1.45,0,2.17-.61,2.17-1.83v-.08c0-1.22-.76-1.71-2.15-1.71h-1.4v3.62Z" fill="#14aa40"/><path d="M71.43,111.32h6.7c3.54,0,5.06,1.6,5.06,3.93v.08a3.09,3.09,0,0,1-2.54,3.23,3.27,3.27,0,0,1,3,3.51v.09c0,2.68-1.74,4.17-5.46,4.17H71.43Zm5.84,6c1.34,0,1.84-.46,1.84-1.53v-.08c0-1-.54-1.49-1.84-1.49H75.63v3.1Zm.14,6.18c1.37,0,2-.63,2-1.75v-.08c0-1.13-.61-1.72-2.12-1.72H75.63v3.55Z" fill="#14aa40"/><path d="M85.14,110.52h3.74v15.81H85.14Z" fill="#14aa40"/><path d="M90.31,121v-.17c0-3.53,2.62-5.75,6-5.75s6,2.16,6,5.65v.16c0,3.57-2.63,5.72-6,5.72S90.31,124.53,90.31,121Zm8.19-.06v-.17c0-1.85-.74-2.88-2.17-2.88s-2.18,1-2.18,2.84v.16c0,1.89.73,2.92,2.18,2.92S98.5,122.74,98.5,120.92Z" fill="#14aa40"/><path d="M103.05,121v-.17a5.53,5.53,0,0,1,5.86-5.75c2.69,0,5.17,1.17,5.38,4.51h-3.53A1.62,1.62,0,0,0,109,118c-1.33,0-2.1.94-2.1,2.79v.17c0,1.91.73,2.89,2.16,2.89A1.82,1.82,0,0,0,111,122h3.38c-.11,2.77-2,4.58-5.52,4.58C105.55,126.59,103.05,124.67,103.05,121Z" fill="#14aa40"/><path d="M115.57,110.52h3.76v9.18l3-4.35h3.9l-3.59,4.94,3.89,6h-4.2l-3-4.8v4.8h-3.76Z" fill="#14aa40"/><path d="M21.45,135.32H31.59v3.34H25.77v3.19h4.64V145H25.77v5.31H21.45Z" fill="#14aa40"/><path d="M32.6,139.35h3.76v2.19a3.45,3.45,0,0,1,3.55-2.33v3.5c-2.29-.06-3.55.65-3.55,2.42v5.2H32.6Z" fill="#14aa40"/><path d="M40.58,145v-.17a5.61,5.61,0,0,1,5.94-5.75c3,0,5.59,1.72,5.59,5.67v1H44.38A2.2,2.2,0,0,0,46.67,148c1.24,0,1.76-.56,1.91-1.3h3.53c-.34,2.48-2.25,3.89-5.57,3.89S40.58,148.57,40.58,145Zm7.87-1.39c-.06-1.32-.71-2.05-1.93-2.05a2.09,2.09,0,0,0-2.1,2.05Z" fill="#14aa40"/><path d="M52.82,145v-.17a5.62,5.62,0,0,1,5.94-5.75c3,0,5.59,1.72,5.59,5.67v1H56.62A2.2,2.2,0,0,0,58.91,148c1.24,0,1.77-.56,1.91-1.3h3.53c-.34,2.48-2.25,3.89-5.56,3.89S52.82,148.57,52.82,145Zm7.88-1.39c-.07-1.32-.72-2.05-1.94-2.05a2.07,2.07,0,0,0-2.09,2.05Z" fill="#14aa40"/><path d="M69,142.92v-.17c0-4.57,3.45-7.64,7.94-7.64s8,2.88,8,7.54v.17c0,4.62-3.17,7.77-8,7.77S69,147.44,69,142.92Zm11.4,0v-.17c0-2.66-1.34-4.24-3.46-4.24s-3.44,1.53-3.44,4.26v.17c0,2.73,1.38,4.31,3.46,4.31S80.41,145.57,80.41,142.88Z" fill="#14aa40"/><path d="M86.36,139.35h3.76v1.77a3.86,3.86,0,0,1,3.61-2.06c2.12,0,3.59,1.32,3.59,4.13v7.14H93.56V144c0-1.24-.48-1.85-1.57-1.85s-1.87.67-1.87,2.08v6.15H86.36Z" fill="#14aa40"/><path d="M99.25,134.52H103v15.81H99.25Z" fill="#14aa40"/><path d="M104.92,136.37A2.08,2.08,0,1,1,107,138.3,2,2,0,0,1,104.92,136.37Zm.19,3h3.76v11h-3.76Z" fill="#14aa40"/><path d="M110.89,139.35h3.75v1.77a3.88,3.88,0,0,1,3.62-2.06c2.12,0,3.59,1.32,3.59,4.13v7.14h-3.76V144c0-1.24-.48-1.85-1.58-1.85s-1.87.67-1.87,2.08v6.15h-3.75Z" fill="#14aa40"/><path d="M123.09,145v-.17a5.61,5.61,0,0,1,5.94-5.75c3,0,5.58,1.72,5.58,5.67v1h-7.72a2.19,2.19,0,0,0,2.29,2.29c1.24,0,1.76-.56,1.91-1.3h3.52c-.33,2.48-2.24,3.89-5.56,3.89S123.09,148.57,123.09,145Zm7.87-1.39c-.06-1.32-.71-2.05-1.93-2.05a2.09,2.09,0,0,0-2.1,2.05Z" fill="#14aa40"/><path d="M135.67,148.44a2.09,2.09,0,0,1,2.14-2.12,2.12,2.12,0,1,1,0,4.24A2.09,2.09,0,0,1,135.67,148.44Z" fill="#14aa40"/></g></g></svg>