<svg xmlns="http://www.w3.org/2000/svg" viewBox="0 0 300 600"><title>H1</title><g id="Layer_2" data-name="Layer 2"><g id="Rect"><rect width="300" height="600" fill="none"/></g><g id="Your_tax_pro_does_your_taxes_while_you_stay_home." data-name="Your tax pro does your taxes while you stay home."><path d="M30.48,129.63l-11.1-19.48H30l5.76,11.48,5.77-11.48h9.33L40.29,129.63V144.2H30.48Z" fill="#fff"/><path d="M47.28,132.06v-.38c0-8,6-13.05,13.67-13.05s13.57,4.91,13.57,12.81v.38c0,8.1-6,13-13.62,13S47.28,140.11,47.28,132.06Zm18.58-.14v-.38c0-4.19-1.67-6.53-4.91-6.53s-5,2.24-5,6.43v.38c0,4.29,1.67,6.62,5,6.62S65.86,136.06,65.86,131.92Z" fill="#fff"/><path d="M77.33,135.54V119.3h8.53v14.86c0,2.81,1.09,4.19,3.52,4.19s4.24-1.53,4.24-4.72V119.3h8.52v24.9H93.62v-3.85c-1.34,2.57-3.76,4.43-7.91,4.43C80.9,144.78,77.33,141.82,77.33,135.54Z" fill="#fff"/><path d="M106.47,119.3H115v5a7.87,7.87,0,0,1,8-5.29v8c-5.2-.15-8,1.47-8,5.47V144.2h-8.53Z" fill="#fff"/><path d="M136,136.2V125.11h-3V119.3h3v-5.19h8.52v5.19h4.91v5.81h-4.91v10.28c0,1.81.91,2.62,2.53,2.62a6.37,6.37,0,0,0,2.42-.43v6.48a17.6,17.6,0,0,1-4.71.72C139.09,144.78,136,142.06,136,136.2Z" fill="#fff"/><path d="M151.28,137.3c0-5.86,4.95-8.14,13.24-8.14h2.38v-.58c0-2.38-.57-4-3.29-4a3.06,3.06,0,0,0-3.38,3h-8c.38-6,5.1-9,11.91-9s11.24,2.81,11.24,9.43V144.2h-8.29v-2.9c-1.19,1.81-3.38,3.48-7.38,3.48C155.23,144.78,151.28,142.58,151.28,137.3Zm15.62-1.81V134h-2.24c-3.43,0-4.95.66-4.95,2.71,0,1.43.95,2.33,2.95,2.33C165.09,139,166.9,137.63,166.9,135.49Z" fill="#fff"/><path d="M185.8,131.54,178,119.3h9.81l3.86,6.57,3.76-6.57h8.76l-7.86,11.57L205,144.2h-9.81l-4.43-7.43-4.52,7.43h-8.72Z" fill="#fff"/><path d="M21.52,170.27h8.53V174a8.79,8.79,0,0,1,7.76-4.38c5.81,0,10.53,4.38,10.53,12.91v.38c0,8.57-4.72,12.85-10.58,12.85-3.76,0-6.47-1.76-7.71-4.23v12H21.52Zm18.15,12.62v-.38c0-4.39-1.91-6.48-4.91-6.48s-4.95,2.24-4.95,6.43v.38c0,4.24,1.86,6.38,4.95,6.38S39.67,187,39.67,182.89Z" fill="#fff"/><path d="M51.43,170.27H60v4.95a7.85,7.85,0,0,1,8-5.29v8c-5.19-.15-8,1.47-8,5.47v11.81H51.43Z" fill="#fff"/><path d="M69.52,183v-.38c0-8,6-13.05,13.67-13.05s13.57,4.9,13.57,12.81v.38c0,8.1-6,13-13.62,13S69.52,191.08,69.52,183Zm18.57-.14v-.38c0-4.2-1.66-6.53-4.9-6.53s-5,2.24-5,6.43v.38c0,4.29,1.66,6.62,5,6.62S88.09,187,88.09,182.89Z" fill="#fff"/><path d="M107.19,183v-.38c0-8.48,4.66-13,10.57-13,3.9,0,6.24,1.67,7.67,4.19V159.31H134v35.86h-8.52v-4a8.39,8.39,0,0,1-7.77,4.61C111.9,195.74,107.19,191.6,107.19,183Zm18.47-.14v-.38c0-4.19-1.76-6.43-4.9-6.43s-4.91,2.14-4.91,6.48v.38c0,4.19,1.86,6.33,4.81,6.33C123.76,189.22,125.66,187.08,125.66,182.84Z" fill="#fff"/><path d="M137,183v-.38c0-8,6-13.05,13.67-13.05s13.57,4.9,13.57,12.81v.38c0,8.1-6,13-13.62,13S137,191.08,137,183Zm18.57-.14v-.38c0-4.2-1.67-6.53-4.9-6.53s-5,2.24-5,6.43v.38c0,4.29,1.67,6.62,5,6.62S155.52,187,155.52,182.89Z" fill="#fff"/><path d="M165.85,183v-.38c0-8,6-13.05,13.48-13.05,6.81,0,12.67,3.9,12.67,12.86v2.24H174.47c.24,3.28,2.14,5.19,5.19,5.19,2.81,0,4-1.29,4.34-3h8c-.77,5.62-5.1,8.81-12.62,8.81C171.57,195.74,165.85,191.17,165.85,183Zm17.86-3.14c-.14-3-1.62-4.67-4.38-4.67-2.57,0-4.33,1.67-4.76,4.67Z" fill="#fff"/><path d="M193.52,187.27h7.85c.29,1.81,1.1,2.81,3.53,2.81,2.09,0,3-.81,3-2.05s-1.2-1.76-4.62-2.24c-6.67-.86-9.48-2.81-9.48-8,0-5.52,4.9-8.19,10.67-8.19,6.14,0,10.43,2.1,11,8.05H207.8c-.33-1.67-1.24-2.48-3.19-2.48s-2.81.81-2.81,2,1.14,1.67,4.19,2c6.91.86,10.24,2.67,10.24,8,0,5.91-4.38,8.57-11.28,8.57C197.85,195.74,193.71,192.79,193.52,187.27Z" fill="#fff"/><path d="M29.33,243.62l-9.95-22.38h9.24l5.14,13.28,4.77-13.28h8.14L33.33,254.48H25.19Z" fill="#fff"/><path d="M46.19,234v-.38c0-8,6-13.05,13.67-13.05s13.57,4.9,13.57,12.81v.38c0,8.1-6,13-13.62,13S46.19,242.05,46.19,234Zm18.57-.14v-.38c0-4.2-1.67-6.53-4.9-6.53s-5,2.24-5,6.43v.38c0,4.29,1.67,6.62,5,6.62S64.76,238,64.76,233.86Z" fill="#fff"/><path d="M76.23,237.48V221.24h8.53v14.85c0,2.81,1.09,4.2,3.52,4.2s4.24-1.53,4.24-4.72V221.24h8.53v24.9H92.52v-3.85c-1.33,2.57-3.76,4.42-7.9,4.42C79.81,246.71,76.23,243.76,76.23,237.48Z" fill="#fff"/><path d="M105.38,221.24h8.52v4.95a7.85,7.85,0,0,1,8-5.29v8c-5.19-.15-8,1.47-8,5.47v11.81h-8.52Z" fill="#fff"/><path d="M134.85,238.14V227.05h-3v-5.81h3v-5.19h8.53v5.19h4.9v5.81h-4.9v10.28c0,1.81.9,2.62,2.52,2.62a6.42,6.42,0,0,0,2.43-.43V246a17.82,17.82,0,0,1-4.72.71C138,246.71,134.85,244,134.85,238.14Z" fill="#fff"/><path d="M150.18,239.24c0-5.86,5-8.15,13.24-8.15h2.38v-.57c0-2.38-.57-4-3.28-4a3.05,3.05,0,0,0-3.38,3h-8c.39-6,5.1-9,11.91-9s11.24,2.81,11.24,9.43v16.14H166v-2.9c-1.19,1.81-3.38,3.47-7.38,3.47C154.14,246.71,150.18,244.52,150.18,239.24Zm15.62-1.81V235.9h-2.24c-3.42,0-4.95.67-4.95,2.72,0,1.43.95,2.33,2.95,2.33C164,241,165.8,239.57,165.8,237.43Z" fill="#fff"/><path d="M184.71,233.48l-7.77-12.24h9.81l3.86,6.57,3.76-6.57h8.77l-7.86,11.57,8.62,13.33h-9.81l-4.43-7.43-4.53,7.43h-8.71Z" fill="#fff"/><path d="M202.8,234v-.38c0-8,5.95-13.05,13.48-13.05,6.81,0,12.66,3.9,12.66,12.86v2.24H211.42c.24,3.28,2.14,5.19,5.19,5.19,2.81,0,4-1.29,4.33-3h8c-.76,5.62-5.09,8.81-12.61,8.81C208.51,246.71,202.8,242.14,202.8,234Zm17.86-3.14c-.14-3-1.62-4.67-4.38-4.67-2.57,0-4.34,1.67-4.77,4.67Z" fill="#fff"/><path d="M230.46,238.24h7.86c.29,1.81,1.1,2.81,3.53,2.81,2.09,0,3-.81,3-2.05s-1.19-1.76-4.62-2.24c-6.66-.86-9.47-2.81-9.47-8,0-5.52,4.9-8.19,10.66-8.19,6.15,0,10.43,2.1,11,8.05h-7.71c-.33-1.67-1.24-2.48-3.19-2.48s-2.81.81-2.81,2,1.14,1.67,4.19,2c6.91.86,10.24,2.67,10.24,8,0,5.91-4.38,8.57-11.29,8.57C234.8,246.71,230.65,243.76,230.46,238.24Z" fill="#fff"/><path d="M19.43,272.21h8.9L32,287.11l4.19-14.9H43l3.72,14.9,4-14.9h8.1L51,297.11H42.81l-3.71-13.9-3.86,13.9H27Z" fill="#fff"/><path d="M61.05,261.25h8.52v15a8.78,8.78,0,0,1,8.19-4.67c4.81,0,8.14,3,8.14,9.38v16.19H77.38V282.63c0-2.8-1.1-4.19-3.57-4.19s-4.24,1.53-4.24,4.72v13.95H61.05Z" fill="#fff"/><path d="M89.85,265.44a4.71,4.71,0,1,1,4.67,4.38A4.41,4.41,0,0,1,89.85,265.44Zm.43,6.77h8.53v24.9H90.28Z" fill="#fff"/><path d="M103.62,261.25h8.47v35.86h-8.47Z" fill="#fff"/><path d="M115.33,285v-.38c0-8,6-13,13.48-13,6.81,0,12.66,3.9,12.66,12.86v2.24H124c.24,3.28,2.14,5.19,5.19,5.19,2.81,0,4-1.29,4.33-3h8c-.76,5.62-5.09,8.81-12.62,8.81C121,297.68,115.33,293.11,115.33,285Zm17.86-3.14c-.15-3-1.62-4.67-4.38-4.67-2.58,0-4.34,1.67-4.77,4.67Z" fill="#fff"/><path d="M160.9,294.59l-10-22.38h9.23l5.15,13.28,4.76-13.28h8.14L164.9,305.45h-8.14Z" fill="#fff"/><path d="M177.75,285v-.38c0-8,6-13,13.67-13S205,276.44,205,284.35v.38c0,8.1-6,12.95-13.62,12.95S177.75,293,177.75,285Zm18.58-.14v-.39c0-4.19-1.67-6.52-4.91-6.52s-4.95,2.24-4.95,6.43v.38c0,4.29,1.66,6.62,4.95,6.62S196.33,289,196.33,284.83Z" fill="#fff"/><path d="M207.8,288.44V272.21h8.53v14.85c0,2.81,1.09,4.19,3.52,4.19s4.24-1.52,4.24-4.71V272.21h8.52v24.9h-8.52v-3.86c-1.34,2.58-3.76,4.43-7.91,4.43C211.37,297.68,207.8,294.73,207.8,288.44Z" fill="#fff"/><path d="M19.86,340.18h7.85C28,342,28.81,343,31.24,343c2.09,0,3.05-.81,3.05-2.05s-1.19-1.76-4.62-2.24c-6.67-.86-9.48-2.81-9.48-8,0-5.52,4.91-8.19,10.67-8.19,6.14,0,10.43,2.09,11,8.05H34.14c-.33-1.67-1.23-2.48-3.19-2.48s-2.81.81-2.81,1.95,1.15,1.67,4.19,2.05c6.91.86,10.24,2.67,10.24,8,0,5.91-4.38,8.57-11.28,8.57C24.19,348.65,20.05,345.7,19.86,340.18Z" fill="#fff"/><path d="M46.48,340.08V329h-3v-5.81h3V318H55v5.2h4.91V329H55v10.28c0,1.81.9,2.62,2.52,2.62a6.38,6.38,0,0,0,2.43-.43v6.48a18.08,18.08,0,0,1-4.71.71C49.62,348.65,46.48,345.94,46.48,340.08Z" fill="#fff"/><path d="M61.81,341.18c0-5.86,5-8.15,13.24-8.15h2.38v-.57c0-2.38-.57-3.95-3.29-3.95a3.06,3.06,0,0,0-3.38,2.95h-8c.38-6,5.1-8.95,11.91-8.95s11.23,2.81,11.23,9.43v16.14H77.62v-2.9c-1.19,1.81-3.38,3.47-7.38,3.47C65.76,348.65,61.81,346.46,61.81,341.18Zm15.62-1.81v-1.53H75.19c-3.43,0-5,.67-5,2.72,0,1.43,1,2.33,3,2.33C75.62,342.89,77.43,341.51,77.43,339.37Z" fill="#fff"/><path d="M97,345.56l-10-22.38h9.23l5.15,13.28,4.76-13.28h8.14L101,356.42H92.86Z" fill="#fff"/><path d="M125.19,312.22h8.52v15a8.78,8.78,0,0,1,8.19-4.67c4.81,0,8.14,3,8.14,9.38v16.19h-8.52V333.6c0-2.81-1.09-4.19-3.57-4.19s-4.24,1.53-4.24,4.72v13.95h-8.52Z" fill="#fff"/><path d="M152.85,335.94v-.38c0-8,6-13.05,13.67-13.05s13.57,4.9,13.57,12.81v.38c0,8.1-6,12.95-13.62,12.95S152.85,344,152.85,335.94Zm18.57-.15v-.38c0-4.19-1.66-6.52-4.9-6.52s-5,2.24-5,6.43v.38c0,4.29,1.66,6.62,5,6.62S171.42,339.94,171.42,335.79Z" fill="#fff"/><path d="M183.09,323.18h8.52V327a8.71,8.71,0,0,1,7.81-4.48c3.29,0,5.58,1.43,6.77,4.14a9.87,9.87,0,0,1,8.23-4.14c4.72,0,8.15,3.05,8.15,9.28v16.29H214V333.22c0-2.52-1.24-3.76-3.19-3.76-2.28,0-3.81,1.48-3.81,4.19v14.43h-8.43V333.22c0-2.52-1.23-3.76-3.19-3.76-2.28,0-3.81,1.48-3.81,4.19v14.43h-8.52Z" fill="#fff"/><path d="M225.37,335.94v-.38c0-8,6-13.05,13.48-13.05,6.81,0,12.67,3.9,12.67,12.86v2.24H234c.24,3.28,2.15,5.19,5.19,5.19,2.81,0,4-1.29,4.34-3h8c-.76,5.62-5.1,8.81-12.62,8.81C231.09,348.65,225.37,344.08,225.37,335.94Zm17.86-3.15c-.14-3-1.62-4.66-4.38-4.66-2.57,0-4.33,1.66-4.76,4.66Z" fill="#fff"/><path d="M253.9,343.8a4.74,4.74,0,0,1,4.85-4.81,4.81,4.81,0,1,1,0,9.62A4.75,4.75,0,0,1,253.9,343.8Z" fill="#fff"/></g></g></svg>