<svg xmlns="http://www.w3.org/2000/svg" viewBox="0 0 300 600"><title>H3</title><g id="Layer_2" data-name="Layer 2"><g id="Rect"><rect width="300" height="600" fill="none"/></g><g id="Digital_drop-off_is_easy._Call_your_tax_pro_and_upload_your" data-name="Digital drop-off  is easy.  Call your  tax pro and upload your"><path d="M21.92,89.54h11c10.73,0,16.18,5.36,16.18,14.74v.34c0,9.42-5.57,15.13-16.22,15.13H21.92ZM32.6,113.07c5.16,0,7.44-2.7,7.44-8.32v-.34c0-5.75-2.28-8.2-7.52-8.2h-1.9v16.86Z" fill="#fff"/><path d="M51.83,91.65A3.94,3.94,0,0,1,56,87.72a3.92,3.92,0,1,1,0,7.82A3.91,3.91,0,0,1,51.83,91.65Zm.38,6h7.56v22.1H52.21Z" fill="#fff"/><path d="M62.6,119.75h7.52c.34,1.6,1.31,2.87,4.06,2.87,3.34,0,4.69-1.9,4.69-4.65v-3.38A7.74,7.74,0,0,1,72,118.65c-5.15,0-9.38-3.8-9.38-10.61v-.33c0-6.51,4.19-10.65,9.38-10.65,3.51,0,5.58,1.48,6.85,3.72V97.65h7.56v20.24c0,6.59-4.35,10-12.25,10C66.66,127.94,63.19,124.78,62.6,119.75ZM79.08,108v-.29c0-3-1.56-5-4.35-5s-4.35,2-4.35,5v.34c0,3,1.6,5,4.31,5S79.08,111.13,79.08,108Z" fill="#fff"/><path d="M90.11,91.65a3.94,3.94,0,0,1,4.14-3.93,3.92,3.92,0,1,1,0,7.82A3.91,3.91,0,0,1,90.11,91.65Zm.38,6h7.56v22.1H90.49Z" fill="#fff"/><path d="M103.12,112.65v-9.84h-2.66V97.65h2.66V93h7.56v4.61H115v5.16h-4.35v9.12c0,1.61.8,2.33,2.24,2.33a5.86,5.86,0,0,0,2.16-.38v5.74a16.12,16.12,0,0,1-4.19.63C105.91,120.25,103.12,117.85,103.12,112.65Z" fill="#fff"/><path d="M116.72,113.62c0-5.2,4.4-7.22,11.75-7.22h2.11v-.51c0-2.11-.51-3.51-2.91-3.51a2.72,2.72,0,0,0-3,2.62h-7.1c.34-5.32,4.52-7.94,10.56-7.94s10,2.49,10,8.36v14.33h-7.35v-2.58c-1.06,1.61-3,3.08-6.55,3.08C120.23,120.25,116.72,118.31,116.72,113.62Zm13.86-1.6v-1.36h-2c-3,0-4.4.6-4.4,2.41,0,1.27.85,2.07,2.62,2.07C129,115.14,130.58,113.92,130.58,112Z" fill="#fff"/><path d="M142,87.93h7.52v31.82H142Z" fill="#fff"/><path d="M20.14,154.18v-.34c0-7.52,4.14-11.53,9.38-11.53,3.47,0,5.54,1.48,6.8,3.72V133.18h7.57V165H36.32v-3.59a7.44,7.44,0,0,1-6.88,4.09C24.32,165.5,20.14,161.83,20.14,154.18Zm16.39-.13v-.33C36.53,150,35,148,32.18,148s-4.35,1.9-4.35,5.75v.34c0,3.71,1.65,5.62,4.27,5.62S36.53,157.81,36.53,154.05Z" fill="#fff"/><path d="M47.73,142.9h7.56v4.39a7,7,0,0,1,7.14-4.69v7.06c-4.6-.13-7.14,1.31-7.14,4.86V165H47.73Z" fill="#fff"/><path d="M63.79,154.22v-.33c0-7.1,5.28-11.58,12.12-11.58s12,4.35,12,11.36V154c0,7.19-5.28,11.49-12.08,11.49S63.79,161.36,63.79,154.22Zm16.47-.12v-.34c0-3.72-1.48-5.79-4.35-5.79s-4.39,2-4.39,5.7V154c0,3.8,1.48,5.88,4.39,5.88S80.26,157.77,80.26,154.1Z" fill="#fff"/><path d="M90.61,142.9h7.57v3.3a7.77,7.77,0,0,1,6.88-3.89c5.16,0,9.34,3.89,9.34,11.45v.34c0,7.6-4.18,11.4-9.38,11.4-3.34,0-5.74-1.56-6.84-3.76v10.65H90.61Zm16.1,11.2v-.34c0-3.89-1.69-5.75-4.35-5.75S98,150,98,153.72v.33c0,3.76,1.64,5.67,4.39,5.67S106.71,157.73,106.71,154.1Z" fill="#fff"/><path d="M117.06,150.08h11.83v5.71H117.06Z" fill="#fff"/><path d="M131.47,154.22v-.33c0-7.1,5.28-11.58,12.12-11.58s12,4.35,12,11.36V154c0,7.19-5.29,11.49-12.09,11.49S131.47,161.36,131.47,154.22ZM148,154.1v-.34c0-3.72-1.48-5.79-4.36-5.79s-4.39,2-4.39,5.7V154c0,3.8,1.48,5.88,4.39,5.88S148,157.77,148,154.1Z" fill="#fff"/><path d="M159.44,148.06h-2.79V142.9h2.79v-1.69c0-5.49,3.38-8.07,8.62-8.07a12.86,12.86,0,0,1,3.38.42v5.54a6.64,6.64,0,0,0-2-.3,2.21,2.21,0,0,0-2.45,2.41v1.69h6.42V141c0-5.5,3.47-8.12,8.66-8.12a13.66,13.66,0,0,1,3.47.47v5.53a7.3,7.3,0,0,0-2.07-.29,2.21,2.21,0,0,0-2.5,2.41v1.94h4.48v5.16h-4.48V165h-7.56V148.06H167V165h-7.52Z" fill="#fff"/><path d="M21.07,182.15a3.94,3.94,0,0,1,4.14-3.93,3.92,3.92,0,1,1,0,7.82A3.91,3.91,0,0,1,21.07,182.15Zm.38,6H29v22.1H21.45Z" fill="#fff"/><path d="M31.59,203.23h7c.26,1.61,1,2.5,3.13,2.5,1.86,0,2.7-.72,2.7-1.82s-1-1.56-4.1-2c-5.91-.76-8.4-2.49-8.4-7.09,0-4.91,4.35-7.27,9.46-7.27,5.45,0,9.25,1.86,9.76,7.14H44.27a2.47,2.47,0,0,0-2.83-2.2c-1.65,0-2.5.72-2.5,1.73s1,1.48,3.72,1.82c6.13.76,9.08,2.37,9.08,7.1,0,5.24-3.88,7.6-10,7.6C35.44,210.75,31.76,208.14,31.59,203.23Z" fill="#fff"/><path d="M60.7,199.47v-.33c0-7.1,5.28-11.58,12-11.58,6,0,11.24,3.46,11.24,11.41v2H68.35c.21,2.92,1.9,4.61,4.6,4.61,2.5,0,3.55-1.14,3.85-2.62h7.1c-.68,5-4.52,7.81-11.2,7.81C65.77,210.75,60.7,206.7,60.7,199.47Zm15.84-2.78c-.12-2.67-1.43-4.15-3.88-4.15-2.28,0-3.85,1.48-4.23,4.15Z" fill="#fff"/><path d="M85.46,204.12c0-5.2,4.39-7.22,11.74-7.22h2.12v-.51c0-2.11-.51-3.51-2.92-3.51a2.72,2.72,0,0,0-3,2.62H86.3c.34-5.32,4.52-7.94,10.57-7.94s10,2.49,10,8.36v14.33H99.49v-2.58c-1.06,1.61-3,3.08-6.55,3.08C89,210.75,85.46,208.81,85.46,204.12Zm13.86-1.6v-1.36h-2c-3,0-4.39.6-4.39,2.41,0,1.27.84,2.07,2.62,2.07C97.71,205.64,99.32,204.42,99.32,202.52Z" fill="#fff"/><path d="M109,203.23h7c.26,1.61,1,2.5,3.13,2.5,1.86,0,2.7-.72,2.7-1.82s-1-1.56-4.09-2c-5.92-.76-8.41-2.49-8.41-7.09,0-4.91,4.35-7.27,9.46-7.27,5.45,0,9.26,1.86,9.76,7.14h-6.84a2.47,2.47,0,0,0-2.83-2.2c-1.65,0-2.5.72-2.5,1.73s1,1.48,3.72,1.82c6.13.76,9.09,2.37,9.09,7.1,0,5.24-3.89,7.6-10,7.6C112.88,210.75,109.2,208.14,109,203.23Z" fill="#fff"/><path d="M137.85,208,129,188.15h8.19l4.57,11.79L146,188.15h7.23L141.4,217.64h-7.23Z" fill="#fff"/><path d="M151.62,206.45a4.21,4.21,0,0,1,4.31-4.27,4.27,4.27,0,1,1,0,8.53A4.21,4.21,0,0,1,151.62,206.45Z" fill="#fff"/><path d="M20.35,240.58v-.33c0-9.3,6.59-15.43,15.42-15.43,7.86,0,13.31,3.64,14,11.62H40.89c-.34-3.08-2-4.77-5.07-4.77-3.89,0-6.34,3-6.34,8.53v.34c0,5.45,2.32,8.54,6.46,8.54a5.2,5.2,0,0,0,5.62-5h8.62C49.59,252,43.93,256,36.11,256,25.55,256,20.35,249.84,20.35,240.58Z" fill="#fff"/><path d="M51.53,249.37c0-5.2,4.4-7.22,11.75-7.22h2.11v-.51c0-2.11-.51-3.51-2.92-3.51a2.7,2.7,0,0,0-3,2.62h-7.1c.33-5.32,4.52-7.94,10.56-7.94s10,2.49,10,8.36V255.5H65.56v-2.58c-1.06,1.61-3,3.08-6.55,3.08C55,256,51.53,254.06,51.53,249.37Zm13.86-1.6v-1.36h-2c-3,0-4.39.6-4.39,2.41,0,1.27.84,2.07,2.62,2.07C63.78,250.89,65.39,249.67,65.39,247.77Z" fill="#fff"/><path d="M76.8,223.68h7.52V255.5H76.8Z" fill="#fff"/><path d="M88.58,223.68H96.1V255.5H88.58Z" fill="#fff"/><path d="M114.78,253.26,106,233.4h8.19l4.57,11.79,4.22-11.79h7.23l-11.83,29.49H111.1Z" fill="#fff"/><path d="M129.73,244.72v-.33c0-7.1,5.29-11.58,12.13-11.58s12,4.35,12,11.36v.34c0,7.19-5.28,11.49-12.08,11.49S129.73,251.86,129.73,244.72Zm16.48-.12v-.34c0-3.72-1.48-5.79-4.35-5.79s-4.39,2-4.39,5.7v.34c0,3.8,1.48,5.88,4.39,5.88S146.21,248.27,146.21,244.6Z" fill="#fff"/><path d="M156.39,247.81V233.4H164v13.18c0,2.5,1,3.72,3.12,3.72s3.76-1.35,3.76-4.18V233.4h7.57v22.1h-7.57v-3.42c-1.18,2.28-3.33,3.92-7,3.92C159.56,256,156.39,253.39,156.39,247.81Z" fill="#fff"/><path d="M182.25,233.4h7.56v4.39A7,7,0,0,1,197,233.1v7.06c-4.6-.13-7.14,1.31-7.14,4.86V255.5h-7.56Z" fill="#fff"/><path d="M22.25,293.65v-9.84H19.59v-5.16h2.66V274h7.57v4.61h4.35v5.16H29.82v9.12c0,1.61.8,2.33,2.24,2.33a5.84,5.84,0,0,0,2.15-.38v5.74a15.62,15.62,0,0,1-4.18.63C25,301.25,22.25,298.85,22.25,293.65Z" fill="#fff"/><path d="M35.86,294.62c0-5.2,4.39-7.22,11.74-7.22h2.12v-.51c0-2.11-.51-3.51-2.92-3.51a2.72,2.72,0,0,0-3,2.62H36.7c.34-5.32,4.52-7.94,10.57-7.94s10,2.49,10,8.36v14.33H49.88v-2.58c-1.05,1.61-3,3.08-6.54,3.08C39.36,301.25,35.86,299.31,35.86,294.62ZM49.72,293v-1.36h-2c-3,0-4.39.6-4.39,2.41,0,1.27.84,2.07,2.62,2.07C48.11,296.14,49.72,294.92,49.72,293Z" fill="#fff"/><path d="M66.49,289.51,59.6,278.65h8.71l3.42,5.83,3.34-5.83h7.77l-7,10.27,7.65,11.83H74.81l-3.93-6.59-4,6.59H59.14Z" fill="#fff"/><path d="M93.32,278.65h7.56V282a7.79,7.79,0,0,1,6.89-3.89c5.15,0,9.33,3.89,9.33,11.45v.34c0,7.6-4.18,11.4-9.38,11.4-3.33,0-5.74-1.56-6.84-3.76v10.65H93.32Zm16.09,11.2v-.34c0-3.89-1.69-5.75-4.35-5.75s-4.39,2-4.39,5.71v.33c0,3.76,1.65,5.67,4.39,5.67S109.41,293.48,109.41,289.85Z" fill="#fff"/><path d="M119.85,278.65h7.56V283a7,7,0,0,1,7.14-4.69v7.06c-4.6-.13-7.14,1.31-7.14,4.86v10.48h-7.56Z" fill="#fff"/><path d="M135.9,290v-.33c0-7.1,5.29-11.58,12.13-11.58s12,4.35,12,11.36v.34c0,7.19-5.28,11.49-12.08,11.49S135.9,297.11,135.9,290Zm16.48-.12v-.34c0-3.72-1.48-5.79-4.35-5.79s-4.39,2-4.39,5.7v.34c0,3.8,1.47,5.88,4.39,5.88S152.38,293.52,152.38,289.85Z" fill="#fff"/><path d="M169.15,294.62c0-5.2,4.4-7.22,11.75-7.22H183v-.51c0-2.11-.5-3.51-2.91-3.51a2.72,2.72,0,0,0-3,2.62H170c.34-5.32,4.52-7.94,10.56-7.94s10,2.49,10,8.36v14.33h-7.35v-2.58c-1.05,1.61-3,3.08-6.55,3.08C172.66,301.25,169.15,299.31,169.15,294.62ZM183,293v-1.36h-2c-3.05,0-4.4.6-4.4,2.41,0,1.27.85,2.07,2.62,2.07C181.41,296.14,183,294.92,183,293Z" fill="#fff"/><path d="M194.21,278.65h7.56v3.55a7.8,7.8,0,0,1,7.27-4.14c4.27,0,7.22,2.66,7.22,8.32v14.37H208.7V287.9c0-2.49-1-3.71-3.17-3.71s-3.76,1.35-3.76,4.18v12.38h-7.56Z" fill="#fff"/><path d="M218.84,289.93v-.34c0-7.52,4.14-11.53,9.38-11.53a7.17,7.17,0,0,1,6.8,3.72V268.93h7.56v31.82H235v-3.59a7.45,7.45,0,0,1-6.89,4.09C223,301.25,218.84,297.58,218.84,289.93Zm16.39-.13v-.33c0-3.72-1.56-5.71-4.35-5.71s-4.35,1.9-4.35,5.75v.34c0,3.71,1.65,5.62,4.27,5.62S235.23,293.56,235.23,289.8Z" fill="#fff"/><path d="M21.07,338.31V323.9h7.56v13.18c0,2.5,1,3.72,3.13,3.72s3.76-1.35,3.76-4.18V323.9h7.56V346H35.52v-3.42c-1.18,2.28-3.34,3.92-7,3.92C24.24,346.5,21.07,343.89,21.07,338.31Z" fill="#fff"/><path d="M46.93,323.9h7.56v3.3a7.79,7.79,0,0,1,6.89-3.89c5.15,0,9.33,3.89,9.33,11.45v.34c0,7.6-4.18,11.4-9.38,11.4-3.33,0-5.74-1.56-6.84-3.76v10.65H46.93ZM63,335.1v-.34c0-3.89-1.69-5.75-4.35-5.75s-4.39,2-4.39,5.71v.33c0,3.77,1.65,5.67,4.39,5.67S63,338.73,63,335.1Z" fill="#fff"/><path d="M73.67,314.18h7.52V346H73.67Z" fill="#fff"/><path d="M84.06,335.22v-.33c0-7.1,5.29-11.58,12.13-11.58s12,4.35,12,11.36V335c0,7.19-5.28,11.49-12.08,11.49S84.06,342.36,84.06,335.22Zm16.48-.12v-.34c0-3.72-1.48-5.79-4.35-5.79s-4.39,2-4.39,5.7V335c0,3.81,1.47,5.88,4.39,5.88S100.54,338.77,100.54,335.1Z" fill="#fff"/><path d="M109.62,339.87c0-5.2,4.4-7.22,11.75-7.22h2.11v-.51c0-2.11-.5-3.51-2.91-3.51a2.72,2.72,0,0,0-3,2.62h-7.1c.34-5.32,4.52-7.94,10.56-7.94s10,2.49,10,8.36V346h-7.35v-2.58c-1.05,1.61-3,3.08-6.55,3.08C113.13,346.5,109.62,344.56,109.62,339.87Zm13.86-1.6v-1.36h-2c-3,0-4.4.59-4.4,2.41,0,1.27.85,2.07,2.62,2.07C121.88,341.39,123.48,340.17,123.48,338.27Z" fill="#fff"/><path d="M133.58,335.18v-.34c0-7.52,4.14-11.53,9.38-11.53a7.17,7.17,0,0,1,6.8,3.72V314.18h7.57V346h-7.57v-3.59a7.44,7.44,0,0,1-6.88,4.09C137.76,346.5,133.58,342.83,133.58,335.18Zm16.39-.13v-.33c0-3.72-1.56-5.71-4.35-5.71s-4.35,1.9-4.35,5.75v.34c0,3.72,1.65,5.62,4.27,5.62S150,338.82,150,335.05Z" fill="#fff"/><path d="M175.79,343.76,167,323.9h8.19l4.57,11.79,4.22-11.79h7.23l-11.83,29.49h-7.23Z" fill="#fff"/><path d="M190.74,335.22v-.33c0-7.1,5.28-11.58,12.13-11.58s12,4.35,12,11.36V335c0,7.19-5.28,11.49-12.08,11.49S190.74,342.36,190.74,335.22Zm16.48-.12v-.34c0-3.72-1.48-5.79-4.35-5.79s-4.39,2-4.39,5.7V335c0,3.81,1.47,5.88,4.39,5.88S207.22,338.77,207.22,335.1Z" fill="#fff"/><path d="M217.4,338.31V323.9H225v13.18c0,2.5,1,3.72,3.12,3.72s3.76-1.35,3.76-4.18V323.9h7.57V346h-7.57v-3.42c-1.18,2.28-3.34,3.92-7,3.92C220.57,346.5,217.4,343.89,217.4,338.31Z" fill="#fff"/><path d="M243.26,323.9h7.56v4.39A7,7,0,0,1,258,323.6v7.06c-4.6-.13-7.14,1.31-7.14,4.86V346h-7.56Z" fill="#fff"/><path d="M20.14,380.43v-.34c0-7.52,4.14-11.53,9.38-11.53,3.47,0,5.54,1.48,6.8,3.72V359.43h7.57v31.82H36.32v-3.59a7.44,7.44,0,0,1-6.88,4.09C24.32,391.75,20.14,388.08,20.14,380.43Zm16.39-.13V380c0-3.72-1.56-5.71-4.35-5.71s-4.35,1.9-4.35,5.75v.34c0,3.72,1.65,5.62,4.27,5.62S36.53,384.07,36.53,380.3Z" fill="#fff"/><path d="M46.55,380.47v-.33c0-7.1,5.28-11.58,12.12-11.58s12,4.35,12,11.36v.34c0,7.19-5.28,11.49-12.08,11.49S46.55,387.61,46.55,380.47ZM63,380.35V380c0-3.72-1.47-5.79-4.35-5.79s-4.39,2-4.39,5.7v.34c0,3.81,1.48,5.88,4.39,5.88S63,384,63,380.35Z" fill="#fff"/><path d="M72.19,380.47v-.33c0-7.36,5.28-11.58,11.79-11.58,5.41,0,10.39,2.36,10.82,9.08H87.7c-.34-2.07-1.35-3.21-3.55-3.21-2.66,0-4.23,1.9-4.23,5.62v.34c0,3.84,1.48,5.83,4.36,5.83,2.11,0,3.59-1.27,3.84-3.68h6.8c-.21,5.58-4,9.21-11.11,9.21C77.22,391.75,72.19,387.91,72.19,380.47Z" fill="#fff"/><path d="M96.19,384.23h7c.25,1.61,1,2.5,3.13,2.5,1.86,0,2.7-.72,2.7-1.82s-1-1.56-4.1-2c-5.91-.76-8.4-2.49-8.4-7.09,0-4.91,4.35-7.27,9.46-7.27,5.45,0,9.25,1.86,9.76,7.14h-6.84a2.48,2.48,0,0,0-2.84-2.2c-1.64,0-2.49.72-2.49,1.73s1,1.48,3.72,1.82c6.13.76,9.08,2.37,9.08,7.1,0,5.24-3.88,7.6-10,7.6C100,391.75,96.36,389.14,96.19,384.23Z" fill="#fff"/><path d="M127.5,384.15V374.3h-2.67v-5.15h2.67v-4.61h7.56v4.61h4.35v5.15h-4.35v9.13c0,1.61.8,2.32,2.24,2.32a5.81,5.81,0,0,0,2.15-.37v5.74a15.55,15.55,0,0,1-4.18.63C130.29,391.75,127.5,389.35,127.5,384.15Z" fill="#fff"/><path d="M141.1,380.47v-.33c0-7.1,5.28-11.58,12.13-11.58s12,4.35,12,11.36v.34c0,7.19-5.28,11.49-12.09,11.49S141.1,387.61,141.1,380.47Zm16.48-.12V380c0-3.72-1.48-5.79-4.35-5.79s-4.4,2-4.4,5.7v.34c0,3.81,1.48,5.88,4.4,5.88S157.58,384,157.58,380.35Z" fill="#fff"/><path d="M166.83,380.43v-.34c0-7.52,4.14-11.53,9.38-11.53,3.46,0,5.54,1.48,6.8,3.72V359.43h7.57v31.82H183v-3.59a7.44,7.44,0,0,1-6.88,4.09C171,391.75,166.83,388.08,166.83,380.43Zm16.39-.13V380c0-3.72-1.56-5.71-4.35-5.71s-4.35,1.9-4.35,5.75v.34c0,3.72,1.65,5.62,4.27,5.62S183.22,384.07,183.22,380.3Z" fill="#fff"/><path d="M193.15,385.12c0-5.2,4.4-7.22,11.75-7.22H207v-.51c0-2.11-.51-3.51-2.91-3.51a2.71,2.71,0,0,0-3,2.62H194c.33-5.32,4.52-7.94,10.56-7.94s10,2.49,10,8.36v14.33h-7.35v-2.58c-1.06,1.61-3,3.08-6.55,3.08C196.66,391.75,193.15,389.81,193.15,385.12Zm13.86-1.6v-1.36h-2c-3.05,0-4.4.6-4.4,2.41,0,1.27.85,2.07,2.62,2.07C205.41,386.64,207,385.42,207,383.52Z" fill="#fff"/><path d="M224.38,389l-8.84-19.86h8.2l4.56,11.79,4.23-11.79h7.22l-11.83,29.49H220.7Z" fill="#fff"/><path d="M238.15,387.45a4.21,4.21,0,0,1,4.31-4.27,4.27,4.27,0,1,1,0,8.53A4.21,4.21,0,0,1,238.15,387.45Z" fill="#fff"/></g></g></svg>