<svg xmlns="http://www.w3.org/2000/svg" viewBox="0 0 728 90"><title>728x90</title><g id="Layer_2" data-name="Layer 2"><g id="Artboard_1" data-name="Artboard 1" style="isolation:isolate"><g id="Rect"><rect width="728" height="90" fill="none"/></g><g id="H_R_Block_Free_Online_includes_Student_Loan_Interest_Deduction_" data-name="H&amp;R Block Free Online includes Student Loan Interest Deduction;"><path d="M108.75,21.78H113v5.63h4.84V21.78h4.23V36.52h-4.23V30.71H113v5.81h-4.25Z" fill="#fff"/><path d="M136.31,33.51l2.45,3H134l-.87-1.07a5.85,5.85,0,0,1-4,1.32c-3.14,0-5.18-1.65-5.18-4.46,0-1.89,1.16-3.3,3.24-4.28a4.72,4.72,0,0,1-.91-2.58c0-2.52,2.14-3.86,4.74-3.86,2.35,0,4.48,1.18,4.48,3.45,0,1.6-1,2.78-3,3.65L134.39,31l1.07-2.1h3.22Zm-5.11-.43-2.33-2.81a1.75,1.75,0,0,0-1,1.59,1.71,1.71,0,0,0,1.87,1.83A1.94,1.94,0,0,0,131.2,33.08Zm-.46-5.94c1-.48,1.47-1,1.47-1.79a1.07,1.07,0,0,0-1.1-1.14,1.17,1.17,0,0,0-1.21,1.28A2.72,2.72,0,0,0,130.74,27.14Z" fill="#fff"/><path d="M140.2,21.78H146c3.86,0,6,1.57,6,4.68v.08a3.86,3.86,0,0,1-2.66,3.88l3.53,6.1h-4.45l-3-5.28h-1v5.28H140.2Zm5.57,6.72c1.42,0,2.12-.6,2.12-1.79v-.09c0-1.19-.74-1.67-2.1-1.67h-1.38V28.5Z" fill="#fff"/><path d="M158.21,21.78h6.58c3.48,0,5,1.57,5,3.85v.09a3,3,0,0,1-2.5,3.17,3.2,3.2,0,0,1,3,3.44v.09c0,2.63-1.71,4.1-5.36,4.1h-6.64Zm5.73,5.85c1.32,0,1.82-.45,1.82-1.5v-.08c0-1-.54-1.47-1.82-1.47h-1.6v3.05Zm.15,6.06c1.34,0,2-.61,2-1.71V31.9c0-1.11-.6-1.69-2.09-1.69h-1.62v3.48Z" fill="#fff"/><path d="M171.77,21h3.67V36.52h-3.67Z" fill="#fff"/><path d="M177,31.26V31.1c0-3.47,2.57-5.65,5.91-5.65s5.88,2.12,5.88,5.54v.17c0,3.5-2.58,5.61-5.9,5.61S177,34.75,177,31.26Zm8-.06V31c0-1.82-.73-2.83-2.13-2.83s-2.14,1-2.14,2.78v.17c0,1.85.72,2.86,2.14,2.86S185,33,185,31.2Z" fill="#fff"/><path d="M189.56,31.26V31.1a5.42,5.42,0,0,1,5.75-5.65c2.64,0,5.07,1.15,5.28,4.43h-3.47a1.59,1.59,0,0,0-1.73-1.57c-1.3,0-2.06.93-2.06,2.75v.16c0,1.88.72,2.85,2.12,2.85a1.79,1.79,0,0,0,1.88-1.8h3.32c-.1,2.72-1.94,4.5-5.42,4.5C192,36.77,189.56,34.89,189.56,31.26Z" fill="#fff"/><path d="M201.94,21h3.69v9l2.91-4.26h3.84l-3.53,4.84,3.81,5.94h-4.12l-2.91-4.72v4.72h-3.69Z" fill="#fff"/><path d="M217.81,21.78h10v3.28h-5.71v3.13h4.56V31.3h-4.56v5.22h-4.25Z" fill="#fff"/><path d="M228.86,25.74h3.69v2.14A3.39,3.39,0,0,1,236,25.59V29c-2.24-.07-3.48.63-3.48,2.37v5.11h-3.69Z" fill="#fff"/><path d="M236.79,31.26V31.1a5.52,5.52,0,0,1,5.84-5.65c3,0,5.48,1.69,5.48,5.56v1h-7.59a2.16,2.16,0,0,0,2.25,2.25c1.22,0,1.73-.56,1.88-1.28h3.46c-.33,2.43-2.2,3.82-5.46,3.82S236.79,34.79,236.79,31.26Zm7.73-1.36c-.06-1.3-.7-2-1.89-2a2,2,0,0,0-2.06,2Z" fill="#fff"/><path d="M248.91,31.26V31.1a5.52,5.52,0,0,1,5.84-5.65c2.94,0,5.48,1.69,5.48,5.56v1h-7.59a2.16,2.16,0,0,0,2.25,2.25c1.22,0,1.73-.56,1.88-1.28h3.46c-.33,2.43-2.21,3.82-5.46,3.82S248.91,34.79,248.91,31.26Zm7.73-1.36c-.06-1.3-.7-2-1.89-2a2.06,2.06,0,0,0-2.07,2Z" fill="#fff"/><path d="M265,29.24v-.16c0-4.5,3.38-7.51,7.79-7.51s7.81,2.83,7.81,7.4v.17c0,4.53-3.11,7.63-7.87,7.63S265,33.67,265,29.24Zm11.19,0V29c0-2.62-1.32-4.17-3.4-4.17s-3.38,1.51-3.38,4.19v.16c0,2.68,1.36,4.23,3.4,4.23S276.2,31.84,276.2,29.2Z" fill="#fff"/><path d="M282.13,25.74h3.69v1.73a3.82,3.82,0,0,1,3.55-2c2.08,0,3.52,1.3,3.52,4.06v7H289.2V30.25c0-1.21-.47-1.81-1.54-1.81s-1.84.66-1.84,2v6h-3.69Z" fill="#fff"/><path d="M294.89,21h3.67V36.52h-3.67Z" fill="#fff"/><path d="M300.56,22.81a1.93,1.93,0,0,1,2-1.92,1.91,1.91,0,1,1,0,3.82A1.91,1.91,0,0,1,300.56,22.81Zm.18,2.93h3.69V36.52h-3.69Z" fill="#fff"/><path d="M306.51,25.74h3.69v1.73a3.82,3.82,0,0,1,3.55-2c2.08,0,3.52,1.3,3.52,4.06v7h-3.69V30.25c0-1.21-.47-1.81-1.54-1.81s-1.84.66-1.84,2v6h-3.69Z" fill="#fff"/><path d="M318.59,31.26V31.1a5.51,5.51,0,0,1,5.83-5.65c2.95,0,5.49,1.69,5.49,5.56v1h-7.59a2.15,2.15,0,0,0,2.25,2.25c1.21,0,1.73-.56,1.87-1.28h3.47c-.33,2.43-2.21,3.82-5.47,3.82S318.59,34.79,318.59,31.26Zm7.73-1.36c-.06-1.3-.7-2-1.9-2a2.05,2.05,0,0,0-2.06,2Z" fill="#fff"/><path d="M335.06,22.81a1.93,1.93,0,0,1,2-1.92,1.91,1.91,0,1,1,0,3.82A1.91,1.91,0,0,1,335.06,22.81Zm.18,2.93h3.69V36.52h-3.69Z" fill="#fff"/><path d="M341,25.74h3.69v1.73a3.81,3.81,0,0,1,3.55-2c2.08,0,3.52,1.3,3.52,4.06v7h-3.69V30.25c0-1.21-.47-1.81-1.54-1.81s-1.84.66-1.84,2v6H341Z" fill="#fff"/><path d="M353.09,31.26V31.1a5.42,5.42,0,0,1,5.75-5.65c2.64,0,5.07,1.15,5.28,4.43h-3.47a1.59,1.59,0,0,0-1.73-1.57c-1.3,0-2.06.93-2.06,2.75v.16c0,1.88.72,2.85,2.12,2.85a1.79,1.79,0,0,0,1.88-1.8h3.32c-.1,2.72-1.94,4.5-5.42,4.5C355.54,36.77,353.09,34.89,353.09,31.26Z" fill="#fff"/><path d="M365.58,21h3.67V36.52h-3.67Z" fill="#fff"/><path d="M371.24,32.77v-7h3.69v6.43c0,1.22.48,1.81,1.53,1.81s1.83-.66,1.83-2v-6.2H382V36.52h-3.69V34.85a3.53,3.53,0,0,1-3.42,1.92C372.79,36.77,371.24,35.49,371.24,32.77Z" fill="#fff"/><path d="M383.42,31.24v-.16c0-3.67,2-5.63,4.58-5.63a3.5,3.5,0,0,1,3.32,1.81V21H395V36.52h-3.69V34.77a3.64,3.64,0,0,1-3.36,2C385.46,36.77,383.42,35,383.42,31.24Zm8-.06V31c0-1.81-.76-2.78-2.12-2.78s-2.12.93-2.12,2.81v.16c0,1.81.8,2.74,2.08,2.74S391.42,33,391.42,31.18Z" fill="#fff"/><path d="M396.41,31.26V31.1a5.51,5.51,0,0,1,5.83-5.65c2.95,0,5.48,1.69,5.48,5.56v1h-7.58a2.15,2.15,0,0,0,2.24,2.25c1.22,0,1.74-.56,1.88-1.28h3.46c-.33,2.43-2.2,3.82-5.46,3.82S396.41,34.79,396.41,31.26Zm7.73-1.36c-.06-1.3-.7-2-1.9-2a2.05,2.05,0,0,0-2.06,2Z" fill="#fff"/><path d="M408.48,33.1h3.4c.13.78.48,1.21,1.53,1.21s1.32-.35,1.32-.88-.52-.77-2-1c-2.89-.37-4.1-1.22-4.1-3.47s2.12-3.54,4.62-3.54,4.51.91,4.76,3.48h-3.34a1.21,1.21,0,0,0-1.38-1.07c-.81,0-1.22.35-1.22.85s.5.72,1.81.88c3,.37,4.44,1.16,4.44,3.47,0,2.55-1.9,3.71-4.89,3.71S408.57,35.49,408.48,33.1Z" fill="#fff"/><path d="M422.85,31.84h4c.1,1.05.57,1.92,2.33,1.92,1.21,0,1.89-.6,1.89-1.47s-.55-1.15-2.33-1.42c-4.16-.49-5.56-1.73-5.56-4.7,0-2.66,2.18-4.6,5.71-4.6s5.54,1.49,5.81,4.6H430.8a1.67,1.67,0,0,0-1.89-1.59c-1.14,0-1.71.52-1.71,1.26s.45,1.2,2.29,1.44c3.73.42,5.64,1.38,5.64,4.58,0,2.7-2.14,4.91-5.93,4.91C425.07,36.77,423,35,422.85,31.84Z" fill="#fff"/><path d="M437.09,33.06V28.25h-1.3V25.74h1.3V23.49h3.69v2.25h2.12v2.51h-2.12v4.46a1,1,0,0,0,1.09,1.13,2.69,2.69,0,0,0,1.05-.19v2.81a7.83,7.83,0,0,1-2,.31C438.45,36.77,437.09,35.59,437.09,33.06Z" fill="#fff"/><path d="M444.32,32.77v-7H448v6.43c0,1.22.48,1.81,1.53,1.81s1.83-.66,1.83-2v-6.2h3.69V36.52h-3.69V34.85A3.55,3.55,0,0,1,448,36.77C445.87,36.77,444.32,35.49,444.32,32.77Z" fill="#fff"/><path d="M456.5,31.24v-.16c0-3.67,2-5.63,4.58-5.63a3.5,3.5,0,0,1,3.32,1.81V21h3.69V36.52H464.4V34.77a3.64,3.64,0,0,1-3.36,2C458.54,36.77,456.5,35,456.5,31.24Zm8-.06V31c0-1.81-.76-2.78-2.12-2.78s-2.13.93-2.13,2.81v.16c0,1.81.81,2.74,2.08,2.74S464.5,33,464.5,31.18Z" fill="#fff"/><path d="M469.48,31.26V31.1a5.52,5.52,0,0,1,5.84-5.65c2.95,0,5.48,1.69,5.48,5.56v1h-7.58a2.14,2.14,0,0,0,2.24,2.25c1.22,0,1.73-.56,1.88-1.28h3.46c-.33,2.43-2.2,3.82-5.46,3.82S469.48,34.79,469.48,31.26Zm7.73-1.36c-.06-1.3-.7-2-1.89-2a2,2,0,0,0-2.06,2Z" fill="#fff"/><path d="M482.18,25.74h3.69v1.73a3.81,3.81,0,0,1,3.55-2c2.08,0,3.52,1.3,3.52,4.06v7h-3.69V30.25c0-1.21-.47-1.81-1.55-1.81s-1.83.66-1.83,2v6h-3.69Z" fill="#fff"/><path d="M495.33,33.06V28.25H494V25.74h1.3V23.49H499v2.25h2.12v2.51H499v4.46a1,1,0,0,0,1.09,1.13,2.69,2.69,0,0,0,1.05-.19v2.81a7.83,7.83,0,0,1-2,.31C496.69,36.77,495.33,35.59,495.33,33.06Z" fill="#fff"/><path d="M506.83,21.78h4.24V33.24h5.57v3.28h-9.81Z" fill="#fff"/><path d="M517.36,31.26V31.1c0-3.47,2.58-5.65,5.92-5.65s5.87,2.12,5.87,5.54v.17c0,3.5-2.58,5.61-5.9,5.61S517.36,34.75,517.36,31.26Zm8-.06V31c0-1.82-.72-2.83-2.12-2.83s-2.15,1-2.15,2.78v.17c0,1.85.72,2.86,2.15,2.86S525.4,33,525.4,31.2Z" fill="#fff"/><path d="M529.93,33.53c0-2.54,2.14-3.53,5.73-3.53h1v-.24c0-1-.25-1.71-1.42-1.71a1.31,1.31,0,0,0-1.46,1.27h-3.47c.17-2.59,2.21-3.87,5.16-3.87s4.86,1.21,4.86,4.08v7h-3.59V35.26a3.54,3.54,0,0,1-3.19,1.51C531.64,36.77,529.93,35.82,529.93,33.53Zm6.76-.78v-.66h-1c-1.48,0-2.14.29-2.14,1.17,0,.62.41,1,1.28,1A1.62,1.62,0,0,0,536.69,32.75Z" fill="#fff"/><path d="M542.25,25.74h3.69v1.73a3.82,3.82,0,0,1,3.55-2c2.08,0,3.52,1.3,3.52,4.06v7h-3.69V30.25c0-1.21-.47-1.81-1.54-1.81s-1.84.66-1.84,2v6h-3.69Z" fill="#fff"/><path d="M108.83,49.78h4.27V64.52h-4.27Z" fill="#fff"/><path d="M115.47,53.74h3.69v1.73a3.81,3.81,0,0,1,3.55-2c2.08,0,3.52,1.3,3.52,4.06v7h-3.69V58.25c0-1.21-.47-1.81-1.54-1.81s-1.84.66-1.84,2v6h-3.69Z" fill="#fff"/><path d="M128.62,61.06V56.25h-1.3V53.74h1.3V51.49h3.69v2.25h2.12v2.51h-2.12v4.46a1,1,0,0,0,1.09,1.13,2.69,2.69,0,0,0,1-.19v2.81a7.83,7.83,0,0,1-2,.31C130,64.77,128.62,63.59,128.62,61.06Z" fill="#fff"/><path d="M135.36,59.26V59.1a5.51,5.51,0,0,1,5.83-5.65c2.95,0,5.49,1.69,5.49,5.56v1h-7.59a2.15,2.15,0,0,0,2.25,2.25c1.21,0,1.73-.56,1.87-1.28h3.47c-.33,2.43-2.21,3.82-5.47,3.82S135.36,62.79,135.36,59.26Zm7.73-1.36c-.06-1.3-.7-2-1.9-2a2.05,2.05,0,0,0-2.06,2Z" fill="#fff"/><path d="M148.05,53.74h3.69v2.14a3.4,3.4,0,0,1,3.49-2.29V57c-2.25-.07-3.49.63-3.49,2.37v5.11h-3.69Z" fill="#fff"/><path d="M156,59.26V59.1a5.51,5.51,0,0,1,5.83-5.65c3,0,5.48,1.69,5.48,5.56v1h-7.58A2.15,2.15,0,0,0,162,62.23c1.21,0,1.73-.56,1.87-1.28h3.46c-.33,2.43-2.2,3.82-5.46,3.82S156,62.79,156,59.26Zm7.73-1.36c-.06-1.3-.7-2-1.9-2a2,2,0,0,0-2.06,2Z" fill="#fff"/><path d="M168.06,61.1h3.41c.12.78.47,1.21,1.52,1.21s1.32-.35,1.32-.88-.52-.77-2-1c-2.89-.37-4.1-1.22-4.1-3.47s2.12-3.54,4.62-3.54c2.66,0,4.51.91,4.76,3.48h-3.34a1.21,1.21,0,0,0-1.38-1.07c-.81,0-1.22.35-1.22.85s.5.72,1.81.88c3,.37,4.44,1.16,4.44,3.47,0,2.55-1.9,3.71-4.89,3.71S168.15,63.49,168.06,61.1Z" fill="#fff"/><path d="M179.69,61.06V56.25h-1.3V53.74h1.3V51.49h3.69v2.25h2.12v2.51h-2.12v4.46a1,1,0,0,0,1.09,1.13,2.69,2.69,0,0,0,1.05-.19v2.81a7.83,7.83,0,0,1-2,.31C181.05,64.77,179.69,63.59,179.69,61.06Z" fill="#fff"/><path d="M191.19,49.78h5.36c5.23,0,7.89,2.62,7.89,7.19v.17c0,4.6-2.72,7.38-7.91,7.38h-5.34Zm5.21,11.48c2.52,0,3.63-1.32,3.63-4.06V57c0-2.81-1.11-4-3.67-4h-.93v8.22Z" fill="#fff"/><path d="M205.39,59.26V59.1a5.51,5.51,0,0,1,5.83-5.65c2.95,0,5.48,1.69,5.48,5.56v1h-7.58a2.14,2.14,0,0,0,2.24,2.25c1.22,0,1.74-.56,1.88-1.28h3.46c-.33,2.43-2.2,3.82-5.46,3.82S205.39,62.79,205.39,59.26Zm7.73-1.36c-.07-1.3-.7-2-1.9-2a2,2,0,0,0-2.06,2Z" fill="#fff"/><path d="M217.55,59.24v-.16c0-3.67,2-5.63,4.57-5.63a3.5,3.5,0,0,1,3.32,1.81V49h3.69V64.52h-3.69V62.77a3.64,3.64,0,0,1-3.36,2C219.59,64.77,217.55,63,217.55,59.24Zm8-.06V59c0-1.81-.76-2.78-2.12-2.78s-2.12.93-2.12,2.81v.16c0,1.81.8,2.74,2.08,2.74S225.54,61,225.54,59.18Z" fill="#fff"/><path d="M231,60.77v-7h3.69v6.43c0,1.21.48,1.81,1.53,1.81s1.83-.66,1.83-2v-6.2h3.69V64.52h-3.69V62.85a3.53,3.53,0,0,1-3.42,1.92C232.57,64.77,231,63.49,231,60.77Z" fill="#fff"/><path d="M243.16,59.26V59.1a5.42,5.42,0,0,1,5.75-5.65c2.64,0,5.07,1.15,5.28,4.43h-3.46A1.6,1.6,0,0,0,249,56.31c-1.3,0-2.07.93-2.07,2.75v.16c0,1.88.73,2.85,2.13,2.85a1.79,1.79,0,0,0,1.87-1.8h3.32c-.1,2.72-1.93,4.5-5.42,4.5C245.62,64.77,243.16,62.89,243.16,59.26Z" fill="#fff"/><path d="M256,61.06V56.25h-1.3V53.74H256V51.49h3.69v2.25h2.13v2.51h-2.13v4.46a1,1,0,0,0,1.1,1.13,2.69,2.69,0,0,0,1.05-.19v2.81a8,8,0,0,1-2,.31C257.4,64.77,256,63.59,256,61.06Z" fill="#fff"/><path d="M263.28,50.81a1.93,1.93,0,0,1,2-1.92,1.91,1.91,0,1,1,0,3.82A1.91,1.91,0,0,1,263.28,50.81Zm.18,2.93h3.69V64.52h-3.69Z" fill="#fff"/><path d="M268.65,59.26V59.1c0-3.47,2.58-5.65,5.92-5.65s5.88,2.12,5.88,5.54v.17c0,3.5-2.58,5.61-5.9,5.61S268.65,62.75,268.65,59.26Zm8-.06V59c0-1.82-.72-2.83-2.12-2.83s-2.14,1-2.14,2.78v.17c0,1.85.72,2.86,2.14,2.86S276.69,61,276.69,59.2Z" fill="#fff"/><path d="M281.85,53.74h3.69v1.73a3.8,3.8,0,0,1,3.54-2c2.08,0,3.53,1.3,3.53,4.06v7h-3.69V58.25c0-1.21-.48-1.81-1.55-1.81s-1.83.66-1.83,2v6h-3.69Z" fill="#fff"/><path d="M293.61,66.19l1.71-5.42L298.75,62,295.8,67Zm1.28-9.42a2.05,2.05,0,0,1,2.1-2.08,2.08,2.08,0,1,1,0,4.16A2,2,0,0,1,294.89,56.77Z" fill="#fff"/><path d="M307.92,53H304.1V49.78H316V53h-3.82V64.52h-4.24Z" fill="#fff"/><path d="M316.41,60.77v-7h3.69v6.43c0,1.21.47,1.81,1.52,1.81s1.84-.66,1.84-2v-6.2h3.69V64.52h-3.69V62.85A3.56,3.56,0,0,1,320,64.77C318,64.77,316.41,63.49,316.41,60.77Z" fill="#fff"/><path d="M329.12,53.74h3.69v2.14a3.39,3.39,0,0,1,3.48-2.29V57c-2.24-.07-3.48.63-3.48,2.37v5.11h-3.69Z" fill="#fff"/><path d="M341.43,62.85v1.67h-3.69V49h3.69v6.34a3.79,3.79,0,0,1,3.36-1.89c2.51,0,4.55,1.89,4.55,5.59v.16c0,3.71-2,5.57-4.58,5.57A3.49,3.49,0,0,1,341.43,62.85Zm4.16-3.65V59c0-1.9-.83-2.81-2.12-2.81s-2.15,1-2.15,2.78v.17c0,1.83.81,2.76,2.15,2.76S345.59,61,345.59,59.2Z" fill="#fff"/><path d="M350.2,59.26V59.1c0-3.47,2.58-5.65,5.92-5.65S362,55.57,362,59v.17c0,3.5-2.58,5.61-5.9,5.61S350.2,62.75,350.2,59.26Zm8-.06V59c0-1.82-.72-2.83-2.12-2.83S354,57.18,354,59v.17c0,1.85.72,2.86,2.14,2.86S358.24,61,358.24,59.2Z" fill="#fff"/><path d="M366.55,53h-3.82V49.78h11.88V53h-3.82V64.52h-4.24Z" fill="#fff"/><path d="M374,61.53C374,59,376.11,58,379.7,58h1v-.24c0-1-.25-1.71-1.42-1.71a1.32,1.32,0,0,0-1.47,1.27h-3.46c.16-2.59,2.2-3.87,5.15-3.87s4.87,1.22,4.87,4.08v7h-3.59V63.26a3.55,3.55,0,0,1-3.19,1.51C375.68,64.77,374,63.82,374,61.53Zm6.76-.78v-.66h-1c-1.49,0-2.14.29-2.14,1.17,0,.62.41,1,1.27,1A1.63,1.63,0,0,0,380.73,60.75Z" fill="#fff"/><path d="M389,59l-3.36-5.3h4.25l1.67,2.84,1.63-2.84H397l-3.4,5,3.73,5.77h-4.25l-1.91-3.22-2,3.22h-3.78Z" fill="#fff"/><path d="M401.77,59.24v-.16c0-3.67,2-5.63,4.57-5.63a3.5,3.5,0,0,1,3.32,1.81V49h3.69V64.52h-3.69V62.77a3.63,3.63,0,0,1-3.36,2C403.81,64.77,401.77,63,401.77,59.24Zm8-.06V59c0-1.81-.77-2.78-2.13-2.78s-2.12.93-2.12,2.81v.16c0,1.81.8,2.74,2.08,2.74S409.77,61,409.77,59.18Z" fill="#fff"/><path d="M414.75,59.26V59.1c0-3.47,2.58-5.65,5.92-5.65s5.87,2.12,5.87,5.54v.17c0,3.5-2.57,5.61-5.89,5.61S414.75,62.75,414.75,59.26Zm8-.06V59c0-1.82-.72-2.83-2.12-2.83s-2.15,1-2.15,2.78v.17c0,1.85.73,2.86,2.15,2.86S422.79,61,422.79,59.2Z" fill="#fff"/><path d="M427.36,59.26V59.1a5.52,5.52,0,0,1,5.84-5.65c2.94,0,5.48,1.69,5.48,5.56v1h-7.59a2.16,2.16,0,0,0,2.25,2.25c1.22,0,1.73-.56,1.88-1.28h3.46c-.33,2.43-2.21,3.82-5.46,3.82S427.36,62.79,427.36,59.26Zm7.73-1.36c-.06-1.3-.7-2-1.89-2a2,2,0,0,0-2.06,2Z" fill="#fff"/><path d="M439.44,61.1h3.4c.12.78.48,1.21,1.53,1.21.9,0,1.32-.35,1.32-.88s-.52-.77-2-1c-2.89-.37-4.11-1.22-4.11-3.47s2.13-3.54,4.62-3.54c2.66,0,4.52.91,4.76,3.48h-3.34a1.2,1.2,0,0,0-1.38-1.07c-.8,0-1.21.35-1.21.85s.49.72,1.81.88c3,.37,4.43,1.16,4.43,3.47,0,2.55-1.89,3.71-4.88,3.71S439.52,63.49,439.44,61.1Z" fill="#fff"/><path d="M450.57,53.74h3.69v1.73a3.8,3.8,0,0,1,3.54-2c2.09,0,3.53,1.3,3.53,4.06v7h-3.69V58.25c0-1.21-.47-1.81-1.55-1.81s-1.83.66-1.83,2v6h-3.69Z" fill="#fff"/><path d="M462.58,54.89l1.65-5.38,3.26,1.09-2.82,5.1Z" fill="#fff"/><path d="M469,61.06V56.25h-1.29V53.74H469V51.49h3.69v2.25h2.13v2.51h-2.13v4.46a1,1,0,0,0,1.1,1.13,2.69,2.69,0,0,0,1.05-.19v2.81a8,8,0,0,1-2,.31C470.39,64.77,469,63.59,469,61.06Z" fill="#fff"/><path d="M476.21,62.66a2.05,2.05,0,0,1,2.1-2.08,2.09,2.09,0,1,1,0,4.17A2.05,2.05,0,0,1,476.21,62.66Z" fill="#fff"/></g></g></g></svg>