<svg xmlns="http://www.w3.org/2000/svg" viewBox="0 0 160 600"><title>Asset 22</title><g id="Layer_2" data-name="Layer 2"><g id="Rect"><rect width="160" height="600" fill="none"/></g><g id="Avoid_guessing_games._Know_the_price_before_you_begin." data-name="Avoid guessing games. Know the price before you begin."><path d="M26.65,86.05h7.29l6.24,19.66h-6l-1-3.66H26.65l-1,3.66H20.36Zm1.1,12.12h4.32l-2.14-7.56Z" fill="#fff"/><path d="M38.84,91.33h5.25l3,9.26L50,91.33h4.7l-5.25,14.38H44.12Z" fill="#fff"/><path d="M54.43,98.7v-.22c0-4.62,3.44-7.54,7.89-7.54s7.84,2.83,7.84,7.4v.22c0,4.67-3.44,7.48-7.87,7.48S54.43,103.34,54.43,98.7Zm10.72-.09v-.22c0-2.42-1-3.76-2.83-3.76s-2.86,1.29-2.86,3.71v.22c0,2.47,1,3.82,2.86,3.82S65.15,101,65.15,98.61Z" fill="#fff"/><path d="M71.78,87.42A2.72,2.72,0,1,1,74.48,90,2.57,2.57,0,0,1,71.78,87.42ZM72,91.33H77v14.38H72Z" fill="#fff"/><path d="M78.88,98.67v-.22c0-4.9,2.69-7.51,6.1-7.51a4.66,4.66,0,0,1,4.43,2.42V85h4.92v20.71H89.41v-2.34A4.86,4.86,0,0,1,84.93,106C81.6,106,78.88,103.65,78.88,98.67Zm10.67-.08v-.22c0-2.42-1-3.72-2.84-3.72s-2.83,1.24-2.83,3.74v.22c0,2.42,1.07,3.66,2.78,3.66S89.55,101,89.55,98.59Z" fill="#fff"/><path d="M20.66,138.21h4.89c.22,1,.86,1.87,2.64,1.87a2.73,2.73,0,0,0,3.06-3v-2.2a5,5,0,0,1-4.46,2.64c-3.35,0-6.1-2.47-6.1-6.9v-.22c0-4.23,2.72-6.93,6.1-6.93a4.69,4.69,0,0,1,4.46,2.42v-2h4.92V137c0,4.29-2.83,6.54-8,6.54C23.3,143.54,21,141.48,20.66,138.21Zm10.72-7.65v-.19c0-2-1-3.24-2.83-3.24s-2.83,1.29-2.83,3.27v.22c0,2,1,3.24,2.8,3.24S31.38,132.6,31.38,130.56Z" fill="#fff"/><path d="M38.56,133.2v-9.37h4.92v8.58c0,1.62.64,2.42,2,2.42S48,134,48,132.1v-8.27h4.92v14.38H48V136a4.75,4.75,0,0,1-4.57,2.56C40.62,138.54,38.56,136.83,38.56,133.2Z" fill="#fff"/><path d="M54.62,131.2V131c0-4.62,3.44-7.54,7.78-7.54,3.94,0,7.32,2.26,7.32,7.43v1.29H59.6a2.88,2.88,0,0,0,3,3c1.62,0,2.31-.75,2.5-1.71h4.62c-.44,3.24-2.94,5.09-7.29,5.09C57.92,138.54,54.62,135.9,54.62,131.2Zm10.31-1.82c-.08-1.73-.93-2.69-2.53-2.69s-2.5,1-2.75,2.69Z" fill="#fff"/><path d="M70.6,133.64h4.54c.16,1.05.63,1.63,2,1.63,1.21,0,1.76-.47,1.76-1.19s-.69-1-2.67-1.29c-3.85-.49-5.47-1.62-5.47-4.62,0-3.19,2.83-4.73,6.16-4.73,3.55,0,6,1.21,6.35,4.65H78.85A1.61,1.61,0,0,0,77,126.66c-1.08,0-1.63.47-1.63,1.13s.66,1,2.42,1.18c4,.49,5.91,1.54,5.91,4.62,0,3.41-2.53,4.95-6.51,4.95S70.71,136.83,70.6,133.64Z" fill="#fff"/><path d="M84.43,133.64H89c.16,1.05.63,1.63,2,1.63,1.21,0,1.76-.47,1.76-1.19s-.68-1-2.66-1.29c-3.85-.49-5.48-1.62-5.48-4.62,0-3.19,2.84-4.73,6.16-4.73,3.55,0,6,1.21,6.35,4.65H92.68a1.61,1.61,0,0,0-1.84-1.43c-1.07,0-1.62.47-1.62,1.13s.66,1,2.41,1.18c4,.49,5.92,1.54,5.92,4.62,0,3.41-2.53,4.95-6.52,4.95S84.54,136.83,84.43,133.64Z" fill="#fff"/><path d="M99,119.92a2.72,2.72,0,1,1,2.7,2.53A2.57,2.57,0,0,1,99,119.92Zm.25,3.91h4.92v14.38H99.28Z" fill="#fff"/><path d="M106.84,123.83h4.93v2.31a5.06,5.06,0,0,1,4.72-2.7c2.78,0,4.71,1.73,4.71,5.42v9.35h-4.93v-8.36c0-1.62-.63-2.42-2.06-2.42s-2.44.88-2.44,2.72v8.06h-4.93Z" fill="#fff"/><path d="M122.79,138.21h4.9c.22,1,.85,1.87,2.64,1.87a2.72,2.72,0,0,0,3-3v-2.2a5,5,0,0,1-4.46,2.64c-3.35,0-6.1-2.47-6.1-6.9v-.22c0-4.23,2.72-6.93,6.1-6.93a4.68,4.68,0,0,1,4.46,2.42v-2h4.92V137c0,4.29-2.83,6.54-8,6.54C125.43,143.54,123.18,141.48,122.79,138.21Zm10.73-7.65v-.19c0-2-1-3.24-2.84-3.24s-2.83,1.29-2.83,3.27v.22c0,2,1.05,3.24,2.81,3.24S133.52,132.6,133.52,130.56Z" fill="#fff"/><path d="M20.66,170.71h4.89c.22,1,.86,1.87,2.64,1.87a2.73,2.73,0,0,0,3.06-3v-2.2A5,5,0,0,1,26.79,170c-3.35,0-6.1-2.47-6.1-6.9v-.22c0-4.23,2.72-6.93,6.1-6.93a4.69,4.69,0,0,1,4.46,2.42v-2h4.92V169.5c0,4.29-2.83,6.54-8,6.54C23.3,176,21,174,20.66,170.71Zm10.72-7.65v-.19c0-2-1-3.24-2.83-3.24s-2.83,1.29-2.83,3.27v.22c0,2,1,3.24,2.8,3.24S31.38,165.1,31.38,163.06Z" fill="#fff"/><path d="M37.85,166.72c0-3.38,2.86-4.7,7.64-4.7h1.38v-.33c0-1.38-.33-2.28-1.9-2.28a1.76,1.76,0,0,0-1.95,1.7H38.4c.22-3.46,2.94-5.17,6.87-5.17s6.49,1.62,6.49,5.45v9.32H47V169a4.75,4.75,0,0,1-4.27,2C40.13,171,37.85,169.77,37.85,166.72Zm9-1v-.88h-1.3c-2,0-2.86.38-2.86,1.56,0,.83.55,1.35,1.71,1.35A2.17,2.17,0,0,0,46.87,165.68Z" fill="#fff"/><path d="M54.15,156.33h4.93v2.2a5,5,0,0,1,4.51-2.59,3.93,3.93,0,0,1,3.9,2.39,5.72,5.72,0,0,1,4.76-2.39c2.72,0,4.7,1.76,4.7,5.36v9.41H72v-8.58c0-1.46-.72-2.17-1.85-2.17a2.13,2.13,0,0,0-2.2,2.42v8.33H63.12v-8.58c0-1.46-.72-2.17-1.84-2.17a2.13,2.13,0,0,0-2.2,2.42v8.33H54.15Z" fill="#fff"/><path d="M78.57,163.7v-.22c0-4.62,3.44-7.54,7.79-7.54,3.93,0,7.31,2.26,7.31,7.43v1.29H83.55a2.88,2.88,0,0,0,3,3c1.62,0,2.31-.75,2.5-1.71h4.62c-.44,3.24-2.94,5.09-7.29,5.09C81.87,171,78.57,168.4,78.57,163.7Zm10.32-1.82c-.09-1.73-.94-2.69-2.53-2.69a2.73,2.73,0,0,0-2.75,2.69Z" fill="#fff"/><path d="M94.55,166.14h4.54c.16,1.05.63,1.63,2,1.63,1.21,0,1.76-.47,1.76-1.19s-.68-1-2.66-1.29c-3.85-.49-5.48-1.62-5.48-4.62,0-3.19,2.84-4.73,6.16-4.73,3.55,0,6,1.21,6.35,4.65H102.8a1.61,1.61,0,0,0-1.84-1.43c-1.07,0-1.62.47-1.62,1.13s.66,1,2.41,1.18c4,.49,5.92,1.54,5.92,4.62,0,3.41-2.53,4.95-6.52,4.95S94.66,169.33,94.55,166.14Z" fill="#fff"/><path d="M109.07,168.23a2.74,2.74,0,0,1,2.81-2.77,2.78,2.78,0,1,1,0,5.55A2.74,2.74,0,0,1,109.07,168.23Z" fill="#fff"/><path d="M21.9,183.55h5.66v7.78l5.91-7.78h5.89l-7.21,9.13,7.59,10.53H33.23L27.56,195v8.22H21.9Z" fill="#fff"/><path d="M40.82,188.83h4.92v2.31a5.07,5.07,0,0,1,4.73-2.7c2.78,0,4.7,1.73,4.7,5.42v9.35H50.25v-8.36c0-1.62-.63-2.42-2.06-2.42s-2.45.88-2.45,2.72v8.06H40.82Z" fill="#fff"/><path d="M56.79,196.2V196c0-4.62,3.44-7.54,7.9-7.54s7.83,2.83,7.83,7.4v.22c0,4.67-3.43,7.48-7.86,7.48S56.79,200.84,56.79,196.2Zm10.73-.09v-.22c0-2.42-1-3.76-2.83-3.76s-2.86,1.29-2.86,3.71v.22c0,2.47,1,3.82,2.86,3.82S67.52,198.51,67.52,196.11Z" fill="#fff"/><path d="M72.58,188.83h5.14l2.09,8.6,2.42-8.6h4l2.14,8.6,2.34-8.6h4.68l-4.57,14.38h-4.7l-2.14-8-2.23,8H76.92Z" fill="#fff"/><path d="M22.12,231.09v-6.41H20.38v-3.35h1.74v-3H27v3h2.83v3.35H27v5.94c0,1,.52,1.51,1.46,1.51a3.84,3.84,0,0,0,1.4-.24v3.73a10.07,10.07,0,0,1-2.72.42C23.93,236,22.12,234.47,22.12,231.09Z" fill="#fff"/><path d="M31.74,215h4.92v8.64a5.07,5.07,0,0,1,4.73-2.7c2.78,0,4.71,1.73,4.71,5.42v9.35H41.17v-8.36c0-1.62-.63-2.42-2.06-2.42s-2.45.88-2.45,2.72v8.06H31.74Z" fill="#fff"/><path d="M47.72,228.7v-.22c0-4.62,3.44-7.54,7.78-7.54,3.93,0,7.31,2.26,7.31,7.43v1.29H52.7a2.86,2.86,0,0,0,3,3c1.63,0,2.31-.75,2.51-1.71h4.61c-.43,3.24-2.94,5.09-7.28,5.09C51,236,47.72,233.4,47.72,228.7ZM58,226.88c-.08-1.73-.93-2.69-2.53-2.69s-2.5,1-2.75,2.69Z" fill="#fff"/><path d="M69.53,221.33h4.92v2.14a5.08,5.08,0,0,1,4.48-2.53c3.36,0,6.08,2.53,6.08,7.45v.22c0,4.95-2.72,7.43-6.11,7.43a4.73,4.73,0,0,1-4.45-2.45v6.93H69.53ZM80,228.61v-.22c0-2.53-1.1-3.74-2.83-3.74s-2.86,1.3-2.86,3.72v.22c0,2.44,1.07,3.68,2.86,3.68S80,231,80,228.61Z" fill="#fff"/><path d="M86.8,221.33h4.92v2.86a4.54,4.54,0,0,1,4.65-3.06v4.6c-3-.09-4.65.85-4.65,3.16v6.82H86.8Z" fill="#fff"/><path d="M98,217.42a2.72,2.72,0,1,1,2.7,2.53A2.57,2.57,0,0,1,98,217.42Zm.25,3.91h4.92v14.38H98.29Z" fill="#fff"/><path d="M105.08,228.7v-.22c0-4.79,3.44-7.54,7.67-7.54,3.52,0,6.77,1.54,7,5.91h-4.62a2.12,2.12,0,0,0-2.3-2.09c-1.74,0-2.75,1.24-2.75,3.66v.22c0,2.5,1,3.8,2.83,3.8a2.4,2.4,0,0,0,2.5-2.4h4.43c-.14,3.63-2.59,6-7.24,6C108.36,236,105.08,233.54,105.08,228.7Z" fill="#fff"/><path d="M120.7,228.7v-.22c0-4.62,3.44-7.54,7.78-7.54,3.94,0,7.32,2.26,7.32,7.43v1.29H125.68a2.88,2.88,0,0,0,3,3c1.62,0,2.31-.75,2.5-1.71h4.62c-.44,3.24-2.94,5.09-7.29,5.09C124,236,120.7,233.4,120.7,228.7ZM131,226.88c-.08-1.73-.93-2.69-2.53-2.69a2.72,2.72,0,0,0-2.74,2.69Z" fill="#fff"/><path d="M26.38,266v2.23H21.46V247.5h4.92V256a5.08,5.08,0,0,1,4.48-2.53c3.36,0,6.08,2.53,6.08,7.45v.22c0,4.95-2.72,7.43-6.11,7.43A4.66,4.66,0,0,1,26.38,266Zm5.55-4.87v-.22c0-2.53-1.1-3.74-2.83-3.74s-2.86,1.3-2.86,3.72v.22c0,2.44,1.07,3.68,2.86,3.68S31.93,263.48,31.93,261.11Z" fill="#fff"/><path d="M38,261.2V261c0-4.62,3.43-7.54,7.78-7.54,3.93,0,7.31,2.26,7.31,7.43v1.29H42.93a2.88,2.88,0,0,0,3,3c1.62,0,2.31-.75,2.5-1.71h4.62c-.44,3.24-2.94,5.09-7.28,5.09C41.26,268.54,38,265.9,38,261.2Zm10.31-1.82c-.08-1.73-.94-2.69-2.53-2.69s-2.5,1-2.75,2.69Z" fill="#fff"/><path d="M55.5,257.18H53.69v-3.35H55.5v-1.27c0-3.57,2.23-5.28,5.64-5.28a9,9,0,0,1,2.25.3v3.61a4.41,4.41,0,0,0-1.34-.2,1.45,1.45,0,0,0-1.65,1.57v1.27h2.91v3.35H60.4v11H55.5Z" fill="#fff"/><path d="M63.7,261.2V261c0-4.62,3.43-7.54,7.89-7.54s7.83,2.83,7.83,7.4v.22c0,4.67-3.43,7.48-7.86,7.48S63.7,265.84,63.7,261.2Zm10.72-.09v-.22c0-2.42-1-3.76-2.83-3.76s-2.86,1.29-2.86,3.71v.22c0,2.47,1,3.82,2.86,3.82S74.42,263.51,74.42,261.11Z" fill="#fff"/><path d="M81.16,253.83h4.92v2.86a4.54,4.54,0,0,1,4.65-3.06v4.6c-3-.09-4.65.85-4.65,3.16v6.82H81.16Z" fill="#fff"/><path d="M91.61,261.2V261c0-4.62,3.44-7.54,7.78-7.54,3.93,0,7.32,2.26,7.32,7.43v1.29H96.59a2.86,2.86,0,0,0,3,3c1.63,0,2.31-.75,2.5-1.71h4.63c-.45,3.24-2.95,5.09-7.29,5.09C94.91,268.54,91.61,265.9,91.61,261.2Zm10.31-1.82c-.08-1.73-.93-2.69-2.53-2.69s-2.5,1-2.75,2.69Z" fill="#fff"/><path d="M26,299.25l-5.75-12.92h5.33l3,7.67,2.75-7.67H36l-7.7,19.19H23.57Z" fill="#fff"/><path d="M35.7,293.7v-.22c0-4.62,3.44-7.54,7.89-7.54s7.84,2.83,7.84,7.4v.22c0,4.67-3.44,7.48-7.86,7.48S35.7,298.34,35.7,293.7Zm10.73-.09v-.22c0-2.42-1-3.76-2.84-3.76s-2.86,1.29-2.86,3.71v.22c0,2.47,1,3.82,2.86,3.82S46.43,296,46.43,293.61Z" fill="#fff"/><path d="M53.05,295.7v-9.37H58v8.58c0,1.62.63,2.42,2,2.42s2.45-.88,2.45-2.73v-8.27h4.92v14.38H62.46v-2.23A4.74,4.74,0,0,1,57.89,301C55.12,301,53.05,299.33,53.05,295.7Z" fill="#fff"/><path d="M26.38,331v2.23H21.46V312.5h4.92V321a5.08,5.08,0,0,1,4.48-2.53c3.36,0,6.08,2.53,6.08,7.45v.22c0,4.95-2.72,7.43-6.11,7.43A4.66,4.66,0,0,1,26.38,331Zm5.55-4.87v-.22c0-2.53-1.1-3.74-2.83-3.74s-2.86,1.3-2.86,3.72v.22c0,2.44,1.07,3.68,2.86,3.68S31.93,328.48,31.93,326.11Z" fill="#fff"/><path d="M38,326.2V326c0-4.62,3.43-7.54,7.78-7.54,3.93,0,7.31,2.26,7.31,7.43v1.29H42.93a2.88,2.88,0,0,0,3,3c1.62,0,2.31-.75,2.5-1.71h4.62c-.44,3.25-2.94,5.09-7.28,5.09C41.26,333.54,38,330.9,38,326.2Zm10.31-1.82c-.08-1.73-.94-2.69-2.53-2.69s-2.5,1-2.75,2.69Z" fill="#fff"/><path d="M54,333.21h4.9c.22,1,.85,1.87,2.64,1.87a2.72,2.72,0,0,0,3-3v-2.2a5,5,0,0,1-4.46,2.64c-3.35,0-6.1-2.47-6.1-6.9v-.22c0-4.23,2.72-6.93,6.1-6.93a4.68,4.68,0,0,1,4.46,2.42v-2h4.92V332c0,4.29-2.83,6.54-8,6.54C56.6,338.54,54.35,336.48,54,333.21Zm10.73-7.65v-.19c0-2-1-3.24-2.84-3.24S59,323.42,59,325.4v.22c0,2,1,3.24,2.81,3.24S64.69,327.6,64.69,325.56Z" fill="#fff"/><path d="M71.86,314.92a2.72,2.72,0,1,1,2.7,2.53A2.57,2.57,0,0,1,71.86,314.92Zm.25,3.91H77v14.38H72.11Z" fill="#fff"/><path d="M79.67,318.83H84.6v2.31a5.06,5.06,0,0,1,4.73-2.7c2.77,0,4.7,1.73,4.7,5.42v9.35H89.11v-8.36c0-1.62-.64-2.42-2.07-2.42s-2.44.88-2.44,2.72v8.06H79.67Z" fill="#fff"/><path d="M96.23,330.73A2.73,2.73,0,0,1,99,328a2.78,2.78,0,1,1,0,5.55A2.74,2.74,0,0,1,96.23,330.73Z" fill="#fff"/></g></g></svg>