<svg xmlns="http://www.w3.org/2000/svg" viewBox="0 0 300 250"><title>H28</title><g id="Layer_2" data-name="Layer 2"><g id="Rect"><rect width="300" height="250" fill="none"/></g><g id="H28"><g id="_Business_Insider_on_H_R_Block_Online" data-name="– Business Insider on H&amp;R Block Online"><path d="M126.29,139.05h7.06v1.35h-7.06Z" fill="#fff"/><path d="M138.72,132.79h4.1c2.35,0,3.75.9,3.75,3v.07a2.35,2.35,0,0,1-1.81,2.43,2.51,2.51,0,0,1,2.29,2.7V141c0,2.13-1.41,3.2-3.92,3.2h-4.41Zm3.85,4.82c1.4,0,2-.51,2-1.68v-.06c0-1.09-.63-1.55-2-1.55H140.8v3.29Zm.3,5.11c1.42,0,2.08-.64,2.08-1.83v-.06c0-1.18-.66-1.78-2.22-1.78H140.8v3.67Z" fill="#fff"/><path d="M148.56,141.23v-5.36h1.94V141c0,1.26.53,1.84,1.65,1.84a1.87,1.87,0,0,0,1.95-2v-5H156v8.37H154.1v-1.31a2.82,2.82,0,0,1-2.66,1.47C149.8,144.4,148.56,143.46,148.56,141.23Z" fill="#fff"/><path d="M157.44,141.63h1.83c.09.85.53,1.35,1.66,1.35s1.51-.37,1.51-1.08-.56-.94-1.8-1.15c-2.2-.35-3-1-3-2.54s1.57-2.52,3.14-2.52,3.07.64,3.28,2.53h-1.79a1.3,1.3,0,0,0-1.49-1.12c-.84,0-1.33.4-1.33,1s.4.85,1.73,1.08c2,.3,3.13.78,3.13,2.56s-1.2,2.67-3.34,2.67S157.52,143.41,157.44,141.63Z" fill="#fff"/><path d="M165.59,133.39a1.15,1.15,0,1,1,1.15,1.1A1.12,1.12,0,0,1,165.59,133.39Zm.2,2.48h1.94v8.37h-1.94Z" fill="#fff"/><path d="M169.84,135.87h1.94v1.33a2.88,2.88,0,0,1,2.71-1.51c1.68,0,2.86,1,2.86,3.28v5.27h-1.94v-5.09c0-1.26-.51-1.84-1.66-1.84a1.85,1.85,0,0,0-2,2v4.93h-1.94Z" fill="#fff"/><path d="M178.77,140.14V140a4.07,4.07,0,0,1,4.16-4.32c2.08,0,4,1.23,4,4.23v.56h-6.13c.06,1.58.86,2.48,2.3,2.48,1.17,0,1.78-.46,1.92-1.28h1.87c-.27,1.76-1.69,2.72-3.84,2.72A4,4,0,0,1,178.77,140.14Zm6.2-1c-.1-1.44-.84-2.08-2-2.08a2.14,2.14,0,0,0-2.14,2.08Z" fill="#fff"/><path d="M187.81,141.63h1.82c.1.85.53,1.35,1.67,1.35s1.5-.37,1.5-1.08-.56-.94-1.79-1.15c-2.21-.35-3-1-3-2.54s1.56-2.52,3.13-2.52c1.72,0,3.08.64,3.29,2.53h-1.8a1.29,1.29,0,0,0-1.49-1.12c-.83,0-1.33.4-1.33,1s.41.85,1.73,1.08c2,.3,3.14.78,3.14,2.56s-1.2,2.67-3.34,2.67S187.89,143.41,187.81,141.63Z" fill="#fff"/><path d="M195.49,141.63h1.82c.1.85.53,1.35,1.67,1.35s1.5-.37,1.5-1.08-.56-.94-1.79-1.15c-2.21-.35-3-1-3-2.54s1.56-2.52,3.13-2.52,3.08.64,3.28,2.53h-1.79a1.29,1.29,0,0,0-1.49-1.12c-.83,0-1.33.4-1.33,1s.41.85,1.73,1.08c2,.3,3.14.78,3.14,2.56s-1.2,2.67-3.34,2.67S195.57,143.41,195.49,141.63Z" fill="#fff"/><path d="M207.59,132.79h2.14v11.45h-2.14Z" fill="#fff"/><path d="M212,135.87H214v1.33a2.88,2.88,0,0,1,2.71-1.51c1.68,0,2.86,1,2.86,3.28v5.27H217.6v-5.09c0-1.26-.51-1.84-1.66-1.84a1.85,1.85,0,0,0-2,2v4.93H212Z" fill="#fff"/><path d="M220.88,141.63h1.83c.09.85.52,1.35,1.66,1.35s1.51-.37,1.51-1.08-.56-.94-1.8-1.15c-2.21-.35-3-1-3-2.54s1.57-2.52,3.13-2.52c1.72,0,3.08.64,3.29,2.53h-1.8a1.29,1.29,0,0,0-1.49-1.12c-.83,0-1.32.4-1.32,1s.4.85,1.72,1.08c2,.3,3.14.78,3.14,2.56s-1.2,2.67-3.34,2.67S221,143.41,220.88,141.63Z" fill="#fff"/><path d="M229,133.39a1.15,1.15,0,1,1,1.15,1.1A1.12,1.12,0,0,1,229,133.39Zm.2,2.48h1.94v8.37h-1.94Z" fill="#fff"/><path d="M232.74,140.19v-.13c0-2.67,1.58-4.37,3.76-4.37a2.86,2.86,0,0,1,2.67,1.46V132h1.94v12.24h-1.94v-1.41a3.22,3.22,0,0,1-2.75,1.57C234.32,144.4,232.74,142.91,232.74,140.19Zm6.5-.1V140c0-1.84-.85-2.76-2.26-2.76s-2.26,1-2.26,2.8v.13c0,1.84.93,2.72,2.18,2.72S239.24,142,239.24,140.09Z" fill="#fff"/><path d="M242.61,140.14V140a4.07,4.07,0,0,1,4.16-4.32c2.08,0,3.95,1.23,3.95,4.23v.56h-6.13c.07,1.58.87,2.48,2.31,2.48,1.17,0,1.78-.46,1.92-1.28h1.87c-.27,1.76-1.69,2.72-3.84,2.72A4,4,0,0,1,242.61,140.14Zm6.19-1c-.09-1.44-.83-2.08-2-2.08a2.14,2.14,0,0,0-2.14,2.08Z" fill="#fff"/><path d="M252.21,135.87h1.94v1.57a2.78,2.78,0,0,1,2.72-1.7v1.81c-1.7,0-2.72.56-2.72,2.34v4.35h-1.94Z" fill="#fff"/><path d="M261.33,140.14V140a4.3,4.3,0,1,1,8.59,0v.12a4.3,4.3,0,0,1-8.59,0Zm6.61,0V140c0-1.73-.86-2.79-2.31-2.79s-2.32,1-2.32,2.77v.13c0,1.71.85,2.79,2.32,2.79S267.94,141.82,267.94,140.11Z" fill="#fff"/><path d="M271.42,135.87h1.94v1.33a2.88,2.88,0,0,1,2.71-1.51c1.68,0,2.86,1,2.86,3.28v5.27H277v-5.09c0-1.26-.52-1.84-1.67-1.84a1.85,1.85,0,0,0-2,2v4.93h-1.94Z" fill="#fff"/><path d="M150.64,150.79h2.13v4.87h5.14v-4.87h2.14v11.45h-2.14v-4.87h-5.14v4.87h-2.13Z" fill="#fff"/><path d="M170.2,159.9l1.92,2.34h-2.45l-1-1.17a4.12,4.12,0,0,1-3.14,1.31c-2.22,0-3.76-1.26-3.76-3.26,0-1.68,1-2.66,2.58-3.39a3.84,3.84,0,0,1-.9-2.26c0-1.81,1.49-2.77,3.15-2.77a2.62,2.62,0,0,1,2.89,2.48c0,1.33-.9,2.27-2.39,2.91l2,2.47,1.17-2.24h1.74Zm-2.48-.06-2.44-3a2.16,2.16,0,0,0-1.45,2,1.77,1.77,0,0,0,2,1.87A2.48,2.48,0,0,0,167.72,159.84Zm-1.48-4.67c1.08-.5,1.52-1,1.52-1.91a1.08,1.08,0,0,0-1.12-1.14,1.22,1.22,0,0,0-1.26,1.36A2.86,2.86,0,0,0,166.24,155.17Z" fill="#fff"/><path d="M173.63,150.79h3.85c2.51,0,4.27,1,4.27,3.37v.06a3,3,0,0,1-2.55,3.07l3.22,5h-2.3l-3-4.63h-1.36v4.63h-2.13Zm3.85,5.3c1.42,0,2.17-.6,2.17-1.82v-.06c0-1.32-.81-1.77-2.17-1.77h-1.72v3.65Z" fill="#fff"/><path d="M187.44,150.79h4.1c2.35,0,3.75.9,3.75,3v.07a2.35,2.35,0,0,1-1.81,2.43,2.51,2.51,0,0,1,2.29,2.7V159c0,2.13-1.41,3.2-3.93,3.2h-4.4Zm3.84,4.82c1.41,0,2-.51,2-1.68v-.06c0-1.09-.63-1.55-2-1.55h-1.73v3.29Zm.31,5.11c1.42,0,2.08-.64,2.08-1.83v-.06c0-1.18-.66-1.78-2.23-1.78h-1.92v3.67Z" fill="#fff"/><path d="M197.41,150h1.94v12.24h-1.94Z" fill="#fff"/><path d="M200.9,158.14V158a4.3,4.3,0,1,1,8.59,0v.12a4.3,4.3,0,0,1-8.59,0Zm6.61,0V158c0-1.73-.87-2.79-2.31-2.79s-2.32,1-2.32,2.77v.13c0,1.71.85,2.79,2.32,2.79S207.51,159.82,207.51,158.11Z" fill="#fff"/><path d="M210.43,158.16V158a4.13,4.13,0,0,1,4.23-4.34c1.86,0,3.6.83,3.82,3.14h-1.87a1.72,1.72,0,0,0-1.92-1.58c-1.33,0-2.27,1-2.27,2.75v.13c0,1.82.89,2.78,2.32,2.78a1.92,1.92,0,0,0,2-1.79h1.77a3.54,3.54,0,0,1-3.87,3.28A4,4,0,0,1,210.43,158.16Z" fill="#fff"/><path d="M220,150h1.94v7.55l3-3.68H227l-3.25,3.84,3.52,4.53H225l-3.14-4.11v4.11H220Z" fill="#fff"/><path d="M231.5,156.59v-.13a5.62,5.62,0,0,1,5.8-5.82,5.53,5.53,0,0,1,5.76,5.77v.13a5.78,5.78,0,1,1-11.56.05Zm9.35,0v-.13c0-2.35-1.31-4.1-3.55-4.1s-3.57,1.65-3.57,4.12v.12c0,2.5,1.52,4.12,3.6,4.12S240.85,159,240.85,156.56Z" fill="#fff"/><path d="M244.71,153.87h1.93v1.33a2.88,2.88,0,0,1,2.71-1.51c1.68,0,2.86,1,2.86,3.28v5.27h-1.93v-5.09c0-1.26-.52-1.84-1.67-1.84a1.85,1.85,0,0,0-2,2v4.93h-1.93Z" fill="#fff"/><path d="M254.24,150h1.94v12.24h-1.94Z" fill="#fff"/><path d="M258.13,151.39a1.15,1.15,0,1,1,1.15,1.1A1.12,1.12,0,0,1,258.13,151.39Zm.21,2.48h1.93v8.37h-1.93Z" fill="#fff"/><path d="M262.38,153.87h1.94v1.33a2.88,2.88,0,0,1,2.71-1.51c1.68,0,2.86,1,2.86,3.28v5.27H268v-5.09c0-1.26-.52-1.84-1.67-1.84a1.85,1.85,0,0,0-2,2v4.93h-1.94Z" fill="#fff"/><path d="M271.31,158.14V158a4.07,4.07,0,0,1,4.16-4.32c2.08,0,4,1.23,4,4.23v.56H273.3c.06,1.58.86,2.48,2.3,2.48,1.17,0,1.78-.46,1.92-1.28h1.88c-.28,1.76-1.7,2.72-3.85,2.72A4,4,0,0,1,271.31,158.14Zm6.2-1c-.1-1.44-.84-2.08-2-2.08a2.15,2.15,0,0,0-2.14,2.08Z" fill="#fff"/></g><g id="_H_R_Block_is_the_online_winner._" data-name="&quot;H&amp;R Block [is] the [online] winner.&quot;"><path d="M21.18,41.75H26l-.61,7.94H21.76Zm6.12,0h4.88l-.61,7.94H27.91Z" fill="#fff"/><path d="M34.89,41.75h5.94v7.88h6.78V41.75h5.92V62.39H47.61V54.25H40.83v8.14H34.89Z" fill="#fff"/><path d="M73.32,58.17l3.43,4.22H70l-1.21-1.5a8.27,8.27,0,0,1-5.57,1.84c-4.39,0-7.25-2.31-7.25-6.23,0-2.65,1.62-4.62,4.53-6a6.61,6.61,0,0,1-1.26-3.61c0-3.52,3-5.39,6.63-5.39,3.29,0,6.26,1.64,6.26,4.81,0,2.25-1.32,3.9-4.12,5.11l2.59,3.18,1.5-3h4.51Zm-7.16-.6L62.9,53.64a2.44,2.44,0,0,0-1.38,2.22,2.39,2.39,0,0,0,2.62,2.57A2.73,2.73,0,0,0,66.16,57.57Zm-.63-8.31c1.38-.67,2-1.45,2-2.51a1.49,1.49,0,0,0-1.53-1.59A1.64,1.64,0,0,0,64.34,47,3.82,3.82,0,0,0,65.53,49.26Z" fill="#fff"/><path d="M78.62,41.75H86.7c5.4,0,8.4,2.2,8.4,6.56v.11a5.41,5.41,0,0,1-3.72,5.43l4.93,8.54H90.08L85.89,55H84.51v7.39H78.62Zm7.79,9.41c2,0,3-.84,3-2.51v-.11c0-1.68-1-2.34-3-2.34H84.51v5Z" fill="#fff"/><path d="M103.55,41.75h9.2c4.88,0,7,2.2,7,5.4v.12a4.26,4.26,0,0,1-3.49,4.44,4.48,4.48,0,0,1,4.12,4.82v.11c0,3.7-2.39,5.75-7.5,5.75h-9.29Zm8,8.2c1.85,0,2.54-.64,2.54-2.11v-.11c0-1.42-.75-2-2.54-2h-2.25V50Zm.2,8.48c1.88,0,2.74-.86,2.74-2.39v-.12c0-1.56-.83-2.36-2.91-2.36h-2.28v4.87Z" fill="#fff"/><path d="M122.39,40.66h5.13V62.39h-5.13Z" fill="#fff"/><path d="M129.48,55V54.8c0-4.85,3.61-7.91,8.29-7.91s8.22,3,8.22,7.76v.23c0,4.91-3.61,7.85-8.25,7.85S129.48,59.9,129.48,55Zm11.26-.09v-.23c0-2.54-1-4-3-4s-3,1.35-3,3.89v.23c0,2.6,1,4,3,4S140.74,57.45,140.74,54.94Z" fill="#fff"/><path d="M147,55V54.8c0-5,3.6-7.91,8.05-7.91,3.69,0,7.09,1.62,7.38,6.2h-4.85a2.23,2.23,0,0,0-2.42-2.19c-1.82,0-2.88,1.3-2.88,3.84V55c0,2.63,1,4,3,4a2.5,2.5,0,0,0,2.62-2.51h4.65c-.14,3.81-2.71,6.29-7.59,6.29C150.43,62.73,147,60.11,147,55Z" fill="#fff"/><path d="M164.19,40.66h5.17V53.27l4.06-6h5.37l-4.93,6.79,5.33,8.31h-5.77l-4.06-6.61v6.61h-5.17Z" fill="#fff"/><path d="M186,40h8.8v3.77h-3.61V62.88h3.61v3.78H186Z" fill="#fff"/><path d="M196.91,43.2a2.7,2.7,0,0,1,2.82-2.69,2.73,2.73,0,0,1,2.86,2.69,2.69,2.69,0,0,1-2.86,2.65A2.67,2.67,0,0,1,196.91,43.2Zm.26,4.09h5.16v15.1h-5.16Z" fill="#fff"/><path d="M204.09,57.6h4.76c.17,1.09.66,1.7,2.14,1.7,1.26,0,1.84-.49,1.84-1.24S212.11,57,210,56.7c-4-.52-5.74-1.7-5.74-4.85,0-3.34,3-5,6.46-5,3.73,0,6.32,1.27,6.67,4.88h-4.67a1.69,1.69,0,0,0-1.94-1.5c-1.12,0-1.7.49-1.7,1.18s.69,1,2.54,1.24c4.18.52,6.2,1.62,6.2,4.85,0,3.58-2.65,5.19-6.84,5.19S204.21,60.94,204.09,57.6Z" fill="#fff"/><path d="M218.83,62.88h3.58V43.77h-3.58V40h8.77V66.66h-8.77Z" fill="#fff"/><path d="M236.55,57.54V50.82h-1.82V47.29h1.82V44.15h5.16v3.14h3v3.53h-3v6.23a1.38,1.38,0,0,0,1.53,1.58,4,4,0,0,0,1.47-.25V62.3a10.93,10.93,0,0,1-2.86.43C238.45,62.73,236.55,61.09,236.55,57.54Z" fill="#fff"/><path d="M246.64,40.66h5.17v9.06a5.32,5.32,0,0,1,5-2.83c2.91,0,4.94,1.82,4.94,5.69v9.81h-5.17V53.61c0-1.7-.66-2.53-2.16-2.53s-2.57.92-2.57,2.85v8.46h-5.17Z" fill="#fff"/><path d="M263.4,55V54.8c0-4.85,3.61-7.91,8.17-7.91,4.13,0,7.68,2.37,7.68,7.79V56H268.63a3,3,0,0,0,3.14,3.14c1.7,0,2.43-.78,2.63-1.79h4.85c-.47,3.41-3.09,5.34-7.65,5.34C266.87,62.73,263.4,60,263.4,55Zm10.82-1.91c-.08-1.81-1-2.82-2.65-2.82s-2.63,1-2.89,2.82Z" fill="#fff"/><path d="M21.9,70.84h8.81v3.78H27.1V93.73h3.61v3.78H21.9Z" fill="#fff"/><path d="M31.74,85.88v-.23c0-4.85,3.61-7.91,8.28-7.91s8.23,3,8.23,7.76v.23c0,4.91-3.61,7.85-8.26,7.85S31.74,90.75,31.74,85.88ZM43,85.79v-.23c0-2.54-1-4-3-4S37,83,37,85.5v.23c0,2.6,1,4,3,4S43,88.3,43,85.79Z" fill="#fff"/><path d="M50.06,78.15h5.17v2.42a5.31,5.31,0,0,1,5-2.83c2.91,0,4.93,1.82,4.93,5.69v9.81H60V84.46c0-1.7-.66-2.54-2.17-2.54s-2.56.93-2.56,2.86v8.46H50.06Z" fill="#fff"/><path d="M67.78,71.51h5.13V93.24H67.78Z" fill="#fff"/><path d="M75.56,74.05a2.85,2.85,0,1,1,2.83,2.65A2.67,2.67,0,0,1,75.56,74.05Zm.26,4.1H81V93.24H75.82Z" fill="#fff"/><path d="M83.76,78.15h5.16v2.42a5.34,5.34,0,0,1,5-2.83c2.91,0,4.93,1.82,4.93,5.69v9.81H93.66V84.46c0-1.7-.67-2.54-2.17-2.54s-2.57.93-2.57,2.86v8.46H83.76Z" fill="#fff"/><path d="M100.52,85.88v-.23c0-4.85,3.61-7.91,8.17-7.91,4.12,0,7.67,2.37,7.67,7.79v1.36H105.74A3,3,0,0,0,108.89,90c1.7,0,2.42-.78,2.62-1.79h4.85c-.46,3.41-3.09,5.34-7.65,5.34C104,93.58,100.52,90.81,100.52,85.88ZM111.34,84c-.09-1.81-1-2.82-2.65-2.82s-2.63,1-2.89,2.82Z" fill="#fff"/><path d="M117.45,93.73H121V74.62h-3.58V70.84h8.78V97.51h-8.78Z" fill="#fff"/><path d="M133.21,78.15h5.39l2.19,9,2.54-9h4.16l2.25,9,2.45-9h4.91l-4.79,15.09h-4.94l-2.25-8.43-2.33,8.43h-5Z" fill="#fff"/><path d="M158.31,74.05a2.7,2.7,0,0,1,2.82-2.69A2.73,2.73,0,0,1,164,74.05a2.69,2.69,0,0,1-2.86,2.65A2.67,2.67,0,0,1,158.31,74.05Zm.26,4.1h5.16V93.24h-5.16Z" fill="#fff"/><path d="M166.5,78.15h5.16v2.42a5.34,5.34,0,0,1,5-2.83c2.91,0,4.93,1.82,4.93,5.69v9.81H176.4V84.46c0-1.7-.67-2.54-2.17-2.54s-2.57.93-2.57,2.86v8.46H166.5Z" fill="#fff"/><path d="M184.07,78.15h5.16v2.42a5.34,5.34,0,0,1,5-2.83c2.91,0,4.93,1.82,4.93,5.69v9.81H194V84.46c0-1.7-.66-2.54-2.16-2.54s-2.57.93-2.57,2.86v8.46h-5.16Z" fill="#fff"/><path d="M200.83,85.88v-.23c0-4.85,3.61-7.91,8.17-7.91,4.12,0,7.67,2.37,7.67,7.79v1.36H206.05A3,3,0,0,0,209.2,90c1.7,0,2.42-.78,2.62-1.79h4.85c-.46,3.41-3.09,5.34-7.65,5.34C204.29,93.58,200.83,90.81,200.83,85.88ZM211.65,84c-.09-1.81-1-2.82-2.65-2.82s-2.63,1-2.89,2.82Z" fill="#fff"/><path d="M218.46,78.15h5.16v3a4.76,4.76,0,0,1,4.88-3.21v4.82c-3.15-.08-4.88.9-4.88,3.32v7.16h-5.16Z" fill="#fff"/><path d="M228.44,90.64a2.88,2.88,0,0,1,2.94-2.92,2.92,2.92,0,1,1,0,5.83A2.88,2.88,0,0,1,228.44,90.64Z" fill="#fff"/><path d="M233.78,72.6h4.84l-.6,7.94h-3.67Zm6.11,0h4.88l-.61,7.94H240.5Z" fill="#fff"/></g></g></g></svg>