<svg xmlns="http://www.w3.org/2000/svg" viewBox="0 0 728 90"><title>H46</title><g id="Layer_2" data-name="Layer 2"><g id="Rect"><rect width="728" height="90" fill="none"/></g><g id="H46"><g id="Know_the_price_in_three_simple_steps." data-name="Know the price in three simple steps."><path d="M121.74,34h5.18v7.11l5.4-7.11h5.38l-6.59,8.35,6.95,9.63h-6l-5.18-7.52v7.52h-5.18Z" fill="#fff"/><path d="M139,38.79h4.5V40.9a4.64,4.64,0,0,1,4.33-2.47c2.53,0,4.3,1.59,4.3,5v8.55h-4.51V44.29c0-1.48-.57-2.21-1.88-2.21s-2.24.8-2.24,2.49v7.37H139Z" fill="#fff"/><path d="M153.65,45.53v-.21c0-4.22,3.14-6.89,7.22-6.89S168,41,168,45.2v.2c0,4.27-3.14,6.84-7.19,6.84S153.65,49.78,153.65,45.53Zm9.81-.08v-.2c0-2.21-.88-3.45-2.59-3.45s-2.62,1.19-2.62,3.4v.2c0,2.26.88,3.49,2.62,3.49S163.46,47.64,163.46,45.45Z" fill="#fff"/><path d="M168.09,38.79h4.7l1.91,7.87,2.21-7.87h3.62l2,7.87,2.13-7.87h4.28l-4.18,13.15h-4.3l-2-7.35-2,7.35h-4.38Z" fill="#fff"/><path d="M195.25,47.71V41.85h-1.59V38.79h1.59V36h4.5v2.75h2.59v3.06h-2.59v5.44a1.2,1.2,0,0,0,1.33,1.38,3.44,3.44,0,0,0,1.28-.23v3.42a9.37,9.37,0,0,1-2.48.38C196.91,52.24,195.25,50.81,195.25,47.71Z" fill="#fff"/><path d="M204.05,33h4.5v7.9a4.65,4.65,0,0,1,4.33-2.47c2.54,0,4.3,1.59,4.3,5v8.55h-4.5V44.29c0-1.48-.58-2.21-1.89-2.21s-2.24.8-2.24,2.49v7.37h-4.5Z" fill="#fff"/><path d="M218.66,45.53v-.21c0-4.22,3.15-6.89,7.12-6.89,3.59,0,6.69,2.07,6.69,6.79v1.19h-9.26A2.63,2.63,0,0,0,226,49.15c1.49,0,2.12-.68,2.29-1.56h4.23c-.4,3-2.69,4.65-6.67,4.65S218.66,49.83,218.66,45.53Zm9.43-1.66c-.07-1.59-.85-2.47-2.31-2.47a2.51,2.51,0,0,0-2.52,2.47Z" fill="#fff"/><path d="M238.61,38.79h4.5v2a4.63,4.63,0,0,1,4.1-2.32c3.06,0,5.55,2.32,5.55,6.82v.2c0,4.53-2.49,6.79-5.58,6.79A4.32,4.32,0,0,1,243.11,50v6.34h-4.5Zm9.58,6.66v-.2c0-2.31-1-3.42-2.59-3.42S243,43,243,45.22v.2c0,2.24,1,3.37,2.62,3.37S248.19,47.61,248.19,45.45Z" fill="#fff"/><path d="M254.4,38.79h4.5V41.4a4.14,4.14,0,0,1,4.25-2.79v4.2c-2.74-.08-4.25.78-4.25,2.89v6.24h-4.5Z" fill="#fff"/><path d="M264.69,35.22a2.34,2.34,0,0,1,2.46-2.34,2.33,2.33,0,1,1,0,4.65A2.32,2.32,0,0,1,264.69,35.22Zm.22,3.57h4.5V51.94h-4.5Z" fill="#fff"/><path d="M271.12,45.53v-.21c0-4.37,3.15-6.89,7-6.89,3.22,0,6.19,1.41,6.44,5.41h-4.23a1.94,1.94,0,0,0-2.11-1.91c-1.58,0-2.51,1.13-2.51,3.34v.2c0,2.29.88,3.48,2.59,3.48a2.19,2.19,0,0,0,2.28-2.19h4c-.12,3.32-2.36,5.48-6.61,5.48C274.12,52.24,271.12,50,271.12,45.53Z" fill="#fff"/><path d="M285.41,45.53v-.21c0-4.22,3.14-6.89,7.12-6.89,3.59,0,6.68,2.07,6.68,6.79v1.19H290a2.63,2.63,0,0,0,2.74,2.74c1.49,0,2.11-.68,2.29-1.56h4.22c-.4,3-2.69,4.65-6.66,4.65C288.43,52.24,285.41,49.83,285.41,45.53Zm9.43-1.66c-.08-1.59-.86-2.47-2.31-2.47A2.51,2.51,0,0,0,290,43.87Z" fill="#fff"/><path d="M305.25,35.22a2.49,2.49,0,1,1,2.47,2.31A2.35,2.35,0,0,1,305.25,35.22Zm.23,3.57H310V51.94h-4.5Z" fill="#fff"/><path d="M312.39,38.79h4.51V40.9a4.63,4.63,0,0,1,4.32-2.47c2.54,0,4.3,1.59,4.3,5v8.55H321V44.29c0-1.48-.58-2.21-1.89-2.21s-2.23.8-2.23,2.49v7.37h-4.51Z" fill="#fff"/><path d="M332.89,47.71V41.85h-1.58V38.79h1.58V36h4.5v2.75H340v3.06h-2.59v5.44a1.2,1.2,0,0,0,1.34,1.38,3.44,3.44,0,0,0,1.28-.23v3.42a9.52,9.52,0,0,1-2.49.38C334.55,52.24,332.89,50.81,332.89,47.71Z" fill="#fff"/><path d="M341.69,33h4.5v7.9a4.65,4.65,0,0,1,4.33-2.47c2.54,0,4.3,1.59,4.3,5v8.55h-4.5V44.29c0-1.48-.58-2.21-1.89-2.21s-2.24.8-2.24,2.49v7.37h-4.5Z" fill="#fff"/><path d="M357,38.79h4.5V41.4a4.14,4.14,0,0,1,4.25-2.79v4.2c-2.74-.08-4.25.78-4.25,2.89v6.24H357Z" fill="#fff"/><path d="M366.57,45.53v-.21c0-4.22,3.14-6.89,7.11-6.89,3.6,0,6.69,2.07,6.69,6.79v1.19h-9.25a2.62,2.62,0,0,0,2.74,2.74c1.48,0,2.11-.68,2.29-1.56h4.22c-.4,3-2.69,4.65-6.66,4.65C369.58,52.24,366.57,49.83,366.57,45.53ZM376,43.87c-.08-1.59-.86-2.47-2.32-2.47a2.51,2.51,0,0,0-2.51,2.47Z" fill="#fff"/><path d="M381.23,45.53v-.21c0-4.22,3.14-6.89,7.12-6.89,3.59,0,6.69,2.07,6.69,6.79v1.19h-9.26a2.63,2.63,0,0,0,2.74,2.74c1.49,0,2.11-.68,2.29-1.56H395c-.41,3-2.7,4.65-6.67,4.65C384.25,52.24,381.23,49.83,381.23,45.53Zm9.43-1.66c-.08-1.59-.86-2.47-2.31-2.47a2.51,2.51,0,0,0-2.52,2.47Z" fill="#fff"/><path d="M400.29,47.76h4.15c.15,1,.58,1.49,1.86,1.49,1.11,0,1.61-.43,1.61-1.08s-.63-.93-2.44-1.19c-3.52-.45-5-1.48-5-4.22,0-2.92,2.59-4.33,5.63-4.33,3.25,0,5.51,1.11,5.81,4.25h-4.07a1.47,1.47,0,0,0-1.69-1.3c-1,0-1.48.42-1.48,1s.6.88,2.21,1.08c3.65.45,5.41,1.41,5.41,4.22,0,3.12-2.32,4.53-6,4.53S400.39,50.68,400.29,47.76Z" fill="#fff"/><path d="M413.65,35.22a2.34,2.34,0,0,1,2.46-2.34,2.33,2.33,0,1,1,0,4.65A2.32,2.32,0,0,1,413.65,35.22Zm.22,3.57h4.51V51.94h-4.51Z" fill="#fff"/><path d="M420.79,38.79h4.5v2a4.61,4.61,0,0,1,4.13-2.37A3.59,3.59,0,0,1,433,40.62a5.22,5.22,0,0,1,4.35-2.19c2.49,0,4.3,1.61,4.3,4.91v8.6h-4.51V44.09c0-1.33-.65-2-1.68-2a1.94,1.94,0,0,0-2,2.21v7.62H429V44.09c0-1.33-.66-2-1.69-2a2,2,0,0,0-2,2.21v7.62h-4.5Z" fill="#fff"/><path d="M443.83,38.79h4.5v2a4.63,4.63,0,0,1,4.1-2.32c3.07,0,5.55,2.32,5.55,6.82v.2c0,4.53-2.48,6.79-5.58,6.79A4.33,4.33,0,0,1,448.33,50v6.34h-4.5Zm9.58,6.66v-.2c0-2.31-1-3.42-2.59-3.42S448.2,43,448.2,45.22v.2c0,2.24,1,3.37,2.62,3.37S453.41,47.61,453.41,45.45Z" fill="#fff"/><path d="M459.75,33h4.47V51.94h-4.47Z" fill="#fff"/><path d="M465.93,45.53v-.21c0-4.22,3.15-6.89,7.12-6.89,3.6,0,6.69,2.07,6.69,6.79v1.19h-9.25a2.62,2.62,0,0,0,2.74,2.74c1.48,0,2.11-.68,2.28-1.56h4.23c-.4,3-2.69,4.65-6.66,4.65C469,52.24,465.93,49.83,465.93,45.53Zm9.43-1.66c-.07-1.59-.85-2.47-2.31-2.47a2.49,2.49,0,0,0-2.51,2.47Z" fill="#fff"/><path d="M485,47.76h4.15c.15,1,.57,1.49,1.86,1.49,1.1,0,1.61-.43,1.61-1.08s-.63-.93-2.44-1.19c-3.52-.45-5-1.48-5-4.22,0-2.92,2.59-4.33,5.64-4.33,3.24,0,5.5,1.11,5.8,4.25h-4.07a1.46,1.46,0,0,0-1.68-1.3c-1,0-1.49.42-1.49,1s.61.88,2.21,1.08c3.65.45,5.41,1.41,5.41,4.22,0,3.12-2.31,4.53-6,4.53S485.1,50.68,485,47.76Z" fill="#fff"/><path d="M499.06,47.71V41.85h-1.59V38.79h1.59V36h4.5v2.75h2.59v3.06h-2.59v5.44c0,1,.47,1.38,1.33,1.38a3.44,3.44,0,0,0,1.28-.23v3.42a9.45,9.45,0,0,1-2.49.38C500.71,52.24,499.06,50.81,499.06,47.71Z" fill="#fff"/><path d="M507.15,45.53v-.21c0-4.22,3.15-6.89,7.12-6.89,3.6,0,6.69,2.07,6.69,6.79v1.19h-9.25a2.62,2.62,0,0,0,2.74,2.74c1.48,0,2.11-.68,2.28-1.56H521c-.4,3-2.69,4.65-6.67,4.65S507.15,49.83,507.15,45.53Zm9.43-1.66c-.07-1.59-.85-2.47-2.31-2.47a2.49,2.49,0,0,0-2.51,2.47Z" fill="#fff"/><path d="M522.52,38.79H527v2a4.65,4.65,0,0,1,4.1-2.32c3.07,0,5.56,2.32,5.56,6.82v.2c0,4.53-2.49,6.79-5.59,6.79A4.33,4.33,0,0,1,527,50v6.34h-4.5Zm9.58,6.66v-.2c0-2.31-1-3.42-2.59-3.42S526.9,43,526.9,45.22v.2c0,2.24,1,3.37,2.61,3.37S532.1,47.61,532.1,45.45Z" fill="#fff"/><path d="M537.51,47.76h4.15c.15,1,.58,1.49,1.86,1.49,1.11,0,1.61-.43,1.61-1.08s-.63-.93-2.44-1.19c-3.52-.45-5-1.48-5-4.22,0-2.92,2.59-4.33,5.63-4.33,3.24,0,5.51,1.11,5.81,4.25h-4.08a1.46,1.46,0,0,0-1.68-1.3c-1,0-1.49.42-1.49,1s.61.88,2.22,1.08c3.64.45,5.4,1.41,5.4,4.22,0,3.12-2.31,4.53-6,4.53S537.61,50.68,537.51,47.76Z" fill="#fff"/><path d="M550.79,49.67a2.51,2.51,0,0,1,2.56-2.54,2.54,2.54,0,1,1,0,5.08A2.5,2.5,0,0,1,550.79,49.67Z" fill="#fff"/></g></g></g></svg>