<svg xmlns="http://www.w3.org/2000/svg" viewBox="0 0 970 250"><title>H02</title><g id="Layer_2" data-name="Layer 2"><g id="Rect"><rect width="970" height="250" fill="none"/></g><g id="_49_takes_taxes_off_your_to-do_list." data-name="$49* takes taxes off your to-do list."><path d="M288.32,71.79c-6.35-.44-9.44-3.82-9.7-8.67h6.8a3.47,3.47,0,0,0,2.9,3.45V61.21c-6.39-.92-9.11-3.23-9.11-8.34,0-4.44,3.49-7.64,9.11-8V41.56h2.87v3.31c5.33.44,8.49,2.9,8.93,7.93h-6.65a2.91,2.91,0,0,0-2.28-2.75v5.06c5.62.81,9.29,2.72,9.29,8,0,4.48-2.9,8.22-9.29,8.63v4.59h-2.87Zm0-17.12V50c-1.65.3-2.5,1.18-2.5,2.35S286.34,54.27,288.32,54.67Zm2.87,7v4.88c1.62-.33,2.46-1.28,2.46-2.6S293.14,62.13,291.19,61.69Z" fill="#fff"/><path d="M322.55,83.77H300.62V78.92L319.4,47.35H335V74.88h5.8v8.89H335V92.4H322.55Zm.32-8.89V57.05L312.79,74.88Z" fill="#fff"/><path d="M343.79,79.67h11.85c.44,2.27,1.82,3.85,5.29,3.85,5.36,0,7.56-4,7.75-11.72-1.95,3.08-4.66,5.29-10.21,5.29-8.63,0-15.25-5-15.25-14.55s7.06-15.88,18.53-15.88c13.42,0,19.72,9,19.72,22v1.51c0,14.62-7.05,22.87-19.91,22.87C350.91,93.09,344.73,88.3,343.79,79.67Zm23.95-17.2c0-4-2.4-6.74-6.18-6.74-3.59,0-6,2.77-6,6.62s2.27,6.42,6,6.42A6,6,0,0,0,367.74,62.47Z" fill="#fff"/><path d="M383.69,55,387,51.7l-4.3-.48,1.25-4.52,4,1.95-.88-4.52h5.26l-.89,4.52,4-1.95,1.28,4.52-4.33.48,3.27,3.3-3.93,2.83-2.06-4.22-2,4.22Z" fill="#fff"/><path d="M408.49,81.82V67.14h-4V59.45h4V52.58h11.28v6.87h6.49v7.69h-6.49v13.6c0,2.4,1.2,3.47,3.34,3.47a8.54,8.54,0,0,0,3.21-.57v8.57a23.55,23.55,0,0,1-6.24,1C412.65,93.16,408.49,89.56,408.49,81.82Z" fill="#fff"/><path d="M428.78,83.26c0-7.74,6.55-10.77,17.52-10.77h3.15v-.76c0-3.15-.76-5.22-4.35-5.22-3.09,0-4.22,1.82-4.47,3.9H430c.5-7.94,6.74-11.84,15.75-11.84S460.67,62.28,460.67,71V92.4h-11V88.56c-1.57,2.39-4.47,4.6-9.77,4.6C434,93.16,428.78,90.26,428.78,83.26Zm20.67-2.39v-2h-3c-4.54,0-6.56.89-6.56,3.6,0,1.89,1.26,3.08,3.91,3.08C447.05,85.53,449.45,83.71,449.45,80.87Z" fill="#fff"/><path d="M466.15,45h11.28V72.49l8.88-13H498l-10.77,14.8L498.92,92.4H486.31L477.43,78V92.4H466.15Z" fill="#fff"/><path d="M498.09,76.33v-.5c0-10.58,7.88-17.26,17.84-17.26,9,0,16.76,5.16,16.76,17v3H509.5c.32,4.35,2.84,6.87,6.87,6.87,3.72,0,5.29-1.7,5.73-3.91h10.59c-1,7.43-6.74,11.66-16.7,11.66C505.66,93.16,498.09,87.11,498.09,76.33Zm23.64-4.15c-.19-4-2.15-6.18-5.8-6.18-3.4,0-5.74,2.21-6.3,6.18Z" fill="#fff"/><path d="M534.71,81.94H545.1c.38,2.4,1.45,3.72,4.67,3.72,2.77,0,4-1.07,4-2.71s-1.58-2.33-6.11-3c-8.83-1.14-12.54-3.72-12.54-10.59,0-7.3,6.49-10.83,14.11-10.83,8.13,0,13.8,2.77,14.56,10.64H553.61c-.44-2.2-1.64-3.27-4.22-3.27s-3.72,1.07-3.72,2.58,1.51,2.21,5.55,2.71c9.13,1.13,13.54,3.53,13.54,10.59,0,7.81-5.79,11.34-14.93,11.34C540.44,93.16,535,89.25,534.71,81.94Z" fill="#fff"/><path d="M581.4,81.82V67.14h-4V59.45h4V52.58h11.28v6.87h6.49v7.69h-6.49v13.6c0,2.4,1.2,3.47,3.34,3.47a8.54,8.54,0,0,0,3.21-.57v8.57a23.55,23.55,0,0,1-6.24,1C585.56,93.16,581.4,89.56,581.4,81.82Z" fill="#fff"/><path d="M601.69,83.26c0-7.74,6.55-10.77,17.52-10.77h3.15v-.76c0-3.15-.76-5.22-4.35-5.22-3.09,0-4.22,1.82-4.47,3.9H603c.5-7.94,6.74-11.84,15.76-11.84S633.58,62.28,633.58,71V92.4h-11V88.56c-1.57,2.39-4.47,4.6-9.77,4.6C606.92,93.16,601.69,90.26,601.69,83.26Zm20.67-2.39v-2h-3c-4.54,0-6.56.89-6.56,3.6,0,1.89,1.26,3.08,3.91,3.08C620,85.53,622.36,83.71,622.36,80.87Z" fill="#fff"/><path d="M647.38,75.64,637.1,59.45h13l5.11,8.69,5-8.69h11.59L661.37,74.76l11.4,17.64h-13l-5.86-9.83-6,9.83H636.41Z" fill="#fff"/><path d="M671.32,76.33v-.5c0-10.58,7.88-17.26,17.84-17.26,9,0,16.76,5.16,16.76,17v3H682.73c.31,4.35,2.83,6.87,6.87,6.87,3.71,0,5.29-1.7,5.73-3.91h10.59c-1,7.43-6.75,11.66-16.7,11.66C678.88,93.16,671.32,87.11,671.32,76.33ZM695,72.18c-.19-4-2.14-6.18-5.79-6.18-3.41,0-5.74,2.21-6.31,6.18Z" fill="#fff"/><path d="M707.93,81.94h10.4c.38,2.4,1.45,3.72,4.66,3.72,2.77,0,4-1.07,4-2.71s-1.58-2.33-6.12-3c-8.82-1.14-12.54-3.72-12.54-10.59,0-7.3,6.49-10.83,14.12-10.83,8.13,0,13.8,2.77,14.55,10.64h-10.2c-.45-2.2-1.64-3.27-4.23-3.27S718.9,67,718.9,68.52s1.51,2.21,5.54,2.71C733.58,72.36,738,74.76,738,81.82c0,7.81-5.8,11.34-14.94,11.34C713.67,93.16,708.18,89.25,707.93,81.94Z" fill="#fff"/><path d="M751.35,76.33v-.5c0-10.58,7.87-17.26,18.08-17.26s18,6.49,18,16.95V76c0,10.71-7.87,17.14-18,17.14S751.35,87,751.35,76.33Zm24.57-.18v-.51c0-5.54-2.2-8.63-6.49-8.63s-6.55,3-6.55,8.51V76c0,5.67,2.2,8.76,6.55,8.76S775.92,81.63,775.92,76.15Z" fill="#fff"/><path d="M793.06,67.14H788.9V59.45h4.16V56.93c0-8.19,5-12,12.86-12a18.84,18.84,0,0,1,5,.63v8.25a10,10,0,0,0-3-.44,3.3,3.3,0,0,0-3.66,3.59v2.52h9.58v-2.9c0-8.19,5.17-12.1,12.92-12.1a20.07,20.07,0,0,1,5.17.7V53.4a10.45,10.45,0,0,0-3.09-.44c-2.59,0-3.72,1.45-3.72,3.59v2.9h6.68v7.69h-6.68V92.4H813.86V67.14h-9.58V92.4H793.06Z" fill="#fff"/><path d="M291.42,154.06l-13.17-29.61h12.22L297.28,142l6.3-17.58h10.77l-17.64,44H285.93Z" fill="#fff"/><path d="M313.72,141.33v-.5c0-10.58,7.88-17.26,18.09-17.26s18,6.49,18,16.94V141c0,10.71-7.88,17.14-18,17.14S313.72,152,313.72,141.33Zm24.58-.19v-.5c0-5.54-2.21-8.63-6.49-8.63s-6.56,3-6.56,8.5V141c0,5.67,2.21,8.76,6.56,8.76S338.3,146.63,338.3,141.14Z" fill="#fff"/><path d="M353.48,145.93V124.45h11.28v19.66c0,3.71,1.45,5.54,4.67,5.54,3.4,0,5.61-2,5.61-6.24v-19h11.28v33H375v-5.1c-1.77,3.4-5,5.86-10.47,5.86C358.21,158.16,353.48,154.25,353.48,145.93Z" fill="#fff"/><path d="M392.05,124.45h11.28V131c2.08-4.91,5.54-7.06,10.65-7v10.52c-6.87-.19-10.65,1.95-10.65,7.24V157.4H392.05Z" fill="#fff"/><path d="M431.05,146.81V132.13h-4v-7.68h4v-6.87h11.28v6.87h6.5v7.68h-6.5v13.61c0,2.4,1.2,3.47,3.34,3.47a8.56,8.56,0,0,0,3.22-.57v8.57a23.55,23.55,0,0,1-6.24.95C435.21,158.16,431.05,154.56,431.05,146.81Z" fill="#fff"/><path d="M451.34,141.33v-.5c0-10.58,7.88-17.26,18.09-17.26s18,6.49,18,16.94V141c0,10.71-7.88,17.14-18,17.14S451.34,152,451.34,141.33Zm24.58-.19v-.5c0-5.54-2.2-8.63-6.49-8.63s-6.55,3-6.55,8.5V141c0,5.67,2.2,8.76,6.55,8.76S475.92,146.63,475.92,141.14Z" fill="#fff"/><path d="M491.23,135.16h17.65v8.51H491.23Z" fill="#fff"/><path d="M512.85,141.27v-.5c0-11.22,6.17-17.2,14-17.2,5.16,0,8.25,2.2,10.14,5.54V110h11.28V157.4H537V152a11.1,11.1,0,0,1-10.27,6.12C519.08,158.16,512.85,152.67,512.85,141.27Zm24.45-.19v-.5c0-5.55-2.33-8.51-6.49-8.51s-6.49,2.84-6.49,8.57v.5c0,5.55,2.45,8.38,6.36,8.38C534.78,149.52,537.3,146.69,537.3,141.08Z" fill="#fff"/><path d="M552.23,141.33v-.5c0-10.58,7.88-17.26,18.09-17.26s18,6.49,18,16.94V141c0,10.71-7.88,17.14-18,17.14S552.23,152,552.23,141.33Zm24.58-.19v-.5c0-5.54-2.21-8.63-6.49-8.63s-6.56,3-6.56,8.5V141c0,5.67,2.21,8.76,6.56,8.76S576.81,146.63,576.81,141.14Z" fill="#fff"/><path d="M604,110h11.21V157.4H604Z" fill="#fff"/><path d="M621,115.5a6.22,6.22,0,0,1,12.42,0c0,3.34-2.71,5.8-6.24,5.8A5.84,5.84,0,0,1,621,115.5Zm.57,9h11.28v33H621.61Z" fill="#fff"/><path d="M636.73,146.94h10.4c.38,2.39,1.45,3.72,4.66,3.72,2.77,0,4-1.07,4-2.71s-1.58-2.33-6.12-3c-8.82-1.14-12.54-3.72-12.54-10.59,0-7.31,6.49-10.83,14.12-10.83,8.13,0,13.8,2.77,14.55,10.64h-10.2c-.45-2.2-1.64-3.27-4.23-3.27s-3.71,1.07-3.71,2.58,1.51,2.21,5.54,2.71c9.14,1.13,13.55,3.53,13.55,10.58,0,7.82-5.8,11.35-14.94,11.35C642.46,158.16,637,154.25,636.73,146.94Z" fill="#fff"/><path d="M672,146.81V132.13h-4v-7.68h4v-6.87h11.28v6.87h6.49v7.68h-6.49v13.61c0,2.4,1.19,3.47,3.34,3.47a8.54,8.54,0,0,0,3.21-.57v8.57a23.55,23.55,0,0,1-6.24.95C676.12,158.16,672,154.56,672,146.81Z" fill="#fff"/><path d="M693.57,151.73a6.28,6.28,0,0,1,6.43-6.36,6.36,6.36,0,1,1,0,12.72A6.28,6.28,0,0,1,693.57,151.73Z" fill="#fff"/></g><g id="_Starting_price_for_simple_returns." data-name="*Starting price for simple returns."><path d="M282,219.17l1.12-1.5-1.66-.39.29-.91,1.6.65-.1-1.81h1l-.1,1.81,1.58-.65.3.91-1.67.39,1.12,1.5-.76.55-1-1.62-.94,1.62Z" fill="#fff"/><path d="M287,222.3h1.13c.15,1.15.61,2.12,2.55,2.12a2,2,0,0,0,2.2-1.82c0-1.1-.5-1.56-2.33-1.85-2-.31-3.23-.95-3.23-2.66,0-1.49,1.28-2.62,3.11-2.62s3.13.94,3.32,2.66h-1.06c-.22-1.22-.93-1.72-2.26-1.72s-2,.67-2,1.57.36,1.43,2.33,1.73c2.14.34,3.28,1,3.28,2.81,0,1.62-1.42,2.85-3.34,2.85C288.12,225.37,287.19,224,287,222.3Z" fill="#fff"/><path d="M296,223.48v-4.35h-1v-.95h1v-1.6h1.12v1.6h1.65v.95h-1.65v4.24c0,.69.32,1,.88,1a2.48,2.48,0,0,0,.87-.14v.94a2.69,2.69,0,0,1-1,.15A1.72,1.72,0,0,1,296,223.48Z" fill="#fff"/><path d="M299.85,223.29c0-1.64,1.73-2.19,3.54-2.19h1v-.51c0-1.12-.43-1.6-1.51-1.6s-1.51.41-1.62,1.27h-1.12c.15-1.6,1.43-2.2,2.79-2.2a2.28,2.28,0,0,1,2.58,2.53v4.66H304.4v-.9a2.52,2.52,0,0,1-2.2,1C300.89,225.37,299.85,224.73,299.85,223.29Zm4.55-.52v-.87h-1c-1.42,0-2.46.35-2.46,1.39,0,.73.35,1.19,1.34,1.19C303.5,224.48,304.4,223.87,304.4,222.77Z" fill="#fff"/><path d="M307.52,218.18h1.13v1.27a2.46,2.46,0,0,1,2.32-1.39v1.05c-1.42.07-2.32.52-2.32,2.26v3.88h-1.13Z" fill="#fff"/><path d="M312.71,223.48v-4.35h-1v-.95h1v-1.6h1.12v1.6h1.65v.95h-1.65v4.24c0,.69.31,1,.88,1a2.48,2.48,0,0,0,.87-.14v.94a2.69,2.69,0,0,1-1,.15A1.72,1.72,0,0,1,312.71,223.48Z" fill="#fff"/><path d="M316.89,216a.74.74,0,1,1,.74.74A.74.74,0,0,1,316.89,216Zm.2,2.21h1.12v7.07h-1.12Z" fill="#fff"/><path d="M320.31,218.18h1.12v1.12a2.42,2.42,0,0,1,2.27-1.24c1.45,0,2.48.8,2.48,2.85v4.34h-1.12v-4.42c0-1.24-.53-1.8-1.66-1.8a1.86,1.86,0,0,0-2,1.93v4.29h-1.12Z" fill="#fff"/><path d="M327.8,225.65H329c.16.81.84,1.23,2,1.23a2,2,0,0,0,2.27-2.17v-1a2.93,2.93,0,0,1-2.39,1.34,3.18,3.18,0,0,1-3.21-3.35v-.1a3.34,3.34,0,0,1,3.29-3.51,2.53,2.53,0,0,1,2.31,1.26v-1.14h1.12v6.59c0,2.06-1.4,3-3.38,3S328,226.84,327.8,225.65Zm5.5-4.06v-.1a2.19,2.19,0,0,0-2.24-2.5,2.24,2.24,0,0,0-2.24,2.53v.11a2.22,2.22,0,0,0,2.17,2.45A2.27,2.27,0,0,0,333.3,221.59Z" fill="#fff"/><path d="M339.83,218.18H341v1.19a2.89,2.89,0,0,1,2.39-1.31c1.85,0,3.21,1.35,3.21,3.55v.11c0,2.16-1.27,3.65-3.21,3.65a2.66,2.66,0,0,1-2.39-1.29v3.62h-1.12Zm5.56,3.59v-.1c0-1.79-1-2.68-2.17-2.68s-2.31.87-2.31,2.68v.1c0,1.81.94,2.66,2.32,2.66S345.39,223.49,345.39,221.77Z" fill="#fff"/><path d="M348.1,218.18h1.12v1.27a2.46,2.46,0,0,1,2.32-1.39v1.05c-1.42.07-2.32.52-2.32,2.26v3.88H348.1Z" fill="#fff"/><path d="M352.8,216a.74.74,0,1,1,.74.74A.74.74,0,0,1,352.8,216Zm.2,2.21h1.12v7.07H353Z" fill="#fff"/><path d="M355.69,221.79v-.11a3.43,3.43,0,0,1,3.43-3.62,2.78,2.78,0,0,1,3.07,2.47h-1.11a1.77,1.77,0,0,0-2-1.54c-1.28,0-2.27,1-2.27,2.69v.11c0,1.73.95,2.64,2.31,2.64a1.92,1.92,0,0,0,2-1.72h1a3,3,0,0,1-3.08,2.66A3.36,3.36,0,0,1,355.69,221.79Z" fill="#fff"/><path d="M363.19,221.79v-.11a3.32,3.32,0,0,1,3.31-3.62c1.63,0,3.17,1,3.17,3.51v.37h-5.32c0,1.6.82,2.49,2.27,2.49,1.09,0,1.73-.4,1.88-1.22h1.12c-.25,1.41-1.42,2.16-3,2.16A3.32,3.32,0,0,1,363.19,221.79Zm5.33-.76c-.11-1.46-.86-2-2-2a2.12,2.12,0,0,0-2.11,2Z" fill="#fff"/><path d="M374.81,219.13h-1v-.95h1V217c0-1.44.7-2.27,2.1-2.27a2.35,2.35,0,0,1,.84.13v.95a2.24,2.24,0,0,0-.8-.15c-.72,0-1,.5-1,1.21v1.27h1.73v.95h-1.73v6.12h-1.12Z" fill="#fff"/><path d="M378.17,221.77v-.1a3.47,3.47,0,1,1,6.94,0v.11a3.47,3.47,0,1,1-6.94,0Zm5.78,0v-.09c0-1.63-.9-2.69-2.31-2.69s-2.31,1.06-2.31,2.68v.1c0,1.61.88,2.66,2.31,2.66S384,223.37,384,221.77Z" fill="#fff"/><path d="M386.66,218.18h1.12v1.27a2.46,2.46,0,0,1,2.32-1.39v1.05c-1.42.07-2.32.52-2.32,2.26v3.88h-1.12Z" fill="#fff"/><path d="M394.33,223.07h1.09c.08.84.53,1.36,1.66,1.36s1.54-.36,1.54-1.12-.55-1-1.64-1.18c-1.84-.34-2.46-.85-2.46-2.08a2.2,2.2,0,0,1,2.39-2,2.25,2.25,0,0,1,2.55,2h-1.08A1.28,1.28,0,0,0,396.9,219c-.81,0-1.34.41-1.34,1s.35.89,1.65,1.12c1.46.27,2.48.59,2.48,2.09,0,1.28-.88,2.15-2.59,2.15S394.4,224.52,394.33,223.07Z" fill="#fff"/><path d="M401,216a.74.74,0,1,1,.74.74A.74.74,0,0,1,401,216Zm.2,2.21h1.12v7.07h-1.12Z" fill="#fff"/><path d="M404.44,218.18h1.12v1.08a2.29,2.29,0,0,1,2.1-1.2,2.06,2.06,0,0,1,2.07,1.32,2.75,2.75,0,0,1,2.42-1.32c1.27,0,2.37.76,2.37,2.81v4.38H413.4v-4.46c0-1.24-.52-1.76-1.5-1.76a1.8,1.8,0,0,0-1.86,1.89v4.33h-1.12v-4.46c0-1.24-.53-1.76-1.5-1.76a1.8,1.8,0,0,0-1.86,1.89v4.33h-1.12Z" fill="#fff"/><path d="M416.53,218.18h1.12v1.19a2.89,2.89,0,0,1,2.39-1.31c1.85,0,3.21,1.35,3.21,3.55v.11c0,2.16-1.27,3.65-3.21,3.65a2.66,2.66,0,0,1-2.39-1.29v3.62h-1.12Zm5.56,3.59v-.1c0-1.79-1-2.68-2.17-2.68s-2.31.87-2.31,2.68v.1c0,1.81.94,2.66,2.32,2.66S422.09,223.49,422.09,221.77Z" fill="#fff"/><path d="M424.82,214.81H426v10.44h-1.14Z" fill="#fff"/><path d="M427.53,221.79v-.11a3.32,3.32,0,0,1,3.3-3.62c1.64,0,3.18,1,3.18,3.51v.37h-5.32c.05,1.6.82,2.49,2.27,2.49,1.09,0,1.72-.4,1.87-1.22H434c-.24,1.41-1.41,2.16-3,2.16A3.32,3.32,0,0,1,427.53,221.79Zm5.33-.76c-.11-1.46-.86-2-2-2a2.12,2.12,0,0,0-2.1,2Z" fill="#fff"/><path d="M438.9,218.18H440v1.27a2.49,2.49,0,0,1,2.32-1.39v1.05c-1.41.07-2.32.52-2.32,2.26v3.88H438.9Z" fill="#fff"/><path d="M443.05,221.79v-.11a3.32,3.32,0,0,1,3.31-3.62c1.63,0,3.17,1,3.17,3.51v.37h-5.32c.05,1.6.82,2.49,2.27,2.49,1.09,0,1.73-.4,1.88-1.22h1.12a2.73,2.73,0,0,1-3,2.16A3.33,3.33,0,0,1,443.05,221.79Zm5.33-.76c-.1-1.46-.86-2-2-2a2.12,2.12,0,0,0-2.11,2Z" fill="#fff"/><path d="M451.29,223.48v-4.35h-1v-.95h1v-1.6h1.12v1.6h1.65v.95h-1.65v4.24c0,.69.31,1,.88,1a2.38,2.38,0,0,0,.86-.14v.94a2.69,2.69,0,0,1-1,.15A1.72,1.72,0,0,1,451.29,223.48Z" fill="#fff"/><path d="M455.57,222.65v-4.47h1.12v4.42c0,1.24.53,1.79,1.64,1.79a1.85,1.85,0,0,0,1.94-1.93v-4.28h1.12v7.07h-1.12v-1.13a2.39,2.39,0,0,1-2.24,1.25C456.63,225.37,455.57,224.6,455.57,222.65Z" fill="#fff"/><path d="M463.46,218.18h1.12v1.27a2.49,2.49,0,0,1,2.33-1.39v1.05c-1.42.07-2.33.52-2.33,2.26v3.88h-1.12Z" fill="#fff"/><path d="M468.34,218.18h1.12v1.12a2.44,2.44,0,0,1,2.27-1.24c1.46,0,2.48.8,2.48,2.85v4.34h-1.12v-4.42c0-1.24-.52-1.8-1.66-1.8a1.86,1.86,0,0,0-2,1.93v4.29h-1.12Z" fill="#fff"/><path d="M475.64,223.07h1.09c.08.84.53,1.36,1.66,1.36s1.54-.36,1.54-1.12-.55-1-1.65-1.18c-1.83-.34-2.45-.85-2.45-2.08a2.2,2.2,0,0,1,2.39-2,2.26,2.26,0,0,1,2.55,2h-1.08c-.16-.77-.6-1.11-1.49-1.11s-1.33.41-1.33,1,.35.89,1.64,1.12c1.46.27,2.49.59,2.49,2.09,0,1.28-.88,2.15-2.6,2.15S475.7,224.52,475.64,223.07Z" fill="#fff"/><path d="M482.41,224.45a.86.86,0,1,1,.86.86A.86.86,0,0,1,482.41,224.45Z" fill="#fff"/></g></g></svg>