<svg xmlns="http://www.w3.org/2000/svg" viewBox="0 0 300 250"><title>H1</title><g id="Layer_2" data-name="Layer 2"><g id="Rect"><rect width="300" height="250" fill="none"/></g><g id="H01"><g id="Up_to_3_500_today._No_Interest._No_Loan_Fees._Starting_Jan_4th" data-name="Up to $3,500 today. No Interest. No Loan Fees. Starting Jan 4th"><path d="M21.9,29.77V17.13H28V29.5c0,3,.75,4.47,3.34,4.47s3.33-1.37,3.33-4.55V17.13h6.16V29.68c0,6.19-3.63,9.08-9.49,9.08S21.9,35.72,21.9,29.77Z" fill="#fff"/><path d="M43.71,22.84H49v2.32a5.49,5.49,0,0,1,4.85-2.74c3.63,0,6.57,2.74,6.57,8.07v.23c0,5.36-2.94,8-6.6,8A5.13,5.13,0,0,1,49,36.11v7.5H43.71Zm11.34,7.88v-.23c0-2.74-1.19-4-3.07-4s-3.09,1.4-3.09,4v.23c0,2.65,1.16,4,3.09,4S55.05,33.28,55.05,30.72Z" fill="#fff"/><path d="M68.52,33.4V26.47H66.65V22.84h1.87V19.6h5.33v3.24h3.06v3.63H73.85V32.9a1.41,1.41,0,0,0,1.58,1.63,4.19,4.19,0,0,0,1.51-.26v4a11,11,0,0,1-2.94.45C70.49,38.76,68.52,37.06,68.52,33.4Z" fill="#fff"/><path d="M78.1,30.81v-.23c0-5,3.72-8.16,8.54-8.16s8.48,3.07,8.48,8v.24c0,5-3.72,8.09-8.51,8.09S78.1,35.84,78.1,30.81Zm11.61-.09v-.23c0-2.62-1-4.08-3.07-4.08s-3.09,1.4-3.09,4v.24c0,2.67,1,4.13,3.09,4.13S89.71,33.31,89.71,30.72Z" fill="#fff"/><path d="M105.83,28.67c-3-.21-4.46-1.81-4.58-4.1h3.21a1.62,1.62,0,0,0,1.37,1.63V23.67c-3-.43-4.31-1.52-4.31-3.94,0-2.1,1.65-3.61,4.31-3.8V14.39h1.35V16c2.51.21,4,1.37,4.22,3.75h-3.15a1.37,1.37,0,0,0-1.07-1.3v2.39c2.65.38,4.39,1.29,4.39,3.8,0,2.12-1.37,3.89-4.39,4.08v2.17h-1.35Zm0-8.09V18.36c-.78.14-1.18.56-1.18,1.11S104.89,20.39,105.83,20.58Zm1.35,3.32v2.3A1.24,1.24,0,0,0,108.34,25C108.34,24.4,108.1,24.11,107.18,23.9Z" fill="#fff"/><path d="M112.62,31.41H118c.18,1.75,1,2.94,3.12,2.94,1.88,0,2.8-.89,2.8-2.41s-.89-2.49-2.8-2.49h-1.69V25.67H121c1.91,0,2.83-.87,2.83-2.35,0-1.28-.83-2.12-2.44-2.12s-2.59,1-2.83,2.71h-5.38c.27-4.19,3.06-7.08,8.36-7.08,5,0,8,2.29,8,5.83a4.53,4.53,0,0,1-3.6,4.58,4.81,4.81,0,0,1,4.14,4.82c0,4-3,6.7-8.63,6.7C115.57,38.76,112.8,36,112.62,31.41Z" fill="#fff"/><path d="M130.62,40.81l2.5-7.82,4.94,1.75L133.78,42Z" fill="#fff"/><path d="M139,31.71h5.54c.21,1.48.8,2.47,2.76,2.47,1.76,0,2.56-1.31,2.56-3a2.7,2.7,0,0,0-2.88-3,4.34,4.34,0,0,0-3.51,1.51h-3.63l.44-12.52h14.34v4.46h-9.93l-.12,4.7a5.66,5.66,0,0,1,5-2.26c3.89,0,6.45,2.62,6.45,7.23s-3.24,7.5-8.63,7.5C141.75,38.76,139.19,35.69,139,31.71Z" fill="#fff"/><path d="M157.52,28.23v-.9c0-6.72,4.19-10.5,9.82-10.5s9.82,3.48,9.82,10.38v.84c0,6.75-3.87,10.71-9.94,10.71S157.52,34.92,157.52,28.23Zm13.54-.06V27.3c0-3.89-1.14-5.86-3.72-5.86s-3.72,1.94-3.72,5.86v.9c0,3.95,1.16,5.83,3.78,5.83S171.06,32.09,171.06,28.17Z" fill="#fff"/><path d="M178.85,28.23v-.9c0-6.72,4.19-10.5,9.82-10.5s9.82,3.48,9.82,10.38v.84c0,6.75-3.87,10.71-9.94,10.71S178.85,34.92,178.85,28.23Zm13.54-.06V27.3c0-3.89-1.13-5.86-3.72-5.86S185,23.38,185,27.3v.9c0,3.95,1.16,5.83,3.78,5.83S192.39,32.09,192.39,28.17Z" fill="#fff"/><path d="M22.29,65.15V58.22H20.42V54.59h1.87V51.35h5.33v3.24h3.06v3.63H27.62v6.43c0,1.13.56,1.63,1.57,1.63A4.21,4.21,0,0,0,30.71,66v4a11,11,0,0,1-2.94.45C24.25,70.51,22.29,68.81,22.29,65.15Z" fill="#fff"/><path d="M31.87,62.56v-.23c0-5,3.72-8.16,8.54-8.16s8.48,3.07,8.48,8v.24c0,5-3.72,8.09-8.51,8.09S31.87,67.59,31.87,62.56Zm11.6-.09v-.23c0-2.62-1-4.08-3.06-4.08s-3.09,1.4-3.09,4v.24c0,2.67,1,4.13,3.09,4.13S43.47,65.06,43.47,62.47Z" fill="#fff"/><path d="M50,62.53V62.3c0-5.3,2.91-8.13,6.6-8.13a5,5,0,0,1,4.79,2.62v-9h5.33v22.4H61.38V67.62a5.24,5.24,0,0,1-4.85,2.89C52.93,70.51,50,67.92,50,62.53Zm11.54-.09v-.23c0-2.62-1.1-4-3.06-4s-3.07,1.34-3.07,4.05v.23c0,2.62,1.16,4,3,4S61.53,65.09,61.53,62.44Z" fill="#fff"/><path d="M68.52,65.84c0-3.66,3.1-5.09,8.27-5.09h1.49v-.36c0-1.49-.36-2.47-2-2.47a1.91,1.91,0,0,0-2.11,1.85h-5c.23-3.75,3.18-5.6,7.44-5.6s7,1.76,7,5.89V70.15H78.4V68.34a5.1,5.1,0,0,1-4.61,2.17C71,70.51,68.52,69.14,68.52,65.84Zm9.76-1.13v-1h-1.4c-2.14,0-3.09.42-3.09,1.7,0,.89.59,1.46,1.84,1.46C77.15,66.91,78.28,66.05,78.28,64.71Z" fill="#fff"/><path d="M90.51,68.57l-6.22-14h5.77l3.21,8.3,3-8.3h5.09L93,75.36H87.92Z" fill="#fff"/><path d="M100.21,67.47a3,3,0,0,1,3-3,3,3,0,1,1,0,6A3,3,0,0,1,100.21,67.47Z" fill="#fff"/><path d="M114.75,48.88h6.88l6.81,12v-12h5.33V70.15h-5.9l-7.76-13.36V70.15h-5.36Z" fill="#fff"/><path d="M135.91,62.56v-.23c0-5,3.71-8.16,8.53-8.16s8.48,3.07,8.48,8v.24c0,5-3.71,8.09-8.5,8.09S135.91,67.59,135.91,62.56Zm11.6-.09v-.23c0-2.62-1-4.08-3.07-4.08s-3.09,1.4-3.09,4v.24c0,2.67,1,4.13,3.09,4.13S147.51,65.06,147.51,62.47Z" fill="#fff"/><path d="M160.81,48.88H167V70.15h-6.15Z" fill="#fff"/><path d="M170.24,54.59h5.32v2.5a5.5,5.5,0,0,1,5.12-2.92c3,0,5.09,1.88,5.09,5.86V70.15h-5.33v-9c0-1.76-.68-2.62-2.23-2.62s-2.65.95-2.65,2.94v8.72h-5.32Z" fill="#fff"/><path d="M189.07,65.15V58.22h-1.88V54.59h1.88V51.35h5.32v3.24h3.07v3.63h-3.07v6.43A1.42,1.42,0,0,0,196,66.28a4.25,4.25,0,0,0,1.52-.26v4a11.17,11.17,0,0,1-3,.45C191,70.51,189.07,68.81,189.07,65.15Z" fill="#fff"/><path d="M198.65,62.56v-.23c0-5,3.72-8.16,8.42-8.16,4.25,0,7.91,2.44,7.91,8v1.4H204c.15,2,1.34,3.24,3.25,3.24,1.75,0,2.49-.8,2.7-1.85h5c-.47,3.52-3.18,5.51-7.88,5.51C202.22,70.51,198.65,67.65,198.65,62.56Zm11.15-2c-.08-1.87-1-2.92-2.73-2.92s-2.71,1-3,2.92Z" fill="#fff"/><path d="M216.82,54.59h5.33v3.09a4.9,4.9,0,0,1,5-3.3v5c-3.24-.09-5,.92-5,3.42v7.38h-5.33Z" fill="#fff"/><path d="M228.13,62.56v-.23c0-5,3.72-8.16,8.42-8.16,4.25,0,7.91,2.44,7.91,8v1.4h-11c.15,2,1.34,3.24,3.25,3.24,1.75,0,2.5-.8,2.7-1.85h5c-.47,3.52-3.18,5.51-7.88,5.51C231.7,70.51,228.13,67.65,228.13,62.56Zm11.16-2c-.09-1.87-1-2.92-2.74-2.92s-2.71,1-3,2.92Z" fill="#fff"/><path d="M245.41,65.21h4.91c.18,1.13.69,1.76,2.2,1.76,1.31,0,1.91-.51,1.91-1.28s-.75-1.1-2.89-1.4c-4.16-.54-5.92-1.76-5.92-5,0-3.45,3.07-5.12,6.67-5.12,3.83,0,6.51,1.31,6.87,5h-4.82a1.74,1.74,0,0,0-2-1.55c-1.16,0-1.76.51-1.76,1.22s.71,1.05,2.62,1.28c4.31.54,6.4,1.67,6.4,5,0,3.69-2.74,5.36-7.06,5.36S245.53,68.66,245.41,65.21Z" fill="#fff"/><path d="M262,65.15V58.22h-1.87V54.59H262V51.35h5.33v3.24h3.06v3.63h-3.06v6.43A1.41,1.41,0,0,0,269,66.28a4.19,4.19,0,0,0,1.51-.26v4a11,11,0,0,1-2.94.45C264,70.51,262,68.81,262,65.15Z" fill="#fff"/><path d="M272.25,67.47a3,3,0,0,1,3-3,3,3,0,1,1,0,6A3,3,0,0,1,272.25,67.47Z" fill="#fff"/><path d="M22.05,80.63h6.88l6.81,12v-12h5.33V101.9h-5.9L27.41,88.54V101.9H22.05Z" fill="#fff"/><path d="M43.21,94.31v-.23c0-5,3.71-8.16,8.53-8.16s8.49,3.07,8.49,8v.24c0,5-3.72,8.09-8.52,8.09S43.21,99.34,43.21,94.31Zm11.6-.09V94c0-2.62-1-4.08-3.07-4.08s-3.09,1.4-3.09,4v.24c0,2.67,1,4.13,3.09,4.13S54.81,96.81,54.81,94.22Z" fill="#fff"/><path d="M68,80.63h6.13V97.17h8v4.73H68Z" fill="#fff"/><path d="M83,94.31v-.23c0-5,3.72-8.16,8.54-8.16s8.48,3.07,8.48,8v.24c0,5-3.72,8.09-8.51,8.09S83,99.34,83,94.31Zm11.6-.09V94c0-2.62-1-4.08-3.06-4.08s-3.09,1.4-3.09,4v.24c0,2.67,1,4.13,3.09,4.13S94.64,96.81,94.64,94.22Z" fill="#fff"/><path d="M101,97.59c0-3.66,3.09-5.09,8.27-5.09h1.49v-.36c0-1.49-.36-2.47-2-2.47a1.92,1.92,0,0,0-2.12,1.85h-5c.24-3.75,3.19-5.6,7.44-5.6s7,1.76,7,5.89V101.9h-5.17v-1.81a5.13,5.13,0,0,1-4.61,2.17C103.51,102.26,101,100.89,101,97.59Zm9.76-1.13v-1h-1.4c-2.14,0-3.09.42-3.09,1.7,0,.89.59,1.46,1.84,1.46C109.67,98.66,110.8,97.8,110.8,96.46Z" fill="#fff"/><path d="M118.68,86.34H124v2.5a5.48,5.48,0,0,1,5.11-2.92c3,0,5.09,1.88,5.09,5.86V101.9h-5.32v-9c0-1.76-.69-2.62-2.24-2.62s-2.64,1-2.64,2.94v8.72h-5.33Z" fill="#fff"/><path d="M142.69,80.63h14.37v4.73h-8.24v4.52h6.57v4.49h-6.57v7.53h-6.13Z" fill="#fff"/><path d="M157.47,94.31v-.23c0-5,3.72-8.16,8.42-8.16,4.26,0,7.92,2.44,7.92,8v1.4H162.86c.15,2,1.34,3.24,3.24,3.24s2.5-.8,2.71-1.85h5c-.48,3.52-3.19,5.51-7.89,5.51C161,102.26,157.47,99.4,157.47,94.31Zm11.16-2c-.09-1.87-1-2.92-2.74-2.92s-2.7,1-3,2.92Z" fill="#fff"/><path d="M174.82,94.31v-.23c0-5,3.72-8.16,8.42-8.16,4.25,0,7.91,2.44,7.91,8v1.4h-11c.15,2,1.34,3.24,3.25,3.24,1.75,0,2.5-.8,2.7-1.85h5c-.47,3.52-3.18,5.51-7.88,5.51C178.39,102.26,174.82,99.4,174.82,94.31Zm11.16-2c-.09-1.87-1-2.92-2.74-2.92s-2.71,1-3,2.92Z" fill="#fff"/><path d="M192.1,97H197c.18,1.13.69,1.76,2.2,1.76,1.31,0,1.91-.51,1.91-1.28s-.75-1.1-2.89-1.4c-4.16-.54-5.92-1.76-5.92-5,0-3.45,3.07-5.12,6.66-5.12,3.84,0,6.52,1.31,6.88,5H201a1.75,1.75,0,0,0-2-1.55c-1.16,0-1.75.51-1.75,1.22s.71,1,2.62,1.28c4.31.54,6.39,1.67,6.39,5,0,3.69-2.73,5.36-7,5.36S192.22,100.41,192.1,97Z" fill="#fff"/><path d="M207.81,99.22a3,3,0,0,1,3-3,3,3,0,1,1,0,6A3,3,0,0,1,207.81,99.22Z" fill="#fff"/><path d="M20.68,126.9h5.81c.15,1.52.83,2.76,3.36,2.76,1.75,0,2.74-.86,2.74-2.11s-.81-1.66-3.37-2c-6-.72-8-2.5-8-6.79,0-3.83,3.15-6.63,8.24-6.63s8,2.14,8.39,6.63H32.17a2.42,2.42,0,0,0-2.74-2.29c-1.63,0-2.47.75-2.47,1.82s.66,1.72,3.31,2.08c5.38.6,8.15,2,8.15,6.61,0,3.9-3.1,7.08-8.57,7.08C23.9,134,20.86,131.51,20.68,126.9Z" fill="#fff"/><path d="M41.09,128.65v-6.93H39.22v-3.63h1.87v-3.24h5.33v3.24h3.06v3.63H46.42v6.43A1.41,1.41,0,0,0,48,129.78a4.19,4.19,0,0,0,1.51-.26v4a11,11,0,0,1-2.94.45C43.06,134,41.09,132.31,41.09,128.65Z" fill="#fff"/><path d="M50.67,129.34c0-3.66,3.1-5.09,8.27-5.09h1.49v-.36c0-1.49-.36-2.47-2-2.47a1.91,1.91,0,0,0-2.11,1.85h-5c.23-3.75,3.18-5.6,7.44-5.6s7,1.76,7,5.89v10.09H60.55v-1.81A5.1,5.1,0,0,1,55.94,134C53.14,134,50.67,132.64,50.67,129.34Zm9.76-1.13v-1H59c-2.14,0-3.09.42-3.09,1.7,0,.89.59,1.46,1.84,1.46C59.3,130.41,60.43,129.54,60.43,128.21Z" fill="#fff"/><path d="M68.31,118.09h5.33v3.09a4.9,4.9,0,0,1,5-3.3v5c-3.25-.09-5,.92-5,3.42v7.38H68.31Z" fill="#fff"/><path d="M81.55,128.65v-6.93H79.68v-3.63h1.87v-3.24h5.33v3.24h3.06v3.63H86.88v6.43a1.41,1.41,0,0,0,1.58,1.63,4.19,4.19,0,0,0,1.51-.26v4A11,11,0,0,1,87,134C83.52,134,81.55,132.31,81.55,128.65Z" fill="#fff"/><path d="M91.84,113.86a2.94,2.94,0,1,1,2.92,2.74A2.78,2.78,0,0,1,91.84,113.86Zm.27,4.23h5.33v15.56H92.11Z" fill="#fff"/><path d="M100.29,118.09h5.33v2.5a5.49,5.49,0,0,1,5.12-2.92c3,0,5.09,1.88,5.09,5.86v10.12H110.5v-9c0-1.76-.68-2.62-2.23-2.62s-2.65,1-2.65,2.94v8.72h-5.33Z" fill="#fff"/><path d="M117.55,133.65h5.29c.24,1.13.93,2,2.86,2,2.35,0,3.3-1.33,3.3-3.27V130a5.45,5.45,0,0,1-4.82,2.86c-3.63,0-6.6-2.68-6.6-7.47v-.24c0-4.58,2.94-7.5,6.6-7.5a5.05,5.05,0,0,1,4.82,2.62v-2.2h5.33v14.25c0,4.64-3.06,7.08-8.63,7.08C120.4,139.42,118,137.19,117.55,133.65Zm11.6-8.27v-.21c0-2.14-1.1-3.51-3.06-3.51s-3.07,1.4-3.07,3.54v.24c0,2.14,1.13,3.51,3,3.51S129.15,127.58,129.15,125.38Z" fill="#fff"/><path d="M141.85,133.21v-4.56a7.18,7.18,0,0,0,2.59.42c1.67,0,2.77-.74,2.77-2.95V112.38h6.13v13.8c0,5.12-2.62,7.74-7.62,7.74A8.32,8.32,0,0,1,141.85,133.21Z" fill="#fff"/><path d="M155,129.34c0-3.66,3.1-5.09,8.27-5.09h1.49v-.36c0-1.49-.35-2.47-2-2.47a1.91,1.91,0,0,0-2.11,1.85h-5c.24-3.75,3.18-5.6,7.44-5.6s7,1.76,7,5.89v10.09h-5.18v-1.81A5.1,5.1,0,0,1,160.3,134C157.5,134,155,132.64,155,129.34Zm9.76-1.13v-1h-1.4c-2.14,0-3.09.42-3.09,1.7,0,.89.59,1.46,1.84,1.46C163.66,130.41,164.79,129.54,164.79,128.21Z" fill="#fff"/><path d="M172.67,118.09H178v2.5a5.49,5.49,0,0,1,5.12-2.92c3,0,5.09,1.88,5.09,5.86v10.12h-5.33v-9c0-1.76-.68-2.62-2.23-2.62s-2.65,1-2.65,2.94v8.72h-5.33Z" fill="#fff"/><path d="M205.52,129.58H195.17v-2.3l8.86-14.9h7.35v13h2.74v4.2h-2.74v4.07h-5.86Zm.15-4.2V117l-4.76,8.42Z" fill="#fff"/><path d="M216.64,128.65v-6.93h-1.87v-3.63h1.87v-3.24H222v3.24H225v3.63H222v6.43a1.42,1.42,0,0,0,1.58,1.63,4.29,4.29,0,0,0,1.52-.26v4a11.17,11.17,0,0,1-2.95.45C218.61,134,216.64,132.31,216.64,128.65Z" fill="#fff"/><path d="M227.06,111.25h5.32v9.34a5.5,5.5,0,0,1,5.12-2.92c3,0,5.09,1.88,5.09,5.86v10.12h-5.33v-9c0-1.76-.68-2.62-2.23-2.62s-2.65,1-2.65,2.94v8.72h-5.32Z" fill="#fff"/><path d="M245,131a3,3,0,0,1,3-3,3,3,0,1,1,0,6A3,3,0,0,1,245,131Z" fill="#fff"/></g></g></g></svg>