<svg xmlns="http://www.w3.org/2000/svg" viewBox="0 0 160 600"><title>Asset 15</title><g id="Layer_2" data-name="Layer 2"><g id="Rect"><rect width="160" height="600" fill="none"/></g><g id="Power_hour._Your_taxes_could_be_done_in_an_hour." data-name="Power hour. Your taxes could be done in an hour."><path d="M22.71,23H33.38c7.69,0,11.27,3.41,11.27,9.38v.16c0,5.88-4,9.06-10.91,9.06h-3v9.46h-8ZM33,36.13c2.59,0,4-1.22,4-3.53v-.16c0-2.4-1.41-3.38-3.92-3.38H30.71v7.07Z" fill="#fff"/><path d="M45.28,41.07v-.31c0-6.59,4.9-10.75,11.26-10.75s11.19,4,11.19,10.55v.32c0,6.67-4.91,10.67-11.23,10.67S45.28,47.71,45.28,41.07ZM60.58,41v-.32c0-3.45-1.37-5.38-4-5.38s-4.08,1.85-4.08,5.3v.32c0,3.53,1.37,5.45,4.08,5.45S60.58,44.37,60.58,41Z" fill="#fff"/><path d="M67.81,30.55h7.34l3,12.29,3.45-12.29h5.65l3.06,12.29,3.34-12.29h6.67L93.79,51.08H87.08L84,39.62,80.84,51.08H74Z" fill="#fff"/><path d="M100.11,41.07v-.31c0-6.59,4.9-10.75,11.1-10.75,5.62,0,10.44,3.21,10.44,10.59v1.85H107.21c.2,2.7,1.77,4.27,4.28,4.27,2.32,0,3.3-1.06,3.57-2.43h6.59c-.62,4.63-4.19,7.26-10.4,7.26C104.82,51.55,100.11,47.78,100.11,41.07Zm14.72-2.59c-.12-2.47-1.34-3.84-3.62-3.84-2.11,0-3.57,1.37-3.92,3.84Z" fill="#fff"/><path d="M124.09,30.55h7v4.09a6.46,6.46,0,0,1,6.63-4.36v6.55c-4.28-.11-6.63,1.22-6.63,4.52v9.73h-7Z" fill="#fff"/><path d="M22.08,65.78h7V78.1a7.25,7.25,0,0,1,6.76-3.84c4,0,6.71,2.47,6.71,7.73V95.33h-7V83.4c0-2.32-.9-3.45-2.94-3.45s-3.5,1.25-3.5,3.88v11.5h-7Z" fill="#fff"/><path d="M44.88,85.32V85c0-6.59,4.91-10.75,11.27-10.75s11.18,4,11.18,10.55v.32c0,6.67-4.9,10.67-11.22,10.67S44.88,92,44.88,85.32Zm15.31-.11v-.32c0-3.45-1.37-5.38-4-5.38s-4.08,1.85-4.08,5.3v.32c0,3.53,1.37,5.45,4.08,5.45S60.19,88.62,60.19,85.21Z" fill="#fff"/><path d="M69.65,88.19V74.8h7V87.05c0,2.31.9,3.45,2.9,3.45s3.49-1.25,3.49-3.88V74.8h7V95.33h-7V92.15C82,94.27,80,95.8,76.56,95.8,72.59,95.8,69.65,93.37,69.65,88.19Z" fill="#fff"/><path d="M93.67,74.8h7v4.09a6.46,6.46,0,0,1,6.63-4.36v6.55c-4.28-.11-6.63,1.22-6.63,4.52v9.73h-7Z" fill="#fff"/><path d="M107.25,91.8a3.92,3.92,0,0,1,4-4,4,4,0,1,1,0,7.93A3.91,3.91,0,0,1,107.25,91.8Z" fill="#fff"/><path d="M29.46,127.57l-9.15-16h8.76L33.81,121l4.75-9.46h7.7l-8.72,16v12H29.46Z" fill="#fff"/><path d="M43.31,129.57v-.31c0-6.59,4.91-10.75,11.27-10.75s11.18,4,11.18,10.55v.32c0,6.67-4.9,10.67-11.22,10.67S43.31,136.21,43.31,129.57Zm15.31-.11v-.32c0-3.45-1.37-5.38-4-5.38s-4.08,1.85-4.08,5.3v.32c0,3.53,1.37,5.45,4.08,5.45S58.62,132.87,58.62,129.46Z" fill="#fff"/><path d="M68.08,132.44V119.05h7V131.3c0,2.31.9,3.45,2.9,3.45s3.49-1.25,3.49-3.88V119.05h7v20.53h-7V136.4c-1.1,2.12-3.1,3.65-6.51,3.65C71,140.05,68.08,137.62,68.08,132.44Z" fill="#fff"/><path d="M92.1,119.05h7v4.09a6.46,6.46,0,0,1,6.63-4.36v6.55c-4.28-.11-6.63,1.22-6.63,4.52v9.73h-7Z" fill="#fff"/><path d="M23,177.24v-9.15H20.55V163.3H23V159h7v4.27h4v4.79h-4v8.48c0,1.49.74,2.16,2.08,2.16a5.48,5.48,0,0,0,2-.35v5.33a14.55,14.55,0,0,1-3.89.59C25.61,184.3,23,182.06,23,177.24Z" fill="#fff"/><path d="M35.66,178.14c0-4.83,4.08-6.71,10.91-6.71h2V171c0-2-.47-3.26-2.71-3.26A2.52,2.52,0,0,0,43,170.13H36.45c.31-4.94,4.19-7.37,9.81-7.37s9.26,2.31,9.26,7.77v13.3H48.69v-2.39c-1,1.49-2.79,2.86-6.08,2.86C38.92,184.3,35.66,182.5,35.66,178.14Zm12.87-1.49v-1.26H46.69c-2.83,0-4.08.55-4.08,2.24,0,1.18.78,1.92,2.43,1.92C47,179.55,48.53,178.41,48.53,176.65Z" fill="#fff"/><path d="M64.12,173.39l-6.4-10.09H65.8L69,168.72l3.1-5.42H79.3l-6.47,9.54,7.1,11H71.85l-3.65-6.12-3.73,6.12H57.29Z" fill="#fff"/><path d="M79,173.82v-.31c0-6.59,4.91-10.75,11.11-10.75,5.61,0,10.44,3.21,10.44,10.59v1.85H86.13c.2,2.7,1.77,4.27,4.28,4.27,2.32,0,3.3-1.06,3.57-2.43h6.6c-.63,4.63-4.2,7.26-10.4,7.26C83.74,184.3,79,180.53,79,173.82Zm14.72-2.59c-.12-2.47-1.34-3.84-3.61-3.84s-3.57,1.37-3.93,3.84Z" fill="#fff"/><path d="M101.83,177.32h6.48c.23,1.49.9,2.31,2.9,2.31,1.73,0,2.52-.67,2.52-1.69s-1-1.45-3.81-1.84c-5.5-.71-7.81-2.32-7.81-6.59,0-4.56,4-6.75,8.79-6.75,5.06,0,8.6,1.72,9.07,6.63h-6.36a2.29,2.29,0,0,0-2.63-2c-1.53,0-2.32.66-2.32,1.61s.94,1.37,3.46,1.68c5.69.71,8.43,2.2,8.43,6.6,0,4.86-3.61,7.06-9.3,7.06C105.41,184.3,102,181.87,101.83,177.32Z" fill="#fff"/><path d="M21,218.07v-.31c0-6.83,4.91-10.75,11-10.75,5,0,9.65,2.19,10,8.43h-6.6c-.31-1.92-1.25-3-3.29-3-2.47,0-3.93,1.77-3.93,5.22V218c0,3.58,1.38,5.42,4.05,5.42A3.42,3.42,0,0,0,35.78,220H42.1c-.2,5.18-3.69,8.55-10.33,8.55C25.65,228.55,21,225,21,218.07Z" fill="#fff"/><path d="M43.27,218.07v-.31c0-6.59,4.91-10.75,11.27-10.75s11.18,4,11.18,10.55v.32c0,6.67-4.9,10.67-11.22,10.67S43.27,224.71,43.27,218.07ZM58.58,218v-.32c0-3.45-1.37-5.38-4-5.38s-4.08,1.85-4.08,5.3v.32c0,3.53,1.37,5.45,4.08,5.45S58.58,221.37,58.58,218Z" fill="#fff"/><path d="M68,220.94V207.55h7V219.8c0,2.31.9,3.45,2.9,3.45s3.49-1.25,3.49-3.88V207.55h7v20.53h-7V224.9c-1.1,2.12-3.1,3.65-6.51,3.65C71,228.55,68,226.12,68,220.94Z" fill="#fff"/><path d="M92.26,198.53h7v29.55h-7Z" fill="#fff"/><path d="M102,218v-.31c0-7,3.85-10.71,8.71-10.71a6.64,6.64,0,0,1,6.32,3.45V198.53h7v29.55h-7v-3.34a6.91,6.91,0,0,1-6.39,3.81C105.88,228.55,102,225.14,102,218Zm15.23-.11v-.32c0-3.45-1.45-5.3-4-5.3s-4.05,1.77-4.05,5.34V218c0,3.45,1.54,5.21,4,5.21S117.22,221.41,117.22,217.92Z" fill="#fff"/><path d="M29.1,269.15v3.18h-7V242.78h7v12.09a7.24,7.24,0,0,1,6.4-3.61c4.79,0,8.68,3.61,8.68,10.63v.32c0,7.06-3.89,10.59-8.72,10.59A6.66,6.66,0,0,1,29.1,269.15ZM37,262.21v-.32c0-3.61-1.57-5.34-4-5.34s-4.08,1.85-4.08,5.3v.32c0,3.49,1.53,5.25,4.08,5.25S37,265.58,37,262.21Z" fill="#fff"/><path d="M45.63,262.32V262c0-6.59,4.91-10.75,11.11-10.75,5.61,0,10.44,3.21,10.44,10.59v1.85H52.73c.2,2.7,1.77,4.27,4.28,4.27,2.32,0,3.3-1.06,3.57-2.43h6.6c-.63,4.63-4.2,7.26-10.4,7.26C50.34,272.8,45.63,269,45.63,262.32Zm14.72-2.59c-.12-2.47-1.34-3.84-3.61-3.84s-3.57,1.37-3.93,3.84Z" fill="#fff"/><path d="M21.06,306.53v-.31c0-7,3.85-10.71,8.71-10.71A6.66,6.66,0,0,1,36.09,299V287h7v29.55h-7v-3.34a6.92,6.92,0,0,1-6.4,3.81C24.94,317.05,21.06,313.64,21.06,306.53Zm15.23-.11v-.32c0-3.45-1.46-5.3-4-5.3s-4,1.77-4,5.34v.32c0,3.45,1.53,5.21,4,5.21S36.29,309.91,36.29,306.42Z" fill="#fff"/><path d="M45.59,306.57v-.31c0-6.59,4.91-10.75,11.26-10.75S68,299.55,68,306.06v.32c0,6.67-4.91,10.67-11.23,10.67S45.59,313.21,45.59,306.57Zm15.31-.11v-.32c0-3.45-1.38-5.38-4-5.38s-4.08,1.85-4.08,5.3v.32c0,3.53,1.38,5.45,4.08,5.45S60.9,309.87,60.9,306.46Z" fill="#fff"/><path d="M70.51,296.05h7v3.3a7.25,7.25,0,0,1,6.75-3.84c4,0,6.71,2.47,6.71,7.73v13.34H84V304.65c0-2.32-.91-3.45-3-3.45s-3.49,1.25-3.49,3.88v11.5h-7Z" fill="#fff"/><path d="M93.32,306.57v-.31c0-6.59,4.9-10.75,11.1-10.75,5.62,0,10.44,3.21,10.44,10.59V308H100.42c.2,2.7,1.77,4.27,4.28,4.27,2.31,0,3.3-1.06,3.57-2.43h6.59c-.62,4.63-4.19,7.26-10.4,7.26C98,317.05,93.32,313.28,93.32,306.57ZM108,304c-.12-2.47-1.34-3.84-3.62-3.84-2.11,0-3.57,1.37-3.92,3.84Z" fill="#fff"/><path d="M21.92,334.73a3.67,3.67,0,0,1,3.85-3.65,3.64,3.64,0,1,1,0,7.26A3.64,3.64,0,0,1,21.92,334.73Zm.36,5.57h7v20.53h-7Z" fill="#fff"/><path d="M33.07,340.3h7v3.3a7.25,7.25,0,0,1,6.76-3.84c4,0,6.71,2.47,6.71,7.73v13.34h-7V348.9c0-2.32-.9-3.45-2.94-3.45s-3.5,1.25-3.5,3.88v11.5h-7Z" fill="#fff"/><path d="M62.94,355.14c0-4.83,4.08-6.71,10.91-6.71h2V348c0-2-.47-3.26-2.71-3.26a2.51,2.51,0,0,0-2.78,2.43h-6.6c.32-4.94,4.2-7.37,9.82-7.37s9.26,2.31,9.26,7.77v13.3H76v-2.39c-1,1.49-2.79,2.86-6.08,2.86C66.2,361.3,62.94,359.5,62.94,355.14Zm12.87-1.49v-1.26H74c-2.83,0-4.08.55-4.08,2.24,0,1.18.78,1.92,2.43,1.92C74.32,356.55,75.81,355.41,75.81,353.65Z" fill="#fff"/><path d="M86.21,340.3h7v3.3a7.23,7.23,0,0,1,6.75-3.84c4,0,6.71,2.47,6.71,7.73v13.34h-7V348.9c0-2.32-.9-3.45-2.94-3.45s-3.49,1.25-3.49,3.88v11.5h-7Z" fill="#fff"/><path d="M22.08,375.53h7v12.32A7.25,7.25,0,0,1,35.86,384c4,0,6.71,2.47,6.71,7.73v13.34h-7V393.15c0-2.32-.9-3.45-2.94-3.45s-3.5,1.25-3.5,3.88v11.5h-7Z" fill="#fff"/><path d="M44.88,395.07v-.31c0-6.59,4.91-10.75,11.27-10.75s11.18,4,11.18,10.55v.32c0,6.67-4.9,10.67-11.22,10.67S44.88,401.71,44.88,395.07ZM60.19,395v-.32c0-3.45-1.37-5.38-4-5.38s-4.08,1.85-4.08,5.3v.32c0,3.53,1.37,5.45,4.08,5.45S60.19,398.37,60.19,395Z" fill="#fff"/><path d="M69.65,397.94V384.55h7V396.8c0,2.32.9,3.45,2.9,3.45s3.49-1.25,3.49-3.88V384.55h7v20.53h-7V401.9c-1.1,2.12-3.1,3.65-6.51,3.65C72.59,405.55,69.65,403.12,69.65,397.94Z" fill="#fff"/><path d="M93.67,384.55h7v4.09a6.46,6.46,0,0,1,6.63-4.36v6.55c-4.28-.11-6.63,1.22-6.63,4.52v9.73h-7Z" fill="#fff"/><path d="M107.25,401.55a3.92,3.92,0,0,1,4-4,4,4,0,1,1,0,7.93A3.91,3.91,0,0,1,107.25,401.55Z" fill="#fff"/></g></g></svg>