<svg xmlns="http://www.w3.org/2000/svg" viewBox="0 0 301 251"><title>Asset 10</title><g id="Layer_2" data-name="Layer 2"><g id="Rect"><rect x="0.5" y="0.5" width="300" height="250" fill="none" stroke="#000" stroke-miterlimit="10"/></g><g id="Your_maximum_refund_guaranteed." data-name="Your maximum refund, guaranteed."><path d="M28.45,32.25l-7.69-13.5h7.36l4,8,4-7.95h6.47l-7.33,13.5v10.1h-6.8Z" fill="#fff"/><path d="M40.1,33.93v-.26c0-5.55,4.13-9,9.47-9S59,28,59,33.5v.27c0,5.61-4.12,9-9.44,9S40.1,39.51,40.1,33.93ZM53,33.83v-.26c0-2.9-1.15-4.52-3.4-4.52s-3.43,1.55-3.43,4.45v.27c0,3,1.16,4.58,3.43,4.58S53,36.71,53,33.83Z" fill="#fff"/><path d="M60.92,36.34V25.09h5.91V35.38c0,1.95.76,2.91,2.45,2.91s2.93-1.06,2.93-3.27V25.09h5.91V42.35H72.21V39.68a5.66,5.66,0,0,1-5.48,3.06C63.4,42.74,60.92,40.7,60.92,36.34Z" fill="#fff"/><path d="M81.12,25.09H87v3.43a5.43,5.43,0,0,1,5.58-3.66v5.51c-3.6-.1-5.58,1-5.58,3.79v8.19H81.12Z" fill="#fff"/><path d="M22.25,60.09h5.91v2.64a6,6,0,0,1,5.41-3.11,4.72,4.72,0,0,1,4.69,2.88A6.83,6.83,0,0,1,44,59.62c3.26,0,5.64,2.12,5.64,6.44V77.35H43.7V67.05c0-1.75-.86-2.61-2.21-2.61-1.58,0-2.64,1-2.64,2.91v10H33V67.05c0-1.75-.86-2.61-2.21-2.61-1.59,0-2.64,1-2.64,2.91v10H22.25Z" fill="#fff"/><path d="M51.49,72.56c0-4.06,3.43-5.64,9.17-5.64h1.65v-.4c0-1.65-.39-2.74-2.27-2.74a2.13,2.13,0,0,0-2.35,2H52.15c.26-4.16,3.53-6.21,8.25-6.21s7.79,2,7.79,6.54V77.35H62.44v-2c-.82,1.25-2.34,2.4-5.11,2.4C54.23,77.74,51.49,76.23,51.49,72.56Zm10.82-1.25V70.25H60.76c-2.37,0-3.43.46-3.43,1.88,0,1,.66,1.62,2.05,1.62C61.06,73.75,62.31,72.79,62.31,71.31Z" fill="#fff"/><path d="M75.41,68.57,70,60.09h6.8l2.67,4.55,2.61-4.55h6.08l-5.45,8,6,9.24h-6.8L78.84,72.2l-3.13,5.15h-6Z" fill="#fff"/><path d="M90.23,55.4a3.08,3.08,0,0,1,3.23-3.07,3.06,3.06,0,1,1,0,6.11A3.06,3.06,0,0,1,90.23,55.4Zm.3,4.69h5.9V77.35h-5.9Z" fill="#fff"/><path d="M99.6,60.09h5.91v2.64a6,6,0,0,1,5.41-3.11,4.72,4.72,0,0,1,4.69,2.88,6.83,6.83,0,0,1,5.71-2.88c3.26,0,5.64,2.12,5.64,6.44V77.35h-5.91V67.05c0-1.75-.85-2.61-2.21-2.61-1.58,0-2.64,1-2.64,2.91v10h-5.84V67.05c0-1.75-.86-2.61-2.21-2.61-1.59,0-2.64,1-2.64,2.91v10H99.6Z" fill="#fff"/><path d="M129.7,71.34V60.09h5.9V70.38c0,2,.76,2.91,2.45,2.91S141,72.23,141,70V60.09h5.91V77.35H141V74.68a5.65,5.65,0,0,1-5.47,3.06C132.17,77.74,129.7,75.7,129.7,71.34Z" fill="#fff"/><path d="M149.89,60.09h5.91v2.64a6,6,0,0,1,5.41-3.11,4.72,4.72,0,0,1,4.69,2.88,6.83,6.83,0,0,1,5.71-2.88c3.27,0,5.64,2.12,5.64,6.44V77.35h-5.91V67.05c0-1.75-.85-2.61-2.21-2.61-1.58,0-2.64,1-2.64,2.91v10h-5.84V67.05c0-1.75-.86-2.61-2.21-2.61-1.58,0-2.64,1-2.64,2.91v10h-5.91Z" fill="#fff"/><path d="M22.25,95.09h5.91v3.43a5.43,5.43,0,0,1,5.57-3.66v5.51c-3.59-.1-5.57,1-5.57,3.79v8.19H22.25Z" fill="#fff"/><path d="M34.79,103.93v-.26c0-5.55,4.13-9,9.34-9,4.72,0,8.78,2.71,8.78,8.92v1.55H40.76c.17,2.27,1.49,3.6,3.6,3.6,2,0,2.77-.9,3-2h5.55c-.53,3.89-3.53,6.1-8.75,6.1C38.75,112.74,34.79,109.58,34.79,103.93Zm12.38-2.18c-.1-2.08-1.13-3.23-3-3.23s-3,1.15-3.3,3.23Z" fill="#fff"/><path d="M55.84,99.11H53.67v-4h2.17V93.57c0-4.29,2.68-6.34,6.77-6.34a10.5,10.5,0,0,1,2.71.37v4.32a5.52,5.52,0,0,0-1.62-.23,1.73,1.73,0,0,0-2,1.88v1.52h3.5v4h-3.5v13.24H55.84Z" fill="#fff"/><path d="M67.06,106.34V95.09H73v10.29c0,2,.76,2.91,2.44,2.91s2.94-1.06,2.94-3.27V95.09h5.91v17.26H78.35v-2.67a5.67,5.67,0,0,1-5.48,3.06C69.54,112.74,67.06,110.7,67.06,106.34Z" fill="#fff"/><path d="M87.26,95.09h5.91v2.77a6.09,6.09,0,0,1,5.67-3.24c3.34,0,5.65,2.08,5.65,6.51v11.22H98.58v-10c0-1.95-.76-2.91-2.48-2.91s-2.93,1.06-2.93,3.27v9.67H87.26Z" fill="#fff"/><path d="M106.5,103.9v-.26c0-5.88,3.23-9,7.32-9a5.6,5.6,0,0,1,5.32,2.91v-10h5.91v24.85h-5.91v-2.81a5.8,5.8,0,0,1-5.38,3.2C109.76,112.74,106.5,109.87,106.5,103.9Zm12.8-.1v-.26c0-2.91-1.22-4.46-3.4-4.46s-3.4,1.49-3.4,4.49v.26c0,2.91,1.29,4.39,3.34,4.39S119.3,106.74,119.3,103.8Z" fill="#fff"/><path d="M126.82,115l2.78-8.68,5.48,2-4.76,8.09Z" fill="#fff"/><path d="M21.29,147.35h5.88c.26,1.25,1,2.24,3.17,2.24,2.6,0,3.66-1.48,3.66-3.63v-2.64a6.05,6.05,0,0,1-5.35,3.17c-4,0-7.32-3-7.32-8.28v-.27c0-5.08,3.26-8.32,7.32-8.32A5.62,5.62,0,0,1,34,132.53v-2.44h5.91V145.9c0,5.14-3.4,7.85-9.57,7.85C24.46,153.75,21.75,151.28,21.29,147.35Zm12.87-9.18v-.23c0-2.37-1.22-3.89-3.4-3.89s-3.39,1.55-3.39,3.93v.26c0,2.38,1.25,3.89,3.36,3.89S34.16,140.62,34.16,138.17Z" fill="#fff"/><path d="M42.77,141.34V130.09h5.91v10.29c0,2,.76,2.91,2.44,2.91s2.94-1.06,2.94-3.27v-9.93H60v17.26H54.06v-2.67a5.66,5.66,0,0,1-5.48,3.07C45.25,147.75,42.77,145.7,42.77,141.34Z" fill="#fff"/><path d="M62,142.56c0-4.06,3.43-5.64,9.18-5.64h1.65v-.4c0-1.65-.4-2.74-2.28-2.74a2.12,2.12,0,0,0-2.34,2.05H62.64c.26-4.16,3.53-6.21,8.25-6.21s7.79,1.95,7.79,6.54v11.19H72.94v-2a5.68,5.68,0,0,1-5.12,2.42C64.72,147.75,62,146.23,62,142.56Zm10.83-1.25v-1.06H71.25c-2.37,0-3.43.46-3.43,1.88,0,1,.66,1.62,2.05,1.62C71.55,143.75,72.81,142.79,72.81,141.31Z" fill="#fff"/><path d="M81.55,130.09h5.91v3.43A5.43,5.43,0,0,1,93,129.86v5.51c-3.59-.1-5.57,1-5.57,3.79v8.19H81.55Z" fill="#fff"/><path d="M93.79,142.56c0-4.06,3.43-5.64,9.18-5.64h1.65v-.4c0-1.65-.4-2.74-2.28-2.74a2.12,2.12,0,0,0-2.34,2.05H94.45c.27-4.16,3.53-6.21,8.25-6.21s7.79,1.95,7.79,6.54v11.19h-5.74v-2a5.67,5.67,0,0,1-5.12,2.42C96.53,147.75,93.79,146.23,93.79,142.56Zm10.83-1.25v-1.06h-1.55c-2.38,0-3.44.46-3.44,1.88,0,1,.66,1.62,2.05,1.62C103.36,143.75,104.62,142.79,104.62,141.31Z" fill="#fff"/><path d="M113.36,130.09h5.91v2.77a6.09,6.09,0,0,1,5.68-3.24c3.33,0,5.64,2.08,5.64,6.51v11.22h-5.91v-10c0-1.95-.76-2.91-2.47-2.91s-2.94,1.06-2.94,3.27v9.67h-5.91Z" fill="#fff"/><path d="M134.25,141.8v-7.69h-2.08v-4h2.08v-3.6h5.91v3.6h3.4v4h-3.4v7.13c0,1.26.62,1.82,1.75,1.82a4.45,4.45,0,0,0,1.68-.3v4.49a12.28,12.28,0,0,1-3.27.5C136.43,147.75,134.25,145.86,134.25,141.8Z" fill="#fff"/><path d="M144.88,138.93v-.26c0-5.55,4.12-9,9.34-9,4.72,0,8.78,2.71,8.78,8.92v1.55H150.85c.16,2.28,1.48,3.6,3.6,3.6,1.94,0,2.77-.9,3-2.05H163c-.53,3.89-3.54,6.11-8.75,6.11C148.84,147.75,144.88,144.58,144.88,138.93Zm12.37-2.18c-.1-2.08-1.12-3.23-3-3.23s-3,1.15-3.3,3.23Z" fill="#fff"/><path d="M164.11,138.93v-.26c0-5.55,4.13-9,9.34-9,4.72,0,8.78,2.71,8.78,8.92v1.55H170.09c.16,2.28,1.48,3.6,3.6,3.6,1.94,0,2.77-.9,3-2.05h5.54c-.52,3.89-3.53,6.11-8.74,6.11C168.07,147.75,164.11,144.58,164.11,138.93Zm12.38-2.18c-.1-2.08-1.12-3.23-3-3.23s-3,1.15-3.3,3.23Z" fill="#fff"/><path d="M183.42,138.9v-.26c0-5.88,3.23-9,7.33-9a5.6,5.6,0,0,1,5.31,2.91v-10H202v24.85h-5.91v-2.81a5.81,5.81,0,0,1-5.38,3.21C186.69,147.75,183.42,144.87,183.42,138.9Zm12.8-.1v-.26c0-2.91-1.22-4.46-3.39-4.46s-3.4,1.49-3.4,4.49v.26c0,2.91,1.28,4.39,3.33,4.39S196.22,141.74,196.22,138.8Z" fill="#fff"/><path d="M204.74,144.38A3.29,3.29,0,0,1,208.1,141a3.34,3.34,0,1,1,0,6.67A3.29,3.29,0,0,1,204.74,144.38Z" fill="#fff"/></g></g></svg>