<svg xmlns="http://www.w3.org/2000/svg" viewBox="0 0 300 600"><title>Asset 1</title><g id="Layer_2" data-name="Layer 2"><g id="rect"><rect width="300" height="600" fill="none"/></g><g id="Open_and_ready_to_safely_get_your_maximum_refund." data-name="Open and ready  to safely get your maximum refund."><path d="M26.51,100.3v-.4C26.57,88.8,35,81.41,45.85,81.46c11.1.06,19.26,7.07,19.2,18.37v.41C65,111.44,57.27,119,45.51,119S26.46,111.25,26.51,100.3Zm27.64,0v-.41c0-6.46-3.21-10.3-8.35-10.32s-8.37,3.67-8.4,10.29v.41c0,6.62,3.31,10.45,8.35,10.47S54.12,106.86,54.15,100.34Z" fill="#fff"/><path d="M68.6,91.86l9.11,0,0,4A9.4,9.4,0,0,1,86,91.23c6.21,0,11.23,4.74,11.18,13.85v.41c0,9.16-5.11,13.72-11.37,13.69-4,0-6.91-1.92-8.22-4.57l-.06,12.83-9.12,0Zm19.33,13.59V105c0-4.68-2-6.93-5.21-7s-5.3,2.37-5.33,6.85v.4c0,4.53,2,6.83,5.26,6.85S87.91,109.82,87.93,105.45Z" fill="#fff"/><path d="M99.07,105.65v-.4c0-8.56,6.43-13.92,14.47-13.88,7.28,0,13.52,4.24,13.47,13.81v2.39l-18.73-.09c.24,3.51,2.26,5.56,5.52,5.58,3,0,4.28-1.36,4.65-3.14l8.55,0c-.85,6-5.49,9.39-13.54,9.35C105.12,119.28,99,114.36,99.07,105.65Zm19.11-3.26c-.14-3.21-1.71-5-4.66-5-2.75,0-4.64,1.76-5.11,5Z" fill="#fff"/><path d="M130.24,92.17l9.11,0,0,4.28a9.42,9.42,0,0,1,8.78-4.95c5.14,0,8.69,3.25,8.66,10.07l-.09,17.31-9.11,0,.08-15.48c0-3-1.15-4.48-3.8-4.5s-4.54,1.61-4.55,5l-.08,14.91-9.11,0Z" fill="#fff"/><path d="M168.88,111.6c0-6.26,5.34-8.68,14.2-8.63h2.54v-.61c0-2.55-.59-4.23-3.5-4.24a3.27,3.27,0,0,0-3.63,3.13l-8.55,0c.44-6.41,5.5-9.54,12.78-9.51s12,3.07,12,10.14l-.09,17.26-8.85,0V116c-1.28,1.93-3.63,3.7-7.91,3.68C173.07,119.61,168.86,117.25,168.88,111.6Zm16.71-1.85v-1.63h-2.39c-3.67,0-5.3.68-5.31,2.87,0,1.53,1,2.5,3.14,2.51C183.64,113.51,185.58,112,185.59,109.75Z" fill="#fff"/><path d="M199.16,92.51l9.11,0,0,4.28A9.39,9.39,0,0,1,217,91.89c5.14,0,8.69,3.25,8.66,10.07l-.09,17.3-9.11,0,.08-15.48c0-3-1.15-4.48-3.8-4.49s-4.54,1.6-4.55,5l-.08,14.92-9.11-.05Z" fill="#fff"/><path d="M228.77,106.25v-.41c0-9.06,5.06-13.87,11.37-13.84,4.18,0,6.66,1.81,8.18,4.52l.07-15.47,9.11,0-.19,38.33-9.11,0,0-4.33a9,9,0,0,1-8.32,4.9C233.74,119.92,228.72,115.46,228.77,106.25Zm19.75-.06v-.4c0-4.48-1.85-6.89-5.2-6.9s-5.26,2.26-5.28,6.9v.4c0,4.48,2,6.78,5.1,6.8C246.45,113,248.5,110.72,248.52,106.19Z" fill="#fff"/><path d="M27.39,148.76l9.11,0,0,5.3c1.7-4,4.51-5.68,8.63-5.61l0,8.5c-5.55-.18-8.61,1.54-8.63,5.81l-.07,12.63-9.11-.05Z" fill="#fff"/><path d="M46.67,162.5v-.41c0-8.55,6.43-13.92,14.48-13.88,7.27,0,13.51,4.24,13.47,13.81l0,2.4-18.73-.1c.24,3.52,2.27,5.56,5.52,5.58,3,0,4.29-1.35,4.65-3.13l8.55,0c-.84,6-5.49,9.39-13.53,9.35C52.71,176.12,46.63,171.2,46.67,162.5Zm19.1-3.27c-.13-3.21-1.7-5-4.65-5-2.75,0-4.65,1.76-5.12,5Z" fill="#fff"/><path d="M76.47,168.24c0-6.26,5.34-8.67,14.19-8.63h2.55V159c0-2.54-.59-4.23-3.49-4.24a3.27,3.27,0,0,0-3.63,3.14l-8.55,0c.44-6.41,5.49-9.54,12.77-9.5s12,3.06,12,10.14l-.08,17.25-8.86,0,0-3.11c-1.29,1.93-3.64,3.7-7.91,3.68C80.65,176.26,76.44,173.89,76.47,168.24Zm16.7-1.85v-1.63H90.79c-3.66,0-5.3.69-5.31,2.88,0,1.52,1,2.5,3.15,2.51C91.22,170.15,93.16,168.68,93.17,166.39Z" fill="#fff"/><path d="M105.36,162.74v-.41c0-9.06,5.06-13.87,11.37-13.84,4.17,0,6.66,1.81,8.17,4.52l.08-15.47,9.11,0-.19,38.33-9.11,0,0-4.32a9,9,0,0,1-8.32,4.89C110.33,176.4,105.31,172,105.36,162.74Zm19.75-.06v-.4c0-4.48-1.85-6.89-5.21-6.9s-5.25,2.26-5.28,6.89v.41c0,4.48,1.95,6.78,5.11,6.8S125.09,167.21,125.11,162.68Z" fill="#fff"/><path d="M146.89,173.28l-10.52-24,9.88,0,5.43,14.23,5.16-14.18,8.7,0L151.11,184.9l-8.7,0Z" fill="#fff"/><path d="M28.24,223.94l.06-11.86-3.21,0,0-6.21,3.21,0,0-5.55,9.11,0,0,5.55,5.25,0,0,6.21-5.25,0,0,11c0,1.93,1,2.8,2.68,2.81a6.89,6.89,0,0,0,2.6-.45l0,6.93a19.22,19.22,0,0,1-5,.74C31.56,233.12,28.21,230.2,28.24,223.94Z" fill="#fff"/><path d="M44.65,219.59v-.41c0-8.55,6.43-13.91,14.67-13.87s14.48,5.31,14.44,13.76v.41c0,8.65-6.43,13.81-14.63,13.77S44.61,228.19,44.65,219.59Zm19.86-.05v-.41c0-4.48-1.75-7-5.21-7S54,214.49,54,219v.41c0,4.58,1.75,7.09,5.26,7.1S64.48,224,64.51,219.54Z" fill="#fff"/><path d="M84.44,224.32l8.39,0c.3,1.93,1.16,3,3.76,3,2.24,0,3.26-.85,3.26-2.17s-1.26-1.89-4.92-2.42c-7.12-.95-10.12-3-10.09-8.6,0-5.91,5.29-8.73,11.45-8.7,6.56,0,11.13,2.3,11.71,8.66l-8.24,0c-.35-1.78-1.31-2.65-3.4-2.66s-3,.85-3,2.07,1.21,1.79,4.46,2.21c7.38,1,10.94,2.9,10.91,8.61,0,6.31-4.73,9.14-12.11,9.1C89,233.4,84.61,230.22,84.44,224.32Z" fill="#fff"/><path d="M110.14,225.51c0-6.26,5.33-8.67,14.19-8.63h2.55v-.61c0-2.54-.59-4.23-3.49-4.24a3.27,3.27,0,0,0-3.63,3.14l-8.55-.05c.43-6.41,5.49-9.54,12.77-9.5s12,3.06,12,10.14L135.86,233,127,233v-3.11c-1.28,1.93-3.63,3.7-7.9,3.68C114.32,233.53,110.11,231.16,110.14,225.51Zm16.7-1.85V222h-2.39c-3.67,0-5.3.69-5.31,2.88,0,1.52,1,2.5,3.14,2.51C124.89,227.42,126.83,226,126.84,223.66Z" fill="#fff"/><path d="M141.76,212.64l-3.36,0,0-6.21,3.36,0v-2.34c0-6.62,4.17-9.75,10.49-9.72a16.37,16.37,0,0,1,4.17.58l0,6.67a8.08,8.08,0,0,0-2.49-.37c-2.14,0-3.06,1.15-3.07,2.88v2.34l5.4,0,0,6.21-5.4,0-.1,20.42-9.06,0Z" fill="#fff"/><path d="M156.89,220.15v-.41c.05-8.55,6.44-13.92,14.48-13.88,7.28,0,13.52,4.24,13.47,13.81v2.4L166.1,222c.23,3.52,2.26,5.56,5.52,5.58,3,0,4.28-1.35,4.64-3.13l8.56,0c-.85,6-5.5,9.39-13.54,9.35C162.93,233.77,156.85,228.85,156.89,220.15ZM176,216.88c-.14-3.21-1.71-5-4.66-5-2.75,0-4.64,1.76-5.12,5Z" fill="#fff"/><path d="M188.37,195l9.06.05-.19,38.33-9.06-.05Z" fill="#fff"/><path d="M210.49,230.7l-10.52-24,9.87.05L215.27,221l5.16-14.18,8.71,0-14.43,35.46-8.71,0Z" fill="#fff"/><path d="M25.22,289.58l9.06,0c.4,1.94,1.56,3.47,4.87,3.49,4,0,5.66-2.27,5.68-5.58l0-4.07a9.34,9.34,0,0,1-8.27,4.85c-6.22,0-11.28-4.64-11.24-12.83v-.41c0-7.84,5.1-12.8,11.36-12.77,4.23,0,6.72,1.81,8.23,4.52l0-3.77,9.11.05-.12,24.38c0,7.94-5.31,12.09-14.82,12C30.05,299.48,25.9,295.64,25.22,289.58Zm19.92-14.06v-.35c0-3.67-1.85-6-5.21-6s-5.26,2.37-5.27,6v.4c0,3.67,1.91,6,5.17,6S45.12,279.29,45.14,275.52Z" fill="#fff"/><path d="M57.2,276.75v-.4c0-8.56,6.43-13.92,14.47-13.88,7.28,0,13.52,4.24,13.48,13.81l0,2.39-18.73-.09c.24,3.51,2.26,5.56,5.52,5.58,3,0,4.29-1.36,4.65-3.14l8.55.05c-.84,6-5.49,9.39-13.53,9.35C63.24,290.38,57.15,285.46,57.2,276.75Zm19.1-3.26c-.13-3.21-1.7-5-4.66-5-2.74,0-4.64,1.76-5.11,5Z" fill="#fff"/><path d="M89.5,281.34l.06-11.86H86.35l0-6.21h3.21l0-5.55,9.11,0,0,5.55,5.24,0,0,6.21-5.24,0-.06,11c0,1.94,1,2.81,2.69,2.82a7.09,7.09,0,0,0,2.6-.45l0,6.92a19.06,19.06,0,0,1-5,.74C92.81,290.52,89.47,287.6,89.5,281.34Z" fill="#fff"/><path d="M124.9,287.37l-10.52-24,9.87,0,5.43,14.23,5.16-14.17,8.7,0L129.11,299l-8.7,0Z" fill="#fff"/><path d="M143,277.18v-.41c0-8.55,6.43-13.91,14.68-13.87s14.48,5.31,14.44,13.76v.41c0,8.65-6.43,13.81-14.62,13.77S142.92,285.78,143,277.18Zm19.85-.05v-.41c0-4.48-1.74-7-5.21-7s-5.3,2.37-5.32,6.84V277c0,4.58,1.75,7.09,5.26,7.1S162.8,281.55,162.82,277.13Z" fill="#fff"/><path d="M175.07,281.06l.08-17.36,9.12,0-.08,15.89c0,3,1.14,4.48,3.74,4.49,2.75,0,4.54-1.6,4.56-5l.07-15.33,9.11.05-.13,26.62-9.11,0,0-4.13C191,289,188.41,291,184,291,178.83,291,175,287.77,175.07,281.06Z" fill="#fff"/><path d="M206.3,263.85l9.12,0,0,5.29c1.7-4,4.51-5.68,8.63-5.61l0,8.51c-5.55-.18-8.61,1.53-8.63,5.81l-.07,12.62-9.11,0Z" fill="#fff"/><path d="M26.54,320.06l9.11.05,0,4.07A9.31,9.31,0,0,1,44,319.44c3.51,0,5.94,1.55,7.2,4.46A10.56,10.56,0,0,1,60,319.52c5,0,8.69,3.3,8.65,10l-.08,17.4-9.11,0L59.58,331c0-2.7-1.31-4-3.4-4-2.44,0-4.08,1.56-4.09,4.46L52,346.81l-9,0,.08-15.89c0-2.69-1.3-4-3.39-4-2.44,0-4.08,1.55-4.09,4.46l-.08,15.42-9.11-.05Z" fill="#fff"/><path d="M71.55,339.53c0-6.26,5.33-8.68,14.19-8.64l2.55,0v-.62c0-2.54-.59-4.22-3.49-4.24a3.27,3.27,0,0,0-3.63,3.14l-8.55,0c.43-6.41,5.49-9.54,12.77-9.51s12,3.06,12,10.14L97.27,347,88.41,347v-3.1c-1.28,1.92-3.63,3.69-7.9,3.67C75.73,347.54,71.52,345.18,71.55,339.53Zm16.7-1.85v-1.63H85.87c-3.67,0-5.3.68-5.31,2.87,0,1.53,1,2.5,3.14,2.51C86.3,341.43,88.24,340,88.25,337.68Z" fill="#fff"/><path d="M108.48,333.55l-8.23-13.12,10.48.05,4.09,7,4.06-7,9.36.05-8.46,12.33,9.15,14.29-10.49-.05-4.69-8-4.88,7.91-9.31,0Z" fill="#fff"/><path d="M131.43,313.36a5,5,0,1,1,5,4.7A4.76,4.76,0,0,1,131.43,313.36Zm.43,7.23,9.11,0-.13,26.62-9.12,0Z" fill="#fff"/><path d="M145.86,320.66l9.11,0,0,4.07a9.31,9.31,0,0,1,8.37-4.74c3.51,0,6,1.56,7.21,4.46a10.54,10.54,0,0,1,8.82-4.38c5,0,8.69,3.3,8.66,10l-.09,17.41-9.11-.05.08-15.88c0-2.7-1.3-4-3.39-4-2.44,0-4.08,1.56-4.1,4.46l-.07,15.42-9,0,.08-15.88c0-2.7-1.31-4-3.39-4-2.45,0-4.08,1.56-4.1,4.46l-.07,15.42-9.12,0Z" fill="#fff"/><path d="M192.19,338.24l.09-17.35,9.11,0-.08,15.88c0,3,1.15,4.49,3.75,4.5,2.75,0,4.53-1.6,4.55-5l.08-15.32,9.11,0-.13,26.62-9.11-.05,0-4.12c-1.44,2.74-4.05,4.72-8.48,4.69C196,348.14,192.16,345,192.19,338.24Z" fill="#fff"/><path d="M223.43,321l9.11,0,0,4.07a9.29,9.29,0,0,1,8.37-4.74c3.52,0,6,1.55,7.21,4.46a10.56,10.56,0,0,1,8.83-4.38c5,0,8.69,3.3,8.65,10l-.08,17.41-9.11,0,.07-15.88c0-2.7-1.3-4-3.39-4-2.44,0-4.08,1.55-4.09,4.46l-.08,15.42-9,0,.08-15.89c0-2.69-1.3-4-3.39-4-2.44,0-4.08,1.55-4.09,4.45l-.08,15.43-9.11,0Z" fill="#fff"/><path d="M26.26,377.16l9.11,0,0,5.29c1.7-4,4.51-5.68,8.63-5.61l0,8.51c-5.55-.19-8.61,1.53-8.63,5.81l-.06,12.62-9.11,0Z" fill="#fff"/><path d="M45.53,390.9v-.41c0-8.55,6.43-13.91,14.47-13.87,7.28,0,13.52,4.24,13.47,13.81v2.39l-18.73-.09c.23,3.51,2.26,5.56,5.52,5.57,3,0,4.28-1.35,4.65-3.13l8.55,0c-.85,6-5.5,9.39-13.54,9.35C51.57,404.52,45.49,399.61,45.53,390.9Zm19.11-3.26c-.14-3.21-1.71-5-4.66-5-2.75,0-4.64,1.75-5.12,5Z" fill="#fff"/><path d="M78.05,383.63l-3.36,0,0-6.21,3.36,0v-2.34c0-6.62,4.17-9.75,10.48-9.72a16.37,16.37,0,0,1,4.17.58l0,6.67a8.13,8.13,0,0,0-2.49-.37c-2.14,0-3.06,1.15-3.07,2.88v2.35l5.39,0,0,6.21-5.39,0L87,404.09l-9.06,0Z" fill="#fff"/><path d="M95.3,394.86l.08-17.35,9.11,0-.07,15.88c0,3,1.14,4.49,3.74,4.5,2.75,0,4.54-1.6,4.55-5l.08-15.33,9.11.05-.13,26.62-9.11,0,0-4.13c-1.44,2.74-4.05,4.72-8.47,4.7C99.06,404.76,95.26,401.58,95.3,394.86Z" fill="#fff"/><path d="M126.53,377.66l9.12,0,0,4.27A9.41,9.41,0,0,1,144.4,377c5.15,0,8.69,3.25,8.66,10.07L153,404.42l-9.11-.05.08-15.47c0-3-1.15-4.49-3.8-4.5s-4.54,1.6-4.55,5l-.08,14.92-9.11-.05Z" fill="#fff"/><path d="M156.14,391.4V391c.05-9.06,5.06-13.87,11.37-13.84,4.18,0,6.66,1.82,8.18,4.52l.07-15.47,9.12,0-.19,38.33-9.12,0,0-4.33a9,9,0,0,1-8.32,4.9C161.11,405.07,156.1,400.61,156.14,391.4Zm19.75,0v-.41c0-4.48-1.85-6.88-5.21-6.9s-5.26,2.26-5.28,6.9v.4c0,4.48,2,6.78,5.1,6.8C173.82,398.16,175.87,395.88,175.89,391.35Z" fill="#fff"/><path d="M189,400a5.08,5.08,0,0,1,5.22-5.11,5.14,5.14,0,1,1,0,10.28A5.08,5.08,0,0,1,189,400Z" fill="#fff"/></g></g></svg>