<svg xmlns="http://www.w3.org/2000/svg" viewBox="0 0 728 90"><title>H126</title><g id="Layer_2" data-name="Layer 2"><g id="Rect"><rect width="728" height="90" fill="none"/></g><g id="H126"><g id="Hora_intensa_de_trabajo._Preparación_de_taxes_en_una_hora." data-name="Hora intensa de trabajo.  Preparación de taxes en una hora."><path d="M123.6,20.56h5.45v7.17h6.23V20.56h5.42V39.34h-5.42V31.93h-6.23v7.41H123.6Z" fill="#fff"/><path d="M142.61,32.64v-.21c0-4.41,3.31-7.19,7.6-7.19s7.54,2.7,7.54,7.06v.21c0,4.46-3.31,7.14-7.57,7.14S142.61,37.08,142.61,32.64Zm10.33-.08v-.21c0-2.31-.93-3.6-2.73-3.6s-2.75,1.24-2.75,3.55v.21c0,2.36.92,3.65,2.75,3.65S152.94,34.85,152.94,32.56Z" fill="#fff"/><path d="M159.42,25.6h4.74v2.73a4.36,4.36,0,0,1,4.47-2.91v4.39c-2.88-.08-4.47.81-4.47,3v6.51h-4.74Z" fill="#fff"/><path d="M169.24,35.53c0-3.23,2.76-4.49,7.36-4.49h1.33v-.32c0-1.31-.32-2.18-1.83-2.18a1.7,1.7,0,0,0-1.88,1.63h-4.45c.22-3.31,2.84-4.93,6.62-4.93s6.25,1.55,6.25,5.2v8.9H178v-1.6a4.57,4.57,0,0,1-4.1,1.91C171.44,39.65,169.24,38.44,169.24,35.53Zm8.69-1v-.84h-1.25c-1.9,0-2.75.37-2.75,1.5,0,.79.53,1.29,1.64,1.29C176.92,36.48,177.93,35.71,177.93,34.53Z" fill="#fff"/><path d="M189.66,21.87a2.46,2.46,0,0,1,2.59-2.44,2.44,2.44,0,1,1,0,4.86A2.44,2.44,0,0,1,189.66,21.87Zm.23,3.73h4.74V39.34h-4.74Z" fill="#fff"/><path d="M197.17,25.6h4.74v2.21a4.89,4.89,0,0,1,4.56-2.57c2.67,0,4.52,1.65,4.52,5.17v8.93h-4.73v-8c0-1.54-.61-2.31-2-2.31s-2.36.84-2.36,2.6v7.7h-4.74Z" fill="#fff"/><path d="M213.93,34.93V28.81h-1.66V25.6h1.66V22.74h4.74V25.6h2.73v3.21h-2.73v5.67a1.26,1.26,0,0,0,1.41,1.44,3.65,3.65,0,0,0,1.35-.23v3.57a10,10,0,0,1-2.63.39C215.68,39.65,213.93,38.16,213.93,34.93Z" fill="#fff"/><path d="M222.46,32.64v-.21c0-4.41,3.31-7.19,7.49-7.19,3.79,0,7,2.15,7,7.09v1.23h-9.74a2.75,2.75,0,0,0,2.89,2.86c1.56,0,2.22-.71,2.4-1.63H237c-.42,3.1-2.83,4.86-7,4.86C225.63,39.65,222.46,37.13,222.46,32.64Zm9.93-1.73c-.08-1.66-.9-2.58-2.44-2.58a2.63,2.63,0,0,0-2.65,2.58Z" fill="#fff"/><path d="M238.63,25.6h4.74v2.21a4.89,4.89,0,0,1,4.56-2.57c2.67,0,4.52,1.65,4.52,5.17v8.93h-4.74v-8c0-1.54-.6-2.31-2-2.31s-2.36.84-2.36,2.6v7.7h-4.74Z" fill="#fff"/><path d="M253.83,35h4.37c.16,1,.61,1.55,2,1.55,1.16,0,1.69-.45,1.69-1.13s-.66-1-2.57-1.24c-3.7-.47-5.26-1.54-5.26-4.41,0-3,2.72-4.51,5.93-4.51,3.41,0,5.79,1.15,6.11,4.43h-4.29A1.54,1.54,0,0,0,260,28.31c-1,0-1.56.44-1.56,1.08s.63.91,2.33,1.12c3.84.48,5.69,1.47,5.69,4.42,0,3.25-2.44,4.72-6.28,4.72S253.94,38,253.83,35Z" fill="#fff"/><path d="M267.2,35.53c0-3.23,2.75-4.49,7.36-4.49h1.32v-.32c0-1.31-.31-2.18-1.82-2.18a1.7,1.7,0,0,0-1.88,1.63h-4.45c.21-3.31,2.83-4.93,6.62-4.93s6.25,1.55,6.25,5.2v8.9H276v-1.6a4.57,4.57,0,0,1-4.1,1.91C269.4,39.65,267.2,38.44,267.2,35.53Zm8.68-1v-.84h-1.24c-1.91,0-2.75.37-2.75,1.5,0,.79.53,1.29,1.64,1.29A2.08,2.08,0,0,0,275.88,34.53Z" fill="#fff"/><path d="M287,32.62v-.21c0-4.68,2.59-7.17,5.88-7.17a4.49,4.49,0,0,1,4.26,2.31v-8h4.74V39.34h-4.74V37.11a4.68,4.68,0,0,1-4.32,2.54C289.65,39.65,287,37.37,287,32.62Zm10.27-.08v-.21c0-2.31-1-3.55-2.72-3.55s-2.73,1.18-2.73,3.57v.21c0,2.31,1,3.5,2.67,3.5S297.3,34.87,297.3,32.54Z" fill="#fff"/><path d="M303.58,32.64v-.21c0-4.41,3.31-7.19,7.49-7.19,3.79,0,7,2.15,7,7.09v1.23h-9.74a2.75,2.75,0,0,0,2.88,2.86c1.57,0,2.23-.71,2.41-1.63h4.45c-.42,3.1-2.83,4.86-7,4.86C306.75,39.65,303.58,37.13,303.58,32.64Zm9.92-1.73c-.07-1.66-.9-2.58-2.43-2.58a2.63,2.63,0,0,0-2.65,2.58Z" fill="#fff"/><path d="M325.21,34.93V28.81h-1.67V25.6h1.67V22.74H330V25.6h2.72v3.21H330v5.67a1.25,1.25,0,0,0,1.4,1.44,3.57,3.57,0,0,0,1.35-.23v3.57a10,10,0,0,1-2.62.39C327,39.65,325.21,38.16,325.21,34.93Z" fill="#fff"/><path d="M334.47,25.6h4.74v2.73a4.37,4.37,0,0,1,4.48-2.91v4.39c-2.89-.08-4.48.81-4.48,3v6.51h-4.74Z" fill="#fff"/><path d="M344.3,35.53c0-3.23,2.75-4.49,7.36-4.49H353v-.32c0-1.31-.32-2.18-1.83-2.18a1.7,1.7,0,0,0-1.88,1.63h-4.45c.22-3.31,2.84-4.93,6.62-4.93s6.25,1.55,6.25,5.2v8.9h-4.61v-1.6a4.56,4.56,0,0,1-4.1,1.91C346.49,39.65,344.3,38.44,344.3,35.53Zm8.68-1v-.84h-1.25c-1.9,0-2.75.37-2.75,1.5,0,.79.53,1.29,1.64,1.29C352,36.48,353,35.71,353,34.53Z" fill="#fff"/><path d="M364.73,37.21v2.13H360V19.56h4.74v8.09a4.91,4.91,0,0,1,4.32-2.41c3.23,0,5.85,2.41,5.85,7.11v.21c0,4.73-2.62,7.09-5.88,7.09A4.5,4.5,0,0,1,364.73,37.21Zm5.35-4.65v-.21c0-2.41-1.06-3.57-2.73-3.57S364.6,30,364.6,32.33v.21c0,2.33,1,3.52,2.75,3.52S370.08,34.82,370.08,32.56Z" fill="#fff"/><path d="M375.83,35.53c0-3.23,2.75-4.49,7.36-4.49h1.32v-.32c0-1.31-.32-2.18-1.83-2.18a1.71,1.71,0,0,0-1.88,1.63h-4.44c.21-3.31,2.83-4.93,6.61-4.93s6.25,1.55,6.25,5.2v8.9h-4.6v-1.6a4.59,4.59,0,0,1-4.11,1.91C378,39.65,375.83,38.44,375.83,35.53Zm8.68-1v-.84h-1.24c-1.91,0-2.76.37-2.76,1.5,0,.79.53,1.29,1.64,1.29C383.5,36.48,384.51,35.71,384.51,34.53Z" fill="#fff"/><path d="M390,40.76c1.17-.08,1.7-.56,1.7-1.63V25.6h4.71V39.23c0,3-1.4,4.94-6.41,4.94Zm1.46-18.89A2.46,2.46,0,0,1,394,19.43a2.44,2.44,0,1,1,0,4.86A2.44,2.44,0,0,1,391.42,21.87Z" fill="#fff"/><path d="M398.2,32.64v-.21c0-4.41,3.31-7.19,7.6-7.19s7.54,2.7,7.54,7.06v.21c0,4.46-3.31,7.14-7.57,7.14S398.2,37.08,398.2,32.64Zm10.32-.08v-.21c0-2.31-.92-3.6-2.72-3.6S403,30,403,32.3v.21c0,2.36.93,3.65,2.76,3.65S408.52,34.85,408.52,32.56Z" fill="#fff"/><path d="M414.24,37a2.63,2.63,0,0,1,2.7-2.65,2.66,2.66,0,1,1,0,5.31A2.64,2.64,0,0,1,414.24,37Z" fill="#fff"/><path d="M123.6,49.65h7.2c5.19,0,7.6,2.29,7.6,6.28V56c0,3.94-2.67,6.07-7.36,6.07h-2v6.33h-5.4Zm7,8.77c1.75,0,2.68-.81,2.68-2.36V56c0-1.61-1-2.26-2.65-2.26H129v4.72Z" fill="#fff"/><path d="M140,54.69h4.74v2.74a4.36,4.36,0,0,1,4.48-2.92V58.9c-2.89-.08-4.48.81-4.48,3v6.51H140Z" fill="#fff"/><path d="M150.1,61.73v-.21c0-4.41,3.31-7.19,7.49-7.19,3.79,0,7,2.15,7,7.09v1.23h-9.75a2.76,2.76,0,0,0,2.89,2.86c1.56,0,2.22-.71,2.41-1.62h4.45c-.43,3.09-2.84,4.85-7,4.85C153.28,68.74,150.1,66.22,150.1,61.73ZM160,60c-.08-1.66-.9-2.57-2.44-2.57A2.62,2.62,0,0,0,155,60Z" fill="#fff"/><path d="M166.28,54.69H171v2.05a4.88,4.88,0,0,1,4.31-2.41c3.23,0,5.85,2.41,5.85,7.11v.21c0,4.73-2.62,7.09-5.87,7.09A4.57,4.57,0,0,1,171,66.41V73h-4.74Zm10.09,7v-.21c0-2.41-1.06-3.57-2.73-3.57s-2.75,1.24-2.75,3.55v.21c0,2.33,1,3.52,2.75,3.52S176.37,63.91,176.37,61.65Z" fill="#fff"/><path d="M182.11,64.62c0-3.23,2.75-4.49,7.36-4.49h1.32v-.31c0-1.32-.31-2.18-1.82-2.18a1.69,1.69,0,0,0-1.88,1.62h-4.45c.21-3.3,2.83-4.93,6.62-4.93s6.25,1.55,6.25,5.2v8.9H190.9v-1.6a4.55,4.55,0,0,1-4.1,1.91C184.31,68.74,182.11,67.54,182.11,64.62Zm8.68-1v-.84h-1.24c-1.91,0-2.75.37-2.75,1.5,0,.79.53,1.29,1.64,1.29A2.08,2.08,0,0,0,190.79,63.62Z" fill="#fff"/><path d="M197.81,54.69h4.74v2.74A4.36,4.36,0,0,1,207,54.51V58.9c-2.88-.08-4.47.81-4.47,3v6.51h-4.74Z" fill="#fff"/><path d="M207.63,64.62c0-3.23,2.76-4.49,7.36-4.49h1.33v-.31c0-1.32-.32-2.18-1.83-2.18a1.69,1.69,0,0,0-1.88,1.62h-4.45c.21-3.3,2.83-4.93,6.62-4.93s6.25,1.55,6.25,5.2v8.9h-4.61v-1.6a4.55,4.55,0,0,1-4.1,1.91C209.83,68.74,207.63,67.54,207.63,64.62Zm8.69-1v-.84h-1.25c-1.9,0-2.75.37-2.75,1.5,0,.79.53,1.29,1.64,1.29C215.31,65.57,216.32,64.8,216.32,63.62Z" fill="#fff"/><path d="M222.59,61.73v-.21c0-4.57,3.31-7.19,7.39-7.19,3.39,0,6.51,1.47,6.77,5.64h-4.44a2,2,0,0,0-2.23-2c-1.66,0-2.64,1.18-2.64,3.49v.21c0,2.39.92,3.62,2.72,3.62A2.29,2.29,0,0,0,232.57,63h4.26c-.13,3.47-2.48,5.72-7,5.72C225.74,68.74,222.59,66.35,222.59,61.73Z" fill="#fff"/><path d="M238.26,51a2.62,2.62,0,1,1,2.6,2.41A2.45,2.45,0,0,1,238.26,51Zm.24,3.72h4.74V68.43H238.5Z" fill="#fff"/><path d="M245,61.73v-.21c0-4.41,3.31-7.19,7.6-7.19s7.54,2.7,7.54,7.06v.21c0,4.47-3.31,7.14-7.57,7.14S245,66.17,245,61.73Zm10.33-.08v-.21c0-2.31-.93-3.59-2.73-3.59s-2.75,1.23-2.75,3.54v.21c0,2.36.92,3.65,2.75,3.65S255.37,63.94,255.37,61.65Zm-3.18-12.89H257l-2.78,4.36h-3.38Z" fill="#fff"/><path d="M261.85,54.69h4.74V56.9a4.88,4.88,0,0,1,4.55-2.57c2.68,0,4.53,1.65,4.53,5.17v8.93h-4.74v-8c0-1.55-.61-2.32-2-2.32s-2.36.84-2.36,2.6v7.7h-4.74Z" fill="#fff"/><path d="M282.11,61.71V61.5c0-4.68,2.59-7.17,5.87-7.17a4.52,4.52,0,0,1,4.27,2.31v-8H297V68.43h-4.73V66.2a4.69,4.69,0,0,1-4.32,2.54C284.73,68.74,282.11,66.46,282.11,61.71Zm10.27-.08v-.21c0-2.31-1-3.55-2.73-3.55s-2.73,1.18-2.73,3.57v.21c0,2.31,1,3.5,2.68,3.5S292.38,64,292.38,61.63Z" fill="#fff"/><path d="M298.65,61.73v-.21c0-4.41,3.31-7.19,7.49-7.19,3.79,0,7.05,2.15,7.05,7.09v1.23h-9.75a2.76,2.76,0,0,0,2.89,2.86c1.56,0,2.22-.71,2.41-1.62h4.45c-.43,3.09-2.84,4.85-7,4.85C301.83,68.74,298.65,66.22,298.65,61.73ZM308.58,60c-.08-1.66-.9-2.57-2.44-2.57A2.62,2.62,0,0,0,303.5,60Z" fill="#fff"/><path d="M320.28,64V57.9h-1.67V54.69h1.67V51.83H325v2.86h2.73V57.9H325v5.67a1.25,1.25,0,0,0,1.4,1.44,3.57,3.57,0,0,0,1.35-.23v3.57a9.81,9.81,0,0,1-2.62.39C322,68.74,320.28,67.25,320.28,64Z" fill="#fff"/><path d="M328.81,64.62c0-3.23,2.75-4.49,7.36-4.49h1.32v-.31c0-1.32-.32-2.18-1.83-2.18a1.7,1.7,0,0,0-1.88,1.62h-4.44c.21-3.3,2.83-4.93,6.62-4.93s6.24,1.55,6.24,5.2v8.9h-4.6v-1.6a4.55,4.55,0,0,1-4.11,1.91C331,68.74,328.81,67.54,328.81,64.62Zm8.68-1v-.84h-1.24c-1.91,0-2.76.37-2.76,1.5,0,.79.53,1.29,1.64,1.29C336.48,65.57,337.49,64.8,337.49,63.62Z" fill="#fff"/><path d="M348,61.44l-4.31-6.75h5.45l2.14,3.63,2.1-3.63h4.87l-4.37,6.39,4.79,7.35h-5.45l-2.47-4.1-2.51,4.1H343.4Z" fill="#fff"/><path d="M358.06,61.73v-.21c0-4.41,3.31-7.19,7.49-7.19,3.79,0,7.05,2.15,7.05,7.09v1.23h-9.75a2.76,2.76,0,0,0,2.89,2.86c1.56,0,2.22-.71,2.41-1.62h4.45c-.43,3.09-2.84,4.85-7,4.85C361.24,68.74,358.06,66.22,358.06,61.73ZM368,60c-.08-1.66-.9-2.57-2.44-2.57A2.61,2.61,0,0,0,362.91,60Z" fill="#fff"/><path d="M373.44,64.07h4.37c.16,1,.61,1.55,2,1.55,1.17,0,1.7-.45,1.7-1.13s-.67-1-2.57-1.23c-3.71-.48-5.27-1.55-5.27-4.42,0-3,2.73-4.51,5.93-4.51,3.41,0,5.8,1.15,6.12,4.43h-4.29a1.55,1.55,0,0,0-1.78-1.36c-1,0-1.56.45-1.56,1.08s.64.92,2.33,1.13c3.84.47,5.69,1.47,5.69,4.41,0,3.25-2.43,4.72-6.27,4.72S373.55,67.12,373.44,64.07Z" fill="#fff"/><path d="M391.69,61.73v-.21c0-4.41,3.3-7.19,7.49-7.19,3.78,0,7,2.15,7,7.09v1.23h-9.74a2.75,2.75,0,0,0,2.88,2.86c1.56,0,2.23-.71,2.41-1.62h4.45c-.42,3.09-2.83,4.85-7,4.85S391.69,66.22,391.69,61.73ZM401.61,60c-.08-1.66-.9-2.57-2.43-2.57A2.62,2.62,0,0,0,396.53,60Z" fill="#fff"/><path d="M407.86,54.69h4.74V56.9a4.88,4.88,0,0,1,4.55-2.57c2.68,0,4.53,1.65,4.53,5.17v8.93h-4.74v-8c0-1.55-.61-2.32-2-2.32s-2.36.84-2.36,2.6v7.7h-4.74Z" fill="#fff"/><path d="M428.7,63.65v-9h4.74v8.2c0,1.55.6,2.31,2,2.31s2.35-.84,2.35-2.6V54.69h4.74V68.43h-4.74V66.3a4.55,4.55,0,0,1-4.39,2.44C430.68,68.74,428.7,67.12,428.7,63.65Z" fill="#fff"/><path d="M444.9,54.69h4.74V56.9a4.88,4.88,0,0,1,4.55-2.57c2.68,0,4.53,1.65,4.53,5.17v8.93H454v-8c0-1.55-.61-2.32-2-2.32s-2.36.84-2.36,2.6v7.7H444.9Z" fill="#fff"/><path d="M460.23,64.62c0-3.23,2.75-4.49,7.36-4.49h1.32v-.31c0-1.32-.32-2.18-1.82-2.18a1.69,1.69,0,0,0-1.88,1.62h-4.45c.21-3.3,2.83-4.93,6.62-4.93s6.24,1.55,6.24,5.2v8.9H469v-1.6a4.55,4.55,0,0,1-4.1,1.91C462.43,68.74,460.23,67.54,460.23,64.62Zm8.68-1v-.84h-1.24c-1.91,0-2.75.37-2.75,1.5,0,.79.52,1.29,1.64,1.29A2.08,2.08,0,0,0,468.91,63.62Z" fill="#fff"/><path d="M480.75,48.65h4.74V56.9A4.88,4.88,0,0,1,490,54.33c2.67,0,4.53,1.65,4.53,5.17v8.93h-4.74v-8c0-1.55-.61-2.32-2-2.32s-2.35.84-2.35,2.6v7.7h-4.74Z" fill="#fff"/><path d="M496.13,61.73v-.21c0-4.41,3.31-7.19,7.6-7.19s7.54,2.7,7.54,7.06v.21c0,4.47-3.31,7.14-7.57,7.14S496.13,66.17,496.13,61.73Zm10.32-.08v-.21c0-2.31-.92-3.59-2.72-3.59S501,59.08,501,61.39v.21c0,2.36.93,3.65,2.76,3.65S506.45,63.94,506.45,61.65Z" fill="#fff"/><path d="M512.94,54.69h4.74v2.74a4.36,4.36,0,0,1,4.47-2.92V58.9c-2.88-.08-4.47.81-4.47,3v6.51h-4.74Z" fill="#fff"/><path d="M522.76,64.62c0-3.23,2.76-4.49,7.36-4.49h1.33v-.31c0-1.32-.32-2.18-1.83-2.18a1.69,1.69,0,0,0-1.88,1.62h-4.45c.22-3.3,2.84-4.93,6.62-4.93s6.25,1.55,6.25,5.2v8.9h-4.61v-1.6a4.55,4.55,0,0,1-4.1,1.91C525,68.74,522.76,67.54,522.76,64.62Zm8.69-1v-.84H530.2c-1.9,0-2.75.37-2.75,1.5,0,.79.53,1.29,1.64,1.29C530.44,65.57,531.45,64.8,531.45,63.62Z" fill="#fff"/><path d="M538.28,66.07a2.63,2.63,0,0,1,2.7-2.66,2.66,2.66,0,1,1,0,5.31A2.63,2.63,0,0,1,538.28,66.07Z" fill="#fff"/></g></g></g></svg>