<svg xmlns="http://www.w3.org/2000/svg" viewBox="0 0 728 90"><title>Asset 1</title><g id="Layer_2" data-name="Layer 2"><g id="rect"><rect width="728" height="90" fill="none"/></g><g id="Open_and_ready_to_safely_get_your_maximum_refund." data-name="Open and ready to safely get your maximum refund."><path d="M117.18,29.59v-.22c0-6,4.5-10,10.37-10S138,23.14,138,29.23v.22c0,6-4.14,10.15-10.48,10.15S117.18,35.49,117.18,29.59Zm14.9-.06v-.22c0-3.48-1.75-5.54-4.53-5.54s-4.49,2-4.49,5.57v.22c0,3.57,1.81,5.63,4.52,5.63S132.08,33,132.08,29.53Z" fill="#fff"/><path d="M139.85,24.92h4.91v2.14a5.05,5.05,0,0,1,4.47-2.52c3.35,0,6.06,2.52,6.06,7.44v.21c0,4.94-2.71,7.41-6.09,7.41a4.71,4.71,0,0,1-4.44-2.44v6.91h-4.91Zm10.45,7.27V32c0-2.53-1.1-3.74-2.83-3.74s-2.85,1.29-2.85,3.71v.22c0,2.44,1.07,3.67,2.85,3.67S150.3,34.55,150.3,32.19Z" fill="#fff"/><path d="M156.31,32.28v-.22c0-4.61,3.43-7.52,7.76-7.52,3.93,0,7.3,2.25,7.3,7.41v1.29h-10.1a2.87,2.87,0,0,0,3,3c1.62,0,2.31-.74,2.5-1.7h4.61c-.44,3.23-2.94,5.07-7.27,5.07C159.6,39.6,156.31,37,156.31,32.28Zm10.29-1.81c-.09-1.73-.94-2.69-2.53-2.69s-2.49,1-2.74,2.69Z" fill="#fff"/><path d="M173.07,24.92H178v2.31a5.07,5.07,0,0,1,4.72-2.69c2.77,0,4.69,1.73,4.69,5.4v9.33h-4.91V30.93c0-1.62-.63-2.41-2.06-2.41S178,29.4,178,31.23v8h-4.91Z" fill="#fff"/><path d="M194,35.29c0-3.37,2.85-4.69,7.63-4.69H203v-.33c0-1.37-.33-2.27-1.89-2.27a1.76,1.76,0,0,0-1.95,1.7H194.5c.22-3.46,2.94-5.16,6.86-5.16s6.47,1.62,6.47,5.43v9.3h-4.77V37.6a4.72,4.72,0,0,1-4.25,2C196.23,39.6,194,38.34,194,35.29Zm9-1v-.88h-1.29c-2,0-2.85.39-2.85,1.57,0,.82.55,1.34,1.7,1.34C201.91,36.28,203,35.49,203,34.25Z" fill="#fff"/><path d="M210.22,24.92h4.91v2.31a5.07,5.07,0,0,1,4.72-2.69c2.77,0,4.69,1.73,4.69,5.4v9.33h-4.91V30.93c0-1.62-.63-2.41-2.06-2.41s-2.44.88-2.44,2.71v8h-4.91Z" fill="#fff"/><path d="M226.22,32.25V32c0-4.88,2.69-7.49,6.09-7.49A4.64,4.64,0,0,1,236.72,27V18.61h4.92V39.27h-4.92V36.94a4.83,4.83,0,0,1-4.47,2.66C228.93,39.6,226.22,37.22,226.22,32.25Zm10.64-.08V32c0-2.42-1-3.71-2.82-3.71s-2.83,1.24-2.83,3.74v.21c0,2.42,1.07,3.65,2.77,3.65S236.86,34.61,236.86,32.17Z" fill="#fff"/><path d="M249.13,24.92H254v2.86a4.51,4.51,0,0,1,4.63-3.05v4.58c-3-.08-4.63.85-4.63,3.16v6.8h-4.91Z" fill="#fff"/><path d="M259.55,32.28v-.22c0-4.61,3.43-7.52,7.77-7.52,3.92,0,7.29,2.25,7.29,7.41v1.29H264.52a2.86,2.86,0,0,0,3,3c1.62,0,2.3-.74,2.49-1.7h4.61c-.43,3.23-2.93,5.07-7.27,5.07C262.84,39.6,259.55,37,259.55,32.28Zm10.29-1.81c-.08-1.73-.93-2.69-2.52-2.69s-2.5,1-2.75,2.69Z" fill="#fff"/><path d="M275.63,35.29c0-3.37,2.85-4.69,7.63-4.69h1.37v-.33c0-1.37-.33-2.27-1.89-2.27a1.76,1.76,0,0,0-1.95,1.7h-4.61c.22-3.46,2.93-5.16,6.86-5.16s6.47,1.62,6.47,5.43v9.3h-4.77V37.6a4.72,4.72,0,0,1-4.25,2C277.91,39.6,275.63,38.34,275.63,35.29Zm9-1v-.88h-1.29c-2,0-2.85.39-2.85,1.57,0,.82.54,1.34,1.7,1.34C283.59,36.28,284.63,35.49,284.63,34.25Z" fill="#fff"/><path d="M291.19,32.25V32c0-4.88,2.69-7.49,6.09-7.49A4.64,4.64,0,0,1,301.69,27V18.61h4.91V39.27h-4.91V36.94a4.83,4.83,0,0,1-4.47,2.66C293.9,39.6,291.19,37.22,291.19,32.25Zm10.64-.08V32c0-2.42-1-3.71-2.82-3.71s-2.83,1.24-2.83,3.74v.21c0,2.42,1.07,3.65,2.77,3.65S301.83,34.61,301.83,32.17Z" fill="#fff"/><path d="M313.6,37.82l-5.73-12.9h5.32l3,7.66,2.75-7.66h4.69l-7.68,19.15h-4.7Z" fill="#fff"/><path d="M330.5,34.66V28.27h-1.73V24.92h1.73v-3h4.91v3h2.83v3.35h-2.83V34.2a1.32,1.32,0,0,0,1.46,1.51,3.84,3.84,0,0,0,1.4-.25v3.73a10.13,10.13,0,0,1-2.72.41C332.31,39.6,330.5,38,330.5,34.66Z" fill="#fff"/><path d="M339.34,32.28v-.22c0-4.61,3.43-7.52,7.87-7.52S355,27.37,355,31.92v.22c0,4.66-3.43,7.46-7.85,7.46S339.34,36.91,339.34,32.28Zm10.7-.09V32c0-2.42-1-3.76-2.83-3.76s-2.85,1.29-2.85,3.7v.22c0,2.47,1,3.81,2.85,3.81S350,34.58,350,32.19Z" fill="#fff"/><path d="M360.79,34.72h4.53c.16,1,.63,1.62,2,1.62,1.21,0,1.76-.47,1.76-1.18s-.69-1-2.67-1.29c-3.84-.5-5.46-1.62-5.46-4.61,0-3.18,2.83-4.72,6.15-4.72,3.54,0,6,1.21,6.34,4.64H369a1.6,1.6,0,0,0-1.83-1.43c-1.07,0-1.62.47-1.62,1.13s.65.95,2.41,1.17c4,.5,5.9,1.54,5.9,4.61,0,3.41-2.52,4.94-6.5,4.94S360.9,37.9,360.79,34.72Z" fill="#fff"/><path d="M374.65,35.29c0-3.37,2.85-4.69,7.63-4.69h1.37v-.33c0-1.37-.33-2.27-1.9-2.27a1.75,1.75,0,0,0-1.94,1.7H375.2c.22-3.46,2.93-5.16,6.86-5.16s6.47,1.62,6.47,5.43v9.3h-4.77V37.6a4.73,4.73,0,0,1-4.26,2C376.93,39.6,374.65,38.34,374.65,35.29Zm9-1v-.88h-1.29c-2,0-2.86.39-2.86,1.57,0,.82.55,1.34,1.71,1.34A2.16,2.16,0,0,0,383.65,34.25Z" fill="#fff"/><path d="M391.66,28.27h-1.81V24.92h1.81V23.66c0-3.56,2.22-5.27,5.62-5.27a8.48,8.48,0,0,1,2.25.31v3.59a4.44,4.44,0,0,0-1.34-.19,1.44,1.44,0,0,0-1.65,1.56v1.26h2.91v3.35h-2.91v11h-4.88Z" fill="#fff"/><path d="M399.83,32.28v-.22c0-4.61,3.43-7.52,7.77-7.52,3.92,0,7.3,2.25,7.3,7.41v1.29H404.8a2.87,2.87,0,0,0,3,3c1.62,0,2.31-.74,2.5-1.7h4.61c-.44,3.23-2.94,5.07-7.27,5.07C403.13,39.6,399.83,37,399.83,32.28Zm10.29-1.81c-.08-1.73-.93-2.69-2.52-2.69a2.72,2.72,0,0,0-2.74,2.69Z" fill="#fff"/><path d="M416.74,18.61h4.88V39.27h-4.88Z" fill="#fff"/><path d="M428.75,37.82,423,24.92h5.32l3,7.66,2.75-7.66h4.69l-7.68,19.15h-4.69Z" fill="#fff"/><path d="M444.2,39.27h4.88c.22,1,.85,1.87,2.64,1.87a2.72,2.72,0,0,0,3-3V35.93a5,5,0,0,1-4.44,2.63c-3.35,0-6.09-2.47-6.09-6.89v-.22c0-4.22,2.71-6.91,6.09-6.91A4.66,4.66,0,0,1,454.76,27v-2h4.91V38.07c0,4.28-2.82,6.53-7.95,6.53C446.83,44.6,444.58,42.54,444.2,39.27Zm10.7-7.62v-.2c0-2-1-3.23-2.83-3.23s-2.82,1.29-2.82,3.26v.22c0,2,1,3.24,2.8,3.24S454.9,33.68,454.9,31.65Z" fill="#fff"/><path d="M461.4,32.28v-.22c0-4.61,3.43-7.52,7.77-7.52,3.92,0,7.3,2.25,7.3,7.41v1.29h-10.1a2.86,2.86,0,0,0,3,3c1.62,0,2.3-.74,2.5-1.7h4.61c-.44,3.23-2.94,5.07-7.27,5.07C464.7,39.6,461.4,37,461.4,32.28Zm10.29-1.81c-.08-1.73-.93-2.69-2.52-2.69s-2.5,1-2.75,2.69Z" fill="#fff"/><path d="M478.83,34.66V28.27H477.1V24.92h1.73v-3h4.91v3h2.82v3.35h-2.82V34.2c0,1,.52,1.51,1.45,1.51a3.84,3.84,0,0,0,1.4-.25v3.73a10.07,10.07,0,0,1-2.72.41C480.64,39.6,478.83,38,478.83,34.66Z" fill="#fff"/><path d="M497.92,37.82l-5.73-12.9h5.32l3,7.66,2.75-7.66h4.69l-7.68,19.15h-4.69Z" fill="#fff"/><path d="M507.63,32.28v-.22c0-4.61,3.43-7.52,7.88-7.52s7.82,2.83,7.82,7.38v.22c0,4.66-3.43,7.46-7.85,7.46S507.63,36.91,507.63,32.28Zm10.7-.09V32c0-2.42-1-3.76-2.82-3.76s-2.86,1.29-2.86,3.7v.22c0,2.47,1,3.81,2.86,3.81S518.33,34.58,518.33,32.19Z" fill="#fff"/><path d="M525,34.28V24.92h4.91v8.56c0,1.62.63,2.42,2,2.42s2.44-.88,2.44-2.72V24.92h4.91V39.27h-4.91V37.05a4.72,4.72,0,0,1-4.55,2.55C527,39.6,525,37.9,525,34.28Z" fill="#fff"/><path d="M541.74,24.92h4.91v2.86a4.52,4.52,0,0,1,4.64-3.05v4.58c-3-.08-4.64.85-4.64,3.16v6.8h-4.91Z" fill="#fff"/><path d="M117.79,54.48h4.91v2.19a5,5,0,0,1,4.5-2.57,3.9,3.9,0,0,1,3.89,2.38,5.7,5.7,0,0,1,4.75-2.38c2.72,0,4.69,1.75,4.69,5.35v9.38h-4.91V60.27c0-1.45-.71-2.17-1.84-2.17a2.13,2.13,0,0,0-2.19,2.42v8.31h-4.86V60.27c0-1.45-.71-2.17-1.84-2.17a2.13,2.13,0,0,0-2.19,2.42v8.31h-4.91Z" fill="#fff"/><path d="M142.1,64.85c0-3.37,2.85-4.69,7.62-4.69h1.38v-.33c0-1.37-.33-2.28-1.9-2.28a1.77,1.77,0,0,0-1.95,1.7h-4.6c.22-3.45,2.93-5.15,6.85-5.15S156,55.71,156,59.53v9.3h-4.77V67.16a4.73,4.73,0,0,1-4.26,2C144.37,69.16,142.1,67.9,142.1,64.85Zm9-1v-.88h-1.29c-2,0-2.86.38-2.86,1.56,0,.83.55,1.35,1.7,1.35A2.17,2.17,0,0,0,151.1,63.81Z" fill="#fff"/><path d="M162,61.53l-4.47-7.05h5.65l2.22,3.79,2.17-3.79h5.05l-4.53,6.67,5,7.68h-5.65l-2.55-4.28-2.61,4.28h-5Z" fill="#fff"/><path d="M174.31,50.58A2.71,2.71,0,1,1,177,53.11,2.56,2.56,0,0,1,174.31,50.58Zm.24,3.9h4.91V68.83h-4.91Z" fill="#fff"/><path d="M182.1,54.48H187v2.19a5,5,0,0,1,4.5-2.57,3.92,3.92,0,0,1,3.9,2.38,5.67,5.67,0,0,1,4.74-2.38c2.72,0,4.69,1.75,4.69,5.35v9.38h-4.91V60.27c0-1.45-.71-2.17-1.84-2.17a2.13,2.13,0,0,0-2.19,2.42v8.31H191V60.27c0-1.45-.71-2.17-1.83-2.17a2.13,2.13,0,0,0-2.2,2.42v8.31H182.1Z" fill="#fff"/><path d="M207.12,63.84V54.48H212V63c0,1.62.63,2.41,2,2.41s2.44-.87,2.44-2.71V54.48h4.92V68.83H216.5V66.61A4.7,4.7,0,0,1,212,69.16C209.18,69.16,207.12,67.46,207.12,63.84Z" fill="#fff"/><path d="M223.91,54.48h4.91v2.19a5,5,0,0,1,4.5-2.57,3.91,3.91,0,0,1,3.9,2.38A5.68,5.68,0,0,1,242,54.1c2.71,0,4.69,1.75,4.69,5.35v9.38h-4.91V60.27c0-1.45-.72-2.17-1.84-2.17a2.13,2.13,0,0,0-2.2,2.42v8.31h-4.85V60.27c0-1.45-.72-2.17-1.84-2.17a2.13,2.13,0,0,0-2.2,2.42v8.31h-4.91Z" fill="#fff"/><path d="M254,54.48H259v2.85a4.51,4.51,0,0,1,4.64-3v4.58c-3-.08-4.64.85-4.64,3.16v6.8H254Z" fill="#fff"/><path d="M264.46,61.83v-.22c0-4.61,3.43-7.51,7.77-7.51,3.92,0,7.3,2.25,7.3,7.4v1.29h-10.1a2.86,2.86,0,0,0,3,3c1.62,0,2.31-.74,2.5-1.7h4.61c-.44,3.24-2.94,5.08-7.27,5.08C267.76,69.16,264.46,66.52,264.46,61.83ZM274.75,60c-.08-1.73-.93-2.69-2.52-2.69A2.72,2.72,0,0,0,269.49,60Z" fill="#fff"/><path d="M282,57.83h-1.81V54.48H282V53.22c0-3.57,2.22-5.27,5.62-5.27a9,9,0,0,1,2.25.3v3.6a4.41,4.41,0,0,0-1.34-.2,1.45,1.45,0,0,0-1.65,1.57v1.26h2.91v3.35h-2.91v11H282Z" fill="#fff"/><path d="M291.3,63.84V54.48h4.91V63c0,1.62.63,2.41,2,2.41s2.44-.87,2.44-2.71V54.48h4.91V68.83h-4.91V66.61a4.72,4.72,0,0,1-4.55,2.55C293.36,69.16,291.3,67.46,291.3,63.84Z" fill="#fff"/><path d="M308.09,54.48H313v2.31a5.05,5.05,0,0,1,4.72-2.69c2.77,0,4.69,1.73,4.69,5.4v9.33H317.5V60.49c0-1.62-.63-2.42-2.06-2.42S313,59,313,60.79v8h-4.91Z" fill="#fff"/><path d="M324.08,61.81v-.22c0-4.89,2.69-7.49,6.1-7.49a4.65,4.65,0,0,1,4.41,2.41V48.17h4.91V68.83h-4.91V66.5a4.83,4.83,0,0,1-4.47,2.66C326.8,69.16,324.08,66.77,324.08,61.81Zm10.65-.09V61.5c0-2.41-1-3.7-2.83-3.7s-2.82,1.24-2.82,3.73v.22c0,2.42,1.07,3.65,2.77,3.65S334.73,64.17,334.73,61.72Z" fill="#fff"/><path d="M341.81,66.36a2.73,2.73,0,0,1,2.8-2.77,2.77,2.77,0,1,1,0,5.54A2.73,2.73,0,0,1,341.81,66.36Z" fill="#fff"/></g></g></svg>