<svg xmlns="http://www.w3.org/2000/svg" viewBox="0 0 160 600"><title>Asset 4</title><g id="Layer_2" data-name="Layer 2"><g id="Rect"><rect width="160" height="600" fill="none"/></g><g id="Tired_of_TurboTax_Switch_to_Block_in_seconds." data-name="Tired of TurboTax? Switch to Block in seconds."><path d="M24.84,152.47H20.49v-3.72H34v3.72H29.68v13.08H24.84Z" fill="#fff"/><path d="M35.09,149.93a2.19,2.19,0,0,1,2.3-2.19,2.18,2.18,0,1,1,0,4.35A2.17,2.17,0,0,1,35.09,149.93Zm.21,3.34h4.2v12.28H35.3Z" fill="#fff"/><path d="M41.76,153.27H46v2.44a3.88,3.88,0,0,1,4-2.61V157c-2.56-.07-4,.73-4,2.71v5.82H41.76Z" fill="#fff"/><path d="M50.69,159.56v-.19c0-3.94,2.94-6.43,6.65-6.43,3.36,0,6.25,1.92,6.25,6.34v1.1H54.94A2.46,2.46,0,0,0,57.51,163c1.38,0,2-.64,2.13-1.46h4c-.37,2.77-2.51,4.35-6.23,4.35S50.69,163.58,50.69,159.56ZM59.5,158c-.07-1.48-.8-2.3-2.16-2.3A2.33,2.33,0,0,0,55,158Z" fill="#fff"/><path d="M64.44,159.54v-.19c0-4.18,2.3-6.41,5.22-6.41A4,4,0,0,1,73.44,155v-7.14h4.2v17.69h-4.2v-2a4.15,4.15,0,0,1-3.83,2.28C66.76,165.84,64.44,163.79,64.44,159.54Zm9.12-.07v-.19c0-2.07-.87-3.17-2.42-3.17s-2.42,1.06-2.42,3.19v.19c0,2.07.91,3.13,2.37,3.13S73.56,161.56,73.56,159.47Z" fill="#fff"/><path d="M83.4,159.56v-.19c0-3.94,2.94-6.43,6.75-6.43s6.69,2.42,6.69,6.32v.18c0,4-2.93,6.4-6.72,6.4S83.4,163.53,83.4,159.56Zm9.17-.07v-.19c0-2.06-.83-3.22-2.42-3.22s-2.45,1.11-2.45,3.18v.18c0,2.12.83,3.27,2.45,3.27S92.57,161.54,92.57,159.49Z" fill="#fff"/><path d="M99,156.13H97.41v-2.86H99v-1.09c0-3.05,1.9-4.51,4.82-4.51a7.49,7.49,0,0,1,1.92.26V151a3.94,3.94,0,0,0-1.15-.17,1.24,1.24,0,0,0-1.41,1.34v1.09h2.49v2.86h-2.49v9.42H99Z" fill="#fff"/><path d="M24.84,181H20.49v-3.72H34V181H29.68v13.08H24.84Z" fill="#fff"/><path d="M34.41,189.78v-8h4.2v7.33c0,1.38.54,2.06,1.74,2.06s2.09-.75,2.09-2.32v-7.07h4.21v12.28H42.44v-1.9a4,4,0,0,1-3.9,2.19C36.17,194.34,34.41,192.88,34.41,189.78Z" fill="#fff"/><path d="M48.79,181.77H53v2.44a3.89,3.89,0,0,1,4-2.61v3.92c-2.56-.07-4,.73-4,2.71v5.82h-4.2Z" fill="#fff"/><path d="M62.7,192.15v1.9H58.49V176.36H62.7v7.24a4.31,4.31,0,0,1,3.83-2.16c2.87,0,5.19,2.16,5.19,6.36V188c0,4.23-2.32,6.35-5.21,6.35A4,4,0,0,1,62.7,192.15ZM67.45,188v-.19c0-2.16-.94-3.19-2.42-3.19s-2.45,1.1-2.45,3.17V188c0,2.09.92,3.15,2.45,3.15S67.45,190,67.45,188Z" fill="#fff"/><path d="M72.59,188.06v-.19c0-3.94,2.94-6.43,6.75-6.43S86,183.86,86,187.76v.18c0,4-2.93,6.4-6.72,6.4S72.59,192,72.59,188.06Zm9.17-.07v-.19c0-2.06-.83-3.22-2.42-3.22s-2.45,1.11-2.45,3.18v.18c0,2.12.83,3.27,2.45,3.27S81.76,190,81.76,188Z" fill="#fff"/><path d="M91.11,181H86.76v-3.72H100.3V181H96v13.08H91.11Z" fill="#fff"/><path d="M99.45,190.65c0-2.89,2.45-4,6.54-4h1.17v-.28c0-1.18-.28-1.95-1.62-1.95a1.51,1.51,0,0,0-1.67,1.45h-4c.19-3,2.52-4.41,5.88-4.41s5.54,1.38,5.54,4.65v8h-4.09v-1.43a4,4,0,0,1-3.64,1.72C101.4,194.34,99.45,193.26,99.45,190.65Zm7.71-.9V189h-1.1c-1.7,0-2.45.33-2.45,1.34,0,.71.47,1.15,1.46,1.15C106.27,191.49,107.16,190.81,107.16,189.75Z" fill="#fff"/><path d="M116.49,187.8l-3.83-6h4.84l1.9,3.24,1.86-3.24h4.32l-3.87,5.71,4.25,6.57h-4.84l-2.19-3.66-2.23,3.66h-4.3Z" fill="#fff"/><path d="M129.7,188.09c0-1.79,1.22-2.92,2.3-4,.8-.78,1.53-1.48,1.53-2.3a1.26,1.26,0,0,0-1.44-1.41c-1,0-1.69.77-1.85,2.06h-4.09c.12-3.54,2.65-5.47,6.27-5.47s5.67,1.62,5.67,4.42a4.77,4.77,0,0,1-1.72,3.52c-1.15,1.15-2.49,2.07-2.7,3.22v.35h-4Zm-.54,3.9a2.52,2.52,0,1,1,2.53,2.32A2.44,2.44,0,0,1,129.16,192Z" fill="#fff"/><path d="M20.54,217.22h4.58c.12,1.2.66,2.19,2.66,2.19,1.38,0,2.16-.69,2.16-1.67s-.63-1.32-2.66-1.62c-4.74-.57-6.34-2-6.34-5.36,0-3,2.49-5.24,6.51-5.24s6.32,1.69,6.63,5.24H29.61A1.9,1.9,0,0,0,27.45,209c-1.29,0-1.95.59-1.95,1.43s.52,1.37,2.61,1.65c4.25.47,6.44,1.57,6.44,5.21,0,3.08-2.45,5.6-6.77,5.6C23.08,222.84,20.68,220.86,20.54,217.22Z" fill="#fff"/><path d="M34.9,210.27h4.39l1.79,7.35,2.07-7.35h3.38l1.83,7.35,2-7.35h4l-3.9,12.28h-4l-1.84-6.86-1.9,6.86H38.61Z" fill="#fff"/><path d="M55.34,206.93a2.32,2.32,0,1,1,2.31,2.16A2.2,2.2,0,0,1,55.34,206.93Zm.22,3.34h4.2v12.28h-4.2Z" fill="#fff"/><path d="M62.58,218.61v-5.48H61.1v-2.86h1.48V207.7h4.21v2.57h2.42v2.86H66.79v5.08c0,.89.44,1.29,1.24,1.29a3.21,3.21,0,0,0,1.2-.21v3.19a8.81,8.81,0,0,1-2.32.36C64.13,222.84,62.58,221.5,62.58,218.61Z" fill="#fff"/><path d="M70.15,216.56v-.19c0-4.08,2.94-6.43,6.55-6.43,3,0,5.79,1.31,6,5.05h-4a1.82,1.82,0,0,0-2-1.79c-1.48,0-2.35,1.06-2.35,3.13v.19c0,2.13.82,3.24,2.42,3.24a2.05,2.05,0,0,0,2.14-2h3.78c-.12,3.11-2.21,5.13-6.18,5.13C72.94,222.84,70.15,220.7,70.15,216.56Z" fill="#fff"/><path d="M84.15,204.86h4.21v7.38a4.34,4.34,0,0,1,4-2.3c2.38,0,4,1.48,4,4.62v8H92.21v-7.14c0-1.39-.54-2.07-1.76-2.07s-2.09.76-2.09,2.33v6.88H84.15Z" fill="#fff"/><path d="M103.31,218.61v-5.48h-1.48v-2.86h1.48V207.7h4.2v2.57h2.42v2.86h-2.42v5.08a1.12,1.12,0,0,0,1.25,1.29,3.25,3.25,0,0,0,1.2-.21v3.19a8.83,8.83,0,0,1-2.33.36C104.86,222.84,103.31,221.5,103.31,218.61Z" fill="#fff"/><path d="M110.87,216.56v-.19c0-3.94,2.94-6.43,6.75-6.43s6.69,2.42,6.69,6.32v.18c0,4-2.93,6.4-6.72,6.4S110.87,220.53,110.87,216.56Zm9.17-.07v-.19c0-2.06-.83-3.22-2.42-3.22s-2.45,1.11-2.45,3.18v.18c0,2.12.83,3.27,2.45,3.27S120,218.54,120,216.49Z" fill="#fff"/><path d="M21.62,234.25h7.5c4,0,5.66,1.79,5.66,4.4v.09a3.46,3.46,0,0,1-2.84,3.62,3.65,3.65,0,0,1,3.36,3.92v.1c0,3-1.95,4.67-6.11,4.67H21.62Zm6.53,6.68c1.51,0,2.07-.52,2.07-1.72v-.09c0-1.15-.61-1.67-2.07-1.67H26.32v3.48Zm.17,6.91c1.53,0,2.23-.71,2.23-2v-.09c0-1.27-.68-1.93-2.37-1.93H26.32v4Z" fill="#fff"/><path d="M37,233.36h4.18v17.69H37Z" fill="#fff"/><path d="M42.75,245.06v-.19c0-3.94,2.93-6.43,6.74-6.43s6.7,2.42,6.7,6.32v.18c0,4-2.94,6.4-6.72,6.4S42.75,249,42.75,245.06Zm9.16-.07v-.19c0-2.06-.82-3.22-2.42-3.22s-2.44,1.11-2.44,3.18v.18c0,2.12.82,3.27,2.44,3.27S51.91,247,51.91,245Z" fill="#fff"/><path d="M57,245.06v-.19c0-4.08,2.94-6.43,6.56-6.43,3,0,5.78,1.31,6,5.05H65.64a1.83,1.83,0,0,0-2-1.79c-1.48,0-2.35,1.06-2.35,3.13V245c0,2.13.82,3.24,2.42,3.24a2,2,0,0,0,2.14-2h3.78c-.11,3.11-2.2,5.13-6.18,5.13C59.81,251.34,57,249.2,57,245.06Z" fill="#fff"/><path d="M71,233.36h4.2v10.27l3.32-4.86h4.37l-4,5.52,4.35,6.76h-4.7l-3.32-5.38v5.38H71Z" fill="#fff"/><path d="M88.41,235.43a2.19,2.19,0,0,1,2.3-2.19,2.18,2.18,0,1,1,0,4.35A2.17,2.17,0,0,1,88.41,235.43Zm.21,3.34h4.21v12.28H88.62Z" fill="#fff"/><path d="M95.08,238.77h4.21v2a4.34,4.34,0,0,1,4-2.3c2.37,0,4,1.48,4,4.62v8h-4.21v-7.14c0-1.39-.54-2.07-1.76-2.07s-2.09.76-2.09,2.33v6.88H95.08Z" fill="#fff"/><path d="M20.42,278.65H24.3c.14.9.54,1.39,1.74,1.39,1,0,1.5-.4,1.5-1s-.58-.87-2.28-1.1c-3.29-.43-4.67-1.39-4.67-3.95,0-2.73,2.42-4,5.26-4,3,0,5.15,1,5.43,4H27.47a1.36,1.36,0,0,0-1.57-1.22c-.92,0-1.39.39-1.39,1s.57.82,2.07,1c3.41.42,5.05,1.32,5.05,3.95,0,2.91-2.16,4.23-5.57,4.23S20.52,281.38,20.42,278.65Z" fill="#fff"/><path d="M32.41,276.56v-.19c0-3.94,2.94-6.43,6.65-6.43,3.36,0,6.25,1.92,6.25,6.34v1.1H36.66A2.46,2.46,0,0,0,39.22,280c1.39,0,2-.64,2.14-1.46h4c-.38,2.77-2.52,4.35-6.23,4.35S32.41,280.58,32.41,276.56ZM41.22,275c-.07-1.48-.8-2.3-2.16-2.3a2.33,2.33,0,0,0-2.35,2.3Z" fill="#fff"/><path d="M46.11,276.56v-.19c0-4.08,2.94-6.43,6.55-6.43,3,0,5.78,1.31,6,5.05h-4a1.82,1.82,0,0,0-2-1.79c-1.48,0-2.35,1.06-2.35,3.13v.19c0,2.13.82,3.24,2.42,3.24A2.05,2.05,0,0,0,55,277.71h3.78c-.12,3.11-2.21,5.13-6.18,5.13C48.9,282.84,46.11,280.7,46.11,276.56Z" fill="#fff"/><path d="M59.46,276.56v-.19c0-3.94,2.93-6.43,6.74-6.43s6.7,2.42,6.7,6.32v.18c0,4-2.94,6.4-6.72,6.4S59.46,280.53,59.46,276.56Zm9.16-.07v-.19c0-2.06-.82-3.22-2.42-3.22s-2.44,1.11-2.44,3.18v.18c0,2.12.82,3.27,2.44,3.27S68.62,278.54,68.62,276.49Z" fill="#fff"/><path d="M74.38,270.27h4.2v2a4.34,4.34,0,0,1,4-2.3c2.37,0,4,1.48,4,4.62v8h-4.2v-7.14c0-1.39-.54-2.07-1.76-2.07s-2.1.76-2.1,2.33v6.88h-4.2Z" fill="#fff"/><path d="M88.08,276.54v-.19c0-4.18,2.3-6.41,5.21-6.41A4,4,0,0,1,97.08,272v-7.14h4.21v17.69H97.08v-2a4.15,4.15,0,0,1-3.83,2.28C90.41,282.84,88.08,280.79,88.08,276.54Zm9.12-.07v-.19c0-2.07-.87-3.17-2.42-3.17s-2.42,1.06-2.42,3.19v.19c0,2.07.91,3.13,2.37,3.13S97.2,278.56,97.2,276.47Z" fill="#fff"/><path d="M102.6,278.65h3.88c.14.9.54,1.39,1.74,1.39,1,0,1.5-.4,1.5-1s-.59-.87-2.28-1.1c-3.29-.43-4.67-1.39-4.67-3.95,0-2.73,2.42-4,5.26-4,3,0,5.15,1,5.43,4h-3.81a1.36,1.36,0,0,0-1.57-1.22c-.92,0-1.39.39-1.39,1s.56.82,2.07,1c3.41.42,5,1.32,5,3.95,0,2.91-2.16,4.23-5.57,4.23S102.7,281.38,102.6,278.65Z" fill="#fff"/><path d="M115,280.44a2.34,2.34,0,0,1,2.4-2.37,2.37,2.37,0,1,1,0,4.74A2.34,2.34,0,0,1,115,280.44Z" fill="#fff"/></g></g></svg>