<svg xmlns="http://www.w3.org/2000/svg" viewBox="0 0 1940 500"><title>Asset 4</title><rect width="1940" height="500" fill="none"/><path d="M564,78.74h58.77V97.53h-34.5v14.63h27.48v17.37H588.27V145h36.4v18.79H564Z" fill="#fff"/><path d="M629.55,146.54c0-14.63,12.37-20.34,33.07-20.34h6v-1.43c0-6-1.43-9.87-8.21-9.87-5.83,0-8,3.45-8.44,7.37h-20c1-15,12.73-22.36,29.74-22.36s28.07,7,28.07,23.55v40.32H669.05v-7.25c-3,4.52-8.45,8.68-18.44,8.68C639.43,165.21,629.55,159.74,629.55,146.54Zm39-4.52v-3.81H663c-8.57,0-12.37,1.67-12.37,6.78,0,3.57,2.38,5.83,7.37,5.83C664.05,150.82,668.57,147.37,668.57,142Z" fill="#fff"/><path d="M695.93,144h19.63c.71,4.52,2.74,7,8.8,7,5.24,0,7.62-2,7.62-5.12s-3-4.4-11.54-5.59c-16.66-2.14-23.67-7-23.67-20,0-13.8,12.25-20.46,26.64-20.46,15.35,0,26.05,5.24,27.48,20.1H731.62c-.83-4.16-3.09-6.18-8-6.18-4.64,0-7,2-7,4.88s2.86,4.16,10.47,5.11c17.25,2.14,25.58,6.66,25.58,20,0,14.75-10.95,21.41-28.2,21.41C706.76,165.21,696.41,157.84,695.93,144Z" fill="#fff"/><path d="M777.07,157.48l-24.87-55.9h23.08l12.85,33.18L800,101.58h20.35l-33.31,83H766.72Z" fill="#fff"/><path d="M844.4,133.33v-1c0-21.17,11.66-32.47,26.41-32.47,9.75,0,15.58,4.17,19.15,10.47V74.22h21.29v89.56H890V153.67c-3.09,6.43-10,11.54-19.39,11.54C856.18,165.21,844.4,154.86,844.4,133.33Zm46.16-.35V132c0-10.47-4.41-16.06-12.26-16.06s-12.25,5.35-12.25,16.18v.95c0,10.46,4.64,15.82,12,15.82C885.8,148.92,890.56,143.56,890.56,133Z" fill="#fff"/><path d="M918.75,133.45v-.95c0-20,14.87-32.59,34.14-32.59s33.91,12.25,33.91,32v1c0,20.22-14.87,32.35-34,32.35S918.75,153.56,918.75,133.45Zm46.4-.35v-.95c0-10.47-4.17-16.3-12.26-16.3s-12.37,5.59-12.37,16.06v1c0,10.7,4.17,16.53,12.37,16.53C960.86,149.39,965.15,143.44,965.15,133.1Z" fill="#fff"/><path d="M991,133.45v-.95c0-20,14.87-32.59,33.67-32.59,17,0,31.64,9.76,31.64,32.12v5.59h-43.78c.6,8.2,5.36,13,13,13,7,0,10-3.21,10.83-7.37h20c-1.9,14-12.73,22-31.52,22C1005.24,165.21,991,153.79,991,133.45Zm44.61-7.85c-.35-7.49-4-11.65-10.94-11.65-6.43,0-10.83,4.16-11.9,11.65Z" fill="#fff"/><path d="M1060.08,144h19.63c.71,4.52,2.73,7,8.8,7,5.24,0,7.61-2,7.61-5.12s-3-4.4-11.54-5.59c-16.65-2.14-23.67-7-23.67-20,0-13.8,12.26-20.46,26.65-20.46,15.34,0,26,5.24,27.48,20.1h-19.27c-.84-4.16-3.1-6.18-8-6.18-4.64,0-7,2-7,4.88s2.85,4.16,10.47,5.11c17.25,2.14,25.57,6.66,25.57,20,0,14.75-10.94,21.41-28.19,21.41C1070.91,165.21,1060.56,157.84,1060.08,144Z" fill="#fff"/><path d="M1144.9,84.69c0-6.31,5-11.06,11.66-11.06s11.77,4.75,11.77,11.06-5.11,10.94-11.77,10.94S1144.9,91,1144.9,84.69Zm1.07,16.89h21.29v62.2H1146Z" fill="#fff"/><path d="M1181.54,143.8V116.09h-7.49V101.58h7.49v-13h21.29v13h12.26v14.51h-12.26v25.69c0,4.52,2.26,6.54,6.31,6.54a16.34,16.34,0,0,0,6.07-1.07v16.18a45,45,0,0,1-11.78,1.78C1189.39,165.21,1181.54,158.43,1181.54,143.8Z" fill="#fff"/><path d="M1222.34,153.08a11.86,11.86,0,0,1,12.14-12c7.14,0,12.49,5.35,12.49,12s-5.35,12-12.49,12A11.86,11.86,0,0,1,1222.34,153.08Z" fill="#fff"/><path d="M1275,136.78h23.2c.6,6.07,3.33,11.07,13.44,11.07,7,0,11-3.45,11-8.45,0-5.23-3.21-6.66-13.44-8.21-24-2.85-32.12-10-32.12-27.11,0-15.35,12.61-26.53,33-26.53s32,8.56,33.54,26.53H1321c-.83-6.07-4.28-9.16-10.94-9.16s-9.88,3-9.88,7.25c0,4.76,2.62,6.9,13.21,8.33,21.53,2.38,32.59,8,32.59,26.4,0,15.58-12.37,28.31-34.26,28.31C1287.89,165.21,1275.76,155.22,1275,136.78Z" fill="#fff"/><path d="M1347.73,101.58H1370l9,37.23,10.47-37.23h17.13l9.27,37.23L1426,101.58h20.22l-19.75,62.2h-20.34l-9.28-34.73-9.63,34.73h-20.7Z" fill="#fff"/><path d="M1451.23,84.69c0-6.31,5-11.06,11.66-11.06s11.77,4.75,11.77,11.06-5.11,10.94-11.77,10.94S1451.23,91,1451.23,84.69Zm1.07,16.89h21.29v62.2H1452.3Z" fill="#fff"/><path d="M1487.87,143.8V116.09h-7.49V101.58h7.49v-13h21.29v13h12.26v14.51h-12.26v25.69c0,4.52,2.26,6.54,6.31,6.54a16.34,16.34,0,0,0,6.07-1.07v16.18a45,45,0,0,1-11.78,1.78C1495.72,165.21,1487.87,158.43,1487.87,143.8Z" fill="#fff"/><path d="M1526.18,133.45v-.95c0-20.69,14.87-32.59,33.19-32.59,15.22,0,29.26,6.66,30.45,25.57h-20c-.95-5.82-3.8-9-10-9-7.49,0-11.89,5.35-11.89,15.81v1c0,10.82,4.16,16.41,12.25,16.41,6,0,10.11-3.57,10.82-10.35h19.16c-.6,15.7-11.19,25.93-31.29,25.93C1540.33,165.21,1526.18,154.39,1526.18,133.45Z" fill="#fff"/><path d="M1597.08,74.22h21.29v37.35c3.33-6.42,10.11-11.66,20.46-11.66,12,0,20.34,7.5,20.34,23.43v40.44h-21.29V127.63c0-7-2.74-10.47-8.92-10.47s-10.59,3.8-10.59,11.77v34.85h-21.29Z" fill="#fff"/><path d="M565,275.1V247.38h-7.49V232.87H565v-13h21.3v13H598.5v14.51H586.25v25.69c0,4.52,2.26,6.55,6.3,6.55a16.1,16.1,0,0,0,6.07-1.08v16.18a44.83,44.83,0,0,1-11.78,1.79C572.8,296.51,565,289.73,565,275.1Z" fill="#fff"/><path d="M603.26,264.75v-.95c0-20,14.87-32.59,34.14-32.59s33.9,12.25,33.9,32v.95c0,20.22-14.87,32.36-34,32.36S603.26,284.85,603.26,264.75Zm46.39-.36v-.95c0-10.47-4.16-16.3-12.25-16.3S625,252.73,625,263.2v.95c0,10.71,4.16,16.54,12.37,16.54C645.37,280.69,649.65,274.74,649.65,264.39Z" fill="#fff"/><path d="M702.36,210H740.3c20.11,0,28.67,9,28.67,22.25v.47c0,9.52-4.88,15.82-14.39,18.32,10.47,1.78,17,8.09,17,19.86v.48c0,15.22-9.87,23.67-30.93,23.67h-38.3Zm33.07,33.78c7.61,0,10.46-2.61,10.46-8.68v-.47c0-5.83-3.09-8.45-10.46-8.45h-9.28v17.6Zm.83,35c7.73,0,11.3-3.57,11.3-9.87v-.47c0-6.43-3.45-9.76-12-9.76h-9.39v20.1Z" fill="#fff"/><path d="M780,205.51h21.17v89.57H780Z" fill="#fff"/><path d="M809.3,264.75v-.95c0-20,14.87-32.59,34.14-32.59s33.91,12.25,33.91,32v.95c0,20.22-14.87,32.36-34,32.36S809.3,284.85,809.3,264.75Zm46.4-.36v-.95c0-10.47-4.17-16.3-12.26-16.3s-12.37,5.59-12.37,16.06v.95c0,10.71,4.17,16.54,12.37,16.54C851.41,280.69,855.7,274.74,855.7,264.39Z" fill="#fff"/><path d="M881.51,264.75v-.95c0-20.7,14.87-32.59,33.19-32.59,15.23,0,29.27,6.66,30.46,25.57h-20c-.95-5.83-3.81-9-10-9-7.5,0-11.9,5.35-11.9,15.82v.95c0,10.82,4.17,16.41,12.26,16.41,5.94,0,10.11-3.56,10.82-10.34h19.15c-.59,15.7-11.18,25.93-31.28,25.93C895.67,296.51,881.51,285.68,881.51,264.75Z" fill="#fff"/><path d="M952.42,205.51h21.29v52l16.77-24.62h22.13l-20.34,27.95,22,34.26H990.48l-16.77-27.24v27.24H952.42Z" fill="#fff"/><path d="M1040.45,216c0-6.3,5-11.06,11.66-11.06s11.77,4.76,11.77,11.06-5.11,10.94-11.77,10.94S1040.45,222.29,1040.45,216Zm1.07,16.89h21.29v62.21h-21.29Z" fill="#fff"/><path d="M1074.23,232.87h21.3v10c3.33-6.42,10.11-11.65,20.46-11.65,12,0,20.34,7.49,20.34,23.43v40.44H1115V258.92c0-7-2.74-10.47-8.92-10.47s-10.59,3.81-10.59,11.78v34.85h-21.3Z" fill="#fff"/><path d="M1164.76,277.83c0-14.63,12.38-20.34,33.07-20.34h6v-1.42c0-5.95-1.43-9.88-8.21-9.88-5.82,0-8,3.45-8.44,7.38h-20c.95-15,12.73-22.36,29.74-22.36s28.08,7,28.08,23.55v40.32h-20.7v-7.26c-3,4.52-8.45,8.69-18.44,8.69C1174.64,296.51,1164.76,291,1164.76,277.83Zm39-4.52v-3.8h-5.59c-8.56,0-12.37,1.66-12.37,6.78,0,3.56,2.38,5.82,7.38,5.82C1199.26,282.11,1203.78,278.66,1203.78,273.31Z" fill="#fff"/><path d="M1231.15,275.33h19.62c.72,4.52,2.74,7,8.81,7,5.23,0,7.61-2,7.61-5.11s-3-4.4-11.54-5.59c-16.65-2.14-23.67-7-23.67-20,0-13.79,12.25-20.45,26.64-20.45,15.35,0,26.06,5.23,27.48,20.1h-19.27c-.83-4.17-3.09-6.19-8-6.19-4.64,0-7,2-7,4.88s2.86,4.16,10.47,5.11c17.25,2.14,25.58,6.66,25.58,20,0,14.74-11,21.41-28.19,21.41C1242,296.51,1231.62,289.13,1231.15,275.33Z" fill="#fff"/><path d="M1317,205.51h21.17v89.57H1317Z" fill="#fff"/><path d="M1349.16,216c0-6.3,5-11.06,11.65-11.06s11.78,4.76,11.78,11.06-5.11,10.94-11.78,10.94S1349.16,222.29,1349.16,216Zm1.07,16.89h21.29v62.21h-21.29Z" fill="#fff"/><path d="M1385.8,275.1V247.38h-7.5V232.87h7.5v-13h21.29v13h12.25v14.51h-12.25v25.69c0,4.52,2.26,6.55,6.31,6.55a16.08,16.08,0,0,0,6.06-1.08v16.18a44.74,44.74,0,0,1-11.77,1.79C1393.65,296.51,1385.8,289.73,1385.8,275.1Z" fill="#fff"/><path d="M1430.29,275.1V247.38h-7.5V232.87h7.5v-13h21.29v13h12.26v14.51h-12.26v25.69c0,4.52,2.26,6.55,6.31,6.55a16.14,16.14,0,0,0,6.07-1.08v16.18a44.9,44.9,0,0,1-11.78,1.79C1438.14,296.51,1430.29,289.73,1430.29,275.1Z" fill="#fff"/><path d="M1472.52,205.51h21.18v89.57h-21.18Z" fill="#fff"/><path d="M1501.79,264.75v-.95c0-20,14.87-32.59,33.66-32.59,17,0,31.64,9.75,31.64,32.11v5.59h-43.77c.59,8.21,5.35,13,13,13,7,0,10-3.22,10.83-7.38h20c-1.9,14-12.73,22-31.52,22C1516.06,296.51,1501.79,285.09,1501.79,264.75Zm44.6-7.85c-.35-7.5-4-11.66-10.94-11.66-6.42,0-10.83,4.16-11.9,11.66Z" fill="#fff"/><path d="M1592.55,277.83c0-14.63,12.37-20.34,33.07-20.34h6v-1.42c0-5.95-1.43-9.88-8.21-9.88-5.83,0-8,3.45-8.44,7.38h-20c1-15,12.73-22.36,29.74-22.36s28.08,7,28.08,23.55v40.32h-20.7v-7.26c-3,4.52-8.45,8.69-18.44,8.69C1602.43,296.51,1592.55,291,1592.55,277.83Zm39-4.52v-3.8H1626c-8.57,0-12.37,1.66-12.37,6.78,0,3.56,2.38,5.82,7.37,5.82C1627.05,282.11,1631.57,278.66,1631.57,273.31Z" fill="#fff"/><path d="M1658.93,275.33h19.63c.72,4.52,2.74,7,8.81,7,5.23,0,7.61-2,7.61-5.11s-3-4.4-11.54-5.59c-16.65-2.14-23.67-7-23.67-20,0-13.79,12.25-20.45,26.64-20.45,15.35,0,26,5.23,27.48,20.1h-19.27c-.83-4.17-3.09-6.19-8-6.19-4.64,0-7,2-7,4.88s2.86,4.16,10.47,5.11c17.25,2.14,25.58,6.66,25.58,20,0,14.74-11,21.41-28.2,21.41C1669.76,296.51,1659.41,289.13,1658.93,275.33Z" fill="#fff"/><path d="M565,406.39V378.68h-7.49V364.17H565v-13h21.3v13H598.5v14.51H586.25v25.69c0,4.52,2.26,6.54,6.3,6.54a16.3,16.3,0,0,0,6.07-1.07V426a44.89,44.89,0,0,1-11.78,1.78C572.8,427.8,565,421,565,406.39Z" fill="#fff"/><path d="M601.36,364.17H623.6l9,37.22,10.47-37.22h17.13l9.28,37.22,10.11-37.22h20.22l-19.74,62.2H659.76l-9.27-34.73-9.64,34.73h-20.7Z" fill="#fff"/><path d="M699.26,396v-1c0-20,14.87-32.59,34.14-32.59s33.91,12.25,33.91,32v.95c0,20.22-14.87,32.35-34,32.35S699.26,416.14,699.26,396Zm46.4-.36v-.95c0-10.46-4.17-16.29-12.26-16.29S721,384,721,394.5v.95c0,10.7,4.17,16.53,12.37,16.53C741.37,412,745.66,406,745.66,395.68Z" fill="#fff"/><path d="M793.13,396v-1c0-20.7,14.87-32.59,33.18-32.59,15.23,0,29.27,6.66,30.46,25.57h-20c-.95-5.83-3.8-9-10-9-7.49,0-11.9,5.36-11.9,15.82v.95c0,10.83,4.17,16.42,12.26,16.42,6,0,10.11-3.57,10.82-10.35h19.15c-.59,15.7-11.18,25.93-31.28,25.93C807.28,427.8,793.13,417,793.13,396Z" fill="#fff"/><path d="M864.62,336.81H885.8v89.56H864.62Z" fill="#fff"/><path d="M896.74,347.28c0-6.31,5-11.07,11.66-11.07s11.78,4.76,11.78,11.07-5.12,10.94-11.78,10.94S896.74,353.58,896.74,347.28Zm1.07,16.89h21.3v62.2h-21.3Z" fill="#fff"/><path d="M927.2,396v-1c0-20.7,14.87-32.59,33.19-32.59,15.22,0,29.26,6.66,30.45,25.57h-20c-1-5.83-3.8-9-10-9-7.49,0-11.89,5.36-11.89,15.82v.95c0,10.83,4.16,16.42,12.25,16.42,5.95,0,10.11-3.57,10.82-10.35H991.2c-.6,15.7-11.19,25.93-31.29,25.93C941.35,427.8,927.2,417,927.2,396Z" fill="#fff"/><path d="M998.1,336.81h21.29v52l16.78-24.62h22.12L1038,392.12l22,34.25h-23.79l-16.78-27.24v27.24H998.1Z" fill="#fff"/><path d="M1059.25,406.63h19.63c.71,4.52,2.73,7,8.8,7,5.23,0,7.61-2,7.61-5.12s-3-4.4-11.54-5.59c-16.65-2.14-23.67-7-23.67-20,0-13.8,12.25-20.46,26.65-20.46,15.34,0,26,5.23,27.48,20.1h-19.27c-.84-4.16-3.1-6.18-8-6.18-4.64,0-7,2-7,4.87s2.85,4.17,10.47,5.12c17.24,2.14,25.57,6.66,25.57,20,0,14.75-10.94,21.41-28.19,21.41C1070.07,427.8,1059.72,420.42,1059.25,406.63Z" fill="#fff"/><path d="M1122.06,415.67a11.87,11.87,0,0,1,12.14-12c7.13,0,12.49,5.36,12.49,12s-5.36,12-12.49,12A11.86,11.86,0,0,1,1122.06,415.67Z" fill="#fff"/></svg>