<svg xmlns="http://www.w3.org/2000/svg" viewBox="0 0 160 600"><title>legal</title><g id="Layer_2" data-name="Layer 2"><g id="Rect"><rect width="160" height="600" fill="none"/></g><g id="Disclaimer"><path d="M20.71,397.81v-.07a3.16,3.16,0,1,1,6.31,0v.07a3.11,3.11,0,0,1-3.12,3.28A3.14,3.14,0,0,1,20.71,397.81Zm5.5,0v-.07a2.36,2.36,0,1,0-4.69,0v.07a2.42,2.42,0,0,0,2.38,2.62A2.34,2.34,0,0,0,26.21,397.78Z" fill="#fff"/><path d="M28.14,396.28h.74v.79a1.94,1.94,0,0,1,1.6-.87,2.14,2.14,0,0,1,2.14,2.36v.08a2.18,2.18,0,0,1-2.14,2.43,1.79,1.79,0,0,1-1.6-.86v2.41h-.74Zm3.71,2.39v-.07c0-1.19-.66-1.78-1.45-1.78s-1.54.57-1.54,1.78v.07c0,1.21.63,1.78,1.55,1.78S31.85,399.82,31.85,398.67Z" fill="#fff"/><path d="M33.81,399.81v-2.9h-.68v-.63h.68v-1.07h.74v1.07h1.1v.63h-1.1v2.83c0,.45.21.68.59.68a1.67,1.67,0,0,0,.58-.1V401a1.94,1.94,0,0,1-.64.1A1.14,1.14,0,0,1,33.81,399.81Z" fill="#fff"/><path d="M36.59,394.8a.49.49,0,0,1,.49-.49.5.5,0,0,1,.5.49.51.51,0,0,1-.5.5A.5.5,0,0,1,36.59,394.8Zm.13,1.48h.75V401h-.75Z" fill="#fff"/><path d="M38.51,398.67v-.07a2.32,2.32,0,1,1,4.63,0v.07a2.32,2.32,0,1,1-4.63,0Zm3.86,0v-.06c0-1.09-.61-1.79-1.54-1.79s-1.54.7-1.54,1.78v.07c0,1.07.58,1.78,1.54,1.78A1.57,1.57,0,0,0,42.37,398.67Z" fill="#fff"/><path d="M44.17,396.28h.74V397a1.61,1.61,0,0,1,1.52-.83c1,0,1.65.53,1.65,1.9V401h-.74V398c0-.83-.36-1.2-1.11-1.2a1.25,1.25,0,0,0-1.32,1.29V401h-.74Z" fill="#fff"/><path d="M49,399.68c0-1.09,1.15-1.46,2.35-1.46h.68v-.34c0-.75-.29-1.06-1-1.06s-1,.27-1.08.84h-.75a1.65,1.65,0,0,1,1.87-1.46,1.52,1.52,0,0,1,1.72,1.68V401h-.75v-.6a1.7,1.7,0,0,1-1.47.68C49.72,401.07,49,400.64,49,399.68Zm3-.34v-.59h-.65c-.94,0-1.64.24-1.64.93,0,.49.24.79.89.79C51.46,400.47,52.06,400.07,52.06,399.34Z" fill="#fff"/><path d="M54.16,394h.75v7h-.75Z" fill="#fff"/><path d="M58.58,394h.75v7h-.75Z" fill="#fff"/><path d="M60.38,398.67v-.07a2.31,2.31,0,1,1,4.62,0v.07a2.31,2.31,0,1,1-4.62,0Zm3.85,0v-.06c0-1.09-.6-1.79-1.54-1.79s-1.54.7-1.54,1.78v.07c0,1.07.58,1.78,1.54,1.78A1.57,1.57,0,0,0,64.23,398.67Z" fill="#fff"/><path d="M65.64,399.68c0-1.09,1.15-1.46,2.36-1.46h.67v-.34c0-.75-.28-1.06-1-1.06s-1,.27-1.08.84h-.75a1.64,1.64,0,0,1,1.86-1.46,1.52,1.52,0,0,1,1.72,1.68V401h-.75v-.6a1.69,1.69,0,0,1-1.46.68C66.33,401.07,65.64,400.64,65.64,399.68Zm3-.34v-.59H68c-1,0-1.64.24-1.64.93,0,.49.23.79.89.79S68.67,400.07,68.67,399.34Z" fill="#fff"/><path d="M70.75,396.28h.75V397A1.61,1.61,0,0,1,73,396.2c1,0,1.66.53,1.66,1.9V401h-.75V398c0-.83-.35-1.2-1.11-1.2a1.24,1.24,0,0,0-1.31,1.29V401h-.75Z" fill="#fff"/><path d="M78.41,396.91h-.67v-.63h.67v-.77c0-.95.47-1.51,1.41-1.51a1.55,1.55,0,0,1,.55.09v.63a1.51,1.51,0,0,0-.53-.1c-.48,0-.68.33-.68.81v.85h1.15v.63H79.16V401h-.75Z" fill="#fff"/><path d="M81.23,396.28H82v.84a1.62,1.62,0,0,1,1.54-.92v.7c-.94,0-1.54.34-1.54,1.5V401h-.75Z" fill="#fff"/><path d="M84,398.67v-.07a2.32,2.32,0,1,1,4.63,0v.07a2.32,2.32,0,1,1-4.63,0Zm3.85,0v-.06c0-1.09-.6-1.79-1.54-1.79s-1.53.7-1.53,1.78v.07c0,1.07.58,1.78,1.53,1.78S87.84,399.74,87.84,398.67Z" fill="#fff"/><path d="M89.64,396.28h.75V397a1.54,1.54,0,0,1,1.4-.8,1.36,1.36,0,0,1,1.38.88,1.83,1.83,0,0,1,1.61-.88c.85,0,1.59.5,1.59,1.87V401h-.75v-3c0-.83-.35-1.18-1-1.18a1.21,1.21,0,0,0-1.24,1.27V401h-.75v-3c0-.83-.35-1.18-1-1.18a1.21,1.21,0,0,0-1.24,1.27V401h-.75Z" fill="#fff"/><path d="M101.73,394.55h1l2.18,6.44h-.78l-.63-1.86h-2.66l-.62,1.86h-.73Zm-.64,4h2.23l-1.11-3.31Z" fill="#fff"/><path d="M107.06,398.56l-1.58-2.28h.88l1.15,1.71,1.14-1.71h.81l-1.56,2.23,1.72,2.48h-.88l-1.27-1.9-1.29,1.9h-.81Z" fill="#fff"/><path d="M109.92,398.67v-.07a2.32,2.32,0,1,1,4.63,0v.07a2.32,2.32,0,1,1-4.63,0Zm3.85,0v-.06c0-1.09-.6-1.79-1.54-1.79a1.56,1.56,0,0,0-1.54,1.78v.07c0,1.07.59,1.78,1.54,1.78S113.77,399.74,113.77,398.67Z" fill="#fff"/><path d="M115.18,399.54h.73c.06.55.35.91,1.11.91s1-.25,1-.75-.37-.66-1.1-.79c-1.23-.23-1.64-.57-1.64-1.39a1.47,1.47,0,0,1,1.59-1.32,1.51,1.51,0,0,1,1.71,1.36h-.72c-.11-.52-.4-.74-1-.74s-.9.27-.9.67.24.6,1.1.75,1.66.4,1.66,1.4-.59,1.43-1.73,1.43S115.23,400.5,115.18,399.54Z" fill="#fff"/><path d="M21,403.55H23c1.2,0,2.07.4,2.07,1.66v0a1.31,1.31,0,0,1-1,1.36,1.41,1.41,0,0,1,1.29,1.54v0c0,1.21-.83,1.8-2.12,1.8H21ZM23,406.36c.95,0,1.31-.34,1.31-1.14v0c0-.73-.42-1-1.32-1H21.79v2.2Zm.26,3c.93,0,1.36-.41,1.36-1.19v0c0-.79-.44-1.17-1.47-1.17H21.79v2.4Z" fill="#fff"/><path d="M26.05,408.68c0-1.09,1.15-1.46,2.36-1.46h.67v-.34c0-.75-.28-1.06-1-1.06s-1,.27-1.08.84h-.74a1.64,1.64,0,0,1,1.86-1.46,1.52,1.52,0,0,1,1.72,1.68V410h-.75v-.6a1.69,1.69,0,0,1-1.46.68C26.74,410.07,26.05,409.64,26.05,408.68Zm3-.34v-.59h-.64c-1,0-1.64.24-1.64.93,0,.49.23.79.89.79S29.08,409.07,29.08,408.34Z" fill="#fff"/><path d="M31.16,405.28h.75V406a1.6,1.6,0,0,1,1.51-.83c1,0,1.66.53,1.66,1.9V410h-.75V407c0-.83-.35-1.2-1.11-1.2a1.24,1.24,0,0,0-1.31,1.29V410h-.75Z" fill="#fff"/><path d="M36.41,403h.75v4.42l2-2.17H40l-2,2.19L40.15,410h-.91l-2.08-2.44V410h-.75Z" fill="#fff"/><path d="M42.66,405.28h.81l1.1,3.79,1.14-3.79h.65l1.07,3.79,1.11-3.79h.77L47.84,410H47l-1-3.53L44.93,410h-.82Z" fill="#fff"/><path d="M50.06,403.8a.5.5,0,0,1,.5-.49.49.49,0,0,1,.49.49.5.5,0,0,1-.49.5A.51.51,0,0,1,50.06,403.8Zm.14,1.48h.74V410H50.2Z" fill="#fff"/><path d="M52.5,408.81v-2.9h-.68v-.63h.68v-1.07h.75v1.07h1.1v.63h-1.1v2.83c0,.45.2.68.58.68a1.59,1.59,0,0,0,.58-.1V410a1.85,1.85,0,0,1-.64.1A1.14,1.14,0,0,1,52.5,408.81Z" fill="#fff"/><path d="M55.4,403h.75v3a1.59,1.59,0,0,1,1.51-.83c1,0,1.65.53,1.65,1.9V410h-.74V407c0-.83-.35-1.2-1.11-1.2a1.24,1.24,0,0,0-1.31,1.29V410H55.4Z" fill="#fff"/><path d="M60.53,403.8a.49.49,0,0,1,.49-.49.5.5,0,0,1,.5.49.51.51,0,0,1-.5.5A.5.5,0,0,1,60.53,403.8Zm.13,1.48h.75V410h-.75Z" fill="#fff"/><path d="M62.8,405.28h.75V406a1.61,1.61,0,0,1,1.51-.83c1,0,1.66.53,1.66,1.9V410H66V407c0-.83-.35-1.2-1.1-1.2a1.25,1.25,0,0,0-1.32,1.29V410H62.8Z" fill="#fff"/><path d="M70.3,405.28h.75V406a1.54,1.54,0,0,1,1.4-.8,1.36,1.36,0,0,1,1.38.88,1.82,1.82,0,0,1,1.61-.88c.85,0,1.59.5,1.59,1.87V410h-.75v-3c0-.83-.35-1.18-1-1.18A1.21,1.21,0,0,0,74,407.11V410h-.75v-3c0-.83-.35-1.18-1-1.18a1.21,1.21,0,0,0-1.24,1.27V410H70.3Z" fill="#fff"/><path d="M78.24,403.8a.49.49,0,0,1,.49-.49.5.5,0,0,1,.5.49.51.51,0,0,1-.5.5A.5.5,0,0,1,78.24,403.8Zm.13,1.48h.75V410h-.75Z" fill="#fff"/><path d="M80.52,405.28h.74V406a1.61,1.61,0,0,1,1.52-.83c1,0,1.65.53,1.65,1.9V410h-.74V407c0-.83-.36-1.2-1.11-1.2a1.25,1.25,0,0,0-1.32,1.29V410h-.74Z" fill="#fff"/><path d="M85.72,408.26v-3h.75v2.94c0,.83.35,1.2,1.09,1.2a1.24,1.24,0,0,0,1.29-1.29v-2.85h.75V410h-.75v-.75a1.6,1.6,0,0,1-1.49.83C86.42,410.07,85.72,409.55,85.72,408.26Z" fill="#fff"/><path d="M91.14,408.81v-2.9h-.68v-.63h.68v-1.07h.74v1.07H93v.63h-1.1v2.83c0,.45.21.68.59.68a1.67,1.67,0,0,0,.58-.1V410a1.94,1.94,0,0,1-.64.1A1.14,1.14,0,0,1,91.14,408.81Z" fill="#fff"/><path d="M93.68,407.68v-.07a2.22,2.22,0,0,1,2.21-2.41A2.05,2.05,0,0,1,98,407.54v.24H94.46c0,1.07.55,1.67,1.51,1.67.73,0,1.15-.27,1.25-.82H98a1.82,1.82,0,0,1-2,1.44A2.22,2.22,0,0,1,93.68,407.68Zm3.56-.5c-.07-1-.58-1.36-1.35-1.36a1.41,1.41,0,0,0-1.41,1.36Z" fill="#fff"/><path d="M98.67,408.54h.73c0,.55.35.91,1.11.91s1-.25,1-.75-.37-.66-1.1-.79c-1.22-.23-1.63-.57-1.63-1.39a1.46,1.46,0,0,1,1.59-1.32,1.51,1.51,0,0,1,1.7,1.36h-.72c-.11-.52-.4-.74-1-.74s-.89.27-.89.67.23.6,1.1.75,1.65.4,1.65,1.4-.58,1.43-1.72,1.43S98.71,409.5,98.67,408.54Z" fill="#fff"/><path d="M105.14,407.67v-.07a2.32,2.32,0,1,1,4.63,0v.07a2.32,2.32,0,1,1-4.63,0Zm3.85,0v-.06c0-1.09-.6-1.79-1.54-1.79a1.56,1.56,0,0,0-1.54,1.78v.07c0,1.07.59,1.78,1.54,1.78S109,408.74,109,407.67Z" fill="#fff"/><path d="M111,405.91h-.67v-.63H111v-.77c0-.95.47-1.51,1.41-1.51a1.6,1.6,0,0,1,.56.09v.63a1.61,1.61,0,0,0-.53-.1c-.49,0-.69.33-.69.81v.85h1.15v.63H111.7V410H111Z" fill="#fff"/><path d="M116.18,405.91h-.67v-.63h.67v-.77c0-.95.47-1.51,1.41-1.51a1.6,1.6,0,0,1,.56.09v.63a1.62,1.62,0,0,0-.54-.1c-.48,0-.68.33-.68.81v.85h1.15v.63h-1.15V410h-.75Z" fill="#fff"/><path d="M118.88,403.8a.5.5,0,0,1,.5-.49.49.49,0,0,1,.49.49.5.5,0,0,1-.49.5A.51.51,0,0,1,118.88,403.8Zm.14,1.48h.75V410H119Z" fill="#fff"/><path d="M121.18,403h.75v7h-.75Z" fill="#fff"/><path d="M123.21,403.8a.5.5,0,0,1,.5-.49.49.49,0,0,1,.49.49.5.5,0,0,1-.49.5A.51.51,0,0,1,123.21,403.8Zm.14,1.48h.74V410h-.74Z" fill="#fff"/><path d="M125.49,405.28h.75V406a1.59,1.59,0,0,1,1.51-.83c1,0,1.65.53,1.65,1.9V410h-.74V407c0-.83-.35-1.2-1.11-1.2a1.24,1.24,0,0,0-1.31,1.29V410h-.75Z" fill="#fff"/><path d="M130.48,410.26h.77c.11.54.56.82,1.36.82a1.33,1.33,0,0,0,1.51-1.45v-.69a2,2,0,0,1-1.59.89,2.12,2.12,0,0,1-2.15-2.23v-.06a2.23,2.23,0,0,1,2.2-2.34,1.7,1.7,0,0,1,1.54.83v-.75h.75v4.39a2,2,0,0,1-2.25,2C131.22,411.71,130.61,411.05,130.48,410.26Zm3.67-2.71v-.07a1.46,1.46,0,0,0-1.5-1.66,1.49,1.49,0,0,0-1.49,1.68v.07a1.49,1.49,0,0,0,1.45,1.64A1.51,1.51,0,0,0,134.15,407.55Z" fill="#fff"/><path d="M136.18,409.46a.58.58,0,1,1,.58.57A.57.57,0,0,1,136.18,409.46Z" fill="#fff"/><path d="M21,412.55h1l3.13,5.32v-5.32h.74V419H25l-3.25-5.52V419H21Z" fill="#fff"/><path d="M27,416.67v-.07a2.32,2.32,0,1,1,4.63,0v.07a2.32,2.32,0,1,1-4.63,0Zm3.86,0v-.06c0-1.09-.61-1.79-1.54-1.79s-1.54.7-1.54,1.78v.07c0,1.07.58,1.78,1.54,1.78A1.57,1.57,0,0,0,30.86,416.67Z" fill="#fff"/><path d="M32.82,417.81v-2.9h-.68v-.63h.68v-1.07h.74v1.07h1.1v.63h-1.1v2.83c0,.45.21.68.59.68a1.67,1.67,0,0,0,.58-.1V419a1.94,1.94,0,0,1-.64.1A1.14,1.14,0,0,1,32.82,417.81Z" fill="#fff"/><path d="M39.28,418.5l-1.85-4.22h.81l1.44,3.37,1.3-3.37h.77l-2.61,6.34h-.75Z" fill="#fff"/><path d="M42.11,416.67v-.07a2.31,2.31,0,1,1,4.62,0v.07a2.31,2.31,0,1,1-4.62,0Zm3.85,0v-.06c0-1.09-.6-1.79-1.54-1.79s-1.54.7-1.54,1.78v.07c0,1.07.58,1.78,1.54,1.78A1.57,1.57,0,0,0,46,416.67Z" fill="#fff"/><path d="M47.71,417.26v-3h.75v2.94c0,.83.35,1.2,1.09,1.2a1.24,1.24,0,0,0,1.3-1.29v-2.85h.74V419h-.74v-.75a1.62,1.62,0,0,1-1.5.83C48.41,419.07,47.71,418.55,47.71,417.26Z" fill="#fff"/><path d="M53,414.28h.75v.84a1.62,1.62,0,0,1,1.54-.92v.7c-.94,0-1.54.34-1.54,1.5V419H53Z" fill="#fff"/><path d="M58.63,417.81v-2.9H58v-.63h.68v-1.07h.75v1.07h1.09v.63H59.38v2.83c0,.45.2.68.58.68a1.59,1.59,0,0,0,.58-.1V419a1.94,1.94,0,0,1-.64.1A1.14,1.14,0,0,1,58.63,417.81Z" fill="#fff"/><path d="M61.18,417.68c0-1.09,1.16-1.46,2.36-1.46h.68v-.34c0-.75-.29-1.06-1-1.06s-1,.27-1.08.84h-.75a1.65,1.65,0,0,1,1.87-1.46A1.52,1.52,0,0,1,65,415.88V419h-.75v-.6a1.71,1.71,0,0,1-1.47.68C61.88,419.07,61.18,418.64,61.18,417.68Zm3-.34v-.59h-.65c-.94,0-1.64.24-1.64.93,0,.49.24.79.89.79S64.22,418.07,64.22,417.34Z" fill="#fff"/><path d="M67.48,416.56l-1.58-2.28h.87L67.93,416l1.14-1.71h.81l-1.56,2.23L70,419h-.88l-1.27-1.9-1.3,1.9h-.8Z" fill="#fff"/><path d="M73.16,414.28h.75v.84a1.63,1.63,0,0,1,1.55-.92v.7c-.95,0-1.55.34-1.55,1.5V419h-.75Z" fill="#fff"/><path d="M75.93,416.68v-.07a2.21,2.21,0,0,1,2.2-2.41,2.06,2.06,0,0,1,2.12,2.34v.24H76.7c0,1.07.55,1.67,1.51,1.67.73,0,1.16-.27,1.25-.82h.75a1.81,1.81,0,0,1-2,1.44A2.21,2.21,0,0,1,75.93,416.68Zm3.55-.5c-.07-1-.57-1.36-1.35-1.36a1.41,1.41,0,0,0-1.4,1.36Z" fill="#fff"/><path d="M81.42,414.91h-.68v-.63h.68v-.77c0-.95.47-1.51,1.4-1.51a1.6,1.6,0,0,1,.56.09v.63a1.56,1.56,0,0,0-.53-.1c-.49,0-.69.33-.69.81v.85h1.16v.63H82.16V419h-.74Z" fill="#fff"/><path d="M84.19,417.26v-3h.75v2.94c0,.83.35,1.2,1.08,1.2a1.24,1.24,0,0,0,1.3-1.29v-2.85h.75V419h-.75v-.75a1.6,1.6,0,0,1-1.49.83C84.89,419.07,84.19,418.55,84.19,417.26Z" fill="#fff"/><path d="M89.44,414.28h.75V415a1.61,1.61,0,0,1,1.51-.83c1,0,1.66.53,1.66,1.9V419h-.75V416c0-.83-.35-1.2-1.1-1.2a1.25,1.25,0,0,0-1.32,1.29V419h-.75Z" fill="#fff"/><path d="M94.34,416.73v-.08a2.23,2.23,0,0,1,2.2-2.45,1.7,1.7,0,0,1,1.54.83v-3h.74v7h-.74v-.81a2,2,0,0,1-1.61.89A2.11,2.11,0,0,1,94.34,416.73Zm3.76-.07v-.07c0-1.21-.57-1.77-1.49-1.77s-1.5.66-1.5,1.8v.07c0,1.19.64,1.76,1.44,1.76S98.1,417.87,98.1,416.66Z" fill="#fff"/><path d="M100.14,418.46a.58.58,0,1,1,.57.57A.57.57,0,0,1,100.14,418.46Z" fill="#fff"/></g></g></svg>