<svg xmlns="http://www.w3.org/2000/svg" viewBox="0 0 300 600"><title>H42</title><g id="Layer_2" data-name="Layer 2"><g id="Rect"><rect width="300" height="600" fill="none"/></g><g id="H42"><g id="Tax_pros_standing_by_with_answers_advice_and_fast-typing_finge" data-name="Tax pros standing by with answers, advice and fast-typing finge"><path d="M29.22,79.53H20V71.69H48.61v7.84H39.44v27.63H29.22Z" fill="#fff"/><path d="M46.83,100c0-6.1,5.16-8.48,13.79-8.48H63.1v-.59c0-2.48-.6-4.12-3.43-4.12a3.19,3.19,0,0,0-3.52,3.07H47.82c.4-6.25,5.31-9.32,12.4-9.32s11.71,2.93,11.71,9.82v16.82H63.3v-3c-1.24,1.89-3.53,3.62-7.69,3.62C50.94,107.75,46.83,105.47,46.83,100ZM63.1,98.08V96.49H60.77c-3.58,0-5.16.7-5.16,2.83,0,1.49,1,2.43,3.07,2.43C61.21,101.75,63.1,100.31,63.1,98.08Z" fill="#fff"/><path d="M82.79,94,74.7,81.21H84.92l4,6.85,3.92-6.85H102L93.8,93.27l9,13.89H92.56L88,99.42l-4.72,7.74H74.16Z" fill="#fff"/><path d="M114.28,81.21h8.88v3.87a9.16,9.16,0,0,1,8.09-4.56c6.05,0,11,4.56,11,13.44v.4c0,8.93-4.91,13.39-11,13.39-3.92,0-6.75-1.83-8-4.41v12.5h-8.88Zm18.9,13.15V94c0-4.56-2-6.74-5.11-6.74s-5.16,2.33-5.16,6.69v.4c0,4.41,1.94,6.65,5.16,6.65S133.18,98.62,133.18,94.36Z" fill="#fff"/><path d="M145.43,81.21h8.88v5.16c1.64-3.87,4.36-5.55,8.38-5.5v8.28c-5.4-.15-8.38,1.54-8.38,5.7v12.31h-8.88Z" fill="#fff"/><path d="M164.28,94.51v-.4c0-8.33,6.2-13.59,14.23-13.59s14.14,5.11,14.14,13.34v.4c0,8.43-6.2,13.49-14.19,13.49S164.28,102.89,164.28,94.51Zm19.34-.15V94c0-4.36-1.73-6.79-5.11-6.79s-5.15,2.33-5.15,6.69v.4c0,4.46,1.73,6.89,5.15,6.89S183.62,98.67,183.62,94.36Z" fill="#fff"/><path d="M194.19,98.92h8.18c.3,1.89,1.14,2.93,3.67,2.93,2.18,0,3.18-.84,3.18-2.13s-1.24-1.84-4.82-2.34c-6.94-.89-9.87-2.92-9.87-8.33,0-5.75,5.11-8.53,11.11-8.53,6.4,0,10.87,2.18,11.46,8.38h-8c-.35-1.73-1.29-2.58-3.33-2.58s-2.92.85-2.92,2,1.19,1.73,4.36,2.13c7.2.89,10.67,2.78,10.67,8.33,0,6.15-4.57,8.93-11.76,8.93C198.7,107.75,194.38,104.68,194.19,98.92Z" fill="#fff"/><path d="M19.89,148.52h8.19c.3,1.89,1.14,2.93,3.67,2.93,2.18,0,3.17-.84,3.17-2.13s-1.24-1.84-4.81-2.34c-6.94-.89-9.87-2.92-9.87-8.33,0-5.75,5.11-8.53,11.11-8.53,6.4,0,10.87,2.18,11.46,8.38h-8c-.34-1.73-1.29-2.58-3.32-2.58s-2.93.85-2.93,2,1.19,1.73,4.37,2.13c7.19.89,10.67,2.78,10.67,8.33,0,6.15-4.57,8.93-11.76,8.93C24.41,157.35,20.09,154.28,19.89,148.52Z" fill="#fff"/><path d="M47.62,148.42V136.86H44.49v-6.05h3.13v-5.4H56.5v5.4h5.11v6.05H56.5v10.72c0,1.88.94,2.73,2.63,2.73a6.75,6.75,0,0,0,2.53-.45v6.75a18.57,18.57,0,0,1-4.91.74C50.89,157.35,47.62,154.52,47.62,148.42Z" fill="#fff"/><path d="M63.59,149.56c0-6.1,5.16-8.48,13.79-8.48h2.48v-.59c0-2.48-.59-4.12-3.42-4.12a3.18,3.18,0,0,0-3.52,3.07H64.58c.4-6.25,5.31-9.32,12.4-9.32s11.71,2.92,11.71,9.82v16.82H80.06v-3c-1.24,1.89-3.52,3.62-7.69,3.62C67.71,157.35,63.59,155.07,63.59,149.56Zm16.27-1.88v-1.59H77.53c-3.57,0-5.16.7-5.16,2.83,0,1.49,1,2.43,3.08,2.43C78,151.35,79.86,149.91,79.86,147.68Z" fill="#fff"/><path d="M93,130.81h8.88V135a9.16,9.16,0,0,1,8.53-4.86c5,0,8.49,3.12,8.49,9.77v16.87H110V141.68c0-2.93-1.14-4.37-3.72-4.37s-4.42,1.59-4.42,4.91v14.54H93Z" fill="#fff"/><path d="M121.92,144.06v-.4c0-8.83,4.86-13.54,11-13.54,4.07,0,6.5,1.73,8,4.36V119.4h8.88v37.36h-8.88v-4.22a8.74,8.74,0,0,1-8.09,4.81C126.83,157.35,121.92,153,121.92,144.06Zm19.25-.15v-.4c0-4.36-1.84-6.69-5.11-6.69s-5.11,2.23-5.11,6.74v.4c0,4.36,1.93,6.6,5,6.6S141.17,148.32,141.17,143.91Z" fill="#fff"/><path d="M154.11,123.77a4.9,4.9,0,1,1,4.86,4.56A4.63,4.63,0,0,1,154.11,123.77Zm.45,7h8.88v25.95h-8.88Z" fill="#fff"/><path d="M168.2,130.81h8.88V135a9.14,9.14,0,0,1,8.53-4.86c5,0,8.48,3.12,8.48,9.77v16.87h-8.88V141.68c0-2.93-1.14-4.37-3.72-4.37s-4.41,1.59-4.41,4.91v14.54H168.2Z" fill="#fff"/><path d="M197,156.76h8.83c.4,1.88,1.54,3.37,4.76,3.37,3.92,0,5.51-2.23,5.51-5.46v-4a9.1,9.1,0,0,1-8,4.76c-6.06,0-11-4.47-11-12.45v-.4c0-7.64,4.91-12.5,11-12.5,4.11,0,6.54,1.73,8,4.36v-3.67h8.88v23.76c0,7.74-5.11,11.81-14.39,11.81C201.73,166.38,197.66,162.66,197,156.76ZM216.31,143v-.35c0-3.57-1.84-5.85-5.11-5.85s-5.11,2.33-5.11,5.9v.4c0,3.57,1.89,5.85,5.06,5.85S216.31,146.64,216.31,143Z" fill="#fff"/><path d="M30.51,202.34v4H21.63V169h8.88v15.28a9.16,9.16,0,0,1,8.08-4.56c6.06,0,11,4.56,11,13.44v.4c0,8.93-4.91,13.39-11,13.39C34.68,207,31.8,205.12,30.51,202.34Zm10-8.78v-.4c0-4.56-2-6.74-5.11-6.74s-5.16,2.33-5.16,6.69v.4c0,4.41,1.94,6.65,5.16,6.65S40.53,197.82,40.53,193.56Z" fill="#fff"/><path d="M59.92,203.73,49.55,180.41h9.63l5.35,13.84,5-13.84H78L64.09,215H55.61Z" fill="#fff"/><path d="M87.1,180.41h9.28l3.77,15.53,4.36-15.53h7.15l3.86,15.53,4.22-15.53h8.43l-8.23,26h-8.48l-3.87-14.49-4,14.49H94.94Z" fill="#fff"/><path d="M130.25,173.37a4.9,4.9,0,1,1,4.86,4.56A4.63,4.63,0,0,1,130.25,173.37Zm.45,7h8.88v26H130.7Z" fill="#fff"/><path d="M145.53,198V186.46H142.4v-6.05h3.13V175h8.88v5.4h5.11v6.05h-5.11v10.72c0,1.88.94,2.73,2.63,2.73a6.75,6.75,0,0,0,2.53-.45v6.75a18.57,18.57,0,0,1-4.91.74C148.8,207,145.53,204.12,145.53,198Z" fill="#fff"/><path d="M162.89,169h8.88v15.58a9.15,9.15,0,0,1,8.53-4.86c5,0,8.48,3.12,8.48,9.77v16.87H179.9V191.28c0-2.93-1.14-4.37-3.72-4.37s-4.41,1.59-4.41,4.91v14.54h-8.88Z" fill="#fff"/><path d="M20.14,248.76c0-6.1,5.16-8.48,13.79-8.48h2.48v-.59c0-2.48-.59-4.12-3.42-4.12a3.19,3.19,0,0,0-3.52,3.07H21.13c.4-6.25,5.31-9.32,12.4-9.32s11.71,2.93,11.71,9.82V256H36.61v-3c-1.24,1.89-3.52,3.62-7.69,3.62C24.26,256.55,20.14,254.27,20.14,248.76Zm16.27-1.88v-1.59H34.08c-3.57,0-5.16.7-5.16,2.83,0,1.49,1,2.43,3.08,2.43C34.53,250.55,36.41,249.11,36.41,246.88Z" fill="#fff"/><path d="M49.55,230h8.88v4.17A9.16,9.16,0,0,1,67,229.32c5,0,8.48,3.12,8.48,9.77V256H66.57V240.88c0-2.93-1.14-4.37-3.72-4.37s-4.42,1.59-4.42,4.91V256H49.55Z" fill="#fff"/><path d="M78,247.72h8.19c.3,1.89,1.14,2.93,3.67,2.93,2.18,0,3.17-.84,3.17-2.13s-1.24-1.84-4.81-2.34c-6.94-.89-9.87-2.92-9.87-8.33,0-5.75,5.11-8.53,11.11-8.53,6.4,0,10.87,2.18,11.46,8.38h-8c-.35-1.73-1.29-2.58-3.33-2.58s-2.93.85-2.93,2,1.2,1.73,4.37,2.13c7.19.89,10.67,2.78,10.67,8.33,0,6.15-4.57,8.93-11.76,8.93C82.54,256.55,78.22,253.48,78,247.72Z" fill="#fff"/><path d="M101.78,230h9.28l3.77,15.53L119.19,230h7.15l3.87,15.53L134.42,230h8.44l-8.24,26h-8.48l-3.87-14.49-4,14.49h-8.63Z" fill="#fff"/><path d="M142.6,243.31v-.4c0-8.33,6.2-13.59,14-13.59,7.09,0,13.2,4.07,13.2,13.39V245H151.58c.25,3.43,2.23,5.41,5.41,5.41,2.93,0,4.17-1.34,4.51-3.07h8.34c-.8,5.85-5.31,9.17-13.15,9.17C148.56,256.55,142.6,251.79,142.6,243.31ZM161.21,240c-.15-3.12-1.69-4.86-4.57-4.86-2.68,0-4.51,1.74-5,4.86Z" fill="#fff"/><path d="M172.91,230h8.88v5.16c1.63-3.87,4.36-5.55,8.38-5.5V238c-5.41-.15-8.38,1.54-8.38,5.7V256h-8.88Z" fill="#fff"/><path d="M191.75,247.72h8.19c.3,1.89,1.14,2.93,3.67,2.93,2.18,0,3.18-.84,3.18-2.13s-1.24-1.84-4.82-2.34c-6.94-.89-9.87-2.92-9.87-8.33,0-5.75,5.11-8.53,11.11-8.53,6.4,0,10.87,2.18,11.46,8.38h-8c-.35-1.73-1.29-2.58-3.33-2.58s-2.92.85-2.92,2,1.19,1.73,4.36,2.13c7.19.89,10.67,2.78,10.67,8.33,0,6.15-4.57,8.93-11.76,8.93C196.27,256.55,192,253.48,191.75,247.72Z" fill="#fff"/><path d="M216.46,260l4.16-13.05,8.24,2.93L221.71,262Z" fill="#fff"/><path d="M20.14,298.36c0-6.1,5.16-8.48,13.79-8.48h2.48v-.59c0-2.48-.59-4.12-3.42-4.12a3.19,3.19,0,0,0-3.52,3.07H21.13c.4-6.25,5.31-9.32,12.4-9.32s11.71,2.93,11.71,9.82v16.82H36.61v-3c-1.24,1.89-3.52,3.62-7.69,3.62C24.26,306.15,20.14,303.87,20.14,298.36Zm16.27-1.88v-1.59H34.08c-3.57,0-5.16.7-5.16,2.83,0,1.49,1,2.43,3.08,2.43C34.53,300.15,36.41,298.71,36.41,296.48Z" fill="#fff"/><path d="M48.26,292.86v-.4c0-8.83,4.86-13.54,11-13.54,4.06,0,6.49,1.73,8,4.36V268.2h8.88v37.36H67.26v-4.22a8.73,8.73,0,0,1-8.08,4.81C53.17,306.15,48.26,301.84,48.26,292.86Zm19.25-.15v-.4c0-4.36-1.83-6.69-5.11-6.69s-5.11,2.23-5.11,6.74v.4c0,4.36,1.94,6.6,5,6.6C65.53,299.36,67.51,297.12,67.51,292.71Z" fill="#fff"/><path d="M78.42,279.61H87.9l5.4,16.72,5.31-16.72h8.48l-9.47,25.95H87.94Z" fill="#fff"/><path d="M109.12,272.57a4.9,4.9,0,1,1,4.86,4.56A4.64,4.64,0,0,1,109.12,272.57Zm.45,7h8.88v25.95h-8.88Z" fill="#fff"/><path d="M121.82,292.91v-.4c0-8.63,6.2-13.59,13.84-13.59,6.35,0,12.2,2.78,12.7,10.66H140c-.39-2.43-1.58-3.77-4.16-3.77-3.13,0-5,2.24-5,6.6v.4c0,4.51,1.73,6.84,5.11,6.84,2.48,0,4.21-1.48,4.51-4.31h8c-.25,6.55-4.67,10.81-13,10.81C127.72,306.15,121.82,301.64,121.82,292.91Z" fill="#fff"/><path d="M150,292.91v-.4c0-8.33,6.2-13.59,14-13.59,7.09,0,13.2,4.07,13.2,13.39v2.33H159c.25,3.43,2.23,5.41,5.41,5.41,2.92,0,4.16-1.34,4.51-3.07h8.34c-.8,5.85-5.31,9.17-13.15,9.17C155.94,306.15,150,301.39,150,292.91Zm18.6-3.28c-.14-3.12-1.68-4.86-4.56-4.86-2.68,0-4.51,1.74-5,4.86Z" fill="#fff"/><path d="M187.84,298.36c0-6.1,5.16-8.48,13.79-8.48h2.48v-.59c0-2.48-.6-4.12-3.43-4.12a3.19,3.19,0,0,0-3.52,3.07h-8.33c.39-6.25,5.31-9.32,12.4-9.32s11.71,2.93,11.71,9.82v16.82H204.3v-3c-1.23,1.89-3.52,3.62-7.68,3.62C192,306.15,187.84,303.87,187.84,298.36Zm16.27-1.88v-1.59h-2.33c-3.58,0-5.16.7-5.16,2.83,0,1.49,1,2.43,3.07,2.43C202.22,300.15,204.11,298.71,204.11,296.48Z" fill="#fff"/><path d="M217.25,279.61h8.88v4.17a9.15,9.15,0,0,1,8.53-4.86c5,0,8.48,3.12,8.48,9.77v16.87h-8.88V290.48c0-2.93-1.14-4.37-3.72-4.37s-4.41,1.59-4.41,4.91v14.54h-8.88Z" fill="#fff"/><path d="M246.16,292.86v-.4c0-8.83,4.87-13.54,11-13.54,4.07,0,6.5,1.73,8,4.36V268.2H274v37.36h-8.88v-4.22a8.73,8.73,0,0,1-8.08,4.81C251.08,306.15,246.16,301.84,246.16,292.86Zm19.25-.15v-.4c0-4.36-1.83-6.69-5.11-6.69s-5.11,2.23-5.11,6.74v.4c0,4.36,1.94,6.6,5,6.6C263.43,299.36,265.41,297.12,265.41,292.71Z" fill="#fff"/><path d="M23,335.26H19.69v-6.05H23v-2.28c0-6.45,4-9.52,10.17-9.52a15.8,15.8,0,0,1,4.07.54v6.5a8.15,8.15,0,0,0-2.44-.35c-2.08,0-3,1.14-3,2.83v2.28h5.26v6.05H31.8v19.9H23Z" fill="#fff"/><path d="M38.05,348c0-6.1,5.16-8.48,13.79-8.48h2.48v-.59c0-2.48-.6-4.12-3.43-4.12a3.19,3.19,0,0,0-3.52,3.07H39c.4-6.25,5.31-9.32,12.4-9.32s11.71,2.93,11.71,9.82v16.82H54.52v-3c-1.24,1.89-3.53,3.62-7.69,3.62C42.16,355.75,38.05,353.47,38.05,348Zm16.27-1.88v-1.59H52c-3.58,0-5.16.7-5.16,2.83,0,1.49,1,2.43,3.07,2.43C52.43,349.75,54.32,348.31,54.32,346.08Z" fill="#fff"/><path d="M65.72,346.92h8.19c.3,1.89,1.14,2.93,3.67,2.93,2.18,0,3.17-.84,3.17-2.13s-1.24-1.84-4.81-2.34c-6.94-.89-9.87-2.92-9.87-8.33,0-5.75,5.11-8.53,11.11-8.53,6.4,0,10.86,2.18,11.46,8.38h-8c-.34-1.73-1.29-2.58-3.32-2.58s-2.93.85-2.93,2,1.19,1.73,4.37,2.13c7.19.89,10.66,2.78,10.66,8.33,0,6.15-4.56,8.93-11.75,8.93C70.24,355.75,65.92,352.68,65.72,346.92Z" fill="#fff"/><path d="M93.45,346.82V335.26H90.32v-6.05h3.13v-5.4h8.88v5.4h5.11v6.05h-5.11V346c0,1.89.94,2.73,2.63,2.73a6.75,6.75,0,0,0,2.53-.45V355a18.57,18.57,0,0,1-4.91.74C96.72,355.75,93.45,352.92,93.45,346.82Z" fill="#fff"/><path d="M110.71,337.65H124.6v6.69H110.71Z" fill="#fff"/><path d="M130.2,346.82V335.26h-3.12v-6.05h3.12v-5.4h8.88v5.4h5.11v6.05h-5.11V346c0,1.89.94,2.73,2.63,2.73a6.71,6.71,0,0,0,2.53-.45V355a18.57,18.57,0,0,1-4.91.74C133.48,355.75,130.2,352.92,130.2,346.82Z" fill="#fff"/><path d="M155.7,352.53l-10.37-23.32H155l5.36,13.84,5-13.84h8.48l-13.89,34.63h-8.48Z" fill="#fff"/><path d="M176,329.21h8.88v3.87a9.16,9.16,0,0,1,8.09-4.56c6.05,0,11,4.56,11,13.44v.4c0,8.93-4.91,13.39-11,13.39-3.92,0-6.75-1.83-8-4.41v12.5H176Zm18.9,13.15V342c0-4.56-2-6.75-5.11-6.75s-5.16,2.34-5.16,6.7v.4c0,4.41,1.94,6.65,5.16,6.65S194.93,346.62,194.93,342.36Z" fill="#fff"/><path d="M207,322.17a4.9,4.9,0,1,1,4.86,4.56A4.63,4.63,0,0,1,207,322.17Zm.45,7h8.88v26h-8.88Z" fill="#fff"/><path d="M221.07,329.21H230v4.17a9.15,9.15,0,0,1,8.53-4.86c5,0,8.48,3.12,8.48,9.77v16.87h-8.88V340.08c0-2.93-1.14-4.37-3.72-4.37S230,337.3,230,340.62v14.54h-8.88Z" fill="#fff"/><path d="M249.83,355.16h8.84c.39,1.88,1.53,3.37,4.76,3.37,3.92,0,5.5-2.23,5.5-5.46v-4a9.11,9.11,0,0,1-8,4.76c-6.06,0-11-4.47-11-12.45V341c0-7.64,4.91-12.5,11-12.5,4.11,0,6.55,1.73,8,4.36v-3.67h8.88V353c0,7.74-5.11,11.81-14.38,11.81C254.6,364.78,250.53,361.06,249.83,355.16Zm19.35-13.79V341c0-3.57-1.83-5.85-5.11-5.85s-5.11,2.33-5.11,5.9v.4c0,3.57,1.89,5.85,5.06,5.85S269.18,345,269.18,341.37Z" fill="#fff"/><path d="M23,384.87H19.69v-6.06H23v-2.28c0-6.45,4-9.52,10.17-9.52a15.8,15.8,0,0,1,4.07.54v6.5a8.15,8.15,0,0,0-2.44-.35c-2.08,0-3,1.14-3,2.83v2.28h5.26v6.06H31.8v19.89H23Z" fill="#fff"/><path d="M39.83,371.77a4.64,4.64,0,0,1,4.86-4.61,4.6,4.6,0,1,1,0,9.17A4.6,4.6,0,0,1,39.83,371.77Zm.45,7h8.88v25.95H40.28Z" fill="#fff"/><path d="M53.92,378.81H62.8V383a9.15,9.15,0,0,1,8.53-4.86c5,0,8.48,3.12,8.48,9.77v16.87H70.93V389.68c0-2.93-1.14-4.37-3.72-4.37s-4.41,1.59-4.41,4.91v14.54H53.92Z" fill="#fff"/><path d="M82.69,404.76h8.83c.39,1.88,1.53,3.37,4.76,3.37,3.92,0,5.5-2.23,5.5-5.46v-4a9.09,9.09,0,0,1-8,4.76c-6,0-11-4.47-11-12.45v-.4c0-7.64,4.92-12.5,11-12.5,4.11,0,6.55,1.73,8,4.36v-3.67h8.88v23.76c0,7.74-5.11,11.81-14.38,11.81C87.45,414.38,83.38,410.66,82.69,404.76ZM102,391v-.35c0-3.57-1.83-5.85-5.11-5.85s-5.11,2.33-5.11,5.9v.4c0,3.57,1.89,5.85,5.06,5.85S102,394.64,102,391Z" fill="#fff"/><path d="M113.78,392.11v-.4c0-8.33,6.2-13.59,14-13.59,7.1,0,13.2,4.07,13.2,13.39v2.33H122.76c.25,3.43,2.24,5.41,5.41,5.41,2.93,0,4.17-1.34,4.51-3.08H141c-.8,5.86-5.31,9.18-13.15,9.18C119.74,405.35,113.78,400.59,113.78,392.11Zm18.61-3.28c-.15-3.12-1.69-4.86-4.57-4.86-2.68,0-4.51,1.74-5,4.86Z" fill="#fff"/><path d="M144.09,378.81H153V384c1.64-3.87,4.36-5.55,8.38-5.5v8.28c-5.4-.15-8.38,1.54-8.38,5.71v12.3h-8.88Z" fill="#fff"/><path d="M162.94,396.52h8.18c.3,1.89,1.14,2.93,3.67,2.93,2.19,0,3.18-.84,3.18-2.13s-1.24-1.84-4.81-2.34c-6.95-.89-9.88-2.92-9.88-8.33,0-5.75,5.11-8.53,11.12-8.53,6.39,0,10.86,2.18,11.46,8.38h-8c-.35-1.73-1.29-2.58-3.32-2.58s-2.93.85-2.93,2,1.19,1.73,4.36,2.13c7.2.89,10.67,2.78,10.67,8.33,0,6.15-4.56,8.93-11.76,8.93C167.45,405.35,163.14,402.28,162.94,396.52Z" fill="#fff"/><path d="M189.13,400.29a4.94,4.94,0,0,1,5.06-5,5,5,0,1,1,0,10A4.94,4.94,0,0,1,189.13,400.29Z" fill="#fff"/></g></g></g></svg>