<svg xmlns="http://www.w3.org/2000/svg" viewBox="0 0 300 600"><title>txt</title><g id="Layer_2" data-name="Layer 2"><g id="Artboard_1" data-name="Artboard 1" style="isolation:isolate"><g id="Real_pros._Real_help._Real_fast." data-name="Real pros. Real help. Real fast."><path d="M28.77,159l15.17.07c10.13,0,15.74,4.2,15.7,12.38v.22a10.13,10.13,0,0,1-7,10.15l9.19,16.08-11.71-.06L42.3,184H39.7l-.07,13.87-11.06-.05Zm14.54,17.73c3.74,0,5.59-1.54,5.6-4.68v-.22c0-3.14-1.93-4.4-5.5-4.42H39.78l-.05,9.31Z" fill="#fff"/><path d="M61.86,184.1v-.43c0-9.1,6.85-14.81,15.41-14.77,7.75,0,14.39,4.52,14.34,14.7l0,2.55-19.93-.1c.25,3.74,2.4,5.92,5.87,5.94,3.2,0,4.56-1.45,5-3.34l9.1,0c-.9,6.39-5.85,10-14.41,10C68.29,198.6,61.81,193.37,61.86,184.1Zm20.33-3.47c-.14-3.41-1.81-5.32-5-5.34-2.93,0-4.94,1.88-5.45,5.29Z" fill="#fff"/><path d="M93.58,190.22c0-6.66,5.68-9.23,15.11-9.19l2.71,0v-.65c0-2.71-.63-4.5-3.71-4.52a3.49,3.49,0,0,0-3.87,3.34l-9.1-.05c.47-6.82,5.85-10.15,13.6-10.11s12.77,3.26,12.73,10.79L121,198.22l-9.43-.05,0-3.31c-1.37,2.06-3.87,3.94-8.42,3.92C98,198.75,93.55,196.24,93.58,190.22Zm17.78-2v-1.73h-2.55c-3.9,0-5.63.73-5.65,3.06,0,1.62,1.08,2.66,3.35,2.67C109.28,192.25,111.35,190.69,111.36,188.25Z" fill="#fff"/><path d="M126.15,157.44l9.64.05-.2,40.8-9.65,0Z" fill="#fff"/><path d="M150.79,170l9.7,0,0,4.23a10,10,0,0,1,8.86-4.94c6.61,0,11.95,5,11.9,14.74v.44c0,9.75-5.44,14.6-12.1,14.57-4.28,0-7.36-2.05-8.76-4.87l-.07,13.65-9.69,0Zm20.58,14.46v-.44c0-5-2.13-7.38-5.55-7.39s-5.64,2.52-5.67,7.28v.44c0,4.82,2.08,7.27,5.6,7.29S171.34,189.15,171.37,184.49Z" fill="#fff"/><path d="M184.82,170.19l9.7.05,0,5.64c1.81-4.22,4.8-6,9.19-6l-.05,9.05c-5.9-.19-9.16,1.63-9.18,6.18l-.07,13.44-9.7-.05Z" fill="#fff"/><path d="M205.34,184.82v-.44c0-9.1,6.85-14.81,15.63-14.76s15.41,5.65,15.37,14.65v.43c-.05,9.21-6.85,14.71-15.57,14.66S205.3,194,205.34,184.82Zm21.13-.06v-.43c0-4.77-1.86-7.43-5.55-7.45s-5.65,2.52-5.67,7.28v.44c0,4.87,1.86,7.54,5.6,7.56S226.45,189.47,226.47,184.76Z" fill="#fff"/><path d="M238,189.8l8.94,0c.32,2.06,1.23,3.2,4,3.21,2.39,0,3.48-.9,3.48-2.31s-1.34-2-5.24-2.57c-7.58-1-10.77-3.25-10.74-9.16,0-6.28,5.63-9.29,12.19-9.26,7,0,11.85,2.45,12.47,9.22l-8.78,0c-.37-1.9-1.39-2.83-3.61-2.84s-3.21.91-3.21,2.21,1.29,1.9,4.75,2.35c7.86,1,11.64,3.09,11.61,9.16,0,6.72-5,9.73-12.89,9.69C242.88,199.47,238.18,196.09,238,189.8Z" fill="#fff"/><path d="M266.58,194.06a5.4,5.4,0,0,1,5.55-5.44,5.47,5.47,0,1,1-.05,10.94A5.4,5.4,0,0,1,266.58,194.06Z" fill="#fff"/><path d="M28.47,219.4l15.17.08c10.13.05,15.74,4.19,15.7,12.37v.22c0,5.53-3,8.6-7,10.15l9.19,16.09-11.71-.06L42,244.34H39.4l-.07,13.87-11.06-.06ZM43,237.14c3.74,0,5.59-1.55,5.6-4.69v-.22c0-3.14-1.93-4.39-5.5-4.41l-3.63,0,0,9.32Z" fill="#fff"/><path d="M61.56,244.49v-.43c0-9.11,6.85-14.82,15.41-14.77,7.75,0,14.39,4.51,14.34,14.7l0,2.54-19.93-.09c.25,3.74,2.4,5.91,5.87,5.93,3.2,0,4.56-1.44,5-3.33l9.1,0c-.9,6.39-5.85,10-14.41,9.95C68,259,61.51,253.76,61.56,244.49ZM81.89,241c-.14-3.42-1.81-5.32-5-5.34-2.93,0-4.94,1.87-5.45,5.28Z" fill="#fff"/><path d="M93.28,250.61c0-6.67,5.68-9.24,15.11-9.19h2.71v-.65c0-2.71-.63-4.5-3.71-4.51a3.48,3.48,0,0,0-3.87,3.34l-9.1-.05c.47-6.82,5.85-10.16,13.6-10.12s12.77,3.26,12.73,10.79l-.09,18.37-9.43-.05,0-3.3c-1.37,2.05-3.87,3.94-8.42,3.91C97.74,259.14,93.25,256.62,93.28,250.61Zm17.78-2V246.9h-2.55c-3.9,0-5.63.73-5.65,3.06,0,1.63,1.07,2.66,3.35,2.67C109,252.64,111.05,251.08,111.06,248.64Z" fill="#fff"/><path d="M125.85,217.83l9.64,0-.2,40.8-9.65,0Z" fill="#fff"/><path d="M150.56,218l9.69.05-.08,17a10,10,0,0,1,9.35-5.26c5.47,0,9.24,3.46,9.21,10.72l-.09,18.42-9.7-.05.08-16.47c0-3.2-1.22-4.77-4-4.79s-4.83,1.71-4.85,5.34l-.08,15.88-9.7-.05Z" fill="#fff"/><path d="M181.9,245.09v-.44c0-9.1,6.84-14.81,15.4-14.76,7.75,0,14.39,4.51,14.34,14.7v2.54L191.7,247c.25,3.74,2.41,5.92,5.88,5.94,3.19,0,4.56-1.44,4.95-3.34l9.1.05c-.9,6.39-5.85,10-14.41,9.95C188.33,259.59,181.86,254.35,181.9,245.09Zm20.34-3.48c-.15-3.41-1.82-5.32-5-5.33-2.92,0-4.94,1.87-5.44,5.28Z" fill="#fff"/><path d="M215.42,218.27l9.64,0-.2,40.8-9.65-.05Z" fill="#fff"/><path d="M230.2,230.81l9.7.05,0,4.22a10,10,0,0,1,8.86-4.94c6.61,0,11.95,5.05,11.9,14.74v.44c-.05,9.75-5.44,14.6-12.11,14.57-4.28,0-7.36-2-8.75-4.87l-.07,13.66-9.7-.05Zm20.57,14.46v-.44c0-5-2.13-7.37-5.55-7.39s-5.65,2.52-5.67,7.28v.44c0,4.82,2.08,7.27,5.6,7.29S250.75,249.93,250.77,245.27Z" fill="#fff"/><path d="M263,254.43a5.4,5.4,0,0,1,5.55-5.44,5.47,5.47,0,1,1-.05,10.94A5.4,5.4,0,0,1,263,254.43Z" fill="#fff"/><path d="M28.17,279.79l15.17.07c10.13.05,15.74,4.2,15.7,12.38v.22a10.13,10.13,0,0,1-7,10.15l9.19,16.08-11.71-.06L41.7,304.72H39.1L39,318.58,28,318.53Zm14.54,17.73c3.74,0,5.59-1.54,5.6-4.68v-.22c0-3.14-1.93-4.4-5.5-4.42H39.18l0,9.31Z" fill="#fff"/><path d="M61.26,304.88v-.44c0-9.1,6.85-14.81,15.41-14.77,7.75,0,14.39,4.52,14.34,14.7l0,2.55-19.93-.1c.25,3.74,2.4,5.92,5.87,5.94,3.2,0,4.56-1.44,4.95-3.34l9.1.05c-.9,6.39-5.85,10-14.41,9.95C67.69,319.38,61.21,314.14,61.26,304.88Zm20.33-3.48c-.14-3.41-1.81-5.32-5-5.33-2.93,0-4.94,1.87-5.45,5.28Z" fill="#fff"/><path d="M93,311c0-6.66,5.68-9.23,15.11-9.19l2.71,0v-.65c0-2.71-.63-4.5-3.71-4.52a3.49,3.49,0,0,0-3.87,3.34l-9.1,0c.47-6.83,5.85-10.16,13.6-10.12s12.77,3.26,12.73,10.79L120.36,319l-9.43-.05,0-3.31c-1.37,2.06-3.87,3.94-8.42,3.92C97.44,319.52,93,317,93,311Zm17.78-2v-1.73h-2.55c-3.9,0-5.63.73-5.65,3.06,0,1.62,1.07,2.66,3.35,2.67C108.68,313,110.75,311.46,110.76,309Z" fill="#fff"/><path d="M125.55,278.21l9.64.05-.2,40.8-9.65-.05Z" fill="#fff"/><path d="M151.62,297.41h-3.57l0-6.61h3.58v-2.49c0-7,4.44-10.38,11.16-10.35a17.39,17.39,0,0,1,4.44.62l0,7.1a8.73,8.73,0,0,0-2.65-.39c-2.28,0-3.26,1.23-3.27,3.07v2.49l5.74,0,0,6.61-5.74,0-.11,21.73-9.64-.05Z" fill="#fff"/><path d="M168,311.37c0-6.67,5.68-9.24,15.11-9.19h2.7v-.65c0-2.71-.63-4.5-3.72-4.52a3.48,3.48,0,0,0-3.86,3.34l-9.1,0c.46-6.83,5.84-10.16,13.59-10.12s12.77,3.26,12.74,10.79l-.1,18.37-9.42-.05V316c-1.36,2.05-3.86,3.93-8.41,3.91C172.48,319.9,168,317.38,168,311.37Zm17.78-2v-1.74h-2.55c-3.9,0-5.64.73-5.65,3.06,0,1.63,1.07,2.66,3.35,2.67C183.73,313.4,185.8,311.83,185.81,309.4Z" fill="#fff"/><path d="M198.27,310.38l8.94,0c.31,2.06,1.23,3.21,4,3.22,2.39,0,3.47-.9,3.48-2.31s-1.34-2-5.24-2.58c-7.58-1-10.77-3.25-10.74-9.15,0-6.29,5.63-9.29,12.18-9.26,7,0,11.86,2.44,12.48,9.22l-8.78,0c-.37-1.9-1.4-2.83-3.62-2.84s-3.2.9-3.21,2.21,1.29,1.9,4.76,2.35c7.85,1,11.63,3.09,11.6,9.16,0,6.72-5,9.73-12.89,9.69C203.15,320.05,198.45,316.67,198.27,310.38Z" fill="#fff"/><path d="M228.56,310.42l.06-12.62-3.41,0,0-6.61,3.41,0,0-5.91,9.7.05,0,5.9,5.58,0,0,6.61-5.58,0-.06,11.7c0,2.06,1,3,2.86,3a7.27,7.27,0,0,0,2.76-.47l0,7.37a20,20,0,0,1-5.37.78C232.09,320.19,228.52,317.09,228.56,310.42Z" fill="#fff"/><path d="M247.12,314.74a5.4,5.4,0,0,1,5.56-5.44,5.47,5.47,0,1,1-.06,10.94A5.41,5.41,0,0,1,247.12,314.74Z" fill="#fff"/></g><g id="Layer_10" data-name="Layer 10"><rect width="300" height="600" fill="none"/></g></g></g></svg>