<svg xmlns="http://www.w3.org/2000/svg" viewBox="0 0 160 600"><title>160x600</title><g id="Layer_2" data-name="Layer 2"><g id="Optional_loan_from_Axos_Bank_could_be_within_minutes_of_filing" data-name="Optional loan from Axos Bank® could be within minutes of filing"><path d="M20.5,390.78v-.07a3.16,3.16,0,1,1,6.31,0v.07a3.16,3.16,0,1,1-6.31,0Zm5.5,0v-.07a2.36,2.36,0,1,0-4.69,0v.07a2.42,2.42,0,0,0,2.37,2.62A2.35,2.35,0,0,0,26,390.75Z" fill="#fff"/><path d="M27.92,389.25h.75V390a1.93,1.93,0,0,1,1.59-.87,2.14,2.14,0,0,1,2.14,2.37v.07A2.17,2.17,0,0,1,30.26,394a1.78,1.78,0,0,1-1.59-.86v2.42h-.75Zm3.71,2.39v-.07c0-1.19-.66-1.78-1.45-1.78s-1.54.58-1.54,1.78v.07c0,1.21.63,1.78,1.55,1.78S31.63,392.79,31.63,391.64Z" fill="#fff"/><path d="M33.59,392.78v-2.9h-.67v-.63h.67v-1.07h.75v1.07h1.1v.63h-1.1v2.83c0,.46.2.68.58.68a1.59,1.59,0,0,0,.58-.1v.63a1.85,1.85,0,0,1-.64.1A1.14,1.14,0,0,1,33.59,392.78Z" fill="#fff"/><path d="M36.37,387.77a.5.5,0,0,1,.5-.49.49.49,0,0,1,.49.49.5.5,0,0,1-.49.5A.51.51,0,0,1,36.37,387.77Zm.14,1.48h.74V394h-.74Z" fill="#fff"/><path d="M38.3,391.64v-.07a2.31,2.31,0,1,1,4.62,0v.07a2.31,2.31,0,1,1-4.62,0Zm3.85,0v-.06c0-1.09-.6-1.79-1.54-1.79a1.56,1.56,0,0,0-1.54,1.78v.07c0,1.07.59,1.78,1.54,1.78S42.15,392.71,42.15,391.64Z" fill="#fff"/><path d="M44,389.25h.75V390a1.59,1.59,0,0,1,1.51-.83c1,0,1.66.53,1.66,1.9V394h-.75V391c0-.83-.35-1.19-1.11-1.19a1.23,1.23,0,0,0-1.31,1.28V394H44Z" fill="#fff"/><path d="M48.81,392.65c0-1.09,1.15-1.46,2.36-1.46h.67v-.34c0-.75-.29-1.06-1-1.06s-1,.27-1.08.84H49a1.64,1.64,0,0,1,1.86-1.46,1.52,1.52,0,0,1,1.72,1.68V394h-.75v-.6a1.69,1.69,0,0,1-1.46.68C49.5,394,48.81,393.62,48.81,392.65Zm3-.34v-.59h-.65c-.94,0-1.63.24-1.63.93,0,.49.23.79.89.79S51.84,393,51.84,392.31Z" fill="#fff"/><path d="M53.94,387h.75v7h-.75Z" fill="#fff"/><path d="M58.36,387h.75v7h-.75Z" fill="#fff"/><path d="M60.16,391.64v-.07a2.32,2.32,0,1,1,4.63,0v.07a2.32,2.32,0,1,1-4.63,0Zm3.85,0v-.06c0-1.09-.6-1.79-1.54-1.79a1.56,1.56,0,0,0-1.54,1.78v.07c0,1.07.59,1.78,1.54,1.78S64,392.71,64,391.64Z" fill="#fff"/><path d="M65.42,392.65c0-1.09,1.15-1.46,2.36-1.46h.68v-.34c0-.75-.29-1.06-1-1.06s-1,.27-1.08.84h-.75a1.64,1.64,0,0,1,1.86-1.46,1.52,1.52,0,0,1,1.72,1.68V394h-.74v-.6A1.71,1.71,0,0,1,67,394C66.12,394,65.42,393.62,65.42,392.65Zm3-.34v-.59h-.65c-1,0-1.64.24-1.64.93,0,.49.23.79.89.79S68.46,393,68.46,392.31Z" fill="#fff"/><path d="M70.53,389.25h.75V390a1.61,1.61,0,0,1,1.51-.83c1,0,1.66.53,1.66,1.9V394H73.7V391c0-.83-.35-1.19-1.1-1.19a1.24,1.24,0,0,0-1.32,1.28V394h-.75Z" fill="#fff"/><path d="M78.19,389.88h-.67v-.63h.67v-.77c0-1,.47-1.51,1.41-1.51a1.6,1.6,0,0,1,.56.09v.63a1.62,1.62,0,0,0-.54-.1c-.48,0-.68.33-.68.81v.85h1.15v.63H78.94V394h-.75Z" fill="#fff"/><path d="M81,389.25h.75v.84a1.62,1.62,0,0,1,1.55-.92v.7c-1,.05-1.55.34-1.55,1.5V394H81Z" fill="#fff"/><path d="M83.77,391.64v-.07a2.32,2.32,0,1,1,4.63,0v.07a2.32,2.32,0,1,1-4.63,0Zm3.86,0v-.06c0-1.09-.61-1.79-1.54-1.79s-1.54.7-1.54,1.78v.07c0,1.07.58,1.78,1.54,1.78A1.57,1.57,0,0,0,87.63,391.64Z" fill="#fff"/><path d="M89.42,389.25h.75V390a1.54,1.54,0,0,1,1.41-.8,1.36,1.36,0,0,1,1.37.88,1.84,1.84,0,0,1,1.62-.88c.84,0,1.58.5,1.58,1.87V394H95.4v-3c0-.83-.35-1.17-1-1.17a1.2,1.2,0,0,0-1.24,1.26V394h-.75v-3c0-.83-.35-1.17-1-1.17a1.2,1.2,0,0,0-1.25,1.26V394h-.75Z" fill="#fff"/><path d="M101.51,387.52h1l2.18,6.44h-.78l-.63-1.86h-2.65L100,394H99.3Zm-.64,4h2.24L102,388.17Z" fill="#fff"/><path d="M106.84,391.54l-1.58-2.29h.88l1.15,1.71,1.14-1.71h.81l-1.55,2.23,1.72,2.48h-.89l-1.27-1.9L106,394h-.8Z" fill="#fff"/><path d="M109.7,391.64v-.07a2.32,2.32,0,1,1,4.63,0v.07a2.32,2.32,0,1,1-4.63,0Zm3.85,0v-.06c0-1.09-.6-1.79-1.53-1.79s-1.54.7-1.54,1.78v.07c0,1.07.58,1.78,1.54,1.78S113.55,392.71,113.55,391.64Z" fill="#fff"/><path d="M115,392.51h.73c0,.56.35.91,1.1.91s1-.25,1-.75-.37-.66-1.1-.79c-1.22-.23-1.64-.57-1.64-1.39a1.47,1.47,0,0,1,1.6-1.32,1.51,1.51,0,0,1,1.7,1.36h-.72c-.11-.52-.4-.74-1-.74s-.89.27-.89.67.23.6,1.09.75,1.66.4,1.66,1.4c0,.85-.58,1.43-1.73,1.43S115,393.47,115,392.51Z" fill="#fff"/><path d="M20.81,396.52h1.94c1.19,0,2.07.4,2.07,1.67v0a1.32,1.32,0,0,1-1,1.36,1.42,1.42,0,0,1,1.29,1.54v0c0,1.21-.83,1.8-2.11,1.8H20.81Zm1.94,2.81c.94,0,1.3-.34,1.3-1.14v0c0-.73-.42-1-1.32-1H21.58v2.2Zm.25,3c.93,0,1.37-.41,1.37-1.19v0c0-.79-.44-1.17-1.48-1.17H21.58v2.4Z" fill="#fff"/><path d="M25.83,401.65c0-1.09,1.15-1.46,2.36-1.46h.68v-.34c0-.75-.29-1.06-1-1.06s-1,.27-1.08.84H26a1.64,1.64,0,0,1,1.86-1.46,1.52,1.52,0,0,1,1.72,1.68V403h-.74v-.6a1.72,1.72,0,0,1-1.47.68C26.53,403,25.83,402.62,25.83,401.65Zm3-.34v-.59h-.65c-.95,0-1.64.24-1.64.93,0,.49.23.79.89.79S28.87,402,28.87,401.31Z" fill="#fff"/><path d="M30.94,398.25h.75V399a1.61,1.61,0,0,1,1.51-.83c1,0,1.66.53,1.66,1.9V403h-.75V400c0-.83-.35-1.19-1.1-1.19a1.24,1.24,0,0,0-1.32,1.28V403h-.75Z" fill="#fff"/><path d="M36.19,396h.75v4.42l2-2.17h.88l-2,2.19L39.94,403H39l-2.09-2.44V403h-.75Z" fill="#fff"/><path d="M40.13,397.33a1.17,1.17,0,1,1,1.16,1.15A1.16,1.16,0,0,1,40.13,397.33Zm2.12,0a1,1,0,1,0-1,1A.94.94,0,0,0,42.25,397.32Zm-1.36-.59h.41c.27,0,.44.11.44.35h0a.3.3,0,0,1-.24.31l.31.49h-.27l-.27-.44h-.12v.44h-.26Zm.4.53c.13,0,.2-.06.2-.17h0c0-.12-.07-.16-.2-.16h-.14v.33Z" fill="#fff"/><path d="M45.22,400.65v-.07a2.28,2.28,0,0,1,2.28-2.41,1.86,1.86,0,0,1,2,1.65h-.74a1.18,1.18,0,0,0-1.31-1A1.59,1.59,0,0,0,46,400.58v.07c0,1.15.63,1.77,1.54,1.77a1.27,1.27,0,0,0,1.35-1.16h.69a2,2,0,0,1-2,1.78A2.24,2.24,0,0,1,45.22,400.65Z" fill="#fff"/><path d="M50.21,400.64v-.07a2.32,2.32,0,1,1,4.63,0v.07a2.32,2.32,0,1,1-4.63,0Zm3.85,0v-.06c0-1.09-.6-1.79-1.53-1.79s-1.54.7-1.54,1.78v.07c0,1.07.58,1.78,1.54,1.78S54.06,401.71,54.06,400.64Z" fill="#fff"/><path d="M55.82,401.23v-3h.75v2.94c0,.83.35,1.2,1.09,1.2A1.24,1.24,0,0,0,59,401.1v-2.85h.75V403H59v-.75a1.6,1.6,0,0,1-1.49.83C56.52,403,55.82,402.52,55.82,401.23Z" fill="#fff"/><path d="M61.09,396h.76v7h-.76Z" fill="#fff"/><path d="M62.89,400.7v-.08a2.23,2.23,0,0,1,2.2-2.45,1.7,1.7,0,0,1,1.54.83v-3h.75v7h-.75v-.81A2,2,0,0,1,65,403,2.1,2.1,0,0,1,62.89,400.7Zm3.77-.07v-.07c0-1.2-.58-1.77-1.5-1.77s-1.49.66-1.49,1.8v.07c0,1.19.64,1.76,1.43,1.76S66.66,401.84,66.66,400.63Z" fill="#fff"/><path d="M71.75,402.18V403H71v-7h.75v3a1.93,1.93,0,0,1,1.59-.87,2.14,2.14,0,0,1,2.15,2.37v.07A2.18,2.18,0,0,1,73.34,403,1.8,1.8,0,0,1,71.75,402.18Zm3-1.54v-.07c0-1.19-.66-1.78-1.45-1.78s-1.54.58-1.54,1.78v.07c0,1.21.63,1.78,1.55,1.78S74.71,401.79,74.71,400.64Z" fill="#fff"/><path d="M76.16,400.65v-.07a2.21,2.21,0,0,1,2.2-2.41,2.06,2.06,0,0,1,2.12,2.34v.24H76.93c0,1.07.55,1.67,1.52,1.67.72,0,1.15-.27,1.25-.82h.74a1.81,1.81,0,0,1-2,1.44A2.21,2.21,0,0,1,76.16,400.65Zm3.55-.5c-.07-1-.57-1.36-1.35-1.36a1.41,1.41,0,0,0-1.4,1.36Z" fill="#fff"/><path d="M83.23,398.25H84l1.1,3.79,1.14-3.79h.65L88,402l1.11-3.79h.77L88.41,403h-.83l-1-3.53L85.5,403h-.82Z" fill="#fff"/><path d="M90.63,396.77a.5.5,0,0,1,.5-.49.49.49,0,0,1,.49.49.5.5,0,0,1-.49.5A.51.51,0,0,1,90.63,396.77Zm.14,1.48h.74V403h-.74Z" fill="#fff"/><path d="M93.07,401.78v-2.9h-.68v-.63h.68v-1.07h.75v1.07h1.1v.63h-1.1v2.83c0,.46.2.68.58.68a1.59,1.59,0,0,0,.58-.1v.63a1.85,1.85,0,0,1-.64.1A1.14,1.14,0,0,1,93.07,401.78Z" fill="#fff"/><path d="M96,396h.74v3a1.61,1.61,0,0,1,1.52-.83c1,0,1.65.53,1.65,1.9V403h-.74V400c0-.83-.35-1.19-1.11-1.19a1.24,1.24,0,0,0-1.32,1.28V403H96Z" fill="#fff"/><path d="M101.1,396.77a.49.49,0,0,1,.49-.49.5.5,0,0,1,.5.49.51.51,0,0,1-.5.5A.5.5,0,0,1,101.1,396.77Zm.13,1.48H102V403h-.75Z" fill="#fff"/><path d="M103.37,398.25h.75V399a1.61,1.61,0,0,1,1.51-.83c1,0,1.66.53,1.66,1.9V403h-.75V400c0-.83-.35-1.19-1.1-1.19a1.24,1.24,0,0,0-1.32,1.28V403h-.75Z" fill="#fff"/><path d="M20.76,407.25h.74V408a1.54,1.54,0,0,1,1.41-.8,1.38,1.38,0,0,1,1.38.88,1.81,1.81,0,0,1,1.61-.88c.84,0,1.58.5,1.58,1.87V412h-.75v-3c0-.83-.35-1.17-1-1.17a1.2,1.2,0,0,0-1.24,1.26V412h-.74v-3c0-.83-.36-1.17-1-1.17a1.2,1.2,0,0,0-1.25,1.26V412h-.74Z" fill="#fff"/><path d="M28.69,405.77a.5.5,0,0,1,.5-.49.49.49,0,0,1,.49.49.5.5,0,0,1-.49.5A.51.51,0,0,1,28.69,405.77Zm.14,1.48h.75V412h-.75Z" fill="#fff"/><path d="M31,407.25h.75V408a1.6,1.6,0,0,1,1.51-.83c1,0,1.66.53,1.66,1.9V412h-.75V409c0-.83-.35-1.19-1.11-1.19a1.23,1.23,0,0,0-1.31,1.28V412H31Z" fill="#fff"/><path d="M36.17,410.23v-3h.75v2.94c0,.83.35,1.2,1.09,1.2a1.24,1.24,0,0,0,1.3-1.29v-2.85h.74V412h-.74v-.75a1.62,1.62,0,0,1-1.5.83C36.88,412,36.17,411.52,36.17,410.23Z" fill="#fff"/><path d="M41.59,410.78v-2.9h-.67v-.63h.67v-1.07h.75v1.07h1.1v.63h-1.1v2.83c0,.46.21.68.58.68a1.59,1.59,0,0,0,.58-.1v.63a1.85,1.85,0,0,1-.64.1A1.14,1.14,0,0,1,41.59,410.78Z" fill="#fff"/><path d="M44.14,409.65v-.07a2.21,2.21,0,0,1,2.2-2.41,2.06,2.06,0,0,1,2.12,2.34v.24H44.91c0,1.07.55,1.67,1.51,1.67.73,0,1.16-.27,1.26-.82h.74a1.81,1.81,0,0,1-2,1.44A2.21,2.21,0,0,1,44.14,409.65Zm3.55-.5c-.07-1-.57-1.36-1.35-1.36a1.41,1.41,0,0,0-1.4,1.36Z" fill="#fff"/><path d="M49.12,410.51h.73c.06.56.35.91,1.11.91s1-.25,1-.75-.37-.66-1.1-.79c-1.23-.23-1.64-.57-1.64-1.39a1.46,1.46,0,0,1,1.59-1.32,1.5,1.5,0,0,1,1.7,1.36h-.72c-.1-.52-.39-.74-1-.74s-.89.27-.89.67.24.6,1.1.75,1.66.4,1.66,1.4c0,.85-.59,1.43-1.73,1.43S49.17,411.47,49.12,410.51Z" fill="#fff"/><path d="M55.59,409.64v-.07a2.32,2.32,0,1,1,4.63,0v.07a2.32,2.32,0,1,1-4.63,0Zm3.86,0v-.06c0-1.09-.61-1.79-1.54-1.79s-1.54.7-1.54,1.78v.07c0,1.07.58,1.78,1.54,1.78A1.57,1.57,0,0,0,59.45,409.64Z" fill="#fff"/><path d="M61.41,407.88h-.68v-.63h.68v-.77c0-1,.47-1.51,1.4-1.51a1.57,1.57,0,0,1,.56.09v.63a1.51,1.51,0,0,0-.53-.1c-.49,0-.68.33-.68.81v.85h1.15v.63H62.16V412h-.75Z" fill="#fff"/><path d="M66.64,407.88H66v-.63h.68v-.77c0-1,.47-1.51,1.4-1.51a1.57,1.57,0,0,1,.56.09v.63a1.56,1.56,0,0,0-.53-.1c-.49,0-.69.33-.69.81v.85h1.16v.63H67.38V412h-.74Z" fill="#fff"/><path d="M69.34,405.77a.49.49,0,0,1,.49-.49.5.5,0,0,1,.5.49.51.51,0,0,1-.5.5A.5.5,0,0,1,69.34,405.77Zm.13,1.48h.75V412h-.75Z" fill="#fff"/><path d="M71.63,405h.76v7h-.76Z" fill="#fff"/><path d="M73.67,405.77a.49.49,0,0,1,.49-.49.5.5,0,0,1,.5.49.51.51,0,0,1-.5.5A.5.5,0,0,1,73.67,405.77Zm.13,1.48h.75V412H73.8Z" fill="#fff"/><path d="M75.94,407.25h.75V408a1.61,1.61,0,0,1,1.51-.83c1,0,1.66.53,1.66,1.9V412h-.75V409c0-.83-.35-1.19-1.11-1.19a1.23,1.23,0,0,0-1.31,1.28V412h-.75Z" fill="#fff"/><path d="M80.94,412.23h.76c.11.54.56.82,1.36.82a1.33,1.33,0,0,0,1.52-1.45v-.69a2,2,0,0,1-1.6.89,2.12,2.12,0,0,1-2.14-2.23v-.06a2.23,2.23,0,0,1,2.2-2.34,1.72,1.72,0,0,1,1.54.83v-.75h.74v4.39a2,2,0,0,1-2.25,2C81.68,413.68,81.06,413,80.94,412.23Zm3.66-2.71v-.07a1.45,1.45,0,0,0-1.49-1.66,1.5,1.5,0,0,0-1.5,1.68v.07a1.49,1.49,0,0,0,1.45,1.64A1.51,1.51,0,0,0,84.6,409.52Z" fill="#fff"/><path d="M86.63,411.43a.58.58,0,0,1,.58-.58.58.58,0,1,1-.58.58Z" fill="#fff"/><path d="M91.41,405.52h1l3.14,5.32v-5.32h.74V412h-.9l-3.25-5.52V412h-.74Z" fill="#fff"/><path d="M97.38,409.64v-.07a2.32,2.32,0,1,1,4.63,0v.07a2.32,2.32,0,1,1-4.63,0Zm3.85,0v-.06c0-1.09-.6-1.79-1.54-1.79s-1.53.7-1.53,1.78v.07c0,1.07.58,1.78,1.53,1.78S101.23,410.71,101.23,409.64Z" fill="#fff"/><path d="M103.2,410.78v-2.9h-.68v-.63h.68v-1.07h.74v1.07H105v.63h-1.1v2.83c0,.46.21.68.59.68a1.57,1.57,0,0,0,.57-.1v.63a1.85,1.85,0,0,1-.64.1A1.14,1.14,0,0,1,103.2,410.78Z" fill="#fff"/><path d="M109.66,411.47l-1.85-4.22h.8l1.44,3.37,1.31-3.37h.76l-2.6,6.35h-.75Z" fill="#fff"/><path d="M112.48,409.64v-.07a2.32,2.32,0,1,1,4.63,0v.07a2.32,2.32,0,1,1-4.63,0Zm3.86,0v-.06c0-1.09-.61-1.79-1.54-1.79s-1.54.7-1.54,1.78v.07c0,1.07.58,1.78,1.54,1.78A1.57,1.57,0,0,0,116.34,409.64Z" fill="#fff"/><path d="M118.09,410.23v-3h.75v2.94c0,.83.35,1.2,1.09,1.2a1.24,1.24,0,0,0,1.29-1.29v-2.85H122V412h-.75v-.75a1.6,1.6,0,0,1-1.49.83C118.79,412,118.09,411.52,118.09,410.23Z" fill="#fff"/><path d="M123.35,407.25h.74v.84a1.63,1.63,0,0,1,1.55-.92v.7c-.94.05-1.55.34-1.55,1.5V412h-.74Z" fill="#fff"/><path d="M20.92,419.78v-2.9h-.68v-.63h.68v-1.07h.75v1.07h1.09v.63H21.67v2.83c0,.46.2.68.58.68a1.63,1.63,0,0,0,.58-.1v.63a1.94,1.94,0,0,1-.64.1A1.14,1.14,0,0,1,20.92,419.78Z" fill="#fff"/><path d="M23.47,419.65c0-1.09,1.16-1.46,2.36-1.46h.68v-.34c0-.75-.29-1.06-1-1.06s-1,.27-1.08.84h-.75a1.65,1.65,0,0,1,1.87-1.46,1.51,1.51,0,0,1,1.71,1.68V421h-.74v-.6A1.71,1.71,0,0,1,25,421C24.17,421,23.47,420.62,23.47,419.65Zm3-.34v-.59h-.65c-.95,0-1.64.24-1.64.93,0,.49.24.79.89.79S26.51,420,26.51,419.31Z" fill="#fff"/><path d="M29.77,418.54l-1.58-2.29h.87L30.22,418l1.14-1.71h.81l-1.56,2.23L32.33,421h-.88l-1.27-1.9-1.3,1.9h-.8Z" fill="#fff"/><path d="M35.45,416.25h.75v.84a1.63,1.63,0,0,1,1.55-.92v.7c-1,.05-1.55.34-1.55,1.5V421h-.75Z" fill="#fff"/><path d="M38.22,418.65v-.07a2.21,2.21,0,0,1,2.2-2.41,2.06,2.06,0,0,1,2.12,2.34v.24H39c0,1.07.55,1.67,1.51,1.67.73,0,1.15-.27,1.25-.82h.75a1.81,1.81,0,0,1-2,1.44A2.21,2.21,0,0,1,38.22,418.65Zm3.55-.5c-.07-1-.57-1.36-1.35-1.36a1.41,1.41,0,0,0-1.4,1.36Z" fill="#fff"/><path d="M43.71,416.88H43v-.63h.68v-.77c0-1,.46-1.51,1.4-1.51a1.6,1.6,0,0,1,.56.09v.63a1.61,1.61,0,0,0-.53-.1c-.49,0-.69.33-.69.81v.85h1.16v.63H44.45V421h-.74Z" fill="#fff"/><path d="M46.48,419.23v-3h.75v2.94c0,.83.35,1.2,1.08,1.2a1.24,1.24,0,0,0,1.3-1.29v-2.85h.75V421h-.75v-.75a1.61,1.61,0,0,1-1.49.83C47.18,421,46.48,420.52,46.48,419.23Z" fill="#fff"/><path d="M51.73,416.25h.75V417a1.61,1.61,0,0,1,1.51-.83c1,0,1.66.53,1.66,1.9V421H54.9V418c0-.83-.35-1.19-1.1-1.19a1.24,1.24,0,0,0-1.32,1.28V421h-.75Z" fill="#fff"/><path d="M56.63,418.7v-.08a2.23,2.23,0,0,1,2.2-2.45,1.7,1.7,0,0,1,1.54.83v-3h.74v7h-.74v-.81a2,2,0,0,1-1.62.89A2.1,2.1,0,0,1,56.63,418.7Zm3.76-.07v-.07c0-1.2-.57-1.77-1.49-1.77s-1.5.66-1.5,1.8v.07c0,1.19.64,1.76,1.44,1.76S60.39,419.84,60.39,418.63Z" fill="#fff"/><path d="M62.43,420.43A.58.58,0,1,1,63,421,.57.57,0,0,1,62.43,420.43Z" fill="#fff"/><rect width="160" height="600" fill="none"/></g></g></svg>