<svg xmlns="http://www.w3.org/2000/svg" viewBox="0 0 300 600"><title>H126</title><g id="Layer_2" data-name="Layer 2"><g id="Rect"><rect width="300" height="600" fill="none"/></g><g id="H126"><g id="Hora_intensa_de_trabajo._Preparación_de_taxes_en_una_hora." data-name="Hora intensa de trabajo. Preparación de taxes en una hora."><path d="M21.92,139.36h8.72v11.46h10V139.36h8.67v30H40.59V157.54h-10v11.83H21.92Z" fill="#fff"/><path d="M52.31,158.67v-.34c0-7.05,5.29-11.5,12.15-11.5s12.06,4.33,12.06,11.29v.34c0,7.14-5.29,11.42-12.11,11.42S52.31,165.76,52.31,158.67Zm16.51-.13v-.33c0-3.7-1.49-5.75-4.36-5.75s-4.41,2-4.41,5.66v.34c0,3.78,1.49,5.83,4.41,5.83S68.82,162.19,68.82,158.54Z" fill="#fff"/><path d="M79.18,147.42h7.58v4.36a7,7,0,0,1,7.15-4.65v7c-4.61-.13-7.15,1.3-7.15,4.82v10.41H79.18Z" fill="#fff"/><path d="M94.88,163.29c0-5.17,4.41-7.18,11.77-7.18h2.12v-.51c0-2.09-.51-3.48-2.92-3.48a2.71,2.71,0,0,0-3,2.6H95.73c.34-5.29,4.53-7.89,10.58-7.89s10,2.48,10,8.31v14.23h-7.36v-2.56c-1.06,1.6-3,3.07-6.56,3.07C98.4,169.88,94.88,168,94.88,163.29Zm13.89-1.6v-1.34h-2c-3,0-4.4.59-4.4,2.39,0,1.26.84,2.06,2.62,2.06C107.16,164.8,108.77,163.58,108.77,161.69Z" fill="#fff"/><path d="M127.51,141.46a4.18,4.18,0,1,1,4.15,3.86A3.94,3.94,0,0,1,127.51,141.46Zm.39,6h7.57v22H127.9Z" fill="#fff"/><path d="M139.53,147.42h7.58V151a7.83,7.83,0,0,1,7.28-4.12c4.28,0,7.24,2.65,7.24,8.27v14.27h-7.58V156.61c0-2.47-1-3.69-3.17-3.69s-3.77,1.34-3.77,4.15v12.3h-7.58Z" fill="#fff"/><path d="M166.32,162.32v-9.78h-2.66v-5.12h2.66v-4.58h7.58v4.58h4.36v5.12H173.9v9.07a2,2,0,0,0,2.24,2.31,5.86,5.86,0,0,0,2.16-.38v5.71a16.05,16.05,0,0,1-4.19.63C169.12,169.88,166.32,167.48,166.32,162.32Z" fill="#fff"/><path d="M180,158.67v-.34c0-7.05,5.29-11.5,12-11.5,6,0,11.26,3.44,11.26,11.34v2H187.61c.21,2.89,1.91,4.57,4.61,4.57,2.5,0,3.56-1.13,3.86-2.6h7.11c-.68,4.95-4.53,7.77-11.22,7.77C185,169.88,180,165.85,180,158.67Zm15.87-2.77c-.12-2.65-1.44-4.12-3.89-4.12-2.29,0-3.85,1.47-4.23,4.12Z" fill="#fff"/><path d="M205.81,147.42h7.58V151a7.81,7.81,0,0,1,7.28-4.12c4.27,0,7.23,2.65,7.23,8.27v14.27h-7.57V156.61c0-2.47-1-3.69-3.18-3.69s-3.76,1.34-3.76,4.15v12.3h-7.58Z" fill="#fff"/><path d="M230.1,162.4h7c.25,1.6,1,2.48,3.13,2.48,1.86,0,2.71-.71,2.71-1.8s-1.06-1.56-4.11-2c-5.92-.75-8.42-2.47-8.42-7,0-4.87,4.36-7.22,9.48-7.22,5.46,0,9.27,1.85,9.78,7.1H242.8c-.3-1.47-1.1-2.19-2.84-2.19s-2.49.72-2.49,1.72,1,1.47,3.72,1.81c6.14.75,9.1,2.35,9.1,7,0,5.21-3.89,7.56-10,7.56C234,169.88,230.27,167.27,230.1,162.4Z" fill="#fff"/><path d="M251.47,163.29c0-5.17,4.41-7.18,11.77-7.18h2.12v-.51c0-2.09-.51-3.48-2.92-3.48a2.71,2.71,0,0,0-3,2.6h-7.11c.34-5.29,4.53-7.89,10.58-7.89s10,2.48,10,8.31v14.23h-7.36v-2.56c-1.06,1.6-3,3.07-6.56,3.07C255,169.88,251.47,168,251.47,163.29Zm13.89-1.6v-1.34h-2c-3.05,0-4.4.59-4.4,2.39,0,1.26.84,2.06,2.62,2.06C263.75,164.8,265.36,163.58,265.36,161.69Z" fill="#fff"/><path d="M20.14,201.63v-.34c0-7.47,4.15-11.46,9.4-11.46,3.47,0,5.54,1.47,6.81,3.7V180.76h7.58v31.61H36.35v-3.56a7.47,7.47,0,0,1-6.89,4.07C24.33,212.88,20.14,209.22,20.14,201.63Zm16.43-.13v-.33c0-3.7-1.57-5.67-4.36-5.67s-4.36,1.89-4.36,5.71v.33c0,3.7,1.65,5.59,4.27,5.59S36.57,205.24,36.57,201.5Z" fill="#fff"/><path d="M46.59,201.67v-.34c0-7.05,5.3-11.5,12-11.5,6.06,0,11.26,3.44,11.26,11.34v2H54.26c.21,2.89,1.9,4.57,4.61,4.57,2.5,0,3.55-1.13,3.85-2.6h7.11c-.67,4.95-4.53,7.77-11.21,7.77C51.67,212.88,46.59,208.85,46.59,201.67Zm15.88-2.77c-.13-2.65-1.44-4.12-3.9-4.12-2.28,0-3.85,1.47-4.23,4.12Z" fill="#fff"/><path d="M81.17,205.32v-9.78H78.5v-5.12h2.67v-4.58h7.58v4.58h4.36v5.12H88.75v9.07A2,2,0,0,0,91,206.92a5.86,5.86,0,0,0,2.16-.38v5.71a16.05,16.05,0,0,1-4.19.63C84,212.88,81.17,210.48,81.17,205.32Z" fill="#fff"/><path d="M96,190.42h7.58v4.36a7,7,0,0,1,7.15-4.65v7c-4.61-.13-7.15,1.3-7.15,4.82v10.41H96Z" fill="#fff"/><path d="M111.68,206.29c0-5.17,4.41-7.18,11.77-7.18h2.12v-.51c0-2.09-.51-3.48-2.92-3.48a2.71,2.71,0,0,0-3,2.6h-7.11c.34-5.29,4.53-7.89,10.58-7.89s10,2.48,10,8.31v14.23h-7.36v-2.56c-1.06,1.6-3,3.07-6.56,3.07C115.2,212.88,111.68,211,111.68,206.29Zm13.89-1.6v-1.34h-2c-3,0-4.4.59-4.4,2.39,0,1.26.84,2.06,2.62,2.06C124,207.8,125.57,206.58,125.57,204.69Z" fill="#fff"/><path d="M144.36,209v3.4h-7.58V180.76h7.58v12.93a7.81,7.81,0,0,1,6.9-3.86c5.16,0,9.35,3.86,9.35,11.38v.33c0,7.56-4.19,11.34-9.4,11.34C147.91,212.88,145.46,211.32,144.36,209Zm8.55-7.43v-.33c0-3.86-1.7-5.71-4.36-5.71s-4.4,2-4.4,5.67v.33c0,3.74,1.65,5.63,4.4,5.63S152.91,205.15,152.91,201.54Z" fill="#fff"/><path d="M162.09,206.29c0-5.17,4.4-7.18,11.77-7.18H176v-.51c0-2.09-.5-3.48-2.92-3.48a2.71,2.71,0,0,0-3,2.6h-7.11c.34-5.29,4.53-7.89,10.58-7.89s10,2.48,10,8.31v14.23h-7.37v-2.56c-1.06,1.6-3,3.07-6.56,3.07C165.6,212.88,162.09,211,162.09,206.29Zm13.88-1.6v-1.34h-2c-3,0-4.4.59-4.4,2.39,0,1.26.85,2.06,2.63,2.06C174.37,207.8,176,206.58,176,204.69Z" fill="#fff"/><path d="M184.69,214.64c1.86-.13,2.71-.88,2.71-2.6V190.42h7.53v21.79c0,4.74-2.24,7.89-10.24,7.89ZM187,184.46a3.94,3.94,0,0,1,4.15-3.91,3.9,3.9,0,1,1,0,7.77A3.9,3.9,0,0,1,187,184.46Z" fill="#fff"/><path d="M197.85,201.67v-.34c0-7.05,5.29-11.5,12.15-11.5s12.06,4.33,12.06,11.29v.34c0,7.14-5.29,11.42-12.1,11.42S197.85,208.76,197.85,201.67Zm16.51-.13v-.33c0-3.7-1.48-5.75-4.36-5.75s-4.4,2-4.4,5.66v.34c0,3.78,1.48,5.83,4.4,5.83S214.36,205.19,214.36,201.54Z" fill="#fff"/><path d="M223.5,208.6a4.2,4.2,0,0,1,4.32-4.24,4.24,4.24,0,1,1,0,8.47A4.2,4.2,0,0,1,223.5,208.6Z" fill="#fff"/><path d="M21.92,225.36H33.43c8.3,0,12.15,3.65,12.15,10v.17c0,6.3-4.27,9.7-11.77,9.7H30.56v10.11H21.92Zm11.13,14c2.8,0,4.28-1.3,4.28-3.78v-.17c0-2.56-1.53-3.61-4.23-3.61H30.56v7.56Z" fill="#fff"/><path d="M48.2,233.42h7.58v4.36a7,7,0,0,1,7.15-4.65v7c-4.61-.13-7.15,1.3-7.15,4.82v10.41H48.2Z" fill="#fff"/><path d="M64.29,244.67v-.34c0-7.05,5.29-11.5,12-11.5,6.06,0,11.26,3.44,11.26,11.34v2H72c.21,2.89,1.9,4.57,4.61,4.57,2.5,0,3.56-1.13,3.85-2.6h7.11c-.67,4.95-4.53,7.77-11.21,7.77C69.36,255.88,64.29,251.85,64.29,244.67Zm15.87-2.77c-.13-2.65-1.44-4.12-3.9-4.12-2.28,0-3.85,1.47-4.23,4.12Z" fill="#fff"/><path d="M90.14,233.42h7.58v3.27a7.83,7.83,0,0,1,6.9-3.86c5.16,0,9.35,3.86,9.35,11.38v.33c0,7.56-4.19,11.34-9.39,11.34-3.35,0-5.76-1.56-6.86-3.74v10.58H90.14Zm16.13,11.12v-.33c0-3.86-1.69-5.71-4.36-5.71s-4.4,2-4.4,5.67v.33c0,3.74,1.65,5.63,4.4,5.63S106.27,248.15,106.27,244.54Z" fill="#fff"/><path d="M115.45,249.29c0-5.17,4.4-7.18,11.77-7.18h2.11v-.51c0-2.09-.5-3.48-2.92-3.48a2.71,2.71,0,0,0-3,2.6H116.3c.34-5.29,4.53-7.89,10.58-7.89s10,2.48,10,8.31v14.23H129.5v-2.56c-1.05,1.6-3,3.07-6.56,3.07C119,255.88,115.45,254,115.45,249.29Zm13.88-1.6v-1.34h-2c-3,0-4.41.59-4.41,2.39,0,1.26.85,2.06,2.63,2.06C127.73,250.8,129.33,249.58,129.33,247.69Z" fill="#fff"/><path d="M140.55,233.42h7.57v4.36a7,7,0,0,1,7.16-4.65v7c-4.61-.13-7.16,1.3-7.16,4.82v10.41h-7.57Z" fill="#fff"/><path d="M156.25,249.29c0-5.17,4.4-7.18,11.77-7.18h2.11v-.51c0-2.09-.5-3.48-2.92-3.48a2.71,2.71,0,0,0-3,2.6H157.1c.34-5.29,4.53-7.89,10.58-7.89s10,2.48,10,8.31v14.23H170.3v-2.56c-1.06,1.6-3,3.07-6.56,3.07C159.76,255.88,156.25,254,156.25,249.29Zm13.88-1.6v-1.34h-2c-3,0-4.4.59-4.4,2.39,0,1.26.85,2.06,2.63,2.06C168.53,250.8,170.13,249.58,170.13,247.69Z" fill="#fff"/><path d="M180.16,244.67v-.34c0-7.3,5.29-11.5,11.81-11.5,5.42,0,10.41,2.35,10.84,9H195.7c-.34-2.06-1.36-3.19-3.56-3.19-2.67,0-4.23,1.89-4.23,5.58v.33c0,3.82,1.48,5.8,4.36,5.8a3.67,3.67,0,0,0,3.85-3.65h6.81c-.21,5.54-4,9.15-11.13,9.15C185.2,255.88,180.16,252.06,180.16,244.67Z" fill="#fff"/><path d="M205.22,227.46a3.94,3.94,0,0,1,4.14-3.91,3.9,3.9,0,1,1,0,7.77A3.9,3.9,0,0,1,205.22,227.46Zm.38,6h7.57v22H205.6Z" fill="#fff"/><path d="M216.05,244.67v-.34c0-7.05,5.29-11.5,12.15-11.5s12.06,4.33,12.06,11.29v.34c0,7.14-5.29,11.42-12.1,11.42S216.05,251.76,216.05,244.67Zm16.51-.13v-.33c0-3.7-1.48-5.75-4.36-5.75s-4.4,2-4.4,5.66v.34c0,3.78,1.48,5.83,4.4,5.83S232.56,248.19,232.56,244.54Zm-5.08-20.61h7.62l-4.45,7h-5.41Z" fill="#fff"/><path d="M242.92,233.42h7.58V237a7.83,7.83,0,0,1,7.28-4.12c4.28,0,7.24,2.65,7.24,8.27v14.27h-7.58V242.61c0-2.47-1-3.69-3.17-3.69s-3.77,1.34-3.77,4.15v12.3h-7.58Z" fill="#fff"/><path d="M20.14,287.63v-.34c0-7.47,4.15-11.46,9.4-11.46,3.47,0,5.54,1.47,6.81,3.7V266.76h7.58v31.61H36.35v-3.56a7.47,7.47,0,0,1-6.89,4.07C24.33,298.88,20.14,295.22,20.14,287.63Zm16.43-.13v-.33c0-3.7-1.57-5.67-4.36-5.67s-4.36,1.89-4.36,5.71v.33c0,3.7,1.65,5.59,4.27,5.59S36.57,291.24,36.57,287.5Z" fill="#fff"/><path d="M46.59,287.67v-.34c0-7.05,5.3-11.5,12-11.5,6.06,0,11.26,3.44,11.26,11.34v2H54.26c.21,2.89,1.9,4.57,4.61,4.57,2.5,0,3.55-1.13,3.85-2.6h7.11c-.67,4.95-4.53,7.77-11.21,7.77C51.67,298.88,46.59,294.85,46.59,287.67Zm15.88-2.77c-.13-2.65-1.44-4.12-3.9-4.12-2.28,0-3.85,1.47-4.23,4.12Z" fill="#fff"/><path d="M81.17,291.32v-9.78H78.5v-5.12h2.67v-4.58h7.58v4.58h4.36v5.12H88.75v9.07A2,2,0,0,0,91,292.92a5.86,5.86,0,0,0,2.16-.38v5.71a16.05,16.05,0,0,1-4.19.63C84,298.88,81.17,296.48,81.17,291.32Z" fill="#fff"/><path d="M94.8,292.29c0-5.17,4.4-7.18,11.76-7.18h2.12v-.51c0-2.09-.51-3.48-2.92-3.48a2.72,2.72,0,0,0-3,2.6H95.64c.34-5.29,4.53-7.89,10.59-7.89s10,2.48,10,8.31v14.23h-7.37v-2.56c-1.06,1.6-3,3.07-6.56,3.07C98.31,298.88,94.8,297,94.8,292.29Zm13.88-1.6v-1.34h-2c-3,0-4.4.59-4.4,2.39,0,1.26.85,2.06,2.62,2.06C107.07,293.8,108.68,292.58,108.68,290.69Z" fill="#fff"/><path d="M125.48,287.21l-6.9-10.79h8.72l3.43,5.79,3.34-5.79h7.79l-7,10.2,7.66,11.75h-8.72l-3.94-6.55-4,6.55h-7.74Z" fill="#fff"/><path d="M141.56,287.67v-.34c0-7.05,5.29-11.5,12-11.5,6.05,0,11.26,3.44,11.26,11.34v2H149.22c.22,2.89,1.91,4.57,4.62,4.57,2.5,0,3.55-1.13,3.85-2.6h7.11c-.68,4.95-4.53,7.77-11.22,7.77C146.64,298.88,141.56,294.85,141.56,287.67Zm15.88-2.77c-.13-2.65-1.44-4.12-3.9-4.12-2.28,0-3.85,1.47-4.23,4.12Z" fill="#fff"/><path d="M166.15,291.4h7c.25,1.6,1,2.48,3.13,2.48,1.86,0,2.71-.71,2.71-1.8s-1.06-1.56-4.11-2c-5.92-.75-8.42-2.47-8.42-7.05,0-4.87,4.36-7.22,9.48-7.22,5.46,0,9.27,1.85,9.78,7.1h-6.86c-.3-1.47-1.1-2.19-2.84-2.19s-2.49.72-2.49,1.72,1,1.47,3.72,1.81c6.14.75,9.1,2.35,9.1,7.05,0,5.21-3.89,7.56-10,7.56C170,298.88,166.32,296.27,166.15,291.4Z" fill="#fff"/><path d="M195.31,287.67v-.34c0-7.05,5.29-11.5,12-11.5,6.05,0,11.26,3.44,11.26,11.34v2H203c.21,2.89,1.91,4.57,4.62,4.57,2.49,0,3.55-1.13,3.85-2.6h7.11c-.68,4.95-4.53,7.77-11.22,7.77C200.39,298.88,195.31,294.85,195.31,287.67Zm15.87-2.77c-.12-2.65-1.43-4.12-3.89-4.12-2.29,0-3.85,1.47-4.23,4.12Z" fill="#fff"/><path d="M221.17,276.42h7.58V280a7.81,7.81,0,0,1,7.28-4.12c4.27,0,7.24,2.65,7.24,8.27v14.27h-7.58V285.61c0-2.47-1-3.69-3.18-3.69s-3.76,1.34-3.76,4.15v12.3h-7.58Z" fill="#fff"/><path d="M21.07,333.73V319.42h7.58v13.1c0,2.47,1,3.69,3.13,3.69s3.77-1.34,3.77-4.16V319.42h7.58v21.95H35.55V338c-1.18,2.27-3.34,3.91-7,3.91C24.25,341.88,21.07,339.27,21.07,333.73Z" fill="#fff"/><path d="M47,319.42h7.58V323a7.83,7.83,0,0,1,7.28-4.12c4.28,0,7.24,2.65,7.24,8.27v14.27H61.49V328.61c0-2.47-1-3.69-3.17-3.69s-3.77,1.34-3.77,4.15v12.3H47Z" fill="#fff"/><path d="M71.48,335.29c0-5.17,4.4-7.18,11.77-7.18h2.11v-.51c0-2.09-.51-3.48-2.92-3.48a2.71,2.71,0,0,0-3,2.6H72.33c.33-5.29,4.52-7.89,10.58-7.89s10,2.48,10,8.31v14.23H85.53v-2.56c-1.06,1.6-3,3.07-6.56,3.07C75,341.88,71.48,340,71.48,335.29Zm13.88-1.6v-1.34h-2c-3,0-4.4.59-4.4,2.39,0,1.26.85,2.06,2.63,2.06C83.75,336.8,85.36,335.58,85.36,333.69Z" fill="#fff"/><path d="M104.28,309.76h7.57V323a7.83,7.83,0,0,1,7.28-4.12c4.28,0,7.24,2.65,7.24,8.27v14.27H118.8V328.61c0-2.47-1-3.69-3.18-3.69s-3.77,1.34-3.77,4.15v12.3h-7.57Z" fill="#fff"/><path d="M128.87,330.67v-.34c0-7.05,5.29-11.5,12.14-11.5s12.07,4.33,12.07,11.29v.34c0,7.13-5.29,11.42-12.11,11.42S128.87,337.76,128.87,330.67Zm16.5-.13v-.33c0-3.7-1.48-5.75-4.36-5.75s-4.4,2-4.4,5.66v.34c0,3.78,1.48,5.83,4.4,5.83S145.37,334.2,145.37,330.54Z" fill="#fff"/><path d="M155.74,319.42h7.58v4.37a7,7,0,0,1,7.15-4.67v7c-4.61-.13-7.15,1.3-7.15,4.82v10.41h-7.58Z" fill="#fff"/><path d="M171.44,335.29c0-5.17,4.4-7.18,11.77-7.18h2.12v-.51c0-2.09-.51-3.48-2.92-3.48a2.71,2.71,0,0,0-3,2.6h-7.11c.34-5.29,4.53-7.89,10.58-7.89s10,2.48,10,8.31v14.23H185.5v-2.56c-1.06,1.6-3,3.07-6.57,3.07C175,341.88,171.44,340,171.44,335.29Zm13.89-1.6v-1.34h-2c-3.05,0-4.41.59-4.41,2.39,0,1.26.85,2.06,2.63,2.06C183.72,336.8,185.33,335.58,185.33,333.69Z" fill="#fff"/><path d="M196.24,337.59a4.2,4.2,0,0,1,4.32-4.23,4.24,4.24,0,1,1,0,8.47A4.2,4.2,0,0,1,196.24,337.59Z" fill="#fff"/></g></g></g></svg>