<svg xmlns="http://www.w3.org/2000/svg" viewBox="0 0 160 600"><title>Asset 10</title><g id="Layer_2" data-name="Layer 2"><g id="Rect"><rect width="160" height="600" fill="none"/></g><g id="Your_maximum_refund_guaranteed." data-name="Your maximum refund, guaranteed."><path d="M24.94,174.47l-4.78-8.38h4.57L27.21,171l2.48-4.94h4l-4.55,8.38v6.28H24.94Z" fill="#fff"/><path d="M32.18,175.52v-.16c0-3.45,2.56-5.62,5.88-5.62s5.84,2.11,5.84,5.51v.17c0,3.48-2.56,5.57-5.86,5.57S32.18,179,32.18,175.52Zm8-.06v-.17c0-1.8-.72-2.8-2.11-2.8s-2.13,1-2.13,2.76v.17c0,1.84.71,2.85,2.13,2.85S40.17,177.24,40.17,175.46Z" fill="#fff"/><path d="M45.11,177v-7h3.67v6.39c0,1.21.47,1.8,1.52,1.8s1.82-.65,1.82-2V170h3.67v10.72H52.12v-1.67a3.52,3.52,0,0,1-3.4,1.91C46.65,181,45.11,179.72,45.11,177Z" fill="#fff"/><path d="M57.66,170h3.67v2.13a3.37,3.37,0,0,1,3.46-2.28v3.43c-2.23-.07-3.46.63-3.46,2.35v5.09H57.66Z" fill="#fff"/><path d="M21.09,195.53h3.66v1.64a3.76,3.76,0,0,1,3.37-1.93A2.9,2.9,0,0,1,31,197a4.27,4.27,0,0,1,3.55-1.78c2,0,3.5,1.31,3.5,4v7H34.41v-6.4c0-1.08-.54-1.62-1.38-1.62A1.6,1.6,0,0,0,31.39,200v6.21H27.77v-6.4c0-1.08-.54-1.62-1.38-1.62A1.6,1.6,0,0,0,24.75,200v6.21H21.09Z" fill="#fff"/><path d="M39.25,203.27c0-2.52,2.13-3.5,5.7-3.5h1v-.25c0-1-.24-1.7-1.41-1.7a1.32,1.32,0,0,0-1.46,1.27H39.66c.16-2.58,2.19-3.85,5.12-3.85s4.84,1.21,4.84,4.06v6.95H46.05V205a3.51,3.51,0,0,1-3.17,1.5C41,206.49,39.25,205.55,39.25,203.27Zm6.72-.78v-.65H45c-1.48,0-2.13.29-2.13,1.17,0,.61.41,1,1.27,1A1.61,1.61,0,0,0,46,202.49Z" fill="#fff"/><path d="M54.11,200.79l-3.34-5.26H55l1.66,2.83,1.62-2.83H62l-3.38,5,3.71,5.74H58.15l-1.91-3.2-2,3.2H50.54Z" fill="#fff"/><path d="M63.32,192.62a1.91,1.91,0,0,1,2-1.91,1.9,1.9,0,1,1,0,3.79A1.9,1.9,0,0,1,63.32,192.62Zm.18,2.91h3.67v10.72H63.5Z" fill="#fff"/><path d="M69.14,195.53h3.67v1.64a3.73,3.73,0,0,1,3.36-1.93A2.92,2.92,0,0,1,79.08,197a4.24,4.24,0,0,1,3.54-1.78c2,0,3.51,1.31,3.51,4v7H82.46v-6.4c0-1.08-.54-1.62-1.38-1.62A1.59,1.59,0,0,0,79.45,200v6.21H75.82v-6.4c0-1.08-.53-1.62-1.37-1.62A1.59,1.59,0,0,0,72.81,200v6.21H69.14Z" fill="#fff"/><path d="M87.83,202.52v-7H91.5v6.39c0,1.21.47,1.8,1.52,1.8s1.82-.65,1.82-2v-6.17h3.67v10.72H94.84v-1.67a3.52,3.52,0,0,1-3.4,1.91C89.37,206.49,87.83,205.22,87.83,202.52Z" fill="#fff"/><path d="M100.38,195.53h3.67v1.64a3.73,3.73,0,0,1,3.36-1.93,2.92,2.92,0,0,1,2.91,1.78,4.24,4.24,0,0,1,3.54-1.78c2,0,3.51,1.31,3.51,4v7H113.7v-6.4c0-1.08-.53-1.62-1.37-1.62a1.59,1.59,0,0,0-1.64,1.81v6.21h-3.63v-6.4c0-1.08-.53-1.62-1.37-1.62a1.59,1.59,0,0,0-1.64,1.81v6.21h-3.67Z" fill="#fff"/><path d="M21.09,221h3.66v2.13a3.39,3.39,0,0,1,3.47-2.28v3.43c-2.24-.07-3.47.63-3.47,2.35v5.09H21.09Z" fill="#fff"/><path d="M28.88,226.52v-.16a5.48,5.48,0,0,1,5.8-5.62c2.93,0,5.45,1.68,5.45,5.53v1H32.59a2.14,2.14,0,0,0,2.23,2.23c1.21,0,1.72-.55,1.86-1.27h3.45c-.33,2.42-2.2,3.79-5.43,3.79S28.88,230,28.88,226.52Zm7.68-1.35c-.06-1.29-.7-2-1.88-2a2,2,0,0,0-2,2Z" fill="#fff"/><path d="M42,223.53H40.6V221H42v-.95c0-2.66,1.66-3.93,4.21-3.93a6.31,6.31,0,0,1,1.68.23v2.68a3.51,3.51,0,0,0-1-.14,1.07,1.07,0,0,0-1.23,1.16V221h2.17v2.5H45.6v8.22H42Z" fill="#fff"/><path d="M48.92,228v-7h3.67v6.39c0,1.21.47,1.8,1.52,1.8s1.82-.65,1.82-2V221H59.6v10.72H55.93v-1.67a3.52,3.52,0,0,1-3.4,1.91C50.46,232,48.92,230.72,48.92,228Z" fill="#fff"/><path d="M61.47,221h3.67v1.72a3.77,3.77,0,0,1,3.52-2c2.07,0,3.51,1.29,3.51,4v7H68.5v-6.23c0-1.21-.47-1.81-1.54-1.81s-1.82.66-1.82,2v6H61.47Z" fill="#fff"/><path d="M73.42,226.5v-.17c0-3.64,2-5.59,4.55-5.59a3.48,3.48,0,0,1,3.3,1.8v-6.23h3.67v15.44H81.27V230a3.6,3.6,0,0,1-3.34,2C75.45,232,73.42,230.21,73.42,226.5Zm8-.06v-.17c0-1.8-.75-2.76-2.11-2.76s-2.11.92-2.11,2.78v.17c0,1.8.8,2.72,2.07,2.72S81.37,228.26,81.37,226.44Z" fill="#fff"/><path d="M86.05,233.4,87.77,228l3.4,1.2-3,5Z" fill="#fff"/><path d="M20.49,257.25h3.65c.16.77.63,1.39,2,1.39a2,2,0,0,0,2.27-2.26v-1.64a3.74,3.74,0,0,1-3.32,2c-2.5,0-4.55-1.84-4.55-5.14v-.17c0-3.15,2-5.16,4.55-5.16a3.49,3.49,0,0,1,3.32,1.8v-1.51h3.67v9.81c0,3.2-2.11,4.88-5.94,4.88C22.46,261.22,20.78,259.68,20.49,257.25Zm8-5.7v-.15c0-1.47-.75-2.41-2.11-2.41s-2.11,1-2.11,2.43v.17c0,1.47.78,2.42,2.09,2.42S28.48,253.06,28.48,251.55Z" fill="#fff"/><path d="M33.84,253.52v-7H37.5v6.39c0,1.21.48,1.8,1.52,1.8s1.83-.65,1.83-2v-6.17h3.66v10.72H40.85v-1.67a3.53,3.53,0,0,1-3.41,1.91C35.37,257.49,33.84,256.22,33.84,253.52Z" fill="#fff"/><path d="M45.77,254.27c0-2.52,2.13-3.5,5.69-3.5h1v-.25c0-1-.25-1.7-1.41-1.7a1.32,1.32,0,0,0-1.46,1.27H46.18c.16-2.58,2.19-3.85,5.12-3.85s4.84,1.21,4.84,4.06v6.95H52.57V256a3.51,3.51,0,0,1-3.17,1.5C47.47,257.49,45.77,256.55,45.77,254.27Zm6.72-.78v-.65h-1c-1.48,0-2.13.29-2.13,1.17,0,.61.4,1,1.27,1A1.61,1.61,0,0,0,52.49,253.49Z" fill="#fff"/><path d="M57.92,246.53h3.67v2.13a3.39,3.39,0,0,1,3.47-2.28v3.43c-2.24-.07-3.47.63-3.47,2.35v5.09H57.92Z" fill="#fff"/><path d="M65.53,254.27c0-2.52,2.13-3.5,5.7-3.5h1v-.25c0-1-.24-1.7-1.41-1.7a1.32,1.32,0,0,0-1.46,1.27H65.94c.16-2.58,2.19-3.85,5.12-3.85s4.84,1.21,4.84,4.06v6.95H72.33V256a3.51,3.51,0,0,1-3.17,1.5C67.23,257.49,65.53,256.55,65.53,254.27Zm6.72-.78v-.65h-1c-1.48,0-2.13.29-2.13,1.17,0,.61.41,1,1.27,1A1.61,1.61,0,0,0,72.25,253.49Z" fill="#fff"/><path d="M77.69,246.53h3.66v1.72a3.8,3.8,0,0,1,3.53-2c2.07,0,3.5,1.29,3.5,4v7H84.71V251c0-1.21-.47-1.81-1.53-1.81s-1.83.66-1.83,2v6H77.69Z" fill="#fff"/><path d="M90.66,253.8V249H89.37v-2.5h1.29v-2.24h3.67v2.24h2.11V249H94.33v4.42a1,1,0,0,0,1.09,1.13,2.84,2.84,0,0,0,1-.18v2.78a7.4,7.4,0,0,1-2,.31C92,257.49,90.66,256.32,90.66,253.8Z" fill="#fff"/><path d="M97.26,252v-.16a5.48,5.48,0,0,1,5.8-5.62c2.93,0,5.45,1.68,5.45,5.53v1H101a2.14,2.14,0,0,0,2.24,2.23c1.21,0,1.72-.55,1.86-1.27h3.44c-.32,2.42-2.19,3.79-5.43,3.79S97.26,255.52,97.26,252Zm7.69-1.35c-.06-1.29-.7-2-1.89-2a2,2,0,0,0-2,2Z" fill="#fff"/><path d="M109.21,252v-.16a5.49,5.49,0,0,1,5.8-5.62c2.93,0,5.45,1.68,5.45,5.53v1h-7.54a2.15,2.15,0,0,0,2.24,2.23c1.21,0,1.72-.55,1.86-1.27h3.44c-.32,2.42-2.19,3.79-5.43,3.79S109.21,255.52,109.21,252Zm7.69-1.35c-.06-1.29-.7-2-1.89-2a2,2,0,0,0-2.05,2Z" fill="#fff"/><path d="M121.21,252v-.17c0-3.64,2-5.59,4.55-5.59a3.49,3.49,0,0,1,3.3,1.8v-6.23h3.66v15.44h-3.66V255.5a3.63,3.63,0,0,1-3.35,2C123.24,257.49,121.21,255.71,121.21,252Zm8-.06v-.17c0-1.8-.76-2.76-2.11-2.76s-2.11.92-2.11,2.78V252c0,1.8.8,2.72,2.07,2.72S129.16,253.76,129.16,251.94Z" fill="#fff"/><path d="M134.45,255.4a2,2,0,0,1,2.09-2.07,2.07,2.07,0,1,1,0,4.14A2,2,0,0,1,134.45,255.4Z" fill="#fff"/></g></g></svg>