<svg xmlns="http://www.w3.org/2000/svg" viewBox="0 0 300 250"><title>H125</title><g id="Layer_2" data-name="Layer 2"><g id="Rect"><rect width="300" height="250" fill="none"/></g><g id="H125"><g id="Encuentra_a_un_profesional_de_taxes_en_el_que_puedas_contar_ca" data-name="Encuentra a un  profesional de taxes en el que puedas contar ca"><path d="M20.8,33.75H33.66v4.08H26.11V41h6v3.77h-6v3.36h8v4.08H20.8Z" fill="#fff"/><path d="M35.93,38.71H40.6v2.17a4.81,4.81,0,0,1,4.48-2.53c2.63,0,4.45,1.63,4.45,5.09v8.78H44.87V44.37c0-1.53-.6-2.27-2-2.27s-2.31.82-2.31,2.55v7.57H35.93Z" fill="#fff"/><path d="M51.07,45.63v-.2c0-4.5,3.25-7.08,7.27-7.08,3.33,0,6.4,1.45,6.66,5.55H60.63a2,2,0,0,0-2.19-2c-1.64,0-2.61,1.16-2.61,3.44v.2c0,2.35.92,3.57,2.69,3.57a2.27,2.27,0,0,0,2.37-2.25h4.19c-.13,3.41-2.45,5.63-6.85,5.63C54.17,52.53,51.07,50.18,51.07,45.63Z" fill="#fff"/><path d="M66.49,47.52V38.71h4.66v8.06c0,1.53.6,2.27,1.93,2.27s2.32-.82,2.32-2.55V38.71h4.66V52.22H75.4V50.13a4.49,4.49,0,0,1-4.32,2.4C68.44,52.53,66.49,50.93,66.49,47.52Z" fill="#fff"/><path d="M81.71,45.63v-.2c0-4.34,3.25-7.08,7.37-7.08,3.72,0,6.92,2.12,6.92,7v1.22H86.42a2.7,2.7,0,0,0,2.84,2.81c1.54,0,2.19-.69,2.37-1.6H96c-.41,3-2.78,4.78-6.9,4.78S81.71,50.05,81.71,45.63Zm9.76-1.7c-.08-1.63-.88-2.53-2.39-2.53a2.59,2.59,0,0,0-2.61,2.53Z" fill="#fff"/><path d="M97.62,38.71h4.66v2.17a4.83,4.83,0,0,1,4.48-2.53c2.64,0,4.46,1.63,4.46,5.09v8.78h-4.66V44.37c0-1.53-.6-2.27-2-2.27s-2.32.82-2.32,2.55v7.57H97.62Z" fill="#fff"/><path d="M114.11,47.88v-6h-1.64V38.71h1.64V35.9h4.66v2.81h2.69v3.15h-2.69v5.58a1.24,1.24,0,0,0,1.39,1.42,3.42,3.42,0,0,0,1.32-.23v3.51a9.59,9.59,0,0,1-2.57.39C115.83,52.53,114.11,51.06,114.11,47.88Z" fill="#fff"/><path d="M123.23,38.71h4.66V41.4a4.29,4.29,0,0,1,4.4-2.87v4.31c-2.83-.07-4.4.81-4.4,3v6.4h-4.66Z" fill="#fff"/><path d="M132.9,48.48c0-3.18,2.7-4.42,7.24-4.42h1.3v-.31c0-1.29-.31-2.15-1.8-2.15a1.68,1.68,0,0,0-1.85,1.61h-4.37c.21-3.26,2.78-4.86,6.51-4.86s6.15,1.52,6.15,5.11v8.76h-4.54V50.65a4.48,4.48,0,0,1-4,1.88C135.06,52.53,132.9,51.34,132.9,48.48Zm8.54-1v-.82h-1.23c-1.87,0-2.7.36-2.7,1.47,0,.78.52,1.27,1.61,1.27C140.45,49.41,141.44,48.66,141.44,47.49Z" fill="#fff"/><path d="M152.3,48.48c0-3.18,2.71-4.42,7.24-4.42h1.31v-.31c0-1.29-.32-2.15-1.8-2.15a1.67,1.67,0,0,0-1.85,1.61h-4.38c.21-3.26,2.79-4.86,6.52-4.86s6.14,1.52,6.14,5.11v8.76H161V50.65a4.49,4.49,0,0,1-4,1.88C154.46,52.53,152.3,51.34,152.3,48.48Zm8.55-1v-.82h-1.23c-1.87,0-2.71.36-2.71,1.47,0,.78.52,1.27,1.62,1.27C159.86,49.41,160.85,48.66,160.85,47.49Z" fill="#fff"/><path d="M172.39,47.52V38.71h4.66v8.06c0,1.53.6,2.27,1.93,2.27s2.32-.82,2.32-2.55V38.71H186V52.22H181.3V50.13a4.5,4.5,0,0,1-4.33,2.4C174.34,52.53,172.39,50.93,172.39,47.52Z" fill="#fff"/><path d="M188.33,38.71H193v2.17a4.83,4.83,0,0,1,4.48-2.53c2.63,0,4.46,1.63,4.46,5.09v8.78h-4.66V44.37c0-1.53-.6-2.27-2-2.27s-2.32.82-2.32,2.55v7.57h-4.66Z" fill="#fff"/><path d="M20.38,67.34H25v2A4.82,4.82,0,0,1,29.29,67C32.47,67,35,69.35,35,74v.2c0,4.65-2.57,7-5.78,7A4.51,4.51,0,0,1,25,78.86v6.51H20.38Zm9.92,6.84V74c0-2.38-1-3.52-2.68-3.52S24.91,71.68,24.91,74v.21c0,2.3,1,3.46,2.71,3.46S30.3,76.4,30.3,74.18Z" fill="#fff"/><path d="M36.74,67.34H41.4V70a4.3,4.3,0,0,1,4.41-2.86v4.31c-2.84-.08-4.41.8-4.41,3v6.41H36.74Z" fill="#fff"/><path d="M46.64,74.26v-.21c0-4.34,3.26-7.07,7.48-7.07s7.42,2.66,7.42,6.94v.21c0,4.39-3.26,7-7.45,7S46.64,78.63,46.64,74.26Zm10.16-.08V74c0-2.28-.91-3.54-2.68-3.54s-2.71,1.21-2.71,3.48v.21c0,2.33.91,3.59,2.71,3.59S56.8,76.43,56.8,74.18Z" fill="#fff"/><path d="M63.89,70.49H62.17V67.34h1.72V66.15c0-3.36,2.11-5,5.34-5a8.53,8.53,0,0,1,2.13.28v3.39a4.08,4.08,0,0,0-1.27-.18,1.36,1.36,0,0,0-1.57,1.47v1.19h2.76v3.15H68.52V80.85H63.89Z" fill="#fff"/><path d="M71.65,74.26v-.21C71.65,69.71,74.91,67,79,67,82.75,67,86,69.09,86,74v1.21H76.36A2.72,2.72,0,0,0,79.2,78c1.54,0,2.19-.7,2.37-1.6H86c-.42,3.05-2.79,4.78-6.9,4.78C74.78,81.16,71.65,78.68,71.65,74.26Zm9.77-1.7C81.34,70.93,80.53,70,79,70a2.58,2.58,0,0,0-2.6,2.54Z" fill="#fff"/><path d="M86.79,76.56h4.29c.16,1,.6,1.52,1.93,1.52,1.15,0,1.67-.44,1.67-1.11s-.65-1-2.53-1.21C88.5,75.29,87,74.23,87,71.42c0-3,2.68-4.44,5.83-4.44,3.36,0,5.71,1.13,6,4.36H94.6A1.52,1.52,0,0,0,92.85,70c-1,0-1.53.44-1.53,1.06s.62.9,2.29,1.11c3.78.46,5.6,1.44,5.6,4.34,0,3.2-2.4,4.65-6.17,4.65S86.89,79.56,86.79,76.56Z" fill="#fff"/><path d="M100.62,63.67a2.42,2.42,0,0,1,2.55-2.4,2.4,2.4,0,1,1,0,4.78A2.4,2.4,0,0,1,100.62,63.67Zm.23,3.67h4.67V80.85h-4.67Z" fill="#fff"/><path d="M107.29,74.26v-.21c0-4.34,3.25-7.07,7.47-7.07s7.43,2.66,7.43,6.94v.21c0,4.39-3.26,7-7.45,7S107.29,78.63,107.29,74.26Zm10.16-.08V74c0-2.28-.92-3.54-2.69-3.54s-2.71,1.21-2.71,3.48v.21c0,2.33.92,3.59,2.71,3.59S117.45,76.43,117.45,74.18Z" fill="#fff"/><path d="M123.83,67.34h4.66v2.17A4.81,4.81,0,0,1,133,67c2.63,0,4.46,1.62,4.46,5.08v8.79h-4.67V73c0-1.52-.59-2.27-1.95-2.27s-2.32.83-2.32,2.56v7.57h-4.66Z" fill="#fff"/><path d="M138.91,77.1c0-3.18,2.71-4.42,7.24-4.42h1.31v-.31c0-1.29-.31-2.14-1.8-2.14a1.67,1.67,0,0,0-1.85,1.6h-4.37c.2-3.25,2.78-4.85,6.51-4.85s6.14,1.52,6.14,5.11v8.76h-4.53V79.27a4.49,4.49,0,0,1-4,1.89C141.08,81.16,138.91,80,138.91,77.1Zm8.55-1v-.83h-1.23c-1.87,0-2.71.37-2.71,1.48,0,.77.53,1.26,1.62,1.26C146.47,78,147.46,77.28,147.46,76.12Z" fill="#fff"/><path d="M154.49,61.4h4.64V80.85h-4.64Z" fill="#fff"/><path d="M165.69,74.23V74c0-4.6,2.56-7,5.79-7a4.42,4.42,0,0,1,4.19,2.27V61.4h4.66V80.85h-4.66v-2.2a4.6,4.6,0,0,1-4.25,2.51C168.27,81.16,165.69,78.91,165.69,74.23Zm10.11-.07V74c0-2.27-1-3.49-2.68-3.49s-2.69,1.16-2.69,3.52v.2c0,2.28,1,3.44,2.64,3.44S175.8,76.46,175.8,74.16Z" fill="#fff"/><path d="M182,74.26v-.21c0-4.34,3.25-7.07,7.37-7.07,3.72,0,6.93,2.11,6.93,7v1.21h-9.59A2.71,2.71,0,0,0,189.53,78c1.54,0,2.19-.7,2.37-1.6h4.38c-.42,3.05-2.79,4.78-6.91,4.78C185.1,81.16,182,78.68,182,74.26Zm9.76-1.7c-.07-1.63-.88-2.54-2.39-2.54a2.59,2.59,0,0,0-2.61,2.54Z" fill="#fff"/><path d="M203.26,76.51v-6h-1.64V67.34h1.64V64.52h4.66v2.82h2.69v3.15h-2.69v5.58a1.24,1.24,0,0,0,1.38,1.42,3.71,3.71,0,0,0,1.33-.23v3.51a9.61,9.61,0,0,1-2.58.39C205,81.16,203.26,79.69,203.26,76.51Z" fill="#fff"/><path d="M211.65,77.1c0-3.18,2.71-4.42,7.24-4.42h1.3v-.31c0-1.29-.31-2.14-1.8-2.14a1.66,1.66,0,0,0-1.84,1.6h-4.38c.21-3.25,2.79-4.85,6.51-4.85s6.15,1.52,6.15,5.11v8.76H220.3V79.27a4.49,4.49,0,0,1-4,1.89C213.81,81.16,211.65,80,211.65,77.1Zm8.54-1v-.83H219c-1.88,0-2.71.37-2.71,1.48,0,.77.52,1.26,1.61,1.26C219.2,78,220.19,77.28,220.19,76.12Z" fill="#fff"/><path d="M230.53,74l-4.24-6.64h5.36l2.11,3.56,2.06-3.56h4.79l-4.29,6.27L241,80.85h-5.36l-2.43-4-2.47,4H226Z" fill="#fff"/><path d="M240.44,74.26v-.21c0-4.34,3.25-7.07,7.37-7.07,3.72,0,6.93,2.11,6.93,7v1.21h-9.59A2.71,2.71,0,0,0,248,78c1.54,0,2.19-.7,2.37-1.6h4.38c-.42,3.05-2.79,4.78-6.91,4.78C243.56,81.16,240.44,78.68,240.44,74.26Zm9.76-1.7c-.08-1.63-.88-2.54-2.39-2.54a2.59,2.59,0,0,0-2.61,2.54Z" fill="#fff"/><path d="M255.57,76.56h4.3c.16,1,.6,1.52,1.93,1.52,1.14,0,1.66-.44,1.66-1.11s-.65-1-2.52-1.21c-3.65-.47-5.19-1.53-5.19-4.34,0-3,2.69-4.44,5.84-4.44,3.36,0,5.7,1.13,6,4.36h-4.22A1.53,1.53,0,0,0,261.64,70c-1,0-1.54.44-1.54,1.06s.63.9,2.3,1.11c3.77.46,5.6,1.44,5.6,4.34,0,3.2-2.4,4.65-6.18,4.65S255.68,79.56,255.57,76.56Z" fill="#fff"/><path d="M19.65,102.89v-.21c0-4.34,3.26-7.08,7.37-7.08,3.73,0,6.93,2.12,6.93,7v1.21H24.37a2.71,2.71,0,0,0,2.83,2.82c1.54,0,2.19-.7,2.38-1.61H34c-.42,3-2.79,4.78-6.9,4.78C22.78,109.78,19.65,107.3,19.65,102.89Zm9.77-1.71c-.08-1.63-.89-2.53-2.4-2.53a2.58,2.58,0,0,0-2.6,2.53Z" fill="#fff"/><path d="M35.57,96h4.66v2.17a4.82,4.82,0,0,1,4.48-2.53c2.63,0,4.46,1.63,4.46,5.09v8.78H44.5v-7.85c0-1.52-.6-2.27-2-2.27s-2.32.82-2.32,2.55v7.57H35.57Z" fill="#fff"/><path d="M55.45,102.89v-.21c0-4.34,3.25-7.08,7.37-7.08,3.72,0,6.92,2.12,6.92,7v1.21H60.16A2.71,2.71,0,0,0,63,106.61c1.54,0,2.19-.7,2.37-1.61h4.37c-.41,3-2.78,4.78-6.9,4.78C58.57,109.78,55.45,107.3,55.45,102.89Zm9.76-1.71c-.08-1.63-.88-2.53-2.39-2.53a2.59,2.59,0,0,0-2.61,2.53Z" fill="#fff"/><path d="M71.49,90h4.64v19.45H71.49Z" fill="#fff"/><path d="M92.67,107.38a4.72,4.72,0,0,1-4.25,2.4c-3.15,0-5.73-2.24-5.73-6.92v-.21c0-4.6,2.56-7.05,5.79-7.05a4.42,4.42,0,0,1,4.19,2.27V96h4.66v18H92.67Zm.13-4.6v-.2c0-2.28-1-3.49-2.68-3.49s-2.69,1.16-2.69,3.51v.21c0,2.27,1,3.43,2.64,3.43S92.8,105.08,92.8,102.78Z" fill="#fff"/><path d="M99.6,104.77V96h4.66V104c0,1.53.6,2.28,1.93,2.28s2.32-.83,2.32-2.56V96h4.66v13.51h-4.66v-2.09a4.47,4.47,0,0,1-4.32,2.4C101.56,109.78,99.6,108.18,99.6,104.77Z" fill="#fff"/><path d="M114.82,102.89v-.21c0-4.34,3.25-7.08,7.37-7.08,3.72,0,6.92,2.12,6.92,7v1.21h-9.58a2.71,2.71,0,0,0,2.84,2.82c1.54,0,2.19-.7,2.37-1.61h4.37c-.41,3-2.78,4.78-6.9,4.78S114.82,107.3,114.82,102.89Zm9.76-1.71c-.08-1.63-.88-2.53-2.39-2.53a2.59,2.59,0,0,0-2.61,2.53Z" fill="#fff"/><path d="M135.47,96h4.67v2a4.81,4.81,0,0,1,4.24-2.38c3.18,0,5.76,2.38,5.76,7v.21c0,4.65-2.58,7-5.79,7a4.47,4.47,0,0,1-4.21-2.3V114h-4.67Zm9.93,6.85v-.21c0-2.37-1.05-3.51-2.69-3.51s-2.7,1.21-2.7,3.49v.2c0,2.3,1,3.46,2.7,3.46S145.4,105,145.4,102.81Z" fill="#fff"/><path d="M151.73,104.77V96h4.66V104c0,1.53.6,2.28,1.93,2.28s2.32-.83,2.32-2.56V96h4.66v13.51h-4.66v-2.09a4.48,4.48,0,0,1-4.33,2.4C153.68,109.78,151.73,108.18,151.73,104.77Z" fill="#fff"/><path d="M166.94,102.89v-.21c0-4.34,3.26-7.08,7.37-7.08,3.73,0,6.93,2.12,6.93,7v1.21h-9.58a2.71,2.71,0,0,0,2.84,2.82c1.53,0,2.18-.7,2.37-1.61h4.37c-.41,3-2.78,4.78-6.9,4.78C170.07,109.78,166.94,107.3,166.94,102.89Zm9.77-1.71c-.08-1.63-.89-2.53-2.4-2.53a2.58,2.58,0,0,0-2.6,2.53Z" fill="#fff"/><path d="M182.18,102.86v-.21c0-4.6,2.55-7.05,5.78-7.05a4.42,4.42,0,0,1,4.2,2.27V90h4.66v19.45h-4.66v-2.19a4.61,4.61,0,0,1-4.25,2.5C184.76,109.78,182.18,107.54,182.18,102.86Zm10.11-.08v-.2c0-2.28-1-3.49-2.68-3.49s-2.69,1.16-2.69,3.51v.21c0,2.27,1,3.43,2.63,3.43S192.29,105.08,192.29,102.78Z" fill="#fff"/><path d="M198.41,105.73c0-3.18,2.71-4.42,7.24-4.42H207V101c0-1.29-.32-2.14-1.8-2.14a1.66,1.66,0,0,0-1.85,1.6h-4.38c.21-3.26,2.79-4.86,6.51-4.86s6.15,1.52,6.15,5.12v8.75h-4.53V107.9a4.49,4.49,0,0,1-4,1.88C200.57,109.78,198.41,108.59,198.41,105.73Zm8.55-1v-.83h-1.23c-1.87,0-2.71.36-2.71,1.47,0,.78.52,1.27,1.62,1.27C206,106.66,207,105.91,207,104.75Z" fill="#fff"/><path d="M213,105.19h4.3c.15,1,.59,1.52,1.92,1.52,1.15,0,1.67-.44,1.67-1.11s-.65-1-2.53-1.22c-3.64-.46-5.18-1.52-5.18-4.34,0-3,2.68-4.44,5.83-4.44,3.37,0,5.71,1.14,6,4.37h-4.22A1.52,1.52,0,0,0,219,98.62c-1,0-1.54.44-1.54,1.06s.63.91,2.29,1.11c3.78.47,5.6,1.45,5.6,4.34,0,3.21-2.39,4.65-6.17,4.65S213.05,108.18,213,105.19Z" fill="#fff"/><path d="M19.65,131.51v-.21c0-4.49,3.26-7.07,7.27-7.07,3.33,0,6.41,1.44,6.67,5.55H29.21a2,2,0,0,0-2.19-2c-1.64,0-2.6,1.16-2.6,3.43v.21c0,2.35.91,3.56,2.68,3.56a2.26,2.26,0,0,0,2.37-2.24h4.19c-.13,3.41-2.44,5.63-6.85,5.63C22.75,138.41,19.65,136.06,19.65,131.51Z" fill="#fff"/><path d="M34.45,131.51v-.21c0-4.34,3.25-7.07,7.47-7.07s7.43,2.66,7.43,7v.2c0,4.39-3.26,7-7.45,7S34.45,135.88,34.45,131.51Zm10.16-.08v-.2c0-2.28-.91-3.54-2.69-3.54s-2.71,1.21-2.71,3.49v.2c0,2.33.92,3.59,2.71,3.59S44.61,133.68,44.61,131.43Z" fill="#fff"/><path d="M51,124.59h4.66v2.17a4.81,4.81,0,0,1,4.48-2.53c2.63,0,4.46,1.62,4.46,5.09v8.78H59.92v-7.85c0-1.53-.59-2.28-2-2.28s-2.32.83-2.32,2.56v7.57H51Z" fill="#fff"/><path d="M67.48,133.76v-6H65.84v-3.15h1.64v-2.82h4.66v2.82h2.69v3.15H72.14v5.58a1.24,1.24,0,0,0,1.38,1.42,3.67,3.67,0,0,0,1.33-.23V138a9.61,9.61,0,0,1-2.58.39C69.2,138.41,67.48,136.94,67.48,133.76Z" fill="#fff"/><path d="M75.87,134.35c0-3.17,2.71-4.41,7.24-4.41h1.3v-.32c0-1.29-.31-2.14-1.79-2.14a1.66,1.66,0,0,0-1.85,1.6H76.39c.21-3.25,2.79-4.85,6.51-4.85s6.15,1.52,6.15,5.11v8.76H84.52v-1.58a4.49,4.49,0,0,1-4,1.89C78,138.41,75.87,137.22,75.87,134.35Zm8.54-1v-.83H83.19c-1.88,0-2.71.37-2.71,1.48,0,.77.52,1.26,1.62,1.26C83.42,135.28,84.41,134.53,84.41,133.37Z" fill="#fff"/><path d="M91.32,124.59H96v2.68a4.29,4.29,0,0,1,4.4-2.86v4.31c-2.84-.08-4.4.8-4.4,3v6.41H91.32Z" fill="#fff"/><path d="M106.09,131.51v-.21c0-4.49,3.26-7.07,7.27-7.07,3.33,0,6.4,1.44,6.66,5.55h-4.37a2,2,0,0,0-2.19-2c-1.64,0-2.6,1.16-2.6,3.43v.21c0,2.35.91,3.56,2.68,3.56a2.26,2.26,0,0,0,2.37-2.24h4.19c-.13,3.41-2.45,5.63-6.85,5.63C109.19,138.41,106.09,136.06,106.09,131.51Z" fill="#fff"/><path d="M120.91,134.35c0-3.17,2.71-4.41,7.24-4.41h1.31v-.32c0-1.29-.32-2.14-1.8-2.14a1.66,1.66,0,0,0-1.85,1.6h-4.38c.21-3.25,2.79-4.85,6.51-4.85s6.15,1.52,6.15,5.11v8.76h-4.53v-1.58a4.49,4.49,0,0,1-4,1.89C123.07,138.41,120.91,137.22,120.91,134.35Zm8.55-1v-.83h-1.23c-1.87,0-2.71.37-2.71,1.48,0,.77.52,1.26,1.62,1.26C128.47,135.28,129.46,134.53,129.46,133.37Z" fill="#fff"/><path d="M135.68,131.49v-.21c0-4.6,2.56-7,5.79-7a4.42,4.42,0,0,1,4.19,2.27v-7.85h4.66V138.1h-4.66v-2.2a4.6,4.6,0,0,1-4.25,2.51C138.26,138.41,135.68,136.16,135.68,131.49Zm10.11-.08v-.21c0-2.27-1-3.49-2.68-3.49s-2.69,1.17-2.69,3.52v.2c0,2.28,1,3.44,2.63,3.44S145.79,133.71,145.79,131.41Z" fill="#fff"/><path d="M151.91,134.35c0-3.17,2.71-4.41,7.24-4.41h1.31v-.32c0-1.29-.32-2.14-1.8-2.14a1.66,1.66,0,0,0-1.85,1.6h-4.38c.21-3.25,2.79-4.85,6.52-4.85s6.14,1.52,6.14,5.11v8.76h-4.53v-1.58a4.49,4.49,0,0,1-4,1.89C154.07,138.41,151.91,137.22,151.91,134.35Zm8.55-1v-.83h-1.23c-1.87,0-2.71.37-2.71,1.48,0,.77.52,1.26,1.62,1.26C159.47,135.28,160.46,134.53,160.46,133.37Z" fill="#fff"/><path d="M171.32,134.35c0-3.17,2.71-4.41,7.24-4.41h1.3v-.32c0-1.29-.31-2.14-1.79-2.14a1.66,1.66,0,0,0-1.85,1.6h-4.38c.21-3.25,2.79-4.85,6.51-4.85s6.15,1.52,6.15,5.11v8.76H180v-1.58a4.49,4.49,0,0,1-4,1.89C173.48,138.41,171.32,137.22,171.32,134.35Zm8.54-1v-.83h-1.22c-1.88,0-2.71.37-2.71,1.48,0,.77.52,1.26,1.62,1.26C178.87,135.28,179.86,134.53,179.86,133.37Z" fill="#fff"/><path d="M186.77,124.59h4.66v2.17a4.81,4.81,0,0,1,4.48-2.53c2.63,0,4.46,1.62,4.46,5.09v8.78H195.7v-7.85c0-1.53-.6-2.28-1.95-2.28s-2.32.83-2.32,2.56v7.57h-4.66Zm5.39-2.51a.87.87,0,0,0-.81.83h-2.52c.18-2.71,1.38-4,3-4,1.41,0,2.24.88,3.1.88.47,0,.73-.34.83-.83h2.53c-.21,2.69-1.51,4-3.07,4S193,122.08,192.16,122.08Z" fill="#fff"/><path d="M201.91,131.51v-.21c0-4.34,3.25-7.07,7.47-7.07s7.42,2.66,7.42,7v.2c0,4.39-3.25,7-7.45,7S201.91,135.88,201.91,131.51Zm10.15-.08v-.2c0-2.28-.91-3.54-2.68-3.54s-2.71,1.21-2.71,3.49v.2c0,2.33.91,3.59,2.71,3.59S212.06,133.68,212.06,131.43Z" fill="#fff"/><path d="M217.69,135.77a2.59,2.59,0,0,1,2.66-2.61,2.61,2.61,0,1,1,0,5.22A2.59,2.59,0,0,1,217.69,135.77Z" fill="#fff"/></g></g></g></svg>