<svg xmlns="http://www.w3.org/2000/svg" viewBox="0 0 728 90"><title>136</title><g id="Layer_2" data-name="Layer 2"><g id="Rect"><rect width="728" height="90" fill="none"/></g><g id="_136" data-name="136"><g id="_No_other_package_can_match_across_usability_features_support" data-name="&quot;No other package can match across usability, features, support"><path d="M108.18,25.78h3.46l-.43,5.67h-2.62Zm4.37,0H116l-.43,5.67H113Z" fill="#fff"/><path d="M118.27,25.78H123l4.72,8.31V25.78h3.69V40.52h-4.09L122,31.26v9.26h-3.71Z" fill="#fff"/><path d="M133.24,35.26V35.1c0-3.47,2.57-5.65,5.91-5.65S145,31.57,145,35v.17c0,3.5-2.58,5.61-5.9,5.61S133.24,38.75,133.24,35.26Zm8-.06V35c0-1.82-.73-2.83-2.13-2.83S137,33.18,137,35v.17c0,1.85.72,2.86,2.14,2.86S141.28,37,141.28,35.2Z" fill="#fff"/><path d="M150.11,35.26V35.1c0-3.47,2.58-5.65,5.92-5.65s5.88,2.12,5.88,5.54v.17c0,3.5-2.58,5.61-5.9,5.61S150.11,38.75,150.11,35.26Zm8-.06V35c0-1.82-.72-2.83-2.12-2.83s-2.14,1-2.14,2.78v.17c0,1.85.72,2.86,2.14,2.86S158.15,37,158.15,35.2Z" fill="#fff"/><path d="M164,37.06V32.25h-1.29V29.74H164V27.49h3.69v2.25h2.13v2.51h-2.13v4.46a1,1,0,0,0,1.1,1.13,2.69,2.69,0,0,0,1.05-.19v2.81a8,8,0,0,1-2,.31C165.37,40.77,164,39.59,164,37.06Z" fill="#fff"/><path d="M171.53,25h3.69v6.47a3.8,3.8,0,0,1,3.54-2c2.08,0,3.53,1.3,3.53,4.06v7H178.6V34.25c0-1.21-.48-1.81-1.55-1.81s-1.83.66-1.83,2v6h-3.69Z" fill="#fff"/><path d="M183.81,35.26V35.1a5.51,5.51,0,0,1,5.83-5.65c3,0,5.49,1.69,5.49,5.56v1h-7.59a2.15,2.15,0,0,0,2.25,2.25c1.21,0,1.73-.56,1.87-1.28h3.47c-.33,2.43-2.21,3.82-5.47,3.82S183.81,38.79,183.81,35.26Zm7.73-1.36c-.06-1.3-.7-2-1.9-2a2.05,2.05,0,0,0-2.06,2Z" fill="#fff"/><path d="M196.71,29.74h3.69v2.14a3.39,3.39,0,0,1,3.48-2.29V33c-2.24-.07-3.48.63-3.48,2.37v5.11h-3.69Z" fill="#fff"/><path d="M209.59,29.74h3.69v1.61a3.79,3.79,0,0,1,3.36-1.9c2.52,0,4.56,1.9,4.56,5.59v.16c0,3.71-2,5.57-4.58,5.57a3.57,3.57,0,0,1-3.34-1.84v5.2h-3.69Zm7.85,5.46V35c0-1.9-.82-2.81-2.12-2.81s-2.14,1-2.14,2.78v.17c0,1.83.8,2.76,2.14,2.76S217.44,37,217.44,35.2Z" fill="#fff"/><path d="M222.22,37.53C222.22,35,224.37,34,228,34h1v-.24c0-1-.25-1.71-1.43-1.71a1.31,1.31,0,0,0-1.46,1.27h-3.46c.16-2.59,2.2-3.87,5.15-3.87s4.86,1.21,4.86,4.08v7h-3.58V39.26a3.57,3.57,0,0,1-3.2,1.51C223.93,40.77,222.22,39.82,222.22,37.53Zm6.77-.78v-.66h-1c-1.49,0-2.15.29-2.15,1.17,0,.62.41,1,1.28,1A1.63,1.63,0,0,0,229,36.75Z" fill="#fff"/><path d="M234.18,35.26V35.1a5.42,5.42,0,0,1,5.75-5.65c2.64,0,5.07,1.15,5.28,4.43h-3.47A1.59,1.59,0,0,0,240,32.31c-1.3,0-2.06.93-2.06,2.75v.16c0,1.88.72,2.85,2.12,2.85a1.81,1.81,0,0,0,1.88-1.8h3.32c-.11,2.72-1.94,4.5-5.42,4.5C236.63,40.77,234.18,38.89,234.18,35.26Z" fill="#fff"/><path d="M246.77,25h3.69v9l2.91-4.26h3.83l-3.53,4.84,3.82,5.94h-4.12l-2.91-4.72v4.72h-3.69Z" fill="#fff"/><path d="M257.79,37.53c0-2.54,2.15-3.53,5.74-3.53h1v-.24c0-1-.25-1.71-1.43-1.71a1.31,1.31,0,0,0-1.46,1.27h-3.46c.16-2.59,2.2-3.87,5.15-3.87s4.87,1.21,4.87,4.08v7h-3.59V39.26a3.57,3.57,0,0,1-3.2,1.51C259.51,40.77,257.79,39.82,257.79,37.53Zm6.77-.78v-.66h-1c-1.49,0-2.15.29-2.15,1.17,0,.62.42,1,1.28,1A1.63,1.63,0,0,0,264.56,36.75Z" fill="#fff"/><path d="M269.73,40.52h3.67c.16.78.64,1.4,2,1.4a2,2,0,0,0,2.28-2.27V38a3.77,3.77,0,0,1-3.34,2c-2.51,0-4.57-1.85-4.57-5.17v-.17c0-3.17,2-5.19,4.57-5.19a3.51,3.51,0,0,1,3.34,1.81V29.74h3.69v9.87c0,3.22-2.12,4.91-6,4.91C271.71,44.52,270,43,269.73,40.52Zm8-5.73v-.15c0-1.48-.77-2.43-2.13-2.43s-2.12,1-2.12,2.45v.17c0,1.48.78,2.43,2.1,2.43S277.77,36.31,277.77,34.79Z" fill="#fff"/><path d="M283,35.26V35.1a5.51,5.51,0,0,1,5.83-5.65c2.95,0,5.48,1.69,5.48,5.56v1h-7.58a2.15,2.15,0,0,0,2.25,2.25c1.21,0,1.73-.56,1.87-1.28h3.46c-.33,2.43-2.2,3.82-5.46,3.82S283,38.79,283,35.26Zm7.73-1.36c-.06-1.3-.7-2-1.9-2a2.05,2.05,0,0,0-2.06,2Z" fill="#fff"/><path d="M299.34,35.26V35.1a5.42,5.42,0,0,1,5.75-5.65c2.64,0,5.07,1.15,5.28,4.43h-3.46a1.6,1.6,0,0,0-1.74-1.57c-1.29,0-2.06.93-2.06,2.75v.16c0,1.88.72,2.85,2.13,2.85a1.79,1.79,0,0,0,1.87-1.8h3.32c-.1,2.72-1.94,4.5-5.42,4.5C301.79,40.77,299.34,38.89,299.34,35.26Z" fill="#fff"/><path d="M311.38,37.53c0-2.54,2.14-3.53,5.73-3.53h1v-.24c0-1-.25-1.71-1.42-1.71a1.32,1.32,0,0,0-1.47,1.27h-3.46c.16-2.59,2.2-3.87,5.15-3.87s4.87,1.21,4.87,4.08v7h-3.59V39.26a3.55,3.55,0,0,1-3.2,1.51C313.09,40.77,311.38,39.82,311.38,37.53Zm6.76-.78v-.66h-1c-1.49,0-2.15.29-2.15,1.17,0,.62.42,1,1.28,1A1.63,1.63,0,0,0,318.14,36.75Z" fill="#fff"/><path d="M323.91,29.74h3.69v1.73a3.8,3.8,0,0,1,3.54-2c2.08,0,3.53,1.3,3.53,4.06v7H331V34.25c0-1.21-.48-1.81-1.55-1.81s-1.83.66-1.83,2v6h-3.69Z" fill="#fff"/><path d="M340.83,29.74h3.69v1.65a3.76,3.76,0,0,1,3.38-1.94,2.93,2.93,0,0,1,2.92,1.79,4.27,4.27,0,0,1,3.57-1.79c2,0,3.53,1.32,3.53,4v7.05h-3.69V34.09c0-1.1-.54-1.63-1.39-1.63a1.6,1.6,0,0,0-1.65,1.81v6.25h-3.64V34.09c0-1.1-.54-1.63-1.39-1.63a1.6,1.6,0,0,0-1.64,1.81v6.25h-3.69Z" fill="#fff"/><path d="M359.39,37.53c0-2.54,2.15-3.53,5.73-3.53h1v-.24c0-1-.25-1.71-1.43-1.71a1.31,1.31,0,0,0-1.46,1.27h-3.46c.16-2.59,2.2-3.87,5.15-3.87s4.87,1.21,4.87,4.08v7h-3.59V39.26a3.57,3.57,0,0,1-3.2,1.51C361.1,40.77,359.39,39.82,359.39,37.53Zm6.77-.78v-.66h-1c-1.49,0-2.15.29-2.15,1.17,0,.62.42,1,1.28,1A1.63,1.63,0,0,0,366.16,36.75Z" fill="#fff"/><path d="M372.36,37.06V32.25h-1.3V29.74h1.3V27.49h3.69v2.25h2.12v2.51h-2.12v4.46a1,1,0,0,0,1.09,1.13,2.69,2.69,0,0,0,1.05-.19v2.81a7.83,7.83,0,0,1-2,.31C373.72,40.77,372.36,39.59,372.36,37.06Z" fill="#fff"/><path d="M379.3,35.26V35.1a5.42,5.42,0,0,1,5.75-5.65c2.64,0,5.07,1.15,5.28,4.43h-3.46a1.6,1.6,0,0,0-1.73-1.57c-1.3,0-2.07.93-2.07,2.75v.16c0,1.88.73,2.85,2.13,2.85a1.79,1.79,0,0,0,1.87-1.8h3.32c-.1,2.72-1.94,4.5-5.42,4.5C381.75,40.77,379.3,38.89,379.3,35.26Z" fill="#fff"/><path d="M391.89,25h3.69v6.47a3.82,3.82,0,0,1,3.55-2c2.08,0,3.52,1.3,3.52,4.06v7H399V34.25c0-1.21-.47-1.81-1.54-1.81s-1.84.66-1.84,2v6h-3.69Z" fill="#fff"/><path d="M408.2,37.53c0-2.54,2.14-3.53,5.73-3.53h1v-.24c0-1-.25-1.71-1.43-1.71a1.31,1.31,0,0,0-1.46,1.27h-3.46c.16-2.59,2.2-3.87,5.15-3.87s4.87,1.21,4.87,4.08v7H415V39.26a3.55,3.55,0,0,1-3.2,1.51C409.91,40.77,408.2,39.82,408.2,37.53Zm6.76-.78v-.66h-1c-1.49,0-2.15.29-2.15,1.17,0,.62.42,1,1.28,1A1.63,1.63,0,0,0,415,36.75Z" fill="#fff"/><path d="M420.15,35.26V35.1a5.42,5.42,0,0,1,5.75-5.65c2.64,0,5.07,1.15,5.28,4.43h-3.47A1.59,1.59,0,0,0,426,32.31c-1.3,0-2.06.93-2.06,2.75v.16c0,1.88.72,2.85,2.12,2.85a1.8,1.8,0,0,0,1.88-1.8h3.32c-.1,2.72-1.94,4.5-5.42,4.5C422.6,40.77,420.15,38.89,420.15,35.26Z" fill="#fff"/><path d="M432.74,29.74h3.69v2.14a3.39,3.39,0,0,1,3.48-2.29V33c-2.24-.07-3.48.63-3.48,2.37v5.11h-3.69Z" fill="#fff"/><path d="M440.88,35.26V35.1c0-3.47,2.58-5.65,5.92-5.65s5.87,2.12,5.87,5.54v.17c0,3.5-2.57,5.61-5.89,5.61S440.88,38.75,440.88,35.26Zm8-.06V35c0-1.82-.72-2.83-2.12-2.83s-2.15,1-2.15,2.78v.17c0,1.85.73,2.86,2.15,2.86S448.92,37,448.92,35.2Z" fill="#fff"/><path d="M453.62,37.1H457c.12.78.47,1.21,1.52,1.21s1.32-.35,1.32-.88-.51-.77-2-1c-2.88-.37-4.1-1.22-4.1-3.47s2.12-3.54,4.62-3.54c2.66,0,4.51.91,4.76,3.48H459.8a1.2,1.2,0,0,0-1.38-1.07c-.8,0-1.22.35-1.22.85s.5.72,1.82.88c3,.37,4.43,1.16,4.43,3.47,0,2.55-1.9,3.71-4.89,3.71S453.7,39.49,453.62,37.1Z" fill="#fff"/><path d="M464.29,37.1h3.4c.13.78.48,1.21,1.53,1.21.9,0,1.32-.35,1.32-.88s-.52-.77-2-1c-2.89-.37-4.1-1.22-4.1-3.47s2.12-3.54,4.61-3.54c2.66,0,4.52.91,4.76,3.48h-3.33a1.21,1.21,0,0,0-1.39-1.07c-.8,0-1.21.35-1.21.85s.49.72,1.81.88c3,.37,4.43,1.16,4.43,3.47,0,2.55-1.89,3.71-4.88,3.71S464.37,39.49,464.29,37.1Z" fill="#fff"/><path d="M479.6,36.77v-7h3.69v6.43c0,1.22.48,1.81,1.53,1.81s1.83-.66,1.83-2v-6.2h3.69V40.52h-3.69V38.85a3.54,3.54,0,0,1-3.42,1.92C481.15,40.77,479.6,39.49,479.6,36.77Z" fill="#fff"/><path d="M491.8,37.1h3.4c.13.78.48,1.21,1.53,1.21s1.32-.35,1.32-.88-.52-.77-2-1c-2.89-.37-4.1-1.22-4.1-3.47s2.12-3.54,4.61-3.54c2.66,0,4.52.91,4.77,3.48H498a1.21,1.21,0,0,0-1.38-1.07c-.81,0-1.22.35-1.22.85s.49.72,1.81.88c3,.37,4.44,1.16,4.44,3.47,0,2.55-1.9,3.71-4.89,3.71S491.88,39.49,491.8,37.1Z" fill="#fff"/><path d="M502.52,37.53c0-2.54,2.14-3.53,5.73-3.53h1v-.24c0-1-.25-1.71-1.42-1.71a1.33,1.33,0,0,0-1.47,1.27h-3.46c.17-2.59,2.21-3.87,5.15-3.87S513,30.66,513,33.53v7h-3.59V39.26a3.54,3.54,0,0,1-3.19,1.51C504.23,40.77,502.52,39.82,502.52,37.53Zm6.76-.78v-.66h-1c-1.48,0-2.14.29-2.14,1.17,0,.62.41,1,1.28,1A1.62,1.62,0,0,0,509.28,36.75Z" fill="#fff"/><path d="M518.74,38.85v1.67h-3.69V25h3.69v6.35a3.79,3.79,0,0,1,3.36-1.9c2.52,0,4.56,1.9,4.56,5.59v.16c0,3.71-2,5.57-4.58,5.57A3.51,3.51,0,0,1,518.74,38.85Zm4.16-3.65V35c0-1.9-.82-2.81-2.12-2.81s-2.14,1-2.14,2.78v.17c0,1.83.8,2.76,2.14,2.76S522.9,37,522.9,35.2Z" fill="#fff"/><path d="M528.22,26.81a1.93,1.93,0,0,1,2-1.92,1.91,1.91,0,1,1,0,3.82A1.91,1.91,0,0,1,528.22,26.81Zm.18,2.93h3.69V40.52H528.4Z" fill="#fff"/><path d="M534.48,25h3.67V40.52h-3.67Z" fill="#fff"/><path d="M540.36,26.81a1.93,1.93,0,0,1,2-1.92,1.91,1.91,0,1,1,0,3.82A1.91,1.91,0,0,1,540.36,26.81Zm.18,2.93h3.69V40.52h-3.69Z" fill="#fff"/><path d="M547,37.06V32.25h-1.29V29.74H547V27.49h3.69v2.25h2.13v2.51H550.7v4.46a1,1,0,0,0,1.1,1.13,2.69,2.69,0,0,0,1.05-.19v2.81a8,8,0,0,1-2,.31C548.38,40.77,547,39.59,547,37.06Z" fill="#fff"/><path d="M557.92,39.43l-4.31-9.69h4l2.22,5.75,2.07-5.75h3.52l-5.77,14.39h-3.53Z" fill="#fff"/><path d="M564.33,42.19l1.73-5.42L569.48,38l-3,5.05Z" fill="#fff"/><path d="M109,54.45h-1.36V51.93H109V51c0-2.68,1.67-3.95,4.23-3.95a6.8,6.8,0,0,1,1.69.22V50a3.51,3.51,0,0,0-1-.14A1.08,1.08,0,0,0,112.65,51v1h2.18v2.52h-2.18v8.26H109Z" fill="#fff"/><path d="M115.43,57.46v-.17a5.52,5.52,0,0,1,5.83-5.65c2.95,0,5.49,1.69,5.49,5.57v1h-7.59a2.15,2.15,0,0,0,2.25,2.24c1.21,0,1.73-.55,1.87-1.27h3.47c-.33,2.43-2.21,3.81-5.47,3.81S115.43,61,115.43,57.46Zm7.73-1.36c-.06-1.3-.7-2-1.9-2a2.05,2.05,0,0,0-2.06,2Z" fill="#fff"/><path d="M127.81,59.72c0-2.53,2.15-3.52,5.74-3.52h1V56c0-1-.25-1.71-1.43-1.71a1.32,1.32,0,0,0-1.46,1.28h-3.46c.16-2.6,2.2-3.88,5.15-3.88s4.87,1.22,4.87,4.08v7h-3.59V61.46a3.55,3.55,0,0,1-3.2,1.5C129.53,63,127.81,62,127.81,59.72Zm6.77-.78v-.66h-1c-1.49,0-2.15.29-2.15,1.18,0,.61.42,1,1.28,1A1.63,1.63,0,0,0,134.58,58.94Z" fill="#fff"/><path d="M140.78,59.25v-4.8h-1.3V51.93h1.3V49.68h3.69v2.25h2.12v2.52h-2.12V58.9A1,1,0,0,0,145.56,60a2.89,2.89,0,0,0,1.05-.18v2.8a7.83,7.83,0,0,1-2,.31C142.14,63,140.78,61.79,140.78,59.25Z" fill="#fff"/><path d="M148.22,59v-7h3.69v6.43c0,1.22.47,1.82,1.52,1.82s1.84-.66,1.84-2V51.93H159V62.71h-3.69V61A3.54,3.54,0,0,1,151.85,63C149.76,63,148.22,61.68,148.22,59Z" fill="#fff"/><path d="M161.14,51.93h3.69v2.15a3.39,3.39,0,0,1,3.48-2.29v3.44c-2.24-.06-3.48.64-3.48,2.37v5.11h-3.69Z" fill="#fff"/><path d="M169.28,57.46v-.17a5.52,5.52,0,0,1,5.83-5.65c2.95,0,5.49,1.69,5.49,5.57v1H173a2.15,2.15,0,0,0,2.25,2.24c1.21,0,1.73-.55,1.87-1.27h3.47c-.33,2.43-2.21,3.81-5.47,3.81S169.28,61,169.28,57.46ZM177,56.1c-.06-1.3-.7-2-1.9-2a2.05,2.05,0,0,0-2.06,2Z" fill="#fff"/><path d="M181.56,59.29H185c.13.78.48,1.22,1.53,1.22s1.32-.35,1.32-.89-.52-.76-2-1c-2.89-.37-4.1-1.21-4.1-3.46s2.12-3.55,4.61-3.55c2.66,0,4.52.91,4.77,3.49h-3.34a1.22,1.22,0,0,0-1.38-1.08c-.81,0-1.22.36-1.22.85s.49.72,1.81.89c3,.37,4.44,1.15,4.44,3.46,0,2.56-1.9,3.71-4.89,3.71S181.64,61.68,181.56,59.29Z" fill="#fff"/><path d="M192.13,64.38,193.87,59l3.42,1.22-3,5.05Z" fill="#fff"/><path d="M202.54,59.29h3.4c.13.78.48,1.22,1.53,1.22s1.32-.35,1.32-.89-.52-.76-2-1c-2.89-.37-4.1-1.21-4.1-3.46s2.12-3.55,4.61-3.55c2.66,0,4.52.91,4.77,3.49h-3.34a1.22,1.22,0,0,0-1.39-1.08c-.8,0-1.21.36-1.21.85s.49.72,1.81.89c3,.37,4.43,1.15,4.43,3.46,0,2.56-1.89,3.71-4.88,3.71S202.62,61.68,202.54,59.29Z" fill="#fff"/><path d="M213.79,59v-7h3.69v6.43c0,1.22.48,1.82,1.53,1.82s1.83-.66,1.83-2V51.93h3.69V62.71h-3.69V61A3.52,3.52,0,0,1,217.42,63C215.34,63,213.79,61.68,213.79,59Z" fill="#fff"/><path d="M226.72,51.93h3.69v1.61a3.8,3.8,0,0,1,3.36-1.9c2.51,0,4.55,1.9,4.55,5.59v.16c0,3.71-2,5.57-4.57,5.57a3.55,3.55,0,0,1-3.34-1.83v5.19h-3.69Zm7.85,5.46v-.16c0-1.9-.82-2.8-2.12-2.8s-2.15,1-2.15,2.78v.16c0,1.84.81,2.77,2.15,2.77S234.57,59.17,234.57,57.39Z" fill="#fff"/><path d="M240,51.93h3.69v1.61a3.81,3.81,0,0,1,3.36-1.9c2.51,0,4.55,1.9,4.55,5.59v.16c0,3.71-2,5.57-4.57,5.57a3.55,3.55,0,0,1-3.34-1.83v5.19H240Zm7.85,5.46v-.16c0-1.9-.82-2.8-2.12-2.8s-2.15,1-2.15,2.78v.16c0,1.84.81,2.77,2.15,2.77S247.82,59.17,247.82,57.39Z" fill="#fff"/><path d="M252.64,57.46v-.17c0-3.46,2.58-5.65,5.92-5.65s5.87,2.13,5.87,5.55v.16c0,3.51-2.57,5.61-5.89,5.61S252.64,60.94,252.64,57.46Zm8-.07v-.16c0-1.81-.72-2.82-2.12-2.82s-2.15,1-2.15,2.78v.16c0,1.86.73,2.87,2.15,2.87S260.68,59.19,260.68,57.39Z" fill="#fff"/><path d="M266,51.93h3.69v2.15a3.39,3.39,0,0,1,3.48-2.29v3.44c-2.25-.06-3.48.64-3.48,2.37v5.11H266Z" fill="#fff"/><path d="M275.52,59.25v-4.8h-1.3V51.93h1.3V49.68h3.69v2.25h2.12v2.52h-2.12V58.9A1,1,0,0,0,280.3,60a2.89,2.89,0,0,0,1.05-.18v2.8a7.83,7.83,0,0,1-2,.31C276.88,63,275.52,61.79,275.52,59.25Z" fill="#fff"/><path d="M286.48,59.72c0-2.53,2.14-3.52,5.73-3.52h1V56c0-1-.24-1.71-1.42-1.71a1.32,1.32,0,0,0-1.46,1.28h-3.47c.17-2.6,2.21-3.88,5.16-3.88s4.86,1.22,4.86,4.08v7h-3.58V61.46a3.56,3.56,0,0,1-3.2,1.5C288.19,63,286.48,62,286.48,59.72Zm6.76-.78v-.66h-1c-1.48,0-2.14.29-2.14,1.18,0,.61.41,1,1.28,1A1.62,1.62,0,0,0,293.24,58.94Z" fill="#fff"/><path d="M299,51.93h3.69v1.73a3.81,3.81,0,0,1,3.55-2c2.08,0,3.52,1.3,3.52,4.06v7h-3.69V56.45c0-1.22-.47-1.82-1.54-1.82s-1.84.66-1.84,2v6H299Z" fill="#fff"/><path d="M311.33,57.44v-.17c0-3.67,2-5.63,4.58-5.63a3.49,3.49,0,0,1,3.32,1.82V47.19h3.69V62.71h-3.69V61a3.64,3.64,0,0,1-3.36,2C313.38,63,311.33,61.17,311.33,57.44Zm8-.07v-.16c0-1.82-.76-2.78-2.12-2.78s-2.12.92-2.12,2.8v.16c0,1.82.8,2.75,2.08,2.75S319.33,59.21,319.33,57.37Z" fill="#fff"/><path d="M329.16,51.93h3.69v1.61a3.81,3.81,0,0,1,3.36-1.9c2.52,0,4.56,1.9,4.56,5.59v.16c0,3.71-2,5.57-4.58,5.57a3.56,3.56,0,0,1-3.34-1.83v5.19h-3.69ZM337,57.39v-.16c0-1.9-.83-2.8-2.13-2.8s-2.14,1-2.14,2.78v.16c0,1.84.8,2.77,2.14,2.77S337,59.17,337,57.39Z" fill="#fff"/><path d="M342.41,51.93h3.69v2.15a3.4,3.4,0,0,1,3.49-2.29v3.44c-2.25-.06-3.49.64-3.49,2.37v5.11h-3.69Z" fill="#fff"/><path d="M351.15,49a2,2,0,1,1,2,1.9A1.92,1.92,0,0,1,351.15,49Zm.19,2.93H355V62.71h-3.69Z" fill="#fff"/><path d="M356.74,57.46v-.17a5.42,5.42,0,0,1,5.75-5.65c2.64,0,5.07,1.16,5.27,4.44H364.3a1.59,1.59,0,0,0-1.73-1.57c-1.3,0-2.06.93-2.06,2.74v.17c0,1.87.72,2.84,2.12,2.84a1.8,1.8,0,0,0,1.88-1.79h3.32c-.11,2.72-1.94,4.49-5.43,4.49C359.19,63,356.74,61.08,356.74,57.46Z" fill="#fff"/><path d="M368.75,57.46v-.17a5.52,5.52,0,0,1,5.83-5.65c2.95,0,5.49,1.69,5.49,5.57v1h-7.59a2.15,2.15,0,0,0,2.25,2.24c1.21,0,1.73-.55,1.87-1.27h3.47c-.33,2.43-2.21,3.81-5.47,3.81S368.75,61,368.75,57.46Zm7.73-1.36c-.06-1.3-.7-2-1.9-2a2.05,2.05,0,0,0-2.06,2Z" fill="#fff"/><path d="M381.4,60.86a2.05,2.05,0,0,1,2.11-2.08,2.08,2.08,0,1,1,0,4.16A2.06,2.06,0,0,1,381.4,60.86Z" fill="#fff"/><path d="M384.29,48h3.46l-.43,5.67H384.7Zm4.37,0h3.48l-.43,5.67h-2.62Z" fill="#fff"/></g><g id="_NerdWallet_on_H_R_Block_Deluxe_Online" data-name="– NerdWallet on H&amp;R Block Deluxe Online"><path d="M336,76.73h5.59v1.06H336Z" fill="#fff"/><path d="M345.86,71.77h2l3.81,6.56V71.77h1.54v9.07h-1.75l-4.08-7v7h-1.54Z" fill="#fff"/><path d="M354.51,77.59v-.1a3.23,3.23,0,0,1,3.3-3.42,3,3,0,0,1,3.13,3.34v.45h-4.86c.05,1.25.69,2,1.83,2,.92,0,1.41-.36,1.52-1h1.48c-.21,1.39-1.34,2.15-3,2.15A3.18,3.18,0,0,1,354.51,77.59Zm4.91-.76c-.08-1.14-.66-1.65-1.61-1.65a1.7,1.7,0,0,0-1.7,1.65Z" fill="#fff"/><path d="M362.12,74.21h1.53v1.24a2.22,2.22,0,0,1,2.16-1.35v1.44c-1.35,0-2.16.44-2.16,1.85v3.45h-1.53Z" fill="#fff"/><path d="M366.38,77.63v-.1c0-2.12,1.26-3.46,3-3.46a2.27,2.27,0,0,1,2.12,1.15V71.14H373v9.7h-1.53V79.72A2.55,2.55,0,0,1,369.3,81C367.64,81,366.38,79.79,366.38,77.63Zm5.15-.08v-.1c0-1.46-.67-2.18-1.79-2.18s-1.79.79-1.79,2.22v.1c0,1.46.74,2.16,1.73,2.16S371.53,79,371.53,77.55Z" fill="#fff"/><path d="M374.07,71.77h1.72l1.57,6.66,1.76-6.66h1.4l1.8,6.7,1.62-6.7h1.58l-2.27,9.07h-1.69l-1.79-6.61-1.84,6.61h-1.61Z" fill="#fff"/><path d="M385.64,79c0-1.55,1.5-2.11,3.4-2.11h.83v-.34c0-.89-.31-1.33-1.21-1.33a1.11,1.11,0,0,0-1.27,1h-1.48c.13-1.55,1.36-2.19,2.84-2.19s2.65.61,2.65,2.42v4.35h-1.51V80a2.3,2.3,0,0,1-2,.93C386.65,81,385.64,80.38,385.64,79Zm4.23-.48v-.66h-.79c-1.16,0-1.91.26-1.91,1.08,0,.55.3.92,1.06.92C389.17,79.86,389.87,79.37,389.87,78.52Z" fill="#fff"/><path d="M393,71.14h1.54v9.7H393Z" fill="#fff"/><path d="M396.26,71.14h1.53v9.7h-1.53Z" fill="#fff"/><path d="M399,77.59v-.1a3.23,3.23,0,0,1,3.3-3.42,3,3,0,0,1,3.13,3.34v.45H400.6c0,1.25.68,2,1.82,2,.93,0,1.41-.36,1.52-1h1.49c-.22,1.39-1.35,2.15-3.05,2.15A3.18,3.18,0,0,1,399,77.59Zm4.91-.76c-.07-1.14-.66-1.65-1.61-1.65a1.7,1.7,0,0,0-1.7,1.65Z" fill="#fff"/><path d="M406.89,79V75.36H406V74.21h.89V72.75h1.53v1.46h1.46v1.15h-1.46v3.49c0,.58.28.85.76.85a1.87,1.87,0,0,0,.75-.13v1.22a2.93,2.93,0,0,1-1,.16A1.78,1.78,0,0,1,406.89,79Z" fill="#fff"/><path d="M413.51,77.59v-.1a3.41,3.41,0,0,1,6.81,0v.1a3.41,3.41,0,0,1-6.81,0Zm5.24,0v-.09c0-1.37-.69-2.21-1.83-2.21s-1.84.83-1.84,2.19v.11c0,1.35.67,2.2,1.84,2.2S418.75,78.92,418.75,77.57Z" fill="#fff"/><path d="M421.51,74.21H423v1.05a2.29,2.29,0,0,1,2.15-1.19c1.33,0,2.27.77,2.27,2.6v4.17h-1.54v-4c0-1-.4-1.46-1.32-1.46A1.47,1.47,0,0,0,423,76.93v3.91h-1.53Z" fill="#fff"/><path d="M432,71.77h1.68v3.86h4.07V71.77h1.7v9.07h-1.7V77h-4.07v3.86H432Z" fill="#fff"/><path d="M447.48,79,449,80.84h-1.94l-.76-.93a3.24,3.24,0,0,1-2.48,1c-1.76,0-3-1-3-2.58a2.92,2.92,0,0,1,2-2.69,3.06,3.06,0,0,1-.71-1.79,2.26,2.26,0,0,1,2.5-2.19,2.06,2.06,0,0,1,2.28,2c0,1-.71,1.8-1.89,2.31l1.6,2,.92-1.77H449Zm-2,0-1.93-2.35a1.71,1.71,0,0,0-1.15,1.61A1.4,1.4,0,0,0,444,79.68,2,2,0,0,0,445.52,78.94Zm-1.17-3.71c.85-.39,1.2-.8,1.2-1.51a.85.85,0,0,0-.88-.9,1,1,0,0,0-1,1.08A2.23,2.23,0,0,0,444.35,75.23Z" fill="#fff"/><path d="M450.21,71.77h3c2,0,3.39.81,3.39,2.66v.06a2.39,2.39,0,0,1-2,2.43l2.55,3.92h-1.82L453,77.17H451.9v3.67h-1.69Zm3,4.2c1.13,0,1.73-.48,1.73-1.45v0c0-1-.65-1.39-1.73-1.39H451.9V76Z" fill="#fff"/><path d="M461.16,71.77h3.24c1.86,0,3,.71,3,2.36v.05a1.87,1.87,0,0,1-1.43,1.93,2,2,0,0,1,1.81,2.14v0c0,1.69-1.12,2.54-3.11,2.54h-3.48Zm3,3.82c1.11,0,1.55-.41,1.55-1.33v-.05c0-.87-.5-1.23-1.58-1.23H462.8v2.61Zm.24,4c1.13,0,1.65-.5,1.65-1.44v0c0-.94-.52-1.41-1.76-1.41H462.8v2.9Z" fill="#fff"/><path d="M469.06,71.14h1.53v9.7h-1.53Z" fill="#fff"/><path d="M471.82,77.59v-.1a3.41,3.41,0,0,1,6.81,0v.1a3.41,3.41,0,0,1-6.81,0Zm5.24,0v-.09c0-1.37-.69-2.21-1.83-2.21s-1.84.83-1.84,2.19v.11c0,1.35.67,2.2,1.84,2.2S477.06,78.92,477.06,77.57Z" fill="#fff"/><path d="M479.38,77.6v-.1a3.27,3.27,0,0,1,3.35-3.43,2.71,2.71,0,0,1,3,2.48h-1.49a1.36,1.36,0,0,0-1.52-1.25c-1.05,0-1.8.81-1.8,2.18v.1c0,1.44.71,2.21,1.84,2.21a1.52,1.52,0,0,0,1.6-1.42h1.41A2.81,2.81,0,0,1,482.73,81,3.17,3.17,0,0,1,479.38,77.6Z" fill="#fff"/><path d="M486.92,71.14h1.54v6l2.37-2.91h1.67l-2.57,3,2.79,3.59h-1.78l-2.48-3.26v3.26h-1.54Z" fill="#fff"/><path d="M496.54,71.77h2.75c3.16,0,4.69,1.8,4.69,4.44v.11c0,2.64-1.53,4.52-4.72,4.52h-2.72Zm2.67,7.74c2,0,3-1.17,3-3.17v-.1c0-2-.89-3.14-3-3.14h-1v6.41Z" fill="#fff"/><path d="M504.83,77.59v-.1a3.23,3.23,0,0,1,3.3-3.42,3,3,0,0,1,3.13,3.34v.45H506.4c.05,1.25.69,2,1.83,2,.93,0,1.41-.36,1.52-1h1.49C511,80.2,509.89,81,508.19,81A3.18,3.18,0,0,1,504.83,77.59Zm4.91-.76c-.08-1.14-.66-1.65-1.61-1.65a1.7,1.7,0,0,0-1.7,1.65Z" fill="#fff"/><path d="M512.48,71.14H514v9.7h-1.53Z" fill="#fff"/><path d="M515.62,78.45V74.21h1.54v4.07c0,1,.42,1.45,1.3,1.45A1.48,1.48,0,0,0,520,78.15V74.21h1.54v6.63H520v-1a2.24,2.24,0,0,1-2.1,1.16C516.6,81,515.62,80.22,515.62,78.45Z" fill="#fff"/><path d="M524.83,77.44l-2.16-3.23h1.78l1.38,2.14,1.37-2.14h1.61l-2.14,3.12L529,80.84h-1.79l-1.54-2.4-1.59,2.4h-1.6Z" fill="#fff"/><path d="M529.17,77.59v-.1a3.23,3.23,0,0,1,3.3-3.42,3,3,0,0,1,3.13,3.34v.45h-4.86c0,1.25.69,2,1.83,2,.92,0,1.4-.36,1.52-1h1.48c-.21,1.39-1.34,2.15-3,2.15A3.18,3.18,0,0,1,529.17,77.59Zm4.91-.76c-.08-1.14-.66-1.65-1.61-1.65a1.7,1.7,0,0,0-1.7,1.65Z" fill="#fff"/><path d="M539.28,76.36v-.1a4.45,4.45,0,0,1,4.59-4.62,4.38,4.38,0,0,1,4.56,4.58v.1a4.58,4.58,0,1,1-9.15,0Zm7.4,0v-.1c0-1.87-1-3.25-2.81-3.25S541,74.29,541,76.25v.1c0,2,1.21,3.26,2.85,3.26S546.68,78.3,546.68,76.34Z" fill="#fff"/><path d="M549.74,74.21h1.53v1.05a2.29,2.29,0,0,1,2.15-1.19c1.33,0,2.27.77,2.27,2.6v4.17h-1.54v-4c0-1-.4-1.46-1.32-1.46a1.47,1.47,0,0,0-1.56,1.58v3.91h-1.53Z" fill="#fff"/><path d="M557.3,71.14h1.53v9.7H557.3Z" fill="#fff"/><path d="M560.38,72.24a.92.92,0,1,1,.91.88A.89.89,0,0,1,560.38,72.24Zm.16,2h1.54v6.63h-1.54Z" fill="#fff"/><path d="M563.75,74.21h1.54v1.05a2.27,2.27,0,0,1,2.14-1.19c1.33,0,2.27.77,2.27,2.6v4.17h-1.53v-4c0-1-.41-1.46-1.32-1.46a1.46,1.46,0,0,0-1.56,1.58v3.91h-1.54Z" fill="#fff"/><path d="M570.83,77.59v-.1a3.23,3.23,0,0,1,3.3-3.42,3,3,0,0,1,3.13,3.34v.45H572.4c.05,1.25.69,2,1.83,2,.92,0,1.4-.36,1.52-1h1.48c-.21,1.39-1.34,2.15-3,2.15A3.18,3.18,0,0,1,570.83,77.59Zm4.91-.76c-.08-1.14-.66-1.65-1.61-1.65a1.7,1.7,0,0,0-1.7,1.65Z" fill="#fff"/></g></g></g></svg>