<svg xmlns="http://www.w3.org/2000/svg" viewBox="0 0 728 90"><title>H2</title><g id="Layer_2" data-name="Layer 2"><g id="Rect"><rect width="728" height="90" fill="none"/></g><g id="H02"><g id="Starting_in_January_you_could_get_a_Refund_Advance_loan_up_to" data-name="Starting in January, you could get a Refund Advance loan up to"><path d="M120.61,29h5.18c.13,1.36.74,2.47,3,2.47,1.56,0,2.44-.77,2.44-1.88s-.72-1.49-3-1.83c-5.36-.64-7.17-2.23-7.17-6.06,0-3.42,2.82-5.92,7.36-5.92s7.14,1.91,7.48,5.92h-5a2.16,2.16,0,0,0-2.44-2c-1.46,0-2.21.66-2.21,1.62s.59,1.54,3,1.86c4.81.53,7.27,1.78,7.27,5.89,0,3.48-2.76,6.32-7.64,6.32C123.48,35.31,120.77,33.08,120.61,29Z" fill="#fff"/><path d="M138.82,30.53V24.35h-1.67V21.11h1.67v-2.9h4.76v2.9h2.73v3.24h-2.73v5.73c0,1,.5,1.46,1.4,1.46a3.66,3.66,0,0,0,1.36-.24v3.61a10,10,0,0,1-2.63.4C140.58,35.31,138.82,33.8,138.82,30.53Z" fill="#fff"/><path d="M147.37,31.14c0-3.26,2.76-4.54,7.38-4.54h1.33v-.32c0-1.32-.32-2.2-1.83-2.2a1.71,1.71,0,0,0-1.89,1.65H147.9c.22-3.35,2.84-5,6.64-5s6.27,1.57,6.27,5.26v9h-4.62V33.37a4.58,4.58,0,0,1-4.12,1.94C149.58,35.31,147.37,34.09,147.37,31.14Zm8.71-1v-.85h-1.25c-1.91,0-2.76.38-2.76,1.52,0,.79.53,1.3,1.65,1.3A2.09,2.09,0,0,0,156.08,30.13Z" fill="#fff"/><path d="M163.12,21.11h4.75v2.76a4.38,4.38,0,0,1,4.49-2.95v4.43c-2.9-.08-4.49.83-4.49,3.06V35h-4.75Z" fill="#fff"/><path d="M174.93,30.53V24.35h-1.67V21.11h1.67v-2.9h4.75v2.9h2.74v3.24h-2.74v5.73a1.27,1.27,0,0,0,1.41,1.46,3.57,3.57,0,0,0,1.35-.24v3.61a9.89,9.89,0,0,1-2.62.4C176.68,35.31,174.93,33.8,174.93,30.53Z" fill="#fff"/><path d="M184.12,17.34a2.48,2.48,0,0,1,2.6-2.47,2.46,2.46,0,1,1,0,4.91A2.46,2.46,0,0,1,184.12,17.34Zm.24,3.77h4.75V35h-4.75Z" fill="#fff"/><path d="M191.66,21.11h4.75v2.23A4.9,4.9,0,0,1,201,20.73c2.68,0,4.54,1.68,4.54,5.23v9h-4.76V26.92c0-1.57-.61-2.34-2-2.34s-2.36.85-2.36,2.63V35h-4.75Z" fill="#fff"/><path d="M207.06,35h4.72c.21,1,.82,1.81,2.55,1.81a2.63,2.63,0,0,0,2.95-2.92V31.75A4.87,4.87,0,0,1,213,34.3c-3.24,0-5.9-2.39-5.9-6.66v-.21c0-4.09,2.63-6.7,5.9-6.7a4.52,4.52,0,0,1,4.3,2.34v-2H222V33.82c0,4.15-2.73,6.32-7.7,6.32C209.6,40.14,207.43,38.15,207.06,35Zm10.35-7.38v-.18c0-1.92-1-3.14-2.73-3.14s-2.74,1.25-2.74,3.16v.21c0,1.92,1,3.14,2.71,3.14S217.41,29.58,217.41,27.61Z" fill="#fff"/><path d="M229.17,17.34a2.62,2.62,0,1,1,2.6,2.44A2.48,2.48,0,0,1,229.17,17.34Zm.24,3.77h4.75V35h-4.75Z" fill="#fff"/><path d="M236.71,21.11h4.75v2.23A4.91,4.91,0,0,1,246,20.73c2.68,0,4.54,1.68,4.54,5.23v9h-4.75V26.92c0-1.57-.61-2.34-2-2.34s-2.37.85-2.37,2.63V35h-4.75Z" fill="#fff"/><path d="M257.18,34.59V30.53a6.49,6.49,0,0,0,2.31.37c1.49,0,2.47-.66,2.47-2.63V16h5.47V28.33c0,4.56-2.34,6.9-6.8,6.9A7.18,7.18,0,0,1,257.18,34.59Z" fill="#fff"/><path d="M268.94,31.14c0-3.26,2.76-4.54,7.38-4.54h1.33v-.32c0-1.32-.32-2.2-1.83-2.2a1.71,1.71,0,0,0-1.89,1.65h-4.46c.22-3.35,2.84-5,6.64-5s6.27,1.57,6.27,5.26v9h-4.62V33.37a4.58,4.58,0,0,1-4.12,1.94C271.15,35.31,268.94,34.09,268.94,31.14Zm8.71-1v-.85H276.4c-1.91,0-2.76.38-2.76,1.52,0,.79.53,1.3,1.65,1.3A2.09,2.09,0,0,0,277.65,30.13Z" fill="#fff"/><path d="M284.69,21.11h4.75v2.23A4.9,4.9,0,0,1,294,20.73c2.68,0,4.54,1.68,4.54,5.23v9h-4.76V26.92c0-1.57-.61-2.34-2-2.34s-2.36.85-2.36,2.63V35h-4.75Z" fill="#fff"/><path d="M300.75,30.16v-9h4.75v8.28c0,1.57.61,2.34,2,2.34s2.36-.85,2.36-2.63v-8h4.75V35h-4.75V32.84a4.57,4.57,0,0,1-4.41,2.47C302.74,35.31,300.75,33.66,300.75,30.16Z" fill="#fff"/><path d="M316.2,31.14c0-3.26,2.76-4.54,7.38-4.54h1.33v-.32c0-1.32-.32-2.2-1.83-2.2a1.71,1.71,0,0,0-1.89,1.65h-4.46c.21-3.35,2.84-5,6.64-5s6.27,1.57,6.27,5.26v9H325V33.37a4.58,4.58,0,0,1-4.12,1.94C318.4,35.31,316.2,34.09,316.2,31.14Zm8.71-1v-.85h-1.25c-1.91,0-2.76.38-2.76,1.52,0,.79.53,1.3,1.65,1.3A2.09,2.09,0,0,0,324.91,30.13Z" fill="#fff"/><path d="M331.94,21.11h4.76v2.76a4.36,4.36,0,0,1,4.48-2.95v4.43c-2.89-.08-4.48.83-4.48,3.06V35h-4.76Z" fill="#fff"/><path d="M347.48,33.58l-5.55-12.47h5.15l2.87,7.4,2.65-7.4h4.54l-7.43,18.53h-4.54Z" fill="#fff"/><path d="M355.33,37.14l2.23-7L362,31.73l-3.82,6.5Z" fill="#fff"/><path d="M373.23,33.58l-5.55-12.47h5.15l2.87,7.4,2.65-7.4h4.54l-7.43,18.53h-4.54Z" fill="#fff"/><path d="M382.63,28.22V28c0-4.46,3.32-7.28,7.62-7.28s7.56,2.74,7.56,7.15v.21c0,4.51-3.31,7.22-7.59,7.22S382.63,32.71,382.63,28.22ZM393,28.14v-.21c0-2.34-.93-3.64-2.73-3.64s-2.76,1.25-2.76,3.59v.21c0,2.39.93,3.69,2.76,3.69S393,30.45,393,28.14Z" fill="#fff"/><path d="M399.38,30.16v-9h4.75v8.28c0,1.57.61,2.34,2,2.34s2.36-.85,2.36-2.63v-8h4.75V35h-4.75V32.84a4.57,4.57,0,0,1-4.41,2.47C401.37,35.31,399.38,33.66,399.38,30.16Z" fill="#fff"/><path d="M419.72,28.22V28c0-4.62,3.32-7.28,7.4-7.28,3.4,0,6.54,1.49,6.8,5.71h-4.46a2.05,2.05,0,0,0-2.23-2c-1.67,0-2.65,1.2-2.65,3.54v.21c0,2.41.92,3.66,2.73,3.66a2.31,2.31,0,0,0,2.42-2.31H434c-.13,3.51-2.49,5.79-7,5.79C422.88,35.31,419.72,32.89,419.72,28.22Z" fill="#fff"/><path d="M434.8,28.22V28c0-4.46,3.32-7.28,7.62-7.28S450,23.47,450,27.88v.21c0,4.51-3.31,7.22-7.59,7.22S434.8,32.71,434.8,28.22Zm10.35-.08v-.21c0-2.34-.93-3.64-2.73-3.64s-2.76,1.25-2.76,3.59v.21c0,2.39.93,3.69,2.76,3.69S445.15,30.45,445.15,28.14Z" fill="#fff"/><path d="M451.55,30.16v-9h4.75v8.28c0,1.57.61,2.34,2,2.34s2.36-.85,2.36-2.63v-8h4.75V35h-4.75V32.84a4.57,4.57,0,0,1-4.41,2.47C453.54,35.31,451.55,33.66,451.55,30.16Z" fill="#fff"/><path d="M467.93,15h4.73V35h-4.73Z" fill="#fff"/><path d="M474.52,28.19V28c0-4.72,2.6-7.25,5.89-7.25a4.48,4.48,0,0,1,4.27,2.34V15h4.76V35h-4.76V32.74a4.68,4.68,0,0,1-4.32,2.57C477.14,35.31,474.52,33,474.52,28.19Zm10.3-.07V27.9c0-2.33-1-3.58-2.74-3.58s-2.73,1.19-2.73,3.61v.21c0,2.34,1,3.53,2.68,3.53S484.82,30.48,484.82,28.12Z" fill="#fff"/><path d="M495.91,35h4.73c.21,1,.82,1.81,2.55,1.81a2.63,2.63,0,0,0,2.95-2.92V31.75a4.87,4.87,0,0,1-4.31,2.55c-3.23,0-5.89-2.39-5.89-6.66v-.21c0-4.09,2.63-6.7,5.89-6.7a4.53,4.53,0,0,1,4.31,2.34v-2h4.75V33.82c0,4.15-2.74,6.32-7.7,6.32C498.46,40.14,496.29,38.15,495.91,35Zm10.36-7.38v-.18c0-1.92-1-3.14-2.74-3.14s-2.73,1.25-2.73,3.16v.21c0,1.92,1,3.14,2.71,3.14S506.27,29.58,506.27,27.61Z" fill="#fff"/><path d="M512.56,28.22V28c0-4.46,3.32-7.28,7.52-7.28,3.79,0,7.06,2.18,7.06,7.17v1.25h-9.77A2.77,2.77,0,0,0,520.26,32c1.57,0,2.23-.71,2.42-1.64h4.46c-.43,3.13-2.84,4.91-7,4.91C515.75,35.31,512.56,32.76,512.56,28.22Zm10-1.75c-.08-1.67-.9-2.6-2.44-2.6a2.64,2.64,0,0,0-2.66,2.6Z" fill="#fff"/><path d="M529.42,30.53V24.35h-1.67V21.11h1.67v-2.9h4.75v2.9h2.74v3.24h-2.74v5.73a1.27,1.27,0,0,0,1.41,1.46,3.57,3.57,0,0,0,1.35-.24v3.61a9.89,9.89,0,0,1-2.62.4C531.17,35.31,529.42,33.8,529.42,30.53Z" fill="#fff"/><path d="M542.75,31.14c0-3.26,2.76-4.54,7.38-4.54h1.33v-.32c0-1.32-.32-2.2-1.84-2.2a1.7,1.7,0,0,0-1.88,1.65h-4.46c.21-3.35,2.84-5,6.64-5s6.26,1.57,6.26,5.26v9h-4.62V33.37a4.54,4.54,0,0,1-4.11,1.94C545,35.31,542.75,34.09,542.75,31.14Zm8.71-1v-.85h-1.25c-1.91,0-2.76.38-2.76,1.52,0,.79.53,1.3,1.64,1.3C550.45,32.1,551.46,31.33,551.46,30.13Z" fill="#fff"/><path d="M121.83,44.56h7.44c5,0,7.72,2,7.72,6v.11a5,5,0,0,1-3.42,5l4.54,7.86h-5.74l-3.85-6.79h-1.27v6.79h-5.42ZM129,53.21c1.83,0,2.74-.77,2.74-2.31v-.1c0-1.54-1-2.15-2.71-2.15h-1.78v4.56Z" fill="#fff"/><path d="M138.11,56.77v-.21c0-4.46,3.32-7.28,7.51-7.28,3.8,0,7.06,2.18,7.06,7.17V57.7h-9.77a2.78,2.78,0,0,0,2.9,2.89c1.56,0,2.23-.71,2.41-1.64h4.46c-.42,3.13-2.84,4.91-7,4.91C141.29,63.86,138.11,61.31,138.11,56.77ZM148.06,55c-.08-1.67-.9-2.6-2.44-2.6A2.64,2.64,0,0,0,143,55Z" fill="#fff"/><path d="M155.05,52.9h-1.76V49.66h1.76V48.43c0-3.45,2.15-5.09,5.44-5.09a8.53,8.53,0,0,1,2.18.29v3.48a4.28,4.28,0,0,0-1.31-.19,1.39,1.39,0,0,0-1.59,1.51v1.23h2.82V52.9h-2.82V63.54h-4.72Z" fill="#fff"/><path d="M164.07,58.71V49.66h4.75v8.28c0,1.57.62,2.34,2,2.34s2.36-.85,2.36-2.63v-8h4.76V63.54h-4.76V61.39a4.54,4.54,0,0,1-4.4,2.47C166.06,63.86,164.07,62.21,164.07,58.71Z" fill="#fff"/><path d="M180.32,49.66h4.75v2.23a4.91,4.91,0,0,1,4.57-2.61c2.68,0,4.54,1.68,4.54,5.23v9h-4.75V55.47c0-1.57-.61-2.34-2-2.34s-2.37.85-2.37,2.63v7.78h-4.75Z" fill="#fff"/><path d="M195.8,56.75v-.22c0-4.72,2.6-7.25,5.89-7.25A4.51,4.51,0,0,1,206,51.62V43.55h4.75v20H206V61.29a4.68,4.68,0,0,1-4.33,2.57C198.43,63.86,195.8,61.55,195.8,56.75Zm10.3-.08v-.22c0-2.33-1-3.58-2.73-3.58s-2.74,1.19-2.74,3.61v.21c0,2.34,1,3.53,2.68,3.53S206.1,59,206.1,56.67Z" fill="#fff"/><path d="M223,44.56h7l6,19h-5.76l-1-3.53H223l-1,3.53h-5.07Zm1.06,11.71h4.17L226.15,49Z" fill="#fff"/><path d="M236.37,56.75v-.22c0-4.72,2.6-7.25,5.89-7.25a4.51,4.51,0,0,1,4.28,2.34V43.55h4.75v20h-4.75V61.29a4.68,4.68,0,0,1-4.33,2.57C239,63.86,236.37,61.55,236.37,56.75Zm10.3-.08v-.22c0-2.33-1-3.58-2.74-3.58s-2.73,1.19-2.73,3.61v.21c0,2.34,1,3.53,2.68,3.53S246.67,59,246.67,56.67Z" fill="#fff"/><path d="M252.51,49.66h5.07l2.89,8.94,2.85-8.94h4.54l-5.08,13.88h-5.17Z" fill="#fff"/><path d="M267.67,59.69c0-3.26,2.76-4.54,7.38-4.54h1.33v-.32c0-1.32-.32-2.2-1.83-2.2a1.71,1.71,0,0,0-1.89,1.65H268.2c.21-3.35,2.84-5,6.64-5s6.26,1.57,6.26,5.26v9h-4.62V61.92a4.54,4.54,0,0,1-4.11,1.94C269.87,63.86,267.67,62.64,267.67,59.69Zm8.71-1v-.85h-1.25c-1.91,0-2.76.38-2.76,1.52,0,.79.53,1.3,1.65,1.3A2.09,2.09,0,0,0,276.38,58.68Z" fill="#fff"/><path d="M283.41,49.66h4.76v2.23a4.88,4.88,0,0,1,4.56-2.61c2.68,0,4.54,1.68,4.54,5.23v9h-4.75V55.47c0-1.57-.61-2.34-2-2.34s-2.36.85-2.36,2.63v7.78h-4.76Z" fill="#fff"/><path d="M298.84,56.77v-.21c0-4.62,3.32-7.28,7.41-7.28,3.4,0,6.53,1.49,6.79,5.71h-4.46a2.05,2.05,0,0,0-2.23-2c-1.67,0-2.65,1.2-2.65,3.54v.21c0,2.41.93,3.66,2.73,3.66a2.31,2.31,0,0,0,2.42-2.31h4.27c-.13,3.51-2.49,5.79-7,5.79C302,63.86,298.84,61.44,298.84,56.77Z" fill="#fff"/><path d="M313.92,56.77v-.21c0-4.46,3.32-7.28,7.51-7.28,3.8,0,7.07,2.18,7.07,7.17V57.7h-9.78a2.78,2.78,0,0,0,2.9,2.89c1.57,0,2.23-.71,2.41-1.64h4.47c-.43,3.13-2.85,4.91-7,4.91C317.1,63.86,313.92,61.31,313.92,56.77Zm10-1.75c-.08-1.67-.91-2.6-2.45-2.6a2.64,2.64,0,0,0-2.65,2.6Z" fill="#fff"/><path d="M335.11,43.55h4.72v20h-4.72Z" fill="#fff"/><path d="M341.64,56.77v-.21c0-4.46,3.32-7.28,7.62-7.28s7.56,2.74,7.56,7.15v.21c0,4.51-3.32,7.22-7.59,7.22S341.64,61.26,341.64,56.77ZM352,56.69v-.21c0-2.34-.93-3.64-2.73-3.64s-2.76,1.25-2.76,3.59v.21c0,2.39.92,3.69,2.76,3.69S352,59,352,56.69Z" fill="#fff"/><path d="M357.7,59.69c0-3.26,2.76-4.54,7.38-4.54h1.33v-.32c0-1.32-.32-2.2-1.83-2.2a1.71,1.71,0,0,0-1.89,1.65h-4.46c.21-3.35,2.84-5,6.64-5s6.26,1.57,6.26,5.26v9h-4.62V61.92a4.54,4.54,0,0,1-4.11,1.94C359.9,63.86,357.7,62.64,357.7,59.69Zm8.71-1v-.85h-1.25c-1.91,0-2.76.38-2.76,1.52,0,.79.53,1.3,1.64,1.3C365.4,60.65,366.41,59.88,366.41,58.68Z" fill="#fff"/><path d="M373.44,49.66h4.76v2.23a4.88,4.88,0,0,1,4.56-2.61c2.68,0,4.54,1.68,4.54,5.23v9h-4.75V55.47c0-1.57-.61-2.34-2-2.34s-2.36.85-2.36,2.63v7.78h-4.76Z" fill="#fff"/><path d="M394.34,58.71V49.66h4.75v8.28c0,1.57.61,2.34,2,2.34s2.37-.85,2.37-2.63v-8h4.75V63.54h-4.75V61.39A4.56,4.56,0,0,1,399,63.86C396.33,63.86,394.34,62.21,394.34,58.71Z" fill="#fff"/><path d="M410.59,49.66h4.75v2.07a4.89,4.89,0,0,1,4.33-2.45c3.24,0,5.86,2.45,5.86,7.2v.21c0,4.78-2.62,7.17-5.89,7.17a4.57,4.57,0,0,1-4.3-2.36v6.69h-4.75Zm10.11,7v-.21c0-2.44-1.06-3.61-2.73-3.61s-2.76,1.25-2.76,3.58v.22c0,2.36,1,3.55,2.76,3.55S420.7,59,420.7,56.69Z" fill="#fff"/><path d="M432.73,59.08V52.9h-1.68V49.66h1.68v-2.9h4.75v2.9h2.73V52.9h-2.73v5.73c0,1,.5,1.46,1.41,1.46a3.57,3.57,0,0,0,1.35-.24v3.61a9.91,9.91,0,0,1-2.63.4C434.48,63.86,432.73,62.35,432.73,59.08Z" fill="#fff"/><path d="M441.28,56.77v-.21c0-4.46,3.32-7.28,7.62-7.28s7.56,2.74,7.56,7.15v.21c0,4.51-3.32,7.22-7.59,7.22S441.28,61.26,441.28,56.77Zm10.35-.08v-.21c0-2.34-.93-3.64-2.73-3.64s-2.76,1.25-2.76,3.59v.21c0,2.39.92,3.69,2.76,3.69S451.63,59,451.63,56.69Z" fill="#fff"/><path d="M466,54.86c-2.68-.19-4-1.61-4.09-3.66h2.86A1.48,1.48,0,0,0,466,52.66V50.4c-2.7-.39-3.84-1.36-3.84-3.51,0-1.88,1.47-3.22,3.84-3.39V42.12h1.2v1.39c2.25.19,3.58,1.23,3.76,3.35h-2.8a1.22,1.22,0,0,0-1-1.16v2.13c2.37.34,3.92,1.15,3.92,3.39,0,1.89-1.22,3.47-3.92,3.64v1.93H466Zm0-7.21v-2c-.7.12-1.06.49-1.06,1S465.18,47.48,466,47.65Zm1.2,3v2.06a1.12,1.12,0,0,0,1-1.1C468.26,51.05,468,50.79,467.22,50.6Z" fill="#fff"/><path d="M472.09,57.3h4.83a2.54,2.54,0,0,0,2.79,2.63c1.67,0,2.49-.8,2.49-2.15s-.79-2.23-2.49-2.23h-1.52V52.18h1.41c1.7,0,2.52-.77,2.52-2.1,0-1.14-.74-1.88-2.17-1.88a2.42,2.42,0,0,0-2.53,2.41h-4.8c.24-3.74,2.73-6.32,7.46-6.32,4.46,0,7.14,2.05,7.14,5.21A4.06,4.06,0,0,1,484,53.59a4.28,4.28,0,0,1,3.69,4.3c0,3.61-2.68,6-7.7,6C474.71,63.86,472.25,61.42,472.09,57.3Z" fill="#fff"/><path d="M488.15,65.69l2.23-7,4.41,1.57L491,66.78Z" fill="#fff"/><path d="M495.66,57.57h4.94a2.17,2.17,0,0,0,2.47,2.2c1.57,0,2.28-1.17,2.28-2.68a2.41,2.41,0,0,0-2.57-2.71,3.85,3.85,0,0,0-3.13,1.36h-3.24l.39-11.18h12.8v4h-8.87l-.1,4.2a5,5,0,0,1,4.43-2c3.48,0,5.76,2.33,5.76,6.45s-2.89,6.69-7.7,6.69C498.08,63.86,495.8,61.13,495.66,57.57Z" fill="#fff"/><path d="M512.15,54.46v-.79c0-6,3.74-9.38,8.76-9.38s8.76,3.11,8.76,9.27v.74c0,6-3.45,9.56-8.86,9.56S512.15,60.44,512.15,54.46Zm12.08-.05v-.77c0-3.48-1-5.23-3.32-5.23s-3.32,1.72-3.32,5.23v.8c0,3.53,1,5.2,3.37,5.2S524.23,57.91,524.23,54.41Z" fill="#fff"/><path d="M531.19,54.46v-.79c0-6,3.74-9.38,8.76-9.38s8.76,3.11,8.76,9.27v.74c0,6-3.45,9.56-8.87,9.56S531.19,60.44,531.19,54.46Zm12.08-.05v-.77c0-3.48-1-5.23-3.32-5.23s-3.32,1.72-3.32,5.23v.8c0,3.53,1,5.2,3.37,5.2S543.27,57.91,543.27,54.41Z" fill="#fff"/><path d="M549.16,61.15a2.65,2.65,0,0,1,2.71-2.68,2.68,2.68,0,1,1,0,5.36A2.64,2.64,0,0,1,549.16,61.15Z" fill="#fff"/></g></g></g></svg>