<svg xmlns="http://www.w3.org/2000/svg" viewBox="0 0 300 600"><title>H192</title><g id="Layer_2" data-name="Layer 2"><g id="Rect"><rect width="300" height="600" fill="none"/></g><g id="Drop_off_your_docs_and_go." data-name="Drop off your docs and go."><path d="M22.81,153.37H37.18c14,0,21.16,7,21.16,19.28v.44c0,12.32-7.29,19.78-21.22,19.78H22.81Zm14,30.77c6.74,0,9.73-3.54,9.73-10.88v-.45c0-7.51-3-10.72-9.84-10.72H34.19v22Z" fill="#fff"/><path d="M62.15,164H72v5.75c1.82-4.31,4.86-6.19,9.34-6.13v9.22c-6-.16-9.34,1.72-9.34,6.36v13.7H62.15Z" fill="#fff"/><path d="M83.15,178.78v-.44c0-9.28,6.9-15.14,15.85-15.14s15.75,5.69,15.75,14.86v.44c0,9.4-6.91,15-15.8,15S83.15,188.12,83.15,178.78Zm21.54-.16v-.45c0-4.86-1.93-7.57-5.69-7.57s-5.74,2.6-5.74,7.46v.44c0,5,1.93,7.68,5.74,7.68S104.69,183.42,104.69,178.62Z" fill="#fff"/><path d="M118.23,164h9.89v4.31a10.2,10.2,0,0,1,9-5.08c6.74,0,12.21,5.08,12.21,15v.45c0,9.94-5.47,14.91-12.27,14.91-4.36,0-7.51-2-8.95-4.91v13.92h-9.89Zm21,14.65v-.45c0-5.08-2.21-7.51-5.69-7.51s-5.75,2.6-5.75,7.46v.44c0,4.92,2.16,7.4,5.75,7.4S139.28,183.37,139.28,178.62Z" fill="#fff"/><path d="M161.43,178.78v-.44c0-9.28,6.91-15.14,15.86-15.14S193,168.89,193,178.06v.44c0,9.4-6.91,15-15.8,15S161.43,188.12,161.43,178.78Zm21.55-.16v-.45c0-4.86-1.93-7.57-5.69-7.57s-5.75,2.6-5.75,7.46v.44c0,5,1.94,7.68,5.75,7.68S183,183.42,183,178.62Z" fill="#fff"/><path d="M198,170.71h-3.65V164H198v-2.21c0-7.18,4.42-10.55,11.27-10.55a16.68,16.68,0,0,1,4.42.55V159a8.73,8.73,0,0,0-2.65-.39,2.9,2.9,0,0,0-3.21,3.15V164h8.4v-2.54c0-7.18,4.53-10.61,11.33-10.61a17.73,17.73,0,0,1,4.53.61v7.24a9.11,9.11,0,0,0-2.71-.39c-2.26,0-3.26,1.27-3.26,3.15V164H232v6.74h-5.86v22.16h-9.89V170.71h-8.4v22.16H198Z" fill="#fff"/><path d="M31,247.19l-11.55-26H30.16l6,15.42,5.52-15.42H51.1L35.63,259.79H26.18Z" fill="#fff"/><path d="M50.55,236v-.44c0-9.28,6.9-15.14,15.85-15.14s15.75,5.69,15.75,14.86v.44c0,9.4-6.9,15-15.8,15S50.55,245.37,50.55,236Zm21.55-.16v-.45c0-4.86-1.94-7.57-5.7-7.57s-5.74,2.6-5.74,7.46v.44c0,5,1.93,7.68,5.74,7.68S72.1,240.67,72.1,235.87Z" fill="#fff"/><path d="M85.41,240.06V221.22H95.3v17.24c0,3.26,1.27,4.86,4.09,4.86,3,0,4.92-1.76,4.92-5.47V221.22h9.89v28.9h-9.89v-4.47c-1.55,3-4.37,5.13-9.18,5.13C89.55,250.78,85.41,247.36,85.41,240.06Z" fill="#fff"/><path d="M119.22,221.22h9.89V227c1.83-4.31,4.86-6.19,9.34-6.13v9.22c-6-.16-9.34,1.72-9.34,6.36v13.7h-9.89Z" fill="#fff"/><path d="M150.66,236v-.45c0-9.83,5.41-15.08,12.26-15.08,4.54,0,7.24,1.93,8.9,4.86V208.52h9.89v41.6h-9.89v-4.7a9.73,9.73,0,0,1-9,5.36C156.13,250.78,150.66,246,150.66,236Zm21.44-.17v-.44c0-4.86-2-7.46-5.69-7.46s-5.7,2.49-5.7,7.51v.45c0,4.86,2.16,7.34,5.58,7.34C169.89,243.21,172.1,240.73,172.1,235.81Z" fill="#fff"/><path d="M185.19,236v-.44c0-9.28,6.91-15.14,15.86-15.14s15.74,5.69,15.74,14.86v.44c0,9.4-6.9,15-15.8,15S185.19,245.37,185.19,236Zm21.55-.16v-.45c0-4.86-1.94-7.57-5.69-7.57s-5.75,2.6-5.75,7.46v.44c0,5,1.93,7.68,5.75,7.68S206.74,240.67,206.74,235.87Z" fill="#fff"/><path d="M218.73,236v-.44c0-9.61,6.9-15.14,15.41-15.14,7.07,0,13.59,3.09,14.15,11.88H239c-.44-2.71-1.76-4.2-4.64-4.2-3.48,0-5.52,2.49-5.52,7.35v.44c0,5,1.93,7.63,5.69,7.63,2.76,0,4.69-1.66,5-4.81h8.89c-.28,7.29-5.19,12-14.53,12C225.3,250.78,218.73,245.76,218.73,236Z" fill="#fff"/><path d="M250.11,241h9.11c.33,2.1,1.27,3.26,4.09,3.26,2.43,0,3.54-.94,3.54-2.38s-1.38-2-5.36-2.59c-7.74-1-11-3.26-11-9.29,0-6.41,5.69-9.5,12.38-9.5,7.13,0,12.1,2.43,12.76,9.34h-8.95c-.38-1.94-1.43-2.88-3.7-2.88s-3.26.94-3.26,2.27,1.33,1.93,4.86,2.38c8,1,11.88,3.09,11.88,9.28,0,6.85-5.08,9.94-13.09,9.94C255.13,250.78,250.33,247.36,250.11,241Z" fill="#fff"/><path d="M20.27,299.36c0-6.8,5.75-9.45,15.36-9.45h2.76v-.66c0-2.77-.66-4.59-3.81-4.59a3.54,3.54,0,0,0-3.92,3.43H21.38c.44-7,5.91-10.39,13.81-10.39s13,3.26,13,10.94v18.73H38.61V304c-1.38,2.1-3.92,4-8.56,4C24.86,308,20.27,305.49,20.27,299.36Zm18.12-2.1v-1.77H35.8c-4,0-5.75.77-5.75,3.15,0,1.66,1.11,2.71,3.43,2.71C36.29,301.35,38.39,299.75,38.39,297.26Z" fill="#fff"/><path d="M53,278.47h9.89v4.64a10.21,10.21,0,0,1,9.51-5.41c5.58,0,9.45,3.48,9.45,10.88v18.79H72v-16.8c0-3.26-1.27-4.86-4.14-4.86s-4.92,1.77-4.92,5.47v16.19H53Z" fill="#fff"/><path d="M85.24,293.23v-.45c0-9.83,5.42-15.08,12.27-15.08,4.53,0,7.24,1.93,8.9,4.86V265.77h9.89v41.6h-9.89v-4.7a9.74,9.74,0,0,1-9,5.36C90.71,308,85.24,303.23,85.24,293.23Zm21.44-.17v-.44c0-4.86-2-7.46-5.69-7.46s-5.69,2.49-5.69,7.51v.45c0,4.86,2.15,7.34,5.58,7.34C104.47,300.46,106.68,298,106.68,293.06Z" fill="#fff"/><path d="M129.77,307.37h9.84c.44,2.1,1.71,3.76,5.3,3.76,4.37,0,6.14-2.49,6.14-6.08v-4.42a10.14,10.14,0,0,1-9,5.3c-6.75,0-12.27-5-12.27-13.86v-.45c0-8.51,5.47-13.92,12.27-13.92,4.58,0,7.29,1.93,9,4.86v-4.09h9.89v26.47c0,8.62-5.69,13.15-16,13.15C135.08,318.09,130.55,314,129.77,307.37ZM151.32,292v-.39c0-4-2-6.52-5.69-6.52s-5.69,2.6-5.69,6.58v.44c0,4,2.1,6.52,5.64,6.52S151.32,296.1,151.32,292Z" fill="#fff"/><path d="M164.42,293.28v-.44c0-9.28,6.9-15.14,15.85-15.14S196,283.39,196,292.56V293c0,9.4-6.91,15-15.8,15S164.42,302.62,164.42,293.28Zm21.54-.16v-.45c0-4.86-1.93-7.57-5.69-7.57s-5.74,2.6-5.74,7.46V293c0,5,1.93,7.68,5.74,7.68S186,297.92,186,293.12Z" fill="#fff"/><path d="M197.9,302.4a5.5,5.5,0,0,1,5.63-5.58,5.58,5.58,0,1,1,0,11.16A5.51,5.51,0,0,1,197.9,302.4Z" fill="#fff"/></g></g></svg>