<svg xmlns="http://www.w3.org/2000/svg" viewBox="0 0 300 250"><title>Asset 4</title><g id="Layer_2" data-name="Layer 2"><g id="Rect"><rect width="300" height="250" fill="none"/></g><g id="The_same_expertise_care_now_through_July_15." data-name="The same expertise  &amp; care, now through July 15."><path d="M26.53,45.46h-5V41.22H37v4.24h-5V60.41H26.53Z" fill="#fff"/><path d="M38.6,40.2h4.81v8.43A5,5,0,0,1,48,46c2.71,0,4.59,1.69,4.59,5.29v9.12H47.81V52.25c0-1.58-.62-2.36-2-2.36s-2.39.86-2.39,2.66v7.86H38.6Z" fill="#fff"/><path d="M54.2,53.57v-.22c0-4.51,3.35-7.35,7.59-7.35,3.84,0,7.14,2.2,7.14,7.24v1.27H59.05A2.8,2.8,0,0,0,62,57.43c1.58,0,2.25-.72,2.44-1.66h4.51c-.43,3.17-2.87,5-7.11,5C57.42,60.73,54.2,58.16,54.2,53.57ZM64.26,51.8c-.08-1.7-.91-2.63-2.47-2.63s-2.44.93-2.68,2.63Z" fill="#fff"/><path d="M74.54,56H79c.16,1,.61,1.58,2,1.58,1.18,0,1.72-.46,1.72-1.15s-.67-1-2.6-1.27c-3.76-.48-5.34-1.58-5.34-4.51,0-3.11,2.76-4.61,6-4.61,3.46,0,5.88,1.18,6.2,4.53H82.59a1.57,1.57,0,0,0-1.8-1.39c-1.05,0-1.58.45-1.58,1.1s.64.94,2.36,1.15c3.89.49,5.77,1.51,5.77,4.51,0,3.33-2.47,4.83-6.36,4.83S74.65,59.07,74.54,56Z" fill="#fff"/><path d="M88.09,56.52c0-3.3,2.79-4.59,7.46-4.59h1.34v-.32c0-1.34-.32-2.23-1.85-2.23A1.72,1.72,0,0,0,93.14,51H88.63c.21-3.38,2.87-5,6.71-5s6.33,1.58,6.33,5.31v9.1H97V58.77a4.6,4.6,0,0,1-4.16,2C90.32,60.73,88.09,59.5,88.09,56.52Zm8.8-1v-.86H95.63c-1.93,0-2.79.38-2.79,1.53,0,.81.54,1.32,1.67,1.32A2.11,2.11,0,0,0,96.89,55.5Z" fill="#fff"/><path d="M104,46.37h4.81v2.15a4.91,4.91,0,0,1,4.4-2.52A3.82,3.82,0,0,1,117,48.33,5.58,5.58,0,0,1,121.67,46c2.65,0,4.58,1.72,4.58,5.23v9.18h-4.8V52c0-1.43-.7-2.12-1.8-2.12a2.07,2.07,0,0,0-2.14,2.36v8.13h-4.76V52c0-1.43-.69-2.12-1.79-2.12a2.08,2.08,0,0,0-2.15,2.36v8.13H104Z" fill="#fff"/><path d="M127.83,53.57v-.22c0-4.51,3.36-7.35,7.6-7.35,3.84,0,7.14,2.2,7.14,7.24v1.27h-9.88a2.8,2.8,0,0,0,2.93,2.92c1.58,0,2.25-.72,2.44-1.66h4.51c-.43,3.17-2.87,5-7.11,5C131.06,60.73,127.83,58.16,127.83,53.57ZM137.9,51.8c-.08-1.7-.91-2.63-2.47-2.63s-2.44.93-2.68,2.63Z" fill="#fff"/><path d="M148.36,53.57v-.22c0-4.51,3.36-7.35,7.6-7.35,3.84,0,7.14,2.2,7.14,7.24v1.27h-9.88a2.8,2.8,0,0,0,2.93,2.92c1.58,0,2.25-.72,2.44-1.66h4.51c-.43,3.17-2.87,5-7.11,5C151.58,60.73,148.36,58.16,148.36,53.57Zm10.07-1.77c-.08-1.7-.91-2.63-2.47-2.63s-2.44.93-2.68,2.63Z" fill="#fff"/><path d="M167.55,53.27l-4.37-6.9h5.53l2.17,3.71L173,46.37h4.94l-4.43,6.53,4.86,7.51h-5.53l-2.5-4.19-2.55,4.19h-4.91Z" fill="#fff"/><path d="M179.71,46.37h4.8v2.1A5,5,0,0,1,188.89,46c3.27,0,5.93,2.47,5.93,7.27v.22c0,4.83-2.66,7.24-6,7.24a4.63,4.63,0,0,1-4.35-2.39v6.77h-4.8Zm10.22,7.12v-.22c0-2.47-1.07-3.65-2.76-3.65s-2.79,1.26-2.79,3.62v.22c0,2.39,1.05,3.6,2.79,3.6S189.93,55.79,189.93,53.49Z" fill="#fff"/><path d="M195.81,53.57v-.22c0-4.51,3.36-7.35,7.6-7.35,3.83,0,7.14,2.2,7.14,7.24v1.27h-9.88a2.8,2.8,0,0,0,2.92,2.92c1.59,0,2.26-.72,2.45-1.66h4.51c-.43,3.17-2.88,5-7.12,5C199,60.73,195.81,58.16,195.81,53.57Zm10.07-1.77c-.09-1.7-.92-2.63-2.47-2.63a2.67,2.67,0,0,0-2.69,2.63Z" fill="#fff"/><path d="M212.21,46.37H217v2.8a4.42,4.42,0,0,1,4.54-3v4.48c-2.93-.08-4.54.83-4.54,3.08v6.66h-4.8Z" fill="#fff"/><path d="M224.15,55.9V49.65h-1.69V46.37h1.69V43.45H229v2.92h2.77v3.28H229v5.8a1.28,1.28,0,0,0,1.43,1.47,3.66,3.66,0,0,0,1.36-.24v3.65a10.08,10.08,0,0,1-2.65.4C225.92,60.73,224.15,59.2,224.15,55.9Z" fill="#fff"/><path d="M233.43,42.56A2.65,2.65,0,1,1,236.06,45,2.51,2.51,0,0,1,233.43,42.56Zm.24,3.81h4.81v14h-4.81Z" fill="#fff"/><path d="M240.12,56h4.42c.17,1,.62,1.58,2,1.58,1.18,0,1.72-.46,1.72-1.15s-.67-1-2.61-1.27c-3.75-.48-5.34-1.58-5.34-4.51,0-3.11,2.77-4.61,6-4.61,3.46,0,5.87,1.18,6.2,4.53h-4.35a1.57,1.57,0,0,0-1.8-1.39c-1.05,0-1.58.45-1.58,1.1s.64.94,2.36,1.15c3.89.49,5.77,1.51,5.77,4.51,0,3.33-2.47,4.83-6.36,4.83S240.22,59.07,240.12,56Z" fill="#fff"/><path d="M253.8,53.57v-.22c0-4.51,3.36-7.35,7.6-7.35,3.84,0,7.14,2.2,7.14,7.24v1.27h-9.88a2.8,2.8,0,0,0,2.93,2.92c1.58,0,2.25-.72,2.44-1.66h4.51c-.43,3.17-2.87,5-7.12,5C257,60.73,253.8,58.16,253.8,53.57Zm10.07-1.77c-.08-1.7-.92-2.63-2.47-2.63s-2.44.93-2.69,2.63Z" fill="#fff"/><path d="M38,86.33l3.2,3.92H34.9l-1.12-1.39a7.69,7.69,0,0,1-5.18,1.71c-4.08,0-6.74-2.14-6.74-5.79,0-2.47,1.5-4.3,4.21-5.59a6.12,6.12,0,0,1-1.18-3.35c0-3.28,2.79-5,6.17-5,3.07,0,5.83,1.53,5.83,4.48,0,2.1-1.24,3.63-3.84,4.75l2.42,3,1.39-2.73h4.19Zm-6.65-.56-3-3.65A2.28,2.28,0,0,0,27,84.19a2.22,2.22,0,0,0,2.44,2.38A2.51,2.51,0,0,0,31.31,85.77ZM30.72,78c1.28-.62,1.9-1.34,1.9-2.34a1.38,1.38,0,0,0-1.42-1.47,1.53,1.53,0,0,0-1.58,1.66A3.48,3.48,0,0,0,30.72,78Z" fill="#fff"/><path d="M46.6,83.41v-.22c0-4.67,3.36-7.35,7.49-7.35,3.44,0,6.6,1.5,6.87,5.77H56.45a2.07,2.07,0,0,0-2.25-2c-1.69,0-2.69,1.21-2.69,3.57v.21c0,2.45.94,3.71,2.77,3.71a2.34,2.34,0,0,0,2.44-2.34H61c-.13,3.55-2.52,5.85-7.06,5.85C49.8,90.57,46.6,88.13,46.6,83.41Z" fill="#fff"/><path d="M61.87,86.36c0-3.3,2.79-4.59,7.46-4.59h1.34v-.32c0-1.34-.32-2.23-1.85-2.23a1.72,1.72,0,0,0-1.9,1.66H62.41c.21-3.38,2.87-5,6.71-5s6.33,1.58,6.33,5.31v9.1H70.78V88.61a4.6,4.6,0,0,1-4.16,2C64.1,90.57,61.87,89.34,61.87,86.36Zm8.8-1v-.86H69.41c-1.93,0-2.79.38-2.79,1.53,0,.81.54,1.32,1.67,1.32A2.11,2.11,0,0,0,70.67,85.34Z" fill="#fff"/><path d="M77.78,76.21h4.81V79a4.42,4.42,0,0,1,4.54-3v4.48c-2.93-.08-4.54.83-4.54,3.09v6.65H77.78Z" fill="#fff"/><path d="M88,83.41v-.22c0-4.51,3.36-7.35,7.6-7.35,3.84,0,7.14,2.2,7.14,7.25v1.26H92.84a2.8,2.8,0,0,0,2.93,2.92c1.58,0,2.25-.72,2.44-1.66h4.51c-.43,3.17-2.87,5-7.11,5C91.2,90.57,88,88,88,83.41Zm10.07-1.77C98,80,97.14,79,95.58,79s-2.44.94-2.69,2.63Z" fill="#fff"/><path d="M103.25,92.43l2.26-7.06L110,87l-3.86,6.58Z" fill="#fff"/><path d="M116.94,76.21h4.8v2.26a5,5,0,0,1,4.62-2.63c2.71,0,4.59,1.69,4.59,5.29v9.12h-4.8V82.09c0-1.58-.62-2.36-2-2.36s-2.39.86-2.39,2.66v7.86h-4.8Z" fill="#fff"/><path d="M132.53,83.41v-.22c0-4.51,3.36-7.35,7.7-7.35s7.65,2.76,7.65,7.22v.21c0,4.57-3.35,7.3-7.67,7.3S132.53,87.94,132.53,83.41ZM143,83.33v-.22c0-2.36-.94-3.67-2.77-3.67s-2.79,1.26-2.79,3.62v.21c0,2.42.94,3.73,2.79,3.73S143,85.66,143,83.33Z" fill="#fff"/><path d="M147.94,76.21h5l2,8.41,2.37-8.41h3.86l2.09,8.41,2.29-8.41h4.56l-4.46,14h-4.59L159,82.41l-2.17,7.84h-4.67Z" fill="#fff"/><path d="M176.92,85.74V79.49h-1.69V76.21h1.69V73.29h4.8v2.92h2.77v3.28h-2.77v5.8a1.28,1.28,0,0,0,1.43,1.47,3.66,3.66,0,0,0,1.36-.24v3.65a10.08,10.08,0,0,1-2.65.4C178.69,90.57,176.92,89,176.92,85.74Z" fill="#fff"/><path d="M186.31,70h4.8v8.43a5,5,0,0,1,4.62-2.63c2.71,0,4.59,1.69,4.59,5.29v9.12h-4.8V82.09c0-1.58-.62-2.36-2-2.36s-2.39.86-2.39,2.66v7.86h-4.8Z" fill="#fff"/><path d="M202.65,76.21h4.81V79A4.4,4.4,0,0,1,212,76v4.48c-2.92-.08-4.53.83-4.53,3.09v6.65h-4.81Z" fill="#fff"/><path d="M212.85,83.41v-.22c0-4.51,3.36-7.35,7.7-7.35s7.65,2.76,7.65,7.22v.21c0,4.57-3.35,7.3-7.67,7.3S212.85,87.94,212.85,83.41Zm10.47-.08v-.22c0-2.36-.94-3.67-2.77-3.67s-2.79,1.26-2.79,3.62v.21c0,2.42.94,3.73,2.79,3.73S223.32,85.66,223.32,83.33Z" fill="#fff"/><path d="M229.79,85.37V76.21h4.8v8.38c0,1.58.62,2.36,2,2.36s2.38-.86,2.38-2.66V76.21h4.81v14H239V88.08a4.6,4.6,0,0,1-4.45,2.49C231.8,90.57,229.79,88.91,229.79,85.37Z" fill="#fff"/><path d="M245.43,90.25h4.78c.21,1,.83,1.83,2.58,1.83a2.65,2.65,0,0,0,3-3V87a4.91,4.91,0,0,1-4.34,2.57c-3.28,0-6-2.41-6-6.73V82.6c0-4.13,2.66-6.76,6-6.76a4.56,4.56,0,0,1,4.34,2.36v-2h4.81V89.07c0,4.19-2.77,6.39-7.78,6.39C248,95.46,245.81,93.45,245.43,90.25Zm10.47-7.46V82.6c0-1.93-1-3.16-2.77-3.16s-2.76,1.26-2.76,3.19v.21c0,1.94,1,3.17,2.74,3.17S255.9,84.78,255.9,82.79Z" fill="#fff"/><path d="M263,70h4.8v8.43a5,5,0,0,1,4.62-2.63c2.71,0,4.59,1.69,4.59,5.29v9.12h-4.81V82.09c0-1.58-.61-2.36-2-2.36s-2.39.86-2.39,2.66v7.86H263Z" fill="#fff"/><path d="M21.89,119.69v-4.11a6.32,6.32,0,0,0,2.33.38c1.5,0,2.5-.67,2.5-2.66V100.9h5.53v12.46c0,4.61-2.37,7-6.87,7A7.31,7.31,0,0,1,21.89,119.69Z" fill="#fff"/><path d="M34.66,115.21v-9.16h4.8v8.38c0,1.58.62,2.36,2,2.36s2.39-.86,2.39-2.66v-8.08h4.8v14h-4.8v-2.17a4.61,4.61,0,0,1-4.46,2.49C36.67,120.41,34.66,118.75,34.66,115.21Z" fill="#fff"/><path d="M51.22,99.88H56v20.21H51.22Z" fill="#fff"/><path d="M63,118.67l-5.61-12.62h5.21l2.9,7.49,2.68-7.49h4.59l-7.51,18.74H60.64Z" fill="#fff"/><path d="M82,106.32l-3.66,2.26V104l4.41-3.09h4.75v19.19H82Z" fill="#fff"/><path d="M89.81,114.05h5a2.19,2.19,0,0,0,2.5,2.23c1.58,0,2.3-1.18,2.3-2.71a2.43,2.43,0,0,0-2.6-2.74,3.94,3.94,0,0,0-3.17,1.37H90.56l.4-11.3H103.9v4h-9l-.1,4.24a5.09,5.09,0,0,1,4.48-2c3.52,0,5.82,2.36,5.82,6.52s-2.92,6.76-7.78,6.76C92.25,120.41,89.94,117.65,89.81,114.05Z" fill="#fff"/><path d="M106,117.68a2.67,2.67,0,0,1,2.74-2.71,2.71,2.71,0,1,1,0,5.42A2.68,2.68,0,0,1,106,117.68Z" fill="#fff"/></g></g></svg>