<svg xmlns="http://www.w3.org/2000/svg" viewBox="0 0 728 90"><title>H48</title><g id="Layer_2" data-name="Layer 2"><g id="Rect"><rect width="728" height="90" fill="none"/></g><g id="H48"><g id="Your_one-stop_tax_shop." data-name="Your one-stop tax shop."><path d="M129.44,46.5l-9.13-16H129l4.74,9.44,4.74-9.44h7.67l-8.69,16v12h-8.06Z" fill="#fff"/><path d="M143.26,48.5v-.32c0-6.58,4.89-10.73,11.23-10.73s11.16,4,11.16,10.54v.31c0,6.66-4.89,10.65-11.2,10.65S143.26,55.11,143.26,48.5Zm15.27-.12v-.32c0-3.44-1.38-5.36-4-5.36s-4.07,1.84-4.07,5.29v.31c0,3.52,1.37,5.44,4.07,5.44S158.53,51.78,158.53,48.38Z" fill="#fff"/><path d="M168,51.35V38h7V50.22c0,2.31.9,3.44,2.89,3.44s3.49-1.25,3.49-3.87V38h7V58.48h-7V55.31c-1.1,2.11-3.09,3.64-6.5,3.64C170.9,59,168,56.52,168,51.35Z" fill="#fff"/><path d="M191.92,38h7v4.07a6.44,6.44,0,0,1,6.61-4.34v6.54c-4.26-.12-6.61,1.21-6.61,4.5v9.71h-7Z" fill="#fff"/><path d="M214.12,48.5v-.32c0-6.58,4.89-10.73,11.23-10.73s11.16,4,11.16,10.54v.31c0,6.66-4.89,10.65-11.2,10.65S214.12,55.11,214.12,48.5Zm15.27-.12v-.32c0-3.44-1.37-5.36-4-5.36s-4.07,1.84-4.07,5.29v.31c0,3.52,1.37,5.44,4.07,5.44S229.39,51.78,229.39,48.38Z" fill="#fff"/><path d="M239,38h7v3.29a7.25,7.25,0,0,1,6.74-3.84c4,0,6.69,2.47,6.69,7.72V58.48h-7V46.58c0-2.31-.91-3.45-2.94-3.45S246,44.38,246,47V58.48h-7Z" fill="#fff"/><path d="M261.72,48.5v-.32c0-6.58,4.9-10.73,11.08-10.73,5.6,0,10.42,3.21,10.42,10.58v1.84H268.81c.19,2.7,1.76,4.26,4.27,4.26,2.31,0,3.28-1.05,3.56-2.42h6.58C282.59,56.33,279,59,272.84,59,266.42,59,261.72,55.19,261.72,48.5Zm14.68-2.59c-.11-2.47-1.33-3.84-3.6-3.84-2.11,0-3.56,1.37-3.91,3.84Z" fill="#fff"/><path d="M285.56,44.66h11v5.28h-11Z" fill="#fff"/><path d="M298.76,52h6.46c.23,1.49.9,2.31,2.89,2.31,1.73,0,2.51-.67,2.51-1.68s-1-1.45-3.8-1.84c-5.48-.71-7.79-2.31-7.79-6.58,0-4.54,4-6.74,8.77-6.74,5.05,0,8.58,1.73,9.05,6.62H310.5a2.29,2.29,0,0,0-2.62-2c-1.53,0-2.31.67-2.31,1.61s.94,1.37,3.44,1.68c5.68.71,8.42,2.2,8.42,6.58,0,4.86-3.6,7.05-9.28,7.05S298.91,56.52,298.76,52Z" fill="#fff"/><path d="M320.64,51.9V42.78h-2.47V38h2.47V33.73h7V38h4v4.78h-4v8.46a1.87,1.87,0,0,0,2.07,2.15,5.41,5.41,0,0,0,2-.35v5.32a14.45,14.45,0,0,1-3.87.59C323.23,59,320.64,56.72,320.64,51.9Z" fill="#fff"/><path d="M333.25,48.5v-.32c0-6.58,4.89-10.73,11.23-10.73s11.16,4,11.16,10.54v.31c0,6.66-4.89,10.65-11.2,10.65S333.25,55.11,333.25,48.5Zm15.27-.12v-.32c0-3.44-1.37-5.36-4-5.36s-4.07,1.84-4.07,5.29v.31c0,3.52,1.37,5.44,4.07,5.44S348.52,51.78,348.52,48.38Z" fill="#fff"/><path d="M358.11,38h7v3.06a7.21,7.21,0,0,1,6.38-3.61c4.77,0,8.65,3.61,8.65,10.61v.32c0,7-3.88,10.57-8.69,10.57a6.74,6.74,0,0,1-6.34-3.49v9.87h-7ZM373,48.38v-.32c0-3.6-1.56-5.32-4-5.32s-4.07,1.84-4.07,5.29v.31c0,3.48,1.53,5.24,4.07,5.24S373,51.75,373,48.38Z" fill="#fff"/><path d="M390.76,51.9V42.78h-2.47V38h2.47V33.73h7V38h4v4.78h-4v8.46a1.87,1.87,0,0,0,2.07,2.15,5.48,5.48,0,0,0,2-.35v5.32A14.47,14.47,0,0,1,398,59C393.34,59,390.76,56.72,390.76,51.9Z" fill="#fff"/><path d="M403.36,52.8c0-4.81,4.08-6.69,10.89-6.69h2v-.47c0-2-.47-3.25-2.71-3.25a2.51,2.51,0,0,0-2.78,2.42h-6.57c.31-4.93,4.19-7.36,9.78-7.36s9.24,2.31,9.24,7.76V58.48h-6.81V56.09c-1,1.49-2.78,2.86-6.07,2.86C406.61,59,403.36,57.15,403.36,52.8Zm12.85-1.49V50.06h-1.84c-2.82,0-4.08.55-4.08,2.23,0,1.18.79,1.92,2.43,1.92C414.72,54.21,416.21,53.08,416.21,51.31Z" fill="#fff"/><path d="M431.75,48.06,425.37,38h8.06l3.17,5.41L439.7,38h7.2l-6.46,9.52,7.09,11h-8.07l-3.64-6.11-3.72,6.11h-7.17Z" fill="#fff"/><path d="M455.24,52h6.46c.23,1.49.9,2.31,2.89,2.31,1.73,0,2.51-.67,2.51-1.68s-1-1.45-3.8-1.84c-5.48-.71-7.79-2.31-7.79-6.58,0-4.54,4-6.74,8.77-6.74,5.05,0,8.57,1.73,9.05,6.62H467a2.29,2.29,0,0,0-2.62-2c-1.53,0-2.31.67-2.31,1.61s.94,1.37,3.44,1.68c5.68.71,8.42,2.2,8.42,6.58,0,4.86-3.6,7.05-9.28,7.05S455.39,56.52,455.24,52Z" fill="#fff"/><path d="M476.18,29h7V41.29a7.24,7.24,0,0,1,6.73-3.84c4,0,6.7,2.47,6.7,7.72V58.48h-7V46.58c0-2.31-.9-3.45-2.94-3.45s-3.48,1.25-3.48,3.88V58.48h-7Z" fill="#fff"/><path d="M498.93,48.5v-.32c0-6.58,4.89-10.73,11.23-10.73s11.16,4,11.16,10.54v.31C521.32,55,516.43,59,510.13,59S498.93,55.11,498.93,48.5Zm15.27-.12v-.32c0-3.44-1.37-5.36-4-5.36s-4.07,1.84-4.07,5.29v.31c0,3.52,1.37,5.44,4.07,5.44S514.2,51.78,514.2,48.38Z" fill="#fff"/><path d="M523.79,38h7v3.06a7.24,7.24,0,0,1,6.39-3.61c4.77,0,8.65,3.61,8.65,10.61v.32c0,7-3.88,10.57-8.69,10.57a6.76,6.76,0,0,1-6.35-3.49v9.87h-7ZM538.7,48.38v-.32c0-3.6-1.56-5.32-4-5.32S530.6,44.58,530.6,48v.31c0,3.48,1.53,5.24,4.07,5.24S538.7,51.75,538.7,48.38Z" fill="#fff"/><path d="M547.59,55a3.9,3.9,0,0,1,4-4,4,4,0,1,1,0,7.91A3.9,3.9,0,0,1,547.59,55Z" fill="#fff"/></g></g></g></svg>