<?xml version="1.0" encoding="utf-8"?>
<!-- Generator: Adobe Illustrator 23.1.1, SVG Export Plug-In . SVG Version: 6.00 Build 0)  -->
<svg version="1.1" id="Layer_1" xmlns="http://www.w3.org/2000/svg" xmlns:xlink="http://www.w3.org/1999/xlink" x="0px" y="0px"
	 viewBox="0 0 600 500" style="enable-background:new 0 0 600 500;" xml:space="preserve">
<style type="text/css">
	.st0{fill:#FFFFFF;}
	.st1{fill:none;}
</style>
<title>300x250</title>
<g>
	<g id="Optional_loan_from_Axos_Bank_could_be_within_minutes_of_filing">
		<path class="st0" d="M41,307.6v-0.1c-0.2-3.5,2.5-6.5,6-6.7s6.5,2.5,6.7,6c0,0.2,0,0.5,0,0.7v0.1c0.2,3.5-2.5,6.5-6,6.7
			s-6.5-2.5-6.7-6C41,308,41,307.8,41,307.6z M52,307.6v-0.1c0.3-2.6-1.6-4.9-4.2-5.2s-4.9,1.6-5.2,4.2c0,0.4,0,0.7,0,1.1v0.1
			c-0.2,2.7,1.8,5,4.4,5.2c0.1,0,0.2,0,0.3,0c2.6,0,4.7-2.1,4.7-4.7C52,307.9,52,307.7,52,307.6L52,307.6z"/>
		<path class="st0" d="M55.8,304.5h1.5v1.5c0.7-1.1,1.9-1.7,3.2-1.7c2.4,0,4.3,1.9,4.3,4.3c0,0.2,0,0.3,0,0.5v0.1
			c0.3,2.4-1.4,4.5-3.8,4.8c-0.2,0-0.3,0-0.5,0c-1.3,0-2.5-0.6-3.2-1.7v4.8h-1.5V304.5z M63.3,309.3v-0.1c0-2.4-1.3-3.6-2.9-3.6
			s-3.1,1.2-3.1,3.6v0.1c0,2.4,1.3,3.6,3.1,3.6S63.3,311.6,63.3,309.3z"/>
		<path class="st0" d="M67.2,311.6v-5.8h-1.3v-1.3h1.3v-2.1h1.5v2.1h2.2v1.3h-2.2v5.7c0,0.9,0.4,1.4,1.2,1.4c0.4,0,0.8-0.1,1.2-0.2
			v1.3c-0.4,0.1-0.8,0.2-1.3,0.2c-1.3,0.1-2.4-0.7-2.5-2C67.2,311.9,67.2,311.7,67.2,311.6z"/>
		<path class="st0" d="M72.7,301.5c0-0.5,0.5-1,1-1c0.5,0,1,0.4,1,1l0,0c0,0.5-0.4,1-1,1C73.2,302.5,72.8,302.1,72.7,301.5z
			 M73,304.5h1.5v9.5H73V304.5z"/>
		<path class="st0" d="M76.6,309.3v-0.1c0-2.6,2.1-4.6,4.6-4.6c2.6,0,4.6,2.1,4.6,4.6c0,0,0,0,0,0v0.1c0,2.6-2.1,4.6-4.6,4.6
			C78.7,313.9,76.6,311.8,76.6,309.3C76.6,309.3,76.6,309.3,76.6,309.3z M84.3,309.3v-0.1c0-2.2-1.2-3.6-3.1-3.6
			c-1.7,0-3.1,1.4-3.1,3.1c0,0.1,0,0.3,0,0.4v0.1c0,2.1,1.2,3.6,3.1,3.6S84.3,311.4,84.3,309.3z"/>
		<path class="st0" d="M88,304.5h1.5v1.5c0.6-1.1,1.8-1.7,3-1.7c2,0,3.3,1.1,3.3,3.8v5.9h-1.5v-6c0-1.7-0.7-2.4-2.2-2.4
			c-1.4-0.1-2.5,0.9-2.6,2.3c0,0.1,0,0.2,0,0.3v5.8H88V304.5z"/>
		<path class="st0" d="M97.6,311.3c0-2.2,2.3-2.9,4.7-2.9h1.3v-0.7c0-1.5-0.6-2.1-2-2.1s-2,0.5-2.2,1.7H98c0.2-1.8,1.8-3.1,3.6-2.9
			c0,0,0.1,0,0.1,0c1.7-0.2,3.2,0.9,3.4,2.6c0,0.3,0,0.5,0,0.8v6.3h-1.5v-1.2c-0.7,0.9-1.8,1.4-2.9,1.4
			C99,314,97.6,313.2,97.6,311.3z M103.6,310.6v-1.2h-1.3c-1.9,0-3.3,0.5-3.3,1.9c0,1,0.5,1.6,1.8,1.6S103.7,312,103.6,310.6
			L103.6,310.6z"/>
		<path class="st0" d="M107.9,300h1.5v14h-1.5V300z"/>
		<path class="st0" d="M116.7,300h1.5v14h-1.5V300z"/>
		<path class="st0" d="M120.3,309.3v-0.1c-0.2-2.6,1.8-4.8,4.3-4.9c2.6-0.2,4.8,1.8,4.9,4.3c0,0.2,0,0.4,0,0.6v0.1
			c0.2,2.6-1.8,4.8-4.3,4.9c-2.6,0.2-4.8-1.8-4.9-4.3C120.3,309.7,120.3,309.5,120.3,309.3z M128,309.3v-0.1c0-2.2-1.2-3.6-3.1-3.6
			c-1.7,0-3.1,1.4-3.1,3.1c0,0.1,0,0.3,0,0.4v0.1c0,2.1,1.2,3.6,3.1,3.6S128,311.4,128,309.3L128,309.3z"/>
		<path class="st0" d="M130.8,311.3c0-2.2,2.3-2.9,4.7-2.9h1.4v-0.7c0-1.5-0.6-2.1-2-2.1s-2,0.5-2.2,1.7h-1.5
			c0.2-1.8,1.8-3.1,3.6-2.9c0,0,0.1,0,0.1,0c1.7-0.2,3.2,0.9,3.4,2.6c0,0.3,0,0.5,0,0.8v6.3h-1.5v-1.2c-0.7,0.9-1.8,1.3-2.9,1.2
			C132.2,314,130.8,313.2,130.8,311.3z M136.8,310.6v-1.2h-1.3c-2,0-3.3,0.5-3.3,1.9c0,1,0.5,1.6,1.8,1.6S136.9,312,136.8,310.6
			L136.8,310.6z"/>
		<path class="st0" d="M141.1,304.5h1.5v1.5c0.6-1.1,1.8-1.7,3-1.7c2,0,3.3,1.1,3.3,3.8v5.9h-1.5v-6c0-1.7-0.7-2.4-2.2-2.4
			c-1.4-0.1-2.5,0.9-2.6,2.3c0,0.1,0,0.2,0,0.2v5.8h-1.5V304.5z"/>
		<path class="st0" d="M156.4,305.8H155v-1.3h1.3V303c0-1.9,0.9-3,2.8-3c0.4,0,0.8,0.1,1.1,0.2v1.3c-0.3-0.1-0.7-0.2-1.1-0.2
			c-1,0-1.4,0.7-1.4,1.6v1.7h2.3v1.3h-2.3v8.2h-1.5V305.8z"/>
		<path class="st0" d="M162,304.5h1.5v1.7c0.6-1.2,1.8-1.9,3.1-1.8v1.4c-2,0-3.1,0.7-3.1,3v5.3H162V304.5z"/>
		<path class="st0" d="M167.5,309.3v-0.1c-0.2-2.6,1.8-4.8,4.3-4.9c2.6-0.2,4.8,1.8,4.9,4.3c0,0.2,0,0.4,0,0.6v0.1
			c0.2,2.6-1.8,4.8-4.3,4.9c-2.6,0.2-4.8-1.8-4.9-4.3C167.5,309.7,167.5,309.5,167.5,309.3z M175.3,309.3v-0.1
			c0-2.2-1.2-3.6-3.1-3.6s-3.1,1.4-3.1,3.6v0.1c0,2.1,1.2,3.6,3.1,3.6c1.7,0,3.1-1.4,3.1-3.2C175.3,309.5,175.3,309.4,175.3,309.3z"
			/>
		<path class="st0" d="M178.9,304.5h1.5v1.5c0.6-1,1.7-1.6,2.8-1.6c1.2-0.1,2.3,0.6,2.7,1.8c0.7-1.1,1.9-1.8,3.2-1.8
			c1.7,0,3.2,1,3.2,3.7v5.9h-1.5v-6c0-1.7-0.7-2.3-2-2.3c-1.3,0-2.4,1-2.5,2.3c0,0.1,0,0.1,0,0.2v5.8h-1.5v-6c0-1.7-0.7-2.3-2-2.3
			c-1.3-0.1-2.4,1-2.5,2.3c0,0.1,0,0.2,0,0.2v5.8h-1.5L178.9,304.5z"/>
		<path class="st0" d="M203,301h2l4.4,12.9h-1.6l-1.3-3.7h-5.3L200,314h-1.4L203,301z M201.7,309h4.5l-2.2-6.7L201.7,309z"/>
		<path class="st0" d="M213.7,309.1l-3.1-4.6h1.7l2.3,3.4l2.3-3.4h1.6l-3.1,4.5l3.4,5H217l-2.5-3.8L212,314h-1.6L213.7,309.1z"/>
		<path class="st0" d="M219.4,309.3v-0.1c-0.2-2.6,1.8-4.8,4.3-4.9c2.6-0.2,4.8,1.8,4.9,4.3c0,0.2,0,0.4,0,0.6v0.1
			c0.2,2.6-1.8,4.8-4.3,4.9c-2.6,0.2-4.8-1.8-4.9-4.3C219.4,309.7,219.4,309.5,219.4,309.3z M227.1,309.3v-0.1
			c0-2.2-1.2-3.6-3.1-3.6s-3.1,1.4-3.1,3.6v0.1c0,2.1,1.2,3.6,3.1,3.6c1.7,0,3.1-1.4,3.1-3.2C227.1,309.5,227.1,309.4,227.1,309.3z"
			/>
		<path class="st0" d="M230,311h1.5c0,1.1,0.7,1.8,2.2,1.8s2-0.5,2-1.5s-0.7-1.3-2.2-1.6c-2.4-0.5-3.3-1.1-3.3-2.8
			c0.2-1.6,1.6-2.8,3.2-2.6c1.7-0.2,3.2,0.9,3.4,2.6c0,0,0,0.1,0,0.1h-1.4c-0.2-1-0.8-1.5-2-1.5s-1.8,0.5-1.8,1.3s0.5,1.2,2.2,1.5
			s3.3,0.8,3.3,2.8c0,1.7-1.2,2.9-3.5,2.9S230,312.9,230,311z"/>
		<path class="st0" d="M243.7,301h3.9c2.4,0,4.1,0.8,4.1,3.3l0,0c0.1,1.3-0.8,2.4-2,2.7c1.6,0.1,2.7,1.5,2.6,3.1c0,0,0,0,0,0l0,0
			c0,2.4-1.6,3.6-4.2,3.6h-4.4L243.7,301z M247.6,306.7c1.9,0,2.6-0.7,2.6-2.3l0,0c0-1.5-0.8-2-2.6-2h-2.3v4.4L247.6,306.7z
			 M248.1,312.7c1.9,0,2.7-0.8,2.7-2.4l0,0c0-1.6-0.9-2.3-3-2.3h-2.6v4.8L248.1,312.7z"/>
		<path class="st0" d="M253.7,311.3c0-2.2,2.3-2.9,4.7-2.9h1.4v-0.7c0-1.5-0.6-2.1-2-2.1s-2,0.5-2.2,1.7h-1.5
			c0.2-1.8,1.8-3.1,3.6-2.9c0,0,0.1,0,0.1,0c1.7-0.2,3.2,0.9,3.4,2.6c0,0.3,0,0.5,0,0.8v6.3h-1.5v-1.2c-0.7,0.9-1.8,1.4-2.9,1.4
			C255.1,314,253.7,313.2,253.7,311.3z M259.7,310.6v-1.2h-1.3c-1.9,0-3.3,0.5-3.3,1.9c0,1,0.5,1.6,1.8,1.6
			C258.6,312.9,259.8,312,259.7,310.6L259.7,310.6z"/>
		<path class="st0" d="M264,304.5h1.5v1.5c0.6-1.1,1.8-1.7,3-1.7c2,0,3.3,1.1,3.3,3.8v5.9h-1.5v-6c0-1.7-0.7-2.4-2.2-2.4
			c-1.4-0.1-2.5,0.9-2.6,2.3c0,0.1,0,0.2,0,0.2v5.8H264V304.5z"/>
		<path class="st0" d="M274.4,300h1.6v8.8l3.9-4.3h1.8l-4,4.4l4.3,5.1h-1.8l-4.2-5v5h-1.5L274.4,300z"/>
		<path class="st0" d="M282.3,302.7c0-1.3,1-2.3,2.3-2.3c0,0,0,0,0,0c1.3,0,2.3,1.1,2.3,2.3c0,1.3-1.1,2.3-2.3,2.3
			C283.4,304.9,282.3,303.9,282.3,302.7z M286.6,302.7c0-1.1-0.9-2-2-2c-1.1,0-2,0.9-2,2c0,1.1,0.9,2,2,2c0,0,0.1,0,0.1,0
			c1,0,1.9-0.8,1.9-1.8C286.6,302.8,286.6,302.7,286.6,302.7L286.6,302.7z M283.9,301.5h0.8c0.5,0,0.9,0.2,0.9,0.7l0,0
			c0,0.3-0.2,0.6-0.5,0.6l0.6,1h-0.5l-0.6-0.9h-0.2v0.9h-0.5L283.9,301.5z M284.7,302.5c0.3,0,0.4-0.1,0.4-0.3l0,0
			c0-0.2-0.1-0.3-0.4-0.3h-0.3v0.7H284.7z"/>
		<path class="st0" d="M292.5,309.3v-0.1c-0.1-2.5,1.8-4.7,4.3-4.8c0.1,0,0.2,0,0.2,0c2-0.2,3.8,1.3,4,3.3h-1.5
			c-0.2-1.3-1.3-2.1-2.6-2c-1.8,0.1-3.1,1.5-3.1,3.3c0,0.1,0,0.2,0,0.3v0.1c0,2.3,1.3,3.5,3.1,3.5c1.4,0.1,2.6-0.9,2.7-2.3h1.4
			c-0.2,2.1-2,3.6-4.1,3.6c-2.5,0-4.5-2-4.5-4.4C292.5,309.6,292.5,309.4,292.5,309.3z"/>
		<path class="st0" d="M302.5,309.3v-0.1c0-2.6,2.1-4.6,4.6-4.6c2.6,0,4.6,2.1,4.6,4.6c0,0,0,0,0,0v0.1c0,2.6-2.1,4.6-4.6,4.6
			C304.6,313.9,302.5,311.8,302.5,309.3C302.5,309.3,302.5,309.3,302.5,309.3z M310.2,309.3v-0.1c0-2.2-1.2-3.6-3.1-3.6
			s-3.1,1.4-3.1,3.6v0.1c0,2.1,1.2,3.6,3.1,3.6c1.7,0,3.1-1.4,3.1-3.2C310.2,309.5,310.2,309.4,310.2,309.3z"/>
		<path class="st0" d="M313.7,310.5v-6h1.5v5.9c0,1.7,0.7,2.4,2.2,2.4c1.4,0.1,2.5-1,2.6-2.3c0-0.1,0-0.1,0-0.2v-5.7h1.5v9.5H320
			v-1.5c-0.6,1.1-1.7,1.7-3,1.7C315.1,314,313.7,313,313.7,310.5z"/>
		<path class="st0" d="M324.3,300h1.5v14h-1.5V300z"/>
		<path class="st0" d="M327.9,309.4v-0.2c-0.2-2.5,1.5-4.6,4-4.9c0.1,0,0.3,0,0.4,0c1.3-0.1,2.4,0.6,3.1,1.7v-6h1.5v14h-1.5v-1.6
			c-0.7,1.1-1.9,1.7-3.2,1.8c-2.3,0-4.2-1.8-4.3-4.1C327.8,309.8,327.8,309.6,327.9,309.4z M335.4,309.3v-0.1c0-2.4-1.2-3.5-3-3.5
			s-3,1.3-3,3.6v0.1c0,2.4,1.3,3.5,2.9,3.5S335.4,311.7,335.4,309.3L335.4,309.3z"/>
		<path class="st0" d="M345.6,312.4v1.6H344v-14h1.5v6c0.7-1.1,1.9-1.7,3.2-1.7c2.4,0,4.3,1.9,4.3,4.3c0,0.2,0,0.3,0,0.5v0.1
			c0.3,2.4-1.4,4.6-3.8,4.8c-0.1,0-0.3,0-0.4,0C347.4,314,346.2,313.4,345.6,312.4z M351.6,309.3v-0.1c0-2.4-1.3-3.6-2.9-3.6
			s-3.1,1.2-3.1,3.6v0.1c0,2.4,1.3,3.6,3.1,3.6S351.5,311.6,351.6,309.3L351.6,309.3z"/>
		<path class="st0" d="M354.4,309.3v-0.1c-0.2-2.4,1.6-4.6,4-4.8c0.1,0,0.3,0,0.4,0c2.3-0.1,4.2,1.7,4.3,4c0,0.2,0,0.5,0,0.7v0.5h-7
			c0,2.1,1.1,3.3,3,3.3c1.5,0,2.3-0.5,2.5-1.6h1.5c-0.4,1.8-2.1,3.1-4,2.9c-2.4,0.1-4.5-1.8-4.6-4.2
			C354.4,309.7,354.4,309.5,354.4,309.3z M361.5,308.3c-0.1-2-1.2-2.7-2.7-2.7c-1.5,0-2.8,1.2-2.8,2.7H361.5z"/>
		<path class="st0" d="M368.5,304.5h1.6l2.2,7.6l2.3-7.6h1.4l2,7.5l2.2-7.6h1.5l-2.9,9.6h-1.7l-2-7.1L373,314h-1.6L368.5,304.5z"/>
		<path class="st0" d="M383.3,301.5c0-0.5,0.5-1,1-1c0.5,0,1,0.4,1,1c0,0,0,0,0,0c0,0.5-0.4,1-1,1
			C383.8,302.5,383.3,302.1,383.3,301.5z M383.6,304.5h1.5v9.5h-1.5V304.5z"/>
		<path class="st0" d="M388.2,311.6v-5.8h-1.3v-1.3h1.3v-2.1h1.5v2.1h2.3v1.3h-2.2v5.7c0,0.9,0.4,1.4,1.2,1.4c0.4,0,0.8-0.1,1.2-0.2
			v1.3c-0.4,0.1-0.8,0.2-1.3,0.2c-1.2,0.2-2.4-0.6-2.6-1.9C388.2,312,388.2,311.8,388.2,311.6z"/>
		<path class="st0" d="M394,300h1.5v6c0.6-1.1,1.8-1.7,3-1.7c2,0,3.3,1.1,3.3,3.8v5.9h-1.5v-6c0-1.7-0.7-2.4-2.2-2.4
			c-1.4-0.1-2.5,0.9-2.6,2.3c0,0.1,0,0.2,0,0.3v5.8H394V300z"/>
		<path class="st0" d="M404.3,301.5c0-0.6,0.4-1,1-1c0.6,0,1,0.4,1,1s-0.4,1-1,1c0,0,0,0,0,0C404.7,302.5,404.3,302.1,404.3,301.5z
			 M404.5,304.5h1.5v9.5h-1.5L404.5,304.5z"/>
		<path class="st0" d="M408.8,304.5h1.5v1.5c0.6-1.1,1.8-1.7,3-1.7c2,0,3.3,1.1,3.3,3.8v5.9h-1.5v-6c0-1.7-0.7-2.4-2.2-2.4
			c-1.4-0.1-2.5,0.9-2.6,2.3c0,0.1,0,0.2,0,0.2v5.8h-1.5L408.8,304.5z"/>
		<path class="st0" d="M423.8,304.5h1.5v1.5c0.6-1,1.7-1.6,2.8-1.6c1.2-0.1,2.3,0.6,2.7,1.8c0.7-1.1,1.9-1.8,3.2-1.8
			c1.7,0,3.2,1,3.2,3.7v5.9h-1.5v-6c0-1.7-0.7-2.3-2-2.3c-1.3,0-2.4,1-2.5,2.3c0,0.1,0,0.1,0,0.2v5.8h-1.5v-6c0-1.7-0.7-2.3-2-2.3
			c-1.3,0-2.4,1-2.5,2.3c0,0.1,0,0.1,0,0.2v5.8h-1.5L423.8,304.5z"/>
		<path class="st0" d="M439.7,301.5c0-0.5,0.5-1,1-1c0.5,0,1,0.4,1,1c0,0,0,0,0,0c0,0.5-0.4,1-1,1
			C440.1,302.5,439.7,302.1,439.7,301.5z M440,304.5h1.5v9.5H440L440,304.5z"/>
		<path class="st0" d="M444.2,304.5h1.5v1.5c0.6-1.1,1.8-1.7,3-1.7c2,0,3.3,1.1,3.3,3.8v5.9h-1.5v-6c0-1.7-0.7-2.4-2.2-2.4
			c-1.4-0.1-2.5,0.9-2.6,2.3c0,0.1,0,0.2,0,0.3v5.8h-1.5V304.5z"/>
		<path class="st0" d="M454.6,310.5v-6h1.5v5.9c0,1.7,0.7,2.4,2.2,2.4c1.4,0.1,2.5-1,2.6-2.4c0-0.1,0-0.1,0-0.2v-5.7h1.5v9.5h-1.5
			v-1.5c-0.6,1-1.7,1.6-2.9,1.5C456,314,454.6,313,454.6,310.5z"/>
		<path class="st0" d="M465.5,311.6v-5.8h-1.4v-1.3h1.4v-2.1h1.5v2.1h2.2v1.3H467v5.7c0,0.9,0.4,1.4,1.2,1.4c0.4,0,0.8-0.1,1.2-0.2
			v1.3c-0.4,0.1-0.8,0.2-1.3,0.2c-1.3,0.1-2.4-0.7-2.5-2C465.5,311.9,465.5,311.7,465.5,311.6z"/>
		<path class="st0" d="M470.6,309.3v-0.1c-0.2-2.4,1.6-4.6,4-4.8c0.1,0,0.3,0,0.4,0c2.3-0.1,4.2,1.7,4.3,4c0,0.2,0,0.5,0,0.7v0.5
			h-7.1c0,2.1,1.1,3.3,3,3.3c1.5,0,2.3-0.5,2.5-1.6h1.5c-0.4,1.9-2.1,3.1-4,2.9c-2.4,0.1-4.5-1.8-4.6-4.3
			C470.6,309.6,470.6,309.5,470.6,309.3z M477.7,308.3c-0.1-2-1.1-2.7-2.7-2.7c-1.5,0-2.7,1.2-2.8,2.7H477.7z"/>
		<path class="st0" d="M480.5,311h1.5c0.1,1.1,0.7,1.8,2.2,1.8s2-0.5,2-1.5s-0.7-1.3-2.2-1.6c-2.5-0.5-3.3-1.1-3.3-2.8
			c0.1-1.6,1.6-2.8,3.2-2.6c0,0,0,0,0,0c1.6-0.2,3.2,0.9,3.4,2.6c0,0.1,0,0.1,0,0.2H486c-0.2-1-0.8-1.5-2-1.5s-1.8,0.5-1.8,1.3
			s0.5,1.2,2.2,1.5s3.3,0.8,3.3,2.8c0,1.7-1.2,2.9-3.5,2.9S480.6,312.9,480.5,311z"/>
		<path class="st0" d="M493.5,309.3v-0.1c-0.2-2.6,1.8-4.8,4.3-4.9c2.6-0.2,4.8,1.8,4.9,4.3c0,0.2,0,0.4,0,0.6v0.1
			c0.2,2.6-1.8,4.8-4.3,4.9c-2.6,0.2-4.8-1.8-4.9-4.3C493.5,309.7,493.5,309.5,493.5,309.3z M501.2,309.3v-0.1
			c0-2.2-1.2-3.6-3.1-3.6s-3.1,1.4-3.1,3.6v0.1c0,2.1,1.2,3.6,3.1,3.6c1.7,0,3.1-1.4,3.1-3.2C501.2,309.5,501.2,309.4,501.2,309.3z"
			/>
		<path class="st0" d="M505.1,305.8h-1.4v-1.3h1.4V303c0-1.9,0.9-3,2.8-3c0.4,0,0.8,0.1,1.1,0.2v1.3c-0.3-0.1-0.7-0.2-1.1-0.2
			c-1,0-1.4,0.7-1.4,1.6v1.7h2.3v1.3h-2.3v8.2h-1.5V305.8z"/>
		<path class="st0" d="M515.6,305.8h-1.4v-1.3h1.4V303c0-1.9,0.9-3,2.8-3c0.4,0,0.8,0.1,1.1,0.2v1.3c-0.3-0.1-0.7-0.2-1.1-0.2
			c-1,0-1.4,0.7-1.4,1.6v1.7h2.3v1.3h-2.3v8.2h-1.5V305.8z"/>
		<path class="st0" d="M521,301.5c0-0.5,0.4-1,1-1c0.5,0,1,0.4,1,1c0,0.5-0.5,1-1,1C521.4,302.5,521,302.1,521,301.5z M521.2,304.5
			h1.5v9.5h-1.5V304.5z"/>
		<path class="st0" d="M525.6,300h1.5v14h-1.5V300z"/>
		<path class="st0" d="M529.6,301.5c0-0.5,0.5-1,1-1c0.5,0,1,0.4,1,1c0,0.5-0.4,1-1,1C530.1,302.5,529.6,302.1,529.6,301.5z
			 M529.9,304.5h1.5v9.5H530L529.9,304.5z"/>
		<path class="st0" d="M534.2,304.5h1.5v1.5c0.6-1.1,1.8-1.7,3-1.7c2,0,3.3,1.1,3.3,3.8v5.9h-1.5v-6c0-1.7-0.7-2.4-2.2-2.4
			c-1.4-0.1-2.5,0.9-2.6,2.3c0,0.1,0,0.2,0,0.3v5.8h-1.5L534.2,304.5z"/>
		<path class="st0" d="M544.2,314.5h1.5c0.2,1.1,1.1,1.6,2.7,1.6c1.4,0.2,2.8-0.8,3-2.2c0-0.2,0-0.5,0-0.7v-1.4
			c-0.7,1.1-1.9,1.7-3.2,1.8c-2.3,0-4.3-1.9-4.3-4.2c0-0.1,0-0.2,0-0.3V309c-0.1-2.5,1.8-4.6,4.2-4.7c0,0,0.1,0,0.1,0
			c1.3-0.1,2.4,0.6,3.1,1.7v-1.5h1.5v8.8c0,2.2-1.8,4-4,4c-0.2,0-0.4,0-0.5,0C545.6,317.4,544.4,316,544.2,314.5z M551.5,309v-0.1
			c0.2-1.6-0.9-3.1-2.5-3.3c-0.2,0-0.3,0-0.5,0c-1.7,0-3,1.3-3,3c0,0.1,0,0.3,0,0.4v0.1c-0.2,1.6,1,3.1,2.7,3.3c0.1,0,0.2,0,0.2,0
			c1.7,0,3.1-1.3,3.1-2.9C551.5,309.3,551.5,309.2,551.5,309L551.5,309z"/>
		<path class="st0" d="M555.6,312.9c0-0.6,0.5-1.1,1.1-1.2c0,0,0,0,0,0c0.6-0.1,1.2,0.4,1.3,1c0.1,0.6-0.4,1.2-1,1.3
			c-0.1,0-0.2,0-0.3,0C556.1,314,555.6,313.5,555.6,312.9C555.6,312.9,555.6,312.9,555.6,312.9z"/>
		<path class="st0" d="M41.6,319h2l6.4,10.6V319h1.5v13h-1.8l-6.5-11v11h-1.5L41.6,319z"/>
		<path class="st0" d="M53.6,327.3v-0.1c0-2.6,2.1-4.6,4.6-4.6s4.6,2.1,4.6,4.6c0,0,0,0,0,0v0.1c0,2.6-2.1,4.6-4.6,4.6
			S53.6,329.8,53.6,327.3C53.6,327.3,53.6,327.3,53.6,327.3z M61.3,327.3v-0.1c0-2.2-1.2-3.6-3.1-3.6s-3.1,1.4-3.1,3.6v0.1
			c0,2.1,1.2,3.6,3.1,3.6c1.7,0,3.1-1.4,3.1-3.2C61.3,327.5,61.3,327.4,61.3,327.3z"/>
		<path class="st0" d="M65.2,329.6v-5.8h-1.4v-1.3h1.4v-2.1h1.5v2.1h2.2v1.3h-2.2v5.7c0,0.9,0.4,1.4,1.2,1.4c0.4,0,0.8-0.1,1.2-0.2
			v1.3c-0.4,0.1-0.8,0.2-1.3,0.2c-1.3,0.1-2.4-0.7-2.5-2C65.2,329.9,65.2,329.7,65.2,329.6z"/>
		<path class="st0" d="M78.1,330.9l-3.7-8.4H76l2.9,6.7l2.6-6.7H83l-5.2,12.7h-1.5L78.1,330.9z"/>
		<path class="st0" d="M83.8,327.3v-0.1c-0.2-2.6,1.8-4.8,4.3-4.9c2.6-0.2,4.8,1.8,4.9,4.3c0,0.2,0,0.4,0,0.6v0.1
			c0.2,2.6-1.8,4.8-4.3,4.9c-2.6,0.2-4.8-1.8-4.9-4.3C83.8,327.7,83.8,327.5,83.8,327.3z M91.5,327.3v-0.1c0-2.2-1.2-3.6-3.1-3.6
			c-1.7,0-3.1,1.4-3.1,3.1c0,0.1,0,0.3,0,0.4v0.1c0,2.1,1.2,3.6,3.1,3.6S91.5,329.4,91.5,327.3z"/>
		<path class="st0" d="M95,328.5v-6h1.5v5.9c0,1.7,0.7,2.4,2.2,2.4c1.4,0.1,2.5-1,2.6-2.4c0-0.1,0-0.2,0-0.2v-5.7h1.5v9.5h-1.5v-1.5
			c-0.6,1.1-1.8,1.7-3,1.7C96.4,332,95,331,95,328.5z"/>
		<path class="st0" d="M105.5,322.5h1.5v1.7c0.6-1.2,1.8-1.9,3.1-1.8v1.4c-1.9,0-3.1,0.7-3.1,3v5.3h-1.5V322.5z"/>
		<path class="st0" d="M116.8,329.6v-5.8h-1.3v-1.3h1.3v-2.1h1.5v2.1h2.2v1.3h-2.2v5.7c0,0.9,0.4,1.4,1.2,1.4c0.4,0,0.8-0.1,1.2-0.2
			v1.3c-0.4,0.1-0.8,0.2-1.3,0.2c-1.3,0.1-2.4-0.7-2.5-2C116.8,329.9,116.8,329.7,116.8,329.6z"/>
		<path class="st0" d="M122,329.3c0-2.2,2.3-2.9,4.7-2.9h1.3v-0.7c0-1.5-0.6-2.1-2-2.1s-2,0.5-2.2,1.7h-1.5c0.2-1.8,1.8-3.1,3.6-2.9
			c0,0,0,0,0,0c1.7-0.2,3.2,0.9,3.4,2.6c0,0.3,0,0.5,0,0.8v6.3H128v-1.2c-0.7,0.9-1.8,1.4-2.9,1.4C123.3,332,122,331.2,122,329.3z
			 M128,328.6v-1.2h-1.3c-1.9,0-3.3,0.5-3.3,1.9c0,1,0.5,1.6,1.8,1.6S128,330,128,328.6z"/>
		<path class="st0" d="M134.5,327.1l-3.2-4.6h1.8l2.3,3.5l2.3-3.4h1.6l-3.1,4.5l3.4,5h-1.8l-2.5-3.8l-2.6,3.8h-1.6L134.5,327.1z"/>
		<path class="st0" d="M146,322.5h1.5v1.7c0.6-1.2,1.8-1.9,3.1-1.8v1.4c-1.9,0-3.1,0.7-3.1,3v5.3H146V322.5z"/>
		<path class="st0" d="M151.4,327.3v-0.1c-0.2-2.4,1.6-4.6,4-4.8c0.1,0,0.3,0,0.4,0c2.3,0,4.2,1.8,4.2,4c0,0.2,0,0.4,0,0.6v0.5h-7
			c0,2.1,1.1,3.3,3,3.3c1.5,0,2.3-0.5,2.5-1.6h1.5c-0.4,1.8-2.1,3-4,2.8c-2.4,0.1-4.5-1.8-4.6-4.2
			C151.4,327.6,151.4,327.5,151.4,327.3z M158.5,326.3c-0.2-2-1.2-2.7-2.7-2.7c-1.5,0-2.8,1.2-2.8,2.7H158.5z"/>
		<path class="st0" d="M162.4,323.8H161v-1.3h1.4V321c0-1.9,0.9-3,2.8-3c0.4,0,0.8,0.1,1.1,0.2v1.3c-0.3-0.1-0.7-0.2-1.1-0.2
			c-1,0-1.4,0.7-1.4,1.6v1.7h2.3v1.3H164v8.2h-1.6V323.8z"/>
		<path class="st0" d="M168,328.5v-6h1.5v5.9c0,1.7,0.7,2.4,2.2,2.4c1.4,0.1,2.5-1,2.6-2.4c0-0.1,0-0.1,0-0.2v-5.7h1.5v9.5h-1.6
			v-1.5c-0.6,1.1-1.7,1.7-3,1.7C169.3,332,168,331,168,328.5z"/>
		<path class="st0" d="M178.5,322.5h1.5v1.5c0.6-1.1,1.8-1.7,3-1.7c2,0,3.3,1.1,3.3,3.8v5.9h-1.5v-6c0-1.7-0.7-2.4-2.2-2.4
			c-1.4-0.1-2.5,1-2.6,2.4c0,0.1,0,0.1,0,0.2v5.8h-1.5L178.5,322.5z"/>
		<path class="st0" d="M188.2,327.4v-0.2c-0.2-2.5,1.5-4.6,4-4.9c0.1,0,0.3,0,0.4,0c1.3-0.1,2.4,0.6,3.1,1.7v-6h1.5v14h-1.5v-1.6
			c-0.7,1.1-1.9,1.7-3.2,1.8c-2.3,0.1-4.2-1.8-4.3-4.1C188.2,327.8,188.2,327.6,188.2,327.4z M195.8,327.3v-0.1c0-2.4-1.2-3.5-3-3.5
			s-3,1.3-3,3.6v0.1c0,2.4,1.3,3.5,2.9,3.5S195.8,329.7,195.8,327.3L195.8,327.3z"/>
		<path class="st0" d="M199.8,330.9c0-0.6,0.5-1.2,1.1-1.2c0.6,0,1.2,0.5,1.2,1.1c0,0.6-0.5,1.2-1.1,1.2c0,0,0,0,0,0
			C200.4,332,199.9,331.5,199.8,330.9C199.8,330.9,199.8,330.9,199.8,330.9z"/>
		<rect class="st1" width="600" height="500"/>
	</g>
</g>
</svg>
