<svg xmlns="http://www.w3.org/2000/svg" viewBox="0 0 728 90"><title>H15</title><g id="Layer_2" data-name="Layer 2"><g id="Rect"><rect width="728" height="90" fill="none"/></g><g id="H15"><g id="Free_is_cheaper._Obviously._File_free_with_H_R_Block_Online." data-name="Free is cheaper. Obviously.  File free with H&amp;R Block Online."><path d="M122.06,18.13h14.39v4.74H128.2V27.4h6.58v4.5H128.2v7.54h-6.14Z" fill="#fff"/><path d="M137.88,23.85h5.33V27a4.92,4.92,0,0,1,5-3.3v5c-3.25-.09-5,.93-5,3.43v7.39h-5.33Z" fill="#fff"/><path d="M149.2,31.84V31.6c0-5,3.73-8.16,8.44-8.16,4.26,0,7.92,2.44,7.92,8v1.4h-11c.15,2.06,1.34,3.25,3.25,3.25,1.75,0,2.5-.8,2.71-1.85h5c-.47,3.52-3.18,5.52-7.89,5.52C152.78,39.8,149.2,36.94,149.2,31.84Zm11.18-2c-.09-1.87-1-2.92-2.74-2.92s-2.71,1.05-3,2.92Z" fill="#fff"/><path d="M166.58,31.84V31.6c0-5,3.72-8.16,8.43-8.16,4.26,0,7.93,2.44,7.93,8v1.4H172c.15,2.06,1.34,3.25,3.25,3.25,1.76,0,2.5-.8,2.71-1.85h5c-.48,3.52-3.19,5.52-7.9,5.52C170.15,39.8,166.58,36.94,166.58,31.84Zm11.17-2C177.66,28,176.74,27,175,27s-2.71,1.05-3,2.92Z" fill="#fff"/><path d="M190.09,19.62A2.94,2.94,0,1,1,193,22.36,2.78,2.78,0,0,1,190.09,19.62Zm.27,4.23h5.33V39.44h-5.33Z" fill="#fff"/><path d="M197.51,34.49h4.92c.17,1.13.68,1.76,2.2,1.76,1.31,0,1.91-.51,1.91-1.28s-.75-1.1-2.89-1.4c-4.17-.54-5.93-1.76-5.93-5,0-3.46,3.07-5.12,6.67-5.12,3.85,0,6.53,1.31,6.89,5h-4.83a1.75,1.75,0,0,0-2-1.55c-1.16,0-1.76.51-1.76,1.22s.72,1.05,2.63,1.29c4.32.53,6.4,1.67,6.4,5,0,3.7-2.74,5.37-7.06,5.37S197.63,38,197.51,34.49Z" fill="#fff"/><path d="M218,31.84V31.6c0-5.18,3.73-8.16,8.32-8.16,3.81,0,7.33,1.66,7.62,6.4h-5a2.31,2.31,0,0,0-2.51-2.26c-1.87,0-3,1.34-3,4v.24c0,2.71,1,4.11,3.07,4.11a2.6,2.6,0,0,0,2.72-2.59h4.79c-.15,3.93-2.8,6.5-7.83,6.5C221.59,39.8,218,37.08,218,31.84Z" fill="#fff"/><path d="M235.8,17h5.34v9.36a5.49,5.49,0,0,1,5.12-2.92c3,0,5.1,1.87,5.1,5.87V39.44H246V30.38c0-1.76-.68-2.62-2.23-2.62s-2.65.95-2.65,2.95v8.73H235.8Z" fill="#fff"/><path d="M253.12,31.84V31.6c0-5,3.72-8.16,8.43-8.16,4.26,0,7.93,2.44,7.93,8v1.4h-11c.15,2.06,1.34,3.25,3.25,3.25s2.5-.8,2.71-1.85h5c-.48,3.52-3.19,5.52-7.9,5.52C256.69,39.8,253.12,36.94,253.12,31.84Zm11.17-2c-.09-1.87-1-2.92-2.74-2.92s-2.71,1.05-3,2.92Z" fill="#fff"/><path d="M270.58,35.12c0-3.67,3.1-5.1,8.28-5.1h1.49v-.36c0-1.49-.36-2.47-2.05-2.47A1.92,1.92,0,0,0,276.18,29h-5c.24-3.76,3.19-5.6,7.45-5.6s7,1.75,7,5.9v10.1h-5.19V37.62a5.11,5.11,0,0,1-4.62,2.18C273.05,39.8,270.58,38.43,270.58,35.12ZM280.35,34V33H279c-2.14,0-3.1.42-3.1,1.7,0,.89.6,1.46,1.85,1.46C279.22,36.19,280.35,35.33,280.35,34Z" fill="#fff"/><path d="M288.25,23.85h5.33v2.33a5.52,5.52,0,0,1,4.86-2.74c3.64,0,6.59,2.74,6.59,8.07v.24c0,5.36-2.95,8-6.62,8a5.16,5.16,0,0,1-4.83-2.66v7.51h-5.33Zm11.35,7.9v-.24c0-2.74-1.19-4.05-3.07-4.05s-3.1,1.4-3.1,4v.24c0,2.65,1.17,4,3.1,4S299.6,34.31,299.6,31.75Z" fill="#fff"/><path d="M306.13,31.84V31.6c0-5,3.72-8.16,8.43-8.16,4.26,0,7.93,2.44,7.93,8v1.4h-11c.15,2.06,1.34,3.25,3.25,3.25s2.5-.8,2.71-1.85h5c-.48,3.52-3.19,5.52-7.9,5.52C309.7,39.8,306.13,36.94,306.13,31.84Zm11.17-2c-.09-1.87-1-2.92-2.74-2.92s-2.71,1.05-3,2.92Z" fill="#fff"/><path d="M324.34,23.85h5.33V27a4.91,4.91,0,0,1,5-3.3v5c-3.25-.09-5,.93-5,3.43v7.39h-5.33Z" fill="#fff"/><path d="M334.65,36.76a3,3,0,0,1,3-3,3,3,0,1,1,0,6A3,3,0,0,1,334.65,36.76Z" fill="#fff"/><path d="M348.09,28.92v-.24c0-6.5,4.88-10.85,11.26-10.85s11.29,4.09,11.29,10.7v.24c0,6.56-4.5,11-11.38,11S348.09,35.33,348.09,28.92Zm16.18-.06v-.24c0-3.78-1.91-6-4.92-6s-4.89,2.18-4.89,6v.24c0,3.87,2,6.11,4.92,6.11S364.27,32.67,364.27,28.86Z" fill="#fff"/><path d="M378,37v2.41H372.7V17H378v9.18a5.52,5.52,0,0,1,4.86-2.74c3.64,0,6.59,2.74,6.59,8.07v.24c0,5.36-3,8-6.62,8A5.08,5.08,0,0,1,378,37Zm6-5.28v-.24c0-2.74-1.19-4.05-3.07-4.05s-3.09,1.4-3.09,4v.24c0,2.65,1.16,4,3.09,4S384.05,34.31,384.05,31.75Z" fill="#fff"/><path d="M389.57,23.85h5.69l3.25,10,3.19-10h5.09L401.1,39.44h-5.81Z" fill="#fff"/><path d="M408,19.62a2.94,2.94,0,1,1,2.92,2.74A2.78,2.78,0,0,1,408,19.62Zm.27,4.23h5.34V39.44h-5.34Z" fill="#fff"/><path d="M415.64,31.84V31.6c0-5,3.73-8.16,8.55-8.16s8.5,3.07,8.5,8v.24c0,5.07-3.73,8.11-8.53,8.11S415.64,36.88,415.64,31.84Zm11.62-.09v-.24c0-2.62-1-4.08-3.07-4.08s-3.1,1.4-3.1,4v.24c0,2.68,1.05,4.14,3.1,4.14S427.26,34.34,427.26,31.75Z" fill="#fff"/><path d="M434.44,34V23.85h5.34v9.3c0,1.76.68,2.62,2.2,2.62s2.66-1,2.66-3v-9H450V39.44h-5.33V37a5.15,5.15,0,0,1-4.95,2.77C436.68,39.8,434.44,38,434.44,34Z" fill="#fff"/><path d="M451.64,34.49h4.92c.17,1.13.68,1.76,2.2,1.76,1.31,0,1.91-.51,1.91-1.28s-.75-1.1-2.89-1.4c-4.17-.54-5.93-1.76-5.93-5,0-3.46,3.07-5.12,6.67-5.12,3.85,0,6.53,1.31,6.89,5h-4.83a1.75,1.75,0,0,0-2-1.55c-1.16,0-1.76.51-1.76,1.22s.72,1.05,2.63,1.29c4.32.53,6.4,1.67,6.4,5,0,3.7-2.74,5.37-7.06,5.37S451.76,38,451.64,34.49Z" fill="#fff"/><path d="M467.73,17H473V39.44h-5.31Z" fill="#fff"/><path d="M480.78,37.86l-6.23-14h5.79l3.21,8.32,3-8.32h5.1l-8.34,20.8h-5.1Z" fill="#fff"/><path d="M490.5,36.76a3,3,0,0,1,3-3,3,3,0,1,1,0,6A3,3,0,0,1,490.5,36.76Z" fill="#fff"/><path d="M122.06,49.93h14.39v4.74H128.2V59.2h6.58v4.5H128.2v7.54h-6.14Z" fill="#fff"/><path d="M138,51.42a2.94,2.94,0,1,1,2.92,2.74A2.78,2.78,0,0,1,138,51.42Zm.27,4.23h5.33V71.24h-5.33Z" fill="#fff"/><path d="M146.58,48.8h5.31V71.24h-5.31Z" fill="#fff"/><path d="M153.91,63.64V63.4c0-5,3.73-8.16,8.44-8.16,4.26,0,7.92,2.44,7.92,8v1.4h-11c.15,2.06,1.34,3.25,3.24,3.25s2.51-.8,2.72-1.85h5c-.47,3.52-3.19,5.52-7.89,5.52C157.49,71.6,153.91,68.74,153.91,63.64Zm11.18-2c-.09-1.87-1-2.92-2.74-2.92s-2.72,1-3,2.92Z" fill="#fff"/><path d="M178.35,59.29h-2V55.65h2V54.28c0-3.87,2.41-5.72,6.11-5.72a9.41,9.41,0,0,1,2.44.33v3.9a4.86,4.86,0,0,0-1.46-.21,1.57,1.57,0,0,0-1.79,1.7v1.37h3.16v3.64h-3.16V71.24h-5.3Z" fill="#fff"/><path d="M188.6,55.65h5.33v3.1a4.92,4.92,0,0,1,5-3.3v5c-3.25-.09-5,.93-5,3.43v7.39H188.6Z" fill="#fff"/><path d="M199.92,63.64V63.4c0-5,3.73-8.16,8.44-8.16,4.26,0,7.92,2.44,7.92,8v1.4h-11c.15,2.06,1.34,3.25,3.24,3.25s2.51-.8,2.72-1.85h5c-.47,3.52-3.19,5.52-7.89,5.52C203.5,71.6,199.92,68.74,199.92,63.64Zm11.18-2c-.09-1.87-1-2.92-2.74-2.92s-2.72,1-3,2.92Z" fill="#fff"/><path d="M217.3,63.64V63.4c0-5,3.72-8.16,8.43-8.16,4.26,0,7.93,2.44,7.93,8v1.4h-11c.15,2.06,1.34,3.25,3.25,3.25,1.76,0,2.5-.8,2.71-1.85h5c-.48,3.52-3.19,5.52-7.9,5.52C220.87,71.6,217.3,68.74,217.3,63.64Zm11.17-2c-.09-1.87-1-2.92-2.74-2.92s-2.71,1-3,2.92Z" fill="#fff"/><path d="M239.62,55.65h5.57L247.45,65l2.63-9.33h4.29L256.69,65l2.53-9.33h5.07l-5,15.59h-5.09l-2.33-8.7-2.41,8.7h-5.19Z" fill="#fff"/><path d="M265.54,51.42a2.94,2.94,0,1,1,2.92,2.74A2.78,2.78,0,0,1,265.54,51.42Zm.27,4.23h5.33V71.24h-5.33Z" fill="#fff"/><path d="M274.72,66.23V59.29h-1.88V55.65h1.88V52.41h5.33v3.24h3.07v3.64h-3.07v6.44a1.43,1.43,0,0,0,1.58,1.64,4,4,0,0,0,1.52-.27v4.05a11.1,11.1,0,0,1-2.95.45C276.69,71.6,274.72,69.9,274.72,66.23Z" fill="#fff"/><path d="M285.15,48.8h5.33v9.36a5.52,5.52,0,0,1,5.13-2.92c3,0,5.1,1.87,5.1,5.87V71.24h-5.34V62.18c0-1.76-.68-2.62-2.23-2.62s-2.66.95-2.66,2.95v8.73h-5.33Z" fill="#fff"/><path d="M309.2,49.93h6.14v8.14h7V49.93h6.11V71.24h-6.11V62.83h-7v8.41H309.2Z" fill="#fff"/><path d="M348.89,66.89l3.55,4.35h-6.95l-1.25-1.55a8.5,8.5,0,0,1-5.75,1.91c-4.53,0-7.48-2.39-7.48-6.44,0-2.74,1.67-4.77,4.68-6.2a6.81,6.81,0,0,1-1.31-3.72c0-3.64,3.1-5.58,6.85-5.58,3.4,0,6.47,1.7,6.47,5,0,2.32-1.37,4-4.26,5.28l2.68,3.27,1.55-3h4.65Zm-7.39-.63-3.37-4.05a2.53,2.53,0,0,0-1.43,2.29,2.48,2.48,0,0,0,2.71,2.66A2.79,2.79,0,0,0,341.5,66.26Zm-.66-8.58c1.44-.69,2.12-1.49,2.12-2.59a1.53,1.53,0,0,0-1.58-1.64,1.7,1.7,0,0,0-1.76,1.85A3.93,3.93,0,0,0,340.84,57.68Z" fill="#fff"/><path d="M354.37,49.93h8.35c5.57,0,8.67,2.27,8.67,6.77v.12a5.57,5.57,0,0,1-3.84,5.6l5.09,8.82H366.2l-4.32-7.63h-1.43v7.63h-6.08Zm8.05,9.72c2.06,0,3.07-.87,3.07-2.6v-.12c0-1.72-1.07-2.41-3-2.41h-2v5.13Z" fill="#fff"/><path d="M380.12,49.93h9.51c5,0,7.18,2.27,7.18,5.57v.12a4.38,4.38,0,0,1-3.61,4.59,4.63,4.63,0,0,1,4.26,5v.12c0,3.81-2.47,5.93-7.74,5.93h-9.6Zm8.28,8.47c1.91,0,2.63-.66,2.63-2.18V56.1c0-1.46-.78-2.12-2.63-2.12h-2.32V58.4Zm.21,8.76c1.94,0,2.83-.9,2.83-2.48v-.12c0-1.6-.86-2.44-3-2.44h-2.35v5Z" fill="#fff"/><path d="M399.58,48.8h5.3V71.24h-5.3Z" fill="#fff"/><path d="M406.91,63.64V63.4c0-5,3.72-8.16,8.55-8.16s8.5,3.07,8.5,8v.24c0,5.07-3.73,8.11-8.53,8.11S406.91,68.68,406.91,63.64Zm11.62-.09v-.24c0-2.62-1-4.08-3.07-4.08s-3.1,1.4-3.1,4v.24c0,2.68,1.05,4.14,3.1,4.14S418.53,66.14,418.53,63.55Z" fill="#fff"/><path d="M425,63.64V63.4c0-5.18,3.72-8.16,8.31-8.16,3.82,0,7.33,1.67,7.63,6.4h-5a2.29,2.29,0,0,0-2.5-2.26c-1.88,0-3,1.34-3,4v.24c0,2.71,1,4.11,3.07,4.11a2.59,2.59,0,0,0,2.71-2.59H441c-.15,3.93-2.8,6.5-7.84,6.5C428.54,71.6,425,68.88,425,63.64Z" fill="#fff"/><path d="M442.76,48.8h5.33v13l4.2-6.17h5.55l-5.1,7,5.51,8.58h-6l-4.2-6.82v6.82h-5.33Z" fill="#fff"/></g></g></g></svg>