<svg xmlns="http://www.w3.org/2000/svg" viewBox="0 0 728 90"><title>H15</title><g id="Layer_2" data-name="Layer 2"><g id="Rect"><rect width="728" height="90" fill="none"/></g><g id="H15"><g id="Free_is_cheaper._Obviously._File_for_free." data-name="Free is cheaper. Obviously. File for free."><path d="M122.28,15.25h15.94V20.5h-9.14v5h7.29v5h-7.29v8.35h-6.8Z" fill="#fff"/><path d="M139.8,21.59h5.91V25a5.43,5.43,0,0,1,5.58-3.66v5.51c-3.6-.1-5.58,1-5.58,3.79v8.19H139.8Z" fill="#fff"/><path d="M152.34,30.43v-.26c0-5.55,4.13-9,9.34-9,4.72,0,8.78,2.71,8.78,8.92v1.55H158.31c.17,2.27,1.49,3.6,3.6,3.6,2,0,2.77-.9,3-2h5.54c-.53,3.89-3.53,6.1-8.75,6.1C156.3,39.24,152.34,36.08,152.34,30.43Zm12.38-2.18c-.1-2.08-1.13-3.23-3-3.23s-3,1.15-3.3,3.23Z" fill="#fff"/><path d="M171.58,30.43v-.26c0-5.55,4.12-9,9.34-9,4.72,0,8.78,2.71,8.78,8.92v1.55H177.55c.17,2.27,1.49,3.6,3.6,3.6,1.95,0,2.77-.9,3-2h5.55c-.53,3.89-3.53,6.1-8.75,6.1C175.54,39.24,171.58,36.08,171.58,30.43ZM184,28.25c-.1-2.08-1.13-3.23-3-3.23s-3,1.15-3.3,3.23Z" fill="#fff"/><path d="M197.62,16.9a3.08,3.08,0,0,1,3.23-3.07,3.06,3.06,0,1,1,0,6.11A3.06,3.06,0,0,1,197.62,16.9Zm.29,4.69h5.91V38.85h-5.91Z" fill="#fff"/><path d="M205.83,33.37h5.45c.2,1.25.76,2,2.44,2,1.45,0,2.11-.56,2.11-1.42s-.82-1.22-3.2-1.55c-4.62-.6-6.57-2-6.57-5.55,0-3.83,3.4-5.68,7.4-5.68,4.25,0,7.22,1.46,7.62,5.58h-5.35A1.92,1.92,0,0,0,213.52,25c-1.28,0-1.94.56-1.94,1.35s.79,1.16,2.9,1.42c4.79.59,7.1,1.85,7.1,5.54,0,4.1-3,5.94-7.83,5.94S206,37.2,205.83,33.37Z" fill="#fff"/><path d="M228.57,30.43v-.26c0-5.74,4.12-9,9.21-9,4.22,0,8.12,1.85,8.45,7.1h-5.55c-.26-1.62-1.05-2.51-2.77-2.51-2.08,0-3.3,1.49-3.3,4.39v.27c0,3,1.15,4.55,3.4,4.55a2.87,2.87,0,0,0,3-2.87h5.32c-.17,4.36-3.11,7.19-8.68,7.19C232.5,39.24,228.57,36.24,228.57,30.43Z" fill="#fff"/><path d="M248.24,14h5.9V24.36a6.11,6.11,0,0,1,5.68-3.24c3.33,0,5.65,2.08,5.65,6.51V38.85h-5.91v-10c0-1.95-.76-2.91-2.48-2.91s-2.94,1.06-2.94,3.27v9.67h-5.9Z" fill="#fff"/><path d="M267.41,30.43v-.26c0-5.55,4.13-9,9.34-9,4.72,0,8.78,2.71,8.78,8.92v1.55H273.38c.17,2.27,1.49,3.6,3.6,3.6,1.95,0,2.77-.9,3-2h5.55c-.53,3.89-3.53,6.1-8.75,6.1C271.37,39.24,267.41,36.08,267.41,30.43Zm12.38-2.18c-.1-2.08-1.13-3.23-3-3.23s-3,1.15-3.3,3.23Z" fill="#fff"/><path d="M286.75,34.06c0-4.06,3.43-5.64,9.17-5.64h1.65V28c0-1.65-.39-2.74-2.28-2.74a2.12,2.12,0,0,0-2.34,2h-5.54c.26-4.16,3.53-6.21,8.25-6.21s7.79,1.95,7.79,6.54V38.85H297.7v-2c-.82,1.25-2.34,2.4-5.11,2.4C289.49,39.24,286.75,37.73,286.75,34.06Zm10.82-1.25V31.75H296c-2.37,0-3.43.46-3.43,1.88,0,1,.66,1.62,2,1.62C296.32,35.25,297.57,34.29,297.57,32.81Z" fill="#fff"/><path d="M306.32,21.59h5.9v2.57a6.1,6.1,0,0,1,5.38-3c4,0,7.3,3,7.3,9v.26c0,5.94-3.27,8.91-7.33,8.91a5.7,5.7,0,0,1-5.35-2.93v8.31h-5.9Zm12.57,8.74v-.26c0-3-1.32-4.49-3.4-4.49s-3.43,1.55-3.43,4.46v.26c0,2.94,1.29,4.42,3.43,4.42S318.89,33.17,318.89,30.33Z" fill="#fff"/><path d="M326.12,30.43v-.26c0-5.55,4.12-9,9.34-9,4.72,0,8.77,2.71,8.77,8.92v1.55H332.09c.16,2.27,1.48,3.6,3.6,3.6,1.94,0,2.77-.9,3-2h5.54c-.52,3.89-3.53,6.1-8.74,6.1C330.08,39.24,326.12,36.08,326.12,30.43Zm12.37-2.18c-.1-2.08-1.12-3.23-3-3.23s-3,1.15-3.31,3.23Z" fill="#fff"/><path d="M346.28,21.59h5.91V25a5.42,5.42,0,0,1,5.57-3.66v5.51c-3.59-.1-5.57,1-5.57,3.79v8.19h-5.91Z" fill="#fff"/><path d="M357.7,35.88a3.29,3.29,0,0,1,3.36-3.34,3.34,3.34,0,1,1,0,6.67A3.29,3.29,0,0,1,357.7,35.88Z" fill="#fff"/><path d="M121,62.2v-.27c0-7.19,5.42-12,12.48-12S146,54.44,146,61.77V62c0,7.26-5,12.22-12.61,12.22S121,69.29,121,62.2Zm17.92-.07v-.26c0-4.19-2.11-6.67-5.44-6.67s-5.41,2.41-5.41,6.7v.27c0,4.29,2.17,6.76,5.44,6.76S138.94,66.36,138.94,62.13Z" fill="#fff"/><path d="M154.19,71.18v2.67h-5.91V49h5.91V59.16a6.09,6.09,0,0,1,5.38-3c4,0,7.29,3,7.29,8.95v.26c0,5.94-3.27,8.92-7.32,8.92A5.61,5.61,0,0,1,154.19,71.18Zm6.67-5.85v-.26c0-3-1.32-4.49-3.4-4.49S154,62.13,154,65v.26c0,2.94,1.29,4.42,3.44,4.42S160.86,68.17,160.86,65.33Z" fill="#fff"/><path d="M167,56.59h6.3l3.6,11.12,3.53-11.12H186l-6.31,17.26H173.3Z" fill="#fff"/><path d="M187.39,51.9a3.08,3.08,0,0,1,3.23-3.07,3.06,3.06,0,1,1,0,6.11A3.06,3.06,0,0,1,187.39,51.9Zm.29,4.69h5.91V73.85h-5.91Z" fill="#fff"/><path d="M195.83,65.43v-.26c0-5.55,4.13-9.05,9.48-9.05s9.4,3.4,9.4,8.88v.27c0,5.61-4.12,9-9.44,9S195.83,71,195.83,65.43Zm12.87-.1v-.26c0-2.9-1.15-4.52-3.39-4.52s-3.44,1.55-3.44,4.45v.27c0,3,1.16,4.59,3.44,4.59S208.7,68.21,208.7,65.33Z" fill="#fff"/><path d="M216.66,67.84V56.59h5.9V66.88c0,2,.76,2.91,2.45,2.91s2.93-1.06,2.93-3.27V56.59h5.91V73.85h-5.91V71.18a5.66,5.66,0,0,1-5.48,3.07C219.13,74.25,216.66,72.2,216.66,67.84Z" fill="#fff"/><path d="M235.7,68.37h5.44c.2,1.25.76,1.95,2.44,1.95,1.46,0,2.12-.56,2.12-1.42s-.83-1.22-3.2-1.55c-4.63-.6-6.57-1.95-6.57-5.55,0-3.83,3.4-5.68,7.39-5.68,4.26,0,7.23,1.46,7.62,5.58H245.6A1.93,1.93,0,0,0,243.39,60c-1.29,0-1.95.56-1.95,1.35s.79,1.16,2.9,1.42c4.79.59,7.1,1.85,7.1,5.54,0,4.1-3,6-7.82,6S235.83,72.2,235.7,68.37Z" fill="#fff"/><path d="M253.52,49h5.87V73.85h-5.87Z" fill="#fff"/><path d="M268,72.1l-6.9-15.51h6.41L271,65.8l3.3-9.21H280l-9.24,23H265.1Z" fill="#fff"/><path d="M278.73,70.88a3.29,3.29,0,0,1,3.36-3.34,3.34,3.34,0,1,1,0,6.67A3.29,3.29,0,0,1,278.73,70.88Z" fill="#fff"/><path d="M294.86,50.25h15.95V55.5h-9.15v5H309v5h-7.3v8.35h-6.8Z" fill="#fff"/><path d="M312.49,51.9a3.08,3.08,0,0,1,3.23-3.07,3.06,3.06,0,1,1,0,6.11A3.06,3.06,0,0,1,312.49,51.9Zm.29,4.69h5.91V73.85h-5.91Z" fill="#fff"/><path d="M322,49h5.88V73.85H322Z" fill="#fff"/><path d="M330.14,65.43v-.26c0-5.55,4.13-9.05,9.34-9.05,4.72,0,8.78,2.71,8.78,8.92v1.55H336.11c.17,2.28,1.49,3.6,3.6,3.6,2,0,2.77-.9,3-2h5.54c-.53,3.89-3.53,6.11-8.75,6.11C334.1,74.25,330.14,71.08,330.14,65.43Zm12.38-2.18c-.1-2.08-1.12-3.23-3-3.23s-3,1.15-3.3,3.23Z" fill="#fff"/><path d="M357.2,60.61H355v-4h2.18V55.07c0-4.29,2.67-6.34,6.77-6.34a10.83,10.83,0,0,1,2.7.36v4.33a5.45,5.45,0,0,0-1.61-.23,1.73,1.73,0,0,0-2,1.88v1.52h3.49v4h-3.49V73.85H357.2Z" fill="#fff"/><path d="M367,65.43v-.26c0-5.55,4.13-9.05,9.48-9.05s9.4,3.4,9.4,8.88v.27c0,5.61-4.12,9-9.44,9S367,71,367,65.43Zm12.88-.1v-.26c0-2.9-1.16-4.52-3.4-4.52s-3.44,1.55-3.44,4.45v.27c0,3,1.16,4.59,3.44,4.59S379.91,68.21,379.91,65.33Z" fill="#fff"/><path d="M388,56.59h5.91V60a5.43,5.43,0,0,1,5.57-3.66v5.51c-3.59-.1-5.57,1-5.57,3.79v8.19H388Z" fill="#fff"/><path d="M408.51,60.61h-2.17v-4h2.17V55.07c0-4.29,2.68-6.34,6.77-6.34a10.92,10.92,0,0,1,2.71.36v4.33a5.52,5.52,0,0,0-1.62-.23,1.73,1.73,0,0,0-2,1.88v1.52h3.5v4h-3.5V73.85h-5.88Z" fill="#fff"/><path d="M419.87,56.59h5.9V60a5.44,5.44,0,0,1,5.58-3.66v5.51c-3.6-.1-5.58,1-5.58,3.79v8.19h-5.9Z" fill="#fff"/><path d="M432.41,65.43v-.26c0-5.55,4.12-9.05,9.34-9.05,4.72,0,8.78,2.71,8.78,8.92v1.55H438.38c.16,2.28,1.49,3.6,3.6,3.6,1.94,0,2.77-.9,3-2h5.55C450,72,447,74.25,441.78,74.25,436.37,74.25,432.41,71.08,432.41,65.43Zm12.37-2.18c-.1-2.08-1.12-3.23-3-3.23s-3,1.15-3.3,3.23Z" fill="#fff"/><path d="M451.64,65.43v-.26c0-5.55,4.13-9.05,9.35-9.05,4.72,0,8.77,2.71,8.77,8.92v1.55H457.62c.16,2.28,1.48,3.6,3.6,3.6,1.94,0,2.77-.9,3-2h5.54c-.52,3.89-3.53,6.11-8.74,6.11C455.61,74.25,451.64,71.08,451.64,65.43ZM464,63.25c-.1-2.08-1.12-3.23-3-3.23s-3,1.15-3.31,3.23Z" fill="#fff"/><path d="M471.41,70.88a3.3,3.3,0,0,1,3.37-3.34,3.34,3.34,0,1,1,0,6.67A3.29,3.29,0,0,1,471.41,70.88Z" fill="#fff"/></g></g></g></svg>