<svg xmlns="http://www.w3.org/2000/svg" viewBox="0 0 300 600"><title>H21</title><g id="Layer_2" data-name="Layer 2"><g id="Rect"><rect width="300" height="600" fill="none"/></g><g id="H21"><g id="Easy_does_it._Switch_to_Block_in_as_little_as_two_clicks." data-name="Easy does it. Switch to Block in as little as two clicks."><path d="M23.05,36.2H52v9.28H35V52.7H48.57v8.56H35v7.63H53v9.27H23.05Z" fill="#fff"/><path d="M55.37,69.66c0-7.22,6.11-10,16.31-10h2.94v-.7c0-2.94-.71-4.88-4.05-4.88a3.78,3.78,0,0,0-4.17,3.64H56.55c.47-7.39,6.27-11,14.66-11s13.85,3.46,13.85,11.62V78.16H74.85V74.58c-1.46,2.23-4.16,4.29-9.09,4.29C60.24,78.87,55.37,76.17,55.37,69.66Zm19.25-2.23V65.55H71.86c-4.22,0-6.1.82-6.1,3.34,0,1.76,1.17,2.88,3.64,2.88C72.39,71.77,74.62,70.07,74.62,67.43Z" fill="#fff"/><path d="M88.11,68.42h9.68c.35,2.23,1.35,3.47,4.34,3.47,2.58,0,3.76-1,3.76-2.53s-1.47-2.17-5.7-2.76c-8.21-1-11.67-3.46-11.67-9.86,0-6.8,6-10.09,13.14-10.09,7.57,0,12.85,2.58,13.55,9.92h-9.5c-.41-2.06-1.53-3-3.93-3s-3.46,1-3.46,2.4,1.41,2.06,5.16,2.53c8.51,1,12.61,3.28,12.61,9.86,0,7.27-5.39,10.56-13.9,10.56C93.45,78.87,88.34,75.23,88.11,68.42Z" fill="#fff"/><path d="M128.12,75.05,115.86,47.47h11.38l6.34,16.38,5.86-16.38h10l-16.43,41H123Z" fill="#fff"/><path d="M20.58,123.83v-.47c0-10.45,5.75-16,13-16,4.81,0,7.68,2,9.44,5.16V94.66H53.56v44.19H43.05v-5a10.32,10.32,0,0,1-9.56,5.69C26.39,139.55,20.58,134.45,20.58,123.83Zm22.77-.18v-.47c0-5.16-2.17-7.92-6-7.92s-6.05,2.64-6.05,8v.47c0,5.16,2.29,7.81,5.93,7.81C41,131.52,43.35,128.87,43.35,123.65Z" fill="#fff"/><path d="M57.25,123.89v-.47c0-9.86,7.33-16.08,16.84-16.08s16.72,6,16.72,15.78v.47c0,10-7.33,16-16.78,16S57.25,133.8,57.25,123.89Zm22.88-.18v-.47c0-5.16-2-8-6-8S68,118,68,123.12v.47c0,5.28,2.05,8.16,6.1,8.16S80.13,128.82,80.13,123.71Z" fill="#fff"/><path d="M92.86,123.89v-.47c0-9.86,7.33-16.08,16.6-16.08,8.39,0,15.61,4.81,15.61,15.84v2.76H103.48c.29,4.05,2.64,6.4,6.4,6.4,3.46,0,4.92-1.59,5.33-3.64h9.86c-.94,6.92-6.28,10.85-15.55,10.85C99.9,139.55,92.86,133.92,92.86,123.89Zm22-3.88c-.17-3.69-2-5.75-5.4-5.75-3.16,0-5.33,2.06-5.86,5.75Z" fill="#fff"/><path d="M127,129.11h9.68c.35,2.23,1.35,3.46,4.34,3.46,2.58,0,3.75-1,3.75-2.52s-1.46-2.17-5.69-2.76c-8.21-1.06-11.67-3.46-11.67-9.86,0-6.81,6-10.09,13.14-10.09,7.57,0,12.85,2.58,13.55,9.91h-9.5c-.41-2-1.53-3-3.93-3s-3.47,1-3.47,2.41,1.41,2,5.17,2.52c8.5,1.06,12.61,3.29,12.61,9.86,0,7.28-5.4,10.56-13.9,10.56C132.28,139.55,127.18,135.92,127,129.11Z" fill="#fff"/><path d="M168.77,99.82a5.79,5.79,0,1,1,5.75,5.4A5.48,5.48,0,0,1,168.77,99.82Zm.53,8.34h10.5v30.69H169.3Z" fill="#fff"/><path d="M186.84,129V115.32h-3.69v-7.16h3.69v-6.4h10.5v6.4h6v7.16h-6V128c0,2.23,1.12,3.23,3.11,3.23a7.87,7.87,0,0,0,3-.53v8a21.75,21.75,0,0,1-5.81.88C190.71,139.55,186.84,136.21,186.84,129Z" fill="#fff"/><path d="M207,133.57a5.85,5.85,0,0,1,6-5.93,5.93,5.93,0,1,1,0,11.86A5.85,5.85,0,0,1,207,133.57Z" fill="#fff"/><path d="M20.35,186.21H31.79c.29,3,1.64,5.46,6.63,5.46,3.46,0,5.4-1.7,5.4-4.16s-1.59-3.29-6.63-4c-11.85-1.41-15.84-4.93-15.84-13.38,0-7.57,6.22-13.09,16.25-13.09s15.78,4.23,16.54,13.09H43c-.41-3-2.12-4.52-5.4-4.52s-4.87,1.46-4.87,3.58c0,2.34,1.29,3.4,6.51,4.11,10.62,1.17,16.08,3.93,16.08,13,0,7.69-6.11,14-16.9,14C26.69,200.24,20.7,195.31,20.35,186.21Z" fill="#fff"/><path d="M56.19,168.84h11l4.45,18.37,5.17-18.37h8.45l4.57,18.37,5-18.37h10L95,199.54H85L80.43,182.4l-4.76,17.14H65.46Z" fill="#fff"/><path d="M107.23,160.51a5.79,5.79,0,1,1,5.75,5.4A5.49,5.49,0,0,1,107.23,160.51Zm.53,8.33h10.5v30.7h-10.5Z" fill="#fff"/><path d="M125.3,189.68V176h-3.69v-7.16h3.69v-6.39h10.51v6.39h6V176h-6v12.68c0,2.23,1.11,3.23,3.1,3.23a8.06,8.06,0,0,0,3-.53v8a22.17,22.17,0,0,1-5.81.88C129.18,200.24,125.3,196.9,125.3,189.68Z" fill="#fff"/><path d="M144.19,184.57v-.47c0-10.21,7.34-16.08,16.37-16.08,7.51,0,14.44,3.29,15,12.62h-9.85c-.47-2.88-1.88-4.46-4.93-4.46-3.7,0-5.87,2.64-5.87,7.8v.47c0,5.34,2,8.1,6,8.1,2.94,0,5-1.76,5.34-5.1h9.45c-.3,7.74-5.52,12.79-15.43,12.79C151.17,200.24,144.19,194.9,144.19,184.57Z" fill="#fff"/><path d="M179.16,155.35h10.5v18.42c1.64-3.17,5-5.75,10.09-5.75,5.93,0,10,3.7,10,11.56v20h-10.5V181.7c0-3.47-1.35-5.17-4.4-5.17s-5.22,1.88-5.22,5.81v17.2h-10.5Z" fill="#fff"/><path d="M227,189.68V176h-3.7v-7.16H227v-6.39h10.5v6.39h6.05V176h-6.05v12.68c0,2.23,1.12,3.23,3.11,3.23a8,8,0,0,0,3-.53v8a22.08,22.08,0,0,1-5.8.88C230.84,200.24,227,196.9,227,189.68Z" fill="#fff"/><path d="M245.86,184.57v-.47c0-9.86,7.34-16.08,16.84-16.08s16.72,6,16.72,15.79v.47c0,10-7.33,16-16.78,16S245.86,194.49,245.86,184.57Zm22.88-.17v-.47c0-5.17-2.05-8-6-8s-6.1,2.75-6.1,7.92v.47c0,5.28,2,8.16,6.1,8.16S268.74,189.5,268.74,184.4Z" fill="#fff"/><path d="M23.05,218.26H41.76c9.92,0,14.14,4.46,14.14,11v.23c0,4.7-2.4,7.81-7.1,9,5.17.88,8.39,4,8.39,9.8v.23c0,7.52-4.87,11.68-15.25,11.68H23.05Zm16.31,16.67c3.75,0,5.16-1.29,5.16-4.28v-.24c0-2.87-1.52-4.17-5.16-4.17H34.78v8.69Zm.41,17.25c3.81,0,5.57-1.76,5.57-4.87v-.23c0-3.17-1.7-4.81-5.92-4.81H34.78v9.91Z" fill="#fff"/><path d="M61.36,216H71.8v44.19H61.36Z" fill="#fff"/><path d="M75.79,245.26v-.47c0-9.86,7.33-16.08,16.84-16.08s16.72,6,16.72,15.79V245c0,10-7.34,16-16.78,16S75.79,255.18,75.79,245.26Zm22.88-.18v-.47c0-5.16-2-8-6-8s-6.1,2.76-6.1,7.93V245c0,5.29,2,8.16,6.1,8.16S98.67,250.19,98.67,245.08Z" fill="#fff"/><path d="M111.4,245.26v-.47c0-10.21,7.33-16.08,16.37-16.08,7.51,0,14.43,3.29,15,12.62h-9.86c-.47-2.88-1.88-4.46-4.93-4.46-3.69,0-5.87,2.64-5.87,7.8v.47c0,5.34,2.06,8.1,6.05,8.1,2.93,0,5-1.76,5.34-5.11H143c-.29,7.75-5.51,12.8-15.43,12.8C118.38,260.93,111.4,255.59,111.4,245.26Z" fill="#fff"/><path d="M146.36,216h10.51v25.65l8.27-12.15h10.91l-10,13.79,10.85,16.9H165.14l-8.27-13.44v13.44H146.36Z" fill="#fff"/><path d="M189.78,221.2a5.79,5.79,0,1,1,5.74,5.4A5.48,5.48,0,0,1,189.78,221.2Zm.52,8.33h10.51v30.69H190.3Z" fill="#fff"/><path d="M206.44,229.53h10.5v4.93c1.64-3.17,5-5.75,10.09-5.75,5.93,0,10,3.7,10,11.56v20h-10.5V242.38c0-3.46-1.35-5.16-4.4-5.16s-5.22,1.88-5.22,5.81v17.19h-10.5Z" fill="#fff"/><path d="M20.35,312.4c0-7.22,6.1-10,16.31-10h2.93v-.7c0-2.93-.7-4.87-4.05-4.87a3.76,3.76,0,0,0-4.16,3.64H21.52c.47-7.4,6.28-11,14.67-11S50,292.86,50,301v19.9H39.83v-3.58c-1.47,2.23-4.17,4.28-9.1,4.28C25.22,321.61,20.35,318.91,20.35,312.4Zm19.24-2.23v-1.88H36.84c-4.23,0-6.11.82-6.11,3.35,0,1.76,1.18,2.87,3.64,2.87C37.36,314.51,39.59,312.81,39.59,310.17Z" fill="#fff"/><path d="M53.08,311.17h9.69c.35,2.23,1.34,3.46,4.34,3.46,2.58,0,3.75-1,3.75-2.52s-1.46-2.18-5.69-2.76c-8.21-1.06-11.67-3.46-11.67-9.86,0-6.81,6-10.09,13.14-10.09,7.57,0,12.85,2.58,13.55,9.91h-9.5c-.41-2.05-1.53-3.05-3.94-3.05s-3.46,1-3.46,2.41,1.41,2.05,5.17,2.52c8.5,1.06,12.61,3.29,12.61,9.86,0,7.28-5.4,10.56-13.9,10.56C58.42,321.61,53.32,318,53.08,311.17Z" fill="#fff"/><path d="M95.44,276.72h10.44v44.19H95.44Z" fill="#fff"/><path d="M111.28,281.88a5.79,5.79,0,1,1,5.75,5.4A5.48,5.48,0,0,1,111.28,281.88Zm.53,8.34h10.5v30.69h-10.5Z" fill="#fff"/><path d="M129.35,311.05V297.38h-3.7v-7.16h3.7v-6.4h10.5v6.4h6.05v7.16h-6.05v12.67c0,2.23,1.12,3.23,3.11,3.23a8,8,0,0,0,3-.53v8a22.08,22.08,0,0,1-5.8.88C133.22,321.61,129.35,318.27,129.35,311.05Z" fill="#fff"/><path d="M151.29,311.05V297.38H147.6v-7.16h3.69v-6.4h10.5v6.4h6.05v7.16h-6.05v12.67c0,2.23,1.12,3.23,3.11,3.23a8.06,8.06,0,0,0,3-.53v8a22.17,22.17,0,0,1-5.81.88C155.16,321.61,151.29,318.27,151.29,311.05Z" fill="#fff"/><path d="M172.12,276.72h10.44v44.19H172.12Z" fill="#fff"/><path d="M186.55,305.94v-.47c0-9.85,7.33-16.07,16.6-16.07,8.39,0,15.61,4.81,15.61,15.84V308H197.17c.29,4.05,2.64,6.4,6.39,6.4,3.46,0,4.93-1.59,5.34-3.64h9.86c-.94,6.92-6.28,10.85-15.55,10.85C193.59,321.61,186.55,316,186.55,305.94Zm22-3.87c-.18-3.7-2-5.75-5.4-5.75-3.17,0-5.34,2.05-5.86,5.75Z" fill="#fff"/><path d="M20.35,373.08c0-7.21,6.1-10,16.31-10h2.93v-.7c0-2.94-.7-4.88-4.05-4.88a3.77,3.77,0,0,0-4.16,3.64H21.52c.47-7.39,6.28-11,14.67-11S50,353.54,50,361.7v19.89H39.83V378c-1.47,2.24-4.17,4.29-9.1,4.29C25.22,382.3,20.35,379.6,20.35,373.08Zm19.24-2.22V369H36.84c-4.23,0-6.11.82-6.11,3.34,0,1.76,1.18,2.88,3.64,2.88C37.36,375.2,39.59,373.5,39.59,370.86Z" fill="#fff"/><path d="M53.08,371.85h9.69c.35,2.23,1.34,3.47,4.34,3.47,2.58,0,3.75-1,3.75-2.53s-1.46-2.17-5.69-2.76c-8.21-1-11.67-3.46-11.67-9.86,0-6.8,6-10.09,13.14-10.09,7.57,0,12.85,2.58,13.55,9.92h-9.5c-.41-2.06-1.53-3.05-3.94-3.05s-3.46,1-3.46,2.4,1.41,2.06,5.17,2.53c8.5,1.05,12.61,3.28,12.61,9.86,0,7.27-5.4,10.56-13.9,10.56C58.42,382.3,53.32,378.66,53.08,371.85Z" fill="#fff"/><path d="M96.56,371.74V358.06h-3.7V350.9h3.7v-6.39h10.5v6.39h6v7.16h-6v12.68c0,2.23,1.11,3.23,3.11,3.23a8,8,0,0,0,3-.53v8a22.1,22.1,0,0,1-5.81.88C100.43,382.3,96.56,379,96.56,371.74Z" fill="#fff"/><path d="M114.51,350.9h11l4.46,18.37,5.16-18.37h8.45l4.58,18.37,5-18.37h10l-9.74,30.69h-10l-4.57-17.13L134,381.59H123.78Z" fill="#fff"/><path d="M162.79,366.63v-.47c0-9.86,7.33-16.08,16.84-16.08s16.72,6,16.72,15.79v.47c0,10-7.33,16-16.78,16S162.79,376.55,162.79,366.63Zm22.88-.18V366c0-5.16-2-8-6-8s-6.1,2.76-6.1,7.93v.47c0,5.28,2.05,8.15,6.1,8.15S185.67,371.56,185.67,366.45Z" fill="#fff"/><path d="M20.47,427.32v-.47c0-10.21,7.33-16.08,16.37-16.08,7.51,0,14.43,3.28,15,12.61H42c-.47-2.87-1.88-4.46-4.93-4.46-3.7,0-5.87,2.65-5.87,7.81v.47c0,5.34,2.06,8.1,6.05,8.1,2.93,0,5-1.76,5.34-5.11H52c-.29,7.75-5.51,12.8-15.43,12.8C27.45,443,20.47,437.65,20.47,427.32Z" fill="#fff"/><path d="M55.73,398.09H66.17v44.19H55.73Z" fill="#fff"/><path d="M71.56,403.26a5.79,5.79,0,0,1,11.56,0c0,3.11-2.52,5.39-5.81,5.39A5.43,5.43,0,0,1,71.56,403.26Zm.53,8.33h10.5v30.69H72.09Z" fill="#fff"/><path d="M86.58,427.32v-.47c0-10.21,7.34-16.08,16.37-16.08,7.51,0,14.43,3.28,15,12.61h-9.86c-.46-2.87-1.87-4.46-4.92-4.46-3.7,0-5.87,2.65-5.87,7.81v.47c0,5.34,2.05,8.1,6,8.1,2.94,0,5-1.76,5.34-5.11h9.45c-.3,7.75-5.52,12.8-15.43,12.8C93.56,443,86.58,437.65,86.58,427.32Z" fill="#fff"/><path d="M121.55,398.09h10.5v25.65l8.27-12.15h10.92l-10,13.79,10.86,16.9H140.32l-8.27-13.44v13.44h-10.5Z" fill="#fff"/><path d="M151.7,432.54h9.68c.36,2.23,1.35,3.46,4.34,3.46,2.59,0,3.76-1,3.76-2.52s-1.47-2.17-5.69-2.76c-8.21-1.06-11.68-3.46-11.68-9.86,0-6.81,6-10.09,13.14-10.09,7.57,0,12.85,2.58,13.56,9.92H169.3c-.41-2.06-1.52-3.06-3.93-3.06s-3.46,1-3.46,2.41,1.41,2,5.16,2.52c8.51,1.06,12.62,3.29,12.62,9.86,0,7.28-5.4,10.57-13.91,10.57C157,443,151.94,439.35,151.7,432.54Z" fill="#fff"/><path d="M182.68,437a5.85,5.85,0,0,1,6-5.93,5.93,5.93,0,1,1,0,11.86A5.85,5.85,0,0,1,182.68,437Z" fill="#fff"/></g></g></g></svg>