<svg xmlns="http://www.w3.org/2000/svg" viewBox="0 0 300 250"><title>H42</title><g id="Layer_2" data-name="Layer 2"><g id="Rect"><rect width="300" height="250" fill="none"/></g><g id="H42"><g id="Tax_pros_standing_by_with_answers_advice_and_fast-typing_finge" data-name="Tax pros standing by with answers, advice and fast-typing finge"><path d="M25.87,32.58H20.6v-4.5H37v4.5H31.74V48.46H25.87Z" fill="#fff"/><path d="M36,44.33c0-3.51,3-4.88,7.92-4.88h1.43v-.34c0-1.42-.34-2.36-2-2.36a1.82,1.82,0,0,0-2,1.76H36.56c.23-3.59,3-5.36,7.12-5.36s6.73,1.69,6.73,5.65v9.66h-5V46.72A4.9,4.9,0,0,1,41,48.8C38.35,48.8,36,47.49,36,44.33Zm9.35-1.09v-.91H44c-2,0-3,.4-3,1.63,0,.85.57,1.39,1.77,1.39C44.25,45.35,45.34,44.53,45.34,43.24Z" fill="#fff"/><path d="M56.65,40.88,52,33.55h5.87l2.31,3.94,2.25-3.94h5.24L63,40.48l5.16,8H62.27L59.62,44l-2.71,4.45H51.69Z" fill="#fff"/><path d="M74.75,33.55h5.1v2.23a5.26,5.26,0,0,1,4.65-2.63c3.47,0,6.3,2.63,6.3,7.73v.23c0,5.13-2.83,7.69-6.33,7.69a4.92,4.92,0,0,1-4.62-2.53v7.18h-5.1Zm10.86,7.56v-.23c0-2.62-1.14-3.88-2.94-3.88s-3,1.34-3,3.85v.23c0,2.53,1.11,3.82,3,3.82S85.61,43.56,85.61,41.11Z" fill="#fff"/><path d="M92.65,33.55h5.1v3a4.69,4.69,0,0,1,4.81-3.17v4.76c-3.1-.08-4.81.89-4.81,3.28v7.07h-5.1Z" fill="#fff"/><path d="M103.48,41.19V41c0-4.78,3.56-7.81,8.18-7.81s8.12,2.94,8.12,7.67v.23c0,4.85-3.56,7.75-8.15,7.75S103.48,46,103.48,41.19Zm11.11-.08v-.23c0-2.51-1-3.91-2.93-3.91s-3,1.34-3,3.85v.23c0,2.56,1,4,3,4S114.59,43.59,114.59,41.11Z" fill="#fff"/><path d="M120.66,43.73h4.7c.17,1.08.66,1.68,2.11,1.68,1.26,0,1.83-.48,1.83-1.23s-.72-1-2.77-1.33c-4-.52-5.67-1.69-5.67-4.79,0-3.31,2.94-4.91,6.39-4.91,3.67,0,6.24,1.26,6.58,4.82h-4.62a1.66,1.66,0,0,0-1.91-1.48c-1.11,0-1.68.48-1.68,1.17s.68,1,2.51,1.22c4.13.52,6.13,1.6,6.13,4.79,0,3.54-2.63,5.13-6.76,5.13S120.77,47,120.66,43.73Z" fill="#fff"/><path d="M140.1,43.73h4.7c.17,1.08.66,1.68,2.11,1.68,1.25,0,1.82-.48,1.82-1.23s-.71-1-2.76-1.33c-4-.52-5.67-1.69-5.67-4.79,0-3.31,2.93-4.91,6.38-4.91,3.68,0,6.24,1.26,6.59,4.82h-4.62a1.66,1.66,0,0,0-1.91-1.48c-1.11,0-1.68.48-1.68,1.17s.68,1,2.51,1.22c4.13.52,6.12,1.6,6.12,4.79,0,3.54-2.62,5.13-6.75,5.13S140.21,47,140.1,43.73Z" fill="#fff"/><path d="M156,43.67V37h-1.8V33.55H156v-3.1h5.1v3.1h2.94V37h-2.94v6.16a1.36,1.36,0,0,0,1.51,1.56,4,4,0,0,0,1.46-.25v3.87a10.41,10.41,0,0,1-2.83.43C157.91,48.8,156,47.18,156,43.67Z" fill="#fff"/><path d="M165.21,44.33c0-3.51,3-4.88,7.92-4.88h1.42v-.34c0-1.42-.34-2.36-2-2.36a1.83,1.83,0,0,0-2,1.76h-4.78c.22-3.59,3.05-5.36,7.12-5.36s6.73,1.69,6.73,5.65v9.66h-5V46.72a4.9,4.9,0,0,1-4.42,2.08C167.57,48.8,165.21,47.49,165.21,44.33Zm9.34-1.09v-.91h-1.34c-2.05,0-3,.4-3,1.63,0,.85.57,1.39,1.77,1.39C173.47,45.35,174.55,44.53,174.55,43.24Z" fill="#fff"/><path d="M182.11,33.55h5.1V36a5.26,5.26,0,0,1,4.9-2.8c2.88,0,4.87,1.8,4.87,5.62v9.69h-5.1V39.8c0-1.69-.65-2.51-2.13-2.51s-2.54.91-2.54,2.82v8.35h-5.1Z" fill="#fff"/><path d="M198.72,41.16v-.22c0-5.08,2.79-7.79,6.33-7.79a4.84,4.84,0,0,1,4.59,2.51V27h5.1V48.46h-5.1V46A5,5,0,0,1,205,48.8C201.54,48.8,198.72,46.32,198.72,41.16Zm11.06-.08v-.23c0-2.51-1.05-3.85-2.94-3.85s-2.93,1.28-2.93,3.88v.23c0,2.5,1.11,3.79,2.88,3.79S209.78,43.61,209.78,41.08Z" fill="#fff"/><path d="M217.22,29.51A2.81,2.81,0,1,1,220,32.13,2.67,2.67,0,0,1,217.22,29.51Zm.25,4h5.11V48.46h-5.11Z" fill="#fff"/><path d="M225.31,33.55h5.1V36a5.28,5.28,0,0,1,4.91-2.8c2.88,0,4.87,1.8,4.87,5.62v9.69h-5.1V39.8c0-1.69-.66-2.51-2.14-2.51s-2.54.91-2.54,2.82v8.35h-5.1Z" fill="#fff"/><path d="M241.84,48.46h5.08c.22,1.08.88,1.94,2.73,1.94a2.83,2.83,0,0,0,3.17-3.14V45a5.23,5.23,0,0,1-4.62,2.74c-3.48,0-6.33-2.57-6.33-7.16v-.22c0-4.39,2.82-7.19,6.33-7.19a4.87,4.87,0,0,1,4.62,2.51V33.55h5.1V47.21c0,4.44-2.94,6.78-8.27,6.78C244.58,54,242.24,51.85,241.84,48.46ZM253,40.54v-.2C253,38.28,251.9,37,250,37s-2.93,1.34-2.93,3.4v.22c0,2.06,1.08,3.37,2.9,3.37S253,42.65,253,40.54Z" fill="#fff"/><path d="M26.61,76.65V79h-5.1V57.5h5.1v8.78a5.27,5.27,0,0,1,4.65-2.63c3.48,0,6.3,2.63,6.3,7.73v.23c0,5.13-2.82,7.69-6.33,7.69A4.83,4.83,0,0,1,26.61,76.65Zm5.76-5v-.23c0-2.62-1.14-3.88-2.94-3.88s-3,1.34-3,3.85v.23c0,2.53,1.11,3.82,3,3.82S32.37,74.06,32.37,71.61Z" fill="#fff"/><path d="M43.51,77.45l-5.95-13.4h5.53l3.07,8,2.85-8h4.88l-8,19.9H41Z" fill="#fff"/><path d="M59.13,64.05h5.33L66.63,73l2.5-8.92h4.11L75.46,73l2.43-8.92h4.84L78,79H73.12L70.9,70.64,68.59,79h-5Z" fill="#fff"/><path d="M83.92,60a2.82,2.82,0,1,1,2.8,2.62A2.67,2.67,0,0,1,83.92,60Zm.26,4h5.1V79h-5.1Z" fill="#fff"/><path d="M92.7,74.17V67.53H90.91V64.05H92.7V61h5.1v3.1h2.94v3.48H97.8v6.16a1.36,1.36,0,0,0,1.52,1.56,3.9,3.9,0,0,0,1.45-.25v3.87A10.39,10.39,0,0,1,98,79.3C94.58,79.3,92.7,77.68,92.7,74.17Z" fill="#fff"/><path d="M102.68,57.5h5.1v9a5.26,5.26,0,0,1,4.9-2.8c2.88,0,4.88,1.8,4.88,5.62V79h-5.11V70.3c0-1.69-.65-2.51-2.13-2.51s-2.54.91-2.54,2.82V79h-5.1Z" fill="#fff"/><path d="M124.37,74.83c0-3.51,3-4.88,7.92-4.88h1.42v-.34c0-1.42-.34-2.36-2-2.36a1.83,1.83,0,0,0-2,1.76h-4.78c.22-3.59,3-5.36,7.12-5.36s6.73,1.69,6.73,5.65V79h-5V77.22a4.91,4.91,0,0,1-4.42,2.08C126.73,79.3,124.37,78,124.37,74.83Zm9.34-1.09v-.91h-1.33c-2.06,0-3,.4-3,1.63,0,.85.57,1.39,1.77,1.39C132.63,75.85,133.71,75,133.71,73.74Z" fill="#fff"/><path d="M141.27,64.05h5.1v2.4a5.26,5.26,0,0,1,4.9-2.8c2.88,0,4.87,1.8,4.87,5.62V79H151V70.3c0-1.69-.65-2.51-2.14-2.51s-2.53.91-2.53,2.82V79h-5.1Z" fill="#fff"/><path d="M157.62,74.23h4.71c.17,1.08.65,1.68,2.11,1.68,1.25,0,1.82-.48,1.82-1.23s-.71-1.05-2.76-1.33c-4-.52-5.68-1.69-5.68-4.79,0-3.31,2.94-4.91,6.39-4.91,3.68,0,6.24,1.26,6.58,4.82h-4.61A1.67,1.67,0,0,0,164.27,67c-1.12,0-1.69.48-1.69,1.17s.69,1,2.51,1.22c4.14.52,6.13,1.6,6.13,4.79,0,3.54-2.62,5.13-6.76,5.13S157.74,77.54,157.62,74.23Z" fill="#fff"/><path d="M171.28,64.05h5.33L178.77,73l2.51-8.92h4.1L187.61,73,190,64.05h4.85L190.15,79h-4.88l-2.22-8.32L180.74,79h-5Z" fill="#fff"/><path d="M194.73,71.69v-.23c0-4.78,3.56-7.81,8.07-7.81,4.07,0,7.58,2.34,7.58,7.7v1.34H199.89A3,3,0,0,0,203,75.8c1.68,0,2.39-.77,2.59-1.77h4.79c-.46,3.36-3,5.27-7.55,5.27C198.15,79.3,194.73,76.57,194.73,71.69Zm10.69-1.88c-.09-1.79-1-2.79-2.62-2.79s-2.6,1-2.85,2.79Z" fill="#fff"/><path d="M212.14,64.05h5.11v3a4.68,4.68,0,0,1,4.81-3.17v4.76c-3.1-.08-4.81.89-4.81,3.28V79h-5.11Z" fill="#fff"/><path d="M223,74.23h4.71c.17,1.08.65,1.68,2.11,1.68,1.25,0,1.82-.48,1.82-1.23s-.71-1.05-2.76-1.33c-4-.52-5.68-1.69-5.68-4.79,0-3.31,2.94-4.91,6.39-4.91,3.68,0,6.24,1.26,6.58,4.82h-4.61A1.67,1.67,0,0,0,229.62,67c-1.12,0-1.69.48-1.69,1.17s.69,1,2.51,1.22c4.14.52,6.13,1.6,6.13,4.79,0,3.54-2.62,5.13-6.75,5.13S223.09,77.54,223,74.23Z" fill="#fff"/><path d="M237.17,81.27l2.39-7.5,4.73,1.68-4.1,7Z" fill="#fff"/><path d="M20.66,105.33c0-3.51,3-4.88,7.92-4.88H30v-.34c0-1.42-.34-2.36-2-2.36a1.83,1.83,0,0,0-2,1.76H21.23c.22-3.59,3.05-5.36,7.12-5.36s6.73,1.69,6.73,5.65v9.66h-5v-1.74a4.91,4.91,0,0,1-4.42,2.08C23,109.8,20.66,108.49,20.66,105.33ZM30,104.24v-.91H28.67c-2.06,0-3,.4-3,1.63,0,.85.57,1.39,1.77,1.39C28.92,106.35,30,105.53,30,104.24Z" fill="#fff"/><path d="M36.81,102.16v-.22c0-5.08,2.8-7.79,6.33-7.79a4.83,4.83,0,0,1,4.59,2.51V88h5.1v21.46h-5.1V107a5,5,0,0,1-4.64,2.76C39.64,109.8,36.81,107.32,36.81,102.16Zm11.06-.08v-.23c0-2.51-1-3.85-2.93-3.85S42,99.28,42,101.88v.23c0,2.5,1.11,3.79,2.88,3.79S47.87,104.61,47.87,102.08Z" fill="#fff"/><path d="M54.14,94.55h5.45l3.1,9.61,3-9.61h4.88l-5.45,14.91H59.62Z" fill="#fff"/><path d="M71.78,90.51a2.82,2.82,0,1,1,2.8,2.62A2.67,2.67,0,0,1,71.78,90.51Zm.26,4h5.1v14.91H72Z" fill="#fff"/><path d="M79.08,102.19V102c0-5,3.56-7.81,8-7.81,3.65,0,7,1.6,7.3,6.13H89.54a2.2,2.2,0,0,0-2.39-2.16c-1.8,0-2.85,1.28-2.85,3.79v.22c0,2.6,1,3.94,2.93,3.94a2.49,2.49,0,0,0,2.6-2.48h4.58c-.14,3.76-2.67,6.21-7.49,6.21C82.47,109.8,79.08,107.21,79.08,102.19Z" fill="#fff"/><path d="M95.27,102.19V102c0-4.78,3.56-7.81,8.06-7.81,4.08,0,7.59,2.34,7.59,7.7v1.34H100.43a3,3,0,0,0,3.1,3.11c1.69,0,2.4-.77,2.6-1.77h4.79c-.46,3.36-3,5.27-7.56,5.27C98.69,109.8,95.27,107.07,95.27,102.19ZM106,100.31c-.09-1.79-1-2.79-2.63-2.79s-2.59,1-2.85,2.79Z" fill="#fff"/><path d="M117,105.33c0-3.51,3-4.88,7.93-4.88h1.42v-.34c0-1.42-.34-2.36-2-2.36a1.83,1.83,0,0,0-2,1.76h-4.79c.23-3.59,3-5.36,7.13-5.36s6.73,1.69,6.73,5.65v9.66h-5v-1.74a4.92,4.92,0,0,1-4.42,2.08C119.38,109.8,117,108.49,117,105.33Zm9.35-1.09v-.91H125c-2,0-3,.4-3,1.63,0,.85.57,1.39,1.76,1.39C125.28,106.35,126.36,105.53,126.36,104.24Z" fill="#fff"/><path d="M133.91,94.55H139V97a5.28,5.28,0,0,1,4.91-2.8c2.88,0,4.87,1.8,4.87,5.62v9.69h-5.1V100.8c0-1.69-.66-2.51-2.14-2.51s-2.54.91-2.54,2.82v8.35h-5.1Z" fill="#fff"/><path d="M150.53,102.16v-.22c0-5.08,2.79-7.79,6.33-7.79a4.82,4.82,0,0,1,4.58,2.51V88h5.11v21.46h-5.11V107a5,5,0,0,1-4.64,2.76C153.35,109.8,150.53,107.32,150.53,102.16Zm11.06-.08v-.23c0-2.51-1.06-3.85-2.94-3.85s-2.93,1.28-2.93,3.88v.23c0,2.5,1.11,3.79,2.87,3.79S161.59,104.61,161.59,102.08Z" fill="#fff"/><path d="M22.28,128.53H20.4v-3.48h1.88v-1.31c0-3.7,2.31-5.47,5.84-5.47a9.15,9.15,0,0,1,2.34.31v3.74a4.52,4.52,0,0,0-1.4-.2,1.5,1.5,0,0,0-1.71,1.62v1.31h3v3.48h-3V140H22.28Z" fill="#fff"/><path d="M30.94,135.83c0-3.51,3-4.88,7.93-4.88h1.42v-.34c0-1.42-.34-2.36-2-2.36a1.83,1.83,0,0,0-2,1.76H31.51c.23-3.59,3.05-5.36,7.13-5.36s6.73,1.69,6.73,5.65V140h-5v-1.74A4.92,4.92,0,0,1,36,140.3C33.31,140.3,30.94,139,30.94,135.83Zm9.35-1.09v-.91H39c-2.05,0-3,.4-3,1.63,0,.85.57,1.39,1.77,1.39C39.21,136.85,40.29,136,40.29,134.74Z" fill="#fff"/><path d="M46.85,135.23h4.7c.17,1.08.66,1.68,2.11,1.68,1.25,0,1.82-.48,1.82-1.23s-.71-1.05-2.76-1.34c-4-.51-5.67-1.68-5.67-4.78,0-3.31,2.93-4.91,6.38-4.91,3.68,0,6.24,1.26,6.59,4.82H55.4A1.66,1.66,0,0,0,53.49,128c-1.11,0-1.68.48-1.68,1.17s.68,1,2.5,1.22c4.14.52,6.13,1.6,6.13,4.79,0,3.54-2.62,5.13-6.75,5.13S47,138.54,46.85,135.23Z" fill="#fff"/><path d="M62.78,135.17v-6.64H61v-3.48h1.8V122h5.1v3.1h2.94v3.48H67.88v6.16a1.36,1.36,0,0,0,1.51,1.56,3.87,3.87,0,0,0,1.45-.25v3.88a10.72,10.72,0,0,1-2.82.42C64.66,140.3,62.78,138.68,62.78,135.17Z" fill="#fff"/><path d="M72.7,129.9h8v3.85h-8Z" fill="#fff"/><path d="M83.9,135.17v-6.64H82.1v-3.48h1.8V122H89v3.1h2.93v3.48H89v6.16a1.36,1.36,0,0,0,1.51,1.56A3.87,3.87,0,0,0,92,136v3.88a10.72,10.72,0,0,1-2.82.42C85.78,140.3,83.9,138.68,83.9,135.17Z" fill="#fff"/><path d="M98.55,138.45l-6-13.4h5.53l3.08,8,2.85-8h4.87l-8,19.9H96.07Z" fill="#fff"/><path d="M110.23,125.05h5.1v2.23a5.27,5.27,0,0,1,4.65-2.63c3.48,0,6.3,2.63,6.3,7.73v.23c0,5.13-2.82,7.69-6.33,7.69a4.92,4.92,0,0,1-4.62-2.53V145h-5.1Zm10.86,7.56v-.23c0-2.62-1.14-3.88-2.94-3.88s-3,1.34-3,3.85v.23c0,2.53,1.11,3.82,3,3.82S121.09,135.06,121.09,132.61Z" fill="#fff"/><path d="M128,121a2.82,2.82,0,1,1,2.8,2.62A2.67,2.67,0,0,1,128,121Zm.26,4h5.1V140h-5.1Z" fill="#fff"/><path d="M136.11,125.05h5.1v2.4a5.26,5.26,0,0,1,4.9-2.8c2.88,0,4.88,1.8,4.88,5.62V140h-5.11v-8.67c0-1.68-.65-2.5-2.13-2.5s-2.54.91-2.54,2.82V140h-5.1Z" fill="#fff"/><path d="M152.64,140h5.07c.23,1.08.88,1.94,2.74,1.94a2.82,2.82,0,0,0,3.16-3.14v-2.28a5.22,5.22,0,0,1-4.62,2.74c-3.47,0-6.32-2.57-6.32-7.16v-.22c0-4.39,2.82-7.19,6.32-7.19a4.85,4.85,0,0,1,4.62,2.51v-2.11h5.1v13.66c0,4.44-2.93,6.78-8.26,6.78C155.37,145.49,153,143.35,152.64,140ZM163.75,132v-.2c0-2.06-1.05-3.37-2.93-3.37s-2.94,1.34-2.94,3.4v.22c0,2.06,1.08,3.37,2.91,3.37S163.75,134.15,163.75,132Z" fill="#fff"/><path d="M177.26,128.53h-1.88v-3.48h1.88v-1.31c0-3.7,2.31-5.47,5.84-5.47a9.15,9.15,0,0,1,2.34.31v3.74a4.52,4.52,0,0,0-1.4-.2,1.5,1.5,0,0,0-1.71,1.62v1.31h3v3.48h-3V140h-5.07Z" fill="#fff"/><path d="M187,121a2.67,2.67,0,0,1,2.79-2.66,2.65,2.65,0,1,1,0,5.28A2.64,2.64,0,0,1,187,121Zm.26,4h5.1V140h-5.1Z" fill="#fff"/><path d="M195,125.05h5.11v2.4a5.25,5.25,0,0,1,4.9-2.8c2.88,0,4.87,1.8,4.87,5.62V140h-5.1v-8.67c0-1.68-.65-2.5-2.14-2.5s-2.53.91-2.53,2.82V140H195Z" fill="#fff"/><path d="M211.57,140h5.08c.23,1.08.88,1.94,2.73,1.94a2.82,2.82,0,0,0,3.17-3.14v-2.28a5.23,5.23,0,0,1-4.62,2.74c-3.48,0-6.33-2.57-6.33-7.16v-.22c0-4.39,2.82-7.19,6.33-7.19a4.86,4.86,0,0,1,4.62,2.51v-2.11h5.1v13.66c0,4.44-2.94,6.78-8.27,6.78C214.31,145.49,212,143.35,211.57,140ZM222.69,132v-.2c0-2.06-1.05-3.37-2.94-3.37s-2.93,1.34-2.93,3.4v.22c0,2.06,1.08,3.37,2.91,3.37S222.69,134.15,222.69,132Z" fill="#fff"/><path d="M229.44,132.69v-.23c0-4.79,3.57-7.81,8.07-7.81,4.07,0,7.58,2.34,7.58,7.7v1.34H234.6a3,3,0,0,0,3.11,3.11c1.68,0,2.39-.77,2.59-1.77h4.79c-.46,3.36-3.05,5.27-7.55,5.27C232.86,140.3,229.44,137.57,229.44,132.69Zm10.69-1.88c-.08-1.8-1-2.79-2.62-2.79s-2.59,1-2.85,2.79Z" fill="#fff"/><path d="M246.86,125.05H252v3a4.7,4.7,0,0,1,4.82-3.17v4.76c-3.11-.08-4.82.89-4.82,3.28V140h-5.1Z" fill="#fff"/><path d="M257.69,135.23h4.7c.17,1.08.65,1.68,2.11,1.68,1.25,0,1.82-.48,1.82-1.23s-.71-1.05-2.76-1.34c-4-.51-5.67-1.68-5.67-4.78,0-3.31,2.93-4.91,6.38-4.91,3.68,0,6.24,1.26,6.58,4.82h-4.61a1.66,1.66,0,0,0-1.91-1.48c-1.11,0-1.68.48-1.68,1.17s.68,1,2.5,1.22c4.14.52,6.13,1.6,6.13,4.79,0,3.54-2.62,5.13-6.75,5.13S257.8,138.54,257.69,135.23Z" fill="#fff"/><path d="M272.73,137.39a2.84,2.84,0,0,1,2.91-2.87,2.88,2.88,0,1,1,0,5.75A2.84,2.84,0,0,1,272.73,137.39Z" fill="#fff"/></g></g></g></svg>