<svg xmlns="http://www.w3.org/2000/svg" viewBox="0 0 300 250"><title>txt</title><g id="Layer_2" data-name="Layer 2"><g id="Artboard_1" data-name="Artboard 1" style="isolation:isolate"><g id="headline1"><g id="Real_pros._Real_help._Real_fast." data-name="Real pros. Real help. Real fast."><path d="M22.56,49.41H32.93c6.93,0,10.78,2.82,10.78,8.41V58a6.93,6.93,0,0,1-4.78,7l6.34,11h-8l-5.37-9.48H30.11V75.9H22.56Zm10,12.08c2.56,0,3.82-1.07,3.82-3.22v-.15c0-2.15-1.34-3-3.78-3H30.11v6.37Z" fill="#fff"/><path d="M45.27,66.46v-.3C45.27,59.93,49.9,56,55.75,56c5.3,0,9.86,3,9.86,10v1.74H52c.19,2.56,1.67,4,4,4,2.19,0,3.11-1,3.37-2.3h6.23c-.6,4.37-4,6.86-9.82,6.86C49.71,76.35,45.27,72.79,45.27,66.46ZM59.16,64c-.11-2.33-1.26-3.63-3.41-3.63s-3.37,1.3-3.7,3.63Z" fill="#fff"/><path d="M67,70.53C67,66,70.83,64.2,77.27,64.2h1.86v-.45c0-1.85-.45-3.07-2.56-3.07A2.38,2.38,0,0,0,73.94,63H67.72c.29-4.67,4-7,9.26-7s8.74,2.18,8.74,7.33V75.9H79.28V73.64c-.93,1.41-2.64,2.71-5.75,2.71C70.05,76.35,67,74.64,67,70.53Zm12.15-1.41V67.94H77.39c-2.67,0-3.86.52-3.86,2.11,0,1.11.74,1.81,2.3,1.81C77.72,71.86,79.13,70.79,79.13,69.12Z" fill="#fff"/><path d="M89.13,48h6.59V75.9H89.13Z" fill="#fff"/><path d="M106,56.53h6.63v2.89a6.84,6.84,0,0,1,6-3.41c4.52,0,8.19,3.41,8.19,10v.29c0,6.67-3.67,10-8.22,10a6.4,6.4,0,0,1-6-3.3v9.34H106Zm14.12,9.81v-.29c0-3.41-1.48-5-3.82-5s-3.85,1.74-3.85,5v.3c0,3.29,1.44,5,3.85,5S120.14,69.53,120.14,66.34Z" fill="#fff"/><path d="M129.29,56.53h6.63v3.85a6.1,6.1,0,0,1,6.26-4.11v6.18c-4-.11-6.26,1.15-6.26,4.26V75.9h-6.63Z" fill="#fff"/><path d="M143.37,66.46v-.3C143.37,59.93,148,56,154,56s10.56,3.81,10.56,10v.3c0,6.3-4.63,10.08-10.6,10.08S143.37,72.72,143.37,66.46Zm14.44-.12v-.29c0-3.26-1.29-5.08-3.81-5.08s-3.85,1.74-3.85,5v.3c0,3.33,1.29,5.15,3.85,5.15S157.81,69.57,157.81,66.34Z" fill="#fff"/><path d="M165.71,69.75h6.11c.22,1.41.85,2.19,2.74,2.19,1.63,0,2.37-.63,2.37-1.59S176,69,173.34,68.6c-5.19-.66-7.38-2.18-7.38-6.22,0-4.3,3.82-6.37,8.3-6.37,4.78,0,8.12,1.63,8.56,6.26h-6a2.16,2.16,0,0,0-2.48-1.93c-1.45,0-2.19.63-2.19,1.52s.89,1.3,3.26,1.59c5.37.67,8,2.08,8,6.23,0,4.59-3.41,6.67-8.78,6.67S165.85,74.05,165.71,69.75Z" fill="#fff"/><path d="M185.27,72.57A3.69,3.69,0,0,1,189,68.83a3.74,3.74,0,1,1,0,7.48A3.69,3.69,0,0,1,185.27,72.57Z" fill="#fff"/><path d="M203.38,49.41h10.37c6.93,0,10.79,2.82,10.79,8.41V58a6.94,6.94,0,0,1-4.78,7l6.33,11h-8l-5.37-9.48h-1.78V75.9h-7.56Zm10,12.08c2.56,0,3.82-1.07,3.82-3.22v-.15c0-2.15-1.33-3-3.78-3h-2.48v6.37Z" fill="#fff"/><path d="M226.09,66.46v-.3c0-6.23,4.63-10.15,10.49-10.15,5.29,0,9.85,3,9.85,10v1.74H232.8c.18,2.56,1.66,4,4,4,2.19,0,3.12-1,3.38-2.3h6.22c-.59,4.37-4,6.86-9.82,6.86C230.54,76.35,226.09,72.79,226.09,66.46ZM240,64c-.11-2.33-1.26-3.63-3.4-3.63s-3.38,1.3-3.71,3.63Z" fill="#fff"/><path d="M247.8,70.53c0-4.56,3.85-6.33,10.3-6.33H260v-.45c0-1.85-.44-3.07-2.56-3.07A2.38,2.38,0,0,0,254.76,63h-6.22c.3-4.67,4-7,9.26-7s8.75,2.18,8.75,7.33V75.9H260.1V73.64c-.93,1.41-2.63,2.71-5.74,2.71C250.87,76.35,247.8,74.64,247.8,70.53ZM260,69.12V67.94h-1.74c-2.67,0-3.85.52-3.85,2.11,0,1.11.74,1.81,2.29,1.81C258.54,71.86,260,70.79,260,69.12Z" fill="#fff"/><path d="M270,48h6.6V75.9H270Z" fill="#fff"/><path d="M22,88.92H28.6v11.63A6.82,6.82,0,0,1,35,96.92c3.74,0,6.33,2.34,6.33,7.3v12.6H34.67V105.56c0-2.19-.85-3.26-2.78-3.26S28.6,103.48,28.6,106v10.86H22Z" fill="#fff"/><path d="M43.49,107.37v-.3c0-6.22,4.63-10.15,10.48-10.15,5.3,0,9.86,3,9.86,10v1.74H50.19c.19,2.55,1.67,4,4,4,2.19,0,3.11-1,3.37-2.3h6.23c-.6,4.37-4,6.85-9.82,6.85C47.93,117.26,43.49,113.71,43.49,107.37Zm13.89-2.44c-.11-2.34-1.26-3.64-3.41-3.64s-3.37,1.3-3.7,3.64Z" fill="#fff"/><path d="M66.31,88.92H72.9v27.9H66.31Z" fill="#fff"/><path d="M76.46,97.44h6.63v2.89a6.84,6.84,0,0,1,6-3.41c4.52,0,8.19,3.41,8.19,10v.3c0,6.67-3.67,10-8.23,10a6.4,6.4,0,0,1-6-3.29v9.33H76.46Zm14.12,9.82V107c0-3.4-1.49-5-3.82-5s-3.85,1.75-3.85,5v.29c0,3.3,1.44,5,3.85,5S90.58,110.45,90.58,107.26Z" fill="#fff"/><path d="M99,113.48a3.7,3.7,0,0,1,3.78-3.74,3.75,3.75,0,1,1,0,7.49A3.7,3.7,0,0,1,99,113.48Z" fill="#fff"/><path d="M117.1,90.33h10.37c6.93,0,10.78,2.81,10.78,8.41v.15a6.92,6.92,0,0,1-4.77,7l6.33,11h-8l-5.37-9.49h-1.78v9.49H117.1Zm10,12.08c2.56,0,3.82-1.08,3.82-3.23V99c0-2.15-1.33-3-3.78-3h-2.48v6.38Z" fill="#fff"/><path d="M139.81,107.37v-.3c0-6.22,4.63-10.15,10.48-10.15,5.3,0,9.86,3,9.86,10v1.74H146.52c.18,2.55,1.66,4,4,4,2.19,0,3.12-1,3.38-2.3h6.22c-.59,4.37-4,6.85-9.82,6.85C144.26,117.26,139.81,113.71,139.81,107.37Zm13.89-2.44c-.11-2.34-1.26-3.64-3.41-3.64-2,0-3.37,1.3-3.7,3.64Z" fill="#fff"/><path d="M161.52,111.45c0-4.56,3.85-6.34,10.3-6.34h1.85v-.44c0-1.86-.44-3.08-2.55-3.08a2.38,2.38,0,0,0-2.63,2.3h-6.23c.3-4.67,4-7,9.26-7s8.75,2.19,8.75,7.34v12.56h-6.45v-2.26c-.93,1.41-2.63,2.7-5.74,2.7C164.59,117.26,161.52,115.56,161.52,111.45ZM173.67,110v-1.19h-1.74c-2.67,0-3.85.52-3.85,2.11,0,1.12.74,1.82,2.3,1.82C172.26,112.78,173.67,111.71,173.67,110Z" fill="#fff"/><path d="M183.67,88.92h6.6v27.9h-6.6Z" fill="#fff"/><path d="M201.57,102h-2.45V97.44h2.45v-1.7c0-4.82,3-7.12,7.59-7.12a12,12,0,0,1,3,.41v4.86a6.06,6.06,0,0,0-1.82-.26,2,2,0,0,0-2.22,2.11v1.7h3.93V102h-3.93v14.86h-6.59Z" fill="#fff"/><path d="M212.83,111.45c0-4.56,3.85-6.34,10.3-6.34H225v-.44c0-1.86-.44-3.08-2.56-3.08a2.39,2.39,0,0,0-2.63,2.3h-6.22c.3-4.67,4-7,9.26-7s8.74,2.19,8.74,7.34v12.56h-6.44v-2.26c-.93,1.41-2.63,2.7-5.75,2.7C215.9,117.26,212.83,115.56,212.83,111.45ZM225,110v-1.19h-1.74c-2.67,0-3.86.52-3.86,2.11,0,1.12.75,1.82,2.3,1.82C223.57,112.78,225,111.71,225,110Z" fill="#fff"/><path d="M233.5,110.67h6.11c.22,1.41.85,2.18,2.74,2.18,1.63,0,2.38-.63,2.38-1.59s-.93-1.37-3.6-1.74c-5.18-.67-7.37-2.19-7.37-6.22,0-4.3,3.82-6.38,8.3-6.38,4.78,0,8.11,1.63,8.56,6.26h-6a2.16,2.16,0,0,0-2.48-1.92c-1.44,0-2.18.63-2.18,1.52s.89,1.29,3.26,1.59c5.37.67,8,2.07,8,6.22,0,4.6-3.41,6.67-8.78,6.67S233.65,115,233.5,110.67Z" fill="#fff"/><path d="M254.21,110.59V102h-2.33V97.44h2.33v-4h6.63v4h3.82V102h-3.82v8c0,1.41.7,2,2,2a5.1,5.1,0,0,0,1.89-.33v5a14,14,0,0,1-3.66.55C256.65,117.26,254.21,115.15,254.21,110.59Z" fill="#fff"/><path d="M266.92,113.48a3.69,3.69,0,0,1,3.78-3.74,3.75,3.75,0,1,1,0,7.49A3.7,3.7,0,0,1,266.92,113.48Z" fill="#fff"/></g><g id="Layer_11" data-name="Layer 11"><rect width="300" height="250" fill="none"/></g></g></g></g></svg>