<svg xmlns="http://www.w3.org/2000/svg" viewBox="0 0 160 600"><title>Asset 23</title><g id="Layer_2" data-name="Layer 2"><g id="Rect"><rect width="160" height="600" fill="none"/></g><g id="File_for_everyone_s_favorite_price:_free." data-name="File for everyone&apos;s favorite price: free."><path d="M21.59,160.88h11.1v3.65H26.32V168h5.09v3.47H26.32v5.82H21.59Z" fill="#fff"/><path d="M33.87,162a2.14,2.14,0,0,1,2.25-2.14A2.17,2.17,0,0,1,38.4,162a2.15,2.15,0,0,1-2.28,2.11A2.12,2.12,0,0,1,33.87,162Zm.21,3.26h4.11v12H34.08Z" fill="#fff"/><path d="M40.52,160h4.09v17.32H40.52Z" fill="#fff"/><path d="M46.17,171.46v-.19a6.16,6.16,0,0,1,6.51-6.3c3.29,0,6.12,1.89,6.12,6.21v1.08H50.34a2.4,2.4,0,0,0,2.5,2.51c1.36,0,1.93-.62,2.09-1.43H58.8c-.37,2.71-2.46,4.25-6.1,4.25S46.17,175.39,46.17,171.46Zm8.63-1.52c-.07-1.45-.78-2.26-2.12-2.26a2.3,2.3,0,0,0-2.3,2.26Z" fill="#fff"/><path d="M65,168.1H63.52v-2.81H65v-1.06c0-3,1.87-4.41,4.72-4.41a7.19,7.19,0,0,1,1.88.25v3a3.8,3.8,0,0,0-1.12-.16,1.21,1.21,0,0,0-1.38,1.31v1.06h2.43v2.81H69.13v9.22H65Z" fill="#fff"/><path d="M71.89,171.46v-.19c0-3.86,2.87-6.3,6.6-6.3S85,167.34,85,171.16v.18c0,3.91-2.87,6.25-6.58,6.25S71.89,175.34,71.89,171.46Zm9-.07v-.19c0-2-.81-3.15-2.37-3.15s-2.39,1.08-2.39,3.11v.18c0,2.07.8,3.2,2.39,3.2S80.86,173.39,80.86,171.39Z" fill="#fff"/><path d="M86.49,165.29h4.12v2.39a3.79,3.79,0,0,1,3.88-2.55V169c-2.5-.07-3.88.71-3.88,2.65v5.7H86.49Z" fill="#fff"/><path d="M20.57,199.46v-.19a6.16,6.16,0,0,1,6.51-6.3c3.29,0,6.12,1.89,6.12,6.21v1.08H24.74a2.4,2.4,0,0,0,2.5,2.51c1.36,0,1.93-.62,2.1-1.43H33.2c-.37,2.71-2.46,4.25-6.09,4.25C23.33,205.59,20.57,203.39,20.57,199.46Zm8.63-1.52c-.07-1.45-.78-2.26-2.12-2.26a2.3,2.3,0,0,0-2.3,2.26Z" fill="#fff"/><path d="M33.18,193.29h4.39L40.08,201l2.46-7.75h3.93l-4.39,12H37.59Z" fill="#fff"/><path d="M46.22,199.46v-.19a6.15,6.15,0,0,1,6.51-6.3c3.29,0,6.11,1.89,6.11,6.21v1.08H50.38a2.41,2.41,0,0,0,2.51,2.51c1.36,0,1.93-.62,2.09-1.43h3.86c-.36,2.71-2.46,4.25-6.09,4.25S46.22,203.39,46.22,199.46Zm8.62-1.52c-.07-1.45-.78-2.26-2.11-2.26a2.29,2.29,0,0,0-2.3,2.26Z" fill="#fff"/><path d="M60.27,193.29h4.12v2.39a3.79,3.79,0,0,1,3.88-2.55V197c-2.5-.07-3.88.71-3.88,2.65v5.7H60.27Z" fill="#fff"/><path d="M73.73,204.1l-4.81-10.81h4.46l2.48,6.42,2.3-6.42H82.1l-6.44,16.05H71.73Z" fill="#fff"/><path d="M81.87,199.46v-.19c0-3.86,2.87-6.3,6.6-6.3S95,195.34,95,199.16v.18c0,3.91-2.87,6.25-6.57,6.25S81.87,203.34,81.87,199.46Zm9-.07v-.19c0-2-.81-3.15-2.37-3.15s-2.39,1.08-2.39,3.11v.18c0,2.07.8,3.2,2.39,3.2S90.84,201.39,90.84,199.39Z" fill="#fff"/><path d="M96.47,193.29h4.12v1.93a4.23,4.23,0,0,1,4-2.25c2.33,0,3.94,1.45,3.94,4.53v7.82h-4.12v-7c0-1.36-.53-2-1.72-2s-2,.74-2,2.28v6.74H96.47Z" fill="#fff"/><path d="M109.84,199.46v-.19a6.15,6.15,0,0,1,6.5-6.3c3.29,0,6.12,1.89,6.12,6.21v1.08H114a2.4,2.4,0,0,0,2.5,2.51c1.36,0,1.94-.62,2.1-1.43h3.86c-.37,2.71-2.46,4.25-6.09,4.25S109.84,203.39,109.84,199.46Zm8.62-1.52c-.07-1.45-.78-2.26-2.12-2.26a2.3,2.3,0,0,0-2.3,2.26Z" fill="#fff"/><path d="M122.92,188.88h4l-.49,6.32h-3.08Z" fill="#fff"/><path d="M127.64,201.5h3.79c.14.88.53,1.36,1.7,1.36s1.48-.39,1.48-1-.58-.85-2.23-1.08c-3.22-.41-4.58-1.36-4.58-3.86,0-2.67,2.37-4,5.15-4,3,0,5,1,5.31,3.89h-3.72a1.34,1.34,0,0,0-1.54-1.2c-.9,0-1.36.39-1.36.94s.55.81,2,1c3.34.42,5,1.29,5,3.87,0,2.85-2.12,4.13-5.45,4.13S127.73,204.17,127.64,201.5Z" fill="#fff"/><path d="M21.84,224.1H20.32v-2.81h1.52v-1.06c0-3,1.86-4.41,4.71-4.41a7.27,7.27,0,0,1,1.89.25v3a3.88,3.88,0,0,0-1.13-.16,1.21,1.21,0,0,0-1.38,1.31v1.06h2.44v2.81H25.93v9.22H21.84Z" fill="#fff"/><path d="M28.83,230c0-2.82,2.39-3.93,6.39-3.93h1.15v-.27c0-1.15-.27-1.91-1.58-1.91a1.48,1.48,0,0,0-1.64,1.42H29.29C29.48,222.4,31.75,221,35,221s5.43,1.36,5.43,4.55v7.8h-4v-1.4a4,4,0,0,1-3.57,1.67C30.74,233.59,28.83,232.54,28.83,230Zm7.54-.87v-.73H35.29c-1.65,0-2.39.32-2.39,1.31,0,.69.46,1.12,1.43,1.12C35.5,230.81,36.37,230.15,36.37,229.11Z" fill="#fff"/><path d="M41.09,221.29h4.39L48,229l2.46-7.75h3.93l-4.39,12H45.51Z" fill="#fff"/><path d="M54.13,227.46v-.19c0-3.86,2.88-6.3,6.6-6.3s6.55,2.37,6.55,6.19v.18c0,3.91-2.87,6.25-6.57,6.25S54.13,231.34,54.13,227.46Zm9-.07v-.19c0-2-.81-3.15-2.37-3.15s-2.39,1.08-2.39,3.11v.18c0,2.07.8,3.2,2.39,3.2S63.1,229.39,63.1,227.39Z" fill="#fff"/><path d="M68.74,221.29h4.11v2.39a3.8,3.8,0,0,1,3.89-2.55V225c-2.51-.07-3.89.71-3.89,2.65v5.7H68.74Z" fill="#fff"/><path d="M78.14,218a2.27,2.27,0,1,1,2.26,2.11A2.13,2.13,0,0,1,78.14,218Zm.21,3.26h4.12v12H78.35Z" fill="#fff"/><path d="M85.23,229.46V224.1H83.78v-2.81h1.45v-2.5h4.11v2.5h2.37v2.81H89.34v5c0,.88.44,1.27,1.22,1.27a3.05,3.05,0,0,0,1.17-.21v3.13a8.51,8.51,0,0,1-2.27.34C86.74,233.59,85.23,232.28,85.23,229.46Z" fill="#fff"/><path d="M92.63,227.46v-.19a6.16,6.16,0,0,1,6.51-6.3c3.29,0,6.12,1.89,6.12,6.21v1.08H96.79a2.41,2.41,0,0,0,2.51,2.51c1.36,0,1.93-.62,2.09-1.43h3.87c-.37,2.71-2.46,4.25-6.1,4.25S92.63,231.39,92.63,227.46Zm8.63-1.52c-.07-1.45-.79-2.26-2.12-2.26a2.3,2.3,0,0,0-2.3,2.26Z" fill="#fff"/><path d="M21.22,249.29h4.11v1.8A4.26,4.26,0,0,1,29.08,249c2.81,0,5.09,2.12,5.09,6.23v.19c0,4.14-2.28,6.2-5.11,6.2a4,4,0,0,1-3.73-2v5.79H21.22Zm8.76,6.1v-.19c0-2.11-.92-3.13-2.37-3.13s-2.39,1.09-2.39,3.11v.18c0,2.05.9,3.08,2.39,3.08S30,257.36,30,255.39Z" fill="#fff"/><path d="M35.66,249.29h4.12v2.39a3.79,3.79,0,0,1,3.88-2.55V253c-2.5-.07-3.88.71-3.88,2.65v5.7H35.66Z" fill="#fff"/><path d="M45.07,246a2.27,2.27,0,1,1,2.25,2.11A2.13,2.13,0,0,1,45.07,246Zm.21,3.26h4.11v12H45.28Z" fill="#fff"/><path d="M51,255.46v-.19a6,6,0,0,1,6.41-6.3c3,0,5.66,1.29,5.89,4.94H59.4a1.78,1.78,0,0,0-1.94-1.74c-1.44,0-2.29,1-2.29,3.06v.18c0,2.09.8,3.17,2.36,3.17a2,2,0,0,0,2.1-2h3.7c-.12,3-2.16,5-6,5C53.69,261.59,51,259.5,51,255.46Z" fill="#fff"/><path d="M64,255.46v-.19a6.16,6.16,0,0,1,6.51-6.3c3.29,0,6.12,1.89,6.12,6.21v1.08H68.18a2.41,2.41,0,0,0,2.51,2.51c1.36,0,1.93-.62,2.09-1.43h3.87c-.37,2.71-2.46,4.25-6.1,4.25S64,259.39,64,255.46Zm8.62-1.52c-.06-1.45-.78-2.26-2.11-2.26a2.3,2.3,0,0,0-2.3,2.26Z" fill="#fff"/><path d="M78,252.67a2.3,2.3,0,0,1,2.35-2.32,2.33,2.33,0,1,1,0,4.65A2.3,2.3,0,0,1,78,252.67Zm0,6.58a2.3,2.3,0,0,1,2.35-2.32,2.32,2.32,0,1,1,0,4.64A2.3,2.3,0,0,1,78,259.25Z" fill="#fff"/><path d="M89.55,252.1H88v-2.81h1.52v-1.06c0-3,1.86-4.41,4.71-4.41a7.27,7.27,0,0,1,1.89.25v3a3.88,3.88,0,0,0-1.13-.16,1.21,1.21,0,0,0-1.38,1.31v1.06h2.44v2.81H93.64v9.22H89.55Z" fill="#fff"/><path d="M97.46,249.29h4.12v2.39a3.79,3.79,0,0,1,3.88-2.55V253c-2.5-.07-3.88.71-3.88,2.65v5.7H97.46Z" fill="#fff"/><path d="M106.2,255.46v-.19a6.16,6.16,0,0,1,6.51-6.3c3.29,0,6.12,1.89,6.12,6.21v1.08h-8.47a2.41,2.41,0,0,0,2.51,2.51c1.36,0,1.93-.62,2.09-1.43h3.87c-.37,2.71-2.46,4.25-6.1,4.25S106.2,259.39,106.2,255.46Zm8.63-1.52c-.07-1.45-.79-2.26-2.12-2.26a2.3,2.3,0,0,0-2.3,2.26Z" fill="#fff"/><path d="M119.61,255.46v-.19a6.16,6.16,0,0,1,6.51-6.3c3.29,0,6.12,1.89,6.12,6.21v1.08h-8.47a2.41,2.41,0,0,0,2.51,2.51c1.36,0,1.93-.62,2.09-1.43h3.87c-.37,2.71-2.46,4.25-6.1,4.25S119.61,259.39,119.61,255.46Zm8.62-1.52c-.06-1.45-.78-2.26-2.11-2.26a2.3,2.3,0,0,0-2.3,2.26Z" fill="#fff"/><path d="M133.39,259.25a2.29,2.29,0,0,1,2.34-2.32,2.32,2.32,0,1,1,0,4.64A2.29,2.29,0,0,1,133.39,259.25Z" fill="#fff"/></g></g></svg>