<svg xmlns="http://www.w3.org/2000/svg" viewBox="0 0 300 250"><title>H6</title><g id="Layer_2" data-name="Layer 2"><g id="Rect"><rect width="300" height="250" fill="none"/></g><g id="H06"><g id="You_could_get_a_Refund_Advance_loan_up_to_3_500_within_minutes" data-name="You could get a Refund Advance loan up to $3,500 within minutes"><path d="M27.69,26.26l-7.43-13h7.11l3.86,7.69,3.86-7.69h6.26L34.26,26.26V36H27.69Z" fill="#fff"/><path d="M39,27.88v-.25c0-5.36,4-8.74,9.16-8.74s9.09,3.28,9.09,8.58v.25c0,5.43-4,8.68-9.13,8.68S39,33.28,39,27.88Zm12.44-.09v-.26c0-2.8-1.11-4.37-3.28-4.37s-3.32,1.5-3.32,4.31v.25c0,2.88,1.11,4.44,3.32,4.44S51.39,30.56,51.39,27.79Z" fill="#fff"/><path d="M59.08,30.21V19.33h5.71v10c0,1.88.73,2.81,2.36,2.81s2.84-1,2.84-3.16V19.33H75.7V36H70V33.44a5.48,5.48,0,0,1-5.3,3C61.47,36.4,59.08,34.43,59.08,30.21Z" fill="#fff"/><path d="M83.51,27.88v-.25c0-5.55,4-8.74,8.9-8.74,4.09,0,7.85,1.78,8.17,6.86H95.22a2.46,2.46,0,0,0-2.68-2.43c-2,0-3.19,1.44-3.19,4.25v.25c0,2.9,1.12,4.4,3.29,4.4a2.77,2.77,0,0,0,2.9-2.77h5.14c-.16,4.21-3,7-8.39,7C87.31,36.4,83.51,33.5,83.51,27.88Z" fill="#fff"/><path d="M101.63,27.88v-.25c0-5.36,4-8.74,9.16-8.74s9.09,3.28,9.09,8.58v.25c0,5.43-4,8.68-9.12,8.68S101.63,33.28,101.63,27.88Zm12.44-.09v-.26c0-2.8-1.11-4.37-3.28-4.37s-3.32,1.5-3.32,4.31v.25c0,2.88,1.12,4.44,3.32,4.44S114.07,30.56,114.07,27.79Z" fill="#fff"/><path d="M121.76,30.21V19.33h5.71v10c0,1.88.74,2.81,2.36,2.81s2.84-1,2.84-3.16V19.33h5.71V36h-5.71V33.44a5.48,5.48,0,0,1-5.29,3C124.15,36.4,121.76,34.43,121.76,30.21Z" fill="#fff"/><path d="M141.44,12h5.68V36h-5.68Z" fill="#fff"/><path d="M149.35,27.85V27.6c0-5.68,3.13-8.71,7.09-8.71a5.39,5.39,0,0,1,5.13,2.8V12h5.71V36h-5.71V33.31a5.62,5.62,0,0,1-5.2,3.09C152.51,36.4,149.35,33.63,149.35,27.85Zm12.38-.09V27.5c0-2.81-1.18-4.31-3.28-4.31s-3.29,1.44-3.29,4.34v.26c0,2.81,1.24,4.24,3.22,4.24S161.73,30.6,161.73,27.76Z" fill="#fff"/><path d="M175.06,36h5.68c.26,1.21,1,2.17,3.07,2.17,2.52,0,3.54-1.44,3.54-3.51V32.13a5.86,5.86,0,0,1-5.17,3.06c-3.89,0-7.08-2.87-7.08-8v-.25c0-4.92,3.15-8,7.08-8a5.43,5.43,0,0,1,5.17,2.8V19.33h5.71V34.62c0,5-3.29,7.59-9.25,7.59C178.13,42.21,175.51,39.82,175.06,36Zm12.45-8.87v-.22c0-2.3-1.18-3.77-3.29-3.77s-3.29,1.5-3.29,3.8v.25c0,2.3,1.22,3.77,3.26,3.77S187.51,29.51,187.51,27.15Z" fill="#fff"/><path d="M195.06,27.88v-.25c0-5.36,4-8.74,9-8.74,4.57,0,8.49,2.61,8.49,8.61V29H200.84c.16,2.2,1.44,3.48,3.48,3.48,1.88,0,2.68-.86,2.9-2h5.36c-.51,3.77-3.41,5.9-8.45,5.9C198.89,36.4,195.06,33.34,195.06,27.88Zm12-2.1c-.1-2-1.09-3.13-2.94-3.13s-2.9,1.12-3.19,3.13Z" fill="#fff"/><path d="M215.32,30.66V23.23h-2v-3.9h2V15.86H221v3.47h3.29v3.9H221v6.89a1.52,1.52,0,0,0,1.69,1.75,4.39,4.39,0,0,0,1.63-.28v4.33a11.61,11.61,0,0,1-3.16.48C217.43,36.4,215.32,34.58,215.32,30.66Z" fill="#fff"/><path d="M231.33,31.39c0-3.92,3.32-5.45,8.87-5.45h1.6v-.38c0-1.6-.38-2.65-2.2-2.65a2,2,0,0,0-2.27,2H232c.26-4,3.42-6,8-6s7.53,1.88,7.53,6.31V36h-5.55v-2a5.48,5.48,0,0,1-5,2.33C234,36.4,231.33,34.94,231.33,31.39Zm10.47-1.21v-1h-1.5c-2.3,0-3.32.45-3.32,1.82,0,1,.64,1.56,2,1.56C240.59,32.54,241.8,31.62,241.8,30.18Z" fill="#fff"/><path d="M22.2,47.11h8.94c6,0,9.28,2.42,9.28,7.24v.13a6,6,0,0,1-4.12,6l5.46,9.44H34.87l-4.63-8.17H28.71v8.17H22.2Zm8.62,10.4c2.2,0,3.28-.93,3.28-2.78v-.12C34.1,52.75,33,52,30.85,52H28.71v5.49Z" fill="#fff"/><path d="M41.76,61.78v-.25c0-5.36,4-8.74,9-8.74,4.56,0,8.48,2.61,8.48,8.61v1.5H47.53c.16,2.2,1.44,3.48,3.48,3.48,1.88,0,2.68-.86,2.9-2h5.36c-.51,3.77-3.41,5.9-8.45,5.9C45.58,70.3,41.76,67.24,41.76,61.78Zm12-2.1c-.1-2-1.08-3.13-2.93-3.13s-2.91,1.12-3.2,3.13Z" fill="#fff"/><path d="M62.11,57.13H60v-3.9h2.11V51.77c0-4.15,2.58-6.13,6.54-6.13a10.32,10.32,0,0,1,2.62.35v4.18A5.24,5.24,0,0,0,69.7,50a1.67,1.67,0,0,0-1.91,1.82v1.46h3.38v3.9H67.79V69.92H62.11Z" fill="#fff"/><path d="M73,64.11V53.23h5.71v10c0,1.88.74,2.81,2.37,2.81s2.84-1,2.84-3.16V53.23h5.71V69.92H83.87V67.34a5.5,5.5,0,0,1-5.3,3C75.35,70.3,73,68.33,73,64.11Z" fill="#fff"/><path d="M92.48,53.23h5.71v2.68a5.88,5.88,0,0,1,5.48-3.12c3.23,0,5.46,2,5.46,6.28V69.92h-5.71v-9.7c0-1.88-.73-2.81-2.39-2.81s-2.84,1-2.84,3.16v9.35H92.48Z" fill="#fff"/><path d="M111.07,61.75V61.5c0-5.68,3.13-8.71,7.09-8.71a5.39,5.39,0,0,1,5.13,2.8V45.9H129v24h-5.71V67.21a5.62,5.62,0,0,1-5.2,3.09C114.23,70.3,111.07,67.53,111.07,61.75Zm12.38-.09V61.4c0-2.81-1.18-4.31-3.28-4.31s-3.29,1.44-3.29,4.34v.26c0,2.81,1.24,4.24,3.22,4.24S123.45,64.5,123.45,61.66Z" fill="#fff"/><path d="M143.74,47.11h8.46l7.24,22.81h-6.93l-1.21-4.24h-7.56l-1.21,4.24h-6.1ZM145,61.18h5l-2.49-8.78Z" fill="#fff"/><path d="M159.82,61.75V61.5c0-5.68,3.12-8.71,7.08-8.71a5.41,5.41,0,0,1,5.14,2.8V45.9h5.71v24H172V67.21a5.62,5.62,0,0,1-5.2,3.09C163,70.3,159.82,67.53,159.82,61.75Zm12.38-.09V61.4c0-2.81-1.18-4.31-3.29-4.31s-3.29,1.44-3.29,4.34v.26c0,2.81,1.25,4.24,3.23,4.24S172.2,64.5,172.2,61.66Z" fill="#fff"/><path d="M179.21,53.23h6.1L188.78,64l3.42-10.76h5.45l-6.09,16.69h-6.22Z" fill="#fff"/><path d="M197.43,65.29c0-3.92,3.31-5.45,8.87-5.45h1.59v-.38c0-1.6-.38-2.65-2.2-2.65a2.05,2.05,0,0,0-2.27,2h-5.36c.26-4,3.42-6,8-6s7.53,1.88,7.53,6.31V69.92H208V68a5.48,5.48,0,0,1-5,2.33C200.07,70.3,197.43,68.84,197.43,65.29Zm10.46-1.21v-1h-1.5c-2.3,0-3.32.45-3.32,1.82,0,1,.64,1.56,2,1.56C206.68,66.44,207.89,65.52,207.89,64.08Z" fill="#fff"/><path d="M216.34,53.23h5.71v2.68a5.91,5.91,0,0,1,5.49-3.12c3.22,0,5.46,2,5.46,6.28V69.92h-5.71v-9.7c0-1.88-.74-2.81-2.4-2.81s-2.84,1-2.84,3.16v9.35h-5.71Z" fill="#fff"/><path d="M234.88,61.78v-.25c0-5.55,4-8.74,8.9-8.74,4.08,0,7.85,1.78,8.17,6.86h-5.36c-.26-1.57-1-2.43-2.68-2.43-2,0-3.2,1.44-3.2,4.25v.25c0,2.9,1.12,4.4,3.29,4.4a2.78,2.78,0,0,0,2.91-2.77H252c-.16,4.21-3,6.95-8.39,6.95C238.67,70.3,234.88,67.4,234.88,61.78Z" fill="#fff"/><path d="M253,61.78v-.25c0-5.36,4-8.74,9-8.74,4.57,0,8.49,2.61,8.49,8.61v1.5H258.77c.16,2.2,1.44,3.48,3.48,3.48,1.88,0,2.68-.86,2.9-2h5.36c-.51,3.77-3.41,5.9-8.45,5.9C256.82,70.3,253,67.24,253,61.78Zm12-2.1c-.1-2-1.08-3.13-2.94-3.13s-2.9,1.12-3.19,3.13Z" fill="#fff"/><path d="M21.85,79.79h5.68v24H21.85Z" fill="#fff"/><path d="M29.7,95.68v-.25c0-5.36,4-8.74,9.15-8.74S48,90,48,95.27v.25c0,5.43-4,8.68-9.13,8.68S29.7,101.08,29.7,95.68Zm12.44-.09v-.26c0-2.8-1.12-4.37-3.29-4.37s-3.31,1.5-3.31,4.31v.25c0,2.88,1.11,4.44,3.31,4.44S42.14,98.36,42.14,95.59Z" fill="#fff"/><path d="M49,99.19c0-3.92,3.31-5.45,8.87-5.45h1.59v-.39c0-1.59-.38-2.64-2.2-2.64a2,2,0,0,0-2.26,2H49.63c.26-4,3.42-6,8-6s7.53,1.88,7.53,6.31v10.82H59.59v-1.95a5.48,5.48,0,0,1-5,2.33C51.65,104.2,49,102.74,49,99.19ZM59.46,98V97H58c-2.29,0-3.32.45-3.32,1.82,0,1,.64,1.56,2,1.56C58.25,100.34,59.46,99.42,59.46,98Z" fill="#fff"/><path d="M67.91,87.13h5.71v2.68a5.91,5.91,0,0,1,5.49-3.12c3.22,0,5.46,2,5.46,6.28v10.85H78.86v-9.7c0-1.88-.74-2.81-2.4-2.81s-2.84,1-2.84,3.16v9.35H67.91Z" fill="#fff"/><path d="M93,98V87.13h5.71v10c0,1.88.73,2.81,2.36,2.81s2.84-1,2.84-3.16V87.13h5.71v16.69h-5.71v-2.58a5.48,5.48,0,0,1-5.3,3C95.41,104.2,93,102.23,93,98Z" fill="#fff"/><path d="M112.54,87.13h5.71v2.49a5.9,5.9,0,0,1,5.2-2.93c3.89,0,7,2.93,7,8.64v.26c0,5.74-3.16,8.61-7.08,8.61a5.51,5.51,0,0,1-5.17-2.84v8h-5.71Zm12.16,8.46v-.26c0-2.93-1.28-4.34-3.29-4.34s-3.32,1.5-3.32,4.31v.26c0,2.84,1.25,4.27,3.32,4.27S124.7,98.33,124.7,95.59Z" fill="#fff"/><path d="M139.14,98.46V91h-2v-3.9h2V83.66h5.72v3.47h3.28V91h-3.28v6.89c0,1.21.6,1.75,1.69,1.75a4.37,4.37,0,0,0,1.62-.28v4.33a11.53,11.53,0,0,1-3.15.48C141.25,104.2,139.14,102.38,139.14,98.46Z" fill="#fff"/><path d="M149.42,95.68v-.25c0-5.36,4-8.74,9.15-8.74s9.1,3.28,9.1,8.58v.25c0,5.43-4,8.68-9.13,8.68S149.42,101.08,149.42,95.68Zm12.44-.09v-.26c0-2.8-1.12-4.37-3.29-4.37s-3.32,1.5-3.32,4.31v.25c0,2.88,1.12,4.44,3.32,4.44S161.86,98.36,161.86,95.59Z" fill="#fff"/><path d="M179.14,93.38c-3.21-.22-4.78-1.93-4.91-4.39h3.44a1.77,1.77,0,0,0,1.47,1.75V88c-3.23-.47-4.61-1.64-4.61-4.23,0-2.25,1.77-3.86,4.61-4.07V78.08h1.45v1.67c2.7.22,4.3,1.47,4.52,4h-3.36a1.49,1.49,0,0,0-1.16-1.4v2.57c2.85.41,4.71,1.38,4.71,4.07,0,2.27-1.47,4.17-4.71,4.37v2.33h-1.45Zm0-8.66V82.33c-.83.15-1.26.6-1.26,1.2S178.14,84.51,179.14,84.72Zm1.45,3.55v2.47a1.34,1.34,0,0,0,1.25-1.32C181.84,88.81,181.58,88.49,180.59,88.27Z" fill="#fff"/><path d="M186.43,96.32h5.81c.19,1.89,1.09,3.16,3.35,3.16,2,0,3-1,3-2.58,0-1.79-1-2.68-3-2.68h-1.82V90.16h1.69c2,0,3-.92,3-2.52,0-1.37-.89-2.26-2.61-2.26s-2.78,1.05-3,2.9h-5.78c.29-4.5,3.29-7.59,9-7.59,5.36,0,8.58,2.46,8.58,6.25a4.89,4.89,0,0,1-3.86,4.92A5.13,5.13,0,0,1,205.19,97c0,4.34-3.22,7.18-9.25,7.18C189.59,104.2,186.62,101.27,186.43,96.32Z" fill="#fff"/><path d="M205.73,106.4,208.41,98l5.3,1.89-4.59,7.81Z" fill="#fff"/><path d="M214.76,96.64h5.94c.22,1.6.86,2.65,3,2.65,1.88,0,2.75-1.4,2.75-3.22,0-2-1.12-3.26-3.1-3.26a4.66,4.66,0,0,0-3.76,1.63h-3.9L216.13,81h15.38v4.78H220.86l-.13,5a6.09,6.09,0,0,1,5.33-2.42c4.18,0,6.92,2.81,6.92,7.75s-3.48,8-9.25,8C217.67,104.2,214.92,100.92,214.76,96.64Z" fill="#fff"/><path d="M234.57,92.91V92c0-7.21,4.5-11.26,10.53-11.26s10.53,3.73,10.53,11.13v.9c0,7.24-4.15,11.48-10.66,11.48S234.57,100.09,234.57,92.91Zm14.52-.07v-.92c0-4.18-1.21-6.29-4-6.29s-4,2.08-4,6.29v1c0,4.24,1.25,6.25,4,6.25S249.09,97.06,249.09,92.84Z" fill="#fff"/><path d="M257.44,92.91V92c0-7.21,4.5-11.26,10.53-11.26s10.53,3.73,10.53,11.13v.9c0,7.24-4.15,11.48-10.66,11.48S257.44,100.09,257.44,92.91ZM272,92.84v-.92c0-4.18-1.21-6.29-4-6.29s-4,2.08-4,6.29v1c0,4.24,1.25,6.25,4.06,6.25S272,97.06,272,92.84Z" fill="#fff"/><path d="M20.29,121h6l2.43,10,2.81-10h4.59l2.49,10,2.71-10h5.43l-5.3,16.69H36l-2.49-9.32-2.58,9.32H25.33Z" fill="#fff"/><path d="M48,116.5a3,3,0,0,1,3.13-3,3,3,0,1,1,0,5.9A3,3,0,0,1,48,116.5Zm.29,4.53H54v16.69H48.33Z" fill="#fff"/><path d="M57.87,132.36v-7.43h-2V121h2v-3.47h5.71V121h3.28v3.9H63.58v6.89c0,1.21.6,1.75,1.69,1.75a4.33,4.33,0,0,0,1.62-.28v4.33a11.53,11.53,0,0,1-3.15.48C60,138.1,57.87,136.28,57.87,132.36Z" fill="#fff"/><path d="M69,113.7h5.71v10a5.89,5.89,0,0,1,5.49-3.12c3.22,0,5.46,2,5.46,6.28v10.85H80V128c0-1.88-.73-2.81-2.39-2.81s-2.84,1-2.84,3.16v9.35H69Z" fill="#fff"/><path d="M88.33,116.5a3.15,3.15,0,1,1,3.13,2.94A3,3,0,0,1,88.33,116.5Zm.29,4.53h5.71v16.69H88.62Z" fill="#fff"/><path d="M97.39,121h5.71v2.68a5.89,5.89,0,0,1,5.49-3.12c3.22,0,5.45,2,5.45,6.28v10.85h-5.71V128c0-1.88-.73-2.81-2.39-2.81s-2.84,1-2.84,3.16v9.35H97.39Z" fill="#fff"/><path d="M122.62,121h5.71v2.56a5.83,5.83,0,0,1,5.23-3,4.55,4.55,0,0,1,4.54,2.77,6.61,6.61,0,0,1,5.52-2.77c3.15,0,5.45,2,5.45,6.22v10.91h-5.71v-10c0-1.7-.83-2.52-2.14-2.52-1.53,0-2.55,1-2.55,2.8v9.67H133v-10c0-1.7-.83-2.52-2.14-2.52-1.53,0-2.55,1-2.55,2.8v9.67h-5.71Z" fill="#fff"/><path d="M151.71,116.5a3.15,3.15,0,1,1,3.13,2.94A3,3,0,0,1,151.71,116.5ZM152,121h5.71v16.69H152Z" fill="#fff"/><path d="M160.77,121h5.71v2.68a5.91,5.91,0,0,1,5.49-3.12c3.23,0,5.46,2,5.46,6.28v10.85h-5.71V128c0-1.88-.74-2.81-2.4-2.81s-2.84,1-2.84,3.16v9.35h-5.71Z" fill="#fff"/><path d="M180.07,131.91V121h5.71v10c0,1.88.74,2.81,2.36,2.81s2.84-1,2.84-3.16V121h5.72v16.69H191v-2.58a5.48,5.48,0,0,1-5.29,3C182.47,138.1,180.07,136.12,180.07,131.91Z" fill="#fff"/><path d="M200.36,132.36v-7.43h-2V121h2v-3.47h5.71V121h3.29v3.9h-3.29v6.89a1.52,1.52,0,0,0,1.69,1.75,4.39,4.39,0,0,0,1.63-.28v4.33a11.61,11.61,0,0,1-3.16.48C202.47,138.1,200.36,136.28,200.36,132.36Z" fill="#fff"/><path d="M210.63,129.58v-.25c0-5.36,4-8.74,9-8.74,4.56,0,8.49,2.61,8.49,8.61v1.5H216.41c.16,2.2,1.43,3.48,3.47,3.48s2.68-.86,2.91-2h5.36c-.51,3.77-3.42,5.9-8.46,5.9C214.46,138.1,210.63,135,210.63,129.58Zm12-2.1c-.1-2-1.09-3.13-2.94-3.13s-2.9,1.12-3.19,3.13Z" fill="#fff"/><path d="M229.17,132.42h5.26c.19,1.22.73,1.89,2.36,1.89,1.4,0,2-.55,2-1.38s-.79-1.18-3.09-1.5c-4.47-.57-6.35-1.88-6.35-5.36,0-3.7,3.28-5.48,7.15-5.48,4.11,0,7,1.4,7.37,5.39h-5.17a1.87,1.87,0,0,0-2.14-1.66c-1.25,0-1.88.54-1.88,1.31s.76,1.12,2.8,1.37c4.63.57,6.86,1.79,6.86,5.36,0,4-2.93,5.74-7.56,5.74S229.29,136.12,229.17,132.42Z" fill="#fff"/><path d="M246,134.85a3.18,3.18,0,0,1,3.25-3.22,3.22,3.22,0,1,1,0,6.44A3.18,3.18,0,0,1,246,134.85Z" fill="#fff"/></g></g></g></svg>