<svg xmlns="http://www.w3.org/2000/svg" viewBox="0 0 300 600"><title>H18 T3</title><g id="Layer_2" data-name="Layer 2"><g id="Rect"><rect width="300" height="600" fill="none"/></g><g id="H18_T3" data-name="H18 T3"><g id="Easily_the_easiest_way_to_do_your_own_taxes." data-name="Easily the easiest way to do your own taxes."><path d="M22.18,97.11H49.6v8.77H33.5v6.83H46.32v8.1H33.5V128h17v8.77H22.18Z" fill="#fff"/><path d="M53.6,128.75c0-6.82,5.77-9.49,15.43-9.49h2.78v-.67c0-2.77-.67-4.6-3.83-4.6a3.57,3.57,0,0,0-4,3.44H54.71c.44-7,5.94-10.44,13.88-10.44s13.1,3.28,13.1,11V136.8H72v-3.38c-1.39,2.11-3.94,4.05-8.61,4.05C58.21,137.47,53.6,134.92,53.6,128.75Zm18.21-2.11v-1.77H69.2c-4,0-5.78.77-5.78,3.16,0,1.67,1.11,2.72,3.44,2.72C69.7,130.75,71.81,129.14,71.81,126.64Z" fill="#fff"/><path d="M85.41,127.59h9.16c.33,2.11,1.27,3.27,4.1,3.27,2.45,0,3.56-.94,3.56-2.38s-1.39-2.06-5.39-2.61c-7.77-1-11-3.28-11-9.33,0-6.44,5.71-9.55,12.43-9.55,7.16,0,12.16,2.45,12.82,9.38h-9c-.39-1.94-1.44-2.88-3.72-2.88s-3.27.94-3.27,2.27,1.33,1.95,4.88,2.39c8,1,11.94,3.11,11.94,9.33,0,6.88-5.11,10-13.16,10C90.46,137.47,85.63,134,85.41,127.59Z" fill="#fff"/><path d="M115.72,99.89a5.48,5.48,0,1,1,5.44,5.1A5.19,5.19,0,0,1,115.72,99.89Zm.5,7.88h9.93v29h-9.93Z" fill="#fff"/><path d="M132.59,95h9.89v41.8h-9.89Z" fill="#fff"/><path d="M157.74,133.86l-11.6-26.09h10.77l6,15.49,5.56-15.49H178L162.4,146.52h-9.49Z" fill="#fff"/><path d="M193.6,127.48V114.54h-3.49v-6.77h3.49v-6h9.94v6h5.72v6.77h-5.72v12c0,2.11,1.05,3.06,2.94,3.06a7.63,7.63,0,0,0,2.83-.5v7.55a20.91,20.91,0,0,1-5.49.83C197.27,137.47,193.6,134.3,193.6,127.48Z" fill="#fff"/><path d="M213.87,95h9.93v17.43a10.27,10.27,0,0,1,9.55-5.44c5.61,0,9.49,3.5,9.49,10.94V136.8h-9.93V119.93c0-3.28-1.28-4.89-4.17-4.89s-4.94,1.78-4.94,5.5V136.8h-9.93Z" fill="#fff"/><path d="M247,122.65v-.45c0-9.32,6.94-15.21,15.71-15.21,7.94,0,14.77,4.55,14.77,15v2.61H257c.28,3.83,2.5,6,6.05,6,3.28,0,4.66-1.5,5.05-3.44h9.33c-.89,6.55-5.94,10.27-14.71,10.27C253.61,137.47,247,132.14,247,122.65ZM267.77,119c-.17-3.49-1.89-5.44-5.11-5.44-3,0-5.05,1.95-5.55,5.44Z" fill="#fff"/><path d="M19.73,180.65v-.45c0-9.32,6.94-15.21,15.71-15.21,7.94,0,14.77,4.55,14.77,15v2.61H29.78c.28,3.83,2.5,6,6,6,3.28,0,4.66-1.5,5.05-3.44h9.33c-.89,6.55-5.94,10.27-14.71,10.27C26.4,195.47,19.73,190.14,19.73,180.65ZM40.55,177c-.17-3.49-1.89-5.44-5.11-5.44-3,0-5,2-5.55,5.44Z" fill="#fff"/><path d="M53.1,186.75c0-6.82,5.77-9.49,15.43-9.49H71.3v-.67c0-2.77-.66-4.6-3.83-4.6a3.56,3.56,0,0,0-3.94,3.44H54.21c.44-7,5.94-10.44,13.87-10.44s13.11,3.28,13.11,11V194.8H71.53v-3.38c-1.39,2.11-4,4.05-8.61,4.05C57.7,195.47,53.1,192.92,53.1,186.75Zm18.2-2.11v-1.77H68.7c-4,0-5.78.77-5.78,3.16,0,1.67,1.11,2.72,3.44,2.72C69.19,188.75,71.3,187.14,71.3,184.64Z" fill="#fff"/><path d="M84.91,185.59h9.16c.33,2.11,1.27,3.27,4.1,3.27,2.45,0,3.56-.94,3.56-2.38s-1.39-2.06-5.39-2.61c-7.77-1-11-3.28-11-9.33,0-6.44,5.72-9.55,12.44-9.55,7.16,0,12.16,2.45,12.82,9.38h-9c-.39-1.94-1.44-2.88-3.72-2.88s-3.28.94-3.28,2.27,1.34,2,4.89,2.39c8,1,11.93,3.11,11.93,9.33,0,6.88-5.1,10-13.15,10C90,195.47,85.13,192,84.91,185.59Z" fill="#fff"/><path d="M115.22,157.89a5.48,5.48,0,1,1,5.44,5.1A5.19,5.19,0,0,1,115.22,157.89Zm.5,7.88h9.93v29h-9.93Z" fill="#fff"/><path d="M130.26,180.65v-.45c0-9.32,6.94-15.21,15.71-15.21,7.94,0,14.77,4.55,14.77,15v2.61H140.31c.28,3.83,2.5,6,6.05,6,3.28,0,4.66-1.5,5-3.44h9.33c-.89,6.55-5.94,10.27-14.71,10.27C136.92,195.47,130.26,190.14,130.26,180.65ZM151.08,177c-.17-3.49-1.89-5.44-5.11-5.44-3,0-5.05,2-5.55,5.44Z" fill="#fff"/><path d="M163.35,185.59h9.16c.33,2.11,1.27,3.27,4.11,3.27,2.44,0,3.55-.94,3.55-2.38s-1.39-2.06-5.39-2.61c-7.77-1-11-3.28-11-9.33,0-6.44,5.71-9.55,12.43-9.55,7.16,0,12.16,2.45,12.82,9.38h-9c-.39-1.94-1.44-2.88-3.72-2.88s-3.27.94-3.27,2.27,1.33,2,4.88,2.39c8.05,1,11.94,3.11,11.94,9.33,0,6.88-5.11,10-13.16,10C168.4,195.47,163.57,192,163.35,185.59Z" fill="#fff"/><path d="M195.21,185.48V172.54h-3.49v-6.77h3.49v-6.05h9.94v6.05h5.72v6.77h-5.72v12c0,2.11,1,3.06,2.94,3.06a7.63,7.63,0,0,0,2.83-.5v7.55a20.91,20.91,0,0,1-5.49.83C198.88,195.47,195.21,192.3,195.21,185.48Z" fill="#fff"/><path d="M18.85,223.77H29.23l4.21,17.38,4.89-17.38h8l4.33,17.38,4.72-17.38h9.44l-9.22,29H46.1l-4.33-16.21-4.5,16.21H27.62Z" fill="#fff"/><path d="M65.42,244.75c0-6.82,5.77-9.49,15.43-9.49h2.78v-.67c0-2.77-.67-4.6-3.83-4.6a3.56,3.56,0,0,0-3.94,3.44H66.53c.45-7,5.94-10.44,13.88-10.44s13.1,3.28,13.1,11V252.8H83.85v-3.38c-1.39,2.11-3.94,4.05-8.6,4.05C70,253.47,65.42,250.92,65.42,244.75Zm18.21-2.11v-1.77H81c-4,0-5.77.77-5.77,3.16,0,1.67,1.11,2.72,3.44,2.72C81.52,246.75,83.63,245.14,83.63,242.64Z" fill="#fff"/><path d="M107.28,249.86l-11.6-26.09h10.77l6,15.49L118,223.77h9.5l-15.55,38.75h-9.49Z" fill="#fff"/><path d="M143.14,243.48V230.54h-3.5v-6.77h3.5v-6.05h9.94v6.05h5.72v6.77h-5.72v12c0,2.11,1,3.06,2.94,3.06a7.63,7.63,0,0,0,2.83-.5v7.55a21,21,0,0,1-5.49.83C146.81,253.47,143.14,250.3,143.14,243.48Z" fill="#fff"/><path d="M161.85,238.65v-.45c0-9.32,6.94-15.21,15.93-15.21s15.82,5.72,15.82,14.94v.44c0,9.44-6.94,15.1-15.87,15.1S161.85,248,161.85,238.65Zm21.65-.17V238c0-4.89-1.94-7.61-5.72-7.61S172,233,172,237.93v.44c0,5,1.94,7.72,5.77,7.72S183.5,243.31,183.5,238.48Z" fill="#fff"/><path d="M207.43,238.59v-.44c0-9.88,5.44-15.16,12.32-15.16,4.55,0,7.27,1.95,8.94,4.89V211h9.93v41.8h-9.93v-4.72a9.8,9.8,0,0,1-9.05,5.39C212.92,253.47,207.43,248.64,207.43,238.59Zm21.53-.17V238c0-4.88-2.05-7.49-5.71-7.49s-5.72,2.49-5.72,7.55v.44c0,4.89,2.16,7.38,5.61,7.38C226.74,245.86,229,243.37,229,238.42Z" fill="#fff"/><path d="M243,238.65v-.45c0-9.32,6.94-15.21,15.93-15.21s15.82,5.72,15.82,14.94v.44c0,9.44-6.94,15.1-15.88,15.1S243,248,243,238.65Zm21.65-.17V238c0-4.89-1.95-7.61-5.72-7.61s-5.77,2.61-5.77,7.5v.44c0,5,1.94,7.72,5.77,7.72S264.61,243.31,264.61,238.48Z" fill="#fff"/><path d="M30.39,307.86l-11.6-26.09H29.56l6,15.49,5.56-15.49H50.6L35.05,320.52H25.56Z" fill="#fff"/><path d="M50.88,296.65v-.45c0-9.32,6.94-15.21,15.93-15.21s15.82,5.72,15.82,14.94v.44c0,9.44-6.94,15.1-15.88,15.1S50.88,306,50.88,296.65Zm21.65-.17V296c0-4.89-2-7.61-5.72-7.61S61,291,61,295.93v.44c0,5,1.94,7.72,5.77,7.72S72.53,301.31,72.53,296.48Z" fill="#fff"/><path d="M86.74,300.7V281.77h9.94v17.32c0,3.28,1.27,4.88,4.1,4.88,3,0,4.94-1.77,4.94-5.49V281.77h9.94v29h-9.94v-4.49c-1.55,3-4.38,5.16-9.21,5.16C90.9,311.47,86.74,308,86.74,300.7Z" fill="#fff"/><path d="M121.55,281.77h9.93v5.77c1.83-4.33,4.89-6.21,9.38-6.16v9.27c-6.05-.16-9.38,1.72-9.38,6.39V310.8h-9.93Z" fill="#fff"/><path d="M154.69,296.65v-.45c0-9.32,6.94-15.21,15.93-15.21s15.82,5.72,15.82,14.94v.44c0,9.44-6.94,15.1-15.88,15.1S154.69,306,154.69,296.65Zm21.65-.17V296c0-4.89-2-7.61-5.72-7.61s-5.77,2.61-5.77,7.5v.44c0,5,1.94,7.72,5.77,7.72S176.34,301.31,176.34,296.48Z" fill="#fff"/><path d="M187.39,281.77h10.38L202,299.15l4.88-17.38h8l4.33,17.38,4.72-17.38h9.44l-9.22,29h-9.49l-4.33-16.21-4.49,16.21h-9.66Z" fill="#fff"/><path d="M236.74,281.77h9.93v4.66a10.27,10.27,0,0,1,9.55-5.44c5.61,0,9.49,3.5,9.49,10.94V310.8h-9.93V293.93c0-3.28-1.28-4.89-4.16-4.89s-5,1.78-5,5.5V310.8h-9.93Z" fill="#fff"/><path d="M22.62,359.48V346.54h-3.5v-6.77h3.5v-6h9.94v6h5.71v6.77H32.56v12c0,2.11,1,3.06,2.94,3.06a7.63,7.63,0,0,0,2.83-.5v7.55a21,21,0,0,1-5.5.83C26.28,369.47,22.62,366.3,22.62,359.48Z" fill="#fff"/><path d="M41.33,360.75c0-6.82,5.77-9.49,15.43-9.49h2.78v-.67c0-2.77-.67-4.6-3.83-4.6a3.58,3.58,0,0,0-4,3.44H42.44c.44-7,5.94-10.44,13.88-10.44s13.1,3.28,13.1,11V368.8H59.76v-3.38c-1.39,2.11-3.94,4.05-8.61,4.05C45.94,369.47,41.33,366.92,41.33,360.75Zm18.21-2.11v-1.77H56.93c-4,0-5.78.77-5.78,3.16,0,1.67,1.11,2.72,3.45,2.72C57.43,362.75,59.54,361.14,59.54,358.64Z" fill="#fff"/><path d="M82.41,354l-9-14.27H84.79l4.5,7.66,4.39-7.66h10.21l-9.16,13.49,10,15.54H93.34l-5.16-8.66-5.27,8.66H72.75Z" fill="#fff"/><path d="M104.34,354.65v-.45c0-9.32,6.94-15.21,15.71-15.21,7.93,0,14.76,4.55,14.76,15v2.61H114.38c.28,3.83,2.5,6.05,6.06,6.05,3.27,0,4.66-1.5,5-3.44h9.32c-.89,6.55-5.94,10.27-14.71,10.27C111,369.47,104.34,364.14,104.34,354.65ZM125.15,351c-.16-3.49-1.88-5.44-5.1-5.44-3,0-5.06,1.95-5.55,5.44Z" fill="#fff"/><path d="M137.42,359.59h9.16c.33,2.11,1.28,3.27,4.11,3.27,2.44,0,3.55-.94,3.55-2.38s-1.39-2.06-5.38-2.61c-7.77-1-11.05-3.28-11.05-9.33,0-6.44,5.72-9.55,12.44-9.55,7.16,0,12.15,2.45,12.82,9.39h-9c-.39-1.95-1.45-2.89-3.72-2.89s-3.28.94-3.28,2.27,1.33,1.95,4.89,2.39c8.05,1,11.93,3.11,11.93,9.33,0,6.88-5.11,10-13.15,10C142.47,369.47,137.64,366,137.42,359.59Z" fill="#fff"/><path d="M167.57,363.81a5.53,5.53,0,0,1,5.66-5.61,5.61,5.61,0,1,1,0,11.21A5.52,5.52,0,0,1,167.57,363.81Z" fill="#fff"/></g></g></g></svg>