<svg xmlns="http://www.w3.org/2000/svg" viewBox="0 0 728 90"><title>Asset 2</title><g id="Layer_2" data-name="Layer 2"><g id="Rect"><rect width="728" height="90" fill="none"/></g><g id="Drop_off_work_with_a_pro_remotely_or_file_online._We_re_stil" data-name="Drop off, work with a pro remotely,  or file online. We’re stil"><path d="M114.16,19.57h6.89c6.73,0,10.14,3.36,10.14,9.24V29c0,5.9-3.49,9.48-10.17,9.48h-6.86Zm6.7,14.75c3.23,0,4.67-1.69,4.67-5.21v-.22c0-3.6-1.44-5.14-4.72-5.14h-1.19V34.32Z" fill="#fff"/><path d="M133,24.66h4.74v2.75a4.35,4.35,0,0,1,4.47-2.94v4.42c-2.88-.08-4.47.82-4.47,3.05v6.57H133Z" fill="#fff"/><path d="M143.1,31.75v-.21c0-4.45,3.31-7.26,7.6-7.26s7.55,2.73,7.55,7.13v.21c0,4.51-3.31,7.21-7.58,7.21S143.1,36.23,143.1,31.75Zm10.33-.08v-.21c0-2.33-.93-3.63-2.73-3.63s-2.76,1.25-2.76,3.58v.21c0,2.39.93,3.68,2.76,3.68S153.43,34,153.43,31.67Z" fill="#fff"/><path d="M159.92,24.66h4.74v2.06A4.91,4.91,0,0,1,169,24.28c3.23,0,5.85,2.44,5.85,7.18v.21c0,4.77-2.62,7.16-5.88,7.16a4.57,4.57,0,0,1-4.29-2.36v6.68h-4.74Zm10.09,7v-.21c0-2.43-1.06-3.6-2.73-3.6s-2.75,1.25-2.75,3.58v.21c0,2.36,1,3.55,2.75,3.55S170,34,170,31.67Z" fill="#fff"/><path d="M180.64,31.75v-.21c0-4.45,3.31-7.26,7.6-7.26s7.55,2.73,7.55,7.13v.21c0,4.51-3.31,7.21-7.57,7.21S180.64,36.23,180.64,31.75ZM191,31.67v-.21c0-2.33-.93-3.63-2.73-3.63s-2.75,1.25-2.75,3.58v.21c0,2.39.92,3.68,2.75,3.68S191,34,191,31.67Z" fill="#fff"/><path d="M198.18,27.89h-1.75V24.66h1.75V23.6c0-3.45,2.12-5.06,5.4-5.06a7.91,7.91,0,0,1,2.12.26v3.47a4.34,4.34,0,0,0-1.27-.18,1.39,1.39,0,0,0-1.54,1.51v1.06h4V23.44c0-3.45,2.17-5.09,5.43-5.09a8.32,8.32,0,0,1,2.17.29v3.47a4.55,4.55,0,0,0-1.29-.18,1.39,1.39,0,0,0-1.57,1.51v1.22h2.81v3.23h-2.81V38.51h-4.74V27.89h-4V38.51h-4.71Z" fill="#fff"/><path d="M213.47,40.65l2.22-7,4.4,1.56-3.81,6.49Z" fill="#fff"/><path d="M225.81,24.66h5l2,8.29,2.33-8.29h3.82L241,33l2.25-8.29h4.51l-4.4,13.85h-4.53l-2.07-7.74-2.14,7.74H230Z" fill="#fff"/><path d="M247.62,31.75v-.21c0-4.45,3.31-7.26,7.6-7.26s7.55,2.73,7.55,7.13v.21c0,4.51-3.31,7.21-7.57,7.21S247.62,36.23,247.62,31.75ZM258,31.67v-.21c0-2.33-.93-3.63-2.73-3.63s-2.75,1.25-2.75,3.58v.21c0,2.39.93,3.68,2.75,3.68S258,34,258,31.67Z" fill="#fff"/><path d="M264.45,24.66h4.74v2.75a4.35,4.35,0,0,1,4.47-2.94v4.42c-2.88-.08-4.47.82-4.47,3.05v6.57h-4.74Z" fill="#fff"/><path d="M275.39,18.56h4.74V30.14l3.73-5.48h4.93l-4.53,6.22,4.9,7.63h-5.3l-3.73-6.07v6.07h-4.74Z" fill="#fff"/><path d="M293.93,24.66h5l2,8.29,2.33-8.29h3.82L309.11,33l2.25-8.29h4.51l-4.4,13.85h-4.53l-2.06-7.74-2.15,7.74h-4.61Z" fill="#fff"/><path d="M317,20.89a2.47,2.47,0,0,1,2.59-2.46,2.46,2.46,0,1,1,0,4.9A2.45,2.45,0,0,1,317,20.89Zm.23,3.77H322V38.51h-4.75Z" fill="#fff"/><path d="M325.15,34.06V27.89h-1.67V24.66h1.67V21.77h4.74v2.89h2.73v3.23h-2.73v5.72c0,1,.5,1.46,1.4,1.46a3.57,3.57,0,0,0,1.35-.24v3.6a9.89,9.89,0,0,1-2.62.4C326.89,38.83,325.15,37.32,325.15,34.06Z" fill="#fff"/><path d="M334.42,18.56h4.74v8.32a4.89,4.89,0,0,1,4.56-2.6c2.67,0,4.53,1.67,4.53,5.22v9h-4.74v-8c0-1.57-.61-2.33-2-2.33s-2.36.84-2.36,2.62v7.76h-4.74Z" fill="#fff"/><path d="M354.58,34.67c0-3.26,2.76-4.53,7.37-4.53h1.32v-.32c0-1.32-.32-2.2-1.83-2.2a1.71,1.71,0,0,0-1.88,1.64h-4.45c.21-3.33,2.84-5,6.62-5S368,25.85,368,29.53v9h-4.61V36.89a4.56,4.56,0,0,1-4.11,1.94C356.78,38.83,354.58,37.61,354.58,34.67Zm8.69-1v-.85H362c-1.91,0-2.76.38-2.76,1.51,0,.8.53,1.3,1.64,1.3A2.09,2.09,0,0,0,363.27,33.66Z" fill="#fff"/><path d="M375.12,24.66h4.74v2.06a4.88,4.88,0,0,1,4.31-2.44c3.24,0,5.86,2.44,5.86,7.18v.21c0,4.77-2.62,7.16-5.88,7.16a4.57,4.57,0,0,1-4.29-2.36v6.68h-4.74Zm10.09,7v-.21c0-2.43-1.06-3.6-2.73-3.6s-2.76,1.25-2.76,3.58v.21c0,2.36,1,3.55,2.76,3.55S385.21,34,385.21,31.67Z" fill="#fff"/><path d="M391.76,24.66h4.74v2.75A4.35,4.35,0,0,1,401,24.47v4.42c-2.88-.08-4.47.82-4.47,3.05v6.57h-4.74Z" fill="#fff"/><path d="M401.82,31.75v-.21c0-4.45,3.32-7.26,7.61-7.26S417,27,417,31.41v.21c0,4.51-3.31,7.21-7.58,7.21S401.82,36.23,401.82,31.75Zm10.34-.08v-.21c0-2.33-.93-3.63-2.73-3.63s-2.76,1.25-2.76,3.58v.21c0,2.39.93,3.68,2.76,3.68S412.16,34,412.16,31.67Z" fill="#fff"/><path d="M423.47,24.66h4.74v2.75a4.36,4.36,0,0,1,4.48-2.94v4.42c-2.89-.08-4.48.82-4.48,3.05v6.57h-4.74Z" fill="#fff"/><path d="M433.54,31.75v-.21c0-4.45,3.31-7.26,7.5-7.26,3.78,0,7,2.18,7,7.16v1.24h-9.75a2.78,2.78,0,0,0,2.89,2.89c1.56,0,2.23-.72,2.41-1.64h4.45c-.42,3.12-2.83,4.9-7,4.9S433.54,36.28,433.54,31.75ZM443.47,30c-.08-1.67-.9-2.6-2.43-2.6a2.64,2.64,0,0,0-2.65,2.6Z" fill="#fff"/><path d="M449.73,24.66h4.74v2.11a4.85,4.85,0,0,1,4.34-2.49,3.79,3.79,0,0,1,3.77,2.31,5.48,5.48,0,0,1,4.58-2.31c2.62,0,4.53,1.7,4.53,5.17v9.06H467V30.24c0-1.4-.69-2.09-1.78-2.09a2.05,2.05,0,0,0-2.12,2.33v8h-4.69V30.24c0-1.4-.69-2.09-1.77-2.09a2.05,2.05,0,0,0-2.12,2.33v8h-4.74Z" fill="#fff"/><path d="M473.26,31.75v-.21c0-4.45,3.31-7.26,7.6-7.26s7.55,2.73,7.55,7.13v.21c0,4.51-3.31,7.21-7.58,7.21S473.26,36.23,473.26,31.75Zm10.33-.08v-.21c0-2.33-.93-3.63-2.73-3.63s-2.76,1.25-2.76,3.58v.21c0,2.39.93,3.68,2.76,3.68S483.59,34,483.59,31.67Z" fill="#fff"/><path d="M490.72,34.06V27.89h-1.67V24.66h1.67V21.77h4.74v2.89h2.73v3.23h-2.73v5.72c0,1,.5,1.46,1.4,1.46a3.57,3.57,0,0,0,1.35-.24v3.6a9.89,9.89,0,0,1-2.62.4C492.47,38.83,490.72,37.32,490.72,34.06Z" fill="#fff"/><path d="M499.25,31.75v-.21c0-4.45,3.31-7.26,7.5-7.26,3.78,0,7,2.18,7,7.16v1.24H504a2.78,2.78,0,0,0,2.89,2.89c1.56,0,2.23-.72,2.41-1.64h4.45c-.42,3.12-2.83,4.9-7,4.9S499.25,36.28,499.25,31.75ZM509.18,30c-.08-1.67-.9-2.6-2.43-2.6A2.64,2.64,0,0,0,504.1,30Z" fill="#fff"/><path d="M515.57,18.56h4.72v20h-4.72Z" fill="#fff"/><path d="M527.17,37.11l-5.53-12.45h5.14l2.86,7.39,2.65-7.39h4.53L529.4,43.15h-4.53Z" fill="#fff"/><path d="M535,40.65l2.22-7,4.4,1.56-3.81,6.49Z" fill="#fff"/><path d="M113,60.81V60.6c0-4.45,3.31-7.26,7.6-7.26s7.55,2.73,7.55,7.12v.22c0,4.5-3.31,7.2-7.58,7.2S113,65.29,113,60.81Zm10.33-.08v-.21c0-2.33-.93-3.63-2.73-3.63s-2.76,1.24-2.76,3.57v.22c0,2.38.93,3.68,2.76,3.68S123.33,63,123.33,60.73Z" fill="#fff"/><path d="M129.82,53.71h4.74v2.75A4.39,4.39,0,0,1,139,53.52V58c-2.89-.08-4.48.82-4.48,3v6.57h-4.74Z" fill="#fff"/><path d="M146.3,56.94h-1.75V53.71h1.75V52.49c0-3.44,2.15-5.08,5.43-5.08a8.38,8.38,0,0,1,2.17.29v3.47a4.21,4.21,0,0,0-1.3-.19A1.39,1.39,0,0,0,151,52.49v1.22h2.8v3.23H151V67.56H146.3Z" fill="#fff"/><path d="M155.31,50a2.47,2.47,0,0,1,2.59-2.47A2.5,2.5,0,0,1,160.53,50a2.48,2.48,0,0,1-2.63,2.43A2.45,2.45,0,0,1,155.31,50Zm.24,3.76h4.74V67.56h-4.74Z" fill="#fff"/><path d="M163,47.62h4.71V67.56H163Z" fill="#fff"/><path d="M169.48,60.81V60.6c0-4.45,3.31-7.26,7.5-7.26,3.79,0,7.05,2.17,7.05,7.15v1.25h-9.75a2.76,2.76,0,0,0,2.89,2.88c1.56,0,2.22-.71,2.41-1.64H184c-.43,3.13-2.84,4.9-7,4.9C172.66,67.88,169.48,65.34,169.48,60.81Zm9.94-1.75c-.08-1.67-.9-2.6-2.44-2.6a2.64,2.64,0,0,0-2.65,2.6Z" fill="#fff"/><path d="M189.75,60.81V60.6c0-4.45,3.31-7.26,7.6-7.26s7.55,2.73,7.55,7.12v.22c0,4.5-3.31,7.2-7.57,7.2S189.75,65.29,189.75,60.81Zm10.33-.08v-.21c0-2.33-.92-3.63-2.73-3.63s-2.75,1.24-2.75,3.57v.22c0,2.38.93,3.68,2.75,3.68S200.08,63,200.08,60.73Z" fill="#fff"/><path d="M206.58,53.71h4.74v2.22a4.89,4.89,0,0,1,4.56-2.59c2.67,0,4.52,1.67,4.52,5.22v9h-4.74V59.51c0-1.56-.61-2.33-2-2.33s-2.36.85-2.36,2.62v7.76h-4.74Z" fill="#fff"/><path d="M222.85,47.62h4.71V67.56h-4.71Z" fill="#fff"/><path d="M230,50a2.62,2.62,0,1,1,2.6,2.43A2.45,2.45,0,0,1,230,50Zm.24,3.76H235V67.56h-4.74Z" fill="#fff"/><path d="M237.52,53.71h4.75v2.22a4.88,4.88,0,0,1,4.55-2.59c2.68,0,4.53,1.67,4.53,5.22v9h-4.74V59.51c0-1.56-.61-2.33-2-2.33s-2.35.85-2.35,2.62v7.76h-4.75Z" fill="#fff"/><path d="M252.92,60.81V60.6c0-4.45,3.31-7.26,7.5-7.26,3.78,0,7,2.17,7,7.15v1.25h-9.75a2.77,2.77,0,0,0,2.89,2.88c1.56,0,2.23-.71,2.41-1.64h4.45c-.42,3.13-2.83,4.9-7,4.9S252.92,65.34,252.92,60.81Zm9.93-1.75c-.08-1.67-.9-2.6-2.43-2.6a2.63,2.63,0,0,0-2.65,2.6Z" fill="#fff"/><path d="M268.79,65.18a2.65,2.65,0,0,1,2.7-2.68,2.68,2.68,0,1,1,0,5.35A2.64,2.64,0,0,1,268.79,65.18Z" fill="#fff"/><path d="M280.29,48.62h5.48l2.44,11.82,2.54-11.82h4.82l2.76,11.92,2.57-11.92h5l-4.42,18.94h-5.67l-2.92-12-2.94,12h-5.29Z" fill="#fff"/><path d="M305.33,60.81V60.6c0-4.45,3.31-7.26,7.49-7.26,3.79,0,7.05,2.17,7.05,7.15v1.25h-9.75A2.76,2.76,0,0,0,313,64.62c1.56,0,2.22-.71,2.41-1.64h4.45c-.42,3.13-2.83,4.9-7,4.9C308.51,67.88,305.33,65.34,305.33,60.81Zm9.93-1.75c-.08-1.67-.9-2.6-2.44-2.6a2.64,2.64,0,0,0-2.65,2.6Z" fill="#fff"/><path d="M320.35,55.19l2.12-6.91,4.18,1.4L323,56.23Z" fill="#fff"/><path d="M326.81,53.71h4.75v2.75A4.37,4.37,0,0,1,336,53.52V58c-2.88-.08-4.47.82-4.47,3v6.57h-4.75Z" fill="#fff"/><path d="M336.88,60.81V60.6c0-4.45,3.31-7.26,7.5-7.26,3.79,0,7.05,2.17,7.05,7.15v1.25h-9.75a2.76,2.76,0,0,0,2.89,2.88c1.56,0,2.22-.71,2.41-1.64h4.45c-.43,3.13-2.84,4.9-7,4.9C340.06,67.88,336.88,65.34,336.88,60.81Zm9.94-1.75c-.08-1.67-.9-2.6-2.44-2.6a2.64,2.64,0,0,0-2.65,2.6Z" fill="#fff"/><path d="M357,63.17h4.37c.16,1,.61,1.56,2,1.56,1.16,0,1.69-.45,1.69-1.14s-.66-1-2.57-1.25c-3.7-.47-5.27-1.56-5.27-4.45,0-3.07,2.73-4.55,5.94-4.55,3.41,0,5.8,1.16,6.12,4.48h-4.3a1.54,1.54,0,0,0-1.77-1.38c-1,0-1.56.45-1.56,1.08s.63.93,2.33,1.14c3.84.48,5.69,1.49,5.69,4.45,0,3.29-2.43,4.77-6.27,4.77S357.07,66.24,357,63.17Z" fill="#fff"/><path d="M371.78,63.11V56.94h-1.67V53.71h1.67V50.82h4.74v2.89h2.73v3.23h-2.73v5.72c0,1,.5,1.46,1.4,1.46a3.66,3.66,0,0,0,1.36-.24v3.6a9.91,9.91,0,0,1-2.63.4C373.53,67.88,371.78,66.37,371.78,63.11Z" fill="#fff"/><path d="M381,50a2.47,2.47,0,0,1,2.59-2.47A2.5,2.5,0,0,1,386.17,50a2.48,2.48,0,0,1-2.63,2.43A2.45,2.45,0,0,1,381,50Zm.23,3.76h4.75V67.56h-4.75Z" fill="#fff"/><path d="M388.6,47.62h4.72V67.56H388.6Z" fill="#fff"/><path d="M396,47.62h4.71V67.56H396Z" fill="#fff"/><path d="M408.08,47.62h4.74v8.31a4.89,4.89,0,0,1,4.56-2.59c2.67,0,4.53,1.67,4.53,5.22v9h-4.75V59.51c0-1.56-.6-2.33-2-2.33s-2.36.85-2.36,2.62v7.76h-4.74Z" fill="#fff"/><path d="M423.47,60.81V60.6c0-4.45,3.31-7.26,7.5-7.26,3.79,0,7,2.17,7,7.15v1.25h-9.75a2.76,2.76,0,0,0,2.88,2.88c1.57,0,2.23-.71,2.42-1.64H438c-.43,3.13-2.84,4.9-7,4.9C426.65,67.88,423.47,65.34,423.47,60.81Zm9.94-1.75c-.08-1.67-.9-2.6-2.44-2.6a2.64,2.64,0,0,0-2.65,2.6Z" fill="#fff"/><path d="M439.66,53.71h4.74v2.75a4.39,4.39,0,0,1,4.48-2.94V58c-2.89-.08-4.48.82-4.48,3v6.57h-4.74Z" fill="#fff"/><path d="M449.73,60.81V60.6c0-4.45,3.31-7.26,7.5-7.26,3.78,0,7,2.17,7,7.15v1.25h-9.74a2.76,2.76,0,0,0,2.88,2.88c1.57,0,2.23-.71,2.41-1.64h4.45c-.42,3.13-2.83,4.9-7,4.9S449.73,65.34,449.73,60.81Zm9.93-1.75c-.08-1.67-.9-2.6-2.43-2.6a2.64,2.64,0,0,0-2.65,2.6Z" fill="#fff"/><path d="M471.38,63.11V56.94h-1.67V53.71h1.67V50.82h4.74v2.89h2.73v3.23h-2.73v5.72c0,1,.5,1.46,1.4,1.46a3.57,3.57,0,0,0,1.35-.24v3.6a9.89,9.89,0,0,1-2.62.4C473.13,67.88,471.38,66.37,471.38,63.11Z" fill="#fff"/><path d="M479.91,60.81V60.6c0-4.45,3.31-7.26,7.6-7.26s7.55,2.73,7.55,7.12v.22c0,4.5-3.31,7.2-7.57,7.2S479.91,65.29,479.91,60.81Zm10.33-.08v-.21c0-2.33-.93-3.63-2.73-3.63s-2.75,1.24-2.75,3.57v.22c0,2.38.92,3.68,2.75,3.68S490.24,63,490.24,60.73Z" fill="#fff"/><path d="M501.56,47.62h4.74v8.31a4.88,4.88,0,0,1,4.55-2.59c2.68,0,4.53,1.67,4.53,5.22v9h-4.74V59.51c0-1.56-.61-2.33-2-2.33s-2.36.85-2.36,2.62v7.76h-4.74Z" fill="#fff"/><path d="M517,60.81V60.6c0-4.45,3.31-7.26,7.5-7.26,3.78,0,7,2.17,7,7.15v1.25h-9.74a2.76,2.76,0,0,0,2.88,2.88c1.57,0,2.23-.71,2.41-1.64h4.45c-.42,3.13-2.83,4.9-7,4.9C520.13,67.88,517,65.34,517,60.81Zm9.93-1.75c-.08-1.67-.9-2.6-2.43-2.6a2.64,2.64,0,0,0-2.65,2.6Z" fill="#fff"/><path d="M533.27,47.62H538V67.56h-4.72Z" fill="#fff"/><path d="M540.53,53.71h4.74v2.07a4.89,4.89,0,0,1,4.32-2.44c3.23,0,5.86,2.44,5.86,7.18v.21c0,4.77-2.63,7.15-5.89,7.15a4.57,4.57,0,0,1-4.29-2.36V72.2h-4.74Zm10.09,7v-.21c0-2.44-1.06-3.6-2.72-3.6s-2.76,1.24-2.76,3.57v.21c0,2.36,1,3.55,2.76,3.55S550.62,63,550.62,60.73Z" fill="#fff"/><path d="M556.64,65.18a2.65,2.65,0,0,1,2.7-2.68,2.68,2.68,0,1,1,0,5.35A2.64,2.64,0,0,1,556.64,65.18Z" fill="#fff"/></g></g></svg>