<svg xmlns="http://www.w3.org/2000/svg" viewBox="0 0 120 32"><title>Find_an_office_sml</title><g id="Layer_2" data-name="Layer 2"><g id="Rectangle_1" data-name="Rectangle 1" style="isolation:isolate"><g id="Rectangle_1-2" data-name="Rectangle 1"><rect width="120" height="32" fill="none"/></g></g><g id="Find_a_tax_pro_copy" data-name="Find a tax pro copy"><path d="M16.81,11.27h6.43v1.78H19.08V15.7h3.29v1.71H19.08v3.88H16.81Z" fill="#262626"/><path d="M24.12,11.86A1.16,1.16,0,1,1,25.27,13,1.11,1.11,0,0,1,24.12,11.86Zm.15,2.1h2v7.33h-2Z" fill="#262626"/><path d="M27.94,14h2v1.16a2.55,2.55,0,0,1,2.38-1.33c1.45,0,2.47.87,2.47,2.83v4.67h-2V16.92c0-1-.39-1.47-1.29-1.47A1.45,1.45,0,0,0,30,17.06v4.23h-2Z" fill="#262626"/><path d="M35.91,17.73v-.11c0-2.41,1.38-3.83,3.22-3.83a2.45,2.45,0,0,1,2.31,1.26V10.64h2V21.29h-2V20.07a2.68,2.68,0,0,1-2.35,1.37C37.31,21.44,35.91,20.17,35.91,17.73Zm5.59-.07v-.11c0-1.46-.65-2.2-1.76-2.2S38,16.12,38,17.58v.11c0,1.45.7,2.17,1.71,2.17S41.5,19.14,41.5,17.66Z" fill="#262626"/><path d="M47.47,19.26c0-1.71,1.57-2.36,3.81-2.36h.83v-.29c0-.87-.27-1.35-1.19-1.35a1.11,1.11,0,0,0-1.25,1H47.75c.13-1.74,1.5-2.51,3.29-2.51s3.07.73,3.07,2.72v4.78h-2v-.88a2.5,2.5,0,0,1-2.21,1C48.59,21.44,47.47,20.8,47.47,19.26Zm4.64-.54v-.61h-.79c-1.17,0-1.86.25-1.86,1,0,.54.32.89,1.06.89C51.42,20,52.11,19.54,52.11,18.72Z" fill="#262626"/><path d="M55.63,14h2v1.16A2.56,2.56,0,0,1,60,13.79c1.45,0,2.47.87,2.47,2.83v4.67h-2V16.92c0-1-.39-1.47-1.29-1.47a1.45,1.45,0,0,0-1.53,1.61v4.23h-2Z" fill="#262626"/><path d="M66.48,17.7v-.11a3.68,3.68,0,0,1,3.87-3.8,3.64,3.64,0,0,1,3.85,3.76v.11a3.86,3.86,0,0,1-7.72,0Zm5.66,0v-.09c0-1.4-.66-2.25-1.79-2.25s-1.8.82-1.8,2.22v.11c0,1.4.65,2.24,1.8,2.24S72.14,19.06,72.14,17.67Z" fill="#262626"/><path d="M75.68,15.4h-1V14h1v-.75a2.34,2.34,0,0,1,2.61-2.57,3.14,3.14,0,0,1,1,.16v1.51a2.39,2.39,0,0,0-.73-.11c-.63,0-.89.39-.89,1V14h2.39v-.84a2.34,2.34,0,0,1,2.62-2.56,3.26,3.26,0,0,1,1.05.14v1.52A2.48,2.48,0,0,0,83,12.1a.85.85,0,0,0-.91,1V14h1.6V15.4h-1.6v5.89h-2V15.4H77.7v5.89h-2Z" fill="#262626"/><path d="M84.64,11.86A1.16,1.16,0,1,1,85.79,13,1.11,1.11,0,0,1,84.64,11.86Zm.15,2.1h2v7.33h-2Z" fill="#262626"/><path d="M88,17.72V17.6a3.65,3.65,0,0,1,3.79-3.81c1.69,0,3.26.75,3.44,2.85H93.32a1.35,1.35,0,0,0-1.48-1.25c-1,0-1.75.79-1.75,2.19v.11c0,1.47.66,2.22,1.79,2.22a1.48,1.48,0,0,0,1.57-1.41h1.83c-.11,1.74-1.37,2.94-3.5,2.94A3.52,3.52,0,0,1,88,17.72Z" fill="#262626"/><path d="M95.9,17.72V17.6a3.63,3.63,0,0,1,3.76-3.81,3.39,3.39,0,0,1,3.58,3.73v.56H98A1.75,1.75,0,0,0,99.78,20c.93,0,1.4-.41,1.52-1h1.92c-.24,1.58-1.5,2.46-3.5,2.46A3.55,3.55,0,0,1,95.9,17.72Zm5.36-.89c-.07-1.1-.63-1.64-1.6-1.64A1.69,1.69,0,0,0,98,16.83Z" fill="#262626"/></g></g></svg>