<svg xmlns="http://www.w3.org/2000/svg" viewBox="0 0 300 250"><title>h6</title><g id="Layer_2" data-name="Layer 2"><g id="rect"><rect width="300" height="250" fill="none"/></g><g id="Still_open._Still_finding_credits_and_deductions_daily." data-name="Still open. Still  finding credits and deductions daily."><path d="M21.65,58.42h5.51c.15,1.44.8,2.63,3.2,2.63,1.67,0,2.6-.82,2.6-2s-.76-1.58-3.19-1.95c-5.72-.68-7.64-2.38-7.64-6.45,0-3.65,3-6.3,7.83-6.3s7.61,2,8,6.3H32.56A2.29,2.29,0,0,0,30,48.46c-1.55,0-2.34.71-2.34,1.73s.62,1.64,3.13,2c5.12.56,7.75,1.89,7.75,6.27,0,3.71-2.94,6.73-8.14,6.73C24.7,65.17,21.82,62.8,21.65,58.42Z" fill="#fff"/><path d="M41,60.08V53.5H39.26V50.05H41V47H46.1v3.08H49V53.5H46.1v6.1c0,1.08.54,1.56,1.5,1.56A3.81,3.81,0,0,0,49,60.9v3.85a10.6,10.6,0,0,1-2.79.42C42.91,65.17,41,63.56,41,60.08Z" fill="#fff"/><path d="M50.82,46a2.79,2.79,0,1,1,2.77,2.6A2.64,2.64,0,0,1,50.82,46Zm.26,4h5.06V64.83H51.08Z" fill="#fff"/><path d="M59,43.54h5V64.83H59Z" fill="#fff"/><path d="M66.88,43.54h5V64.83h-5Z" fill="#fff"/><path d="M79,57.63V57.4c0-4.75,3.53-7.75,8.11-7.75s8.06,2.91,8.06,7.61v.22c0,4.81-3.53,7.69-8.08,7.69S79,62.4,79,57.63Zm11-.09v-.23c0-2.48-1-3.87-2.92-3.87s-2.94,1.33-2.94,3.82v.22c0,2.55,1,3.93,2.94,3.93S90,60,90,57.54Z" fill="#fff"/><path d="M96.93,50.05H102v2.2a5.23,5.23,0,0,1,4.61-2.6c3.45,0,6.25,2.6,6.25,7.66v.23c0,5.09-2.8,7.63-6.28,7.63A4.88,4.88,0,0,1,102,62.66v7.12H96.93Zm10.77,7.49v-.23c0-2.6-1.13-3.84-2.91-3.84s-2.94,1.33-2.94,3.82v.22c0,2.52,1.1,3.79,2.94,3.79S107.7,60,107.7,57.54Z" fill="#fff"/><path d="M113.89,57.63V57.4c0-4.75,3.54-7.75,8-7.75,4,0,7.52,2.32,7.52,7.64v1.32H119a3,3,0,0,0,3.08,3.09c1.67,0,2.38-.77,2.57-1.76h4.75c-.45,3.34-3,5.23-7.49,5.23C117.28,65.17,113.89,62.46,113.89,57.63Zm10.61-1.87c-.09-1.78-1-2.77-2.61-2.77s-2.57,1-2.82,2.77Z" fill="#fff"/><path d="M131.16,50.05h5.07v2.37a5.22,5.22,0,0,1,4.86-2.77c2.85,0,4.83,1.78,4.83,5.57v9.61h-5.06V56.24c0-1.67-.65-2.49-2.12-2.49s-2.51.91-2.51,2.8v8.28h-5.07Z" fill="#fff"/><path d="M148.18,62.29a2.83,2.83,0,0,1,2.89-2.86,2.86,2.86,0,1,1,0,5.72A2.83,2.83,0,0,1,148.18,62.29Z" fill="#fff"/><path d="M160.7,58.42h5.52c.14,1.44.79,2.63,3.19,2.63,1.67,0,2.6-.82,2.6-2s-.76-1.58-3.19-1.95c-5.71-.68-7.64-2.38-7.64-6.45,0-3.65,3-6.3,7.84-6.3s7.6,2,8,6.3h-5.37a2.3,2.3,0,0,0-2.6-2.18c-1.56,0-2.35.71-2.35,1.73s.62,1.64,3.14,2c5.12.56,7.75,1.89,7.75,6.27,0,3.71-2.94,6.73-8.15,6.73C163.76,65.17,160.87,62.8,160.7,58.42Z" fill="#fff"/><path d="M180.1,60.08V53.5h-1.78V50.05h1.78V47h5.06v3.08h2.91V53.5h-2.91v6.1c0,1.08.54,1.56,1.5,1.56a3.85,3.85,0,0,0,1.44-.26v3.85a10.62,10.62,0,0,1-2.8.42C182,65.17,180.1,63.56,180.1,60.08Z" fill="#fff"/><path d="M189.88,46a2.79,2.79,0,1,1,2.77,2.6A2.64,2.64,0,0,1,189.88,46Zm.25,4h5.06V64.83h-5.06Z" fill="#fff"/><path d="M198.05,43.54h5V64.83h-5Z" fill="#fff"/><path d="M205.93,43.54h5V64.83h-5Z" fill="#fff"/><path d="M23.26,86H21.4V82.55h1.86v-1.3c0-3.68,2.29-5.43,5.8-5.43a9,9,0,0,1,2.32.31v3.71a4.45,4.45,0,0,0-1.39-.2,1.49,1.49,0,0,0-1.7,1.61v1.3h3V86h-3V97.34h-5Z" fill="#fff"/><path d="M32.87,78.54a2.79,2.79,0,1,1,2.77,2.6A2.64,2.64,0,0,1,32.87,78.54Zm.26,4h5.06V97.34H33.13Z" fill="#fff"/><path d="M40.9,82.55H46v2.38a5.23,5.23,0,0,1,4.87-2.78c2.85,0,4.83,1.79,4.83,5.58v9.61H50.6v-8.6c0-1.67-.65-2.49-2.12-2.49S46,87.16,46,89.05v8.29H40.9Z" fill="#fff"/><path d="M57.38,90.1v-.23c0-5,2.77-7.72,6.28-7.72a4.79,4.79,0,0,1,4.55,2.49V76.05h5.06V97.34H68.21v-2.4a5,5,0,0,1-4.61,2.74C60.18,97.68,57.38,95.22,57.38,90.1Zm11-.08v-.23c0-2.49-1-3.82-2.91-3.82s-2.91,1.27-2.91,3.85V90c0,2.49,1.1,3.76,2.85,3.76S68.35,92.53,68.35,90Z" fill="#fff"/><path d="M75.73,78.54a2.79,2.79,0,1,1,2.77,2.6A2.64,2.64,0,0,1,75.73,78.54Zm.25,4H81V97.34H76Z" fill="#fff"/><path d="M83.76,82.55h5.06v2.38a5.21,5.21,0,0,1,4.86-2.78c2.86,0,4.84,1.79,4.84,5.58v9.61H93.46v-8.6c0-1.67-.65-2.49-2.13-2.49s-2.51.91-2.51,2.8v8.29H83.76Z" fill="#fff"/><path d="M100.15,97.34h5c.22,1.07.87,1.92,2.71,1.92A2.8,2.8,0,0,0,111,96.15V93.89a5.2,5.2,0,0,1-4.58,2.71c-3.45,0-6.28-2.54-6.28-7.09v-.23c0-4.35,2.8-7.13,6.28-7.13A4.82,4.82,0,0,1,111,84.64V82.55h5.06V96.09c0,4.41-2.91,6.73-8.2,6.73C102.87,102.82,100.55,100.7,100.15,97.34Zm11-7.86v-.2c0-2-1.05-3.34-2.91-3.34s-2.91,1.33-2.91,3.37v.22c0,2,1.07,3.34,2.88,3.34S111.18,91.57,111.18,89.48Z" fill="#fff"/><path d="M123,90.13V89.9c0-4.92,3.54-7.75,7.89-7.75,3.62,0,7,1.59,7.24,6.08H133.4A2.2,2.2,0,0,0,131,86.08c-1.78,0-2.82,1.28-2.82,3.77v.22c0,2.58,1,3.9,2.91,3.9a2.46,2.46,0,0,0,2.57-2.46h4.55c-.14,3.74-2.65,6.17-7.43,6.17C126.39,97.68,123,95.1,123,90.13Z" fill="#fff"/><path d="M139.87,82.55h5.06v2.94a4.67,4.67,0,0,1,4.78-3.14v4.72c-3.08-.08-4.78.88-4.78,3.26v7h-5.06Z" fill="#fff"/><path d="M150.61,90.13V89.9c0-4.75,3.54-7.75,8-7.75,4,0,7.52,2.32,7.52,7.64v1.33H155.73a3,3,0,0,0,3.08,3.08c1.67,0,2.38-.76,2.58-1.75h4.75c-.46,3.33-3,5.23-7.5,5.23C154,97.68,150.61,95,150.61,90.13Zm10.61-1.87c-.09-1.78-1-2.77-2.6-2.77s-2.58,1-2.83,2.77Z" fill="#fff"/><path d="M167.15,90.1v-.23c0-5,2.77-7.72,6.28-7.72A4.79,4.79,0,0,1,178,84.64V76.05H183V97.34H178v-2.4a5,5,0,0,1-4.61,2.74C170,97.68,167.15,95.22,167.15,90.1Zm11-.08v-.23c0-2.49-1-3.82-2.91-3.82s-2.91,1.27-2.91,3.85V90c0,2.49,1.1,3.76,2.85,3.76S178.12,92.53,178.12,90Z" fill="#fff"/><path d="M185.5,78.54a2.79,2.79,0,1,1,2.77,2.6A2.64,2.64,0,0,1,185.5,78.54Zm.25,4h5.06V97.34h-5.06Z" fill="#fff"/><path d="M194.21,92.59V86h-1.79V82.55h1.79V79.47h5.06v3.08h2.91V86h-2.91v6.11a1.35,1.35,0,0,0,1.5,1.55,3.89,3.89,0,0,0,1.44-.25v3.84a10.56,10.56,0,0,1-2.8.43C196.07,97.68,194.21,96.07,194.21,92.59Z" fill="#fff"/><path d="M203.31,92.65H208c.17,1.07.65,1.66,2.09,1.66,1.25,0,1.81-.48,1.81-1.21s-.7-1-2.74-1.33c-4-.51-5.63-1.67-5.63-4.75,0-3.28,2.92-4.87,6.34-4.87,3.65,0,6.19,1.25,6.53,4.78h-4.58a1.66,1.66,0,0,0-1.9-1.47c-1.1,0-1.66.48-1.66,1.16s.68,1,2.48,1.22c4.1.51,6.08,1.58,6.08,4.75,0,3.5-2.6,5.09-6.7,5.09S203.42,95.92,203.31,92.65Z" fill="#fff"/><path d="M222.73,93.24c0-3.48,2.94-4.84,7.86-4.84H232v-.34c0-1.41-.34-2.34-1.95-2.34a1.83,1.83,0,0,0-2,1.75h-4.75c.23-3.56,3-5.32,7.07-5.32s6.67,1.67,6.67,5.6v9.59h-4.92V95.61a4.83,4.83,0,0,1-4.38,2.07C225.07,97.68,222.73,96.38,222.73,93.24ZM232,92.16v-.9h-1.33c-2,0-2.94.4-2.94,1.61,0,.85.57,1.39,1.76,1.39A2.23,2.23,0,0,0,232,92.16Z" fill="#fff"/><path d="M239.49,82.55h5.06v2.38a5.21,5.21,0,0,1,4.86-2.78c2.86,0,4.84,1.79,4.84,5.58v9.61h-5.06v-8.6c0-1.67-.65-2.49-2.12-2.49s-2.52.91-2.52,2.8v8.29h-5.06Z" fill="#fff"/><path d="M256,90.1v-.23c0-5,2.77-7.72,6.28-7.72a4.79,4.79,0,0,1,4.55,2.49V76.05h5.06V97.34H266.8v-2.4a5,5,0,0,1-4.61,2.74C258.77,97.68,256,95.22,256,90.1Zm11-.08v-.23c0-2.49-1.05-3.82-2.91-3.82s-2.91,1.27-2.91,3.85V90c0,2.49,1.1,3.76,2.85,3.76S266.94,92.53,266.94,90Z" fill="#fff"/><path d="M21.76,122.6v-.22c0-5,2.77-7.72,6.28-7.72a4.79,4.79,0,0,1,4.55,2.49v-8.6h5.06v21.29H32.59v-2.4A5,5,0,0,1,28,130.18C24.56,130.18,21.76,127.72,21.76,122.6Zm11-.08v-.23c0-2.49-1-3.81-2.91-3.81s-2.91,1.27-2.91,3.84v.23c0,2.49,1.1,3.76,2.86,3.76S32.73,125,32.73,122.52Z" fill="#fff"/><path d="M39.43,122.63v-.22c0-4.75,3.54-7.75,8-7.75,4,0,7.52,2.32,7.52,7.63v1.33H44.55a3,3,0,0,0,3.08,3.08c1.67,0,2.38-.76,2.57-1.75H55c-.45,3.34-3,5.23-7.49,5.23C42.82,130.18,39.43,127.47,39.43,122.63ZM50,120.77C50,119,49.07,118,47.43,118s-2.57,1-2.82,2.78Z" fill="#fff"/><path d="M56,122.6v-.22c0-5,2.77-7.72,6.28-7.72a4.8,4.8,0,0,1,4.55,2.49v-8.6h5.06v21.29H66.8v-2.4a5,5,0,0,1-4.61,2.74C58.77,130.18,56,127.72,56,122.6Zm11-.08v-.23c0-2.49-1-3.81-2.91-3.81s-2.92,1.27-2.92,3.84v.23c0,2.49,1.11,3.76,2.86,3.76S66.94,125,66.94,122.52Z" fill="#fff"/><path d="M74.32,124.7v-9.65h5.06v8.83c0,1.66.65,2.48,2.09,2.48s2.52-.9,2.52-2.8v-8.51h5.06v14.79H84v-2.29a4.87,4.87,0,0,1-4.7,2.63C76.44,130.18,74.32,128.43,74.32,124.7Z" fill="#fff"/><path d="M90.82,122.63v-.22c0-4.92,3.54-7.75,7.89-7.75,3.62,0,7,1.58,7.24,6.08H101.2a2.18,2.18,0,0,0-2.37-2.15c-1.79,0-2.83,1.27-2.83,3.76v.23c0,2.57,1,3.9,2.91,3.9a2.46,2.46,0,0,0,2.57-2.46H106c-.14,3.73-2.66,6.16-7.44,6.16C94.19,130.18,90.82,127.61,90.82,122.63Z" fill="#fff"/><path d="M108.35,125.09V118.5h-1.78v-3.45h1.78V112h5.06v3.08h2.92v3.45h-2.92v6.11c0,1.08.54,1.56,1.5,1.56a3.81,3.81,0,0,0,1.44-.26v3.85a10.62,10.62,0,0,1-2.8.42C110.22,130.18,108.35,128.57,108.35,125.09Z" fill="#fff"/><path d="M118.13,111a2.79,2.79,0,1,1,2.77,2.6A2.64,2.64,0,0,1,118.13,111Zm.26,4h5.06v14.79h-5.06Z" fill="#fff"/><path d="M125.37,122.63v-.22c0-4.75,3.53-7.75,8.11-7.75s8.06,2.91,8.06,7.6v.23c0,4.81-3.53,7.69-8.08,7.69S125.37,127.41,125.37,122.63Zm11-.08v-.23c0-2.49-1-3.87-2.92-3.87s-2.94,1.33-2.94,3.81v.23c0,2.55,1,3.93,2.94,3.93S136.4,125,136.4,122.55Z" fill="#fff"/><path d="M143.32,115.05h5.06v2.38a5.22,5.22,0,0,1,4.87-2.77c2.85,0,4.83,1.78,4.83,5.57v9.61H153v-8.59c0-1.67-.65-2.49-2.12-2.49s-2.52.9-2.52,2.8v8.28h-5.06Z" fill="#fff"/><path d="M159.55,125.15h4.66c.17,1.07.65,1.67,2.09,1.67,1.25,0,1.81-.48,1.81-1.22s-.7-1-2.74-1.33c-4-.51-5.62-1.67-5.62-4.75,0-3.28,2.91-4.86,6.33-4.86,3.65,0,6.19,1.24,6.53,4.78H168a1.66,1.66,0,0,0-1.9-1.47c-1.1,0-1.66.48-1.66,1.16s.68,1,2.49,1.21c4.09.51,6.07,1.58,6.07,4.75,0,3.51-2.6,5.09-6.7,5.09S159.66,128.43,159.55,125.15Z" fill="#fff"/><path d="M179.08,122.6v-.22c0-5,2.77-7.72,6.28-7.72a4.79,4.79,0,0,1,4.55,2.49v-8.6H195v21.29h-5.06v-2.4a5,5,0,0,1-4.61,2.74C181.88,130.18,179.08,127.72,179.08,122.6Zm11-.08v-.23c0-2.49-1.05-3.81-2.91-3.81s-2.91,1.27-2.91,3.84v.23c0,2.49,1.1,3.76,2.85,3.76S190.05,125,190.05,122.52Z" fill="#fff"/><path d="M196.69,125.74c0-3.48,2.94-4.83,7.86-4.83H206v-.34c0-1.42-.34-2.35-2-2.35a1.81,1.81,0,0,0-2,1.75h-4.75c.22-3.56,3-5.31,7.07-5.31s6.67,1.67,6.67,5.6v9.58h-4.92v-1.72a4.87,4.87,0,0,1-4.38,2.06C199,130.18,196.69,128.88,196.69,125.74Zm9.28-1.07v-.91h-1.33c-2,0-2.94.4-2.94,1.61,0,.85.56,1.39,1.75,1.39C204.89,126.76,206,125.94,206,124.67Z" fill="#fff"/><path d="M213.34,111a2.79,2.79,0,1,1,2.77,2.6A2.64,2.64,0,0,1,213.34,111Zm.26,4h5.06v14.79H213.6Z" fill="#fff"/><path d="M221.51,108.55h5v21.29h-5Z" fill="#fff"/><path d="M233.89,128.34,228,115.05h5.48l3.05,7.89,2.83-7.89h4.84l-7.92,19.74h-4.84Z" fill="#fff"/><path d="M243.11,127.3a2.82,2.82,0,0,1,2.88-2.86,2.86,2.86,0,1,1,0,5.71A2.82,2.82,0,0,1,243.11,127.3Z" fill="#fff"/></g></g></svg>