<svg xmlns="http://www.w3.org/2000/svg" viewBox="0 0 480 320"><title>txt</title><g id="Layer_2" data-name="Layer 2"><g id="Easily_do_your_taxes_from_anywhere." data-name="Easily do your taxes from anywhere."><g id="Easily_do_your_taxes_from_anywhere.-2" data-name="Easily do your taxes from anywhere."><path d="M29.56,63.56h22.5v7.19H38.85v5.61H49.37V83H38.85v5.92H52.79v7.2H29.56Z" fill="#fff"/><path d="M54.66,89.53c0-5.61,4.73-7.8,12.66-7.8H69.6v-.54c0-2.28-.55-3.78-3.15-3.78a2.92,2.92,0,0,0-3.23,2.82H55.57c.36-5.74,4.87-8.56,11.38-8.56s10.75,2.68,10.75,9V96.13H69.78V93.35c-1.14,1.73-3.24,3.33-7.06,3.33C58.44,96.68,54.66,94.58,54.66,89.53ZM69.6,87.79V86.34H67.46c-3.28,0-4.74.63-4.74,2.59,0,1.37.91,2.24,2.82,2.24C67.87,91.17,69.6,89.84,69.6,87.79Z" fill="#fff"/><path d="M80.07,88.57h7.52c.27,1.73,1,2.69,3.37,2.69,2,0,2.91-.78,2.91-2s-1.14-1.69-4.42-2.14c-6.37-.82-9.06-2.69-9.06-7.66,0-5.28,4.69-7.83,10.2-7.83,5.88,0,10,2,10.52,7.7H93.74c-.32-1.6-1.19-2.37-3.06-2.37S88,77.77,88,78.86s1.09,1.6,4,2c6.6.82,9.79,2.56,9.79,7.66,0,5.65-4.19,8.2-10.8,8.2C84.22,96.68,80.25,93.85,80.07,88.57Z" fill="#fff"/><path d="M104.26,65.83a4.25,4.25,0,0,1,4.46-4.23,4.22,4.22,0,1,1,0,8.42A4.21,4.21,0,0,1,104.26,65.83Zm.41,6.47h8.15V96.13h-8.15Z" fill="#fff"/><path d="M117.42,61.82h8.11V96.13h-8.11Z" fill="#fff"/><path d="M137.37,93.72,127.85,72.3h8.84L141.61,85l4.55-12.72H154L141.2,104.11h-7.79Z" fill="#fff"/><path d="M163.15,84.47V84.1c0-8.11,4.47-12.43,10.11-12.43,3.74,0,6,1.59,7.34,4V61.82h8.15V96.13H180.6V92.26a8,8,0,0,1-7.43,4.42C167.66,96.68,163.15,92.72,163.15,84.47Zm17.67-.14V84c0-4-1.68-6.15-4.69-6.15s-4.69,2.05-4.69,6.19v.37c0,4,1.78,6.06,4.6,6.06S180.82,88.39,180.82,84.33Z" fill="#fff"/><path d="M191.62,84.51v-.36c0-7.66,5.69-12.48,13.07-12.48s13,4.69,13,12.25v.37c0,7.74-5.69,12.39-13,12.39S191.62,92.21,191.62,84.51Zm17.76-.13V84c0-4-1.59-6.24-4.69-6.24S200,79.91,200,83.92v.37c0,4.1,1.59,6.33,4.73,6.33S209.38,88.34,209.38,84.38Z" fill="#fff"/><path d="M236.3,93.72,226.78,72.3h8.84L240.54,85l4.55-12.72h7.79l-12.75,31.81h-7.79Z" fill="#fff"/><path d="M252.43,84.51v-.36c0-7.66,5.69-12.48,13.07-12.48s13,4.69,13,12.25v.37c0,7.74-5.69,12.39-13,12.39S252.43,92.21,252.43,84.51Zm17.76-.13V84c0-4-1.6-6.24-4.69-6.24s-4.74,2.14-4.74,6.15v.37c0,4.1,1.6,6.33,4.74,6.33S270.19,88.34,270.19,84.38Z" fill="#fff"/><path d="M281.17,87.84V72.3h8.15V86.52c0,2.69,1.05,4,3.37,4s4.05-1.46,4.05-4.51V72.3h8.16V96.13h-8.16V92.44c-1.27,2.46-3.59,4.24-7.56,4.24C284.58,96.68,281.17,93.85,281.17,87.84Z" fill="#fff"/><path d="M309,72.3h8.16V77A7.51,7.51,0,0,1,324.89,72v7.61c-5-.13-7.69,1.42-7.69,5.24v11.3H309Z" fill="#fff"/><path d="M337.24,88.48V77.86h-2.87V72.3h2.87v-5h8.15v5h4.69v5.56h-4.69V87.7c0,1.73.86,2.51,2.41,2.51a6.32,6.32,0,0,0,2.33-.41V96a17.31,17.31,0,0,1-4.51.68C340.24,96.68,337.24,94.08,337.24,88.48Z" fill="#fff"/><path d="M351.9,89.53c0-5.61,4.74-7.8,12.66-7.8h2.28v-.54c0-2.28-.55-3.78-3.14-3.78a2.94,2.94,0,0,0-3.24,2.82h-7.65c.37-5.74,4.88-8.56,11.39-8.56s10.75,2.68,10.75,9V96.13H367V93.35c-1.14,1.73-3.23,3.33-7.06,3.33C355.68,96.68,351.9,94.58,351.9,89.53Zm14.94-1.74V86.34H364.7c-3.28,0-4.74.63-4.74,2.59,0,1.37.91,2.24,2.83,2.24C365.11,91.17,366.84,89.84,366.84,87.79Z" fill="#fff"/><path d="M384.92,84,377.5,72.3h9.38l3.69,6.29,3.6-6.29h8.38L395,83.38l8.25,12.75H393.9L389.66,89l-4.33,7.11H377Z" fill="#fff"/><path d="M402.23,84.51v-.36c0-7.66,5.69-12.48,12.89-12.48,6.51,0,12.12,3.73,12.12,12.3v2.14H410.48c.22,3.14,2,5,5,5,2.69,0,3.83-1.23,4.14-2.82h7.66c-.73,5.38-4.88,8.43-12.07,8.43C407.7,96.68,402.23,92.31,402.23,84.51Zm17.08-3c-.14-2.87-1.55-4.47-4.19-4.47-2.46,0-4.14,1.6-4.55,4.47Z" fill="#fff"/><path d="M428.69,88.57h7.52c.27,1.73,1.05,2.69,3.37,2.69,2,0,2.92-.78,2.92-2s-1.14-1.69-4.42-2.14c-6.38-.82-9.07-2.69-9.07-7.66,0-5.28,4.69-7.83,10.21-7.83,5.87,0,10,2,10.52,7.7h-7.38c-.32-1.6-1.19-2.37-3.05-2.37s-2.69.77-2.69,1.86,1.09,1.6,4,2c6.6.82,9.79,2.56,9.79,7.66,0,5.65-4.19,8.2-10.8,8.2C432.84,96.68,428.88,93.85,428.69,88.57Z" fill="#fff"/><path d="M30.06,129.09h-3v-5.56h3v-2.1c0-5.92,3.69-8.75,9.34-8.75a14.64,14.64,0,0,1,3.73.5v6a7.54,7.54,0,0,0-2.23-.32,2.39,2.39,0,0,0-2.73,2.6v2.1H43v5.56H38.17v18.27H30.06Z" fill="#fff"/><path d="M45.73,123.53h8.15v4.74a7.5,7.5,0,0,1,7.7-5.06v7.61c-5-.14-7.7,1.41-7.7,5.24v11.3H45.73Z" fill="#fff"/><path d="M63,135.74v-.37c0-7.65,5.69-12.48,13.07-12.48s13,4.69,13,12.26v.36c0,7.75-5.69,12.39-13,12.39S63,143.44,63,135.74Zm17.76-.14v-.36c0-4-1.59-6.25-4.69-6.25s-4.74,2.15-4.74,6.16v.36c0,4.1,1.6,6.33,4.74,6.33S80.8,139.56,80.8,135.6Z" fill="#fff"/><path d="M92,123.53h8.15v3.64a8.33,8.33,0,0,1,7.47-4.28c3.15,0,5.33,1.37,6.47,4a9.43,9.43,0,0,1,7.88-4c4.51,0,7.79,2.91,7.79,8.88v15.59h-8.15V133.14c0-2.41-1.19-3.6-3.06-3.6-2.18,0-3.64,1.41-3.64,4v13.81h-8.06V133.14c0-2.41-1.19-3.6-3-3.6-2.19,0-3.65,1.41-3.65,4v13.81H92Z" fill="#fff"/><path d="M140.61,140.75c0-5.6,4.73-7.79,12.66-7.79h2.28v-.55c0-2.28-.55-3.78-3.15-3.78a2.92,2.92,0,0,0-3.23,2.82h-7.65c.36-5.74,4.87-8.56,11.38-8.56s10.75,2.69,10.75,9v15.45h-7.92v-2.78c-1.14,1.73-3.24,3.32-7.06,3.32C144.39,147.9,140.61,145.81,140.61,140.75ZM155.55,139v-1.46H153.4c-3.28,0-4.73.64-4.73,2.6,0,1.36.91,2.23,2.82,2.23C153.81,142.39,155.55,141.07,155.55,139Z" fill="#fff"/><path d="M167.62,123.53h8.15v3.82a8.4,8.4,0,0,1,7.83-4.46c4.6,0,7.79,2.87,7.79,9v15.5h-8.15V133.5c0-2.68-1.05-4-3.42-4s-4,1.45-4,4.51v13.35h-8.15Z" fill="#fff"/><path d="M202,144.94l-9.52-21.41h8.84l4.92,12.71,4.55-12.71h7.79l-12.75,31.8H198Z" fill="#fff"/><path d="M219.13,123.53h8.52l3.46,14.26,4-14.26h6.56l3.55,14.26,3.87-14.26h7.74l-7.56,23.83h-7.79l-3.55-13.31-3.69,13.31h-7.92Z" fill="#fff"/><path d="M258.94,113.05h8.15v14.3a8.41,8.41,0,0,1,7.84-4.46c4.6,0,7.78,2.87,7.78,9v15.5h-8.15V133.5c0-2.68-1.05-4-3.41-4s-4.06,1.45-4.06,4.51v13.35h-8.15Z" fill="#fff"/><path d="M285.4,135.74v-.37c0-7.65,5.7-12.48,12.89-12.48,6.52,0,12.12,3.73,12.12,12.3v2.14H293.65c.22,3.15,2.05,5,5,5,2.69,0,3.83-1.23,4.15-2.83h7.65c-.73,5.38-4.88,8.43-12.07,8.43C290.87,147.9,285.4,143.53,285.4,135.74Zm17.08-3c-.13-2.87-1.55-4.46-4.19-4.46-2.46,0-4.14,1.59-4.55,4.46Z" fill="#fff"/><path d="M313.23,123.53h8.15v4.74a7.5,7.5,0,0,1,7.7-5.06v7.61c-5-.14-7.7,1.41-7.7,5.24v11.3h-8.15Z" fill="#fff"/><path d="M330.54,135.74v-.37c0-7.65,5.69-12.48,12.89-12.48,6.51,0,12.12,3.73,12.12,12.3v2.14H338.78c.23,3.15,2.05,5,5,5,2.69,0,3.83-1.23,4.14-2.83h7.66c-.73,5.38-4.88,8.43-12.07,8.43C336,147.9,330.54,143.53,330.54,135.74Zm17.08-3c-.14-2.87-1.55-4.46-4.19-4.46-2.46,0-4.14,1.59-4.55,4.46Z" fill="#fff"/><path d="M357.82,143.26a4.55,4.55,0,0,1,4.65-4.61,4.61,4.61,0,1,1,0,9.21A4.54,4.54,0,0,1,357.82,143.26Z" fill="#fff"/><rect width="480" height="320" fill="none"/></g></g></g></svg>