<svg xmlns="http://www.w3.org/2000/svg" viewBox="0 0 1940 500"><title>H3</title><g id="Layer_2" data-name="Layer 2"><g id="Rectangle_4" data-name="Rectangle 4" style="isolation:isolate"><g id="Rectangle_4-2" data-name="Rectangle 4"><rect width="1940" height="500" fill="none"/></g></g><g id="Image_16" data-name="Image 16"><g id="_Text_Layer_15" data-name="&lt;Text Layer&gt; 15"><path d="M562.7,141.84h28.47c20.51,0,30,9.1,30,25v.42c0,15.69-10.57,24.17-29.09,24.17h-8.06v25.21H562.7Zm27.52,34.94c6.91,0,10.57-3.24,10.57-9.42V167c0-6.39-3.76-9-10.46-9h-6.28v18.83Z" fill="#fff"/><path d="M622.87,190v-.84c0-17.57,13.08-28.66,30-28.66s29.83,10.77,29.83,28.14v.84c0,17.78-13.08,28.45-29.93,28.45S622.87,207.64,622.87,190Zm40.81-.31v-.84c0-9.21-3.66-14.33-10.78-14.33S642,179.39,642,188.6v.84c0,9.41,3.66,14.54,10.88,14.54C659.91,204,663.68,198.75,663.68,189.65Z" fill="#fff"/><path d="M682.93,161.92H702.5l8,32.75,9.21-32.75h15.07l8.16,32.75,8.9-32.75h17.79l-17.37,54.72h-17.9l-8.16-30.55-8.48,30.55H699.46Z" fill="#fff"/><path d="M769.05,190v-.84c0-17.57,13.08-28.66,29.61-28.66,15,0,27.84,8.58,27.84,28.25v4.91H788c.52,7.22,4.71,11.4,11.4,11.4,6.18,0,8.79-2.82,9.53-6.48H826.5c-1.68,12.34-11.2,19.35-27.73,19.35C781.6,217.89,769.05,207.85,769.05,190Zm39.24-6.9c-.32-6.59-3.56-10.26-9.63-10.26-5.65,0-9.52,3.67-10.46,10.26Z" fill="#fff"/><path d="M833,161.92h18.73V172.8c3.45-8.16,9.21-11.71,17.68-11.61v17.47c-11.4-.31-17.68,3.25-17.68,12v25.95H833Z" fill="#fff"/><path d="M895.24,137.86H914v32.85c2.93-5.65,8.89-10.25,18-10.25,10.57,0,17.89,6.59,17.89,20.61v35.57H931.13V184.83c0-6.17-2.41-9.2-7.85-9.2S914,179,914,186v30.65H895.24Z" fill="#fff"/><path d="M956,190v-.84c0-17.57,13.08-28.66,30-28.66s29.83,10.77,29.83,28.14v.84c0,17.78-13.08,28.45-29.93,28.45S956,207.64,956,190Zm40.81-.31v-.84c0-9.21-3.66-14.33-10.78-14.33s-10.88,4.91-10.88,14.12v.84c0,9.41,3.66,14.54,10.88,14.54C993.07,204,996.84,198.75,996.84,189.65Z" fill="#fff"/><path d="M1022.06,197.6V161.92h18.73v32.64c0,6.18,2.4,9.21,7.74,9.21,5.65,0,9.31-3.35,9.31-10.36V161.92h18.74v54.72h-18.74v-8.48c-2.93,5.65-8.26,9.73-17.37,9.73C1029.9,217.89,1022.06,211.41,1022.06,197.6Z" fill="#fff"/><path d="M1086.09,161.92h18.73V172.8c3.46-8.16,9.21-11.71,17.69-11.61v17.47c-11.41-.31-17.69,3.25-17.69,12v25.95h-18.73Z" fill="#fff"/><path d="M1122.3,207.22A10.43,10.43,0,0,1,1133,196.66a10.57,10.57,0,1,1,0,21.13A10.43,10.43,0,0,1,1122.3,207.22Z" fill="#fff"/><path d="M1191.46,184.63l-24.38-42.79h23.34l12.66,25.21,12.66-25.21h20.51L1213,184.63v32h-21.56Z" fill="#fff"/><path d="M1228.4,190v-.84c0-17.57,13.08-28.66,30-28.66s29.82,10.77,29.82,28.14v.84c0,17.78-13.08,28.45-29.92,28.45S1228.4,207.64,1228.4,190Zm40.81-.31v-.84c0-9.21-3.67-14.33-10.78-14.33s-10.88,4.91-10.88,14.12v.84c0,9.41,3.66,14.54,10.88,14.54C1265.44,204,1269.21,198.75,1269.21,189.65Z" fill="#fff"/><path d="M1294.42,197.6V161.92h18.73v32.64c0,6.18,2.41,9.21,7.75,9.21,5.65,0,9.31-3.35,9.31-10.36V161.92h18.73v54.72h-18.73v-8.48c-2.93,5.65-8.27,9.73-17.37,9.73C1302.27,217.89,1294.42,211.41,1294.42,197.6Z" fill="#fff"/><path d="M1358.46,161.92h18.73V172.8c3.45-8.16,9.21-11.71,17.69-11.61v17.47c-11.41-.31-17.69,3.25-17.69,12v25.95h-18.73Z" fill="#fff"/><path d="M1423.23,199.06V174.69h-6.6V161.92h6.6v-11.4H1442v11.4h10.78v12.77H1442v22.59c0,4,2,5.76,5.54,5.76a14.4,14.4,0,0,0,5.34-.94v14.22a39.13,39.13,0,0,1-10.36,1.57C1430.13,217.89,1423.23,211.93,1423.23,199.06Z" fill="#fff"/><path d="M1456.92,201.47c0-12.87,10.88-17.89,29.09-17.89h5.23v-1.26c0-5.23-1.25-8.68-7.22-8.68-5.13,0-7,3-7.43,6.49H1459c.84-13.18,11.2-19.67,26.16-19.67s24.7,6.17,24.7,20.71v35.47h-18.21v-6.38c-2.61,4-7.43,7.63-16.22,7.63C1465.61,217.89,1456.92,213.08,1456.92,201.47Zm34.32-4v-3.34h-4.92c-7.53,0-10.88,1.46-10.88,6,0,3.14,2.09,5.12,6.49,5.12C1487.27,205.23,1491.24,202.2,1491.24,197.49Z" fill="#fff"/><path d="M1532.78,188.81l-17.06-26.89h21.56l8.48,14.44,8.27-14.44h19.25L1556,187.35,1575,216.64H1553.4l-9.73-16.32-10,16.32h-19.15Z" fill="#fff"/><path d="M1572.54,190v-.84c0-17.57,13.08-28.66,29.62-28.66,15,0,27.83,8.58,27.83,28.25v4.91h-38.51c.53,7.22,4.71,11.4,11.41,11.4,6.17,0,8.79-2.82,9.52-6.48H1630c-1.67,12.34-11.2,19.35-27.73,19.35C1585.1,217.89,1572.54,207.85,1572.54,190Zm39.24-6.9c-.31-6.59-3.55-10.26-9.62-10.26-5.65,0-9.53,3.67-10.47,10.26Z" fill="#fff"/><path d="M1633.33,199.27h17.27c.63,4,2.41,6.17,7.74,6.17,4.61,0,6.7-1.77,6.7-4.49s-2.62-3.88-10.15-4.92c-14.65-1.88-20.82-6.17-20.82-17.58,0-12.13,10.77-18,23.44-18,13.5,0,22.91,4.6,24.17,17.68h-17c-.73-3.66-2.72-5.44-7-5.44-4.09,0-6.18,1.78-6.18,4.29s2.51,3.66,9.21,4.5c15.17,1.88,22.5,5.86,22.5,17.57,0,13-9.63,18.83-24.8,18.83C1642.86,217.89,1633.75,211.41,1633.33,199.27Z" fill="#fff"/><path d="M558.1,305.44v-.84c0-18.2,13.08-28.66,29.19-28.66,13.4,0,25.75,5.86,26.79,22.49H596.5c-.83-5.12-3.35-7.95-8.79-7.95-6.59,0-10.46,4.71-10.46,13.92v.83c0,9.52,3.66,14.44,10.78,14.44,5.23,0,8.89-3.14,9.52-9.1H614.4c-.53,13.81-9.84,22.8-27.52,22.8C570.55,333.37,558.1,323.85,558.1,305.44Z" fill="#fff"/><path d="M617.53,305.44v-.84c0-17.57,13.08-28.66,30-28.66s29.83,10.78,29.83,28.14v.84c0,17.78-13.08,28.45-29.93,28.45S617.53,323.12,617.53,305.44Zm40.81-.31v-.84c0-9.21-3.66-14.33-10.78-14.33s-10.88,4.92-10.88,14.12v.84c0,9.41,3.66,14.54,10.88,14.54C654.58,319.46,658.34,314.23,658.34,305.13Z" fill="#fff"/><path d="M683.56,313.08V277.41h18.73V310c0,6.18,2.41,9.21,7.74,9.21,5.65,0,9.32-3.35,9.32-10.36V277.41h18.73v54.71H719.35v-8.48c-2.93,5.65-8.27,9.73-17.38,9.73C691.41,333.37,683.56,326.89,683.56,313.08Z" fill="#fff"/><path d="M748.12,253.34h18.62v78.78H748.12Z" fill="#fff"/><path d="M774.07,305.34v-.84c0-18.62,10.25-28.56,23.23-28.56,8.58,0,13.71,3.66,16.85,9.21V253.34h18.73v78.78H814.15v-8.89c-2.73,5.65-8.8,10.14-17.06,10.14C784.43,333.37,774.07,324.27,774.07,305.34Zm40.6-.32v-.83c0-9.21-3.87-14.13-10.78-14.13s-10.78,4.71-10.78,14.23v.84c0,9.2,4.08,13.91,10.57,13.91C810.48,319,814.67,314.33,814.67,305Z" fill="#fff"/><path d="M880.17,323.64v8.48H861.44V253.34h18.73v32.22a19.32,19.32,0,0,1,17.06-9.62c12.76,0,23.12,9.62,23.12,28.35v.84c0,18.83-10.36,28.24-23.23,28.24C889,333.37,882.89,329.5,880.17,323.64Zm21.14-18.51v-.84c0-9.62-4.19-14.23-10.78-14.23-6.8,0-10.88,4.92-10.88,14.13V305c0,9.31,4.08,14,10.88,14C897.54,319,901.31,314.13,901.31,305.13Z" fill="#fff"/><path d="M924.22,305.44v-.84c0-17.57,13.08-28.66,29.61-28.66,15,0,27.84,8.58,27.84,28.25v4.91H943.16c.52,7.22,4.71,11.41,11.41,11.41,6.17,0,8.79-2.83,9.52-6.49h17.58c-1.67,12.34-11.2,19.35-27.73,19.35C936.78,333.37,924.22,323.33,924.22,305.44Zm39.24-6.9c-.31-6.59-3.56-10.25-9.63-10.25-5.65,0-9.52,3.66-10.46,10.25Z" fill="#fff"/><path d="M1004.47,305.34v-.84c0-18.62,10.26-28.56,23.24-28.56,8.58,0,13.7,3.66,16.84,9.21V253.34h18.73v78.78h-18.73v-8.89c-2.72,5.65-8.79,10.14-17,10.14C1014.83,333.37,1004.47,324.27,1004.47,305.34Zm40.61-.32v-.83c0-9.21-3.88-14.13-10.78-14.13s-10.78,4.71-10.78,14.23v.84c0,9.2,4.08,13.91,10.57,13.91C1040.89,319,1045.08,314.33,1045.08,305Z" fill="#fff"/><path d="M1069.87,305.44v-.84c0-17.57,13.08-28.66,30-28.66s29.82,10.78,29.82,28.14v.84c0,17.78-13.08,28.45-29.93,28.45S1069.87,323.12,1069.87,305.44Zm40.81-.31v-.84c0-9.21-3.66-14.33-10.77-14.33S1089,294.88,1089,304.08v.84c0,9.41,3.66,14.54,10.89,14.54C1106.92,319.46,1110.68,314.23,1110.68,305.13Z" fill="#fff"/><path d="M1136.32,277.41h18.73v8.78c2.93-5.65,8.89-10.25,18-10.25,10.57,0,17.89,6.59,17.89,20.61v35.57h-18.73v-31.8c0-6.18-2.41-9.21-7.85-9.21s-9.31,3.35-9.31,10.36v30.65h-18.73Z" fill="#fff"/><path d="M1197.11,305.44v-.84c0-17.57,13.08-28.66,29.61-28.66,15,0,27.84,8.58,27.84,28.25v4.91h-38.51c.52,7.22,4.71,11.41,11.41,11.41,6.17,0,8.79-2.83,9.52-6.49h17.58c-1.68,12.34-11.2,19.35-27.73,19.35C1209.67,333.37,1197.11,323.33,1197.11,305.44Zm39.24-6.9c-.31-6.59-3.56-10.25-9.63-10.25-5.65,0-9.52,3.66-10.46,10.25Z" fill="#fff"/><path d="M1279.67,262.55c0-5.55,4.39-9.73,10.25-9.73s10.36,4.18,10.36,9.73-4.5,9.62-10.36,9.62S1279.67,268.09,1279.67,262.55Zm.94,14.86h18.73v54.71h-18.73Z" fill="#fff"/><path d="M1309.38,277.41h18.74v8.78c2.93-5.65,8.89-10.25,18-10.25,10.57,0,17.9,6.59,17.9,20.61v35.57h-18.73v-31.8c0-6.18-2.41-9.21-7.85-9.21s-9.31,3.35-9.31,10.36v30.65h-18.74Z" fill="#fff"/><path d="M1389,317c0-12.87,10.88-17.89,29.09-17.89h5.23V297.8c0-5.23-1.25-8.68-7.22-8.68-5.12,0-7,3-7.43,6.49H1391.1c.84-13.18,11.2-19.67,26.16-19.67s24.7,6.17,24.7,20.71v35.47h-18.21v-6.38c-2.61,4-7.43,7.63-16.22,7.63C1397.7,333.37,1389,328.56,1389,317Zm34.32-4v-3.34h-4.91c-7.54,0-10.89,1.46-10.89,6,0,3.14,2.1,5.12,6.49,5.12C1419.36,320.71,1423.33,317.68,1423.33,313Z" fill="#fff"/><path d="M1451.06,277.41h18.73v8.78c2.93-5.65,8.9-10.25,18-10.25,10.57,0,17.89,6.59,17.89,20.61v35.57H1487v-31.8c0-6.18-2.4-9.21-7.85-9.21s-9.31,3.35-9.31,10.36v30.65h-18.73Z" fill="#fff"/><path d="M1533.83,253.34h18.73v32.85c2.93-5.65,8.89-10.25,18-10.25,10.57,0,17.89,6.59,17.89,20.61v35.57h-18.73v-31.8c0-6.18-2.41-9.21-7.85-9.21s-9.31,3.35-9.31,10.36v30.65h-18.73Z" fill="#fff"/><path d="M1594.62,305.44v-.84c0-17.57,13.08-28.66,30-28.66s29.83,10.78,29.83,28.14v.84c0,17.78-13.08,28.45-29.93,28.45S1594.62,323.12,1594.62,305.44Zm40.81-.31v-.84c0-9.21-3.66-14.33-10.78-14.33s-10.88,4.92-10.88,14.12v.84c0,9.41,3.66,14.54,10.88,14.54C1631.66,319.46,1635.43,314.23,1635.43,305.13Z" fill="#fff"/><path d="M1660.65,313.08V277.41h18.73V310c0,6.18,2.4,9.21,7.74,9.21,5.65,0,9.31-3.35,9.31-10.36V277.41h18.74v54.71h-18.74v-8.48c-2.93,5.65-8.26,9.73-17.37,9.73C1668.49,333.37,1660.65,326.89,1660.65,313.08Z" fill="#fff"/><path d="M1724.68,277.41h18.73v10.88c3.46-8.16,9.21-11.72,17.69-11.62v17.47c-11.41-.31-17.69,3.25-17.69,12v25.95h-18.73Z" fill="#fff"/><path d="M1760.88,322.7a10.43,10.43,0,0,1,10.68-10.56,10.57,10.57,0,1,1,0,21.13A10.44,10.44,0,0,1,1760.88,322.7Z" fill="#fff"/></g></g></g></svg>