<svg xmlns="http://www.w3.org/2000/svg" viewBox="0 0 728 90"><title>H32</title><g id="Layer_2" data-name="Layer 2"><g id="Rect"><rect width="728" height="90" fill="none"/></g><g id="H32"><g id="No_surprise_fees._No_kidding." data-name="No surprise fees. No kidding."><path d="M122.23,33.22h7.45l7.38,13v-13h5.78V56.28h-6.39L128,41.8V56.28h-5.8Z" fill="#fff"/><path d="M145.16,48.06V47.8c0-5.42,4-8.84,9.25-8.84s9.2,3.32,9.2,8.68v.26c0,5.48-4,8.77-9.23,8.77S145.16,53.51,145.16,48.06Zm12.58-.1V47.7c0-2.84-1.13-4.42-3.33-4.42s-3.35,1.52-3.35,4.36v.26c0,2.9,1.13,4.48,3.35,4.48S157.74,50.77,157.74,48Z" fill="#fff"/><path d="M170.37,50.93h5.33c.19,1.23.74,1.9,2.38,1.9,1.42,0,2.07-.55,2.07-1.38s-.81-1.2-3.13-1.52c-4.52-.58-6.42-1.9-6.42-5.42,0-3.74,3.32-5.55,7.23-5.55,4.16,0,7.06,1.42,7.45,5.45h-5.23a1.88,1.88,0,0,0-2.16-1.67c-1.26,0-1.9.54-1.9,1.32s.77,1.13,2.84,1.39c4.67.58,6.93,1.8,6.93,5.42,0,4-3,5.8-7.64,5.8S170.5,54.67,170.37,50.93Z" fill="#fff"/><path d="M187.5,50.41v-11h5.77V49.48c0,1.9.75,2.84,2.39,2.84s2.87-1,2.87-3.2V39.41h5.78V56.28h-5.78V53.67a5.54,5.54,0,0,1-5.35,3C189.92,56.67,187.5,54.67,187.5,50.41Z" fill="#fff"/><path d="M207.24,39.41H213v3.36a5.31,5.31,0,0,1,5.45-3.58v5.38c-3.51-.09-5.45,1-5.45,3.71v8h-5.77Z" fill="#fff"/><path d="M220.55,39.41h5.78v2.52a6,6,0,0,1,5.26-3c3.93,0,7.13,3,7.13,8.74V48c0,5.81-3.2,8.71-7.17,8.71a5.56,5.56,0,0,1-5.22-2.87v8.13h-5.78ZM232.84,48V47.7c0-3-1.29-4.38-3.32-4.38s-3.35,1.51-3.35,4.35v.26c0,2.87,1.26,4.32,3.35,4.32S232.84,50.74,232.84,48Z" fill="#fff"/><path d="M240.81,39.41h5.77v3.36A5.32,5.32,0,0,1,252,39.19v5.38c-3.51-.09-5.45,1-5.45,3.71v8h-5.77Z" fill="#fff"/><path d="M254,34.83a3.18,3.18,0,1,1,3.16,3A3,3,0,0,1,254,34.83Zm.29,4.58h5.77V56.28h-5.77Z" fill="#fff"/><path d="M262,50.93h5.32c.19,1.23.74,1.9,2.39,1.9,1.42,0,2.06-.55,2.06-1.38s-.8-1.2-3.13-1.52c-4.51-.58-6.42-1.9-6.42-5.42,0-3.74,3.33-5.55,7.23-5.55,4.16,0,7.06,1.42,7.45,5.45H271.7a1.87,1.87,0,0,0-2.16-1.67c-1.25,0-1.9.54-1.9,1.32s.77,1.13,2.84,1.39c4.68.58,6.93,1.8,6.93,5.42,0,4-3,5.8-7.64,5.8S262.16,54.67,262,50.93Z" fill="#fff"/><path d="M278.47,48.06V47.8c0-5.42,4-8.84,9.13-8.84,4.62,0,8.58,2.65,8.58,8.71v1.52H284.31c.16,2.22,1.45,3.51,3.52,3.51,1.9,0,2.71-.87,2.93-2h5.42c-.51,3.81-3.45,6-8.54,6C282.35,56.67,278.47,53.57,278.47,48.06Zm12.1-2.13c-.1-2-1.1-3.16-3-3.16s-2.93,1.13-3.22,3.16Z" fill="#fff"/><path d="M304.92,43.35h-2.13V39.41h2.13V37.93c0-4.19,2.61-6.19,6.61-6.19a10.51,10.51,0,0,1,2.65.35v4.23a5.28,5.28,0,0,0-1.58-.23,1.7,1.7,0,0,0-1.94,1.84v1.48h3.42v3.94h-3.42V56.28h-5.74Z" fill="#fff"/><path d="M314.53,48.06V47.8c0-5.42,4-8.84,9.13-8.84,4.61,0,8.58,2.65,8.58,8.71v1.52H320.37c.16,2.22,1.45,3.51,3.51,3.51s2.71-.87,2.94-2h5.42c-.52,3.81-3.45,6-8.55,6C318.4,56.67,314.53,53.57,314.53,48.06Zm12.1-2.13c-.1-2-1.1-3.16-3-3.16s-2.94,1.13-3.23,3.16Z" fill="#fff"/><path d="M333.33,48.06V47.8c0-5.42,4-8.84,9.13-8.84,4.61,0,8.58,2.65,8.58,8.71v1.52H339.17c.16,2.22,1.45,3.51,3.52,3.51,1.9,0,2.71-.87,2.93-2H351c-.52,3.81-3.45,6-8.55,6C337.2,56.67,333.33,53.57,333.33,48.06Zm12.1-2.13c-.1-2-1.1-3.16-3-3.16s-2.94,1.13-3.23,3.16Z" fill="#fff"/><path d="M352.07,50.93h5.32c.19,1.23.74,1.9,2.39,1.9,1.42,0,2.06-.55,2.06-1.38s-.8-1.2-3.13-1.52c-4.51-.58-6.42-1.9-6.42-5.42,0-3.74,3.33-5.55,7.23-5.55,4.16,0,7.06,1.42,7.45,5.45h-5.23a1.87,1.87,0,0,0-2.16-1.67c-1.25,0-1.9.54-1.9,1.32s.77,1.13,2.84,1.39c4.68.58,6.93,1.8,6.93,5.42,0,4-3,5.8-7.64,5.8S352.2,54.67,352.07,50.93Z" fill="#fff"/><path d="M369.1,53.38a3.21,3.21,0,0,1,3.29-3.26,3.26,3.26,0,1,1,0,6.52A3.21,3.21,0,0,1,369.1,53.38Z" fill="#fff"/><path d="M384.87,33.22h7.45l7.38,13v-13h5.78V56.28h-6.39L390.67,41.8V56.28h-5.8Z" fill="#fff"/><path d="M407.79,48.06V47.8c0-5.42,4-8.84,9.26-8.84s9.2,3.32,9.2,8.68v.26c0,5.48-4,8.77-9.23,8.77S407.79,53.51,407.79,48.06Zm12.59-.1V47.7c0-2.84-1.13-4.42-3.33-4.42s-3.35,1.52-3.35,4.36v.26c0,2.9,1.13,4.48,3.35,4.48S420.38,50.77,420.38,48Z" fill="#fff"/><path d="M434.14,32h5.78v14.1l4.55-6.68h6L445,47l6,9.29h-6.45l-4.55-7.38v7.38h-5.78Z" fill="#fff"/><path d="M452.14,34.83a3.18,3.18,0,1,1,3.16,3A3,3,0,0,1,452.14,34.83Zm.29,4.58h5.77V56.28h-5.77Z" fill="#fff"/><path d="M460.46,48v-.26c0-5.74,3.16-8.81,7.16-8.81a5.46,5.46,0,0,1,5.19,2.84V32h5.78V56.28h-5.78V53.54a5.69,5.69,0,0,1-5.25,3.13C463.65,56.67,460.46,53.86,460.46,48Zm12.51-.1v-.26c0-2.84-1.19-4.35-3.32-4.35s-3.32,1.45-3.32,4.38V48c0,2.84,1.26,4.29,3.26,4.29S473,50.8,473,47.93Z" fill="#fff"/><path d="M480.68,48v-.26c0-5.74,3.16-8.81,7.16-8.81A5.45,5.45,0,0,1,493,41.8V32h5.78V56.28H493V53.54a5.68,5.68,0,0,1-5.25,3.13C483.87,56.67,480.68,53.86,480.68,48Zm12.52-.1v-.26c0-2.84-1.2-4.35-3.33-4.35s-3.32,1.45-3.32,4.38V48c0,2.84,1.26,4.29,3.26,4.29S493.2,50.8,493.2,47.93Z" fill="#fff"/><path d="M501.61,34.83a3.18,3.18,0,1,1,3.16,3A3,3,0,0,1,501.61,34.83Zm.29,4.58h5.77V56.28H501.9Z" fill="#fff"/><path d="M510.77,39.41h5.77v2.71A6,6,0,0,1,522.09,39c3.26,0,5.52,2,5.52,6.36v11h-5.78v-9.8c0-1.91-.74-2.84-2.42-2.84s-2.87,1-2.87,3.19v9.45h-5.77Z" fill="#fff"/><path d="M529.47,56.28h5.74c.26,1.23,1,2.2,3.1,2.2,2.55,0,3.58-1.45,3.58-3.55V52.35a5.92,5.92,0,0,1-5.22,3.1c-3.94,0-7.16-2.91-7.16-8.1v-.26c0-5,3.19-8.13,7.16-8.13a5.49,5.49,0,0,1,5.22,2.84V39.41h5.78V54.86c0,5-3.33,7.68-9.36,7.68C532.57,62.54,529.92,60.12,529.47,56.28Zm12.58-9v-.23c0-2.32-1.19-3.81-3.32-3.81s-3.32,1.52-3.32,3.84v.26c0,2.32,1.22,3.81,3.29,3.81S542.05,49.7,542.05,47.32Z" fill="#fff"/><path d="M550.37,53.38a3.22,3.22,0,0,1,3.29-3.26,3.26,3.26,0,1,1,0,6.52A3.22,3.22,0,0,1,550.37,53.38Z" fill="#fff"/></g></g></g></svg>