<svg xmlns="http://www.w3.org/2000/svg" viewBox="0 0 320 1200"><title>H3</title><g id="Layer_2" data-name="Layer 2"><g id="Rectangle_2_copy" data-name="Rectangle 2 copy" style="isolation:isolate"><g id="Rectangle_2_copy-2" data-name="Rectangle 2 copy"><rect width="320" height="1200" fill="none"/></g></g><g id="POWER"><g id="Power_hour._Your_taxes_could_be_done_in_an_hour._" data-name="Power hour.  Your taxes could be done in  an hour. "><path d="M44.89,279h12c8.63,0,12.63,3.83,12.63,10.52v.17c0,6.6-4.44,10.17-12.23,10.17H53.87v10.6h-9Zm11.58,14.7c2.9,0,4.44-1.37,4.44-4v-.18c0-2.68-1.58-3.78-4.4-3.78H53.87v7.92Z" fill="#fff"/><path d="M70.2,299.27v-.35c0-7.39,5.5-12.06,12.63-12.06s12.54,4.53,12.54,11.84v.35c0,7.48-5.5,12-12.59,12S70.2,306.71,70.2,299.27Zm17.16-.13v-.35c0-3.88-1.54-6-4.53-6s-4.58,2.07-4.58,5.94v.35c0,4,1.54,6.12,4.58,6.12S87.36,303,87.36,299.14Z" fill="#fff"/><path d="M95.46,287.48h8.23L107,301.25l3.87-13.77h6.34l3.43,13.77,3.74-13.77h7.49l-7.31,23h-7.52l-3.44-12.85-3.56,12.85h-7.66Z" fill="#fff"/><path d="M131.68,299.27v-.35c0-7.39,5.5-12.06,12.45-12.06,6.29,0,11.71,3.61,11.71,11.88v2.07h-16.2c.22,3,2,4.8,4.8,4.8,2.59,0,3.69-1.19,4-2.73h7.4c-.71,5.19-4.71,8.14-11.67,8.14C137,311,131.68,306.8,131.68,299.27Zm16.5-2.9c-.13-2.78-1.5-4.32-4.05-4.32-2.38,0-4,1.54-4.4,4.32Z" fill="#fff"/><path d="M158.56,287.48h7.88v4.57a7.25,7.25,0,0,1,7.44-4.88v7.35c-4.8-.13-7.44,1.36-7.44,5.06v10.91h-7.88Z" fill="#fff"/><path d="M184.75,277.36h7.88v13.81a8.13,8.13,0,0,1,7.56-4.31c4.45,0,7.53,2.77,7.53,8.67v15h-7.88V297.11c0-2.59-1-3.87-3.3-3.87s-3.91,1.41-3.91,4.36v12.89h-7.88Z" fill="#fff"/><path d="M210.32,299.27v-.35c0-7.39,5.5-12.06,12.63-12.06s12.54,4.53,12.54,11.84v.35c0,7.48-5.5,12-12.59,12S210.32,306.71,210.32,299.27Zm17.16-.13v-.35c0-3.88-1.54-6-4.53-6s-4.58,2.07-4.58,5.94v.35c0,4,1.54,6.12,4.58,6.12S227.48,303,227.48,299.14Z" fill="#fff"/><path d="M238.09,302.48v-15H246v13.73c0,2.59,1,3.87,3.26,3.87s3.92-1.41,3.92-4.36V287.48H261v23h-7.87v-3.56c-1.24,2.37-3.48,4.09-7.31,4.09C241.39,311,238.09,308.29,238.09,302.48Z" fill="#fff"/><path d="M265,287.48h7.87v4.57a7.27,7.27,0,0,1,7.44-4.88v7.35c-4.79-.13-7.44,1.36-7.44,5.06v10.91H265Z" fill="#fff"/><path d="M280.24,306.53a4.39,4.39,0,0,1,4.49-4.44,4.45,4.45,0,1,1,0,8.89A4.39,4.39,0,0,1,280.24,306.53Z" fill="#fff"/><path d="M52.46,363.36l-10.25-18H52L57.35,356l5.32-10.6H71.3l-9.77,18v13.46H52.46Z" fill="#fff"/><path d="M68,365.6v-.35c0-7.39,5.5-12.06,12.63-12.06S93.17,357.72,93.17,365v.35c0,7.48-5.5,12-12.59,12S68,373,68,365.6Zm17.16-.13v-.35c0-3.88-1.54-6-4.53-6s-4.58,2.07-4.58,5.94v.35c0,4,1.54,6.12,4.58,6.12S85.16,369.3,85.16,365.47Z" fill="#fff"/><path d="M95.77,368.81v-15h7.87v13.73c0,2.59,1,3.87,3.26,3.87s3.92-1.41,3.92-4.36V353.81h7.87v23h-7.87v-3.56c-1.24,2.37-3.48,4.09-7.31,4.09C99.07,377.35,95.77,374.62,95.77,368.81Z" fill="#fff"/><path d="M122.7,353.81h7.88v4.57A7.25,7.25,0,0,1,138,353.5v7.35c-4.79-.13-7.43,1.36-7.43,5.06v10.91H122.7Z" fill="#fff"/><path d="M149.94,369.43V359.18h-2.77v-5.37h2.77V349h7.88v4.8h4.53v5.37h-4.53v9.5c0,1.67.83,2.42,2.33,2.42a6,6,0,0,0,2.24-.39v6a16.69,16.69,0,0,1-4.35.66C152.84,377.35,149.94,374.84,149.94,369.43Z" fill="#fff"/><path d="M164.11,370.44c0-5.41,4.58-7.52,12.23-7.52h2.2v-.53c0-2.2-.53-3.65-3-3.65a2.83,2.83,0,0,0-3.13,2.72H165c.35-5.54,4.71-8.27,11-8.27s10.39,2.6,10.39,8.71v14.92h-7.66v-2.68c-1.1,1.67-3.13,3.21-6.82,3.21C167.76,377.35,164.11,375.33,164.11,370.44Zm14.43-1.67v-1.41h-2.07c-3.16,0-4.57.62-4.57,2.51,0,1.32.88,2.16,2.73,2.16C176.87,372,178.54,370.75,178.54,368.77Z" fill="#fff"/><path d="M196,365.12l-7.17-11.31h9.07l3.56,6.07,3.48-6.07H213l-7.26,10.69,8,12.32h-9.07L200.59,370l-4.18,6.86h-8Z" fill="#fff"/><path d="M212.74,365.6v-.35c0-7.39,5.5-12.06,12.45-12.06,6.29,0,11.71,3.61,11.71,11.88v2.07H220.7c.22,3,2,4.8,4.8,4.8,2.59,0,3.7-1.19,4-2.73h7.4c-.71,5.19-4.71,8.14-11.67,8.14C218,377.35,212.74,373.13,212.74,365.6Zm16.5-2.9c-.13-2.78-1.5-4.32-4.05-4.32-2.38,0-4,1.54-4.4,4.32Z" fill="#fff"/><path d="M238.3,369.52h7.27c.26,1.67,1,2.59,3.25,2.59,1.94,0,2.82-.74,2.82-1.89s-1.1-1.63-4.27-2.07c-6.16-.79-8.76-2.59-8.76-7.39,0-5.1,4.54-7.57,9.86-7.57,5.68,0,9.64,1.94,10.17,7.44h-7.13c-.31-1.54-1.15-2.29-2.95-2.29s-2.6.75-2.6,1.8,1.06,1.54,3.87,1.9c6.39.79,9.47,2.46,9.47,7.39,0,5.46-4.05,7.92-10.43,7.92C242.31,377.35,238.48,374.62,238.3,369.52Z" fill="#fff"/><path d="M43,431.93v-.35c0-7.66,5.5-12.06,12.27-12.06,5.64,0,10.83,2.47,11.27,9.46H59.11c-.35-2.15-1.41-3.34-3.7-3.34-2.77,0-4.4,2-4.4,5.85v.35c0,4,1.54,6.08,4.53,6.08,2.2,0,3.74-1.32,4-3.83h7.08c-.22,5.81-4.13,9.59-11.57,9.59C48.19,443.68,43,439.68,43,431.93Z" fill="#fff"/><path d="M68,431.93v-.35c0-7.39,5.5-12.06,12.63-12.06s12.55,4.53,12.55,11.84v.35c0,7.48-5.51,12-12.59,12S68,439.37,68,431.93Zm17.17-.13v-.35c0-3.88-1.54-6-4.54-6S76,427.49,76,431.36v.35c0,4,1.54,6.12,4.57,6.12S85.12,435.63,85.12,431.8Z" fill="#fff"/><path d="M95.72,435.14v-15h7.88v13.73c0,2.59,1,3.87,3.26,3.87s3.91-1.41,3.91-4.36V420.14h7.88v23h-7.88v-3.56c-1.23,2.37-3.47,4.09-7.3,4.09C99,443.68,95.72,441,95.72,435.14Z" fill="#fff"/><path d="M122.87,410h7.84v33.13h-7.84Z" fill="#fff"/><path d="M133.79,431.89v-.35c0-7.84,4.31-12,9.77-12,3.61,0,5.76,1.54,7.08,3.87V410h7.88v33.13h-7.88v-3.74a7.74,7.74,0,0,1-7.17,4.27C138.14,443.68,133.79,439.85,133.79,431.89Zm17.07-.13v-.36c0-3.87-1.63-5.94-4.53-5.94s-4.53,2-4.53,6v.35c0,3.87,1.71,5.85,4.44,5.85S150.86,435.67,150.86,431.76Z" fill="#fff"/><path d="M178.41,439.59v3.56h-7.88V410h7.88v13.55a8.13,8.13,0,0,1,7.17-4.05c5.37,0,9.73,4.05,9.73,11.93v.35c0,7.92-4.36,11.88-9.77,11.88C182.11,443.68,179.55,442.05,178.41,439.59Zm8.89-7.79v-.35c0-4.05-1.76-6-4.53-6s-4.58,2.07-4.58,5.94v.36c0,3.91,1.72,5.89,4.58,5.89S187.3,435.58,187.3,431.8Z" fill="#fff"/><path d="M196.94,431.93v-.35c0-7.39,5.5-12.06,12.45-12.06,6.29,0,11.71,3.61,11.71,11.88v2.07H204.9c.22,3,2,4.8,4.8,4.8,2.6,0,3.7-1.19,4-2.73h7.4c-.71,5.19-4.71,8.14-11.66,8.14C202.22,443.68,196.94,439.46,196.94,431.93Zm16.5-2.9c-.13-2.78-1.5-4.32-4.05-4.32-2.37,0-4,1.54-4.4,4.32Z" fill="#fff"/><path d="M43,498.22v-.35c0-7.84,4.32-12,9.77-12,3.61,0,5.77,1.54,7.09,3.87V476.35h7.88v33.13H59.9v-3.74A7.75,7.75,0,0,1,52.73,510C47.4,510,43,506.18,43,498.22Zm17.08-.13v-.36c0-3.87-1.63-5.94-4.53-5.94s-4.54,2-4.54,6v.35c0,3.87,1.72,5.85,4.45,5.85S60.12,502,60.12,498.09Z" fill="#fff"/><path d="M70.55,498.26v-.35c0-7.39,5.5-12.06,12.63-12.06s12.54,4.53,12.54,11.84V498c0,7.48-5.5,12-12.58,12S70.55,505.7,70.55,498.26Zm17.16-.13v-.35c0-3.88-1.54-6-4.53-6s-4.58,2.07-4.58,5.94V498c0,4,1.54,6.12,4.58,6.12S87.71,502,87.71,498.13Z" fill="#fff"/><path d="M98.49,486.47h7.88v3.69a8.13,8.13,0,0,1,7.57-4.31c4.45,0,7.53,2.77,7.53,8.67v15h-7.88V496.1c0-2.59-1-3.87-3.3-3.87s-3.92,1.41-3.92,4.36v12.89H98.49Z" fill="#fff"/><path d="M124.06,498.26v-.35c0-7.39,5.5-12.06,12.46-12.06,6.29,0,11.7,3.61,11.7,11.88v2.07H132c.22,3,2,4.8,4.79,4.8,2.6,0,3.7-1.19,4-2.73h7.39c-.7,5.19-4.71,8.14-11.66,8.14C129.34,510,124.06,505.79,124.06,498.26Zm16.5-2.9c-.13-2.78-1.49-4.32-4-4.32-2.38,0-4,1.54-4.4,4.32Z" fill="#fff"/><path d="M158.78,480.22a4.35,4.35,0,1,1,4.32,4A4.11,4.11,0,0,1,158.78,480.22Zm.4,6.25h7.88v23h-7.88Z" fill="#fff"/><path d="M171.28,486.47h7.88v3.69a8.13,8.13,0,0,1,7.57-4.31c4.44,0,7.52,2.77,7.52,8.67v15h-7.87V496.1c0-2.59-1-3.87-3.3-3.87s-3.92,1.41-3.92,4.36v12.89h-7.88Z" fill="#fff"/><path d="M42.87,569.43c0-5.41,4.58-7.52,12.23-7.52h2.2v-.53c0-2.2-.53-3.65-3-3.65a2.83,2.83,0,0,0-3.13,2.72H43.75c.35-5.54,4.71-8.27,11-8.27s10.39,2.6,10.39,8.72v14.91H57.48v-2.68c-1.1,1.67-3.13,3.21-6.82,3.21C46.52,576.34,42.87,574.32,42.87,569.43Zm14.43-1.67v-1.41H55.23c-3.16,0-4.57.62-4.57,2.51,0,1.32.88,2.16,2.73,2.16C55.63,571,57.3,569.74,57.3,567.76Z" fill="#fff"/><path d="M69,552.8h7.87v3.69a8.13,8.13,0,0,1,7.57-4.31c4.45,0,7.53,2.77,7.53,8.67v15H84.06V562.44c0-2.6-1-3.88-3.3-3.88s-3.92,1.41-3.92,4.36v12.89H69Z" fill="#fff"/><path d="M103.77,542.68h7.88v13.81a8.13,8.13,0,0,1,7.57-4.31c4.45,0,7.53,2.77,7.53,8.67v15h-7.88V562.44c0-2.6-1-3.88-3.3-3.88s-3.92,1.41-3.92,4.36v12.89h-7.88Z" fill="#fff"/><path d="M129.34,564.59v-.35c0-7.39,5.5-12.06,12.63-12.06s12.54,4.53,12.54,11.84v.35c0,7.48-5.5,12-12.58,12S129.34,572,129.34,564.59Zm17.16-.13v-.35c0-3.88-1.54-6-4.53-6s-4.57,2.07-4.57,5.94v.35c0,4,1.54,6.12,4.57,6.12S146.5,568.29,146.5,564.46Z" fill="#fff"/><path d="M157.11,567.8v-15H165v13.73c0,2.59,1,3.87,3.25,3.87s3.92-1.41,3.92-4.36V552.8H180v23h-7.88v-3.56c-1.23,2.38-3.48,4.09-7.3,4.09C160.41,576.34,157.11,573.61,157.11,567.8Z" fill="#fff"/><path d="M184,552.8h7.88v4.57a7.25,7.25,0,0,1,7.44-4.88v7.35c-4.8-.13-7.44,1.36-7.44,5.06v10.91H184Z" fill="#fff"/><path d="M199.27,571.85a4.39,4.39,0,0,1,4.49-4.44,4.45,4.45,0,1,1,0,8.89A4.39,4.39,0,0,1,199.27,571.85Z" fill="#fff"/></g></g></g></svg>