<svg xmlns="http://www.w3.org/2000/svg" viewBox="0 0 300 600"><title>Asset 16</title><g id="Layer_2" data-name="Layer 2"><g id="Rect"><rect width="300" height="600" fill="none"/></g><g id="Put_our_taxpertise_to_work_for_you." data-name="Put our taxpertise to work for you."><path d="M22.67,140H37.16c10.44,0,15.28,4.63,15.28,12.73V153c0,8-5.38,12.3-14.8,12.3h-4.1V178.1H22.67Zm14,17.79c3.51,0,5.38-1.65,5.38-4.8v-.21c0-3.25-1.92-4.58-5.33-4.58H33.54v9.59Z" fill="#fff"/><path d="M55.53,168.4V150.25h9.53v16.61c0,3.14,1.23,4.69,3.94,4.69,2.88,0,4.74-1.71,4.74-5.28v-16h9.53V178.1H73.74v-4.32c-1.49,2.88-4.21,5-8.84,5C59.52,178.74,55.53,175.43,55.53,168.4Z" fill="#fff"/><path d="M89.4,169.15V156.74H86v-6.49H89.4v-5.81h9.53v5.81h5.48v6.49H98.93v11.51c0,2,1,2.92,2.82,2.92a7.29,7.29,0,0,0,2.72-.48v7.25a20.05,20.05,0,0,1-5.28.8C92.91,178.74,89.4,175.7,89.4,169.15Z" fill="#fff"/><path d="M116.23,164.52v-.43c0-9,6.66-14.59,15.29-14.59s15.17,5.48,15.17,14.32v.43c0,9.05-6.65,14.49-15.23,14.49S116.23,173.52,116.23,164.52Zm20.77-.16v-.43c0-4.68-1.86-7.29-5.48-7.29s-5.54,2.5-5.54,7.18v.43c0,4.79,1.86,7.4,5.54,7.4S137,169,137,164.36Z" fill="#fff"/><path d="M149.83,168.4V150.25h9.54v16.61c0,3.14,1.22,4.69,3.94,4.69,2.87,0,4.74-1.71,4.74-5.28v-16h9.53V178.1h-9.53v-4.32c-1.5,2.88-4.21,5-8.84,5C153.83,178.74,149.83,175.43,149.83,168.4Z" fill="#fff"/><path d="M182.42,150.25H192v5.53c1.76-4.15,4.69-6,9-5.91v8.9c-5.8-.16-9,1.65-9,6.12V178.1h-9.53Z" fill="#fff"/><path d="M23.1,222.4V210H19.75V203.5H23.1v-5.81h9.53v5.81h5.49V210H32.63V221.5c0,2,1,2.92,2.83,2.92a7.23,7.23,0,0,0,2.71-.48v7.25a19.9,19.9,0,0,1-5.27.8C26.62,232,23.1,229,23.1,222.4Z" fill="#fff"/><path d="M40.25,223.62c0-6.55,5.53-9.1,14.8-9.1h2.66v-.64c0-2.66-.64-4.42-3.67-4.42a3.42,3.42,0,0,0-3.78,3.3H41.31c.43-6.71,5.7-10,13.31-10s12.57,3.14,12.57,10.54v18.06H57.93V228.1c-1.33,2-3.78,3.89-8.26,3.89C44.67,232,40.25,229.54,40.25,223.62Zm17.46-2v-1.7h-2.5c-3.83,0-5.54.74-5.54,3,0,1.6,1.07,2.61,3.3,2.61C55.69,225.54,57.71,224,57.71,221.6Z" fill="#fff"/><path d="M78.85,217.18,70.17,203.5h11l4.32,7.34,4.2-7.34h9.8l-8.79,12.94,9.64,14.91h-11l-5-8.31-5.06,8.31H69.59Z" fill="#fff"/><path d="M103,203.5h9.54v4.15a9.82,9.82,0,0,1,8.68-4.9c6.49,0,11.77,4.9,11.77,14.43v.43c0,9.58-5.28,14.38-11.83,14.38-4.2,0-7.24-2-8.62-4.74v13.42H103Zm20.29,14.11v-.43c0-4.9-2.13-7.24-5.48-7.24s-5.54,2.5-5.54,7.19v.42c0,4.74,2.08,7.14,5.54,7.14S123.26,222.19,123.26,217.61Z" fill="#fff"/><path d="M134.92,217.77v-.43c0-9,6.66-14.59,15.07-14.59,7.62,0,14.17,4.37,14.17,14.38v2.5h-19.6c.27,3.68,2.4,5.81,5.81,5.81,3.14,0,4.47-1.44,4.84-3.31h8.95c-.85,6.29-5.7,9.86-14.11,9.86C141.31,232,134.92,226.87,134.92,217.77Zm20-3.52c-.16-3.35-1.81-5.22-4.9-5.22-2.87,0-4.84,1.87-5.32,5.22Z" fill="#fff"/><path d="M167.46,203.5H177V209c1.76-4.15,4.69-6,9-5.91V212c-5.8-.16-9,1.65-9,6.12v13.21h-9.53Z" fill="#fff"/><path d="M191.15,222.4V210H187.8V203.5h3.35v-5.81h9.54v5.81h5.48V210h-5.48V221.5c0,2,1,2.92,2.82,2.92a7.23,7.23,0,0,0,2.71-.48v7.25a19.9,19.9,0,0,1-5.27.8C194.67,232,191.15,229,191.15,222.4Z" fill="#fff"/><path d="M209.58,195.93a5.26,5.26,0,1,1,5.22,4.9A5,5,0,0,1,209.58,195.93Zm.48,7.57h9.53v27.85h-9.53Z" fill="#fff"/><path d="M222.84,222.51h8.78c.32,2,1.23,3.14,3.94,3.14,2.35,0,3.41-.91,3.41-2.29s-1.33-2-5.16-2.5c-7.46-1-10.6-3.15-10.6-9,0-6.18,5.49-9.16,11.93-9.16,6.87,0,11.66,2.34,12.3,9h-8.63c-.37-1.86-1.38-2.77-3.56-2.77s-3.15.91-3.15,2.18,1.28,1.87,4.69,2.29c7.72,1,11.45,3,11.45,9,0,6.6-4.9,9.59-12.62,9.59C227.68,232,223.05,228.68,222.84,222.51Z" fill="#fff"/><path d="M250,217.77v-.43c0-9,6.66-14.59,15.08-14.59,7.61,0,14.16,4.37,14.16,14.38v2.5h-19.6c.27,3.68,2.4,5.81,5.81,5.81,3.14,0,4.47-1.44,4.84-3.31h9c-.85,6.29-5.7,9.86-14.11,9.86C256.38,232,250,226.87,250,217.77Zm20-3.52c-.16-3.35-1.81-5.22-4.89-5.22-2.88,0-4.85,1.87-5.33,5.22Z" fill="#fff"/><path d="M23.1,275.65V263.24H19.75v-6.49H23.1v-5.81h9.53v5.81h5.49v6.49H32.63v11.51c0,2,1,2.92,2.83,2.92a7.23,7.23,0,0,0,2.71-.48v7.25a19.9,19.9,0,0,1-5.27.8C26.62,285.24,23.1,282.2,23.1,275.65Z" fill="#fff"/><path d="M40.25,271v-.43c0-8.95,6.65-14.59,15.28-14.59s15.18,5.48,15.18,14.32v.43c0,9.05-6.66,14.49-15.23,14.49S40.25,280,40.25,271ZM61,270.86v-.43c0-4.68-1.87-7.29-5.49-7.29S50,265.64,50,270.32v.43c0,4.79,1.87,7.4,5.54,7.4S61,275.49,61,270.86Z" fill="#fff"/><path d="M81.41,256.75h10l4,16.66,4.69-16.66h7.67l4.15,16.66,4.53-16.66h9l-8.84,27.85h-9.1l-4.16-15.55L99.09,284.6H89.82Z" fill="#fff"/><path d="M125.23,271v-.43c0-8.95,6.66-14.59,15.29-14.59s15.17,5.48,15.17,14.32v.43c0,9.05-6.65,14.49-15.23,14.49S125.23,280,125.23,271Zm20.77-.16v-.43c0-4.68-1.86-7.29-5.48-7.29s-5.54,2.5-5.54,7.18v.43c0,4.79,1.86,7.4,5.54,7.4S146,275.49,146,270.86Z" fill="#fff"/><path d="M159.05,256.75h9.53v5.53c1.75-4.15,4.68-6,9-5.91v8.9c-5.81-.16-9,1.65-9,6.12V284.6h-9.53Z" fill="#fff"/><path d="M181,244.5h9.53v23.27l7.51-11H208l-9.1,12.51,9.85,15.34H198.08l-7.51-12.2v12.2H181Z" fill="#fff"/><path d="M23.26,316.49H19.75V310h3.51v-2.45c0-6.93,4.31-10.23,10.92-10.23a16.89,16.89,0,0,1,4.36.59v7a8.83,8.83,0,0,0-2.61-.37c-2.23,0-3.19,1.23-3.19,3V310h5.64v6.49H32.74v21.36H23.26Z" fill="#fff"/><path d="M39.13,324.27v-.43c0-8.95,6.66-14.59,15.28-14.59s15.18,5.49,15.18,14.33V324c0,9.05-6.66,14.49-15.23,14.49S39.13,333.27,39.13,324.27Zm20.77-.16v-.43c0-4.68-1.87-7.29-5.49-7.29s-5.54,2.5-5.54,7.19V324c0,4.79,1.87,7.4,5.54,7.4S59.9,328.74,59.9,324.11Z" fill="#fff"/><path d="M72.94,310h9.53v5.53c1.76-4.15,4.69-6,9-5.91v8.9c-5.8-.16-9,1.65-9,6.12v13.21H72.94Z" fill="#fff"/><path d="M113.36,335l-11.13-25h10.33l5.75,14.85L123.64,310h9.1l-14.91,37.17h-9.1Z" fill="#fff"/><path d="M132.21,324.27v-.43c0-8.95,6.65-14.59,15.28-14.59s15.18,5.49,15.18,14.33V324c0,9.05-6.66,14.49-15.23,14.49S132.21,333.27,132.21,324.27Zm20.77-.16v-.43c0-4.68-1.87-7.29-5.49-7.29s-5.54,2.5-5.54,7.19V324c0,4.79,1.87,7.4,5.54,7.4S153,328.74,153,324.11Z" fill="#fff"/><path d="M165.81,328.15V310h9.53v16.61c0,3.14,1.23,4.69,3.94,4.69,2.88,0,4.74-1.71,4.74-5.28V310h9.53v27.85H184v-4.32c-1.49,2.88-4.21,5-8.84,5C169.8,338.49,165.81,335.18,165.81,328.15Z" fill="#fff"/><path d="M198,333.05a5.31,5.31,0,0,1,5.44-5.37,5.38,5.38,0,1,1,0,10.75A5.31,5.31,0,0,1,198,333.05Z" fill="#fff"/></g></g></svg>