<svg xmlns="http://www.w3.org/2000/svg" viewBox="0 0 300 600"><title>Asset 6</title><g id="Layer_2" data-name="Layer 2"><g id="Rect"><rect width="300" height="600" fill="none"/></g><g id="No_charges._No_worries._Audit_Assistance_now_free." data-name="No charges. No worries. Audit Assistance now free."><path d="M22.16,128.74H32.72L43.2,147.18V128.74h8.19v32.71H42.33L30.39,140.91v20.54H22.16Z" fill="#fff"/><path d="M54.69,149.78v-.36c0-7.69,5.71-12.54,13.12-12.54s13,4.72,13,12.31v.37c0,7.77-5.72,12.44-13.08,12.44S54.69,157.52,54.69,149.78Zm17.84-.13v-.37c0-4-1.61-6.27-4.72-6.27s-4.75,2.15-4.75,6.18v.37c0,4.11,1.6,6.35,4.75,6.35S72.53,153.63,72.53,149.65Z" fill="#fff"/><path d="M90.78,149.78v-.36c0-8,5.72-12.54,12.76-12.54,5.86,0,11.26,2.57,11.72,9.84h-7.69c-.37-2.24-1.46-3.48-3.84-3.48-2.88,0-4.58,2.06-4.58,6.09v.36c0,4.17,1.6,6.32,4.71,6.32,2.29,0,3.89-1.38,4.17-4h7.36c-.23,6-4.3,10-12,10C96.23,162,90.78,157.84,90.78,149.78Z" fill="#fff"/><path d="M118.05,127h8.19v14.37a8.44,8.44,0,0,1,7.86-4.49c4.62,0,7.83,2.89,7.83,9v15.55h-8.19V147.54c0-2.7-1.05-4-3.43-4s-4.07,1.46-4.07,4.53v13.4h-8.19Z" fill="#fff"/><path d="M144.54,154.82c0-5.63,4.75-7.83,12.71-7.83h2.29v-.55c0-2.28-.55-3.79-3.16-3.79a2.93,2.93,0,0,0-3.24,2.83h-7.69c.37-5.76,4.9-8.6,11.44-8.6s10.79,2.7,10.79,9.06v15.51h-8v-2.79c-1.14,1.74-3.24,3.34-7.09,3.34C148.33,162,144.54,159.89,144.54,154.82Zm15-1.74v-1.47h-2.15c-3.29,0-4.76.64-4.76,2.61,0,1.37.92,2.24,2.84,2.24C157.8,156.46,159.54,155.14,159.54,153.08Z" fill="#fff"/><path d="M171.67,137.52h8.18v4.76a7.55,7.55,0,0,1,7.73-5.08v7.64c-5-.13-7.73,1.42-7.73,5.26v11.35h-8.18Z" fill="#fff"/><path d="M189,161.45h8.15c.36,1.74,1.42,3.11,4.39,3.11,3.61,0,5.08-2.06,5.08-5v-3.66a8.4,8.4,0,0,1-7.41,4.39c-5.58,0-10.16-4.12-10.16-11.48v-.37c0-7,4.53-11.53,10.16-11.53,3.79,0,6,1.6,7.41,4v-3.39h8.19v21.92c0,7.13-4.72,10.88-13.27,10.88C193.4,170.32,189.65,166.89,189,161.45Zm17.85-12.72v-.32c0-3.29-1.7-5.4-4.72-5.4s-4.71,2.15-4.71,5.45v.36c0,3.3,1.74,5.4,4.67,5.4S206.85,152.12,206.85,148.73Z" fill="#fff"/><path d="M217.69,149.78v-.36c0-7.69,5.72-12.54,12.95-12.54,6.54,0,12.16,3.75,12.16,12.36v2.15H226c.23,3.15,2.06,5,5,5,2.7,0,3.84-1.23,4.16-2.83h7.68c-.73,5.39-4.89,8.46-12.12,8.46C223.18,162,217.69,157.61,217.69,149.78Zm17.15-3c-.13-2.89-1.55-4.49-4.2-4.49-2.47,0-4.17,1.6-4.58,4.49Z" fill="#fff"/><path d="M244.27,153.86h7.55c.27,1.73,1.05,2.69,3.38,2.69,2,0,2.93-.77,2.93-2s-1.14-1.69-4.44-2.15c-6.4-.83-9.1-2.7-9.1-7.69,0-5.3,4.71-7.87,10.25-7.87,5.9,0,10,2,10.56,7.73H258c-.32-1.6-1.19-2.37-3.06-2.37s-2.7.77-2.7,1.87,1.1,1.6,4,2c6.63.82,9.83,2.56,9.83,7.68,0,5.68-4.21,8.24-10.84,8.24C248.43,162,244.45,159.16,244.27,153.86Z" fill="#fff"/><path d="M268.43,157.33a4.56,4.56,0,0,1,4.66-4.62,4.62,4.62,0,1,1,0,9.24A4.56,4.56,0,0,1,268.43,157.33Z" fill="#fff"/><path d="M22.16,176.49H32.72L43.2,194.93V176.49h8.19V209.2H42.33L30.39,188.66V209.2H22.16Z" fill="#fff"/><path d="M54.69,197.53v-.36c0-7.69,5.71-12.54,13.12-12.54s13,4.72,13,12.31v.37c0,7.77-5.72,12.44-13.08,12.44S54.69,205.27,54.69,197.53Zm17.84-.13V197c0-4-1.61-6.27-4.72-6.27s-4.75,2.15-4.75,6.18v.37c0,4.11,1.6,6.35,4.75,6.35S72.53,201.38,72.53,197.4Z" fill="#fff"/><path d="M90.05,185.27H98.6l3.48,14.32,4-14.32h6.58l3.57,14.32,3.89-14.32h7.78l-7.6,23.93h-7.82l-3.57-13.36-3.7,13.36h-8Z" fill="#fff"/><path d="M127.7,197.53v-.36c0-7.69,5.72-12.54,13.13-12.54s13,4.72,13,12.31v.37c0,7.77-5.72,12.44-13.09,12.44S127.7,205.27,127.7,197.53Zm17.84-.13V197c0-4-1.6-6.27-4.71-6.27s-4.76,2.15-4.76,6.18v.37c0,4.11,1.6,6.35,4.76,6.35S145.54,201.38,145.54,197.4Z" fill="#fff"/><path d="M156.75,185.27h8.19V190a7.55,7.55,0,0,1,7.73-5.08v7.64c-5-.13-7.73,1.42-7.73,5.26V209.2h-8.19Z" fill="#fff"/><path d="M175.65,185.27h8.18V190a7.55,7.55,0,0,1,7.74-5.08v7.64c-5-.13-7.74,1.42-7.74,5.26V209.2h-8.18Z" fill="#fff"/><path d="M194.36,178.78a4.27,4.27,0,0,1,4.48-4.26,4.24,4.24,0,1,1,0,8.47A4.24,4.24,0,0,1,194.36,178.78Zm.41,6.49H203V209.2h-8.19Z" fill="#fff"/><path d="M206.07,197.53v-.36c0-7.69,5.72-12.54,13-12.54,6.54,0,12.16,3.75,12.16,12.36v2.15H214.35c.23,3.15,2.06,5,5,5,2.7,0,3.84-1.23,4.16-2.83h7.68c-.73,5.39-4.89,8.46-12.12,8.46C211.56,209.75,206.07,205.36,206.07,197.53Zm17.15-3c-.13-2.89-1.55-4.49-4.2-4.49-2.47,0-4.17,1.6-4.58,4.49Z" fill="#fff"/><path d="M232.65,201.61h7.55c.27,1.73,1.05,2.69,3.38,2.69,2,0,2.93-.77,2.93-2s-1.14-1.69-4.44-2.15c-6.4-.83-9.1-2.7-9.1-7.69,0-5.3,4.71-7.87,10.25-7.87,5.9,0,10,2,10.56,7.73h-7.41c-.32-1.6-1.19-2.37-3.06-2.37s-2.7.77-2.7,1.87,1.1,1.6,4,2c6.64.82,9.84,2.56,9.84,7.68,0,5.68-4.21,8.24-10.84,8.24C236.81,209.75,232.83,206.91,232.65,201.61Z" fill="#fff"/><path d="M256.81,205.08a4.56,4.56,0,0,1,4.66-4.62,4.62,4.62,0,1,1,0,9.24A4.56,4.56,0,0,1,256.81,205.08Z" fill="#fff"/><path d="M30.07,224.24H42.19L52.58,257H42.65l-1.74-6.08H30.07L28.33,257H19.59Zm1.83,20.18h7.18l-3.57-12.59Z" fill="#fff"/><path d="M54,248.62V233h8.19V247.3c0,2.7,1.05,4,3.39,4s4.07-1.46,4.07-4.53V233h8.19V257H69.69v-3.71c-1.28,2.47-3.61,4.26-7.59,4.26C57.48,257.5,54,254.66,54,248.62Z" fill="#fff"/><path d="M80.85,245.24v-.37c0-8.14,4.49-12.49,10.16-12.49,3.75,0,6,1.6,7.36,4V222.5h8.19V257H98.37v-3.89a8.06,8.06,0,0,1-7.45,4.44C85.38,257.5,80.85,253.52,80.85,245.24Zm17.75-.14v-.36c0-4-1.69-6.18-4.71-6.18s-4.71,2.06-4.71,6.22v.37c0,4,1.78,6.08,4.62,6.08S98.6,249.17,98.6,245.1Z" fill="#fff"/><path d="M110.54,226.53a4.52,4.52,0,1,1,4.49,4.21A4.28,4.28,0,0,1,110.54,226.53ZM111,233h8.19V257H111Z" fill="#fff"/><path d="M124.64,249.26V238.61h-2.89V233h2.89v-5h8.18v5h4.72v5.59h-4.72v9.88a2.19,2.19,0,0,0,2.43,2.51,6.13,6.13,0,0,0,2.33-.41v6.22a16.93,16.93,0,0,1-4.53.69C127.65,257.5,124.64,254.89,124.64,249.26Z" fill="#fff"/><path d="M30.07,272H42.19L52.58,304.7H42.65l-1.74-6.08H30.07l-1.74,6.08H19.59Zm1.83,20.18h7.18l-3.57-12.59Z" fill="#fff"/><path d="M53.18,297.11h7.54c.28,1.73,1.06,2.69,3.39,2.69,2,0,2.93-.77,2.93-2s-1.15-1.69-4.44-2.15c-6.41-.83-9.1-2.7-9.1-7.69,0-5.3,4.71-7.87,10.24-7.87,5.9,0,10,2,10.57,7.73H66.9c-.32-1.6-1.19-2.37-3.07-2.37s-2.69.77-2.69,1.87,1.09,1.6,4,2c6.63.82,9.84,2.56,9.84,7.68,0,5.68-4.21,8.24-10.85,8.24C57.34,305.25,53.36,302.41,53.18,297.11Z" fill="#fff"/><path d="M76.19,297.11h7.55c.27,1.73,1.05,2.69,3.38,2.69,2,0,2.93-.77,2.93-2s-1.15-1.69-4.44-2.15c-6.4-.83-9.1-2.7-9.1-7.69,0-5.3,4.71-7.87,10.24-7.87,5.91,0,10,2,10.57,7.73H89.91c-.32-1.6-1.19-2.37-3.06-2.37s-2.7.77-2.7,1.87,1.09,1.6,4,2c6.64.82,9.84,2.56,9.84,7.68,0,5.68-4.21,8.24-10.84,8.24C80.35,305.25,76.37,302.41,76.19,297.11Z" fill="#fff"/><path d="M100.48,274.28A4.27,4.27,0,0,1,105,270a4.24,4.24,0,1,1,0,8.47A4.24,4.24,0,0,1,100.48,274.28Zm.41,6.49h8.19V304.7h-8.19Z" fill="#fff"/><path d="M111.87,297.11h7.55c.27,1.73,1,2.69,3.39,2.69,2,0,2.92-.77,2.92-2s-1.14-1.69-4.43-2.15c-6.41-.83-9.11-2.7-9.11-7.69,0-5.3,4.71-7.87,10.25-7.87,5.9,0,10,2,10.57,7.73H125.6c-.32-1.6-1.19-2.37-3.07-2.37s-2.7.77-2.7,1.87,1.1,1.6,4,2c6.63.82,9.83,2.56,9.83,7.68,0,5.68-4.21,8.24-10.84,8.24C116,305.25,112.06,302.41,111.87,297.11Z" fill="#fff"/><path d="M137.45,297V286.36h-2.89v-5.59h2.89v-5h8.18v5h4.72v5.59h-4.72v9.88a2.19,2.19,0,0,0,2.43,2.51,6.13,6.13,0,0,0,2.33-.41v6.22a16.93,16.93,0,0,1-4.53.69C140.47,305.25,137.45,302.64,137.45,297Z" fill="#fff"/><path d="M152.18,298.07c0-5.63,4.75-7.83,12.71-7.83h2.29v-.55c0-2.28-.55-3.79-3.15-3.79a2.93,2.93,0,0,0-3.25,2.83h-7.69c.37-5.76,4.9-8.6,11.44-8.6s10.79,2.7,10.79,9.06V304.7h-7.95v-2.79c-1.15,1.74-3.25,3.34-7.1,3.34C156,305.25,152.18,303.14,152.18,298.07Zm15-1.74v-1.47H165c-3.29,0-4.76.64-4.76,2.61,0,1.37.92,2.24,2.84,2.24C165.44,299.71,167.18,298.39,167.18,296.33Z" fill="#fff"/><path d="M179.31,280.77h8.19v3.85a8.44,8.44,0,0,1,7.86-4.49c4.62,0,7.83,2.89,7.83,9V304.7H195V290.79c0-2.7-1.05-4-3.43-4s-4.07,1.46-4.07,4.53v13.4h-8.19Z" fill="#fff"/><path d="M205.89,293v-.36c0-8,5.72-12.54,12.76-12.54,5.86,0,11.25,2.57,11.71,9.84h-7.68c-.37-2.24-1.47-3.48-3.85-3.48-2.88,0-4.57,2.06-4.57,6.09v.36c0,4.17,1.6,6.32,4.71,6.32,2.29,0,3.89-1.38,4.16-4h7.37c-.23,6-4.3,10-12,10C211.33,305.25,205.89,301.08,205.89,293Z" fill="#fff"/><path d="M231.87,293v-.36c0-7.69,5.72-12.54,12.95-12.54,6.54,0,12.17,3.75,12.17,12.36v2.15H240.15c.23,3.15,2.06,5,5,5,2.7,0,3.84-1.23,4.16-2.83H257c-.74,5.39-4.9,8.46-12.13,8.46C237.36,305.25,231.87,300.86,231.87,293ZM249,290c-.14-2.89-1.56-4.49-4.21-4.49-2.47,0-4.16,1.6-4.58,4.49Z" fill="#fff"/><path d="M21.42,328.52h8.19v3.85a8.45,8.45,0,0,1,7.87-4.49c4.62,0,7.82,2.89,7.82,9v15.55H37.12V338.54c0-2.7-1.06-4-3.44-4s-4.07,1.46-4.07,4.53v13.4H21.42Z" fill="#fff"/><path d="M48,340.78v-.36c0-7.69,5.72-12.54,13.13-12.54s13,4.72,13,12.31v.37c0,7.77-5.72,12.44-13.08,12.44S48,348.52,48,340.78Zm17.85-.13v-.37c0-4-1.61-6.27-4.72-6.27s-4.75,2.15-4.75,6.18v.37c0,4.11,1.6,6.35,4.75,6.35S65.85,344.63,65.85,340.65Z" fill="#fff"/><path d="M74.27,328.52h8.55l3.48,14.32,4-14.32h6.59l3.57,14.32,3.89-14.32h7.77l-7.59,23.93H96.73l-3.57-13.36-3.71,13.36h-8Z" fill="#fff"/><path d="M123.81,334.11h-3v-5.59h3v-2.1c0-5.95,3.71-8.78,9.38-8.78a14.81,14.81,0,0,1,3.75.5v6a7.61,7.61,0,0,0-2.24-.32c-1.92,0-2.75,1.05-2.75,2.61v2.1h4.85v5.59H132v18.34h-8.14Z" fill="#fff"/><path d="M139.55,328.52h8.19v4.76a7.54,7.54,0,0,1,7.73-5.08v7.64c-5-.13-7.73,1.42-7.73,5.26v11.35h-8.19Z" fill="#fff"/><path d="M156.93,340.78v-.36c0-7.69,5.72-12.54,12.95-12.54,6.54,0,12.17,3.75,12.17,12.36v2.14H165.21c.23,3.16,2.06,5,5,5,2.7,0,3.84-1.23,4.16-2.83h7.69c-.73,5.39-4.9,8.46-12.12,8.46C162.42,353,156.93,348.61,156.93,340.78Zm17.16-3c-.14-2.88-1.56-4.48-4.21-4.48-2.47,0-4.16,1.6-4.57,4.48Z" fill="#fff"/><path d="M183.61,340.78v-.36c0-7.69,5.71-12.54,12.94-12.54,6.54,0,12.17,3.75,12.17,12.36v2.14H191.89c.22,3.16,2.05,5,5,5,2.7,0,3.84-1.23,4.17-2.83h7.68c-.73,5.39-4.89,8.46-12.12,8.46C189.1,353,183.61,348.61,183.61,340.78Zm17.15-3c-.14-2.88-1.55-4.48-4.21-4.48-2.47,0-4.16,1.6-4.57,4.48Z" fill="#fff"/><path d="M211,348.33a4.56,4.56,0,0,1,4.67-4.62,4.62,4.62,0,1,1,0,9.24A4.56,4.56,0,0,1,211,348.33Z" fill="#fff"/></g></g></svg>