<svg xmlns="http://www.w3.org/2000/svg" viewBox="0 0 728 90"><title>H3</title><g id="Layer_2" data-name="Layer 2"><g id="Rect"><rect width="728" height="90" fill="none"/></g><g id="Digital_Drop-Off_is_easy._Call_your_tax_pro_and_upload_your_doc" data-name="Digital Drop-Off is easy. Call your tax pro and upload your doc"><path d="M117.81,21.26h6.84c6.68,0,10.07,3.34,10.07,9.18v.21c0,5.86-3.47,9.41-10.1,9.41h-6.81Zm6.66,14.65c3.2,0,4.62-1.68,4.62-5.18v-.21c0-3.58-1.42-5.1-4.68-5.1h-1.18V35.91Z" fill="#fff"/><path d="M136.43,22.58A2.46,2.46,0,0,1,139,20.13,2.44,2.44,0,1,1,139,25,2.43,2.43,0,0,1,136.43,22.58Zm.23,3.73h4.71V40.06h-4.71Z" fill="#fff"/><path d="M143.13,40.06h4.68c.21,1,.81,1.79,2.52,1.79A2.6,2.6,0,0,0,153.25,39V36.85A4.82,4.82,0,0,1,149,39.38c-3.21,0-5.83-2.37-5.83-6.6v-.21c0-4.05,2.6-6.63,5.83-6.63a4.47,4.47,0,0,1,4.26,2.32v-2H158v12.6c0,4.1-2.71,6.25-7.63,6.25C145.65,45.16,143.5,43.19,143.13,40.06Zm10.25-7.31v-.18c0-1.89-1-3.1-2.71-3.1S148,30.7,148,32.6v.21c0,1.89,1,3.1,2.68,3.1S153.38,34.7,153.38,32.75Z" fill="#fff"/><path d="M160.24,22.58A2.6,2.6,0,1,1,162.82,25,2.47,2.47,0,0,1,160.24,22.58Zm.24,3.73h4.71V40.06h-4.71Z" fill="#fff"/><path d="M168.34,35.65V29.52h-1.66V26.31h1.66V23.45h4.71v2.86h2.7v3.21h-2.7V35.2a1.25,1.25,0,0,0,1.39,1.44,3.52,3.52,0,0,0,1.34-.23V40a9.72,9.72,0,0,1-2.6.4C170.08,40.38,168.34,38.88,168.34,35.65Z" fill="#fff"/><path d="M176.8,36.25c0-3.23,2.74-4.5,7.31-4.5h1.32v-.31c0-1.32-.32-2.18-1.82-2.18a1.68,1.68,0,0,0-1.86,1.63h-4.42c.21-3.32,2.81-4.95,6.57-4.95s6.21,1.56,6.21,5.21v8.91h-4.58v-1.6a4.49,4.49,0,0,1-4.07,1.92C179,40.38,176.8,39.17,176.8,36.25Zm8.63-1v-.84h-1.24c-1.89,0-2.73.37-2.73,1.5,0,.79.52,1.29,1.63,1.29A2.08,2.08,0,0,0,185.43,35.25Z" fill="#fff"/><path d="M192.52,20.27h4.68V40.06h-4.68Z" fill="#fff"/><path d="M204.93,21.26h6.84c6.68,0,10.07,3.34,10.07,9.18v.21c0,5.86-3.47,9.41-10.1,9.41h-6.81Zm6.65,14.65c3.21,0,4.63-1.68,4.63-5.18v-.21c0-3.58-1.42-5.1-4.68-5.1h-1.18V35.91Z" fill="#fff"/><path d="M223.65,26.31h4.71v2.74a4.32,4.32,0,0,1,4.44-2.92v4.39c-2.87-.08-4.44.81-4.44,3v6.52h-4.71Z" fill="#fff"/><path d="M233.64,33.36v-.21c0-4.42,3.29-7.21,7.54-7.21s7.5,2.71,7.5,7.08v.21c0,4.47-3.29,7.15-7.52,7.15S233.64,37.8,233.64,33.36Zm10.25-.08v-.21c0-2.32-.92-3.6-2.71-3.6s-2.73,1.23-2.73,3.55v.21c0,2.36.92,3.65,2.73,3.65S243.89,35.57,243.89,33.28Z" fill="#fff"/><path d="M250.33,26.31H255v2.05a4.86,4.86,0,0,1,4.28-2.42c3.21,0,5.81,2.42,5.81,7.13v.21c0,4.73-2.6,7.1-5.83,7.1A4.54,4.54,0,0,1,255,38v6.62h-4.71Zm10,7v-.21c0-2.42-1.05-3.58-2.71-3.58s-2.73,1.24-2.73,3.55v.21c0,2.34,1,3.53,2.73,3.53S260.35,35.54,260.35,33.28Z" fill="#fff"/><path d="M266.79,30.78h7.36v3.55h-7.36Z" fill="#fff"/><path d="M275.91,30.78v-.21c0-5.73,4.31-9.57,9.94-9.57s10,3.6,10,9.44v.21c0,5.78-4,9.73-10,9.73S275.91,36.43,275.91,30.78Zm14.28-.05v-.21c0-3.34-1.69-5.31-4.34-5.31s-4.31,1.92-4.31,5.33v.21c0,3.42,1.73,5.39,4.33,5.39S290.19,34.09,290.19,30.73Z" fill="#fff"/><path d="M298.54,29.52h-1.73V26.31h1.73v-1c0-3.42,2.11-5,5.37-5a7.81,7.81,0,0,1,2.1.26V24a4,4,0,0,0-1.26-.19,1.38,1.38,0,0,0-1.53,1.5v1h4V25.1c0-3.42,2.16-5.05,5.39-5.05a8.82,8.82,0,0,1,2.16.29v3.45a4.24,4.24,0,0,0-1.29-.19,1.37,1.37,0,0,0-1.55,1.5v1.21h2.78v3.21h-2.78V40.06h-4.71V29.52h-4V40.06h-4.68Z" fill="#fff"/><path d="M320.94,22.58A2.6,2.6,0,1,1,323.52,25,2.47,2.47,0,0,1,320.94,22.58Zm.24,3.73h4.7V40.06h-4.7Z" fill="#fff"/><path d="M327.49,35.7h4.33c.16,1,.61,1.55,1.95,1.55,1.16,0,1.68-.45,1.68-1.13s-.65-1-2.55-1.24c-3.68-.47-5.23-1.55-5.23-4.41,0-3,2.71-4.53,5.89-4.53,3.39,0,5.76,1.16,6.07,4.45h-4.26A1.53,1.53,0,0,0,333.61,29c-1,0-1.55.45-1.55,1.08s.63.92,2.31,1.13c3.82.47,5.66,1.47,5.66,4.42,0,3.26-2.42,4.73-6.23,4.73S327.59,38.75,327.49,35.7Z" fill="#fff"/><path d="M345.6,33.36v-.21c0-4.42,3.29-7.21,7.44-7.21,3.76,0,7,2.16,7,7.1v1.24h-9.67a2.74,2.74,0,0,0,2.86,2.86c1.55,0,2.21-.71,2.4-1.63H360c-.42,3.11-2.81,4.87-7,4.87C348.75,40.38,345.6,37.85,345.6,33.36Zm9.86-1.74c-.08-1.65-.9-2.57-2.42-2.57a2.62,2.62,0,0,0-2.63,2.57Z" fill="#fff"/><path d="M361,36.25c0-3.23,2.74-4.5,7.31-4.5h1.32v-.31c0-1.32-.32-2.18-1.82-2.18A1.68,1.68,0,0,0,366,30.89h-4.42c.21-3.32,2.81-4.95,6.57-4.95s6.21,1.56,6.21,5.21v8.91h-4.58v-1.6a4.49,4.49,0,0,1-4.07,1.92C363.19,40.38,361,39.17,361,36.25Zm8.63-1v-.84h-1.24c-1.89,0-2.73.37-2.73,1.5,0,.79.52,1.29,1.63,1.29A2.08,2.08,0,0,0,369.63,35.25Z" fill="#fff"/><path d="M375.67,35.7H380c.16,1,.6,1.55,1.95,1.55,1.15,0,1.68-.45,1.68-1.13s-.66-1-2.55-1.24c-3.68-.47-5.23-1.55-5.23-4.41,0-3,2.7-4.53,5.89-4.53,3.39,0,5.75,1.16,6.07,4.45h-4.26A1.53,1.53,0,0,0,381.8,29c-1,0-1.55.45-1.55,1.08s.63.92,2.31,1.13c3.81.47,5.65,1.47,5.65,4.42,0,3.26-2.42,4.73-6.23,4.73S375.78,38.75,375.67,35.7Z" fill="#fff"/><path d="M393.6,38.67l-5.49-12.36h5.1l2.84,7.34,2.62-7.34h4.5l-7.36,18.35h-4.5Z" fill="#fff"/><path d="M402.17,37.7A2.62,2.62,0,0,1,404.85,35a2.66,2.66,0,1,1,0,5.31A2.62,2.62,0,0,1,402.17,37.7Z" fill="#fff"/><path d="M414.05,30.78v-.21a9.2,9.2,0,0,1,9.6-9.6c4.89,0,8.28,2.27,8.73,7.23h-5.55a2.94,2.94,0,0,0-3.16-3c-2.41,0-3.94,1.9-3.94,5.31v.21c0,3.4,1.45,5.32,4,5.32a3.23,3.23,0,0,0,3.5-3.08h5.36c-.36,4.86-3.89,7.39-8.75,7.39C417.29,40.38,414.05,36.54,414.05,30.78Z" fill="#fff"/><path d="M433.45,36.25c0-3.23,2.74-4.5,7.31-4.5h1.32v-.31c0-1.32-.32-2.18-1.82-2.18a1.68,1.68,0,0,0-1.86,1.63H434c.21-3.32,2.81-4.95,6.57-4.95s6.21,1.56,6.21,5.21v8.91h-4.58v-1.6a4.52,4.52,0,0,1-4.07,1.92C435.63,40.38,433.45,39.17,433.45,36.25Zm8.63-1v-.84h-1.24c-1.89,0-2.73.37-2.73,1.5,0,.79.52,1.29,1.63,1.29A2.08,2.08,0,0,0,442.08,35.25Z" fill="#fff"/><path d="M449.17,20.27h4.68V40.06h-4.68Z" fill="#fff"/><path d="M456.51,20.27h4.68V40.06h-4.68Z" fill="#fff"/><path d="M472.8,38.67l-5.49-12.36h5.1l2.84,7.34,2.63-7.34h4.5L475,44.66h-4.49Z" fill="#fff"/><path d="M482.11,33.36v-.21c0-4.42,3.29-7.21,7.55-7.21s7.49,2.71,7.49,7.08v.21c0,4.47-3.29,7.15-7.52,7.15S482.11,37.8,482.11,33.36Zm10.26-.08v-.21c0-2.32-.93-3.6-2.71-3.6s-2.74,1.23-2.74,3.55v.21c0,2.36.92,3.65,2.74,3.65S492.37,35.57,492.37,33.28Z" fill="#fff"/><path d="M498.7,35.28v-9h4.71v8.2c0,1.56.6,2.32,1.94,2.32s2.34-.84,2.34-2.6V26.31h4.71V40.06h-4.71V37.93a4.52,4.52,0,0,1-4.36,2.45C500.67,40.38,498.7,38.75,498.7,35.28Z" fill="#fff"/><path d="M514.79,26.31h4.7v2.74a4.34,4.34,0,0,1,4.45-2.92v4.39c-2.87-.08-4.45.81-4.45,3v6.52h-4.7Z" fill="#fff"/><path d="M118,65.69V59.56h-1.65v-3.2H118V53.49h4.71v2.87h2.71v3.2h-2.71v5.68c0,1,.5,1.45,1.39,1.45a3.52,3.52,0,0,0,1.34-.24V70a10.14,10.14,0,0,1-2.6.39C119.76,70.42,118,68.92,118,65.69Z" fill="#fff"/><path d="M126.49,66.29c0-3.23,2.73-4.49,7.31-4.49h1.31v-.32c0-1.31-.31-2.18-1.81-2.18a1.69,1.69,0,0,0-1.87,1.63H127c.22-3.31,2.82-4.94,6.58-4.94s6.2,1.55,6.2,5.2v8.92h-4.57V68.5a4.53,4.53,0,0,1-4.08,1.92C128.67,70.42,126.49,69.21,126.49,66.29Zm8.62-1v-.84h-1.23c-1.9,0-2.74.37-2.74,1.5,0,.79.53,1.29,1.63,1.29A2.07,2.07,0,0,0,135.11,65.29Z" fill="#fff"/><path d="M145.55,63.11l-4.29-6.75h5.42L148.81,60l2.08-3.62h4.83l-4.34,6.38,4.76,7.37h-5.41L148.28,66l-2.49,4.11H141Z" fill="#fff"/><path d="M162.24,56.36H167v2A4.84,4.84,0,0,1,171.23,56c3.21,0,5.81,2.42,5.81,7.12v.21c0,4.73-2.6,7.1-5.83,7.1A4.52,4.52,0,0,1,167,68.08v6.63h-4.71Zm10,7v-.21c0-2.42-1-3.57-2.71-3.57s-2.73,1.23-2.73,3.55v.21c0,2.34,1,3.52,2.73,3.52S172.26,65.58,172.26,63.32Z" fill="#fff"/><path d="M178.75,56.36h4.71v2.73a4.32,4.32,0,0,1,4.44-2.92v4.39c-2.87-.08-4.44.82-4.44,3v6.53h-4.71Z" fill="#fff"/><path d="M188.74,63.4v-.21c0-4.42,3.29-7.2,7.54-7.2s7.5,2.71,7.5,7.07v.21c0,4.47-3.29,7.15-7.52,7.15S188.74,67.84,188.74,63.4ZM199,63.32v-.21c0-2.31-.92-3.6-2.71-3.6s-2.73,1.24-2.73,3.55v.21c0,2.37.92,3.65,2.73,3.65S199,65.61,199,63.32Z" fill="#fff"/><path d="M209.43,66.29c0-3.23,2.73-4.49,7.31-4.49h1.31v-.32c0-1.31-.31-2.18-1.81-2.18a1.69,1.69,0,0,0-1.87,1.63H210c.21-3.31,2.82-4.94,6.58-4.94s6.2,1.55,6.2,5.2v8.92h-4.57V68.5a4.53,4.53,0,0,1-4.08,1.92C211.61,70.42,209.43,69.21,209.43,66.29Zm8.62-1v-.84h-1.23c-1.9,0-2.74.37-2.74,1.5,0,.79.53,1.29,1.63,1.29A2.07,2.07,0,0,0,218.05,65.29Z" fill="#fff"/><path d="M225,56.36h4.7v2.2A4.86,4.86,0,0,1,234.24,56c2.66,0,4.5,1.65,4.5,5.18v8.94H234v-8c0-1.55-.6-2.31-2-2.31s-2.34.84-2.34,2.6v7.71H225Z" fill="#fff"/><path d="M240.34,63.38v-.21c0-4.68,2.58-7.18,5.84-7.18a4.46,4.46,0,0,1,4.23,2.31v-8h4.71v19.8h-4.71V67.87a4.63,4.63,0,0,1-4.28,2.55C242.94,70.42,240.34,68.13,240.34,63.38Zm10.2-.08v-.21c0-2.32-1-3.55-2.71-3.55s-2.7,1.18-2.7,3.57v.21c0,2.32,1,3.5,2.65,3.5S250.54,65.64,250.54,63.3Z" fill="#fff"/><path d="M262.19,65.32v-9h4.7v8.2c0,1.55.61,2.31,1.95,2.31s2.34-.84,2.34-2.6V56.36h4.71V70.11h-4.71V68a4.52,4.52,0,0,1-4.37,2.44C264.16,70.42,262.19,68.79,262.19,65.32Z" fill="#fff"/><path d="M278.28,56.36H283v2A4.85,4.85,0,0,1,287.27,56c3.2,0,5.81,2.42,5.81,7.12v.21c0,4.73-2.61,7.1-5.84,7.1A4.54,4.54,0,0,1,283,68.08v6.63h-4.7Zm10,7v-.21c0-2.42-1.05-3.57-2.71-3.57s-2.73,1.23-2.73,3.55v.21c0,2.34,1,3.52,2.73,3.52S288.29,65.58,288.29,63.32Z" fill="#fff"/><path d="M294.92,50.31h4.68v19.8h-4.68Z" fill="#fff"/><path d="M301.38,63.4v-.21c0-4.42,3.29-7.2,7.55-7.2s7.49,2.71,7.49,7.07v.21c0,4.47-3.29,7.15-7.52,7.15S301.38,67.84,301.38,63.4Zm10.26-.08v-.21c0-2.31-.92-3.6-2.71-3.6s-2.74,1.24-2.74,3.55v.21c0,2.37.92,3.65,2.74,3.65S311.64,65.61,311.64,63.32Z" fill="#fff"/><path d="M317.29,66.29c0-3.23,2.73-4.49,7.31-4.49h1.31v-.32c0-1.31-.32-2.18-1.81-2.18a1.69,1.69,0,0,0-1.87,1.63h-4.42c.21-3.31,2.82-4.94,6.58-4.94s6.2,1.55,6.2,5.2v8.92H326V68.5a4.53,4.53,0,0,1-4.08,1.92C319.47,70.42,317.29,69.21,317.29,66.29Zm8.62-1v-.84h-1.24c-1.89,0-2.73.37-2.73,1.5,0,.79.53,1.29,1.63,1.29A2.07,2.07,0,0,0,325.91,65.29Z" fill="#fff"/><path d="M332.19,63.38v-.21c0-4.68,2.58-7.18,5.84-7.18a4.46,4.46,0,0,1,4.23,2.31v-8H347v19.8h-4.71V67.87A4.63,4.63,0,0,1,338,70.42C334.79,70.42,332.19,68.13,332.19,63.38Zm10.2-.08v-.21c0-2.32-1-3.55-2.71-3.55s-2.7,1.18-2.7,3.57v.21c0,2.32,1,3.5,2.65,3.5S342.39,65.64,342.39,63.3Z" fill="#fff"/><path d="M358.45,68.71,353,56.36h5.1l2.84,7.33,2.63-7.33H368l-7.36,18.35h-4.49Z" fill="#fff"/><path d="M367.76,63.4v-.21c0-4.42,3.29-7.2,7.55-7.2s7.49,2.71,7.49,7.07v.21c0,4.47-3.29,7.15-7.52,7.15S367.76,67.84,367.76,63.4ZM378,63.32v-.21c0-2.31-.92-3.6-2.7-3.6s-2.74,1.24-2.74,3.55v.21c0,2.37.92,3.65,2.74,3.65S378,65.61,378,63.32Z" fill="#fff"/><path d="M384.35,65.32v-9h4.7v8.2c0,1.55.61,2.31,1.95,2.31s2.34-.84,2.34-2.6V56.36H398V70.11h-4.7V68A4.52,4.52,0,0,1,389,70.42C386.32,70.42,384.35,68.79,384.35,65.32Z" fill="#fff"/><path d="M400.44,56.36h4.7v2.73a4.34,4.34,0,0,1,4.45-2.92v4.39c-2.87-.08-4.45.82-4.45,3v6.53h-4.7Z" fill="#fff"/><path d="M415.39,63.38v-.21c0-4.68,2.58-7.18,5.84-7.18a4.45,4.45,0,0,1,4.23,2.31v-8h4.71v19.8h-4.71V67.87a4.63,4.63,0,0,1-4.28,2.55C418,70.42,415.39,68.13,415.39,63.38Zm10.2-.08v-.21c0-2.32-1-3.55-2.7-3.55s-2.71,1.18-2.71,3.57v.21c0,2.32,1,3.5,2.65,3.5S425.59,65.64,425.59,63.3Z" fill="#fff"/><path d="M431.82,63.4v-.21c0-4.42,3.29-7.2,7.55-7.2s7.49,2.71,7.49,7.07v.21c0,4.47-3.28,7.15-7.52,7.15S431.82,67.84,431.82,63.4Zm10.26-.08v-.21c0-2.31-.92-3.6-2.71-3.6s-2.74,1.24-2.74,3.55v.21c0,2.37.92,3.65,2.74,3.65S442.08,65.61,442.08,63.32Z" fill="#fff"/><path d="M447.78,63.4v-.21c0-4.57,3.29-7.2,7.34-7.2,3.36,0,6.46,1.47,6.73,5.65h-4.42a2,2,0,0,0-2.21-2c-1.65,0-2.63,1.19-2.63,3.5v.21c0,2.39.92,3.63,2.71,3.63a2.28,2.28,0,0,0,2.39-2.29h4.24c-.14,3.47-2.48,5.73-6.92,5.73C450.91,70.42,447.78,68,447.78,63.4Z" fill="#fff"/><path d="M462.71,65.74h4.34c.16,1,.61,1.55,1.95,1.55,1.15,0,1.68-.44,1.68-1.13s-.66-1-2.55-1.23c-3.68-.48-5.23-1.55-5.23-4.42,0-3,2.7-4.52,5.89-4.52,3.39,0,5.75,1.15,6.07,4.44H470.6a1.53,1.53,0,0,0-1.76-1.37c-1,0-1.55.45-1.55,1.08s.63.92,2.31,1.13c3.81.48,5.65,1.47,5.65,4.42,0,3.26-2.42,4.73-6.23,4.73S462.82,68.79,462.71,65.74Z" fill="#fff"/><path d="M482.19,65.69V59.56h-1.65v-3.2h1.65V53.49h4.71v2.87h2.71v3.2H486.9v5.68c0,1,.5,1.45,1.39,1.45a3.52,3.52,0,0,0,1.34-.24V70a10.21,10.21,0,0,1-2.6.39C483.93,70.42,482.19,68.92,482.19,65.69Z" fill="#fff"/><path d="M490.66,63.4v-.21c0-4.42,3.28-7.2,7.54-7.2s7.49,2.71,7.49,7.07v.21c0,4.47-3.28,7.15-7.52,7.15S490.66,67.84,490.66,63.4Zm10.25-.08v-.21c0-2.31-.92-3.6-2.71-3.6s-2.73,1.24-2.73,3.55v.21c0,2.37.92,3.65,2.73,3.65S500.91,65.61,500.91,63.32Z" fill="#fff"/><path d="M506.67,63.38v-.21c0-4.68,2.57-7.18,5.83-7.18a4.47,4.47,0,0,1,4.24,2.31v-8h4.7v19.8h-4.7V67.87a4.64,4.64,0,0,1-4.29,2.55C509.27,70.42,506.67,68.13,506.67,63.38Zm10.2-.08v-.21c0-2.32-1-3.55-2.71-3.55s-2.71,1.18-2.71,3.57v.21c0,2.32,1,3.5,2.66,3.5S516.87,65.64,516.87,63.3Z" fill="#fff"/><path d="M523,66.29c0-3.23,2.74-4.49,7.31-4.49h1.32v-.32c0-1.31-.32-2.18-1.82-2.18A1.68,1.68,0,0,0,528,60.93h-4.42c.21-3.31,2.81-4.94,6.57-4.94s6.21,1.55,6.21,5.2v8.92h-4.58V68.5a4.51,4.51,0,0,1-4.07,1.92C525.23,70.42,523,69.21,523,66.29Zm8.63-1v-.84h-1.24c-1.89,0-2.73.37-2.73,1.5,0,.79.52,1.29,1.63,1.29A2.07,2.07,0,0,0,531.67,65.29Z" fill="#fff"/><path d="M542.47,68.71,537,56.36h5.1l2.84,7.33,2.62-7.33H552l-7.36,18.35h-4.5Z" fill="#fff"/><path d="M551,67.74a2.63,2.63,0,0,1,2.68-2.66,2.66,2.66,0,1,1,0,5.31A2.62,2.62,0,0,1,551,67.74Z" fill="#fff"/></g></g></svg>