<svg xmlns="http://www.w3.org/2000/svg" viewBox="0 0 119.66 31.81"><title>get_started</title><g id="Layer_2" data-name="Layer 2"><g id="Rectangle_1" data-name="Rectangle 1" style="isolation:isolate"><g id="Rectangle_1-2" data-name="Rectangle 1"><rect width="119.66" height="31.81" fill="none"/></g></g><g id="Get_started" data-name="Get started"><path d="M23.81,14.88v-.11a4.91,4.91,0,0,1,5.1-5.11c2.22,0,4.21,1,4.45,3.5H31.1a1.92,1.92,0,0,0-2.17-1.71c-1.73,0-2.76,1.3-2.76,3.35v.11c0,1.93.83,3.32,2.79,3.32a2.12,2.12,0,0,0,2.41-2.12H29.12V14.46h4.49v1.06c0,2.68-1.71,4.46-4.7,4.46A4.75,4.75,0,0,1,23.81,14.88Z" transform="translate(0 0)" fill="#262626"/><path d="M34.4,16.25v-.11a3.64,3.64,0,0,1,3.77-3.81,3.38,3.38,0,0,1,3.57,3.73v.56H36.46a1.76,1.76,0,0,0,1.82,1.92c.94,0,1.41-.41,1.53-1h1.92c-.24,1.59-1.5,2.47-3.5,2.47A3.56,3.56,0,0,1,34.4,16.25Zm5.37-.88c-.07-1.11-.63-1.64-1.6-1.64a1.68,1.68,0,0,0-1.68,1.64Z" transform="translate(0 0)" fill="#262626"/><path d="M43.17,17.65V13.94h-.94V12.5h.94V10.92h2V12.5h1.54v1.44H45.19v3.53c0,.59.29.87.81.87a1.86,1.86,0,0,0,.77-.14v1.57a3.68,3.68,0,0,1-1.23.19A2.09,2.09,0,0,1,43.17,17.65Z" transform="translate(0 0)" fill="#262626"/><path d="M50.29,17.53h1.89c.09.66.41,1,1.29,1s1.15-.29,1.15-.79-.43-.72-1.48-.87c-2-.3-2.71-.86-2.71-2.29s1.4-2.28,2.9-2.28,2.85.59,3,2.27H54.5a1,1,0,0,0-1.15-.88c-.66,0-1,.31-1,.75s.35.65,1.42.8c1.83.27,2.84.73,2.84,2.3S55.42,20,53.49,20,50.36,19.11,50.29,17.53Z" transform="translate(0 0)" fill="#262626"/><path d="M58,17.65V13.94H57V12.5H58V10.92h2V12.5h1.54v1.44H60v3.53c0,.59.29.87.81.87a1.86,1.86,0,0,0,.77-.14v1.57a3.63,3.63,0,0,1-1.23.19A2.09,2.09,0,0,1,58,17.65Z" transform="translate(0 0)" fill="#262626"/><path d="M62.28,17.79c0-1.71,1.57-2.35,3.81-2.35h.82v-.29c0-.87-.26-1.35-1.19-1.35a1.1,1.1,0,0,0-1.24,1H62.56c.12-1.74,1.5-2.51,3.29-2.51s3.07.73,3.07,2.72v4.78h-2v-.89a2.48,2.48,0,0,1-2.21,1A2.15,2.15,0,0,1,62.28,17.79Zm4.63-.53v-.61h-.78c-1.18,0-1.86.25-1.86,1,0,.53.32.88,1.06.88C66.23,18.56,66.91,18.07,66.91,17.26Z" transform="translate(0 0)" fill="#262626"/><path d="M70.44,12.5h2v1.4a2.4,2.4,0,0,1,2.37-1.51v1.89c-1.5,0-2.37.47-2.37,1.88v3.67h-2Z" transform="translate(0 0)" fill="#262626"/><path d="M76.36,17.65V13.94h-.94V12.5h.94V10.92h2V12.5h1.54v1.44H78.38v3.53c0,.59.29.87.81.87A1.86,1.86,0,0,0,80,18.2v1.57a3.63,3.63,0,0,1-1.23.19A2.09,2.09,0,0,1,76.36,17.65Z" transform="translate(0 0)" fill="#262626"/><path d="M80.67,16.25v-.11a3.64,3.64,0,0,1,3.77-3.81A3.38,3.38,0,0,1,88,16.06v.56H82.73a1.76,1.76,0,0,0,1.82,1.92c.94,0,1.41-.41,1.53-1H88C87.76,19.1,86.5,20,84.5,20A3.56,3.56,0,0,1,80.67,16.25ZM86,15.37c-.07-1.11-.63-1.64-1.6-1.64a1.68,1.68,0,0,0-1.68,1.64Z" transform="translate(0 0)" fill="#262626"/><path d="M88.7,16.27v-.11c0-2.41,1.38-3.83,3.22-3.83a2.45,2.45,0,0,1,2.31,1.26V9.18h2V19.83h-2V18.61A2.68,2.68,0,0,1,91.88,20C90.1,20,88.7,18.71,88.7,16.27Zm5.59-.07v-.12c0-1.45-.65-2.19-1.76-2.19s-1.76.77-1.76,2.22v.12c0,1.45.7,2.17,1.71,2.17S94.29,17.68,94.29,16.2Z" transform="translate(0 0)" fill="#262626"/></g></g></svg>