<svg xmlns="http://www.w3.org/2000/svg" viewBox="0 0 728 90"><title>H2</title><g id="Layer_2" data-name="Layer 2"><g id="Rect"><rect width="728" height="90" fill="none"/></g><g id="Get_expert_tax_prep_without_the_office_visit._Call_your_tax_pro" data-name="Get expert tax prep without the office visit. Call your tax pro"><path d="M115.86,30.22V30c0-6,4.42-10.1,10.37-10.1,4.68,0,8.83,2.13,9.21,7.28h-5.61c-.28-1.86-1.47-2.83-3.57-2.83-2.79,0-4.48,2.16-4.48,5.73v.22c0,3.21,1.19,5.7,4.62,5.7,2.76,0,3.82-1.41,3.93-3h-3.71V29.06h9.29v2.43c0,5-3.29,8.83-9.68,8.83C119.51,40.32,115.86,36.14,115.86,30.22Z" fill="#fff"/><path d="M137.05,32.93v-.22c0-4.65,3.45-7.58,7.83-7.58,4,0,7.35,2.27,7.35,7.47v1.3H142.05a2.89,2.89,0,0,0,3,3c1.63,0,2.32-.74,2.52-1.71h4.64c-.44,3.26-3,5.12-7.33,5.12C140.37,40.32,137.05,37.66,137.05,32.93Zm10.37-1.83c-.08-1.74-.94-2.71-2.54-2.71s-2.52,1-2.77,2.71Z" fill="#fff"/><path d="M154.61,35.34V28.89h-1.74V25.52h1.74v-3h4.95v3h2.85v3.37h-2.85v6A1.32,1.32,0,0,0,161,36.39a3.89,3.89,0,0,0,1.41-.25V39.9a10.24,10.24,0,0,1-2.74.42C156.44,40.32,154.61,38.74,154.61,35.34Z" fill="#fff"/><path d="M168.55,32.93v-.22c0-4.65,3.46-7.58,7.83-7.58,4,0,7.36,2.27,7.36,7.47v1.3H173.56a2.89,2.89,0,0,0,3,3c1.63,0,2.32-.74,2.51-1.71h4.65c-.44,3.26-3,5.12-7.33,5.12C171.87,40.32,168.55,37.66,168.55,32.93Zm10.38-1.83c-.09-1.74-.94-2.71-2.55-2.71a2.75,2.75,0,0,0-2.76,2.71Z" fill="#fff"/><path d="M188.33,32.63l-4.51-7.11h5.7l2.24,3.81L194,25.52H199l-4.57,6.72,5,7.74h-5.7l-2.57-4.31L188.58,40h-5.06Z" fill="#fff"/><path d="M200.86,25.52h4.95v2.15a5.12,5.12,0,0,1,4.51-2.54c3.38,0,6.12,2.54,6.12,7.5v.22c0,5-2.74,7.47-6.14,7.47a4.78,4.78,0,0,1-4.49-2.47v7h-4.95Zm10.54,7.33v-.22c0-2.55-1.1-3.77-2.85-3.77s-2.87,1.3-2.87,3.74v.22c0,2.46,1.08,3.71,2.87,3.71S211.4,35.23,211.4,32.85Z" fill="#fff"/><path d="M217.46,32.93v-.22c0-4.65,3.46-7.58,7.83-7.58,4,0,7.36,2.27,7.36,7.47v1.3H222.47a2.88,2.88,0,0,0,3,3c1.63,0,2.33-.74,2.52-1.71h4.65c-.45,3.26-3,5.12-7.33,5.12C220.78,40.32,217.46,37.66,217.46,32.93Zm10.37-1.83c-.08-1.74-.94-2.71-2.54-2.71s-2.52,1-2.77,2.71Z" fill="#fff"/><path d="M234.36,25.52h4.95v2.87A4.57,4.57,0,0,1,244,25.32v4.62c-3-.08-4.68.86-4.68,3.18V40h-4.95Z" fill="#fff"/><path d="M246.67,35.34V28.89h-1.74V25.52h1.74v-3h5v3h2.85v3.37h-2.85v6a1.32,1.32,0,0,0,1.47,1.52,3.89,3.89,0,0,0,1.41-.25V39.9a10.24,10.24,0,0,1-2.74.42C248.5,40.32,246.67,38.74,246.67,35.34Z" fill="#fff"/><path d="M262.05,35.34V28.89h-1.74V25.52h1.74v-3H267v3h2.85v3.37H267v6a1.32,1.32,0,0,0,1.47,1.52,3.89,3.89,0,0,0,1.41-.25V39.9a10.24,10.24,0,0,1-2.74.42C263.88,40.32,262.05,38.74,262.05,35.34Z" fill="#fff"/><path d="M271,36c0-3.4,2.87-4.73,7.69-4.73H280v-.33c0-1.38-.33-2.3-1.91-2.3a1.78,1.78,0,0,0-2,1.72h-4.65c.22-3.49,3-5.2,6.92-5.2S285,26.76,285,30.61V40h-4.82V38.3a4.75,4.75,0,0,1-4.29,2C273.25,40.32,271,39,271,36Zm9.07-1V34h-1.3c-2,0-2.88.38-2.88,1.57,0,.83.56,1.36,1.72,1.36A2.18,2.18,0,0,0,280,34.92Z" fill="#fff"/><path d="M291,32.63l-4.51-7.11h5.7l2.24,3.81,2.19-3.81h5.09l-4.57,6.72,5,7.74h-5.7l-2.57-4.31L291.26,40H286.2Z" fill="#fff"/><path d="M308.58,25.52h4.95v2.15A5.1,5.1,0,0,1,318,25.13c3.37,0,6.11,2.54,6.11,7.5v.22c0,5-2.74,7.47-6.14,7.47a4.78,4.78,0,0,1-4.48-2.47v7h-4.95Zm10.54,7.33v-.22c0-2.55-1.11-3.77-2.85-3.77s-2.88,1.3-2.88,3.74v.22c0,2.46,1.08,3.71,2.88,3.71S319.12,35.23,319.12,32.85Z" fill="#fff"/><path d="M326,25.52h4.95v2.87a4.56,4.56,0,0,1,4.68-3.07v4.62c-3-.08-4.68.86-4.68,3.18V40H326Z" fill="#fff"/><path d="M336.46,32.93v-.22c0-4.65,3.46-7.58,7.83-7.58,4,0,7.36,2.27,7.36,7.47v1.3H341.47a2.88,2.88,0,0,0,3,3c1.64,0,2.33-.74,2.52-1.71h4.65c-.44,3.26-3,5.12-7.33,5.12C339.78,40.32,336.46,37.66,336.46,32.93Zm10.38-1.83c-.09-1.74-.94-2.71-2.55-2.71s-2.52,1-2.77,2.71Z" fill="#fff"/><path d="M353.36,25.52h4.95v2.15a5.13,5.13,0,0,1,4.51-2.54c3.38,0,6.12,2.54,6.12,7.5v.22c0,5-2.74,7.47-6.14,7.47a4.78,4.78,0,0,1-4.49-2.47v7h-4.95Zm10.54,7.33v-.22c0-2.55-1.1-3.77-2.85-3.77s-2.87,1.3-2.87,3.74v.22c0,2.46,1.08,3.71,2.87,3.71S363.9,35.23,363.9,32.85Z" fill="#fff"/><path d="M374.55,25.52h5.18l2.1,8.65,2.43-8.65h4l2.15,8.65,2.36-8.65h4.7L392.87,40h-4.73L386,31.91,383.74,40h-4.82Z" fill="#fff"/><path d="M398.62,21.59a2.73,2.73,0,1,1,2.71,2.54A2.59,2.59,0,0,1,398.62,21.59Zm.25,3.93h4.95V40h-4.95Z" fill="#fff"/><path d="M407.14,35.34V28.89H405.4V25.52h1.74v-3h4.95v3h2.85v3.37h-2.85v6a1.32,1.32,0,0,0,1.47,1.52,3.93,3.93,0,0,0,1.41-.25V39.9a10.24,10.24,0,0,1-2.74.42C409,40.32,407.14,38.74,407.14,35.34Z" fill="#fff"/><path d="M416.82,19.15h4.95v8.69a5.12,5.12,0,0,1,4.76-2.71c2.79,0,4.73,1.74,4.73,5.45V40h-4.95V31.57c0-1.63-.64-2.43-2.08-2.43s-2.46.88-2.46,2.74V40h-4.95Z" fill="#fff"/><path d="M432.89,32.93v-.22c0-4.65,3.46-7.58,7.94-7.58s7.88,2.85,7.88,7.44v.22c0,4.7-3.45,7.53-7.91,7.53S432.89,37.6,432.89,32.93Zm10.79-.08v-.22c0-2.44-1-3.79-2.85-3.79S438,30.14,438,32.57v.22c0,2.49,1,3.85,2.88,3.85S443.68,35.25,443.68,32.85Z" fill="#fff"/><path d="M450.35,35V25.52h4.95v8.63c0,1.63.63,2.43,2.05,2.43s2.46-.88,2.46-2.74V25.52h4.95V40h-4.95V37.74a4.76,4.76,0,0,1-4.59,2.58C452.42,40.32,450.35,38.6,450.35,35Z" fill="#fff"/><path d="M467.94,35.34V28.89H466.2V25.52h1.74v-3h4.95v3h2.85v3.37h-2.85v6a1.32,1.32,0,0,0,1.47,1.52,3.89,3.89,0,0,0,1.41-.25V39.9a10.24,10.24,0,0,1-2.74.42C469.77,40.32,467.94,38.74,467.94,35.34Z" fill="#fff"/><path d="M483.32,35.34V28.89h-1.74V25.52h1.74v-3h4.95v3h2.85v3.37h-2.85v6a1.32,1.32,0,0,0,1.47,1.52,3.89,3.89,0,0,0,1.41-.25V39.9a10.24,10.24,0,0,1-2.74.42C485.15,40.32,483.32,38.74,483.32,35.34Z" fill="#fff"/><path d="M493,19.15H498v8.69a5.12,5.12,0,0,1,4.76-2.71c2.8,0,4.73,1.74,4.73,5.45V40h-4.95V31.57c0-1.63-.64-2.43-2.07-2.43S498,30,498,31.88V40H493Z" fill="#fff"/><path d="M509.07,32.93v-.22c0-4.65,3.46-7.58,7.83-7.58,4,0,7.36,2.27,7.36,7.47v1.3H514.08a2.88,2.88,0,0,0,3,3c1.64,0,2.33-.74,2.52-1.71h4.65c-.44,3.26-3,5.12-7.33,5.12C512.39,40.32,509.07,37.66,509.07,32.93Zm10.38-1.83c-.09-1.74-.94-2.71-2.55-2.71s-2.52,1-2.77,2.71Z" fill="#fff"/><path d="M115.69,62.55v-.22c0-4.65,3.46-7.58,7.94-7.58s7.89,2.85,7.89,7.44v.22c0,4.7-3.46,7.53-7.92,7.53S115.69,67.22,115.69,62.55Zm10.79-.08v-.22c0-2.44-1-3.79-2.85-3.79s-2.88,1.29-2.88,3.73v.22c0,2.49,1,3.85,2.88,3.85S126.48,64.87,126.48,62.47Z" fill="#fff"/><path d="M134,58.51h-1.82V55.13H134V54c0-3.6,2.22-5.28,5.65-5.28a8.6,8.6,0,0,1,2.21.27v3.63a4.33,4.33,0,0,0-1.33-.2,1.45,1.45,0,0,0-1.6,1.58v1.1h4.2V53.86c0-3.59,2.27-5.31,5.67-5.31a8.58,8.58,0,0,1,2.27.31v3.62a4.56,4.56,0,0,0-1.35-.19,1.44,1.44,0,0,0-1.63,1.57v1.27H151v3.38h-2.93V69.6h-5V58.51h-4.2V69.6H134Z" fill="#fff"/><path d="M152.54,51.21a2.73,2.73,0,1,1,2.71,2.54A2.59,2.59,0,0,1,152.54,51.21Zm.25,3.92h5V69.6h-5Z" fill="#fff"/><path d="M159.62,62.55v-.22c0-4.82,3.46-7.58,7.72-7.58,3.54,0,6.8,1.55,7.08,6h-4.65a2.14,2.14,0,0,0-2.32-2.11c-1.74,0-2.77,1.25-2.77,3.68v.22c0,2.52,1,3.82,2.85,3.82a2.42,2.42,0,0,0,2.52-2.41h4.45c-.14,3.66-2.6,6-7.27,6C162.91,69.94,159.62,67.42,159.62,62.55Z" fill="#fff"/><path d="M175.33,62.55v-.22c0-4.65,3.46-7.58,7.83-7.58,4,0,7.36,2.27,7.36,7.47v1.3H180.34a2.88,2.88,0,0,0,3,3c1.64,0,2.33-.74,2.52-1.71h4.65c-.44,3.26-3,5.12-7.33,5.12C178.65,69.94,175.33,67.28,175.33,62.55Zm10.38-1.83c-.09-1.74-1-2.71-2.55-2.71s-2.52,1-2.77,2.71Z" fill="#fff"/><path d="M196,55.13h5.29l3,9.33,3-9.33H212L206.73,69.6h-5.4Z" fill="#fff"/><path d="M213.14,51.21a2.73,2.73,0,1,1,2.72,2.54A2.6,2.6,0,0,1,213.14,51.21Zm.25,3.92h5V69.6h-5Z" fill="#fff"/><path d="M220,65h4.57c.16,1,.63,1.63,2,1.63,1.22,0,1.78-.47,1.78-1.19s-.7-1-2.69-1.3c-3.87-.49-5.5-1.63-5.5-4.64,0-3.21,2.85-4.76,6.19-4.76,3.57,0,6.06,1.21,6.39,4.67h-4.48A1.62,1.62,0,0,0,226.48,58c-1.08,0-1.63.48-1.63,1.14s.66,1,2.43,1.19c4,.5,5.95,1.55,5.95,4.65,0,3.43-2.55,5-6.56,5S220.14,68.22,220,65Z" fill="#fff"/><path d="M234.72,51.21a2.73,2.73,0,1,1,2.71,2.54A2.59,2.59,0,0,1,234.72,51.21Zm.25,3.92h4.95V69.6H235Z" fill="#fff"/><path d="M243.24,65V58.51H241.5V55.13h1.74v-3h4.95v3H251v3.38h-2.85v6A1.32,1.32,0,0,0,249.66,66a3.89,3.89,0,0,0,1.41-.25v3.76a10.24,10.24,0,0,1-2.74.42C245.07,69.94,243.24,68.36,243.24,65Z" fill="#fff"/><path d="M252.73,67.11a2.75,2.75,0,0,1,2.82-2.79,2.8,2.8,0,1,1,0,5.59A2.76,2.76,0,0,1,252.73,67.11Z" fill="#fff"/><path d="M265.23,59.84v-.22a9.68,9.68,0,0,1,10.1-10.1c5.15,0,8.71,2.38,9.18,7.61h-5.83c-.22-2-1.33-3.13-3.32-3.13-2.55,0-4.15,2-4.15,5.59v.22c0,3.57,1.52,5.59,4.23,5.59a3.41,3.41,0,0,0,3.68-3.24h5.64c-.38,5.12-4.09,7.78-9.21,7.78C268.63,69.94,265.23,65.9,265.23,59.84Z" fill="#fff"/><path d="M285.65,65.59c0-3.4,2.87-4.73,7.69-4.73h1.38v-.33c0-1.38-.33-2.3-1.91-2.3a1.78,1.78,0,0,0-2,1.72H286.2c.22-3.49,3-5.2,6.92-5.2s6.52,1.63,6.52,5.48V69.6h-4.81V67.92a4.75,4.75,0,0,1-4.29,2C287.94,69.94,285.65,68.66,285.65,65.59Zm9.07-1v-.88h-1.3c-2,0-2.88.38-2.88,1.57,0,.83.56,1.36,1.72,1.36A2.18,2.18,0,0,0,294.72,64.54Z" fill="#fff"/><path d="M302.19,48.77h4.92V69.6h-4.92Z" fill="#fff"/><path d="M309.91,48.77h4.92V69.6h-4.92Z" fill="#fff"/><path d="M327.06,68.14l-5.79-13h5.37l3,7.72,2.77-7.72h4.73l-7.75,19.31h-4.73Z" fill="#fff"/><path d="M336.85,62.55v-.22c0-4.65,3.46-7.58,7.94-7.58s7.88,2.85,7.88,7.44v.22c0,4.7-3.46,7.53-7.91,7.53S336.85,67.22,336.85,62.55Zm10.79-.08v-.22c0-2.44-1-3.79-2.85-3.79s-2.88,1.29-2.88,3.73v.22c0,2.49,1,3.85,2.88,3.85S347.64,64.87,347.64,62.47Z" fill="#fff"/><path d="M354.3,64.57V55.13h4.95v8.64c0,1.63.64,2.43,2.05,2.43s2.46-.88,2.46-2.74V55.13h5V69.6h-5V67.36a4.74,4.74,0,0,1-4.59,2.58C356.38,69.94,354.3,68.22,354.3,64.57Z" fill="#fff"/><path d="M371.23,55.13h4.95V58a4.57,4.57,0,0,1,4.68-3.07v4.62c-3-.08-4.68.86-4.68,3.18V69.6h-4.95Z" fill="#fff"/><path d="M388.35,65V58.51h-1.74V55.13h1.74v-3h5v3h2.85v3.38h-2.85v6c0,1.05.52,1.52,1.46,1.52a3.85,3.85,0,0,0,1.41-.25v3.76a10.09,10.09,0,0,1-2.73.42C390.18,69.94,388.35,68.36,388.35,65Z" fill="#fff"/><path d="M397.26,65.59c0-3.4,2.88-4.73,7.69-4.73h1.38v-.33c0-1.38-.33-2.3-1.9-2.3a1.78,1.78,0,0,0-2,1.72h-4.65c.23-3.49,3-5.2,6.92-5.2s6.53,1.63,6.53,5.48V69.6h-4.81V67.92a4.77,4.77,0,0,1-4.29,2C399.56,69.94,397.26,68.66,397.26,65.59Zm9.07-1v-.88H405c-2,0-2.88.38-2.88,1.57,0,.83.55,1.36,1.71,1.36A2.18,2.18,0,0,0,406.33,64.54Z" fill="#fff"/><path d="M417.32,62.25l-4.51-7.12h5.7L420.75,59l2.18-3.82H428l-4.56,6.73,5,7.74h-5.7l-2.58-4.31-2.62,4.31H412.5Z" fill="#fff"/><path d="M434.88,55.13h4.95v2.16a5.12,5.12,0,0,1,4.51-2.54c3.38,0,6.12,2.54,6.12,7.5v.22c0,5-2.74,7.47-6.14,7.47a4.78,4.78,0,0,1-4.49-2.47v7h-4.95Zm10.54,7.34v-.22c0-2.55-1.1-3.77-2.85-3.77s-2.87,1.3-2.87,3.74v.22c0,2.46,1.07,3.71,2.87,3.71S445.42,64.85,445.42,62.47Z" fill="#fff"/><path d="M452.25,55.13h5V58a4.55,4.55,0,0,1,4.67-3.07v4.62c-3-.08-4.67.86-4.67,3.18V69.6h-5Z" fill="#fff"/><path d="M462.77,62.55v-.22c0-4.65,3.45-7.58,7.94-7.58s7.88,2.85,7.88,7.44v.22c0,4.7-3.46,7.53-7.91,7.53S462.77,67.22,462.77,62.55Zm10.79-.08v-.22c0-2.44-1-3.79-2.85-3.79s-2.88,1.29-2.88,3.73v.22c0,2.49,1,3.85,2.88,3.85S473.56,64.87,473.56,62.47Z" fill="#fff"/><path d="M486,65V58.51h-1.74V55.13H486v-3h5v3h2.85v3.38H491v6A1.32,1.32,0,0,0,492.45,66a3.89,3.89,0,0,0,1.41-.25v3.76a10.24,10.24,0,0,1-2.74.42C487.86,69.94,486,68.36,486,65Z" fill="#fff"/><path d="M494.94,62.55v-.22c0-4.65,3.46-7.58,7.94-7.58s7.88,2.85,7.88,7.44v.22c0,4.7-3.46,7.53-7.91,7.53S494.94,67.22,494.94,62.55Zm10.79-.08v-.22c0-2.44-1-3.79-2.85-3.79S500,59.75,500,62.19v.22c0,2.49,1,3.85,2.88,3.85S505.73,64.87,505.73,62.47Z" fill="#fff"/><path d="M511.78,62.52V62.3c0-4.92,2.72-7.55,6.15-7.55a4.7,4.7,0,0,1,4.45,2.43V48.77h5V69.6h-5V67.25a4.87,4.87,0,0,1-4.51,2.69C514.52,69.94,511.78,67.53,511.78,62.52Zm10.74-.08v-.22c0-2.44-1-3.74-2.85-3.74s-2.85,1.25-2.85,3.77v.22c0,2.43,1.08,3.68,2.79,3.68S522.52,64.9,522.52,62.44Z" fill="#fff"/><path d="M529,65.59c0-3.4,2.88-4.73,7.69-4.73h1.38v-.33c0-1.38-.33-2.3-1.91-2.3a1.78,1.78,0,0,0-2,1.72h-4.65c.22-3.49,3-5.2,6.92-5.2S543,56.38,543,60.23V69.6H538.2V67.92a4.74,4.74,0,0,1-4.28,2C531.31,69.94,529,68.66,529,65.59Zm9.07-1v-.88h-1.3c-2,0-2.87.38-2.87,1.57,0,.83.55,1.36,1.71,1.36A2.18,2.18,0,0,0,538.09,64.54Z" fill="#fff"/><path d="M549.46,68.14l-5.78-13H549l3,7.72,2.77-7.72h4.73l-7.75,19.31h-4.73Z" fill="#fff"/><path d="M558.48,67.11a2.75,2.75,0,0,1,2.82-2.79,2.8,2.8,0,1,1,0,5.59A2.76,2.76,0,0,1,558.48,67.11Z" fill="#fff"/></g></g></svg>