<svg xmlns="http://www.w3.org/2000/svg" viewBox="0 0 300 600"><title>H45</title><g id="Layer_2" data-name="Layer 2"><g id="Rect"><rect width="300" height="600" fill="none"/></g><g id="H45"><g id="Totally_transparent_pricing." data-name="Totally transparent pricing."><path d="M28.58,184.38H20V177H46.76v7.34h-8.6v25.9H28.58Z" fill="#fff"/><path d="M44.71,198.43v-.38c0-7.81,5.82-12.74,13.35-12.74s13.25,4.79,13.25,12.51v.37c0,7.91-5.81,12.65-13.3,12.65S44.71,206.28,44.71,198.43Zm18.14-.14v-.38c0-4.09-1.63-6.37-4.79-6.37s-4.84,2.19-4.84,6.28v.37c0,4.19,1.63,6.47,4.84,6.47S62.85,202.33,62.85,198.29Z" fill="#fff"/><path d="M75.36,202.47V191.64H72.43V186h2.93V180.9h8.32V186h4.79v5.67H83.68v10c0,1.77.88,2.56,2.46,2.56a6.3,6.3,0,0,0,2.37-.42v6.32a17.33,17.33,0,0,1-4.6.7C78.43,210.84,75.36,208.19,75.36,202.47Z" fill="#fff"/><path d="M90.33,203.54c0-5.72,4.84-7.95,12.93-7.95h2.32V195c0-2.32-.56-3.86-3.21-3.86a3,3,0,0,0-3.3,2.89H91.26c.37-5.86,5-8.75,11.62-8.75s11,2.75,11,9.21v15.76h-8.09v-2.83c-1.17,1.76-3.31,3.39-7.21,3.39C94.19,210.84,90.33,208.7,90.33,203.54Zm15.25-1.77v-1.48H103.4c-3.35,0-4.84.65-4.84,2.65,0,1.39.93,2.27,2.88,2.27C103.81,205.21,105.58,203.87,105.58,201.77Z" fill="#fff"/><path d="M118.14,175.27h8.27v35h-8.27Z" fill="#fff"/><path d="M131.11,175.27h8.28v35h-8.28Z" fill="#fff"/><path d="M151.47,207.82,141.76,186h9l5,13,4.65-13h8l-13,32.45h-7.95Z" fill="#fff"/><path d="M22.58,251V240.14H19.65v-5.67h2.93V229.4H30.9v5.07h4.79v5.67H30.9v10c0,1.77.89,2.56,2.47,2.56a6.34,6.34,0,0,0,2.37-.42v6.32a17.42,17.42,0,0,1-4.61.7C25.65,259.34,22.58,256.69,22.58,251Z" fill="#fff"/><path d="M38.85,234.47h8.33v4.83A7.65,7.65,0,0,1,55,234.14v7.76c-5.06-.13-7.85,1.45-7.85,5.35v11.53H38.85Z" fill="#fff"/><path d="M56.11,252c0-5.72,4.83-7.95,12.92-7.95h2.33v-.56c0-2.32-.56-3.86-3.21-3.86a3,3,0,0,0-3.3,2.89H57c.37-5.86,5-8.75,11.62-8.75s11,2.75,11,9.21v15.76H71.54V256c-1.16,1.76-3.3,3.39-7.2,3.39C60,259.34,56.11,257.2,56.11,252Zm15.25-1.77v-1.48H69.17c-3.35,0-4.83.65-4.83,2.65,0,1.39.93,2.27,2.88,2.27C69.59,253.71,71.36,252.37,71.36,250.27Z" fill="#fff"/><path d="M83.68,234.47H92v3.9a8.58,8.58,0,0,1,8-4.56c4.7,0,8,2.93,8,9.16v15.81H99.63V244.65c0-2.75-1.07-4.09-3.49-4.09S92,242,92,245.16v13.62H83.68Z" fill="#fff"/><path d="M110.37,251.06H118c.28,1.77,1.07,2.75,3.44,2.75,2,0,3-.79,3-2s-1.16-1.72-4.51-2.19c-6.51-.83-9.25-2.74-9.25-7.81,0-5.39,4.79-8,10.41-8,6,0,10.18,2.05,10.74,7.86h-7.53c-.33-1.63-1.21-2.42-3.12-2.42s-2.74.79-2.74,1.91,1.12,1.63,4.09,2c6.74.84,10,2.6,10,7.81,0,5.77-4.28,8.37-11,8.37C114.6,259.34,110.56,256.46,110.37,251.06Z" fill="#fff"/><path d="M135.25,234.47h8.32v3.62a8.61,8.61,0,0,1,7.58-4.28c5.67,0,10.27,4.28,10.27,12.6v.38c0,8.37-4.6,12.55-10.32,12.55-3.67,0-6.32-1.72-7.53-4.14v11.72h-8.32ZM153,246.79v-.38c0-4.27-1.86-6.32-4.79-6.32s-4.83,2.19-4.83,6.28v.37c0,4.14,1.81,6.23,4.83,6.23S153,250.78,153,246.79Z" fill="#fff"/><path d="M163.05,252c0-5.72,4.84-7.95,12.93-7.95h2.32v-.56c0-2.32-.55-3.86-3.2-3.86a3,3,0,0,0-3.3,2.89H164c.37-5.86,5-8.75,11.62-8.75s11,2.75,11,9.21v15.76h-8.09V256c-1.16,1.76-3.3,3.39-7.21,3.39C166.91,259.34,163.05,257.2,163.05,252Zm15.25-1.77v-1.48h-2.18c-3.35,0-4.84.65-4.84,2.65,0,1.39.93,2.27,2.89,2.27C176.54,253.71,178.3,252.37,178.3,250.27Z" fill="#fff"/><path d="M190.63,234.47H199v4.83a7.66,7.66,0,0,1,7.86-5.16v7.76c-5.07-.13-7.86,1.45-7.86,5.35v11.53h-8.32Z" fill="#fff"/><path d="M208.3,246.93v-.38c0-7.81,5.81-12.74,13.16-12.74,6.65,0,12.36,3.82,12.36,12.56v2.18H216.71c.24,3.21,2.1,5.07,5.07,5.07,2.75,0,3.91-1.25,4.23-2.88h7.81c-.74,5.48-5,8.6-12.32,8.6C213.88,259.34,208.3,254.88,208.3,246.93Zm17.43-3.07c-.14-2.93-1.58-4.56-4.27-4.56-2.51,0-4.23,1.63-4.65,4.56Z" fill="#fff"/><path d="M236.71,234.47H245v3.9a8.58,8.58,0,0,1,8-4.56c4.7,0,8,2.93,8,9.16v15.81h-8.32V244.65c0-2.75-1.07-4.09-3.49-4.09S245,242,245,245.16v13.62h-8.32Z" fill="#fff"/><path d="M266.14,251V240.14h-2.93v-5.67h2.93V229.4h8.33v5.07h4.78v5.67h-4.78v10c0,1.77.88,2.56,2.46,2.56a6.3,6.3,0,0,0,2.37-.42v6.32a17.4,17.4,0,0,1-4.6.7C269.21,259.34,266.14,256.69,266.14,251Z" fill="#fff"/><path d="M21.46,283h8.33v3.62a8.58,8.58,0,0,1,7.57-4.28c5.68,0,10.28,4.28,10.28,12.6v.38c0,8.37-4.6,12.55-10.32,12.55-3.67,0-6.32-1.72-7.53-4.14v11.72H21.46Zm17.72,12.32v-.38c0-4.27-1.86-6.32-4.79-6.32s-4.84,2.19-4.84,6.28v.37c0,4.14,1.82,6.23,4.84,6.23S39.18,299.28,39.18,295.29Z" fill="#fff"/><path d="M50.67,283H59v4.83a7.65,7.65,0,0,1,7.86-5.16v7.76c-5.07-.13-7.86,1.45-7.86,5.35v11.53H50.67Z" fill="#fff"/><path d="M69.68,276.36a4.59,4.59,0,1,1,4.56,4.28A4.35,4.35,0,0,1,69.68,276.36ZM70.1,283h8.32v24.31H70.1Z" fill="#fff"/><path d="M81.59,295.43v-.38c0-8.09,5.81-12.74,13-12.74,6,0,11.44,2.61,11.9,10H98.65c-.37-2.28-1.49-3.53-3.9-3.53-2.93,0-4.65,2.09-4.65,6.18v.37c0,4.23,1.62,6.42,4.79,6.42,2.32,0,4-1.4,4.23-4.05h7.48c-.23,6.14-4.37,10.14-12.23,10.14C87.12,307.84,81.59,303.61,81.59,295.43Z" fill="#fff"/><path d="M109.12,276.36a4.59,4.59,0,1,1,4.55,4.28A4.34,4.34,0,0,1,109.12,276.36Zm.41,6.61h8.33v24.31h-8.33Z" fill="#fff"/><path d="M122.32,283h8.32v3.9a8.61,8.61,0,0,1,8-4.56c4.7,0,8,2.93,8,9.16v15.81h-8.32V293.15c0-2.75-1.07-4.09-3.49-4.09s-4.14,1.48-4.14,4.6v13.62h-8.32Z" fill="#fff"/><path d="M149.29,307.28h8.28c.37,1.77,1.44,3.16,4.46,3.16,3.67,0,5.16-2.09,5.16-5.11v-3.72a8.52,8.52,0,0,1-7.53,4.46c-5.67,0-10.32-4.18-10.32-11.67V294c0-7.16,4.6-11.72,10.32-11.72,3.86,0,6.14,1.63,7.53,4.1V283h8.32v22.27c0,7.25-4.79,11.06-13.48,11.06C153.75,316.3,149.94,312.81,149.29,307.28Zm18.13-12.92V294c0-3.35-1.72-5.49-4.79-5.49s-4.78,2.19-4.78,5.54v.37c0,3.35,1.76,5.49,4.74,5.49S167.42,297.8,167.42,294.36Z" fill="#fff"/><path d="M179.42,303.1a4.64,4.64,0,0,1,4.75-4.7,4.7,4.7,0,1,1,0,9.39A4.64,4.64,0,0,1,179.42,303.1Z" fill="#fff"/></g></g></g></svg>