<svg xmlns="http://www.w3.org/2000/svg" viewBox="0 0 600 1200"><title>H3</title><g id="Layer_2" data-name="Layer 2"><g id="Rectangle_2" data-name="Rectangle 2" style="isolation:isolate"><g id="Rectangle_2-2" data-name="Rectangle 2"><rect width="600" height="1200" fill="none"/></g></g><g id="POWER"><g id="Power_hour._Your_taxes_could_be_done_in_an_hour._" data-name="Power hour. Your taxes could be done in an hour. "><path d="M42.33,216.28H67.26c18,0,26.31,8,26.31,21.91v.37c0,13.75-9.26,21.17-25.48,21.17H61v22.1H42.33ZM66.44,246.9c6,0,9.26-2.84,9.26-8.25v-.37c0-5.59-3.3-7.88-9.17-7.88H61v16.5Z" fill="#fff"/><path d="M95,258.45v-.73c0-15.41,11.46-25.12,26.31-25.12s26.12,9.44,26.12,24.66V258c0,15.59-11.46,24.94-26.22,24.94S95,273.94,95,258.45Zm35.75-.28v-.73c0-8.07-3.21-12.56-9.44-12.56s-9.54,4.31-9.54,12.38V258c0,8.25,3.21,12.74,9.54,12.74C127.49,270.73,130.79,266.15,130.79,258.17Z" fill="#fff"/><path d="M147.65,233.88H164.8l7,28.7,8.07-28.7H193l7.15,28.7,7.8-28.7h15.58l-15.22,47.95H192.67l-7.15-26.77-7.43,26.77h-16Z" fill="#fff"/><path d="M223.1,258.45v-.73c0-15.41,11.46-25.12,25.94-25.12,13.11,0,24.39,7.51,24.39,24.75v4.31H239.69c.46,6.32,4.13,10,10,10,5.41,0,7.7-2.47,8.35-5.68h15.4c-1.47,10.81-9.81,17-24.3,17C234.1,282.93,223.1,274.13,223.1,258.45Zm34.38-6c-.28-5.78-3.12-9-8.44-9-4.95,0-8.34,3.2-9.17,9Z" fill="#fff"/><path d="M279.11,233.88h16.41v9.54c3-7.16,8.06-10.27,15.49-10.18v15.31c-10-.28-15.49,2.84-15.49,10.54v22.74H279.11Z" fill="#fff"/><path d="M333.65,212.8h16.41v28.78c2.57-5,7.79-9,15.77-9,9.26,0,15.67,5.77,15.67,18.06v31.17H365.09V254c0-5.41-2.1-8.07-6.87-8.07s-8.16,2.93-8.16,9.08v26.86H333.65Z" fill="#fff"/><path d="M386.91,258.45v-.73c0-15.41,11.46-25.12,26.31-25.12s26.13,9.44,26.13,24.66V258c0,15.59-11.46,24.94-26.22,24.94S386.91,273.94,386.91,258.45Zm35.75-.28v-.73c0-8.07-3.21-12.56-9.44-12.56s-9.53,4.31-9.53,12.38V258c0,8.25,3.2,12.74,9.53,12.74C419.36,270.73,422.66,266.15,422.66,258.17Z" fill="#fff"/><path d="M444.75,265.14V233.88h16.41v28.6c0,5.41,2.11,8.07,6.79,8.07,4.95,0,8.16-2.93,8.16-9.08V233.88h16.41v47.95H476.11V274.4c-2.57,5-7.25,8.53-15.22,8.53C451.63,282.93,444.75,277.24,444.75,265.14Z" fill="#fff"/><path d="M500.85,233.88h16.41v9.54c3-7.16,8.07-10.27,15.5-10.18v15.31c-10-.28-15.5,2.84-15.5,10.54v22.74H500.85Z" fill="#fff"/><path d="M532.57,273.58a9.14,9.14,0,0,1,9.35-9.26,9.26,9.26,0,1,1,0,18.51A9.13,9.13,0,0,1,532.57,273.58Z" fill="#fff"/><path d="M58.09,370.11l-21.36-37.5H57.18l11.09,22.1,11.09-22.1h18L77,370.11v28.05H58.09Z" fill="#fff"/><path d="M90.45,374.78v-.73c0-15.4,11.46-25.12,26.31-25.12s26.13,9.44,26.13,24.66v.73c0,15.59-11.46,24.94-26.22,24.94S90.45,390.28,90.45,374.78Zm35.76-.27v-.74c0-8.06-3.21-12.56-9.45-12.56s-9.53,4.31-9.53,12.38v.73c0,8.26,3.21,12.75,9.53,12.75C122.91,387.07,126.21,382.48,126.21,374.51Z" fill="#fff"/><path d="M148.3,381.47V350.21h16.41v28.61c0,5.41,2.1,8.06,6.78,8.06,4.95,0,8.16-2.93,8.16-9.07v-27.6h16.41v48H179.65v-7.43c-2.57,4.95-7.24,8.53-15.22,8.53C155.17,399.26,148.3,393.58,148.3,381.47Z" fill="#fff"/><path d="M204.4,350.21h16.41v9.54c3-7.15,8.06-10.27,15.49-10.18v15.31c-10-.27-15.49,2.84-15.49,10.54v22.74H204.4Z" fill="#fff"/><path d="M261.14,382.76V361.4h-5.78V350.21h5.78v-10h16.41v10H287V361.4h-9.44v19.8c0,3.48,1.74,5,4.86,5a12.46,12.46,0,0,0,4.67-.82v12.46a34.36,34.36,0,0,1-9.07,1.38C267.19,399.26,261.14,394,261.14,382.76Z" fill="#fff"/><path d="M290.65,384.87c0-11.28,9.54-15.68,25.49-15.68h4.58v-1.1c0-4.58-1.1-7.61-6.32-7.61-4.49,0-6.14,2.66-6.51,5.69h-15.4c.73-11.56,9.81-17.24,22.92-17.24S337,354.34,337,367.08v31.08h-16v-5.59c-2.29,3.48-6.51,6.69-14.21,6.69C298.26,399.26,290.65,395,290.65,384.87Zm30.07-3.49v-2.93h-4.3c-6.61,0-9.54,1.28-9.54,5.22,0,2.76,1.83,4.5,5.69,4.5C317.24,388.17,320.72,385.51,320.72,381.38Z" fill="#fff"/><path d="M357.12,373.77l-14.95-23.56h18.89l7.42,12.65,7.25-12.65h16.86l-15.12,22.28,16.59,25.67H375.18l-8.53-14.3-8.71,14.3H341.17Z" fill="#fff"/><path d="M392,374.78v-.73c0-15.4,11.46-25.12,25.94-25.12,13.11,0,24.39,7.52,24.39,24.75V378H408.54c.46,6.33,4.13,10,10,10,5.4,0,7.7-2.47,8.34-5.68h15.4c-1.47,10.82-9.81,17-24.3,17C403,399.26,392,390.46,392,374.78Zm34.38-6c-.28-5.77-3.12-9-8.44-9-4.95,0-8.34,3.21-9.16,9Z" fill="#fff"/><path d="M445.21,382.94h15.12c.55,3.49,2.11,5.41,6.79,5.41,4,0,5.87-1.56,5.87-3.94s-2.3-3.39-8.9-4.31c-12.83-1.65-18.24-5.41-18.24-15.4,0-10.64,9.44-15.77,20.53-15.77,11.83,0,20.08,4,21.18,15.49H472.71c-.64-3.21-2.38-4.76-6.14-4.76-3.58,0-5.41,1.55-5.41,3.76s2.2,3.2,8.07,3.94c13.29,1.65,19.71,5.13,19.71,15.4,0,11.37-8.44,16.5-21.73,16.5C453.55,399.26,445.57,393.58,445.21,382.94Z" fill="#fff"/><path d="M38.29,491.12v-.74c0-15.95,11.46-25.12,25.58-25.12,11.73,0,22.55,5.14,23.47,19.71H71.94c-.74-4.49-2.94-7-7.7-7-5.78,0-9.17,4.12-9.17,12.19v.73c0,8.35,3.21,12.65,9.44,12.65,4.58,0,7.79-2.75,8.34-8H87.61c-.46,12.1-8.61,20-24.11,20C49.2,515.59,38.29,507.25,38.29,491.12Z" fill="#fff"/><path d="M90.36,491.12v-.74c0-15.4,11.46-25.12,26.31-25.12s26.13,9.45,26.13,24.66v.74c0,15.58-11.46,24.93-26.22,24.93S90.36,506.61,90.36,491.12Zm35.75-.28v-.73c0-8.07-3.21-12.56-9.44-12.56s-9.53,4.31-9.53,12.37v.74c0,8.25,3.2,12.74,9.53,12.74C122.81,503.4,126.11,498.82,126.11,490.84Z" fill="#fff"/><path d="M148.2,497.81V466.55h16.41v28.6c0,5.41,2.11,8.07,6.79,8.07,4.95,0,8.16-2.94,8.16-9.08V466.55H196v47.94H179.56v-7.42c-2.57,4.95-7.25,8.52-15.22,8.52C155.08,515.59,148.2,509.91,148.2,497.81Z" fill="#fff"/><path d="M204.76,445.46h16.32v69H204.76Z" fill="#fff"/><path d="M227.5,491v-.73c0-16.32,9-25,20.35-25,7.51,0,12,3.21,14.76,8.07V445.46H279v69H262.61V506.7c-2.39,4.95-7.7,8.89-15,8.89C236.57,515.59,227.5,507.62,227.5,491Zm35.56-.27V490c0-8.07-3.39-12.38-9.44-12.38s-9.44,4.13-9.44,12.47v.73c0,8.07,3.58,12.19,9.26,12.19C259.4,503,263.06,498.91,263.06,490.75Z" fill="#fff"/><path d="M320.45,507.07v7.42H304v-69h16.41V473.7a16.91,16.91,0,0,1,14.94-8.44c11.19,0,20.26,8.44,20.26,24.85v.73c0,16.5-9.07,24.75-20.35,24.75C328.15,515.59,322.83,512.2,320.45,507.07ZM339,490.84v-.73c0-8.44-3.67-12.47-9.45-12.47-5.95,0-9.53,4.31-9.53,12.38v.73c0,8.16,3.58,12.28,9.53,12.28C335.67,503,339,498.73,339,490.84Z" fill="#fff"/><path d="M359,491.12v-.74c0-15.4,11.46-25.12,25.94-25.12,13.11,0,24.39,7.52,24.39,24.76v4.3H375.63c.46,6.33,4.13,10,10,10,5.41,0,7.7-2.48,8.34-5.69h15.4c-1.47,10.82-9.81,17-24.29,17C370,515.59,359,506.79,359,491.12Zm34.38-6.05c-.28-5.78-3.12-9-8.44-9-5,0-8.34,3.21-9.16,9Z" fill="#fff"/><path d="M38.48,607.36v-.74c0-16.31,9-25,20.35-25,7.51,0,12,3.21,14.76,8.06V561.79H90v69H73.59V623a16.17,16.17,0,0,1-15,8.9C47.55,631.93,38.48,624,38.48,607.36ZM74,607.08v-.73C74,598.28,70.65,594,64.6,594s-9.44,4.13-9.44,12.47v.73c0,8.07,3.58,12.2,9.26,12.2C70.38,619.37,74,615.24,74,607.08Z" fill="#fff"/><path d="M95.77,607.45v-.73c0-15.41,11.46-25.12,26.31-25.12s26.13,9.44,26.13,24.66V607c0,15.59-11.46,24.94-26.22,24.94S95.77,622.94,95.77,607.45Zm35.75-.28v-.73c0-8.07-3.21-12.56-9.44-12.56s-9.53,4.31-9.53,12.38V607c0,8.25,3.2,12.74,9.53,12.74C128.22,619.73,131.52,615.15,131.52,607.17Z" fill="#fff"/><path d="M154,582.88h16.41v7.7c2.57-5,7.79-9,15.77-9,9.26,0,15.67,5.77,15.67,18.06v31.17H185.42V603c0-5.41-2.11-8.07-6.87-8.07s-8.16,2.93-8.16,9.08v26.86H154Z" fill="#fff"/><path d="M207.24,607.45v-.73c0-15.41,11.46-25.12,25.94-25.12,13.11,0,24.39,7.51,24.39,24.75v4.31H223.83c.46,6.32,4.13,10,10,10,5.41,0,7.7-2.48,8.35-5.68h15.4c-1.47,10.81-9.81,17-24.3,17C218.24,631.93,207.24,623.13,207.24,607.45Zm34.38-6.05c-.28-5.78-3.12-9-8.44-9-5,0-8.34,3.21-9.16,9Z" fill="#fff"/><path d="M279.56,569.86c0-4.86,3.85-8.52,9-8.52s9.07,3.66,9.07,8.52-3.94,8.44-9.07,8.44S279.56,574.72,279.56,569.86Zm.83,13H296.8v48H280.39Z" fill="#fff"/><path d="M305.6,582.88H322v7.7c2.57-5,7.79-9,15.77-9,9.26,0,15.67,5.77,15.67,18.06v31.17H337V603c0-5.41-2.11-8.07-6.87-8.07S322,597.82,322,604v26.86H305.6Z" fill="#fff"/><path d="M375.36,617.53c0-11.27,9.53-15.67,25.48-15.67h4.59v-1.1c0-4.59-1.1-7.61-6.33-7.61-4.49,0-6.14,2.66-6.51,5.68h-15.4c.74-11.55,9.81-17.23,22.92-17.23s21.64,5.41,21.64,18.15v31.08h-16v-5.6c-2.29,3.49-6.5,6.7-14.21,6.7C383,631.93,375.36,627.71,375.36,617.53Zm30.07-3.48v-2.93h-4.31c-6.6,0-9.54,1.28-9.54,5.22,0,2.75,1.84,4.49,5.69,4.49C401.94,620.83,405.43,618.17,405.43,614.05Z" fill="#fff"/><path d="M429.72,582.88h16.41v7.7c2.57-5,7.79-9,15.77-9,9.26,0,15.67,5.77,15.67,18.06v31.17H461.16V603c0-5.41-2.11-8.07-6.87-8.07s-8.16,2.93-8.16,9.08v26.86H429.72Z" fill="#fff"/><path d="M40.86,678.13H57.27v28.79c2.57-5,7.79-9,15.77-9,9.26,0,15.67,5.78,15.67,18.06v31.17H72.3V719.29c0-5.41-2.11-8.07-6.87-8.07s-8.16,2.94-8.16,9.08v26.86H40.86Z" fill="#fff"/><path d="M94.12,723.78v-.73c0-15.4,11.46-25.12,26.31-25.12s26.13,9.44,26.13,24.66v.73c0,15.59-11.46,24.94-26.22,24.94S94.12,739.28,94.12,723.78Zm35.75-.27v-.74c0-8.06-3.21-12.56-9.44-12.56s-9.53,4.31-9.53,12.38v.73c0,8.26,3.2,12.75,9.53,12.75C126.57,736.07,129.87,731.48,129.87,723.51Z" fill="#fff"/><path d="M152,730.48V699.21h16.41v28.61c0,5.41,2.11,8.06,6.79,8.06,5,0,8.15-2.93,8.15-9.07v-27.6h16.41v47.95H183.31v-7.43c-2.56,4.95-7.24,8.53-15.21,8.53C158.84,748.26,152,742.58,152,730.48Z" fill="#fff"/><path d="M208.06,699.21h16.41v9.54c3-7.15,8.07-10.27,15.5-10.18v15.31c-10-.27-15.5,2.84-15.5,10.54v22.74H208.06Z" fill="#fff"/><path d="M239.78,738.91a9.14,9.14,0,0,1,9.35-9.26,9.27,9.27,0,1,1,0,18.52A9.14,9.14,0,0,1,239.78,738.91Z" fill="#fff"/></g></g></g></svg>