<svg xmlns="http://www.w3.org/2000/svg" viewBox="0 0 300 250"><title>H1</title><g id="Layer_2" data-name="Layer 2"><g id="Artboard_1" data-name="Artboard 1" style="isolation:isolate"><g id="headline1"><g id="Refund_help_is_here._Drop_off_Tax_Pro_Go_or_file_online." data-name="Refund help is here. Drop off, Tax Pro Go or file online."><path d="M23.26,47.73h7.49c5,0,7.79,2,7.79,6.07v.1a5,5,0,0,1-3.45,5l4.57,7.92H33.88L30,60H28.72v6.85H23.26Zm7.23,8.72c1.84,0,2.75-.78,2.75-2.33V54c0-1.55-1-2.16-2.73-2.16H28.72v4.6Z" fill="#fff"/><path d="M39.66,60v-.21c0-4.5,3.35-7.33,7.57-7.33,3.83,0,7.12,2.19,7.12,7.22V61H44.5a2.8,2.8,0,0,0,2.92,2.91c1.58,0,2.25-.72,2.43-1.66h4.5c-.43,3.16-2.86,5-7.09,5C42.87,67.17,39.66,64.6,39.66,60Zm10-1.77c-.08-1.68-.91-2.62-2.46-2.62a2.66,2.66,0,0,0-2.67,2.62Z" fill="#fff"/><path d="M56.73,56.13H55V52.86h1.77V51.63c0-3.48,2.17-5.13,5.48-5.13a8.69,8.69,0,0,1,2.2.29v3.5a4.72,4.72,0,0,0-1.32-.18,1.4,1.4,0,0,0-1.6,1.52v1.23h2.84v3.27H61.49V66.85H56.73Z" fill="#fff"/><path d="M65.82,62V52.86h4.79v8.35c0,1.58.62,2.35,2,2.35S75,62.71,75,60.91v-8h4.79v14H75V64.68a4.59,4.59,0,0,1-4.44,2.49C67.83,67.17,65.82,65.51,65.82,62Z" fill="#fff"/><path d="M82.19,52.86H87v2.25a4.94,4.94,0,0,1,4.6-2.62c2.7,0,4.58,1.68,4.58,5.27v9.09H91.37V58.72c0-1.58-.62-2.35-2-2.35S87,57.22,87,59v7.84H82.19Z" fill="#fff"/><path d="M97.79,60v-.21c0-4.76,2.62-7.3,5.94-7.3a4.52,4.52,0,0,1,4.3,2.35V46.71h4.79V66.85H108V64.58a4.7,4.7,0,0,1-4.36,2.59C100.44,67.17,97.79,64.84,97.79,60Zm10.38-.08v-.21c0-2.35-1-3.61-2.76-3.61s-2.75,1.2-2.75,3.64V60c0,2.35,1,3.56,2.7,3.56S108.17,62.3,108.17,59.92Z" fill="#fff"/><path d="M120.13,46.71h4.78v8.4a4.94,4.94,0,0,1,4.6-2.62c2.71,0,4.58,1.68,4.58,5.27v9.09H129.3V58.72c0-1.58-.62-2.35-2-2.35s-2.38.85-2.38,2.64v7.84h-4.78Z" fill="#fff"/><path d="M135.67,60v-.21c0-4.5,3.34-7.33,7.57-7.33,3.82,0,7.11,2.19,7.11,7.22V61h-9.84a2.79,2.79,0,0,0,2.91,2.91c1.58,0,2.25-.72,2.44-1.66h4.49c-.43,3.16-2.86,5-7.09,5S135.67,64.6,135.67,60Zm10-1.77c-.08-1.68-.91-2.62-2.46-2.62a2.66,2.66,0,0,0-2.68,2.62Z" fill="#fff"/><path d="M152.14,46.71h4.77V66.85h-4.77Z" fill="#fff"/><path d="M159.47,52.86h4.79V55a4.93,4.93,0,0,1,4.36-2.46c3.26,0,5.91,2.46,5.91,7.25V60c0,4.81-2.65,7.22-5.94,7.22a4.62,4.62,0,0,1-4.33-2.38v6.74h-4.79ZM169.67,60v-.21c0-2.47-1.08-3.64-2.76-3.64s-2.78,1.26-2.78,3.61v.21c0,2.38,1,3.59,2.78,3.59S169.67,62.25,169.67,60Z" fill="#fff"/><path d="M181,49.06a2.64,2.64,0,1,1,2.62,2.46A2.5,2.5,0,0,1,181,49.06Zm.24,3.8h4.79v14h-4.79Z" fill="#fff"/><path d="M187.69,62.41h4.42c.16,1,.61,1.58,2,1.58,1.17,0,1.71-.46,1.71-1.15s-.67-1-2.6-1.26c-3.74-.48-5.32-1.58-5.32-4.49,0-3.11,2.76-4.6,6-4.6,3.45,0,5.86,1.17,6.18,4.52h-4.33a1.56,1.56,0,0,0-1.79-1.39c-1.05,0-1.58.45-1.58,1.09s.64.94,2.35,1.15c3.88.48,5.75,1.5,5.75,4.5,0,3.31-2.46,4.81-6.34,4.81S187.8,65.51,187.69,62.41Z" fill="#fff"/><path d="M206.87,46.71h4.79v8.4a4.94,4.94,0,0,1,4.6-2.62c2.7,0,4.58,1.68,4.58,5.27v9.09h-4.79V58.72c0-1.58-.62-2.35-2-2.35s-2.38.85-2.38,2.64v7.84h-4.79Z" fill="#fff"/><path d="M222.42,60v-.21c0-4.5,3.34-7.33,7.57-7.33,3.82,0,7.11,2.19,7.11,7.22V61h-9.84a2.79,2.79,0,0,0,2.91,2.91c1.58,0,2.25-.72,2.44-1.66h4.49c-.43,3.16-2.86,5-7.09,5S222.42,64.6,222.42,60Zm10-1.77c-.08-1.68-.91-2.62-2.46-2.62a2.66,2.66,0,0,0-2.68,2.62Z" fill="#fff"/><path d="M238.76,52.86h4.79v2.78a4.42,4.42,0,0,1,4.52-3v4.47c-2.92-.08-4.52.83-4.52,3.08v6.63h-4.79Z" fill="#fff"/><path d="M248.92,60v-.21c0-4.5,3.35-7.33,7.57-7.33,3.83,0,7.12,2.19,7.12,7.22V61h-9.84a2.79,2.79,0,0,0,2.91,2.91c1.58,0,2.25-.72,2.44-1.66h4.49c-.43,3.16-2.86,5-7.09,5C252.13,67.17,248.92,64.6,248.92,60Zm10-1.77c-.08-1.68-.91-2.62-2.47-2.62a2.66,2.66,0,0,0-2.67,2.62Z" fill="#fff"/><path d="M265,64.44a2.67,2.67,0,0,1,2.73-2.7,2.71,2.71,0,1,1,0,5.41A2.67,2.67,0,0,1,265,64.44Z" fill="#fff"/><path d="M23.26,76.48h7c6.79,0,10.24,3.39,10.24,9.33V86c0,6-3.53,9.58-10.27,9.58H23.26ZM30,91.37c3.27,0,4.71-1.71,4.71-5.26v-.22c0-3.64-1.44-5.19-4.76-5.19H28.77V91.37Z" fill="#fff"/><path d="M42.31,81.61H47.1v2.78a4.42,4.42,0,0,1,4.52-3v4.47c-2.92-.08-4.52.83-4.52,3.08V95.6H42.31Z" fill="#fff"/><path d="M52.48,88.78v-.21c0-4.5,3.34-7.33,7.67-7.33s7.63,2.75,7.63,7.19v.22c0,4.54-3.35,7.27-7.65,7.27S52.48,93.3,52.48,88.78Zm10.43-.08v-.21c0-2.36-.94-3.67-2.76-3.67s-2.78,1.26-2.78,3.61v.22c0,2.4.94,3.71,2.78,3.71S62.91,91,62.91,88.7Z" fill="#fff"/><path d="M69.46,81.61h4.79V83.7a4.93,4.93,0,0,1,4.36-2.46c3.26,0,5.91,2.46,5.91,7.25v.21c0,4.81-2.65,7.22-5.94,7.22a4.62,4.62,0,0,1-4.33-2.38v6.74H69.46ZM79.65,88.7v-.21c0-2.47-1.07-3.64-2.75-3.64s-2.78,1.26-2.78,3.61v.21c0,2.38,1,3.59,2.78,3.59S79.65,91,79.65,88.7Z" fill="#fff"/><path d="M90.38,88.78v-.21c0-4.5,3.34-7.33,7.68-7.33s7.62,2.75,7.62,7.19v.22c0,4.54-3.34,7.27-7.65,7.27S90.38,93.3,90.38,88.78Zm10.43-.08v-.21c0-2.36-.93-3.67-2.75-3.67s-2.79,1.26-2.79,3.61v.22c0,2.4.94,3.71,2.79,3.71S100.81,91,100.81,88.7Z" fill="#fff"/><path d="M108.09,84.88h-1.77V81.61h1.77V80.54c0-3.48,2.14-5.11,5.45-5.11a8,8,0,0,1,2.14.27v3.5A4.36,4.36,0,0,0,114.4,79a1.4,1.4,0,0,0-1.55,1.52v1.07h4.07V80.38c0-3.48,2.19-5.13,5.48-5.13a8.55,8.55,0,0,1,2.19.29V79a4.64,4.64,0,0,0-1.31-.18,1.39,1.39,0,0,0-1.58,1.52v1.23h2.84v3.27H121.7V95.6h-4.78V84.88h-4.07V95.6h-4.76Z" fill="#fff"/><path d="M123.52,97.77l2.25-7,4.44,1.58-3.85,6.55Z" fill="#fff"/><path d="M141.26,80.7h-4.95V76.48h15.41V80.7h-4.95V95.6h-5.51Z" fill="#fff"/><path d="M150.75,91.72c0-3.29,2.79-4.57,7.44-4.57h1.34v-.32c0-1.34-.32-2.22-1.85-2.22a1.72,1.72,0,0,0-1.9,1.66h-4.49c.21-3.37,2.86-5,6.69-5s6.31,1.57,6.31,5.29V95.6h-4.66V94a4.56,4.56,0,0,1-4.14,2C153,95.92,150.75,94.69,150.75,91.72Zm8.78-1v-.86h-1.26c-1.93,0-2.78.37-2.78,1.52,0,.81.53,1.32,1.66,1.32A2.11,2.11,0,0,0,159.53,90.71Z" fill="#fff"/><path d="M170.15,88.49l-4.36-6.88h5.51l2.16,3.69,2.12-3.69h4.92l-4.42,6.5,4.85,7.49h-5.51l-2.49-4.17-2.54,4.17h-4.9Z" fill="#fff"/><path d="M187.56,76.48h7.28c5.24,0,7.67,2.32,7.67,6.39V83c0,4-2.7,6.17-7.43,6.17H193V95.6h-5.46Zm7,8.93c1.76,0,2.7-.83,2.7-2.41v-.1c0-1.64-1-2.3-2.68-2.3H193v4.81Z" fill="#fff"/><path d="M204.17,81.61H209v2.78a4.42,4.42,0,0,1,4.52-3v4.47c-2.91-.08-4.52.83-4.52,3.08V95.6h-4.79Z" fill="#fff"/><path d="M214.34,88.78v-.21c0-4.5,3.34-7.33,7.67-7.33s7.63,2.75,7.63,7.19v.22c0,4.54-3.35,7.27-7.65,7.27S214.34,93.3,214.34,88.78Zm10.43-.08v-.21c0-2.36-.94-3.67-2.76-3.67s-2.78,1.26-2.78,3.61v.22c0,2.4.94,3.71,2.78,3.71S224.77,91,224.77,88.7Z" fill="#fff"/><path d="M235.6,86.16v-.22c0-5.83,4.28-9.76,10-9.76,4.53,0,8.54,2.06,8.91,7h-5.43c-.27-1.8-1.42-2.73-3.45-2.73-2.7,0-4.33,2.08-4.33,5.53v.22c0,3.1,1.15,5.51,4.46,5.51,2.68,0,3.7-1.37,3.8-2.89H246V85h9v2.35c0,4.87-3.19,8.53-9.37,8.53C239.13,95.92,235.6,91.88,235.6,86.16Z" fill="#fff"/><path d="M256.09,88.78v-.21c0-4.5,3.35-7.33,7.68-7.33s7.62,2.75,7.62,7.19v.22c0,4.54-3.34,7.27-7.65,7.27S256.09,93.3,256.09,88.78Zm10.44-.08v-.21c0-2.36-.94-3.67-2.76-3.67S261,86.08,261,88.43v.22c0,2.4.93,3.71,2.78,3.71S266.53,91,266.53,88.7Z" fill="#fff"/><path d="M22.09,117.53v-.21c0-4.5,3.34-7.33,7.67-7.33s7.63,2.75,7.63,7.19v.22c0,4.54-3.35,7.27-7.65,7.27S22.09,122.05,22.09,117.53Zm10.43-.08v-.21c0-2.36-.94-3.67-2.76-3.67S27,114.83,27,117.18v.22c0,2.4.94,3.71,2.78,3.71S32.52,119.78,32.52,117.45Z" fill="#fff"/><path d="M39.07,110.36h4.79v2.78a4.43,4.43,0,0,1,4.52-3v4.47c-2.91-.08-4.52.83-4.52,3.08v6.63H39.07Z" fill="#fff"/><path d="M55.71,113.63H54v-3.27h1.76v-1.23c0-3.48,2.17-5.13,5.49-5.13a8.55,8.55,0,0,1,2.19.29v3.5a4.7,4.7,0,0,0-1.31-.18,1.4,1.4,0,0,0-1.61,1.52v1.23h2.84v3.27H60.47v10.72H55.71Z" fill="#fff"/><path d="M64.81,106.56a2.5,2.5,0,0,1,2.62-2.48,2.48,2.48,0,1,1,0,4.94A2.47,2.47,0,0,1,64.81,106.56Zm.24,3.8h4.78v14H65.05Z" fill="#fff"/><path d="M72.54,104.21H77.3v20.14H72.54Z" fill="#fff"/><path d="M79.12,117.53v-.21c0-4.5,3.34-7.33,7.57-7.33,3.82,0,7.11,2.19,7.11,7.22v1.26H84a2.79,2.79,0,0,0,2.91,2.91c1.58,0,2.25-.72,2.44-1.66H93.8c-.43,3.16-2.86,5-7.09,5S79.12,122.1,79.12,117.53Zm10-1.77c-.08-1.68-.91-2.62-2.46-2.62A2.66,2.66,0,0,0,84,115.76Z" fill="#fff"/><path d="M99.58,117.53v-.21c0-4.5,3.34-7.33,7.68-7.33s7.62,2.75,7.62,7.19v.22c0,4.54-3.34,7.27-7.65,7.27S99.58,122.05,99.58,117.53Zm10.43-.08v-.21c0-2.36-.93-3.67-2.75-3.67s-2.78,1.26-2.78,3.61v.22c0,2.4.93,3.71,2.78,3.71S110,119.78,110,117.45Z" fill="#fff"/><path d="M116.57,110.36h4.78v2.25A4.94,4.94,0,0,1,126,110c2.7,0,4.57,1.68,4.57,5.27v9.09h-4.79v-8.13c0-1.58-.61-2.35-2-2.35s-2.39.85-2.39,2.64v7.84h-4.78Z" fill="#fff"/><path d="M133,104.21h4.76v20.14H133Z" fill="#fff"/><path d="M140.21,106.56a2.64,2.64,0,1,1,2.62,2.46A2.5,2.5,0,0,1,140.21,106.56Zm.24,3.8h4.79v14h-4.79Z" fill="#fff"/><path d="M147.81,110.36h4.79v2.25a4.92,4.92,0,0,1,4.6-2.62c2.7,0,4.57,1.68,4.57,5.27v9.09H157v-8.13c0-1.58-.62-2.35-2-2.35s-2.38.85-2.38,2.64v7.84h-4.79Z" fill="#fff"/><path d="M163.35,117.53v-.21c0-4.5,3.35-7.33,7.57-7.33,3.83,0,7.12,2.19,7.12,7.22v1.26h-9.85a2.8,2.8,0,0,0,2.92,2.91c1.58,0,2.25-.72,2.43-1.66H178c-.43,3.16-2.87,5-7.09,5C166.56,124.67,163.35,122.1,163.35,117.53Zm10-1.77c-.08-1.68-.91-2.62-2.46-2.62a2.66,2.66,0,0,0-2.67,2.62Z" fill="#fff"/><path d="M179.38,121.94a2.67,2.67,0,0,1,2.72-2.7,2.71,2.71,0,1,1,0,5.41A2.67,2.67,0,0,1,179.38,121.94Z" fill="#fff"/><rect width="300" height="250" fill="none"/></g></g></g></g></svg>