<svg xmlns="http://www.w3.org/2000/svg" viewBox="0 0 728 90"><title>H4</title><g id="Layer_2" data-name="Layer 2"><g id="Rect"><rect width="728" height="90" fill="none"/></g><g id="H04"><g id="You_could_get_a_Refund_Advance_loan._0_Interest._Starts_Jan_4." data-name="You could get a Refund Advance loan. 0% Interest. Starts Jan 4."><path d="M126.91,25.8l-6.68-11.72h6.39L130.09,21l3.46-6.91h5.62L132.81,25.8v8.77h-5.9Z" fill="#fff"/><path d="M137,27.27V27c0-4.82,3.58-7.85,8.22-7.85s8.17,2.95,8.17,7.7v.23c0,4.87-3.58,7.8-8.2,7.8S137,32.11,137,27.27Zm11.17-.09V27c0-2.52-1-3.93-2.95-3.93s-3,1.35-3,3.87v.23c0,2.58,1,4,3,4S148.19,29.67,148.19,27.18Z" fill="#fff"/><path d="M155.1,29.36V19.59h5.13v8.94c0,1.69.65,2.52,2.12,2.52s2.55-.92,2.55-2.84V19.59H170v15H164.9V32.25a4.94,4.94,0,0,1-4.76,2.67C157.25,34.92,155.1,33.14,155.1,29.36Z" fill="#fff"/><path d="M177,27.27V27c0-5,3.58-7.85,8-7.85,3.66,0,7.05,1.6,7.33,6.16h-4.81a2.22,2.22,0,0,0-2.41-2.18c-1.8,0-2.86,1.29-2.86,3.81v.23c0,2.61,1,3.95,3,3.95a2.49,2.49,0,0,0,2.6-2.49h4.62c-.15,3.78-2.7,6.25-7.54,6.25C180.45,34.92,177,32.31,177,27.27Z" fill="#fff"/><path d="M193.31,27.27V27c0-4.82,3.59-7.85,8.23-7.85s8.17,2.95,8.17,7.7v.23c0,4.87-3.59,7.8-8.2,7.8S193.31,32.11,193.31,27.27Zm11.18-.09V27c0-2.52-1-3.93-3-3.93s-3,1.35-3,3.87v.23c0,2.58,1,4,3,4S204.49,29.67,204.49,27.18Z" fill="#fff"/><path d="M211.39,29.36V19.59h5.13v8.94c0,1.69.66,2.52,2.12,2.52s2.55-.92,2.55-2.84V19.59h5.13v15h-5.13V32.25a4.91,4.91,0,0,1-4.75,2.67C213.54,34.92,211.39,33.14,211.39,29.36Z" fill="#fff"/><path d="M229.07,13h5.1V34.57h-5.1Z" fill="#fff"/><path d="M236.17,27.24V27c0-5.1,2.81-7.82,6.37-7.82a4.85,4.85,0,0,1,4.61,2.52V13h5.13V34.57h-5.13V32.14a5.05,5.05,0,0,1-4.67,2.78C239,34.92,236.17,32.42,236.17,27.24Zm11.12-.09v-.23c0-2.52-1.06-3.87-2.95-3.87s-3,1.29-3,3.9v.23c0,2.52,1.12,3.81,2.89,3.81S247.29,29.7,247.29,27.15Z" fill="#fff"/><path d="M259.27,34.57h5.1c.23,1.09.88,2,2.75,2a2.84,2.84,0,0,0,3.18-3.15V31.08a5.27,5.27,0,0,1-4.64,2.75c-3.5,0-6.37-2.58-6.37-7.19v-.23c0-4.42,2.84-7.22,6.37-7.22a4.88,4.88,0,0,1,4.64,2.52V19.59h5.13V33.31c0,4.47-2.95,6.82-8.31,6.82C262,40.13,259.67,38,259.27,34.57Zm11.17-8v-.2c0-2.07-1.06-3.39-2.95-3.39s-2.95,1.35-2.95,3.42v.22c0,2.07,1.09,3.39,2.92,3.39S270.44,28.73,270.44,26.61Z" fill="#fff"/><path d="M277.23,27.27V27c0-4.82,3.58-7.85,8.11-7.85,4.1,0,7.62,2.34,7.62,7.73v1.35H282.42a3,3,0,0,0,3.12,3.12c1.69,0,2.41-.77,2.61-1.77H293c-.46,3.38-3.07,5.3-7.59,5.3C280.67,34.92,277.23,32.17,277.23,27.27ZM288,25.37c-.08-1.8-1-2.8-2.63-2.8s-2.61,1-2.87,2.8Z" fill="#fff"/><path d="M295.42,29.76V23.08h-1.8V19.59h1.8V16.46h5.13v3.13h2.95v3.49h-2.95v6.19a1.37,1.37,0,0,0,1.52,1.58,4,4,0,0,0,1.46-.26v3.9a10.83,10.83,0,0,1-2.84.43C297.31,34.92,295.42,33.28,295.42,29.76Z" fill="#fff"/><path d="M309.8,30.42c0-3.53,3-4.9,8-4.9h1.43v-.35c0-1.43-.34-2.37-2-2.37a1.84,1.84,0,0,0-2,1.77h-4.81c.23-3.61,3.06-5.38,7.16-5.38s6.76,1.69,6.76,5.67v9.71h-5V32.83a5,5,0,0,1-4.44,2.09C312.18,34.92,309.8,33.6,309.8,30.42Zm9.4-1.09v-.92h-1.34c-2.07,0-3,.4-3,1.64,0,.86.57,1.4,1.77,1.4C318.11,31.45,319.2,30.62,319.2,29.33Z" fill="#fff"/><path d="M332.46,14.08h8c5.36,0,8.34,2.18,8.34,6.51v.11a5.35,5.35,0,0,1-3.7,5.39l4.9,8.48h-6.19l-4.15-7.33h-1.38v7.33h-5.85Zm7.74,9.35c2,0,2.95-.83,2.95-2.5v-.11c0-1.66-1-2.32-2.92-2.32h-1.92v4.93Z" fill="#fff"/><path d="M350,27.27V27c0-4.82,3.58-7.85,8.11-7.85,4.09,0,7.62,2.34,7.62,7.73v1.35H355.21c.15,2,1.29,3.12,3.13,3.12s2.4-.77,2.6-1.77h4.82c-.46,3.38-3.07,5.3-7.59,5.3C353.47,34.92,350,32.17,350,27.27Zm10.74-1.9c-.08-1.8-1-2.8-2.63-2.8s-2.61,1-2.87,2.8Z" fill="#fff"/><path d="M368.31,23.08h-1.9V19.59h1.9V18.27c0-3.73,2.32-5.5,5.87-5.5a9.23,9.23,0,0,1,2.35.31v3.75a4.84,4.84,0,0,0-1.4-.2,1.51,1.51,0,0,0-1.72,1.64v1.32h3v3.49h-3V34.57h-5.1Z" fill="#fff"/><path d="M378.05,29.36V19.59h5.13v8.94c0,1.69.65,2.52,2.12,2.52s2.55-.92,2.55-2.84V19.59H393v15h-5.13V32.25a4.94,4.94,0,0,1-4.76,2.67C380.2,34.92,378.05,33.14,378.05,29.36Z" fill="#fff"/><path d="M395.58,19.59h5.13V22a5.29,5.29,0,0,1,4.93-2.8c2.89,0,4.9,1.8,4.9,5.64v9.74h-5.13V25.86c0-1.69-.66-2.52-2.15-2.52s-2.55.92-2.55,2.84v8.39h-5.13Z" fill="#fff"/><path d="M412.28,27.24V27c0-5.1,2.81-7.82,6.36-7.82a4.87,4.87,0,0,1,4.62,2.52V13h5.13V34.57h-5.13V32.14a5.05,5.05,0,0,1-4.67,2.78C415.12,34.92,412.28,32.42,412.28,27.24Zm11.12-.09v-.23c0-2.52-1.06-3.87-2.95-3.87s-2.95,1.29-2.95,3.9v.23c0,2.52,1.12,3.81,2.89,3.81S423.4,29.7,423.4,27.15Z" fill="#fff"/><path d="M441.62,14.08h7.59l6.51,20.49H449.5l-1.09-3.81h-6.79l-1.09,3.81h-5.47Zm1.15,12.64h4.5L445,18.84Z" fill="#fff"/><path d="M456.06,27.24V27c0-5.1,2.81-7.82,6.36-7.82A4.85,4.85,0,0,1,467,21.71V13h5.13V34.57H467V32.14a5,5,0,0,1-4.67,2.78C458.9,34.92,456.06,32.42,456.06,27.24Zm11.12-.09v-.23c0-2.52-1.06-3.87-2.95-3.87s-3,1.29-3,3.9v.23c0,2.52,1.12,3.81,2.9,3.81S467.18,29.7,467.18,27.15Z" fill="#fff"/><path d="M473.48,19.59H479l3.13,9.65,3.06-9.65H490l-5.47,15H479Z" fill="#fff"/><path d="M489.84,30.42c0-3.53,3-4.9,8-4.9h1.44v-.35c0-1.43-.35-2.37-2-2.37a1.85,1.85,0,0,0-2,1.77h-4.81c.23-3.61,3.07-5.38,7.16-5.38s6.77,1.69,6.77,5.67v9.71h-5V32.83a4.94,4.94,0,0,1-4.44,2.09C492.22,34.92,489.84,33.6,489.84,30.42Zm9.4-1.09v-.92h-1.35c-2.06,0-3,.4-3,1.64,0,.86.57,1.4,1.78,1.4C498.15,31.45,499.24,30.62,499.24,29.33Z" fill="#fff"/><path d="M506.83,19.59H512V22a5.28,5.28,0,0,1,4.92-2.8c2.9,0,4.91,1.8,4.91,5.64v9.74h-5.13V25.86c0-1.69-.66-2.52-2.15-2.52s-2.55.92-2.55,2.84v8.39h-5.13Z" fill="#fff"/><path d="M523.47,27.27V27c0-5,3.58-7.85,8-7.85,3.66,0,7,1.6,7.33,6.16H534a2.22,2.22,0,0,0-2.41-2.18c-1.8,0-2.86,1.29-2.86,3.81v.23c0,2.61,1,3.95,2.95,3.95a2.5,2.5,0,0,0,2.61-2.49h4.61c-.14,3.78-2.69,6.25-7.54,6.25C526.88,34.92,523.47,32.31,523.47,27.27Z" fill="#fff"/><path d="M539.75,27.27V27c0-4.82,3.58-7.85,8.1-7.85,4.1,0,7.63,2.34,7.63,7.73v1.35H544.93c.15,2,1.29,3.12,3.13,3.12s2.4-.77,2.6-1.77h4.82c-.46,3.38-3.07,5.3-7.6,5.3C543.18,34.92,539.75,32.17,539.75,27.27Zm10.74-1.9c-.08-1.8-1-2.8-2.64-2.8s-2.6,1-2.86,2.8Z" fill="#fff"/><path d="M121.66,43.65h5.1V65.22h-5.1Z" fill="#fff"/><path d="M128.71,57.92v-.23c0-4.82,3.58-7.86,8.22-7.86s8.17,3,8.17,7.71v.23c0,4.87-3.58,7.8-8.19,7.8S128.71,62.76,128.71,57.92Zm11.18-.09V57.6c0-2.52-1-3.93-3-3.93s-3,1.35-3,3.87v.23c0,2.58,1,4,3,4S139.89,60.32,139.89,57.83Z" fill="#fff"/><path d="M146,61.07c0-3.53,3-4.9,8-4.9h1.43v-.35c0-1.43-.34-2.37-2-2.37a1.84,1.84,0,0,0-2,1.77h-4.81c.22-3.61,3.06-5.39,7.16-5.39s6.76,1.7,6.76,5.68v9.71h-5V63.48a5,5,0,0,1-4.45,2.09C148.42,65.57,146,64.25,146,61.07Zm9.4-1.09v-.92h-1.35c-2.06,0-3,.4-3,1.64,0,.86.58,1.4,1.78,1.4C154.35,62.1,155.44,61.27,155.44,60Z" fill="#fff"/><path d="M163,50.24h5.13v2.4a5.31,5.31,0,0,1,4.93-2.81c2.89,0,4.9,1.81,4.9,5.65v9.74h-5.13V56.51c0-1.69-.66-2.52-2.15-2.52s-2.55.92-2.55,2.84v8.39H163Z" fill="#fff"/><path d="M180.28,62.64a2.85,2.85,0,0,1,2.92-2.89,2.9,2.9,0,1,1,0,5.79A2.86,2.86,0,0,1,180.28,62.64Z" fill="#fff"/><path d="M193.34,55.42v-.86c0-6.47,4-10.11,9.46-10.11s9.46,3.35,9.46,10v.8c0,6.51-3.73,10.32-9.58,10.32S193.34,61.87,193.34,55.42Zm13-.05v-.84c0-3.75-1.09-5.64-3.58-5.64s-3.58,1.86-3.58,5.64v.86c0,3.82,1.11,5.62,3.64,5.62S206.38,59.15,206.38,55.37Z" fill="#fff"/><path d="M213.37,49.61a5.16,5.16,0,0,1,5.44-5.11,5.15,5.15,0,1,1,0,10.29C215.4,54.79,213.37,52.56,213.37,49.61Zm16.88-4.88h2.81L218.84,65.22H216Zm-9.8,4.88c0-1.35-.58-2.18-1.64-2.18s-1.69.8-1.69,2.15.63,2.23,1.69,2.23S220.45,51,220.45,49.61Zm4.32,10.77a5.16,5.16,0,0,1,5.45-5.1c3.09,0,5.41,2.06,5.41,5a5.14,5.14,0,0,1-5.44,5.28A5,5,0,0,1,224.77,60.38Zm7.11,0c0-1.32-.57-2.15-1.66-2.15s-1.66.8-1.66,2.15.63,2.21,1.66,2.21S231.88,61.73,231.88,60.35Z" fill="#fff"/><path d="M243.22,44.73h5.93V65.22h-5.93Z" fill="#fff"/><path d="M252.3,50.24h5.13v2.4a5.32,5.32,0,0,1,4.93-2.81c2.9,0,4.9,1.81,4.9,5.65v9.74h-5.13V56.51c0-1.69-.66-2.52-2.15-2.52s-2.55.92-2.55,2.84v8.39H252.3Z" fill="#fff"/><path d="M270.44,60.41V53.73h-1.81V50.24h1.81V47.11h5.13v3.13h2.95v3.49h-2.95v6.19c0,1.09.54,1.58,1.52,1.58a4,4,0,0,0,1.46-.26v3.9a10.83,10.83,0,0,1-2.84.43C272.33,65.57,270.44,63.93,270.44,60.41Z" fill="#fff"/><path d="M279.66,57.92v-.23c0-4.82,3.59-7.86,8.11-7.86,4.1,0,7.63,2.35,7.63,7.74v1.35H284.85A3,3,0,0,0,288,62c1.7,0,2.41-.77,2.61-1.77h4.82c-.46,3.38-3.07,5.3-7.6,5.3C283.1,65.57,279.66,62.82,279.66,57.92ZM290.41,56c-.09-1.8-1-2.8-2.64-2.8s-2.6,1-2.86,2.8Z" fill="#fff"/><path d="M297.17,50.24h5.13v3A4.71,4.71,0,0,1,307.14,50v4.78c-3.12-.08-4.84.89-4.84,3.3v7.1h-5.13Z" fill="#fff"/><path d="M308.06,57.92v-.23c0-4.82,3.58-7.86,8.11-7.86,4.09,0,7.62,2.35,7.62,7.74v1.35H313.24c.15,2,1.29,3.12,3.13,3.12,1.69,0,2.4-.77,2.6-1.77h4.82c-.46,3.38-3.07,5.3-7.6,5.3C311.5,65.57,308.06,62.82,308.06,57.92ZM318.8,56c-.08-1.8-1-2.8-2.63-2.8s-2.61,1-2.87,2.8Z" fill="#fff"/><path d="M324.7,60.47h4.73c.17,1.09.66,1.69,2.12,1.69,1.26,0,1.83-.49,1.83-1.24s-.71-1.06-2.78-1.34c-4-.52-5.7-1.69-5.7-4.82,0-3.32,3-4.93,6.42-4.93,3.7,0,6.28,1.27,6.62,4.85H333.3a1.67,1.67,0,0,0-1.92-1.49c-1.12,0-1.69.48-1.69,1.17s.69,1,2.52,1.23c4.15.52,6.16,1.61,6.16,4.82,0,3.55-2.64,5.16-6.79,5.16S324.82,63.79,324.7,60.47Z" fill="#fff"/><path d="M340.72,60.41V53.73h-1.81V50.24h1.81V47.11h5.13v3.13h2.95v3.49h-2.95v6.19c0,1.09.54,1.58,1.52,1.58a4,4,0,0,0,1.46-.26v3.9a10.9,10.9,0,0,1-2.84.43C342.61,65.57,340.72,63.93,340.72,60.41Z" fill="#fff"/><path d="M350.54,62.64a2.86,2.86,0,0,1,2.93-2.89,2.9,2.9,0,1,1,0,5.79A2.87,2.87,0,0,1,350.54,62.64Z" fill="#fff"/><path d="M363.23,58.72h5.59c.15,1.46.8,2.66,3.24,2.66,1.69,0,2.64-.83,2.64-2s-.78-1.61-3.24-2c-5.79-.69-7.74-2.41-7.74-6.53,0-3.7,3-6.39,7.94-6.39s7.71,2.06,8.08,6.39H374.3a2.34,2.34,0,0,0-2.64-2.21c-1.58,0-2.38.72-2.38,1.75s.63,1.66,3.18,2c5.19.57,7.85,1.92,7.85,6.36,0,3.75-3,6.82-8.25,6.82C366.33,65.57,363.41,63.16,363.23,58.72Z" fill="#fff"/><path d="M382.89,60.41V53.73h-1.81V50.24h1.81V47.11H388v3.13h3v3.49h-3v6.19c0,1.09.54,1.58,1.52,1.58a4,4,0,0,0,1.46-.26v3.9a10.83,10.83,0,0,1-2.84.43C384.78,65.57,382.89,63.93,382.89,60.41Z" fill="#fff"/><path d="M392.11,61.07c0-3.53,3-4.9,8-4.9h1.43v-.35c0-1.43-.34-2.37-2-2.37a1.84,1.84,0,0,0-2,1.77h-4.81c.23-3.61,3.06-5.39,7.16-5.39s6.76,1.7,6.76,5.68v9.71h-5V63.48a5,5,0,0,1-4.44,2.09C394.49,65.57,392.11,64.25,392.11,61.07Zm9.4-1.09v-.92h-1.34c-2.07,0-3,.4-3,1.64,0,.86.57,1.4,1.77,1.4C400.42,62.1,401.51,61.27,401.51,60Z" fill="#fff"/><path d="M409.1,50.24h5.13v3A4.72,4.72,0,0,1,419.08,50v4.78c-3.13-.08-4.85.89-4.85,3.3v7.1H409.1Z" fill="#fff"/><path d="M421.85,60.41V53.73h-1.8V50.24h1.8V47.11H427v3.13h2.95v3.49H427v6.19a1.37,1.37,0,0,0,1.52,1.58,4,4,0,0,0,1.46-.26v3.9a10.83,10.83,0,0,1-2.84.43C423.74,65.57,421.85,63.93,421.85,60.41Z" fill="#fff"/><path d="M431.08,60.47h4.72c.18,1.09.66,1.69,2.12,1.69,1.27,0,1.84-.49,1.84-1.24S439,59.86,437,59.58c-4-.52-5.7-1.69-5.7-4.82,0-3.32,3-4.93,6.42-4.93,3.69,0,6.27,1.27,6.62,4.85h-4.65a1.67,1.67,0,0,0-1.92-1.49c-1.11,0-1.69.48-1.69,1.17s.69,1,2.52,1.23c4.16.52,6.17,1.61,6.17,4.82,0,3.55-2.64,5.16-6.8,5.16S431.19,63.79,431.08,60.47Z" fill="#fff"/><path d="M451,64.79V60.41a7,7,0,0,0,2.5.4c1.6,0,2.66-.72,2.66-2.84V44.73h5.91V58c0,4.93-2.53,7.45-7.34,7.45A7.94,7.94,0,0,1,451,64.79Z" fill="#fff"/><path d="M463.74,61.07c0-3.53,3-4.9,8-4.9h1.44v-.35c0-1.43-.35-2.37-2-2.37a1.84,1.84,0,0,0-2,1.77h-4.81c.23-3.61,3.07-5.39,7.16-5.39s6.77,1.7,6.77,5.68v9.71h-5V63.48a4.94,4.94,0,0,1-4.44,2.09C466.12,65.57,463.74,64.25,463.74,61.07Zm9.4-1.09v-.92h-1.35c-2.06,0-3,.4-3,1.64,0,.86.57,1.4,1.78,1.4C472.05,62.1,473.14,61.27,473.14,60Z" fill="#fff"/><path d="M480.73,50.24h5.13v2.4a5.29,5.29,0,0,1,4.92-2.81c2.9,0,4.9,1.81,4.9,5.65v9.74h-5.12V56.51c0-1.69-.66-2.52-2.15-2.52s-2.55.92-2.55,2.84v8.39h-5.13Z" fill="#fff"/><path d="M512.36,61.3h-10V59.09l8.54-14.36H518V57.26h2.64v4H518v3.92h-5.64Zm.14-4V49.15l-4.58,8.11Z" fill="#fff"/><path d="M521.9,62.64a2.85,2.85,0,0,1,2.92-2.89,2.9,2.9,0,1,1,0,5.79A2.86,2.86,0,0,1,521.9,62.64Z" fill="#fff"/></g></g></g></svg>