<svg xmlns="http://www.w3.org/2000/svg" viewBox="0 0 728 90"><title>H4</title><g id="Layer_2" data-name="Layer 2"><g id="Rect"><rect width="728" height="90" fill="none"/></g><g id="H4"><g id="You_could_get_a_Refund_Advance_loan._0_interest._Starts_Jan_4." data-name="You could get a Refund Advance loan. 0% interest. Starts Jan 4."><path d="M126.91,25.8l-6.68-11.72h6.39L130.09,21l3.46-6.91h5.62L132.81,25.8v8.77h-5.9Z" fill="#fff"/><path d="M137,27.27V27c0-4.82,3.58-7.85,8.22-7.85s8.17,2.95,8.17,7.7v.23c0,4.87-3.58,7.8-8.2,7.8S137,32.11,137,27.27Zm11.17-.09V27c0-2.52-1-3.93-2.95-3.93s-3,1.35-3,3.87v.23c0,2.58,1,4,3,4S148.19,29.67,148.19,27.18Z" fill="#fff"/><path d="M155.1,29.36V19.59h5.13v8.94c0,1.69.65,2.52,2.12,2.52s2.55-.92,2.55-2.84V19.59H170v15H164.9V32.25a4.94,4.94,0,0,1-4.76,2.67C157.25,34.92,155.1,33.14,155.1,29.36Z" fill="#fff"/><path d="M177,27.27V27c0-5,3.58-7.85,8-7.85,3.66,0,7.05,1.6,7.33,6.16h-4.81a2.22,2.22,0,0,0-2.41-2.18c-1.8,0-2.86,1.29-2.86,3.81v.23c0,2.61,1,3.95,3,3.95a2.49,2.49,0,0,0,2.6-2.49h4.62c-.15,3.78-2.7,6.25-7.54,6.25C180.45,34.92,177,32.31,177,27.27Z" fill="#fff"/><path d="M193.31,27.27V27c0-4.82,3.59-7.85,8.23-7.85s8.17,2.95,8.17,7.7v.23c0,4.87-3.59,7.8-8.2,7.8S193.31,32.11,193.31,27.27Zm11.18-.09V27c0-2.52-1-3.93-3-3.93s-3,1.35-3,3.87v.23c0,2.58,1,4,3,4S204.49,29.67,204.49,27.18Z" fill="#fff"/><path d="M211.39,29.36V19.59h5.13v8.94c0,1.69.66,2.52,2.12,2.52s2.55-.92,2.55-2.84V19.59h5.13v15h-5.13V32.25a4.91,4.91,0,0,1-4.75,2.67C213.54,34.92,211.39,33.14,211.39,29.36Z" fill="#fff"/><path d="M229.07,13h5.1V34.57h-5.1Z" fill="#fff"/><path d="M236.17,27.24V27c0-5.1,2.81-7.82,6.37-7.82a4.85,4.85,0,0,1,4.61,2.52V13h5.13V34.57h-5.13V32.14a5.05,5.05,0,0,1-4.67,2.78C239,34.92,236.17,32.42,236.17,27.24Zm11.12-.09v-.23c0-2.52-1.06-3.87-2.95-3.87s-3,1.29-3,3.9v.23c0,2.52,1.12,3.81,2.89,3.81S247.29,29.7,247.29,27.15Z" fill="#fff"/><path d="M259.27,34.57h5.1c.23,1.09.88,2,2.75,2a2.84,2.84,0,0,0,3.18-3.15V31.08a5.27,5.27,0,0,1-4.64,2.75c-3.5,0-6.37-2.58-6.37-7.19v-.23c0-4.42,2.84-7.22,6.37-7.22a4.88,4.88,0,0,1,4.64,2.52V19.59h5.13V33.31c0,4.47-2.95,6.82-8.31,6.82C262,40.13,259.67,38,259.27,34.57Zm11.17-8v-.2c0-2.07-1.06-3.39-2.95-3.39s-2.95,1.35-2.95,3.42v.22c0,2.07,1.09,3.39,2.92,3.39S270.44,28.73,270.44,26.61Z" fill="#fff"/><path d="M277.23,27.27V27c0-4.82,3.58-7.85,8.11-7.85,4.1,0,7.62,2.34,7.62,7.73v1.35H282.42a3,3,0,0,0,3.12,3.12c1.69,0,2.41-.77,2.61-1.77H293c-.46,3.38-3.07,5.3-7.59,5.3C280.67,34.92,277.23,32.17,277.23,27.27ZM288,25.37c-.08-1.8-1-2.8-2.63-2.8s-2.61,1-2.87,2.8Z" fill="#fff"/><path d="M295.42,29.76V23.08h-1.8V19.59h1.8V16.46h5.13v3.13h2.95v3.49h-2.95v6.19a1.37,1.37,0,0,0,1.52,1.58,4,4,0,0,0,1.46-.26v3.9a10.83,10.83,0,0,1-2.84.43C297.31,34.92,295.42,33.28,295.42,29.76Z" fill="#fff"/><path d="M309.8,30.42c0-3.53,3-4.9,8-4.9h1.43v-.35c0-1.43-.34-2.37-2-2.37a1.84,1.84,0,0,0-2,1.77h-4.81c.23-3.61,3.06-5.38,7.16-5.38s6.76,1.69,6.76,5.67v9.71h-5V32.83a5,5,0,0,1-4.44,2.09C312.18,34.92,309.8,33.6,309.8,30.42Zm9.4-1.09v-.92h-1.34c-2.07,0-3,.4-3,1.64,0,.86.57,1.4,1.77,1.4C318.11,31.45,319.2,30.62,319.2,29.33Z" fill="#fff"/><path d="M332.46,14.08h8c5.36,0,8.34,2.18,8.34,6.51v.11a5.35,5.35,0,0,1-3.7,5.39l4.9,8.48h-6.19l-4.15-7.33h-1.38v7.33h-5.85Zm7.74,9.35c2,0,2.95-.83,2.95-2.5v-.11c0-1.66-1-2.32-2.92-2.32h-1.92v4.93Z" fill="#fff"/><path d="M350,27.27V27c0-4.82,3.58-7.85,8.11-7.85,4.09,0,7.62,2.34,7.62,7.73v1.35H355.21c.15,2,1.29,3.12,3.13,3.12s2.4-.77,2.6-1.77h4.82c-.46,3.38-3.07,5.3-7.59,5.3C353.47,34.92,350,32.17,350,27.27Zm10.74-1.9c-.08-1.8-1-2.8-2.63-2.8s-2.61,1-2.87,2.8Z" fill="#fff"/><path d="M368.31,23.08h-1.9V19.59h1.9V18.27c0-3.73,2.32-5.5,5.87-5.5a9.23,9.23,0,0,1,2.35.31v3.75a4.84,4.84,0,0,0-1.4-.2,1.51,1.51,0,0,0-1.72,1.64v1.32h3v3.49h-3V34.57h-5.1Z" fill="#fff"/><path d="M378.05,29.36V19.59h5.13v8.94c0,1.69.65,2.52,2.12,2.52s2.55-.92,2.55-2.84V19.59H393v15h-5.13V32.25a4.94,4.94,0,0,1-4.76,2.67C380.2,34.92,378.05,33.14,378.05,29.36Z" fill="#fff"/><path d="M395.58,19.59h5.13V22a5.29,5.29,0,0,1,4.93-2.8c2.89,0,4.9,1.8,4.9,5.64v9.74h-5.13V25.86c0-1.69-.66-2.52-2.15-2.52s-2.55.92-2.55,2.84v8.39h-5.13Z" fill="#fff"/><path d="M412.28,27.24V27c0-5.1,2.81-7.82,6.36-7.82a4.87,4.87,0,0,1,4.62,2.52V13h5.13V34.57h-5.13V32.14a5.05,5.05,0,0,1-4.67,2.78C415.12,34.92,412.28,32.42,412.28,27.24Zm11.12-.09v-.23c0-2.52-1.06-3.87-2.95-3.87s-2.95,1.29-2.95,3.9v.23c0,2.52,1.12,3.81,2.89,3.81S423.4,29.7,423.4,27.15Z" fill="#fff"/><path d="M441.62,14.08h7.59l6.51,20.49H449.5l-1.09-3.81h-6.79l-1.09,3.81h-5.47Zm1.15,12.64h4.5L445,18.84Z" fill="#fff"/><path d="M456.06,27.24V27c0-5.1,2.81-7.82,6.36-7.82A4.85,4.85,0,0,1,467,21.71V13h5.13V34.57H467V32.14a5,5,0,0,1-4.67,2.78C458.9,34.92,456.06,32.42,456.06,27.24Zm11.12-.09v-.23c0-2.52-1.06-3.87-2.95-3.87s-3,1.29-3,3.9v.23c0,2.52,1.12,3.81,2.9,3.81S467.18,29.7,467.18,27.15Z" fill="#fff"/><path d="M473.48,19.59H479l3.13,9.65,3.06-9.65H490l-5.47,15H479Z" fill="#fff"/><path d="M489.84,30.42c0-3.53,3-4.9,8-4.9h1.44v-.35c0-1.43-.35-2.37-2-2.37a1.85,1.85,0,0,0-2,1.77h-4.81c.23-3.61,3.07-5.38,7.16-5.38s6.77,1.69,6.77,5.67v9.71h-5V32.83a4.94,4.94,0,0,1-4.44,2.09C492.22,34.92,489.84,33.6,489.84,30.42Zm9.4-1.09v-.92h-1.35c-2.06,0-3,.4-3,1.64,0,.86.57,1.4,1.78,1.4C498.15,31.45,499.24,30.62,499.24,29.33Z" fill="#fff"/><path d="M506.83,19.59H512V22a5.28,5.28,0,0,1,4.92-2.8c2.9,0,4.91,1.8,4.91,5.64v9.74h-5.13V25.86c0-1.69-.66-2.52-2.15-2.52s-2.55.92-2.55,2.84v8.39h-5.13Z" fill="#fff"/><path d="M523.47,27.27V27c0-5,3.58-7.85,8-7.85,3.66,0,7,1.6,7.33,6.16H534a2.22,2.22,0,0,0-2.41-2.18c-1.8,0-2.86,1.29-2.86,3.81v.23c0,2.61,1,3.95,2.95,3.95a2.5,2.5,0,0,0,2.61-2.49h4.61c-.14,3.78-2.69,6.25-7.54,6.25C526.88,34.92,523.47,32.31,523.47,27.27Z" fill="#fff"/><path d="M539.75,27.27V27c0-4.82,3.58-7.85,8.1-7.85,4.1,0,7.63,2.34,7.63,7.73v1.35H544.93c.15,2,1.29,3.12,3.13,3.12s2.4-.77,2.6-1.77h4.82c-.46,3.38-3.07,5.3-7.6,5.3C543.18,34.92,539.75,32.17,539.75,27.27Zm10.74-1.9c-.08-1.8-1-2.8-2.64-2.8s-2.6,1-2.86,2.8Z" fill="#fff"/><path d="M121.66,43.65h5.1V65.22h-5.1Z" fill="#fff"/><path d="M128.71,57.92v-.23c0-4.82,3.58-7.86,8.22-7.86s8.17,3,8.17,7.71v.23c0,4.87-3.58,7.8-8.19,7.8S128.71,62.76,128.71,57.92Zm11.18-.09V57.6c0-2.52-1-3.93-3-3.93s-3,1.35-3,3.87v.23c0,2.58,1,4,3,4S139.89,60.32,139.89,57.83Z" fill="#fff"/><path d="M146,61.07c0-3.53,3-4.9,8-4.9h1.43v-.35c0-1.43-.34-2.37-2-2.37a1.84,1.84,0,0,0-2,1.77h-4.81c.22-3.61,3.06-5.39,7.16-5.39s6.76,1.7,6.76,5.68v9.71h-5V63.48a5,5,0,0,1-4.45,2.09C148.42,65.57,146,64.25,146,61.07Zm9.4-1.09v-.92h-1.35c-2.06,0-3,.4-3,1.64,0,.86.58,1.4,1.78,1.4C154.35,62.1,155.44,61.27,155.44,60Z" fill="#fff"/><path d="M163,50.24h5.13v2.4a5.31,5.31,0,0,1,4.93-2.81c2.89,0,4.9,1.81,4.9,5.65v9.74h-5.13V56.51c0-1.69-.66-2.52-2.15-2.52s-2.55.92-2.55,2.84v8.39H163Z" fill="#fff"/><path d="M180.28,62.64a2.85,2.85,0,0,1,2.92-2.89,2.9,2.9,0,1,1,0,5.79A2.86,2.86,0,0,1,180.28,62.64Z" fill="#fff"/><path d="M193.34,55.42v-.86c0-6.47,4-10.11,9.46-10.11s9.46,3.35,9.46,10v.8c0,6.51-3.73,10.32-9.58,10.32S193.34,61.87,193.34,55.42Zm13-.05v-.84c0-3.75-1.09-5.64-3.58-5.64s-3.58,1.86-3.58,5.64v.86c0,3.82,1.11,5.62,3.64,5.62S206.38,59.15,206.38,55.37Z" fill="#fff"/><path d="M213.37,49.61a5.16,5.16,0,0,1,5.44-5.11,5.15,5.15,0,1,1,0,10.29C215.4,54.79,213.37,52.56,213.37,49.61Zm16.88-4.88h2.81L218.84,65.22H216Zm-9.8,4.88c0-1.35-.58-2.18-1.64-2.18s-1.69.8-1.69,2.15.63,2.23,1.69,2.23S220.45,51,220.45,49.61Zm4.32,10.77a5.16,5.16,0,0,1,5.45-5.1c3.09,0,5.41,2.06,5.41,5a5.14,5.14,0,0,1-5.44,5.28A5,5,0,0,1,224.77,60.38Zm7.11,0c0-1.32-.57-2.15-1.66-2.15s-1.66.8-1.66,2.15.63,2.21,1.66,2.21S231.88,61.73,231.88,60.35Z" fill="#fff"/><path d="M242.53,46.17a2.83,2.83,0,1,1,2.81,2.63A2.65,2.65,0,0,1,242.53,46.17Zm.26,4.07h5.13v15h-5.13Z" fill="#fff"/><path d="M250.67,50.24h5.13v2.4a5.31,5.31,0,0,1,4.93-2.81c2.89,0,4.9,1.81,4.9,5.65v9.74H260.5V56.51c0-1.69-.66-2.52-2.15-2.52s-2.55.92-2.55,2.84v8.39h-5.13Z" fill="#fff"/><path d="M268.81,60.41V53.73H267V50.24h1.81V47.11h5.13v3.13h2.95v3.49h-2.95v6.19c0,1.09.54,1.58,1.52,1.58a4,4,0,0,0,1.46-.26v3.9a10.9,10.9,0,0,1-2.84.43C270.7,65.57,268.81,63.93,268.81,60.41Z" fill="#fff"/><path d="M278,57.92v-.23c0-4.82,3.58-7.86,8.11-7.86,4.1,0,7.62,2.35,7.62,7.74v1.35H283.22A3,3,0,0,0,286.34,62c1.69,0,2.41-.77,2.61-1.77h4.81c-.45,3.38-3.06,5.3-7.59,5.3C281.47,65.57,278,62.82,278,57.92ZM288.78,56c-.09-1.8-1-2.8-2.64-2.8s-2.61,1-2.86,2.8Z" fill="#fff"/><path d="M295.54,50.24h5.13v3A4.71,4.71,0,0,1,305.51,50v4.78c-3.12-.08-4.84.89-4.84,3.3v7.1h-5.13Z" fill="#fff"/><path d="M306.42,57.92v-.23c0-4.82,3.59-7.86,8.11-7.86,4.1,0,7.63,2.35,7.63,7.74v1.35H311.61A3,3,0,0,0,314.73,62c1.69,0,2.41-.77,2.61-1.77h4.82c-.46,3.38-3.07,5.3-7.6,5.3C309.86,65.57,306.42,62.82,306.42,57.92ZM317.17,56c-.09-1.8-1-2.8-2.64-2.8s-2.6,1-2.86,2.8Z" fill="#fff"/><path d="M323.07,60.47h4.73c.17,1.09.66,1.69,2.12,1.69,1.26,0,1.83-.49,1.83-1.24S331,59.86,329,59.58c-4-.52-5.7-1.69-5.7-4.82,0-3.32,3-4.93,6.42-4.93,3.69,0,6.27,1.27,6.62,4.85h-4.64a1.68,1.68,0,0,0-1.92-1.49c-1.12,0-1.7.48-1.7,1.17s.69,1,2.53,1.23c4.15.52,6.16,1.61,6.16,4.82,0,3.55-2.64,5.16-6.79,5.16S323.18,63.79,323.07,60.47Z" fill="#fff"/><path d="M339.08,60.41V53.73h-1.8V50.24h1.8V47.11h5.13v3.13h3v3.49h-3v6.19a1.37,1.37,0,0,0,1.52,1.58,3.88,3.88,0,0,0,1.46-.26v3.9a10.81,10.81,0,0,1-2.83.43C341,65.57,339.08,63.93,339.08,60.41Z" fill="#fff"/><path d="M348.91,62.64a2.85,2.85,0,0,1,2.92-2.89,2.9,2.9,0,1,1,0,5.79A2.86,2.86,0,0,1,348.91,62.64Z" fill="#fff"/><path d="M361.6,58.72h5.59c.14,1.46.8,2.66,3.24,2.66,1.69,0,2.63-.83,2.63-2s-.77-1.61-3.23-2c-5.79-.69-7.74-2.41-7.74-6.53,0-3.7,3-6.39,7.94-6.39s7.71,2.06,8.08,6.39h-5.45A2.33,2.33,0,0,0,370,48.63c-1.58,0-2.38.72-2.38,1.75s.63,1.66,3.18,2c5.19.57,7.85,1.92,7.85,6.36,0,3.75-3,6.82-8.25,6.82C364.7,65.57,361.77,63.16,361.6,58.72Z" fill="#fff"/><path d="M381.26,60.41V53.73h-1.81V50.24h1.81V47.11h5.13v3.13h2.95v3.49h-2.95v6.19c0,1.09.54,1.58,1.51,1.58a4,4,0,0,0,1.47-.26v3.9a10.9,10.9,0,0,1-2.84.43C383.15,65.57,381.26,63.93,381.26,60.41Z" fill="#fff"/><path d="M390.48,61.07c0-3.53,3-4.9,8-4.9h1.43v-.35c0-1.43-.34-2.37-2-2.37a1.84,1.84,0,0,0-2,1.77h-4.82c.23-3.61,3.07-5.39,7.17-5.39s6.76,1.7,6.76,5.68v9.71h-5V63.48a4.93,4.93,0,0,1-4.44,2.09C392.86,65.57,390.48,64.25,390.48,61.07Zm9.4-1.09v-.92h-1.35c-2.06,0-3,.4-3,1.64,0,.86.58,1.4,1.78,1.4C398.79,62.1,399.88,61.27,399.88,60Z" fill="#fff"/><path d="M407.47,50.24h5.13v3A4.71,4.71,0,0,1,417.44,50v4.78c-3.12-.08-4.84.89-4.84,3.3v7.1h-5.13Z" fill="#fff"/><path d="M420.22,60.41V53.73h-1.81V50.24h1.81V47.11h5.13v3.13h2.95v3.49h-2.95v6.19c0,1.09.54,1.58,1.52,1.58a4,4,0,0,0,1.46-.26v3.9a10.83,10.83,0,0,1-2.84.43C422.11,65.57,420.22,63.93,420.22,60.41Z" fill="#fff"/><path d="M429.44,60.47h4.73c.17,1.09.66,1.69,2.12,1.69,1.26,0,1.84-.49,1.84-1.24s-.72-1.06-2.78-1.34c-4-.52-5.71-1.69-5.71-4.82,0-3.32,3-4.93,6.42-4.93,3.7,0,6.28,1.27,6.62,4.85H438a1.67,1.67,0,0,0-1.92-1.49c-1.12,0-1.69.48-1.69,1.17s.69,1,2.52,1.23c4.16.52,6.16,1.61,6.16,4.82,0,3.55-2.63,5.16-6.79,5.16S429.56,63.79,429.44,60.47Z" fill="#fff"/><path d="M449.41,64.79V60.41a7,7,0,0,0,2.5.4c1.6,0,2.66-.72,2.66-2.84V44.73h5.9V58c0,4.93-2.52,7.45-7.33,7.45A7.91,7.91,0,0,1,449.41,64.79Z" fill="#fff"/><path d="M462.1,61.07c0-3.53,3-4.9,8-4.9h1.43v-.35c0-1.43-.34-2.37-2-2.37a1.84,1.84,0,0,0-2,1.77h-4.81c.23-3.61,3.06-5.39,7.16-5.39s6.76,1.7,6.76,5.68v9.71h-5V63.48a5,5,0,0,1-4.44,2.09C464.48,65.57,462.1,64.25,462.1,61.07ZM471.5,60v-.92h-1.34c-2.07,0-3,.4-3,1.64,0,.86.57,1.4,1.77,1.4C470.41,62.1,471.5,61.27,471.5,60Z" fill="#fff"/><path d="M479.09,50.24h5.13v2.4a5.32,5.32,0,0,1,4.93-2.81c2.9,0,4.9,1.81,4.9,5.65v9.74h-5.13V56.51c0-1.69-.66-2.52-2.15-2.52s-2.55.92-2.55,2.84v8.39h-5.13Z" fill="#fff"/><path d="M510.72,61.3h-10V59.09l8.54-14.36h7.08V57.26H519v4h-2.64v3.92h-5.65Zm.15-4V49.15l-4.59,8.11Z" fill="#fff"/><path d="M520.26,62.64a2.86,2.86,0,0,1,2.93-2.89,2.9,2.9,0,1,1,0,5.79A2.87,2.87,0,0,1,520.26,62.64Z" fill="#fff"/></g></g><g id="Legal"><g id="Optional_loan_from_Axos_Bank_within_minutes_of_filing._Not_your" data-name="Optional loan from Axos Bank within minutes of filing. Not your"><path d="M120.5,82.78v-.07a3.16,3.16,0,1,1,6.31,0v.07a3.16,3.16,0,1,1-6.31,0Zm5.5,0v-.07a2.36,2.36,0,1,0-4.69,0v.07a2.42,2.42,0,0,0,2.37,2.62A2.35,2.35,0,0,0,126,82.75Z" fill="#fff"/><path d="M127.92,81.25h.75V82a1.93,1.93,0,0,1,1.59-.87,2.14,2.14,0,0,1,2.14,2.37v.07A2.17,2.17,0,0,1,130.26,86a1.78,1.78,0,0,1-1.59-.86V87.6h-.75Zm3.71,2.39v-.07c0-1.19-.66-1.78-1.45-1.78s-1.54.58-1.54,1.78v.07c0,1.21.63,1.78,1.55,1.78S131.63,84.79,131.63,83.64Z" fill="#fff"/><path d="M133.59,84.78v-2.9h-.67v-.63h.67V80.18h.75v1.07h1.1v.63h-1.1v2.83c0,.46.2.68.58.68a1.59,1.59,0,0,0,.58-.1v.63a1.85,1.85,0,0,1-.64.1A1.14,1.14,0,0,1,133.59,84.78Z" fill="#fff"/><path d="M136.37,79.77a.5.5,0,0,1,.5-.49.49.49,0,0,1,.49.49.5.5,0,0,1-.49.5A.51.51,0,0,1,136.37,79.77Zm.14,1.48h.74V86h-.74Z" fill="#fff"/><path d="M138.3,83.64v-.07a2.31,2.31,0,1,1,4.62,0v.07a2.31,2.31,0,1,1-4.62,0Zm3.85,0v-.06c0-1.09-.6-1.79-1.54-1.79a1.56,1.56,0,0,0-1.54,1.78v.07c0,1.07.59,1.78,1.54,1.78S142.15,84.71,142.15,83.64Z" fill="#fff"/><path d="M144,81.25h.75V82a1.59,1.59,0,0,1,1.51-.83c1,0,1.66.53,1.66,1.9V86h-.75V83c0-.83-.35-1.19-1.11-1.19a1.23,1.23,0,0,0-1.31,1.28V86H144Z" fill="#fff"/><path d="M148.81,84.65c0-1.09,1.15-1.46,2.36-1.46h.67v-.34c0-.75-.29-1.06-1-1.06s-1,.27-1.08.84H149a1.64,1.64,0,0,1,1.86-1.46,1.52,1.52,0,0,1,1.72,1.68V86h-.75v-.6a1.69,1.69,0,0,1-1.46.68C149.5,86,148.81,85.62,148.81,84.65Zm3-.34v-.59h-.65c-.94,0-1.63.24-1.63.93,0,.49.23.79.89.79S151.84,85,151.84,84.31Z" fill="#fff"/><path d="M153.94,79h.75v7h-.75Z" fill="#fff"/><path d="M158.36,79h.75v7h-.75Z" fill="#fff"/><path d="M160.16,83.64v-.07a2.32,2.32,0,1,1,4.63,0v.07a2.32,2.32,0,1,1-4.63,0Zm3.85,0v-.06c0-1.09-.6-1.79-1.54-1.79a1.56,1.56,0,0,0-1.54,1.78v.07c0,1.07.59,1.78,1.54,1.78S164,84.71,164,83.64Z" fill="#fff"/><path d="M165.42,84.65c0-1.09,1.15-1.46,2.36-1.46h.68v-.34c0-.75-.29-1.06-1-1.06s-1,.27-1.08.84h-.75a1.64,1.64,0,0,1,1.86-1.46,1.52,1.52,0,0,1,1.72,1.68V86h-.74v-.6A1.71,1.71,0,0,1,167,86C166.12,86,165.42,85.62,165.42,84.65Zm3-.34v-.59h-.65c-.95,0-1.64.24-1.64.93,0,.49.23.79.89.79S168.46,85,168.46,84.31Z" fill="#fff"/><path d="M170.53,81.25h.75V82a1.61,1.61,0,0,1,1.51-.83c1,0,1.66.53,1.66,1.9V86h-.75V83c0-.83-.35-1.19-1.1-1.19a1.24,1.24,0,0,0-1.32,1.28V86h-.75Z" fill="#fff"/><path d="M178.19,81.88h-.67v-.63h.67v-.77c0-1,.47-1.51,1.41-1.51a1.6,1.6,0,0,1,.56.09v.63a1.62,1.62,0,0,0-.54-.1c-.48,0-.68.33-.68.81v.85h1.15v.63h-1.15V86h-.75Z" fill="#fff"/><path d="M181,81.25h.75v.84a1.62,1.62,0,0,1,1.55-.92v.7c-.95,0-1.55.34-1.55,1.5V86H181Z" fill="#fff"/><path d="M183.77,83.64v-.07a2.32,2.32,0,1,1,4.63,0v.07a2.32,2.32,0,1,1-4.63,0Zm3.86,0v-.06c0-1.09-.61-1.79-1.54-1.79s-1.54.7-1.54,1.78v.07c0,1.07.58,1.78,1.54,1.78A1.57,1.57,0,0,0,187.63,83.64Z" fill="#fff"/><path d="M189.43,81.25h.74V82a1.54,1.54,0,0,1,1.41-.8,1.36,1.36,0,0,1,1.37.88,1.84,1.84,0,0,1,1.62-.88c.84,0,1.58.5,1.58,1.87V86h-.75V83c0-.83-.35-1.17-1-1.17a1.2,1.2,0,0,0-1.24,1.26V86h-.75V83c0-.83-.35-1.17-1-1.17a1.2,1.2,0,0,0-1.25,1.26V86h-.74Z" fill="#fff"/><path d="M201.51,79.52h1L204.72,86h-.78l-.63-1.86h-2.65L200,86h-.74Zm-.64,4h2.24L202,80.17Z" fill="#fff"/><path d="M206.84,83.54l-1.57-2.29h.87L207.29,83l1.14-1.71h.81l-1.55,2.23L209.41,86h-.89l-1.27-1.9L206,86h-.8Z" fill="#fff"/><path d="M209.7,83.64v-.07a2.32,2.32,0,1,1,4.63,0v.07a2.32,2.32,0,1,1-4.63,0Zm3.86,0v-.06c0-1.09-.61-1.79-1.54-1.79s-1.54.7-1.54,1.78v.07c0,1.07.58,1.78,1.54,1.78A1.57,1.57,0,0,0,213.56,83.64Z" fill="#fff"/><path d="M215,84.51h.73c.05.56.35.91,1.1.91s1-.25,1-.75-.37-.66-1.1-.79c-1.22-.23-1.64-.57-1.64-1.39a1.47,1.47,0,0,1,1.6-1.32,1.51,1.51,0,0,1,1.7,1.36h-.72c-.11-.52-.4-.74-1-.74s-.89.27-.89.67.23.6,1.09.75,1.66.4,1.66,1.4c0,.85-.58,1.43-1.73,1.43S215,85.47,215,84.51Z" fill="#fff"/><path d="M221.84,79.52h1.94c1.2,0,2.07.4,2.07,1.67v0a1.31,1.31,0,0,1-1,1.36,1.41,1.41,0,0,1,1.28,1.54v0c0,1.21-.82,1.8-2.11,1.8h-2.21Zm1.94,2.81c.94,0,1.3-.34,1.3-1.14v0c0-.73-.42-1-1.32-1h-1.15v2.2Zm.25,3c.94,0,1.37-.41,1.37-1.19v0c0-.79-.44-1.17-1.48-1.17h-1.31v2.4Z" fill="#fff"/><path d="M226.86,84.65c0-1.09,1.16-1.46,2.36-1.46h.68v-.34c0-.75-.29-1.06-1-1.06s-1,.27-1.08.84h-.75a1.65,1.65,0,0,1,1.87-1.46,1.52,1.52,0,0,1,1.72,1.68V86h-.75v-.6a1.71,1.71,0,0,1-1.47.68C227.56,86,226.86,85.62,226.86,84.65Zm3-.34v-.59h-.65c-.94,0-1.64.24-1.64.93,0,.49.24.79.89.79C229.3,85.44,229.9,85,229.9,84.31Z" fill="#fff"/><path d="M232,81.25h.74V82a1.61,1.61,0,0,1,1.52-.83c1,0,1.65.53,1.65,1.9V86h-.74V83c0-.83-.36-1.19-1.11-1.19a1.24,1.24,0,0,0-1.32,1.28V86H232Z" fill="#fff"/><path d="M237.22,79H238v4.42l1.95-2.17h.88l-2,2.19L241,86h-.91L238,83.52V86h-.75Z" fill="#fff"/><path d="M243.48,81.25h.81l1.1,3.79,1.14-3.79h.65L248.25,85l1.11-3.79h.76L248.66,86h-.83l-1-3.53L245.75,86h-.82Z" fill="#fff"/><path d="M250.88,79.77a.49.49,0,0,1,.49-.49.5.5,0,0,1,.5.49.51.51,0,0,1-.5.5A.5.5,0,0,1,250.88,79.77Zm.13,1.48h.75V86H251Z" fill="#fff"/><path d="M253.32,84.78v-2.9h-.68v-.63h.68V80.18h.74v1.07h1.1v.63h-1.1v2.83c0,.46.21.68.59.68a1.57,1.57,0,0,0,.57-.1v.63a1.85,1.85,0,0,1-.64.1A1.14,1.14,0,0,1,253.32,84.78Z" fill="#fff"/><path d="M256.21,79H257v3a1.61,1.61,0,0,1,1.51-.83c1,0,1.66.53,1.66,1.9V86h-.75V83c0-.83-.35-1.19-1.11-1.19A1.23,1.23,0,0,0,257,83.1V86h-.75Z" fill="#fff"/><path d="M261.34,79.77a.5.5,0,0,1,.5-.49.49.49,0,0,1,.49.49.5.5,0,0,1-.49.5A.51.51,0,0,1,261.34,79.77Zm.14,1.48h.75V86h-.75Z" fill="#fff"/><path d="M263.62,81.25h.75V82a1.6,1.6,0,0,1,1.51-.83c1,0,1.66.53,1.66,1.9V86h-.75V83c0-.83-.35-1.19-1.11-1.19a1.23,1.23,0,0,0-1.31,1.28V86h-.75Z" fill="#fff"/><path d="M271.12,81.25h.74V82a1.54,1.54,0,0,1,1.41-.8,1.38,1.38,0,0,1,1.38.88,1.81,1.81,0,0,1,1.61-.88c.84,0,1.58.5,1.58,1.87V86h-.74V83c0-.83-.36-1.17-1-1.17a1.2,1.2,0,0,0-1.25,1.26V86h-.74V83c0-.83-.36-1.17-1-1.17a1.2,1.2,0,0,0-1.25,1.26V86h-.74Z" fill="#fff"/><path d="M279.06,79.77a.49.49,0,0,1,.49-.49.5.5,0,0,1,.5.49.51.51,0,0,1-.5.5A.5.5,0,0,1,279.06,79.77Zm.13,1.48h.75V86h-.75Z" fill="#fff"/><path d="M281.33,81.25h.75V82a1.61,1.61,0,0,1,1.51-.83c1,0,1.66.53,1.66,1.9V86h-.75V83c0-.83-.35-1.19-1.11-1.19a1.23,1.23,0,0,0-1.31,1.28V86h-.75Z" fill="#fff"/><path d="M286.53,84.23v-3h.75v2.94c0,.83.35,1.2,1.09,1.2a1.24,1.24,0,0,0,1.3-1.29V81.25h.74V86h-.74v-.75a1.62,1.62,0,0,1-1.5.83C287.24,86,286.53,85.52,286.53,84.23Z" fill="#fff"/><path d="M292,84.78v-2.9h-.67v-.63H292V80.18h.75v1.07h1.1v.63h-1.1v2.83c0,.46.21.68.58.68a1.59,1.59,0,0,0,.58-.1v.63a1.85,1.85,0,0,1-.64.1A1.14,1.14,0,0,1,292,84.78Z" fill="#fff"/><path d="M294.5,83.65v-.07a2.21,2.21,0,0,1,2.2-2.41,2.06,2.06,0,0,1,2.12,2.34v.24h-3.55c0,1.07.55,1.67,1.52,1.67.72,0,1.15-.27,1.25-.82h.74a1.81,1.81,0,0,1-2,1.44A2.21,2.21,0,0,1,294.5,83.65Zm3.55-.5c-.07-1-.57-1.36-1.35-1.36a1.41,1.41,0,0,0-1.4,1.36Z" fill="#fff"/><path d="M299.48,84.51h.73c.06.56.35.91,1.11.91s1-.25,1-.75-.37-.66-1.1-.79c-1.23-.23-1.64-.57-1.64-1.39a1.47,1.47,0,0,1,1.59-1.32,1.51,1.51,0,0,1,1.71,1.36h-.72c-.11-.52-.4-.74-1-.74s-.9.27-.9.67.24.6,1.1.75,1.66.4,1.66,1.4c0,.85-.59,1.43-1.73,1.43S299.53,85.47,299.48,84.51Z" fill="#fff"/><path d="M306,83.64v-.07a2.31,2.31,0,1,1,4.62,0v.07a2.31,2.31,0,1,1-4.62,0Zm3.85,0v-.06c0-1.09-.6-1.79-1.54-1.79s-1.54.7-1.54,1.78v.07c0,1.07.58,1.78,1.54,1.78A1.57,1.57,0,0,0,309.81,83.64Z" fill="#fff"/><path d="M311.77,81.88h-.68v-.63h.68v-.77c0-1,.47-1.51,1.4-1.51a1.57,1.57,0,0,1,.56.09v.63a1.51,1.51,0,0,0-.53-.1c-.49,0-.68.33-.68.81v.85h1.15v.63h-1.15V86h-.75Z" fill="#fff"/><path d="M317,81.88h-.68v-.63H317v-.77c0-1,.47-1.51,1.4-1.51a1.57,1.57,0,0,1,.56.09v.63a1.51,1.51,0,0,0-.53-.1c-.49,0-.68.33-.68.81v.85h1.15v.63h-1.15V86H317Z" fill="#fff"/><path d="M319.7,79.77a.49.49,0,0,1,.49-.49.5.5,0,0,1,.5.49.51.51,0,0,1-.5.5A.5.5,0,0,1,319.7,79.77Zm.13,1.48h.75V86h-.75Z" fill="#fff"/><path d="M322,79h.76v7H322Z" fill="#fff"/><path d="M324,79.77a.49.49,0,0,1,.49-.49.5.5,0,0,1,.5.49.51.51,0,0,1-.5.5A.5.5,0,0,1,324,79.77Zm.13,1.48h.75V86h-.75Z" fill="#fff"/><path d="M326.3,81.25h.75V82a1.61,1.61,0,0,1,1.51-.83c1,0,1.66.53,1.66,1.9V86h-.75V83c0-.83-.35-1.19-1.1-1.19a1.24,1.24,0,0,0-1.32,1.28V86h-.75Z" fill="#fff"/><path d="M331.3,86.23h.76c.11.54.56.82,1.36.82a1.33,1.33,0,0,0,1.52-1.45v-.69a2,2,0,0,1-1.6.89,2.12,2.12,0,0,1-2.14-2.23v-.06a2.23,2.23,0,0,1,2.2-2.34,1.7,1.7,0,0,1,1.54.83v-.75h.74v4.39a2,2,0,0,1-2.25,2C332,87.68,331.43,87,331.3,86.23ZM335,83.52v-.07a1.45,1.45,0,0,0-1.49-1.66,1.5,1.5,0,0,0-1.5,1.68v.07a1.49,1.49,0,0,0,1.45,1.64A1.51,1.51,0,0,0,335,83.52Z" fill="#fff"/><path d="M337,85.43a.58.58,0,1,1,.57.57A.57.57,0,0,1,337,85.43Z" fill="#fff"/><path d="M341.77,79.52h1l3.14,5.32V79.52h.74V86h-.9l-3.25-5.52V86h-.74Z" fill="#fff"/><path d="M347.74,83.64v-.07a2.32,2.32,0,1,1,4.63,0v.07a2.32,2.32,0,1,1-4.63,0Zm3.86,0v-.06c0-1.09-.61-1.79-1.54-1.79s-1.54.7-1.54,1.78v.07c0,1.07.58,1.78,1.54,1.78A1.57,1.57,0,0,0,351.6,83.64Z" fill="#fff"/><path d="M353.56,84.78v-2.9h-.68v-.63h.68V80.18h.74v1.07h1.1v.63h-1.1v2.83c0,.46.21.68.59.68a1.57,1.57,0,0,0,.57-.1v.63a1.82,1.82,0,0,1-.63.1A1.14,1.14,0,0,1,353.56,84.78Z" fill="#fff"/><path d="M360,85.47l-1.85-4.22h.8l1.44,3.37,1.31-3.37h.76l-2.6,6.35h-.75Z" fill="#fff"/><path d="M362.84,83.64v-.07a2.32,2.32,0,1,1,4.63,0v.07a2.32,2.32,0,1,1-4.63,0Zm3.86,0v-.06c0-1.09-.61-1.79-1.54-1.79s-1.54.7-1.54,1.78v.07c0,1.07.58,1.78,1.54,1.78A1.57,1.57,0,0,0,366.7,83.64Z" fill="#fff"/><path d="M368.45,84.23v-3h.75v2.94c0,.83.35,1.2,1.09,1.2a1.24,1.24,0,0,0,1.29-1.29V81.25h.75V86h-.75v-.75a1.59,1.59,0,0,1-1.49.83C369.15,86,368.45,85.52,368.45,84.23Z" fill="#fff"/><path d="M373.71,81.25h.74v.84a1.64,1.64,0,0,1,1.55-.92v.7c-.94,0-1.55.34-1.55,1.5V86h-.74Z" fill="#fff"/><path d="M379.37,84.78v-2.9h-.68v-.63h.68V80.18h.75v1.07h1.09v.63h-1.09v2.83c0,.46.2.68.58.68a1.67,1.67,0,0,0,.58-.1v.63a1.94,1.94,0,0,1-.64.1A1.14,1.14,0,0,1,379.37,84.78Z" fill="#fff"/><path d="M381.92,84.65c0-1.09,1.16-1.46,2.36-1.46H385v-.34c0-.75-.29-1.06-1-1.06s-1,.27-1.08.84h-.75A1.65,1.65,0,0,1,384,81.17a1.51,1.51,0,0,1,1.71,1.68V86H385v-.6a1.71,1.71,0,0,1-1.47.68C382.62,86,381.92,85.62,381.92,84.65Zm3-.34v-.59h-.65c-.95,0-1.64.24-1.64.93,0,.49.23.79.89.79S385,85,385,84.31Z" fill="#fff"/><path d="M388.21,83.54l-1.57-2.29h.87L388.67,83l1.14-1.71h.81l-1.56,2.23L390.78,86h-.88l-1.27-1.9-1.3,1.9h-.8Z" fill="#fff"/><path d="M393.9,81.25h.75v.84a1.63,1.63,0,0,1,1.55-.92v.7c-.95,0-1.55.34-1.55,1.5V86h-.75Z" fill="#fff"/><path d="M396.67,83.65v-.07a2.21,2.21,0,0,1,2.2-2.41A2.06,2.06,0,0,1,401,83.51v.24h-3.55c0,1.07.55,1.67,1.51,1.67.73,0,1.15-.27,1.25-.82H401a1.82,1.82,0,0,1-2,1.44A2.21,2.21,0,0,1,396.67,83.65Zm3.55-.5c-.07-1-.57-1.36-1.35-1.36a1.41,1.41,0,0,0-1.4,1.36Z" fill="#fff"/><path d="M402.16,81.88h-.68v-.63h.68v-.77c0-1,.46-1.51,1.4-1.51a1.6,1.6,0,0,1,.56.09v.63a1.61,1.61,0,0,0-.53-.1c-.49,0-.69.33-.69.81v.85h1.15v.63H402.9V86h-.74Z" fill="#fff"/><path d="M404.93,84.23v-3h.74v2.94c0,.83.36,1.2,1.09,1.2a1.24,1.24,0,0,0,1.3-1.29V81.25h.75V86h-.75v-.75a1.61,1.61,0,0,1-1.49.83C405.63,86,404.93,85.52,404.93,84.23Z" fill="#fff"/><path d="M410.18,81.25h.75V82a1.61,1.61,0,0,1,1.51-.83c1,0,1.66.53,1.66,1.9V86h-.75V83c0-.83-.35-1.19-1.1-1.19a1.24,1.24,0,0,0-1.32,1.28V86h-.75Z" fill="#fff"/><path d="M415.08,83.7v-.08a2.23,2.23,0,0,1,2.2-2.45,1.72,1.72,0,0,1,1.54.83V79h.74v7h-.74v-.81a2,2,0,0,1-1.62.89A2.1,2.1,0,0,1,415.08,83.7Zm3.76-.07v-.07c0-1.2-.57-1.77-1.49-1.77s-1.5.66-1.5,1.8v.07c0,1.19.64,1.76,1.44,1.76S418.84,84.84,418.84,83.63Z" fill="#fff"/><path d="M420.88,85.43a.58.58,0,1,1,.57.57A.57.57,0,0,1,420.88,85.43Z" fill="#fff"/></g></g></g></svg>