<svg xmlns="http://www.w3.org/2000/svg" viewBox="0 0 300 250"><title>Asset 13</title><g id="Layer_2" data-name="Layer 2"><g id="Rect"><rect width="300" height="250" fill="none"/></g><g id="Know_the_price._No_surprises." data-name="Know the price.No surprises."><path d="M22.41,51.33H29.6V61.2l7.5-9.87h7.47L35.42,62.91l9.64,13.37H36.79L29.6,65.85V76.28H22.41Z" fill="#fff"/><path d="M46.42,58h6.25V61a6.43,6.43,0,0,1,6-3.42c3.52,0,6,2.2,6,6.87V76.28H58.39V65.67c0-2.06-.8-3.07-2.62-3.07s-3.1,1.12-3.1,3.45V76.28H46.42Z" fill="#fff"/><path d="M66.7,67.38V67.1c0-5.86,4.36-9.56,10-9.56s10,3.59,10,9.39v.28c0,5.93-4.37,9.49-10,9.49S66.7,73.28,66.7,67.38Zm13.61-.1V67c0-3.07-1.23-4.78-3.6-4.78s-3.63,1.64-3.63,4.71v.28c0,3.14,1.22,4.85,3.63,4.85S80.31,70.31,80.31,67.28Z" fill="#fff"/><path d="M86.73,58h6.52L95.91,69,99,58h5L106.72,69l3-10.92h5.93l-5.79,18.25h-6l-2.72-10.19L98.31,76.28H92.24Z" fill="#fff"/><path d="M124.42,70.42V62.29h-2.2V58h2.2V54.22h6.25V58h3.59v4.26h-3.59v7.53c0,1.33.66,1.92,1.85,1.92a4.78,4.78,0,0,0,1.78-.31v4.74a13.11,13.11,0,0,1-3.46.53C126.72,76.7,124.42,74.71,124.42,70.42Z" fill="#fff"/><path d="M136.63,50h6.25V61a6.46,6.46,0,0,1,6-3.42c3.53,0,6,2.2,6,6.87V76.28H148.6V65.67c0-2.06-.8-3.07-2.61-3.07s-3.11,1.12-3.11,3.45V76.28h-6.25Z" fill="#fff"/><path d="M156.91,67.38V67.1c0-5.86,4.36-9.56,9.88-9.56,5,0,9.28,2.86,9.28,9.42V68.6H163.23c.17,2.41,1.57,3.81,3.8,3.81,2.06,0,2.93-1,3.18-2.17h5.86c-.56,4.12-3.73,6.46-9.25,6.46C161.1,76.7,156.91,73.35,156.91,67.38ZM170,65.08c-.11-2.2-1.19-3.42-3.21-3.42s-3.18,1.22-3.49,3.42Z" fill="#fff"/><path d="M184.59,58h6.24v2.72a6.45,6.45,0,0,1,5.69-3.21c4.26,0,7.71,3.21,7.71,9.46v.28c0,6.28-3.45,9.42-7.74,9.42a6,6,0,0,1-5.66-3.11v8.8h-6.24Zm13.29,9.25V67c0-3.21-1.39-4.75-3.59-4.75s-3.63,1.64-3.63,4.71v.28c0,3.11,1.36,4.68,3.63,4.68S197.88,70.28,197.88,67.28Z" fill="#fff"/><path d="M206.5,58h6.25v3.63a5.76,5.76,0,0,1,5.9-3.88v5.83c-3.81-.1-5.9,1.08-5.9,4v8.66H206.5Z" fill="#fff"/><path d="M220.78,53.07a3.44,3.44,0,1,1,3.42,3.21A3.25,3.25,0,0,1,220.78,53.07Zm.31,5h6.25V76.28h-6.25Z" fill="#fff"/><path d="M229.71,67.38V67.1c0-6.07,4.36-9.56,9.74-9.56,4.46,0,8.58,2,8.93,7.5h-5.86c-.28-1.71-1.12-2.65-2.93-2.65-2.2,0-3.49,1.57-3.49,4.64v.28c0,3.18,1.22,4.82,3.59,4.82a3,3,0,0,0,3.18-3h5.62c-.18,4.61-3.28,7.61-9.18,7.61C233.86,76.7,229.71,73.52,229.71,67.38Z" fill="#fff"/><path d="M249.53,67.38V67.1c0-5.86,4.37-9.56,9.88-9.56,5,0,9.28,2.86,9.28,9.42V68.6H255.85c.18,2.41,1.57,3.81,3.8,3.81,2.06,0,2.94-1,3.18-2.17h5.86c-.56,4.12-3.73,6.46-9.24,6.46C253.72,76.7,249.53,73.35,249.53,67.38Zm13.09-2.3c-.1-2.2-1.19-3.42-3.21-3.42s-3.18,1.22-3.49,3.42Z" fill="#fff"/><path d="M270.44,73.14A3.48,3.48,0,0,1,274,69.61a3.53,3.53,0,1,1,0,7A3.48,3.48,0,0,1,270.44,73.14Z" fill="#fff"/><path d="M22.41,88.23h8.06l8,14.06V88.23h6.25v25H37.8L28.69,97.51v15.67H22.41Z" fill="#fff"/><path d="M47.22,104.28V104c0-5.86,4.36-9.56,10-9.56s9.94,3.59,9.94,9.39v.28c0,5.93-4.36,9.49-10,9.49S47.22,110.18,47.22,104.28Zm13.61-.1v-.28c0-3.07-1.22-4.78-3.59-4.78s-3.63,1.64-3.63,4.71v.28c0,3.14,1.22,4.85,3.63,4.85S60.83,107.21,60.83,104.18Z" fill="#fff"/><path d="M74.51,107.39h5.76c.21,1.32.8,2.06,2.58,2.06,1.54,0,2.24-.6,2.24-1.51s-.88-1.29-3.39-1.64c-4.88-.62-6.94-2-6.94-5.86,0-4,3.59-6,7.81-6,4.51,0,7.65,1.54,8.07,5.9H85a2,2,0,0,0-2.34-1.82c-1.36,0-2,.6-2,1.43s.83,1.22,3.07,1.5c5.06.63,7.5,2,7.5,5.87,0,4.32-3.21,6.28-8.27,6.28S74.65,111.43,74.51,107.39Z" fill="#fff"/><path d="M93,106.83V94.93h6.25v10.89c0,2.06.8,3.07,2.58,3.07s3.11-1.12,3.11-3.46V94.93h6.25v18.25H105v-2.83a6,6,0,0,1-5.79,3.25C95.66,113.6,93,111.43,93,106.83Z" fill="#fff"/><path d="M114.4,94.93h6.25v3.63a5.76,5.76,0,0,1,5.9-3.88v5.83c-3.81-.1-5.9,1.08-5.9,4v8.66H114.4Z" fill="#fff"/><path d="M128.82,94.93h6.24v2.72a6.45,6.45,0,0,1,5.69-3.21c4.26,0,7.71,3.21,7.71,9.46v.28c0,6.28-3.45,9.42-7.74,9.42a6,6,0,0,1-5.66-3.11v8.8h-6.24Zm13.29,9.25v-.28c0-3.21-1.39-4.75-3.59-4.75s-3.63,1.64-3.63,4.71v.28c0,3.11,1.36,4.68,3.63,4.68S142.11,107.18,142.11,104.18Z" fill="#fff"/><path d="M150.73,94.93H157v3.63a5.76,5.76,0,0,1,5.9-3.88v5.83c-3.81-.1-5.9,1.08-5.9,4v8.66h-6.25Z" fill="#fff"/><path d="M165,90a3.44,3.44,0,1,1,3.42,3.21A3.25,3.25,0,0,1,165,90Zm.31,5h6.25v18.25h-6.25Z" fill="#fff"/><path d="M173.7,107.39h5.76c.21,1.32.8,2.06,2.58,2.06,1.53,0,2.23-.6,2.23-1.51s-.87-1.29-3.38-1.64c-4.89-.62-6.95-2-6.95-5.86,0-4,3.6-6,7.82-6,4.5,0,7.64,1.54,8.06,5.9h-5.65a2,2,0,0,0-2.34-1.82c-1.36,0-2.06.6-2.06,1.43s.84,1.22,3.07,1.5c5.06.63,7.5,2,7.5,5.87,0,4.32-3.21,6.28-8.27,6.28S173.84,111.43,173.7,107.39Z" fill="#fff"/><path d="M191.5,104.28V104c0-5.86,4.36-9.56,9.87-9.56,5,0,9.29,2.86,9.29,9.42v1.64H197.81c.18,2.41,1.57,3.81,3.81,3.81,2.06,0,2.93-1,3.17-2.17h5.87c-.56,4.12-3.74,6.46-9.25,6.46C195.68,113.6,191.5,110.25,191.5,104.28Zm13.08-2.3c-.1-2.2-1.18-3.42-3.21-3.42-1.88,0-3.17,1.22-3.49,3.42Z" fill="#fff"/><path d="M211.77,107.39h5.76c.21,1.32.8,2.06,2.58,2.06,1.54,0,2.24-.6,2.24-1.51s-.88-1.29-3.39-1.64c-4.88-.62-6.94-2-6.94-5.86,0-4,3.59-6,7.81-6,4.51,0,7.65,1.54,8.07,5.9h-5.66a2,2,0,0,0-2.34-1.82c-1.36,0-2.06.6-2.06,1.43s.84,1.22,3.08,1.5c5.06.63,7.5,2,7.5,5.87,0,4.32-3.21,6.28-8.27,6.28S211.91,111.43,211.77,107.39Z" fill="#fff"/><path d="M230.2,110a3.48,3.48,0,0,1,3.56-3.53,3.53,3.53,0,1,1,0,7A3.48,3.48,0,0,1,230.2,110Z" fill="#fff"/></g></g></svg>