<svg xmlns="http://www.w3.org/2000/svg" viewBox="0 0 728 90"><title>legal</title><g id="Layer_2" data-name="Layer 2"><g id="rect"><rect width="728" height="90" fill="none"/></g><g id="All_tax_situations_are_different._Not_everyone_gets_a_refund." data-name="All tax situations are different. Not everyone gets a refund."><path d="M115.17,69.57h1.57L118.86,76h-1.24l-.51-1.6h-2.46l-.5,1.6H113Zm-.24,4h1.9l-1-3Z" fill="#fff"/><path d="M119.65,69.12h1.08V76h-1.08Z" fill="#fff"/><path d="M122,69.12H123V76H122Z" fill="#fff"/><path d="M126.41,74.69V72.12h-.63V71.3h.63v-1h1.09v1h1v.82h-1v2.47c0,.42.2.61.54.61a1.36,1.36,0,0,0,.53-.09V76a2.11,2.11,0,0,1-.73.12A1.27,1.27,0,0,1,126.41,74.69Z" fill="#fff"/><path d="M129.11,74.7c0-1.1,1.06-1.49,2.42-1.49h.58V73c0-.63-.22-.94-.85-.94a.79.79,0,0,0-.91.74h-1c.09-1.1,1-1.56,2-1.56s1.88.43,1.88,1.72V76h-1.07v-.58a1.66,1.66,0,0,1-1.44.67C129.82,76.1,129.11,75.68,129.11,74.7Zm3-.34v-.47h-.56c-.83,0-1.36.19-1.36.77,0,.39.22.65.76.65S132.11,75,132.11,74.36Z" fill="#fff"/><path d="M135.49,73.59,134,71.3h1.26l1,1.52,1-1.52h1.14l-1.52,2.21,1.68,2.5h-1.27l-1.09-1.71L135,76h-1.13Z" fill="#fff"/><path d="M140.83,74.54h1c0,.48.29.75.93.75s.85-.2.85-.6-.32-.53-1-.65c-1.24-.19-1.7-.55-1.7-1.43s.88-1.41,1.76-1.41,1.73.36,1.85,1.42h-1a.73.73,0,0,0-.84-.63c-.46,0-.74.23-.74.56s.22.48,1,.6c1.11.17,1.76.44,1.76,1.44S144,76.1,142.8,76.1,140.88,75.54,140.83,74.54Z" fill="#fff"/><path d="M145.41,69.9a.65.65,0,1,1,.65.62A.63.63,0,0,1,145.41,69.9Zm.12,1.4h1.09V76h-1.09Z" fill="#fff"/><path d="M148,74.69V72.12h-.64V71.3H148v-1h1.08v1h1v.82h-1v2.47c0,.42.2.61.54.61a1.45,1.45,0,0,0,.54-.09V76a2.18,2.18,0,0,1-.74.12A1.27,1.27,0,0,1,148,74.69Z" fill="#fff"/><path d="M151,74.31v-3H152v2.89c0,.71.29,1,.92,1a1,1,0,0,0,1.1-1.12V71.3h1.09V76h-1.09v-.74a1.58,1.58,0,0,1-1.49.83C151.64,76.1,151,75.57,151,74.31Z" fill="#fff"/><path d="M156,74.7c0-1.1,1.06-1.49,2.41-1.49H159V73c0-.63-.22-.94-.86-.94a.79.79,0,0,0-.9.74h-1c.09-1.1,1-1.56,2-1.56s1.89.43,1.89,1.72V76H159v-.58a1.68,1.68,0,0,1-1.45.67C156.67,76.1,156,75.68,156,74.7Zm3-.34v-.47h-.56c-.83,0-1.36.19-1.36.77,0,.39.22.65.76.65S159,75,159,74.36Z" fill="#fff"/><path d="M161.33,74.69V72.12h-.63V71.3h.63v-1h1.09v1h1v.82h-1v2.47c0,.42.2.61.54.61a1.36,1.36,0,0,0,.53-.09V76a2.13,2.13,0,0,1-.74.12A1.27,1.27,0,0,1,161.33,74.69Z" fill="#fff"/><path d="M164.25,69.9a.63.63,0,0,1,.65-.63.63.63,0,1,1,0,1.25A.63.63,0,0,1,164.25,69.9Zm.12,1.4h1.08V76h-1.08Z" fill="#fff"/><path d="M166.33,73.7v-.07a2.42,2.42,0,0,1,4.83,0v.07a2.42,2.42,0,0,1-4.83,0Zm3.71,0v-.06c0-1-.48-1.57-1.29-1.57s-1.31.59-1.31,1.56v.07c0,1,.48,1.57,1.31,1.57S170,74.65,170,73.68Z" fill="#fff"/><path d="M172,71.3h1.09V72a1.62,1.62,0,0,1,1.52-.84c.94,0,1.61.55,1.61,1.84v3h-1.09V73.14c0-.71-.29-1-.94-1a1,1,0,0,0-1.1,1.12V76H172Z" fill="#fff"/><path d="M177,74.54h1c.05.48.3.75.94.75s.84-.2.84-.6-.31-.53-1-.65c-1.24-.19-1.7-.55-1.7-1.43s.88-1.41,1.77-1.41,1.72.36,1.84,1.42h-1a.72.72,0,0,0-.83-.63c-.47,0-.75.23-.75.56s.22.48,1,.6c1.11.17,1.77.44,1.77,1.44s-.68,1.51-1.89,1.51S177,75.54,177,74.54Z" fill="#fff"/><path d="M183.32,74.7c0-1.1,1.06-1.49,2.41-1.49h.59V73c0-.63-.22-.94-.86-.94a.78.78,0,0,0-.9.74h-1.05c.09-1.1,1-1.56,2-1.56s1.89.43,1.89,1.72V76h-1.08v-.58a1.65,1.65,0,0,1-1.44.67C184,76.1,183.32,75.68,183.32,74.7Zm3-.34v-.47h-.56c-.83,0-1.36.19-1.36.77,0,.39.21.65.76.65S186.32,75,186.32,74.36Z" fill="#fff"/><path d="M188.52,71.3h1.09v.88a1.56,1.56,0,0,1,1.53-1v1c-.95,0-1.53.32-1.53,1.32V76h-1.09Z" fill="#fff"/><path d="M191.54,73.7v-.07a2.29,2.29,0,0,1,2.35-2.43,2.12,2.12,0,0,1,2.22,2.38v.31h-3.45c0,.89.49,1.4,1.3,1.4.65,0,1-.27,1.08-.72h1.05c-.15,1-1,1.53-2.16,1.53A2.26,2.26,0,0,1,191.54,73.7Zm3.49-.54c-.06-.81-.47-1.17-1.14-1.17a1.21,1.21,0,0,0-1.21,1.17Z" fill="#fff"/><path d="M198.65,73.73v-.07a2.18,2.18,0,0,1,2.11-2.46,1.59,1.59,0,0,1,1.5.82v-2.9h1.09V76h-1.09v-.8a1.79,1.79,0,0,1-1.54.89A2.09,2.09,0,0,1,198.65,73.73Zm3.65-.06V73.6c0-1-.48-1.55-1.27-1.55s-1.27.56-1.27,1.58v.07c0,1,.52,1.53,1.23,1.53S202.3,74.73,202.3,73.67Z" fill="#fff"/><path d="M204.42,69.9a.65.65,0,1,1,.65.62A.63.63,0,0,1,204.42,69.9Zm.12,1.4h1.09V76h-1.09Z" fill="#fff"/><path d="M207,72.12h-.64V71.3H207v-.57a1.42,1.42,0,0,1,1.57-1.59,1.69,1.69,0,0,1,.62.09v.84a1.46,1.46,0,0,0-.48-.09c-.44,0-.62.29-.62.7v.62h1.65v-.63a1.44,1.44,0,0,1,1.58-1.6,2,2,0,0,1,.63.09V70a1.41,1.41,0,0,0-.5-.08c-.44,0-.62.29-.62.69v.68h1.07v.82h-1.07V76h-1.09V72.12H208.1V76H207Z" fill="#fff"/><path d="M212.17,73.7v-.07a2.29,2.29,0,0,1,2.34-2.43,2.13,2.13,0,0,1,2.23,2.38v.31h-3.45c0,.89.48,1.4,1.29,1.4.66,0,1-.27,1.09-.72h1.05c-.15,1-1,1.53-2.16,1.53A2.26,2.26,0,0,1,212.17,73.7Zm3.49-.54c-.06-.81-.47-1.17-1.15-1.17a1.2,1.2,0,0,0-1.2,1.17Z" fill="#fff"/><path d="M217.57,71.3h1.09v.88a1.56,1.56,0,0,1,1.53-1v1c-.95,0-1.53.32-1.53,1.32V76h-1.09Z" fill="#fff"/><path d="M220.6,73.7v-.07a2.29,2.29,0,0,1,2.34-2.43,2.12,2.12,0,0,1,2.22,2.38v.31h-3.45c0,.89.49,1.4,1.3,1.4.66,0,1-.27,1.08-.72h1c-.15,1-.95,1.53-2.16,1.53A2.26,2.26,0,0,1,220.6,73.7Zm3.48-.54c-.05-.81-.47-1.17-1.14-1.17a1.21,1.21,0,0,0-1.21,1.17Z" fill="#fff"/><path d="M226,71.3h1.09V72a1.62,1.62,0,0,1,1.52-.84c.94,0,1.61.55,1.61,1.84v3h-1.09V73.14c0-.71-.29-1-.94-1a1,1,0,0,0-1.1,1.12V76H226Z" fill="#fff"/><path d="M231.51,74.69V72.12h-.63V71.3h.63v-1h1.09v1h1v.82h-1v2.47c0,.42.2.61.54.61a1.36,1.36,0,0,0,.53-.09V76a2.11,2.11,0,0,1-.73.12A1.27,1.27,0,0,1,231.51,74.69Z" fill="#fff"/><path d="M234.46,75.37a.7.7,0,0,1,.71-.71.71.71,0,1,1,0,1.41A.7.7,0,0,1,234.46,75.37Z" fill="#fff"/><path d="M239.08,69.57h1.43l2.71,4.65V69.57h1.09V76h-1.24l-2.9-4.94V76h-1.09Z" fill="#fff"/><path d="M245.22,73.7v-.07a2.42,2.42,0,0,1,4.83,0v.07a2.42,2.42,0,0,1-4.83,0Zm3.72,0v-.06c0-1-.49-1.57-1.3-1.57s-1.3.59-1.3,1.56v.07c0,1,.47,1.57,1.3,1.57S248.94,74.65,248.94,73.68Z" fill="#fff"/><path d="M251.08,74.69V72.12h-.63V71.3h.63v-1h1.09v1h1v.82h-1v2.47c0,.42.2.61.54.61a1.4,1.4,0,0,0,.53-.09V76a2.18,2.18,0,0,1-.74.12A1.27,1.27,0,0,1,251.08,74.69Z" fill="#fff"/><path d="M255.78,73.7v-.07a2.29,2.29,0,0,1,2.34-2.43,2.12,2.12,0,0,1,2.22,2.38v.31h-3.45c0,.89.49,1.4,1.3,1.4s1-.27,1.08-.72h1.05c-.15,1-.95,1.53-2.16,1.53A2.26,2.26,0,0,1,255.78,73.7Zm3.48-.54c-.05-.81-.47-1.17-1.14-1.17a1.21,1.21,0,0,0-1.21,1.17Z" fill="#fff"/><path d="M260.6,71.3h1.17L263,74.89l1.22-3.59h1.07L263.59,76h-1.27Z" fill="#fff"/><path d="M265.47,73.7v-.07a2.29,2.29,0,0,1,2.34-2.43A2.12,2.12,0,0,1,270,73.58v.31h-3.44c0,.89.48,1.4,1.29,1.4s1-.27,1.08-.72H270c-.16,1-1,1.53-2.17,1.53A2.26,2.26,0,0,1,265.47,73.7Zm3.48-.54c-.05-.81-.46-1.17-1.14-1.17a1.21,1.21,0,0,0-1.21,1.17Z" fill="#fff"/><path d="M270.87,71.3H272v.88a1.56,1.56,0,0,1,1.53-1v1c-1,0-1.53.32-1.53,1.32V76h-1.09Z" fill="#fff"/><path d="M275.74,75.53l-1.86-4.23h1.17l1.26,3,1.15-3h1.06L276,77.62h-1.07Z" fill="#fff"/><path d="M278.71,73.7v-.07a2.42,2.42,0,0,1,4.83,0v.07a2.42,2.42,0,0,1-4.83,0Zm3.72,0v-.06c0-1-.49-1.57-1.3-1.57s-1.31.59-1.31,1.56v.07c0,1,.48,1.57,1.31,1.57S282.43,74.65,282.43,73.68Z" fill="#fff"/><path d="M284.39,71.3h1.09V72A1.62,1.62,0,0,1,287,71.2c.94,0,1.61.55,1.61,1.84v3h-1.09V73.14c0-.71-.29-1-.94-1a1,1,0,0,0-1.1,1.12V76h-1.09Z" fill="#fff"/><path d="M289.41,73.7v-.07a2.29,2.29,0,0,1,2.34-2.43A2.12,2.12,0,0,1,294,73.58v.31h-3.44c0,.89.48,1.4,1.29,1.4s1-.27,1.08-.72H294c-.16,1-1,1.53-2.17,1.53A2.26,2.26,0,0,1,289.41,73.7Zm3.48-.54c-.05-.81-.47-1.17-1.14-1.17a1.21,1.21,0,0,0-1.21,1.17Z" fill="#fff"/><path d="M296.55,76.17h1.1c.09.47.45.74,1.16.74a1.16,1.16,0,0,0,1.32-1.27v-.7a1.84,1.84,0,0,1-1.54.88,2.09,2.09,0,0,1-2.09-2.24v-.07a2.16,2.16,0,0,1,2.12-2.31,1.62,1.62,0,0,1,1.51.82V71.3h1.09v4.36c0,1.38-.94,2.07-2.4,2.07S296.68,77.07,296.55,76.17Zm3.62-2.63v-.06c0-.9-.49-1.43-1.27-1.43a1.28,1.28,0,0,0-1.28,1.44v.08A1.27,1.27,0,0,0,298.86,75,1.3,1.3,0,0,0,300.17,73.54Z" fill="#fff"/><path d="M302.06,73.7v-.07a2.29,2.29,0,0,1,2.34-2.43,2.13,2.13,0,0,1,2.23,2.38v.31h-3.45c0,.89.49,1.4,1.3,1.4.65,0,1-.27,1.08-.72h1.05c-.15,1-1,1.53-2.16,1.53A2.26,2.26,0,0,1,302.06,73.7Zm3.49-.54c-.06-.81-.47-1.17-1.15-1.17a1.21,1.21,0,0,0-1.2,1.17Z" fill="#fff"/><path d="M307.64,74.69V72.12H307V71.3h.63v-1h1.09v1h1v.82h-1v2.47c0,.42.2.61.54.61a1.36,1.36,0,0,0,.53-.09V76a2.11,2.11,0,0,1-.73.12A1.27,1.27,0,0,1,307.64,74.69Z" fill="#fff"/><path d="M310.32,74.54h1c.06.48.3.75.94.75s.84-.2.84-.6-.31-.53-1-.65c-1.25-.19-1.71-.55-1.71-1.43s.89-1.41,1.77-1.41,1.73.36,1.84,1.42h-1a.73.73,0,0,0-.84-.63c-.47,0-.75.23-.75.56s.23.48,1,.6c1.11.17,1.77.44,1.77,1.44s-.68,1.51-1.88,1.51S310.36,75.54,310.32,74.54Z" fill="#fff"/><path d="M316.65,74.7c0-1.1,1.06-1.49,2.41-1.49h.59V73c0-.63-.22-.94-.86-.94a.79.79,0,0,0-.9.74h-1.05c.09-1.1,1-1.56,2-1.56s1.88.43,1.88,1.72V76h-1.07v-.58a1.66,1.66,0,0,1-1.44.67C317.36,76.1,316.65,75.68,316.65,74.7Zm3-.34v-.47h-.56c-.83,0-1.36.19-1.36.77,0,.39.22.65.76.65S319.65,75,319.65,74.36Z" fill="#fff"/><path d="M323.86,71.3H325v.88a1.56,1.56,0,0,1,1.53-1v1c-1,0-1.53.32-1.53,1.32V76h-1.09Z" fill="#fff"/><path d="M326.88,73.7v-.07a2.29,2.29,0,0,1,2.34-2.43,2.13,2.13,0,0,1,2.23,2.38v.31H328c0,.89.49,1.4,1.3,1.4.65,0,1-.27,1.08-.72h1.05c-.15,1-.95,1.53-2.16,1.53A2.26,2.26,0,0,1,326.88,73.7Zm3.49-.54c-.06-.81-.47-1.17-1.15-1.17a1.21,1.21,0,0,0-1.2,1.17Z" fill="#fff"/><path d="M332.47,72.12h-.64V71.3h.64v-.63a1.44,1.44,0,0,1,1.59-1.6,1.93,1.93,0,0,1,.62.09V70a1.41,1.41,0,0,0-.5-.08c-.44,0-.62.29-.62.69v.68h1.07v.82h-1.07V76h-1.09Z" fill="#fff"/><path d="M335.36,74.31v-3h1.09v2.89c0,.71.3,1,.93,1a1.05,1.05,0,0,0,1.1-1.12V71.3h1.09V76h-1.09v-.74a1.6,1.6,0,0,1-1.5.83C336.06,76.1,335.36,75.57,335.36,74.31Z" fill="#fff"/><path d="M340.72,71.3h1.09V72a1.62,1.62,0,0,1,1.52-.84c.94,0,1.61.55,1.61,1.84v3h-1.09V73.14c0-.71-.29-1-.94-1a1,1,0,0,0-1.1,1.12V76h-1.09Z" fill="#fff"/><path d="M345.75,73.73v-.07a2.18,2.18,0,0,1,2.11-2.46,1.61,1.61,0,0,1,1.51.82v-2.9h1.09V76h-1.09v-.8a1.82,1.82,0,0,1-1.55.89A2.09,2.09,0,0,1,345.75,73.73Zm3.65-.06V73.6c0-1-.47-1.55-1.27-1.55s-1.27.56-1.27,1.58v.07c0,1,.53,1.53,1.23,1.53S349.4,74.73,349.4,73.67Z" fill="#fff"/><path d="M351.55,75.37a.72.72,0,1,1,.71.7A.71.71,0,0,1,351.55,75.37Z" fill="#fff"/></g></g></svg>