<svg xmlns="http://www.w3.org/2000/svg" viewBox="0 0 728 90"><title>h5</title><g id="Layer_2" data-name="Layer 2"><g id="rect"><rect width="728" height="90" fill="none"/></g><g id="Need_some_tax_relief_We_ll_get_your_max_refund_guaranteed._D" data-name="Need some tax relief? We’ll get your  max refund, guaranteed. D"><path d="M115.81,20.07h6l6,10.56V20.07h4.69V38.8h-5.19L120.52,27V38.8h-4.71Z" fill="#fff"/><path d="M134.44,32.12v-.21c0-4.4,3.27-7.18,7.41-7.18,3.75,0,7,2.15,7,7.07V33h-9.64A2.74,2.74,0,0,0,142,35.89c1.54,0,2.2-.71,2.38-1.62h4.4c-.42,3.09-2.8,4.84-6.94,4.84C137.58,39.11,134.44,36.6,134.44,32.12Zm9.82-1.73c-.08-1.65-.89-2.57-2.41-2.57a2.62,2.62,0,0,0-2.62,2.57Z" fill="#fff"/><path d="M149.71,32.12v-.21c0-4.4,3.28-7.18,7.42-7.18,3.74,0,7,2.15,7,7.07V33h-9.65a2.74,2.74,0,0,0,2.86,2.85c1.55,0,2.2-.71,2.38-1.62h4.41c-.42,3.09-2.81,4.84-6.95,4.84C152.86,39.11,149.71,36.6,149.71,32.12Zm9.83-1.73c-.08-1.65-.89-2.57-2.41-2.57a2.6,2.6,0,0,0-2.62,2.57Z" fill="#fff"/><path d="M165,32.09v-.21c0-4.66,2.57-7.15,5.82-7.15A4.43,4.43,0,0,1,175.07,27v-8h4.69V38.8h-4.69V36.57a4.61,4.61,0,0,1-4.27,2.54C167.63,39.11,165,36.83,165,32.09ZM175.21,32V31.8c0-2.3-1-3.53-2.7-3.53s-2.7,1.18-2.7,3.56V32c0,2.31,1,3.48,2.64,3.48S175.21,34.35,175.21,32Z" fill="#fff"/><path d="M186,34.45h4.32c.16,1,.61,1.55,1.94,1.55,1.16,0,1.68-.45,1.68-1.13s-.66-1-2.54-1.23c-3.67-.47-5.22-1.55-5.22-4.4,0-3,2.7-4.51,5.87-4.51,3.38,0,5.74,1.15,6.06,4.43h-4.25a1.52,1.52,0,0,0-1.75-1.36c-1,0-1.55.44-1.55,1.07s.63.92,2.31,1.13c3.79.47,5.63,1.46,5.63,4.4,0,3.25-2.41,4.71-6.21,4.71S186.11,37.49,186,34.45Z" fill="#fff"/><path d="M199.36,32.12v-.21c0-4.4,3.28-7.18,7.52-7.18s7.47,2.7,7.47,7.05V32c0,4.45-3.27,7.12-7.49,7.12S199.36,36.55,199.36,32.12ZM209.58,32v-.21c0-2.3-.92-3.59-2.7-3.59s-2.72,1.23-2.72,3.54V32c0,2.36.92,3.64,2.72,3.64S209.58,34.32,209.58,32Z" fill="#fff"/><path d="M216,25.1h4.69v2.09a4.8,4.8,0,0,1,4.3-2.46A3.74,3.74,0,0,1,228.71,27a5.42,5.42,0,0,1,4.53-2.28c2.59,0,4.48,1.68,4.48,5.11v9H233V30.63c0-1.39-.68-2.07-1.75-2.07a2,2,0,0,0-2.1,2.3V38.8h-4.64V30.63c0-1.39-.68-2.07-1.75-2.07a2,2,0,0,0-2.1,2.3V38.8H216Z" fill="#fff"/><path d="M239.27,32.12v-.21c0-4.4,3.27-7.18,7.41-7.18,3.75,0,7,2.15,7,7.07V33H244a2.74,2.74,0,0,0,2.86,2.85c1.54,0,2.2-.71,2.38-1.62h4.4c-.42,3.09-2.8,4.84-6.94,4.84C242.41,39.11,239.27,36.6,239.27,32.12Zm9.82-1.73c-.07-1.65-.89-2.57-2.41-2.57a2.62,2.62,0,0,0-2.62,2.57Z" fill="#fff"/><path d="M260.68,34.4V28.29H259V25.1h1.66V22.24h4.68V25.1h2.7v3.19h-2.7V34a1.25,1.25,0,0,0,1.39,1.44,3.52,3.52,0,0,0,1.34-.23v3.56a9.7,9.7,0,0,1-2.59.39C262.4,39.11,260.68,37.62,260.68,34.4Z" fill="#fff"/><path d="M269.11,35c0-3.22,2.73-4.48,7.29-4.48h1.31v-.31c0-1.31-.32-2.18-1.81-2.18A1.68,1.68,0,0,0,274,29.66h-4.4c.21-3.31,2.8-4.93,6.55-4.93s6.18,1.55,6.18,5.19V38.8h-4.56V37.2a4.48,4.48,0,0,1-4.06,1.91C271.29,39.11,269.11,37.91,269.11,35Zm8.6-1v-.84h-1.24c-1.88,0-2.72.36-2.72,1.49,0,.79.52,1.28,1.62,1.28C276.71,35.94,277.71,35.18,277.71,34Z" fill="#fff"/><path d="M288.11,31.83l-4.27-6.73h5.39l2.13,3.61,2.07-3.61h4.82l-4.33,6.36,4.75,7.34h-5.4l-2.44-4.09-2.49,4.09h-4.79Z" fill="#fff"/><path d="M304.75,25.1h4.69v2.72a4.32,4.32,0,0,1,4.42-2.91v4.38c-2.85-.08-4.42.81-4.42,3v6.5h-4.69Z" fill="#fff"/><path d="M314.7,32.12v-.21c0-4.4,3.28-7.18,7.42-7.18,3.74,0,7,2.15,7,7.07V33h-9.65a2.74,2.74,0,0,0,2.86,2.85c1.55,0,2.2-.71,2.38-1.62h4.41c-.42,3.09-2.81,4.84-6.95,4.84S314.7,36.6,314.7,32.12Zm9.83-1.73c-.08-1.65-.89-2.57-2.41-2.57a2.6,2.6,0,0,0-2.62,2.57Z" fill="#fff"/><path d="M330.84,19.07h4.67V38.8h-4.67Z" fill="#fff"/><path d="M337.92,21.38a2.45,2.45,0,0,1,2.56-2.44,2.43,2.43,0,1,1,0,4.85A2.42,2.42,0,0,1,337.92,21.38Zm.23,3.72h4.69V38.8h-4.69Z" fill="#fff"/><path d="M344.62,32.12v-.21c0-4.4,3.28-7.18,7.42-7.18,3.75,0,7,2.15,7,7.07V33h-9.64a2.73,2.73,0,0,0,2.85,2.85c1.55,0,2.2-.71,2.39-1.62H359c-.42,3.09-2.81,4.84-6.95,4.84C347.77,39.11,344.62,36.6,344.62,32.12Zm9.83-1.73c-.08-1.65-.89-2.57-2.41-2.57a2.6,2.6,0,0,0-2.62,2.57Z" fill="#fff"/><path d="M361.34,28.29h-1.73V25.1h1.73V23.89c0-3.4,2.12-5,5.37-5a8.22,8.22,0,0,1,2.15.29v3.43a4.47,4.47,0,0,0-1.28-.18A1.38,1.38,0,0,0,366,23.89V25.1h2.78v3.19H366V38.8h-4.66Z" fill="#fff"/><path d="M373.92,32.15c0-2,1.36-3.25,2.56-4.41.89-.86,1.71-1.65,1.71-2.56a1.4,1.4,0,0,0-1.6-1.58c-1.13,0-1.89.87-2.07,2.31H370c.13-4,3-6.1,7-6.1s6.31,1.8,6.31,4.92a5.34,5.34,0,0,1-1.91,3.93c-1.29,1.28-2.78,2.31-3,3.59v.39h-4.42Zm-.61,4.34a2.81,2.81,0,0,1,5.61,0,2.81,2.81,0,0,1-5.61,0Z" fill="#fff"/><path d="M388.8,20.07h5.42l2.41,11.68,2.52-11.68h4.77l2.72,11.79,2.54-11.79h5L409.78,38.8h-5.6L401.3,26.91,398.39,38.8h-5.24Z" fill="#fff"/><path d="M413.56,32.12v-.21c0-4.4,3.27-7.18,7.41-7.18,3.75,0,7,2.15,7,7.07V33H418.3a2.74,2.74,0,0,0,2.86,2.85c1.54,0,2.2-.71,2.38-1.62h4.4c-.42,3.09-2.8,4.84-6.94,4.84C416.7,39.11,413.56,36.6,413.56,32.12Zm9.82-1.73c-.07-1.65-.89-2.57-2.41-2.57a2.62,2.62,0,0,0-2.62,2.57Z" fill="#fff"/><path d="M428.42,26.56l2.09-6.83,4.14,1.39-3.59,6.47Z" fill="#fff"/><path d="M436.38,19.07H441V38.8h-4.66Z" fill="#fff"/><path d="M443.69,19.07h4.66V38.8h-4.66Z" fill="#fff"/><path d="M454.88,38.8h4.66c.21,1,.81,1.78,2.52,1.78A2.59,2.59,0,0,0,465,37.7V35.6a4.8,4.8,0,0,1-4.24,2.52c-3.2,0-5.82-2.36-5.82-6.58v-.21c0-4,2.6-6.6,5.82-6.6A4.45,4.45,0,0,1,465,27V25.1h4.69V37.65c0,4.08-2.69,6.23-7.59,6.23C457.39,43.88,455.24,41.92,454.88,38.8Zm10.21-7.28v-.19c0-1.88-1-3.09-2.69-3.09s-2.7,1.23-2.7,3.12v.21c0,1.89,1,3.09,2.67,3.09S465.09,33.46,465.09,31.52Z" fill="#fff"/><path d="M471.31,32.12v-.21c0-4.4,3.27-7.18,7.41-7.18,3.75,0,7,2.15,7,7.07V33h-9.64a2.73,2.73,0,0,0,2.85,2.85c1.55,0,2.2-.71,2.39-1.62h4.4c-.42,3.09-2.8,4.84-6.94,4.84C474.45,39.11,471.31,36.6,471.31,32.12Zm9.82-1.73c-.08-1.65-.89-2.57-2.41-2.57a2.61,2.61,0,0,0-2.62,2.57Z" fill="#fff"/><path d="M487.94,34.4V28.29h-1.65V25.1h1.65V22.24h4.69V25.1h2.7v3.19h-2.7V34A1.25,1.25,0,0,0,494,35.39a3.56,3.56,0,0,0,1.34-.23v3.56a9.85,9.85,0,0,1-2.6.39C489.67,39.11,487.94,37.62,487.94,34.4Z" fill="#fff"/><path d="M506.18,37.41,500.7,25.1h5.08l2.83,7.31,2.62-7.31h4.48l-7.33,18.28H503.9Z" fill="#fff"/><path d="M515.45,32.12v-.21c0-4.4,3.28-7.18,7.52-7.18s7.47,2.7,7.47,7.05V32c0,4.45-3.27,7.12-7.49,7.12S515.45,36.55,515.45,32.12ZM525.67,32v-.21c0-2.3-.92-3.59-2.7-3.59s-2.72,1.23-2.72,3.54V32c0,2.36.92,3.64,2.72,3.64S525.67,34.32,525.67,32Z" fill="#fff"/><path d="M532,34V25.1h4.69v8.17c0,1.55.6,2.31,1.93,2.31S541,34.74,541,33V25.1h4.69V38.8H541V36.68a4.51,4.51,0,0,1-4.35,2.43C534,39.11,532,37.49,532,34Z" fill="#fff"/><path d="M548,25.1h4.69v2.72a4.34,4.34,0,0,1,4.43-2.91v4.38c-2.86-.08-4.43.81-4.43,3v6.5H548Z" fill="#fff"/><path d="M115.39,55.64h4.69v2.1a4.79,4.79,0,0,1,4.3-2.47,3.75,3.75,0,0,1,3.72,2.28,5.41,5.41,0,0,1,4.53-2.28c2.59,0,4.48,1.68,4.48,5.11v9h-4.69V61.17c0-1.39-.68-2.07-1.76-2.07a2,2,0,0,0-2.09,2.3v7.94h-4.64V61.17c0-1.39-.68-2.07-1.76-2.07a2,2,0,0,0-2.09,2.3v7.94h-4.69Z" fill="#fff"/><path d="M138.6,65.54c0-3.22,2.73-4.48,7.29-4.48h1.31v-.31c0-1.31-.32-2.18-1.81-2.18a1.68,1.68,0,0,0-1.86,1.63h-4.4c.21-3.3,2.8-4.93,6.55-4.93s6.18,1.55,6.18,5.19v8.88H147.3v-1.6a4.49,4.49,0,0,1-4.06,1.92C140.78,69.66,138.6,68.45,138.6,65.54Zm8.6-1v-.84H146c-1.88,0-2.72.37-2.72,1.49,0,.79.52,1.29,1.62,1.29C146.2,66.49,147.2,65.73,147.2,64.55Z" fill="#fff"/><path d="M157.6,62.37l-4.27-6.73h5.4l2.12,3.61,2.07-3.61h4.82L163.41,62l4.75,7.33h-5.4l-2.44-4.09-2.49,4.09H153Z" fill="#fff"/><path d="M174.24,55.64h4.69v2.72a4.3,4.3,0,0,1,4.42-2.9v4.37c-2.85-.08-4.42.81-4.42,3v6.5h-4.69Z" fill="#fff"/><path d="M184.19,62.66v-.21c0-4.4,3.28-7.18,7.42-7.18,3.74,0,7,2.15,7,7.08v1.23h-9.65a2.74,2.74,0,0,0,2.86,2.85c1.55,0,2.2-.7,2.38-1.62h4.41c-.42,3.09-2.81,4.85-7,4.85S184.19,67.14,184.19,62.66ZM194,60.93c-.08-1.65-.89-2.57-2.41-2.57A2.6,2.6,0,0,0,189,60.93Z" fill="#fff"/><path d="M200.91,58.84h-1.73v-3.2h1.73V54.43c0-3.4,2.12-5,5.37-5a8.67,8.67,0,0,1,2.15.29v3.43a4.47,4.47,0,0,0-1.28-.18,1.38,1.38,0,0,0-1.58,1.49v1.21h2.78v3.2h-2.78v10.5h-4.66Z" fill="#fff"/><path d="M209.82,64.57V55.64h4.69v8.17c0,1.55.6,2.31,1.94,2.31s2.33-.84,2.33-2.59V55.64h4.69v13.7h-4.69V67.22a4.52,4.52,0,0,1-4.35,2.44C211.78,69.66,209.82,68,209.82,64.57Z" fill="#fff"/><path d="M225.85,55.64h4.69v2.2a4.86,4.86,0,0,1,4.51-2.57c2.64,0,4.48,1.65,4.48,5.16v8.91h-4.69v-8c0-1.55-.6-2.31-2-2.31s-2.33.84-2.33,2.6v7.67h-4.69Z" fill="#fff"/><path d="M241.13,62.63v-.21c0-4.66,2.57-7.15,5.81-7.15a4.44,4.44,0,0,1,4.22,2.31v-8h4.69V69.34h-4.69V67.12a4.62,4.62,0,0,1-4.27,2.54C243.72,69.66,241.13,67.38,241.13,62.63Zm10.16-.07v-.21c0-2.31-1-3.54-2.7-3.54S245.9,60,245.9,62.37v.21c0,2.31,1,3.49,2.64,3.49S251.29,64.89,251.29,62.56Z" fill="#fff"/><path d="M257.27,71.46l2.2-6.89,4.35,1.55L260,72.54Z" fill="#fff"/><path d="M269.87,69.34h4.66c.21,1,.82,1.78,2.52,1.78A2.59,2.59,0,0,0,280,68.24V66.15a4.81,4.81,0,0,1-4.25,2.51c-3.19,0-5.81-2.36-5.81-6.58v-.2c0-4,2.59-6.61,5.81-6.61A4.46,4.46,0,0,1,280,57.58V55.64h4.69V68.19c0,4.09-2.7,6.23-7.6,6.23C272.39,74.42,270.24,72.46,269.87,69.34Zm10.22-7.28v-.18c0-1.89-1-3.1-2.7-3.1s-2.7,1.23-2.7,3.12v.21c0,1.89,1,3.09,2.67,3.09S280.09,64,280.09,62.06Z" fill="#fff"/><path d="M286.93,64.57V55.64h4.69v8.17c0,1.55.6,2.31,1.94,2.31s2.33-.84,2.33-2.59V55.64h4.69v13.7h-4.69V67.22a4.52,4.52,0,0,1-4.35,2.44C288.89,69.66,286.93,68,286.93,64.57Z" fill="#fff"/><path d="M302.18,65.54c0-3.22,2.72-4.48,7.28-4.48h1.31v-.31c0-1.31-.31-2.18-1.81-2.18a1.69,1.69,0,0,0-1.86,1.63h-4.4c.21-3.3,2.8-4.93,6.55-4.93s6.18,1.55,6.18,5.19v8.88h-4.56v-1.6a4.49,4.49,0,0,1-4.06,1.92C304.35,69.66,302.18,68.45,302.18,65.54Zm8.59-1v-.84h-1.23c-1.89,0-2.73.37-2.73,1.49,0,.79.53,1.29,1.63,1.29A2.07,2.07,0,0,0,310.77,64.55Z" fill="#fff"/><path d="M317.71,55.64h4.69v2.72a4.32,4.32,0,0,1,4.43-2.9v4.37c-2.85-.08-4.43.81-4.43,3v6.5h-4.69Z" fill="#fff"/><path d="M327.43,65.54c0-3.22,2.73-4.48,7.29-4.48H336v-.31c0-1.31-.32-2.18-1.81-2.18a1.68,1.68,0,0,0-1.86,1.63H328c.21-3.3,2.8-4.93,6.55-4.93s6.18,1.55,6.18,5.19v8.88h-4.56v-1.6a4.49,4.49,0,0,1-4.06,1.92C329.61,69.66,327.43,68.45,327.43,65.54Zm8.6-1v-.84H334.8c-1.89,0-2.73.37-2.73,1.49,0,.79.53,1.29,1.63,1.29A2.07,2.07,0,0,0,336,64.55Z" fill="#fff"/><path d="M343,55.64h4.69v2.2a4.85,4.85,0,0,1,4.51-2.57c2.64,0,4.48,1.65,4.48,5.16v8.91H352v-8c0-1.55-.61-2.31-2-2.31s-2.33.84-2.33,2.6v7.67H343Z" fill="#fff"/><path d="M359.56,64.94v-6.1h-1.65v-3.2h1.65V52.78h4.69v2.86h2.69v3.2h-2.69V64.5c0,1,.49,1.44,1.38,1.44A3.52,3.52,0,0,0,367,65.7v3.56a9.63,9.63,0,0,1-2.59.4C361.29,69.66,359.56,68.16,359.56,64.94Z" fill="#fff"/><path d="M368,62.66v-.21c0-4.4,3.28-7.18,7.42-7.18,3.74,0,7,2.15,7,7.08v1.23h-9.64a2.72,2.72,0,0,0,2.85,2.85c1.55,0,2.2-.7,2.38-1.62h4.41c-.42,3.09-2.81,4.85-6.95,4.85C371.14,69.66,368,67.14,368,62.66Zm9.83-1.73c-.08-1.65-.89-2.57-2.41-2.57a2.6,2.6,0,0,0-2.62,2.57Z" fill="#fff"/><path d="M383.27,62.66v-.21c0-4.4,3.27-7.18,7.41-7.18,3.75,0,7,2.15,7,7.08v1.23H388a2.73,2.73,0,0,0,2.86,2.85c1.54,0,2.2-.7,2.38-1.62h4.4c-.42,3.09-2.8,4.85-6.94,4.85C386.41,69.66,383.27,67.14,383.27,62.66Zm9.82-1.73c-.08-1.65-.89-2.57-2.41-2.57a2.62,2.62,0,0,0-2.62,2.57Z" fill="#fff"/><path d="M398.59,62.63v-.21c0-4.66,2.57-7.15,5.82-7.15a4.45,4.45,0,0,1,4.22,2.31v-8h4.69V69.34h-4.69V67.12a4.62,4.62,0,0,1-4.27,2.54C401.19,69.66,398.59,67.38,398.59,62.63Zm10.17-.07v-.21c0-2.31-1-3.54-2.7-3.54s-2.7,1.18-2.7,3.56v.21c0,2.31,1,3.49,2.65,3.49S408.76,64.89,408.76,62.56Z" fill="#fff"/><path d="M415.52,67a2.61,2.61,0,0,1,2.67-2.64,2.65,2.65,0,1,1,0,5.29A2.62,2.62,0,0,1,415.52,67Z" fill="#fff"/></g></g></svg>