<svg xmlns="http://www.w3.org/2000/svg" viewBox="0 0 300 250"><title>H3</title><g id="Layer_2" data-name="Layer 2"><g id="Artboard_3" data-name="Artboard 3" style="isolation:isolate"><g id="headline1"><g id="Drop_off_your_docs_and_we_ll_do_the_rest." data-name="Drop off your docs and we’ll do the rest."><path d="M24,31.11h9.56c9.33,0,14.07,4.67,14.07,12.82v.3c0,8.19-4.85,13.15-14.11,13.15H24Zm9.3,20.47c4.48,0,6.47-2.36,6.47-7.24V44c0-5-2-7.12-6.54-7.12H31.52V51.58Z" fill="#fff"/><path d="M50.12,38.16H56.7V42a6,6,0,0,1,6.21-4.08V44c-4-.11-6.21,1.14-6.21,4.23v9.11H50.12Z" fill="#fff"/><path d="M64.09,48v-.29c0-6.18,4.59-10.07,10.54-10.07S85.1,41.43,85.1,47.53v.3c0,6.24-4.59,10-10.51,10S64.09,54.22,64.09,48Zm14.33-.11v-.29c0-3.24-1.29-5-3.79-5s-3.82,1.73-3.82,5v.3c0,3.3,1.29,5.11,3.82,5.11S78.42,51.1,78.42,47.9Z" fill="#fff"/><path d="M87.42,38.16H94V41a6.77,6.77,0,0,1,6-3.38c4.48,0,8.12,3.38,8.12,10v.29c0,6.62-3.64,9.92-8.16,9.92a6.33,6.33,0,0,1-6-3.27v9.26H87.42Zm14,9.74v-.29c0-3.38-1.47-5-3.78-5s-3.83,1.73-3.83,5v.29c0,3.27,1.44,4.93,3.83,4.93S101.42,51.06,101.42,47.9Z" fill="#fff"/><path d="M116.16,48v-.29c0-6.18,4.59-10.07,10.54-10.07s10.48,3.78,10.48,9.88v.3c0,6.24-4.6,10-10.51,10S116.16,54.22,116.16,48Zm14.33-.11v-.29c0-3.24-1.29-5-3.79-5s-3.82,1.73-3.82,5v.3c0,3.3,1.29,5.11,3.82,5.11S130.49,51.1,130.49,47.9Z" fill="#fff"/><path d="M140.49,42.65h-2.43V38.16h2.43V36.69c0-4.77,2.94-7,7.49-7a11,11,0,0,1,2.94.36v4.82a5.69,5.69,0,0,0-1.76-.26A1.92,1.92,0,0,0,147,36.69v1.47h5.58V36.47c0-4.77,3-7,7.53-7a11.76,11.76,0,0,1,3,.4v4.82a6,6,0,0,0-1.8-.26,1.92,1.92,0,0,0-2.17,2.09v1.69h3.89v4.49h-3.89V57.38h-6.58V42.65H147V57.38h-6.54Z" fill="#fff"/><path d="M178,55.43l-7.68-17.27h7.13l4,10.26,3.67-10.26h6.28L181.06,63.81h-6.29Z" fill="#fff"/><path d="M191,48v-.29c0-6.18,4.59-10.07,10.55-10.07S212,41.43,212,47.53v.3c0,6.24-4.59,10-10.51,10S191,54.22,191,48Zm14.33-.11v-.29c0-3.24-1.29-5-3.78-5s-3.82,1.73-3.82,5v.3c0,3.3,1.28,5.11,3.82,5.11S205.31,51.1,205.31,47.9Z" fill="#fff"/><path d="M214.17,50.69V38.16h6.58V49.63c0,2.17.84,3.23,2.72,3.23s3.27-1.17,3.27-3.64V38.16h6.57V57.38h-6.57v-3c-1,2-2.91,3.42-6.1,3.42C216.93,57.82,214.17,55.54,214.17,50.69Z" fill="#fff"/><path d="M236.66,38.16h6.58V42a6,6,0,0,1,6.21-4.08V44c-4-.11-6.21,1.14-6.21,4.23v9.11h-6.58Z" fill="#fff"/><path d="M22.41,86.72v-.29c0-6.54,3.6-10,8.16-10a6.23,6.23,0,0,1,5.91,3.23V68.46h6.58V96.13H36.48V93a6.47,6.47,0,0,1-6,3.56C26.05,96.57,22.41,93.38,22.41,86.72Zm14.26-.11v-.29c0-3.23-1.36-5-3.79-5s-3.78,1.65-3.78,5v.29c0,3.23,1.43,4.89,3.71,4.89S36.67,89.88,36.67,86.61Z" fill="#fff"/><path d="M45.38,86.76v-.29c0-6.18,4.59-10.07,10.54-10.07S66.4,80.18,66.4,86.28v.3c0,6.24-4.6,10-10.51,10S45.38,93,45.38,86.76Zm14.33-.11v-.29c0-3.24-1.29-5-3.79-5s-3.82,1.73-3.82,5v.3c0,3.3,1.29,5.11,3.82,5.11S59.71,89.85,59.71,86.65Z" fill="#fff"/><path d="M67.69,86.76v-.29c0-6.4,4.59-10.07,10.25-10.07,4.7,0,9,2.06,9.4,7.9H81.17c-.29-1.8-1.17-2.79-3.09-2.79-2.31,0-3.67,1.65-3.67,4.88v.3c0,3.34,1.29,5.07,3.79,5.07a3.2,3.2,0,0,0,3.34-3.2h5.91c-.18,4.85-3.45,8-9.66,8C72.06,96.57,67.69,93.23,67.69,86.76Z" fill="#fff"/><path d="M88.56,90h6.06c.22,1.4.85,2.17,2.72,2.17,1.62,0,2.35-.63,2.35-1.58s-.92-1.36-3.56-1.73c-5.14-.66-7.31-2.17-7.31-6.17,0-4.26,3.78-6.32,8.23-6.32,4.74,0,8,1.62,8.49,6.21h-6a2.14,2.14,0,0,0-2.46-1.91c-1.43,0-2.17.62-2.17,1.51s.89,1.28,3.24,1.58c5.32.66,7.9,2,7.9,6.17,0,4.55-3.38,6.61-8.71,6.61S88.71,94.29,88.56,90Z" fill="#fff"/><path d="M113.81,90.8c0-4.52,3.82-6.28,10.21-6.28h1.84v-.44c0-1.84-.44-3-2.54-3a2.37,2.37,0,0,0-2.61,2.28h-6.17c.3-4.63,3.93-6.91,9.19-6.91s8.67,2.17,8.67,7.27V96.13H126V93.89c-.92,1.4-2.61,2.68-5.7,2.68C116.86,96.57,113.81,94.88,113.81,90.8Zm12-1.39V88.23h-1.73c-2.64,0-3.82.52-3.82,2.1,0,1.1.74,1.8,2.28,1.8C124.46,92.13,125.86,91.06,125.86,89.41Z" fill="#fff"/><path d="M135.6,76.91h6.58V80a6.79,6.79,0,0,1,6.32-3.6c3.71,0,6.28,2.31,6.28,7.24V96.13H148.2V85c0-2.17-.84-3.23-2.75-3.23s-3.27,1.17-3.27,3.64V96.13H135.6Z" fill="#fff"/><path d="M157,86.72v-.29c0-6.54,3.61-10,8.16-10a6.26,6.26,0,0,1,5.92,3.23V68.46h6.57V96.13H171.1V93a6.49,6.49,0,0,1-6,3.56C160.66,96.57,157,93.38,157,86.72Zm14.26-.11v-.29c0-3.23-1.36-5-3.78-5s-3.79,1.65-3.79,5v.29c0,3.23,1.43,4.89,3.71,4.89S171.28,89.88,171.28,86.61Z" fill="#fff"/><path d="M186.09,76.91H193l2.8,11.51L199,76.91h5.29l2.87,11.51,3.12-11.51h6.25l-6.1,19.22h-6.29L201.27,85.4l-3,10.73H191.9Z" fill="#fff"/><path d="M216.34,86.76v-.29c0-6.18,4.59-10.07,10.4-10.07,5.25,0,9.77,3,9.77,9.92v1.73H223c.18,2.53,1.65,4,4,4,2.17,0,3.09-1,3.35-2.28h6.17c-.59,4.34-3.93,6.8-9.74,6.8C220.75,96.57,216.34,93,216.34,86.76Zm13.78-2.42c-.11-2.32-1.25-3.6-3.38-3.6s-3.35,1.28-3.68,3.6Z" fill="#fff"/><path d="M237.17,79l2.94-9.59,5.81,2-5,9.07Z" fill="#fff"/><path d="M248.35,68.46h6.54V96.13h-6.54Z" fill="#fff"/><path d="M258.6,68.46h6.54V96.13H258.6Z" fill="#fff"/><path d="M22.41,125.47v-.29c0-6.54,3.6-10,8.16-10a6.23,6.23,0,0,1,5.91,3.23V107.21h6.58v27.67H36.48v-3.12a6.47,6.47,0,0,1-6,3.56C26.05,135.32,22.41,132.13,22.41,125.47Zm14.26-.11v-.29c0-3.23-1.36-5-3.79-5s-3.78,1.65-3.78,5v.29c0,3.23,1.43,4.89,3.71,4.89S36.67,128.63,36.67,125.36Z" fill="#fff"/><path d="M45.38,125.51v-.29c0-6.18,4.59-10.07,10.54-10.07S66.4,118.93,66.4,125v.3c0,6.24-4.6,10-10.51,10S45.38,131.72,45.38,125.51Zm14.33-.11v-.29c0-3.24-1.29-5-3.79-5s-3.82,1.73-3.82,5v.3c0,3.3,1.29,5.1,3.82,5.1S59.71,128.6,59.71,125.4Z" fill="#fff"/><path d="M76.29,128.71v-8.56H74v-4.49h2.32v-4h6.57v4h3.79v4.49H82.86v7.93a1.75,1.75,0,0,0,2,2,5,5,0,0,0,1.87-.33v5a13.75,13.75,0,0,1-3.63.55C78.71,135.32,76.29,133.23,76.29,128.71Z" fill="#fff"/><path d="M89.15,107.21h6.58v11.54a6.77,6.77,0,0,1,6.31-3.6c3.72,0,6.29,2.31,6.29,7.24v12.49h-6.58V123.71c0-2.17-.84-3.23-2.75-3.23s-3.27,1.17-3.27,3.64v10.76H89.15Z" fill="#fff"/><path d="M110.5,125.51v-.29c0-6.18,4.59-10.07,10.4-10.07,5.25,0,9.77,3,9.77,9.92v1.73H117.15c.18,2.53,1.65,4,4,4,2.16,0,3.08-1,3.34-2.28h6.17c-.59,4.34-3.93,6.8-9.74,6.8C114.91,135.32,110.5,131.79,110.5,125.51Zm13.78-2.42c-.11-2.32-1.25-3.6-3.38-3.6s-3.35,1.28-3.68,3.6Z" fill="#fff"/><path d="M139.64,115.66h6.58v3.83a6,6,0,0,1,6.21-4.08v6.13c-4-.11-6.21,1.14-6.21,4.23v9.11h-6.58Z" fill="#fff"/><path d="M153.61,125.51v-.29c0-6.18,4.59-10.07,10.39-10.07,5.26,0,9.78,3,9.78,9.92v1.73H160.26c.18,2.53,1.65,4,4,4,2.17,0,3.09-1,3.35-2.28h6.17c-.59,4.34-3.93,6.8-9.74,6.8C158,135.32,153.61,131.79,153.61,125.51Zm13.78-2.42c-.11-2.32-1.25-3.6-3.39-3.6-2,0-3.34,1.28-3.67,3.6Z" fill="#fff"/><path d="M175,128.78H181c.22,1.4.85,2.17,2.72,2.17,1.62,0,2.35-.62,2.35-1.58s-.92-1.36-3.56-1.73c-5.15-.66-7.32-2.17-7.32-6.17,0-4.26,3.79-6.32,8.24-6.32,4.74,0,8,1.62,8.48,6.21h-6a2.14,2.14,0,0,0-2.46-1.91c-1.43,0-2.17.62-2.17,1.51s.88,1.28,3.23,1.58c5.33.66,7.9,2,7.9,6.17,0,4.55-3.38,6.61-8.7,6.61C178.3,135.32,175.1,133,175,128.78Z" fill="#fff"/><path d="M195.5,128.71v-8.56h-2.31v-4.49h2.31v-4h6.58v4h3.78v4.49h-3.78v7.93a1.75,1.75,0,0,0,1.95,2,5,5,0,0,0,1.87-.33v5a13.91,13.91,0,0,1-3.64.55C197.93,135.32,195.5,133.23,195.5,128.71Z" fill="#fff"/><path d="M208.11,131.57a3.67,3.67,0,0,1,3.74-3.71,3.72,3.72,0,1,1,0,7.43A3.67,3.67,0,0,1,208.11,131.57Z" fill="#fff"/><rect width="300" height="250" fill="none"/></g></g></g></g></svg>