<svg xmlns="http://www.w3.org/2000/svg" viewBox="0 0 728 90"><title>H156</title><g id="Layer_2" data-name="Layer 2"><g id="Rect"><rect width="728" height="90" fill="none"/></g><g id="If_you_re_not_using_H_R_Block_you_may_be_paying_too_much_for_t" data-name="If you&apos;re not using H&amp;R Block, you may be paying too much for t"><path d="M122.08,21.35h5.21v18h-5.21Z" fill="#fff"/><path d="M130.74,29.25h-1.67V26.18h1.67V25c0-3.28,2-4.84,5.16-4.84a8,8,0,0,1,2.06.28v3.3a4.16,4.16,0,0,0-1.23-.18A1.32,1.32,0,0,0,135.22,25v1.15h2.67v3.07h-2.67V39.34h-4.48Z" fill="#fff"/><path d="M148.1,38l-5.26-11.83h4.89l2.72,7,2.51-7h4.31l-7.05,17.57h-4.31Z" fill="#fff"/><path d="M157,32.93v-.21c0-4.22,3.15-6.89,7.23-6.89s7.17,2.59,7.17,6.77v.2c0,4.28-3.14,6.84-7.2,6.84S157,37.18,157,32.93Zm9.82-.08v-.2c0-2.21-.88-3.45-2.59-3.45s-2.62,1.18-2.62,3.4v.2c0,2.26.88,3.5,2.62,3.5S166.83,35,166.83,32.85Z" fill="#fff"/><path d="M172.9,34.76V26.18h4.5V34c0,1.49.58,2.22,1.87,2.22s2.24-.81,2.24-2.49V26.18H186V39.34h-4.5v-2a4.33,4.33,0,0,1-4.18,2.34C174.78,39.64,172.9,38.08,172.9,34.76Z" fill="#fff"/><path d="M188,21.35h4.4l-.52,6.92H188.5Z" fill="#fff"/><path d="M194.37,26.18h4.5V28.8A4.15,4.15,0,0,1,203.13,26v4.2c-2.75-.08-4.26.78-4.26,2.89v6.24h-4.5Z" fill="#fff"/><path d="M203.93,32.93v-.21c0-4.22,3.15-6.89,7.13-6.89,3.6,0,6.69,2.06,6.69,6.79v1.19h-9.26a2.62,2.62,0,0,0,2.74,2.74c1.49,0,2.12-.68,2.29-1.56h4.23c-.4,3-2.69,4.65-6.67,4.65C207,39.64,203.93,37.23,203.93,32.93Zm9.44-1.66c-.07-1.59-.85-2.47-2.31-2.47a2.51,2.51,0,0,0-2.52,2.47Z" fill="#fff"/><path d="M223.89,26.18h4.51V28.3a4.64,4.64,0,0,1,4.33-2.47c2.54,0,4.3,1.59,4.3,5v8.55h-4.5V31.69c0-1.48-.58-2.21-1.89-2.21s-2.24.8-2.24,2.49v7.37h-4.51Z" fill="#fff"/><path d="M238.52,32.93v-.21c0-4.22,3.14-6.89,7.22-6.89s7.18,2.59,7.18,6.77v.2c0,4.28-3.15,6.84-7.2,6.84S238.52,37.18,238.52,32.93Zm9.81-.08v-.2c0-2.21-.88-3.45-2.59-3.45s-2.62,1.18-2.62,3.4v.2c0,2.26.88,3.5,2.62,3.5S248.33,35,248.33,32.85Z" fill="#fff"/><path d="M255.1,35.12V29.25h-1.58V26.18h1.58V23.44h4.51v2.74h2.59v3.07h-2.59v5.44a1.2,1.2,0,0,0,1.33,1.38,3.26,3.26,0,0,0,1.29-.23v3.43a9.59,9.59,0,0,1-2.49.37C256.76,39.64,255.1,38.21,255.1,35.12Z" fill="#fff"/><path d="M268.39,34.76V26.18h4.51V34c0,1.49.58,2.22,1.86,2.22s2.24-.81,2.24-2.49V26.18h4.51V39.34H277v-2a4.32,4.32,0,0,1-4.18,2.34C270.28,39.64,268.39,38.08,268.39,34.76Z" fill="#fff"/><path d="M282.92,35.17h4.15c.15.95.58,1.48,1.86,1.48,1.11,0,1.61-.43,1.61-1.08s-.62-.93-2.44-1.18c-3.52-.46-5-1.49-5-4.23,0-2.92,2.6-4.33,5.64-4.33,3.25,0,5.52,1.11,5.82,4.25h-4.08a1.48,1.48,0,0,0-1.69-1.31c-1,0-1.48.43-1.48,1s.6.88,2.21,1.08c3.65.45,5.42,1.41,5.42,4.23,0,3.12-2.32,4.52-6,4.52S283,38.08,282.92,35.17Z" fill="#fff"/><path d="M296.28,22.61a2.49,2.49,0,1,1,2.47,2.31A2.33,2.33,0,0,1,296.28,22.61Zm.23,3.57H301V39.34h-4.51Z" fill="#fff"/><path d="M303.43,26.18h4.51V28.3a4.64,4.64,0,0,1,4.33-2.47c2.54,0,4.3,1.59,4.3,5v8.55h-4.5V31.69c0-1.48-.58-2.21-1.89-2.21s-2.24.8-2.24,2.49v7.37h-4.51Z" fill="#fff"/><path d="M318,39.34h4.48c.2,1,.78,1.71,2.42,1.71a2.48,2.48,0,0,0,2.79-2.76v-2a4.61,4.61,0,0,1-4.08,2.42c-3.07,0-5.59-2.27-5.59-6.32v-.2c0-3.87,2.5-6.34,5.59-6.34A4.28,4.28,0,0,1,327.72,28V26.18h4.51V38.24c0,3.92-2.59,6-7.3,6C320.45,44.22,318.38,42.34,318,39.34Zm9.82-7v-.18c0-1.81-.93-3-2.59-3s-2.6,1.18-2.6,3v.2c0,1.81,1,3,2.57,3S327.85,34.21,327.85,32.35Z" fill="#fff"/><path d="M339.5,21.35h5.19v6.87h5.91V21.35h5.16v18H350.6V32.25h-5.91v7.09H339.5Z" fill="#fff"/><path d="M373,35.67l3,3.67h-5.87L369.1,38a7.12,7.12,0,0,1-4.85,1.61c-3.83,0-6.32-2-6.32-5.43,0-2.32,1.41-4,3.95-5.23a5.75,5.75,0,0,1-1.11-3.15c0-3.07,2.62-4.71,5.79-4.71,2.87,0,5.47,1.44,5.47,4.21,0,2-1.16,3.39-3.61,4.45l2.27,2.77L372,30h3.93Zm-6.24-.53-2.85-3.42a2.12,2.12,0,0,0-1.21,1.94A2.1,2.1,0,0,0,365,35.9,2.38,2.38,0,0,0,366.79,35.14Zm-.56-7.25c1.21-.58,1.79-1.25,1.79-2.19a1.29,1.29,0,0,0-1.33-1.38,1.44,1.44,0,0,0-1.49,1.56A3.27,3.27,0,0,0,366.23,27.89Z" fill="#fff"/><path d="M377.66,21.35h7c4.71,0,7.33,1.91,7.33,5.71v.1a4.7,4.7,0,0,1-3.25,4.73l4.3,7.45h-5.44L384,32.9h-1.21v6.44h-5.13Zm6.8,8.2c1.73,0,2.59-.73,2.59-2.18v-.11c0-1.45-.91-2-2.57-2h-1.69v4.32Z" fill="#fff"/><path d="M399.41,21.35h8c4.25,0,6.06,1.91,6.06,4.71v.1a3.7,3.7,0,0,1-3,3.87,3.91,3.91,0,0,1,3.6,4.2v.1c0,3.23-2.09,5-6.55,5h-8.1Zm7,7.15c1.61,0,2.21-.56,2.21-1.84v-.1c0-1.23-.65-1.79-2.21-1.79h-2V28.5Zm.17,7.4c1.64,0,2.39-.76,2.39-2.09v-.1c0-1.36-.73-2.07-2.54-2.07h-2V35.9Z" fill="#fff"/><path d="M415.84,20.4h4.48V39.34h-4.48Z" fill="#fff"/><path d="M422,32.93v-.21c0-4.22,3.14-6.89,7.22-6.89s7.18,2.59,7.18,6.77v.2c0,4.28-3.15,6.84-7.2,6.84S422,37.18,422,32.93Zm9.81-.08v-.2c0-2.21-.88-3.45-2.59-3.45s-2.62,1.18-2.62,3.4v.2c0,2.26.88,3.5,2.62,3.5S431.85,35,431.85,32.85Z" fill="#fff"/><path d="M437.31,32.93v-.21c0-4.37,3.15-6.89,7-6.89,3.22,0,6.19,1.41,6.44,5.41h-4.23a1.94,1.94,0,0,0-2.11-1.91c-1.59,0-2.52,1.13-2.52,3.34v.21c0,2.29.88,3.47,2.59,3.47a2.19,2.19,0,0,0,2.29-2.19h4.06c-.13,3.32-2.37,5.48-6.62,5.48C440.31,39.64,437.31,37.35,437.31,32.93Z" fill="#fff"/><path d="M452.32,20.4h4.5v11l3.55-5.21h4.69l-4.31,5.92,4.66,7.24h-5l-3.55-5.76v5.76h-4.5Z" fill="#fff"/><path d="M465.53,41.38l2.11-6.62,4.18,1.49-3.62,6.16Z" fill="#fff"/><path d="M482.5,38l-5.27-11.83h4.89l2.72,7,2.51-7h4.31l-7.05,17.57h-4.3Z" fill="#fff"/><path d="M491.4,32.93v-.21c0-4.22,3.15-6.89,7.23-6.89s7.17,2.59,7.17,6.77v.2c0,4.28-3.14,6.84-7.2,6.84S491.4,37.18,491.4,32.93Zm9.82-.08v-.2c0-2.21-.88-3.45-2.59-3.45S496,30.38,496,32.6v.2c0,2.26.88,3.5,2.62,3.5S501.22,35,501.22,32.85Z" fill="#fff"/><path d="M507.29,34.76V26.18h4.5V34c0,1.49.58,2.22,1.87,2.22s2.24-.81,2.24-2.49V26.18h4.5V39.34h-4.5v-2a4.33,4.33,0,0,1-4.18,2.34C509.17,39.64,507.29,38.08,507.29,34.76Z" fill="#fff"/><path d="M121.57,53.35h4.51v2A4.61,4.61,0,0,1,130.21,53a3.57,3.57,0,0,1,3.57,2.19A5.25,5.25,0,0,1,138.14,53c2.49,0,4.31,1.61,4.31,4.91v8.6h-4.51V58.66c0-1.33-.66-2-1.69-2a2,2,0,0,0-2,2.22v7.62h-4.46V58.66c0-1.33-.65-2-1.69-2a2,2,0,0,0-2,2.22v7.62h-4.51Z" fill="#fff"/><path d="M143.88,62.86c0-3.09,2.61-4.3,7-4.3h1.26v-.3c0-1.26-.3-2.09-1.73-2.09a1.62,1.62,0,0,0-1.79,1.56h-4.23c.2-3.17,2.69-4.73,6.29-4.73s5.94,1.49,5.94,5v8.53h-4.38V65a4.33,4.33,0,0,1-3.9,1.83C146,66.81,143.88,65.66,143.88,62.86Zm8.25-1V61.1H151c-1.81,0-2.62.36-2.62,1.44,0,.75.5,1.23,1.56,1.23C151.18,63.77,152.13,63,152.13,61.91Z" fill="#fff"/><path d="M162.48,65.18l-5.27-11.83h4.89l2.72,7,2.52-7h4.3l-7,17.57h-4.3Z" fill="#fff"/><path d="M181.88,64.47v2h-4.5V47.57h4.5v7.75A4.66,4.66,0,0,1,186,53c3.07,0,5.56,2.32,5.56,6.82V60c0,4.53-2.49,6.79-5.59,6.79A4.28,4.28,0,0,1,181.88,64.47ZM187,60v-.2c0-2.32-1-3.42-2.59-3.42s-2.62,1.18-2.62,3.39V60c0,2.24,1,3.37,2.62,3.37S187,62.18,187,60Z" fill="#fff"/><path d="M192.48,60.1v-.2c0-4.23,3.15-6.9,7.12-6.9,3.6,0,6.7,2.06,6.7,6.79V61H197a2.62,2.62,0,0,0,2.74,2.74c1.49,0,2.12-.68,2.29-1.56h4.23c-.4,3-2.69,4.65-6.67,4.65S192.48,64.4,192.48,60.1Zm9.44-1.66c-.08-1.59-.86-2.47-2.32-2.47a2.49,2.49,0,0,0-2.51,2.47Z" fill="#fff"/><path d="M212.44,53.35H217v2a4.63,4.63,0,0,1,4.1-2.32c3.07,0,5.56,2.32,5.56,6.82V60c0,4.53-2.49,6.79-5.59,6.79A4.34,4.34,0,0,1,217,64.58v6.34h-4.51ZM222,60v-.2c0-2.32-1-3.42-2.59-3.42s-2.62,1.18-2.62,3.39V60c0,2.24,1,3.37,2.62,3.37S222,62.18,222,60Z" fill="#fff"/><path d="M227.49,62.86c0-3.09,2.62-4.3,7-4.3h1.26v-.3c0-1.26-.3-2.09-1.74-2.09a1.62,1.62,0,0,0-1.79,1.56H228c.21-3.17,2.7-4.73,6.3-4.73s5.94,1.49,5.94,5v8.53h-4.38V65a4.34,4.34,0,0,1-3.9,1.83C229.58,66.81,227.49,65.66,227.49,62.86Zm8.26-1V61.1h-1.18c-1.82,0-2.62.36-2.62,1.44,0,.75.5,1.23,1.56,1.23A2,2,0,0,0,235.75,61.91Z" fill="#fff"/><path d="M246.09,65.18l-5.26-11.83h4.89l2.71,7,2.52-7h4.31l-7,17.57H243.9Z" fill="#fff"/><path d="M256.31,49.78a2.49,2.49,0,1,1,2.47,2.31A2.33,2.33,0,0,1,256.31,49.78Zm.23,3.57H261V66.51h-4.5Z" fill="#fff"/><path d="M263.46,53.35H268v2.12A4.64,4.64,0,0,1,272.3,53c2.54,0,4.3,1.59,4.3,5v8.55h-4.51V58.86c0-1.48-.57-2.21-1.88-2.21s-2.24.8-2.24,2.49v7.37h-4.51Z" fill="#fff"/><path d="M278.06,66.51h4.48c.2,1,.78,1.71,2.42,1.71a2.48,2.48,0,0,0,2.79-2.76v-2a4.61,4.61,0,0,1-4.08,2.42c-3.07,0-5.59-2.27-5.59-6.32v-.2c0-3.87,2.5-6.34,5.59-6.34a4.28,4.28,0,0,1,4.08,2.21V53.35h4.51V65.41c0,3.92-2.6,6-7.3,6C280.47,71.39,278.41,69.51,278.06,66.51Zm9.82-7v-.18c0-1.81-.93-3-2.6-3s-2.59,1.18-2.59,3v.2c0,1.81,1,3,2.57,3S287.88,61.38,287.88,59.52Z" fill="#fff"/><path d="M299.73,62.29V56.42h-1.59V53.35h1.59V50.61h4.51v2.74h2.59v3.07h-2.59v5.44a1.2,1.2,0,0,0,1.33,1.38,3.53,3.53,0,0,0,1.29-.22v3.42a9.6,9.6,0,0,1-2.5.37C301.39,66.81,299.73,65.38,299.73,62.29Z" fill="#fff"/><path d="M307.83,60.1v-.2c0-4.23,3.15-6.9,7.23-6.9s7.18,2.59,7.18,6.77V60c0,4.28-3.15,6.84-7.2,6.84S307.83,64.35,307.83,60.1Zm9.82-.08v-.2c0-2.21-.88-3.45-2.59-3.45s-2.62,1.18-2.62,3.4V60c0,2.27.88,3.5,2.62,3.5S317.65,62.21,317.65,60Z" fill="#fff"/><path d="M323.11,60.1v-.2c0-4.23,3.15-6.9,7.23-6.9s7.17,2.59,7.17,6.77V60c0,4.28-3.14,6.84-7.2,6.84S323.11,64.35,323.11,60.1Zm9.82-.08v-.2c0-2.21-.88-3.45-2.59-3.45s-2.62,1.18-2.62,3.4V60c0,2.27.88,3.5,2.62,3.5S332.93,62.21,332.93,60Z" fill="#fff"/><path d="M343.68,53.35h4.5v2A4.61,4.61,0,0,1,352.31,53a3.6,3.6,0,0,1,3.58,2.19A5.22,5.22,0,0,1,360.24,53c2.5,0,4.31,1.61,4.31,4.91v8.6H360V58.66c0-1.33-.65-2-1.68-2a2,2,0,0,0-2,2.22v7.62h-4.45V58.66c0-1.33-.66-2-1.69-2a2,2,0,0,0-2,2.22v7.62h-4.5Z" fill="#fff"/><path d="M366.63,61.93V53.35h4.51V61.2c0,1.49.58,2.22,1.86,2.22s2.24-.81,2.24-2.49V53.35h4.51V66.51h-4.51v-2a4.31,4.31,0,0,1-4.17,2.34C368.52,66.81,366.63,65.25,366.63,61.93Z" fill="#fff"/><path d="M381.33,60.1v-.2c0-4.38,3.15-6.9,7-6.9,3.22,0,6.19,1.41,6.44,5.41h-4.23a1.94,1.94,0,0,0-2.11-1.91c-1.59,0-2.52,1.13-2.52,3.34v.21c0,2.29.88,3.47,2.59,3.47a2.21,2.21,0,0,0,2.3-2.19h4.05c-.13,3.32-2.37,5.48-6.62,5.48C384.33,66.81,381.33,64.53,381.33,60.1Z" fill="#fff"/><path d="M396.33,47.57h4.51v7.9A4.65,4.65,0,0,1,405.17,53c2.55,0,4.31,1.59,4.31,5v8.55H405V58.86c0-1.48-.58-2.21-1.89-2.21s-2.24.8-2.24,2.49v7.37h-4.51Z" fill="#fff"/><path d="M416.92,56.42h-1.66V53.35h1.66V52.2c0-3.28,2-4.84,5.17-4.84a8,8,0,0,1,2.06.28v3.3a4.16,4.16,0,0,0-1.23-.18,1.32,1.32,0,0,0-1.51,1.44v1.15h2.66v3.07h-2.66V66.51h-4.49Z" fill="#fff"/><path d="M424.42,60.1v-.2c0-4.23,3.15-6.9,7.23-6.9s7.18,2.59,7.18,6.77V60c0,4.28-3.15,6.84-7.21,6.84S424.42,64.35,424.42,60.1Zm9.82-.08v-.2c0-2.21-.88-3.45-2.59-3.45S429,57.55,429,59.77V60c0,2.27.88,3.5,2.62,3.5S434.24,62.21,434.24,60Z" fill="#fff"/><path d="M440.41,53.35h4.5V56a4.16,4.16,0,0,1,4.26-2.79v4.2c-2.75-.08-4.26.78-4.26,2.89v6.24h-4.5Z" fill="#fff"/><path d="M456,62.29V56.42H454.4V53.35H456V50.61h4.51v2.74h2.59v3.07H460.5v5.44c0,1,.47,1.38,1.33,1.38a3.44,3.44,0,0,0,1.28-.22v3.42a9.52,9.52,0,0,1-2.49.37C457.65,66.81,456,65.38,456,62.29Z" fill="#fff"/><path d="M464.09,62.86c0-3.09,2.62-4.3,7-4.3h1.26v-.3c0-1.26-.3-2.09-1.74-2.09a1.61,1.61,0,0,0-1.78,1.56H464.6c.2-3.17,2.69-4.73,6.29-4.73s5.94,1.49,5.94,5v8.53h-4.38V65a4.34,4.34,0,0,1-3.9,1.83C466.18,66.81,464.09,65.66,464.09,62.86Zm8.26-1V61.1h-1.18c-1.82,0-2.62.36-2.62,1.44,0,.75.5,1.23,1.56,1.23A2,2,0,0,0,472.35,61.91Z" fill="#fff"/><path d="M482.34,59.82l-4.1-6.47h5.18l2,3.48,2-3.48h4.64l-4.16,6.12,4.56,7H487.3L485,62.59l-2.39,3.92H478Z" fill="#fff"/><path d="M498.32,53.35h4.51v2A4.66,4.66,0,0,1,506.94,53c3.07,0,5.56,2.32,5.56,6.82V60c0,4.53-2.49,6.79-5.59,6.79a4.36,4.36,0,0,1-4.08-2.23v6.34h-4.51Zm9.6,6.67v-.2c0-2.32-1-3.42-2.6-3.42s-2.61,1.18-2.61,3.39V60c0,2.24,1,3.37,2.61,3.37S507.92,62.18,507.92,60Z" fill="#fff"/><path d="M514.13,53.35h4.51V56a4.14,4.14,0,0,1,4.25-2.79v4.2c-2.74-.08-4.25.78-4.25,2.89v6.24h-4.51Z" fill="#fff"/><path d="M523.7,60.1v-.2c0-4.23,3.14-6.9,7.12-6.9,3.6,0,6.7,2.06,6.7,6.79V61h-9.27A2.64,2.64,0,0,0,531,63.72c1.48,0,2.11-.68,2.29-1.56h4.23c-.4,3-2.69,4.65-6.67,4.65S523.7,64.4,523.7,60.1Zm9.44-1.66c-.08-1.59-.86-2.47-2.32-2.47a2.51,2.51,0,0,0-2.52,2.47Z" fill="#fff"/><path d="M539.08,53.35h4.5v2A4.66,4.66,0,0,1,547.69,53c3.07,0,5.56,2.32,5.56,6.82V60c0,4.53-2.49,6.79-5.59,6.79a4.36,4.36,0,0,1-4.08-2.23v6.34h-4.5ZM548.67,60v-.2c0-2.32-1-3.42-2.59-3.42s-2.62,1.18-2.62,3.39V60c0,2.24,1,3.37,2.62,3.37S548.67,62.18,548.67,60Z" fill="#fff"/><path d="M554.38,64.25A2.51,2.51,0,0,1,557,61.71a2.54,2.54,0,1,1,0,5.08A2.51,2.51,0,0,1,554.38,64.25Z" fill="#fff"/></g></g></svg>