<?xml version="1.0" encoding="utf-8"?>
<!-- Generator: Adobe Illustrator 23.1.0, SVG Export Plug-In . SVG Version: 6.00 Build 0)  -->
<svg version="1.1" id="Layer_1" xmlns="http://www.w3.org/2000/svg" xmlns:xlink="http://www.w3.org/1999/xlink" x="0px" y="0px"
	 viewBox="0 0 300 250" style="enable-background:new 0 0 300 250;" xml:space="preserve">
<style type="text/css">
	.st0{fill:none;}
	.st1{fill:#FFFFFF;}
</style>
<title>H53</title>
<g>
	<g id="Rect">
		<rect class="st0" width="300" height="250"/>
	</g>
	<g id="H53">
		<g id="It_s_better_with_Block.">
			<path class="st1" d="M23.6,38.9h10.2v35.3H23.6V38.9z"/>
			<path class="st1" d="M40.1,65.9V54.4H37v-6h3.1V43h8.8v5.4H54v6h-5.1V65c0,1.9,0.9,2.7,2.6,2.7c0.9,0,1.7-0.1,2.5-0.4V74
				c-1.6,0.5-3.2,0.7-4.9,0.7C43.3,74.8,40.1,71.9,40.1,65.9z"/>
			<path class="st1" d="M56.7,51.1l3.9-12.9l7.8,2.6L61.7,53L56.7,51.1z"/>
			<path class="st1" d="M65.4,66h8.1c0.3,1.9,1.1,2.9,3.7,2.9c2.2,0,3.2-0.8,3.2-2.1s-1.2-1.8-4.8-2.3c-6.9-0.9-9.8-2.9-9.8-8.3
				c0-5.7,5.1-8.5,11-8.5c6.4,0,10.8,2.2,11.4,8.3h-8c-0.3-1.8-1.2-2.6-3.2-2.6s-2.9,0.8-2.9,2s1.2,1.7,4.3,2.1
				c7.1,0.9,10.6,2.8,10.6,8.3c0,6.1-4.5,8.9-11.7,8.9C69.9,74.8,65.7,71.7,65.4,66z"/>
			<path class="st1" d="M109.7,70.2v4h-8.8V37h8.8v15.2c1.6-2.9,4.7-4.6,8-4.5c6,0,10.9,4.5,10.9,13.4v0.4c0,8.9-4.9,13.3-11,13.3
				C113.8,74.8,111,72.9,109.7,70.2z M119.7,61.4V61c0-4.5-2-6.7-5.1-6.7s-5.1,2.3-5.1,6.7v0.4c0,4.4,1.9,6.6,5.1,6.6
				S119.6,65.7,119.7,61.4L119.7,61.4z"/>
			<path class="st1" d="M130.4,61.6v-0.4c0-8.3,6.2-13.5,14-13.5c7.1,0,13.1,4,13.1,13.3v2.3h-18.2c0.2,3.4,2.2,5.4,5.4,5.4
				c2.9,0,4.1-1.3,4.5-3.1h8.3c-0.8,5.8-5.3,9.1-13.1,9.1C136.4,74.8,130.4,70,130.4,61.6z M149,58.3c-0.1-3.1-1.7-4.8-4.5-4.8
				c-2.7,0-4.5,1.7-4.9,4.8H149z"/>
			<path class="st1" d="M161.8,65.9V54.4h-3.1v-6h3.1V43h8.8v5.4h5.1v6h-5.1V65c0,1.9,0.9,2.7,2.6,2.7c0.9,0,1.7-0.1,2.5-0.4V74
				c-1.6,0.5-3.2,0.7-4.9,0.7C165,74.8,161.8,71.9,161.8,65.9z"/>
			<path class="st1" d="M180.2,65.9V54.4h-3.1v-6h3.1V43h8.8v5.4h5.1v6h-5.1V65c0,1.9,0.9,2.7,2.6,2.7c0.9,0,1.7-0.1,2.5-0.4V74
				c-1.6,0.5-3.2,0.7-4.9,0.7C183.5,74.8,180.2,71.9,180.2,65.9z"/>
			<path class="st1" d="M196.1,61.6v-0.4c0-8.3,6.2-13.5,14-13.5c7.1,0,13.1,4,13.1,13.3v2.3h-18.2c0.3,3.4,2.2,5.4,5.4,5.4
				c2.9,0,4.1-1.3,4.5-3.1h8.3c-0.8,5.8-5.3,9.1-13.1,9.1C202.1,74.8,196.1,70,196.1,61.6z M214.6,58.3c-0.1-3.1-1.7-4.8-4.5-4.8
				c-2.7,0-4.5,1.7-4.9,4.8H214.6z"/>
			<path class="st1" d="M226.3,48.3h8.8v5.1c1.6-3.8,4.4-5.5,8.3-5.5v8.2c-5.4-0.2-8.3,1.5-8.3,5.7v12.2h-8.8V48.3z"/>
			<path class="st1" d="M20.4,100.6h9.2l3.7,15.4l4.3-15.4h7.1l3.8,15.4l4.2-15.4h8.4l-8.2,25.8h-8.4L40.8,112l-4,14.4h-8.6
				L20.4,100.6z"/>
			<path class="st1" d="M63.4,93.6c-0.2-2.7,1.8-5,4.5-5.2s5,1.8,5.2,4.5s-1.8,5-4.5,5.2c-0.1,0-0.2,0-0.4,0
				c-2.5,0.1-4.7-1.8-4.8-4.4C63.4,93.7,63.4,93.6,63.4,93.6z M63.8,100.6h8.8v25.8h-8.8V100.6z"/>
			<path class="st1" d="M78.6,118.1v-11.5h-3.1v-6h3.1v-5.4h8.8v5.4h5.1v6h-5.1v10.7c0,1.9,0.9,2.7,2.6,2.7c0.9,0,1.7-0.1,2.5-0.4
				v6.7c-1.6,0.5-3.2,0.7-4.9,0.7C81.8,127,78.6,124.2,78.6,118.1z"/>
			<path class="st1" d="M95.8,89.3h8.8v15.5c1.7-3.1,5-5,8.5-4.8c5,0,8.4,3.1,8.4,9.7v16.8h-8.8v-15c0-2.9-1.1-4.3-3.7-4.3
				s-4.4,1.6-4.4,4.9v14.5h-8.8V89.3z"/>
			<path class="st1" d="M135.7,91.1h15.8c8.3,0,11.9,3.8,11.9,9.2v0.2c0,4-2,6.6-6,7.6c4.3,0.7,7,3.4,7,8.2v0.2
				c0,6.3-4.1,9.8-12.8,9.8h-15.8V91.1z M149.4,105.1c3.2,0,4.4-1.1,4.4-3.6v-0.2c0-2.4-1.3-3.5-4.4-3.5h-3.9v7.3L149.4,105.1z
				 M149.7,119.6c3.2,0,4.7-1.5,4.7-4.1v-0.2c0-2.7-1.4-4-5-4h-3.9v8.3L149.7,119.6z"/>
			<path class="st1" d="M167.9,89.3h8.8v37.2h-8.8V89.3z"/>
			<path class="st1" d="M180,113.8v-0.4c0-8.3,6.2-13.5,14.2-13.5s14.1,5.1,14.1,13.3v0.4c0,8.4-6.2,13.4-14.1,13.4
				S180,122.2,180,113.8z M199.2,113.7v-0.4c0-4.3-1.7-6.8-5.1-6.8s-5.1,2.3-5.1,6.7v0.4c0,4.4,1.7,6.9,5.1,6.9
				S199.3,118,199.2,113.7L199.2,113.7z"/>
			<path class="st1" d="M210,113.8v-0.4c0-8.6,6.2-13.5,13.8-13.5c6.3,0,12.1,2.8,12.6,10.6h-8.3c-0.4-2.4-1.6-3.8-4.1-3.8
				c-3.1,0-4.9,2.2-4.9,6.6v0.4c0,4.5,1.7,6.8,5.1,6.8c2.5,0,4.2-1.5,4.5-4.3h7.9c-0.2,6.5-4.6,10.8-13,10.8
				C215.9,127,210,122.5,210,113.8z"/>
			<path class="st1" d="M239.4,89.3h8.8v21.6l7-10.2h9.2l-8.4,11.6l9.1,14.2h-9.9l-7-11.3v11.3h-8.8L239.4,89.3z"/>
			<path class="st1" d="M266.8,122c0-2.7,2.1-5,4.9-5c0,0,0.1,0,0.1,0c2.8,0,5,2.2,5,5s-2.2,5-5,5c-2.7,0-5-2.1-5-4.9
				C266.8,122.1,266.8,122,266.8,122z"/>
		</g>
	</g>
</g>
</svg>
