<svg xmlns="http://www.w3.org/2000/svg" viewBox="0 0 300 250"><title>Asset 17</title><g id="Layer_2" data-name="Layer 2"><g id="Rect"><rect width="300" height="250" fill="none"/></g><g id="It_s_Better_with_Block." data-name="It’s Better with Block."><path d="M23.6,38.88H33.82V74.16H23.6Z" fill="#fff"/><path d="M40.09,65.87V54.37H37v-6h3.11V43h8.83v5.38H54v6H48.92V65c0,1.88.94,2.72,2.61,2.72a6.66,6.66,0,0,0,2.52-.45V74a18.31,18.31,0,0,1-4.88.74C43.34,74.75,40.09,71.94,40.09,65.87Z" fill="#fff"/><path d="M56.67,51.12l3.94-12.88,7.8,2.61L61.65,53Z" fill="#fff"/><path d="M65.45,66h8.14c.3,1.87,1.14,2.91,3.66,2.91,2.17,0,3.15-.84,3.15-2.12s-1.23-1.83-4.78-2.32c-6.91-.89-9.82-2.91-9.82-8.29,0-5.73,5.08-8.49,11-8.49,6.37,0,10.81,2.17,11.4,8.34h-8C79.91,54.27,79,53.43,77,53.43s-2.91.84-2.91,2,1.18,1.72,4.34,2.12C85.54,58.47,89,60.34,89,65.87c0,6.12-4.54,8.88-11.69,8.88C69.94,74.75,65.65,71.69,65.45,66Z" fill="#fff"/><path d="M101.62,38.88h15.75c8.34,0,11.89,3.75,11.89,9.22v.2c0,4-2,6.57-6,7.6,4.34.74,7,3.36,7,8.24v.2c0,6.32-4.09,9.82-12.83,9.82H101.62Zm13.72,14c3.16,0,4.35-1.08,4.35-3.6v-.2c0-2.42-1.29-3.5-4.35-3.5h-3.85v7.3Zm.35,14.51c3.21,0,4.69-1.48,4.69-4.1v-.19c0-2.67-1.43-4-5-4h-3.9V67.4Z" fill="#fff"/><path d="M132.37,61.58v-.4c0-8.29,6.17-13.52,14-13.52,7.06,0,13.13,4.05,13.13,13.32V63.3H141.3c.25,3.41,2.22,5.38,5.38,5.38,2.91,0,4.14-1.33,4.49-3.06h8.29c-.79,5.83-5.28,9.13-13.08,9.13C138.29,74.75,132.37,70,132.37,61.58Zm18.5-3.26c-.14-3.11-1.67-4.84-4.54-4.84-2.66,0-4.49,1.73-4.93,4.84Z" fill="#fff"/><path d="M163.71,65.87V54.37H160.6v-6h3.11V43h8.83v5.38h5.08v6h-5.08V65c0,1.88.94,2.72,2.61,2.72a6.66,6.66,0,0,0,2.52-.45V74a18.31,18.31,0,0,1-4.88.74C167,74.75,163.71,71.94,163.71,65.87Z" fill="#fff"/><path d="M182.16,65.87V54.37h-3.11v-6h3.11V43H191v5.38h5.08v6H191V65c0,1.88.93,2.72,2.61,2.72a6.66,6.66,0,0,0,2.52-.45V74a18.47,18.47,0,0,1-4.89.74C185.42,74.75,182.16,71.94,182.16,65.87Z" fill="#fff"/><path d="M198.05,61.58v-.4c0-8.29,6.17-13.52,14-13.52,7,0,13.12,4.05,13.12,13.32V63.3H207c.25,3.41,2.23,5.38,5.38,5.38,2.91,0,4.15-1.33,4.49-3.06h8.29c-.79,5.83-5.28,9.13-13.07,9.13C204,74.75,198.05,70,198.05,61.58Zm18.51-3.26c-.15-3.11-1.68-4.84-4.54-4.84-2.67,0-4.49,1.73-4.94,4.84Z" fill="#fff"/><path d="M228.21,48.35H237v5.13c1.63-3.85,4.34-5.52,8.34-5.47v8.24C240,56.1,237,57.78,237,61.92V74.16h-8.83Z" fill="#fff"/><path d="M20.44,100.6h9.23l3.75,15.45,4.34-15.45h7.11l3.85,15.45,4.19-15.45H61.3l-8.19,25.81H44.67L40.82,112l-4,14.41H28.24Z" fill="#fff"/><path d="M63.38,93.59a4.87,4.87,0,1,1,4.83,4.54A4.61,4.61,0,0,1,63.38,93.59Zm.44,7h8.84v25.81H63.82Z" fill="#fff"/><path d="M78.58,118.12v-11.5H75.47v-6h3.11V95.22h8.83v5.38h5.08v6H87.41v10.66c0,1.88.94,2.72,2.62,2.72a6.64,6.64,0,0,0,2.51-.45v6.71a18.31,18.31,0,0,1-4.88.74C81.83,127,78.58,124.19,78.58,118.12Z" fill="#fff"/><path d="M95.85,89.25h8.83v15.5a9.11,9.11,0,0,1,8.49-4.84c5,0,8.44,3.11,8.44,9.72v16.78h-8.83v-15c0-2.91-1.14-4.34-3.71-4.34s-4.39,1.58-4.39,4.88v14.46H95.85Z" fill="#fff"/><path d="M135.67,91.13h15.75c8.34,0,11.89,3.75,11.89,9.22v.2c0,4-2,6.57-6,7.6,4.34.74,7,3.36,7,8.24v.2c0,6.32-4.09,9.82-12.83,9.82H135.67Zm13.72,14c3.16,0,4.35-1.08,4.35-3.6v-.2c0-2.42-1.29-3.5-4.35-3.5h-3.85v7.3Zm.35,14.51c3.21,0,4.69-1.48,4.69-4.1v-.19c0-2.67-1.43-4-5-4h-3.9v8.34Z" fill="#fff"/><path d="M167.9,89.25h8.78v37.16H167.9Z" fill="#fff"/><path d="M180,113.83v-.4c0-8.29,6.17-13.52,14.16-13.52s14.07,5.08,14.07,13.28v.39c0,8.39-6.17,13.42-14.12,13.42S180,122.17,180,113.83Zm19.24-.15v-.4c0-4.34-1.72-6.76-5.08-6.76s-5.13,2.32-5.13,6.67v.39c0,4.44,1.73,6.86,5.13,6.86S199.28,118,199.28,113.68Z" fill="#fff"/><path d="M210,113.83v-.4c0-8.58,6.17-13.52,13.77-13.52,6.32,0,12.14,2.76,12.63,10.61H228.1c-.39-2.42-1.57-3.75-4.14-3.75-3.11,0-4.94,2.22-4.94,6.56v.4c0,4.49,1.73,6.81,5.09,6.81,2.46,0,4.19-1.48,4.49-4.3h7.94c-.24,6.52-4.64,10.76-13,10.76C215.87,127,210,122.51,210,113.83Z" fill="#fff"/><path d="M239.41,89.25h8.83v21.57l7-10.22h9.18l-8.44,11.6,9.13,14.21H255.2l-7-11.3v11.3h-8.83Z" fill="#fff"/><path d="M266.79,122a4.93,4.93,0,0,1,5-5,5,5,0,1,1,0,10A4.93,4.93,0,0,1,266.79,122Z" fill="#fff"/></g></g></svg>