<?xml version="1.0" encoding="utf-8"?>
<!-- Generator: Adobe Illustrator 23.1.1, SVG Export Plug-In . SVG Version: 6.00 Build 0)  -->
<svg version="1.1" id="Layer_1" xmlns="http://www.w3.org/2000/svg" xmlns:xlink="http://www.w3.org/1999/xlink" x="0px" y="0px"
	 viewBox="0 0 393 393" style="enable-background:new 0 0 393 393;" xml:space="preserve">
<style type="text/css">
	.st0{fill:#14AA40;}
	.st1{fill:#FFFFFF;}
</style>
<title>logo</title>
<g>
	<g id="Layer_1-2">
		<rect class="st0" width="393" height="393"/>
		<polygon class="st1" points="29.5,207.8 50.8,207.8 50.8,232 68.3,232 68.3,207.8 89.7,207.8 89.7,275.9 68.3,275.9 68.3,251.5 
			50.8,251.5 50.8,275.9 29.5,275.9 		"/>
		<path class="st1" d="M200.2,258H194v17.9h-21.3v-68.1h34.1c17.3,0,26.8,10.3,26.8,25.2c0,9.8-4.4,17.3-11.7,21.5l13.5,21.6h-24.9
			L200.2,258z M204.4,241.2c4.1,0.2,7.6-2.9,7.9-7c0-0.4,0-0.7,0-1.1c0-5.1-2.7-8.3-7.9-8.3H194v16.3H204.4z"/>
		<path class="st1" d="M29.4,295h35.3c12.7,0,20.2,7.4,20.2,17.7c0.3,6.4-3.2,12.4-8.9,15.3c8.2,1.8,13.1,7.4,13.1,15.9
			c0,11.5-8.4,19.4-23.9,19.4H29.4V295z M59.6,321.6c2.8,0.1,5.1-2.2,5.2-5c0-0.2,0-0.5,0-0.7c0.1-2.8-2-5.1-4.8-5.2
			c-0.1,0-0.3,0-0.4,0h-9.8v10.9L59.6,321.6z M63.8,347.5c2.9,0.1,5.3-2.3,5.4-5.2c0-0.2,0-0.5,0-0.7c0.1-3-2.1-5.5-5.1-5.6
			c-0.1,0-0.2,0-0.3,0H49.6v11.4L63.8,347.5z"/>
		<polygon class="st1" points="98,295 119.3,295 119.3,345.5 147,345.5 147,363.2 98,363.2 		"/>
		<path class="st1" d="M152.6,333.4v-8.6c0-18.5,11.2-31.2,32.5-31.2s32.5,12.7,32.5,31.2v8.6c0,18.5-11.2,31.1-32.5,31.1
			S152.6,351.9,152.6,333.4 M196.3,334.7v-11.1c0-7.9-3.9-12.2-11.2-12.2s-11.2,4.3-11.2,12.2v11.1c0,7.9,3.9,12.2,11.2,12.2
			C192.3,346.8,196.3,342.5,196.3,334.7"/>
		<path class="st1" d="M257.1,346.8c7.5,0,10.2-5.1,10.6-10.1h20.2c-0.5,15.4-11.2,27.8-30.4,27.8c-22,0-32.5-12.5-32.5-31v-8.9
			c0-18.5,10.5-31,32.5-31c19.2,0,29.9,12.5,30.4,27.9h-20.2c-0.4-5-3.1-10.1-10.6-10.1c-7.5,0-10.8,4.8-10.8,12.3v10.9
			C246.3,342,249.8,346.8,257.1,346.8"/>
		<path class="st1" d="M364,299.2c-0.1-3.1,2.4-5.7,5.5-5.8c3.1-0.1,5.7,2.4,5.8,5.5c0.1,3.1-2.4,5.7-5.5,5.8c-0.1,0-0.1,0-0.2,0
			c-3,0.1-5.5-2.2-5.6-5.1C364,299.4,364,299.3,364,299.2 M374.1,299.2c0-2.4-2-4.4-4.4-4.4s-4.4,2-4.4,4.4c0,2.4,2,4.4,4.4,4.4
			c0,0,0,0,0,0c2.3,0.1,4.3-1.6,4.4-4C374.1,299.5,374.1,299.3,374.1,299.2 M369.6,300h-0.3v1.3h-1.5v-4.7h2.2c1.3,0,2,0.7,2,1.7
			c0,0.6-0.2,1.1-0.7,1.4l0.9,1.6h-1.7L369.6,300z M369.7,298.9c0.3,0,0.5-0.2,0.6-0.5c0,0,0,0,0-0.1c0-0.3-0.2-0.5-0.6-0.5h-0.5v1
			H369.7z"/>
		<polygon class="st1" points="299.5,295 320.8,295 320.8,318.8 322.1,318.8 336,295 359.9,295 342,325.8 361.9,363.2 336.6,363.2 
			322.5,334.8 320.8,334.8 320.8,363.2 299.5,363.2 		"/>
		<path class="st1" d="M154.6,261.6c2-4.1,2.9-8.6,2.7-13.1v-10.6h-15.1v10l-15.7-17.7c-1.5-1.5-2.4-3.5-2.5-5.6
			c0.3-2.7,2.7-4.6,5.4-4.3c2.3,0.3,4.2,2.2,4.3,4.6v3.3h16.3v-4.3c0-10.8-9-17.4-21.4-17.4c-13.5,0-22.2,7.1-22.2,17.8
			c0.1,4.6,2.1,8.9,5.5,11.9c-7.5,3.2-12.3,10.5-12.3,18.6c0,13.5,10.6,22.5,29.4,22.5c5.9,0.1,11.8-1.5,16.8-4.6l3,3.3h19
			L154.6,261.6z M128.3,263.3c-4.6,0-11-2.7-11-9c0.2-3.2,1.9-6.2,4.6-7.9c0,0,11.1,12.5,13.5,15
			C133.3,262.7,130.8,263.4,128.3,263.3"/>
	</g>
</g>
</svg>
