<svg xmlns="http://www.w3.org/2000/svg" viewBox="0 0 970 250"><title>30</title><g id="Layer_2" data-name="Layer 2"><g id="Rect"><rect width="970" height="250" fill="none"/></g><g id="_30_off_online_tax_prep." data-name="30% off online tax prep."><path d="M280.38,93.73h15.44c.51,5,2.88,8.4,8.9,8.4,5.35,0,8-2.55,8-6.88,0-4.75-2.55-7.12-8-7.12h-4.83V77.35h4.49c5.43,0,8.06-2.46,8.06-6.7,0-3.65-2.37-6-6.95-6s-7.38,2.8-8.06,7.72H282.07c.77-12,8.74-20.2,23.84-20.2,14.26,0,22.82,6.54,22.82,16.63,0,6.79-3.9,11.2-10.26,13.07,6.95,1.44,11.79,6.36,11.79,13.74,0,11.54-8.57,19.09-24.6,19.09C288.77,114.68,280.88,106.88,280.38,93.73Z" fill="#fff"/><path d="M334.84,84.65V82.1c0-19.17,12-29.95,28-29.95s28,9.93,28,29.61v2.38c0,19.26-11,30.54-28.33,30.54C345.53,114.68,334.84,103.74,334.84,84.65Zm38.6-.17V82c0-11.12-3.22-16.72-10.6-16.72S352.23,70.82,352.23,82v2.54c0,11.29,3.31,16.63,10.78,16.63S373.44,95.68,373.44,84.48Z" fill="#fff"/><path d="M393.85,58.46c0-5,4-8.8,9.39-8.8s9.35,3.61,9.35,8.65-3.66,9.1-9.39,9.1S393.85,63.55,393.85,58.46ZM423,50.05h4.84L403.29,85.41h-4.84Zm-16.92,8.41c0-2.32-1-3.76-2.82-3.76s-2.91,1.39-2.91,3.71c0,2.47,1.09,3.86,2.91,3.86S406.06,60.78,406.06,58.46Zm7.47,18.59c0-5,4.06-8.8,9.4-8.8s9.34,3.56,9.34,8.66-3.66,9.1-9.39,9.1S413.53,82.15,413.53,77.05Zm12.27,0c0-2.28-1-3.71-2.87-3.71s-2.87,1.38-2.87,3.71,1.09,3.8,2.87,3.8S425.8,79.38,425.8,77Z" fill="#fff"/><path d="M447.37,92v-.68c0-14.25,10.6-23.25,24.34-23.25s24.18,8.74,24.18,22.83v.67c0,14.43-10.6,23.08-24.26,23.08S447.37,106.37,447.37,92Zm33.08-.26V91.1c0-7.47-3-11.63-8.74-11.63s-8.82,4-8.82,11.46v.67c0,7.64,3,11.8,8.82,11.8C477.4,103.4,480.45,99.16,480.45,91.77Z" fill="#fff"/><path d="M503.53,79.64h-5.6V69.29h5.6V65.9c0-11,6.78-16.21,17.3-16.21a25.45,25.45,0,0,1,6.79.85V61.66a13.26,13.26,0,0,0-4.07-.6c-3.4,0-4.92,2-4.92,4.84v3.39h12.89v-3.9c0-11,7-16.29,17.4-16.29a27,27,0,0,1,7,.93V61.15a13.9,13.9,0,0,0-4.16-.6c-3.47,0-5,2-5,4.84v3.9h9V79.64h-9v34H531.52v-34H518.63v34h-15.1Z" fill="#fff"/><path d="M573.77,92v-.68c0-14.25,10.6-23.25,24.35-23.25s24.18,8.74,24.18,22.83v.67c0,14.43-10.61,23.08-24.27,23.08S573.77,106.37,573.77,92Zm33.09-.26V91.1c0-7.47-3-11.63-8.74-11.63s-8.83,4-8.83,11.46v.67c0,7.64,3,11.8,8.83,11.8C603.8,103.4,606.86,99.16,606.86,91.77Z" fill="#fff"/><path d="M627.64,69.29h15.18v7.13c2.38-4.58,7.22-8.32,14.6-8.32,8.57,0,14.5,5.35,14.5,16.72v28.84H656.74V87.87c0-5-2-7.46-6.36-7.46s-7.56,2.71-7.56,8.4v24.85H627.64Z" fill="#fff"/><path d="M679.73,49.78h15.1v63.88h-15.1Z" fill="#fff"/><path d="M702.63,57.25c0-4.5,3.56-7.89,8.32-7.89s8.39,3.39,8.39,7.89-3.64,7.8-8.39,7.8S702.63,61.74,702.63,57.25Zm.76,12h15.19v44.37H703.39Z" fill="#fff"/><path d="M726.72,69.29h15.19v7.13c2.38-4.58,7.21-8.32,14.59-8.32,8.57,0,14.51,5.35,14.51,16.72v28.84H755.82V87.87c0-5-2-7.46-6.36-7.46s-7.55,2.71-7.55,8.4v24.85H726.72Z" fill="#fff"/><path d="M776,92v-.68c0-14.25,10.61-23.25,24-23.25,12.13,0,22.57,7,22.57,22.91v4H791.37c.42,5.85,3.82,9.25,9.25,9.25,5,0,7.12-2.29,7.71-5.26h14.26c-1.36,10-9.08,15.69-22.48,15.69C786.19,114.68,776,106.54,776,92Zm31.82-5.6c-.26-5.35-2.89-8.31-7.81-8.31-4.58,0-7.72,3-8.48,8.31Z" fill="#fff"/><path d="M284.53,186.41V166.64h-5.34V156.29h5.34V147h15.19v9.25h8.74v10.35h-8.74V185c0,3.22,1.61,4.66,4.5,4.66a11.55,11.55,0,0,0,4.32-.76v11.54a31.79,31.79,0,0,1-8.4,1.27C290.13,201.68,284.53,196.85,284.53,186.41Z" fill="#fff"/><path d="M311.85,188.36c0-10.43,8.82-14.51,23.58-14.51h4.25v-1c0-4.25-1-7.05-5.86-7.05-4.15,0-5.68,2.46-6,5.26H313.55c.67-10.69,9.07-16,21.21-16s20,5,20,16.8v28.76H340v-5.17c-2.13,3.22-6,6.19-13.15,6.19C318.89,201.68,311.85,197.78,311.85,188.36Zm27.83-3.22v-2.72h-4c-6.11,0-8.82,1.19-8.82,4.84,0,2.54,1.69,4.16,5.26,4.16C336.45,191.42,339.68,189,339.68,185.14Z" fill="#fff"/><path d="M373.35,178.1l-13.82-21.81H377L383.87,168l6.71-11.71h15.61l-14,20.62,15.35,23.75H390.07l-7.89-13.23-8.06,13.23H358.59Z" fill="#fff"/><path d="M427.22,156.29h15.19v6.62a15.65,15.65,0,0,1,13.83-7.81c10.35,0,18.75,7.81,18.75,23v.67c0,15.28-8.4,22.91-18.84,22.91-6.7,0-11.54-3.14-13.74-7.55v21.38H427.22Zm32.33,22.48v-.67c0-7.81-3.4-11.54-8.74-11.54-5.52,0-8.83,4-8.83,11.45v.68c0,7.55,3.31,11.37,8.83,11.37C456.49,190.06,459.55,186.07,459.55,178.77Z" fill="#fff"/><path d="M480.5,156.29h15.18v8.83c2.8-6.62,7.47-9.51,14.34-9.42v14.17c-9.25-.26-14.34,2.63-14.34,9.75v21H480.5Z" fill="#fff"/><path d="M512.74,179v-.68c0-14.25,10.6-23.25,24-23.25,12.13,0,22.56,7,22.56,22.91v4H528.09c.43,5.85,3.82,9.25,9.25,9.25,5,0,7.13-2.29,7.72-5.26h14.25c-1.35,10-9.07,15.69-22.48,15.69C522.92,201.68,512.74,193.54,512.74,179Zm31.81-5.6c-.25-5.35-2.88-8.31-7.8-8.31-4.59,0-7.72,3-8.49,8.31Z" fill="#fff"/><path d="M564.57,156.29h15.19v6.62a15.65,15.65,0,0,1,13.82-7.81c10.35,0,18.75,7.81,18.75,23v.67c0,15.28-8.4,22.91-18.83,22.91-6.7,0-11.54-3.14-13.74-7.55v21.38H564.57Zm32.32,22.48v-.67c0-7.81-3.39-11.54-8.73-11.54-5.52,0-8.83,4-8.83,11.45v.68c0,7.55,3.31,11.37,8.83,11.37C593.84,190.06,596.89,186.07,596.89,178.77Z" fill="#fff"/><path d="M616.15,193a8.46,8.46,0,0,1,8.65-8.57,8.58,8.58,0,1,1,0,17.14A8.46,8.46,0,0,1,616.15,193Z" fill="#fff"/></g></g></svg>