<svg xmlns="http://www.w3.org/2000/svg" viewBox="0 0 134 36"><title>file_online_now</title><g id="Layer_2" data-name="Layer 2"><g id="Rect"><rect width="134" height="36" fill="none"/></g><g id="File_online_now" data-name="File online now"><path d="M18,12h6.43v1.78H20.3v2.65h3.29V18.1H20.3V22H18Z" fill="#262626"/><path d="M25.34,12.55a1.16,1.16,0,0,1,2.31,0,1.16,1.16,0,0,1-2.31,0Zm.15,2.1h2V22h-2Z" fill="#262626"/><path d="M29.21,11.33h2V22h-2Z" fill="#262626"/><path d="M32.42,18.41V18.3a3.63,3.63,0,0,1,3.77-3.81,3.37,3.37,0,0,1,3.57,3.72v.56H34.48c.06,1.22.71,1.92,1.82,1.92.94,0,1.4-.41,1.53-1h1.92c-.24,1.58-1.5,2.46-3.51,2.46A3.55,3.55,0,0,1,32.42,18.41Zm5.37-.89c-.07-1.1-.64-1.63-1.6-1.63a1.67,1.67,0,0,0-1.68,1.63Z" fill="#262626"/><path d="M43.33,18.39v-.11a3.86,3.86,0,0,1,7.71,0v.11a3.86,3.86,0,0,1-7.71,0Zm5.65,0v-.1c0-1.4-.65-2.24-1.79-2.24s-1.79.81-1.79,2.21v.11c0,1.4.64,2.24,1.79,2.24S49,19.75,49,18.37Z" fill="#262626"/><path d="M52.19,14.65h2v1.17a2.52,2.52,0,0,1,2.38-1.33c1.44,0,2.47.86,2.47,2.82V22H57V17.61c0-1-.39-1.47-1.28-1.47a1.45,1.45,0,0,0-1.53,1.61V22h-2Z" fill="#262626"/><path d="M60.64,11.33h2V22h-2Z" fill="#262626"/><path d="M64.2,12.55a1.16,1.16,0,1,1,1.15,1.11A1.1,1.1,0,0,1,64.2,12.55Zm.15,2.1h2V22h-2Z" fill="#262626"/><path d="M68,14.65h2v1.17a2.53,2.53,0,0,1,2.38-1.33c1.45,0,2.47.86,2.47,2.82V22h-2V17.61c0-1-.39-1.47-1.29-1.47a1.45,1.45,0,0,0-1.53,1.61V22H68Z" fill="#262626"/><path d="M76,18.41V18.3a3.63,3.63,0,0,1,3.77-3.81,3.37,3.37,0,0,1,3.57,3.72v.56H78a1.76,1.76,0,0,0,1.82,1.92c.94,0,1.4-.41,1.53-1H83.3c-.24,1.58-1.5,2.46-3.5,2.46A3.55,3.55,0,0,1,76,18.41Zm5.37-.89c-.07-1.1-.63-1.63-1.6-1.63a1.67,1.67,0,0,0-1.68,1.63Z" fill="#262626"/><path d="M87.33,14.65h2v1.17a2.52,2.52,0,0,1,2.38-1.33c1.44,0,2.47.86,2.47,2.82V22h-2V17.61c0-1-.39-1.47-1.29-1.47a1.45,1.45,0,0,0-1.52,1.61V22h-2Z" fill="#262626"/><path d="M95.28,18.39v-.11a3.86,3.86,0,0,1,7.72,0v.11a3.86,3.86,0,0,1-7.72,0Zm5.66,0v-.1c0-1.4-.66-2.24-1.79-2.24s-1.8.81-1.8,2.21v.11c0,1.4.65,2.24,1.8,2.24S100.94,19.75,100.94,18.37Z" fill="#262626"/><path d="M103.27,14.65h2.13l1.31,4.93,1.41-4.93h1.67l1.29,4.93,1.38-4.93h2L112.1,22h-2l-1.25-4.6L107.52,22h-2Z" fill="#262626"/></g></g></svg>