<svg xmlns="http://www.w3.org/2000/svg" viewBox="0 0 300 600"><title>H01</title><g id="Layer_2" data-name="Layer 2"><g id="Rect"><rect width="300" height="600" fill="none"/></g><g id="Free_EITC_Yep_free." data-name="Free EITC?Yep, free."><path d="M18.45,68.71H42.63v8H28.76v7.6H39.82v7.56H28.76v12.66H18.45Z" fill="#14aa40"/><path d="M45,78.32h9v5.2c1.65-3.9,4.4-5.6,8.46-5.55v8.36C57,86.18,54,87.88,54,92.08v12.41H45Z" fill="#14aa40"/><path d="M64.05,91.73v-.4c0-8.41,6.25-13.71,14.16-13.71,7.16,0,13.31,4.1,13.31,13.51v2.35H73.1c.26,3.46,2.26,5.46,5.46,5.46,3,0,4.2-1.35,4.55-3.1h8.41c-.8,5.9-5.35,9.25-13.26,9.25C70.05,105.09,64.05,100.29,64.05,91.73Zm18.76-3.3c-.15-3.15-1.7-4.91-4.6-4.91-2.7,0-4.55,1.76-5,4.91Z" fill="#14aa40"/><path d="M93.22,91.73v-.4c0-8.41,6.26-13.71,14.17-13.71,7.15,0,13.31,4.1,13.31,13.51v2.35H102.28c.25,3.46,2.25,5.46,5.46,5.46,3,0,4.2-1.35,4.55-3.1h8.41c-.8,5.9-5.36,9.25-13.26,9.25C99.23,105.09,93.22,100.29,93.22,91.73ZM112,88.43c-.15-3.15-1.7-4.91-4.6-4.91-2.71,0-4.56,1.76-5,4.91Z" fill="#14aa40"/><path d="M133.71,68.71h24.72v7.91H143.92v6.15h11.56v7.31H143.92v6.51h15.32v7.9H133.71Z" fill="#14aa40"/><path d="M163.79,68.71h10.36v35.78H163.79Z" fill="#14aa40"/><path d="M187.31,76.62h-9.26V68.71h28.83v7.91h-9.26v27.87H187.31Z" fill="#14aa40"/><path d="M207.53,86.83v-.4c0-11,7.81-18.27,18.27-18.27,9.31,0,15.76,4.3,16.61,13.76H231.85c-.4-3.65-2.4-5.65-6-5.65-4.61,0-7.51,3.6-7.51,10.11v.4c0,6.45,2.75,10.11,7.66,10.11,3.6,0,6.15-1.91,6.65-5.86h10.21c-.7,9.26-7.4,14.06-16.66,14.06C213.69,105.09,207.53,97.79,207.53,86.83Z" fill="#14aa40"/><path d="M251.77,91.78c0-3.8,2.6-6.2,4.91-8.41,1.7-1.65,3.25-3.15,3.25-4.9,0-2-.95-3-3.05-3s-3.61,1.65-4,4.4h-8.71c.25-7.56,5.66-11.66,13.37-11.66s12.06,3.45,12.06,9.41c0,3.3-1.65,5.55-3.65,7.5-2.46,2.46-5.31,4.41-5.76,6.86v.75h-8.46Zm-1.15,8.31a5.37,5.37,0,0,1,10.71,0,5.37,5.37,0,0,1-10.71,0Z" fill="#14aa40"/><path d="M27.06,142.18,15.4,121.71H26.56l6.06,12.06,6.05-12.06h9.81L37.37,142.18v15.31H27.06Z" fill="#14aa40"/><path d="M44.73,144.73v-.4c0-8.41,6.25-13.71,14.16-13.71,7.16,0,13.31,4.1,13.31,13.51v2.35H53.79c.25,3.46,2.25,5.46,5.45,5.46,2.95,0,4.21-1.35,4.56-3.1h8.4c-.8,5.9-5.35,9.25-13.26,9.25C50.73,158.09,44.73,153.29,44.73,144.73Zm18.77-3.3c-.15-3.15-1.71-4.91-4.61-4.91-2.7,0-4.55,1.76-5,4.91Z" fill="#14aa40"/><path d="M75.31,131.32h9v3.9a9.26,9.26,0,0,1,8.16-4.6c6.11,0,11.06,4.6,11.06,13.56v.4c0,9-5,13.51-11.11,13.51-4,0-6.8-1.85-8.11-4.45v12.61h-9Zm19.06,13.26v-.4c0-4.6-2-6.81-5.15-6.81S84,139.73,84,144.13v.4c0,4.46,2,6.71,5.21,6.71S94.37,148.89,94.37,144.58Z" fill="#14aa40"/><path d="M104.23,161.55l4.21-13.16,8.31,3-7.21,12.26Z" fill="#14aa40"/><path d="M131.11,137.42h-3.3v-6.1h3.3V129c0-6.51,4-9.61,10.26-9.61a16,16,0,0,1,4.1.55v6.55a8.22,8.22,0,0,0-2.45-.35c-2.1,0-3,1.15-3,2.86v2.3h5.3v6.1H140v20.07h-8.91Z" fill="#14aa40"/><path d="M148.32,131.32h9v5.2c1.65-3.9,4.41-5.6,8.46-5.55v8.36c-5.45-.15-8.46,1.55-8.46,5.75v12.41h-9Z" fill="#14aa40"/><path d="M167.34,144.73v-.4c0-8.41,6.26-13.71,14.17-13.71,7.15,0,13.31,4.1,13.31,13.51v2.35H176.4c.25,3.46,2.25,5.46,5.46,5.46,2.95,0,4.2-1.35,4.55-3.1h8.41c-.8,5.9-5.36,9.25-13.26,9.25C173.35,158.09,167.34,153.29,167.34,144.73Zm18.77-3.3c-.15-3.15-1.7-4.91-4.6-4.91-2.71,0-4.56,1.76-5,4.91Z" fill="#14aa40"/><path d="M196.52,144.73v-.4c0-8.41,6.26-13.71,14.16-13.71,7.16,0,13.32,4.1,13.32,13.51v2.35H205.58c.25,3.46,2.25,5.46,5.45,5.46,3,0,4.21-1.35,4.56-3.1H224c-.8,5.9-5.36,9.25-13.27,9.25C202.52,158.09,196.52,153.29,196.52,144.73Zm18.77-3.3c-.15-3.15-1.7-4.91-4.61-4.91-2.7,0-4.55,1.76-5,4.91Z" fill="#14aa40"/><path d="M226.5,153a5,5,0,0,1,5.1-5.06,5.06,5.06,0,1,1,0,10.11A5,5,0,0,1,226.5,153Z" fill="#14aa40"/></g></g></svg>