<svg xmlns="http://www.w3.org/2000/svg" viewBox="0 0 300 250"><title>Asset 3</title><g id="Layer_2" data-name="Layer 2"><g id="rect"><rect width="300" height="250" fill="none"/></g><g id="Still_open._Still_maximizing_refunds." data-name="Still open. Still maximizing refunds."><path d="M22.31,48.58h7.28c.19,1.9,1.05,3.47,4.22,3.47,2.21,0,3.44-1.08,3.44-2.65s-1-2.09-4.22-2.58C25.49,45.93,23,43.69,23,38.31c0-4.82,4-8.33,10.34-8.33s10,2.69,10.53,8.33H36.73c-.27-1.9-1.35-2.87-3.44-2.87s-3.1.93-3.1,2.27c0,1.5.82,2.17,4.15,2.62,6.75.74,10.23,2.5,10.23,8.29,0,4.89-3.89,8.88-10.76,8.88C26.35,57.5,22.54,54.37,22.31,48.58Z" fill="#fff"/><path d="M47.92,50.78v-8.7H45.57V37.53h2.35V33.46h6.69v4.07h3.84v4.55H54.61v8.07a1.78,1.78,0,0,0,2,2.05,5,5,0,0,0,1.9-.34v5.08a13.8,13.8,0,0,1-3.7.56C50.39,57.5,47.92,55.37,47.92,50.78Z" fill="#fff"/><path d="M60.84,32.22a3.68,3.68,0,1,1,3.66,3.44A3.49,3.49,0,0,1,60.84,32.22Zm.34,5.31h6.68V57.05H61.18Z" fill="#fff"/><path d="M71.63,28.94h6.64V57.05H71.63Z" fill="#fff"/><path d="M82,28.94h6.65V57.05H82Z" fill="#fff"/><path d="M98,47.53v-.3C98,41,102.69,37,108.74,37s10.64,3.85,10.64,10v.3c0,6.34-4.67,10.15-10.68,10.15S98,53.84,98,47.53Zm14.56-.11v-.3c0-3.28-1.3-5.11-3.84-5.11s-3.89,1.75-3.89,5v.3c0,3.36,1.31,5.19,3.89,5.19S112.58,50.67,112.58,47.42Z" fill="#fff"/><path d="M121.73,37.53h6.68v2.91A6.9,6.9,0,0,1,134.5,37c4.55,0,8.25,3.44,8.25,10.12v.3c0,6.72-3.7,10.08-8.29,10.08a6.44,6.44,0,0,1-6.05-3.32v9.41h-6.68ZM136,47.42v-.3c0-3.43-1.49-5.08-3.84-5.08s-3.89,1.76-3.89,5.05v.29c0,3.33,1.46,5,3.89,5S136,50.63,136,47.42Z" fill="#fff"/><path d="M144.13,47.53v-.3C144.13,41,148.79,37,154.69,37c5.34,0,9.93,3.07,9.93,10.09v1.75H150.88c.19,2.58,1.68,4.07,4.07,4.07,2.21,0,3.14-1,3.4-2.31h6.27c-.59,4.4-4,6.9-9.89,6.9C148.61,57.5,144.13,53.92,144.13,47.53Zm14-2.46c-.12-2.35-1.27-3.66-3.44-3.66-2,0-3.4,1.31-3.73,3.66Z" fill="#fff"/><path d="M166.93,37.53h6.69v3.13A6.89,6.89,0,0,1,180,37c3.77,0,6.39,2.36,6.39,7.36V57.05h-6.69V45.7c0-2.2-.86-3.28-2.8-3.28s-3.32,1.19-3.32,3.69V57.05h-6.69Z" fill="#fff"/><path d="M189.41,53.69a3.72,3.72,0,0,1,3.81-3.77,3.78,3.78,0,1,1,0,7.55A3.72,3.72,0,0,1,189.41,53.69Z" fill="#fff"/><path d="M206,48.58h7.28c.18,1.9,1,3.47,4.22,3.47,2.2,0,3.43-1.08,3.43-2.65s-1-2.09-4.22-2.58c-7.54-.89-10.08-3.13-10.08-8.51,0-4.82,4-8.33,10.34-8.33s10.05,2.69,10.53,8.33h-7.09c-.26-1.9-1.35-2.87-3.44-2.87s-3.09.93-3.09,2.27c0,1.5.82,2.17,4.14,2.62,6.76.74,10.23,2.5,10.23,8.29,0,4.89-3.88,8.88-10.75,8.88C210,57.5,206.17,54.37,206,48.58Z" fill="#fff"/><path d="M231.56,50.78v-8.7H229.2V37.53h2.36V33.46h6.68v4.07h3.85v4.55h-3.85v8.07a1.78,1.78,0,0,0,2,2.05,4.92,4.92,0,0,0,1.9-.34v5.08a13.72,13.72,0,0,1-3.69.56C234,57.5,231.56,55.37,231.56,50.78Z" fill="#fff"/><path d="M244.47,32.22a3.69,3.69,0,1,1,3.66,3.44A3.49,3.49,0,0,1,244.47,32.22Zm.34,5.31h6.68V57.05h-6.68Z" fill="#fff"/><path d="M255.26,28.94h6.65V57.05h-6.65Z" fill="#fff"/><path d="M265.68,28.94h6.64V57.05h-6.64Z" fill="#fff"/><path d="M23.43,80.17h6.69v3a6.81,6.81,0,0,1,6.12-3.51,5.31,5.31,0,0,1,5.3,3.24A7.76,7.76,0,0,1,48,79.65c3.7,0,6.39,2.39,6.39,7.28V99.7H47.7V88.05c0-2-1-3-2.5-3-1.79,0-3,1.15-3,3.28V99.7h-6.6V88.05c0-2-1-3-2.51-3-1.79,0-3,1.15-3,3.28V99.7H23.43Z" fill="#fff"/><path d="M56.51,94.28c0-4.59,3.88-6.38,10.38-6.38h1.87v-.45c0-1.87-.45-3.1-2.58-3.1a2.4,2.4,0,0,0-2.65,2.32H57.26c.3-4.71,4-7,9.33-7S75.4,81.85,75.4,87V99.7H68.91V97.42c-.94,1.42-2.66,2.73-5.79,2.73C59.61,100.15,56.51,98.43,56.51,94.28Zm12.25-1.42V91.67H67c-2.69,0-3.88.52-3.88,2.13,0,1.12.75,1.83,2.31,1.83C67.34,95.63,68.76,94.54,68.76,92.86Z" fill="#fff"/><path d="M83.58,89.76l-6.09-9.59h7.69l3,5.15,3-5.15H98l-6.16,9.07L98.62,99.7H90.93l-3.47-5.83L83.91,99.7H77.08Z" fill="#fff"/><path d="M100.34,74.87A3.68,3.68,0,1,1,104,78.3,3.46,3.46,0,0,1,100.34,74.87Zm.33,5.3h6.69V99.7h-6.69Z" fill="#fff"/><path d="M110.94,80.17h6.68v3a6.83,6.83,0,0,1,6.13-3.51,5.33,5.33,0,0,1,5.3,3.24,7.75,7.75,0,0,1,6.46-3.24c3.69,0,6.38,2.39,6.38,7.28V99.7h-6.68V88.05c0-2-1-3-2.5-3-1.79,0-3,1.15-3,3.28V99.7h-6.61V88.05c0-2-1-3-2.5-3-1.79,0-3,1.15-3,3.28V99.7h-6.68Z" fill="#fff"/><path d="M145,74.87a3.68,3.68,0,1,1,3.66,3.43A3.45,3.45,0,0,1,145,74.87Zm.33,5.3H152V99.7h-6.69Z" fill="#fff"/><path d="M154,99l8.55-13.81h-7.65v-5h17.21v.71l-8.77,13.78h8.32v5H154Z" fill="#fff"/><path d="M173.84,74.87a3.69,3.69,0,1,1,3.66,3.43A3.46,3.46,0,0,1,173.84,74.87Zm.34,5.3h6.68V99.7h-6.68Z" fill="#fff"/><path d="M184.45,80.17h6.68v3.14a6.89,6.89,0,0,1,6.42-3.66c3.77,0,6.39,2.35,6.39,7.35V99.7h-6.69V88.35c0-2.21-.86-3.29-2.8-3.29s-3.32,1.19-3.32,3.7V99.7h-6.68Z" fill="#fff"/><path d="M206.1,99.7h6.64c.3,1.42,1.16,2.54,3.59,2.54,2.95,0,4.14-1.68,4.14-4.11v-3a6.83,6.83,0,0,1-6.05,3.59c-4.55,0-8.28-3.36-8.28-9.38v-.29c0-5.75,3.69-9.41,8.28-9.41a6.35,6.35,0,0,1,6.05,3.28V80.17h6.69V98.05c0,5.83-3.85,8.89-10.83,8.89C209.68,106.94,206.62,104.14,206.1,99.7Zm14.56-10.38v-.26c0-2.69-1.38-4.41-3.85-4.41S213,86.4,213,89.09v.3c0,2.69,1.42,4.41,3.81,4.41S220.66,92.08,220.66,89.32Z" fill="#fff"/><path d="M23.43,122.81h6.69v3.88a6.14,6.14,0,0,1,6.31-4.14v6.24c-4.07-.12-6.31,1.15-6.31,4.29v9.26H23.43Z" fill="#fff"/><path d="M37.62,132.82v-.3c0-6.27,4.67-10.23,10.57-10.23,5.34,0,9.93,3.06,9.93,10.08v1.75H44.38c.18,2.58,1.68,4.07,4.07,4.07,2.2,0,3.13-1,3.4-2.31h6.27c-.6,4.41-4,6.91-9.9,6.91C42.1,142.79,37.62,139.2,37.62,132.82Zm14-2.47c-.11-2.35-1.27-3.66-3.43-3.66s-3.4,1.31-3.74,3.66Z" fill="#fff"/><path d="M61.44,127.37H59v-4.56h2.47v-1.72c0-4.85,3-7.17,7.65-7.17a12.05,12.05,0,0,1,3.06.41v4.9a6.08,6.08,0,0,0-1.83-.26,2,2,0,0,0-2.24,2.12v1.72h4v4.56h-4v15H61.44Z" fill="#fff"/><path d="M74.13,135.54V122.81h6.68v11.65c0,2.2.86,3.29,2.77,3.29s3.32-1.2,3.32-3.7V122.81h6.68v19.53H86.9v-3c-1.05,2-3,3.48-6.2,3.48C76.93,142.79,74.13,140.47,74.13,135.54Z" fill="#fff"/><path d="M97,122.81h6.68V126a6.89,6.89,0,0,1,6.42-3.66c3.77,0,6.39,2.35,6.39,7.35v12.7h-6.69V131c0-2.2-.85-3.29-2.8-3.29s-3.32,1.2-3.32,3.7v10.94H97Z" fill="#fff"/><path d="M118.74,132.78v-.3c0-6.65,3.66-10.19,8.29-10.19a6.34,6.34,0,0,1,6,3.28V114.22h6.69v28.12H133v-3.17a6.58,6.58,0,0,1-6.08,3.62C122.44,142.79,118.74,139.54,118.74,132.78Zm14.49-.11v-.3c0-3.29-1.38-5-3.85-5s-3.84,1.68-3.84,5.08v.3c0,3.28,1.45,5,3.77,5S133.23,136,133.23,132.67Z" fill="#fff"/><path d="M141.81,136.14H148c.23,1.42.86,2.2,2.77,2.2,1.64,0,2.39-.63,2.39-1.6s-.94-1.38-3.63-1.76c-5.22-.67-7.43-2.2-7.43-6.27,0-4.33,3.85-6.42,8.37-6.42,4.81,0,8.17,1.64,8.62,6.31H153a2.18,2.18,0,0,0-2.5-1.94c-1.45,0-2.2.63-2.2,1.53s.9,1.3,3.28,1.6c5.42.67,8,2.09,8,6.28,0,4.63-3.43,6.72-8.85,6.72S142,140.47,141.81,136.14Z" fill="#fff"/><path d="M161.52,139a3.73,3.73,0,0,1,3.81-3.77,3.77,3.77,0,1,1,0,7.54A3.73,3.73,0,0,1,161.52,139Z" fill="#fff"/></g></g></svg>