<svg xmlns="http://www.w3.org/2000/svg" viewBox="0 0 119.66 31.81"><title>try_ddo</title><g id="Layer_2" data-name="Layer 2"><g id="Rectangle_1" data-name="Rectangle 1" style="isolation:isolate"><g id="Rectangle_1-2" data-name="Rectangle 1"><rect width="119.66" height="31.81" fill="none"/></g></g><g id="Try_Digital_Drop-Off" data-name="Try Digital Drop-Off"><path d="M8.26,13.54H6V12.05h6.49v1.49H10.19v7H8.26Z" transform="translate(0 0)" fill="#262626"/><path d="M12.93,14.31h1.71V15.5a2,2,0,0,1,2-1.28v1.59c-1.26,0-2,.41-2,1.59v3.09H12.93Z" transform="translate(0 0)" fill="#262626"/><path d="M19.53,19.87l-2.46-5.56h1.84L20.41,18l1.38-3.71h1.65l-3.35,8.28H18.44Z" transform="translate(0 0)" fill="#262626"/><path d="M26.77,12.05h2.77c3,0,4.42,1.6,4.42,4.13v.1c0,2.52-1.47,4.21-4.44,4.21H26.77Zm2.7,7c1.7,0,2.5-.95,2.5-2.7v-.1c0-1.73-.74-2.66-2.53-2.66h-.75V19Z" transform="translate(0 0)" fill="#262626"/><path d="M34.93,12.54a1,1,0,0,1,2,0,1,1,0,0,1-2,0Zm.13,1.77h1.7v6.18h-1.7Z" transform="translate(0 0)" fill="#262626"/><path d="M37.82,20.62h1.7c.11.54.5.9,1.37.9A1.37,1.37,0,0,0,42.45,20v-.94a2.29,2.29,0,0,1-2,1.15,2.7,2.7,0,0,1-2.69-2.95v-.09a2.79,2.79,0,0,1,2.71-3,2.06,2.06,0,0,1,2,1.07v-.93h1.7V20c0,1.83-1.23,2.76-3.26,2.76S38,21.9,37.82,20.62Zm4.68-3.38v-.08c0-1.05-.56-1.69-1.49-1.69s-1.49.69-1.49,1.7v.1A1.48,1.48,0,0,0,41,18.93,1.52,1.52,0,0,0,42.5,17.24Z" transform="translate(0 0)" fill="#262626"/><path d="M45.4,12.54a1,1,0,0,1,2,0,1,1,0,0,1-2,0Zm.13,1.77h1.7v6.18h-1.7Z" transform="translate(0 0)" fill="#262626"/><path d="M48.88,18.66V15.53h-.79V14.31h.79V13h1.7v1.33h1.3v1.22h-1.3v3a.63.63,0,0,0,.69.73,1.64,1.64,0,0,0,.65-.12v1.32a2.94,2.94,0,0,1-1,.17A1.76,1.76,0,0,1,48.88,18.66Z" transform="translate(0 0)" fill="#262626"/><path d="M52.53,18.78c0-1.44,1.32-2,3.21-2h.7v-.24c0-.74-.22-1.14-1-1.14a.93.93,0,0,0-1,.88H52.77c.1-1.47,1.26-2.12,2.77-2.12s2.59.62,2.59,2.29v4H56.46v-.74a2.09,2.09,0,0,1-1.86.87C53.48,20.62,52.53,20.08,52.53,18.78Zm3.91-.45v-.52h-.66c-1,0-1.57.21-1.57.87,0,.45.27.75.9.75S56.44,19,56.44,18.33Z" transform="translate(0 0)" fill="#262626"/><path d="M59.46,11.52h1.7v9h-1.7Z" transform="translate(0 0)" fill="#262626"/><path d="M65.14,12.05H67.9c3,0,4.43,1.6,4.43,4.13v.1c0,2.52-1.47,4.21-4.44,4.21H65.14Zm2.69,7c1.7,0,2.5-.95,2.5-2.7v-.1c0-1.73-.74-2.66-2.52-2.66h-.76V19Z" transform="translate(0 0)" fill="#262626"/><path d="M73.38,14.31h1.71V15.5a2,2,0,0,1,2-1.28v1.59c-1.27,0-2,.41-2,1.59v3.09H73.38Z" transform="translate(0 0)" fill="#262626"/><path d="M77.55,17.47v-.1a3.1,3.1,0,0,1,3.26-3.2,3.06,3.06,0,0,1,3.24,3.17v.09a3.25,3.25,0,0,1-6.5,0Zm4.77,0v-.08c0-1.18-.56-1.89-1.51-1.89s-1.52.69-1.52,1.87v.09c0,1.18.55,1.89,1.52,1.89S82.32,18.61,82.32,17.44Z" transform="translate(0 0)" fill="#262626"/><path d="M85,14.31h1.71v1a2.29,2.29,0,0,1,2-1.11c1.51,0,2.7,1.12,2.7,3.17v.09c0,2.05-1.16,3.19-2.7,3.19a2.16,2.16,0,0,1-2-1.07v3H85Zm4.64,3.13v-.09c0-1.25-.61-1.87-1.48-1.87s-1.51.63-1.51,1.87v.09c0,1.24.59,1.85,1.53,1.85S89.66,18.65,89.66,17.44Z" transform="translate(0 0)" fill="#262626"/><path d="M92.24,16.49h3v1.36h-3Z" transform="translate(0 0)" fill="#262626"/><path d="M96.2,16.32v-.09a4.17,4.17,0,0,1,4.34-4.3,4.11,4.11,0,0,1,4.35,4.25v.1a4.35,4.35,0,0,1-8.69,0Zm6.69,0v-.1c0-1.64-.87-2.76-2.35-2.76s-2.35,1.08-2.35,2.78v.09c0,1.73,1,2.79,2.38,2.79S102.89,18,102.89,16.3Z" transform="translate(0 0)" fill="#262626"/><path d="M106.3,15.53h-.81V14.31h.81v-.63a2,2,0,0,1,2.2-2.16,2.49,2.49,0,0,1,.87.13v1.27a2,2,0,0,0-.61-.09.71.71,0,0,0-.76.81v.67h2v-.7a2,2,0,0,1,2.21-2.17,2.9,2.9,0,0,1,.89.12v1.29a1.87,1.87,0,0,0-.63-.11.72.72,0,0,0-.77.82v.75h1.35v1.22h-1.35v5H110v-5h-2v5h-1.7Z" transform="translate(0 0)" fill="#262626"/></g></g></svg>