<svg xmlns="http://www.w3.org/2000/svg" viewBox="0 0 160 600"><title>134</title><g id="Layer_2" data-name="Layer 2"><g id="Rect"><rect width="160" height="600" fill="none"/></g><g id="_H_R_Block_Free_Online_supports_more_forms_and_deductions_" data-name="&quot;H&amp;R Block Free [Online] supports more  forms and  deductions…"><path d="M18.74,144.19h3l-.38,5H19.1Zm3.82,0h3l-.38,5H22.93Z" fill="#fff"/><path d="M27.56,144.19h3.71v4.92H35.5v-4.92h3.69v12.88H35.5V152H31.27v5.08H27.56Z" fill="#fff"/><path d="M51.81,154.44,54,157.07h-4.2l-.75-.94a5.12,5.12,0,0,1-3.48,1.15c-2.73,0-4.52-1.44-4.52-3.88,0-1.66,1-2.89,2.83-3.75A4.08,4.08,0,0,1,43,147.4c0-2.2,1.87-3.37,4.14-3.37,2,0,3.91,1,3.91,3,0,1.4-.83,2.43-2.58,3.19l1.62,2,.94-1.84h2.81Zm-4.47-.38-2-2.45a1.53,1.53,0,0,0-.87,1.39,1.49,1.49,0,0,0,1.64,1.6A1.68,1.68,0,0,0,47.34,154.06ZM47,148.88c.86-.42,1.27-.9,1.27-1.57a.92.92,0,0,0-.95-1,1,1,0,0,0-1.06,1.12A2.41,2.41,0,0,0,47,148.88Z" fill="#fff"/><path d="M55.39,144.19h5c3.36,0,5.24,1.37,5.24,4.09v.07a3.37,3.37,0,0,1-2.33,3.39l3.08,5.33H62.53l-2.61-4.61h-.86v4.61H55.39Zm4.86,5.87c1.24,0,1.85-.52,1.85-1.56v-.07c0-1.05-.65-1.46-1.83-1.46H59.06v3.09Z" fill="#fff"/><path d="M71.48,144.19h5.74c3,0,4.34,1.37,4.34,3.37v.07a2.66,2.66,0,0,1-2.18,2.78,2.79,2.79,0,0,1,2.58,3v.07c0,2.31-1.5,3.59-4.68,3.59h-5.8Zm5,5.12c1.16,0,1.59-.4,1.59-1.32v-.07c0-.88-.47-1.28-1.59-1.28h-1.4v2.67Zm.13,5.29c1.17,0,1.71-.54,1.71-1.49V153c0-1-.52-1.47-1.82-1.47H75.08v3Z" fill="#fff"/><path d="M83.5,143.51h3.21v13.56H83.5Z" fill="#fff"/><path d="M88.2,152.48v-.15a4.84,4.84,0,0,1,5.17-4.93c2.9,0,5.13,1.85,5.13,4.84v.15c0,3.06-2.25,4.89-5.15,4.89S88.2,155.52,88.2,152.48Zm7-.06v-.14c0-1.59-.63-2.47-1.85-2.47s-1.88.85-1.88,2.43v.15c0,1.62.63,2.5,1.88,2.5S95.22,154,95.22,152.42Z" fill="#fff"/><path d="M99.39,152.48v-.15a4.74,4.74,0,0,1,5-4.93c2.3,0,4.43,1,4.61,3.87h-3a1.39,1.39,0,0,0-1.51-1.37c-1.13,0-1.8.81-1.8,2.4v.14c0,1.64.63,2.49,1.85,2.49a1.57,1.57,0,0,0,1.64-1.57h2.9c-.09,2.38-1.69,3.92-4.73,3.92C101.54,157.28,99.39,155.65,99.39,152.48Z" fill="#fff"/><path d="M110.39,143.51h3.23v7.87l2.53-3.73h3.35l-3.08,4.23,3.34,5.19h-3.61l-2.53-4.13v4.13h-3.23Z" fill="#fff"/><path d="M19.24,165.19h8.7v2.87H23v2.73h4v2.72H23v4.56H19.24Z" fill="#fff"/><path d="M29.07,168.65h3.22v1.87a3,3,0,0,1,3.05-2v3c-2-.05-3.05.56-3.05,2.07v4.47H29.07Z" fill="#fff"/><path d="M36.18,173.48v-.15a4.82,4.82,0,0,1,5.1-4.93,4.46,4.46,0,0,1,4.78,4.86v.85H39.44a1.88,1.88,0,0,0,2,2c1.06,0,1.51-.49,1.64-1.12h3c-.28,2.13-1.92,3.33-4.77,3.33S36.18,176.56,36.18,173.48Zm6.75-1.19c0-1.14-.61-1.77-1.65-1.77a1.79,1.79,0,0,0-1.8,1.77Z" fill="#fff"/><path d="M46.94,173.48v-.15A4.82,4.82,0,0,1,52,168.4a4.47,4.47,0,0,1,4.79,4.86v.85H50.2a1.88,1.88,0,0,0,2,2c1.06,0,1.51-.49,1.63-1.12h3c-.29,2.13-1.93,3.33-4.77,3.33S46.94,176.56,46.94,173.48Zm6.76-1.19c-.06-1.14-.62-1.77-1.66-1.77a1.79,1.79,0,0,0-1.8,1.77Z" fill="#fff"/><path d="M62,164.1h5.49v2.35H65.23v11.92h2.25v2.36H62Z" fill="#fff"/><path d="M68.72,171.71v-.14A6.45,6.45,0,0,1,75.53,165c3.93,0,6.82,2.47,6.82,6.47v.14c0,4-2.72,6.66-6.87,6.66S68.72,175.58,68.72,171.71Zm9.78,0v-.15c0-2.28-1.15-3.63-3-3.63s-3,1.31-3,3.65v.14c0,2.34,1.19,3.7,3,3.7S78.5,174,78.5,171.68Z" fill="#fff"/><path d="M83.86,168.65h3.22v1.51a3.34,3.34,0,0,1,3.1-1.76c1.82,0,3.08,1.13,3.08,3.55v6.12H90v-5.48c0-1.06-.42-1.58-1.35-1.58s-1.61.58-1.61,1.78v5.28H83.86Z" fill="#fff"/><path d="M95.18,164.51h3.21v13.56H95.18Z" fill="#fff"/><path d="M100.31,166.09a1.78,1.78,0,1,1,1.77,1.66A1.69,1.69,0,0,1,100.31,166.09Zm.17,2.56h3.22v9.42h-3.22Z" fill="#fff"/><path d="M105.7,168.65h3.22v1.51A3.32,3.32,0,0,1,112,168.4c1.82,0,3.08,1.13,3.08,3.55v6.12h-3.22v-5.48c0-1.06-.41-1.58-1.35-1.58s-1.6.58-1.6,1.78v5.28H105.7Z" fill="#fff"/><path d="M116.42,173.48v-.15a4.82,4.82,0,0,1,5.1-4.93,4.47,4.47,0,0,1,4.79,4.86v.85h-6.63a1.88,1.88,0,0,0,2,2c1.07,0,1.52-.49,1.64-1.12h3c-.29,2.13-1.93,3.33-4.77,3.33S116.42,176.56,116.42,173.48Zm6.75-1.19c0-1.14-.61-1.77-1.65-1.77a1.79,1.79,0,0,0-1.8,1.77Z" fill="#fff"/><path d="M127.26,178.37h2.23V166.45h-2.23V164.1h5.47v16.63h-5.47Z" fill="#fff"/><path d="M18.32,196.08h3c.11.68.42,1.06,1.34,1.06s1.15-.3,1.15-.77-.45-.67-1.75-.85c-2.52-.32-3.58-1.06-3.58-3s1.85-3.1,4-3.1,3.95.79,4.16,3H23.73a1.05,1.05,0,0,0-1.21-.93c-.7,0-1.06.3-1.06.73s.43.63,1.58.78c2.61.32,3.87,1,3.87,3,0,2.24-1.65,3.24-4.26,3.24S18.4,198.17,18.32,196.08Z" fill="#fff"/><path d="M28.15,195.79v-6.14h3.23v5.62c0,1.06.41,1.58,1.33,1.58s1.6-.57,1.6-1.78v-5.42h3.22v9.42H34.31v-1.46a3.09,3.09,0,0,1-3,1.67C29.5,199.28,28.15,198.17,28.15,195.79Z" fill="#fff"/><path d="M39.44,189.65h3.22v1.41a3.33,3.33,0,0,1,2.94-1.66c2.19,0,4,1.66,4,4.88v.14c0,3.24-1.79,4.86-4,4.86a3.11,3.11,0,0,1-2.92-1.6v4.54H39.44Zm6.86,4.77v-.14c0-1.66-.72-2.45-1.86-2.45s-1.87.85-1.87,2.43v.14c0,1.61.7,2.42,1.87,2.42S46.3,196,46.3,194.42Z" fill="#fff"/><path d="M51,189.65h3.22v1.41a3.34,3.34,0,0,1,2.94-1.66c2.2,0,4,1.66,4,4.88v.14c0,3.24-1.78,4.86-4,4.86a3.11,3.11,0,0,1-2.92-1.6v4.54H51Zm6.86,4.77v-.14c0-1.66-.72-2.45-1.85-2.45s-1.88.85-1.88,2.43v.14c0,1.61.71,2.42,1.88,2.42S57.87,196,57.87,194.42Z" fill="#fff"/><path d="M62.08,194.48v-.15a4.84,4.84,0,0,1,5.17-4.93c2.9,0,5.13,1.85,5.13,4.84v.15c0,3.06-2.25,4.89-5.15,4.89S62.08,197.52,62.08,194.48Zm7-.06v-.14c0-1.59-.63-2.47-1.85-2.47s-1.87.85-1.87,2.43v.15c0,1.62.63,2.5,1.87,2.5S69.1,196,69.1,194.42Z" fill="#fff"/><path d="M73.78,189.65H77v1.87a3,3,0,0,1,3-2v3c-2-.05-3,.56-3,2.07v4.47H73.78Z" fill="#fff"/><path d="M82.06,196v-4.19H80.93v-2.2h1.13v-2h3.22v2h1.86v2.2H85.28v3.89a.87.87,0,0,0,1,1,2.65,2.65,0,0,0,.92-.16V199a6.76,6.76,0,0,1-1.79.27C83.25,199.28,82.06,198.26,82.06,196Z" fill="#fff"/><path d="M88.13,196.08h3c.11.68.41,1.06,1.33,1.06s1.15-.3,1.15-.77-.45-.67-1.74-.85c-2.52-.32-3.59-1.06-3.59-3s1.86-3.1,4-3.1,3.94.79,4.16,3H93.53a1.05,1.05,0,0,0-1.21-.93c-.7,0-1.06.3-1.06.73s.43.63,1.58.78c2.62.32,3.88,1,3.88,3,0,2.24-1.66,3.24-4.27,3.24S88.2,198.17,88.13,196.08Z" fill="#fff"/><path d="M19,210.65h3.23v1.44a3.28,3.28,0,0,1,2.95-1.69A2.57,2.57,0,0,1,27.69,212a3.72,3.72,0,0,1,3.11-1.57c1.78,0,3.08,1.15,3.08,3.51v6.16H30.66v-5.62c0-.95-.47-1.42-1.21-1.42A1.4,1.4,0,0,0,28,214.61v5.46H24.82v-5.62c0-.95-.46-1.42-1.2-1.42a1.39,1.39,0,0,0-1.44,1.58v5.46H19Z" fill="#fff"/><path d="M35.21,215.48v-.15a4.84,4.84,0,0,1,5.17-4.93c2.89,0,5.13,1.85,5.13,4.84v.15c0,3.06-2.25,4.89-5.15,4.89S35.21,218.52,35.21,215.48Zm7-.06v-.14c0-1.59-.63-2.47-1.85-2.47s-1.88.85-1.88,2.43v.15c0,1.62.63,2.5,1.88,2.5S42.23,217,42.23,215.42Z" fill="#fff"/><path d="M46.91,210.65h3.22v1.87a3,3,0,0,1,3-2v3c-2-.05-3,.56-3,2.07v4.47H46.91Z" fill="#fff"/><path d="M54,215.48v-.15a4.81,4.81,0,0,1,5.09-4.93,4.47,4.47,0,0,1,4.79,4.86v.85H57.28a1.88,1.88,0,0,0,2,2c1.06,0,1.51-.49,1.64-1.12h3c-.29,2.13-1.92,3.33-4.77,3.33S54,218.56,54,215.48Zm6.75-1.19c-.05-1.14-.61-1.77-1.66-1.77a1.8,1.8,0,0,0-1.8,1.77Z" fill="#fff"/><path d="M19.44,233.85H18.25v-2.2h1.19v-.83c0-2.34,1.46-3.45,3.69-3.45a6.13,6.13,0,0,1,1.48.19v2.36a3.06,3.06,0,0,0-.88-.12.94.94,0,0,0-1.08,1v.83h1.9v2.2h-1.9v7.22H19.44Z" fill="#fff"/><path d="M25.07,236.48v-.15a4.84,4.84,0,0,1,5.17-4.93c2.9,0,5.13,1.85,5.13,4.84v.15c0,3.06-2.25,4.89-5.15,4.89S25.07,239.52,25.07,236.48Zm7-.06v-.14c0-1.59-.63-2.47-1.86-2.47s-1.87.85-1.87,2.43v.15c0,1.62.63,2.5,1.87,2.5S32.1,238,32.1,236.42Z" fill="#fff"/><path d="M36.77,231.65H40v1.87a3,3,0,0,1,3-2v3c-2-.05-3,.56-3,2.07v4.47H36.77Z" fill="#fff"/><path d="M44.48,231.65H47.7v1.44a3.3,3.3,0,0,1,2.95-1.69A2.56,2.56,0,0,1,53.21,233a3.74,3.74,0,0,1,3.12-1.57c1.78,0,3.07,1.15,3.07,3.51v6.16H56.18v-5.62c0-.95-.47-1.42-1.2-1.42a1.4,1.4,0,0,0-1.45,1.58v5.46H50.35v-5.62c0-.95-.47-1.42-1.21-1.42a1.4,1.4,0,0,0-1.44,1.58v5.46H44.48Z" fill="#fff"/><path d="M60.61,238.08h3c.1.68.41,1.06,1.33,1.06s1.15-.3,1.15-.77-.45-.67-1.75-.85c-2.52-.32-3.58-1.06-3.58-3s1.86-3.1,4-3.1,3.94.79,4.15,3H66a1.05,1.05,0,0,0-1.21-.93c-.7,0-1.06.3-1.06.73s.43.63,1.58.78c2.61.32,3.87,1,3.87,3,0,2.24-1.65,3.24-4.26,3.24S60.68,240.17,60.61,238.08Z" fill="#fff"/><path d="M73.51,238.46c0-2.22,1.87-3.08,5-3.08h.9v-.22c0-.9-.22-1.49-1.25-1.49a1.15,1.15,0,0,0-1.27,1.11h-3c.15-2.26,1.93-3.38,4.5-3.38s4.25,1.06,4.25,3.56v6.11H79.49V240a3.1,3.1,0,0,1-2.79,1.31C75,241.28,73.51,240.46,73.51,238.46Zm5.91-.69v-.57h-.85c-1.3,0-1.87.25-1.87,1,0,.54.36.89,1.11.89A1.43,1.43,0,0,0,79.42,237.77Z" fill="#fff"/><path d="M84.46,231.65h3.22v1.51a3.32,3.32,0,0,1,3.1-1.76c1.81,0,3.07,1.13,3.07,3.55v6.12H90.63v-5.48c0-1.06-.41-1.58-1.35-1.58s-1.6.58-1.6,1.78v5.28H84.46Z" fill="#fff"/><path d="M95.22,236.46v-.15c0-3.2,1.76-4.91,4-4.91a3.07,3.07,0,0,1,2.9,1.58v-5.47h3.22v13.56h-3.22v-1.53a3.19,3.19,0,0,1-2.94,1.74C97,241.28,95.22,239.72,95.22,236.46Zm7-.06v-.14c0-1.58-.67-2.43-1.86-2.43s-1.85.81-1.85,2.45v.14c0,1.59.7,2.4,1.81,2.4S102.21,238,102.21,236.4Z" fill="#fff"/><path d="M18.49,257.46v-.15c0-3.2,1.76-4.91,4-4.91a3.06,3.06,0,0,1,2.9,1.58v-5.47H28.6v13.56H25.38v-1.53a3.17,3.17,0,0,1-2.93,1.74C20.27,262.28,18.49,260.72,18.49,257.46Zm7-.06v-.14c0-1.58-.66-2.43-1.85-2.43s-1.86.81-1.86,2.45v.14c0,1.59.71,2.4,1.82,2.4S25.47,259,25.47,257.4Z" fill="#fff"/><path d="M30,257.48v-.15a4.81,4.81,0,0,1,5.09-4.93,4.47,4.47,0,0,1,4.79,4.86v.85H33.27a1.87,1.87,0,0,0,2,2c1.06,0,1.51-.49,1.64-1.12h3c-.29,2.13-1.93,3.33-4.77,3.33S30,260.56,30,257.48Zm6.75-1.19c-.06-1.14-.61-1.77-1.66-1.77a1.79,1.79,0,0,0-1.8,1.77Z" fill="#fff"/><path d="M40.81,257.46v-.15c0-3.2,1.76-4.91,4-4.91A3.06,3.06,0,0,1,47.7,254v-5.47h3.22v13.56H47.7v-1.53a3.17,3.17,0,0,1-2.93,1.74C42.59,262.28,40.81,260.72,40.81,257.46Zm7-.06v-.14c0-1.58-.66-2.43-1.85-2.43s-1.86.81-1.86,2.45v.14c0,1.59.71,2.4,1.82,2.4S47.79,259,47.79,257.4Z" fill="#fff"/><path d="M52.76,258.79v-6.14H56v5.62c0,1.06.42,1.58,1.33,1.58s1.61-.57,1.61-1.78v-5.42h3.22v9.42H58.92v-1.46a3.11,3.11,0,0,1-3,1.67C54.11,262.28,52.76,261.17,52.76,258.79Z" fill="#fff"/><path d="M63.54,257.48v-.15a4.73,4.73,0,0,1,5-4.93c2.31,0,4.43,1,4.61,3.87h-3a1.4,1.4,0,0,0-1.51-1.37c-1.14,0-1.81.81-1.81,2.4v.14c0,1.64.63,2.49,1.86,2.49a1.57,1.57,0,0,0,1.64-1.57h2.9c-.09,2.38-1.7,3.92-4.74,3.92C65.68,262.28,63.54,260.65,63.54,257.48Z" fill="#fff"/><path d="M75,259v-4.19H73.84v-2.2H75v-2h3.22v2h1.86v2.2H78.19v3.89a.86.86,0,0,0,1,1,2.65,2.65,0,0,0,.92-.16V262a6.76,6.76,0,0,1-1.79.27C76.16,262.28,75,261.26,75,259Z" fill="#fff"/><path d="M81.47,250.09a1.68,1.68,0,0,1,1.76-1.67,1.67,1.67,0,1,1,0,3.33A1.66,1.66,0,0,1,81.47,250.09Zm.16,2.56h3.22v9.42H81.63Z" fill="#fff"/><path d="M86.35,257.48v-.15a4.83,4.83,0,0,1,5.16-4.93c2.9,0,5.13,1.85,5.13,4.84v.15c0,3.06-2.25,4.89-5.14,4.89S86.35,260.52,86.35,257.48Zm7-.06v-.14c0-1.59-.63-2.47-1.86-2.47s-1.87.85-1.87,2.43v.15c0,1.62.63,2.5,1.87,2.5S93.37,259,93.37,257.42Z" fill="#fff"/><path d="M98,252.65h3.23v1.51a3.32,3.32,0,0,1,3.1-1.76c1.81,0,3.07,1.13,3.07,3.55v6.12h-3.22v-5.48c0-1.06-.41-1.58-1.35-1.58s-1.6.58-1.6,1.78v5.28H98Z" fill="#fff"/><path d="M108.65,259.08h3c.11.68.41,1.06,1.33,1.06s1.15-.3,1.15-.77-.45-.67-1.74-.85c-2.52-.32-3.59-1.06-3.59-3s1.86-3.1,4-3.1,3.94.79,4.16,3h-2.92a1.05,1.05,0,0,0-1.21-.93c-.7,0-1.06.3-1.06.73s.43.63,1.58.78c2.62.32,3.88,1,3.88,3,0,2.24-1.66,3.24-4.27,3.24S108.72,261.17,108.65,259.08Z" fill="#fff"/><path d="M118.42,260.45a1.8,1.8,0,0,1,1.84-1.82,1.82,1.82,0,1,1,0,3.64A1.8,1.8,0,0,1,118.42,260.45Zm5.35,0a1.79,1.79,0,0,1,1.84-1.82,1.82,1.82,0,1,1,0,3.64A1.79,1.79,0,0,1,123.77,260.45Zm5.35,0a1.79,1.79,0,0,1,1.83-1.82,1.82,1.82,0,1,1,0,3.64A1.79,1.79,0,0,1,129.12,260.45Z" fill="#fff"/><path d="M18.41,280.46c0-2.22,1.88-3.08,5-3.08h.9v-.22c0-.9-.22-1.49-1.24-1.49a1.16,1.16,0,0,0-1.28,1.11h-3c.15-2.26,1.93-3.38,4.51-3.38s4.24,1.06,4.24,3.56v6.11H24.39V282a3.1,3.1,0,0,1-2.79,1.31C19.91,283.28,18.41,282.46,18.41,280.46Zm5.91-.69v-.57h-.85c-1.29,0-1.87.25-1.87,1,0,.54.36.89,1.12.89A1.42,1.42,0,0,0,24.32,279.77Z" fill="#fff"/><path d="M29.74,280v-4.19H28.6v-2.2h1.14v-2H33v2h1.85v2.2H33v3.89c0,.68.34,1,.95,1a2.65,2.65,0,0,0,.92-.16V283a6.61,6.61,0,0,1-1.78.27C30.92,283.28,29.74,282.26,29.74,280Z" fill="#fff"/><path d="M39.85,273.65h3.22v1.51a3.34,3.34,0,0,1,3.1-1.76c1.82,0,3.08,1.13,3.08,3.55v6.12H46v-5.48c0-1.06-.42-1.58-1.35-1.58s-1.61.58-1.61,1.78v5.28H39.85Z" fill="#fff"/><path d="M50.58,278.48v-.15a4.84,4.84,0,0,1,5.17-4.93c2.9,0,5.13,1.85,5.13,4.84v.15c0,3.06-2.25,4.89-5.15,4.89S50.58,281.52,50.58,278.48Zm7-.06v-.14c0-1.59-.63-2.47-1.85-2.47s-1.88.85-1.88,2.43v.15c0,1.62.63,2.5,1.88,2.5S57.6,280,57.6,278.42Z" fill="#fff"/><path d="M65.32,278.48v-.15a4.82,4.82,0,0,1,5.1-4.93,4.47,4.47,0,0,1,4.79,4.86v.85H68.58a1.88,1.88,0,0,0,2,2c1.07,0,1.52-.49,1.64-1.12h3c-.29,2.13-1.93,3.33-4.77,3.33S65.32,281.56,65.32,278.48Zm6.75-1.19c0-1.14-.61-1.77-1.65-1.77a1.79,1.79,0,0,0-1.8,1.77Z" fill="#fff"/><path d="M78.46,278.28l-2.93-4.63h3.71l1.45,2.49,1.43-2.49h3.31l-3,4.38,3.26,5H82l-1.68-2.81-1.71,2.81H75.33Z" fill="#fff"/><path d="M87.19,280v-4.19H86.06v-2.2h1.13v-2h3.22v2h1.86v2.2H90.41v3.89a.87.87,0,0,0,1,1,2.65,2.65,0,0,0,.92-.16V283a6.76,6.76,0,0,1-1.79.27C88.38,283.28,87.19,282.26,87.19,280Z" fill="#fff"/><path d="M93.76,273.65H97v1.87a3,3,0,0,1,3-2v3c-2,0-3,.56-3,2.07v4.47H93.76Z" fill="#fff"/><path d="M100.71,280.46c0-2.22,1.87-3.08,5-3.08h.91v-.22c0-.9-.22-1.49-1.25-1.49a1.16,1.16,0,0,0-1.28,1.11h-3c.14-2.26,1.93-3.38,4.5-3.38s4.25,1.06,4.25,3.56v6.11h-3.13V282a3.1,3.1,0,0,1-2.79,1.31C102.2,283.28,100.71,282.46,100.71,280.46Zm5.91-.69v-.57h-.85c-1.3,0-1.87.25-1.87,1,0,.54.36.89,1.11.89A1.43,1.43,0,0,0,106.62,279.77Z" fill="#fff"/><path d="M18.45,299.48v-.15a4.73,4.73,0,0,1,5-4.93c2.31,0,4.43,1,4.61,3.87h-3a1.4,1.4,0,0,0-1.51-1.37c-1.14,0-1.8.81-1.8,2.4v.14c0,1.64.63,2.49,1.85,2.49a1.58,1.58,0,0,0,1.64-1.57h2.9c-.09,2.38-1.7,3.92-4.74,3.92C20.59,304.28,18.45,302.65,18.45,299.48Z" fill="#fff"/><path d="M28.94,299.48v-.15a4.84,4.84,0,0,1,5.17-4.93c2.9,0,5.13,1.85,5.13,4.84v.15c0,3.06-2.25,4.89-5.15,4.89S28.94,302.52,28.94,299.48Zm7-.06v-.14c0-1.59-.63-2.47-1.86-2.47s-1.87.85-1.87,2.43v.15c0,1.62.63,2.5,1.87,2.5S36,301,36,299.42Z" fill="#fff"/><path d="M40.07,301.08h3c.11.68.41,1.06,1.33,1.06s1.15-.31,1.15-.77-.45-.67-1.74-.85c-2.52-.32-3.59-1.06-3.59-3s1.86-3.1,4-3.1,3.94.79,4.16,3H45.47a1.05,1.05,0,0,0-1.21-.93c-.7,0-1.06.3-1.06.73s.43.63,1.59.78c2.61.32,3.87,1,3.87,3,0,2.24-1.66,3.24-4.27,3.24S40.14,303.17,40.07,301.08Z" fill="#fff"/><path d="M50.4,301v-4.19H49.27v-2.2H50.4v-2h3.22v2h1.86v2.2H53.62v3.89a.86.86,0,0,0,1,1,2.65,2.65,0,0,0,.92-.16V304a6.76,6.76,0,0,1-1.79.27C51.59,304.28,50.4,303.26,50.4,301Z" fill="#fff"/><path d="M56.84,302.45a1.8,1.8,0,0,1,1.84-1.82,1.82,1.82,0,1,1,0,3.64A1.8,1.8,0,0,1,56.84,302.45Z" fill="#fff"/><path d="M60.44,291.19h3l-.38,5H60.8Zm3.82,0h3l-.37,5H64.64Z" fill="#fff"/></g><g id="_NerdWallet" data-name="– NerdWallet"><path d="M35.57,404h7.94v1.52H35.57Z" fill="#fff"/><path d="M49.56,396.92h2.86l5.42,9.31v-9.31H60V409.8H57.53l-5.8-9.87v9.87H49.56Z" fill="#fff"/><path d="M61.83,405.19V405a4.58,4.58,0,0,1,4.68-4.86c2.34,0,4.45,1.39,4.45,4.76v.63h-6.9c.08,1.78,1,2.79,2.6,2.79,1.31,0,2-.52,2.16-1.44h2.1c-.3,2-1.9,3.06-4.32,3.06A4.51,4.51,0,0,1,61.83,405.19Zm7-1.08c-.11-1.62-.94-2.34-2.29-2.34a2.42,2.42,0,0,0-2.41,2.34Z" fill="#fff"/><path d="M72.63,400.38h2.18v1.77a3.14,3.14,0,0,1,3.06-1.91v2c-1.91,0-3.06.63-3.06,2.63v4.9H72.63Z" fill="#fff"/><path d="M78.68,405.24v-.14c0-3,1.78-4.92,4.23-4.92a3.23,3.23,0,0,1,3,1.64V396H88.1V409.8H85.92v-1.59a3.61,3.61,0,0,1-3.1,1.77C80.46,410,78.68,408.3,78.68,405.24Zm7.31-.11V405c0-2.07-.95-3.1-2.54-3.1S80.91,403,80.91,405v.15c0,2.07,1,3.06,2.45,3.06S86,407.24,86,405.13Z" fill="#fff"/><path d="M89.59,396.92H92l2.23,9.46,2.5-9.46h2l2.56,9.51,2.3-9.51h2.24l-3.23,12.88h-2.39l-2.54-9.38-2.61,9.38H92.79Z" fill="#fff"/><path d="M106,407.19c0-2.2,2.13-3,4.83-3H112v-.49c0-1.26-.44-1.89-1.71-1.89a1.56,1.56,0,0,0-1.8,1.48H106.4c.18-2.2,1.93-3.12,4-3.12s3.77.87,3.77,3.44v6.18h-2.15v-1.15a3.27,3.27,0,0,1-2.88,1.33C107.44,410,106,409.15,106,407.19Zm6-.69v-.93H110.9c-1.66,0-2.72.38-2.72,1.53,0,.79.43,1.31,1.51,1.31C111,408.41,112,407.71,112,406.5Z" fill="#fff"/><path d="M116.48,396h2.18V409.8h-2.18Z" fill="#fff"/><path d="M121.09,396h2.18V409.8h-2.18Z" fill="#fff"/><path d="M125,405.19V405a4.58,4.58,0,0,1,4.68-4.86c2.34,0,4.45,1.39,4.45,4.76v.63h-6.9c.08,1.78,1,2.79,2.6,2.79,1.31,0,2-.52,2.16-1.44h2.1c-.3,2-1.9,3.06-4.32,3.06A4.51,4.51,0,0,1,125,405.19Zm7-1.08c-.11-1.62-.94-2.34-2.29-2.34a2.42,2.42,0,0,0-2.41,2.34Z" fill="#fff"/><path d="M136.17,407.17V402h-1.26v-1.64h1.26v-2.07h2.18v2.07h2.07V402h-2.07v5c0,.83.4,1.21,1.08,1.21a2.76,2.76,0,0,0,1.06-.18v1.73A4.33,4.33,0,0,1,139,410,2.53,2.53,0,0,1,136.17,407.17Z" fill="#fff"/></g></g></svg>