<svg xmlns="http://www.w3.org/2000/svg" viewBox="0 0 300 600"><title>H5</title><g id="Layer_2" data-name="Layer 2"><g id="Rect"><rect width="300" height="600" fill="none"/></g><g id="H5"><g id="You_could_get_up_to_3_500_within_minutes_of_filing._0_Interes" data-name="You could get up to $3,500 within minutes of filing. 0% Interes"><path d="M30.47,59.27,19.38,39.8H30l5.76,11.48L41.52,39.8h9.33L40.28,59.27V73.84H30.47Z" fill="#fff"/><path d="M47.27,61.7v-.38c0-8,6-13,13.67-13s13.57,4.9,13.57,12.8v.38c0,8.1-6,12.95-13.62,12.95S47.27,69.75,47.27,61.7Zm18.57-.14v-.38c0-4.19-1.66-6.52-4.9-6.52S56,56.89,56,61.08v.38c0,4.29,1.66,6.62,4.95,6.62S65.84,65.7,65.84,61.56Z" fill="#fff"/><path d="M77.31,65.18V48.94h8.52V63.8c0,2.81,1.1,4.19,3.52,4.19,2.58,0,4.24-1.53,4.24-4.72V48.94h8.52v24.9H93.59V70c-1.33,2.57-3.76,4.42-7.9,4.42C80.88,74.41,77.31,71.46,77.31,65.18Z" fill="#fff"/><path d="M113.77,61.7v-.38c0-8.28,6-13,13.28-13,6.1,0,11.71,2.66,12.19,10.23h-8c-.38-2.33-1.52-3.62-4-3.62-3,0-4.76,2.15-4.76,6.34v.38c0,4.33,1.67,6.57,4.91,6.57,2.38,0,4-1.43,4.33-4.14h7.66c-.23,6.28-4.47,10.37-12.52,10.37C119.44,74.41,113.77,70.08,113.77,61.7Z" fill="#fff"/><path d="M140.81,61.7v-.38c0-8,5.95-13,13.66-13S168,53.18,168,61.08v.38c0,8.1-5.95,12.95-13.62,12.95S140.81,69.75,140.81,61.7Zm18.56-.14v-.38c0-4.19-1.66-6.52-4.9-6.52s-4.95,2.23-4.95,6.42v.38c0,4.29,1.67,6.62,4.95,6.62S159.37,65.7,159.37,61.56Z" fill="#fff"/><path d="M170.84,65.18V48.94h8.52V63.8c0,2.81,1.1,4.19,3.53,4.19s4.23-1.53,4.23-4.72V48.94h8.53v24.9h-8.53V70c-1.33,2.57-3.76,4.42-7.9,4.42C174.41,74.41,170.84,71.46,170.84,65.18Z" fill="#fff"/><path d="M200.21,38h8.47V73.84h-8.47Z" fill="#fff"/><path d="M212,61.65v-.38c0-8.47,4.67-13,10.57-13,3.91,0,6.24,1.66,7.67,4.19V38h8.52V73.84h-8.52v-4a8.39,8.39,0,0,1-7.76,4.61C216.73,74.41,212,70.27,212,61.65Zm18.48-.14v-.38c0-4.19-1.76-6.43-4.91-6.43s-4.9,2.15-4.9,6.48v.38c0,4.19,1.86,6.33,4.81,6.33S230.49,65.75,230.49,61.51Z" fill="#fff"/><path d="M20.14,123.44h8.48c.38,1.81,1.47,3.24,4.57,3.24,3.76,0,5.28-2.14,5.28-5.24v-3.81a8.73,8.73,0,0,1-7.71,4.57c-5.81,0-10.57-4.28-10.57-12v-.38c0-7.33,4.71-12,10.57-12,3.95,0,6.28,1.66,7.71,4.19V98.54H47v22.81c0,7.42-4.9,11.33-13.8,11.33C24.71,132.68,20.81,129.11,20.14,123.44Zm18.57-13.23v-.34c0-3.42-1.76-5.61-4.9-5.61s-4.91,2.23-4.91,5.66v.38c0,3.43,1.81,5.62,4.86,5.62S38.71,113.73,38.71,110.21Z" fill="#fff"/><path d="M50,111.3v-.38c0-8,5.95-13,13.47-13,6.81,0,12.66,3.9,12.66,12.85V113H58.6c.24,3.28,2.15,5.19,5.19,5.19,2.81,0,4-1.29,4.34-3h8c-.76,5.61-5.09,8.8-12.61,8.8C55.7,124,50,119.44,50,111.3Zm17.85-3.14c-.14-3-1.62-4.67-4.38-4.67-2.57,0-4.33,1.67-4.76,4.67Z" fill="#fff"/><path d="M80.21,115.44V104.35h-3V98.54h3V93.35h8.52v5.19h4.91v5.81H88.73v10.28c0,1.81.91,2.62,2.53,2.62a6.46,6.46,0,0,0,2.43-.43v6.48A18.24,18.24,0,0,1,89,124C83.36,124,80.21,121.3,80.21,115.44Z" fill="#fff"/><path d="M105.35,114.78V98.54h8.52V113.4c0,2.81,1.09,4.19,3.52,4.19s4.24-1.53,4.24-4.72V98.54h8.52v24.9h-8.52v-3.85c-1.34,2.57-3.76,4.42-7.91,4.42C108.92,124,105.35,121.06,105.35,114.78Z" fill="#fff"/><path d="M134.48,98.54H143v3.72a8.79,8.79,0,0,1,7.76-4.38c5.81,0,10.52,4.38,10.52,12.9v.38c0,8.57-4.71,12.85-10.57,12.85-3.76,0-6.47-1.76-7.71-4.23v12h-8.52Zm18.13,12.62v-.38c0-4.38-1.9-6.48-4.9-6.48s-5,2.24-5,6.43v.38c0,4.24,1.86,6.38,5,6.38S152.61,115.25,152.61,111.16Z" fill="#fff"/><path d="M174.17,115.44V104.35h-3V98.54h3V93.35h8.53v5.19h4.9v5.81h-4.9v10.28c0,1.81.9,2.62,2.52,2.62a6.46,6.46,0,0,0,2.43-.43v6.48a18.24,18.24,0,0,1-4.72.71C177.32,124,174.17,121.3,174.17,115.44Z" fill="#fff"/><path d="M189.5,111.3v-.38c0-8,5.95-13,13.66-13s13.57,4.9,13.57,12.8v.38c0,8.1-5.95,13-13.61,13S189.5,119.35,189.5,111.3Zm18.57-.14v-.38c0-4.19-1.67-6.52-4.91-6.52s-4.95,2.23-4.95,6.42v.38c0,4.29,1.67,6.62,4.95,6.62S208.07,115.3,208.07,111.16Z" fill="#fff"/><path d="M27,157.47c-4.8-.33-7.13-2.89-7.32-6.55H24.8A2.64,2.64,0,0,0,27,153.53v-4.05c-4.83-.7-6.88-2.45-6.88-6.31,0-3.35,2.64-5.77,6.88-6.07v-2.47h2.17v2.49c4,.34,6.41,2.2,6.74,6h-5A2.2,2.2,0,0,0,29.16,141v3.83c4.25.61,7,2,7,6.08,0,3.38-2.19,6.21-7,6.52v3.47H27Zm0-12.93V141c-1.25.22-1.88.89-1.88,1.78S25.49,144.23,27,144.54Zm2.17,5.3v3.69a2,2,0,0,0,1.86-2C31,150.64,30.63,150.17,29.16,149.84Z" fill="#fff"/><path d="M37.87,161.85h8.67c.28,2.81,1.61,4.72,5,4.72,3,0,4.48-1.43,4.48-3.86,0-2.66-1.43-4-4.48-4H48.82v-6h2.52c3,0,4.53-1.38,4.53-3.76,0-2-1.34-3.38-3.91-3.38s-4.14,1.57-4.52,4.33H38.82c.43-6.71,4.91-11.33,13.38-11.33,8,0,12.81,3.66,12.81,9.33,0,3.81-2.19,6.28-5.76,7.33,3.9.81,6.61,3.57,6.61,7.71,0,6.48-4.8,10.71-13.8,10.71C42.58,173.61,38.16,169.23,37.87,161.85Z" fill="#fff"/><path d="M66.67,176.9l4-12.52,7.9,2.81-6.85,11.66Z" fill="#fff"/><path d="M80.14,162.33H89c.33,2.38,1.28,3.95,4.42,3.95,2.81,0,4.1-2.09,4.1-4.81,0-3-1.67-4.85-4.62-4.85a6.94,6.94,0,0,0-5.62,2.43H81.47L82.19,139h22.94v7.14H89.23L89,153.67c1.29-1.86,3.72-3.62,7.95-3.62,6.24,0,10.33,4.19,10.33,11.57,0,7.23-5.18,12-13.8,12C84.47,173.61,80.38,168.71,80.14,162.33Z" fill="#fff"/><path d="M109.7,156.76v-1.43c0-10.76,6.71-16.8,15.71-16.8s15.71,5.57,15.71,16.61v1.34c0,10.8-6.19,17.13-15.9,17.13C115.7,173.61,109.7,167.47,109.7,156.76Zm21.66-.09v-1.39c0-6.23-1.81-9.37-6-9.37s-6,3.09-6,9.37v1.43c0,6.33,1.86,9.33,6.05,9.33S131.36,163,131.36,156.67Z" fill="#fff"/><path d="M143.83,156.76v-1.43c0-10.76,6.71-16.8,15.71-16.8s15.71,5.57,15.71,16.61v1.34c0,10.8-6.19,17.13-15.9,17.13C149.83,173.61,143.83,167.47,143.83,156.76Zm21.66-.09v-1.39c0-6.23-1.81-9.37-6-9.37s-5.95,3.09-5.95,9.37v1.43c0,6.33,1.86,9.33,6,9.33S165.49,163,165.49,156.67Z" fill="#fff"/><path d="M19.43,197.74h8.9L32,212.65l4.19-14.91H43l3.72,14.91,4-14.91h8.1l-7.91,24.9H42.8l-3.71-13.9-3.86,13.9H27Z" fill="#fff"/><path d="M60.84,191a4.7,4.7,0,1,1,4.67,4.38A4.45,4.45,0,0,1,60.84,191Zm.43,6.76h8.52v24.9H61.27Z" fill="#fff"/><path d="M75.5,214.64V203.55h-3v-5.81h3v-5.19H84v5.19h4.91v5.81H84v10.28c0,1.81.91,2.62,2.53,2.62A6.37,6.37,0,0,0,89,216v6.48a17.66,17.66,0,0,1-4.71.71C78.64,223.21,75.5,220.5,75.5,214.64Z" fill="#fff"/><path d="M92.16,186.79h8.52v15a8.8,8.8,0,0,1,8.19-4.66c4.81,0,8.14,3,8.14,9.38v16.18h-8.52V208.17c0-2.81-1.09-4.19-3.57-4.19s-4.24,1.52-4.24,4.71v13.95H92.16Z" fill="#fff"/><path d="M121,191a4.44,4.44,0,0,1,4.66-4.42,4.41,4.41,0,1,1,0,8.8A4.41,4.41,0,0,1,121,191Zm.43,6.76h8.52v24.9h-8.52Z" fill="#fff"/><path d="M134.48,197.74H143v4a8.78,8.78,0,0,1,8.19-4.66c4.81,0,8.14,3,8.14,9.38v16.18h-8.52V208.17c0-2.81-1.1-4.19-3.57-4.19S143,205.5,143,208.69v13.95h-8.52Z" fill="#fff"/><path d="M21.52,247.34H30v3.81a8.72,8.72,0,0,1,7.81-4.47c3.29,0,5.57,1.43,6.76,4.14a9.88,9.88,0,0,1,8.24-4.14c4.71,0,8.14,3,8.14,9.28v16.28H52.47V257.39c0-2.52-1.24-3.76-3.19-3.76-2.29,0-3.81,1.47-3.81,4.19v14.42H37V257.39c0-2.52-1.23-3.76-3.19-3.76-2.28,0-3.81,1.47-3.81,4.19v14.42H21.52Z" fill="#fff"/><path d="M64.93,240.58A4.7,4.7,0,1,1,69.6,245,4.45,4.45,0,0,1,64.93,240.58Zm.43,6.76h8.52v24.9H65.36Z" fill="#fff"/><path d="M78.45,247.34H87v4a8.8,8.8,0,0,1,8.19-4.66c4.81,0,8.14,3,8.14,9.38v16.18H94.78V257.77c0-2.81-1.09-4.19-3.57-4.19S87,255.1,87,258.29v13.95H78.45Z" fill="#fff"/><path d="M107.25,263.58V247.34h8.52V262.2c0,2.81,1.1,4.19,3.52,4.19,2.58,0,4.24-1.53,4.24-4.72V247.34h8.52v24.9h-8.52v-3.85c-1.33,2.57-3.76,4.42-7.9,4.42C110.82,272.81,107.25,269.86,107.25,263.58Z" fill="#fff"/><path d="M137.52,264.24V253.15h-3v-5.81h3v-5.19H146v5.19H151v5.81H146v10.29a2.27,2.27,0,0,0,2.53,2.61,6.46,6.46,0,0,0,2.43-.43v6.48a17.82,17.82,0,0,1-4.72.71C140.67,272.81,137.52,270.1,137.52,264.24Z" fill="#fff"/><path d="M152.85,260.1v-.38c0-8,6-13,13.47-13,6.81,0,12.67,3.9,12.67,12.85v2.24H161.47c.24,3.28,2.14,5.19,5.19,5.19,2.8,0,4-1.29,4.33-2.95h8c-.77,5.61-5.1,8.8-12.62,8.8C158.56,272.81,152.85,268.24,152.85,260.1ZM170.7,257c-.14-3-1.62-4.67-4.38-4.67-2.57,0-4.33,1.67-4.76,4.67Z" fill="#fff"/><path d="M180.5,264.34h7.86c.29,1.81,1.1,2.81,3.52,2.81,2.1,0,3.05-.81,3.05-2s-1.19-1.76-4.62-2.24c-6.66-.85-9.47-2.81-9.47-8,0-5.53,4.9-8.19,10.66-8.19,6.14,0,10.43,2.09,11,8h-7.71c-.34-1.66-1.24-2.47-3.19-2.47s-2.81.81-2.81,1.95,1.14,1.67,4.19,2.05c6.9.85,10.23,2.66,10.23,8,0,5.91-4.38,8.57-11.28,8.57C184.84,272.81,180.7,269.86,180.5,264.34Z" fill="#fff"/><path d="M213.3,260.1v-.38c0-8,5.95-13,13.66-13s13.57,4.9,13.57,12.8v.38c0,8.1-5.95,12.95-13.61,12.95S213.3,268.15,213.3,260.1Zm18.57-.14v-.38c0-4.19-1.67-6.52-4.91-6.52s-5,2.23-5,6.42v.38c0,4.29,1.67,6.62,5,6.62S231.87,264.1,231.87,260Z" fill="#fff"/><path d="M244.81,253.15h-3.14v-5.81h3.14v-2.19c0-6.19,3.86-9.14,9.76-9.14a15.08,15.08,0,0,1,3.91.53v6.23a7.92,7.92,0,0,0-2.34-.33c-2,0-2.85,1.1-2.85,2.71v2.19h5v5.81h-5v19.09h-8.48Z" fill="#fff"/><path d="M22.81,302.75H19.67v-5.81h3.14v-2.19c0-6.19,3.86-9.14,9.76-9.14a14.94,14.94,0,0,1,3.9.53v6.23a7.85,7.85,0,0,0-2.33-.33c-2,0-2.86,1.1-2.86,2.71v2.19h5v5.81h-5v19.09H22.81Z" fill="#fff"/><path d="M39,290.18a4.45,4.45,0,0,1,4.67-4.42,4.41,4.41,0,1,1,0,8.8A4.41,4.41,0,0,1,39,290.18Zm.43,6.76h8.52v24.9H39.42Z" fill="#fff"/><path d="M52.75,286h8.47v35.85H52.75Z" fill="#fff"/><path d="M65.6,290.18a4.7,4.7,0,1,1,4.67,4.38A4.45,4.45,0,0,1,65.6,290.18Zm.43,6.76h8.52v24.9H66Z" fill="#fff"/><path d="M79.12,296.94h8.52v4a8.79,8.79,0,0,1,8.19-4.66c4.81,0,8.14,3,8.14,9.38v16.18H95.45V307.37c0-2.81-1.1-4.19-3.57-4.19s-4.24,1.52-4.24,4.71v13.95H79.12Z" fill="#fff"/><path d="M106.73,321.84h8.47c.38,1.81,1.48,3.24,4.57,3.24,3.76,0,5.28-2.14,5.28-5.24V316a8.69,8.69,0,0,1-7.71,4.57c-5.81,0-10.57-4.28-10.57-11.94v-.39c0-7.33,4.72-12,10.57-12,4,0,6.29,1.66,7.71,4.19v-3.53h8.53v22.81c0,7.42-4.91,11.33-13.81,11.33C111.3,331.08,107.39,327.51,106.73,321.84Zm18.56-13.23v-.34c0-3.42-1.76-5.61-4.9-5.61s-4.9,2.23-4.9,5.66v.38c0,3.43,1.8,5.62,4.85,5.62S125.29,312.13,125.29,308.61Z" fill="#fff"/><path d="M137.57,317.56a4.75,4.75,0,0,1,4.86-4.81,4.81,4.81,0,1,1,0,9.62A4.75,4.75,0,0,1,137.57,317.56Z" fill="#fff"/><path d="M20.71,355.16v-1.43c0-10.76,6.72-16.8,15.71-16.8s15.71,5.57,15.71,16.61v1.34c0,10.8-6.18,17.13-15.9,17.13C26.71,372,20.71,365.87,20.71,355.16Zm21.67-.09v-1.39c0-6.23-1.81-9.37-6-9.37s-6,3.09-6,9.37v1.43c0,6.34,1.86,9.33,6.05,9.33S42.38,361.35,42.38,355.07Z" fill="#fff"/><path d="M54,345.5c0-4.81,3.85-8.48,9-8.48s9,3.48,9,8.33-3.52,8.76-9.05,8.76S54,350.4,54,345.5Zm28-8.1h4.66l-23.61,34H58.41Zm-16.28,8.1c0-2.24-1-3.62-2.72-3.62s-2.81,1.33-2.81,3.57,1.05,3.71,2.81,3.71S65.75,347.73,65.75,345.5Zm7.18,17.9c0-4.86,3.91-8.48,9-8.48s9,3.43,9,8.33-3.53,8.76-9,8.76S72.93,368.3,72.93,363.4Zm11.81,0c0-2.19-.95-3.57-2.76-3.57s-2.76,1.33-2.76,3.57S80.27,367,82,367,84.74,365.63,84.74,363.35Z" fill="#fff"/><path d="M103.59,337.4h9.85v34h-9.85Z" fill="#fff"/><path d="M118.67,346.54h8.53v4a8.77,8.77,0,0,1,8.18-4.66c4.81,0,8.14,3,8.14,9.38v16.18H135V357c0-2.81-1.09-4.19-3.57-4.19s-4.23,1.52-4.23,4.71v13.95h-8.53Z" fill="#fff"/><path d="M148.8,363.44V352.35h-3v-5.81h3v-5.19h8.53v5.19h4.9v5.81h-4.9v10.28c0,1.81.9,2.62,2.52,2.62a6.62,6.62,0,0,0,2.43-.42v6.47a18.24,18.24,0,0,1-4.72.71C152,372,148.8,369.3,148.8,363.44Z" fill="#fff"/><path d="M164.13,359.3v-.38c0-8,6-13,13.47-13,6.81,0,12.67,3.9,12.67,12.85V361H172.75c.24,3.28,2.14,5.19,5.19,5.19,2.81,0,4-1.29,4.33-3h8c-.76,5.61-5.1,8.8-12.62,8.8C169.84,372,164.13,367.44,164.13,359.3ZM182,356.16c-.14-3-1.61-4.66-4.38-4.66-2.57,0-4.33,1.66-4.76,4.66Z" fill="#fff"/><path d="M193.21,346.54h8.53v5c1.57-3.72,4.19-5.34,8-5.29v8c-5.19-.14-8,1.48-8,5.48v11.8h-8.53Z" fill="#fff"/><path d="M211.3,359.3v-.38c0-8,5.95-13,13.48-13,6.8,0,12.66,3.9,12.66,12.85V361H219.92c.24,3.28,2.14,5.19,5.19,5.19,2.81,0,4-1.29,4.33-3h8c-.76,5.61-5.1,8.8-12.62,8.8C217,372,211.3,367.44,211.3,359.3Zm17.86-3.14c-.15-3-1.62-4.66-4.38-4.66-2.58,0-4.34,1.66-4.77,4.66Z" fill="#fff"/><path d="M239,363.54h7.85c.29,1.81,1.1,2.81,3.52,2.81,2.1,0,3-.81,3-2.05s-1.19-1.76-4.62-2.24c-6.66-.85-9.47-2.81-9.47-8,0-5.53,4.9-8.19,10.66-8.19,6.15,0,10.43,2.09,11,8h-7.71c-.33-1.66-1.24-2.47-3.19-2.47s-2.81.81-2.81,1.95,1.14,1.67,4.19,2.05c6.9.85,10.24,2.66,10.24,8,0,5.91-4.38,8.57-11.29,8.57C243.29,372,239.15,369.06,239,363.54Z" fill="#fff"/><path d="M265.57,363.44V352.35h-3v-5.81h3v-5.19h8.52v5.19H279v5.81h-4.9v10.28c0,1.81.9,2.62,2.52,2.62a6.62,6.62,0,0,0,2.43-.42v6.47a18.15,18.15,0,0,1-4.71.71C268.71,372,265.57,369.3,265.57,363.44Z" fill="#fff"/><path d="M22.29,387h9.8v26.47H45V421H22.29Z" fill="#fff"/><path d="M46.37,408.9v-.38c0-8,6-13,13.66-13s13.57,4.9,13.57,12.8v.38c0,8.1-5.95,12.95-13.61,12.95S46.37,417,46.37,408.9Zm18.57-.14v-.38c0-4.19-1.67-6.52-4.91-6.52s-5,2.23-5,6.42v.38c0,4.29,1.67,6.62,5,6.62S64.94,412.9,64.94,408.76Z" fill="#fff"/><path d="M75.17,414.14c0-5.86,5-8.14,13.23-8.14h2.38v-.57c0-2.38-.57-3.95-3.28-3.95a3.06,3.06,0,0,0-3.38,2.95h-8c.38-6,5.09-8.95,11.9-8.95s11.24,2.81,11.24,9.42V421H91v-2.9c-1.19,1.81-3.38,3.47-7.38,3.47C79.12,421.61,75.17,419.42,75.17,414.14Zm15.61-1.81v-1.52H88.55c-3.43,0-5,.66-5,2.71,0,1.43,1,2.33,3,2.33C89,415.85,90.78,414.47,90.78,412.33Z" fill="#fff"/><path d="M103.39,396.14h8.53v4a8.77,8.77,0,0,1,8.18-4.66c4.81,0,8.15,3,8.15,9.38V421h-8.53V406.57c0-2.81-1.09-4.19-3.57-4.19s-4.23,1.52-4.23,4.71v14h-8.53Z" fill="#fff"/><path d="M132.05,416.76a4.75,4.75,0,0,1,4.86-4.81,4.81,4.81,0,1,1,0,9.62A4.75,4.75,0,0,1,132.05,416.76Z" fill="#fff"/></g></g></g></svg>