<svg xmlns="http://www.w3.org/2000/svg" viewBox="0 0 300 600"><title>H5</title><g id="Layer_2" data-name="Layer 2"><g id="Rect"><rect width="300" height="600" fill="none"/></g><g id="H5"><g id="You_could_get_up_to_3_500_within_minutes_of_filing._0_interes" data-name="You could get up to $3,500 within minutes of filing. 0% interes"><path d="M30.47,59.27,19.38,39.8H30l5.76,11.48L41.52,39.8h9.33L40.28,59.27V73.84H30.47Z" fill="#fff"/><path d="M47.27,61.7v-.38c0-8,6-13,13.67-13s13.57,4.9,13.57,12.8v.38c0,8.1-6,12.95-13.62,12.95S47.27,69.75,47.27,61.7Zm18.57-.14v-.38c0-4.19-1.66-6.52-4.9-6.52S56,56.89,56,61.08v.38c0,4.29,1.66,6.62,4.95,6.62S65.84,65.7,65.84,61.56Z" fill="#fff"/><path d="M77.31,65.18V48.94h8.52V63.8c0,2.81,1.1,4.19,3.52,4.19,2.58,0,4.24-1.53,4.24-4.72V48.94h8.52v24.9H93.59V70c-1.33,2.57-3.76,4.42-7.9,4.42C80.88,74.41,77.31,71.46,77.31,65.18Z" fill="#fff"/><path d="M113.77,61.7v-.38c0-8.28,6-13,13.28-13,6.1,0,11.71,2.66,12.19,10.23h-8c-.38-2.33-1.52-3.62-4-3.62-3,0-4.76,2.15-4.76,6.34v.38c0,4.33,1.67,6.57,4.91,6.57,2.38,0,4-1.43,4.33-4.14h7.66c-.23,6.28-4.47,10.37-12.52,10.37C119.44,74.41,113.77,70.08,113.77,61.7Z" fill="#fff"/><path d="M140.81,61.7v-.38c0-8,5.95-13,13.66-13S168,53.18,168,61.08v.38c0,8.1-5.95,12.95-13.62,12.95S140.81,69.75,140.81,61.7Zm18.56-.14v-.38c0-4.19-1.66-6.52-4.9-6.52s-4.95,2.23-4.95,6.42v.38c0,4.29,1.67,6.62,4.95,6.62S159.37,65.7,159.37,61.56Z" fill="#fff"/><path d="M170.84,65.18V48.94h8.52V63.8c0,2.81,1.1,4.19,3.53,4.19s4.23-1.53,4.23-4.72V48.94h8.53v24.9h-8.53V70c-1.33,2.57-3.76,4.42-7.9,4.42C174.41,74.41,170.84,71.46,170.84,65.18Z" fill="#fff"/><path d="M200.21,38h8.47V73.84h-8.47Z" fill="#fff"/><path d="M212,61.65v-.38c0-8.47,4.67-13,10.57-13,3.91,0,6.24,1.66,7.67,4.19V38h8.52V73.84h-8.52v-4a8.39,8.39,0,0,1-7.76,4.61C216.73,74.41,212,70.27,212,61.65Zm18.48-.14v-.38c0-4.19-1.76-6.43-4.91-6.43s-4.9,2.15-4.9,6.48v.38c0,4.19,1.86,6.33,4.81,6.33S230.49,65.75,230.49,61.51Z" fill="#fff"/><path d="M20.14,123.44h8.48c.38,1.81,1.47,3.24,4.57,3.24,3.76,0,5.28-2.14,5.28-5.24v-3.81a8.73,8.73,0,0,1-7.71,4.57c-5.81,0-10.57-4.28-10.57-12v-.38c0-7.33,4.71-12,10.57-12,3.95,0,6.28,1.66,7.71,4.19V98.54H47v22.81c0,7.42-4.9,11.33-13.8,11.33C24.71,132.68,20.81,129.11,20.14,123.44Zm18.57-13.23v-.34c0-3.42-1.76-5.61-4.9-5.61s-4.91,2.23-4.91,5.66v.38c0,3.43,1.81,5.62,4.86,5.62S38.71,113.73,38.71,110.21Z" fill="#fff"/><path d="M50,111.3v-.38c0-8,5.95-13,13.47-13,6.81,0,12.66,3.9,12.66,12.85V113H58.6c.24,3.28,2.15,5.19,5.19,5.19,2.81,0,4-1.29,4.34-3h8c-.76,5.61-5.09,8.8-12.61,8.8C55.7,124,50,119.44,50,111.3Zm17.85-3.14c-.14-3-1.62-4.67-4.38-4.67-2.57,0-4.33,1.67-4.76,4.67Z" fill="#fff"/><path d="M80.21,115.44V104.35h-3V98.54h3V93.35h8.52v5.19h4.91v5.81H88.73v10.28c0,1.81.91,2.62,2.53,2.62a6.46,6.46,0,0,0,2.43-.43v6.48A18.24,18.24,0,0,1,89,124C83.36,124,80.21,121.3,80.21,115.44Z" fill="#fff"/><path d="M105.35,114.78V98.54h8.52V113.4c0,2.81,1.09,4.19,3.52,4.19s4.24-1.53,4.24-4.72V98.54h8.52v24.9h-8.52v-3.85c-1.34,2.57-3.76,4.42-7.91,4.42C108.92,124,105.35,121.06,105.35,114.78Z" fill="#fff"/><path d="M134.48,98.54H143v3.72a8.79,8.79,0,0,1,7.76-4.38c5.81,0,10.52,4.38,10.52,12.9v.38c0,8.57-4.71,12.85-10.57,12.85-3.76,0-6.47-1.76-7.71-4.23v12h-8.52Zm18.13,12.62v-.38c0-4.38-1.9-6.48-4.9-6.48s-5,2.24-5,6.43v.38c0,4.24,1.86,6.38,5,6.38S152.61,115.25,152.61,111.16Z" fill="#fff"/><path d="M174.17,115.44V104.35h-3V98.54h3V93.35h8.53v5.19h4.9v5.81h-4.9v10.28c0,1.81.9,2.62,2.52,2.62a6.46,6.46,0,0,0,2.43-.43v6.48a18.24,18.24,0,0,1-4.72.71C177.32,124,174.17,121.3,174.17,115.44Z" fill="#fff"/><path d="M189.5,111.3v-.38c0-8,5.95-13,13.66-13s13.57,4.9,13.57,12.8v.38c0,8.1-5.95,13-13.61,13S189.5,119.35,189.5,111.3Zm18.57-.14v-.38c0-4.19-1.67-6.52-4.91-6.52s-4.95,2.23-4.95,6.42v.38c0,4.29,1.67,6.62,4.95,6.62S208.07,115.3,208.07,111.16Z" fill="#fff"/><path d="M27,157.47c-4.8-.33-7.13-2.89-7.32-6.55H24.8A2.64,2.64,0,0,0,27,153.53v-4.05c-4.83-.7-6.88-2.45-6.88-6.31,0-3.35,2.64-5.77,6.88-6.07v-2.47h2.17v2.49c4,.34,6.41,2.2,6.74,6h-5A2.2,2.2,0,0,0,29.16,141v3.83c4.25.61,7,2,7,6.08,0,3.38-2.19,6.21-7,6.52v3.47H27Zm0-12.93V141c-1.25.22-1.88.89-1.88,1.78S25.49,144.23,27,144.54Zm2.17,5.3v3.69a2,2,0,0,0,1.86-2C31,150.64,30.63,150.17,29.16,149.84Z" fill="#fff"/><path d="M37.87,161.85h8.67c.28,2.81,1.61,4.72,5,4.72,3,0,4.48-1.43,4.48-3.86,0-2.66-1.43-4-4.48-4H48.82v-6h2.52c3,0,4.53-1.38,4.53-3.76,0-2-1.34-3.38-3.91-3.38s-4.14,1.57-4.52,4.33H38.82c.43-6.71,4.91-11.33,13.38-11.33,8,0,12.81,3.66,12.81,9.33,0,3.81-2.19,6.28-5.76,7.33,3.9.81,6.61,3.57,6.61,7.71,0,6.48-4.8,10.71-13.8,10.71C42.58,173.61,38.16,169.23,37.87,161.85Z" fill="#fff"/><path d="M66.67,176.9l4-12.52,7.9,2.81-6.85,11.66Z" fill="#fff"/><path d="M80.14,162.33H89c.33,2.38,1.28,3.95,4.42,3.95,2.81,0,4.1-2.09,4.1-4.81,0-3-1.67-4.85-4.62-4.85a6.94,6.94,0,0,0-5.62,2.43H81.47L82.19,139h22.94v7.14H89.23L89,153.67c1.29-1.86,3.72-3.62,7.95-3.62,6.24,0,10.33,4.19,10.33,11.57,0,7.23-5.18,12-13.8,12C84.47,173.61,80.38,168.71,80.14,162.33Z" fill="#fff"/><path d="M109.7,156.76v-1.43c0-10.76,6.71-16.8,15.71-16.8s15.71,5.57,15.71,16.61v1.34c0,10.8-6.19,17.13-15.9,17.13C115.7,173.61,109.7,167.47,109.7,156.76Zm21.66-.09v-1.39c0-6.23-1.81-9.37-6-9.37s-6,3.09-6,9.37v1.43c0,6.33,1.86,9.33,6.05,9.33S131.36,163,131.36,156.67Z" fill="#fff"/><path d="M143.83,156.76v-1.43c0-10.76,6.71-16.8,15.71-16.8s15.71,5.57,15.71,16.61v1.34c0,10.8-6.19,17.13-15.9,17.13C149.83,173.61,143.83,167.47,143.83,156.76Zm21.66-.09v-1.39c0-6.23-1.81-9.37-6-9.37s-5.95,3.09-5.95,9.37v1.43c0,6.33,1.86,9.33,6,9.33S165.49,163,165.49,156.67Z" fill="#fff"/><path d="M19.43,197.74h8.9L32,212.65l4.19-14.91H43l3.72,14.91,4-14.91h8.1l-7.91,24.9H42.8l-3.71-13.9-3.86,13.9H27Z" fill="#fff"/><path d="M60.84,191a4.7,4.7,0,1,1,4.67,4.38A4.45,4.45,0,0,1,60.84,191Zm.43,6.76h8.52v24.9H61.27Z" fill="#fff"/><path d="M75.5,214.64V203.55h-3v-5.81h3v-5.19H84v5.19h4.91v5.81H84v10.28c0,1.81.91,2.62,2.53,2.62A6.37,6.37,0,0,0,89,216v6.48a17.66,17.66,0,0,1-4.71.71C78.64,223.21,75.5,220.5,75.5,214.64Z" fill="#fff"/><path d="M92.16,186.79h8.52v15a8.8,8.8,0,0,1,8.19-4.66c4.81,0,8.14,3,8.14,9.38v16.18h-8.52V208.17c0-2.81-1.09-4.19-3.57-4.19s-4.24,1.52-4.24,4.71v13.95H92.16Z" fill="#fff"/><path d="M121,191a4.44,4.44,0,0,1,4.66-4.42,4.41,4.41,0,1,1,0,8.8A4.41,4.41,0,0,1,121,191Zm.43,6.76h8.52v24.9h-8.52Z" fill="#fff"/><path d="M134.48,197.74H143v4a8.78,8.78,0,0,1,8.19-4.66c4.81,0,8.14,3,8.14,9.38v16.18h-8.52V208.17c0-2.81-1.1-4.19-3.57-4.19S143,205.5,143,208.69v13.95h-8.52Z" fill="#fff"/><path d="M21.52,247.34H30v3.81a8.72,8.72,0,0,1,7.81-4.47c3.29,0,5.57,1.43,6.76,4.14a9.88,9.88,0,0,1,8.24-4.14c4.71,0,8.14,3,8.14,9.28v16.28H52.47V257.39c0-2.52-1.24-3.76-3.19-3.76-2.29,0-3.81,1.47-3.81,4.19v14.42H37V257.39c0-2.52-1.23-3.76-3.19-3.76-2.28,0-3.81,1.47-3.81,4.19v14.42H21.52Z" fill="#fff"/><path d="M64.93,240.58A4.7,4.7,0,1,1,69.6,245,4.45,4.45,0,0,1,64.93,240.58Zm.43,6.76h8.52v24.9H65.36Z" fill="#fff"/><path d="M78.45,247.34H87v4a8.8,8.8,0,0,1,8.19-4.66c4.81,0,8.14,3,8.14,9.38v16.18H94.78V257.77c0-2.81-1.09-4.19-3.57-4.19S87,255.1,87,258.29v13.95H78.45Z" fill="#fff"/><path d="M107.25,263.58V247.34h8.52V262.2c0,2.81,1.1,4.19,3.52,4.19,2.58,0,4.24-1.53,4.24-4.72V247.34h8.52v24.9h-8.52v-3.85c-1.33,2.57-3.76,4.42-7.9,4.42C110.82,272.81,107.25,269.86,107.25,263.58Z" fill="#fff"/><path d="M137.52,264.24V253.15h-3v-5.81h3v-5.19H146v5.19H151v5.81H146v10.29a2.27,2.27,0,0,0,2.53,2.61,6.46,6.46,0,0,0,2.43-.43v6.48a17.82,17.82,0,0,1-4.72.71C140.67,272.81,137.52,270.1,137.52,264.24Z" fill="#fff"/><path d="M152.85,260.1v-.38c0-8,6-13,13.47-13,6.81,0,12.67,3.9,12.67,12.85v2.24H161.47c.24,3.28,2.14,5.19,5.19,5.19,2.8,0,4-1.29,4.33-2.95h8c-.77,5.61-5.1,8.8-12.62,8.8C158.56,272.81,152.85,268.24,152.85,260.1ZM170.7,257c-.14-3-1.62-4.67-4.38-4.67-2.57,0-4.33,1.67-4.76,4.67Z" fill="#fff"/><path d="M180.5,264.34h7.86c.29,1.81,1.1,2.81,3.52,2.81,2.1,0,3.05-.81,3.05-2s-1.19-1.76-4.62-2.24c-6.66-.85-9.47-2.81-9.47-8,0-5.53,4.9-8.19,10.66-8.19,6.14,0,10.43,2.09,11,8h-7.71c-.34-1.66-1.24-2.47-3.19-2.47s-2.81.81-2.81,1.95,1.14,1.67,4.19,2.05c6.9.85,10.23,2.66,10.23,8,0,5.91-4.38,8.57-11.28,8.57C184.84,272.81,180.7,269.86,180.5,264.34Z" fill="#fff"/><path d="M213.3,260.1v-.38c0-8,5.95-13,13.66-13s13.57,4.9,13.57,12.8v.38c0,8.1-5.95,12.95-13.61,12.95S213.3,268.15,213.3,260.1Zm18.57-.14v-.38c0-4.19-1.67-6.52-4.91-6.52s-5,2.23-5,6.42v.38c0,4.29,1.67,6.62,5,6.62S231.87,264.1,231.87,260Z" fill="#fff"/><path d="M244.81,253.15h-3.14v-5.81h3.14v-2.19c0-6.19,3.86-9.14,9.76-9.14a15.08,15.08,0,0,1,3.91.53v6.23a7.92,7.92,0,0,0-2.34-.33c-2,0-2.85,1.1-2.85,2.71v2.19h5v5.81h-5v19.09h-8.48Z" fill="#fff"/><path d="M22.81,302.75H19.67v-5.81h3.14v-2.19c0-6.19,3.86-9.14,9.76-9.14a14.94,14.94,0,0,1,3.9.53v6.23a7.85,7.85,0,0,0-2.33-.33c-2,0-2.86,1.1-2.86,2.71v2.19h5v5.81h-5v19.09H22.81Z" fill="#fff"/><path d="M39,290.18a4.45,4.45,0,0,1,4.67-4.42,4.41,4.41,0,1,1,0,8.8A4.41,4.41,0,0,1,39,290.18Zm.43,6.76h8.52v24.9H39.42Z" fill="#fff"/><path d="M52.75,286h8.47v35.85H52.75Z" fill="#fff"/><path d="M65.6,290.18a4.7,4.7,0,1,1,4.67,4.38A4.45,4.45,0,0,1,65.6,290.18Zm.43,6.76h8.52v24.9H66Z" fill="#fff"/><path d="M79.12,296.94h8.52v4a8.79,8.79,0,0,1,8.19-4.66c4.81,0,8.14,3,8.14,9.38v16.18H95.45V307.37c0-2.81-1.1-4.19-3.57-4.19s-4.24,1.52-4.24,4.71v13.95H79.12Z" fill="#fff"/><path d="M106.73,321.84h8.47c.38,1.81,1.48,3.24,4.57,3.24,3.76,0,5.28-2.14,5.28-5.24V316a8.69,8.69,0,0,1-7.71,4.57c-5.81,0-10.57-4.28-10.57-11.94v-.39c0-7.33,4.72-12,10.57-12,4,0,6.29,1.66,7.71,4.19v-3.53h8.53v22.81c0,7.42-4.91,11.33-13.81,11.33C111.3,331.08,107.39,327.51,106.73,321.84Zm18.56-13.23v-.34c0-3.42-1.76-5.61-4.9-5.61s-4.9,2.23-4.9,5.66v.38c0,3.43,1.8,5.62,4.85,5.62S125.29,312.13,125.29,308.61Z" fill="#fff"/><path d="M137.57,317.56a4.75,4.75,0,0,1,4.86-4.81,4.81,4.81,0,1,1,0,9.62A4.75,4.75,0,0,1,137.57,317.56Z" fill="#fff"/><path d="M20.71,355.16v-1.43c0-10.76,6.72-16.8,15.71-16.8s15.71,5.57,15.71,16.61v1.34c0,10.8-6.18,17.13-15.9,17.13C26.71,372,20.71,365.87,20.71,355.16Zm21.67-.09v-1.39c0-6.23-1.81-9.37-6-9.37s-6,3.09-6,9.37v1.43c0,6.34,1.86,9.33,6.05,9.33S42.38,361.35,42.38,355.07Z" fill="#fff"/><path d="M54,345.5c0-4.81,3.85-8.48,9-8.48s9,3.48,9,8.33-3.52,8.76-9.05,8.76S54,350.4,54,345.5Zm28-8.1h4.66l-23.61,34H58.41Zm-16.28,8.1c0-2.24-1-3.62-2.72-3.62s-2.81,1.33-2.81,3.57,1.05,3.71,2.81,3.71S65.75,347.73,65.75,345.5Zm7.18,17.9c0-4.86,3.91-8.48,9-8.48s9,3.43,9,8.33-3.53,8.76-9,8.76S72.93,368.3,72.93,363.4Zm11.81,0c0-2.19-.95-3.57-2.76-3.57s-2.76,1.33-2.76,3.57S80.27,367,82,367,84.74,365.63,84.74,363.35Z" fill="#fff"/><path d="M102.44,339.78a4.7,4.7,0,1,1,4.67,4.38A4.45,4.45,0,0,1,102.44,339.78Zm.43,6.76h8.52v24.9h-8.52Z" fill="#fff"/><path d="M116,346.54h8.52v4a8.8,8.8,0,0,1,8.19-4.66c4.81,0,8.14,3,8.14,9.38v16.18h-8.52V357c0-2.81-1.09-4.19-3.57-4.19s-4.24,1.52-4.24,4.71v13.95H116Z" fill="#fff"/><path d="M146.09,363.44V352.35h-3v-5.81h3v-5.19h8.52v5.19h4.91v5.81h-4.91v10.28c0,1.81.91,2.62,2.53,2.62a6.57,6.57,0,0,0,2.42-.42v6.47a18.08,18.08,0,0,1-4.71.71C149.23,372,146.09,369.3,146.09,363.44Z" fill="#fff"/><path d="M161.42,359.3v-.38c0-8,6-13,13.47-13,6.81,0,12.66,3.9,12.66,12.85V361H170c.23,3.28,2.14,5.19,5.18,5.19,2.81,0,4-1.29,4.34-3h8c-.76,5.61-5.09,8.8-12.61,8.8C167.13,372,161.42,367.44,161.42,359.3Zm17.85-3.14c-.14-3-1.62-4.66-4.38-4.66-2.57,0-4.33,1.66-4.76,4.66Z" fill="#fff"/><path d="M190.5,346.54H199v5a7.84,7.84,0,0,1,8-5.29v8c-5.19-.14-8,1.48-8,5.48v11.8H190.5Z" fill="#fff"/><path d="M208.59,359.3v-.38c0-8,5.95-13,13.47-13,6.81,0,12.67,3.9,12.67,12.85V361H217.21c.23,3.28,2.14,5.19,5.19,5.19,2.81,0,4-1.29,4.33-3h8c-.77,5.61-5.1,8.8-12.62,8.8C214.3,372,208.59,367.44,208.59,359.3Zm17.85-3.14c-.14-3-1.62-4.66-4.38-4.66-2.57,0-4.33,1.66-4.76,4.66Z" fill="#fff"/><path d="M236.24,363.54h7.86c.28,1.81,1.09,2.81,3.52,2.81,2.1,0,3-.81,3-2.05s-1.19-1.76-4.62-2.24c-6.66-.85-9.47-2.81-9.47-8,0-5.53,4.9-8.19,10.66-8.19,6.14,0,10.43,2.09,11,8h-7.71c-.34-1.66-1.24-2.47-3.19-2.47s-2.81.81-2.81,1.95,1.14,1.67,4.19,2.05c6.9.85,10.23,2.66,10.23,8,0,5.91-4.38,8.57-11.28,8.57C240.58,372,236.43,369.06,236.24,363.54Z" fill="#fff"/><path d="M262.85,363.44V352.35h-3v-5.81h3v-5.19h8.53v5.19h4.9v5.81h-4.9v10.28c0,1.81.9,2.62,2.52,2.62a6.66,6.66,0,0,0,2.43-.42v6.47a18.24,18.24,0,0,1-4.72.71C266,372,262.85,369.3,262.85,363.44Z" fill="#fff"/><path d="M21.76,385.19h8.48V421H21.76Z" fill="#fff"/><path d="M33.47,408.9v-.38c0-8,6-13,13.66-13s13.57,4.9,13.57,12.8v.38c0,8.1-6,12.95-13.61,12.95S33.47,417,33.47,408.9ZM52,408.76v-.38c0-4.19-1.67-6.52-4.91-6.52s-5,2.23-5,6.42v.38c0,4.29,1.67,6.62,5,6.62S52,412.9,52,408.76Z" fill="#fff"/><path d="M62.27,414.14c0-5.86,4.95-8.14,13.23-8.14h2.38v-.57c0-2.38-.57-3.95-3.28-3.95a3.06,3.06,0,0,0-3.38,2.95h-8c.38-6,5.09-8.95,11.9-8.95s11.24,2.81,11.24,9.42V421H78.07v-2.9c-1.19,1.81-3.38,3.47-7.38,3.47C66.22,421.61,62.27,419.42,62.27,414.14Zm15.61-1.81v-1.52H75.65c-3.43,0-5,.66-5,2.71,0,1.43,1,2.33,3,2.33C76.07,415.85,77.88,414.47,77.88,412.33Z" fill="#fff"/><path d="M90.49,396.14H99v4a8.77,8.77,0,0,1,8.18-4.66c4.81,0,8.15,3,8.15,9.38V421h-8.53V406.57c0-2.81-1.09-4.19-3.57-4.19S99,403.9,99,407.09v14H90.49Z" fill="#fff"/><path d="M119.15,416.76A4.75,4.75,0,0,1,124,412a4.81,4.81,0,1,1,0,9.62A4.75,4.75,0,0,1,119.15,416.76Z" fill="#fff"/></g></g><g id="Legal"><g id="Optional_loan_from_Axos_Bank_within_minutes_of_filing._Not_your" data-name="Optional loan from Axos Bank within minutes of filing. Not your"><path d="M20.5,465v-.08a3.16,3.16,0,1,1,6.31,0v.07a3.16,3.16,0,1,1-6.31,0Zm5.5,0v-.07a2.37,2.37,0,0,0-2.34-2.61,2.34,2.34,0,0,0-2.35,2.62v.08a2.42,2.42,0,0,0,2.37,2.62A2.35,2.35,0,0,0,26,464.92Z" fill="#fff"/><path d="M27.92,463.42h.75v.79a1.94,1.94,0,0,1,1.59-.88,2.14,2.14,0,0,1,2.14,2.37v.07a2.17,2.17,0,0,1-2.14,2.43,1.78,1.78,0,0,1-1.59-.85v2.41h-.75Zm3.71,2.39v-.07c0-1.19-.66-1.78-1.45-1.78s-1.54.57-1.54,1.78v.07c0,1.21.63,1.77,1.55,1.77S31.63,467,31.63,465.81Z" fill="#fff"/><path d="M33.59,466.94V464h-.67v-.62h.67v-1.08h.75v1.08h1.1V464h-1.1v2.83c0,.46.2.69.58.69a1.59,1.59,0,0,0,.58-.1v.63a1.85,1.85,0,0,1-.64.1A1.15,1.15,0,0,1,33.59,466.94Z" fill="#fff"/><path d="M36.37,461.94a.51.51,0,0,1,.5-.5.5.5,0,0,1,.49.5.49.49,0,0,1-.49.49A.5.5,0,0,1,36.37,461.94Zm.14,1.48h.74v4.7h-.74Z" fill="#fff"/><path d="M38.3,465.81v-.07a2.31,2.31,0,1,1,4.62,0v.07a2.31,2.31,0,1,1-4.62,0Zm3.85,0v-.06c0-1.09-.6-1.79-1.54-1.79a1.56,1.56,0,0,0-1.54,1.78v.07a1.55,1.55,0,1,0,3.08,0Z" fill="#fff"/><path d="M44,463.42h.75v.74a1.6,1.6,0,0,1,1.51-.83c1,0,1.66.53,1.66,1.9v2.89h-.75v-2.94c0-.83-.35-1.2-1.11-1.2a1.24,1.24,0,0,0-1.31,1.29v2.85H44Z" fill="#fff"/><path d="M48.81,466.82c0-1.09,1.15-1.46,2.36-1.46h.67V465c0-.75-.29-1.06-1-1.06s-1,.26-1.08.84H49a1.65,1.65,0,0,1,1.86-1.47A1.52,1.52,0,0,1,52.59,465v3.1h-.75v-.59a1.68,1.68,0,0,1-1.46.67C49.5,468.2,48.81,467.78,48.81,466.82Zm3-.34v-.59h-.65c-.94,0-1.63.23-1.63.93,0,.48.23.79.89.79S51.84,467.21,51.84,466.48Z" fill="#fff"/><path d="M53.94,461.16h.75v7h-.75Z" fill="#fff"/><path d="M58.36,461.16h.75v7h-.75Z" fill="#fff"/><path d="M60.16,465.81v-.07a2.32,2.32,0,1,1,4.63,0v.07a2.32,2.32,0,1,1-4.63,0Zm3.85,0v-.06c0-1.09-.6-1.79-1.54-1.79a1.56,1.56,0,0,0-1.54,1.78v.07a1.55,1.55,0,1,0,3.08,0Z" fill="#fff"/><path d="M65.42,466.82c0-1.09,1.15-1.46,2.36-1.46h.68V465c0-.75-.29-1.06-1-1.06s-1,.26-1.08.84h-.75a1.65,1.65,0,0,1,1.86-1.47A1.52,1.52,0,0,1,69.2,465v3.1h-.74v-.59a1.7,1.7,0,0,1-1.47.67C66.12,468.2,65.42,467.78,65.42,466.82Zm3-.34v-.59h-.65c-1,0-1.64.23-1.64.93,0,.48.23.79.89.79S68.46,467.21,68.46,466.48Z" fill="#fff"/><path d="M70.53,463.42h.75v.74a1.63,1.63,0,0,1,1.51-.83c1,0,1.66.53,1.66,1.9v2.89H73.7v-2.94c0-.83-.35-1.2-1.1-1.2a1.24,1.24,0,0,0-1.32,1.29v2.85h-.75Z" fill="#fff"/><path d="M78.19,464h-.67v-.62h.67v-.77c0-.95.47-1.51,1.41-1.51a1.4,1.4,0,0,1,.56.09v.63a1.41,1.41,0,0,0-.54-.1c-.48,0-.68.33-.68.81v.85h1.15V464H78.94v4.08h-.75Z" fill="#fff"/><path d="M81,463.42h.75v.84a1.64,1.64,0,0,1,1.55-.93V464c-1,0-1.55.34-1.55,1.5v2.58H81Z" fill="#fff"/><path d="M83.77,465.81v-.07a2.32,2.32,0,1,1,4.63,0v.07a2.32,2.32,0,1,1-4.63,0Zm3.86,0v-.06c0-1.09-.61-1.79-1.54-1.79s-1.54.7-1.54,1.78v.07c0,1.07.58,1.77,1.54,1.77A1.57,1.57,0,0,0,87.63,465.81Z" fill="#fff"/><path d="M89.43,463.42h.74v.71a1.54,1.54,0,0,1,1.41-.8,1.36,1.36,0,0,1,1.37.89,1.83,1.83,0,0,1,1.62-.89c.84,0,1.58.51,1.58,1.88v2.91H95.4v-3c0-.83-.35-1.17-1-1.17a1.21,1.21,0,0,0-1.24,1.26v2.88h-.75v-3c0-.83-.35-1.17-1-1.17a1.21,1.21,0,0,0-1.25,1.26v2.88h-.74Z" fill="#fff"/><path d="M101.51,461.69h1l2.18,6.43h-.78l-.63-1.85h-2.65l-.62,1.85H99.3Zm-.64,4h2.24L102,462.33Z" fill="#fff"/><path d="M106.84,465.7l-1.57-2.28h.87l1.15,1.7,1.14-1.7h.81l-1.55,2.23,1.72,2.47h-.89l-1.27-1.9-1.29,1.9h-.8Z" fill="#fff"/><path d="M109.7,465.81v-.07a2.32,2.32,0,1,1,4.63,0v.07a2.32,2.32,0,1,1-4.63,0Zm3.86,0v-.06c0-1.09-.61-1.79-1.54-1.79s-1.54.7-1.54,1.78v.07c0,1.07.58,1.77,1.54,1.77A1.57,1.57,0,0,0,113.56,465.81Z" fill="#fff"/><path d="M115,466.67h.73c0,.56.35.91,1.1.91s1-.24,1-.74-.37-.66-1.1-.8c-1.22-.22-1.64-.56-1.64-1.38a1.47,1.47,0,0,1,1.6-1.33,1.51,1.51,0,0,1,1.7,1.36h-.72c-.11-.51-.4-.73-1-.73s-.89.26-.89.67.23.59,1.09.75,1.66.39,1.66,1.39-.58,1.43-1.73,1.43S115,467.64,115,466.67Z" fill="#fff"/><path d="M121.84,461.69h1.94c1.2,0,2.07.39,2.07,1.66v0a1.32,1.32,0,0,1-1,1.36,1.41,1.41,0,0,1,1.28,1.54v0c0,1.22-.82,1.8-2.11,1.8h-2.21Zm1.94,2.81c.94,0,1.3-.35,1.3-1.14v0c0-.72-.42-1-1.32-1h-1.15v2.2Zm.25,3c.94,0,1.37-.41,1.37-1.2v0c0-.79-.44-1.17-1.48-1.17h-1.31v2.4Z" fill="#fff"/><path d="M126.86,466.82c0-1.09,1.16-1.46,2.36-1.46h.68V465c0-.75-.29-1.06-1-1.06s-1,.26-1.08.84h-.75a1.66,1.66,0,0,1,1.87-1.47,1.52,1.52,0,0,1,1.72,1.69v3.1h-.75v-.59a1.7,1.7,0,0,1-1.47.67C127.56,468.2,126.86,467.78,126.86,466.82Zm3-.34v-.59h-.65c-.94,0-1.64.23-1.64.93,0,.48.24.79.89.79C129.3,467.61,129.9,467.21,129.9,466.48Z" fill="#fff"/><path d="M132,463.42h.74v.74a1.63,1.63,0,0,1,1.52-.83c1,0,1.65.53,1.65,1.9v2.89h-.74v-2.94c0-.83-.36-1.2-1.11-1.2a1.24,1.24,0,0,0-1.32,1.29v2.85H132Z" fill="#fff"/><path d="M137.22,461.16H138v4.42l1.95-2.16h.88l-2,2.18,2.19,2.52h-.91L138,465.68v2.44h-.75Z" fill="#fff"/><path d="M143.48,463.42h.81l1.1,3.79,1.14-3.79h.65l1.07,3.79,1.11-3.79h.76l-1.46,4.7h-.83l-1-3.53-1.1,3.53h-.82Z" fill="#fff"/><path d="M150.88,461.94a.5.5,0,0,1,.49-.5.51.51,0,0,1,.5.5.5.5,0,0,1-.5.49A.49.49,0,0,1,150.88,461.94Zm.13,1.48h.75v4.7H151Z" fill="#fff"/><path d="M153.32,466.94V464h-.68v-.62h.68v-1.08h.74v1.08h1.1V464h-1.1v2.83c0,.46.21.69.59.69a1.57,1.57,0,0,0,.57-.1v.63a1.85,1.85,0,0,1-.64.1A1.14,1.14,0,0,1,153.32,466.94Z" fill="#fff"/><path d="M156.21,461.16H157v3a1.63,1.63,0,0,1,1.51-.83c1,0,1.66.53,1.66,1.9v2.89h-.75v-2.94c0-.83-.35-1.2-1.1-1.2a1.24,1.24,0,0,0-1.32,1.29v2.85h-.75Z" fill="#fff"/><path d="M161.34,461.94a.51.51,0,0,1,.5-.5.5.5,0,0,1,.49.5.49.49,0,0,1-.49.49A.5.5,0,0,1,161.34,461.94Zm.14,1.48h.75v4.7h-.75Z" fill="#fff"/><path d="M163.62,463.42h.75v.74a1.61,1.61,0,0,1,1.51-.83c1,0,1.66.53,1.66,1.9v2.89h-.75v-2.94c0-.83-.35-1.2-1.11-1.2a1.24,1.24,0,0,0-1.31,1.29v2.85h-.75Z" fill="#fff"/><path d="M171.12,463.42h.74v.71a1.54,1.54,0,0,1,1.41-.8,1.38,1.38,0,0,1,1.38.89,1.8,1.8,0,0,1,1.61-.89c.84,0,1.58.51,1.58,1.88v2.91h-.75v-3c0-.83-.35-1.17-1-1.17a1.21,1.21,0,0,0-1.25,1.26v2.88h-.74v-3c0-.83-.36-1.17-1-1.17a1.21,1.21,0,0,0-1.25,1.26v2.88h-.74Z" fill="#fff"/><path d="M179.05,461.94a.51.51,0,0,1,.5-.5.5.5,0,0,1,.49.5.49.49,0,0,1-.49.49A.5.5,0,0,1,179.05,461.94Zm.14,1.48h.75v4.7h-.75Z" fill="#fff"/><path d="M181.33,463.42h.75v.74a1.61,1.61,0,0,1,1.51-.83c1,0,1.66.53,1.66,1.9v2.89h-.75v-2.94c0-.83-.35-1.2-1.11-1.2a1.24,1.24,0,0,0-1.31,1.29v2.85h-.75Z" fill="#fff"/><path d="M186.53,466.39v-3h.75v2.94c0,.83.35,1.2,1.09,1.2a1.25,1.25,0,0,0,1.3-1.29v-2.85h.74v4.7h-.74v-.74a1.61,1.61,0,0,1-1.5.82C187.24,468.2,186.53,467.69,186.53,466.39Z" fill="#fff"/><path d="M192,466.94V464h-.67v-.62H192v-1.08h.75v1.08h1.1V464h-1.1v2.83c0,.46.21.69.58.69a1.59,1.59,0,0,0,.58-.1v.63a1.85,1.85,0,0,1-.64.1A1.15,1.15,0,0,1,192,466.94Z" fill="#fff"/><path d="M194.5,465.82v-.07a2.22,2.22,0,0,1,2.2-2.42,2.06,2.06,0,0,1,2.12,2.34v.25h-3.55c0,1.07.55,1.66,1.52,1.66.72,0,1.15-.27,1.25-.82h.74a1.8,1.8,0,0,1-2,1.44A2.21,2.21,0,0,1,194.5,465.82Zm3.55-.51c-.07-1-.57-1.35-1.35-1.35a1.41,1.41,0,0,0-1.4,1.35Z" fill="#fff"/><path d="M199.48,466.67h.73c.06.56.35.91,1.11.91s1-.24,1-.74-.37-.66-1.1-.8c-1.23-.22-1.64-.56-1.64-1.38a1.47,1.47,0,0,1,1.59-1.33,1.52,1.52,0,0,1,1.71,1.36h-.72c-.11-.51-.4-.73-1-.73s-.9.26-.9.67.24.59,1.1.75,1.66.39,1.66,1.39-.59,1.43-1.73,1.43S199.53,467.64,199.48,466.67Z" fill="#fff"/><path d="M206,465.81v-.07a2.31,2.31,0,1,1,4.62,0v.07a2.31,2.31,0,1,1-4.62,0Zm3.85,0v-.06c0-1.09-.6-1.79-1.54-1.79s-1.54.7-1.54,1.78v.07a1.55,1.55,0,1,0,3.08,0Z" fill="#fff"/><path d="M211.77,464h-.68v-.62h.68v-.77c0-.95.47-1.51,1.4-1.51a1.37,1.37,0,0,1,.56.09v.63a1.32,1.32,0,0,0-.53-.1c-.49,0-.68.33-.68.81v.85h1.15V464h-1.15v4.08h-.75Z" fill="#fff"/><path d="M217,464h-.68v-.62H217v-.77c0-.95.47-1.51,1.4-1.51a1.37,1.37,0,0,1,.56.09v.63a1.32,1.32,0,0,0-.53-.1c-.49,0-.68.33-.68.81v.85h1.15V464h-1.15v4.08H217Z" fill="#fff"/><path d="M219.7,461.94a.5.5,0,0,1,.49-.5.51.51,0,0,1,.5.5.5.5,0,0,1-.5.49A.49.49,0,0,1,219.7,461.94Zm.13,1.48h.75v4.7h-.75Z" fill="#fff"/><path d="M222,461.16h.76v7H222Z" fill="#fff"/><path d="M224,461.94a.5.5,0,0,1,.49-.5.51.51,0,0,1,.5.5.5.5,0,0,1-.5.49A.49.49,0,0,1,224,461.94Zm.13,1.48h.75v4.7h-.75Z" fill="#fff"/><path d="M226.3,463.42h.75v.74a1.63,1.63,0,0,1,1.51-.83c1,0,1.66.53,1.66,1.9v2.89h-.75v-2.94c0-.83-.35-1.2-1.1-1.2a1.24,1.24,0,0,0-1.32,1.29v2.85h-.75Z" fill="#fff"/><path d="M231.3,468.39h.76c.11.54.56.82,1.36.82a1.33,1.33,0,0,0,1.52-1.45v-.68a2,2,0,0,1-1.6.89,2.12,2.12,0,0,1-2.14-2.23v-.07a2.23,2.23,0,0,1,2.2-2.34,1.69,1.69,0,0,1,1.54.84v-.75h.74v4.39a2,2,0,0,1-2.25,2C232,469.84,231.42,469.19,231.3,468.39Zm3.66-2.71v-.06a1.45,1.45,0,0,0-1.49-1.66,1.5,1.5,0,0,0-1.5,1.68v.07a1.49,1.49,0,0,0,1.45,1.64A1.51,1.51,0,0,0,235,465.68Z" fill="#fff"/><path d="M237,467.59a.58.58,0,1,1,.57.58A.57.57,0,0,1,237,467.59Z" fill="#fff"/><path d="M20.81,470.69h1L25,476v-5.32h.75v6.43h-.9l-3.25-5.52v5.52h-.75Z" fill="#fff"/><path d="M26.79,474.81v-.07a2.31,2.31,0,1,1,4.62,0v.07a2.31,2.31,0,1,1-4.62,0Zm3.85,0v-.06c0-1.09-.6-1.79-1.54-1.79s-1.54.7-1.54,1.78v.07a1.55,1.55,0,1,0,3.08,0Z" fill="#fff"/><path d="M32.6,475.94V473h-.68v-.62h.68v-1.08h.75v1.08h1.1V473h-1.1v2.83c0,.46.2.69.58.69a1.59,1.59,0,0,0,.58-.1v.63a1.85,1.85,0,0,1-.64.1A1.15,1.15,0,0,1,32.6,475.94Z" fill="#fff"/><path d="M39.06,476.64l-1.84-4.22H38l1.44,3.37,1.3-3.37h.77l-2.6,6.34h-.76Z" fill="#fff"/><path d="M41.89,474.81v-.07a2.32,2.32,0,1,1,4.63,0v.07a2.32,2.32,0,1,1-4.63,0Zm3.85,0v-.06c0-1.09-.6-1.79-1.54-1.79a1.56,1.56,0,0,0-1.54,1.78v.07a1.55,1.55,0,1,0,3.08,0Z" fill="#fff"/><path d="M47.5,475.39v-3h.74v2.94c0,.83.35,1.2,1.09,1.2a1.25,1.25,0,0,0,1.3-1.29v-2.85h.75v4.7h-.75v-.74a1.61,1.61,0,0,1-1.5.82C48.2,477.2,47.5,476.69,47.5,475.39Z" fill="#fff"/><path d="M52.75,472.42h.75v.84a1.64,1.64,0,0,1,1.55-.93V473c-.95,0-1.55.34-1.55,1.5v2.58h-.75Z" fill="#fff"/><path d="M58.41,475.94V473h-.67v-.62h.67v-1.08h.75v1.08h1.1V473h-1.1v2.83c0,.46.21.69.58.69a1.59,1.59,0,0,0,.58-.1v.63a1.85,1.85,0,0,1-.64.1A1.15,1.15,0,0,1,58.41,475.94Z" fill="#fff"/><path d="M61,475.82c0-1.09,1.15-1.46,2.36-1.46H64V474c0-.75-.29-1.06-1-1.06s-1,.26-1.08.84h-.74A1.64,1.64,0,0,1,63,472.33,1.52,1.52,0,0,1,64.75,474v3.1H64v-.59a1.69,1.69,0,0,1-1.47.67C61.66,477.2,61,476.78,61,475.82Zm3-.34v-.59h-.65c-.94,0-1.64.23-1.64.93,0,.48.24.79.9.79S64,476.21,64,475.48Z" fill="#fff"/><path d="M67.26,474.7l-1.58-2.28h.88l1.15,1.7,1.14-1.7h.81l-1.56,2.23,1.72,2.47h-.88l-1.27-1.9-1.29,1.9h-.8Z" fill="#fff"/><path d="M73,472.42h.74v.84a1.66,1.66,0,0,1,1.55-.93V473c-.94,0-1.55.34-1.55,1.5v2.58H73Z" fill="#fff"/><path d="M75.71,474.82v-.07a2.22,2.22,0,0,1,2.21-2.42A2.06,2.06,0,0,1,80,474.67v.25H76.48c0,1.07.55,1.66,1.52,1.66.73,0,1.15-.27,1.25-.82H80a1.8,1.8,0,0,1-2,1.44A2.21,2.21,0,0,1,75.71,474.82Zm3.56-.51c-.08-1-.58-1.35-1.35-1.35a1.41,1.41,0,0,0-1.41,1.35Z" fill="#fff"/><path d="M81.2,473h-.68v-.62h.68v-.77c0-.95.47-1.51,1.4-1.51a1.37,1.37,0,0,1,.56.09v.63a1.32,1.32,0,0,0-.53-.1c-.49,0-.68.33-.68.81v.85H83.1V473H82v4.08H81.2Z" fill="#fff"/><path d="M84,475.39v-3h.75v2.94c0,.83.35,1.2,1.09,1.2a1.24,1.24,0,0,0,1.29-1.29v-2.85h.75v4.7H87.1v-.74a1.59,1.59,0,0,1-1.49.82C84.67,477.2,84,476.69,84,475.39Z" fill="#fff"/><path d="M89.23,472.42H90v.74a1.63,1.63,0,0,1,1.52-.83c1,0,1.65.53,1.65,1.9v2.89H92.4v-2.94c0-.83-.36-1.2-1.11-1.2A1.24,1.24,0,0,0,90,474.27v2.85h-.74Z" fill="#fff"/><path d="M94.12,474.86v-.07a2.24,2.24,0,0,1,2.2-2.46,1.69,1.69,0,0,1,1.54.84v-3h.75v7h-.75v-.81a2,2,0,0,1-1.61.89A2.1,2.1,0,0,1,94.12,474.86Zm3.77-.06v-.07c0-1.21-.58-1.77-1.5-1.77s-1.49.65-1.49,1.79v.08c0,1.19.64,1.75,1.43,1.75S97.89,476,97.89,474.8Z" fill="#fff"/><path d="M99.92,476.59a.58.58,0,1,1,.58.58A.57.57,0,0,1,99.92,476.59Z" fill="#fff"/></g></g></g></svg>