<svg xmlns="http://www.w3.org/2000/svg" viewBox="0 0 728 90"><title>Asset 3</title><g id="Layer_2" data-name="Layer 2"><g id="rect"><rect width="728" height="90" fill="none"/></g><g id="Still_open._Still_maximizing_refunds." data-name="Still open. Still maximizing refunds."><path d="M116.6,47.06h5.07c.13,1.33.73,2.42,2.94,2.42,1.53,0,2.39-.75,2.39-1.85s-.7-1.45-2.94-1.79c-5.25-.62-7-2.18-7-5.93,0-3.35,2.76-5.8,7.2-5.8s7,1.88,7.33,5.8h-4.94a2.11,2.11,0,0,0-2.39-2c-1.43,0-2.16.65-2.16,1.59s.58,1.5,2.89,1.82c4.71.52,7.12,1.74,7.12,5.77,0,3.41-2.7,6.19-7.48,6.19C119.41,53.28,116.75,51.09,116.6,47.06Z" fill="#fff"/><path d="M134.43,48.6V42.54H132.8V39.37h1.63V36.53h4.66v2.84h2.68v3.17h-2.68v5.61c0,1,.49,1.43,1.38,1.43a3.42,3.42,0,0,0,1.32-.23v3.54a10,10,0,0,1-2.57.39C136.15,53.28,134.43,51.79,134.43,48.6Z" fill="#fff"/><path d="M143.43,35.67a2.57,2.57,0,1,1,2.55,2.4A2.43,2.43,0,0,1,143.43,35.67Zm.23,3.7h4.66V53h-4.66Z" fill="#fff"/><path d="M150.94,33.39h4.63V53h-4.63Z" fill="#fff"/><path d="M158.2,33.39h4.63V53H158.2Z" fill="#fff"/><path d="M169.32,46.33v-.2c0-4.37,3.25-7.13,7.47-7.13s7.41,2.68,7.41,7v.21c0,4.42-3.25,7.07-7.44,7.07S169.32,50.73,169.32,46.33Zm10.14-.07v-.21c0-2.29-.91-3.56-2.67-3.56s-2.71,1.22-2.71,3.51v.21c0,2.33.91,3.61,2.71,3.61S179.46,48.52,179.46,46.26Z" fill="#fff"/><path d="M185.83,39.37h4.66v2A4.79,4.79,0,0,1,194.73,39c3.17,0,5.74,2.39,5.74,7v.21c0,4.68-2.57,7-5.77,7A4.49,4.49,0,0,1,190.49,51v6.55h-4.66Zm9.91,6.89v-.21c0-2.39-1-3.54-2.68-3.54s-2.7,1.22-2.7,3.51v.21c0,2.31,1,3.48,2.7,3.48S195.74,48.49,195.74,46.26Z" fill="#fff"/><path d="M201.43,46.33v-.2c0-4.37,3.25-7.13,7.36-7.13,3.72,0,6.92,2.13,6.92,7v1.22h-9.57A2.72,2.72,0,0,0,209,50.08c1.54,0,2.19-.7,2.37-1.61h4.37c-.42,3.07-2.78,4.81-6.89,4.81C204.55,53.28,201.43,50.78,201.43,46.33Zm9.75-1.71c-.07-1.64-.88-2.55-2.39-2.55a2.59,2.59,0,0,0-2.6,2.55Z" fill="#fff"/><path d="M217.32,39.37H222v2.18A4.81,4.81,0,0,1,226.45,39c2.62,0,4.44,1.64,4.44,5.12V53h-4.65v-7.9c0-1.53-.6-2.29-2-2.29S222,43.6,222,45.35V53h-4.65Z" fill="#fff"/><path d="M233,50.63A2.59,2.59,0,0,1,235.62,48a2.63,2.63,0,1,1,0,5.25A2.59,2.59,0,0,1,233,50.63Z" fill="#fff"/><path d="M244.49,47.06h5.07c.13,1.33.73,2.42,2.94,2.42,1.53,0,2.39-.75,2.39-1.85s-.7-1.45-2.94-1.79c-5.25-.62-7-2.18-7-5.93,0-3.35,2.76-5.8,7.2-5.8s7,1.88,7.34,5.8h-5a2.11,2.11,0,0,0-2.39-2c-1.43,0-2.16.65-2.16,1.59s.58,1.5,2.89,1.82c4.71.52,7.13,1.74,7.13,5.77,0,3.41-2.71,6.19-7.49,6.19C247.3,53.28,244.64,51.09,244.49,47.06Z" fill="#fff"/><path d="M262.32,48.6V42.54h-1.63V39.37h1.63V36.53H267v2.84h2.68v3.17H267v5.61c0,1,.49,1.43,1.38,1.43a3.42,3.42,0,0,0,1.32-.23v3.54a10,10,0,0,1-2.57.39C264,53.28,262.32,51.79,262.32,48.6Z" fill="#fff"/><path d="M271.32,35.67a2.57,2.57,0,1,1,2.55,2.4A2.43,2.43,0,0,1,271.32,35.67Zm.23,3.7h4.66V53h-4.66Z" fill="#fff"/><path d="M278.83,33.39h4.63V53h-4.63Z" fill="#fff"/><path d="M286.09,33.39h4.63V53h-4.63Z" fill="#fff"/><path d="M297.94,39.37h4.66v2.08A4.76,4.76,0,0,1,306.86,39a3.7,3.7,0,0,1,3.69,2.26,5.41,5.41,0,0,1,4.5-2.26c2.58,0,4.45,1.67,4.45,5.07V53h-4.66V44.85c0-1.38-.67-2.05-1.74-2.05A2,2,0,0,0,311,45.09V53h-4.6V44.85c0-1.38-.68-2.05-1.74-2.05a2,2,0,0,0-2.08,2.29V53h-4.66Z" fill="#fff"/><path d="M321,49.19c0-3.19,2.7-4.44,7.23-4.44h1.3v-.31c0-1.3-.31-2.16-1.8-2.16a1.66,1.66,0,0,0-1.84,1.61H321.5c.21-3.28,2.78-4.89,6.5-4.89s6.14,1.54,6.14,5.15V53h-4.53V51.38a4.46,4.46,0,0,1-4,1.9C323.14,53.28,321,52.08,321,49.19Zm8.53-1v-.83h-1.22c-1.88,0-2.71.36-2.71,1.48,0,.78.52,1.27,1.61,1.27C328.52,50.13,329.51,49.38,329.51,48.21Z" fill="#fff"/><path d="M339.83,46.05l-4.24-6.68H341l2.1,3.58,2.06-3.58h4.78l-4.29,6.31L350.31,53H345l-2.42-4.05L340.06,53h-4.75Z" fill="#fff"/><path d="M351.5,35.67a2.43,2.43,0,0,1,2.55-2.41,2.41,2.41,0,1,1,0,4.81A2.41,2.41,0,0,1,351.5,35.67Zm.24,3.7h4.65V53h-4.65Z" fill="#fff"/><path d="M358.89,39.37h4.65v2.08A4.76,4.76,0,0,1,367.8,39a3.71,3.71,0,0,1,3.7,2.26A5.4,5.4,0,0,1,376,39c2.57,0,4.44,1.67,4.44,5.07V53h-4.65V44.85c0-1.38-.68-2.05-1.75-2.05A2,2,0,0,0,372,45.09V53h-4.6V44.85c0-1.38-.67-2.05-1.74-2.05a2,2,0,0,0-2.08,2.29V53h-4.65Z" fill="#fff"/><path d="M382.6,35.67a2.57,2.57,0,1,1,2.55,2.4A2.43,2.43,0,0,1,382.6,35.67Zm.23,3.7h4.66V53h-4.66Z" fill="#fff"/><path d="M388.86,52.5l6-9.62h-5.33V39.37h12v.49l-6.1,9.6h5.79V53h-12.3Z" fill="#fff"/><path d="M402.7,35.67a2.57,2.57,0,1,1,2.55,2.4A2.43,2.43,0,0,1,402.7,35.67Zm.23,3.7h4.65V53h-4.65Z" fill="#fff"/><path d="M410.08,39.37h4.66v2.18A4.8,4.8,0,0,1,419.21,39c2.62,0,4.44,1.64,4.44,5.12V53H419v-7.9c0-1.53-.6-2.29-1.95-2.29s-2.31.83-2.31,2.58V53h-4.66Z" fill="#fff"/><path d="M425.16,53h4.63c.21,1,.8,1.77,2.49,1.77a2.57,2.57,0,0,0,2.89-2.86V49.79a4.76,4.76,0,0,1-4.21,2.5c-3.17,0-5.77-2.34-5.77-6.53v-.21c0-4,2.57-6.55,5.77-6.55a4.42,4.42,0,0,1,4.21,2.29V39.37h4.65V51.82c0,4.06-2.67,6.19-7.54,6.19C427.66,58,425.52,56.06,425.16,53Zm10.14-7.22v-.19c0-1.87-1-3.06-2.68-3.06s-2.68,1.22-2.68,3.09v.21c0,1.87,1,3.07,2.66,3.07S435.3,47.66,435.3,45.74Z" fill="#fff"/><path d="M446.92,39.37h4.66v2.7A4.29,4.29,0,0,1,456,39.18v4.35c-2.83-.08-4.39.8-4.39,3V53h-4.66Z" fill="#fff"/><path d="M456.8,46.33v-.2c0-4.37,3.25-7.13,7.36-7.13,3.72,0,6.92,2.13,6.92,7v1.22h-9.57a2.72,2.72,0,0,0,2.83,2.84c1.54,0,2.19-.7,2.37-1.61h4.37c-.42,3.07-2.79,4.81-6.89,4.81C459.92,53.28,456.8,50.78,456.8,46.33Zm9.75-1.71c-.08-1.64-.88-2.55-2.39-2.55a2.59,2.59,0,0,0-2.6,2.55Z" fill="#fff"/><path d="M473.39,42.54h-1.72V39.37h1.72v-1.2c0-3.38,2.11-5,5.33-5a8.53,8.53,0,0,1,2.13.28v3.41a4.4,4.4,0,0,0-1.27-.18A1.37,1.37,0,0,0,478,38.17v1.2h2.76v3.17H478V53h-4.63Z" fill="#fff"/><path d="M482.23,48.23V39.37h4.65v8.11c0,1.53.6,2.29,1.93,2.29s2.31-.84,2.31-2.58V39.37h4.66V53h-4.66v-2.1a4.47,4.47,0,0,1-4.31,2.42C484.18,53.28,482.23,51.67,482.23,48.23Z" fill="#fff"/><path d="M498.14,39.37h4.66v2.18A4.8,4.8,0,0,1,507.27,39c2.62,0,4.44,1.64,4.44,5.12V53h-4.65v-7.9c0-1.53-.6-2.29-1.95-2.29s-2.31.83-2.31,2.58V53h-4.66Z" fill="#fff"/><path d="M513.3,46.31V46.1c0-4.63,2.55-7.1,5.77-7.1a4.41,4.41,0,0,1,4.19,2.29v-7.9h4.65V53h-4.65V50.75A4.59,4.59,0,0,1,519,53.28C515.87,53.28,513.3,51,513.3,46.31Zm10.09-.08V46c0-2.29-1-3.51-2.68-3.51S518,43.68,518,46.05v.21c0,2.28,1,3.45,2.63,3.45S523.39,48.54,523.39,46.23Z" fill="#fff"/><path d="M529.37,48.65h4.29c.15,1,.6,1.53,1.92,1.53,1.15,0,1.67-.44,1.67-1.12s-.65-1-2.53-1.22c-3.64-.46-5.17-1.53-5.17-4.37,0-3,2.68-4.47,5.82-4.47,3.36,0,5.7,1.15,6,4.4h-4.21A1.53,1.53,0,0,0,535.43,42c-1,0-1.54.45-1.54,1.07s.63.91,2.29,1.12c3.77.47,5.59,1.45,5.59,4.37,0,3.22-2.39,4.68-6.16,4.68S529.47,51.67,529.37,48.65Z" fill="#fff"/><path d="M543.1,50.63A2.59,2.59,0,0,1,545.75,48a2.63,2.63,0,1,1,0,5.25A2.59,2.59,0,0,1,543.1,50.63Z" fill="#fff"/></g></g></svg>