<svg xmlns="http://www.w3.org/2000/svg" viewBox="0 0 300 600"><title>Asset 2</title><g id="Layer_2" data-name="Layer 2"><g id="Rect"><rect width="300" height="600" fill="none"/></g><g id="Drop_off_work_with_a_pro_remotely_or_file_online._We_re_stil" data-name="Drop off,  work with a pro remotely, or file online. We’re stil"><path d="M24.72,109.42l10.2.06c9.95,0,15,5,14.94,13.75v.31c0,8.75-5.25,14-15.12,14l-10.16-.05Zm9.81,21.89c4.78,0,6.91-2.48,6.94-7.69v-.31c0-5.33-2.08-7.62-6.94-7.64H32.77l-.08,15.64Z" fill="#fff"/><path d="M52.6,117.09l7,0,0,4.08a6.47,6.47,0,0,1,6.64-4.32l0,6.55c-4.27-.14-6.63,1.18-6.65,4.47l-.05,9.73-7,0Z" fill="#fff"/><path d="M67.45,127.67v-.32c0-6.58,5-10.71,11.3-10.68s11.15,4.09,11.12,10.6v.31c0,6.67-5,10.64-11.27,10.61S67.41,134.29,67.45,127.67Zm15.28,0v-.32c0-3.45-1.35-5.37-4-5.39s-4.08,1.83-4.1,5.27v.32c0,3.53,1.34,5.45,4,5.47S82.72,131,82.73,127.63Z" fill="#fff"/><path d="M92.39,117.29l7,0,0,3.06a7.24,7.24,0,0,1,6.41-3.57c4.78,0,8.65,3.64,8.61,10.66v.31c0,7.06-3.93,10.57-8.75,10.55a6.77,6.77,0,0,1-6.34-3.53l0,9.88-7,0Zm14.89,10.46v-.31c0-3.61-1.54-5.34-4-5.36s-4.09,1.83-4.11,5.28v.31c0,3.49,1.5,5.26,4,5.27S107.26,131.12,107.28,127.75Z" fill="#fff"/><path d="M123,127.94v-.31c0-6.58,5-10.71,11.3-10.68s11.15,4.09,11.12,10.6v.31c0,6.66-4.95,10.64-11.26,10.61S123,134.57,123,127.94Zm15.29,0v-.31c0-3.45-1.35-5.38-4-5.39s-4.09,1.82-4.11,5.27v.31c0,3.53,1.35,5.46,4.05,5.47S138.27,131.31,138.29,127.9Z" fill="#fff"/><path d="M149,122.35h-2.59l0-4.78H149V116c0-5.1,3.17-7.47,8-7.45a11.91,11.91,0,0,1,3.14.41l0,5.14a6.29,6.29,0,0,0-1.88-.29A2.05,2.05,0,0,0,156,116v1.56l6,0v-1.8c0-5.1,3.25-7.51,8.07-7.49a12.59,12.59,0,0,1,3.21.45l0,5.14a6.64,6.64,0,0,0-1.92-.29,2.05,2.05,0,0,0-2.33,2.22v1.81l4.15,0,0,4.78-4.16,0-.08,15.72-7,0,.08-15.71-6,0-.08,15.71-7,0Z" fill="#fff"/><path d="M171.51,141.36l3.34-10.3,6.5,2.35-5.7,9.58Z" fill="#fff"/><path d="M22.1,164l7.33,0,2.92,12.29L35.86,164l5.64,0,3,12.29,3.39-12.25,6.67,0L48,184.58l-6.7,0-3-11.46L35,184.51l-6.82,0Z" fill="#fff"/><path d="M54.31,174.61v-.31c0-6.59,5-10.72,11.31-10.69s11.15,4.1,11.12,10.61v.31c0,6.66-5,10.64-11.27,10.61S54.28,181.24,54.31,174.61Zm15.29,0v-.31c0-3.45-1.34-5.38-4-5.39s-4.08,1.82-4.1,5.27v.31c0,3.53,1.34,5.46,4.05,5.47S69.58,178,69.6,174.57Z" fill="#fff"/><path d="M79.26,164.23l7,0,0,4.07A6.47,6.47,0,0,1,92.9,164l0,6.55c-4.27-.14-6.63,1.18-6.65,4.48l0,9.72-7,0Z" fill="#fff"/><path d="M95.5,155.3l7,0-.08,17.13,5.57-8.09,7.29,0-6.75,9.18,7.19,11.33-7.84,0-5.48-9,0,9-7,0Z" fill="#fff"/><path d="M122.89,164.45l7.33,0,2.92,12.29,3.51-12.25,5.65,0,3,12.29,3.4-12.25,6.66,0-6.61,20.47-6.7,0-3-11.47L135.81,185,129,185Z" fill="#fff"/><path d="M157,159.05a3.65,3.65,0,0,1,3.86-3.62,3.63,3.63,0,1,1,0,7.25A3.63,3.63,0,0,1,157,159.05Zm.32,5.57,7,0-.1,20.51-7,0Z" fill="#fff"/><path d="M169,178.59l0-9.13h-2.47l0-4.78h2.47l0-4.27,7,0,0,4.27,4,0,0,4.79-4,0,0,8.46a1.87,1.87,0,0,0,2.06,2.17,5.5,5.5,0,0,0,2-.34l0,5.33a15.09,15.09,0,0,1-3.88.57C171.56,185.66,169,183.42,169,178.59Z" fill="#fff"/><path d="M182.84,155.73l7,0-.06,12.3a7.23,7.23,0,0,1,6.76-3.8c4,0,6.69,2.5,6.66,7.75l-.06,13.33-7,0,.06-11.91c0-2.32-.88-3.46-2.92-3.47s-3.5,1.24-3.51,3.87l-.06,11.48-7,0Z" fill="#fff"/><path d="M212.56,179.71c0-4.82,4.11-6.68,10.93-6.65h2v-.47c0-2-.45-3.25-2.69-3.26a2.51,2.51,0,0,0-2.79,2.41l-6.59,0c.34-4.94,4.23-7.35,9.84-7.32s9.24,2.36,9.21,7.81l-.07,13.28-6.82,0,0-2.39c-1,1.48-2.8,2.85-6.09,2.83C215.78,185.88,212.54,184.06,212.56,179.71Zm12.86-1.42V177h-1.84c-2.83,0-4.08.53-4.09,2.22,0,1.17.77,1.92,2.42,1.93C223.92,181.18,225.41,180.05,225.42,178.29Z" fill="#fff"/><path d="M23.59,211l7,0,0,3.06A7.24,7.24,0,0,1,37,210.48c4.78,0,8.65,3.65,8.61,10.67v.31c0,7.06-3.93,10.57-8.76,10.54a6.74,6.74,0,0,1-6.33-3.52l-.05,9.88-7,0Zm14.88,10.47v-.32c0-3.6-1.54-5.34-4-5.35s-4.09,1.82-4.11,5.27v.32c0,3.49,1.5,5.26,4,5.27S38.46,224.8,38.47,221.43Z" fill="#fff"/><path d="M48.21,211.09l7,0,0,4.08a6.47,6.47,0,0,1,6.64-4.32l0,6.55c-4.27-.14-6.63,1.18-6.65,4.47l0,9.72-7,0Z" fill="#fff"/><path d="M63.06,221.67v-.32c0-6.58,5-10.71,11.3-10.68s11.15,4.09,11.12,10.6v.31c0,6.67-5,10.64-11.26,10.61S63,228.29,63.06,221.67Zm15.29,0v-.31c0-3.45-1.35-5.38-4-5.39s-4.09,1.82-4.11,5.27v.32c0,3.52,1.35,5.45,4,5.47S78.33,225,78.35,221.62Z" fill="#fff"/><path d="M95.14,211.32l7,0,0,4.08a6.48,6.48,0,0,1,6.65-4.32l0,6.55c-4.27-.14-6.63,1.18-6.65,4.47l0,9.73-7,0Z" fill="#fff"/><path d="M110,221.9v-.31c0-6.59,5-10.72,11.14-10.69,5.61,0,10.41,3.27,10.38,10.64v1.84l-14.43-.07c.18,2.7,1.74,4.28,4.25,4.29,2.32,0,3.3-1,3.58-2.41l6.59,0c-.65,4.62-4.23,7.23-10.43,7.2C114.64,232.39,110,228.6,110,221.9Zm14.72-2.51c-.11-2.47-1.32-3.85-3.59-3.86s-3.57,1.35-3.94,3.82Z" fill="#fff"/><path d="M134,211.51l7,0,0,3.13a7.19,7.19,0,0,1,6.45-3.65,5.58,5.58,0,0,1,5.55,3.44,8.14,8.14,0,0,1,6.8-3.38c3.88,0,6.69,2.54,6.66,7.68l-.07,13.41-7,0,.06-12.23c0-2.08-1-3.1-2.61-3.11-1.88,0-3.14,1.2-3.15,3.44l-.06,11.87-6.94,0,.06-12.23c0-2.08-1-3.1-2.61-3.11-1.88,0-3.14,1.2-3.16,3.43l-.05,11.88-7,0Z" fill="#fff"/><path d="M168.75,222.19v-.31c0-6.59,5-10.72,11.31-10.69s11.15,4.1,11.12,10.6v.32c0,6.66-4.95,10.64-11.26,10.6S168.72,228.82,168.75,222.19Zm15.29,0v-.31c0-3.45-1.34-5.38-4-5.39s-4.08,1.82-4.1,5.27V222c0,3.53,1.34,5.46,4,5.47S184,225.56,184,222.15Z" fill="#fff"/><path d="M194.57,225.73l.05-9.13-2.47,0,0-4.78h2.47l0-4.27,7,0,0,4.27,4,0,0,4.78-4,0,0,8.47a1.87,1.87,0,0,0,2.07,2.17,5.48,5.48,0,0,0,2-.35l0,5.33a14.66,14.66,0,0,1-3.88.57C197.12,232.8,194.55,230.55,194.57,225.73Z" fill="#fff"/><path d="M207.21,222.38v-.31c0-6.59,5-10.72,11.15-10.69,5.6,0,10.41,3.27,10.37,10.64v1.84l-14.43-.07c.18,2.71,1.74,4.28,4.25,4.29,2.31,0,3.3-1,3.58-2.41l6.59,0c-.65,4.63-4.23,7.24-10.43,7.2C211.86,232.87,207.18,229.09,207.21,222.38Zm14.71-2.51c-.1-2.47-1.31-3.85-3.58-3.86-2.12,0-3.58,1.35-3.94,3.82Z" fill="#fff"/><path d="M231.46,203l7,0-.15,29.51-7,0Z" fill="#fff"/><path d="M248.49,230.51,240.39,212l7.61,0,4.18,11,4-10.92,6.7,0-11.11,27.31-6.7,0Z" fill="#fff"/><path d="M260.07,235.82l3.35-10.3,6.49,2.35-5.69,9.57Z" fill="#fff"/><path d="M22.21,268.47v-.31c0-6.59,4.95-10.72,11.3-10.69s11.16,4.1,11.12,10.6v.32c0,6.66-5,10.64-11.26,10.6S22.17,275.1,22.21,268.47Zm15.29,0v-.31c0-3.45-1.35-5.38-4-5.39s-4.09,1.82-4.11,5.27v.31c0,3.53,1.35,5.46,4.05,5.47S37.48,271.84,37.5,268.43Z" fill="#fff"/><path d="M47.15,258.09l7,0,0,4.07a6.47,6.47,0,0,1,6.65-4.32l0,6.55c-4.27-.14-6.63,1.18-6.64,4.48l0,9.72-7,0Z" fill="#fff"/><path d="M71.52,263H68.93l0-4.78h2.59v-1.8c0-5.1,3.21-7.51,8.07-7.49a12.59,12.59,0,0,1,3.21.45l0,5.13a6.67,6.67,0,0,0-1.92-.28,2.05,2.05,0,0,0-2.36,2.22v1.81l4.15,0,0,4.78-4.16,0-.07,15.72-7,0Z" fill="#fff"/><path d="M84.9,252.71a3.65,3.65,0,0,1,3.86-3.62,3.63,3.63,0,1,1,0,7.25A3.63,3.63,0,0,1,84.9,252.71Zm.32,5.57,7,0-.1,20.51-7,0Z" fill="#fff"/><path d="M96.24,249.32l7,0-.15,29.52-7,0Z" fill="#fff"/><path d="M105.79,268.89v-.32c0-6.58,5-10.71,11.15-10.68,5.6,0,10.41,3.27,10.37,10.63v1.85l-14.42-.07c.18,2.7,1.74,4.28,4.25,4.29,2.31,0,3.3-1,3.58-2.41l6.59,0c-.66,4.62-4.24,7.23-10.43,7.2C110.44,279.38,105.76,275.59,105.79,268.89Zm14.71-2.52c-.1-2.47-1.31-3.84-3.58-3.86s-3.58,1.36-3.94,3.83Z" fill="#fff"/><path d="M135.78,269v-.32c0-6.58,5-10.71,11.31-10.68s11.15,4.09,11.12,10.6V269c0,6.67-4.95,10.64-11.26,10.61S135.75,275.66,135.78,269Zm15.29,0v-.32c0-3.45-1.35-5.37-4-5.39s-4.09,1.82-4.1,5.27v.32c0,3.52,1.35,5.45,4.05,5.47S151.05,272.41,151.07,269Z" fill="#fff"/><path d="M160.73,258.66l7,0,0,3.29a7.23,7.23,0,0,1,6.76-3.8c4,0,6.69,2.5,6.67,7.75l-.07,13.33-7,0,.06-11.91c0-2.32-.88-3.46-2.92-3.47s-3.5,1.24-3.51,3.87l-.06,11.48-7,0Z" fill="#fff"/><path d="M184.84,249.76l7,0-.15,29.52-7,0Z" fill="#fff"/><path d="M195.41,253.26a3.87,3.87,0,1,1,3.83,3.63A3.67,3.67,0,0,1,195.41,253.26Zm.33,5.57,7,0-.1,20.51-7,0Z" fill="#fff"/><path d="M206.52,258.88l7,0,0,3.29a7.25,7.25,0,0,1,6.76-3.81c4,0,6.69,2.51,6.67,7.76l-.07,13.33-7,0,.06-11.91c0-2.32-.88-3.46-2.92-3.47s-3.5,1.24-3.51,3.86l-.06,11.49-7,0Z" fill="#fff"/><path d="M229.25,269.5v-.31c0-6.59,4.95-10.72,11.14-10.69,5.61,0,10.42,3.27,10.38,10.64V271l-14.43-.07c.19,2.71,1.75,4.28,4.25,4.29,2.32,0,3.3-1,3.58-2.41l6.59,0c-.65,4.63-4.23,7.23-10.42,7.2C233.9,280,229.21,276.21,229.25,269.5ZM244,267c-.11-2.47-1.32-3.85-3.59-3.86s-3.57,1.35-3.94,3.82Z" fill="#fff"/><path d="M252.7,276.09a3.9,3.9,0,0,1,4-3.94,4,4,0,1,1,0,7.92A3.91,3.91,0,0,1,252.7,276.09Z" fill="#fff"/><path d="M21.63,297.45l8.12,0L33.27,315l3.85-17.47,7.13,0,4,17.66,3.89-17.62,7.45,0-6.69,28-8.39,0-4.22-17.82-4.44,17.78-7.84,0Z" fill="#fff"/><path d="M58.59,315.66v-.31c0-6.59,5-10.72,11.15-10.69,5.6,0,10.41,3.27,10.37,10.64v1.84l-14.42-.07c.18,2.71,1.74,4.28,4.25,4.29,2.31,0,3.3-1,3.58-2.41l6.59,0c-.65,4.63-4.24,7.23-10.43,7.2C63.24,326.15,58.56,322.37,58.59,315.66Zm14.71-2.51c-.1-2.47-1.31-3.85-3.58-3.86s-3.58,1.35-3.94,3.82Z" fill="#fff"/><path d="M80.86,307.46l3.19-10.21,6.18,2.11L84.81,309Z" fill="#fff"/><path d="M90.44,305.32l7,0,0,4.08a6.47,6.47,0,0,1,6.65-4.32l0,6.55c-4.27-.14-6.63,1.18-6.65,4.47l-.05,9.72-7,0Z" fill="#fff"/><path d="M105.28,315.9v-.32c0-6.58,5-10.71,11.15-10.68,5.61,0,10.41,3.26,10.38,10.63v1.85l-14.43-.08c.18,2.71,1.74,4.28,4.25,4.3,2.32,0,3.3-1.05,3.58-2.42l6.59,0c-.65,4.62-4.23,7.23-10.43,7.2C109.93,326.38,105.25,322.6,105.28,315.9ZM120,313.38c-.11-2.47-1.32-3.85-3.59-3.86-2.12,0-3.58,1.36-3.94,3.82Z" fill="#fff"/><path d="M135,319.53l6.47,0c.23,1.49.89,2.32,2.89,2.33,1.72,0,2.51-.65,2.52-1.67s-1-1.46-3.8-1.86c-5.48-.74-7.79-2.35-7.76-6.63,0-4.54,4.07-6.72,8.81-6.7,5.06,0,8.58,1.77,9,6.67l-6.35,0a2.29,2.29,0,0,0-2.61-2.05c-1.53,0-2.32.66-2.33,1.6s.94,1.37,3.45,1.7c5.68.73,8.41,2.24,8.39,6.63,0,4.86-3.64,7-9.32,7C138.51,326.53,135.12,324.08,135,319.53Z" fill="#fff"/><path d="M156.9,319.56l0-9.13h-2.47l0-4.79,2.47,0,0-4.28,7,0,0,4.27,4,0,0,4.78-4,0,0,8.47A1.87,1.87,0,0,0,166,321.1a5.3,5.3,0,0,0,2-.35l0,5.33a14.26,14.26,0,0,1-3.88.57C159.45,326.63,156.87,324.38,156.9,319.56Z" fill="#fff"/><path d="M170.56,300.15a3.87,3.87,0,1,1,3.82,3.62A3.66,3.66,0,0,1,170.56,300.15Zm.32,5.57,7,0-.1,20.5-7,0Z" fill="#fff"/><path d="M181.91,296.75l7,0-.14,29.52-7,0Z" fill="#fff"/><path d="M192.84,296.81l7,0-.15,29.52-7,0Z" fill="#fff"/><path d="M22.94,343l7,0-.06,12.31a7.24,7.24,0,0,1,6.76-3.81c4,0,6.69,2.5,6.67,7.75l-.07,13.33-7,0,.06-11.92c0-2.31-.88-3.45-2.92-3.46s-3.49,1.23-3.51,3.86l-.06,11.49-7,0Z" fill="#fff"/><path d="M45.62,362.61v-.32c0-6.58,5-10.71,11.14-10.68,5.61,0,10.42,3.27,10.38,10.63v1.85L52.7,364c.19,2.7,1.75,4.28,4.26,4.29,2.31,0,3.29-1,3.57-2.41l6.59,0c-.65,4.62-4.23,7.23-10.42,7.2C50.27,373.1,45.58,369.31,45.62,362.61Zm14.71-2.52c-.11-2.47-1.31-3.84-3.59-3.86-2.12,0-3.57,1.36-3.94,3.83Z" fill="#fff"/><path d="M69.62,352.22l7,0,0,4.07A6.47,6.47,0,0,1,83.26,352l0,6.55c-4.27-.14-6.63,1.18-6.65,4.48l0,9.72-7,0Z" fill="#fff"/><path d="M84.47,362.8v-.31c0-6.59,5-10.72,11.15-10.69,5.6,0,10.41,3.27,10.37,10.64v1.84l-14.42-.07c.18,2.7,1.74,4.28,4.25,4.29,2.31,0,3.29-1,3.58-2.41l6.58,0c-.65,4.63-4.23,7.23-10.42,7.2C89.12,373.29,84.43,369.5,84.47,362.8Zm14.71-2.51c-.1-2.47-1.31-3.85-3.59-3.86-2.11,0-3.57,1.35-3.94,3.82Z" fill="#fff"/><path d="M116.48,366.37l0-9.13h-2.47l0-4.79h2.47l0-4.27,7,0,0,4.27,4,0,0,4.78-4,0,0,8.47a1.87,1.87,0,0,0,2.07,2.17,5.48,5.48,0,0,0,2-.35l0,5.33a14.66,14.66,0,0,1-3.88.57C119,373.44,116.46,371.19,116.48,366.37Z" fill="#fff"/><path d="M129.12,363v-.31c0-6.59,5-10.72,11.31-10.69s11.15,4.1,11.12,10.61v.31c0,6.66-4.95,10.64-11.26,10.61S129.09,369.65,129.12,363Zm15.29,0v-.31c0-3.45-1.34-5.38-4-5.39s-4.09,1.82-4.1,5.27v.31c0,3.53,1.34,5.46,4,5.47S144.39,366.39,144.41,363Z" fill="#fff"/><path d="M161.25,343.66l7,0L168.2,356a7.23,7.23,0,0,1,6.76-3.8c4,0,6.7,2.5,6.67,7.75l-.07,13.33-7,0,.06-11.92c0-2.31-.89-3.46-2.93-3.47s-3.49,1.24-3.5,3.87l-.06,11.48-7,0Z" fill="#fff"/><path d="M183.93,363.29V363c0-6.58,4.95-10.72,11.15-10.68,5.6,0,10.41,3.26,10.37,10.63v1.84L191,364.7c.18,2.71,1.74,4.28,4.25,4.3,2.31,0,3.3-1,3.58-2.42l6.58,0c-.65,4.62-4.23,7.23-10.42,7.2C188.58,373.79,183.9,370,183.93,363.29Zm14.71-2.51c-.1-2.47-1.31-3.85-3.59-3.86-2.11,0-3.57,1.36-3.94,3.82Z" fill="#fff"/><path d="M208.17,343.89l7,0L215,373.45l-7,0Z" fill="#fff"/><path d="M218.87,353l7,0v3.06a7.21,7.21,0,0,1,6.4-3.58c4.78,0,8.65,3.65,8.61,10.67v.31c0,7.06-3.93,10.57-8.75,10.54a6.77,6.77,0,0,1-6.34-3.52l-.05,9.88-7,0Zm14.89,10.47v-.32c0-3.6-1.54-5.34-4-5.35s-4.09,1.82-4.11,5.27v.32c0,3.48,1.5,5.26,4.05,5.27S233.74,366.8,233.76,363.43Z" fill="#fff"/><path d="M242.63,370.05a3.89,3.89,0,0,1,4-3.93,4,4,0,1,1,0,7.92A3.91,3.91,0,0,1,242.63,370.05Z" fill="#fff"/></g></g></svg>