<svg xmlns="http://www.w3.org/2000/svg" viewBox="0 0 300 600"><title>H125</title><g id="Layer_2" data-name="Layer 2"><g id="Rect"><rect width="300" height="600" fill="none"/></g><g id="H125"><g id="Encuentra_a_un_profesional_de_taxes_en_el_que_puedas_contar_ca" data-name="Encuentra a un profesional de taxes en el que puedas contar  ca"><path d="M21.52,153h18v5.72H29v4.45h8.43v5.28H29v4.71H40.12v5.72H21.52Z" fill="#fff"/><path d="M42.72,160h6.53v3a6.73,6.73,0,0,1,6.27-3.55c3.69,0,6.24,2.28,6.24,7.13v12.31H55.23v-11c0-2.13-.84-3.18-2.73-3.18s-3.25,1.16-3.25,3.58v10.61H42.72Z" fill="#fff"/><path d="M63.92,169.69v-.29c0-6.3,4.56-9.92,10.18-9.92,4.67,0,9,2,9.34,7.78H77.31c-.29-1.77-1.17-2.75-3.07-2.75-2.29,0-3.64,1.63-3.64,4.82v.28c0,3.3,1.27,5,3.75,5a3.16,3.16,0,0,0,3.32-3.15h5.88c-.18,4.78-3.43,7.89-9.6,7.89C68.26,179.35,63.92,176.06,63.92,169.69Z" fill="#fff"/><path d="M85.52,172.33V160h6.53v11.29c0,2.14.84,3.18,2.7,3.18S98,173.31,98,170.88V160h6.53v18.93H98V176c-1,2-2.88,3.37-6.06,3.37C88.26,179.35,85.52,177.11,85.52,172.33Z" fill="#fff"/><path d="M106.83,169.69v-.29c0-6.08,4.56-9.92,10.33-9.92,5.21,0,9.7,3,9.7,9.77V171H113.44c.18,2.5,1.64,4,4,4,2.16,0,3.07-1,3.32-2.25h6.13c-.58,4.28-3.9,6.7-9.67,6.7C111.21,179.35,106.83,175.88,106.83,169.69Zm13.68-2.39c-.11-2.28-1.24-3.55-3.35-3.55s-3.32,1.27-3.65,3.55Z" fill="#fff"/><path d="M129.13,160h6.53v3a6.73,6.73,0,0,1,6.27-3.55c3.69,0,6.24,2.28,6.24,7.13v12.31h-6.53v-11c0-2.13-.84-3.18-2.73-3.18s-3.25,1.16-3.25,3.58v10.61h-6.53Z" fill="#fff"/><path d="M152.23,172.84V164.4h-2.3V160h2.3v-4h6.53v4h3.75v4.41h-3.75v7.82a1.73,1.73,0,0,0,1.93,2,5.14,5.14,0,0,0,1.86-.32v4.92a14.14,14.14,0,0,1-3.61.54C154.63,179.35,152.23,177.29,152.23,172.84Z" fill="#fff"/><path d="M165,160h6.53v3.76a6,6,0,0,1,6.16-4v6.05c-4-.11-6.16,1.12-6.16,4.16v9H165Z" fill="#fff"/><path d="M178.54,173.67c0-4.45,3.79-6.19,10.14-6.19h1.82V167c0-1.8-.43-3-2.51-3a2.33,2.33,0,0,0-2.59,2.24h-6.13c.29-4.56,3.9-6.8,9.12-6.8s8.61,2.14,8.61,7.17v12.27h-6.35v-2.21c-.91,1.37-2.59,2.64-5.66,2.64C181.56,179.35,178.54,177.69,178.54,173.67Zm12-1.38v-1.16h-1.71c-2.63,0-3.8.51-3.8,2.07,0,1.08.73,1.77,2.27,1.77C189.12,175,190.5,173.92,190.5,172.29Z" fill="#fff"/><path d="M205.72,173.67c0-4.45,3.8-6.19,10.14-6.19h1.83V167c0-1.8-.44-3-2.52-3a2.34,2.34,0,0,0-2.59,2.24h-6.13c.29-4.56,3.91-6.8,9.12-6.8s8.61,2.14,8.61,7.17v12.27h-6.35v-2.21c-.91,1.37-2.59,2.64-5.65,2.64C208.75,179.35,205.72,177.69,205.72,173.67Zm12-1.38v-1.16H216c-2.62,0-3.79.51-3.79,2.07,0,1.08.73,1.77,2.26,1.77C216.3,175,217.69,173.92,217.69,172.29Z" fill="#fff"/><path d="M233.86,172.33V160h6.53v11.29c0,2.14.84,3.18,2.7,3.18s3.24-1.15,3.24-3.58V160h6.53v18.93h-6.53V176c-1,2-2.88,3.37-6.05,3.37C236.59,179.35,233.86,177.11,233.86,172.33Z" fill="#fff"/><path d="M256.19,160h6.53v3a6.73,6.73,0,0,1,6.27-3.55c3.69,0,6.24,2.28,6.24,7.13v12.31H268.7v-11c0-2.13-.84-3.18-2.74-3.18s-3.24,1.16-3.24,3.58v10.61h-6.53Z" fill="#fff"/><path d="M20.93,198h6.53v2.82a6.76,6.76,0,0,1,5.95-3.33c4.45,0,8.06,3.33,8.06,9.81v.29c0,6.52-3.61,9.77-8.1,9.77a6.31,6.31,0,0,1-5.91-3.22v9.12H20.93Zm13.9,9.59v-.29c0-3.33-1.46-4.92-3.75-4.92s-3.8,1.7-3.8,4.89v.29c0,3.22,1.42,4.84,3.8,4.84S34.83,210.7,34.83,207.59Z" fill="#fff"/><path d="M43.85,198h6.53v3.76a6,6,0,0,1,6.17-4v6c-4-.11-6.17,1.12-6.17,4.16v9H43.85Z" fill="#fff"/><path d="M57.72,207.7v-.29c0-6.08,4.56-9.92,10.47-9.92s10.4,3.73,10.4,9.74v.29c0,6.15-4.57,9.84-10.44,9.84S57.72,213.82,57.72,207.7ZM72,207.59v-.29c0-3.18-1.28-5-3.76-5s-3.8,1.7-3.8,4.89v.29c0,3.26,1.28,5,3.8,5S72,210.74,72,207.59Z" fill="#fff"/><path d="M81.87,202.42h-2.4V198h2.4v-1.67c0-4.7,3-6.94,7.48-6.94a12,12,0,0,1,3,.39v4.75a5.78,5.78,0,0,0-1.78-.26,1.91,1.91,0,0,0-2.19,2.06V198h3.86v4.42H88.37v14.51h-6.5Z" fill="#fff"/><path d="M92.75,207.7v-.29c0-6.08,4.56-9.92,10.32-9.92,5.22,0,9.71,3,9.71,9.78V209H99.35c.18,2.49,1.64,3.94,4,3.94,2.15,0,3.06-1,3.32-2.24h6.13c-.59,4.27-3.91,6.69-9.67,6.69C97.13,217.36,92.75,213.89,92.75,207.7Zm13.68-2.39c-.11-2.28-1.24-3.55-3.36-3.55-2,0-3.32,1.27-3.65,3.55Z" fill="#fff"/><path d="M114,210.92h6c.22,1.38.84,2.14,2.7,2.14,1.6,0,2.33-.62,2.33-1.56s-.91-1.34-3.54-1.7c-5.1-.65-7.26-2.14-7.26-6.08,0-4.2,3.76-6.23,8.18-6.23,4.7,0,8,1.6,8.42,6.12h-5.91a2.12,2.12,0,0,0-2.44-1.88c-1.42,0-2.15.61-2.15,1.48s.87,1.27,3.21,1.56c5.29.65,7.84,2,7.84,6.08,0,4.49-3.35,6.51-8.65,6.51S114.09,215.12,114,210.92Z" fill="#fff"/><path d="M133.33,192.86a3.4,3.4,0,0,1,3.57-3.37,3.36,3.36,0,1,1,0,6.7A3.36,3.36,0,0,1,133.33,192.86Zm.32,5.14h6.53v18.93h-6.53Z" fill="#fff"/><path d="M142.67,207.7v-.29c0-6.08,4.56-9.92,10.47-9.92s10.4,3.73,10.4,9.74v.29c0,6.15-4.56,9.84-10.44,9.84S142.67,213.82,142.67,207.7Zm14.23-.11v-.29c0-3.18-1.28-5-3.76-5s-3.8,1.7-3.8,4.89v.29c0,3.26,1.28,5,3.8,5S156.9,210.74,156.9,207.59Z" fill="#fff"/><path d="M165.84,198h6.53v3a6.75,6.75,0,0,1,6.27-3.55c3.69,0,6.24,2.28,6.24,7.13v12.31h-6.53v-11c0-2.14-.84-3.19-2.73-3.19s-3.25,1.16-3.25,3.58v10.61h-6.53Z" fill="#fff"/><path d="M187,211.68c0-4.45,3.79-6.19,10.14-6.19h1.82v-.43c0-1.81-.43-3-2.51-3a2.33,2.33,0,0,0-2.59,2.25H187.7c.29-4.56,3.9-6.81,9.12-6.81s8.61,2.14,8.61,7.17v12.27h-6.35v-2.21c-.91,1.38-2.59,2.64-5.66,2.64C190,217.36,187,215.7,187,211.68Zm12-1.37v-1.16h-1.71c-2.63,0-3.8.5-3.8,2.06,0,1.09.73,1.77,2.27,1.77C197.55,213,198.93,211.93,198.93,210.31Z" fill="#fff"/><path d="M208.79,189.68h6.49v27.25h-6.49Z" fill="#fff"/><path d="M224.48,207.66v-.29c0-6.44,3.58-9.88,8.1-9.88a6.19,6.19,0,0,1,5.87,3.19v-11H245v27.25h-6.53v-3.08a6.42,6.42,0,0,1-5.94,3.51C228.09,217.36,224.48,214.21,224.48,207.66Zm14.16-.1v-.29c0-3.19-1.35-4.89-3.76-4.89s-3.76,1.63-3.76,4.92v.29c0,3.19,1.42,4.81,3.68,4.81S238.64,210.78,238.64,207.56Z" fill="#fff"/><path d="M247.29,207.7v-.29c0-6.08,4.56-9.92,10.32-9.92,5.22,0,9.71,3,9.71,9.78V209H253.89c.18,2.49,1.64,3.94,4,3.94,2.15,0,3.06-1,3.32-2.24h6.13c-.59,4.27-3.91,6.69-9.67,6.69C251.67,217.36,247.29,213.89,247.29,207.7ZM261,205.31c-.11-2.28-1.24-3.55-3.36-3.55s-3.32,1.27-3.65,3.55Z" fill="#fff"/><path d="M21.81,248.86v-8.43h-2.3V236h2.3v-3.94h6.53V236H32.1v4.42H28.34v7.82a1.73,1.73,0,0,0,1.93,2,4.94,4.94,0,0,0,1.86-.33v4.92a13.65,13.65,0,0,1-3.61.55C24.22,255.38,21.81,253.31,21.81,248.86Z" fill="#fff"/><path d="M33.56,249.69c0-4.45,3.79-6.18,10.14-6.18h1.83v-.44c0-1.81-.44-3-2.52-3a2.33,2.33,0,0,0-2.59,2.24H34.29c.29-4.56,3.9-6.8,9.12-6.8S52,237.64,52,242.67v12.27H45.67v-2.21c-.91,1.38-2.59,2.65-5.65,2.65C36.59,255.38,33.56,253.71,33.56,249.69Zm12-1.37v-1.16H43.81c-2.63,0-3.79.51-3.79,2.06,0,1.09.73,1.78,2.26,1.78C44.14,251,45.53,250,45.53,248.32Z" fill="#fff"/><path d="M60,245.31,54.07,236h7.51l3,5,2.88-5h6.71l-6,8.8,6.61,10.13H67.2l-3.39-5.64-3.47,5.64H53.67Z" fill="#fff"/><path d="M73.88,245.71v-.29c0-6.08,4.56-9.91,10.33-9.91,5.21,0,9.7,3,9.7,9.77V247H80.48c.19,2.5,1.65,3.94,4,3.94,2.15,0,3.07-1,3.32-2.24h6.13c-.58,4.27-3.9,6.7-9.67,6.7C78.26,255.38,73.88,251.9,73.88,245.71Zm13.68-2.39c-.11-2.28-1.24-3.54-3.35-3.54s-3.32,1.26-3.65,3.54Z" fill="#fff"/><path d="M95.08,248.93h6c.22,1.38.84,2.14,2.7,2.14,1.61,0,2.34-.62,2.34-1.56s-.92-1.34-3.54-1.7c-5.11-.65-7.26-2.13-7.26-6.08,0-4.2,3.76-6.22,8.17-6.22,4.71,0,8,1.59,8.43,6.11H106a2.14,2.14,0,0,0-2.45-1.88c-1.42,0-2.15.62-2.15,1.49s.88,1.26,3.21,1.55c5.29.65,7.84,2,7.84,6.08,0,4.49-3.35,6.52-8.64,6.52C98.4,255.38,95.23,253.13,95.08,248.93Z" fill="#fff"/><path d="M120.22,245.71v-.29c0-6.08,4.56-9.91,10.33-9.91,5.22,0,9.7,3,9.7,9.77V247H126.83c.18,2.5,1.64,3.94,4,3.94,2.16,0,3.07-1,3.32-2.24h6.13c-.58,4.27-3.9,6.7-9.66,6.7C124.6,255.38,120.22,251.9,120.22,245.71Zm13.69-2.39c-.11-2.28-1.24-3.54-3.36-3.54s-3.32,1.26-3.65,3.54Z" fill="#fff"/><path d="M142.52,236h6.53v3a6.75,6.75,0,0,1,6.28-3.54c3.68,0,6.23,2.28,6.23,7.13v12.3H155v-11c0-2.14-.84-3.19-2.73-3.19s-3.25,1.16-3.25,3.59v10.6h-6.53Z" fill="#fff"/><path d="M170.36,245.71v-.29c0-6.08,4.56-9.91,10.33-9.91,5.21,0,9.7,3,9.7,9.77V247H177c.18,2.5,1.64,3.94,4,3.94,2.15,0,3.07-1,3.32-2.24h6.13c-.58,4.27-3.9,6.7-9.67,6.7C174.74,255.38,170.36,251.9,170.36,245.71ZM184,243.32c-.11-2.28-1.24-3.54-3.35-3.54s-3.32,1.26-3.65,3.54Z" fill="#fff"/><path d="M192.84,227.69h6.49v27.25h-6.49Z" fill="#fff"/><path d="M222.5,252a6.58,6.58,0,0,1-5.94,3.37c-4.42,0-8-3.15-8-9.7v-.29c0-6.45,3.58-9.88,8.1-9.88a6.18,6.18,0,0,1,5.87,3.18V236H229v25.27H222.5Zm.19-6.44v-.29c0-3.19-1.35-4.89-3.76-4.89s-3.76,1.63-3.76,4.92v.29c0,3.19,1.42,4.82,3.69,4.82S222.69,248.79,222.69,245.57Z" fill="#fff"/><path d="M232.21,248.35V236h6.54v11.3c0,2.13.83,3.18,2.7,3.18s3.24-1.16,3.24-3.58V236h6.53v18.93h-6.53V252c-1,2-2.88,3.37-6.05,3.37C235,255.38,232.21,253.13,232.21,248.35Z" fill="#fff"/><path d="M253.53,245.71v-.29c0-6.08,4.56-9.91,10.32-9.91,5.22,0,9.7,3,9.7,9.77V247H260.13c.18,2.5,1.64,3.94,4,3.94,2.15,0,3.06-1,3.32-2.24h6.12c-.58,4.27-3.9,6.7-9.66,6.7C257.9,255.38,253.53,251.9,253.53,245.71Zm13.68-2.39c-.11-2.28-1.24-3.54-3.36-3.54s-3.32,1.26-3.65,3.54Z" fill="#fff"/><path d="M20.93,274h6.53v2.82a6.76,6.76,0,0,1,5.95-3.33c4.45,0,8.06,3.33,8.06,9.81v.29c0,6.51-3.61,9.77-8.1,9.77a6.31,6.31,0,0,1-5.91-3.22v9.12H20.93Zm13.9,9.59v-.29c0-3.33-1.46-4.92-3.75-4.92s-3.8,1.7-3.8,4.88v.29c0,3.22,1.42,4.85,3.8,4.85S34.83,286.73,34.83,283.62Z" fill="#fff"/><path d="M43.7,286.37V274h6.53v11.29c0,2.13.84,3.18,2.7,3.18s3.25-1.15,3.25-3.58V274h6.53V293H56.18V290c-1,2-2.88,3.37-6.06,3.37C46.44,293.39,43.7,291.15,43.7,286.37Z" fill="#fff"/><path d="M65,283.73v-.29c0-6.08,4.56-9.92,10.33-9.92,5.22,0,9.7,3,9.7,9.77V285H71.62c.18,2.5,1.64,3.95,4,3.95,2.16,0,3.07-1,3.32-2.25H85c-.58,4.27-3.9,6.7-9.66,6.7C69.39,293.39,65,289.91,65,283.73Zm13.69-2.39c-.11-2.28-1.24-3.55-3.36-3.55s-3.32,1.27-3.65,3.55Z" fill="#fff"/><path d="M86.36,283.69v-.29c0-6.44,3.58-9.88,8.1-9.88a6.2,6.2,0,0,1,5.87,3.18v-11h6.53V293h-6.53v-3.08a6.43,6.43,0,0,1-5.94,3.51C90,293.39,86.36,290.24,86.36,283.69Zm14.16-.11v-.29c0-3.18-1.35-4.88-3.76-4.88S93,280,93,283.33v.29c0,3.18,1.42,4.81,3.69,4.81S100.52,286.8,100.52,283.58Z" fill="#fff"/><path d="M109.1,287.71c0-4.45,3.79-6.19,10.14-6.19h1.82v-.44c0-1.81-.44-3-2.52-3a2.34,2.34,0,0,0-2.59,2.24h-6.13c.3-4.56,3.91-6.8,9.13-6.8s8.61,2.13,8.61,7.17V293h-6.35v-2.21c-.91,1.37-2.59,2.64-5.66,2.64C112.12,293.39,109.1,291.72,109.1,287.71Zm12-1.38v-1.16h-1.71c-2.63,0-3.8.51-3.8,2.07,0,1.08.73,1.77,2.26,1.77C119.68,289,121.06,288,121.06,286.33Z" fill="#fff"/><path d="M129.46,287h6c.22,1.37.84,2.13,2.7,2.13,1.6,0,2.33-.61,2.33-1.55s-.91-1.34-3.54-1.71c-5.11-.65-7.26-2.13-7.26-6.08,0-4.19,3.76-6.22,8.17-6.22,4.71,0,8,1.59,8.43,6.12H140.4a2.13,2.13,0,0,0-2.44-1.89c-1.43,0-2.16.62-2.16,1.49s.88,1.26,3.22,1.55c5.29.66,7.84,2,7.84,6.08,0,4.49-3.36,6.52-8.65,6.52S129.6,291.15,129.46,287Z" fill="#fff"/><path d="M154.6,283.73v-.29c0-6.3,4.56-9.92,10.18-9.92,4.67,0,9,2,9.34,7.78H168c-.29-1.77-1.17-2.75-3.07-2.75-2.3,0-3.65,1.63-3.65,4.81v.29c0,3.3,1.28,5,3.76,5a3.17,3.17,0,0,0,3.32-3.15h5.88c-.19,4.78-3.43,7.89-9.6,7.89C158.94,293.39,154.6,290.1,154.6,283.73Z" fill="#fff"/><path d="M175.33,283.73v-.29c0-6.08,4.56-9.92,10.47-9.92s10.39,3.73,10.39,9.74v.28c0,6.16-4.56,9.85-10.43,9.85S175.33,289.84,175.33,283.73Zm14.22-.11v-.29c0-3.19-1.27-5-3.75-5s-3.8,1.7-3.8,4.89v.28c0,3.26,1.28,5,3.8,5S189.55,286.77,189.55,283.62Z" fill="#fff"/><path d="M198.5,274H205v3a6.73,6.73,0,0,1,6.27-3.55c3.69,0,6.24,2.28,6.24,7.13V293H211V282c0-2.13-.84-3.18-2.74-3.18s-3.24,1.16-3.24,3.58V293H198.5Z" fill="#fff"/><path d="M221.6,286.87v-8.43h-2.3V274h2.3v-3.95h6.53V274h3.75v4.41h-3.75v7.82a1.73,1.73,0,0,0,1.93,2,4.94,4.94,0,0,0,1.86-.33v4.93a14.14,14.14,0,0,1-3.61.54C224,293.39,221.6,291.33,221.6,286.87Z" fill="#fff"/><path d="M233.34,287.71c0-4.45,3.8-6.19,10.15-6.19h1.82v-.44c0-1.81-.44-3-2.52-3a2.34,2.34,0,0,0-2.59,2.24h-6.13c.3-4.56,3.91-6.8,9.13-6.8s8.61,2.13,8.61,7.17V293h-6.35v-2.21c-.91,1.37-2.59,2.64-5.66,2.64C236.37,293.39,233.34,291.72,233.34,287.71Zm12-1.38v-1.16H243.6c-2.63,0-3.8.51-3.8,2.07,0,1.08.73,1.77,2.26,1.77C243.92,289,245.31,288,245.31,286.33Z" fill="#fff"/><path d="M255,274h6.53v3.76a6,6,0,0,1,6.17-4v6.05c-4-.11-6.17,1.12-6.17,4.16v9H255Z" fill="#fff"/><path d="M19.91,321.74v-.29c0-6.3,4.56-9.92,10.18-9.92,4.67,0,9,2,9.34,7.78H33.3c-.29-1.77-1.17-2.75-3.06-2.75-2.3,0-3.65,1.63-3.65,4.82v.29c0,3.29,1.28,5,3.76,5a3.17,3.17,0,0,0,3.32-3.15h5.87c-.18,4.78-3.43,7.89-9.59,7.89C24.25,331.4,19.91,328.11,19.91,321.74Z" fill="#fff"/><path d="M40.67,325.72c0-4.45,3.8-6.19,10.15-6.19h1.82v-.43c0-1.81-.44-3-2.52-3a2.34,2.34,0,0,0-2.59,2.25H41.4c.3-4.56,3.91-6.81,9.13-6.81s8.61,2.14,8.61,7.17V331H52.79v-2.21c-.91,1.38-2.59,2.64-5.66,2.64C43.7,331.4,40.67,329.74,40.67,325.72Zm12-1.38v-1.15H50.93c-2.63,0-3.8.5-3.8,2.06,0,1.08.73,1.77,2.26,1.77C51.25,327,52.64,326,52.64,324.34Z" fill="#fff"/><path d="M61.36,321.7v-.29c0-6.44,3.58-9.88,8.1-9.88a6.2,6.2,0,0,1,5.88,3.19v-11h6.53V331H75.34v-3.08a6.43,6.43,0,0,1-6,3.51C65,331.4,61.36,328.25,61.36,321.7Zm14.16-.11v-.29c0-3.18-1.35-4.88-3.76-4.88S68,318.05,68,321.34v.29c0,3.18,1.43,4.81,3.69,4.81S75.52,324.81,75.52,321.59Z" fill="#fff"/><path d="M84.1,325.72c0-4.45,3.79-6.19,10.14-6.19h1.82v-.43c0-1.81-.43-3-2.51-3A2.33,2.33,0,0,0,91,318.34H84.83c.29-4.56,3.9-6.81,9.12-6.81s8.61,2.14,8.61,7.17V331H96.21v-2.21c-.91,1.38-2.59,2.64-5.65,2.64C87.13,331.4,84.1,329.74,84.1,325.72Zm12-1.38v-1.15H94.35c-2.63,0-3.79.5-3.79,2.06,0,1.08.73,1.77,2.26,1.77C94.68,327,96.06,326,96.06,324.34Z" fill="#fff"/><path d="M111.28,325.72c0-4.45,3.8-6.19,10.15-6.19h1.82v-.43c0-1.81-.44-3-2.52-3a2.34,2.34,0,0,0-2.59,2.25H112c.3-4.56,3.91-6.81,9.12-6.81s8.61,2.14,8.61,7.17V331H123.4v-2.21c-.92,1.38-2.59,2.64-5.66,2.64C114.31,331.4,111.28,329.74,111.28,325.72Zm12-1.38v-1.15h-1.71c-2.63,0-3.8.5-3.8,2.06,0,1.08.73,1.77,2.26,1.77C121.86,327,123.25,326,123.25,324.34Z" fill="#fff"/><path d="M132.92,312h6.53v3a6.74,6.74,0,0,1,6.28-3.55c3.68,0,6.24,2.28,6.24,7.13V331h-6.53V320c0-2.13-.84-3.18-2.74-3.18s-3.25,1.16-3.25,3.58V331h-6.53Zm7.55-3.51a1.22,1.22,0,0,0-1.13,1.16H135.8c.26-3.8,1.94-5.65,4.2-5.65,2,0,3.14,1.23,4.34,1.23.66,0,1-.47,1.17-1.16h3.54c-.29,3.77-2.12,5.61-4.31,5.61S141.6,308.53,140.47,308.53Z" fill="#fff"/><path d="M154.12,321.74v-.29c0-6.08,4.56-9.92,10.47-9.92s10.4,3.73,10.4,9.74v.29c0,6.15-4.56,9.84-10.43,9.84S154.12,327.85,154.12,321.74Zm14.23-.11v-.29c0-3.18-1.27-5-3.76-5s-3.79,1.7-3.79,4.89v.29c0,3.25,1.28,5,3.79,5S168.35,324.78,168.35,321.63Z" fill="#fff"/><path d="M176.24,327.71a3.63,3.63,0,0,1,3.72-3.66,3.66,3.66,0,1,1,0,7.32A3.63,3.63,0,0,1,176.24,327.71Z" fill="#fff"/></g></g></g></svg>