<svg xmlns="http://www.w3.org/2000/svg" viewBox="0 0 728 90"><title>legal</title><g id="Layer_2" data-name="Layer 2"><g id="Optional_loan_from_Axos_Bank_._Not_your_tax_refund." data-name="Optional loan from Axos Bank®. Not your tax refund."><path d="M120.5,78.78v-.07a3.16,3.16,0,1,1,6.31,0v.07a3.16,3.16,0,1,1-6.31,0Zm5.5,0v-.07a2.36,2.36,0,1,0-4.69,0v.07a2.42,2.42,0,0,0,2.37,2.62A2.35,2.35,0,0,0,126,78.75Z" fill="#fff"/><path d="M127.92,77.25h.75V78a1.93,1.93,0,0,1,1.59-.87,2.14,2.14,0,0,1,2.14,2.37v.07A2.17,2.17,0,0,1,130.26,82a1.78,1.78,0,0,1-1.59-.86V83.6h-.75Zm3.71,2.39v-.07c0-1.19-.66-1.78-1.45-1.78s-1.54.58-1.54,1.78v.07c0,1.21.63,1.78,1.55,1.78S131.63,80.79,131.63,79.64Z" fill="#fff"/><path d="M133.59,80.78v-2.9h-.67v-.63h.67V76.18h.75v1.07h1.1v.63h-1.1v2.83c0,.46.2.68.58.68a1.59,1.59,0,0,0,.58-.1v.63a1.85,1.85,0,0,1-.64.1A1.14,1.14,0,0,1,133.59,80.78Z" fill="#fff"/><path d="M136.37,75.77a.5.5,0,0,1,.5-.49.49.49,0,0,1,.49.49.5.5,0,0,1-.49.5A.51.51,0,0,1,136.37,75.77Zm.14,1.48h.74V82h-.74Z" fill="#fff"/><path d="M138.3,79.64v-.07a2.31,2.31,0,1,1,4.62,0v.07a2.31,2.31,0,1,1-4.62,0Zm3.85,0v-.06c0-1.09-.6-1.79-1.54-1.79a1.56,1.56,0,0,0-1.54,1.78v.07c0,1.07.59,1.78,1.54,1.78S142.15,80.71,142.15,79.64Z" fill="#fff"/><path d="M144,77.25h.75V78a1.59,1.59,0,0,1,1.51-.83c1,0,1.66.53,1.66,1.9V82h-.75V79c0-.83-.35-1.19-1.11-1.19a1.23,1.23,0,0,0-1.31,1.28V82H144Z" fill="#fff"/><path d="M148.81,80.65c0-1.09,1.15-1.46,2.36-1.46h.67v-.34c0-.75-.29-1.06-1-1.06s-1,.27-1.08.84H149a1.64,1.64,0,0,1,1.86-1.46,1.52,1.52,0,0,1,1.72,1.68V82h-.75v-.6a1.69,1.69,0,0,1-1.46.68C149.5,82,148.81,81.62,148.81,80.65Zm3-.34v-.59h-.65c-.94,0-1.63.24-1.63.93,0,.49.23.79.89.79S151.84,81,151.84,80.31Z" fill="#fff"/><path d="M153.94,75h.75v7h-.75Z" fill="#fff"/><path d="M158.36,75h.75v7h-.75Z" fill="#fff"/><path d="M160.16,79.64v-.07a2.32,2.32,0,1,1,4.63,0v.07a2.32,2.32,0,1,1-4.63,0Zm3.85,0v-.06c0-1.09-.6-1.79-1.54-1.79a1.56,1.56,0,0,0-1.54,1.78v.07c0,1.07.59,1.78,1.54,1.78S164,80.71,164,79.64Z" fill="#fff"/><path d="M165.42,80.65c0-1.09,1.15-1.46,2.36-1.46h.68v-.34c0-.75-.29-1.06-1-1.06s-1,.27-1.08.84h-.75a1.64,1.64,0,0,1,1.86-1.46,1.52,1.52,0,0,1,1.72,1.68V82h-.74v-.6A1.71,1.71,0,0,1,167,82C166.12,82,165.42,81.62,165.42,80.65Zm3-.34v-.59h-.65c-.95,0-1.64.24-1.64.93,0,.49.23.79.89.79S168.46,81,168.46,80.31Z" fill="#fff"/><path d="M170.53,77.25h.75V78a1.61,1.61,0,0,1,1.51-.83c1,0,1.66.53,1.66,1.9V82h-.75V79c0-.83-.35-1.19-1.1-1.19a1.24,1.24,0,0,0-1.32,1.28V82h-.75Z" fill="#fff"/><path d="M178.19,77.88h-.67v-.63h.67v-.77c0-1,.47-1.51,1.41-1.51a1.6,1.6,0,0,1,.56.09v.63a1.62,1.62,0,0,0-.54-.1c-.48,0-.68.33-.68.81v.85h1.15v.63h-1.15V82h-.75Z" fill="#fff"/><path d="M181,77.25h.75v.84a1.62,1.62,0,0,1,1.55-.92v.7c-.95,0-1.55.34-1.55,1.5V82H181Z" fill="#fff"/><path d="M183.77,79.64v-.07a2.32,2.32,0,1,1,4.63,0v.07a2.32,2.32,0,1,1-4.63,0Zm3.86,0v-.06c0-1.09-.61-1.79-1.54-1.79s-1.54.7-1.54,1.78v.07c0,1.07.58,1.78,1.54,1.78A1.57,1.57,0,0,0,187.63,79.64Z" fill="#fff"/><path d="M189.43,77.25h.74V78a1.54,1.54,0,0,1,1.41-.8,1.36,1.36,0,0,1,1.37.88,1.84,1.84,0,0,1,1.62-.88c.84,0,1.58.5,1.58,1.87V82h-.75V79c0-.83-.35-1.17-1-1.17a1.2,1.2,0,0,0-1.24,1.26V82h-.75V79c0-.83-.35-1.17-1-1.17a1.2,1.2,0,0,0-1.25,1.26V82h-.74Z" fill="#fff"/><path d="M201.51,75.52h1L204.72,82h-.78l-.63-1.86h-2.65L200,82h-.74Zm-.64,4h2.24L202,76.17Z" fill="#fff"/><path d="M206.84,79.54l-1.57-2.29h.87L207.29,79l1.14-1.71h.81l-1.55,2.23L209.41,82h-.89l-1.27-1.9L206,82h-.8Z" fill="#fff"/><path d="M209.7,79.64v-.07a2.32,2.32,0,1,1,4.63,0v.07a2.32,2.32,0,1,1-4.63,0Zm3.86,0v-.06c0-1.09-.61-1.79-1.54-1.79s-1.54.7-1.54,1.78v.07c0,1.07.58,1.78,1.54,1.78A1.57,1.57,0,0,0,213.56,79.64Z" fill="#fff"/><path d="M215,80.51h.73c.05.56.35.91,1.1.91s1-.25,1-.75-.37-.66-1.1-.79c-1.22-.23-1.64-.57-1.64-1.39a1.47,1.47,0,0,1,1.6-1.32,1.51,1.51,0,0,1,1.7,1.36h-.72c-.11-.52-.4-.74-1-.74s-.89.27-.89.67.23.6,1.09.75,1.66.4,1.66,1.4c0,.85-.58,1.43-1.73,1.43S215,81.47,215,80.51Z" fill="#fff"/><path d="M221.84,75.52h1.94c1.2,0,2.07.4,2.07,1.67v0a1.31,1.31,0,0,1-1,1.36,1.41,1.41,0,0,1,1.28,1.54v0c0,1.21-.82,1.8-2.11,1.8h-2.21Zm1.94,2.81c.94,0,1.3-.34,1.3-1.14v0c0-.73-.42-1-1.32-1h-1.15v2.2Zm.25,3c.94,0,1.37-.41,1.37-1.19v0c0-.79-.44-1.17-1.48-1.17h-1.31v2.4Z" fill="#fff"/><path d="M226.86,80.65c0-1.09,1.16-1.46,2.36-1.46h.68v-.34c0-.75-.29-1.06-1-1.06s-1,.27-1.08.84h-.75a1.65,1.65,0,0,1,1.87-1.46,1.52,1.52,0,0,1,1.72,1.68V82h-.75v-.6a1.71,1.71,0,0,1-1.47.68C227.56,82,226.86,81.62,226.86,80.65Zm3-.34v-.59h-.65c-.94,0-1.64.24-1.64.93,0,.49.24.79.89.79C229.3,81.44,229.9,81,229.9,80.31Z" fill="#fff"/><path d="M232,77.25h.74V78a1.61,1.61,0,0,1,1.52-.83c1,0,1.65.53,1.65,1.9V82h-.74V79c0-.83-.36-1.19-1.11-1.19a1.24,1.24,0,0,0-1.32,1.28V82H232Z" fill="#fff"/><path d="M237.22,75H238v4.42l1.95-2.17h.88l-2,2.19L241,82h-.91L238,79.52V82h-.75Z" fill="#fff"/><path d="M241.16,76.33a1.16,1.16,0,0,1,1.17-1.17,1.16,1.16,0,1,1-1.17,1.17Zm2.12,0a1,1,0,1,0-.95,1A.92.92,0,0,0,243.28,76.32Zm-1.35-.59h.4c.27,0,.44.11.44.35h0a.3.3,0,0,1-.23.31l.3.49h-.26l-.28-.44h-.12v.44h-.25Zm.4.53c.13,0,.19-.06.19-.17h0c0-.12-.07-.16-.19-.16h-.15v.33Z" fill="#fff"/><path d="M243.21,81.43a.58.58,0,1,1,.57.57A.57.57,0,0,1,243.21,81.43Z" fill="#fff"/><path d="M248,75.52h1l3.13,5.32V75.52h.75V82H252l-3.25-5.52V82H248Z" fill="#fff"/><path d="M254,79.64v-.07a2.32,2.32,0,1,1,4.63,0v.07a2.32,2.32,0,1,1-4.63,0Zm3.86,0v-.06c0-1.09-.61-1.79-1.54-1.79s-1.54.7-1.54,1.78v.07c0,1.07.58,1.78,1.54,1.78A1.57,1.57,0,0,0,257.81,79.64Z" fill="#fff"/><path d="M259.77,80.78v-2.9h-.68v-.63h.68V76.18h.75v1.07h1.09v.63h-1.09v2.83c0,.46.2.68.58.68a1.67,1.67,0,0,0,.58-.1v.63a1.94,1.94,0,0,1-.64.1A1.14,1.14,0,0,1,259.77,80.78Z" fill="#fff"/><path d="M266.23,81.47l-1.85-4.22h.81l1.44,3.37,1.3-3.37h.77l-2.6,6.35h-.76Z" fill="#fff"/><path d="M269.06,79.64v-.07a2.31,2.31,0,1,1,4.62,0v.07a2.31,2.31,0,1,1-4.62,0Zm3.85,0v-.06c0-1.09-.6-1.79-1.54-1.79s-1.54.7-1.54,1.78v.07c0,1.07.59,1.78,1.54,1.78A1.57,1.57,0,0,0,272.91,79.64Z" fill="#fff"/><path d="M274.66,80.23v-3h.75v2.94c0,.83.35,1.2,1.09,1.2a1.24,1.24,0,0,0,1.3-1.29V77.25h.74V82h-.74v-.75a1.62,1.62,0,0,1-1.5.83C275.36,82,274.66,81.52,274.66,80.23Z" fill="#fff"/><path d="M279.92,77.25h.75v.84a1.62,1.62,0,0,1,1.54-.92v.7c-.94,0-1.54.34-1.54,1.5V82h-.75Z" fill="#fff"/><path d="M285.58,80.78v-2.9h-.68v-.63h.68V76.18h.75v1.07h1.09v.63h-1.09v2.83c0,.46.2.68.58.68a1.59,1.59,0,0,0,.58-.1v.63a1.94,1.94,0,0,1-.64.1A1.14,1.14,0,0,1,285.58,80.78Z" fill="#fff"/><path d="M288.14,80.65c0-1.09,1.15-1.46,2.35-1.46h.68v-.34c0-.75-.29-1.06-1-1.06s-1,.27-1.08.84h-.75a1.65,1.65,0,0,1,1.87-1.46,1.52,1.52,0,0,1,1.72,1.68V82h-.75v-.6a1.7,1.7,0,0,1-1.47.68C288.83,82,288.14,81.62,288.14,80.65Zm3-.34v-.59h-.65c-.94,0-1.64.24-1.64.93,0,.49.24.79.89.79C290.57,81.44,291.17,81,291.17,80.31Z" fill="#fff"/><path d="M294.43,79.54l-1.58-2.29h.87L294.88,79,296,77.25h.81l-1.56,2.23L297,82h-.88l-1.27-1.9-1.3,1.9h-.8Z" fill="#fff"/><path d="M300.11,77.25h.75v.84a1.63,1.63,0,0,1,1.55-.92v.7c-1,0-1.55.34-1.55,1.5V82h-.75Z" fill="#fff"/><path d="M302.88,79.65v-.07a2.21,2.21,0,0,1,2.2-2.41,2.06,2.06,0,0,1,2.12,2.34v.24h-3.55c0,1.07.55,1.67,1.51,1.67.73,0,1.16-.27,1.26-.82h.74a1.81,1.81,0,0,1-2,1.44A2.21,2.21,0,0,1,302.88,79.65Zm3.55-.5c-.07-1-.57-1.36-1.35-1.36a1.41,1.41,0,0,0-1.4,1.36Z" fill="#fff"/><path d="M308.37,77.88h-.68v-.63h.68v-.77c0-1,.47-1.51,1.4-1.51a1.6,1.6,0,0,1,.56.09v.63a1.56,1.56,0,0,0-.53-.1c-.49,0-.69.33-.69.81v.85h1.16v.63h-1.16V82h-.74Z" fill="#fff"/><path d="M311.14,80.23v-3h.75v2.94c0,.83.35,1.2,1.09,1.2a1.24,1.24,0,0,0,1.29-1.29V77.25H315V82h-.75v-.75a1.6,1.6,0,0,1-1.49.83C311.84,82,311.14,81.52,311.14,80.23Z" fill="#fff"/><path d="M316.4,77.25h.74V78a1.61,1.61,0,0,1,1.51-.83c1,0,1.66.53,1.66,1.9V82h-.75V79c0-.83-.35-1.19-1.1-1.19a1.24,1.24,0,0,0-1.32,1.28V82h-.74Z" fill="#fff"/><path d="M321.29,79.7v-.08a2.23,2.23,0,0,1,2.2-2.45A1.7,1.7,0,0,1,325,78V75h.74v7H325v-.81a2,2,0,0,1-1.61.89A2.1,2.1,0,0,1,321.29,79.7Zm3.76-.07v-.07c0-1.2-.57-1.77-1.49-1.77s-1.5.66-1.5,1.8v.07c0,1.19.64,1.76,1.44,1.76S325.05,80.84,325.05,79.63Z" fill="#fff"/><path d="M327.09,81.43a.58.58,0,1,1,.57.57A.57.57,0,0,1,327.09,81.43Z" fill="#fff"/><rect width="728" height="90" fill="none"/></g></g></svg>