<svg xmlns="http://www.w3.org/2000/svg" viewBox="0 0 728 90"><title>H79</title><g id="Layer_2" data-name="Layer 2"><g id="Rect"><rect width="728" height="90" fill="none"/></g><g id="H79"><g id="Up_to_3_500_today._No_interest._No_loan_fees." data-name="Up to $3,500 today. No interest. No loan fees."><path d="M121.71,27.34V16h5.46V27.1c0,2.69.67,4,3,4s3-1.23,3-4.08V16h5.52V27.26c0,5.54-3.25,8.13-8.5,8.13S121.71,32.67,121.71,27.34Z" fill="#fff"/><path d="M141.24,21.13H146V23.2a4.93,4.93,0,0,1,4.35-2.45c3.25,0,5.89,2.45,5.89,7.23v.21c0,4.8-2.64,7.2-5.92,7.2A4.6,4.6,0,0,1,146,33v6.72h-4.77Zm10.16,7.06V28c0-2.46-1.07-3.63-2.75-3.63s-2.77,1.25-2.77,3.6v.21c0,2.38,1,3.57,2.77,3.57S151.4,30.48,151.4,28.19Z" fill="#fff"/><path d="M163.47,30.59V24.38h-1.68V21.13h1.68V18.22h4.77v2.91H171v3.25h-2.74v5.76c0,1,.5,1.46,1.41,1.46a3.66,3.66,0,0,0,1.36-.24V35a10,10,0,0,1-2.64.4C165.23,35.39,163.47,33.87,163.47,30.59Z" fill="#fff"/><path d="M172.05,28.27v-.21c0-4.48,3.33-7.31,7.65-7.31s7.59,2.75,7.59,7.17v.22c0,4.53-3.33,7.25-7.62,7.25S172.05,32.77,172.05,28.27Zm10.39-.08V28c0-2.35-.93-3.66-2.74-3.66s-2.77,1.26-2.77,3.6v.22c0,2.4.93,3.7,2.77,3.7S182.44,30.51,182.44,28.19Z" fill="#fff"/><path d="M196.88,26.35c-2.69-.19-4-1.62-4.1-3.67h2.87a1.47,1.47,0,0,0,1.23,1.46V21.87c-2.7-.38-3.85-1.36-3.85-3.52,0-1.88,1.47-3.23,3.85-3.4V13.56h1.21V15c2.25.19,3.59,1.23,3.78,3.36h-2.81a1.25,1.25,0,0,0-1-1.17V19.3c2.38.34,3.93,1.15,3.93,3.4,0,1.89-1.23,3.48-3.93,3.65v1.94h-1.21Zm0-7.24v-2c-.7.13-1.06.5-1.06,1S196,18.94,196.88,19.11Zm1.21,3v2.06c.69-.14,1-.54,1-1.1S198.92,22.26,198.09,22.08Z" fill="#fff"/><path d="M203,28.8h4.85a2.55,2.55,0,0,0,2.8,2.64c1.68,0,2.51-.8,2.51-2.16s-.8-2.24-2.51-2.24H209.1V23.66h1.42c1.7,0,2.53-.78,2.53-2.11,0-1.14-.75-1.89-2.19-1.89a2.44,2.44,0,0,0-2.53,2.42h-4.82c.24-3.75,2.74-6.34,7.49-6.34,4.47,0,7.17,2,7.17,5.23a4.07,4.07,0,0,1-3.23,4.1,4.29,4.29,0,0,1,3.71,4.32c0,3.62-2.7,6-7.73,6C205.61,35.39,203.13,32.93,203,28.8Z" fill="#fff"/><path d="M219.1,37.23l2.23-7,4.43,1.57-3.84,6.53Z" fill="#fff"/><path d="M226.64,29.07h5a2.18,2.18,0,0,0,2.48,2.21c1.57,0,2.29-1.17,2.29-2.69a2.42,2.42,0,0,0-2.59-2.72,3.88,3.88,0,0,0-3.14,1.36h-3.26l.4-11.22h12.85v4h-8.9l-.11,4.21a5.08,5.08,0,0,1,4.45-2c3.5,0,5.79,2.35,5.79,6.48s-2.91,6.72-7.73,6.72C229.06,35.39,226.77,32.64,226.64,29.07Z" fill="#fff"/><path d="M243.19,26v-.8c0-6,3.76-9.41,8.79-9.41s8.8,3.12,8.8,9.3v.75c0,6.05-3.46,9.6-8.9,9.6S243.19,32,243.19,26Zm12.13-.05v-.78c0-3.49-1-5.25-3.34-5.25s-3.33,1.74-3.33,5.25v.8c0,3.55,1,5.23,3.39,5.23S255.32,29.42,255.32,25.9Z" fill="#fff"/><path d="M262.3,26v-.8c0-6,3.75-9.41,8.79-9.41s8.8,3.12,8.8,9.3v.75c0,6.05-3.47,9.6-8.9,9.6S262.3,32,262.3,26Zm12.12-.05v-.78c0-3.49-1-5.25-3.33-5.25s-3.33,1.74-3.33,5.25v.8c0,3.55,1,5.23,3.39,5.23S274.42,29.42,274.42,25.9Z" fill="#fff"/><path d="M287.35,30.59V24.38h-1.68V21.13h1.68V18.22h4.77v2.91h2.74v3.25h-2.74v5.76c0,1,.5,1.46,1.41,1.46a3.66,3.66,0,0,0,1.36-.24V35a10,10,0,0,1-2.64.4C289.11,35.39,287.35,33.87,287.35,30.59Z" fill="#fff"/><path d="M295.93,28.27v-.21c0-4.48,3.33-7.31,7.65-7.31s7.6,2.75,7.6,7.17v.22c0,4.53-3.34,7.25-7.63,7.25S295.93,32.77,295.93,28.27Zm10.39-.08V28c0-2.35-.93-3.66-2.74-3.66s-2.77,1.26-2.77,3.6v.22c0,2.4.93,3.7,2.77,3.7S306.32,30.51,306.32,28.19Z" fill="#fff"/><path d="M312.16,28.24V28c0-4.75,2.61-7.28,5.92-7.28a4.53,4.53,0,0,1,4.29,2.35V15h4.77V35.07h-4.77V32.8A4.71,4.71,0,0,1,318,35.39C314.8,35.39,312.16,33.07,312.16,28.24Zm10.34-.08V28c0-2.35-1-3.6-2.75-3.6S317,25.55,317,28v.21c0,2.35,1,3.54,2.69,3.54S322.5,30.54,322.5,28.16Z" fill="#fff"/><path d="M328.76,31.2c0-3.28,2.77-4.56,7.41-4.56h1.33v-.32c0-1.33-.32-2.21-1.84-2.21a1.71,1.71,0,0,0-1.89,1.65h-4.48c.22-3.35,2.86-5,6.67-5s6.29,1.58,6.29,5.28v9h-4.64V33.44a4.59,4.59,0,0,1-4.13,2C331,35.39,328.76,34.16,328.76,31.2Zm8.74-1v-.85h-1.25c-1.92,0-2.77.37-2.77,1.52,0,.8.53,1.3,1.65,1.3C336.49,32.16,337.5,31.39,337.5,30.19Z" fill="#fff"/><path d="M348.46,33.65l-5.58-12.52h5.18l2.87,7.43,2.67-7.43h4.56l-7.47,18.6h-4.55Z" fill="#fff"/><path d="M357.14,32.67A2.66,2.66,0,0,1,359.86,30a2.69,2.69,0,1,1,0,5.38A2.66,2.66,0,0,1,357.14,32.67Z" fill="#fff"/><path d="M370.17,16h6.16l6.11,10.74V16h4.77V35.07h-5.28l-7-12v12h-4.8Z" fill="#fff"/><path d="M389.12,28.27v-.21c0-4.48,3.33-7.31,7.65-7.31s7.6,2.75,7.6,7.17v.22c0,4.53-3.33,7.25-7.62,7.25S389.12,32.77,389.12,28.27Zm10.4-.08V28c0-2.35-.94-3.66-2.75-3.66S394,25.58,394,27.92v.22c0,2.4.93,3.7,2.77,3.7S399.52,30.51,399.52,28.19Z" fill="#fff"/><path d="M410.79,17.34a2.49,2.49,0,0,1,2.61-2.48,2.47,2.47,0,1,1,0,4.93A2.47,2.47,0,0,1,410.79,17.34Zm.24,3.79h4.77V35.07H411Z" fill="#fff"/><path d="M418.36,21.13h4.77v2.23a4.93,4.93,0,0,1,4.58-2.61c2.7,0,4.56,1.68,4.56,5.25v9.07H427.5V27c0-1.57-.61-2.34-2-2.34s-2.37.85-2.37,2.64v7.81h-4.77Z" fill="#fff"/><path d="M435.23,30.59V24.38h-1.68V21.13h1.68V18.22H440v2.91h2.74v3.25H440v5.76c0,1,.5,1.46,1.41,1.46a3.66,3.66,0,0,0,1.36-.24V35a10,10,0,0,1-2.64.4C437,35.39,435.23,33.87,435.23,30.59Z" fill="#fff"/><path d="M443.81,28.27v-.21c0-4.48,3.33-7.31,7.54-7.31,3.81,0,7.09,2.19,7.09,7.2V29.2h-9.81a2.79,2.79,0,0,0,2.91,2.91c1.57,0,2.24-.72,2.42-1.65h4.48c-.43,3.14-2.85,4.93-7.06,4.93C447,35.39,443.81,32.83,443.81,28.27Zm10-1.76c-.08-1.68-.9-2.61-2.45-2.61a2.65,2.65,0,0,0-2.67,2.61Z" fill="#fff"/><path d="M460.09,21.13h4.77V23.9a4.4,4.4,0,0,1,4.51-3v4.45c-2.91-.08-4.51.83-4.51,3.07v6.61h-4.77Z" fill="#fff"/><path d="M470.22,28.27v-.21c0-4.48,3.33-7.31,7.54-7.31,3.81,0,7.09,2.19,7.09,7.2V29.2H475A2.79,2.79,0,0,0,478,32.11c1.57,0,2.24-.72,2.42-1.65h4.48c-.43,3.14-2.85,4.93-7.06,4.93C473.42,35.39,470.22,32.83,470.22,28.27Zm10-1.76c-.08-1.68-.9-2.61-2.45-2.61a2.65,2.65,0,0,0-2.67,2.61Z" fill="#fff"/><path d="M485.7,30.64h4.4c.16,1,.61,1.57,2,1.57,1.17,0,1.71-.45,1.71-1.14s-.67-1-2.59-1.25c-3.73-.48-5.3-1.58-5.3-4.48,0-3.09,2.74-4.59,6-4.59,3.44,0,5.84,1.18,6.16,4.51H493.7a1.56,1.56,0,0,0-1.79-1.39c-1,0-1.57.45-1.57,1.09s.64.94,2.34,1.15c3.87.48,5.74,1.49,5.74,4.48,0,3.3-2.46,4.8-6.32,4.8S485.81,33.73,485.7,30.64Z" fill="#fff"/><path d="M500.6,30.59V24.38h-1.68V21.13h1.68V18.22h4.77v2.91h2.75v3.25h-2.75v5.76a1.27,1.27,0,0,0,1.41,1.46,3.62,3.62,0,0,0,1.36-.24V35a10,10,0,0,1-2.64.4C502.36,35.39,500.6,33.87,500.6,30.59Z" fill="#fff"/><path d="M509.74,32.67A2.65,2.65,0,0,1,512.46,30a2.69,2.69,0,1,1,0,5.38A2.65,2.65,0,0,1,509.74,32.67Z" fill="#fff"/><path d="M522.77,16h6.16L535,26.75V16h4.77V35.07h-5.27l-7-12v12h-4.8Z" fill="#fff"/><path d="M541.72,28.27v-.21c0-4.48,3.33-7.31,7.65-7.31s7.6,2.75,7.6,7.17v.22c0,4.53-3.34,7.25-7.63,7.25S541.72,32.77,541.72,28.27Zm10.39-.08V28c0-2.35-.93-3.66-2.74-3.66s-2.77,1.26-2.77,3.6v.22c0,2.4.93,3.7,2.77,3.7S552.11,30.51,552.11,28.19Z" fill="#fff"/><path d="M121.55,43.64h4.74V63.72h-4.74Z" fill="#fff"/><path d="M128.1,56.92v-.21c0-4.48,3.33-7.31,7.65-7.31s7.6,2.75,7.6,7.17v.22c0,4.53-3.33,7.25-7.62,7.25S128.1,61.42,128.1,56.92Zm10.4-.08v-.21c0-2.35-.94-3.66-2.75-3.66S133,54.23,133,56.57v.22c0,2.4.93,3.7,2.77,3.7S138.5,59.16,138.5,56.84Z" fill="#fff"/><path d="M144.22,59.85c0-3.28,2.78-4.56,7.42-4.56H153V55c0-1.33-.32-2.21-1.84-2.21a1.7,1.7,0,0,0-1.89,1.65h-4.48c.21-3.36,2.85-5,6.66-5s6.29,1.58,6.29,5.28v9h-4.64V62.09a4.57,4.57,0,0,1-4.13,2C146.44,64,144.22,62.81,144.22,59.85Zm8.75-1V58h-1.25c-1.92,0-2.78.37-2.78,1.52,0,.79.54,1.3,1.66,1.3C152,60.81,153,60,153,58.84Z" fill="#fff"/><path d="M160,49.78h4.77V52a4.94,4.94,0,0,1,4.58-2.61c2.7,0,4.56,1.68,4.56,5.25v9.07h-4.77V55.61c0-1.57-.61-2.34-2-2.34s-2.37.85-2.37,2.64v7.81H160Z" fill="#fff"/><path d="M181.83,53h-1.76V49.78h1.76V48.55c0-3.47,2.16-5.12,5.46-5.12a8.55,8.55,0,0,1,2.19.29v3.5a4.28,4.28,0,0,0-1.31-.19,1.4,1.4,0,0,0-1.6,1.52v1.23h2.83V53h-2.83V63.72h-4.74Z" fill="#fff"/><path d="M189.77,56.92v-.21c0-4.48,3.33-7.31,7.54-7.31,3.81,0,7.09,2.19,7.09,7.2v1.25h-9.81a2.79,2.79,0,0,0,2.91,2.91c1.57,0,2.24-.72,2.42-1.65h4.48C204,62.25,201.55,64,197.34,64,193,64,189.77,61.48,189.77,56.92Zm10-1.76c-.08-1.68-.91-2.61-2.46-2.61a2.65,2.65,0,0,0-2.66,2.61Z" fill="#fff"/><path d="M205.31,56.92v-.21c0-4.48,3.33-7.31,7.54-7.31,3.81,0,7.09,2.19,7.09,7.2v1.25h-9.81A2.79,2.79,0,0,0,213,60.76c1.57,0,2.23-.72,2.42-1.65h4.48c-.43,3.14-2.85,4.93-7.06,4.93C208.5,64,205.31,61.48,205.31,56.92Zm10-1.76c-.08-1.68-.9-2.61-2.45-2.61a2.65,2.65,0,0,0-2.67,2.61Z" fill="#fff"/><path d="M220.79,59.29h4.4c.16,1,.61,1.58,2,1.58,1.17,0,1.71-.46,1.71-1.15s-.67-1-2.59-1.25C222.55,58,221,56.89,221,54c0-3.09,2.74-4.59,6-4.59,3.43,0,5.83,1.18,6.15,4.51h-4.31A1.56,1.56,0,0,0,227,52.52c-1,0-1.57.45-1.57,1.09s.64.94,2.34,1.15c3.87.48,5.73,1.49,5.73,4.48,0,3.3-2.45,4.8-6.31,4.8S220.9,62.38,220.79,59.29Z" fill="#fff"/><path d="M234.86,61.32a2.66,2.66,0,0,1,2.72-2.69,2.69,2.69,0,1,1,0,5.38A2.66,2.66,0,0,1,234.86,61.32Z" fill="#fff"/></g></g></g></svg>