<svg xmlns="http://www.w3.org/2000/svg" viewBox="0 0 300 250"><title>H192</title><g id="Layer_2" data-name="Layer 2"><g id="Rect"><rect width="300" height="250" fill="none"/></g><g id="Drop_off_your_docs_and_go." data-name="Drop off your docs and go."><path d="M22.86,47.08H33.65c10.54,0,15.89,5.27,15.89,14.48v.33c0,9.25-5.48,14.85-15.93,14.85H22.86Zm10.5,23.11c5.06,0,7.3-2.66,7.3-8.17v-.34c0-5.64-2.24-8-7.38-8H31.41V70.19Z" fill="#fff"/><path d="M52.41,55.05h7.42v4.31a6.82,6.82,0,0,1,7-4.6v6.92c-4.52-.12-7,1.29-7,4.78V76.74H52.41Z" fill="#fff"/><path d="M68.17,66.16v-.33c0-7,5.19-11.37,11.91-11.37S91.9,58.74,91.9,65.63V66C91.9,73,86.72,77.24,80,77.24S68.17,73.18,68.17,66.16ZM84.35,66v-.33c0-3.65-1.45-5.69-4.27-5.69S75.77,62,75.77,65.63V66c0,3.73,1.45,5.76,4.31,5.76S84.35,69.65,84.35,66Z" fill="#fff"/><path d="M94.52,55.05H102v3.23a7.66,7.66,0,0,1,6.76-3.82c5.06,0,9.17,3.82,9.17,11.25V66c0,7.47-4.11,11.2-9.21,11.2-3.28,0-5.64-1.53-6.72-3.69V84H94.52Zm15.81,11v-.33c0-3.82-1.66-5.64-4.28-5.64s-4.31,2-4.31,5.6V66c0,3.69,1.62,5.56,4.31,5.56S110.33,69.61,110.33,66Z" fill="#fff"/><path d="M127,66.16v-.33c0-7,5.18-11.37,11.91-11.37s11.82,4.28,11.82,11.17V66c0,7.05-5.19,11.28-11.87,11.28S127,73.18,127,66.16ZM143.15,66v-.33c0-3.65-1.45-5.69-4.27-5.69s-4.32,1.95-4.32,5.61V66c0,3.73,1.45,5.76,4.32,5.76S143.15,69.65,143.15,66Z" fill="#fff"/><path d="M154.44,60.11H151.7V55.05h2.74V53.39c0-5.4,3.31-7.93,8.46-7.93a12.43,12.43,0,0,1,3.32.42v5.43a6.71,6.71,0,0,0-2-.29,2.18,2.18,0,0,0-2.41,2.37v1.66h6.31V53.14c0-5.4,3.4-8,8.5-8a13.12,13.12,0,0,1,3.4.46v5.43a7,7,0,0,0-2-.29,2.17,2.17,0,0,0-2.45,2.37v1.91H180v5.06h-4.4V76.74h-7.42V60.11h-6.31V76.74h-7.38Z" fill="#fff"/><path d="M196.76,74.55l-8.68-19.5h8l4.48,11.57,4.15-11.57h7.1L200.24,84h-7.09Z" fill="#fff"/><path d="M211.44,66.16v-.33c0-7,5.19-11.37,11.91-11.37s11.83,4.28,11.83,11.17V66c0,7.05-5.19,11.28-11.87,11.28S211.44,73.18,211.44,66.16ZM227.63,66v-.33c0-3.65-1.46-5.69-4.28-5.69S219,62,219,65.63V66c0,3.73,1.45,5.76,4.31,5.76S227.63,69.65,227.63,66Z" fill="#fff"/><path d="M237.63,69.19V55.05h7.42V68c0,2.45,1,3.65,3.07,3.65s3.7-1.33,3.7-4.11V55.05h7.42V76.74h-7.42V73.38c-1.17,2.24-3.28,3.86-6.89,3.86C240.74,77.24,237.63,74.67,237.63,69.19Z" fill="#fff"/><path d="M263,55.05h7.43v4.31a6.81,6.81,0,0,1,7-4.6v6.92c-4.53-.12-7,1.29-7,4.78V76.74H263Z" fill="#fff"/><path d="M21.12,109.63v-.34c0-7.38,4.07-11.32,9.21-11.32A7,7,0,0,1,37,101.62V89h7.43v31.24H37v-3.53a7.31,7.31,0,0,1-6.76,4C25.23,120.75,21.12,117.14,21.12,109.63Zm16.1-.13v-.33c0-3.65-1.54-5.6-4.28-5.6s-4.27,1.87-4.27,5.64v.33c0,3.65,1.62,5.52,4.19,5.52S37.22,113.19,37.22,109.5Z" fill="#fff"/><path d="M47.05,109.67v-.33c0-7,5.19-11.37,11.91-11.37s11.82,4.27,11.82,11.16v.33c0,7.05-5.18,11.29-11.86,11.29S47.05,116.68,47.05,109.67Zm16.18-.13v-.33c0-3.65-1.45-5.68-4.27-5.68s-4.31,2-4.31,5.6v.33c0,3.73,1.45,5.77,4.31,5.77S63.23,113.15,63.23,109.54Z" fill="#fff"/><path d="M72.24,109.67v-.33c0-7.22,5.18-11.37,11.57-11.37,5.32,0,10.21,2.32,10.63,8.92h-7c-.34-2-1.33-3.16-3.49-3.16-2.61,0-4.15,1.87-4.15,5.52v.33c0,3.78,1.45,5.73,4.27,5.73,2.08,0,3.53-1.24,3.78-3.61h6.68c-.21,5.48-3.9,9-10.91,9C77.18,120.75,72.24,117,72.24,109.67Z" fill="#fff"/><path d="M95.81,113.36h6.84c.25,1.58,1,2.45,3.07,2.45,1.83,0,2.66-.71,2.66-1.79s-1-1.53-4-2c-5.81-.74-8.25-2.44-8.25-7,0-4.81,4.27-7.13,9.29-7.13,5.35,0,9.09,1.82,9.58,7h-6.72a2.43,2.43,0,0,0-2.78-2.16c-1.62,0-2.45.71-2.45,1.7s1,1.46,3.66,1.79c6,.74,8.92,2.32,8.92,7,0,5.14-3.82,7.47-9.84,7.47C99.58,120.75,96,118.17,95.81,113.36Z" fill="#fff"/><path d="M124.31,114.23c0-5.1,4.32-7.09,11.54-7.09h2.07v-.5c0-2.08-.5-3.44-2.86-3.44a2.67,2.67,0,0,0-2.95,2.57h-7c.33-5.23,4.44-7.8,10.37-7.8s9.79,2.45,9.79,8.21v14.07h-7.21v-2.53c-1,1.57-3,3-6.44,3C127.75,120.75,124.31,118.84,124.31,114.23Zm13.61-1.58v-1.32H136c-3,0-4.32.58-4.32,2.36,0,1.25.83,2,2.58,2C136.34,115.72,137.92,114.52,137.92,112.65Z" fill="#fff"/><path d="M148.92,98.55h7.42V102A7.66,7.66,0,0,1,163.48,98c4.19,0,7.09,2.61,7.09,8.17v14.11h-7.42V107.63c0-2.44-1-3.65-3.12-3.65s-3.69,1.33-3.69,4.11v12.16h-7.42Z" fill="#fff"/><path d="M173.11,109.63v-.34c0-7.38,4.06-11.32,9.21-11.32a7,7,0,0,1,6.68,3.65V89h7.42v31.24H189v-3.53a7.33,7.33,0,0,1-6.77,4C177.21,120.75,173.11,117.14,173.11,109.63Zm16.09-.13v-.33c0-3.65-1.53-5.6-4.27-5.6s-4.27,1.87-4.27,5.64v.33c0,3.65,1.62,5.52,4.19,5.52S189.2,113.19,189.2,109.5Z" fill="#fff"/><path d="M206.55,120.25h7.38c.34,1.57,1.29,2.82,4,2.82,3.28,0,4.6-1.87,4.6-4.57v-3.31a7.61,7.61,0,0,1-6.72,4c-5.06,0-9.21-3.74-9.21-10.42v-.33C206.59,102,210.7,98,215.8,98c3.45,0,5.48,1.45,6.72,3.65V98.55H230v19.87c0,6.47-4.27,9.88-12,9.88C210.53,128.3,207.13,125.18,206.55,120.25Zm16.18-11.54v-.29c0-3-1.53-4.89-4.27-4.89s-4.28,2-4.28,4.93v.34c0,3,1.58,4.89,4.24,4.89S222.73,111.78,222.73,108.71Z" fill="#fff"/><path d="M232.57,109.67v-.33c0-7,5.18-11.37,11.9-11.37s11.83,4.27,11.83,11.16v.33c0,7.05-5.19,11.29-11.87,11.29S232.57,116.68,232.57,109.67Zm16.18-.13v-.33c0-3.65-1.46-5.68-4.28-5.68s-4.31,2-4.31,5.6v.33c0,3.73,1.45,5.77,4.31,5.77S248.75,113.15,248.75,109.54Z" fill="#fff"/><path d="M257.71,116.51a4.14,4.14,0,0,1,4.23-4.19,4.19,4.19,0,1,1,0,8.38A4.13,4.13,0,0,1,257.71,116.51Z" fill="#fff"/></g></g></svg>