<svg xmlns="http://www.w3.org/2000/svg" viewBox="0 0 300 600"><title>H72</title><g id="Layer_2" data-name="Layer 2"><g id="Rect"><rect width="300" height="600" fill="none"/></g><g id="H72"><g id="Texan_Taxpayer_Filing_at_H_R_Block_could_save_you_money." data-name="Texan?  Taxpayer? Filing at H&amp;R Block could save you money."><path d="M27.79,80.4H19.25V73.1h26.6v7.3H37.3v25.72H27.79Z" fill="#fff"/><path d="M43.81,94.34V94c0-7.76,5.77-12.65,13.07-12.65,6.6,0,12.28,3.79,12.28,12.47V96h-17c.23,3.19,2.08,5,5,5,2.72,0,3.88-1.25,4.2-2.87h7.76c-.74,5.45-4.94,8.55-12.24,8.55C49.35,106.68,43.81,102.24,43.81,94.34Zm17.31-3c-.13-2.91-1.56-4.53-4.24-4.53-2.5,0-4.2,1.62-4.62,4.53Z" fill="#fff"/><path d="M76.82,93.84,69.29,82h9.52l3.74,6.37L86.19,82h8.5L87.07,93.19l8.36,12.93H85.92l-4.3-7.2-4.38,7.2H68.79Z" fill="#fff"/><path d="M96,99.42c0-5.68,4.81-7.89,12.84-7.89h2.31V91c0-2.31-.55-3.83-3.19-3.83A3,3,0,0,0,104.71,90H97c.37-5.82,4.94-8.68,11.54-8.68s10.9,2.72,10.9,9.14v15.66h-8V103.3c-1.15,1.76-3.27,3.38-7.15,3.38C99.86,106.68,96,104.55,96,99.42Zm15.15-1.75V96.19H109c-3.33,0-4.8.65-4.8,2.63,0,1.39.92,2.27,2.86,2.27C109.41,101.09,111.17,99.75,111.17,97.67Z" fill="#fff"/><path d="M123.4,82h8.27v3.88a8.51,8.51,0,0,1,7.94-4.53c4.66,0,7.89,2.91,7.89,9.1v15.7h-8.26v-14c0-2.72-1.06-4.06-3.46-4.06s-4.11,1.47-4.11,4.57v13.53H123.4Z" fill="#fff"/><path d="M156,94.39c0-3.51,2.4-5.73,4.53-7.76,1.56-1.52,3-2.91,3-4.53,0-1.8-.88-2.77-2.82-2.77s-3.33,1.53-3.65,4.07h-8c.23-7,5.22-10.76,12.33-10.76s11.12,3.18,11.12,8.68c0,3.05-1.52,5.13-3.37,6.93-2.26,2.26-4.89,4.06-5.31,6.33v.69H156Zm-1.06,7.67a5,5,0,0,1,9.88,0,5,5,0,0,1-9.88,0Z" fill="#fff"/><path d="M27.79,139.94H19.25v-7.29h26.6v7.29H37.3v25.73H27.79Z" fill="#fff"/><path d="M44.18,159c0-5.68,4.8-7.89,12.84-7.89h2.3v-.56c0-2.31-.55-3.83-3.18-3.83a3,3,0,0,0-3.28,2.86H45.1c.37-5.82,4.94-8.68,11.55-8.68s10.89,2.72,10.89,9.14v15.66h-8v-2.82c-1.15,1.76-3.28,3.38-7.16,3.38C48,166.23,44.18,164.1,44.18,159Zm15.14-1.75v-1.48H57.15c-3.32,0-4.8.65-4.8,2.63,0,1.39.93,2.27,2.87,2.27C57.57,160.64,59.32,159.3,59.32,157.22Z" fill="#fff"/><path d="M77.65,153.39l-7.53-11.87h9.52l3.74,6.37L87,141.52h8.5L87.9,152.74l8.36,12.93H86.75l-4.3-7.2-4.38,7.2H69.62Z" fill="#fff"/><path d="M98.56,141.52h8.27v3.6a8.51,8.51,0,0,1,7.52-4.25c5.64,0,10.21,4.25,10.21,12.52v.37c0,8.31-4.57,12.47-10.25,12.47-3.65,0-6.28-1.71-7.48-4.11v11.63H98.56Zm17.6,12.24v-.37c0-4.25-1.85-6.29-4.76-6.29s-4.8,2.17-4.8,6.24v.37c0,4.11,1.8,6.19,4.8,6.19S116.16,157.73,116.16,153.76Z" fill="#fff"/><path d="M126.17,159c0-5.68,4.8-7.89,12.84-7.89h2.3v-.56c0-2.31-.55-3.83-3.18-3.83a3,3,0,0,0-3.28,2.86h-7.76c.37-5.82,4.94-8.68,11.55-8.68s10.89,2.72,10.89,9.14v15.66h-8v-2.82c-1.15,1.76-3.28,3.38-7.16,3.38C130,166.23,126.17,164.1,126.17,159Zm15.14-1.75v-1.48h-2.16c-3.33,0-4.81.65-4.81,2.63,0,1.39.93,2.27,2.87,2.27C139.56,160.64,141.31,159.3,141.31,157.22Z" fill="#fff"/><path d="M160.29,163.22l-9.65-21.7h9l5,12.88,4.62-12.88h7.89l-12.92,32.23h-7.9Z" fill="#fff"/><path d="M176.63,153.89v-.37c0-7.76,5.77-12.65,13.07-12.65,6.6,0,12.28,3.79,12.28,12.47v2.17H185c.23,3.19,2.08,5,5,5,2.72,0,3.88-1.24,4.2-2.86H202c-.74,5.45-4.94,8.55-12.24,8.55C182.17,166.23,176.63,161.79,176.63,153.89Zm17.32-3c-.14-2.91-1.57-4.53-4.25-4.53-2.5,0-4.2,1.62-4.62,4.53Z" fill="#fff"/><path d="M204.84,141.52h8.26v4.8a7.64,7.64,0,0,1,7.81-5.13v7.72c-5-.14-7.81,1.43-7.81,5.31v11.45h-8.26Z" fill="#fff"/><path d="M229.72,153.94c0-3.51,2.4-5.73,4.53-7.76,1.57-1.52,3-2.91,3-4.53,0-1.8-.88-2.77-2.82-2.77s-3.32,1.53-3.65,4.07h-8c.23-7,5.22-10.76,12.33-10.76s11.13,3.18,11.13,8.68c0,3-1.53,5.13-3.38,6.93-2.26,2.26-4.89,4.06-5.31,6.32v.7h-7.8Zm-1.06,7.67a5,5,0,0,1,9.88,0,5,5,0,0,1-9.88,0Z" fill="#fff"/><path d="M21.47,192.2h22.3v7.34H31v7h10.2v7H31v11.68H21.47Z" fill="#fff"/><path d="M46.12,194.51a4.56,4.56,0,1,1,4.52,4.25A4.32,4.32,0,0,1,46.12,194.51Zm.41,6.55H54.8v24.16H46.53Z" fill="#fff"/><path d="M59.46,190.44h8.22v34.78H59.46Z" fill="#fff"/><path d="M71.93,194.51a4.56,4.56,0,1,1,4.52,4.25A4.31,4.31,0,0,1,71.93,194.51Zm.41,6.55h8.27v24.16H72.34Z" fill="#fff"/><path d="M85,201.06H93.3v3.88a8.53,8.53,0,0,1,7.94-4.52c4.67,0,7.9,2.91,7.9,9.1v15.7h-8.27v-14c0-2.72-1.06-4.06-3.46-4.06s-4.11,1.47-4.11,4.57v13.53H85Z" fill="#fff"/><path d="M111.81,225.22H120c.37,1.76,1.43,3.14,4.43,3.14,3.65,0,5.13-2.08,5.13-5.08v-3.69a8.47,8.47,0,0,1-7.48,4.43c-5.63,0-10.25-4.16-10.25-11.59v-.37c0-7.12,4.57-11.64,10.25-11.64,3.83,0,6.09,1.62,7.48,4.06v-3.42h8.26v22.13c0,7.2-4.75,11-13.39,11C116.25,234.18,112.46,230.72,111.81,225.22Zm18-12.84v-.32c0-3.33-1.71-5.45-4.76-5.45s-4.75,2.17-4.75,5.49v.37c0,3.33,1.75,5.45,4.71,5.45S129.82,215.8,129.82,212.38Z" fill="#fff"/><path d="M149.07,218.52c0-5.68,4.8-7.89,12.84-7.89h2.3v-.56c0-2.31-.55-3.83-3.18-3.83a3,3,0,0,0-3.28,2.86H150c.37-5.82,4.94-8.68,11.55-8.68s10.89,2.72,10.89,9.14v15.66h-8V222.4c-1.16,1.76-3.28,3.38-7.16,3.38C152.9,225.78,149.07,223.65,149.07,218.52Zm15.14-1.75v-1.48H162c-3.32,0-4.8.65-4.8,2.63,0,1.39.93,2.27,2.86,2.27C162.46,220.19,164.21,218.85,164.21,216.77Z" fill="#fff"/><path d="M177.42,217.46V206.7h-2.91v-5.64h2.91v-5h8.26v5h4.76v5.64h-4.76v10a2.21,2.21,0,0,0,2.45,2.54,6.23,6.23,0,0,0,2.35-.42v6.28a17.14,17.14,0,0,1-4.57.7C180.46,225.78,177.42,223.14,177.42,217.46Z" fill="#fff"/><path d="M21.47,251.75H31v12.61H41.83V251.75h9.46v33H41.83v-13H31v13H21.47Z" fill="#fff"/><path d="M83,278l5.5,6.74H77.7l-1.94-2.4a13.17,13.17,0,0,1-8.91,3c-7,0-11.59-3.7-11.59-10,0-4.25,2.58-7.39,7.25-9.61a10.53,10.53,0,0,1-2-5.77c0-5.64,4.8-8.64,10.62-8.64,5.26,0,10,2.63,10,7.71,0,3.61-2.13,6.24-6.61,8.18l4.16,5.08,2.4-4.71h7.2Zm-11.45-1-5.22-6.28a3.91,3.91,0,0,0-2.21,3.55,3.83,3.83,0,0,0,4.2,4.11A4.33,4.33,0,0,0,71.51,277.06Zm-1-13.3c2.21-1.07,3.27-2.31,3.27-4a2.37,2.37,0,0,0-2.44-2.54,2.63,2.63,0,0,0-2.73,2.86C68.6,261.26,69.34,262.42,70.5,263.76Z" fill="#fff"/><path d="M91.45,251.75h12.93c8.64,0,13.44,3.51,13.44,10.48v.19a8.62,8.62,0,0,1-6,8.68l7.9,13.67h-10L103.09,273h-2.22v11.82H91.45Zm12.47,15.05c3.19,0,4.76-1.33,4.76-4v-.19c0-2.68-1.67-3.74-4.71-3.74h-3.1v7.94Z" fill="#fff"/><path d="M131.34,251.75h14.73c7.8,0,11.13,3.51,11.13,8.63v.19c0,3.69-1.9,6.14-5.59,7.11,4.06.7,6.6,3.14,6.6,7.72v.18c0,5.91-3.83,9.19-12,9.19H131.34Zm12.84,13.11c2.95,0,4.06-1,4.06-3.37v-.18c0-2.27-1.2-3.28-4.06-3.28h-3.6v6.83Zm.32,13.58c3,0,4.39-1.38,4.39-3.83v-.18c0-2.5-1.34-3.79-4.67-3.79h-3.64v7.8Z" fill="#fff"/><path d="M161.49,250h8.22v34.78h-8.22Z" fill="#fff"/><path d="M172.84,273v-.37c0-7.76,5.77-12.65,13.25-12.65s13.16,4.76,13.16,12.42v.37c0,7.86-5.77,12.57-13.2,12.57S172.84,280.8,172.84,273Zm18-.13v-.37c0-4.07-1.62-6.33-4.76-6.33s-4.8,2.17-4.8,6.23v.37c0,4.16,1.62,6.42,4.8,6.42S190.85,276.87,190.85,272.86Z" fill="#fff"/><path d="M200.87,273v-.37c0-8,5.77-12.65,12.88-12.65,5.91,0,11.36,2.59,11.82,9.93h-7.76c-.37-2.26-1.48-3.51-3.88-3.51-2.91,0-4.61,2.08-4.61,6.14v.37c0,4.2,1.61,6.38,4.75,6.38,2.31,0,3.93-1.39,4.2-4h7.44c-.23,6.09-4.34,10.07-12.15,10.07C206.36,285.33,200.87,281.12,200.87,273Z" fill="#fff"/><path d="M228.38,250h8.27v20.19l6.51-9.56h8.59l-7.9,10.85,8.54,13.3h-9.23l-6.51-10.58v10.58h-8.27Z" fill="#fff"/><path d="M19.43,332.54v-.37c0-8,5.78-12.65,12.89-12.65,5.91,0,11.35,2.59,11.82,9.93H36.38c-.37-2.26-1.48-3.51-3.88-3.51-2.91,0-4.62,2.08-4.62,6.14v.37c0,4.21,1.62,6.38,4.76,6.38,2.31,0,3.92-1.39,4.2-4h7.44c-.24,6.09-4.34,10.07-12.15,10.07C24.93,344.88,19.43,340.67,19.43,332.54Z" fill="#fff"/><path d="M45.66,332.54v-.37c0-7.75,5.77-12.65,13.25-12.65s13.16,4.76,13.16,12.42v.37c0,7.86-5.77,12.57-13.21,12.57S45.66,340.35,45.66,332.54Zm18-.13V332c0-4.07-1.61-6.33-4.75-6.33s-4.8,2.17-4.8,6.23v.37c0,4.16,1.61,6.42,4.8,6.42S63.66,336.42,63.66,332.41Z" fill="#fff"/><path d="M74.79,335.92V320.17h8.26v14.41c0,2.72,1.06,4.06,3.42,4.06s4.11-1.48,4.11-4.57v-13.9h8.26v24.15H90.58v-3.74c-1.29,2.5-3.65,4.3-7.67,4.3C78.25,344.88,74.79,342,74.79,335.92Z" fill="#fff"/><path d="M103.27,309.54h8.22v34.78h-8.22Z" fill="#fff"/><path d="M114.72,332.5v-.37c0-8.22,4.53-12.61,10.25-12.61,3.79,0,6.05,1.62,7.44,4.06v-14h8.26v34.78h-8.26V340.4a8.16,8.16,0,0,1-7.53,4.48C119.29,344.88,114.72,340.86,114.72,332.5Zm17.92-.14V332c0-4.06-1.71-6.24-4.76-6.24s-4.76,2.08-4.76,6.29v.37c0,4.06,1.8,6.14,4.67,6.14S132.64,336.47,132.64,332.36Z" fill="#fff"/><path d="M151.65,336.66h7.62c.28,1.75,1.06,2.72,3.42,2.72,2,0,2.95-.79,2.95-2s-1.15-1.71-4.47-2.17c-6.47-.83-9.19-2.72-9.19-7.76,0-5.35,4.75-7.94,10.34-7.94,6,0,10.11,2,10.67,7.81H165.5c-.32-1.62-1.2-2.41-3.09-2.41s-2.72.79-2.72,1.9,1.11,1.61,4.06,2c6.7.83,9.93,2.59,9.93,7.76,0,5.73-4.25,8.32-10.94,8.32C155.86,344.88,151.84,342,151.65,336.66Z" fill="#fff"/><path d="M175,337.62c0-5.68,4.8-7.89,12.83-7.89h2.31v-.56c0-2.31-.55-3.83-3.18-3.83a3,3,0,0,0-3.28,2.86h-7.76c.37-5.82,4.94-8.68,11.54-8.68s10.9,2.72,10.9,9.14v15.66h-8V341.5c-1.16,1.76-3.28,3.38-7.16,3.38C178.8,344.88,175,342.75,175,337.62Zm15.14-1.75v-1.48h-2.17c-3.32,0-4.8.65-4.8,2.63,0,1.39.92,2.27,2.86,2.27C188.36,339.29,190.11,338,190.11,335.87Z" fill="#fff"/><path d="M199.57,320.17h8.82l5,15.56,4.94-15.56h7.89l-8.82,24.15h-9Z" fill="#fff"/><path d="M225.75,332.54v-.37c0-7.75,5.77-12.65,13.07-12.65,6.6,0,12.28,3.79,12.28,12.47v2.17h-17c.23,3.19,2.07,5,5,5,2.72,0,3.88-1.25,4.2-2.87h7.76c-.74,5.45-4.94,8.55-12.24,8.55C231.29,344.88,225.75,340.44,225.75,332.54Zm17.31-3c-.13-2.91-1.57-4.53-4.24-4.53-2.5,0-4.21,1.62-4.62,4.53Z" fill="#fff"/><path d="M28.3,401.42l-9.65-21.7h9l5,12.88,4.62-12.88h7.9L32.18,412h-7.9Z" fill="#fff"/><path d="M44.64,392.09v-.37c0-7.76,5.77-12.65,13.25-12.65s13.16,4.76,13.16,12.42v.37c0,7.85-5.77,12.57-13.2,12.57S44.64,399.9,44.64,392.09Zm18-.13v-.37c0-4.07-1.62-6.33-4.76-6.33s-4.8,2.17-4.8,6.23v.37c0,4.16,1.62,6.42,4.8,6.42S62.65,396,62.65,392Z" fill="#fff"/><path d="M73.77,395.47V379.72H82v14.41c0,2.72,1.06,4.06,3.41,4.06s4.11-1.48,4.11-4.57v-13.9h8.27v24.15H89.56v-3.74c-1.29,2.49-3.64,4.3-7.66,4.3C77.24,404.43,73.77,401.56,73.77,395.47Z" fill="#fff"/><path d="M110.43,379.72h8.26v3.69a8.43,8.43,0,0,1,7.57-4.34c3.19,0,5.41,1.38,6.56,4a9.57,9.57,0,0,1,8-4c4.57,0,7.89,3,7.89,9v15.79h-8.26V389.46c0-2.45-1.2-3.65-3.09-3.65-2.22,0-3.7,1.43-3.7,4.07v14h-8.17V389.46c0-2.45-1.2-3.65-3.09-3.65-2.22,0-3.7,1.43-3.7,4.07v14h-8.26Z" fill="#fff"/><path d="M151.42,392.09v-.37c0-7.76,5.77-12.65,13.25-12.65s13.16,4.76,13.16,12.42v.37c0,7.85-5.77,12.57-13.2,12.57S151.42,399.9,151.42,392.09Zm18-.13v-.37c0-4.07-1.62-6.33-4.76-6.33s-4.8,2.17-4.8,6.23v.37c0,4.16,1.62,6.42,4.8,6.42S169.43,396,169.43,392Z" fill="#fff"/><path d="M180.74,379.72H189v3.88a8.53,8.53,0,0,1,7.95-4.53c4.66,0,7.89,2.91,7.89,9.1v15.7h-8.26v-14c0-2.72-1.07-4.06-3.47-4.06s-4.11,1.47-4.11,4.57v13.53h-8.26Z" fill="#fff"/><path d="M207.56,392.09v-.37c0-7.76,5.77-12.65,13.07-12.65,6.6,0,12.28,3.79,12.28,12.47v2.17h-17c.23,3.19,2.08,5,5,5,2.72,0,3.88-1.25,4.2-2.87h7.76c-.74,5.45-4.94,8.55-12.24,8.55C213.1,404.43,207.56,400,207.56,392.09Zm17.32-3c-.14-2.91-1.57-4.53-4.25-4.53-2.5,0-4.2,1.62-4.62,4.53Z" fill="#fff"/><path d="M242.19,401.42l-9.65-21.7h9l5,12.88,4.62-12.88H259L246.07,412h-7.9Z" fill="#fff"/><path d="M257.24,399.71a4.6,4.6,0,0,1,4.71-4.66,4.67,4.67,0,1,1,0,9.33A4.6,4.6,0,0,1,257.24,399.71Z" fill="#fff"/></g></g></g></svg>