<svg xmlns="http://www.w3.org/2000/svg" viewBox="0 0 300 250"><title>H73</title><g id="Layer_2" data-name="Layer 2"><g id="Rect"><rect width="300" height="250" fill="none"/></g><g id="H73"><g id="Think_your_tax_preparer_costs_less_than_H_R_Block_Think_again" data-name="Think your tax  preparer costs less than H&amp;R Block? Think again"><path d="M25.64,29.25H20.4V24.78H36.7v4.47H31.46V45H25.64Z" fill="#fff"/><path d="M38.36,23.7h5.07v8.89a5.21,5.21,0,0,1,4.86-2.78c2.86,0,4.84,1.79,4.84,5.58V45H48.07v-8.6c0-1.67-.65-2.49-2.13-2.49s-2.51.9-2.51,2.8V45H38.36Z" fill="#fff"/><path d="M55.47,26.19a2.8,2.8,0,1,1,2.78,2.61A2.65,2.65,0,0,1,55.47,26.19Zm.26,4h5.06V45H55.73Z" fill="#fff"/><path d="M63.51,30.21h5.06v2.38a5.23,5.23,0,0,1,4.87-2.78c2.85,0,4.83,1.79,4.83,5.58V45H73.21v-8.6c0-1.67-.65-2.49-2.12-2.49s-2.52.9-2.52,2.8V45H63.51Z" fill="#fff"/><path d="M80.73,23.7H85.8V36.07l4-5.86h5.27l-4.84,6.65L95.44,45H89.78l-4-6.48V45H80.73Z" fill="#fff"/><path d="M106.41,43.51l-5.91-13.3H106l3.06,7.89,2.82-7.89h4.84L108.79,50H104Z" fill="#fff"/><path d="M116.43,37.79v-.23c0-4.75,3.53-7.75,8.11-7.75s8.07,2.92,8.07,7.61v.23c0,4.81-3.54,7.69-8.09,7.69S116.43,42.57,116.43,37.79Zm11-.08v-.23c0-2.49-1-3.88-2.92-3.88s-2.94,1.33-2.94,3.82v.23c0,2.55,1,3.93,2.94,3.93S127.46,40.17,127.46,37.71Z" fill="#fff"/><path d="M134.27,39.86V30.21h5.07V39c0,1.67.65,2.49,2.09,2.49s2.52-.91,2.52-2.8V30.21H149V45H144v-2.3a4.86,4.86,0,0,1-4.7,2.63C136.4,45.34,134.27,43.59,134.27,39.86Z" fill="#fff"/><path d="M151.58,30.21h5.07v2.94A4.67,4.67,0,0,1,161.43,30v4.73c-3.09-.09-4.78.87-4.78,3.25v7h-5.07Z" fill="#fff"/><path d="M169.09,40.25V33.66h-1.78V30.21h1.78V27.13h5.06v3.08h2.92v3.45h-2.92v6.11c0,1.08.54,1.56,1.5,1.56a3.9,3.9,0,0,0,1.45-.26v3.85a10.69,10.69,0,0,1-2.8.42C171,45.34,169.09,43.73,169.09,40.25Z" fill="#fff"/><path d="M178.2,40.9c0-3.48,2.94-4.83,7.86-4.83h1.42v-.34c0-1.42-.34-2.35-2-2.35a1.81,1.81,0,0,0-2,1.75h-4.76c.23-3.56,3-5.32,7.08-5.32s6.67,1.67,6.67,5.61V45h-4.92V43.28a4.87,4.87,0,0,1-4.38,2.06C180.55,45.34,178.2,44,178.2,40.9Zm9.28-1.07v-.91h-1.33c-2,0-2.94.4-2.94,1.62,0,.84.56,1.38,1.75,1.38C186.4,41.92,187.48,41.1,187.48,39.83Z" fill="#fff"/><path d="M198.7,37.48l-4.61-7.27h5.83l2.29,3.9,2.24-3.9h5.2L205,37.08,210.1,45h-5.82l-2.63-4.42L199,45h-5.18Z" fill="#fff"/><path d="M21.31,64.3h5.06v2.21A5.21,5.21,0,0,1,31,63.91c3.45,0,6.25,2.6,6.25,7.66v.23c0,5.09-2.8,7.64-6.28,7.64a4.89,4.89,0,0,1-4.58-2.52v7.13H21.31Zm10.78,7.5v-.23c0-2.6-1.14-3.85-2.92-3.85s-2.94,1.33-2.94,3.82v.23c0,2.52,1.1,3.79,2.94,3.79S32.09,74.23,32.09,71.8Z" fill="#fff"/><path d="M39.07,64.3h5.06v2.94a4.67,4.67,0,0,1,4.78-3.14v4.73c-3.08-.09-4.78.87-4.78,3.25v7H39.07Z" fill="#fff"/><path d="M49.82,71.88v-.22c0-4.76,3.53-7.75,8-7.75,4,0,7.53,2.31,7.53,7.63v1.33H54.94A3,3,0,0,0,58,76c1.67,0,2.38-.77,2.58-1.76h4.75c-.45,3.34-3,5.24-7.5,5.24C53.21,79.44,49.82,76.72,49.82,71.88ZM60.43,70c-.09-1.79-1-2.78-2.61-2.78S55.25,68.23,55,70Z" fill="#fff"/><path d="M67.1,64.3h5.06v2.21a5.21,5.21,0,0,1,4.61-2.6c3.46,0,6.26,2.6,6.26,7.66v.23c0,5.09-2.8,7.64-6.28,7.64a4.89,4.89,0,0,1-4.59-2.52v7.13H67.1Zm10.78,7.5v-.23c0-2.6-1.13-3.85-2.92-3.85S72,69.05,72,71.54v.23c0,2.52,1.1,3.79,2.94,3.79S77.88,74.23,77.88,71.8Z" fill="#fff"/><path d="M84,75c0-3.47,2.94-4.83,7.87-4.83h1.41v-.34c0-1.42-.34-2.35-2-2.35a1.81,1.81,0,0,0-2,1.75H84.58c.22-3.56,3-5.31,7.07-5.31s6.68,1.66,6.68,5.6V79.1H93.4V77.37A4.83,4.83,0,0,1,89,79.44C86.36,79.44,84,78.13,84,75Zm9.28-1.07V73H92c-2,0-2.94.4-2.94,1.62,0,.85.57,1.38,1.75,1.38C92.22,76,93.29,75.19,93.29,73.92Z" fill="#fff"/><path d="M100.79,64.3h5.06v2.94a4.67,4.67,0,0,1,4.78-3.14v4.73c-3.08-.09-4.78.87-4.78,3.25v7h-5.06Z" fill="#fff"/><path d="M111.53,71.88v-.22c0-4.76,3.54-7.75,8-7.75,4,0,7.52,2.31,7.52,7.63v1.33H116.65A3,3,0,0,0,119.74,76c1.67,0,2.37-.77,2.57-1.76h4.75c-.45,3.34-3,5.24-7.49,5.24C114.93,79.44,111.53,76.72,111.53,71.88ZM122.14,70c-.08-1.79-1-2.78-2.6-2.78s-2.58,1-2.83,2.78Z" fill="#fff"/><path d="M128.82,64.3h5.06v2.94a4.67,4.67,0,0,1,4.78-3.14v4.73c-3.08-.09-4.78.87-4.78,3.25v7h-5.06Z" fill="#fff"/><path d="M144.85,71.88v-.22c0-4.93,3.54-7.75,7.89-7.75,3.63,0,7,1.58,7.25,6.08h-4.76a2.18,2.18,0,0,0-2.37-2.15c-1.78,0-2.83,1.27-2.83,3.76v.23c0,2.57,1,3.9,2.91,3.9a2.47,2.47,0,0,0,2.58-2.46h4.55c-.14,3.73-2.66,6.17-7.44,6.17C148.22,79.44,144.85,76.86,144.85,71.88Z" fill="#fff"/><path d="M160.92,71.88v-.22c0-4.76,3.53-7.75,8.12-7.75s8.06,2.91,8.06,7.61v.22c0,4.81-3.54,7.7-8.09,7.7S160.92,76.66,160.92,71.88Zm11-.08v-.23c0-2.49-1-3.87-2.91-3.87s-2.95,1.33-2.95,3.82v.22c0,2.55,1,3.93,2.95,3.93S172,74.26,172,71.8Z" fill="#fff"/><path d="M178,74.4h4.67c.17,1.08.65,1.67,2.09,1.67,1.25,0,1.81-.48,1.81-1.22s-.7-1-2.74-1.33c-4-.51-5.63-1.67-5.63-4.75,0-3.28,2.91-4.86,6.34-4.86,3.65,0,6.19,1.24,6.53,4.78h-4.58a1.67,1.67,0,0,0-1.9-1.48c-1.1,0-1.67.49-1.67,1.17s.68,1,2.49,1.21c4.11.51,6.09,1.59,6.09,4.75,0,3.51-2.61,5.1-6.71,5.1S178.08,77.68,178,74.4Z" fill="#fff"/><path d="M193.78,74.34V67.75H192V64.3h1.78V61.22h5.07V64.3h2.91v3.45h-2.91v6.11c0,1.08.53,1.56,1.5,1.56a3.85,3.85,0,0,0,1.44-.26V79a10.56,10.56,0,0,1-2.8.43C195.65,79.44,193.78,77.82,193.78,74.34Z" fill="#fff"/><path d="M202.89,74.4h4.67c.17,1.08.65,1.67,2.09,1.67,1.25,0,1.81-.48,1.81-1.22s-.71-1-2.74-1.33c-4-.51-5.63-1.67-5.63-4.75,0-3.28,2.91-4.86,6.33-4.86,3.65,0,6.2,1.24,6.54,4.78h-4.58a1.67,1.67,0,0,0-1.9-1.48c-1.1,0-1.67.49-1.67,1.17s.68,1,2.49,1.21c4.1.51,6.08,1.59,6.08,4.75,0,3.51-2.6,5.1-6.7,5.1S203,77.68,202.89,74.4Z" fill="#fff"/><path d="M223.31,57.79h5V79.1h-5Z" fill="#fff"/><path d="M230.27,71.88v-.22c0-4.76,3.54-7.75,8-7.75,4,0,7.52,2.31,7.52,7.63v1.33H235.39A3,3,0,0,0,238.47,76c1.67,0,2.38-.77,2.58-1.76h4.75c-.45,3.34-3,5.24-7.5,5.24C233.66,79.44,230.27,76.72,230.27,71.88ZM240.88,70c-.09-1.79-1-2.78-2.6-2.78s-2.58,1-2.83,2.78Z" fill="#fff"/><path d="M246.7,74.4h4.67c.17,1.08.65,1.67,2.09,1.67,1.25,0,1.81-.48,1.81-1.22s-.7-1-2.74-1.33c-4-.51-5.63-1.67-5.63-4.75,0-3.28,2.91-4.86,6.34-4.86,3.65,0,6.19,1.24,6.53,4.78h-4.58a1.67,1.67,0,0,0-1.9-1.48c-1.1,0-1.67.49-1.67,1.17s.68,1,2.49,1.21c4.11.51,6.09,1.59,6.09,4.75,0,3.51-2.61,5.1-6.71,5.1S246.82,77.68,246.7,74.4Z" fill="#fff"/><path d="M260.93,74.4h4.67c.17,1.08.65,1.67,2.09,1.67,1.25,0,1.81-.48,1.81-1.22s-.71-1-2.74-1.33c-4-.51-5.63-1.67-5.63-4.75,0-3.28,2.91-4.86,6.33-4.86,3.65,0,6.2,1.24,6.54,4.78h-4.58a1.67,1.67,0,0,0-1.9-1.48c-1.1,0-1.67.49-1.67,1.17s.68,1,2.49,1.21c4.1.51,6.08,1.59,6.08,4.75,0,3.51-2.6,5.1-6.7,5.1S261,77.68,260.93,74.4Z" fill="#fff"/><path d="M22,108.44v-6.6H20.2V98.39H22V95.31h5.06v3.08H30v3.45H27.05V108c0,1.08.54,1.56,1.5,1.56a3.85,3.85,0,0,0,1.44-.25v3.84a10.56,10.56,0,0,1-2.8.43C23.85,113.53,22,111.92,22,108.44Z" fill="#fff"/><path d="M31.89,91.89H37v8.88A5.21,5.21,0,0,1,41.81,98c2.86,0,4.84,1.78,4.84,5.57v9.62H41.59v-8.6c0-1.67-.65-2.49-2.12-2.49S37,103,37,104.9v8.29H31.89Z" fill="#fff"/><path d="M48.26,109.09c0-3.48,2.94-4.84,7.87-4.84h1.41v-.34c0-1.42-.34-2.35-1.95-2.35a1.81,1.81,0,0,0-2,1.75H48.83c.22-3.56,3-5.31,7.07-5.31s6.68,1.67,6.68,5.6v9.59H57.65v-1.73a4.83,4.83,0,0,1-4.38,2.07C50.61,113.53,48.26,112.23,48.26,109.09ZM57.54,108v-.9H56.21c-2,0-2.94.39-2.94,1.61,0,.85.56,1.38,1.75,1.38C56.47,110.1,57.54,109.28,57.54,108Z" fill="#fff"/><path d="M65,98.39H70.1v2.38A5.21,5.21,0,0,1,75,98c2.86,0,4.84,1.78,4.84,5.57v9.62H74.74v-8.6c0-1.67-.65-2.49-2.12-2.49s-2.52.9-2.52,2.8v8.29H65Z" fill="#fff"/><path d="M87.86,93h5.83v7.72h6.65V93h5.79v20.23h-5.79v-8H93.69v8H87.86Z" fill="#fff"/><path d="M125.54,109.06l3.36,4.13h-6.59l-1.19-1.47a8,8,0,0,1-5.46,1.81c-4.3,0-7.1-2.27-7.1-6.11,0-2.61,1.59-4.53,4.44-5.89A6.47,6.47,0,0,1,111.76,98c0-3.46,2.94-5.29,6.51-5.29,3.22,0,6.14,1.61,6.14,4.72,0,2.21-1.31,3.82-4,5l2.55,3.11,1.47-2.89h4.41Zm-7-.6-3.2-3.84a2.38,2.38,0,0,0-1.35,2.17,2.34,2.34,0,0,0,2.57,2.52A2.63,2.63,0,0,0,118.52,108.46Zm-.62-8.14c1.36-.65,2-1.42,2-2.47a1.46,1.46,0,0,0-1.5-1.55,1.61,1.61,0,0,0-1.67,1.75A3.7,3.7,0,0,0,117.9,100.32Z" fill="#fff"/><path d="M130.74,93h7.92c5.29,0,8.23,2.15,8.23,6.42v.12a5.28,5.28,0,0,1-3.65,5.31l4.84,8.38H142l-4.1-7.24h-1.36v7.24h-5.77Zm7.64,9.22c2,0,2.91-.82,2.91-2.46v-.11c0-1.64-1-2.29-2.88-2.29h-1.9v4.86Z" fill="#fff"/><path d="M155.18,93h9C169,93,171,95.11,171,98.25v.11a4.16,4.16,0,0,1-3.42,4.36,4.4,4.4,0,0,1,4,4.73v.11c0,3.62-2.35,5.63-7.35,5.63h-9.11Zm7.86,8c1.81,0,2.49-.63,2.49-2.07v-.11c0-1.39-.74-2-2.49-2h-2.21V101Zm.2,8.31c1.84,0,2.69-.85,2.69-2.35v-.11c0-1.53-.82-2.32-2.86-2.32h-2.24v4.78Z" fill="#fff"/><path d="M173.65,91.89h5v21.3h-5Z" fill="#fff"/><path d="M180.6,106v-.22c0-4.75,3.54-7.75,8.12-7.75s8.07,2.91,8.07,7.61v.22c0,4.81-3.54,7.7-8.1,7.7S180.6,110.75,180.6,106Zm11-.08v-.23c0-2.49-1-3.87-2.92-3.87s-2.94,1.33-2.94,3.82v.22c0,2.55,1,3.94,2.94,3.94S191.64,108.35,191.64,105.89Z" fill="#fff"/><path d="M197.77,106v-.22c0-4.92,3.54-7.75,7.9-7.75,3.62,0,7,1.58,7.24,6.08h-4.75a2.19,2.19,0,0,0-2.38-2.15c-1.78,0-2.83,1.27-2.83,3.76v.23c0,2.57,1,3.9,2.91,3.9a2.47,2.47,0,0,0,2.58-2.46H213c-.14,3.73-2.66,6.17-7.44,6.17C201.14,113.53,197.77,111,197.77,106Z" fill="#fff"/><path d="M214.63,91.89h5.06v12.36l4-5.86h5.26L224.11,105l5.23,8.15h-5.66l-4-6.48v6.48h-5.06Z" fill="#fff"/><path d="M233.81,106c0-2.15,1.47-3.51,2.77-4.75,1-.93,1.84-1.78,1.84-2.77a1.51,1.51,0,0,0-1.73-1.7c-1.21,0-2,.93-2.23,2.49h-4.92c.14-4.27,3.19-6.59,7.55-6.59s6.82,1.95,6.82,5.32a5.75,5.75,0,0,1-2.07,4.24c-1.38,1.39-3,2.49-3.25,3.88v.42h-4.78Zm-.65,4.7a3,3,0,1,1,3.05,2.8A2.94,2.94,0,0,1,233.16,110.7Z" fill="#fff"/><path d="M25.64,131.52H20.4v-4.47H36.7v4.47H31.46v15.76H25.64Z" fill="#fff"/><path d="M38.36,126h5.07v8.88a5.21,5.21,0,0,1,4.86-2.77c2.86,0,4.84,1.78,4.84,5.57v9.62H48.07v-8.6c0-1.67-.65-2.49-2.13-2.49s-2.51.9-2.51,2.8v8.29H38.36Z" fill="#fff"/><path d="M55.47,128.47a2.8,2.8,0,1,1,2.78,2.6A2.65,2.65,0,0,1,55.47,128.47Zm.26,4h5.06v14.8H55.73Z" fill="#fff"/><path d="M63.51,132.48h5.06v2.38a5.22,5.22,0,0,1,4.87-2.77c2.85,0,4.83,1.78,4.83,5.57v9.62H73.21v-8.6c0-1.67-.65-2.49-2.12-2.49s-2.52.9-2.52,2.8v8.29H63.51Z" fill="#fff"/><path d="M80.73,126H85.8v12.36l4-5.86h5.27l-4.84,6.65,5.23,8.15H89.78l-4-6.48v6.48H80.73Z" fill="#fff"/><path d="M100.93,143.18c0-3.48,2.94-4.84,7.86-4.84h1.42V138c0-1.41-.34-2.35-2-2.35a1.81,1.81,0,0,0-2,1.76h-4.76c.23-3.57,3-5.32,7.07-5.32s6.68,1.67,6.68,5.6v9.59h-4.92v-1.73a4.86,4.86,0,0,1-4.39,2.07C103.27,147.62,100.93,146.32,100.93,143.18Zm9.28-1.08v-.9h-1.33c-2,0-2.95.39-2.95,1.61,0,.85.57,1.39,1.76,1.39A2.23,2.23,0,0,0,110.21,142.1Z" fill="#fff"/><path d="M116.88,147.28h5c.23,1.07.88,1.92,2.72,1.92a2.8,2.8,0,0,0,3.14-3.11v-2.26a5.19,5.19,0,0,1-4.58,2.71c-3.45,0-6.28-2.54-6.28-7.1v-.22c0-4.36,2.8-7.13,6.28-7.13a4.81,4.81,0,0,1,4.58,2.49v-2.1h5.06V146c0,4.42-2.91,6.74-8.2,6.74C119.59,152.77,117.27,150.65,116.88,147.28Zm11-7.86v-.2c0-2-1-3.34-2.91-3.34s-2.92,1.33-2.92,3.37v.22c0,2,1.08,3.34,2.89,3.34S127.91,141.51,127.91,139.42Z" fill="#fff"/><path d="M134.56,143.18c0-3.48,2.94-4.84,7.86-4.84h1.41V138c0-1.41-.33-2.35-2-2.35a1.83,1.83,0,0,0-2,1.76h-4.75c.23-3.57,3-5.32,7.07-5.32s6.68,1.67,6.68,5.6v9.59H144v-1.73a4.86,4.86,0,0,1-4.39,2.07C136.9,147.62,134.56,146.32,134.56,143.18Zm9.27-1.08v-.9h-1.32c-2,0-2.95.39-2.95,1.61,0,.85.57,1.39,1.76,1.39A2.23,2.23,0,0,0,143.83,142.1Z" fill="#fff"/><path d="M151.21,128.47a2.8,2.8,0,1,1,2.78,2.6A2.65,2.65,0,0,1,151.21,128.47Zm.26,4h5.06v14.8h-5.06Z" fill="#fff"/><path d="M159.25,132.48h5.06v2.38a5.22,5.22,0,0,1,4.87-2.77c2.86,0,4.84,1.78,4.84,5.57v9.62H169v-8.6c0-1.67-.65-2.49-2.12-2.49s-2.52.9-2.52,2.8v8.29h-5.06Z" fill="#fff"/><path d="M176.28,144.73a2.81,2.81,0,0,1,2.88-2.85,2.86,2.86,0,1,1,0,5.71A2.81,2.81,0,0,1,176.28,144.73Z" fill="#fff"/></g></g></g></svg>