<svg xmlns="http://www.w3.org/2000/svg" viewBox="0 0 300 600"><title>Asset 12</title><g id="Layer_2" data-name="Layer 2"><g id="Rect"><rect width="300" height="600" fill="none"/></g><g id="Real-time_answers_for_your_real-time_questions." data-name="Real-time answers for your real-time questions."><path d="M22.62,112h14.7c9.82,0,15.28,4,15.28,11.92v.21A9.8,9.8,0,0,1,45.83,134l9,15.54H43.47l-7.62-13.44H33.33v13.44H22.62ZM36.8,129.11c3.62,0,5.41-1.53,5.41-4.57v-.21c0-3-1.89-4.25-5.36-4.25H33.33v9Z" fill="#fff"/><path d="M54.81,136.14v-.42c0-8.82,6.56-14.38,14.85-14.38,7.51,0,14,4.3,14,14.17V138H64.31c.26,3.62,2.36,5.72,5.72,5.72,3.1,0,4.41-1.41,4.78-3.25h8.82c-.84,6.19-5.62,9.71-13.91,9.71C61.11,150.16,54.81,145.12,54.81,136.14Zm19.68-3.46c-.15-3.31-1.78-5.15-4.83-5.15-2.83,0-4.77,1.84-5.25,5.15Z" fill="#fff"/><path d="M85.57,141.92c0-6.46,5.46-9,14.6-9h2.62v-.63c0-2.62-.63-4.36-3.62-4.36a3.38,3.38,0,0,0-3.73,3.26H86.62c.42-6.62,5.62-9.87,13.13-9.87s12.39,3.09,12.39,10.39v17.8H103v-3.2c-1.31,2-3.73,3.83-8.14,3.83C89.93,150.16,85.57,147.75,85.57,141.92Zm17.22-2v-1.68h-2.47c-3.78,0-5.46.74-5.46,3,0,1.57,1,2.57,3.26,2.57C100.8,143.81,102.79,142.29,102.79,139.92Z" fill="#fff"/><path d="M117,110h9.35v39.53H117Z" fill="#fff"/><path d="M131.24,131h14.7v7.09h-14.7Z" fill="#fff"/><path d="M151.88,140.71V128.48h-3.31v-6.41h3.31v-5.72h9.39v5.72h5.41v6.41h-5.41v11.34c0,2,1,2.89,2.79,2.89a7,7,0,0,0,2.67-.48v7.14a19.41,19.41,0,0,1-5.19.79C155.34,150.16,151.88,147.17,151.88,140.71Z" fill="#fff"/><path d="M170,114.62a5.18,5.18,0,1,1,5.14,4.83A4.91,4.91,0,0,1,170,114.62Zm.47,7.45h9.4v27.46h-9.4Z" fill="#fff"/><path d="M185,122.07h9.4v4.2a9.61,9.61,0,0,1,8.61-4.93c3.62,0,6.14,1.57,7.46,4.56a10.87,10.87,0,0,1,9.08-4.56c5.2,0,9,3.36,9,10.24v17.95h-9.4V133.15c0-2.78-1.37-4.15-3.52-4.15-2.52,0-4.2,1.63-4.2,4.62v15.91h-9.29V133.15c0-2.78-1.37-4.15-3.52-4.15-2.52,0-4.2,1.63-4.2,4.62v15.91H185Z" fill="#fff"/><path d="M231.57,136.14v-.42c0-8.82,6.56-14.38,14.86-14.38,7.51,0,14,4.3,14,14.17V138H241.07c.26,3.62,2.37,5.72,5.73,5.72,3.09,0,4.41-1.41,4.77-3.25h8.82c-.84,6.19-5.61,9.71-13.91,9.71C237.87,150.16,231.57,145.12,231.57,136.14Zm19.69-3.46c-.16-3.31-1.79-5.15-4.83-5.15-2.84,0-4.78,1.84-5.25,5.15Z" fill="#fff"/><path d="M20.21,194.42c0-6.46,5.46-9,14.59-9h2.63v-.63c0-2.62-.63-4.36-3.62-4.36a3.38,3.38,0,0,0-3.73,3.26H21.26c.42-6.62,5.62-9.87,13.12-9.87s12.4,3.09,12.4,10.39V202H37.64v-3.2c-1.31,2-3.73,3.83-8.14,3.83C24.57,202.66,20.21,200.25,20.21,194.42Zm17.22-2v-1.68H35c-3.78,0-5.46.74-5.46,3,0,1.57,1.05,2.57,3.26,2.57C35.43,196.31,37.43,194.79,37.43,192.42Z" fill="#fff"/><path d="M51.34,174.57h9.4V179a9.69,9.69,0,0,1,9-5.14c5.3,0,9,3.3,9,10.34V202h-9.4v-16c0-3.1-1.21-4.62-3.94-4.62s-4.67,1.68-4.67,5.2V202h-9.4Z" fill="#fff"/><path d="M81.47,193.32h8.67c.31,2,1.21,3.09,3.88,3.09,2.31,0,3.36-.89,3.36-2.25s-1.31-1.95-5.09-2.47c-7.35-.95-10.45-3.1-10.45-8.82,0-6.09,5.41-9,11.76-9,6.78,0,11.5,2.31,12.13,8.87h-8.5c-.37-1.84-1.37-2.73-3.52-2.73s-3.1.89-3.1,2.15,1.26,1.84,4.62,2.26c7.61,1,11.29,2.94,11.29,8.82,0,6.51-4.83,9.45-12.44,9.45C86.25,202.66,81.68,199.41,81.47,193.32Z" fill="#fff"/><path d="M106.62,174.57h9.82l4,16.44,4.62-16.44h7.56l4.1,16.44,4.46-16.44h8.93L141.38,202h-9l-4.09-15.33L124.05,202h-9.13Z" fill="#fff"/><path d="M149.83,188.64v-.42c0-8.82,6.56-14.38,14.86-14.38,7.51,0,14,4.3,14,14.17v2.47H159.33c.26,3.62,2.37,5.72,5.73,5.72,3.09,0,4.41-1.41,4.77-3.25h8.82c-.84,6.19-5.61,9.71-13.91,9.71C156.13,202.66,149.83,197.62,149.83,188.64Zm19.69-3.46c-.16-3.31-1.79-5.15-4.83-5.15-2.84,0-4.78,1.84-5.25,5.15Z" fill="#fff"/><path d="M181.91,174.57h9.39V180c1.74-4.09,4.62-5.88,8.88-5.83V183c-5.72-.16-8.88,1.63-8.88,6v13h-9.39Z" fill="#fff"/><path d="M201.86,193.32h8.66c.31,2,1.21,3.09,3.88,3.09,2.31,0,3.36-.89,3.36-2.25s-1.31-1.95-5.09-2.47c-7.35-.95-10.45-3.1-10.45-8.82,0-6.09,5.41-9,11.76-9,6.78,0,11.5,2.31,12.13,8.87h-8.5c-.37-1.84-1.37-2.73-3.52-2.73s-3.1.89-3.1,2.15,1.26,1.84,4.62,2.26c7.62,1,11.29,2.94,11.29,8.82,0,6.51-4.83,9.45-12.44,9.45C206.63,202.66,202.07,199.41,201.86,193.32Z" fill="#fff"/><path d="M23.2,233.48H19.73v-6.41H23.2v-2.41c0-6.83,4.25-10.08,10.76-10.08a17,17,0,0,1,4.31.57V222a8.59,8.59,0,0,0-2.57-.37c-2.21,0-3.15,1.21-3.15,3v2.41h5.56v6.41H32.55v21.05H23.2Z" fill="#fff"/><path d="M38.84,241.14v-.42c0-8.82,6.57-14.38,15.07-14.38s15,5.4,15,14.12v.42c0,8.93-6.57,14.28-15,14.28S38.84,250,38.84,241.14ZM59.32,241v-.42c0-4.62-1.84-7.2-5.41-7.2s-5.46,2.47-5.46,7.09v.42c0,4.73,1.84,7.3,5.46,7.3S59.32,245.55,59.32,241Z" fill="#fff"/><path d="M72.18,227.07h9.4v5.46c1.73-4.09,4.62-5.88,8.87-5.83v8.77c-5.72-.16-8.87,1.63-8.87,6v13h-9.4Z" fill="#fff"/><path d="M112,251.75l-11-24.68h10.18l5.67,14.65,5.25-14.65h9l-14.7,36.65h-9Z" fill="#fff"/><path d="M130.61,241.14v-.42c0-8.82,6.57-14.38,15.07-14.38s15,5.4,15,14.12v.42c0,8.93-6.57,14.28-15,14.28S130.61,250,130.61,241.14Zm20.48-.15v-.42c0-4.62-1.84-7.2-5.41-7.2s-5.46,2.47-5.46,7.09v.42c0,4.73,1.84,7.3,5.46,7.3S151.09,245.55,151.09,241Z" fill="#fff"/><path d="M163.74,245V227.07h9.4v16.38c0,3.1,1.21,4.62,3.88,4.62,2.84,0,4.68-1.68,4.68-5.19V227.07h9.4v27.46h-9.4v-4.25c-1.47,2.83-4.15,4.88-8.72,4.88C167.68,255.16,163.74,251.91,163.74,245Z" fill="#fff"/><path d="M195.87,227.07h9.4v5.46c1.73-4.09,4.62-5.88,8.87-5.83v8.77c-5.72-.16-8.87,1.63-8.87,6v13h-9.4Z" fill="#fff"/><path d="M21.78,279.57h9.4V285c1.73-4.09,4.62-5.88,8.87-5.83V288c-5.72-.16-8.87,1.63-8.87,6v13h-9.4Z" fill="#fff"/><path d="M41.73,293.64v-.42c0-8.82,6.57-14.38,14.86-14.38,7.51,0,14,4.3,14,14.17v2.47H51.24c.26,3.62,2.36,5.72,5.72,5.72,3.1,0,4.41-1.41,4.78-3.25h8.82c-.84,6.19-5.62,9.71-13.92,9.71C48,307.66,41.73,302.62,41.73,293.64Zm19.69-3.46c-.15-3.31-1.78-5.15-4.83-5.15-2.83,0-4.78,1.84-5.25,5.15Z" fill="#fff"/><path d="M72.5,299.42c0-6.46,5.46-9,14.59-9h2.63v-.63c0-2.62-.63-4.36-3.62-4.36a3.38,3.38,0,0,0-3.73,3.26H73.55c.42-6.62,5.62-9.87,13.12-9.87s12.39,3.09,12.39,10.39V307H89.93v-3.2c-1.31,2-3.73,3.83-8.14,3.83C76.85,307.66,72.5,305.25,72.5,299.42Zm17.22-2v-1.68H87.25c-3.78,0-5.46.74-5.46,3,0,1.57,1,2.57,3.26,2.57C87.72,301.31,89.72,299.79,89.72,297.42Z" fill="#fff"/><path d="M103.89,267.5h9.35V307h-9.35Z" fill="#fff"/><path d="M118.17,288.5h14.7v7.09h-14.7Z" fill="#fff"/><path d="M138.8,298.21V286h-3.3v-6.41h3.3v-5.72h9.4v5.72h5.41V286H148.2v11.34c0,2,1,2.89,2.78,2.89a7.07,7.07,0,0,0,2.68-.48v7.14a19.5,19.5,0,0,1-5.2.79C142.27,307.66,138.8,304.67,138.8,298.21Z" fill="#fff"/><path d="M157,272.12a4.9,4.9,0,0,1,5.14-4.89,4.87,4.87,0,1,1,0,9.72A4.86,4.86,0,0,1,157,272.12Zm.47,7.45h9.4V307h-9.4Z" fill="#fff"/><path d="M171.88,279.57h9.4v4.2a9.6,9.6,0,0,1,8.61-4.93c3.62,0,6.14,1.57,7.45,4.56a10.9,10.9,0,0,1,9.09-4.56c5.19,0,9,3.36,9,10.24V307H206V290.65c0-2.78-1.37-4.15-3.52-4.15-2.52,0-4.2,1.63-4.2,4.62V307H189V290.65c0-2.78-1.36-4.15-3.51-4.15-2.52,0-4.2,1.63-4.2,4.62V307h-9.4Z" fill="#fff"/><path d="M218.5,293.64v-.42c0-8.82,6.56-14.38,14.86-14.38,7.5,0,14,4.3,14,14.17v2.47H228c.26,3.62,2.36,5.72,5.72,5.72,3.1,0,4.41-1.41,4.78-3.25h8.82c-.84,6.19-5.62,9.71-13.91,9.71C224.8,307.66,218.5,302.62,218.5,293.64Zm19.69-3.46c-.16-3.31-1.79-5.15-4.83-5.15-2.84,0-4.78,1.84-5.25,5.15Z" fill="#fff"/><path d="M40.53,355.28A9.49,9.49,0,0,1,32,360.16c-6.35,0-11.55-4.57-11.55-14.07v-.42c0-9.35,5.14-14.33,11.65-14.33,4.31,0,6.88,1.83,8.46,4.62v-3.89h9.4v36.65h-9.4Zm.26-9.35v-.42c0-4.62-1.94-7.09-5.41-7.09S30,340.79,30,345.57V346c0,4.62,2.05,7,5.31,7S40.79,350.61,40.79,345.93Z" fill="#fff"/><path d="M54.49,350V332.07h9.4v16.38c0,3.1,1.21,4.62,3.88,4.62,2.84,0,4.68-1.68,4.68-5.19V332.07h9.4v27.46h-9.4v-4.25c-1.47,2.83-4.15,4.88-8.72,4.88C58.43,360.16,54.49,356.91,54.49,350Z" fill="#fff"/><path d="M85.15,346.14v-.42c0-8.82,6.56-14.38,14.86-14.38,7.51,0,14,4.3,14,14.17V348H94.65c.27,3.62,2.37,5.72,5.73,5.72,3.09,0,4.41-1.41,4.77-3.25H114c-.84,6.19-5.61,9.71-13.91,9.71C91.45,360.16,85.15,355.12,85.15,346.14Zm19.69-3.46c-.16-3.31-1.79-5.15-4.83-5.15-2.84,0-4.78,1.84-5.25,5.15Z" fill="#fff"/><path d="M115.65,350.82h8.66c.32,2,1.21,3.09,3.89,3.09,2.31,0,3.36-.89,3.36-2.25s-1.31-2-5.09-2.47c-7.35-.95-10.45-3.1-10.45-8.82,0-6.09,5.41-9,11.76-9,6.77,0,11.5,2.31,12.13,8.87H131.4c-.37-1.84-1.36-2.73-3.52-2.73s-3.09.89-3.09,2.15,1.26,1.84,4.62,2.26c7.61.94,11.29,2.94,11.29,8.82,0,6.51-4.83,9.45-12.45,9.45C120.43,360.16,115.86,356.91,115.65,350.82Z" fill="#fff"/><path d="M145,350.71V338.48h-3.31v-6.41H145v-5.72h9.4v5.72h5.4v6.41h-5.4v11.34c0,2,1,2.89,2.78,2.89a7.07,7.07,0,0,0,2.68-.48v7.14a19.5,19.5,0,0,1-5.2.79C148.46,360.16,145,357.17,145,350.71Z" fill="#fff"/><path d="M163.16,324.62a5.19,5.19,0,1,1,5.15,4.83A4.91,4.91,0,0,1,163.16,324.62Zm.48,7.45H173v27.46h-9.39Z" fill="#fff"/><path d="M176.6,346.14v-.42c0-8.82,6.57-14.38,15.07-14.38s15,5.4,15,14.12v.42c0,8.93-6.57,14.28-15,14.28S176.6,355,176.6,346.14Zm20.48-.15v-.42c0-4.62-1.84-7.2-5.41-7.2s-5.46,2.47-5.46,7.09v.42c0,4.73,1.84,7.3,5.46,7.3S197.08,350.55,197.08,346Z" fill="#fff"/><path d="M209.94,332.07h9.4v4.41a9.69,9.69,0,0,1,9-5.14c5.3,0,9,3.3,9,10.34v17.85H228v-16c0-3.1-1.21-4.62-3.94-4.62s-4.67,1.68-4.67,5.2v15.38h-9.4Z" fill="#fff"/><path d="M240.07,350.82h8.67c.31,2,1.21,3.09,3.88,3.09,2.31,0,3.36-.89,3.36-2.25s-1.31-2-5.09-2.47c-7.35-.95-10.45-3.1-10.45-8.82,0-6.09,5.41-9,11.76-9,6.78,0,11.5,2.31,12.13,8.87h-8.5c-.37-1.84-1.37-2.73-3.52-2.73s-3.1.89-3.1,2.15,1.26,1.84,4.62,2.26c7.61.94,11.29,2.94,11.29,8.82,0,6.51-4.83,9.45-12.44,9.45C244.85,360.16,240.28,356.91,240.07,350.82Z" fill="#fff"/><path d="M267.79,354.81a5.24,5.24,0,0,1,5.36-5.31,5.31,5.31,0,1,1,0,10.61A5.24,5.24,0,0,1,267.79,354.81Z" fill="#fff"/></g></g></svg>