<svg xmlns="http://www.w3.org/2000/svg" viewBox="0 0 320 1200"><title>H1</title><g id="Layer_2" data-name="Layer 2"><g id="Rectangle_2_copy" data-name="Rectangle 2 copy" style="isolation:isolate"><g id="Rectangle_2_copy-2" data-name="Rectangle 2 copy"><rect width="320" height="1200" fill="none"/></g></g><g id="Image_25" data-name="Image 25"><g id="_Text_Layer_20" data-name="&lt;Text Layer&gt; 20"><path d="M49.93,362.55,40.16,345.4h9.35l5.08,10.1,5.08-10.1h8.22l-9.31,17.15v12.83H49.93Z" fill="#fff"/><path d="M64.74,364.69v-.34c0-7,5.25-11.49,12.05-11.49s12,4.32,12,11.28v.34c0,7.13-5.25,11.4-12,11.4S64.74,371.77,64.74,364.69Zm16.37-.13v-.33c0-3.69-1.47-5.75-4.32-5.75s-4.37,2-4.37,5.66v.34c0,3.77,1.47,5.83,4.37,5.83S81.11,368.21,81.11,364.56Z" fill="#fff"/><path d="M91.22,367.75v-14.3h7.51v13.08c0,2.48,1,3.69,3.1,3.69s3.74-1.34,3.74-4.15V353.45h7.51v21.93h-7.51V372c-1.18,2.27-3.32,3.9-7,3.9C94.37,375.88,91.22,373.28,91.22,367.75Z" fill="#fff"/><path d="M116.9,353.45h7.51v4.36a6.9,6.9,0,0,1,7.09-4.65v7c-4.57-.13-7.09,1.3-7.09,4.82v10.4H116.9Z" fill="#fff"/><path d="M42,409.45h7.52v3.35a7.67,7.67,0,0,1,6.88-3.94,6,6,0,0,1,6,3.65,8.69,8.69,0,0,1,7.26-3.65c4.15,0,7.17,2.69,7.17,8.18v14.34H69.32V418.3c0-2.22-1.09-3.32-2.81-3.32-2,0-3.36,1.3-3.36,3.69v12.71H55.72V418.3c0-2.22-1.09-3.32-2.81-3.32-2,0-3.35,1.3-3.35,3.69v12.71H42Z" fill="#fff"/><path d="M79.22,425.3c0-5.16,4.36-7.17,11.66-7.17H93v-.5c0-2.1-.5-3.48-2.89-3.48a2.69,2.69,0,0,0-3,2.6h-7c.33-5.29,4.49-7.89,10.49-7.89s9.9,2.48,9.9,8.31v14.21h-7.3v-2.56c-1.05,1.6-3,3.06-6.5,3.06C82.7,431.88,79.22,430,79.22,425.3ZM93,423.71v-1.35H91c-3,0-4.36.59-4.36,2.39,0,1.26.84,2.06,2.6,2.06C91.39,426.81,93,425.59,93,423.71Z" fill="#fff"/><path d="M109.64,420.23l-6.84-10.78h8.64l3.4,5.79,3.32-5.79h7.72L119,419.64l7.6,11.74H117.9l-3.9-6.54-4,6.54h-7.68Z" fill="#fff"/><path d="M128.48,403.5a4.14,4.14,0,1,1,4.11,3.85A3.91,3.91,0,0,1,128.48,403.5Zm.37,5.95h7.52v21.93h-7.52Z" fill="#fff"/><path d="M140.39,409.45h7.51v3.35a7.7,7.7,0,0,1,6.89-3.94,6,6,0,0,1,6,3.65,8.7,8.7,0,0,1,7.26-3.65c4.16,0,7.18,2.69,7.18,8.18v14.34h-7.51V418.3c0-2.22-1.09-3.32-2.81-3.32-2,0-3.36,1.3-3.36,3.69v12.71h-7.43V418.3c0-2.22-1.09-3.32-2.81-3.32-2,0-3.36,1.3-3.36,3.69v12.71h-7.51Z" fill="#fff"/><path d="M178.66,423.75v-14.3h7.51v13.08c0,2.48,1,3.69,3.11,3.69s3.73-1.34,3.73-4.15V409.45h7.51v21.93H193V428c-1.18,2.27-3.32,3.9-7,3.9C181.81,431.88,178.66,429.28,178.66,423.75Z" fill="#fff"/><path d="M204.34,409.45h7.51v3.35a7.67,7.67,0,0,1,6.88-3.94,6,6,0,0,1,6,3.65,8.7,8.7,0,0,1,7.26-3.65c4.15,0,7.17,2.69,7.17,8.18v14.34h-7.51V418.3c0-2.22-1.09-3.32-2.81-3.32-2,0-3.36,1.3-3.36,3.69v12.71H218V418.3c0-2.22-1.1-3.32-2.82-3.32-2,0-3.35,1.3-3.35,3.69v12.71h-7.51Z" fill="#fff"/><path d="M42,465.45h7.52v4.36a6.9,6.9,0,0,1,7.09-4.65v7c-4.58-.13-7.09,1.3-7.09,4.82v10.4H42Z" fill="#fff"/><path d="M58,476.69v-.34c0-7,5.24-11.49,11.87-11.49,6,0,11.16,3.44,11.16,11.32v2H65.58c.21,2.89,1.89,4.57,4.58,4.57,2.47,0,3.52-1.14,3.82-2.6h7c-.67,4.94-4.48,7.75-11.11,7.75C63,487.88,58,483.86,58,476.69Zm15.73-2.77c-.12-2.64-1.42-4.11-3.86-4.11-2.26,0-3.82,1.47-4.19,4.11Z" fill="#fff"/><path d="M84.76,470.57H82v-5.12h2.77v-1.93c0-5.45,3.4-8,8.6-8a13.51,13.51,0,0,1,3.44.46v5.49a7.23,7.23,0,0,0-2.06-.29,2.2,2.2,0,0,0-2.51,2.39v1.93h4.44v5.12H92.23v16.81H84.76Z" fill="#fff"/><path d="M99,479.75v-14.3h7.51v13.08c0,2.48,1,3.69,3.11,3.69s3.73-1.34,3.73-4.15V465.45h7.51v21.93h-7.51V484c-1.17,2.27-3.31,3.9-7,3.9C102.17,487.88,99,485.28,99,479.75Z" fill="#fff"/><path d="M124.7,465.45h7.51V469a7.77,7.77,0,0,1,7.22-4.11c4.24,0,7.17,2.64,7.17,8.26v14.26h-7.51V474.63c0-2.47-1-3.69-3.14-3.69s-3.74,1.34-3.74,4.15v12.29H124.7Z" fill="#fff"/><path d="M149.16,476.65v-.34c0-7.46,4.11-11.45,9.32-11.45a7.11,7.11,0,0,1,6.75,3.69V455.81h7.51v31.57h-7.51v-3.56a7.39,7.39,0,0,1-6.84,4.06C153.31,487.88,149.16,484.23,149.16,476.65Zm16.28-.13v-.34c0-3.69-1.55-5.66-4.32-5.66s-4.32,1.89-4.32,5.71v.33c0,3.69,1.63,5.58,4.24,5.58S165.44,480.25,165.44,476.52Z" fill="#fff"/><path d="M175,490.78l3.52-11,7,2.47-6,10.28Z" fill="#fff"/><path d="M40.83,543.38H48.3c.33,1.59,1.3,2.85,4,2.85,3.32,0,4.66-1.89,4.66-4.61v-3.36a7.68,7.68,0,0,1-6.79,4c-5.12,0-9.32-3.77-9.32-10.52v-.34c0-6.46,4.15-10.57,9.32-10.57,3.48,0,5.53,1.47,6.79,3.69v-3.1h7.51v20.09c0,6.54-4.32,10-12.17,10C44.86,551.51,41.42,548.37,40.83,543.38Zm16.36-11.66v-.29c0-3-1.55-4.95-4.32-4.95s-4.32,2-4.32,5v.34c0,3,1.59,4.94,4.28,4.94S57.19,534.83,57.19,531.72Z" fill="#fff"/><path d="M68.14,535.75v-14.3h7.51v13.08c0,2.48,1,3.69,3.11,3.69s3.73-1.34,3.73-4.15V521.45H90v21.93H82.49V540c-1.17,2.27-3.31,3.9-7,3.9C71.29,543.88,68.14,541.28,68.14,535.75Z" fill="#fff"/><path d="M92.56,537.3c0-5.16,4.36-7.17,11.67-7.17h2.09v-.5c0-2.1-.5-3.48-2.89-3.48a2.69,2.69,0,0,0-3,2.6h-7c.34-5.29,4.49-7.89,10.49-7.89s9.9,2.48,9.9,8.31v14.21h-7.3v-2.56c-1,1.6-3,3.06-6.5,3.06C96,543.88,92.56,542,92.56,537.3Zm13.76-1.59v-1.35h-2c-3,0-4.36.59-4.36,2.39,0,1.26.84,2.06,2.6,2.06C104.73,538.81,106.32,537.59,106.32,535.71Z" fill="#fff"/><path d="M117.44,521.45H125v4.36a6.91,6.91,0,0,1,7.09-4.65v7c-4.57-.13-7.09,1.3-7.09,4.82v10.4h-7.51Z" fill="#fff"/><path d="M133,537.3c0-5.16,4.36-7.17,11.66-7.17h2.1v-.5c0-2.1-.5-3.48-2.9-3.48a2.68,2.68,0,0,0-3,2.6h-7.05c.33-5.29,4.49-7.89,10.49-7.89s9.9,2.48,9.9,8.31v14.21h-7.3v-2.56c-1.05,1.6-3,3.06-6.51,3.06C136.49,543.88,133,542,133,537.3Zm13.76-1.59v-1.35h-2c-3,0-4.37.59-4.37,2.39,0,1.26.84,2.06,2.61,2.06C145.18,538.81,146.77,537.59,146.77,535.71Z" fill="#fff"/><path d="M157.89,521.45h7.51V525a7.74,7.74,0,0,1,7.22-4.11c4.23,0,7.17,2.64,7.17,8.26v14.26h-7.51V530.63c0-2.47-1-3.69-3.15-3.69s-3.73,1.34-3.73,4.15v12.29h-7.51Z" fill="#fff"/><path d="M184.45,536.34v-9.77H181.8v-5.12h2.65v-4.57H192v4.57h4.32v5.12H192v9c0,1.6.79,2.31,2.22,2.31a5.75,5.75,0,0,0,2.14-.38v5.7a15.37,15.37,0,0,1-4.15.63C187.22,543.88,184.45,541.49,184.45,536.34Z" fill="#fff"/><path d="M198,532.69v-.34c0-7,5.24-11.49,11.87-11.49,6,0,11.16,3.44,11.16,11.32v2H205.55c.21,2.89,1.89,4.57,4.58,4.57,2.47,0,3.52-1.14,3.81-2.6H221c-.67,4.94-4.49,7.75-11.12,7.75C203,543.88,198,539.86,198,532.69Zm15.73-2.77c-.12-2.64-1.42-4.11-3.86-4.11-2.26,0-3.82,1.47-4.19,4.11Z" fill="#fff"/><path d="M222.42,532.69v-.34c0-7,5.24-11.49,11.87-11.49,6,0,11.17,3.44,11.17,11.32v2H230c.21,2.89,1.89,4.57,4.58,4.57,2.47,0,3.52-1.14,3.82-2.6h7.05c-.68,4.94-4.5,7.75-11.13,7.75C227.45,543.88,222.42,539.86,222.42,532.69Zm15.73-2.77c-.12-2.64-1.42-4.11-3.86-4.11-2.26,0-3.82,1.47-4.19,4.11Z" fill="#fff"/><path d="M247,532.65v-.34c0-7.46,4.12-11.45,9.32-11.45a7.13,7.13,0,0,1,6.76,3.69V511.81h7.51v31.57H263v-3.56a7.41,7.41,0,0,1-6.84,4.06C251.12,543.88,247,540.23,247,532.65Zm16.29-.13v-.34c0-3.69-1.56-5.66-4.33-5.66s-4.32,1.89-4.32,5.71v.33c0,3.69,1.64,5.58,4.24,5.58S263.25,536.25,263.25,532.52Z" fill="#fff"/><path d="M274.07,539.61a4.18,4.18,0,0,1,4.28-4.24,4.24,4.24,0,1,1,0,8.47A4.18,4.18,0,0,1,274.07,539.61Z" fill="#fff"/></g></g></g></svg>