<svg xmlns="http://www.w3.org/2000/svg" viewBox="0 0 728 90"><title>H66</title><g id="Layer_2" data-name="Layer 2"><g id="Rect"><rect width="728" height="90" fill="none"/></g><g id="H66"><g id="Get_more_with_Block_tax_software." data-name="Get more with Block  tax software."><path d="M120.93,31V30.8c0-6.56,4.81-11,11.28-11,5.08,0,9.59,2.32,10,7.91h-6.11c-.3-2-1.59-3.06-3.88-3.06-3,0-4.87,2.34-4.87,6.22v.24c0,3.49,1.29,6.2,5,6.2,3,0,4.15-1.54,4.27-3.25h-4v-4.3h10.11v2.64c0,5.48-3.58,9.6-10.53,9.6C124.9,42,120.93,37.48,120.93,31Z" fill="#13aa40"/><path d="M144,34v-.24c0-5.06,3.75-8.24,8.51-8.24,4.3,0,8,2.46,8,8.12V35H149.41c.15,2.08,1.35,3.28,3.28,3.28,1.77,0,2.52-.81,2.73-1.87h5.06C160,40,157.26,42,152.51,42,147.57,42,144,39.13,144,34Zm11.27-2c-.09-1.89-1-2.94-2.76-2.94s-2.74,1.05-3,2.94Z" fill="#13aa40"/><path d="M163.06,36.6v-7h-1.89V25.93h1.89V22.65h5.38v3.28h3.1V29.6h-3.1v6.49c0,1.15.57,1.66,1.6,1.66a4.09,4.09,0,0,0,1.53-.27v4.09a11.28,11.28,0,0,1-3,.45C165,42,163.06,40.3,163.06,36.6Z" fill="#13aa40"/><path d="M179.06,25.93h5.38v2.4a5.5,5.5,0,0,1,4.93-2.82,4.28,4.28,0,0,1,4.27,2.61,6.25,6.25,0,0,1,5.21-2.61c3,0,5.14,1.92,5.14,5.86V41.66H198.6V32.27c0-1.59-.78-2.37-2-2.37a2.33,2.33,0,0,0-2.41,2.64v9.12h-5.32V32.27c0-1.59-.78-2.37-2-2.37a2.33,2.33,0,0,0-2.41,2.64v9.12h-5.38Z" fill="#13aa40"/><path d="M205.76,34v-.24c0-5.06,3.76-8.24,8.63-8.24S223,28.6,223,33.6v.24C223,39,219.2,42,214.36,42S205.76,39.07,205.76,34Zm11.73-.09v-.24c0-2.65-1.06-4.12-3.1-4.12s-3.13,1.41-3.13,4.06v.24c0,2.7,1.05,4.18,3.13,4.18S217.49,36.51,217.49,33.9Z" fill="#13aa40"/><path d="M224.85,25.93h5.39v3.13a5,5,0,0,1,5.08-3.34v5c-3.28-.09-5.08.93-5.08,3.46v7.46h-5.39Z" fill="#13aa40"/><path d="M236.28,34v-.24c0-5.06,3.76-8.24,8.51-8.24,4.3,0,8,2.46,8,8.12V35H241.72c.15,2.08,1.36,3.28,3.28,3.28s2.53-.81,2.74-1.87h5c-.48,3.55-3.22,5.57-8,5.57C239.89,42,236.28,39.13,236.28,34Zm11.28-2c-.09-1.89-1-2.94-2.77-2.94s-2.74,1.05-3,2.94Z" fill="#13aa40"/><path d="M258.8,25.93h5.62l2.29,9.41,2.65-9.41h4.33L276,35.34l2.56-9.41h5.11l-5,15.73h-5.14l-2.35-8.78-2.44,8.78h-5.23Z" fill="#13aa40"/><path d="M285,21.66a2.81,2.81,0,0,1,3-2.8,2.79,2.79,0,1,1,0,5.56A2.78,2.78,0,0,1,285,21.66Zm.27,4.27h5.39V41.66h-5.39Z" fill="#13aa40"/><path d="M294.22,36.6v-7h-1.89V25.93h1.89V22.65h5.39v3.28h3.09V29.6h-3.09v6.49c0,1.15.57,1.66,1.59,1.66a4.09,4.09,0,0,0,1.53-.27v4.09a11.27,11.27,0,0,1-3,.45C296.21,42,294.22,40.3,294.22,36.6Z" fill="#13aa40"/><path d="M304.75,19h5.38v9.44a5.55,5.55,0,0,1,5.17-2.94c3,0,5.15,1.89,5.15,5.92V41.66h-5.39V32.51c0-1.77-.69-2.64-2.25-2.64s-2.68,1-2.68,3v8.81h-5.38Z" fill="#13aa40"/><path d="M329,20.15h9.6c5.08,0,7.24,2.29,7.24,5.63v.12a4.43,4.43,0,0,1-3.63,4.63,4.67,4.67,0,0,1,4.3,5v.12c0,3.85-2.5,6-7.82,6H329Zm8.36,8.54c1.93,0,2.65-.66,2.65-2.19v-.12c0-1.47-.78-2.14-2.65-2.14H335v4.45Zm.21,8.85c2,0,2.86-.91,2.86-2.5v-.12c0-1.62-.87-2.47-3-2.47H335v5.09Z" fill="#13aa40"/><path d="M348.65,19H354V41.66h-5.35Z" fill="#13aa40"/><path d="M356,34v-.24c0-5.06,3.76-8.24,8.64-8.24s8.57,3.09,8.57,8.09v.24c0,5.11-3.76,8.18-8.6,8.18S356,39.07,356,34Zm11.73-.09v-.24c0-2.65-1-4.12-3.09-4.12s-3.13,1.41-3.13,4.06v.24c0,2.7,1.05,4.18,3.13,4.18S367.77,36.51,367.77,33.9Z" fill="#13aa40"/><path d="M374.3,34v-.24c0-5.24,3.76-8.24,8.39-8.24,3.85,0,7.39,1.68,7.7,6.46h-5.06a2.32,2.32,0,0,0-2.52-2.28c-1.9,0-3,1.35-3,4v.24c0,2.73,1.05,4.15,3.1,4.15a2.62,2.62,0,0,0,2.73-2.62h4.85c-.15,4-2.83,6.56-7.91,6.56C377.88,42,374.3,39.28,374.3,34Z" fill="#13aa40"/><path d="M392.22,19h5.38V32.15l4.24-6.22h5.59L402.29,33l5.57,8.66h-6l-4.24-6.89v6.89h-5.38Z" fill="#13aa40"/><path d="M122.32,67.62v-7h-1.9V56.94h1.9V53.66h5.38v3.28h3.1v3.67h-3.1v6.5a1.43,1.43,0,0,0,1.59,1.65,4.15,4.15,0,0,0,1.54-.27v4.09a11.35,11.35,0,0,1-3,.45C124.3,73,122.32,71.32,122.32,67.62Z" fill="#13aa40"/><path d="M132,68.31c0-3.7,3.12-5.14,8.36-5.14h1.5v-.36c0-1.51-.36-2.5-2.07-2.5a1.93,1.93,0,0,0-2.14,1.86H132.6c.24-3.79,3.22-5.65,7.52-5.65s7.1,1.77,7.1,5.95v10.2H142V70.83a5.14,5.14,0,0,1-4.66,2.2C134.49,73,132,71.65,132,68.31Zm9.86-1.14v-1h-1.41c-2.17,0-3.13.42-3.13,1.72,0,.9.6,1.47,1.87,1.47C140.72,69.39,141.86,68.52,141.86,67.17Z" fill="#13aa40"/><path d="M153.8,64.67l-4.9-7.73h6.19l2.44,4.15,2.37-4.15h5.54l-5,7.31,5.44,8.42h-6.2L156.93,68l-2.86,4.69h-5.5Z" fill="#13aa40"/><path d="M171.84,67.68h5c.18,1.14.69,1.77,2.23,1.77,1.32,0,1.92-.51,1.92-1.29s-.75-1.11-2.92-1.41c-4.21-.55-6-1.78-6-5.06,0-3.49,3.1-5.17,6.74-5.17,3.88,0,6.58,1.32,6.94,5.08h-4.87a1.75,1.75,0,0,0-2-1.56c-1.18,0-1.78.51-1.78,1.23s.72,1,2.65,1.29c4.36.55,6.46,1.69,6.46,5.06,0,3.73-2.76,5.41-7.12,5.41S172,71.17,171.84,67.68Z" fill="#13aa40"/><path d="M187.17,65v-.24c0-5.05,3.76-8.24,8.64-8.24s8.57,3.1,8.57,8.09v.24c0,5.11-3.76,8.18-8.6,8.18S187.17,70.08,187.17,65Zm11.73-.09v-.24c0-2.65-1.05-4.12-3.09-4.12s-3.13,1.41-3.13,4.06v.24c0,2.71,1,4.18,3.13,4.18S198.9,67.53,198.9,64.91Z" fill="#13aa40"/><path d="M207.08,60.61h-2V56.94h2V55.56c0-3.91,2.44-5.78,6.17-5.78a9.57,9.57,0,0,1,2.46.33v3.94a4.93,4.93,0,0,0-1.47-.21,1.59,1.59,0,0,0-1.81,1.72v1.38h3.19v3.67h-3.19V72.67h-5.35Z" fill="#13aa40"/><path d="M218.3,67.62v-7h-1.9V56.94h1.9V53.66h5.38v3.28h3.1v3.67h-3.1v6.5a1.43,1.43,0,0,0,1.59,1.65,4.15,4.15,0,0,0,1.54-.27v4.09a11.43,11.43,0,0,1-3,.45C220.28,73,218.3,71.32,218.3,67.62Z" fill="#13aa40"/><path d="M227.5,56.94h5.62l2.29,9.41,2.64-9.41h4.33l2.35,9.41,2.56-9.41h5.11l-5,15.73h-5.15l-2.34-8.78-2.44,8.78h-5.23Z" fill="#13aa40"/><path d="M252.27,68.31c0-3.7,3.13-5.14,8.36-5.14h1.51v-.36c0-1.51-.36-2.5-2.08-2.5a1.93,1.93,0,0,0-2.13,1.86h-5.05c.24-3.79,3.21-5.65,7.51-5.65s7.1,1.77,7.1,5.95v10.2h-5.23V70.83A5.15,5.15,0,0,1,257.6,73C254.77,73,252.27,71.65,252.27,68.31Zm9.87-1.14v-1h-1.42c-2.16,0-3.12.42-3.12,1.72,0,.9.6,1.47,1.86,1.47C261,69.39,262.14,68.52,262.14,67.17Z" fill="#13aa40"/><path d="M270.1,56.94h5.39v3.13a5,5,0,0,1,5.08-3.34v5c-3.28-.09-5.08.93-5.08,3.46v7.46H270.1Z" fill="#13aa40"/><path d="M281.53,65v-.24c0-5.05,3.76-8.24,8.51-8.24,4.3,0,8,2.47,8,8.12v1.41H287c.15,2.08,1.36,3.28,3.28,3.28s2.53-.81,2.74-1.86H298c-.48,3.55-3.22,5.56-8,5.56C285.14,73,281.53,70.14,281.53,65Zm11.28-2c-.09-1.9-1-3-2.77-3s-2.73,1-3,3Z" fill="#13aa40"/><path d="M299.54,70a3,3,0,0,1,3.07-3,3,3,0,1,1,0,6.07A3,3,0,0,1,299.54,70Z" fill="#13aa40"/></g></g></g></svg>