<svg xmlns="http://www.w3.org/2000/svg" viewBox="0 0 728 90"><title>H58</title><g id="Layer_2" data-name="Layer 2"><g id="Rect"><rect width="728" height="90" fill="none"/></g><g id="H58"><g id="Relax._Upfront_pricing_means_filing_is_a_breeze." data-name="Relax. Upfront pricing means filing is a breeze."><path d="M122.28,15.25h9.24c6.17,0,9.6,2.51,9.6,7.49v.13a6.17,6.17,0,0,1-4.25,6.21l5.64,9.77h-7.13l-4.79-8.45H129v8.45h-6.73ZM131.19,26c2.28,0,3.4-1,3.4-2.87V23c0-1.92-1.19-2.68-3.37-2.68H129V26Z" fill="#fff"/><path d="M142.51,30.43v-.26c0-5.55,4.12-9,9.34-9,4.72,0,8.78,2.7,8.78,8.91v1.55H148.48c.17,2.27,1.49,3.6,3.6,3.6,1.94,0,2.77-.9,3-2h5.55c-.53,3.89-3.54,6.1-8.75,6.1C146.47,39.24,142.51,36.08,142.51,30.43Zm12.37-2.18c-.1-2.08-1.12-3.23-3-3.23s-3,1.15-3.3,3.23Z" fill="#fff"/><path d="M162.83,14h5.88V38.85h-5.88Z" fill="#fff"/><path d="M170.89,34.06c0-4.06,3.43-5.64,9.17-5.64h1.65V28c0-1.65-.4-2.74-2.28-2.74a2.12,2.12,0,0,0-2.34,2h-5.54c.26-4.16,3.53-6.2,8.25-6.2s7.79,1.94,7.79,6.53V38.85h-5.75v-2c-.82,1.25-2.34,2.4-5.11,2.4C173.63,39.24,170.89,37.73,170.89,34.06Zm10.82-1.25V31.75h-1.55c-2.38,0-3.43.46-3.43,1.88,0,1,.66,1.62,2,1.62C180.46,35.25,181.71,34.29,181.71,32.81Z" fill="#fff"/><path d="M194.81,30.07l-5.38-8.48h6.8l2.67,4.55,2.61-4.55h6.07l-5.44,8,6,9.24h-6.8l-3.07-5.15-3.13,5.15h-6Z" fill="#fff"/><path d="M209.3,35.88a3.29,3.29,0,0,1,3.36-3.34,3.34,3.34,0,1,1,0,6.67A3.29,3.29,0,0,1,209.3,35.88Z" fill="#fff"/><path d="M225.27,29.28v-14H232V29c0,3.33.83,4.95,3.7,4.95s3.7-1.52,3.7-5.05V15.25h6.83V29.18c0,6.86-4,10.06-10.53,10.06C229.06,39.24,225.27,35.88,225.27,29.28Z" fill="#fff"/><path d="M249.46,21.59h5.91v2.57a6.08,6.08,0,0,1,5.38-3c4,0,7.29,3,7.29,8.94v.26c0,5.94-3.27,8.91-7.33,8.91a5.68,5.68,0,0,1-5.34-2.93v8.31h-5.91ZM262,30.33v-.26c0-3-1.32-4.49-3.4-4.49S255.2,27.13,255.2,30v.26c0,2.94,1.29,4.42,3.43,4.42S262,33.17,262,30.33Z" fill="#fff"/><path d="M271.07,25.61h-2.18v-4h2.18V20.07c0-4.29,2.68-6.34,6.77-6.34a10.35,10.35,0,0,1,2.7.37v4.32a5.4,5.4,0,0,0-1.61-.23,1.73,1.73,0,0,0-2,1.88v1.52h3.5v4H277V38.85h-5.88Z" fill="#fff"/><path d="M282.42,21.59h5.91V25a5.44,5.44,0,0,1,5.58-3.66v5.51c-3.6-.1-5.58,1-5.58,3.79v8.19h-5.91Z" fill="#fff"/><path d="M295,30.43v-.26c0-5.55,4.13-9,9.48-9s9.4,3.39,9.4,8.87v.27c0,5.61-4.12,9-9.44,9S295,36,295,30.43Zm12.88-.1v-.26c0-2.9-1.16-4.52-3.4-4.52S301,27.1,301,30v.27c0,3,1.16,4.58,3.44,4.58S307.84,33.21,307.84,30.33Z" fill="#fff"/><path d="M315.92,21.59h5.91v2.77a6.08,6.08,0,0,1,5.67-3.23c3.34,0,5.65,2.07,5.65,6.5V38.85h-5.91v-10c0-1.95-.76-2.91-2.48-2.91s-2.93,1.06-2.93,3.27v9.67h-5.91Z" fill="#fff"/><path d="M336.81,33.3V25.61h-2.08v-4h2.08V18h5.91v3.6h3.4v4h-3.4v7.13c0,1.26.62,1.82,1.74,1.82a4.47,4.47,0,0,0,1.69-.3v4.49a12.35,12.35,0,0,1-3.27.49C339,39.24,336.81,37.36,336.81,33.3Z" fill="#fff"/><path d="M354.36,21.59h5.91v2.57a6.08,6.08,0,0,1,5.38-3c4,0,7.3,3,7.3,8.94v.26c0,5.94-3.27,8.91-7.33,8.91a5.7,5.7,0,0,1-5.35-2.93v8.31h-5.91Zm12.58,8.74v-.26c0-3-1.32-4.49-3.4-4.49s-3.43,1.55-3.43,4.46v.26c0,2.94,1.28,4.42,3.43,4.42S366.94,33.17,366.94,30.33Z" fill="#fff"/><path d="M375.09,21.59H381V25a5.42,5.42,0,0,1,5.57-3.66v5.51c-3.6-.1-5.57,1-5.57,3.79v8.19h-5.91Z" fill="#fff"/><path d="M388.58,16.9a3.26,3.26,0,1,1,3.24,3A3.09,3.09,0,0,1,388.58,16.9Zm.3,4.69h5.91V38.85h-5.91Z" fill="#fff"/><path d="M397,30.43v-.26c0-5.74,4.13-9,9.21-9,4.22,0,8.12,1.84,8.45,7.09h-5.55c-.26-1.62-1.05-2.51-2.77-2.51-2.08,0-3.3,1.49-3.3,4.39v.27c0,3,1.16,4.55,3.4,4.55a2.87,2.87,0,0,0,3-2.87h5.32c-.17,4.36-3.1,7.19-8.68,7.19C401,39.24,397,36.24,397,30.43Z" fill="#fff"/><path d="M416.57,16.9a3.08,3.08,0,0,1,3.23-3.07,3.06,3.06,0,1,1,0,6.11A3.06,3.06,0,0,1,416.57,16.9Zm.29,4.69h5.91V38.85h-5.91Z" fill="#fff"/><path d="M425.94,21.59h5.91v2.77a6.08,6.08,0,0,1,5.67-3.23c3.34,0,5.65,2.07,5.65,6.5V38.85h-5.91v-10c0-1.95-.76-2.91-2.47-2.91s-2.94,1.06-2.94,3.27v9.67h-5.91Z" fill="#fff"/><path d="M445.08,38.85H451c.27,1.25,1,2.24,3.17,2.24,2.61,0,3.67-1.48,3.67-3.63V34.82A6.08,6.08,0,0,1,452.44,38c-4,0-7.33-3-7.33-8.28v-.27c0-5.08,3.27-8.31,7.33-8.31a5.61,5.61,0,0,1,5.35,2.9V21.59h5.9V37.4c0,5.15-3.4,7.85-9.57,7.85C448.25,45.25,445.54,42.78,445.08,38.85ZM458,29.67v-.23c0-2.37-1.22-3.89-3.4-3.89s-3.4,1.55-3.4,3.93v.26c0,2.38,1.26,3.89,3.37,3.89S458,32.12,458,29.67Z" fill="#fff"/><path d="M121.75,56.59h5.91v2.64a6,6,0,0,1,5.41-3.1A4.71,4.71,0,0,1,137.76,59a6.82,6.82,0,0,1,5.71-2.87c3.26,0,5.64,2.11,5.64,6.43V73.85H143.2V63.55c0-1.75-.86-2.61-2.21-2.61-1.58,0-2.64,1-2.64,2.91v10h-5.84V63.55c0-1.75-.86-2.61-2.21-2.61-1.59,0-2.64,1-2.64,2.91v10h-5.91Z" fill="#fff"/><path d="M151.05,65.43v-.26c0-5.55,4.13-9,9.34-9,4.72,0,8.78,2.7,8.78,8.91v1.55H157c.16,2.28,1.48,3.6,3.59,3.6,1.95,0,2.78-.9,3-2h5.54c-.53,3.89-3.53,6.11-8.74,6.11C155,74.25,151.05,71.08,151.05,65.43Zm12.38-2.18c-.1-2.08-1.12-3.23-3-3.23s-3,1.15-3.3,3.23Z" fill="#fff"/><path d="M170.39,69.06c0-4.06,3.43-5.64,9.18-5.64h1.65V63c0-1.65-.4-2.74-2.28-2.74a2.12,2.12,0,0,0-2.34,2h-5.55c.26-4.16,3.53-6.2,8.25-6.2s7.79,1.94,7.79,6.53V73.85h-5.74v-2a5.68,5.68,0,0,1-5.12,2.42C173.13,74.25,170.39,72.73,170.39,69.06Zm10.83-1.25V66.75h-1.55c-2.38,0-3.44.46-3.44,1.88,0,1,.66,1.62,2.05,1.62C180,70.25,181.22,69.29,181.22,67.81Z" fill="#fff"/><path d="M190,56.59h5.91v2.77a6.08,6.08,0,0,1,5.67-3.23c3.34,0,5.65,2.07,5.65,6.5V73.85h-5.91v-10c0-2-.76-2.91-2.48-2.91s-2.93,1.06-2.93,3.27v9.67H190Z" fill="#fff"/><path d="M208.9,68.37h5.45c.19,1.25.76,1.95,2.44,1.95,1.45,0,2.11-.56,2.11-1.42s-.82-1.22-3.2-1.55c-4.62-.6-6.57-1.95-6.57-5.55,0-3.83,3.4-5.67,7.39-5.67,4.26,0,7.23,1.45,7.63,5.57H218.8A1.93,1.93,0,0,0,216.59,60c-1.29,0-2,.56-2,1.35s.8,1.16,2.91,1.42c4.78.59,7.09,1.85,7.09,5.54,0,4.1-3,6-7.82,6S209,72.2,208.9,68.37Z" fill="#fff"/><path d="M233.45,60.61h-2.18v-4h2.18V55.07c0-4.29,2.68-6.34,6.77-6.34a11,11,0,0,1,2.71.36v4.33a5.52,5.52,0,0,0-1.62-.23,1.73,1.73,0,0,0-2,1.88v1.52h3.5v4h-3.5V73.85h-5.88Z" fill="#fff"/><path d="M244.67,51.9a3.26,3.26,0,1,1,3.24,3A3.09,3.09,0,0,1,244.67,51.9Zm.3,4.69h5.91V73.85H245Z" fill="#fff"/><path d="M254.21,49h5.87V73.85h-5.87Z" fill="#fff"/><path d="M263.12,51.9a3.08,3.08,0,0,1,3.23-3.07,3.06,3.06,0,1,1,0,6.11A3.06,3.06,0,0,1,263.12,51.9Zm.3,4.69h5.9V73.85h-5.9Z" fill="#fff"/><path d="M272.49,56.59h5.91v2.77a6.09,6.09,0,0,1,5.68-3.23c3.33,0,5.64,2.07,5.64,6.5V73.85h-5.91v-10c0-2-.76-2.91-2.47-2.91S278.4,62,278.4,64.18v9.67h-5.91Z" fill="#fff"/><path d="M291.63,73.85h5.88c.26,1.25,1,2.24,3.16,2.24,2.61,0,3.67-1.48,3.67-3.63V69.82A6.06,6.06,0,0,1,299,73c-4,0-7.33-3-7.33-8.28v-.27c0-5.08,3.27-8.31,7.33-8.31a5.61,5.61,0,0,1,5.35,2.9V56.59h5.91V72.4c0,5.14-3.4,7.85-9.58,7.85C294.8,80.25,292.09,77.78,291.63,73.85Zm12.87-9.18v-.23c0-2.37-1.22-3.89-3.4-3.89s-3.4,1.55-3.4,3.93v.26c0,2.38,1.26,3.89,3.37,3.89S304.5,67.12,304.5,64.67Z" fill="#fff"/><path d="M319.12,51.9a3.26,3.26,0,1,1,3.23,3A3.08,3.08,0,0,1,319.12,51.9Zm.3,4.69h5.9V73.85h-5.9Z" fill="#fff"/><path d="M327.34,68.37h5.44c.2,1.25.76,1.95,2.44,1.95,1.46,0,2.12-.56,2.12-1.42s-.83-1.22-3.21-1.55c-4.62-.6-6.56-1.95-6.56-5.55,0-3.83,3.4-5.67,7.39-5.67,4.26,0,7.23,1.45,7.62,5.57h-5.34A1.93,1.93,0,0,0,335,60c-1.29,0-1.95.56-1.95,1.35s.79,1.16,2.9,1.42c4.79.59,7.1,1.85,7.1,5.54,0,4.1-3,6-7.82,6S327.47,72.2,327.34,68.37Z" fill="#fff"/><path d="M350,69.06c0-4.06,3.43-5.64,9.17-5.64h1.65V63c0-1.65-.39-2.74-2.28-2.74a2.12,2.12,0,0,0-2.34,2h-5.54c.26-4.16,3.53-6.2,8.25-6.2s7.79,1.94,7.79,6.53V73.85H361v-2a5.65,5.65,0,0,1-5.11,2.42C352.75,74.25,350,72.73,350,69.06Zm10.82-1.25V66.75h-1.55c-2.38,0-3.43.46-3.43,1.88,0,1,.66,1.62,2,1.62C359.58,70.25,360.83,69.29,360.83,67.81Z" fill="#fff"/><path d="M381.49,71.18v2.67h-5.91V49h5.91V59.16a6.08,6.08,0,0,1,5.38-3c4,0,7.29,3,7.29,8.94v.26c0,5.94-3.26,8.92-7.32,8.92A5.61,5.61,0,0,1,381.49,71.18Zm6.67-5.85v-.26c0-3-1.32-4.49-3.4-4.49s-3.44,1.55-3.44,4.46v.26c0,2.94,1.29,4.42,3.44,4.42S388.16,68.17,388.16,65.33Z" fill="#fff"/><path d="M396.3,56.59h5.91V60a5.44,5.44,0,0,1,5.58-3.66v5.51c-3.6-.1-5.58,1-5.58,3.79v8.19H396.3Z" fill="#fff"/><path d="M408.84,65.43v-.26c0-5.55,4.13-9,9.34-9,4.72,0,8.78,2.7,8.78,8.91v1.55H414.82c.16,2.28,1.48,3.6,3.6,3.6,1.94,0,2.77-.9,3-2H427c-.52,3.89-3.53,6.11-8.74,6.11C412.8,74.25,408.84,71.08,408.84,65.43Zm12.38-2.18c-.1-2.08-1.12-3.23-3-3.23s-3,1.15-3.3,3.23Z" fill="#fff"/><path d="M428.08,65.43v-.26c0-5.55,4.13-9,9.34-9,4.72,0,8.78,2.7,8.78,8.91v1.55H434.06c.16,2.28,1.48,3.6,3.59,3.6,2,0,2.78-.9,3-2h5.54c-.53,3.89-3.53,6.11-8.74,6.11C432,74.25,428.08,71.08,428.08,65.43Zm12.38-2.18c-.1-2.08-1.12-3.23-3-3.23s-3,1.15-3.3,3.23Z" fill="#fff"/><path d="M446.66,73.25,454.22,61h-6.77V56.59h15.22v.62l-7.76,12.18h7.36v4.46H446.66Z" fill="#fff"/><path d="M463.16,65.43v-.26c0-5.55,4.13-9,9.34-9,4.72,0,8.78,2.7,8.78,8.91v1.55H469.14c.16,2.28,1.48,3.6,3.59,3.6,1.95,0,2.78-.9,3-2h5.54c-.53,3.89-3.53,6.11-8.74,6.11C467.12,74.25,463.16,71.08,463.16,65.43Zm12.38-2.18c-.1-2.08-1.12-3.23-3-3.23s-3,1.15-3.3,3.23Z" fill="#fff"/><path d="M482.93,70.88a3.3,3.3,0,0,1,3.37-3.34,3.34,3.34,0,1,1,0,6.67A3.29,3.29,0,0,1,482.93,70.88Z" fill="#fff"/></g></g></g></svg>