<svg xmlns="http://www.w3.org/2000/svg" viewBox="0 0 728 90"><title>H58</title><g id="Layer_2" data-name="Layer 2"><g id="Rect"><rect width="728" height="90" fill="none"/></g><g id="H58"><g id="No_surprises._Guaranteed." data-name="No surprises. Guaranteed."><path d="M122.33,32.31h7.8l7.72,13.6V32.31h6.05V56.44h-6.69L128.4,41.29V56.44h-6.07Z" fill="#fff"/><path d="M146.33,47.83v-.26c0-5.67,4.21-9.25,9.68-9.25s9.62,3.47,9.62,9.08v.27c0,5.73-4.22,9.18-9.65,9.18S146.33,53.54,146.33,47.83Zm13.16-.1v-.27c0-3-1.18-4.62-3.48-4.62s-3.51,1.59-3.51,4.56v.27c0,3,1.18,4.69,3.51,4.69S159.49,50.67,159.49,47.73Z" fill="#fff"/><path d="M172.72,50.84h5.57c.2,1.28.77,2,2.49,2,1.49,0,2.16-.57,2.16-1.45s-.84-1.25-3.27-1.59c-4.73-.6-6.72-2-6.72-5.67,0-3.91,3.48-5.8,7.56-5.8,4.36,0,7.4,1.48,7.8,5.7h-5.47a2,2,0,0,0-2.26-1.75c-1.31,0-2,.57-2,1.38s.81,1.18,3,1.45c4.89.61,7.26,1.89,7.26,5.67,0,4.19-3.11,6.08-8,6.08S172.85,54.75,172.72,50.84Z" fill="#fff"/><path d="M190.64,50.3V38.79h6V49.32c0,2,.78,3,2.5,3s3-1.08,3-3.34V38.79h6V56.44h-6V53.71a5.79,5.79,0,0,1-5.6,3.14C193.17,56.85,190.64,54.75,190.64,50.3Z" fill="#fff"/><path d="M211.29,38.79h6V42.3A5.58,5.58,0,0,1,223,38.55v5.64c-3.68-.1-5.71,1.05-5.71,3.88v8.37h-6Z" fill="#fff"/><path d="M225.23,38.79h6v2.63a6.24,6.24,0,0,1,5.5-3.1c4.12,0,7.46,3.1,7.46,9.14v.27c0,6.08-3.34,9.12-7.49,9.12a5.82,5.82,0,0,1-5.47-3v8.51h-6Zm12.86,8.94v-.27c0-3.1-1.35-4.59-3.48-4.59s-3.51,1.59-3.51,4.56v.27c0,3,1.32,4.52,3.51,4.52S238.09,50.64,238.09,47.73Z" fill="#fff"/><path d="M246.43,38.79h6V42.3a5.57,5.57,0,0,1,5.7-3.75v5.64c-3.68-.1-5.7,1.05-5.7,3.88v8.37h-6Z" fill="#fff"/><path d="M260.23,34a3.33,3.33,0,1,1,3.31,3.1A3.12,3.12,0,0,1,260.23,34Zm.3,4.79h6.05V56.44h-6.05Z" fill="#fff"/><path d="M268.63,50.84h5.57c.2,1.28.78,2,2.5,2,1.49,0,2.16-.57,2.16-1.45s-.84-1.25-3.27-1.59c-4.73-.6-6.72-2-6.72-5.67,0-3.91,3.48-5.8,7.56-5.8,4.35,0,7.39,1.48,7.8,5.7h-5.47a2,2,0,0,0-2.26-1.75c-1.32,0-2,.57-2,1.38s.81,1.18,3,1.45c4.89.61,7.25,1.89,7.25,5.67,0,4.19-3.1,6.08-8,6.08S268.77,54.75,268.63,50.84Z" fill="#fff"/><path d="M285.85,47.83v-.26c0-5.67,4.21-9.25,9.55-9.25,4.82,0,9,2.76,9,9.11V49H292c.17,2.33,1.52,3.68,3.68,3.68,2,0,2.84-.92,3.08-2.1h5.67c-.54,4-3.62,6.25-8.95,6.25C289.9,56.85,285.85,53.61,285.85,47.83Zm12.65-2.22c-.1-2.13-1.15-3.31-3.1-3.31s-3.07,1.18-3.38,3.31Z" fill="#fff"/><path d="M305.45,50.84H311c.21,1.28.78,2,2.5,2,1.49,0,2.16-.57,2.16-1.45s-.84-1.25-3.27-1.59c-4.73-.6-6.72-2-6.72-5.67,0-3.91,3.48-5.8,7.56-5.8,4.35,0,7.39,1.48,7.8,5.7h-5.47a2,2,0,0,0-2.26-1.75c-1.32,0-2,.57-2,1.38s.81,1.18,3,1.45c4.89.61,7.25,1.89,7.25,5.67,0,4.19-3.1,6.08-8,6.08S305.59,54.75,305.45,50.84Z" fill="#fff"/><path d="M323.27,53.4a3.37,3.37,0,0,1,3.45-3.4,3.41,3.41,0,1,1,0,6.81A3.37,3.37,0,0,1,323.27,53.4Z" fill="#fff"/><path d="M338.49,44.53v-.27c0-7.36,5.4-12.32,12.66-12.32,5.71,0,10.77,2.6,11.24,8.87h-6.85c-.34-2.26-1.79-3.44-4.35-3.44-3.41,0-5.47,2.63-5.47,7v.27c0,3.91,1.45,6.95,5.63,6.95,3.38,0,4.66-1.72,4.8-3.64h-4.53V43.11H363v3c0,6.14-4,10.77-11.81,10.77C343,56.85,338.49,51.75,338.49,44.53Z" fill="#fff"/><path d="M365.16,50.3V38.79h6V49.32c0,2,.77,3,2.5,3s3-1.08,3-3.34V38.79h6V56.44h-6V53.71a5.81,5.81,0,0,1-5.6,3.14C367.69,56.85,365.16,54.75,365.16,50.3Z" fill="#fff"/><path d="M384.8,51.55c0-4.15,3.51-5.77,9.38-5.77h1.69v-.41c0-1.69-.41-2.8-2.33-2.8a2.18,2.18,0,0,0-2.4,2.09h-5.67c.27-4.25,3.61-6.34,8.44-6.34s8,2,8,6.68V56.44H396V54.38c-.84,1.29-2.39,2.47-5.23,2.47C387.6,56.85,384.8,55.29,384.8,51.55Zm11.07-1.28V49.19h-1.59c-2.43,0-3.51.47-3.51,1.92,0,1,.68,1.65,2.1,1.65C394.59,52.76,395.87,51.78,395.87,50.27Z" fill="#fff"/><path d="M404.81,38.79h6V42.3a5.58,5.58,0,0,1,5.71-3.75v5.64c-3.68-.1-5.71,1.05-5.71,3.88v8.37h-6Z" fill="#fff"/><path d="M417.33,51.55c0-4.15,3.51-5.77,9.39-5.77h1.68v-.41c0-1.69-.4-2.8-2.32-2.8a2.17,2.17,0,0,0-2.4,2.09H418c.27-4.25,3.61-6.34,8.44-6.34s8,2,8,6.68V56.44h-5.87V54.38c-.84,1.29-2.4,2.47-5.23,2.47C420.13,56.85,417.33,55.29,417.33,51.55Zm11.07-1.28V49.19h-1.58c-2.43,0-3.51.47-3.51,1.92,0,1,.67,1.65,2.09,1.65C427.12,52.76,428.4,51.78,428.4,50.27Z" fill="#fff"/><path d="M437.35,38.79h6v2.83a6.22,6.22,0,0,1,5.8-3.3c3.41,0,5.77,2.12,5.77,6.65V56.44h-6V46.18c0-2-.77-3-2.53-3s-3,1.08-3,3.34v9.89h-6Z" fill="#fff"/><path d="M458.71,50.77V42.91h-2.13V38.79h2.13V35.11h6v3.68h3.48v4.12h-3.48V50.2a1.61,1.61,0,0,0,1.79,1.85,4.63,4.63,0,0,0,1.72-.3v4.59a12.68,12.68,0,0,1-3.34.51C460.94,56.85,458.71,54.92,458.71,50.77Z" fill="#fff"/><path d="M469.58,47.83v-.26c0-5.67,4.22-9.25,9.55-9.25,4.83,0,9,2.76,9,9.11V49H475.69c.17,2.33,1.52,3.68,3.68,3.68,2,0,2.83-.92,3.07-2.1h5.67c-.54,4-3.61,6.25-8.95,6.25C473.63,56.85,469.58,53.61,469.58,47.83Zm12.65-2.22c-.1-2.13-1.14-3.31-3.1-3.31s-3.07,1.18-3.38,3.31Z" fill="#fff"/><path d="M489.25,47.83v-.26c0-5.67,4.22-9.25,9.55-9.25,4.83,0,9,2.76,9,9.11V49H495.36c.17,2.33,1.52,3.68,3.68,3.68,2,0,2.84-.92,3.07-2.1h5.67c-.54,4-3.61,6.25-8.94,6.25C493.3,56.85,489.25,53.61,489.25,47.83Zm12.66-2.22c-.1-2.13-1.15-3.31-3.11-3.31s-3.07,1.18-3.37,3.31Z" fill="#fff"/><path d="M509,47.8v-.27c0-6,3.3-9.21,7.49-9.21a5.71,5.71,0,0,1,5.43,3V31H528V56.44h-6.05V53.57a5.93,5.93,0,0,1-5.5,3.28C512.34,56.85,509,53.91,509,47.8Zm13.09-.1v-.27c0-3-1.25-4.56-3.47-4.56s-3.48,1.52-3.48,4.59v.27c0,3,1.32,4.49,3.41,4.49S522.09,50.7,522.09,47.7Z" fill="#fff"/><path d="M530.8,53.4a3.36,3.36,0,0,1,3.44-3.4,3.41,3.41,0,1,1,0,6.81A3.36,3.36,0,0,1,530.8,53.4Z" fill="#fff"/></g></g></g></svg>