<svg xmlns="http://www.w3.org/2000/svg" viewBox="0 0 1940 500"><title>txt</title><g id="Layer_2" data-name="Layer 2"><g id="Rectangle_4" data-name="Rectangle 4" style="isolation:isolate"><g id="Rectangle_4-2" data-name="Rectangle 4"><rect width="1940" height="500" fill="none"/></g></g><g id="MAX_Find_an_office_" data-name="MAX (Find an office)"><g id="Your_maximum_refund_guaranteed." data-name="Your maximum refund, guaranteed."><path d="M582.47,192.48l-26.09-45.8h25l13.55,27,13.55-27H630.4l-24.86,45.8v34.26H582.47Z" fill="#fff"/><path d="M622,198.19v-.9c0-18.81,14-30.68,32.14-30.68s31.92,11.53,31.92,30.12v.9c0,19-14,30.45-32,30.45S622,217.11,622,198.19Zm43.68-.34V197c0-9.85-3.92-15.34-11.54-15.34s-11.64,5.27-11.64,15.12v.9c0,10.07,3.92,15.56,11.64,15.56C661.65,213.19,665.68,207.59,665.68,197.85Z" fill="#fff"/><path d="M692.67,206.36V168.18h20v34.93c0,6.61,2.58,9.86,8.29,9.86,6,0,10-3.59,10-11.09v-33.7h20v58.56H731v-9.07c-3.14,6.05-8.85,10.41-18.59,10.41C701.07,228.08,692.67,221.14,692.67,206.36Z" fill="#fff"/><path d="M761.21,168.18h20v11.64c3.7-8.73,9.86-12.54,18.93-12.43v18.7c-12.21-.33-18.93,3.47-18.93,12.88v27.77h-20Z" fill="#fff"/><path d="M827.84,168.18h20v9a20.49,20.49,0,0,1,18.37-10.53c7.73,0,13.1,3.36,15.9,9.74a23.21,23.21,0,0,1,19.37-9.74c11.09,0,19.15,7.17,19.15,21.83v38.3h-20V191.8c0-5.93-2.91-8.84-7.5-8.84-5.38,0-9,3.47-9,9.85v33.93H864.35V191.8c0-5.93-2.92-8.84-7.51-8.84-5.37,0-9,3.47-9,9.85v33.93h-20Z" fill="#fff"/><path d="M927.06,210.5c0-13.77,11.65-19.14,31.13-19.14h5.6V190c0-5.6-1.34-9.29-7.72-9.29-5.49,0-7.51,3.25-8,6.94H929.3c.9-14.11,12-21,28-21s26.43,6.61,26.43,22.17v38H964.24v-6.83c-2.8,4.25-8,8.17-17.36,8.17C936.36,228.08,927.06,222.93,927.06,210.5Zm36.73-4.25v-3.58h-5.26c-8.06,0-11.65,1.56-11.65,6.38,0,3.36,2.24,5.48,7,5.48C959.54,214.53,963.79,211.29,963.79,206.25Z" fill="#fff"/><path d="M1008.25,197,990,168.18h23.07l9.07,15.45,8.85-15.45h20.6l-18.48,27.21,20.27,31.35h-23.07l-10.41-17.47-10.64,17.47H988.77Z" fill="#fff"/><path d="M1058.54,152.28c0-5.94,4.7-10.41,11-10.41s11.09,4.47,11.09,10.41-4.82,10.3-11.09,10.3S1058.54,158.21,1058.54,152.28Zm1,15.9h20v58.56h-20Z" fill="#fff"/><path d="M1090.34,168.18h20.05v9a20.46,20.46,0,0,1,18.36-10.53c7.73,0,13.1,3.36,15.9,9.74a23.23,23.23,0,0,1,19.38-9.74c11.08,0,19.15,7.17,19.15,21.83v38.3h-20V191.8c0-5.93-2.91-8.84-7.5-8.84-5.38,0-9,3.47-9,9.85v33.93h-19.82V191.8c0-5.93-2.91-8.84-7.5-8.84-5.38,0-9,3.47-9,9.85v33.93h-20.05Z" fill="#fff"/><path d="M1192.48,206.36V168.18h20v34.93c0,6.61,2.58,9.86,8.29,9.86,6,0,10-3.59,10-11.09v-33.7h20v58.56h-20v-9.07c-3.14,6.05-8.85,10.41-18.59,10.41C1200.88,228.08,1192.48,221.14,1192.48,206.36Z" fill="#fff"/><path d="M1261,168.18h20v9a20.47,20.47,0,0,1,18.36-10.53c7.73,0,13.11,3.36,15.91,9.74a23.21,23.21,0,0,1,19.37-9.74c11.09,0,19.15,7.17,19.15,21.83v38.3h-20V191.8c0-5.93-2.91-8.84-7.5-8.84-5.37,0-9,3.47-9,9.85v33.93h-19.82V191.8c0-5.93-2.91-8.84-7.5-8.84-5.38,0-9,3.47-9,9.85v33.93h-20Z" fill="#fff"/><path d="M1384,168.18h20v11.64c3.69-8.73,9.85-12.54,18.92-12.43v18.7c-12.21-.33-18.92,3.47-18.92,12.88v27.77h-20Z" fill="#fff"/><path d="M1426.54,198.19v-.9c0-18.81,14-30.68,31.69-30.68,16,0,29.79,9.18,29.79,30.23v5.26h-41.21c.56,7.73,5,12.21,12.2,12.21,6.61,0,9.41-3,10.19-6.94H1488c-1.8,13.21-12,20.71-29.68,20.71C1440,228.08,1426.54,217.33,1426.54,198.19Zm42-7.39c-.33-7.06-3.81-11-10.3-11-6,0-10.19,3.92-11.2,11Z" fill="#fff"/><path d="M1498,181.84h-7.4V168.18h7.4V163c0-14.56,9.07-21.5,23-21.5a35.86,35.86,0,0,1,9.19,1.23v14.67a18.4,18.4,0,0,0-5.49-.78c-4.71,0-6.72,2.57-6.72,6.38v5.15h11.87v13.66h-11.87v44.9H1498Z" fill="#fff"/><path d="M1536.06,206.36V168.18h20v34.93c0,6.61,2.57,9.86,8.28,9.86,6,0,10-3.59,10-11.09v-33.7h20.05v58.56h-20.05v-9.07c-3.14,6.05-8.85,10.41-18.59,10.41C1544.46,228.08,1536.06,221.14,1536.06,206.36Z" fill="#fff"/><path d="M1604.6,168.18h20v9.4c3.14-6,9.52-11,19.26-11,11.31,0,19.15,7.06,19.15,22.06v38.07h-20v-34c0-6.61-2.58-9.85-8.4-9.85s-10,3.58-10,11.08v32.81h-20Z" fill="#fff"/><path d="M1669.89,198.07v-.89c0-19.93,11-30.57,24.86-30.57,9.18,0,14.67,3.92,18,9.85v-34h20v84.31h-20v-9.52c-2.91,6.05-9.41,10.86-18.25,10.86C1681,228.08,1669.89,218.34,1669.89,198.07Zm43.45-.33v-.9c0-9.85-4.14-15.11-11.54-15.11s-11.53,5-11.53,15.22v.9c0,9.85,4.37,14.89,11.31,14.89C1708.86,212.74,1713.34,207.7,1713.34,197.74Z" fill="#fff"/><path d="M1738.88,235.81l9.4-29.45,18.59,6.61-16.12,27.43Z" fill="#fff"/><path d="M558.17,342.7H578.1c.9,4.26,3.47,7.62,10.75,7.62,8.85,0,12.43-5,12.43-12.32v-9a20.52,20.52,0,0,1-18.14,10.75c-13.66,0-24.86-10.08-24.86-28.1v-.9c0-17.24,11.09-28.22,24.86-28.22,9.3,0,14.78,3.92,18.14,9.86v-8.29h20.05v53.63c0,17.47-11.54,26.65-32.48,26.65C568.92,364.42,559.74,356,558.17,342.7Zm43.67-31.13v-.78c0-8.06-4.14-13.21-11.53-13.21s-11.54,5.26-11.54,13.32v.9c0,8.06,4.26,13.21,11.43,13.21S601.84,319.86,601.84,311.57Z" fill="#fff"/><path d="M631.07,322.32V284.14h20v34.94c0,6.6,2.58,9.85,8.29,9.85,6,0,10-3.58,10-11.09v-33.7h20V342.7h-20v-9.07c-3.13,6.05-8.84,10.41-18.59,10.41C639.47,344,631.07,337.1,631.07,322.32Z" fill="#fff"/><path d="M696.25,326.47c0-13.78,11.65-19.15,31.13-19.15H733V306c0-5.6-1.34-9.3-7.72-9.3-5.49,0-7.51,3.25-8,6.94H698.49c.9-14.1,12-21.05,28-21.05s26.43,6.61,26.43,22.17v38H733.43v-6.83c-2.8,4.26-7.95,8.17-17.36,8.17C705.55,344,696.25,338.89,696.25,326.47ZM733,322.21v-3.58h-5.26c-8.06,0-11.65,1.57-11.65,6.38,0,3.36,2.24,5.49,6.95,5.49C728.73,330.5,733,327.25,733,322.21Z" fill="#fff"/><path d="M762.66,284.14h20.05v11.65c3.69-8.74,9.85-12.54,18.92-12.43v18.7c-12.21-.34-18.92,3.47-18.92,12.87V342.7H762.66Z" fill="#fff"/><path d="M804.21,326.47c0-13.78,11.65-19.15,31.13-19.15h5.6V306c0-5.6-1.34-9.3-7.73-9.3-5.48,0-7.5,3.25-8,6.94H806.45c.9-14.1,12-21.05,28-21.05s26.42,6.61,26.42,22.17v38H841.39v-6.83c-2.8,4.26-7.95,8.17-17.36,8.17C813.5,344,804.21,338.89,804.21,326.47Zm36.73-4.26v-3.58h-5.26c-8.07,0-11.65,1.57-11.65,6.38,0,3.36,2.24,5.49,6.94,5.49C836.69,330.5,840.94,327.25,840.94,322.21Z" fill="#fff"/><path d="M870.62,284.14h20v9.41c3.14-6.05,9.52-11,19.26-11,11.32,0,19.15,7.06,19.15,22.06V342.7H909v-34c0-6.6-2.58-9.85-8.4-9.85s-10,3.58-10,11.08V342.7h-20Z" fill="#fff"/><path d="M941.51,323.89V297.8h-7.06V284.14h7.06v-12.2h20v12.2h11.54V297.8H961.55V322c0,4.25,2.13,6.16,5.94,6.16a15.3,15.3,0,0,0,5.71-1v15.23A42.21,42.21,0,0,1,962.11,344C948.9,344,941.51,337.66,941.51,323.89Z" fill="#fff"/><path d="M977.57,314.15v-.9c0-18.81,14-30.68,31.69-30.68,16,0,29.79,9.18,29.79,30.24v5.26H997.84c.56,7.72,5,12.2,12.2,12.2,6.61,0,9.41-3,10.2-6.94h18.81c-1.79,13.21-12,20.71-29.68,20.71C991,344,977.57,333.3,977.57,314.15Zm42-7.39c-.33-7.05-3.8-11-10.3-11-6,0-10.19,3.92-11.2,11Z" fill="#fff"/><path d="M1042.86,314.15v-.9c0-18.81,14-30.68,31.69-30.68,16,0,29.79,9.18,29.79,30.24v5.26h-41.21c.56,7.72,5,12.2,12.2,12.2,6.61,0,9.41-3,10.2-6.94h18.81c-1.79,13.21-12,20.71-29.68,20.71C1056.3,344,1042.86,333.3,1042.86,314.15Zm42-7.39c-.33-7.05-3.8-11-10.3-11-6,0-10.19,3.92-11.2,11Z" fill="#fff"/><path d="M1108.37,314v-.9c0-19.93,11-30.57,24.86-30.57,9.19,0,14.67,3.92,18,9.86v-34h20V342.7h-20v-9.52c-2.91,6.05-9.4,10.86-18.25,10.86C1119.46,344,1108.37,334.3,1108.37,314Zm43.45-.34v-.89c0-9.86-4.14-15.12-11.53-15.12s-11.54,5-11.54,15.23v.89c0,9.86,4.37,14.9,11.31,14.9C1147.34,328.71,1151.82,323.67,1151.82,313.7Z" fill="#fff"/><path d="M1180.72,332.62a11.15,11.15,0,0,1,11.42-11.3c6.72,0,11.76,5,11.76,11.3a11.39,11.39,0,0,1-11.76,11.31A11.16,11.16,0,0,1,1180.72,332.62Z" fill="#fff"/></g></g></g></svg>