<svg xmlns="http://www.w3.org/2000/svg" viewBox="0 0 728 90"><title>H8</title><g id="Layer_2" data-name="Layer 2"><g id="Artboard_3" data-name="Artboard 3" style="isolation:isolate"><g id="headline2"><g id="Ready_for_your_refund_Get_expert_tax_prep_from_home_with_Tax_P" data-name="Ready for your refund? Get expert tax prep from home with Tax P"><path d="M117.7,19.49h6.92c4.61,0,7.18,1.88,7.18,5.6v.1a4.6,4.6,0,0,1-3.18,4.64l4.22,7.31H127.5l-3.57-6.32h-1.19v6.32h-5Zm6.67,8.05c1.7,0,2.54-.72,2.54-2.15v-.1c0-1.43-.89-2-2.52-2h-1.65v4.25Z" fill="#fff"/><path d="M132.84,30.85v-.2c0-4.15,3.09-6.76,7-6.76,3.53,0,6.56,2,6.56,6.66v1.16h-9.08A2.57,2.57,0,0,0,140,34.4c1.46,0,2.07-.66,2.25-1.53h4.14c-.39,2.92-2.64,4.57-6.54,4.57S132.84,35.07,132.84,30.85Zm9.26-1.63c-.08-1.56-.84-2.42-2.27-2.42a2.45,2.45,0,0,0-2.47,2.42Z" fill="#fff"/><path d="M147.31,33.56c0-3,2.57-4.22,6.86-4.22h1.24V29c0-1.23-.3-2-1.71-2A1.58,1.58,0,0,0,152,28.53H147.8c.2-3.11,2.65-4.64,6.18-4.64s5.82,1.45,5.82,4.88v8.37h-4.29v-1.5a4.25,4.25,0,0,1-3.83,1.8C149.36,37.44,147.31,36.3,147.31,33.56Zm8.1-.93v-.8h-1.16c-1.78,0-2.57.35-2.57,1.41,0,.74.49,1.21,1.53,1.21C154.47,34.45,155.41,33.74,155.41,32.63Z" fill="#fff"/><path d="M161.31,30.82v-.19c0-4.4,2.42-6.74,5.48-6.74a4.18,4.18,0,0,1,4,2.17V18.55h4.42V37.14h-4.42V35a4.36,4.36,0,0,1-4,2.4C163.75,37.44,161.31,35.29,161.31,30.82Zm9.58-.07v-.2c0-2.17-.91-3.33-2.54-3.33s-2.55,1.11-2.55,3.36v.19c0,2.18,1,3.29,2.5,3.29S170.89,33,170.89,30.75Z" fill="#fff"/><path d="M181.48,35.83l-5.16-11.6h4.79l2.67,6.89,2.47-6.89h4.22l-6.91,17.23h-4.22Z" fill="#fff"/><path d="M196.77,27.24h-1.63v-3h1.63V23.1c0-3.21,2-4.75,5.06-4.75a7.68,7.68,0,0,1,2,.28v3.23a4,4,0,0,0-1.2-.17,1.3,1.3,0,0,0-1.49,1.41v1.13h2.62v3h-2.62v9.9h-4.39Z" fill="#fff"/><path d="M204.13,30.85v-.2c0-4.15,3.08-6.76,7.08-6.76s7,2.54,7,6.64v.19c0,4.2-3.09,6.72-7.06,6.72S204.13,35,204.13,30.85Zm9.63-.08v-.19c0-2.18-.87-3.39-2.55-3.39s-2.56,1.16-2.56,3.34v.19c0,2.23.86,3.44,2.56,3.44S213.76,32.92,213.76,30.77Z" fill="#fff"/><path d="M219.81,24.23h4.42V26.8a4.05,4.05,0,0,1,4.17-2.74v4.12c-2.69-.07-4.17.77-4.17,2.84v6.12h-4.42Z" fill="#fff"/><path d="M238.55,35.83l-5.16-11.6h4.79l2.66,6.89,2.47-6.89h4.23l-6.92,17.23H236.4Z" fill="#fff"/><path d="M247.29,30.85v-.2c0-4.15,3.09-6.76,7.09-6.76s7,2.54,7,6.64v.19c0,4.2-3.08,6.72-7.06,6.72S247.29,35,247.29,30.85Zm9.63-.08v-.19c0-2.18-.86-3.39-2.54-3.39s-2.57,1.16-2.57,3.34v.19c0,2.23.86,3.44,2.57,3.44S256.92,32.92,256.92,30.77Z" fill="#fff"/><path d="M262.87,32.65V24.23h4.42v7.7c0,1.46.57,2.18,1.83,2.18s2.19-.79,2.19-2.45V24.23h4.42V37.14h-4.42v-2a4.23,4.23,0,0,1-4.09,2.3C264.72,37.44,262.87,35.91,262.87,32.65Z" fill="#fff"/><path d="M278,24.23h4.42V26.8a4.07,4.07,0,0,1,4.18-2.74v4.12c-2.7-.07-4.18.77-4.18,2.84v6.12H278Z" fill="#fff"/><path d="M292.67,24.23h4.42V26.8a4.07,4.07,0,0,1,4.18-2.74v4.12c-2.69-.07-4.18.77-4.18,2.84v6.12h-4.42Z" fill="#fff"/><path d="M302.06,30.85v-.2c0-4.15,3.08-6.76,7-6.76,3.54,0,6.57,2,6.57,6.66v1.16h-9.08a2.57,2.57,0,0,0,2.69,2.69c1.45,0,2.07-.66,2.24-1.53h4.15c-.39,2.92-2.64,4.57-6.54,4.57S302.06,35.07,302.06,30.85Zm9.26-1.63c-.08-1.56-.84-2.42-2.28-2.42a2.45,2.45,0,0,0-2.46,2.42Z" fill="#fff"/><path d="M317.81,27.24h-1.63v-3h1.63V23.1c0-3.21,2-4.75,5.06-4.75a7.83,7.83,0,0,1,2,.28v3.23a4,4,0,0,0-1.21-.17,1.3,1.3,0,0,0-1.48,1.41v1.13h2.61v3h-2.61v9.9h-4.4Z" fill="#fff"/><path d="M326.21,32.65V24.23h4.42v7.7c0,1.46.56,2.18,1.82,2.18s2.2-.79,2.2-2.45V24.23h4.42V37.14h-4.42v-2a4.23,4.23,0,0,1-4.1,2.3C328.06,37.44,326.21,35.91,326.21,32.65Z" fill="#fff"/><path d="M341.32,24.23h4.42V26.3A4.55,4.55,0,0,1,350,23.89c2.5,0,4.23,1.55,4.23,4.86v8.39h-4.42v-7.5c0-1.46-.57-2.18-1.85-2.18s-2.2.79-2.2,2.45v7.23h-4.42Z" fill="#fff"/><path d="M355.71,30.82v-.19c0-4.4,2.42-6.74,5.49-6.74a4.18,4.18,0,0,1,4,2.17V18.55h4.42V37.14h-4.42V35a4.34,4.34,0,0,1-4,2.4C358.16,37.44,355.71,35.29,355.71,30.82Zm9.58-.07v-.2c0-2.17-.91-3.33-2.54-3.33s-2.54,1.11-2.54,3.36v.19c0,2.18,1,3.29,2.49,3.29S365.29,33,365.29,30.75Z" fill="#fff"/><path d="M374.7,30.87c0-1.87,1.29-3.06,2.42-4.15.84-.81,1.61-1.55,1.61-2.42a1.32,1.32,0,0,0-1.51-1.48c-1.06,0-1.78.82-2,2.18H371c.13-3.73,2.79-5.76,6.6-5.76s5.95,1.71,5.95,4.65a5,5,0,0,1-1.81,3.7c-1.21,1.21-2.61,2.17-2.83,3.38v.37H374.7Zm-.57,4.1a2.65,2.65,0,0,1,5.29,0,2.65,2.65,0,0,1-5.29,0Z" fill="#fff"/><path d="M389.15,28.43v-.2c0-5.38,4-9,9.26-9,4.17,0,7.87,1.9,8.22,6.49h-5c-.25-1.65-1.31-2.52-3.19-2.52-2.49,0-4,1.93-4,5.11v.2c0,2.87,1.06,5.09,4.12,5.09,2.47,0,3.41-1.26,3.51-2.67h-3.31V27.39h8.3v2.17c0,4.5-2.94,7.88-8.64,7.88C392.41,37.44,389.15,33.71,389.15,28.43Z" fill="#fff"/><path d="M408.06,30.85v-.2c0-4.15,3.09-6.76,7-6.76,3.53,0,6.57,2,6.57,6.66v1.16h-9.09a2.57,2.57,0,0,0,2.69,2.69c1.46,0,2.08-.66,2.25-1.53h4.15c-.4,2.92-2.65,4.57-6.55,4.57S408.06,35.07,408.06,30.85Zm9.26-1.63c-.07-1.56-.84-2.42-2.27-2.42a2.46,2.46,0,0,0-2.47,2.42Z" fill="#fff"/><path d="M423.74,33V27.24h-1.55v-3h1.55V21.54h4.42v2.69h2.55v3h-2.55v5.34a1.18,1.18,0,0,0,1.31,1.35,3.37,3.37,0,0,0,1.26-.22v3.36a9.22,9.22,0,0,1-2.44.37C425.37,37.44,423.74,36,423.74,33Z" fill="#fff"/><path d="M436.19,30.85v-.2c0-4.15,3.08-6.76,7-6.76,3.54,0,6.57,2,6.57,6.66v1.16h-9.08a2.57,2.57,0,0,0,2.69,2.69c1.45,0,2.07-.66,2.24-1.53h4.15c-.39,2.92-2.64,4.57-6.54,4.57S436.19,35.07,436.19,30.85Zm9.26-1.63c-.08-1.56-.84-2.42-2.28-2.42a2.45,2.45,0,0,0-2.46,2.42Z" fill="#fff"/><path d="M453.84,30.58l-4-6.35h5.08l2,3.41,2-3.41h4.55l-4.08,6,4.47,6.91h-5.08l-2.3-3.85-2.34,3.85h-4.52Z" fill="#fff"/><path d="M465,24.23h4.42v1.93a4.54,4.54,0,0,1,4-2.27c3,0,5.46,2.27,5.46,6.69v.19c0,4.45-2.45,6.67-5.48,6.67a4.25,4.25,0,0,1-4-2.2v6.22H465Zm9.41,6.54v-.19c0-2.28-1-3.36-2.55-3.36s-2.56,1.16-2.56,3.33v.2c0,2.2,1,3.31,2.56,3.31S474.44,32.9,474.44,30.77Z" fill="#fff"/><path d="M479.84,30.85v-.2c0-4.15,3.09-6.76,7-6.76,3.53,0,6.57,2,6.57,6.66v1.16h-9.09A2.58,2.58,0,0,0,487,34.4c1.46,0,2.08-.66,2.25-1.53h4.15c-.4,2.92-2.64,4.57-6.54,4.57C482.81,37.44,479.84,35.07,479.84,30.85Zm9.26-1.63c-.07-1.56-.84-2.42-2.27-2.42a2.46,2.46,0,0,0-2.47,2.42Z" fill="#fff"/><path d="M494.93,24.23h4.42V26.8a4.06,4.06,0,0,1,4.17-2.74v4.12c-2.69-.07-4.17.77-4.17,2.84v6.12h-4.42Z" fill="#fff"/><path d="M505.92,33V27.24h-1.56v-3h1.56V21.54h4.42v2.69h2.54v3h-2.54v5.34a1.18,1.18,0,0,0,1.31,1.35,3.37,3.37,0,0,0,1.26-.22v3.36a9.24,9.24,0,0,1-2.45.37C507.55,37.44,505.92,36,505.92,33Z" fill="#fff"/><path d="M519.65,33V27.24h-1.56v-3h1.56V21.54h4.42v2.69h2.54v3h-2.54v5.34a1.18,1.18,0,0,0,1.31,1.35,3.28,3.28,0,0,0,1.25-.22v3.36a9.09,9.09,0,0,1-2.44.37C521.28,37.44,519.65,36,519.65,33Z" fill="#fff"/><path d="M527.6,33.56c0-3,2.57-4.22,6.86-4.22h1.24V29c0-1.23-.3-2-1.71-2a1.59,1.59,0,0,0-1.75,1.53h-4.15c.2-3.11,2.65-4.64,6.18-4.64s5.82,1.45,5.82,4.88v8.37H535.8v-1.5a4.25,4.25,0,0,1-3.83,1.8C529.65,37.44,527.6,36.3,527.6,33.56Zm8.1-.93v-.8h-1.16c-1.78,0-2.57.35-2.57,1.41,0,.74.49,1.21,1.53,1.21C534.76,34.45,535.7,33.74,535.7,32.63Z" fill="#fff"/><path d="M545.5,30.58l-4-6.35h5.08l2,3.41,2-3.41h4.55l-4.08,6,4.47,6.91h-5.08l-2.3-3.85-2.35,3.85h-4.51Z" fill="#fff"/><path d="M117.31,53h4.42V55a4.56,4.56,0,0,1,4-2.27c3,0,5.46,2.27,5.46,6.69v.2c0,4.45-2.45,6.67-5.48,6.67a4.27,4.27,0,0,1-4-2.2v6.22h-4.42Zm9.4,6.54v-.2c0-2.27-1-3.35-2.54-3.35s-2.57,1.16-2.57,3.33v.2c0,2.19,1,3.31,2.57,3.31S126.71,61.71,126.71,59.58Z" fill="#fff"/><path d="M132.82,53h4.41v2.57a4.07,4.07,0,0,1,4.18-2.74V57c-2.69-.07-4.18.76-4.18,2.84V66h-4.41Z" fill="#fff"/><path d="M142.2,59.66v-.2c0-4.15,3.09-6.77,7-6.77,3.53,0,6.56,2,6.56,6.67v1.16h-9.08a2.58,2.58,0,0,0,2.69,2.69c1.46,0,2.07-.67,2.25-1.53h4.14c-.39,2.91-2.64,4.57-6.54,4.57C145.16,66.25,142.2,63.88,142.2,59.66ZM151.46,58c-.08-1.56-.84-2.42-2.27-2.42A2.45,2.45,0,0,0,146.72,58Z" fill="#fff"/><path d="M157.29,53h4.42V55a4.56,4.56,0,0,1,4-2.27c3,0,5.46,2.27,5.46,6.69v.2c0,4.45-2.45,6.67-5.48,6.67a4.26,4.26,0,0,1-4-2.2v6.22h-4.42Zm9.4,6.54v-.2c0-2.27-1-3.35-2.54-3.35s-2.57,1.16-2.57,3.33v.2c0,2.19,1,3.31,2.57,3.31S166.69,61.71,166.69,59.58Z" fill="#fff"/><path d="M178,56.05h-1.63V53H178V51.9c0-3.21,2-4.74,5.06-4.74a8.25,8.25,0,0,1,2,.27v3.24a4,4,0,0,0-1.21-.17,1.29,1.29,0,0,0-1.48,1.4V53H185v3h-2.62V66H178Z" fill="#fff"/><path d="M186.45,53h4.42v2.57A4.05,4.05,0,0,1,195,52.87V57c-2.69-.07-4.17.76-4.17,2.84V66h-4.42Z" fill="#fff"/><path d="M195.83,59.66v-.2c0-4.15,3.09-6.77,7.09-6.77s7,2.55,7,6.64v.2c0,4.2-3.08,6.72-7.06,6.72S195.83,63.83,195.83,59.66Zm9.63-.08v-.2c0-2.17-.86-3.38-2.54-3.38s-2.57,1.16-2.57,3.33v.2c0,2.22.86,3.43,2.57,3.43S205.46,61.73,205.46,59.58Z" fill="#fff"/><path d="M211.51,53h4.42v2a4.52,4.52,0,0,1,4-2.32,3.5,3.5,0,0,1,3.5,2.15,5.14,5.14,0,0,1,4.28-2.15c2.44,0,4.22,1.58,4.22,4.82V66h-4.42v-7.7c0-1.31-.64-2-1.66-2a1.91,1.91,0,0,0-2,2.17V66h-4.37v-7.7c0-1.31-.64-2-1.65-2a1.91,1.91,0,0,0-2,2.17V66h-4.42Z" fill="#fff"/><path d="M238.62,47.36H243v7.75a4.57,4.57,0,0,1,4.25-2.42c2.49,0,4.22,1.56,4.22,4.87V66h-4.42v-7.5c0-1.46-.57-2.18-1.85-2.18s-2.2.79-2.2,2.45V66h-4.42Z" fill="#fff"/><path d="M253,59.66v-.2c0-4.15,3.09-6.77,7.09-6.77s7,2.55,7,6.64v.2c0,4.2-3.08,6.72-7.06,6.72S253,63.83,253,59.66Zm9.63-.08v-.2c0-2.17-.87-3.38-2.54-3.38s-2.57,1.16-2.57,3.33v.2c0,2.22.86,3.43,2.57,3.43S262.6,61.73,262.6,59.58Z" fill="#fff"/><path d="M268.65,53h4.42v2a4.52,4.52,0,0,1,4.05-2.32,3.5,3.5,0,0,1,3.5,2.15,5.12,5.12,0,0,1,4.28-2.15c2.44,0,4.22,1.58,4.22,4.82V66H284.7v-7.7c0-1.31-.64-2-1.66-2a1.91,1.91,0,0,0-2,2.17V66H276.7v-7.7c0-1.31-.64-2-1.66-2a1.91,1.91,0,0,0-2,2.17V66h-4.42Z" fill="#fff"/><path d="M290.58,59.66v-.2c0-4.15,3.08-6.77,7-6.77,3.54,0,6.57,2,6.57,6.67v1.16h-9.08a2.58,2.58,0,0,0,2.69,2.69c1.45,0,2.07-.67,2.24-1.53h4.15c-.39,2.91-2.64,4.57-6.54,4.57S290.58,63.88,290.58,59.66ZM299.84,58c-.08-1.56-.84-2.42-2.28-2.42A2.45,2.45,0,0,0,295.1,58Z" fill="#fff"/><path d="M309.07,53h4.62l1.87,7.73L317.74,53h3.55l1.93,7.73,2.1-7.73h4.19L325.42,66h-4.23l-1.92-7.21-2,7.21H313Z" fill="#fff"/><path d="M330.55,49.53A2.44,2.44,0,1,1,333,51.8,2.3,2.3,0,0,1,330.55,49.53Zm.23,3.51h4.42V66h-4.42Z" fill="#fff"/><path d="M338.16,61.8V56.05H336.6V53h1.56V50.35h4.42V53h2.54v3h-2.54v5.33c0,.94.47,1.36,1.31,1.36a3.37,3.37,0,0,0,1.26-.22v3.36a9.24,9.24,0,0,1-2.45.37C339.79,66.25,338.16,64.84,338.16,61.8Z" fill="#fff"/><path d="M346.8,47.36h4.42v7.75a4.57,4.57,0,0,1,4.25-2.42c2.49,0,4.22,1.56,4.22,4.87V66h-4.42v-7.5c0-1.46-.57-2.18-1.85-2.18s-2.2.79-2.2,2.45V66H346.8Z" fill="#fff"/><path d="M370.11,52.2h-4.57V48.3h14.22v3.9H375.2V66h-5.09Z" fill="#fff"/><path d="M378.88,62.37c0-3,2.57-4.22,6.86-4.22H387v-.3c0-1.23-.3-2.05-1.71-2.05a1.59,1.59,0,0,0-1.75,1.53h-4.15c.2-3.11,2.64-4.64,6.17-4.64s5.83,1.46,5.83,4.89V66h-4.3v-1.5a4.24,4.24,0,0,1-3.82,1.8C380.93,66.25,378.88,65.11,378.88,62.37Zm8.1-.94v-.79h-1.17c-1.77,0-2.56.35-2.56,1.41,0,.74.49,1.21,1.53,1.21A2,2,0,0,0,387,61.43Z" fill="#fff"/><path d="M396.78,59.38l-4-6.34h5.09l2,3.41,2-3.41h4.54l-4.07,6L406.73,66h-5.09l-2.29-3.85L397,66h-4.52Z" fill="#fff"/><path d="M412.85,48.3h6.72c4.84,0,7.09,2.15,7.09,5.9v.1c0,3.7-2.5,5.7-6.87,5.7h-1.9v6h-5Zm6.5,8.24c1.63,0,2.49-.76,2.49-2.22v-.1c0-1.5-.89-2.12-2.47-2.12h-1.48v4.44Z" fill="#fff"/><path d="M428.19,53h4.42v2.57a4.05,4.05,0,0,1,4.17-2.74V57c-2.69-.07-4.17.76-4.17,2.84V66h-4.42Z" fill="#fff"/><path d="M437.57,59.66v-.2c0-4.15,3.09-6.77,7.09-6.77s7,2.55,7,6.64v.2c0,4.2-3.08,6.72-7.06,6.72S437.57,63.83,437.57,59.66Zm9.63-.08v-.2c0-2.17-.86-3.38-2.54-3.38s-2.57,1.16-2.57,3.33v.2c0,2.22.86,3.43,2.57,3.43S447.2,61.73,447.2,59.58Z" fill="#fff"/><path d="M457.2,57.24V57c0-5.38,3.95-9,9.26-9,4.17,0,7.88,1.9,8.22,6.49h-5c-.25-1.65-1.31-2.52-3.19-2.52-2.49,0-4,1.93-4,5.11v.2c0,2.86,1.06,5.09,4.12,5.09,2.47,0,3.41-1.26,3.5-2.67h-3.3V56.2h8.29v2.17c0,4.5-2.94,7.88-8.64,7.88C460.46,66.25,457.2,62.52,457.2,57.24Z" fill="#fff"/><path d="M476.12,59.66v-.2c0-4.15,3.08-6.77,7.08-6.77s7,2.55,7,6.64v.2c0,4.2-3.09,6.72-7.06,6.72S476.12,63.83,476.12,59.66Zm9.63-.08v-.2c0-2.17-.87-3.38-2.55-3.38s-2.57,1.16-2.57,3.33v.2c0,2.22.87,3.43,2.57,3.43S485.75,61.73,485.75,59.58Z" fill="#fff"/><path d="M491.08,63.73a2.46,2.46,0,0,1,2.52-2.49,2.49,2.49,0,1,1,0,5A2.46,2.46,0,0,1,491.08,63.73Z" fill="#fff"/><rect width="728" height="90" fill="none"/></g></g></g></g></svg>