<svg xmlns="http://www.w3.org/2000/svg" viewBox="0 0 300 600"><title>H45</title><g id="Layer_2" data-name="Layer 2"><g id="Rect"><rect width="300" height="600" fill="none"/></g><g id="H45"><g id="Totally_transparent_pricing." data-name="Totally transparent pricing."><path d="M28.16,183.29H19.93v-7H45.55v7H37.33v24.79H28.16Z" fill="#fff"/><path d="M43.6,196.73v-.35c0-7.48,5.56-12.19,12.77-12.19S69,188.77,69,196.15v.36c0,7.56-5.56,12.1-12.72,12.1S43.6,204.25,43.6,196.73ZM61,196.6v-.36c0-3.91-1.56-6.09-4.58-6.09s-4.63,2.09-4.63,6v.36c0,4,1.56,6.18,4.63,6.18S61,200.47,61,196.6Z" fill="#fff"/><path d="M72.92,200.6V190.24H70.11v-5.43h2.81V180h8v4.85h4.58v5.43H80.88v9.61a2.12,2.12,0,0,0,2.36,2.44,6,6,0,0,0,2.26-.4V208a17,17,0,0,1-4.4.66C75.85,208.61,72.92,206.08,72.92,200.6Z" fill="#fff"/><path d="M87.24,201.63c0-5.48,4.63-7.61,12.37-7.61h2.22v-.54c0-2.22-.53-3.69-3.07-3.69a2.86,2.86,0,0,0-3.16,2.76H88.13c.36-5.61,4.76-8.36,11.12-8.36s10.5,2.62,10.5,8.81v15.08H102v-2.72c-1.11,1.7-3.16,3.25-6.9,3.25C90.93,208.61,87.24,206.57,87.24,201.63Zm14.59-1.69v-1.43H99.74c-3.2,0-4.63.63-4.63,2.54,0,1.33.89,2.18,2.76,2.18C100.14,203.23,101.83,201.94,101.83,199.94Z" fill="#fff"/><path d="M113.84,174.57h7.92v33.51h-7.92Z" fill="#fff"/><path d="M126.25,174.57h7.92v33.51h-7.92Z" fill="#fff"/><path d="M145.74,205.72l-9.3-20.91h8.63l4.8,12.41,4.45-12.41h7.61l-12.46,31.06h-7.6Z" fill="#fff"/><path d="M22.42,247.1V236.74h-2.8v-5.43h2.8v-4.85h8v4.85H35v5.43H30.39v9.61c0,1.69.84,2.44,2.35,2.44a6,6,0,0,0,2.27-.4v6.06a17,17,0,0,1-4.4.66C25.36,255.11,22.42,252.58,22.42,247.1Z" fill="#fff"/><path d="M38,231.31h8v4.63A7.3,7.3,0,0,1,53.47,231v7.43c-4.85-.14-7.51,1.38-7.51,5.11v11H38Z" fill="#fff"/><path d="M54.5,248.13c0-5.48,4.62-7.61,12.36-7.61h2.23V240c0-2.22-.54-3.69-3.07-3.69a2.86,2.86,0,0,0-3.16,2.76H55.39c.35-5.61,4.76-8.36,11.12-8.36S77,233.31,77,239.5v15.08H69.27v-2.72c-1.12,1.7-3.16,3.25-6.9,3.25C58.19,255.11,54.5,253.07,54.5,248.13Zm14.59-1.69V245H67c-3.2,0-4.63.63-4.63,2.54,0,1.33.89,2.18,2.76,2.18C67.4,249.73,69.09,248.44,69.09,246.44Z" fill="#fff"/><path d="M80.88,231.31h8v3.74a8.2,8.2,0,0,1,7.65-4.36c4.49,0,7.61,2.8,7.61,8.76v15.13h-8V241.05c0-2.62-1-3.91-3.33-3.91s-4,1.42-4,4.4v13h-8Z" fill="#fff"/><path d="M106.41,247.19h7.34c.27,1.69,1,2.63,3.29,2.63,2,0,2.85-.76,2.85-1.92s-1.11-1.64-4.31-2.09c-6.23-.8-8.86-2.62-8.86-7.47,0-5.16,4.59-7.65,10-7.65,5.74,0,9.74,1.95,10.27,7.51h-7.2c-.31-1.55-1.16-2.31-3-2.31s-2.63.76-2.63,1.83,1.07,1.55,3.92,1.91c6.45.8,9.56,2.49,9.56,7.47,0,5.52-4.09,8-10.54,8C110.46,255.11,106.59,252.35,106.41,247.19Z" fill="#fff"/><path d="M130.21,231.31h8v3.47a8.21,8.21,0,0,1,7.25-4.09c5.43,0,9.83,4.09,9.83,12.05v.36c0,8-4.4,12-9.87,12-3.51,0-6-1.64-7.21-4v11.22h-8Zm16.95,11.79v-.36c0-4.09-1.78-6.05-4.58-6.05s-4.63,2.09-4.63,6v.35c0,4,1.74,6,4.63,6S147.16,246.93,147.16,243.1Z" fill="#fff"/><path d="M156.82,248.13c0-5.48,4.62-7.61,12.36-7.61h2.22V240c0-2.22-.53-3.69-3.07-3.69a2.86,2.86,0,0,0-3.15,2.76h-7.47c.35-5.61,4.75-8.36,11.11-8.36s10.5,2.62,10.5,8.81v15.08h-7.74v-2.72c-1.11,1.7-3.16,3.25-6.89,3.25C160.51,255.11,156.82,253.07,156.82,248.13Zm14.58-1.69V245h-2.09c-3.2,0-4.62.63-4.62,2.54,0,1.33.89,2.18,2.76,2.18C169.71,249.73,171.4,248.44,171.4,246.44Z" fill="#fff"/><path d="M183.19,231.31h8v4.63a7.3,7.3,0,0,1,7.51-4.94v7.43c-4.84-.14-7.51,1.38-7.51,5.11v11h-8Z" fill="#fff"/><path d="M200.1,243.23v-.35c0-7.48,5.56-12.19,12.59-12.19,6.36,0,11.83,3.64,11.83,12v2.09H208.15c.22,3.07,2,4.85,4.85,4.85,2.62,0,3.73-1.2,4.05-2.76h7.47c-.71,5.25-4.76,8.23-11.79,8.23C205.44,255.11,200.1,250.84,200.1,243.23Zm16.68-2.93c-.13-2.81-1.51-4.36-4.09-4.36-2.4,0-4.05,1.55-4.45,4.36Z" fill="#fff"/><path d="M227.28,231.31h8v3.74a8.2,8.2,0,0,1,7.65-4.36c4.49,0,7.61,2.8,7.61,8.76v15.13h-8V241.05c0-2.62-1-3.91-3.34-3.91s-4,1.42-4,4.4v13h-8Z" fill="#fff"/><path d="M255.44,247.1V236.74h-2.8v-5.43h2.8v-4.85h8v4.85H268v5.43H263.4v9.61a2.12,2.12,0,0,0,2.36,2.44,6,6,0,0,0,2.27-.4v6.06a17.14,17.14,0,0,1-4.41.66C258.37,255.11,255.44,252.58,255.44,247.1Z" fill="#fff"/><path d="M21.36,277.81h8v3.47a8.2,8.2,0,0,1,7.25-4.1c5.43,0,9.83,4.1,9.83,12.06v.36c0,8-4.4,12-9.88,12-3.51,0-6-1.64-7.2-4v11.21h-8ZM38.3,289.6v-.36c0-4.09-1.78-6.05-4.58-6.05s-4.62,2.09-4.62,6v.35c0,4,1.73,6,4.62,6S38.3,293.42,38.3,289.6Z" fill="#fff"/><path d="M49.29,277.81h8v4.63a7.3,7.3,0,0,1,7.51-4.94v7.43c-4.85-.14-7.51,1.38-7.51,5.11v11h-8Z" fill="#fff"/><path d="M67.49,271.49a4.39,4.39,0,1,1,4.36,4.09A4.16,4.16,0,0,1,67.49,271.49Zm.4,6.32h8v23.27h-8Z" fill="#fff"/><path d="M78.88,289.73v-.35c0-7.75,5.56-12.2,12.41-12.2,5.69,0,10.94,2.5,11.38,9.57H95.2c-.36-2.18-1.42-3.38-3.74-3.38-2.8,0-4.44,2-4.44,5.92v.35c0,4.05,1.55,6.14,4.58,6.14,2.22,0,3.78-1.33,4.05-3.87h7.16c-.23,5.88-4.18,9.7-11.7,9.7C84.17,301.61,78.88,297.56,78.88,289.73Z" fill="#fff"/><path d="M105.21,271.49a4.39,4.39,0,1,1,4.36,4.09A4.16,4.16,0,0,1,105.21,271.49Zm.4,6.32h8v23.27h-8Z" fill="#fff"/><path d="M117.85,277.81h8v3.73a8.21,8.21,0,0,1,7.65-4.36c4.49,0,7.6,2.81,7.6,8.77v15.13h-8V287.55c0-2.62-1-3.91-3.33-3.91s-4,1.42-4,4.4v13h-8Z" fill="#fff"/><path d="M143.65,301.08h7.91c.36,1.69,1.38,3,4.27,3,3.52,0,4.94-2,4.94-4.89v-3.56a8.15,8.15,0,0,1-7.2,4.27c-5.43,0-9.88-4-9.88-11.17v-.35c0-6.86,4.41-11.22,9.88-11.22,3.69,0,5.87,1.56,7.2,3.92v-3.29h8v21.31c0,6.94-4.58,10.59-12.9,10.59C147.92,309.71,144.27,306.37,143.65,301.08ZM161,288.71v-.31c0-3.21-1.64-5.25-4.58-5.25s-4.58,2.09-4.58,5.29v.36c0,3.2,1.69,5.25,4.54,5.25S161,292,161,288.71Z" fill="#fff"/><path d="M172.47,297.07a4.44,4.44,0,0,1,4.54-4.49,4.5,4.5,0,1,1,0,9A4.44,4.44,0,0,1,172.47,297.07Z" fill="#fff"/></g></g></g></svg>