<svg xmlns="http://www.w3.org/2000/svg" viewBox="0 0 600 1200"><title>H2</title><g id="Layer_2" data-name="Layer 2"><g id="Rectangle_2" data-name="Rectangle 2" style="isolation:isolate"><g id="Rectangle_2-2" data-name="Rectangle 2"><rect width="600" height="1200" fill="none"/></g></g><g id="Image_19" data-name="Image 19"><g id="Totally_transparent_pricing." data-name="Totally transparent pricing."><path d="M56.33,366.58H39.87V352.52H91.12v14.06H74.66v49.58H56.33Z" fill="#fff"/><path d="M87.2,393.46v-.71c0-14.95,11.12-24.39,25.54-24.39s25.35,9.17,25.35,23.94V393c0,15.13-11.12,24.21-25.44,24.21S87.2,408.5,87.2,393.46Zm34.7-.27v-.71c0-7.83-3.11-12.19-9.16-12.19s-9.26,4.18-9.26,12V393c0,8,3.12,12.37,9.26,12.37C118.7,405.39,121.9,400.94,121.9,393.19Z" fill="#fff"/><path d="M145.83,401.2V380.47h-5.6V369.61h5.6v-9.7h15.93v9.7h9.16v10.86h-9.16v19.22c0,3.38,1.69,4.9,4.72,4.9a12.19,12.19,0,0,0,4.53-.8v12.1a33.49,33.49,0,0,1-8.81,1.34C151.71,417.23,145.83,412.15,145.83,401.2Z" fill="#fff"/><path d="M174.48,403.25c0-10.95,9.25-15.22,24.74-15.22h4.44V387c0-4.45-1.06-7.38-6.13-7.38-4.36,0-6,2.58-6.32,5.51h-15c.71-11.21,9.52-16.73,22.24-16.73s21,5.25,21,17.62v30.18H204v-5.43c-2.22,3.38-6.32,6.5-13.79,6.5C181.87,417.23,174.48,413.13,174.48,403.25Zm29.18-3.38V397h-4.18c-6.4,0-9.25,1.25-9.25,5.07,0,2.67,1.78,4.37,5.52,4.37C200.28,406.46,203.66,403.87,203.66,399.87Z" fill="#fff"/><path d="M227.69,349.14h15.83v67H227.69Z" fill="#fff"/><path d="M252.51,349.14h15.83v67H252.51Z" fill="#fff"/><path d="M291.48,411.44l-18.6-41.83h17.26l9.61,24.83,8.9-24.83h15.21L299,431.73H283.74Z" fill="#fff"/><path d="M44.85,494.2V473.47h-5.6V462.61h5.6v-9.7H60.78v9.7h9.16v10.86H60.78v19.22c0,3.38,1.69,4.9,4.71,4.9a12.21,12.21,0,0,0,4.54-.8v12.1a33.56,33.56,0,0,1-8.81,1.34C50.72,510.23,44.85,505.15,44.85,494.2Z" fill="#fff"/><path d="M76,462.61H91.92v9.25c2.93-6.94,7.83-10,15-9.88v14.87c-9.69-.27-15,2.76-15,10.23v22.08H76Z" fill="#fff"/><path d="M109,496.25c0-10.95,9.25-15.22,24.73-15.22h4.45V480c0-4.45-1.07-7.38-6.14-7.38-4.36,0-6,2.58-6.31,5.51h-15c.71-11.21,9.52-16.73,22.24-16.73s21,5.25,21,17.62v30.18H138.54v-5.43c-2.23,3.38-6.32,6.5-13.79,6.5C116.38,510.23,109,506.13,109,496.25Zm29.18-3.38V490H134c-6.41,0-9.25,1.25-9.25,5.07,0,2.67,1.78,4.37,5.51,4.37C134.8,499.46,138.18,496.87,138.18,492.87Z" fill="#fff"/><path d="M161.76,462.61h15.92v7.47c2.5-4.8,7.57-8.72,15.31-8.72,9,0,15.21,5.61,15.21,17.54v30.26H192.28V482.1c0-5.25-2.05-7.83-6.68-7.83s-7.92,2.85-7.92,8.81v26.08H161.76Z" fill="#fff"/><path d="M212.83,494.38h14.68c.53,3.38,2,5.25,6.58,5.25,3.92,0,5.7-1.51,5.7-3.82s-2.23-3.3-8.63-4.19c-12.46-1.6-17.71-5.25-17.71-14.95,0-10.32,9.16-15.31,19.93-15.31,11.48,0,19.48,3.92,20.55,15H239.52c-.62-3.11-2.31-4.62-6-4.62-3.47,0-5.25,1.51-5.25,3.64s2.13,3.12,7.83,3.83c12.9,1.6,19.13,5,19.13,14.95,0,11-8.19,16-21.09,16C220.92,510.23,213.18,504.71,212.83,494.38Z" fill="#fff"/><path d="M260.43,462.61h15.92v6.94a16.43,16.43,0,0,1,14.51-8.19c10.85,0,19.66,8.19,19.66,24.12v.71c0,16-8.81,24-19.75,24-7,0-12.1-3.3-14.42-7.93v22.43H260.43Zm33.9,23.58v-.71c0-8.19-3.56-12.1-9.17-12.1-5.78,0-9.25,4.18-9.25,12v.71c0,7.93,3.47,11.93,9.25,11.93C291.12,498,294.33,493.85,294.33,486.19Z" fill="#fff"/><path d="M313.63,496.25c0-10.95,9.25-15.22,24.73-15.22h4.45V480c0-4.45-1.06-7.38-6.14-7.38-4.36,0-6,2.58-6.31,5.51H315.41c.71-11.21,9.52-16.73,22.24-16.73s21,5.25,21,17.62v30.18H343.17v-5.43c-2.23,3.38-6.32,6.5-13.79,6.5C321,510.23,313.63,506.13,313.63,496.25Zm29.18-3.38V490h-4.18c-6.41,0-9.25,1.25-9.25,5.07,0,2.67,1.78,4.37,5.51,4.37C339.43,499.46,342.81,496.87,342.81,492.87Z" fill="#fff"/><path d="M366.39,462.61h15.93v9.25c2.93-6.94,7.83-10,15-9.88v14.87c-9.7-.27-15,2.76-15,10.23v22.08H366.39Z" fill="#fff"/><path d="M400.2,486.46v-.71c0-14.95,11.12-24.39,25.18-24.39,12.72,0,23.67,7.3,23.67,24v4.19H416.3c.45,6.14,4,9.7,9.7,9.7,5.25,0,7.48-2.41,8.1-5.52h14.95c-1.43,10.5-9.52,16.47-23.58,16.47C410.88,510.23,400.2,501.68,400.2,486.46Zm33.36-5.87c-.26-5.61-3-8.73-8.18-8.73-4.81,0-8.1,3.12-8.9,8.73Z" fill="#fff"/><path d="M454.56,462.61h15.93v7.47c2.49-4.8,7.56-8.72,15.3-8.72,9,0,15.21,5.61,15.21,17.54v30.26H485.08V482.1c0-5.25-2.05-7.83-6.67-7.83s-7.92,2.85-7.92,8.81v26.08H454.56Z" fill="#fff"/><path d="M510.88,494.2V473.47h-5.61V462.61h5.61v-9.7H526.8v9.7H536v10.86H526.8v19.22c0,3.38,1.7,4.9,4.72,4.9a12.25,12.25,0,0,0,4.54-.8v12.1a33.56,33.56,0,0,1-8.81,1.34C516.75,510.23,510.88,505.15,510.88,494.2Z" fill="#fff"/><path d="M42.72,555.61H58.64v6.94a16.43,16.43,0,0,1,14.5-8.19c10.86,0,19.67,8.19,19.67,24.12v.71c0,16-8.81,24-19.75,24-7,0-12.1-3.3-14.42-7.93v22.43H42.72Zm33.89,23.58v-.71c0-8.19-3.55-12.1-9.16-12.1-5.78,0-9.25,4.18-9.25,12v.71C58.2,587,61.67,591,67.45,591,73.41,591,76.61,586.85,76.61,579.19Z" fill="#fff"/><path d="M98.59,555.61h15.93v9.25c2.93-6.94,7.83-10,15-9.88v14.87c-9.7-.27-15,2.76-15,10.23v22.08H98.59Z" fill="#fff"/><path d="M135,543c0-4.72,3.73-8.28,8.72-8.28s8.81,3.56,8.81,8.28-3.83,8.19-8.81,8.19S135,547.69,135,543Zm.8,12.64h15.93v46.55H135.78Z" fill="#fff"/><path d="M157.75,579.46v-.71c0-15.49,11.13-24.39,24.83-24.39,11.39,0,21.89,5,22.78,19.14h-15c-.71-4.36-2.85-6.77-7.48-6.77-5.6,0-8.89,4-8.89,11.84v.71c0,8.1,3.11,12.29,9.16,12.29,4.45,0,7.56-2.67,8.1-7.75h14.32c-.44,11.75-8.36,19.41-23.4,19.41C168.34,603.23,157.75,595.13,157.75,579.46Z" fill="#fff"/><path d="M210.42,543c0-4.72,3.74-8.28,8.72-8.28S228,538.25,228,543s-3.82,8.19-8.81,8.19S210.42,547.69,210.42,543Zm.81,12.64h15.92v46.55H211.23Z" fill="#fff"/><path d="M235.69,555.61h15.93v7.47c2.49-4.8,7.56-8.72,15.3-8.72,9,0,15.22,5.61,15.22,17.54v30.26H266.21V575.1c0-5.25-2-7.83-6.67-7.83s-7.92,2.85-7.92,8.81v26.08H235.69Z" fill="#fff"/><path d="M287.3,602.16h15.83c.71,3.38,2.76,6.05,8.54,6.05,7,0,9.88-4,9.88-9.79V591.3a16.31,16.31,0,0,1-14.41,8.54c-10.86,0-19.76-8-19.76-22.34v-.71c0-13.71,8.81-22.43,19.76-22.43,7.38,0,11.74,3.12,14.41,7.83v-6.58h15.93v42.63c0,13.89-9.17,21.18-25.81,21.18C295.84,619.42,288.54,612.75,287.3,602.16ZM322,577.41v-.62c0-6.41-3.3-10.5-9.17-10.5s-9.16,4.18-9.16,10.59v.71c0,6.41,3.38,10.5,9.07,10.5S322,584,322,577.41Z" fill="#fff"/><path d="M345,594.15a8.87,8.87,0,0,1,9.07-9,9,9,0,1,1,0,18A8.87,8.87,0,0,1,345,594.15Z" fill="#fff"/></g></g></g></svg>