<svg xmlns="http://www.w3.org/2000/svg" viewBox="0 0 300 600"><title>Asset 22</title><g id="Layer_2" data-name="Layer 2"><g id="Rect"><rect width="300" height="600" fill="none"/></g><g id="Avoid_guessing_games._Know_the_price_before_you_begin." data-name="Avoid guessing games. Know the price before you begin."><path d="M31.75,59.27h14L57.68,97H46.25l-2-7H31.75l-2,7H19.69Zm2.11,23.24h8.28L38,68Z" fill="#fff"/><path d="M55.1,69.39H65.17l5.74,17.76,5.64-17.76h9L75.5,97H65.22Z" fill="#fff"/><path d="M85,83.51v-.42c0-8.86,6.59-14.44,15.13-14.44s15,5.43,15,14.18v.42c0,9-6.59,14.33-15.08,14.33S85,92.42,85,83.51Zm20.55-.16v-.42c0-4.64-1.84-7.22-5.42-7.22s-5.49,2.48-5.49,7.12v.42c0,4.74,1.85,7.32,5.49,7.32S105.53,87.94,105.53,83.35Z" fill="#fff"/><path d="M118.23,61.9a5.21,5.21,0,1,1,5.17,4.85A4.93,4.93,0,0,1,118.23,61.9Zm.48,7.49h9.43V97h-9.43Z" fill="#fff"/><path d="M131.83,83.46V83c0-9.38,5.16-14.39,11.7-14.39,4.32,0,6.9,1.84,8.49,4.64v-16h9.43V97H152V92.47a9.29,9.29,0,0,1-8.6,5.11C137.05,97.58,131.83,93,131.83,83.46Zm20.45-.16v-.42c0-4.64-1.95-7.12-5.43-7.12s-5.43,2.37-5.43,7.17v.42c0,4.64,2.06,7,5.33,7S152.28,88,152.28,83.3Z" fill="#fff"/><path d="M20.26,151.65h9.39c.42,2,1.63,3.58,5.06,3.58,4.16,0,5.85-2.37,5.85-5.79v-4.22A9.67,9.67,0,0,1,32,150.28c-6.43,0-11.7-4.74-11.7-13.23v-.42c0-8.12,5.22-13.28,11.7-13.28,4.37,0,6.95,1.84,8.54,4.64v-3.9H50v25.24c0,8.22-5.43,12.54-15.28,12.54C25.32,161.87,21,157.92,20.26,151.65ZM40.82,137v-.37c0-3.8-2-6.22-5.43-6.22S30,132.89,30,136.68v.42c0,3.8,2,6.22,5.38,6.22S40.82,140.9,40.82,137Z" fill="#fff"/><path d="M54.57,142.06v-18H64v16.44c0,3.11,1.21,4.64,3.9,4.64,2.84,0,4.69-1.69,4.69-5.22V124.09H82v27.56H72.6v-4.27c-1.48,2.85-4.17,4.9-8.75,4.9C58.52,152.28,54.57,149,54.57,142.06Z" fill="#fff"/><path d="M85.35,138.21v-.42c0-8.85,6.59-14.44,14.91-14.44,7.54,0,14,4.32,14,14.23v2.48H94.89c.26,3.63,2.37,5.74,5.74,5.74,3.11,0,4.43-1.42,4.8-3.27h8.85c-.84,6.22-5.64,9.75-14,9.75C91.67,152.28,85.35,147.22,85.35,138.21Zm19.76-3.48c-.16-3.32-1.79-5.16-4.85-5.16-2.84,0-4.79,1.84-5.27,5.16Z" fill="#fff"/><path d="M116,142.9h8.69c.32,2,1.21,3.11,3.9,3.11,2.32,0,3.38-.9,3.38-2.27s-1.32-2-5.12-2.47c-7.38-1-10.49-3.11-10.49-8.86,0-6.11,5.43-9.06,11.81-9.06,6.8,0,11.54,2.32,12.17,8.91h-8.53c-.37-1.85-1.37-2.75-3.53-2.75s-3.11.9-3.11,2.17,1.26,1.84,4.63,2.26c7.65.95,11.34,2.95,11.34,8.86,0,6.53-4.85,9.48-12.5,9.48C120.76,152.28,116.18,149,116,142.9Z" fill="#fff"/><path d="M142.47,142.9h8.7c.32,2,1.21,3.11,3.9,3.11,2.32,0,3.37-.9,3.37-2.27s-1.32-2-5.11-2.47c-7.38-1-10.49-3.11-10.49-8.86,0-6.11,5.43-9.06,11.81-9.06,6.8,0,11.54,2.32,12.17,8.91h-8.54c-.36-1.85-1.37-2.75-3.53-2.75s-3.11.9-3.11,2.17,1.27,1.84,4.64,2.26c7.64.95,11.33,2.95,11.33,8.86,0,6.53-4.85,9.48-12.49,9.48C147.27,152.28,142.68,149,142.47,142.9Z" fill="#fff"/><path d="M170.46,116.6a4.92,4.92,0,0,1,5.16-4.9,4.89,4.89,0,1,1,0,9.75A4.88,4.88,0,0,1,170.46,116.6Zm.47,7.49h9.44v27.56h-9.44Z" fill="#fff"/><path d="M185.42,124.09h9.44v4.42a9.73,9.73,0,0,1,9.06-5.16c5.33,0,9,3.32,9,10.38v17.92H203.5v-16c0-3.11-1.21-4.64-3.95-4.64s-4.69,1.69-4.69,5.22v15.44h-9.44Z" fill="#fff"/><path d="M216,151.65h9.38c.42,2,1.63,3.58,5.06,3.58,4.16,0,5.85-2.37,5.85-5.79v-4.22a9.66,9.66,0,0,1-8.54,5.06c-6.43,0-11.7-4.74-11.7-13.23v-.42c0-8.12,5.22-13.28,11.7-13.28,4.38,0,7,1.84,8.54,4.64v-3.9h9.43v25.24c0,8.22-5.42,12.54-15.28,12.54C221.05,161.87,216.73,157.92,216,151.65ZM236.54,137v-.37c0-3.8-1.95-6.22-5.42-6.22s-5.43,2.48-5.43,6.27v.42c0,3.8,2,6.22,5.37,6.22S236.54,140.9,236.54,137Z" fill="#fff"/><path d="M20.26,206.35h9.39c.42,2,1.63,3.58,5.06,3.58,4.16,0,5.85-2.37,5.85-5.79v-4.22A9.67,9.67,0,0,1,32,205c-6.43,0-11.7-4.74-11.7-13.23v-.42c0-8.12,5.22-13.28,11.7-13.28,4.37,0,6.95,1.84,8.54,4.64v-3.9H50V204c0,8.22-5.43,12.54-15.28,12.54C25.32,216.57,21,212.62,20.26,206.35ZM40.82,191.7v-.37c0-3.79-2-6.22-5.43-6.22S30,187.59,30,191.38v.42c0,3.8,2,6.22,5.38,6.22S40.82,195.6,40.82,191.7Z" fill="#fff"/><path d="M53.2,198.71c0-6.48,5.48-9,14.65-9h2.64v-.64c0-2.63-.63-4.37-3.64-4.37A3.39,3.39,0,0,0,63.11,188H54.26c.42-6.64,5.64-9.91,13.17-9.91s12.44,3.11,12.44,10.43v17.87H70.7v-3.21c-1.32,2-3.74,3.84-8.17,3.84C57.58,207,53.2,204.56,53.2,198.71Zm17.29-2V195H68c-3.79,0-5.48.74-5.48,3,0,1.58,1,2.59,3.27,2.59C68.49,200.61,70.49,199.08,70.49,196.71Z" fill="#fff"/><path d="M84.45,178.79h9.44V183a9.63,9.63,0,0,1,8.64-4.95c3.64,0,6.17,1.58,7.48,4.58a11,11,0,0,1,9.12-4.58c5.22,0,9,3.37,9,10.28v18h-9.43V189.91c0-2.8-1.37-4.17-3.53-4.17-2.53,0-4.22,1.64-4.22,4.64v16h-9.33V189.91c0-2.8-1.37-4.17-3.53-4.17-2.53,0-4.21,1.64-4.21,4.64v16H84.45Z" fill="#fff"/><path d="M131.25,192.91v-.42c0-8.86,6.59-14.44,14.92-14.44,7.53,0,14,4.32,14,14.23v2.48H140.79c.26,3.63,2.37,5.74,5.74,5.74,3.11,0,4.43-1.42,4.8-3.27h8.85c-.84,6.22-5.64,9.75-14,9.75C137.57,207,131.25,201.92,131.25,192.91ZM151,189.43c-.15-3.32-1.79-5.16-4.84-5.16-2.85,0-4.8,1.84-5.28,5.16Z" fill="#fff"/><path d="M161.87,197.6h8.69c.32,2,1.22,3.11,3.9,3.11,2.32,0,3.38-.9,3.38-2.27s-1.32-1.95-5.12-2.47c-7.37-.95-10.48-3.11-10.48-8.86,0-6.11,5.43-9.06,11.8-9.06,6.8,0,11.54,2.32,12.18,8.91h-8.54c-.37-1.85-1.37-2.75-3.53-2.75s-3.11.9-3.11,2.17,1.26,1.84,4.64,2.26c7.64,1,11.33,3,11.33,8.86,0,6.53-4.85,9.48-12.49,9.48C166.66,207,162.08,203.71,161.87,197.6Z" fill="#fff"/><path d="M189.69,201.61a5.26,5.26,0,0,1,5.38-5.33,5.33,5.33,0,1,1,0,10.65A5.26,5.26,0,0,1,189.69,201.61Z" fill="#fff"/><path d="M22.64,223.37H33.49v14.91l11.33-14.91H56.1L42.29,240.86l14.55,20.19H44.35L33.49,245.29v15.76H22.64Z" fill="#fff"/><path d="M58.89,233.49h9.44v4.42a9.73,9.73,0,0,1,9.06-5.16c5.33,0,9,3.32,9,10.38v17.92H77V245c0-3.11-1.21-4.64-4-4.64s-4.69,1.69-4.69,5.22v15.44H58.89Z" fill="#fff"/><path d="M89.51,247.61v-.42c0-8.86,6.59-14.44,15.13-14.44s15,5.43,15,14.18v.42c0,9-6.59,14.33-15.07,14.33S89.51,256.52,89.51,247.61Zm20.56-.16V247c0-4.64-1.85-7.22-5.43-7.22s-5.48,2.48-5.48,7.12v.42c0,4.74,1.84,7.32,5.48,7.32S110.07,252,110.07,247.45Z" fill="#fff"/><path d="M119.76,233.49h9.86l4,16.49,4.64-16.49h7.59L150,250l4.48-16.49h9l-8.75,27.56h-9l-4.11-15.39-4.27,15.39h-9.17Z" fill="#fff"/><path d="M176.68,252.2V239.92h-3.32v-6.43h3.32v-5.75h9.43v5.75h5.43v6.43h-5.43V251.3c0,2,1,2.9,2.79,2.9a7.09,7.09,0,0,0,2.69-.48v7.17a19.58,19.58,0,0,1-5.21.79C180.16,261.68,176.68,258.68,176.68,252.2Z" fill="#fff"/><path d="M195.12,221.36h9.44v16.55a9.73,9.73,0,0,1,9.06-5.16c5.32,0,9,3.32,9,10.38v17.92H213.2V245c0-3.11-1.21-4.64-3.95-4.64s-4.69,1.69-4.69,5.22v15.44h-9.44Z" fill="#fff"/><path d="M225.74,247.61v-.42c0-8.86,6.59-14.44,14.92-14.44,7.53,0,14,4.32,14,14.23v2.48H235.28c.26,3.63,2.37,5.74,5.74,5.74,3.11,0,4.43-1.42,4.8-3.27h8.85c-.84,6.22-5.63,9.75-14,9.75C232.06,261.68,225.74,256.62,225.74,247.61Zm19.76-3.48c-.15-3.32-1.79-5.16-4.84-5.16-2.85,0-4.8,1.84-5.28,5.16Z" fill="#fff"/><path d="M21.79,288.19h9.44v4.11a9.71,9.71,0,0,1,8.59-4.85c6.43,0,11.65,4.85,11.65,14.28v.42c0,9.49-5.22,14.23-11.7,14.23-4.17,0-7.17-1.95-8.54-4.69V325H21.79Zm20.08,14v-.42c0-4.85-2.1-7.17-5.43-7.17S31,297,31,301.68v.42c0,4.69,2.06,7.06,5.48,7.06S41.87,306.69,41.87,302.15Z" fill="#fff"/><path d="M54.89,288.19h9.43v5.48c1.74-4.11,4.64-5.91,8.91-5.85v8.8c-5.75-.16-8.91,1.63-8.91,6.06v13.07H54.89Z" fill="#fff"/><path d="M76.44,280.7a5.21,5.21,0,1,1,5.17,4.85A4.93,4.93,0,0,1,76.44,280.7Zm.48,7.49h9.43v27.56H76.92Z" fill="#fff"/><path d="M89.93,302.31v-.42c0-9.17,6.59-14.44,14.71-14.44,6.74,0,13,2.95,13.49,11.33h-8.85c-.43-2.58-1.69-4-4.43-4-3.32,0-5.27,2.38-5.27,7v.43c0,4.79,1.84,7.27,5.43,7.27,2.63,0,4.48-1.58,4.79-4.59h8.49c-.27,7-5,11.49-13.86,11.49C96.21,316.38,89.93,311.59,89.93,302.31Z" fill="#fff"/><path d="M119.87,302.31v-.42c0-8.86,6.58-14.44,14.91-14.44,7.54,0,14,4.32,14,14.23v2.48H129.41c.26,3.63,2.37,5.74,5.74,5.74,3.11,0,4.43-1.42,4.8-3.27h8.85c-.84,6.22-5.64,9.75-14,9.75C126.19,316.38,119.87,311.32,119.87,302.31Zm19.76-3.48c-.16-3.32-1.79-5.16-4.85-5.16-2.84,0-4.79,1.84-5.27,5.16Z" fill="#fff"/><path d="M31.23,366.18v4.27H21.79V330.76h9.44V347a9.71,9.71,0,0,1,8.59-4.85c6.43,0,11.65,4.85,11.65,14.28v.42c0,9.49-5.22,14.23-11.7,14.23C35.65,371.08,32.6,369.13,31.23,366.18Zm10.64-9.33v-.42c0-4.85-2.1-7.17-5.43-7.17S31,351.74,31,356.38v.42c0,4.69,2.06,7.06,5.48,7.06S41.87,361.38,41.87,356.85Z" fill="#fff"/><path d="M53.41,357v-.42c0-8.86,6.59-14.44,14.92-14.44,7.53,0,14,4.32,14,14.23v2.48H63c.27,3.63,2.37,5.74,5.75,5.74,3.11,0,4.42-1.42,4.79-3.27h8.86c-.85,6.22-5.64,9.75-14,9.75C59.74,371.08,53.41,366,53.41,357Zm19.77-3.48c-.16-3.32-1.8-5.16-4.85-5.16-2.85,0-4.8,1.84-5.27,5.16Z" fill="#fff"/><path d="M87,349.32H83.56v-6.43H87v-2.43c0-6.85,4.26-10.12,10.8-10.12a17,17,0,0,1,4.32.58v6.91a8.66,8.66,0,0,0-2.58-.37c-2.21,0-3.16,1.21-3.16,3v2.43H102v6.43H96.42v21.13H87Z" fill="#fff"/><path d="M102.74,357v-.42c0-8.86,6.59-14.44,15.13-14.44s15,5.43,15,14.18v.42c0,9-6.59,14.33-15.08,14.33S102.74,365.92,102.74,357Zm20.55-.16v-.42c0-4.64-1.84-7.22-5.42-7.22s-5.49,2.48-5.49,7.12v.42c0,4.74,1.85,7.32,5.49,7.32S123.29,361.44,123.29,356.85Z" fill="#fff"/><path d="M136.2,342.89h9.44v5.48c1.74-4.11,4.64-5.91,8.9-5.85v8.8c-5.74-.16-8.9,1.63-8.9,6.06v13.07H136.2Z" fill="#fff"/><path d="M156.23,357v-.42c0-8.86,6.59-14.44,14.91-14.44,7.54,0,14,4.32,14,14.23v2.48H165.77c.26,3.63,2.37,5.74,5.74,5.74,3.11,0,4.43-1.42,4.8-3.27h8.85c-.84,6.22-5.64,9.75-14,9.75C162.55,371.08,156.23,366,156.23,357ZM176,353.53c-.15-3.32-1.79-5.16-4.85-5.16-2.84,0-4.79,1.84-5.27,5.16Z" fill="#fff"/><path d="M30.44,422.36l-11-24.77H29.65l5.69,14.7,5.27-14.7h9L34.86,434.37h-9Z" fill="#fff"/><path d="M49.09,411.71v-.42c0-8.86,6.59-14.44,15.13-14.44s15,5.43,15,14.18v.42c0,9-6.59,14.33-15.08,14.33S49.09,420.62,49.09,411.71Zm20.56-.16v-.42c0-4.64-1.85-7.22-5.43-7.22s-5.48,2.48-5.48,7.12v.42c0,4.74,1.84,7.32,5.48,7.32S69.65,416.14,69.65,411.55Z" fill="#fff"/><path d="M82.34,415.56v-18h9.44V414c0,3.11,1.21,4.64,3.9,4.64s4.69-1.69,4.69-5.22V397.59h9.43v27.56h-9.43v-4.27c-1.48,2.85-4.16,4.9-8.75,4.9C86.3,425.78,82.34,422.51,82.34,415.56Z" fill="#fff"/><path d="M133.62,420.88v4.27h-9.43V385.46h9.43V401.7a9.72,9.72,0,0,1,8.59-4.85c6.43,0,11.65,4.85,11.65,14.28v.42c0,9.49-5.22,14.23-11.7,14.23C138.05,425.78,135,423.83,133.62,420.88Zm10.65-9.33v-.42c0-4.85-2.11-7.17-5.43-7.17s-5.48,2.48-5.48,7.12v.42c0,4.69,2,7.06,5.48,7.06S144.27,416.08,144.27,411.55Z" fill="#fff"/><path d="M155.81,411.71v-.42c0-8.86,6.58-14.44,14.91-14.44,7.54,0,14,4.32,14,14.23v2.48H165.35c.26,3.63,2.37,5.74,5.74,5.74,3.11,0,4.43-1.42,4.8-3.27h8.85c-.84,6.22-5.64,9.75-14,9.75C162.13,425.78,155.81,420.72,155.81,411.71Zm19.76-3.48c-.16-3.32-1.79-5.16-4.85-5.16-2.84,0-4.79,1.84-5.27,5.16Z" fill="#fff"/><path d="M186.48,425.15h9.38c.42,2,1.63,3.58,5.06,3.58,4.16,0,5.85-2.37,5.85-5.79v-4.22a9.66,9.66,0,0,1-8.54,5.06c-6.43,0-11.7-4.74-11.7-13.23v-.42c0-8.12,5.22-13.28,11.7-13.28,4.38,0,7,1.84,8.54,4.64v-3.9h9.43v25.24c0,8.22-5.43,12.55-15.28,12.55C191.54,435.38,187.22,431.42,186.48,425.15ZM207,410.5v-.37c0-3.8-1.95-6.22-5.43-6.22s-5.43,2.48-5.43,6.27v.42c0,3.8,2,6.22,5.38,6.22S207,414.4,207,410.5Z" fill="#fff"/><path d="M220.79,390.1a4.92,4.92,0,0,1,5.16-4.9,4.89,4.89,0,1,1,0,9.75A4.88,4.88,0,0,1,220.79,390.1Zm.47,7.49h9.43v27.56h-9.43Z" fill="#fff"/><path d="M235.75,397.59h9.44V402a9.73,9.73,0,0,1,9.06-5.16c5.32,0,9,3.32,9,10.38v17.92h-9.43v-16c0-3.11-1.21-4.64-4-4.64s-4.69,1.69-4.69,5.22v15.44h-9.44Z" fill="#fff"/><path d="M267.48,420.41a5.26,5.26,0,0,1,5.37-5.33,5.33,5.33,0,1,1,0,10.65A5.25,5.25,0,0,1,267.48,420.41Z" fill="#fff"/></g></g></svg>