<svg xmlns="http://www.w3.org/2000/svg" viewBox="0 0 728 90"><title>H192</title><g id="Layer_2" data-name="Layer 2"><g id="Rect"><rect width="728" height="90" fill="none"/></g><g id="Drop_off_your_docs_and_go." data-name="Drop off your docs and go."><path d="M117.41,32.33h9.07c8.86,0,13.37,4.43,13.37,12.18v.28c0,7.78-4.61,12.49-13.4,12.49h-9Zm8.83,19.43c4.25,0,6.14-2.23,6.14-6.87v-.28c0-4.75-1.89-6.77-6.21-6.77H124.6V51.76Z" fill="#fff"/><path d="M142.26,39h6.24v3.63a5.75,5.75,0,0,1,5.9-3.88v5.83c-3.8-.1-5.9,1.08-5.9,4v8.66h-6.24Z" fill="#fff"/><path d="M155.52,48.38V48.1c0-5.86,4.36-9.56,10-9.56s9.95,3.59,9.95,9.39v.28c0,5.93-4.36,9.49-10,9.49S155.52,54.28,155.52,48.38Zm13.61-.1V48c0-3.08-1.23-4.79-3.6-4.79s-3.63,1.64-3.63,4.72v.28c0,3.14,1.22,4.85,3.63,4.85S169.13,51.31,169.13,48.28Z" fill="#fff"/><path d="M177.68,39h6.24v2.72a6.43,6.43,0,0,1,5.69-3.21c4.26,0,7.71,3.21,7.71,9.46v.28c0,6.28-3.45,9.42-7.74,9.42a6,6,0,0,1-5.66-3.11v8.8h-6.24ZM191,48.28V48c0-3.21-1.39-4.75-3.59-4.75s-3.63,1.64-3.63,4.71v.28c0,3.11,1.36,4.68,3.63,4.68S191,51.28,191,48.28Z" fill="#fff"/><path d="M205,48.38V48.1c0-5.86,4.36-9.56,10-9.56s10,3.59,10,9.39v.28c0,5.93-4.36,9.49-10,9.49S205,54.28,205,48.38Zm13.61-.1V48c0-3.08-1.23-4.79-3.6-4.79s-3.63,1.64-3.63,4.72v.28c0,3.14,1.22,4.85,3.63,4.85S218.58,51.31,218.58,48.28Z" fill="#fff"/><path d="M228.07,43.28h-2.3V39h2.3v-1.4c0-4.54,2.79-6.66,7.12-6.66a10.9,10.9,0,0,1,2.79.34v4.58a5.47,5.47,0,0,0-1.68-.25,1.83,1.83,0,0,0-2,2V39h5.3V37.42c0-4.53,2.87-6.7,7.16-6.7a11.1,11.1,0,0,1,2.86.39v4.57a5.68,5.68,0,0,0-1.71-.25,1.83,1.83,0,0,0-2.06,2V39h3.7v4.25h-3.7v14h-6.25v-14h-5.3v14h-6.21Z" fill="#fff"/><path d="M263.66,55.43,256.37,39h6.77l3.77,9.73L270.4,39h6L266.6,63.39h-6Z" fill="#fff"/><path d="M276,48.38V48.1c0-5.86,4.36-9.56,10-9.56s10,3.59,10,9.39v.28c0,5.93-4.36,9.49-10,9.49S276,54.28,276,48.38Zm13.61-.1V48c0-3.08-1.22-4.79-3.6-4.79s-3.63,1.64-3.63,4.72v.28c0,3.14,1.23,4.85,3.63,4.85S289.63,51.31,289.63,48.28Z" fill="#fff"/><path d="M298,50.93V39h6.25V49.92c0,2,.8,3.07,2.58,3.07s3.1-1.12,3.1-3.46V39h6.25V57.28H310V54.45a6,6,0,0,1-5.79,3.25C300.66,57.7,298,55.53,298,50.93Z" fill="#fff"/><path d="M319.4,39h6.24v3.63a5.75,5.75,0,0,1,5.9-3.88v5.83c-3.8-.1-5.9,1.08-5.9,4v8.66H319.4Z" fill="#fff"/><path d="M339.25,48.34v-.27c0-6.22,3.42-9.53,7.75-9.53a5.92,5.92,0,0,1,5.62,3.07V31h6.24V57.28h-6.24v-3a6.15,6.15,0,0,1-5.69,3.39C342.71,57.7,339.25,54.66,339.25,48.34Zm13.54-.1V48c0-3.07-1.29-4.71-3.59-4.71s-3.6,1.57-3.6,4.75v.28c0,3.07,1.36,4.64,3.53,4.64S352.79,51.35,352.79,48.24Z" fill="#fff"/><path d="M361.06,48.38V48.1c0-5.86,4.37-9.56,10-9.56S381,42.13,381,47.93v.28c0,5.93-4.36,9.49-10,9.49S361.06,54.28,361.06,48.38Zm13.61-.1V48c0-3.08-1.22-4.79-3.59-4.79s-3.63,1.64-3.63,4.72v.28c0,3.14,1.22,4.85,3.63,4.85S374.67,51.31,374.67,48.28Z" fill="#fff"/><path d="M382.25,48.38V48.1c0-6.07,4.36-9.56,9.73-9.56,4.47,0,8.59,2,8.94,7.5h-5.87c-.28-1.71-1.11-2.65-2.93-2.65-2.2,0-3.49,1.57-3.49,4.64v.28c0,3.18,1.22,4.82,3.6,4.82a3,3,0,0,0,3.17-3H401c-.17,4.61-3.28,7.61-9.18,7.61C386.4,57.7,382.25,54.52,382.25,48.38Z" fill="#fff"/><path d="M402.07,51.49h5.76c.21,1.32.8,2,2.58,2,1.53,0,2.23-.59,2.23-1.5s-.87-1.29-3.38-1.64c-4.89-.62-6.95-2.06-6.95-5.86,0-4,3.6-6,7.82-6,4.5,0,7.64,1.53,8.06,5.9h-5.65a2,2,0,0,0-2.34-1.82c-1.36,0-2.06.59-2.06,1.43s.84,1.22,3.07,1.5c5.06.63,7.5,2,7.5,5.87,0,4.32-3.21,6.28-8.27,6.28S402.21,55.53,402.07,51.49Z" fill="#fff"/><path d="M426,52.22c0-4.29,3.63-6,9.7-6h1.75v-.42c0-1.74-.42-2.89-2.41-2.89a2.24,2.24,0,0,0-2.48,2.16h-5.86c.28-4.4,3.73-6.56,8.72-6.56s8.24,2.06,8.24,6.91V57.28h-6.07V55.15c-.87,1.33-2.48,2.55-5.41,2.55C428.94,57.7,426,56.09,426,52.22Zm11.45-1.33V49.78h-1.64c-2.51,0-3.63.48-3.63,2,0,1.05.7,1.71,2.16,1.71C436.16,53.47,437.49,52.46,437.49,50.89Z" fill="#fff"/><path d="M446.74,39H453V42a6.44,6.44,0,0,1,6-3.42c3.52,0,6,2.2,6,6.87V57.28h-6.24V46.67c0-2.06-.81-3.07-2.62-3.07S453,44.72,453,47.05V57.28h-6.24Z" fill="#fff"/><path d="M467.08,48.34v-.27c0-6.22,3.42-9.53,7.75-9.53a5.92,5.92,0,0,1,5.62,3.07V31h6.25V57.28h-6.25v-3a6.15,6.15,0,0,1-5.69,3.39C470.54,57.7,467.08,54.66,467.08,48.34Zm13.54-.1V48c0-3.07-1.29-4.71-3.59-4.71s-3.6,1.57-3.6,4.75v.28c0,3.07,1.36,4.64,3.53,4.64S480.62,51.35,480.62,48.24Z" fill="#fff"/><path d="M495.21,57.28h6.21c.28,1.32,1.08,2.37,3.35,2.37,2.76,0,3.88-1.57,3.88-3.84V53A6.41,6.41,0,0,1,503,56.37c-4.25,0-7.74-3.14-7.74-8.76v-.28c0-5.37,3.45-8.79,7.74-8.79a6,6,0,0,1,5.66,3.07V39h6.24V55.74c0,5.45-3.59,8.31-10.12,8.31C498.56,64.05,495.7,61.43,495.21,57.28Zm13.61-9.7v-.25c0-2.51-1.29-4.12-3.59-4.12s-3.6,1.64-3.6,4.16v.28c0,2.51,1.33,4.11,3.56,4.11S508.82,50.16,508.82,47.58Z" fill="#fff"/><path d="M517.09,48.38V48.1c0-5.86,4.36-9.56,10-9.56s9.94,3.59,9.94,9.39v.28c0,5.93-4.36,9.49-10,9.49S517.09,54.28,517.09,48.38Zm13.61-.1V48c0-3.08-1.22-4.79-3.59-4.79s-3.63,1.64-3.63,4.72v.28c0,3.14,1.22,4.85,3.63,4.85S530.7,51.31,530.7,48.28Z" fill="#fff"/><path d="M538.24,54.14a3.48,3.48,0,0,1,3.56-3.53,3.53,3.53,0,1,1,0,7A3.48,3.48,0,0,1,538.24,54.14Z" fill="#fff"/></g></g></svg>