<svg xmlns="http://www.w3.org/2000/svg" viewBox="0 0 160 600"><title>H29</title><g id="Layer_2" data-name="Layer 2"><g id="Rect"><rect width="160" height="600" fill="none"/></g><g id="H29"><g id="_H_R_Block_Online_prices_are_significantly_lower_than_TurboTa" data-name="&quot;[H&amp;R Block Online] prices are significantly lower than TurboTa"><path d="M20.82,146.31h3.36l-.42,5.5H21.22Zm4.24,0h3.38l-.42,5.5H25.48Z" fill="#fff"/><path d="M30.26,145.09h6.1v2.62h-2.5V161h2.5v2.62h-6.1Z" fill="#fff"/><path d="M38.2,146.31h4.12v5.46H47v-5.46h4.1v14.31H47V155h-4.7v5.64H38.2Z" fill="#fff"/><path d="M64.84,157.7l2.38,2.92H62.56l-.84-1a5.69,5.69,0,0,1-3.86,1.28c-3,0-5-1.6-5-4.32,0-1.84,1.12-3.21,3.14-4.17a4.56,4.56,0,0,1-.88-2.5c0-2.44,2.08-3.74,4.6-3.74,2.28,0,4.34,1.14,4.34,3.34,0,1.56-.92,2.7-2.86,3.54l1.8,2.21,1-2.05h3.12Zm-5-.42-2.26-2.72a1.69,1.69,0,0,0-1,1.54,1.66,1.66,0,0,0,1.82,1.78A1.88,1.88,0,0,0,59.88,157.28Zm-.44-5.77c1-.46,1.42-1,1.42-1.74a1,1,0,0,0-1.06-1.1,1.14,1.14,0,0,0-1.18,1.24A2.62,2.62,0,0,0,59.44,151.51Z" fill="#fff"/><path d="M68.52,146.31h5.6c3.74,0,5.82,1.52,5.82,4.54v.08a3.75,3.75,0,0,1-2.58,3.77l3.42,5.92H76.46l-2.9-5.12h-1v5.12H68.52Zm5.4,6.52c1.38,0,2.06-.58,2.06-1.74V151c0-1.16-.72-1.62-2-1.62H72.6v3.44Z" fill="#fff"/><path d="M85.8,146.31h6.38c3.38,0,4.82,1.52,4.82,3.74v.08a3,3,0,0,1-2.42,3.08,3.12,3.12,0,0,1,2.86,3.35v.08c0,2.56-1.66,4-5.2,4H85.8ZM91.36,152c1.28,0,1.76-.44,1.76-1.46v-.08c0-1-.52-1.42-1.76-1.42H89.8v3Zm.14,5.89c1.3,0,1.9-.6,1.9-1.66v-.08c0-1.08-.58-1.64-2-1.64H89.8v3.38Z" fill="#fff"/><path d="M98.86,145.55h3.56v15.07H98.86Z" fill="#fff"/><path d="M103.78,155.52v-.16c0-3.37,2.5-5.49,5.74-5.49s5.7,2.06,5.7,5.39v.16c0,3.4-2.5,5.44-5.72,5.44S103.78,158.9,103.78,155.52Zm7.8-.06v-.16c0-1.76-.7-2.75-2.06-2.75s-2.08.95-2.08,2.71v.16c0,1.8.7,2.78,2.08,2.78S111.58,157.2,111.58,155.46Z" fill="#fff"/><path d="M115.92,155.52v-.16a5.26,5.26,0,0,1,5.58-5.49c2.56,0,4.92,1.12,5.12,4.31h-3.36a1.55,1.55,0,0,0-1.68-1.53c-1.26,0-2,.91-2,2.67v.16c0,1.82.7,2.76,2.06,2.76a1.74,1.74,0,0,0,1.82-1.74h3.22c-.1,2.64-1.88,4.36-5.26,4.36C118.3,160.86,115.92,159,115.92,155.52Z" fill="#fff"/><path d="M127.84,145.55h3.58v8.74l2.82-4.14H138l-3.42,4.71,3.7,5.76h-4L131.42,156v4.58h-3.58Z" fill="#fff"/><path d="M20.62,178.56v-.16c0-4.37,3.28-7.29,7.56-7.29s7.58,2.74,7.58,7.18v.17c0,4.4-3,7.4-7.64,7.4S20.62,182.86,20.62,178.56Zm10.86,0v-.17c0-2.54-1.28-4-3.3-4s-3.28,1.46-3.28,4.07v.16c0,2.6,1.32,4.1,3.3,4.1S31.48,181.08,31.48,178.52Z" fill="#fff"/><path d="M37.14,175.15h3.58v1.68a3.69,3.69,0,0,1,3.44-2c2,0,3.42,1.26,3.42,3.94v6.81H44v-6.08c0-1.19-.46-1.77-1.5-1.77s-1.78.65-1.78,2v5.86H37.14Z" fill="#fff"/><path d="M49.42,170.55H53v15.07H49.42Z" fill="#fff"/><path d="M54.82,172.31a2,2,0,1,1,2,1.84A1.87,1.87,0,0,1,54.82,172.31Zm.18,2.84h3.58v10.47H55Z" fill="#fff"/><path d="M60.5,175.15h3.58v1.68a3.69,3.69,0,0,1,3.44-2c2,0,3.42,1.26,3.42,3.94v6.81H67.36v-6.08c0-1.19-.46-1.77-1.5-1.77s-1.78.65-1.78,2v5.86H60.5Z" fill="#fff"/><path d="M72.12,180.52v-.16a5.35,5.35,0,0,1,5.66-5.49c2.86,0,5.32,1.64,5.32,5.41v.94H75.74a2.09,2.09,0,0,0,2.18,2.18c1.18,0,1.68-.54,1.82-1.24H83.1c-.32,2.36-2.14,3.7-5.3,3.7S72.12,183.94,72.12,180.52Zm7.5-1.32c-.06-1.27-.68-2-1.84-2a2,2,0,0,0-2,2Z" fill="#fff"/><path d="M83.86,186h2.48V172.71H83.86v-2.62h6.08v18.49H83.86Z" fill="#fff"/><path d="M21.06,200.15h3.58v1.56a3.69,3.69,0,0,1,3.26-1.84c2.44,0,4.42,1.84,4.42,5.43v.16c0,3.6-2,5.4-4.44,5.4a3.45,3.45,0,0,1-3.24-1.78v5H21.06Zm7.62,5.31v-.16c0-1.84-.8-2.73-2.06-2.73s-2.08,1-2.08,2.71v.16c0,1.78.78,2.68,2.08,2.68S28.68,207.18,28.68,205.46Z" fill="#fff"/><path d="M33.62,200.15H37.2v2.08A3.3,3.3,0,0,1,40.58,200v3.34c-2.18-.06-3.38.63-3.38,2.31v5H33.62Z" fill="#fff"/><path d="M41.8,197.31a2,2,0,1,1,2,1.84A1.87,1.87,0,0,1,41.8,197.31Zm.18,2.84h3.58v10.47H42Z" fill="#fff"/><path d="M46.92,205.52v-.16a5.26,5.26,0,0,1,5.58-5.49c2.56,0,4.92,1.12,5.12,4.31H54.26a1.55,1.55,0,0,0-1.68-1.53c-1.26,0-2,.91-2,2.67v.16c0,1.82.7,2.76,2.06,2.76a1.74,1.74,0,0,0,1.82-1.74h3.22c-.1,2.64-1.88,4.36-5.26,4.36C49.3,210.86,46.92,209,46.92,205.52Z" fill="#fff"/><path d="M58.28,205.52v-.16a5.35,5.35,0,0,1,5.66-5.49c2.86,0,5.32,1.64,5.32,5.41v.94H61.9a2.09,2.09,0,0,0,2.18,2.18c1.18,0,1.68-.54,1.82-1.24h3.36c-.32,2.36-2.14,3.7-5.3,3.7S58.28,208.94,58.28,205.52Zm7.5-1.32c-.06-1.27-.68-2-1.84-2a2,2,0,0,0-2,2Z" fill="#fff"/><path d="M69.9,207.3h3.3c.12.76.46,1.18,1.48,1.18s1.28-.34,1.28-.86-.5-.74-1.94-.94c-2.8-.36-4-1.18-4-3.37s2.06-3.44,4.48-3.44c2.58,0,4.38.88,4.62,3.38H75.9a1.17,1.17,0,0,0-1.34-1c-.78,0-1.18.34-1.18.82s.48.7,1.76.87c2.9.35,4.3,1.12,4.3,3.36,0,2.48-1.84,3.6-4.74,3.6S70,209.62,69.9,207.3Z" fill="#fff"/><path d="M83.64,207.72c0-2.46,2.08-3.43,5.56-3.43h1v-.23c0-1-.24-1.67-1.38-1.67a1.28,1.28,0,0,0-1.42,1.24H84c.16-2.52,2.14-3.76,5-3.76s4.72,1.18,4.72,4v6.79H90.28V209.4a3.44,3.44,0,0,1-3.1,1.46C85.3,210.86,83.64,209.94,83.64,207.72ZM90.2,207v-.64h-.94c-1.44,0-2.08.28-2.08,1.14,0,.6.4,1,1.24,1A1.58,1.58,0,0,0,90.2,207Z" fill="#fff"/><path d="M95.5,200.15h3.58v2.08a3.3,3.3,0,0,1,3.38-2.22v3.34c-2.18-.06-3.38.63-3.38,2.31v5H95.5Z" fill="#fff"/><path d="M103.1,205.52v-.16a5.35,5.35,0,0,1,5.66-5.49c2.86,0,5.32,1.64,5.32,5.41v.94h-7.36a2.09,2.09,0,0,0,2.18,2.18c1.18,0,1.68-.54,1.82-1.24h3.36c-.32,2.36-2.14,3.7-5.3,3.7S103.1,208.94,103.1,205.52Zm7.5-1.32c-.06-1.27-.68-2-1.84-2a2,2,0,0,0-2,2Z" fill="#fff"/><path d="M20.36,232.3h3.3c.12.76.46,1.18,1.48,1.18s1.28-.34,1.28-.86-.5-.74-1.94-.94c-2.8-.36-4-1.18-4-3.37s2.06-3.44,4.48-3.44c2.58,0,4.38.88,4.62,3.38H26.36a1.17,1.17,0,0,0-1.34-1c-.78,0-1.18.34-1.18.82s.48.7,1.76.87c2.9.35,4.3,1.12,4.3,3.36,0,2.48-1.84,3.6-4.74,3.6S20.44,234.62,20.36,232.3Z" fill="#fff"/><path d="M31,222.31a2,2,0,1,1,2,1.84A1.87,1.87,0,0,1,31,222.31Zm.18,2.84h3.58v10.47H31.16Z" fill="#fff"/><path d="M36.08,235.62h3.56c.16.76.62,1.36,1.92,1.36a2,2,0,0,0,2.22-2.2v-1.6a3.67,3.67,0,0,1-3.24,1.92c-2.44,0-4.44-1.8-4.44-5v-.16c0-3.09,2-5,4.44-5a3.4,3.4,0,0,1,3.24,1.76v-1.48h3.58v9.59c0,3.12-2.06,4.76-5.8,4.76C38,239.5,36.36,238,36.08,235.62Zm7.8-5.56v-.14c0-1.44-.74-2.37-2.06-2.37s-2.06.95-2.06,2.39v.16c0,1.44.76,2.36,2,2.36S43.88,231.54,43.88,230.06Z" fill="#fff"/><path d="M49.18,225.15h3.58v1.68a3.69,3.69,0,0,1,3.44-2c2,0,3.42,1.26,3.42,3.94v6.81H56v-6.08c0-1.19-.46-1.77-1.5-1.77s-1.78.65-1.78,2v5.86H49.18Z" fill="#fff"/><path d="M61.28,222.31a2,2,0,1,1,2,1.84A1.87,1.87,0,0,1,61.28,222.31Zm.18,2.84H65v10.47H61.46Z" fill="#fff"/><path d="M67.5,227.59H66.18v-2.44H67.5v-.92c0-2.6,1.62-3.84,4.1-3.84a6.38,6.38,0,0,1,1.64.22v2.62a3.29,3.29,0,0,0-1-.14,1.05,1.05,0,0,0-1.2,1.14v.92h2.12v2.44H71.06v8H67.5Z" fill="#fff"/><path d="M74.3,222.31a2,2,0,1,1,2,1.84A1.87,1.87,0,0,1,74.3,222.31Zm.18,2.84h3.58v10.47H74.48Z" fill="#fff"/><path d="M79.42,230.52v-.16A5.26,5.26,0,0,1,85,224.87c2.56,0,4.92,1.12,5.12,4.31H86.76a1.55,1.55,0,0,0-1.68-1.53c-1.26,0-2,.91-2,2.67v.16c0,1.82.7,2.76,2.06,2.76A1.74,1.74,0,0,0,87,231.5h3.22c-.1,2.64-1.88,4.36-5.26,4.36C81.8,235.86,79.42,234,79.42,230.52Z" fill="#fff"/><path d="M90.8,232.72c0-2.46,2.08-3.43,5.56-3.43h1v-.23c0-1-.24-1.67-1.38-1.67a1.28,1.28,0,0,0-1.42,1.24H91.2c.16-2.52,2.14-3.76,5-3.76s4.72,1.18,4.72,4v6.79H97.44V234.4a3.44,3.44,0,0,1-3.1,1.46C92.46,235.86,90.8,234.94,90.8,232.72Zm6.56-.76v-.64h-.94c-1.44,0-2.08.28-2.08,1.14,0,.6.4,1,1.24,1A1.58,1.58,0,0,0,97.36,232Z" fill="#fff"/><path d="M102.66,225.15h3.58v1.68a3.69,3.69,0,0,1,3.44-2c2,0,3.42,1.26,3.42,3.94v6.81h-3.58v-6.08c0-1.19-.46-1.77-1.5-1.77s-1.78.65-1.78,2v5.86h-3.58Z" fill="#fff"/><path d="M115.32,232.26v-4.67h-1.26v-2.44h1.26V223h3.58v2.18H121v2.44H118.9v4.33A1,1,0,0,0,120,233a2.73,2.73,0,0,0,1-.18v2.72a7.51,7.51,0,0,1-2,.3C116.64,235.86,115.32,234.72,115.32,232.26Z" fill="#fff"/><path d="M122.42,220.55H126v15.07h-3.56Z" fill="#fff"/><path d="M131.18,234.56,127,225.15h3.88l2.16,5.59,2-5.59h3.42l-5.6,14h-3.42Z" fill="#fff"/><path d="M21.16,245.55h3.56v15.07H21.16Z" fill="#fff"/><path d="M26.08,255.52v-.16c0-3.37,2.5-5.49,5.74-5.49s5.7,2.06,5.7,5.39v.16c0,3.4-2.5,5.44-5.72,5.44S26.08,258.9,26.08,255.52Zm7.8-.06v-.16c0-1.76-.7-2.75-2.06-2.75s-2.08.95-2.08,2.71v.16c0,1.8.7,2.78,2.08,2.78S33.88,257.2,33.88,255.46Z" fill="#fff"/><path d="M37.56,250.15H41.3l1.52,6.27,1.76-6.27h2.88L49,256.42l1.7-6.27h3.4L50.8,260.62H47.38l-1.56-5.84-1.62,5.84H40.72Z" fill="#fff"/><path d="M54,255.52v-.16a5.35,5.35,0,0,1,5.66-5.49c2.86,0,5.32,1.64,5.32,5.41v.94H57.64a2.09,2.09,0,0,0,2.18,2.18c1.18,0,1.68-.54,1.82-1.24H65c-.32,2.36-2.14,3.7-5.3,3.7S54,258.94,54,255.52Zm7.5-1.32c-.06-1.27-.68-2-1.84-2a2,2,0,0,0-2,2Z" fill="#fff"/><path d="M66.24,250.15h3.58v2.08A3.3,3.3,0,0,1,73.2,250v3.34c-2.18-.06-3.38.63-3.38,2.31v5H66.24Z" fill="#fff"/><path d="M78.62,257.26v-4.67H77.36v-2.44h1.26V248H82.2v2.18h2.06v2.44H82.2v4.33a1,1,0,0,0,1.06,1.1,2.73,2.73,0,0,0,1-.18v2.72a7.51,7.51,0,0,1-2,.3C79.94,260.86,78.62,259.72,78.62,257.26Z" fill="#fff"/><path d="M85.62,245.55H89.2v6.28a3.69,3.69,0,0,1,3.44-2c2,0,3.42,1.26,3.42,3.94v6.81H92.48v-6.08c0-1.19-.46-1.77-1.5-1.77s-1.78.65-1.78,2v5.86H85.62Z" fill="#fff"/><path d="M97.2,257.72c0-2.46,2.08-3.43,5.56-3.43h1v-.23c0-1-.24-1.67-1.38-1.67a1.28,1.28,0,0,0-1.42,1.24H97.6c.16-2.52,2.14-3.76,5-3.76s4.72,1.18,4.72,4v6.79h-3.48V259.4a3.44,3.44,0,0,1-3.1,1.46C98.86,260.86,97.2,259.94,97.2,257.72Zm6.56-.76v-.64h-.94c-1.44,0-2.08.28-2.08,1.14,0,.6.4,1,1.24,1A1.58,1.58,0,0,0,103.76,257Z" fill="#fff"/><path d="M109.06,250.15h3.58v1.68a3.69,3.69,0,0,1,3.44-2c2,0,3.42,1.26,3.42,3.94v6.81h-3.58v-6.08c0-1.19-.46-1.77-1.5-1.77s-1.78.65-1.78,2v5.86h-3.58Z" fill="#fff"/><path d="M24.12,274.47h-3.7v-3.16H31.94v3.16h-3.7v11.15H24.12Z" fill="#fff"/><path d="M32.26,282v-6.83h3.58v6.25c0,1.18.46,1.76,1.48,1.76s1.78-.64,1.78-2v-6h3.58v10.47H39.1V284a3.44,3.44,0,0,1-3.32,1.86C33.76,285.86,32.26,284.62,32.26,282Z" fill="#fff"/><path d="M44.5,275.15h3.58v2.08A3.3,3.3,0,0,1,51.46,275v3.34c-2.18-.06-3.38.63-3.38,2.31v5H44.5Z" fill="#fff"/><path d="M56.34,284v1.62H52.76V270.55h3.58v6.16a3.69,3.69,0,0,1,3.26-1.84c2.44,0,4.42,1.84,4.42,5.43v.16c0,3.6-2,5.4-4.44,5.4A3.39,3.39,0,0,1,56.34,284Zm4-3.54v-.16c0-1.84-.8-2.73-2.06-2.73s-2.08.95-2.08,2.71v.16c0,1.78.78,2.68,2.08,2.68S60.38,282.18,60.38,280.46Z" fill="#fff"/><path d="M64.76,280.52v-.16c0-3.37,2.5-5.49,5.74-5.49s5.7,2.06,5.7,5.39v.16c0,3.4-2.5,5.44-5.72,5.44S64.76,283.9,64.76,280.52Zm7.8-.06v-.16c0-1.76-.7-2.75-2.06-2.75s-2.08.95-2.08,2.71v.16c0,1.8.7,2.78,2.08,2.78S72.56,282.2,72.56,280.46Z" fill="#fff"/><path d="M80.52,274.47h-3.7v-3.16H88.34v3.16h-3.7v11.15H80.52Z" fill="#fff"/><path d="M87.62,282.72c0-2.46,2.08-3.43,5.56-3.43h1v-.23c0-1-.24-1.67-1.38-1.67a1.28,1.28,0,0,0-1.42,1.24H88c.16-2.52,2.14-3.76,5-3.76s4.72,1.18,4.72,4v6.79H94.26V284.4a3.44,3.44,0,0,1-3.1,1.46C89.28,285.86,87.62,284.94,87.62,282.72Zm6.56-.76v-.64h-.94c-1.44,0-2.08.28-2.08,1.14,0,.6.4,1,1.24,1A1.58,1.58,0,0,0,94.18,282Z" fill="#fff"/><path d="M102.12,280.3l-3.26-5.15H103l1.62,2.77,1.58-2.77h3.68l-3.3,4.87,3.62,5.6h-4.12l-1.86-3.12-1.9,3.12H98.64Z" fill="#fff"/><path d="M110.9,283.82a2,2,0,0,1,2-2,2,2,0,1,1,0,4A2,2,0,0,1,110.9,283.82Z" fill="#fff"/><path d="M116.58,283.82a2,2,0,0,1,2-2,2,2,0,1,1,0,4A2,2,0,0,1,116.58,283.82Z" fill="#fff"/><path d="M122.26,283.82a2,2,0,0,1,2-2,2,2,0,1,1,0,4A2,2,0,0,1,122.26,283.82Z" fill="#fff"/><path d="M126,271.31h3.36l-.42,5.5h-2.54Zm4.24,0h3.38l-.42,5.5h-2.54Z" fill="#fff"/></g><g id="_PC_Mag" data-name="– PC Mag"><path d="M84.28,387.73H90v1.1H84.28Z" fill="#fff"/><path d="M94.38,382.65h3c2.08,0,3.45.92,3.45,2.87v.06c0,2-1.42,2.83-3.41,2.83h-1.3V392H94.38Zm3,4.51c1.15,0,1.76-.56,1.76-1.58v-.06c0-1.1-.65-1.53-1.76-1.53H96.11v3.17Z" fill="#fff"/><path d="M101.68,387.36v-.11a4.47,4.47,0,0,1,4.51-4.74c2.13,0,3.78,1.06,4,3.25h-1.76a2,2,0,0,0-2.22-1.88c-1.64,0-2.7,1.28-2.7,3.36v.1c0,2.1,1,3.33,2.71,3.33a2.17,2.17,0,0,0,2.38-2h1.69c-.27,2.23-1.86,3.37-4.07,3.37C103.3,392.08,101.68,390.22,101.68,387.36Z" fill="#fff"/><path d="M114.48,382.65h2.31l2.45,6.34,2.39-6.34h2.29V392h-1.73v-7l-2.77,7h-.56l-2.82-7v7h-1.56Z" fill="#fff"/><path d="M125.19,390.06c0-1.59,1.54-2.16,3.49-2.16h.84v-.35c0-.91-.31-1.36-1.23-1.36a1.13,1.13,0,0,0-1.3,1.06h-1.52c.13-1.58,1.39-2.25,2.91-2.25s2.72.63,2.72,2.49V392h-1.55v-.84a2.36,2.36,0,0,1-2.08,1C126.22,392.08,125.19,391.48,125.19,390.06Zm4.33-.49v-.68h-.8c-1.2,0-2,.27-2,1.11,0,.57.32.94,1.1.94C128.81,390.94,129.52,390.44,129.52,389.57Z" fill="#fff"/><path d="M132.33,392.18h1.59c.13.68.65,1.07,1.67,1.07a1.67,1.67,0,0,0,1.9-1.84v-1a2.65,2.65,0,0,1-2.22,1.26,3,3,0,0,1-3-3.24v-.09a3.13,3.13,0,0,1,3.06-3.34,2.34,2.34,0,0,1,2.18,1.19v-1h1.57v6.29c0,2-1.35,3-3.45,3S132.51,393.48,132.33,392.18Zm5.21-3.8v-.09a1.79,1.79,0,0,0-1.83-2.05,1.84,1.84,0,0,0-1.85,2.08v.1a1.84,1.84,0,0,0,1.8,2A1.87,1.87,0,0,0,137.54,388.38Z" fill="#fff"/></g></g></g></svg>