<svg xmlns="http://www.w3.org/2000/svg" viewBox="0 0 275 74"><title>275x74_cta</title><g id="Layer_2" data-name="Layer 2"><g id="CTA_-_FIND_AN_OFFICE" data-name="CTA - FIND AN OFFICE"><g id="Rectangle_1" data-name="Rectangle 1"><rect width="275" height="74" fill="none"/></g><g id="Find_an_office" data-name="Find an office"><path d="M41,26.19H55.7v4.06H46.18v6.06h7.53v3.91H46.18V49.1H41Z" fill="#292929"/><path d="M57.72,27.53a2.65,2.65,0,1,1,2.63,2.53A2.54,2.54,0,0,1,57.72,27.53Zm.35,4.81h4.62V49.1H58.07Z" fill="#292929"/><path d="M66.47,32.34h4.64V35A5.8,5.8,0,0,1,76.56,32c3.3,0,5.64,2,5.64,6.48V49.1H77.55v-10c0-2.28-.89-3.37-2.94-3.37a3.33,3.33,0,0,0-3.5,3.69V49.1H66.47Z" fill="#292929"/><path d="M84.7,41V40.7c0-5.51,3.18-8.75,7.37-8.75a5.59,5.59,0,0,1,5.29,2.89V24.74H102V49.1H97.36V46.31A6.09,6.09,0,0,1,92,49.45C87.91,49.45,84.7,46.53,84.7,41Zm12.79-.16v-.26c0-3.33-1.48-5-4-5s-4,1.76-4,5.09v.26c0,3.33,1.6,5,3.9,5S97.49,44.19,97.49,40.8Z" fill="#292929"/><path d="M111.17,44.45c0-3.91,3.59-5.38,8.72-5.38h1.89v-.68c0-2-.61-3.07-2.73-3.07a2.53,2.53,0,0,0-2.85,2.37h-4.39c.29-4,3.43-5.74,7.53-5.74s7,1.67,7,6.22V49.1h-4.52v-2a5.7,5.7,0,0,1-5.06,2.37C113.74,49.45,111.17,48,111.17,44.45Zm10.61-1.22V41.82H120c-2.69,0-4.26.58-4.26,2.37,0,1.22.74,2,2.44,2C120.21,46.21,121.78,45.09,121.78,43.23Z" fill="#292929"/><path d="M129.86,32.34h4.64V35A5.8,5.8,0,0,1,140,32c3.3,0,5.64,2,5.64,6.48V49.1h-4.65v-10c0-2.28-.89-3.37-2.95-3.37a3.32,3.32,0,0,0-3.49,3.69V49.1h-4.64Z" fill="#292929"/><path d="M154.69,40.89v-.25c0-5.26,3.81-8.69,8.84-8.69s8.82,3.37,8.82,8.59v.26c0,5.28-3.82,8.65-8.85,8.65S154.69,46.12,154.69,40.89Zm12.95-.06V40.6c0-3.2-1.51-5.12-4.11-5.12s-4.1,1.86-4.1,5.06v.26c0,3.2,1.48,5.12,4.1,5.12S167.64,44,167.64,40.83Z" fill="#292929"/><path d="M175.75,35.64h-2.22v-3.3h2.22V30.61c0-3.88,2.24-5.87,6-5.87a7.25,7.25,0,0,1,2.37.36v3.46a5.85,5.85,0,0,0-1.67-.26c-1.44,0-2,.9-2,2.21v1.83h5.48V30.41c0-3.9,2.27-5.86,6-5.86a7.75,7.75,0,0,1,2.4.32v3.49a5,5,0,0,0-1.69-.28,1.94,1.94,0,0,0-2.09,2.21v2.05h3.66v3.3h-3.66V49.1h-4.61V35.64h-5.48V49.1h-4.61Z" fill="#292929"/><path d="M196.25,27.53a2.65,2.65,0,1,1,2.63,2.53A2.54,2.54,0,0,1,196.25,27.53Zm.36,4.81h4.61V49.1h-4.61Z" fill="#292929"/><path d="M204,40.93v-.26A8.32,8.32,0,0,1,212.63,32c3.88,0,7.47,1.7,7.88,6.51h-4.39a3.07,3.07,0,0,0-3.39-2.85c-2.41,0-4,1.79-4,5v.26c0,3.37,1.51,5.1,4.1,5.1a3.4,3.4,0,0,0,3.59-3.24h4.2c-.26,4-3.14,6.73-8,6.73S204,46.4,204,40.93Z" fill="#292929"/><path d="M222,40.93v-.26A8.32,8.32,0,0,1,230.64,32c4.32,0,8.17,2.53,8.17,8.53v1.28H226.73c.13,2.79,1.63,4.39,4.16,4.39,2.15,0,3.21-.93,3.5-2.34h4.39c-.55,3.62-3.43,5.64-8,5.64C225.7,49.45,222,46.28,222,40.93Zm12.27-2c-.16-2.54-1.44-3.75-3.65-3.75s-3.49,1.37-3.85,3.75Z" fill="#292929"/></g></g></g></svg>