<svg xmlns="http://www.w3.org/2000/svg" viewBox="0 0 728 90"><title>H123</title><g id="Layer_2" data-name="Layer 2"><g id="Rect"><rect width="728" height="90" fill="none"/></g><g id="H123"><g id="Preparación_de_taxes_en_el_horario_que_te_convenga._Abierto_los" data-name="Preparación de taxes en el horario que te convenga. Abierto los"><path d="M123.38,10.87h6.32c4.56,0,6.68,2,6.68,5.52v.09c0,3.46-2.35,5.33-6.47,5.33h-1.79v5.56h-4.74Zm6.12,7.71c1.53,0,2.34-.72,2.34-2.08v-.09c0-1.41-.83-2-2.32-2h-1.4v4.15Z" fill="#fff"/><path d="M137.82,15.3H142v2.4a3.83,3.83,0,0,1,3.93-2.56V19c-2.54-.07-3.93.72-3.93,2.66v5.72h-4.17Z" fill="#fff"/><path d="M146.66,21.49V21.3c0-3.87,2.91-6.32,6.58-6.32,3.33,0,6.19,1.89,6.19,6.23v1.08h-8.56a2.42,2.42,0,0,0,2.54,2.52c1.37,0,2-.62,2.11-1.43h3.91c-.37,2.72-2.49,4.27-6.16,4.27C149.45,27.65,146.66,25.43,146.66,21.49ZM155.38,20c-.07-1.45-.79-2.26-2.14-2.26A2.31,2.31,0,0,0,150.92,20Z" fill="#fff"/><path d="M160.87,15.3H165v1.8A4.29,4.29,0,0,1,168.83,15c2.83,0,5.14,2.12,5.14,6.25v.19c0,4.15-2.31,6.23-5.17,6.23A4,4,0,0,1,165,25.59v5.82h-4.17Zm8.86,6.12v-.19c0-2.12-.93-3.14-2.39-3.14s-2.42,1.09-2.42,3.12v.18c0,2.06.91,3.1,2.42,3.1S169.73,23.4,169.73,21.42Z" fill="#fff"/><path d="M174.78,24c0-2.83,2.42-3.94,6.47-3.94h1.16V19.8c0-1.15-.28-1.91-1.6-1.91a1.49,1.49,0,0,0-1.65,1.43h-3.91c.19-2.91,2.49-4.34,5.81-4.34s5.49,1.36,5.49,4.57v7.82H182.5V26a4,4,0,0,1-3.6,1.69C176.71,27.65,174.78,26.58,174.78,24Zm7.63-.87v-.74h-1.09c-1.68,0-2.42.32-2.42,1.31,0,.7.47,1.13,1.44,1.13C181.53,24.85,182.41,24.19,182.41,23.15Z" fill="#fff"/><path d="M188.58,15.3h4.16v2.4a3.84,3.84,0,0,1,3.93-2.56V19c-2.54-.07-3.93.72-3.93,2.66v5.72h-4.16Z" fill="#fff"/><path d="M197.21,24c0-2.83,2.42-3.94,6.46-3.94h1.16V19.8c0-1.15-.27-1.91-1.6-1.91a1.49,1.49,0,0,0-1.65,1.43h-3.91c.19-2.91,2.49-4.34,5.82-4.34S209,16.34,209,19.55v7.82h-4V26a4,4,0,0,1-3.61,1.69C199.14,27.65,197.21,26.58,197.21,24Zm7.62-.87v-.74h-1.09c-1.67,0-2.42.32-2.42,1.31,0,.7.47,1.13,1.45,1.13C204,24.85,204.83,24.19,204.83,23.15Z" fill="#fff"/><path d="M210.35,21.49V21.3c0-4,2.91-6.32,6.49-6.32,3,0,5.72,1.29,5.95,5h-3.91a1.78,1.78,0,0,0-1.95-1.75c-1.46,0-2.33,1-2.33,3.07v.18c0,2.1.82,3.18,2.4,3.18a2,2,0,0,0,2.12-2h3.74c-.12,3-2.19,5-6.12,5C213.12,27.65,210.35,25.55,210.35,21.49Z" fill="#fff"/><path d="M224.12,12a2.3,2.3,0,1,1,2.28,2.12A2.17,2.17,0,0,1,224.12,12Zm.21,3.27h4.16V27.37h-4.16Z" fill="#fff"/><path d="M230.07,21.49V21.3c0-3.87,2.91-6.32,6.68-6.32s6.63,2.38,6.63,6.21v.18c0,3.92-2.91,6.28-6.66,6.28S230.07,25.38,230.07,21.49Zm9.07-.07v-.19c0-2-.81-3.16-2.39-3.16s-2.42,1.09-2.42,3.12v.18c0,2.08.81,3.21,2.42,3.21S239.14,23.42,239.14,21.42Zm-2.79-11.33h4.19l-2.44,3.83h-3Z" fill="#fff"/><path d="M244.84,15.3H249v1.94A4.3,4.3,0,0,1,253,15c2.34,0,4,1.45,4,4.54v7.85h-4.16v-7c0-1.37-.53-2-1.74-2s-2.07.73-2.07,2.28v6.76h-4.17Z" fill="#fff"/><path d="M262.64,21.46v-.18c0-4.11,2.28-6.3,5.16-6.3a3.94,3.94,0,0,1,3.74,2V10h4.17V27.37h-4.17v-2a4.1,4.1,0,0,1-3.79,2.24C264.94,27.65,262.64,25.64,262.64,21.46Zm9-.07v-.18c0-2-.86-3.12-2.39-3.12s-2.4,1-2.4,3.14v.19c0,2,.91,3.07,2.35,3.07S271.66,23.45,271.66,21.39Z" fill="#fff"/><path d="M277.18,21.49V21.3c0-3.87,2.9-6.32,6.58-6.32,3.32,0,6.18,1.89,6.18,6.23v1.08h-8.56a2.42,2.42,0,0,0,2.54,2.52c1.37,0,1.95-.62,2.12-1.43h3.9c-.37,2.72-2.49,4.27-6.16,4.27S277.18,25.43,277.18,21.49ZM285.9,20c-.07-1.45-.79-2.26-2.14-2.26A2.31,2.31,0,0,0,281.43,20Z" fill="#fff"/><path d="M296.18,23.49V18.12h-1.47V15.3h1.47V12.79h4.16V15.3h2.4v2.82h-2.4v5a1.1,1.1,0,0,0,1.23,1.27,3.16,3.16,0,0,0,1.19-.21V27.3a8.7,8.7,0,0,1-2.3.35C297.71,27.65,296.18,26.33,296.18,23.49Z" fill="#fff"/><path d="M303.67,24c0-2.83,2.42-3.94,6.46-3.94h1.17V19.8c0-1.15-.28-1.91-1.61-1.91A1.49,1.49,0,0,0,308,19.32h-3.91c.19-2.91,2.49-4.34,5.82-4.34s5.49,1.36,5.49,4.57v7.82h-4.05V26a4,4,0,0,1-3.61,1.69C305.6,27.65,303.67,26.58,303.67,24Zm7.63-.87v-.74h-1.1c-1.67,0-2.42.32-2.42,1.31,0,.7.47,1.13,1.45,1.13C310.41,24.85,311.3,24.19,311.3,23.15Z" fill="#fff"/><path d="M320.53,21.23l-3.79-5.93h4.79l1.88,3.19,1.84-3.19h4.28l-3.84,5.61,4.21,6.46h-4.79L323,23.77l-2.21,3.6h-4.26Z" fill="#fff"/><path d="M329.37,21.49V21.3c0-3.87,2.91-6.32,6.58-6.32,3.33,0,6.19,1.89,6.19,6.23v1.08h-8.56a2.42,2.42,0,0,0,2.54,2.52c1.37,0,1.95-.62,2.11-1.43h3.91c-.37,2.72-2.49,4.27-6.16,4.27C332.16,27.65,329.37,25.43,329.37,21.49ZM338.09,20c-.07-1.45-.79-2.26-2.14-2.26A2.31,2.31,0,0,0,333.63,20Z" fill="#fff"/><path d="M342.88,23.54h3.84c.14.88.54,1.36,1.72,1.36s1.49-.39,1.49-1-.58-.86-2.25-1.09c-3.26-.41-4.63-1.36-4.63-3.87,0-2.68,2.39-4,5.21-4,3,0,5.09,1,5.37,3.9h-3.77a1.35,1.35,0,0,0-1.56-1.2c-.9,0-1.37.39-1.37.94s.56.81,2.05,1c3.37.41,5,1.29,5,3.87,0,2.86-2.14,4.16-5.51,4.16S343,26.22,342.88,23.54Z" fill="#fff"/><path d="M358.91,21.49V21.3c0-3.87,2.91-6.32,6.58-6.32,3.33,0,6.19,1.89,6.19,6.23v1.08h-8.56a2.42,2.42,0,0,0,2.54,2.52c1.37,0,1.95-.62,2.11-1.43h3.91c-.37,2.72-2.49,4.27-6.16,4.27S358.91,25.43,358.91,21.49ZM367.63,20c-.07-1.45-.79-2.26-2.14-2.26A2.31,2.31,0,0,0,363.17,20Z" fill="#fff"/><path d="M373.12,15.3h4.17v1.94a4.3,4.3,0,0,1,4-2.26c2.34,0,4,1.45,4,4.54v7.85H381.1v-7c0-1.37-.54-2-1.74-2s-2.07.73-2.07,2.28v6.76h-4.17Z" fill="#fff"/><path d="M390.87,21.49V21.3c0-3.87,2.91-6.32,6.58-6.32,3.33,0,6.19,1.89,6.19,6.23v1.08h-8.56a2.42,2.42,0,0,0,2.53,2.52c1.38,0,2-.62,2.12-1.43h3.91c-.38,2.72-2.49,4.27-6.17,4.27S390.87,25.43,390.87,21.49ZM399.59,20c-.07-1.45-.79-2.26-2.14-2.26A2.3,2.3,0,0,0,395.13,20Z" fill="#fff"/><path d="M405.2,10h4.14V27.37H405.2Z" fill="#fff"/><path d="M415.8,10H420v7.24A4.3,4.3,0,0,1,424,15c2.34,0,4,1.45,4,4.54v7.85h-4.16v-7c0-1.37-.53-2-1.74-2s-2.07.73-2.07,2.28v6.76H415.8Z" fill="#fff"/><path d="M429.32,21.49V21.3c0-3.87,2.91-6.32,6.67-6.32s6.63,2.38,6.63,6.21v.18c0,3.92-2.91,6.28-6.65,6.28S429.32,25.38,429.32,21.49Zm9.07-.07v-.19c0-2-.82-3.16-2.4-3.16s-2.42,1.09-2.42,3.12v.18c0,2.08.82,3.21,2.42,3.21S438.39,23.42,438.39,21.42Z" fill="#fff"/><path d="M444.09,15.3h4.16v2.4a3.84,3.84,0,0,1,3.93-2.56V19c-2.53-.07-3.93.72-3.93,2.66v5.72h-4.16Z" fill="#fff"/><path d="M452.72,24c0-2.83,2.42-3.94,6.46-3.94h1.17V19.8c0-1.15-.28-1.91-1.61-1.91a1.49,1.49,0,0,0-1.65,1.43h-3.91c.19-2.91,2.49-4.34,5.82-4.34s5.49,1.36,5.49,4.57v7.82h-4.05V26a4,4,0,0,1-3.61,1.69C454.65,27.65,452.72,26.58,452.72,24Zm7.63-.87v-.74h-1.1c-1.67,0-2.42.32-2.42,1.31,0,.7.47,1.13,1.45,1.13C459.46,24.85,460.35,24.19,460.35,23.15Z" fill="#fff"/><path d="M466.51,15.3h4.16v2.4a3.84,3.84,0,0,1,3.93-2.56V19c-2.53-.07-3.93.72-3.93,2.66v5.72h-4.16Z" fill="#fff"/><path d="M476,12a2.16,2.16,0,0,1,2.27-2.15,2.14,2.14,0,1,1,0,4.27A2.14,2.14,0,0,1,476,12Zm.2,3.27h4.17V27.37h-4.17Z" fill="#fff"/><path d="M482,21.49V21.3c0-3.87,2.91-6.32,6.67-6.32s6.63,2.38,6.63,6.21v.18c0,3.92-2.9,6.28-6.65,6.28S482,25.38,482,21.49Zm9.07-.07v-.19c0-2-.81-3.16-2.4-3.16s-2.41,1.09-2.41,3.12v.18c0,2.08.81,3.21,2.41,3.21S491.05,23.42,491.05,21.42Z" fill="#fff"/><path d="M131.31,51.06a4.21,4.21,0,0,1-3.79,2.15c-2.82,0-5.12-2-5.12-6.19v-.18c0-4.11,2.28-6.3,5.16-6.3a4,4,0,0,1,3.75,2V40.86h4.16V57h-4.16Zm.11-4.11v-.18c0-2-.86-3.12-2.39-3.12s-2.4,1-2.4,3.14V47c0,2,.91,3.06,2.35,3.06S131.42,49,131.42,47Z" fill="#fff"/><path d="M137.5,48.73V40.86h4.16v7.2c0,1.36.54,2,1.72,2s2.07-.74,2.07-2.28v-7h4.16V52.93h-4.16V51.06a4,4,0,0,1-3.86,2.15C139.24,53.21,137.5,51.77,137.5,48.73Z" fill="#fff"/><path d="M151.08,47v-.18c0-3.88,2.91-6.32,6.58-6.32,3.33,0,6.19,1.89,6.19,6.23v1.08h-8.56a2.43,2.43,0,0,0,2.54,2.52c1.37,0,1.95-.63,2.11-1.43h3.91c-.37,2.72-2.49,4.27-6.16,4.27S151.08,51,151.08,47Zm8.72-1.52c-.07-1.45-.79-2.26-2.14-2.26a2.31,2.31,0,0,0-2.32,2.26Z" fill="#fff"/><path d="M170.08,49.05V43.68h-1.46V40.86h1.46V38.35h4.17v2.51h2.39v2.82h-2.39v5a1.1,1.1,0,0,0,1.23,1.27,3.19,3.19,0,0,0,1.19-.21v3.14a8.79,8.79,0,0,1-2.31.35C171.62,53.21,170.08,51.89,170.08,49.05Z" fill="#fff"/><path d="M177.58,47v-.18c0-3.88,2.9-6.32,6.58-6.32,3.32,0,6.18,1.89,6.18,6.23v1.08h-8.56a2.43,2.43,0,0,0,2.54,2.52c1.37,0,2-.63,2.12-1.43h3.9c-.37,2.72-2.49,4.27-6.16,4.27S177.58,51,177.58,47Zm8.72-1.52c-.07-1.45-.8-2.26-2.14-2.26a2.31,2.31,0,0,0-2.33,2.26Z" fill="#fff"/><path d="M195.37,47v-.18c0-4,2.91-6.32,6.49-6.32,3,0,5.72,1.29,5.95,5H203.9a1.78,1.78,0,0,0-2-1.75c-1.47,0-2.33,1-2.33,3.06V47c0,2.1.82,3.18,2.4,3.18a2,2,0,0,0,2.12-2h3.74c-.12,3-2.19,5-6.12,5C198.14,53.21,195.37,51.11,195.37,47Z" fill="#fff"/><path d="M208.58,47v-.18c0-3.88,2.91-6.32,6.67-6.32s6.63,2.38,6.63,6.2v.19c0,3.92-2.9,6.28-6.65,6.28S208.58,50.94,208.58,47Zm9.07-.06v-.19c0-2-.81-3.16-2.4-3.16s-2.41,1.08-2.41,3.11v.19c0,2.08.81,3.21,2.41,3.21S217.65,49,217.65,47Z" fill="#fff"/><path d="M223.35,40.86h4.16V42.8a4.29,4.29,0,0,1,4-2.26c2.35,0,4,1.45,4,4.54v7.85h-4.16v-7c0-1.36-.54-2-1.75-2s-2.07.74-2.07,2.29v6.76h-4.16Z" fill="#fff"/><path d="M236.17,40.86h4.44l2.53,7.78,2.49-7.78h4l-4.44,12.07h-4.54Z" fill="#fff"/><path d="M249.36,47v-.18c0-3.88,2.9-6.32,6.58-6.32,3.32,0,6.18,1.89,6.18,6.23v1.08h-8.56a2.43,2.43,0,0,0,2.54,2.52c1.37,0,1.95-.63,2.12-1.43h3.9c-.37,2.72-2.49,4.27-6.16,4.27S249.36,51,249.36,47Zm8.72-1.52c-.07-1.45-.79-2.26-2.14-2.26a2.31,2.31,0,0,0-2.33,2.26Z" fill="#fff"/><path d="M263.57,40.86h4.16V42.8a4.29,4.29,0,0,1,4-2.26c2.35,0,4,1.45,4,4.54v7.85h-4.17v-7c0-1.36-.53-2-1.74-2s-2.07.74-2.07,2.29v6.76h-4.16Z" fill="#fff"/><path d="M277.06,52.93h4.14c.18.87.72,1.57,2.23,1.57A2.29,2.29,0,0,0,286,52V50.11a4.26,4.26,0,0,1-3.77,2.22c-2.83,0-5.16-2.08-5.16-5.79v-.19c0-3.55,2.3-5.81,5.16-5.81a4,4,0,0,1,3.77,2V40.86h4.16v11c0,3.6-2.39,5.49-6.74,5.49C279.29,57.4,277.38,55.67,277.06,52.93Zm9.07-6.42v-.16c0-1.66-.86-2.72-2.4-2.72s-2.39,1.08-2.39,2.75v.18c0,1.66.88,2.72,2.37,2.72S286.13,48.22,286.13,46.51Z" fill="#fff"/><path d="M291.6,49.58c0-2.84,2.41-3.94,6.46-3.94h1.16v-.28c0-1.15-.28-1.91-1.6-1.91A1.48,1.48,0,0,0,296,44.88h-3.91c.19-2.91,2.49-4.34,5.81-4.34s5.49,1.36,5.49,4.57v7.82h-4V51.52a4,4,0,0,1-3.61,1.69C293.53,53.21,291.6,52.14,291.6,49.58Zm7.62-.87V48h-1.09c-1.67,0-2.42.32-2.42,1.31,0,.69.47,1.13,1.44,1.13C298.34,50.41,299.22,49.74,299.22,48.71Z" fill="#fff"/><path d="M305.23,50.85a2.31,2.31,0,0,1,2.37-2.33,2.33,2.33,0,1,1,0,4.66A2.31,2.31,0,0,1,305.23,50.85Z" fill="#fff"/><path d="M320.62,36.43h6.17l5.27,16.5h-5l-.89-3.07h-5.51l-.88,3.07H315.3Zm.93,10.18h3.65l-1.81-6.35Z" fill="#fff"/><path d="M337.42,51.06v1.87h-4.17V35.56h4.17v7.1a4.29,4.29,0,0,1,3.79-2.12c2.83,0,5.14,2.12,5.14,6.25V47c0,4.15-2.31,6.23-5.17,6.23A3.94,3.94,0,0,1,337.42,51.06ZM342.11,47v-.19c0-2.12-.93-3.14-2.39-3.14s-2.42,1.09-2.42,3.12V47c0,2.06.91,3.09,2.42,3.09S342.11,49,342.11,47Z" fill="#fff"/><path d="M347.77,37.59a2.3,2.3,0,1,1,2.28,2.12A2.17,2.17,0,0,1,347.77,37.59Zm.21,3.27h4.16V52.93H348Z" fill="#fff"/><path d="M353.72,47v-.18c0-3.88,2.91-6.32,6.58-6.32,3.33,0,6.19,1.89,6.19,6.23v1.08h-8.56a2.43,2.43,0,0,0,2.54,2.52c1.37,0,1.95-.63,2.11-1.43h3.91c-.37,2.72-2.49,4.27-6.16,4.27S353.72,51,353.72,47Zm8.72-1.52c-.07-1.45-.79-2.26-2.14-2.26A2.31,2.31,0,0,0,358,45.52Z" fill="#fff"/><path d="M367.93,40.86h4.17v2.4A3.83,3.83,0,0,1,376,40.7v3.85c-2.54-.07-3.93.72-3.93,2.66v5.72h-4.17Z" fill="#fff"/><path d="M378.29,49.05V43.68h-1.47V40.86h1.47V38.35h4.16v2.51h2.39v2.82h-2.39v5a1.1,1.1,0,0,0,1.23,1.27,3.23,3.23,0,0,0,1.19-.21v3.14a8.79,8.79,0,0,1-2.31.35C379.82,53.21,378.29,51.89,378.29,49.05Z" fill="#fff"/><path d="M385.77,47v-.18c0-3.88,2.91-6.32,6.68-6.32s6.63,2.38,6.63,6.2v.19c0,3.92-2.91,6.28-6.65,6.28S385.77,50.94,385.77,47Zm9.07-.06v-.19c0-2-.81-3.16-2.39-3.16S390,44.71,390,46.74v.19c0,2.08.81,3.21,2.42,3.21S394.84,49,394.84,47Z" fill="#fff"/><path d="M404.89,35.56H409V52.93h-4.14Z" fill="#fff"/><path d="M410.62,47v-.18c0-3.88,2.9-6.32,6.67-6.32s6.63,2.38,6.63,6.2v.19c0,3.92-2.91,6.28-6.65,6.28S410.62,50.94,410.62,47Zm9.06-.06v-.19c0-2-.81-3.16-2.39-3.16s-2.42,1.08-2.42,3.11v.19c0,2.08.81,3.21,2.42,3.21S419.68,49,419.68,47Z" fill="#fff"/><path d="M424.64,49.1h3.84c.14.87.53,1.36,1.72,1.36,1,0,1.49-.39,1.49-1s-.58-.86-2.26-1.09c-3.26-.41-4.63-1.36-4.63-3.87,0-2.68,2.4-4,5.21-4,3,0,5.09,1,5.37,3.9h-3.76a1.36,1.36,0,0,0-1.56-1.2c-.91,0-1.37.39-1.37.94s.55.81,2,1c3.37.41,5,1.29,5,3.87,0,2.86-2.14,4.16-5.51,4.16S424.73,51.77,424.64,49.1Z" fill="#fff"/><path d="M442,43.68h-1.54V40.86H442V39.8c0-3,1.88-4.43,4.76-4.43a7.91,7.91,0,0,1,1.91.25v3a3.59,3.59,0,0,0-1.14-.16,1.21,1.21,0,0,0-1.39,1.31v1.06h2.46v2.82h-2.46v9.25H442Z" fill="#fff"/><path d="M449.86,37.59a2.16,2.16,0,0,1,2.27-2.15,2.14,2.14,0,1,1,0,4.27A2.14,2.14,0,0,1,449.86,37.59Zm.2,3.27h4.17V52.93h-4.17Z" fill="#fff"/><path d="M456.46,40.86h4.16V42.8a4.29,4.29,0,0,1,4-2.26c2.35,0,4,1.45,4,4.54v7.85h-4.16v-7c0-1.36-.54-2-1.75-2s-2.07.74-2.07,2.29v6.76h-4.16Z" fill="#fff"/><path d="M470,47v-.18c0-3.88,2.91-6.32,6.59-6.32,3.32,0,6.18,1.89,6.18,6.23v1.08h-8.56a2.43,2.43,0,0,0,2.54,2.52c1.37,0,1.95-.63,2.11-1.43h3.91c-.37,2.72-2.49,4.27-6.16,4.27S470,51,470,47Zm8.73-1.52c-.07-1.45-.8-2.26-2.14-2.26a2.31,2.31,0,0,0-2.33,2.26Z" fill="#fff"/><path d="M483.49,49.1h3.84c.14.87.53,1.36,1.72,1.36,1,0,1.49-.39,1.49-1s-.59-.86-2.26-1.09C485,48,483.65,47,483.65,44.51c0-2.68,2.4-4,5.21-4,3,0,5.09,1,5.37,3.9h-3.77a1.35,1.35,0,0,0-1.55-1.2c-.91,0-1.37.39-1.37.94s.55.81,2,1c3.37.41,5,1.29,5,3.87,0,2.86-2.14,4.16-5.51,4.16S483.58,51.77,483.49,49.1Z" fill="#fff"/><path d="M122.4,72.58V72.4c0-4.11,2.28-6.3,5.16-6.3a4,4,0,0,1,3.75,2v-7h4.16V78.49h-4.16v-2a4.11,4.11,0,0,1-3.79,2.23C124.7,78.76,122.4,76.76,122.4,72.58Zm9-.07v-.18c0-2-.86-3.12-2.39-3.12s-2.4,1-2.4,3.14v.18c0,2,.91,3.07,2.35,3.07S131.42,74.56,131.42,72.51Z" fill="#fff"/><path d="M136.94,72.6v-.18c0-3.88,2.91-6.32,6.58-6.32,3.33,0,6.19,1.89,6.19,6.23v1.08h-8.56a2.43,2.43,0,0,0,2.53,2.52c1.38,0,2-.63,2.12-1.43h3.91c-.38,2.72-2.49,4.26-6.17,4.26S136.94,76.55,136.94,72.6Zm8.72-1.52c-.07-1.45-.79-2.26-2.14-2.26a2.3,2.3,0,0,0-2.32,2.26Z" fill="#fff"/><path d="M154.57,74.66h3.84c.14.87.53,1.36,1.72,1.36,1,0,1.49-.4,1.49-1s-.58-.86-2.26-1.09c-3.25-.41-4.63-1.36-4.63-3.87,0-2.68,2.4-4,5.21-4,3,0,5.1,1,5.37,3.9h-3.76A1.36,1.36,0,0,0,160,68.8c-.91,0-1.37.39-1.37.94s.56.81,2,1c3.38.42,5,1.3,5,3.88,0,2.86-2.14,4.15-5.51,4.15S154.66,77.33,154.57,74.66Z" fill="#fff"/><path d="M166.43,72.6v-.18c0-3.88,2.91-6.32,6.58-6.32,3.33,0,6.19,1.89,6.19,6.23v1.08h-8.56a2.43,2.43,0,0,0,2.54,2.52c1.37,0,1.95-.63,2.11-1.43h3.91c-.37,2.72-2.49,4.26-6.16,4.26S166.43,76.55,166.43,72.6Zm8.72-1.52c-.07-1.45-.79-2.26-2.14-2.26a2.31,2.31,0,0,0-2.32,2.26Z" fill="#fff"/><path d="M180.65,66.42h4.16v1.85a4.24,4.24,0,0,1,3.81-2.17,3.31,3.31,0,0,1,3.3,2,4.86,4.86,0,0,1,4-2c2.3,0,4,1.47,4,4.5v7.89h-4.16v-7.2c0-1.22-.6-1.82-1.56-1.82a1.79,1.79,0,0,0-1.86,2v7h-4.11v-7.2c0-1.22-.61-1.82-1.56-1.82a1.79,1.79,0,0,0-1.86,2v7h-4.16Z" fill="#fff"/><path d="M201.25,75.14c0-2.84,2.42-3.94,6.47-3.94h1.16v-.28c0-1.15-.28-1.92-1.6-1.92a1.49,1.49,0,0,0-1.65,1.43h-3.91c.19-2.9,2.49-4.33,5.81-4.33S213,67.46,213,70.67v7.82H209V77.08a4,4,0,0,1-3.6,1.68C203.18,78.76,201.25,77.7,201.25,75.14Zm7.63-.88v-.73h-1.09c-1.68,0-2.42.32-2.42,1.31,0,.69.46,1.13,1.44,1.13C208,76,208.88,75.3,208.88,74.26Z" fill="#fff"/><path d="M215.05,66.42h4.16v1.94a4.29,4.29,0,0,1,4-2.26c2.35,0,4,1.45,4,4.54v7.85H223v-7c0-1.36-.53-2-1.74-2s-2.07.74-2.07,2.29v6.76h-4.16Z" fill="#fff"/><path d="M228.51,75.14c0-2.84,2.42-3.94,6.47-3.94h1.16v-.28c0-1.15-.28-1.92-1.6-1.92a1.49,1.49,0,0,0-1.65,1.43H229c.19-2.9,2.49-4.33,5.81-4.33s5.49,1.36,5.49,4.57v7.82h-4V77.08a4,4,0,0,1-3.61,1.68C230.44,78.76,228.51,77.7,228.51,75.14Zm7.63-.88v-.73h-1.09c-1.67,0-2.42.32-2.42,1.31,0,.69.47,1.13,1.44,1.13C235.26,76,236.14,75.3,236.14,74.26Z" fill="#fff"/><path d="M250.35,77.26l-4.86-10.84H250l2.51,6.44,2.32-6.44h4l-6.51,16.1h-4Z" fill="#fff"/><path d="M264.12,66.42h4.17v1.8a4.3,4.3,0,0,1,3.79-2.12c2.84,0,5.14,2.12,5.14,6.25v.18c0,4.16-2.3,6.23-5.17,6.23a4,4,0,0,1-3.76-2.05v5.81h-4.17ZM273,72.53v-.18c0-2.12-.93-3.14-2.39-3.14s-2.42,1.09-2.42,3.12v.18c0,2,.91,3.09,2.42,3.09S273,74.52,273,72.53Z" fill="#fff"/><path d="M278.08,72.6v-.18c0-3.88,2.91-6.32,6.68-6.32s6.62,2.37,6.62,6.2v.19c0,3.92-2.9,6.27-6.65,6.27S278.08,76.5,278.08,72.6Zm9.07-.07v-.18c0-2-.81-3.16-2.39-3.16s-2.42,1.08-2.42,3.11v.19c0,2.07.81,3.2,2.42,3.2S287.15,74.54,287.15,72.53Z" fill="#fff"/><path d="M292.85,66.42H297v2.4a3.84,3.84,0,0,1,3.93-2.56v3.85c-2.53-.07-3.93.72-3.93,2.65v5.73h-4.16Z" fill="#fff"/><path d="M306.81,61.11H311V78.49h-4.14Z" fill="#fff"/><path d="M312.48,75.14c0-2.84,2.42-3.94,6.47-3.94h1.16v-.28c0-1.15-.28-1.92-1.6-1.92a1.5,1.5,0,0,0-1.66,1.43H313c.18-2.9,2.49-4.33,5.81-4.33s5.49,1.36,5.49,4.57v7.82H320.2V77.08a4,4,0,0,1-3.6,1.68C314.41,78.76,312.48,77.7,312.48,75.14Zm7.63-.88v-.73H319c-1.68,0-2.42.32-2.42,1.31,0,.69.46,1.13,1.44,1.13C319.23,76,320.11,75.3,320.11,74.26Z" fill="#fff"/><path d="M325.46,74.66h3.84c.14.87.53,1.36,1.72,1.36,1,0,1.49-.4,1.49-1s-.58-.86-2.26-1.09c-3.25-.41-4.63-1.36-4.63-3.87,0-2.68,2.4-4,5.21-4,3,0,5.1,1,5.38,3.9h-3.77a1.36,1.36,0,0,0-1.56-1.2c-.91,0-1.37.39-1.37.94s.56.81,2,1c3.38.42,5,1.3,5,3.88,0,2.86-2.13,4.15-5.51,4.15S325.56,77.33,325.46,74.66Z" fill="#fff"/><path d="M342.14,66.42h4.16v1.94a4.29,4.29,0,0,1,4-2.26c2.35,0,4,1.45,4,4.54v7.85h-4.16v-7c0-1.36-.54-2-1.75-2s-2.07.74-2.07,2.29v6.76h-4.16Z" fill="#fff"/><path d="M355.65,72.6v-.18c0-3.88,2.91-6.32,6.68-6.32S369,68.47,369,72.3v.19c0,3.92-2.91,6.27-6.66,6.27S355.65,76.5,355.65,72.6Zm9.07-.07v-.18c0-2-.81-3.16-2.39-3.16s-2.42,1.08-2.42,3.11v.19c0,2.07.81,3.2,2.42,3.2S364.72,74.54,364.72,72.53Z" fill="#fff"/><path d="M369.77,72.6v-.18c0-4,2.91-6.32,6.49-6.32,3,0,5.72,1.29,5.95,5h-3.9a1.8,1.8,0,0,0-2-1.76c-1.46,0-2.32,1-2.32,3.07v.19c0,2.1.81,3.18,2.39,3.18a2,2,0,0,0,2.12-2h3.74c-.11,3-2.18,5-6.11,5C372.54,78.76,369.77,76.66,369.77,72.6Z" fill="#fff"/><path d="M383.64,61.11h4.16v7.25a4.29,4.29,0,0,1,4-2.26c2.35,0,4,1.45,4,4.54v7.85h-4.16v-7c0-1.36-.53-2-1.74-2s-2.07.74-2.07,2.29v6.76h-4.16Z" fill="#fff"/><path d="M397.15,72.6v-.18c0-3.88,2.91-6.32,6.58-6.32,3.33,0,6.19,1.89,6.19,6.23v1.08h-8.56a2.42,2.42,0,0,0,2.53,2.52c1.38,0,2-.63,2.12-1.43h3.91c-.38,2.72-2.49,4.26-6.17,4.26S397.15,76.55,397.15,72.6Zm8.72-1.52c-.07-1.45-.79-2.26-2.14-2.26a2.29,2.29,0,0,0-2.32,2.26Z" fill="#fff"/><path d="M410.66,74.66h3.84c.14.87.54,1.36,1.72,1.36,1,0,1.49-.4,1.49-1s-.58-.86-2.26-1.09c-3.25-.41-4.62-1.36-4.62-3.87,0-2.68,2.39-4,5.21-4,3,0,5.09,1,5.37,3.9h-3.77a1.35,1.35,0,0,0-1.56-1.2c-.91,0-1.37.39-1.37.94s.56.81,2.05,1c3.37.42,5,1.3,5,3.88,0,2.86-2.14,4.15-5.51,4.15S410.76,77.33,410.66,74.66Z" fill="#fff"/><path d="M423,76.41a2.31,2.31,0,0,1,2.37-2.33,2.33,2.33,0,1,1,0,4.66A2.31,2.31,0,0,1,423,76.41Z" fill="#fff"/></g></g></g></svg>