<svg xmlns="http://www.w3.org/2000/svg" viewBox="0 0 300 600"><title>txt1</title><g id="Layer_2" data-name="Layer 2"><g id="_300x600" data-name="300x600" style="isolation:isolate"><g id="txt1"><path d="M22.14,41.55h15.6c15.24,0,23,7.62,23,20.94V63c0,13.38-7.92,21.48-23,21.48H22.14ZM37.32,75c7.32,0,10.56-3.84,10.56-11.82v-.48C47.88,54.51,44.64,51,37.2,51H34.5V75Z" fill="#fff"/><path d="M63.18,69.15v-.48c0-10.08,7.5-16.44,17.22-16.44s17.1,6.18,17.1,16.14v.48c0,10.2-7.5,16.32-17.16,16.32S63.18,79.29,63.18,69.15ZM86.58,69v-.48c0-5.28-2.1-8.22-6.18-8.22s-6.24,2.82-6.24,8.1v.48c0,5.4,2.1,8.34,6.24,8.34S86.58,74.19,86.58,69Z" fill="#fff"/><path d="M101.28,53.07H112v5c1.68-3.24,5.1-5.88,10.32-5.88,6.06,0,10.26,3.78,10.26,11.82v20.4H121.86V66.21c0-3.54-1.38-5.28-4.5-5.28S112,62.85,112,66.87V84.45H101.28Z" fill="#fff"/><path d="M136,56.43l4.8-15.66L150.24,44,142,58.77Z" fill="#fff"/><path d="M154.44,74.37v-14h-3.78V53.07h3.78V46.53h10.74v6.54h6.18v7.32h-6.18v13c0,2.28,1.14,3.3,3.18,3.3a8.18,8.18,0,0,0,3.06-.54v8.16a22.53,22.53,0,0,1-5.94.9C158.4,85.17,154.44,81.75,154.44,74.37Z" fill="#fff"/><path d="M21.48,99.27H32.16v45.18H21.48Z" fill="#fff"/><path d="M36.24,129.15v-.48c0-10.08,7.5-16.44,17-16.44,8.58,0,16,4.92,16,16.2v2.82H47.1c.3,4.14,2.7,6.54,6.54,6.54,3.54,0,5-1.62,5.46-3.72H69.18c-1,7.08-6.42,11.1-15.9,11.1C43.44,145.17,36.24,139.41,36.24,129.15Zm22.5-4c-.18-3.78-2-5.88-5.52-5.88-3.24,0-5.46,2.1-6,5.88Z" fill="#fff"/><path d="M71.4,135.75c0-7.38,6.24-10.26,16.68-10.26h3v-.72c0-3-.72-5-4.14-5a3.85,3.85,0,0,0-4.26,3.72H72.6c.48-7.56,6.42-11.28,15-11.28s14.16,3.54,14.16,11.88v20.34H91.32v-3.66c-1.5,2.28-4.26,4.38-9.3,4.38C76.38,145.17,71.4,142.41,71.4,135.75Zm19.68-2.28v-1.92H88.26c-4.32,0-6.24.84-6.24,3.42,0,1.8,1.2,2.94,3.72,2.94C88.8,137.91,91.08,136.17,91.08,133.47Z" fill="#fff"/><path d="M103.38,113.07h11.46l6.54,20.22,6.42-20.22h10.26L126.6,144.45H114.9Z" fill="#fff"/><path d="M137.4,129.15v-.48c0-10.08,7.5-16.44,17-16.44,8.58,0,16,4.92,16,16.2v2.82H148.26c.3,4.14,2.7,6.54,6.54,6.54,3.54,0,5-1.62,5.46-3.72h10.08c-1,7.08-6.42,11.1-15.9,11.1C144.6,145.17,137.4,139.41,137.4,129.15Zm22.5-4c-.18-3.78-2-5.88-5.52-5.88-3.24,0-5.46,2.1-6,5.88Z" fill="#fff"/><path d="M21.18,159.27H31.92v18.84c1.68-3.24,5.1-5.88,10.32-5.88,6.06,0,10.26,3.78,10.26,11.82v20.4H41.76V186.21c0-3.54-1.38-5.28-4.5-5.28s-5.34,1.92-5.34,5.94v17.58H21.18Z" fill="#fff"/><path d="M56,189.15v-.48c0-10.08,7.5-16.44,17.22-16.44s17.1,6.18,17.1,16.14v.48c0,10.2-7.5,16.32-17.16,16.32S56,199.29,56,189.15Zm23.4-.18v-.48c0-5.28-2.1-8.22-6.18-8.22S67,183.09,67,188.37v.48c0,5.4,2.1,8.34,6.24,8.34S79.44,194.19,79.44,189Z" fill="#fff"/><path d="M94.14,173.07h10.74v4.8a11,11,0,0,1,9.84-5.64c4.14,0,7,1.8,8.52,5.22a12.44,12.44,0,0,1,10.38-5.22c5.94,0,10.26,3.84,10.26,11.7v20.52H133.14V185.73c0-3.18-1.56-4.74-4-4.74-2.88,0-4.8,1.86-4.8,5.28v18.18H113.7V185.73c0-3.18-1.56-4.74-4-4.74-2.88,0-4.8,1.86-4.8,5.28v18.18H94.14Z" fill="#fff"/><path d="M147.42,189.15v-.48c0-10.08,7.5-16.44,17-16.44,8.58,0,16,4.92,16,16.2v2.82H158.28c.3,4.14,2.7,6.54,6.54,6.54,3.54,0,5-1.62,5.46-3.72h10.08c-1,7.08-6.42,11.1-15.9,11.1C154.62,205.17,147.42,199.41,147.42,189.15Zm22.5-4c-.18-3.78-2-5.88-5.52-5.88-3.24,0-5.46,2.1-6,5.88Z" fill="#fff"/><path d="M196.62,180.39h-4v-7.32h4v-2.76c0-7.8,4.86-11.52,12.3-11.52a19.14,19.14,0,0,1,4.92.66v7.86a9.86,9.86,0,0,0-2.94-.42c-2.52,0-3.6,1.38-3.6,3.42v2.76h6.36v7.32H207.3v24.06H196.62Z" fill="#fff"/><path d="M214.5,189.15v-.48c0-10.08,7.5-16.44,17.22-16.44s17.1,6.18,17.1,16.14v.48c0,10.2-7.5,16.32-17.16,16.32S214.5,199.29,214.5,189.15Zm23.4-.18v-.48c0-5.28-2.1-8.22-6.18-8.22s-6.24,2.82-6.24,8.1v.48c0,5.4,2.1,8.34,6.24,8.34S237.9,194.19,237.9,189Z" fill="#fff"/><path d="M252.6,173.07h10.74v6.24c2-4.68,5.28-6.72,10.14-6.66v10c-6.54-.18-10.14,1.86-10.14,6.9v14.88H252.6Z" fill="#fff"/><path d="M22.62,254.37v-14H18.84v-7.32h3.78v-6.54H33.36v6.54h6.18v7.32H33.36v13c0,2.28,1.14,3.3,3.18,3.3a8.18,8.18,0,0,0,3.06-.54v8.16a22.53,22.53,0,0,1-5.94.9C26.58,265.17,22.62,261.75,22.62,254.37Z" fill="#fff"/><path d="M41.94,255.75c0-7.38,6.24-10.26,16.68-10.26h3v-.72c0-3-.72-5-4.14-5a3.85,3.85,0,0,0-4.26,3.72H43.14c.48-7.56,6.42-11.28,15-11.28s14.16,3.54,14.16,11.88v20.34H61.86v-3.66c-1.5,2.28-4.26,4.38-9.3,4.38C46.92,265.17,41.94,262.41,41.94,255.75Zm19.68-2.28v-1.92H58.8c-4.32,0-6.24.84-6.24,3.42,0,1.8,1.2,2.94,3.72,2.94C59.34,257.91,61.62,256.17,61.62,253.47Z" fill="#fff"/><path d="M85.44,248.49l-9.78-15.42H88l4.86,8.28,4.74-8.28h11l-9.9,14.58,10.86,16.8H97.26l-5.58-9.36L86,264.45H75Z" fill="#fff"/><path d="M123.54,233.07h10.74v4.68a11.07,11.07,0,0,1,9.78-5.52c7.32,0,13.26,5.52,13.26,16.26V249c0,10.8-5.94,16.2-13.32,16.2-4.74,0-8.16-2.22-9.72-5.34V275H123.54ZM146.4,249v-.48c0-5.52-2.4-8.16-6.18-8.16s-6.24,2.82-6.24,8.1v.48c0,5.34,2.34,8,6.24,8S146.4,254.13,146.4,249Z" fill="#fff"/><path d="M161.22,233.07H172v6.24c2-4.68,5.28-6.72,10.14-6.66v10c-6.54-.18-10.14,1.86-10.14,6.9v14.88H161.22Z" fill="#fff"/><path d="M184,249.15v-.48c0-10.08,7.5-16.44,17-16.44,8.58,0,16,4.92,16,16.2v2.82H194.88c.3,4.14,2.7,6.54,6.54,6.54,3.54,0,5-1.62,5.46-3.72H217c-1,7.08-6.42,11.1-15.9,11.1C191.22,265.17,184,259.41,184,249.15Zm22.5-4c-.18-3.78-2-5.88-5.52-5.88-3.24,0-5.46,2.1-6,5.88Z" fill="#fff"/><path d="M220.68,233.07h10.74v4.68a11.07,11.07,0,0,1,9.78-5.52c7.32,0,13.26,5.52,13.26,16.26V249c0,10.8-5.94,16.2-13.32,16.2-4.74,0-8.16-2.22-9.72-5.34V275H220.68ZM243.54,249v-.48c0-5.52-2.4-8.16-6.18-8.16s-6.24,2.82-6.24,8.1v.48c0,5.34,2.34,8,6.24,8S243.54,254.13,243.54,249Z" fill="#fff"/><path d="M257.16,259.05a6,6,0,0,1,6.12-6.06,6.06,6.06,0,1,1,0,12.12A6,6,0,0,1,257.16,259.05Z" fill="#fff"/><rect width="300" height="600" fill="none"/></g></g></g></svg>