<svg xmlns="http://www.w3.org/2000/svg" viewBox="0 0 300 600"><title>h2</title><g id="Layer_2" data-name="Layer 2"><g id="rect"><rect width="300" height="600" fill="none"/></g><g id="Every_dollar_matters._Our_experts_will_get_your_max_refund." data-name="Every dollar  matters. Our  experts will  get your max refund."><path d="M26.81,123.68H47v6.44H35.13v5h9.43v6H35.13v5.3H47.62v6.45H26.81Z" fill="#fff"/><path d="M48.06,131.51h7.79l4.45,13.74,4.36-13.74h7l-7.79,21.33h-8Z" fill="#fff"/><path d="M71.19,142.44v-.33c0-6.85,5.1-11.17,11.54-11.17,5.84,0,10.85,3.34,10.85,11v1.92h-15c.21,2.81,1.84,4.44,4.45,4.44,2.41,0,3.42-1.1,3.71-2.53h6.85c-.65,4.82-4.36,7.55-10.81,7.55C76.08,153.33,71.19,149.41,71.19,142.44Zm15.3-2.69c-.13-2.57-1.39-4-3.76-4-2.2,0-3.71,1.43-4.08,4Z" fill="#fff"/><path d="M96.11,131.51h7.3v4.24a6.73,6.73,0,0,1,6.9-4.53V138c-4.45-.12-6.9,1.27-6.9,4.69v10.12h-7.3Z" fill="#fff"/><path d="M120,150.68l-8.52-19.17h7.91l4.4,11.38,4.08-11.38h7L123.4,160h-7Z" fill="#fff"/><path d="M143.06,142.4v-.33c0-7.26,4-11.13,9.05-11.13a6.91,6.91,0,0,1,6.57,3.59v-12.4H166v30.71h-7.3v-3.47a7.2,7.2,0,0,1-6.65,4C147.09,153.33,143.06,149.78,143.06,142.4Zm15.82-.13V142c0-3.59-1.51-5.51-4.2-5.51s-4.2,1.84-4.2,5.55v.33c0,3.59,1.59,5.42,4.12,5.42S158.88,145.91,158.88,142.27Z" fill="#fff"/><path d="M168.55,142.44v-.33c0-6.85,5.1-11.17,11.7-11.17s11.63,4.2,11.63,11v.32c0,6.94-5.1,11.1-11.67,11.1S168.55,149.33,168.55,142.44Zm15.91-.12V142c0-3.59-1.43-5.59-4.21-5.59s-4.24,1.92-4.24,5.51v.32c0,3.68,1.43,5.67,4.24,5.67S184.46,145.86,184.46,142.32Z" fill="#fff"/><path d="M194.65,122.13h7.26v30.71h-7.26Z" fill="#fff"/><path d="M206,122.13h7.26v30.71H206Z" fill="#fff"/><path d="M216,146.92c0-5,4.24-7,11.34-7h2v-.49c0-2-.49-3.38-2.81-3.38a2.62,2.62,0,0,0-2.9,2.52H216.8c.33-5.13,4.36-7.66,10.2-7.66s9.62,2.4,9.62,8.07v13.83h-7.1v-2.49c-1,1.55-2.89,3-6.32,3C219.37,153.33,216,151.45,216,146.92Zm13.38-1.54v-1.31h-1.92c-2.93,0-4.24.57-4.24,2.32,0,1.23.82,2,2.53,2C227.81,148.39,229.36,147.21,229.36,145.38Z" fill="#fff"/><path d="M240.17,131.51h7.3v4.24a6.73,6.73,0,0,1,6.89-4.53V138c-4.44-.12-6.89,1.27-6.89,4.69v10.12h-7.3Z" fill="#fff"/><path d="M26.16,183.51h7.3v3.26a7.46,7.46,0,0,1,6.69-3.83,5.8,5.8,0,0,1,5.79,3.54A8.48,8.48,0,0,1,53,182.94c4,0,7,2.61,7,7.95v14h-7.3V192.11c0-2.16-1.06-3.22-2.73-3.22-2,0-3.26,1.27-3.26,3.59v12.36H39.46V192.11c0-2.16-1.06-3.22-2.73-3.22-2,0-3.27,1.27-3.27,3.59v12.36h-7.3Z" fill="#fff"/><path d="M62.3,198.92c0-5,4.24-7,11.34-7h2v-.49c0-2-.49-3.38-2.82-3.38A2.61,2.61,0,0,0,70,190.6H63.12c.32-5.13,4.36-7.66,10.19-7.66s9.63,2.4,9.63,8.07v13.83h-7.1v-2.49c-1,1.55-2.9,3-6.32,3C65.68,205.33,62.3,203.45,62.3,198.92Zm13.38-1.54v-1.31H73.76c-2.94,0-4.24.57-4.24,2.32,0,1.23.81,2,2.53,2C74.13,200.39,75.68,199.21,75.68,197.38Z" fill="#fff"/><path d="M87.34,198v-9.51H84.77v-5h2.57v-4.45h7.3v4.45h4.2v5h-4.2v8.81a2,2,0,0,0,2.17,2.25,5.71,5.71,0,0,0,2.08-.37v5.55a15.58,15.58,0,0,1-4,.61C90,205.33,87.34,203,87.34,198Z" fill="#fff"/><path d="M102.6,198v-9.51H100v-5h2.57v-4.45h7.3v4.45h4.2v5h-4.2v8.81c0,1.55.77,2.25,2.16,2.25a5.63,5.63,0,0,0,2.08-.37v5.55a15.58,15.58,0,0,1-4,.61C105.29,205.33,102.6,203,102.6,198Z" fill="#fff"/><path d="M115.73,194.44v-.33c0-6.85,5.1-11.17,11.54-11.17,5.83,0,10.85,3.34,10.85,11v1.92h-15c.21,2.81,1.84,4.44,4.45,4.44,2.4,0,3.42-1.1,3.71-2.53h6.85c-.65,4.82-4.36,7.55-10.81,7.55C120.62,205.33,115.73,201.41,115.73,194.44ZM131,191.75c-.12-2.57-1.38-4-3.75-4-2.2,0-3.71,1.43-4.08,4Z" fill="#fff"/><path d="M140.65,183.51H148v4.24a6.73,6.73,0,0,1,6.89-4.53V190c-4.44-.12-6.89,1.27-6.89,4.69v10.12h-7.3Z" fill="#fff"/><path d="M156.15,198.07h6.73c.25,1.55.94,2.4,3,2.4,1.79,0,2.61-.69,2.61-1.75s-1-1.51-4-1.92c-5.71-.73-8.11-2.4-8.11-6.85,0-4.73,4.2-7,9.13-7,5.26,0,8.93,1.79,9.42,6.89h-6.6a2.39,2.39,0,0,0-2.74-2.12c-1.59,0-2.4.69-2.4,1.67s1,1.43,3.59,1.75c5.91.74,8.77,2.29,8.77,6.86,0,5-3.76,7.34-9.67,7.34C159.86,205.33,156.31,202.8,156.15,198.07Z" fill="#fff"/><path d="M177.69,201.17a4.06,4.06,0,0,1,4.16-4.12,4.12,4.12,0,1,1,0,8.24A4.07,4.07,0,0,1,177.69,201.17Z" fill="#fff"/><path d="M196.08,190.44v-.33c0-8.89,6.69-14.84,15.42-14.84,8.89,0,15.46,5.59,15.46,14.64v.33c0,9-6.16,15.09-15.58,15.09S196.08,199.21,196.08,190.44Zm22.15-.08V190c0-5.18-2.61-8.24-6.73-8.24s-6.69,3-6.69,8.28v.33c0,5.3,2.69,8.36,6.73,8.36S218.23,195.58,218.23,190.36Z" fill="#fff"/><path d="M229.61,197.42V183.51h7.3v12.72c0,2.41.94,3.59,3,3.59s3.63-1.3,3.63-4V183.51h7.3v21.33h-7.3v-3.3c-1.14,2.2-3.23,3.79-6.77,3.79C232.67,205.33,229.61,202.8,229.61,197.42Z" fill="#fff"/><path d="M254.57,183.51h7.3v4.24a6.73,6.73,0,0,1,6.89-4.53V190c-4.44-.12-6.89,1.27-6.89,4.69v10.12h-7.3Z" fill="#fff"/><path d="M25,246.44v-.33c0-6.85,5.1-11.17,11.54-11.17,5.84,0,10.85,3.34,10.85,11v1.92h-15c.21,2.81,1.84,4.44,4.45,4.44,2.4,0,3.42-1.1,3.71-2.53h6.85c-.65,4.82-4.36,7.55-10.81,7.55C29.91,257.33,25,253.41,25,246.44Zm15.29-2.69c-.12-2.57-1.38-4-3.75-4-2.2,0-3.71,1.43-4.08,4Z" fill="#fff"/><path d="M54.18,246l-6.65-10.48h8.41l3.3,5.63,3.22-5.63H70l-6.73,9.91,7.38,11.42h-8.4l-3.8-6.36-3.87,6.36H47.09Z" fill="#fff"/><path d="M72.66,235.51H80v3.18a7.53,7.53,0,0,1,6.65-3.75c5,0,9,3.75,9,11.05v.33c0,7.34-4,11-9.05,11-3.23,0-5.55-1.51-6.61-3.63V264h-7.3ZM88.2,246.32V246c0-3.75-1.63-5.55-4.2-5.55s-4.24,1.92-4.24,5.51v.32c0,3.64,1.59,5.47,4.24,5.47S88.2,249.82,88.2,246.32Z" fill="#fff"/><path d="M97.13,246.44v-.33c0-6.85,5.1-11.17,11.54-11.17,5.84,0,10.85,3.34,10.85,11v1.92h-15c.21,2.81,1.84,4.44,4.45,4.44,2.41,0,3.42-1.1,3.71-2.53h6.85c-.65,4.82-4.36,7.55-10.81,7.55C102,257.33,97.13,253.41,97.13,246.44Zm15.3-2.69c-.13-2.57-1.39-4-3.76-4-2.2,0-3.71,1.43-4.08,4Z" fill="#fff"/><path d="M122.05,235.51h7.3v4.24a6.73,6.73,0,0,1,6.9-4.53V242c-4.45-.12-6.9,1.27-6.9,4.69v10.12h-7.3Z" fill="#fff"/><path d="M140.2,250v-9.51h-2.57v-5h2.57v-4.45h7.3v4.45h4.2v5h-4.2v8.81a2,2,0,0,0,2.16,2.25,5.63,5.63,0,0,0,2.08-.37v5.55a15.42,15.42,0,0,1-4,.61C142.89,257.33,140.2,255,140.2,250Z" fill="#fff"/><path d="M153.33,250.07h6.73c.25,1.55.94,2.4,3,2.4,1.8,0,2.61-.69,2.61-1.75s-1-1.51-3.95-1.92c-5.71-.73-8.12-2.4-8.12-6.85,0-4.73,4.2-7,9.14-7,5.26,0,8.93,1.79,9.42,6.89h-6.61a2.38,2.38,0,0,0-2.73-2.12c-1.59,0-2.41.69-2.41,1.67s1,1.43,3.59,1.75c5.91.74,8.77,2.29,8.77,6.86,0,5-3.75,7.34-9.67,7.34C157,257.33,153.5,254.8,153.33,250.07Z" fill="#fff"/><path d="M180.78,235.51h7.63l3.1,12.76,3.59-12.76H201l3.19,12.76,3.46-12.76h6.94l-6.77,21.33h-7l-3.18-11.91-3.3,11.91h-7.1Z" fill="#fff"/><path d="M216.27,229.72a4,4,0,1,1,4,3.75A3.81,3.81,0,0,1,216.27,229.72Zm.37,5.79h7.3v21.33h-7.3Z" fill="#fff"/><path d="M228.06,226.13h7.26v30.71h-7.26Z" fill="#fff"/><path d="M239.44,226.13h7.26v30.71h-7.26Z" fill="#fff"/><path d="M25,308.84h7.26c.33,1.55,1.26,2.77,3.91,2.77,3.23,0,4.53-1.83,4.53-4.48v-3.27a7.48,7.48,0,0,1-6.61,3.92c-5,0-9-3.67-9-10.24v-.33c0-6.28,4-10.27,9.05-10.27,3.39,0,5.39,1.42,6.61,3.59v-3H48V307c0,6.37-4.2,9.71-11.83,9.71C28.89,316.75,25.55,313.69,25,308.84ZM40.89,297.5v-.29c0-2.93-1.51-4.81-4.21-4.81s-4.2,1.92-4.2,4.86v.32c0,2.94,1.55,4.81,4.16,4.81S40.89,300.52,40.89,297.5Z" fill="#fff"/><path d="M50.55,298.44v-.33c0-6.85,5.1-11.17,11.54-11.17,5.84,0,10.85,3.34,10.85,11v1.92h-15c.21,2.81,1.84,4.44,4.45,4.44,2.41,0,3.43-1.1,3.71-2.53h6.85c-.65,4.82-4.36,7.55-10.8,7.55C55.45,309.33,50.55,305.41,50.55,298.44Zm15.3-2.69c-.13-2.57-1.39-4-3.76-4-2.2,0-3.71,1.43-4.07,4Z" fill="#fff"/><path d="M76.45,302v-9.51H73.88v-5h2.57v-4.45h7.3v4.45H88v5h-4.2v8.81a2,2,0,0,0,2.16,2.25,5.63,5.63,0,0,0,2.08-.37v5.55a15.42,15.42,0,0,1-4,.61C79.14,309.33,76.45,307,76.45,302Z" fill="#fff"/><path d="M104.84,306.68l-8.53-19.17h7.92l4.4,11.38,4.08-11.38h7L108.26,316h-7Z" fill="#fff"/><path d="M119.28,298.44v-.33c0-6.85,5.1-11.17,11.7-11.17s11.63,4.2,11.63,11v.32c0,6.94-5.1,11.1-11.67,11.1S119.28,305.33,119.28,298.44Zm15.9-.12V298c0-3.59-1.42-5.59-4.2-5.59s-4.24,1.92-4.24,5.51v.32c0,3.68,1.43,5.67,4.24,5.67S135.18,301.86,135.18,298.32Z" fill="#fff"/><path d="M145,301.42V287.51h7.3v12.72c0,2.41.94,3.59,3,3.59s3.63-1.3,3.63-4V287.51h7.3v21.33H159v-3.3c-1.14,2.2-3.22,3.79-6.77,3.79C148.07,309.33,145,306.8,145,301.42Z" fill="#fff"/><path d="M170,287.51h7.3v4.24a6.72,6.72,0,0,1,6.89-4.53V294c-4.45-.12-6.89,1.27-6.89,4.69v10.12H170Z" fill="#fff"/><path d="M194.25,287.51h7.3v3.26a7.44,7.44,0,0,1,6.68-3.83,5.82,5.82,0,0,1,5.8,3.54,8.45,8.45,0,0,1,7.05-3.54c4,0,7,2.61,7,7.95v13.95h-7.3V296.11c0-2.16-1.06-3.22-2.74-3.22-2,0-3.26,1.27-3.26,3.59v12.36h-7.22V296.11c0-2.16-1.06-3.22-2.73-3.22-2,0-3.26,1.27-3.26,3.59v12.36h-7.3Z" fill="#fff"/><path d="M230.38,302.92c0-5,4.24-7,11.34-7h2v-.49c0-2-.49-3.38-2.81-3.38a2.62,2.62,0,0,0-2.9,2.52H231.2c.32-5.13,4.36-7.66,10.19-7.66S251,289.34,251,295v13.83h-7.1v-2.49c-1,1.55-2.89,3-6.32,3C233.77,309.33,230.38,307.45,230.38,302.92Zm13.38-1.54v-1.31h-1.92c-2.93,0-4.24.57-4.24,2.32,0,1.23.82,2,2.53,2C242.21,304.39,243.76,303.21,243.76,301.38Z" fill="#fff"/><path d="M260,298l-6.65-10.48h8.41l3.3,5.63,3.22-5.63h7.51L269,297.42l7.38,11.42H268l-3.8-6.36-3.87,6.36h-7.47Z" fill="#fff"/><path d="M26.16,339.51h7.3v4.24a6.73,6.73,0,0,1,6.9-4.53V346c-4.45-.12-6.9,1.27-6.9,4.69v10.12h-7.3Z" fill="#fff"/><path d="M41.66,350.44v-.33c0-6.85,5.1-11.17,11.54-11.17,5.84,0,10.85,3.34,10.85,11v1.92H49c.21,2.81,1.84,4.44,4.45,4.44,2.41,0,3.43-1.1,3.71-2.53h6.85c-.65,4.82-4.36,7.55-10.81,7.55C46.56,361.33,41.66,357.41,41.66,350.44ZM57,347.75c-.13-2.57-1.39-4-3.76-4-2.2,0-3.71,1.43-4.07,4Z" fill="#fff"/><path d="M67.68,344.48H65v-5h2.69v-1.88c0-5.3,3.31-7.83,8.36-7.83a12.81,12.81,0,0,1,3.35.45v5.34a6.81,6.81,0,0,0-2-.28,2.14,2.14,0,0,0-2.45,2.32v1.88h4.33v5H74.94v16.36H67.68Z" fill="#fff"/><path d="M81.55,353.42V339.51h7.3v12.72c0,2.41.94,3.59,3,3.59s3.63-1.3,3.63-4V339.51h7.3v21.33H95.5v-3.3c-1.14,2.2-3.22,3.79-6.77,3.79C84.61,361.33,81.55,358.8,81.55,353.42Z" fill="#fff"/><path d="M106.51,339.51h7.3v3.42a7.53,7.53,0,0,1,7-4c4.12,0,7,2.57,7,8v13.87h-7.3v-12.4c0-2.41-.94-3.59-3.06-3.59s-3.63,1.31-3.63,4v11.95h-7.3Z" fill="#fff"/><path d="M130.29,350.4v-.33c0-7.26,4-11.13,9.05-11.13,3.35,0,5.35,1.42,6.57,3.59v-12.4h7.3v30.71h-7.3v-3.47a7.2,7.2,0,0,1-6.65,4C134.33,361.33,130.29,357.78,130.29,350.4Zm15.82-.12V350c0-3.59-1.5-5.51-4.2-5.51s-4.2,1.84-4.2,5.55v.33c0,3.59,1.59,5.42,4.12,5.42S146.11,353.91,146.11,350.28Z" fill="#fff"/><path d="M156.64,357.17a4.06,4.06,0,0,1,4.16-4.12,4.12,4.12,0,1,1,0,8.24A4.07,4.07,0,0,1,156.64,357.17Z" fill="#fff"/></g></g></svg>