<svg xmlns="http://www.w3.org/2000/svg" viewBox="0 0 153 35"><title>find a tax pro</title><g id="Layer_2" data-name="Layer 2"><g id="CTA"><g id="Rectangle_1" data-name="Rectangle 1"><rect width="153" height="35" fill="none"/></g><g id="Find_a_tax_pro" data-name="Find a tax pro"><path d="M27.66,10.54H35v2H30.25v3H34v2H30.25V22H27.66Z" fill="#262626"/><path d="M36,11.21a1.32,1.32,0,0,1,2.64,0,1.32,1.32,0,0,1-2.64,0Zm.18,2.4h2.3V22h-2.3Z" fill="#262626"/><path d="M40.38,13.61H42.7v1.33a2.88,2.88,0,0,1,2.72-1.52c1.65,0,2.82,1,2.82,3.23V22H45.92V17c0-1.14-.45-1.69-1.47-1.69a1.66,1.66,0,0,0-1.75,1.85V22H40.38Z" fill="#262626"/><path d="M49.48,17.91v-.12c0-2.76,1.59-4.37,3.69-4.37a2.79,2.79,0,0,1,2.64,1.44v-5h2.3V22h-2.3V20.59a3,3,0,0,1-2.69,1.57C51.08,22.16,49.48,20.7,49.48,17.91Zm6.39-.08v-.12c0-1.67-.74-2.52-2-2.52s-2,.88-2,2.55v.13c0,1.66.8,2.48,2,2.48S55.87,19.53,55.87,17.83Z" fill="#262626"/><path d="M62.7,19.66c0-1.95,1.79-2.69,4.35-2.69h1v-.34c0-1-.31-1.53-1.36-1.53a1.27,1.27,0,0,0-1.43,1.18H63c.14-2,1.71-2.86,3.76-2.86s3.51.83,3.51,3.1V22H68V21a2.86,2.86,0,0,1-2.53,1.19C64,22.16,62.7,21.42,62.7,19.66Zm5.3-.61v-.7h-.9c-1.34,0-2.13.28-2.13,1.18,0,.61.37,1,1.22,1C67.21,20.54,68,20,68,19.05Z" fill="#262626"/><path d="M75.69,19.5V15.26H74.62V13.61h1.07V11.8H78v1.81h1.76v1.65H78v4c0,.67.33,1,.93,1a2.23,2.23,0,0,0,.88-.16v1.8a4.32,4.32,0,0,1-1.41.22A2.39,2.39,0,0,1,75.69,19.5Z" fill="#262626"/><path d="M80.64,19.66C80.64,17.71,82.43,17,85,17h.94v-.34c0-1-.3-1.53-1.36-1.53a1.25,1.25,0,0,0-1.42,1.18H81c.14-2,1.71-2.86,3.76-2.86s3.5.83,3.5,3.1V22H86V21a2.86,2.86,0,0,1-2.53,1.19C81.92,22.16,80.64,21.42,80.64,19.66Zm5.29-.61v-.7H85c-1.35,0-2.13.28-2.13,1.18,0,.61.37,1,1.21,1C85.15,20.54,85.93,20,85.93,19.05Z" fill="#262626"/><path d="M92.08,17.71l-2.68-4.1h2.66l1.57,2.51,1.54-2.51h2.4l-2.68,3.92,3,4.45H95.17l-1.76-2.82L91.6,22H89.21Z" fill="#262626"/><path d="M102.22,13.61h2.32v1.31a3.1,3.1,0,0,1,2.67-1.5c2.05,0,3.65,1.52,3.65,4.29v.12c0,2.77-1.57,4.33-3.65,4.33a2.92,2.92,0,0,1-2.67-1.46v4.13h-2.32Zm6.29,4.24v-.13c0-1.69-.83-2.53-2-2.53s-2.05.85-2.05,2.53v.13c0,1.68.8,2.5,2.07,2.5S108.51,19.48,108.51,17.85Z" fill="#262626"/><path d="M112.17,13.61h2.32v1.6a2.76,2.76,0,0,1,2.71-1.73v2.16c-1.72,0-2.71.55-2.71,2.15V22h-2.32Z" fill="#262626"/><path d="M117.82,17.88v-.13a4.41,4.41,0,0,1,8.82,0v.12a4.41,4.41,0,0,1-8.82.05Zm6.47,0v-.11c0-1.6-.76-2.56-2.05-2.56s-2,.93-2,2.53v.12c0,1.6.73,2.56,2,2.56S124.29,19.43,124.29,17.85Z" fill="#262626"/></g></g></g></svg>