<svg xmlns="http://www.w3.org/2000/svg" viewBox="0 0 300 600"><title>Asset 19</title><g id="Layer_2" data-name="Layer 2"><g id="Rect"><rect width="300" height="600" fill="none"/></g><g id="Get_your_very_own_deduction_detector." data-name="Get your very own deduction detector."><path d="M20.66,159.4V159c0-11.66,8.56-19.52,20.06-19.52,9,0,17.07,4.12,17.81,14.07H47.67c-.53-3.59-2.83-5.46-6.9-5.46-5.4,0-8.66,4.17-8.66,11.07v.43c0,6.21,2.3,11,8.93,11,5.35,0,7.38-2.73,7.6-5.78H41.47v-7.65h18v4.71c0,9.74-6.36,17.07-18.72,17.07C27.72,178.93,20.66,170.85,20.66,159.4Z" fill="#fff"/><path d="M61.64,164.64v-.42c0-9,6.69-14.66,15.14-14.66C84.43,149.56,91,153.94,91,164v2.52H71.32c.27,3.69,2.41,5.83,5.83,5.83,3.16,0,4.5-1.45,4.87-3.32h9c-.86,6.31-5.73,9.9-14.18,9.9C68.06,178.93,61.64,173.79,61.64,164.64Zm20.06-3.53c-.16-3.37-1.82-5.24-4.92-5.24-2.89,0-4.87,1.87-5.35,5.24Z" fill="#fff"/><path d="M95.61,169.3V156.83H92.24v-6.52h3.37v-5.84h9.58v5.84h5.51v6.52h-5.51v11.56c0,2,1,2.94,2.83,2.94a7.34,7.34,0,0,0,2.73-.48v7.27a19.68,19.68,0,0,1-5.3.81C99.14,178.93,95.61,175.88,95.61,169.3Z" fill="#fff"/><path d="M132.85,175.45l-11.19-25.14H132l5.78,14.92,5.35-14.92h9.15l-15,37.34h-9.15Z" fill="#fff"/><path d="M151.78,164.64v-.42c0-9,6.69-14.66,15.36-14.66s15.24,5.51,15.24,14.39v.43c0,9.09-6.68,14.55-15.3,14.55S151.78,173.68,151.78,164.64Zm20.87-.16v-.43c0-4.7-1.87-7.32-5.51-7.32s-5.57,2.51-5.57,7.22v.43c0,4.81,1.88,7.43,5.57,7.43S172.65,169.14,172.65,164.48Z" fill="#fff"/><path d="M185.54,168.55V150.31h9.58V167c0,3.15,1.23,4.71,4,4.71,2.89,0,4.76-1.72,4.76-5.3v-16.1h9.58v28h-9.58V174c-1.5,2.89-4.23,5-8.88,5C189.55,178.93,185.54,175.61,185.54,168.55Z" fill="#fff"/><path d="M218.28,150.31h9.58v5.56c1.76-4.17,4.71-6,9-5.94v8.94c-5.83-.16-9,1.65-9,6.15v13.27h-9.58Z" fill="#fff"/><path d="M19.43,203.81H29.65l5.83,18,5.72-18h9.15l-10.22,28H29.7Z" fill="#fff"/><path d="M49.76,218.14v-.42c0-9,6.69-14.66,15.14-14.66,7.65,0,14.23,4.38,14.23,14.44V220H59.44c.27,3.69,2.41,5.83,5.84,5.83,3.15,0,4.49-1.45,4.86-3.32h9c-.85,6.31-5.72,9.9-14.17,9.9C56.18,232.43,49.76,227.29,49.76,218.14Zm20.06-3.53c-.16-3.37-1.82-5.24-4.92-5.24-2.89,0-4.87,1.87-5.35,5.24Z" fill="#fff"/><path d="M82.45,203.81H92v5.56c1.76-4.17,4.7-6,9-5.94v8.94c-5.83-.16-9,1.65-9,6.15v13.27H82.45Z" fill="#fff"/><path d="M113.75,229l-11.18-25.14h10.37l5.78,14.92,5.35-14.92h9.15l-15,37.34h-9.15Z" fill="#fff"/><path d="M143.92,218.14v-.42c0-9,6.69-14.66,15.35-14.66s15.25,5.51,15.25,14.39v.43c0,9.09-6.69,14.55-15.3,14.55S143.92,227.18,143.92,218.14Zm20.86-.16v-.43c0-4.7-1.87-7.32-5.51-7.32s-5.56,2.51-5.56,7.22v.43c0,4.81,1.87,7.43,5.56,7.43S164.78,222.64,164.78,218Z" fill="#fff"/><path d="M174.63,203.81h10l4.07,16.74,4.71-16.74h7.7l4.17,16.74,4.55-16.74h9.09l-8.88,28H200.9l-4.18-15.63-4.33,15.63h-9.31Z" fill="#fff"/><path d="M221.39,203.81H231v4.49a9.88,9.88,0,0,1,9.2-5.24c5.41,0,9.15,3.37,9.15,10.54v18.19h-9.57V215.52c0-3.15-1.23-4.71-4-4.71s-4.76,1.72-4.76,5.3v15.68h-9.57Z" fill="#fff"/><path d="M20.44,271.59v-.43c0-9.52,5.25-14.6,11.88-14.6,4.39,0,7,1.87,8.61,4.7V245h9.58v40.29H40.93v-4.55a9.42,9.42,0,0,1-8.72,5.19C25.74,285.93,20.44,281.27,20.44,271.59Zm20.76-.16V271c0-4.71-2-7.22-5.51-7.22s-5.51,2.41-5.51,7.27v.43c0,4.71,2.09,7.12,5.4,7.12C39.06,278.6,41.2,276.19,41.2,271.43Z" fill="#fff"/><path d="M53.88,271.64v-.42c0-9,6.69-14.66,15.14-14.66,7.65,0,14.23,4.38,14.23,14.44v2.52H63.56c.27,3.69,2.41,5.83,5.84,5.83,3.15,0,4.49-1.45,4.86-3.32h9c-.85,6.31-5.72,9.9-14.17,9.9C60.3,285.93,53.88,280.79,53.88,271.64Zm20.06-3.53c-.16-3.37-1.82-5.24-4.92-5.24-2.89,0-4.87,1.87-5.35,5.24Z" fill="#fff"/><path d="M85.18,271.59v-.43c0-9.52,5.24-14.6,11.88-14.6,4.38,0,7,1.87,8.61,4.7V245h9.57v40.29h-9.57v-4.55A9.43,9.43,0,0,1,97,285.93C90.48,285.93,85.18,281.27,85.18,271.59Zm20.76-.16V271c0-4.71-2-7.22-5.51-7.22s-5.51,2.41-5.51,7.27v.43c0,4.71,2.08,7.12,5.4,7.12C103.8,278.6,105.94,276.19,105.94,271.43Z" fill="#fff"/><path d="M119.9,275.55V257.31h9.58V274c0,3.15,1.23,4.71,4,4.71,2.88,0,4.76-1.72,4.76-5.3v-16.1h9.57v28H138.2V281c-1.5,2.89-4.23,5-8.88,5C123.91,285.93,119.9,282.61,119.9,275.55Z" fill="#fff"/><path d="M151.14,271.64v-.42c0-9.31,6.69-14.66,14.93-14.66,6.85,0,13.16,3,13.69,11.5h-9c-.43-2.62-1.71-4.07-4.5-4.07-3.37,0-5.35,2.41-5.35,7.12v.43c0,4.86,1.88,7.38,5.51,7.38,2.68,0,4.55-1.61,4.87-4.66h8.61c-.26,7.07-5,11.67-14.06,11.67C157.51,285.93,151.14,281.06,151.14,271.64Z" fill="#fff"/><path d="M184.31,276.3V263.83h-3.37v-6.52h3.37v-5.84h9.58v5.84h5.51v6.52h-5.51v11.56c0,2,1,2.94,2.83,2.94a7.3,7.3,0,0,0,2.73-.48v7.27a19.67,19.67,0,0,1-5.29.81C187.84,285.93,184.31,282.88,184.31,276.3Z" fill="#fff"/><path d="M202.82,249.71a5.28,5.28,0,1,1,5.25,4.92A5,5,0,0,1,202.82,249.71Zm.48,7.6h9.58v28H203.3Z" fill="#fff"/><path d="M216.52,271.64v-.42c0-9,6.69-14.66,15.35-14.66s15.25,5.51,15.25,14.39v.43c0,9.09-6.69,14.55-15.3,14.55S216.52,280.68,216.52,271.64Zm20.86-.16v-.43c0-4.7-1.87-7.32-5.51-7.32s-5.56,2.51-5.56,7.22v.43c0,4.81,1.87,7.43,5.56,7.43S237.38,276.14,237.38,271.48Z" fill="#fff"/><path d="M250.49,257.31h9.58v4.49a9.88,9.88,0,0,1,9.2-5.24c5.4,0,9.15,3.37,9.15,10.54v18.19h-9.58V269c0-3.15-1.23-4.71-4-4.71s-4.76,1.72-4.76,5.3v15.68h-9.58Z" fill="#fff"/><path d="M20.44,325.09v-.43c0-9.52,5.25-14.6,11.88-14.6,4.39,0,7,1.87,8.61,4.7V298.5h9.58v40.29H40.93v-4.55a9.42,9.42,0,0,1-8.72,5.19C25.74,339.43,20.44,334.77,20.44,325.09Zm20.76-.16v-.43c0-4.71-2-7.22-5.51-7.22s-5.51,2.41-5.51,7.27V325c0,4.71,2.09,7.12,5.4,7.12C39.06,332.1,41.2,329.69,41.2,324.93Z" fill="#fff"/><path d="M53.88,325.14v-.43c0-9,6.69-14.65,15.14-14.65,7.65,0,14.23,4.38,14.23,14.44V327H63.56c.27,3.69,2.41,5.83,5.84,5.83,3.15,0,4.49-1.45,4.86-3.32h9c-.85,6.31-5.72,9.9-14.17,9.9C60.3,339.43,53.88,334.29,53.88,325.14Zm20.06-3.53c-.16-3.37-1.82-5.24-4.92-5.24-2.89,0-4.87,1.87-5.35,5.24Z" fill="#fff"/><path d="M87.85,329.8V317.33H84.48v-6.52h3.37V305h9.58v5.84h5.51v6.52H97.43v11.56c0,2,1,2.94,2.84,2.94a7.29,7.29,0,0,0,2.72-.48v7.27a19.67,19.67,0,0,1-5.29.81C91.38,339.43,87.85,336.38,87.85,329.8Z" fill="#fff"/><path d="M105.08,325.14v-.43c0-9,6.69-14.65,15.14-14.65,7.65,0,14.23,4.38,14.23,14.44V327H114.76c.27,3.69,2.41,5.83,5.83,5.83,3.16,0,4.5-1.45,4.87-3.32h9c-.86,6.31-5.72,9.9-14.18,9.9C111.5,339.43,105.08,334.29,105.08,325.14Zm20.06-3.53c-.16-3.37-1.82-5.24-4.92-5.24-2.89,0-4.87,1.87-5.35,5.24Z" fill="#fff"/><path d="M136.27,325.14v-.43c0-9.3,6.69-14.65,14.93-14.65,6.84,0,13.16,3,13.69,11.5h-9c-.42-2.62-1.71-4.07-4.49-4.07-3.37,0-5.35,2.41-5.35,7.12V325c0,4.86,1.87,7.38,5.51,7.38,2.68,0,4.55-1.61,4.87-4.66h8.61c-.27,7.07-5,11.67-14.07,11.67C142.64,339.43,136.27,334.56,136.27,325.14Z" fill="#fff"/><path d="M169.44,329.8V317.33h-3.37v-6.52h3.37V305H179v5.84h5.51v6.52H179v11.56c0,2,1,2.94,2.83,2.94a7.34,7.34,0,0,0,2.73-.48v7.27a19.68,19.68,0,0,1-5.3.81C173,339.43,169.44,336.38,169.44,329.8Z" fill="#fff"/><path d="M186.67,325.14v-.43c0-9,6.68-14.65,15.35-14.65s15.25,5.51,15.25,14.39v.43c0,9.09-6.69,14.55-15.3,14.55S186.67,334.18,186.67,325.14Zm20.86-.16v-.43c0-4.7-1.87-7.32-5.51-7.32s-5.56,2.51-5.56,7.22v.43c0,4.81,1.87,7.43,5.56,7.43S207.53,329.64,207.53,325Z" fill="#fff"/><path d="M220.64,310.81h9.57v5.56c1.77-4.17,4.71-6,9-5.94v8.94c-5.84-.16-9,1.65-9,6.15v13.27h-9.57Z" fill="#fff"/><path d="M239.15,334a5.33,5.33,0,0,1,5.46-5.4,5.4,5.4,0,1,1,0,10.8A5.33,5.33,0,0,1,239.15,334Z" fill="#fff"/></g></g></svg>