<svg xmlns="http://www.w3.org/2000/svg" viewBox="0 0 728 90"><title>H42T3</title><g id="Layer_2" data-name="Layer 2"><g id="Rect"><rect width="728" height="90" fill="none"/></g><g id="H42"><g id="Tax_pros_standing_by_with_answers_advice_and_fast-typing_finge" data-name="Tax pros standing by with answers, advice and fast-typing finge"><path d="M125.47,24.2h-4.91V20h15.29V24.2h-4.91V39h-5.47Z" fill="#fff"/><path d="M134.9,35.14c0-3.26,2.76-4.54,7.38-4.54h1.32v-.32c0-1.32-.32-2.2-1.83-2.2a1.7,1.7,0,0,0-1.88,1.65h-4.46c.21-3.35,2.84-5,6.63-5s6.27,1.57,6.27,5.26v9h-4.62V37.37a4.56,4.56,0,0,1-4.12,1.94C137.1,39.31,134.9,38.09,134.9,35.14Zm8.7-1v-.85h-1.24c-1.92,0-2.77.38-2.77,1.52,0,.79.54,1.3,1.65,1.3A2.09,2.09,0,0,0,143.6,34.13Z" fill="#fff"/><path d="M154.14,31.93l-4.32-6.82h5.47l2.15,3.66,2.09-3.66h4.89L160,31.56l4.8,7.43h-5.47l-2.47-4.14L154.38,39h-4.86Z" fill="#fff"/><path d="M171,25.11h4.75v2.07a4.91,4.91,0,0,1,4.33-2.45c3.24,0,5.87,2.45,5.87,7.2v.21c0,4.78-2.63,7.17-5.89,7.17A4.59,4.59,0,0,1,175.75,37v6.69H171Zm10.12,7v-.21c0-2.44-1.06-3.61-2.74-3.61s-2.76,1.25-2.76,3.58v.22c0,2.36,1,3.55,2.76,3.55S181.12,34.43,181.12,32.14Z" fill="#fff"/><path d="M187.68,25.11h4.75v2.76a4.36,4.36,0,0,1,4.48-2.95v4.43c-2.89-.08-4.48.83-4.48,3.06V39h-4.75Z" fill="#fff"/><path d="M197.76,32.22V32c0-4.46,3.32-7.28,7.62-7.28S213,27.47,213,31.88v.21c0,4.51-3.32,7.22-7.59,7.22S197.76,36.71,197.76,32.22Zm10.36-.08v-.21c0-2.34-.93-3.64-2.74-3.64s-2.76,1.25-2.76,3.59v.21c0,2.39.93,3.69,2.76,3.69S208.12,34.45,208.12,32.14Z" fill="#fff"/><path d="M213.77,34.58h4.38c.16,1,.61,1.57,2,1.57,1.17,0,1.7-.45,1.7-1.14s-.67-1-2.58-1.25c-3.71-.48-5.28-1.57-5.28-4.46,0-3.08,2.73-4.57,5.95-4.57,3.42,0,5.81,1.17,6.13,4.49h-4.3A1.55,1.55,0,0,0,220,27.84c-1,0-1.57.45-1.57,1.09s.64.93,2.34,1.14c3.85.48,5.71,1.49,5.71,4.46,0,3.29-2.44,4.78-6.29,4.78S213.88,37.66,213.77,34.58Z" fill="#fff"/><path d="M231.88,34.58h4.38c.16,1,.61,1.57,2,1.57,1.16,0,1.69-.45,1.69-1.14s-.66-1-2.57-1.25c-3.72-.48-5.28-1.57-5.28-4.46,0-3.08,2.73-4.57,5.94-4.57,3.43,0,5.82,1.17,6.14,4.49h-4.3a1.55,1.55,0,0,0-1.78-1.38c-1,0-1.57.45-1.57,1.09s.64.93,2.34,1.14c3.85.48,5.7,1.49,5.7,4.46,0,3.29-2.44,4.78-6.29,4.78S232,37.66,231.88,34.58Z" fill="#fff"/><path d="M246.72,34.53V28.35h-1.67V25.11h1.67v-2.9h4.75v2.9h2.74v3.24h-2.74v5.73a1.27,1.27,0,0,0,1.41,1.46,3.66,3.66,0,0,0,1.36-.24v3.61a10,10,0,0,1-2.63.4C248.47,39.31,246.72,37.8,246.72,34.53Z" fill="#fff"/><path d="M255.27,35.14c0-3.26,2.76-4.54,7.38-4.54H264v-.32c0-1.32-.32-2.2-1.83-2.2a1.71,1.71,0,0,0-1.89,1.65H255.8c.21-3.35,2.84-5,6.64-5s6.27,1.57,6.27,5.26v9h-4.62V37.37A4.58,4.58,0,0,1,260,39.31C257.47,39.31,255.27,38.09,255.27,35.14Zm8.71-1v-.85h-1.25c-1.91,0-2.76.38-2.76,1.52,0,.79.53,1.3,1.65,1.3A2.09,2.09,0,0,0,264,34.13Z" fill="#fff"/><path d="M271,25.11h4.76v2.23a4.88,4.88,0,0,1,4.56-2.61c2.69,0,4.54,1.68,4.54,5.23v9h-4.75V30.92c0-1.57-.61-2.34-2-2.34s-2.36.85-2.36,2.63V39H271Z" fill="#fff"/><path d="M286.49,32.19V32c0-4.72,2.6-7.25,5.9-7.25a4.49,4.49,0,0,1,4.27,2.34V19h4.75V39h-4.75V36.74a4.68,4.68,0,0,1-4.33,2.57C289.12,39.31,286.49,37,286.49,32.19Zm10.3-.07V31.9c0-2.33-1-3.58-2.73-3.58s-2.73,1.19-2.73,3.61v.21c0,2.34,1,3.53,2.68,3.53S296.79,34.48,296.79,32.12Z" fill="#fff"/><path d="M303.72,21.34a2.62,2.62,0,1,1,2.61,2.44A2.48,2.48,0,0,1,303.72,21.34Zm.24,3.77h4.76V39H304Z" fill="#fff"/><path d="M311.26,25.11H316v2.23a4.88,4.88,0,0,1,4.56-2.61c2.68,0,4.54,1.68,4.54,5.23v9h-4.75V30.92c0-1.57-.61-2.34-2-2.34s-2.36.85-2.36,2.63V39h-4.76Z" fill="#fff"/><path d="M326.66,39h4.73c.21,1,.82,1.81,2.55,1.81a2.62,2.62,0,0,0,2.94-2.92V35.75a4.86,4.86,0,0,1-4.3,2.55c-3.24,0-5.89-2.39-5.89-6.66v-.21c0-4.09,2.63-6.7,5.89-6.7a4.5,4.5,0,0,1,4.3,2.34v-2h4.76V37.82c0,4.15-2.74,6.32-7.7,6.32C329.21,44.14,327,42.15,326.66,39ZM337,31.61v-.18c0-1.92-1-3.14-2.74-3.14s-2.73,1.25-2.73,3.16v.21c0,1.92,1,3.14,2.71,3.14S337,33.58,337,31.61Z" fill="#fff"/><path d="M353.64,36.84V39h-4.76V19h4.76v8.18A4.89,4.89,0,0,1,358,24.73c3.24,0,5.87,2.45,5.87,7.2v.21c0,4.78-2.63,7.17-5.89,7.17A4.5,4.5,0,0,1,353.64,36.84Zm5.36-4.7v-.21c0-2.44-1.06-3.61-2.73-3.61s-2.77,1.25-2.77,3.58v.22c0,2.36,1,3.55,2.77,3.55S359,34.43,359,32.14Z" fill="#fff"/><path d="M369.38,37.58l-5.55-12.47H369l2.87,7.4,2.66-7.4h4.54l-7.44,18.53h-4.54Z" fill="#fff"/><path d="M383.93,25.11h5l2,8.31,2.34-8.31h3.82l2.07,8.31,2.26-8.31h4.51L401.51,39H397l-2.07-7.75L392.75,39h-4.62Z" fill="#fff"/><path d="M407,21.34a2.48,2.48,0,0,1,2.6-2.47,2.46,2.46,0,1,1,0,4.91A2.46,2.46,0,0,1,407,21.34Zm.24,3.77H412V39h-4.75Z" fill="#fff"/><path d="M415.21,34.53V28.35h-1.68V25.11h1.68v-2.9H420v2.9h2.73v3.24H420v5.73c0,1,.5,1.46,1.41,1.46a3.61,3.61,0,0,0,1.35-.24v3.61a9.91,9.91,0,0,1-2.63.4C417,39.31,415.21,37.8,415.21,34.53Z" fill="#fff"/><path d="M424.5,19h4.75v8.34a4.9,4.9,0,0,1,4.57-2.61c2.68,0,4.54,1.68,4.54,5.23v9H433.6V30.92c0-1.57-.61-2.34-2-2.34s-2.36.85-2.36,2.63V39H424.5Z" fill="#fff"/><path d="M444.7,35.14c0-3.26,2.76-4.54,7.38-4.54h1.33v-.32c0-1.32-.32-2.2-1.83-2.2a1.71,1.71,0,0,0-1.89,1.65h-4.46c.22-3.35,2.84-5,6.64-5s6.27,1.57,6.27,5.26v9h-4.62V37.37a4.58,4.58,0,0,1-4.12,1.94C446.91,39.31,444.7,38.09,444.7,35.14Zm8.71-1v-.85h-1.25c-1.91,0-2.76.38-2.76,1.52,0,.79.53,1.3,1.65,1.3A2.09,2.09,0,0,0,453.41,34.13Z" fill="#fff"/><path d="M460.45,25.11h4.75v2.23a4.89,4.89,0,0,1,4.56-2.61c2.69,0,4.54,1.68,4.54,5.23v9h-4.75V30.92c0-1.57-.61-2.34-2-2.34s-2.36.85-2.36,2.63V39h-4.75Z" fill="#fff"/><path d="M475.69,34.58h4.38c.16,1,.61,1.57,2,1.57,1.17,0,1.7-.45,1.7-1.14s-.66-1-2.58-1.25c-3.71-.48-5.28-1.57-5.28-4.46,0-3.08,2.74-4.57,5.95-4.57,3.42,0,5.81,1.17,6.13,4.49h-4.3a1.55,1.55,0,0,0-1.78-1.38c-1,0-1.57.45-1.57,1.09s.64.93,2.34,1.14c3.85.48,5.71,1.49,5.71,4.46,0,3.29-2.44,4.78-6.29,4.78S475.79,37.66,475.69,34.58Z" fill="#fff"/><path d="M488.4,25.11h5l2,8.31,2.33-8.31h3.82l2.08,8.31,2.25-8.31h4.52L506,39h-4.54l-2.07-7.75L497.22,39H492.6Z" fill="#fff"/><path d="M510.25,32.22V32c0-4.46,3.32-7.28,7.52-7.28,3.79,0,7.06,2.18,7.06,7.17v1.25h-9.77A2.77,2.77,0,0,0,518,36c1.57,0,2.23-.71,2.42-1.64h4.46c-.43,3.13-2.84,4.91-7,4.91S510.25,36.76,510.25,32.22Zm10-1.75c-.08-1.67-.9-2.6-2.44-2.6a2.64,2.64,0,0,0-2.66,2.6Z" fill="#fff"/><path d="M526.48,25.11h4.75v2.76a4.36,4.36,0,0,1,4.48-2.95v4.43c-2.89-.08-4.48.83-4.48,3.06V39h-4.75Z" fill="#fff"/><path d="M536.56,34.58h4.38c.16,1,.62,1.57,2,1.57,1.17,0,1.7-.45,1.7-1.14S544,34,542,33.76c-3.71-.48-5.28-1.57-5.28-4.46,0-3.08,2.73-4.57,6-4.57,3.42,0,5.81,1.17,6.13,4.49h-4.3a1.55,1.55,0,0,0-1.78-1.38c-1,0-1.57.45-1.57,1.09s.64.93,2.34,1.14c3.85.48,5.71,1.49,5.71,4.46,0,3.29-2.44,4.78-6.29,4.78S536.67,37.66,536.56,34.58Z" fill="#fff"/><path d="M549.79,41.14l2.23-7,4.4,1.57-3.82,6.5Z" fill="#fff"/><path d="M120.61,63.69c0-3.26,2.76-4.54,7.38-4.54h1.33v-.32c0-1.32-.32-2.2-1.83-2.2a1.71,1.71,0,0,0-1.89,1.65h-4.46c.21-3.35,2.84-5,6.64-5S134,54.85,134,58.54v9h-4.61V65.92a4.58,4.58,0,0,1-4.12,1.94C122.81,67.86,120.61,66.64,120.61,63.69Zm8.71-1v-.85h-1.25c-1.91,0-2.76.38-2.76,1.52,0,.79.53,1.3,1.65,1.3A2.09,2.09,0,0,0,129.32,62.68Z" fill="#fff"/><path d="M135.66,60.75v-.22c0-4.72,2.61-7.25,5.9-7.25a4.48,4.48,0,0,1,4.27,2.34V47.55h4.76v20h-4.76V65.29a4.68,4.68,0,0,1-4.32,2.57C138.29,67.86,135.66,65.55,135.66,60.75ZM146,60.67v-.22c0-2.33-1-3.58-2.74-3.58s-2.73,1.19-2.73,3.61v.21c0,2.34,1,3.53,2.68,3.53S146,63,146,60.67Z" fill="#fff"/><path d="M151.81,53.66h5.07l2.89,8.94,2.84-8.94h4.54l-5.07,13.88H156.9Z" fill="#fff"/><path d="M168.24,49.89a2.62,2.62,0,1,1,2.6,2.44A2.48,2.48,0,0,1,168.24,49.89Zm.24,3.77h4.75V67.54h-4.75Z" fill="#fff"/><path d="M175,60.77v-.21c0-4.62,3.32-7.28,7.4-7.28,3.4,0,6.54,1.49,6.8,5.71h-4.46a2.05,2.05,0,0,0-2.23-2c-1.67,0-2.65,1.2-2.65,3.54v.21c0,2.41.93,3.66,2.73,3.66a2.31,2.31,0,0,0,2.42-2.31h4.27c-.13,3.51-2.49,5.79-7,5.79C178.2,67.86,175,65.44,175,60.77Z" fill="#fff"/><path d="M190.12,60.77v-.21c0-4.46,3.32-7.28,7.51-7.28,3.8,0,7.06,2.18,7.06,7.17V61.7h-9.77a2.78,2.78,0,0,0,2.9,2.89c1.56,0,2.23-.71,2.41-1.64h4.46c-.42,3.13-2.84,4.91-7,4.91C193.3,67.86,190.12,65.31,190.12,60.77ZM200.07,59c-.08-1.67-.9-2.6-2.44-2.6A2.64,2.64,0,0,0,195,59Z" fill="#fff"/><path d="M210.37,63.69c0-3.26,2.77-4.54,7.39-4.54h1.32v-.32c0-1.32-.32-2.2-1.83-2.2a1.7,1.7,0,0,0-1.88,1.65h-4.46c.21-3.35,2.84-5,6.63-5s6.27,1.57,6.27,5.26v9h-4.62V65.92a4.56,4.56,0,0,1-4.12,1.94C212.58,67.86,210.37,66.64,210.37,63.69Zm8.71-1v-.85h-1.24c-1.92,0-2.77.38-2.77,1.52,0,.79.53,1.3,1.65,1.3A2.09,2.09,0,0,0,219.08,62.68Z" fill="#fff"/><path d="M226.12,53.66h4.75v2.23a4.9,4.9,0,0,1,4.57-2.61c2.68,0,4.54,1.68,4.54,5.23v9h-4.75V59.47c0-1.57-.62-2.34-2-2.34s-2.36.85-2.36,2.63v7.78h-4.75Z" fill="#fff"/><path d="M241.6,60.75v-.22c0-4.72,2.6-7.25,5.89-7.25a4.51,4.51,0,0,1,4.28,2.34V47.55h4.75v20h-4.75V65.29a4.68,4.68,0,0,1-4.33,2.57C244.23,67.86,241.6,65.55,241.6,60.75Zm10.3-.08v-.22c0-2.33-1-3.58-2.74-3.58s-2.73,1.19-2.73,3.61v.21c0,2.34,1,3.53,2.68,3.53S251.9,63,251.9,60.67Z" fill="#fff"/><path d="M264.48,56.9h-1.75V53.66h1.75V52.43c0-3.45,2.15-5.09,5.45-5.09a8.38,8.38,0,0,1,2.17.29v3.48a4.21,4.21,0,0,0-1.3-.19,1.39,1.39,0,0,0-1.59,1.51v1.23H272V56.9h-2.81V67.54h-4.73Z" fill="#fff"/><path d="M272.55,63.69c0-3.26,2.76-4.54,7.38-4.54h1.33v-.32c0-1.32-.32-2.2-1.83-2.2a1.7,1.7,0,0,0-1.88,1.65h-4.47c.22-3.35,2.85-5,6.64-5S286,54.85,286,58.54v9h-4.62V65.92a4.58,4.58,0,0,1-4.12,1.94C274.76,67.86,272.55,66.64,272.55,63.69Zm8.71-1v-.85H280c-1.91,0-2.76.38-2.76,1.52,0,.79.53,1.3,1.65,1.3A2.09,2.09,0,0,0,281.26,62.68Z" fill="#fff"/><path d="M287.37,63.13h4.38c.16,1,.61,1.57,2,1.57,1.17,0,1.7-.45,1.7-1.14s-.66-1-2.57-1.25c-3.72-.48-5.29-1.56-5.29-4.46,0-3.08,2.74-4.57,5.95-4.57,3.43,0,5.82,1.17,6.13,4.49h-4.3a1.55,1.55,0,0,0-1.78-1.38c-1,0-1.56.45-1.56,1.09s.64.93,2.33,1.14c3.85.48,5.71,1.49,5.71,4.46,0,3.29-2.44,4.78-6.29,4.78S287.47,66.21,287.37,63.13Z" fill="#fff"/><path d="M302.21,63.08V56.9h-1.67V53.66h1.67v-2.9H307v2.9h2.74V56.9H307v5.73a1.27,1.27,0,0,0,1.41,1.46,3.57,3.57,0,0,0,1.35-.24v3.61a9.89,9.89,0,0,1-2.62.4C304,67.86,302.21,66.35,302.21,63.08Z" fill="#fff"/><path d="M311.45,58.17h7.43v3.58h-7.43Z" fill="#fff"/><path d="M321.88,63.08V56.9h-1.67V53.66h1.67v-2.9h4.76v2.9h2.73V56.9h-2.73v5.73c0,1,.5,1.46,1.4,1.46a3.66,3.66,0,0,0,1.36-.24v3.61a10,10,0,0,1-2.63.4C323.64,67.86,321.88,66.35,321.88,63.08Z" fill="#fff"/><path d="M335.53,66.13,330,53.66h5.15l2.87,7.4,2.65-7.4h4.54l-7.43,18.53h-4.54Z" fill="#fff"/><path d="M346.41,53.66h4.76v2.07a4.89,4.89,0,0,1,4.32-2.45c3.24,0,5.87,2.45,5.87,7.2v.21c0,4.78-2.63,7.17-5.89,7.17a4.57,4.57,0,0,1-4.3-2.36v6.69h-4.76Zm10.12,7v-.21c0-2.44-1.06-3.61-2.73-3.61S351,58.12,351,60.45v.22c0,2.36,1,3.55,2.77,3.55S356.53,63,356.53,60.69Z" fill="#fff"/><path d="M363,49.89a2.62,2.62,0,1,1,2.6,2.44A2.48,2.48,0,0,1,363,49.89Zm.24,3.77H368V67.54h-4.75Z" fill="#fff"/><path d="M370.52,53.66h4.75v2.23a4.91,4.91,0,0,1,4.57-2.61c2.68,0,4.54,1.68,4.54,5.23v9h-4.75V59.47c0-1.57-.61-2.34-2-2.34s-2.37.85-2.37,2.63v7.78h-4.75Z" fill="#fff"/><path d="M385.92,67.54h4.73c.21,1,.82,1.81,2.55,1.81a2.63,2.63,0,0,0,2.94-2.92V64.3a4.86,4.86,0,0,1-4.3,2.55c-3.24,0-5.89-2.39-5.89-6.66V60c0-4.08,2.63-6.69,5.89-6.69a4.51,4.51,0,0,1,4.3,2.34v-2h4.75V66.37c0,4.15-2.73,6.32-7.69,6.32C388.47,72.69,386.29,70.7,385.92,67.54Zm10.36-7.38V60c0-1.91-1-3.13-2.74-3.13s-2.73,1.25-2.73,3.16v.21c0,1.92,1,3.14,2.7,3.14S396.28,62.13,396.28,60.16Z" fill="#fff"/><path d="M408.86,56.9h-1.75V53.66h1.75V52.43c0-3.45,2.15-5.09,5.44-5.09a8.46,8.46,0,0,1,2.18.29v3.48a4.26,4.26,0,0,0-1.3-.19,1.4,1.4,0,0,0-1.6,1.51v1.23h2.82V56.9h-2.82V67.54h-4.72Z" fill="#fff"/><path d="M417.89,49.89a2.48,2.48,0,0,1,2.6-2.47,2.46,2.46,0,1,1,0,4.91A2.46,2.46,0,0,1,417.89,49.89Zm.24,3.77h4.75V67.54h-4.75Z" fill="#fff"/><path d="M425.43,53.66h4.75v2.23a4.9,4.9,0,0,1,4.57-2.61c2.68,0,4.54,1.68,4.54,5.23v9h-4.76V59.47c0-1.57-.61-2.34-2-2.34s-2.36.85-2.36,2.63v7.78h-4.75Z" fill="#fff"/><path d="M440.83,67.54h4.72c.21,1,.82,1.81,2.55,1.81a2.63,2.63,0,0,0,2.95-2.92V64.3a4.87,4.87,0,0,1-4.3,2.55c-3.24,0-5.9-2.39-5.9-6.66V60c0-4.08,2.63-6.69,5.9-6.69a4.52,4.52,0,0,1,4.3,2.34v-2h4.75V66.37c0,4.15-2.74,6.32-7.7,6.32C443.37,72.69,441.2,70.7,440.83,67.54Zm10.35-7.38V60c0-1.91-1-3.13-2.74-3.13s-2.73,1.25-2.73,3.16v.21c0,1.92,1,3.14,2.71,3.14S451.18,62.13,451.18,60.16Z" fill="#fff"/><path d="M457.47,60.77v-.21c0-4.46,3.32-7.28,7.52-7.28,3.79,0,7.06,2.18,7.06,7.17V61.7h-9.77a2.77,2.77,0,0,0,2.89,2.89c1.57,0,2.23-.71,2.42-1.64h4.46c-.43,3.13-2.84,4.91-7,4.91S457.47,65.31,457.47,60.77Zm10-1.75c-.08-1.67-.9-2.6-2.44-2.6a2.64,2.64,0,0,0-2.66,2.6Z" fill="#fff"/><path d="M473.69,53.66h4.76v2.76a4.36,4.36,0,0,1,4.48-3V57.9c-2.89-.08-4.48.83-4.48,3.06v6.58h-4.76Z" fill="#fff"/><path d="M483.78,63.13h4.38c.16,1,.61,1.57,2,1.57,1.17,0,1.7-.45,1.7-1.14s-.67-1-2.58-1.25c-3.72-.48-5.28-1.56-5.28-4.46,0-3.08,2.73-4.57,5.95-4.57,3.42,0,5.81,1.17,6.13,4.49h-4.3A1.55,1.55,0,0,0,490,56.39c-1,0-1.57.45-1.57,1.09s.64.93,2.34,1.14c3.85.48,5.71,1.49,5.71,4.46,0,3.29-2.45,4.78-6.3,4.78S483.89,66.21,483.78,63.13Z" fill="#fff"/><path d="M497.8,65.15a2.65,2.65,0,0,1,2.71-2.68,2.68,2.68,0,1,1,0,5.36A2.64,2.64,0,0,1,497.8,65.15Z" fill="#fff"/></g></g></g></svg>