<svg xmlns="http://www.w3.org/2000/svg" viewBox="0 0 300 115"><title>footer</title><g id="Layer_2" data-name="Layer 2"><g id="Footer"><rect width="300" height="115" fill="#fff"/><rect x="147.57" y="39.67" width="133" height="35" fill="#f5cc02"/><path d="M42.15,68.21c0,1.2,1.22,1.71,2.1,1.71a2.66,2.66,0,0,0,1.35-.35C45.15,69.08,43,66.7,43,66.7A1.85,1.85,0,0,0,42.15,68.21Z" fill="#14aa40"/><path d="M60.25,64.16a1.4,1.4,0,0,0-1.5-1.58h-2V65.7h2A1.42,1.42,0,0,0,60.25,64.16Z" fill="#14aa40"/><path d="M31.93,83.81h-2.7V86H32a1,1,0,0,0,1-1.11A1,1,0,0,0,31.93,83.81Z" fill="#14aa40"/><path d="M32.13,80a1,1,0,0,0-1-1H29.26v2.08h1.89A1,1,0,0,0,32.13,80Z" fill="#14aa40"/><path d="M55.09,79.1c-1.38,0-2.14.82-2.14,2.32v2.12c0,1.5.76,2.32,2.14,2.32s2.14-.82,2.14-2.32V81.42C57.23,79.92,56.46,79.1,55.09,79.1Z" fill="#14aa40"/><path d="M90.32,76.51h-.09v.2h.09a.1.1,0,1,0,0-.2Z" fill="#14aa40"/><path d="M90.3,75.92a.85.85,0,0,0,0,1.69.85.85,0,1,0,0-1.69Zm.12,1.27-.13-.26h-.06v.26h-.29v-.91h.42c.24,0,.36.12.36.33a.31.31,0,0,1-.14.27l.18.31Z" fill="#14aa40"/><path d="M19.76,19.67v75h75v-75Zm33,39.66h6.51c3.3,0,5.1,2,5.1,4.81a4.48,4.48,0,0,1-2.23,4.09l2.58,4.1H59.94l-2-3.41H56.78v3.41H52.71ZM32.23,89H25.39V76h6.74C34.57,76,36,77.39,36,79.34a3.12,3.12,0,0,1-1.71,2.92,2.94,2.94,0,0,1,2.51,3C36.8,87.48,35.2,89,32.23,89Zm4.64-16.65H32.8V67.67H29.46v4.66H25.39v-13h4.07V64H32.8V59.33h4.07ZM47.81,89H38.47V76h4.06v9.63h5.28Zm-.28-17.27a5.91,5.91,0,0,1-3.2.88c-3.58,0-5.61-1.71-5.61-4.29a3.88,3.88,0,0,1,2.36-3.56A3.06,3.06,0,0,1,40,62.47c0-2,1.66-3.4,4.24-3.4,2.38,0,4.09,1.26,4.09,3.32v.82h-3.1v-.63a.84.84,0,0,0-.92-.89.83.83,0,0,0-.92.83,1.62,1.62,0,0,0,.48,1.07l3,3.38V65.06h2.87v2a5.09,5.09,0,0,1-.51,2.5l2.46,2.74H48.11ZM61.29,83.3c0,3.53-2.13,5.94-6.2,5.94s-6.21-2.41-6.21-5.94V81.66c0-3.53,2.14-5.94,6.21-5.94s6.2,2.41,6.2,5.94Zm7.54,2.56a1.9,1.9,0,0,0,2-1.93H74.7c-.09,2.93-2.13,5.31-5.79,5.31-4.2,0-6.21-2.38-6.21-5.91v-1.7c0-3.54,2-5.91,6.21-5.91,3.66,0,5.7,2.37,5.79,5.31H70.85a1.9,1.9,0,0,0-2-1.93c-1.39,0-2.06.91-2.06,2.34v2.08C66.77,85,67.44,85.86,68.83,85.86ZM84,89l-2.68-5.41H81V89H76.92V76H81V80.5h.26L83.88,76h4.56L85,81.84,88.83,89ZM90.3,77.81a1,1,0,1,1,1.08-1A1,1,0,0,1,90.3,77.81Z" fill="#14aa40"/><path d="M155.69,50.36h7.48v2.07h-4.84v3.08h3.83v2h-3.83V62h-2.64Z" fill="#262626"/><path d="M164.2,51a1.35,1.35,0,1,1,1.34,1.29A1.3,1.3,0,0,1,164.2,51Zm.18,2.45h2.35V62h-2.35Z" fill="#262626"/><path d="M168.72,49.62h2.34V62h-2.34Z" fill="#262626"/><path d="M172.45,57.86v-.13a4.24,4.24,0,0,1,4.39-4.44c2.2,0,4.16,1.29,4.16,4.34v.66h-6.15A2,2,0,0,0,177,60.52c1.09,0,1.63-.47,1.78-1.19H181c-.28,1.84-1.74,2.87-4.08,2.87A4.14,4.14,0,0,1,172.45,57.86Zm6.25-1c-.08-1.28-.74-1.9-1.86-1.9a2,2,0,0,0-2,1.9Z" fill="#262626"/><path d="M185.28,56.26v-.13a5.77,5.77,0,0,1,6-5.93,5.67,5.67,0,0,1,6,5.87v.13a6,6,0,0,1-12,.06Zm9.25,0V56.1c0-2.27-1.21-3.82-3.24-3.82S188,53.77,188,56.12v.13c0,2.38,1.37,3.85,3.28,3.85S194.53,58.58,194.53,56.23Z" fill="#262626"/><path d="M198.73,53.49h2.37v1.35a3,3,0,0,1,2.77-1.55c1.68,0,2.87,1,2.87,3.3V62h-2.36V56.93c0-1.16-.46-1.71-1.5-1.71a1.69,1.69,0,0,0-1.78,1.88V62h-2.37Z" fill="#262626"/><path d="M208.58,49.62h2.35V62h-2.35Z" fill="#262626"/><path d="M212.72,51a1.35,1.35,0,1,1,1.34,1.29A1.3,1.3,0,0,1,212.72,51Zm.18,2.45h2.35V62H212.9Z" fill="#262626"/><path d="M217.18,53.49h2.36v1.35a3,3,0,0,1,2.77-1.55c1.69,0,2.88,1,2.88,3.3V62h-2.37V56.93c0-1.16-.46-1.71-1.5-1.71a1.69,1.69,0,0,0-1.78,1.88V62h-2.36Z" fill="#262626"/><path d="M226.44,57.86v-.13a4.24,4.24,0,0,1,4.39-4.44c2.2,0,4.16,1.29,4.16,4.34v.66h-6.15A2,2,0,0,0,231,60.52c1.09,0,1.63-.47,1.77-1.19H235c-.28,1.84-1.75,2.87-4.08,2.87A4.13,4.13,0,0,1,226.44,57.86Zm6.25-1c-.09-1.28-.74-1.9-1.86-1.9a2,2,0,0,0-2,1.9Z" fill="#262626"/><path d="M239.87,50.36h3.07L247.38,58V50.36h2.35V62h-2.65l-4.86-8.3V62h-2.35Z" fill="#262626"/><path d="M251.19,57.85v-.14a4.5,4.5,0,0,1,9,0v.13a4.5,4.5,0,0,1-9,.05Zm6.59,0V57.7c0-1.63-.77-2.61-2.09-2.61s-2.09.95-2.09,2.58v.13c0,1.63.75,2.61,2.09,2.61S257.78,59.43,257.78,57.81Z" fill="#262626"/><path d="M260.5,53.49H263l1.52,5.74,1.65-5.74h1.94l1.5,5.74,1.61-5.74h2.27L270.78,62h-2.32L267,56.67,265.44,62H263.1Z" fill="#262626"/></g></g></svg>