<svg xmlns="http://www.w3.org/2000/svg" viewBox="0 0 300 600"><title>txt1</title><g id="Layer_2" data-name="Layer 2"><g id="txt1"><path d="M25.31,86.8h39.6v13H42.2v12.47H60.32v12.38H42.2v20.75H25.31Z" fill="#fff"/><path d="M70.33,90.9c0-4.34,3.44-7.62,8-7.62s8.12,3.28,8.12,7.62S83,98.45,78.36,98.45,70.33,95.25,70.33,90.9Zm.73,11.65H85.74v42.89H71.06Z" fill="#fff"/><path d="M95.25,83.69h14.6v61.75H95.25Z" fill="#fff"/><path d="M116.65,124.52v-.65c0-13.78,10.26-22.47,23.21-22.47,11.73,0,21.81,6.72,21.81,22.14v3.86H131.5c.41,5.65,3.69,8.93,8.94,8.93,4.83,0,6.88-2.21,7.46-5.08h13.77c-1.31,9.67-8.77,15.17-21.73,15.17C126.5,146.42,116.65,138.55,116.65,124.52Zm30.76-5.41c-.25-5.16-2.79-8-7.55-8-4.43,0-7.46,2.87-8.2,8Z" fill="#fff"/><path d="M26.21,194.55H20.8v-10h5.41v-3.77C26.21,170.12,32.85,165,43,165a25.68,25.68,0,0,1,6.72.91v10.74a13.31,13.31,0,0,0-4-.58c-3.45,0-4.92,1.89-4.92,4.68v3.77H49.5v10H40.81v32.89H26.21Z" fill="#fff"/><path d="M55.65,184.55H70.32v8.53c2.71-6.4,7.22-9.19,13.86-9.1v13.69c-8.94-.25-13.86,2.54-13.86,9.43v20.34H55.65Z" fill="#fff"/><path d="M88,206.53v-.66c0-13.78,10.25-22.47,23.2-22.47,11.73,0,21.82,6.72,21.82,22.14v3.86H102.88c.41,5.65,3.69,8.93,8.94,8.93,4.84,0,6.89-2.21,7.46-5.08h13.78c-1.32,9.68-8.78,15.17-21.73,15.17C97.88,228.42,88,220.55,88,206.53Zm30.75-5.42c-.25-5.16-2.79-8-7.55-8-4.43,0-7.46,2.87-8.2,8Z" fill="#fff"/><path d="M137.07,206.53v-.66c0-13.78,10.25-22.47,23.21-22.47,11.72,0,21.81,6.72,21.81,22.14v3.86H151.92c.4,5.65,3.68,8.93,8.93,8.93,4.84,0,6.89-2.21,7.46-5.08h13.78c-1.31,9.68-8.77,15.17-21.73,15.17C146.91,228.42,137.07,220.55,137.07,206.53Zm30.75-5.42c-.24-5.16-2.78-8-7.54-8-4.43,0-7.46,2.87-8.2,8Z" fill="#fff"/><path d="M187.42,220.06a8.18,8.18,0,0,1,8.36-8.29,8.29,8.29,0,1,1,0,16.57A8.18,8.18,0,0,1,187.42,220.06Z" fill="#fff"/><rect width="300" height="600" fill="none"/></g></g></svg>