<svg xmlns="http://www.w3.org/2000/svg" viewBox="0 0 300 250"><title>134</title><g id="Layer_2" data-name="Layer 2"><g id="Rect"><rect width="300" height="250" fill="none"/></g><g id="_H_R_Block_Free_Online_supports_more_forms_and_deductions_at" data-name="&quot;H&amp;R Block Free [Online] supports more forms and  deductions…at"><path d="M19.86,40.8h3.53L23,46.57H20.28Zm4.45,0h3.55l-.44,5.77H24.75Z" fill="#fff"/><path d="M30.15,40.8h4.33v5.73h4.93V40.8h4.3v15h-4.3V49.89H34.48v5.92H30.15Z" fill="#fff"/><path d="M58.44,52.75l2.49,3.06H56l-.88-1.09a6,6,0,0,1-4,1.34c-3.19,0-5.27-1.67-5.27-4.53,0-1.93,1.17-3.36,3.29-4.37a4.77,4.77,0,0,1-.92-2.62c0-2.56,2.18-3.93,4.83-3.93,2.39,0,4.56,1.2,4.56,3.51,0,1.64-1,2.83-3,3.71l1.89,2.31L57.57,48h3.28Zm-5.21-.44-2.37-2.86a1.78,1.78,0,0,0-1,1.62,1.74,1.74,0,0,0,1.91,1.87A2,2,0,0,0,53.23,52.31Zm-.46-6.05c1-.48,1.49-1,1.49-1.83a1.08,1.08,0,0,0-1.12-1.15,1.19,1.19,0,0,0-1.23,1.3A2.72,2.72,0,0,0,52.77,46.26Z" fill="#fff"/><path d="M62.62,40.8H68.5c3.92,0,6.1,1.6,6.1,4.77v.08a3.93,3.93,0,0,1-2.7,4l3.59,6.21H71l-3-5.37h-1v5.37H62.62Zm5.67,6.85q2.16,0,2.16-1.83v-.09c0-1.21-.76-1.7-2.14-1.7H66.9v3.62Z" fill="#fff"/><path d="M81.39,40.8h6.7c3.55,0,5.06,1.6,5.06,3.93v.08A3.09,3.09,0,0,1,90.61,48a3.26,3.26,0,0,1,3,3.51v.08c0,2.69-1.74,4.18-5.46,4.18H81.39Zm5.84,6c1.34,0,1.84-.46,1.84-1.53v-.08c0-1-.54-1.49-1.84-1.49H85.59v3.1Zm.14,6.18c1.37,0,2-.63,2-1.75v-.08c0-1.13-.61-1.72-2.12-1.72H85.59v3.55Z" fill="#fff"/><path d="M95.42,40h3.73V55.81H95.42Z" fill="#fff"/><path d="M100.9,50.46v-.17c0-3.53,2.62-5.75,6-5.75s6,2.16,6,5.65v.16c0,3.57-2.63,5.71-6,5.71S100.9,54,100.9,50.46Zm8.19-.06v-.17c0-1.85-.74-2.88-2.17-2.88s-2.18,1-2.18,2.84v.16c0,1.89.74,2.92,2.18,2.92S109.09,52.22,109.09,50.4Z" fill="#fff"/><path d="M114,50.46v-.17a5.52,5.52,0,0,1,5.86-5.75c2.69,0,5.16,1.17,5.37,4.51h-3.52a1.63,1.63,0,0,0-1.77-1.59c-1.32,0-2.1.94-2.1,2.79v.17c0,1.91.74,2.89,2.17,2.89a1.83,1.83,0,0,0,1.91-1.82h3.38c-.11,2.77-2,4.57-5.53,4.57C116.46,56.06,114,54.15,114,50.46Z" fill="#fff"/><path d="M126.79,40h3.76v9.18l3-4.35h3.91l-3.6,4.94,3.89,6h-4.2l-3-4.81v4.81h-3.76Z" fill="#fff"/><path d="M143.38,40.8h10.14v3.34h-5.81v3.19h4.64V50.5h-4.64v5.31h-4.33Z" fill="#fff"/><path d="M154.85,44.83h3.76V47a3.44,3.44,0,0,1,3.54-2.33v3.5c-2.28-.06-3.54.65-3.54,2.42v5.2h-3.76Z" fill="#fff"/><path d="M163.14,50.46v-.17a5.62,5.62,0,0,1,5.94-5.75c3,0,5.59,1.72,5.59,5.67v1h-7.73a2.2,2.2,0,0,0,2.29,2.29c1.24,0,1.76-.56,1.91-1.3h3.53c-.34,2.48-2.25,3.88-5.57,3.88S163.14,54.05,163.14,50.46ZM171,49.07c-.07-1.32-.72-2-1.94-2a2.09,2.09,0,0,0-2.1,2Z" fill="#fff"/><path d="M175.7,50.46v-.17a5.61,5.61,0,0,1,5.94-5.75c3,0,5.59,1.72,5.59,5.67v1H179.5a2.2,2.2,0,0,0,2.29,2.29c1.24,0,1.76-.56,1.91-1.3h3.53c-.34,2.48-2.25,3.88-5.57,3.88S175.7,54.05,175.7,50.46Zm7.87-1.39c-.06-1.32-.71-2-1.93-2a2.09,2.09,0,0,0-2.1,2Z" fill="#fff"/><path d="M193.26,39.52h6.4v2.75H197v13.9h2.62v2.75h-6.4Z" fill="#fff"/><path d="M201.11,48.4v-.17c0-4.57,3.44-7.64,7.94-7.64S217,43.47,217,48.13v.17c0,4.62-3.17,7.76-8,7.76S201.11,52.92,201.11,48.4Zm11.4,0v-.17c0-2.67-1.34-4.24-3.46-4.24s-3.45,1.53-3.45,4.26v.17c0,2.73,1.39,4.3,3.47,4.3S212.51,51.05,212.51,48.36Z" fill="#fff"/><path d="M218.77,44.83h3.76V46.6a3.86,3.86,0,0,1,3.61-2.06c2.12,0,3.59,1.32,3.59,4.13v7.14H226V49.43c0-1.24-.48-1.85-1.57-1.85s-1.87.67-1.87,2.08v6.15h-3.76Z" fill="#fff"/><path d="M232,40h3.74V55.81H232Z" fill="#fff"/><path d="M238,41.85A2.08,2.08,0,1,1,240,43.78,2,2,0,0,1,238,41.85Zm.19,3h3.76v11h-3.76Z" fill="#fff"/><path d="M244.24,44.83H248V46.6a3.87,3.87,0,0,1,3.61-2.06c2.12,0,3.59,1.32,3.59,4.13v7.14h-3.76V49.43c0-1.24-.48-1.85-1.57-1.85s-1.87.67-1.87,2.08v6.15h-3.76Z" fill="#fff"/><path d="M256.76,50.46v-.17a5.61,5.61,0,0,1,5.94-5.75c3,0,5.59,1.72,5.59,5.67v1h-7.73a2.19,2.19,0,0,0,2.29,2.29c1.24,0,1.76-.56,1.91-1.3h3.53c-.34,2.48-2.25,3.88-5.57,3.88S256.76,54.05,256.76,50.46Zm7.87-1.39c-.06-1.32-.71-2-1.93-2a2.09,2.09,0,0,0-2.1,2Z" fill="#fff"/><path d="M269.4,56.17H272V42.27h-2.6V39.52h6.38v19.4H269.4Z" fill="#fff"/><path d="M19.38,73.33h3.46c.13.8.49,1.24,1.56,1.24s1.34-.36,1.34-.91-.53-.77-2-1c-2.94-.38-4.18-1.24-4.18-3.53,0-2.44,2.17-3.61,4.71-3.61,2.71,0,4.6.92,4.85,3.55h-3.4A1.23,1.23,0,0,0,24.27,68c-.82,0-1.24.36-1.24.87s.51.73,1.85.9c3,.38,4.51,1.17,4.51,3.53,0,2.6-1.93,3.77-5,3.77S19.46,75.76,19.38,73.33Z" fill="#fff"/><path d="M30.84,73V65.83H34.6v6.55c0,1.24.48,1.85,1.56,1.85S38,73.56,38,72.15V65.83h3.76v11H38v-1.7a3.58,3.58,0,0,1-3.48,2C32.42,77.06,30.84,75.76,30.84,73Z" fill="#fff"/><path d="M44,65.83h3.76v1.64a3.87,3.87,0,0,1,3.42-1.93c2.56,0,4.64,1.93,4.64,5.69v.17c0,3.78-2.08,5.66-4.66,5.66a3.61,3.61,0,0,1-3.4-1.86v5.29H44Zm8,5.57v-.17c0-1.93-.84-2.86-2.16-2.86s-2.19,1-2.19,2.84v.17c0,1.86.82,2.81,2.19,2.81S52,73.2,52,71.4Z" fill="#fff"/><path d="M57.51,65.83h3.76v1.64a3.88,3.88,0,0,1,3.42-1.93c2.57,0,4.64,1.93,4.64,5.69v.17c0,3.78-2.07,5.66-4.66,5.66a3.62,3.62,0,0,1-3.4-1.86v5.29H57.51Zm8,5.57v-.17c0-1.93-.84-2.86-2.16-2.86s-2.18,1-2.18,2.84v.17c0,1.86.82,2.81,2.18,2.81S65.51,73.2,65.51,71.4Z" fill="#fff"/><path d="M70.43,71.46v-.17c0-3.53,2.62-5.75,6-5.75s6,2.16,6,5.65v.16c0,3.57-2.63,5.71-6,5.71S70.43,75,70.43,71.46Zm8.19-.06v-.17c0-1.85-.74-2.88-2.17-2.88s-2.18,1-2.18,2.84v.16c0,1.89.74,2.92,2.18,2.92S78.62,73.22,78.62,71.4Z" fill="#fff"/><path d="M84.08,65.83h3.76V68a3.44,3.44,0,0,1,3.54-2.33v3.5c-2.28-.06-3.54.65-3.54,2.42v5.2H84.08Z" fill="#fff"/><path d="M93.74,73.29v-4.9H92.42V65.83h1.32V63.54H97.5v2.29h2.16v2.56H97.5v4.54c0,.8.4,1.15,1.11,1.15a2.8,2.8,0,0,0,1.07-.19v2.86a7.76,7.76,0,0,1-2.08.31C95.12,77.06,93.74,75.87,93.74,73.29Z" fill="#fff"/><path d="M100.81,73.33h3.47c.12.8.48,1.24,1.55,1.24s1.35-.36,1.35-.91-.53-.77-2-1c-2.94-.38-4.18-1.24-4.18-3.53,0-2.44,2.16-3.61,4.7-3.61,2.71,0,4.6.92,4.85,3.55h-3.4a1.22,1.22,0,0,0-1.4-1.1c-.82,0-1.24.36-1.24.87s.5.73,1.85.9c3,.38,4.51,1.17,4.51,3.53,0,2.6-1.93,3.77-5,3.77S100.9,75.76,100.81,73.33Z" fill="#fff"/><path d="M116.5,65.83h3.76v1.68a3.83,3.83,0,0,1,3.44-2,3,3,0,0,1,3,1.82,4.36,4.36,0,0,1,3.64-1.82c2.08,0,3.59,1.34,3.59,4.09v7.18h-3.76V70.26c0-1.11-.55-1.66-1.41-1.66a1.63,1.63,0,0,0-1.68,1.85v6.36h-3.71V70.26c0-1.11-.55-1.66-1.41-1.66a1.63,1.63,0,0,0-1.68,1.85v6.36H116.5Z" fill="#fff"/><path d="M135.46,71.46v-.17c0-3.53,2.63-5.75,6-5.75s6,2.16,6,5.65v.16c0,3.57-2.62,5.71-6,5.71S135.46,75,135.46,71.46Zm8.19-.06v-.17c0-1.85-.73-2.88-2.16-2.88s-2.18,1-2.18,2.84v.16c0,1.89.73,2.92,2.18,2.92S143.65,73.22,143.65,71.4Z" fill="#fff"/><path d="M149.11,65.83h3.76V68a3.45,3.45,0,0,1,3.55-2.33v3.5c-2.29-.06-3.55.65-3.55,2.42v5.2h-3.76Z" fill="#fff"/><path d="M157.41,71.46v-.17a5.61,5.61,0,0,1,5.94-5.75c3,0,5.59,1.72,5.59,5.67v1h-7.73a2.19,2.19,0,0,0,2.29,2.29c1.24,0,1.76-.56,1.91-1.3h3.53c-.34,2.48-2.25,3.88-5.57,3.88S157.41,75.05,157.41,71.46Zm7.87-1.39c-.06-1.32-.71-2-1.93-2a2.09,2.09,0,0,0-2.1,2Z" fill="#fff"/><path d="M175.26,68.39h-1.39V65.83h1.39v-1c0-2.73,1.7-4,4.3-4a6.42,6.42,0,0,1,1.72.24v2.75a3.19,3.19,0,0,0-1-.15,1.1,1.1,0,0,0-1.26,1.2v1h2.22v2.56H179v8.42h-3.74Z" fill="#fff"/><path d="M181.83,71.46v-.17c0-3.53,2.63-5.75,6-5.75s6,2.16,6,5.65v.16c0,3.57-2.62,5.71-6,5.71S181.83,75,181.83,71.46ZM190,71.4v-.17c0-1.85-.73-2.88-2.16-2.88s-2.19,1-2.19,2.84v.16c0,1.89.74,2.92,2.19,2.92S190,73.22,190,71.4Z" fill="#fff"/><path d="M195.48,65.83h3.76V68a3.45,3.45,0,0,1,3.55-2.33v3.5c-2.29-.06-3.55.65-3.55,2.42v5.2h-3.76Z" fill="#fff"/><path d="M204.47,65.83h3.76v1.68a3.83,3.83,0,0,1,3.44-2,3,3,0,0,1,3,1.82,4.36,4.36,0,0,1,3.64-1.82c2.07,0,3.59,1.34,3.59,4.09v7.18h-3.76V70.26c0-1.11-.55-1.66-1.41-1.66A1.63,1.63,0,0,0,215,70.45v6.36h-3.72V70.26c0-1.11-.54-1.66-1.4-1.66a1.63,1.63,0,0,0-1.68,1.85v6.36h-3.76Z" fill="#fff"/><path d="M223.29,73.33h3.46c.13.8.48,1.24,1.55,1.24s1.35-.36,1.35-.91-.53-.77-2-1c-2.94-.38-4.18-1.24-4.18-3.53,0-2.44,2.16-3.61,4.71-3.61,2.7,0,4.59.92,4.85,3.55h-3.41a1.22,1.22,0,0,0-1.4-1.1c-.82,0-1.24.36-1.24.87s.5.73,1.85.9c3,.38,4.51,1.17,4.51,3.53,0,2.6-1.93,3.77-5,3.77S223.37,75.76,223.29,73.33Z" fill="#fff"/><path d="M238.34,73.77c0-2.58,2.19-3.59,5.84-3.59h1v-.25c0-1.05-.25-1.75-1.45-1.75a1.35,1.35,0,0,0-1.49,1.31h-3.53c.17-2.65,2.25-3.95,5.25-3.95s5,1.24,5,4.16v7.11h-3.66V75.53a3.59,3.59,0,0,1-3.25,1.53C240.08,77.06,238.34,76.1,238.34,73.77Zm6.89-.8V72.3h-1c-1.51,0-2.18.29-2.18,1.2,0,.63.42,1,1.3,1C244.43,74.52,245.23,73.92,245.23,73Z" fill="#fff"/><path d="M251.11,65.83h3.76V67.6a3.86,3.86,0,0,1,3.61-2.06c2.12,0,3.59,1.32,3.59,4.13v7.14h-3.76V70.43c0-1.24-.48-1.85-1.57-1.85s-1.87.67-1.87,2.08v6.15h-3.76Z" fill="#fff"/><path d="M263.67,71.44v-.17c0-3.74,2.06-5.73,4.66-5.73a3.55,3.55,0,0,1,3.38,1.85V61h3.76V76.81h-3.76V75a3.7,3.7,0,0,1-3.42,2C265.75,77.06,263.67,75.24,263.67,71.44Zm8.14-.06v-.17c0-1.85-.77-2.84-2.16-2.84s-2.16.95-2.16,2.86v.17c0,1.84.82,2.79,2.12,2.79S271.81,73.24,271.81,71.38Z" fill="#fff"/><path d="M19.57,92.44v-.17c0-3.74,2.05-5.73,4.66-5.73a3.55,3.55,0,0,1,3.38,1.85V82h3.76V97.81H27.61V96a3.71,3.71,0,0,1-3.42,2C21.65,98.06,19.57,96.24,19.57,92.44Zm8.14-.06v-.17c0-1.85-.77-2.84-2.16-2.84s-2.16.95-2.16,2.86v.17c0,1.84.82,2.79,2.12,2.79S27.71,94.24,27.71,92.38Z" fill="#fff"/><path d="M33,92.46v-.17A5.61,5.61,0,0,1,39,86.54c3,0,5.58,1.72,5.58,5.67v1H36.81a2.19,2.19,0,0,0,2.29,2.29c1.23,0,1.76-.56,1.91-1.3h3.52c-.33,2.48-2.24,3.88-5.56,3.88S33,96.05,33,92.46Zm7.87-1.39c-.06-1.32-.71-2-1.93-2a2.08,2.08,0,0,0-2.1,2Z" fill="#fff"/><path d="M45.61,92.44v-.17c0-3.74,2-5.73,4.66-5.73a3.55,3.55,0,0,1,3.38,1.85V82h3.76V97.81H53.65V96a3.71,3.71,0,0,1-3.42,2C47.69,98.06,45.61,96.24,45.61,92.44Zm8.14-.06v-.17c0-1.85-.77-2.84-2.16-2.84s-2.16.95-2.16,2.86v.17c0,1.84.82,2.79,2.12,2.79S53.75,94.24,53.75,92.38Z" fill="#fff"/><path d="M59.55,94V86.83h3.76v6.55c0,1.24.48,1.85,1.55,1.85s1.87-.67,1.87-2.08V86.83h3.76v11H66.73v-1.7a3.6,3.6,0,0,1-3.48,2C61.13,98.06,59.55,96.76,59.55,94Z" fill="#fff"/><path d="M72.13,92.46v-.17A5.52,5.52,0,0,1,78,86.54c2.68,0,5.16,1.17,5.37,4.51H79.83a1.61,1.61,0,0,0-1.76-1.59c-1.32,0-2.1.94-2.1,2.79v.17c0,1.91.74,2.89,2.16,2.89A1.82,1.82,0,0,0,80,93.49h3.39c-.11,2.77-2,4.57-5.53,4.57C74.63,98.06,72.13,96.15,72.13,92.46Z" fill="#fff"/><path d="M85.46,94.29v-4.9H84.14V86.83h1.32V84.54h3.76v2.29h2.16v2.56H89.22v4.54c0,.8.4,1.15,1.11,1.15a2.85,2.85,0,0,0,1.08-.19v2.86a7.82,7.82,0,0,1-2.08.31C86.85,98.06,85.46,96.87,85.46,94.29Z" fill="#fff"/><path d="M93,83.85a2.08,2.08,0,1,1,2.06,1.93A2,2,0,0,1,93,83.85Zm.19,3H97v11H93.23Z" fill="#fff"/><path d="M98.74,92.46v-.17c0-3.53,2.62-5.75,6-5.75s6,2.16,6,5.65v.16c0,3.57-2.63,5.71-6,5.71S98.74,96,98.74,92.46Zm8.18-.06v-.17c0-1.85-.73-2.88-2.16-2.88s-2.18,1-2.18,2.84v.16c0,1.89.73,2.92,2.18,2.92S106.92,94.22,106.92,92.4Z" fill="#fff"/><path d="M112.39,86.83h3.75V88.6a3.88,3.88,0,0,1,3.62-2.06c2.12,0,3.59,1.32,3.59,4.13v7.14h-3.76V91.43c0-1.24-.49-1.85-1.58-1.85s-1.87.67-1.87,2.08v6.15h-3.75Z" fill="#fff"/><path d="M124.75,94.33h3.47c.13.8.48,1.24,1.55,1.24s1.35-.36,1.35-.91-.53-.77-2-1c-2.94-.38-4.18-1.24-4.18-3.53,0-2.44,2.16-3.61,4.7-3.61,2.71,0,4.6.92,4.86,3.55h-3.41a1.22,1.22,0,0,0-1.4-1.1c-.82,0-1.24.36-1.24.87s.5.73,1.85.9c3,.38,4.51,1.17,4.51,3.53,0,2.6-1.93,3.77-5,3.77S124.84,96.76,124.75,94.33Z" fill="#fff"/><path d="M136.16,95.92a2.09,2.09,0,0,1,2.14-2.12,2.12,2.12,0,1,1,0,4.24A2.09,2.09,0,0,1,136.16,95.92Zm6.23,0a2.1,2.1,0,0,1,2.15-2.12,2.12,2.12,0,1,1,0,4.24A2.1,2.1,0,0,1,142.39,95.92Zm6.24,0a2.09,2.09,0,0,1,2.14-2.12,2.12,2.12,0,1,1,0,4.24A2.09,2.09,0,0,1,148.63,95.92Z" fill="#fff"/><path d="M154.43,94.77c0-2.58,2.18-3.59,5.83-3.59h1.05v-.25c0-1.05-.25-1.75-1.44-1.75a1.35,1.35,0,0,0-1.49,1.31h-3.53c.17-2.65,2.24-3.95,5.25-3.95s5,1.24,5,4.16v7.11H161.4V96.53a3.61,3.61,0,0,1-3.26,1.53C156.17,98.06,154.43,97.1,154.43,94.77Zm6.88-.8V93.3h-1c-1.51,0-2.19.29-2.19,1.2,0,.63.42,1,1.31,1C160.52,95.52,161.31,94.92,161.31,94Z" fill="#fff"/><path d="M167.64,94.29v-4.9h-1.33V86.83h1.33V84.54h3.75v2.29h2.17v2.56h-2.17v4.54a1,1,0,0,0,1.12,1.15,2.8,2.8,0,0,0,1.07-.19v2.86a7.76,7.76,0,0,1-2.08.31C169,98.06,167.64,96.87,167.64,94.29Z" fill="#fff"/><path d="M179.44,86.83h3.76V88.6a3.85,3.85,0,0,1,3.61-2.06c2.12,0,3.59,1.32,3.59,4.13v7.14h-3.76V91.43c0-1.24-.48-1.85-1.58-1.85s-1.86.67-1.86,2.08v6.15h-3.76Z" fill="#fff"/><path d="M192,92.46v-.17c0-3.53,2.63-5.75,6-5.75s6,2.16,6,5.65v.16c0,3.57-2.62,5.71-6,5.71S192,96,192,92.46Zm8.19-.06v-.17c0-1.85-.73-2.88-2.16-2.88s-2.18,1-2.18,2.84v.16c0,1.89.73,2.92,2.18,2.92S200.14,94.22,200.14,92.4Z" fill="#fff"/><path d="M209.15,92.46v-.17a5.62,5.62,0,0,1,5.94-5.75c3,0,5.59,1.72,5.59,5.67v1H213a2.2,2.2,0,0,0,2.29,2.29c1.24,0,1.76-.56,1.91-1.3h3.53c-.34,2.48-2.25,3.88-5.56,3.88S209.15,96.05,209.15,92.46ZM217,91.07c-.07-1.32-.72-2-1.94-2a2.07,2.07,0,0,0-2.09,2Z" fill="#fff"/><path d="M224.48,92.23l-3.42-5.4h4.32l1.7,2.9,1.66-2.9h3.87l-3.47,5.1,3.8,5.88h-4.32l-2-3.27-2,3.27h-3.84Z" fill="#fff"/><path d="M234.67,94.29v-4.9h-1.33V86.83h1.33V84.54h3.76v2.29h2.16v2.56h-2.16v4.54c0,.8.39,1.15,1.11,1.15a2.8,2.8,0,0,0,1.07-.19v2.86a7.76,7.76,0,0,1-2.08.31C236.05,98.06,234.67,96.87,234.67,94.29Z" fill="#fff"/><path d="M242.33,86.83h3.76V89a3.45,3.45,0,0,1,3.55-2.33v3.5c-2.29-.06-3.55.65-3.55,2.42v5.2h-3.76Z" fill="#fff"/><path d="M250.44,94.77c0-2.58,2.18-3.59,5.84-3.59h1.05v-.25c0-1.05-.26-1.75-1.45-1.75a1.35,1.35,0,0,0-1.49,1.31h-3.53c.17-2.65,2.24-3.95,5.25-3.95s4.95,1.24,4.95,4.16v7.11h-3.65V96.53a3.61,3.61,0,0,1-3.26,1.53C252.18,98.06,250.44,97.1,250.44,94.77Zm6.89-.8V93.3h-1c-1.51,0-2.19.29-2.19,1.2,0,.63.42,1,1.31,1C256.53,95.52,257.33,94.92,257.33,94Z" fill="#fff"/><path d="M19.52,113.46v-.17a5.53,5.53,0,0,1,5.86-5.75c2.69,0,5.17,1.17,5.38,4.51H27.23a1.62,1.62,0,0,0-1.76-1.59c-1.33,0-2.1.94-2.1,2.79v.17c0,1.91.73,2.89,2.16,2.89a1.83,1.83,0,0,0,1.91-1.82h3.38c-.1,2.77-2,4.57-5.52,4.57C22,119.06,19.52,117.15,19.52,113.46Z" fill="#fff"/><path d="M31.77,113.46v-.17c0-3.53,2.62-5.75,6-5.75s6,2.16,6,5.65v.16c0,3.57-2.63,5.71-6,5.71S31.77,117,31.77,113.46ZM40,113.4v-.17c0-1.85-.74-2.88-2.17-2.88s-2.18,1-2.18,2.84v.16c0,1.89.73,2.92,2.18,2.92S40,115.22,40,113.4Z" fill="#fff"/><path d="M44.75,115.33h3.46c.13.8.48,1.24,1.55,1.24s1.35-.36,1.35-.91-.53-.77-2-1c-2.94-.38-4.18-1.24-4.18-3.53,0-2.44,2.17-3.61,4.71-3.61,2.7,0,4.59.92,4.85,3.55H51a1.22,1.22,0,0,0-1.4-1.1c-.82,0-1.24.36-1.24.87s.5.73,1.85.9c3,.38,4.51,1.17,4.51,3.53,0,2.6-1.93,3.77-5,3.77S44.83,117.76,44.75,115.33Z" fill="#fff"/><path d="M56.8,115.29v-4.9H55.48v-2.56H56.8v-2.29h3.76v2.29h2.16v2.56H60.56v4.54c0,.8.4,1.15,1.11,1.15a2.76,2.76,0,0,0,1.07-.19v2.86a7.76,7.76,0,0,1-2.08.31C58.19,119.06,56.8,117.87,56.8,115.29Z" fill="#fff"/><path d="M64.32,116.92a2.09,2.09,0,0,1,2.14-2.12,2.12,2.12,0,1,1,0,4.24A2.09,2.09,0,0,1,64.32,116.92Z" fill="#fff"/><path d="M68.52,103.8H72l-.44,5.77H68.94Zm4.45,0h3.55l-.44,5.77H73.41Z" fill="#fff"/></g><g id="_NerdWallet" data-name="– NerdWallet"><path d="M185.15,147.05h7v1.35h-7Z" fill="#fff"/><path d="M197.58,140.79h2.54l4.82,8.28v-8.28h1.94v11.45h-2.21l-5.16-8.77v8.77h-1.93Z" fill="#fff"/><path d="M208.49,148.14V148a4.07,4.07,0,0,1,4.16-4.32c2.08,0,3.95,1.23,3.95,4.23v.56h-6.13c.07,1.58.87,2.48,2.31,2.48,1.17,0,1.78-.46,1.92-1.28h1.87c-.27,1.76-1.69,2.72-3.84,2.72A4,4,0,0,1,208.49,148.14Zm6.19-1c-.09-1.44-.83-2.08-2-2.08a2.14,2.14,0,0,0-2.14,2.08Z" fill="#fff"/><path d="M218.09,143.87H220v1.57a2.78,2.78,0,0,1,2.72-1.7v1.81c-1.7,0-2.72.56-2.72,2.34v4.35h-1.94Z" fill="#fff"/><path d="M223.46,148.19v-.13c0-2.67,1.59-4.37,3.77-4.37a2.86,2.86,0,0,1,2.67,1.46V140h1.94v12.24H229.9v-1.41a3.22,3.22,0,0,1-2.75,1.57C225.05,152.4,223.46,150.91,223.46,148.19Zm6.5-.1V148c0-1.84-.84-2.76-2.25-2.76s-2.26,1-2.26,2.8v.13c0,1.84.93,2.72,2.18,2.72S230,150,230,148.09Z" fill="#fff"/><path d="M233.16,140.79h2.18l2,8.41,2.23-8.41h1.76l2.27,8.46,2-8.46h2l-2.86,11.45h-2.13l-2.26-8.34L238,152.24h-2Z" fill="#fff"/><path d="M247.77,149.92c0-1.95,1.89-2.66,4.29-2.66h1v-.43c0-1.12-.39-1.68-1.52-1.68a1.39,1.39,0,0,0-1.6,1.31h-1.87c.15-2,1.71-2.77,3.58-2.77s3.35.77,3.35,3.06v5.49h-1.91v-1a2.91,2.91,0,0,1-2.56,1.18C249,152.4,247.77,151.66,247.77,149.92Zm5.33-.61v-.83h-1c-1.48,0-2.42.33-2.42,1.36,0,.7.38,1.17,1.34,1.17C252.22,151,253.1,150.38,253.1,149.31Z" fill="#fff"/><path d="M257.07,140H259v12.24h-1.93Z" fill="#fff"/><path d="M261.16,140h1.94v12.24h-1.94Z" fill="#fff"/><path d="M264.65,148.14V148a4.07,4.07,0,0,1,4.16-4.32c2.08,0,3.95,1.23,3.95,4.23v.56h-6.13c.07,1.58.87,2.48,2.31,2.48,1.17,0,1.77-.46,1.92-1.28h1.87c-.27,1.76-1.69,2.72-3.84,2.72A4,4,0,0,1,264.65,148.14Zm6.19-1c-.09-1.44-.83-2.08-2-2.08a2.14,2.14,0,0,0-2.14,2.08Z" fill="#fff"/><path d="M274.57,149.9v-4.57h-1.12v-1.46h1.12V142h1.94v1.84h1.84v1.46h-1.84v4.4c0,.73.35,1.07,1,1.07a2.4,2.4,0,0,0,.94-.16v1.54a3.78,3.78,0,0,1-1.31.2A2.25,2.25,0,0,1,274.57,149.9Z" fill="#fff"/></g></g></svg>