<svg xmlns="http://www.w3.org/2000/svg" viewBox="0 0 300 600"><title>Asset 4</title><g id="Layer_2" data-name="Layer 2"><g id="Rect"><rect width="300" height="600" fill="none"/></g><g id="Tired_of_TurboTax_Switch_to_Block_in_seconds." data-name="Tired of TurboTax? Switch to Block in seconds."><path d="M29.61,123.09H20.08V115H49.74v8.13H40.22v28.69H29.61Z" fill="#fff"/><path d="M52.06,117.53a5.09,5.09,0,1,1,5,4.74A4.82,4.82,0,0,1,52.06,117.53Zm.47,7.32h9.21v26.93H52.53Z" fill="#fff"/><path d="M66.69,124.85h9.22v5.35c1.7-4,4.53-5.77,8.7-5.72v8.6c-5.61-.15-8.7,1.6-8.7,5.93v12.77H66.69Z" fill="#fff"/><path d="M86.26,138.65v-.42c0-8.65,6.44-14.11,14.57-14.11,7.37,0,13.7,4.23,13.7,13.91v2.42h-19c.26,3.55,2.32,5.61,5.61,5.61,3,0,4.33-1.39,4.69-3.19h8.65c-.82,6.08-5.51,9.53-13.65,9.53C92.44,152.4,86.26,147.45,86.26,138.65Zm19.31-3.4c-.15-3.25-1.75-5.05-4.74-5.05-2.78,0-4.68,1.8-5.15,5.05Z" fill="#fff"/><path d="M116.39,138.6v-.42c0-9.16,5-14.06,11.43-14.06,4.22,0,6.75,1.81,8.29,4.54V113h9.22v38.78h-9.22V147.4a9.08,9.08,0,0,1-8.39,5C121.48,152.4,116.39,147.92,116.39,138.6Zm20-.16V138c0-4.53-1.91-6.95-5.31-6.95s-5.3,2.31-5.3,7v.41c0,4.53,2,6.85,5.2,6.85C134.31,145.34,136.37,143,136.37,138.44Z" fill="#fff"/><path d="M158,138.65v-.42c0-8.65,6.43-14.11,14.78-14.11S187.4,129.43,187.4,138v.41c0,8.75-6.43,14-14.73,14S158,147.35,158,138.65Zm20.08-.16v-.41c0-4.53-1.8-7.05-5.3-7.05s-5.36,2.42-5.36,6.95v.41c0,4.63,1.8,7.16,5.36,7.16S178,143,178,138.49Z" fill="#fff"/><path d="M192,131.13h-3.4v-6.28H192v-2.37c0-6.7,4.17-9.89,10.56-9.89a16.44,16.44,0,0,1,4.22.57v6.74a8.66,8.66,0,0,0-2.53-.36c-2.16,0-3.08,1.19-3.08,2.94v2.37h5.45v6.28h-5.45v20.65H192Z" fill="#fff"/><path d="M29.61,174.59H20.08v-8.13H49.74v8.13H40.22v28.69H29.61Z" fill="#fff"/><path d="M50.57,193.91V176.35h9.22v16.06c0,3,1.18,4.53,3.81,4.53s4.58-1.64,4.58-5.09v-15.5H77.4v26.93H68.18v-4.17c-1.44,2.78-4.07,4.79-8.55,4.79C54.43,203.9,50.57,200.7,50.57,193.91Z" fill="#fff"/><path d="M82.09,176.35h9.22v5.35c1.69-4,4.53-5.77,8.7-5.72v8.6c-5.61-.15-8.7,1.6-8.7,5.93v12.77H82.09Z" fill="#fff"/><path d="M112.57,199.11v4.17h-9.21V164.5h9.21v15.86a9.53,9.53,0,0,1,8.4-4.74c6.28,0,11.38,4.74,11.38,14V190c0,9.27-5.1,13.91-11.43,13.91C116.9,203.9,113.91,202,112.57,199.11ZM123,190v-.41c0-4.74-2.06-7-5.31-7s-5.35,2.42-5.35,6.95v.41c0,4.58,2,6.9,5.35,6.9S123,194.42,123,190Z" fill="#fff"/><path d="M134.26,190.15v-.42c0-8.65,6.43-14.11,14.78-14.11s14.67,5.31,14.67,13.86v.41c0,8.75-6.43,14-14.73,14S134.26,198.85,134.26,190.15Zm20.08-.16v-.41c0-4.53-1.8-7.05-5.3-7.05s-5.36,2.42-5.36,6.95v.41c0,4.63,1.8,7.16,5.36,7.16S154.34,194.47,154.34,190Z" fill="#fff"/><path d="M174.84,174.59h-9.53v-8.13H195v8.13h-9.52v28.69H174.84Z" fill="#fff"/><path d="M193.12,195.81c0-6.33,5.36-8.8,14.32-8.8H210v-.62c0-2.58-.62-4.28-3.55-4.28a3.32,3.32,0,0,0-3.66,3.2h-8.65c.41-6.49,5.51-9.69,12.88-9.69s12.15,3,12.15,10.2v17.46h-9v-3.14c-1.29,2-3.66,3.76-8,3.76C197.39,203.9,193.12,201.53,193.12,195.81Zm16.89-2v-1.64h-2.42c-3.71,0-5.35.72-5.35,2.93,0,1.55,1,2.53,3.19,2.53C208.05,197.67,210,196.17,210,193.85Z" fill="#fff"/><path d="M230.46,189.58l-8.4-13.23h10.61l4.17,7.1,4.07-7.1h9.48l-8.5,12.51,9.32,14.42H240.6l-4.79-8-4.89,8H221.5Z" fill="#fff"/><path d="M259.4,190.2c0-3.92,2.68-6.39,5.05-8.65,1.75-1.7,3.34-3.25,3.34-5.05,0-2-1-3.09-3.14-3.09s-3.7,1.7-4.07,4.53h-9c.26-7.77,5.82-12,13.75-12s12.42,3.56,12.42,9.68c0,3.4-1.7,5.72-3.76,7.73-2.53,2.52-5.46,4.53-5.93,7.05v.78h-8.7Zm-1.18,8.55a5.52,5.52,0,0,1,11,0,5.53,5.53,0,0,1-11,0Z" fill="#fff"/><path d="M20.18,243.09H30.23c.25,2.63,1.44,4.79,5.82,4.79,3,0,4.73-1.5,4.73-3.66s-1.39-2.88-5.82-3.55c-10.4-1.24-13.9-4.33-13.9-11.74,0-6.65,5.46-11.49,14.27-11.49s13.85,3.71,14.52,11.49H40.06c-.36-2.63-1.85-4-4.73-4s-4.28,1.29-4.28,3.14c0,2.06,1.13,3,5.72,3.61,9.32,1,14.11,3.45,14.11,11.43,0,6.75-5.36,12.26-14.83,12.26C25.75,255.4,20.49,251.07,20.18,243.09Z" fill="#fff"/><path d="M51.65,227.85h9.63L65.19,244l4.54-16.11h7.41l4,16.11,4.38-16.11h8.75l-8.55,26.93h-8.8l-4-15-4.17,15h-9Z" fill="#fff"/><path d="M96.46,220.53a5.08,5.08,0,1,1,5,4.74A4.81,4.81,0,0,1,96.46,220.53Zm.46,7.32h9.22v26.93H96.92Z" fill="#fff"/><path d="M112.32,246.13v-12h-3.25v-6.28h3.25v-5.62h9.22v5.62h5.3v6.28h-5.3v11.12c0,2,1,2.83,2.72,2.83a7,7,0,0,0,2.63-.46v7a19.19,19.19,0,0,1-5.1.78C115.72,255.4,112.32,252.46,112.32,246.13Z" fill="#fff"/><path d="M128.9,241.65v-.42c0-9,6.44-14.11,14.37-14.11,6.59,0,12.67,2.89,13.18,11.08H147.8c-.41-2.53-1.65-3.92-4.33-3.92-3.24,0-5.15,2.32-5.15,6.85v.41c0,4.69,1.81,7.11,5.31,7.11,2.57,0,4.38-1.54,4.68-4.48h8.3c-.26,6.8-4.85,11.23-13.55,11.23C135,255.4,128.9,250.71,128.9,241.65Z" fill="#fff"/><path d="M159.59,216h9.22v16.17a9.51,9.51,0,0,1,8.86-5c5.2,0,8.81,3.25,8.81,10.15v17.51h-9.22V239.12c0-3-1.19-4.53-3.87-4.53s-4.58,1.65-4.58,5.1v15.09h-9.22Z" fill="#fff"/><path d="M201.56,246.13v-12h-3.24v-6.28h3.24v-5.62h9.22v5.62h5.31v6.28h-5.31v11.12c0,2,1,2.83,2.73,2.83a7,7,0,0,0,2.63-.46v7a19.33,19.33,0,0,1-5.1.78C205,255.4,201.56,252.46,201.56,246.13Z" fill="#fff"/><path d="M218.15,241.65v-.42c0-8.65,6.43-14.11,14.78-14.11S247.6,232.43,247.6,241v.41c0,8.75-6.43,14-14.72,14S218.15,250.35,218.15,241.65Zm20.08-.16v-.41c0-4.53-1.8-7.05-5.3-7.05s-5.36,2.42-5.36,6.95v.41c0,4.63,1.8,7.16,5.36,7.16S238.23,246,238.23,241.49Z" fill="#fff"/><path d="M22.55,269.46H39c8.7,0,12.41,3.91,12.41,9.63v.2c0,4.12-2.11,6.85-6.23,7.93,4.53.78,7.37,3.51,7.37,8.6V296c0,6.59-4.28,10.25-13.39,10.25H22.55Zm14.32,14.62c3.3,0,4.53-1.13,4.53-3.76v-.2c0-2.53-1.34-3.66-4.53-3.66h-4v7.62Zm.36,15.14c3.35,0,4.89-1.54,4.89-4.27v-.21c0-2.78-1.49-4.22-5.2-4.22H32.85v8.7Z" fill="#fff"/><path d="M56.18,267.5h9.17v38.78H56.18Z" fill="#fff"/><path d="M68.85,293.15v-.42c0-8.65,6.44-14.11,14.78-14.11s14.68,5.31,14.68,13.86v.41c0,8.75-6.44,14-14.73,14S68.85,301.85,68.85,293.15ZM88.94,293v-.41c0-4.53-1.81-7.05-5.31-7.05s-5.36,2.42-5.36,7v.41c0,4.63,1.81,7.16,5.36,7.16S88.94,297.47,88.94,293Z" fill="#fff"/><path d="M100.11,293.15v-.42c0-9,6.44-14.11,14.37-14.11,6.59,0,12.67,2.89,13.18,11.08H119c-.41-2.53-1.65-3.92-4.32-3.92-3.25,0-5.15,2.32-5.15,6.85V293c0,4.69,1.8,7.11,5.3,7.11,2.57,0,4.38-1.54,4.69-4.48h8.29c-.26,6.8-4.84,11.23-13.55,11.23C106.24,306.9,100.11,302.21,100.11,293.15Z" fill="#fff"/><path d="M130.8,267.5H140V290l7.26-10.66h9.58l-8.8,12.1,9.52,14.83h-10.3L140,294.49v11.79H130.8Z" fill="#fff"/><path d="M168.91,272a5.09,5.09,0,1,1,5.05,4.74A4.82,4.82,0,0,1,168.91,272Zm.47,7.32h9.22v26.93h-9.22Z" fill="#fff"/><path d="M183.54,279.35h9.22v4.32a9.51,9.51,0,0,1,8.86-5.05c5.2,0,8.8,3.25,8.8,10.15v17.51H201.2V290.62c0-3-1.18-4.53-3.86-4.53s-4.58,1.65-4.58,5.1v15.09h-9.22Z" fill="#fff"/><path d="M19.93,349.23h8.49c.31,2,1.19,3,3.81,3,2.27,0,3.3-.88,3.3-2.22s-1.29-1.9-5-2.42c-7.21-.92-10.25-3-10.25-8.65,0-6,5.3-8.86,11.53-8.86,6.65,0,11.28,2.27,11.9,8.71H35.38c-.36-1.8-1.34-2.68-3.45-2.68s-3,.88-3,2.11,1.23,1.8,4.53,2.22c7.47.92,11.07,2.88,11.07,8.65,0,6.38-4.74,9.27-12.2,9.27C24.61,358.4,20.13,355.2,19.93,349.23Z" fill="#fff"/><path d="M46.19,344.65v-.41c0-8.66,6.44-14.12,14.58-14.12,7.36,0,13.69,4.23,13.69,13.91v2.42H55.51c.26,3.55,2.32,5.61,5.62,5.61,3,0,4.32-1.39,4.68-3.19h8.65C73.64,355,69,358.4,60.82,358.4,52.37,358.4,46.19,353.45,46.19,344.65Zm19.31-3.4c-.15-3.25-1.75-5.05-4.73-5.05-2.79,0-4.69,1.8-5.15,5.05Z" fill="#fff"/><path d="M76.22,344.65v-.41c0-9,6.43-14.12,14.36-14.12,6.6,0,12.67,2.89,13.19,11.08H95.12c-.42-2.53-1.65-3.92-4.33-3.92-3.24,0-5.15,2.32-5.15,6.85v.41c0,4.69,1.8,7.11,5.3,7.11,2.58,0,4.38-1.54,4.69-4.48h8.29c-.26,6.8-4.84,11.23-13.54,11.23C82.34,358.4,76.22,353.71,76.22,344.65Z" fill="#fff"/><path d="M105.47,344.65v-.41c0-8.66,6.43-14.12,14.78-14.12s14.67,5.31,14.67,13.86v.41c0,8.75-6.43,14-14.72,14S105.47,353.35,105.47,344.65Zm20.08-.16v-.41c0-4.53-1.8-7.05-5.3-7.05s-5.36,2.42-5.36,7v.41c0,4.63,1.8,7.16,5.36,7.16S125.55,349,125.55,344.49Z" fill="#fff"/><path d="M138.17,330.85h9.22v4.32a9.5,9.5,0,0,1,8.86-5.05c5.2,0,8.8,3.25,8.8,10.15v17.51h-9.22V342.12c0-3-1.18-4.53-3.86-4.53s-4.58,1.65-4.58,5.1v15.09h-9.22Z" fill="#fff"/><path d="M168.19,344.6v-.42c0-9.16,5.05-14.06,11.44-14.06,4.22,0,6.74,1.81,8.29,4.54V319h9.22v38.78h-9.22V353.4a9.09,9.09,0,0,1-8.4,5C173.29,358.4,168.19,353.92,168.19,344.6Zm20-.16V344c0-4.53-1.9-6.95-5.3-6.95s-5.3,2.31-5.3,7v.41c0,4.53,2,6.85,5.2,6.85S188.17,349,188.17,344.44Z" fill="#fff"/><path d="M200,349.23h8.5c.31,2,1.18,3,3.81,3,2.26,0,3.29-.88,3.29-2.22s-1.28-1.9-5-2.42c-7.21-.92-10.25-3-10.25-8.65,0-6,5.31-8.86,11.54-8.86,6.64,0,11.27,2.27,11.89,8.71h-8.34c-.36-1.8-1.34-2.68-3.45-2.68s-3,.88-3,2.11,1.24,1.8,4.53,2.22c7.47.92,11.07,2.88,11.07,8.65,0,6.38-4.73,9.27-12.2,9.27C204.71,358.4,200.23,355.2,200,349.23Z" fill="#fff"/><path d="M227.21,353.14a5.14,5.14,0,0,1,5.25-5.2,5.21,5.21,0,1,1,0,10.41A5.14,5.14,0,0,1,227.21,353.14Z" fill="#fff"/></g></g></svg>