<svg xmlns="http://www.w3.org/2000/svg" viewBox="0 0 300 600"><title>H4</title><g id="Layer_2" data-name="Layer 2"><g id="Artboard_4" data-name="Artboard 4" style="isolation:isolate"><g id="headline1"><g id="Drop_off_your_docs_and_a_tax_pro_does_the_rest." data-name="Drop off your docs and a tax pro does the rest."><path d="M22.81,105.7H37.18c14,0,21.16,7,21.16,19.28v.44c0,12.32-7.29,19.78-21.22,19.78H22.81Zm14,30.77c6.74,0,9.73-3.53,9.73-10.88v-.44c0-7.52-3-10.72-9.84-10.72H34.19v22Z" fill="#fff"/><path d="M62.15,116.31H72v5.74c1.82-4.31,4.86-6.19,9.34-6.13v9.23c-6-.17-9.34,1.71-9.34,6.35v13.7H62.15Z" fill="#fff"/><path d="M83.15,131.11v-.44c0-9.28,6.9-15.14,15.85-15.14s15.75,5.69,15.75,14.87v.44c0,9.39-6.91,15-15.8,15S83.15,140.45,83.15,131.11Zm21.54-.16v-.44c0-4.87-1.93-7.57-5.69-7.57s-5.74,2.59-5.74,7.46v.44c0,5,1.93,7.68,5.74,7.68S104.69,135.76,104.69,131Z" fill="#fff"/><path d="M118.23,116.31h9.89v4.31a10.19,10.19,0,0,1,9-5.09c6.74,0,12.21,5.09,12.21,15V131c0,9.94-5.47,14.92-12.27,14.92-4.36,0-7.51-2.05-8.95-4.92v13.92h-9.89Zm21,14.64v-.44c0-5.09-2.21-7.52-5.69-7.52s-5.75,2.6-5.75,7.46v.44c0,4.92,2.16,7.41,5.75,7.41S139.28,135.7,139.28,131Z" fill="#fff"/><path d="M161.43,131.11v-.44c0-9.28,6.91-15.14,15.86-15.14S193,121.22,193,130.4v.44c0,9.39-6.91,15-15.8,15S161.43,140.45,161.43,131.11ZM183,131v-.44c0-4.87-1.93-7.57-5.69-7.57s-5.75,2.59-5.75,7.46v.44c0,5,1.94,7.68,5.75,7.68S183,135.76,183,131Z" fill="#fff"/><path d="M198,123.05h-3.65v-6.74H198V114.1c0-7.19,4.42-10.56,11.27-10.56a16.24,16.24,0,0,1,4.42.56v7.23a8.76,8.76,0,0,0-2.65-.38,2.89,2.89,0,0,0-3.21,3.15v2.21h8.4v-2.55c0-7.18,4.53-10.6,11.33-10.6a17.76,17.76,0,0,1,4.53.6V111a9.14,9.14,0,0,0-2.71-.38c-2.26,0-3.26,1.27-3.26,3.14v2.55H232v6.74h-5.86V145.2h-9.89V123.05h-8.4V145.2H198Z" fill="#fff"/><path d="M31,199.52l-11.55-26H30.16l6,15.41,5.52-15.41H51.1L35.63,212.12H26.18Z" fill="#fff"/><path d="M50.55,188.36v-.44c0-9.28,6.9-15.14,15.85-15.14s15.75,5.69,15.75,14.87v.44c0,9.39-6.9,15-15.8,15S50.55,197.7,50.55,188.36Zm21.55-.16v-.44c0-4.87-1.94-7.57-5.7-7.57s-5.74,2.59-5.74,7.46v.44c0,5,1.93,7.68,5.74,7.68S72.1,193,72.1,188.2Z" fill="#fff"/><path d="M85.41,192.4V173.56H95.3v17.23c0,3.27,1.27,4.87,4.09,4.87,3,0,4.92-1.77,4.92-5.47V173.56h9.89v28.89h-9.89V198c-1.55,3-4.37,5.14-9.18,5.14C89.55,203.12,85.41,199.69,85.41,192.4Z" fill="#fff"/><path d="M119.22,173.56h9.89v5.74c1.83-4.31,4.86-6.19,9.34-6.13v9.23c-6-.17-9.34,1.71-9.34,6.35v13.7h-9.89Z" fill="#fff"/><path d="M150.66,188.31v-.44c0-9.84,5.41-15.09,12.26-15.09,4.54,0,7.24,1.94,8.9,4.87v-16.8h9.89v41.6h-9.89v-4.69a9.75,9.75,0,0,1-9,5.36C156.13,203.12,150.66,198.31,150.66,188.31Zm21.44-.17v-.44c0-4.86-2-7.46-5.69-7.46s-5.7,2.49-5.7,7.52v.44c0,4.86,2.16,7.35,5.58,7.35C169.89,195.55,172.1,193.06,172.1,188.14Z" fill="#fff"/><path d="M185.19,188.36v-.44c0-9.28,6.91-15.14,15.86-15.14s15.74,5.69,15.74,14.87v.44c0,9.39-6.9,15-15.8,15S185.19,197.7,185.19,188.36Zm21.55-.16v-.44c0-4.87-1.94-7.57-5.69-7.57s-5.75,2.59-5.75,7.46v.44c0,5,1.93,7.68,5.75,7.68S206.74,193,206.74,188.2Z" fill="#fff"/><path d="M218.73,188.36v-.44c0-9.61,6.9-15.14,15.41-15.14,7.07,0,13.59,3.1,14.15,11.88H239c-.44-2.71-1.76-4.2-4.64-4.2-3.48,0-5.52,2.49-5.52,7.35v.44c0,5,1.93,7.63,5.69,7.63,2.76,0,4.69-1.66,5-4.81h8.89c-.28,7.29-5.19,12.05-14.53,12.05C225.3,203.12,218.73,198.09,218.73,188.36Z" fill="#fff"/><path d="M250.11,193.28h9.11c.33,2.1,1.27,3.26,4.09,3.26,2.43,0,3.54-.94,3.54-2.37s-1.38-2-5.36-2.6c-7.74-1-11-3.26-11-9.28,0-6.41,5.69-9.51,12.38-9.51,7.13,0,12.1,2.43,12.76,9.34h-8.95c-.38-1.93-1.43-2.87-3.7-2.87s-3.26.94-3.26,2.26,1.33,1.94,4.86,2.38c8,1,11.88,3.09,11.88,9.28,0,6.85-5.08,10-13.09,10C255.13,203.12,250.33,199.69,250.11,193.28Z" fill="#fff"/><path d="M20.27,251.69c0-6.79,5.75-9.45,15.36-9.45h2.76v-.66c0-2.76-.66-4.59-3.81-4.59a3.55,3.55,0,0,0-3.92,3.43H21.38c.44-7,5.91-10.39,13.81-10.39s13,3.26,13,10.94V259.7H38.61v-3.37c-1.38,2.1-3.92,4-8.56,4C24.86,260.37,20.27,257.82,20.27,251.69Zm18.12-2.1v-1.77H35.8c-4,0-5.75.78-5.75,3.15,0,1.66,1.11,2.71,3.43,2.71C36.29,253.68,38.39,252.08,38.39,249.59Z" fill="#fff"/><path d="M53,230.81h9.89v4.64A10.2,10.2,0,0,1,72.43,230c5.58,0,9.45,3.48,9.45,10.89V259.7H72V242.91c0-3.26-1.27-4.87-4.14-4.87s-4.92,1.77-4.92,5.47V259.7H53Z" fill="#fff"/><path d="M85.24,245.56v-.44c0-9.84,5.42-15.09,12.27-15.09,4.53,0,7.24,1.94,8.9,4.87V218.1h9.89v41.6h-9.89V255a9.76,9.76,0,0,1-9,5.36C90.71,260.37,85.24,255.56,85.24,245.56Zm21.44-.17V245c0-4.86-2-7.46-5.69-7.46S95.3,240,95.3,245v.44c0,4.86,2.15,7.35,5.58,7.35C104.47,252.8,106.68,250.31,106.68,245.39Z" fill="#fff"/><path d="M129.72,251.69c0-6.79,5.75-9.45,15.36-9.45h2.76v-.66c0-2.76-.66-4.59-3.81-4.59a3.55,3.55,0,0,0-3.92,3.43h-9.29c.45-7,5.92-10.39,13.82-10.39s13,3.26,13,10.94V259.7h-9.62v-3.37c-1.38,2.1-3.92,4-8.56,4C134.31,260.37,129.72,257.82,129.72,251.69Zm18.12-2.1v-1.77h-2.59c-4,0-5.75.78-5.75,3.15,0,1.66,1.1,2.71,3.42,2.71C145.74,253.68,147.84,252.08,147.84,249.59Z" fill="#fff"/><path d="M173.86,250.42V237.55h-3.48v-6.74h3.48v-6h9.89v6h5.69v6.74h-5.69v11.93c0,2.1,1.05,3,2.93,3a7.54,7.54,0,0,0,2.82-.5v7.52a20.81,20.81,0,0,1-5.47.83C177.51,260.37,173.86,257.22,173.86,250.42Z" fill="#fff"/><path d="M191.65,251.69c0-6.79,5.75-9.45,15.36-9.45h2.77v-.66c0-2.76-.67-4.59-3.82-4.59a3.56,3.56,0,0,0-3.92,3.43h-9.28c.44-7,5.91-10.39,13.81-10.39s13,3.26,13,10.94V259.7H210v-3.37c-1.38,2.1-3.93,4-8.57,4C196.24,260.37,191.65,257.82,191.65,251.69Zm18.13-2.1v-1.77h-2.6c-4,0-5.75.78-5.75,3.15,0,1.66,1.11,2.71,3.43,2.71C207.68,253.68,209.78,252.08,209.78,249.59Z" fill="#fff"/><path d="M231.71,245l-9-14.2h11.38l4.48,7.62,4.36-7.62h10.17L244,244.23l10,15.47H242.59l-5.13-8.62-5.25,8.62H222.09Z" fill="#fff"/><path d="M21.93,288.06h9.89v4.31a10.19,10.19,0,0,1,9-5.09c6.75,0,12.22,5.09,12.22,15v.44c0,9.94-5.47,14.92-12.27,14.92-4.37,0-7.52-2.05-9-4.92v13.92H21.93ZM43,302.7v-.44c0-5.09-2.21-7.52-5.69-7.52s-5.75,2.6-5.75,7.46v.44c0,4.92,2.16,7.41,5.75,7.41S43,307.45,43,302.7Z" fill="#fff"/><path d="M56.63,288.06h9.89v5.74c1.82-4.31,4.86-6.19,9.33-6.13v9.23c-6-.17-9.33,1.71-9.33,6.35V317H56.63Z" fill="#fff"/><path d="M77.62,302.86v-.44c0-9.28,6.91-15.14,15.86-15.14s15.74,5.69,15.74,14.87v.44c0,9.39-6.9,15-15.8,15S77.62,312.2,77.62,302.86Zm21.55-.16v-.44c0-4.87-1.94-7.57-5.69-7.57s-5.75,2.59-5.75,7.46v.44c0,5,1.94,7.68,5.75,7.68S99.17,307.5,99.17,302.7Z" fill="#fff"/><path d="M121.32,302.81v-.44c0-9.84,5.42-15.09,12.27-15.09,4.53,0,7.24,1.94,8.89,4.87v-16.8h9.89V317h-9.89v-4.69a9.73,9.73,0,0,1-9,5.36C126.79,317.62,121.32,312.81,121.32,302.81Zm21.44-.17v-.44c0-4.86-2-7.46-5.69-7.46s-5.69,2.49-5.69,7.52v.44c0,4.86,2.15,7.35,5.58,7.35C140.55,310.05,142.76,307.56,142.76,302.64Z" fill="#fff"/><path d="M155.85,302.86v-.44c0-9.28,6.91-15.14,15.86-15.14s15.75,5.69,15.75,14.87v.44c0,9.39-6.91,15-15.8,15S155.85,312.2,155.85,302.86Zm21.55-.16v-.44c0-4.87-1.93-7.57-5.69-7.57s-5.75,2.59-5.75,7.46v.44c0,5,1.94,7.68,5.75,7.68S177.4,307.5,177.4,302.7Z" fill="#fff"/><path d="M189.39,302.86v-.44c0-9.28,6.91-15.14,15.64-15.14,7.9,0,14.69,4.53,14.69,14.92v2.6H199.39c.28,3.81,2.49,6,6,6,3.26,0,4.64-1.49,5-3.43h9.28c-.88,6.52-5.91,10.23-14.64,10.23C196,317.62,189.39,312.31,189.39,302.86Zm20.72-3.64c-.17-3.48-1.88-5.42-5.08-5.42-3,0-5,1.94-5.53,5.42Z" fill="#fff"/><path d="M221.49,307.78h9.12c.33,2.1,1.27,3.26,4.08,3.26,2.44,0,3.54-.94,3.54-2.37s-1.38-2.05-5.36-2.6c-7.73-1-11-3.26-11-9.28,0-6.41,5.69-9.51,12.37-9.51,7.13,0,12.1,2.43,12.76,9.34h-8.95c-.38-1.93-1.43-2.87-3.7-2.87s-3.26.94-3.26,2.26,1.33,1.94,4.86,2.38c8,1,11.88,3.09,11.88,9.28,0,6.85-5.08,9.95-13.09,9.95C226.52,317.62,221.71,314.19,221.49,307.78Z" fill="#fff"/><path d="M23.25,364.92V352.05H19.77v-6.74h3.48v-6h9.89v6h5.7v6.74h-5.7V364c0,2.1,1,3,2.93,3a7.54,7.54,0,0,0,2.82-.5V374a20.81,20.81,0,0,1-5.47.83C26.9,374.87,23.25,371.72,23.25,364.92Z" fill="#fff"/><path d="M42.59,332.6h9.89V350a10.2,10.2,0,0,1,9.5-5.42c5.59,0,9.45,3.48,9.45,10.89V374.2H61.54V357.41c0-3.26-1.27-4.87-4.14-4.87s-4.92,1.77-4.92,5.47V374.2H42.59Z" fill="#fff"/><path d="M74.69,360.11v-.44c0-9.28,6.91-15.14,15.64-15.14,7.9,0,14.69,4.53,14.69,14.92v2.6H84.69c.28,3.81,2.49,6,6,6,3.26,0,4.65-1.49,5-3.43H105c-.88,6.52-5.91,10.23-14.64,10.23C81.32,374.87,74.69,369.56,74.69,360.11Zm20.72-3.64c-.16-3.48-1.88-5.42-5.08-5.42-3,0-5,1.94-5.53,5.42Z" fill="#fff"/><path d="M118.5,345.31h9.89v5.74c1.83-4.31,4.87-6.19,9.34-6.13v9.23c-6-.17-9.34,1.71-9.34,6.35v13.7H118.5Z" fill="#fff"/><path d="M139.5,360.11v-.44c0-9.28,6.91-15.14,15.63-15.14,7.91,0,14.7,4.53,14.7,14.92v2.6H149.5c.28,3.81,2.49,6,6,6,3.26,0,4.64-1.49,5-3.43h9.28c-.88,6.52-5.91,10.23-14.64,10.23C146.13,374.87,139.5,369.56,139.5,360.11Zm20.72-3.64c-.17-3.48-1.88-5.42-5.09-5.42-3,0-5,1.94-5.52,5.42Z" fill="#fff"/><path d="M171.6,365h9.11c.34,2.1,1.28,3.26,4.09,3.26,2.43,0,3.54-.94,3.54-2.37s-1.38-2.05-5.36-2.6c-7.74-1-11-3.26-11-9.28,0-6.41,5.7-9.51,12.38-9.51,7.13,0,12.1,2.43,12.76,9.34h-9c-.38-1.93-1.43-2.87-3.7-2.87s-3.26.94-3.26,2.26,1.33,1.94,4.86,2.38c8,1,11.88,3.09,11.88,9.28,0,6.85-5.08,9.95-13.09,9.95C176.63,374.87,171.82,371.44,171.6,365Z" fill="#fff"/><path d="M202.48,364.92V352.05H199v-6.74h3.48v-6h9.89v6h5.69v6.74h-5.69V364c0,2.1,1,3,2.93,3a7.54,7.54,0,0,0,2.82-.5V374a20.81,20.81,0,0,1-5.47.83C206.13,374.87,202.48,371.72,202.48,364.92Z" fill="#fff"/><path d="M221.43,369.23a5.51,5.51,0,0,1,5.64-5.58,5.58,5.58,0,1,1,0,11.16A5.51,5.51,0,0,1,221.43,369.23Z" fill="#fff"/><rect width="300" height="600" fill="none"/></g></g></g></g></svg>