<svg xmlns="http://www.w3.org/2000/svg" viewBox="0 0 266 70"><title>cta_txt</title><g id="Layer_2" data-name="Layer 2"><g id="Layer_5" data-name="Layer 5"><g id="CTA"><rect width="266" height="70" fill="none"/><path d="M16.24,21.37h15v4.15H21.52v6.16h7.67v4H21.52v9H16.24Z" fill="#231f20"/><path d="M33.26,22.75a2.69,2.69,0,1,1,2.67,2.57A2.58,2.58,0,0,1,33.26,22.75Zm.36,4.89h4.7V44.7h-4.7Z" fill="#231f20"/><path d="M42.29,19.91H47V44.7h-4.7Z" fill="#231f20"/><path d="M49.76,36.38v-.26a8.47,8.47,0,0,1,8.78-8.87c4.4,0,8.31,2.57,8.31,8.68v1.3H54.56c.13,2.84,1.66,4.47,4.24,4.47,2.18,0,3.26-1,3.55-2.38h4.47c-.55,3.68-3.49,5.74-8.16,5.74C53.51,45.06,49.76,41.83,49.76,36.38Zm12.49-2.05c-.16-2.58-1.46-3.82-3.71-3.82s-3.56,1.4-3.92,3.82Z" fill="#231f20"/><path d="M75.42,33.18v-.26c0-7,5.09-11.87,12-11.87s12,4.73,12,11.74v.26c0,7-4.77,12-12,12S75.42,40,75.42,33.18Zm18.5-.06v-.26c0-4.54-2.41-7.64-6.49-7.64s-6.49,3-6.49,7.67v.26c0,4.77,2.74,7.7,6.55,7.7S93.92,37.82,93.92,33.12Z" fill="#231f20"/><path d="M102.33,27.64h4.73v2.71a5.89,5.89,0,0,1,5.54-3.1c3.37,0,5.75,2,5.75,6.59V44.7h-4.73V34.52c0-2.31-.92-3.42-3-3.42s-3.56,1.24-3.56,3.75V44.7h-4.73Z" fill="#231f20"/><path d="M122,19.91h4.7V44.7H122Z" fill="#231f20"/><path d="M130.31,22.75A2.69,2.69,0,1,1,133,25.32,2.58,2.58,0,0,1,130.31,22.75Zm.36,4.89h4.7V44.7h-4.7Z" fill="#231f20"/><path d="M139.21,27.64h4.73v2.71a5.9,5.9,0,0,1,5.55-3.1c3.36,0,5.74,2,5.74,6.59V44.7H150.5V34.52c0-2.31-.91-3.42-3-3.42a3.38,3.38,0,0,0-3.56,3.75V44.7h-4.73Z" fill="#231f20"/><path d="M157.74,36.38v-.26a8.46,8.46,0,0,1,8.77-8.87c4.41,0,8.32,2.57,8.32,8.68v1.3h-12.3c.13,2.84,1.67,4.47,4.24,4.47,2.19,0,3.27-1,3.56-2.38h4.47c-.56,3.68-3.49,5.74-8.16,5.74C161.49,45.06,157.74,41.83,157.74,36.38Zm12.49-2.05c-.16-2.58-1.47-3.82-3.72-3.82s-3.55,1.4-3.91,3.82Z" fill="#231f20"/><path d="M184.61,21.37h6.13l8.88,15.37V21.37h4.69V44.7H199l-9.72-16.61V44.7h-4.7Z" fill="#231f20"/><path d="M207.24,36.35v-.26c0-5.35,3.88-8.84,9-8.84s9,3.42,9,8.74v.26c0,5.38-3.89,8.81-9,8.81S207.24,41.67,207.24,36.35Zm13.18-.07v-.22c0-3.27-1.53-5.22-4.18-5.22s-4.17,1.89-4.17,5.15v.26c0,3.26,1.5,5.22,4.17,5.22S220.42,39.51,220.42,36.28Z" fill="#231f20"/><path d="M225.86,27.64h5l3,11.48,3.29-11.48H241l3,11.48,3.23-11.48h4.53L246.42,44.7h-4.64L238.88,34l-3.13,10.7h-4.7Z" fill="#231f20"/></g></g></g></svg>