<svg xmlns="http://www.w3.org/2000/svg" viewBox="0 0 600 500"><title>txt</title><g id="Layer_2" data-name="Layer 2"><g id="Layer_5" data-name="Layer 5"><g id="more_parents_can_file" data-name="more parents can file"><path d="M47.46,31.68h15L70.09,53l7.67-21.34H92.43v40H81V46.8l-9.8,24.92H67.4L57.71,46.8V71.72H47.46Z" fill="#fff"/><path d="M97.36,57.44V57c0-9.4,7-15.34,16.07-15.34s16,5.77,16,15.06v.45c0,9.52-7,15.23-16,15.23S97.36,66.91,97.36,57.44Zm21.84-.17v-.44c0-4.93-2-7.68-5.77-7.68s-5.82,2.64-5.82,7.56v.45c0,5,2,7.79,5.82,7.79S119.2,62.15,119.2,57.27Z" fill="#fff"/><path d="M133.76,42.43h10v5.83c1.85-4.37,4.93-6.27,9.47-6.22v9.35c-6.11-.16-9.47,1.74-9.47,6.44V71.72h-10Z" fill="#fff"/><path d="M155.88,57.44V57c0-9.4,7-15.34,15.85-15.34,8,0,14.89,4.59,14.89,15.12V59.4H166c.28,3.87,2.52,6.11,6.1,6.11,3.3,0,4.7-1.52,5.1-3.48h9.4c-.89,6.61-6,10.36-14.84,10.36C162.6,72.39,155.88,67,155.88,57.44Zm21-3.69c-.17-3.53-1.9-5.49-5.15-5.49-3,0-5.1,2-5.6,5.49Z" fill="#fff"/><path d="M202,42.43h10V46.8a10.34,10.34,0,0,1,9.13-5.15c6.83,0,12.38,5.15,12.38,15.18v.44c0,10.08-5.55,15.12-12.44,15.12-4.42,0-7.61-2.07-9.07-5V81.52H202ZM223.3,57.27v-.44c0-5.16-2.24-7.62-5.76-7.62s-5.83,2.63-5.83,7.56v.45c0,5,2.18,7.5,5.83,7.5S223.3,62.09,223.3,57.27Z" fill="#fff"/><path d="M236.29,63.6c0-6.89,5.83-9.57,15.57-9.57h2.8v-.68c0-2.8-.67-4.64-3.86-4.64a3.6,3.6,0,0,0-4,3.47h-9.4c.44-7.06,6-10.53,14-10.53s13.21,3.3,13.21,11.09v19h-9.74V68.31c-1.4,2.12-4,4.08-8.68,4.08C240.94,72.39,236.29,69.82,236.29,63.6Zm18.37-2.13V59.68H252c-4,0-5.82.79-5.82,3.19,0,1.68,1.12,2.75,3.47,2.75C252.54,65.62,254.66,64,254.66,61.47Z" fill="#fff"/><path d="M270.34,42.43h10v5.83c1.84-4.37,4.92-6.27,9.46-6.22v9.35c-6.1-.16-9.46,1.74-9.46,6.44V71.72h-10Z" fill="#fff"/><path d="M292.46,57.44V57c0-9.4,7-15.34,15.85-15.34,8,0,14.9,4.59,14.9,15.12V59.4H302.6c.28,3.87,2.52,6.11,6.1,6.11,3.31,0,4.71-1.52,5.1-3.48h9.41c-.9,6.61-6,10.36-14.84,10.36C299.18,72.39,292.46,67,292.46,57.44Zm21-3.69c-.17-3.53-1.9-5.49-5.15-5.49-3,0-5.1,2-5.6,5.49Z" fill="#fff"/><path d="M327.52,42.43h10v4.71a10.33,10.33,0,0,1,9.63-5.49c5.66,0,9.58,3.53,9.58,11v19h-10v-17c0-3.31-1.28-4.93-4.19-4.93s-5,1.79-5,5.54V71.72h-10Z" fill="#fff"/><path d="M363.81,62.31v-13h-3.53V42.43h3.53v-6.1h10v6.1h5.77v6.84h-5.77V61.36c0,2.13,1.06,3.08,3,3.08a7.7,7.7,0,0,0,2.85-.5v7.61a20.79,20.79,0,0,1-5.54.84C367.5,72.39,363.81,69.2,363.81,62.31Z" fill="#fff"/><path d="M382.68,62.43h9.24c.33,2.12,1.28,3.3,4.14,3.3,2.46,0,3.58-1,3.58-2.41s-1.4-2.07-5.43-2.63c-7.84-1-11.14-3.3-11.14-9.41,0-6.49,5.77-9.63,12.54-9.63,7.23,0,12.27,2.46,12.94,9.46h-9.07c-.4-2-1.46-2.91-3.76-2.91s-3.3.95-3.3,2.3,1.34,2,4.93,2.41c8.12,1,12,3.13,12,9.4,0,7-5.15,10.08-13.27,10.08C387.77,72.39,382.9,68.92,382.68,62.43Z" fill="#fff"/><path d="M45,117.44V117c0-9.74,7-15.34,15.62-15.34,7.17,0,13.78,3.14,14.34,12H65.55c-.45-2.74-1.79-4.26-4.7-4.26-3.53,0-5.6,2.52-5.6,7.45v.45c0,5.1,2,7.73,5.77,7.73,2.8,0,4.76-1.68,5.09-4.87h9c-.28,7.39-5.27,12.2-14.73,12.2C51.66,132.39,45,127.3,45,117.44Z" fill="#fff"/><path d="M77.7,123.6c0-6.89,5.83-9.57,15.57-9.57h2.8v-.68c0-2.8-.67-4.64-3.86-4.64a3.6,3.6,0,0,0-4,3.47H78.82c.45-7.06,6-10.53,14-10.53S106,105,106,112.74v19H96.3v-3.41c-1.4,2.12-4,4.08-8.68,4.08C82.35,132.39,77.7,129.82,77.7,123.6Zm18.37-2.13v-1.79H93.44c-4,0-5.82.79-5.82,3.19,0,1.68,1.12,2.75,3.47,2.75C93.94,125.62,96.07,124,96.07,121.47Z" fill="#fff"/><path d="M111.75,102.43h10v4.71c1.56-3,4.76-5.49,9.63-5.49,5.65,0,9.57,3.53,9.57,11v19H131v-17c0-3.31-1.29-4.93-4.2-4.93s-5,1.79-5,5.54v16.41h-10Z" fill="#fff"/><path d="M159.24,109.27h-3.7v-6.84h3.7V99.86c0-7.28,4.53-10.75,11.42-10.75a16.66,16.66,0,0,1,4.48.56V97a8.74,8.74,0,0,0-2.63-.33c-2.3,0-3.3,1.28-3.3,3.19v2.57h5.93v6.84h-5.93v22.45h-10Z" fill="#fff"/><path d="M178.56,94.48A5.23,5.23,0,0,1,184,89.27a5.19,5.19,0,1,1,0,10.36A5.18,5.18,0,0,1,178.56,94.48Zm.5,8h10v29.29h-10Z" fill="#fff"/><path d="M195.58,89.55h10v42.17h-10Z" fill="#fff"/><path d="M210.2,117.44V117c0-9.4,7-15.34,15.84-15.34,8,0,14.9,4.59,14.9,15.12v2.63H220.33c.28,3.87,2.52,6.11,6.11,6.11,3.3,0,4.7-1.52,5.09-3.48h9.41c-.9,6.61-6,10.36-14.84,10.36C216.92,132.39,210.2,127,210.2,117.44Zm21-3.69c-.17-3.53-1.91-5.49-5.16-5.49-3,0-5.09,2-5.59,5.49Z" fill="#fff"/><path d="M257.79,109.27H254.1v-6.84h3.69V99.86c0-7.28,4.54-10.75,11.48-10.75a18.25,18.25,0,0,1,4.6.61v7.34a9.07,9.07,0,0,0-2.75-.39c-2.35,0-3.36,1.28-3.36,3.19v2.57h5.94v6.84h-5.94v22.45h-10Z" fill="#fff"/><path d="M275.32,117.44V117c0-9.4,7-15.34,16.07-15.34s16,5.77,16,15.06v.45c0,9.52-7,15.23-16,15.23S275.32,126.91,275.32,117.44Zm21.84-.17v-.44c0-4.93-2-7.68-5.77-7.68s-5.82,2.64-5.82,7.56v.45c0,5,2,7.79,5.82,7.79S297.16,122.15,297.16,117.27Z" fill="#fff"/><path d="M311.72,102.43h10v5.83c1.84-4.37,4.92-6.27,9.46-6.22v9.35c-6.1-.16-9.46,1.74-9.46,6.44v13.89h-10Z" fill="#fff"/><path d="M348.23,109.27h-3.69v-6.84h3.69V99.86c0-7.28,4.54-10.75,11.48-10.75a18.1,18.1,0,0,1,4.59.61v7.34a9,9,0,0,0-2.74-.39c-2.35,0-3.36,1.28-3.36,3.19v2.57h5.94v6.84H358.2v22.45h-10Z" fill="#fff"/><path d="M368.34,102.43h10v5.83c1.85-4.37,4.93-6.27,9.46-6.22v9.35c-6.1-.16-9.46,1.74-9.46,6.44v13.89h-10Z" fill="#fff"/><path d="M390.46,117.44V117c0-9.4,7-15.34,15.84-15.34,8,0,14.9,4.59,14.9,15.12v2.63H400.59c.28,3.87,2.52,6.11,6.11,6.11,3.3,0,4.7-1.52,5.09-3.48h9.41c-.9,6.61-6,10.36-14.84,10.36C397.17,132.39,390.46,127,390.46,117.44Zm21-3.69c-.17-3.53-1.91-5.49-5.16-5.49-3,0-5.09,2-5.6,5.49Z" fill="#fff"/><path d="M423.94,117.44V117c0-9.4,7-15.34,15.85-15.34,8,0,14.9,4.59,14.9,15.12v2.63H434.08c.28,3.87,2.52,6.11,6.1,6.11,3.31,0,4.71-1.52,5.1-3.48h9.41c-.9,6.61-6,10.36-14.84,10.36C430.66,132.39,423.94,127,423.94,117.44Zm21-3.69c-.16-3.53-1.9-5.49-5.15-5.49-3,0-5.09,2-5.6,5.49Z" fill="#fff"/><path d="M44.1,162.43H54.58L58.83,180l4.93-17.53h8.06L76.19,180,81,162.43h9.52l-9.29,29.29H71.6l-4.37-16.35L62.7,191.72H53Z" fill="#fff"/><path d="M93.66,154.48a5.53,5.53,0,1,1,5.49,5.15A5.24,5.24,0,0,1,93.66,154.48Zm.51,8h10v29.29h-10Z" fill="#fff"/><path d="M111.75,182.31v-13h-3.53v-6.84h3.53v-6.1h10v6.1h5.76v6.84h-5.76v12.09c0,2.13,1.06,3.08,3,3.08a7.8,7.8,0,0,0,2.86-.5v7.61a20.86,20.86,0,0,1-5.54.84C115.45,192.39,111.75,189.2,111.75,182.31Z" fill="#fff"/><path d="M132.19,149.55h10v17.59a10.34,10.34,0,0,1,9.64-5.49c5.65,0,9.57,3.53,9.57,11v19h-10v-17c0-3.31-1.29-4.93-4.2-4.93s-5,1.79-5,5.54v16.41h-10Z" fill="#fff"/><path d="M179.06,151.68H190.6V167h13.16V151.68h11.48v40H203.76V175.93H190.6v15.79H179.06Z" fill="#fff"/><path d="M254.49,183.55l6.67,8.17H248.11l-2.35-2.91A15.93,15.93,0,0,1,235,192.39c-8.51,0-14.06-4.48-14.06-12.09,0-5.15,3.14-9,8.8-11.65a12.75,12.75,0,0,1-2.47-7c0-6.83,5.83-10.47,12.88-10.47,6.39,0,12.15,3.19,12.15,9.35,0,4.37-2.57,7.56-8,9.91l5,6.16,2.91-5.71h8.73Zm-13.88-1.18-6.33-7.62a4.76,4.76,0,0,0-2.69,4.32c0,2.91,1.74,5,5.1,5A5.27,5.27,0,0,0,240.61,182.37Zm-1.24-16.13c2.69-1.29,4-2.8,4-4.87a2.89,2.89,0,0,0-3-3.08,3.19,3.19,0,0,0-3.3,3.47C237.08,163.22,238,164.62,239.37,166.24Z" fill="#fff"/><path d="M265.64,151.68h15.68c10.47,0,16.29,4.26,16.29,12.71v.23c0,5.71-3,8.9-7.22,10.53L300,191.72H287.87l-8.12-14.33h-2.69v14.33H265.64Zm15.12,18.26c3.86,0,5.77-1.63,5.77-4.87v-.23c0-3.25-2-4.53-5.72-4.53h-3.75v9.63Z" fill="#fff"/><path d="M315.7,151.68h17.86c9.47,0,13.5,4.26,13.5,10.47v.23c0,4.48-2.3,7.45-6.78,8.62,4.93.84,8,3.81,8,9.35v.23c0,7.17-4.65,11.14-14.56,11.14h-18Zm15.57,15.91c3.58,0,4.93-1.24,4.93-4.09v-.23c0-2.74-1.46-4-4.93-4H326.9v8.29Zm.39,16.46c3.64,0,5.32-1.68,5.32-4.65v-.22c0-3-1.62-4.59-5.66-4.59H326.9v9.46Z" fill="#fff"/><path d="M353.11,149.55h10v42.17h-10Z" fill="#fff"/><path d="M367.72,177.44V177c0-9.4,7-15.34,16.07-15.34s16,5.77,16,15.06v.45c0,9.52-7,15.23-16,15.23S367.72,186.91,367.72,177.44Zm21.84-.17v-.44c0-4.93-2-7.68-5.77-7.68s-5.82,2.64-5.82,7.56v.45c0,5,2,7.79,5.82,7.79S389.56,182.15,389.56,177.27Z" fill="#fff"/><path d="M402.55,177.44V177c0-9.74,7-15.34,15.63-15.34,7.17,0,13.78,3.14,14.33,12h-9.4c-.45-2.74-1.8-4.26-4.71-4.26-3.52,0-5.6,2.52-5.6,7.45v.45c0,5.1,2,7.73,5.77,7.73,2.8,0,4.76-1.68,5.1-4.87h9c-.28,7.39-5.26,12.2-14.72,12.2C409.22,192.39,402.55,187.3,402.55,177.44Z" fill="#fff"/><path d="M436.77,149.55h10V174l7.9-11.6h10.42l-9.58,13.16,10.36,16.13h-11.2l-7.9-12.82v12.82h-10Z" fill="#fff"/><path d="M45.34,232v-.44c0-12.21,9.18-20.39,21.16-20.39,12.21,0,21.23,7.67,21.23,20.11v.44c0,12.32-8.46,20.72-21.39,20.72S45.34,244,45.34,232Zm30.4-.11v-.45c0-7.11-3.58-11.31-9.24-11.31s-9.18,4.09-9.18,11.37v.45c0,7.28,3.7,11.48,9.24,11.48S75.74,239,75.74,231.84Z" fill="#fff"/><path d="M92.43,222.43h10v4.71c1.56-3,4.76-5.49,9.63-5.49,5.65,0,9.57,3.53,9.57,11v19h-10v-17c0-3.31-1.29-4.93-4.2-4.93s-5,1.79-5,5.54v16.41h-10Z" fill="#fff"/><path d="M127.66,209.55h10v42.17h-10Z" fill="#fff"/><path d="M143.62,214.48a5.23,5.23,0,0,1,5.48-5.21,5.19,5.19,0,1,1,0,10.36A5.18,5.18,0,0,1,143.62,214.48Zm.5,8h10v29.29h-10Z" fill="#fff"/><path d="M160.36,222.43h10v4.71a10.33,10.33,0,0,1,9.63-5.49c5.66,0,9.58,3.53,9.58,11v19h-10v-17c0-3.31-1.29-4.93-4.2-4.93s-5,1.79-5,5.54v16.41h-10Z" fill="#fff"/><path d="M193.73,237.44V237c0-9.4,7-15.34,15.85-15.34,8,0,14.9,4.59,14.9,15.12v2.63H203.87c.28,3.87,2.52,6.1,6.1,6.1,3.31,0,4.71-1.51,5.1-3.47h9.41c-.9,6.61-6,10.36-14.84,10.36C200.45,252.39,193.73,247,193.73,237.44Zm21-3.69c-.16-3.53-1.9-5.49-5.15-5.49-3,0-5.09,2-5.6,5.49Z" fill="#fff"/><path d="M241.16,242.31v-13h-3.52v-6.84h3.52v-6.1h10v6.1H257v6.84h-5.77v12.09c0,2.13,1.06,3.08,3,3.08a7.7,7.7,0,0,0,2.85-.5v7.61a20.86,20.86,0,0,1-5.54.84C244.86,252.39,241.16,249.2,241.16,242.31Z" fill="#fff"/><path d="M261.6,209.55h10v17.59a10.33,10.33,0,0,1,9.63-5.49c5.66,0,9.58,3.53,9.58,11v19h-10v-17c0-3.31-1.29-4.93-4.2-4.93s-5,1.79-5,5.54v16.41h-10Z" fill="#fff"/><path d="M294.87,243.6c0-6.89,5.82-9.57,15.57-9.57h2.79v-.68c0-2.8-.67-4.64-3.86-4.64a3.59,3.59,0,0,0-4,3.47H296c.45-7.06,6-10.53,14-10.53s13.21,3.3,13.21,11.09v19h-9.74v-3.41c-1.4,2.12-4,4.08-8.68,4.08C299.51,252.39,294.87,249.82,294.87,243.6Zm18.36-2.13v-1.79H310.6c-4,0-5.82.79-5.82,3.19,0,1.68,1.12,2.75,3.47,2.75C311.11,245.62,313.23,244,313.23,241.47Z" fill="#fff"/><path d="M328.92,222.43h10v4.71a10.33,10.33,0,0,1,9.63-5.49c5.66,0,9.58,3.53,9.58,11v19h-10v-17c0-3.31-1.28-4.93-4.2-4.93s-5,1.79-5,5.54v16.41h-10Z" fill="#fff"/><path d="M55.14,280.53H44.78v-8.85H77v8.85H66.67v31.19H55.14Z" fill="#fff"/><path d="M78.77,301.53V282.44h10v17.47c0,3.3,1.29,4.92,4.15,4.92,3,0,5-1.79,5-5.54V282.44h10v29.28h-10v-4.53c-1.57,3-4.42,5.2-9.3,5.2C83,312.39,78.77,308.92,78.77,301.53Z" fill="#fff"/><path d="M113.88,282.44h10v5.82c1.85-4.37,4.93-6.27,9.47-6.22v9.35c-6.11-.16-9.47,1.74-9.47,6.44v13.89h-10Z" fill="#fff"/><path d="M147.87,307.19v4.53h-10V269.55h10V286.8a10.34,10.34,0,0,1,9.13-5.15c6.83,0,12.38,5.15,12.38,15.18v.45c0,10.08-5.55,15.11-12.44,15.11C152.58,312.39,149.33,310.32,147.87,307.19Zm11.31-9.91v-.45c0-5.16-2.24-7.62-5.76-7.62s-5.83,2.63-5.83,7.56v.45c0,5,2.19,7.5,5.83,7.5S159.18,302.09,159.18,297.28Z" fill="#fff"/><path d="M172.29,297.44V297c0-9.4,7-15.34,16.07-15.34s16,5.77,16,15.06v.45c0,9.52-7,15.23-16,15.23S172.29,306.91,172.29,297.44Zm21.84-.16v-.45c0-4.93-2-7.68-5.77-7.68s-5.82,2.64-5.82,7.56v.45c0,5,2,7.79,5.82,7.79S194.13,302.15,194.13,297.28Z" fill="#fff"/><path d="M217.26,280.53H206.9v-8.85h32.25v8.85H228.79v31.19H217.26Z" fill="#fff"/><path d="M238,303.6c0-6.89,5.82-9.57,15.56-9.57h2.8v-.67c0-2.81-.67-4.65-3.86-4.65a3.6,3.6,0,0,0-4,3.47h-9.4c.44-7.06,6-10.53,14-10.53s13.21,3.31,13.21,11.09v19h-9.74v-3.41c-1.4,2.13-4,4.08-8.68,4.08C242.62,312.39,238,309.82,238,303.6Zm18.36-2.13v-1.79h-2.63c-4,0-5.82.79-5.82,3.2,0,1.67,1.12,2.74,3.47,2.74C254.22,305.62,256.34,304,256.34,301.47Z" fill="#fff"/><path d="M279.42,296.83l-9.13-14.39h11.53l4.54,7.72,4.42-7.72h10.31L291.85,296,302,311.72H290.45L285.24,303l-5.32,8.73H269.67Z" fill="#fff"/><path d="M304.84,306.68a5.58,5.58,0,0,1,5.71-5.65,5.66,5.66,0,1,1,0,11.31A5.59,5.59,0,0,1,304.84,306.68Z" fill="#fff"/><rect width="600" height="500" fill="none"/></g></g></g></svg>