<svg xmlns="http://www.w3.org/2000/svg" viewBox="0 0 160 600"><title>H4</title><g id="Layer_2" data-name="Layer 2"><g id="Rect"><rect width="160" height="600" fill="none"/></g><g id="H4"><g id="You_could_get_a_Refund_Advance_loan._0_interest._Starts_Jan_4." data-name="You could get a Refund Advance loan. 0% interest. Starts Jan 4."><path d="M26.77,50,20.22,38.55h6.27l3.4,6.77,3.4-6.77H38.8L32.56,50v8.61H26.77Z" fill="#fff"/><path d="M36.69,51.48v-.23c0-4.72,3.52-7.7,8.07-7.7s8,2.9,8,7.56v.23c0,4.78-3.51,7.64-8,7.64S36.69,56.23,36.69,51.48Zm11-.09v-.22c0-2.47-1-3.85-2.89-3.85s-2.93,1.32-2.93,3.79v.23c0,2.53,1,3.9,2.93,3.9S47.65,53.84,47.65,51.39Z" fill="#fff"/><path d="M54.42,53.53V44h5v8.76c0,1.66.65,2.48,2.08,2.48S64,54.29,64,52.41V44h5v14.7H64V56.37A4.84,4.84,0,0,1,59.37,59C56.53,59,54.42,57.24,54.42,53.53Z" fill="#fff"/><path d="M20.7,84.58v-.23c0-4.89,3.52-7.7,7.84-7.7,3.6,0,6.92,1.58,7.2,6H31a2.17,2.17,0,0,0-2.36-2.13c-1.77,0-2.81,1.26-2.81,3.74v.22c0,2.56,1,3.88,2.89,3.88A2.45,2.45,0,0,0,31.3,86h4.52c-.14,3.71-2.64,6.12-7.39,6.12C24.05,92.08,20.7,89.52,20.7,84.58Z" fill="#fff"/><path d="M36.66,84.58v-.23c0-4.72,3.52-7.7,8.07-7.7s8,2.9,8,7.56v.23c0,4.78-3.51,7.64-8,7.64S36.66,89.33,36.66,84.58Zm11-.09v-.22c0-2.47-1-3.85-2.89-3.85s-2.92,1.32-2.92,3.79v.23c0,2.53,1,3.9,2.92,3.9S47.62,86.94,47.62,84.49Z" fill="#fff"/><path d="M54.39,86.63V77.05h5v8.76c0,1.66.64,2.48,2.08,2.48s2.5-.9,2.5-2.78V77.05h5v14.7H64V89.47a4.83,4.83,0,0,1-4.67,2.61C56.5,92.08,54.39,90.34,54.39,86.63Z" fill="#fff"/><path d="M71.73,70.58h5V91.75h-5Z" fill="#fff"/><path d="M78.7,84.55v-.22c0-5,2.75-7.68,6.24-7.68a4.76,4.76,0,0,1,4.52,2.48V70.58h5V91.75h-5V89.36a5,5,0,0,1-4.58,2.72C81.48,92.08,78.7,89.64,78.7,84.55Zm10.91-.08v-.23c0-2.47-1-3.79-2.9-3.79s-2.89,1.26-2.89,3.82v.22c0,2.48,1.09,3.74,2.83,3.74S89.61,87,89.61,84.47Z" fill="#fff"/><path d="M20.67,124.85h5c.22,1.06.87,1.91,2.7,1.91a2.78,2.78,0,0,0,3.12-3.09v-2.25a5.17,5.17,0,0,1-4.56,2.69c-3.43,0-6.24-2.53-6.24-7v-.23c0-4.32,2.79-7.08,6.24-7.08a4.8,4.8,0,0,1,4.56,2.48v-2.08h5v13.46c0,4.38-2.9,6.69-8.15,6.69C23.37,130.3,21.07,128.19,20.67,124.85Zm11-7.82v-.2c0-2-1-3.31-2.9-3.31s-2.89,1.32-2.89,3.34v.23c0,2,1.06,3.31,2.86,3.31S31.64,119.11,31.64,117Z" fill="#fff"/><path d="M38.29,117.68v-.23c0-4.72,3.52-7.7,8-7.7,4,0,7.47,2.31,7.47,7.59v1.32H43.38a2.94,2.94,0,0,0,3.06,3.07c1.66,0,2.36-.76,2.56-1.75h4.72c-.45,3.32-3,5.2-7.44,5.2C41.67,125.18,38.29,122.48,38.29,117.68Zm10.54-1.86c-.08-1.77-.95-2.75-2.58-2.75s-2.56,1-2.81,2.75Z" fill="#fff"/><path d="M56.14,120.12v-6.55H54.37v-3.42h1.77v-3.07h5v3.07h2.89v3.42H61.17v6.08a1.34,1.34,0,0,0,1.49,1.54,3.8,3.8,0,0,0,1.43-.25v3.82a10.52,10.52,0,0,1-2.78.42C58,125.18,56.14,123.58,56.14,120.12Z" fill="#fff"/><path d="M70.24,120.77c0-3.46,2.93-4.81,7.82-4.81h1.4v-.33c0-1.41-.34-2.34-1.94-2.34a1.8,1.8,0,0,0-2,1.75H70.8c.23-3.55,3-5.29,7-5.29s6.63,1.66,6.63,5.57v9.53H79.57v-1.72a4.81,4.81,0,0,1-4.35,2.05C72.57,125.18,70.24,123.89,70.24,120.77Zm9.22-1.07v-.9H78.14c-2,0-2.92.4-2.92,1.6,0,.85.56,1.38,1.74,1.38C78.39,121.78,79.46,121,79.46,119.7Z" fill="#fff"/><path d="M21.94,137.85h7.87c5.26,0,8.18,2.14,8.18,6.38v.11a5.26,5.26,0,0,1-3.63,5.29L39.17,158H33.1L29,150.75H27.67V158H21.94ZM29.53,147c1.94,0,2.89-.81,2.89-2.44v-.12c0-1.63-1-2.27-2.86-2.27H27.67V147Z" fill="#fff"/><path d="M39.16,150.78v-.23c0-4.72,3.52-7.7,8-7.7,4,0,7.47,2.31,7.47,7.59v1.32H44.25a2.94,2.94,0,0,0,3.07,3.07c1.65,0,2.36-.76,2.55-1.75h4.72c-.44,3.32-3,5.2-7.44,5.2C42.54,158.28,39.16,155.58,39.16,150.78Zm10.54-1.86c-.08-1.77-1-2.75-2.58-2.75s-2.56,1-2.81,2.75Z" fill="#fff"/><path d="M57.09,146.67H55.24v-3.42h1.85V142c0-3.65,2.28-5.39,5.76-5.39a9,9,0,0,1,2.31.31v3.68a4.75,4.75,0,0,0-1.38-.2A1.47,1.47,0,0,0,62.1,142v1.3h3v3.42h-3V158h-5Z" fill="#fff"/><path d="M66.65,152.83v-9.58h5V152c0,1.66.64,2.48,2.08,2.48s2.5-.9,2.5-2.78v-8.46h5V158h-5v-2.28a4.83,4.83,0,0,1-4.67,2.61C68.75,158.28,66.65,156.54,66.65,152.83Z" fill="#fff"/><path d="M83.84,143.25h5v2.36a5.2,5.2,0,0,1,4.84-2.76c2.84,0,4.8,1.77,4.8,5.54V158h-5V149.4c0-1.66-.64-2.47-2.1-2.47s-2.51.9-2.51,2.78V158h-5Z" fill="#fff"/><path d="M100.22,150.75v-.22c0-5,2.76-7.68,6.24-7.68a4.77,4.77,0,0,1,4.53,2.48v-8.55h5V158h-5v-2.39a5,5,0,0,1-4.58,2.72C103,158.28,100.22,155.84,100.22,150.75Zm10.91-.08v-.23c0-2.47-1-3.79-2.9-3.79s-2.89,1.26-2.89,3.82v.22c0,2.48,1.1,3.74,2.84,3.74S111.13,153.17,111.13,150.67Z" fill="#fff"/><path d="M26.8,171h7.45l6.38,20.1h-6.1l-1.07-3.74H26.8l-1.07,3.74H20.37Zm1.13,12.39h4.41l-2.19-7.73Z" fill="#fff"/><path d="M41,183.85v-.23c0-5,2.76-7.67,6.24-7.67a4.78,4.78,0,0,1,4.53,2.48v-8.55h5v21.17h-5v-2.39a5,5,0,0,1-4.58,2.72C43.75,191.38,41,188.94,41,183.85Zm10.91-.08v-.23c0-2.47-1-3.79-2.9-3.79s-2.89,1.26-2.89,3.82v.22c0,2.48,1.09,3.74,2.84,3.74S51.87,186.27,51.87,183.77Z" fill="#fff"/><path d="M58.05,176.35h5.37l3.06,9.47,3-9.47h4.8l-5.37,14.7H63.44Z" fill="#fff"/><path d="M74.09,187c0-3.46,2.93-4.81,7.82-4.81h1.4v-.33c0-1.41-.34-2.34-1.94-2.34a1.81,1.81,0,0,0-2,1.75H74.65c.23-3.55,3-5.29,7-5.29s6.63,1.66,6.63,5.57v9.53H83.42v-1.72a4.81,4.81,0,0,1-4.35,2C76.43,191.38,74.09,190.09,74.09,187Zm9.22-1.07V185H82c-2,0-2.92.4-2.92,1.6,0,.85.56,1.38,1.74,1.38C82.24,188,83.31,187.17,83.31,185.9Z" fill="#fff"/><path d="M90.76,176.35h5v2.36a5.18,5.18,0,0,1,4.83-2.76c2.84,0,4.81,1.77,4.81,5.54v9.56h-5V182.5c0-1.66-.65-2.47-2.11-2.47s-2.5.9-2.5,2.78v8.24h-5Z" fill="#fff"/><path d="M107.08,183.88v-.23c0-4.89,3.51-7.7,7.84-7.7,3.6,0,6.92,1.58,7.2,6.05H117.4a2.18,2.18,0,0,0-2.36-2.14c-1.77,0-2.81,1.26-2.81,3.74v.22c0,2.56,1,3.88,2.89,3.88a2.45,2.45,0,0,0,2.56-2.44h4.52c-.14,3.71-2.64,6.12-7.39,6.12C110.43,191.38,107.08,188.82,107.08,183.88Z" fill="#fff"/><path d="M123,183.88v-.23c0-4.72,3.52-7.7,8-7.7,4,0,7.47,2.31,7.47,7.59v1.32H128.13a2.94,2.94,0,0,0,3.06,3.07c1.66,0,2.36-.76,2.56-1.75h4.72c-.45,3.32-3,5.2-7.45,5.2C126.42,191.38,123,188.68,123,183.88ZM133.58,182c-.08-1.77-1-2.75-2.58-2.75s-2.56,1-2.81,2.75Z" fill="#fff"/><path d="M21.63,203h5v21.17h-5Z" fill="#fff"/><path d="M28.54,217v-.23c0-4.72,3.52-7.7,8.07-7.7s8,2.9,8,7.56v.23c0,4.78-3.51,7.64-8,7.64S28.54,221.73,28.54,217Zm11-.09v-.22c0-2.47-1-3.85-2.89-3.85s-2.92,1.32-2.92,3.79v.23c0,2.53,1,3.9,2.92,3.9S39.5,219.34,39.5,216.89Z" fill="#fff"/><path d="M45.54,220.07c0-3.46,2.93-4.81,7.82-4.81h1.4v-.33c0-1.41-.34-2.34-1.94-2.34a1.8,1.8,0,0,0-2,1.75H46.1c.23-3.55,3-5.29,7-5.29s6.63,1.66,6.63,5.57v9.53H54.87v-1.72a4.81,4.81,0,0,1-4.35,2C47.88,224.48,45.54,223.19,45.54,220.07ZM54.76,219v-.9H53.44c-2,0-2.92.4-2.92,1.6,0,.85.56,1.38,1.74,1.38C53.69,221.08,54.76,220.27,54.76,219Z" fill="#fff"/><path d="M62.21,209.45h5v2.36a5.18,5.18,0,0,1,4.83-2.76c2.84,0,4.81,1.77,4.81,5.54v9.56h-5V215.6c0-1.66-.65-2.47-2.11-2.47s-2.5.9-2.5,2.78v8.24h-5Z" fill="#fff"/><path d="M79.12,221.62A2.8,2.8,0,0,1,82,218.78a2.84,2.84,0,1,1,0,5.67A2.8,2.8,0,0,1,79.12,221.62Z" fill="#fff"/><path d="M21,247.63v-.84c0-6.35,4-9.92,9.28-9.92s9.27,3.29,9.27,9.81v.78c0,6.38-3.65,10.12-9.39,10.12S21,254,21,247.63Zm12.79,0v-.82c0-3.68-1.07-5.54-3.51-5.54s-3.52,1.83-3.52,5.54v.84c0,3.74,1.1,5.51,3.57,5.51S33.8,251.29,33.8,247.58Z" fill="#fff"/><path d="M40.65,241.93a5.07,5.07,0,0,1,5.34-5A5.05,5.05,0,1,1,46,247,4.93,4.93,0,0,1,40.65,241.93Zm16.56-4.78H60L46,257.25H43.27Zm-9.61,4.78c0-1.32-.57-2.14-1.61-2.14s-1.65.79-1.65,2.11.61,2.19,1.65,2.19S47.6,243.25,47.6,241.93Zm4.24,10.57a5.07,5.07,0,0,1,5.34-5c3,0,5.31,2,5.31,4.92a5,5,0,0,1-5.34,5.17A4.93,4.93,0,0,1,51.84,252.5Zm7,0c0-1.3-.56-2.11-1.63-2.11s-1.63.79-1.63,2.11.62,2.16,1.63,2.16S58.81,253.82,58.81,252.47Z" fill="#fff"/><path d="M21.38,271.65A2.62,2.62,0,0,1,24.13,269a2.61,2.61,0,1,1,0,5.2A2.61,2.61,0,0,1,21.38,271.65Zm.25,4h5v14.7h-5Z" fill="#fff"/><path d="M29.36,275.65h5V278a5.19,5.19,0,0,1,4.83-2.76c2.84,0,4.81,1.77,4.81,5.54v9.56H39V281.8c0-1.66-.65-2.47-2.11-2.47s-2.5.9-2.5,2.78v8.24h-5Z" fill="#fff"/><path d="M47.15,285.62v-6.55H45.37v-3.42h1.78v-3.07h5v3.07h2.89v3.42H52.18v6.08a1.34,1.34,0,0,0,1.49,1.54,3.8,3.8,0,0,0,1.43-.25v3.82a10.52,10.52,0,0,1-2.78.42C49,290.68,47.15,289.08,47.15,285.62Z" fill="#fff"/><path d="M56.19,283.18V283c0-4.72,3.52-7.7,8-7.7,4,0,7.47,2.31,7.47,7.59v1.32H61.28a2.94,2.94,0,0,0,3.06,3.07c1.66,0,2.36-.76,2.56-1.75h4.72c-.45,3.32-3,5.2-7.45,5.2S56.19,288,56.19,283.18Zm10.54-1.86c-.08-1.77-1-2.75-2.58-2.75s-2.56,1-2.81,2.75Z" fill="#fff"/><path d="M73.36,275.65h5v2.92a4.64,4.64,0,0,1,4.75-3.12v4.69c-3.06-.08-4.75.87-4.75,3.24v7h-5Z" fill="#fff"/><path d="M84,283.18V283c0-4.72,3.51-7.7,7.95-7.7,4,0,7.48,2.31,7.48,7.59v1.32H89.13a2.94,2.94,0,0,0,3.06,3.07c1.66,0,2.36-.76,2.56-1.75h4.72c-.45,3.32-3,5.2-7.45,5.2C87.41,290.68,84,288,84,283.18Zm10.54-1.86c-.08-1.77-1-2.75-2.59-2.75s-2.55,1-2.81,2.75Z" fill="#fff"/><path d="M100.37,285.68H105c.17,1.07.65,1.66,2.08,1.66,1.24,0,1.8-.48,1.8-1.21s-.7-1-2.72-1.32c-3.94-.51-5.6-1.66-5.6-4.72,0-3.26,2.9-4.84,6.3-4.84,3.62,0,6.15,1.24,6.49,4.75H108.8a1.65,1.65,0,0,0-1.89-1.46c-1.09,0-1.65.48-1.65,1.15s.67,1,2.47,1.21c4.07.51,6,1.58,6,4.72,0,3.49-2.58,5.06-6.66,5.06S100.48,288.94,100.37,285.68Z" fill="#fff"/><path d="M116.07,285.62v-6.55H114.3v-3.42h1.77v-3.07h5v3.07H124v3.42h-2.9v6.08a1.34,1.34,0,0,0,1.49,1.54,3.81,3.81,0,0,0,1.44-.25v3.82a10.52,10.52,0,0,1-2.78.42C117.93,290.68,116.07,289.08,116.07,285.62Z" fill="#fff"/><path d="M125.71,287.82a2.8,2.8,0,0,1,2.87-2.84,2.84,2.84,0,1,1,0,5.67A2.8,2.8,0,0,1,125.71,287.82Z" fill="#fff"/><path d="M20.65,317.07h5.48c.14,1.43.78,2.61,3.17,2.61,1.66,0,2.59-.82,2.59-2s-.76-1.57-3.18-1.94c-5.67-.67-7.59-2.36-7.59-6.4,0-3.63,3-6.27,7.79-6.27s7.56,2,7.93,6.27H31.5a2.29,2.29,0,0,0-2.59-2.17c-1.55,0-2.33.7-2.33,1.72s.62,1.63,3.12,2c5.08.57,7.7,1.89,7.7,6.24,0,3.69-2.92,6.69-8.1,6.69C23.68,323.78,20.81,321.42,20.65,317.07Z" fill="#fff"/><path d="M39.92,318.72v-6.55H38.15v-3.42h1.77v-3.07h5v3.07h2.9v3.42H45v6.08a1.34,1.34,0,0,0,1.49,1.54,3.81,3.81,0,0,0,1.44-.25v3.82a10.53,10.53,0,0,1-2.79.42C41.78,323.78,39.92,322.18,39.92,318.72Z" fill="#fff"/><path d="M49,319.37c0-3.46,2.92-4.81,7.81-4.81h1.41v-.33c0-1.41-.34-2.34-1.94-2.34a1.82,1.82,0,0,0-2,1.75H49.53c.23-3.55,3-5.29,7-5.29s6.63,1.66,6.63,5.57v9.53H58.3v-1.72a4.81,4.81,0,0,1-4.35,2C51.3,323.78,49,322.49,49,319.37Zm9.22-1.07v-.9H56.87c-2,0-2.92.4-2.92,1.6,0,.85.56,1.38,1.74,1.38C57.12,320.38,58.19,319.57,58.19,318.3Z" fill="#fff"/><path d="M65.63,308.75h5v2.92a4.62,4.62,0,0,1,4.75-3.12v4.69c-3.07-.08-4.75.87-4.75,3.23v7h-5Z" fill="#fff"/><path d="M78.14,318.72v-6.55H76.37v-3.42h1.77v-3.07h5v3.07h2.89v3.42H83.17v6.08a1.34,1.34,0,0,0,1.49,1.54,3.8,3.8,0,0,0,1.43-.25v3.82a10.45,10.45,0,0,1-2.78.42C80,323.78,78.14,322.18,78.14,318.72Z" fill="#fff"/><path d="M87.19,318.78h4.63c.17,1.07.65,1.66,2.08,1.66,1.24,0,1.8-.48,1.8-1.21s-.7-1-2.72-1.32c-3.94-.51-5.6-1.66-5.6-4.72,0-3.26,2.9-4.84,6.3-4.84,3.62,0,6.15,1.24,6.49,4.75H95.62a1.65,1.65,0,0,0-1.89-1.46c-1.09,0-1.65.48-1.65,1.15s.67,1,2.47,1.21c4.07.51,6,1.58,6,4.72,0,3.49-2.58,5.06-6.66,5.06S87.3,322,87.19,318.78Z" fill="#fff"/><path d="M20.93,356.12v-4.3a6.63,6.63,0,0,0,2.44.4c1.58,0,2.62-.71,2.62-2.79v-13h5.79v13c0,4.84-2.48,7.31-7.2,7.31A7.61,7.61,0,0,1,20.93,356.12Z" fill="#fff"/><path d="M33.38,352.47c0-3.46,2.92-4.81,7.81-4.81h1.4v-.33c0-1.41-.33-2.34-1.93-2.34a1.81,1.81,0,0,0-2,1.75H33.94c.22-3.55,3-5.29,7-5.29s6.64,1.66,6.64,5.57v9.52H42.71v-1.71a4.84,4.84,0,0,1-4.36,2.05C35.71,356.88,33.38,355.59,33.38,352.47Zm9.21-1.07v-.9H41.27c-2,0-2.92.4-2.92,1.6,0,.85.56,1.38,1.74,1.38C41.53,353.48,42.59,352.67,42.59,351.4Z" fill="#fff"/><path d="M50,341.85h5v2.36a5.19,5.19,0,0,1,4.83-2.76c2.84,0,4.81,1.77,4.81,5.54v9.55h-5V348c0-1.66-.65-2.47-2.11-2.47s-2.5.9-2.5,2.78v8.23H50Z" fill="#fff"/><path d="M81.06,352.69H71.28v-2.16l8.38-14.08H86.6v12.28h2.59v4H86.6v3.85H81.06Zm.14-4v-8l-4.49,8Z" fill="#fff"/><path d="M90.42,354a2.8,2.8,0,0,1,2.87-2.84,2.84,2.84,0,1,1,0,5.67A2.8,2.8,0,0,1,90.42,354Z" fill="#fff"/></g></g><g id="legal"><g id="Optional_loan_from_Axos_Bank_within_minutes_of_filing._Not_your" data-name="Optional loan from Axos Bank within minutes of filing. Not your"><path d="M20.5,397.78v-.07a3.16,3.16,0,1,1,6.31,0v.07a3.16,3.16,0,1,1-6.31,0Zm5.5,0v-.07a2.36,2.36,0,1,0-4.69,0v.07a2.42,2.42,0,0,0,2.37,2.62A2.35,2.35,0,0,0,26,397.75Z" fill="#fff"/><path d="M27.92,396.25h.75V397a1.93,1.93,0,0,1,1.59-.87,2.14,2.14,0,0,1,2.14,2.37v.07A2.17,2.17,0,0,1,30.26,401a1.78,1.78,0,0,1-1.59-.86v2.42h-.75Zm3.71,2.39v-.07c0-1.19-.66-1.78-1.45-1.78s-1.54.58-1.54,1.78v.07c0,1.21.63,1.78,1.55,1.78S31.63,399.79,31.63,398.64Z" fill="#fff"/><path d="M33.59,399.78v-2.9h-.67v-.63h.67v-1.07h.75v1.07h1.1v.63h-1.1v2.83c0,.46.2.68.58.68a1.59,1.59,0,0,0,.58-.1v.63a1.85,1.85,0,0,1-.64.1A1.14,1.14,0,0,1,33.59,399.78Z" fill="#fff"/><path d="M36.37,394.77a.5.5,0,0,1,.5-.49.49.49,0,0,1,.49.49.5.5,0,0,1-.49.5A.51.51,0,0,1,36.37,394.77Zm.14,1.48h.74V401h-.74Z" fill="#fff"/><path d="M38.3,398.64v-.07a2.31,2.31,0,1,1,4.62,0v.07a2.31,2.31,0,1,1-4.62,0Zm3.85,0v-.06c0-1.09-.6-1.79-1.54-1.79a1.56,1.56,0,0,0-1.54,1.78v.07c0,1.07.59,1.78,1.54,1.78S42.15,399.71,42.15,398.64Z" fill="#fff"/><path d="M44,396.25h.75V397a1.59,1.59,0,0,1,1.51-.83c1,0,1.66.53,1.66,1.9V401h-.75V398c0-.83-.35-1.19-1.11-1.19a1.23,1.23,0,0,0-1.31,1.28V401H44Z" fill="#fff"/><path d="M48.81,399.65c0-1.09,1.15-1.46,2.36-1.46h.67v-.34c0-.75-.29-1.06-1-1.06s-1,.27-1.08.84H49a1.64,1.64,0,0,1,1.86-1.46,1.52,1.52,0,0,1,1.72,1.68V401h-.75v-.6a1.69,1.69,0,0,1-1.46.68C49.5,401,48.81,400.62,48.81,399.65Zm3-.34v-.59h-.65c-.94,0-1.63.24-1.63.93,0,.49.23.79.89.79S51.84,400,51.84,399.31Z" fill="#fff"/><path d="M53.94,394h.75v7h-.75Z" fill="#fff"/><path d="M58.36,394h.75v7h-.75Z" fill="#fff"/><path d="M60.16,398.64v-.07a2.32,2.32,0,1,1,4.63,0v.07a2.32,2.32,0,1,1-4.63,0Zm3.85,0v-.06c0-1.09-.6-1.79-1.54-1.79a1.56,1.56,0,0,0-1.54,1.78v.07c0,1.07.59,1.78,1.54,1.78S64,399.71,64,398.64Z" fill="#fff"/><path d="M65.42,399.65c0-1.09,1.15-1.46,2.36-1.46h.68v-.34c0-.75-.29-1.06-1-1.06s-1,.27-1.08.84h-.75a1.64,1.64,0,0,1,1.86-1.46,1.52,1.52,0,0,1,1.72,1.68V401h-.74v-.6A1.71,1.71,0,0,1,67,401C66.12,401,65.42,400.62,65.42,399.65Zm3-.34v-.59h-.65c-1,0-1.64.24-1.64.93,0,.49.23.79.89.79S68.46,400,68.46,399.31Z" fill="#fff"/><path d="M70.53,396.25h.75V397a1.61,1.61,0,0,1,1.51-.83c1,0,1.66.53,1.66,1.9V401H73.7V398c0-.83-.35-1.19-1.1-1.19a1.24,1.24,0,0,0-1.32,1.28V401h-.75Z" fill="#fff"/><path d="M78.19,396.88h-.67v-.63h.67v-.77c0-1,.47-1.51,1.41-1.51a1.6,1.6,0,0,1,.56.09v.63a1.62,1.62,0,0,0-.54-.1c-.48,0-.68.33-.68.81v.85h1.15v.63H78.94V401h-.75Z" fill="#fff"/><path d="M81,396.25h.75v.84a1.62,1.62,0,0,1,1.55-.92v.7c-1,.05-1.55.34-1.55,1.5V401H81Z" fill="#fff"/><path d="M83.77,398.64v-.07a2.32,2.32,0,1,1,4.63,0v.07a2.32,2.32,0,1,1-4.63,0Zm3.86,0v-.06c0-1.09-.61-1.79-1.54-1.79s-1.54.7-1.54,1.78v.07c0,1.07.58,1.78,1.54,1.78A1.57,1.57,0,0,0,87.63,398.64Z" fill="#fff"/><path d="M89.42,396.25h.75V397a1.54,1.54,0,0,1,1.41-.8,1.36,1.36,0,0,1,1.37.88,1.84,1.84,0,0,1,1.62-.88c.84,0,1.58.5,1.58,1.87V401H95.4v-3c0-.83-.35-1.17-1-1.17a1.2,1.2,0,0,0-1.24,1.26V401h-.75v-3c0-.83-.35-1.17-1-1.17a1.2,1.2,0,0,0-1.25,1.26V401h-.75Z" fill="#fff"/><path d="M101.51,394.52h1l2.18,6.44h-.78l-.63-1.86h-2.65L100,401H99.3Zm-.64,4h2.24L102,395.17Z" fill="#fff"/><path d="M106.84,398.54l-1.58-2.29h.88l1.15,1.71,1.14-1.71h.81l-1.55,2.23,1.72,2.48h-.89l-1.27-1.9L106,401h-.8Z" fill="#fff"/><path d="M109.7,398.64v-.07a2.32,2.32,0,1,1,4.63,0v.07a2.32,2.32,0,1,1-4.63,0Zm3.85,0v-.06c0-1.09-.6-1.79-1.53-1.79s-1.54.7-1.54,1.78v.07c0,1.07.58,1.78,1.54,1.78S113.55,399.71,113.55,398.64Z" fill="#fff"/><path d="M115,399.51h.73c0,.56.35.91,1.1.91s1-.25,1-.75-.37-.66-1.1-.79c-1.22-.23-1.64-.57-1.64-1.39a1.47,1.47,0,0,1,1.6-1.32,1.51,1.51,0,0,1,1.7,1.36h-.72c-.11-.52-.4-.74-1-.74s-.89.27-.89.67.23.6,1.09.75,1.66.4,1.66,1.4c0,.85-.58,1.43-1.73,1.43S115,400.47,115,399.51Z" fill="#fff"/><path d="M20.81,403.52h1.94c1.19,0,2.07.4,2.07,1.67v0a1.32,1.32,0,0,1-1,1.36,1.42,1.42,0,0,1,1.29,1.54v0c0,1.21-.83,1.8-2.11,1.8H20.81Zm1.94,2.81c.94,0,1.3-.34,1.3-1.14v0c0-.73-.42-1-1.32-1H21.58v2.2Zm.25,3c.93,0,1.37-.41,1.37-1.19v0c0-.79-.44-1.17-1.48-1.17H21.58v2.4Z" fill="#fff"/><path d="M25.83,408.65c0-1.09,1.15-1.46,2.36-1.46h.68v-.34c0-.75-.29-1.06-1-1.06s-1,.27-1.08.84H26a1.64,1.64,0,0,1,1.86-1.46,1.52,1.52,0,0,1,1.72,1.68V410h-.74v-.6a1.72,1.72,0,0,1-1.47.68C26.53,410,25.83,409.62,25.83,408.65Zm3-.34v-.59h-.65c-.95,0-1.64.24-1.64.93,0,.49.23.79.89.79S28.87,409,28.87,408.31Z" fill="#fff"/><path d="M30.94,405.25h.75V406a1.61,1.61,0,0,1,1.51-.83c1,0,1.66.53,1.66,1.9V410h-.75V407c0-.83-.35-1.19-1.1-1.19a1.24,1.24,0,0,0-1.32,1.28V410h-.75Z" fill="#fff"/><path d="M36.19,403h.75v4.42l2-2.17h.88l-2,2.19L39.94,410H39l-2.09-2.44V410h-.75Z" fill="#fff"/><path d="M42.45,405.25h.81L44.35,409l1.15-3.79h.65L47.22,409l1.1-3.79h.77L47.62,410h-.83l-1-3.53L44.71,410H43.9Z" fill="#fff"/><path d="M49.84,403.77a.5.5,0,0,1,.5-.49.49.49,0,0,1,.49.49.5.5,0,0,1-.49.5A.51.51,0,0,1,49.84,403.77Zm.14,1.48h.75V410H50Z" fill="#fff"/><path d="M52.28,408.78v-2.9h-.67v-.63h.67v-1.07H53v1.07h1.1v.63H53v2.83c0,.46.21.68.59.68a1.57,1.57,0,0,0,.57-.1v.63a1.85,1.85,0,0,1-.64.1A1.14,1.14,0,0,1,52.28,408.78Z" fill="#fff"/><path d="M55.18,403h.75v3a1.6,1.6,0,0,1,1.51-.83c1,0,1.66.53,1.66,1.9V410h-.75V407c0-.83-.35-1.19-1.11-1.19a1.23,1.23,0,0,0-1.31,1.28V410h-.75Z" fill="#fff"/><path d="M60.31,403.77a.5.5,0,0,1,.5-.49.49.49,0,0,1,.49.49.5.5,0,0,1-.49.5A.51.51,0,0,1,60.31,403.77Zm.14,1.48h.74V410h-.74Z" fill="#fff"/><path d="M62.59,405.25h.74V406a1.61,1.61,0,0,1,1.52-.83c1,0,1.65.53,1.65,1.9V410h-.74V407c0-.83-.35-1.19-1.11-1.19a1.24,1.24,0,0,0-1.32,1.28V410h-.74Z" fill="#fff"/><path d="M70.08,405.25h.75V406a1.54,1.54,0,0,1,1.41-.8,1.36,1.36,0,0,1,1.37.88,1.84,1.84,0,0,1,1.62-.88c.84,0,1.58.5,1.58,1.87V410h-.75v-3c0-.83-.35-1.17-1-1.17a1.2,1.2,0,0,0-1.24,1.26V410h-.75v-3c0-.83-.35-1.17-1-1.17a1.2,1.2,0,0,0-1.24,1.26V410h-.75Z" fill="#fff"/><path d="M78,403.77a.5.5,0,0,1,.5-.49.49.49,0,0,1,.49.49.5.5,0,0,1-.49.5A.51.51,0,0,1,78,403.77Zm.14,1.48h.74V410h-.74Z" fill="#fff"/><path d="M80.3,405.25h.75V406a1.6,1.6,0,0,1,1.51-.83c1,0,1.66.53,1.66,1.9V410h-.75V407c0-.83-.35-1.19-1.11-1.19a1.23,1.23,0,0,0-1.31,1.28V410H80.3Z" fill="#fff"/><path d="M85.5,408.23v-3h.75v2.94c0,.83.35,1.2,1.09,1.2a1.24,1.24,0,0,0,1.29-1.29v-2.85h.75V410h-.75v-.75a1.59,1.59,0,0,1-1.49.83C86.2,410,85.5,409.52,85.5,408.23Z" fill="#fff"/><path d="M90.92,408.78v-2.9h-.68v-.63h.68v-1.07h.75v1.07h1.09v.63H91.67v2.83c0,.46.2.68.58.68a1.59,1.59,0,0,0,.58-.1v.63a1.89,1.89,0,0,1-.64.1A1.14,1.14,0,0,1,90.92,408.78Z" fill="#fff"/><path d="M93.47,407.65v-.07a2.21,2.21,0,0,1,2.2-2.41,2.06,2.06,0,0,1,2.12,2.34v.24H94.24c0,1.07.55,1.67,1.51,1.67.73,0,1.16-.27,1.25-.82h.75a1.81,1.81,0,0,1-2,1.44A2.21,2.21,0,0,1,93.47,407.65Zm3.55-.5c-.07-1-.57-1.36-1.35-1.36a1.41,1.41,0,0,0-1.4,1.36Z" fill="#fff"/><path d="M98.45,408.51h.73c.06.56.35.91,1.11.91s1-.25,1-.75-.36-.66-1.09-.79c-1.23-.23-1.64-.57-1.64-1.39a1.46,1.46,0,0,1,1.59-1.32,1.5,1.5,0,0,1,1.7,1.36h-.72c-.11-.52-.39-.74-1-.74s-.89.27-.89.67.23.6,1.1.75,1.66.4,1.66,1.4c0,.85-.59,1.43-1.73,1.43S98.5,409.47,98.45,408.51Z" fill="#fff"/><path d="M104.92,407.64v-.07a2.32,2.32,0,1,1,4.63,0v.07a2.32,2.32,0,1,1-4.63,0Zm3.86,0v-.06c0-1.09-.61-1.79-1.54-1.79s-1.54.7-1.54,1.78v.07c0,1.07.58,1.78,1.54,1.78A1.57,1.57,0,0,0,108.78,407.64Z" fill="#fff"/><path d="M110.74,405.88h-.68v-.63h.68v-.77c0-1,.47-1.51,1.4-1.51a1.6,1.6,0,0,1,.56.09v.63a1.56,1.56,0,0,0-.53-.1c-.49,0-.69.33-.69.81v.85h1.16v.63h-1.16V410h-.74Z" fill="#fff"/><path d="M116,405.88h-.68v-.63H116v-.77c0-1,.46-1.51,1.4-1.51a1.6,1.6,0,0,1,.56.09v.63a1.61,1.61,0,0,0-.53-.1c-.49,0-.69.33-.69.81v.85h1.16v.63h-1.16V410H116Z" fill="#fff"/><path d="M118.67,403.77a.49.49,0,0,1,.49-.49.5.5,0,0,1,.5.49.51.51,0,0,1-.5.5A.5.5,0,0,1,118.67,403.77Zm.13,1.48h.75V410h-.75Z" fill="#fff"/><path d="M121,403h.76v7H121Z" fill="#fff"/><path d="M123,403.77a.5.5,0,0,1,.5-.49.49.49,0,0,1,.49.49.5.5,0,0,1-.49.5A.51.51,0,0,1,123,403.77Zm.14,1.48h.75V410h-.75Z" fill="#fff"/><path d="M125.27,405.25H126V406a1.6,1.6,0,0,1,1.51-.83c1,0,1.66.53,1.66,1.9V410h-.75V407c0-.83-.35-1.19-1.11-1.19A1.23,1.23,0,0,0,126,407.1V410h-.75Z" fill="#fff"/><path d="M130.27,410.23H131c.11.54.56.82,1.36.82a1.32,1.32,0,0,0,1.51-1.45v-.69a2,2,0,0,1-1.59.89,2.12,2.12,0,0,1-2.14-2.23v-.06a2.23,2.23,0,0,1,2.19-2.34,1.69,1.69,0,0,1,1.54.83v-.75h.75v4.39a2,2,0,0,1-2.25,2C131,411.68,130.39,411,130.27,410.23Zm3.66-2.71v-.07a1.46,1.46,0,0,0-1.49-1.66,1.5,1.5,0,0,0-1.5,1.68v.07a1.49,1.49,0,0,0,1.45,1.64A1.51,1.51,0,0,0,133.93,407.52Z" fill="#fff"/><path d="M136,409.43a.57.57,0,0,1,.58-.58.58.58,0,1,1,0,1.15A.57.57,0,0,1,136,409.43Z" fill="#fff"/><path d="M20.81,412.52h1L25,417.84v-5.32h.75V419h-.9l-3.25-5.52V419h-.75Z" fill="#fff"/><path d="M26.79,416.64v-.07a2.31,2.31,0,1,1,4.62,0v.07a2.31,2.31,0,1,1-4.62,0Zm3.85,0v-.06c0-1.09-.6-1.79-1.54-1.79s-1.54.7-1.54,1.78v.07c0,1.07.59,1.78,1.54,1.78A1.57,1.57,0,0,0,30.64,416.64Z" fill="#fff"/><path d="M32.6,417.78v-2.9h-.68v-.63h.68v-1.07h.75v1.07h1.1v.63h-1.1v2.83c0,.46.2.68.58.68a1.59,1.59,0,0,0,.58-.1v.63a1.85,1.85,0,0,1-.64.1A1.14,1.14,0,0,1,32.6,417.78Z" fill="#fff"/><path d="M39.06,418.47l-1.84-4.22H38l1.44,3.37,1.3-3.37h.77l-2.6,6.35h-.76Z" fill="#fff"/><path d="M41.89,416.64v-.07a2.32,2.32,0,1,1,4.63,0v.07a2.32,2.32,0,1,1-4.63,0Zm3.85,0v-.06c0-1.09-.6-1.79-1.54-1.79a1.56,1.56,0,0,0-1.54,1.78v.07c0,1.07.59,1.78,1.54,1.78S45.74,417.71,45.74,416.64Z" fill="#fff"/><path d="M47.5,417.23v-3h.74v2.94c0,.83.35,1.2,1.09,1.2a1.24,1.24,0,0,0,1.3-1.29v-2.85h.75V419h-.75v-.75a1.62,1.62,0,0,1-1.5.83C48.2,419,47.5,418.52,47.5,417.23Z" fill="#fff"/><path d="M52.75,414.25h.75v.84a1.62,1.62,0,0,1,1.55-.92v.7c-.95.05-1.55.34-1.55,1.5V419h-.75Z" fill="#fff"/><path d="M58.41,417.78v-2.9h-.67v-.63h.67v-1.07h.75v1.07h1.1v.63h-1.1v2.83c0,.46.21.68.58.68a1.59,1.59,0,0,0,.58-.1v.63a1.85,1.85,0,0,1-.64.1A1.14,1.14,0,0,1,58.41,417.78Z" fill="#fff"/><path d="M61,417.65c0-1.09,1.15-1.46,2.36-1.46H64v-.34c0-.75-.29-1.06-1-1.06s-1,.27-1.08.84h-.74A1.64,1.64,0,0,1,63,414.17a1.52,1.52,0,0,1,1.72,1.68V419H64v-.6a1.7,1.7,0,0,1-1.47.68C61.66,419,61,418.62,61,417.65Zm3-.34v-.59h-.65c-.94,0-1.64.24-1.64.93,0,.49.24.79.9.79S64,418,64,417.31Z" fill="#fff"/><path d="M67.26,416.54l-1.58-2.29h.88L67.71,416l1.14-1.71h.81l-1.56,2.23L69.82,419h-.88l-1.27-1.9L66.38,419h-.8Z" fill="#fff"/><path d="M73,414.25h.74v.84a1.64,1.64,0,0,1,1.55-.92v.7c-.94.05-1.55.34-1.55,1.5V419H73Z" fill="#fff"/><path d="M75.71,416.65v-.07a2.22,2.22,0,0,1,2.21-2.41A2.06,2.06,0,0,1,80,416.51v.24H76.48c0,1.07.55,1.67,1.52,1.67.73,0,1.15-.27,1.25-.82H80A1.81,1.81,0,0,1,78,419,2.21,2.21,0,0,1,75.71,416.65Zm3.56-.5c-.08-1-.58-1.36-1.35-1.36a1.41,1.41,0,0,0-1.41,1.36Z" fill="#fff"/><path d="M81.2,414.88h-.68v-.63h.68v-.77c0-1,.47-1.51,1.4-1.51a1.57,1.57,0,0,1,.56.09v.63a1.51,1.51,0,0,0-.53-.1c-.49,0-.68.33-.68.81v.85H83.1v.63H82V419H81.2Z" fill="#fff"/><path d="M84,417.23v-3h.75v2.94c0,.83.35,1.2,1.09,1.2a1.24,1.24,0,0,0,1.29-1.29v-2.85h.75V419H87.1v-.75a1.59,1.59,0,0,1-1.49.83C84.67,419,84,418.52,84,417.23Z" fill="#fff"/><path d="M89.23,414.25H90V415a1.61,1.61,0,0,1,1.52-.83c1,0,1.65.53,1.65,1.9V419H92.4V416c0-.83-.36-1.19-1.11-1.19A1.24,1.24,0,0,0,90,416.1V419h-.74Z" fill="#fff"/><path d="M94.12,416.7v-.08a2.23,2.23,0,0,1,2.2-2.45,1.7,1.7,0,0,1,1.54.83v-3h.75v7h-.75v-.81a2,2,0,0,1-1.61.89A2.1,2.1,0,0,1,94.12,416.7Zm3.77-.07v-.07c0-1.2-.58-1.77-1.5-1.77s-1.49.66-1.49,1.8v.07c0,1.19.64,1.76,1.43,1.76S97.89,417.84,97.89,416.63Z" fill="#fff"/><path d="M99.92,418.43a.58.58,0,1,1,.58.57A.57.57,0,0,1,99.92,418.43Z" fill="#fff"/></g></g></g></svg>