<svg xmlns="http://www.w3.org/2000/svg" viewBox="0 0 160 600"><title>H4</title><g id="Layer_2" data-name="Layer 2"><g id="Rect"><rect width="160" height="600" fill="none"/></g><g id="H04"><g id="You_could_get_a_Refund_Advance_loan._0_Interest._Starts_Jan_4." data-name="You could get a Refund Advance loan. 0% Interest. Starts Jan 4."><path d="M26.77,50,20.22,38.55h6.27l3.4,6.77,3.4-6.77H38.8L32.56,50v8.61H26.77Z" fill="#fff"/><path d="M36.69,51.48v-.23c0-4.72,3.52-7.7,8.07-7.7s8,2.9,8,7.56v.23c0,4.78-3.51,7.64-8,7.64S36.69,56.23,36.69,51.48Zm11-.09v-.22c0-2.47-1-3.85-2.89-3.85s-2.93,1.32-2.93,3.79v.23c0,2.53,1,3.9,2.93,3.9S47.65,53.84,47.65,51.39Z" fill="#fff"/><path d="M54.42,53.53V44h5v8.76c0,1.66.65,2.48,2.08,2.48S64,54.29,64,52.41V44h5v14.7H64V56.37A4.84,4.84,0,0,1,59.37,59C56.53,59,54.42,57.24,54.42,53.53Z" fill="#fff"/><path d="M20.7,84.58v-.23c0-4.89,3.52-7.7,7.84-7.7,3.6,0,6.92,1.58,7.2,6H31a2.17,2.17,0,0,0-2.36-2.13c-1.77,0-2.81,1.26-2.81,3.74v.22c0,2.56,1,3.88,2.89,3.88A2.45,2.45,0,0,0,31.3,86h4.52c-.14,3.71-2.64,6.12-7.39,6.12C24.05,92.08,20.7,89.52,20.7,84.58Z" fill="#fff"/><path d="M36.66,84.58v-.23c0-4.72,3.52-7.7,8.07-7.7s8,2.9,8,7.56v.23c0,4.78-3.51,7.64-8,7.64S36.66,89.33,36.66,84.58Zm11-.09v-.22c0-2.47-1-3.85-2.89-3.85s-2.92,1.32-2.92,3.79v.23c0,2.53,1,3.9,2.92,3.9S47.62,86.94,47.62,84.49Z" fill="#fff"/><path d="M54.39,86.63V77.05h5v8.76c0,1.66.64,2.48,2.08,2.48s2.5-.9,2.5-2.78V77.05h5v14.7H64V89.47a4.83,4.83,0,0,1-4.67,2.61C56.5,92.08,54.39,90.34,54.39,86.63Z" fill="#fff"/><path d="M71.73,70.58h5V91.75h-5Z" fill="#fff"/><path d="M78.7,84.55v-.22c0-5,2.75-7.68,6.24-7.68a4.76,4.76,0,0,1,4.52,2.48V70.58h5V91.75h-5V89.36a5,5,0,0,1-4.58,2.72C81.48,92.08,78.7,89.64,78.7,84.55Zm10.91-.08v-.23c0-2.47-1-3.79-2.9-3.79s-2.89,1.26-2.89,3.82v.22c0,2.48,1.09,3.74,2.83,3.74S89.61,87,89.61,84.47Z" fill="#fff"/><path d="M20.67,124.85h5c.22,1.06.87,1.91,2.7,1.91a2.78,2.78,0,0,0,3.12-3.09v-2.25a5.17,5.17,0,0,1-4.56,2.69c-3.43,0-6.24-2.53-6.24-7v-.23c0-4.32,2.79-7.08,6.24-7.08a4.8,4.8,0,0,1,4.56,2.48v-2.08h5v13.46c0,4.38-2.9,6.69-8.15,6.69C23.37,130.3,21.07,128.19,20.67,124.85Zm11-7.82v-.2c0-2-1-3.31-2.9-3.31s-2.89,1.32-2.89,3.34v.23c0,2,1.06,3.31,2.86,3.31S31.64,119.11,31.64,117Z" fill="#fff"/><path d="M38.29,117.68v-.23c0-4.72,3.52-7.7,8-7.7,4,0,7.47,2.31,7.47,7.59v1.32H43.38a2.94,2.94,0,0,0,3.06,3.07c1.66,0,2.36-.76,2.56-1.75h4.72c-.45,3.32-3,5.2-7.44,5.2C41.67,125.18,38.29,122.48,38.29,117.68Zm10.54-1.86c-.08-1.77-.95-2.75-2.58-2.75s-2.56,1-2.81,2.75Z" fill="#fff"/><path d="M56.14,120.12v-6.55H54.37v-3.42h1.77v-3.07h5v3.07h2.89v3.42H61.17v6.08a1.34,1.34,0,0,0,1.49,1.54,3.8,3.8,0,0,0,1.43-.25v3.82a10.52,10.52,0,0,1-2.78.42C58,125.18,56.14,123.58,56.14,120.12Z" fill="#fff"/><path d="M70.24,120.77c0-3.46,2.93-4.81,7.82-4.81h1.4v-.33c0-1.41-.34-2.34-1.94-2.34a1.8,1.8,0,0,0-2,1.75H70.8c.23-3.55,3-5.29,7-5.29s6.63,1.66,6.63,5.57v9.53H79.57v-1.72a4.81,4.81,0,0,1-4.35,2.05C72.57,125.18,70.24,123.89,70.24,120.77Zm9.22-1.07v-.9H78.14c-2,0-2.92.4-2.92,1.6,0,.85.56,1.38,1.74,1.38C78.39,121.78,79.46,121,79.46,119.7Z" fill="#fff"/><path d="M21.94,137.85h7.87c5.26,0,8.18,2.14,8.18,6.38v.11a5.26,5.26,0,0,1-3.63,5.29L39.17,158H33.1L29,150.75H27.67V158H21.94ZM29.53,147c1.94,0,2.89-.81,2.89-2.44v-.12c0-1.63-1-2.27-2.86-2.27H27.67V147Z" fill="#fff"/><path d="M39.16,150.78v-.23c0-4.72,3.52-7.7,8-7.7,4,0,7.47,2.31,7.47,7.59v1.32H44.25a2.94,2.94,0,0,0,3.07,3.07c1.65,0,2.36-.76,2.55-1.75h4.72c-.44,3.32-3,5.2-7.44,5.2C42.54,158.28,39.16,155.58,39.16,150.78Zm10.54-1.86c-.08-1.77-1-2.75-2.58-2.75s-2.56,1-2.81,2.75Z" fill="#fff"/><path d="M57.09,146.67H55.24v-3.42h1.85V142c0-3.65,2.28-5.39,5.76-5.39a9,9,0,0,1,2.31.31v3.68a4.75,4.75,0,0,0-1.38-.2A1.47,1.47,0,0,0,62.1,142v1.3h3v3.42h-3V158h-5Z" fill="#fff"/><path d="M66.65,152.83v-9.58h5V152c0,1.66.64,2.48,2.08,2.48s2.5-.9,2.5-2.78v-8.46h5V158h-5v-2.28a4.83,4.83,0,0,1-4.67,2.61C68.75,158.28,66.65,156.54,66.65,152.83Z" fill="#fff"/><path d="M83.84,143.25h5v2.36a5.2,5.2,0,0,1,4.84-2.76c2.84,0,4.8,1.77,4.8,5.54V158h-5V149.4c0-1.66-.64-2.47-2.1-2.47s-2.51.9-2.51,2.78V158h-5Z" fill="#fff"/><path d="M100.22,150.75v-.22c0-5,2.76-7.68,6.24-7.68a4.77,4.77,0,0,1,4.53,2.48v-8.55h5V158h-5v-2.39a5,5,0,0,1-4.58,2.72C103,158.28,100.22,155.84,100.22,150.75Zm10.91-.08v-.23c0-2.47-1-3.79-2.9-3.79s-2.89,1.26-2.89,3.82v.22c0,2.48,1.1,3.74,2.84,3.74S111.13,153.17,111.13,150.67Z" fill="#fff"/><path d="M26.8,171h7.45l6.38,20.1h-6.1l-1.07-3.74H26.8l-1.07,3.74H20.37Zm1.13,12.39h4.41l-2.19-7.73Z" fill="#fff"/><path d="M41,183.85v-.23c0-5,2.76-7.67,6.24-7.67a4.78,4.78,0,0,1,4.53,2.48v-8.55h5v21.17h-5v-2.39a5,5,0,0,1-4.58,2.72C43.75,191.38,41,188.94,41,183.85Zm10.91-.08v-.23c0-2.47-1-3.79-2.9-3.79s-2.89,1.26-2.89,3.82v.22c0,2.48,1.09,3.74,2.84,3.74S51.87,186.27,51.87,183.77Z" fill="#fff"/><path d="M58.05,176.35h5.37l3.06,9.47,3-9.47h4.8l-5.37,14.7H63.44Z" fill="#fff"/><path d="M74.09,187c0-3.46,2.93-4.81,7.82-4.81h1.4v-.33c0-1.41-.34-2.34-1.94-2.34a1.81,1.81,0,0,0-2,1.75H74.65c.23-3.55,3-5.29,7-5.29s6.63,1.66,6.63,5.57v9.53H83.42v-1.72a4.81,4.81,0,0,1-4.35,2C76.43,191.38,74.09,190.09,74.09,187Zm9.22-1.07V185H82c-2,0-2.92.4-2.92,1.6,0,.85.56,1.38,1.74,1.38C82.24,188,83.31,187.17,83.31,185.9Z" fill="#fff"/><path d="M90.76,176.35h5v2.36a5.18,5.18,0,0,1,4.83-2.76c2.84,0,4.81,1.77,4.81,5.54v9.56h-5V182.5c0-1.66-.65-2.47-2.11-2.47s-2.5.9-2.5,2.78v8.24h-5Z" fill="#fff"/><path d="M107.08,183.88v-.23c0-4.89,3.51-7.7,7.84-7.7,3.6,0,6.92,1.58,7.2,6.05H117.4a2.18,2.18,0,0,0-2.36-2.14c-1.77,0-2.81,1.26-2.81,3.74v.22c0,2.56,1,3.88,2.89,3.88a2.45,2.45,0,0,0,2.56-2.44h4.52c-.14,3.71-2.64,6.12-7.39,6.12C110.43,191.38,107.08,188.82,107.08,183.88Z" fill="#fff"/><path d="M123,183.88v-.23c0-4.72,3.52-7.7,8-7.7,4,0,7.47,2.31,7.47,7.59v1.32H128.13a2.94,2.94,0,0,0,3.06,3.07c1.66,0,2.36-.76,2.56-1.75h4.72c-.45,3.32-3,5.2-7.45,5.2C126.42,191.38,123,188.68,123,183.88ZM133.58,182c-.08-1.77-1-2.75-2.58-2.75s-2.56,1-2.81,2.75Z" fill="#fff"/><path d="M21.63,203h5v21.17h-5Z" fill="#fff"/><path d="M28.54,217v-.23c0-4.72,3.52-7.7,8.07-7.7s8,2.9,8,7.56v.23c0,4.78-3.51,7.64-8,7.64S28.54,221.73,28.54,217Zm11-.09v-.22c0-2.47-1-3.85-2.89-3.85s-2.92,1.32-2.92,3.79v.23c0,2.53,1,3.9,2.92,3.9S39.5,219.34,39.5,216.89Z" fill="#fff"/><path d="M45.54,220.07c0-3.46,2.93-4.81,7.82-4.81h1.4v-.33c0-1.41-.34-2.34-1.94-2.34a1.8,1.8,0,0,0-2,1.75H46.1c.23-3.55,3-5.29,7-5.29s6.63,1.66,6.63,5.57v9.53H54.87v-1.72a4.81,4.81,0,0,1-4.35,2C47.88,224.48,45.54,223.19,45.54,220.07ZM54.76,219v-.9H53.44c-2,0-2.92.4-2.92,1.6,0,.85.56,1.38,1.74,1.38C53.69,221.08,54.76,220.27,54.76,219Z" fill="#fff"/><path d="M62.21,209.45h5v2.36a5.18,5.18,0,0,1,4.83-2.76c2.84,0,4.81,1.77,4.81,5.54v9.56h-5V215.6c0-1.66-.65-2.47-2.11-2.47s-2.5.9-2.5,2.78v8.24h-5Z" fill="#fff"/><path d="M79.12,221.62A2.8,2.8,0,0,1,82,218.78a2.84,2.84,0,1,1,0,5.67A2.8,2.8,0,0,1,79.12,221.62Z" fill="#fff"/><path d="M21,247.63v-.84c0-6.35,4-9.92,9.28-9.92s9.27,3.29,9.27,9.81v.78c0,6.38-3.65,10.12-9.39,10.12S21,254,21,247.63Zm12.79,0v-.82c0-3.68-1.07-5.54-3.51-5.54s-3.52,1.83-3.52,5.54v.84c0,3.74,1.1,5.51,3.57,5.51S33.8,251.29,33.8,247.58Z" fill="#fff"/><path d="M40.65,241.93a5.07,5.07,0,0,1,5.34-5A5.05,5.05,0,1,1,46,247,4.93,4.93,0,0,1,40.65,241.93Zm16.56-4.78H60L46,257.25H43.27Zm-9.61,4.78c0-1.32-.57-2.14-1.61-2.14s-1.65.79-1.65,2.11.61,2.19,1.65,2.19S47.6,243.25,47.6,241.93Zm4.24,10.57a5.07,5.07,0,0,1,5.34-5c3,0,5.31,2,5.31,4.92a5,5,0,0,1-5.34,5.17A4.93,4.93,0,0,1,51.84,252.5Zm7,0c0-1.3-.56-2.11-1.63-2.11s-1.63.79-1.63,2.11.62,2.16,1.63,2.16S58.81,253.82,58.81,252.47Z" fill="#fff"/><path d="M22.05,270.25h5.82v20.1H22.05Z" fill="#fff"/><path d="M31,275.65h5V278a5.19,5.19,0,0,1,4.83-2.76c2.84,0,4.81,1.77,4.81,5.54v9.56h-5V281.8c0-1.66-.65-2.47-2.11-2.47s-2.5.9-2.5,2.78v8.24H31Z" fill="#fff"/><path d="M48.75,285.62v-6.55H47v-3.42h1.77v-3.07h5v3.07h2.89v3.42H53.78v6.08a1.34,1.34,0,0,0,1.49,1.54,3.8,3.8,0,0,0,1.43-.25v3.82a10.52,10.52,0,0,1-2.78.42C50.6,290.68,48.75,289.08,48.75,285.62Z" fill="#fff"/><path d="M57.79,283.18V283c0-4.72,3.52-7.7,8-7.7,4,0,7.47,2.31,7.47,7.59v1.32H62.88a2.94,2.94,0,0,0,3.06,3.07c1.66,0,2.37-.76,2.56-1.75h4.72c-.45,3.32-3,5.2-7.44,5.2C61.17,290.68,57.79,288,57.79,283.18Zm10.54-1.86c-.08-1.77-1-2.75-2.58-2.75s-2.56,1-2.81,2.75Z" fill="#fff"/><path d="M75,275.65h5v2.92a4.64,4.64,0,0,1,4.75-3.12v4.69c-3.06-.08-4.75.87-4.75,3.24v7H75Z" fill="#fff"/><path d="M85.64,283.18V283c0-4.72,3.51-7.7,8-7.7,4,0,7.48,2.31,7.48,7.59v1.32H90.73a2.94,2.94,0,0,0,3.06,3.07c1.66,0,2.36-.76,2.56-1.75h4.72c-.45,3.32-3,5.2-7.45,5.2C89,290.68,85.64,288,85.64,283.18Zm10.54-1.86c-.08-1.77-1-2.75-2.59-2.75s-2.55,1-2.81,2.75Z" fill="#fff"/><path d="M102,285.68h4.63c.17,1.07.65,1.66,2.08,1.66,1.24,0,1.8-.48,1.8-1.21s-.7-1-2.72-1.32c-3.94-.51-5.6-1.66-5.6-4.72,0-3.26,2.9-4.84,6.3-4.84,3.62,0,6.15,1.24,6.49,4.75H110.4a1.64,1.64,0,0,0-1.88-1.46c-1.1,0-1.66.48-1.66,1.15s.67,1,2.47,1.21c4.08.51,6,1.58,6,4.72,0,3.49-2.58,5.06-6.66,5.06S102.08,288.94,102,285.68Z" fill="#fff"/><path d="M117.67,285.62v-6.55H115.9v-3.42h1.77v-3.07h5v3.07h2.89v3.42h-2.89v6.08a1.34,1.34,0,0,0,1.49,1.54,3.8,3.8,0,0,0,1.43-.25v3.82a10.52,10.52,0,0,1-2.78.42C119.53,290.68,117.67,289.08,117.67,285.62Z" fill="#fff"/><path d="M127.31,287.82a2.8,2.8,0,0,1,2.87-2.84,2.84,2.84,0,1,1,0,5.67A2.8,2.8,0,0,1,127.31,287.82Z" fill="#fff"/><path d="M20.65,317.07h5.48c.14,1.43.78,2.61,3.17,2.61,1.66,0,2.59-.82,2.59-2s-.76-1.57-3.18-1.94c-5.67-.67-7.59-2.36-7.59-6.4,0-3.63,3-6.27,7.79-6.27s7.56,2,7.93,6.27H31.5a2.29,2.29,0,0,0-2.59-2.17c-1.55,0-2.33.7-2.33,1.72s.62,1.63,3.12,2c5.08.57,7.7,1.89,7.7,6.24,0,3.69-2.92,6.69-8.1,6.69C23.68,323.78,20.81,321.42,20.65,317.07Z" fill="#fff"/><path d="M39.92,318.72v-6.55H38.15v-3.42h1.77v-3.07h5v3.07h2.9v3.42H45v6.08a1.34,1.34,0,0,0,1.49,1.54,3.81,3.81,0,0,0,1.44-.25v3.82a10.53,10.53,0,0,1-2.79.42C41.78,323.78,39.92,322.18,39.92,318.72Z" fill="#fff"/><path d="M49,319.37c0-3.46,2.92-4.81,7.81-4.81h1.41v-.33c0-1.41-.34-2.34-1.94-2.34a1.82,1.82,0,0,0-2,1.75H49.53c.23-3.55,3-5.29,7-5.29s6.63,1.66,6.63,5.57v9.53H58.3v-1.72a4.81,4.81,0,0,1-4.35,2C51.3,323.78,49,322.49,49,319.37Zm9.22-1.07v-.9H56.87c-2,0-2.92.4-2.92,1.6,0,.85.56,1.38,1.74,1.38C57.12,320.38,58.19,319.57,58.19,318.3Z" fill="#fff"/><path d="M65.63,308.75h5v2.92a4.62,4.62,0,0,1,4.75-3.12v4.69c-3.07-.08-4.75.87-4.75,3.23v7h-5Z" fill="#fff"/><path d="M78.14,318.72v-6.55H76.37v-3.42h1.77v-3.07h5v3.07h2.89v3.42H83.17v6.08a1.34,1.34,0,0,0,1.49,1.54,3.8,3.8,0,0,0,1.43-.25v3.82a10.45,10.45,0,0,1-2.78.42C80,323.78,78.14,322.18,78.14,318.72Z" fill="#fff"/><path d="M87.19,318.78h4.63c.17,1.07.65,1.66,2.08,1.66,1.24,0,1.8-.48,1.8-1.21s-.7-1-2.72-1.32c-3.94-.51-5.6-1.66-5.6-4.72,0-3.26,2.9-4.84,6.3-4.84,3.62,0,6.15,1.24,6.49,4.75H95.62a1.65,1.65,0,0,0-1.89-1.46c-1.09,0-1.65.48-1.65,1.15s.67,1,2.47,1.21c4.07.51,6,1.58,6,4.72,0,3.49-2.58,5.06-6.66,5.06S87.3,322,87.19,318.78Z" fill="#fff"/><path d="M20.93,356.12v-4.3a6.63,6.63,0,0,0,2.44.4c1.58,0,2.62-.71,2.62-2.79v-13h5.79v13c0,4.84-2.48,7.31-7.2,7.31A7.61,7.61,0,0,1,20.93,356.12Z" fill="#fff"/><path d="M33.38,352.47c0-3.46,2.92-4.81,7.81-4.81h1.4v-.33c0-1.41-.33-2.34-1.93-2.34a1.81,1.81,0,0,0-2,1.75H33.94c.22-3.55,3-5.29,7-5.29s6.64,1.66,6.64,5.57v9.52H42.71v-1.71a4.84,4.84,0,0,1-4.36,2.05C35.71,356.88,33.38,355.59,33.38,352.47Zm9.21-1.07v-.9H41.27c-2,0-2.92.4-2.92,1.6,0,.85.56,1.38,1.74,1.38C41.53,353.48,42.59,352.67,42.59,351.4Z" fill="#fff"/><path d="M50,341.85h5v2.36a5.19,5.19,0,0,1,4.83-2.76c2.84,0,4.81,1.77,4.81,5.54v9.55h-5V348c0-1.66-.65-2.47-2.11-2.47s-2.5.9-2.5,2.78v8.23H50Z" fill="#fff"/><path d="M81.06,352.69H71.28v-2.16l8.38-14.08H86.6v12.28h2.59v4H86.6v3.85H81.06Zm.14-4v-8l-4.49,8Z" fill="#fff"/><path d="M90.42,354a2.8,2.8,0,0,1,2.87-2.84,2.84,2.84,0,1,1,0,5.67A2.8,2.8,0,0,1,90.42,354Z" fill="#fff"/></g></g></g></svg>