<svg xmlns="http://www.w3.org/2000/svg" viewBox="0 0 728 90"><title>H40</title><g id="Layer_2" data-name="Layer 2"><g id="Rect"><rect width="728" height="90" fill="none"/></g><g id="H40"><g id="Pay_more_to_do_taxes_Not_with_H_R_Block." data-name="Pay more to do taxes? Not with H&amp;R Block."><path d="M122.19,15.2h8.64c6.22,0,9.11,2.77,9.11,7.59v.13c0,4.76-3.21,7.33-8.83,7.33h-2.44v7.66h-6.48Zm8.35,10.61c2.1,0,3.21-1,3.21-2.86v-.13c0-1.93-1.14-2.73-3.18-2.73h-1.9v5.72Z" fill="#fff"/><path d="M140.38,33.3c0-3.9,3.31-5.43,8.83-5.43h1.59v-.38c0-1.59-.38-2.63-2.19-2.63a2,2,0,0,0-2.26,2H141c.25-4,3.4-6,7.94-6s7.49,1.87,7.49,6.28V37.91h-5.52V36A5.47,5.47,0,0,1,146,38.29C143,38.29,140.38,36.83,140.38,33.3Zm10.42-1.2v-1h-1.49c-2.29,0-3.31.44-3.31,1.81,0,1,.64,1.56,2,1.56C149.59,34.45,150.8,33.53,150.8,32.1Z" fill="#fff"/><path d="M163.85,36.22,157.21,21.3h6.16l3.43,8.86L170,21.3h5.43l-8.9,22.16h-5.43Z" fill="#fff"/><path d="M182.64,21.3h5.69v2.54a5.79,5.79,0,0,1,5.2-3A4.52,4.52,0,0,1,198,23.62a6.58,6.58,0,0,1,5.5-2.76c3.14,0,5.43,2,5.43,6.19V37.91h-5.69V28c0-1.68-.82-2.51-2.13-2.51-1.52,0-2.54,1-2.54,2.8v9.62H193V28c0-1.68-.82-2.51-2.12-2.51-1.53,0-2.54,1-2.54,2.8v9.62h-5.69Z" fill="#fff"/><path d="M210.84,29.81v-.25c0-5.34,4-8.7,9.11-8.7S229,24.13,229,29.4v.25c0,5.4-4,8.64-9.08,8.64S210.84,35.18,210.84,29.81Zm12.38-.1v-.25c0-2.79-1.11-4.35-3.27-4.35s-3.3,1.49-3.3,4.29v.25c0,2.86,1.11,4.42,3.3,4.42S223.22,32.48,223.22,29.71Z" fill="#fff"/><path d="M231,21.3h5.68v3.3a5.25,5.25,0,0,1,5.37-3.52v5.3c-3.46-.09-5.37,1-5.37,3.65v7.88H231Z" fill="#fff"/><path d="M243.06,29.81v-.25c0-5.34,4-8.7,9-8.7,4.54,0,8.45,2.6,8.45,8.57v1.49H248.81c.16,2.19,1.43,3.46,3.46,3.46,1.87,0,2.67-.85,2.89-2h5.34c-.51,3.75-3.4,5.88-8.42,5.88C246.87,38.29,243.06,35.24,243.06,29.81ZM255,27.71c-.1-2-1.08-3.11-2.92-3.11s-2.89,1.11-3.18,3.11Z" fill="#fff"/><path d="M269,32.57v-7.4h-2V21.3h2V17.84h5.69V21.3H278v3.87h-3.27V32c0,1.21.6,1.75,1.68,1.75a4.37,4.37,0,0,0,1.62-.29v4.32a11.93,11.93,0,0,1-3.15.48C271.1,38.29,269,36.48,269,32.57Z" fill="#fff"/><path d="M279.22,29.81v-.25c0-5.34,4-8.7,9.12-8.7s9.05,3.27,9.05,8.54v.25c0,5.4-4,8.64-9.08,8.64S279.22,35.18,279.22,29.81Zm12.39-.1v-.25c0-2.79-1.11-4.35-3.27-4.35S285,26.6,285,29.4v.25c0,2.86,1.11,4.42,3.3,4.42S291.61,32.48,291.61,29.71Z" fill="#fff"/><path d="M304.34,29.78v-.26c0-5.65,3.11-8.66,7.05-8.66a5.38,5.38,0,0,1,5.11,2.79V14h5.68V37.91H316.5v-2.7a5.61,5.61,0,0,1-5.18,3.08C307.48,38.29,304.34,35.53,304.34,29.78Zm12.32-.1v-.25c0-2.8-1.18-4.29-3.27-4.29s-3.27,1.43-3.27,4.32v.25c0,2.8,1.24,4.23,3.2,4.23S316.66,32.51,316.66,29.68Z" fill="#fff"/><path d="M324.18,29.81v-.25c0-5.34,4-8.7,9.12-8.7s9.05,3.27,9.05,8.54v.25c0,5.4-4,8.64-9.09,8.64S324.18,35.18,324.18,29.81Zm12.39-.1v-.25c0-2.79-1.12-4.35-3.27-4.35S330,26.6,330,29.4v.25c0,2.86,1.11,4.42,3.31,4.42S336.57,32.48,336.57,29.71Z" fill="#fff"/><path d="M350.88,32.57v-7.4h-2V21.3h2V17.84h5.69V21.3h3.27v3.87h-3.27V32c0,1.21.6,1.75,1.68,1.75a4.33,4.33,0,0,0,1.62-.29v4.32a11.92,11.92,0,0,1-3.14.48C353,38.29,350.88,36.48,350.88,32.57Z" fill="#fff"/><path d="M361.11,33.3c0-3.9,3.3-5.43,8.82-5.43h1.59v-.38c0-1.59-.38-2.63-2.19-2.63a2,2,0,0,0-2.25,2h-5.34c.26-4,3.4-6,7.94-6s7.49,1.87,7.49,6.28V37.91h-5.52V36a5.45,5.45,0,0,1-4.92,2.32C363.74,38.29,361.11,36.83,361.11,33.3Zm10.41-1.2v-1H370c-2.29,0-3.3.44-3.3,1.81,0,1,.63,1.56,2,1.56C370.32,34.45,371.52,33.53,371.52,32.1Z" fill="#fff"/><path d="M384.13,29.46,379,21.3h6.54l2.57,4.38,2.51-4.38h5.84L391.17,29l5.75,8.89h-6.54l-2.95-5-3,5H378.6Z" fill="#fff"/><path d="M396.19,29.81v-.25c0-5.34,4-8.7,9-8.7,4.54,0,8.44,2.6,8.44,8.57v1.49H401.94c.16,2.19,1.43,3.46,3.46,3.46,1.87,0,2.67-.85,2.89-2h5.33c-.51,3.75-3.4,5.88-8.41,5.88C400,38.29,396.19,35.24,396.19,29.81Zm11.91-2.1c-.1-2-1.08-3.11-2.92-3.11s-2.89,1.11-3.18,3.11Z" fill="#fff"/><path d="M414.64,32.64h5.24c.19,1.2.73,1.87,2.34,1.87,1.4,0,2-.54,2-1.37s-.8-1.17-3.08-1.49c-4.45-.57-6.32-1.87-6.32-5.33,0-3.69,3.27-5.46,7.11-5.46,4.1,0,6.95,1.39,7.34,5.36h-5.15A1.85,1.85,0,0,0,422,24.57c-1.23,0-1.87.54-1.87,1.3s.76,1.11,2.8,1.37c4.6.57,6.82,1.78,6.82,5.33,0,3.94-2.92,5.72-7.52,5.72S414.76,36.32,414.64,32.64Z" fill="#fff"/><path d="M434.67,29.84c0-2.41,1.65-3.94,3.11-5.33,1.08-1.05,2.07-2,2.07-3.11a1.7,1.7,0,0,0-1.94-1.91c-1.37,0-2.29,1.05-2.51,2.79h-5.52c.16-4.79,3.58-7.39,8.47-7.39s7.66,2.19,7.66,6a6.45,6.45,0,0,1-2.32,4.76c-1.56,1.55-3.37,2.79-3.65,4.35v.48h-5.37Zm-.73,5.27a3.41,3.41,0,1,1,3.43,3.15A3.3,3.3,0,0,1,433.94,35.11Z" fill="#fff"/><path d="M122.19,49h7.34l7.27,12.8V49h5.68V71.66h-6.29L127.91,57.4V71.66h-5.72Z" fill="#fff"/><path d="M144.77,63.56v-.25c0-5.34,4-8.7,9.11-8.7s9.05,3.27,9.05,8.54v.25c0,5.4-4,8.64-9.08,8.64S144.77,68.93,144.77,63.56Zm12.38-.1v-.25c0-2.79-1.11-4.35-3.27-4.35s-3.3,1.49-3.3,4.29v.25c0,2.86,1.11,4.42,3.3,4.42S157.15,66.23,157.15,63.46Z" fill="#fff"/><path d="M165.69,66.32v-7.4h-2V55.05h2V51.59h5.68v3.46h3.27v3.87h-3.27v6.86a1.52,1.52,0,0,0,1.69,1.75,4.28,4.28,0,0,0,1.61-.29v4.32a11.92,11.92,0,0,1-3.14.48C167.78,72,165.69,70.23,165.69,66.32Z" fill="#fff"/><path d="M181.18,55.05h5.94L189.53,65l2.8-9.94h4.57L199.38,65l2.7-9.94h5.39L202.2,71.66h-5.43l-2.47-9.27-2.58,9.27H186.2Z" fill="#fff"/><path d="M208.8,50.54a3.14,3.14,0,1,1,3.12,2.92A3,3,0,0,1,208.8,50.54Zm.29,4.51h5.68V71.66h-5.68Z" fill="#fff"/><path d="M218.58,66.32v-7.4h-2V55.05h2V51.59h5.69v3.46h3.27v3.87h-3.27v6.86c0,1.21.6,1.75,1.68,1.75a4.37,4.37,0,0,0,1.62-.29v4.32a11.92,11.92,0,0,1-3.14.48C220.68,72,218.58,70.23,218.58,66.32Z" fill="#fff"/><path d="M229.69,47.75h5.69v10a5.85,5.85,0,0,1,5.46-3.11c3.21,0,5.43,2,5.43,6.25v10.8h-5.68V62c0-1.87-.73-2.79-2.38-2.79s-2.83,1-2.83,3.14v9.31h-5.69Z" fill="#fff"/><path d="M255.32,49h6.54v8.67h7.46V49h6.51V71.66h-6.51v-9h-7.46v9h-6.54Z" fill="#fff"/><path d="M297.61,67l3.78,4.64H294L292.66,70a9.07,9.07,0,0,1-6.13,2c-4.83,0-8-2.54-8-6.86,0-2.92,1.78-5.08,5-6.6a7.27,7.27,0,0,1-1.39-4c0-3.88,3.3-5.94,7.3-5.94,3.62,0,6.89,1.81,6.89,5.3,0,2.48-1.46,4.29-4.54,5.62l2.86,3.49,1.65-3.24h4.95Zm-7.88-.67L286.15,62a2.67,2.67,0,0,0-1.53,2.44,2.64,2.64,0,0,0,2.89,2.83A3,3,0,0,0,289.73,66.35ZM289,57.21c1.52-.73,2.25-1.59,2.25-2.76a1.64,1.64,0,0,0-1.68-1.75,1.81,1.81,0,0,0-1.88,2A4.14,4.14,0,0,0,289,57.21Z" fill="#fff"/><path d="M303.45,49h8.89c5.94,0,9.24,2.42,9.24,7.21v.13a5.93,5.93,0,0,1-4.1,6l5.43,9.4h-6.85l-4.61-8.13h-1.52v8.13h-6.48ZM312,59.31c2.19,0,3.27-.93,3.27-2.77v-.12c0-1.85-1.14-2.58-3.24-2.58h-2.12v5.47Z" fill="#fff"/><path d="M330.88,49H341c5.37,0,7.65,2.42,7.65,5.94V55a4.68,4.68,0,0,1-3.84,4.89c2.8.47,4.54,2.16,4.54,5.3v.13c0,4.06-2.63,6.32-8.25,6.32H330.88Zm8.83,9c2,0,2.79-.7,2.79-2.32v-.12c0-1.56-.82-2.26-2.79-2.26h-2.48V58Zm.22,9.34c2.06,0,3-1,3-2.64v-.13c0-1.71-.92-2.6-3.21-2.6h-2.51v5.37Z" fill="#fff"/><path d="M351.61,47.75h5.66V71.66h-5.66Z" fill="#fff"/><path d="M359.42,63.56v-.25c0-5.34,4-8.7,9.12-8.7s9,3.27,9,8.54v.25c0,5.4-4,8.64-9.09,8.64S359.42,68.93,359.42,63.56Zm12.39-.1v-.25c0-2.79-1.11-4.35-3.27-4.35s-3.31,1.49-3.31,4.29v.25c0,2.86,1.12,4.42,3.31,4.42S371.81,66.23,371.81,63.46Z" fill="#fff"/><path d="M378.7,63.56v-.25c0-5.53,4-8.7,8.85-8.7,4.07,0,7.82,1.77,8.13,6.82h-5.33A2.46,2.46,0,0,0,387.68,59c-2,0-3.17,1.43-3.17,4.22v.26c0,2.89,1.11,4.38,3.27,4.38a2.77,2.77,0,0,0,2.89-2.76h5.11c-.16,4.19-3,6.92-8.35,6.92C382.47,72,378.7,69.15,378.7,63.56Z" fill="#fff"/><path d="M397.62,47.75h5.68V61.62l4.48-6.57h5.91l-5.43,7.46,5.87,9.15h-6.35l-4.48-7.27v7.27h-5.68Z" fill="#fff"/><path d="M415.24,68.8a3.16,3.16,0,0,1,3.24-3.21,3.21,3.21,0,1,1,0,6.42A3.16,3.16,0,0,1,415.24,68.8Z" fill="#fff"/></g></g></g></svg>