<svg xmlns="http://www.w3.org/2000/svg" viewBox="0 0 300 250"><title>H17</title><g id="Layer_2" data-name="Layer 2"><g id="Rect"><rect width="300" height="250" fill="#fff"/></g><g id="H17"><g id="File_with_H_R_Block_Online_for_everyone_s_favorite_price:_free." data-name="File with H&amp;R Block Online for everyone’s favorite price: free."><path d="M21.78,35H34.27v4.11H27.11V43h5.71v3.91H27.11v6.53H21.78Z" fill="#fff"/><path d="M35.59,36.28a2.42,2.42,0,0,1,2.53-2.41,2.44,2.44,0,0,1,2.56,2.41,2.41,2.41,0,0,1-2.56,2.37A2.38,2.38,0,0,1,35.59,36.28ZM35.82,40h4.63V53.46H35.82Z" fill="#fff"/><path d="M43.06,34h4.6V53.46h-4.6Z" fill="#fff"/><path d="M49.42,46.87v-.2c0-4.35,3.23-7.09,7.31-7.09,3.7,0,6.88,2.12,6.88,7v1.22H54.1a2.69,2.69,0,0,0,2.81,2.82c1.53,0,2.17-.7,2.36-1.61h4.34c-.42,3-2.77,4.78-6.85,4.78C52.52,53.77,49.42,51.29,49.42,46.87Zm9.69-1.7c-.08-1.63-.88-2.54-2.38-2.54a2.58,2.58,0,0,0-2.58,2.54Z" fill="#fff"/><path d="M68.78,40h4.83l2,8.09L77.85,40h3.72l2,8.09L85.79,40h4.39L85.89,53.46H81.47l-2-7.54-2.09,7.54h-4.5Z" fill="#fff"/><path d="M91.27,36.28a2.42,2.42,0,0,1,2.53-2.41,2.44,2.44,0,0,1,2.56,2.41,2.41,2.41,0,0,1-2.56,2.37A2.38,2.38,0,0,1,91.27,36.28ZM91.5,40h4.63V53.46H91.5Z" fill="#fff"/><path d="M99.23,49.12v-6H97.6V40h1.63V37.13h4.63V40h2.66V43.1h-2.66v5.58c0,1,.49,1.42,1.37,1.42a3.4,3.4,0,0,0,1.31-.23v3.52a9.92,9.92,0,0,1-2.56.38C100.94,53.77,99.23,52.3,99.23,49.12Z" fill="#fff"/><path d="M108.28,34h4.62v8.12a4.78,4.78,0,0,1,4.45-2.54c2.61,0,4.42,1.63,4.42,5.1v8.78h-4.63V45.61c0-1.53-.59-2.28-1.94-2.28s-2.3.83-2.3,2.56v7.57h-4.62Z" fill="#fff"/><path d="M129.14,35h5.32V42h6.08V35h5.29V53.46h-5.29V46.18h-6.08v7.28h-5.32Z" fill="#fff"/><path d="M163.57,49.69l3.07,3.77h-6l-1.08-1.34a7.39,7.39,0,0,1-5,1.65c-3.93,0-6.49-2.06-6.49-5.58,0-2.38,1.45-4.13,4.06-5.37A5.94,5.94,0,0,1,151,39.58c0-3.15,2.69-4.83,5.94-4.83,3,0,5.61,1.47,5.61,4.32,0,2-1.19,3.49-3.69,4.57l2.32,2.85,1.35-2.64h4Zm-6.41-.54-2.92-3.52a2.19,2.19,0,0,0-1.24,2,2.14,2.14,0,0,0,2.35,2.3A2.41,2.41,0,0,0,157.16,49.15Zm-.57-7.45c1.24-.59,1.83-1.29,1.83-2.24A1.33,1.33,0,0,0,157.05,38a1.48,1.48,0,0,0-1.52,1.61A3.36,3.36,0,0,0,156.59,41.7Z" fill="#fff"/><path d="M168.33,35h7.23c4.84,0,7.52,2,7.52,5.87V41a4.82,4.82,0,0,1-3.33,4.86l4.42,7.65h-5.58l-3.75-6.61H173.6v6.61h-5.27Zm7,8.43c1.79,0,2.67-.75,2.67-2.25v-.1c0-1.5-.93-2.1-2.64-2.1H173.6v4.45Z" fill="#fff"/><path d="M190.66,35h8.24c4.37,0,6.23,2,6.23,4.84v.1a3.8,3.8,0,0,1-3.12,4,4,4,0,0,1,3.69,4.32v.1c0,3.31-2.14,5.14-6.72,5.14h-8.32Zm7.18,7.34c1.66,0,2.28-.56,2.28-1.88v-.11c0-1.26-.67-1.83-2.28-1.83h-2v3.82Zm.19,7.6c1.68,0,2.45-.77,2.45-2.14v-.11c0-1.39-.75-2.11-2.61-2.11h-2v4.36Z" fill="#fff"/><path d="M207.54,34h4.6V53.46h-4.6Z" fill="#fff"/><path d="M213.9,46.87v-.2c0-4.35,3.23-7.09,7.42-7.09s7.36,2.67,7.36,7v.2c0,4.4-3.23,7-7.39,7S213.9,51.24,213.9,46.87ZM224,46.8v-.21c0-2.28-.91-3.54-2.66-3.54s-2.69,1.21-2.69,3.49v.2c0,2.33.9,3.6,2.69,3.6S224,49,224,46.8Z" fill="#fff"/><path d="M229.59,46.87v-.2c0-4.5,3.23-7.09,7.21-7.09,3.31,0,6.36,1.45,6.62,5.56h-4.34a2,2,0,0,0-2.18-2c-1.62,0-2.58,1.16-2.58,3.43v.21c0,2.35.9,3.57,2.66,3.57a2.25,2.25,0,0,0,2.35-2.25h4.17c-.13,3.41-2.43,5.63-6.8,5.63C232.66,53.77,229.59,51.42,229.59,46.87Z" fill="#fff"/><path d="M245,34h4.62V45.3L253.27,40h4.8L253.65,46l4.79,7.44h-5.17l-3.65-5.91v5.91H245Z" fill="#fff"/><path d="M20.8,72.19V72c0-5.63,4.24-9.41,9.77-9.41s9.8,3.55,9.8,9.28v.21c0,5.69-3.9,9.57-9.88,9.57S20.8,77.75,20.8,72.19Zm14,0v-.21c0-3.28-1.66-5.22-4.27-5.22S26.33,68.6,26.33,72v.2c0,3.36,1.71,5.3,4.27,5.3S34.84,75.45,34.84,72.14Z" fill="#fff"/><path d="M42.15,67.8h4.63V70a4.77,4.77,0,0,1,4.45-2.54c2.61,0,4.42,1.63,4.42,5.1v8.78H51V73.46c0-1.53-.6-2.28-1.94-2.28s-2.3.83-2.3,2.56v7.57H42.15Z" fill="#fff"/><path d="M58,61.85h4.61V81.31H58Z" fill="#fff"/><path d="M65,64.13a2.56,2.56,0,1,1,2.54,2.37A2.39,2.39,0,0,1,65,64.13Zm.24,3.67h4.62V81.31H65.24Z" fill="#fff"/><path d="M72.35,67.8H77V70a4.78,4.78,0,0,1,4.45-2.54c2.61,0,4.42,1.63,4.42,5.1v8.78H81.21V73.46c0-1.53-.59-2.28-1.94-2.28S77,72,77,73.74v7.57H72.35Z" fill="#fff"/><path d="M87.36,74.72v-.2c0-4.35,3.24-7.09,7.32-7.09,3.7,0,6.87,2.12,6.87,7v1.22H92a2.71,2.71,0,0,0,2.82,2.82c1.53,0,2.17-.7,2.35-1.61h4.34c-.41,3-2.76,4.79-6.84,4.79C90.47,81.63,87.36,79.14,87.36,74.72Zm9.7-1.7c-.08-1.63-.88-2.54-2.38-2.54A2.58,2.58,0,0,0,92.09,73Z" fill="#fff"/><path d="M108.56,71h-1.71V67.8h1.71V66.61c0-3.36,2.09-5,5.3-5a8,8,0,0,1,2.12.29v3.38a4.4,4.4,0,0,0-1.27-.18,1.36,1.36,0,0,0-1.55,1.48V67.8h2.74V71h-2.74V81.31h-4.6Z" fill="#fff"/><path d="M116.26,74.72v-.2c0-4.35,3.23-7.09,7.42-7.09s7.37,2.67,7.37,7v.2c0,4.4-3.23,7-7.39,7S116.26,79.09,116.26,74.72Zm10.08-.07v-.21c0-2.28-.9-3.54-2.66-3.54S121,72.11,121,74.39v.2c0,2.33.91,3.6,2.69,3.6S126.34,76.89,126.34,74.65Z" fill="#fff"/><path d="M132.68,67.8h4.63v2.68a4.25,4.25,0,0,1,4.36-2.86v4.31c-2.81-.08-4.36.8-4.36,3v6.41h-4.63Z" fill="#fff"/><path d="M147.33,74.72v-.2c0-4.35,3.24-7.09,7.32-7.09,3.7,0,6.88,2.12,6.88,7v1.22H152a2.71,2.71,0,0,0,2.82,2.82c1.53,0,2.17-.7,2.35-1.61h4.35c-.42,3-2.77,4.79-6.85,4.79C150.44,81.63,147.33,79.14,147.33,74.72ZM157,73c-.08-1.63-.88-2.54-2.38-2.54A2.57,2.57,0,0,0,152.07,73Z" fill="#fff"/><path d="M161.5,67.8h4.94l2.81,8.71L172,67.8h4.42L171.5,81.31h-5Z" fill="#fff"/><path d="M176.16,74.72v-.2c0-4.35,3.23-7.09,7.31-7.09,3.7,0,6.88,2.12,6.88,7v1.22h-9.51a2.69,2.69,0,0,0,2.81,2.82c1.53,0,2.17-.7,2.36-1.61h4.34c-.42,3-2.77,4.79-6.85,4.79C179.26,81.63,176.16,79.14,176.16,74.72Zm9.69-1.7c-.08-1.63-.88-2.54-2.38-2.54A2.58,2.58,0,0,0,180.89,73Z" fill="#fff"/><path d="M192,67.8h4.63v2.68A4.25,4.25,0,0,1,201,67.62v4.31c-2.82-.08-4.37.8-4.37,3v6.41H192Z" fill="#fff"/><path d="M207.07,79.94l-5.4-12.14h5L209.48,75l2.58-7.21h4.42l-7.24,18h-4.42Z" fill="#fff"/><path d="M216.22,74.72v-.2c0-4.35,3.24-7.09,7.42-7.09s7.37,2.67,7.37,7v.2c0,4.4-3.23,7-7.39,7S216.22,79.09,216.22,74.72Zm10.08-.07v-.21c0-2.28-.9-3.54-2.66-3.54S221,72.11,221,74.39v.2c0,2.33.91,3.6,2.69,3.6S226.3,76.89,226.3,74.65Z" fill="#fff"/><path d="M232.64,67.8h4.63V70a4.75,4.75,0,0,1,4.44-2.54c2.61,0,4.42,1.63,4.42,5.1v8.78H241.5V73.46c0-1.53-.59-2.28-1.93-2.28s-2.3.83-2.3,2.56v7.57h-4.63Z" fill="#fff"/><path d="M247.66,74.72v-.2c0-4.35,3.23-7.09,7.31-7.09,3.7,0,6.88,2.12,6.88,7v1.22h-9.51a2.69,2.69,0,0,0,2.81,2.82c1.53,0,2.17-.7,2.36-1.61h4.34c-.42,3-2.77,4.79-6.85,4.79C250.76,81.63,247.66,79.14,247.66,74.72Zm9.69-1.7c-.08-1.63-.88-2.54-2.38-2.54A2.58,2.58,0,0,0,252.39,73Z" fill="#fff"/><path d="M262.31,69.24l2.07-6.74,4.09,1.37-3.55,6.38Z" fill="#fff"/><path d="M266.92,77h4.26c.16,1,.6,1.53,1.91,1.53,1.14,0,1.66-.44,1.66-1.11s-.65-1-2.51-1.22c-3.62-.46-5.14-1.52-5.14-4.34,0-3,2.66-4.45,5.79-4.45,3.33,0,5.66,1.14,6,4.37h-4.19a1.51,1.51,0,0,0-1.73-1.34c-1,0-1.53.44-1.53,1.06s.62.9,2.28,1.11c3.75.47,5.56,1.45,5.56,4.34,0,3.21-2.38,4.66-6.13,4.66S267,80,266.92,77Z" fill="#fff"/><path d="M22.07,98.8H20.36V95.65h1.71V94.46c0-3.36,2.09-5,5.3-5a8,8,0,0,1,2.12.29v3.38A4.4,4.4,0,0,0,28.22,93a1.36,1.36,0,0,0-1.55,1.48v1.19h2.74V98.8H26.67v10.37h-4.6Z" fill="#fff"/><path d="M29.93,105.42c0-3.18,2.68-4.42,7.18-4.42H38.4v-.31c0-1.3-.31-2.15-1.78-2.15a1.65,1.65,0,0,0-1.83,1.6H30.44c.21-3.25,2.77-4.86,6.47-4.86S43,96.81,43,100.4v8.77h-4.5v-1.58a4.46,4.46,0,0,1-4,1.89C32.07,109.48,29.93,108.29,29.93,105.42Zm8.47-1v-.82H37.19c-1.86,0-2.69.36-2.69,1.47,0,.78.52,1.27,1.6,1.27A2,2,0,0,0,38.4,104.43Z" fill="#fff"/><path d="M43.7,95.65h4.94l2.82,8.71,2.76-8.71h4.42l-4.93,13.52h-5Z" fill="#fff"/><path d="M58.36,102.57v-.2c0-4.35,3.23-7.09,7.42-7.09s7.37,2.67,7.37,7v.2c0,4.4-3.24,7-7.4,7S58.36,106.94,58.36,102.57Zm10.08-.07v-.21c0-2.28-.9-3.54-2.66-3.54s-2.69,1.21-2.69,3.49v.2c0,2.33.91,3.6,2.69,3.6S68.44,104.74,68.44,102.5Z" fill="#fff"/><path d="M74.77,95.65H79.4v2.68a4.26,4.26,0,0,1,4.37-2.86v4.31c-2.82-.08-4.37.8-4.37,3v6.42H74.77Z" fill="#fff"/><path d="M85.35,92a2.42,2.42,0,0,1,2.53-2.41A2.44,2.44,0,0,1,90.44,92a2.41,2.41,0,0,1-2.56,2.37A2.38,2.38,0,0,1,85.35,92Zm.23,3.67h4.63v13.52H85.58Z" fill="#fff"/><path d="M93.31,104.82v-6H91.68V95.65h1.63V92.83h4.63v2.82h2.66V98.8H97.94v5.58c0,1,.49,1.42,1.37,1.42a3.4,3.4,0,0,0,1.31-.23v3.52a9.84,9.84,0,0,1-2.55.39C95,109.48,93.31,108,93.31,104.82Z" fill="#fff"/><path d="M101.63,102.57v-.2c0-4.35,3.23-7.09,7.32-7.09,3.69,0,6.87,2.12,6.87,7v1.22h-9.51a2.7,2.7,0,0,0,2.82,2.82c1.52,0,2.17-.7,2.35-1.61h4.34c-.41,3-2.76,4.79-6.85,4.79S101.63,107,101.63,102.57Zm9.7-1.7c-.08-1.63-.88-2.54-2.38-2.54a2.58,2.58,0,0,0-2.59,2.54Z" fill="#fff"/><path d="M122.13,95.65h4.63v2A4.77,4.77,0,0,1,131,95.28c3.16,0,5.71,2.38,5.71,7v.21c0,4.65-2.55,7-5.73,7a4.45,4.45,0,0,1-4.19-2.31v6.52h-4.63ZM132,102.5v-.21c0-2.38-1-3.52-2.66-3.52s-2.69,1.22-2.69,3.49v.21c0,2.3,1,3.46,2.69,3.46S132,104.72,132,102.5Z" fill="#fff"/><path d="M138.36,95.65H143v2.68a4.26,4.26,0,0,1,4.37-2.86v4.31c-2.82-.08-4.37.8-4.37,3v6.42h-4.63Z" fill="#fff"/><path d="M148.94,92a2.42,2.42,0,0,1,2.53-2.41A2.44,2.44,0,0,1,154,92a2.41,2.41,0,0,1-2.56,2.37A2.38,2.38,0,0,1,148.94,92Zm.23,3.67h4.63v13.52h-4.63Z" fill="#fff"/><path d="M155.55,102.57v-.2c0-4.5,3.24-7.09,7.22-7.09,3.31,0,6.36,1.45,6.61,5.56H165a2,2,0,0,0-2.17-2c-1.63,0-2.58,1.16-2.58,3.43v.21c0,2.35.9,3.57,2.66,3.57a2.26,2.26,0,0,0,2.35-2.25h4.16c-.13,3.41-2.43,5.64-6.8,5.64C158.63,109.48,155.55,107.12,155.55,102.57Z" fill="#fff"/><path d="M170.24,102.57v-.2c0-4.35,3.23-7.09,7.31-7.09,3.7,0,6.88,2.12,6.88,7v1.22h-9.51a2.7,2.7,0,0,0,2.81,2.82c1.53,0,2.18-.7,2.36-1.61h4.34c-.42,3-2.77,4.79-6.85,4.79C173.34,109.48,170.24,107,170.24,102.57Zm9.69-1.7c-.08-1.63-.88-2.54-2.38-2.54a2.58,2.58,0,0,0-2.58,2.54Z" fill="#fff"/><path d="M185.93,99.45a2.6,2.6,0,0,1,2.63-2.62,2.62,2.62,0,1,1,0,5.23A2.58,2.58,0,0,1,185.93,99.45Zm0,7.39a2.59,2.59,0,0,1,2.63-2.61,2.61,2.61,0,1,1,0,5.22A2.59,2.59,0,0,1,185.93,106.84Z" fill="#fff"/><path d="M22.07,126.65H20.36V123.5h1.71v-1.19c0-3.36,2.09-5,5.3-5a8,8,0,0,1,2.12.29V121a4.4,4.4,0,0,0-1.27-.18,1.36,1.36,0,0,0-1.55,1.48v1.19h2.74v3.15H26.67V137h-4.6Z" fill="#fff"/><path d="M31,123.5h4.63v2.68A4.27,4.27,0,0,1,40,123.31v4.32c-2.82-.08-4.37.8-4.37,3V137H31Z" fill="#fff"/><path d="M40.78,130.42v-.2c0-4.35,3.23-7.09,7.32-7.09,3.69,0,6.87,2.12,6.87,7v1.22H45.46a2.71,2.71,0,0,0,2.82,2.82c1.52,0,2.17-.7,2.35-1.61H55c-.41,3.05-2.76,4.79-6.85,4.79S40.78,134.84,40.78,130.42Zm9.7-1.7c-.08-1.63-.88-2.54-2.38-2.54a2.58,2.58,0,0,0-2.59,2.54Z" fill="#fff"/><path d="M55.85,130.42v-.2c0-4.35,3.23-7.09,7.32-7.09,3.69,0,6.87,2.12,6.87,7v1.22H60.53a2.71,2.71,0,0,0,2.82,2.82c1.52,0,2.17-.7,2.35-1.61H70c-.41,3.05-2.76,4.79-6.85,4.79S55.85,134.84,55.85,130.42Zm9.7-1.7c-.08-1.63-.88-2.54-2.38-2.54a2.58,2.58,0,0,0-2.59,2.54Z" fill="#fff"/><path d="M71.34,134.69A2.57,2.57,0,0,1,74,132.08a2.61,2.61,0,1,1,0,5.22A2.57,2.57,0,0,1,71.34,134.69Z" fill="#fff"/></g></g></g></svg>