<svg xmlns="http://www.w3.org/2000/svg" viewBox="0 0 300 250"><title>Asset 23</title><g id="Layer_2" data-name="Layer 2"><g id="Rect"><rect width="300" height="250" fill="none"/></g><g id="File_for_everyone_s_favorite_price:_free._copy" data-name="File for  everyone’s favorite price: free. copy"><path d="M22.29,21.25h16v5.28H29.12v5h7.33v5H29.12V45H22.29Z" fill="#fff"/><path d="M40,22.91A3.27,3.27,0,1,1,43.24,26,3.09,3.09,0,0,1,40,22.91Zm.3,4.71h5.93V45H40.29Z" fill="#fff"/><path d="M49.57,20h5.9V45h-5.9Z" fill="#fff"/><path d="M57.72,36.51v-.27c0-5.57,4.15-9.08,9.39-9.08,4.74,0,8.82,2.72,8.82,9v1.56H63.73c.16,2.29,1.49,3.61,3.61,3.61,2,0,2.79-.89,3-2.05h5.57c-.53,3.91-3.55,6.13-8.79,6.13C61.7,45.36,57.72,42.18,57.72,36.51Zm12.44-2.19c-.1-2.09-1.13-3.25-3-3.25s-3,1.16-3.32,3.25Z" fill="#fff"/><path d="M84.91,31.67H82.72V27.62h2.19V26.1c0-4.32,2.68-6.37,6.79-6.37a10.49,10.49,0,0,1,2.72.36v4.35a5.21,5.21,0,0,0-1.62-.23,1.74,1.74,0,0,0-2,1.89v1.52h3.51v4.05H90.81V45h-5.9Z" fill="#fff"/><path d="M94.79,36.51v-.27c0-5.57,4.14-9.08,9.51-9.08s9.45,3.41,9.45,8.92v.26c0,5.64-4.14,9-9.48,9S94.79,42.11,94.79,36.51Zm12.93-.1v-.27c0-2.92-1.16-4.54-3.42-4.54s-3.45,1.56-3.45,4.48v.26c0,3,1.16,4.61,3.45,4.61S107.72,39.29,107.72,36.41Z" fill="#fff"/><path d="M115.84,27.62h5.93v3.45a5.46,5.46,0,0,1,5.6-3.68v5.54c-3.61-.1-5.6,1-5.6,3.81V45h-5.93Z" fill="#fff"/><path d="M20.83,71.66v-.27c0-5.57,4.14-9.08,9.38-9.08C35,62.31,39,65,39,71.26v1.56H26.83c.17,2.28,1.49,3.61,3.61,3.61,2,0,2.79-.89,3-2.05H39c-.53,3.91-3.55,6.13-8.78,6.13C24.81,80.51,20.83,77.33,20.83,71.66Zm12.43-2.19c-.1-2.09-1.12-3.25-3-3.25s-3,1.16-3.31,3.25Z" fill="#fff"/><path d="M39,62.77h6.33l3.61,11.17,3.55-11.17h5.67L51.83,80.11H45.36Z" fill="#fff"/><path d="M57.79,71.66v-.27c0-5.57,4.15-9.08,9.38-9.08,4.75,0,8.82,2.71,8.82,9v1.56H63.79c.17,2.28,1.49,3.61,3.62,3.61,2,0,2.78-.89,3-2.05H76c-.53,3.91-3.54,6.13-8.78,6.13C61.77,80.51,57.79,77.33,57.79,71.66Zm12.43-2.19c-.09-2.09-1.12-3.25-3-3.25s-3,1.16-3.31,3.25Z" fill="#fff"/><path d="M78.05,62.77H84v3.45a5.45,5.45,0,0,1,5.6-3.68v5.54C86,68,84,69.1,84,71.89v8.22H78.05Z" fill="#fff"/><path d="M97.44,78.35,90.51,62.77h6.43L100.52,72l3.32-9.25h5.67l-9.29,23.14H94.55Z" fill="#fff"/><path d="M109.17,71.66v-.27c0-5.57,4.15-9.08,9.52-9.08s9.45,3.41,9.45,8.92v.26c0,5.64-4.15,9-9.48,9S109.17,77.26,109.17,71.66Zm12.93-.1v-.27c0-2.92-1.16-4.54-3.41-4.54s-3.45,1.56-3.45,4.48v.26c0,3,1.16,4.61,3.45,4.61S122.1,74.44,122.1,71.56Z" fill="#fff"/><path d="M130.22,62.77h5.94v2.79a6.12,6.12,0,0,1,5.7-3.25c3.35,0,5.67,2.09,5.67,6.53V80.11H141.6V70c0-2-.77-2.92-2.49-2.92s-3,1.06-3,3.29v9.71h-5.94Z" fill="#fff"/><path d="M149.48,71.66v-.27c0-5.57,4.15-9.08,9.39-9.08,4.74,0,8.82,2.71,8.82,9v1.56H155.48c.17,2.28,1.5,3.61,3.62,3.61,2,0,2.78-.89,3-2.05h5.57c-.53,3.91-3.55,6.13-8.79,6.13C153.46,80.51,149.48,77.33,149.48,71.66Zm12.44-2.19c-.1-2.09-1.13-3.25-3-3.25s-3,1.16-3.32,3.25Z" fill="#fff"/><path d="M168.28,64.63,170.93,56l5.24,1.76-4.54,8.19Z" fill="#fff"/><path d="M174.18,74.61h5.47c.2,1.26.76,2,2.45,2,1.46,0,2.13-.56,2.13-1.42s-.83-1.23-3.22-1.56c-4.64-.6-6.6-2-6.6-5.57,0-3.85,3.42-5.7,7.43-5.7,4.28,0,7.26,1.46,7.66,5.6h-5.37a1.94,1.94,0,0,0-2.22-1.72c-1.3,0-2,.56-2,1.35s.79,1.17,2.92,1.43c4.8.6,7.13,1.86,7.13,5.57,0,4.11-3.05,6-7.86,6S174.31,78.45,174.18,74.61Z" fill="#fff"/><path d="M22.65,102H20.46v-4h2.19V96.4c0-4.32,2.69-6.37,6.8-6.37a10.61,10.61,0,0,1,2.72.36v4.35a5.23,5.23,0,0,0-1.63-.23,1.74,1.74,0,0,0-2,1.89v1.52h3.52v4H28.55v13.29h-5.9Z" fill="#fff"/><path d="M32.73,110.45c0-4.07,3.45-5.67,9.22-5.67H43.6v-.39c0-1.66-.39-2.76-2.28-2.76A2.14,2.14,0,0,0,39,103.69H33.39c.27-4.18,3.55-6.23,8.29-6.23s7.83,2,7.83,6.56v11.24H43.74v-2a5.7,5.7,0,0,1-5.14,2.42C35.48,115.66,32.73,114.13,32.73,110.45Zm10.87-1.26v-1.06H42.05c-2.39,0-3.45.47-3.45,1.89,0,1,.66,1.63,2,1.63C42.35,111.65,43.6,110.69,43.6,109.19Z" fill="#fff"/><path d="M50.4,97.92h6.33l3.62,11.17,3.54-11.17h5.67l-6.33,17.34H56.76Z" fill="#fff"/><path d="M69.19,106.81v-.27c0-5.57,4.15-9.08,9.52-9.08s9.45,3.41,9.45,8.92v.26c0,5.64-4.14,9-9.48,9S69.19,112.41,69.19,106.81Zm12.93-.1v-.27c0-2.92-1.16-4.54-3.41-4.54s-3.45,1.56-3.45,4.48v.26c0,3,1.16,4.61,3.45,4.61S82.12,109.59,82.12,106.71Z" fill="#fff"/><path d="M90.24,97.92h5.94v3.45a5.46,5.46,0,0,1,5.6-3.68v5.54c-3.61-.1-5.6,1-5.6,3.81v8.22H90.24Z" fill="#fff"/><path d="M103.8,93.21a3.27,3.27,0,1,1,3.25,3.05A3.09,3.09,0,0,1,103.8,93.21Zm.3,4.71H110v17.34H104.1Z" fill="#fff"/><path d="M114,109.69V102h-2.09v-4H114V94.31H120v3.61h3.41v4H120v7.16a1.58,1.58,0,0,0,1.76,1.82,4.5,4.5,0,0,0,1.69-.3v4.51a12.46,12.46,0,0,1-3.29.5C116.2,115.66,114,113.77,114,109.69Z" fill="#fff"/><path d="M124.69,106.81v-.27c0-5.57,4.14-9.08,9.38-9.08,4.74,0,8.82,2.71,8.82,9V108h-12.2c.16,2.28,1.49,3.61,3.61,3.61,2,0,2.79-.89,3-2h5.57c-.53,3.91-3.55,6.13-8.79,6.13C128.67,115.66,124.69,112.48,124.69,106.81Zm12.43-2.19c-.1-2.09-1.13-3.25-3.05-3.25s-3,1.16-3.32,3.25Z" fill="#fff"/><path d="M21.76,133.07h5.93v2.59a6.13,6.13,0,0,1,5.41-3c4,0,7.32,3,7.32,9v.27c0,6-3.28,8.95-7.36,8.95a5.72,5.72,0,0,1-5.37-2.95v8.35H21.76Zm12.63,8.79v-.27c0-3.05-1.33-4.51-3.41-4.51s-3.45,1.56-3.45,4.48v.26c0,3,1.29,4.45,3.45,4.45S34.39,144.71,34.39,141.86Z" fill="#fff"/><path d="M42.58,133.07h5.93v3.45a5.45,5.45,0,0,1,5.6-3.68v5.54c-3.61-.1-5.6,1-5.6,3.81v8.22H42.58Z" fill="#fff"/><path d="M56.13,128.36a3.28,3.28,0,1,1,3.25,3A3.1,3.1,0,0,1,56.13,128.36Zm.3,4.71h5.94v17.34H56.43Z" fill="#fff"/><path d="M64.62,142v-.27c0-5.77,4.14-9.08,9.25-9.08,4.24,0,8.16,1.85,8.49,7.13H76.79c-.27-1.63-1.06-2.53-2.79-2.53-2.09,0-3.31,1.5-3.31,4.41v.27c0,3,1.16,4.58,3.41,4.58a2.89,2.89,0,0,0,3-2.89h5.34c-.17,4.38-3.12,7.23-8.72,7.23C68.57,150.81,64.62,147.79,64.62,142Z" fill="#fff"/><path d="M83.45,142v-.27c0-5.57,4.14-9.08,9.38-9.08,4.74,0,8.82,2.72,8.82,8.95v1.56H89.45c.17,2.29,1.49,3.61,3.61,3.61,2,0,2.79-.89,3-2h5.57c-.53,3.91-3.55,6.13-8.78,6.13C87.43,150.81,83.45,147.63,83.45,142Zm12.43-2.19c-.1-2.09-1.13-3.25-3-3.25s-3,1.16-3.31,3.25Z" fill="#fff"/><path d="M103.57,137.94A3.32,3.32,0,0,1,107,134.6a3.35,3.35,0,1,1,0,6.69A3.31,3.31,0,0,1,103.57,137.94Zm0,9.49a3.33,3.33,0,0,1,3.38-3.35,3.35,3.35,0,1,1,0,6.7A3.33,3.33,0,0,1,103.57,147.43Z" fill="#fff"/><path d="M120.24,137.12h-2.18v-4.05h2.18v-1.53c0-4.31,2.69-6.36,6.8-6.36a10.55,10.55,0,0,1,2.72.36v4.35a5.21,5.21,0,0,0-1.62-.23,1.74,1.74,0,0,0-2,1.88v1.53h3.51v4.05h-3.51v13.29h-5.91Z" fill="#fff"/><path d="M131.65,133.07h5.93v3.45a5.46,5.46,0,0,1,5.61-3.68v5.54c-3.62-.1-5.61,1-5.61,3.81v8.22h-5.93Z" fill="#fff"/><path d="M144.24,142v-.27c0-5.57,4.15-9.08,9.39-9.08,4.74,0,8.82,2.72,8.82,8.95v1.56h-12.2c.16,2.29,1.49,3.61,3.61,3.61,2,0,2.79-.89,3-2h5.57c-.53,3.91-3.55,6.13-8.79,6.13C148.22,150.81,144.24,147.63,144.24,142Zm12.44-2.19c-.1-2.09-1.13-3.25-3.05-3.25s-3,1.16-3.32,3.25Z" fill="#fff"/><path d="M163.57,142v-.27c0-5.57,4.14-9.08,9.38-9.08,4.75,0,8.82,2.72,8.82,8.95v1.56h-12.2c.17,2.29,1.49,3.61,3.62,3.61,1.95,0,2.78-.89,3-2h5.57c-.53,3.91-3.54,6.13-8.78,6.13C167.55,150.81,163.57,147.63,163.57,142ZM176,139.77c-.09-2.09-1.12-3.25-3.05-3.25s-3,1.16-3.31,3.25Z" fill="#fff"/><path d="M183.43,147.43a3.3,3.3,0,0,1,3.38-3.35,3.35,3.35,0,1,1,0,6.7A3.31,3.31,0,0,1,183.43,147.43Z" fill="#fff"/></g></g></svg>