<svg xmlns="http://www.w3.org/2000/svg" viewBox="0 0 300 250"><title>H1</title><g id="Layer_2" data-name="Layer 2"><g id="Rect"><rect width="300" height="250" fill="none"/></g><g id="H1"><g id="Up_to_3_500_today._No_interest._No_loan_fees._Starting_Jan_4." data-name="Up to $3,500 today. No interest. No loan fees. Starting Jan 4."><path d="M21.9,29.77V17.13H28V29.5c0,3,.75,4.47,3.34,4.47s3.33-1.37,3.33-4.55V17.13h6.16V29.68c0,6.19-3.63,9.08-9.49,9.08S21.9,35.72,21.9,29.77Z" fill="#fff"/><path d="M43.71,22.84H49v2.32a5.49,5.49,0,0,1,4.85-2.74c3.63,0,6.57,2.74,6.57,8.07v.23c0,5.36-2.94,8-6.6,8A5.13,5.13,0,0,1,49,36.11v7.5H43.71Zm11.34,7.88v-.23c0-2.74-1.19-4-3.07-4s-3.09,1.4-3.09,4v.23c0,2.65,1.16,4,3.09,4S55.05,33.28,55.05,30.72Z" fill="#fff"/><path d="M68.52,33.4V26.47H66.65V22.84h1.87V19.6h5.33v3.24h3.06v3.63H73.85V32.9a1.41,1.41,0,0,0,1.58,1.63,4.19,4.19,0,0,0,1.51-.26v4a11,11,0,0,1-2.94.45C70.49,38.76,68.52,37.06,68.52,33.4Z" fill="#fff"/><path d="M78.1,30.81v-.23c0-5,3.72-8.16,8.54-8.16s8.48,3.07,8.48,8v.24c0,5-3.72,8.09-8.51,8.09S78.1,35.84,78.1,30.81Zm11.61-.09v-.23c0-2.62-1-4.08-3.07-4.08s-3.09,1.4-3.09,4v.24c0,2.67,1,4.13,3.09,4.13S89.71,33.31,89.71,30.72Z" fill="#fff"/><path d="M105.83,28.67c-3-.21-4.46-1.81-4.58-4.1h3.21a1.62,1.62,0,0,0,1.37,1.63V23.67c-3-.43-4.31-1.52-4.31-3.94,0-2.1,1.65-3.61,4.31-3.8V14.39h1.35V16c2.51.21,4,1.37,4.22,3.75h-3.15a1.37,1.37,0,0,0-1.07-1.3v2.39c2.65.38,4.39,1.29,4.39,3.8,0,2.12-1.37,3.89-4.39,4.08v2.17h-1.35Zm0-8.09V18.36c-.78.14-1.18.56-1.18,1.11S104.89,20.39,105.83,20.58Zm1.35,3.32v2.3A1.24,1.24,0,0,0,108.34,25C108.34,24.4,108.1,24.11,107.18,23.9Z" fill="#fff"/><path d="M112.62,31.41H118c.18,1.75,1,2.94,3.12,2.94,1.88,0,2.8-.89,2.8-2.41s-.89-2.49-2.8-2.49h-1.69V25.67H121c1.91,0,2.83-.87,2.83-2.35,0-1.28-.83-2.12-2.44-2.12s-2.59,1-2.83,2.71h-5.38c.27-4.19,3.06-7.08,8.36-7.08,5,0,8,2.29,8,5.83a4.53,4.53,0,0,1-3.6,4.58,4.81,4.81,0,0,1,4.14,4.82c0,4-3,6.7-8.63,6.7C115.57,38.76,112.8,36,112.62,31.41Z" fill="#fff"/><path d="M130.62,40.81l2.5-7.82,4.94,1.75L133.78,42Z" fill="#fff"/><path d="M139,31.71h5.54c.21,1.48.8,2.47,2.76,2.47,1.76,0,2.56-1.31,2.56-3a2.7,2.7,0,0,0-2.88-3,4.34,4.34,0,0,0-3.51,1.51h-3.63l.44-12.52h14.34v4.46h-9.93l-.12,4.7a5.66,5.66,0,0,1,5-2.26c3.89,0,6.45,2.62,6.45,7.23s-3.24,7.5-8.63,7.5C141.75,38.76,139.19,35.69,139,31.71Z" fill="#fff"/><path d="M157.52,28.23v-.9c0-6.72,4.19-10.5,9.82-10.5s9.82,3.48,9.82,10.38v.84c0,6.75-3.87,10.71-9.94,10.71S157.52,34.92,157.52,28.23Zm13.54-.06V27.3c0-3.89-1.14-5.86-3.72-5.86s-3.72,1.94-3.72,5.86v.9c0,3.95,1.16,5.83,3.78,5.83S171.06,32.09,171.06,28.17Z" fill="#fff"/><path d="M178.85,28.23v-.9c0-6.72,4.19-10.5,9.82-10.5s9.82,3.48,9.82,10.38v.84c0,6.75-3.87,10.71-9.94,10.71S178.85,34.92,178.85,28.23Zm13.54-.06V27.3c0-3.89-1.13-5.86-3.72-5.86S185,23.38,185,27.3v.9c0,3.95,1.16,5.83,3.78,5.83S192.39,32.09,192.39,28.17Z" fill="#fff"/><path d="M22.29,65.15V58.22H20.42V54.59h1.87V51.35h5.33v3.24h3.06v3.63H27.62v6.43c0,1.13.56,1.63,1.57,1.63A4.21,4.21,0,0,0,30.71,66v4a11,11,0,0,1-2.94.45C24.25,70.51,22.29,68.81,22.29,65.15Z" fill="#fff"/><path d="M31.87,62.56v-.23c0-5,3.72-8.16,8.54-8.16s8.48,3.07,8.48,8v.24c0,5-3.72,8.09-8.51,8.09S31.87,67.59,31.87,62.56Zm11.6-.09v-.23c0-2.62-1-4.08-3.06-4.08s-3.09,1.4-3.09,4v.24c0,2.67,1,4.13,3.09,4.13S43.47,65.06,43.47,62.47Z" fill="#fff"/><path d="M50,62.53V62.3c0-5.3,2.91-8.13,6.6-8.13a5,5,0,0,1,4.79,2.62v-9h5.33v22.4H61.38V67.62a5.24,5.24,0,0,1-4.85,2.89C52.93,70.51,50,67.92,50,62.53Zm11.54-.09v-.23c0-2.62-1.1-4-3.06-4s-3.07,1.34-3.07,4.05v.23c0,2.62,1.16,4,3,4S61.53,65.09,61.53,62.44Z" fill="#fff"/><path d="M68.52,65.84c0-3.66,3.1-5.09,8.27-5.09h1.49v-.36c0-1.49-.36-2.47-2-2.47a1.91,1.91,0,0,0-2.11,1.85h-5c.23-3.75,3.18-5.6,7.44-5.6s7,1.76,7,5.89V70.15H78.4V68.34a5.1,5.1,0,0,1-4.61,2.17C71,70.51,68.52,69.14,68.52,65.84Zm9.76-1.13v-1h-1.4c-2.14,0-3.09.42-3.09,1.7,0,.89.59,1.46,1.84,1.46C77.15,66.91,78.28,66.05,78.28,64.71Z" fill="#fff"/><path d="M90.51,68.57l-6.22-14h5.77l3.21,8.3,3-8.3h5.09L93,75.36H87.92Z" fill="#fff"/><path d="M100.21,67.47a3,3,0,0,1,3-3,3,3,0,1,1,0,6A3,3,0,0,1,100.21,67.47Z" fill="#fff"/><path d="M114.75,48.88h6.88l6.81,12v-12h5.33V70.15h-5.9l-7.76-13.36V70.15h-5.36Z" fill="#fff"/><path d="M135.91,62.56v-.23c0-5,3.71-8.16,8.53-8.16s8.48,3.07,8.48,8v.24c0,5-3.71,8.09-8.5,8.09S135.91,67.59,135.91,62.56Zm11.6-.09v-.23c0-2.62-1-4.08-3.07-4.08s-3.09,1.4-3.09,4v.24c0,2.67,1,4.13,3.09,4.13S147.51,65.06,147.51,62.47Z" fill="#fff"/><path d="M160.09,50.36A2.94,2.94,0,1,1,163,53.1,2.78,2.78,0,0,1,160.09,50.36Zm.27,4.23h5.33V70.15h-5.33Z" fill="#fff"/><path d="M168.54,54.59h5.33v2.5A5.48,5.48,0,0,1,179,54.17c3,0,5.09,1.88,5.09,5.86V70.15h-5.32v-9c0-1.76-.69-2.62-2.24-2.62s-2.64.95-2.64,2.94v8.72h-5.33Z" fill="#fff"/><path d="M187.37,65.15V58.22H185.5V54.59h1.87V51.35h5.33v3.24h3.06v3.63H192.7v6.43a1.41,1.41,0,0,0,1.58,1.63,4.19,4.19,0,0,0,1.51-.26v4a11,11,0,0,1-2.94.45C189.34,70.51,187.37,68.81,187.37,65.15Z" fill="#fff"/><path d="M197,62.56v-.23c0-5,3.72-8.16,8.42-8.16,4.26,0,7.92,2.44,7.92,8v1.4H202.34c.15,2,1.34,3.24,3.24,3.24s2.5-.8,2.71-1.85h5c-.48,3.52-3.19,5.51-7.89,5.51C200.52,70.51,197,67.65,197,62.56Zm11.16-2c-.09-1.87-1-2.92-2.74-2.92s-2.71,1-3,2.92Z" fill="#fff"/><path d="M215.13,54.59h5.32v3.09a4.91,4.91,0,0,1,5-3.3v5c-3.24-.09-5,.92-5,3.42v7.38h-5.32Z" fill="#fff"/><path d="M226.43,62.56v-.23c0-5,3.72-8.16,8.42-8.16,4.26,0,7.92,2.44,7.92,8v1.4h-11c.15,2,1.34,3.24,3.24,3.24s2.5-.8,2.71-1.85h5c-.48,3.52-3.19,5.51-7.89,5.51C230,70.51,226.43,67.65,226.43,62.56Zm11.16-2c-.09-1.87-1-2.92-2.74-2.92s-2.7,1-3,2.92Z" fill="#fff"/><path d="M243.72,65.21h4.91c.18,1.13.68,1.76,2.2,1.76,1.31,0,1.9-.51,1.9-1.28s-.74-1.1-2.88-1.4c-4.17-.54-5.92-1.76-5.92-5,0-3.45,3.06-5.12,6.66-5.12,3.84,0,6.52,1.31,6.87,5h-4.82a1.73,1.73,0,0,0-2-1.55c-1.16,0-1.76.51-1.76,1.22s.72,1.05,2.62,1.28c4.32.54,6.4,1.67,6.4,5,0,3.69-2.74,5.36-7.05,5.36S243.84,68.66,243.72,65.21Z" fill="#fff"/><path d="M260.35,65.15V58.22h-1.88V54.59h1.88V51.35h5.32v3.24h3.07v3.63h-3.07v6.43a1.42,1.42,0,0,0,1.58,1.63,4.25,4.25,0,0,0,1.52-.26v4a11.17,11.17,0,0,1-2.95.45C262.31,70.51,260.35,68.81,260.35,65.15Z" fill="#fff"/><path d="M270.55,67.47a3,3,0,0,1,3-3,3,3,0,1,1,0,6A3,3,0,0,1,270.55,67.47Z" fill="#fff"/><path d="M22.05,80.63h6.88l6.81,12v-12h5.33V101.9h-5.9L27.41,88.54V101.9H22.05Z" fill="#fff"/><path d="M43.21,94.31v-.23c0-5,3.71-8.16,8.53-8.16s8.49,3.07,8.49,8v.24c0,5-3.72,8.09-8.52,8.09S43.21,99.34,43.21,94.31Zm11.6-.09V94c0-2.62-1-4.08-3.07-4.08s-3.09,1.4-3.09,4v.24c0,2.67,1,4.13,3.09,4.13S54.81,96.81,54.81,94.22Z" fill="#fff"/><path d="M67.66,79.5H73v22.4h-5.3Z" fill="#fff"/><path d="M75,94.31v-.23c0-5,3.72-8.16,8.54-8.16S92,89,92,93.93v.24c0,5-3.72,8.09-8.51,8.09S75,99.34,75,94.31Zm11.6-.09V94c0-2.62-1-4.08-3.06-4.08s-3.1,1.4-3.1,4v.24c0,2.67,1,4.13,3.1,4.13S86.58,96.81,86.58,94.22Z" fill="#fff"/><path d="M93,97.59c0-3.66,3.09-5.09,8.27-5.09h1.49v-.36c0-1.49-.36-2.47-2.06-2.47a1.91,1.91,0,0,0-2.11,1.85h-5c.24-3.75,3.18-5.6,7.44-5.6s7,1.76,7,5.89V101.9h-5.18v-1.81a5.1,5.1,0,0,1-4.61,2.17C95.45,102.26,93,100.89,93,97.59Zm9.76-1.13v-1h-1.4c-2.15,0-3.1.42-3.1,1.7,0,.89.6,1.46,1.85,1.46C101.6,98.66,102.74,97.8,102.74,96.46Z" fill="#fff"/><path d="M110.62,86.34h5.32v2.5a5.5,5.5,0,0,1,5.12-2.92c3,0,5.09,1.88,5.09,5.86V101.9h-5.33v-9c0-1.76-.68-2.62-2.23-2.62s-2.65,1-2.65,2.94v8.72h-5.32Z" fill="#fff"/><path d="M135,90h-2V86.34h2V85c0-3.87,2.41-5.71,6.1-5.71a9.41,9.41,0,0,1,2.44.33v3.89a4.81,4.81,0,0,0-1.46-.21,1.56,1.56,0,0,0-1.78,1.7v1.37h3.15V90h-3.15V101.9H135Z" fill="#fff"/><path d="M143.82,94.31v-.23c0-5,3.72-8.16,8.42-8.16,4.25,0,7.91,2.44,7.91,8v1.4h-11c.15,2,1.34,3.24,3.25,3.24,1.75,0,2.5-.8,2.7-1.85h5c-.47,3.52-3.18,5.51-7.88,5.51C147.39,102.26,143.82,99.4,143.82,94.31Zm11.16-2c-.09-1.87-1-2.92-2.74-2.92s-2.71,1-3,2.92Z" fill="#fff"/><path d="M161.16,94.31v-.23c0-5,3.72-8.16,8.42-8.16,4.26,0,7.92,2.44,7.92,8v1.4H166.55c.15,2,1.34,3.24,3.24,3.24s2.5-.8,2.71-1.85h5c-.48,3.52-3.19,5.51-7.89,5.51C164.73,102.26,161.16,99.4,161.16,94.31Zm11.16-2c-.09-1.87-1-2.92-2.74-2.92s-2.7,1-3,2.92Z" fill="#fff"/><path d="M178.45,97h4.91c.17,1.13.68,1.76,2.2,1.76,1.31,0,1.9-.51,1.9-1.28s-.74-1.1-2.88-1.4c-4.17-.54-5.93-1.76-5.93-5,0-3.45,3.07-5.12,6.67-5.12,3.84,0,6.52,1.31,6.87,5h-4.82a1.74,1.74,0,0,0-2-1.55c-1.16,0-1.76.51-1.76,1.22s.72,1,2.62,1.28c4.32.54,6.4,1.67,6.4,5,0,3.69-2.74,5.36-7,5.36S178.57,100.41,178.45,97Z" fill="#fff"/><path d="M194.15,99.22a3,3,0,0,1,3-3,3,3,0,1,1,0,6A3,3,0,0,1,194.15,99.22Z" fill="#fff"/><path d="M20.68,126.9h5.81c.15,1.52.83,2.76,3.36,2.76,1.75,0,2.74-.86,2.74-2.11s-.81-1.66-3.37-2c-6-.72-8-2.5-8-6.79,0-3.83,3.15-6.63,8.24-6.63s8,2.14,8.39,6.63H32.17a2.42,2.42,0,0,0-2.74-2.29c-1.63,0-2.47.75-2.47,1.82s.66,1.72,3.31,2.08c5.38.6,8.15,2,8.15,6.61,0,3.9-3.1,7.08-8.57,7.08C23.9,134,20.86,131.51,20.68,126.9Z" fill="#fff"/><path d="M41.09,128.65v-6.93H39.22v-3.63h1.87v-3.24h5.33v3.24h3.06v3.63H46.42v6.43A1.41,1.41,0,0,0,48,129.78a4.19,4.19,0,0,0,1.51-.26v4a11,11,0,0,1-2.94.45C43.06,134,41.09,132.31,41.09,128.65Z" fill="#fff"/><path d="M50.67,129.34c0-3.66,3.1-5.09,8.27-5.09h1.49v-.36c0-1.49-.36-2.47-2-2.47a1.91,1.91,0,0,0-2.11,1.85h-5c.23-3.75,3.18-5.6,7.44-5.6s7,1.76,7,5.89v10.09H60.55v-1.81A5.1,5.1,0,0,1,55.94,134C53.14,134,50.67,132.64,50.67,129.34Zm9.76-1.13v-1H59c-2.14,0-3.09.42-3.09,1.7,0,.89.59,1.46,1.84,1.46C59.3,130.41,60.43,129.54,60.43,128.21Z" fill="#fff"/><path d="M68.31,118.09h5.33v3.09a4.9,4.9,0,0,1,5-3.3v5c-3.25-.09-5,.92-5,3.42v7.38H68.31Z" fill="#fff"/><path d="M81.55,128.65v-6.93H79.68v-3.63h1.87v-3.24h5.33v3.24h3.06v3.63H86.88v6.43a1.41,1.41,0,0,0,1.58,1.63,4.19,4.19,0,0,0,1.51-.26v4A11,11,0,0,1,87,134C83.52,134,81.55,132.31,81.55,128.65Z" fill="#fff"/><path d="M91.84,113.86a2.94,2.94,0,1,1,2.92,2.74A2.78,2.78,0,0,1,91.84,113.86Zm.27,4.23h5.33v15.56H92.11Z" fill="#fff"/><path d="M100.29,118.09h5.33v2.5a5.49,5.49,0,0,1,5.12-2.92c3,0,5.09,1.88,5.09,5.86v10.12H110.5v-9c0-1.76-.68-2.62-2.23-2.62s-2.65,1-2.65,2.94v8.72h-5.33Z" fill="#fff"/><path d="M117.55,133.65h5.29c.24,1.13.93,2,2.86,2,2.35,0,3.3-1.33,3.3-3.27V130a5.45,5.45,0,0,1-4.82,2.86c-3.63,0-6.6-2.68-6.6-7.47v-.24c0-4.58,2.94-7.5,6.6-7.5a5.05,5.05,0,0,1,4.82,2.62v-2.2h5.33v14.25c0,4.64-3.06,7.08-8.63,7.08C120.4,139.42,118,137.19,117.55,133.65Zm11.6-8.27v-.21c0-2.14-1.1-3.51-3.06-3.51s-3.07,1.4-3.07,3.54v.24c0,2.14,1.13,3.51,3,3.51S129.15,127.58,129.15,125.38Z" fill="#fff"/><path d="M141.85,133.21v-4.56a7.18,7.18,0,0,0,2.59.42c1.67,0,2.77-.74,2.77-2.95V112.38h6.13v13.8c0,5.12-2.62,7.74-7.62,7.74A8.32,8.32,0,0,1,141.85,133.21Z" fill="#fff"/><path d="M155,129.34c0-3.66,3.1-5.09,8.27-5.09h1.49v-.36c0-1.49-.35-2.47-2-2.47a1.91,1.91,0,0,0-2.11,1.85h-5c.24-3.75,3.18-5.6,7.44-5.6s7,1.76,7,5.89v10.09h-5.18v-1.81A5.1,5.1,0,0,1,160.3,134C157.5,134,155,132.64,155,129.34Zm9.76-1.13v-1h-1.4c-2.14,0-3.09.42-3.09,1.7,0,.89.59,1.46,1.84,1.46C163.66,130.41,164.79,129.54,164.79,128.21Z" fill="#fff"/><path d="M172.67,118.09H178v2.5a5.49,5.49,0,0,1,5.12-2.92c3,0,5.09,1.88,5.09,5.86v10.12h-5.33v-9c0-1.76-.68-2.62-2.23-2.62s-2.65,1-2.65,2.94v8.72h-5.33Z" fill="#fff"/><path d="M205.52,129.58H195.17v-2.3l8.86-14.9h7.35v13h2.74v4.2h-2.74v4.07h-5.86Zm.15-4.2V117l-4.76,8.42Z" fill="#fff"/><path d="M215.42,131a3,3,0,0,1,3-3,3,3,0,1,1,0,6A3,3,0,0,1,215.42,131Z" fill="#fff"/></g></g><g id="Legal"><g id="Optional_loan_from_Axos_Bank_within_minutes_of_filing._Not_your" data-name="Optional loan from Axos Bank within minutes of filing. Not your"><path d="M20.5,153.78v-.07a3.16,3.16,0,1,1,6.31,0v.07a3.16,3.16,0,1,1-6.31,0Zm5.5,0v-.07a2.36,2.36,0,1,0-4.69,0v.07a2.42,2.42,0,0,0,2.37,2.62A2.35,2.35,0,0,0,26,153.75Z" fill="#fff"/><path d="M27.92,152.25h.75V153a1.93,1.93,0,0,1,1.59-.87,2.14,2.14,0,0,1,2.14,2.37v.07A2.17,2.17,0,0,1,30.26,157a1.78,1.78,0,0,1-1.59-.86v2.42h-.75Zm3.71,2.39v-.07c0-1.19-.66-1.78-1.45-1.78s-1.54.58-1.54,1.78v.07c0,1.21.63,1.78,1.55,1.78S31.63,155.79,31.63,154.64Z" fill="#fff"/><path d="M33.59,155.78v-2.9h-.67v-.63h.67v-1.07h.75v1.07h1.1v.63h-1.1v2.83c0,.46.2.68.58.68a1.59,1.59,0,0,0,.58-.1v.63a1.85,1.85,0,0,1-.64.1A1.14,1.14,0,0,1,33.59,155.78Z" fill="#fff"/><path d="M36.37,150.77a.5.5,0,0,1,.5-.49.49.49,0,0,1,.49.49.5.5,0,0,1-.49.5A.51.51,0,0,1,36.37,150.77Zm.14,1.48h.74V157h-.74Z" fill="#fff"/><path d="M38.3,154.64v-.07a2.31,2.31,0,1,1,4.62,0v.07a2.31,2.31,0,1,1-4.62,0Zm3.85,0v-.06c0-1.09-.6-1.79-1.54-1.79a1.56,1.56,0,0,0-1.54,1.78v.07c0,1.07.59,1.78,1.54,1.78S42.15,155.71,42.15,154.64Z" fill="#fff"/><path d="M44,152.25h.75V153a1.59,1.59,0,0,1,1.51-.83c1,0,1.66.53,1.66,1.9V157h-.75v-3c0-.83-.35-1.19-1.11-1.19a1.23,1.23,0,0,0-1.31,1.28V157H44Z" fill="#fff"/><path d="M48.81,155.65c0-1.09,1.15-1.46,2.36-1.46h.67v-.34c0-.75-.29-1.06-1-1.06s-1,.27-1.08.84H49a1.64,1.64,0,0,1,1.86-1.46,1.52,1.52,0,0,1,1.72,1.68V157h-.75v-.6a1.69,1.69,0,0,1-1.46.68C49.5,157,48.81,156.62,48.81,155.65Zm3-.34v-.59h-.65c-.94,0-1.63.24-1.63.93,0,.49.23.79.89.79S51.84,156,51.84,155.31Z" fill="#fff"/><path d="M53.94,150h.75v7h-.75Z" fill="#fff"/><path d="M58.36,150h.75v7h-.75Z" fill="#fff"/><path d="M60.16,154.64v-.07a2.32,2.32,0,1,1,4.63,0v.07a2.32,2.32,0,1,1-4.63,0Zm3.85,0v-.06c0-1.09-.6-1.79-1.54-1.79a1.56,1.56,0,0,0-1.54,1.78v.07c0,1.07.59,1.78,1.54,1.78S64,155.71,64,154.64Z" fill="#fff"/><path d="M65.42,155.65c0-1.09,1.15-1.46,2.36-1.46h.68v-.34c0-.75-.29-1.06-1-1.06s-1,.27-1.08.84h-.75a1.64,1.64,0,0,1,1.86-1.46,1.52,1.52,0,0,1,1.72,1.68V157h-.74v-.6A1.71,1.71,0,0,1,67,157C66.12,157,65.42,156.62,65.42,155.65Zm3-.34v-.59h-.65c-1,0-1.64.24-1.64.93,0,.49.23.79.89.79S68.46,156,68.46,155.31Z" fill="#fff"/><path d="M70.53,152.25h.75V153a1.61,1.61,0,0,1,1.51-.83c1,0,1.66.53,1.66,1.9V157H73.7v-3c0-.83-.35-1.19-1.1-1.19a1.24,1.24,0,0,0-1.32,1.28V157h-.75Z" fill="#fff"/><path d="M78.19,152.88h-.67v-.63h.67v-.77c0-.95.47-1.51,1.41-1.51a1.6,1.6,0,0,1,.56.09v.63a1.62,1.62,0,0,0-.54-.1c-.48,0-.68.33-.68.81v.85h1.15v.63H78.94V157h-.75Z" fill="#fff"/><path d="M81,152.25h.75v.84a1.62,1.62,0,0,1,1.55-.92v.7c-1,0-1.55.34-1.55,1.5V157H81Z" fill="#fff"/><path d="M83.77,154.64v-.07a2.32,2.32,0,1,1,4.63,0v.07a2.32,2.32,0,1,1-4.63,0Zm3.86,0v-.06c0-1.09-.61-1.79-1.54-1.79s-1.54.7-1.54,1.78v.07c0,1.07.58,1.78,1.54,1.78A1.57,1.57,0,0,0,87.63,154.64Z" fill="#fff"/><path d="M89.43,152.25h.74V153a1.54,1.54,0,0,1,1.41-.8,1.36,1.36,0,0,1,1.37.88,1.84,1.84,0,0,1,1.62-.88c.84,0,1.58.5,1.58,1.87V157H95.4v-3c0-.83-.35-1.17-1-1.17a1.2,1.2,0,0,0-1.24,1.26V157h-.75v-3c0-.83-.35-1.17-1-1.17a1.2,1.2,0,0,0-1.25,1.26V157h-.74Z" fill="#fff"/><path d="M101.51,150.52h1l2.18,6.44h-.78l-.63-1.86h-2.65L100,157H99.3Zm-.64,4h2.24L102,151.17Z" fill="#fff"/><path d="M106.84,154.54l-1.57-2.29h.87l1.15,1.71,1.14-1.71h.81l-1.55,2.23,1.72,2.48h-.89l-1.27-1.9L106,157h-.8Z" fill="#fff"/><path d="M109.7,154.64v-.07a2.32,2.32,0,1,1,4.63,0v.07a2.32,2.32,0,1,1-4.63,0Zm3.86,0v-.06c0-1.09-.61-1.79-1.54-1.79s-1.54.7-1.54,1.78v.07c0,1.07.58,1.78,1.54,1.78A1.57,1.57,0,0,0,113.56,154.64Z" fill="#fff"/><path d="M115,155.51h.73c0,.56.35.91,1.1.91s1-.25,1-.75-.37-.66-1.1-.79c-1.22-.23-1.64-.57-1.64-1.39a1.47,1.47,0,0,1,1.6-1.32,1.51,1.51,0,0,1,1.7,1.36h-.72c-.11-.52-.4-.74-1-.74s-.89.27-.89.67.23.6,1.09.75,1.66.4,1.66,1.4c0,.85-.58,1.43-1.73,1.43S115,156.47,115,155.51Z" fill="#fff"/><path d="M121.84,150.52h1.94c1.2,0,2.07.4,2.07,1.67v0a1.31,1.31,0,0,1-1,1.36,1.41,1.41,0,0,1,1.28,1.54v0c0,1.21-.82,1.8-2.11,1.8h-2.21Zm1.94,2.81c.94,0,1.3-.34,1.3-1.14v0c0-.73-.42-1-1.32-1h-1.15v2.2Zm.25,3c.94,0,1.37-.41,1.37-1.19v0c0-.79-.44-1.17-1.48-1.17h-1.31v2.4Z" fill="#fff"/><path d="M126.86,155.65c0-1.09,1.16-1.46,2.36-1.46h.68v-.34c0-.75-.29-1.06-1-1.06s-1,.27-1.08.84h-.75a1.65,1.65,0,0,1,1.87-1.46,1.52,1.52,0,0,1,1.72,1.68V157h-.75v-.6a1.71,1.71,0,0,1-1.47.68C127.56,157,126.86,156.62,126.86,155.65Zm3-.34v-.59h-.65c-.94,0-1.64.24-1.64.93,0,.49.24.79.89.79C129.3,156.44,129.9,156,129.9,155.31Z" fill="#fff"/><path d="M132,152.25h.74V153a1.61,1.61,0,0,1,1.52-.83c1,0,1.65.53,1.65,1.9V157h-.74v-3c0-.83-.36-1.19-1.11-1.19a1.24,1.24,0,0,0-1.32,1.28V157H132Z" fill="#fff"/><path d="M137.22,150H138v4.42l1.95-2.17h.88l-2,2.19L141,157h-.91L138,154.52V157h-.75Z" fill="#fff"/><path d="M143.48,152.25h.81l1.1,3.79,1.14-3.79h.65l1.07,3.79,1.11-3.79h.76L148.66,157h-.83l-1-3.53-1.1,3.53h-.82Z" fill="#fff"/><path d="M150.88,150.77a.49.49,0,0,1,.49-.49.5.5,0,0,1,.5.49.51.51,0,0,1-.5.5A.5.5,0,0,1,150.88,150.77Zm.13,1.48h.75V157H151Z" fill="#fff"/><path d="M153.32,155.78v-2.9h-.68v-.63h.68v-1.07h.74v1.07h1.1v.63h-1.1v2.83c0,.46.21.68.59.68a1.57,1.57,0,0,0,.57-.1v.63a1.85,1.85,0,0,1-.64.1A1.14,1.14,0,0,1,153.32,155.78Z" fill="#fff"/><path d="M156.21,150H157v3a1.61,1.61,0,0,1,1.51-.83c1,0,1.66.53,1.66,1.9V157h-.75v-3c0-.83-.35-1.19-1.1-1.19A1.24,1.24,0,0,0,157,154.1V157h-.75Z" fill="#fff"/><path d="M161.34,150.77a.5.5,0,0,1,.5-.49.49.49,0,0,1,.49.49.5.5,0,0,1-.49.5A.51.51,0,0,1,161.34,150.77Zm.14,1.48h.75V157h-.75Z" fill="#fff"/><path d="M163.62,152.25h.75V153a1.6,1.6,0,0,1,1.51-.83c1,0,1.66.53,1.66,1.9V157h-.75v-3c0-.83-.35-1.19-1.11-1.19a1.23,1.23,0,0,0-1.31,1.28V157h-.75Z" fill="#fff"/><path d="M171.12,152.25h.74V153a1.54,1.54,0,0,1,1.41-.8,1.38,1.38,0,0,1,1.38.88,1.81,1.81,0,0,1,1.61-.88c.84,0,1.58.5,1.58,1.87V157h-.75v-3c0-.83-.35-1.17-1-1.17a1.2,1.2,0,0,0-1.25,1.26V157h-.74v-3c0-.83-.36-1.17-1-1.17a1.21,1.21,0,0,0-1.25,1.26V157h-.74Z" fill="#fff"/><path d="M179.05,150.77a.5.5,0,0,1,.5-.49.49.49,0,0,1,.49.49.5.5,0,0,1-.49.5A.51.51,0,0,1,179.05,150.77Zm.14,1.48h.75V157h-.75Z" fill="#fff"/><path d="M181.33,152.25h.75V153a1.6,1.6,0,0,1,1.51-.83c1,0,1.66.53,1.66,1.9V157h-.75v-3c0-.83-.35-1.19-1.11-1.19a1.23,1.23,0,0,0-1.31,1.28V157h-.75Z" fill="#fff"/><path d="M186.53,155.23v-3h.75v2.94c0,.83.35,1.2,1.09,1.2a1.24,1.24,0,0,0,1.3-1.29v-2.85h.74V157h-.74v-.75a1.62,1.62,0,0,1-1.5.83C187.24,157,186.53,156.52,186.53,155.23Z" fill="#fff"/><path d="M192,155.78v-2.9h-.67v-.63H192v-1.07h.75v1.07h1.1v.63h-1.1v2.83c0,.46.21.68.58.68a1.59,1.59,0,0,0,.58-.1v.63a1.85,1.85,0,0,1-.64.1A1.14,1.14,0,0,1,192,155.78Z" fill="#fff"/><path d="M194.5,154.65v-.07a2.21,2.21,0,0,1,2.2-2.41,2.06,2.06,0,0,1,2.12,2.34v.24h-3.55c0,1.07.55,1.67,1.52,1.67.72,0,1.15-.27,1.25-.82h.74a1.81,1.81,0,0,1-2,1.44A2.21,2.21,0,0,1,194.5,154.65Zm3.55-.5c-.07-1-.57-1.36-1.35-1.36a1.41,1.41,0,0,0-1.4,1.36Z" fill="#fff"/><path d="M199.48,155.51h.73c.06.56.35.91,1.11.91s1-.25,1-.75-.37-.66-1.1-.79c-1.23-.23-1.64-.57-1.64-1.39a1.47,1.47,0,0,1,1.59-1.32,1.51,1.51,0,0,1,1.71,1.36h-.72c-.11-.52-.4-.74-1-.74s-.9.27-.9.67.24.6,1.1.75,1.66.4,1.66,1.4c0,.85-.59,1.43-1.73,1.43S199.53,156.47,199.48,155.51Z" fill="#fff"/><path d="M206,154.64v-.07a2.31,2.31,0,1,1,4.62,0v.07a2.31,2.31,0,1,1-4.62,0Zm3.85,0v-.06c0-1.09-.6-1.79-1.54-1.79s-1.54.7-1.54,1.78v.07c0,1.07.59,1.78,1.54,1.78A1.57,1.57,0,0,0,209.81,154.64Z" fill="#fff"/><path d="M211.77,152.88h-.68v-.63h.68v-.77c0-.95.47-1.51,1.4-1.51a1.57,1.57,0,0,1,.56.09v.63a1.51,1.51,0,0,0-.53-.1c-.49,0-.68.33-.68.81v.85h1.15v.63h-1.15V157h-.75Z" fill="#fff"/><path d="M217,152.88h-.68v-.63H217v-.77c0-.95.47-1.51,1.4-1.51a1.57,1.57,0,0,1,.56.09v.63a1.51,1.51,0,0,0-.53-.1c-.49,0-.68.33-.68.81v.85h1.15v.63h-1.15V157H217Z" fill="#fff"/><path d="M219.7,150.77a.49.49,0,0,1,.49-.49.5.5,0,0,1,.5.49.51.51,0,0,1-.5.5A.5.5,0,0,1,219.7,150.77Zm.13,1.48h.75V157h-.75Z" fill="#fff"/><path d="M222,150h.76v7H222Z" fill="#fff"/><path d="M224,150.77a.49.49,0,0,1,.49-.49.5.5,0,0,1,.5.49.51.51,0,0,1-.5.5A.5.5,0,0,1,224,150.77Zm.13,1.48h.75V157h-.75Z" fill="#fff"/><path d="M226.3,152.25h.75V153a1.61,1.61,0,0,1,1.51-.83c1,0,1.66.53,1.66,1.9V157h-.75v-3c0-.83-.35-1.19-1.1-1.19a1.24,1.24,0,0,0-1.32,1.28V157h-.75Z" fill="#fff"/><path d="M231.3,157.23h.76c.11.54.56.82,1.36.82a1.33,1.33,0,0,0,1.52-1.45v-.69a2,2,0,0,1-1.6.89,2.12,2.12,0,0,1-2.14-2.23v-.06a2.23,2.23,0,0,1,2.2-2.34,1.7,1.7,0,0,1,1.54.83v-.75h.74v4.39a2,2,0,0,1-2.25,2C232,158.68,231.42,158,231.3,157.23Zm3.66-2.71v-.07a1.45,1.45,0,0,0-1.49-1.66,1.5,1.5,0,0,0-1.5,1.68v.07a1.49,1.49,0,0,0,1.45,1.64A1.51,1.51,0,0,0,235,154.52Z" fill="#fff"/><path d="M237,156.43a.58.58,0,1,1,.57.57A.57.57,0,0,1,237,156.43Z" fill="#fff"/><path d="M20.81,159.52h1L25,164.84v-5.32h.75V166h-.9l-3.25-5.52V166h-.75Z" fill="#fff"/><path d="M26.79,163.64v-.07a2.31,2.31,0,1,1,4.62,0v.07a2.31,2.31,0,1,1-4.62,0Zm3.85,0v-.06c0-1.09-.6-1.79-1.54-1.79s-1.54.7-1.54,1.78v.07c0,1.07.59,1.78,1.54,1.78A1.57,1.57,0,0,0,30.64,163.64Z" fill="#fff"/><path d="M32.6,164.78v-2.9h-.68v-.63h.68v-1.07h.75v1.07h1.1v.63h-1.1v2.83c0,.46.2.68.58.68a1.59,1.59,0,0,0,.58-.1v.63a1.85,1.85,0,0,1-.64.1A1.14,1.14,0,0,1,32.6,164.78Z" fill="#fff"/><path d="M39.06,165.47l-1.84-4.22H38l1.44,3.37,1.3-3.37h.77l-2.6,6.35h-.76Z" fill="#fff"/><path d="M41.89,163.64v-.07a2.32,2.32,0,1,1,4.63,0v.07a2.32,2.32,0,1,1-4.63,0Zm3.85,0v-.06c0-1.09-.6-1.79-1.54-1.79a1.56,1.56,0,0,0-1.54,1.78v.07c0,1.07.59,1.78,1.54,1.78S45.74,164.71,45.74,163.64Z" fill="#fff"/><path d="M47.5,164.23v-3h.74v2.94c0,.83.35,1.2,1.09,1.2a1.24,1.24,0,0,0,1.3-1.29v-2.85h.75V166h-.75v-.75a1.62,1.62,0,0,1-1.5.83C48.2,166,47.5,165.52,47.5,164.23Z" fill="#fff"/><path d="M52.75,161.25h.75v.84a1.62,1.62,0,0,1,1.55-.92v.7c-.95,0-1.55.34-1.55,1.5V166h-.75Z" fill="#fff"/><path d="M58.41,164.78v-2.9h-.67v-.63h.67v-1.07h.75v1.07h1.1v.63h-1.1v2.83c0,.46.21.68.58.68a1.59,1.59,0,0,0,.58-.1v.63a1.85,1.85,0,0,1-.64.1A1.14,1.14,0,0,1,58.41,164.78Z" fill="#fff"/><path d="M61,164.65c0-1.09,1.15-1.46,2.36-1.46H64v-.34c0-.75-.29-1.06-1-1.06s-1,.27-1.08.84h-.74A1.64,1.64,0,0,1,63,161.17a1.52,1.52,0,0,1,1.72,1.68V166H64v-.6a1.7,1.7,0,0,1-1.47.68C61.66,166,61,165.62,61,164.65Zm3-.34v-.59h-.65c-.94,0-1.64.24-1.64.93,0,.49.24.79.9.79S64,165,64,164.31Z" fill="#fff"/><path d="M67.26,163.54l-1.58-2.29h.88L67.71,163l1.14-1.71h.81l-1.56,2.23L69.82,166h-.88l-1.27-1.9L66.38,166h-.8Z" fill="#fff"/><path d="M73,161.25h.74v.84a1.64,1.64,0,0,1,1.55-.92v.7c-.94,0-1.55.34-1.55,1.5V166H73Z" fill="#fff"/><path d="M75.71,163.65v-.07a2.22,2.22,0,0,1,2.21-2.41A2.06,2.06,0,0,1,80,163.51v.24H76.48c0,1.07.55,1.67,1.52,1.67.73,0,1.15-.27,1.25-.82H80A1.81,1.81,0,0,1,78,166,2.21,2.21,0,0,1,75.71,163.65Zm3.56-.5c-.08-1-.58-1.36-1.35-1.36a1.41,1.41,0,0,0-1.41,1.36Z" fill="#fff"/><path d="M81.2,161.88h-.68v-.63h.68v-.77c0-.95.47-1.51,1.4-1.51a1.57,1.57,0,0,1,.56.09v.63a1.51,1.51,0,0,0-.53-.1c-.49,0-.68.33-.68.81v.85H83.1v.63H82V166H81.2Z" fill="#fff"/><path d="M84,164.23v-3h.75v2.94c0,.83.35,1.2,1.09,1.2a1.24,1.24,0,0,0,1.29-1.29v-2.85h.75V166H87.1v-.75a1.59,1.59,0,0,1-1.49.83C84.67,166,84,165.52,84,164.23Z" fill="#fff"/><path d="M89.23,161.25H90V162a1.61,1.61,0,0,1,1.52-.83c1,0,1.65.53,1.65,1.9V166H92.4v-3c0-.83-.36-1.19-1.11-1.19A1.24,1.24,0,0,0,90,163.1V166h-.74Z" fill="#fff"/><path d="M94.12,163.7v-.08a2.23,2.23,0,0,1,2.2-2.45,1.7,1.7,0,0,1,1.54.83v-3h.75v7h-.75v-.81a2,2,0,0,1-1.61.89A2.1,2.1,0,0,1,94.12,163.7Zm3.77-.07v-.07c0-1.2-.58-1.77-1.5-1.77s-1.49.66-1.49,1.8v.07c0,1.19.64,1.76,1.43,1.76S97.89,164.84,97.89,163.63Z" fill="#fff"/><path d="M99.92,165.43a.58.58,0,1,1,.58.57A.57.57,0,0,1,99.92,165.43Z" fill="#fff"/></g></g></g></svg>