<svg xmlns="http://www.w3.org/2000/svg" viewBox="0 0 153 35"><title>Find an office_lrg</title><g id="Layer_2" data-name="Layer 2"><g id="Rectangle_1" data-name="Rectangle 1" style="isolation:isolate"><g id="Rectangle_1-2" data-name="Rectangle 1"><rect width="153" height="35" fill="none"/></g></g><g id="Find_an_office" data-name="Find an office"><path d="M28.6,12.26h7.12v2H31.11v2.94h3.65v1.89H31.11v4.3H28.6Z" fill="#262626"/><path d="M36.7,12.91A1.28,1.28,0,1,1,38,14.14,1.23,1.23,0,0,1,36.7,12.91Zm.17,2.33H39.1v8.12H36.87Z" fill="#262626"/><path d="M40.93,15.24h2.25v1.29a2.81,2.81,0,0,1,2.64-1.47c1.6,0,2.73,1,2.73,3.13v5.17H46.3V18.52c0-1.11-.43-1.63-1.42-1.63a1.61,1.61,0,0,0-1.7,1.78v4.69H40.93Z" fill="#262626"/><path d="M49.77,19.42v-.13c0-2.67,1.53-4.23,3.56-4.23a2.71,2.71,0,0,1,2.57,1.39V11.56h2.23v11.8H55.9V22a3,3,0,0,1-2.61,1.52C51.32,23.53,49.77,22.12,49.77,19.42ZM56,19.34v-.13c0-1.61-.72-2.43-1.94-2.43s-2,.85-2,2.47v.12c0,1.61.78,2.41,1.9,2.41S56,21,56,19.34Z" fill="#262626"/><path d="M62.59,21.11c0-1.9,1.73-2.61,4.22-2.61h.91v-.33c0-1-.29-1.49-1.32-1.49A1.23,1.23,0,0,0,65,17.83H62.9c.14-1.92,1.66-2.77,3.64-2.77s3.4.8,3.4,3v5.29H67.75v-1a2.76,2.76,0,0,1-2.45,1.15C63.83,23.53,62.59,22.81,62.59,21.11Zm5.13-.59v-.68h-.87c-1.3,0-2.06.27-2.06,1.14,0,.59.36,1,1.18,1C67,22,67.72,21.42,67.72,20.52Z" fill="#262626"/><path d="M71.63,15.24h2.25v1.29a2.81,2.81,0,0,1,2.64-1.47c1.6,0,2.73,1,2.73,3.13v5.17H77V18.52c0-1.11-.43-1.63-1.42-1.63a1.61,1.61,0,0,0-1.7,1.78v4.69H71.63Z" fill="#262626"/><path d="M83.66,19.38v-.12A4.07,4.07,0,0,1,88,15.06a4,4,0,0,1,4.26,4.15v.13a4.28,4.28,0,0,1-8.55,0Zm6.27,0v-.1c0-1.56-.73-2.49-2-2.49s-2,.9-2,2.45v.13c0,1.55.71,2.48,2,2.48S89.93,20.89,89.93,19.35Z" fill="#262626"/><path d="M93.86,16.84H92.79v-1.6h1.07V14.4a2.6,2.6,0,0,1,2.89-2.84,3.87,3.87,0,0,1,1.15.17v1.68a3,3,0,0,0-.81-.12c-.7,0-1,.43-1,1.07v.88h2.65v-.93a2.59,2.59,0,0,1,2.9-2.84,3.61,3.61,0,0,1,1.16.16v1.69a2.33,2.33,0,0,0-.82-.14.94.94,0,0,0-1,1.07v1h1.77v1.6H101v6.52H98.75V16.84H96.1v6.52H93.86Z" fill="#262626"/><path d="M103.79,12.91a1.29,1.29,0,1,1,1.28,1.23A1.23,1.23,0,0,1,103.79,12.91Zm.18,2.33h2.23v8.12H104Z" fill="#262626"/><path d="M107.53,19.4v-.12a4,4,0,0,1,4.19-4.22c1.88,0,3.62.82,3.82,3.15h-2.12a1.5,1.5,0,0,0-1.65-1.39c-1.16,0-1.94.87-1.94,2.43v.12c0,1.63.73,2.47,2,2.47a1.65,1.65,0,0,0,1.74-1.57h2c-.13,1.92-1.52,3.26-3.88,3.26A3.9,3.9,0,0,1,107.53,19.4Z" fill="#262626"/><path d="M116.27,19.4v-.12a4,4,0,0,1,4.18-4.22c2.09,0,4,1.22,4,4.12v.62h-5.85a2,2,0,0,0,2,2.13c1,0,1.55-.45,1.69-1.13h2.13c-.26,1.75-1.66,2.73-3.88,2.73A3.94,3.94,0,0,1,116.27,19.4Zm6-1c-.08-1.22-.7-1.81-1.77-1.81a1.87,1.87,0,0,0-1.87,1.81Z" fill="#262626"/></g></g></svg>