<svg xmlns="http://www.w3.org/2000/svg" viewBox="0 0 300 600"><title>Asset 3</title><g id="Layer_2" data-name="Layer 2"><g id="rect"><rect width="300" height="600" fill="none"/></g><g id="Still_open._Still_maximizing_refunds." data-name="Still open.  Still maximizing refunds."><path d="M21.2,192.88h6.27c.16,1.64.91,3,3.64,3,1.9,0,3-.93,3-2.28s-.87-1.81-3.63-2.22c-6.51-.78-8.7-2.71-8.7-7.34,0-4.16,3.42-7.18,8.92-7.18s8.66,2.31,9.08,7.18H33.62a2.61,2.61,0,0,0-3-2.48c-1.77,0-2.67.8-2.67,2s.71,1.87,3.57,2.25c5.83.65,8.82,2.16,8.82,7.15,0,4.22-3.34,7.66-9.27,7.66C24.67,200.57,21.39,197.87,21.2,192.88Z" fill="#fff"/><path d="M43.28,194.78v-7.5h-2v-3.93h2v-3.51H49v3.51h3.32v3.93H49v6.95A1.54,1.54,0,0,0,50.75,196a4.21,4.21,0,0,0,1.64-.29v4.38a12.19,12.19,0,0,1-3.18.48C45.41,200.57,43.28,198.74,43.28,194.78Z" fill="#fff"/><path d="M54.42,178.78a3.18,3.18,0,1,1,3.16,3A3,3,0,0,1,54.42,178.78Zm.29,4.57h5.76v16.84H54.71Z" fill="#fff"/><path d="M63.73,175.94h5.73v24.25H63.73Z" fill="#fff"/><path d="M72.71,175.94h5.73v24.25H72.71Z" fill="#fff"/><path d="M86.49,192v-.26c0-5.41,4-8.82,9.24-8.82s9.17,3.31,9.17,8.66v.26c0,5.47-4,8.75-9.2,8.75S86.49,197.42,86.49,192Zm12.55-.1v-.26c0-2.83-1.12-4.41-3.31-4.41s-3.35,1.52-3.35,4.35v.26c0,2.89,1.13,4.47,3.35,4.47S99,194.68,99,191.88Z" fill="#fff"/><path d="M106.93,183.35h5.77v2.51a5.92,5.92,0,0,1,5.24-3c3.93,0,7.12,3,7.12,8.72v.26c0,5.8-3.19,8.69-7.15,8.69a5.54,5.54,0,0,1-5.21-2.86v8.11h-5.77Zm12.27,8.53v-.26c0-3-1.29-4.37-3.32-4.37s-3.34,1.51-3.34,4.34v.26c0,2.86,1.25,4.31,3.34,4.31S119.2,194.65,119.2,191.88Z" fill="#fff"/><path d="M126.25,192v-.26c0-5.41,4-8.82,9.11-8.82,4.61,0,8.57,2.64,8.57,8.69v1.51H132.08c.16,2.23,1.45,3.51,3.51,3.51,1.9,0,2.7-.86,2.93-2h5.41c-.52,3.8-3.45,5.95-8.53,5.95C130.11,200.57,126.25,197.48,126.25,192Zm12.07-2.13c-.09-2-1.09-3.15-3-3.15s-2.93,1.12-3.22,3.15Z" fill="#fff"/><path d="M145.92,183.35h5.77v2.7a5.94,5.94,0,0,1,5.53-3.15c3.26,0,5.51,2,5.51,6.34v10.95H157V190.4c0-1.9-.74-2.83-2.42-2.83s-2.86,1-2.86,3.18v9.44h-5.77Z" fill="#fff"/><path d="M165.31,197.29a3.21,3.21,0,0,1,3.28-3.25,3.25,3.25,0,1,1,0,6.5A3.21,3.21,0,0,1,165.31,197.29Z" fill="#fff"/><path d="M21.2,244.23h6.27c.16,1.64.91,3,3.64,3,1.9,0,3-.93,3-2.29s-.87-1.8-3.63-2.22c-6.51-.77-8.7-2.7-8.7-7.34,0-4.15,3.42-7.18,8.92-7.18s8.66,2.32,9.08,7.18H33.62a2.61,2.61,0,0,0-3-2.48c-1.77,0-2.67.81-2.67,2s.71,1.86,3.57,2.25c5.83.64,8.82,2.16,8.82,7.15,0,4.22-3.34,7.66-9.27,7.66C24.67,251.92,21.39,249.22,21.2,244.23Z" fill="#fff"/><path d="M43.28,246.13v-7.51h-2V234.7h2v-3.51H49v3.51h3.32v3.92H49v7a1.54,1.54,0,0,0,1.71,1.77,4.4,4.4,0,0,0,1.64-.29v4.38a12.19,12.19,0,0,1-3.18.48C45.41,251.92,43.28,250.09,43.28,246.13Z" fill="#fff"/><path d="M54.42,230.12a3.18,3.18,0,1,1,3.16,3A3,3,0,0,1,54.42,230.12Zm.29,4.58h5.76v16.83H54.71Z" fill="#fff"/><path d="M63.73,227.29h5.73v24.24H63.73Z" fill="#fff"/><path d="M72.71,227.29h5.73v24.24H72.71Z" fill="#fff"/><path d="M87.39,234.7h5.76v2.57a5.89,5.89,0,0,1,5.28-3,4.57,4.57,0,0,1,4.57,2.8,6.67,6.67,0,0,1,5.58-2.8c3.18,0,5.5,2.06,5.5,6.27v11h-5.76v-10c0-1.71-.84-2.54-2.16-2.54-1.55,0-2.58,1-2.58,2.83v9.75H97.89v-10c0-1.71-.84-2.54-2.16-2.54-1.55,0-2.58,1-2.58,2.83v9.75H87.39Z" fill="#fff"/><path d="M115.92,246.87c0-4,3.34-5.51,9-5.51h1.61V241c0-1.61-.39-2.67-2.23-2.67a2.07,2.07,0,0,0-2.28,2h-5.41c.26-4.06,3.45-6.05,8-6.05s7.6,1.9,7.6,6.37v10.91h-5.6v-2a5.55,5.55,0,0,1-5,2.35C118.59,251.92,115.92,250.44,115.92,246.87Zm10.56-1.23v-1H125c-2.31,0-3.34.45-3.34,1.84,0,1,.64,1.58,2,1.58C125.25,248,126.48,247.09,126.48,245.64Z" fill="#fff"/><path d="M139.26,243,134,234.7h6.63l2.61,4.44,2.54-4.44h5.93l-5.31,7.82,5.82,9H145.6l-3-5-3.06,5h-5.89Z" fill="#fff"/><path d="M153.71,230.12a3.18,3.18,0,1,1,3.16,3A3,3,0,0,1,153.71,230.12Zm.29,4.58h5.77v16.83H154Z" fill="#fff"/><path d="M162.86,234.7h5.76v2.57a5.88,5.88,0,0,1,5.28-3,4.57,4.57,0,0,1,4.57,2.8,6.67,6.67,0,0,1,5.57-2.8c3.19,0,5.51,2.06,5.51,6.27v11h-5.76v-10c0-1.71-.84-2.54-2.16-2.54-1.55,0-2.58,1-2.58,2.83v9.75h-5.7v-10c0-1.71-.83-2.54-2.15-2.54-1.55,0-2.58,1-2.58,2.83v9.75h-5.76Z" fill="#fff"/><path d="M192.22,230.12a3.18,3.18,0,1,1,3.16,3A3,3,0,0,1,192.22,230.12Zm.29,4.58h5.77v16.83h-5.77Z" fill="#fff"/><path d="M200,251,207.35,239h-6.6V234.7H215.6v.61L208,247.19h7.18v4.34H200Z" fill="#fff"/><path d="M217.11,230.12a3.18,3.18,0,1,1,3.15,3A3,3,0,0,1,217.11,230.12Zm.29,4.58h5.76v16.83H217.4Z" fill="#fff"/><path d="M226.25,234.7H232v2.7a5.92,5.92,0,0,1,5.53-3.15c3.26,0,5.51,2,5.51,6.34v10.94H237.3v-9.78c0-1.9-.74-2.84-2.42-2.84s-2.86,1-2.86,3.19v9.43h-5.77Z" fill="#fff"/><path d="M244.93,251.53h5.73c.26,1.23,1,2.19,3.09,2.19,2.54,0,3.57-1.44,3.57-3.54v-2.57a5.9,5.9,0,0,1-5.21,3.09c-3.93,0-7.15-2.9-7.15-8.08v-.26c0-5,3.19-8.11,7.15-8.11a5.46,5.46,0,0,1,5.21,2.83V234.7h5.77v15.42c0,5-3.32,7.66-9.34,7.66C248,257.78,245.38,255.37,244.93,251.53Zm12.55-8.95v-.22c0-2.32-1.19-3.8-3.31-3.8s-3.32,1.51-3.32,3.83v.26c0,2.32,1.23,3.8,3.29,3.8S257.48,245,257.48,242.58Z" fill="#fff"/><path d="M22.16,286h5.76v3.35a5.32,5.32,0,0,1,5.45-3.57v5.37c-3.51-.09-5.45,1-5.45,3.71v8H22.16Z" fill="#fff"/><path d="M34.4,294.67v-.26c0-5.4,4-8.82,9.11-8.82,4.6,0,8.56,2.64,8.56,8.7v1.51H40.22c.16,2.22,1.45,3.51,3.51,3.51,1.9,0,2.71-.87,2.93-2h5.41c-.51,3.8-3.44,6-8.53,6C38.26,303.27,34.4,300.18,34.4,294.67Zm12.07-2.12c-.1-2-1.09-3.16-3-3.16s-2.93,1.13-3.22,3.16Z" fill="#fff"/><path d="M54.94,290H52.81V286h2.13v-1.48c0-4.18,2.61-6.18,6.6-6.18a10.42,10.42,0,0,1,2.64.35V283a5.31,5.31,0,0,0-1.58-.22,1.69,1.69,0,0,0-1.93,1.83V286h3.41V290H60.67v12.91H54.94Z" fill="#fff"/><path d="M65.88,297V286h5.77v10c0,1.9.74,2.83,2.38,2.83s2.87-1,2.87-3.19V286h5.76v16.84H76.9v-2.61a5.55,5.55,0,0,1-5.35,3C68.3,303.27,65.88,301.27,65.88,297Z" fill="#fff"/><path d="M85.59,286h5.76v2.71a6,6,0,0,1,5.54-3.16c3.25,0,5.5,2,5.5,6.35v10.94H96.63v-9.79c0-1.9-.74-2.83-2.41-2.83s-2.87,1-2.87,3.19v9.43H85.59Z" fill="#fff"/><path d="M104.36,294.64v-.26c0-5.73,3.15-8.79,7.15-8.79a5.46,5.46,0,0,1,5.18,2.84v-9.79h5.76v24.24h-5.76v-2.73a5.69,5.69,0,0,1-5.25,3.12C107.55,303.27,104.36,300.47,104.36,294.64Zm12.49-.1v-.25c0-2.84-1.19-4.35-3.31-4.35s-3.32,1.45-3.32,4.38v.26c0,2.83,1.25,4.28,3.25,4.28S116.85,297.41,116.85,294.54Z" fill="#fff"/><path d="M124.26,297.54h5.31c.19,1.22.74,1.9,2.38,1.9,1.42,0,2.06-.55,2.06-1.39s-.8-1.19-3.12-1.51c-4.51-.58-6.41-1.9-6.41-5.41,0-3.73,3.32-5.54,7.21-5.54,4.16,0,7.05,1.42,7.44,5.44h-5.21a1.89,1.89,0,0,0-2.16-1.67c-1.26,0-1.9.55-1.9,1.32s.77,1.13,2.83,1.38c4.67.58,6.92,1.81,6.92,5.41,0,4-3,5.8-7.63,5.8S124.39,301.27,124.26,297.54Z" fill="#fff"/><path d="M141.26,300a3.21,3.21,0,0,1,3.28-3.25,3.26,3.26,0,1,1,0,6.51A3.21,3.21,0,0,1,141.26,300Z" fill="#fff"/></g></g></svg>