<svg xmlns="http://www.w3.org/2000/svg" viewBox="0 0 300 600"><title>Asset 5</title><g id="Layer_2" data-name="Layer 2"><g id="rect"><rect width="300" height="600" fill="none"/></g><g id="Still_open._Still_finding_credits_deductions_and_refunds_dai" data-name="Still open. Still finding credits,  deductions  and refunds dai"><path d="M19,109.2h8.67c.23,2.27,1.25,4.13,5,4.13,2.62,0,4.09-1.29,4.09-3.15s-1.2-2.49-5-3.07c-9-1.07-12-3.74-12-10.14,0-5.74,4.71-9.92,12.32-9.92s12,3.21,12.53,9.92H36.19c-.32-2.27-1.61-3.42-4.09-3.42s-3.7,1.11-3.7,2.71c0,1.78,1,2.58,4.94,3.11,8,.89,12.18,3,12.18,9.87,0,5.83-4.62,10.58-12.8,10.58C23.82,119.82,19.29,116.09,19,109.2Z" fill="#fff"/><path d="M49.52,111.82V101.46h-2.8V96h2.8V91.19h8V96h4.58v5.42H57.48v9.6c0,1.69.84,2.45,2.35,2.45a6,6,0,0,0,2.27-.4v6a17,17,0,0,1-4.4.66C52.45,119.82,49.52,117.29,49.52,111.82Z" fill="#fff"/><path d="M64.9,89.72a4.39,4.39,0,1,1,4.36,4.09A4.16,4.16,0,0,1,64.9,89.72ZM65.3,96h8v23.25h-8Z" fill="#fff"/><path d="M77.75,85.81h7.91v33.48H77.75Z" fill="#fff"/><path d="M90.15,85.81h7.92v33.48H90.15Z" fill="#fff"/><path d="M109.18,108v-.35c0-7.47,5.56-12.19,12.76-12.19s12.67,4.58,12.67,12v.36c0,7.56-5.56,12.09-12.71,12.09S109.18,115.47,109.18,108Zm17.34-.13v-.36c0-3.91-1.56-6.09-4.58-6.09s-4.62,2.09-4.62,6v.36c0,4,1.55,6.18,4.62,6.18S126.52,111.69,126.52,107.82Z" fill="#fff"/><path d="M137.41,96h8V99.5a8.2,8.2,0,0,1,7.25-4.09c5.42,0,9.82,4.09,9.82,12v.36c0,8-4.4,12-9.87,12-3.51,0-6-1.64-7.2-3.95v11.2h-8Zm16.94,11.78v-.36c0-4.09-1.78-6-4.58-6s-4.62,2.09-4.62,6v.35c0,4,1.73,6,4.62,6S154.35,111.64,154.35,107.82Z" fill="#fff"/><path d="M164.08,108v-.35c0-7.47,5.56-12.19,12.59-12.19,6.35,0,11.82,3.65,11.82,12v2.09H172.13c.22,3.07,2,4.85,4.85,4.85,2.62,0,3.73-1.21,4-2.76h7.47c-.71,5.25-4.76,8.22-11.78,8.22C169.42,119.82,164.08,115.56,164.08,108ZM180.76,105c-.14-2.8-1.52-4.36-4.09-4.36-2.41,0-4,1.56-4.45,4.36Z" fill="#fff"/><path d="M191.24,96h8v3.73a8.22,8.22,0,0,1,7.65-4.36c4.49,0,7.6,2.8,7.6,8.76v15.12H206.5V105.77c0-2.62-1-3.91-3.34-3.91s-4,1.42-4,4.4v13h-8Z" fill="#fff"/><path d="M218,115.29a4.43,4.43,0,0,1,4.53-4.49,4.49,4.49,0,1,1,0,9A4.43,4.43,0,0,1,218,115.29Z" fill="#fff"/><path d="M19,167.06h8.67c.23,2.27,1.25,4.14,5,4.14,2.62,0,4.09-1.29,4.09-3.16s-1.2-2.49-5-3.07c-9-1.06-12-3.73-12-10.13,0-5.74,4.71-9.92,12.32-9.92s12,3.2,12.53,9.92H36.19c-.32-2.27-1.61-3.43-4.09-3.43s-3.7,1.11-3.7,2.71c0,1.78,1,2.58,4.94,3.12,8,.89,12.18,3,12.18,9.87,0,5.82-4.62,10.58-12.8,10.58C23.82,177.69,19.29,174,19,167.06Z" fill="#fff"/><path d="M49.52,169.69V159.33h-2.8V153.9h2.8v-4.84h8v4.84h4.58v5.43H57.48v9.6c0,1.69.84,2.45,2.35,2.45a6.21,6.21,0,0,0,2.27-.4v6a16.49,16.49,0,0,1-4.4.67C52.45,177.69,49.52,175.16,49.52,169.69Z" fill="#fff"/><path d="M64.9,147.59a4.39,4.39,0,1,1,4.36,4.09A4.16,4.16,0,0,1,64.9,147.59Zm.4,6.31h8v23.26h-8Z" fill="#fff"/><path d="M77.75,143.68h7.91v33.48H77.75Z" fill="#fff"/><path d="M90.15,143.68h7.92v33.48H90.15Z" fill="#fff"/><path d="M111.62,159.33h-2.93V153.9h2.93v-2c0-5.78,3.61-8.54,9.12-8.54a14.08,14.08,0,0,1,3.65.49v5.82a7.59,7.59,0,0,0-2.18-.31,2.34,2.34,0,0,0-2.67,2.54v2h4.71v5.43h-4.71v17.83h-7.92Z" fill="#fff"/><path d="M126.74,147.59a4.39,4.39,0,1,1,4.36,4.09A4.16,4.16,0,0,1,126.74,147.59Zm.4,6.31h8v23.26h-8Z" fill="#fff"/><path d="M139.36,153.9h8v3.74a8.22,8.22,0,0,1,7.65-4.36c4.49,0,7.6,2.8,7.6,8.76v15.12h-7.95V163.64c0-2.62-1-3.91-3.34-3.91s-4,1.42-4,4.4v13h-8Z" fill="#fff"/><path d="M165.28,165.77v-.35c0-7.92,4.36-12.14,9.87-12.14,3.65,0,5.83,1.56,7.16,3.91V143.68h8v33.48h-8v-3.78a7.82,7.82,0,0,1-7.25,4.31C169.68,177.69,165.28,173.82,165.28,165.77Zm17.25-.13v-.36c0-3.91-1.64-6-4.58-6s-4.58,2-4.58,6.05v.36c0,3.91,1.74,5.91,4.5,5.91S182.53,169.6,182.53,165.64Z" fill="#fff"/><path d="M194.13,147.59a4.39,4.39,0,1,1,4.36,4.09A4.16,4.16,0,0,1,194.13,147.59Zm.4,6.31h8v23.26h-8Z" fill="#fff"/><path d="M206.76,153.9h8v3.74a8.21,8.21,0,0,1,7.65-4.36c4.49,0,7.6,2.8,7.6,8.76v15.12h-8V163.64c0-2.62-1-3.91-3.33-3.91s-4,1.42-4,4.4v13h-8Z" fill="#fff"/><path d="M232.54,177.16h7.92c.35,1.69,1.38,3,4.27,3,3.51,0,4.93-2,4.93-4.89v-3.56a8.14,8.14,0,0,1-7.2,4.27c-5.43,0-9.87-4-9.87-11.16v-.36c0-6.84,4.4-11.2,9.87-11.2,3.69,0,5.87,1.56,7.2,3.91V153.9h8v21.3c0,6.94-4.58,10.58-12.89,10.58C236.81,185.78,233.17,182.45,232.54,177.16Zm17.34-12.36v-.32c0-3.2-1.64-5.24-4.58-5.24s-4.58,2.09-4.58,5.29v.35c0,3.21,1.7,5.25,4.54,5.25S249.88,168.09,249.88,164.8Z" fill="#fff"/><path d="M19.11,223.68v-.35c0-7.74,5.56-12.18,12.41-12.18,5.69,0,10.94,2.49,11.38,9.56H35.43c-.36-2.18-1.42-3.38-3.74-3.38-2.8,0-4.44,2-4.44,5.91v.36c0,4,1.55,6.13,4.58,6.13,2.22,0,3.78-1.33,4-3.87H43c-.22,5.87-4.18,9.7-11.69,9.7C24.4,235.56,19.11,231.51,19.11,223.68Z" fill="#fff"/><path d="M45.61,211.77h8v4.62a7.31,7.31,0,0,1,7.51-4.93v7.42c-4.85-.13-7.51,1.38-7.51,5.12v11h-8Z" fill="#fff"/><path d="M62.5,223.68v-.35c0-7.47,5.56-12.18,12.58-12.18,6.36,0,11.83,3.64,11.83,12v2.09H70.55c.22,3.07,2,4.85,4.85,4.85,2.62,0,3.73-1.2,4-2.76h7.47c-.71,5.25-4.76,8.23-11.78,8.23C67.84,235.56,62.5,231.29,62.5,223.68Zm16.68-2.93c-.14-2.8-1.52-4.36-4.1-4.36-2.4,0-4,1.56-4.44,4.36Z" fill="#fff"/><path d="M88.51,223.64v-.36c0-7.91,4.36-12.13,9.87-12.13,3.65,0,5.82,1.55,7.16,3.91V201.54h8V235h-8v-3.78a7.85,7.85,0,0,1-7.25,4.32C92.91,235.56,88.51,231.69,88.51,223.64Zm17.25-.13v-.36c0-3.91-1.64-6-4.58-6s-4.58,2-4.58,6v.35c0,3.91,1.73,5.91,4.49,5.91S105.76,227.46,105.76,223.51Z" fill="#fff"/><path d="M117.36,205.45a4.39,4.39,0,1,1,4.36,4.09A4.16,4.16,0,0,1,117.36,205.45Zm.4,6.32h8V235h-8Z" fill="#fff"/><path d="M131.05,227.55V217.19h-2.8v-5.42h2.8v-4.85h8v4.85h4.58v5.42H139v9.61a2.12,2.12,0,0,0,2.36,2.44,6,6,0,0,0,2.27-.4v6a16.65,16.65,0,0,1-4.41.67C134,235.56,131.05,233,131.05,227.55Z" fill="#fff"/><path d="M145.37,227.64h7.33c.27,1.69,1,2.63,3.29,2.63,2,0,2.85-.76,2.85-1.92s-1.11-1.64-4.31-2.09c-6.23-.8-8.85-2.62-8.85-7.47,0-5.15,4.58-7.64,10-7.64,5.73,0,9.74,1.95,10.27,7.51h-7.2c-.31-1.56-1.16-2.31-3-2.31s-2.63.75-2.63,1.82,1.07,1.56,3.92,1.91c6.44.8,9.56,2.49,9.56,7.47,0,5.52-4.09,8-10.54,8C149.41,235.56,145.54,232.8,145.37,227.64Z" fill="#fff"/><path d="M167.51,238.62l3.73-11.69,7.38,2.62-6.4,10.9Z" fill="#fff"/><path d="M19.2,281.51v-.36c0-7.91,4.36-12.14,9.87-12.14,3.65,0,5.83,1.56,7.16,3.91V259.41h8v33.48h-8v-3.78A7.84,7.84,0,0,1,29,293.42C23.6,293.42,19.2,289.55,19.2,281.51Zm17.25-.14V281c0-3.92-1.64-6-4.58-6s-4.58,2-4.58,6.05v.36c0,3.91,1.74,5.91,4.49,5.91S36.45,285.33,36.45,281.37Z" fill="#fff"/><path d="M47,281.55v-.36C47,273.72,52.54,269,59.57,269c6.36,0,11.83,3.65,11.83,12v2.09H55c.23,3.06,2,4.84,4.85,4.84,2.62,0,3.74-1.2,4-2.75H71.4c-.71,5.24-4.76,8.22-11.79,8.22C52.32,293.42,47,289.15,47,281.55Zm16.67-2.93c-.13-2.81-1.51-4.36-4.09-4.36-2.4,0-4,1.55-4.45,4.36Z" fill="#fff"/><path d="M73,281.51v-.36c0-7.91,4.36-12.14,9.87-12.14,3.65,0,5.83,1.56,7.16,3.91V259.41h8v33.48H90v-3.78a7.82,7.82,0,0,1-7.25,4.31C77.39,293.42,73,289.55,73,281.51Zm17.25-.14V281c0-3.92-1.64-6-4.57-6s-4.59,2-4.59,6.05v.36c0,3.91,1.74,5.91,4.5,5.91S90.24,285.33,90.24,281.37Z" fill="#fff"/><path d="M101.84,284.8V269.63h8v13.88c0,2.62,1,3.91,3.29,3.91s4-1.42,4-4.4V269.63h8v23.26h-8v-3.6c-1.24,2.4-3.51,4.13-7.38,4.13C105.18,293.42,101.84,290.67,101.84,284.8Z" fill="#fff"/><path d="M127.81,281.55v-.36c0-7.73,5.55-12.18,12.4-12.18,5.69,0,10.94,2.49,11.38,9.56h-7.46c-.36-2.18-1.43-3.38-3.74-3.38-2.8,0-4.45,2-4.45,5.92v.35c0,4.05,1.56,6.14,4.58,6.14,2.23,0,3.78-1.34,4-3.87h7.16c-.22,5.87-4.18,9.69-11.7,9.69C133.1,293.42,127.81,289.38,127.81,281.55Z" fill="#fff"/><path d="M155.37,285.42V275.06h-2.8v-5.43h2.8v-4.84h8v4.84h4.58v5.43h-4.58v9.6c0,1.69.84,2.45,2.36,2.45a6,6,0,0,0,2.26-.4v6.05a17,17,0,0,1-4.4.66C158.3,293.42,155.37,290.89,155.37,285.42Z" fill="#fff"/><path d="M170.75,263.32a4.39,4.39,0,1,1,4.36,4.09A4.15,4.15,0,0,1,170.75,263.32Zm.4,6.31h8v23.26h-8Z" fill="#fff"/><path d="M182.13,281.55v-.36c0-7.47,5.56-12.18,12.76-12.18s12.67,4.58,12.67,12v.36c0,7.56-5.55,12.09-12.71,12.09S182.13,289.06,182.13,281.55Zm17.34-.13v-.36c0-3.91-1.55-6.09-4.58-6.09s-4.62,2.09-4.62,6v.36c0,4,1.55,6.18,4.62,6.18S199.47,285.29,199.47,281.42Z" fill="#fff"/><path d="M210.36,269.63h8v3.74A8.21,8.21,0,0,1,226,269c4.49,0,7.6,2.8,7.6,8.76v15.12h-8V279.37c0-2.62-1-3.91-3.33-3.91s-4,1.42-4,4.4v13h-8Z" fill="#fff"/><path d="M235.88,285.51h7.33c.27,1.69,1,2.62,3.29,2.62,2,0,2.85-.75,2.85-1.91s-1.11-1.65-4.31-2.09c-6.23-.8-8.85-2.62-8.85-7.47,0-5.16,4.58-7.65,10-7.65,5.73,0,9.74,2,10.27,7.52h-7.2c-.31-1.56-1.16-2.32-3-2.32s-2.63.76-2.63,1.83,1.07,1.55,3.92,1.91c6.44.8,9.56,2.49,9.56,7.47,0,5.51-4.09,8-10.54,8C239.92,293.42,236.06,290.67,235.88,285.51Z" fill="#fff"/><path d="M19,344.31c0-5.47,4.63-7.61,12.36-7.61h2.23v-.53c0-2.22-.54-3.69-3.07-3.69a2.86,2.86,0,0,0-3.16,2.76H19.91c.36-5.61,4.76-8.36,11.12-8.36s10.49,2.62,10.49,8.8v15.07H33.78V348c-1.11,1.69-3.15,3.25-6.89,3.25C22.71,351.29,19,349.24,19,344.31Zm14.59-1.69V341.2H31.52c-3.2,0-4.63.62-4.63,2.53,0,1.33.89,2.18,2.76,2.18C31.92,345.91,33.61,344.62,33.61,342.62Z" fill="#fff"/><path d="M45.38,327.5h8v3.74A8.2,8.2,0,0,1,61,326.88c4.49,0,7.61,2.8,7.61,8.76v15.11h-8V337.24c0-2.63-1-3.91-3.34-3.91s-4,1.42-4,4.4v13h-8Z" fill="#fff"/><path d="M71.3,339.37V339c0-7.92,4.36-12.14,9.87-12.14,3.65,0,5.83,1.55,7.16,3.91V317.27h8v33.48h-8V347a7.82,7.82,0,0,1-7.25,4.31C75.71,351.29,71.3,347.42,71.3,339.37Zm17.26-.13v-.36c0-3.91-1.65-6-4.58-6s-4.58,2-4.58,6.05v.35c0,3.92,1.73,5.92,4.49,5.92S88.56,343.2,88.56,339.24Z" fill="#fff"/><path d="M108.42,327.5h8v4.62a7.34,7.34,0,0,1,7.52-4.93v7.42c-4.85-.13-7.52,1.38-7.52,5.12v11h-8Z" fill="#fff"/><path d="M125.32,339.42v-.36c0-7.47,5.56-12.18,12.58-12.18,6.36,0,11.83,3.64,11.83,12V341H133.37c.22,3.07,2,4.85,4.84,4.85,2.62,0,3.74-1.2,4-2.76h7.47c-.71,5.25-4.76,8.23-11.79,8.23C130.65,351.29,125.32,347,125.32,339.42ZM142,336.48c-.13-2.8-1.51-4.36-4.09-4.36-2.4,0-4.05,1.56-4.45,4.36Z" fill="#fff"/><path d="M153.68,332.92h-2.93V327.5h2.93v-2c0-5.79,3.6-8.54,9.12-8.54a14,14,0,0,1,3.64.49v5.82a7.26,7.26,0,0,0-2.18-.31,2.33,2.33,0,0,0-2.66,2.54v2h4.71v5.42H161.6v17.83h-7.92Z" fill="#fff"/><path d="M168.79,342.66V327.5h8v13.87c0,2.63,1,3.92,3.29,3.92,2.41,0,4-1.43,4-4.41V327.5h8v23.25h-8v-3.6c-1.24,2.4-3.51,4.14-7.38,4.14C172.13,351.29,168.79,348.53,168.79,342.66Z" fill="#fff"/><path d="M196,327.5h8v3.74a8.2,8.2,0,0,1,7.65-4.36c4.49,0,7.6,2.8,7.6,8.76v15.11h-8V337.24c0-2.63-1-3.91-3.33-3.91s-4,1.42-4,4.4v13h-8Z" fill="#fff"/><path d="M221.92,339.37V339c0-7.92,4.36-12.14,9.87-12.14,3.65,0,5.82,1.55,7.16,3.91V317.27h8v33.48h-8V347a7.85,7.85,0,0,1-7.25,4.31C226.32,351.29,221.92,347.42,221.92,339.37Zm17.25-.13v-.36c0-3.91-1.64-6-4.58-6s-4.58,2-4.58,6.05v.35c0,3.92,1.74,5.92,4.49,5.92S239.17,343.2,239.17,339.24Z" fill="#fff"/><path d="M249.39,343.37h7.34c.27,1.69,1,2.63,3.29,2.63,2,0,2.85-.76,2.85-1.92s-1.12-1.64-4.32-2.08c-6.22-.8-8.85-2.63-8.85-7.47,0-5.16,4.58-7.65,10-7.65,5.74,0,9.74,1.95,10.27,7.51h-7.2c-.31-1.55-1.15-2.31-3-2.31s-2.62.76-2.62,1.82,1.07,1.56,3.91,1.91c6.45.81,9.56,2.49,9.56,7.48,0,5.51-4.09,8-10.54,8C253.44,351.29,249.57,348.53,249.39,343.37Z" fill="#fff"/><path d="M19.2,397.24v-.36c0-7.91,4.36-12.14,9.87-12.14,3.65,0,5.83,1.56,7.16,3.92V375.14h8v33.48h-8v-3.78A7.84,7.84,0,0,1,29,409.15C23.6,409.15,19.2,405.29,19.2,397.24Zm17.25-.14v-.35c0-3.91-1.64-6-4.58-6s-4.58,2-4.58,6v.36c0,3.91,1.74,5.91,4.49,5.91S36.45,401.06,36.45,397.1Z" fill="#fff"/><path d="M46.9,402.17c0-5.46,4.62-7.6,12.36-7.6h2.22V394c0-2.23-.53-3.69-3.07-3.69a2.84,2.84,0,0,0-3.15,2.75H47.79c.35-5.6,4.75-8.36,11.11-8.36s10.5,2.63,10.5,8.81v15.07H61.66v-2.71c-1.11,1.69-3.16,3.24-6.89,3.24C50.59,409.15,46.9,407.11,46.9,402.17Zm14.58-1.69v-1.42H59.39c-3.2,0-4.62.62-4.62,2.54,0,1.33.89,2.17,2.75,2.17C59.79,403.77,61.48,402.49,61.48,400.48Z" fill="#fff"/><path d="M73.08,379.05a4.39,4.39,0,1,1,4.36,4.09A4.16,4.16,0,0,1,73.08,379.05Zm.4,6.32h8v23.25h-8Z" fill="#fff"/><path d="M85.93,375.14h7.91v33.48H85.93Z" fill="#fff"/><path d="M105.4,406.26l-9.29-20.89h8.63l4.8,12.4,4.44-12.4h7.61l-12.45,31h-7.61Z" fill="#fff"/><path d="M119.89,404.62a4.44,4.44,0,0,1,4.54-4.49,4.49,4.49,0,1,1,0,9A4.44,4.44,0,0,1,119.89,404.62Z" fill="#fff"/></g></g></svg>