<svg xmlns="http://www.w3.org/2000/svg" viewBox="0 0 300 600"><title>H4</title><g id="Layer_2" data-name="Layer 2"><g id="Rect"><rect width="300" height="600" fill="none"/></g><g id="H4"><g id="You_could_get_a_Refund_Advance_loan._0_Interest._Starts_Jan_4." data-name="You could get a Refund Advance loan. 0% Interest. Starts Jan 4."><path d="M29.84,99.5,19.36,81.1h10l5.45,10.84L40.28,81.1H49.1l-10,18.4v13.77H29.84Z" fill="#fff"/><path d="M45.73,101.8v-.36c0-7.56,5.62-12.33,12.91-12.33s12.83,4.63,12.83,12.1v.36c0,7.65-5.63,12.24-12.87,12.24S45.73,109.4,45.73,101.8Zm17.55-.14v-.36c0-4-1.58-6.16-4.64-6.16S54,97.25,54,101.21v.36c0,4.05,1.58,6.26,4.68,6.26S63.28,105.58,63.28,101.66Z" fill="#fff"/><path d="M74.12,105.08V89.74h8.06v14c0,2.65,1,4,3.33,4s4-1.44,4-4.46V89.74h8.06v23.53H89.51v-3.64c-1.26,2.43-3.55,4.18-7.47,4.18C77.5,113.81,74.12,111,74.12,105.08Z" fill="#fff"/><path d="M20.12,148.8v-.36c0-7.83,5.63-12.33,12.56-12.33,5.76,0,11.07,2.52,11.52,9.67H36.64c-.36-2.2-1.44-3.42-3.78-3.42-2.84,0-4.5,2-4.5,6v.36c0,4.09,1.57,6.21,4.63,6.21,2.25,0,3.83-1.35,4.1-3.92h7.24c-.22,5.94-4.23,9.81-11.83,9.81C25.48,160.81,20.12,156.72,20.12,148.8Z" fill="#fff"/><path d="M45.68,148.8v-.36c0-7.56,5.63-12.33,12.92-12.33s12.82,4.63,12.82,12.1v.36c0,7.65-5.62,12.24-12.87,12.24S45.68,156.4,45.68,148.8Zm17.55-.14v-.36c0-4-1.57-6.16-4.63-6.16s-4.68,2.11-4.68,6.07v.36c0,4.05,1.57,6.26,4.68,6.26S63.23,152.58,63.23,148.66Z" fill="#fff"/><path d="M74.08,152.08V136.74h8v14c0,2.65,1,4,3.33,4s4-1.44,4-4.46V136.74h8v23.53h-8v-3.64c-1.26,2.43-3.56,4.18-7.47,4.18C77.45,160.81,74.08,158,74.08,152.08Z" fill="#fff"/><path d="M101.84,126.39h8v33.88h-8Z" fill="#fff"/><path d="M113,148.75v-.36c0-8,4.41-12.28,10-12.28,3.69,0,5.9,1.57,7.25,4V126.39h8v33.88h-8v-3.82a7.93,7.93,0,0,1-7.34,4.36C117.46,160.81,113,156.9,113,148.75Zm17.46-.13v-.36c0-4-1.66-6.08-4.63-6.08s-4.64,2-4.64,6.12v.36c0,4,1.76,6,4.55,6S130.46,152.62,130.46,148.62Z" fill="#fff"/><path d="M149.27,160.27h8c.36,1.71,1.4,3.06,4.32,3.06,3.56,0,5-2,5-5v-3.6a8.26,8.26,0,0,1-7.29,4.32c-5.49,0-10-4-10-11.29v-.36c0-6.93,4.45-11.34,10-11.34,3.73,0,5.94,1.57,7.29,4v-3.33h8.05v21.55c0,7-4.63,10.71-13.05,10.71C153.59,169,149.9,165.63,149.27,160.27Zm17.55-12.51v-.31c0-3.24-1.66-5.31-4.63-5.31s-4.64,2.11-4.64,5.35v.36c0,3.24,1.71,5.31,4.59,5.31S166.82,151.09,166.82,147.76Z" fill="#fff"/><path d="M177.49,148.8v-.36c0-7.56,5.62-12.33,12.73-12.33,6.44,0,12,3.69,12,12.15v2.11H185.63c.23,3.11,2,4.91,4.91,4.91,2.65,0,3.78-1.22,4.09-2.79h7.56c-.72,5.31-4.81,8.32-11.92,8.32C182.89,160.81,177.49,156.49,177.49,148.8Zm16.87-3c-.13-2.84-1.53-4.41-4.14-4.41-2.43,0-4.09,1.57-4.5,4.41Z" fill="#fff"/><path d="M206.06,152.71V142.23h-2.83v-5.49h2.83v-4.91h8.06v4.91h4.63v5.49h-4.63V152c0,1.71.85,2.47,2.38,2.47a6.16,6.16,0,0,0,2.3-.4v6.12a17,17,0,0,1-4.46.67C209,160.81,206.06,158.25,206.06,152.71Z" fill="#fff"/><path d="M228.65,153.75c0-5.54,4.68-7.7,12.51-7.7h2.25v-.54c0-2.25-.54-3.73-3.1-3.73a2.89,2.89,0,0,0-3.2,2.79h-7.56c.36-5.67,4.82-8.46,11.25-8.46s10.62,2.65,10.62,8.91v15.25h-7.83v-2.74c-1.12,1.71-3.19,3.28-7,3.28C232.39,160.81,228.65,158.74,228.65,153.75ZM243.41,152V150.6H241.3c-3.24,0-4.68.63-4.68,2.56,0,1.35.9,2.21,2.79,2.21C241.7,155.37,243.41,154.06,243.41,152Z" fill="#fff"/><path d="M22.1,175.1H34.7c8.42,0,13.1,3.42,13.1,10.21v.18A8.4,8.4,0,0,1,42,194l7.7,13.32H40l-6.53-11.52H31.28v11.52H22.1Zm12.15,14.67c3.11,0,4.64-1.31,4.64-3.92v-.18c0-2.61-1.62-3.64-4.59-3.64h-3v7.74Z" fill="#fff"/><path d="M49.69,195.8v-.36c0-7.56,5.62-12.33,12.73-12.33,6.44,0,12,3.69,12,12.15v2.11H57.83c.23,3.11,2,4.91,4.91,4.91,2.65,0,3.78-1.22,4.09-2.79h7.56c-.72,5.31-4.81,8.32-11.92,8.32C55.09,207.81,49.69,203.49,49.69,195.8Zm16.87-3c-.13-2.84-1.53-4.41-4.14-4.41-2.43,0-4.09,1.57-4.5,4.41Z" fill="#fff"/><path d="M78.4,189.23h-3v-5.49h3v-2.07c0-5.85,3.64-8.64,9.22-8.64a14.34,14.34,0,0,1,3.69.49v5.9a7.32,7.32,0,0,0-2.2-.32,2.37,2.37,0,0,0-2.7,2.57v2.07h4.77v5.49H86.41v18h-8Z" fill="#fff"/><path d="M93.7,199.08V183.74h8v14c0,2.65,1,4,3.33,4s4-1.44,4-4.46V183.74h8v23.53h-8v-3.64c-1.26,2.43-3.56,4.18-7.47,4.18C97.07,207.81,93.7,205,93.7,199.08Z" fill="#fff"/><path d="M121.24,183.74h8v3.78a8.31,8.31,0,0,1,7.74-4.41c4.55,0,7.7,2.83,7.7,8.86v15.3h-8.06V193.59c0-2.65-1-4-3.37-4s-4,1.44-4,4.46v13.18h-8Z" fill="#fff"/><path d="M147.47,195.75v-.36c0-8,4.41-12.28,10-12.28,3.69,0,5.9,1.57,7.25,4V173.39h8v33.88h-8v-3.82a7.93,7.93,0,0,1-7.34,4.36C151.93,207.81,147.47,203.9,147.47,195.75Zm17.46-.13v-.36c0-4-1.66-6.08-4.63-6.08s-4.64,2-4.64,6.12v.36c0,4,1.76,6,4.55,6S164.93,199.62,164.93,195.62Z" fill="#fff"/><path d="M29.89,222.1H41.81L52,254.27H42.26l-1.71-6H29.89l-1.71,6h-8.6Zm1.8,19.84h7.06l-3.51-12.37Z" fill="#fff"/><path d="M52.57,242.75v-.36c0-8,4.41-12.28,10-12.28,3.69,0,5.89,1.57,7.24,4V220.39h8.06v33.88H69.8v-3.82a7.92,7.92,0,0,1-7.33,4.36C57,254.81,52.57,250.9,52.57,242.75ZM70,242.62v-.36c0-4-1.67-6.08-4.63-6.08s-4.64,2-4.64,6.12v.36c0,4,1.76,6,4.54,6C68.23,248.65,70,246.62,70,242.62Z" fill="#fff"/><path d="M79.93,230.74h8.59l4.91,15.16,4.81-15.16h7.7l-8.6,23.53H88.57Z" fill="#fff"/><path d="M105.62,247.75c0-5.54,4.69-7.7,12.51-7.7h2.25v-.54c0-2.25-.54-3.73-3.1-3.73a2.89,2.89,0,0,0-3.2,2.79h-7.55c.36-5.67,4.81-8.46,11.24-8.46s10.62,2.65,10.62,8.91v15.25h-7.83v-2.74c-1.12,1.71-3.19,3.28-7,3.28C109.36,254.81,105.62,252.74,105.62,247.75ZM120.38,246V244.6h-2.11c-3.24,0-4.68.63-4.68,2.56,0,1.35.9,2.21,2.79,2.21C118.67,249.37,120.38,248.06,120.38,246Z" fill="#fff"/><path d="M132.31,230.74h8.05v3.78a8.31,8.31,0,0,1,7.74-4.41c4.55,0,7.7,2.83,7.7,8.86v15.3h-8.06V240.59c0-2.65-1-4-3.37-4s-4,1.44-4,4.46v13.18h-8.05Z" fill="#fff"/><path d="M158.45,242.8v-.36c0-7.83,5.63-12.33,12.56-12.33,5.76,0,11.07,2.52,11.52,9.67H175c-.36-2.2-1.44-3.42-3.78-3.42-2.84,0-4.5,2-4.5,6v.36c0,4.09,1.57,6.21,4.63,6.21,2.25,0,3.83-1.35,4.1-3.92h7.24c-.22,5.94-4.23,9.81-11.83,9.81C163.81,254.81,158.45,250.72,158.45,242.8Z" fill="#fff"/><path d="M184,242.8v-.36c0-7.56,5.63-12.33,12.74-12.33,6.43,0,12,3.69,12,12.15v2.11H192.16c.22,3.11,2,4.91,4.9,4.91,2.66,0,3.78-1.22,4.1-2.79h7.56c-.72,5.31-4.82,8.32-11.93,8.32C189.41,254.81,184,250.49,184,242.8Zm16.88-3c-.14-2.84-1.53-4.41-4.14-4.41-2.43,0-4.1,1.57-4.5,4.41Z" fill="#fff"/><path d="M21.61,267.39h8v33.88h-8Z" fill="#fff"/><path d="M32.68,289.8v-.36c0-7.56,5.62-12.33,12.91-12.33s12.83,4.63,12.83,12.1v.36c0,7.65-5.63,12.24-12.87,12.24S32.68,297.4,32.68,289.8Zm17.55-.14v-.36c0-4-1.58-6.16-4.64-6.16s-4.68,2.11-4.68,6.07v.36c0,4.05,1.58,6.26,4.68,6.26S50.23,293.58,50.23,289.66Z" fill="#fff"/><path d="M59.9,294.75c0-5.54,4.68-7.7,12.51-7.7h2.25v-.54c0-2.25-.54-3.73-3.1-3.73a2.89,2.89,0,0,0-3.2,2.79H60.8c.36-5.67,4.82-8.46,11.25-8.46s10.62,2.65,10.62,8.91v15.25H74.84v-2.74c-1.12,1.71-3.19,3.28-7,3.28C63.64,301.81,59.9,299.74,59.9,294.75ZM74.66,293V291.6H72.55c-3.24,0-4.68.63-4.68,2.56,0,1.35.9,2.21,2.79,2.21C73,296.37,74.66,295.06,74.66,293Z" fill="#fff"/><path d="M86.59,277.74h8v3.78a8.31,8.31,0,0,1,7.74-4.41c4.55,0,7.7,2.83,7.7,8.86v15.3H102V287.59c0-2.65-1-4-3.37-4s-4,1.44-4,4.46v13.18h-8Z" fill="#fff"/><path d="M113.68,297.22a4.48,4.48,0,0,1,4.59-4.54,4.55,4.55,0,1,1,0,9.09A4.49,4.49,0,0,1,113.68,297.22Z" fill="#fff"/><path d="M20.62,332.88v-1.35c0-10.17,6.34-15.88,14.85-15.88s14.85,5.26,14.85,15.7v1.26c0,10.22-5.85,16.2-15,16.2C26.29,348.81,20.62,343,20.62,332.88Zm20.47-.09v-1.3c0-5.9-1.71-8.87-5.62-8.87s-5.63,2.93-5.63,8.87v1.35c0,6,1.76,8.82,5.72,8.82S41.09,338.73,41.09,332.79Z" fill="#fff"/><path d="M52.08,323.75c0-4.55,3.64-8,8.54-8s8.51,3.28,8.51,7.87-3.33,8.28-8.55,8.28S52.08,328.38,52.08,323.75Zm26.5-7.65H83L60.67,348.27H56.26Zm-15.39,7.65c0-2.12-.9-3.42-2.57-3.42S58,321.59,58,323.7s1,3.51,2.65,3.51S63.19,325.86,63.19,323.75ZM70,340.67c0-4.59,3.69-8,8.55-8S87,335.9,87,340.53s-3.33,8.28-8.55,8.28S70,345.3,70,340.67Zm11.16-.05c0-2.07-.9-3.37-2.61-3.37s-2.61,1.26-2.61,3.37,1,3.47,2.61,3.47S81.14,342.78,81.14,340.62Z" fill="#fff"/><path d="M99,316.1h9.32v32.17H99Z" fill="#fff"/><path d="M113.23,324.74h8v3.78a8.31,8.31,0,0,1,7.74-4.41c4.55,0,7.7,2.83,7.7,8.86v15.3h-8.06V334.59c0-2.65-1-4-3.37-4s-4,1.44-4,4.46v13.18h-8Z" fill="#fff"/><path d="M141.71,340.71V330.23h-2.83v-5.49h2.83v-4.91h8.06v4.91h4.63v5.49h-4.63V340c0,1.71.85,2.47,2.38,2.47a6.16,6.16,0,0,0,2.3-.4v6.12a17,17,0,0,1-4.46.67C144.68,348.81,141.71,346.25,141.71,340.71Z" fill="#fff"/><path d="M156.2,336.8v-.36c0-7.56,5.63-12.33,12.74-12.33,6.43,0,12,3.69,12,12.15v2.11H164.35c.22,3.11,2,4.91,4.9,4.91,2.66,0,3.78-1.22,4.1-2.79h7.56c-.72,5.31-4.82,8.32-11.93,8.32C161.6,348.81,156.2,344.49,156.2,336.8Zm16.88-3c-.14-2.84-1.53-4.41-4.14-4.41-2.43,0-4.1,1.57-4.5,4.41Z" fill="#fff"/><path d="M183.7,324.74h8.05v4.68a7.43,7.43,0,0,1,7.61-5v7.52c-4.91-.14-7.61,1.39-7.61,5.17v11.16H183.7Z" fill="#fff"/><path d="M200.8,336.8v-.36c0-7.56,5.62-12.33,12.73-12.33,6.44,0,12,3.69,12,12.15v2.11H208.94c.23,3.11,2,4.91,4.91,4.91,2.65,0,3.78-1.22,4.09-2.79h7.56c-.72,5.31-4.81,8.32-11.92,8.32C206.2,348.81,200.8,344.49,200.8,336.8Zm16.87-3c-.13-2.84-1.53-4.41-4.14-4.41-2.43,0-4.09,1.57-4.5,4.41Z" fill="#fff"/><path d="M226.94,340.8h7.43c.27,1.71,1,2.66,3.33,2.66,2,0,2.88-.77,2.88-1.94s-1.13-1.66-4.37-2.11c-6.3-.81-9-2.66-9-7.56,0-5.22,4.63-7.74,10.08-7.74,5.8,0,9.85,2,10.39,7.6h-7.29c-.31-1.57-1.17-2.34-3-2.34s-2.66.77-2.66,1.85,1.08,1.57,4,1.93c6.53.81,9.68,2.52,9.68,7.56,0,5.58-4.14,8.1-10.67,8.1C231,348.81,227.12,346,226.94,340.8Z" fill="#fff"/><path d="M252.1,340.71V330.23h-2.84v-5.49h2.84v-4.91h8v4.91h4.64v5.49h-4.64V340a2.15,2.15,0,0,0,2.39,2.47,6.11,6.11,0,0,0,2.29-.4v6.12a16.85,16.85,0,0,1-4.45.67C255.07,348.81,252.1,346.25,252.1,340.71Z" fill="#fff"/><path d="M267.53,344.22a4.49,4.49,0,0,1,4.59-4.54,4.55,4.55,0,1,1,0,9.09A4.49,4.49,0,0,1,267.53,344.22Z" fill="#fff"/><path d="M20,385.06h8.77c.22,2.29,1.26,4.18,5.08,4.18,2.66,0,4.14-1.3,4.14-3.19s-1.21-2.52-5.08-3.11c-9.09-1.08-12.15-3.78-12.15-10.26,0-5.8,4.77-10,12.46-10s12.11,3.24,12.69,10H37.4c-.31-2.29-1.62-3.46-4.14-3.46s-3.73,1.12-3.73,2.74c0,1.8,1,2.61,5,3.15,8.15.9,12.33,3,12.33,10,0,5.9-4.68,10.71-13,10.71C24.89,395.81,20.31,392,20,385.06Z" fill="#fff"/><path d="M50.9,387.71V377.23H48.07v-5.49H50.9v-4.91H59v4.91h4.63v5.49H59V387c0,1.71.85,2.47,2.38,2.47a6.16,6.16,0,0,0,2.3-.4v6.12a17,17,0,0,1-4.46.67C53.87,395.81,50.9,393.25,50.9,387.71Z" fill="#fff"/><path d="M65.39,388.75c0-5.54,4.68-7.7,12.51-7.7h2.25v-.54c0-2.25-.54-3.73-3.1-3.73a2.89,2.89,0,0,0-3.2,2.79H66.29c.36-5.67,4.82-8.46,11.25-8.46s10.62,2.65,10.62,8.91v15.25H80.33v-2.74c-1.12,1.71-3.19,3.28-7,3.28C69.13,395.81,65.39,393.74,65.39,388.75ZM80.15,387V385.6H78c-3.24,0-4.68.63-4.68,2.56,0,1.35.9,2.21,2.79,2.21C78.44,390.37,80.15,389.06,80.15,387Z" fill="#fff"/><path d="M92.08,371.74h8v4.68a7.43,7.43,0,0,1,7.61-5v7.52c-4.91-.14-7.61,1.39-7.61,5.17v11.16h-8Z" fill="#fff"/><path d="M112.1,387.71V377.23h-2.83v-5.49h2.83v-4.91h8.06v4.91h4.63v5.49h-4.63V387c0,1.71.85,2.47,2.38,2.47a6.16,6.16,0,0,0,2.3-.4v6.12a17,17,0,0,1-4.46.67C115.07,395.81,112.1,393.25,112.1,387.71Z" fill="#fff"/><path d="M126.59,387.8H134c.27,1.71,1,2.66,3.33,2.66,2,0,2.88-.77,2.88-1.94s-1.13-1.66-4.37-2.11c-6.3-.81-9-2.66-9-7.56,0-5.22,4.63-7.74,10.08-7.74,5.8,0,9.85,2,10.39,7.6h-7.29c-.31-1.57-1.17-2.34-3-2.34s-2.66.77-2.66,1.85,1.08,1.57,4,1.93c6.53.81,9.68,2.52,9.68,7.56,0,5.58-4.14,8.1-10.67,8.1C130.69,395.81,126.77,393,126.59,387.8Z" fill="#fff"/><path d="M158,394.6v-6.89a10.88,10.88,0,0,0,3.91.63c2.52,0,4.19-1.12,4.19-4.45V363.1h9.27V384c0,7.74-4,11.7-11.52,11.7A12.35,12.35,0,0,1,158,394.6Z" fill="#fff"/><path d="M177.89,388.75c0-5.54,4.68-7.7,12.51-7.7h2.25v-.54c0-2.25-.54-3.73-3.1-3.73a2.89,2.89,0,0,0-3.2,2.79h-7.56c.36-5.67,4.82-8.46,11.25-8.46s10.62,2.65,10.62,8.91v15.25h-7.83v-2.74c-1.12,1.71-3.19,3.28-7,3.28C181.63,395.81,177.89,393.74,177.89,388.75ZM192.65,387V385.6h-2.11c-3.24,0-4.68.63-4.68,2.56,0,1.35.9,2.21,2.79,2.21C190.94,390.37,192.65,389.06,192.65,387Z" fill="#fff"/><path d="M204.58,371.74h8v3.78a8.31,8.31,0,0,1,7.74-4.41c4.55,0,7.7,2.83,7.7,8.86v15.3H220V381.59c0-2.65-1-4-3.37-4s-4,1.44-4,4.46v13.18h-8Z" fill="#fff"/><path d="M254.25,389.11H238.6v-3.47L252,363.1h11.12v19.66h4.14v6.35h-4.14v6.16h-8.87Zm.23-6.35V370l-7.2,12.73Z" fill="#fff"/><path d="M269.24,391.22a4.49,4.49,0,0,1,4.59-4.54,4.55,4.55,0,1,1,0,9.09A4.49,4.49,0,0,1,269.24,391.22Z" fill="#fff"/></g></g></g></svg>