<svg xmlns="http://www.w3.org/2000/svg" viewBox="0 0 300 600"><title>H4</title><g id="Layer_2" data-name="Layer 2"><g id="Rect"><rect width="300" height="600" fill="none"/></g><g id="H4"><g id="You_could_get_a_Refund_Advance_loan._0_interest._Starts_Jan_4." data-name="You could get a Refund Advance loan. 0% interest. Starts Jan 4."><path d="M29.84,99.5,19.36,81.1h10l5.45,10.84L40.28,81.1H49.1l-10,18.4v13.77H29.84Z" fill="#fff"/><path d="M45.73,101.8v-.36c0-7.56,5.62-12.33,12.91-12.33s12.83,4.63,12.83,12.1v.36c0,7.65-5.63,12.24-12.87,12.24S45.73,109.4,45.73,101.8Zm17.55-.14v-.36c0-4-1.58-6.16-4.64-6.16S54,97.25,54,101.21v.36c0,4.05,1.58,6.26,4.68,6.26S63.28,105.58,63.28,101.66Z" fill="#fff"/><path d="M74.12,105.08V89.74h8.06v14c0,2.65,1,4,3.33,4s4-1.44,4-4.46V89.74h8.06v23.53H89.51v-3.64c-1.26,2.43-3.55,4.18-7.47,4.18C77.5,113.81,74.12,111,74.12,105.08Z" fill="#fff"/><path d="M20.12,148.8v-.36c0-7.83,5.63-12.33,12.56-12.33,5.76,0,11.07,2.52,11.52,9.67H36.64c-.36-2.2-1.44-3.42-3.78-3.42-2.84,0-4.5,2-4.5,6v.36c0,4.09,1.57,6.21,4.63,6.21,2.25,0,3.83-1.35,4.1-3.92h7.24c-.22,5.94-4.23,9.81-11.83,9.81C25.48,160.81,20.12,156.72,20.12,148.8Z" fill="#fff"/><path d="M45.68,148.8v-.36c0-7.56,5.63-12.33,12.92-12.33s12.82,4.63,12.82,12.1v.36c0,7.65-5.62,12.24-12.87,12.24S45.68,156.4,45.68,148.8Zm17.55-.14v-.36c0-4-1.57-6.16-4.63-6.16s-4.68,2.11-4.68,6.07v.36c0,4.05,1.57,6.26,4.68,6.26S63.23,152.58,63.23,148.66Z" fill="#fff"/><path d="M74.08,152.08V136.74h8v14c0,2.65,1,4,3.33,4s4-1.44,4-4.46V136.74h8v23.53h-8v-3.64c-1.26,2.43-3.56,4.18-7.47,4.18C77.45,160.81,74.08,158,74.08,152.08Z" fill="#fff"/><path d="M101.84,126.39h8v33.88h-8Z" fill="#fff"/><path d="M113,148.75v-.36c0-8,4.41-12.28,10-12.28,3.69,0,5.9,1.57,7.25,4V126.39h8v33.88h-8v-3.82a7.93,7.93,0,0,1-7.34,4.36C117.46,160.81,113,156.9,113,148.75Zm17.46-.13v-.36c0-4-1.66-6.08-4.63-6.08s-4.64,2-4.64,6.12v.36c0,4,1.76,6,4.55,6S130.46,152.62,130.46,148.62Z" fill="#fff"/><path d="M149.27,160.27h8c.36,1.71,1.4,3.06,4.32,3.06,3.56,0,5-2,5-5v-3.6a8.26,8.26,0,0,1-7.29,4.32c-5.49,0-10-4-10-11.29v-.36c0-6.93,4.45-11.34,10-11.34,3.73,0,5.94,1.57,7.29,4v-3.33h8.05v21.55c0,7-4.63,10.71-13.05,10.71C153.59,169,149.9,165.63,149.27,160.27Zm17.55-12.51v-.31c0-3.24-1.66-5.31-4.63-5.31s-4.64,2.11-4.64,5.35v.36c0,3.24,1.71,5.31,4.59,5.31S166.82,151.09,166.82,147.76Z" fill="#fff"/><path d="M177.49,148.8v-.36c0-7.56,5.62-12.33,12.73-12.33,6.44,0,12,3.69,12,12.15v2.11H185.63c.23,3.11,2,4.91,4.91,4.91,2.65,0,3.78-1.22,4.09-2.79h7.56c-.72,5.31-4.81,8.32-11.92,8.32C182.89,160.81,177.49,156.49,177.49,148.8Zm16.87-3c-.13-2.84-1.53-4.41-4.14-4.41-2.43,0-4.09,1.57-4.5,4.41Z" fill="#fff"/><path d="M206.06,152.71V142.23h-2.83v-5.49h2.83v-4.91h8.06v4.91h4.63v5.49h-4.63V152c0,1.71.85,2.47,2.38,2.47a6.16,6.16,0,0,0,2.3-.4v6.12a17,17,0,0,1-4.46.67C209,160.81,206.06,158.25,206.06,152.71Z" fill="#fff"/><path d="M228.65,153.75c0-5.54,4.68-7.7,12.51-7.7h2.25v-.54c0-2.25-.54-3.73-3.1-3.73a2.89,2.89,0,0,0-3.2,2.79h-7.56c.36-5.67,4.82-8.46,11.25-8.46s10.62,2.65,10.62,8.91v15.25h-7.83v-2.74c-1.12,1.71-3.19,3.28-7,3.28C232.39,160.81,228.65,158.74,228.65,153.75ZM243.41,152V150.6H241.3c-3.24,0-4.68.63-4.68,2.56,0,1.35.9,2.21,2.79,2.21C241.7,155.37,243.41,154.06,243.41,152Z" fill="#fff"/><path d="M22.1,175.1H34.7c8.42,0,13.1,3.42,13.1,10.21v.18A8.4,8.4,0,0,1,42,194l7.7,13.32H40l-6.53-11.52H31.28v11.52H22.1Zm12.15,14.67c3.11,0,4.64-1.31,4.64-3.92v-.18c0-2.61-1.62-3.64-4.59-3.64h-3v7.74Z" fill="#fff"/><path d="M49.69,195.8v-.36c0-7.56,5.62-12.33,12.73-12.33,6.44,0,12,3.69,12,12.15v2.11H57.83c.23,3.11,2,4.91,4.91,4.91,2.65,0,3.78-1.22,4.09-2.79h7.56c-.72,5.31-4.81,8.32-11.92,8.32C55.09,207.81,49.69,203.49,49.69,195.8Zm16.87-3c-.13-2.84-1.53-4.41-4.14-4.41-2.43,0-4.09,1.57-4.5,4.41Z" fill="#fff"/><path d="M78.4,189.23h-3v-5.49h3v-2.07c0-5.85,3.64-8.64,9.22-8.64a14.34,14.34,0,0,1,3.69.49v5.9a7.32,7.32,0,0,0-2.2-.32,2.37,2.37,0,0,0-2.7,2.57v2.07h4.77v5.49H86.41v18h-8Z" fill="#fff"/><path d="M93.7,199.08V183.74h8v14c0,2.65,1,4,3.33,4s4-1.44,4-4.46V183.74h8v23.53h-8v-3.64c-1.26,2.43-3.56,4.18-7.47,4.18C97.07,207.81,93.7,205,93.7,199.08Z" fill="#fff"/><path d="M121.24,183.74h8v3.78a8.31,8.31,0,0,1,7.74-4.41c4.55,0,7.7,2.83,7.7,8.86v15.3h-8.06V193.59c0-2.65-1-4-3.37-4s-4,1.44-4,4.46v13.18h-8Z" fill="#fff"/><path d="M147.47,195.75v-.36c0-8,4.41-12.28,10-12.28,3.69,0,5.9,1.57,7.25,4V173.39h8v33.88h-8v-3.82a7.93,7.93,0,0,1-7.34,4.36C151.93,207.81,147.47,203.9,147.47,195.75Zm17.46-.13v-.36c0-4-1.66-6.08-4.63-6.08s-4.64,2-4.64,6.12v.36c0,4,1.76,6,4.55,6S164.93,199.62,164.93,195.62Z" fill="#fff"/><path d="M29.89,222.1H41.81L52,254.27H42.26l-1.71-6H29.89l-1.71,6h-8.6Zm1.8,19.84h7.06l-3.51-12.37Z" fill="#fff"/><path d="M52.57,242.75v-.36c0-8,4.41-12.28,10-12.28,3.69,0,5.89,1.57,7.24,4V220.39h8.06v33.88H69.8v-3.82a7.92,7.92,0,0,1-7.33,4.36C57,254.81,52.57,250.9,52.57,242.75ZM70,242.62v-.36c0-4-1.67-6.08-4.63-6.08s-4.64,2-4.64,6.12v.36c0,4,1.76,6,4.54,6C68.23,248.65,70,246.62,70,242.62Z" fill="#fff"/><path d="M79.93,230.74h8.59l4.91,15.16,4.81-15.16h7.7l-8.6,23.53H88.57Z" fill="#fff"/><path d="M105.62,247.75c0-5.54,4.69-7.7,12.51-7.7h2.25v-.54c0-2.25-.54-3.73-3.1-3.73a2.89,2.89,0,0,0-3.2,2.79h-7.55c.36-5.67,4.81-8.46,11.24-8.46s10.62,2.65,10.62,8.91v15.25h-7.83v-2.74c-1.12,1.71-3.19,3.28-7,3.28C109.36,254.81,105.62,252.74,105.62,247.75ZM120.38,246V244.6h-2.11c-3.24,0-4.68.63-4.68,2.56,0,1.35.9,2.21,2.79,2.21C118.67,249.37,120.38,248.06,120.38,246Z" fill="#fff"/><path d="M132.31,230.74h8.05v3.78a8.31,8.31,0,0,1,7.74-4.41c4.55,0,7.7,2.83,7.7,8.86v15.3h-8.06V240.59c0-2.65-1-4-3.37-4s-4,1.44-4,4.46v13.18h-8.05Z" fill="#fff"/><path d="M158.45,242.8v-.36c0-7.83,5.63-12.33,12.56-12.33,5.76,0,11.07,2.52,11.52,9.67H175c-.36-2.2-1.44-3.42-3.78-3.42-2.84,0-4.5,2-4.5,6v.36c0,4.09,1.57,6.21,4.63,6.21,2.25,0,3.83-1.35,4.1-3.92h7.24c-.22,5.94-4.23,9.81-11.83,9.81C163.81,254.81,158.45,250.72,158.45,242.8Z" fill="#fff"/><path d="M184,242.8v-.36c0-7.56,5.63-12.33,12.74-12.33,6.43,0,12,3.69,12,12.15v2.11H192.16c.22,3.11,2,4.91,4.9,4.91,2.66,0,3.78-1.22,4.1-2.79h7.56c-.72,5.31-4.82,8.32-11.93,8.32C189.41,254.81,184,250.49,184,242.8Zm16.88-3c-.14-2.84-1.53-4.41-4.14-4.41-2.43,0-4.1,1.57-4.5,4.41Z" fill="#fff"/><path d="M21.61,267.39h8v33.88h-8Z" fill="#fff"/><path d="M32.68,289.8v-.36c0-7.56,5.62-12.33,12.91-12.33s12.83,4.63,12.83,12.1v.36c0,7.65-5.63,12.24-12.87,12.24S32.68,297.4,32.68,289.8Zm17.55-.14v-.36c0-4-1.58-6.16-4.64-6.16s-4.68,2.11-4.68,6.07v.36c0,4.05,1.58,6.26,4.68,6.26S50.23,293.58,50.23,289.66Z" fill="#fff"/><path d="M59.9,294.75c0-5.54,4.68-7.7,12.51-7.7h2.25v-.54c0-2.25-.54-3.73-3.1-3.73a2.89,2.89,0,0,0-3.2,2.79H60.8c.36-5.67,4.82-8.46,11.25-8.46s10.62,2.65,10.62,8.91v15.25H74.84v-2.74c-1.12,1.71-3.19,3.28-7,3.28C63.64,301.81,59.9,299.74,59.9,294.75ZM74.66,293V291.6H72.55c-3.24,0-4.68.63-4.68,2.56,0,1.35.9,2.21,2.79,2.21C73,296.37,74.66,295.06,74.66,293Z" fill="#fff"/><path d="M86.59,277.74h8v3.78a8.31,8.31,0,0,1,7.74-4.41c4.55,0,7.7,2.83,7.7,8.86v15.3H102V287.59c0-2.65-1-4-3.37-4s-4,1.44-4,4.46v13.18h-8Z" fill="#fff"/><path d="M113.68,297.22a4.48,4.48,0,0,1,4.59-4.54,4.55,4.55,0,1,1,0,9.09A4.49,4.49,0,0,1,113.68,297.22Z" fill="#fff"/><path d="M20.62,332.88v-1.35c0-10.17,6.34-15.88,14.85-15.88s14.85,5.26,14.85,15.7v1.26c0,10.22-5.85,16.2-15,16.2C26.29,348.81,20.62,343,20.62,332.88Zm20.47-.09v-1.3c0-5.9-1.71-8.87-5.62-8.87s-5.63,2.93-5.63,8.87v1.35c0,6,1.76,8.82,5.72,8.82S41.09,338.73,41.09,332.79Z" fill="#fff"/><path d="M52.08,323.75c0-4.55,3.64-8,8.54-8s8.51,3.28,8.51,7.87-3.33,8.28-8.55,8.28S52.08,328.38,52.08,323.75Zm26.5-7.65H83L60.67,348.27H56.26Zm-15.39,7.65c0-2.12-.9-3.42-2.57-3.42S58,321.59,58,323.7s1,3.51,2.65,3.51S63.19,325.86,63.19,323.75ZM70,340.67c0-4.59,3.69-8,8.55-8S87,335.9,87,340.53s-3.33,8.28-8.55,8.28S70,345.3,70,340.67Zm11.16-.05c0-2.07-.9-3.37-2.61-3.37s-2.61,1.26-2.61,3.37,1,3.47,2.61,3.47S81.14,342.78,81.14,340.62Z" fill="#fff"/><path d="M97.88,318.35a4.21,4.21,0,0,1,4.41-4.19,4.17,4.17,0,1,1,0,8.33A4.17,4.17,0,0,1,97.88,318.35Zm.41,6.39h8v23.53h-8Z" fill="#fff"/><path d="M110.66,324.74h8.06v3.78a8.3,8.3,0,0,1,7.74-4.41c4.54,0,7.69,2.83,7.69,8.86v15.3H126.1V334.59c0-2.65-1-4-3.38-4s-4,1.44-4,4.46v13.18h-8.06Z" fill="#fff"/><path d="M139.15,340.71V330.23h-2.84v-5.49h2.84v-4.91h8v4.91h4.64v5.49H147.2V340a2.15,2.15,0,0,0,2.39,2.47,6.11,6.11,0,0,0,2.29-.4v6.12a16.85,16.85,0,0,1-4.45.67C142.12,348.81,139.15,346.25,139.15,340.71Z" fill="#fff"/><path d="M153.64,336.8v-.36c0-7.56,5.62-12.33,12.73-12.33,6.44,0,12,3.69,12,12.15v2.11H161.78c.23,3.11,2,4.91,4.91,4.91,2.65,0,3.78-1.22,4.09-2.79h7.56c-.72,5.31-4.81,8.32-11.92,8.32C159,348.81,153.64,344.49,153.64,336.8Zm16.87-3c-.13-2.84-1.53-4.41-4.14-4.41-2.43,0-4.09,1.57-4.5,4.41Z" fill="#fff"/><path d="M181.13,324.74h8.06v4.68a7.42,7.42,0,0,1,7.6-5v7.52c-4.9-.14-7.6,1.39-7.6,5.17v11.16h-8.06Z" fill="#fff"/><path d="M198.23,336.8v-.36c0-7.56,5.63-12.33,12.74-12.33,6.43,0,12,3.69,12,12.15v2.11H206.38c.22,3.11,2,4.91,4.9,4.91,2.66,0,3.78-1.22,4.1-2.79h7.56c-.72,5.31-4.82,8.32-11.93,8.32C203.63,348.81,198.23,344.49,198.23,336.8Zm16.88-3c-.14-2.84-1.53-4.41-4.14-4.41-2.43,0-4.1,1.57-4.5,4.41Z" fill="#fff"/><path d="M224.38,340.8h7.42c.27,1.71,1,2.66,3.33,2.66,2,0,2.88-.77,2.88-1.94s-1.12-1.66-4.36-2.11c-6.3-.81-9-2.66-9-7.56,0-5.22,4.64-7.74,10.08-7.74,5.81,0,9.86,2,10.4,7.6h-7.29c-.32-1.57-1.17-2.34-3-2.34s-2.65.77-2.65,1.85,1.08,1.57,4,1.93c6.52.81,9.67,2.52,9.67,7.56,0,5.58-4.14,8.1-10.66,8.1C228.47,348.81,224.56,346,224.38,340.8Z" fill="#fff"/><path d="M249.53,340.71V330.23H246.7v-5.49h2.83v-4.91h8.06v4.91h4.63v5.49h-4.63V340c0,1.71.85,2.47,2.38,2.47a6.16,6.16,0,0,0,2.3-.4v6.12a17,17,0,0,1-4.46.67C252.5,348.81,249.53,346.25,249.53,340.71Z" fill="#fff"/><path d="M265,344.22a4.48,4.48,0,0,1,4.59-4.54,4.55,4.55,0,1,1,0,9.09A4.49,4.49,0,0,1,265,344.22Z" fill="#fff"/><path d="M20,385.06h8.77c.22,2.29,1.26,4.18,5.08,4.18,2.66,0,4.14-1.3,4.14-3.19s-1.21-2.52-5.08-3.11c-9.09-1.08-12.15-3.78-12.15-10.26,0-5.8,4.77-10,12.46-10s12.11,3.24,12.69,10H37.4c-.31-2.29-1.62-3.46-4.14-3.46s-3.73,1.12-3.73,2.74c0,1.8,1,2.61,5,3.15,8.15.9,12.33,3,12.33,10,0,5.9-4.68,10.71-13,10.71C24.89,395.81,20.31,392,20,385.06Z" fill="#fff"/><path d="M50.9,387.71V377.23H48.07v-5.49H50.9v-4.91H59v4.91h4.63v5.49H59V387c0,1.71.85,2.47,2.38,2.47a6.16,6.16,0,0,0,2.3-.4v6.12a17,17,0,0,1-4.46.67C53.87,395.81,50.9,393.25,50.9,387.71Z" fill="#fff"/><path d="M65.39,388.75c0-5.54,4.68-7.7,12.51-7.7h2.25v-.54c0-2.25-.54-3.73-3.1-3.73a2.89,2.89,0,0,0-3.2,2.79H66.29c.36-5.67,4.82-8.46,11.25-8.46s10.62,2.65,10.62,8.91v15.25H80.33v-2.74c-1.12,1.71-3.19,3.28-7,3.28C69.13,395.81,65.39,393.74,65.39,388.75ZM80.15,387V385.6H78c-3.24,0-4.68.63-4.68,2.56,0,1.35.9,2.21,2.79,2.21C78.44,390.37,80.15,389.06,80.15,387Z" fill="#fff"/><path d="M92.08,371.74h8v4.68a7.43,7.43,0,0,1,7.61-5v7.52c-4.91-.14-7.61,1.39-7.61,5.17v11.16h-8Z" fill="#fff"/><path d="M112.1,387.71V377.23h-2.83v-5.49h2.83v-4.91h8.06v4.91h4.63v5.49h-4.63V387c0,1.71.85,2.47,2.38,2.47a6.16,6.16,0,0,0,2.3-.4v6.12a17,17,0,0,1-4.46.67C115.07,395.81,112.1,393.25,112.1,387.71Z" fill="#fff"/><path d="M126.59,387.8H134c.27,1.71,1,2.66,3.33,2.66,2,0,2.88-.77,2.88-1.94s-1.13-1.66-4.37-2.11c-6.3-.81-9-2.66-9-7.56,0-5.22,4.63-7.74,10.08-7.74,5.8,0,9.85,2,10.39,7.6h-7.29c-.31-1.57-1.17-2.34-3-2.34s-2.66.77-2.66,1.85,1.08,1.57,4,1.93c6.53.81,9.68,2.52,9.68,7.56,0,5.58-4.14,8.1-10.67,8.1C130.69,395.81,126.77,393,126.59,387.8Z" fill="#fff"/><path d="M158,394.6v-6.89a10.88,10.88,0,0,0,3.91.63c2.52,0,4.19-1.12,4.19-4.45V363.1h9.27V384c0,7.74-4,11.7-11.52,11.7A12.35,12.35,0,0,1,158,394.6Z" fill="#fff"/><path d="M177.89,388.75c0-5.54,4.68-7.7,12.51-7.7h2.25v-.54c0-2.25-.54-3.73-3.1-3.73a2.89,2.89,0,0,0-3.2,2.79h-7.56c.36-5.67,4.82-8.46,11.25-8.46s10.62,2.65,10.62,8.91v15.25h-7.83v-2.74c-1.12,1.71-3.19,3.28-7,3.28C181.63,395.81,177.89,393.74,177.89,388.75ZM192.65,387V385.6h-2.11c-3.24,0-4.68.63-4.68,2.56,0,1.35.9,2.21,2.79,2.21C190.94,390.37,192.65,389.06,192.65,387Z" fill="#fff"/><path d="M204.58,371.74h8v3.78a8.31,8.31,0,0,1,7.74-4.41c4.55,0,7.7,2.83,7.7,8.86v15.3H220V381.59c0-2.65-1-4-3.37-4s-4,1.44-4,4.46v13.18h-8Z" fill="#fff"/><path d="M254.25,389.11H238.6v-3.47L252,363.1h11.12v19.66h4.14v6.35h-4.14v6.16h-8.87Zm.23-6.35V370l-7.2,12.73Z" fill="#fff"/><path d="M269.24,391.22a4.49,4.49,0,0,1,4.59-4.54,4.55,4.55,0,1,1,0,9.09A4.49,4.49,0,0,1,269.24,391.22Z" fill="#fff"/></g></g><g id="Legal"><g id="Optional_loan_from_Axos_Bank_within_minutes_of_filing._Not_your" data-name="Optional loan from Axos Bank within minutes of filing. Not your"><path d="M20.5,465v-.08a3.16,3.16,0,1,1,6.31,0v.07a3.16,3.16,0,1,1-6.31,0Zm5.5,0v-.07a2.37,2.37,0,0,0-2.34-2.61,2.34,2.34,0,0,0-2.35,2.62v.08a2.42,2.42,0,0,0,2.37,2.62A2.35,2.35,0,0,0,26,464.92Z" fill="#fff"/><path d="M27.92,463.42h.75v.79a1.94,1.94,0,0,1,1.59-.88,2.14,2.14,0,0,1,2.14,2.37v.07a2.17,2.17,0,0,1-2.14,2.43,1.78,1.78,0,0,1-1.59-.85v2.41h-.75Zm3.71,2.39v-.07c0-1.19-.66-1.78-1.45-1.78s-1.54.57-1.54,1.78v.07c0,1.21.63,1.77,1.55,1.77S31.63,467,31.63,465.81Z" fill="#fff"/><path d="M33.59,466.94V464h-.67v-.62h.67v-1.08h.75v1.08h1.1V464h-1.1v2.83c0,.46.2.69.58.69a1.59,1.59,0,0,0,.58-.1v.63a1.85,1.85,0,0,1-.64.1A1.15,1.15,0,0,1,33.59,466.94Z" fill="#fff"/><path d="M36.37,461.94a.51.51,0,0,1,.5-.5.5.5,0,0,1,.49.5.49.49,0,0,1-.49.49A.5.5,0,0,1,36.37,461.94Zm.14,1.48h.74v4.7h-.74Z" fill="#fff"/><path d="M38.3,465.81v-.07a2.31,2.31,0,1,1,4.62,0v.07a2.31,2.31,0,1,1-4.62,0Zm3.85,0v-.06c0-1.09-.6-1.79-1.54-1.79a1.56,1.56,0,0,0-1.54,1.78v.07a1.55,1.55,0,1,0,3.08,0Z" fill="#fff"/><path d="M44,463.42h.75v.74a1.6,1.6,0,0,1,1.51-.83c1,0,1.66.53,1.66,1.9v2.89h-.75v-2.94c0-.83-.35-1.2-1.11-1.2a1.24,1.24,0,0,0-1.31,1.29v2.85H44Z" fill="#fff"/><path d="M48.81,466.82c0-1.09,1.15-1.46,2.36-1.46h.67V465c0-.75-.29-1.06-1-1.06s-1,.26-1.08.84H49a1.65,1.65,0,0,1,1.86-1.47A1.52,1.52,0,0,1,52.59,465v3.1h-.75v-.59a1.68,1.68,0,0,1-1.46.67C49.5,468.2,48.81,467.78,48.81,466.82Zm3-.34v-.59h-.65c-.94,0-1.63.23-1.63.93,0,.48.23.79.89.79S51.84,467.21,51.84,466.48Z" fill="#fff"/><path d="M53.94,461.16h.75v7h-.75Z" fill="#fff"/><path d="M58.36,461.16h.75v7h-.75Z" fill="#fff"/><path d="M60.16,465.81v-.07a2.32,2.32,0,1,1,4.63,0v.07a2.32,2.32,0,1,1-4.63,0Zm3.85,0v-.06c0-1.09-.6-1.79-1.54-1.79a1.56,1.56,0,0,0-1.54,1.78v.07a1.55,1.55,0,1,0,3.08,0Z" fill="#fff"/><path d="M65.42,466.82c0-1.09,1.15-1.46,2.36-1.46h.68V465c0-.75-.29-1.06-1-1.06s-1,.26-1.08.84h-.75a1.65,1.65,0,0,1,1.86-1.47A1.52,1.52,0,0,1,69.2,465v3.1h-.74v-.59a1.7,1.7,0,0,1-1.47.67C66.12,468.2,65.42,467.78,65.42,466.82Zm3-.34v-.59h-.65c-1,0-1.64.23-1.64.93,0,.48.23.79.89.79S68.46,467.21,68.46,466.48Z" fill="#fff"/><path d="M70.53,463.42h.75v.74a1.63,1.63,0,0,1,1.51-.83c1,0,1.66.53,1.66,1.9v2.89H73.7v-2.94c0-.83-.35-1.2-1.1-1.2a1.24,1.24,0,0,0-1.32,1.29v2.85h-.75Z" fill="#fff"/><path d="M78.19,464h-.67v-.62h.67v-.77c0-.95.47-1.51,1.41-1.51a1.4,1.4,0,0,1,.56.09v.63a1.41,1.41,0,0,0-.54-.1c-.48,0-.68.33-.68.81v.85h1.15V464H78.94v4.08h-.75Z" fill="#fff"/><path d="M81,463.42h.75v.84a1.64,1.64,0,0,1,1.55-.93V464c-1,0-1.55.34-1.55,1.5v2.58H81Z" fill="#fff"/><path d="M83.77,465.81v-.07a2.32,2.32,0,1,1,4.63,0v.07a2.32,2.32,0,1,1-4.63,0Zm3.86,0v-.06c0-1.09-.61-1.79-1.54-1.79s-1.54.7-1.54,1.78v.07c0,1.07.58,1.77,1.54,1.77A1.57,1.57,0,0,0,87.63,465.81Z" fill="#fff"/><path d="M89.43,463.42h.74v.71a1.54,1.54,0,0,1,1.41-.8,1.36,1.36,0,0,1,1.37.89,1.83,1.83,0,0,1,1.62-.89c.84,0,1.58.51,1.58,1.88v2.91H95.4v-3c0-.83-.35-1.17-1-1.17a1.21,1.21,0,0,0-1.24,1.26v2.88h-.75v-3c0-.83-.35-1.17-1-1.17a1.21,1.21,0,0,0-1.25,1.26v2.88h-.74Z" fill="#fff"/><path d="M101.51,461.69h1l2.18,6.43h-.78l-.63-1.85h-2.65l-.62,1.85H99.3Zm-.64,4h2.24L102,462.33Z" fill="#fff"/><path d="M106.84,465.7l-1.57-2.28h.87l1.15,1.7,1.14-1.7h.81l-1.55,2.23,1.72,2.47h-.89l-1.27-1.9-1.29,1.9h-.8Z" fill="#fff"/><path d="M109.7,465.81v-.07a2.32,2.32,0,1,1,4.63,0v.07a2.32,2.32,0,1,1-4.63,0Zm3.86,0v-.06c0-1.09-.61-1.79-1.54-1.79s-1.54.7-1.54,1.78v.07c0,1.07.58,1.77,1.54,1.77A1.57,1.57,0,0,0,113.56,465.81Z" fill="#fff"/><path d="M115,466.67h.73c0,.56.35.91,1.1.91s1-.24,1-.74-.37-.66-1.1-.8c-1.22-.22-1.64-.56-1.64-1.38a1.47,1.47,0,0,1,1.6-1.33,1.51,1.51,0,0,1,1.7,1.36h-.72c-.11-.51-.4-.73-1-.73s-.89.26-.89.67.23.59,1.09.75,1.66.39,1.66,1.39-.58,1.43-1.73,1.43S115,467.64,115,466.67Z" fill="#fff"/><path d="M121.84,461.69h1.94c1.2,0,2.07.39,2.07,1.66v0a1.32,1.32,0,0,1-1,1.36,1.41,1.41,0,0,1,1.28,1.54v0c0,1.22-.82,1.8-2.11,1.8h-2.21Zm1.94,2.81c.94,0,1.3-.35,1.3-1.14v0c0-.72-.42-1-1.32-1h-1.15v2.2Zm.25,3c.94,0,1.37-.41,1.37-1.2v0c0-.79-.44-1.17-1.48-1.17h-1.31v2.4Z" fill="#fff"/><path d="M126.86,466.82c0-1.09,1.16-1.46,2.36-1.46h.68V465c0-.75-.29-1.06-1-1.06s-1,.26-1.08.84h-.75a1.66,1.66,0,0,1,1.87-1.47,1.52,1.52,0,0,1,1.72,1.69v3.1h-.75v-.59a1.7,1.7,0,0,1-1.47.67C127.56,468.2,126.86,467.78,126.86,466.82Zm3-.34v-.59h-.65c-.94,0-1.64.23-1.64.93,0,.48.24.79.89.79C129.3,467.61,129.9,467.21,129.9,466.48Z" fill="#fff"/><path d="M132,463.42h.74v.74a1.63,1.63,0,0,1,1.52-.83c1,0,1.65.53,1.65,1.9v2.89h-.74v-2.94c0-.83-.36-1.2-1.11-1.2a1.24,1.24,0,0,0-1.32,1.29v2.85H132Z" fill="#fff"/><path d="M137.22,461.16H138v4.42l1.95-2.16h.88l-2,2.18,2.19,2.52h-.91L138,465.68v2.44h-.75Z" fill="#fff"/><path d="M143.48,463.42h.81l1.1,3.79,1.14-3.79h.65l1.07,3.79,1.11-3.79h.76l-1.46,4.7h-.83l-1-3.53-1.1,3.53h-.82Z" fill="#fff"/><path d="M150.88,461.94a.5.5,0,0,1,.49-.5.51.51,0,0,1,.5.5.5.5,0,0,1-.5.49A.49.49,0,0,1,150.88,461.94Zm.13,1.48h.75v4.7H151Z" fill="#fff"/><path d="M153.32,466.94V464h-.68v-.62h.68v-1.08h.74v1.08h1.1V464h-1.1v2.83c0,.46.21.69.59.69a1.57,1.57,0,0,0,.57-.1v.63a1.85,1.85,0,0,1-.64.1A1.14,1.14,0,0,1,153.32,466.94Z" fill="#fff"/><path d="M156.21,461.16H157v3a1.63,1.63,0,0,1,1.51-.83c1,0,1.66.53,1.66,1.9v2.89h-.75v-2.94c0-.83-.35-1.2-1.1-1.2a1.24,1.24,0,0,0-1.32,1.29v2.85h-.75Z" fill="#fff"/><path d="M161.34,461.94a.51.51,0,0,1,.5-.5.5.5,0,0,1,.49.5.49.49,0,0,1-.49.49A.5.5,0,0,1,161.34,461.94Zm.14,1.48h.75v4.7h-.75Z" fill="#fff"/><path d="M163.62,463.42h.75v.74a1.61,1.61,0,0,1,1.51-.83c1,0,1.66.53,1.66,1.9v2.89h-.75v-2.94c0-.83-.35-1.2-1.11-1.2a1.24,1.24,0,0,0-1.31,1.29v2.85h-.75Z" fill="#fff"/><path d="M171.12,463.42h.74v.71a1.54,1.54,0,0,1,1.41-.8,1.38,1.38,0,0,1,1.38.89,1.8,1.8,0,0,1,1.61-.89c.84,0,1.58.51,1.58,1.88v2.91h-.75v-3c0-.83-.35-1.17-1-1.17a1.21,1.21,0,0,0-1.25,1.26v2.88h-.74v-3c0-.83-.36-1.17-1-1.17a1.21,1.21,0,0,0-1.25,1.26v2.88h-.74Z" fill="#fff"/><path d="M179.05,461.94a.51.51,0,0,1,.5-.5.5.5,0,0,1,.49.5.49.49,0,0,1-.49.49A.5.5,0,0,1,179.05,461.94Zm.14,1.48h.75v4.7h-.75Z" fill="#fff"/><path d="M181.33,463.42h.75v.74a1.61,1.61,0,0,1,1.51-.83c1,0,1.66.53,1.66,1.9v2.89h-.75v-2.94c0-.83-.35-1.2-1.11-1.2a1.24,1.24,0,0,0-1.31,1.29v2.85h-.75Z" fill="#fff"/><path d="M186.53,466.39v-3h.75v2.94c0,.83.35,1.2,1.09,1.2a1.25,1.25,0,0,0,1.3-1.29v-2.85h.74v4.7h-.74v-.74a1.61,1.61,0,0,1-1.5.82C187.24,468.2,186.53,467.69,186.53,466.39Z" fill="#fff"/><path d="M192,466.94V464h-.67v-.62H192v-1.08h.75v1.08h1.1V464h-1.1v2.83c0,.46.21.69.58.69a1.59,1.59,0,0,0,.58-.1v.63a1.85,1.85,0,0,1-.64.1A1.15,1.15,0,0,1,192,466.94Z" fill="#fff"/><path d="M194.5,465.82v-.07a2.22,2.22,0,0,1,2.2-2.42,2.06,2.06,0,0,1,2.12,2.34v.25h-3.55c0,1.07.55,1.66,1.52,1.66.72,0,1.15-.27,1.25-.82h.74a1.8,1.8,0,0,1-2,1.44A2.21,2.21,0,0,1,194.5,465.82Zm3.55-.51c-.07-1-.57-1.35-1.35-1.35a1.41,1.41,0,0,0-1.4,1.35Z" fill="#fff"/><path d="M199.48,466.67h.73c.06.56.35.91,1.11.91s1-.24,1-.74-.37-.66-1.1-.8c-1.23-.22-1.64-.56-1.64-1.38a1.47,1.47,0,0,1,1.59-1.33,1.52,1.52,0,0,1,1.71,1.36h-.72c-.11-.51-.4-.73-1-.73s-.9.26-.9.67.24.59,1.1.75,1.66.39,1.66,1.39-.59,1.43-1.73,1.43S199.53,467.64,199.48,466.67Z" fill="#fff"/><path d="M206,465.81v-.07a2.31,2.31,0,1,1,4.62,0v.07a2.31,2.31,0,1,1-4.62,0Zm3.85,0v-.06c0-1.09-.6-1.79-1.54-1.79s-1.54.7-1.54,1.78v.07a1.55,1.55,0,1,0,3.08,0Z" fill="#fff"/><path d="M211.77,464h-.68v-.62h.68v-.77c0-.95.47-1.51,1.4-1.51a1.37,1.37,0,0,1,.56.09v.63a1.32,1.32,0,0,0-.53-.1c-.49,0-.68.33-.68.81v.85h1.15V464h-1.15v4.08h-.75Z" fill="#fff"/><path d="M217,464h-.68v-.62H217v-.77c0-.95.47-1.51,1.4-1.51a1.37,1.37,0,0,1,.56.09v.63a1.32,1.32,0,0,0-.53-.1c-.49,0-.68.33-.68.81v.85h1.15V464h-1.15v4.08H217Z" fill="#fff"/><path d="M219.7,461.94a.5.5,0,0,1,.49-.5.51.51,0,0,1,.5.5.5.5,0,0,1-.5.49A.49.49,0,0,1,219.7,461.94Zm.13,1.48h.75v4.7h-.75Z" fill="#fff"/><path d="M222,461.16h.76v7H222Z" fill="#fff"/><path d="M224,461.94a.5.5,0,0,1,.49-.5.51.51,0,0,1,.5.5.5.5,0,0,1-.5.49A.49.49,0,0,1,224,461.94Zm.13,1.48h.75v4.7h-.75Z" fill="#fff"/><path d="M226.3,463.42h.75v.74a1.63,1.63,0,0,1,1.51-.83c1,0,1.66.53,1.66,1.9v2.89h-.75v-2.94c0-.83-.35-1.2-1.1-1.2a1.24,1.24,0,0,0-1.32,1.29v2.85h-.75Z" fill="#fff"/><path d="M231.3,468.39h.76c.11.54.56.82,1.36.82a1.33,1.33,0,0,0,1.52-1.45v-.68a2,2,0,0,1-1.6.89,2.12,2.12,0,0,1-2.14-2.23v-.07a2.23,2.23,0,0,1,2.2-2.34,1.69,1.69,0,0,1,1.54.84v-.75h.74v4.39a2,2,0,0,1-2.25,2C232,469.84,231.42,469.19,231.3,468.39Zm3.66-2.71v-.06a1.45,1.45,0,0,0-1.49-1.66,1.5,1.5,0,0,0-1.5,1.68v.07a1.49,1.49,0,0,0,1.45,1.64A1.51,1.51,0,0,0,235,465.68Z" fill="#fff"/><path d="M237,467.59a.58.58,0,1,1,.57.58A.57.57,0,0,1,237,467.59Z" fill="#fff"/><path d="M20.81,470.69h1L25,476v-5.32h.75v6.43h-.9l-3.25-5.52v5.52h-.75Z" fill="#fff"/><path d="M26.79,474.81v-.07a2.31,2.31,0,1,1,4.62,0v.07a2.31,2.31,0,1,1-4.62,0Zm3.85,0v-.06c0-1.09-.6-1.79-1.54-1.79s-1.54.7-1.54,1.78v.07a1.55,1.55,0,1,0,3.08,0Z" fill="#fff"/><path d="M32.6,475.94V473h-.68v-.62h.68v-1.08h.75v1.08h1.1V473h-1.1v2.83c0,.46.2.69.58.69a1.59,1.59,0,0,0,.58-.1v.63a1.85,1.85,0,0,1-.64.1A1.15,1.15,0,0,1,32.6,475.94Z" fill="#fff"/><path d="M39.06,476.64l-1.84-4.22H38l1.44,3.37,1.3-3.37h.77l-2.6,6.34h-.76Z" fill="#fff"/><path d="M41.89,474.81v-.07a2.32,2.32,0,1,1,4.63,0v.07a2.32,2.32,0,1,1-4.63,0Zm3.85,0v-.06c0-1.09-.6-1.79-1.54-1.79a1.56,1.56,0,0,0-1.54,1.78v.07a1.55,1.55,0,1,0,3.08,0Z" fill="#fff"/><path d="M47.5,475.39v-3h.74v2.94c0,.83.35,1.2,1.09,1.2a1.25,1.25,0,0,0,1.3-1.29v-2.85h.75v4.7h-.75v-.74a1.61,1.61,0,0,1-1.5.82C48.2,477.2,47.5,476.69,47.5,475.39Z" fill="#fff"/><path d="M52.75,472.42h.75v.84a1.64,1.64,0,0,1,1.55-.93V473c-.95,0-1.55.34-1.55,1.5v2.58h-.75Z" fill="#fff"/><path d="M58.41,475.94V473h-.67v-.62h.67v-1.08h.75v1.08h1.1V473h-1.1v2.83c0,.46.21.69.58.69a1.59,1.59,0,0,0,.58-.1v.63a1.85,1.85,0,0,1-.64.1A1.15,1.15,0,0,1,58.41,475.94Z" fill="#fff"/><path d="M61,475.82c0-1.09,1.15-1.46,2.36-1.46H64V474c0-.75-.29-1.06-1-1.06s-1,.26-1.08.84h-.74A1.64,1.64,0,0,1,63,472.33,1.52,1.52,0,0,1,64.75,474v3.1H64v-.59a1.69,1.69,0,0,1-1.47.67C61.66,477.2,61,476.78,61,475.82Zm3-.34v-.59h-.65c-.94,0-1.64.23-1.64.93,0,.48.24.79.9.79S64,476.21,64,475.48Z" fill="#fff"/><path d="M67.26,474.7l-1.58-2.28h.88l1.15,1.7,1.14-1.7h.81l-1.56,2.23,1.72,2.47h-.88l-1.27-1.9-1.29,1.9h-.8Z" fill="#fff"/><path d="M73,472.42h.74v.84a1.66,1.66,0,0,1,1.55-.93V473c-.94,0-1.55.34-1.55,1.5v2.58H73Z" fill="#fff"/><path d="M75.71,474.82v-.07a2.22,2.22,0,0,1,2.21-2.42A2.06,2.06,0,0,1,80,474.67v.25H76.48c0,1.07.55,1.66,1.52,1.66.73,0,1.15-.27,1.25-.82H80a1.8,1.8,0,0,1-2,1.44A2.21,2.21,0,0,1,75.71,474.82Zm3.56-.51c-.08-1-.58-1.35-1.35-1.35a1.41,1.41,0,0,0-1.41,1.35Z" fill="#fff"/><path d="M81.2,473h-.68v-.62h.68v-.77c0-.95.47-1.51,1.4-1.51a1.37,1.37,0,0,1,.56.09v.63a1.32,1.32,0,0,0-.53-.1c-.49,0-.68.33-.68.81v.85H83.1V473H82v4.08H81.2Z" fill="#fff"/><path d="M84,475.39v-3h.75v2.94c0,.83.35,1.2,1.09,1.2a1.24,1.24,0,0,0,1.29-1.29v-2.85h.75v4.7H87.1v-.74a1.59,1.59,0,0,1-1.49.82C84.67,477.2,84,476.69,84,475.39Z" fill="#fff"/><path d="M89.23,472.42H90v.74a1.63,1.63,0,0,1,1.52-.83c1,0,1.65.53,1.65,1.9v2.89H92.4v-2.94c0-.83-.36-1.2-1.11-1.2A1.24,1.24,0,0,0,90,474.27v2.85h-.74Z" fill="#fff"/><path d="M94.12,474.86v-.07a2.24,2.24,0,0,1,2.2-2.46,1.69,1.69,0,0,1,1.54.84v-3h.75v7h-.75v-.81a2,2,0,0,1-1.61.89A2.1,2.1,0,0,1,94.12,474.86Zm3.77-.06v-.07c0-1.21-.58-1.77-1.5-1.77s-1.49.65-1.49,1.79v.08c0,1.19.64,1.75,1.43,1.75S97.89,476,97.89,474.8Z" fill="#fff"/><path d="M99.92,476.59a.58.58,0,1,1,.58.58A.57.57,0,0,1,99.92,476.59Z" fill="#fff"/></g></g></g></svg>