<svg xmlns="http://www.w3.org/2000/svg" viewBox="0 0 480 320"><title>H122</title><g id="Layer_2" data-name="Layer 2"><g id="Image_7" data-name="Image 7"><g id="Tax_prep_at_your_fingertips." data-name="Tax prep at your fingertips."><path d="M40.42,57.12H29.64v-9.2H63.21v9.2H52.42V89.59h-12Z" fill="#fff"/><path d="M61.11,81.14c0-7.17,6.06-10,16.2-10h2.91v-.7c0-2.91-.7-4.83-4-4.83a3.74,3.74,0,0,0-4.14,3.61H62.27c.47-7.35,6.24-11,14.57-11s13.75,3.44,13.75,11.54V89.59H80.45V86c-1.45,2.21-4.14,4.25-9,4.25C65.94,90.29,61.11,87.61,61.11,81.14Zm19.11-2.22V77.06H77.48c-4.2,0-6.06.82-6.06,3.32,0,1.75,1.17,2.86,3.61,2.86C78,83.24,80.22,81.55,80.22,78.92Z" fill="#fff"/><path d="M103.35,74.09l-9.5-15h12l4.72,8,4.6-8H125.9l-9.61,14.16,10.54,16.32h-12l-5.42-9.09-5.53,9.09H93.21Z" fill="#fff"/><path d="M140.35,59.11h10.43v4.54a10.77,10.77,0,0,1,9.5-5.36c7.11,0,12.88,5.36,12.88,15.8v.46c0,10.5-5.77,15.74-12.94,15.74-4.6,0-7.92-2.16-9.44-5.19V99.79H140.35Zm22.2,15.44v-.46c0-5.37-2.33-7.93-6-7.93s-6.06,2.74-6.06,7.87v.47c0,5.18,2.27,7.81,6.06,7.81S162.55,79.57,162.55,74.55Z" fill="#fff"/><path d="M176.94,59.11h10.43v6.06c1.93-4.55,5.13-6.53,9.85-6.47v9.73c-6.35-.17-9.85,1.81-9.85,6.71V89.59H176.94Z" fill="#fff"/><path d="M199.08,74.73v-.47c0-9.79,7.29-16,16.49-16,8.34,0,15.51,4.78,15.51,15.74v2.74H209.63c.29,4,2.62,6.35,6.35,6.35,3.44,0,4.9-1.57,5.31-3.61h9.79c-.94,6.88-6.24,10.78-15.45,10.78C206.08,90.29,199.08,84.7,199.08,74.73Zm21.86-3.85c-.18-3.67-2-5.71-5.37-5.71-3.14,0-5.3,2-5.82,5.71Z" fill="#fff"/><path d="M234.68,59.11h10.44v4.54a10.74,10.74,0,0,1,9.49-5.36c7.11,0,12.88,5.36,12.88,15.8v.46c0,10.5-5.77,15.74-12.93,15.74-4.61,0-7.93-2.16-9.44-5.19V99.79H234.68Zm22.21,15.44v-.46c0-5.37-2.33-7.93-6-7.93s-6.06,2.74-6.06,7.87v.47c0,5.18,2.28,7.81,6.06,7.81S256.89,79.57,256.89,74.55Z" fill="#fff"/><path d="M280.13,81.14c0-7.17,6.06-10,16.2-10h2.92v-.7c0-2.91-.7-4.83-4-4.83a3.74,3.74,0,0,0-4.14,3.61H281.3c.46-7.35,6.23-11,14.57-11s13.75,3.44,13.75,11.54V89.59H299.48V86c-1.46,2.21-4.14,4.25-9,4.25C285,90.29,280.13,87.61,280.13,81.14Zm19.12-2.22V77.06h-2.74c-4.2,0-6.06.82-6.06,3.32,0,1.75,1.16,2.86,3.61,2.86C297,83.24,299.25,81.55,299.25,78.92Z" fill="#fff"/><path d="M315.91,79.8V66.22h-3.67V59.11h3.67V52.75h10.43v6.36h6v7.11h-6V78.81c0,2.21,1.11,3.2,3.09,3.2a7.94,7.94,0,0,0,3-.52v7.93a21.88,21.88,0,0,1-5.77.87C319.76,90.29,315.91,87,315.91,79.8Z" fill="#fff"/><path d="M41.06,148l-12.18-27.4H40.19l6.29,16.26,5.83-16.26h10L46,161.32H36Z" fill="#fff"/><path d="M61.69,136.25v-.46c0-9.8,7.28-16,16.72-16S95,125.82,95,135.5V136c0,9.91-7.29,15.86-16.67,15.86S61.69,146.1,61.69,136.25Zm22.72-.17v-.47c0-5.13-2-8-6-8s-6.06,2.74-6.06,7.87V136c0,5.25,2,8.1,6.06,8.1S84.41,141.15,84.41,136.08Z" fill="#fff"/><path d="M98.45,140.51V120.63h10.43v18.19c0,3.44,1.35,5.13,4.32,5.13,3.14,0,5.18-1.87,5.18-5.77V120.63h10.43v30.49H118.38V146.4c-1.63,3.14-4.6,5.42-9.67,5.42C102.82,151.82,98.45,148.2,98.45,140.51Z" fill="#fff"/><path d="M134.11,120.63h10.43v6.06c1.93-4.54,5.13-6.52,9.85-6.47V130c-6.35-.18-9.85,1.81-9.85,6.7v14.46H134.11Z" fill="#fff"/><path d="M170.36,127.74h-3.85v-7.11h3.85V118c0-7.58,4.72-11.19,11.94-11.19a18.62,18.62,0,0,1,4.78.64V115a9.38,9.38,0,0,0-2.86-.41c-2.44,0-3.49,1.34-3.49,3.32v2.68h6.18v7.11h-6.18v23.38H170.36Z" fill="#fff"/><path d="M190.17,112.36a5.45,5.45,0,0,1,5.71-5.43,5.41,5.41,0,1,1,0,10.79A5.4,5.4,0,0,1,190.17,112.36Zm.52,8.27h10.43v30.49H190.69Z" fill="#fff"/><path d="M206.71,120.63h10.44v4.9c1.63-3.15,4.95-5.71,10-5.71,5.88,0,10,3.67,10,11.48v19.82H226.7V133.4c0-3.44-1.34-5.13-4.37-5.13s-5.18,1.86-5.18,5.77v17.08H206.71Z" fill="#fff"/><path d="M240.51,151.12h10.37c.47,2.21,1.81,4,5.6,4,4.6,0,6.46-2.62,6.46-6.41V144a10.68,10.68,0,0,1-9.44,5.59c-7.11,0-12.93-5.24-12.93-14.63v-.47c0-9,5.77-14.68,12.93-14.68,4.84,0,7.7,2,9.44,5.13v-4.32h10.44v27.92c0,9.1-6,13.87-16.9,13.87C246.1,162.42,241.33,158.05,240.51,151.12Zm22.73-16.21v-.41c0-4.19-2.16-6.87-6-6.87s-6,2.74-6,6.93V135c0,4.2,2.22,6.88,5.94,6.88S263.24,139.23,263.24,134.91Z" fill="#fff"/><path d="M277,136.25v-.46c0-9.8,7.29-16,16.49-16,8.34,0,15.51,4.78,15.51,15.73v2.74H287.59c.29,4,2.62,6.36,6.35,6.36,3.44,0,4.9-1.58,5.31-3.62H309c-.94,6.88-6.24,10.79-15.45,10.79C284,151.82,277,146.22,277,136.25Zm21.86-3.84c-.18-3.68-2-5.72-5.37-5.72-3.14,0-5.3,2-5.82,5.72Z" fill="#fff"/><path d="M312.64,120.63h10.44v6.06c1.92-4.54,5.12-6.52,9.84-6.47V130c-6.35-.18-9.84,1.81-9.84,6.7v14.46H312.64Z" fill="#fff"/><path d="M338.57,141.32V127.74H334.9v-7.11h3.67v-6.35H349v6.35h6v7.11h-6v12.59c0,2.22,1.11,3.21,3.09,3.21a8.11,8.11,0,0,0,3-.52v7.92a21.82,21.82,0,0,1-5.77.88C342.42,151.82,338.57,148.49,338.57,141.32Z" fill="#fff"/><path d="M358.73,112.36a5.75,5.75,0,1,1,5.71,5.36A5.45,5.45,0,0,1,358.73,112.36Zm.53,8.27h10.43v30.49H359.26Z" fill="#fff"/><path d="M375.28,120.63h10.43v4.55a10.75,10.75,0,0,1,9.5-5.36c7.11,0,12.88,5.36,12.88,15.79v.47c0,10.49-5.77,15.74-12.94,15.74-4.6,0-7.92-2.16-9.44-5.19v14.69H375.28Zm22.2,15.45v-.47c0-5.36-2.33-7.92-6-7.92s-6.06,2.73-6.06,7.86V136c0,5.19,2.27,7.81,6.06,7.81S397.48,141.09,397.48,136.08Z" fill="#fff"/><path d="M410,141.44h9.61c.35,2.22,1.34,3.44,4.32,3.44,2.56,0,3.73-1,3.73-2.51s-1.46-2.15-5.66-2.74c-8.16-1-11.59-3.43-11.59-9.79,0-6.76,6-10,13.05-10,7.52,0,12.76,2.56,13.46,9.85h-9.44c-.41-2-1.51-3-3.9-3s-3.44,1-3.44,2.39,1.4,2,5.13,2.5c8.45,1.05,12.53,3.27,12.53,9.79,0,7.23-5.37,10.5-13.82,10.5C415.31,151.82,410.24,148.2,410,141.44Z" fill="#fff"/><path d="M440.77,145.87a5.82,5.82,0,0,1,6-5.89,5.89,5.89,0,1,1,0,11.78A5.81,5.81,0,0,1,440.77,145.87Z" fill="#fff"/><rect width="480" height="320" fill="none"/></g></g></g></svg>