<svg xmlns="http://www.w3.org/2000/svg" viewBox="0 0 728 90"><title>H16</title><g id="Layer_2" data-name="Layer 2"><g id="Rect"><rect width="728" height="90" fill="none"/></g><g id="H16"><g id="File_free_with_H_R_Block_Online._Yep_FREE_" data-name="File free with H&amp;R Block Online. Yep, FREE!"><path d="M122.28,15.25h15.94V20.5h-9.14v5h7.29v5h-7.29v8.35h-6.8Z" fill="#fff"/><path d="M139.9,16.9a3.26,3.26,0,1,1,3.23,3A3.08,3.08,0,0,1,139.9,16.9Zm.3,4.69h5.9V38.85h-5.9Z" fill="#fff"/><path d="M149.44,14h5.87V38.85h-5.87Z" fill="#fff"/><path d="M157.55,30.43v-.26c0-5.55,4.13-9,9.34-9,4.72,0,8.78,2.71,8.78,8.92v1.55H163.53c.16,2.27,1.48,3.6,3.59,3.6,1.95,0,2.78-.9,3-2h5.54c-.52,3.89-3.53,6.1-8.74,6.1C161.51,39.24,157.55,36.08,157.55,30.43Zm12.38-2.18c-.1-2.08-1.12-3.23-3-3.23s-3,1.15-3.3,3.23Z" fill="#fff"/><path d="M184.61,25.61h-2.17v-4h2.17V20.07c0-4.29,2.68-6.34,6.77-6.34a10.5,10.5,0,0,1,2.71.37v4.32a5.52,5.52,0,0,0-1.62-.23,1.73,1.73,0,0,0-2,1.88v1.52H194v4h-3.5V38.85h-5.88Z" fill="#fff"/><path d="M196,21.59h5.91V25a5.44,5.44,0,0,1,5.58-3.66v5.51c-3.6-.1-5.58,1-5.58,3.79v8.19H196Z" fill="#fff"/><path d="M208.5,30.43v-.26c0-5.55,4.13-9,9.35-9,4.71,0,8.77,2.71,8.77,8.92v1.55H214.48c.16,2.27,1.48,3.6,3.6,3.6,1.94,0,2.77-.9,3-2h5.54c-.52,3.89-3.53,6.1-8.74,6.1C212.47,39.24,208.5,36.08,208.5,30.43Zm12.38-2.18c-.1-2.08-1.12-3.23-3-3.23s-3,1.15-3.31,3.23Z" fill="#fff"/><path d="M227.74,30.43v-.26c0-5.55,4.13-9,9.34-9,4.72,0,8.78,2.71,8.78,8.92v1.55H233.72c.16,2.27,1.48,3.6,3.59,3.6,1.95,0,2.78-.9,3-2h5.54c-.53,3.89-3.53,6.1-8.74,6.1C231.7,39.24,227.74,36.08,227.74,30.43Zm12.38-2.18c-.1-2.08-1.12-3.23-3-3.23s-3,1.15-3.3,3.23Z" fill="#fff"/><path d="M252.46,21.59h6.17l2.51,10.33L264,21.59h4.76l2.57,10.33,2.81-10.33h5.61l-5.48,17.26h-5.64l-2.58-9.64-2.67,9.64h-5.75Z" fill="#fff"/><path d="M281.17,16.9a3.26,3.26,0,1,1,3.23,3A3.08,3.08,0,0,1,281.17,16.9Zm.3,4.69h5.9V38.85h-5.9Z" fill="#fff"/><path d="M291.33,33.3V25.61h-2.08v-4h2.08V18h5.91v3.6h3.4v4h-3.4v7.13c0,1.26.63,1.82,1.75,1.82a4.42,4.42,0,0,0,1.68-.3v4.49a12.26,12.26,0,0,1-3.26.49C293.51,39.24,291.33,37.36,291.33,33.3Z" fill="#fff"/><path d="M302.88,14h5.91V24.36a6.11,6.11,0,0,1,5.68-3.24c3.33,0,5.64,2.08,5.64,6.51V38.85H314.2v-10c0-1.95-.76-2.91-2.47-2.91s-2.94,1.06-2.94,3.27v9.67h-5.91Z" fill="#fff"/><path d="M329.51,15.25h6.8v9h7.76v-9h6.76v23.6h-6.76V29.54h-7.76v9.31h-6.8Z" fill="#fff"/><path d="M373.47,34l3.93,4.82h-7.69l-1.39-1.72A9.38,9.38,0,0,1,362,39.24c-5,0-8.28-2.64-8.28-7.12,0-3,1.85-5.29,5.18-6.87a7.53,7.53,0,0,1-1.45-4.13c0-4,3.43-6.17,7.59-6.17,3.76,0,7.16,1.88,7.16,5.51,0,2.58-1.52,4.46-4.72,5.85l3,3.63,1.72-3.37h5.15Zm-8.18-.69-3.73-4.49A2.8,2.8,0,0,0,360,31.39a2.75,2.75,0,0,0,3,2.94A3.1,3.1,0,0,0,365.29,33.34Zm-.73-9.51c1.59-.76,2.34-1.65,2.34-2.87a1.69,1.69,0,0,0-1.74-1.81,1.87,1.87,0,0,0-2,2A4.35,4.35,0,0,0,364.56,23.83Z" fill="#fff"/><path d="M379.54,15.25h9.24c6.18,0,9.61,2.51,9.61,7.49v.13a6.17,6.17,0,0,1-4.26,6.21l5.64,9.77h-7.13l-4.78-8.45h-1.59v8.45h-6.73ZM388.45,26c2.28,0,3.4-1,3.4-2.87V23c0-1.92-1.19-2.68-3.36-2.68h-2.22V26Z" fill="#fff"/><path d="M408.05,15.25h10.53c5.58,0,8,2.51,8,6.17v.13a4.88,4.88,0,0,1-4,5.09c2.91.49,4.72,2.24,4.72,5.51v.13c0,4.23-2.74,6.57-8.58,6.57H408.05Zm9.18,9.37c2.11,0,2.9-.72,2.9-2.41v-.13c0-1.62-.86-2.34-2.9-2.34h-2.58v4.88Zm.23,9.71c2.14,0,3.13-1,3.13-2.74v-.13c0-1.79-.95-2.71-3.33-2.71h-2.61v5.58Z" fill="#fff"/><path d="M429.6,14h5.88V38.85H429.6Z" fill="#fff"/><path d="M437.72,30.43v-.26c0-5.55,4.12-9,9.47-9s9.41,3.4,9.41,8.88v.27c0,5.61-4.13,9-9.44,9S437.72,36,437.72,30.43Zm12.87-.1v-.26c0-2.9-1.15-4.52-3.4-4.52s-3.43,1.55-3.43,4.45v.27c0,3,1.15,4.58,3.43,4.58S450.59,33.21,450.59,30.33Z" fill="#fff"/><path d="M457.75,30.43v-.26c0-5.74,4.13-9,9.21-9,4.22,0,8.12,1.85,8.45,7.1h-5.55c-.26-1.62-1.05-2.51-2.77-2.51-2.08,0-3.3,1.49-3.3,4.39v.27c0,3,1.16,4.55,3.4,4.55a2.87,2.87,0,0,0,3-2.87h5.32c-.17,4.36-3.11,7.19-8.68,7.19C461.68,39.24,457.75,36.24,457.75,30.43Z" fill="#fff"/><path d="M477.42,14h5.91V28.42L488,21.59h6.14l-5.65,7.75,6.11,9.51H488l-4.65-7.56v7.56h-5.91Z" fill="#fff"/><path d="M121,62.2v-.27c0-7.19,5.42-12,12.48-12S146,54.44,146,61.77V62c0,7.26-5,12.22-12.61,12.22S121,69.29,121,62.2Zm17.92-.07v-.26c0-4.19-2.11-6.67-5.44-6.67s-5.41,2.41-5.41,6.7v.27c0,4.29,2.17,6.76,5.44,6.76S138.94,66.36,138.94,62.13Z" fill="#fff"/><path d="M148.28,56.59h5.91v2.77a6.09,6.09,0,0,1,5.68-3.24c3.33,0,5.64,2.08,5.64,6.51V73.85H159.6v-10c0-2-.76-2.91-2.47-2.91s-2.94,1.06-2.94,3.27v9.67h-5.91Z" fill="#fff"/><path d="M168.54,49h5.88V73.85h-5.88Z" fill="#fff"/><path d="M177.45,51.9a3.26,3.26,0,1,1,3.24,3A3.09,3.09,0,0,1,177.45,51.9Zm.3,4.69h5.91V73.85h-5.91Z" fill="#fff"/><path d="M186.82,56.59h5.91v2.77a6.11,6.11,0,0,1,5.68-3.24c3.33,0,5.64,2.08,5.64,6.51V73.85h-5.9v-10c0-2-.76-2.91-2.48-2.91s-2.94,1.06-2.94,3.27v9.67h-5.91Z" fill="#fff"/><path d="M206,65.43v-.26c0-5.55,4.12-9.05,9.34-9.05,4.72,0,8.78,2.71,8.78,8.92v1.55H212c.17,2.28,1.49,3.6,3.6,3.6,2,0,2.77-.9,3-2h5.55c-.53,3.89-3.54,6.11-8.75,6.11C210,74.25,206,71.08,206,65.43Zm12.37-2.18c-.1-2.08-1.12-3.23-3-3.23s-3,1.15-3.3,3.23Z" fill="#fff"/><path d="M225.76,70.88a3.3,3.3,0,0,1,3.37-3.34,3.34,3.34,0,1,1,0,6.67A3.29,3.29,0,0,1,225.76,70.88Z" fill="#fff"/><path d="M247.58,63.75l-7.69-13.5h7.36l4,8,4-8h6.47l-7.32,13.5v10.1h-6.8Z" fill="#fff"/><path d="M259.23,65.43v-.26c0-5.55,4.12-9.05,9.34-9.05,4.72,0,8.78,2.71,8.78,8.92v1.55H265.2c.16,2.28,1.48,3.6,3.6,3.6,1.94,0,2.77-.9,3-2h5.55c-.53,3.89-3.54,6.11-8.75,6.11C263.19,74.25,259.23,71.08,259.23,65.43Zm12.37-2.18c-.1-2.08-1.12-3.23-3-3.23s-3,1.15-3.3,3.23Z" fill="#fff"/><path d="M279.39,56.59h5.91v2.57a6.09,6.09,0,0,1,5.38-3c4,0,7.29,3,7.29,8.95v.26c0,5.94-3.27,8.92-7.33,8.92a5.69,5.69,0,0,1-5.34-2.94v8.31h-5.91ZM292,65.33v-.26c0-3-1.32-4.49-3.4-4.49s-3.43,1.55-3.43,4.46v.26c0,2.94,1.29,4.42,3.43,4.42S292,68.17,292,65.33Z" fill="#fff"/><path d="M298.46,76.52l2.77-8.68,5.48,2L302,77.88Z" fill="#fff"/><path d="M315.82,50.25h15.94V55.5h-9.14v5h7.29v5h-7.29v8.35h-6.8Z" fill="#fff"/><path d="M334.43,50.25h9.24c6.18,0,9.61,2.51,9.61,7.49v.13A6.17,6.17,0,0,1,349,64.08l5.64,9.77h-7.12l-4.79-8.45h-1.58v8.45h-6.74ZM343.34,61c2.28,0,3.4-1,3.4-2.87V58c0-1.92-1.19-2.68-3.36-2.68h-2.21V61Z" fill="#fff"/><path d="M356.94,50.25h16.3v5.21h-9.57v4.06h7.62v4.82h-7.62v4.29h10.1v5.22H356.94Z" fill="#fff"/><path d="M376.64,50.25h16.3v5.21h-9.57v4.06H391v4.82h-7.63v4.29h10.1v5.22H376.64Z" fill="#fff"/><path d="M396.08,70.94a3.4,3.4,0,0,1,3.49-3.3,3.29,3.29,0,1,1,0,6.57A3.37,3.37,0,0,1,396.08,70.94Zm.16-20.69h6.67L402,66.09h-4.89Z" fill="#fff"/></g></g></g></svg>