<svg xmlns="http://www.w3.org/2000/svg" viewBox="0 0 728 90"><title>H16</title><g id="Layer_2" data-name="Layer 2"><g id="Rect"><rect width="728" height="90" fill="none"/></g><g id="H16"><g id="File_free._Yep_FREE_" data-name="File free. Yep, FREE!"><path d="M123.25,27.79H146v7.49H133v7.16h10.41v7.11H133V61.47h-9.7Z" fill="#fff"/><path d="M148.4,30.14A4.65,4.65,0,1,1,153,34.48,4.41,4.41,0,0,1,148.4,30.14Zm.43,6.69h8.43V61.47h-8.43Z" fill="#fff"/><path d="M162,26h8.39V61.47H162Z" fill="#fff"/><path d="M173.6,49.45v-.37c0-7.92,5.89-12.91,13.33-12.91,6.74,0,12.53,3.86,12.53,12.72V51.1H182.12c.24,3.25,2.12,5.14,5.14,5.14,2.78,0,4-1.27,4.29-2.92h7.91c-.75,5.56-5,8.71-12.48,8.71C179.25,62,173.6,57.51,173.6,49.45Zm17.66-3.1c-.14-3-1.6-4.62-4.33-4.62-2.54,0-4.29,1.65-4.71,4.62Z" fill="#fff"/><path d="M212.22,42.58h-3.11V36.83h3.11V34.66c0-6.12,3.82-9,9.66-9a15.14,15.14,0,0,1,3.86.52v6.17a7.7,7.7,0,0,0-2.31-.33c-2,0-2.82,1.08-2.82,2.68v2.17h5v5.75h-5V61.47h-8.39Z" fill="#fff"/><path d="M228.42,36.83h8.43v4.9c1.56-3.67,4.15-5.28,8-5.23v7.87c-5.13-.14-8,1.46-8,5.41V61.47h-8.43Z" fill="#fff"/><path d="M246.32,49.45v-.37c0-7.92,5.89-12.91,13.33-12.91,6.74,0,12.53,3.86,12.53,12.72V51.1H254.85c.23,3.25,2.12,5.14,5.13,5.14,2.78,0,4-1.27,4.29-2.92h7.91c-.75,5.56-5,8.71-12.48,8.71C252,62,246.32,57.51,246.32,49.45ZM264,46.35c-.14-3-1.6-4.62-4.33-4.62-2.54,0-4.29,1.65-4.71,4.62Z" fill="#fff"/><path d="M273.78,49.45v-.37c0-7.92,5.89-12.91,13.33-12.91,6.74,0,12.53,3.86,12.53,12.72V51.1H282.31c.23,3.25,2.11,5.14,5.13,5.14,2.78,0,4-1.27,4.29-2.92h7.91c-.75,5.56-5,8.71-12.48,8.71C279.43,62,273.78,57.51,273.78,49.45Zm17.66-3.1c-.14-3-1.6-4.62-4.33-4.62-2.54,0-4.29,1.65-4.71,4.62Z" fill="#fff"/><path d="M302,57.23a4.7,4.7,0,0,1,4.81-4.76,4.76,4.76,0,1,1,0,9.51A4.7,4.7,0,0,1,302,57.23Z" fill="#fff"/><path d="M333.13,47.05l-11-19.26h10.5l5.7,11.35,5.7-11.35h9.24L342.83,47.05V61.47h-9.7Z" fill="#fff"/><path d="M349.75,49.45v-.37c0-7.92,5.89-12.91,13.33-12.91,6.74,0,12.53,3.86,12.53,12.72V51.1H358.28c.23,3.25,2.12,5.14,5.13,5.14,2.78,0,4-1.27,4.29-2.92h7.91c-.75,5.56-5,8.71-12.48,8.71C355.4,62,349.75,57.51,349.75,49.45Zm17.67-3.1c-.15-3-1.61-4.62-4.34-4.62-2.54,0-4.28,1.65-4.71,4.62Z" fill="#fff"/><path d="M378.53,36.83H387V40.5a8.7,8.7,0,0,1,7.68-4.33c5.74,0,10.41,4.33,10.41,12.77v.37c0,8.48-4.67,12.72-10.46,12.72-3.72,0-6.4-1.74-7.63-4.19V69.71h-8.43Zm18,12.48v-.37c0-4.34-1.89-6.41-4.86-6.41s-4.89,2.21-4.89,6.36v.38c0,4.19,1.83,6.31,4.89,6.31S396.48,53.36,396.48,49.31Z" fill="#fff"/><path d="M405.75,65.28l4-12.39,7.82,2.78-6.78,11.54Z" fill="#fff"/><path d="M430.53,27.79h22.75v7.49h-13v7.16h10.41v7.11H440.23V61.47h-9.7Z" fill="#fff"/><path d="M457.09,27.79h13.19c8.81,0,13.71,3.58,13.71,10.69v.19a8.8,8.8,0,0,1-6.08,8.85L486,61.47H475.79L469,49.41H466.7V61.47h-9.61Zm12.72,15.35c3.25,0,4.85-1.36,4.85-4.1v-.18c0-2.74-1.69-3.82-4.8-3.82H466.7v8.1Z" fill="#fff"/><path d="M489.21,27.79h23.27v7.44H498.82V41H509.7V47.9H498.82V54h14.42v7.45h-24Z" fill="#fff"/><path d="M517.33,27.79H540.6v7.44H526.94V41h10.88V47.9H526.94V54h14.41v7.45h-24Z" fill="#fff"/><path d="M545.07,57.32a5,5,0,1,1,5,4.66A4.86,4.86,0,0,1,545.07,57.32Zm.24-29.53h9.51L553.55,50.4h-7Z" fill="#fff"/></g></g></g></svg>