<svg xmlns="http://www.w3.org/2000/svg" viewBox="0 0 970 250"><title>H03</title><g id="Layer_2" data-name="Layer 2"><g id="Rect"><rect width="970" height="250" fill="none"/></g><g id="Don_t_leave_home_for_tax_prep._Unless_you_want_to." data-name="Don’t leave home for tax prep. Unless you want to."><path d="M280.94,82.25H293c11.78,0,17.77,5.89,17.77,16.19v.37c0,10.35-6.13,16.61-17.82,16.61h-12Zm11.74,25.84c5.66,0,8.17-3,8.17-9.14v-.37c0-6.31-2.51-9-8.26-9H290.5v18.51Z" fill="#fff"/><path d="M312.69,103.59v-.37c0-7.8,5.8-12.71,13.31-12.71s13.23,4.77,13.23,12.48v.37c0,7.89-5.8,12.62-13.27,12.62S312.69,111.43,312.69,103.59Zm18.09-.14v-.37c0-4.08-1.62-6.36-4.78-6.36s-4.82,2.18-4.82,6.27v.37c0,4.18,1.62,6.45,4.82,6.45S330.78,107.49,330.78,103.45Z" fill="#fff"/><path d="M342.16,91.16h8.3v3.89a8.58,8.58,0,0,1,8-4.54c4.69,0,7.94,2.92,7.94,9.14v15.77h-8.31v-14.1c0-2.74-1.07-4.09-3.48-4.09s-4.13,1.49-4.13,4.6v13.59h-8.3Z" fill="#fff"/><path d="M369,93.75l3.71-12.11L380,84.1l-6.35,11.46Z" fill="#fff"/><path d="M383.27,107.63V96.82h-2.92V91.16h2.92V86.1h8.31v5.06h4.78v5.66h-4.78v10c0,1.76.88,2.55,2.46,2.55a6.25,6.25,0,0,0,2.36-.42v6.31a17.25,17.25,0,0,1-4.59.7C386.33,116,383.27,113.34,383.27,107.63Z" fill="#fff"/><path d="M408.19,80.48h8.26v34.94h-8.26Z" fill="#fff"/><path d="M419.61,103.59v-.37c0-7.8,5.8-12.71,13.13-12.71,6.64,0,12.34,3.8,12.34,12.52v2.18H428c.23,3.21,2.09,5.06,5.06,5.06,2.73,0,3.89-1.25,4.22-2.87h7.79c-.74,5.47-5,8.58-12.29,8.58C425.18,116,419.61,111.53,419.61,103.59Zm17.4-3.06c-.14-2.93-1.58-4.55-4.27-4.55-2.5,0-4.22,1.62-4.64,4.55Z" fill="#fff"/><path d="M446.81,108.69c0-5.7,4.82-7.93,12.89-7.93H462v-.56c0-2.32-.55-3.85-3.2-3.85a3,3,0,0,0-3.29,2.88h-7.8c.37-5.85,5-8.72,11.6-8.72s10.95,2.73,10.95,9.18v15.73h-8.07v-2.83c-1.16,1.77-3.29,3.39-7.19,3.39C450.66,116,446.81,113.85,446.81,108.69ZM462,106.93v-1.48h-2.18c-3.34,0-4.82.65-4.82,2.64,0,1.39.93,2.28,2.88,2.28C460.26,110.37,462,109,462,106.93Z" fill="#fff"/><path d="M471.54,91.16h8.86l5.06,15.63,5-15.63h7.94l-8.86,24.26h-9.05Z" fill="#fff"/><path d="M497.85,103.59v-.37c0-7.8,5.8-12.71,13.14-12.71,6.63,0,12.34,3.8,12.34,12.52v2.18H506.25c.23,3.21,2.09,5.06,5.06,5.06,2.74,0,3.9-1.25,4.22-2.87h7.8c-.74,5.47-5,8.58-12.3,8.58C503.42,116,497.85,111.53,497.85,103.59Zm17.4-3.06C515.12,97.6,513.68,96,511,96c-2.51,0-4.23,1.62-4.65,4.55Z" fill="#fff"/><path d="M534.65,80.48H543V95.05a8.57,8.57,0,0,1,8-4.54c4.69,0,7.94,2.92,7.94,9.14v15.77h-8.31v-14.1c0-2.74-1.07-4.09-3.48-4.09s-4.13,1.49-4.13,4.6v13.59h-8.31Z" fill="#fff"/><path d="M561.62,103.59v-.37c0-7.8,5.8-12.71,13.31-12.71s13.23,4.77,13.23,12.48v.37c0,7.89-5.8,12.62-13.27,12.62S561.62,111.43,561.62,103.59Zm18.09-.14v-.37c0-4.08-1.62-6.36-4.78-6.36s-4.82,2.18-4.82,6.27v.37c0,4.18,1.62,6.45,4.82,6.45S579.71,107.49,579.71,103.45Z" fill="#fff"/><path d="M591.08,91.16h8.31v3.71A8.48,8.48,0,0,1,607,90.51c3.2,0,5.43,1.39,6.59,4a9.61,9.61,0,0,1,8-4c4.59,0,7.93,3,7.93,9v15.87h-8.3V101c0-2.46-1.21-3.67-3.11-3.67-2.23,0-3.72,1.44-3.72,4.08v14.06h-8.21V101c0-2.46-1.21-3.67-3.11-3.67-2.22,0-3.71,1.44-3.71,4.08v14.06h-8.31Z" fill="#fff"/><path d="M632.3,103.59v-.37c0-7.8,5.8-12.71,13.13-12.71,6.63,0,12.34,3.8,12.34,12.52v2.18H640.69c.24,3.21,2.09,5.06,5.06,5.06,2.74,0,3.9-1.25,4.22-2.87h7.8c-.74,5.47-5,8.58-12.3,8.58C637.86,116,632.3,111.53,632.3,103.59Zm17.4-3.06c-.14-2.93-1.58-4.55-4.27-4.55-2.51,0-4.22,1.62-4.64,4.55Z" fill="#fff"/><path d="M670.35,96.82h-3.06V91.16h3.06V89c0-6,3.76-8.91,9.51-8.91a14.82,14.82,0,0,1,3.81.51V86.7a7.9,7.9,0,0,0-2.28-.32c-1.95,0-2.78,1.06-2.78,2.64v2.14h4.92v5.66h-4.92v18.6h-8.26Z" fill="#fff"/><path d="M684.18,103.59v-.37c0-7.8,5.8-12.71,13.32-12.71s13.22,4.77,13.22,12.48v.37c0,7.89-5.8,12.62-13.27,12.62S684.18,111.43,684.18,103.59Zm18.1-.14v-.37c0-4.08-1.63-6.36-4.78-6.36s-4.83,2.18-4.83,6.27v.37c0,4.18,1.62,6.45,4.83,6.45S702.28,107.49,702.28,103.45Z" fill="#fff"/><path d="M713.65,91.16H722V96a7.65,7.65,0,0,1,7.84-5.15v7.75c-5-.14-7.84,1.44-7.84,5.34v11.5h-8.3Z" fill="#fff"/><path d="M742.37,107.63V96.82h-2.92V91.16h2.92V86.1h8.31v5.06h4.78v5.66h-4.78v10c0,1.76.88,2.55,2.46,2.55a6.25,6.25,0,0,0,2.36-.42v6.31a17.25,17.25,0,0,1-4.59.7C745.44,116,742.37,113.34,742.37,107.63Z" fill="#fff"/><path d="M757.32,108.69c0-5.7,4.82-7.93,12.9-7.93h2.32v-.56c0-2.32-.56-3.85-3.21-3.85A3,3,0,0,0,766,99.23h-7.8c.38-5.85,5-8.72,11.6-8.72s11,2.73,11,9.18v15.73h-8.08v-2.83c-1.16,1.77-3.29,3.39-7.19,3.39C761.17,116,757.32,113.85,757.32,108.69Zm15.22-1.76v-1.48h-2.18c-3.35,0-4.83.65-4.83,2.64,0,1.39.93,2.28,2.88,2.28C770.77,110.37,772.54,109,772.54,106.93Z" fill="#fff"/><path d="M791,103.08,783.4,91.16H793l3.75,6.4,3.67-6.4h8.54l-7.66,11.27,8.4,13H800.1l-4.31-7.24-4.41,7.24h-8.49Z" fill="#fff"/><path d="M820.43,91.16h8.31v3.61a8.54,8.54,0,0,1,7.56-4.26c5.66,0,10.25,4.26,10.25,12.57v.37c0,8.35-4.59,12.53-10.3,12.53-3.66,0-6.31-1.72-7.51-4.13v11.69h-8.31Zm17.68,12.29v-.37c0-4.27-1.86-6.31-4.78-6.31S828.5,99,828.5,103v.38c0,4.13,1.81,6.21,4.83,6.21S838.11,107.44,838.11,103.45Z" fill="#fff"/><path d="M849.57,91.16h8.31V96a7.64,7.64,0,0,1,7.84-5.15v7.75c-5.06-.14-7.84,1.44-7.84,5.34v11.5h-8.31Z" fill="#fff"/><path d="M867.21,103.59v-.37c0-7.8,5.8-12.71,13.13-12.71,6.64,0,12.34,3.8,12.34,12.52v2.18H875.61c.23,3.21,2.09,5.06,5.06,5.06,2.73,0,3.89-1.25,4.22-2.87h7.79c-.74,5.47-5,8.58-12.29,8.58C872.78,116,867.21,111.53,867.21,103.59Zm17.4-3.06C884.47,97.6,883,96,880.34,96c-2.51,0-4.22,1.62-4.64,4.55Z" fill="#fff"/><path d="M895.56,91.16h8.31v3.61a8.56,8.56,0,0,1,7.56-4.26c5.66,0,10.26,4.26,10.26,12.57v.37c0,8.35-4.6,12.53-10.3,12.53-3.67,0-6.31-1.72-7.52-4.13v11.69h-8.31Zm17.68,12.29v-.37c0-4.27-1.85-6.31-4.78-6.31S903.64,99,903.64,103v.38c0,4.13,1.81,6.21,4.82,6.21S913.24,107.44,913.24,103.45Z" fill="#fff"/><path d="M923.78,111.25a4.63,4.63,0,0,1,4.73-4.69,4.69,4.69,0,1,1,0,9.37A4.62,4.62,0,0,1,923.78,111.25Z" fill="#fff"/><path d="M280.71,149.72V130h9.51v19.3c0,4.69,1.16,7,5.2,7s5.2-2.13,5.2-7.1V130h9.6v19.58c0,9.65-5.66,14.15-14.8,14.15C286.05,163.73,280.71,159,280.71,149.72Z" fill="#fff"/><path d="M314.73,138.91H323v3.89a8.58,8.58,0,0,1,8-4.54c4.68,0,7.93,2.92,7.93,9.14v15.77h-8.31v-14.1c0-2.74-1.06-4.08-3.48-4.08s-4.13,1.48-4.13,4.59v13.59h-8.3Z" fill="#fff"/><path d="M343.22,128.23h8.26v34.94h-8.26Z" fill="#fff"/><path d="M354.64,151.34V151c0-7.79,5.8-12.71,13.13-12.71,6.64,0,12.34,3.8,12.34,12.53V153H363c.23,3.2,2.09,5.05,5.06,5.05,2.73,0,3.89-1.25,4.22-2.87h7.79c-.74,5.47-5,8.58-12.29,8.58C360.21,163.73,354.64,159.28,354.64,151.34Zm17.4-3.06c-.14-2.92-1.58-4.55-4.27-4.55-2.51,0-4.22,1.63-4.64,4.55Z" fill="#fff"/><path d="M381.6,155.47h7.66c.28,1.77,1.06,2.74,3.43,2.74,2,0,3-.79,3-2s-1.16-1.71-4.5-2.18c-6.5-.83-9.23-2.73-9.23-7.79,0-5.38,4.78-8,10.39-8,6,0,10.16,2,10.72,7.84h-7.52c-.32-1.63-1.21-2.41-3.11-2.41s-2.74.78-2.74,1.9,1.12,1.62,4.09,2c6.73.84,10,2.6,10,7.8,0,5.75-4.26,8.35-11,8.35C385.82,163.73,381.79,160.85,381.6,155.47Z" fill="#fff"/><path d="M404.94,155.47h7.66c.28,1.77,1.07,2.74,3.43,2.74,2.05,0,3-.79,3-2s-1.16-1.71-4.5-2.18c-6.49-.83-9.23-2.73-9.23-7.79,0-5.38,4.78-8,10.39-8,6,0,10.17,2,10.72,7.84h-7.52c-.32-1.63-1.2-2.41-3.1-2.41s-2.74.78-2.74,1.9,1.11,1.62,4.08,2c6.73.84,10,2.6,10,7.8,0,5.75-4.27,8.35-11,8.35C409.17,163.73,405.13,160.85,404.94,155.47Z" fill="#fff"/><path d="M445.83,160.72l-9.7-21.81h9l5,12.94,4.64-12.94h7.94l-13,32.38h-7.94Z" fill="#fff"/><path d="M462.26,151.34V151c0-7.79,5.8-12.71,13.32-12.71S488.8,143,488.8,150.74v.37c0,7.89-5.8,12.62-13.27,12.62S462.26,159.18,462.26,151.34Zm18.09-.14v-.37c0-4.08-1.62-6.36-4.77-6.36s-4.83,2.19-4.83,6.27v.37c0,4.18,1.62,6.45,4.83,6.45S480.35,155.24,480.35,151.2Z" fill="#fff"/><path d="M491.54,154.73V138.91h8.31v14.47c0,2.74,1.06,4.09,3.43,4.09s4.13-1.49,4.13-4.6v-14h8.31v24.26h-8.31v-3.75c-1.3,2.5-3.66,4.31-7.7,4.31C495,163.73,491.54,160.85,491.54,154.73Z" fill="#fff"/><path d="M526.35,138.91H535l3.53,14.52,4.08-14.52h6.69l3.61,14.52,4-14.52h7.89l-7.71,24.26h-7.93l-3.62-13.54-3.76,13.54h-8.07Z" fill="#fff"/><path d="M564.59,156.45c0-5.71,4.82-7.94,12.9-7.94h2.32V148c0-2.33-.56-3.86-3.21-3.86a3,3,0,0,0-3.29,2.88h-7.8c.38-5.85,5-8.72,11.61-8.72s11,2.74,11,9.18v15.73H580v-2.83c-1.16,1.77-3.29,3.39-7.19,3.39C568.44,163.73,564.59,161.6,564.59,156.45Zm15.22-1.77V153.2h-2.18c-3.34,0-4.83.65-4.83,2.64,0,1.4.93,2.28,2.88,2.28C578,158.12,579.81,156.77,579.81,154.68Z" fill="#fff"/><path d="M592.11,138.91h8.3v3.89a8.58,8.58,0,0,1,8-4.54c4.69,0,7.94,2.92,7.94,9.14v15.77H608v-14.1c0-2.74-1.07-4.08-3.48-4.08s-4.13,1.48-4.13,4.59v13.59h-8.3Z" fill="#fff"/><path d="M621.48,155.38V144.57h-2.92v-5.66h2.92v-5.06h8.31v5.06h4.78v5.66h-4.78v10c0,1.76.88,2.55,2.46,2.55a6.28,6.28,0,0,0,2.36-.42V163a17.73,17.73,0,0,1-4.59.69C624.54,163.73,621.48,161.09,621.48,155.38Z" fill="#fff"/><path d="M647.28,155.38V144.57h-2.92v-5.66h2.92v-5.06h8.31v5.06h4.78v5.66h-4.78v10c0,1.76.88,2.55,2.46,2.55a6.34,6.34,0,0,0,2.37-.42V163a17.89,17.89,0,0,1-4.6.69C650.35,163.73,647.28,161.09,647.28,155.38Z" fill="#fff"/><path d="M662.23,151.34V151c0-7.79,5.8-12.71,13.31-12.71s13.23,4.78,13.23,12.48v.37c0,7.89-5.8,12.62-13.27,12.62S662.23,159.18,662.23,151.34Zm18.09-.14v-.37c0-4.08-1.62-6.36-4.78-6.36s-4.82,2.19-4.82,6.27v.37c0,4.18,1.62,6.45,4.82,6.45S680.32,155.24,680.32,151.2Z" fill="#fff"/><path d="M690.35,159a4.63,4.63,0,0,1,4.73-4.69,4.69,4.69,0,1,1,0,9.38A4.63,4.63,0,0,1,690.35,159Z" fill="#fff"/></g></g></svg>