<svg xmlns="http://www.w3.org/2000/svg" viewBox="0 0 273.88 72.84"><title>cta</title><g id="Layer_2" data-name="Layer 2"><g id="Rectangle_1" data-name="Rectangle 1" style="isolation:isolate"><g id="Rectangle_1-2" data-name="Rectangle 1"><rect width="273.88" height="72.84" fill="none"/></g></g><g id="Buy_now" data-name="Buy now"><path d="M76.21,22.47h9c5,0,7.59,2.06,7.59,6v.13a4.71,4.71,0,0,1-3.72,4.91c3,.6,4.58,2.3,4.58,5.38V39c0,4.19-2.75,6.41-8,6.41H76.21Zm8.17,9.43c2.5,0,3.5-.9,3.5-2.95v-.13c0-1.92-1.09-2.79-3.53-2.79H81.27V31.9Zm.45,9.9c2.56,0,3.72-1.16,3.72-3.24v-.13c0-2.11-1.16-3.2-4-3.2h-3.3V41.8Z" transform="translate(0)" fill="#292929"/><path d="M96.3,39.43V28.63h4.62V38.79c0,2.27.93,3.36,2.91,3.36a3.34,3.34,0,0,0,3.5-3.69V28.63h4.61V45.39h-4.61V42.76a5.57,5.57,0,0,1-5.32,3C98.74,45.74,96.3,43.82,96.3,39.43Z" transform="translate(0)" fill="#292929"/><path d="M120.63,43.69,114,28.63h5L123,38.69l3.75-10.06h4.45l-9.06,22.46h-4.49Z" transform="translate(0)" fill="#292929"/><path d="M139.89,28.63h4.64v2.66A5.8,5.8,0,0,1,150,28.24c3.3,0,5.64,2,5.64,6.48V45.39H151v-10c0-2.28-.89-3.37-2.94-3.37a3.33,3.33,0,0,0-3.5,3.69v9.68h-4.64Z" transform="translate(0)" fill="#292929"/><path d="M158.09,37.18v-.25c0-5.26,3.81-8.69,8.84-8.69s8.82,3.37,8.82,8.59v.26c0,5.28-3.82,8.65-8.85,8.65S158.09,42.41,158.09,37.18ZM171,37.12v-.23c0-3.2-1.5-5.12-4.1-5.12s-4.1,1.86-4.1,5.06v.26c0,3.2,1.48,5.12,4.1,5.12S171,40.29,171,37.12Z" transform="translate(0)" fill="#292929"/><path d="M176.39,28.63h4.87l3,11.28,3.23-11.28h3.82l3,11.28,3.17-11.28h4.45l-5.28,16.76H192l-2.86-10.51L186.1,45.39h-4.62Z" transform="translate(0)" fill="#292929"/></g></g></svg>