<svg xmlns="http://www.w3.org/2000/svg" viewBox="0 0 301 251"><title>Asset 8</title><g id="Layer_2" data-name="Layer 2"><g id="Rect"><rect x="0.5" y="0.5" width="300" height="250" fill="none" stroke="#000" stroke-miterlimit="10"/></g><g id="Federal_State:_fast_easy_and_at_least_10_cheaper_than_Turbo" data-name="Federal &amp; State: fast, easy and at least $10 cheaper than Turbo"><path d="M22.69,23.7H38v5.05h-8.8v4.83h7v4.79h-7v8H22.69Z" fill="#fff"/><path d="M38.47,38.31v-.25c0-5.34,4-8.7,9-8.7,4.54,0,8.44,2.6,8.44,8.57v1.49H44.22c.16,2.19,1.43,3.46,3.46,3.46,1.87,0,2.67-.85,2.89-2H55.9c-.5,3.75-3.39,5.88-8.41,5.88C42.28,46.79,38.47,43.74,38.47,38.31Zm11.91-2.1c-.1-2-1.08-3.11-2.92-3.11s-2.89,1.11-3.18,3.11Z" fill="#fff"/><path d="M57,38.28V38c0-5.65,3.12-8.66,7.05-8.66a5.4,5.4,0,0,1,5.12,2.79V22.5h5.68V46.41H69.21v-2.7A5.61,5.61,0,0,1,64,46.79C60.19,46.79,57,44,57,38.28Zm12.32-.1v-.25c0-2.8-1.17-4.29-3.27-4.29S62.82,35.07,62.82,38v.25c0,2.8,1.24,4.23,3.21,4.23S69.36,41,69.36,38.18Z" fill="#fff"/><path d="M76.89,38.31v-.25c0-5.34,4-8.7,9-8.7,4.54,0,8.45,2.6,8.45,8.57v1.49H82.64c.15,2.19,1.42,3.46,3.46,3.46,1.87,0,2.66-.85,2.89-2h5.33c-.51,3.75-3.4,5.88-8.41,5.88C80.7,46.79,76.89,43.74,76.89,38.31Zm11.91-2.1c-.1-2-1.08-3.11-2.93-3.11S83,34.21,82.7,36.21Z" fill="#fff"/><path d="M96.29,29.8H102v3.3a5.25,5.25,0,0,1,5.37-3.52v5.3c-3.46-.09-5.37,1-5.37,3.65v7.88H96.29Z" fill="#fff"/><path d="M108.07,41.8c0-3.9,3.3-5.43,8.82-5.43h1.59V36c0-1.59-.38-2.63-2.19-2.63a2,2,0,0,0-2.25,2H108.7c.26-4,3.4-6,7.94-6s7.49,1.87,7.49,6.28V46.41h-5.52V44.47a5.46,5.46,0,0,1-4.92,2.32C110.7,46.79,108.07,45.33,108.07,41.8Zm10.41-1.2v-1H117c-2.29,0-3.3.44-3.3,1.81,0,1,.63,1.56,2,1.56C117.27,43,118.48,42,118.48,40.6Z" fill="#fff"/><path d="M127.05,22.5h5.65V46.41h-5.65Z" fill="#fff"/><path d="M159.92,41.77l3.77,4.64h-7.4L155,44.76a9.05,9.05,0,0,1-6.13,2c-4.82,0-8-2.54-8-6.86,0-2.92,1.78-5.08,5-6.6a7.21,7.21,0,0,1-1.4-4c0-3.88,3.3-5.94,7.3-5.94,3.62,0,6.89,1.81,6.89,5.3,0,2.48-1.46,4.29-4.54,5.62L157,37.83l1.65-3.23h5ZM152,41.1l-3.59-4.31a2.79,2.79,0,0,0,1.37,5.27A3,3,0,0,0,152,41.1Zm-.7-9.14c1.53-.73,2.26-1.59,2.26-2.76a1.64,1.64,0,0,0-1.69-1.75,1.81,1.81,0,0,0-1.87,2A4.17,4.17,0,0,0,151.34,32Z" fill="#fff"/><path d="M170.07,39.2h6.19c.16,1.62.89,2.95,3.59,2.95,1.88,0,2.92-.92,2.92-2.25s-.85-1.78-3.58-2.19c-6.42-.77-8.58-2.67-8.58-7.24,0-4.1,3.37-7.08,8.8-7.08s8.54,2.28,9,7.08h-6A2.58,2.58,0,0,0,179.41,28c-1.75,0-2.64.8-2.64,1.94s.7,1.84,3.53,2.22c5.74.64,8.7,2.13,8.7,7,0,4.16-3.3,7.56-9.15,7.56C173.5,46.79,170.26,44.12,170.07,39.2Z" fill="#fff"/><path d="M191.85,41.07v-7.4h-2V29.8h2V26.34h5.69V29.8h3.27v3.87h-3.27v6.86c0,1.21.6,1.75,1.68,1.75a4.37,4.37,0,0,0,1.62-.29v4.32a11.92,11.92,0,0,1-3.14.48C194,46.79,191.85,45,191.85,41.07Z" fill="#fff"/><path d="M202.08,41.8c0-3.9,3.3-5.43,8.82-5.43h1.59V36c0-1.59-.38-2.63-2.19-2.63a2,2,0,0,0-2.26,2h-5.33c.25-4,3.4-6,7.94-6s7.49,1.87,7.49,6.28V46.41h-5.52V44.47a5.46,5.46,0,0,1-4.92,2.32C204.71,46.79,202.08,45.33,202.08,41.8Zm10.41-1.2v-1H211c-2.29,0-3.3.44-3.3,1.81,0,1,.63,1.56,2,1.56C211.28,43,212.49,42,212.49,40.6Z" fill="#fff"/><path d="M221.57,41.07v-7.4h-2V29.8h2V26.34h5.68V29.8h3.27v3.87h-3.27v6.86a1.52,1.52,0,0,0,1.69,1.75,4.37,4.37,0,0,0,1.62-.29v4.32a11.93,11.93,0,0,1-3.15.48C223.67,46.79,221.57,45,221.57,41.07Z" fill="#fff"/><path d="M231.79,38.31v-.25c0-5.34,4-8.7,9-8.7,4.54,0,8.45,2.6,8.45,8.57v1.49H237.54c.16,2.19,1.43,3.46,3.46,3.46,1.88,0,2.67-.85,2.89-2h5.34c-.51,3.75-3.4,5.88-8.42,5.88C235.6,46.79,231.79,43.74,231.79,38.31Zm11.91-2.1c-.09-2-1.08-3.11-2.92-3.11s-2.89,1.11-3.18,3.11Z" fill="#fff"/><path d="M251.07,34.47a3.18,3.18,0,0,1,3.23-3.21,3.21,3.21,0,1,1,0,6.42A3.16,3.16,0,0,1,251.07,34.47Zm0,9.08a3.18,3.18,0,0,1,3.23-3.21,3.21,3.21,0,1,1,0,6.42A3.18,3.18,0,0,1,251.07,43.55Z" fill="#fff"/><path d="M23,67.42h-2.1V63.55H23V62.09C23,58,25.61,56,29.55,56a10.09,10.09,0,0,1,2.6.35V60.5a5.43,5.43,0,0,0-1.55-.22,1.67,1.67,0,0,0-1.91,1.81v1.46h3.37v3.87H28.69V80.16H23Z" fill="#fff"/><path d="M32.69,75.55c0-3.9,3.3-5.43,8.83-5.43h1.59v-.38c0-1.59-.38-2.63-2.19-2.63a2,2,0,0,0-2.26,2H33.33c.25-4,3.39-6,7.94-6s7.49,1.87,7.49,6.28V80.16H43.23V78.22a5.44,5.44,0,0,1-4.92,2.32C35.33,80.54,32.69,79.08,32.69,75.55Zm10.42-1.2v-1h-1.5c-2.28,0-3.3.44-3.3,1.81,0,1,.64,1.56,2,1.56C41.9,76.7,43.11,75.78,43.11,74.35Z" fill="#fff"/><path d="M50.41,74.89h5.24c.19,1.2.73,1.87,2.35,1.87,1.39,0,2-.54,2-1.37S59.24,74.22,57,73.9c-4.45-.57-6.32-1.87-6.32-5.33,0-3.69,3.27-5.46,7.11-5.46,4.1,0,7,1.39,7.34,5.36H59.93a1.85,1.85,0,0,0-2.12-1.65c-1.24,0-1.88.54-1.88,1.3s.77,1.11,2.8,1.37c4.6.57,6.82,1.78,6.82,5.33,0,3.94-2.92,5.72-7.52,5.72S50.54,78.57,50.41,74.89Z" fill="#fff"/><path d="M68.16,74.82v-7.4h-2V63.55h2V60.09h5.68v3.46h3.27v3.87H73.84v6.86c0,1.21.6,1.75,1.68,1.75a4.33,4.33,0,0,0,1.62-.29v4.32a11.92,11.92,0,0,1-3.14.48C70.25,80.54,68.16,78.73,68.16,74.82Z" fill="#fff"/><path d="M78.09,82.73l2.67-8.35L86,76.25,81.46,84Z" fill="#fff"/><path d="M93.4,72.06v-.25c0-5.34,4-8.7,9-8.7,4.54,0,8.45,2.6,8.45,8.57v1.49H99.14c.16,2.19,1.43,3.46,3.47,3.46,1.87,0,2.66-.85,2.89-2h5.33c-.51,3.75-3.4,5.88-8.41,5.88C97.21,80.54,93.4,77.49,93.4,72.06ZM105.3,70c-.09-2-1.08-3.11-2.92-3.11S99.49,68,99.21,70Z" fill="#fff"/><path d="M112,75.55c0-3.9,3.3-5.43,8.83-5.43h1.59v-.38c0-1.59-.38-2.63-2.19-2.63a2,2,0,0,0-2.26,2h-5.33c.25-4,3.39-6,7.94-6s7.49,1.87,7.49,6.28V80.16h-5.53V78.22a5.44,5.44,0,0,1-4.92,2.32C114.64,80.54,112,79.08,112,75.55Zm10.42-1.2v-1h-1.5c-2.28,0-3.3.44-3.3,1.81,0,1,.64,1.56,2,1.56C121.21,76.7,122.42,75.78,122.42,74.35Z" fill="#fff"/><path d="M129.72,74.89H135c.19,1.2.73,1.87,2.35,1.87,1.39,0,2-.54,2-1.37s-.79-1.17-3.08-1.49c-4.45-.57-6.32-1.87-6.32-5.33,0-3.69,3.27-5.46,7.11-5.46,4.1,0,7,1.39,7.34,5.36h-5.15a1.85,1.85,0,0,0-2.12-1.65c-1.24,0-1.88.54-1.88,1.3s.76,1.11,2.8,1.37c4.6.57,6.82,1.78,6.82,5.33,0,3.94-2.92,5.72-7.52,5.72S129.84,78.57,129.72,74.89Z" fill="#fff"/><path d="M151.37,78.47l-6.63-14.92h6.16l3.43,8.86,3.17-8.86h5.43L154,85.71h-5.43Z" fill="#fff"/><path d="M169.21,75.55c0-3.9,3.31-5.43,8.83-5.43h1.59v-.38c0-1.59-.38-2.63-2.19-2.63a2,2,0,0,0-2.26,2h-5.33c.25-4,3.4-6,7.94-6s7.49,1.87,7.49,6.28V80.16h-5.52V78.22a5.47,5.47,0,0,1-4.93,2.32C171.85,80.54,169.21,79.08,169.21,75.55Zm10.42-1.2v-1h-1.49c-2.29,0-3.31.44-3.31,1.81,0,1,.64,1.56,2,1.56C178.42,76.7,179.63,75.78,179.63,74.35Z" fill="#fff"/><path d="M188,63.55h5.69v2.67a5.83,5.83,0,0,1,5.46-3.11c3.2,0,5.43,2,5.43,6.25v10.8h-5.69V70.5c0-1.87-.73-2.79-2.38-2.79s-2.82,1-2.82,3.14v9.31H188Z" fill="#fff"/><path d="M206.55,72v-.26c0-5.65,3.11-8.66,7-8.66a5.37,5.37,0,0,1,5.11,2.79V56.25h5.69V80.16h-5.69v-2.7a5.59,5.59,0,0,1-5.17,3.08C209.7,80.54,206.55,77.78,206.55,72Zm12.32-.1v-.25c0-2.8-1.17-4.29-3.27-4.29s-3.27,1.43-3.27,4.32V72c0,2.8,1.24,4.23,3.21,4.23S218.87,74.76,218.87,71.93Z" fill="#fff"/><path d="M232.11,75.55c0-3.9,3.3-5.43,8.83-5.43h1.59v-.38c0-1.59-.39-2.63-2.2-2.63a2,2,0,0,0-2.25,2h-5.33c.25-4,3.39-6,7.93-6s7.5,1.87,7.5,6.28V80.16h-5.53V78.22a5.44,5.44,0,0,1-4.92,2.32C234.75,80.54,232.11,79.08,232.11,75.55Zm10.42-1.2v-1H241c-2.28,0-3.3.44-3.3,1.81,0,1,.64,1.56,2,1.56C241.32,76.7,242.53,75.78,242.53,74.35Z" fill="#fff"/><path d="M251.6,74.82v-7.4h-2V63.55h2V60.09h5.69v3.46h3.27v3.87h-3.27v6.86c0,1.21.6,1.75,1.68,1.75a4.33,4.33,0,0,0,1.62-.29v4.32a11.92,11.92,0,0,1-3.14.48C253.7,80.54,251.6,78.73,251.6,74.82Z" fill="#fff"/><path d="M22.34,90H28v23.91H22.34Z" fill="#fff"/><path d="M30.15,105.81v-.25c0-5.34,4-8.7,9-8.7,4.54,0,8.44,2.6,8.44,8.57v1.49H35.9c.16,2.19,1.43,3.46,3.46,3.46,1.87,0,2.67-.85,2.89-2h5.33c-.5,3.75-3.39,5.88-8.41,5.88C34,114.29,30.15,111.24,30.15,105.81Zm11.91-2.1c-.1-2-1.08-3.11-2.92-3.11s-2.89,1.11-3.18,3.11Z" fill="#fff"/><path d="M48.76,109.3c0-3.9,3.3-5.43,8.82-5.43h1.59v-.38c0-1.59-.38-2.63-2.19-2.63a2,2,0,0,0-2.25,2H49.39c.26-4,3.4-6,7.94-6s7.49,1.87,7.49,6.28v10.77H59.3V112a5.46,5.46,0,0,1-4.92,2.32C51.39,114.29,48.76,112.83,48.76,109.3Zm10.41-1.2v-1H57.68c-2.29,0-3.3.44-3.3,1.81,0,1,.63,1.56,2,1.56C58,110.45,59.17,109.53,59.17,108.1Z" fill="#fff"/><path d="M66.47,108.64h5.24c.19,1.2.73,1.87,2.35,1.87,1.4,0,2-.54,2-1.37S75.3,108,73,107.65c-4.44-.57-6.32-1.87-6.32-5.33,0-3.69,3.28-5.46,7.12-5.46,4.09,0,7,1.39,7.33,5.36H76a1.86,1.86,0,0,0-2.13-1.65c-1.24,0-1.87.54-1.87,1.3s.76,1.11,2.79,1.37c4.61.57,6.83,1.78,6.83,5.33,0,3.94-2.92,5.72-7.53,5.72S66.6,112.32,66.47,108.64Z" fill="#fff"/><path d="M84.22,108.57v-7.4h-2V97.3h2V93.84h5.69V97.3h3.27v3.87H89.91V108c0,1.21.6,1.75,1.68,1.75a4.37,4.37,0,0,0,1.62-.29v4.32a11.93,11.93,0,0,1-3.15.48C86.32,114.29,84.22,112.48,84.22,108.57Z" fill="#fff"/><path d="M104.76,103.52c-3.2-.22-4.76-1.93-4.89-4.37h3.43a1.75,1.75,0,0,0,1.46,1.74v-2.7c-3.22-.46-4.59-1.63-4.59-4.2,0-2.24,1.76-3.85,4.59-4.06V88.29h1.44V90c2.69.22,4.28,1.47,4.5,4h-3.35a1.49,1.49,0,0,0-1.15-1.39v2.56c2.83.4,4.69,1.37,4.69,4,0,2.26-1.47,4.15-4.69,4.35v2.31h-1.44Zm0-8.63V92.53c-.83.14-1.26.59-1.26,1.18S103.76,94.69,104.76,94.89Zm1.44,3.54v2.46a1.32,1.32,0,0,0,1.24-1.31C107.44,99,107.18,98.65,106.2,98.43Z" fill="#fff"/><path d="M116.46,97.62l-4.32,2.67V94.86l5.21-3.66H123v22.71h-6.51Z" fill="#fff"/><path d="M126.08,103.05v-1c0-7.18,4.48-11.21,10.48-11.21S147,94.6,147,102v.89c0,7.21-4.13,11.43-10.61,11.43S126.08,110.19,126.08,103.05Zm14.45-.07v-.92c0-4.16-1.21-6.25-4-6.25s-4,2.06-4,6.25v1c0,4.22,1.24,6.22,4,6.22S140.53,107.18,140.53,103Z" fill="#fff"/><path d="M154.27,105.81v-.25c0-5.53,4-8.7,8.86-8.7,4.07,0,7.82,1.77,8.13,6.82h-5.33a2.46,2.46,0,0,0-2.67-2.41c-2,0-3.17,1.43-3.17,4.22v.26c0,2.89,1.11,4.38,3.27,4.38a2.77,2.77,0,0,0,2.89-2.76h5.11c-.16,4.19-3,6.92-8.35,6.92C158.05,114.29,154.27,111.4,154.27,105.81Z" fill="#fff"/><path d="M173.2,90h5.68v10a5.85,5.85,0,0,1,5.46-3.11c3.21,0,5.43,2,5.43,6.25v10.8h-5.68v-9.66c0-1.87-.73-2.79-2.38-2.79s-2.83,1-2.83,3.14v9.31H173.2Z" fill="#fff"/><path d="M191.64,105.81v-.25c0-5.34,4-8.7,9-8.7,4.54,0,8.45,2.6,8.45,8.57v1.49H197.39c.16,2.19,1.43,3.46,3.46,3.46,1.88,0,2.67-.85,2.89-2h5.34c-.51,3.75-3.4,5.88-8.42,5.88C195.45,114.29,191.64,111.24,191.64,105.81Zm11.91-2.1c-.09-2-1.08-3.11-2.92-3.11s-2.89,1.11-3.17,3.11Z" fill="#fff"/><path d="M210.25,109.3c0-3.9,3.3-5.43,8.83-5.43h1.58v-.38c0-1.59-.38-2.63-2.19-2.63a2,2,0,0,0-2.25,2h-5.34c.26-4,3.4-6,7.94-6s7.5,1.87,7.5,6.28v10.77h-5.53V112a5.44,5.44,0,0,1-4.92,2.32C212.88,114.29,210.25,112.83,210.25,109.3Zm10.41-1.2v-1h-1.49c-2.28,0-3.3.44-3.3,1.81,0,1,.63,1.56,2,1.56C219.46,110.45,220.66,109.53,220.66,108.1Z" fill="#fff"/><path d="M229.08,97.3h5.68v2.48a5.86,5.86,0,0,1,5.18-2.92c3.87,0,7,2.92,7,8.6v.25c0,5.72-3.14,8.58-7,8.58a5.49,5.49,0,0,1-5.14-2.83v8h-5.68Zm12.09,8.41v-.25c0-2.92-1.27-4.32-3.27-4.32s-3.3,1.49-3.3,4.29v.25c0,2.83,1.24,4.26,3.3,4.26S241.17,108.45,241.17,105.71Z" fill="#fff"/><path d="M248.13,105.81v-.25c0-5.34,4-8.7,9-8.7,4.54,0,8.45,2.6,8.45,8.57v1.49H253.87c.16,2.19,1.43,3.46,3.46,3.46s2.67-.85,2.89-2h5.34c-.51,3.75-3.4,5.88-8.42,5.88C251.94,114.29,248.13,111.24,248.13,105.81Zm11.9-2.1c-.09-2-1.08-3.11-2.92-3.11s-2.89,1.11-3.17,3.11Z" fill="#fff"/><path d="M267.53,97.3h5.68v3.3a5.24,5.24,0,0,1,5.37-3.52v5.3c-3.47-.09-5.37,1-5.37,3.65v7.88h-5.68Z" fill="#fff"/><path d="M22.94,142.32v-7.4h-2v-3.87h2v-3.46h5.69v3.46H31.9v3.87H28.63v6.86c0,1.21.6,1.75,1.68,1.75a4.33,4.33,0,0,0,1.62-.29v4.32a11.92,11.92,0,0,1-3.14.48C25,148,22.94,146.23,22.94,142.32Z" fill="#fff"/><path d="M34.06,123.75h5.68v10a5.85,5.85,0,0,1,5.46-3.11c3.21,0,5.43,2,5.43,6.25v10.8H45V138c0-1.87-.73-2.79-2.38-2.79s-2.83,1-2.83,3.14v9.31H34.06Z" fill="#fff"/><path d="M52.44,143.05c0-3.9,3.3-5.43,8.83-5.43h1.59v-.38c0-1.59-.39-2.63-2.2-2.63a2,2,0,0,0-2.25,2H53.08c.25-4,3.39-6,7.93-6s7.5,1.87,7.5,6.28v10.77H63v-1.94A5.44,5.44,0,0,1,58.06,148C55.08,148,52.44,146.58,52.44,143.05Zm10.42-1.2v-1h-1.5c-2.28,0-3.3.45-3.3,1.81,0,1,.64,1.56,2,1.56C61.65,144.2,62.86,143.28,62.86,141.85Z" fill="#fff"/><path d="M71.27,131.05H77v2.67a5.85,5.85,0,0,1,5.46-3.11c3.21,0,5.43,2,5.43,6.25v10.8H82.16V138c0-1.87-.73-2.79-2.38-2.79s-2.83,1-2.83,3.14v9.31H71.27Z" fill="#fff"/><path d="M101.24,130H95.37v-5h18.29v5h-5.88v17.69h-6.54Z" fill="#fff"/><path d="M114.16,141.88V131.05h5.69V141c0,1.87.73,2.79,2.35,2.79s2.82-1,2.82-3.14v-9.56h5.69v16.61H125v-2.58a5.45,5.45,0,0,1-5.27,3C116.54,148,114.16,146.07,114.16,141.88Z" fill="#fff"/><path d="M133.59,131.05h5.69v3.3a5.23,5.23,0,0,1,5.36-3.52v5.3c-3.46-.09-5.36,1-5.36,3.65v7.88h-5.69Z" fill="#fff"/><path d="M152.39,145.08v2.58H146.7V123.75h5.69v9.78a5.85,5.85,0,0,1,5.17-2.92c3.88,0,7,2.92,7,8.6v.25c0,5.72-3.14,8.58-7.05,8.58A5.38,5.38,0,0,1,152.39,145.08Zm6.41-5.62v-.25c0-2.92-1.27-4.32-3.27-4.32s-3.3,1.49-3.3,4.29v.25c0,2.83,1.24,4.26,3.3,4.26S158.8,142.2,158.8,139.46Z" fill="#fff"/><path d="M165.75,139.56v-.25c0-5.34,4-8.7,9.12-8.7s9,3.27,9,8.54v.25c0,5.4-4,8.64-9.08,8.64S165.75,144.93,165.75,139.56Zm12.39-.1v-.25c0-2.79-1.11-4.35-3.27-4.35s-3.3,1.49-3.3,4.29v.25c0,2.86,1.11,4.42,3.3,4.42S178.14,142.23,178.14,139.46Z" fill="#fff"/><path d="M185,144.8a3.16,3.16,0,0,1,3.23-3.21,3.21,3.21,0,1,1,0,6.42A3.16,3.16,0,0,1,185,144.8Z" fill="#fff"/></g></g></svg>