<svg xmlns="http://www.w3.org/2000/svg" viewBox="0 0 300 250"><title>H36</title><g id="Layer_2" data-name="Layer 2"><g id="Rect"><rect width="300" height="250" fill="#fff"/></g><g id="H36"><g id="Federal_State:_fast_easy_and_at_least_10_cheaper_than_Turbo" data-name="Federal &amp; State: fast, easy and at least $10 cheaper than Turbo"><path d="M22.19,23.2H37.53v5.05h-8.8v4.83h7v4.79h-7v8H22.19Z" fill="#fff"/><path d="M38,37.81v-.25c0-5.34,4-8.7,9-8.7,4.54,0,8.44,2.6,8.44,8.57v1.49H43.72c.16,2.19,1.43,3.46,3.46,3.46,1.87,0,2.67-.85,2.89-2H55.4C54.9,44.16,52,46.29,47,46.29,41.78,46.29,38,43.24,38,37.81Zm11.91-2.1c-.1-2-1.08-3.11-2.92-3.11s-2.89,1.11-3.18,3.11Z" fill="#fff"/><path d="M56.54,37.78v-.26c0-5.65,3.12-8.66,7.05-8.66a5.4,5.4,0,0,1,5.12,2.79V22h5.68V45.91H68.71v-2.7a5.61,5.61,0,0,1-5.18,3.08C59.69,46.29,56.54,43.53,56.54,37.78Zm12.32-.1v-.25c0-2.8-1.17-4.29-3.27-4.29s-3.27,1.43-3.27,4.32v.25c0,2.8,1.24,4.23,3.21,4.23S68.86,40.51,68.86,37.68Z" fill="#fff"/><path d="M76.39,37.81v-.25c0-5.34,4-8.7,9-8.7,4.54,0,8.45,2.6,8.45,8.57v1.49H82.14c.15,2.19,1.42,3.46,3.46,3.46,1.87,0,2.66-.85,2.89-2h5.33c-.51,3.75-3.4,5.88-8.41,5.88C80.2,46.29,76.39,43.24,76.39,37.81Zm11.91-2.1c-.1-2-1.08-3.11-2.93-3.11s-2.89,1.11-3.17,3.11Z" fill="#fff"/><path d="M95.79,29.3h5.68v3.3a5.25,5.25,0,0,1,5.37-3.52v5.3c-3.46-.09-5.37,1-5.37,3.65v7.88H95.79Z" fill="#fff"/><path d="M107.57,41.3c0-3.9,3.3-5.43,8.82-5.43H118v-.38c0-1.59-.38-2.63-2.19-2.63a2,2,0,0,0-2.25,2H108.2c.26-4,3.4-6,7.94-6s7.49,1.87,7.49,6.28V45.91h-5.52V44a5.46,5.46,0,0,1-4.92,2.32C110.2,46.29,107.57,44.83,107.57,41.3ZM118,40.1v-1h-1.49c-2.29,0-3.3.44-3.3,1.81,0,1,.63,1.56,2,1.56C116.77,42.45,118,41.53,118,40.1Z" fill="#fff"/><path d="M126.55,22h5.65V45.91h-5.65Z" fill="#fff"/><path d="M159.42,41.27l3.77,4.64h-7.4l-1.33-1.65a9.05,9.05,0,0,1-6.13,2c-4.82,0-8-2.54-8-6.86,0-2.92,1.78-5.08,5-6.6a7.21,7.21,0,0,1-1.4-4c0-3.88,3.3-5.94,7.3-5.94,3.62,0,6.89,1.81,6.89,5.3,0,2.48-1.46,4.29-4.54,5.62l2.86,3.49,1.65-3.23h5Zm-7.88-.67L148,36.29a2.79,2.79,0,0,0,1.37,5.27A3,3,0,0,0,151.54,40.6Zm-.7-9.14c1.53-.73,2.26-1.59,2.26-2.76A1.64,1.64,0,0,0,151.41,27a1.81,1.81,0,0,0-1.87,2A4.17,4.17,0,0,0,150.84,31.46Z" fill="#fff"/><path d="M169.57,38.7h6.19c.16,1.62.89,2.95,3.59,2.95,1.88,0,2.92-.92,2.92-2.25s-.85-1.78-3.58-2.19c-6.42-.77-8.58-2.67-8.58-7.24,0-4.1,3.37-7.08,8.8-7.08s8.54,2.28,9,7.08h-6a2.58,2.58,0,0,0-2.92-2.45c-1.75,0-2.64.8-2.64,1.94s.7,1.84,3.53,2.22c5.74.64,8.7,2.13,8.7,7,0,4.16-3.3,7.56-9.15,7.56C173,46.29,169.76,43.62,169.57,38.7Z" fill="#fff"/><path d="M191.35,40.57v-7.4h-2V29.3h2V25.84H197V29.3h3.27v3.87H197V40c0,1.21.6,1.75,1.68,1.75a4.37,4.37,0,0,0,1.62-.29v4.32a11.92,11.92,0,0,1-3.14.48C193.45,46.29,191.35,44.48,191.35,40.57Z" fill="#fff"/><path d="M201.58,41.3c0-3.9,3.3-5.43,8.82-5.43H212v-.38c0-1.59-.38-2.63-2.19-2.63a2,2,0,0,0-2.26,2h-5.33c.25-4,3.4-6,7.94-6s7.49,1.87,7.49,6.28V45.91h-5.52V44a5.46,5.46,0,0,1-4.92,2.32C204.21,46.29,201.58,44.83,201.58,41.3ZM212,40.1v-1H210.5c-2.29,0-3.3.44-3.3,1.81,0,1,.63,1.56,2,1.56C210.78,42.45,212,41.53,212,40.1Z" fill="#fff"/><path d="M221.07,40.57v-7.4h-2V29.3h2V25.84h5.68V29.3H230v3.87h-3.27V40a1.52,1.52,0,0,0,1.69,1.75,4.37,4.37,0,0,0,1.62-.29v4.32a11.93,11.93,0,0,1-3.15.48C223.17,46.29,221.07,44.48,221.07,40.57Z" fill="#fff"/><path d="M231.29,37.81v-.25c0-5.34,4-8.7,9-8.7,4.54,0,8.45,2.6,8.45,8.57v1.49H237c.16,2.19,1.43,3.46,3.46,3.46,1.88,0,2.67-.85,2.89-2h5.34c-.51,3.75-3.4,5.88-8.42,5.88C235.1,46.29,231.29,43.24,231.29,37.81Zm11.91-2.1c-.09-2-1.08-3.11-2.92-3.11s-2.89,1.11-3.18,3.11Z" fill="#fff"/><path d="M250.57,34a3.18,3.18,0,0,1,3.23-3.21,3.21,3.21,0,1,1,0,6.42A3.16,3.16,0,0,1,250.57,34Zm0,9.08a3.18,3.18,0,0,1,3.23-3.21,3.21,3.21,0,1,1,0,6.42A3.18,3.18,0,0,1,250.57,43.05Z" fill="#fff"/><path d="M22.54,66.92h-2.1V63.05h2.1V61.59c0-4.13,2.57-6.1,6.51-6.1a10.09,10.09,0,0,1,2.6.35V60a5.43,5.43,0,0,0-1.55-.22,1.67,1.67,0,0,0-1.91,1.81v1.46h3.37v3.87H28.19V79.66H22.54Z" fill="#fff"/><path d="M32.19,75.05c0-3.9,3.3-5.43,8.83-5.43h1.59v-.38c0-1.59-.38-2.63-2.19-2.63a2,2,0,0,0-2.26,2H32.83c.25-4,3.39-6,7.94-6s7.49,1.87,7.49,6.28V79.66H42.73V77.72A5.44,5.44,0,0,1,37.81,80C34.83,80,32.19,78.58,32.19,75.05Zm10.42-1.2v-1h-1.5c-2.28,0-3.3.44-3.3,1.81,0,1,.64,1.56,2,1.56C41.4,76.2,42.61,75.28,42.61,73.85Z" fill="#fff"/><path d="M49.91,74.39h5.24c.19,1.2.73,1.87,2.35,1.87,1.39,0,2-.54,2-1.37s-.79-1.17-3.08-1.49c-4.45-.57-6.32-1.87-6.32-5.33,0-3.69,3.27-5.46,7.11-5.46,4.1,0,7,1.39,7.34,5.36H59.43a1.85,1.85,0,0,0-2.12-1.65c-1.24,0-1.88.54-1.88,1.3s.77,1.11,2.8,1.37c4.6.57,6.82,1.78,6.82,5.33,0,3.94-2.92,5.72-7.52,5.72S50,78.07,49.91,74.39Z" fill="#fff"/><path d="M67.66,74.32v-7.4h-2V63.05h2V59.59h5.68v3.46h3.27v3.87H73.34v6.86c0,1.21.6,1.75,1.68,1.75a4.33,4.33,0,0,0,1.62-.29v4.32A11.92,11.92,0,0,1,73.5,80C69.75,80,67.66,78.23,67.66,74.32Z" fill="#fff"/><path d="M77.59,82.23l2.67-8.35,5.27,1.87L81,83.53Z" fill="#fff"/><path d="M92.9,71.56v-.25c0-5.34,4-8.7,9-8.7,4.54,0,8.45,2.6,8.45,8.57v1.49H98.64c.16,2.19,1.43,3.46,3.47,3.46,1.87,0,2.66-.85,2.89-2h5.33c-.51,3.75-3.4,5.88-8.41,5.88C96.71,80,92.9,77,92.9,71.56Zm11.9-2.1c-.09-2-1.08-3.11-2.92-3.11S99,67.46,98.71,69.46Z" fill="#fff"/><path d="M111.5,75.05c0-3.9,3.3-5.43,8.83-5.43h1.59v-.38c0-1.59-.38-2.63-2.19-2.63a2,2,0,0,0-2.26,2h-5.33c.25-4,3.39-6,7.94-6s7.49,1.87,7.49,6.28V79.66H122V77.72A5.44,5.44,0,0,1,117.12,80C114.14,80,111.5,78.58,111.5,75.05Zm10.42-1.2v-1h-1.5c-2.28,0-3.3.44-3.3,1.81,0,1,.64,1.56,2,1.56C120.71,76.2,121.92,75.28,121.92,73.85Z" fill="#fff"/><path d="M129.22,74.39h5.24c.19,1.2.73,1.87,2.35,1.87,1.39,0,2-.54,2-1.37s-.79-1.17-3.08-1.49c-4.45-.57-6.32-1.87-6.32-5.33,0-3.69,3.27-5.46,7.11-5.46,4.1,0,7,1.39,7.34,5.36h-5.15a1.85,1.85,0,0,0-2.12-1.65c-1.24,0-1.88.54-1.88,1.3s.76,1.11,2.8,1.37c4.6.57,6.82,1.78,6.82,5.33,0,3.94-2.92,5.72-7.52,5.72S129.34,78.07,129.22,74.39Z" fill="#fff"/><path d="M150.87,78l-6.63-14.92h6.16l3.43,8.86L157,63.05h5.43l-8.89,22.16h-5.43Z" fill="#fff"/><path d="M168.71,75.05c0-3.9,3.31-5.43,8.83-5.43h1.59v-.38c0-1.59-.38-2.63-2.19-2.63a2,2,0,0,0-2.26,2h-5.33c.25-4,3.4-6,7.94-6s7.49,1.87,7.49,6.28V79.66h-5.52V77.72A5.47,5.47,0,0,1,174.33,80C171.35,80,168.71,78.58,168.71,75.05Zm10.42-1.2v-1h-1.49c-2.29,0-3.31.44-3.31,1.81,0,1,.64,1.56,2,1.56C177.92,76.2,179.13,75.28,179.13,73.85Z" fill="#fff"/><path d="M187.54,63.05h5.69v2.67a5.83,5.83,0,0,1,5.46-3.11c3.2,0,5.43,2,5.43,6.25v10.8h-5.69V70c0-1.87-.73-2.79-2.38-2.79s-2.82,1-2.82,3.14v9.31h-5.69Z" fill="#fff"/><path d="M206.05,71.53v-.26c0-5.65,3.11-8.66,7-8.66a5.37,5.37,0,0,1,5.11,2.79V55.75h5.69V79.66h-5.69V77A5.59,5.59,0,0,1,213,80C209.2,80,206.05,77.28,206.05,71.53Zm12.32-.1v-.25c0-2.8-1.17-4.29-3.27-4.29s-3.27,1.43-3.27,4.32v.25c0,2.8,1.24,4.23,3.21,4.23S218.37,74.26,218.37,71.43Z" fill="#fff"/><path d="M231.61,75.05c0-3.9,3.3-5.43,8.83-5.43H242v-.38c0-1.59-.39-2.63-2.2-2.63a2,2,0,0,0-2.25,2h-5.33c.25-4,3.39-6,7.93-6s7.5,1.87,7.5,6.28V79.66h-5.53V77.72A5.44,5.44,0,0,1,237.23,80C234.25,80,231.61,78.58,231.61,75.05ZM242,73.85v-1h-1.5c-2.28,0-3.3.44-3.3,1.81,0,1,.64,1.56,2,1.56C240.82,76.2,242,75.28,242,73.85Z" fill="#fff"/><path d="M251.1,74.32v-7.4h-2V63.05h2V59.59h5.69v3.46h3.27v3.87h-3.27v6.86c0,1.21.6,1.75,1.68,1.75a4.33,4.33,0,0,0,1.62-.29v4.32A11.92,11.92,0,0,1,257,80C253.2,80,251.1,78.23,251.1,74.32Z" fill="#fff"/><path d="M21.84,89.5h5.65v23.91H21.84Z" fill="#fff"/><path d="M29.65,105.31v-.25c0-5.34,4-8.7,9-8.7,4.54,0,8.44,2.6,8.44,8.57v1.49H35.4c.16,2.19,1.43,3.46,3.46,3.46,1.87,0,2.67-.85,2.89-2h5.33c-.5,3.75-3.39,5.88-8.41,5.88C33.46,113.79,29.65,110.74,29.65,105.31Zm11.91-2.1c-.1-2-1.08-3.11-2.92-3.11s-2.89,1.11-3.18,3.11Z" fill="#fff"/><path d="M48.26,108.8c0-3.9,3.3-5.43,8.82-5.43h1.59V103c0-1.59-.38-2.63-2.19-2.63a2,2,0,0,0-2.25,2H48.89c.26-4,3.4-6,7.94-6s7.49,1.87,7.49,6.28v10.77H58.8v-1.94a5.46,5.46,0,0,1-4.92,2.32C50.89,113.79,48.26,112.33,48.26,108.8Zm10.41-1.2v-1H57.18c-2.29,0-3.3.44-3.3,1.81,0,1,.63,1.56,2,1.56C57.47,110,58.67,109,58.67,107.6Z" fill="#fff"/><path d="M66,108.14h5.24c.19,1.2.73,1.87,2.35,1.87,1.4,0,2-.54,2-1.37s-.79-1.17-3.08-1.49c-4.44-.57-6.32-1.87-6.32-5.33,0-3.69,3.28-5.46,7.12-5.46,4.09,0,7,1.39,7.33,5.36H75.5a1.86,1.86,0,0,0-2.13-1.65c-1.24,0-1.87.54-1.87,1.3s.76,1.11,2.79,1.37c4.61.57,6.83,1.78,6.83,5.33,0,3.94-2.92,5.72-7.53,5.72S66.1,111.82,66,108.14Z" fill="#fff"/><path d="M83.72,108.07v-7.4h-2V96.8h2V93.34h5.69V96.8h3.27v3.87H89.41v6.86c0,1.21.6,1.75,1.68,1.75a4.37,4.37,0,0,0,1.62-.29v4.32a11.93,11.93,0,0,1-3.15.48C85.82,113.79,83.72,112,83.72,108.07Z" fill="#fff"/><path d="M104.26,103c-3.2-.22-4.76-1.93-4.89-4.37h3.43a1.75,1.75,0,0,0,1.46,1.74v-2.7c-3.22-.46-4.59-1.63-4.59-4.2,0-2.24,1.76-3.85,4.59-4.06V87.79h1.44v1.66c2.69.22,4.28,1.47,4.5,4h-3.35a1.49,1.49,0,0,0-1.15-1.39v2.56c2.83.4,4.69,1.37,4.69,4,0,2.26-1.47,4.15-4.69,4.35v2.31h-1.44Zm0-8.63V92c-.83.14-1.26.59-1.26,1.18S103.26,94.19,104.26,94.39Zm1.44,3.54v2.46a1.32,1.32,0,0,0,1.24-1.31C106.94,98.47,106.68,98.15,105.7,97.93Z" fill="#fff"/><path d="M116,97.12l-4.32,2.67V94.36l5.21-3.66h5.62v22.71H116Z" fill="#fff"/><path d="M125.58,102.55v-1c0-7.18,4.48-11.21,10.48-11.21s10.48,3.71,10.48,11.08v.89c0,7.21-4.13,11.43-10.61,11.43S125.58,109.69,125.58,102.55Zm14.45-.07v-.92c0-4.16-1.21-6.25-4-6.25s-4,2.06-4,6.25v1c0,4.22,1.24,6.22,4,6.22S140,106.68,140,102.48Z" fill="#fff"/><path d="M153.77,105.31v-.25c0-5.53,4-8.7,8.86-8.7,4.07,0,7.82,1.77,8.13,6.82h-5.33a2.46,2.46,0,0,0-2.67-2.41c-2,0-3.17,1.43-3.17,4.22v.26c0,2.89,1.11,4.38,3.27,4.38a2.77,2.77,0,0,0,2.89-2.76h5.11c-.16,4.19-3,6.92-8.35,6.92C157.55,113.79,153.77,110.9,153.77,105.31Z" fill="#fff"/><path d="M172.7,89.5h5.68v10a5.85,5.85,0,0,1,5.46-3.11c3.21,0,5.43,2,5.43,6.25v10.8h-5.68v-9.66c0-1.87-.73-2.79-2.38-2.79s-2.83,1-2.83,3.14v9.31H172.7Z" fill="#fff"/><path d="M191.14,105.31v-.25c0-5.34,4-8.7,9-8.7,4.54,0,8.45,2.6,8.45,8.57v1.49H196.89c.16,2.19,1.43,3.46,3.46,3.46,1.88,0,2.67-.85,2.89-2h5.34c-.51,3.75-3.4,5.88-8.42,5.88C195,113.79,191.14,110.74,191.14,105.31Zm11.91-2.1c-.09-2-1.08-3.11-2.92-3.11s-2.89,1.11-3.17,3.11Z" fill="#fff"/><path d="M209.75,108.8c0-3.9,3.3-5.43,8.83-5.43h1.58V103c0-1.59-.38-2.63-2.19-2.63a2,2,0,0,0-2.25,2h-5.34c.26-4,3.4-6,7.94-6s7.5,1.87,7.5,6.28v10.77h-5.53v-1.94a5.44,5.44,0,0,1-4.92,2.32C212.38,113.79,209.75,112.33,209.75,108.8Zm10.41-1.2v-1h-1.49c-2.28,0-3.3.44-3.3,1.81,0,1,.63,1.56,2,1.56C219,110,220.16,109,220.16,107.6Z" fill="#fff"/><path d="M228.58,96.8h5.68v2.48a5.86,5.86,0,0,1,5.18-2.92c3.87,0,7,2.92,7,8.6v.25c0,5.72-3.14,8.58-7,8.58a5.49,5.49,0,0,1-5.14-2.83v8h-5.68Zm12.09,8.41V105c0-2.92-1.27-4.32-3.27-4.32s-3.3,1.49-3.3,4.29v.25c0,2.83,1.24,4.26,3.3,4.26S240.67,108,240.67,105.21Z" fill="#fff"/><path d="M247.63,105.31v-.25c0-5.34,4-8.7,9-8.7,4.54,0,8.45,2.6,8.45,8.57v1.49H253.37c.16,2.19,1.43,3.46,3.46,3.46s2.67-.85,2.89-2h5.34c-.51,3.75-3.4,5.88-8.42,5.88C251.44,113.79,247.63,110.74,247.63,105.31Zm11.9-2.1c-.09-2-1.08-3.11-2.92-3.11s-2.89,1.11-3.17,3.11Z" fill="#fff"/><path d="M267,96.8h5.68v3.3a5.24,5.24,0,0,1,5.37-3.52v5.3c-3.47-.09-5.37,1-5.37,3.65v7.88H267Z" fill="#fff"/><path d="M22.44,141.82v-7.4h-2v-3.87h2v-3.46h5.69v3.46H31.4v3.87H28.13v6.86c0,1.21.6,1.75,1.68,1.75a4.33,4.33,0,0,0,1.62-.29v4.32a11.92,11.92,0,0,1-3.14.48C24.54,147.54,22.44,145.73,22.44,141.82Z" fill="#fff"/><path d="M33.56,123.25h5.68v10a5.85,5.85,0,0,1,5.46-3.11c3.21,0,5.43,2,5.43,6.25v10.8H44.45V137.5c0-1.87-.73-2.79-2.38-2.79s-2.83,1-2.83,3.14v9.31H33.56Z" fill="#fff"/><path d="M51.94,142.55c0-3.9,3.3-5.43,8.83-5.43h1.59v-.38c0-1.59-.39-2.63-2.2-2.63a2,2,0,0,0-2.25,2H52.58c.25-4,3.39-6,7.93-6S68,132,68,136.39v10.77H62.48v-1.94a5.44,5.44,0,0,1-4.92,2.32C54.58,147.54,51.94,146.08,51.94,142.55Zm10.42-1.2v-1h-1.5c-2.28,0-3.3.45-3.3,1.81,0,1,.64,1.56,2,1.56C61.15,143.7,62.36,142.78,62.36,141.35Z" fill="#fff"/><path d="M70.77,130.55h5.68v2.67a5.85,5.85,0,0,1,5.46-3.11c3.21,0,5.43,2,5.43,6.25v10.8H81.66V137.5c0-1.87-.73-2.79-2.38-2.79s-2.83,1-2.83,3.14v9.31H70.77Z" fill="#fff"/><path d="M100.74,129.47H94.87v-5h18.29v5h-5.88v17.69h-6.54Z" fill="#fff"/><path d="M113.66,141.38V130.55h5.69v9.91c0,1.87.73,2.79,2.35,2.79s2.82-1,2.82-3.14v-9.56h5.69v16.61h-5.69v-2.58a5.45,5.45,0,0,1-5.27,3C116,147.54,113.66,145.57,113.66,141.38Z" fill="#fff"/><path d="M133.09,130.55h5.69v3.3a5.23,5.23,0,0,1,5.36-3.52v5.3c-3.46-.09-5.36,1-5.36,3.65v7.88h-5.69Z" fill="#fff"/><path d="M151.89,144.58v2.58H146.2V123.25h5.69V133a5.85,5.85,0,0,1,5.17-2.92c3.88,0,7,2.92,7,8.6V139c0,5.72-3.14,8.58-7.05,8.58A5.38,5.38,0,0,1,151.89,144.58ZM158.3,139v-.25c0-2.92-1.27-4.32-3.27-4.32s-3.3,1.49-3.3,4.29v.25c0,2.83,1.24,4.26,3.3,4.26S158.3,141.7,158.3,139Z" fill="#fff"/><path d="M165.25,139.06v-.25c0-5.34,4-8.7,9.12-8.7s9,3.27,9,8.54v.25c0,5.4-4,8.64-9.08,8.64S165.25,144.43,165.25,139.06Zm12.39-.1v-.25c0-2.79-1.11-4.35-3.27-4.35s-3.3,1.49-3.3,4.29v.25c0,2.86,1.11,4.42,3.3,4.42S177.64,141.73,177.64,139Z" fill="#fff"/><path d="M190.27,129.47H184.4v-5h18.29v5h-5.88v17.69h-6.54Z" fill="#fff"/><path d="M201.54,142.55c0-3.9,3.31-5.43,8.83-5.43H212v-.38c0-1.59-.38-2.63-2.19-2.63a2,2,0,0,0-2.26,2h-5.33c.25-4,3.4-6,7.94-6s7.49,1.87,7.49,6.28v10.77h-5.52v-1.94a5.46,5.46,0,0,1-4.92,2.32C204.18,147.54,201.54,146.08,201.54,142.55Zm10.42-1.2v-1h-1.49c-2.29,0-3.3.45-3.3,1.81,0,1,.63,1.56,2,1.56C210.75,143.7,212,142.78,212,141.35Z" fill="#fff"/><path d="M224.56,138.71l-5.17-8.16h6.54l2.57,4.38,2.51-4.38h5.84l-5.24,7.72,5.75,8.89h-6.54l-2.95-5-3,5H219Z" fill="#fff"/><path d="M238.5,144.3a3.17,3.17,0,0,1,3.24-3.21,3.21,3.21,0,1,1,0,6.42A3.17,3.17,0,0,1,238.5,144.3Z" fill="#fff"/></g></g></g></svg>