<?xml version="1.0" encoding="utf-8"?>
<!-- Generator: Adobe Illustrator 23.1.0, SVG Export Plug-In . SVG Version: 6.00 Build 0)  -->
<svg version="1.1" id="Layer_1" xmlns="http://www.w3.org/2000/svg" xmlns:xlink="http://www.w3.org/1999/xlink" x="0px" y="0px"
	 viewBox="0 0 300 250" style="enable-background:new 0 0 300 250;" xml:space="preserve">
<style type="text/css">
	.st0{fill:none;}
	.st1{fill:#FFFFFF;}
</style>
<title>H36</title>
<g>
	<g id="Rect">
		<rect class="st0" width="300" height="250"/>
	</g>
	<g id="H36">
		<g id="Federal_State:_fast_easy_and_at_least_10_cheaper_than_Turbo">
			<path class="st1" d="M22.2,23.2h15.3v5h-8.8v4.8h7v4.8h-7v8h-6.5V23.2z"/>
			<path class="st1" d="M38,37.8v-0.3c0-5.3,4-8.7,9-8.7c4.5,0,8.4,2.6,8.4,8.6v1.5H43.7c0.2,2.2,1.4,3.5,3.5,3.5
				c1.9,0,2.7-0.8,2.9-2h5.3c-0.5,3.8-3.4,5.9-8.4,5.9C41.8,46.3,38,43.2,38,37.8z M49.9,35.7c-0.1-2-1.1-3.1-2.9-3.1
				s-2.9,1.1-3.2,3.1H49.9z"/>
			<path class="st1" d="M56.5,37.8v-0.3c0-5.6,3.1-8.7,7-8.7c2.1-0.2,4.1,0.9,5.1,2.8V22h5.7v23.9h-5.7v-2.7c-1,1.9-3,3.1-5.2,3.1
				C59.7,46.3,56.5,43.5,56.5,37.8z M68.9,37.7v-0.3c0-2.8-1.2-4.3-3.3-4.3s-3.3,1.4-3.3,4.3v0.3c0,2.8,1.2,4.2,3.2,4.2
				S68.9,40.5,68.9,37.7z"/>
			<path class="st1" d="M76.4,37.8v-0.3c0-5.3,4-8.7,9-8.7c4.5,0,8.4,2.6,8.4,8.6v1.5H82.1c0.2,2.2,1.4,3.5,3.5,3.5
				c1.9,0,2.7-0.8,2.9-2h5.3c-0.5,3.8-3.4,5.9-8.4,5.9C80.2,46.3,76.4,43.2,76.4,37.8z M88.3,35.7c-0.1-2-1.1-3.1-2.9-3.1
				s-2.9,1.1-3.2,3.1H88.3z"/>
			<path class="st1" d="M95.8,29.3h5.7v3.3c0.8-2.3,3-3.7,5.4-3.5v5.3c-3.5-0.1-5.4,1-5.4,3.7v7.9h-5.7V29.3z"/>
			<path class="st1" d="M107.6,41.3c0-3.9,3.3-5.4,8.8-5.4h1.6v-0.4c0-1.6-0.4-2.6-2.2-2.6c-1.1-0.1-2.1,0.6-2.2,1.7
				c0,0.1,0,0.2,0,0.3h-5.4c0.3-4,3.4-6,7.9-6s7.5,1.9,7.5,6.3v10.8h-5.5V44c-1.1,1.6-3,2.5-4.9,2.3
				C110.2,46.3,107.6,44.8,107.6,41.3z M118,40.1v-1h-1.5c-2.3,0-3.3,0.4-3.3,1.8c0,1,0.6,1.6,2,1.6C116.8,42.5,118,41.5,118,40.1z"
				/>
			<path class="st1" d="M126.6,22h5.6v23.9h-5.7L126.6,22z"/>
			<path class="st1" d="M159.4,41.3l3.8,4.6h-7.4l-1.3-1.7c-1.7,1.4-3.9,2.1-6.1,2c-4.8,0-8-2.5-8-6.9c0-2.9,1.8-5.1,5-6.6
				c-0.9-1.2-1.3-2.6-1.4-4c0-3.9,3.3-5.9,7.3-5.9c3.6,0,6.9,1.8,6.9,5.3c0,2.5-1.5,4.3-4.5,5.6l2.9,3.5l1.6-3.2h5L159.4,41.3z
				 M151.5,40.6l-3.5-4.3c-1.4,0.7-1.9,2.4-1.2,3.8c0.5,1,1.5,1.6,2.6,1.5C150.2,41.6,151,41.2,151.5,40.6z M150.8,31.5
				c1.5-0.7,2.3-1.6,2.3-2.8c0-0.9-0.7-1.7-1.6-1.7c0,0-0.1,0-0.1,0c-1,0-1.8,0.7-1.9,1.7c0,0.1,0,0.2,0,0.3
				C149.7,29.9,150.1,30.8,150.8,31.5z"/>
			<path class="st1" d="M169.6,38.7h6.2c0.2,1.6,0.9,3,3.6,3c1.9,0,2.9-0.9,2.9-2.3s-0.9-1.8-3.6-2.2c-6.4-0.8-8.6-2.7-8.6-7.2
				c0-4.1,3.4-7.1,8.8-7.1s8.5,2.3,9,7.1h-6c-0.1-1.4-1.3-2.5-2.7-2.5c-0.1,0-0.2,0-0.2,0c-1.8,0-2.6,0.8-2.6,1.9s0.7,1.8,3.5,2.2
				c5.7,0.6,8.7,2.1,8.7,7c0,4.2-3.3,7.6-9.1,7.6C173,46.3,169.8,43.6,169.6,38.7z"/>
			<path class="st1" d="M191.4,40.6v-7.4h-2v-3.9h2v-3.5h5.6v3.5h3.3v3.9H197V40c0,1.2,0.6,1.8,1.7,1.8c0.6,0,1.1-0.1,1.6-0.3v4.3
				c-1,0.3-2.1,0.5-3.1,0.5C193.4,46.3,191.4,44.5,191.4,40.6z"/>
			<path class="st1" d="M201.6,41.3c0-3.9,3.3-5.4,8.8-5.4h1.6v-0.4c0-1.6-0.4-2.6-2.2-2.6c-1.1-0.1-2.1,0.6-2.2,1.7
				c0,0.1,0,0.2,0,0.3h-5.3c0.3-4,3.4-6,7.9-6s7.5,1.9,7.5,6.3v10.8h-5.5V44c-1.1,1.6-3,2.5-4.9,2.3
				C204.2,46.3,201.6,44.8,201.6,41.3z M212,40.1v-1h-1.5c-2.3,0-3.3,0.4-3.3,1.8c0,1,0.6,1.6,2,1.6C210.8,42.5,212,41.5,212,40.1z"
				/>
			<path class="st1" d="M221.1,40.6v-7.4h-2v-3.9h2v-3.5h5.7v3.5h3.3v3.9h-3.3V40c-0.1,0.8,0.4,1.6,1.3,1.7c0.1,0,0.3,0,0.4,0
				c0.6,0,1.1-0.1,1.6-0.3v4.3c-1,0.3-2.1,0.5-3.1,0.5C223.2,46.3,221.1,44.5,221.1,40.6z"/>
			<path class="st1" d="M231.3,37.8v-0.3c0-5.3,4-8.7,9-8.7c4.5,0,8.4,2.6,8.4,8.6v1.5H237c0.2,2.2,1.4,3.5,3.5,3.5
				c1.9,0,2.7-0.8,2.9-2h5.3c-0.5,3.8-3.4,5.9-8.4,5.9C235.1,46.3,231.3,43.2,231.3,37.8z M243.2,35.7c-0.1-2-1.1-3.1-2.9-3.1
				s-2.9,1.1-3.2,3.1H243.2z"/>
			<path class="st1" d="M250.6,34c0-1.8,1.4-3.2,3.1-3.2c0,0,0.1,0,0.1,0c1.8,0,3.2,1.4,3.2,3.2c0,1.8-1.4,3.2-3.2,3.2c0,0,0,0,0,0
				c-1.7,0-3.2-1.3-3.2-3.1C250.6,34.1,250.6,34,250.6,34z M250.6,43.1c0-1.8,1.4-3.2,3.1-3.2c0,0,0.1,0,0.1,0
				c1.8,0,3.2,1.4,3.2,3.2c0,1.8-1.4,3.2-3.2,3.2c0,0,0,0,0,0C252,46.3,250.6,44.9,250.6,43.1C250.6,43.1,250.6,43.1,250.6,43.1
				L250.6,43.1z"/>
			<path class="st1" d="M22.5,66.9h-2.1V63h2.1v-1.5c0-4.1,2.6-6.1,6.5-6.1c0.9,0,1.8,0.1,2.6,0.3V60c-0.5-0.1-1-0.2-1.5-0.2
				c-0.9-0.1-1.8,0.5-1.9,1.4c0,0.1,0,0.3,0,0.4V63h3.4v3.9h-3.4v12.7h-5.6V66.9z"/>
			<path class="st1" d="M32.2,75.1c0-3.9,3.3-5.4,8.8-5.4h1.6v-0.4c0-1.6-0.4-2.6-2.2-2.6c-1.1-0.1-2.1,0.6-2.2,1.7
				c0,0.1,0,0.2,0,0.3h-5.3c0.3-4,3.4-6,7.9-6s7.5,1.9,7.5,6.3v10.8h-5.5v-1.9c-1.1,1.6-3,2.4-4.9,2.3C34.8,80,32.2,78.6,32.2,75.1z
				 M42.6,73.9v-1h-1.5c-2.3,0-3.3,0.4-3.3,1.8c0,1,0.6,1.6,2,1.6C41.4,76.2,42.6,75.3,42.6,73.9z"/>
			<path class="st1" d="M49.9,74.4h5.2c0.2,1.2,0.7,1.9,2.3,1.9c1.4,0,2-0.5,2-1.4s-0.8-1.2-3.1-1.5c-4.5-0.6-6.3-1.9-6.3-5.3
				c0-3.7,3.3-5.5,7.1-5.5c4.1,0,7,1.4,7.3,5.4h-5.1c-0.1-1-1-1.8-2-1.7c0,0-0.1,0-0.1,0c-1.2,0-1.9,0.5-1.9,1.3s0.8,1.1,2.8,1.4
				c4.6,0.6,6.8,1.8,6.8,5.3c0,3.9-2.9,5.7-7.5,5.7S50,78.1,49.9,74.4z"/>
			<path class="st1" d="M67.7,74.3v-7.4h-2V63h2v-3.5h5.7V63h3.3v3.9h-3.3v6.9c0,1.2,0.6,1.8,1.7,1.8c0.6,0,1.1-0.1,1.6-0.3v4.3
				c-1,0.3-2.1,0.4-3.1,0.4C69.8,80,67.7,78.2,67.7,74.3z"/>
			<path class="st1" d="M77.6,82.2l2.7-8.3l5.3,1.9L81,83.5L77.6,82.2z"/>
			<path class="st1" d="M92.9,71.6v-0.3c0-5.3,4-8.7,9-8.7c4.5,0,8.4,2.6,8.4,8.6v1.5H98.6c0.2,2.2,1.4,3.5,3.5,3.5
				c1.9,0,2.7-0.8,2.9-2h5.3c-0.5,3.8-3.4,5.9-8.4,5.9C96.7,80,92.9,77,92.9,71.6z M104.8,69.5c-0.1-2-1.1-3.1-2.9-3.1
				s-2.9,1.1-3.2,3.1H104.8z"/>
			<path class="st1" d="M111.5,75.1c0-3.9,3.3-5.4,8.8-5.4h1.6v-0.4c0-1.6-0.4-2.6-2.2-2.6c-1.1-0.1-2.1,0.6-2.2,1.7
				c0,0.1,0,0.2,0,0.3h-5.3c0.3-4,3.4-6,7.9-6s7.5,1.9,7.5,6.3v10.8H122v-1.9c-1.1,1.6-3,2.4-4.9,2.3
				C114.1,80,111.5,78.6,111.5,75.1z M121.9,73.9v-1h-1.5c-2.3,0-3.3,0.4-3.3,1.8c0,1,0.6,1.6,2,1.6
				C120.7,76.2,121.9,75.3,121.9,73.9z"/>
			<path class="st1" d="M129.2,74.4h5.2c0.2,1.2,0.7,1.9,2.4,1.9c1.4,0,2-0.5,2-1.4s-0.8-1.2-3.1-1.5c-4.4-0.6-6.3-1.9-6.3-5.3
				c0-3.7,3.3-5.5,7.1-5.5c4.1,0,7,1.4,7.3,5.4h-5.1c-0.1-1-1-1.8-2-1.7c0,0-0.1,0-0.1,0c-1.2,0-1.9,0.5-1.9,1.3s0.8,1.1,2.8,1.4
				c4.6,0.6,6.8,1.8,6.8,5.3c0,3.9-2.9,5.7-7.5,5.7S129.3,78.1,129.2,74.4z"/>
			<path class="st1" d="M150.9,78l-6.6-14.9h6.2l3.4,8.9L157,63h5.4l-8.9,22.2h-5.4L150.9,78z"/>
			<path class="st1" d="M168.7,75.1c0-3.9,3.3-5.4,8.8-5.4h1.6v-0.4c0-1.6-0.4-2.6-2.2-2.6c-1.1-0.1-2.1,0.6-2.2,1.7
				c0,0.1,0,0.2,0,0.3h-5.3c0.3-4,3.4-6,7.9-6s7.5,1.9,7.5,6.3v10.8h-5.5v-1.9c-1.1,1.6-3,2.4-4.9,2.3
				C171.4,80,168.7,78.6,168.7,75.1z M179.1,73.9v-1h-1.5c-2.3,0-3.3,0.4-3.3,1.8c0,1,0.6,1.6,2,1.6
				C177.9,76.2,179.1,75.3,179.1,73.9z"/>
			<path class="st1" d="M187.5,63h5.7v2.7c1.1-2,3.2-3.2,5.5-3.1c3.2,0,5.4,2,5.4,6.3v10.8h-5.7V70c0-1.9-0.7-2.8-2.4-2.8
				s-2.8,1-2.8,3.1v9.3h-5.7L187.5,63z"/>
			<path class="st1" d="M206.1,71.5v-0.3c0-5.7,3.1-8.7,7-8.7c2.1-0.2,4.1,0.9,5.1,2.8v-9.6h5.7v23.9h-5.7V77c-1,1.9-3,3.1-5.2,3
				C209.2,80,206.1,77.3,206.1,71.5z M218.4,71.4v-0.3c0-2.8-1.2-4.3-3.3-4.3s-3.3,1.4-3.3,4.3v0.3c0,2.8,1.2,4.2,3.2,4.2
				S218.4,74.3,218.4,71.4z"/>
			<path class="st1" d="M231.6,75.1c0-3.9,3.3-5.4,8.8-5.4h1.6v-0.4c0-1.6-0.4-2.6-2.2-2.6c-1.1-0.1-2.1,0.6-2.2,1.7
				c0,0.1,0,0.2,0,0.3h-5.3c0.3-4,3.4-6,7.9-6s7.5,1.9,7.5,6.3v10.8h-5.5v-1.9c-1.1,1.6-3,2.4-4.9,2.3
				C234.3,80,231.6,78.6,231.6,75.1z M242,73.8v-1h-1.5c-2.3,0-3.3,0.4-3.3,1.8c0,1,0.6,1.6,2,1.6C240.8,76.2,242,75.3,242,73.8z"/>
			<path class="st1" d="M251.1,74.3v-7.4h-2V63h2v-3.5h5.7V63h3.3v3.9h-3.3v6.9c0,1.2,0.6,1.8,1.7,1.8c0.6,0,1.1-0.1,1.6-0.3v4.3
				c-1,0.3-2,0.4-3.1,0.4C253.2,80,251.1,78.2,251.1,74.3z"/>
			<path class="st1" d="M21.8,89.5h5.6v23.9h-5.6V89.5z"/>
			<path class="st1" d="M29.6,105.3v-0.3c0-5.3,4-8.7,9-8.7c4.5,0,8.4,2.6,8.4,8.6v1.5H35.4c0.2,2.2,1.4,3.5,3.5,3.5
				c1.9,0,2.7-0.8,2.9-2h5.3c-0.5,3.8-3.4,5.9-8.4,5.9C33.5,113.8,29.6,110.7,29.6,105.3z M41.6,103.2c-0.1-2-1.1-3.1-2.9-3.1
				s-2.9,1.1-3.2,3.1H41.6z"/>
			<path class="st1" d="M48.3,108.8c0-3.9,3.3-5.4,8.8-5.4h1.6V103c0-1.6-0.4-2.6-2.2-2.6c-1.1-0.1-2.1,0.6-2.2,1.7
				c0,0.1,0,0.2,0,0.3h-5.3c0.3-4,3.4-6,7.9-6s7.5,1.9,7.5,6.3v10.8h-5.5v-1.9c-1.1,1.6-3,2.5-4.9,2.3
				C50.9,113.8,48.3,112.3,48.3,108.8z M58.7,107.6v-1h-1.5c-2.3,0-3.3,0.4-3.3,1.8c0,1,0.6,1.6,2,1.6C57.5,110,58.7,109,58.7,107.6
				z"/>
			<path class="st1" d="M66,108.1h5.2c0.2,1.2,0.7,1.9,2.3,1.9c1.4,0,2-0.5,2-1.4s-0.8-1.2-3.1-1.5c-4.4-0.6-6.3-1.9-6.3-5.3
				c0-3.7,3.3-5.5,7.1-5.5c4.1,0,7,1.4,7.3,5.4h-5.1c-0.1-1-1-1.8-2-1.7c0,0-0.1,0-0.1,0c-1.2,0-1.9,0.5-1.9,1.3s0.8,1.1,2.8,1.4
				c4.6,0.6,6.8,1.8,6.8,5.3c0,3.9-2.9,5.7-7.5,5.7S66.1,111.8,66,108.1z"/>
			<path class="st1" d="M83.7,108.1v-7.4h-2v-3.9h2v-3.5h5.7v3.5h3.3v3.9h-3.3v6.9c0,1.2,0.6,1.8,1.7,1.8c0.6,0,1.1-0.1,1.6-0.3v4.3
				c-1,0.3-2.1,0.5-3.2,0.5C85.8,113.8,83.7,112,83.7,108.1z"/>
			<path class="st1" d="M104.3,103c-3.2-0.2-4.8-1.9-4.9-4.4h3.4c0,0.9,0.6,1.6,1.5,1.7v-2.7c-3.2-0.5-4.6-1.6-4.6-4.2
				c0-2.2,1.8-3.8,4.6-4.1v-1.6h1.4v1.7c2.7,0.2,4.3,1.5,4.5,4h-3.3c0-0.7-0.5-1.2-1.2-1.4v2.6c2.8,0.4,4.7,1.4,4.7,4
				c0,2.3-1.5,4.2-4.7,4.3v2.3h-1.4L104.3,103z M104.3,94.4V92c-0.8,0.1-1.3,0.6-1.3,1.2S103.3,94.2,104.3,94.4L104.3,94.4z
				 M105.7,97.9v2.5c0.7,0,1.2-0.6,1.2-1.3C106.9,98.5,106.7,98.2,105.7,97.9L105.7,97.9z"/>
			<path class="st1" d="M116,97.1l-4.3,2.7v-5.4l5.2-3.7h5.6v22.7H116V97.1z"/>
			<path class="st1" d="M125.6,102.6v-1c0-7.2,4.5-11.2,10.5-11.2s10.5,3.7,10.5,11.1v0.9c0,7.2-4.1,11.4-10.6,11.4
				S125.6,109.7,125.6,102.6z M140,102.5v-0.9c0-4.2-1.2-6.3-4-6.3s-4,2.1-4,6.3v1c0,4.2,1.2,6.2,4,6.2S140,106.7,140,102.5
				L140,102.5z"/>
			<path class="st1" d="M153.8,105.3v-0.3c0-5.5,4-8.7,8.9-8.7c4.1,0,7.8,1.8,8.1,6.8h-5.3c0-1.4-1.1-2.4-2.5-2.4
				c-0.1,0-0.1,0-0.2,0c-2,0-3.2,1.4-3.2,4.2v0.3c0,2.9,1.1,4.4,3.3,4.4c1.5,0.1,2.8-1.1,2.9-2.6c0,0,0-0.1,0-0.1h5.1
				c-0.2,4.2-3,6.9-8.4,6.9C157.6,113.8,153.8,110.9,153.8,105.3z"/>
			<path class="st1" d="M172.7,89.5h5.7v10c1.1-2,3.2-3.2,5.5-3.1c3.2,0,5.4,2,5.4,6.3v10.8h-5.7v-9.7c0-1.9-0.7-2.8-2.4-2.8
				s-2.8,1-2.8,3.1v9.3h-5.7V89.5z"/>
			<path class="st1" d="M191.1,105.3v-0.3c0-5.3,4-8.7,9-8.7c4.5,0,8.4,2.6,8.4,8.6v1.5h-11.7c0.2,2.2,1.4,3.5,3.5,3.5
				c1.9,0,2.7-0.8,2.9-2h5.3c-0.5,3.8-3.4,5.9-8.4,5.9C195,113.8,191.1,110.7,191.1,105.3z M203.1,103.2c-0.1-2-1.1-3.1-2.9-3.1
				s-2.9,1.1-3.2,3.1H203.1z"/>
			<path class="st1" d="M209.8,108.8c0-3.9,3.3-5.4,8.8-5.4h1.6V103c0-1.6-0.4-2.6-2.2-2.6c-1.1-0.1-2.1,0.6-2.2,1.7
				c0,0.1,0,0.2,0,0.3h-5.3c0.3-4,3.4-6,7.9-6s7.5,1.9,7.5,6.3v10.8h-5.5v-1.9c-1.1,1.6-3,2.5-4.9,2.3
				C212.4,113.8,209.8,112.3,209.8,108.8z M220.2,107.6v-1h-1.5c-2.3,0-3.3,0.4-3.3,1.8c0,1,0.6,1.6,2,1.6
				C219,110,220.2,109,220.2,107.6z"/>
			<path class="st1" d="M228.6,96.8h5.7v2.5c1.1-1.8,3.1-3,5.2-2.9c3.9,0,7,2.9,7,8.6v0.3c0,5.7-3.1,8.6-7,8.6
				c-2.1,0.1-4.1-1-5.1-2.8v8h-5.7L228.6,96.8z M240.7,105.2V105c0-2.9-1.3-4.3-3.3-4.3s-3.3,1.5-3.3,4.3v0.3c0,2.8,1.2,4.3,3.3,4.3
				S240.7,108,240.7,105.2z"/>
			<path class="st1" d="M247.6,105.3v-0.3c0-5.3,4-8.7,9-8.7c4.5,0,8.5,2.6,8.5,8.6v1.5h-11.7c0.2,2.2,1.4,3.5,3.5,3.5
				s2.7-0.8,2.9-2h5.3c-0.5,3.8-3.4,5.9-8.4,5.9C251.4,113.8,247.6,110.7,247.6,105.3z M259.5,103.2c-0.1-2-1.1-3.1-2.9-3.1
				s-2.9,1.1-3.2,3.1H259.5z"/>
			<path class="st1" d="M267,96.8h5.7v3.3c0.8-2.3,3-3.7,5.4-3.5v5.3c-3.5-0.1-5.4,1-5.4,3.7v7.9H267V96.8z"/>
			<path class="st1" d="M22.4,141.8v-7.4h-2v-3.9h2v-3.5h5.7v3.5h3.3v3.9h-3.3v6.9c0,1.2,0.6,1.8,1.7,1.8c0.6,0,1.1-0.1,1.6-0.3v4.3
				c-1,0.3-2.1,0.5-3.1,0.5C24.5,147.5,22.4,145.7,22.4,141.8z"/>
			<path class="st1" d="M33.6,123.3h5.7v10c1.1-2,3.2-3.2,5.5-3.1c3.2,0,5.4,2,5.4,6.3v10.8h-5.7v-9.7c0-1.9-0.7-2.8-2.4-2.8
				s-2.8,1-2.8,3.1v9.3h-5.7V123.3z"/>
			<path class="st1" d="M51.9,142.6c0-3.9,3.3-5.4,8.8-5.4h1.6v-0.4c0-1.6-0.4-2.6-2.2-2.6c-1.1-0.1-2.1,0.6-2.2,1.7
				c0,0.1,0,0.2,0,0.3h-5.3c0.3-4,3.4-6,7.9-6s7.5,1.9,7.5,6.3v10.8h-5.5v-1.9c-1.1,1.6-3,2.5-4.9,2.3
				C54.6,147.5,51.9,146.1,51.9,142.6z M62.4,141.4v-1h-1.5c-2.3,0-3.3,0.4-3.3,1.8c0,1,0.6,1.6,2,1.6
				C61.2,143.7,62.4,142.8,62.4,141.4z"/>
			<path class="st1" d="M70.8,130.6h5.7v2.7c1.1-2,3.2-3.2,5.5-3.1c3.2,0,5.4,2,5.4,6.3v10.8h-5.7v-9.7c0-1.9-0.7-2.8-2.4-2.8
				s-2.8,1-2.8,3.1v9.3h-5.7V130.6z"/>
			<path class="st1" d="M100.7,129.5h-5.9v-5h18.3v5h-5.9v17.7h-6.5L100.7,129.5z"/>
			<path class="st1" d="M113.7,141.4v-10.8h5.7v9.9c0,1.9,0.7,2.8,2.3,2.8s2.8-1,2.8-3.1v-9.6h5.7v16.6h-5.7v-2.6
				c-1,2-3.1,3.2-5.3,3C116,147.5,113.7,145.6,113.7,141.4z"/>
			<path class="st1" d="M133.1,130.6h5.7v3.3c0.8-2.3,3-3.7,5.4-3.5v5.3c-3.5-0.1-5.4,1-5.4,3.6v7.9h-5.7V130.6z"/>
			<path class="st1" d="M151.9,144.6v2.6h-5.7v-23.9h5.7v9.8c1.1-1.8,3-3,5.2-2.9c3.9,0,7,2.9,7,8.6v0.3c0,5.7-3.1,8.6-7.1,8.6
				C154.9,147.7,152.8,146.5,151.9,144.6z M158.3,139v-0.3c0-2.9-1.3-4.3-3.3-4.3s-3.3,1.5-3.3,4.3v0.3c0,2.8,1.2,4.3,3.3,4.3
				S158.3,141.7,158.3,139z"/>
			<path class="st1" d="M165.3,139.1v-0.3c0-5.3,4-8.7,9.1-8.7s9,3.3,9,8.5v0.3c0,5.4-4,8.6-9.1,8.6S165.3,144.4,165.3,139.1z
				 M177.6,139v-0.3c0-2.8-1.1-4.4-3.3-4.4s-3.3,1.5-3.3,4.3v0.3c0,2.9,1.1,4.4,3.3,4.4S177.6,141.7,177.6,139L177.6,139z"/>
			<path class="st1" d="M190.3,129.5h-5.9v-5h18.3v5h-5.9v17.7h-6.5V129.5z"/>
			<path class="st1" d="M201.5,142.6c0-3.9,3.3-5.4,8.8-5.4h1.6v-0.4c0-1.6-0.4-2.6-2.2-2.6c-1.1-0.1-2.1,0.6-2.2,1.7
				c0,0.1,0,0.2,0,0.3h-5.3c0.3-4,3.4-6,7.9-6s7.5,1.9,7.5,6.3v10.8h-5.5v-1.9c-1.1,1.6-3,2.5-4.9,2.3
				C204.2,147.5,201.5,146.1,201.5,142.6z M212,141.4v-1h-1.5c-2.3,0-3.3,0.4-3.3,1.8c0,1,0.6,1.6,2,1.6
				C210.8,143.7,212,142.8,212,141.4L212,141.4z"/>
			<path class="st1" d="M224.6,138.7l-5.2-8.2h6.5l2.6,4.4l2.5-4.4h5.8l-5.2,7.7l5.8,8.9h-6.5l-2.9-5l-3,5H219L224.6,138.7z"/>
			<path class="st1" d="M238.5,144.3c0-1.8,1.4-3.2,3.1-3.2c0,0,0.1,0,0.1,0c1.8,0,3.2,1.4,3.2,3.2c0,1.8-1.4,3.2-3.2,3.2
				c0,0,0,0,0,0c-1.8,0-3.2-1.3-3.2-3.1C238.5,144.4,238.5,144.3,238.5,144.3z"/>
		</g>
	</g>
</g>
</svg>
