<svg xmlns="http://www.w3.org/2000/svg" viewBox="0 0 300 250"><title>H7</title><g id="Layer_2" data-name="Layer 2"><g id="Artboard_2" data-name="Artboard 2" style="isolation:isolate"><g id="headline1"><g id="Expert_tax_prep_with_the_snap_of_some_pics._Try_Tax_Pro_Go." data-name="Expert tax prep with the snap  of some pics.  Try Tax Pro Go."><path d="M22.35,18.79H39.19v5.39H29.31v4.19h7.87v5H29.31v4.43H39.74v5.39H22.35Z" fill="#fff"/><path d="M46.72,34.1l-5.55-8.76h7L51,30l2.69-4.7h6.27l-5.62,8.28,6.17,9.55h-7l-3.17-5.32L47,43.17H40.79Z" fill="#fff"/><path d="M62.16,25.34h6.1V28a6.3,6.3,0,0,1,5.56-3.14c4.16,0,7.53,3.14,7.53,9.24v.27c0,6.14-3.37,9.2-7.56,9.2a5.89,5.89,0,0,1-5.53-3v8.59h-6.1Zm13,9V34.1c0-3.14-1.36-4.64-3.51-4.64s-3.55,1.6-3.55,4.6v.28c0,3,1.33,4.56,3.55,4.56S75.15,37.3,75.15,34.37Z" fill="#fff"/><path d="M82.61,34.47V34.2c0-5.73,4.26-9.34,9.65-9.34,4.87,0,9.06,2.79,9.06,9.2v1.61H88.78C89,38,90.31,39.38,92.5,39.38c2,0,2.86-.92,3.1-2.11h5.72c-.54,4-3.64,6.3-9,6.3C86.7,43.57,82.61,40.3,82.61,34.47Zm12.78-2.25c-.1-2.14-1.16-3.34-3.13-3.34s-3.1,1.2-3.41,3.34Z" fill="#fff"/><path d="M103.44,25.34h6.1v3.54a5.6,5.6,0,0,1,5.76-3.78v5.69c-3.72-.1-5.76,1.06-5.76,3.92v8.46h-6.1Z" fill="#fff"/><path d="M118.6,37.44V29.5h-2.15V25.34h2.15V21.62h6.1v3.72h3.52V29.5H124.7v7.36a1.63,1.63,0,0,0,1.81,1.87,4.77,4.77,0,0,0,1.74-.3v4.63a12.55,12.55,0,0,1-3.38.51C120.85,43.57,118.6,41.63,118.6,37.44Z" fill="#fff"/><path d="M137.55,37.44V29.5H135.4V25.34h2.15V21.62h6.1v3.72h3.52V29.5h-3.52v7.36a1.63,1.63,0,0,0,1.81,1.87,4.77,4.77,0,0,0,1.74-.3v4.63a12.55,12.55,0,0,1-3.38.51C139.8,43.57,137.55,41.63,137.55,37.44Z" fill="#fff"/><path d="M148.53,38.22c0-4.19,3.54-5.83,9.47-5.83h1.71V32c0-1.7-.41-2.83-2.35-2.83a2.2,2.2,0,0,0-2.43,2.12h-5.72c.27-4.3,3.65-6.41,8.52-6.41s8,2,8,6.75V43.17h-5.93V41.09c-.85,1.29-2.42,2.48-5.28,2.48C151.36,43.57,148.53,42,148.53,38.22Zm11.18-1.29V35.84h-1.6c-2.46,0-3.55.47-3.55,1.94,0,1,.68,1.67,2.11,1.67C158.41,39.45,159.71,38.46,159.71,36.93Z" fill="#fff"/><path d="M173.24,34.1l-5.56-8.76h7l2.76,4.7,2.7-4.7h6.27l-5.63,8.28L187,43.17h-7l-3.17-5.32-3.24,5.32h-6.23Z" fill="#fff"/><path d="M194.88,25.34H201V28a6.28,6.28,0,0,1,5.56-3.14c4.16,0,7.53,3.14,7.53,9.24v.27c0,6.14-3.37,9.2-7.57,9.2a5.89,5.89,0,0,1-5.52-3v8.59h-6.1Zm13,9V34.1c0-3.14-1.37-4.64-3.51-4.64s-3.55,1.6-3.55,4.6v.28c0,3,1.33,4.56,3.55,4.56S207.87,37.3,207.87,34.37Z" fill="#fff"/><path d="M216.28,25.34h6.1v3.54a5.61,5.61,0,0,1,5.77-3.78v5.69c-3.72-.1-5.77,1.06-5.77,3.92v8.46h-6.1Z" fill="#fff"/><path d="M229.23,34.47V34.2c0-5.73,4.27-9.34,9.65-9.34,4.88,0,9.07,2.79,9.07,9.2v1.61H235.4c.17,2.35,1.54,3.71,3.72,3.71,2,0,2.86-.92,3.1-2.11H248c-.55,4-3.65,6.3-9,6.3C233.32,43.57,229.23,40.3,229.23,34.47ZM242,32.22c-.1-2.14-1.16-3.34-3.14-3.34s-3.1,1.2-3.41,3.34Z" fill="#fff"/><path d="M250.06,25.34h6.1V28a6.28,6.28,0,0,1,5.56-3.14c4.16,0,7.53,3.14,7.53,9.24v.27c0,6.14-3.37,9.2-7.57,9.2a5.89,5.89,0,0,1-5.52-3v8.59h-6.1Zm13,9V34.1c0-3.14-1.37-4.64-3.51-4.64s-3.55,1.6-3.55,4.6v.28c0,3,1.33,4.56,3.55,4.56S263.05,37.3,263.05,34.37Z" fill="#fff"/><path d="M20.31,61.43h6.37L29.27,72.1l3-10.67h4.91L39.84,72.1l2.9-10.67h5.79L42.87,79.26H37l-2.65-10-2.77,10H25.69Z" fill="#fff"/><path d="M50,56.59a3.36,3.36,0,1,1,3.34,3.14A3.18,3.18,0,0,1,50,56.59Zm.31,4.84h6.1V79.26h-6.1Z" fill="#fff"/><path d="M60.46,73.53V65.59H58.31V61.43h2.15V57.71h6.1v3.72h3.51v4.16H66.56V73c0,1.3.65,1.88,1.81,1.88a4.49,4.49,0,0,0,1.73-.31v4.64a12.94,12.94,0,0,1-3.37.51C62.71,79.67,60.46,77.72,60.46,73.53Z" fill="#fff"/><path d="M72.39,53.59h6.1v10.7A6.29,6.29,0,0,1,84.35,61c3.44,0,5.83,2.15,5.83,6.72V79.26h-6.1V68.9c0-2-.79-3-2.56-3s-3,1.09-3,3.37v10h-6.1Z" fill="#fff"/><path d="M100.16,73.53V65.59H98V61.43h2.14V57.71h6.11v3.72h3.51v4.16h-3.51V73c0,1.3.64,1.88,1.8,1.88a4.57,4.57,0,0,0,1.74-.31v4.64a12.94,12.94,0,0,1-3.37.51C102.41,79.67,100.16,77.72,100.16,73.53Z" fill="#fff"/><path d="M112.09,53.59h6.1v10.7A6.31,6.31,0,0,1,124.06,61c3.44,0,5.83,2.15,5.83,6.72V79.26h-6.11V68.9c0-2-.78-3-2.55-3s-3,1.09-3,3.37v10h-6.1Z" fill="#fff"/><path d="M131.89,70.57v-.28c0-5.72,4.27-9.34,9.65-9.34,4.88,0,9.07,2.8,9.07,9.21v1.6H138.06c.17,2.35,1.54,3.72,3.72,3.72,2,0,2.86-.93,3.1-2.12h5.73c-.55,4-3.65,6.31-9,6.31C136,79.67,131.89,76.4,131.89,70.57Zm12.79-2.25c-.1-2.15-1.16-3.34-3.14-3.34s-3.1,1.19-3.41,3.34Z" fill="#fff"/><path d="M157.73,73.6h5.62c.21,1.3.79,2,2.53,2,1.5,0,2.18-.58,2.18-1.46s-.86-1.27-3.31-1.61c-4.77-.61-6.78-2-6.78-5.72,0-4,3.51-5.87,7.63-5.87,4.4,0,7.47,1.5,7.88,5.76H168a2,2,0,0,0-2.28-1.77c-1.33,0-2,.58-2,1.4s.82,1.19,3,1.47c4.94.61,7.33,1.9,7.33,5.72,0,4.23-3.14,6.14-8.08,6.14S157.86,77.55,157.73,73.6Z" fill="#fff"/><path d="M176,61.43h6.1v2.86A6.31,6.31,0,0,1,187.93,61c3.44,0,5.83,2.15,5.83,6.72V79.26h-6.1V68.9c0-2-.79-3-2.56-3s-3,1.09-3,3.37v10H176Z" fill="#fff"/><path d="M195.7,74.32c0-4.2,3.54-5.83,9.47-5.83h1.71v-.41c0-1.71-.41-2.83-2.35-2.83a2.2,2.2,0,0,0-2.43,2.11h-5.72C196.65,63.07,200,61,204.9,61s8,2,8,6.75V79.26H207V77.18c-.85,1.29-2.42,2.49-5.28,2.49C198.53,79.67,195.7,78.1,195.7,74.32ZM206.88,73V71.93h-1.6c-2.46,0-3.55.48-3.55,1.94,0,1,.68,1.67,2.11,1.67C205.58,75.54,206.88,74.55,206.88,73Z" fill="#fff"/><path d="M215.91,61.43H222v2.66A6.3,6.3,0,0,1,227.57,61c4.16,0,7.53,3.14,7.53,9.24v.27c0,6.14-3.37,9.21-7.57,9.21a5.87,5.87,0,0,1-5.52-3v8.59h-6.1Zm13,9v-.27c0-3.13-1.37-4.63-3.52-4.63s-3.54,1.6-3.54,4.6v.27c0,3,1.33,4.57,3.54,4.57S228.9,73.4,228.9,70.46Z" fill="#fff"/><path d="M20.85,106.66v-.27c0-5.73,4.26-9.34,9.79-9.34s9.71,3.51,9.71,9.17v.27c0,5.79-4.26,9.27-9.75,9.27S20.85,112.42,20.85,106.66Zm13.3-.1v-.28c0-3-1.2-4.67-3.51-4.67s-3.55,1.61-3.55,4.61v.27c0,3.07,1.19,4.74,3.55,4.74S34.15,109.52,34.15,106.56Z" fill="#fff"/><path d="M43.42,101.68H41.17V97.52h2.25V96c0-4.44,2.76-6.55,7-6.55a10.64,10.64,0,0,1,2.8.38v4.46A5.8,5.8,0,0,0,51.53,94,1.8,1.8,0,0,0,49.48,96v1.56H53.1v4.16H49.48v13.67H43.42Z" fill="#fff"/><path d="M60.15,109.69h5.62c.21,1.3.79,2,2.53,2,1.5,0,2.18-.57,2.18-1.46s-.85-1.26-3.31-1.6c-4.77-.62-6.78-2-6.78-5.73,0-4,3.51-5.86,7.63-5.86,4.4,0,7.47,1.5,7.88,5.76H70.38A2,2,0,0,0,68.09,101c-1.33,0-2,.57-2,1.39s.82,1.2,3,1.47c4.94.61,7.33,1.91,7.33,5.73,0,4.22-3.14,6.13-8.08,6.13S60.29,113.65,60.15,109.69Z" fill="#fff"/><path d="M77.53,106.66v-.27c0-5.73,4.26-9.34,9.78-9.34S97,100.56,97,106.22v.27c0,5.79-4.26,9.27-9.75,9.27S77.53,112.42,77.53,106.66Zm13.3-.1v-.28c0-3-1.2-4.67-3.52-4.67s-3.54,1.61-3.54,4.61v.27c0,3.07,1.19,4.74,3.54,4.74S90.83,109.52,90.83,106.56Z" fill="#fff"/><path d="M99.17,97.52h6.11v2.73a6.23,6.23,0,0,1,5.59-3.2,4.86,4.86,0,0,1,4.84,3,7,7,0,0,1,5.89-3c3.38,0,5.83,2.18,5.83,6.64v11.66h-6.1V104.72c0-1.81-.88-2.7-2.28-2.7-1.64,0-2.73,1.06-2.73,3v10.33h-6V104.72c0-1.81-.89-2.7-2.29-2.7-1.63,0-2.72,1.06-2.72,3v10.33H99.17Z" fill="#fff"/><path d="M129.44,106.66v-.27c0-5.73,4.26-9.34,9.65-9.34,4.87,0,9.06,2.79,9.06,9.2v1.6H135.61c.17,2.35,1.53,3.72,3.72,3.72,2,0,2.86-.92,3.1-2.12h5.72c-.54,4-3.64,6.31-9,6.31C133.53,115.76,129.44,112.49,129.44,106.66Zm12.78-2.25c-.1-2.15-1.16-3.34-3.13-3.34s-3.11,1.19-3.41,3.34Z" fill="#fff"/><path d="M156.47,97.52h6.1v2.66a6.29,6.29,0,0,1,5.56-3.13c4.15,0,7.53,3.13,7.53,9.23v.28c0,6.13-3.38,9.2-7.57,9.2a5.89,5.89,0,0,1-5.52-3v8.59h-6.1Zm13,9v-.28c0-3.13-1.36-4.63-3.51-4.63s-3.54,1.6-3.54,4.6v.27c0,3,1.33,4.57,3.54,4.57S169.45,109.49,169.45,106.56Z" fill="#fff"/><path d="M177.73,92.68a3.37,3.37,0,1,1,3.34,3.14A3.19,3.19,0,0,1,177.73,92.68Zm.31,4.84h6.1v17.83H178Z" fill="#fff"/><path d="M186.46,106.66v-.27c0-5.93,4.26-9.34,9.51-9.34,4.36,0,8.39,1.91,8.73,7.33H199c-.27-1.67-1.09-2.59-2.86-2.59-2.15,0-3.41,1.53-3.41,4.53v.27c0,3.1,1.19,4.71,3.51,4.71a3,3,0,0,0,3.1-3h5.49c-.17,4.5-3.21,7.43-9,7.43C190.52,115.76,186.46,112.66,186.46,106.66Z" fill="#fff"/><path d="M205.82,109.69h5.62c.21,1.3.79,2,2.52,2,1.5,0,2.19-.57,2.19-1.46s-.86-1.26-3.31-1.6c-4.77-.62-6.78-2-6.78-5.73,0-4,3.51-5.86,7.63-5.86,4.4,0,7.47,1.5,7.88,5.76H216a2,2,0,0,0-2.28-1.77c-1.33,0-2,.57-2,1.39s.82,1.2,3,1.47c4.94.61,7.33,1.91,7.33,5.73,0,4.22-3.14,6.13-8.08,6.13S206,113.65,205.82,109.69Z" fill="#fff"/><path d="M223.81,112.28a3.41,3.41,0,0,1,3.48-3.44,3.45,3.45,0,1,1,0,6.89A3.41,3.41,0,0,1,223.81,112.28Z" fill="#fff"/><path d="M27,132.46h-6.3v-5.39H40.35v5.39H34v19H27Z" fill="#fff"/><path d="M41.34,133.62h6.1v3.54a5.6,5.6,0,0,1,5.76-3.78v5.69c-3.72-.1-5.76,1.06-5.76,3.92v8.46h-6.1Z" fill="#fff"/><path d="M61.28,149.64l-7.13-16h6.61l3.69,9.51,3.4-9.51h5.83l-9.54,23.79H58.31Z" fill="#fff"/><path d="M86.67,132.46H80.36v-5.39H100v5.39H93.69v19h-7Z" fill="#fff"/><path d="M98.77,146.5c0-4.19,3.54-5.83,9.47-5.83H110v-.41c0-1.7-.41-2.82-2.36-2.82a2.19,2.19,0,0,0-2.42,2.11H99.45c.27-4.3,3.65-6.41,8.52-6.41s8,2,8,6.75v11.56h-5.93v-2.08c-.85,1.29-2.42,2.48-5.28,2.48C101.6,151.85,98.77,150.29,98.77,146.5ZM110,145.21v-1.09h-1.61c-2.45,0-3.54.47-3.54,1.94,0,1,.68,1.67,2.11,1.67C108.65,147.73,110,146.74,110,145.21Z" fill="#fff"/><path d="M123.48,142.38l-5.56-8.76h7l2.76,4.7,2.7-4.7h6.27L131,141.9l6.17,9.55h-7L127,146.13l-3.24,5.32h-6.23Z" fill="#fff"/><path d="M145.66,127.07h9.28c6.68,0,9.78,3,9.78,8.15v.14c0,5.11-3.44,7.87-9.48,7.87h-2.62v8.22h-7Zm9,11.39c2.25,0,3.44-1.06,3.44-3.07v-.14c0-2.08-1.23-2.93-3.41-2.93h-2v6.14Z" fill="#fff"/><path d="M166.83,133.62h6.1v3.54a5.6,5.6,0,0,1,5.76-3.78v5.69c-3.71-.1-5.76,1.06-5.76,3.92v8.46h-6.1Z" fill="#fff"/><path d="M179.78,142.75v-.27c0-5.73,4.26-9.34,9.78-9.34s9.72,3.51,9.72,9.17v.27c0,5.8-4.26,9.27-9.75,9.27S179.78,148.51,179.78,142.75Zm13.3-.1v-.27c0-3-1.2-4.67-3.52-4.67s-3.54,1.6-3.54,4.6v.27c0,3.07,1.19,4.74,3.54,4.74S193.08,145.62,193.08,142.65Z" fill="#fff"/><path d="M206.88,139.41v-.27c0-7.43,5.45-12.44,12.78-12.44,5.76,0,10.87,2.62,11.35,9h-6.92c-.34-2.28-1.81-3.47-4.4-3.47-3.44,0-5.52,2.65-5.52,7.05v.27c0,4,1.47,7,5.69,7,3.41,0,4.71-1.74,4.84-3.68h-4.56V138h11.45v3c0,6.2-4.06,10.87-11.93,10.87C211.38,151.85,206.88,146.71,206.88,139.41Z" fill="#fff"/><path d="M233,142.75v-.27c0-5.73,4.26-9.34,9.79-9.34s9.71,3.51,9.71,9.17v.27c0,5.8-4.26,9.27-9.75,9.27S233,148.51,233,142.75Zm13.3-.1v-.27c0-3-1.2-4.67-3.51-4.67s-3.55,1.6-3.55,4.6v.27c0,3.07,1.19,4.74,3.55,4.74S246.28,145.62,246.28,142.65Z" fill="#fff"/><path d="M253.64,148.38a3.4,3.4,0,0,1,3.47-3.45,3.45,3.45,0,1,1,0,6.89A3.39,3.39,0,0,1,253.64,148.38Z" fill="#fff"/><rect width="300" height="250" fill="none"/></g></g></g></g></svg>