<svg xmlns="http://www.w3.org/2000/svg" viewBox="0 0 320 50"><title>txt</title><g id="Layer_2" data-name="Layer 2"><g id="Easily_do_your_taxes_from_anywhere." data-name="Easily do your taxes  from anywhere."><path d="M64.58,8H74.4v3.15H68.64v2.44h4.59v2.91H68.64v2.59h6.08v3.14H64.58Z" fill="#fff"/><path d="M75.53,19.31c0-2.45,2.06-3.41,5.52-3.41h1v-.24c0-1-.23-1.65-1.37-1.65a1.28,1.28,0,0,0-1.41,1.24H75.93c.15-2.51,2.12-3.74,5-3.74s4.69,1.17,4.69,3.94v6.74H82.12V21A3.41,3.41,0,0,1,79,22.43C77.18,22.43,75.53,21.51,75.53,19.31ZM82,18.55v-.64h-.93c-1.43,0-2.07.28-2.07,1.14,0,.59.4,1,1.24,1A1.56,1.56,0,0,0,82,18.55Z" fill="#fff"/><path d="M86.61,18.89h3.28c.12.75.46,1.17,1.47,1.17s1.27-.34,1.27-.85-.5-.74-1.93-.94c-2.78-.36-4-1.17-4-3.34s2-3.42,4.45-3.42c2.56,0,4.35.87,4.59,3.36H92.57a1.16,1.16,0,0,0-1.33-1c-.77,0-1.17.34-1.17.82s.48.7,1.75.85c2.88.36,4.27,1.12,4.27,3.35,0,2.46-1.83,3.58-4.71,3.58S86.69,21.2,86.61,18.89Z" fill="#fff"/><path d="M97.16,9a2,2,0,1,1,2,1.83A1.85,1.85,0,0,1,97.16,9Zm.18,2.82h3.55V22.19H97.34Z" fill="#fff"/><path d="M102.9,7.21h3.54v15H102.9Z" fill="#fff"/><path d="M111.6,21.14l-4.15-9.36h3.85l2.15,5.56,2-5.56h3.4l-5.56,13.89h-3.4Z" fill="#fff"/><path d="M122.84,17.1v-.16c0-3.54,2-5.43,4.41-5.43a3.36,3.36,0,0,1,3.2,1.75v-6H134v15h-3.56V20.5a3.51,3.51,0,0,1-3.24,1.93C124.81,22.43,122.84,20.7,122.84,17.1Zm7.71-.06v-.16c0-1.75-.74-2.69-2.05-2.69s-2,.9-2,2.71v.16c0,1.75.77,2.64,2,2.64S130.55,18.81,130.55,17Z" fill="#fff"/><path d="M135.25,17.12V17c0-3.35,2.49-5.45,5.71-5.45s5.66,2,5.66,5.35V17c0,3.38-2.48,5.41-5.68,5.41S135.25,20.48,135.25,17.12Zm7.75-.06V16.9c0-1.75-.69-2.73-2-2.73s-2.07.94-2.07,2.69V17c0,1.79.7,2.76,2.07,2.76S143,18.79,143,17.06Z" fill="#fff"/><path d="M154.74,21.14l-4.15-9.36h3.85l2.15,5.56,2-5.56H162l-5.56,13.89H153Z" fill="#fff"/><path d="M161.77,17.12V17c0-3.35,2.49-5.45,5.7-5.45s5.67,2,5.67,5.35V17c0,3.38-2.49,5.41-5.69,5.41S161.77,20.48,161.77,17.12Zm7.75-.06V16.9c0-1.75-.69-2.73-2.05-2.73s-2.06.94-2.06,2.69V17c0,1.79.69,2.76,2.06,2.76S169.52,18.79,169.52,17.06Z" fill="#fff"/><path d="M174.3,18.57V11.78h3.56V18c0,1.18.46,1.75,1.47,1.75s1.77-.63,1.77-2v-6h3.56V22.19H181.1V20.58a3.43,3.43,0,0,1-3.3,1.85C175.79,22.43,174.3,21.2,174.3,18.57Z" fill="#fff"/><path d="M186.46,11.78H190v2.07a3.28,3.28,0,0,1,3.36-2.21V15c-2.17-.06-3.36.61-3.36,2.29v4.93h-3.56Z" fill="#fff"/><path d="M198.76,18.85V14.21H197.5V11.78h1.26V9.62h3.55v2.16h2.05v2.43h-2.05v4.3a1,1,0,0,0,1.06,1.09,2.71,2.71,0,0,0,1-.18v2.71a7.43,7.43,0,0,1-2,.3C200.07,22.43,198.76,21.29,198.76,18.85Z" fill="#fff"/><path d="M205.15,19.31c0-2.45,2.07-3.41,5.52-3.41h1v-.24c0-1-.24-1.65-1.37-1.65a1.27,1.27,0,0,0-1.41,1.24h-3.34c.16-2.51,2.12-3.74,5-3.74s4.69,1.17,4.69,3.94v6.74h-3.45V21a3.43,3.43,0,0,1-3.08,1.45C206.8,22.43,205.15,21.51,205.15,19.31Zm6.52-.76v-.64h-.94c-1.43,0-2.06.28-2.06,1.14,0,.59.39,1,1.23,1A1.57,1.57,0,0,0,211.67,18.55Z" fill="#fff"/><path d="M219.55,16.9l-3.24-5.12h4.1l1.6,2.75,1.57-2.75h3.66L224,16.62l3.6,5.57h-4.1l-1.84-3.1-1.89,3.1h-3.64Z" fill="#fff"/><path d="M227.1,17.12V17a5.31,5.31,0,0,1,5.62-5.45c2.84,0,5.29,1.63,5.29,5.37v.93H230.7A2.06,2.06,0,0,0,232.86,20c1.17,0,1.67-.54,1.81-1.23H238c-.32,2.35-2.13,3.68-5.27,3.68S227.1,20.52,227.1,17.12Zm7.45-1.32c-.06-1.25-.68-2-1.83-2a2,2,0,0,0-2,2Z" fill="#fff"/><path d="M238.64,18.89h3.28c.12.75.45,1.17,1.47,1.17s1.27-.34,1.27-.85-.5-.74-1.93-.94c-2.78-.36-3.95-1.17-3.95-3.34s2-3.42,4.45-3.42c2.56,0,4.35.87,4.59,3.36H244.6a1.17,1.17,0,0,0-1.33-1c-.78,0-1.17.34-1.17.82s.47.7,1.74.85c2.88.36,4.28,1.12,4.28,3.35,0,2.46-1.83,3.58-4.71,3.58S238.72,21.2,238.64,18.89Z" fill="#fff"/><path d="M64.8,34.31H63.49V31.88H64.8V31c0-2.59,1.61-3.82,4.08-3.82a6.22,6.22,0,0,1,1.62.22V30a3.17,3.17,0,0,0-1-.14A1,1,0,0,0,68.34,31v.91h2.1v2.43h-2.1v8H64.8Z" fill="#fff"/><path d="M71.64,31.88h3.55V34a3.28,3.28,0,0,1,3.36-2.21v3.33c-2.17-.06-3.36.61-3.36,2.28v4.94H71.64Z" fill="#fff"/><path d="M79.18,37.21v-.15c0-3.35,2.49-5.46,5.7-5.46s5.67,2,5.67,5.36v.16c0,3.38-2.49,5.41-5.68,5.41S79.18,40.58,79.18,37.21Zm7.75-.05V37c0-1.75-.69-2.73-2.05-2.73s-2.06.94-2.06,2.69v.16c0,1.79.69,2.76,2.06,2.76S86.93,38.89,86.93,37.16Z" fill="#fff"/><path d="M91.8,31.88h3.55v1.59a3.65,3.65,0,0,1,3.26-1.87,2.84,2.84,0,0,1,2.82,1.73,4.14,4.14,0,0,1,3.44-1.73c2,0,3.4,1.28,3.4,3.88v6.81h-3.56V36.08c0-1-.52-1.57-1.33-1.57a1.54,1.54,0,0,0-1.59,1.75v6H98.27V36.08c0-1-.51-1.57-1.33-1.57a1.54,1.54,0,0,0-1.59,1.75v6H91.8Z" fill="#fff"/><path d="M113,39.4c0-2.44,2.06-3.4,5.52-3.4h1v-.24c0-1-.23-1.65-1.37-1.65a1.28,1.28,0,0,0-1.41,1.23h-3.33c.15-2.5,2.12-3.74,5-3.74s4.69,1.18,4.69,3.94v6.75H119.6V41.08a3.41,3.41,0,0,1-3.07,1.45C114.66,42.53,113,41.61,113,39.4Zm6.51-.75V38h-.93c-1.43,0-2.06.28-2.06,1.14,0,.59.39,1,1.23,1A1.56,1.56,0,0,0,119.52,38.65Z" fill="#fff"/><path d="M124.79,31.88h3.55v1.67a3.68,3.68,0,0,1,3.42-1.95c2,0,3.4,1.26,3.4,3.92v6.77H131.6v-6c0-1.17-.46-1.75-1.49-1.75s-1.77.64-1.77,2v5.83h-3.55Z" fill="#fff"/><path d="M139.78,41.23l-4.15-9.35h3.86l2.14,5.55,2-5.55H147l-5.57,13.89h-3.39Z" fill="#fff"/><path d="M147.25,31.88H151l1.51,6.23,1.75-6.23h2.86l1.55,6.23,1.68-6.23h3.38l-3.3,10.41H157l-1.55-5.81-1.61,5.81h-3.46Z" fill="#fff"/><path d="M164.61,27.31h3.56v6.24a3.67,3.67,0,0,1,3.42-1.95c2,0,3.39,1.26,3.39,3.92v6.77h-3.55v-6c0-1.17-.46-1.75-1.49-1.75s-1.77.64-1.77,2v5.83h-3.56Z" fill="#fff"/><path d="M176.15,37.21v-.15a5.33,5.33,0,0,1,5.63-5.46c2.84,0,5.28,1.64,5.28,5.38v.93h-7.31a2.08,2.08,0,0,0,2.16,2.17c1.18,0,1.67-.54,1.81-1.23h3.34c-.32,2.34-2.13,3.68-5.27,3.68S176.15,40.62,176.15,37.21Zm7.45-1.31c-.06-1.25-.67-1.95-1.82-1.95a2,2,0,0,0-2,1.95Z" fill="#fff"/><path d="M188.29,31.88h3.56V34a3.26,3.26,0,0,1,3.35-2.21v3.33c-2.16-.06-3.35.61-3.35,2.28v4.94h-3.56Z" fill="#fff"/><path d="M195.84,37.21v-.15a5.32,5.32,0,0,1,5.62-5.46c2.84,0,5.28,1.64,5.28,5.38v.93h-7.31a2.08,2.08,0,0,0,2.17,2.17c1.17,0,1.67-.54,1.81-1.23h3.33c-.31,2.34-2.12,3.68-5.26,3.68S195.84,40.62,195.84,37.21Zm7.45-1.31c-.06-1.25-.68-1.95-1.83-1.95a2,2,0,0,0-2,1.95Z" fill="#fff"/><path d="M207.74,40.5a2,2,0,0,1,2-2,2,2,0,1,1,0,4A2,2,0,0,1,207.74,40.5Z" fill="#fff"/><rect width="320" height="50" fill="none"/></g></g></svg>