<svg xmlns="http://www.w3.org/2000/svg" viewBox="0 0 160 600"><title>H192</title><g id="Layer_2" data-name="Layer 2"><g id="Rect"><rect width="160" height="600" fill="none"/></g><g id="Drop_off_your_docs_and_go." data-name="Drop off your docs and go."><path d="M24.13,145h8C40,145,44,148.88,44,155.73V156C44,162.87,39.91,167,32.13,167h-8Zm7.81,17.21c3.77,0,5.44-2,5.44-6.09v-.24c0-4.2-1.67-6-5.5-6H30.49v12.33Z" fill="#fff"/><path d="M46.12,150.88h5.53v3.22a5.09,5.09,0,0,1,5.22-3.43v5.16c-3.37-.1-5.22.95-5.22,3.55V167H46.12Z" fill="#fff"/><path d="M57.86,159.16v-.25c0-5.18,3.86-8.46,8.86-8.46s8.8,3.18,8.8,8.31V159c0,5.25-3.86,8.4-8.83,8.4S57.86,164.38,57.86,159.16Zm12-.09v-.25c0-2.72-1.08-4.23-3.18-4.23s-3.21,1.45-3.21,4.17V159c0,2.78,1.08,4.29,3.21,4.29S69.9,161.76,69.9,159.07Z" fill="#fff"/><path d="M77.47,150.88H83v2.41a5.69,5.69,0,0,1,5-2.84c3.77,0,6.83,2.84,6.83,8.37v.25c0,5.56-3.06,8.34-6.86,8.34a5.33,5.33,0,0,1-5-2.75v7.78H77.47Zm11.77,8.19v-.25c0-2.84-1.24-4.2-3.18-4.2s-3.22,1.45-3.22,4.17V159c0,2.75,1.21,4.14,3.22,4.14S89.24,161.72,89.24,159.07Z" fill="#fff"/><path d="M22.77,194.6v-.25c0-5.19,3.86-8.46,8.87-8.46s8.8,3.18,8.8,8.31v.24c0,5.25-3.86,8.4-8.84,8.4S22.77,199.82,22.77,194.6Zm12.05-.1v-.24c0-2.72-1.08-4.23-3.18-4.23s-3.22,1.45-3.22,4.17v.24c0,2.78,1.08,4.3,3.22,4.3S34.82,197.19,34.82,194.5Z" fill="#fff"/><path d="M43.22,190.09h-2v-3.77h2v-1.23c0-4,2.47-5.9,6.3-5.9a9.07,9.07,0,0,1,2.47.31v4a5,5,0,0,0-1.48-.21,1.62,1.62,0,0,0-1.8,1.76v1.23h4.7V184.9c0-4,2.53-5.93,6.33-5.93a10.06,10.06,0,0,1,2.53.34v4.05a4.82,4.82,0,0,0-1.51-.22,1.61,1.61,0,0,0-1.82,1.76v1.42h3.27v3.77H58.94v12.38H53.41V190.09h-4.7v12.38H43.22Z" fill="#fff"/><path d="M74.72,200.84l-6.45-14.52h6l3.33,8.62,3.09-8.62H86l-8.65,21.56H72Z" fill="#fff"/><path d="M85.65,194.6v-.25c0-5.19,3.86-8.46,8.87-8.46s8.8,3.18,8.8,8.31v.24c0,5.25-3.86,8.4-8.84,8.4S85.65,199.82,85.65,194.6Zm12-.1v-.24c0-2.72-1.08-4.23-3.18-4.23s-3.22,1.45-3.22,4.17v.24c0,2.78,1.08,4.3,3.22,4.3S97.7,197.19,97.7,194.5Z" fill="#fff"/><path d="M105.14,196.85V186.32h5.53V196c0,1.82.71,2.71,2.28,2.71s2.75-1,2.75-3v-9.3h5.53v16.15H115.7V200a5.29,5.29,0,0,1-5.12,2.87C107.46,202.84,105.14,200.93,105.14,196.85Z" fill="#fff"/><path d="M124,186.32h5.53v3.21a5.09,5.09,0,0,1,5.22-3.43v5.16c-3.37-.09-5.22,1-5.22,3.55v7.66H124Z" fill="#fff"/><path d="M22.83,230v-.24c0-5.5,3-8.44,6.86-8.44a5.24,5.24,0,0,1,5,2.72v-9.39h5.53v23.26H34.66v-2.63a5.43,5.43,0,0,1-5,3C25.89,238.28,22.83,235.59,22.83,230Zm12-.09v-.25c0-2.71-1.15-4.17-3.18-4.17s-3.19,1.39-3.19,4.2v.25c0,2.72,1.21,4.11,3.12,4.11S34.82,232.66,34.82,229.91Z" fill="#fff"/><path d="M42.14,230v-.24c0-5.19,3.86-8.47,8.86-8.47s8.8,3.19,8.8,8.31v.25c0,5.25-3.86,8.4-8.83,8.4S42.14,235.25,42.14,230Zm12-.09v-.25c0-2.71-1.08-4.23-3.18-4.23s-3.21,1.45-3.21,4.17v.25c0,2.78,1.08,4.29,3.21,4.29S54.18,232.63,54.18,229.94Z" fill="#fff"/><path d="M60.88,230v-.24c0-5.38,3.86-8.47,8.62-8.47,4,0,7.6,1.73,7.91,6.64H72.22a2.39,2.39,0,0,0-2.6-2.34c-1.94,0-3.08,1.39-3.08,4.11V230c0,2.81,1.08,4.26,3.18,4.26a2.69,2.69,0,0,0,2.81-2.68h5c-.16,4.07-2.9,6.73-8.12,6.73C64.56,238.28,60.88,235.47,60.88,230Z" fill="#fff"/><path d="M78.43,232.78h5.09c.19,1.18.71,1.82,2.29,1.82,1.36,0,2-.52,2-1.32s-.77-1.15-3-1.45c-4.33-.56-6.15-1.83-6.15-5.19,0-3.59,3.18-5.32,6.92-5.32,4,0,6.76,1.36,7.14,5.22h-5a1.8,1.8,0,0,0-2.07-1.6c-1.2,0-1.82.52-1.82,1.26s.74,1.09,2.72,1.33c4.48.56,6.64,1.73,6.64,5.19,0,3.83-2.84,5.56-7.32,5.56S78.55,236.37,78.43,232.78Z" fill="#fff"/><path d="M22.71,268.87c0-3.8,3.21-5.28,8.59-5.28h1.54v-.37c0-1.55-.37-2.57-2.13-2.57a2,2,0,0,0-2.19,1.92H23.33c.25-3.89,3.3-5.81,7.72-5.81s7.29,1.82,7.29,6.12v10.47H33v-1.89a5.28,5.28,0,0,1-4.78,2.26C25.27,273.72,22.71,272.3,22.71,268.87Zm10.13-1.18v-1H31.39c-2.22,0-3.21.43-3.21,1.76,0,.92.61,1.51,1.91,1.51C31.67,270,32.84,269.08,32.84,267.69Z" fill="#fff"/><path d="M41,257.19h5.53v2.6a5.71,5.71,0,0,1,5.31-3c3.12,0,5.29,1.95,5.29,6.09v10.5H51.62V264c0-1.83-.71-2.72-2.32-2.72s-2.75,1-2.75,3.06v9.05H41Z" fill="#fff"/><path d="M59,265.44v-.25c0-5.49,3-8.43,6.86-8.43a5.24,5.24,0,0,1,5,2.72v-9.39h5.53v23.26H70.86v-2.63a5.45,5.45,0,0,1-5,3C62.09,273.72,59,271,59,265.44Zm12-.09v-.25c0-2.72-1.14-4.17-3.18-4.17s-3.18,1.39-3.18,4.2v.25c0,2.72,1.21,4.11,3.12,4.11S71,268.1,71,265.35Z" fill="#fff"/><path d="M83.92,273.35h5.5c.25,1.17,1,2.1,3,2.1,2.45,0,3.43-1.39,3.43-3.4v-2.47a5.66,5.66,0,0,1-5,3c-3.77,0-6.86-2.78-6.86-7.75v-.25c0-4.75,3.06-7.78,6.86-7.78a5.24,5.24,0,0,1,5,2.72v-2.29h5.53V272c0,4.81-3.18,7.35-9,7.35C86.89,279.34,84.36,277,83.92,273.35Zm12-8.59v-.22c0-2.22-1.14-3.64-3.18-3.64s-3.18,1.45-3.18,3.67v.25c0,2.23,1.17,3.65,3.15,3.65S96,267.05,96,264.76Z" fill="#fff"/><path d="M103.29,265.47v-.25c0-5.19,3.86-8.46,8.86-8.46s8.8,3.18,8.8,8.31v.25c0,5.25-3.86,8.4-8.83,8.4S103.29,270.69,103.29,265.47Zm12-.09v-.25c0-2.72-1.08-4.23-3.18-4.23s-3.21,1.45-3.21,4.17v.25c0,2.78,1.08,4.29,3.21,4.29S115.33,268.06,115.33,265.38Z" fill="#fff"/><path d="M122,270.57a3.08,3.08,0,0,1,3.15-3.12,3.12,3.12,0,1,1,0,6.24A3.08,3.08,0,0,1,122,270.57Z" fill="#fff"/></g></g></svg>