<svg xmlns="http://www.w3.org/2000/svg" viewBox="0 0 160 600"><title>H2</title><g id="Layer_2" data-name="Layer 2"><g id="Artboard_2" data-name="Artboard 2" style="isolation:isolate"><g id="headline1"><g id="Expert_tax_prep_without_an_appointment._Just_drop_off_your_do" data-name="Expert  tax prep  without an appointment. Just drop off your do"><path d="M22.64,135.85h8.77v2.81H26.26v2.18h4.1v2.59h-4.1v2.31h5.43v2.8h-9Z" fill="#fff"/><path d="M35.33,143.82l-2.89-4.56H36.1l1.43,2.45,1.41-2.45H42.2l-2.93,4.31,3.22,5H38.83l-1.65-2.77-1.69,2.77H32.25Z" fill="#fff"/><path d="M43.38,139.26h3.17v1.39A3.27,3.27,0,0,1,49.44,139c2.17,0,3.93,1.64,3.93,4.81V144c0,3.2-1.76,4.8-3.94,4.8a3.06,3.06,0,0,1-2.88-1.58v4.47H43.38Zm6.76,4.7v-.14c0-1.63-.71-2.41-1.83-2.41s-1.85.83-1.85,2.39V144c0,1.58.7,2.37,1.85,2.37S50.14,145.49,50.14,144Z" fill="#fff"/><path d="M54,144v-.14a4.74,4.74,0,0,1,5-4.87,4.41,4.41,0,0,1,4.72,4.79v.84H57.24a1.85,1.85,0,0,0,1.93,1.93c1,0,1.49-.48,1.62-1.1h3c-.29,2.1-1.9,3.29-4.71,3.29S54,147.05,54,144Zm6.65-1.17c0-1.12-.6-1.74-1.63-1.74a1.77,1.77,0,0,0-1.78,1.74Z" fill="#fff"/><path d="M64.87,139.26h3.18v1.85a2.91,2.91,0,0,1,3-2v3c-1.94,0-3,.55-3,2v4.4H64.87Z" fill="#fff"/><path d="M72.77,145.56v-4.13H71.65v-2.17h1.12v-1.93H76v1.93h1.82v2.17H76v3.83c0,.67.33,1,.94,1a2.53,2.53,0,0,0,.9-.16v2.41a6.51,6.51,0,0,1-1.76.27C73.94,148.76,72.77,147.74,72.77,145.56Z" fill="#fff"/><path d="M22.79,167.31v-4.13H21.67V161h1.12v-1.93H26V161h1.83v2.17H26V167a.85.85,0,0,0,.94,1,2.59,2.59,0,0,0,.91-.16v2.41a6.51,6.51,0,0,1-1.76.27C24,170.51,22.79,169.49,22.79,167.31Z" fill="#fff"/><path d="M28.5,167.72c0-2.18,1.85-3,4.93-3h.89v-.22c0-.89-.21-1.47-1.22-1.47a1.14,1.14,0,0,0-1.26,1.1h-3c.14-2.24,1.89-3.34,4.43-3.34s4.19,1.05,4.19,3.52v6H34.39v-1.08a3.05,3.05,0,0,1-2.75,1.3C30,170.51,28.5,169.69,28.5,167.72Zm5.82-.67v-.57h-.83c-1.28,0-1.85.25-1.85,1,0,.53.36.87,1.1.87A1.4,1.4,0,0,0,34.32,167.05Z" fill="#fff"/><path d="M41.37,165.57,38.48,161h3.65l1.44,2.45L45,161h3.27l-2.93,4.31,3.21,5H44.86l-1.65-2.77-1.68,2.77H38.28Z" fill="#fff"/><path d="M52.64,161h3.18v1.39a3.27,3.27,0,0,1,2.89-1.64c2.16,0,3.92,1.64,3.92,4.81v.14c0,3.2-1.76,4.8-3.94,4.8a3.06,3.06,0,0,1-2.87-1.58v4.47H52.64Zm6.76,4.7v-.14c0-1.63-.71-2.41-1.83-2.41s-1.84.83-1.84,2.39v.15c0,1.58.69,2.37,1.84,2.37S59.4,167.24,59.4,165.71Z" fill="#fff"/><path d="M63.79,161H67v1.85a2.93,2.93,0,0,1,3-2v3c-1.93,0-3,.55-3,2v4.4H63.79Z" fill="#fff"/><path d="M70.53,165.77v-.14a4.75,4.75,0,0,1,5-4.87,4.4,4.4,0,0,1,4.72,4.79v.84H73.74a1.85,1.85,0,0,0,1.94,1.93c1,0,1.49-.48,1.61-1.1h3c-.28,2.1-1.89,3.29-4.7,3.29S70.53,168.8,70.53,165.77Zm6.66-1.17c-.06-1.12-.61-1.74-1.64-1.74a1.77,1.77,0,0,0-1.77,1.74Z" fill="#fff"/><path d="M81.38,161h3.17v1.39a3.29,3.29,0,0,1,2.9-1.64c2.16,0,3.92,1.64,3.92,4.81v.14c0,3.2-1.76,4.8-3.94,4.8a3.09,3.09,0,0,1-2.88-1.58v4.47H81.38Zm6.76,4.7v-.14c0-1.63-.71-2.41-1.83-2.41s-1.85.83-1.85,2.39v.15c0,1.58.7,2.37,1.85,2.37S88.14,167.24,88.14,165.71Z" fill="#fff"/><path d="M21.58,182.76H24.9l1.35,5.56,1.56-5.56h2.55l1.39,5.56,1.51-5.56h3L33.33,192h-3l-1.38-5.18L27.47,192H24.38Z" fill="#fff"/><path d="M37,180.24a1.66,1.66,0,0,1,1.74-1.65,1.64,1.64,0,1,1,0,3.28A1.65,1.65,0,0,1,37,180.24Zm.16,2.52h3.18V192H37.18Z" fill="#fff"/><path d="M42.49,189.06v-4.13H41.37v-2.17h1.12v-1.93h3.17v1.93h1.83v2.17H45.66v3.83a.85.85,0,0,0,.94,1,2.55,2.55,0,0,0,.91-.16V192a6.51,6.51,0,0,1-1.76.27C43.66,192.26,42.49,191.24,42.49,189.06Z" fill="#fff"/><path d="M48.7,178.68h3.18v5.57a3.26,3.26,0,0,1,3-1.74c1.79,0,3,1.12,3,3.5v6H54.79v-5.39c0-1.05-.41-1.56-1.33-1.56s-1.58.56-1.58,1.75V192H48.7Z" fill="#fff"/><path d="M59,187.52v-.14a4.77,4.77,0,0,1,5.1-4.87c2.85,0,5,1.83,5,4.78v.14c0,3-2.21,4.83-5.07,4.83S59,190.52,59,187.52Zm6.92-.06v-.14c0-1.56-.62-2.43-1.82-2.43s-1.85.84-1.85,2.4v.14c0,1.6.62,2.47,1.85,2.47S65.93,189,65.93,187.46Z" fill="#fff"/><path d="M70.21,188.81v-6.05h3.18v5.54c0,1,.41,1.56,1.31,1.56s1.58-.57,1.58-1.76v-5.34h3.18V192H76.28v-1.43a3.05,3.05,0,0,1-2.94,1.65C71.54,192.26,70.21,191.16,70.21,188.81Z" fill="#fff"/><path d="M81.5,189.06v-4.13H80.38v-2.17H81.5v-1.93h3.18v1.93h1.83v2.17H84.68v3.83a.85.85,0,0,0,.94,1,2.53,2.53,0,0,0,.9-.16V192a6.42,6.42,0,0,1-1.75.27C82.67,192.26,81.5,191.24,81.5,189.06Z" fill="#fff"/><path d="M90.41,189.47c0-2.18,1.85-3,4.94-3h.88v-.22c0-.89-.21-1.47-1.22-1.47a1.14,1.14,0,0,0-1.26,1.1h-3c.14-2.24,1.9-3.34,4.43-3.34s4.19,1.05,4.19,3.52v6H96.3V191a3.05,3.05,0,0,1-2.75,1.3C91.88,192.26,90.41,191.44,90.41,189.47Zm5.82-.67v-.57H95.4c-1.28,0-1.85.25-1.85,1,0,.53.36.87,1.1.87A1.4,1.4,0,0,0,96.23,188.8Z" fill="#fff"/><path d="M100.94,182.76h3.17v1.49a3.28,3.28,0,0,1,3.06-1.74c1.79,0,3,1.12,3,3.5v6H107v-5.39c0-1.05-.4-1.56-1.33-1.56s-1.58.56-1.58,1.75V192h-3.17Z" fill="#fff"/><path d="M21.83,211.22c0-2.18,1.84-3,4.93-3h.89V208c0-.89-.21-1.47-1.23-1.47a1.14,1.14,0,0,0-1.26,1.1h-3c.14-2.24,1.9-3.34,4.44-3.34s4.19,1.05,4.19,3.52v6H27.72v-1.08A3.07,3.07,0,0,1,25,214C23.3,214,21.83,213.19,21.83,211.22Zm5.82-.67V210h-.84c-1.27,0-1.84.25-1.84,1,0,.53.35.87,1.1.87A1.41,1.41,0,0,0,27.65,210.55Z" fill="#fff"/><path d="M32.35,204.51h3.18v1.39a3.27,3.27,0,0,1,2.89-1.64c2.17,0,3.92,1.64,3.92,4.81v.14c0,3.2-1.75,4.8-3.94,4.8a3.06,3.06,0,0,1-2.87-1.58v4.47H32.35Zm6.76,4.7v-.14c0-1.63-.71-2.41-1.82-2.41s-1.85.83-1.85,2.39v.15c0,1.58.69,2.37,1.85,2.37S39.11,210.74,39.11,209.21Z" fill="#fff"/><path d="M43.5,204.51h3.18v1.39a3.27,3.27,0,0,1,2.89-1.64c2.16,0,3.92,1.64,3.92,4.81v.14c0,3.2-1.76,4.8-3.94,4.8a3.06,3.06,0,0,1-2.87-1.58v4.47H43.5Zm6.76,4.7v-.14c0-1.63-.71-2.41-1.83-2.41s-1.84.83-1.84,2.39v.15c0,1.58.69,2.37,1.84,2.37S50.26,210.74,50.26,209.21Z" fill="#fff"/><path d="M54.15,209.27v-.14a4.77,4.77,0,0,1,5.09-4.87c2.86,0,5.06,1.83,5.06,4.78v.14c0,3-2.22,4.83-5.08,4.83S54.15,212.27,54.15,209.27Zm6.92-.06v-.14c0-1.56-.62-2.43-1.83-2.43s-1.84.84-1.84,2.4v.14c0,1.6.62,2.47,1.84,2.47S61.07,210.76,61.07,209.21Z" fill="#fff"/><path d="M65.35,202a1.66,1.66,0,0,1,1.74-1.65,1.64,1.64,0,1,1,0,3.28A1.64,1.64,0,0,1,65.35,202Zm.16,2.52h3.18v9.28H65.51Z" fill="#fff"/><path d="M70.39,204.51h3.18V206a3.27,3.27,0,0,1,3.05-1.74c1.79,0,3,1.12,3,3.5v6H76.48V208.4c0-1.05-.41-1.56-1.33-1.56s-1.58.56-1.58,1.75v5.2H70.39Z" fill="#fff"/><path d="M81.63,210.81v-4.13H80.51v-2.17h1.12v-1.93H84.8v1.93h1.83v2.17H84.8v3.83a.85.85,0,0,0,.94,1,2.59,2.59,0,0,0,.91-.16v2.41a6.51,6.51,0,0,1-1.76.27C82.8,214,81.63,213,81.63,210.81Z" fill="#fff"/><path d="M87.84,204.51H91v1.42a3.25,3.25,0,0,1,2.91-1.67,2.55,2.55,0,0,1,2.53,1.55,3.64,3.64,0,0,1,3.06-1.55c1.76,0,3,1.14,3,3.46v6.07H99.37v-5.53c0-.94-.46-1.41-1.19-1.41a1.38,1.38,0,0,0-1.42,1.57v5.37H93.62v-5.53c0-.94-.46-1.41-1.19-1.41A1.38,1.38,0,0,0,91,208.42v5.37H87.84Z" fill="#fff"/><path d="M103.6,209.27v-.14a4.75,4.75,0,0,1,5-4.87,4.4,4.4,0,0,1,4.72,4.79v.84h-6.53a1.85,1.85,0,0,0,1.94,1.93c1,0,1.49-.48,1.61-1.1h3c-.28,2.1-1.9,3.29-4.7,3.29S103.6,212.3,103.6,209.27Zm6.65-1.17c0-1.12-.6-1.74-1.63-1.74a1.76,1.76,0,0,0-1.77,1.74Z" fill="#fff"/><path d="M114.45,204.51h3.17V206a3.28,3.28,0,0,1,3-1.74c1.8,0,3,1.12,3,3.5v6h-3.18V208.4c0-1.05-.41-1.56-1.33-1.56s-1.58.56-1.58,1.75v5.2h-3.17Z" fill="#fff"/><path d="M125.68,210.81v-4.13h-1.12v-2.17h1.12v-1.93h3.18v1.93h1.83v2.17h-1.83v3.83c0,.67.33,1,.94,1a2.53,2.53,0,0,0,.9-.16v2.41A6.49,6.49,0,0,1,129,214C126.85,214,125.68,213,125.68,210.81Z" fill="#fff"/><path d="M131.77,212.2a1.77,1.77,0,0,1,1.81-1.8,1.8,1.8,0,1,1,0,3.59A1.77,1.77,0,0,1,131.77,212.2Z" fill="#fff"/><path d="M22,235.28v-2.72a4.38,4.38,0,0,0,1.55.25c1,0,1.65-.44,1.65-1.76v-8.2h3.65v8.24c0,3-1.56,4.61-4.54,4.61A5,5,0,0,1,22,235.28Z" fill="#fff"/><path d="M30.45,232.31v-6.05h3.18v5.54c0,1,.41,1.56,1.31,1.56s1.58-.57,1.58-1.76v-5.34H39.7v9.28H36.52v-1.43a3.05,3.05,0,0,1-2.94,1.65C31.78,235.76,30.45,234.66,30.45,232.31Z" fill="#fff"/><path d="M40.7,232.6h2.92c.11.67.41,1,1.32,1s1.13-.3,1.13-.76-.44-.66-1.72-.83c-2.48-.32-3.53-1.05-3.53-3s1.83-3.06,4-3.06,3.89.78,4.1,3H46a1,1,0,0,0-1.19-.92c-.69,0-1,.3-1,.73s.43.62,1.56.76c2.58.32,3.82,1,3.82,3,0,2.2-1.63,3.2-4.21,3.2S40.77,234.66,40.7,232.6Z" fill="#fff"/><path d="M50.62,232.56v-4.13H49.5v-2.17h1.12v-1.93h3.17v1.93h1.83v2.17H53.79v3.83a.85.85,0,0,0,.94,1,2.55,2.55,0,0,0,.91-.16v2.41a6.51,6.51,0,0,1-1.76.27C51.79,235.76,50.62,234.74,50.62,232.56Z" fill="#fff"/><path d="M59.6,231v-.14c0-3.16,1.74-4.85,3.94-4.85a3,3,0,0,1,2.86,1.56v-5.39h3.17v13.36H66.4V234a3.15,3.15,0,0,1-2.9,1.73C61.36,235.76,59.6,234.21,59.6,231Zm6.88-.05v-.15c0-1.56-.65-2.39-1.82-2.39s-1.83.8-1.83,2.41V231c0,1.57.69,2.36,1.79,2.36S66.48,232.53,66.48,231Z" fill="#fff"/><path d="M71.19,226.26h3.18v1.85a2.91,2.91,0,0,1,3-2v3c-1.93,0-3,.55-3,2v4.4H71.19Z" fill="#fff"/><path d="M77.93,231v-.14A4.77,4.77,0,0,1,83,226c2.85,0,5,1.83,5,4.78v.14c0,3-2.21,4.83-5.07,4.83S77.93,234,77.93,231Zm6.93-.06v-.14c0-1.56-.63-2.43-1.83-2.43s-1.85.84-1.85,2.4v.14c0,1.6.62,2.47,1.85,2.47S84.86,232.51,84.86,231Z" fill="#fff"/><path d="M89.21,226.26h3.17v1.39A3.27,3.27,0,0,1,95.27,226c2.17,0,3.93,1.64,3.93,4.81V231c0,3.2-1.76,4.8-3.94,4.8a3.06,3.06,0,0,1-2.88-1.58v4.47H89.21ZM96,231v-.14c0-1.63-.71-2.41-1.83-2.41s-1.85.83-1.85,2.39V231c0,1.58.7,2.37,1.85,2.37S96,232.49,96,231Z" fill="#fff"/><path d="M103.09,231v-.14a4.76,4.76,0,0,1,5.09-4.87c2.86,0,5.06,1.83,5.06,4.78v.14c0,3-2.22,4.83-5.08,4.83S103.09,234,103.09,231ZM110,231v-.14c0-1.56-.62-2.43-1.83-2.43s-1.85.84-1.85,2.4v.14c0,1.6.62,2.47,1.85,2.47S110,232.51,110,231Z" fill="#fff"/><path d="M114.84,228.43h-1.17v-2.17h1.17v-.71c0-2.3,1.42-3.39,3.62-3.39a5.22,5.22,0,0,1,1.42.18v2.32a2.92,2.92,0,0,0-.86-.12.92.92,0,0,0-1,1v.71h2.69v-.81c0-2.31,1.46-3.41,3.64-3.41a6,6,0,0,1,1.46.19v2.33a3,3,0,0,0-.87-.13.93.93,0,0,0-1,1v.81h1.88v2.17h-1.88v7.11h-3.18v-7.11H118v7.11h-3.16Z" fill="#fff"/><path d="M25.27,256.35,21.56,248H25l1.92,5,1.77-5h3l-5,12.39h-3Z" fill="#fff"/><path d="M31.55,252.77v-.14a4.77,4.77,0,0,1,5.1-4.87c2.85,0,5.05,1.83,5.05,4.78v.14c0,3-2.21,4.83-5.07,4.83S31.55,255.77,31.55,252.77Zm6.92-.06v-.14c0-1.56-.62-2.43-1.82-2.43s-1.85.84-1.85,2.4v.14c0,1.6.62,2.47,1.85,2.47S38.47,254.26,38.47,252.71Z" fill="#fff"/><path d="M42.75,254.06V248h3.18v5.54c0,1,.41,1.56,1.31,1.56s1.58-.57,1.58-1.76V248H52v9.28H48.82v-1.43a3.05,3.05,0,0,1-2.94,1.65C44.08,257.51,42.75,256.41,42.75,254.06Z" fill="#fff"/><path d="M53.62,248h3.17v1.85a2.92,2.92,0,0,1,3-2v3c-1.93,0-3,.55-3,2v4.4H53.62Z" fill="#fff"/><path d="M63.72,252.75v-.14c0-3.16,1.74-4.85,3.94-4.85a3,3,0,0,1,2.85,1.56v-5.39h3.18v13.36H70.51v-1.51a3.13,3.13,0,0,1-2.89,1.73C65.47,257.51,63.72,256,63.72,252.75Zm6.88-.05v-.15c0-1.56-.65-2.39-1.83-2.39S67,251,67,252.57v.14c0,1.57.69,2.36,1.79,2.36S70.6,254.28,70.6,252.7Z" fill="#fff"/><path d="M74.81,252.77v-.14a4.77,4.77,0,0,1,5.09-4.87c2.86,0,5.06,1.83,5.06,4.78v.14c0,3-2.22,4.83-5.07,4.83S74.81,255.77,74.81,252.77Zm6.92-.06v-.14c0-1.56-.62-2.43-1.83-2.43s-1.84.84-1.84,2.4v.14c0,1.6.62,2.47,1.84,2.47S81.73,254.26,81.73,252.71Z" fill="#fff"/><path d="M85.58,252.77v-.14a4.68,4.68,0,0,1,5-4.87c2.27,0,4.36,1,4.54,3.82h-3a1.37,1.37,0,0,0-1.49-1.35c-1.12,0-1.78.8-1.78,2.36v.14c0,1.62.62,2.45,1.83,2.45a1.53,1.53,0,0,0,1.61-1.54h2.86c-.09,2.34-1.67,3.87-4.67,3.87C87.7,257.51,85.58,255.89,85.58,252.77Z" fill="#fff"/><path d="M95.67,254.35h2.92c.11.67.41,1,1.32,1s1.13-.3,1.13-.76-.44-.66-1.72-.83c-2.48-.32-3.53-1.05-3.53-3s1.83-3.06,4-3.06,3.89.78,4.1,3H101a1,1,0,0,0-1.19-.92c-.69,0-1,.3-1,.73s.43.62,1.57.76c2.57.32,3.81,1,3.81,3,0,2.2-1.63,3.2-4.21,3.2S95.74,256.41,95.67,254.35Z" fill="#fff"/><path d="M105,255.7a1.77,1.77,0,0,1,1.81-1.8,1.8,1.8,0,1,1,0,3.59A1.77,1.77,0,0,1,105,255.7Z" fill="#fff"/><rect width="160" height="600" fill="none"/></g></g></g></g></svg>