<svg xmlns="http://www.w3.org/2000/svg" viewBox="0 0 160 600"><title>H124</title><g id="Layer_2" data-name="Layer 2"><g id="Rect"><rect width="160" height="600" fill="none"/></g><g id="H124"><g id="Profesionales_de_taxes_biling端es._Tenemos_buen_domino_del_espa単" data-name="Profesionales de taxes biling端es. Tenemos buen domino del espa単"><path d="M20.26,120.72h5c3.59,0,5.26,1.58,5.26,4.34v.08c0,2.72-1.85,4.19-5.09,4.19H24v4.38H20.26Zm4.82,6.07c1.21,0,1.85-.56,1.85-1.64v-.07c0-1.11-.66-1.56-1.83-1.56H24v3.27Z" fill="#fff"/><path d="M31.63,124.21h3.28v1.89a3,3,0,0,1,3.09-2v3c-2-.06-3.09.56-3.09,2.08v4.51H31.63Z" fill="#fff"/><path d="M38.59,129.08v-.15c0-3.05,2.29-5,5.25-5s5.22,1.87,5.22,4.88V129c0,3.08-2.29,4.93-5.24,4.93S38.59,132.15,38.59,129.08Zm7.14-.06v-.14c0-1.6-.64-2.49-1.89-2.49s-1.9.85-1.9,2.45V129c0,1.63.64,2.52,1.9,2.52S45.73,130.6,45.73,129Z" fill="#fff"/><path d="M50.71,126.43H49.5v-2.22h1.21v-.83c0-2.37,1.48-3.49,3.75-3.49a5.86,5.86,0,0,1,1.5.2v2.38a2.81,2.81,0,0,0-.9-.13,1,1,0,0,0-1.09,1v.83h1.94v2.22H54v7.28H50.71Z" fill="#fff"/><path d="M56.16,129.08v-.15a4.88,4.88,0,0,1,5.18-5,4.52,4.52,0,0,1,4.87,4.9v.85H59.48a1.9,1.9,0,0,0,2,2c1.08,0,1.54-.49,1.67-1.12h3.07c-.29,2.14-2,3.35-4.85,3.35S56.16,132.18,56.16,129.08Zm6.87-1.2c-.06-1.15-.62-1.78-1.69-1.78a1.81,1.81,0,0,0-1.83,1.78Z" fill="#fff"/><path d="M66.8,130.69h3c.11.69.42,1.07,1.35,1.07s1.17-.3,1.17-.78-.45-.67-1.77-.85c-2.56-.33-3.65-1.07-3.65-3S68.81,124,71,124s4,.8,4.23,3.06h-3a1.07,1.07,0,0,0-1.23-.94c-.71,0-1.08.31-1.08.75s.44.63,1.61.78c2.66.32,3.94,1,3.94,3,0,2.25-1.68,3.26-4.34,3.26S66.87,132.8,66.8,130.69Z" fill="#fff"/><path d="M76.52,121.63a1.81,1.81,0,1,1,1.79,1.67A1.71,1.71,0,0,1,76.52,121.63Zm.16,2.58H80v9.5H76.68Z" fill="#fff"/><path d="M81.2,129.08v-.15c0-3.05,2.29-5,5.26-5s5.22,1.87,5.22,4.88V129c0,3.08-2.29,4.93-5.24,4.93S81.2,132.15,81.2,129.08Zm7.14-.06v-.14c0-1.6-.64-2.49-1.88-2.49s-1.91.85-1.91,2.45V129c0,1.63.65,2.52,1.91,2.52S88.34,130.6,88.34,129Z" fill="#fff"/><path d="M92.83,124.21h3.28v1.53A3.38,3.38,0,0,1,99.26,124c1.85,0,3.13,1.14,3.13,3.57v6.18H99.11v-5.52c0-1.07-.42-1.6-1.37-1.6s-1.63.58-1.63,1.8v5.32H92.83Z" fill="#fff"/><path d="M103.43,131.07c0-2.23,1.9-3.1,5.09-3.1h.91v-.22c0-.91-.22-1.51-1.26-1.51a1.17,1.17,0,0,0-1.3,1.13h-3.08c.15-2.29,2-3.41,4.58-3.41s4.32,1.07,4.32,3.59v6.16h-3.18V132.6a3.16,3.16,0,0,1-2.84,1.32C105,133.92,103.43,133.09,103.43,131.07Zm6-.69v-.58h-.86c-1.32,0-1.9.26-1.9,1,0,.54.36.89,1.13.89C108.74,131.73,109.43,131.2,109.43,130.38Z" fill="#fff"/><path d="M114.38,120h3.25v13.68h-3.25Z" fill="#fff"/><path d="M118.88,129.08v-.15a4.88,4.88,0,0,1,5.18-5,4.52,4.52,0,0,1,4.87,4.9v.85h-6.74a1.9,1.9,0,0,0,2,2c1.08,0,1.54-.49,1.66-1.12h3.08c-.29,2.14-2,3.35-4.85,3.35S118.88,132.18,118.88,129.08Zm6.86-1.2c0-1.15-.62-1.78-1.68-1.78a1.81,1.81,0,0,0-1.83,1.78Z" fill="#fff"/><path d="M129.51,130.69h3c.11.69.43,1.07,1.36,1.07s1.17-.3,1.17-.78-.46-.67-1.77-.85c-2.57-.33-3.65-1.07-3.65-3s1.89-3.12,4.1-3.12c2.37,0,4,.8,4.23,3.06h-3a1.07,1.07,0,0,0-1.23-.94c-.71,0-1.08.31-1.08.75s.44.63,1.61.78c2.66.32,3.94,1,3.94,3,0,2.25-1.69,3.26-4.34,3.26S129.59,132.8,129.51,130.69Z" fill="#fff"/><path d="M19.49,154.62v-.15c0-3.23,1.8-5,4.07-5a3.12,3.12,0,0,1,3,1.6v-5.52h3.28v13.68H26.51v-1.55a3.24,3.24,0,0,1-3,1.76C21.31,159.48,19.49,157.9,19.49,154.62Zm7.11-.06v-.14c0-1.6-.68-2.45-1.89-2.45s-1.88.81-1.88,2.47v.14c0,1.6.71,2.42,1.85,2.42S26.6,156.18,26.6,154.56Z" fill="#fff"/><path d="M30.94,154.64v-.15a4.88,4.88,0,0,1,5.18-5A4.53,4.53,0,0,1,41,154.42v.85H34.25a1.9,1.9,0,0,0,2,2c1.08,0,1.53-.49,1.66-1.13H41c-.29,2.15-2,3.36-4.85,3.36S30.94,157.74,30.94,154.64Zm6.86-1.2c0-1.15-.62-1.78-1.68-1.78a1.81,1.81,0,0,0-1.83,1.78Z" fill="#fff"/><path d="M45.89,156.21V152H44.74v-2.21h1.15v-2h3.28v2h1.88V152H49.17v3.93a.87.87,0,0,0,1,1,2.45,2.45,0,0,0,.93-.17v2.47a6.86,6.86,0,0,1-1.81.27C47.1,159.48,45.89,158.45,45.89,156.21Z" fill="#fff"/><path d="M51.79,156.63c0-2.23,1.9-3.1,5.09-3.1h.91v-.22c0-.91-.22-1.51-1.26-1.51a1.17,1.17,0,0,0-1.3,1.13H52.15c.15-2.29,2-3.42,4.58-3.42s4.32,1.08,4.32,3.6v6.16H57.87v-1.11A3.17,3.17,0,0,1,55,159.48C53.31,159.48,51.79,158.65,51.79,156.63Zm6-.69v-.58h-.86c-1.32,0-1.9.26-1.9,1,0,.54.36.89,1.13.89C57.1,157.29,57.79,156.76,57.79,155.94Z" fill="#fff"/><path d="M65.06,154.44l-3-4.67h3.78l1.48,2.5,1.44-2.5h3.37l-3,4.41,3.32,5.09H68.67L67,156.43l-1.74,2.84H61.87Z" fill="#fff"/><path d="M72,154.64v-.15a4.89,4.89,0,0,1,5.19-5,4.53,4.53,0,0,1,4.87,4.91v.85H75.33a1.9,1.9,0,0,0,2,2c1.08,0,1.54-.49,1.67-1.13h3.08c-.3,2.15-2,3.36-4.86,3.36S72,157.74,72,154.64Zm6.87-1.2c0-1.15-.62-1.78-1.68-1.78a1.82,1.82,0,0,0-1.84,1.78Z" fill="#fff"/><path d="M82.65,156.25h3c.11.69.42,1.07,1.36,1.07s1.17-.31,1.17-.78-.46-.67-1.78-.85c-2.56-.33-3.64-1.07-3.64-3.05s1.88-3.13,4.1-3.13,4,.8,4.23,3.07h-3a1.06,1.06,0,0,0-1.22-.94c-.72,0-1.09.31-1.09.74s.44.64,1.62.78c2.65.33,3.93,1,3.93,3.05,0,2.26-1.68,3.27-4.34,3.27S82.72,158.36,82.65,156.25Z" fill="#fff"/><path d="M23.25,183.35v1.47H20V171.15h3.28v5.59a3.4,3.4,0,0,1,3-1.67c2.24,0,4.05,1.67,4.05,4.92v.15c0,3.27-1.81,4.9-4.07,4.9A3.1,3.1,0,0,1,23.25,183.35Zm3.7-3.21V180c0-1.67-.74-2.47-1.89-2.47s-1.9.86-1.9,2.46v.14c0,1.62.71,2.43,1.9,2.43S27,181.7,27,180.14Z" fill="#fff"/><path d="M31.39,172.75a1.81,1.81,0,1,1,1.8,1.67A1.71,1.71,0,0,1,31.39,172.75Zm.17,2.58h3.28v9.49H31.56Z" fill="#fff"/><path d="M36.68,171.15h3.26v13.67H36.68Z" fill="#fff"/><path d="M41.63,172.75a1.81,1.81,0,1,1,1.79,1.67A1.71,1.71,0,0,1,41.63,172.75Zm.16,2.58h3.28v9.49H41.79Z" fill="#fff"/><path d="M46.83,175.33H50.1v1.52a3.4,3.4,0,0,1,3.15-1.78c1.85,0,3.13,1.15,3.13,3.58v6.17H53.11V179.3c0-1.07-.43-1.59-1.38-1.59s-1.63.58-1.63,1.79v5.32H46.83Z" fill="#fff"/><path d="M57.44,184.82H60.7c.15.69.57,1.24,1.76,1.24a1.8,1.8,0,0,0,2-2v-1.45a3.35,3.35,0,0,1-3,1.74c-2.24,0-4.07-1.63-4.07-4.56v-.14c0-2.8,1.81-4.58,4.07-4.58a3.12,3.12,0,0,1,3,1.6v-1.34h3.28V184c0,2.83-1.89,4.32-5.31,4.32C59.2,188.35,57.7,187,57.44,184.82Zm7.14-5v-.13c0-1.31-.67-2.14-1.88-2.14s-1.89.85-1.89,2.16v.14c0,1.31.7,2.15,1.87,2.15S64.58,181.12,64.58,179.78Z" fill="#fff"/><path d="M69.36,181.52v-6.19h3.28V181c0,1.07.42,1.6,1.35,1.6s1.63-.58,1.63-1.8v-5.46H78.9v9.49H75.62v-1.47a3.14,3.14,0,0,1-3,1.69C70.73,185,69.36,183.92,69.36,181.52Zm1.26-8.73a1.57,1.57,0,0,1,3.13,0,1.57,1.57,0,0,1-3.13,0Zm3.9,0a1.57,1.57,0,1,1,1.56,1.5A1.52,1.52,0,0,1,74.52,172.79Z" fill="#fff"/><path d="M80.05,180.19v-.14a4.88,4.88,0,0,1,5.18-5A4.53,4.53,0,0,1,90.1,180v.85H83.36a1.92,1.92,0,0,0,2,2c1.08,0,1.54-.49,1.67-1.13H90.1c-.29,2.15-2,3.36-4.85,3.36S80.05,183.3,80.05,180.19ZM86.92,179c-.06-1.15-.63-1.78-1.69-1.78A1.81,1.81,0,0,0,83.4,179Z" fill="#fff"/><path d="M90.69,181.81h3c.11.69.42,1.07,1.35,1.07s1.18-.31,1.18-.78-.46-.67-1.78-.85c-2.56-.33-3.64-1.07-3.64-3.05s1.88-3.13,4.1-3.13,4,.8,4.23,3.07h-3A1.07,1.07,0,0,0,95,177.2c-.71,0-1.08.31-1.08.74s.44.64,1.61.78c2.66.33,3.94,1,3.94,3.05,0,2.26-1.68,3.27-4.34,3.27S90.76,183.92,90.69,181.81Z" fill="#fff"/><path d="M100.35,183.19a1.82,1.82,0,0,1,1.87-1.83,1.83,1.83,0,1,1,0,3.66A1.82,1.82,0,0,1,100.35,183.19Z" fill="#fff"/><path d="M22.77,200.27H19.38V197.4H29.93v2.87H26.54v10.11H22.77Z" fill="#fff"/><path d="M29.12,205.75v-.14a4.89,4.89,0,0,1,5.19-5,4.53,4.53,0,0,1,4.87,4.9v.86H32.44a1.9,1.9,0,0,0,2,2c1.08,0,1.54-.49,1.67-1.13h3.08c-.3,2.14-2,3.36-4.86,3.36S29.12,208.86,29.12,205.75Zm6.87-1.2c-.06-1.14-.62-1.78-1.68-1.78a1.83,1.83,0,0,0-1.84,1.78Z" fill="#fff"/><path d="M40.31,200.89h3.28v1.52a3.37,3.37,0,0,1,3.14-1.78c1.85,0,3.14,1.15,3.14,3.58v6.17H46.59v-5.52c0-1.07-.42-1.6-1.38-1.6s-1.62.59-1.62,1.8v5.32H40.31Z" fill="#fff"/><path d="M50.94,205.75v-.14a4.89,4.89,0,0,1,5.19-5,4.53,4.53,0,0,1,4.87,4.9v.86H54.26a1.9,1.9,0,0,0,2,2c1.08,0,1.54-.49,1.67-1.13H61c-.3,2.14-2,3.36-4.86,3.36S50.94,208.86,50.94,205.75Zm6.87-1.2c-.06-1.14-.62-1.78-1.68-1.78a1.83,1.83,0,0,0-1.84,1.78Z" fill="#fff"/><path d="M62.13,200.89h3.28v1.45a3.35,3.35,0,0,1,3-1.71,2.62,2.62,0,0,1,2.6,1.58,3.8,3.8,0,0,1,3.17-1.58c1.81,0,3.13,1.16,3.13,3.54v6.21H74v-5.66c0-1-.48-1.44-1.23-1.44a1.41,1.41,0,0,0-1.46,1.6v5.5H68.1v-5.66c0-1-.48-1.44-1.23-1.44a1.41,1.41,0,0,0-1.46,1.6v5.5H62.13Z" fill="#fff"/><path d="M78.38,205.75v-.14c0-3.05,2.29-5,5.26-5s5.22,1.87,5.22,4.89v.14c0,3.09-2.29,4.94-5.24,4.94S78.38,208.82,78.38,205.75Zm7.15-.05v-.15c0-1.59-.65-2.49-1.89-2.49s-1.9.86-1.9,2.46v.14c0,1.64.64,2.53,1.9,2.53S85.53,207.28,85.53,205.7Z" fill="#fff"/><path d="M89.42,207.37h3c.11.69.43,1.07,1.36,1.07s1.17-.31,1.17-.78-.46-.67-1.77-.85c-2.57-.33-3.65-1.08-3.65-3.05s1.89-3.13,4.1-3.13c2.37,0,4,.8,4.23,3.07h-3a1.07,1.07,0,0,0-1.23-.94c-.71,0-1.08.3-1.08.74s.44.64,1.61.78c2.66.33,3.94,1,3.94,3.05,0,2.25-1.69,3.27-4.34,3.27S89.5,209.48,89.42,207.37Z" fill="#fff"/><path d="M23.25,234.47v1.47H20V222.27h3.28v5.59a3.38,3.38,0,0,1,3-1.67c2.24,0,4.05,1.67,4.05,4.92v.15c0,3.26-1.81,4.9-4.07,4.9A3.1,3.1,0,0,1,23.25,234.47Zm3.7-3.21v-.15c0-1.67-.74-2.47-1.89-2.47s-1.9.86-1.9,2.45v.15c0,1.61.71,2.43,1.9,2.43S27,232.82,27,231.26Z" fill="#fff"/><path d="M31.39,232.64v-6.2h3.28v5.67c0,1.07.42,1.6,1.36,1.6s1.63-.58,1.63-1.8v-5.47h3.27v9.5H37.66v-1.47a3.16,3.16,0,0,1-3,1.69C32.77,236.16,31.39,235,31.39,232.64Z" fill="#fff"/><path d="M42.08,231.31v-.14a4.89,4.89,0,0,1,5.19-5,4.53,4.53,0,0,1,4.87,4.9V232H45.4a1.9,1.9,0,0,0,2,2c1.08,0,1.54-.49,1.67-1.13h3.08c-.3,2.14-2,3.36-4.86,3.36S42.08,234.42,42.08,231.31Zm6.87-1.2c-.06-1.14-.62-1.78-1.68-1.78a1.83,1.83,0,0,0-1.84,1.78Z" fill="#fff"/><path d="M53.27,226.44h3.28V228a3.38,3.38,0,0,1,3.15-1.78c1.84,0,3.13,1.14,3.13,3.58v6.17H59.55v-5.52c0-1.07-.42-1.6-1.37-1.6s-1.63.58-1.63,1.8v5.32H53.27Z" fill="#fff"/><path d="M67.27,231.29v-.14c0-3.23,1.8-5,4.07-5a3.09,3.09,0,0,1,2.94,1.6v-5.52h3.28v13.67H74.28V234.4a3.21,3.21,0,0,1-3,1.76C69.08,236.16,67.27,234.58,67.27,231.29Zm7.11,0v-.15c0-1.59-.68-2.45-1.89-2.45s-1.89.82-1.89,2.47v.15c0,1.59.72,2.41,1.85,2.41S74.38,232.85,74.38,231.24Z" fill="#fff"/><path d="M78.71,231.31v-.14c0-3,2.29-5,5.26-5s5.22,1.87,5.22,4.89v.14c0,3.09-2.29,4.94-5.24,4.94S78.71,234.38,78.71,231.31Zm7.14-.05v-.15c0-1.6-.64-2.49-1.88-2.49s-1.91.86-1.91,2.46v.14c0,1.63.65,2.52,1.91,2.52S85.85,232.84,85.85,231.26Z" fill="#fff"/><path d="M90.34,226.44h3.28v1.46a3.33,3.33,0,0,1,3-1.71,2.62,2.62,0,0,1,2.6,1.58,3.8,3.8,0,0,1,3.17-1.58c1.81,0,3.13,1.16,3.13,3.54v6.21h-3.28v-5.66c0-1-.48-1.44-1.23-1.44a1.41,1.41,0,0,0-1.46,1.6v5.5H96.31v-5.66c0-1-.48-1.44-1.23-1.44a1.41,1.41,0,0,0-1.46,1.6v5.5H90.34Z" fill="#fff"/><path d="M107,223.87a1.81,1.81,0,1,1,1.8,1.67A1.7,1.7,0,0,1,107,223.87Zm.17,2.57h3.28v9.5H107.2Z" fill="#fff"/><path d="M112.23,226.44h3.28V228a3.39,3.39,0,0,1,3.15-1.78c1.85,0,3.13,1.14,3.13,3.58v6.17h-3.28v-5.52c0-1.07-.42-1.6-1.37-1.6s-1.63.58-1.63,1.8v5.32h-3.28Z" fill="#fff"/><path d="M122.87,231.31v-.14c0-3,2.29-5,5.25-5s5.22,1.87,5.22,4.89v.14c0,3.09-2.29,4.94-5.24,4.94S122.87,234.38,122.87,231.31Zm7.14-.05v-.15c0-1.6-.64-2.49-1.89-2.49s-1.9.86-1.9,2.46v.14c0,1.63.64,2.52,1.9,2.52S130,232.84,130,231.26Z" fill="#fff"/><path d="M19.49,256.85v-.14c0-3.24,1.8-5,4.07-5a3.1,3.1,0,0,1,3,1.6v-5.52h3.28V261.5H26.51V260a3.24,3.24,0,0,1-3,1.76C21.31,261.72,19.49,260.14,19.49,256.85Zm7.11-.05v-.15c0-1.6-.68-2.45-1.89-2.45s-1.88.82-1.88,2.47v.15c0,1.59.71,2.41,1.85,2.41S26.6,258.41,26.6,256.8Z" fill="#fff"/><path d="M30.94,256.87v-.15a4.87,4.87,0,0,1,5.18-5,4.52,4.52,0,0,1,4.87,4.9v.86H34.25a1.9,1.9,0,0,0,2,2c1.08,0,1.53-.49,1.66-1.12H41c-.29,2.14-2,3.36-4.85,3.36S30.94,260,30.94,256.87Zm6.86-1.2c0-1.14-.62-1.78-1.68-1.78a1.81,1.81,0,0,0-1.83,1.78Z" fill="#fff"/><path d="M42.21,247.83h3.26V261.5H42.21Z" fill="#fff"/><path d="M50.05,256.87v-.15a4.88,4.88,0,0,1,5.18-5,4.52,4.52,0,0,1,4.87,4.9v.86H53.36a1.9,1.9,0,0,0,2,2c1.08,0,1.53-.49,1.66-1.12H60.1c-.29,2.14-2,3.36-4.85,3.36S50.05,260,50.05,256.87Zm6.86-1.2c0-1.14-.62-1.78-1.68-1.78a1.81,1.81,0,0,0-1.83,1.78Z" fill="#fff"/><path d="M60.68,258.49h3c.11.69.42,1.07,1.36,1.07s1.17-.31,1.17-.78-.46-.68-1.78-.86c-2.56-.32-3.64-1.07-3.64-3.05s1.89-3.12,4.1-3.12c2.36,0,4,.8,4.23,3.07h-3a1.06,1.06,0,0,0-1.22-.95c-.72,0-1.08.31-1.08.75s.44.63,1.61.78c2.65.33,3.94,1,3.94,3,0,2.25-1.69,3.27-4.34,3.27S60.75,260.59,60.68,258.49Z" fill="#fff"/><path d="M70.48,252h3.27v1.42a3.39,3.39,0,0,1,3-1.67c2.23,0,4.05,1.67,4.05,4.92v.15c0,3.26-1.82,4.9-4.07,4.9a3.16,3.16,0,0,1-3-1.62v4.58H70.48Zm7,4.82v-.15c0-1.67-.73-2.47-1.88-2.47s-1.91.85-1.91,2.45v.15c0,1.61.72,2.43,1.91,2.43S77.45,258.38,77.45,256.82Z" fill="#fff"/><path d="M81.42,258.87c0-2.24,1.91-3.11,5.09-3.11h.92v-.22c0-.9-.22-1.5-1.26-1.5a1.16,1.16,0,0,0-1.3,1.12H81.79c.15-2.28,2-3.41,4.58-3.41s4.32,1.07,4.32,3.59v6.16H87.5v-1.11a3.16,3.16,0,0,1-2.84,1.33C82.94,261.72,81.42,260.88,81.42,258.87Zm6-.69v-.58h-.86c-1.32,0-1.91.25-1.91,1,0,.55.37.89,1.14.89C86.73,259.52,87.43,259,87.43,258.18Z" fill="#fff"/><path d="M92.28,252h3.28v1.53a3.38,3.38,0,0,1,3.15-1.78c1.85,0,3.13,1.14,3.13,3.58v6.17H98.56V256c0-1.07-.42-1.6-1.37-1.6s-1.63.58-1.63,1.8v5.32H92.28Zm3.79-1.76a.62.62,0,0,0-.57.58H93.73c.12-1.9,1-2.83,2.1-2.83s1.58.62,2.18.62c.33,0,.51-.24.59-.58h1.77c-.14,1.89-1.06,2.81-2.16,2.81S96.64,250.24,96.07,250.24Z" fill="#fff"/><path d="M102.91,256.87v-.15c0-3.05,2.29-5,5.26-5s5.22,1.87,5.22,4.88v.15c0,3.09-2.29,4.94-5.24,4.94S102.91,259.94,102.91,256.87Zm7.14-.05v-.15c0-1.6-.64-2.49-1.88-2.49s-1.91.86-1.91,2.45v.15c0,1.63.65,2.52,1.91,2.52S110.05,258.4,110.05,256.82Z" fill="#fff"/><path d="M114.63,247.83h3.26V261.5h-3.26Z" fill="#fff"/><path d="M23,286.1l-3.82-8.54H22.7l2,5.07,1.83-5.07h3.13l-5.13,12.68H21.38Z" fill="#fff"/><path d="M33.33,282.41v-.15c0-3.23,1.8-4.95,4.07-4.95a3.1,3.1,0,0,1,3,1.6v-5.52h3.27v13.67H40.35v-1.54a3.24,3.24,0,0,1-3,1.76C35.15,287.28,33.33,285.7,33.33,282.41Zm7.11-.05v-.15c0-1.6-.68-2.45-1.89-2.45s-1.88.82-1.88,2.47v.14c0,1.6.71,2.42,1.85,2.42S40.44,284,40.44,282.36Z" fill="#fff"/><path d="M44.77,282.43v-.15a4.88,4.88,0,0,1,5.19-5,4.52,4.52,0,0,1,4.87,4.9v.85H48.09a1.9,1.9,0,0,0,2,2c1.09,0,1.54-.49,1.67-1.12h3.08c-.3,2.14-2,3.36-4.86,3.36S44.77,285.53,44.77,282.43Zm6.87-1.2c0-1.14-.62-1.78-1.68-1.78a1.81,1.81,0,0,0-1.83,1.78Z" fill="#fff"/><path d="M59.38,273.39h3.26v13.67H59.38Z" fill="#fff"/><path d="M63.89,282.43v-.15c0-3,2.28-5,5.25-5s5.22,1.87,5.22,4.88v.15c0,3.08-2.29,4.94-5.24,4.94S63.89,285.5,63.89,282.43Zm7.14-.06v-.14c0-1.6-.64-2.49-1.89-2.49s-1.9.85-1.9,2.45v.15c0,1.63.64,2.52,1.9,2.52S71,284,71,282.37Z" fill="#fff"/><path d="M74.92,284h3c.11.69.43,1.08,1.36,1.08s1.17-.31,1.17-.79-.46-.67-1.77-.85c-2.57-.33-3.65-1.07-3.65-3.05s1.89-3.12,4.1-3.12c2.37,0,4,.8,4.23,3.07h-3a1.07,1.07,0,0,0-1.23-.95c-.71,0-1.08.31-1.08.75s.44.63,1.61.78c2.66.32,3.94,1,3.94,3.05,0,2.25-1.69,3.27-4.34,3.27S75,286.15,74.92,284Z" fill="#fff"/><path d="M88.49,284v-4.23H87.33v-2.22h1.16v-2h3.28v2h1.88v2.22H91.77v3.92a.87.87,0,0,0,1,1,2.49,2.49,0,0,0,.93-.17V287a6.8,6.8,0,0,1-1.81.28C89.7,287.28,88.49,286.24,88.49,284Z" fill="#fff"/><path d="M94.38,284.43c0-2.24,1.91-3.11,5.09-3.11h.92v-.22c0-.91-.22-1.5-1.27-1.5a1.16,1.16,0,0,0-1.29,1.12H94.75c.15-2.29,2-3.41,4.58-3.41s4.32,1.07,4.32,3.59v6.16h-3.19V286a3.16,3.16,0,0,1-2.84,1.33C95.9,287.28,94.38,286.44,94.38,284.43Zm6-.69v-.59h-.86c-1.32,0-1.91.26-1.91,1,0,.54.37.89,1.14.89C99.69,285.08,100.39,284.55,100.39,283.74Z" fill="#fff"/><path d="M107.66,282.23l-3-4.67h3.77l1.49,2.51,1.44-2.51h3.37l-3,4.41,3.32,5.09h-3.78l-1.7-2.83-1.74,2.83h-3.35Z" fill="#fff"/><path d="M114.61,282.43v-.15a4.88,4.88,0,0,1,5.18-5,4.52,4.52,0,0,1,4.87,4.9v.85h-6.73a1.9,1.9,0,0,0,2,2c1.08,0,1.54-.49,1.67-1.12h3.07c-.29,2.14-2,3.36-4.85,3.36S114.61,285.53,114.61,282.43Zm6.87-1.2c-.06-1.14-.62-1.78-1.69-1.78a1.82,1.82,0,0,0-1.83,1.78Z" fill="#fff"/><path d="M125.25,284h3c.11.69.42,1.08,1.35,1.08s1.18-.31,1.18-.79-.46-.67-1.78-.85c-2.56-.33-3.64-1.07-3.64-3.05s1.88-3.12,4.1-3.12,4,.8,4.23,3.07h-3a1.07,1.07,0,0,0-1.23-.95c-.71,0-1.08.31-1.08.75s.44.63,1.61.78c2.66.32,3.94,1,3.94,3.05,0,2.25-1.68,3.27-4.34,3.27S125.32,286.15,125.25,284Z" fill="#fff"/><path d="M134.91,285.42a1.82,1.82,0,0,1,1.87-1.83,1.84,1.84,0,1,1,0,3.67A1.82,1.82,0,0,1,134.91,285.42Z" fill="#fff"/></g></g></g></svg>