<svg xmlns="http://www.w3.org/2000/svg" viewBox="0 0 300 600"><title>Asset 10</title><g id="Layer_2" data-name="Layer 2"><g id="Rect"><rect width="300" height="600" fill="none"/></g><g id="Your_maximum_refund_guaranteed." data-name="Your maximum refund, guaranteed."><path d="M29.79,171,19.36,152.7h10l5.41,10.78,5.42-10.78h8.77L39,171v13.7H29.79Z" fill="#fff"/><path d="M45.58,173.28v-.35c0-7.52,5.6-12.27,12.85-12.27s12.75,4.61,12.75,12v.36c0,7.61-5.59,12.17-12.8,12.17S45.58,180.85,45.58,173.28ZM63,173.15v-.36c0-3.94-1.57-6.13-4.61-6.13s-4.66,2.1-4.66,6v.36c0,4,1.57,6.22,4.66,6.22S63,177,63,173.15Z" fill="#fff"/><path d="M73.82,176.55V161.29h8v14c0,2.64,1,3.94,3.31,3.94s4-1.43,4-4.43V161.29h8V184.7h-8v-3.63c-1.25,2.42-3.53,4.16-7.42,4.16C77.18,185.23,73.82,182.46,73.82,176.55Z" fill="#fff"/><path d="M101.21,161.29h8v4.65a7.35,7.35,0,0,1,7.56-5v7.47c-4.88-.13-7.56,1.39-7.56,5.15v11.1h-8Z" fill="#fff"/><path d="M21.37,208h8v3.58a8.2,8.2,0,0,1,7.34-4.21,6.39,6.39,0,0,1,6.36,3.9,9.28,9.28,0,0,1,7.74-3.9c4.43,0,7.65,2.87,7.65,8.73v15.31h-8v-14c0-2.37-1.16-3.53-3-3.53-2.14,0-3.58,1.38-3.58,3.94v13.56H36v-14c0-2.37-1.16-3.53-3-3.53-2.15,0-3.58,1.38-3.58,3.94v13.56h-8Z" fill="#fff"/><path d="M61,225c0-5.51,4.65-7.66,12.44-7.66H75.7v-.53c0-2.24-.54-3.72-3.09-3.72a2.88,2.88,0,0,0-3.18,2.78H61.92c.35-5.64,4.78-8.42,11.18-8.42s10.57,2.64,10.57,8.86v15.18H75.88v-2.73c-1.12,1.7-3.18,3.26-6.94,3.26C64.73,232,61,229.92,61,225Zm14.68-1.7v-1.44H73.6c-3.23,0-4.66.63-4.66,2.56,0,1.34.9,2.19,2.78,2.19C74,226.57,75.7,225.27,75.7,223.26Z" fill="#fff"/><path d="M93.46,219.54,86.17,208h9.22L99,214.22l3.54-6.18h8.23l-7.38,10.88,8.1,12.53h-9.22l-4.16-7-4.25,7H85.68Z" fill="#fff"/><path d="M113.56,201.69a4.42,4.42,0,1,1,4.38,4.11A4.18,4.18,0,0,1,113.56,201.69ZM114,208h8v23.41h-8Z" fill="#fff"/><path d="M126.26,208h8v3.58a8.17,8.17,0,0,1,7.34-4.21,6.38,6.38,0,0,1,6.35,3.9,9.28,9.28,0,0,1,7.74-3.9c4.43,0,7.66,2.87,7.66,8.73v15.31h-8v-14c0-2.37-1.17-3.53-3-3.53-2.15,0-3.58,1.38-3.58,3.94v13.56h-7.93v-14c0-2.37-1.16-3.53-3-3.53-2.15,0-3.58,1.38-3.58,3.94v13.56h-8Z" fill="#fff"/><path d="M167.08,223.3V208h8v14c0,2.64,1,3.94,3.31,3.94s4-1.43,4-4.43V208h8v23.41h-8v-3.63c-1.25,2.42-3.53,4.16-7.43,4.16C170.43,232,167.08,229.21,167.08,223.3Z" fill="#fff"/><path d="M194.46,208h8v3.58a8.2,8.2,0,0,1,7.34-4.21,6.39,6.39,0,0,1,6.36,3.9,9.28,9.28,0,0,1,7.74-3.9c4.43,0,7.65,2.87,7.65,8.73v15.31h-8v-14c0-2.37-1.16-3.53-3-3.53-2.14,0-3.58,1.38-3.58,3.94v13.56h-7.92v-14c0-2.37-1.16-3.53-3-3.53-2.14,0-3.58,1.38-3.58,3.94v13.56h-8Z" fill="#fff"/><path d="M21.37,254.79h8v4.65a7.37,7.37,0,0,1,7.57-5V262c-4.88-.13-7.57,1.39-7.57,5.15v11.1h-8Z" fill="#fff"/><path d="M38.38,266.78v-.35c0-7.52,5.59-12.27,12.66-12.27,6.4,0,11.91,3.67,11.91,12.09v2.1H46.48c.22,3.09,2,4.88,4.88,4.88,2.64,0,3.76-1.21,4.07-2.78H63c-.72,5.28-4.79,8.28-11.86,8.28C43.75,278.73,38.38,274.44,38.38,266.78Zm16.78-2.95C55,261,53.64,259.44,51,259.44c-2.41,0-4.07,1.57-4.47,4.39Z" fill="#fff"/><path d="M66.93,260.25H64v-5.46h3v-2.06c0-5.82,3.62-8.59,9.17-8.59a14.18,14.18,0,0,1,3.67.49v5.86a7.33,7.33,0,0,0-2.19-.31,2.36,2.36,0,0,0-2.69,2.55v2.06h4.75v5.46H74.89V278.2h-8Z" fill="#fff"/><path d="M82.14,270.05V254.79h8v14c0,2.64,1,3.94,3.31,3.94s4-1.43,4-4.43V254.79h8V278.2h-8v-3.63c-1.26,2.42-3.54,4.16-7.43,4.16C85.5,278.73,82.14,276,82.14,270.05Z" fill="#fff"/><path d="M109.53,254.79h8v3.76a8.25,8.25,0,0,1,7.7-4.39c4.52,0,7.65,2.82,7.65,8.82V278.2h-8V264.59c0-2.64-1-3.94-3.36-3.94s-4,1.43-4,4.43V278.2h-8Z" fill="#fff"/><path d="M135.62,266.74v-.36c0-8,4.38-12.22,9.93-12.22,3.67,0,5.87,1.57,7.21,3.94V244.5h8v33.7h-8v-3.81a7.89,7.89,0,0,1-7.3,4.34C140.05,278.73,135.62,274.84,135.62,266.74ZM153,266.6v-.35c0-3.94-1.65-6-4.61-6s-4.61,2-4.61,6.08v.36c0,3.94,1.75,6,4.52,6S153,270.59,153,266.6Z" fill="#fff"/><path d="M163.18,281.82l3.76-11.77,7.43,2.64-6.44,11Z" fill="#fff"/><path d="M20.07,325h8c.36,1.7,1.39,3,4.3,3,3.53,0,5-2,5-4.92v-3.58a8.21,8.21,0,0,1-7.25,4.29c-5.46,0-9.93-4-9.93-11.23v-.36c0-6.89,4.43-11.28,9.93-11.28,3.72,0,5.91,1.57,7.25,3.94v-3.31h8V323c0,7-4.61,10.65-13,10.65C24.37,333.63,20.7,330.27,20.07,325ZM37.53,312.5v-.31c0-3.22-1.66-5.28-4.61-5.28s-4.61,2.1-4.61,5.33v.35c0,3.23,1.7,5.29,4.56,5.29S37.53,315.82,37.53,312.5Z" fill="#fff"/><path d="M49.21,316.8V301.54h8v14c0,2.64,1,3.94,3.31,3.94s4-1.43,4-4.43V301.54h8V325h-8v-3.63c-1.25,2.42-3.53,4.16-7.43,4.16C52.56,325.48,49.21,322.71,49.21,316.8Z" fill="#fff"/><path d="M75.25,318.46c0-5.51,4.65-7.66,12.44-7.66h2.24v-.53c0-2.24-.54-3.72-3.09-3.72a2.88,2.88,0,0,0-3.18,2.78H76.15c.35-5.64,4.78-8.42,11.18-8.42s10.57,2.64,10.57,8.86V325H90.11v-2.73c-1.12,1.7-3.18,3.26-6.94,3.26C79,325.48,75.25,323.42,75.25,318.46Zm14.68-1.7v-1.44h-2.1c-3.23,0-4.66.63-4.66,2.56,0,1.34.9,2.19,2.78,2.19C88.23,320.07,89.93,318.77,89.93,316.76Z" fill="#fff"/><path d="M101.79,301.54h8v4.65a7.36,7.36,0,0,1,7.56-5v7.47c-4.88-.13-7.56,1.39-7.56,5.15V325h-8Z" fill="#fff"/><path d="M118.39,318.46c0-5.51,4.65-7.66,12.44-7.66h2.24v-.53c0-2.24-.54-3.72-3.09-3.72a2.88,2.88,0,0,0-3.18,2.78h-7.52c.36-5.64,4.79-8.42,11.19-8.42S141,303.55,141,309.77V325h-7.78v-2.73c-1.12,1.7-3.18,3.26-6.94,3.26C122.1,325.48,118.39,323.42,118.39,318.46Zm14.68-1.7v-1.44H131c-3.22,0-4.65.63-4.65,2.56,0,1.34.89,2.19,2.77,2.19C131.37,320.07,133.07,318.77,133.07,316.76Z" fill="#fff"/><path d="M144.92,301.54h8v3.76a8.25,8.25,0,0,1,7.69-4.39c4.52,0,7.66,2.82,7.66,8.82V325h-8V311.34c0-2.64-1-3.94-3.36-3.94s-4,1.43-4,4.43V325h-8Z" fill="#fff"/><path d="M173.25,317.43V307h-2.82v-5.46h2.82v-4.88h8v4.88h4.61V307h-4.61v9.67a2.14,2.14,0,0,0,2.37,2.46,6.32,6.32,0,0,0,2.29-.4v6.08a16.75,16.75,0,0,1-4.43.67C176.21,325.48,173.25,322.93,173.25,317.43Z" fill="#fff"/><path d="M187.66,313.53v-.35c0-7.52,5.59-12.27,12.67-12.27,6.4,0,11.9,3.67,11.9,12.09v2.1H195.76c.22,3.09,2,4.88,4.88,4.88,2.64,0,3.76-1.21,4.07-2.78h7.52c-.72,5.28-4.79,8.28-11.86,8.28C193,325.48,187.66,321.19,187.66,313.53Zm16.78-2.95c-.13-2.82-1.52-4.39-4.11-4.39-2.42,0-4.08,1.57-4.48,4.39Z" fill="#fff"/><path d="M213.75,313.53v-.35c0-7.52,5.59-12.27,12.66-12.27,6.4,0,11.91,3.67,11.91,12.09v2.1H221.85c.22,3.09,2,4.88,4.88,4.88,2.64,0,3.76-1.21,4.07-2.78h7.52c-.72,5.28-4.79,8.28-11.86,8.28C219.12,325.48,213.75,321.19,213.75,313.53Zm16.78-2.95c-.13-2.82-1.52-4.39-4.12-4.39-2.41,0-4.07,1.57-4.47,4.39Z" fill="#fff"/><path d="M239.93,313.49v-.36c0-8,4.38-12.22,9.93-12.22,3.67,0,5.87,1.57,7.21,3.94v-13.6h8V325h-8v-3.81a7.89,7.89,0,0,1-7.3,4.34C244.36,325.48,239.93,321.59,239.93,313.49Zm17.36-.13V313c0-3.94-1.65-6-4.61-6s-4.61,2-4.61,6.08v.36c0,3.94,1.75,6,4.52,6S257.29,317.34,257.29,313.36Z" fill="#fff"/><path d="M268.84,320.92a4.46,4.46,0,0,1,4.56-4.52,4.52,4.52,0,1,1,0,9A4.46,4.46,0,0,1,268.84,320.92Z" fill="#fff"/></g></g></svg>