<svg xmlns="http://www.w3.org/2000/svg" viewBox="0 0 119.65 31.81"><title>cta</title><g id="Layer_2" data-name="Layer 2"><g id="CTA"><g id="Rectangle_1" data-name="Rectangle 1"><rect width="119.65" height="31.81" fill="none"/></g><g id="Download_the_app" data-name="Download the app"><path d="M5.29,10.49h3c3.27,0,4.88,1.77,4.88,4.55v.1c0,2.79-1.63,4.64-4.89,4.64h-3Zm3,7.66c1.87,0,2.75-1.06,2.75-3v-.1c0-1.92-.82-2.94-2.78-2.94H7.4v6Z" transform="translate(0)" fill="#262626"/><path d="M14,16.46v-.11a3.4,3.4,0,0,1,3.58-3.52,3.37,3.37,0,0,1,3.58,3.48v.11a3.4,3.4,0,0,1-3.59,3.51A3.37,3.37,0,0,1,14,16.46Zm5.25,0v-.09c0-1.3-.61-2.08-1.67-2.08s-1.66.75-1.66,2v.11c0,1.3.6,2.08,1.66,2.08S19.2,17.72,19.2,16.43Z" transform="translate(0)" fill="#262626"/><path d="M21.37,13h2l1.21,4.57L25.86,13h1.55l1.2,4.57L29.9,13h1.8l-2.14,6.79H27.71l-1.16-4.26-1.24,4.26H23.43Z" transform="translate(0)" fill="#262626"/><path d="M32.53,13h1.89v1.07a2.34,2.34,0,0,1,2.21-1.23c1.34,0,2.28.81,2.28,2.63v4.32H37V15.73c0-.93-.37-1.37-1.2-1.37a1.35,1.35,0,0,0-1.41,1.5v3.92H32.53Z" transform="translate(0)" fill="#262626"/><path d="M40.38,9.9h1.87v9.88H40.38Z" transform="translate(0)" fill="#262626"/><path d="M43.36,16.46v-.11a3.58,3.58,0,0,1,7.16,0v.11a3.58,3.58,0,0,1-7.16,0Zm5.25,0v-.09c0-1.3-.61-2.08-1.67-2.08s-1.66.75-1.66,2v.11c0,1.3.6,2.08,1.66,2.08S48.61,17.72,48.61,16.43Z" transform="translate(0)" fill="#262626"/><path d="M51.14,17.9c0-1.59,1.46-2.18,3.54-2.18h.76v-.28c0-.8-.24-1.25-1.1-1.25a1,1,0,0,0-1.16,1H51.4c.12-1.62,1.39-2.33,3.06-2.33s2.84.68,2.84,2.52v4.43H55.47V19a2.32,2.32,0,0,1-2,1C52.18,19.93,51.14,19.33,51.14,17.9Zm4.3-.49v-.58h-.72c-1.1,0-1.73.24-1.73,1,0,.49.3.81,1,.81C54.81,18.61,55.44,18.16,55.44,17.41Z" transform="translate(0)" fill="#262626"/><path d="M58.31,16.48v-.1c0-2.24,1.29-3.55,3-3.55A2.26,2.26,0,0,1,63.45,14V9.9h1.87v9.88H63.45V18.65a2.47,2.47,0,0,1-2.18,1.28C59.61,19.93,58.31,18.74,58.31,16.48Zm5.19-.06v-.11c0-1.35-.6-2-1.62-2s-1.64.72-1.64,2.07v.1c0,1.36.65,2,1.58,2S63.5,17.8,63.5,16.42Z" transform="translate(0)" fill="#262626"/><path d="M69.78,17.77V14.32h-.87V13h.87V11.52h1.87V13h1.43v1.33H71.65V17.6c0,.55.27.81.75.81a1.78,1.78,0,0,0,.72-.13v1.45a3.49,3.49,0,0,1-1.15.18A1.93,1.93,0,0,1,69.78,17.77Z" transform="translate(0)" fill="#262626"/><path d="M74.2,9.9h1.88v4.16a2.36,2.36,0,0,1,2.21-1.23c1.34,0,2.29.81,2.29,2.63v4.32H78.69V15.73c0-.93-.36-1.37-1.19-1.37a1.35,1.35,0,0,0-1.42,1.5v3.92H74.2Z" transform="translate(0)" fill="#262626"/><path d="M81.58,16.47v-.1a3.37,3.37,0,0,1,3.49-3.54,3.14,3.14,0,0,1,3.32,3.46v.52h-4.9a1.63,1.63,0,0,0,1.69,1.78c.87,0,1.3-.38,1.41-.95h1.78c-.22,1.47-1.39,2.29-3.25,2.29A3.3,3.3,0,0,1,81.58,16.47Zm5-.82c-.07-1-.59-1.52-1.49-1.52a1.57,1.57,0,0,0-1.56,1.52Z" transform="translate(0)" fill="#262626"/><path d="M91.67,17.9c0-1.59,1.46-2.18,3.54-2.18H96v-.28c0-.8-.25-1.25-1.11-1.25a1,1,0,0,0-1.16,1H91.93c.12-1.62,1.39-2.33,3.06-2.33s2.85.68,2.85,2.52v4.43H96V19a2.31,2.31,0,0,1-2,1C92.71,19.93,91.67,19.33,91.67,17.9ZM96,17.41v-.58h-.73c-1.09,0-1.73.24-1.73,1,0,.49.3.81,1,.81S96,18.16,96,17.41Z" transform="translate(0)" fill="#262626"/><path d="M99.25,13h1.89v1.06a2.51,2.51,0,0,1,2.17-1.22c1.66,0,3,1.23,3,3.48v.11c0,2.25-1.27,3.51-3,3.51a2.36,2.36,0,0,1-2.17-1.19V22.1H99.25Zm5.11,3.44v-.1c0-1.38-.68-2.06-1.62-2.06s-1.67.69-1.67,2.06v.1c0,1.37.65,2,1.68,2S104.36,17.76,104.36,16.43Z" transform="translate(0)" fill="#262626"/><path d="M107.33,13h1.89v1.06a2.53,2.53,0,0,1,2.17-1.22c1.66,0,3,1.23,3,3.48v.11c0,2.25-1.27,3.51-3,3.51a2.37,2.37,0,0,1-2.17-1.19V22.1h-1.89Zm5.11,3.44v-.1c0-1.38-.67-2.06-1.62-2.06s-1.67.69-1.67,2.06v.1c0,1.37.65,2,1.68,2S112.44,17.76,112.44,16.43Z" transform="translate(0)" fill="#262626"/></g></g></g></svg>