<svg xmlns="http://www.w3.org/2000/svg" viewBox="0 0 1940 500"><title>Asset 1</title><rect width="1940" height="500" fill="none"/><path d="M563.21,137.32h55.32V155H586.05v13.77h25.87v16.35H586.05v14.55h34.27v17.69H563.21Z" fill="#fff"/><path d="M624.92,201.14c0-13.77,11.64-19.15,31.13-19.15h5.6v-1.34c0-5.6-1.35-9.3-7.73-9.3-5.49,0-7.5,3.25-7.95,7H627.16c.89-14.11,12-21.05,28-21.05s26.43,6.6,26.43,22.17v38H662.09v-6.83c-2.8,4.26-8,8.18-17.35,8.18C634.21,218.72,624.92,213.57,624.92,201.14Zm36.73-4.26V193.3h-5.27c-8.06,0-11.64,1.57-11.64,6.38,0,3.36,2.24,5.49,6.94,5.49C657.39,205.17,661.65,201.92,661.65,196.88Z" fill="#fff"/><path d="M687.41,198.79h18.47c.67,4.25,2.58,6.6,8.29,6.6,4.93,0,7.17-1.9,7.17-4.81s-2.8-4.14-10.87-5.26c-15.67-2-22.28-6.61-22.28-18.81,0-13,11.53-19.26,25.08-19.26,14.45,0,24.53,4.92,25.87,18.92H721c-.78-3.92-2.91-5.82-7.5-5.82-4.37,0-6.61,1.9-6.61,4.59s2.69,3.92,9.86,4.81c16.23,2,24.07,6.27,24.07,18.81,0,13.89-10.3,20.16-26.54,20.16C697.6,218.72,687.85,211.78,687.41,198.79Z" fill="#fff"/><path d="M746.87,142.91c0-5.93,4.71-10.41,11-10.41s11.08,4.48,11.08,10.41-4.81,10.31-11.08,10.31S746.87,148.85,746.87,142.91Zm1,15.9h20v58.56h-20Z" fill="#fff"/><path d="M779.24,133.06h19.93v84.31H779.24Z" fill="#fff"/><path d="M828.29,211.44l-23.41-52.63h21.73l12.09,31.24,11.2-31.24h19.15L837.69,237H818.54Z" fill="#fff"/><path d="M897.27,198.56V172.47h-7V158.81h7v-12.2h20.05v12.2h11.53v13.66H917.32v24.19c0,4.25,2.13,6.16,5.93,6.16a15.3,15.3,0,0,0,5.71-1V217a42.06,42.06,0,0,1-11.08,1.68C904.66,218.72,897.27,212.34,897.27,198.56Z" fill="#fff"/><path d="M936.47,133.06h20v35.16c3.14-6.05,9.52-11,19.26-11,11.31,0,19.15,7.05,19.15,22.05v38.07h-20v-34c0-6.61-2.58-9.86-8.4-9.86s-10,3.59-10,11.09v32.8h-20Z" fill="#fff"/><path d="M1001.53,188.82v-.89c0-18.81,14-30.68,31.7-30.68,16,0,29.78,9.18,29.78,30.23v5.26H1021.8c.56,7.73,5,12.21,12.21,12.21,6.61,0,9.41-3,10.19-6.95H1063c-1.79,13.22-12,20.72-29.67,20.72C1015,218.72,1001.53,208,1001.53,188.82Zm42-7.39c-.34-7.05-3.81-11-10.3-11-6,0-10.19,3.92-11.2,11Z" fill="#fff"/><path d="M1087.21,188.82v-.89c0-18.81,14-30.68,31.69-30.68,16,0,29.79,9.18,29.79,30.23v5.26h-41.22c.57,7.73,5,12.21,12.21,12.21,6.61,0,9.41-3,10.19-6.95h18.82c-1.8,13.22-12,20.72-29.68,20.72C1100.64,218.72,1087.21,208,1087.21,188.82Zm42-7.39c-.34-7.05-3.81-11-10.3-11-6.05,0-10.19,3.92-11.2,11Z" fill="#fff"/><path d="M1152.83,201.14c0-13.77,11.65-19.15,31.13-19.15h5.6v-1.34c0-5.6-1.34-9.3-7.73-9.3-5.48,0-7.5,3.25-7.95,7h-18.81c.9-14.11,12-21.05,28-21.05s26.42,6.6,26.42,22.17v38H1190v-6.83c-2.8,4.26-8,8.18-17.36,8.18C1162.12,218.72,1152.83,213.57,1152.83,201.14Zm36.73-4.26V193.3h-5.26c-8.06,0-11.65,1.57-11.65,6.38,0,3.36,2.24,5.49,6.94,5.49C1185.31,205.17,1189.56,201.92,1189.56,196.88Z" fill="#fff"/><path d="M1215.32,198.79h18.48c.67,4.25,2.57,6.6,8.28,6.6,4.93,0,7.17-1.9,7.17-4.81s-2.8-4.14-10.86-5.26c-15.68-2-22.29-6.61-22.29-18.81,0-13,11.54-19.26,25.09-19.26,14.44,0,24.52,4.92,25.87,18.92h-18.14c-.79-3.92-2.92-5.82-7.51-5.82-4.37,0-6.6,1.9-6.6,4.59s2.68,3.92,9.85,4.81c16.24,2,24.08,6.27,24.08,18.81,0,13.89-10.31,20.16-26.54,20.16C1225.51,218.72,1215.77,211.78,1215.32,198.79Z" fill="#fff"/><path d="M1274.79,142.91c0-5.93,4.7-10.41,11-10.41s11.09,4.48,11.09,10.41-4.82,10.31-11.09,10.31S1274.79,148.85,1274.79,142.91Zm1,15.9h20v58.56h-20Z" fill="#fff"/><path d="M1303.46,188.82v-.89c0-18.81,14-30.68,31.69-30.68,16,0,29.79,9.18,29.79,30.23v5.26h-41.22c.57,7.73,5,12.21,12.21,12.21,6.61,0,9.41-3,10.19-6.95h18.82c-1.8,13.22-12,20.72-29.68,20.72C1316.89,218.72,1303.46,208,1303.46,188.82Zm42-7.39c-.34-7.05-3.81-11-10.3-11-6.05,0-10.19,3.92-11.2,11Z" fill="#fff"/><path d="M1368.52,198.79H1387c.67,4.25,2.57,6.6,8.29,6.6,4.92,0,7.16-1.9,7.16-4.81s-2.8-4.14-10.86-5.26c-15.68-2-22.29-6.61-22.29-18.81,0-13,11.54-19.26,25.09-19.26,14.44,0,24.52,4.92,25.87,18.92h-18.14c-.79-3.92-2.92-5.82-7.51-5.82-4.36,0-6.6,1.9-6.6,4.59s2.68,3.92,9.85,4.81c16.24,2,24.08,6.27,24.08,18.81,0,13.89-10.31,20.16-26.54,20.16C1378.71,218.72,1369,211.78,1368.52,198.79Z" fill="#fff"/><path d="M1431.12,198.56V172.47h-7V158.81h7v-12.2h20.05v12.2h11.53v13.66h-11.53v24.19c0,4.25,2.13,6.16,5.93,6.16a15.3,15.3,0,0,0,5.71-1V217a42.06,42.06,0,0,1-11.08,1.68C1438.51,218.72,1431.12,212.34,1431.12,198.56Z" fill="#fff"/><path d="M1485.77,158.81h20.94l8.52,35.05,9.85-35.05h16.13l8.73,35.05,9.52-35.05h19l-18.59,58.56h-19.15L1532,184.68,1523,217.37h-19.48Z" fill="#fff"/><path d="M1578.05,201.14c0-13.77,11.65-19.15,31.13-19.15h5.6v-1.34c0-5.6-1.34-9.3-7.72-9.3-5.49,0-7.51,3.25-8,7h-18.82c.9-14.11,12-21.05,28-21.05s26.43,6.6,26.43,22.17v38h-19.49v-6.83c-2.8,4.26-8,8.18-17.36,8.18C1587.35,218.72,1578.05,213.57,1578.05,201.14Zm36.73-4.26V193.3h-5.26c-8.06,0-11.65,1.57-11.65,6.38,0,3.36,2.24,5.49,7,5.49C1610.53,205.17,1614.78,201.92,1614.78,196.88Z" fill="#fff"/><path d="M1660.81,211.44l-23.4-52.63h21.72l12.1,31.24,11.2-31.24h19.15L1670.22,237h-19.15Z" fill="#fff"/><path d="M564.1,314.53V288.44h-7.05V274.78h7.05V262.57h20v12.21h11.53v13.66H584.15v24.18c0,4.26,2.13,6.16,5.93,6.16a15.19,15.19,0,0,0,5.72-1V333a42.22,42.22,0,0,1-11.09,1.68C571.5,334.68,564.1,328.3,564.1,314.53Z" fill="#fff"/><path d="M600.17,304.79v-.9c0-18.81,14-30.68,32.13-30.68s31.92,11.53,31.92,30.12v.89c0,19-14,30.46-32,30.46S600.17,323.71,600.17,304.79Zm43.67-.34v-.9c0-9.85-3.92-15.34-11.54-15.34s-11.64,5.27-11.64,15.12v.89c0,10.08,3.92,15.57,11.64,15.57C639.81,319.79,643.84,314.19,643.84,304.45Z" fill="#fff"/><path d="M688.75,304.67v-.89c0-19.93,11-30.57,24.86-30.57,9.18,0,14.67,3.92,18,9.85V249h20v84.32h-20v-9.52c-2.91,6.05-9.41,10.86-18.26,10.86C699.83,334.68,688.75,324.94,688.75,304.67Zm43.45-.33v-.9c0-9.85-4.15-15.11-11.54-15.11s-11.53,5-11.53,15.22v.9c0,9.85,4.37,14.89,11.31,14.89C727.72,319.34,732.2,314.3,732.2,304.34Z" fill="#fff"/><path d="M758.74,304.79v-.9c0-18.81,14-30.68,32.14-30.68s31.92,11.53,31.92,30.12v.89c0,19-14,30.46-32,30.46S758.74,323.71,758.74,304.79Zm43.68-.34v-.9c0-9.85-3.92-15.34-11.54-15.34s-11.64,5.27-11.64,15.12v.89c0,10.08,3.92,15.57,11.64,15.57C798.38,319.79,802.42,314.19,802.42,304.45Z" fill="#fff"/><path d="M868.6,327.4l-23.4-52.62h21.72L879,306l11.2-31.24h19.14L878,352.93H858.86Z" fill="#fff"/><path d="M908.25,304.79v-.9c0-18.81,14-30.68,32.14-30.68s31.91,11.53,31.91,30.12v.89c0,19-14,30.46-32,30.46S908.25,323.71,908.25,304.79Zm43.67-.34v-.9c0-9.85-3.92-15.34-11.53-15.34s-11.65,5.27-11.65,15.12v.89c0,10.08,3.92,15.57,11.65,15.57C947.89,319.79,951.92,314.19,951.92,304.45Z" fill="#fff"/><path d="M978.91,313V274.78H999v34.93c0,6.61,2.57,9.85,8.29,9.85,6,0,10-3.58,10-11.08v-33.7h20v58.56h-20v-9.07c-3.13,6-8.84,10.41-18.59,10.41C987.31,334.68,978.91,327.74,978.91,313Z" fill="#fff"/><path d="M1047.45,274.78h20v11.64c3.7-8.73,9.86-12.54,18.93-12.43v18.7c-12.21-.33-18.93,3.47-18.93,12.88v27.77h-20Z" fill="#fff"/><path d="M1111,304.79v-.9c0-18.81,14-30.68,32.14-30.68S1175,284.74,1175,303.33v.89c0,19-14,30.46-32,30.46S1111,323.71,1111,304.79Zm43.67-.34v-.9c0-9.85-3.92-15.34-11.53-15.34s-11.65,5.27-11.65,15.12v.89c0,10.08,3.92,15.57,11.65,15.57C1150.59,319.79,1154.62,314.19,1154.62,304.45Z" fill="#fff"/><path d="M1175.23,274.78h20.94l8.51,35,9.86-35h16.12l8.74,35,9.52-35h19l-18.59,58.56h-19.15l-8.73-32.7-9.07,32.7h-19.49Z" fill="#fff"/><path d="M1273.11,274.78h20v9.4c3.14-6,9.52-11,19.26-11,11.31,0,19.15,7.05,19.15,22.06v38.07h-20v-34c0-6.61-2.58-9.85-8.4-9.85s-10,3.58-10,11.08v32.81h-20Z" fill="#fff"/><path d="M1364.38,314.53V288.44h-7.06V274.78h7.06V262.57h20v12.21H1396v13.66h-11.54v24.18c0,4.26,2.13,6.16,5.94,6.16a15.1,15.1,0,0,0,5.71-1V333a42.15,42.15,0,0,1-11.09,1.68C1371.77,334.68,1364.38,328.3,1364.38,314.53Z" fill="#fff"/><path d="M1400.44,317.1c0-13.77,11.64-19.14,31.13-19.14h5.6v-1.35c0-5.6-1.34-9.29-7.73-9.29-5.48,0-7.5,3.24-8,6.94h-18.81c.89-14.11,12-21.05,28-21.05s26.43,6.61,26.43,22.17v38h-19.48v-6.83c-2.8,4.25-7.95,8.17-17.36,8.17C1409.73,334.68,1400.44,329.53,1400.44,317.1Zm36.73-4.25v-3.59h-5.26c-8.07,0-11.65,1.57-11.65,6.39,0,3.35,2.24,5.48,6.94,5.48C1432.91,321.13,1437.17,317.88,1437.17,312.85Z" fill="#fff"/><path d="M1481.63,303.55l-18.25-28.77h23.07l9.07,15.45,8.84-15.45H1525L1506.49,302l20.27,31.35h-23.07l-10.41-17.47-10.64,17.47h-20.5Z" fill="#fff"/><path d="M1524.19,304.79v-.9c0-18.81,14-30.68,31.69-30.68,16,0,29.79,9.18,29.79,30.23v5.26h-41.21c.56,7.73,5,12.21,12.2,12.21,6.61,0,9.41-3,10.19-6.94h18.82c-1.79,13.21-12,20.71-29.68,20.71C1537.62,334.68,1524.19,323.93,1524.19,304.79Zm42-7.4c-.33-7.05-3.81-11-10.3-11-6.05,0-10.19,3.92-11.2,11Z" fill="#fff"/><path d="M1589.25,314.75h18.48c.67,4.25,2.57,6.61,8.29,6.61,4.92,0,7.16-1.91,7.16-4.82s-2.8-4.14-10.86-5.26c-15.68-2-22.28-6.61-22.28-18.81,0-13,11.53-19.26,25.08-19.26,14.45,0,24.52,4.93,25.87,18.92h-18.14c-.79-3.92-2.91-5.82-7.51-5.82-4.36,0-6.6,1.9-6.6,4.59s2.68,3.92,9.85,4.81c16.24,2,24.08,6.28,24.08,18.82,0,13.88-10.3,20.15-26.54,20.15C1599.44,334.68,1589.7,327.74,1589.25,314.75Z" fill="#fff"/><path d="M1648.38,323.26A11.17,11.17,0,0,1,1659.8,312a11.32,11.32,0,1,1,0,22.62A11.17,11.17,0,0,1,1648.38,323.26Z" fill="#fff"/></svg>