<svg xmlns="http://www.w3.org/2000/svg" viewBox="0 0 300 250"><title>Asset 12</title><g id="Layer_2" data-name="Layer 2"><g id="Rect"><rect width="300" height="250" fill="none"/></g><g id="Real-time_answers_for_your_real-time_questions." data-name="Real-time answers for your real-time questions."><path d="M22.28,20.25h9.24c6.17,0,9.6,2.51,9.6,7.49v.13a6.17,6.17,0,0,1-4.25,6.21l5.64,9.77H35.38L30.59,35.4H29v8.45H22.28ZM31.19,31c2.28,0,3.4-1,3.4-2.87V28c0-1.92-1.19-2.68-3.37-2.68H29V31Z" fill="#fff"/><path d="M42.51,35.43v-.26c0-5.55,4.12-9,9.34-9,4.72,0,8.78,2.71,8.78,8.92v1.55H48.48c.17,2.27,1.49,3.6,3.6,3.6,1.94,0,2.77-.9,3-2h5.55c-.53,3.89-3.54,6.1-8.75,6.1C46.47,44.24,42.51,41.08,42.51,35.43Zm12.37-2.18c-.1-2.08-1.12-3.23-3-3.23s-3,1.15-3.3,3.23Z" fill="#fff"/><path d="M61.84,39.06c0-4.06,3.44-5.64,9.18-5.64h1.65V33c0-1.65-.4-2.74-2.28-2.74a2.12,2.12,0,0,0-2.34,2H62.5c.27-4.16,3.54-6.21,8.25-6.21s7.79,1.95,7.79,6.54V43.85H72.8v-2c-.82,1.25-2.34,2.4-5.11,2.4C64.58,44.24,61.84,42.73,61.84,39.06Zm10.83-1.25V36.75H71.12c-2.38,0-3.43.46-3.43,1.88,0,1,.66,1.62,2,1.62C71.41,40.25,72.67,39.29,72.67,37.81Z" fill="#fff"/><path d="M81.58,19h5.87V43.85H81.58Z" fill="#fff"/><path d="M90.55,32.2h9.24v4.45H90.55Z" fill="#fff"/><path d="M103.52,38.3V30.61h-2.08v-4h2.08V23h5.91v3.6h3.4v4h-3.4v7.13c0,1.26.63,1.82,1.75,1.82a4.45,4.45,0,0,0,1.68-.3v4.49a12.35,12.35,0,0,1-3.27.49C105.7,44.24,103.52,42.36,103.52,38.3Z" fill="#fff"/><path d="M114.94,21.9a3.26,3.26,0,1,1,3.23,3A3.08,3.08,0,0,1,114.94,21.9Zm.3,4.69h5.9V43.85h-5.9Z" fill="#fff"/><path d="M124.31,26.59h5.91v2.64a6,6,0,0,1,5.41-3.11A4.72,4.72,0,0,1,140.32,29,6.83,6.83,0,0,1,146,26.12c3.27,0,5.64,2.12,5.64,6.44V43.85h-5.91V33.55c0-1.75-.85-2.61-2.21-2.61-1.58,0-2.64,1-2.64,2.91v10h-5.84V33.55c0-1.75-.86-2.61-2.21-2.61-1.58,0-2.64,1-2.64,2.91v10h-5.91Z" fill="#fff"/><path d="M153.62,35.43v-.26c0-5.55,4.12-9,9.34-9,4.71,0,8.77,2.71,8.77,8.92v1.55H159.59c.16,2.27,1.48,3.6,3.6,3.6,1.94,0,2.77-.9,3-2h5.54c-.52,3.89-3.53,6.1-8.74,6.1C157.58,44.24,153.62,41.08,153.62,35.43ZM166,33.25c-.1-2.08-1.12-3.23-3-3.23s-3,1.15-3.3,3.23Z" fill="#fff"/><path d="M20.76,74.06c0-4.06,3.43-5.64,9.17-5.64h1.65V68c0-1.65-.39-2.74-2.27-2.74a2.13,2.13,0,0,0-2.35,2H21.42c.26-4.16,3.53-6.21,8.25-6.21s7.79,2,7.79,6.54V78.85H31.72v-2a5.69,5.69,0,0,1-5.12,2.4C23.5,79.24,20.76,77.73,20.76,74.06Zm10.82-1.25V71.75H30c-2.37,0-3.43.46-3.43,1.88,0,1,.66,1.62,2,1.62C30.33,75.25,31.58,74.29,31.58,72.81Z" fill="#fff"/><path d="M40.33,61.59h5.91v2.77a6.09,6.09,0,0,1,5.67-3.24c3.34,0,5.65,2.08,5.65,6.51V78.85H51.65v-10c0-1.95-.76-2.91-2.48-2.91S46.24,67,46.24,69.18v9.67H40.33Z" fill="#fff"/><path d="M59.27,73.37h5.45c.19,1.25.75,1.95,2.44,1.95,1.45,0,2.11-.56,2.11-1.42s-.83-1.22-3.2-1.55c-4.62-.6-6.57-1.95-6.57-5.55,0-3.83,3.4-5.68,7.39-5.68,4.26,0,7.23,1.46,7.63,5.58H69.17A1.93,1.93,0,0,0,67,65c-1.29,0-1.95.56-1.95,1.35s.79,1.16,2.91,1.42C72.7,68.35,75,69.61,75,73.3c0,4.1-3,5.94-7.82,5.94S59.4,77.2,59.27,73.37Z" fill="#fff"/><path d="M75.08,61.59h6.17l2.51,10.33,2.9-10.33h4.75L94,71.92l2.8-10.33h5.61L96.93,78.85H91.28l-2.57-9.64L86,78.85H80.29Z" fill="#fff"/><path d="M102.24,70.43v-.26c0-5.55,4.12-9.05,9.34-9.05,4.72,0,8.77,2.71,8.77,8.92v1.55H108.21c.16,2.27,1.48,3.6,3.6,3.6,1.94,0,2.77-.9,3-2h5.54c-.52,3.89-3.53,6.1-8.74,6.1C106.2,79.24,102.24,76.08,102.24,70.43Zm12.37-2.18c-.1-2.08-1.12-3.23-3-3.23s-3,1.15-3.3,3.23Z" fill="#fff"/><path d="M122.4,61.59h5.91V65a5.43,5.43,0,0,1,5.57-3.66v5.51c-3.59-.1-5.57,1-5.57,3.79v8.19H122.4Z" fill="#fff"/><path d="M134.94,73.37h5.44c.2,1.25.76,1.95,2.45,1.95,1.45,0,2.11-.56,2.11-1.42s-.83-1.22-3.2-1.55c-4.62-.6-6.57-1.95-6.57-5.55,0-3.83,3.4-5.68,7.39-5.68,4.26,0,7.23,1.46,7.63,5.58h-5.35A1.93,1.93,0,0,0,142.63,65c-1.29,0-1.95.56-1.95,1.35s.79,1.16,2.9,1.42c4.79.59,7.1,1.85,7.1,5.54,0,4.1-3,5.94-7.82,5.94S135.07,77.2,134.94,73.37Z" fill="#fff"/><path d="M159.49,65.61h-2.18v-4h2.18V60.07c0-4.29,2.67-6.34,6.77-6.34a10.41,10.41,0,0,1,2.7.37v4.32a5.52,5.52,0,0,0-1.62-.23,1.74,1.74,0,0,0-2,1.88v1.52h3.5v4h-3.5V78.85h-5.87Z" fill="#fff"/><path d="M169.32,70.43v-.26c0-5.55,4.13-9.05,9.48-9.05s9.4,3.4,9.4,8.88v.27c0,5.61-4.12,9-9.44,9S169.32,76,169.32,70.43Zm12.88-.1v-.26c0-2.9-1.16-4.52-3.4-4.52s-3.44,1.55-3.44,4.45v.27c0,3,1.16,4.58,3.44,4.58S182.2,73.21,182.2,70.33Z" fill="#fff"/><path d="M190.28,61.59h5.91V65a5.43,5.43,0,0,1,5.57-3.66v5.51c-3.59-.1-5.57,1-5.57,3.79v8.19h-5.91Z" fill="#fff"/><path d="M27.16,112.1l-6.9-15.51h6.41l3.56,9.21,3.3-9.21h5.65l-9.25,23H24.29Z" fill="#fff"/><path d="M38.84,105.43v-.26c0-5.55,4.13-9,9.47-9s9.41,3.4,9.41,8.88v.27c0,5.61-4.12,9-9.44,9S38.84,111,38.84,105.43Zm12.87-.1v-.26c0-2.9-1.15-4.52-3.4-4.52s-3.43,1.55-3.43,4.45v.27c0,3,1.16,4.58,3.43,4.58S51.71,108.21,51.71,105.33Z" fill="#fff"/><path d="M59.67,107.84V96.59h5.9v10.29c0,2,.76,2.91,2.45,2.91S71,108.73,71,106.52V96.59h5.91v17.26H71v-2.67a5.66,5.66,0,0,1-5.48,3.06C62.14,114.24,59.67,112.2,59.67,107.84Z" fill="#fff"/><path d="M79.86,96.59h5.91V100a5.43,5.43,0,0,1,5.58-3.66v5.51c-3.6-.1-5.58,1-5.58,3.79v8.19H79.86Z" fill="#fff"/><path d="M99.5,96.59h5.9V100A5.44,5.44,0,0,1,111,96.36v5.51c-3.6-.1-5.58,1-5.58,3.79v8.19H99.5Z" fill="#fff"/><path d="M112,105.43v-.26c0-5.55,4.12-9,9.34-9,4.72,0,8.78,2.71,8.78,8.92v1.55H118c.16,2.27,1.48,3.6,3.6,3.6,1.94,0,2.77-.9,3-2h5.55c-.53,3.89-3.54,6.1-8.75,6.1C116,114.24,112,111.08,112,105.43Zm12.37-2.18c-.1-2.08-1.12-3.23-3-3.23s-3,1.15-3.3,3.23Z" fill="#fff"/><path d="M131.37,109.06c0-4.06,3.44-5.64,9.18-5.64h1.65V103c0-1.65-.4-2.74-2.28-2.74a2.12,2.12,0,0,0-2.34,2H132c.27-4.16,3.53-6.21,8.25-6.21s7.79,1.95,7.79,6.54v11.19h-5.74v-2c-.82,1.25-2.34,2.4-5.12,2.4C134.11,114.24,131.37,112.73,131.37,109.06Zm10.83-1.25v-1.06h-1.55c-2.38,0-3.44.46-3.44,1.88,0,1,.67,1.62,2,1.62C140.94,110.25,142.2,109.29,142.2,107.81Z" fill="#fff"/><path d="M151.11,89H157v24.85h-5.87Z" fill="#fff"/><path d="M160.08,102.2h9.24v4.45h-9.24Z" fill="#fff"/><path d="M173.05,108.3v-7.69H171v-4h2.08V93H179v3.6h3.4v4H179v7.13c0,1.26.63,1.82,1.75,1.82a4.45,4.45,0,0,0,1.68-.3v4.49a12.35,12.35,0,0,1-3.27.49C175.23,114.24,173.05,112.36,173.05,108.3Z" fill="#fff"/><path d="M184.47,91.9a3.26,3.26,0,1,1,3.23,3A3.08,3.08,0,0,1,184.47,91.9Zm.3,4.69h5.9v17.26h-5.9Z" fill="#fff"/><path d="M193.84,96.59h5.91v2.64a6,6,0,0,1,5.41-3.11A4.72,4.72,0,0,1,209.85,99a6.83,6.83,0,0,1,5.71-2.88c3.27,0,5.64,2.12,5.64,6.44v11.29h-5.91v-10.3c0-1.75-.85-2.61-2.21-2.61-1.58,0-2.64,1-2.64,2.91v10H204.6v-10.3c0-1.75-.86-2.61-2.21-2.61-1.59,0-2.64,1-2.64,2.91v10h-5.91Z" fill="#fff"/><path d="M223.14,105.43v-.26c0-5.55,4.13-9,9.35-9,4.72,0,8.77,2.71,8.77,8.92v1.55H229.12c.16,2.27,1.48,3.6,3.6,3.6,1.94,0,2.77-.9,3-2h5.54c-.52,3.89-3.53,6.1-8.74,6.1C227.11,114.24,223.14,111.08,223.14,105.43Zm12.38-2.18c-.1-2.08-1.12-3.23-3-3.23s-3,1.15-3.31,3.23Z" fill="#fff"/><path d="M33.53,146.18a6,6,0,0,1-5.38,3.07c-4,0-7.26-2.88-7.26-8.85v-.26c0-5.88,3.24-9,7.33-9A5.6,5.6,0,0,1,33.53,134v-2.44h5.91v23H33.53Zm.17-5.88V140c0-2.91-1.22-4.46-3.4-4.46s-3.4,1.49-3.4,4.49v.26c0,2.91,1.29,4.39,3.33,4.39S33.7,143.24,33.7,140.3Z" fill="#fff"/><path d="M42.31,142.84V131.59h5.91v10.29c0,2,.76,2.91,2.44,2.91s2.94-1.06,2.94-3.27v-9.93h5.9v17.26H53.6v-2.67a5.69,5.69,0,0,1-5.48,3.07C44.78,149.25,42.31,147.2,42.31,142.84Z" fill="#fff"/><path d="M61.58,140.43v-.26c0-5.55,4.13-9,9.34-9,4.72,0,8.78,2.71,8.78,8.92v1.55H67.55c.17,2.28,1.49,3.6,3.6,3.6,1.95,0,2.77-.9,3-2.05H79.7c-.53,3.89-3.53,6.11-8.75,6.11C65.54,149.25,61.58,146.08,61.58,140.43ZM74,138.25c-.1-2.08-1.13-3.23-3-3.23s-3,1.15-3.3,3.23Z" fill="#fff"/><path d="M80.75,143.37H86.2c.2,1.25.76,1.95,2.44,1.95,1.45,0,2.11-.56,2.11-1.42s-.82-1.22-3.2-1.55c-4.62-.6-6.57-1.95-6.57-5.55,0-3.83,3.4-5.68,7.4-5.68,4.25,0,7.22,1.46,7.62,5.58H90.65A1.92,1.92,0,0,0,88.44,135c-1.29,0-2,.56-2,1.35s.8,1.16,2.91,1.42c4.79.59,7.1,1.85,7.1,5.54,0,4.1-3,5.95-7.83,5.95S80.88,147.2,80.75,143.37Z" fill="#fff"/><path d="M99.2,143.3v-7.69H97.12v-4H99.2V128h5.91v3.6h3.4v4h-3.4v7.13c0,1.26.62,1.82,1.75,1.82a4.45,4.45,0,0,0,1.68-.3v4.49a12.28,12.28,0,0,1-3.27.5C101.38,149.25,99.2,147.36,99.2,143.3Z" fill="#fff"/><path d="M110.62,126.9a3.08,3.08,0,0,1,3.23-3.07,3.06,3.06,0,1,1,0,6.11A3.06,3.06,0,0,1,110.62,126.9Zm.29,4.69h5.91v17.26h-5.91Z" fill="#fff"/><path d="M119.06,140.43v-.26c0-5.55,4.13-9,9.48-9s9.4,3.4,9.4,8.88v.27c0,5.61-4.12,9-9.44,9S119.06,146,119.06,140.43Zm12.88-.1v-.26c0-2.9-1.16-4.52-3.4-4.52s-3.44,1.55-3.44,4.45v.27c0,3,1.16,4.59,3.44,4.59S131.94,143.21,131.94,140.33Z" fill="#fff"/><path d="M140,131.59h5.91v2.77a6.09,6.09,0,0,1,5.67-3.24c3.34,0,5.65,2.08,5.65,6.51v11.22h-5.91v-10c0-1.95-.76-2.91-2.48-2.91s-2.93,1.06-2.93,3.27v9.67H140Z" fill="#fff"/><path d="M159,143.37h5.45c.2,1.25.76,1.95,2.44,1.95,1.45,0,2.11-.56,2.11-1.42s-.82-1.22-3.2-1.55c-4.62-.6-6.57-1.95-6.57-5.55,0-3.83,3.4-5.68,7.39-5.68,4.26,0,7.23,1.46,7.63,5.58h-5.35a1.93,1.93,0,0,0-2.21-1.71c-1.29,0-2,.56-2,1.35s.8,1.16,2.91,1.42c4.78.59,7.09,1.85,7.09,5.54,0,4.1-3,5.95-7.82,5.95S159.09,147.2,159,143.37Z" fill="#fff"/><path d="M176.39,145.88a3.29,3.29,0,0,1,3.36-3.34,3.34,3.34,0,1,1,0,6.67A3.28,3.28,0,0,1,176.39,145.88Z" fill="#fff"/></g></g></svg>