<svg xmlns="http://www.w3.org/2000/svg" viewBox="0 0 300 250"><title>H29</title><g id="Layer_2" data-name="Layer 2"><g id="Rect"><rect width="300" height="250" fill="none"/></g><g id="H29"><g id="_PC_Mag" data-name="– PC Mag"><path d="M211.42,146.05h7.06v1.35h-7.06Z" fill="#fff"/><path d="M223.86,139.79h3.68c2.56,0,4.24,1.14,4.24,3.54v.07c0,2.41-1.74,3.49-4.19,3.49H226v4.35h-2.13Zm3.68,5.56c1.41,0,2.16-.69,2.16-1.95v-.07c0-1.36-.8-1.89-2.16-1.89H226v3.91Z" fill="#fff"/><path d="M232.83,145.59v-.13a5.5,5.5,0,0,1,5.56-5.84c2.62,0,4.65,1.31,4.91,4h-2.16a2.45,2.45,0,0,0-2.74-2.3c-2,0-3.33,1.56-3.33,4.13v.12c0,2.58,1.24,4.1,3.35,4.1a2.68,2.68,0,0,0,2.93-2.42h2.08c-.34,2.76-2.29,4.15-5,4.15C234.83,151.4,232.83,149.11,232.83,145.59Z" fill="#fff"/><path d="M248.59,139.79h2.85l3,7.82,2.95-7.82h2.81v11.45h-2.13V142.6l-3.41,8.64H254l-3.48-8.64v8.64h-1.92Z" fill="#fff"/><path d="M261.78,148.92c0-1.95,1.89-2.66,4.29-2.66h1v-.43c0-1.12-.39-1.68-1.52-1.68a1.39,1.39,0,0,0-1.6,1.31h-1.88c.16-2,1.72-2.77,3.59-2.77s3.34.77,3.34,3.06v5.49h-1.9v-1a2.92,2.92,0,0,1-2.56,1.18C263,151.4,261.78,150.66,261.78,148.92Zm5.33-.61v-.83h-1c-1.47,0-2.41.33-2.41,1.36,0,.7.38,1.17,1.34,1.17C266.23,150,267.11,149.38,267.11,148.31Z" fill="#fff"/><path d="M270.56,151.53h1.95c.16.83.8,1.31,2.07,1.31a2.06,2.06,0,0,0,2.34-2.26v-1.23a3.28,3.28,0,0,1-2.74,1.55,3.7,3.7,0,0,1-3.72-4v-.11a3.86,3.86,0,0,1,3.77-4.12,2.91,2.91,0,0,1,2.69,1.46v-1.28h1.93v7.75c0,2.46-1.66,3.69-4.26,3.69S270.78,153.13,270.56,151.53Zm6.42-4.68v-.11a2.22,2.22,0,0,0-2.26-2.53,2.26,2.26,0,0,0-2.27,2.56v.13a2.26,2.26,0,0,0,2.21,2.52A2.31,2.31,0,0,0,277,146.85Z" fill="#fff"/></g><g id="_H_R_Block_Online_prices_are_significantly_lower_than_TurboTa" data-name="&quot;[H&amp;R Block Online] prices are significantly lower than TurboTa"><path d="M21,38.91h4l-.5,6.53h-3Zm5,0h4l-.5,6.53h-3Z" fill="#fff"/><path d="M32.18,37.46h7.24v3.11h-3V56.29h3V59.4H32.18Z" fill="#fff"/><path d="M41.61,38.91H46.5v6.48h5.58V38.91H57v17H52.08V49.19H46.5v6.69H41.61Z" fill="#fff"/><path d="M73.24,52.42l2.83,3.46H70.54l-1-1.23A6.8,6.8,0,0,1,65,56.17c-3.61,0-6-1.9-6-5.13,0-2.18,1.33-3.8,3.72-4.94a5.44,5.44,0,0,1-1-3c0-2.89,2.47-4.44,5.46-4.44,2.71,0,5.15,1.36,5.15,4,0,1.85-1.09,3.2-3.39,4.2L71,49.47l1.24-2.42H76Zm-5.89-.5-2.68-3.23a2,2,0,0,0-1.14,1.83,2,2,0,0,0,2.16,2.11A2.24,2.24,0,0,0,67.35,51.92Zm-.52-6.84c1.14-.55,1.69-1.19,1.69-2.06a1.23,1.23,0,0,0-1.26-1.31,1.35,1.35,0,0,0-1.4,1.47A3.13,3.13,0,0,0,66.83,45.08Z" fill="#fff"/><path d="M77.62,38.91h6.64c4.44,0,6.91,1.8,6.91,5.39v.09a4.45,4.45,0,0,1-3.06,4.47l4.06,7H87L83.6,49.81H82.46v6.07H77.62ZM84,46.65c1.64,0,2.44-.69,2.44-2.07v-.09c0-1.38-.85-1.93-2.42-1.93H82.46v4.09Z" fill="#fff"/><path d="M98.14,38.91h7.57c4,0,5.72,1.8,5.72,4.44v.09a3.5,3.5,0,0,1-2.87,3.66,3.68,3.68,0,0,1,3.39,4v.1c0,3-2,4.72-6.17,4.72H98.14Zm6.6,6.74c1.52,0,2.09-.52,2.09-1.73v-.1c0-1.16-.62-1.68-2.09-1.68h-1.86v3.51Zm.16,7c1.55,0,2.26-.71,2.26-2v-.1c0-1.28-.69-1.94-2.4-1.94h-1.88v4Z" fill="#fff"/><path d="M113.64,38h4.23V55.88h-4.23Z" fill="#fff"/><path d="M119.49,49.83v-.19c0-4,3-6.51,6.81-6.51s6.77,2.45,6.77,6.39v.19c0,4-3,6.46-6.79,6.46S119.49,53.84,119.49,49.83Zm9.26-.07v-.19c0-2.09-.83-3.25-2.45-3.25s-2.47,1.11-2.47,3.2v.19c0,2.14.83,3.3,2.47,3.3S128.75,51.82,128.75,49.76Z" fill="#fff"/><path d="M133.9,49.83v-.19c0-4.13,3-6.51,6.63-6.51,3,0,5.84,1.33,6.08,5.11h-4a1.84,1.84,0,0,0-2-1.81c-1.49,0-2.37,1.07-2.37,3.16v.19c0,2.16.83,3.28,2.44,3.28A2.06,2.06,0,0,0,142.85,51h3.83c-.12,3.14-2.24,5.18-6.25,5.18C136.73,56.17,133.9,54,133.9,49.83Z" fill="#fff"/><path d="M148.06,38h4.25V48.38l3.35-4.91h4.41L156,49.05l4.39,6.83h-4.74l-3.35-5.43v5.43h-4.25Z" fill="#fff"/><path d="M165.21,47.5v-.19c0-5.17,3.89-8.64,9-8.64s9,3.25,9,8.52v.19c0,5.23-3.59,8.79-9.07,8.79S165.21,52.61,165.21,47.5Zm12.89,0v-.19c0-3-1.52-4.8-3.92-4.8s-3.89,1.73-3.89,4.82v.19c0,3.08,1.56,4.87,3.91,4.87S178.1,50.49,178.1,47.46Z" fill="#fff"/><path d="M184.82,43.47h4.25v2a4.4,4.4,0,0,1,4.09-2.33c2.39,0,4.06,1.5,4.06,4.68v8.07H193V48.67c0-1.4-.55-2.09-1.79-2.09s-2.11.76-2.11,2.35v7h-4.25Z" fill="#fff"/><path d="M199.4,38h4.23V55.88H199.4Z" fill="#fff"/><path d="M205.82,40.09a2.21,2.21,0,0,1,2.32-2.2,2.2,2.2,0,1,1,0,4.39A2.2,2.2,0,0,1,205.82,40.09Zm.21,3.38h4.25V55.88H206Z" fill="#fff"/><path d="M212.56,43.47h4.25v2a4.4,4.4,0,0,1,4.09-2.33c2.39,0,4.06,1.5,4.06,4.68v8.07h-4.25V48.67c0-1.4-.55-2.09-1.79-2.09s-2.11.76-2.11,2.35v7h-4.25Z" fill="#fff"/><path d="M226.36,49.83v-.19c0-4,3-6.51,6.72-6.51,3.39,0,6.32,1.95,6.32,6.41v1.12h-8.74a2.48,2.48,0,0,0,2.59,2.59c1.4,0,2-.64,2.16-1.47h4c-.38,2.8-2.55,4.39-6.3,4.39S226.36,53.89,226.36,49.83Zm8.9-1.57c-.07-1.49-.8-2.32-2.18-2.32a2.36,2.36,0,0,0-2.37,2.32Z" fill="#fff"/><path d="M240.3,56.29h2.95V40.57H240.3V37.46h7.22V59.4H240.3Z" fill="#fff"/><path d="M21.26,69.22h4.25v1.85a4.37,4.37,0,0,1,3.87-2.19c2.89,0,5.25,2.19,5.25,6.44v.19c0,4.27-2.36,6.41-5.28,6.41a4.1,4.1,0,0,1-3.84-2.11v6H21.26Zm9,6.29v-.19c0-2.19-.95-3.23-2.44-3.23s-2.47,1.12-2.47,3.2v.19c0,2.12.93,3.19,2.47,3.19S30.3,77.55,30.3,75.51Z" fill="#fff"/><path d="M36.17,69.22h4.25v2.47a3.92,3.92,0,0,1,4-2.64v4c-2.59-.08-4,.73-4,2.73v5.88H36.17Z" fill="#fff"/><path d="M45.89,65.84a2.21,2.21,0,0,1,2.32-2.2,2.2,2.2,0,1,1,0,4.39A2.2,2.2,0,0,1,45.89,65.84Zm.21,3.38h4.25V81.63H46.1Z" fill="#fff"/><path d="M52,75.58v-.19c0-4.13,3-6.51,6.62-6.51,3,0,5.84,1.33,6.08,5.11h-4a1.84,1.84,0,0,0-2-1.81c-1.5,0-2.38,1.07-2.38,3.16v.19c0,2.16.83,3.28,2.45,3.28a2.07,2.07,0,0,0,2.16-2.07h3.82c-.12,3.14-2.23,5.18-6.24,5.18C54.79,81.92,52,79.76,52,75.58Z" fill="#fff"/><path d="M65.46,75.58v-.19c0-4,3-6.51,6.72-6.51,3.39,0,6.31,2,6.31,6.41v1.12H69.75A2.48,2.48,0,0,0,72.34,79c1.4,0,2-.64,2.16-1.47h4c-.38,2.8-2.54,4.39-6.29,4.39S65.46,79.64,65.46,75.58ZM74.36,74c-.07-1.49-.81-2.32-2.18-2.32A2.36,2.36,0,0,0,69.8,74Z" fill="#fff"/><path d="M79.25,77.69h3.92c.14.9.55,1.4,1.76,1.4,1,0,1.52-.4,1.52-1s-.59-.88-2.3-1.11c-3.33-.43-4.73-1.4-4.73-4,0-2.76,2.45-4.09,5.32-4.09,3.06,0,5.2,1.05,5.48,4H86.38a1.4,1.4,0,0,0-1.59-1.24c-.93,0-1.4.41-1.4,1s.57.83,2.09,1c3.44.42,5.1,1.33,5.1,4,0,3-2.18,4.28-5.63,4.28S79.35,80.45,79.25,77.69Z" fill="#fff"/><path d="M95.57,78.19c0-2.92,2.47-4.06,6.6-4.06h1.19v-.28c0-1.19-.29-2-1.64-2A1.53,1.53,0,0,0,100,73.35h-4c.19-3,2.54-4.47,5.93-4.47s5.6,1.4,5.6,4.7v8h-4.13V80.19a4.07,4.07,0,0,1-3.68,1.73C97.54,81.92,95.57,80.83,95.57,78.19Zm7.79-.9v-.76h-1.12c-1.71,0-2.47.33-2.47,1.35,0,.71.48,1.17,1.48,1.17A1.87,1.87,0,0,0,103.36,77.29Z" fill="#fff"/><path d="M109.65,69.22h4.25v2.47a3.92,3.92,0,0,1,4-2.64v4c-2.59-.08-4,.73-4,2.73v5.88h-4.25Z" fill="#fff"/><path d="M118.68,75.58v-.19c0-4,3-6.51,6.72-6.51,3.39,0,6.31,2,6.31,6.41v1.12H123A2.48,2.48,0,0,0,125.56,79c1.41,0,2-.64,2.17-1.47h4c-.38,2.8-2.54,4.39-6.29,4.39S118.68,79.64,118.68,75.58Zm8.9-1.57c-.07-1.49-.8-2.32-2.18-2.32A2.37,2.37,0,0,0,123,74Z" fill="#fff"/><path d="M136.68,77.69h3.92c.14.9.55,1.4,1.76,1.4,1,0,1.52-.4,1.52-1s-.6-.88-2.31-1.11c-3.32-.43-4.72-1.4-4.72-4,0-2.76,2.44-4.09,5.32-4.09,3.06,0,5.2,1.05,5.48,4H143.8a1.38,1.38,0,0,0-1.59-1.24c-.92,0-1.4.41-1.4,1s.57.83,2.09,1c3.44.42,5.11,1.33,5.11,4,0,3-2.19,4.28-5.63,4.28S136.78,80.45,136.68,77.69Z" fill="#fff"/><path d="M149.29,65.84A2.35,2.35,0,1,1,151.62,68,2.22,2.22,0,0,1,149.29,65.84Zm.22,3.38h4.25V81.63h-4.25Z" fill="#fff"/><path d="M155.35,81.63h4.23c.19.91.73,1.62,2.27,1.62a2.35,2.35,0,0,0,2.64-2.61v-1.9A4.36,4.36,0,0,1,160.64,81c-2.89,0-5.27-2.14-5.27-6v-.19c0-3.66,2.35-6,5.27-6A4,4,0,0,1,164.49,71V69.22h4.25V80.59c0,3.7-2.45,5.65-6.89,5.65C157.63,86.24,155.68,84.46,155.35,81.63Zm9.26-6.6v-.16c0-1.71-.88-2.8-2.45-2.8s-2.44,1.11-2.44,2.82v.19c0,1.71.9,2.8,2.42,2.8S164.61,76.79,164.61,75Z" fill="#fff"/><path d="M170.91,69.22h4.25v2a4.37,4.37,0,0,1,4.08-2.33c2.4,0,4.06,1.5,4.06,4.68v8.07h-4.25V74.42c0-1.4-.55-2.09-1.78-2.09s-2.11.76-2.11,2.35v6.95h-4.25Z" fill="#fff"/><path d="M185.27,65.84A2.35,2.35,0,1,1,187.6,68,2.22,2.22,0,0,1,185.27,65.84Zm.22,3.38h4.25V81.63h-4.25Z" fill="#fff"/><path d="M192.66,72.11h-1.57V69.22h1.57v-1.1c0-3.08,1.92-4.55,4.87-4.55a7.23,7.23,0,0,1,1.94.26v3.11a3.65,3.65,0,0,0-1.16-.17,1.24,1.24,0,0,0-1.42,1.35v1.1h2.51v2.89h-2.51v9.52h-4.23Z" fill="#fff"/><path d="M200.73,65.84A2.35,2.35,0,1,1,203.06,68,2.22,2.22,0,0,1,200.73,65.84Zm.22,3.38h4.25V81.63H201Z" fill="#fff"/><path d="M206.81,75.58v-.19c0-4.13,3-6.51,6.63-6.51,3,0,5.84,1.33,6.08,5.11h-4a1.84,1.84,0,0,0-2-1.81c-1.49,0-2.37,1.07-2.37,3.16v.19c0,2.16.83,3.28,2.44,3.28a2.08,2.08,0,0,0,2.17-2.07h3.82c-.12,3.14-2.23,5.18-6.25,5.18C209.64,81.92,206.81,79.76,206.81,75.58Z" fill="#fff"/><path d="M220.33,78.19c0-2.92,2.47-4.06,6.6-4.06h1.19v-.28c0-1.19-.29-2-1.64-2a1.52,1.52,0,0,0-1.69,1.47h-4c.19-3,2.54-4.47,5.94-4.47s5.6,1.4,5.6,4.7v8h-4.13V80.19a4.08,4.08,0,0,1-3.68,1.73C222.3,81.92,220.33,80.83,220.33,78.19Zm7.79-.9v-.76H227c-1.71,0-2.47.33-2.47,1.35,0,.71.47,1.17,1.47,1.17A1.88,1.88,0,0,0,228.12,77.29Z" fill="#fff"/><path d="M234.41,69.22h4.25v2a4.4,4.4,0,0,1,4.09-2.33c2.39,0,4.05,1.5,4.05,4.68v8.07h-4.25V74.42c0-1.4-.54-2.09-1.78-2.09s-2.11.76-2.11,2.35v6.95h-4.25Z" fill="#fff"/><path d="M249.44,77.64V72.11H248V69.22h1.49V66.63h4.25v2.59h2.45v2.89h-2.45v5.13A1.14,1.14,0,0,0,255,78.55a3.07,3.07,0,0,0,1.21-.22v3.23a8.93,8.93,0,0,1-2.35.36C251,81.92,249.44,80.56,249.44,77.64Z" fill="#fff"/><path d="M257.88,63.76h4.22V81.63h-4.22Z" fill="#fff"/><path d="M268.28,80.38l-5-11.16h4.61l2.56,6.62,2.38-6.62h4.06l-6.65,16.57h-4.06Z" fill="#fff"/><path d="M21.38,89.51H25.6v17.87H21.38Z" fill="#fff"/><path d="M27.22,101.33v-.19c0-4,3-6.51,6.81-6.51S40.8,97.08,40.8,101v.19c0,4-3,6.46-6.79,6.46S27.22,105.34,27.22,101.33Zm9.26-.07v-.19c0-2.09-.83-3.25-2.45-3.25s-2.47,1.11-2.47,3.2v.19c0,2.14.84,3.3,2.47,3.3S36.48,103.32,36.48,101.26Z" fill="#fff"/><path d="M40.85,95h4.44l1.81,7.43L49.19,95H52.6l1.86,7.43,2-7.43h4l-3.94,12.41H52.51l-1.85-6.93-1.93,6.93H44.6Z" fill="#fff"/><path d="M60.4,101.33v-.19c0-4,3-6.51,6.72-6.51,3.39,0,6.31,2,6.31,6.41v1.12H64.7a2.47,2.47,0,0,0,2.58,2.59c1.4,0,2-.64,2.16-1.47h4c-.38,2.8-2.54,4.39-6.29,4.39S60.4,105.39,60.4,101.33Zm8.9-1.57c-.07-1.49-.81-2.32-2.18-2.32a2.36,2.36,0,0,0-2.38,2.32Z" fill="#fff"/><path d="M74.91,95h4.25v2.47a3.91,3.91,0,0,1,4-2.64v4c-2.59-.08-4,.73-4,2.73v5.88H74.91Z" fill="#fff"/><path d="M89.61,103.39V97.86h-1.5V95h1.5V92.38h4.25V95h2.45v2.89H93.86V103a1.14,1.14,0,0,0,1.26,1.31,3.11,3.11,0,0,0,1.21-.22v3.23a9,9,0,0,1-2.35.36C91.18,107.67,89.61,106.31,89.61,103.39Z" fill="#fff"/><path d="M97.92,89.51h4.25V97a4.4,4.4,0,0,1,4.09-2.33c2.39,0,4.06,1.5,4.06,4.68v8.07h-4.25v-7.21c0-1.4-.55-2.09-1.78-2.09s-2.12.76-2.12,2.35v6.95H97.92Z" fill="#fff"/><path d="M111.67,103.94c0-2.92,2.47-4.06,6.6-4.06h1.19V99.6c0-1.19-.28-2-1.64-2a1.51,1.51,0,0,0-1.68,1.47h-4c.19-3,2.54-4.47,5.93-4.47s5.61,1.4,5.61,4.7v8h-4.13v-1.44a4.1,4.1,0,0,1-3.68,1.73C113.64,107.67,111.67,106.58,111.67,103.94Zm7.79-.9v-.76h-1.11c-1.71,0-2.47.33-2.47,1.35,0,.71.47,1.17,1.47,1.17A1.87,1.87,0,0,0,119.46,103Z" fill="#fff"/><path d="M125.76,95H130v2a4.37,4.37,0,0,1,4.08-2.33c2.4,0,4.06,1.5,4.06,4.68v8.07H133.9v-7.21c0-1.4-.55-2.09-1.78-2.09s-2.11.76-2.11,2.35v6.95h-4.25Z" fill="#fff"/><path d="M148.18,94.16h-4.4V90.41h13.68v3.75h-4.39v13.22h-4.89Z" fill="#fff"/><path d="M157.84,103.06V95h4.25v7.4c0,1.4.55,2.09,1.76,2.09s2.11-.76,2.11-2.35V95h4.25v12.41H166v-1.92a4.07,4.07,0,0,1-3.94,2.21C159.62,107.67,157.84,106.2,157.84,103.06Z" fill="#fff"/><path d="M172.38,95h4.25v2.47a3.91,3.91,0,0,1,4-2.64v4c-2.59-.08-4,.73-4,2.73v5.88h-4.25Z" fill="#fff"/><path d="M186.44,105.46v1.92h-4.25V89.51h4.25v7.31a4.37,4.37,0,0,1,3.87-2.19c2.89,0,5.24,2.19,5.24,6.44v.19c0,4.27-2.35,6.41-5.27,6.41A4,4,0,0,1,186.44,105.46Zm4.79-4.2v-.19c0-2.19-.95-3.23-2.44-3.23s-2.47,1.12-2.47,3.2v.19c0,2.12.92,3.19,2.47,3.19S191.23,103.3,191.23,101.26Z" fill="#fff"/><path d="M196.44,101.33v-.19c0-4,3-6.51,6.81-6.51S210,97.08,210,101v.19c0,4-3,6.46-6.79,6.46S196.44,105.34,196.44,101.33Zm9.26-.07v-.19c0-2.09-.84-3.25-2.45-3.25s-2.47,1.11-2.47,3.2v.19c0,2.14.83,3.3,2.47,3.3S205.7,103.32,205.7,101.26Z" fill="#fff"/><path d="M215.15,94.16h-4.39V90.41h13.67v3.75H220v13.22h-4.89Z" fill="#fff"/><path d="M223.58,103.94c0-2.92,2.47-4.06,6.6-4.06h1.19V99.6c0-1.19-.29-2-1.64-2a1.51,1.51,0,0,0-1.68,1.47h-4c.19-3,2.54-4.47,5.93-4.47s5.61,1.4,5.61,4.7v8h-4.14v-1.44a4.06,4.06,0,0,1-3.67,1.73C225.55,107.67,223.58,106.58,223.58,103.94Zm7.79-.9v-.76h-1.12c-1.71,0-2.46.33-2.46,1.35,0,.71.47,1.17,1.47,1.17A1.87,1.87,0,0,0,231.37,103Z" fill="#fff"/><path d="M240.8,101.07,236.93,95h4.89l1.92,3.27L245.62,95H250l-3.92,5.77,4.3,6.64h-4.89l-2.21-3.7-2.26,3.7h-4.34Z" fill="#fff"/><path d="M251.23,105.25a2.37,2.37,0,0,1,2.42-2.4,2.4,2.4,0,1,1,0,4.79A2.36,2.36,0,0,1,251.23,105.25Z" fill="#fff"/><path d="M258,105.25a2.37,2.37,0,0,1,2.42-2.4,2.4,2.4,0,1,1,0,4.79A2.36,2.36,0,0,1,258,105.25Z" fill="#fff"/><path d="M264.72,105.25a2.37,2.37,0,0,1,2.42-2.4,2.4,2.4,0,1,1,0,4.79A2.36,2.36,0,0,1,264.72,105.25Z" fill="#fff"/><path d="M269.11,90.41h4l-.5,6.53h-3Zm5,0h4l-.5,6.53h-3Z" fill="#fff"/></g></g></g></svg>