<svg xmlns="http://www.w3.org/2000/svg" viewBox="0 0 1940 500"><title>Asset 2</title><rect width="1940" height="500" fill="none"/><path d="M562.7,141.84h50.55v16.63h-29v15.9h23.13v15.8H584.26v26.47H562.7Z" fill="#fff"/><path d="M618.58,147.07c0-5.55,4.39-9.73,10.25-9.73s10.36,4.18,10.36,9.73-4.5,9.62-10.36,9.62S618.58,152.61,618.58,147.07Zm.94,14.85h18.73v54.72H619.52Z" fill="#fff"/><path d="M648.82,137.86h18.63v78.78H648.82Z" fill="#fff"/><path d="M674.56,190v-.84c0-17.57,13.08-28.66,29.61-28.66,15,0,27.84,8.58,27.84,28.25v4.91H693.5c.52,7.22,4.71,11.4,11.41,11.4,6.17,0,8.79-2.82,9.52-6.48H732c-1.68,12.34-11.2,19.35-27.73,19.35C687.12,217.89,674.56,207.85,674.56,190Zm39.24-6.9c-.31-6.59-3.56-10.26-9.63-10.26-5.65,0-9.52,3.67-10.46,10.26Z" fill="#fff"/><path d="M760.36,174.69h-6.91V161.92h6.91v-4.81c0-13.6,8.48-20.08,21.45-20.08a33.24,33.24,0,0,1,8.58,1.15v13.7a17.12,17.12,0,0,0-5.12-.73c-4.4,0-6.28,2.4-6.28,6v4.81h11.09v12.77H779v41.95H760.36Z" fill="#fff"/><path d="M791.54,190v-.84c0-17.57,13.08-28.66,30-28.66s29.83,10.77,29.83,28.14v.84c0,17.78-13.08,28.45-29.93,28.45S791.54,207.64,791.54,190Zm40.81-.31v-.84c0-9.21-3.66-14.33-10.78-14.33s-10.88,4.91-10.88,14.12v.84c0,9.41,3.66,14.54,10.88,14.54C828.58,204,832.35,198.75,832.35,189.65Z" fill="#fff"/><path d="M858,161.92h18.73V172.8c3.45-8.16,9.21-11.71,17.68-11.61v17.47c-11.4-.31-17.68,3.25-17.68,12v25.95H858Z" fill="#fff"/><path d="M920.24,161.92H939v8.79c2.93-5.65,8.9-10.25,18-10.25,10.57,0,17.9,6.59,17.9,20.61v35.57H956.14V184.83c0-6.17-2.41-9.2-7.85-9.2S939,179,939,186v30.65H920.24Z" fill="#fff"/><path d="M980.83,201.47c0-12.87,10.88-17.89,29.09-17.89h5.23v-1.26c0-5.23-1.25-8.68-7.22-8.68-5.13,0-7,3-7.43,6.49H982.92c.84-13.18,11.2-19.67,26.16-19.67s24.7,6.17,24.7,20.71v35.47h-18.21v-6.38c-2.61,4-7.43,7.63-16.22,7.63C989.51,217.89,980.83,213.08,980.83,201.47Zm34.32-4v-3.34h-4.92c-7.53,0-10.88,1.46-10.88,6,0,3.14,2.09,5.12,6.49,5.12C1011.18,205.23,1015.15,202.2,1015.15,197.49Z" fill="#fff"/><path d="M1040.16,189.86V189c0-18.62,10.25-28.56,23.23-28.56,8.58,0,13.7,3.66,16.84,9.21V137.86H1099v78.78h-18.74v-8.89c-2.72,5.64-8.79,10.14-17,10.14C1050.52,217.89,1040.16,208.79,1040.16,189.86Zm40.6-.32v-.83c0-9.21-3.87-14.13-10.78-14.13s-10.78,4.71-10.78,14.23v.84c0,9.2,4.08,13.91,10.57,13.91C1076.57,203.56,1080.76,198.85,1080.76,189.54Z" fill="#fff"/><path d="M1105.35,201.47c0-12.87,10.88-17.89,29.09-17.89h5.23v-1.26c0-5.23-1.26-8.68-7.22-8.68-5.13,0-7,3-7.43,6.49h-17.58c.84-13.18,11.19-19.67,26.16-19.67s24.7,6.17,24.7,20.71v35.47h-18.21v-6.38c-2.62,4-7.43,7.63-16.22,7.63C1114,217.89,1105.35,213.08,1105.35,201.47Zm34.32-4v-3.34h-4.92c-7.53,0-10.88,1.46-10.88,6,0,3.14,2.09,5.12,6.49,5.12C1135.69,205.23,1139.67,202.2,1139.67,197.49Z" fill="#fff"/><path d="M1163.52,225.11l8.79-27.51,17.37,6.17-15.07,25.63Z" fill="#fff"/><path d="M1212.39,214.75l24-38.7H1214.9V161.92h48.24v2l-24.59,38.6h23.33v14.13h-49.49Z" fill="#fff"/><path d="M1268.05,147.07c0-5.55,4.4-9.73,10.26-9.73s10.36,4.18,10.36,9.73-4.5,9.62-10.36,9.62S1268.05,152.61,1268.05,147.07Zm1,14.85h18.73v54.72H1269Z" fill="#fff"/><path d="M1297.77,161.92h18.73v8.16a19.32,19.32,0,0,1,17.06-9.62c12.77,0,23.12,9.62,23.12,28.35v.84c0,18.83-10.35,28.24-23.23,28.24-8.26,0-14.23-3.87-17-9.31v26.36h-18.73Zm39.87,27.73v-.84c0-9.62-4.19-14.23-10.78-14.23-6.8,0-10.88,4.92-10.88,14.13v.83c0,9.31,4.08,14,10.88,14C1333.87,203.56,1337.64,198.64,1337.64,189.65Z" fill="#fff"/><path d="M1358.25,225.11,1367,197.6l17.37,6.17-15.07,25.63Z" fill="#fff"/><path d="M1407.12,214.75l24-38.7h-21.45V161.92h48.24v2l-24.59,38.6h23.33v14.13h-49.49Z" fill="#fff"/><path d="M1459.43,190v-.84c0-17.57,13.08-28.66,29.62-28.66,15,0,27.83,8.58,27.83,28.25v4.91h-38.51c.53,7.22,4.71,11.4,11.41,11.4,6.17,0,8.79-2.82,9.52-6.48h17.58c-1.67,12.34-11.19,19.35-27.73,19.35C1472,217.89,1459.43,207.85,1459.43,190Zm39.25-6.9c-.32-6.59-3.56-10.26-9.63-10.26-5.65,0-9.52,3.67-10.47,10.26Z" fill="#fff"/><path d="M1523.37,161.92h18.73V172.8c3.45-8.16,9.21-11.71,17.68-11.61v17.47c-11.4-.31-17.68,3.25-17.68,12v25.95h-18.73Z" fill="#fff"/><path d="M1563.13,190v-.84c0-17.57,13.08-28.66,30-28.66S1623,171.23,1623,188.6v.84c0,17.78-13.08,28.45-29.93,28.45S1563.13,207.64,1563.13,190Zm40.81-.31v-.84c0-9.21-3.66-14.33-10.78-14.33s-10.88,4.91-10.88,14.12v.84c0,9.41,3.66,14.54,10.88,14.54C1600.17,204,1603.94,198.75,1603.94,189.65Z" fill="#fff"/><path d="M1626.54,207.22a10.43,10.43,0,0,1,10.67-10.56,10.57,10.57,0,1,1,0,21.13A10.43,10.43,0,0,1,1626.54,207.22Z" fill="#fff"/><path d="M562.7,257.32h50.55V274h-29v15.9h23.13v15.8H584.26v26.47H562.7Z" fill="#fff"/><path d="M618.26,277.41H637v10.88c3.45-8.17,9.2-11.72,17.68-11.62v17.47c-11.41-.31-17.68,3.25-17.68,12v25.95H618.26Z" fill="#fff"/><path d="M658,305.44v-.84c0-17.57,13.08-28.66,29.61-28.66,15,0,27.84,8.58,27.84,28.25v4.91H677c.52,7.22,4.71,11.41,11.4,11.41,6.18,0,8.79-2.83,9.53-6.49h17.58c-1.68,12.34-11.2,19.35-27.73,19.35C670.58,333.37,658,323.33,658,305.44Zm39.24-6.9c-.32-6.59-3.56-10.25-9.63-10.25-5.65,0-9.52,3.66-10.46,10.25Z" fill="#fff"/><path d="M719,305.44v-.84c0-17.57,13.08-28.66,29.61-28.66,15,0,27.84,8.58,27.84,28.25v4.91H738c.52,7.22,4.71,11.41,11.41,11.41,6.17,0,8.79-2.83,9.52-6.49h17.58c-1.67,12.34-11.2,19.35-27.73,19.35C731.59,333.37,719,323.33,719,305.44Zm39.24-6.9c-.31-6.59-3.56-10.25-9.63-10.25-5.65,0-9.52,3.66-10.46,10.25Z" fill="#fff"/><path d="M803.68,257.32h50.54V274h-29v15.9h23.12v15.8H825.24v26.47H803.68Z" fill="#fff"/><path d="M855.68,305.44v-.84c0-17.57,13.08-28.66,29.62-28.66,15,0,27.83,8.58,27.83,28.25v4.91H874.62c.53,7.22,4.71,11.41,11.41,11.41,6.18,0,8.79-2.83,9.52-6.49h17.58c-1.67,12.34-11.19,19.35-27.73,19.35C868.24,333.37,855.68,323.33,855.68,305.44Zm39.25-6.9c-.32-6.59-3.56-10.25-9.63-10.25-5.65,0-9.52,3.66-10.47,10.25Z" fill="#fff"/><path d="M916.9,305.34v-.84c0-18.62,10.25-28.56,23.23-28.56,8.58,0,13.71,3.66,16.85,9.21V253.34h18.73v78.78H957v-8.89c-2.73,5.65-8.79,10.14-17.06,10.14C927.26,333.37,916.9,324.27,916.9,305.34Zm40.6-.32v-.83c0-9.21-3.87-14.13-10.78-14.13s-10.78,4.71-10.78,14.23v.84c0,9.2,4.08,13.91,10.57,13.91C953.31,319,957.5,314.33,957.5,305Z" fill="#fff"/><path d="M982.29,305.44v-.84c0-17.57,13.08-28.66,29.62-28.66,15,0,27.83,8.58,27.83,28.25v4.91h-38.51c.53,7.22,4.71,11.41,11.41,11.41,6.17,0,8.79-2.83,9.52-6.49h17.58c-1.67,12.34-11.19,19.35-27.73,19.35C994.85,333.37,982.29,323.33,982.29,305.44Zm39.25-6.9c-.32-6.59-3.56-10.25-9.63-10.25-5.65,0-9.52,3.66-10.47,10.25Z" fill="#fff"/><path d="M1046.23,277.41H1065v10.88c3.45-8.17,9.21-11.72,17.68-11.62v17.47c-11.4-.31-17.68,3.25-17.68,12v25.95h-18.73Z" fill="#fff"/><path d="M1085.05,317c0-12.87,10.88-17.89,29.09-17.89h5.23V297.8c0-5.23-1.25-8.68-7.22-8.68-5.13,0-7,3-7.43,6.49h-17.58c.84-13.18,11.2-19.67,26.16-19.67s24.7,6.17,24.7,20.71v35.47h-18.21v-6.38c-2.62,4-7.43,7.63-16.22,7.63C1093.73,333.37,1085.05,328.56,1085.05,317Zm34.32-4v-3.34h-4.92c-7.53,0-10.88,1.46-10.88,6,0,3.14,2.09,5.12,6.49,5.12C1115.39,320.71,1119.37,317.68,1119.37,313Z" fill="#fff"/><path d="M1147.62,253.34h18.63v78.78h-18.63Z" fill="#fff"/><path d="M1175.56,322.7a10.43,10.43,0,0,1,10.67-10.56,10.57,10.57,0,1,1,0,21.13A10.43,10.43,0,0,1,1175.56,322.7Z" fill="#fff"/><path d="M1226.72,257.32h50.55V274h-29v15.9h23.13v15.8h-23.13v26.47h-21.56Z" fill="#fff"/><path d="M1282.29,277.41H1301v10.88c3.45-8.17,9.21-11.72,17.68-11.62v17.47c-11.4-.31-17.68,3.25-17.68,12v25.95h-18.73Z" fill="#fff"/><path d="M1322.05,305.44v-.84c0-17.57,13.08-28.66,29.61-28.66,15,0,27.84,8.58,27.84,28.25v4.91H1341c.52,7.22,4.71,11.41,11.4,11.41,6.18,0,8.79-2.83,9.53-6.49h17.58c-1.68,12.34-11.2,19.35-27.73,19.35C1334.61,333.37,1322.05,323.33,1322.05,305.44Zm39.24-6.9c-.31-6.59-3.56-10.25-9.63-10.25-5.65,0-9.52,3.66-10.46,10.25Z" fill="#fff"/><path d="M1383.05,305.44v-.84c0-17.57,13.08-28.66,29.62-28.66,15,0,27.83,8.58,27.83,28.25v4.91H1402c.52,7.22,4.71,11.41,11.41,11.41,6.17,0,8.79-2.83,9.52-6.49h17.58c-1.67,12.34-11.2,19.35-27.73,19.35C1395.61,333.37,1383.05,323.33,1383.05,305.44Zm39.24-6.9c-.31-6.59-3.56-10.25-9.62-10.25-5.66,0-9.53,3.66-10.47,10.25Z" fill="#fff"/><path d="M1462.89,308.37h20.4c.53,5.34,2.93,9.73,11.83,9.73,6.17,0,9.63-3,9.63-7.43,0-4.6-2.83-5.86-11.83-7.22-21.14-2.51-28.25-8.78-28.25-23.85,0-13.49,11.09-23.33,29-23.33s28.15,7.53,29.51,23.33h-19.88c-.73-5.33-3.77-8.05-9.63-8.05s-8.68,2.61-8.68,6.38c0,4.18,2.3,6.07,11.61,7.32,18.94,2.09,28.68,7,28.68,23.23,0,13.7-10.89,24.89-30.14,24.89C1474.19,333.37,1463.52,324.59,1462.89,308.37Z" fill="#fff"/><path d="M1534.67,314.54V290.17h-6.6V277.41h6.6V266h18.73v11.41h10.78v12.76H1553.4v22.59c0,4,2,5.76,5.54,5.76a14.4,14.4,0,0,0,5.34-.94V331.8a39.13,39.13,0,0,1-10.36,1.57C1541.57,333.37,1534.67,327.41,1534.67,314.54Z" fill="#fff"/><path d="M1568.36,317c0-12.87,10.88-17.89,29.09-17.89h5.23V297.8c0-5.23-1.25-8.68-7.22-8.68-5.13,0-7,3-7.43,6.49h-17.58c.84-13.18,11.2-19.67,26.16-19.67s24.7,6.17,24.7,20.71v35.47H1603.1v-6.38c-2.61,4-7.43,7.63-16.22,7.63C1577,333.37,1568.36,328.56,1568.36,317Zm34.32-4v-3.34h-4.92c-7.53,0-10.88,1.46-10.88,6,0,3.14,2.09,5.12,6.49,5.12C1598.71,320.71,1602.68,317.68,1602.68,313Z" fill="#fff"/><path d="M1632.61,314.54V290.17H1626V277.41h6.6V266h18.73v11.41h10.78v12.76h-10.78v22.59c0,4,2,5.76,5.54,5.76a14.4,14.4,0,0,0,5.34-.94V331.8a39.13,39.13,0,0,1-10.36,1.57C1639.51,333.37,1632.61,327.41,1632.61,314.54Z" fill="#fff"/><path d="M1666.3,305.44v-.84c0-17.57,13.08-28.66,29.61-28.66,15,0,27.84,8.58,27.84,28.25v4.91h-38.51c.52,7.22,4.71,11.41,11.41,11.41,6.17,0,8.79-2.83,9.52-6.49h17.58c-1.67,12.34-11.2,19.35-27.73,19.35C1678.86,333.37,1666.3,323.33,1666.3,305.44Zm39.24-6.9c-.31-6.59-3.56-10.25-9.63-10.25-5.65,0-9.52,3.66-10.46,10.25Z" fill="#fff"/><path d="M1729,322.7a10.43,10.43,0,0,1,10.67-10.56,10.57,10.57,0,1,1,0,21.13A10.43,10.43,0,0,1,1729,322.7Z" fill="#fff"/></svg>