<svg xmlns="http://www.w3.org/2000/svg" viewBox="0 0 320 1200"><title>txt</title><g id="Layer_2" data-name="Layer 2"><g id="Easily_the_easiest_way_to_do_your_own_taxes." data-name="Easily the easiest way to do your own taxes."><path d="M44.67,199.9H70.93v8.4H55.51v6.54H67.79v7.76H55.51v6.92H71.78v8.4H44.67Z" fill="#13aa40"/><path d="M74,230.21c0-6.54,5.53-9.1,14.78-9.1H91.4v-.63c0-2.66-.64-4.42-3.67-4.42a3.41,3.41,0,0,0-3.77,3.3H75c.42-6.7,5.68-10,13.29-10s12.54,3.14,12.54,10.53v18H91.61v-3.25c-1.33,2-3.77,3.89-8.24,3.89C78.38,238.56,74,236.11,74,230.21Zm17.44-2v-1.71H88.9c-3.83,0-5.53.75-5.53,3,0,1.59,1.07,2.6,3.3,2.6C89.38,232.12,91.4,230.58,91.4,228.19Z" fill="#13aa40"/><path d="M103.63,229.09h8.77c.32,2,1.22,3.14,3.93,3.14,2.34,0,3.41-.91,3.41-2.29s-1.33-2-5.16-2.5c-7.44-1-10.58-3.14-10.58-8.93,0-6.17,5.48-9.15,11.91-9.15,6.86,0,11.64,2.34,12.28,9h-8.61c-.37-1.86-1.38-2.77-3.56-2.77s-3.14.91-3.14,2.18,1.28,1.86,4.68,2.29c7.71,1,11.43,3,11.43,8.93,0,6.6-4.89,9.58-12.6,9.58C108.47,238.56,103.84,235.26,103.63,229.09Z" fill="#13aa40"/><path d="M131.86,202.55a5.25,5.25,0,1,1,5.21,4.9A5,5,0,0,1,131.86,202.55Zm.48,7.56h9.51v27.81h-9.51Z" fill="#13aa40"/><path d="M147.23,197.88h9.46v40h-9.46Z" fill="#13aa40"/><path d="M170.51,235.1l-11.11-25h10.31l5.75,14.83,5.31-14.83h9.09L175,247.22h-9.09Z" fill="#13aa40"/><path d="M203.26,229V216.59h-3.35v-6.48h3.35v-5.8h9.52v5.8h5.47v6.48h-5.47v11.49c0,2,1,2.92,2.82,2.92a7.44,7.44,0,0,0,2.71-.47v7.23a20,20,0,0,1-5.27.8C206.77,238.56,203.26,235.52,203.26,229Z" fill="#13aa40"/><path d="M221.87,197.88h9.52v16.69a9.82,9.82,0,0,1,9.14-5.21c5.37,0,9.09,3.35,9.09,10.48v18.08H240.1V221.75c0-3.14-1.22-4.68-4-4.68s-4.73,1.7-4.73,5.27v15.58h-9.52Z" fill="#13aa40"/><path d="M252.76,224.36v-.43c0-8.93,6.65-14.57,15-14.57,7.61,0,14.15,4.36,14.15,14.36v2.5H262.38c.27,3.67,2.39,5.79,5.8,5.79,3.13,0,4.46-1.43,4.83-3.29H282c-.86,6.27-5.69,9.84-14.09,9.84C259.14,238.56,252.76,233.45,252.76,224.36Zm19.94-3.51c-.16-3.35-1.81-5.21-4.9-5.21-2.87,0-4.83,1.86-5.31,5.21Z" fill="#13aa40"/><path d="M42.33,279.21v-.43c0-8.93,6.64-14.57,15-14.57,7.61,0,14.14,4.36,14.14,14.36v2.5H52c.27,3.67,2.39,5.8,5.8,5.8,3.13,0,4.46-1.44,4.83-3.3h8.93c-.85,6.28-5.68,9.84-14.08,9.84C48.71,293.41,42.33,288.3,42.33,279.21Zm19.93-3.51c-.16-3.35-1.8-5.21-4.89-5.21-2.87,0-4.83,1.86-5.31,5.21Z" fill="#13aa40"/><path d="M73.48,285.06c0-6.54,5.53-9.09,14.78-9.09h2.66v-.64c0-2.66-.64-4.42-3.67-4.42a3.42,3.42,0,0,0-3.77,3.3H74.55c.42-6.7,5.69-10,13.29-10s12.54,3.14,12.54,10.53v18H91.13v-3.24c-1.33,2-3.77,3.88-8.24,3.88C77.9,293.41,73.48,291,73.48,285.06Zm17.44-2v-1.7h-2.5c-3.83,0-5.53.74-5.53,3,0,1.59,1.07,2.6,3.3,2.6C88.9,287,90.92,285.43,90.92,283Z" fill="#13aa40"/><path d="M103.15,283.94h8.77c.32,2,1.22,3.14,3.94,3.14,2.33,0,3.4-.9,3.4-2.29s-1.33-2-5.16-2.5c-7.44-1-10.58-3.13-10.58-8.93,0-6.17,5.48-9.15,11.91-9.15,6.86,0,11.64,2.34,12.28,9H119.1c-.37-1.86-1.38-2.76-3.56-2.76s-3.14.9-3.14,2.18,1.28,1.86,4.68,2.28c7.71,1,11.43,3,11.43,8.94,0,6.59-4.89,9.57-12.6,9.57C108,293.41,103.36,290.11,103.15,283.94Z" fill="#13aa40"/><path d="M131.38,257.41a5.25,5.25,0,1,1,5.21,4.89A5,5,0,0,1,131.38,257.41Zm.48,7.55h9.52v27.81h-9.52Z" fill="#13aa40"/><path d="M145,279.21v-.43c0-8.93,6.65-14.57,15-14.57,7.6,0,14.14,4.36,14.14,14.36v2.5H154.61c.27,3.67,2.4,5.8,5.8,5.8,3.14,0,4.47-1.44,4.84-3.3h8.93c-.85,6.28-5.69,9.84-14.09,9.84C151.37,293.41,145,288.3,145,279.21Zm19.94-3.51c-.16-3.35-1.81-5.21-4.89-5.21-2.87,0-4.84,1.86-5.32,5.21Z" fill="#13aa40"/><path d="M175.88,283.94h8.77c.32,2,1.23,3.14,3.94,3.14,2.34,0,3.4-.9,3.4-2.29s-1.33-2-5.16-2.5c-7.44-1-10.58-3.13-10.58-8.93,0-6.17,5.48-9.15,11.91-9.15,6.86,0,11.64,2.34,12.28,9h-8.61c-.37-1.86-1.38-2.76-3.56-2.76s-3.14.9-3.14,2.18,1.28,1.86,4.68,2.28c7.71,1,11.43,3,11.43,8.94,0,6.59-4.89,9.57-12.6,9.57C180.72,293.41,176.09,290.11,175.88,283.94Z" fill="#13aa40"/><path d="M205.6,283.84V271.45h-3.35V265h3.35v-5.8h9.52V265h5.47v6.49h-5.47v11.48c0,2,1,2.93,2.81,2.93a7.2,7.2,0,0,0,2.71-.48v7.23a19.81,19.81,0,0,1-5.26.8C209.11,293.41,205.6,290.38,205.6,283.84Z" fill="#13aa40"/><path d="M41.48,319.81h9.94l4,16.65,4.68-16.65h7.65l4.15,16.65,4.52-16.65h9l-8.83,27.81H67.58l-4.15-15.53-4.3,15.53H49.88Z" fill="#13aa40"/><path d="M85.29,339.91c0-6.54,5.53-9.09,14.78-9.09h2.65v-.64c0-2.66-.63-4.41-3.66-4.41a3.41,3.41,0,0,0-3.78,3.29H86.35c.43-6.7,5.69-10,13.29-10s12.55,3.13,12.55,10.53v18h-9.25v-3.24c-1.33,2-3.78,3.88-8.24,3.88C89.7,348.26,85.29,345.81,85.29,339.91Zm17.43-2v-1.7h-2.49c-3.83,0-5.53.74-5.53,3,0,1.6,1.06,2.61,3.29,2.61C100.7,341.83,102.72,340.28,102.72,337.89Z" fill="#13aa40"/><path d="M124.58,344.8l-11.11-25h10.31l5.74,14.84,5.32-14.84h9.09L129,356.93H120Z" fill="#13aa40"/><path d="M157.33,338.69V326.3H154v-6.49h3.35V314h9.51v5.8h5.48v6.49h-5.48v11.48c0,2,1,2.93,2.82,2.93a7.23,7.23,0,0,0,2.71-.48v7.23a19.88,19.88,0,0,1-5.26.8C160.84,348.26,157.33,345.23,157.33,338.69Z" fill="#13aa40"/><path d="M174.45,334.06v-.42c0-8.94,6.64-14.57,15.25-14.57s15.15,5.47,15.15,14.3v.43c0,9-6.64,14.46-15.2,14.46S174.45,343.05,174.45,334.06Zm20.73-.16v-.42c0-4.68-1.86-7.29-5.48-7.29s-5.53,2.5-5.53,7.18v.43c0,4.78,1.87,7.39,5.53,7.39S195.18,338.53,195.18,333.9Z" fill="#13aa40"/><path d="M216.5,334v-.43c0-9.46,5.21-14.51,11.8-14.51,4.36,0,7,1.86,8.56,4.68V307.58h9.52v40h-9.52V343.1a9.36,9.36,0,0,1-8.66,5.16C221.76,348.26,216.5,343.63,216.5,334Zm20.63-.16v-.43c0-4.68-2-7.17-5.48-7.17s-5.47,2.39-5.47,7.23v.42c0,4.68,2.07,7.08,5.37,7.08S237.13,338.58,237.13,333.85Z" fill="#13aa40"/><path d="M249.73,334.06v-.42c0-8.94,6.65-14.57,15.26-14.57s15.15,5.47,15.15,14.3v.43c0,9-6.65,14.46-15.21,14.46S249.73,343.05,249.73,334.06Zm20.73-.16v-.42c0-4.68-1.86-7.29-5.47-7.29s-5.53,2.5-5.53,7.18v.43c0,4.78,1.86,7.39,5.53,7.39S270.46,338.53,270.46,333.9Z" fill="#13aa40"/><path d="M52.54,399.66l-11.11-25H51.74l5.74,14.84,5.32-14.84h9.09L57,411.78H47.91Z" fill="#13aa40"/><path d="M71.36,388.92v-.43c0-8.93,6.64-14.57,15.25-14.57s15.16,5.48,15.16,14.3v.43c0,9-6.65,14.46-15.21,14.46S71.36,397.9,71.36,388.92Zm20.73-.16v-.43c0-4.68-1.86-7.29-5.48-7.29s-5.52,2.5-5.52,7.18v.43c0,4.79,1.86,7.39,5.52,7.39S92.09,393.38,92.09,388.76Z" fill="#13aa40"/><path d="M104.9,392.8V374.66h9.52v16.59c0,3.14,1.22,4.68,3.93,4.68,2.88,0,4.74-1.7,4.74-5.26v-16h9.51v27.82h-9.51v-4.31c-1.49,2.87-4.2,4.94-8.83,4.94C108.89,403.11,104.9,399.82,104.9,392.8Z" fill="#13aa40"/><path d="M137.44,374.66H147v5.53c1.75-4.14,4.68-5.95,9-5.9v8.88c-5.79-.16-9,1.65-9,6.12v13.19h-9.52Z" fill="#13aa40"/><path d="M167.59,388.92v-.43c0-8.93,6.64-14.57,15.26-14.57S198,379.4,198,388.22v.43c0,9-6.65,14.46-15.21,14.46S167.59,397.9,167.59,388.92Zm20.73-.16v-.43c0-4.68-1.86-7.29-5.47-7.29s-5.53,2.5-5.53,7.18v.43c0,4.79,1.86,7.39,5.53,7.39S188.32,393.38,188.32,388.76Z" fill="#13aa40"/><path d="M198.1,374.66h10l4,16.65,4.67-16.65h7.66l4.15,16.65,4.51-16.65h9l-8.82,27.82h-9.09L220.06,387l-4.31,15.53H206.5Z" fill="#13aa40"/><path d="M244.57,374.66h9.52v4.47a9.82,9.82,0,0,1,9.14-5.21c5.37,0,9.09,3.35,9.09,10.48v18.08h-9.51V386.31c0-3.14-1.23-4.68-4-4.68s-4.73,1.7-4.73,5.26v15.59h-9.52Z" fill="#13aa40"/><path d="M45.09,448.39V436H41.74v-6.48h3.35v-5.8h9.52v5.8h5.47V436H54.61v11.49c0,2,1,2.92,2.82,2.92a7.44,7.44,0,0,0,2.71-.47v7.23a19.88,19.88,0,0,1-5.26.8C48.6,458,45.09,454.93,45.09,448.39Z" fill="#13aa40"/><path d="M62.21,449.62c0-6.54,5.53-9.1,14.78-9.1h2.66v-.63c0-2.66-.64-4.42-3.67-4.42a3.41,3.41,0,0,0-3.77,3.3H63.28c.42-6.7,5.68-10,13.29-10s12.54,3.14,12.54,10.53v18H79.86v-3.25c-1.33,2-3.77,3.89-8.24,3.89C66.63,458,62.21,455.52,62.21,449.62Zm17.44-2v-1.71h-2.5c-3.83,0-5.53.75-5.53,3,0,1.59,1.07,2.6,3.3,2.6C77.63,451.53,79.65,450,79.65,447.6Z" fill="#13aa40"/><path d="M100.76,443.18l-8.67-13.66h11l4.31,7.33,4.2-7.33h9.78l-8.77,12.92,9.62,14.89h-11l-4.94-8.3-5.05,8.3H91.51Z" fill="#13aa40"/><path d="M121,443.77v-.43c0-8.93,6.65-14.57,15-14.57,7.6,0,14.14,4.36,14.14,14.36v2.5H130.58c.27,3.67,2.4,5.79,5.8,5.79,3.13,0,4.46-1.43,4.84-3.29h8.93c-.85,6.27-5.69,9.84-14.09,9.84C127.34,458,121,452.86,121,443.77Zm19.94-3.51c-.16-3.35-1.81-5.21-4.89-5.21-2.88,0-4.84,1.86-5.32,5.21Z" fill="#13aa40"/><path d="M151.85,448.5h8.77c.32,2,1.22,3.14,3.94,3.14,2.33,0,3.4-.91,3.4-2.29s-1.33-2-5.16-2.5c-7.44-1-10.58-3.14-10.58-8.93,0-6.17,5.48-9.15,11.91-9.15,6.86,0,11.64,2.34,12.28,9H167.8c-.37-1.86-1.38-2.77-3.56-2.77s-3.14.91-3.14,2.18,1.28,1.86,4.68,2.29c7.71,1,11.43,3,11.43,8.93,0,6.6-4.89,9.58-12.6,9.58C156.69,458,152.06,454.67,151.85,448.5Z" fill="#13aa40"/><path d="M179.92,452.54a5.3,5.3,0,0,1,5.42-5.37,5.37,5.37,0,1,1,0,10.74A5.3,5.3,0,0,1,179.92,452.54Z" fill="#13aa40"/><rect width="320" height="1200" fill="none"/></g></g></svg>