<svg xmlns="http://www.w3.org/2000/svg" viewBox="0 0 300 600"><title>legal</title><g id="Layer_2" data-name="Layer 2"><g id="Optional_loan_from_Axos_Bank_._Not_your_tax_refund." data-name="Optional loan from Axos Bank®. Not your tax refund."><path d="M20.5,465v-.08a3.16,3.16,0,1,1,6.31,0v.07a3.16,3.16,0,1,1-6.31,0Zm5.5,0v-.07a2.37,2.37,0,0,0-2.34-2.61,2.34,2.34,0,0,0-2.35,2.62v.08a2.42,2.42,0,0,0,2.37,2.62A2.35,2.35,0,0,0,26,464.92Z" fill="#fff"/><path d="M27.92,463.42h.75v.79a1.94,1.94,0,0,1,1.59-.88,2.14,2.14,0,0,1,2.14,2.37v.07a2.17,2.17,0,0,1-2.14,2.43,1.78,1.78,0,0,1-1.59-.85v2.41h-.75Zm3.71,2.39v-.07c0-1.19-.66-1.78-1.45-1.78s-1.54.57-1.54,1.78v.07c0,1.21.63,1.77,1.55,1.77S31.63,467,31.63,465.81Z" fill="#fff"/><path d="M33.59,466.94V464h-.67v-.62h.67v-1.08h.75v1.08h1.1V464h-1.1v2.83c0,.46.2.69.58.69a1.59,1.59,0,0,0,.58-.1v.63a1.85,1.85,0,0,1-.64.1A1.15,1.15,0,0,1,33.59,466.94Z" fill="#fff"/><path d="M36.37,461.94a.51.51,0,0,1,.5-.5.5.5,0,0,1,.49.5.49.49,0,0,1-.49.49A.5.5,0,0,1,36.37,461.94Zm.14,1.48h.74v4.7h-.74Z" fill="#fff"/><path d="M38.3,465.81v-.07a2.31,2.31,0,1,1,4.62,0v.07a2.31,2.31,0,1,1-4.62,0Zm3.85,0v-.06c0-1.09-.6-1.79-1.54-1.79a1.56,1.56,0,0,0-1.54,1.78v.07a1.55,1.55,0,1,0,3.08,0Z" fill="#fff"/><path d="M44,463.42h.75v.74a1.6,1.6,0,0,1,1.51-.83c1,0,1.66.53,1.66,1.9v2.89h-.75v-2.94c0-.83-.35-1.2-1.11-1.2a1.24,1.24,0,0,0-1.31,1.29v2.85H44Z" fill="#fff"/><path d="M48.81,466.82c0-1.09,1.15-1.46,2.36-1.46h.67V465c0-.75-.29-1.06-1-1.06s-1,.26-1.08.84H49a1.65,1.65,0,0,1,1.86-1.47A1.52,1.52,0,0,1,52.59,465v3.1h-.75v-.59a1.68,1.68,0,0,1-1.46.67C49.5,468.2,48.81,467.78,48.81,466.82Zm3-.34v-.59h-.65c-.94,0-1.63.23-1.63.93,0,.48.23.79.89.79S51.84,467.21,51.84,466.48Z" fill="#fff"/><path d="M53.94,461.16h.75v7h-.75Z" fill="#fff"/><path d="M58.36,461.16h.75v7h-.75Z" fill="#fff"/><path d="M60.16,465.81v-.07a2.32,2.32,0,1,1,4.63,0v.07a2.32,2.32,0,1,1-4.63,0Zm3.85,0v-.06c0-1.09-.6-1.79-1.54-1.79a1.56,1.56,0,0,0-1.54,1.78v.07a1.55,1.55,0,1,0,3.08,0Z" fill="#fff"/><path d="M65.42,466.82c0-1.09,1.15-1.46,2.36-1.46h.68V465c0-.75-.29-1.06-1-1.06s-1,.26-1.08.84h-.75a1.65,1.65,0,0,1,1.86-1.47A1.52,1.52,0,0,1,69.2,465v3.1h-.74v-.59a1.7,1.7,0,0,1-1.47.67C66.12,468.2,65.42,467.78,65.42,466.82Zm3-.34v-.59h-.65c-1,0-1.64.23-1.64.93,0,.48.23.79.89.79S68.46,467.21,68.46,466.48Z" fill="#fff"/><path d="M70.53,463.42h.75v.74a1.63,1.63,0,0,1,1.51-.83c1,0,1.66.53,1.66,1.9v2.89H73.7v-2.94c0-.83-.35-1.2-1.1-1.2a1.24,1.24,0,0,0-1.32,1.29v2.85h-.75Z" fill="#fff"/><path d="M78.19,464h-.67v-.62h.67v-.77c0-.95.47-1.51,1.41-1.51a1.4,1.4,0,0,1,.56.09v.63a1.41,1.41,0,0,0-.54-.1c-.48,0-.68.33-.68.81v.85h1.15V464H78.94v4.08h-.75Z" fill="#fff"/><path d="M81,463.42h.75v.84a1.64,1.64,0,0,1,1.55-.93V464c-1,0-1.55.34-1.55,1.5v2.58H81Z" fill="#fff"/><path d="M83.77,465.81v-.07a2.32,2.32,0,1,1,4.63,0v.07a2.32,2.32,0,1,1-4.63,0Zm3.86,0v-.06c0-1.09-.61-1.79-1.54-1.79s-1.54.7-1.54,1.78v.07c0,1.07.58,1.77,1.54,1.77A1.57,1.57,0,0,0,87.63,465.81Z" fill="#fff"/><path d="M89.43,463.42h.74v.71a1.54,1.54,0,0,1,1.41-.8,1.36,1.36,0,0,1,1.37.89,1.83,1.83,0,0,1,1.62-.89c.84,0,1.58.51,1.58,1.88v2.91H95.4v-3c0-.83-.35-1.17-1-1.17a1.21,1.21,0,0,0-1.24,1.26v2.88h-.75v-3c0-.83-.35-1.17-1-1.17a1.21,1.21,0,0,0-1.25,1.26v2.88h-.74Z" fill="#fff"/><path d="M101.51,461.69h1l2.18,6.43h-.78l-.63-1.85h-2.65l-.62,1.85H99.3Zm-.64,4h2.24L102,462.33Z" fill="#fff"/><path d="M106.84,465.7l-1.57-2.28h.87l1.15,1.7,1.14-1.7h.81l-1.55,2.23,1.72,2.47h-.89l-1.27-1.9-1.29,1.9h-.8Z" fill="#fff"/><path d="M109.7,465.81v-.07a2.32,2.32,0,1,1,4.63,0v.07a2.32,2.32,0,1,1-4.63,0Zm3.86,0v-.06c0-1.09-.61-1.79-1.54-1.79s-1.54.7-1.54,1.78v.07c0,1.07.58,1.77,1.54,1.77A1.57,1.57,0,0,0,113.56,465.81Z" fill="#fff"/><path d="M115,466.67h.73c0,.56.35.91,1.1.91s1-.24,1-.74-.37-.66-1.1-.8c-1.22-.22-1.64-.56-1.64-1.38a1.47,1.47,0,0,1,1.6-1.33,1.51,1.51,0,0,1,1.7,1.36h-.72c-.11-.51-.4-.73-1-.73s-.89.26-.89.67.23.59,1.09.75,1.66.39,1.66,1.39-.58,1.43-1.73,1.43S115,467.64,115,466.67Z" fill="#fff"/><path d="M121.84,461.69h1.94c1.2,0,2.07.39,2.07,1.66v0a1.32,1.32,0,0,1-1,1.36,1.41,1.41,0,0,1,1.28,1.54v0c0,1.22-.82,1.8-2.11,1.8h-2.21Zm1.94,2.81c.94,0,1.3-.35,1.3-1.14v0c0-.72-.42-1-1.32-1h-1.15v2.2Zm.25,3c.94,0,1.37-.41,1.37-1.2v0c0-.79-.44-1.17-1.48-1.17h-1.31v2.4Z" fill="#fff"/><path d="M126.86,466.82c0-1.09,1.16-1.46,2.36-1.46h.68V465c0-.75-.29-1.06-1-1.06s-1,.26-1.08.84h-.75a1.66,1.66,0,0,1,1.87-1.47,1.52,1.52,0,0,1,1.72,1.69v3.1h-.75v-.59a1.7,1.7,0,0,1-1.47.67C127.56,468.2,126.86,467.78,126.86,466.82Zm3-.34v-.59h-.65c-.94,0-1.64.23-1.64.93,0,.48.24.79.89.79C129.3,467.61,129.9,467.21,129.9,466.48Z" fill="#fff"/><path d="M132,463.42h.74v.74a1.63,1.63,0,0,1,1.52-.83c1,0,1.65.53,1.65,1.9v2.89h-.74v-2.94c0-.83-.36-1.2-1.11-1.2a1.24,1.24,0,0,0-1.32,1.29v2.85H132Z" fill="#fff"/><path d="M137.22,461.16H138v4.42l1.95-2.16h.88l-2,2.18,2.19,2.52h-.91L138,465.68v2.44h-.75Z" fill="#fff"/><path d="M141.16,462.49a1.16,1.16,0,0,1,1.17-1.16,1.16,1.16,0,1,1-1.17,1.16Zm2.12,0a1,1,0,1,0-.95,1A.93.93,0,0,0,143.28,462.49Zm-1.35-.59h.4c.27,0,.44.11.44.34h0a.31.31,0,0,1-.23.31l.3.49h-.26l-.28-.45h-.12v.45h-.25Zm.4.53c.13,0,.19-.06.19-.17h0c0-.12-.07-.16-.19-.16h-.15v.34Z" fill="#fff"/><path d="M143.21,467.59a.58.58,0,1,1,.57.58A.57.57,0,0,1,143.21,467.59Z" fill="#fff"/><path d="M148,461.69h1l3.13,5.32v-5.32h.75v6.43H152l-3.24-5.52v5.52H148Z" fill="#fff"/><path d="M154,465.81v-.07a2.32,2.32,0,1,1,4.63,0v.07a2.32,2.32,0,1,1-4.63,0Zm3.86,0v-.06c0-1.09-.61-1.79-1.54-1.79s-1.54.7-1.54,1.78v.07c0,1.07.58,1.77,1.54,1.77A1.57,1.57,0,0,0,157.81,465.81Z" fill="#fff"/><path d="M159.77,466.94V464h-.68v-.62h.68v-1.08h.74v1.08h1.1V464h-1.1v2.83c0,.46.21.69.59.69a1.67,1.67,0,0,0,.58-.1v.63a1.94,1.94,0,0,1-.64.1A1.15,1.15,0,0,1,159.77,466.94Z" fill="#fff"/><path d="M166.23,467.64l-1.85-4.22h.81l1.44,3.37,1.3-3.37h.77l-2.61,6.34h-.75Z" fill="#fff"/><path d="M169.06,465.81v-.07a2.31,2.31,0,1,1,4.62,0v.07a2.31,2.31,0,1,1-4.62,0Zm3.85,0v-.06c0-1.09-.6-1.79-1.54-1.79s-1.54.7-1.54,1.78v.07a1.55,1.55,0,1,0,3.08,0Z" fill="#fff"/><path d="M174.66,466.39v-3h.75v2.94c0,.83.35,1.2,1.09,1.2a1.25,1.25,0,0,0,1.3-1.29v-2.85h.74v4.7h-.74v-.74a1.61,1.61,0,0,1-1.5.82C175.37,468.2,174.66,467.69,174.66,466.39Z" fill="#fff"/><path d="M179.92,463.42h.75v.84a1.64,1.64,0,0,1,1.54-.93V464c-.94,0-1.54.34-1.54,1.5v2.58h-.75Z" fill="#fff"/><path d="M185.58,466.94V464h-.68v-.62h.68v-1.08h.75v1.08h1.09V464h-1.09v2.83c0,.46.2.69.58.69a1.59,1.59,0,0,0,.58-.1v.63a1.89,1.89,0,0,1-.64.1A1.15,1.15,0,0,1,185.58,466.94Z" fill="#fff"/><path d="M188.13,466.82c0-1.09,1.16-1.46,2.36-1.46h.68V465c0-.75-.29-1.06-1-1.06s-1,.26-1.08.84h-.75a1.66,1.66,0,0,1,1.87-1.47,1.52,1.52,0,0,1,1.72,1.69v3.1h-.75v-.59a1.7,1.7,0,0,1-1.47.67C188.83,468.2,188.13,467.78,188.13,466.82Zm3-.34v-.59h-.65c-.94,0-1.64.23-1.64.93,0,.48.24.79.89.79S191.17,467.21,191.17,466.48Z" fill="#fff"/><path d="M194.43,465.7l-1.58-2.28h.87l1.16,1.7,1.14-1.7h.81l-1.56,2.23,1.72,2.47h-.88l-1.27-1.9-1.3,1.9h-.8Z" fill="#fff"/><path d="M200.11,463.42h.75v.84a1.65,1.65,0,0,1,1.55-.93V464c-.95,0-1.55.34-1.55,1.5v2.58h-.75Z" fill="#fff"/><path d="M202.88,465.82v-.07a2.22,2.22,0,0,1,2.2-2.42,2.06,2.06,0,0,1,2.12,2.34v.25h-3.55c0,1.07.55,1.66,1.51,1.66.73,0,1.16-.27,1.26-.82h.74a1.81,1.81,0,0,1-2,1.44A2.2,2.2,0,0,1,202.88,465.82Zm3.55-.51c-.07-1-.57-1.35-1.35-1.35a1.4,1.4,0,0,0-1.4,1.35Z" fill="#fff"/><path d="M208.37,464h-.68v-.62h.68v-.77c0-.95.46-1.51,1.4-1.51a1.4,1.4,0,0,1,.56.09v.63a1.35,1.35,0,0,0-.53-.1c-.49,0-.69.33-.69.81v.85h1.16V464h-1.16v4.08h-.74Z" fill="#fff"/><path d="M211.14,466.39v-3h.75v2.94c0,.83.35,1.2,1.09,1.2a1.24,1.24,0,0,0,1.29-1.29v-2.85H215v4.7h-.75v-.74a1.6,1.6,0,0,1-1.49.82C211.84,468.2,211.14,467.69,211.14,466.39Z" fill="#fff"/><path d="M216.39,463.42h.75v.74a1.63,1.63,0,0,1,1.51-.83c1,0,1.66.53,1.66,1.9v2.89h-.75v-2.94c0-.83-.35-1.2-1.1-1.2a1.24,1.24,0,0,0-1.32,1.29v2.85h-.75Z" fill="#fff"/><path d="M221.29,465.86v-.07a2.24,2.24,0,0,1,2.2-2.46,1.69,1.69,0,0,1,1.54.84v-3h.74v7H225v-.81a2,2,0,0,1-1.61.89A2.1,2.1,0,0,1,221.29,465.86Zm3.76-.06v-.07c0-1.21-.57-1.77-1.49-1.77s-1.49.65-1.49,1.79v.08c0,1.19.63,1.75,1.43,1.75S225.05,467,225.05,465.8Z" fill="#fff"/><path d="M227.09,467.59a.58.58,0,1,1,.57.58A.57.57,0,0,1,227.09,467.59Z" fill="#fff"/><rect width="300" height="600" fill="none"/></g></g></svg>