<svg xmlns="http://www.w3.org/2000/svg" viewBox="0 0 300 250"><title>Asset 1</title><g style="isolation:isolate"><rect width="300" height="250" fill="none"/><path d="M185.15,147.05h7v1.35h-7Z" fill="#fff"/><path d="M197.58,140.8h2.54l4.82,8.27V140.8h1.94v11.44h-2.21l-5.16-8.77v8.77h-1.93Z" fill="#fff"/><path d="M208.49,148.14V148a4.07,4.07,0,0,1,4.16-4.32c2.08,0,3.95,1.23,3.95,4.23v.56h-6.13c.07,1.58.87,2.48,2.31,2.48,1.17,0,1.78-.46,1.92-1.28h1.87c-.27,1.76-1.69,2.72-3.84,2.72A4,4,0,0,1,208.49,148.14Zm6.19-1c-.09-1.44-.83-2.08-2-2.08a2.14,2.14,0,0,0-2.14,2.08Z" fill="#fff"/><path d="M218.09,143.87H220v1.57a2.78,2.78,0,0,1,2.72-1.7v1.81c-1.7,0-2.72.56-2.72,2.34v4.35h-1.94Z" fill="#fff"/><path d="M223.46,148.19v-.13c0-2.67,1.59-4.37,3.77-4.37a2.86,2.86,0,0,1,2.67,1.46V140h1.94v12.24H229.9v-1.41a3.22,3.22,0,0,1-2.75,1.57C225.05,152.4,223.46,150.91,223.46,148.19Zm6.5-.1V148c0-1.84-.84-2.76-2.25-2.76s-2.26,1-2.26,2.8v.13c0,1.84.93,2.72,2.18,2.72S230,150,230,148.09Z" fill="#fff"/><path d="M233.16,140.8h2.18l2,8.4,2.23-8.4h1.76l2.27,8.45,2-8.45h2l-2.86,11.44h-2.13l-2.26-8.34L238,152.24h-2Z" fill="#fff"/><path d="M247.77,149.92c0-1.95,1.89-2.66,4.29-2.66h1v-.43c0-1.12-.39-1.68-1.52-1.68a1.39,1.39,0,0,0-1.6,1.31H248.1c.17-2,1.72-2.77,3.59-2.77s3.35.77,3.35,3.06v5.49h-1.91v-1a2.91,2.91,0,0,1-2.56,1.18C249,152.4,247.77,151.66,247.77,149.92Zm5.33-.61v-.83h-1c-1.48,0-2.42.33-2.42,1.36,0,.7.38,1.17,1.34,1.17C252.22,151,253.1,150.38,253.1,149.31Z" fill="#fff"/><path d="M257.06,140H259v12.24h-1.94Z" fill="#fff"/><path d="M261.16,140h1.94v12.24h-1.94Z" fill="#fff"/><path d="M264.65,148.14V148a4.07,4.07,0,0,1,4.16-4.32c2.08,0,3.95,1.23,3.95,4.23v.56h-6.13c.07,1.58.87,2.48,2.31,2.48,1.17,0,1.78-.46,1.92-1.28h1.87c-.27,1.76-1.69,2.72-3.84,2.72A4,4,0,0,1,264.65,148.14Zm6.19-1c-.09-1.44-.83-2.08-2-2.08a2.14,2.14,0,0,0-2.14,2.08Z" fill="#fff"/><path d="M274.57,149.9v-4.57h-1.12v-1.46h1.12V142h1.94v1.84h1.84v1.46h-1.84v4.4c0,.73.35,1.07,1,1.07a2.4,2.4,0,0,0,.94-.16v1.54a3.78,3.78,0,0,1-1.31.2A2.25,2.25,0,0,1,274.57,149.9Z" fill="#fff"/><path d="M20.11,41h4.53l-.57,7.42H20.65Zm5.72,0h4.56l-.57,7.42H26.4Z" fill="#fff"/><path d="M33.34,41H38.9V48.4h6.34V41h5.53v19.3H45.24V52.72H38.9v7.61H33.34Z" fill="#fff"/><path d="M69.7,56.39l3.21,3.94H66.62l-1.13-1.4a7.69,7.69,0,0,1-5.21,1.72c-4.1,0-6.77-2.15-6.77-5.83,0-2.48,1.51-4.31,4.23-5.61a6.21,6.21,0,0,1-1.18-3.37c0-3.3,2.8-5.05,6.2-5.05,3.08,0,5.86,1.54,5.86,4.51,0,2.1-1.24,3.64-3.86,4.77l2.43,3,1.4-2.75h4.22ZM63,55.82l-3-3.67a2.29,2.29,0,0,0-1.3,2.08,2.24,2.24,0,0,0,2.46,2.4A2.54,2.54,0,0,0,63,55.82Zm-.6-7.77c1.3-.62,1.92-1.35,1.92-2.35a1.39,1.39,0,0,0-1.43-1.48,1.53,1.53,0,0,0-1.59,1.67A3.55,3.55,0,0,0,62.41,48.05Z" fill="#fff"/><path d="M75.08,41h7.56c5,0,7.85,2,7.85,6.13v.11A5,5,0,0,1,87,52.34l4.61,8H85.79l-3.91-6.91h-1.3v6.91h-5.5Zm7.29,8.8c1.86,0,2.78-.78,2.78-2.35v-.11c0-1.56-1-2.18-2.76-2.18H80.58v4.64Z" fill="#fff"/><path d="M99.22,41h8.61c4.56,0,6.5,2,6.5,5v.11a4,4,0,0,1-3.26,4.15,4.2,4.2,0,0,1,3.86,4.51V55c0,3.45-2.24,5.37-7,5.37H99.22Zm7.5,7.67c1.73,0,2.37-.6,2.37-2v-.11c0-1.32-.7-1.92-2.37-1.92h-2.11v4Zm.19,7.93c1.75,0,2.56-.81,2.56-2.24v-.11c0-1.45-.78-2.21-2.72-2.21h-2.14v4.56Z" fill="#fff"/><path d="M117.25,40h4.81V60.33h-4.81Z" fill="#fff"/><path d="M124.3,53.45v-.22c0-4.53,3.37-7.39,7.74-7.39s7.7,2.78,7.7,7.26v.21c0,4.59-3.38,7.34-7.72,7.34S124.3,58,124.3,53.45Zm10.53-.08v-.22c0-2.37-1-3.7-2.79-3.7s-2.8,1.27-2.8,3.65v.21c0,2.43.94,3.75,2.8,3.75S134.83,55.71,134.83,53.37Z" fill="#fff"/><path d="M141.09,53.45v-.22c0-4.7,3.38-7.39,7.53-7.39,3.46,0,6.64,1.51,6.91,5.8H151a2.09,2.09,0,0,0-2.27-2c-1.7,0-2.7,1.21-2.7,3.59v.21c0,2.46.95,3.73,2.78,3.73a2.35,2.35,0,0,0,2.46-2.35h4.34c-.13,3.56-2.53,5.88-7.09,5.88C144.3,60.65,141.09,58.2,141.09,53.45Z" fill="#fff"/><path d="M157.59,40h4.83V51.8l3.81-5.59h5l-4.62,6.35,5,7.77h-5.39l-3.81-6.18v6.18h-4.83Z" fill="#fff"/><path d="M178.92,41h13v4.29h-7.48v4.11h6V53.5h-6v6.83h-5.56Z" fill="#fff"/><path d="M193.66,46.21h4.83V49a4.47,4.47,0,0,1,4.56-3v4.51c-2.94-.08-4.56.84-4.56,3.11v6.69h-4.83Z" fill="#fff"/><path d="M204.33,53.45v-.22c0-4.53,3.37-7.39,7.63-7.39,3.86,0,7.18,2.21,7.18,7.28v1.27h-9.93a2.82,2.82,0,0,0,2.94,2.94c1.6,0,2.27-.72,2.46-1.67h4.53c-.43,3.19-2.88,5-7.15,5C207.56,60.65,204.33,58.06,204.33,53.45Zm10.12-1.78C214.37,50,213.53,49,212,49s-2.45.95-2.69,2.65Z" fill="#fff"/><path d="M220.47,53.45v-.22c0-4.53,3.38-7.39,7.64-7.39,3.86,0,7.18,2.21,7.18,7.28v1.27h-9.93a2.81,2.81,0,0,0,2.94,2.94c1.59,0,2.27-.72,2.46-1.67h4.53c-.43,3.19-2.89,5-7.15,5C223.71,60.65,220.47,58.06,220.47,53.45Zm10.12-1.78c-.08-1.7-.91-2.65-2.48-2.65a2.69,2.69,0,0,0-2.7,2.65Z" fill="#fff"/><path d="M20.78,68.38H29v3.54H25.64V89.79H29v3.54H20.78Z" fill="#fff"/><path d="M30.88,79.8v-.21c0-5.89,4.43-9.83,10.2-9.83s10.23,3.7,10.23,9.69v.22c0,5.94-4.07,10-10.31,10S30.88,85.61,30.88,79.8Zm14.66,0v-.22c0-3.43-1.73-5.45-4.46-5.45s-4.42,2-4.42,5.48v.22c0,3.5,1.78,5.53,4.45,5.53S45.54,83.2,45.54,79.75Z" fill="#fff"/><path d="M53.59,75.21h4.83v2.27a5,5,0,0,1,4.64-2.64c2.73,0,4.62,1.7,4.62,5.31v9.18H62.84V81.12c0-1.59-.62-2.37-2-2.37s-2.4.86-2.4,2.67v7.91H53.59Z" fill="#fff"/><path d="M70.57,69h4.8V89.33h-4.8Z" fill="#fff"/><path d="M78.26,71.38a2.67,2.67,0,1,1,2.65,2.48A2.53,2.53,0,0,1,78.26,71.38Zm.25,3.83h4.83V89.33H78.51Z" fill="#fff"/><path d="M86.34,75.21h4.83v2.27a5,5,0,0,1,4.64-2.64c2.73,0,4.62,1.7,4.62,5.31v9.18H95.6V81.12c0-1.59-.63-2.37-2-2.37s-2.4.86-2.4,2.67v7.91H86.34Z" fill="#fff"/><path d="M102.43,82.45v-.22c0-4.53,3.37-7.39,7.64-7.39,3.86,0,7.18,2.21,7.18,7.28v1.27h-9.94a2.83,2.83,0,0,0,3,2.94c1.59,0,2.26-.72,2.45-1.67h4.54c-.43,3.19-2.89,5-7.16,5C105.67,89.65,102.43,87.06,102.43,82.45Zm10.12-1.78c-.08-1.7-.92-2.65-2.48-2.65a2.69,2.69,0,0,0-2.7,2.65Z" fill="#fff"/><path d="M118.68,89.79H122V71.92h-3.35V68.38h8.21v25h-8.21Z" fill="#fff"/><path d="M134.48,84.85h4.45c.16,1,.62,1.59,2,1.59,1.19,0,1.73-.46,1.73-1.16S142,84.28,140,84c-3.78-.48-5.37-1.59-5.37-4.53,0-3.13,2.78-4.64,6-4.64,3.48,0,5.91,1.18,6.24,4.56h-4.37A1.58,1.58,0,0,0,140.77,78c-1.06,0-1.6.46-1.6,1.11s.65,1,2.38,1.16c3.91.49,5.8,1.51,5.8,4.54,0,3.34-2.48,4.85-6.39,4.85S134.59,88,134.48,84.85Z" fill="#fff"/><path d="M150,84.8V78.51h-1.7v-3.3H150V72.27h4.84v2.94h2.78v3.3h-2.78v5.83a1.29,1.29,0,0,0,1.43,1.48,3.68,3.68,0,0,0,1.37-.24v3.67a10.18,10.18,0,0,1-2.67.4C151.76,89.65,150,88.12,150,84.8Z" fill="#fff"/><path d="M159.07,85.42c0-3.32,2.81-4.62,7.51-4.62h1.35v-.32c0-1.35-.33-2.24-1.87-2.24a1.73,1.73,0,0,0-1.91,1.67h-4.54c.22-3.4,2.89-5.07,6.75-5.07s6.37,1.59,6.37,5.34v9.15H168V87.68a4.64,4.64,0,0,1-4.19,2C161.31,89.65,159.07,88.41,159.07,85.42Zm8.86-1v-.86h-1.27c-1.94,0-2.81.38-2.81,1.54,0,.81.54,1.32,1.68,1.32A2.13,2.13,0,0,0,167.93,84.39Z" fill="#fff"/><path d="M175.49,75.21h4.83v2.27A5,5,0,0,1,185,74.84c2.73,0,4.62,1.7,4.62,5.31v9.18h-4.83V81.12c0-1.59-.62-2.37-2-2.37s-2.4.86-2.4,2.67v7.91h-4.83Z" fill="#fff"/><path d="M191.64,82.42V82.2c0-4.8,2.64-7.36,6-7.36A4.57,4.57,0,0,1,202,77.21V69h4.84V89.33H202V87a4.75,4.75,0,0,1-4.4,2.61C194.31,89.65,191.64,87.31,191.64,82.42Zm10.47-.08v-.22c0-2.37-1-3.64-2.78-3.64s-2.78,1.21-2.78,3.67v.22c0,2.37,1,3.59,2.72,3.59S202.11,84.74,202.11,82.34Z" fill="#fff"/><path d="M208.73,84.85h4.45c.16,1,.62,1.59,2,1.59,1.19,0,1.73-.46,1.73-1.16s-.68-1-2.62-1.27c-3.78-.48-5.37-1.59-5.37-4.53,0-3.13,2.78-4.64,6-4.64,3.48,0,5.91,1.18,6.24,4.56h-4.38A1.57,1.57,0,0,0,215,78c-1.06,0-1.6.46-1.6,1.11s.65,1,2.38,1.16c3.91.49,5.8,1.51,5.8,4.54,0,3.34-2.48,4.85-6.4,4.85S208.83,88,208.73,84.85Z" fill="#fff"/><path d="M228.14,82.45v-.22c0-4.53,3.37-7.39,7.75-7.39s7.69,2.78,7.69,7.26v.21c0,4.59-3.37,7.34-7.72,7.34S228.14,87,228.14,82.45Zm10.53-.08v-.22c0-2.37-.95-3.7-2.78-3.7s-2.81,1.27-2.81,3.65v.21c0,2.43.94,3.75,2.81,3.75S238.67,84.71,238.67,82.37Z" fill="#fff"/><path d="M245.58,84.42V75.21h4.83v8.43c0,1.59.62,2.37,2,2.37s2.4-.86,2.4-2.67V75.21h4.83V89.33h-4.83V87.14a4.63,4.63,0,0,1-4.48,2.51C247.61,89.65,245.58,88,245.58,84.42Z" fill="#fff"/><path d="M263.16,84.8V78.51h-1.7v-3.3h1.7V72.27H268v2.94h2.78v3.3H268v5.83a1.29,1.29,0,0,0,1.43,1.48,3.77,3.77,0,0,0,1.38-.24v3.67a10.27,10.27,0,0,1-2.68.4C264.94,89.65,263.16,88.12,263.16,84.8Z" fill="#fff"/><path d="M21.16,107.51H19.38v-3.3h1.78V103c0-3.51,2.19-5.18,5.53-5.18a8.33,8.33,0,0,1,2.22.3v3.53a4.42,4.42,0,0,0-1.33-.19A1.42,1.42,0,0,0,26,103v1.24h2.87v3.3H26v10.82h-4.8Z" fill="#fff"/><path d="M30.85,104.21h4.83V107a4.47,4.47,0,0,1,4.57-3v4.51c-3-.08-4.57.84-4.57,3.11v6.69H30.85Z" fill="#fff"/><path d="M41.52,111.45v-.22c0-4.53,3.37-7.39,7.74-7.39s7.7,2.78,7.7,7.26v.21c0,4.59-3.38,7.34-7.72,7.34S41.52,116,41.52,111.45ZM52,111.37v-.22c0-2.37-.94-3.7-2.78-3.7s-2.8,1.27-2.8,3.65v.21c0,2.43.94,3.75,2.8,3.75S52,113.71,52,111.37Z" fill="#fff"/><path d="M59.07,104.21H63.9v2.16a4.92,4.92,0,0,1,4.43-2.53,3.85,3.85,0,0,1,3.83,2.34,5.6,5.6,0,0,1,4.67-2.34c2.67,0,4.61,1.72,4.61,5.26v9.23H76.61v-8.42c0-1.43-.7-2.13-1.81-2.13a2.09,2.09,0,0,0-2.16,2.37v8.18H67.87v-8.42c0-1.43-.7-2.13-1.81-2.13a2.09,2.09,0,0,0-2.16,2.37v8.18H59.07Z" fill="#fff"/><path d="M90.17,113.8v-6.29h-1.7v-3.3h1.7v-2.94H95v2.94h2.78v3.3H95v5.83a1.29,1.29,0,0,0,1.43,1.48,3.73,3.73,0,0,0,1.38-.24v3.67a10.25,10.25,0,0,1-2.67.4C92,118.65,90.17,117.12,90.17,113.8Z" fill="#fff"/><path d="M100,98h4.83v8.47a5,5,0,0,1,4.64-2.64c2.73,0,4.62,1.7,4.62,5.31v9.18h-4.84v-8.21c0-1.59-.62-2.37-2-2.37s-2.4.86-2.4,2.67v7.91H100Z" fill="#fff"/><path d="M116.12,111.45v-.22c0-4.53,3.37-7.39,7.64-7.39,3.86,0,7.18,2.21,7.18,7.28v1.27H121a2.83,2.83,0,0,0,3,2.94c1.59,0,2.26-.72,2.45-1.67h4.54c-.44,3.19-2.89,5-7.16,5S116.12,116.06,116.12,111.45Zm10.12-1.78c-.08-1.7-.92-2.65-2.48-2.65a2.69,2.69,0,0,0-2.7,2.65Z" fill="#fff"/><path d="M137.58,111.45v-.22c0-4.7,3.38-7.39,7.53-7.39,3.46,0,6.64,1.51,6.91,5.8h-4.53a2.09,2.09,0,0,0-2.27-2c-1.7,0-2.7,1.21-2.7,3.59v.21c0,2.46.95,3.73,2.78,3.73a2.35,2.35,0,0,0,2.46-2.35h4.34c-.13,3.56-2.53,5.88-7.09,5.88C140.79,118.65,137.58,116.2,137.58,111.45Z" fill="#fff"/><path d="M154.08,104.21h4.83V107a4.47,4.47,0,0,1,4.56-3v4.51c-2.94-.08-4.56.84-4.56,3.11v6.69h-4.83Z" fill="#fff"/><path d="M164.74,111.45v-.22c0-4.53,3.38-7.39,7.75-7.39s7.69,2.78,7.69,7.26v.21c0,4.59-3.37,7.34-7.72,7.34S164.74,116,164.74,111.45Zm10.53-.08v-.22c0-2.37-.94-3.7-2.78-3.7s-2.81,1.27-2.81,3.65v.21c0,2.43.95,3.75,2.81,3.75S175.27,113.71,175.27,111.37Z" fill="#fff"/><path d="M180.65,104.21h5l2.06,8.45,2.37-8.45H194l2.1,8.45,2.3-8.45H203l-4.48,14.12H193.9l-2.1-7.88-2.19,7.88h-4.7Z" fill="#fff"/><path d="M203.6,111.42v-.22c0-4.8,2.64-7.36,6-7.36a4.58,4.58,0,0,1,4.35,2.37V98h4.83v20.32h-4.83V116a4.78,4.78,0,0,1-4.4,2.61C206.27,118.65,203.6,116.31,203.6,111.42Zm10.47-.08v-.22c0-2.37-1-3.64-2.78-3.64s-2.78,1.21-2.78,3.67v.22c0,2.37,1.05,3.59,2.73,3.59S214.07,113.74,214.07,111.34Z" fill="#fff"/><path d="M221.44,115.9a2.69,2.69,0,0,1,2.76-2.72,2.73,2.73,0,1,1,0,5.45A2.7,2.7,0,0,1,221.44,115.9Z" fill="#fff"/><path d="M224.68,99h4.54l-.57,7.42h-3.43Zm5.73,0H235l-.57,7.42H231Z" fill="#fff"/></g></svg>