<svg xmlns="http://www.w3.org/2000/svg" viewBox="0 0 300 250"><title>136</title><g id="Layer_2" data-name="Layer 2"><g id="Rect"><rect width="300" height="250" fill="none"/></g><g id="_136" data-name="136"><g id="_No_other_package_can_match_across_usability_features_support" data-name="&quot;No other package can match across usability, features, support"><path d="M19.94,27.35h3.87l-.49,6.32H20.4Zm4.88,0H28.7l-.48,6.32H25.3Z" fill="#fff"/><path d="M31.21,27.35h5.31l5.27,9.27V27.35h4.12V43.79H41.35l-6-10.32V43.79H31.21Z" fill="#fff"/><path d="M47.91,37.93v-.19c0-3.86,2.88-6.3,6.6-6.3s6.55,2.37,6.55,6.19v.18c0,3.91-2.87,6.26-6.57,6.26S47.91,41.81,47.91,37.93Zm9-.07v-.18c0-2-.81-3.15-2.37-3.15s-2.39,1.08-2.39,3.1v.18c0,2.07.8,3.2,2.39,3.2S56.88,39.86,56.88,37.86Z" fill="#fff"/><path d="M66.75,37.93v-.19c0-3.86,2.87-6.3,6.6-6.3s6.55,2.37,6.55,6.19v.18c0,3.91-2.87,6.26-6.58,6.26S66.75,41.81,66.75,37.93Zm9-.07v-.18c0-2-.81-3.15-2.37-3.15S71,35.61,71,37.63v.18c0,2.07.8,3.2,2.39,3.2S75.72,39.86,75.72,37.86Z" fill="#fff"/><path d="M82.25,39.93V34.57H80.8v-2.8h1.45V29.26h4.12v2.51h2.36v2.8H86.37v5c0,.87.43,1.26,1.21,1.26a3.36,3.36,0,0,0,1.18-.2v3.12a8.53,8.53,0,0,1-2.28.35C83.77,44.07,82.25,42.76,82.25,39.93Z" fill="#fff"/><path d="M90.64,26.48h4.12V33.7a4.25,4.25,0,0,1,4-2.26c2.32,0,3.93,1.45,3.93,4.53v7.82H98.53v-7c0-1.35-.53-2-1.72-2s-2,.73-2,2.27v6.74H90.64Z" fill="#fff"/><path d="M104.35,37.93v-.19a6.16,6.16,0,0,1,6.51-6.3c3.29,0,6.12,1.89,6.12,6.21v1.08h-8.47A2.41,2.41,0,0,0,111,41.24c1.36,0,1.93-.62,2.09-1.43H117c-.37,2.72-2.46,4.26-6.1,4.26S104.35,41.86,104.35,37.93ZM113,36.41c-.07-1.45-.79-2.25-2.12-2.25a2.29,2.29,0,0,0-2.3,2.25Z" fill="#fff"/><path d="M118.75,31.77h4.12v2.39a3.78,3.78,0,0,1,3.88-2.56v3.85c-2.5-.07-3.88.71-3.88,2.64v5.7h-4.12Z" fill="#fff"/><path d="M133.12,31.77h4.12v1.79A4.25,4.25,0,0,1,141,31.44c2.8,0,5.08,2.12,5.08,6.24v.18c0,4.14-2.28,6.21-5.1,6.21a4,4,0,0,1-3.73-2v5.8h-4.12Zm8.77,6.09v-.18c0-2.12-.92-3.13-2.37-3.13s-2.39,1.08-2.39,3.1v.19c0,2,.89,3.08,2.39,3.08S141.89,39.84,141.89,37.86Z" fill="#fff"/><path d="M147.22,40.46c0-2.83,2.39-3.93,6.4-3.93h1.15v-.28c0-1.15-.28-1.91-1.59-1.91a1.47,1.47,0,0,0-1.63,1.43h-3.87c.19-2.9,2.46-4.33,5.75-4.33s5.43,1.36,5.43,4.56v7.79h-4v-1.4a4,4,0,0,1-3.57,1.68C149.13,44.07,147.22,43,147.22,40.46Zm7.55-.88v-.73h-1.09c-1.65,0-2.39.32-2.39,1.31,0,.69.46,1.13,1.43,1.13A1.82,1.82,0,0,0,154.77,39.58Z" fill="#fff"/><path d="M160.56,37.93v-.19a6.05,6.05,0,0,1,6.42-6.3c2.94,0,5.65,1.29,5.89,4.95H169a1.77,1.77,0,0,0-1.93-1.75c-1.45,0-2.3,1-2.3,3.06v.18c0,2.1.81,3.18,2.37,3.18a2,2,0,0,0,2.09-2h3.7c-.11,3-2.16,5-6,5C163.3,44.07,160.56,42,160.56,37.93Z" fill="#fff"/><path d="M174.62,26.48h4.11V36.53L182,31.77h4.28l-3.93,5.4,4.25,6.62H182l-3.24-5.26v5.26h-4.11Z" fill="#fff"/><path d="M186.92,40.46c0-2.83,2.39-3.93,6.39-3.93h1.15v-.28c0-1.15-.27-1.91-1.58-1.91a1.49,1.49,0,0,0-1.64,1.43h-3.86c.18-2.9,2.46-4.33,5.75-4.33s5.43,1.36,5.43,4.56v7.79h-4v-1.4A4,4,0,0,1,191,44.07C188.83,44.07,186.92,43,186.92,40.46Zm7.54-.88v-.73h-1.08c-1.65,0-2.39.32-2.39,1.31,0,.69.46,1.13,1.43,1.13A1.81,1.81,0,0,0,194.46,39.58Z" fill="#fff"/><path d="M200.24,43.79h4.09c.18.88.71,1.57,2.21,1.57a2.28,2.28,0,0,0,2.55-2.53V41a4.21,4.21,0,0,1-3.72,2.2c-2.81,0-5.11-2.07-5.11-5.77v-.18c0-3.54,2.28-5.8,5.11-5.8a3.91,3.91,0,0,1,3.72,2v-1.7h4.12v11c0,3.59-2.37,5.47-6.67,5.47C202.45,48.25,200.56,46.53,200.24,43.79Zm9-6.39v-.16c0-1.66-.86-2.71-2.37-2.71s-2.37,1.08-2.37,2.73v.19c0,1.65.87,2.71,2.34,2.71S209.21,39.1,209.21,37.4Z" fill="#fff"/><path d="M215,37.93v-.19a6.16,6.16,0,0,1,6.51-6.3c3.29,0,6.12,1.89,6.12,6.21v1.08h-8.46a2.4,2.4,0,0,0,2.5,2.51c1.36,0,1.93-.62,2.09-1.43h3.87c-.37,2.72-2.46,4.26-6.1,4.26S215,41.86,215,37.93Zm8.63-1.52c-.07-1.45-.79-2.25-2.12-2.25a2.29,2.29,0,0,0-2.3,2.25Z" fill="#fff"/><path d="M233.29,37.93v-.19a6,6,0,0,1,6.41-6.3c3,0,5.66,1.29,5.89,4.95h-3.86a1.78,1.78,0,0,0-1.93-1.75c-1.45,0-2.3,1-2.3,3.06v.18c0,2.1.8,3.18,2.36,3.18a2,2,0,0,0,2.1-2h3.7c-.12,3-2.16,5-6,5C236,44.07,233.29,42,233.29,37.93Z" fill="#fff"/><path d="M246.72,40.46c0-2.83,2.39-3.93,6.39-3.93h1.15v-.28c0-1.15-.27-1.91-1.59-1.91A1.48,1.48,0,0,0,251,35.77h-3.86c.18-2.9,2.46-4.33,5.75-4.33s5.43,1.36,5.43,4.56v7.79h-4v-1.4a4,4,0,0,1-3.56,1.68C248.63,44.07,246.72,43,246.72,40.46Zm7.54-.88v-.73h-1.08c-1.65,0-2.39.32-2.39,1.31,0,.69.46,1.13,1.42,1.13A1.81,1.81,0,0,0,254.26,39.58Z" fill="#fff"/><path d="M260.7,31.77h4.12V33.7a4.24,4.24,0,0,1,3.95-2.26c2.33,0,3.94,1.45,3.94,4.53v7.82h-4.12v-7c0-1.35-.53-2-1.72-2s-2.05.73-2.05,2.27v6.74H260.7Z" fill="#fff"/><path d="M20.22,57.77h4.11v1.84a4.22,4.22,0,0,1,3.78-2.17,3.27,3.27,0,0,1,3.26,2,4.78,4.78,0,0,1,4-2c2.28,0,3.93,1.48,3.93,4.49v7.86H35.17V62.62c0-1.22-.6-1.82-1.55-1.82a1.78,1.78,0,0,0-1.83,2v7H27.72V62.62c0-1.22-.6-1.82-1.55-1.82a1.78,1.78,0,0,0-1.84,2v7H20.22Z" fill="#fff"/><path d="M40.94,66.46c0-2.83,2.39-3.93,6.39-3.93h1.15v-.28c0-1.15-.27-1.91-1.58-1.91a1.47,1.47,0,0,0-1.63,1.43H41.4c.19-2.9,2.46-4.33,5.75-4.33S52.58,58.8,52.58,62v7.79h-4v-1.4A4,4,0,0,1,45,70.07C42.85,70.07,40.94,69,40.94,66.46Zm7.54-.88v-.73H47.4c-1.65,0-2.39.32-2.39,1.31,0,.69.46,1.13,1.43,1.13A1.81,1.81,0,0,0,48.48,65.58Z" fill="#fff"/><path d="M55.41,65.93V60.57H54v-2.8h1.45V55.26h4.11v2.51h2.37v2.8H59.52v5a1.1,1.1,0,0,0,1.22,1.26,3.36,3.36,0,0,0,1.18-.2v3.12a8.53,8.53,0,0,1-2.28.35C56.93,70.07,55.41,68.76,55.41,65.93Z" fill="#fff"/><path d="M63.16,63.93v-.19c0-4,2.87-6.3,6.42-6.3,2.94,0,5.65,1.29,5.88,5H71.6a1.78,1.78,0,0,0-1.93-1.75c-1.45,0-2.3,1-2.3,3.06v.18c0,2.1.8,3.18,2.37,3.18a2,2,0,0,0,2.09-2h3.7c-.11,3-2.16,5-6,5C65.9,70.07,63.16,68,63.16,63.93Z" fill="#fff"/><path d="M77.21,52.48h4.12V59.7a4.24,4.24,0,0,1,4-2.26c2.33,0,3.94,1.45,3.94,4.53v7.82H85.1v-7c0-1.35-.53-2-1.72-2s-2,.73-2,2.27v6.74H77.21Z" fill="#fff"/><path d="M95.41,66.46c0-2.83,2.39-3.93,6.39-3.93H103v-.28c0-1.15-.28-1.91-1.59-1.91a1.47,1.47,0,0,0-1.63,1.43H95.87c.18-2.9,2.46-4.33,5.74-4.33S107,58.8,107,62v7.79h-4v-1.4a4,4,0,0,1-3.56,1.68C97.31,70.07,95.41,69,95.41,66.46Zm7.54-.88v-.73h-1.08c-1.66,0-2.39.32-2.39,1.31,0,.69.46,1.13,1.42,1.13A1.82,1.82,0,0,0,103,65.58Z" fill="#fff"/><path d="M108.74,63.93v-.19a6.05,6.05,0,0,1,6.42-6.3c2.94,0,5.66,1.29,5.89,5h-3.87a1.77,1.77,0,0,0-1.93-1.75c-1.45,0-2.3,1-2.3,3.06v.18c0,2.1.81,3.18,2.37,3.18a2,2,0,0,0,2.09-2h3.71c-.12,3-2.17,5-6.05,5C111.48,70.07,108.74,68,108.74,63.93Z" fill="#fff"/><path d="M122.8,57.77h4.11v2.39a3.8,3.8,0,0,1,3.89-2.56v3.85c-2.51-.07-3.89.71-3.89,2.64v5.7H122.8Z" fill="#fff"/><path d="M131.88,63.93v-.19c0-3.86,2.88-6.3,6.6-6.3S145,59.81,145,63.63v.18c0,3.91-2.88,6.26-6.58,6.26S131.88,67.81,131.88,63.93Zm9-.07v-.18c0-2-.8-3.15-2.37-3.15s-2.39,1.08-2.39,3.1v.18c0,2.07.81,3.2,2.39,3.2S140.85,65.86,140.85,63.86Z" fill="#fff"/><path d="M146.1,66h3.79c.14.87.53,1.35,1.7,1.35,1,0,1.47-.39,1.47-1s-.57-.85-2.23-1.08c-3.22-.41-4.57-1.35-4.57-3.86,0-2.67,2.37-4,5.15-4,3,0,5,1,5.31,3.89H153a1.36,1.36,0,0,0-1.55-1.2c-.89,0-1.35.4-1.35.95s.55.8,2,1c3.34.41,4.95,1.28,4.95,3.86,0,2.85-2.12,4.14-5.45,4.14S146.19,68.64,146.1,66Z" fill="#fff"/><path d="M158,66h3.79c.14.87.53,1.35,1.71,1.35,1,0,1.47-.39,1.47-1s-.58-.85-2.23-1.08c-3.22-.41-4.58-1.35-4.58-3.86,0-2.67,2.37-4,5.15-4,3,0,5,1,5.31,3.89h-3.72a1.35,1.35,0,0,0-1.54-1.2c-.9,0-1.36.4-1.36.95s.55.8,2,1c3.33.41,4.94,1.28,4.94,3.86,0,2.85-2.12,4.14-5.45,4.14S158.1,68.64,158,66Z" fill="#fff"/><path d="M175.1,65.61V57.77h4.11v7.17c0,1.36.53,2,1.71,2s2-.73,2-2.27V57.77h4.12v12H183V67.93a3.94,3.94,0,0,1-3.81,2.14C176.82,70.07,175.1,68.64,175.1,65.61Z" fill="#fff"/><path d="M188.71,66h3.8c.14.87.53,1.35,1.7,1.35,1,0,1.47-.39,1.47-1s-.57-.85-2.23-1.08c-3.22-.41-4.57-1.35-4.57-3.86,0-2.67,2.36-4,5.15-4,3,0,5,1,5.31,3.89h-3.73a1.35,1.35,0,0,0-1.54-1.2c-.89,0-1.35.4-1.35.95s.55.8,2,1c3.33.41,4.94,1.28,4.94,3.86,0,2.85-2.11,4.14-5.45,4.14S188.81,68.64,188.71,66Z" fill="#fff"/><path d="M200.67,66.46c0-2.83,2.4-3.93,6.4-3.93h1.15v-.28c0-1.15-.28-1.91-1.59-1.91A1.47,1.47,0,0,0,205,61.77h-3.87c.19-2.9,2.46-4.33,5.75-4.33s5.43,1.36,5.43,4.56v7.79h-4v-1.4a4,4,0,0,1-3.56,1.68C202.58,70.07,200.67,69,200.67,66.46Zm7.55-.88v-.73h-1.08c-1.66,0-2.39.32-2.39,1.31,0,.69.46,1.13,1.42,1.13A1.82,1.82,0,0,0,208.22,65.58Z" fill="#fff"/><path d="M218.77,67.93v1.86h-4.11V52.48h4.11v7.08a4.26,4.26,0,0,1,3.75-2.12c2.81,0,5.08,2.12,5.08,6.24v.18c0,4.14-2.27,6.21-5.1,6.21A3.91,3.91,0,0,1,218.77,67.93Zm4.65-4.07v-.18c0-2.12-.92-3.13-2.37-3.13s-2.39,1.08-2.39,3.1v.19c0,2,.9,3.08,2.39,3.08S223.42,65.84,223.42,63.86Z" fill="#fff"/><path d="M229.35,54.5a2.27,2.27,0,1,1,2.26,2.12A2.15,2.15,0,0,1,229.35,54.5Zm.21,3.27h4.12v12h-4.12Z" fill="#fff"/><path d="M236.35,52.48h4.09V69.79h-4.09Z" fill="#fff"/><path d="M242.9,54.5a2.27,2.27,0,1,1,2.26,2.12A2.15,2.15,0,0,1,242.9,54.5Zm.21,3.27h4.11v12h-4.11Z" fill="#fff"/><path d="M250.33,65.93V60.57h-1.45v-2.8h1.45V55.26h4.12v2.51h2.37v2.8h-2.37v5a1.09,1.09,0,0,0,1.22,1.26,3.34,3.34,0,0,0,1.17-.2v3.12a8.53,8.53,0,0,1-2.28.35C251.85,70.07,250.33,68.76,250.33,65.93Z" fill="#fff"/><path d="M262.5,68.57l-4.81-10.8h4.46l2.48,6.41,2.3-6.41h3.94l-6.44,16H260.5Z" fill="#fff"/><path d="M269.65,71.65l1.93-6L275.4,67l-3.31,5.64Z" fill="#fff"/><path d="M20.84,86.57H19.32v-2.8h1.52V82.71c0-3,1.86-4.42,4.71-4.42a7.24,7.24,0,0,1,1.89.26v3a3.88,3.88,0,0,0-1.13-.16,1.21,1.21,0,0,0-1.38,1.31v1.06h2.44v2.8H24.93v9.22H20.84Z" fill="#fff"/><path d="M28,89.93v-.19a6.15,6.15,0,0,1,6.51-6.3c3.28,0,6.11,1.89,6.11,6.21v1.08H32.2a2.41,2.41,0,0,0,2.51,2.51c1.35,0,1.93-.62,2.09-1.43h3.86c-.37,2.72-2.46,4.26-6.09,4.26S28,93.86,28,89.93Zm8.62-1.52c-.07-1.45-.78-2.25-2.11-2.25a2.28,2.28,0,0,0-2.3,2.25Z" fill="#fff"/><path d="M41.86,92.46c0-2.83,2.39-3.93,6.39-3.93H49.4v-.28c0-1.15-.27-1.91-1.58-1.91a1.49,1.49,0,0,0-1.64,1.43H42.32c.19-2.9,2.46-4.33,5.75-4.33S53.5,84.8,53.5,88v7.79h-4v-1.4a4,4,0,0,1-3.57,1.68C43.77,96.07,41.86,95,41.86,92.46Zm7.54-.88v-.73H48.32c-1.65,0-2.39.32-2.39,1.31,0,.69.46,1.13,1.43,1.13A1.81,1.81,0,0,0,49.4,91.58Z" fill="#fff"/><path d="M56.33,91.93V86.57H54.88v-2.8h1.45V81.26h4.11v2.51h2.37v2.8H60.44v5a1.1,1.1,0,0,0,1.22,1.26,3.36,3.36,0,0,0,1.18-.2v3.12a8.6,8.6,0,0,1-2.28.35C57.85,96.07,56.33,94.76,56.33,91.93Z" fill="#fff"/><path d="M64.63,91.61V83.77h4.12v7.17c0,1.36.53,2,1.7,2s2-.73,2-2.27V83.77h4.11v12H72.5V93.93a4,4,0,0,1-3.82,2.14C66.36,96.07,64.63,94.64,64.63,91.61Z" fill="#fff"/><path d="M79.05,83.77h4.12v2.39a3.79,3.79,0,0,1,3.88-2.56v3.85c-2.5-.07-3.88.71-3.88,2.64v5.7H79.05Z" fill="#fff"/><path d="M88.14,89.93v-.19a6.15,6.15,0,0,1,6.5-6.3c3.29,0,6.12,1.89,6.12,6.21v1.08H92.3a2.4,2.4,0,0,0,2.51,2.51c1.35,0,1.93-.62,2.09-1.43h3.86c-.37,2.72-2.46,4.26-6.09,4.26S88.14,93.86,88.14,89.93Zm8.62-1.52c-.07-1.45-.78-2.25-2.12-2.25a2.29,2.29,0,0,0-2.3,2.25Z" fill="#fff"/><path d="M101.84,92h3.8c.14.87.53,1.35,1.7,1.35,1,0,1.47-.39,1.47-1s-.57-.85-2.23-1.08c-3.22-.41-4.57-1.35-4.57-3.86,0-2.67,2.36-4,5.15-4,3,0,5,1,5.31,3.89h-3.73a1.35,1.35,0,0,0-1.54-1.2c-.89,0-1.35.4-1.35,1s.55.8,2,1c3.33.41,4.94,1.28,4.94,3.86,0,2.85-2.11,4.14-5.45,4.14S101.94,94.64,101.84,92Z" fill="#fff"/><path d="M113.64,97.65l1.94-6L119.39,93l-3.31,5.64Z" fill="#fff"/><path d="M125.26,92h3.79c.14.87.53,1.35,1.7,1.35s1.48-.39,1.48-1-.58-.85-2.23-1.08c-3.22-.41-4.58-1.35-4.58-3.86,0-2.67,2.37-4,5.15-4,3,0,5,1,5.31,3.89h-3.72a1.35,1.35,0,0,0-1.54-1.2c-.9,0-1.36.4-1.36,1s.55.8,2,1c3.34.41,4.95,1.28,4.95,3.86,0,2.85-2.12,4.14-5.45,4.14S125.35,94.64,125.26,92Z" fill="#fff"/><path d="M137.82,91.61V83.77h4.11v7.17c0,1.36.53,2,1.7,2s2.05-.73,2.05-2.27V83.77h4.12v12h-4.12V93.93a4,4,0,0,1-3.82,2.14C139.54,96.07,137.82,94.64,137.82,91.61Z" fill="#fff"/><path d="M152.24,83.77h4.11v1.79a4.25,4.25,0,0,1,3.75-2.12c2.81,0,5.08,2.12,5.08,6.24v.18c0,4.14-2.27,6.21-5.1,6.21a4,4,0,0,1-3.73-2v5.8h-4.11ZM161,89.86v-.18c0-2.12-.92-3.13-2.37-3.13s-2.39,1.08-2.39,3.1v.19c0,2,.89,3.08,2.39,3.08S161,91.84,161,89.86Z" fill="#fff"/><path d="M167,83.77h4.11v1.79a4.25,4.25,0,0,1,3.75-2.12c2.81,0,5.08,2.12,5.08,6.24v.18c0,4.14-2.27,6.21-5.1,6.21a4,4,0,0,1-3.73-2v5.8H167Zm8.76,6.09v-.18c0-2.12-.92-3.13-2.37-3.13S171,87.63,171,89.65v.19c0,2,.89,3.08,2.39,3.08S175.79,91.84,175.79,89.86Z" fill="#fff"/><path d="M181.17,89.93v-.19c0-3.86,2.87-6.3,6.6-6.3s6.55,2.37,6.55,6.19v.18c0,3.91-2.87,6.26-6.57,6.26S181.17,93.81,181.17,89.93Zm9-.07v-.18c0-2-.81-3.15-2.37-3.15s-2.39,1.08-2.39,3.1v.18c0,2.07.8,3.2,2.39,3.2S190.14,91.86,190.14,89.86Z" fill="#fff"/><path d="M196.12,83.77h4.12v2.39a3.79,3.79,0,0,1,3.88-2.56v3.85c-2.5-.07-3.88.71-3.88,2.64v5.7h-4.12Z" fill="#fff"/><path d="M206.7,91.93V86.57h-1.45v-2.8h1.45V81.26h4.12v2.51h2.36v2.8h-2.36v5c0,.87.43,1.26,1.21,1.26a3.36,3.36,0,0,0,1.18-.2v3.12a8.53,8.53,0,0,1-2.28.35C208.22,96.07,206.7,94.76,206.7,91.93Z" fill="#fff"/><path d="M218.94,92.46c0-2.83,2.39-3.93,6.39-3.93h1.15v-.28c0-1.15-.28-1.91-1.59-1.91a1.47,1.47,0,0,0-1.63,1.43H219.4c.18-2.9,2.46-4.33,5.74-4.33s5.43,1.36,5.43,4.56v7.79h-4v-1.4A4,4,0,0,1,223,96.07C220.84,96.07,218.94,95,218.94,92.46Zm7.54-.88v-.73H225.4c-1.66,0-2.39.32-2.39,1.31,0,.69.46,1.13,1.42,1.13A1.82,1.82,0,0,0,226.48,91.58Z" fill="#fff"/><path d="M232.92,83.77H237V85.7a4.24,4.24,0,0,1,4-2.26c2.32,0,3.93,1.45,3.93,4.53v7.82h-4.11v-7c0-1.35-.53-2-1.73-2s-2,.73-2,2.27v6.74h-4.12Z" fill="#fff"/><path d="M246.67,89.91v-.19c0-4.09,2.26-6.28,5.11-6.28a3.9,3.9,0,0,1,3.7,2v-7h4.12V95.79h-4.12v-2a4.06,4.06,0,0,1-3.75,2.23C249,96.07,246.67,94.07,246.67,89.91Zm8.93-.07v-.19c0-2-.86-3.1-2.37-3.1s-2.37,1-2.37,3.13v.18c0,2,.89,3.06,2.32,3.06S255.6,91.88,255.6,89.84Z" fill="#fff"/><path d="M20.22,109.77h4.11v1.79a4.26,4.26,0,0,1,3.75-2.12c2.81,0,5.09,2.12,5.09,6.24v.18c0,4.14-2.28,6.21-5.11,6.21a4,4,0,0,1-3.73-2v5.8H20.22ZM29,115.86v-.18c0-2.12-.92-3.13-2.37-3.13s-2.39,1.08-2.39,3.1v.19c0,2,.9,3.08,2.39,3.08S29,117.84,29,115.86Z" fill="#fff"/><path d="M35,109.77h4.11v2.39A3.8,3.8,0,0,1,43,109.6v3.85c-2.51-.07-3.89.71-3.89,2.64v5.7H35Z" fill="#fff"/><path d="M44.76,106.5A2.27,2.27,0,1,1,47,108.62,2.15,2.15,0,0,1,44.76,106.5Zm.21,3.27h4.11v12H45Z" fill="#fff"/><path d="M51,115.93v-.19a6.05,6.05,0,0,1,6.42-6.3c2.94,0,5.65,1.29,5.88,5H59.43a1.77,1.77,0,0,0-1.93-1.75c-1.45,0-2.3,1-2.3,3.06v.18c0,2.1.81,3.18,2.37,3.18a2,2,0,0,0,2.09-2h3.7c-.11,3-2.16,5-6,5C53.73,122.07,51,120,51,115.93Z" fill="#fff"/><path d="M64.4,115.93v-.19a6.16,6.16,0,0,1,6.51-6.3c3.29,0,6.12,1.89,6.12,6.21v1.08H68.56a2.41,2.41,0,0,0,2.51,2.51c1.36,0,1.93-.62,2.09-1.43H77c-.37,2.72-2.47,4.26-6.1,4.26S64.4,119.86,64.4,115.93ZM73,114.41c-.06-1.45-.78-2.25-2.11-2.25a2.29,2.29,0,0,0-2.3,2.25Z" fill="#fff"/><path d="M78.52,119.72a2.3,2.3,0,0,1,2.35-2.32,2.33,2.33,0,1,1,0,4.65A2.3,2.3,0,0,1,78.52,119.72Z" fill="#fff"/><path d="M81.74,105.35h3.87l-.49,6.32H82.2Zm4.88,0H90.5L90,111.67H87.1Z" fill="#fff"/></g><g id="_NerdWallet_on_H_R_Block_Deluxe_Online" data-name="– NerdWallet on  H&amp;R Block Deluxe Online"><path d="M162.55,138.05h7.06v1.35h-7.06Z" fill="#fff"/><path d="M175,131.79h2.54l4.82,8.28v-8.28h1.94v11.45h-2.21l-5.16-8.77v8.77H175Z" fill="#fff"/><path d="M185.9,139.14V139a4.07,4.07,0,0,1,4.16-4.32c2.08,0,3.95,1.23,3.95,4.23v.56h-6.13c.07,1.58.87,2.48,2.31,2.48,1.17,0,1.77-.46,1.92-1.28H194c-.27,1.76-1.7,2.72-3.84,2.72A4,4,0,0,1,185.9,139.14Zm6.19-1c-.09-1.44-.83-2.08-2-2.08a2.14,2.14,0,0,0-2.14,2.08Z" fill="#fff"/><path d="M195.5,134.87h1.93v1.57a2.81,2.81,0,0,1,2.73-1.7v1.81c-1.7,0-2.73.56-2.73,2.34v4.35H195.5Z" fill="#fff"/><path d="M200.87,139.19v-.13c0-2.67,1.59-4.37,3.76-4.37a2.87,2.87,0,0,1,2.68,1.46V131h1.94v12.24h-1.94v-1.41a3.22,3.22,0,0,1-2.76,1.57C202.46,143.4,200.87,141.91,200.87,139.19Zm6.5-.1V139c0-1.84-.85-2.76-2.25-2.76s-2.26,1-2.26,2.8v.13c0,1.84.93,2.72,2.18,2.72S207.37,141,207.37,139.09Z" fill="#fff"/><path d="M210.57,131.79h2.18l2,8.41,2.23-8.41h1.76l2.27,8.46,2-8.46h2l-2.86,11.45H220l-2.26-8.34-2.32,8.34h-2Z" fill="#fff"/><path d="M225.18,140.92c0-1.95,1.89-2.66,4.29-2.66h1v-.43c0-1.12-.39-1.68-1.52-1.68a1.39,1.39,0,0,0-1.6,1.31h-1.88c.16-2,1.72-2.77,3.59-2.77s3.34.77,3.34,3.06v5.49h-1.9v-1A2.91,2.91,0,0,1,228,143.4C226.44,143.4,225.18,142.66,225.18,140.92Zm5.33-.61v-.83h-1c-1.48,0-2.42.33-2.42,1.36,0,.7.38,1.17,1.34,1.17C229.63,142,230.51,141.38,230.51,140.31Z" fill="#fff"/><path d="M234.47,131h1.94v12.24h-1.94Z" fill="#fff"/><path d="M238.57,131h1.94v12.24h-1.94Z" fill="#fff"/><path d="M242.06,139.14V139a4.07,4.07,0,0,1,4.16-4.32c2.08,0,3.95,1.23,3.95,4.23v.56H244c.07,1.58.87,2.48,2.31,2.48,1.17,0,1.77-.46,1.92-1.28h1.87c-.27,1.76-1.7,2.72-3.84,2.72A4,4,0,0,1,242.06,139.14Zm6.19-1c-.09-1.44-.83-2.08-2-2.08a2.16,2.16,0,0,0-2.15,2.08Z" fill="#fff"/><path d="M252,140.9v-4.57h-1.12v-1.46H252V133h1.93v1.84h1.84v1.46h-1.84v4.4c0,.73.36,1.07,1,1.07a2.42,2.42,0,0,0,.95-.16v1.54a3.82,3.82,0,0,1-1.31.2A2.25,2.25,0,0,1,252,140.9Z" fill="#fff"/><path d="M260.33,139.14V139a4.3,4.3,0,1,1,8.59,0v.12a4.3,4.3,0,0,1-8.59,0Zm6.61,0V139c0-1.73-.86-2.79-2.31-2.79s-2.32,1-2.32,2.77v.13c0,1.71.85,2.79,2.32,2.79S266.94,140.82,266.94,139.11Z" fill="#fff"/><path d="M270.42,134.87h1.94v1.33a2.88,2.88,0,0,1,2.71-1.51c1.68,0,2.86,1,2.86,3.28v5.27H276v-5.09c0-1.26-.52-1.84-1.67-1.84a1.85,1.85,0,0,0-2,2v4.93h-1.94Z" fill="#fff"/><path d="M95.15,149.79h2.13v4.87h5.13v-4.87h2.15v11.45h-2.15v-4.87H97.28v4.87H95.15Z" fill="#fff"/><path d="M114.7,158.9l1.92,2.34h-2.45l-1-1.17a4.1,4.1,0,0,1-3.13,1.31c-2.23,0-3.77-1.26-3.77-3.26,0-1.68,1-2.66,2.58-3.39a3.82,3.82,0,0,1-.89-2.26c0-1.81,1.48-2.77,3.15-2.77a2.61,2.61,0,0,1,2.88,2.48c0,1.33-.9,2.27-2.38,2.91l2,2.47,1.17-2.24h1.75Zm-2.48-.06-2.43-3a2.16,2.16,0,0,0-1.46,2,1.77,1.77,0,0,0,2,1.87A2.47,2.47,0,0,0,112.22,158.84Zm-1.47-4.67c1.07-.5,1.52-1,1.52-1.91a1.08,1.08,0,0,0-1.12-1.14,1.22,1.22,0,0,0-1.27,1.36A2.83,2.83,0,0,0,110.75,154.17Z" fill="#fff"/><path d="M118.14,149.79H122c2.51,0,4.27,1,4.27,3.37v.06a3,3,0,0,1-2.54,3.07l3.22,5h-2.31l-3-4.63h-1.36v4.63h-2.13Zm3.84,5.3c1.43,0,2.18-.6,2.18-1.82v-.06c0-1.32-.82-1.77-2.18-1.77h-1.71v3.65Z" fill="#fff"/><path d="M132,149.79H136c2.36,0,3.75.9,3.75,3v.07a2.34,2.34,0,0,1-1.81,2.43,2.51,2.51,0,0,1,2.29,2.7V158c0,2.13-1.41,3.2-3.92,3.2H132Zm3.84,4.82c1.41,0,2-.51,2-1.68v-.06c0-1.09-.62-1.55-2-1.55H134v3.29Zm.3,5.11c1.43,0,2.08-.64,2.08-1.83v-.06c0-1.18-.65-1.78-2.22-1.78H134v3.67Z" fill="#fff"/><path d="M141.91,149h1.94v12.24h-1.94Z" fill="#fff"/><path d="M145.4,157.14V157a4.3,4.3,0,0,1,8.6,0v.12a4.3,4.3,0,0,1-8.6,0Zm6.61,0V157c0-1.73-.86-2.79-2.3-2.79s-2.32,1-2.32,2.77v.13c0,1.71.85,2.79,2.32,2.79S152,158.82,152,157.11Z" fill="#fff"/><path d="M154.94,157.16V157a4.12,4.12,0,0,1,4.22-4.34c1.86,0,3.61.83,3.83,3.14h-1.87a1.72,1.72,0,0,0-1.92-1.58c-1.33,0-2.28,1-2.28,2.75v.13c0,1.82.9,2.78,2.32,2.78a1.91,1.91,0,0,0,2-1.79H163a3.55,3.55,0,0,1-3.88,3.28A4,4,0,0,1,154.94,157.16Z" fill="#fff"/><path d="M164.46,149h1.94v7.55l3-3.68h2.11l-3.25,3.84,3.52,4.53h-2.24l-3.13-4.11v4.11h-1.94Z" fill="#fff"/><path d="M176.59,149.79h3.47c4,0,5.92,2.28,5.92,5.61v.14c0,3.33-1.94,5.7-5.95,5.7h-3.44Zm3.37,9.77c2.56,0,3.8-1.47,3.8-4v-.13c0-2.47-1.12-4-3.81-4h-1.24v8.08Z" fill="#fff"/><path d="M187.05,157.14V157a4.07,4.07,0,0,1,4.16-4.32c2.08,0,4,1.23,4,4.23v.56H189c.07,1.58.87,2.48,2.31,2.48,1.17,0,1.78-.46,1.92-1.28h1.87c-.27,1.76-1.69,2.72-3.84,2.72A4,4,0,0,1,187.05,157.14Zm6.19-1c-.09-1.44-.83-2.08-2-2.08a2.14,2.14,0,0,0-2.14,2.08Z" fill="#fff"/><path d="M196.7,149h1.93v12.24H196.7Z" fill="#fff"/><path d="M200.67,158.23v-5.36h1.93V158c0,1.26.53,1.84,1.65,1.84a1.87,1.87,0,0,0,1.95-2v-5h1.94v8.37H206.2v-1.31a2.81,2.81,0,0,1-2.65,1.47C201.9,161.4,200.67,160.46,200.67,158.23Z" fill="#fff"/><path d="M212.28,157l-2.72-4.08h2.24l1.75,2.7,1.73-2.7h2l-2.71,3.94,3,4.43h-2.26l-2-3-2,3h-2Z" fill="#fff"/><path d="M217.75,157.14V157a4.07,4.07,0,0,1,4.17-4.32c2.08,0,4,1.23,4,4.23v.56h-6.13c.06,1.58.86,2.48,2.3,2.48,1.17,0,1.78-.46,1.92-1.28h1.88c-.28,1.76-1.7,2.72-3.84,2.72A4,4,0,0,1,217.75,157.14Zm6.2-1c-.1-1.44-.83-2.08-2-2.08a2.15,2.15,0,0,0-2.15,2.08Z" fill="#fff"/><path d="M230.5,155.59v-.13a5.62,5.62,0,0,1,5.8-5.82,5.53,5.53,0,0,1,5.76,5.77v.13a5.78,5.78,0,1,1-11.56.05Zm9.35,0v-.13c0-2.35-1.31-4.1-3.55-4.1s-3.57,1.65-3.57,4.12v.12c0,2.5,1.52,4.12,3.6,4.12S239.85,158,239.85,155.56Z" fill="#fff"/><path d="M243.71,152.87h1.93v1.33a2.88,2.88,0,0,1,2.71-1.51c1.68,0,2.86,1,2.86,3.28v5.27h-1.93v-5.09c0-1.26-.52-1.84-1.67-1.84a1.85,1.85,0,0,0-2,2v4.93h-1.93Z" fill="#fff"/><path d="M253.24,149h1.94v12.24h-1.94Z" fill="#fff"/><path d="M257.13,150.39a1.15,1.15,0,1,1,1.15,1.1A1.12,1.12,0,0,1,257.13,150.39Zm.21,2.48h1.93v8.37h-1.93Z" fill="#fff"/><path d="M261.38,152.87h1.94v1.33a2.88,2.88,0,0,1,2.71-1.51c1.68,0,2.86,1,2.86,3.28v5.27H267v-5.09c0-1.26-.52-1.84-1.67-1.84a1.85,1.85,0,0,0-2,2v4.93h-1.94Z" fill="#fff"/><path d="M270.31,157.14V157a4.07,4.07,0,0,1,4.16-4.32c2.08,0,4,1.23,4,4.23v.56H272.3c.06,1.58.86,2.48,2.3,2.48,1.17,0,1.78-.46,1.92-1.28h1.88c-.28,1.76-1.7,2.72-3.85,2.72A4,4,0,0,1,270.31,157.14Zm6.2-1c-.1-1.44-.84-2.08-2-2.08a2.15,2.15,0,0,0-2.14,2.08Z" fill="#fff"/></g></g></g></svg>