<svg xmlns="http://www.w3.org/2000/svg" viewBox="0 0 160 600"><title>H156</title><g id="Layer_2" data-name="Layer 2"><g id="Rect"><rect width="160" height="600" fill="none"/></g><g id="If_you_re_not_using_H_R_Block_you_may_be_paying_too_much_for_t" data-name="If you&apos;re not using H&amp;R Block, you may be paying too much for t"><path d="M22.61,20.83h4.55V36.57H22.61Z" fill="#14aa40"/><path d="M30.17,27.74H28.72V25.06h1.45v-1c0-2.86,1.79-4.23,4.51-4.23a7.15,7.15,0,0,1,1.81.24V23a3.57,3.57,0,0,0-1.08-.16,1.16,1.16,0,0,0-1.32,1.26v1h2.33v2.68H34.09v8.83H30.17Z" fill="#14aa40"/><path d="M45.35,35.4,40.76,25.06H45L47.4,31.2l2.2-6.14h3.76L47.2,40.42H43.44Z" fill="#14aa40"/><path d="M53.14,31v-.18c0-3.7,2.75-6,6.32-6s6.27,2.27,6.27,5.92v.17c0,3.75-2.75,6-6.3,6S53.14,34.67,53.14,31Zm8.58-.07v-.18c0-1.93-.77-3-2.26-3s-2.29,1-2.29,3v.17c0,2,.77,3.06,2.29,3.06S61.72,32.8,61.72,30.89Z" fill="#14aa40"/><path d="M67,32.56v-7.5H71v6.86c0,1.3.51,1.94,1.63,1.94s2-.7,2-2.18V25.06h3.94V36.57H74.55V34.78a3.79,3.79,0,0,1-3.65,2C68.67,36.83,67,35.47,67,32.56Z" fill="#14aa40"/><path d="M80.22,20.83h3.85l-.46,6.05h-3Z" fill="#14aa40"/><path d="M85.79,25.06h3.94v2.29a3.62,3.62,0,0,1,3.72-2.45v3.68c-2.4-.07-3.72.68-3.72,2.53v5.46H85.79Z" fill="#14aa40"/><path d="M94.15,31v-.18a5.89,5.89,0,0,1,6.23-6c3.14,0,5.85,1.8,5.85,5.94v1h-8.1a2.3,2.3,0,0,0,2.4,2.39c1.3,0,1.85-.59,2-1.36h3.7c-.35,2.6-2.36,4.07-5.83,4.07S94.15,34.72,94.15,31Zm8.25-1.46c-.07-1.38-.75-2.15-2-2.15a2.2,2.2,0,0,0-2.21,2.15Z" fill="#14aa40"/><path d="M22.17,49.06H26.1v1.85a4.08,4.08,0,0,1,3.79-2.16c2.22,0,3.76,1.39,3.76,4.33v7.49H29.71V53.88c0-1.3-.5-1.94-1.65-1.94s-2,.7-2,2.18v6.45H22.17Z" fill="#14aa40"/><path d="M35,55v-.18c0-3.7,2.75-6,6.31-6s6.27,2.27,6.27,5.92v.17c0,3.75-2.75,6-6.29,6S35,58.67,35,55Zm8.58-.07v-.18c0-1.93-.77-3-2.27-3s-2.29,1-2.29,3v.17c0,2,.77,3.06,2.29,3.06S43.53,56.8,43.53,54.89Z" fill="#14aa40"/><path d="M49.45,56.87V51.74H48.06V49.06h1.39v-2.4h3.93v2.4h2.27v2.68H53.38V56.5a1.05,1.05,0,0,0,1.17,1.21,3,3,0,0,0,1.12-.2v3a8.28,8.28,0,0,1-2.18.33C50.9,60.83,49.45,59.58,49.45,56.87Z" fill="#14aa40"/><path d="M61.06,56.56v-7.5H65v6.86c0,1.3.51,1.94,1.63,1.94s2-.7,2-2.18V49.06h3.94V60.57H68.59V58.78a3.79,3.79,0,0,1-3.66,2C62.71,60.83,61.06,59.47,61.06,56.56Z" fill="#14aa40"/><path d="M73.75,56.91h3.64c.13.84.5,1.3,1.62,1.3,1,0,1.41-.37,1.41-.94s-.55-.82-2.13-1c-3.08-.4-4.38-1.3-4.38-3.7,0-2.55,2.27-3.78,4.93-3.78,2.84,0,4.82,1,5.08,3.72H80.36a1.3,1.3,0,0,0-1.48-1.15c-.86,0-1.3.38-1.3.91s.53.77,1.94.94c3.19.4,4.73,1.23,4.73,3.7,0,2.73-2,4-5.21,4S73.84,59.47,73.75,56.91Z" fill="#14aa40"/><path d="M85.44,45.93a2.17,2.17,0,1,1,2.15,2A2.05,2.05,0,0,1,85.44,45.93Zm.19,3.13h3.94V60.57H85.63Z" fill="#14aa40"/><path d="M91.69,49.06h3.93v1.85a4.07,4.07,0,0,1,3.79-2.16c2.22,0,3.76,1.39,3.76,4.33v7.49H99.23V53.88c0-1.3-.5-1.94-1.65-1.94s-2,.7-2,2.18v6.45H91.69Z" fill="#14aa40"/><path d="M104.45,60.57h3.91c.18.83.68,1.49,2.11,1.49a2.18,2.18,0,0,0,2.45-2.42V57.88A4,4,0,0,1,109.35,60c-2.68,0-4.88-2-4.88-5.52v-.18c0-3.38,2.18-5.54,4.88-5.54a3.74,3.74,0,0,1,3.57,1.94V49.06h3.93V59.6c0,3.43-2.26,5.23-6.38,5.23C106.56,64.83,104.75,63.18,104.45,60.57ZM113,54.45v-.16c0-1.58-.82-2.59-2.27-2.59s-2.27,1-2.27,2.62v.17c0,1.59.84,2.6,2.25,2.6S113,56.08,113,54.45Z" fill="#14aa40"/><path d="M22.52,68.83h4.53v6h5.17v-6h4.51V84.57H32.22V78.36H27.05v6.21H22.52Z" fill="#14aa40"/><path d="M51.82,81.35l2.62,3.22H49.32l-.93-1.15a6.27,6.27,0,0,1-4.24,1.41c-3.35,0-5.53-1.76-5.53-4.75,0-2,1.23-3.52,3.46-4.58a5,5,0,0,1-1-2.75c0-2.68,2.29-4.11,5.06-4.11,2.51,0,4.77,1.25,4.77,3.67,0,1.72-1,3-3.14,3.89l2,2.42,1.14-2.24h3.43Zm-5.45-.46-2.49-3a1.86,1.86,0,0,0-1.06,1.69,1.83,1.83,0,0,0,2,2A2.07,2.07,0,0,0,46.37,80.89Zm-.49-6.34c1.06-.5,1.57-1.1,1.57-1.91a1.14,1.14,0,0,0-1.17-1.21A1.26,1.26,0,0,0,45,72.79,2.84,2.84,0,0,0,45.88,74.55Z" fill="#14aa40"/><path d="M55.87,68.83H62c4.12,0,6.4,1.68,6.4,5v.09a4.1,4.1,0,0,1-2.83,4.13l3.76,6.52H64.61l-3.19-5.64H60.36v5.64H55.87ZM61.81,76c1.52,0,2.27-.64,2.27-1.92V74c0-1.27-.79-1.78-2.25-1.78H60.36V76Z" fill="#14aa40"/><path d="M74.88,68.83h7c3.72,0,5.3,1.68,5.3,4.12V73a3.23,3.23,0,0,1-2.66,3.38,3.42,3.42,0,0,1,3.14,3.68v.09c0,2.81-1.82,4.38-5.72,4.38H74.88ZM81,75.08c1.41,0,1.94-.48,1.94-1.6v-.09c0-1.08-.57-1.56-1.94-1.56H79.28v3.25Zm.16,6.47c1.43,0,2.09-.66,2.09-1.82v-.09c0-1.19-.64-1.81-2.22-1.81H79.28v3.72Z" fill="#14aa40"/><path d="M89.24,68h3.92V84.57H89.24Z" fill="#14aa40"/><path d="M94.66,79v-.18c0-3.7,2.75-6,6.31-6s6.27,2.27,6.27,5.92v.17c0,3.75-2.75,6-6.29,6S94.66,82.67,94.66,79Zm8.58-.07v-.18c0-1.93-.77-3-2.27-3s-2.29,1-2.29,3v.17c0,2,.77,3.06,2.29,3.06S103.24,80.8,103.24,78.89Z" fill="#14aa40"/><path d="M108,79v-.18a5.79,5.79,0,0,1,6.14-6c2.81,0,5.41,1.23,5.63,4.73h-3.7a1.69,1.69,0,0,0-1.84-1.67c-1.39,0-2.2,1-2.2,2.92v.18c0,2,.77,3,2.26,3a1.91,1.91,0,0,0,2-1.92h3.55c-.11,2.91-2.07,4.8-5.79,4.8C110.63,84.83,108,82.83,108,79Z" fill="#14aa40"/><path d="M121.12,68h3.94v9.61l3.1-4.55h4.09l-3.76,5.17,4.07,6.34h-4.4l-3.1-5v5h-3.94Z" fill="#14aa40"/><path d="M132.67,86.35l1.85-5.79,3.65,1.3L135,87.25Z" fill="#14aa40"/><path d="M25.77,107.4,21.18,97.06h4.26l2.38,6.14L30,97.06h3.76l-6.16,15.36H23.86Z" fill="#14aa40"/><path d="M33.56,103v-.18c0-3.7,2.75-6,6.32-6s6.27,2.27,6.27,5.92v.17c0,3.75-2.75,6-6.3,6S33.56,106.67,33.56,103Zm8.58-.07v-.18c0-1.93-.77-3-2.26-3s-2.29,1-2.29,3v.17c0,2,.77,3.06,2.29,3.06S42.14,104.8,42.14,102.89Z" fill="#14aa40"/><path d="M47.44,104.56v-7.5h3.94v6.86c0,1.3.51,1.94,1.63,1.94s2-.7,2-2.18V97.06h3.94v11.51H55v-1.79a3.79,3.79,0,0,1-3.65,2C49.09,108.83,47.44,107.47,47.44,104.56Z" fill="#14aa40"/><path d="M64.91,97.06h3.94v1.76a4,4,0,0,1,3.61-2.07,3.13,3.13,0,0,1,3.12,1.91,4.57,4.57,0,0,1,3.81-1.91c2.18,0,3.76,1.41,3.76,4.29v7.53H79.21V101.7c0-1.17-.57-1.74-1.47-1.74A1.7,1.7,0,0,0,76,101.9v6.67h-3.9V101.7c0-1.17-.57-1.74-1.47-1.74a1.7,1.7,0,0,0-1.76,1.94v6.67H64.91Z" fill="#14aa40"/><path d="M84.4,105.38c0-2.71,2.29-3.77,6.12-3.77h1.1v-.26c0-1.1-.26-1.83-1.52-1.83a1.41,1.41,0,0,0-1.56,1.37h-3.7c.18-2.78,2.36-4.14,5.5-4.14s5.2,1.3,5.2,4.36v7.46H91.71v-1.35a3.77,3.77,0,0,1-3.41,1.61C86.23,108.83,84.4,107.82,84.4,105.38Zm7.22-.84v-.71h-1c-1.59,0-2.29.31-2.29,1.26,0,.66.44,1.08,1.36,1.08A1.74,1.74,0,0,0,91.62,104.54Z" fill="#14aa40"/><path d="M100.66,107.4l-4.6-10.34h4.27l2.38,6.14,2.2-6.14h3.76l-6.16,15.36H98.75Z" fill="#14aa40"/><path d="M117.62,106.78v1.79h-3.94V92h3.94v6.77a4.06,4.06,0,0,1,3.59-2c2.68,0,4.86,2,4.86,6v.18c0,4-2.18,5.94-4.88,5.94A3.73,3.73,0,0,1,117.62,106.78Zm4.45-3.89v-.18c0-2-.88-3-2.27-3s-2.29,1-2.29,3v.18c0,2,.86,2.95,2.29,2.95S122.07,104.78,122.07,102.89Z" fill="#14aa40"/><path d="M126.88,103v-.18a5.89,5.89,0,0,1,6.23-6c3.15,0,5.85,1.8,5.85,5.94v1h-8.09a2.3,2.3,0,0,0,2.4,2.39c1.29,0,1.84-.59,2-1.36H139c-.35,2.6-2.35,4.07-5.83,4.07S126.88,106.72,126.88,103Zm8.26-1.46c-.07-1.38-.75-2.15-2-2.15a2.19,2.19,0,0,0-2.2,2.15Z" fill="#14aa40"/><path d="M22.17,121.06H26.1v1.71a4.06,4.06,0,0,1,3.59-2c2.69,0,4.86,2,4.86,6v.18c0,4-2.17,5.94-4.88,5.94a3.8,3.8,0,0,1-3.57-2v5.55H22.17Zm8.38,5.83v-.18c0-2-.88-3-2.27-3s-2.29,1-2.29,3v.18c0,2,.86,2.95,2.29,2.95S30.55,128.78,30.55,126.89Z" fill="#14aa40"/><path d="M35.32,129.38c0-2.71,2.29-3.77,6.12-3.77h1.1v-.26c0-1.1-.27-1.83-1.52-1.83a1.41,1.41,0,0,0-1.56,1.37h-3.7c.18-2.78,2.36-4.14,5.5-4.14s5.2,1.3,5.2,4.36v7.46H42.63v-1.35a3.78,3.78,0,0,1-3.41,1.61C37.15,132.83,35.32,131.82,35.32,129.38Zm7.22-.84v-.71h-1c-1.58,0-2.28.31-2.28,1.26,0,.66.44,1.08,1.36,1.08A1.74,1.74,0,0,0,42.54,128.54Z" fill="#14aa40"/><path d="M51.58,131.4,47,121.06h4.27l2.38,6.14,2.2-6.14h3.76l-6.16,15.36H49.67Z" fill="#14aa40"/><path d="M60.51,117.93a2.17,2.17,0,1,1,2.16,2A2.06,2.06,0,0,1,60.51,117.93Zm.2,3.13h3.94v11.51H60.71Z" fill="#14aa40"/><path d="M66.76,121.06H70.7v1.85a4.05,4.05,0,0,1,3.78-2.16c2.23,0,3.77,1.39,3.77,4.33v7.49H74.31v-6.69c0-1.3-.51-1.94-1.65-1.94s-2,.7-2,2.18v6.45H66.76Z" fill="#14aa40"/><path d="M79.52,132.57h3.92c.17.83.68,1.49,2.11,1.49A2.17,2.17,0,0,0,88,131.64v-1.76A4,4,0,0,1,84.43,132c-2.69,0-4.89-2-4.89-5.52v-.18c0-3.38,2.18-5.54,4.89-5.54A3.74,3.74,0,0,1,88,122.69v-1.63h3.94V131.6c0,3.43-2.27,5.23-6.38,5.23C81.63,136.83,79.83,135.18,79.52,132.57Zm8.58-6.12v-.16c0-1.58-.81-2.59-2.27-2.59s-2.26,1-2.26,2.62v.17c0,1.59.83,2.6,2.24,2.6S88.1,128.08,88.1,126.45Z" fill="#14aa40"/><path d="M98.46,128.87v-5.13H97.08v-2.68h1.38v-2.4h3.94v2.4h2.27v2.68H102.4v4.76a1.05,1.05,0,0,0,1.17,1.21,3,3,0,0,0,1.12-.2v3a8.42,8.42,0,0,1-2.18.33C99.91,132.83,98.46,131.58,98.46,128.87Z" fill="#14aa40"/><path d="M105.54,127v-.18c0-3.7,2.75-6,6.32-6s6.27,2.27,6.27,5.92v.17c0,3.75-2.75,6-6.29,6S105.54,130.67,105.54,127Zm8.59-.07v-.18c0-1.93-.77-3-2.27-3s-2.29,1-2.29,3v.17c0,2,.77,3.06,2.29,3.06S114.13,128.8,114.13,126.89Z" fill="#14aa40"/><path d="M118.9,127v-.18c0-3.7,2.75-6,6.31-6s6.27,2.27,6.27,5.92v.17c0,3.75-2.75,6-6.29,6S118.9,130.67,118.9,127Zm8.58-.07v-.18c0-1.93-.77-3-2.27-3s-2.29,1-2.29,3v.17c0,2,.78,3.06,2.29,3.06S127.48,128.8,127.48,126.89Z" fill="#14aa40"/><path d="M22.17,145.06H26.1v1.76a4,4,0,0,1,3.61-2.07,3.14,3.14,0,0,1,3.13,1.91,4.55,4.55,0,0,1,3.8-1.91c2.18,0,3.77,1.41,3.77,4.29v7.53H36.47V149.7c0-1.17-.57-1.74-1.48-1.74a1.71,1.71,0,0,0-1.76,1.94v6.67H29.34V149.7c0-1.17-.57-1.74-1.47-1.74a1.71,1.71,0,0,0-1.77,1.94v6.67H22.17Z" fill="#14aa40"/><path d="M42.23,152.56v-7.5h3.94v6.86c0,1.3.5,1.94,1.63,1.94s2-.7,2-2.18v-6.62h3.93v11.51H49.76v-1.79a3.79,3.79,0,0,1-3.66,2.05C43.88,156.83,42.23,155.47,42.23,152.56Z" fill="#14aa40"/><path d="M55.08,151v-.18a5.79,5.79,0,0,1,6.14-6c2.81,0,5.41,1.23,5.63,4.73h-3.7a1.69,1.69,0,0,0-1.85-1.67c-1.38,0-2.2,1-2.2,2.92v.18c0,2,.77,3,2.27,3a1.91,1.91,0,0,0,2-1.92h3.55c-.11,2.91-2.07,4.8-5.79,4.8C57.7,156.83,55.08,154.83,55.08,151Z" fill="#14aa40"/><path d="M68.19,140h3.94v6.91a4.05,4.05,0,0,1,3.78-2.16c2.23,0,3.77,1.39,3.77,4.33v7.49H75.74v-6.69c0-1.3-.51-1.94-1.65-1.94s-2,.7-2,2.18v6.45H68.19Z" fill="#14aa40"/><path d="M86.19,147.74H84.73v-2.68h1.46v-1c0-2.86,1.78-4.23,4.51-4.23a7.13,7.13,0,0,1,1.8.24V143a3.57,3.57,0,0,0-1.08-.16,1.16,1.16,0,0,0-1.32,1.26v1h2.33v2.68H90.1v8.83H86.19Z" fill="#14aa40"/><path d="M92.74,151v-.18c0-3.7,2.75-6,6.32-6s6.27,2.27,6.27,5.92v.17c0,3.75-2.75,6-6.3,6S92.74,154.67,92.74,151Zm8.58-.07v-.18c0-1.93-.77-3-2.26-3s-2.29,1-2.29,3v.17c0,2,.77,3.06,2.29,3.06S101.32,152.8,101.32,150.89Z" fill="#14aa40"/><path d="M106.71,145.06h3.94v2.29a3.64,3.64,0,0,1,3.72-2.45v3.68c-2.4-.07-3.72.68-3.72,2.53v5.46h-3.94Z" fill="#14aa40"/><path d="M22.69,176.87v-5.13H21.31v-2.68h1.38v-2.4h3.94v2.4H28.9v2.68H26.63v4.76a1.05,1.05,0,0,0,1.17,1.21,3,3,0,0,0,1.12-.2v3a8.28,8.28,0,0,1-2.18.33C24.15,180.83,22.69,179.58,22.69,176.87Z" fill="#14aa40"/><path d="M29.78,177.38c0-2.71,2.29-3.77,6.11-3.77H37v-.26c0-1.1-.27-1.83-1.52-1.83a1.42,1.42,0,0,0-1.57,1.37H30.22c.17-2.78,2.35-4.14,5.5-4.14s5.19,1.3,5.19,4.36v7.46H37.08v-1.35a3.77,3.77,0,0,1-3.41,1.61C31.6,180.83,29.78,179.82,29.78,177.38Zm7.22-.84v-.71H36c-1.58,0-2.29.31-2.29,1.26,0,.66.44,1.08,1.37,1.08A1.74,1.74,0,0,0,37,176.54Z" fill="#14aa40"/><path d="M45.73,174.71l-3.59-5.65h4.53l1.79,3,1.73-3h4.05l-3.63,5.34,4,6.17H50.06l-2-3.44-2.09,3.44h-4Z" fill="#14aa40"/><path d="M59.7,169.06h3.94v1.71a4,4,0,0,1,3.58-2c2.69,0,4.86,2,4.86,6v.18c0,4-2.17,5.94-4.88,5.94a3.78,3.78,0,0,1-3.56-2v5.55H59.7Zm8.38,5.83v-.18c0-2-.88-3-2.27-3s-2.28,1-2.28,3v.18c0,2,.85,2.95,2.28,2.95S68.08,176.78,68.08,174.89Z" fill="#14aa40"/><path d="M73.51,169.06h3.94v2.29a3.64,3.64,0,0,1,3.72-2.45v3.68c-2.4-.07-3.72.68-3.72,2.53v5.46H73.51Z" fill="#14aa40"/><path d="M81.87,175v-.18a5.89,5.89,0,0,1,6.23-6c3.15,0,5.85,1.8,5.85,5.94v1H85.86a2.29,2.29,0,0,0,2.39,2.39c1.3,0,1.85-.59,2-1.36H94c-.35,2.6-2.35,4.07-5.83,4.07S81.87,178.72,81.87,175Zm8.25-1.46c-.06-1.38-.74-2.15-2-2.15a2.19,2.19,0,0,0-2.2,2.15Z" fill="#14aa40"/><path d="M95.32,169.06h3.93v1.71a4.06,4.06,0,0,1,3.59-2c2.68,0,4.86,2,4.86,6v.18c0,4-2.18,5.94-4.88,5.94a3.8,3.8,0,0,1-3.57-2v5.55H95.32Zm8.38,5.83v-.18c0-2-.88-3-2.27-3s-2.29,1-2.29,3v.18c0,2,.86,2.95,2.29,2.95S103.7,176.78,103.7,174.89Z" fill="#14aa40"/><path d="M108.69,178.59a2.2,2.2,0,0,1,2.25-2.23,2.23,2.23,0,1,1,0,4.45A2.2,2.2,0,0,1,108.69,178.59Z" fill="#14aa40"/></g></g></svg>