<svg xmlns="http://www.w3.org/2000/svg" viewBox="0 0 300 600"><title>H137</title><g id="Layer_2" data-name="Layer 2"><g id="Artboard_2" data-name="Artboard 2" style="isolation:isolate"><g id="File_for_nada_zilch_zip_with_Free_Online." data-name="File for nada, zilch, zip with Free Online."><path d="M28.27,142.32l21.42.11,0,7-12.29-.07,0,6.74,9.8,0,0,6.7-9.8-.05-.06,11.22-9.13,0Z" fill="#fff"/><path d="M51.94,144.65a4.14,4.14,0,0,1,4.36-4.1,4.18,4.18,0,0,1,4.37,4.15,4.38,4.38,0,0,1-8.73,0Zm.37,6.3,7.93,0-.11,23.19-7.94,0Z" fill="#fff"/><path d="M64.77,140.82l7.89,0-.16,33.39-7.9,0Z" fill="#fff"/><path d="M75.57,163v-.35c0-7.45,5.6-12.12,12.61-12.09,6.34,0,11.77,3.69,11.73,12v2.08l-16.32-.08c.21,3.06,2,4.85,4.81,4.86,2.62,0,3.73-1.18,4-2.73l7.45,0c-.73,5.23-4.78,8.18-11.79,8.14C80.83,174.82,75.53,170.53,75.57,163Zm16.64-2.84c-.12-2.8-1.49-4.35-4.06-4.37-2.39,0-4,1.53-4.46,4.33Z" fill="#fff"/><path d="M112,156.66l-2.93,0,0-5.41,2.93,0v-2c0-5.77,3.63-8.5,9.13-8.47a14.29,14.29,0,0,1,3.63.51l0,5.81a7.53,7.53,0,0,0-2.18-.33,2.33,2.33,0,0,0-2.67,2.52v2l4.7,0,0,5.41-4.7,0-.08,17.78-7.9,0Z" fill="#fff"/><path d="M125.13,163.2v-.36c0-7.45,5.61-12.12,12.79-12.08s12.61,4.63,12.58,12v.35c0,7.54-5.61,12-12.75,12S125.09,170.69,125.13,163.2Zm17.29,0v-.35c0-3.91-1.53-6.09-4.54-6.1s-4.62,2.06-4.64,6V163c0,4,1.52,6.17,4.58,6.18S142.41,167,142.42,163.15Z" fill="#fff"/><path d="M153.34,151.45l7.94,0,0,4.62a7.3,7.3,0,0,1,7.51-4.89l0,7.41c-4.83-.16-7.5,1.33-7.52,5.06l-.06,11-7.93,0Z" fill="#fff"/><path d="M27.25,204.65l7.94,0,0,3.72a8.19,8.19,0,0,1,7.65-4.31c4.48,0,7.57,2.83,7.54,8.78L50.29,228l-7.94,0,.07-13.48c0-2.61-1-3.9-3.31-3.92s-4,1.4-4,4.37l-.06,13-7.94,0Z" fill="#fff"/><path d="M52.84,221.53c0-5.45,4.65-7.55,12.37-7.52h2.21v-.53c0-2.21-.51-3.68-3-3.69a2.85,2.85,0,0,0-3.16,2.73l-7.45,0c.38-5.58,4.79-8.31,11.13-8.28s10.45,2.67,10.42,8.83l-.07,15-7.72,0v-2.71c-1.11,1.68-3.16,3.22-6.89,3.21C56.49,228.52,52.82,226.46,52.84,221.53Zm14.55-1.61V218.5H65.32c-3.2,0-4.62.6-4.63,2.51,0,1.33.88,2.17,2.74,2.18C65.69,223.19,67.38,221.92,67.39,219.92Z" fill="#fff"/><path d="M78,216.74v-.36c0-7.89,4.41-12.08,9.91-12,3.63,0,5.8,1.58,7.12,3.93l.06-13.48,7.94,0-.16,33.39-7.94,0,0-3.77a7.82,7.82,0,0,1-7.25,4.27C82.33,228.64,78,224.76,78,216.74Zm17.21-.05v-.35c0-3.91-1.61-6-4.54-6s-4.58,2-4.6,6v.36c0,3.9,1.7,5.91,4.45,5.92S95.19,220.64,95.21,216.69Z" fill="#fff"/><path d="M105.6,221.8c0-5.46,4.65-7.56,12.36-7.52h2.22v-.54c0-2.21-.51-3.68-3-3.69a2.85,2.85,0,0,0-3.16,2.73l-7.45,0c.38-5.59,4.79-8.32,11.13-8.29s10.45,2.67,10.42,8.84l-.08,15-7.71,0v-2.71c-1.12,1.68-3.16,3.23-6.89,3.21C109.24,228.78,105.57,226.72,105.6,221.8Zm14.55-1.62v-1.41l-2.09,0c-3.19,0-4.61.6-4.62,2.51,0,1.33.87,2.18,2.74,2.19C118.45,223.46,120.14,222.18,120.15,220.18Z" fill="#fff"/><path d="M130.2,231.94,134,220.3l7.35,2.65-6.44,10.83Z" fill="#fff"/><path d="M150.92,227.65l10.24-16.35-9.09-.05,0-6,20.44.1v.84L162,222.52l9.89,0,0,6-21-.11Z" fill="#fff"/><path d="M174.65,199.08A4.14,4.14,0,0,1,179,195a4.19,4.19,0,0,1,4.37,4.15,4.38,4.38,0,0,1-8.74,0Zm.37,6.3,7.94,0-.12,23.19-7.94,0Z" fill="#fff"/><path d="M187.48,195.24l7.9,0-.17,33.39-7.89,0Z" fill="#fff"/><path d="M198.28,217.38V217c0-7.72,5.6-12.13,12.43-12.09,5.68,0,10.9,2.53,11.31,9.59l-7.45,0c-.35-2.17-1.41-3.38-3.71-3.39-2.79,0-4.44,2-4.46,5.88v.35c0,4,1.53,6.13,4.54,6.14,2.22,0,3.78-1.31,4-3.83l7.14,0c-.25,5.85-4.21,9.65-11.71,9.61C203.5,229.25,198.24,225.18,198.28,217.38Z" fill="#fff"/><path d="M224.81,195.43l7.94,0-.07,13.92a8.2,8.2,0,0,1,7.65-4.31c4.48,0,7.57,2.84,7.54,8.78l-.08,15.07-7.93,0,.06-13.48c0-2.61-1-3.9-3.3-3.91s-4,1.4-4,4.37l-.07,13-7.93,0Z" fill="#fff"/><path d="M250,232.54l3.78-11.65,7.35,2.66-6.44,10.83Z" fill="#fff"/><path d="M25,280.85l10.24-16.36-9.09,0,0-6,20.44.1v.84l-10.5,16.31,9.89.05,0,6-21-.11Z" fill="#fff"/><path d="M48.7,252.27A4.37,4.37,0,1,1,53,256.38,4.14,4.14,0,0,1,48.7,252.27Zm.37,6.3,7.93,0-.11,23.19-7.94,0Z" fill="#fff"/><path d="M61.26,258.63l7.94,0,0,3.46a8.17,8.17,0,0,1,7.25-4c5.41,0,9.78,4.13,9.74,12.06v.36c0,8-4.45,11.95-9.9,11.92-3.5,0-6-1.67-7.16-4L69,289.62l-7.94,0Zm16.83,11.84v-.36c0-4.08-1.75-6-4.54-6.05s-4.62,2.06-4.64,6v.36c0,3.94,1.7,5.95,4.59,6S78.07,274.28,78.09,270.47Z" fill="#fff"/><path d="M95.22,258.8l8.29,0,3.3,13.9,4-13.86,6.39,0,3.38,13.9L124.39,259l7.54,0-7.48,23.16-7.58,0-3.39-13-3.66,12.93-7.71,0Z" fill="#fff"/><path d="M133.82,252.7a4.37,4.37,0,1,1,4.32,4.1A4.13,4.13,0,0,1,133.82,252.7Zm.37,6.3,7.93,0L142,282.23l-7.94,0Z" fill="#fff"/><path d="M147.36,274.8l.06-10.33h-2.8l0-5.41h2.79l0-4.83,7.93,0,0,4.83,4.57,0,0,5.41-4.57,0,0,9.58a2.13,2.13,0,0,0,2.34,2.45,6.21,6.21,0,0,0,2.27-.39l0,6a17,17,0,0,1-4.4.65C150.25,282.8,147.34,280.26,147.36,274.8Z" fill="#fff"/><path d="M163,248.94l7.94,0-.07,13.92a8.19,8.19,0,0,1,7.65-4.3c4.47,0,7.57,2.83,7.54,8.77L186,282.44l-7.94,0,.07-13.48c0-2.62-1-3.91-3.31-3.92s-3.95,1.4-4,4.37l-.07,13-7.94,0Z" fill="#fff"/><path d="M27.47,303.77l21.42.11,0,7.05-12.28-.06,0,6.74,9.8.05,0,6.69-9.8-.05,0,11.22-9.14,0Z" fill="#fff"/><path d="M51,312.4l7.94,0,0,4.61a7.3,7.3,0,0,1,7.51-4.88l0,7.4c-4.84-.15-7.5,1.34-7.52,5.06l-.06,11-7.94,0Z" fill="#fff"/><path d="M67.76,324.37V324c0-7.45,5.6-12.12,12.61-12.08,6.34,0,11.78,3.69,11.73,12V326L75.78,326c.2,3.06,2,4.84,4.81,4.86,2.61,0,3.73-1.18,4-2.73l7.44,0c-.73,5.22-4.78,8.17-11.79,8.14C73,336.23,67.72,332,67.76,324.37Zm16.64-2.85c-.12-2.79-1.48-4.35-4.06-4.36-2.39,0-4,1.53-4.45,4.32Z" fill="#fff"/><path d="M93.6,324.5v-.36c0-7.45,5.6-12.12,12.61-12.08,6.34,0,11.77,3.69,11.73,12v2.08l-16.32-.08c.21,3.06,2,4.84,4.81,4.86,2.62,0,3.73-1.18,4-2.73l7.45,0c-.74,5.23-4.79,8.18-11.79,8.15C98.87,336.36,93.57,332.08,93.6,324.5Zm16.65-2.85c-.12-2.79-1.49-4.35-4.06-4.36-2.39,0-4,1.53-4.46,4.32Z" fill="#fff"/><path d="M127.81,320.32V320c0-9.67,7.35-16.11,16.84-16.06,9.67,0,16.78,6.16,16.73,16v.36c0,9.75-6.78,16.37-17,16.32S127.76,329.85,127.81,320.32Zm24.08,0V320c0-5.63-2.8-9-7.27-9s-7.29,3.21-7.32,9v.35c0,5.77,2.88,9.11,7.27,9.13S151.86,326,151.89,320.35Z" fill="#fff"/><path d="M164.47,313l7.93,0,0,3.73a8.19,8.19,0,0,1,7.65-4.31c4.48,0,7.57,2.83,7.54,8.78l-.07,15.07-7.94,0,.07-13.48c0-2.61-1-3.91-3.31-3.92s-3.95,1.4-4,4.37l-.06,13-7.94,0Z" fill="#fff"/><path d="M191.74,302.9l7.89,0-.17,33.39-7.89,0Z" fill="#fff"/><path d="M203.69,306.86a4.14,4.14,0,0,1,4.36-4.1,4.18,4.18,0,0,1,4.37,4.15,4.38,4.38,0,0,1-8.73-.05Zm.37,6.3,7.93,0-.11,23.19-7.94,0Z" fill="#fff"/><path d="M216.25,313.22l7.93,0V317a8.17,8.17,0,0,1,7.64-4.31c4.48,0,7.57,2.83,7.54,8.77l-.07,15.08-7.94,0,.07-13.48c0-2.62-1-3.91-3.31-3.92s-3.95,1.4-4,4.37l-.06,13-7.94,0Z" fill="#fff"/><path d="M242,325.23v-.35c0-7.45,5.6-12.12,12.61-12.09,6.34,0,11.77,3.7,11.73,12v2.09L250,326.83c.21,3.06,2,4.84,4.81,4.85,2.62,0,3.73-1.18,4-2.73l7.45,0c-.73,5.23-4.78,8.18-11.79,8.15C247.21,337.1,241.91,332.82,242,325.23Zm16.64-2.84c-.12-2.79-1.49-4.35-4.06-4.36-2.39,0-4,1.53-4.45,4.32Z" fill="#fff"/><path d="M268.47,332.68a4.41,4.41,0,0,1,4.54-4.45,4.48,4.48,0,1,1,0,8.95A4.41,4.41,0,0,1,268.47,332.68Z" fill="#fff"/></g><g id="Layer_10" data-name="Layer 10"><rect width="300" height="600" fill="none"/></g></g></g></svg>