<svg xmlns="http://www.w3.org/2000/svg" viewBox="0 0 300 250"><title>H191</title><g id="Layer_2" data-name="Layer 2"><g id="Rect"><rect width="300" height="250" fill="none"/></g><g id="We_re_here_to_help._Drop_off_your_docs_with_a_tax_pro_now." data-name="We’re here to help. Drop off your docs with a tax pro now."><path d="M21.4,41.26h6L30,54.11l2.76-12.85H38l3,13,2.8-13h5.47l-4.81,20.6H38.31L35.15,48.78,32,61.86H26.19Z" fill="#fff"/><path d="M48.63,54.52v-.23c0-4.84,3.6-7.9,8.16-7.9,4.11,0,7.66,2.36,7.66,7.78v1.35H53.85A3,3,0,0,0,57,58.66c1.7,0,2.42-.77,2.62-1.78h4.84c-.46,3.4-3.08,5.33-7.64,5.33C52.09,62.21,48.63,59.44,48.63,54.52Zm10.81-1.91c-.09-1.81-1-2.82-2.65-2.82s-2.63,1-2.89,2.82Z" fill="#fff"/><path d="M65,48.41l2.3-7.52,4.56,1.53-4,7.11Z" fill="#fff"/><path d="M72,46.79h5.16v3A4.74,4.74,0,0,1,82,46.59V51.4c-3.14-.08-4.87.9-4.87,3.32v7.14H72Z" fill="#fff"/><path d="M83,54.52v-.23c0-4.84,3.6-7.9,8.15-7.9,4.12,0,7.67,2.36,7.67,7.78v1.35H88.16c.15,2,1.3,3.14,3.14,3.14s2.42-.77,2.63-1.78h4.84c-.47,3.4-3.09,5.33-7.64,5.33C86.41,62.21,83,59.44,83,54.52Zm10.8-1.91c-.08-1.81-1-2.82-2.65-2.82s-2.62,1-2.88,2.82Z" fill="#fff"/><path d="M105.8,40.17H111v9a5.31,5.31,0,0,1,5-2.82c2.91,0,4.93,1.82,4.93,5.68v9.79h-5.16V53.1c0-1.7-.66-2.53-2.16-2.53s-2.56.92-2.56,2.85v8.44H105.8Z" fill="#fff"/><path d="M122.54,54.52v-.23c0-4.84,3.6-7.9,8.15-7.9,4.12,0,7.66,2.36,7.66,7.78v1.35h-10.6c.15,2,1.3,3.14,3.14,3.14s2.42-.77,2.63-1.78h4.83c-.46,3.4-3.08,5.33-7.63,5.33C126,62.21,122.54,59.44,122.54,54.52Zm10.8-1.91c-.08-1.81-1-2.82-2.65-2.82s-2.62,1-2.88,2.82Z" fill="#fff"/><path d="M140.14,46.79h5.16v3a4.75,4.75,0,0,1,4.87-3.2V51.4c-3.14-.08-4.87.9-4.87,3.32v7.14h-5.16Z" fill="#fff"/><path d="M151.09,54.52v-.23c0-4.84,3.6-7.9,8.16-7.9,4.12,0,7.66,2.36,7.66,7.78v1.35h-10.6a3,3,0,0,0,3.14,3.14c1.7,0,2.42-.77,2.62-1.78h4.84c-.46,3.4-3.08,5.33-7.63,5.33C154.55,62.21,151.09,59.44,151.09,54.52Zm10.81-1.91c-.09-1.81-1-2.82-2.65-2.82s-2.62,1-2.88,2.82Z" fill="#fff"/><path d="M174.63,57V50.31h-1.81V46.79h1.81V43.65h5.16v3.14h3v3.52h-3v6.22c0,1.1.55,1.59,1.53,1.59a4,4,0,0,0,1.47-.26v3.92a11.08,11.08,0,0,1-2.86.43C176.54,62.21,174.63,60.57,174.63,57Z" fill="#fff"/><path d="M183.91,54.52v-.23c0-4.84,3.6-7.9,8.27-7.9s8.21,3,8.21,7.75v.23c0,4.9-3.6,7.84-8.24,7.84S183.91,59.38,183.91,54.52Zm11.24-.09V54.2c0-2.54-1-4-3-4s-3,1.36-3,3.89v.23c0,2.59,1,4,3,4S195.15,56.94,195.15,54.43Z" fill="#fff"/><path d="M207.45,40.17h5.16v9a5.32,5.32,0,0,1,4.95-2.82c2.91,0,4.93,1.82,4.93,5.68v9.79h-5.16V53.1c0-1.7-.66-2.53-2.16-2.53s-2.56.92-2.56,2.85v8.44h-5.16Z" fill="#fff"/><path d="M224.19,54.52v-.23c0-4.84,3.6-7.9,8.15-7.9,4.12,0,7.67,2.36,7.67,7.78v1.35h-10.6c.14,2,1.29,3.14,3.13,3.14s2.42-.77,2.63-1.78H240c-.46,3.4-3.09,5.33-7.64,5.33C227.65,62.21,224.19,59.44,224.19,54.52ZM235,52.61c-.08-1.81-1-2.82-2.65-2.82s-2.62,1-2.88,2.82Z" fill="#fff"/><path d="M241.94,40.17h5.13V61.86h-5.13Z" fill="#fff"/><path d="M249.83,46.79H255V49a5.33,5.33,0,0,1,4.7-2.65c3.51,0,6.36,2.65,6.36,7.81v.23c0,5.18-2.85,7.78-6.39,7.78A5,5,0,0,1,255,59.64V66.9h-5.16Zm11,7.64V54.2c0-2.65-1.15-3.92-3-3.92s-3,1.35-3,3.89v.23c0,2.56,1.12,3.86,3,3.86S260.81,56.91,260.81,54.43Z" fill="#fff"/><path d="M267.35,59.27a2.88,2.88,0,0,1,2.94-2.91,2.91,2.91,0,1,1,0,5.82A2.88,2.88,0,0,1,267.35,59.27Z" fill="#fff"/><path d="M23,72.77h7.49c7.32,0,11,3.66,11,10v.23c0,6.43-3.8,10.32-11.06,10.32H23Zm7.29,16c3.51,0,5.07-1.85,5.07-5.68v-.23c0-3.92-1.56-5.59-5.13-5.59h-1.3v11.5Z" fill="#fff"/><path d="M43.5,78.3h5.16v3a4.75,4.75,0,0,1,4.87-3.2v4.81c-3.14-.09-4.87.89-4.87,3.31v7.15H43.5Z" fill="#fff"/><path d="M54.45,86v-.23c0-4.84,3.6-7.89,8.27-7.89s8.21,3,8.21,7.75v.23c0,4.89-3.6,7.83-8.24,7.83S54.45,90.89,54.45,86Zm11.24-.08V85.7c0-2.53-1-3.94-3-3.94s-3,1.35-3,3.89v.23c0,2.59,1,4,3,4S65.69,88.44,65.69,85.94Z" fill="#fff"/><path d="M72.75,78.3h5.16v2.25A5.31,5.31,0,0,1,82.6,77.9c3.52,0,6.37,2.65,6.37,7.8v.24c0,5.18-2.85,7.77-6.4,7.77a5,5,0,0,1-4.66-2.56v7.26H72.75Zm11,7.64V85.7c0-2.65-1.16-3.91-3-3.91s-3,1.35-3,3.89v.23c0,2.56,1.13,3.86,3,3.86S83.73,88.41,83.73,85.94Z" fill="#fff"/><path d="M95.28,86v-.23c0-4.84,3.6-7.89,8.27-7.89s8.21,3,8.21,7.75v.23c0,4.89-3.6,7.83-8.24,7.83S95.28,90.89,95.28,86Zm11.24-.08V85.7c0-2.53-1-3.94-3-3.94s-3,1.35-3,3.89v.23c0,2.59,1,4,3,4S106.52,88.44,106.52,85.94Z" fill="#fff"/><path d="M114.36,81.82h-1.91V78.3h1.91V77.15c0-3.75,2.3-5.5,5.87-5.5a8.89,8.89,0,0,1,2.31.28v3.78a4.45,4.45,0,0,0-1.39-.2,1.51,1.51,0,0,0-1.67,1.64V78.3h4.38V77c0-3.75,2.36-5.54,5.91-5.54a9.28,9.28,0,0,1,2.36.32v3.78a4.56,4.56,0,0,0-1.41-.21A1.51,1.51,0,0,0,129,77V78.3h3v3.52h-3V93.37h-5.16V81.82h-4.38V93.37h-5.12Z" fill="#fff"/><path d="M143.74,91.84l-6-13.54h5.59l3.11,8,2.88-8h4.93l-8.07,20.11h-4.92Z" fill="#fff"/><path d="M154,86v-.23c0-4.84,3.6-7.89,8.26-7.89s8.21,3,8.21,7.75v.23c0,4.89-3.6,7.83-8.23,7.83S154,90.89,154,86Zm11.23-.08V85.7c0-2.53-1-3.94-3-3.94s-3,1.35-3,3.89v.23c0,2.59,1,4,3,4S165.18,88.44,165.18,85.94Z" fill="#fff"/><path d="M172.13,88.12V78.3h5.15v9c0,1.7.67,2.53,2.14,2.53S182,88.9,182,87V78.3h5.16V93.37H182V91a5,5,0,0,1-4.78,2.68C174.29,93.71,172.13,91.93,172.13,88.12Z" fill="#fff"/><path d="M189.76,78.3h5.16v3a4.74,4.74,0,0,1,4.87-3.2v4.81c-3.14-.09-4.87.89-4.87,3.31v7.15h-5.16Z" fill="#fff"/><path d="M206.15,86v-.23c0-5.13,2.83-7.86,6.4-7.86a4.9,4.9,0,0,1,4.64,2.53V71.67h5.15v21.7h-5.15V90.92a5.09,5.09,0,0,1-4.7,2.79C209,93.71,206.15,91.21,206.15,86Zm11.18-.08v-.23c0-2.54-1.06-3.89-3-3.89s-3,1.29-3,3.91v.24c0,2.53,1.12,3.83,2.91,3.83S217.33,88.47,217.33,85.91Z" fill="#fff"/><path d="M224.16,86v-.23c0-4.84,3.6-7.89,8.27-7.89s8.21,3,8.21,7.75v.23c0,4.89-3.6,7.83-8.24,7.83S224.16,90.89,224.16,86Zm11.24-.08V85.7c0-2.53-1-3.94-3-3.94s-3,1.35-3,3.89v.23c0,2.59,1,4,3,4S235.4,88.44,235.4,85.94Z" fill="#fff"/><path d="M241.65,86v-.23c0-5,3.6-7.89,8-7.89,3.69,0,7.09,1.61,7.37,6.19h-4.84a2.23,2.23,0,0,0-2.42-2.19c-1.81,0-2.88,1.3-2.88,3.83V86c0,2.63,1,4,3,4a2.5,2.5,0,0,0,2.62-2.51h4.64c-.14,3.81-2.71,6.28-7.58,6.28C245.08,93.71,241.65,91.09,241.65,86Z" fill="#fff"/><path d="M258,88.59h4.75c.17,1.09.66,1.7,2.13,1.7,1.27,0,1.85-.49,1.85-1.24S266,88,264,87.69c-4-.52-5.73-1.7-5.73-4.84,0-3.34,3-4.95,6.45-4.95,3.72,0,6.31,1.27,6.66,4.87h-4.67a1.68,1.68,0,0,0-1.93-1.5c-1.12,0-1.7.49-1.7,1.18s.69,1,2.54,1.24c4.17.52,6.19,1.61,6.19,4.84,0,3.57-2.65,5.18-6.83,5.18S258.13,91.93,258,88.59Z" fill="#fff"/><path d="M21.26,109.81h5.39l2.19,9,2.53-9h4.15l2.25,9,2.45-9h4.89l-4.78,15.06H35.4l-2.24-8.41-2.34,8.41h-5Z" fill="#fff"/><path d="M46.33,105.72a2.84,2.84,0,1,1,2.82,2.65A2.69,2.69,0,0,1,46.33,105.72Zm.26,4.09h5.15v15.06H46.59Z" fill="#fff"/><path d="M55.2,120v-6.71H53.39v-3.51H55.2v-3.14h5.16v3.14h3v3.51h-3v6.22c0,1.1.55,1.59,1.52,1.59a4,4,0,0,0,1.47-.26v3.92a10.92,10.92,0,0,1-2.85.43C57.1,125.22,55.2,123.58,55.2,120Z" fill="#fff"/><path d="M65.29,103.18h5.15v9a5.32,5.32,0,0,1,5-2.83c2.91,0,4.92,1.82,4.92,5.68v9.79H75.17v-8.75c0-1.7-.67-2.54-2.16-2.54s-2.57.92-2.57,2.85v8.44H65.29Z" fill="#fff"/><path d="M87.21,120.7c0-3.55,3-4.93,8-4.93h1.44v-.35c0-1.44-.34-2.39-2-2.39a1.85,1.85,0,0,0-2,1.79H87.79c.23-3.63,3.08-5.42,7.2-5.42s6.8,1.7,6.8,5.71v9.76h-5v-1.75a5,5,0,0,1-4.47,2.1C89.6,125.22,87.21,123.89,87.21,120.7Zm9.45-1.1v-.92H95.31c-2.08,0-3,.4-3,1.64,0,.87.58,1.41,1.79,1.41C95.57,121.73,96.66,120.9,96.66,119.6Z" fill="#fff"/><path d="M110.23,120v-6.71h-1.81v-3.51h1.81v-3.14h5.16v3.14h3v3.51h-3v6.22c0,1.1.55,1.59,1.53,1.59a4,4,0,0,0,1.47-.26v3.92a10.92,10.92,0,0,1-2.85.43C112.14,125.22,110.23,123.58,110.23,120Z" fill="#fff"/><path d="M119.51,120.7c0-3.55,3-4.93,8-4.93H129v-.35c0-1.44-.34-2.39-2-2.39a1.85,1.85,0,0,0-2,1.79h-4.84c.23-3.63,3.08-5.42,7.2-5.42s6.8,1.7,6.8,5.71v9.76h-5v-1.75a5,5,0,0,1-4.47,2.1C121.9,125.22,119.51,123.89,119.51,120.7Zm9.45-1.1v-.92h-1.35c-2.08,0-3,.4-3,1.64,0,.87.58,1.41,1.79,1.41C127.87,121.73,129,120.9,129,119.6Z" fill="#fff"/><path d="M140.4,117.21l-4.69-7.4h5.93l2.33,4,2.28-4h5.3l-4.75,7,5.21,8.06h-5.93l-2.68-4.49-2.74,4.49h-5.27Z" fill="#fff"/><path d="M158.7,109.81h5.16v2.24a5.31,5.31,0,0,1,4.69-2.65c3.52,0,6.37,2.65,6.37,7.81v.23c0,5.19-2.85,7.78-6.4,7.78a5,5,0,0,1-4.66-2.56v7.26H158.7Zm11,7.63v-.23c0-2.65-1.16-3.92-3-3.92s-3,1.36-3,3.89v.23c0,2.57,1.13,3.86,3,3.86S169.68,119.92,169.68,117.44Z" fill="#fff"/><path d="M176.79,109.81H182v3a4.75,4.75,0,0,1,4.87-3.19v4.81c-3.14-.09-4.87.89-4.87,3.31v7.14h-5.16Z" fill="#fff"/><path d="M187.74,117.53v-.23c0-4.84,3.6-7.9,8.27-7.9s8.21,3,8.21,7.75v.23c0,4.9-3.6,7.84-8.24,7.84S187.74,122.4,187.74,117.53Zm11.24-.09v-.23c0-2.53-1-3.95-3-3.95s-3,1.36-3,3.89v.23c0,2.6,1,4,3,4S199,120,199,117.44Z" fill="#fff"/><path d="M211.28,109.81h5.16v2.42a5.32,5.32,0,0,1,5-2.83c2.9,0,4.92,1.82,4.92,5.68v9.79h-5.15v-8.75c0-1.7-.67-2.54-2.17-2.54s-2.56.92-2.56,2.85v8.44h-5.16Z" fill="#fff"/><path d="M228,117.53v-.23c0-4.84,3.6-7.9,8.26-7.9s8.21,3,8.21,7.75v.23c0,4.9-3.6,7.84-8.24,7.84S228,122.4,228,117.53Zm11.23-.09v-.23c0-2.53-1-3.95-3-3.95s-3,1.36-3,3.89v.23c0,2.6,1,4,3,4S239.26,120,239.26,117.44Z" fill="#fff"/><path d="M244.56,109.81H250l2.19,9,2.53-9h4.15l2.25,9,2.45-9h4.9l-4.79,15.06h-4.92l-2.25-8.41-2.33,8.41h-5Z" fill="#fff"/><path d="M267.44,122.28a2.88,2.88,0,0,1,2.94-2.91,2.91,2.91,0,1,1,0,5.82A2.88,2.88,0,0,1,267.44,122.28Z" fill="#fff"/></g></g></svg>