<svg xmlns="http://www.w3.org/2000/svg" viewBox="0 0 160 600"><title>Asset 1</title><g id="Layer_2" data-name="Layer 2"><g id="Rect"><rect width="160" height="600" fill="none"/></g><g id="Drop_off_work_with_a_pro_remotely_or_file_online._We_re_open" data-name="Drop off, work with a pro remotely, or file online. We’re open"><path d="M21.25,121.38h4.69c4.59,0,6.92,2.29,6.92,6.3v.15c0,4-2.38,6.46-6.93,6.46H21.25Zm4.57,10.06c2.2,0,3.18-1.16,3.18-3.56v-.14c0-2.46-1-3.51-3.22-3.51H25v7.21Z" fill="#fff"/><path d="M34.11,124.85h3.23v1.88a3,3,0,0,1,3-2v3c-2-.06-3,.56-3,2.07v4.48H34.11Z" fill="#fff"/><path d="M41,129.69v-.15a4.86,4.86,0,0,1,5.19-4.95c2.9,0,5.14,1.86,5.14,4.86v.15c0,3.07-2.25,4.91-5.16,4.91S41,132.74,41,129.69Zm7.05-.06v-.14c0-1.59-.64-2.48-1.86-2.48s-1.88.85-1.88,2.44v.15c0,1.62.63,2.51,1.88,2.51S48,131.21,48,129.63Z" fill="#fff"/><path d="M52.44,124.85h3.23v1.41a3.34,3.34,0,0,1,2.95-1.67c2.2,0,4,1.67,4,4.9v.14c0,3.26-1.79,4.88-4,4.88a3.12,3.12,0,0,1-2.93-1.61v4.56H52.44Zm6.88,4.78v-.14c0-1.66-.72-2.46-1.86-2.46s-1.88.85-1.88,2.44v.15c0,1.6.71,2.42,1.88,2.42S59.32,131.19,59.32,129.63Z" fill="#fff"/><path d="M66.56,129.69v-.15a4.86,4.86,0,0,1,5.19-4.95c2.91,0,5.15,1.86,5.15,4.86v.15c0,3.07-2.26,4.91-5.17,4.91S66.56,132.74,66.56,129.69Zm7-.06v-.14c0-1.59-.63-2.48-1.86-2.48s-1.88.85-1.88,2.44v.15c0,1.62.63,2.51,1.88,2.51S73.61,131.21,73.61,129.63Z" fill="#fff"/><path d="M78.52,127.05H77.33v-2.2h1.19v-.73c0-2.35,1.45-3.45,3.69-3.45a5.76,5.76,0,0,1,1.44.18v2.37a2.83,2.83,0,0,0-.86-.13,1,1,0,0,0-1.05,1v.73h2.74V124c0-2.35,1.48-3.47,3.71-3.47a5.69,5.69,0,0,1,1.48.2v2.36a3.14,3.14,0,0,0-.89-.12.94.94,0,0,0-1.06,1v.83h1.91v2.2H87.72v7.24H84.48v-7.24H81.74v7.24H78.52Z" fill="#fff"/><path d="M88.94,135.76,90.46,131l3,1.06-2.6,4.43Z" fill="#fff"/><path d="M20.16,152.77h3.38l1.37,5.66,1.59-5.66h2.61l1.4,5.66,1.54-5.66h3.07l-3,9.45H29L27.62,157l-1.46,5.27H23Z" fill="#fff"/><path d="M35,157.61v-.14a4.85,4.85,0,0,1,5.18-4.95c2.91,0,5.15,1.86,5.15,4.86v.14c0,3.08-2.26,4.92-5.17,4.92S35,160.67,35,157.61Zm7-.05v-.14c0-1.59-.63-2.48-1.86-2.48s-1.88.85-1.88,2.44v.14c0,1.63.64,2.52,1.88,2.52S42.07,159.13,42.07,157.56Z" fill="#fff"/><path d="M46.5,152.77h3.23v1.88a3,3,0,0,1,3.05-2v3c-2,0-3.05.56-3.05,2.08v4.48H46.5Z" fill="#fff"/><path d="M54,148.62h3.23v7.89l2.55-3.74H63.1L60,157l3.34,5.2H59.74l-2.55-4.14v4.14H54Z" fill="#fff"/><path d="M66.6,152.77H70l1.37,5.66,1.59-5.66h2.6L77,158.43l1.54-5.66h3.07l-3,9.45H75.47L74.06,157l-1.46,5.27H69.45Z" fill="#fff"/><path d="M82.31,150.21a1.78,1.78,0,1,1,1.77,1.66A1.69,1.69,0,0,1,82.31,150.21Zm.17,2.56h3.23v9.45H82.48Z" fill="#fff"/><path d="M87.88,159.19V155H86.74v-2.21h1.14v-2h3.23v2H93V155H91.11v3.9a.86.86,0,0,0,1,1,2.43,2.43,0,0,0,.92-.16v2.46a6.76,6.76,0,0,1-1.79.27C89.07,162.44,87.88,161.41,87.88,159.19Z" fill="#fff"/><path d="M94.2,148.62h3.23v5.67a3.34,3.34,0,0,1,3.11-1.77c1.83,0,3.09,1.14,3.09,3.56v6.14H100.4v-5.49c0-1.07-.42-1.59-1.36-1.59s-1.61.58-1.61,1.79v5.29H94.2Z" fill="#fff"/><path d="M107.94,159.6c0-2.22,1.88-3.09,5-3.09h.9v-.21c0-.91-.22-1.5-1.25-1.5a1.16,1.16,0,0,0-1.28,1.12h-3c.15-2.28,1.94-3.4,4.52-3.4s4.27,1.07,4.27,3.58v6.12h-3.15v-1.1a3.09,3.09,0,0,1-2.8,1.32C109.44,162.44,107.94,161.61,107.94,159.6Zm5.93-.68v-.58H113c-1.3,0-1.88.25-1.88,1,0,.54.36.88,1.12.88C113.18,160.25,113.87,159.73,113.87,158.92Z" fill="#fff"/><path d="M21,180.7h3.23v1.41a3.32,3.32,0,0,1,2.95-1.66c2.2,0,4,1.66,4,4.89v.15c0,3.25-1.79,4.87-4,4.87a3.11,3.11,0,0,1-2.93-1.6v4.55H21Zm6.88,4.79v-.15c0-1.66-.72-2.46-1.86-2.46s-1.88.85-1.88,2.44v.15c0,1.61.71,2.42,1.88,2.42S27.84,187,27.84,185.49Z" fill="#fff"/><path d="M32.3,180.7h3.23v1.88a3,3,0,0,1,3.06-2v3c-2-.05-3.06.56-3.06,2.08v4.48H32.3Z" fill="#fff"/><path d="M39.16,185.54v-.14a4.85,4.85,0,0,1,5.19-5c2.91,0,5.15,1.86,5.15,4.86v.14c0,3.07-2.26,4.91-5.17,4.91S39.16,188.59,39.16,185.54Zm7.05,0v-.15c0-1.59-.63-2.47-1.86-2.47s-1.88.85-1.88,2.44v.14c0,1.63.63,2.51,1.88,2.51S46.21,187.06,46.21,185.49Z" fill="#fff"/><path d="M53.92,180.7h3.23v1.88a3,3,0,0,1,3.06-2v3c-2-.05-3.06.56-3.06,2.08v4.48H53.92Z" fill="#fff"/><path d="M60.78,185.54v-.14a4.83,4.83,0,0,1,5.12-5,4.48,4.48,0,0,1,4.8,4.87v.85H64.05a1.89,1.89,0,0,0,2,2c1.07,0,1.52-.49,1.65-1.12h3c-.29,2.13-1.93,3.34-4.78,3.34S60.78,188.63,60.78,185.54Zm6.78-1.19c0-1.14-.61-1.77-1.66-1.77a1.79,1.79,0,0,0-1.81,1.77Z" fill="#fff"/><path d="M71.82,180.7h3.23v1.44a3.31,3.31,0,0,1,3-1.69A2.57,2.57,0,0,1,80.58,182a3.77,3.77,0,0,1,3.13-1.57c1.79,0,3.09,1.15,3.09,3.52v6.18H83.56v-5.64c0-1-.47-1.43-1.21-1.43a1.4,1.4,0,0,0-1.44,1.59v5.48h-3.2v-5.64c0-1-.47-1.43-1.21-1.43a1.4,1.4,0,0,0-1.45,1.59v5.48H71.82Z" fill="#fff"/><path d="M87.86,185.54v-.14a4.85,4.85,0,0,1,5.18-5c2.91,0,5.15,1.86,5.15,4.86v.14c0,3.07-2.25,4.91-5.16,4.91S87.86,188.59,87.86,185.54Zm7,0v-.15c0-1.59-.64-2.47-1.87-2.47s-1.87.85-1.87,2.44v.14c0,1.63.63,2.51,1.87,2.51S94.91,187.06,94.91,185.49Z" fill="#fff"/><path d="M99.76,187.11V182.9H98.63v-2.2h1.13v-2H103v2h1.86v2.2H103v3.91a.86.86,0,0,0,1,1,2.65,2.65,0,0,0,.92-.16v2.45a6.76,6.76,0,0,1-1.79.27C101,190.36,99.76,189.33,99.76,187.11Z" fill="#fff"/><path d="M105.58,185.54v-.14a4.83,4.83,0,0,1,5.11-5,4.48,4.48,0,0,1,4.81,4.87v.85h-6.65a1.88,1.88,0,0,0,2,2c1.06,0,1.52-.49,1.64-1.12h3c-.29,2.13-1.94,3.34-4.79,3.34S105.58,188.63,105.58,185.54Zm6.77-1.19c0-1.14-.61-1.77-1.66-1.77a1.81,1.81,0,0,0-1.81,1.77Z" fill="#fff"/><path d="M116.71,176.54h3.21v13.61h-3.21Z" fill="#fff"/><path d="M124.62,189.19l-3.78-8.49h3.51l2,5,1.8-5h3.09l-5.06,12.61H123Z" fill="#fff"/><path d="M130,191.61l1.52-4.75,3,1.07-2.6,4.42Z" fill="#fff"/><path d="M20.45,213.47v-.15a4.86,4.86,0,0,1,5.19-4.95c2.91,0,5.15,1.86,5.15,4.86v.15c0,3.07-2.26,4.91-5.17,4.91S20.45,216.52,20.45,213.47Zm7.05-.06v-.14c0-1.59-.63-2.48-1.86-2.48s-1.88.85-1.88,2.44v.15c0,1.62.63,2.51,1.88,2.51S27.5,215,27.5,213.41Z" fill="#fff"/><path d="M31.92,208.62h3.24v1.88a3,3,0,0,1,3.05-2v3c-2-.06-3.05.56-3.05,2.07v4.48H31.92Z" fill="#fff"/><path d="M43.16,210.83H42v-2.21h1.2v-.83c0-2.35,1.46-3.47,3.7-3.47a6.09,6.09,0,0,1,1.48.2v2.37a3,3,0,0,0-.88-.13,1,1,0,0,0-1.09,1v.83h1.92v2.21H46.37v7.24H43.16Z" fill="#fff"/><path d="M49.3,206.06a1.69,1.69,0,0,1,1.77-1.68,1.67,1.67,0,1,1,0,3.34A1.67,1.67,0,0,1,49.3,206.06Zm.16,2.56h3.23v9.45H49.46Z" fill="#fff"/><path d="M54.52,204.47h3.21v13.6H54.52Z" fill="#fff"/><path d="M59,213.47v-.15a4.84,4.84,0,0,1,5.11-4.95,4.48,4.48,0,0,1,4.81,4.88v.85H62.23a1.88,1.88,0,0,0,2,2c1.06,0,1.52-.49,1.64-1.12h3c-.29,2.13-1.94,3.34-4.79,3.34S59,216.56,59,213.47Zm6.77-1.2c0-1.13-.61-1.77-1.66-1.77a1.8,1.8,0,0,0-1.8,1.77Z" fill="#fff"/><path d="M72.78,213.47v-.15A4.86,4.86,0,0,1,78,208.37c2.91,0,5.15,1.86,5.15,4.86v.15c0,3.07-2.26,4.91-5.17,4.91S72.78,216.52,72.78,213.47Zm7-.06v-.14c0-1.59-.63-2.48-1.86-2.48s-1.88.85-1.88,2.44v.15c0,1.62.64,2.51,1.88,2.51S79.82,215,79.82,213.41Z" fill="#fff"/><path d="M84.25,208.62h3.23v1.52a3.36,3.36,0,0,1,3.11-1.77c1.82,0,3.09,1.14,3.09,3.56v6.14H90.44v-5.49c0-1.06-.41-1.59-1.35-1.59s-1.61.58-1.61,1.79v5.29H84.25Z" fill="#fff"/><path d="M95.34,204.47h3.21v13.6H95.34Z" fill="#fff"/><path d="M100.21,206.06a1.78,1.78,0,1,1,1.77,1.66A1.69,1.69,0,0,1,100.21,206.06Zm.17,2.56h3.23v9.45h-3.23Z" fill="#fff"/><path d="M105.34,208.62h3.24v1.52a3.33,3.33,0,0,1,3.1-1.77c1.83,0,3.09,1.14,3.09,3.56v6.14h-3.23v-5.49c0-1.06-.41-1.59-1.35-1.59s-1.61.58-1.61,1.79v5.29h-3.24Z" fill="#fff"/><path d="M115.84,213.47v-.15a4.83,4.83,0,0,1,5.11-4.95,4.48,4.48,0,0,1,4.8,4.88v.85h-6.64a1.88,1.88,0,0,0,2,2c1.06,0,1.51-.49,1.64-1.12h3c-.28,2.13-1.93,3.34-4.78,3.34S115.84,216.56,115.84,213.47Zm6.77-1.2c0-1.13-.61-1.77-1.66-1.77a1.8,1.8,0,0,0-1.81,1.77Z" fill="#fff"/><path d="M126.66,216.45a1.8,1.8,0,0,1,1.84-1.83,1.83,1.83,0,1,1,0,3.65A1.79,1.79,0,0,1,126.66,216.45Z" fill="#fff"/><path d="M20.25,233.08H24l1.66,8.06,1.74-8.06h3.29l1.88,8.13,1.75-8.13h3.43l-3,12.92H30.86l-2-8.2-2,8.2H23.25Z" fill="#fff"/><path d="M37.32,241.39v-.14a4.83,4.83,0,0,1,5.11-4.95,4.48,4.48,0,0,1,4.81,4.88V242H40.59a1.88,1.88,0,0,0,2,2c1.07,0,1.52-.48,1.65-1.12h3c-.29,2.14-1.93,3.35-4.79,3.35S37.32,244.48,37.32,241.39Zm6.78-1.19c-.06-1.14-.62-1.77-1.67-1.77a1.79,1.79,0,0,0-1.8,1.77Z" fill="#fff"/><path d="M47.56,237.56,49,232.85l2.85,1-2.47,4.47Z" fill="#fff"/><path d="M52,236.55H55.2v1.88a3,3,0,0,1,3.06-2v3c-2-.05-3.06.56-3.06,2.08V246H52Z" fill="#fff"/><path d="M58.83,241.39v-.14A4.83,4.83,0,0,1,64,236.3a4.48,4.48,0,0,1,4.8,4.88V242H62.1a1.89,1.89,0,0,0,2,2c1.07,0,1.52-.48,1.65-1.12h3c-.29,2.14-1.93,3.35-4.79,3.35S58.83,244.48,58.83,241.39Zm6.78-1.19c-.06-1.14-.62-1.77-1.66-1.77a1.79,1.79,0,0,0-1.81,1.77Z" fill="#fff"/><path d="M72.65,241.39v-.14a4.85,4.85,0,0,1,5.19-4.95c2.91,0,5.15,1.86,5.15,4.86v.14c0,3.07-2.26,4.92-5.17,4.92S72.65,244.45,72.65,241.39Zm7,0v-.15c0-1.59-.64-2.47-1.86-2.47s-1.88.85-1.88,2.44v.14c0,1.63.63,2.51,1.88,2.51S79.7,242.91,79.7,241.34Z" fill="#fff"/><path d="M84.12,236.55h3.24V238a3.33,3.33,0,0,1,2.94-1.66c2.2,0,4,1.66,4,4.89v.15c0,3.25-1.79,4.88-4,4.88a3.11,3.11,0,0,1-2.92-1.61v4.55H84.12ZM91,241.34v-.15c0-1.66-.72-2.45-1.86-2.45s-1.87.85-1.87,2.44v.14c0,1.61.7,2.42,1.87,2.42S91,242.89,91,241.34Z" fill="#fff"/><path d="M95,241.39v-.14a4.83,4.83,0,0,1,5.11-4.95,4.48,4.48,0,0,1,4.81,4.88V242H98.23a1.88,1.88,0,0,0,2,2c1.06,0,1.52-.48,1.64-1.12h3c-.29,2.14-1.93,3.35-4.79,3.35S95,244.48,95,241.39Zm6.77-1.19c0-1.14-.61-1.77-1.66-1.77a1.79,1.79,0,0,0-1.8,1.77Z" fill="#fff"/><path d="M106,236.55h3.24v1.52a3.32,3.32,0,0,1,3.11-1.77c1.82,0,3.09,1.14,3.09,3.56V246h-3.24v-5.49c0-1.07-.41-1.59-1.35-1.59s-1.61.58-1.61,1.79V246H106Z" fill="#fff"/><path d="M20.42,271.31c0-2.23,1.87-3.09,5-3.09h.9V268c0-.9-.22-1.5-1.25-1.5a1.16,1.16,0,0,0-1.28,1.12h-3c.14-2.28,1.93-3.4,4.51-3.4s4.27,1.07,4.27,3.58v6.13H26.41v-1.11a3.09,3.09,0,0,1-2.8,1.32C21.92,274.14,20.42,273.31,20.42,271.31Zm5.92-.69V270h-.85c-1.3,0-1.88.25-1.88,1,0,.54.36.89,1.12.89A1.43,1.43,0,0,0,26.34,270.62Z" fill="#fff"/><path d="M31.13,264.48h3.23V266a3.36,3.36,0,0,1,3.11-1.77c1.82,0,3.09,1.14,3.09,3.56v6.15H37.32v-5.5c0-1.06-.41-1.59-1.35-1.59s-1.61.58-1.61,1.79v5.3H31.13Z" fill="#fff"/><path d="M41.66,269.3v-.14c0-3.22,1.77-4.94,4-4.94a3.09,3.09,0,0,1,2.91,1.59v-5.49h3.23v13.61H48.58v-1.54a3.18,3.18,0,0,1-2.95,1.75C43.45,274.14,41.66,272.57,41.66,269.3Zm7-.05v-.15c0-1.59-.67-2.44-1.86-2.44s-1.87.82-1.87,2.46v.14c0,1.59.71,2.41,1.83,2.41S48.67,270.85,48.67,269.25Z" fill="#fff"/><path d="M56.2,271.31c0-2.23,1.88-3.09,5-3.09h.9V268c0-.9-.21-1.5-1.24-1.5a1.17,1.17,0,0,0-1.29,1.12h-3c.14-2.28,1.93-3.4,4.52-3.4s4.26,1.07,4.26,3.58v6.13H62.2v-1.11a3.12,3.12,0,0,1-2.8,1.32C57.7,274.14,56.2,273.31,56.2,271.31Zm5.92-.69V270h-.85c-1.3,0-1.87.25-1.87,1,0,.54.36.89,1.12.89A1.42,1.42,0,0,0,62.12,270.62Z" fill="#fff"/><path d="M65.82,264.48h3.45l2,6.08,1.94-6.08h3.09l-3.45,9.45H69.29Z" fill="#fff"/><path d="M76.14,271.31c0-2.23,1.88-3.09,5-3.09h.9V268c0-.9-.21-1.5-1.24-1.5a1.17,1.17,0,0,0-1.29,1.12h-3c.14-2.28,1.93-3.4,4.52-3.4s4.26,1.07,4.26,3.58v6.13H82.14v-1.11a3.12,3.12,0,0,1-2.8,1.32C77.64,274.14,76.14,273.31,76.14,271.31Zm5.92-.69V270h-.85c-1.3,0-1.87.25-1.87,1,0,.54.36.89,1.12.89A1.42,1.42,0,0,0,82.06,270.62Z" fill="#fff"/><path d="M86.78,261.91a1.69,1.69,0,0,1,1.77-1.68,1.67,1.67,0,1,1,0,3.34A1.67,1.67,0,0,1,86.78,261.91Zm.16,2.57h3.23v9.45H86.94Z" fill="#fff"/><path d="M92,260.32h3.21v13.61H92Z" fill="#fff"/><path d="M96.4,271.31c0-2.23,1.88-3.09,5-3.09h.9V268c0-.9-.22-1.5-1.25-1.5a1.16,1.16,0,0,0-1.28,1.12h-3c.14-2.28,1.93-3.4,4.51-3.4s4.26,1.07,4.26,3.58v6.13H102.4v-1.11a3.09,3.09,0,0,1-2.8,1.32C97.9,274.14,96.4,273.31,96.4,271.31Zm5.93-.69V270h-.85c-1.3,0-1.88.25-1.88,1,0,.54.36.89,1.12.89A1.43,1.43,0,0,0,102.33,270.62Z" fill="#fff"/><path d="M110.35,272.46v1.47h-3.23V260.32h3.23v5.57a3.33,3.33,0,0,1,2.94-1.67c2.21,0,4,1.67,4,4.9v.14c0,3.26-1.79,4.88-4,4.88A3.07,3.07,0,0,1,110.35,272.46Zm3.65-3.2v-.14c0-1.66-.72-2.46-1.86-2.46s-1.88.85-1.88,2.44v.15c0,1.6.7,2.42,1.88,2.42S114,270.82,114,269.26Z" fill="#fff"/><path d="M118.55,260.32h3.21v13.61h-3.21Z" fill="#fff"/><path d="M123,269.32v-.15a4.84,4.84,0,0,1,5.11-4.95,4.49,4.49,0,0,1,4.81,4.88V270h-6.65a1.88,1.88,0,0,0,2,2c1.07,0,1.52-.49,1.65-1.12h3c-.29,2.13-1.93,3.34-4.79,3.34S123,272.41,123,269.32Zm6.78-1.19c-.06-1.14-.62-1.77-1.67-1.77a1.79,1.79,0,0,0-1.8,1.77Z" fill="#fff"/><path d="M133.81,272.3a1.81,1.81,0,0,1,1.84-1.83,1.83,1.83,0,1,1,0,3.65A1.8,1.8,0,0,1,133.81,272.3Z" fill="#fff"/></g></g></svg>