<svg xmlns="http://www.w3.org/2000/svg" viewBox="0 0 300 600"><title>txt2</title><g id="Layer_2" data-name="Layer 2"><g id="Layer_5" data-name="Layer 5"><path d="M22.77,283.77a57,57,0,0,1,13.61-37.89H47.86a70.23,70.23,0,0,0,0,75.69H36.38A57.11,57.11,0,0,1,22.77,283.77Z" fill="#fff"/><path d="M69.18,284.34,50.07,250.8H68.36l9.92,19.77L88.2,250.8h16.07l-18.2,33.54v25.1H69.18Z" fill="#fff"/><path d="M99.35,288.53v-.66c0-13.78,10.25-22.47,23.21-22.47,11.72,0,21.81,6.72,21.81,22.14v3.86H114.19c.41,5.65,3.69,8.93,8.94,8.93,4.84,0,6.89-2.21,7.46-5.08h13.78c-1.31,9.68-8.77,15.17-21.73,15.17C109.19,310.42,99.35,302.55,99.35,288.53Zm30.75-5.42c-.24-5.16-2.79-8-7.54-8-4.43,0-7.46,2.87-8.2,8Z" fill="#fff"/><path d="M150.68,266.55h14.68V273a15.12,15.12,0,0,1,13.37-7.55c10,0,18.12,7.55,18.12,22.22v.66c0,14.76-8.12,22.14-18.2,22.14-6.48,0-11.16-3-13.29-7.3v20.67H150.68Zm31.24,21.73v-.66c0-7.54-3.27-11.15-8.44-11.15-5.33,0-8.53,3.86-8.53,11.07v.66c0,7.3,3.2,11,8.53,11C179,299.19,181.92,295.33,181.92,288.28Z" fill="#fff"/><path d="M199.31,316.08l6.89-21.57,13.61,4.84L208,319.44Z" fill="#fff"/><path d="M25.31,336.8h39.6v13H42.2v12.47H60.32v12.38H42.2v20.75H25.31Z" fill="#fff"/><path d="M72.79,336.8h23c15.33,0,23.86,6.24,23.86,18.62v.33c0,8.36-4.43,13-10.58,15.41l14,24.28H105.34l-11.89-21H89.51v21H72.79Zm22.14,26.74c5.65,0,8.44-2.38,8.44-7.14v-.32c0-4.76-3-6.65-8.36-6.65h-5.5v14.11Z" fill="#fff"/><path d="M129.94,336.8h40.51v13H146.67v10.09h18.94v12H146.67v10.66h25.09v13H129.94Z" fill="#fff"/><path d="M180.12,336.8h40.51v13H196.85v10.09h18.94v12H196.85v10.66h25.09v13H180.12Z" fill="#fff"/><path d="M229.65,388.22a8.44,8.44,0,0,1,8.69-8.2c4.84,0,8.78,3.69,8.78,8.2s-3.94,8.12-8.78,8.12S229.65,392.73,229.65,388.22Zm.41-51.42h16.56l-2.21,39.37H232.27Z" fill="#fff"/><path d="M264,369.61a67.26,67.26,0,0,0-11.07-37.81h11.48a59.15,59.15,0,0,1,0,75.69H252.94A67.28,67.28,0,0,0,264,369.61Z" fill="#fff"/><rect width="300" height="600" fill="none"/></g></g></svg>