<svg xmlns="http://www.w3.org/2000/svg" viewBox="0 0 300 600"><title>H3</title><g id="Layer_2" data-name="Layer 2"><g id="Rect"><rect width="300" height="600" fill="none"/></g><g id="H3"><g id="You_could_get_a_Refund_Advance_loan_up_to_3_500._Starting_Jan" data-name="You could get a Refund Advance loan up to $3,500. Starting Jan"><path d="M31.89,44.92,19.43,23H31.36l6.47,12.9L44.3,23H54.79L42.91,44.92V61.29h-11Z" fill="#fff"/><path d="M50.78,47.64v-.42c0-9,6.69-14.66,15.35-14.66S81.38,38.07,81.38,47v.43c0,9.09-6.69,14.55-15.3,14.55S50.78,56.68,50.78,47.64Zm20.86-.16v-.43c0-4.7-1.87-7.32-5.51-7.32S60.57,42.24,60.57,47v.43c0,4.81,1.87,7.43,5.56,7.43S71.64,52.14,71.64,47.48Z" fill="#fff"/><path d="M84.54,51.55V33.31h9.57V50c0,3.15,1.23,4.71,4,4.71,2.89,0,4.76-1.72,4.76-5.3V33.31h9.58v28h-9.58V57c-1.5,2.89-4.22,5-8.88,5C88.55,61.93,84.54,58.61,84.54,51.55Z" fill="#fff"/><path d="M125.52,47.64v-.42c0-9.31,6.68-14.66,14.92-14.66,6.85,0,13.16,3,13.7,11.5h-9c-.43-2.62-1.71-4.07-4.49-4.07-3.37,0-5.35,2.41-5.35,7.12v.43c0,4.86,1.87,7.38,5.51,7.38,2.67,0,4.54-1.61,4.87-4.66h8.61c-.27,7.07-5,11.67-14.07,11.67C131.88,61.93,125.52,57.06,125.52,47.64Z" fill="#fff"/><path d="M155.9,47.64v-.42c0-9,6.69-14.66,15.36-14.66S186.5,38.07,186.5,47v.43c0,9.09-6.68,14.55-15.29,14.55S155.9,56.68,155.9,47.64Zm20.87-.16v-.43c0-4.7-1.87-7.32-5.51-7.32s-5.57,2.51-5.57,7.22v.43c0,4.81,1.88,7.43,5.57,7.43S176.77,52.14,176.77,47.48Z" fill="#fff"/><path d="M189.66,51.55V33.31h9.58V50c0,3.15,1.23,4.71,4,4.71,2.89,0,4.76-1.72,4.76-5.3V33.31h9.57v28H208V57c-1.5,2.89-4.23,5-8.88,5C193.67,61.93,189.66,58.61,189.66,51.55Z" fill="#fff"/><path d="M222.67,21h9.52V61.29h-9.52Z" fill="#fff"/><path d="M235.94,47.59v-.43c0-9.52,5.24-14.6,11.88-14.6,4.38,0,7,1.87,8.61,4.7V21H266V61.29h-9.57V56.74a9.43,9.43,0,0,1-8.72,5.19C241.24,61.93,235.94,57.27,235.94,47.59Zm20.76-.16V47c0-4.71-2-7.22-5.51-7.22s-5.51,2.41-5.51,7.27v.43c0,4.71,2.08,7.12,5.4,7.12C254.56,54.6,256.7,52.19,256.7,47.43Z" fill="#fff"/><path d="M20.28,114.79h9.53c.42,2,1.65,3.63,5.13,3.63,4.23,0,5.94-2.4,5.94-5.88v-4.28a9.81,9.81,0,0,1-8.67,5.13c-6.52,0-11.87-4.81-11.87-13.42v-.43c0-8.24,5.29-13.48,11.87-13.48,4.44,0,7.07,1.87,8.67,4.7v-4h9.58v25.62c0,8.35-5.51,12.73-15.52,12.73C25.42,125.16,21,121.15,20.28,114.79ZM41.15,99.91v-.37c0-3.85-2-6.31-5.51-6.31s-5.51,2.51-5.51,6.36V100c0,3.85,2,6.31,5.45,6.31S41.15,103.87,41.15,99.91Z" fill="#fff"/><path d="M53.83,101.14v-.42c0-9,6.69-14.66,15.14-14.66,7.65,0,14.23,4.38,14.23,14.44V103H63.51c.27,3.69,2.41,5.83,5.83,5.83,3.16,0,4.5-1.45,4.87-3.32h9c-.86,6.31-5.73,9.9-14.18,9.9C60.25,115.43,53.83,110.29,53.83,101.14Zm20.06-3.53c-.16-3.37-1.82-5.24-4.92-5.24-2.89,0-4.87,1.87-5.35,5.24Z" fill="#fff"/><path d="M87.8,105.8V93.33H84.43V86.81H87.8V81h9.58v5.84h5.51v6.52H97.38v11.56c0,2,1,2.94,2.83,2.94a7.34,7.34,0,0,0,2.73-.48v7.27a19.68,19.68,0,0,1-5.3.81C91.33,115.43,87.8,112.38,87.8,105.8Z" fill="#fff"/><path d="M114.66,107c0-6.58,5.56-9.15,14.87-9.15h2.67v-.64c0-2.68-.64-4.44-3.69-4.44a3.44,3.44,0,0,0-3.8,3.31h-9c.42-6.74,5.72-10,13.37-10s12.63,3.15,12.63,10.59v18.14h-9.31v-3.27c-1.34,2-3.8,3.91-8.3,3.91C119.1,115.43,114.66,113,114.66,107Zm17.54-2v-1.72h-2.51c-3.85,0-5.57.75-5.57,3,0,1.61,1.08,2.62,3.32,2.62C130.17,109,132.2,107.4,132.2,105Z" fill="#fff"/><path d="M22.69,130h15c10,0,15.57,4.07,15.57,12.15v.21a10,10,0,0,1-6.9,10.06l9.15,15.84H43.93l-7.76-13.7H33.6v13.7H22.69Zm14.45,17.44c3.69,0,5.51-1.55,5.51-4.65v-.21c0-3.11-1.93-4.34-5.46-4.34H33.6v9.2Z" fill="#fff"/><path d="M55.49,154.64v-.42c0-9,6.68-14.66,15.14-14.66,7.65,0,14.23,4.38,14.23,14.44v2.52H65.17c.27,3.69,2.41,5.83,5.83,5.83,3.16,0,4.49-1.45,4.87-3.32h9c-.86,6.31-5.73,9.9-14.18,9.9C61.91,168.93,55.49,163.79,55.49,154.64Zm20.06-3.53c-.16-3.37-1.82-5.24-4.92-5.24-2.89,0-4.87,1.87-5.35,5.24Z" fill="#fff"/><path d="M89.62,146.83H86.09v-6.52h3.53v-2.46c0-7,4.33-10.28,11-10.28a17.06,17.06,0,0,1,4.38.59v7a8.9,8.9,0,0,0-2.62-.37c-2.25,0-3.21,1.23-3.21,3v2.46h5.67v6.52H99.14v21.46H89.62Z" fill="#fff"/><path d="M107.81,158.55V140.31h9.57V157c0,3.15,1.24,4.71,4,4.71,2.89,0,4.76-1.72,4.76-5.3v-16.1h9.58v28H126.1V164c-1.49,2.89-4.22,5-8.88,5C111.82,168.93,107.81,165.61,107.81,158.55Z" fill="#fff"/><path d="M140.55,140.31h9.58v4.49a9.85,9.85,0,0,1,9.2-5.24c5.4,0,9.15,3.37,9.15,10.54v18.19H158.9V152c0-3.15-1.23-4.71-4-4.71s-4.76,1.72-4.76,5.3v15.68h-9.58Z" fill="#fff"/><path d="M171.74,154.59v-.43c0-9.52,5.24-14.6,11.88-14.6,4.38,0,7,1.87,8.61,4.7V128h9.58v40.29h-9.58v-4.55a9.42,9.42,0,0,1-8.72,5.19C177,168.93,171.74,164.27,171.74,154.59Zm20.76-.16V154c0-4.71-2-7.22-5.51-7.22s-5.51,2.41-5.51,7.27v.43c0,4.71,2.08,7.12,5.4,7.12C190.36,161.6,192.5,159.19,192.5,154.43Z" fill="#fff"/><path d="M32,183.53H46.12l12.15,38.26H46.66l-2-7.12H32l-2,7.12H19.7Zm2.14,23.6h8.4l-4.18-14.71Z" fill="#fff"/><path d="M58.91,208.09v-.43c0-9.52,5.24-14.6,11.88-14.6,4.38,0,7,1.87,8.61,4.7V181.5H89v40.29H79.4v-4.55a9.42,9.42,0,0,1-8.72,5.19C64.21,222.43,58.91,217.77,58.91,208.09Zm20.76-.16v-.43c0-4.71-2-7.22-5.51-7.22s-5.51,2.41-5.51,7.27V208c0,4.71,2.08,7.12,5.4,7.12C77.53,215.1,79.67,212.69,79.67,207.93Z" fill="#fff"/><path d="M91.44,193.81h10.22l5.83,18,5.72-18h9.15l-10.22,28H101.71Z" fill="#fff"/><path d="M122,214c0-6.58,5.56-9.15,14.87-9.15h2.67v-.64c0-2.68-.64-4.44-3.69-4.44a3.43,3.43,0,0,0-3.79,3.31h-9c.43-6.74,5.72-10.05,13.37-10.05s12.63,3.15,12.63,10.59v18.14h-9.31v-3.27c-1.34,2-3.8,3.91-8.29,3.91C126.43,222.43,122,220,122,214Zm17.54-2v-1.72H137c-3.85,0-5.56.75-5.56,3.05,0,1.61,1.07,2.62,3.31,2.62C137.5,216,139.53,214.4,139.53,212Z" fill="#fff"/><path d="M153.71,193.81h9.58v4.49a9.88,9.88,0,0,1,9.2-5.24c5.4,0,9.15,3.37,9.15,10.54v18.19h-9.58V205.52c0-3.15-1.23-4.71-4-4.71s-4.76,1.72-4.76,5.3v15.68h-9.58Z" fill="#fff"/><path d="M184.8,208.14v-.42c0-9.31,6.68-14.66,14.92-14.66,6.85,0,13.16,3,13.7,11.5h-9c-.43-2.62-1.71-4.07-4.49-4.07-3.37,0-5.35,2.41-5.35,7.12V208c0,4.86,1.87,7.38,5.51,7.38,2.67,0,4.54-1.61,4.86-4.66h8.62c-.27,7.07-5,11.67-14.07,11.67C191.16,222.43,184.8,217.56,184.8,208.14Z" fill="#fff"/><path d="M215.18,208.14v-.42c0-9,6.69-14.66,15.14-14.66,7.65,0,14.23,4.38,14.23,14.44V210H224.87c.26,3.69,2.4,5.83,5.83,5.83,3.15,0,4.49-1.45,4.87-3.32h9c-.85,6.31-5.72,9.9-14.17,9.9C221.6,222.43,215.18,217.29,215.18,208.14Zm20.07-3.53c-.17-3.37-1.82-5.24-4.93-5.24-2.89,0-4.86,1.87-5.35,5.24Z" fill="#fff"/><path d="M22.1,235h9.53v40.29H22.1Z" fill="#fff"/><path d="M35.26,261.64v-.42c0-9,6.69-14.66,15.36-14.66S65.86,252.07,65.86,261v.43c0,9.09-6.68,14.55-15.3,14.55S35.26,270.68,35.26,261.64Zm20.87-.16v-.43c0-4.7-1.88-7.32-5.51-7.32s-5.57,2.51-5.57,7.22v.43c0,4.81,1.88,7.43,5.57,7.43S56.13,266.14,56.13,261.48Z" fill="#fff"/><path d="M67.63,267.53c0-6.58,5.56-9.15,14.87-9.15h2.68v-.64c0-2.68-.64-4.44-3.69-4.44a3.44,3.44,0,0,0-3.8,3.31h-9c.43-6.74,5.72-10.05,13.37-10.05s12.63,3.15,12.63,10.59v18.14H85.39V272c-1.34,2-3.8,3.91-8.29,3.91C72.07,275.93,67.63,273.47,67.63,267.53Zm17.55-2v-1.72H82.66c-3.85,0-5.56.75-5.56,3.05,0,1.61,1.07,2.62,3.32,2.62C83.15,269.45,85.18,267.9,85.18,265.5Z" fill="#fff"/><path d="M99.36,247.31h9.57v4.49a9.88,9.88,0,0,1,9.2-5.24c5.41,0,9.15,3.37,9.15,10.54v18.19h-9.57V259c0-3.15-1.24-4.71-4-4.71s-4.76,1.72-4.76,5.3v15.68H99.36Z" fill="#fff"/><path d="M141.46,265.55V247.31H151V264c0,3.15,1.23,4.71,4,4.71,2.89,0,4.76-1.72,4.76-5.3v-16.1h9.58v28h-9.58V271c-1.49,2.89-4.22,5-8.87,5C145.47,275.93,141.46,272.61,141.46,265.55Z" fill="#fff"/><path d="M174.2,247.31h9.58v4.17a9.85,9.85,0,0,1,8.72-4.92c6.52,0,11.82,4.92,11.82,14.49v.43c0,9.63-5.3,14.45-11.88,14.45-4.22,0-7.27-2-8.66-4.76v13.48H174.2Zm20.38,14.17v-.43c0-4.92-2.14-7.27-5.51-7.27s-5.56,2.51-5.56,7.22v.43c0,4.76,2.08,7.17,5.56,7.17S194.58,266.08,194.58,261.48Z" fill="#fff"/><path d="M218.82,266.3V253.83h-3.37v-6.52h3.37v-5.84h9.57v5.84h5.51v6.52h-5.51v11.56c0,2,1,2.94,2.84,2.94a7.34,7.34,0,0,0,2.73-.48v7.27a19.68,19.68,0,0,1-5.3.81C222.35,275.93,218.82,272.88,218.82,266.3Z" fill="#fff"/><path d="M236,261.64v-.42c0-9,6.69-14.66,15.36-14.66s15.25,5.51,15.25,14.39v.43c0,9.09-6.69,14.55-15.31,14.55S236,270.68,236,261.64Zm20.87-.16v-.43c0-4.7-1.87-7.32-5.51-7.32s-5.57,2.51-5.57,7.22v.43c0,4.81,1.88,7.43,5.57,7.43S256.91,266.14,256.91,261.48Z" fill="#fff"/><path d="M28,311.28c-5.39-.37-8-3.24-8.23-7.36h5.77A2.94,2.94,0,0,0,28,306.85V302.3c-5.42-.78-7.73-2.75-7.73-7.08,0-3.77,3-6.49,7.73-6.83v-2.78h2.44v2.81c4.52.37,7.2,2.46,7.57,6.74H32.35a2.49,2.49,0,0,0-1.93-2.34v4.3c4.77.69,7.89,2.31,7.89,6.83,0,3.81-2.47,7-7.89,7.33v3.9H28Zm0-14.53v-4c-1.4.24-2.12,1-2.12,2S26.3,296.4,28,296.75Zm2.44,5.95v4.15a2.24,2.24,0,0,0,2.08-2.21C32.5,303.61,32.07,303.08,30.42,302.7Z" fill="#fff"/><path d="M40.21,316.21H50c.32,3.16,1.82,5.3,5.61,5.3,3.37,0,5-1.61,5-4.33,0-3-1.6-4.5-5-4.5H52.51v-6.79h2.84c3.42,0,5.08-1.55,5.08-4.23,0-2.3-1.5-3.8-4.39-3.8s-4.65,1.77-5.08,4.87H41.28c.48-7.54,5.51-12.73,15-12.73,9,0,14.39,4.12,14.39,10.49,0,4.27-2.46,7.06-6.47,8.23,4.39.91,7.44,4,7.44,8.67,0,7.28-5.41,12-15.52,12C45.51,329.43,40.53,324.5,40.21,316.21Z" fill="#fff"/><path d="M72.58,333.12l4.49-14.07L86,322.21l-7.7,13.1Z" fill="#fff"/><path d="M87.72,316.75h10c.37,2.67,1.44,4.44,5,4.44,3.16,0,4.61-2.36,4.61-5.4,0-3.43-1.88-5.46-5.19-5.46a7.83,7.83,0,0,0-6.32,2.73H89.22l.8-22.53H115.8v8H97.94L97.72,307c1.45-2.09,4.18-4.06,8.94-4.06,7,0,11.61,4.7,11.61,13,0,8.13-5.84,13.48-15.52,13.48C92.59,329.43,88,323.92,87.72,316.75Z" fill="#fff"/><path d="M120.94,310.49v-1.61c0-12.09,7.55-18.88,17.66-18.88s17.65,6.26,17.65,18.67v1.5c0,12.14-6.95,19.26-17.87,19.26C127.68,329.43,120.94,322.53,120.94,310.49Zm24.34-.11v-1.55c0-7-2-10.54-6.68-10.54s-6.69,3.48-6.69,10.54v1.61c0,7.11,2.09,10.48,6.79,10.48S145.28,317.44,145.28,310.38Z" fill="#fff"/><path d="M159.3,310.49v-1.61c0-12.09,7.54-18.88,17.66-18.88s17.65,6.26,17.65,18.67v1.5c0,12.14-7,19.26-17.87,19.26C166,329.43,159.3,322.53,159.3,310.49Zm24.34-.11v-1.55c0-7-2-10.54-6.68-10.54s-6.69,3.48-6.69,10.54v1.61c0,7.11,2.09,10.48,6.79,10.48S183.64,317.44,183.64,310.38Z" fill="#fff"/><path d="M195.52,324a5.33,5.33,0,0,1,5.46-5.4,5.4,5.4,0,1,1,0,10.8A5.33,5.33,0,0,1,195.52,324Z" fill="#fff"/><path d="M20.23,370.14H30.66c.27,2.73,1.5,5,6.05,5,3.15,0,4.92-1.56,4.92-3.8s-1.44-3-6.05-3.69c-10.8-1.29-14.44-4.5-14.44-12.2,0-6.9,5.67-11.93,14.82-11.93S50.35,347.35,51,355.43H40.88c-.37-2.73-1.93-4.12-4.92-4.12s-4.44,1.34-4.44,3.26c0,2.14,1.18,3.11,5.94,3.75,9.68,1.07,14.65,3.58,14.65,11.87,0,7-5.56,12.74-15.4,12.74C26,382.93,20.55,378.43,20.23,370.14Z" fill="#fff"/><path d="M56.93,373.3V360.83H53.56v-6.52h3.37v-5.84h9.58v5.84H72v6.52H66.51v11.56c0,2,1,2.94,2.83,2.94a7.34,7.34,0,0,0,2.73-.48v7.27a19.68,19.68,0,0,1-5.3.81C60.46,382.93,56.93,379.88,56.93,373.3Z" fill="#fff"/><path d="M74.16,374.53c0-6.58,5.56-9.15,14.87-9.15H91.7v-.64c0-2.68-.64-4.44-3.69-4.44a3.44,3.44,0,0,0-3.8,3.31h-9c.43-6.74,5.72-10.05,13.37-10.05s12.63,3.15,12.63,10.59v18.14H91.92V379c-1.34,2-3.8,3.91-8.29,3.91C78.6,382.93,74.16,380.47,74.16,374.53Zm17.54-2v-1.72H89.19c-3.85,0-5.56.75-5.56,3.05,0,1.61,1.07,2.62,3.31,2.62C89.67,376.45,91.7,374.9,91.7,372.5Z" fill="#fff"/><path d="M105.88,354.31h9.58v5.56c1.76-4.17,4.71-6,9-5.94v8.94c-5.83-.16-9,1.65-9,6.15v13.27h-9.58Z" fill="#fff"/><path d="M129.69,373.3V360.83h-3.37v-6.52h3.37v-5.84h9.58v5.84h5.51v6.52h-5.51v11.56c0,2,1,2.94,2.83,2.94a7.34,7.34,0,0,0,2.73-.48v7.27a19.68,19.68,0,0,1-5.3.81C133.22,382.93,129.69,379.88,129.69,373.3Z" fill="#fff"/><path d="M148.2,346.71a5.28,5.28,0,1,1,5.24,4.92A5,5,0,0,1,148.2,346.71Zm.48,7.6h9.58v28h-9.58Z" fill="#fff"/><path d="M163.39,354.31H173v4.49a9.88,9.88,0,0,1,9.2-5.24c5.4,0,9.15,3.37,9.15,10.54v18.19h-9.58V366c0-3.15-1.23-4.71-4-4.71S173,363,173,366.61v15.68h-9.58Z" fill="#fff"/><path d="M194.42,382.29H204c.42,2,1.65,3.63,5.13,3.63,4.23,0,5.94-2.4,5.94-5.88v-4.28a9.81,9.81,0,0,1-8.67,5.13c-6.52,0-11.87-4.81-11.87-13.42V367c0-8.24,5.29-13.48,11.87-13.48,4.44,0,7.07,1.87,8.67,4.7v-3.95h9.58v25.62c0,8.35-5.52,12.73-15.52,12.73C199.56,392.66,195.17,388.65,194.42,382.29Zm20.87-14.88V367c0-3.85-2-6.31-5.51-6.31s-5.51,2.51-5.51,6.36v.43c0,3.85,2,6.31,5.45,6.31S215.29,371.37,215.29,367.41Z" fill="#fff"/><path d="M20.77,435V426.8a12.87,12.87,0,0,0,4.65.75c3,0,5-1.34,5-5.3V397.53h11v24.83c0,9.2-4.71,13.91-13.7,13.91A14.67,14.67,0,0,1,20.77,435Z" fill="#fff"/><path d="M44.47,428c0-6.58,5.56-9.15,14.87-9.15H62v-.64c0-2.68-.64-4.44-3.69-4.44a3.44,3.44,0,0,0-3.8,3.31h-9c.42-6.74,5.72-10.05,13.37-10.05s12.63,3.15,12.63,10.59v18.14H62.23v-3.27c-1.34,2-3.8,3.91-8.29,3.91C48.91,436.43,44.47,434,44.47,428ZM62,426v-1.72H59.5c-3.85,0-5.56.75-5.56,3.05,0,1.61,1.06,2.62,3.31,2.62C60,430,62,428.4,62,426Z" fill="#fff"/><path d="M76.19,407.81h9.58v4.49a9.85,9.85,0,0,1,9.2-5.24c5.4,0,9.15,3.37,9.15,10.54v18.19H94.54V419.52c0-3.15-1.23-4.71-4-4.71s-4.76,1.72-4.76,5.3v15.68H76.19Z" fill="#fff"/><path d="M135.25,428.46H116.64v-4.12l15.94-26.81h13.21v23.38h4.92v7.55h-4.92v7.33H135.25Zm.27-7.55V405.77L127,420.91Z" fill="#fff"/><path d="M153.07,431a5.33,5.33,0,0,1,5.46-5.4,5.4,5.4,0,1,1,0,10.8A5.33,5.33,0,0,1,153.07,431Z" fill="#fff"/></g></g><g id="Legal"><g id="Optional_loan_from_Axos_Bank_within_minutes_of_filing._Not_your" data-name="Optional loan from Axos Bank within minutes of filing. Not your"><path d="M20.5,465v-.08a3.16,3.16,0,1,1,6.31,0v.07a3.16,3.16,0,1,1-6.31,0Zm5.5,0v-.07a2.37,2.37,0,0,0-2.34-2.61,2.34,2.34,0,0,0-2.35,2.62v.08a2.42,2.42,0,0,0,2.37,2.62A2.35,2.35,0,0,0,26,464.92Z" fill="#fff"/><path d="M27.92,463.42h.75v.79a1.94,1.94,0,0,1,1.59-.88,2.14,2.14,0,0,1,2.14,2.37v.07a2.17,2.17,0,0,1-2.14,2.43,1.78,1.78,0,0,1-1.59-.85v2.41h-.75Zm3.71,2.39v-.07c0-1.19-.66-1.78-1.45-1.78s-1.54.57-1.54,1.78v.07c0,1.21.63,1.77,1.55,1.77S31.63,467,31.63,465.81Z" fill="#fff"/><path d="M33.59,466.94V464h-.67v-.62h.67v-1.08h.75v1.08h1.1V464h-1.1v2.83c0,.46.2.69.58.69a1.59,1.59,0,0,0,.58-.1v.63a1.85,1.85,0,0,1-.64.1A1.15,1.15,0,0,1,33.59,466.94Z" fill="#fff"/><path d="M36.37,461.94a.51.51,0,0,1,.5-.5.5.5,0,0,1,.49.5.49.49,0,0,1-.49.49A.5.5,0,0,1,36.37,461.94Zm.14,1.48h.74v4.7h-.74Z" fill="#fff"/><path d="M38.3,465.81v-.07a2.31,2.31,0,1,1,4.62,0v.07a2.31,2.31,0,1,1-4.62,0Zm3.85,0v-.06c0-1.09-.6-1.79-1.54-1.79a1.56,1.56,0,0,0-1.54,1.78v.07a1.55,1.55,0,1,0,3.08,0Z" fill="#fff"/><path d="M44,463.42h.75v.74a1.6,1.6,0,0,1,1.51-.83c1,0,1.66.53,1.66,1.9v2.89h-.75v-2.94c0-.83-.35-1.2-1.11-1.2a1.24,1.24,0,0,0-1.31,1.29v2.85H44Z" fill="#fff"/><path d="M48.81,466.82c0-1.09,1.15-1.46,2.36-1.46h.67V465c0-.75-.29-1.06-1-1.06s-1,.26-1.08.84H49a1.65,1.65,0,0,1,1.86-1.47A1.52,1.52,0,0,1,52.59,465v3.1h-.75v-.59a1.68,1.68,0,0,1-1.46.67C49.5,468.2,48.81,467.78,48.81,466.82Zm3-.34v-.59h-.65c-.94,0-1.63.23-1.63.93,0,.48.23.79.89.79S51.84,467.21,51.84,466.48Z" fill="#fff"/><path d="M53.94,461.16h.75v7h-.75Z" fill="#fff"/><path d="M58.36,461.16h.75v7h-.75Z" fill="#fff"/><path d="M60.16,465.81v-.07a2.32,2.32,0,1,1,4.63,0v.07a2.32,2.32,0,1,1-4.63,0Zm3.85,0v-.06c0-1.09-.6-1.79-1.54-1.79a1.56,1.56,0,0,0-1.54,1.78v.07a1.55,1.55,0,1,0,3.08,0Z" fill="#fff"/><path d="M65.42,466.82c0-1.09,1.15-1.46,2.36-1.46h.68V465c0-.75-.29-1.06-1-1.06s-1,.26-1.08.84h-.75a1.65,1.65,0,0,1,1.86-1.47A1.52,1.52,0,0,1,69.2,465v3.1h-.74v-.59a1.7,1.7,0,0,1-1.47.67C66.12,468.2,65.42,467.78,65.42,466.82Zm3-.34v-.59h-.65c-1,0-1.64.23-1.64.93,0,.48.23.79.89.79S68.46,467.21,68.46,466.48Z" fill="#fff"/><path d="M70.53,463.42h.75v.74a1.63,1.63,0,0,1,1.51-.83c1,0,1.66.53,1.66,1.9v2.89H73.7v-2.94c0-.83-.35-1.2-1.1-1.2a1.24,1.24,0,0,0-1.32,1.29v2.85h-.75Z" fill="#fff"/><path d="M78.19,464h-.67v-.62h.67v-.77c0-.95.47-1.51,1.41-1.51a1.4,1.4,0,0,1,.56.09v.63a1.41,1.41,0,0,0-.54-.1c-.48,0-.68.33-.68.81v.85h1.15V464H78.94v4.08h-.75Z" fill="#fff"/><path d="M81,463.42h.75v.84a1.64,1.64,0,0,1,1.55-.93V464c-1,0-1.55.34-1.55,1.5v2.58H81Z" fill="#fff"/><path d="M83.77,465.81v-.07a2.32,2.32,0,1,1,4.63,0v.07a2.32,2.32,0,1,1-4.63,0Zm3.86,0v-.06c0-1.09-.61-1.79-1.54-1.79s-1.54.7-1.54,1.78v.07c0,1.07.58,1.77,1.54,1.77A1.57,1.57,0,0,0,87.63,465.81Z" fill="#fff"/><path d="M89.43,463.42h.74v.71a1.54,1.54,0,0,1,1.41-.8,1.36,1.36,0,0,1,1.37.89,1.83,1.83,0,0,1,1.62-.89c.84,0,1.58.51,1.58,1.88v2.91H95.4v-3c0-.83-.35-1.17-1-1.17a1.21,1.21,0,0,0-1.24,1.26v2.88h-.75v-3c0-.83-.35-1.17-1-1.17a1.21,1.21,0,0,0-1.25,1.26v2.88h-.74Z" fill="#fff"/><path d="M101.51,461.69h1l2.18,6.43h-.78l-.63-1.85h-2.65l-.62,1.85H99.3Zm-.64,4h2.24L102,462.33Z" fill="#fff"/><path d="M106.84,465.7l-1.57-2.28h.87l1.15,1.7,1.14-1.7h.81l-1.55,2.23,1.72,2.47h-.89l-1.27-1.9-1.29,1.9h-.8Z" fill="#fff"/><path d="M109.7,465.81v-.07a2.32,2.32,0,1,1,4.63,0v.07a2.32,2.32,0,1,1-4.63,0Zm3.86,0v-.06c0-1.09-.61-1.79-1.54-1.79s-1.54.7-1.54,1.78v.07c0,1.07.58,1.77,1.54,1.77A1.57,1.57,0,0,0,113.56,465.81Z" fill="#fff"/><path d="M115,466.67h.73c0,.56.35.91,1.1.91s1-.24,1-.74-.37-.66-1.1-.8c-1.22-.22-1.64-.56-1.64-1.38a1.47,1.47,0,0,1,1.6-1.33,1.51,1.51,0,0,1,1.7,1.36h-.72c-.11-.51-.4-.73-1-.73s-.89.26-.89.67.23.59,1.09.75,1.66.39,1.66,1.39-.58,1.43-1.73,1.43S115,467.64,115,466.67Z" fill="#fff"/><path d="M121.84,461.69h1.94c1.2,0,2.07.39,2.07,1.66v0a1.32,1.32,0,0,1-1,1.36,1.41,1.41,0,0,1,1.28,1.54v0c0,1.22-.82,1.8-2.11,1.8h-2.21Zm1.94,2.81c.94,0,1.3-.35,1.3-1.14v0c0-.72-.42-1-1.32-1h-1.15v2.2Zm.25,3c.94,0,1.37-.41,1.37-1.2v0c0-.79-.44-1.17-1.48-1.17h-1.31v2.4Z" fill="#fff"/><path d="M126.86,466.82c0-1.09,1.16-1.46,2.36-1.46h.68V465c0-.75-.29-1.06-1-1.06s-1,.26-1.08.84h-.75a1.66,1.66,0,0,1,1.87-1.47,1.52,1.52,0,0,1,1.72,1.69v3.1h-.75v-.59a1.7,1.7,0,0,1-1.47.67C127.56,468.2,126.86,467.78,126.86,466.82Zm3-.34v-.59h-.65c-.94,0-1.64.23-1.64.93,0,.48.24.79.89.79C129.3,467.61,129.9,467.21,129.9,466.48Z" fill="#fff"/><path d="M132,463.42h.74v.74a1.63,1.63,0,0,1,1.52-.83c1,0,1.65.53,1.65,1.9v2.89h-.74v-2.94c0-.83-.36-1.2-1.11-1.2a1.24,1.24,0,0,0-1.32,1.29v2.85H132Z" fill="#fff"/><path d="M137.22,461.16H138v4.42l1.95-2.16h.88l-2,2.18,2.19,2.52h-.91L138,465.68v2.44h-.75Z" fill="#fff"/><path d="M143.48,463.42h.81l1.1,3.79,1.14-3.79h.65l1.07,3.79,1.11-3.79h.76l-1.46,4.7h-.83l-1-3.53-1.1,3.53h-.82Z" fill="#fff"/><path d="M150.88,461.94a.5.5,0,0,1,.49-.5.51.51,0,0,1,.5.5.5.5,0,0,1-.5.49A.49.49,0,0,1,150.88,461.94Zm.13,1.48h.75v4.7H151Z" fill="#fff"/><path d="M153.32,466.94V464h-.68v-.62h.68v-1.08h.74v1.08h1.1V464h-1.1v2.83c0,.46.21.69.59.69a1.57,1.57,0,0,0,.57-.1v.63a1.85,1.85,0,0,1-.64.1A1.14,1.14,0,0,1,153.32,466.94Z" fill="#fff"/><path d="M156.21,461.16H157v3a1.63,1.63,0,0,1,1.51-.83c1,0,1.66.53,1.66,1.9v2.89h-.75v-2.94c0-.83-.35-1.2-1.1-1.2a1.24,1.24,0,0,0-1.32,1.29v2.85h-.75Z" fill="#fff"/><path d="M161.34,461.94a.51.51,0,0,1,.5-.5.5.5,0,0,1,.49.5.49.49,0,0,1-.49.49A.5.5,0,0,1,161.34,461.94Zm.14,1.48h.75v4.7h-.75Z" fill="#fff"/><path d="M163.62,463.42h.75v.74a1.61,1.61,0,0,1,1.51-.83c1,0,1.66.53,1.66,1.9v2.89h-.75v-2.94c0-.83-.35-1.2-1.11-1.2a1.24,1.24,0,0,0-1.31,1.29v2.85h-.75Z" fill="#fff"/><path d="M171.12,463.42h.74v.71a1.54,1.54,0,0,1,1.41-.8,1.38,1.38,0,0,1,1.38.89,1.8,1.8,0,0,1,1.61-.89c.84,0,1.58.51,1.58,1.88v2.91h-.75v-3c0-.83-.35-1.17-1-1.17a1.21,1.21,0,0,0-1.25,1.26v2.88h-.74v-3c0-.83-.36-1.17-1-1.17a1.21,1.21,0,0,0-1.25,1.26v2.88h-.74Z" fill="#fff"/><path d="M179.05,461.94a.51.51,0,0,1,.5-.5.5.5,0,0,1,.49.5.49.49,0,0,1-.49.49A.5.5,0,0,1,179.05,461.94Zm.14,1.48h.75v4.7h-.75Z" fill="#fff"/><path d="M181.33,463.42h.75v.74a1.61,1.61,0,0,1,1.51-.83c1,0,1.66.53,1.66,1.9v2.89h-.75v-2.94c0-.83-.35-1.2-1.11-1.2a1.24,1.24,0,0,0-1.31,1.29v2.85h-.75Z" fill="#fff"/><path d="M186.53,466.39v-3h.75v2.94c0,.83.35,1.2,1.09,1.2a1.25,1.25,0,0,0,1.3-1.29v-2.85h.74v4.7h-.74v-.74a1.61,1.61,0,0,1-1.5.82C187.24,468.2,186.53,467.69,186.53,466.39Z" fill="#fff"/><path d="M192,466.94V464h-.67v-.62H192v-1.08h.75v1.08h1.1V464h-1.1v2.83c0,.46.21.69.58.69a1.59,1.59,0,0,0,.58-.1v.63a1.85,1.85,0,0,1-.64.1A1.15,1.15,0,0,1,192,466.94Z" fill="#fff"/><path d="M194.5,465.82v-.07a2.22,2.22,0,0,1,2.2-2.42,2.06,2.06,0,0,1,2.12,2.34v.25h-3.55c0,1.07.55,1.66,1.52,1.66.72,0,1.15-.27,1.25-.82h.74a1.8,1.8,0,0,1-2,1.44A2.21,2.21,0,0,1,194.5,465.82Zm3.55-.51c-.07-1-.57-1.35-1.35-1.35a1.41,1.41,0,0,0-1.4,1.35Z" fill="#fff"/><path d="M199.48,466.67h.73c.06.56.35.91,1.11.91s1-.24,1-.74-.37-.66-1.1-.8c-1.23-.22-1.64-.56-1.64-1.38a1.47,1.47,0,0,1,1.59-1.33,1.52,1.52,0,0,1,1.71,1.36h-.72c-.11-.51-.4-.73-1-.73s-.9.26-.9.67.24.59,1.1.75,1.66.39,1.66,1.39-.59,1.43-1.73,1.43S199.53,467.64,199.48,466.67Z" fill="#fff"/><path d="M206,465.81v-.07a2.31,2.31,0,1,1,4.62,0v.07a2.31,2.31,0,1,1-4.62,0Zm3.85,0v-.06c0-1.09-.6-1.79-1.54-1.79s-1.54.7-1.54,1.78v.07a1.55,1.55,0,1,0,3.08,0Z" fill="#fff"/><path d="M211.77,464h-.68v-.62h.68v-.77c0-.95.47-1.51,1.4-1.51a1.37,1.37,0,0,1,.56.09v.63a1.32,1.32,0,0,0-.53-.1c-.49,0-.68.33-.68.81v.85h1.15V464h-1.15v4.08h-.75Z" fill="#fff"/><path d="M217,464h-.68v-.62H217v-.77c0-.95.47-1.51,1.4-1.51a1.37,1.37,0,0,1,.56.09v.63a1.32,1.32,0,0,0-.53-.1c-.49,0-.68.33-.68.81v.85h1.15V464h-1.15v4.08H217Z" fill="#fff"/><path d="M219.7,461.94a.5.5,0,0,1,.49-.5.51.51,0,0,1,.5.5.5.5,0,0,1-.5.49A.49.49,0,0,1,219.7,461.94Zm.13,1.48h.75v4.7h-.75Z" fill="#fff"/><path d="M222,461.16h.76v7H222Z" fill="#fff"/><path d="M224,461.94a.5.5,0,0,1,.49-.5.51.51,0,0,1,.5.5.5.5,0,0,1-.5.49A.49.49,0,0,1,224,461.94Zm.13,1.48h.75v4.7h-.75Z" fill="#fff"/><path d="M226.3,463.42h.75v.74a1.63,1.63,0,0,1,1.51-.83c1,0,1.66.53,1.66,1.9v2.89h-.75v-2.94c0-.83-.35-1.2-1.1-1.2a1.24,1.24,0,0,0-1.32,1.29v2.85h-.75Z" fill="#fff"/><path d="M231.3,468.39h.76c.11.54.56.82,1.36.82a1.33,1.33,0,0,0,1.52-1.45v-.68a2,2,0,0,1-1.6.89,2.12,2.12,0,0,1-2.14-2.23v-.07a2.23,2.23,0,0,1,2.2-2.34,1.69,1.69,0,0,1,1.54.84v-.75h.74v4.39a2,2,0,0,1-2.25,2C232,469.84,231.42,469.19,231.3,468.39Zm3.66-2.71v-.06a1.45,1.45,0,0,0-1.49-1.66,1.5,1.5,0,0,0-1.5,1.68v.07a1.49,1.49,0,0,0,1.45,1.64A1.51,1.51,0,0,0,235,465.68Z" fill="#fff"/><path d="M237,467.59a.58.58,0,1,1,.57.58A.57.57,0,0,1,237,467.59Z" fill="#fff"/><path d="M20.81,470.69h1L25,476v-5.32h.75v6.43h-.9l-3.25-5.52v5.52h-.75Z" fill="#fff"/><path d="M26.79,474.81v-.07a2.31,2.31,0,1,1,4.62,0v.07a2.31,2.31,0,1,1-4.62,0Zm3.85,0v-.06c0-1.09-.6-1.79-1.54-1.79s-1.54.7-1.54,1.78v.07a1.55,1.55,0,1,0,3.08,0Z" fill="#fff"/><path d="M32.6,475.94V473h-.68v-.62h.68v-1.08h.75v1.08h1.1V473h-1.1v2.83c0,.46.2.69.58.69a1.59,1.59,0,0,0,.58-.1v.63a1.85,1.85,0,0,1-.64.1A1.15,1.15,0,0,1,32.6,475.94Z" fill="#fff"/><path d="M39.06,476.64l-1.84-4.22H38l1.44,3.37,1.3-3.37h.77l-2.6,6.34h-.76Z" fill="#fff"/><path d="M41.89,474.81v-.07a2.32,2.32,0,1,1,4.63,0v.07a2.32,2.32,0,1,1-4.63,0Zm3.85,0v-.06c0-1.09-.6-1.79-1.54-1.79a1.56,1.56,0,0,0-1.54,1.78v.07a1.55,1.55,0,1,0,3.08,0Z" fill="#fff"/><path d="M47.5,475.39v-3h.74v2.94c0,.83.35,1.2,1.09,1.2a1.25,1.25,0,0,0,1.3-1.29v-2.85h.75v4.7h-.75v-.74a1.61,1.61,0,0,1-1.5.82C48.2,477.2,47.5,476.69,47.5,475.39Z" fill="#fff"/><path d="M52.75,472.42h.75v.84a1.64,1.64,0,0,1,1.55-.93V473c-.95,0-1.55.34-1.55,1.5v2.58h-.75Z" fill="#fff"/><path d="M58.41,475.94V473h-.67v-.62h.67v-1.08h.75v1.08h1.1V473h-1.1v2.83c0,.46.21.69.58.69a1.59,1.59,0,0,0,.58-.1v.63a1.85,1.85,0,0,1-.64.1A1.15,1.15,0,0,1,58.41,475.94Z" fill="#fff"/><path d="M61,475.82c0-1.09,1.15-1.46,2.36-1.46H64V474c0-.75-.29-1.06-1-1.06s-1,.26-1.08.84h-.74A1.64,1.64,0,0,1,63,472.33,1.52,1.52,0,0,1,64.75,474v3.1H64v-.59a1.69,1.69,0,0,1-1.47.67C61.66,477.2,61,476.78,61,475.82Zm3-.34v-.59h-.65c-.94,0-1.64.23-1.64.93,0,.48.24.79.9.79S64,476.21,64,475.48Z" fill="#fff"/><path d="M67.26,474.7l-1.58-2.28h.88l1.15,1.7,1.14-1.7h.81l-1.56,2.23,1.72,2.47h-.88l-1.27-1.9-1.29,1.9h-.8Z" fill="#fff"/><path d="M73,472.42h.74v.84a1.66,1.66,0,0,1,1.55-.93V473c-.94,0-1.55.34-1.55,1.5v2.58H73Z" fill="#fff"/><path d="M75.71,474.82v-.07a2.22,2.22,0,0,1,2.21-2.42A2.06,2.06,0,0,1,80,474.67v.25H76.48c0,1.07.55,1.66,1.52,1.66.73,0,1.15-.27,1.25-.82H80a1.8,1.8,0,0,1-2,1.44A2.21,2.21,0,0,1,75.71,474.82Zm3.56-.51c-.08-1-.58-1.35-1.35-1.35a1.41,1.41,0,0,0-1.41,1.35Z" fill="#fff"/><path d="M81.2,473h-.68v-.62h.68v-.77c0-.95.47-1.51,1.4-1.51a1.37,1.37,0,0,1,.56.09v.63a1.32,1.32,0,0,0-.53-.1c-.49,0-.68.33-.68.81v.85H83.1V473H82v4.08H81.2Z" fill="#fff"/><path d="M84,475.39v-3h.75v2.94c0,.83.35,1.2,1.09,1.2a1.24,1.24,0,0,0,1.29-1.29v-2.85h.75v4.7H87.1v-.74a1.59,1.59,0,0,1-1.49.82C84.67,477.2,84,476.69,84,475.39Z" fill="#fff"/><path d="M89.23,472.42H90v.74a1.63,1.63,0,0,1,1.52-.83c1,0,1.65.53,1.65,1.9v2.89H92.4v-2.94c0-.83-.36-1.2-1.11-1.2A1.24,1.24,0,0,0,90,474.27v2.85h-.74Z" fill="#fff"/><path d="M94.12,474.86v-.07a2.24,2.24,0,0,1,2.2-2.46,1.69,1.69,0,0,1,1.54.84v-3h.75v7h-.75v-.81a2,2,0,0,1-1.61.89A2.1,2.1,0,0,1,94.12,474.86Zm3.77-.06v-.07c0-1.21-.58-1.77-1.5-1.77s-1.49.65-1.49,1.79v.08c0,1.19.64,1.75,1.43,1.75S97.89,476,97.89,474.8Z" fill="#fff"/><path d="M99.92,476.59a.58.58,0,1,1,.58.58A.57.57,0,0,1,99.92,476.59Z" fill="#fff"/></g></g></g></svg>