<svg xmlns="http://www.w3.org/2000/svg" viewBox="0 0 320 1200"><title>H1</title><g id="Layer_2" data-name="Layer 2"><g id="Layer_4" data-name="Layer 4"><rect width="320" height="1200" fill="none"/></g><g id="Get_more_with_Block_tax_software." data-name="Get more with Block tax  software."><path d="M39.53,276.4V276c0-11.09,8.13-18.56,19.07-18.56,8.59,0,16.21,3.91,16.93,13.37H65.2c-.5-3.41-2.69-5.19-6.55-5.19-5.14,0-8.24,4-8.24,10.53v.41c0,5.89,2.19,10.47,8.49,10.47,5.08,0,7-2.59,7.22-5.49H59.31v-7.27H76.39v4.47c0,9.25-6,16.22-17.79,16.22C46.24,295,39.53,287.28,39.53,276.4Z" fill="#14aa40"/><path d="M78.48,281.39V281c0-8.54,6.35-13.93,14.39-13.93,7.27,0,13.52,4.17,13.52,13.73v2.39H87.68c.25,3.5,2.29,5.54,5.54,5.54,3,0,4.27-1.38,4.63-3.16h8.54c-.81,6-5.44,9.41-13.47,9.41C84.58,295,78.48,290.08,78.48,281.39ZM97.54,278c-.15-3.2-1.73-5-4.67-5-2.75,0-4.63,1.78-5.09,5Z" fill="#14aa40"/><path d="M110.76,285.81V274h-3.2v-6.2h3.2v-5.54h9.1v5.54h5.24V274h-5.24v11c0,1.94,1,2.8,2.7,2.8a6.8,6.8,0,0,0,2.59-.46v6.92a19.34,19.34,0,0,1-5,.76C114.12,295,110.76,292.06,110.76,285.81Z" fill="#14aa40"/><path d="M137.81,267.76h9.1v4.07a9.29,9.29,0,0,1,8.34-4.78c3.51,0,5.95,1.52,7.22,4.42a10.54,10.54,0,0,1,8.8-4.42c5,0,8.69,3.25,8.69,9.91v17.39h-9.1V278.49c0-2.7-1.32-4-3.4-4-2.45,0-4.07,1.58-4.07,4.47v15.41h-9V278.49c0-2.7-1.32-4-3.41-4-2.44,0-4.07,1.58-4.07,4.47v15.41h-9.1Z" fill="#14aa40"/><path d="M183,281.39V281c0-8.54,6.35-13.93,14.59-13.93s14.49,5.23,14.49,13.67v.41c0,8.64-6.36,13.83-14.54,13.83S183,290,183,281.39Zm19.82-.16v-.4c0-4.48-1.78-7-5.23-7s-5.29,2.39-5.29,6.86v.41c0,4.58,1.78,7.07,5.29,7.07S202.79,285.66,202.79,281.23Z" fill="#14aa40"/><path d="M215.25,267.76h9.1v5.29c1.68-4,4.48-5.7,8.6-5.65v8.49c-5.55-.15-8.6,1.58-8.6,5.85v12.61h-9.1Z" fill="#14aa40"/><path d="M234.57,281.39V281c0-8.54,6.36-13.93,14.39-13.93,7.27,0,13.53,4.17,13.53,13.73v2.39H243.78c.25,3.5,2.28,5.54,5.54,5.54,3,0,4.27-1.38,4.62-3.16h8.55c-.82,6-5.44,9.41-13.48,9.41C240.67,295,234.57,290.08,234.57,281.39ZM253.64,278c-.15-3.2-1.73-5-4.68-5-2.74,0-4.62,1.78-5.08,5Z" fill="#14aa40"/><path d="M38.41,321.76h9.51l3.86,15.91,4.48-15.91h7.32l4,15.91,4.32-15.91h8.65l-8.44,26.59h-8.7l-4-14.85-4.12,14.85H46.44Z" fill="#14aa40"/><path d="M82.65,314.54a5,5,0,1,1,5,4.68A4.75,4.75,0,0,1,82.65,314.54Zm.45,7.22h9.11v26.59H83.1Z" fill="#14aa40"/><path d="M98.31,339.81V328H95.1v-6.2h3.21v-5.54h9.1v5.54h5.23V328h-5.23v11c0,1.94,1,2.8,2.69,2.8a6.89,6.89,0,0,0,2.6-.46v6.92a19.35,19.35,0,0,1-5,.76C101.66,349,98.31,346.06,98.31,339.81Z" fill="#14aa40"/><path d="M116.1,310.07h9.1v16a9.4,9.4,0,0,1,8.75-5c5.13,0,8.69,3.2,8.69,10v17.29h-9.1V332.89c0-3-1.17-4.47-3.81-4.47s-4.53,1.63-4.53,5v14.9h-9.1Z" fill="#14aa40"/><path d="M41.46,366H57.68c8.59,0,12.25,3.86,12.25,9.51v.2c0,4.07-2.08,6.76-6.15,7.83,4.47.76,7.27,3.46,7.27,8.49v.2c0,6.51-4.22,10.12-13.22,10.12H41.46ZM55.6,380.44c3.25,0,4.47-1.12,4.47-3.71v-.21c0-2.49-1.32-3.61-4.47-3.61h-4v7.53ZM56,395.38c3.31,0,4.83-1.52,4.83-4.21V391c0-2.74-1.47-4.17-5.13-4.17h-4v8.59Z" fill="#14aa40"/><path d="M74.66,364.07h9v38.28h-9Z" fill="#14aa40"/><path d="M87.17,389.39V389c0-8.54,6.36-13.93,14.59-13.93s14.49,5.23,14.49,13.67v.41c0,8.64-6.35,13.83-14.54,13.83S87.17,398,87.17,389.39Zm19.83-.16v-.4c0-4.48-1.78-7-5.24-7s-5.28,2.39-5.28,6.86v.41c0,4.58,1.78,7.07,5.28,7.07S107,393.66,107,389.23Z" fill="#14aa40"/><path d="M118,389.39V389c0-8.85,6.35-13.93,14.18-13.93,6.51,0,12.51,2.85,13,10.93h-8.55c-.4-2.49-1.62-3.87-4.27-3.87-3.2,0-5.08,2.29-5.08,6.77v.4c0,4.63,1.78,7,5.24,7,2.54,0,4.32-1.53,4.62-4.42h8.19C145.13,398.59,140.61,403,132,403,124.09,403,118,398.33,118,389.39Z" fill="#14aa40"/><path d="M148.34,364.07h9.1v22.21l7.17-10.52h9.46l-8.7,11.95,9.41,14.64H164.61l-7.17-11.64v11.64h-9.1Z" fill="#14aa40"/><path d="M187.39,393.81V382h-3.2v-6.2h3.2v-5.54h9.1v5.54h5.24V382h-5.24v11c0,1.94,1,2.8,2.7,2.8a6.87,6.87,0,0,0,2.59-.46v6.92a19.34,19.34,0,0,1-5,.76C190.75,403,187.39,400.06,187.39,393.81Z" fill="#14aa40"/><path d="M203.76,395c0-6.26,5.29-8.7,14.14-8.7h2.54v-.61c0-2.54-.61-4.22-3.51-4.22a3.27,3.27,0,0,0-3.61,3.16h-8.54c.41-6.41,5.44-9.56,12.71-9.56s12,3,12,10.06v17.24h-8.85v-3.1c-1.27,1.93-3.61,3.71-7.88,3.71C208,403,203.76,400.62,203.76,395Zm16.68-1.93v-1.63h-2.39c-3.66,0-5.29.71-5.29,2.9,0,1.52,1,2.49,3.15,2.49C218.51,396.81,220.44,395.33,220.44,393.05Z" fill="#14aa40"/><path d="M240.63,388.83l-8.29-13.07h10.47l4.12,7,4-7h9.35l-8.39,12.35,9.21,14.24H250.64l-4.73-7.93-4.83,7.93h-9.3Z" fill="#14aa40"/><path d="M38.87,447.91h8.39c.3,1.93,1.17,3,3.76,3,2.24,0,3.25-.86,3.25-2.19s-1.27-1.88-4.93-2.39c-7.12-.91-10.12-3-10.12-8.54,0-5.89,5.24-8.74,11.39-8.74,6.56,0,11.14,2.23,11.75,8.59H54.12c-.35-1.78-1.32-2.64-3.41-2.64s-3,.86-3,2.08,1.23,1.78,4.48,2.19c7.37.91,10.93,2.84,10.93,8.54,0,6.3-4.68,9.15-12,9.15C43.5,457,39.07,453.81,38.87,447.91Z" fill="#14aa40"/><path d="M64.8,443.39V443c0-8.54,6.35-13.93,14.59-13.93s14.49,5.23,14.49,13.67v.41c0,8.64-6.35,13.83-14.54,13.83S64.8,452,64.8,443.39Zm19.83-.16v-.4c0-4.48-1.78-7-5.24-7s-5.29,2.39-5.29,6.86v.41c0,4.58,1.78,7.07,5.29,7.07S84.63,447.66,84.63,443.23Z" fill="#14aa40"/><path d="M98.46,436H95.1v-6.2h3.36v-2.34c0-6.61,4.12-9.76,10.42-9.76a16,16,0,0,1,4.17.56v6.66a8.43,8.43,0,0,0-2.49-.36c-2.14,0-3,1.17-3,2.9v2.34h5.39V436h-5.39v20.39H98.46Z" fill="#14aa40"/><path d="M117.42,447.81V436h-3.2v-6.2h3.2v-5.54h9.1v5.54h5.24V436h-5.24v11c0,1.94,1,2.8,2.7,2.8a6.8,6.8,0,0,0,2.59-.46v6.92a19.34,19.34,0,0,1-5,.76C120.78,457,117.42,454.06,117.42,447.81Z" fill="#14aa40"/><path d="M133,429.76h9.51l3.86,15.91,4.48-15.91h7.32l4,15.91,4.32-15.91h8.64l-8.44,26.59H158l-4-14.85-4.12,14.85H141Z" fill="#14aa40"/><path d="M174.88,449c0-6.26,5.29-8.7,14.14-8.7h2.54v-.61c0-2.54-.61-4.22-3.51-4.22a3.27,3.27,0,0,0-3.61,3.16H175.9c.4-6.41,5.44-9.56,12.71-9.56s12,3,12,10.06v17.24h-8.85v-3.1c-1.27,1.93-3.61,3.71-7.88,3.71C179.1,457,174.88,454.62,174.88,449Zm16.68-1.93v-1.63h-2.39c-3.66,0-5.29.71-5.29,2.9,0,1.52,1,2.49,3.15,2.49C189.63,450.81,191.56,449.33,191.56,447.05Z" fill="#14aa40"/><path d="M205,429.76h9.1v5.29c1.68-4,4.48-5.7,8.6-5.65v8.49c-5.55-.15-8.6,1.58-8.6,5.85v12.61H205Z" fill="#14aa40"/><path d="M224.35,443.39V443c0-8.54,6.36-13.93,14.39-13.93,7.27,0,13.53,4.17,13.53,13.73v2.39H233.56c.25,3.5,2.28,5.54,5.54,5.54,3,0,4.27-1.38,4.62-3.16h8.55c-.82,6-5.44,9.41-13.48,9.41C230.46,457,224.35,452.08,224.35,443.39ZM243.42,440c-.15-3.2-1.73-5-4.68-5-2.74,0-4.62,1.78-5.08,5Z" fill="#14aa40"/><path d="M254.81,451.77a5.07,5.07,0,0,1,5.19-5.13,5.14,5.14,0,1,1,0,10.27A5.08,5.08,0,0,1,254.81,451.77Z" fill="#14aa40"/></g></g></svg>