<svg xmlns="http://www.w3.org/2000/svg" viewBox="0 0 160 600"><title>H66</title><g id="Layer_2" data-name="Layer 2"><g id="Rect"><rect width="160" height="600" fill="none"/></g><g id="H66"><g id="Get_more_with_Block_tax_software." data-name="Get more with Block tax  software."><path d="M19.76,138.2V138c0-5.54,4.07-9.28,9.54-9.28,4.29,0,8.11,2,8.46,6.68H32.6c-.25-1.7-1.35-2.59-3.28-2.59-2.56,0-4.12,2-4.12,5.26v.21c0,2.95,1.1,5.23,4.25,5.23,2.54,0,3.51-1.29,3.61-2.74H29.65v-3.64h8.54v2.24c0,4.63-3,8.11-8.89,8.11C23.12,147.48,19.76,143.64,19.76,138.2Z" fill="#14aa40"/><path d="M39.24,140.69v-.2c0-4.27,3.18-7,7.19-7,3.64,0,6.76,2.09,6.76,6.87v1.19H43.84a2.65,2.65,0,0,0,2.77,2.77c1.5,0,2.14-.68,2.31-1.57h4.27c-.4,3-2.72,4.7-6.73,4.7C42.29,147.48,39.24,145,39.24,140.69ZM48.77,139c-.07-1.6-.86-2.49-2.34-2.49A2.53,2.53,0,0,0,43.89,139Z" fill="#14aa40"/><path d="M55.38,142.9V137h-1.6v-3.1h1.6v-2.77h4.55v2.77h2.62V137H59.93v5.49a1.22,1.22,0,0,0,1.35,1.4,3.54,3.54,0,0,0,1.3-.23v3.46a9.71,9.71,0,0,1-2.52.38C57.06,147.48,55.38,146,55.38,142.9Z" fill="#14aa40"/><path d="M68.91,133.88h4.55v2a4.65,4.65,0,0,1,4.17-2.39,3.63,3.63,0,0,1,3.61,2.22,5.25,5.25,0,0,1,4.39-2.22c2.52,0,4.35,1.63,4.35,5v8.69H85.43v-7.93c0-1.34-.66-2-1.7-2a2,2,0,0,0-2,2.23v7.7h-4.5v-7.93c0-1.34-.66-2-1.7-2a2,2,0,0,0-2,2.23v7.7H68.91Z" fill="#14aa40"/><path d="M91.48,140.69v-.2c0-4.27,3.18-7,7.3-7s7.24,2.62,7.24,6.84v.21c0,4.32-3.17,6.91-7.27,6.91S91.48,145,91.48,140.69Zm9.92-.07v-.21c0-2.23-.89-3.48-2.62-3.48s-2.65,1.19-2.65,3.43v.21c0,2.28.9,3.53,2.65,3.53S101.4,142.83,101.4,140.62Z" fill="#14aa40"/><path d="M107.63,133.88h4.55v2.64a4.2,4.2,0,0,1,4.29-2.82V138c-2.77-.08-4.29.78-4.29,2.92v6.3h-4.55Z" fill="#14aa40"/><path d="M117.29,140.69v-.2c0-4.27,3.18-7,7.19-7,3.64,0,6.76,2.09,6.76,6.87v1.19h-9.35a2.65,2.65,0,0,0,2.77,2.77c1.5,0,2.13-.68,2.31-1.57h4.27c-.4,3-2.72,4.7-6.73,4.7C120.34,147.48,117.29,145,117.29,140.69Zm9.53-1.68c-.08-1.6-.86-2.49-2.34-2.49a2.53,2.53,0,0,0-2.54,2.49Z" fill="#14aa40"/><path d="M19.21,160.88H24l1.93,8,2.24-8h3.66l2,8,2.16-8h4.32L36,174.17H31.69l-2-7.42-2.05,7.42H23.22Z" fill="#14aa40"/><path d="M41.32,157.27a2.51,2.51,0,1,1,2.49,2.34A2.37,2.37,0,0,1,41.32,157.27Zm.23,3.61H46.1v13.29H41.55Z" fill="#14aa40"/><path d="M49.15,169.9V164h-1.6v-3.1h1.6v-2.77H53.7v2.77h2.62V164H53.7v5.49a1.22,1.22,0,0,0,1.35,1.4,3.54,3.54,0,0,0,1.3-.23v3.46a9.71,9.71,0,0,1-2.52.38C50.83,174.48,49.15,173,49.15,169.9Z" fill="#14aa40"/><path d="M58.05,155H62.6v8a4.68,4.68,0,0,1,4.37-2.5c2.57,0,4.35,1.6,4.35,5v8.64H66.77v-7.72c0-1.5-.58-2.24-1.91-2.24s-2.26.81-2.26,2.52v7.44H58.05Z" fill="#14aa40"/><path d="M20.73,183h8.11c4.3,0,6.13,1.93,6.13,4.75v.1a3.75,3.75,0,0,1-3.08,3.92A4,4,0,0,1,35.53,196v.11c0,3.25-2.11,5-6.61,5H20.73Zm7.07,7.22c1.62,0,2.23-.56,2.23-1.86v-.1c0-1.24-.66-1.8-2.23-1.8h-2v3.76Zm.18,7.47c1.65,0,2.41-.76,2.41-2.11v-.1c0-1.37-.74-2.08-2.57-2.08h-2v4.29Z" fill="#14aa40"/><path d="M37.33,182h4.53v19.14H37.33Z" fill="#14aa40"/><path d="M43.59,194.69v-.2c0-4.27,3.17-7,7.29-7s7.25,2.62,7.25,6.84v.21c0,4.32-3.18,6.91-7.27,6.91S43.59,199,43.59,194.69Zm9.91-.07v-.21c0-2.23-.89-3.48-2.62-3.48s-2.64,1.19-2.64,3.43v.21c0,2.28.89,3.53,2.64,3.53S53.5,196.83,53.5,194.62Z" fill="#14aa40"/><path d="M59,194.69v-.2c0-4.42,3.17-7,7.09-7,3.25,0,6.25,1.43,6.51,5.47H68.35a2,2,0,0,0-2.14-1.93c-1.6,0-2.54,1.14-2.54,3.38v.2c0,2.32.89,3.51,2.62,3.51a2.21,2.21,0,0,0,2.31-2.21h4.09c-.12,3.35-2.39,5.54-6.68,5.54C62,201.48,59,199.17,59,194.69Z" fill="#14aa40"/><path d="M74.17,182h4.55v11.11l3.58-5.26H87l-4.34,6,4.7,7.32H82.3l-3.58-5.82v5.82H74.17Z" fill="#14aa40"/><path d="M93.69,196.9V191h-1.6v-3.1h1.6v-2.77h4.55v2.77h2.62V191H98.24v5.49a1.22,1.22,0,0,0,1.35,1.4,3.54,3.54,0,0,0,1.3-.23v3.46a9.71,9.71,0,0,1-2.52.38C95.37,201.48,93.69,200,93.69,196.9Z" fill="#14aa40"/><path d="M101.88,197.49c0-3.13,2.64-4.35,7.07-4.35h1.27v-.3c0-1.27-.31-2.11-1.76-2.11a1.63,1.63,0,0,0-1.8,1.57h-4.27c.2-3.2,2.72-4.78,6.35-4.78s6,1.5,6,5v8.61h-4.42v-1.55a4.37,4.37,0,0,1-3.94,1.86C104,201.48,101.88,200.31,101.88,197.49Zm8.34-1v-.81H109c-1.83,0-2.64.35-2.64,1.45,0,.76.51,1.24,1.58,1.24C109.25,198.4,110.22,197.67,110.22,196.52Z" fill="#14aa40"/><path d="M120.31,194.41l-4.14-6.53h5.23l2.06,3.51,2-3.51h4.68L126,194.06l4.6,7.11h-5.24l-2.36-4-2.42,4h-4.65Z" fill="#14aa40"/><path d="M19.43,224h4.2c.15,1,.58,1.49,1.88,1.49,1.12,0,1.63-.43,1.63-1.09s-.64-.94-2.47-1.19c-3.56-.46-5.06-1.5-5.06-4.27,0-3,2.62-4.38,5.7-4.38,3.28,0,5.56,1.12,5.87,4.3H27.06a1.48,1.48,0,0,0-1.7-1.32c-1,0-1.5.43-1.5,1s.61.89,2.23,1.09c3.69.46,5.47,1.43,5.47,4.27,0,3.16-2.34,4.58-6,4.58S19.54,226.9,19.43,224Z" fill="#14aa40"/><path d="M32.4,221.69v-.2c0-4.27,3.18-7,7.3-7s7.24,2.62,7.24,6.84v.21c0,4.32-3.18,6.91-7.27,6.91S32.4,226,32.4,221.69Zm9.91-.07v-.21c0-2.23-.89-3.48-2.61-3.48s-2.65,1.19-2.65,3.43v.21c0,2.28.89,3.53,2.65,3.53S42.31,223.83,42.31,221.62Z" fill="#14aa40"/><path d="M49.23,218H47.55v-3.1h1.68v-1.17c0-3.3,2.06-4.88,5.21-4.88a8.26,8.26,0,0,1,2.09.28v3.33a4.25,4.25,0,0,0-1.25-.18,1.34,1.34,0,0,0-1.53,1.45v1.17h2.7V218h-2.7v10.19H49.23Z" fill="#14aa40"/><path d="M58.71,223.9V218h-1.6v-3.1h1.6v-2.77h4.55v2.77h2.62V218H63.26v5.49a1.22,1.22,0,0,0,1.35,1.4,3.54,3.54,0,0,0,1.3-.23v3.46a9.71,9.71,0,0,1-2.52.38C60.39,228.48,58.71,227,58.71,223.9Z" fill="#14aa40"/><path d="M66.49,214.88h4.76l1.93,8,2.23-8h3.67l2,8,2.16-8h4.32l-4.22,13.29H79l-2-7.42-2.06,7.42H70.51Z" fill="#14aa40"/><path d="M87.44,224.49c0-3.13,2.64-4.35,7.07-4.35h1.27v-.3c0-1.27-.31-2.11-1.76-2.11a1.63,1.63,0,0,0-1.8,1.57H88c.2-3.2,2.72-4.78,6.35-4.78s6,1.5,6,5v8.61H95.88v-1.55a4.36,4.36,0,0,1-3.94,1.86C89.55,228.48,87.44,227.31,87.44,224.49Zm8.34-1v-.81h-1.2c-1.83,0-2.64.35-2.64,1.45,0,.76.51,1.24,1.58,1.24C94.81,225.4,95.78,224.67,95.78,223.52Z" fill="#14aa40"/><path d="M102.52,214.88h4.55v2.64a4.19,4.19,0,0,1,4.29-2.82V219c-2.77-.08-4.29.78-4.29,2.92v6.3h-4.55Z" fill="#14aa40"/><path d="M112.18,221.69v-.2c0-4.27,3.17-7,7.19-7,3.64,0,6.76,2.09,6.76,6.87v1.19h-9.35a2.65,2.65,0,0,0,2.77,2.77c1.5,0,2.13-.68,2.31-1.57h4.27c-.4,3-2.72,4.7-6.73,4.7C115.23,228.48,112.18,226,112.18,221.69Zm9.53-1.68c-.08-1.6-.87-2.49-2.34-2.49a2.53,2.53,0,0,0-2.54,2.49Z" fill="#14aa40"/><path d="M127.41,225.89a2.53,2.53,0,0,1,2.59-2.57,2.57,2.57,0,1,1,0,5.13A2.53,2.53,0,0,1,127.41,225.89Z" fill="#14aa40"/></g></g></g></svg>