<svg xmlns="http://www.w3.org/2000/svg" viewBox="0 0 136 36"><title>cta</title><g id="Layer_2" data-name="Layer 2"><g id="CTA_-_FIND_AN_OFFICE" data-name="CTA - FIND AN OFFICE"><g id="Rectangle_1" data-name="Rectangle 1"><rect width="136" height="36" fill="none"/></g><g id="Try_Tax_Pro_Go" data-name="Try Tax Pro Go"><path d="M18.09,13.2H15v-2h8.8v2H20.7v9.43H18.09Z" fill="#292929"/><path d="M24.42,14.25h2.32v1.6a2.76,2.76,0,0,1,2.71-1.73v2.17c-1.71,0-2.71.54-2.71,2.14v4.2H24.42Z" fill="#292929"/><path d="M33.38,21.78l-3.33-7.53h2.49l2,5,1.87-5h2.23L34.15,25.48H31.9Z" fill="#292929"/><path d="M45.46,13.2H42.37v-2h8.79v2H48.07v9.43H45.46Z" fill="#292929"/><path d="M50.75,20.31c0-2,1.79-2.69,4.35-2.69h.95v-.34c0-1-.3-1.54-1.36-1.54a1.27,1.27,0,0,0-1.43,1.19H51.07c.14-2,1.71-2.87,3.76-2.87s3.51.83,3.51,3.11v5.46H56.08v-1a2.86,2.86,0,0,1-2.53,1.19C52,22.81,50.75,22.07,50.75,20.31Zm5.3-.61V19h-.9c-1.34,0-2.13.28-2.13,1.18,0,.61.37,1,1.22,1C55.26,21.19,56.05,20.63,56.05,19.7Z" fill="#292929"/><path d="M62.2,18.35l-2.67-4.1h2.66l1.57,2.52,1.53-2.52H67.7L65,18.18l3,4.45H65.29l-1.76-2.82-1.81,2.82H59.33Z" fill="#292929"/><path d="M72.57,11.18h4c2.78,0,4.37,1.23,4.37,3.65v.06c0,2.42-1.68,3.58-4.29,3.58H75.15v4.16H72.57Zm3.89,5.48c1.27,0,1.94-.61,1.94-1.75v-.06c0-1.22-.7-1.7-1.94-1.7H75.15v3.51Z" fill="#292929"/><path d="M82.15,14.25h2.32v1.6a2.76,2.76,0,0,1,2.71-1.73v2.17c-1.71,0-2.71.54-2.71,2.14v4.2H82.15Z" fill="#292929"/><path d="M87.81,18.53V18.4a4.42,4.42,0,0,1,8.83,0v.13a4.42,4.42,0,0,1-8.83.05Zm6.47,0v-.11c0-1.61-.75-2.57-2-2.57s-2,.93-2,2.53v.13c0,1.6.74,2.57,2,2.57S94.28,20.08,94.28,18.5Z" fill="#292929"/><path d="M100.88,17v-.13A5.61,5.61,0,0,1,106.71,11c2.55,0,4.83,1.17,5.1,4h-2.58a2.21,2.21,0,0,0-2.48-2c-2,0-3.16,1.49-3.16,3.83V17c0,2.21,1,3.8,3.19,3.8a2.42,2.42,0,0,0,2.76-2.42H107V16.5h5.14v1.21c0,3.06-2,5.1-5.39,5.1A5.44,5.44,0,0,1,100.88,17Z" fill="#292929"/><path d="M113,18.53V18.4a4.2,4.2,0,0,1,4.42-4.34,4.16,4.16,0,0,1,4.41,4.29v.13a4.42,4.42,0,0,1-8.83.05Zm6.48,0v-.11c0-1.61-.76-2.57-2.06-2.57s-2.05.93-2.05,2.53v.13c0,1.6.74,2.57,2.05,2.57S119.49,20.08,119.49,18.5Z" fill="#292929"/></g></g></g></svg>