<svg xmlns="http://www.w3.org/2000/svg" viewBox="0 0 970 250"><title>H01</title><g id="Layer_2" data-name="Layer 2"><g id="Rect"><rect width="970" height="250" fill="none"/></g><g id="The_easiest_way_to_get_taxes_done_for_you." data-name="The easiest way to get taxes done for you."><path d="M289,70.36H278.88v-8.6h31.37v8.6H300.18v30.32H289Z" fill="#fff"/><path d="M313.46,59.69h9.75V76.78a10,10,0,0,1,9.37-5.33c5.5,0,9.31,3.43,9.31,10.72v18.51h-9.75V84.13c0-3.21-1.25-4.79-4.08-4.79s-4.85,1.74-4.85,5.39v16h-9.75Z" fill="#fff"/><path d="M345.1,86.8v-.44c0-9.14,6.81-14.91,15.41-14.91,7.79,0,14.49,4.46,14.49,14.7v2.56H355c.28,3.75,2.46,5.93,5.94,5.93,3.21,0,4.58-1.47,5-3.38H375c-.88,6.43-5.83,10.08-14.44,10.08C351.63,101.34,345.1,96.11,345.1,86.8Zm20.42-3.59c-.16-3.43-1.85-5.34-5-5.34-2.94,0-5,1.91-5.45,5.34Z" fill="#fff"/><path d="M386.75,86.8v-.44c0-9.14,6.81-14.91,15.42-14.91,7.78,0,14.48,4.46,14.48,14.7v2.56h-20c.27,3.75,2.45,5.93,5.94,5.93,3.21,0,4.57-1.47,4.95-3.38h9.15c-.87,6.43-5.83,10.08-14.43,10.08C393.29,101.34,386.75,96.11,386.75,86.8Zm20.42-3.59c-.16-3.43-1.85-5.34-5-5.34-2.95,0-5,1.91-5.45,5.34Z" fill="#fff"/><path d="M418.66,92.79c0-6.7,5.66-9.31,15.14-9.31h2.72v-.65c0-2.73-.65-4.52-3.75-4.52a3.5,3.5,0,0,0-3.87,3.37h-9.15c.44-6.86,5.83-10.23,13.61-10.23s12.86,3.21,12.86,10.78v18.45h-9.48V97.36c-1.36,2.07-3.87,4-8.44,4C423.18,101.34,418.66,98.83,418.66,92.79Zm17.86-2.07V89H434c-3.92,0-5.66.76-5.66,3.1,0,1.63,1.09,2.67,3.38,2.67C434.45,94.75,436.52,93.17,436.52,90.72Z" fill="#fff"/><path d="M449,91.65h9c.33,2.06,1.25,3.21,4,3.21,2.4,0,3.49-.93,3.49-2.34s-1.37-2-5.29-2.56c-7.62-1-10.83-3.21-10.83-9.15,0-6.31,5.6-9.36,12.19-9.36,7,0,11.93,2.39,12.58,9.2h-8.82c-.38-1.91-1.41-2.83-3.65-2.83s-3.21.92-3.21,2.23,1.31,1.9,4.79,2.34c7.9,1,11.71,3,11.71,9.15,0,6.75-5,9.8-12.91,9.8C454,101.34,449.26,98,449,91.65Z" fill="#fff"/><path d="M478,64.48a5.38,5.38,0,1,1,5.34,5A5.08,5.08,0,0,1,478,64.48Zm.49,7.73h9.75v28.47h-9.75Z" fill="#fff"/><path d="M491.9,86.8v-.44c0-9.14,6.81-14.91,15.41-14.91,7.79,0,14.49,4.46,14.49,14.7v2.56h-20c.27,3.75,2.45,5.93,5.93,5.93,3.21,0,4.58-1.47,5-3.38h9.15c-.88,6.43-5.83,10.08-14.43,10.08C498.43,101.34,491.9,96.11,491.9,86.8Zm20.42-3.59c-.16-3.43-1.85-5.34-5-5.34-2.94,0-5,1.91-5.45,5.34Z" fill="#fff"/><path d="M523.54,91.65h9c.33,2.06,1.25,3.21,4,3.21,2.4,0,3.49-.93,3.49-2.34s-1.37-2-5.29-2.56c-7.62-1-10.83-3.21-10.83-9.15,0-6.31,5.61-9.36,12.2-9.36,7,0,11.92,2.39,12.58,9.2h-8.83c-.38-1.91-1.41-2.83-3.65-2.83s-3.21.92-3.21,2.23,1.31,1.9,4.79,2.34c7.9,1,11.71,3,11.71,9.15,0,6.75-5,9.8-12.9,9.8C528.49,101.34,523.75,98,523.54,91.65Z" fill="#fff"/><path d="M554,91.54V78.85h-3.43V72.21H554V66.27h9.75v5.94h5.61v6.64h-5.61V90.61c0,2.07,1,3,2.89,3a7.61,7.61,0,0,0,2.78-.49v7.4a20.41,20.41,0,0,1-5.4.82C557.57,101.34,554,98.23,554,91.54Z" fill="#fff"/><path d="M580.54,72.21h10.19l4.14,17,4.79-17h7.84l4.25,17,4.63-17h9.26l-9,28.47h-9.32L603,84.79l-4.41,15.89h-9.48Z" fill="#fff"/><path d="M625.42,92.79c0-6.7,5.66-9.31,15.13-9.31h2.73v-.65c0-2.73-.66-4.52-3.76-4.52a3.5,3.5,0,0,0-3.87,3.37H626.5c.44-6.86,5.83-10.23,13.62-10.23S653,74.66,653,82.23v18.45H643.5V97.36c-1.37,2.07-3.87,4-8.45,4C629.93,101.34,625.42,98.83,625.42,92.79Zm17.86-2.07V89h-2.56c-3.92,0-5.67.76-5.67,3.1,0,1.63,1.09,2.67,3.38,2.67C641.21,94.75,643.28,93.17,643.28,90.72Z" fill="#fff"/><path d="M665.66,97.8,654.27,72.21h10.57l5.88,15.19,5.45-15.19h9.31l-15.25,38h-9.31Z" fill="#fff"/><path d="M699.2,91.54V78.85h-3.43V72.21h3.43V66.27H709v5.94h5.6v6.64H709V90.61c0,2.07,1,3,2.88,3a7.57,7.57,0,0,0,2.78-.49v7.4a20.32,20.32,0,0,1-5.39.82C702.79,101.34,699.2,98.23,699.2,91.54Z" fill="#fff"/><path d="M716.73,86.8v-.44c0-9.14,6.81-14.91,15.63-14.91s15.52,5.6,15.52,14.64v.44c0,9.25-6.81,14.81-15.58,14.81S716.73,96,716.73,86.8ZM738,86.64V86.2c0-4.79-1.91-7.46-5.61-7.46s-5.66,2.56-5.66,7.35v.44c0,4.9,1.9,7.57,5.66,7.57S738,91.37,738,86.64Z" fill="#fff"/><path d="M759.64,100.68h9.69c.44,2.07,1.69,3.71,5.23,3.71,4.3,0,6-2.45,6-6V94a10,10,0,0,1-8.82,5.23c-6.64,0-12.09-4.9-12.09-13.67v-.43c0-8.39,5.39-13.72,12.09-13.72,4.52,0,7.19,1.9,8.82,4.79v-4h9.75V98.29c0,8.49-5.61,13-15.79,13C764.87,111.25,760.4,107.16,759.64,100.68Zm21.24-15.13v-.38c0-3.92-2-6.43-5.61-6.43s-5.61,2.56-5.61,6.48v.44c0,3.92,2.07,6.42,5.55,6.42S780.88,89.58,780.88,85.55Z" fill="#fff"/><path d="M793.78,86.8v-.44c0-9.14,6.81-14.91,15.41-14.91,7.79,0,14.49,4.46,14.49,14.7v2.56h-20c.27,3.75,2.45,5.93,5.93,5.93,3.21,0,4.58-1.47,5-3.38h9.15c-.88,6.43-5.83,10.08-14.43,10.08C800.31,101.34,793.78,96.11,793.78,86.8Zm20.42-3.59c-.16-3.43-1.85-5.34-5-5.34-2.94,0-5,1.91-5.45,5.34Z" fill="#fff"/><path d="M828.36,91.54V78.85h-3.43V72.21h3.43V66.27h9.74v5.94h5.61v6.64H838.1V90.61c0,2.07,1,3,2.89,3a7.57,7.57,0,0,0,2.78-.49v7.4a20.32,20.32,0,0,1-5.39.82C832,101.34,828.36,98.23,828.36,91.54Z" fill="#fff"/><path d="M281.93,147.54V134.85H278.5v-6.64h3.43v-5.93h9.75v5.93h5.61v6.64h-5.61v11.76c0,2.07,1,3,2.89,3a7.61,7.61,0,0,0,2.78-.49v7.4a20.41,20.41,0,0,1-5.4.82C285.53,157.34,281.93,154.23,281.93,147.54Z" fill="#fff"/><path d="M299.47,148.79c0-6.7,5.66-9.31,15.14-9.31h2.72v-.65c0-2.73-.65-4.52-3.76-4.52a3.49,3.49,0,0,0-3.86,3.37h-9.15c.43-6.86,5.82-10.23,13.61-10.23S327,130.66,327,138.23v18.45h-9.47v-3.32c-1.36,2.07-3.87,4-8.44,4C304,157.34,299.47,154.83,299.47,148.79Zm17.86-2.07V145h-2.56c-3.92,0-5.66.76-5.66,3.1,0,1.63,1.09,2.67,3.37,2.67C315.26,150.75,317.33,149.17,317.33,146.72Z" fill="#fff"/><path d="M338.94,142.2l-8.87-14h11.22l4.41,7.51,4.3-7.51h10l-9,13.23,9.86,15.24H349.67l-5.06-8.49-5.17,8.49h-10Z" fill="#fff"/><path d="M359.64,142.8v-.43c0-9.15,6.8-14.92,15.41-14.92,7.79,0,14.48,4.46,14.48,14.7v2.56h-20c.28,3.75,2.45,5.93,5.94,5.93,3.21,0,4.57-1.47,4.95-3.38h9.15c-.87,6.43-5.82,10.08-14.43,10.08C366.17,157.34,359.64,152.11,359.64,142.8Zm20.42-3.59c-.17-3.43-1.85-5.34-5-5.34-2.94,0-5,1.91-5.45,5.34Z" fill="#fff"/><path d="M391.27,147.65h9c.32,2.06,1.25,3.21,4,3.21,2.39,0,3.48-.93,3.48-2.34s-1.36-2-5.28-2.56c-7.62-1-10.84-3.21-10.84-9.15,0-6.31,5.61-9.36,12.2-9.36,7,0,11.93,2.39,12.58,9.2h-8.82c-.38-1.91-1.42-2.83-3.65-2.83s-3.21.92-3.21,2.23,1.3,1.91,4.79,2.34c7.9,1,11.71,3.05,11.71,9.15,0,6.75-5,9.8-12.91,9.8C396.23,157.34,391.49,154,391.27,147.65Z" fill="#fff"/><path d="M428.9,142.75v-.44c0-9.69,5.33-14.86,12.09-14.86,4.46,0,7.13,1.9,8.76,4.79V115.69h9.75v41h-9.75v-4.62a9.58,9.58,0,0,1-8.87,5.28C434.29,157.34,428.9,152.6,428.9,142.75Zm21.13-.17v-.43c0-4.79-2-7.35-5.61-7.35s-5.61,2.45-5.61,7.4v.44c0,4.79,2.12,7.24,5.5,7.24C447.85,149.88,450,147.43,450,142.58Z" fill="#fff"/><path d="M462.93,142.8v-.43c0-9.15,6.81-14.92,15.63-14.92s15.52,5.6,15.52,14.64v.44c0,9.25-6.81,14.81-15.57,14.81S462.93,152,462.93,142.8Zm21.24-.16v-.44c0-4.79-1.91-7.46-5.61-7.46s-5.66,2.56-5.66,7.35v.44c0,4.9,1.9,7.57,5.66,7.57S484.17,147.37,484.17,142.64Z" fill="#fff"/><path d="M497.51,128.21h9.75v4.57a10,10,0,0,1,9.36-5.33c5.5,0,9.31,3.43,9.31,10.72v18.51h-9.74V140.13c0-3.21-1.26-4.79-4.09-4.79s-4.84,1.74-4.84,5.39v16h-9.75Z" fill="#fff"/><path d="M529.14,142.8v-.43c0-9.15,6.81-14.92,15.42-14.92,7.78,0,14.48,4.46,14.48,14.7v2.56H539c.27,3.75,2.45,5.93,5.94,5.93,3.21,0,4.57-1.47,4.95-3.38H559c-.87,6.43-5.83,10.08-14.43,10.08C535.68,157.34,529.14,152.11,529.14,142.8Zm20.43-3.59c-.17-3.43-1.86-5.34-5-5.34-2.95,0-5,1.91-5.45,5.34Z" fill="#fff"/><path d="M573.79,134.85H570.2v-6.64h3.59v-2.5c0-7.08,4.42-10.46,11.17-10.46a17.19,17.19,0,0,1,4.46.6V123a9.18,9.18,0,0,0-2.67-.38c-2.28,0-3.26,1.25-3.26,3.11v2.5h5.77v6.64h-5.77v21.83h-9.7Z" fill="#fff"/><path d="M590,142.8v-.43c0-9.15,6.81-14.92,15.63-14.92s15.52,5.6,15.52,14.64v.44c0,9.25-6.81,14.81-15.58,14.81S590,152,590,142.8Zm21.24-.16v-.44c0-4.79-1.91-7.46-5.61-7.46S600,137.3,600,142.09v.44c0,4.9,1.91,7.57,5.67,7.57S611.26,147.37,611.26,142.64Z" fill="#fff"/><path d="M624.6,128.21h9.74v5.66c1.8-4.24,4.8-6.1,9.21-6v9.09c-5.94-.16-9.21,1.69-9.21,6.26v13.5H624.6Z" fill="#fff"/><path d="M665.93,153.8l-11.39-25.59h10.57L671,143.4l5.45-15.19h9.31l-15.25,38h-9.31Z" fill="#fff"/><path d="M685.2,142.8v-.43c0-9.15,6.81-14.92,15.63-14.92s15.52,5.6,15.52,14.64v.44c0,9.25-6.81,14.81-15.57,14.81S685.2,152,685.2,142.8Zm21.24-.16v-.44c0-4.79-1.91-7.46-5.61-7.46s-5.66,2.56-5.66,7.35v.44c0,4.9,1.9,7.57,5.66,7.57S706.44,147.37,706.44,142.64Z" fill="#fff"/><path d="M719.56,146.78V128.21h9.75v17c0,3.21,1.25,4.79,4,4.79,2.94,0,4.84-1.74,4.84-5.39V128.21h9.75v28.47h-9.75v-4.41c-1.52,2.94-4.3,5.07-9,5.07C723.64,157.34,719.56,154,719.56,146.78Z" fill="#fff"/><path d="M752.5,151.78a5.42,5.42,0,0,1,5.56-5.49,5.5,5.5,0,1,1,0,11A5.43,5.43,0,0,1,752.5,151.78Z" fill="#fff"/></g></g></svg>