<svg xmlns="http://www.w3.org/2000/svg" viewBox="0 0 970 250"><title>25</title><g id="Layer_2" data-name="Layer 2"><g id="Rect"><rect width="970" height="250" fill="none"/></g><g id="_25_off_online_tax_prep." data-name="25% off online tax prep."><path d="M278.68,111.2l21.21-22.48c6-6.45,10-11.62,10-16.71,0-4.07-2.12-6.79-6.45-6.79s-7,2.63-7.8,9.84H279.87c.59-15.18,9.75-22.91,24.43-22.91,14.85,0,22.74,8,22.74,19.18,0,8.31-4.67,14.59-11.46,21.12l-8.48,8.23h20.36v13H278.68Z" fill="#fff"/><path d="M331.11,94.57h15.78c.59,4.25,2.29,7.05,7.89,7.05,5,0,7.29-3.74,7.29-8.57,0-5.43-3-8.66-8.23-8.66a12.39,12.39,0,0,0-10,4.33H333.48L334.75,53h40.9V65.73H347.31L347,79.13c2.29-3.3,6.62-6.44,14.17-6.44,11.11,0,18.41,7.46,18.41,20.61,0,12.9-9.25,21.38-24.6,21.38C338.83,114.68,331.53,105.94,331.11,94.57Z" fill="#fff"/><path d="M382.4,58.46c0-5,4-8.8,9.39-8.8s9.35,3.61,9.35,8.65-3.66,9.1-9.4,9.1S382.4,63.55,382.4,58.46Zm29.12-8.41h4.85L391.84,85.41H387Zm-16.91,8.41c0-2.32-1-3.76-2.82-3.76s-2.92,1.39-2.92,3.71c0,2.47,1.09,3.86,2.92,3.86S394.61,60.78,394.61,58.46Zm7.47,18.59c0-5,4.05-8.8,9.39-8.8s9.35,3.56,9.35,8.66-3.66,9.1-9.4,9.1S402.08,82.15,402.08,77.05Zm12.26,0c0-2.28-1-3.71-2.87-3.71s-2.86,1.38-2.86,3.71,1.08,3.8,2.86,3.8S414.34,79.38,414.34,77Z" fill="#fff"/><path d="M435.91,92v-.68c0-14.25,10.61-23.25,24.35-23.25s24.18,8.74,24.18,22.83v.67c0,14.43-10.61,23.08-24.26,23.08S435.91,106.37,435.91,92ZM469,91.77V91.1c0-7.47-3-11.63-8.74-11.63s-8.82,4-8.82,11.46v.67c0,7.64,3,11.8,8.82,11.8C465.94,103.4,469,99.16,469,91.77Z" fill="#fff"/><path d="M492.07,79.64h-5.6V69.29h5.6V65.9c0-11,6.79-16.21,17.31-16.21a25.51,25.51,0,0,1,6.79.85V61.66a13.38,13.38,0,0,0-4.08-.6c-3.39,0-4.92,2-4.92,4.84v3.39h12.9v-3.9c0-11,7-16.29,17.39-16.29a27.08,27.08,0,0,1,7,.93V61.15a14,14,0,0,0-4.16-.6c-3.48,0-5,2-5,4.84v3.9h9V79.64h-9v34H520.07v-34h-12.9v34h-15.1Z" fill="#fff"/><path d="M562.31,92v-.68c0-14.25,10.61-23.25,24.35-23.25s24.18,8.74,24.18,22.83v.67c0,14.43-10.6,23.08-24.26,23.08S562.31,106.37,562.31,92Zm33.09-.26V91.1c0-7.47-3-11.63-8.74-11.63s-8.82,4-8.82,11.46v.67c0,7.64,3,11.8,8.82,11.8C592.35,103.4,595.4,99.16,595.4,91.77Z" fill="#fff"/><path d="M616.18,69.29h15.19v7.13c2.38-4.58,7.21-8.32,14.59-8.32,8.57,0,14.51,5.35,14.51,16.72v28.84H645.28V87.87c0-5-1.95-7.46-6.36-7.46s-7.55,2.71-7.55,8.4v24.85H616.18Z" fill="#fff"/><path d="M668.27,49.78h15.1v63.88h-15.1Z" fill="#fff"/><path d="M691.18,57.25c0-4.5,3.56-7.89,8.31-7.89s8.4,3.39,8.4,7.89-3.65,7.8-8.4,7.8S691.18,61.74,691.18,57.25Zm.76,12h15.19v44.37H691.94Z" fill="#fff"/><path d="M715.27,69.29h15.19v7.13c2.37-4.58,7.21-8.32,14.59-8.32,8.57,0,14.5,5.35,14.5,16.72v28.84H744.37V87.87c0-5-2-7.46-6.36-7.46s-7.55,2.71-7.55,8.4v24.85H715.27Z" fill="#fff"/><path d="M764.56,92v-.68c0-14.25,10.6-23.25,24-23.25,12.13,0,22.56,7,22.56,22.91v4H779.91c.43,5.85,3.82,9.25,9.25,9.25,5,0,7.13-2.29,7.72-5.26h14.25c-1.35,10-9.07,15.69-22.48,15.69C774.74,114.68,764.56,106.54,764.56,92Zm31.81-5.6c-.25-5.35-2.88-8.31-7.8-8.31-4.58,0-7.72,3-8.49,8.31Z" fill="#fff"/><path d="M284.53,186.41V166.64h-5.34V156.29h5.34V147h15.19v9.25h8.74v10.35h-8.74V185c0,3.22,1.61,4.66,4.5,4.66a11.55,11.55,0,0,0,4.32-.76v11.54a31.79,31.79,0,0,1-8.4,1.27C290.13,201.68,284.53,196.85,284.53,186.41Z" fill="#fff"/><path d="M311.85,188.36c0-10.43,8.82-14.51,23.58-14.51h4.25v-1c0-4.25-1-7.05-5.86-7.05-4.15,0-5.68,2.46-6,5.26H313.55c.67-10.69,9.07-16,21.21-16s20,5,20,16.8v28.76H340v-5.17c-2.13,3.22-6,6.19-13.15,6.19C318.89,201.68,311.85,197.78,311.85,188.36Zm27.83-3.22v-2.72h-4c-6.11,0-8.82,1.19-8.82,4.84,0,2.54,1.69,4.16,5.26,4.16C336.45,191.42,339.68,189,339.68,185.14Z" fill="#fff"/><path d="M373.35,178.1l-13.82-21.81H377L383.87,168l6.71-11.71h15.61l-14,20.62,15.35,23.75H390.07l-7.89-13.23-8.06,13.23H358.59Z" fill="#fff"/><path d="M427.22,156.29h15.19v6.62a15.65,15.65,0,0,1,13.83-7.81c10.35,0,18.75,7.81,18.75,23v.67c0,15.28-8.4,22.91-18.84,22.91-6.7,0-11.54-3.14-13.74-7.55v21.38H427.22Zm32.33,22.48v-.67c0-7.81-3.4-11.54-8.74-11.54-5.52,0-8.83,4-8.83,11.45v.68c0,7.55,3.31,11.37,8.83,11.37C456.49,190.06,459.55,186.07,459.55,178.77Z" fill="#fff"/><path d="M480.5,156.29h15.18v8.83c2.8-6.62,7.47-9.51,14.34-9.42v14.17c-9.25-.26-14.34,2.63-14.34,9.75v21H480.5Z" fill="#fff"/><path d="M512.74,179v-.68c0-14.25,10.6-23.25,24-23.25,12.13,0,22.56,7,22.56,22.91v4H528.09c.43,5.85,3.82,9.25,9.25,9.25,5,0,7.13-2.29,7.72-5.26h14.25c-1.35,10-9.07,15.69-22.48,15.69C522.92,201.68,512.74,193.54,512.74,179Zm31.81-5.6c-.25-5.35-2.88-8.31-7.8-8.31-4.59,0-7.72,3-8.49,8.31Z" fill="#fff"/><path d="M564.57,156.29h15.19v6.62a15.65,15.65,0,0,1,13.82-7.81c10.35,0,18.75,7.81,18.75,23v.67c0,15.28-8.4,22.91-18.83,22.91-6.7,0-11.54-3.14-13.74-7.55v21.38H564.57Zm32.32,22.48v-.67c0-7.81-3.39-11.54-8.73-11.54-5.52,0-8.83,4-8.83,11.45v.68c0,7.55,3.31,11.37,8.83,11.37C593.84,190.06,596.89,186.07,596.89,178.77Z" fill="#fff"/><path d="M616.15,193a8.46,8.46,0,0,1,8.65-8.57,8.58,8.58,0,1,1,0,17.14A8.46,8.46,0,0,1,616.15,193Z" fill="#fff"/></g></g></svg>