<svg xmlns="http://www.w3.org/2000/svg" viewBox="0 0 120 32"><title>learn_more</title><g id="Layer_2" data-name="Layer 2"><g id="Artboard_1" data-name="Artboard 1" style="isolation:isolate"><g id="headline1"><g id="CTA_copy" data-name="CTA copy"><g id="Rectangle_1" data-name="Rectangle 1"><rect width="120" height="32" fill="none"/></g><g id="Learn_more" data-name="Learn more"><path d="M23.88,9.81h2.27v8.24h4.07v1.78H23.88Z" transform="translate(0)" fill="#262626"/><path d="M30.74,16.25v-.11a3.64,3.64,0,0,1,3.76-3.81,3.38,3.38,0,0,1,3.58,3.73v.56H32.8a1.75,1.75,0,0,0,1.82,1.92c.93,0,1.4-.41,1.52-1h1.92c-.24,1.59-1.5,2.47-3.5,2.47A3.56,3.56,0,0,1,30.74,16.25Zm5.36-.88c-.07-1.11-.63-1.64-1.6-1.64a1.68,1.68,0,0,0-1.68,1.64Z" transform="translate(0)" fill="#262626"/><path d="M38.79,17.79c0-1.7,1.56-2.35,3.81-2.35h.82v-.29c0-.87-.26-1.35-1.19-1.35a1.1,1.1,0,0,0-1.24,1H39.07c.12-1.74,1.49-2.51,3.29-2.51s3.07.73,3.07,2.72v4.78h-2v-.89a2.48,2.48,0,0,1-2.21,1C39.91,20,38.79,19.34,38.79,17.79Zm4.63-.53v-.61h-.78c-1.18,0-1.87.25-1.87,1,0,.53.33.88,1.07.88C42.74,18.56,43.42,18.07,43.42,17.26Z" transform="translate(0)" fill="#262626"/><path d="M47,12.5h2v1.4a2.4,2.4,0,0,1,2.37-1.51v1.89c-1.5,0-2.37.47-2.37,1.88v3.67H47Z" transform="translate(0)" fill="#262626"/><path d="M52.46,12.5h2v1.16a2.52,2.52,0,0,1,2.38-1.33c1.44,0,2.46.87,2.46,2.83v4.67h-2V15.46c0-1-.39-1.48-1.29-1.48a1.45,1.45,0,0,0-1.52,1.61v4.24h-2Z" transform="translate(0)" fill="#262626"/><path d="M63.76,12.5h2v1.12A2.49,2.49,0,0,1,68,12.33a2,2,0,0,1,2,1.28,2.9,2.9,0,0,1,2.46-1.28c1.36,0,2.41.86,2.41,2.8v4.7h-2V15.36c0-.94-.42-1.36-1.15-1.36a1.36,1.36,0,0,0-1.42,1.5v4.33h-2V15.36c0-.94-.44-1.36-1.15-1.36a1.36,1.36,0,0,0-1.42,1.5v4.33h-2Z" transform="translate(0)" fill="#262626"/><path d="M76,16.24v-.11a3.86,3.86,0,0,1,7.71,0v.11a3.86,3.86,0,0,1-7.71,0Zm5.65,0v-.1c0-1.4-.65-2.24-1.79-2.24s-1.79.81-1.79,2.22v.11c0,1.4.64,2.24,1.79,2.24S81.68,17.6,81.68,16.21Z" transform="translate(0)" fill="#262626"/><path d="M84.89,12.5h2v1.4a2.4,2.4,0,0,1,2.37-1.51v1.89c-1.5,0-2.37.47-2.37,1.88v3.67h-2Z" transform="translate(0)" fill="#262626"/><path d="M89.83,16.25v-.11a3.64,3.64,0,0,1,3.77-3.81,3.38,3.38,0,0,1,3.57,3.73v.56H91.89a1.75,1.75,0,0,0,1.82,1.92c.94,0,1.4-.41,1.53-1h1.92C96.92,19.1,95.66,20,93.65,20A3.56,3.56,0,0,1,89.83,16.25Zm5.36-.88c-.07-1.11-.63-1.64-1.59-1.64a1.68,1.68,0,0,0-1.68,1.64Z" transform="translate(0)" fill="#262626"/></g></g></g></g></g></svg>