<svg xmlns="http://www.w3.org/2000/svg" viewBox="0 0 300 250"><title>H3</title><g id="Layer_2" data-name="Layer 2"><g id="Rect"><rect width="300" height="250" fill="none"/></g><g id="Digital_drop-off_is_easy._Call_your_tax_pro_and_upload_your_doc" data-name="Digital drop-off is easy. Call your tax pro and upload your doc"><path d="M23.07,27.87h7.8c7.62,0,11.49,3.81,11.49,10.47v.24c0,6.69-4,10.74-11.52,10.74H23.07Zm7.59,16.71c3.66,0,5.28-1.92,5.28-5.91v-.24c0-4.08-1.62-5.82-5.34-5.82H29.25v12Z" fill="#fff"/><path d="M44.31,29.37a3,3,0,1,1,2.94,2.76A2.8,2.8,0,0,1,44.31,29.37Zm.27,4.26H50V49.32H44.58Z" fill="#fff"/><path d="M52,49.32H57.3c.24,1.14.93,2,2.88,2,2.37,0,3.33-1.35,3.33-3.3v-2.4a5.5,5.5,0,0,1-4.86,2.88C55,48.54,52,45.84,52,41v-.24c0-4.62,3-7.56,6.66-7.56a5.1,5.1,0,0,1,4.86,2.64V33.63h5.37V48c0,4.68-3.09,7.14-8.7,7.14C54.84,55.14,52.38,52.89,52,49.32ZM63.66,41v-.21c0-2.16-1.11-3.54-3.09-3.54s-3.09,1.41-3.09,3.57V41c0,2.16,1.14,3.54,3.06,3.54S63.66,43.2,63.66,41Z" fill="#fff"/><path d="M71.49,29.37a3,3,0,1,1,2.94,2.76A2.8,2.8,0,0,1,71.49,29.37Zm.27,4.26h5.37V49.32H71.76Z" fill="#fff"/><path d="M80.73,44.28v-7H78.84V33.63h1.89V30.36H86.1v3.27h3.09v3.66H86.1v6.48a1.43,1.43,0,0,0,1.59,1.65,4.09,4.09,0,0,0,1.53-.27v4.08a11.27,11.27,0,0,1-3,.45C82.71,49.68,80.73,48,80.73,44.28Z" fill="#fff"/><path d="M90.39,45c0-3.69,3.12-5.13,8.34-5.13h1.5v-.36c0-1.5-.36-2.49-2.07-2.49A1.93,1.93,0,0,0,96,38.85H91c.24-3.78,3.21-5.64,7.5-5.64s7.08,1.77,7.08,5.94V49.32h-5.22V47.49a5.15,5.15,0,0,1-4.65,2.19C92.88,49.68,90.39,48.3,90.39,45Zm9.84-1.14v-1H98.82c-2.16,0-3.12.42-3.12,1.71,0,.9.6,1.47,1.86,1.47C99.09,46.05,100.23,45.18,100.23,43.83Z" fill="#fff"/><path d="M108.33,26.73h5.34V49.32h-5.34Z" fill="#fff"/><path d="M121.23,41.64V41.4c0-5.34,2.94-8.19,6.66-8.19a5.09,5.09,0,0,1,4.83,2.64V26.73h5.37V49.32h-5.37V46.77a5.29,5.29,0,0,1-4.89,2.91C124.2,49.68,121.23,47.07,121.23,41.64Zm11.64-.09v-.24c0-2.64-1.11-4.05-3.09-4.05s-3.09,1.35-3.09,4.08v.24c0,2.64,1.17,4,3,4S132.87,44.22,132.87,41.55Z" fill="#fff"/><path d="M140.82,33.63h5.37v3.12a4.94,4.94,0,0,1,5.07-3.33v5c-3.27-.09-5.07.93-5.07,3.45v7.44h-5.37Z" fill="#fff"/><path d="M152.22,41.67v-.24c0-5,3.75-8.22,8.61-8.22s8.55,3.09,8.55,8.07v.24c0,5.1-3.75,8.16-8.58,8.16S152.22,46.74,152.22,41.67Zm11.7-.09v-.24c0-2.64-1-4.11-3.09-4.11s-3.12,1.41-3.12,4.05v.24c0,2.7,1,4.17,3.12,4.17S163.92,44.19,163.92,41.58Z" fill="#fff"/><path d="M171.27,33.63h5.37V36a5.54,5.54,0,0,1,4.89-2.76c3.66,0,6.63,2.76,6.63,8.13v.24c0,5.4-3,8.1-6.66,8.1A5.17,5.17,0,0,1,176.64,47v7.56h-5.37Zm11.43,7.95v-.24c0-2.76-1.2-4.08-3.09-4.08s-3.12,1.41-3.12,4.05v.24c0,2.67,1.17,4,3.12,4S182.7,44.16,182.7,41.58Z" fill="#fff"/><path d="M190.05,38.73h8.4v4.05h-8.4Z" fill="#fff"/><path d="M200.28,41.67v-.24c0-5,3.75-8.22,8.61-8.22s8.55,3.09,8.55,8.07v.24c0,5.1-3.75,8.16-8.58,8.16S200.28,46.74,200.28,41.67Zm11.7-.09v-.24c0-2.64-1-4.11-3.09-4.11s-3.12,1.41-3.12,4.05v.24c0,2.7,1,4.17,3.12,4.17S212,44.19,212,41.58Z" fill="#fff"/><path d="M220.14,37.29h-2V33.63h2v-1.2c0-3.9,2.4-5.73,6.12-5.73a9,9,0,0,1,2.4.3v3.93a4.72,4.72,0,0,0-1.44-.21,1.57,1.57,0,0,0-1.74,1.71v1.2H230V32.25c0-3.9,2.46-5.76,6.15-5.76a9.57,9.57,0,0,1,2.46.33v3.93a4.93,4.93,0,0,0-1.47-.21,1.57,1.57,0,0,0-1.77,1.71v1.38h3.18v3.66h-3.18v12H230v-12h-4.56v12h-5.34Z" fill="#fff"/><path d="M245.7,29.37a3,3,0,1,1,2.94,2.76A2.8,2.8,0,0,1,245.7,29.37Zm.27,4.26h5.37V49.32H246Z" fill="#fff"/><path d="M253.17,44.34h5c.18,1.14.69,1.77,2.22,1.77,1.32,0,1.92-.51,1.92-1.29s-.75-1.11-2.91-1.41c-4.2-.54-6-1.77-6-5,0-3.48,3.09-5.16,6.72-5.16,3.87,0,6.57,1.32,6.93,5.07h-4.86a1.75,1.75,0,0,0-2-1.56c-1.17,0-1.77.51-1.77,1.23s.72,1,2.64,1.29c4.35.54,6.45,1.68,6.45,5,0,3.72-2.76,5.4-7.11,5.4S253.29,47.82,253.17,44.34Z" fill="#fff"/><path d="M21.75,74.67v-.24c0-5,3.75-8.22,8.49-8.22,4.29,0,8,2.46,8,8.1v1.41h-11c.15,2.07,1.35,3.27,3.27,3.27s2.52-.81,2.73-1.86h5c-.48,3.54-3.21,5.55-7.95,5.55C25.35,82.68,21.75,79.8,21.75,74.67Zm11.25-2c-.09-1.89-1-2.94-2.76-2.94s-2.73,1-3,2.94Z" fill="#fff"/><path d="M39.33,78c0-3.69,3.12-5.13,8.34-5.13h1.5v-.36c0-1.5-.36-2.49-2.07-2.49A1.93,1.93,0,0,0,45,71.85h-5c.24-3.78,3.21-5.64,7.5-5.64s7.08,1.77,7.08,5.94V82.32H49.29V80.49a5.15,5.15,0,0,1-4.65,2.19C41.82,82.68,39.33,81.3,39.33,78Zm9.84-1.14v-1H47.76c-2.16,0-3.12.42-3.12,1.71,0,.9.6,1.47,1.86,1.47C48,79.05,49.17,78.18,49.17,76.83Z" fill="#fff"/><path d="M56.07,77.34h5c.18,1.14.69,1.77,2.22,1.77,1.32,0,1.92-.51,1.92-1.29s-.75-1.11-2.91-1.41c-4.2-.54-6-1.77-6-5,0-3.48,3.09-5.16,6.72-5.16,3.87,0,6.57,1.32,6.93,5.07H65.07a1.75,1.75,0,0,0-2-1.56c-1.17,0-1.77.51-1.77,1.23s.72,1,2.64,1.29c4.35.54,6.45,1.68,6.45,5,0,3.72-2.76,5.4-7.11,5.4S56.19,80.82,56.07,77.34Z" fill="#fff"/><path d="M76.53,80.73l-6.27-14.1h5.82L79.32,75l3-8.37h5.13l-8.4,20.94H73.92Z" fill="#fff"/><path d="M86.31,79.62a3,3,0,0,1,3.06-3,3,3,0,1,1,0,6.06A3,3,0,0,1,86.31,79.62Z" fill="#fff"/><path d="M99.87,71.73v-.24c0-6.6,4.68-10.95,10.95-10.95,5.58,0,9.45,2.58,10,8.25h-6.33c-.24-2.19-1.44-3.39-3.6-3.39-2.76,0-4.5,2.16-4.5,6.06v.24c0,3.87,1.65,6.06,4.59,6.06a3.69,3.69,0,0,0,4-3.51h6.12c-.42,5.55-4.44,8.43-10,8.43C103.56,82.68,99.87,78.3,99.87,71.73Z" fill="#fff"/><path d="M122,78c0-3.69,3.12-5.13,8.34-5.13h1.5v-.36c0-1.5-.36-2.49-2.07-2.49a1.93,1.93,0,0,0-2.13,1.86h-5c.24-3.78,3.21-5.64,7.5-5.64s7.08,1.77,7.08,5.94V82.32H132V80.49a5.15,5.15,0,0,1-4.65,2.19C124.5,82.68,122,81.3,122,78Zm9.84-1.14v-1h-1.41c-2.16,0-3.12.42-3.12,1.71,0,.9.6,1.47,1.86,1.47C130.71,79.05,131.85,78.18,131.85,76.83Z" fill="#fff"/><path d="M140,59.73h5.34V82.32H140Z" fill="#fff"/><path d="M148.32,59.73h5.34V82.32h-5.34Z" fill="#fff"/><path d="M166.92,80.73l-6.27-14.1h5.82L169.71,75l3-8.37h5.13l-8.4,20.94h-5.13Z" fill="#fff"/><path d="M177.54,74.67v-.24c0-5,3.75-8.22,8.61-8.22s8.55,3.09,8.55,8.07v.24c0,5.1-3.75,8.16-8.58,8.16S177.54,79.74,177.54,74.67Zm11.7-.09v-.24c0-2.64-1.05-4.11-3.09-4.11s-3.12,1.41-3.12,4v.24c0,2.7,1.05,4.17,3.12,4.17S189.24,77.19,189.24,74.58Z" fill="#fff"/><path d="M196.47,76.86V66.63h5.37V76c0,1.77.69,2.64,2.22,2.64s2.67-1,2.67-3v-9h5.37V82.32h-5.37V79.89a5.16,5.16,0,0,1-5,2.79C198.72,82.68,196.47,80.82,196.47,76.86Z" fill="#fff"/><path d="M214.83,66.63h5.37v3.12a4.94,4.94,0,0,1,5.07-3.33v5c-3.27-.09-5.07.93-5.07,3.45v7.44h-5.37Z" fill="#fff"/><path d="M233.4,77.28v-7h-1.89V66.63h1.89V63.36h5.37v3.27h3.09v3.66h-3.09v6.48a1.43,1.43,0,0,0,1.59,1.65,4.09,4.09,0,0,0,1.53-.27v4.08a11.27,11.27,0,0,1-3,.45C235.38,82.68,233.4,81,233.4,77.28Z" fill="#fff"/><path d="M243.06,78c0-3.69,3.12-5.13,8.34-5.13h1.5v-.36c0-1.5-.36-2.49-2.07-2.49a1.93,1.93,0,0,0-2.13,1.86h-5c.24-3.78,3.21-5.64,7.5-5.64s7.08,1.77,7.08,5.94V82.32H253V80.49a5.15,5.15,0,0,1-4.65,2.19C245.55,82.68,243.06,81.3,243.06,78Zm9.84-1.14v-1h-1.41c-2.16,0-3.12.42-3.12,1.71,0,.9.6,1.47,1.86,1.47C251.76,79.05,252.9,78.18,252.9,76.83Z" fill="#fff"/><path d="M264.81,74.34l-4.89-7.71h6.18l2.43,4.14,2.37-4.14h5.52l-4.95,7.29,5.43,8.4h-6.18l-2.79-4.68-2.85,4.68h-5.49Z" fill="#fff"/><path d="M22.59,99.63H28V102a5.54,5.54,0,0,1,4.89-2.76c3.66,0,6.63,2.76,6.63,8.13v.24c0,5.4-3,8.1-6.66,8.1A5.17,5.17,0,0,1,28,113v7.56H22.59Zm11.43,8v-.24c0-2.76-1.2-4.08-3.09-4.08s-3.12,1.41-3.12,4v.24c0,2.67,1.17,4,3.12,4S34,110.16,34,107.58Z" fill="#fff"/><path d="M41.43,99.63H46.8v3.12a4.94,4.94,0,0,1,5.07-3.33v5c-3.27-.09-5.07.93-5.07,3.45v7.44H41.43Z" fill="#fff"/><path d="M52.83,107.67v-.24c0-5,3.75-8.22,8.61-8.22S70,102.3,70,107.28v.24c0,5.1-3.75,8.16-8.58,8.16S52.83,112.74,52.83,107.67Zm11.7-.09v-.24c0-2.64-1.05-4.11-3.09-4.11s-3.12,1.41-3.12,4v.24c0,2.7,1,4.17,3.12,4.17S64.53,110.19,64.53,107.58Z" fill="#fff"/><path d="M76.44,111c0-3.69,3.12-5.13,8.34-5.13h1.5v-.36c0-1.5-.36-2.49-2.07-2.49a1.93,1.93,0,0,0-2.13,1.86H77c.24-3.78,3.21-5.64,7.5-5.64s7.08,1.77,7.08,5.94v10.17H86.4v-1.83a5.15,5.15,0,0,1-4.65,2.19C78.93,115.68,76.44,114.3,76.44,111Zm9.84-1.14v-1H84.87c-2.16,0-3.12.42-3.12,1.71,0,.9.6,1.47,1.86,1.47C85.14,112.05,86.28,111.18,86.28,109.83Z" fill="#fff"/><path d="M94.23,99.63H99.6v2.52a5.54,5.54,0,0,1,5.16-2.94c3,0,5.13,1.89,5.13,5.91v10.2h-5.37V106.2c0-1.77-.69-2.64-2.25-2.64s-2.67,1-2.67,3v8.79H94.23Z" fill="#fff"/><path d="M111.72,107.64v-.24c0-5.34,2.94-8.19,6.66-8.19a5.09,5.09,0,0,1,4.83,2.64V92.73h5.37v22.59h-5.37v-2.55a5.29,5.29,0,0,1-4.89,2.91C114.69,115.68,111.72,113.07,111.72,107.64Zm11.64-.09v-.24c0-2.64-1.11-4-3.09-4s-3.09,1.35-3.09,4.08v.24c0,2.64,1.17,4,3,4S123.36,110.22,123.36,107.55Z" fill="#fff"/><path d="M136.65,109.86V99.63H142V109c0,1.77.69,2.64,2.22,2.64s2.67-1,2.67-3v-9h5.37v15.69h-5.37v-2.43a5.16,5.16,0,0,1-5,2.79C138.9,115.68,136.65,113.82,136.65,109.86Z" fill="#fff"/><path d="M155,99.63h5.37V102a5.54,5.54,0,0,1,4.89-2.76c3.66,0,6.63,2.76,6.63,8.13v.24c0,5.4-3,8.1-6.66,8.1a5.17,5.17,0,0,1-4.86-2.67v7.56H155Zm11.43,8v-.24c0-2.76-1.2-4.08-3.09-4.08s-3.12,1.41-3.12,4v.24c0,2.67,1.17,4,3.12,4S166.44,110.16,166.44,107.58Z" fill="#fff"/><path d="M174,92.73h5.34v22.59H174Z" fill="#fff"/><path d="M181.38,107.67v-.24c0-5,3.75-8.22,8.61-8.22s8.55,3.09,8.55,8.07v.24c0,5.1-3.75,8.16-8.58,8.16S181.38,112.74,181.38,107.67Zm11.7-.09v-.24c0-2.64-1.05-4.11-3.09-4.11s-3.12,1.41-3.12,4v.24c0,2.7,1,4.17,3.12,4.17S193.08,110.19,193.08,107.58Z" fill="#fff"/><path d="M199.53,111c0-3.69,3.12-5.13,8.34-5.13h1.5v-.36c0-1.5-.36-2.49-2.07-2.49a1.93,1.93,0,0,0-2.13,1.86h-5c.24-3.78,3.21-5.64,7.5-5.64s7.08,1.77,7.08,5.94v10.17h-5.22v-1.83a5.15,5.15,0,0,1-4.65,2.19C202,115.68,199.53,114.3,199.53,111Zm9.84-1.14v-1H208c-2.16,0-3.12.42-3.12,1.71,0,.9.6,1.47,1.86,1.47C208.23,112.05,209.37,111.18,209.37,109.83Z" fill="#fff"/><path d="M216.54,107.64v-.24c0-5.34,2.94-8.19,6.66-8.19a5.09,5.09,0,0,1,4.83,2.64V92.73h5.37v22.59H228v-2.55a5.29,5.29,0,0,1-4.89,2.91C219.51,115.68,216.54,113.07,216.54,107.64Zm11.64-.09v-.24c0-2.64-1.11-4-3.09-4s-3.09,1.35-3.09,4.08v.24c0,2.64,1.17,4,3,4S228.18,110.22,228.18,107.55Z" fill="#fff"/><path d="M27.51,146.73l-6.27-14.1h5.82L30.3,141l3-8.37h5.13L30,153.57H24.9Z" fill="#fff"/><path d="M38.13,140.67v-.24c0-5,3.75-8.22,8.61-8.22s8.55,3.09,8.55,8.07v.24c0,5.1-3.75,8.16-8.58,8.16S38.13,145.74,38.13,140.67Zm11.7-.09v-.24c0-2.64-1-4.11-3.09-4.11s-3.12,1.41-3.12,4.05v.24c0,2.7,1.05,4.17,3.12,4.17S49.83,143.19,49.83,140.58Z" fill="#fff"/><path d="M57.06,142.86V132.63h5.37V142c0,1.77.69,2.64,2.22,2.64s2.67-1,2.67-3v-9h5.37v15.69H67.32v-2.43a5.16,5.16,0,0,1-5,2.79C59.31,148.68,57.06,146.82,57.06,142.86Z" fill="#fff"/><path d="M75.42,132.63h5.37v3.12a4.94,4.94,0,0,1,5.07-3.33v5c-3.27-.09-5.07.93-5.07,3.45v7.44H75.42Z" fill="#fff"/><path d="M92.49,140.64v-.24c0-5.34,2.94-8.19,6.66-8.19a5.09,5.09,0,0,1,4.83,2.64v-9.12h5.37v22.59H104v-2.55a5.29,5.29,0,0,1-4.89,2.91C95.46,148.68,92.49,146.07,92.49,140.64Zm11.64-.09v-.24c0-2.64-1.11-4.05-3.09-4.05S98,137.61,98,140.34v.24c0,2.64,1.17,4,3,4S104.13,143.22,104.13,140.55Z" fill="#fff"/><path d="M111.24,140.67v-.24c0-5,3.75-8.22,8.61-8.22s8.55,3.09,8.55,8.07v.24c0,5.1-3.75,8.16-8.58,8.16S111.24,145.74,111.24,140.67Zm11.7-.09v-.24c0-2.64-1-4.11-3.09-4.11s-3.12,1.41-3.12,4.05v.24c0,2.7,1,4.17,3.12,4.17S122.94,143.19,122.94,140.58Z" fill="#fff"/><path d="M129.45,140.67v-.24c0-5.22,3.75-8.22,8.37-8.22,3.84,0,7.38,1.68,7.68,6.45h-5a2.32,2.32,0,0,0-2.52-2.28c-1.89,0-3,1.35-3,4v.24c0,2.73,1.05,4.14,3.09,4.14a2.61,2.61,0,0,0,2.73-2.61h4.83c-.15,4-2.82,6.54-7.89,6.54C133,148.68,129.45,146,129.45,140.67Z" fill="#fff"/><path d="M146.49,143.34h4.95c.18,1.14.69,1.77,2.22,1.77,1.32,0,1.92-.51,1.92-1.29s-.75-1.11-2.91-1.41c-4.2-.54-6-1.77-6-5,0-3.48,3.09-5.16,6.72-5.16,3.87,0,6.57,1.32,6.93,5.07h-4.86a1.75,1.75,0,0,0-2-1.56c-1.17,0-1.77.51-1.77,1.23s.72,1.05,2.64,1.29c4.35.54,6.45,1.68,6.45,5,0,3.72-2.76,5.4-7.11,5.4S146.61,146.82,146.49,143.34Z" fill="#fff"/><path d="M168.72,143.28v-7h-1.89v-3.66h1.89v-3.27h5.37v3.27h3.09v3.66h-3.09v6.48a1.43,1.43,0,0,0,1.59,1.65,4.09,4.09,0,0,0,1.53-.27v4.08a11.27,11.27,0,0,1-3,.45C170.7,148.68,168.72,147,168.72,143.28Z" fill="#fff"/><path d="M178.38,140.67v-.24c0-5,3.75-8.22,8.61-8.22s8.55,3.09,8.55,8.07v.24c0,5.1-3.75,8.16-8.58,8.16S178.38,145.74,178.38,140.67Zm11.7-.09v-.24c0-2.64-1.05-4.11-3.09-4.11s-3.12,1.41-3.12,4.05v.24c0,2.7,1,4.17,3.12,4.17S190.08,143.19,190.08,140.58Z" fill="#fff"/><path d="M196.65,140.64v-.24c0-5.34,2.94-8.19,6.66-8.19a5.09,5.09,0,0,1,4.83,2.64v-9.12h5.37v22.59h-5.37v-2.55a5.29,5.29,0,0,1-4.89,2.91C199.62,148.68,196.65,146.07,196.65,140.64Zm11.64-.09v-.24c0-2.64-1.11-4.05-3.09-4.05s-3.09,1.35-3.09,4.08v.24c0,2.64,1.17,4,3,4S208.29,143.22,208.29,140.55Z" fill="#fff"/><path d="M215.34,144c0-3.69,3.12-5.13,8.34-5.13h1.5v-.36c0-1.5-.36-2.49-2.07-2.49a1.93,1.93,0,0,0-2.13,1.86h-5c.24-3.78,3.21-5.64,7.5-5.64s7.08,1.77,7.08,5.94v10.17H225.3v-1.83a5.15,5.15,0,0,1-4.65,2.19C217.83,148.68,215.34,147.3,215.34,144Zm9.84-1.14v-1h-1.41c-2.16,0-3.12.42-3.12,1.71,0,.9.6,1.47,1.86,1.47C224,145.05,225.18,144.18,225.18,142.83Z" fill="#fff"/><path d="M237.51,146.73l-6.27-14.1h5.82L240.3,141l3-8.37h5.13L240,153.57H234.9Z" fill="#fff"/><path d="M247.29,145.62a3,3,0,0,1,3.06-3,3,3,0,1,1,0,6.06A3,3,0,0,1,247.29,145.62Z" fill="#fff"/></g></g></svg>