<svg xmlns="http://www.w3.org/2000/svg" viewBox="0 0 728 90"><title>H24</title><g id="Layer_2" data-name="Layer 2"><g id="Rect"><rect width="728" height="90" fill="none"/></g><g id="H24"><g id="Maximum_refund._It_s_kind_of_a_big_deal." data-name="Maximum refund. It&apos;s kind of a big deal."><path d="M122.28,15.25h8.81l4.52,12.58,4.52-12.58h8.65v23.6h-6.73V24.16l-5.78,14.69H134l-5.71-14.69V38.85h-6Z" fill="#fff"/><path d="M151.12,34.06c0-4.06,3.43-5.64,9.17-5.64h1.65V28c0-1.65-.39-2.74-2.27-2.74a2.13,2.13,0,0,0-2.35,2h-5.54c.26-4.16,3.53-6.21,8.25-6.21s7.79,1.95,7.79,6.54V38.85h-5.74v-2a5.69,5.69,0,0,1-5.12,2.4C153.86,39.24,151.12,37.73,151.12,34.06Zm10.82-1.25V31.75h-1.55c-2.37,0-3.43.46-3.43,1.88,0,1,.66,1.62,2,1.62C160.69,35.25,161.94,34.29,161.94,32.81Z" fill="#fff"/><path d="M175,30.07l-5.38-8.48h6.8l2.68,4.55,2.6-4.55h6.08l-5.45,8,6,9.24h-6.8l-3.07-5.15-3.14,5.15h-6Z" fill="#fff"/><path d="M189.86,16.9a3.26,3.26,0,1,1,3.23,3A3.08,3.08,0,0,1,189.86,16.9Zm.3,4.69h5.91V38.85h-5.91Z" fill="#fff"/><path d="M199.23,21.59h5.91v2.64a6,6,0,0,1,5.41-3.11A4.72,4.72,0,0,1,215.24,24,6.84,6.84,0,0,1,221,21.12c3.27,0,5.64,2.12,5.64,6.44V38.85h-5.9V28.55c0-1.75-.86-2.61-2.22-2.61-1.58,0-2.64,1-2.64,2.91v10H210V28.55c0-1.75-.86-2.61-2.21-2.61-1.58,0-2.64,1-2.64,2.91v10h-5.91Z" fill="#fff"/><path d="M229.33,32.84V21.59h5.91V31.88c0,1.95.76,2.91,2.44,2.91s2.94-1.06,2.94-3.27V21.59h5.9V38.85h-5.9V36.18a5.68,5.68,0,0,1-5.48,3.06C231.8,39.24,229.33,37.2,229.33,32.84Z" fill="#fff"/><path d="M249.52,21.59h5.91v2.64a6,6,0,0,1,5.41-3.11A4.71,4.71,0,0,1,265.53,24a6.84,6.84,0,0,1,5.71-2.88c3.27,0,5.64,2.12,5.64,6.44V38.85H271V28.55c0-1.75-.86-2.61-2.21-2.61-1.59,0-2.64,1-2.64,2.91v10h-5.85V28.55c0-1.75-.85-2.61-2.21-2.61-1.58,0-2.64,1-2.64,2.91v10h-5.91Z" fill="#fff"/><path d="M285.76,21.59h5.91V25a5.42,5.42,0,0,1,5.57-3.66v5.51c-3.59-.1-5.57,1-5.57,3.79v8.19h-5.91Z" fill="#fff"/><path d="M298.3,30.43v-.26c0-5.55,4.12-9,9.34-9,4.72,0,8.78,2.71,8.78,8.92v1.55H304.27c.17,2.27,1.49,3.6,3.6,3.6,1.95,0,2.77-.9,3-2h5.55c-.53,3.89-3.53,6.1-8.75,6.1C302.26,39.24,298.3,36.08,298.3,30.43Zm12.37-2.18c-.09-2.08-1.12-3.23-3-3.23s-3,1.15-3.3,3.23Z" fill="#fff"/><path d="M319.35,25.61h-2.18v-4h2.18V20.07c0-4.29,2.67-6.34,6.77-6.34a10.35,10.35,0,0,1,2.7.37v4.32a5.4,5.4,0,0,0-1.61-.23,1.73,1.73,0,0,0-2,1.88v1.52h3.5v4h-3.5V38.85h-5.88Z" fill="#fff"/><path d="M330.57,32.84V21.59h5.91V31.88c0,1.95.76,2.91,2.44,2.91s2.94-1.06,2.94-3.27V21.59h5.91V38.85h-5.91V36.18a5.68,5.68,0,0,1-5.48,3.06C333.05,39.24,330.57,37.2,330.57,32.84Z" fill="#fff"/><path d="M350.77,21.59h5.9v2.77a6.11,6.11,0,0,1,5.68-3.24c3.33,0,5.65,2.08,5.65,6.51V38.85h-5.91v-10c0-1.95-.76-2.91-2.48-2.91s-2.94,1.06-2.94,3.27v9.67h-5.9Z" fill="#fff"/><path d="M370,30.4v-.26c0-5.88,3.24-9,7.33-9A5.6,5.6,0,0,1,382.65,24V14h5.9V38.85h-5.9V36a5.81,5.81,0,0,1-5.38,3.2C373.27,39.24,370,36.37,370,30.4Zm12.81-.1V30c0-2.91-1.22-4.46-3.4-4.46s-3.4,1.49-3.4,4.49v.26c0,2.91,1.29,4.39,3.34,4.39S382.81,33.24,382.81,30.3Z" fill="#fff"/><path d="M391.32,35.88a3.3,3.3,0,0,1,3.37-3.34,3.34,3.34,0,1,1,0,6.67A3.29,3.29,0,0,1,391.32,35.88Z" fill="#fff"/><path d="M122.41,50.25h6.83v23.6h-6.83Z" fill="#fff"/><path d="M133.43,68.3V60.61h-2.08v-4h2.08V53h5.91v3.6h3.4v4h-3.4v7.13c0,1.26.63,1.82,1.75,1.82a4.45,4.45,0,0,0,1.68-.3v4.49a12.28,12.28,0,0,1-3.27.5C135.61,74.25,133.43,72.36,133.43,68.3Z" fill="#fff"/><path d="M144.58,50.25h5.78l-.69,9.08h-4.42Z" fill="#fff"/><path d="M151.35,68.37h5.45c.19,1.25.76,1.95,2.44,1.95,1.45,0,2.11-.56,2.11-1.42s-.82-1.22-3.2-1.55c-4.62-.6-6.57-1.95-6.57-5.55,0-3.83,3.4-5.68,7.39-5.68,4.26,0,7.23,1.46,7.63,5.58h-5.35A1.93,1.93,0,0,0,159,60c-1.29,0-1.95.56-1.95,1.35s.8,1.16,2.91,1.42c4.78.59,7.09,1.85,7.09,5.54,0,4.1-3,6-7.82,6S151.48,72.2,151.35,68.37Z" fill="#fff"/><path d="M175,49h5.91V63.42l4.65-6.83h6.14l-5.64,7.75,6.1,9.51h-6.6l-4.65-7.56v7.56H175Z" fill="#fff"/><path d="M193.42,51.9a3.26,3.26,0,1,1,3.24,3A3.09,3.09,0,0,1,193.42,51.9Zm.3,4.69h5.91V73.85h-5.91Z" fill="#fff"/><path d="M202.8,56.59h5.9v2.77a6.11,6.11,0,0,1,5.68-3.24c3.33,0,5.65,2.08,5.65,6.51V73.85h-5.91v-10c0-2-.76-2.91-2.48-2.91S208.7,62,208.7,64.18v9.67h-5.9Z" fill="#fff"/><path d="M222,65.4v-.26c0-5.88,3.23-9,7.32-9A5.6,5.6,0,0,1,234.68,59V49h5.9V73.85h-5.9V71a5.82,5.82,0,0,1-5.38,3.21C225.3,74.25,222,71.37,222,65.4Zm12.8-.1V65c0-2.91-1.22-4.46-3.4-4.46s-3.4,1.49-3.4,4.49v.26c0,2.91,1.29,4.39,3.34,4.39S234.84,68.24,234.84,65.3Z" fill="#fff"/><path d="M248.67,65.43v-.26c0-5.55,4.12-9.05,9.47-9.05s9.4,3.4,9.4,8.88v.27c0,5.61-4.12,9-9.43,9S248.67,71,248.67,65.43Zm12.87-.1v-.26c0-2.9-1.16-4.52-3.4-4.52s-3.43,1.55-3.43,4.45v.27c0,3,1.15,4.59,3.43,4.59S261.54,68.21,261.54,65.33Z" fill="#fff"/><path d="M270.51,60.61h-2.18v-4h2.18V55.07c0-4.29,2.68-6.34,6.77-6.34a10.83,10.83,0,0,1,2.7.36v4.33a5.4,5.4,0,0,0-1.61-.23,1.73,1.73,0,0,0-2,1.88v1.52h3.5v4h-3.5V73.85h-5.88Z" fill="#fff"/><path d="M286.88,69.06c0-4.06,3.43-5.64,9.17-5.64h1.65V63c0-1.65-.39-2.74-2.27-2.74a2.13,2.13,0,0,0-2.35,2h-5.54c.26-4.16,3.53-6.21,8.25-6.21s7.79,2,7.79,6.54V73.85h-5.74v-2a5.68,5.68,0,0,1-5.12,2.42C289.62,74.25,286.88,72.73,286.88,69.06Zm10.82-1.25V66.75h-1.55c-2.37,0-3.43.46-3.43,1.88,0,1,.66,1.62,2,1.62C296.45,70.25,297.7,69.29,297.7,67.81Z" fill="#fff"/><path d="M318.36,71.18v2.67h-5.91V49h5.91V59.16a6.09,6.09,0,0,1,5.38-3c4,0,7.3,3,7.3,8.95v.26c0,5.94-3.27,8.92-7.33,8.92A5.61,5.61,0,0,1,318.36,71.18ZM325,65.33v-.26c0-3-1.32-4.49-3.4-4.49S318.2,62.13,318.2,65v.26c0,2.94,1.28,4.42,3.43,4.42S325,68.17,325,65.33Z" fill="#fff"/><path d="M333.05,51.9a3.08,3.08,0,0,1,3.23-3.07,3.06,3.06,0,1,1,0,6.11A3.06,3.06,0,0,1,333.05,51.9Zm.29,4.69h5.91V73.85h-5.91Z" fill="#fff"/><path d="M341.46,73.85h5.87c.27,1.25,1,2.24,3.17,2.24,2.61,0,3.67-1.48,3.67-3.63V69.82A6.06,6.06,0,0,1,348.82,73c-4,0-7.33-3-7.33-8.28v-.27c0-5.08,3.27-8.32,7.33-8.32A5.62,5.62,0,0,1,354.17,59V56.59h5.9V72.4c0,5.14-3.39,7.85-9.57,7.85C344.63,80.25,341.92,77.78,341.46,73.85Zm12.87-9.18v-.23c0-2.37-1.22-3.89-3.4-3.89s-3.4,1.55-3.4,3.93v.26c0,2.38,1.26,3.89,3.37,3.89S354.33,67.12,354.33,64.67Z" fill="#fff"/><path d="M368.22,65.4v-.26c0-5.88,3.24-9,7.33-9A5.59,5.59,0,0,1,380.86,59V49h5.91V73.85h-5.91V71a5.81,5.81,0,0,1-5.38,3.21C371.49,74.25,368.22,71.37,368.22,65.4ZM381,65.3V65c0-2.91-1.22-4.46-3.4-4.46s-3.4,1.49-3.4,4.49v.26c0,2.91,1.29,4.39,3.33,4.39S381,68.24,381,65.3Z" fill="#fff"/><path d="M388.85,65.43v-.26c0-5.55,4.12-9.05,9.34-9.05,4.72,0,8.78,2.71,8.78,8.92v1.55H394.82c.17,2.28,1.49,3.6,3.6,3.6,1.95,0,2.77-.9,3-2H407c-.53,3.89-3.53,6.11-8.75,6.11C392.81,74.25,388.85,71.08,388.85,65.43Zm12.37-2.18c-.1-2.08-1.12-3.23-3-3.23s-3,1.15-3.3,3.23Z" fill="#fff"/><path d="M408.18,69.06c0-4.06,3.44-5.64,9.18-5.64H419V63c0-1.65-.4-2.74-2.28-2.74a2.12,2.12,0,0,0-2.34,2h-5.55c.27-4.16,3.54-6.21,8.26-6.21s7.78,2,7.78,6.54V73.85h-5.74v-2A5.65,5.65,0,0,1,414,74.25C410.92,74.25,408.18,72.73,408.18,69.06ZM419,67.81V66.75h-1.55c-2.38,0-3.43.46-3.43,1.88,0,1,.66,1.62,2,1.62C417.76,70.25,419,69.29,419,67.81Z" fill="#fff"/><path d="M427.92,49h5.87V73.85h-5.87Z" fill="#fff"/><path d="M436.73,70.88a3.3,3.3,0,0,1,3.37-3.34,3.34,3.34,0,1,1,0,6.67A3.29,3.29,0,0,1,436.73,70.88Z" fill="#fff"/></g></g></g></svg>