<svg xmlns="http://www.w3.org/2000/svg" viewBox="0 0 300 250"><title>H79</title><g id="Layer_2" data-name="Layer 2"><g id="Rect"><rect width="300" height="250" fill="none"/></g><g id="H79"><g id="Up_to_3_500_today._No_interest._No_loan_fees." data-name="Up to $3,500 today. No interest. No loan fees."><path d="M21.87,45.56V33.15h6V45.3c0,3,.73,4.38,3.27,4.38s3.27-1.34,3.27-4.47V33.15h6V45.48c0,6.07-3.56,8.9-9.31,8.9S21.87,51.4,21.87,45.56Z" fill="#fff"/><path d="M43.27,38.76H48.5V41a5.41,5.41,0,0,1,4.76-2.69c3.57,0,6.46,2.69,6.46,7.91v.24c0,5.25-2.89,7.88-6.49,7.88a5,5,0,0,1-4.73-2.6v7.36H43.27ZM54.4,46.5v-.24c0-2.68-1.17-4-3-4s-3,1.38-3,3.94v.24c0,2.6,1.14,3.91,3,3.91S54.4,49,54.4,46.5Z" fill="#fff"/><path d="M67.63,49.13V42.32H65.79V38.76h1.84V35.58h5.23v3.18h3v3.56h-3v6.31c0,1.11.55,1.61,1.54,1.61A3.85,3.85,0,0,0,75.89,50v4a11.2,11.2,0,0,1-2.89.43C69.56,54.38,67.63,52.72,67.63,49.13Z" fill="#fff"/><path d="M77,46.59v-.24c0-4.9,3.65-8,8.38-8s8.33,3,8.33,7.86v.23c0,5-3.65,7.94-8.36,7.94S77,51.52,77,46.59Zm11.39-.09v-.24c0-2.57-1-4-3-4s-3,1.38-3,4v.23c0,2.63,1,4.06,3,4.06S88.42,49,88.42,46.5Z" fill="#fff"/><path d="M104.25,44.48c-3-.21-4.38-1.77-4.5-4h3.15a1.61,1.61,0,0,0,1.35,1.6V39.57c-3-.42-4.23-1.49-4.23-3.86,0-2.06,1.62-3.54,4.23-3.73V30.46h1.32V32c2.47.2,3.94,1.34,4.14,3.67h-3.08a1.35,1.35,0,0,0-1.06-1.27v2.35c2.61.37,4.31,1.26,4.31,3.73,0,2.07-1.34,3.81-4.31,4v2.13h-1.32Zm0-7.94V34.36c-.77.14-1.16.55-1.16,1.09S103.33,36.36,104.25,36.54Zm1.32,3.26v2.26a1.23,1.23,0,0,0,1.14-1.21C106.71,40.29,106.48,40,105.57,39.8Z" fill="#fff"/><path d="M110.92,47.17h5.31c.18,1.72,1,2.89,3.07,2.89,1.84,0,2.74-.88,2.74-2.36,0-1.64-.87-2.46-2.74-2.46h-1.66V41.53h1.54c1.87,0,2.78-.84,2.78-2.3,0-1.26-.82-2.08-2.4-2.08s-2.54,1-2.77,2.66H111.5c.26-4.12,3-7,8.21-7,4.91,0,7.85,2.25,7.85,5.72a4.45,4.45,0,0,1-3.53,4.5,4.7,4.7,0,0,1,4.06,4.73c0,4-3,6.57-8.47,6.57C113.81,54.38,111.09,51.7,110.92,47.17Z" fill="#fff"/><path d="M128.59,56.4,131,48.72l4.85,1.72-4.21,7.16Z" fill="#fff"/><path d="M136.85,47.46h5.43c.21,1.46.79,2.43,2.72,2.43,1.72,0,2.51-1.29,2.51-3a2.65,2.65,0,0,0-2.83-3,4.26,4.26,0,0,0-3.45,1.49h-3.56l.44-12.3h14.07v4.38h-9.75l-.12,4.62a5.57,5.57,0,0,1,4.88-2.22c3.82,0,6.34,2.57,6.34,7.09s-3.19,7.36-8.47,7.36C139.51,54.38,137,51.38,136.85,47.46Z" fill="#fff"/><path d="M155,44v-.87c0-6.6,4.12-10.31,9.64-10.31s9.64,3.42,9.64,10.19v.82c0,6.63-3.8,10.51-9.76,10.51S155,50.62,155,44Zm13.29,0v-.85c0-3.83-1.11-5.75-3.65-5.75S161,39.28,161,43.14V44c0,3.88,1.14,5.72,3.71,5.72S168.27,47.84,168.27,44Z" fill="#fff"/><path d="M175.92,44v-.87c0-6.6,4.12-10.31,9.64-10.31s9.64,3.42,9.64,10.19v.82c0,6.63-3.8,10.51-9.76,10.51S175.92,50.62,175.92,44Zm13.29,0v-.85c0-3.83-1.11-5.75-3.65-5.75s-3.65,1.89-3.65,5.75V44c0,3.88,1.14,5.72,3.71,5.72S189.21,47.84,189.21,44Z" fill="#fff"/><path d="M22.25,80.19v-6.8H20.41V69.82h1.84V66.64h5.23v3.18h3v3.57h-3v6.3c0,1.11.55,1.61,1.54,1.61A4,4,0,0,0,30.51,81v4a10.72,10.72,0,0,1-2.89.44C24.18,85.45,22.25,83.78,22.25,80.19Z" fill="#fff"/><path d="M31.65,77.65v-.23c0-4.91,3.65-8,8.38-8s8.33,3,8.33,7.86v.23c0,5-3.65,8-8.36,8S31.65,82.59,31.65,77.65ZM43,77.56v-.23c0-2.57-1-4-3-4s-3,1.37-3,3.94v.23c0,2.63,1,4.06,3,4.06S43,80.1,43,77.56Z" fill="#fff"/><path d="M49.44,77.62v-.23c0-5.2,2.86-8,6.48-8A5,5,0,0,1,60.62,72V63.11h5.23v22H60.62V82.62a5.15,5.15,0,0,1-4.76,2.83C52.33,85.45,49.44,82.91,49.44,77.62Zm11.33-.09V77.3c0-2.57-1.08-3.94-3-3.94s-3,1.31-3,4v.23c0,2.57,1.14,3.89,3,3.89S60.77,80.13,60.77,77.53Z" fill="#fff"/><path d="M67.63,80.86c0-3.59,3-5,8.12-5h1.46v-.35c0-1.46-.35-2.43-2-2.43a1.88,1.88,0,0,0-2.07,1.81H68.21c.24-3.67,3.13-5.49,7.3-5.49s6.9,1.73,6.9,5.79v9.9H77.32V83.32a5,5,0,0,1-4.52,2.13C70.05,85.45,67.63,84.1,67.63,80.86Zm9.58-1.11v-.93H75.83c-2.1,0-3,.41-3,1.66,0,.88.58,1.43,1.81,1.43C76.1,81.91,77.21,81.07,77.21,79.75Z" fill="#fff"/><path d="M89.21,83.55l-6.1-13.73h5.66L91.93,78l2.92-8.15h5L91.66,90.21h-5Z" fill="#fff"/><path d="M98.73,82.47a2.91,2.91,0,0,1,3-3,3,3,0,1,1,0,5.9A2.91,2.91,0,0,1,98.73,82.47Z" fill="#fff"/><path d="M113,64.22h6.74L126.44,76V64.22h5.23V85.1h-5.78L118.26,72V85.1H113Z" fill="#fff"/><path d="M133.77,77.65v-.23c0-4.91,3.65-8,8.38-8s8.33,3,8.33,7.86v.23c0,5-3.66,8-8.36,8S133.77,82.59,133.77,77.65Zm11.39-.09v-.23c0-2.57-1-4-3-4s-3,1.37-3,3.94v.23c0,2.63,1,4.06,3,4.06S145.16,80.1,145.16,77.56Z" fill="#fff"/><path d="M157.51,65.68A2.73,2.73,0,0,1,160.37,63a2.71,2.71,0,1,1,0,5.4A2.71,2.71,0,0,1,157.51,65.68Zm.27,4.14H163V85.1h-5.22Z" fill="#fff"/><path d="M165.8,69.82H171v2.46a5.4,5.4,0,0,1,5-2.87c2.95,0,5,1.84,5,5.76V85.1h-5.23V76.22c0-1.72-.67-2.57-2.19-2.57s-2.6.93-2.6,2.89V85.1H165.8Z" fill="#fff"/><path d="M184.29,80.19v-6.8h-1.84V69.82h1.84V66.64h5.23v3.18h3v3.57h-3v6.3c0,1.11.55,1.61,1.55,1.61a4,4,0,0,0,1.48-.26v4a10.72,10.72,0,0,1-2.89.44C186.22,85.45,184.29,83.78,184.29,80.19Z" fill="#fff"/><path d="M193.69,77.65v-.23c0-4.91,3.65-8,8.27-8,4.17,0,7.77,2.4,7.77,7.89v1.37H199c.14,2,1.31,3.19,3.18,3.19,1.72,0,2.46-.79,2.66-1.82h4.91c-.47,3.45-3.13,5.41-7.74,5.41C197.2,85.45,193.69,82.64,193.69,77.65Zm10.95-1.93c-.08-1.84-1-2.86-2.68-2.86s-2.66,1-2.92,2.86Z" fill="#fff"/><path d="M211.53,69.82h5.23v3a4.82,4.82,0,0,1,4.94-3.24V74.5c-3.19-.09-4.94.9-4.94,3.35V85.1h-5.23Z" fill="#fff"/><path d="M222.63,77.65v-.23c0-4.91,3.65-8,8.27-8,4.17,0,7.76,2.4,7.76,7.89v1.37H227.92c.14,2,1.31,3.19,3.18,3.19,1.72,0,2.45-.79,2.66-1.82h4.9c-.46,3.45-3.12,5.41-7.74,5.41C226.13,85.45,222.63,82.64,222.63,77.65Zm11-1.93c-.08-1.84-1-2.86-2.68-2.86s-2.66,1-2.93,2.86Z" fill="#fff"/><path d="M239.6,80.25h4.82c.17,1.11.67,1.72,2.16,1.72,1.28,0,1.87-.49,1.87-1.25s-.73-1.08-2.84-1.38c-4.09-.52-5.81-1.72-5.81-4.9,0-3.39,3-5,6.54-5,3.77,0,6.4,1.29,6.75,4.94h-4.73a1.71,1.71,0,0,0-2-1.52c-1.14,0-1.72.5-1.72,1.2s.7,1,2.57,1.25c4.23.53,6.28,1.64,6.28,4.91,0,3.62-2.69,5.26-6.92,5.26S239.71,83.64,239.6,80.25Z" fill="#fff"/><path d="M255.92,80.19v-6.8h-1.84V69.82h1.84V66.64h5.23v3.18h3v3.57h-3v6.3c0,1.11.55,1.61,1.55,1.61a4.12,4.12,0,0,0,1.49-.26v4a10.85,10.85,0,0,1-2.89.44C257.85,85.45,255.92,83.78,255.92,80.19Z" fill="#fff"/><path d="M265.94,82.47a2.91,2.91,0,0,1,3-3,3,3,0,1,1,0,5.9A2.91,2.91,0,0,1,265.94,82.47Z" fill="#fff"/><path d="M22,95.28h6.74l6.69,11.77V95.28h5.23v20.88H34.89l-7.62-13.11v13.11H22Z" fill="#fff"/><path d="M42.78,108.72v-.24c0-4.9,3.65-8,8.38-8s8.32,3,8.32,7.86v.23c0,5-3.65,7.94-8.35,7.94S42.78,113.65,42.78,108.72Zm11.39-.09v-.24c0-2.57-1-4-3-4s-3,1.38-3,4v.23c0,2.63,1,4.06,3,4.06S54.17,111.17,54.17,108.63Z" fill="#fff"/><path d="M66.78,94.17H72v22h-5.2Z" fill="#fff"/><path d="M74,108.72v-.24c0-4.9,3.66-8,8.39-8s8.32,3,8.32,7.86v.23c0,5-3.65,7.94-8.35,7.94S74,113.65,74,108.72Zm11.39-.09v-.24c0-2.57-1-4-3-4s-3,1.38-3,4v.23c0,2.63,1,4.06,3,4.06S85.35,111.17,85.35,108.63Z" fill="#fff"/><path d="M91.63,111.93c0-3.59,3-5,8.12-5h1.46v-.35c0-1.46-.35-2.42-2-2.42A1.88,1.88,0,0,0,97.12,106h-4.9c.23-3.68,3.12-5.49,7.3-5.49s6.89,1.72,6.89,5.78v9.9h-5.08v-1.78a5,5,0,0,1-4.53,2.13C94.06,116.51,91.63,115.17,91.63,111.93Zm9.58-1.11v-.94H99.84c-2.1,0-3,.41-3,1.67,0,.87.59,1.43,1.81,1.43C100.1,113,101.21,112.13,101.21,110.82Z" fill="#fff"/><path d="M109,100.89h5.23v2.45a5.37,5.37,0,0,1,5-2.86c3,0,5,1.84,5,5.75v9.93H119v-8.88c0-1.72-.68-2.57-2.19-2.57s-2.6.94-2.6,2.9v8.55H109Z" fill="#fff"/><path d="M132.83,104.45h-1.92v-3.56h1.92V99.54c0-3.79,2.37-5.6,6-5.6a9.12,9.12,0,0,1,2.4.32v3.82a5.07,5.07,0,0,0-1.43-.2A1.54,1.54,0,0,0,138,99.54v1.35h3.1v3.56H138v11.71h-5.2Z" fill="#fff"/><path d="M141.54,108.72v-.24c0-4.9,3.65-8,8.26-8,4.18,0,7.77,2.39,7.77,7.88v1.38H146.82a3.06,3.06,0,0,0,3.19,3.18c1.72,0,2.45-.79,2.65-1.81h4.91c-.47,3.45-3.12,5.4-7.74,5.4C145,116.51,141.54,113.71,141.54,108.72Zm11-1.93c-.09-1.84-1-2.86-2.69-2.86s-2.66,1-2.92,2.86Z" fill="#fff"/><path d="M158.56,108.72v-.24c0-4.9,3.65-8,8.27-8,4.17,0,7.76,2.39,7.76,7.88v1.38H163.85a3,3,0,0,0,3.18,3.18c1.72,0,2.45-.79,2.66-1.81h4.9c-.46,3.45-3.12,5.4-7.73,5.4C162.07,116.51,158.56,113.71,158.56,108.72Zm10.95-1.93c-.08-1.84-1-2.86-2.68-2.86s-2.66,1-2.92,2.86Z" fill="#fff"/><path d="M175.53,111.31h4.82c.17,1.11.67,1.73,2.16,1.73,1.28,0,1.87-.5,1.87-1.26s-.73-1.08-2.84-1.37c-4.09-.53-5.81-1.72-5.81-4.91,0-3.39,3-5,6.54-5,3.77,0,6.4,1.28,6.75,4.94h-4.73a1.71,1.71,0,0,0-2-1.52c-1.14,0-1.72.49-1.72,1.19s.7,1,2.57,1.26c4.23.53,6.28,1.64,6.28,4.91,0,3.62-2.69,5.25-6.92,5.25S175.64,114.7,175.53,111.31Z" fill="#fff"/><path d="M191,113.53a2.91,2.91,0,0,1,3-3,3,3,0,1,1,0,5.9A2.9,2.9,0,0,1,191,113.53Z" fill="#fff"/></g></g></g></svg>