<svg xmlns="http://www.w3.org/2000/svg" viewBox="0 0 300 600"><title>300x600</title><g id="Layer_2" data-name="Layer 2"><g id="Paying_too_much_for_tax_prep_Try_Block." data-name="Paying too much for tax prep? Try Block."><path d="M22.84,47.63H34c8.07,0,11.81,3.58,11.81,9.84v.16c0,6.17-4.15,9.51-11.44,9.51H31.23v9.92H22.84ZM33.66,61.38c2.72,0,4.16-1.28,4.16-3.71v-.16C37.82,55,36.34,54,33.7,54H31.23v7.41Z" fill="#14aa40"/><path d="M46.42,71.09c0-5.06,4.28-7,11.44-7h2.06v-.49c0-2.06-.5-3.42-2.84-3.42a2.64,2.64,0,0,0-2.92,2.55H47.24C47.57,57.51,51.65,55,57.53,55s9.71,2.42,9.71,8.14v14H60.08V74.55c-1,1.56-2.92,3-6.38,3C49.83,77.55,46.42,75.66,46.42,71.09Zm13.5-1.57V68.21H58c-3,0-4.28.57-4.28,2.34,0,1.24.83,2,2.55,2C58.35,72.57,59.92,71.38,59.92,69.52Z" fill="#14aa40"/><path d="M76.83,74.88l-8.6-19.35h8L80.66,67l4.11-11.48h7L80.29,84.26h-7Z" fill="#14aa40"/><path d="M93.53,49.69a4.06,4.06,0,1,1,4,3.79A3.85,3.85,0,0,1,93.53,49.69Zm.38,5.84h7.36V77.06H93.91Z" fill="#14aa40"/><path d="M105.22,55.53h7.37V59a7.6,7.6,0,0,1,7.08-4c4.15,0,7,2.59,7,8.1v14h-7.36V64.55c0-2.43-1-3.63-3.09-3.63s-3.66,1.32-3.66,4.08V77.06h-7.37Z" fill="#14aa40"/><path d="M129.09,77.06h7.32c.33,1.56,1.28,2.79,4,2.79,3.25,0,4.57-1.85,4.57-4.52V72A7.55,7.55,0,0,1,138.27,76c-5,0-9.14-3.71-9.14-10.33v-.33C129.13,59,133.2,55,138.27,55c3.41,0,5.43,1.44,6.66,3.62v-3h7.37V75.25c0,6.42-4.24,9.79-11.94,9.79C133,85,129.66,82,129.09,77.06Zm16-11.44v-.29c0-3-1.53-4.86-4.24-4.86s-4.24,1.94-4.24,4.9v.33c0,3,1.56,4.85,4.2,4.85S145.14,68.66,145.14,65.62Z" fill="#14aa40"/><path d="M164.52,70.14V60.55h-2.6v-5h2.6V51.05h7.36v4.48h4.24v5h-4.24v8.89a2,2,0,0,0,2.19,2.27,5.72,5.72,0,0,0,2.09-.37v5.59a15.22,15.22,0,0,1-4.07.62C167.23,77.55,164.52,75.2,164.52,70.14Z" fill="#14aa40"/><path d="M177.77,66.56v-.33c0-6.91,5.14-11.27,11.81-11.27S201.31,59.2,201.31,66v.33c0,7-5.15,11.19-11.77,11.19S177.77,73.52,177.77,66.56Zm16-.12v-.33c0-3.62-1.44-5.64-4.24-5.64S185.3,62.41,185.3,66v.33c0,3.7,1.44,5.72,4.28,5.72S193.82,70,193.82,66.44Z" fill="#14aa40"/><path d="M202.75,66.56v-.33c0-6.91,5.14-11.27,11.81-11.27S226.28,59.2,226.28,66v.33c0,7-5.14,11.19-11.77,11.19S202.75,73.52,202.75,66.56Zm16-.12v-.33c0-3.62-1.44-5.64-4.23-5.64s-4.28,1.94-4.28,5.56v.33c0,3.7,1.44,5.72,4.28,5.72S218.79,70,218.79,66.44Z" fill="#14aa40"/><path d="M22.18,95.68h7.37V99a7.51,7.51,0,0,1,6.75-3.87,5.85,5.85,0,0,1,5.84,3.58,8.53,8.53,0,0,1,7.12-3.58c4.07,0,7,2.63,7,8v14.08H48.93V104.37c0-2.18-1.07-3.25-2.76-3.25-2,0-3.29,1.27-3.29,3.62v12.47H35.6V104.37c0-2.18-1.07-3.25-2.76-3.25-2,0-3.29,1.27-3.29,3.62v12.47H22.18Z" fill="#14aa40"/><path d="M59.71,109.72v-14h7.37v12.84c0,2.43.94,3.62,3,3.62s3.66-1.31,3.66-4.07V95.68h7.37v21.53H73.78v-3.34c-1.15,2.22-3.25,3.83-6.83,3.83C62.8,117.7,59.71,115.15,59.71,109.72Z" fill="#14aa40"/><path d="M83.74,106.71v-.33c0-7.16,5.14-11.27,11.48-11.27,5.27,0,10.13,2.3,10.54,8.84H98.84c-.33-2-1.31-3.12-3.45-3.12-2.6,0-4.12,1.85-4.12,5.47v.33c0,3.74,1.44,5.68,4.24,5.68a3.59,3.59,0,0,0,3.75-3.58h6.62c-.2,5.43-3.87,9-10.82,9C88.64,117.7,83.74,114,83.74,106.71Z" fill="#14aa40"/><path d="M108.27,86.22h7.36V99.14a7.6,7.6,0,0,1,7.08-4c4.16,0,7,2.59,7,8.1v14h-7.37V104.7c0-2.43-.94-3.63-3.09-3.63s-3.66,1.32-3.66,4.08v12.06h-7.36Z" fill="#14aa40"/><path d="M141.93,100.7h-2.72v-5h2.72V93.79c0-5.35,3.33-7.9,8.43-7.9a13.05,13.05,0,0,1,3.38.45v5.39a7,7,0,0,0-2-.29,2.17,2.17,0,0,0-2.47,2.35v1.89h4.36v5h-4.36v16.51h-7.32Z" fill="#14aa40"/><path d="M154.19,106.71v-.33c0-6.91,5.14-11.27,11.81-11.27s11.73,4.24,11.73,11.07v.33c0,7-5.15,11.19-11.77,11.19S154.19,113.67,154.19,106.71Zm16.05-.12v-.33c0-3.62-1.44-5.64-4.24-5.64s-4.28,1.94-4.28,5.56v.33c0,3.7,1.44,5.72,4.28,5.72S170.24,110.17,170.24,106.59Z" fill="#14aa40"/><path d="M180.32,95.68h7.36V100a6.78,6.78,0,0,1,7-4.56v6.87c-4.49-.13-7,1.27-7,4.73v10.21h-7.36Z" fill="#14aa40"/><path d="M205.79,110.29V100.7H203.2v-5h2.59V91.2h7.37v4.48h4.23v5h-4.23v8.89c0,1.57.78,2.27,2.18,2.27a5.78,5.78,0,0,0,2.1-.37v5.59a15.37,15.37,0,0,1-4.08.62C208.51,117.7,205.79,115.35,205.79,110.29Z" fill="#14aa40"/><path d="M219,111.24c0-5.06,4.28-7,11.44-7h2.06v-.49c0-2.06-.5-3.42-2.84-3.42a2.64,2.64,0,0,0-2.92,2.55h-6.92c.33-5.18,4.41-7.73,10.29-7.73s9.71,2.42,9.71,8.14v14H232.7V114.7c-1,1.56-2.92,3-6.38,3C222.46,117.7,219,115.81,219,111.24Zm13.5-1.57v-1.31H230.6c-3,0-4.28.57-4.28,2.34,0,1.24.83,2,2.56,2C231,112.72,232.54,111.53,232.54,109.67Z" fill="#14aa40"/><path d="M248.87,106.26l-6.7-10.58h8.47l3.34,5.68,3.25-5.68h7.57l-6.79,10,7.45,11.53H257l-3.83-6.42-3.91,6.42h-7.53Z" fill="#14aa40"/><path d="M22.18,135.83h7.37V139a7.59,7.59,0,0,1,6.71-3.78c5,0,9.09,3.78,9.09,11.15v.33c0,7.41-4.07,11.11-9.14,11.11-3.25,0-5.59-1.52-6.66-3.66v10.37H22.18Zm15.68,10.91v-.33c0-3.79-1.65-5.6-4.24-5.6s-4.28,1.94-4.28,5.56v.33c0,3.66,1.61,5.51,4.28,5.51S37.86,150.28,37.86,146.74Z" fill="#14aa40"/><path d="M48,135.83h7.37v4.28a6.78,6.78,0,0,1,7-4.57v6.88c-4.48-.13-7,1.27-7,4.73v10.21H48Z" fill="#14aa40"/><path d="M63.66,146.86v-.33c0-6.91,5.14-11.27,11.65-11.27,5.88,0,10.94,3.37,10.94,11.11v1.93H71.11c.2,2.84,1.85,4.49,4.48,4.49,2.43,0,3.46-1.11,3.75-2.55h6.91c-.66,4.85-4.4,7.61-10.9,7.61C68.6,157.85,63.66,153.9,63.66,146.86Zm15.43-2.71c-.12-2.6-1.4-4-3.78-4s-3.75,1.44-4.12,4Z" fill="#14aa40"/><path d="M88.8,135.83h7.37V139a7.61,7.61,0,0,1,6.71-3.78c5,0,9.09,3.78,9.09,11.15v.33c0,7.41-4.07,11.11-9.13,11.11-3.26,0-5.6-1.52-6.67-3.66v10.37H88.8Zm15.68,10.91v-.33c0-3.79-1.64-5.6-4.24-5.6S96,142.75,96,146.37v.33c0,3.66,1.61,5.51,4.28,5.51S104.48,150.28,104.48,146.74Z" fill="#14aa40"/><path d="M118.39,146.9c0-3.12,2.14-5.1,4-6.91,1.4-1.36,2.68-2.59,2.68-4a2.19,2.19,0,0,0-2.51-2.47c-1.77,0-3,1.36-3.25,3.62h-7.16c.2-6.22,4.65-9.59,11-9.59s9.92,2.84,9.92,7.74c0,2.71-1.36,4.56-3,6.17-2,2-4.37,3.62-4.74,5.64v.62h-7Zm-1,6.83a4.42,4.42,0,0,1,8.81,0,4.42,4.42,0,0,1-8.81,0Z" fill="#14aa40"/><path d="M149.66,134.43h-7.61v-6.5h23.7v6.5h-7.61v22.93h-8.48Z" fill="#14aa40"/><path d="M167,135.83h7.36v4.28a6.79,6.79,0,0,1,7-4.57v6.88c-4.49-.13-7,1.27-7,4.73v10.21H167Z" fill="#14aa40"/><path d="M191,155.17l-8.6-19.34h8l4.45,11.48L199,135.83h7l-11.52,28.73h-7Z" fill="#14aa40"/><path d="M22.84,168.08H36c7,0,9.92,3.13,9.92,7.7v.16a6.07,6.07,0,0,1-5,6.34c3.62.62,5.88,2.8,5.88,6.87v.17c0,5.26-3.41,8.19-10.7,8.19H22.84Zm11.44,11.69c2.63,0,3.62-.91,3.62-3v-.16c0-2-1.07-2.92-3.62-2.92H31.07v6.09Zm.29,12.1c2.67,0,3.91-1.24,3.91-3.42v-.16c0-2.22-1.2-3.38-4.16-3.38H31.07v7Z" fill="#14aa40"/><path d="M49.71,166.52H57v31H49.71Z" fill="#14aa40"/><path d="M59.83,187v-.33c0-6.91,5.15-11.27,11.81-11.27s11.73,4.24,11.73,11.07v.33c0,7-5.14,11.19-11.77,11.19S59.83,194,59.83,187Zm16-.12v-.33c0-3.62-1.44-5.64-4.24-5.64s-4.28,1.94-4.28,5.56v.33c0,3.7,1.44,5.72,4.28,5.72S75.88,190.47,75.88,186.89Z" fill="#14aa40"/><path d="M84.81,187v-.33c0-7.16,5.14-11.27,11.48-11.27,5.27,0,10.13,2.3,10.54,8.84H99.91c-.33-2-1.31-3.12-3.45-3.12-2.6,0-4.12,1.85-4.12,5.47v.33c0,3.74,1.44,5.68,4.24,5.68a3.58,3.58,0,0,0,3.74-3.58H107c-.21,5.43-3.87,9-10.82,9C89.71,198,84.81,194.25,84.81,187Z" fill="#14aa40"/><path d="M109.34,166.52h7.36v18l5.8-8.52h7.66l-7,9.67,7.61,11.86H122.5l-5.8-9.43v9.43h-7.36Z" fill="#14aa40"/><path d="M132.17,193.8a4.1,4.1,0,0,1,4.2-4.15,4.16,4.16,0,1,1,0,8.31A4.1,4.1,0,0,1,132.17,193.8Z" fill="#14aa40"/><rect width="300" height="600" fill="none"/></g></g></svg>