<svg xmlns="http://www.w3.org/2000/svg" viewBox="0 0 160 600"><title>H5</title><g id="Layer_2" data-name="Layer 2"><g id="Rect"><rect width="160" height="600" fill="none"/></g><g id="H05"><g id="You_could_get_up_to_3_500_within_minutes_of_filing._0_Interes" data-name="You could get up to $3,500 within minutes of filing. 0% Interes"><path d="M26.45,56,20.21,45h6l3.24,6.44L32.65,45H37.9L32,56v8.18H26.45Z" fill="#fff"/><path d="M35.89,57.32v-.21c0-4.5,3.34-7.33,7.68-7.33s7.62,2.75,7.62,7.19v.22c0,4.55-3.34,7.27-7.65,7.27S35.89,61.84,35.89,57.32Zm10.43-.08V57c0-2.36-.93-3.67-2.75-3.67S40.78,54.62,40.78,57v.22c0,2.41.94,3.72,2.79,3.72S46.32,59.57,46.32,57.24Z" fill="#fff"/><path d="M52.77,59.27V50.15h4.79V58.5c0,1.58.61,2.35,2,2.35s2.38-.85,2.38-2.65V50.15H66.7v14H61.92V62a4.61,4.61,0,0,1-4.44,2.48C54.77,64.46,52.77,62.81,52.77,59.27Z" fill="#fff"/><path d="M20.67,89.07v-.21c0-4.66,3.34-7.33,7.46-7.33,3.43,0,6.58,1.5,6.85,5.75H30.49a2.07,2.07,0,0,0-2.25-2c-1.69,0-2.68,1.2-2.68,3.55V89c0,2.43.94,3.69,2.76,3.69a2.32,2.32,0,0,0,2.43-2.33h4.31c-.13,3.53-2.52,5.83-7,5.83C23.85,96.21,20.67,93.78,20.67,89.07Z" fill="#fff"/><path d="M35.86,89.07v-.21c0-4.5,3.35-7.33,7.68-7.33s7.62,2.75,7.62,7.19v.22c0,4.55-3.34,7.27-7.65,7.27S35.86,93.59,35.86,89.07ZM46.29,89v-.21c0-2.36-.93-3.67-2.75-3.67s-2.78,1.26-2.78,3.61v.22c0,2.41.93,3.72,2.78,3.72S46.29,91.32,46.29,89Z" fill="#fff"/><path d="M52.74,91V81.9h4.79v8.35c0,1.58.62,2.35,2,2.35s2.38-.85,2.38-2.65v-8h4.79v14H61.89V93.73a4.6,4.6,0,0,1-4.44,2.48C54.75,96.21,52.74,94.56,52.74,91Z" fill="#fff"/><path d="M69.25,75.75H74V95.89H69.25Z" fill="#fff"/><path d="M75.88,89v-.21c0-4.76,2.62-7.3,5.94-7.3a4.52,4.52,0,0,1,4.3,2.35V75.75h4.79V95.89H86.12V93.62a4.7,4.7,0,0,1-4.36,2.59C78.53,96.21,75.88,93.89,75.88,89ZM86.26,89v-.21c0-2.35-1-3.61-2.76-3.61s-2.75,1.2-2.75,3.64V89c0,2.36,1,3.56,2.7,3.56S86.26,91.35,86.26,89Z" fill="#fff"/><path d="M97.44,95.89h4.76c.22,1,.83,1.82,2.57,1.82a2.65,2.65,0,0,0,3-2.94V92.63a4.9,4.9,0,0,1-4.33,2.57c-3.27,0-5.94-2.41-5.94-6.72v-.21c0-4.12,2.65-6.74,5.94-6.74a4.55,4.55,0,0,1,4.33,2.35v-2h4.79V94.72c0,4.17-2.76,6.36-7.76,6.36C100,101.08,97.81,99.08,97.44,95.89Zm10.43-7.43v-.19c0-1.93-1-3.16-2.75-3.16s-2.76,1.26-2.76,3.19v.21c0,1.93,1,3.16,2.73,3.16S107.87,90.44,107.87,88.46Z" fill="#fff"/><path d="M114.21,89.07v-.21c0-4.5,3.35-7.33,7.57-7.33,3.83,0,7.12,2.19,7.12,7.22V90h-9.85A2.8,2.8,0,0,0,122,92.92c1.58,0,2.25-.72,2.43-1.65h4.5c-.43,3.15-2.86,4.94-7.09,4.94C117.42,96.21,114.21,93.65,114.21,89.07Zm10-1.76c-.08-1.69-.91-2.63-2.46-2.63s-2.43.94-2.67,2.63Z" fill="#fff"/><path d="M131.2,91.4V85.17h-1.69V81.9h1.69V79H136V81.9h2.75v3.27H136v5.77c0,1,.5,1.48,1.41,1.48a3.68,3.68,0,0,0,1.37-.25v3.64a10.15,10.15,0,0,1-2.65.4C133,96.21,131.2,94.69,131.2,91.4Z" fill="#fff"/><path d="M21.31,122.77v-9.12H26.1V122c0,1.58.61,2.35,2,2.35s2.38-.85,2.38-2.65v-8h4.79v14H30.46v-2.16A4.6,4.6,0,0,1,26,128C23.32,128,21.31,126.31,21.31,122.77Z" fill="#fff"/><path d="M37.68,113.65h4.79v2.09a4.93,4.93,0,0,1,4.36-2.46c3.26,0,5.91,2.46,5.91,7.25v.21c0,4.82-2.65,7.22-5.94,7.22a4.61,4.61,0,0,1-4.33-2.38v6.74H37.68Zm10.19,7.09v-.21c0-2.46-1.07-3.64-2.75-3.64s-2.78,1.26-2.78,3.61v.21c0,2.39,1,3.59,2.78,3.59S47.87,123,47.87,120.74Z" fill="#fff"/><path d="M60,123.15v-6.23H58.31v-3.27H60v-2.91h4.79v2.91h2.75v3.27H64.78v5.77c0,1,.51,1.48,1.42,1.48a3.66,3.66,0,0,0,1.36-.25v3.64a10.08,10.08,0,0,1-2.65.4C61.76,128,60,126.44,60,123.15Z" fill="#fff"/><path d="M68.6,120.82v-.21c0-4.5,3.35-7.33,7.68-7.33s7.62,2.75,7.62,7.19v.22c0,4.55-3.34,7.27-7.65,7.27S68.6,125.34,68.6,120.82ZM79,120.74v-.21c0-2.36-.94-3.67-2.76-3.67s-2.78,1.26-2.78,3.61v.22c0,2.41.93,3.72,2.78,3.72S79,123.07,79,120.74Z" fill="#fff"/><path d="M24.49,150.64c-2.7-.19-4-1.62-4.12-3.68h2.89a1.48,1.48,0,0,0,1.23,1.47v-2.28c-2.71-.39-3.87-1.37-3.87-3.54,0-1.89,1.49-3.24,3.87-3.42v-1.38h1.22v1.4c2.26.19,3.6,1.23,3.79,3.37H26.67a1.23,1.23,0,0,0-1-1.17v2.15c2.38.34,3.94,1.15,3.94,3.42,0,1.9-1.23,3.49-3.94,3.66v2H24.49Zm0-7.27v-2c-.7.12-1.06.5-1.06,1S23.65,143.2,24.49,143.37Zm1.22,3v2.08a1.13,1.13,0,0,0,1-1.11C26.75,146.8,26.53,146.54,25.71,146.35Z" fill="#fff"/><path d="M30.6,153.11h4.87a2.56,2.56,0,0,0,2.81,2.64c1.69,0,2.52-.8,2.52-2.16s-.81-2.25-2.52-2.25H36.76v-3.4h1.41c1.72,0,2.55-.77,2.55-2.11,0-1.15-.75-1.9-2.2-1.9A2.45,2.45,0,0,0,36,146.37H31.14c.24-3.78,2.76-6.37,7.52-6.37,4.49,0,7.19,2.06,7.19,5.24a4.08,4.08,0,0,1-3.23,4.12,4.31,4.31,0,0,1,3.71,4.33c0,3.64-2.7,6-7.75,6C33.25,159.71,30.77,157.25,30.6,153.11Z" fill="#fff"/><path d="M46.79,161.56l2.25-7,4.44,1.58-3.86,6.56Z" fill="#fff"/><path d="M54.36,153.37h5a2.19,2.19,0,0,0,2.49,2.22c1.58,0,2.3-1.17,2.3-2.7a2.43,2.43,0,0,0-2.59-2.73,3.92,3.92,0,0,0-3.16,1.37H55.11l.4-11.26H68.4v4H59.47l-.11,4.23a5.09,5.09,0,0,1,4.47-2c3.5,0,5.8,2.36,5.8,6.5s-2.91,6.74-7.75,6.74C56.79,159.71,54.49,157,54.36,153.37Z" fill="#fff"/><path d="M71,150.24v-.8c0-6,3.77-9.44,8.83-9.44s8.82,3.13,8.82,9.33v.75c0,6.08-3.47,9.63-8.93,9.63S71,156.26,71,150.24Zm12.17-.05v-.77c0-3.51-1-5.27-3.34-5.27s-3.35,1.73-3.35,5.27v.8c0,3.56,1,5.24,3.4,5.24S83.14,153.72,83.14,150.19Z" fill="#fff"/><path d="M90.15,150.24v-.8c0-6,3.77-9.44,8.83-9.44s8.82,3.13,8.82,9.33v.75c0,6.08-3.47,9.63-8.93,9.63S90.15,156.26,90.15,150.24Zm12.17-.05v-.77c0-3.51-1-5.27-3.34-5.27s-3.35,1.73-3.35,5.27v.8c0,3.56,1.05,5.24,3.4,5.24S102.32,153.72,102.32,150.19Z" fill="#fff"/><path d="M20.24,177.15h5l2,8.38,2.35-8.38h3.85l2.09,8.38,2.27-8.38h4.55l-4.44,14H33.37l-2.08-7.81-2.17,7.81H24.47Z" fill="#fff"/><path d="M43.51,173.35a2.64,2.64,0,1,1,2.62,2.47A2.5,2.5,0,0,1,43.51,173.35Zm.24,3.8h4.79v14H43.75Z" fill="#fff"/><path d="M51.75,186.65v-6.23H50.07v-3.27h1.68v-2.91h4.79v2.91h2.75v3.27H56.54v5.77c0,1,.51,1.48,1.42,1.48a3.66,3.66,0,0,0,1.36-.25v3.64a10,10,0,0,1-2.65.4C53.52,191.46,51.75,189.94,51.75,186.65Z" fill="#fff"/><path d="M61.11,171H65.9v8.4a5,5,0,0,1,4.6-2.62c2.7,0,4.58,1.68,4.58,5.27v9.09H70.29V183c0-1.58-.62-2.35-2-2.35s-2.38.85-2.38,2.65v7.83H61.11Z" fill="#fff"/><path d="M77.3,173.35a2.5,2.5,0,0,1,2.62-2.48,2.48,2.48,0,1,1,0,4.95A2.48,2.48,0,0,1,77.3,173.35Zm.24,3.8h4.79v14H77.54Z" fill="#fff"/><path d="M84.89,177.15h4.79v2.25a5,5,0,0,1,4.6-2.62c2.71,0,4.58,1.68,4.58,5.27v9.09H94.07V183c0-1.58-.62-2.35-2-2.35s-2.38.85-2.38,2.65v7.83H84.89Z" fill="#fff"/><path d="M21.42,208.9h4.79V211a4.89,4.89,0,0,1,4.38-2.51,3.8,3.8,0,0,1,3.8,2.33A5.52,5.52,0,0,1,39,208.53c2.65,0,4.57,1.71,4.57,5.21v9.15H38.8v-8.34c0-1.42-.69-2.12-1.79-2.12a2.08,2.08,0,0,0-2.14,2.36v8.1H30.14v-8.34c0-1.42-.7-2.12-1.79-2.12a2.07,2.07,0,0,0-2.14,2.36v8.1H21.42Z" fill="#fff"/><path d="M45.81,205.1a2.64,2.64,0,1,1,2.63,2.47A2.5,2.5,0,0,1,45.81,205.1Zm.24,3.8h4.79v14H46.05Z" fill="#fff"/><path d="M53.41,208.9H58.2v2.25a4.94,4.94,0,0,1,4.6-2.62c2.7,0,4.57,1.68,4.57,5.27v9.09H62.59v-8.13c0-1.58-.62-2.35-2-2.35s-2.38.85-2.38,2.65v7.83H53.41Z" fill="#fff"/><path d="M69.59,218V208.9h4.79v8.35c0,1.58.62,2.35,2,2.35s2.38-.85,2.38-2.65v-8h4.79v14H78.74v-2.16a4.6,4.6,0,0,1-4.44,2.48C71.6,223.21,69.59,221.56,69.59,218Z" fill="#fff"/><path d="M86.61,218.4v-6.23H84.92V208.9h1.69V206h4.78v2.91h2.76v3.27H91.39v5.77c0,1,.51,1.48,1.42,1.48a3.68,3.68,0,0,0,1.37-.25v3.64a10.15,10.15,0,0,1-2.65.4C88.37,223.21,86.61,221.69,86.61,218.4Z" fill="#fff"/><path d="M95.22,216.07v-.21c0-4.5,3.34-7.33,7.57-7.33,3.83,0,7.12,2.19,7.12,7.22V217h-9.85a2.8,2.8,0,0,0,2.92,2.91c1.58,0,2.24-.72,2.43-1.65h4.5c-.43,3.15-2.87,4.94-7.09,4.94C98.43,223.21,95.22,220.65,95.22,216.07Zm10-1.76c-.08-1.69-.91-2.63-2.46-2.63s-2.43.94-2.67,2.63Z" fill="#fff"/><path d="M110.76,218.45h4.41c.16,1,.62,1.58,2,1.58,1.18,0,1.72-.45,1.72-1.15s-.67-1-2.6-1.26c-3.74-.48-5.32-1.58-5.32-4.49,0-3.1,2.75-4.6,6-4.6,3.45,0,5.86,1.18,6.18,4.52h-4.33a1.57,1.57,0,0,0-1.8-1.39c-1,0-1.57.45-1.57,1.09s.64.94,2.35,1.15c3.88.49,5.75,1.5,5.75,4.5,0,3.32-2.46,4.81-6.34,4.81S110.87,221.56,110.76,218.45Z" fill="#fff"/><path d="M20.67,247.82v-.21c0-4.5,3.34-7.33,7.68-7.33S36,243,36,247.47v.22c0,4.55-3.34,7.27-7.65,7.27S20.67,252.34,20.67,247.82Zm10.43-.08v-.21c0-2.36-.94-3.67-2.75-3.67s-2.79,1.26-2.79,3.61v.22c0,2.41.94,3.72,2.79,3.72S31.1,250.07,31.1,247.74Z" fill="#fff"/><path d="M38.38,243.92H36.61v-3.27h1.77v-1.23c0-3.47,2.16-5.13,5.48-5.13a8.55,8.55,0,0,1,2.19.29v3.5a4.59,4.59,0,0,0-1.31-.18,1.4,1.4,0,0,0-1.6,1.52v1.23H46v3.27H43.14v10.72H38.38Z" fill="#fff"/><path d="M53.17,243.92H51.4v-3.27h1.77v-1.23c0-3.47,2.17-5.13,5.48-5.13a8.63,8.63,0,0,1,2.2.29v3.5a4.7,4.7,0,0,0-1.31-.18,1.4,1.4,0,0,0-1.61,1.52v1.23h2.84v3.27H57.93v10.72H53.17Z" fill="#fff"/><path d="M62.26,236.85a2.64,2.64,0,1,1,2.63,2.47A2.5,2.5,0,0,1,62.26,236.85Zm.24,3.8h4.79v14H62.5Z" fill="#fff"/><path d="M70,234.5h4.77v20.14H70Z" fill="#fff"/><path d="M77.22,236.85a2.5,2.5,0,0,1,2.62-2.48,2.48,2.48,0,1,1,0,4.95A2.48,2.48,0,0,1,77.22,236.85Zm.24,3.8h4.79v14H77.46Z" fill="#fff"/><path d="M84.81,240.65H89.6v2.25a5,5,0,0,1,4.6-2.62c2.7,0,4.58,1.68,4.58,5.27v9.09H94v-8.13c0-1.58-.62-2.35-2-2.35s-2.38.85-2.38,2.65v7.83H84.81Z" fill="#fff"/><path d="M100.33,254.64h4.76c.21,1,.83,1.82,2.57,1.82a2.65,2.65,0,0,0,3-2.94v-2.14a4.92,4.92,0,0,1-4.34,2.57c-3.26,0-5.93-2.41-5.93-6.72V247c0-4.12,2.64-6.74,5.93-6.74a4.56,4.56,0,0,1,4.34,2.35v-2h4.79v12.82c0,4.17-2.76,6.36-7.76,6.36C102.9,259.83,100.7,257.83,100.33,254.64Zm10.43-7.43V247c0-1.93-1-3.16-2.75-3.16s-2.76,1.26-2.76,3.19v.21c0,1.93,1,3.16,2.73,3.16S110.76,249.19,110.76,247.21Z" fill="#fff"/><path d="M117.66,252.24a2.67,2.67,0,0,1,2.73-2.71,2.71,2.71,0,1,1,0,5.41A2.67,2.67,0,0,1,117.66,252.24Z" fill="#fff"/><path d="M21,277.24v-.8c0-6,3.77-9.44,8.83-9.44s8.83,3.13,8.83,9.33v.75c0,6.08-3.48,9.63-8.94,9.63S21,283.26,21,277.24Zm12.17-.05v-.77c0-3.51-1-5.27-3.34-5.27s-3.34,1.73-3.34,5.27v.8c0,3.56,1,5.24,3.39,5.24S33.13,280.72,33.13,277.19Z" fill="#fff"/><path d="M39.66,271.81a4.82,4.82,0,0,1,5.08-4.76,4.81,4.81,0,1,1,0,9.61A4.7,4.7,0,0,1,39.66,271.81Zm15.76-4.54H58L44.77,286.39H42.15Zm-9.15,4.54c0-1.25-.54-2-1.53-2s-1.57.75-1.57,2,.58,2.08,1.57,2.08S46.27,273.07,46.27,271.81Zm4,10.06a4.81,4.81,0,0,1,5.08-4.76c2.89,0,5.06,1.93,5.06,4.68a4.79,4.79,0,0,1-5.09,4.92A4.69,4.69,0,0,1,50.31,281.87Zm6.63,0c0-1.24-.53-2-1.55-2s-1.55.75-1.55,2,.59,2,1.55,2S56.94,283.13,56.94,281.85Z" fill="#fff"/><path d="M22,299h5.54v19.12H22Z" fill="#fff"/><path d="M30.43,304.15h4.79v2.25a4.94,4.94,0,0,1,4.6-2.62c2.7,0,4.58,1.68,4.58,5.27v9.09H39.61V310c0-1.58-.62-2.35-2-2.35s-2.38.85-2.38,2.64v7.84H30.43Z" fill="#fff"/><path d="M47.36,313.65v-6.23H45.68v-3.27h1.68v-2.91h4.79v2.91h2.76v3.27H52.15v5.77c0,1,.51,1.48,1.42,1.48a3.58,3.58,0,0,0,1.36-.25v3.64a10,10,0,0,1-2.64.4C49.13,318.46,47.36,316.94,47.36,313.65Z" fill="#fff"/><path d="M56,311.32v-.21c0-4.5,3.34-7.33,7.57-7.33,3.82,0,7.11,2.19,7.11,7.22v1.26H60.82a2.79,2.79,0,0,0,2.92,2.91c1.57,0,2.24-.72,2.43-1.66h4.49c-.43,3.16-2.86,4.95-7.09,4.95C59.19,318.46,56,315.9,56,311.32Zm10-1.76c-.08-1.69-.91-2.63-2.46-2.63a2.67,2.67,0,0,0-2.68,2.63Z" fill="#fff"/><path d="M72.32,304.15h4.79v2.78a4.4,4.4,0,0,1,4.52-3v4.46c-2.92-.08-4.52.83-4.52,3.08v6.63H72.32Z" fill="#fff"/><path d="M82.49,311.32v-.21c0-4.5,3.34-7.33,7.57-7.33,3.82,0,7.11,2.19,7.11,7.22v1.26H87.33a2.79,2.79,0,0,0,2.91,2.91c1.58,0,2.25-.72,2.44-1.66h4.49c-.43,3.16-2.86,4.95-7.09,4.95S82.49,315.9,82.49,311.32Zm10-1.76c-.08-1.69-.91-2.63-2.46-2.63a2.67,2.67,0,0,0-2.68,2.63Z" fill="#fff"/><path d="M98,313.7h4.41c.16,1,.62,1.58,2,1.58,1.18,0,1.71-.45,1.71-1.15s-.67-1-2.59-1.26c-3.75-.48-5.32-1.58-5.32-4.49,0-3.1,2.75-4.6,6-4.6,3.45,0,5.86,1.18,6.18,4.52h-4.34a1.55,1.55,0,0,0-1.79-1.39c-1,0-1.58.45-1.58,1.09s.64.94,2.36,1.16c3.88.48,5.75,1.49,5.75,4.49,0,3.32-2.46,4.81-6.34,4.81S98.14,316.8,98,313.7Z" fill="#fff"/><path d="M113,313.65v-6.23H111.3v-3.27H113v-2.91h4.79v2.91h2.75v3.27h-2.75v5.77c0,1,.51,1.48,1.42,1.48a3.66,3.66,0,0,0,1.36-.25v3.64a10,10,0,0,1-2.65.4C114.75,318.46,113,316.94,113,313.65Z" fill="#fff"/><path d="M21.85,330.77h5.51v14.87h7.22v4.25H21.85Z" fill="#fff"/><path d="M35.38,343.07v-.21c0-4.5,3.35-7.33,7.68-7.33s7.62,2.75,7.62,7.19v.22c0,4.55-3.34,7.27-7.65,7.27S35.38,347.59,35.38,343.07ZM45.81,343v-.21c0-2.36-.93-3.67-2.75-3.67s-2.78,1.26-2.78,3.61v.22c0,2.41.93,3.72,2.78,3.72S45.81,345.32,45.81,343Z" fill="#fff"/><path d="M51.56,346c0-3.29,2.79-4.57,7.44-4.57h1.34v-.32c0-1.34-.32-2.22-1.85-2.22a1.72,1.72,0,0,0-1.9,1.66H52.1c.21-3.37,2.86-5,6.69-5s6.31,1.58,6.31,5.29v9.07H60.45v-1.63a4.59,4.59,0,0,1-4.15,1.95C53.79,350.21,51.56,349,51.56,346Zm8.78-1v-.86H59.08c-1.92,0-2.78.38-2.78,1.53,0,.8.53,1.31,1.66,1.31A2.11,2.11,0,0,0,60.34,345Z" fill="#fff"/><path d="M67.43,335.9h4.79v2.25a4.93,4.93,0,0,1,4.6-2.62c2.7,0,4.57,1.68,4.57,5.27v9.09H76.6v-8.13c0-1.58-.61-2.35-2-2.35s-2.38.85-2.38,2.64v7.84H67.43Z" fill="#fff"/><path d="M83.53,347.49a2.67,2.67,0,0,1,2.73-2.71,2.71,2.71,0,1,1,0,5.41A2.67,2.67,0,0,1,83.53,347.49Z" fill="#fff"/></g></g></g></svg>