<svg xmlns="http://www.w3.org/2000/svg" viewBox="0 0 160 600"><title>H137</title><g id="Layer_2" data-name="Layer 2"><g id="Artboard_2" data-name="Artboard 2" style="isolation:isolate"><g id="File_for_nada_zilch_zip_with_Free_Online." data-name="File for nada, zilch, zip with Free Online."><path d="M21.25,165.83H30v2.88H25v2.76h4v2.73H25v4.59H21.25Z" fill="#fff"/><path d="M30.93,166.74a1.79,1.79,0,1,1,1.78,1.66A1.67,1.67,0,0,1,30.93,166.74Zm.16,2.57h3.25v9.48H31.09Z" fill="#fff"/><path d="M36.17,165.14h3.22v13.65H36.17Z" fill="#fff"/><path d="M40.63,174.17V174a4.84,4.84,0,0,1,5.13-5A4.49,4.49,0,0,1,50.58,174v.85H43.91a1.89,1.89,0,0,0,2,2c1.07,0,1.53-.49,1.65-1.13h3c-.29,2.14-1.94,3.36-4.8,3.36S40.63,177.27,40.63,174.17Zm6.79-1.2c-.05-1.14-.61-1.78-1.66-1.78A1.82,1.82,0,0,0,43.94,173Z" fill="#fff"/><path d="M55.49,171.52h-1.2v-2.21h1.2v-.83c0-2.36,1.47-3.48,3.72-3.48a6.2,6.2,0,0,1,1.48.19v2.38a3,3,0,0,0-.89-.13,1,1,0,0,0-1.08,1v.83h1.92v2.21H58.72v7.27H55.49Z" fill="#fff"/><path d="M60.89,174.17V174a4.87,4.87,0,0,1,5.2-5c2.92,0,5.17,1.86,5.17,4.87v.15c0,3.08-2.27,4.93-5.19,4.93S60.89,177.23,60.89,174.17Zm7.07-.06V174c0-1.6-.63-2.49-1.87-2.49s-1.88.86-1.88,2.45v.15c0,1.63.63,2.52,1.88,2.52S68,175.69,68,174.11Z" fill="#fff"/><path d="M72.4,169.31h3.24v1.88a3,3,0,0,1,3.07-2v3c-2-.05-3.07.56-3.07,2.08v4.5H72.4Z" fill="#fff"/><path d="M83.18,169.31h3.25v1.52a3.34,3.34,0,0,1,3.12-1.77c1.83,0,3.1,1.14,3.1,3.57v6.16H89.4v-5.51c0-1.07-.41-1.6-1.36-1.6s-1.61.58-1.61,1.8v5.31H83.18Z" fill="#fff"/><path d="M93.68,176.16c0-2.23,1.88-3.1,5-3.1h.91v-.22c0-.9-.22-1.5-1.25-1.5a1.17,1.17,0,0,0-1.29,1.12H94c.15-2.28,1.94-3.4,4.53-3.4s4.28,1.07,4.28,3.59v6.14H99.7v-1.11A3.11,3.11,0,0,1,96.89,179C95.18,179,93.68,178.17,93.68,176.16Zm5.95-.69v-.58h-.86c-1.3,0-1.88.26-1.88,1,0,.54.36.88,1.12.88C98.94,176.81,99.63,176.29,99.63,175.47Z" fill="#fff"/><path d="M104,174.15V174c0-3.22,1.77-4.94,4-4.94a3.07,3.07,0,0,1,2.92,1.59v-5.51h3.24v13.65H110.9v-1.54a3.19,3.19,0,0,1-3,1.76C105.75,179,104,177.43,104,174.15Zm7-.05V174c0-1.6-.67-2.45-1.87-2.45s-1.86.82-1.86,2.47v.14c0,1.6.7,2.41,1.83,2.41S111,175.71,111,174.1Z" fill="#fff"/><path d="M115.25,176.16c0-2.23,1.88-3.1,5-3.1h.9v-.22c0-.9-.21-1.5-1.25-1.5a1.16,1.16,0,0,0-1.28,1.12h-3c.15-2.28,1.94-3.4,4.53-3.4s4.28,1.07,4.28,3.59v6.14h-3.15v-1.11a3.13,3.13,0,0,1-2.81,1.33C116.75,179,115.25,178.17,115.25,176.16Zm5.94-.69v-.58h-.85c-1.3,0-1.88.26-1.88,1,0,.54.36.88,1.12.88C120.51,176.81,121.19,176.29,121.19,175.47Z" fill="#fff"/><path d="M125.33,180.26l1.52-4.77,3,1.07L127.25,181Z" fill="#fff"/><path d="M20.18,210.63l4.15-6.71H20.62v-2.44H29v.34l-4.26,6.69h4.05V211H20.18Z" fill="#fff"/><path d="M29.82,198.9a1.7,1.7,0,0,1,1.78-1.69,1.68,1.68,0,1,1,0,3.36A1.68,1.68,0,0,1,29.82,198.9Zm.17,2.58h3.24V211H30Z" fill="#fff"/><path d="M35.06,197.31h3.23V211H35.06Z" fill="#fff"/><path d="M39.52,206.33v-.14a4.77,4.77,0,0,1,5.06-5c2.32,0,4.46,1,4.64,3.9h-3a1.4,1.4,0,0,0-1.52-1.38c-1.14,0-1.81.82-1.81,2.41v.15c0,1.65.63,2.5,1.87,2.5a1.57,1.57,0,0,0,1.64-1.58h2.92c-.09,2.39-1.7,3.95-4.76,3.95C41.68,211.17,39.52,209.52,39.52,206.33Z" fill="#fff"/><path d="M50.32,197.31h3.25V203a3.35,3.35,0,0,1,3.12-1.78c1.83,0,3.1,1.14,3.1,3.57V211H56.54v-5.52c0-1.06-.42-1.59-1.36-1.59s-1.61.58-1.61,1.79V211H50.32Z" fill="#fff"/><path d="M60.69,212.42l1.52-4.76,3,1.07-2.61,4.44Z" fill="#fff"/><path d="M69.15,210.63l4.16-6.71H69.59v-2.44H78v.34l-4.26,6.69h4V211H69.15Z" fill="#fff"/><path d="M78.8,198.9a1.79,1.79,0,1,1,1.78,1.67A1.7,1.7,0,0,1,78.8,198.9Zm.16,2.58h3.25V211H79Z" fill="#fff"/><path d="M84,201.48h3.24v1.41a3.33,3.33,0,0,1,3-1.67c2.22,0,4,1.67,4,4.91v.15c0,3.26-1.79,4.89-4,4.89a3.12,3.12,0,0,1-2.94-1.61v4.57H84Zm6.9,4.8v-.15c0-1.66-.72-2.46-1.87-2.46s-1.88.85-1.88,2.45v.14c0,1.61.71,2.43,1.88,2.43S90.85,207.84,90.85,206.28Z" fill="#fff"/><path d="M97.83,201.48h3.39l1.38,5.67,1.59-5.67h2.61l1.42,5.67,1.54-5.67h3.08l-3,9.48h-3.1l-1.41-5.3-1.47,5.3h-3.16Z" fill="#fff"/><path d="M113.6,198.9a1.69,1.69,0,0,1,1.77-1.69,1.68,1.68,0,1,1,0,3.36A1.68,1.68,0,0,1,113.6,198.9Zm.16,2.58H117V211h-3.24Z" fill="#fff"/><path d="M119.18,207.91v-4.22H118v-2.21h1.14v-2h3.24v2h1.87v2.21h-1.87v3.91a.87.87,0,0,0,1,1,2.65,2.65,0,0,0,.92-.16v2.46a6.76,6.76,0,0,1-1.79.27C120.38,211.17,119.18,210.14,119.18,207.91Z" fill="#fff"/><path d="M125.52,197.31h3.25V203a3.35,3.35,0,0,1,3.12-1.78c1.83,0,3.1,1.14,3.1,3.57V211h-3.25v-5.52c0-1.06-.42-1.59-1.36-1.59s-1.61.58-1.61,1.79V211h-3.25Z" fill="#fff"/><path d="M21.25,230.16H30V233H25v2.76h4v2.73H25v4.59H21.25Z" fill="#fff"/><path d="M30.88,233.64h3.24v1.89a3,3,0,0,1,3.06-2v3c-2,0-3.06.56-3.06,2.09v4.49H30.88Z" fill="#fff"/><path d="M37.76,238.5v-.15a4.85,4.85,0,0,1,5.13-5,4.49,4.49,0,0,1,4.82,4.89v.85H41a1.9,1.9,0,0,0,2,2c1.07,0,1.52-.49,1.65-1.13h3c-.29,2.14-1.94,3.36-4.8,3.36S37.76,241.6,37.76,238.5Zm6.8-1.2c-.05-1.14-.62-1.77-1.67-1.77a1.79,1.79,0,0,0-1.81,1.77Z" fill="#fff"/><path d="M48.33,238.5v-.15a4.85,4.85,0,0,1,5.13-5,4.49,4.49,0,0,1,4.82,4.89v.85H51.61a1.9,1.9,0,0,0,2,2c1.07,0,1.52-.49,1.65-1.13h3c-.29,2.14-1.94,3.36-4.8,3.36S48.33,241.6,48.33,238.5Zm6.8-1.2c-.06-1.14-.62-1.77-1.67-1.77a1.79,1.79,0,0,0-1.81,1.77Z" fill="#fff"/><path d="M62.3,236.72v-.14c0-4,3-6.6,6.86-6.6S76,232.46,76,236.49v.14c0,4-2.74,6.71-6.93,6.71S62.3,240.62,62.3,236.72Zm9.85,0v-.15c0-2.3-1.16-3.66-3-3.66s-3,1.32-3,3.68v.14c0,2.36,1.2,3.72,3,3.72S72.15,239,72.15,236.69Z" fill="#fff"/><path d="M77.28,233.64h3.24v1.52a3.34,3.34,0,0,1,3.12-1.77c1.83,0,3.1,1.14,3.1,3.57v6.16H83.49v-5.51c0-1.07-.41-1.59-1.36-1.59s-1.61.58-1.61,1.79v5.31H77.28Z" fill="#fff"/><path d="M88.4,229.47h3.23v13.65H88.4Z" fill="#fff"/><path d="M93.3,231.07a1.79,1.79,0,1,1,1.78,1.66A1.67,1.67,0,0,1,93.3,231.07Zm.16,2.57h3.25v9.48H93.46Z" fill="#fff"/><path d="M98.45,233.64h3.24v1.52a3.34,3.34,0,0,1,3.12-1.77c1.83,0,3.1,1.14,3.1,3.57v6.16h-3.25v-5.51c0-1.07-.41-1.59-1.36-1.59s-1.61.58-1.61,1.79v5.31H98.45Z" fill="#fff"/><path d="M109,238.5v-.15a4.84,4.84,0,0,1,5.13-5,4.49,4.49,0,0,1,4.82,4.89v.85h-6.67a1.89,1.89,0,0,0,2,2c1.07,0,1.53-.49,1.65-1.13h3.05c-.29,2.14-1.94,3.36-4.8,3.36S109,241.6,109,238.5Zm6.79-1.2c0-1.14-.61-1.77-1.66-1.77a1.81,1.81,0,0,0-1.82,1.77Z" fill="#fff"/><path d="M119.83,241.49a1.8,1.8,0,0,1,1.85-1.83,1.83,1.83,0,1,1,0,3.66A1.81,1.81,0,0,1,119.83,241.49Z" fill="#fff"/></g><g id="Layer_10" data-name="Layer 10"><rect width="160" height="600" fill="none"/></g></g></g></svg>