<svg xmlns="http://www.w3.org/2000/svg" viewBox="0 0 728 90"><title>728x90</title><g id="Layer_2" data-name="Layer 2"><g id="Optional_loan_from_Axos_Bank_could_be_within_minutes_of_filing" data-name="Optional loan from Axos Bank® could be within minutes of filing"><path d="M120.5,82.78v-.07a3.16,3.16,0,1,1,6.31,0v.07a3.16,3.16,0,1,1-6.31,0Zm5.5,0v-.07a2.36,2.36,0,1,0-4.69,0v.07a2.42,2.42,0,0,0,2.37,2.62A2.35,2.35,0,0,0,126,82.75Z" fill="#fff"/><path d="M127.92,81.25h.75V82a1.93,1.93,0,0,1,1.59-.87,2.14,2.14,0,0,1,2.14,2.37v.07A2.17,2.17,0,0,1,130.26,86a1.78,1.78,0,0,1-1.59-.86V87.6h-.75Zm3.71,2.39v-.07c0-1.19-.66-1.78-1.45-1.78s-1.54.58-1.54,1.78v.07c0,1.21.63,1.78,1.55,1.78S131.63,84.79,131.63,83.64Z" fill="#fff"/><path d="M133.59,84.78v-2.9h-.67v-.63h.67V80.18h.75v1.07h1.1v.63h-1.1v2.83c0,.46.2.68.58.68a1.59,1.59,0,0,0,.58-.1v.63a1.85,1.85,0,0,1-.64.1A1.14,1.14,0,0,1,133.59,84.78Z" fill="#fff"/><path d="M136.37,79.77a.5.5,0,0,1,.5-.49.49.49,0,0,1,.49.49.5.5,0,0,1-.49.5A.51.51,0,0,1,136.37,79.77Zm.14,1.48h.74V86h-.74Z" fill="#fff"/><path d="M138.3,83.64v-.07a2.31,2.31,0,1,1,4.62,0v.07a2.31,2.31,0,1,1-4.62,0Zm3.85,0v-.06c0-1.09-.6-1.79-1.54-1.79a1.56,1.56,0,0,0-1.54,1.78v.07c0,1.07.59,1.78,1.54,1.78S142.15,84.71,142.15,83.64Z" fill="#fff"/><path d="M144,81.25h.75V82a1.59,1.59,0,0,1,1.51-.83c1,0,1.66.53,1.66,1.9V86h-.75V83c0-.83-.35-1.19-1.11-1.19a1.23,1.23,0,0,0-1.31,1.28V86H144Z" fill="#fff"/><path d="M148.81,84.65c0-1.09,1.15-1.46,2.36-1.46h.67v-.34c0-.75-.29-1.06-1-1.06s-1,.27-1.08.84H149a1.64,1.64,0,0,1,1.86-1.46,1.52,1.52,0,0,1,1.72,1.68V86h-.75v-.6a1.69,1.69,0,0,1-1.46.68C149.5,86,148.81,85.62,148.81,84.65Zm3-.34v-.59h-.65c-.94,0-1.63.24-1.63.93,0,.49.23.79.89.79S151.84,85,151.84,84.31Z" fill="#fff"/><path d="M153.94,79h.75v7h-.75Z" fill="#fff"/><path d="M158.36,79h.75v7h-.75Z" fill="#fff"/><path d="M160.16,83.64v-.07a2.32,2.32,0,1,1,4.63,0v.07a2.32,2.32,0,1,1-4.63,0Zm3.85,0v-.06c0-1.09-.6-1.79-1.54-1.79a1.56,1.56,0,0,0-1.54,1.78v.07c0,1.07.59,1.78,1.54,1.78S164,84.71,164,83.64Z" fill="#fff"/><path d="M165.42,84.65c0-1.09,1.15-1.46,2.36-1.46h.68v-.34c0-.75-.29-1.06-1-1.06s-1,.27-1.08.84h-.75a1.64,1.64,0,0,1,1.86-1.46,1.52,1.52,0,0,1,1.72,1.68V86h-.74v-.6A1.71,1.71,0,0,1,167,86C166.12,86,165.42,85.62,165.42,84.65Zm3-.34v-.59h-.65c-.95,0-1.64.24-1.64.93,0,.49.23.79.89.79S168.46,85,168.46,84.31Z" fill="#fff"/><path d="M170.53,81.25h.75V82a1.61,1.61,0,0,1,1.51-.83c1,0,1.66.53,1.66,1.9V86h-.75V83c0-.83-.35-1.19-1.1-1.19a1.24,1.24,0,0,0-1.32,1.28V86h-.75Z" fill="#fff"/><path d="M178.19,81.88h-.67v-.63h.67v-.77c0-1,.47-1.51,1.41-1.51a1.6,1.6,0,0,1,.56.09v.63a1.62,1.62,0,0,0-.54-.1c-.48,0-.68.33-.68.81v.85h1.15v.63h-1.15V86h-.75Z" fill="#fff"/><path d="M181,81.25h.75v.84a1.62,1.62,0,0,1,1.55-.92v.7c-.95,0-1.55.34-1.55,1.5V86H181Z" fill="#fff"/><path d="M183.77,83.64v-.07a2.32,2.32,0,1,1,4.63,0v.07a2.32,2.32,0,1,1-4.63,0Zm3.86,0v-.06c0-1.09-.61-1.79-1.54-1.79s-1.54.7-1.54,1.78v.07c0,1.07.58,1.78,1.54,1.78A1.57,1.57,0,0,0,187.63,83.64Z" fill="#fff"/><path d="M189.43,81.25h.74V82a1.54,1.54,0,0,1,1.41-.8,1.36,1.36,0,0,1,1.37.88,1.84,1.84,0,0,1,1.62-.88c.84,0,1.58.5,1.58,1.87V86h-.75V83c0-.83-.35-1.17-1-1.17a1.2,1.2,0,0,0-1.24,1.26V86h-.75V83c0-.83-.35-1.17-1-1.17a1.2,1.2,0,0,0-1.25,1.26V86h-.74Z" fill="#fff"/><path d="M201.51,79.52h1L204.72,86h-.78l-.63-1.86h-2.65L200,86h-.74Zm-.64,4h2.24L202,80.17Z" fill="#fff"/><path d="M206.84,83.54l-1.57-2.29h.87L207.29,83l1.14-1.71h.81l-1.55,2.23L209.41,86h-.89l-1.27-1.9L206,86h-.8Z" fill="#fff"/><path d="M209.7,83.64v-.07a2.32,2.32,0,1,1,4.63,0v.07a2.32,2.32,0,1,1-4.63,0Zm3.86,0v-.06c0-1.09-.61-1.79-1.54-1.79s-1.54.7-1.54,1.78v.07c0,1.07.58,1.78,1.54,1.78A1.57,1.57,0,0,0,213.56,83.64Z" fill="#fff"/><path d="M215,84.51h.73c.05.56.35.91,1.1.91s1-.25,1-.75-.37-.66-1.1-.79c-1.22-.23-1.64-.57-1.64-1.39a1.47,1.47,0,0,1,1.6-1.32,1.51,1.51,0,0,1,1.7,1.36h-.72c-.11-.52-.4-.74-1-.74s-.89.27-.89.67.23.6,1.09.75,1.66.4,1.66,1.4c0,.85-.58,1.43-1.73,1.43S215,85.47,215,84.51Z" fill="#fff"/><path d="M221.84,79.52h1.94c1.2,0,2.07.4,2.07,1.67v0a1.31,1.31,0,0,1-1,1.36,1.41,1.41,0,0,1,1.28,1.54v0c0,1.21-.82,1.8-2.11,1.8h-2.21Zm1.94,2.81c.94,0,1.3-.34,1.3-1.14v0c0-.73-.42-1-1.32-1h-1.15v2.2Zm.25,3c.94,0,1.37-.41,1.37-1.19v0c0-.79-.44-1.17-1.48-1.17h-1.31v2.4Z" fill="#fff"/><path d="M226.86,84.65c0-1.09,1.16-1.46,2.36-1.46h.68v-.34c0-.75-.29-1.06-1-1.06s-1,.27-1.08.84h-.75a1.65,1.65,0,0,1,1.87-1.46,1.52,1.52,0,0,1,1.72,1.68V86h-.75v-.6a1.71,1.71,0,0,1-1.47.68C227.56,86,226.86,85.62,226.86,84.65Zm3-.34v-.59h-.65c-.94,0-1.64.24-1.64.93,0,.49.24.79.89.79C229.3,85.44,229.9,85,229.9,84.31Z" fill="#fff"/><path d="M232,81.25h.74V82a1.61,1.61,0,0,1,1.52-.83c1,0,1.65.53,1.65,1.9V86h-.74V83c0-.83-.36-1.19-1.11-1.19a1.24,1.24,0,0,0-1.32,1.28V86H232Z" fill="#fff"/><path d="M237.22,79H238v4.42l1.95-2.17h.88l-2,2.19L241,86h-.91L238,83.52V86h-.75Z" fill="#fff"/><path d="M241.16,80.33a1.16,1.16,0,0,1,1.17-1.17,1.16,1.16,0,1,1-1.17,1.17Zm2.12,0a1,1,0,1,0-.95,1A.92.92,0,0,0,243.28,80.32Zm-1.35-.59h.4c.27,0,.44.11.44.35h0a.3.3,0,0,1-.23.31l.3.49h-.26l-.28-.44h-.12v.44h-.25Zm.4.53c.13,0,.19-.06.19-.17h0c0-.12-.07-.16-.19-.16h-.15v.33Z" fill="#fff"/><path d="M246.25,83.65v-.07a2.29,2.29,0,0,1,2.29-2.41,1.84,1.84,0,0,1,2,1.65h-.74a1.18,1.18,0,0,0-1.3-1A1.59,1.59,0,0,0,247,83.58v.07c0,1.15.63,1.77,1.54,1.77a1.27,1.27,0,0,0,1.35-1.16h.7A2,2,0,0,1,248.55,86,2.24,2.24,0,0,1,246.25,83.65Z" fill="#fff"/><path d="M251.24,83.64v-.07a2.32,2.32,0,1,1,4.63,0v.07a2.32,2.32,0,1,1-4.63,0Zm3.86,0v-.06c0-1.09-.61-1.79-1.54-1.79s-1.54.7-1.54,1.78v.07c0,1.07.58,1.78,1.54,1.78A1.57,1.57,0,0,0,255.1,83.64Z" fill="#fff"/><path d="M256.85,84.23v-3h.75v2.94c0,.83.35,1.2,1.09,1.2A1.24,1.24,0,0,0,260,84.1V81.25h.75V86H260v-.75a1.59,1.59,0,0,1-1.49.83C257.55,86,256.85,85.52,256.85,84.23Z" fill="#fff"/><path d="M262.13,79h.75v7h-.75Z" fill="#fff"/><path d="M263.93,83.7v-.08a2.23,2.23,0,0,1,2.19-2.45,1.69,1.69,0,0,1,1.54.83V79h.75v7h-.75v-.81a2,2,0,0,1-1.61.89A2.1,2.1,0,0,1,263.93,83.7Zm3.76-.07v-.07c0-1.2-.58-1.77-1.5-1.77s-1.49.66-1.49,1.8v.07c0,1.19.64,1.76,1.43,1.76S267.69,84.84,267.69,83.63Z" fill="#fff"/><path d="M272.78,85.18V86H272V79h.75v3a1.94,1.94,0,0,1,1.6-.87,2.14,2.14,0,0,1,2.14,2.37v.07A2.18,2.18,0,0,1,274.38,86,1.8,1.8,0,0,1,272.78,85.18Zm3-1.54v-.07c0-1.19-.65-1.78-1.45-1.78s-1.54.58-1.54,1.78v.07c0,1.21.64,1.78,1.55,1.78S275.74,84.79,275.74,83.64Z" fill="#fff"/><path d="M277.19,83.65v-.07a2.22,2.22,0,0,1,2.21-2.41,2.06,2.06,0,0,1,2.11,2.34v.24H278c0,1.07.55,1.67,1.51,1.67.73,0,1.15-.27,1.25-.82h.75a1.83,1.83,0,0,1-2,1.44A2.22,2.22,0,0,1,277.19,83.65Zm3.56-.5c-.07-1-.58-1.36-1.35-1.36A1.41,1.41,0,0,0,278,83.15Z" fill="#fff"/><path d="M284.27,81.25h.81L286.17,85l1.15-3.79H288L289,85l1.1-3.79h.77L289.44,86h-.83l-1-3.53L286.53,86h-.82Z" fill="#fff"/><path d="M291.66,79.77a.5.5,0,0,1,.5-.49.49.49,0,0,1,.49.49.5.5,0,0,1-.49.5A.51.51,0,0,1,291.66,79.77Zm.14,1.48h.75V86h-.75Z" fill="#fff"/><path d="M294.1,84.78v-2.9h-.67v-.63h.67V80.18h.75v1.07H296v.63h-1.1v2.83c0,.46.21.68.59.68a1.57,1.57,0,0,0,.57-.1v.63a1.85,1.85,0,0,1-.64.1A1.14,1.14,0,0,1,294.1,84.78Z" fill="#fff"/><path d="M297,79h.75v3a1.6,1.6,0,0,1,1.51-.83c1,0,1.66.53,1.66,1.9V86h-.75V83c0-.83-.35-1.19-1.11-1.19a1.23,1.23,0,0,0-1.31,1.28V86H297Z" fill="#fff"/><path d="M302.13,79.77a.5.5,0,0,1,.5-.49.49.49,0,0,1,.49.49.5.5,0,0,1-.49.5A.51.51,0,0,1,302.13,79.77Zm.14,1.48H303V86h-.74Z" fill="#fff"/><path d="M304.41,81.25h.74V82a1.61,1.61,0,0,1,1.52-.83c1,0,1.65.53,1.65,1.9V86h-.74V83c0-.83-.35-1.19-1.11-1.19a1.24,1.24,0,0,0-1.32,1.28V86h-.74Z" fill="#fff"/><path d="M311.9,81.25h.75V82a1.54,1.54,0,0,1,1.41-.8,1.36,1.36,0,0,1,1.37.88,1.83,1.83,0,0,1,1.61-.88c.85,0,1.59.5,1.59,1.87V86h-.75V83c0-.83-.35-1.17-1-1.17a1.2,1.2,0,0,0-1.24,1.26V86h-.75V83c0-.83-.35-1.17-1-1.17a1.2,1.2,0,0,0-1.24,1.26V86h-.75Z" fill="#fff"/><path d="M319.84,79.77a.5.5,0,0,1,.5-.49.49.49,0,0,1,.49.49.5.5,0,0,1-.49.5A.51.51,0,0,1,319.84,79.77Zm.14,1.48h.74V86H320Z" fill="#fff"/><path d="M322.12,81.25h.75V82a1.59,1.59,0,0,1,1.51-.83c1,0,1.66.53,1.66,1.9V86h-.75V83c0-.83-.35-1.19-1.11-1.19a1.23,1.23,0,0,0-1.31,1.28V86h-.75Z" fill="#fff"/><path d="M327.32,84.23v-3h.75v2.94c0,.83.35,1.2,1.09,1.2a1.24,1.24,0,0,0,1.29-1.29V81.25h.75V86h-.75v-.75A1.59,1.59,0,0,1,329,86C328,86,327.32,85.52,327.32,84.23Z" fill="#fff"/><path d="M332.74,84.78v-2.9h-.68v-.63h.68V80.18h.75v1.07h1.09v.63h-1.09v2.83c0,.46.2.68.58.68a1.59,1.59,0,0,0,.58-.1v.63a1.94,1.94,0,0,1-.64.1A1.14,1.14,0,0,1,332.74,84.78Z" fill="#fff"/><path d="M335.29,83.65v-.07a2.21,2.21,0,0,1,2.2-2.41,2.06,2.06,0,0,1,2.12,2.34v.24h-3.55c0,1.07.55,1.67,1.51,1.67.73,0,1.15-.27,1.25-.82h.75a1.81,1.81,0,0,1-2,1.44A2.21,2.21,0,0,1,335.29,83.65Zm3.55-.5c-.07-1-.57-1.36-1.35-1.36a1.41,1.41,0,0,0-1.4,1.36Z" fill="#fff"/><path d="M340.27,84.51H341c.05.56.35.91,1.11.91s1-.25,1-.75-.36-.66-1.09-.79c-1.23-.23-1.64-.57-1.64-1.39A1.46,1.46,0,0,1,342,81.17a1.5,1.5,0,0,1,1.7,1.36H343c-.11-.52-.39-.74-1-.74s-.89.27-.89.67.23.6,1.1.75,1.66.4,1.66,1.4c0,.85-.59,1.43-1.73,1.43S340.32,85.47,340.27,84.51Z" fill="#fff"/><path d="M346.74,83.64v-.07a2.32,2.32,0,1,1,4.63,0v.07a2.32,2.32,0,1,1-4.63,0Zm3.86,0v-.06c0-1.09-.61-1.79-1.54-1.79s-1.54.7-1.54,1.78v.07c0,1.07.58,1.78,1.54,1.78A1.57,1.57,0,0,0,350.6,83.64Z" fill="#fff"/><path d="M352.56,81.88h-.68v-.63h.68v-.77c0-1,.46-1.51,1.4-1.51a1.6,1.6,0,0,1,.56.09v.63a1.61,1.61,0,0,0-.53-.1c-.49,0-.69.33-.69.81v.85h1.16v.63H353.3V86h-.74Z" fill="#fff"/><path d="M357.79,81.88h-.68v-.63h.68v-.77c0-1,.46-1.51,1.4-1.51a1.6,1.6,0,0,1,.56.09v.63a1.61,1.61,0,0,0-.53-.1c-.49,0-.69.33-.69.81v.85h1.16v.63h-1.16V86h-.74Z" fill="#fff"/><path d="M360.49,79.77a.49.49,0,0,1,.49-.49.5.5,0,0,1,.5.49.51.51,0,0,1-.5.5A.5.5,0,0,1,360.49,79.77Zm.13,1.48h.75V86h-.75Z" fill="#fff"/><path d="M362.78,79h.76v7h-.76Z" fill="#fff"/><path d="M364.81,79.77a.5.5,0,0,1,.5-.49.49.49,0,0,1,.49.49.5.5,0,0,1-.49.5A.51.51,0,0,1,364.81,79.77Zm.14,1.48h.75V86H365Z" fill="#fff"/><path d="M367.09,81.25h.75V82a1.6,1.6,0,0,1,1.51-.83c1,0,1.66.53,1.66,1.9V86h-.75V83c0-.83-.35-1.19-1.11-1.19a1.23,1.23,0,0,0-1.31,1.28V86h-.75Z" fill="#fff"/><path d="M372.09,86.23h.76c.11.54.56.82,1.36.82a1.32,1.32,0,0,0,1.51-1.45v-.69a2,2,0,0,1-1.59.89A2.12,2.12,0,0,1,372,83.57v-.06a2.23,2.23,0,0,1,2.19-2.34,1.69,1.69,0,0,1,1.54.83v-.75h.75v4.39a2,2,0,0,1-2.25,2C372.82,87.68,372.21,87,372.09,86.23Zm3.66-2.71v-.07a1.46,1.46,0,0,0-1.49-1.66,1.5,1.5,0,0,0-1.5,1.68v.07a1.49,1.49,0,0,0,1.45,1.64A1.51,1.51,0,0,0,375.75,83.52Z" fill="#fff"/><path d="M377.78,85.43a.57.57,0,0,1,.58-.58.58.58,0,1,1,0,1.15A.57.57,0,0,1,377.78,85.43Z" fill="#fff"/><path d="M382.55,79.52h1l3.13,5.32V79.52h.75V86h-.9l-3.25-5.52V86h-.75Z" fill="#fff"/><path d="M388.53,83.64v-.07a2.32,2.32,0,1,1,4.63,0v.07a2.32,2.32,0,1,1-4.63,0Zm3.85,0v-.06c0-1.09-.6-1.79-1.54-1.79a1.56,1.56,0,0,0-1.54,1.78v.07c0,1.07.59,1.78,1.54,1.78S392.38,84.71,392.38,83.64Z" fill="#fff"/><path d="M394.34,84.78v-2.9h-.67v-.63h.67V80.18h.75v1.07h1.1v.63h-1.1v2.83c0,.46.21.68.59.68a1.57,1.57,0,0,0,.57-.1v.63a1.85,1.85,0,0,1-.64.1A1.14,1.14,0,0,1,394.34,84.78Z" fill="#fff"/><path d="M400.8,85.47,399,81.25h.8l1.44,3.37,1.31-3.37h.76l-2.6,6.35h-.76Z" fill="#fff"/><path d="M403.63,83.64v-.07a2.32,2.32,0,1,1,4.63,0v.07a2.32,2.32,0,1,1-4.63,0Zm3.85,0v-.06c0-1.09-.6-1.79-1.54-1.79s-1.53.7-1.53,1.78v.07c0,1.07.58,1.78,1.53,1.78S407.48,84.71,407.48,83.64Z" fill="#fff"/><path d="M409.24,84.23v-3H410v2.94c0,.83.36,1.2,1.09,1.2a1.24,1.24,0,0,0,1.3-1.29V81.25h.75V86h-.75v-.75a1.61,1.61,0,0,1-1.49.83C409.94,86,409.24,85.52,409.24,84.23Z" fill="#fff"/><path d="M414.49,81.25h.75v.84a1.63,1.63,0,0,1,1.55-.92v.7c-1,0-1.55.34-1.55,1.5V86h-.75Z" fill="#fff"/><path d="M420.15,84.78v-2.9h-.67v-.63h.67V80.18h.75v1.07H422v.63h-1.1v2.83c0,.46.21.68.59.68a1.57,1.57,0,0,0,.57-.1v.63a1.85,1.85,0,0,1-.64.1A1.14,1.14,0,0,1,420.15,84.78Z" fill="#fff"/><path d="M422.71,84.65c0-1.09,1.15-1.46,2.36-1.46h.67v-.34c0-.75-.28-1.06-1-1.06s-1,.27-1.08.84h-.75a1.64,1.64,0,0,1,1.86-1.46,1.52,1.52,0,0,1,1.72,1.68V86h-.75v-.6a1.69,1.69,0,0,1-1.46.68C423.4,86,422.71,85.62,422.71,84.65Zm3-.34v-.59h-.64c-1,0-1.64.24-1.64.93,0,.49.23.79.89.79S425.74,85,425.74,84.31Z" fill="#fff"/><path d="M429,83.54l-1.57-2.29h.87L429.45,83l1.14-1.71h.82l-1.56,2.23L431.57,86h-.88l-1.27-1.9-1.3,1.9h-.8Z" fill="#fff"/><path d="M434.69,81.25h.75v.84a1.62,1.62,0,0,1,1.55-.92v.7c-.95,0-1.55.34-1.55,1.5V86h-.75Z" fill="#fff"/><path d="M437.45,83.65v-.07a2.22,2.22,0,0,1,2.21-2.41,2.06,2.06,0,0,1,2.11,2.34v.24h-3.54c0,1.07.55,1.67,1.51,1.67.73,0,1.15-.27,1.25-.82h.75a1.82,1.82,0,0,1-2,1.44A2.22,2.22,0,0,1,437.45,83.65Zm3.56-.5c-.07-1-.58-1.36-1.35-1.36a1.41,1.41,0,0,0-1.41,1.36Z" fill="#fff"/><path d="M442.94,81.88h-.67v-.63h.67v-.77c0-1,.47-1.51,1.41-1.51a1.51,1.51,0,0,1,.55.09v.63a1.51,1.51,0,0,0-.53-.1c-.48,0-.68.33-.68.81v.85h1.15v.63h-1.15V86h-.75Z" fill="#fff"/><path d="M445.71,84.23v-3h.75v2.94c0,.83.35,1.2,1.09,1.2a1.24,1.24,0,0,0,1.3-1.29V81.25h.74V86h-.74v-.75a1.62,1.62,0,0,1-1.5.83C446.42,86,445.71,85.52,445.71,84.23Z" fill="#fff"/><path d="M451,81.25h.75V82a1.6,1.6,0,0,1,1.51-.83c1,0,1.66.53,1.66,1.9V86h-.75V83c0-.83-.35-1.19-1.11-1.19a1.23,1.23,0,0,0-1.31,1.28V86H451Z" fill="#fff"/><path d="M455.87,83.7v-.08a2.23,2.23,0,0,1,2.19-2.45,1.69,1.69,0,0,1,1.54.83V79h.75v7h-.75v-.81A2,2,0,0,1,458,86,2.1,2.1,0,0,1,455.87,83.7Zm3.76-.07v-.07c0-1.2-.58-1.77-1.5-1.77s-1.49.66-1.49,1.8v.07c0,1.19.64,1.76,1.43,1.76S459.63,84.84,459.63,83.63Z" fill="#fff"/><path d="M461.66,85.43a.58.58,0,1,1,.58.57A.57.57,0,0,1,461.66,85.43Z" fill="#fff"/><rect width="728" height="90" fill="none"/></g></g></svg>