<svg xmlns="http://www.w3.org/2000/svg" viewBox="0 0 729 91"><title>Asset 11</title><g id="Layer_2" data-name="Layer 2"><g id="Layer_23" data-name="Layer 23"><rect x="0.5" y="0.5" width="728" height="90" fill="none" stroke="#000" stroke-miterlimit="10"/></g><g id="You_could_get_your_max_refund_in_about_an_hour." data-name="You could get your max refund in about an hour."><path d="M128.45,29.25l-7.69-13.5h7.36l4,8,4-7.95h6.47l-7.33,13.5v10.1h-6.8Z" fill="#fff"/><path d="M140.1,30.93v-.26c0-5.55,4.13-9,9.47-9S159,25,159,30.5v.27c0,5.61-4.12,9-9.44,9S140.1,36.51,140.1,30.93Zm12.87-.1v-.26c0-2.9-1.15-4.52-3.4-4.52s-3.43,1.55-3.43,4.45v.27c0,3,1.16,4.58,3.43,4.58S153,33.71,153,30.83Z" fill="#fff"/><path d="M160.92,33.34V22.09h5.91V32.38c0,1.95.76,2.91,2.45,2.91s2.93-1.06,2.93-3.27V22.09h5.91V39.35h-5.91V36.68a5.66,5.66,0,0,1-5.48,3.06C163.4,39.74,160.92,37.7,160.92,33.34Z" fill="#fff"/><path d="M186.2,30.93v-.26c0-5.74,4.13-9,9.21-9,4.23,0,8.12,1.85,8.45,7.1h-5.55c-.26-1.62-1.05-2.51-2.77-2.51-2.08,0-3.3,1.49-3.3,4.39v.27c0,3,1.16,4.55,3.4,4.55a2.88,2.88,0,0,0,3-2.87H204c-.17,4.36-3.1,7.19-8.68,7.19C190.13,39.74,186.2,36.74,186.2,30.93Z" fill="#fff"/><path d="M205,30.93v-.26c0-5.55,4.12-9,9.47-9s9.4,3.4,9.4,8.88v.27c0,5.61-4.12,9-9.43,9S205,36.51,205,30.93Zm12.87-.1v-.26c0-2.9-1.16-4.52-3.4-4.52S211,27.6,211,30.5v.27c0,3,1.15,4.58,3.43,4.58S217.82,33.71,217.82,30.83Z" fill="#fff"/><path d="M225.77,33.34V22.09h5.91V32.38c0,1.95.76,2.91,2.44,2.91s2.94-1.06,2.94-3.27V22.09H243V39.35h-5.9V36.68a5.68,5.68,0,0,1-5.48,3.06C228.24,39.74,225.77,37.7,225.77,33.34Z" fill="#fff"/><path d="M246.13,14.5H252V39.35h-5.87Z" fill="#fff"/><path d="M254.31,30.9v-.26c0-5.88,3.24-9,7.33-9A5.59,5.59,0,0,1,267,24.53v-10h5.91V39.35H267V36.54a5.79,5.79,0,0,1-5.38,3.2C257.58,39.74,254.31,36.87,254.31,30.9Zm12.81-.1v-.26c0-2.91-1.22-4.46-3.4-4.46s-3.4,1.49-3.4,4.49v.26c0,2.91,1.29,4.39,3.33,4.39S267.12,33.74,267.12,30.8Z" fill="#fff"/><path d="M280.91,39.35h5.88c.26,1.25,1,2.24,3.16,2.24,2.61,0,3.67-1.48,3.67-3.63V35.32a6.05,6.05,0,0,1-5.35,3.17c-4,0-7.33-3-7.33-8.28v-.27c0-5.08,3.27-8.32,7.33-8.32a5.62,5.62,0,0,1,5.35,2.91V22.09h5.91V37.9c0,5.15-3.4,7.85-9.58,7.85C284.08,45.75,281.37,43.28,280.91,39.35Zm12.87-9.18v-.23c0-2.37-1.22-3.89-3.4-3.89S287,27.6,287,30v.26c0,2.38,1.26,3.89,3.37,3.89S293.78,32.62,293.78,30.17Z" fill="#fff"/><path d="M301.6,30.93v-.26c0-5.55,4.13-9,9.34-9,4.72,0,8.78,2.71,8.78,8.92v1.55H307.58c.16,2.27,1.48,3.6,3.59,3.6,1.95,0,2.78-.9,3-2h5.54c-.53,3.89-3.53,6.1-8.75,6.1C305.56,39.74,301.6,36.58,301.6,30.93ZM314,28.75c-.1-2.08-1.12-3.23-3-3.23s-3,1.15-3.3,3.23Z" fill="#fff"/><path d="M322.56,33.8V26.11h-2.08v-4h2.08v-3.6h5.9v3.6h3.4v4h-3.4v7.13c0,1.26.63,1.82,1.75,1.82a4.5,4.5,0,0,0,1.69-.3v4.49a12.35,12.35,0,0,1-3.27.49C324.73,39.74,322.56,37.86,322.56,33.8Z" fill="#fff"/><path d="M345.52,37.6l-6.89-15.51H345l3.56,9.21,3.3-9.21h5.65l-9.24,23h-5.65Z" fill="#fff"/><path d="M357.21,30.93v-.26c0-5.55,4.12-9,9.47-9s9.4,3.4,9.4,8.88v.27c0,5.61-4.12,9-9.44,9S357.21,36.51,357.21,30.93Zm12.87-.1v-.26c0-2.9-1.16-4.52-3.4-4.52s-3.43,1.55-3.43,4.45v.27c0,3,1.15,4.58,3.43,4.58S370.08,33.71,370.08,30.83Z" fill="#fff"/><path d="M378,33.34V22.09h5.91V32.38c0,1.95.76,2.91,2.44,2.91s2.94-1.06,2.94-3.27V22.09h5.9V39.35h-5.9V36.68a5.68,5.68,0,0,1-5.48,3.06C380.5,39.74,378,37.7,378,33.34Z" fill="#fff"/><path d="M398.22,22.09h5.91v3.43a5.44,5.44,0,0,1,5.58-3.66v5.51c-3.6-.1-5.58,1-5.58,3.79v8.19h-5.91Z" fill="#fff"/><path d="M417.86,22.09h5.91v2.64a6,6,0,0,1,5.41-3.11,4.72,4.72,0,0,1,4.69,2.88,6.83,6.83,0,0,1,5.71-2.88c3.26,0,5.64,2.12,5.64,6.44V39.35h-5.91V29.05c0-1.75-.86-2.61-2.21-2.61-1.58,0-2.64,1-2.64,2.91v10h-5.84V29.05c0-1.75-.86-2.61-2.21-2.61-1.59,0-2.64,1-2.64,2.91v10h-5.91Z" fill="#fff"/><path d="M447.1,34.56c0-4.06,3.43-5.64,9.17-5.64h1.65v-.4c0-1.65-.39-2.74-2.28-2.74a2.12,2.12,0,0,0-2.34,2h-5.54c.26-4.16,3.53-6.21,8.25-6.21s7.79,1.95,7.79,6.54V39.35h-5.75v-2c-.82,1.25-2.34,2.4-5.11,2.4C449.83,39.74,447.1,38.23,447.1,34.56Zm10.82-1.25V32.25h-1.55c-2.38,0-3.43.46-3.43,1.88,0,1,.66,1.62,2,1.62C456.67,35.75,457.92,34.79,457.92,33.31Z" fill="#fff"/><path d="M471,30.57l-5.38-8.48h6.8l2.67,4.55,2.61-4.55h6.07l-5.44,8,6,9.24h-6.8l-3.07-5.15-3.13,5.15h-6Z" fill="#fff"/><path d="M122.25,57.09h5.91v3.43a5.43,5.43,0,0,1,5.57-3.66v5.51c-3.59-.1-5.57,1-5.57,3.79v8.19h-5.91Z" fill="#fff"/><path d="M134.79,65.93v-.26c0-5.55,4.13-9.05,9.34-9.05,4.72,0,8.78,2.71,8.78,8.92v1.55H140.76c.17,2.28,1.49,3.6,3.6,3.6,1.95,0,2.77-.9,3-2h5.55c-.53,3.89-3.53,6.11-8.75,6.11C138.75,74.75,134.79,71.58,134.79,65.93Zm12.38-2.18c-.1-2.08-1.13-3.23-3-3.23s-3,1.15-3.3,3.23Z" fill="#fff"/><path d="M155.84,61.11h-2.17v-4h2.17V55.57c0-4.29,2.68-6.34,6.77-6.34a11,11,0,0,1,2.71.36v4.33a5.52,5.52,0,0,0-1.62-.23,1.73,1.73,0,0,0-2,1.88v1.52h3.5v4h-3.5V74.35h-5.88Z" fill="#fff"/><path d="M167.06,68.34V57.09H173V67.38c0,2,.76,2.91,2.44,2.91s2.94-1.06,2.94-3.27V57.09h5.91V74.35h-5.91V71.68a5.67,5.67,0,0,1-5.48,3.07C169.54,74.75,167.06,72.7,167.06,68.34Z" fill="#fff"/><path d="M187.26,57.09h5.91v2.77a6.09,6.09,0,0,1,5.67-3.24c3.34,0,5.65,2.08,5.65,6.51V74.35h-5.91v-10c0-1.95-.76-2.91-2.48-2.91s-2.93,1.06-2.93,3.27v9.67h-5.91Z" fill="#fff"/><path d="M206.5,65.9v-.26c0-5.88,3.23-9,7.32-9a5.6,5.6,0,0,1,5.32,2.91v-10h5.91V74.35h-5.91V71.54a5.81,5.81,0,0,1-5.38,3.21C209.76,74.75,206.5,71.87,206.5,65.9Zm12.8-.1v-.26c0-2.91-1.22-4.46-3.4-4.46s-3.4,1.49-3.4,4.49v.26c0,2.91,1.29,4.39,3.34,4.39S219.3,68.74,219.3,65.8Z" fill="#fff"/><path d="M233.92,52.4a3.26,3.26,0,1,1,3.23,3A3.08,3.08,0,0,1,233.92,52.4Zm.3,4.69h5.9V74.35h-5.9Z" fill="#fff"/><path d="M243.29,57.09h5.91v2.77a6.09,6.09,0,0,1,5.68-3.24c3.33,0,5.64,2.08,5.64,6.51V74.35h-5.91v-10c0-1.95-.76-2.91-2.47-2.91s-2.94,1.06-2.94,3.27v9.67h-5.91Z" fill="#fff"/><path d="M268.4,69.56c0-4.06,3.44-5.64,9.18-5.64h1.65v-.4c0-1.65-.4-2.74-2.28-2.74a2.12,2.12,0,0,0-2.34,2h-5.55c.27-4.16,3.54-6.21,8.25-6.21s7.79,2,7.79,6.54V74.35h-5.74v-2a5.65,5.65,0,0,1-5.11,2.42C271.14,74.75,268.4,73.23,268.4,69.56Zm10.83-1.25V67.25h-1.55c-2.38,0-3.43.46-3.43,1.88,0,1,.66,1.62,2,1.62C278,70.75,279.23,69.79,279.23,68.31Z" fill="#fff"/><path d="M293.88,71.68v2.67H288V49.5h5.91V59.66a6.09,6.09,0,0,1,5.38-3c4,0,7.29,3,7.29,8.95v.26c0,5.94-3.26,8.92-7.32,8.92A5.61,5.61,0,0,1,293.88,71.68Zm6.67-5.85v-.26c0-3-1.32-4.49-3.4-4.49s-3.43,1.55-3.43,4.46v.26c0,2.94,1.28,4.42,3.43,4.42S300.55,68.67,300.55,65.83Z" fill="#fff"/><path d="M307.77,65.93v-.26c0-5.55,4.13-9.05,9.47-9.05s9.41,3.4,9.41,8.88v.27c0,5.61-4.12,9-9.44,9S307.77,71.51,307.77,65.93Zm12.87-.1v-.26c0-2.9-1.15-4.52-3.4-4.52s-3.43,1.55-3.43,4.45v.27c0,3,1.16,4.59,3.43,4.59S320.64,68.71,320.64,65.83Z" fill="#fff"/><path d="M328.6,68.34V57.09h5.9V67.38c0,2,.76,2.91,2.45,2.91s2.93-1.06,2.93-3.27V57.09h5.91V74.35h-5.91V71.68a5.66,5.66,0,0,1-5.48,3.07C331.07,74.75,328.6,72.7,328.6,68.34Z" fill="#fff"/><path d="M349.58,68.8V61.11H347.5v-4h2.08v-3.6h5.91v3.6h3.4v4h-3.4v7.13c0,1.26.63,1.82,1.75,1.82a4.42,4.42,0,0,0,1.68-.3v4.49a12.27,12.27,0,0,1-3.26.5C351.76,74.75,349.58,72.86,349.58,68.8Z" fill="#fff"/><path d="M366.15,69.56c0-4.06,3.43-5.64,9.17-5.64H377v-.4c0-1.65-.39-2.74-2.27-2.74a2.13,2.13,0,0,0-2.35,2h-5.54c.26-4.16,3.53-6.21,8.25-6.21s7.79,2,7.79,6.54V74.35h-5.74v-2A5.68,5.68,0,0,1,372,74.75C368.89,74.75,366.15,73.23,366.15,69.56ZM377,68.31V67.25h-1.55c-2.37,0-3.43.46-3.43,1.88,0,1,.66,1.62,2.05,1.62C375.72,70.75,377,69.79,377,68.31Z" fill="#fff"/><path d="M385.72,57.09h5.9v2.77a6.11,6.11,0,0,1,5.68-3.24c3.33,0,5.65,2.08,5.65,6.51V74.35H397v-10c0-1.95-.76-2.91-2.48-2.91s-2.94,1.06-2.94,3.27v9.67h-5.9Z" fill="#fff"/><path d="M411.82,49.5h5.91V59.86a6.09,6.09,0,0,1,5.67-3.24c3.34,0,5.65,2.08,5.65,6.51V74.35h-5.91v-10c0-1.95-.76-2.91-2.48-2.91s-2.93,1.06-2.93,3.27v9.67h-5.91Z" fill="#fff"/><path d="M431,65.93v-.26c0-5.55,4.13-9.05,9.47-9.05s9.41,3.4,9.41,8.88v.27c0,5.61-4.12,9-9.44,9S431,71.51,431,65.93Zm12.87-.1v-.26c0-2.9-1.15-4.52-3.4-4.52S437,62.6,437,65.5v.27c0,3,1.16,4.59,3.43,4.59S443.86,68.71,443.86,65.83Z" fill="#fff"/><path d="M451.81,68.34V57.09h5.91V67.38c0,2,.76,2.91,2.45,2.91s2.93-1.06,2.93-3.27V57.09H469V74.35H463.1V71.68a5.66,5.66,0,0,1-5.48,3.07C454.29,74.75,451.81,72.7,451.81,68.34Z" fill="#fff"/><path d="M472,57.09h5.91v3.43a5.43,5.43,0,0,1,5.58-3.66v5.51c-3.6-.1-5.58,1-5.58,3.79v8.19H472Z" fill="#fff"/><path d="M483.43,71.38A3.29,3.29,0,0,1,486.79,68a3.34,3.34,0,1,1,0,6.67A3.29,3.29,0,0,1,483.43,71.38Z" fill="#fff"/></g></g></svg>