<?xml version="1.0" encoding="utf-8"?>
<!-- Generator: Adobe Illustrator 23.1.1, SVG Export Plug-In . SVG Version: 6.00 Build 0)  -->
<svg version="1.1" id="Layer_1" xmlns="http://www.w3.org/2000/svg" xmlns:xlink="http://www.w3.org/1999/xlink" x="0px" y="0px"
	 viewBox="0 0 306 70" style="enable-background:new 0 0 306 70;" xml:space="preserve">
<style type="text/css">
	.st0{fill:none;}
	.st1{fill:#262626;}
</style>
<title>cta_lrg</title>
<g>
	<g id="CTA">
		<g id="Rectangle_1">
			<rect class="st0" width="306" height="70"/>
		</g>
		<g id="Learn_more">
			<path class="st1" d="M70.6,21.1h5.2V40h9.3v4H70.6V21.1z"/>
			<path class="st1" d="M86.2,35.8v-0.3c-0.2-4.6,3.3-8.5,7.9-8.7c0.2,0,0.5,0,0.7,0c4.3,0,8.2,2.5,8.2,8.5v1.3H91
				c-0.2,2.2,1.4,4.2,3.6,4.4c0.2,0,0.4,0,0.6,0c2.1,0,3.2-0.9,3.5-2.3h4.4c-0.6,3.6-3.4,5.6-8,5.6c-4.5,0.4-8.4-2.9-8.8-7.4
				C86.2,36.5,86.2,36.2,86.2,35.8z M98.5,33.8c-0.2-2.5-1.4-3.7-3.7-3.7c-2.1,0-3.8,1.7-3.8,3.7H98.5z"/>
			<path class="st1" d="M104.6,39.3c0-3.9,3.6-5.4,8.7-5.4h1.9v-0.7c0-2-0.6-3.1-2.7-3.1c-1.4-0.2-2.6,0.8-2.8,2.1
				c0,0.1,0,0.2,0,0.2h-4.4c0.3-4,3.4-5.7,7.5-5.7s7,1.7,7,6.2v11h-4.5v-2c-1.1,1.6-3.1,2.5-5,2.4C107.2,44.3,104.6,42.8,104.6,39.3
				z M115.2,38.1v-1.4h-1.8c-2.7,0-4.3,0.6-4.3,2.4c0,1.2,0.7,2,2.4,2C113.7,41.1,115.2,40,115.2,38.1z"/>
			<path class="st1" d="M123.3,27.2h4.7v3.2c0.9-2.2,3.1-3.6,5.4-3.5v4.3c-3.4,0-5.4,1.1-5.4,4.3V44h-4.7V27.2z"/>
			<path class="st1" d="M136,27.2h4.6v2.7c1-2,3.1-3.2,5.4-3c3.3,0,5.6,2,5.6,6.5V44H147V34c0-2.3-0.9-3.4-2.9-3.4
				c-1.8-0.1-3.4,1.3-3.5,3.1c0,0.2,0,0.4,0,0.6V44H136V27.2z"/>
			<path class="st1" d="M161.7,27.2h4.6v2.6c1-1.9,3-3,5.1-2.9c2-0.2,3.9,1,4.7,2.9c1.3-1.9,3.4-2.9,5.6-2.9c3.1,0,5.5,2,5.5,6.4V44
				h-4.6V33.7c0-2.1-1-3.1-2.6-3.1c-1.7-0.1-3.2,1.3-3.2,3c0,0.1,0,0.2,0,0.4v10h-4.6V33.7c0-2.1-1-3.1-2.6-3.1
				c-1.7-0.1-3.2,1.3-3.2,3c0,0.1,0,0.2,0,0.4v10h-4.6V27.2z"/>
			<path class="st1" d="M189.8,35.8v-0.3c-0.2-4.6,3.5-8.5,8.1-8.7c0.2,0,0.5,0,0.7,0c4.6-0.3,8.5,3.2,8.8,7.8c0,0.3,0,0.5,0,0.8
				v0.2c0,4.9-3.9,8.8-8.8,8.9S189.8,40.6,189.8,35.8z M202.7,35.8v-0.2c0-3.2-1.5-5.1-4-5.1s-4,1.8-4,5.1v0.2c0,3.2,1.5,5.1,4,5.1
				S202.7,38.9,202.7,35.8L202.7,35.8z"/>
			<path class="st1" d="M210,27.2h4.6v3.2c0.9-2.2,3-3.6,5.4-3.5v4.3c-3.4,0-5.4,1.1-5.4,4.3V44H210V27.2z"/>
			<path class="st1" d="M221.3,35.8v-0.3c-0.2-4.6,3.3-8.5,7.9-8.7c0.3,0,0.5,0,0.8,0c4.3,0,8.2,2.5,8.2,8.5v1.3h-12
				c0.1,2.8,1.6,4.4,4.2,4.4c2.2,0,3.2-0.9,3.5-2.3h4.2c-0.5,3.6-3.4,5.6-8,5.6c-4.5,0.3-8.4-3.1-8.7-7.6
				C221.3,36.4,221.3,36.1,221.3,35.8z M233.6,33.8c-0.2-2.5-1.4-3.7-3.6-3.7c-2.1,0-3.9,1.6-3.9,3.7L233.6,33.8z"/>
		</g>
	</g>
</g>
</svg>
