<svg xmlns="http://www.w3.org/2000/svg" viewBox="0 0 600 1200"><title>H1</title><g id="Layer_2" data-name="Layer 2"><g id="Rectangle_2" data-name="Rectangle 2" style="isolation:isolate"><g id="Rectangle_2-2" data-name="Rectangle 2"><rect width="600" height="1200" fill="none"/></g></g><g id="Image_26" data-name="Image 26"><g id="Your_maximum_refund_guaranteed." data-name="Your  maximum  refund,  guaranteed."><path d="M59.44,331.92l-20.73-36.4H58.55L69.32,317l10.76-21.45H97.52l-19.75,36.4v27.24H59.44Z" fill="#fff"/><path d="M90.85,336.46v-.71c0-14.95,11.12-24.39,25.53-24.39s25.36,9.17,25.36,23.94V336c0,15.13-11.12,24.21-25.44,24.21S90.85,351.5,90.85,336.46Zm34.7-.27v-.71c0-7.83-3.12-12.19-9.17-12.19s-9.25,4.18-9.25,12V336c0,8,3.12,12.37,9.25,12.37C122.35,348.39,125.55,343.94,125.55,336.19Z" fill="#fff"/><path d="M147,343V312.61h15.93v27.77c0,5.25,2,7.83,6.58,7.83,4.8,0,7.92-2.85,7.92-8.81V312.61h15.93v46.55H177.42V352c-2.49,4.8-7,8.28-14.77,8.28C153.66,360.23,147,354.71,147,343Z" fill="#fff"/><path d="M201.44,312.61h15.93v9.25c2.93-6.94,7.83-10,15-9.88v14.87c-9.7-.27-15,2.76-15,10.23v22.08H201.44Z" fill="#fff"/><path d="M42.72,405.61H58.64v7.12a16.27,16.27,0,0,1,14.59-8.37c6.14,0,10.41,2.67,12.64,7.74a18.46,18.46,0,0,1,15.39-7.74c8.81,0,15.22,5.7,15.22,17.36v30.44H100.55V424.39c0-4.72-2.31-7-6-7-4.27,0-7.12,2.76-7.12,7.83v27H71.72V424.39c0-4.72-2.31-7-6-7-4.27,0-7.12,2.76-7.12,7.83v27H42.72Z" fill="#fff"/><path d="M121.54,439.25c0-10.95,9.26-15.22,24.74-15.22h4.45V423c0-4.45-1.07-7.38-6.14-7.38-4.36,0-6,2.58-6.32,5.51h-15c.72-11.21,9.52-16.73,22.25-16.73s21,5.25,21,17.62v30.18H151.08v-5.43c-2.22,3.38-6.31,6.5-13.79,6.5C128.93,453.23,121.54,449.13,121.54,439.25Zm29.19-3.38V433h-4.18c-6.41,0-9.26,1.25-9.26,5.07,0,2.67,1.78,4.37,5.52,4.37C147.35,442.46,150.73,439.87,150.73,435.87Z" fill="#fff"/><path d="M186.05,428.48l-14.5-22.87h18.32l7.21,12.28,7-12.28h16.37L205.8,427.24l16.1,24.92H203.58l-8.28-13.89-8.45,13.89H170.57Z" fill="#fff"/><path d="M226,393c0-4.72,3.73-8.28,8.71-8.28s8.81,3.56,8.81,8.28-3.82,8.19-8.81,8.19S226,397.69,226,393Zm.8,12.64h15.92v46.55H226.8Z" fill="#fff"/><path d="M251.26,405.61h15.93v7.12a16.26,16.26,0,0,1,14.59-8.37c6.14,0,10.41,2.67,12.64,7.74a18.46,18.46,0,0,1,15.39-7.74c8.81,0,15.21,5.7,15.21,17.36v30.44H309.1V424.39c0-4.72-2.32-7-6-7-4.27,0-7.11,2.76-7.11,7.83v27H280.27V424.39c0-4.72-2.31-7-6-7-4.27,0-7.12,2.76-7.12,7.83v27H251.26Z" fill="#fff"/><path d="M332.4,436V405.61h15.93v27.77c0,5.25,2.05,7.83,6.59,7.83,4.8,0,7.91-2.85,7.91-8.81V405.61h15.93v46.55H362.83V445c-2.49,4.8-7,8.28-14.77,8.28C339.08,453.23,332.4,447.71,332.4,436Z" fill="#fff"/><path d="M386.85,405.61h15.93v7.12a16.26,16.26,0,0,1,14.59-8.37c6.14,0,10.41,2.67,12.64,7.74a18.46,18.46,0,0,1,15.39-7.74c8.81,0,15.21,5.7,15.21,17.36v30.44H444.69V424.39c0-4.72-2.32-7-6-7-4.28,0-7.12,2.76-7.12,7.83v27H415.86V424.39c0-4.72-2.31-7-6-7-4.27,0-7.12,2.76-7.12,7.83v27H386.85Z" fill="#fff"/><path d="M42.72,498.61H58.64v9.25c2.94-6.94,7.83-10,15-9.88v14.87c-9.7-.27-15,2.76-15,10.23v22.08H42.72Z" fill="#fff"/><path d="M76.52,522.46v-.71c0-14.95,11.13-24.39,25.18-24.39,12.73,0,23.67,7.3,23.67,24v4.19H92.63c.44,6.14,4,9.7,9.7,9.7,5.25,0,7.47-2.41,8.09-5.52h15c-1.42,10.5-9.52,16.47-23.58,16.47C87.2,546.23,76.52,537.68,76.52,522.46Zm33.37-5.87c-.27-5.61-3-8.73-8.19-8.73-4.8,0-8.09,3.12-8.89,8.73Z" fill="#fff"/><path d="M133.29,509.47h-5.87V498.61h5.87v-4.1c0-11.57,7.21-17.09,18.24-17.09a28.51,28.51,0,0,1,7.29,1v11.66a14.8,14.8,0,0,0-4.36-.62c-3.73,0-5.33,2.05-5.33,5.07v4.1h9.43v10.86h-9.43v35.69H133.29Z" fill="#fff"/><path d="M163.54,529V498.61h15.92v27.77c0,5.25,2,7.83,6.59,7.83,4.8,0,7.92-2.85,7.92-8.81V498.61h15.92v46.55H194V538c-2.5,4.8-7,8.28-14.77,8.28C170.21,546.23,163.54,540.71,163.54,529Z" fill="#fff"/><path d="M218,498.61h15.92v7.47c2.49-4.8,7.57-8.72,15.31-8.72,9,0,15.21,5.61,15.21,17.54v30.26H248.5V518.1c0-5.25-2-7.83-6.67-7.83s-7.92,2.85-7.92,8.81v26.08H218Z" fill="#fff"/><path d="M269.86,522.37v-.71c0-15.84,8.72-24.3,19.75-24.3,7.29,0,11.65,3.12,14.32,7.83V478.14h15.93v67H303.93v-7.57a15.67,15.67,0,0,1-14.5,8.64C278.67,546.23,269.86,538.48,269.86,522.37Zm34.52-.27v-.71c0-7.83-3.29-12-9.17-12s-9.16,4-9.16,12.1v.71c0,7.84,3.47,11.84,9,11.84C300.82,534,304.38,530,304.38,522.1Z" fill="#fff"/><path d="M324.66,552.37,332.14,529l14.77,5.25L334.09,556Z" fill="#fff"/><path d="M40.14,638.16H56c.71,3.38,2.76,6.05,8.54,6.05,7,0,9.88-4,9.88-9.79V627.3A16.31,16.31,0,0,1,60,635.84c-10.86,0-19.76-8-19.76-22.34v-.71c0-13.71,8.81-22.43,19.76-22.43,7.38,0,11.74,3.12,14.41,7.83v-6.58H90.32v42.63c0,13.89-9.17,21.18-25.81,21.18C48.68,655.42,41.38,648.75,40.14,638.16Zm34.7-24.75v-.62c0-6.41-3.3-10.5-9.17-10.5s-9.16,4.18-9.16,10.59v.71c0,6.41,3.38,10.5,9.07,10.5S74.84,620,74.84,613.41Z" fill="#fff"/><path d="M98.06,622V591.61H114v27.77c0,5.25,2,7.83,6.59,7.83,4.8,0,7.91-2.85,7.91-8.81V591.61h15.93v46.55H128.48V631c-2.49,4.8-7,8.28-14.77,8.28C104.73,639.23,98.06,633.71,98.06,622Z" fill="#fff"/><path d="M149.84,625.25c0-11,9.25-15.22,24.73-15.22H179V609c0-4.45-1.07-7.38-6.14-7.38-4.36,0-6,2.58-6.32,5.51H151.61c.72-11.21,9.53-16.73,22.25-16.73s21,5.25,21,17.62v30.18H179.38v-5.43c-2.23,3.38-6.32,6.5-13.8,6.5C157.22,639.23,149.84,635.13,149.84,625.25ZM179,621.87V619h-4.18c-6.41,0-9.26,1.25-9.26,5.07,0,2.67,1.78,4.37,5.52,4.37C175.64,628.46,179,625.88,179,621.87Z" fill="#fff"/><path d="M202.59,591.61h15.93v9.25c2.94-6.94,7.83-10,15-9.88v14.87c-9.7-.27-15,2.76-15,10.23v22.08H202.59Z" fill="#fff"/><path d="M235.6,625.25c0-11,9.26-15.22,24.74-15.22h4.45V609c0-4.45-1.07-7.38-6.14-7.38-4.36,0-6,2.58-6.32,5.51h-15c.71-11.21,9.52-16.73,22.25-16.73s21,5.25,21,17.62v30.18H265.14v-5.43c-2.22,3.38-6.32,6.5-13.79,6.5C243,639.23,235.6,635.13,235.6,625.25Zm29.19-3.38V619H260.6c-6.4,0-9.25,1.25-9.25,5.07,0,2.67,1.78,4.37,5.52,4.37C261.4,628.46,264.79,625.88,264.79,621.87Z" fill="#fff"/><path d="M288.36,591.61h15.93v7.47c2.49-4.8,7.56-8.72,15.3-8.72,9,0,15.22,5.61,15.22,17.54v30.26H318.88V611.1c0-5.25-2.05-7.83-6.67-7.83s-7.92,2.85-7.92,8.81v26.08H288.36Z" fill="#fff"/><path d="M344.68,623.2V602.47h-5.61V591.61h5.61v-9.7h15.93v9.7h9.16v10.86h-9.16v19.22c0,3.38,1.69,4.9,4.71,4.9a12.21,12.21,0,0,0,4.54-.8v12.1a33.56,33.56,0,0,1-8.81,1.34C350.55,639.23,344.68,634.15,344.68,623.2Z" fill="#fff"/><path d="M373.33,615.46v-.71c0-15,11.12-24.39,25.18-24.39,12.72,0,23.66,7.3,23.66,24v4.19H389.43c.45,6.14,4,9.7,9.7,9.7,5.25,0,7.47-2.4,8.1-5.52h14.94c-1.42,10.5-9.52,16.47-23.57,16.47C384,639.23,373.33,630.68,373.33,615.46Zm33.36-5.87c-.26-5.61-3-8.73-8.18-8.73-4.81,0-8.1,3.12-8.9,8.73Z" fill="#fff"/><path d="M425.2,615.46v-.71c0-15,11.12-24.39,25.18-24.39,12.72,0,23.66,7.3,23.66,24v4.19H441.3c.45,6.14,4,9.7,9.7,9.7,5.25,0,7.47-2.4,8.1-5.52H474c-1.42,10.5-9.52,16.47-23.57,16.47C435.87,639.23,425.2,630.68,425.2,615.46Zm33.36-5.87c-.27-5.61-3-8.73-8.18-8.73-4.81,0-8.1,3.12-8.9,8.73Z" fill="#fff"/><path d="M477.25,615.37v-.71c0-15.84,8.71-24.3,19.75-24.3,7.29,0,11.65,3.12,14.32,7.83V571.14h15.93v67H511.32v-7.57a15.67,15.67,0,0,1-14.5,8.64C486.05,639.23,477.25,631.48,477.25,615.37Zm34.52-.26v-.72c0-7.83-3.3-12-9.17-12s-9.16,4-9.16,12.1v.71c0,7.84,3.47,11.84,9,11.84C508.21,627,511.77,623,511.77,615.11Z" fill="#fff"/><path d="M534.72,630.15a8.87,8.87,0,0,1,9.07-9,9,9,0,1,1,0,18A8.88,8.88,0,0,1,534.72,630.15Z" fill="#fff"/></g></g></g></svg>