<?xml version="1.0" encoding="utf-8"?>
<!-- Generator: Adobe Illustrator 23.1.1, SVG Export Plug-In . SVG Version: 6.00 Build 0)  -->
<svg version="1.1" id="Layer_1" xmlns="http://www.w3.org/2000/svg" xmlns:xlink="http://www.w3.org/1999/xlink" x="0px" y="0px"
	 viewBox="0 0 600 1200" style="enable-background:new 0 0 600 1200;" xml:space="preserve">
<style type="text/css">
	.st0{fill:none;}
	.st1{fill:#FFFFFF;}
</style>
<title>H5</title>
<g>
	<g id="Rect">
		<rect class="st0" width="600" height="1200"/>
	</g>
	<g id="H5">
		<g id="You_could_get_up_to_3_500_within_minutes_of_filing._0_interes">
			<path class="st1" d="M60.9,118.5L38.8,79.6H60l11.5,23l11.5-23h18.7l-21.1,38.9v29.1H60.9V118.5z"/>
			<path class="st1" d="M94.5,123.4v-0.8c0-16,12-26,27.3-26s27.1,9.8,27.1,25.6v0.8c0,16.2-12,25.9-27.2,25.9
				S94.5,139.5,94.5,123.4z M131.7,123.1v-0.8c0-8.4-3.3-13-9.8-13s-9.9,4.5-9.9,12.8v0.8c0,8.6,3.3,13.2,9.9,13.2
				C128.5,136.2,131.7,131.4,131.7,123.1z"/>
			<path class="st1" d="M154.6,130.4V97.9h17v29.7c0,5.6,2.2,8.4,7,8.4c5.2,0,8.5-3.1,8.5-9.4V97.9h17v49.8h-17V140
				c-2.7,5.1-7.5,8.8-15.8,8.8C161.8,148.8,154.6,142.9,154.6,130.4z"/>
			<path class="st1" d="M227.5,123.4v-0.8c0-16.6,12-26,26.6-26c12.2,0,23.4,5.3,24.4,20.5h-16c-0.8-4.7-3-7.2-8-7.2
				c-6,0-9.5,4.3-9.5,12.7v0.8c0,8.7,3.3,13.1,9.8,13.1c4.8,0,8-2.9,8.7-8.3h15.3c-0.5,12.6-8.9,20.7-25,20.7
				C238.9,148.8,227.5,140.2,227.5,123.4z"/>
			<path class="st1" d="M281.6,123.4v-0.8c0-16,11.9-26,27.3-26s27.1,9.7,27.1,25.5v0.8c0,16.2-11.9,25.9-27.2,25.9
				S281.6,139.5,281.6,123.4z M318.7,123.1v-0.8c0-8.4-3.3-13-9.8-13s-9.9,4.5-9.9,12.8v0.8c0,8.6,3.3,13.2,9.9,13.2
				S318.7,131.4,318.7,123.1z"/>
			<path class="st1" d="M341.7,130.4V97.9h17v29.7c0,5.6,2.2,8.4,7.1,8.4s8.5-3.1,8.5-9.4V97.9h17.1v49.8h-17.1V140
				c-2.7,5.1-7.5,8.8-15.8,8.8C348.8,148.8,341.7,142.9,341.7,130.4z"/>
			<path class="st1" d="M400.4,76h16.9v71.7h-16.9V76z"/>
			<path class="st1" d="M424,123.3v-0.8c0-16.9,9.3-26,21.1-26c7.8,0,12.5,3.3,15.3,8.4V76h17v71.7h-17v-8c-2.9,5.8-9,9.4-15.5,9.2
				C433.5,148.8,424,140.5,424,123.3z M461,123v-0.8c0-8.4-3.5-12.9-9.8-12.9s-9.8,4.3-9.8,13v0.8c0,8.4,3.7,12.7,9.6,12.7
				S461,131.5,461,123L461,123z"/>
			<path class="st1" d="M40.3,246.9h17c0.8,3.6,2.9,6.5,9.1,6.5c7.5,0,10.6-4.3,10.6-10.5v-7.6c-3.1,5.7-9,9.2-15.4,9.1
				c-11.6,0-21.1-8.6-21.1-24v-0.8c0-14.7,9.4-24,21.1-24c7.9,0,12.6,3.3,15.4,8.4v-6.9H94v45.6c0,14.8-9.8,22.7-27.6,22.7
				C49.4,265.4,41.6,258.2,40.3,246.9z M77.4,220.4v-0.7c0-6.8-3.5-11.2-9.8-11.2s-9.8,4.5-9.8,11.3v0.8c0,6.9,3.6,11.2,9.7,11.2
				S77.4,227.5,77.4,220.4z"/>
			<path class="st1" d="M100,222.6v-0.8c0-16,11.9-26,26.9-26c13.6,0,25.3,7.8,25.3,25.7v4.5h-35.1c0.5,6.6,4.3,10.4,10.4,10.4
				c5.6,0,8-2.6,8.7-6h16c-1.5,11.2-10.2,17.6-25.2,17.6C111.4,248,100,238.9,100,222.6z M135.7,216.3c-0.3-6-3.2-9.3-8.8-9.3
				c-5.1,0-8.7,3.3-9.5,9.3H135.7z"/>
			<path class="st1" d="M160.4,230.9v-22.2h-6v-11.6h6v-10.4h17v10.4h9.8v11.6h-9.8v20.6c0,3.6,1.8,5.2,5.1,5.2
				c1.7,0,3.3-0.3,4.9-0.9v13c-3.1,0.9-6.2,1.3-9.4,1.4C166.7,248,160.4,242.6,160.4,230.9z"/>
			<path class="st1" d="M210.7,229.6v-32.5h17v29.7c0,5.6,2.2,8.4,7,8.4s8.5-3.1,8.5-9.4v-28.7h17v49.8h-17v-7.7
				c-2.7,5.1-7.5,8.8-15.8,8.8C217.8,248,210.7,242.1,210.7,229.6z"/>
			<path class="st1" d="M269,197.1h17v7.4c3.2-5.5,9.1-8.9,15.5-8.8c11.6,0,21,8.8,21,25.8v0.8c0,17.1-9.4,25.7-21.1,25.7
				c-7.5,0-12.9-3.5-15.4-8.5v24h-17L269,197.1z M305.2,222.3v-0.8c0-8.8-3.8-13-9.8-13s-10,4.5-10,12.9v0.8c0,8.5,3.7,12.8,10,12.8
				S305.2,230.5,305.2,222.3z"/>
			<path class="st1" d="M348.3,230.9v-22.2h-6v-11.6h6v-10.4h17.1v10.4h9.8v11.6h-9.8v20.6c0,3.6,1.8,5.2,5,5.2
				c1.7,0,3.3-0.3,4.9-0.9v13c-3.1,0.9-6.2,1.4-9.4,1.4C354.6,248,348.3,242.6,348.3,230.9z"/>
			<path class="st1" d="M379,222.6v-0.8c0-16,11.9-26,27.3-26s27.1,9.8,27.1,25.6v0.8c0,16.2-11.9,26-27.2,26S379,238.7,379,222.6z
				 M416.1,222.3v-0.8c0-8.4-3.3-13-9.8-13s-9.9,4.5-9.9,12.8v0.8c0,8.6,3.3,13.2,9.9,13.2S416.1,230.6,416.1,222.3z"/>
			<path class="st1" d="M54,314.9c-9.6-0.7-14.3-5.8-14.6-13.1h10.2c0,2.6,1.9,4.8,4.4,5.2V299c-9.7-1.4-13.8-4.9-13.8-12.6
				c0-6.7,5.3-11.5,13.8-12.1v-4.9h4.3v5c8,0.7,12.8,4.4,13.5,12h-10c0-2.1-1.5-3.8-3.5-4.2v7.7c8.5,1.2,14,4,14,12.2
				c0,6.8-4.4,12.4-14,13v6.9H54V314.9z M54,289.1V282c-2.5,0.4-3.8,1.8-3.8,3.6S51,288.5,54,289.1L54,289.1z M58.3,299.7v7.4
				c2.1-0.1,3.7-1.9,3.7-4C62,301.3,61.3,300.3,58.3,299.7L58.3,299.7z"/>
			<path class="st1" d="M75.7,323.7h17.3c0.6,5.6,3.2,9.4,10,9.4c6,0,9-2.9,9-7.7c0-5.3-2.9-8-9-8h-5.4v-12h5c6,0,9.1-2.8,9.1-7.5
				c0-4-2.7-6.8-7.8-6.8s-8.3,3.1-9,8.7H77.6c0.9-13.4,9.8-22.7,26.8-22.7c16,0,25.6,7.3,25.6,18.7c0,7.6-4.4,12.6-11.5,14.7
				c7.8,1.6,13.2,7.1,13.2,15.4c0,13-9.6,21.4-27.6,21.4C85.2,347.2,76.3,338.5,75.7,323.7z"/>
			<path class="st1" d="M133.3,353.8l8-25l15.8,5.6l-13.7,23.3L133.3,353.8z"/>
			<path class="st1" d="M160.3,324.7H178c0.7,4.8,2.6,7.9,8.8,7.9c5.6,0,8.2-4.2,8.2-9.6c0-6-3.3-9.7-9.2-9.7
				c-4.3-0.2-8.4,1.6-11.2,4.9h-11.6l1.4-40.1h45.9v14.3h-31.8l-0.5,15.1c2.6-3.7,7.4-7.2,15.9-7.2c12.5,0,20.7,8.4,20.7,23.1
				c0,14.5-10.4,24-27.6,24C168.9,347.2,160.8,337.4,160.3,324.7z"/>
			<path class="st1" d="M219.4,313.5v-2.9c0-21.5,13.4-33.6,31.4-33.6s31.4,11.1,31.4,33.2v2.7c0,21.6-12.4,34.3-31.8,34.3
				C231.4,347.2,219.4,334.9,219.4,313.5z M262.7,313.3v-2.8c0-12.5-3.6-18.7-12-18.7s-12,6.2-12,18.7v2.9
				c0,12.7,3.7,18.7,12.1,18.7S262.7,326,262.7,313.3z"/>
			<path class="st1" d="M287.7,313.5v-2.9c0-21.5,13.4-33.6,31.4-33.6s31.4,11.1,31.4,33.2v2.7c0,21.6-12.4,34.3-31.8,34.3
				C299.7,347.2,287.7,334.9,287.7,313.5z M331,313.3v-2.8c0-12.5-3.6-18.7-12-18.7s-11.9,6.2-11.9,18.7v2.9
				c0,12.7,3.7,18.7,12,18.7S331,326,331,313.3z"/>
			<path class="st1" d="M38.9,395.5h17.8l7.3,29.8l8.4-29.8H86l7.4,29.8l8-29.8h16.2l-15.8,49.8H85.6l-7.4-27.8l-7.7,27.8H54
				L38.9,395.5z"/>
			<path class="st1" d="M121.7,382c-0.4-5.2,3.6-9.7,8.7-10c5.2-0.4,9.7,3.6,10,8.7c0.4,5.2-3.6,9.7-8.7,10c-0.2,0-0.5,0-0.7,0
				c-4.9,0.2-9.1-3.5-9.3-8.4C121.7,382.2,121.7,382.1,121.7,382z M122.5,395.5h17v49.8h-17V395.5z"/>
			<path class="st1" d="M151,429.3v-22.2h-6v-11.6h6v-10.4h17v10.4h9.8v11.6H168v20.6c0,3.6,1.8,5.2,5.1,5.2c1.7,0,3.4-0.3,4.9-0.9
				v13c-3.1,0.9-6.2,1.4-9.4,1.4C157.3,446.4,151,441,151,429.3z"/>
			<path class="st1" d="M184.3,373.6h17v30c3.2-6,9.6-9.6,16.4-9.3c9.6,0,16.3,6,16.3,18.8v32.4h-17v-29c0-5.6-2.2-8.4-7.1-8.4
				s-8.5,3-8.5,9.4v27.9h-17V373.6z"/>
			<path class="st1" d="M242,382c0-4.9,4-8.9,8.9-8.9c0.1,0,0.3,0,0.4,0c4.9-0.3,9.1,3.3,9.4,8.2s-3.3,9.1-8.2,9.4
				c-0.4,0-0.8,0-1.2,0c-4.9,0.3-9-3.4-9.3-8.3C242,382.3,242,382.2,242,382z M242.9,395.5h17v49.8h-17L242.9,395.5z"/>
			<path class="st1" d="M269,395.5h17v8c3.2-6,9.6-9.7,16.4-9.3c9.6,0,16.3,6,16.3,18.8v32.4h-17v-28.9c0-5.6-2.2-8.4-7.1-8.4
				s-8.5,3-8.5,9.4v27.9h-17V395.5z"/>
			<path class="st1" d="M43,494.7h17v7.6c3.1-5.6,9.2-9.1,15.6-8.9c6.6,0,11.1,2.9,13.5,8.3c3.8-5.3,10-8.4,16.5-8.3
				c9.4,0,16.3,6,16.3,18.6v32.6h-17v-29.7c0-5-2.5-7.5-6.4-7.5c-4.6,0-7.6,2.9-7.6,8.4v28.8H74v-29.7c0-5-2.5-7.5-6.4-7.5
				c-4.6,0-7.6,2.9-7.6,8.4v28.8H43V494.7z"/>
			<path class="st1" d="M129.9,481.2c-0.3-5.2,3.6-9.6,8.8-9.9c5.2-0.3,9.6,3.6,9.9,8.8c0.3,5.2-3.6,9.6-8.8,9.9c-0.2,0-0.4,0-0.6,0
				c-4.9,0.2-9.1-3.5-9.3-8.4C129.9,481.4,129.9,481.3,129.9,481.2z M130.7,494.7h17v49.8h-17V494.7z"/>
			<path class="st1" d="M156.9,494.7H174v8c3.2-6,9.6-9.6,16.4-9.3c9.6,0,16.3,6,16.3,18.8v32.4h-17.1v-28.9c0-5.6-2.2-8.4-7.1-8.4
				s-8.4,3-8.4,9.4v27.9h-17.1V494.7z"/>
			<path class="st1" d="M214.5,527.2v-32.5h17v29.7c0,5.6,2.2,8.4,7,8.4c5.2,0,8.5-3.1,8.5-9.4v-28.7h17v49.8h-17v-7.7
				c-2.7,5.1-7.5,8.8-15.8,8.8C221.6,545.6,214.5,539.7,214.5,527.2z"/>
			<path class="st1" d="M275,528.5v-22.2h-6v-11.6h6v-10.4h17v10.4h10v11.6h-10v20.6c-0.4,2.5,1.3,4.8,3.8,5.2
				c0.4,0.1,0.9,0.1,1.3,0c1.7,0,3.3-0.3,4.9-0.9v13c-3.1,0.9-6.2,1.4-9.4,1.4C281.3,545.6,275,540.2,275,528.5z"/>
			<path class="st1" d="M305.7,520.2v-0.8c0-16,12-26,26.9-26c13.6,0,25.3,7.8,25.3,25.7v4.5h-35c0.5,6.6,4.3,10.4,10.4,10.4
				c5.6,0,8-2.6,8.7-5.9h16c-1.5,11.2-10.2,17.6-25.2,17.6C317.1,545.6,305.7,536.5,305.7,520.2z M341.4,514c-0.3-6-3.2-9.3-8.8-9.3
				c-5.1,0-8.7,3.3-9.5,9.3H341.4z"/>
			<path class="st1" d="M361,528.7h15.7c0.6,3.6,2.2,5.6,7,5.6c4.2,0,6.1-1.6,6.1-4s-2.4-3.5-9.2-4.5c-13.3-1.7-18.9-5.6-18.9-16
				c0-11.1,9.8-16.4,21.3-16.4c12.3,0,20.9,4.2,22,16h-15.4c-0.7-3.3-2.5-4.9-6.4-4.9s-5.6,1.6-5.6,3.9s2.3,3.3,8.4,4.1
				c13.8,1.7,20.5,5.3,20.5,16c0,11.8-8.8,17.1-22.6,17.1C369.7,545.6,361.4,539.7,361,528.7z"/>
			<path class="st1" d="M426.6,520.2v-0.8c0-16,11.9-26,27.3-26s27.1,9.8,27.1,25.6v0.8c0,16.2-11.9,25.9-27.2,25.9
				S426.6,536.3,426.6,520.2z M463.7,519.9v-0.8c0-8.4-3.3-13-9.8-13s-10,4.5-10,12.8v0.8c0,8.6,3.3,13.2,10,13.2
				S463.7,528.2,463.7,519.9L463.7,519.9z"/>
			<path class="st1" d="M489.6,506.3h-6.3v-11.6h6.3v-4.4c0-12.4,7.7-18.3,19.5-18.3c2.6,0,5.3,0.4,7.8,1.1v12.5
				c-1.5-0.5-3.1-0.7-4.7-0.7c-4,0-5.7,2.2-5.7,5.4v4.4h10v11.6h-10v38.2h-17L489.6,506.3z"/>
			<path class="st1" d="M45.6,605.5h-6.3v-11.6h6.3v-4.4c0-12.4,7.7-18.3,19.5-18.3c2.6,0,5.3,0.4,7.8,1.1v12.5
				c-1.5-0.5-3.1-0.7-4.7-0.7c-4,0-5.7,2.2-5.7,5.4v4.4h10v11.6h-10v38.2H45.6V605.5z"/>
			<path class="st1" d="M78,580.4c0-4.9,4-8.9,8.9-8.9c0.1,0,0.3,0,0.4,0c4.9-0.3,9.1,3.3,9.4,8.2s-3.3,9.1-8.2,9.4
				c-0.4,0-0.8,0-1.2,0c-4.9,0.3-9-3.4-9.3-8.3C78,580.7,78,580.5,78,580.4z M78.9,593.9h17v49.8H78.8L78.9,593.9z"/>
			<path class="st1" d="M105.5,572h16.9v71.7h-16.9V572z"/>
			<path class="st1" d="M131.2,580.4c-0.4-5.2,3.6-9.7,8.7-10c5.2-0.4,9.7,3.6,10,8.7c0.4,5.2-3.6,9.7-8.7,10c-0.2,0-0.5,0-0.7,0
				c-4.9,0.2-9.1-3.5-9.3-8.4C131.2,580.6,131.2,580.5,131.2,580.4z M132.1,593.9h17v49.8H132L132.1,593.9z"/>
			<path class="st1" d="M158.2,593.9h17v8c3.2-6,9.6-9.6,16.4-9.3c9.6,0,16.3,6,16.3,18.8v32.4h-17v-28.9c0-5.6-2.2-8.4-7.1-8.4
				s-8.5,3-8.5,9.4v27.9h-17V593.9z"/>
			<path class="st1" d="M213.5,643.7h16.9c0.8,3.6,3,6.5,9.1,6.5c7.5,0,10.6-4.3,10.6-10.5V632c-3.1,5.7-9,9.2-15.4,9.1
				c-11.6,0-21.1-8.6-21.1-23.9v-0.8c0-14.7,9.4-24,21.1-24c8,0,12.6,3.3,15.4,8.4v-7.1h17.1v45.6c0,14.8-9.8,22.7-27.6,22.7
				C222.6,662.2,214.8,655,213.5,643.7z M250.6,617.2v-0.7c0-6.8-3.5-11.2-9.8-11.2s-9.8,4.5-9.8,11.3v0.8c0,6.9,3.6,11.2,9.7,11.2
				S250.6,624.3,250.6,617.2z"/>
			<path class="st1" d="M275.1,635.1c-0.1-5.2,4.1-9.6,9.4-9.6c0.1,0,0.2,0,0.3,0c5.3,0,9.6,4.3,9.6,9.6s-4.3,9.6-9.6,9.6
				c0,0,0,0,0,0c-5.2,0.1-9.6-4-9.7-9.3C275.1,635.3,275.1,635.2,275.1,635.1z"/>
			<path class="st1" d="M41.4,710.3v-2.9c0-21.5,13.4-33.6,31.4-33.6s31.4,11.1,31.4,33.2v2.7c0,21.6-12.4,34.3-31.8,34.3
				C53.4,744,41.4,731.7,41.4,710.3z M84.8,710.1v-2.8c0-12.5-3.6-18.7-12-18.7s-12,6.2-12,18.7v2.9c0,12.7,3.7,18.7,12.1,18.7
				S84.8,722.7,84.8,710.1z"/>
			<path class="st1" d="M108,691c0-9.6,7.7-17,18-17s18,7,18,16.7s-7,17.5-18.1,17.5S108,700.8,108,691z M164,674.8h9.3l-47.2,68
				h-9.3L164,674.8z M131.4,691c0-4.5-2-7.2-5.4-7.2s-5.6,2.7-5.6,7.1s2.1,7.4,5.6,7.4S131.5,695.5,131.4,691L131.4,691z
				 M145.8,726.8c0-9.7,7.8-17,18-17s18,6.9,18,16.7s-7.1,17.5-18,17.5S145.9,736.6,145.8,726.8L145.8,726.8z M169.4,726.8
				c0-4.4-1.9-7.1-5.5-7.1s-5.5,2.7-5.5,7.1s2.2,7.2,5.6,7.2S169.5,731.3,169.4,726.8L169.4,726.8z"/>
			<path class="st1" d="M204.9,679.6c-0.4-5.2,3.6-9.7,8.7-10c5.2-0.4,9.7,3.6,10,8.7c0.4,5.2-3.6,9.7-8.7,10c-0.2,0-0.5,0-0.7,0
				c-4.9,0.2-9.1-3.5-9.3-8.4C204.9,679.8,204.9,679.7,204.9,679.6z M205.7,693.1h17v49.8h-17L205.7,693.1z"/>
			<path class="st1" d="M232,693.1h17v8c3.2-6,9.6-9.6,16.4-9.3c9.6,0,16.3,6,16.3,18.8v32.4h-17V714c0-5.6-2.2-8.4-7.1-8.4
				s-8.5,3-8.5,9.4v27.9h-17V693.1z"/>
			<path class="st1" d="M292.2,726.9v-22.2h-6v-11.6h6v-10.4h17v10.4h9.8v11.6h-9.8v20.6c0,3.6,1.8,5.2,5.1,5.2
				c1.7,0,3.3-0.3,4.8-0.8v12.9c-3.1,0.9-6.2,1.4-9.4,1.4C298.5,744,292.2,738.6,292.2,726.9z"/>
			<path class="st1" d="M322.8,718.6v-0.8c0-16,12-26,26.9-26c13.6,0,25.3,7.8,25.3,25.7v4.5H340c0.5,6.6,4.3,10.4,10.4,10.4
				c5.6,0,8-2.6,8.7-6h16c-1.5,11.2-10.2,17.6-25.2,17.6C334.3,744,322.8,734.9,322.8,718.6z M358.5,712.3c-0.3-6-3.2-9.3-8.8-9.3
				c-5.1,0-8.7,3.3-9.5,9.3H358.5z"/>
			<path class="st1" d="M381,693.1h17v10c2.3-6.8,8.9-11.1,16-10.6v16c-10.4-0.3-16,3-16,11v23.6h-17V693.1z"/>
			<path class="st1" d="M417.2,718.6v-0.8c0-16,11.9-26,26.9-26c13.6,0,25.3,7.8,25.3,25.7v4.5h-35c0.5,6.6,4.3,10.4,10.4,10.4
				c5.6,0,8-2.6,8.7-6h16c-1.5,11.2-10.2,17.6-25.2,17.6C428.6,744,417.2,734.9,417.2,718.6z M452.9,712.3c-0.3-6-3.2-9.3-8.8-9.3
				c-5.1,0-8.7,3.3-9.5,9.3H452.9z"/>
			<path class="st1" d="M472.5,727.1h15.7c0.6,3.6,2.2,5.6,7,5.6c4.2,0,6-1.6,6-4.1s-2.4-3.5-9.2-4.5c-13.3-1.7-18.9-5.6-18.9-16
				c0-11.1,9.8-16.4,21.3-16.4c12.3,0,20.9,4.2,22,16H501c-0.7-3.3-2.5-4.9-6.4-4.9s-5.6,1.6-5.6,3.9s2.3,3.3,8.4,4.1
				c13.8,1.7,20.5,5.3,20.5,16c0,11.8-8.8,17.1-22.6,17.1C481.2,744,472.9,738.1,472.5,727.1z"/>
			<path class="st1" d="M525.7,726.9v-22.2h-6v-11.6h6v-10.4h17.1v10.4h9.8v11.6h-9.8v20.6c0,3.6,1.8,5.2,5,5.2
				c1.7,0,3.3-0.3,4.9-0.8v12.9c-3.1,0.9-6.2,1.4-9.4,1.4C532,744,525.7,738.6,525.7,726.9z"/>
			<path class="st1" d="M43.5,770.4h17V842h-17V770.4z"/>
			<path class="st1" d="M66.9,817.8V817c0-16,12-26,27.3-26s27.1,9.8,27.1,25.6v0.8c0,16.2-12,25.9-27.2,25.9S66.9,834,66.9,817.8z
				 M104,817.5v-0.8c0-8.4-3.3-13-9.8-13s-10,4.5-10,12.8v0.8c0,8.6,3.3,13.2,10,13.2S104,825.8,104,817.5z"/>
			<path class="st1" d="M124.5,828.3c0-11.7,9.9-16.3,26.5-16.3h4.8v-1.1c0-4.8-1.1-7.9-6.6-7.9c-3.4-0.4-6.4,2.1-6.7,5.4
				c0,0.2,0,0.3,0,0.5h-16c0.8-12,10.2-17.9,23.8-17.9s22.5,5.6,22.5,18.8V842h-16.6v-5.8c-2.4,3.6-6.8,6.9-14.8,6.9
				C132.4,843.2,124.5,838.8,124.5,828.3z M155.8,824.7v-3h-4.5c-6.9,0-10,1.3-10,5.4c0,2.9,2,4.7,6,4.7
				C152.1,831.7,155.8,828.9,155.8,824.7L155.8,824.7z"/>
			<path class="st1" d="M181,792.3h17v8c3.2-6,9.6-9.7,16.4-9.3c9.6,0,16.3,6,16.3,18.8V842h-17.1v-28.9c0-5.6-2.2-8.4-7.1-8.4
				s-8.5,3-8.5,9.4v28h-17V792.3z"/>
			<path class="st1" d="M238.3,833.5c0-5.2,4.2-9.5,9.5-9.5c0.1,0,0.1,0,0.2,0c5.3,0,9.6,4.3,9.6,9.6s-4.3,9.6-9.6,9.6c0,0,0,0,0,0
				c-5.2,0.1-9.6-4-9.7-9.3C238.3,833.8,238.3,833.7,238.3,833.5z"/>
		</g>
	</g>
	<g id="Legal">
		<g id="Optional_loan_from_Axos_Bank_within_minutes_of_filing._Not_your">
			<path class="st1" d="M41,930v-0.2c-0.2-3.5,2.5-6.5,6-6.7s6.5,2.5,6.7,6c0,0.2,0,0.5,0,0.7v0.1c0.2,3.5-2.5,6.5-6,6.7
				s-6.5-2.5-6.7-6C41,930.5,41,930.2,41,930L41,930z M52,930v-0.1c0.3-2.6-1.6-4.9-4.2-5.2c-0.1,0-0.3,0-0.4,0
				c-2.6,0-4.7,2-4.7,4.6c0,0.2,0,0.4,0,0.6v0.2c-0.2,2.7,1.8,5,4.4,5.2c0.1,0,0.2,0,0.3,0c2.6,0,4.7-2.1,4.7-4.7
				c0-0.2,0-0.5-0.1-0.7V930z"/>
			<path class="st1" d="M55.8,926.8h1.5v1.6c0.7-1.1,1.9-1.7,3.2-1.8c2.4,0,4.3,1.9,4.3,4.3c0,0.2,0,0.3,0,0.5v0.1
				c0.3,2.4-1.4,4.5-3.8,4.8c-0.2,0-0.3,0-0.5,0c-1.3,0.1-2.5-0.6-3.2-1.7v4.8h-1.5L55.8,926.8z M63.3,931.6v-0.1
				c0-2.4-1.3-3.6-2.9-3.6s-3.1,1.1-3.1,3.6v0.1c0,2.4,1.3,3.5,3.1,3.5S63.3,934,63.3,931.6L63.3,931.6z"/>
			<path class="st1" d="M67.2,933.9V928h-1.3v-1.2h1.3v-2.2h1.5v2.2h2.2v1.2h-2.2v5.7c0,0.9,0.4,1.4,1.2,1.4c0.4,0,0.8-0.1,1.2-0.2
				v1.3c-0.4,0.1-0.8,0.2-1.3,0.2c-1.3,0.1-2.4-0.8-2.5-2C67.2,934.1,67.2,934,67.2,933.9z"/>
			<path class="st1" d="M72.7,923.9c0-0.5,0.5-1,1-1c0.5,0,1,0.5,1,1c0,0.5-0.4,1-1,1C73.2,924.9,72.8,924.4,72.7,923.9z M73,926.8
				h1.5v9.4H73V926.8z"/>
			<path class="st1" d="M76.6,931.6v-0.1c0-2.6,2.1-4.6,4.6-4.6c2.6,0,4.6,2.1,4.6,4.6c0,0,0,0,0,0v0.1c0,2.6-2.1,4.6-4.6,4.6
				C78.7,936.2,76.6,934.2,76.6,931.6C76.6,931.6,76.6,931.6,76.6,931.6z M84.3,931.6v-0.1c0-2.2-1.2-3.6-3.1-3.6
				c-1.7,0-3.1,1.4-3.1,3.1c0,0.1,0,0.3,0,0.4v0.1c-0.2,1.7,1,3.2,2.7,3.4c1.7,0.2,3.2-1,3.4-2.7C84.3,932.1,84.3,931.9,84.3,931.6z
				"/>
			<path class="st1" d="M88,926.8h1.5v1.5c0.6-1.1,1.8-1.7,3-1.7c2,0,3.3,1.1,3.3,3.8v5.8h-1.5v-5.9c0-1.7-0.7-2.4-2.2-2.4
				c-1.4-0.1-2.5,1-2.6,2.3c0,0.1,0,0.2,0,0.2v5.7H88V926.8z"/>
			<path class="st1" d="M97.6,933.6c0-2.2,2.3-2.9,4.7-2.9h1.3V930c0-1.5-0.6-2.1-2-2.1s-2,0.5-2.2,1.7H98c0.2-1.8,1.8-3.1,3.6-3
				c0,0,0.1,0,0.1,0c1.7-0.2,3.2,0.9,3.5,2.6c0,0.3,0,0.5,0,0.8v6.2h-1.5V935c-0.7,0.9-1.8,1.4-2.9,1.3
				C99,936.4,97.6,935.6,97.6,933.6z M103.6,933v-1.2h-1.3c-1.9,0-3.3,0.5-3.3,1.9c0,1,0.5,1.6,1.8,1.6S103.7,934.4,103.6,933
				L103.6,933z"/>
			<path class="st1" d="M107.9,922.3h1.5v14h-1.5V922.3z"/>
			<path class="st1" d="M116.7,922.3h1.5v14h-1.5V922.3z"/>
			<path class="st1" d="M120.3,931.6v-0.1c-0.2-2.6,1.8-4.8,4.3-4.9c2.6-0.2,4.8,1.8,4.9,4.3c0,0.2,0,0.4,0,0.6v0.1
				c0.2,2.6-1.8,4.8-4.3,4.9c-2.6,0.2-4.8-1.8-4.9-4.3C120.3,932,120.3,931.8,120.3,931.6z M128,931.6v-0.1c0-2.2-1.2-3.6-3.1-3.6
				c-1.7,0-3.1,1.4-3.1,3.1c0,0.1,0,0.3,0,0.4v0.1c-0.2,1.7,1,3.2,2.7,3.4c1.7,0.2,3.2-1,3.4-2.7C128,932.1,128,931.9,128,931.6z"/>
			<path class="st1" d="M130.8,933.6c0-2.2,2.3-2.9,4.7-2.9h1.4V930c0-1.5-0.6-2.1-2-2.1s-2,0.5-2.2,1.7h-1.5c0.2-1.8,1.8-3.1,3.6-3
				c0,0,0.1,0,0.1,0c1.7-0.2,3.2,0.9,3.4,2.6c0,0.3,0,0.5,0,0.8v6.2h-1.5V935c-0.7,0.9-1.8,1.4-2.9,1.3
				C132.2,936.4,130.8,935.6,130.8,933.6z M136.8,933v-1.2h-1.3c-2,0-3.3,0.5-3.3,1.9c0,1,0.5,1.6,1.8,1.6S136.9,934.4,136.8,933
				L136.8,933z"/>
			<path class="st1" d="M141.1,926.8h1.5v1.5c0.6-1.1,1.8-1.7,3-1.7c2,0,3.3,1.1,3.3,3.8v5.8h-1.5v-5.9c0-1.7-0.7-2.4-2.2-2.4
				c-1.4-0.1-2.5,0.9-2.6,2.3c0,0.1,0,0.2,0,0.3v5.7h-1.5V926.8z"/>
			<path class="st1" d="M156.4,928H155v-1.2h1.3v-1.5c0-1.9,0.9-3,2.8-3c0.4,0,0.8,0,1.1,0.2v1.3c-0.3-0.1-0.7-0.2-1.1-0.2
				c-1,0-1.4,0.7-1.4,1.6v1.7h2.3v1.2h-2.3v8.2h-1.5V928z"/>
			<path class="st1" d="M162,926.8h1.5v1.7c0.6-1.2,1.8-1.9,3.1-1.9v1.3c-2,0-3.1,0.7-3.1,3v5.2H162V926.8z"/>
			<path class="st1" d="M167.5,931.6v-0.1c-0.2-2.6,1.8-4.8,4.3-4.9c2.6-0.2,4.8,1.8,4.9,4.3c0,0.2,0,0.4,0,0.6v0.1
				c0.2,2.6-1.8,4.8-4.3,4.9c-2.6,0.2-4.8-1.8-4.9-4.3C167.5,932,167.5,931.8,167.5,931.6z M175.3,931.6v-0.1c0-2.2-1.2-3.6-3.1-3.6
				s-3.1,1.4-3.1,3.6v0.1c0,2.1,1.2,3.5,3.1,3.5c1.7,0,3.1-1.4,3.1-3.2C175.3,931.9,175.3,931.7,175.3,931.6z"/>
			<path class="st1" d="M178.9,926.8h1.5v1.4c0.6-1,1.7-1.6,2.8-1.6c1.2-0.1,2.3,0.6,2.7,1.8c0.7-1.1,1.9-1.8,3.2-1.8
				c1.7,0,3.2,1,3.2,3.8v5.8h-1.5v-6c0-1.7-0.7-2.3-2-2.3c-1.3,0-2.4,1-2.5,2.4c0,0.1,0,0.1,0,0.2v5.8h-1.5v-6c0-1.7-0.7-2.3-2-2.3
				c-1.3,0-2.5,1-2.5,2.3c0,0.1,0,0.1,0,0.2v5.8h-1.5L178.9,926.8z"/>
			<path class="st1" d="M203,923.4h2l4.4,12.9h-1.6l-1.3-3.7h-5.3l-1.2,3.7h-1.4L203,923.4z M201.7,931.4h4.5l-2.2-6.7L201.7,931.4z
				"/>
			<path class="st1" d="M213.7,931.4l-3.1-4.6h1.7l2.3,3.4l2.3-3.4h1.6l-3.1,4.5l3.4,4.9H217l-2.5-3.8l-2.6,3.8h-1.6L213.7,931.4z"
				/>
			<path class="st1" d="M219.4,931.6v-0.1c-0.2-2.6,1.8-4.8,4.3-4.9c2.6-0.2,4.8,1.8,4.9,4.3c0,0.2,0,0.4,0,0.6v0.1
				c0.2,2.6-1.8,4.8-4.3,4.9c-2.6,0.2-4.8-1.8-4.9-4.3C219.4,932,219.4,931.8,219.4,931.6z M227.1,931.6v-0.1c0-2.2-1.2-3.6-3.1-3.6
				s-3.1,1.4-3.1,3.6v0.1c0,2.1,1.2,3.5,3.1,3.5c1.7,0,3.1-1.4,3.1-3.2C227.1,931.9,227.1,931.7,227.1,931.6z"/>
			<path class="st1" d="M230,933.3h1.5c0,1.1,0.7,1.8,2.2,1.8s2-0.5,2-1.5s-0.7-1.3-2.2-1.6c-2.4-0.4-3.3-1.1-3.3-2.8
				c0.1-1.6,1.6-2.8,3.2-2.7c0,0,0,0,0,0c1.7-0.2,3.2,0.9,3.4,2.6c0,0,0,0.1,0,0.1h-1.4c-0.2-1-0.8-1.5-2-1.5s-1.8,0.5-1.8,1.3
				s0.5,1.2,2.2,1.5s3.3,0.8,3.3,2.8s-1.2,2.9-3.5,2.9S230,935.3,230,933.3z"/>
			<path class="st1" d="M243.7,923.4h3.9c2.4,0,4.1,0.8,4.1,3.3l0,0c0.1,1.3-0.8,2.4-2,2.7c1.6,0.1,2.7,1.5,2.6,3.1c0,0,0,0,0,0l0,0
				c0,2.4-1.6,3.6-4.2,3.6h-4.4L243.7,923.4z M247.6,929c1.9,0,2.6-0.7,2.6-2.3l0,0c0-1.4-0.8-2-2.6-2h-2.3v4.4L247.6,929z
				 M248.1,935c1.9,0,2.7-0.8,2.7-2.4l0,0c0-1.6-0.9-2.3-3-2.3h-2.6v4.8L248.1,935z"/>
			<path class="st1" d="M253.7,933.6c0-2.2,2.3-2.9,4.7-2.9h1.4V930c0-1.5-0.6-2.1-2-2.1s-2,0.5-2.2,1.7h-1.5c0.2-1.8,1.8-3.1,3.7-3
				c0,0,0.1,0,0.1,0c1.7-0.2,3.2,0.9,3.4,2.6c0,0.3,0,0.5,0,0.8v6.2h-1.5V935c-0.7,0.9-1.8,1.4-2.9,1.3
				C255.1,936.4,253.7,935.6,253.7,933.6z M259.7,933v-1.2h-1.3c-1.9,0-3.3,0.5-3.3,1.9c0,1,0.5,1.6,1.8,1.6
				C258.6,935.2,259.8,934.4,259.7,933L259.7,933z"/>
			<path class="st1" d="M264,926.8h1.5v1.5c0.6-1.1,1.8-1.7,3-1.7c2,0,3.3,1.1,3.3,3.8v5.8h-1.5v-5.9c0-1.7-0.7-2.4-2.2-2.4
				c-1.4-0.1-2.5,0.9-2.6,2.3c0,0.1,0,0.2,0,0.3v5.7H264V926.8z"/>
			<path class="st1" d="M274.4,922.3h1.6v8.8l3.9-4.3h1.8l-4,4.4l4.4,5h-1.8l-4.2-4.9v4.9h-1.5L274.4,922.3z"/>
			<path class="st1" d="M287,926.8h1.6l2.2,7.6l2.3-7.6h1.3l2.1,7.6l2.2-7.6h1.5l-2.9,9.4h-1.7l-2-7.1l-2.2,7.1h-1.6L287,926.8z"/>
			<path class="st1" d="M301.8,923.9c0-0.5,0.4-1,1-1c0.5,0,1,0.5,1,1c0,0.5-0.5,1-1,1C302.2,924.9,301.8,924.4,301.8,923.9z
				 M302,926.8h1.5v9.4H302L302,926.8z"/>
			<path class="st1" d="M306.6,933.9V928h-1.4v-1.2h1.4v-2.2h1.5v2.2h2.2v1.2h-2.2v5.7c0,0.9,0.4,1.4,1.2,1.4c0.4,0,0.8-0.1,1.1-0.2
				v1.3c-0.4,0.1-0.8,0.2-1.3,0.2c-1.3,0.1-2.4-0.8-2.5-2C306.6,934.1,306.6,934,306.6,933.9z"/>
			<path class="st1" d="M312.4,922.3h1.6v6c0.6-1.1,1.8-1.7,3-1.7c2,0,3.3,1.1,3.3,3.8v5.8h-1.5v-5.9c0-1.7-0.7-2.4-2.2-2.4
				c-1.4-0.1-2.5,0.9-2.6,2.3c0,0.1,0,0.2,0,0.3v5.7h-1.5L312.4,922.3z"/>
			<path class="st1" d="M322.7,923.9c0-0.5,0.5-1,1-1c0.5,0,1,0.5,1,1c0,0.5-0.4,1-1,1C323.1,924.9,322.7,924.4,322.7,923.9z
				 M323,926.8h1.5v9.4H323V926.8z"/>
			<path class="st1" d="M327.2,926.8h1.5v1.5c0.6-1.1,1.8-1.7,3-1.7c2,0,3.3,1.1,3.3,3.8v5.8h-1.5v-5.9c0-1.7-0.7-2.4-2.2-2.4
				c-1.4-0.1-2.5,1-2.6,2.3c0,0.1,0,0.2,0,0.2v5.7h-1.5V926.8z"/>
			<path class="st1" d="M342.2,926.8h1.5v1.4c0.6-1,1.7-1.6,2.8-1.6c1.2-0.1,2.3,0.6,2.8,1.8c0.7-1.1,1.9-1.8,3.2-1.8
				c1.7,0,3.2,1,3.2,3.8v5.8h-1.5v-6c0-1.7-0.7-2.3-2-2.3c-1.3,0-2.5,1-2.5,2.3c0,0.1,0,0.1,0,0.2v5.8h-1.5v-6c0-1.7-0.7-2.3-2-2.3
				c-1.3,0-2.5,1-2.5,2.3c0,0.1,0,0.1,0,0.2v5.8h-1.5L342.2,926.8z"/>
			<path class="st1" d="M358.1,923.9c0-0.5,0.5-1,1-1c0.5,0,1,0.5,1,1c0,0.5-0.4,1-1,1C358.6,924.9,358.1,924.4,358.1,923.9z
				 M358.4,926.8h1.5v9.4h-1.5V926.8z"/>
			<path class="st1" d="M362.7,926.8h1.5v1.5c0.6-1.1,1.8-1.7,3-1.7c2,0,3.3,1.1,3.3,3.8v5.8H369v-5.9c0-1.7-0.7-2.4-2.2-2.4
				c-1.4-0.1-2.5,1-2.6,2.3c0,0.1,0,0.2,0,0.2v5.7h-1.5V926.8z"/>
			<path class="st1" d="M373.1,932.8v-6h1.5v5.9c0,1.7,0.7,2.4,2.2,2.4c1.4,0.1,2.5-1,2.6-2.4c0-0.1,0-0.1,0-0.2v-5.7h1.5v9.4h-1.5
				v-1.5c-0.6,1.1-1.8,1.7-3,1.6C374.5,936.4,373.1,935.4,373.1,932.8z"/>
			<path class="st1" d="M384,933.9V928h-1.3v-1.2h1.3v-2.2h1.5v2.2h2.2v1.2h-2.2v5.7c0,0.9,0.4,1.4,1.2,1.4c0.4,0,0.8-0.1,1.2-0.2
				v1.3c-0.4,0.1-0.8,0.2-1.3,0.2c-1.3,0.1-2.4-0.8-2.5-2C384,934.1,384,934,384,933.9z"/>
			<path class="st1" d="M389,931.6v-0.1c-0.2-2.4,1.6-4.6,4-4.8c0.1,0,0.3,0,0.4,0c2.3-0.1,4.2,1.7,4.3,4c0,0.2,0,0.5,0,0.7v0.5
				h-7.1c0,2.1,1.1,3.3,3,3.3c1.4,0,2.3-0.5,2.5-1.6h1.5c-0.4,1.9-2.1,3.1-4,2.9c-2.4,0.1-4.5-1.8-4.6-4.3
				C389,932,389,931.8,389,931.6z M396.1,930.6c-0.1-2-1.1-2.7-2.7-2.7c-1.5,0-2.7,1.2-2.8,2.7H396.1z"/>
			<path class="st1" d="M399,933.3h1.5c0.1,1.1,0.7,1.8,2.2,1.8s2-0.5,2-1.5s-0.7-1.3-2.2-1.6c-2.5-0.4-3.3-1.1-3.3-2.8
				c0.1-1.6,1.6-2.8,3.2-2.7c1.7-0.2,3.2,1,3.4,2.6c0,0,0,0.1,0,0.1h-1.4c-0.2-1-0.8-1.5-2-1.5s-1.8,0.5-1.8,1.3s0.5,1.2,2.2,1.5
				s3.3,0.8,3.3,2.8s-1.2,2.9-3.5,2.9S399.1,935.3,399,933.3z"/>
			<path class="st1" d="M412,931.6v-0.1c0-2.6,2.1-4.6,4.6-4.6c2.6,0,4.6,2.1,4.6,4.6c0,0,0,0,0,0v0.1c0,2.6-2.1,4.6-4.6,4.6
				C414.1,936.3,412,934.2,412,931.6C412,931.6,412,931.6,412,931.6z M419.7,931.6v-0.1c0-2.2-1.2-3.6-3.1-3.6s-3.1,1.4-3.1,3.6v0.1
				c-0.2,1.7,1,3.2,2.7,3.4c1.7,0.2,3.2-1,3.4-2.7C419.7,932.1,419.7,931.9,419.7,931.6L419.7,931.6z"/>
			<path class="st1" d="M423.5,928h-1.4v-1.2h1.4v-1.5c0-1.9,0.9-3,2.8-3c0.4,0,0.8,0,1.1,0.2v1.3c-0.3-0.1-0.7-0.2-1.1-0.2
				c-1,0-1.4,0.7-1.4,1.6v1.7h2.3v1.2H425v8.2h-1.5V928z"/>
			<path class="st1" d="M434,928h-1.4v-1.2h1.4v-1.5c0-1.9,0.9-3,2.8-3c0.4,0,0.8,0,1.1,0.2v1.3c-0.3-0.1-0.7-0.2-1.1-0.2
				c-1,0-1.4,0.7-1.4,1.6v1.7h2.3v1.2h-2.3v8.2H434V928z"/>
			<path class="st1" d="M439.4,923.9c0-0.5,0.4-1,1-1c0.5,0,1,0.5,1,1c0,0.5-0.5,1-1,1C439.8,924.9,439.4,924.4,439.4,923.9z
				 M439.7,926.8h1.5v9.4h-1.5V926.8z"/>
			<path class="st1" d="M444,922.3h1.5v14H444V922.3z"/>
			<path class="st1" d="M448,923.9c0-0.5,0.4-1,1-1c0.5,0,1,0.5,1,1c0,0.5-0.5,1-1,1C448.4,924.9,448,924.4,448,923.9z M448.3,926.8
				h1.5v9.4h-1.5V926.8z"/>
			<path class="st1" d="M452.6,926.8h1.5v1.5c0.6-1.1,1.8-1.7,3-1.7c2,0,3.3,1.1,3.3,3.8v5.8h-1.5v-5.9c0-1.7-0.7-2.4-2.2-2.4
				c-1.4-0.1-2.5,0.9-2.6,2.3c0,0.1,0,0.2,0,0.3v5.7h-1.5L452.6,926.8z"/>
			<path class="st1" d="M462.6,936.8h1.5c0.2,1.1,1.1,1.6,2.7,1.6c1.5,0.2,2.8-0.8,3-2.2c0-0.2,0-0.4,0-0.7v-1.4
				c-0.7,1.1-1.9,1.7-3.2,1.8c-2.3,0-4.3-1.9-4.3-4.2c0-0.1,0-0.2,0-0.3v-0.1c-0.1-2.5,1.8-4.6,4.2-4.7c0.1,0,0.1,0,0.2,0
				c1.3-0.1,2.4,0.6,3.1,1.7v-1.5h1.5v8.8c0,2.2-1.8,4-4,4c-0.2,0-0.4,0-0.5,0C464,939.7,462.8,938.4,462.6,936.8z M469.9,931.4
				v-0.1c0.2-1.6-0.9-3.1-2.4-3.3c-0.2,0-0.4,0-0.5,0c-1.7,0-3,1.3-3,3c0,0.1,0,0.3,0,0.4v0.1c-0.2,1.6,1,3.1,2.7,3.3
				c0.1,0,0.2,0,0.2,0c1.7,0.1,3.1-1.2,3.2-2.9C470,931.7,470,931.5,469.9,931.4L469.9,931.4z"/>
			<path class="st1" d="M474,935.2c0-0.6,0.5-1.2,1.2-1.2c0.6,0,1.2,0.5,1.2,1.2c0,0.6-0.5,1.2-1.2,1.2c0,0,0,0,0,0
				C474.5,936.3,474,935.8,474,935.2C474,935.2,474,935.2,474,935.2z"/>
			<path class="st1" d="M41.6,941.4h2L50,952v-10.6h1.5v12.9h-1.8l-6.5-11v11h-1.5L41.6,941.4z"/>
			<path class="st1" d="M53.6,949.6v-0.1c0-2.6,2.1-4.6,4.6-4.6c2.6,0,4.6,2.1,4.6,4.6c0,0,0,0,0,0v0.1c0,2.6-2.1,4.6-4.6,4.6
				C55.7,954.2,53.6,952.2,53.6,949.6C53.6,949.6,53.6,949.6,53.6,949.6z M61.3,949.6v-0.1c0-2.2-1.2-3.6-3.1-3.6s-3.1,1.4-3.1,3.6
				v0.1c-0.2,1.7,1,3.2,2.7,3.4s3.2-1,3.4-2.7C61.3,950.1,61.3,949.9,61.3,949.6z"/>
			<path class="st1" d="M65.2,951.9V946h-1.4v-1.2h1.4v-2.2h1.5v2.2h2.2v1.2h-2.2v5.7c0,0.9,0.4,1.4,1.2,1.4c0.4,0,0.8-0.1,1.2-0.2
				v1.3c-0.4,0.1-0.8,0.2-1.3,0.2c-1.3,0.1-2.4-0.8-2.5-2C65.2,952.1,65.2,952,65.2,951.9z"/>
			<path class="st1" d="M78.1,953.3l-3.7-8.4H76l2.9,6.7l2.6-6.7H83l-5.2,12.7h-1.5L78.1,953.3z"/>
			<path class="st1" d="M83.8,949.6v-0.1c-0.2-2.6,1.8-4.8,4.3-4.9c2.6-0.2,4.8,1.8,4.9,4.3c0,0.2,0,0.4,0,0.6v0.1
				c0.2,2.6-1.8,4.8-4.3,4.9c-2.6,0.2-4.8-1.8-4.9-4.3C83.8,950,83.8,949.8,83.8,949.6z M91.5,949.6v-0.1c0-2.2-1.2-3.6-3.1-3.6
				c-1.7,0-3.1,1.4-3.1,3.1c0,0.1,0,0.3,0,0.4v0.1c-0.2,1.7,1,3.2,2.7,3.4c1.7,0.2,3.2-1,3.4-2.7C91.5,950.1,91.5,949.9,91.5,949.6z
				"/>
			<path class="st1" d="M95,950.8v-6h1.5v5.9c0,1.7,0.7,2.4,2.2,2.4c1.4,0.1,2.5-1,2.6-2.4c0-0.1,0-0.1,0-0.2v-5.7h1.5v9.4h-1.5
				v-1.5c-0.6,1.1-1.8,1.7-3,1.6C96.4,954.4,95,953.4,95,950.8z"/>
			<path class="st1" d="M105.5,944.8h1.5v1.7c0.6-1.2,1.8-1.9,3.1-1.9v1.3c-1.9,0-3.1,0.7-3.1,3v5.2h-1.5V944.8z"/>
			<path class="st1" d="M116.8,951.9V946h-1.3v-1.2h1.3v-2.2h1.5v2.2h2.2v1.2h-2.2v5.7c0,0.9,0.4,1.4,1.2,1.4c0.4,0,0.8-0.1,1.2-0.2
				v1.3c-0.4,0.1-0.8,0.2-1.3,0.2c-1.3,0.1-2.4-0.8-2.5-2C116.8,952.1,116.8,952,116.8,951.9z"/>
			<path class="st1" d="M122,951.6c0-2.2,2.3-2.9,4.7-2.9h1.3V948c0-1.5-0.6-2.1-2-2.1s-2,0.5-2.2,1.7h-1.5c0.2-1.8,1.8-3.1,3.6-2.9
				c0,0,0,0,0,0c1.7-0.3,3.2,0.9,3.5,2.5c0,0.3,0,0.5,0,0.8v6.2H128V953c-0.7,0.9-1.8,1.4-2.9,1.3C123.3,954.4,122,953.6,122,951.6z
				 M128,951v-1.2h-1.3c-1.9,0-3.3,0.5-3.3,1.9c0,1,0.5,1.6,1.8,1.6S128,952.4,128,951z"/>
			<path class="st1" d="M134.5,949.4l-3.2-4.6h1.8l2.3,3.4l2.3-3.4h1.6l-3.1,4.5l3.4,4.9h-1.8l-2.5-3.8l-2.6,3.8h-1.6L134.5,949.4z"
				/>
			<path class="st1" d="M146,944.8h1.5v1.7c0.6-1.2,1.8-1.9,3.1-1.9v1.3c-1.9,0-3.1,0.7-3.1,3v5.2H146V944.8z"/>
			<path class="st1" d="M151.4,949.6v-0.1c-0.2-2.4,1.6-4.6,4-4.8c0.1,0,0.3,0,0.4,0c2.3,0,4.2,1.8,4.2,4c0,0.2,0,0.4,0,0.6v0.5h-7
				c0,2.1,1.1,3.3,3,3.3c1.5,0,2.3-0.5,2.5-1.6h1.5c-0.4,1.9-2.1,3.1-4,2.9c-2.4,0.1-4.5-1.8-4.6-4.2
				C151.4,950,151.4,949.8,151.4,949.6z M158.5,948.6c-0.2-2-1.2-2.7-2.7-2.7c-1.5,0-2.8,1.2-2.8,2.7H158.5z"/>
			<path class="st1" d="M162.4,946H161v-1.2h1.4v-1.5c0-1.9,0.9-3,2.8-3c0.4,0,0.8,0,1.1,0.2v1.3c-0.3-0.1-0.7-0.2-1.1-0.2
				c-1,0-1.4,0.7-1.4,1.6v1.7h2.3v1.2H164v8.2h-1.6V946z"/>
			<path class="st1" d="M168,950.8v-6h1.5v5.9c0,1.7,0.7,2.4,2.2,2.4c1.4,0.1,2.5-1,2.6-2.4c0-0.1,0-0.1,0-0.2v-5.7h1.5v9.4h-1.6
				v-1.5c-0.6,1.1-1.8,1.7-3,1.6C169.3,954.4,168,953.4,168,950.8z"/>
			<path class="st1" d="M178.5,944.8h1.5v1.5c0.6-1.1,1.8-1.7,3-1.7c2,0,3.3,1.1,3.3,3.8v5.8h-1.5v-5.9c0-1.7-0.7-2.4-2.2-2.4
				c-1.4-0.1-2.5,1-2.6,2.4c0,0.1,0,0.1,0,0.2v5.7h-1.5L178.5,944.8z"/>
			<path class="st1" d="M188.2,949.7v-0.1c-0.2-2.5,1.6-4.7,4-4.9c0.1,0,0.3,0,0.4,0c1.3-0.1,2.4,0.6,3.1,1.7v-6h1.5v14h-1.5v-1.6
				c-0.7,1.1-1.9,1.7-3.2,1.8c-2.3,0.1-4.2-1.8-4.3-4.1C188.2,950.2,188.2,949.9,188.2,949.7z M195.8,949.6v-0.1
				c0-2.4-1.2-3.5-3-3.5s-3,1.3-3,3.6v0.2c0,2.4,1.3,3.5,2.9,3.5S195.8,952,195.8,949.6z"/>
			<path class="st1" d="M199.8,953.2c0-0.6,0.5-1.2,1.2-1.2s1.2,0.5,1.2,1.2c0,0.6-0.5,1.2-1.2,1.2c0,0,0,0,0,0
				C200.4,954.4,199.9,953.8,199.8,953.2C199.8,953.2,199.8,953.2,199.8,953.2z"/>
		</g>
	</g>
</g>
</svg>
