<svg xmlns="http://www.w3.org/2000/svg" viewBox="0 0 728 90"><title>H47</title><g id="Layer_2" data-name="Layer 2"><g id="Rect"><rect width="728" height="90" fill="none"/></g><g id="H47"><g id="To_be_perfectly_clear_get_Upfront_Transparent_Pricing." data-name="To be perfectly clear, get Upfront Transparent Pricing."><path d="M126.61,21.29h-5.94V16.22h18.5v5.07h-5.94V39.17h-6.62Z" fill="#fff"/><path d="M137.75,31v-.25c0-5.4,4-8.8,9.22-8.8s9.15,3.31,9.15,8.64v.25c0,5.46-4,8.74-9.19,8.74S137.75,36.41,137.75,31Zm12.52-.09v-.26c0-2.82-1.12-4.4-3.3-4.4s-3.34,1.51-3.34,4.34v.25c0,2.89,1.12,4.47,3.34,4.47S150.27,33.68,150.27,30.89Z" fill="#fff"/><path d="M169.72,36.57v2.6H164V15h5.74v9.88A6,6,0,0,1,175,21.93c3.91,0,7.09,2.95,7.09,8.7v.26c0,5.78-3.18,8.67-7.13,8.67A5.45,5.45,0,0,1,169.72,36.57Zm6.49-5.68v-.26c0-2.95-1.29-4.36-3.31-4.36s-3.34,1.5-3.34,4.33v.26c0,2.85,1.25,4.3,3.34,4.3S176.21,33.65,176.21,30.89Z" fill="#fff"/><path d="M183.24,31v-.25c0-5.4,4-8.8,9.08-8.8,4.59,0,8.54,2.63,8.54,8.67v1.51H189.05c.16,2.21,1.44,3.5,3.5,3.5,1.89,0,2.69-.87,2.92-2h5.39c-.51,3.79-3.43,5.94-8.51,5.94C187.09,39.56,183.24,36.47,183.24,31Zm12-2.11c-.1-2-1.1-3.15-3-3.15s-2.92,1.12-3.21,3.15Z" fill="#fff"/><path d="M208.69,22.38h5.75v2.5a5.92,5.92,0,0,1,5.23-2.95c3.92,0,7.1,2.95,7.1,8.7v.26c0,5.78-3.18,8.67-7.13,8.67a5.53,5.53,0,0,1-5.2-2.86v8.09h-5.75Zm12.23,8.51v-.26c0-2.95-1.28-4.36-3.3-4.36s-3.34,1.5-3.34,4.33v.26c0,2.85,1.25,4.3,3.34,4.3S220.92,33.65,220.92,30.89Z" fill="#fff"/><path d="M228,31v-.25c0-5.4,4-8.8,9.09-8.8,4.59,0,8.54,2.63,8.54,8.67v1.51H233.76c.16,2.21,1.45,3.5,3.5,3.5s2.7-.87,2.92-2h5.4c-.52,3.79-3.44,5.94-8.51,5.94C231.8,39.56,228,36.47,228,31Zm12-2.11c-.1-2-1.09-3.15-3-3.15s-2.93,1.12-3.21,3.15Z" fill="#fff"/><path d="M247.56,22.38h5.75v3.34a5.28,5.28,0,0,1,5.43-3.56v5.36c-3.5-.1-5.43,1-5.43,3.69v8h-5.75Z" fill="#fff"/><path d="M262,26.3h-2.12V22.38H262V20.9c0-4.17,2.6-6.16,6.58-6.16a10.34,10.34,0,0,1,2.63.35V19.3a5.16,5.16,0,0,0-1.57-.23,1.69,1.69,0,0,0-1.93,1.83v1.48h3.41V26.3h-3.41V39.17H262Z" fill="#fff"/><path d="M271.57,31v-.25c0-5.4,4-8.8,9.09-8.8,4.59,0,8.54,2.63,8.54,8.67v1.51H277.38c.17,2.21,1.45,3.5,3.5,3.5,1.9,0,2.7-.87,2.93-2h5.39c-.51,3.79-3.44,5.94-8.51,5.94C275.43,39.56,271.57,36.47,271.57,31Zm12-2.11c-.09-2-1.09-3.15-2.95-3.15s-2.92,1.12-3.21,3.15Z" fill="#fff"/><path d="M290.29,31v-.25c0-5.59,4-8.8,9-8.8,4.1,0,7.89,1.8,8.21,6.9h-5.39c-.26-1.57-1-2.44-2.7-2.44-2,0-3.21,1.45-3.21,4.27v.26c0,2.92,1.13,4.43,3.31,4.43a2.79,2.79,0,0,0,2.92-2.79h5.17c-.16,4.24-3,7-8.44,7C294.11,39.56,290.29,36.63,290.29,31Z" fill="#fff"/><path d="M310.19,33.78V26.3h-2V22.38h2v-3.5h5.75v3.5h3.3V26.3h-3.3v6.93c0,1.22.61,1.77,1.7,1.77a4.48,4.48,0,0,0,1.64-.29v4.36a11.72,11.72,0,0,1-3.18.49C312.31,39.56,310.19,37.73,310.19,33.78Z" fill="#fff"/><path d="M321.58,15h5.72V39.17h-5.72Z" fill="#fff"/><path d="M335.65,37.47l-6.71-15.09h6.22l3.47,9,3.21-9h5.49l-9,22.41h-5.49Z" fill="#fff"/><path d="M353.75,31v-.25c0-5.59,4-8.8,9-8.8,4.1,0,7.89,1.8,8.21,6.9h-5.39c-.26-1.57-1-2.44-2.7-2.44-2,0-3.21,1.45-3.21,4.27v.26c0,2.92,1.13,4.43,3.31,4.43a2.79,2.79,0,0,0,2.92-2.79H371c-.16,4.24-3,7-8.44,7C357.57,39.56,353.75,36.63,353.75,31Z" fill="#fff"/><path d="M373,15h5.71V39.17H373Z" fill="#fff"/><path d="M380.94,31v-.25c0-5.4,4-8.8,9.08-8.8,4.59,0,8.54,2.63,8.54,8.67v1.51H386.75c.16,2.21,1.44,3.5,3.5,3.5,1.89,0,2.69-.87,2.92-2h5.39c-.51,3.79-3.43,5.94-8.51,5.94C384.79,39.56,380.94,36.47,380.94,31Zm12-2.11c-.1-2-1.1-3.15-3-3.15s-2.92,1.12-3.21,3.15Z" fill="#fff"/><path d="M399.75,34.52c0-4,3.33-5.49,8.92-5.49h1.61v-.39c0-1.6-.39-2.66-2.22-2.66a2.07,2.07,0,0,0-2.28,2h-5.39c.26-4,3.43-6,8-6s7.58,1.9,7.58,6.36V39.17h-5.58v-2a5.53,5.53,0,0,1-5,2.35C402.41,39.56,399.75,38.08,399.75,34.52Zm10.53-1.22v-1h-1.51c-2.31,0-3.34.45-3.34,1.83,0,1,.64,1.57,2,1.57C409.06,35.67,410.28,34.74,410.28,33.3Z" fill="#fff"/><path d="M418.78,22.38h5.75v3.34A5.27,5.27,0,0,1,430,22.16v5.36c-3.5-.1-5.42,1-5.42,3.69v8h-5.75Z" fill="#fff"/><path d="M428.92,41.77l2.7-8.44L437,35.22l-4.62,7.87Z" fill="#fff"/><path d="M444.36,39.17h5.72c.26,1.22,1,2.18,3.08,2.18,2.54,0,3.56-1.44,3.56-3.53V35.25a5.87,5.87,0,0,1-5.2,3.09c-3.91,0-7.12-2.89-7.12-8.06V30c0-4.94,3.18-8.09,7.12-8.09a5.44,5.44,0,0,1,5.2,2.83V22.38h5.75V37.76c0,5-3.3,7.64-9.31,7.64C447.45,45.4,444.81,43,444.36,39.17Zm12.52-8.92V30c0-2.31-1.18-3.79-3.3-3.79s-3.31,1.51-3.31,3.82v.26c0,2.31,1.22,3.79,3.28,3.79S456.88,32.62,456.88,30.25Z" fill="#fff"/><path d="M464.49,31v-.25c0-5.4,4-8.8,9.09-8.8,4.59,0,8.54,2.63,8.54,8.67v1.51H470.3c.16,2.21,1.45,3.5,3.5,3.5,1.9,0,2.7-.87,2.92-2h5.4c-.52,3.79-3.44,5.94-8.51,5.94C468.34,39.56,464.49,36.47,464.49,31Zm12-2.11c-.1-2-1.09-3.15-2.95-3.15s-2.92,1.12-3.21,3.15Z" fill="#fff"/><path d="M484.87,33.78V26.3h-2V22.38h2v-3.5h5.75v3.5h3.31V26.3h-3.31v6.93c0,1.22.61,1.77,1.7,1.77a4.44,4.44,0,0,0,1.64-.29v4.36a11.72,11.72,0,0,1-3.18.49C487,39.56,484.87,37.73,484.87,33.78Z" fill="#fff"/><path d="M122.05,64V50.32h6.59V63.67c0,3.24.8,4.82,3.59,4.82s3.6-1.48,3.6-4.91V50.32h6.64V63.86c0,6.68-3.91,9.8-10.24,9.8S122.05,70.38,122.05,64Z" fill="#fff"/><path d="M145.58,56.48h5.75V59A5.93,5.93,0,0,1,156.56,56c3.92,0,7.1,2.95,7.1,8.7V65c0,5.78-3.18,8.67-7.13,8.67a5.55,5.55,0,0,1-5.2-2.86v8.09h-5.75ZM157.82,65v-.26c0-3-1.29-4.36-3.31-4.36s-3.34,1.5-3.34,4.33V65c0,2.85,1.25,4.3,3.34,4.3S157.82,67.75,157.82,65Z" fill="#fff"/><path d="M166.61,60.4h-2.12V56.48h2.12V55c0-4.17,2.6-6.16,6.58-6.16a10.34,10.34,0,0,1,2.63.35V53.4a5.16,5.16,0,0,0-1.57-.23A1.69,1.69,0,0,0,172.32,55v1.48h3.41V60.4h-3.41V73.27h-5.71Z" fill="#fff"/><path d="M177.65,56.48h5.75v3.34a5.28,5.28,0,0,1,5.42-3.56v5.36c-3.5-.1-5.42,1-5.42,3.69v8h-5.75Z" fill="#fff"/><path d="M189.85,65.08v-.25c0-5.4,4-8.8,9.21-8.8s9.15,3.31,9.15,8.64v.25c0,5.46-4,8.74-9.18,8.74S189.85,70.51,189.85,65.08ZM202.37,65v-.26c0-2.82-1.12-4.4-3.31-4.4s-3.34,1.51-3.34,4.34v.25c0,2.89,1.13,4.47,3.34,4.47S202.37,67.78,202.37,65Z" fill="#fff"/><path d="M210.23,56.48H216v2.7A5.92,5.92,0,0,1,221.5,56c3.24,0,5.49,2,5.49,6.33V73.27h-5.75V63.51c0-1.89-.73-2.82-2.4-2.82s-2.86,1-2.86,3.17v9.41h-5.75Z" fill="#fff"/><path d="M230.55,67.88V60.4h-2V56.48h2V53h5.75v3.5h3.31V60.4H236.3v6.93c0,1.22.61,1.77,1.7,1.77a4.48,4.48,0,0,0,1.64-.29v4.36a11.72,11.72,0,0,1-3.18.49C232.67,73.66,230.55,71.83,230.55,67.88Z" fill="#fff"/><path d="M252.54,55.39H246.6V50.32h18.49v5.07h-5.94V73.27h-6.61Z" fill="#fff"/><path d="M266,56.48h5.75v3.34a5.28,5.28,0,0,1,5.42-3.56v5.36c-3.5-.1-5.42,1-5.42,3.69v8H266Z" fill="#fff"/><path d="M277.93,68.62c0-4,3.34-5.49,8.93-5.49h1.6v-.39c0-1.6-.38-2.66-2.21-2.66a2.05,2.05,0,0,0-2.28,2h-5.4c.26-4,3.44-6,8-6s7.58,1.89,7.58,6.36V73.27h-5.59v-2a5.52,5.52,0,0,1-5,2.35C280.6,73.66,277.93,72.18,277.93,68.62Zm10.53-1.22v-1H287c-2.31,0-3.34.45-3.34,1.83,0,1,.65,1.57,2,1.57C287.24,69.77,288.46,68.84,288.46,67.4Z" fill="#fff"/><path d="M297,56.48h5.74v2.7A5.92,5.92,0,0,1,308.23,56c3.25,0,5.49,2,5.49,6.33V73.27H308V63.51c0-1.89-.74-2.82-2.41-2.82s-2.86,1-2.86,3.17v9.41H297Z" fill="#fff"/><path d="M315.39,67.94h5.3c.19,1.22.74,1.9,2.37,1.9,1.42,0,2.06-.55,2.06-1.38s-.8-1.19-3.12-1.51c-4.49-.58-6.38-1.9-6.38-5.4,0-3.72,3.3-5.52,7.19-5.52,4.14,0,7,1.41,7.41,5.43H325a1.87,1.87,0,0,0-2.15-1.67c-1.25,0-1.89.54-1.89,1.31s.77,1.13,2.82,1.38c4.66.58,6.9,1.8,6.9,5.4,0,4-2.95,5.78-7.6,5.78S315.52,71.67,315.39,67.94Z" fill="#fff"/><path d="M332.56,56.48h5.75V59A5.93,5.93,0,0,1,343.54,56c3.92,0,7.1,2.95,7.1,8.7V65c0,5.78-3.18,8.67-7.13,8.67a5.55,5.55,0,0,1-5.2-2.86v8.09h-5.75ZM344.8,65v-.26c0-3-1.29-4.36-3.31-4.36s-3.34,1.5-3.34,4.33V65c0,2.85,1.25,4.3,3.34,4.3S344.8,67.75,344.8,65Z" fill="#fff"/><path d="M351.76,68.62c0-4,3.34-5.49,8.92-5.49h1.61v-.39c0-1.6-.39-2.66-2.22-2.66a2.05,2.05,0,0,0-2.27,2h-5.4c.26-4,3.44-6,8-6S368,57.92,368,62.39V73.27h-5.58v-2a5.52,5.52,0,0,1-5,2.35C354.42,73.66,351.76,72.18,351.76,68.62Zm10.53-1.22v-1h-1.51c-2.31,0-3.34.45-3.34,1.83,0,1,.64,1.57,2,1.57C361.07,69.77,362.29,68.84,362.29,67.4Z" fill="#fff"/><path d="M370.79,56.48h5.75v3.34A5.29,5.29,0,0,1,382,56.26v5.36c-3.5-.1-5.43,1-5.43,3.69v8h-5.75Z" fill="#fff"/><path d="M383,65.08v-.25c0-5.4,4-8.8,9.09-8.8,4.59,0,8.54,2.63,8.54,8.67v1.51H388.8c.16,2.21,1.45,3.5,3.5,3.5,1.9,0,2.7-.87,2.92-2h5.4c-.52,3.78-3.44,5.94-8.51,5.94C386.84,73.66,383,70.57,383,65.08ZM395,63c-.09-2-1.09-3.15-2.95-3.15s-2.92,1.12-3.21,3.15Z" fill="#fff"/><path d="M402.61,56.48h5.74v2.7A5.92,5.92,0,0,1,413.87,56c3.25,0,5.49,2,5.49,6.33V73.27h-5.74V63.51c0-1.89-.74-2.82-2.41-2.82s-2.86,1-2.86,3.17v9.41h-5.74Z" fill="#fff"/><path d="M422.92,67.88V60.4h-2V56.48h2V53h5.75v3.5H432V60.4h-3.31v6.93c0,1.22.61,1.77,1.7,1.77a4.44,4.44,0,0,0,1.64-.29v4.36a11.72,11.72,0,0,1-3.18.49C425,73.66,422.92,71.83,422.92,67.88Z" fill="#fff"/><path d="M440.51,50.32h8.74c6.29,0,9.21,2.79,9.21,7.67v.13c0,4.81-3.24,7.41-8.92,7.41h-2.48v7.74h-6.55ZM449,61c2.12,0,3.24-1,3.24-2.89V58c0-2-1.16-2.76-3.21-2.76h-1.93V61Z" fill="#fff"/><path d="M460.45,56.48h5.75v3.34a5.27,5.27,0,0,1,5.42-3.56v5.36c-3.5-.1-5.42,1-5.42,3.69v8h-5.75Z" fill="#fff"/><path d="M473.58,51.92a3.17,3.17,0,1,1,3.14,3A3,3,0,0,1,473.58,51.92Zm.29,4.56h5.74V73.27h-5.74Z" fill="#fff"/><path d="M481.79,65.08v-.25c0-5.59,4-8.8,9-8.8,4.11,0,7.9,1.8,8.22,6.9h-5.39c-.26-1.57-1-2.44-2.7-2.44-2,0-3.21,1.45-3.21,4.27V65c0,2.92,1.12,4.43,3.31,4.43a2.79,2.79,0,0,0,2.92-2.79h5.17c-.16,4.24-3,7-8.45,7C485.62,73.66,481.79,70.73,481.79,65.08Z" fill="#fff"/><path d="M500.8,51.92a3.17,3.17,0,1,1,3.14,3A3,3,0,0,1,500.8,51.92Zm.29,4.56h5.74V73.27h-5.74Z" fill="#fff"/><path d="M509.91,56.48h5.75v2.7A5.92,5.92,0,0,1,521.18,56c3.25,0,5.49,2,5.49,6.33V73.27h-5.74V63.51c0-1.89-.74-2.82-2.41-2.82s-2.86,1-2.86,3.17v9.41h-5.75Z" fill="#fff"/><path d="M528.53,73.27h5.72c.25,1.22,1,2.18,3.08,2.18,2.54,0,3.56-1.44,3.56-3.53V69.35a5.87,5.87,0,0,1-5.2,3.09c-3.92,0-7.13-2.89-7.13-8.06v-.26c0-4.94,3.18-8.09,7.13-8.09a5.44,5.44,0,0,1,5.2,2.83V56.48h5.75V71.86c0,5-3.31,7.64-9.31,7.64C531.61,79.5,529,77.09,528.53,73.27Zm12.52-8.92v-.23c0-2.31-1.18-3.79-3.3-3.79s-3.31,1.51-3.31,3.82v.26c0,2.31,1.22,3.79,3.27,3.79S541.05,66.72,541.05,64.35Z" fill="#fff"/><path d="M549.33,70.38a3.2,3.2,0,0,1,3.28-3.24,3.24,3.24,0,1,1,0,6.48A3.2,3.2,0,0,1,549.33,70.38Z" fill="#fff"/></g></g></g></svg>