<svg xmlns="http://www.w3.org/2000/svg" viewBox="0 0 160 600"><title>Asset 2</title><g id="Layer_2" data-name="Layer 2"><g id="Rect"><rect width="160" height="600" fill="none"/></g><g id="Drop_off_work_with_a_pro_remotely_or_file_online._We_re_still" data-name="Drop off, work with a pro remotely, or file online. We’re still"><path d="M21.23,131.37h4.62c4.51,0,6.81,2.26,6.81,6.21v.14c0,4-2.35,6.36-6.83,6.36h-4.6Zm4.49,9.91c2.17,0,3.13-1.14,3.13-3.51v-.14c0-2.42-1-3.45-3.16-3.45h-.8v7.1Z" fill="#fff"/><path d="M33.89,134.79h3.18v1.85a2.94,2.94,0,0,1,3-2v3c-1.93,0-3,.55-3,2.05v4.4H33.89Z" fill="#fff"/><path d="M40.65,139.55v-.14a4.77,4.77,0,0,1,5.1-4.87c2.86,0,5.06,1.83,5.06,4.78v.14c0,3-2.22,4.84-5.08,4.84S40.65,142.56,40.65,139.55Zm6.93-.05v-.14c0-1.57-.62-2.44-1.83-2.44s-1.85.84-1.85,2.4v.14c0,1.6.62,2.47,1.85,2.47S47.58,141,47.58,139.5Z" fill="#fff"/><path d="M51.94,134.79h3.18v1.38a3.29,3.29,0,0,1,2.9-1.63c2.17,0,3.92,1.63,3.92,4.82v.14c0,3.2-1.75,4.8-3.94,4.8a3.06,3.06,0,0,1-2.88-1.58v4.48H51.94Zm6.77,4.71v-.14c0-1.64-.71-2.42-1.83-2.42s-1.85.83-1.85,2.4v.14c0,1.58.69,2.38,1.85,2.38S58.71,141,58.71,139.5Z" fill="#fff"/><path d="M65.84,139.55v-.14a4.77,4.77,0,0,1,5.1-4.87c2.87,0,5.07,1.83,5.07,4.78v.14c0,3-2.22,4.84-5.08,4.84S65.84,142.56,65.84,139.55Zm6.94-.05v-.14c0-1.57-.63-2.44-1.84-2.44s-1.84.84-1.84,2.4v.14c0,1.6.62,2.47,1.84,2.47S72.78,141,72.78,139.5Z" fill="#fff"/><path d="M77.61,137H76.44v-2.17h1.17v-.71c0-2.31,1.43-3.4,3.63-3.4a5.17,5.17,0,0,1,1.42.18v2.33a2.76,2.76,0,0,0-.85-.13.93.93,0,0,0-1,1v.71h2.7V134c0-2.31,1.46-3.41,3.64-3.41a6,6,0,0,1,1.46.19v2.33a2.94,2.94,0,0,0-.87-.12.93.93,0,0,0-1,1v.82h1.89V137H86.66v7.12H83.48V137h-2.7v7.12H77.61Z" fill="#fff"/><path d="M87.88,145.52l1.49-4.67,2.95,1.05-2.56,4.35Z" fill="#fff"/><path d="M96.16,134.79h3.33l1.35,5.56,1.56-5.56H105l1.39,5.56,1.51-5.56h3l-2.95,9.29h-3l-1.39-5.19-1.44,5.19H99Z" fill="#fff"/><path d="M110.8,139.55v-.14a4.77,4.77,0,0,1,5.1-4.87c2.86,0,5.06,1.83,5.06,4.78v.14c0,3-2.22,4.84-5.08,4.84S110.8,142.56,110.8,139.55Zm6.93-.05v-.14c0-1.57-.62-2.44-1.83-2.44s-1.85.84-1.85,2.4v.14c0,1.6.62,2.47,1.85,2.47S117.73,141,117.73,139.5Z" fill="#fff"/><path d="M122.09,134.79h3.18v1.85a2.94,2.94,0,0,1,3-2v3c-1.93,0-3,.55-3,2.05v4.4h-3.18Z" fill="#fff"/><path d="M129.43,130.7h3.18v7.77l2.51-3.68h3.31l-3,4.17,3.29,5.12h-3.56L132.61,140v4.07h-3.18Z" fill="#fff"/><path d="M20.16,160.75h3.32l1.35,5.57,1.57-5.57H29l1.39,5.57,1.51-5.57h3l-3,9.3h-3l-1.39-5.19-1.44,5.19H23Z" fill="#fff"/><path d="M35.63,158.23a1.75,1.75,0,1,1,1.74,1.63A1.65,1.65,0,0,1,35.63,158.23Zm.16,2.52H39v9.3H35.79Z" fill="#fff"/><path d="M41.11,167.06v-4.14H40v-2.17h1.12v-1.94h3.18v1.94h1.83v2.17H44.29v3.84c0,.68.34,1,.94,1a2.59,2.59,0,0,0,.91-.16V170a7.07,7.07,0,0,1-1.76.26C42.28,170.26,41.11,169.25,41.11,167.06Z" fill="#fff"/><path d="M47.33,156.66h3.18v5.58a3.28,3.28,0,0,1,3.06-1.74c1.8,0,3,1.12,3,3.5v6.05H53.43v-5.41c0-1-.41-1.56-1.34-1.56s-1.58.57-1.58,1.76v5.21H47.33Z" fill="#fff"/><path d="M60.86,167.47c0-2.19,1.85-3,5-3h.88v-.21c0-.89-.21-1.48-1.22-1.48a1.14,1.14,0,0,0-1.26,1.1h-3c.14-2.24,1.9-3.34,4.44-3.34s4.2,1.05,4.2,3.52v6H66.77V169a3.06,3.06,0,0,1-2.76,1.3C62.34,170.26,60.86,169.44,60.86,167.47Zm5.83-.67v-.57h-.83c-1.28,0-1.85.25-1.85,1,0,.53.36.87,1.1.87C66,168.11,66.69,167.6,66.69,166.8Z" fill="#fff"/><path d="M74.64,160.75h3.19v1.39a3.27,3.27,0,0,1,2.89-1.64c2.17,0,3.93,1.64,3.93,4.82v.14c0,3.2-1.76,4.8-3.94,4.8a3.06,3.06,0,0,1-2.88-1.58v4.48H74.64Zm6.78,4.71v-.14c0-1.64-.71-2.42-1.83-2.42s-1.85.84-1.85,2.4v.14c0,1.59.69,2.39,1.85,2.39S81.42,167,81.42,165.46Z" fill="#fff"/><path d="M85.81,160.75H89v1.85a2.93,2.93,0,0,1,3-2v3c-1.94-.06-3,.55-3,2v4.41H85.81Z" fill="#fff"/><path d="M92.57,165.52v-.15a4.78,4.78,0,0,1,5.1-4.87c2.86,0,5.07,1.83,5.07,4.78v.15c0,3-2.22,4.83-5.09,4.83S92.57,168.52,92.57,165.52Zm6.93-.06v-.14c0-1.56-.62-2.44-1.83-2.44s-1.85.84-1.85,2.4v.15c0,1.6.62,2.47,1.85,2.47S99.5,167,99.5,165.46Z" fill="#fff"/><path d="M20.94,186.72h3.18v1.84a2.94,2.94,0,0,1,3-2v3c-1.94-.05-3,.55-3,2V196H20.94Z" fill="#fff"/><path d="M27.7,191.48v-.14a4.75,4.75,0,0,1,5-4.87,4.41,4.41,0,0,1,4.73,4.8v.83H30.92A1.85,1.85,0,0,0,32.85,194c1,0,1.5-.48,1.62-1.1h3c-.29,2.09-1.9,3.29-4.71,3.29S27.7,194.52,27.7,191.48Zm6.67-1.17c-.06-1.12-.61-1.75-1.64-1.75A1.78,1.78,0,0,0,31,190.31Z" fill="#fff"/><path d="M38.56,186.72h3.19v1.42a3.23,3.23,0,0,1,2.91-1.67A2.54,2.54,0,0,1,47.19,188a3.68,3.68,0,0,1,3.07-1.54c1.76,0,3,1.13,3,3.46V196H50.12v-5.54c0-.95-.46-1.41-1.19-1.41a1.37,1.37,0,0,0-1.42,1.57V196H44.36v-5.54c0-.95-.46-1.41-1.19-1.41a1.37,1.37,0,0,0-1.42,1.57V196H38.56Z" fill="#fff"/><path d="M54.36,191.48v-.14a4.77,4.77,0,0,1,5.1-4.87c2.86,0,5.06,1.83,5.06,4.78v.14c0,3-2.22,4.84-5.08,4.84S54.36,194.48,54.36,191.48Zm6.93,0v-.15c0-1.56-.62-2.43-1.83-2.43s-1.85.83-1.85,2.4v.14c0,1.6.62,2.47,1.85,2.47S61.29,193,61.29,191.43Z" fill="#fff"/><path d="M66.07,193v-4.15H65v-2.16h1.12v-1.94h3.19v1.94h1.83v2.16H69.26v3.84c0,.68.33,1,.94,1a2.33,2.33,0,0,0,.9-.16V196a6.44,6.44,0,0,1-1.76.27C67.25,196.23,66.07,195.21,66.07,193Z" fill="#fff"/><path d="M71.8,191.48v-.14a4.75,4.75,0,0,1,5-4.87,4.41,4.41,0,0,1,4.73,4.8v.83H75A1.86,1.86,0,0,0,77,194c1,0,1.49-.48,1.61-1.1h3c-.28,2.09-1.9,3.29-4.71,3.29S71.8,194.52,71.8,191.48Zm6.67-1.17c-.06-1.12-.61-1.75-1.64-1.75a1.78,1.78,0,0,0-1.78,1.75Z" fill="#fff"/><path d="M82.75,182.63h3.17V196H82.75Z" fill="#fff"/><path d="M90.54,195.07l-3.71-8.35h3.44l1.92,4.95L94,186.72h3l-5,12.4H89Z" fill="#fff"/><path d="M95.81,197.45l1.49-4.67,3,1.05-2.56,4.35Z" fill="#fff"/><path d="M104.38,191.48v-.14a4.77,4.77,0,0,1,5.1-4.87c2.86,0,5.06,1.83,5.06,4.78v.14c0,3-2.22,4.84-5.08,4.84S104.38,194.48,104.38,191.48Zm6.93,0v-.15c0-1.56-.62-2.43-1.83-2.43s-1.85.83-1.85,2.4v.14c0,1.6.62,2.47,1.85,2.47S111.31,193,111.31,191.43Z" fill="#fff"/><path d="M115.67,186.72h3.18v1.84a2.93,2.93,0,0,1,3-2v3c-1.93-.05-3,.55-3,2V196h-3.18Z" fill="#fff"/><path d="M21.42,214.85H20.25v-2.17h1.17v-.82c0-2.31,1.44-3.41,3.65-3.41a5.93,5.93,0,0,1,1.45.19V211a2.94,2.94,0,0,0-.87-.12.93.93,0,0,0-1.06,1v.82h1.88v2.17H24.59V222H21.42Z" fill="#fff"/><path d="M27.47,210.15a1.66,1.66,0,0,1,1.74-1.65,1.65,1.65,0,1,1,0,3.29A1.64,1.64,0,0,1,27.47,210.15Zm.16,2.53h3.18V222H27.63Z" fill="#fff"/><path d="M32.61,208.59h3.16V222H32.61Z" fill="#fff"/><path d="M37,217.44v-.14a4.75,4.75,0,0,1,5-4.87,4.41,4.41,0,0,1,4.73,4.8v.83H40.2A1.86,1.86,0,0,0,42.14,220c1,0,1.49-.48,1.61-1.1h3c-.28,2.1-1.9,3.29-4.71,3.29S37,220.48,37,217.44Zm6.67-1.17c-.06-1.12-.61-1.74-1.64-1.74a1.77,1.77,0,0,0-1.78,1.74Z" fill="#fff"/><path d="M50.58,217.44v-.14a4.78,4.78,0,0,1,5.11-4.87c2.86,0,5.06,1.83,5.06,4.78v.14c0,3-2.22,4.84-5.08,4.84S50.58,220.45,50.58,217.44Zm6.94-.05v-.14c0-1.57-.62-2.44-1.83-2.44s-1.85.84-1.85,2.4v.14c0,1.6.62,2.47,1.85,2.47S57.52,218.94,57.52,217.39Z" fill="#fff"/><path d="M61.88,212.68h3.18v1.49a3.28,3.28,0,0,1,3.06-1.74c1.79,0,3,1.12,3,3.5v6H68v-5.41c0-1-.41-1.56-1.33-1.56s-1.58.57-1.58,1.76V222H61.88Z" fill="#fff"/><path d="M72.79,208.59H76V222H72.79Z" fill="#fff"/><path d="M77.6,210.15a1.66,1.66,0,0,1,1.74-1.65,1.65,1.65,0,1,1,0,3.29A1.64,1.64,0,0,1,77.6,210.15Zm.16,2.53h3.18V222H77.76Z" fill="#fff"/><path d="M82.65,212.68h3.18v1.49a3.28,3.28,0,0,1,3.06-1.74c1.79,0,3,1.12,3,3.5v6H88.74v-5.41c0-1-.41-1.56-1.33-1.56s-1.58.57-1.58,1.76V222H82.65Z" fill="#fff"/><path d="M93,217.44v-.14a4.75,4.75,0,0,1,5-4.87,4.41,4.41,0,0,1,4.73,4.8v.83H96.2A1.85,1.85,0,0,0,98.13,220c1.05,0,1.5-.48,1.62-1.1h3c-.29,2.1-1.9,3.29-4.71,3.29S93,220.48,93,217.44Zm6.66-1.17c0-1.12-.6-1.74-1.63-1.74a1.77,1.77,0,0,0-1.78,1.74Z" fill="#fff"/><path d="M103.63,220.38a1.77,1.77,0,0,1,1.81-1.8,1.8,1.8,0,1,1,0,3.59A1.77,1.77,0,0,1,103.63,220.38Z" fill="#fff"/><path d="M20.25,235.23h3.68l1.63,7.93,1.71-7.93h3.24l1.84,8,1.73-8h3.38l-3,12.71H30.68l-1.95-8.07-2,8.07H23.2Z" fill="#fff"/><path d="M37.05,243.41v-.15a4.76,4.76,0,0,1,5-4.87,4.41,4.41,0,0,1,4.73,4.8V244H40.27A1.86,1.86,0,0,0,42.21,246c1,0,1.49-.48,1.62-1.11h3c-.28,2.1-1.9,3.29-4.71,3.29S37.05,246.45,37.05,243.41Zm6.67-1.18c0-1.12-.6-1.74-1.64-1.74a1.76,1.76,0,0,0-1.77,1.74Z" fill="#fff"/><path d="M47.14,239.64,48.56,235l2.81.94-2.44,4.39Z" fill="#fff"/><path d="M51.48,238.64h3.18v1.85a2.91,2.91,0,0,1,3-2v3c-1.94-.06-3,.55-3,2v4.41H51.48Z" fill="#fff"/><path d="M58.23,243.41v-.15a4.76,4.76,0,0,1,5-4.87,4.41,4.41,0,0,1,4.73,4.8V244H61.45A1.86,1.86,0,0,0,63.39,246c1,0,1.49-.48,1.62-1.11h3c-.28,2.1-1.9,3.29-4.71,3.29S58.23,246.45,58.23,243.41Zm6.67-1.18c-.05-1.12-.61-1.74-1.64-1.74a1.76,1.76,0,0,0-1.77,1.74Z" fill="#fff"/><path d="M71.71,245h2.93c.11.67.41,1,1.32,1s1.14-.3,1.14-.77-.45-.65-1.73-.83c-2.49-.32-3.53-1.05-3.53-3s1.83-3.06,4-3.06,3.89.79,4.1,3H77a1,1,0,0,0-1.19-.93c-.69,0-1,.31-1,.73s.43.62,1.57.77c2.58.32,3.82,1,3.82,3,0,2.21-1.63,3.2-4.21,3.2S71.78,247.05,71.71,245Z" fill="#fff"/><path d="M81.65,245v-4.14H80.53v-2.17h1.12V236.7h3.18v1.94h1.84v2.17H84.83v3.84a.85.85,0,0,0,1,1,2.33,2.33,0,0,0,.9-.16v2.42a7,7,0,0,1-1.76.26C82.83,248.15,81.65,247.14,81.65,245Z" fill="#fff"/><path d="M87.8,236.12a1.76,1.76,0,1,1,1.75,1.63A1.65,1.65,0,0,1,87.8,236.12Zm.16,2.52h3.19v9.3H88Z" fill="#fff"/><path d="M92.94,234.55h3.17v13.39H92.94Z" fill="#fff"/><path d="M97.91,234.55h3.16v13.39H97.91Z" fill="#fff"/><path d="M20.94,260.52h3.18v5.58a3.29,3.29,0,0,1,3.06-1.74c1.8,0,3,1.12,3,3.5v6H27v-5.4c0-1.05-.41-1.56-1.33-1.56s-1.59.56-1.59,1.75v5.21H20.94Z" fill="#fff"/><path d="M31.27,269.37v-.14a4.76,4.76,0,0,1,5-4.87,4.4,4.4,0,0,1,4.73,4.8V270H34.49a1.86,1.86,0,0,0,1.94,1.94c1,0,1.49-.48,1.62-1.1h3c-.28,2.1-1.9,3.29-4.71,3.29S31.27,272.41,31.27,269.37Zm6.67-1.17c0-1.12-.6-1.74-1.64-1.74a1.76,1.76,0,0,0-1.77,1.74Z" fill="#fff"/><path d="M42.14,264.61h3.18v1.85a2.93,2.93,0,0,1,3-2v3c-1.93-.05-3,.55-3,2v4.41H42.14Z" fill="#fff"/><path d="M48.9,269.37v-.14a4.75,4.75,0,0,1,5-4.87,4.41,4.41,0,0,1,4.73,4.8V270H52.11a1.86,1.86,0,0,0,1.94,1.94c1.05,0,1.49-.48,1.62-1.1h3c-.29,2.1-1.91,3.29-4.72,3.29S48.9,272.41,48.9,269.37Zm6.66-1.17c-.05-1.12-.6-1.74-1.63-1.74a1.77,1.77,0,0,0-1.78,1.74Z" fill="#fff"/><path d="M63.42,270.92v-4.15H62.3v-2.16h1.12v-1.94h3.19v1.94h1.83v2.16H66.61v3.84c0,.68.33,1,.94,1a2.33,2.33,0,0,0,.9-.16v2.42a6.44,6.44,0,0,1-1.76.27C64.6,274.12,63.42,273.1,63.42,270.92Z" fill="#fff"/><path d="M69.15,269.37v-.14a4.77,4.77,0,0,1,5.1-4.87c2.86,0,5.07,1.83,5.07,4.78v.14c0,3-2.22,4.84-5.09,4.84S69.15,272.37,69.15,269.37Zm6.93-.05v-.15c0-1.56-.62-2.43-1.83-2.43s-1.85.83-1.85,2.4v.14c0,1.6.63,2.47,1.85,2.47S76.08,270.86,76.08,269.32Z" fill="#fff"/><path d="M83.68,260.52h3.18v5.58a3.28,3.28,0,0,1,3.06-1.74c1.79,0,3,1.12,3,3.5v6H89.78v-5.4c0-1.05-.41-1.56-1.34-1.56s-1.58.56-1.58,1.75v5.21H83.68Z" fill="#fff"/><path d="M94,269.37v-.14a4.75,4.75,0,0,1,5-4.87,4.41,4.41,0,0,1,4.73,4.8V270H97.23a1.86,1.86,0,0,0,1.94,1.94c1,0,1.49-.48,1.61-1.1h3c-.28,2.1-1.9,3.29-4.71,3.29S94,272.41,94,269.37Zm6.67-1.17c-.06-1.12-.61-1.74-1.64-1.74a1.77,1.77,0,0,0-1.78,1.74Z" fill="#fff"/><path d="M105,260.52h3.17V273.9H105Z" fill="#fff"/><path d="M109.84,264.61H113V266a3.27,3.27,0,0,1,2.9-1.63c2.16,0,3.92,1.63,3.92,4.81v.15c0,3.2-1.76,4.8-3.94,4.8a3.05,3.05,0,0,1-2.88-1.59V277h-3.18Zm6.77,4.71v-.15c0-1.63-.71-2.41-1.83-2.41s-1.85.83-1.85,2.4v.14c0,1.58.69,2.38,1.85,2.38S116.61,270.85,116.61,269.32Z" fill="#fff"/><path d="M120.65,272.3a1.77,1.77,0,0,1,1.81-1.79,1.8,1.8,0,1,1,0,3.59A1.77,1.77,0,0,1,120.65,272.3Z" fill="#fff"/></g></g></svg>