<svg xmlns="http://www.w3.org/2000/svg" viewBox="0 0 160 600"><title>H28</title><g id="Layer_2" data-name="Layer 2"><g id="Rect"><rect width="160" height="600" fill="none"/></g><g id="H28"><g id="_H_R_Block_is_the_online_winner._" data-name="&quot;H&amp;R Block [is] the [online] winner.&quot;"><path d="M21.23,114.16h5l-.63,8.25H21.83Zm6.36,0h5.07L32,122.41H28.22Z" fill="#fff"/><path d="M35.48,114.16h6.18v8.19h7.05v-8.19h6.15v21.45H48.71v-8.46H41.66v8.46H35.48Z" fill="#fff"/><path d="M75.44,131.23,79,135.61H72l-1.26-1.56A8.54,8.54,0,0,1,65,136c-4.56,0-7.53-2.4-7.53-6.48,0-2.76,1.68-4.8,4.71-6.24a6.84,6.84,0,0,1-1.32-3.75c0-3.66,3.12-5.61,6.9-5.61,3.42,0,6.51,1.71,6.51,5,0,2.34-1.38,4-4.29,5.31l2.7,3.3,1.56-3.06h4.68ZM68,130.6l-3.39-4.08a2.54,2.54,0,0,0-1.44,2.31,2.49,2.49,0,0,0,2.73,2.67A2.81,2.81,0,0,0,68,130.6ZM67.34,122c1.44-.69,2.13-1.5,2.13-2.61a1.54,1.54,0,0,0-1.59-1.65,1.71,1.71,0,0,0-1.77,1.86A3.94,3.94,0,0,0,67.34,122Z" fill="#fff"/><path d="M81,114.16h8.4c5.61,0,8.73,2.28,8.73,6.81v.12a5.61,5.61,0,0,1-3.87,5.64l5.13,8.88H92.87l-4.35-7.68H87.08v7.68H81Zm8.1,9.78c2.07,0,3.09-.87,3.09-2.61v-.12c0-1.74-1.08-2.43-3.06-2.43h-2v5.16Z" fill="#fff"/><path d="M22.07,149.16h9.57c5.07,0,7.23,2.28,7.23,5.61v.12a4.42,4.42,0,0,1-3.63,4.62,4.66,4.66,0,0,1,4.29,5v.12c0,3.84-2.49,6-7.8,6H22.07Zm8.34,8.52c1.92,0,2.64-.66,2.64-2.19v-.12c0-1.47-.78-2.13-2.64-2.13H28.07v4.44Zm.21,8.82c1.95,0,2.85-.9,2.85-2.49v-.12c0-1.62-.87-2.46-3-2.46H28.07v5.07Z" fill="#fff"/><path d="M41.66,148H47v22.59H41.66Z" fill="#fff"/><path d="M49,163v-.24c0-5,3.75-8.22,8.61-8.22s8.55,3.09,8.55,8.07v.24c0,5.1-3.75,8.16-8.58,8.16S49,168,49,163Zm11.7-.09v-.24c0-2.64-1.05-4.11-3.09-4.11s-3.12,1.41-3.12,4v.24c0,2.7,1,4.17,3.12,4.17S60.74,165.48,60.74,162.87Z" fill="#fff"/><path d="M67.25,163v-.24c0-5.22,3.75-8.22,8.37-8.22,3.84,0,7.38,1.68,7.68,6.45h-5a2.32,2.32,0,0,0-2.52-2.28c-1.89,0-3,1.35-3,4v.24c0,2.73,1.05,4.14,3.09,4.14a2.61,2.61,0,0,0,2.73-2.61h4.83c-.15,4-2.82,6.54-7.89,6.54C70.82,171,67.25,168.24,67.25,163Z" fill="#fff"/><path d="M85.13,148H90.5v13.11l4.23-6.21h5.58L95.18,162l5.55,8.64h-6l-4.23-6.87v6.87H85.13Z" fill="#fff"/><path d="M22,182.33h9.15v3.93H27.38v19.86h3.75v3.93H22Z" fill="#fff"/><path d="M33.29,185.66a3,3,0,1,1,2.94,2.76A2.8,2.8,0,0,1,33.29,185.66Zm.27,4.26h5.37v15.69H33.56Z" fill="#fff"/><path d="M40.76,200.63h5c.18,1.14.69,1.77,2.22,1.77,1.32,0,1.92-.51,1.92-1.29s-.75-1.11-2.91-1.41c-4.2-.54-6-1.77-6-5,0-3.48,3.09-5.16,6.72-5.16,3.87,0,6.57,1.32,6.93,5.07H49.76a1.75,1.75,0,0,0-2-1.56c-1.17,0-1.77.51-1.77,1.23s.72,1,2.64,1.29c4.35.54,6.45,1.68,6.45,5,0,3.72-2.76,5.4-7.11,5.4S40.88,204.11,40.76,200.63Z" fill="#fff"/><path d="M56.09,206.12h3.72V186.26H56.09v-3.93h9.12v27.72H56.09Z" fill="#fff"/><path d="M74.51,200.57v-7H72.62v-3.66h1.89v-3.27h5.37v3.27H83v3.66H79.88v6.48a1.43,1.43,0,0,0,1.59,1.65,4.09,4.09,0,0,0,1.53-.27v4.08a11.27,11.27,0,0,1-3,.45C76.49,206,74.51,204.26,74.51,200.57Z" fill="#fff"/><path d="M85,183h5.37v9.42a5.54,5.54,0,0,1,5.16-2.94c3,0,5.13,1.89,5.13,5.91v10.2H95.3v-9.12c0-1.77-.69-2.64-2.25-2.64s-2.67,1-2.67,3v8.79H85Z" fill="#fff"/><path d="M102.44,198v-.24c0-5,3.75-8.22,8.49-8.22,4.29,0,8,2.46,8,8.1V199h-11c.15,2.07,1.35,3.27,3.27,3.27,1.77,0,2.52-.81,2.73-1.86h5c-.48,3.54-3.21,5.55-8,5.55C106,206,102.44,203.09,102.44,198Zm11.25-2c-.09-1.89-1-2.94-2.76-2.94s-2.73,1.05-3,2.94Z" fill="#fff"/><path d="M22,217.33h9.15v3.93H27.38v19.86h3.75v3.93H22Z" fill="#fff"/><path d="M32.21,233v-.24c0-5,3.75-8.22,8.61-8.22s8.55,3.09,8.55,8.07v.24c0,5.1-3.75,8.16-8.58,8.16S32.21,238,32.21,233Zm11.7-.09v-.24c0-2.64-1-4.11-3.09-4.11s-3.12,1.41-3.12,4v.24c0,2.7,1,4.17,3.12,4.17S43.91,235.48,43.91,232.87Z" fill="#fff"/><path d="M51.26,224.92h5.37v2.52a5.54,5.54,0,0,1,5.16-2.94c3,0,5.13,1.89,5.13,5.91v10.2H61.55v-9.12c0-1.77-.69-2.64-2.25-2.64s-2.67,1-2.67,3v8.79H51.26Z" fill="#fff"/><path d="M69.68,218H75v22.59H69.68Z" fill="#fff"/><path d="M77.78,220.66a3,3,0,1,1,2.94,2.76A2.8,2.8,0,0,1,77.78,220.66Zm.27,4.26h5.37v15.69H78.05Z" fill="#fff"/><path d="M86.3,224.92h5.37v2.52a5.54,5.54,0,0,1,5.16-2.94c3,0,5.13,1.89,5.13,5.91v10.2H96.59v-9.12c0-1.77-.69-2.64-2.25-2.64s-2.67,1-2.67,3v8.79H86.3Z" fill="#fff"/><path d="M103.73,233v-.24c0-5,3.75-8.22,8.49-8.22,4.29,0,8,2.46,8,8.1V234h-11c.15,2.07,1.35,3.27,3.27,3.27,1.77,0,2.52-.81,2.73-1.86h5c-.48,3.54-3.21,5.55-8,5.55C107.33,241,103.73,238.09,103.73,233ZM115,231c-.09-1.89-1-2.94-2.76-2.94s-2.73,1.05-3,2.94Z" fill="#fff"/><path d="M121.34,241.12h3.72V221.26h-3.72v-3.93h9.12v27.72h-9.12Z" fill="#fff"/><path d="M20.27,259.92h5.61l2.28,9.39,2.64-9.39h4.32l2.34,9.39L40,259.92h5.1l-5,15.69H35l-2.34-8.76-2.43,8.76H25Z" fill="#fff"/><path d="M46.37,255.66a3,3,0,1,1,2.94,2.76A2.8,2.8,0,0,1,46.37,255.66Zm.27,4.26H52v15.69H46.64Z" fill="#fff"/><path d="M54.89,259.92h5.37v2.52a5.54,5.54,0,0,1,5.16-2.94c3,0,5.13,1.89,5.13,5.91v10.2H65.18v-9.12c0-1.77-.69-2.64-2.25-2.64s-2.67,1-2.67,3v8.79H54.89Z" fill="#fff"/><path d="M73.16,259.92h5.37v2.52a5.54,5.54,0,0,1,5.16-2.94c3,0,5.13,1.89,5.13,5.91v10.2H83.45v-9.12c0-1.77-.69-2.64-2.25-2.64s-2.67,1-2.67,3v8.79H73.16Z" fill="#fff"/><path d="M90.59,268v-.24c0-5,3.75-8.22,8.49-8.22,4.29,0,8,2.46,8,8.1V269H96c.15,2.07,1.35,3.27,3.27,3.27,1.77,0,2.52-.81,2.73-1.86h5c-.48,3.54-3.21,5.55-8,5.55C94.19,276,90.59,273.09,90.59,268Zm11.25-2c-.09-1.89-1-2.94-2.76-2.94s-2.73,1-3,2.94Z" fill="#fff"/><path d="M108.92,259.92h5.37V263a4.94,4.94,0,0,1,5.07-3.33v5c-3.27-.09-5.07.93-5.07,3.45v7.44h-5.37Z" fill="#fff"/><path d="M119.3,272.91a3,3,0,0,1,3.06-3,3,3,0,1,1,0,6.06A3,3,0,0,1,119.3,272.91Z" fill="#fff"/><path d="M124.85,254.16h5l-.63,8.25h-3.81Zm6.36,0h5.07l-.63,8.25h-3.81Z" fill="#fff"/></g><g id="_Business_Insider_on_H_R_Block_Online" data-name="– Business Insider on H&amp;R Block Online"><path d="M33.47,387.73H39.2v1.1H33.47Z" fill="#fff"/><path d="M43.57,382.65H46.9c1.91,0,3,.73,3,2.42v.05a1.92,1.92,0,0,1-1.47,2,2,2,0,0,1,1.86,2.19v0c0,1.73-1.15,2.61-3.19,2.61H43.57Zm3.12,3.91c1.14,0,1.58-.41,1.58-1.36v-.05c0-.89-.5-1.27-1.61-1.27h-1.4v2.68Zm.25,4.15c1.15,0,1.69-.52,1.69-1.48v-.05c0-1-.54-1.45-1.81-1.45H45.26v3Z" fill="#fff"/><path d="M51.56,389.5v-4.35h1.58v4.17c0,1,.43,1.49,1.34,1.49a1.51,1.51,0,0,0,1.58-1.62v-4h1.57V392H56.06v-1.07a2.3,2.3,0,0,1-2.16,1.2C52.56,392.08,51.56,391.31,51.56,389.5Z" fill="#fff"/><path d="M58.78,389.83h1.48c.08.68.43,1.09,1.35,1.09s1.22-.3,1.22-.87-.45-.77-1.45-.94c-1.8-.28-2.46-.79-2.46-2.07s1.28-2,2.55-2,2.5.52,2.66,2.06H62.68a1,1,0,0,0-1.21-.91c-.68,0-1.08.32-1.08.8s.33.69,1.4.87c1.6.25,2.55.64,2.55,2.08s-1,2.18-2.72,2.18S58.84,391.27,58.78,389.83Z" fill="#fff"/><path d="M65.4,383.13a.94.94,0,1,1,.93.9A.91.91,0,0,1,65.4,383.13Zm.16,2h1.58V392H65.56Z" fill="#fff"/><path d="M68.85,385.15h1.58v1.07A2.33,2.33,0,0,1,72.62,385c1.37,0,2.33.8,2.33,2.67V392H73.38v-4.14c0-1-.42-1.49-1.36-1.49a1.5,1.5,0,0,0-1.59,1.62v4H68.85Z" fill="#fff"/><path d="M76.11,388.62v-.11A3.31,3.31,0,0,1,79.49,385a3.07,3.07,0,0,1,3.21,3.43v.46h-5c0,1.29.7,2,1.87,2,1,0,1.44-.38,1.56-1h1.52c-.22,1.42-1.38,2.21-3.12,2.21A3.26,3.26,0,0,1,76.11,388.62Zm5-.78c-.08-1.17-.68-1.69-1.65-1.69a1.75,1.75,0,0,0-1.75,1.69Z" fill="#fff"/><path d="M83.45,389.83h1.48c.08.68.43,1.09,1.36,1.09s1.22-.3,1.22-.87-.46-.77-1.46-.94c-1.79-.28-2.46-.79-2.46-2.07s1.28-2,2.55-2,2.5.52,2.67,2.06H87.35a1,1,0,0,0-1.21-.91c-.67,0-1.08.32-1.08.8s.33.69,1.41.87c1.6.25,2.55.64,2.55,2.08s-1,2.18-2.72,2.18S83.52,391.27,83.45,389.83Z" fill="#fff"/><path d="M89.69,389.83h1.48c.08.68.43,1.09,1.36,1.09s1.22-.3,1.22-.87-.46-.77-1.46-.94c-1.79-.28-2.46-.79-2.46-2.07s1.28-2,2.55-2,2.5.52,2.67,2.06H93.59a1,1,0,0,0-1.21-.91c-.67,0-1.08.32-1.08.8s.33.69,1.41.87c1.6.25,2.55.64,2.55,2.08s-1,2.18-2.72,2.18S89.76,391.27,89.69,389.83Z" fill="#fff"/><path d="M99.52,382.65h1.74V392H99.52Z" fill="#fff"/><path d="M103.13,385.15h1.58v1.07A2.34,2.34,0,0,1,106.9,385c1.37,0,2.33.8,2.33,2.67V392h-1.57v-4.14c0-1-.42-1.49-1.36-1.49a1.5,1.5,0,0,0-1.59,1.62v4h-1.58Z" fill="#fff"/><path d="M110.32,389.83h1.48c.08.68.43,1.09,1.36,1.09s1.22-.3,1.22-.87-.46-.77-1.46-.94c-1.79-.28-2.46-.79-2.46-2.07s1.28-2,2.55-2,2.5.52,2.67,2.06h-1.46a1,1,0,0,0-1.21-.91c-.67,0-1.08.32-1.08.8s.33.69,1.41.87c1.6.25,2.55.64,2.55,2.08s-1,2.18-2.72,2.18S110.39,391.27,110.32,389.83Z" fill="#fff"/><path d="M116.94,383.13a.94.94,0,1,1,.93.9A.91.91,0,0,1,116.94,383.13Zm.17,2h1.57V392h-1.57Z" fill="#fff"/><path d="M120,388.66v-.11c0-2.17,1.29-3.55,3.06-3.55a2.33,2.33,0,0,1,2.17,1.19V382h1.57V392h-1.57V390.8a2.59,2.59,0,0,1-2.24,1.28C121.24,392.08,120,390.87,120,388.66Zm5.28-.08v-.11c0-1.49-.69-2.23-1.83-2.23s-1.83.8-1.83,2.27v.11c0,1.49.75,2.21,1.76,2.21S125.23,390.1,125.23,388.58Z" fill="#fff"/><path d="M128,388.62v-.11a3.31,3.31,0,0,1,3.38-3.51,3.07,3.07,0,0,1,3.21,3.43v.46h-5c0,1.29.7,2,1.87,2,.95,0,1.44-.38,1.56-1h1.52c-.22,1.42-1.38,2.21-3.12,2.21A3.26,3.26,0,0,1,128,388.62Zm5-.78c-.08-1.17-.68-1.69-1.65-1.69a1.75,1.75,0,0,0-1.75,1.69Z" fill="#fff"/><path d="M135.78,385.15h1.57v1.27a2.26,2.26,0,0,1,2.21-1.38v1.47c-1.38,0-2.21.46-2.21,1.9V392h-1.57Z" fill="#fff"/><path d="M58.66,403.62v-.11a3.49,3.49,0,0,1,7,0v.11a3.49,3.49,0,0,1-7,0Zm5.37,0v-.09c0-1.4-.7-2.26-1.87-2.26s-1.89.84-1.89,2.25v.1c0,1.39.69,2.26,1.89,2.26S64,405,64,403.59Z" fill="#fff"/><path d="M66.86,400.15h1.58v1.07A2.34,2.34,0,0,1,70.63,400c1.37,0,2.33.8,2.33,2.67V407H71.39v-4.14c0-1-.42-1.49-1.35-1.49a1.5,1.5,0,0,0-1.6,1.62v4H66.86Z" fill="#fff"/><path d="M77.6,397.65h1.73v4H83.5v-4h1.75V407H83.5v-4H79.33v4H77.6Z" fill="#fff"/><path d="M93.49,405.05l1.56,1.9h-2l-.78-.95a3.38,3.38,0,0,1-2.55,1.06c-1.81,0-3.06-1-3.06-2.65,0-1.37.85-2.16,2.1-2.76a3.05,3.05,0,0,1-.73-1.83,2.31,2.31,0,0,1,2.56-2.25,2.12,2.12,0,0,1,2.34,2c0,1.08-.73,1.84-1.94,2.36l1.64,2,1-1.83H95Zm-2-.05-2-2.41a1.76,1.76,0,0,0-1.19,1.65,1.44,1.44,0,0,0,1.6,1.52A2,2,0,0,0,91.47,405Zm-1.19-3.8c.87-.4,1.23-.82,1.23-1.55a.87.87,0,0,0-.91-.92,1,1,0,0,0-1,1.1A2.27,2.27,0,0,0,90.28,401.2Z" fill="#fff"/><path d="M96.28,397.65H99.4c2,0,3.47.83,3.47,2.73v.05a2.45,2.45,0,0,1-2.06,2.5l2.61,4h-1.87l-2.43-3.76H98V407H96.28ZM99.4,402c1.16,0,1.77-.49,1.77-1.48v-.05c0-1.07-.66-1.43-1.77-1.43H98v3Z" fill="#fff"/><path d="M107.5,397.65h3.33c1.91,0,3,.73,3,2.42v.05a1.91,1.91,0,0,1-1.47,2,2,2,0,0,1,1.86,2.19v0c0,1.73-1.14,2.61-3.18,2.61H107.5Zm3.12,3.91c1.14,0,1.59-.41,1.59-1.36v-.05c0-.89-.51-1.27-1.62-1.27h-1.4v2.68Zm.25,4.15c1.15,0,1.69-.52,1.69-1.48v-.05c0-1-.54-1.45-1.81-1.45h-1.56v3Z" fill="#fff"/><path d="M115.6,397h1.57V407H115.6Z" fill="#fff"/><path d="M118.43,403.62v-.11a3.49,3.49,0,0,1,7,0v.11a3.49,3.49,0,0,1-7,0Zm5.37,0v-.09c0-1.4-.7-2.26-1.87-2.26s-1.89.84-1.89,2.25v.1c0,1.39.69,2.26,1.89,2.26S123.8,405,123.8,403.59Z" fill="#fff"/><path d="M126.18,403.63v-.1a3.35,3.35,0,0,1,3.43-3.53,2.78,2.78,0,0,1,3.11,2.55H131.2a1.41,1.41,0,0,0-1.56-1.29c-1.08,0-1.85.84-1.85,2.24v.1c0,1.49.73,2.27,1.89,2.27a1.56,1.56,0,0,0,1.64-1.46h1.44a2.89,2.89,0,0,1-3.15,2.67A3.25,3.25,0,0,1,126.18,403.63Z" fill="#fff"/><path d="M133.92,397h1.57v6.14l2.43-3h1.72L137,403.27l2.86,3.68H138l-2.55-3.35V407h-1.57Z" fill="#fff"/></g></g></g></svg>