<svg xmlns="http://www.w3.org/2000/svg" viewBox="0 0 300 250"><title>txt</title><g id="Layer_2" data-name="Layer 2"><g id="Easily_do_your_taxes_from_anywhere." data-name="Easily do your taxes from anywhere."><g id="Easily_do_your_taxes_from_anywhere.-2" data-name="Easily do your taxes from  anywhere."><path d="M21.73,30.63H41.28v6.25H29.81v4.87H39v5.78H29.81v5.14H41.92v6.26H21.73Z" fill="#fff"/><path d="M43.54,53.19c0-4.87,4.12-6.77,11-6.77h2v-.48c0-2-.47-3.28-2.73-3.28A2.54,2.54,0,0,0,51,45.11H44.33c.32-5,4.24-7.44,9.9-7.44s9.34,2.34,9.34,7.84V58.93H56.68V56.51c-1,1.51-2.81,2.89-6.13,2.89C46.83,59.4,43.54,57.58,43.54,53.19Zm13-1.51V50.42H54.66c-2.85,0-4.11.55-4.11,2.25,0,1.19.79,1.94,2.45,1.94C55,54.61,56.52,53.46,56.52,51.68Z" fill="#fff"/><path d="M65.63,52.36h6.53c.24,1.5.91,2.33,2.93,2.33,1.74,0,2.53-.67,2.53-1.7s-1-1.46-3.84-1.86c-5.54-.71-7.87-2.34-7.87-6.65,0-4.59,4.07-6.81,8.86-6.81,5.11,0,8.67,1.74,9.15,6.69H77.5a2.31,2.31,0,0,0-2.65-2.06c-1.54,0-2.33.68-2.33,1.63s1,1.38,3.48,1.7c5.74.71,8.51,2.21,8.51,6.65,0,4.91-3.64,7.12-9.38,7.12C69.23,59.4,65.79,57,65.63,52.36Z" fill="#fff"/><path d="M86.65,32.61a3.7,3.7,0,0,1,3.88-3.69,3.67,3.67,0,1,1,0,7.33A3.67,3.67,0,0,1,86.65,32.61ZM87,38.23h7.09v20.7H87Z" fill="#fff"/><path d="M98.09,29.12h7V58.93h-7Z" fill="#fff"/><path d="M115.42,56.83l-8.27-18.6h7.68l4.28,11,4-11h6.77L118.75,65.85H112Z" fill="#fff"/><path d="M137.83,48.79v-.31c0-7,3.88-10.81,8.79-10.81A6.72,6.72,0,0,1,153,41.16v-12h7.08V58.93H153V55.56a7,7,0,0,1-6.45,3.84C141.75,59.4,137.83,56,137.83,48.79Zm15.36-.11v-.32c0-3.48-1.47-5.34-4.08-5.34S145,44.8,145,48.4v.32c0,3.48,1.55,5.26,4,5.26S153.19,52.2,153.19,48.68Z" fill="#fff"/><path d="M162.57,48.83v-.31c0-6.65,5-10.85,11.36-10.85s11.28,4.08,11.28,10.65v.32c0,6.72-5,10.76-11.32,10.76S162.57,55.52,162.57,48.83ZM178,48.72V48.4c0-3.48-1.38-5.42-4.07-5.42s-4.12,1.86-4.12,5.34v.32c0,3.56,1.39,5.5,4.12,5.5S178,52.16,178,48.72Z" fill="#fff"/><path d="M201.4,56.83l-8.27-18.6h7.68l4.27,11,4-11h6.77L204.72,65.85H198Z" fill="#fff"/><path d="M215.41,48.83v-.31c0-6.65,5-10.85,11.36-10.85s11.28,4.08,11.28,10.65v.32c0,6.72-4.94,10.76-11.32,10.76S215.41,55.52,215.41,48.83Zm15.44-.11V48.4c0-3.48-1.39-5.42-4.08-5.42s-4.11,1.86-4.11,5.34v.32c0,3.56,1.38,5.5,4.11,5.5S230.85,52.16,230.85,48.72Z" fill="#fff"/><path d="M240.39,51.72V38.23h7.08V50.58c0,2.33.91,3.48,2.93,3.48s3.53-1.27,3.53-3.92V38.23H261v20.7h-7.08V55.72c-1.11,2.14-3.13,3.68-6.57,3.68C243.36,59.4,240.39,57,240.39,51.72Z" fill="#fff"/><path d="M264.61,38.23h7.09v4.11A6.53,6.53,0,0,1,278.39,38v6.61c-4.32-.12-6.69,1.23-6.69,4.55v9.82h-7.09Z" fill="#fff"/><path d="M22.05,94.12V84.9h-2.5V80.07h2.5V75.76h7.08v4.31h4.08V84.9H29.13v8.55a1.89,1.89,0,0,0,2.1,2.18,5.35,5.35,0,0,0,2-.36v5.38a14.75,14.75,0,0,1-3.92.6C24.66,101.25,22.05,99,22.05,94.12Z" fill="#fff"/><path d="M34.79,95c0-4.86,4.12-6.76,11-6.76h2v-.48c0-2-.48-3.29-2.73-3.29A2.55,2.55,0,0,0,42.23,87H35.59c.31-5,4.23-7.44,9.89-7.44s9.34,2.33,9.34,7.83v13.42H47.93V98.36c-1,1.5-2.81,2.89-6.13,2.89C38.08,101.25,34.79,99.43,34.79,95Zm13-1.5V92.26H45.92c-2.85,0-4.12.56-4.12,2.26,0,1.19.79,1.94,2.45,1.94C46.27,96.46,47.78,95.31,47.78,93.53Z" fill="#fff"/><path d="M63.49,90.24,57,80.07h8.15l3.21,5.46,3.13-5.46h7.28l-6.53,9.62,7.16,11.08H71.29L67.61,94.6l-3.76,6.17H56.6Z" fill="#fff"/><path d="M78.53,90.68v-.32c0-6.65,5-10.84,11.2-10.84,5.66,0,10.53,3.24,10.53,10.68v1.86H85.7c.2,2.74,1.78,4.32,4.31,4.32,2.34,0,3.33-1.07,3.6-2.45h6.65c-.63,4.67-4.23,7.32-10.49,7.32C83.28,101.25,78.53,97.45,78.53,90.68Zm14.85-2.61c-.12-2.5-1.35-3.88-3.65-3.88-2.13,0-3.6,1.38-4,3.88Z" fill="#fff"/><path d="M101.53,94.2h6.53c.24,1.51.91,2.34,2.93,2.34,1.74,0,2.53-.68,2.53-1.7s-1-1.47-3.84-1.86c-5.54-.72-7.87-2.34-7.87-6.65,0-4.6,4.07-6.81,8.86-6.81,5.11,0,8.67,1.74,9.15,6.69h-6.41a2.32,2.32,0,0,0-2.66-2.06c-1.54,0-2.33.67-2.33,1.62s1,1.39,3.48,1.7c5.74.72,8.51,2.22,8.51,6.65,0,4.91-3.64,7.13-9.38,7.13C105.13,101.25,101.69,98.79,101.53,94.2Z" fill="#fff"/><path d="M131,84.9h-2.61V80.07H131V78.25c0-5.14,3.21-7.6,8.12-7.6a12.5,12.5,0,0,1,3.24.44v5.18A6.46,6.46,0,0,0,140.4,76,2.08,2.08,0,0,0,138,78.25v1.82h4.19V84.9H138v15.87H131Z" fill="#fff"/><path d="M144.6,80.07h7.08v4.12a6.55,6.55,0,0,1,6.69-4.4V86.4c-4.31-.11-6.69,1.23-6.69,4.56v9.81H144.6Z" fill="#fff"/><path d="M159.64,90.68v-.32c0-6.65,5-10.84,11.36-10.84s11.28,4.07,11.28,10.65v.31c0,6.73-4.95,10.77-11.32,10.77S159.64,97.37,159.64,90.68Zm15.44-.12v-.32c0-3.48-1.39-5.42-4.08-5.42s-4.12,1.86-4.12,5.35v.31c0,3.56,1.39,5.5,4.12,5.5S175.08,94,175.08,90.56Z" fill="#fff"/><path d="M184.77,80.07h7.09v3.17a7.23,7.23,0,0,1,6.49-3.72A5.64,5.64,0,0,1,204,83a8.22,8.22,0,0,1,6.85-3.44c3.92,0,6.77,2.53,6.77,7.72v13.53H210.5V88.42c0-2.09-1-3.12-2.65-3.12-1.9,0-3.17,1.22-3.17,3.48v12h-7V88.42c0-2.09-1-3.12-2.65-3.12-1.9,0-3.17,1.22-3.17,3.48v12h-7.09Z" fill="#fff"/><path d="M19.91,136.88c0-4.87,4.12-6.77,11-6.77h2v-.47c0-2-.47-3.29-2.73-3.29a2.55,2.55,0,0,0-2.81,2.46H20.7c.32-5,4.24-7.45,9.9-7.45s9.34,2.34,9.34,7.84v13.42H33.05v-2.41c-1,1.5-2.81,2.88-6.13,2.88C23.2,143.09,19.91,141.27,19.91,136.88Zm13-1.5v-1.27H31c-2.85,0-4.11.55-4.11,2.26,0,1.18.79,1.93,2.45,1.93C31.39,138.3,32.89,137.16,32.89,135.38Z" fill="#fff"/><path d="M43.38,121.92h7.09v3.32a7.32,7.32,0,0,1,6.81-3.88c4,0,6.76,2.5,6.76,7.8v13.46H57v-12c0-2.34-.91-3.49-3-3.49s-3.52,1.27-3.52,3.92v11.6H43.38Z" fill="#fff"/><path d="M73.27,140.52,65,121.92h7.68L77,133l4-11h6.77L76.59,149.55H69.83Z" fill="#fff"/><path d="M88.15,121.92h7.4l3,12.39L102,121.92h5.71l3.08,12.39,3.37-12.39h6.73l-6.58,20.7h-6.76l-3.09-11.56-3.21,11.56H94.41Z" fill="#fff"/><path d="M122.75,112.81h7.08v12.43a7.33,7.33,0,0,1,6.81-3.88c4,0,6.77,2.5,6.77,7.8v13.46h-7.09v-12c0-2.34-.91-3.49-3-3.49s-3.53,1.27-3.53,3.92v11.6h-7.08Z" fill="#fff"/><path d="M145.75,132.53v-.32c0-6.65,4.94-10.85,11.2-10.85,5.66,0,10.53,3.25,10.53,10.69v1.86H152.91c.2,2.73,1.78,4.32,4.31,4.32,2.34,0,3.33-1.07,3.61-2.46h6.65c-.64,4.67-4.24,7.32-10.49,7.32C150.5,143.09,145.75,139.29,145.75,132.53Zm14.84-2.62c-.12-2.49-1.35-3.88-3.64-3.88-2.14,0-3.6,1.39-4,3.88Z" fill="#fff"/><path d="M169.93,121.92H177V126a6.52,6.52,0,0,1,6.69-4.39v6.61c-4.32-.12-6.69,1.23-6.69,4.55v9.82h-7.09Z" fill="#fff"/><path d="M185,132.53v-.32c0-6.65,4.95-10.85,11.2-10.85,5.66,0,10.53,3.25,10.53,10.69v1.86H192.14c.19,2.73,1.78,4.32,4.31,4.32,2.34,0,3.33-1.07,3.6-2.46h6.65c-.63,4.67-4.23,7.32-10.49,7.32C189.72,143.09,185,139.29,185,132.53Zm14.85-2.62c-.12-2.49-1.35-3.88-3.65-3.88-2.13,0-3.6,1.39-3.95,3.88Z" fill="#fff"/><path d="M208.68,139.06a4,4,0,0,1,4-4,4,4,0,1,1,0,8A3.94,3.94,0,0,1,208.68,139.06Z" fill="#fff"/></g><rect width="300" height="250" fill="none"/></g></g></svg>