<svg xmlns="http://www.w3.org/2000/svg" viewBox="0 0 300 250"><title>Asset 18</title><g id="Layer_2" data-name="Layer 2"><g id="Rect"><rect width="300" height="250" fill="none"/></g><g id="Deduction_dedication._Find_the_perfect_tax_pro_for_you." data-name="Deduction dedication. Find the perfect tax pro for you."><path d="M22.28,21.25h8.58c8.38,0,12.64,4.19,12.64,11.52V33c0,7.36-4.36,11.82-12.67,11.82H22.28Zm8.35,18.38c4,0,5.81-2.11,5.81-6.5v-.26c0-4.49-1.79-6.41-5.88-6.41H29.08V39.63Z" fill="#fff"/><path d="M44.85,36.43v-.26c0-5.55,4.12-9,9.34-9C58.91,27.12,63,29.83,63,36v1.55H50.82c.17,2.27,1.49,3.6,3.6,3.6,1.95,0,2.77-.9,3-2H63c-.53,3.89-3.53,6.1-8.75,6.1C48.81,45.24,44.85,42.08,44.85,36.43Zm12.38-2.18c-.1-2.08-1.13-3.23-3-3.23s-3,1.15-3.3,3.23Z" fill="#fff"/><path d="M64.15,36.4v-.26c0-5.88,3.24-9,7.33-9A5.59,5.59,0,0,1,76.79,30V20H82.7V44.85H76.79V42a5.79,5.79,0,0,1-5.38,3.2C67.42,45.24,64.15,42.37,64.15,36.4ZM77,36.3V36c0-2.91-1.22-4.46-3.4-4.46s-3.4,1.49-3.4,4.49v.26c0,2.91,1.29,4.39,3.33,4.39S77,39.24,77,36.3Z" fill="#fff"/><path d="M85.57,38.84V27.59h5.91V37.88c0,1.95.76,2.91,2.44,2.91s2.94-1.06,2.94-3.27V27.59h5.91V44.85H96.86V42.18a5.68,5.68,0,0,1-5.48,3.06C88.05,45.24,85.57,43.2,85.57,38.84Z" fill="#fff"/><path d="M104.84,36.43v-.26c0-5.74,4.13-9,9.21-9,4.22,0,8.12,1.85,8.45,7.1H117c-.27-1.62-1.06-2.51-2.78-2.51-2.08,0-3.3,1.49-3.3,4.39v.27c0,3,1.16,4.55,3.4,4.55a2.88,2.88,0,0,0,3-2.87h5.31c-.17,4.36-3.1,7.19-8.68,7.19C108.77,45.24,104.84,42.24,104.84,36.43Z" fill="#fff"/><path d="M125.3,39.3V31.61h-2.08v-4h2.08V24h5.91v3.6h3.4v4h-3.4v7.13c0,1.26.63,1.82,1.75,1.82a4.45,4.45,0,0,0,1.68-.3v4.49a12.33,12.33,0,0,1-3.26.49C127.48,45.24,125.3,43.36,125.3,39.3Z" fill="#fff"/><path d="M136.72,22.9a3.26,3.26,0,1,1,3.23,3A3.08,3.08,0,0,1,136.72,22.9Zm.3,4.69h5.9V44.85H137Z" fill="#fff"/><path d="M145.17,36.43v-.26c0-5.55,4.12-9,9.47-9s9.41,3.4,9.41,8.88v.27c0,5.61-4.13,9-9.44,9S145.17,42,145.17,36.43Zm12.87-.1v-.26c0-2.9-1.16-4.52-3.4-4.52s-3.43,1.55-3.43,4.45v.27c0,3,1.15,4.58,3.43,4.58S158,39.21,158,36.33Z" fill="#fff"/><path d="M166.12,27.59H172v2.77a6.1,6.1,0,0,1,5.68-3.24c3.33,0,5.64,2.08,5.64,6.51V44.85h-5.91v-10c0-2-.76-2.91-2.47-2.91S172,33,172,35.18v9.67h-5.91Z" fill="#fff"/><path d="M20.89,71.4v-.26c0-5.88,3.24-9,7.33-9A5.6,5.6,0,0,1,33.53,65V55h5.91V79.85H33.53V77a5.8,5.8,0,0,1-5.38,3.2C24.16,80.24,20.89,77.37,20.89,71.4Zm12.81-.1V71c0-2.91-1.22-4.46-3.4-4.46s-3.4,1.49-3.4,4.49v.26c0,2.91,1.29,4.39,3.33,4.39S33.7,74.24,33.7,71.3Z" fill="#fff"/><path d="M41.52,71.43v-.26c0-5.55,4.12-9.05,9.34-9.05,4.72,0,8.78,2.71,8.78,8.92v1.55H47.49c.16,2.27,1.49,3.6,3.6,3.6,1.94,0,2.77-.9,3-2h5.55c-.53,3.89-3.54,6.1-8.75,6.1C45.48,80.24,41.52,77.08,41.52,71.43Zm12.37-2.18c-.1-2.08-1.12-3.23-3-3.23s-3,1.15-3.3,3.23Z" fill="#fff"/><path d="M60.82,71.4v-.26c0-5.88,3.24-9,7.33-9A5.6,5.6,0,0,1,73.46,65V55h5.91V79.85H73.46V77a5.8,5.8,0,0,1-5.38,3.2C64.09,80.24,60.82,77.37,60.82,71.4Zm12.81-.1V71c0-2.91-1.22-4.46-3.4-4.46s-3.4,1.49-3.4,4.49v.26c0,2.91,1.28,4.39,3.33,4.39S73.63,74.24,73.63,71.3Z" fill="#fff"/><path d="M82.24,57.9a3.08,3.08,0,0,1,3.23-3.07,3.06,3.06,0,1,1,0,6.11A3.06,3.06,0,0,1,82.24,57.9Zm.29,4.69h5.91V79.85H82.53Z" fill="#fff"/><path d="M90.69,71.43v-.26c0-5.74,4.12-9.05,9.2-9.05,4.23,0,8.12,1.85,8.45,7.1H102.8c-.27-1.62-1.06-2.51-2.77-2.51-2.08,0-3.3,1.49-3.3,4.39v.27c0,3,1.15,4.55,3.39,4.55a2.88,2.88,0,0,0,3-2.87h5.31c-.16,4.36-3.1,7.19-8.68,7.19C94.61,80.24,90.69,77.24,90.69,71.43Z" fill="#fff"/><path d="M109.46,75.06c0-4.06,3.43-5.64,9.18-5.64h1.65V69c0-1.65-.4-2.74-2.28-2.74a2.12,2.12,0,0,0-2.34,2h-5.55c.27-4.16,3.53-6.21,8.25-6.21s7.79,1.95,7.79,6.54V79.85h-5.74v-2c-.83,1.25-2.34,2.4-5.12,2.4C112.2,80.24,109.46,78.73,109.46,75.06Zm10.83-1.25V72.75h-1.55c-2.38,0-3.44.46-3.44,1.88,0,1,.66,1.62,2,1.62C119,76.25,120.29,75.29,120.29,73.81Z" fill="#fff"/><path d="M129.72,74.3V66.61h-2.07v-4h2.07V59h5.91v3.6H139v4h-3.4v7.13c0,1.26.63,1.82,1.75,1.82a4.42,4.42,0,0,0,1.68-.3v4.49a12.26,12.26,0,0,1-3.26.49C131.9,80.24,129.72,78.36,129.72,74.3Z" fill="#fff"/><path d="M141.14,57.9a3.26,3.26,0,1,1,3.24,3A3.09,3.09,0,0,1,141.14,57.9Zm.3,4.69h5.91V79.85h-5.91Z" fill="#fff"/><path d="M149.59,71.43v-.26c0-5.55,4.12-9.05,9.47-9.05s9.41,3.4,9.41,8.88v.27c0,5.61-4.13,9-9.44,9S149.59,77,149.59,71.43Zm12.87-.1v-.26c0-2.9-1.15-4.52-3.4-4.52s-3.43,1.55-3.43,4.45v.27c0,3,1.16,4.58,3.43,4.58S162.46,74.21,162.46,71.33Z" fill="#fff"/><path d="M170.54,62.59h5.91v2.77a6.11,6.11,0,0,1,5.68-3.24c3.33,0,5.64,2.08,5.64,6.51V79.85h-5.9v-10c0-1.95-.76-2.91-2.48-2.91s-2.94,1.06-2.94,3.27v9.67h-5.91Z" fill="#fff"/><path d="M190.41,76.88a3.3,3.3,0,0,1,3.37-3.34,3.34,3.34,0,1,1,0,6.67A3.29,3.29,0,0,1,190.41,76.88Z" fill="#fff"/><path d="M22.28,91.25H38.22V96.5H29.08v5h7.29v5H29.08v8.35h-6.8Z" fill="#fff"/><path d="M39.9,92.9a3.26,3.26,0,1,1,3.23,3A3.08,3.08,0,0,1,39.9,92.9Zm.3,4.69h5.9v17.26H40.2Z" fill="#fff"/><path d="M49.27,97.59h5.91v2.77a6.09,6.09,0,0,1,5.68-3.24c3.33,0,5.64,2.08,5.64,6.51v11.22H60.59v-10c0-1.95-.76-2.91-2.47-2.91s-2.94,1.06-2.94,3.27v9.67H49.27Z" fill="#fff"/><path d="M68.51,106.4v-.26c0-5.88,3.23-9,7.33-9A5.6,5.6,0,0,1,81.15,100V90h5.91v24.85H81.15V112a5.8,5.8,0,0,1-5.38,3.2C71.78,115.24,68.51,112.37,68.51,106.4Zm12.81-.1V106c0-2.91-1.23-4.46-3.4-4.46s-3.4,1.49-3.4,4.49v.26c0,2.91,1.28,4.39,3.33,4.39S81.32,109.24,81.32,106.3Z" fill="#fff"/><path d="M96.86,109.3v-7.69H94.78v-4h2.08V94h5.9v3.6h3.4v4h-3.4v7.13c0,1.26.63,1.82,1.75,1.82a4.5,4.5,0,0,0,1.69-.3v4.49a12.35,12.35,0,0,1-3.27.49C99,115.24,96.86,113.36,96.86,109.3Z" fill="#fff"/><path d="M108.41,90h5.9v10.36A6.11,6.11,0,0,1,120,97.12c3.33,0,5.64,2.08,5.64,6.51v11.22h-5.9v-10c0-1.95-.76-2.91-2.48-2.91s-2.94,1.06-2.94,3.27v9.67h-5.9Z" fill="#fff"/><path d="M127.58,106.43v-.26c0-5.55,4.12-9,9.34-9,4.72,0,8.78,2.71,8.78,8.92v1.55H133.55c.17,2.27,1.49,3.6,3.6,3.6,1.95,0,2.77-.9,3-2h5.55c-.53,3.89-3.53,6.1-8.75,6.1C131.54,115.24,127.58,112.08,127.58,106.43ZM140,104.25c-.1-2.08-1.13-3.23-3-3.23s-3,1.15-3.3,3.23Z" fill="#fff"/><path d="M153.75,97.59h5.91v2.57a6.09,6.09,0,0,1,5.38-3c4,0,7.29,3,7.29,8.95v.26c0,5.94-3.27,8.91-7.33,8.91a5.68,5.68,0,0,1-5.34-2.93v8.31h-5.91Zm12.57,8.74v-.26c0-3-1.32-4.49-3.4-4.49s-3.43,1.55-3.43,4.46v.26c0,2.94,1.29,4.42,3.43,4.42S166.32,109.17,166.32,106.33Z" fill="#fff"/><path d="M173.55,106.43v-.26c0-5.55,4.12-9,9.34-9,4.72,0,8.78,2.71,8.78,8.92v1.55H179.52c.17,2.27,1.49,3.6,3.6,3.6,1.95,0,2.77-.9,3-2h5.55c-.53,3.89-3.54,6.1-8.75,6.1C177.51,115.24,173.55,112.08,173.55,106.43Zm12.37-2.18c-.09-2.08-1.12-3.23-3-3.23s-3,1.15-3.3,3.23Z" fill="#fff"/><path d="M193.71,97.59h5.91V101a5.43,5.43,0,0,1,5.58-3.66v5.51c-3.6-.1-5.58,1-5.58,3.79v8.19h-5.91Z" fill="#fff"/><path d="M208.56,101.61h-2.18v-4h2.18V96.07c0-4.29,2.67-6.34,6.77-6.34a10.35,10.35,0,0,1,2.7.37v4.32a5.45,5.45,0,0,0-1.61-.23,1.74,1.74,0,0,0-2,1.88v1.52h3.5v4h-3.5v13.24h-5.87Z" fill="#fff"/><path d="M218.39,106.43v-.26c0-5.55,4.13-9,9.34-9,4.72,0,8.78,2.71,8.78,8.92v1.55H224.37c.16,2.27,1.48,3.6,3.59,3.6,1.95,0,2.78-.9,3-2h5.54c-.53,3.89-3.53,6.1-8.74,6.1C222.35,115.24,218.39,112.08,218.39,106.43Zm12.38-2.18c-.1-2.08-1.12-3.23-3-3.23s-3,1.15-3.3,3.23Z" fill="#fff"/><path d="M237.63,106.43v-.26c0-5.74,4.13-9,9.21-9,4.23,0,8.12,1.85,8.45,7.1h-5.54c-.27-1.62-1.06-2.51-2.78-2.51-2.08,0-3.3,1.49-3.3,4.39v.27c0,3,1.16,4.55,3.4,4.55a2.88,2.88,0,0,0,3-2.87h5.31c-.17,4.36-3.1,7.19-8.68,7.19C241.56,115.24,237.63,112.24,237.63,106.43Z" fill="#fff"/><path d="M258.09,109.3v-7.69H256v-4h2.08V94H264v3.6h3.4v4H264v7.13c0,1.26.63,1.82,1.75,1.82a4.45,4.45,0,0,0,1.68-.3v4.49a12.33,12.33,0,0,1-3.26.49C260.27,115.24,258.09,113.36,258.09,109.3Z" fill="#fff"/><path d="M22.54,144.3v-7.69H20.46v-4h2.08V129h5.91v3.6h3.4v4h-3.4v7.13c0,1.26.63,1.82,1.75,1.82a4.45,4.45,0,0,0,1.68-.3v4.49a12.28,12.28,0,0,1-3.27.5C24.72,150.25,22.54,148.36,22.54,144.3Z" fill="#fff"/><path d="M33.17,145.06c0-4.06,3.43-5.64,9.17-5.64H44V139c0-1.65-.39-2.74-2.28-2.74a2.12,2.12,0,0,0-2.34,2.05H33.83c.26-4.16,3.53-6.21,8.25-6.21s7.79,1.95,7.79,6.54v11.19H44.12v-2A5.65,5.65,0,0,1,39,150.25C35.91,150.25,33.17,148.73,33.17,145.06ZM44,143.81v-1.06H42.44c-2.38,0-3.43.46-3.43,1.88,0,1,.66,1.62,2.05,1.62C42.74,146.25,44,145.29,44,143.81Z" fill="#fff"/><path d="M57.09,141.07l-5.38-8.48h6.8l2.67,4.55,2.61-4.55h6.08l-5.45,8,6,9.24h-6.8l-3.07-5.15-3.13,5.15h-6Z" fill="#fff"/><path d="M78.05,132.59H84v2.57a6.1,6.1,0,0,1,5.38-3c4,0,7.3,3,7.3,8.95v.26c0,5.94-3.27,8.92-7.33,8.92A5.71,5.71,0,0,1,84,147.31v8.31h-5.9Zm12.57,8.74v-.26c0-3-1.32-4.49-3.4-4.49s-3.43,1.55-3.43,4.46v.26c0,2.94,1.29,4.42,3.43,4.42S90.62,144.17,90.62,141.33Z" fill="#fff"/><path d="M98.77,132.59h5.91V136a5.43,5.43,0,0,1,5.58-3.66v5.51c-3.6-.1-5.58,1-5.58,3.79v8.19H98.77Z" fill="#fff"/><path d="M111.31,141.43v-.26c0-5.55,4.13-9,9.47-9s9.41,3.4,9.41,8.88v.27c0,5.61-4.13,9-9.44,9S111.31,147,111.31,141.43Zm12.87-.1v-.26c0-2.9-1.15-4.52-3.4-4.52s-3.43,1.55-3.43,4.45v.27c0,3,1.15,4.59,3.43,4.59S124.18,144.21,124.18,141.33Z" fill="#fff"/><path d="M139.16,136.61H137v-4h2.18v-1.52c0-4.29,2.67-6.34,6.77-6.34a10.83,10.83,0,0,1,2.7.36v4.33a5.45,5.45,0,0,0-1.61-.23,1.73,1.73,0,0,0-2,1.88v1.52h3.49v4H145v13.24h-5.88Z" fill="#fff"/><path d="M149,141.43v-.26c0-5.55,4.12-9,9.47-9s9.4,3.4,9.4,8.88v.27c0,5.61-4.12,9-9.44,9S149,147,149,141.43Zm12.87-.1v-.26c0-2.9-1.16-4.52-3.4-4.52S155,138.1,155,141v.27c0,3,1.15,4.59,3.43,4.59S161.87,144.21,161.87,141.33Z" fill="#fff"/><path d="M170,132.59h5.91V136a5.43,5.43,0,0,1,5.58-3.66v5.51c-3.6-.1-5.58,1-5.58,3.79v8.19H170Z" fill="#fff"/><path d="M195,148.1l-6.9-15.51h6.4l3.57,9.21,3.3-9.21H207l-9.24,23h-5.64Z" fill="#fff"/><path d="M206.68,141.43v-.26c0-5.55,4.12-9,9.47-9s9.41,3.4,9.41,8.88v.27c0,5.61-4.13,9-9.44,9S206.68,147,206.68,141.43Zm12.87-.1v-.26c0-2.9-1.16-4.52-3.4-4.52s-3.43,1.55-3.43,4.45v.27c0,3,1.15,4.59,3.43,4.59S219.55,144.21,219.55,141.33Z" fill="#fff"/><path d="M227.5,143.84V132.59h5.91v10.29c0,2,.76,2.91,2.44,2.91s2.94-1.06,2.94-3.27v-9.93h5.91v17.26h-5.91v-2.67a5.69,5.69,0,0,1-5.48,3.07C230,150.25,227.5,148.2,227.5,143.84Z" fill="#fff"/><path d="M247.47,146.88a3.29,3.29,0,0,1,3.36-3.34,3.34,3.34,0,1,1,0,6.67A3.28,3.28,0,0,1,247.47,146.88Z" fill="#fff"/></g></g></svg>