<svg xmlns="http://www.w3.org/2000/svg" viewBox="0 0 728 90"><title>H212</title><g id="Layer_2" data-name="Layer 2"><g id="Artboard_1" data-name="Artboard 1" style="isolation:isolate"><g id="Open_and_ready_to_get_your_maximum_refund_today." data-name="Open and ready to get your  maximum refund today."><path d="M119.32,27.35v-.26c0-6.95,5.24-11.61,12.06-11.61s12.1,4.37,12.1,11.45v.26c0,7-4.82,11.8-12.19,11.8S119.32,34.21,119.32,27.35Zm17.33-.07V27c0-4.05-2-6.45-5.27-6.45s-5.23,2.33-5.23,6.48v.25c0,4.15,2.11,6.55,5.27,6.55S136.65,31.37,136.65,27.28Z" fill="#fff"/><path d="M145.68,21.92h5.71v2.49a5.9,5.9,0,0,1,5.2-2.93c3.9,0,7,2.93,7,8.64v.26c0,5.74-3.15,8.61-7.08,8.61a5.51,5.51,0,0,1-5.17-2.84v8h-5.71Zm12.16,8.46v-.26c0-2.93-1.28-4.34-3.29-4.34s-3.32,1.5-3.32,4.31v.26c0,2.84,1.25,4.27,3.32,4.27S157.84,33.12,157.84,30.38Z" fill="#fff"/><path d="M164.83,30.47v-.25c0-5.36,4-8.74,9-8.74,4.56,0,8.48,2.61,8.48,8.61v1.5H170.6c.16,2.2,1.44,3.48,3.48,3.48,1.88,0,2.68-.86,2.9-2h5.36c-.51,3.76-3.41,5.9-8.45,5.9C168.66,39,164.83,35.93,164.83,30.47Zm12-2.1c-.09-2-1.08-3.13-2.93-3.13s-2.91,1.12-3.19,3.13Z" fill="#fff"/><path d="M184.32,21.92H190V24.6a5.88,5.88,0,0,1,5.48-3.12c3.23,0,5.46,2,5.46,6.28V38.61h-5.71v-9.7c0-1.88-.74-2.81-2.39-2.81s-2.84,1-2.84,3.16v9.35h-5.72Z" fill="#fff"/><path d="M208.61,34c0-3.92,3.32-5.45,8.87-5.45h1.59v-.39c0-1.59-.38-2.64-2.2-2.64a2,2,0,0,0-2.26,2h-5.36c.25-4,3.41-6,8-6s7.53,1.88,7.53,6.31V38.61H219.2v-2A5.46,5.46,0,0,1,214.26,39C211.26,39,208.61,37.52,208.61,34Zm10.46-1.21v-1h-1.5c-2.29,0-3.31.45-3.31,1.82,0,1,.63,1.56,2,1.56C217.86,35.13,219.07,34.21,219.07,32.77Z" fill="#fff"/><path d="M227.53,21.92h5.71V24.6a5.9,5.9,0,0,1,5.49-3.12c3.22,0,5.46,2,5.46,6.28V38.61h-5.71v-9.7c0-1.88-.74-2.81-2.4-2.81s-2.84,1-2.84,3.16v9.35h-5.71Z" fill="#fff"/><path d="M246.14,30.44v-.25c0-5.68,3.12-8.71,7.08-8.71a5.41,5.41,0,0,1,5.14,2.8v-9.7h5.71v24h-5.71V35.9a5.62,5.62,0,0,1-5.2,3.09C249.29,39,246.14,36.22,246.14,30.44Zm12.38-.09v-.26c0-2.81-1.19-4.31-3.29-4.31s-3.29,1.44-3.29,4.34v.26c0,2.81,1.25,4.24,3.23,4.24S258.52,33.19,258.52,30.35Z" fill="#fff"/><path d="M272.78,21.92h5.71v3.32a5.26,5.26,0,0,1,5.39-3.54V27c-3.47-.1-5.39,1-5.39,3.67v7.91h-5.71Z" fill="#fff"/><path d="M284.91,30.47v-.25c0-5.36,4-8.74,9-8.74,4.56,0,8.48,2.61,8.48,8.61v1.5H290.68c.16,2.2,1.44,3.48,3.48,3.48,1.88,0,2.68-.86,2.9-2h5.36C301.91,36.85,299,39,294,39,288.74,39,284.91,35.93,284.91,30.47Zm12-2.1c-.09-2-1.08-3.13-2.93-3.13s-2.91,1.12-3.19,3.13Z" fill="#fff"/><path d="M303.61,34c0-3.92,3.32-5.45,8.87-5.45h1.59v-.39c0-1.59-.38-2.64-2.2-2.64a2,2,0,0,0-2.26,2h-5.36c.25-4,3.41-6,8-6s7.53,1.88,7.53,6.31V38.61H314.2v-2A5.46,5.46,0,0,1,309.25,39C306.26,39,303.61,37.52,303.61,34Zm10.46-1.21v-1h-1.5c-2.29,0-3.32.45-3.32,1.82,0,1,.64,1.56,2,1.56C312.86,35.13,314.07,34.21,314.07,32.77Z" fill="#fff"/><path d="M321.7,30.44v-.25c0-5.68,3.13-8.71,7.08-8.71a5.41,5.41,0,0,1,5.14,2.8v-9.7h5.71v24h-5.71V35.9a5.62,5.62,0,0,1-5.2,3.09C324.86,39,321.7,36.22,321.7,30.44Zm12.38-.09v-.26c0-2.81-1.18-4.31-3.29-4.31s-3.28,1.44-3.28,4.34v.26c0,2.81,1.24,4.24,3.22,4.24S334.08,33.19,334.08,30.35Z" fill="#fff"/><path d="M347.77,36.92l-6.67-15h6.19l3.45,8.9,3.19-8.9h5.46l-8.94,22.27H345Z" fill="#fff"/><path d="M367.43,33.25V25.82h-2v-3.9h2V18.45h5.71v3.47h3.29v3.9h-3.29v6.89a1.52,1.52,0,0,0,1.69,1.75,4.19,4.19,0,0,0,1.63-.29v4.34a11.68,11.68,0,0,1-3.16.48C369.54,39,367.43,37.17,367.43,33.25Z" fill="#fff"/><path d="M377.7,30.47v-.25c0-5.36,4-8.74,9.16-8.74S396,24.76,396,30.06v.25c0,5.43-4,8.68-9.12,8.68S377.7,35.87,377.7,30.47Zm12.45-.09v-.26c0-2.81-1.12-4.37-3.29-4.37s-3.32,1.5-3.32,4.31v.25c0,2.88,1.12,4.44,3.32,4.44S390.15,33.15,390.15,30.38Z" fill="#fff"/><path d="M402.85,38.61h5.68c.25,1.21,1,2.17,3.06,2.17,2.52,0,3.54-1.44,3.54-3.51V34.72A5.86,5.86,0,0,1,410,37.78c-3.89,0-7.08-2.87-7.08-8v-.25c0-4.92,3.16-8,7.08-8a5.42,5.42,0,0,1,5.17,2.8V21.92h5.71V37.21c0,5-3.28,7.59-9.25,7.59C405.91,44.8,403.3,42.41,402.85,38.61Zm12.44-8.87v-.22c0-2.3-1.18-3.77-3.28-3.77s-3.29,1.5-3.29,3.8v.25c0,2.3,1.21,3.77,3.25,3.77S415.29,32.1,415.29,29.74Z" fill="#fff"/><path d="M422.86,30.47v-.25c0-5.36,4-8.74,9-8.74,4.56,0,8.49,2.61,8.49,8.61v1.5H428.63c.16,2.2,1.44,3.48,3.48,3.48,1.88,0,2.68-.86,2.9-2h5.37c-.52,3.76-3.42,5.9-8.46,5.9C426.69,39,422.86,35.93,422.86,30.47Zm12-2.1c-.09-2-1.08-3.13-2.93-3.13s-2.91,1.12-3.19,3.13Z" fill="#fff"/><path d="M443.12,33.25V25.82h-2v-3.9h2V18.45h5.71v3.47h3.29v3.9h-3.29v6.89a1.52,1.52,0,0,0,1.69,1.75,4.19,4.19,0,0,0,1.63-.29v4.34A11.61,11.61,0,0,1,449,39C445.23,39,443.12,37.17,443.12,33.25Z" fill="#fff"/><path d="M465.33,36.92l-6.67-15h6.19l3.45,8.9,3.19-8.9h5.45L468,44.19h-5.46Z" fill="#fff"/><path d="M476.63,30.47v-.25c0-5.36,4-8.74,9.16-8.74s9.09,3.28,9.09,8.58v.25c0,5.43-4,8.68-9.13,8.68S476.63,35.87,476.63,30.47Zm12.44-.09v-.26c0-2.81-1.12-4.37-3.28-4.37s-3.32,1.5-3.32,4.31v.25c0,2.88,1.11,4.44,3.32,4.44S489.07,33.15,489.07,30.38Z" fill="#fff"/><path d="M496.76,32.8V21.92h5.71v10c0,1.88.74,2.81,2.37,2.81s2.84-1,2.84-3.16V21.92h5.71V38.61h-5.71V36a5.49,5.49,0,0,1-5.3,3C499.16,39,496.76,37,496.76,32.8Z" fill="#fff"/><path d="M516.29,21.92H522v3.32a5.27,5.27,0,0,1,5.4-3.54V27c-3.48-.1-5.4,1-5.4,3.67v7.91h-5.71Z" fill="#fff"/><path d="M120,56.3h5.72v2.55a5.83,5.83,0,0,1,5.23-3,4.55,4.55,0,0,1,4.53,2.78A6.6,6.6,0,0,1,141,55.85c3.16,0,5.45,2,5.45,6.22V73h-5.71V63c0-1.69-.83-2.52-2.13-2.52-1.54,0-2.56,1-2.56,2.81V73h-5.64V63c0-1.69-.83-2.52-2.14-2.52-1.53,0-2.55,1-2.55,2.81V73H120Z" fill="#fff"/><path d="M148.3,68.36c0-3.92,3.32-5.46,8.87-5.46h1.59v-.38c0-1.59-.38-2.65-2.2-2.65a2,2,0,0,0-2.26,2h-5.36c.25-4,3.41-6,8-6s7.53,1.89,7.53,6.32V73h-5.55V71A5.48,5.48,0,0,1,154,73.37C151,73.37,148.3,71.9,148.3,68.36Zm10.46-1.21v-1h-1.5c-2.29,0-3.31.44-3.31,1.82,0,1,.63,1.56,2,1.56C157.55,69.51,158.76,68.58,158.76,67.15Z" fill="#fff"/><path d="M171.43,64.5l-5.2-8.2h6.57l2.59,4.4,2.52-4.4h5.87l-5.26,7.75L184.29,73h-6.57l-3-5-3,5h-5.84Z" fill="#fff"/><path d="M185.76,51.77a3,3,0,0,1,3.13-3,3,3,0,0,1,3.16,3,3,3,0,0,1-3.16,2.93A3,3,0,0,1,185.76,51.77Zm.29,4.53h5.71V73h-5.71Z" fill="#fff"/><path d="M194.82,56.3h5.72v2.55a5.83,5.83,0,0,1,5.23-3,4.55,4.55,0,0,1,4.53,2.78,6.6,6.6,0,0,1,5.52-2.78c3.16,0,5.45,2,5.45,6.22V73h-5.71V63c0-1.69-.83-2.52-2.13-2.52-1.54,0-2.56,1-2.56,2.81V73h-5.64V63c0-1.69-.83-2.52-2.14-2.52-1.53,0-2.55,1-2.55,2.81V73h-5.72Z" fill="#fff"/><path d="M223.93,67.18V56.3h5.71v10c0,1.89.73,2.81,2.36,2.81s2.84-1,2.84-3.16V56.3h5.71V73h-5.71V70.4a5.47,5.47,0,0,1-5.3,3C226.32,73.37,223.93,71.39,223.93,67.18Z" fill="#fff"/><path d="M243.46,56.3h5.71v2.55a5.84,5.84,0,0,1,5.23-3,4.55,4.55,0,0,1,4.53,2.78,6.61,6.61,0,0,1,5.52-2.78c3.16,0,5.46,2,5.46,6.22V73H264.2V63c0-1.69-.83-2.52-2.14-2.52-1.53,0-2.56,1-2.56,2.81V73h-5.64V63c0-1.69-.83-2.52-2.14-2.52-1.53,0-2.55,1-2.55,2.81V73h-5.71Z" fill="#fff"/><path d="M278.49,56.3h5.72v3.32a5.24,5.24,0,0,1,5.39-3.54V61.4c-3.48-.09-5.39,1-5.39,3.67V73h-5.72Z" fill="#fff"/><path d="M290.62,64.85v-.26c0-5.36,4-8.74,9-8.74,4.56,0,8.49,2.62,8.49,8.62V66H296.4c.16,2.2,1.43,3.47,3.47,3.47,1.89,0,2.68-.86,2.91-2h5.36c-.51,3.76-3.42,5.9-8.46,5.9C294.45,73.37,290.62,70.31,290.62,64.85Zm12-2.11c-.1-2-1.09-3.12-2.94-3.12s-2.9,1.11-3.19,3.12Z" fill="#fff"/><path d="M311,60.19h-2.11V56.3H311V54.83c0-4.15,2.58-6.12,6.54-6.12a10.32,10.32,0,0,1,2.62.35v4.18a5.21,5.21,0,0,0-1.57-.23,1.68,1.68,0,0,0-1.91,1.82V56.3H320v3.89h-3.38V73H311Z" fill="#fff"/><path d="M321.83,67.18V56.3h5.71v10c0,1.89.73,2.81,2.36,2.81s2.84-1,2.84-3.16V56.3h5.71V73h-5.71V70.4a5.47,5.47,0,0,1-5.3,3C324.22,73.37,321.83,71.39,321.83,67.18Z" fill="#fff"/><path d="M341.36,56.3h5.71V59a5.89,5.89,0,0,1,5.49-3.13c3.22,0,5.45,2,5.45,6.29V73H352.3v-9.7c0-1.89-.73-2.81-2.39-2.81s-2.84,1-2.84,3.16V73h-5.71Z" fill="#fff"/><path d="M360,64.82v-.26c0-5.68,3.13-8.71,7.09-8.71a5.4,5.4,0,0,1,5.13,2.81V49h5.71V73h-5.71V70.27a5.61,5.61,0,0,1-5.2,3.1C363.12,73.37,360,70.59,360,64.82Zm12.38-.1v-.25c0-2.81-1.18-4.31-3.28-4.31s-3.29,1.44-3.29,4.34v.25C365.77,67.56,367,69,369,69S372.34,67.56,372.34,64.72Z" fill="#fff"/><path d="M387.38,67.63V60.19h-2V56.3h2V52.82h5.71V56.3h3.28v3.89h-3.28v6.89c0,1.22.6,1.76,1.69,1.76a4.33,4.33,0,0,0,1.62-.29v4.34a11.93,11.93,0,0,1-3.15.48C389.48,73.37,387.38,71.55,387.38,67.63Z" fill="#fff"/><path d="M397.65,64.85v-.26c0-5.36,4-8.74,9.16-8.74s9.09,3.29,9.09,8.59v.25c0,5.43-4,8.68-9.13,8.68S397.65,70.24,397.65,64.85Zm12.44-.1V64.5c0-2.81-1.11-4.37-3.28-4.37s-3.32,1.5-3.32,4.31v.25c0,2.87,1.11,4.44,3.32,4.44S410.09,67.53,410.09,64.75Z" fill="#fff"/><path d="M417.08,64.82v-.26c0-5.68,3.13-8.71,7.09-8.71a5.4,5.4,0,0,1,5.13,2.81V49H435V73H429.3V70.27a5.61,5.61,0,0,1-5.2,3.1C420.24,73.37,417.08,70.59,417.08,64.82Zm12.38-.1v-.25c0-2.81-1.18-4.31-3.28-4.31s-3.29,1.44-3.29,4.34v.25c0,2.81,1.24,4.25,3.22,4.25S429.46,67.56,429.46,64.72Z" fill="#fff"/><path d="M437,68.36c0-3.92,3.32-5.46,8.87-5.46h1.6v-.38c0-1.59-.38-2.65-2.2-2.65a2.06,2.06,0,0,0-2.27,2H437.6c.26-4,3.42-6,8-6s7.53,1.89,7.53,6.32V73h-5.55V71a5.5,5.5,0,0,1-4.95,2.33C439.61,73.37,437,71.9,437,68.36Zm10.47-1.21v-1h-1.5c-2.3,0-3.32.44-3.32,1.82,0,1,.64,1.56,2,1.56C446.22,69.51,447.43,68.58,447.43,67.15Z" fill="#fff"/><path d="M460.55,71.29l-6.67-15h6.19l3.44,8.9,3.19-8.9h5.46l-8.93,22.27h-5.46Z" fill="#fff"/><path d="M471,70.12a3.18,3.18,0,0,1,3.25-3.23,3.23,3.23,0,1,1,0,6.45A3.18,3.18,0,0,1,471,70.12Z" fill="#fff"/></g><g id="Layer_10" data-name="Layer 10"><rect width="728" height="90" fill="none"/></g></g></g></svg>