<svg xmlns="http://www.w3.org/2000/svg" viewBox="0 0 160 600"><title>H67</title><g id="Layer_2" data-name="Layer 2"><g id="Rect"><rect width="160" height="600" fill="none"/></g><g id="H67"><g id="File_for_nada_zip_zero._Free_Federal._Free_State." data-name="File for nada,  zip, zero.  Free  Federal. Free  State."><path d="M22.85,106.74H36.34v4.44H28.61v4.25h6.17v4.21H28.61v7.07H22.85Z" fill="#fff"/><path d="M37.77,108.14a2.76,2.76,0,1,1,2.74,2.57A2.61,2.61,0,0,1,37.77,108.14Zm.25,4h5v14.61H38Z" fill="#fff"/><path d="M45.84,105.68h5v21h-5Z" fill="#fff"/><path d="M52.71,119.59v-.22c0-4.7,3.49-7.66,7.91-7.66,4,0,7.42,2.29,7.42,7.54v1.32H57.77a2.91,2.91,0,0,0,3,3c1.65,0,2.35-.75,2.54-1.73H68c-.44,3.29-3,5.16-7.4,5.16C56.06,127,52.71,124.36,52.71,119.59Zm10.47-1.84C63.1,116,62.24,115,60.62,115s-2.55,1-2.8,2.74Z" fill="#fff"/><path d="M75.62,115.51H73.77V112.1h1.85v-1.28c0-3.63,2.26-5.36,5.72-5.36a8.8,8.8,0,0,1,2.29.31v3.65a4.65,4.65,0,0,0-1.37-.19,1.46,1.46,0,0,0-1.67,1.59v1.28h3v3.41h-3v11.2h-5Z" fill="#fff"/><path d="M83.94,119.59v-.22c0-4.7,3.49-7.66,8-7.66s8,2.88,8,7.52v.22c0,4.75-3.49,7.59-8,7.59S83.94,124.31,83.94,119.59Zm10.89-.09v-.22c0-2.46-1-3.82-2.88-3.82s-2.9,1.31-2.9,3.77v.22c0,2.51,1,3.88,2.9,3.88S94.83,121.93,94.83,119.5Z" fill="#fff"/><path d="M101.68,112.1h5V115a4.61,4.61,0,0,1,4.72-3.1v4.66c-3-.08-4.72.87-4.72,3.21v6.93h-5Z" fill="#fff"/><path d="M22.41,146h5v2.35a5.15,5.15,0,0,1,4.8-2.74c2.82,0,4.77,1.76,4.77,5.5v9.5H32v-8.49c0-1.65-.65-2.46-2.1-2.46s-2.48.89-2.48,2.76v8.19h-5Z" fill="#fff"/><path d="M38.58,156.59c0-3.44,2.9-4.78,7.76-4.78h1.4v-.33c0-1.4-.34-2.32-1.93-2.32a1.79,1.79,0,0,0-2,1.73H39.14c.22-3.52,3-5.25,7-5.25s6.59,1.65,6.59,5.53v9.47H47.85v-1.71a4.8,4.8,0,0,1-4.33,2C40.9,161,38.58,159.69,38.58,156.59Zm9.16-1.06v-.9H46.43c-2,0-2.91.39-2.91,1.59,0,.84.56,1.37,1.73,1.37C46.68,157.59,47.74,156.78,47.74,155.53Z" fill="#fff"/><path d="M54.42,153.49v-.23c0-5,2.73-7.62,6.2-7.62a4.73,4.73,0,0,1,4.49,2.46v-8.49h5v21h-5v-2.38A4.91,4.91,0,0,1,60.56,161C57.18,161,54.42,158.54,54.42,153.49Zm10.83-.09v-.22c0-2.46-1-3.77-2.87-3.77s-2.88,1.26-2.88,3.8v.22c0,2.46,1.09,3.72,2.82,3.72S65.25,155.89,65.25,153.4Z" fill="#fff"/><path d="M71.82,156.59c0-3.44,2.9-4.78,7.76-4.78H81v-.33c0-1.4-.34-2.32-1.93-2.32a1.79,1.79,0,0,0-2,1.73H72.38c.22-3.52,3-5.25,7-5.25S86,147.29,86,151.17v9.47H81.09v-1.71a4.8,4.8,0,0,1-4.33,2C74.14,161,71.82,159.69,71.82,156.59ZM81,155.53v-.9H79.66c-2,0-2.9.39-2.9,1.59,0,.84.56,1.37,1.73,1.37C79.92,157.59,81,156.78,81,155.53Z" fill="#fff"/><path d="M87.35,162.9l2.34-7.35,4.64,1.65-4,6.84Z" fill="#fff"/><path d="M21.21,194.06l6.39-10.33H21.88V180H34.75v.53l-6.56,10.3h6.23v3.77H21.21Z" fill="#fff"/><path d="M36.07,176a2.6,2.6,0,0,1,2.73-2.59,2.59,2.59,0,1,1,0,5.16A2.58,2.58,0,0,1,36.07,176Zm.25,4h5v14.6h-5Z" fill="#fff"/><path d="M44,180h5v2.18a5.13,5.13,0,0,1,4.55-2.57c3.41,0,6.17,2.57,6.17,7.56v.23c0,5-2.76,7.54-6.2,7.54A4.81,4.81,0,0,1,49,192.41v7H44Zm10.64,7.4v-.23c0-2.56-1.12-3.79-2.88-3.79s-2.9,1.31-2.9,3.77v.22c0,2.49,1.09,3.74,2.9,3.74S54.64,189.76,54.64,187.36Z" fill="#fff"/><path d="M60.14,196.82l2.35-7.34,4.63,1.65-4,6.84Z" fill="#fff"/><path d="M73.19,194.06l6.39-10.33H73.86V180H86.73v.53l-6.56,10.3h6.22v3.77H73.19Z" fill="#fff"/><path d="M87.15,187.44v-.22c0-4.69,3.49-7.65,7.9-7.65,4,0,7.43,2.29,7.43,7.54v1.31H92.21a2.91,2.91,0,0,0,3,3c1.65,0,2.35-.75,2.54-1.73h4.69c-.44,3.3-3,5.17-7.4,5.17C90.5,194.9,87.15,192.22,87.15,187.44Zm10.47-1.84c-.08-1.76-1-2.74-2.57-2.74s-2.54,1-2.79,2.74Z" fill="#fff"/><path d="M104.22,180h5v2.9a4.59,4.59,0,0,1,4.71-3.1v4.67c-3-.09-4.71.86-4.71,3.21v6.92h-5Z" fill="#fff"/><path d="M114.83,187.44v-.22c0-4.69,3.49-7.65,8-7.65s8,2.87,8,7.51v.22c0,4.75-3.49,7.6-8,7.6S114.83,192.16,114.83,187.44Zm10.89-.08v-.23c0-2.45-1-3.82-2.88-3.82s-2.9,1.31-2.9,3.77v.22c0,2.52,1,3.88,2.9,3.88S125.72,189.79,125.72,187.36Z" fill="#fff"/><path d="M131.76,192.05a2.79,2.79,0,0,1,2.85-2.82,2.82,2.82,0,1,1,0,5.64A2.79,2.79,0,0,1,131.76,192.05Z" fill="#fff"/><path d="M22.85,208.52H36.34V213H28.61v4.25h6.17v4.21H28.61v7.07H22.85Z" fill="#fff"/><path d="M37.69,213.89h5v2.9a4.61,4.61,0,0,1,4.72-3.1v4.66c-3-.08-4.72.87-4.72,3.21v6.93h-5Z" fill="#fff"/><path d="M48.3,221.37v-.22c0-4.7,3.49-7.66,7.9-7.66,4,0,7.43,2.29,7.43,7.54v1.32H53.35a2.92,2.92,0,0,0,3,3c1.65,0,2.34-.75,2.54-1.73h4.69c-.45,3.29-3,5.16-7.4,5.16C51.65,228.82,48.3,226.14,48.3,221.37Zm10.47-1.84c-.08-1.76-1-2.74-2.57-2.74s-2.54,1-2.79,2.74Z" fill="#fff"/><path d="M64.58,221.37v-.22c0-4.7,3.49-7.66,7.91-7.66,4,0,7.42,2.29,7.42,7.54v1.32H69.64a2.92,2.92,0,0,0,3,3c1.65,0,2.35-.75,2.54-1.73h4.69c-.44,3.29-3,5.16-7.4,5.16C67.94,228.82,64.58,226.14,64.58,221.37Zm10.48-1.84c-.09-1.76-1-2.74-2.57-2.74s-2.54,1-2.8,2.74Z" fill="#fff"/><path d="M22.85,242.45H36.34v4.44H28.61v4.24h6.17v4.22H28.61v7.07H22.85Z" fill="#fff"/><path d="M36.74,255.3v-.23c0-4.69,3.49-7.65,7.9-7.65,4,0,7.43,2.29,7.43,7.54v1.31H41.79a2.92,2.92,0,0,0,3,3.05c1.65,0,2.35-.76,2.55-1.73h4.69c-.45,3.29-3,5.16-7.4,5.16C40.09,262.75,36.74,260.07,36.74,255.3Zm10.47-1.85c-.09-1.76-1-2.73-2.57-2.73s-2.54,1-2.79,2.73Z" fill="#fff"/><path d="M53.08,255.27V255c0-5,2.73-7.62,6.2-7.62a4.73,4.73,0,0,1,4.49,2.46v-8.49h5v21h-5V260a4.91,4.91,0,0,1-4.55,2.71C55.84,262.75,53.08,260.32,53.08,255.27Zm10.83-.09V255c0-2.46-1-3.77-2.87-3.77s-2.88,1.26-2.88,3.8v.22c0,2.46,1.09,3.72,2.82,3.72S63.91,257.67,63.91,255.18Z" fill="#fff"/><path d="M70.53,255.3v-.23c0-4.69,3.49-7.65,7.91-7.65,4,0,7.42,2.29,7.42,7.54v1.31H75.59a2.91,2.91,0,0,0,3,3.05c1.65,0,2.35-.76,2.54-1.73h4.69c-.44,3.29-3,5.16-7.4,5.16C73.88,262.75,70.53,260.07,70.53,255.3ZM81,253.45c-.08-1.76-.94-2.73-2.56-2.73s-2.54,1-2.8,2.73Z" fill="#fff"/><path d="M87.6,247.81h5v2.91a4.59,4.59,0,0,1,4.72-3.1v4.66c-3-.08-4.72.87-4.72,3.21v6.93h-5Z" fill="#fff"/><path d="M98,258.37c0-3.44,2.9-4.78,7.76-4.78h1.4v-.33c0-1.4-.34-2.32-1.93-2.32a1.79,1.79,0,0,0-2,1.73H98.52c.22-3.52,3-5.25,7-5.25s6.59,1.65,6.59,5.53v9.47h-4.86v-1.71a4.8,4.8,0,0,1-4.33,2C100.28,262.75,98,261.47,98,258.37Zm9.16-1.06v-.9h-1.31c-2,0-2.91.39-2.91,1.59,0,.84.56,1.37,1.73,1.37C106.06,259.37,107.12,258.56,107.12,257.31Z" fill="#fff"/><path d="M114.66,241.39h5v21h-5Z" fill="#fff"/><path d="M122.12,259.9a2.79,2.79,0,0,1,2.85-2.82,2.82,2.82,0,1,1,0,5.64A2.78,2.78,0,0,1,122.12,259.9Z" fill="#fff"/><path d="M22.85,276.38H36.34v4.44H28.61v4.24h6.17v4.22H28.61v7.06H22.85Z" fill="#fff"/><path d="M37.69,281.74h5v2.9a4.63,4.63,0,0,1,4.72-3.1v4.67c-3-.09-4.72.86-4.72,3.21v6.92h-5Z" fill="#fff"/><path d="M48.3,289.22V289c0-4.69,3.49-7.65,7.9-7.65,4,0,7.43,2.29,7.43,7.54v1.31H53.35a2.91,2.91,0,0,0,3,3c1.65,0,2.34-.75,2.54-1.73h4.69c-.45,3.3-3,5.17-7.4,5.17C51.65,296.68,48.3,294,48.3,289.22Zm10.47-1.84c-.08-1.76-1-2.74-2.57-2.74s-2.54,1-2.79,2.74Z" fill="#fff"/><path d="M64.58,289.22V289c0-4.69,3.49-7.65,7.91-7.65,4,0,7.42,2.29,7.42,7.54v1.31H69.64a2.91,2.91,0,0,0,3,3c1.65,0,2.35-.75,2.54-1.73h4.69c-.44,3.3-3,5.17-7.4,5.17C67.94,296.68,64.58,294,64.58,289.22Zm10.48-1.84c-.09-1.76-1-2.74-2.57-2.74s-2.54,1-2.8,2.74Z" fill="#fff"/><path d="M21.57,323.93H27c.14,1.43.78,2.6,3.15,2.6,1.65,0,2.57-.81,2.57-2S32,323,29.58,322.62C23.94,322,22,320.27,22,316.25c0-3.6,3-6.22,7.74-6.22s7.51,2,7.87,6.22h-5.3a2.27,2.27,0,0,0-2.57-2.15c-1.54,0-2.32.7-2.32,1.7s.62,1.62,3.1,2c5.06.56,7.65,1.87,7.65,6.2,0,3.66-2.9,6.64-8,6.64C24.59,330.6,21.74,328.26,21.57,323.93Z" fill="#fff"/><path d="M40.73,325.58v-6.51H39v-3.4h1.76v-3.05h5v3.05H48.6v3.4H45.73v6c0,1.07.53,1.54,1.48,1.54a3.71,3.71,0,0,0,1.42-.25v3.8a10.84,10.84,0,0,1-2.76.41C42.57,330.6,40.73,329,40.73,325.58Z" fill="#fff"/><path d="M49.72,326.22c0-3.43,2.91-4.77,7.77-4.77h1.39v-.34c0-1.4-.33-2.32-1.92-2.32a1.8,1.8,0,0,0-2,1.73H50.28c.23-3.51,3-5.25,7-5.25s6.59,1.65,6.59,5.53v9.47H59v-1.7a4.81,4.81,0,0,1-4.33,2C52,330.6,49.72,329.32,49.72,326.22Zm9.16-1.06v-.89H57.57c-2,0-2.9.39-2.9,1.59,0,.84.56,1.37,1.73,1.37A2.2,2.2,0,0,0,58.88,325.16Z" fill="#fff"/><path d="M66.87,325.58v-6.51H65.12v-3.4h1.75v-3.05h5v3.05h2.88v3.4H71.87v6c0,1.07.53,1.54,1.48,1.54a3.8,3.8,0,0,0,1.43-.25v3.8a10.93,10.93,0,0,1-2.77.41C68.72,330.6,66.87,329,66.87,325.58Z" fill="#fff"/><path d="M75.87,323.15v-.22c0-4.7,3.49-7.66,7.9-7.66,4,0,7.43,2.29,7.43,7.54v1.32H80.92a2.92,2.92,0,0,0,3,3c1.64,0,2.34-.75,2.54-1.73H91.2c-.45,3.29-3,5.16-7.4,5.16C79.22,330.6,75.87,327.92,75.87,323.15Zm10.47-1.84c-.08-1.76-1-2.74-2.57-2.74s-2.54,1-2.79,2.74Z" fill="#fff"/><path d="M92.6,327.76a2.78,2.78,0,0,1,2.85-2.82,2.82,2.82,0,1,1,0,5.64A2.79,2.79,0,0,1,92.6,327.76Z" fill="#fff"/></g></g></g></svg>