<svg xmlns="http://www.w3.org/2000/svg" viewBox="0 0 728 90"><title>H12</title><g id="Layer_2" data-name="Layer 2"><g id="Rect"><rect width="728" height="90" fill="none"/></g><g id="H12"><g id="The_best_part_of_filing_free_with_H_R_Block_Online_is_it_s_free" data-name="The best part of filing free with H&amp;R Block Online is it&apos;s free"><path d="M126.23,22.93h-5.59V18.15h17.42v4.78h-5.6V39.78h-6.23Z" fill="#fff"/><path d="M139.84,17h5.42v9.5a5.58,5.58,0,0,1,5.2-3c3,0,5.17,1.9,5.17,6V39.78h-5.41v-9.2c0-1.78-.7-2.66-2.27-2.66s-2.69,1-2.69,3v8.86h-5.42Z" fill="#fff"/><path d="M157.42,32.07v-.25c0-5.08,3.78-8.28,8.56-8.28,4.32,0,8,2.48,8,8.16v1.42H162.89c.15,2.09,1.36,3.3,3.3,3.3,1.78,0,2.54-.82,2.75-1.87H174c-.48,3.56-3.23,5.59-8,5.59C161.05,40.14,157.42,37.24,157.42,32.07Zm11.34-2c-.09-1.91-1-3-2.78-3s-2.75,1.05-3,3Z" fill="#fff"/><path d="M186.82,37.33v2.45h-5.41V17h5.41v9.32a5.59,5.59,0,0,1,4.93-2.78c3.69,0,6.68,2.78,6.68,8.19V32c0,5.44-3,8.16-6.71,8.16A5.14,5.14,0,0,1,186.82,37.33ZM192.93,32v-.25c0-2.78-1.21-4.11-3.12-4.11s-3.14,1.42-3.14,4.08v.24c0,2.7,1.18,4.06,3.14,4.06S192.93,34.58,192.93,32Z" fill="#fff"/><path d="M199.56,32.07v-.25c0-5.08,3.78-8.28,8.55-8.28,4.33,0,8,2.48,8,8.16v1.42H205c.15,2.09,1.36,3.3,3.3,3.3,1.78,0,2.54-.82,2.75-1.87h5.08c-.48,3.56-3.24,5.59-8,5.59C203.19,40.14,199.56,37.24,199.56,32.07Zm11.34-2c-.09-1.91-1-3-2.79-3s-2.75,1.05-3,3Z" fill="#fff"/><path d="M217.13,34.76h5c.18,1.15.7,1.78,2.24,1.78,1.33,0,1.93-.51,1.93-1.3s-.75-1.12-2.93-1.42c-4.23-.54-6-1.78-6-5.08,0-3.51,3.12-5.2,6.78-5.2,3.9,0,6.62,1.33,7,5.11h-4.9a1.76,1.76,0,0,0-2-1.57c-1.18,0-1.79.51-1.79,1.24s.73,1.05,2.66,1.3c4.39.54,6.51,1.69,6.51,5.08,0,3.75-2.79,5.44-7.17,5.44S217.25,38.27,217.13,34.76Z" fill="#fff"/><path d="M234,34.7V27.65h-1.91V24H234v-3.3h5.41V24h3.12v3.69h-3.12v6.53a1.45,1.45,0,0,0,1.61,1.67,4,4,0,0,0,1.54-.28v4.12a11.46,11.46,0,0,1-3,.45C236,40.14,234,38.42,234,34.7Z" fill="#fff"/><path d="M250.13,24h5.42v2.36a5.58,5.58,0,0,1,4.93-2.78c3.69,0,6.68,2.78,6.68,8.19V32c0,5.44-3,8.16-6.71,8.16a5.21,5.21,0,0,1-4.9-2.69v7.62h-5.42Zm11.53,8v-.25c0-2.78-1.21-4.11-3.12-4.11S255.4,29,255.4,31.7v.24c0,2.7,1.17,4.06,3.14,4.06S261.66,34.58,261.66,32Z" fill="#fff"/><path d="M268.22,35.39c0-3.72,3.15-5.17,8.41-5.17h1.51v-.36c0-1.51-.36-2.51-2.08-2.51a1.94,1.94,0,0,0-2.15,1.87h-5.08c.24-3.81,3.23-5.68,7.56-5.68s7.13,1.78,7.13,6V39.78h-5.26V37.93a5.17,5.17,0,0,1-4.68,2.21C270.73,40.14,268.22,38.75,268.22,35.39Zm9.92-1.15v-1h-1.42c-2.18,0-3.14.42-3.14,1.72,0,.91.6,1.48,1.87,1.48C277,36.48,278.14,35.6,278.14,34.24Z" fill="#fff"/><path d="M286.16,24h5.41v3.15a5,5,0,0,1,5.11-3.36V28.8c-3.29-.09-5.11.94-5.11,3.48v7.5h-5.41Z" fill="#fff"/><path d="M299.62,34.7V27.65h-1.9V24h1.9v-3.3H305V24h3.12v3.69H305v6.53a1.45,1.45,0,0,0,1.61,1.67,4,4,0,0,0,1.54-.28v4.12a11.44,11.44,0,0,1-3,.45C301.62,40.14,299.62,38.42,299.62,34.7Z" fill="#fff"/><path d="M314.87,32.07v-.25c0-5.08,3.78-8.28,8.68-8.28s8.62,3.11,8.62,8.13v.25c0,5.14-3.78,8.22-8.65,8.22S314.87,37.18,314.87,32.07ZM326.66,32v-.25c0-2.66-1.06-4.14-3.11-4.14S320.4,29,320.4,31.67v.25c0,2.72,1.06,4.2,3.15,4.2S326.66,34.61,326.66,32Z" fill="#fff"/><path d="M334.89,27.65h-2V24h2V22.57c0-3.93,2.45-5.81,6.2-5.81a9.22,9.22,0,0,1,2.48.34v4a5,5,0,0,0-1.48-.21,1.59,1.59,0,0,0-1.82,1.72V24h3.21v3.69h-3.21V39.78h-5.38Z" fill="#fff"/><path d="M351.62,27.65h-2V24h2V22.57c0-3.93,2.45-5.81,6.2-5.81a9.28,9.28,0,0,1,2.48.34v4a5,5,0,0,0-1.48-.21A1.59,1.59,0,0,0,357,22.57V24h3.21v3.69H357V39.78h-5.38Z" fill="#fff"/><path d="M361.9,19.67a3,3,0,1,1,3,2.78A2.83,2.83,0,0,1,361.9,19.67Zm.28,4.29h5.41V39.78h-5.41Z" fill="#fff"/><path d="M370.65,17H376V39.78h-5.38Z" fill="#fff"/><path d="M378.81,19.67a3,3,0,1,1,3,2.78A2.83,2.83,0,0,1,378.81,19.67Zm.27,4.29h5.42V39.78h-5.42Z" fill="#fff"/><path d="M387.4,24h5.42V26.5a5.58,5.58,0,0,1,5.2-3c3.05,0,5.17,1.9,5.17,6V39.78h-5.41v-9.2c0-1.78-.7-2.66-2.27-2.66s-2.69,1-2.69,3v8.86H387.4Z" fill="#fff"/><path d="M405,39.78h5.38c.24,1.15.94,2,2.91,2,2.38,0,3.35-1.36,3.35-3.32V36.09a5.54,5.54,0,0,1-4.9,2.9C408,39,405,36.27,405,31.4v-.24c0-4.66,3-7.62,6.71-7.62a5.14,5.14,0,0,1,4.9,2.66V24H422V38.45c0,4.72-3.12,7.2-8.77,7.2C407.85,45.65,405.37,43.38,405,39.78Zm11.79-8.41v-.21c0-2.18-1.12-3.57-3.11-3.57s-3.12,1.42-3.12,3.6v.24c0,2.18,1.15,3.57,3.09,3.57S416.74,33.61,416.74,31.37Z" fill="#fff"/><path d="M431.08,27.65h-2V24h2V22.57c0-3.93,2.45-5.81,6.2-5.81a9.22,9.22,0,0,1,2.48.34v4a5,5,0,0,0-1.48-.21,1.58,1.58,0,0,0-1.81,1.72V24h3.2v3.69h-3.2V39.78h-5.39Z" fill="#fff"/><path d="M441.49,24h5.41v3.15A5,5,0,0,1,452,23.75V28.8c-3.29-.09-5.11.94-5.11,3.48v7.5h-5.41Z" fill="#fff"/><path d="M453,32.07v-.25c0-5.08,3.78-8.28,8.55-8.28,4.33,0,8,2.48,8,8.16v1.42H458.46c.15,2.09,1.36,3.3,3.3,3.3,1.78,0,2.54-.82,2.75-1.87h5.08c-.49,3.56-3.24,5.59-8,5.59C456.61,40.14,453,37.24,453,32.07Zm11.34-2c-.09-1.91-1-3-2.79-3s-2.75,1.05-3,3Z" fill="#fff"/><path d="M470.62,32.07v-.25c0-5.08,3.78-8.28,8.56-8.28,4.32,0,8,2.48,8,8.16v1.42H476.09c.16,2.09,1.37,3.3,3.3,3.3s2.54-.82,2.75-1.87h5.08c-.48,3.56-3.23,5.59-8,5.59C474.25,40.14,470.62,37.24,470.62,32.07Zm11.34-2c-.09-1.91-1-3-2.78-3s-2.75,1.05-3,3Z" fill="#fff"/><path d="M493.28,24h5.65l2.3,9.47L503.89,24h4.36l2.36,9.47L513.18,24h5.14l-5,15.82h-5.17L505.77,31l-2.45,8.83h-5.26Z" fill="#fff"/><path d="M519.59,19.67a3,3,0,1,1,3,2.78A2.83,2.83,0,0,1,519.59,19.67Zm.28,4.29h5.41V39.78h-5.41Z" fill="#fff"/><path d="M528.91,34.7V27.65H527V24h1.9v-3.3h5.41V24h3.12v3.69h-3.12v6.53a1.45,1.45,0,0,0,1.61,1.67,4,4,0,0,0,1.54-.28v4.12a11.44,11.44,0,0,1-3,.45C530.91,40.14,528.91,38.42,528.91,34.7Z" fill="#fff"/><path d="M539.5,17h5.41v9.5a5.59,5.59,0,0,1,5.2-3c3.06,0,5.18,1.9,5.18,6V39.78h-5.42v-9.2c0-1.78-.69-2.66-2.27-2.66s-2.69,1-2.69,3v8.86H539.5Z" fill="#fff"/><path d="M122.09,50.4h6.23v8.26h7.1V50.4h6.2V72h-6.2V63.5h-7.1V72h-6.23Z" fill="#fff"/><path d="M162.38,67.61,166,72h-7l-1.27-1.57a8.67,8.67,0,0,1-5.84,1.93c-4.6,0-7.59-2.42-7.59-6.53,0-2.78,1.69-4.84,4.75-6.29a6.87,6.87,0,0,1-1.33-3.78c0-3.69,3.14-5.66,6.95-5.66,3.45,0,6.57,1.73,6.57,5,0,2.36-1.4,4.09-4.33,5.36l2.72,3.32,1.58-3.08h4.71Zm-7.5-.63-3.42-4.12A2.56,2.56,0,0,0,150,65.19a2.5,2.5,0,0,0,2.75,2.69A2.86,2.86,0,0,0,154.88,67Zm-.67-8.71c1.45-.7,2.15-1.52,2.15-2.63A1.56,1.56,0,0,0,154.75,54,1.73,1.73,0,0,0,153,55.85,4,4,0,0,0,154.21,58.27Z" fill="#fff"/><path d="M168,50.4h8.46c5.66,0,8.8,2.3,8.8,6.87v.12a5.65,5.65,0,0,1-3.9,5.69l5.17,9H180l-4.38-7.74h-1.45V72H168Zm8.16,9.86c2.09,0,3.12-.87,3.12-2.63v-.12c0-1.75-1.09-2.45-3.09-2.45h-2v5.2Z" fill="#fff"/><path d="M194.08,50.4h9.65c5.11,0,7.29,2.3,7.29,5.66v.12a4.46,4.46,0,0,1-3.66,4.66,4.69,4.69,0,0,1,4.32,5V66c0,3.87-2.51,6-7.86,6h-9.74ZM202.49,59c1.93,0,2.66-.66,2.66-2.2v-.12c0-1.49-.79-2.15-2.66-2.15h-2.36V59Zm.21,8.89c2,0,2.87-.9,2.87-2.5v-.13c0-1.63-.87-2.48-3-2.48h-2.39v5.11Z" fill="#fff"/><path d="M213.83,49.25h5.39V72h-5.39Z" fill="#fff"/><path d="M221.28,64.32v-.25c0-5.08,3.78-8.28,8.68-8.28s8.61,3.11,8.61,8.13v.25c0,5.14-3.78,8.22-8.65,8.22S221.28,69.43,221.28,64.32Zm11.79-.09V64c0-2.66-1.06-4.14-3.11-4.14s-3.15,1.42-3.15,4.08v.25c0,2.72,1.06,4.2,3.15,4.2S233.07,66.86,233.07,64.23Z" fill="#fff"/><path d="M239.64,64.32v-.25c0-5.26,3.78-8.28,8.43-8.28,3.88,0,7.44,1.69,7.75,6.5h-5.08A2.35,2.35,0,0,0,248.2,60c-1.91,0-3,1.36-3,4v.25c0,2.75,1.06,4.17,3.12,4.17A2.63,2.63,0,0,0,251,65.8h4.87c-.15,4-2.85,6.59-8,6.59C243.24,72.39,239.64,69.64,239.64,64.32Z" fill="#fff"/><path d="M257.67,49.25h5.41V62.47l4.26-6.26H273l-5.17,7.11L273.39,72h-6.05l-4.26-6.93V72h-5.41Z" fill="#fff"/><path d="M279.51,61.35v-.24c0-6.59,5-11,11.43-11S302.4,54.25,302.4,61v.24c0,6.65-4.57,11.19-11.55,11.19S279.51,67.85,279.51,61.35Zm16.42-.06v-.24c0-3.84-1.94-6.11-5-6.11s-5,2.21-5,6.14v.24c0,3.93,2,6.2,5,6.2S295.93,65.16,295.93,61.29Z" fill="#fff"/><path d="M304.49,56.21h5.41v2.54a5.6,5.6,0,0,1,5.21-3c3.05,0,5.17,1.9,5.17,6V72h-5.42v-9.2c0-1.78-.69-2.66-2.26-2.66s-2.7,1-2.7,3V72h-5.41Z" fill="#fff"/><path d="M323.06,49.25h5.39V72h-5.39Z" fill="#fff"/><path d="M331.23,51.92a3,3,0,1,1,3,2.78A2.83,2.83,0,0,1,331.23,51.92Zm.27,4.29h5.42V72H331.5Z" fill="#fff"/><path d="M339.82,56.21h5.42v2.54a5.58,5.58,0,0,1,5.2-3c3.05,0,5.17,1.9,5.17,6V72H350.2v-9.2c0-1.78-.7-2.66-2.27-2.66s-2.69,1-2.69,3V72h-5.42Z" fill="#fff"/><path d="M357.4,64.32v-.25c0-5.08,3.78-8.28,8.56-8.28,4.32,0,8,2.48,8,8.16v1.43H362.87c.15,2.08,1.36,3.29,3.3,3.29,1.78,0,2.54-.82,2.75-1.87H374c-.48,3.56-3.23,5.59-8,5.59C361,72.39,357.4,69.49,357.4,64.32Zm11.34-2c-.09-1.9-1-3-2.78-3s-2.76,1.06-3,3Z" fill="#fff"/><path d="M381.26,51.92a3,3,0,1,1,3,2.78A2.83,2.83,0,0,1,381.26,51.92Zm.28,4.29H387V72h-5.41Z" fill="#fff"/><path d="M388.8,67h5c.18,1.15.69,1.78,2.24,1.78,1.33,0,1.93-.51,1.93-1.3s-.75-1.12-2.93-1.42c-4.24-.54-6-1.78-6-5.08,0-3.51,3.11-5.2,6.77-5.2,3.9,0,6.63,1.33,7,5.11h-4.9a1.77,1.77,0,0,0-2-1.57c-1.18,0-1.78.51-1.78,1.24s.73,1,2.66,1.3c4.39.54,6.5,1.69,6.5,5.08,0,3.75-2.78,5.44-7.16,5.44S388.92,70.52,388.8,67Z" fill="#fff"/><path d="M410.37,51.92a2.82,2.82,0,0,1,3-2.82,2.81,2.81,0,1,1,0,5.6A2.79,2.79,0,0,1,410.37,51.92Zm.27,4.29h5.41V72h-5.41Z" fill="#fff"/><path d="M419.68,67V59.9h-1.9V56.21h1.9v-3.3h5.41v3.3h3.12V59.9h-3.12v6.53a1.45,1.45,0,0,0,1.61,1.67,4,4,0,0,0,1.54-.28v4.12a11.44,11.44,0,0,1-3,.45C421.68,72.39,419.68,70.67,419.68,67Z" fill="#fff"/><path d="M429.91,50.4h5.29l-.64,8.32h-4.05Z" fill="#fff"/><path d="M436.11,67h5c.18,1.15.69,1.78,2.24,1.78,1.33,0,1.93-.51,1.93-1.3s-.75-1.12-2.93-1.42c-4.24-.54-6-1.78-6-5.08,0-3.51,3.11-5.2,6.77-5.2,3.91,0,6.63,1.33,7,5.11h-4.9a1.77,1.77,0,0,0-2-1.57c-1.18,0-1.78.51-1.78,1.24s.73,1,2.66,1.3c4.39.54,6.5,1.69,6.5,5.08,0,3.75-2.78,5.44-7.16,5.44S436.23,70.52,436.11,67Z" fill="#fff"/><path d="M458.61,59.9h-2V56.21h2V54.82c0-3.93,2.45-5.81,6.2-5.81a9.22,9.22,0,0,1,2.48.34v4a5,5,0,0,0-1.48-.21A1.58,1.58,0,0,0,464,54.82v1.39h3.2V59.9H464V72h-5.39Z" fill="#fff"/><path d="M469,56.21h5.41v3.15A5,5,0,0,1,479.54,56v5c-3.29-.09-5.11.94-5.11,3.48V72H469Z" fill="#fff"/><path d="M480.51,64.32v-.25c0-5.08,3.78-8.28,8.56-8.28,4.33,0,8.05,2.48,8.05,8.16v1.43H486c.15,2.08,1.36,3.29,3.3,3.29,1.78,0,2.54-.82,2.75-1.87h5.08c-.49,3.56-3.24,5.59-8,5.59C484.14,72.39,480.51,69.49,480.51,64.32Zm11.35-2c-.1-1.9-1-3-2.79-3s-2.75,1.06-3,3Z" fill="#fff"/><path d="M498.15,64.32v-.25c0-5.08,3.78-8.28,8.56-8.28,4.32,0,8,2.48,8,8.16v1.43H503.62c.16,2.08,1.36,3.29,3.3,3.29,1.79,0,2.54-.82,2.75-1.87h5.08c-.48,3.56-3.23,5.59-8,5.59C501.78,72.39,498.15,69.49,498.15,64.32Zm11.34-2c-.09-1.9-1-3-2.78-3s-2.75,1.06-3,3Z" fill="#fff"/><path d="M516.27,69.31a3,3,0,0,1,3.08-3.06,3.06,3.06,0,1,1,0,6.11A3,3,0,0,1,516.27,69.31Z" fill="#fff"/></g></g></g></svg>