<svg xmlns="http://www.w3.org/2000/svg" viewBox="0 0 728 90"><title>H12</title><g id="Layer_2" data-name="Layer 2"><g id="Rect"><rect width="728" height="90" fill="none"/></g><g id="H12"><g id="The_best_part_of_filing_for_free_is_it_s_free." data-name="The best part of filing for free is it&apos;s free."><path d="M126.8,20.46h-6.11V15.25h19v5.21h-6.1V38.85h-6.8Z" fill="#fff"/><path d="M141.65,14h5.91V24.36a6.09,6.09,0,0,1,5.67-3.24c3.34,0,5.65,2.08,5.65,6.51V38.85H153v-10c0-1.95-.76-2.91-2.48-2.91s-2.93,1.06-2.93,3.27v9.67h-5.91Z" fill="#fff"/><path d="M160.82,30.43v-.26c0-5.55,4.13-9,9.34-9,4.72,0,8.78,2.71,8.78,8.92v1.55H166.79c.17,2.27,1.49,3.6,3.6,3.6,2,0,2.77-.9,3-2h5.54c-.53,3.89-3.53,6.1-8.75,6.1C164.78,39.24,160.82,36.08,160.82,30.43Zm12.38-2.18c-.1-2.08-1.12-3.23-3-3.23s-3,1.15-3.3,3.23Z" fill="#fff"/><path d="M192.9,36.18v2.67H187V14h5.91V24.16a6.09,6.09,0,0,1,5.38-3c4,0,7.29,3,7.29,9v.26c0,5.94-3.27,8.91-7.33,8.91A5.6,5.6,0,0,1,192.9,36.18Zm6.66-5.85v-.26c0-3-1.32-4.49-3.4-4.49s-3.43,1.55-3.43,4.46v.26c0,2.94,1.29,4.42,3.43,4.42S199.56,33.17,199.56,30.33Z" fill="#fff"/><path d="M206.79,30.43v-.26c0-5.55,4.12-9,9.34-9,4.72,0,8.78,2.71,8.78,8.92v1.55H212.76c.17,2.27,1.49,3.6,3.6,3.6,1.95,0,2.77-.9,3-2h5.55c-.53,3.89-3.53,6.1-8.75,6.1C210.75,39.24,206.79,36.08,206.79,30.43Zm12.38-2.18c-.1-2.08-1.13-3.23-3-3.23s-3,1.15-3.3,3.23Z" fill="#fff"/><path d="M226,33.37h5.45c.19,1.25.76,2,2.44,2,1.45,0,2.11-.56,2.11-1.42s-.82-1.22-3.2-1.55c-4.62-.6-6.57-2-6.57-5.55,0-3.83,3.4-5.68,7.4-5.68,4.25,0,7.22,1.46,7.62,5.58h-5.35A1.93,1.93,0,0,0,233.65,25c-1.29,0-2,.56-2,1.35s.8,1.16,2.91,1.42c4.78.59,7.09,1.85,7.09,5.54,0,4.1-3,5.94-7.82,5.94S226.09,37.2,226,33.37Z" fill="#fff"/><path d="M244.41,33.3V25.61h-2.08v-4h2.08V18h5.91v3.6h3.4v4h-3.4v7.13c0,1.26.62,1.82,1.75,1.82a4.45,4.45,0,0,0,1.68-.3v4.49a12.35,12.35,0,0,1-3.27.49C246.59,39.24,244.41,37.36,244.41,33.3Z" fill="#fff"/><path d="M262,21.59h5.91v2.57a6.09,6.09,0,0,1,5.38-3c4,0,7.3,3,7.3,9v.26c0,5.94-3.27,8.91-7.33,8.91a5.7,5.7,0,0,1-5.35-2.93v8.31H262Zm12.58,8.74v-.26c0-3-1.32-4.49-3.4-4.49s-3.43,1.55-3.43,4.46v.26c0,2.94,1.28,4.42,3.43,4.42S274.54,33.17,274.54,30.33Z" fill="#fff"/><path d="M281.7,34.06c0-4.06,3.43-5.64,9.17-5.64h1.65V28c0-1.65-.39-2.74-2.27-2.74a2.13,2.13,0,0,0-2.35,2h-5.54c.26-4.16,3.53-6.21,8.25-6.21s7.79,1.95,7.79,6.54V38.85h-5.75v-2c-.82,1.25-2.34,2.4-5.11,2.4C284.44,39.24,281.7,37.73,281.7,34.06Zm10.82-1.25V31.75H291c-2.37,0-3.43.46-3.43,1.88,0,1,.66,1.62,2,1.62C291.27,35.25,292.52,34.29,292.52,32.81Z" fill="#fff"/><path d="M301.27,21.59h5.9V25a5.44,5.44,0,0,1,5.58-3.66v5.51c-3.6-.1-5.58,1-5.58,3.79v8.19h-5.9Z" fill="#fff"/><path d="M316,33.3V25.61h-2.08v-4H316V18h5.91v3.6h3.4v4h-3.4v7.13c0,1.26.63,1.82,1.75,1.82a4.45,4.45,0,0,0,1.68-.3v4.49a12.35,12.35,0,0,1-3.27.49C318.13,39.24,316,37.36,316,33.3Z" fill="#fff"/><path d="M332.58,30.43v-.26c0-5.55,4.13-9,9.47-9s9.41,3.4,9.41,8.88v.27c0,5.61-4.13,9-9.44,9S332.58,36,332.58,30.43Zm12.87-.1v-.26c0-2.9-1.15-4.52-3.4-4.52s-3.43,1.55-3.43,4.45v.27c0,3,1.16,4.58,3.43,4.58S345.45,33.21,345.45,30.33Z" fill="#fff"/><path d="M354.43,25.61h-2.18v-4h2.18V20.07c0-4.29,2.67-6.34,6.76-6.34a10.43,10.43,0,0,1,2.71.37v4.32a5.52,5.52,0,0,0-1.62-.23,1.74,1.74,0,0,0-2,1.88v1.52h3.5v4h-3.5V38.85h-5.87Z" fill="#fff"/><path d="M372.68,25.61H370.5v-4h2.18V20.07c0-4.29,2.67-6.34,6.76-6.34a10.43,10.43,0,0,1,2.71.37v4.32a5.52,5.52,0,0,0-1.62-.23,1.74,1.74,0,0,0-2,1.88v1.52h3.5v4h-3.5V38.85h-5.87Z" fill="#fff"/><path d="M383.9,16.9a3.08,3.08,0,0,1,3.23-3.07,3.06,3.06,0,1,1,0,6.11A3.06,3.06,0,0,1,383.9,16.9Zm.29,4.69h5.91V38.85h-5.91Z" fill="#fff"/><path d="M393.43,14h5.88V38.85h-5.88Z" fill="#fff"/><path d="M402.34,16.9a3.26,3.26,0,1,1,3.24,3A3.09,3.09,0,0,1,402.34,16.9Zm.3,4.69h5.91V38.85h-5.91Z" fill="#fff"/><path d="M411.71,21.59h5.91v2.77a6.11,6.11,0,0,1,5.68-3.24c3.33,0,5.64,2.08,5.64,6.51V38.85H423v-10c0-1.95-.76-2.91-2.48-2.91s-2.94,1.06-2.94,3.27v9.67h-5.91Z" fill="#fff"/><path d="M430.85,38.85h5.88c.26,1.25,1,2.24,3.17,2.24,2.6,0,3.66-1.48,3.66-3.63V34.82A6.05,6.05,0,0,1,438.21,38c-4,0-7.32-3-7.32-8.28v-.27c0-5.08,3.26-8.32,7.32-8.32A5.62,5.62,0,0,1,443.56,24V21.59h5.91V37.4c0,5.15-3.4,7.85-9.57,7.85C434,45.25,431.32,42.78,430.85,38.85Zm12.88-9.18v-.23c0-2.37-1.23-3.89-3.4-3.89s-3.4,1.55-3.4,3.93v.26c0,2.38,1.25,3.89,3.36,3.89S443.73,32.12,443.73,29.67Z" fill="#fff"/><path d="M459.37,25.61h-2.18v-4h2.18V20.07c0-4.29,2.67-6.34,6.76-6.34a10.43,10.43,0,0,1,2.71.37v4.32a5.52,5.52,0,0,0-1.62-.23,1.73,1.73,0,0,0-2,1.88v1.52h3.5v4h-3.5V38.85h-5.87Z" fill="#fff"/><path d="M469.2,30.43v-.26c0-5.55,4.13-9,9.47-9s9.41,3.4,9.41,8.88v.27c0,5.61-4.13,9-9.44,9S469.2,36,469.2,30.43Zm12.87-.1v-.26c0-2.9-1.15-4.52-3.4-4.52s-3.43,1.55-3.43,4.45v.27c0,3,1.15,4.58,3.43,4.58S482.07,33.21,482.07,30.33Z" fill="#fff"/><path d="M490.15,21.59h5.91V25a5.44,5.44,0,0,1,5.58-3.66v5.51c-3.6-.1-5.58,1-5.58,3.79v8.19h-5.91Z" fill="#fff"/><path d="M122.64,60.61h-2.18v-4h2.18V55.07c0-4.29,2.67-6.34,6.77-6.34a10.83,10.83,0,0,1,2.7.36v4.33a5.45,5.45,0,0,0-1.61-.23,1.73,1.73,0,0,0-2,1.88v1.52H132v4h-3.49V73.85h-5.88Z" fill="#fff"/><path d="M134,56.59h5.91V60a5.43,5.43,0,0,1,5.58-3.66v5.51c-3.6-.1-5.58,1-5.58,3.79v8.19H134Z" fill="#fff"/><path d="M146.53,65.43v-.26c0-5.55,4.13-9.05,9.34-9.05,4.72,0,8.78,2.71,8.78,8.92v1.55H152.51c.16,2.28,1.48,3.6,3.59,3.6,2,0,2.78-.9,3-2h5.54c-.53,3.89-3.53,6.11-8.74,6.11C150.49,74.25,146.53,71.08,146.53,65.43Zm12.38-2.18c-.1-2.08-1.12-3.23-3-3.23s-3,1.15-3.3,3.23Z" fill="#fff"/><path d="M165.77,65.43v-.26c0-5.55,4.13-9.05,9.34-9.05,4.72,0,8.78,2.71,8.78,8.92v1.55H171.74c.17,2.28,1.49,3.6,3.6,3.6,1.95,0,2.77-.9,3-2h5.54c-.53,3.89-3.53,6.11-8.75,6.11C169.73,74.25,165.77,71.08,165.77,65.43Zm12.38-2.18c-.1-2.08-1.12-3.23-3-3.23s-3,1.15-3.3,3.23Z" fill="#fff"/><path d="M191.81,51.9A3.08,3.08,0,0,1,195,48.83a3.06,3.06,0,1,1,0,6.11A3.06,3.06,0,0,1,191.81,51.9Zm.29,4.69H198V73.85H192.1Z" fill="#fff"/><path d="M200,68.37h5.45c.2,1.25.76,1.95,2.44,1.95,1.45,0,2.11-.56,2.11-1.42s-.82-1.22-3.2-1.55c-4.62-.6-6.57-1.95-6.57-5.55,0-3.83,3.4-5.68,7.4-5.68,4.26,0,7.23,1.46,7.62,5.58h-5.34A1.94,1.94,0,0,0,207.71,60c-1.28,0-1.94.56-1.94,1.35s.79,1.16,2.9,1.42c4.79.59,7.1,1.85,7.1,5.54,0,4.1-3,6-7.83,6S200.16,72.2,200,68.37Z" fill="#fff"/><path d="M223.55,51.9a3.26,3.26,0,1,1,3.24,3A3.09,3.09,0,0,1,223.55,51.9Zm.3,4.69h5.91V73.85h-5.91Z" fill="#fff"/><path d="M233.72,68.3V60.61h-2.08v-4h2.08V53h5.9v3.6H243v4h-3.4v7.13c0,1.26.63,1.82,1.75,1.82a4.5,4.5,0,0,0,1.69-.3v4.49a12.28,12.28,0,0,1-3.27.5C235.9,74.25,233.72,72.36,233.72,68.3Z" fill="#fff"/><path d="M244.87,50.25h5.78l-.7,9.08h-4.42Z" fill="#fff"/><path d="M251.64,68.37h5.44c.2,1.25.76,1.95,2.44,1.95,1.46,0,2.12-.56,2.12-1.42s-.83-1.22-3.21-1.55c-4.62-.6-6.56-1.95-6.56-5.55,0-3.83,3.4-5.68,7.39-5.68,4.26,0,7.23,1.46,7.62,5.58h-5.34A1.93,1.93,0,0,0,259.33,60c-1.29,0-1.95.56-1.95,1.35s.79,1.16,2.9,1.42c4.79.59,7.1,1.85,7.1,5.54,0,4.1-3,6-7.82,6S251.77,72.2,251.64,68.37Z" fill="#fff"/><path d="M276.19,60.61H274v-4h2.18V55.07c0-4.29,2.67-6.34,6.76-6.34a10.92,10.92,0,0,1,2.71.36v4.33a5.52,5.52,0,0,0-1.62-.23,1.74,1.74,0,0,0-2,1.88v1.52h3.5v4h-3.5V73.85h-5.87Z" fill="#fff"/><path d="M287.54,56.59h5.91V60A5.43,5.43,0,0,1,299,56.36v5.51c-3.59-.1-5.57,1-5.57,3.79v8.19h-5.91Z" fill="#fff"/><path d="M300.08,65.43v-.26c0-5.55,4.12-9.05,9.34-9.05,4.72,0,8.78,2.71,8.78,8.92v1.55H306.05c.17,2.28,1.49,3.6,3.6,3.6,2,0,2.77-.9,3-2h5.55c-.53,3.89-3.53,6.11-8.75,6.11C304,74.25,300.08,71.08,300.08,65.43Zm12.38-2.18c-.1-2.08-1.13-3.23-3-3.23s-3,1.15-3.3,3.23Z" fill="#fff"/><path d="M319.32,65.43v-.26c0-5.55,4.12-9.05,9.34-9.05,4.72,0,8.78,2.71,8.78,8.92v1.55H325.29c.17,2.28,1.49,3.6,3.6,3.6,1.95,0,2.77-.9,3-2h5.55c-.53,3.89-3.53,6.11-8.75,6.11C323.28,74.25,319.32,71.08,319.32,65.43Zm12.37-2.18c-.09-2.08-1.12-3.23-3-3.23s-3,1.15-3.3,3.23Z" fill="#fff"/><path d="M339.08,70.88a3.3,3.3,0,0,1,3.37-3.34,3.34,3.34,0,1,1,0,6.67A3.29,3.29,0,0,1,339.08,70.88Z" fill="#fff"/></g></g></g></svg>