<svg xmlns="http://www.w3.org/2000/svg" viewBox="0 0 728 90"><title>H6</title><g id="Layer_2" data-name="Layer 2"><g id="Rect"><rect width="728" height="90" fill="none"/></g><g id="H06"><g id="You_could_get_a_Refund_Advance_loan_up_to_3_500_within_minutes" data-name="You could get a Refund Advance loan up to $3,500 within minutes"><path d="M126.74,26.49l-6.52-11.43h6.24l3.38,6.74,3.38-6.74h5.48l-6.2,11.43v8.56h-5.76Z" fill="#fff"/><path d="M136.6,27.92v-.23c0-4.69,3.5-7.66,8-7.66s8,2.88,8,7.52v.23c0,4.75-3.49,7.6-8,7.6S136.6,32.64,136.6,27.92Zm10.9-.09v-.22c0-2.46-1-3.83-2.88-3.83s-2.9,1.31-2.9,3.77v.23c0,2.51,1,3.88,2.9,3.88S147.5,30.27,147.5,27.83Z" fill="#fff"/><path d="M154.24,30V20.43h5v8.72c0,1.65.65,2.46,2.07,2.46s2.49-.9,2.49-2.77V20.43h5V35.05h-5V32.78a4.8,4.8,0,0,1-4.64,2.6C156.34,35.38,154.24,33.65,154.24,30Z" fill="#fff"/><path d="M175.65,27.92v-.23c0-4.86,3.49-7.66,7.8-7.66,3.57,0,6.87,1.57,7.15,6h-4.69a2.17,2.17,0,0,0-2.35-2.12c-1.76,0-2.8,1.26-2.8,3.72v.22c0,2.55,1,3.86,2.88,3.86a2.44,2.44,0,0,0,2.55-2.43h4.5c-.14,3.69-2.63,6.09-7.36,6.09C179,35.38,175.65,32.84,175.65,27.92Z" fill="#fff"/><path d="M191.52,27.92v-.23c0-4.69,3.5-7.66,8-7.66s8,2.88,8,7.52v.23c0,4.75-3.49,7.6-8,7.6S191.52,32.64,191.52,27.92Zm10.91-.09v-.22c0-2.46-1-3.83-2.88-3.83s-2.91,1.31-2.91,3.77v.23c0,2.51,1,3.88,2.91,3.88S202.43,30.27,202.43,27.83Z" fill="#fff"/><path d="M209.16,30V20.43h5v8.72c0,1.65.65,2.46,2.07,2.46s2.49-.9,2.49-2.77V20.43h5V35.05h-5V32.78a4.8,4.8,0,0,1-4.64,2.6C211.26,35.38,209.16,33.65,209.16,30Z" fill="#fff"/><path d="M226.4,14h5v21h-5Z" fill="#fff"/><path d="M233.34,27.89v-.22c0-5,2.73-7.64,6.2-7.64a4.75,4.75,0,0,1,4.5,2.46V14h5v21h-5V32.67a4.93,4.93,0,0,1-4.55,2.71C236.1,35.38,233.34,33,233.34,27.89Zm10.84-.08v-.23c0-2.46-1-3.77-2.88-3.77s-2.88,1.26-2.88,3.8v.22c0,2.46,1.09,3.72,2.83,3.72S244.18,30.29,244.18,27.81Z" fill="#fff"/><path d="M255.86,35.05h5c.22,1.06.87,1.9,2.68,1.9a2.77,2.77,0,0,0,3.1-3.08V31.64a5.12,5.12,0,0,1-4.52,2.68c-3.41,0-6.21-2.52-6.21-7v-.22c0-4.31,2.77-7,6.21-7a4.74,4.74,0,0,1,4.52,2.46V20.43h5V33.82c0,4.36-2.88,6.65-8.11,6.65C258.55,40.47,256.25,38.37,255.86,35.05Zm10.91-7.78v-.19c0-2-1-3.3-2.88-3.3S261,25.09,261,27.11v.22c0,2,1.06,3.3,2.85,3.3S266.77,29.34,266.77,27.27Z" fill="#fff"/><path d="M273.39,27.92v-.23c0-4.69,3.49-7.66,7.91-7.66,4,0,7.43,2.3,7.43,7.55V28.9H278.45a2.91,2.91,0,0,0,3,3c1.65,0,2.35-.75,2.55-1.73h4.69c-.44,3.3-3,5.17-7.4,5.17C276.74,35.38,273.39,32.7,273.39,27.92Zm10.48-1.85c-.08-1.76-.95-2.74-2.57-2.74s-2.55,1-2.8,2.74Z" fill="#fff"/><path d="M291.14,30.35V23.84h-1.77V20.43h1.77V17.38h5v3.05H299v3.41h-2.88v6c0,1.07.53,1.54,1.48,1.54a3.8,3.8,0,0,0,1.43-.25V35a10.5,10.5,0,0,1-2.77.42C293,35.38,291.14,33.79,291.14,30.35Z" fill="#fff"/><path d="M305.17,31c0-3.44,2.9-4.78,7.77-4.78h1.39v-.33c0-1.4-.33-2.32-1.92-2.32a1.8,1.8,0,0,0-2,1.73h-4.7c.23-3.52,3-5.26,7-5.26s6.6,1.65,6.6,5.54v9.48h-4.86V33.34a4.82,4.82,0,0,1-4.34,2C307.49,35.38,305.17,34.1,305.17,31Zm9.16-1.06V29H313c-2,0-2.91.39-2.91,1.59,0,.84.56,1.37,1.74,1.37A2.2,2.2,0,0,0,314.33,29.93Z" fill="#fff"/><path d="M327.27,15.06h7.83c5.23,0,8.14,2.12,8.14,6.34v.12a5.22,5.22,0,0,1-3.61,5.25l4.78,8.28h-6l-4.05-7.16H333v7.16h-5.71Zm7.55,9.11c1.93,0,2.88-.81,2.88-2.43v-.11c0-1.62-1-2.27-2.85-2.27H333v4.81Z" fill="#fff"/><path d="M344.41,27.92v-.23c0-4.69,3.49-7.66,7.91-7.66,4,0,7.43,2.3,7.43,7.55V28.9H349.47a2.91,2.91,0,0,0,3,3c1.65,0,2.35-.75,2.55-1.73h4.69c-.44,3.3-3,5.17-7.4,5.17C347.76,35.38,344.41,32.7,344.41,27.92Zm10.48-1.85c-.08-1.76-.95-2.74-2.57-2.74s-2.55,1-2.8,2.74Z" fill="#fff"/><path d="M362.24,23.84h-1.85V20.43h1.85V19.14c0-3.63,2.26-5.37,5.73-5.37a8.8,8.8,0,0,1,2.29.31v3.66a4.65,4.65,0,0,0-1.37-.19,1.47,1.47,0,0,0-1.68,1.59v1.29h3v3.41h-3V35.05h-5Z" fill="#fff"/><path d="M371.74,30V20.43h5v8.72c0,1.65.64,2.46,2.06,2.46s2.49-.9,2.49-2.77V20.43h5V35.05h-5V32.78a4.8,4.8,0,0,1-4.64,2.6C373.84,35.38,371.74,33.65,371.74,30Z" fill="#fff"/><path d="M388.85,20.43h5v2.34A5.16,5.16,0,0,1,398.66,20c2.82,0,4.78,1.77,4.78,5.51v9.51h-5v-8.5c0-1.65-.64-2.46-2.09-2.46s-2.49.89-2.49,2.77v8.19h-5Z" fill="#fff"/><path d="M405.14,27.89v-.22c0-5,2.74-7.64,6.21-7.64a4.75,4.75,0,0,1,4.5,2.46V14h5v21h-5V32.67a4.93,4.93,0,0,1-4.56,2.71C407.91,35.38,405.14,33,405.14,27.89ZM416,27.81v-.23c0-2.46-1-3.77-2.88-3.77s-2.88,1.26-2.88,3.8v.22c0,2.46,1.09,3.72,2.82,3.72S416,30.29,416,27.81Z" fill="#fff"/><path d="M433.76,15.06h7.41l6.35,20h-6.07l-1.06-3.72h-6.63l-1.06,3.72h-5.34Zm1.12,12.33h4.39l-2.18-7.69Z" fill="#fff"/><path d="M447.85,27.89v-.22c0-5,2.74-7.64,6.2-7.64a4.72,4.72,0,0,1,4.5,2.46V14h5v21h-5V32.67A4.91,4.91,0,0,1,454,35.38C450.62,35.38,447.85,33,447.85,27.89Zm10.84-.08v-.23c0-2.46-1-3.77-2.87-3.77s-2.88,1.26-2.88,3.8v.22c0,2.46,1.09,3.72,2.82,3.72S458.69,30.29,458.69,27.81Z" fill="#fff"/><path d="M464.84,20.43h5.34l3.05,9.42,3-9.42H481l-5.34,14.62h-5.45Z" fill="#fff"/><path d="M480.8,31c0-3.44,2.91-4.78,7.77-4.78H490v-.33c0-1.4-.34-2.32-1.93-2.32a1.79,1.79,0,0,0-2,1.73h-4.7c.22-3.52,3-5.26,7-5.26s6.6,1.65,6.6,5.54v9.48h-4.87V33.34a4.8,4.8,0,0,1-4.33,2C483.12,35.38,480.8,34.1,480.8,31ZM490,29.93V29h-1.31c-2,0-2.91.39-2.91,1.59,0,.84.56,1.37,1.73,1.37C488.91,32,490,31.19,490,29.93Z" fill="#fff"/><path d="M497.38,20.43h5v2.34A5.16,5.16,0,0,1,507.19,20C510,20,512,21.8,512,25.54v9.51h-5v-8.5c0-1.65-.64-2.46-2.09-2.46s-2.49.89-2.49,2.77v8.19h-5Z" fill="#fff"/><path d="M513.61,27.92v-.23c0-4.86,3.5-7.66,7.8-7.66,3.58,0,6.88,1.57,7.16,6h-4.7a2.16,2.16,0,0,0-2.34-2.12c-1.77,0-2.8,1.26-2.8,3.72v.22c0,2.55,1,3.86,2.88,3.86a2.43,2.43,0,0,0,2.54-2.43h4.5c-.14,3.69-2.62,6.09-7.35,6.09C516.94,35.38,513.61,32.84,513.61,27.92Z" fill="#fff"/><path d="M529.49,27.92v-.23C529.49,23,533,20,537.4,20c4,0,7.44,2.3,7.44,7.55V28.9H534.55a2.91,2.91,0,0,0,3.05,3c1.65,0,2.34-.75,2.54-1.73h4.7c-.45,3.3-3,5.17-7.41,5.17C532.84,35.38,529.49,32.7,529.49,27.92ZM540,26.07c-.08-1.76-1-2.74-2.57-2.74s-2.54,1-2.79,2.74Z" fill="#fff"/><path d="M121.62,44h5V65h-5Z" fill="#fff"/><path d="M128.5,57.87v-.23c0-4.69,3.49-7.66,8-7.66s8,2.88,8,7.52v.23c0,4.75-3.5,7.6-8,7.6S128.5,62.59,128.5,57.87Zm10.9-.09v-.22c0-2.46-1-3.83-2.88-3.83s-2.91,1.31-2.91,3.77v.23c0,2.51,1,3.88,2.91,3.88S139.4,60.22,139.4,57.78Z" fill="#fff"/><path d="M145.41,60.94c0-3.44,2.9-4.78,7.77-4.78h1.4v-.33c0-1.4-.34-2.32-1.93-2.32a1.8,1.8,0,0,0-2,1.73H146c.22-3.52,3-5.26,7-5.26s6.6,1.65,6.6,5.54V65h-4.86V63.29a4.82,4.82,0,0,1-4.34,2C147.73,65.33,145.41,64.05,145.41,60.94Zm9.17-1.06V59h-1.32c-2,0-2.91.39-2.91,1.59,0,.84.56,1.37,1.74,1.37A2.21,2.21,0,0,0,154.58,59.88Z" fill="#fff"/><path d="M162,50.38h5v2.34A5.17,5.17,0,0,1,171.79,50c2.83,0,4.78,1.77,4.78,5.51V65h-5V56.5c0-1.65-.64-2.46-2.1-2.46s-2.49.89-2.49,2.77V65h-5Z" fill="#fff"/><path d="M184,59.91V50.38h5V59.1c0,1.65.64,2.46,2.07,2.46s2.49-.9,2.49-2.77V50.38h5V65h-5V62.73a4.81,4.81,0,0,1-4.64,2.6C186.07,65.33,184,63.6,184,59.91Z" fill="#fff"/><path d="M201.08,50.38h5v2.18A5.14,5.14,0,0,1,210.64,50c3.41,0,6.18,2.58,6.18,7.58v.22c0,5-2.77,7.55-6.21,7.55a4.8,4.8,0,0,1-4.52-2.49v7h-5Zm10.65,7.4v-.22c0-2.57-1.12-3.8-2.88-3.8s-2.9,1.31-2.9,3.77v.23c0,2.48,1.09,3.74,2.9,3.74S211.73,60.19,211.73,57.78Z" fill="#fff"/><path d="M224.39,60.3V53.79h-1.76V50.38h1.76V47.33h5v3.05h2.87v3.41H229.4v6c0,1.07.53,1.54,1.48,1.54a3.74,3.74,0,0,0,1.42-.25v3.8a10.36,10.36,0,0,1-2.77.42C226.24,65.33,224.39,63.74,224.39,60.3Z" fill="#fff"/><path d="M233.39,57.87v-.23c0-4.69,3.5-7.66,8-7.66s8,2.88,8,7.52v.23c0,4.75-3.49,7.6-8,7.6S233.39,62.59,233.39,57.87Zm10.9-.09v-.22c0-2.46-1-3.83-2.88-3.83s-2.9,1.31-2.9,3.77v.23c0,2.51,1,3.88,2.9,3.88S244.29,60.22,244.29,57.78Z" fill="#fff"/><path d="M259.44,55.85c-2.82-.19-4.19-1.69-4.3-3.84h3a1.54,1.54,0,0,0,1.29,1.53V51.16c-2.84-.41-4-1.44-4-3.7,0-2,1.54-3.39,4-3.57V42.44h1.27v1.47c2.36.19,3.76,1.28,4,3.52h-2.95a1.31,1.31,0,0,0-1-1.23v2.25c2.49.36,4.12,1.21,4.12,3.57,0,2-1.29,3.65-4.12,3.83v2h-1.27Zm0-7.59V46.17c-.74.13-1.11.52-1.11,1S258.56,48.08,259.44,48.26Zm1.27,3.11v2.17a1.17,1.17,0,0,0,1.09-1.16C261.8,51.84,261.57,51.57,260.71,51.37Z" fill="#fff"/><path d="M265.82,58.43h5.09c.17,1.65.95,2.76,2.94,2.76,1.76,0,2.63-.83,2.63-2.26s-.84-2.35-2.63-2.35h-1.6V53h1.49c1.78,0,2.65-.81,2.65-2.21,0-1.2-.78-2-2.29-2a2.56,2.56,0,0,0-2.66,2.54h-5.06c.26-3.94,2.88-6.65,7.86-6.65,4.7,0,7.52,2.15,7.52,5.48a4.27,4.27,0,0,1-3.38,4.3A4.51,4.51,0,0,1,282.26,59c0,3.8-2.82,6.29-8.1,6.29C268.59,65.33,266,62.76,265.82,58.43Z" fill="#fff"/><path d="M282.73,67.26l2.35-7.35,4.64,1.65-4,6.85Z" fill="#fff"/><path d="M290.65,58.71h5.19a2.3,2.3,0,0,0,2.6,2.32c1.65,0,2.41-1.23,2.41-2.83a2.54,2.54,0,0,0-2.71-2.85,4.1,4.1,0,0,0-3.3,1.43h-3.41L291.85,45h13.47V49.2H296l-.11,4.42a5.34,5.34,0,0,1,4.67-2.13c3.66,0,6.07,2.46,6.07,6.8s-3.05,7-8.11,7C293.19,65.33,290.78,62.45,290.65,58.71Z" fill="#fff"/><path d="M308,55.44V54.6c0-6.32,3.94-9.87,9.23-9.87s9.22,3.27,9.22,9.76v.78c0,6.34-3.63,10.06-9.33,10.06S308,61.73,308,55.44Zm12.72-.06v-.81c0-3.66-1.06-5.51-3.49-5.51s-3.5,1.82-3.5,5.51v.84c0,3.72,1.09,5.48,3.55,5.48S320.72,59.07,320.72,55.38Z" fill="#fff"/><path d="M328,55.44V54.6c0-6.32,3.94-9.87,9.23-9.87s9.22,3.27,9.22,9.76v.78c0,6.34-3.63,10.06-9.33,10.06S328,61.73,328,55.44Zm12.72-.06v-.81c0-3.66-1.06-5.51-3.49-5.51s-3.5,1.82-3.5,5.51v.84c0,3.72,1.09,5.48,3.55,5.48S340.76,59.07,340.76,55.38Z" fill="#fff"/><path d="M352.41,50.38h5.23l2.13,8.75,2.46-8.75h4l2.18,8.75,2.38-8.75h4.75L370.92,65h-4.78L364,56.83,361.69,65h-4.86Z" fill="#fff"/><path d="M376.73,46.41A2.76,2.76,0,1,1,379.47,49,2.6,2.6,0,0,1,376.73,46.41Zm.25,4h5V65h-5Z" fill="#fff"/><path d="M385.34,60.3V53.79h-1.76V50.38h1.76V47.33h5v3.05h2.88v3.41h-2.88v6c0,1.07.53,1.54,1.48,1.54a3.8,3.8,0,0,0,1.43-.25v3.8a10.36,10.36,0,0,1-2.77.42C387.18,65.33,385.34,63.74,385.34,60.3Z" fill="#fff"/><path d="M395.12,44h5v8.77A5.17,5.17,0,0,1,404.93,50c2.83,0,4.78,1.77,4.78,5.51V65h-5V56.5c0-1.65-.64-2.46-2.1-2.46s-2.49.89-2.49,2.77V65h-5Z" fill="#fff"/><path d="M412,46.41A2.76,2.76,0,1,1,414.77,49,2.61,2.61,0,0,1,412,46.41Zm.25,4h5V65h-5Z" fill="#fff"/><path d="M420,50.38h5v2.34A5.16,5.16,0,0,1,429.78,50c2.82,0,4.78,1.77,4.78,5.51V65h-5V56.5c0-1.65-.65-2.46-2.1-2.46s-2.49.89-2.49,2.77V65h-5Z" fill="#fff"/><path d="M442.08,50.38h5v2.23A5.1,5.1,0,0,1,451.66,50a4,4,0,0,1,4,2.44A5.79,5.79,0,0,1,460.47,50c2.77,0,4.78,1.79,4.78,5.46V65h-5V56.27c0-1.48-.73-2.2-1.88-2.2a2.16,2.16,0,0,0-2.23,2.46V65h-4.95V56.27c0-1.48-.73-2.2-1.87-2.2a2.16,2.16,0,0,0-2.24,2.46V65h-5Z" fill="#fff"/><path d="M467.57,46.41A2.76,2.76,0,1,1,470.31,49,2.6,2.6,0,0,1,467.57,46.41Zm.25,4h5V65h-5Z" fill="#fff"/><path d="M475.5,50.38h5v2.34A5.15,5.15,0,0,1,485.32,50c2.82,0,4.78,1.77,4.78,5.51V65h-5V56.5c0-1.65-.64-2.46-2.09-2.46s-2.49.89-2.49,2.77V65h-5Z" fill="#fff"/><path d="M492.41,59.91V50.38h5V59.1c0,1.65.64,2.46,2.07,2.46s2.48-.9,2.48-2.77V50.38h5V65h-5V62.73a4.79,4.79,0,0,1-4.64,2.6C494.51,65.33,492.41,63.6,492.41,59.91Z" fill="#fff"/><path d="M510.19,60.3V53.79h-1.76V50.38h1.76V47.33h5v3.05h2.88v3.41h-2.88v6c0,1.07.53,1.54,1.48,1.54a3.8,3.8,0,0,0,1.43-.25v3.8a10.36,10.36,0,0,1-2.77.42C512,65.33,510.19,63.74,510.19,60.3Z" fill="#fff"/><path d="M519.19,57.87v-.23c0-4.69,3.49-7.66,7.91-7.66,4,0,7.44,2.3,7.44,7.55v1.32H524.25a2.91,2.91,0,0,0,3,3c1.65,0,2.34-.75,2.54-1.73h4.7c-.45,3.3-3,5.17-7.41,5.17C522.54,65.33,519.19,62.65,519.19,57.87ZM529.67,56c-.08-1.76-.95-2.74-2.57-2.74s-2.54,1-2.8,2.74Z" fill="#fff"/><path d="M535.43,60.36H540c.17,1.06.64,1.64,2.07,1.64,1.23,0,1.79-.47,1.79-1.2s-.7-1-2.71-1.31c-3.92-.5-5.57-1.65-5.57-4.7,0-3.24,2.88-4.81,6.26-4.81,3.61,0,6.13,1.23,6.46,4.73h-4.53a1.62,1.62,0,0,0-1.87-1.45c-1.09,0-1.65.47-1.65,1.14s.67,1,2.46,1.2c4,.51,6,1.57,6,4.7,0,3.47-2.57,5-6.62,5S535.54,63.6,535.43,60.36Z" fill="#fff"/><path d="M550.19,62.48A2.79,2.79,0,0,1,553,59.66a2.82,2.82,0,1,1,0,5.64A2.78,2.78,0,0,1,550.19,62.48Z" fill="#fff"/></g></g></g></svg>