<svg xmlns="http://www.w3.org/2000/svg" viewBox="0 0 119.66 31.81"><title>find_a_tax_pro</title><g id="Layer_2" data-name="Layer 2"><g id="CTA"><g id="Rectangle_1" data-name="Rectangle 1"><rect width="119.66" height="31.81" fill="none"/></g><g id="Find_a_tax_pro" data-name="Find a tax pro"><path d="M17.31,9.81h6.43v1.78H19.58v2.65h3.29V16H19.58v3.88H17.31Z" fill="#262626"/><path d="M24.62,10.4a1.16,1.16,0,1,1,1.15,1.1A1.11,1.11,0,0,1,24.62,10.4Zm.15,2.1h2v7.33h-2Z" fill="#262626"/><path d="M28.44,12.5h2v1.16a2.53,2.53,0,0,1,2.38-1.33c1.45,0,2.47.87,2.47,2.83v4.67h-2V15.46c0-1-.4-1.48-1.29-1.48a1.46,1.46,0,0,0-1.53,1.61v4.24h-2Z" fill="#262626"/><path d="M36.41,16.27v-.11c0-2.41,1.38-3.83,3.22-3.83a2.45,2.45,0,0,1,2.31,1.26V9.18h2V19.83h-2V18.61A2.66,2.66,0,0,1,39.59,20C37.81,20,36.41,18.71,36.41,16.27ZM42,16.2v-.12c0-1.45-.65-2.19-1.75-2.19s-1.77.77-1.77,2.22v.12c0,1.45.7,2.17,1.71,2.17S42,17.68,42,16.2Z" fill="#262626"/><path d="M48,17.79c0-1.71,1.57-2.35,3.81-2.35h.83v-.29c0-.87-.27-1.35-1.19-1.35a1.11,1.11,0,0,0-1.25,1H48.25c.13-1.74,1.5-2.51,3.29-2.51s3.07.73,3.07,2.72v4.78h-2v-.89a2.48,2.48,0,0,1-2.21,1A2.15,2.15,0,0,1,48,17.79Zm4.64-.53v-.61h-.79c-1.17,0-1.86.25-1.86,1,0,.53.32.88,1.06.88C51.92,18.56,52.61,18.07,52.61,17.26Z" fill="#262626"/><path d="M59.34,17.65V13.94H58.4V12.5h.94V10.92h2V12.5H62.9v1.44H61.36v3.53c0,.59.29.87.81.87a1.86,1.86,0,0,0,.77-.14v1.57a3.68,3.68,0,0,1-1.23.19A2.09,2.09,0,0,1,59.34,17.65Z" fill="#262626"/><path d="M63.66,17.79c0-1.71,1.57-2.35,3.81-2.35h.83v-.29c0-.87-.27-1.35-1.19-1.35a1.11,1.11,0,0,0-1.25,1H63.94c.13-1.74,1.5-2.51,3.3-2.51s3.06.73,3.06,2.72v4.78h-2v-.89a2.5,2.5,0,0,1-2.22,1A2.15,2.15,0,0,1,63.66,17.79Zm4.64-.53v-.61h-.78c-1.18,0-1.87.25-1.87,1,0,.53.32.88,1.07.88S68.3,18.07,68.3,17.26Z" fill="#262626"/><path d="M73.67,16.08,71.34,12.5h2.32L75,14.7l1.35-2.2h2.1l-2.34,3.43,2.58,3.9H76.38l-1.54-2.47-1.59,2.47H71.17Z" fill="#262626"/><path d="M82.55,12.5h2v1.15a2.73,2.73,0,0,1,2.34-1.32c1.79,0,3.19,1.33,3.19,3.75v.12c0,2.42-1.37,3.78-3.19,3.78a2.57,2.57,0,0,1-2.34-1.27v3.61h-2Zm5.5,3.71V16.1c0-1.49-.72-2.21-1.75-2.21s-1.79.74-1.79,2.21v.11c0,1.47.7,2.19,1.81,2.19S88.05,17.64,88.05,16.21Z" fill="#262626"/><path d="M91.26,12.5h2v1.4a2.39,2.39,0,0,1,2.37-1.51v1.89c-1.5,0-2.37.47-2.37,1.88v3.67h-2Z" fill="#262626"/><path d="M96.2,16.24v-.11a3.68,3.68,0,0,1,3.87-3.8,3.64,3.64,0,0,1,3.85,3.75v.12a3.86,3.86,0,0,1-7.72,0Zm5.66,0v-.1c0-1.4-.66-2.24-1.79-2.24s-1.8.81-1.8,2.21v.12c0,1.4.65,2.24,1.8,2.24S101.86,17.6,101.86,16.21Z" fill="#262626"/></g></g></g></svg>