<svg xmlns="http://www.w3.org/2000/svg" viewBox="0 0 300 250"><title>Asset 19</title><g id="Layer_2" data-name="Layer 2"><g id="Rect"><rect width="300" height="250" fill="none"/></g><g id="Get_your_very_own_deduction_detector." data-name="Get your very own deduction detector."><path d="M21.13,44.62v-.29C21.13,36.36,27,31,34.84,31,41,31,46.5,33.8,47,40.6H39.59c-.37-2.45-1.94-3.73-4.72-3.73-3.69,0-5.92,2.85-5.92,7.57v.29c0,4.24,1.57,7.53,6.11,7.53,3.65,0,5-1.86,5.19-3.95h-4.9V43.09H47.63V46.3C47.63,53,43.28,58,34.84,58,26,58,21.13,52.44,21.13,44.62Z" fill="#fff"/><path d="M49.13,48.2v-.29c0-6.14,4.57-10,10.34-10,5.23,0,9.72,3,9.72,9.86v1.72H55.74c.19,2.52,1.65,4,4,4,2.15,0,3.07-1,3.32-2.27h6.14C68.61,55.51,65.28,58,59.51,58,53.52,58,49.13,54.45,49.13,48.2Zm13.7-2.41c-.11-2.3-1.24-3.58-3.36-3.58-2,0-3.32,1.28-3.65,3.58Z" fill="#fff"/><path d="M72.34,51.38V42.87H70V38.41h2.3v-4h6.54v4h3.76v4.46H78.88v7.89c0,1.39.69,2,1.94,2a4.94,4.94,0,0,0,1.86-.33v5a13.66,13.66,0,0,1-3.62.55C74.75,58,72.34,55.88,72.34,51.38Z" fill="#fff"/><path d="M97.78,55.58,90.14,38.41h7.09l3.94,10.19,3.66-10.19h6.25L100.85,63.92H94.6Z" fill="#fff"/><path d="M110.72,48.2v-.29c0-6.14,4.56-10,10.48-10s10.42,3.76,10.42,9.83V48c0,6.21-4.57,9.94-10.45,9.94S110.72,54.38,110.72,48.2ZM125,48.09V47.8c0-3.22-1.28-5-3.77-5s-3.8,1.72-3.8,4.94V48c0,3.29,1.28,5.08,3.8,5.08S125,51.27,125,48.09Z" fill="#fff"/><path d="M133.78,50.87V38.41h6.54v11.4c0,2.16.84,3.22,2.7,3.22s3.26-1.17,3.26-3.62v-11h6.54V57.52h-6.54v-3a6.28,6.28,0,0,1-6.07,3.4C136.52,58,133.78,55.69,133.78,50.87Z" fill="#fff"/><path d="M156.15,38.41h6.54v3.8a6,6,0,0,1,6.17-4.06v6.11c-4-.11-6.17,1.13-6.17,4.2v9.06h-6.54Z" fill="#fff"/><path d="M176.25,38.41h7l4,12.31,3.91-12.31h6.25l-7,19.11h-7.13Z" fill="#fff"/><path d="M197,48.2v-.29c0-6.14,4.57-10,10.34-10,5.23,0,9.72,3,9.72,9.86v1.72H203.59c.18,2.52,1.64,4,4,4,2.16,0,3.07-1,3.32-2.27H217c-.58,4.31-3.91,6.76-9.68,6.76C201.36,58,197,54.45,197,48.2Zm13.71-2.41c-.11-2.3-1.25-3.58-3.37-3.58-2,0-3.32,1.28-3.65,3.58Z" fill="#fff"/><path d="M219.3,38.41h6.54v3.8A6,6,0,0,1,232,38.15v6.11c-4-.11-6.18,1.13-6.18,4.2v9.06H219.3Z" fill="#fff"/><path d="M240.68,55.58l-7.63-17.17h7.09l3.94,10.19,3.66-10.19H254L243.75,63.92H237.5Z" fill="#fff"/><path d="M20.91,86.75v-.29c0-6.14,4.57-10,10.49-10s10.42,3.76,10.42,9.83v.29c0,6.21-4.57,9.94-10.45,9.94S20.91,92.93,20.91,86.75Zm14.26-.11v-.29c0-3.22-1.28-5-3.77-5s-3.8,1.72-3.8,4.94v.29c0,3.29,1.28,5.08,3.8,5.08S35.17,89.82,35.17,86.64Z" fill="#fff"/><path d="M41.89,77h6.84L51.5,88.4,54.72,77H60L62.83,88.4,65.94,77h6.21L66.09,96.07H59.84L57,85.4,54,96.07H47.67Z" fill="#fff"/><path d="M73.84,77h6.54V80a6.74,6.74,0,0,1,6.28-3.58c3.7,0,6.25,2.3,6.25,7.2V96.07H86.37V85c0-2.15-.84-3.21-2.74-3.21s-3.25,1.17-3.25,3.61V96.07H73.84Z" fill="#fff"/><path d="M101.8,86.72v-.3c0-6.5,3.58-10,8.11-10a6.19,6.19,0,0,1,5.88,3.21V68.55h6.55V96.07h-6.55V93a6.44,6.44,0,0,1-6,3.54C105.42,96.51,101.8,93.33,101.8,86.72ZM116,86.61v-.3c0-3.21-1.36-4.93-3.77-4.93s-3.76,1.65-3.76,5v.29c0,3.22,1.42,4.86,3.69,4.86S116,89.86,116,86.61Z" fill="#fff"/><path d="M124.64,86.75v-.29c0-6.14,4.57-10,10.34-10,5.23,0,9.72,3,9.72,9.86V88H131.26c.18,2.52,1.64,4,4,4,2.16,0,3.07-1,3.32-2.27h6.14c-.58,4.31-3.91,6.76-9.68,6.76C129,96.51,124.64,93,124.64,86.75Zm13.71-2.41c-.11-2.3-1.25-3.58-3.37-3.58-2,0-3.32,1.28-3.65,3.58Z" fill="#fff"/><path d="M146,86.72v-.3c0-6.5,3.58-10,8.12-10A6.21,6.21,0,0,1,160,79.66V68.55h6.54V96.07H160V93a6.44,6.44,0,0,1-6,3.54C149.64,96.51,146,93.33,146,86.72Zm14.18-.11v-.3c0-3.21-1.35-4.93-3.76-4.93s-3.77,1.65-3.77,5v.29c0,3.22,1.43,4.86,3.7,4.86S160.2,89.86,160.2,86.61Z" fill="#fff"/><path d="M169.74,89.42V77h6.55v11.4c0,2.16.83,3.22,2.7,3.22s3.25-1.17,3.25-3.62V77h6.54V96.07h-6.54v-3a6.29,6.29,0,0,1-6.07,3.4C172.48,96.51,169.74,94.24,169.74,89.42Z" fill="#fff"/><path d="M191.09,86.75v-.29c0-6.36,4.57-10,10.19-10,4.68,0,9,2,9.36,7.85H204.5c-.29-1.79-1.17-2.77-3.07-2.77-2.3,0-3.65,1.64-3.65,4.86v.29c0,3.33,1.27,5,3.76,5a3.18,3.18,0,0,0,3.33-3.18h5.88c-.18,4.83-3.44,8-9.61,8C195.44,96.51,191.09,93.18,191.09,86.75Z" fill="#fff"/><path d="M213.75,89.93V81.42h-2.3V77h2.3V73h6.54v4h3.76v4.46h-3.76v7.89c0,1.39.69,2,1.94,2a4.94,4.94,0,0,0,1.86-.33v5a13.66,13.66,0,0,1-3.62.55C216.16,96.51,213.75,94.43,213.75,89.93Z" fill="#fff"/><path d="M226.39,71.77A3.61,3.61,0,1,1,230,75.13,3.42,3.42,0,0,1,226.39,71.77Zm.33,5.19h6.55V96.07h-6.55Z" fill="#fff"/><path d="M235.75,86.75v-.29c0-6.14,4.57-10,10.49-10s10.42,3.76,10.42,9.83v.29c0,6.21-4.57,9.94-10.46,9.94S235.75,92.93,235.75,86.75ZM250,86.64v-.29c0-3.22-1.28-5-3.76-5s-3.8,1.72-3.8,4.94v.29c0,3.29,1.28,5.08,3.8,5.08S250,89.82,250,86.64Z" fill="#fff"/><path d="M259,77h6.54V80a6.77,6.77,0,0,1,6.29-3.58c3.69,0,6.25,2.3,6.25,7.2V96.07H271.5V85c0-2.15-.84-3.21-2.75-3.21s-3.25,1.17-3.25,3.61V96.07H259Z" fill="#fff"/><path d="M21,125.27V125c0-6.5,3.58-10,8.11-10A6.19,6.19,0,0,1,35,118.21V107.1h6.54v27.52H35v-3.1A6.44,6.44,0,0,1,29,135.06C24.6,135.06,21,131.88,21,125.27Zm14.18-.11v-.3c0-3.21-1.36-4.93-3.77-4.93s-3.76,1.65-3.76,5v.29c0,3.22,1.42,4.86,3.69,4.86S35.17,128.41,35.17,125.16Z" fill="#fff"/><path d="M43.83,125.3V125c0-6.14,4.57-10,10.34-10,5.23,0,9.72,3,9.72,9.86v1.72H50.44c.19,2.52,1.65,4,4,4,2.15,0,3.07-1,3.32-2.27h6.14c-.58,4.31-3.91,6.76-9.68,6.76C48.22,135.06,43.83,131.55,43.83,125.3Zm13.7-2.41c-.1-2.3-1.24-3.58-3.36-3.58s-3.32,1.28-3.65,3.58Z" fill="#fff"/><path d="M67,128.48V120h-2.3v-4.46H67v-4h6.54v4h3.76V120H73.58v7.89c0,1.39.69,2,1.94,2a4.94,4.94,0,0,0,1.86-.33v5a13.66,13.66,0,0,1-3.62.55C69.45,135.06,67,133,67,128.48Z" fill="#fff"/><path d="M78.81,125.3V125c0-6.14,4.57-10,10.34-10,5.23,0,9.72,3,9.72,9.86v1.72H85.42c.19,2.52,1.65,4,4,4,2.15,0,3.07-1,3.32-2.27h6.14c-.58,4.31-3.91,6.76-9.68,6.76C83.19,135.06,78.81,131.55,78.81,125.3Zm13.7-2.41c-.11-2.3-1.24-3.58-3.36-3.58s-3.33,1.28-3.65,3.58Z" fill="#fff"/><path d="M100.12,125.3V125c0-6.36,4.56-10,10.19-10,4.68,0,9,2,9.36,7.85h-6.14c-.29-1.79-1.17-2.77-3.07-2.77-2.3,0-3.66,1.64-3.66,4.86v.29c0,3.33,1.28,5,3.77,5a3.17,3.17,0,0,0,3.32-3.18h5.89c-.19,4.83-3.44,8-9.61,8C104.47,135.06,100.12,131.73,100.12,125.3Z" fill="#fff"/><path d="M122.78,128.48V120h-2.31v-4.46h2.31v-4h6.54v4h3.76V120h-3.76v7.89c0,1.39.69,2,1.94,2a5,5,0,0,0,1.86-.33v5a13.66,13.66,0,0,1-3.62.55C125.19,135.06,122.78,133,122.78,128.48Z" fill="#fff"/><path d="M134.55,125.3V125c0-6.14,4.56-10,10.48-10s10.42,3.76,10.42,9.83v.29c0,6.21-4.57,9.94-10.45,9.94S134.55,131.48,134.55,125.3Zm14.25-.11v-.29c0-3.21-1.28-5-3.77-5s-3.8,1.72-3.8,4.94v.29c0,3.29,1.28,5.08,3.8,5.08S148.8,128.37,148.8,125.19Z" fill="#fff"/><path d="M157.75,115.51h6.55v3.8a6,6,0,0,1,6.17-4.06v6.11c-4-.11-6.17,1.13-6.17,4.2v9.06h-6.55Z" fill="#fff"/><path d="M170.4,131.33a3.65,3.65,0,0,1,3.73-3.69,3.69,3.69,0,1,1,0,7.38A3.64,3.64,0,0,1,170.4,131.33Z" fill="#fff"/></g></g></svg>