<svg xmlns="http://www.w3.org/2000/svg" viewBox="0 0 300 250"><title>135</title><g id="Layer_2" data-name="Layer 2"><g id="Rect"><rect width="300" height="250" fill="none"/></g><g id="_135" data-name="135"><g id="_NerdWallet_on_H_R_Block_Deluxe_Online" data-name="– NerdWallet on  H&amp;R Block Deluxe Online"><path d="M162.55,138.05h7.06v1.35h-7.06Z" fill="#fff"/><path d="M175,131.79h2.54l4.82,8.28v-8.28h1.94v11.45h-2.21l-5.16-8.77v8.77H175Z" fill="#fff"/><path d="M185.9,139.14V139a4.07,4.07,0,0,1,4.16-4.32c2.08,0,3.95,1.23,3.95,4.23v.56h-6.13c.07,1.58.87,2.48,2.31,2.48,1.17,0,1.77-.46,1.92-1.28H194c-.27,1.76-1.7,2.72-3.84,2.72A4,4,0,0,1,185.9,139.14Zm6.19-1c-.09-1.44-.83-2.08-2-2.08a2.14,2.14,0,0,0-2.14,2.08Z" fill="#fff"/><path d="M195.5,134.87h1.93v1.57a2.81,2.81,0,0,1,2.73-1.7v1.81c-1.7,0-2.73.56-2.73,2.34v4.35H195.5Z" fill="#fff"/><path d="M200.87,139.19v-.13c0-2.67,1.59-4.37,3.76-4.37a2.87,2.87,0,0,1,2.68,1.46V131h1.94v12.24h-1.94v-1.41a3.22,3.22,0,0,1-2.76,1.57C202.46,143.4,200.87,141.91,200.87,139.19Zm6.5-.1V139c0-1.84-.85-2.76-2.25-2.76s-2.26,1-2.26,2.8v.13c0,1.84.93,2.72,2.18,2.72S207.37,141,207.37,139.09Z" fill="#fff"/><path d="M210.57,131.79h2.18l2,8.41,2.23-8.41h1.76l2.27,8.46,2-8.46h2l-2.86,11.45H220l-2.26-8.34-2.32,8.34h-2Z" fill="#fff"/><path d="M225.18,140.92c0-1.95,1.89-2.66,4.29-2.66h1v-.43c0-1.12-.39-1.68-1.52-1.68a1.39,1.39,0,0,0-1.6,1.31h-1.88c.16-2,1.72-2.77,3.59-2.77s3.34.77,3.34,3.06v5.49h-1.9v-1A2.91,2.91,0,0,1,228,143.4C226.44,143.4,225.18,142.66,225.18,140.92Zm5.33-.61v-.83h-1c-1.48,0-2.42.33-2.42,1.36,0,.7.38,1.17,1.34,1.17C229.63,142,230.51,141.38,230.51,140.31Z" fill="#fff"/><path d="M234.47,131h1.94v12.24h-1.94Z" fill="#fff"/><path d="M238.57,131h1.94v12.24h-1.94Z" fill="#fff"/><path d="M242.06,139.14V139a4.07,4.07,0,0,1,4.16-4.32c2.08,0,3.95,1.23,3.95,4.23v.56H244c.07,1.58.87,2.48,2.31,2.48,1.17,0,1.77-.46,1.92-1.28h1.87c-.27,1.76-1.7,2.72-3.84,2.72A4,4,0,0,1,242.06,139.14Zm6.19-1c-.09-1.44-.83-2.08-2-2.08a2.16,2.16,0,0,0-2.15,2.08Z" fill="#fff"/><path d="M252,140.9v-4.57h-1.12v-1.46H252V133h1.93v1.84h1.84v1.46h-1.84v4.4c0,.73.36,1.07,1,1.07a2.42,2.42,0,0,0,.95-.16v1.54a3.82,3.82,0,0,1-1.31.2A2.25,2.25,0,0,1,252,140.9Z" fill="#fff"/><path d="M260.33,139.14V139a4.3,4.3,0,1,1,8.59,0v.12a4.3,4.3,0,0,1-8.59,0Zm6.61,0V139c0-1.73-.86-2.79-2.31-2.79s-2.32,1-2.32,2.77v.13c0,1.71.85,2.79,2.32,2.79S266.94,140.82,266.94,139.11Z" fill="#fff"/><path d="M270.42,134.87h1.94v1.33a2.88,2.88,0,0,1,2.71-1.51c1.68,0,2.86,1,2.86,3.28v5.27H276v-5.09c0-1.26-.52-1.84-1.67-1.84a1.85,1.85,0,0,0-2,2v4.93h-1.94Z" fill="#fff"/><path d="M95.15,149.79h2.13v4.87h5.13v-4.87h2.15v11.45h-2.15v-4.87H97.28v4.87H95.15Z" fill="#fff"/><path d="M114.7,158.9l1.92,2.34h-2.45l-1-1.17a4.1,4.1,0,0,1-3.13,1.31c-2.23,0-3.77-1.26-3.77-3.26,0-1.68,1-2.66,2.58-3.39a3.82,3.82,0,0,1-.89-2.26c0-1.81,1.48-2.77,3.15-2.77a2.61,2.61,0,0,1,2.88,2.48c0,1.33-.9,2.27-2.38,2.91l2,2.47,1.17-2.24h1.75Zm-2.48-.06-2.43-3a2.16,2.16,0,0,0-1.46,2,1.77,1.77,0,0,0,2,1.87A2.47,2.47,0,0,0,112.22,158.84Zm-1.47-4.67c1.07-.5,1.52-1,1.52-1.91a1.08,1.08,0,0,0-1.12-1.14,1.22,1.22,0,0,0-1.27,1.36A2.83,2.83,0,0,0,110.75,154.17Z" fill="#fff"/><path d="M118.14,149.79H122c2.51,0,4.27,1,4.27,3.37v.06a3,3,0,0,1-2.54,3.07l3.22,5h-2.31l-3-4.63h-1.36v4.63h-2.13Zm3.84,5.3c1.43,0,2.18-.6,2.18-1.82v-.06c0-1.32-.82-1.77-2.18-1.77h-1.71v3.65Z" fill="#fff"/><path d="M132,149.79H136c2.36,0,3.75.9,3.75,3v.07a2.34,2.34,0,0,1-1.81,2.43,2.51,2.51,0,0,1,2.29,2.7V158c0,2.13-1.41,3.2-3.92,3.2H132Zm3.84,4.82c1.41,0,2-.51,2-1.68v-.06c0-1.09-.62-1.55-2-1.55H134v3.29Zm.3,5.11c1.43,0,2.08-.64,2.08-1.83v-.06c0-1.18-.65-1.78-2.22-1.78H134v3.67Z" fill="#fff"/><path d="M141.91,149h1.94v12.24h-1.94Z" fill="#fff"/><path d="M145.4,157.14V157a4.3,4.3,0,0,1,8.6,0v.12a4.3,4.3,0,0,1-8.6,0Zm6.61,0V157c0-1.73-.86-2.79-2.3-2.79s-2.32,1-2.32,2.77v.13c0,1.71.85,2.79,2.32,2.79S152,158.82,152,157.11Z" fill="#fff"/><path d="M154.94,157.16V157a4.12,4.12,0,0,1,4.22-4.34c1.86,0,3.61.83,3.83,3.14h-1.87a1.72,1.72,0,0,0-1.92-1.58c-1.33,0-2.28,1-2.28,2.75v.13c0,1.82.9,2.78,2.32,2.78a1.91,1.91,0,0,0,2-1.79H163a3.55,3.55,0,0,1-3.88,3.28A4,4,0,0,1,154.94,157.16Z" fill="#fff"/><path d="M164.46,149h1.94v7.55l3-3.68h2.11l-3.25,3.84,3.52,4.53h-2.24l-3.13-4.11v4.11h-1.94Z" fill="#fff"/><path d="M176.59,149.79h3.47c4,0,5.92,2.28,5.92,5.61v.14c0,3.33-1.94,5.7-5.95,5.7h-3.44Zm3.37,9.77c2.56,0,3.8-1.47,3.8-4v-.13c0-2.47-1.12-4-3.81-4h-1.24v8.08Z" fill="#fff"/><path d="M187.05,157.14V157a4.07,4.07,0,0,1,4.16-4.32c2.08,0,4,1.23,4,4.23v.56H189c.07,1.58.87,2.48,2.31,2.48,1.17,0,1.78-.46,1.92-1.28h1.87c-.27,1.76-1.69,2.72-3.84,2.72A4,4,0,0,1,187.05,157.14Zm6.19-1c-.09-1.44-.83-2.08-2-2.08a2.14,2.14,0,0,0-2.14,2.08Z" fill="#fff"/><path d="M196.7,149h1.93v12.24H196.7Z" fill="#fff"/><path d="M200.67,158.23v-5.36h1.93V158c0,1.26.53,1.84,1.65,1.84a1.87,1.87,0,0,0,1.95-2v-5h1.94v8.37H206.2v-1.31a2.81,2.81,0,0,1-2.65,1.47C201.9,161.4,200.67,160.46,200.67,158.23Z" fill="#fff"/><path d="M212.28,157l-2.72-4.08h2.24l1.75,2.7,1.73-2.7h2l-2.71,3.94,3,4.43h-2.26l-2-3-2,3h-2Z" fill="#fff"/><path d="M217.75,157.14V157a4.07,4.07,0,0,1,4.17-4.32c2.08,0,4,1.23,4,4.23v.56h-6.13c.06,1.58.86,2.48,2.3,2.48,1.17,0,1.78-.46,1.92-1.28h1.88c-.28,1.76-1.7,2.72-3.84,2.72A4,4,0,0,1,217.75,157.14Zm6.2-1c-.1-1.44-.83-2.08-2-2.08a2.15,2.15,0,0,0-2.15,2.08Z" fill="#fff"/><path d="M230.5,155.59v-.13a5.62,5.62,0,0,1,5.8-5.82,5.53,5.53,0,0,1,5.76,5.77v.13a5.78,5.78,0,1,1-11.56.05Zm9.35,0v-.13c0-2.35-1.31-4.1-3.55-4.1s-3.57,1.65-3.57,4.12v.12c0,2.5,1.52,4.12,3.6,4.12S239.85,158,239.85,155.56Z" fill="#fff"/><path d="M243.71,152.87h1.93v1.33a2.88,2.88,0,0,1,2.71-1.51c1.68,0,2.86,1,2.86,3.28v5.27h-1.93v-5.09c0-1.26-.52-1.84-1.67-1.84a1.85,1.85,0,0,0-2,2v4.93h-1.93Z" fill="#fff"/><path d="M253.24,149h1.94v12.24h-1.94Z" fill="#fff"/><path d="M257.13,150.39a1.15,1.15,0,1,1,1.15,1.1A1.12,1.12,0,0,1,257.13,150.39Zm.21,2.48h1.93v8.37h-1.93Z" fill="#fff"/><path d="M261.38,152.87h1.94v1.33a2.88,2.88,0,0,1,2.71-1.51c1.68,0,2.86,1,2.86,3.28v5.27H267v-5.09c0-1.26-.52-1.84-1.67-1.84a1.85,1.85,0,0,0-2,2v4.93h-1.94Z" fill="#fff"/><path d="M270.31,157.14V157a4.07,4.07,0,0,1,4.16-4.32c2.08,0,4,1.23,4,4.23v.56H272.3c.06,1.58.86,2.48,2.3,2.48,1.17,0,1.78-.46,1.92-1.28h1.88c-.28,1.76-1.7,2.72-3.85,2.72A4,4,0,0,1,270.31,157.14Zm6.2-1c-.1-1.44-.84-2.08-2-2.08a2.15,2.15,0,0,0-2.14,2.08Z" fill="#fff"/></g><g id="_Our_choice_for_value_support_and_modern_features._" data-name="&quot;Our choice for value, support and modern features.&quot;"><path d="M20.15,28.06h4.7l-.59,7.7H20.71Zm5.93,0h4.74l-.59,7.7H26.67Z" fill="#fff"/><path d="M32.44,38.2V38c0-6.11,4.59-10.2,10.58-10.2s10.62,3.84,10.62,10.06v.22c0,6.16-4.23,10.36-10.7,10.36S32.44,44.22,32.44,38.2Zm15.2-.06v-.22c0-3.56-1.79-5.66-4.62-5.66S38.43,34.31,38.43,38v.22c0,3.64,1.85,5.74,4.62,5.74S47.64,41.73,47.64,38.14Z" fill="#fff"/><path d="M55.88,43V33.44h5v8.74c0,1.65.64,2.46,2.07,2.46s2.49-.9,2.49-2.77V33.44h5V48.08h-5V45.82a4.81,4.81,0,0,1-4.65,2.6C58,48.42,55.88,46.68,55.88,43Z" fill="#fff"/><path d="M73.43,33.44h5v2.91a4.64,4.64,0,0,1,4.74-3.11v4.68c-3.06-.08-4.74.87-4.74,3.22v6.94h-5Z" fill="#fff"/><path d="M90.15,40.94v-.22c0-4.87,3.5-7.67,7.81-7.67,3.58,0,6.89,1.57,7.17,6h-4.71a2.16,2.16,0,0,0-2.35-2.13c-1.76,0-2.8,1.26-2.8,3.72v.23c0,2.55,1,3.86,2.88,3.86a2.44,2.44,0,0,0,2.55-2.43h4.51c-.14,3.69-2.63,6.1-7.36,6.1C93.48,48.42,90.15,45.87,90.15,40.94Z" fill="#fff"/><path d="M107.25,27h5v8.79a5.16,5.16,0,0,1,4.81-2.74c2.83,0,4.79,1.76,4.79,5.51v9.52h-5V39.57c0-1.65-.65-2.46-2.1-2.46s-2.49.89-2.49,2.77v8.2h-5Z" fill="#fff"/><path d="M123.94,40.94v-.22c0-4.7,3.5-7.67,8-7.67s8,2.88,8,7.53v.22c0,4.76-3.5,7.62-8,7.62S123.94,45.68,123.94,40.94Zm10.92-.08v-.22c0-2.47-1-3.84-2.88-3.84s-2.91,1.32-2.91,3.78v.22c0,2.52,1,3.9,2.91,3.9S134.86,43.3,134.86,40.86Z" fill="#fff"/><path d="M142,29.46a2.62,2.62,0,0,1,2.74-2.6,2.6,2.6,0,1,1,0,5.18A2.59,2.59,0,0,1,142,29.46Zm.25,4h5V48.08h-5Z" fill="#fff"/><path d="M149.62,40.94v-.22c0-4.87,3.5-7.67,7.81-7.67,3.58,0,6.89,1.57,7.17,6h-4.71a2.16,2.16,0,0,0-2.35-2.13c-1.76,0-2.8,1.26-2.8,3.72v.23c0,2.55,1,3.86,2.89,3.86a2.43,2.43,0,0,0,2.54-2.43h4.51c-.14,3.69-2.63,6.1-7.36,6.1C153,48.42,149.62,45.87,149.62,40.94Z" fill="#fff"/><path d="M165.94,40.94v-.22c0-4.7,3.5-7.67,7.93-7.67,4,0,7.44,2.29,7.44,7.56v1.31H171A2.93,2.93,0,0,0,174.06,45c1.65,0,2.35-.76,2.55-1.74h4.7c-.44,3.3-3,5.18-7.42,5.18C169.3,48.42,165.94,45.73,165.94,40.94Zm10.5-1.84c-.08-1.77-.95-2.75-2.57-2.75s-2.55,1-2.8,2.75Z" fill="#fff"/><path d="M189.74,36.86h-1.85V33.44h1.85V32.15c0-3.64,2.27-5.37,5.74-5.37a9.31,9.31,0,0,1,2.3.3v3.67a4.71,4.71,0,0,0-1.37-.19,1.47,1.47,0,0,0-1.68,1.59v1.29h3v3.42h-3V48.08h-5Z" fill="#fff"/><path d="M198.51,40.94v-.22c0-4.7,3.5-7.67,8-7.67s8,2.88,8,7.53v.22c0,4.76-3.5,7.62-8,7.62S198.51,45.68,198.51,40.94Zm10.92-.08v-.22c0-2.47-1-3.84-2.89-3.84s-2.91,1.32-2.91,3.78v.22c0,2.52,1,3.9,2.91,3.9S209.43,43.3,209.43,40.86Z" fill="#fff"/><path d="M216.71,33.44h5v2.91a4.62,4.62,0,0,1,4.73-3.11v4.68c-3-.08-4.73.87-4.73,3.22v6.94h-5Z" fill="#fff"/><path d="M19.22,63.44h5.35l3.05,9.44,3-9.44h4.79L30.06,78.08H24.6Z" fill="#fff"/><path d="M35.63,74c0-3.44,2.91-4.78,7.79-4.78h1.4V68.9c0-1.4-.34-2.32-1.94-2.32a1.79,1.79,0,0,0-2,1.73H36.19c.23-3.53,3-5.26,7-5.26s6.61,1.65,6.61,5.54v9.49H44.93v-1.7a4.82,4.82,0,0,1-4.34,2C38,78.42,35.63,77.13,35.63,74ZM44.82,73v-.9H43.5c-2,0-2.91.4-2.91,1.6,0,.84.56,1.37,1.73,1.37C43.75,75,44.82,74.22,44.82,73Z" fill="#fff"/><path d="M52.8,57h5V78.08h-5Z" fill="#fff"/><path d="M60.78,73V63.44h5v8.74c0,1.65.64,2.46,2.07,2.46s2.49-.9,2.49-2.77V63.44h5V78.08h-5V75.82a4.81,4.81,0,0,1-4.65,2.6C62.88,78.42,60.78,76.68,60.78,73Z" fill="#fff"/><path d="M77.55,70.94v-.22c0-4.7,3.5-7.67,7.92-7.67,4,0,7.45,2.29,7.45,7.56v1.31H82.61A2.93,2.93,0,0,0,85.67,75c1.65,0,2.35-.76,2.54-1.74h4.71c-.45,3.3-3,5.18-7.42,5.18C80.91,78.42,77.55,75.73,77.55,70.94Zm10.5-1.84c-.09-1.77-1-2.75-2.58-2.75s-2.55,1-2.8,2.75Z" fill="#fff"/><path d="M93.9,80.35,96.25,73l4.65,1.65-4,6.86Z" fill="#fff"/><path d="M108,73.44h4.62c.17,1.06.64,1.65,2.07,1.65,1.23,0,1.79-.48,1.79-1.21s-.7-1-2.71-1.31c-3.92-.51-5.58-1.65-5.58-4.71,0-3.24,2.89-4.81,6.28-4.81,3.61,0,6.13,1.23,6.46,4.73h-4.53a1.64,1.64,0,0,0-1.88-1.46c-1.09,0-1.65.48-1.65,1.15s.67,1,2.47,1.21c4.05.5,6,1.56,6,4.7,0,3.47-2.57,5-6.63,5S108.15,76.68,108,73.44Z" fill="#fff"/><path d="M123.33,73V63.44h5v8.74c0,1.65.64,2.46,2.07,2.46s2.49-.9,2.49-2.77V63.44h5V78.08h-5V75.82a4.81,4.81,0,0,1-4.65,2.6C125.43,78.42,123.33,76.68,123.33,73Z" fill="#fff"/><path d="M140.88,63.44h5v2.18a5.18,5.18,0,0,1,4.57-2.57c3.41,0,6.19,2.57,6.19,7.59v.22c0,5-2.78,7.56-6.22,7.56a4.85,4.85,0,0,1-4.54-2.49v7h-5Zm10.67,7.42v-.22c0-2.58-1.12-3.81-2.88-3.81s-2.92,1.31-2.92,3.78v.22c0,2.49,1.1,3.75,2.92,3.75S151.55,73.27,151.55,70.86Z" fill="#fff"/><path d="M158.89,63.44h5v2.18a5.16,5.16,0,0,1,4.56-2.57c3.42,0,6.19,2.57,6.19,7.59v.22c0,5-2.77,7.56-6.22,7.56a4.83,4.83,0,0,1-4.53-2.49v7h-5Zm10.66,7.42v-.22c0-2.58-1.12-3.81-2.88-3.81s-2.91,1.31-2.91,3.78v.22c0,2.49,1.09,3.75,2.91,3.75S169.55,73.27,169.55,70.86Z" fill="#fff"/><path d="M176.11,70.94v-.22c0-4.7,3.5-7.67,8-7.67s8,2.88,8,7.53v.22c0,4.76-3.5,7.62-8,7.62S176.11,75.68,176.11,70.94ZM187,70.86v-.22c0-2.47-1-3.84-2.89-3.84s-2.91,1.32-2.91,3.78v.22c0,2.52,1,3.9,2.91,3.9S187,73.3,187,70.86Z" fill="#fff"/><path d="M194.31,63.44h5v2.91a4.62,4.62,0,0,1,4.73-3.11v4.68c-3.05-.08-4.73.87-4.73,3.22v6.94h-5Z" fill="#fff"/><path d="M207.19,73.38V66.86h-1.77V63.44h1.77v-3h5v3h2.88v3.42H212.2v6c0,1.07.53,1.54,1.48,1.54a3.8,3.8,0,0,0,1.43-.25V78a10.5,10.5,0,0,1-2.77.42C209,78.42,207.19,76.82,207.19,73.38Z" fill="#fff"/><path d="M222.08,74c0-3.44,2.91-4.78,7.79-4.78h1.39V68.9c0-1.4-.33-2.32-1.93-2.32a1.8,1.8,0,0,0-2,1.73h-4.7c.23-3.53,3-5.26,7-5.26s6.61,1.65,6.61,5.54v9.49h-4.87v-1.7a4.82,4.82,0,0,1-4.34,2C224.41,78.42,222.08,77.13,222.08,74ZM231.26,73v-.9H230c-2,0-2.91.4-2.91,1.6,0,.84.56,1.37,1.73,1.37C230.2,75,231.26,74.22,231.26,73Z" fill="#fff"/><path d="M239.1,63.44h5v2.35a5.16,5.16,0,0,1,4.81-2.74c2.83,0,4.79,1.76,4.79,5.51v9.52h-5V69.57c0-1.65-.65-2.46-2.1-2.46s-2.49.89-2.49,2.77v8.2h-5Z" fill="#fff"/><path d="M255.85,70.92v-.23c0-5,2.74-7.64,6.21-7.64a4.75,4.75,0,0,1,4.51,2.46V57h5V78.08h-5V75.7A4.92,4.92,0,0,1,262,78.42C258.62,78.42,255.85,76,255.85,70.92Zm10.86-.09v-.22c0-2.47-1-3.78-2.88-3.78s-2.89,1.26-2.89,3.81v.22c0,2.46,1.1,3.72,2.83,3.72S266.71,73.32,266.71,70.83Z" fill="#fff"/><path d="M20.48,93.44h5v2.24a5.11,5.11,0,0,1,4.59-2.63,4,4,0,0,1,4,2.43,5.83,5.83,0,0,1,4.85-2.43c2.77,0,4.79,1.79,4.79,5.46v9.57h-5V99.35c0-1.49-.72-2.21-1.87-2.21a2.16,2.16,0,0,0-2.24,2.46v8.48h-5V99.35c0-1.49-.73-2.21-1.87-2.21A2.16,2.16,0,0,0,25.5,99.6v8.48h-5Z" fill="#fff"/><path d="M45.77,100.94v-.22c0-4.7,3.5-7.67,8-7.67s8,2.88,8,7.53v.22c0,4.76-3.5,7.62-8,7.62S45.77,105.68,45.77,100.94Zm10.92-.08v-.22c0-2.47-1-3.84-2.89-3.84s-2.91,1.32-2.91,3.78v.22c0,2.52,1,3.9,2.91,3.9S56.69,103.3,56.69,100.86Z" fill="#fff"/><path d="M63.24,100.92v-.23c0-5,2.74-7.64,6.22-7.64A4.75,4.75,0,0,1,74,95.51V87h5v21.08H74V105.7a4.91,4.91,0,0,1-4.56,2.72C66,108.42,63.24,106,63.24,100.92Zm10.86-.09v-.22c0-2.47-1-3.78-2.88-3.78s-2.88,1.26-2.88,3.81v.22c0,2.46,1.09,3.72,2.82,3.72S74.1,103.32,74.1,100.83Z" fill="#fff"/><path d="M81.16,100.94v-.22c0-4.7,3.5-7.67,7.92-7.67,4,0,7.45,2.29,7.45,7.56v1.31H86.23a2.93,2.93,0,0,0,3,3.06c1.65,0,2.35-.76,2.55-1.74h4.7c-.45,3.3-3,5.18-7.42,5.18C84.52,108.42,81.16,105.73,81.16,100.94Zm10.5-1.84c-.08-1.77-1-2.75-2.58-2.75s-2.54,1-2.8,2.75Z" fill="#fff"/><path d="M98.69,93.44h5v2.91a4.62,4.62,0,0,1,4.73-3.11v4.68c-3.05-.08-4.73.87-4.73,3.22v6.94h-5Z" fill="#fff"/><path d="M110.67,93.44h5v2.35a5.18,5.18,0,0,1,4.82-2.74c2.83,0,4.79,1.76,4.79,5.51v9.52h-5V99.57c0-1.65-.65-2.46-2.1-2.46s-2.5.89-2.5,2.77v8.2h-5Z" fill="#fff"/><path d="M134.42,96.86h-1.85V93.44h1.85V92.15c0-3.64,2.26-5.37,5.73-5.37a9.31,9.31,0,0,1,2.3.3v3.67a4.65,4.65,0,0,0-1.37-.19,1.47,1.47,0,0,0-1.68,1.59v1.29h3v3.42h-3v11.22h-5Z" fill="#fff"/><path d="M143.18,100.94v-.22c0-4.7,3.5-7.67,7.92-7.67,4,0,7.45,2.29,7.45,7.56v1.31h-10.3A2.93,2.93,0,0,0,151.3,105c1.65,0,2.35-.76,2.55-1.74h4.7c-.45,3.3-3,5.18-7.42,5.18C146.54,108.42,143.18,105.73,143.18,100.94Zm10.5-1.84c-.09-1.77-1-2.75-2.58-2.75s-2.55,1-2.8,2.75Z" fill="#fff"/><path d="M160,104c0-3.44,2.91-4.78,7.78-4.78h1.4V98.9c0-1.4-.34-2.32-1.93-2.32a1.8,1.8,0,0,0-2,1.73h-4.7c.22-3.53,3-5.26,7-5.26s6.6,1.65,6.6,5.54v9.49H169.3v-1.7a4.82,4.82,0,0,1-4.34,2C162.33,108.42,160,107.13,160,104Zm9.18-1.06v-.9h-1.32c-2,0-2.91.4-2.91,1.6,0,.84.56,1.37,1.74,1.37C168.13,105,169.19,104.22,169.19,103Z" fill="#fff"/><path d="M177.62,103.38V96.86h-1.77V93.44h1.77v-3h5v3h2.88v3.42h-2.88v6c0,1.07.53,1.54,1.48,1.54a3.8,3.8,0,0,0,1.43-.25V108a10.36,10.36,0,0,1-2.77.42C179.47,108.42,177.62,106.82,177.62,103.38Z" fill="#fff"/><path d="M187.73,103V93.44h5v8.74c0,1.65.64,2.46,2.07,2.46s2.49-.9,2.49-2.77V93.44h5v14.64h-5v-2.26a4.81,4.81,0,0,1-4.65,2.6C189.83,108.42,187.73,106.68,187.73,103Z" fill="#fff"/><path d="M205.28,93.44h5v2.91A4.64,4.64,0,0,1,215,93.24v4.68c-3.06-.08-4.74.87-4.74,3.22v6.94h-5Z" fill="#fff"/><path d="M216.34,100.94v-.22c0-4.7,3.5-7.67,7.93-7.67,4,0,7.44,2.29,7.44,7.56v1.31h-10.3a2.93,2.93,0,0,0,3.05,3.06c1.65,0,2.35-.76,2.55-1.74h4.7c-.44,3.3-3,5.18-7.42,5.18C219.7,108.42,216.34,105.73,216.34,100.94Zm10.5-1.84c-.08-1.77-1-2.75-2.57-2.75s-2.55,1-2.8,2.75Z" fill="#fff"/><path d="M233,103.44h4.62c.17,1.06.64,1.65,2.07,1.65,1.23,0,1.79-.48,1.79-1.21s-.7-1-2.71-1.31c-3.92-.51-5.57-1.65-5.57-4.71,0-3.24,2.88-4.81,6.27-4.81,3.61,0,6.13,1.23,6.46,4.73h-4.53a1.64,1.64,0,0,0-1.88-1.46c-1.09,0-1.65.48-1.65,1.15s.67,1,2.47,1.21c4,.5,6,1.56,6,4.7,0,3.47-2.57,5-6.63,5S233.14,106.68,233,103.44Z" fill="#fff"/><path d="M248.23,105.56a2.79,2.79,0,0,1,2.86-2.82,2.83,2.83,0,1,1,0,5.65A2.8,2.8,0,0,1,248.23,105.56Z" fill="#fff"/><path d="M253.27,88.06H258l-.59,7.7h-3.56Zm5.94,0h4.73l-.59,7.7H259.8Z" fill="#fff"/></g></g></g></svg>