<svg xmlns="http://www.w3.org/2000/svg" viewBox="0 0 300 600"><title>Asset 2</title><g id="Layer_2" data-name="Layer 2"><g id="rect"><rect width="300" height="600" fill="none"/></g><g id="Our_experts_will_get_you_the_biggest_refund_you_re_entitled" data-name="Our experts will  get you the  biggest refund you’re  entitled"><path d="M24.93,108.84v-.24c0-6.52,4.9-10.89,11.3-10.89s11.34,4.1,11.34,10.74v.24c0,6.58-4.52,11.06-11.43,11.06S24.93,115.27,24.93,108.84Zm16.24-.06v-.24c0-3.8-1.92-6-4.94-6s-4.9,2.18-4.9,6.07v.24c0,3.89,2,6.13,4.93,6.13S41.17,112.61,41.17,108.78Z" fill="#fff"/><path d="M49.5,114v-10.2h5.36v9.33c0,1.77.69,2.64,2.21,2.64s2.66-1,2.66-3v-9h5.36V119.4H59.73V117a5.12,5.12,0,0,1-5,2.78C51.75,119.75,49.5,117.9,49.5,114Z" fill="#fff"/><path d="M67.8,103.75h5.36v3.11a4.92,4.92,0,0,1,5-3.32v5c-3.26-.09-5,.93-5,3.44v7.42H67.8Z" fill="#fff"/><path d="M84.76,111.77v-.24c0-5,3.73-8.19,8.46-8.19,4.28,0,8,2.45,8,8.07v1.41h-11c.15,2.06,1.35,3.26,3.26,3.26,1.76,0,2.51-.81,2.72-1.86h5c-.47,3.53-3.19,5.53-7.92,5.53C88.34,119.75,84.76,116.88,84.76,111.77Zm11.21-2c-.09-1.89-1-2.94-2.75-2.94s-2.72,1-3,2.94Z" fill="#fff"/><path d="M106.13,111.44l-4.87-7.69h6.16l2.42,4.13,2.37-4.13h5.5L112.77,111l5.42,8.38H112l-2.78-4.67-2.85,4.67h-5.47Z" fill="#fff"/><path d="M119.68,103.75H125v2.34a5.51,5.51,0,0,1,4.88-2.75c3.65,0,6.61,2.75,6.61,8.1v.24c0,5.38-3,8.07-6.64,8.07a5.15,5.15,0,0,1-4.85-2.66v7.54h-5.35Zm11.39,7.93v-.24c0-2.75-1.19-4.07-3.08-4.07s-3.11,1.41-3.11,4v.24c0,2.66,1.17,4,3.11,4S131.07,114.25,131.07,111.68Z" fill="#fff"/><path d="M137.62,111.77v-.24c0-5,3.74-8.19,8.46-8.19,4.28,0,8,2.45,8,8.07v1.41H143c.15,2.06,1.35,3.26,3.26,3.26s2.51-.81,2.72-1.86h5c-.48,3.53-3.2,5.53-7.93,5.53C141.21,119.75,137.62,116.88,137.62,111.77Zm11.21-2c-.09-1.89-1-2.94-2.75-2.94s-2.72,1-3,2.94Z" fill="#fff"/><path d="M155.89,103.75h5.35v3.11a4.94,4.94,0,0,1,5.06-3.32v5c-3.26-.09-5.06.93-5.06,3.44v7.42h-5.35Z" fill="#fff"/><path d="M169.19,114.37v-7h-1.88v-3.65h1.88v-3.26h5.36v3.26h3.08v3.65h-3.08v6.46c0,1.14.57,1.65,1.58,1.65a4.09,4.09,0,0,0,1.53-.27v4.07a11.31,11.31,0,0,1-3,.44C171.17,119.75,169.19,118.05,169.19,114.37Z" fill="#fff"/><path d="M178.82,114.43h4.93c.18,1.14.69,1.77,2.22,1.77,1.31,0,1.91-.51,1.91-1.29s-.75-1.11-2.9-1.41c-4.19-.53-5.95-1.76-5.95-5,0-3.47,3.08-5.14,6.7-5.14,3.85,0,6.55,1.31,6.91,5h-4.85a1.75,1.75,0,0,0-2-1.56c-1.17,0-1.77.51-1.77,1.23s.72,1,2.63,1.29c4.34.53,6.43,1.67,6.43,5,0,3.71-2.75,5.38-7.08,5.38S178.94,117.9,178.82,114.43Z" fill="#fff"/><path d="M198.94,103.75h5.59l2.28,9.37,2.63-9.37h4.31l2.33,9.37,2.54-9.37h5.08l-5,15.65h-5.11l-2.34-8.74-2.42,8.74h-5.2Z" fill="#fff"/><path d="M225,99.51a2.79,2.79,0,0,1,2.93-2.78,2.77,2.77,0,1,1,0,5.53A2.77,2.77,0,0,1,225,99.51Zm.27,4.24h5.36V119.4h-5.36Z" fill="#fff"/><path d="M233.59,96.88h5.33V119.4h-5.33Z" fill="#fff"/><path d="M241.94,96.88h5.32V119.4h-5.32Z" fill="#fff"/><path d="M24.72,167.62H30c.24,1.14.93,2,2.87,2a3,3,0,0,0,3.32-3.29V164a5.48,5.48,0,0,1-4.84,2.88c-3.65,0-6.64-2.7-6.64-7.51v-.24c0-4.61,3-7.54,6.64-7.54a5.08,5.08,0,0,1,4.84,2.64V152h5.36v14.33c0,4.66-3.09,7.12-8.68,7.12C27.59,173.43,25.14,171.18,24.72,167.62Zm11.66-8.31v-.21c0-2.15-1.11-3.53-3.08-3.53s-3.08,1.41-3.08,3.56v.24c0,2.15,1.14,3.53,3.05,3.53S36.38,161.52,36.38,159.31Z" fill="#fff"/><path d="M43.46,160v-.24c0-5,3.74-8.2,8.47-8.2,4.28,0,8,2.46,8,8.08V161h-11c.15,2.07,1.34,3.26,3.26,3.26,1.76,0,2.51-.8,2.72-1.85h5C59.41,166,56.68,168,52,168,47.05,168,43.46,165.11,43.46,160Zm11.22-2c-.09-1.88-1-2.93-2.75-2.93s-2.72,1-3,2.93Z" fill="#fff"/><path d="M62.45,162.6v-7H60.57V152h1.88v-3.26H67.8V152h3.09v3.65H67.8v6.46a1.43,1.43,0,0,0,1.59,1.65,4.09,4.09,0,0,0,1.53-.27v4.06a11.27,11.27,0,0,1-3,.45C64.43,168,62.45,166.28,62.45,162.6Z" fill="#fff"/><path d="M83.26,166,77,152h5.8L86,160.33,89,152h5.12l-8.38,20.88H80.66Z" fill="#fff"/><path d="M93.84,160v-.24c0-5,3.74-8.2,8.59-8.2s8.52,3.08,8.52,8.05v.24c0,5.08-3.74,8.13-8.55,8.13S93.84,165.05,93.84,160Zm11.67-.09v-.24c0-2.63-1.05-4.1-3.08-4.1s-3.11,1.41-3.11,4v.24c0,2.69,1,4.15,3.11,4.15S105.51,162.51,105.51,159.91Z" fill="#fff"/><path d="M112.71,162.18V152h5.36v9.33c0,1.77.68,2.63,2.21,2.63s2.66-.95,2.66-3v-9h5.35v15.64h-5.35V165.2a5.13,5.13,0,0,1-5,2.78C115,168,112.71,166.13,112.71,162.18Z" fill="#fff"/><path d="M137.17,162.6v-7h-1.88V152h1.88v-3.26h5.35V152h3.08v3.65h-3.08v6.46a1.43,1.43,0,0,0,1.59,1.65,4,4,0,0,0,1.52-.27v4.06a11.11,11.11,0,0,1-3,.45C139.14,168,137.17,166.28,137.17,162.6Z" fill="#fff"/><path d="M147.64,145.1H153v9.39a5.53,5.53,0,0,1,5.14-2.93c3,0,5.12,1.89,5.12,5.9v10.16h-5.36v-9.09c0-1.76-.68-2.63-2.24-2.63s-2.66,1-2.66,3v8.76h-5.35Z" fill="#fff"/><path d="M165,160v-.24c0-5,3.74-8.2,8.46-8.2,4.28,0,8,2.46,8,8.08V161h-11c.15,2.07,1.35,3.26,3.26,3.26,1.76,0,2.51-.8,2.72-1.85h5C181,166,178.23,168,173.5,168,168.6,168,165,165.11,165,160Zm11.21-2c-.09-1.88-1-2.93-2.75-2.93s-2.72,1-3,2.93Z" fill="#fff"/><path d="M30.94,213.43v2.42H25.58V193.33h5.36v9.21a5.53,5.53,0,0,1,4.87-2.75c3.65,0,6.61,2.75,6.61,8.11v.24c0,5.38-3,8.07-6.64,8.07A5.08,5.08,0,0,1,30.94,213.43Zm6-5.29v-.24c0-2.75-1.2-4.07-3.08-4.07s-3.11,1.4-3.11,4v.24c0,2.66,1.17,4,3.11,4S37,210.71,37,208.14Z" fill="#fff"/><path d="M44.24,196a3,3,0,1,1,2.93,2.76A2.8,2.8,0,0,1,44.24,196Zm.27,4.25h5.35v15.64H44.51Z" fill="#fff"/><path d="M51.87,215.85h5.32c.24,1.14.93,2,2.87,2a3,3,0,0,0,3.32-3.29v-2.4a5.47,5.47,0,0,1-4.84,2.87c-3.65,0-6.64-2.69-6.64-7.5v-.24c0-4.61,3-7.54,6.64-7.54a5.09,5.09,0,0,1,4.84,2.63v-2.21h5.35v14.33c0,4.66-3.08,7.11-8.67,7.11C54.74,221.65,52.29,219.41,51.87,215.85Zm11.66-8.31v-.21c0-2.15-1.11-3.53-3.08-3.53s-3.08,1.41-3.08,3.56v.24c0,2.15,1.14,3.53,3.05,3.53S63.53,209.75,63.53,207.54Z" fill="#fff"/><path d="M70.58,215.85h5.33c.24,1.14.92,2,2.87,2a3,3,0,0,0,3.32-3.29v-2.4a5.48,5.48,0,0,1-4.85,2.87c-3.65,0-6.64-2.69-6.64-7.5v-.24c0-4.61,3-7.54,6.64-7.54a5.1,5.1,0,0,1,4.85,2.63v-2.21h5.35v14.33c0,4.66-3.08,7.11-8.67,7.11C73.45,221.65,71,219.41,70.58,215.85Zm11.67-8.31v-.21c0-2.15-1.11-3.53-3.08-3.53s-3.08,1.41-3.08,3.56v.24c0,2.15,1.13,3.53,3,3.53S82.25,209.75,82.25,207.54Z" fill="#fff"/><path d="M89.33,208.23V208c0-5,3.74-8.2,8.46-8.2,4.28,0,8,2.45,8,8.08v1.4h-11c.15,2.07,1.35,3.26,3.26,3.26s2.52-.81,2.73-1.85h5c-.48,3.53-3.2,5.53-7.93,5.53C92.92,216.21,89.33,213.34,89.33,208.23Zm11.22-2c-.09-1.88-1-2.93-2.76-2.93s-2.72,1.05-3,2.93Z" fill="#fff"/><path d="M106.7,210.89h4.94c.18,1.13.68,1.76,2.21,1.76,1.32,0,1.91-.51,1.91-1.28s-.74-1.11-2.9-1.41c-4.18-.54-6-1.76-6-5,0-3.47,3.08-5.15,6.7-5.15,3.86,0,6.55,1.32,6.91,5.06h-4.85a1.74,1.74,0,0,0-2-1.56c-1.17,0-1.76.51-1.76,1.23s.71,1,2.63,1.28c4.33.54,6.43,1.68,6.43,5,0,3.71-2.75,5.38-7.09,5.38S106.82,214.36,106.7,210.89Z" fill="#fff"/><path d="M123.42,210.83v-7h-1.89v-3.65h1.89V197h5.35v3.26h3.08v3.65h-3.08v6.46c0,1.14.57,1.64,1.58,1.64a4.09,4.09,0,0,0,1.53-.27v4.07a11.18,11.18,0,0,1-3,.45C125.39,216.21,123.42,214.51,123.42,210.83Z" fill="#fff"/><path d="M139.32,200.21h5.36v3.11a4.92,4.92,0,0,1,5-3.32v5c-3.26-.09-5,.92-5,3.44v7.41h-5.36Z" fill="#fff"/><path d="M150.68,208.23V208c0-5,3.74-8.2,8.47-8.2,4.27,0,7.95,2.45,7.95,8.08v1.4h-11c.15,2.07,1.34,3.26,3.26,3.26,1.76,0,2.51-.81,2.72-1.85h5c-.47,3.53-3.2,5.53-7.92,5.53C154.27,216.21,150.68,213.34,150.68,208.23Zm11.22-2c-.09-1.88-1-2.93-2.75-2.93s-2.72,1.05-3,2.93Z" fill="#fff"/><path d="M169.76,203.86h-2v-3.65h2v-1.38c0-3.88,2.42-5.74,6.13-5.74a9.43,9.43,0,0,1,2.45.33v3.92a4.81,4.81,0,0,0-1.46-.21,1.57,1.57,0,0,0-1.8,1.7v1.38h3.17v3.65h-3.17v12h-5.32Z" fill="#fff"/><path d="M179.93,210.41v-10.2h5.35v9.33c0,1.77.69,2.63,2.21,2.63s2.66-.95,2.66-3v-9h5.36v15.64h-5.36v-2.42a5.13,5.13,0,0,1-5,2.78C182.17,216.21,179.93,214.36,179.93,210.41Z" fill="#fff"/><path d="M198.22,200.21h5.36v2.51a5.53,5.53,0,0,1,5.14-2.93c3,0,5.12,1.89,5.12,5.89v10.17h-5.36v-9.09c0-1.76-.69-2.63-2.24-2.63s-2.66,1-2.66,3v8.76h-5.36Z" fill="#fff"/><path d="M215.66,208.2V208c0-5.33,2.93-8.17,6.64-8.17a5.08,5.08,0,0,1,4.81,2.63v-9.09h5.35v22.52h-5.35v-2.54a5.28,5.28,0,0,1-4.87,2.9C218.62,216.21,215.66,213.61,215.66,208.2Zm11.6-.09v-.24c0-2.64-1.11-4-3.08-4s-3.08,1.35-3.08,4.07v.24c0,2.63,1.17,4,3,4S227.26,210.77,227.26,208.11Z" fill="#fff"/><path d="M30.49,262.5l-6.25-14.06H30l3.23,8.34,3-8.34h5.12L33,269.31H27.89Z" fill="#fff"/><path d="M41.07,256.45v-.24c0-5,3.74-8.19,8.59-8.19s8.52,3.08,8.52,8v.24c0,5.09-3.74,8.14-8.55,8.14S41.07,261.51,41.07,256.45Zm11.67-.09v-.23c0-2.64-1.05-4.1-3.08-4.1s-3.11,1.4-3.11,4v.24c0,2.7,1,4.16,3.11,4.16S52.74,259,52.74,256.36Z" fill="#fff"/><path d="M59.94,258.64v-10.2h5.35v9.33c0,1.76.69,2.63,2.22,2.63s2.66-1,2.66-3v-9h5.35v15.64H70.17v-2.42a5.15,5.15,0,0,1-5,2.78C62.18,264.44,59.94,262.58,59.94,258.64Z" fill="#fff"/><path d="M77.82,250.11l2.39-7.8,4.73,1.58-4.1,7.39Z" fill="#fff"/><path d="M85.12,248.44h5.35v3.11a4.93,4.93,0,0,1,5-3.32v5c-3.26-.09-5,.93-5,3.44v7.42H85.12Z" fill="#fff"/><path d="M96.48,256.45v-.24c0-5,3.74-8.19,8.46-8.19,4.28,0,8,2.45,8,8.07v1.41h-11c.15,2.06,1.35,3.26,3.26,3.26s2.51-.81,2.72-1.85h5c-.48,3.53-3.2,5.53-7.93,5.53C100.07,264.44,96.48,261.57,96.48,256.45Zm11.21-2c-.09-1.88-1-2.93-2.75-2.93s-2.72,1-3,2.93Z" fill="#fff"/><path d="M124.79,256.45v-.24c0-5,3.74-8.19,8.47-8.19,4.27,0,8,2.45,8,8.07v1.41h-11c.14,2.06,1.34,3.26,3.26,3.26,1.76,0,2.51-.81,2.72-1.85h5c-.48,3.53-3.2,5.53-7.92,5.53C128.38,264.44,124.79,261.57,124.79,256.45Zm11.22-2c-.09-1.88-1-2.93-2.75-2.93s-2.73,1-3,2.93Z" fill="#fff"/><path d="M143.06,248.44h5.35V251a5.54,5.54,0,0,1,5.15-2.93c3,0,5.11,1.88,5.11,5.89v10.17h-5.35V255c0-1.77-.69-2.63-2.24-2.63s-2.67.95-2.67,3v8.76h-5.35Z" fill="#fff"/><path d="M162,259.06v-7H160.1v-3.65H162v-3.26h5.35v3.26h3.08v3.65h-3.08v6.46a1.43,1.43,0,0,0,1.59,1.64,4.07,4.07,0,0,0,1.52-.27V264a11.18,11.18,0,0,1-3,.45C164,264.44,162,262.73,162,259.06Z" fill="#fff"/><path d="M172.33,244.19a3,3,0,1,1,2.93,2.75A2.77,2.77,0,0,1,172.33,244.19Zm.27,4.25H178v15.64H172.6Z" fill="#fff"/><path d="M181.54,259.06v-7h-1.88v-3.65h1.88v-3.26h5.36v3.26H190v3.65H186.9v6.46c0,1.13.56,1.64,1.58,1.64a4.09,4.09,0,0,0,1.53-.27V264a11.27,11.27,0,0,1-3,.45C183.52,264.44,181.54,262.73,181.54,259.06Z" fill="#fff"/><path d="M192.16,241.56h5.32v22.52h-5.32Z" fill="#fff"/><path d="M199.51,256.45v-.24c0-5,3.74-8.19,8.46-8.19,4.28,0,8,2.45,8,8.07v1.41h-11c.15,2.06,1.35,3.26,3.26,3.26s2.52-.81,2.73-1.85h5c-.48,3.53-3.2,5.53-7.93,5.53C203.1,264.44,199.51,261.57,199.51,256.45Zm11.22-2c-.09-1.88-1-2.93-2.76-2.93s-2.72,1-3,2.93Z" fill="#fff"/><path d="M217,256.42v-.24c0-5.32,2.93-8.16,6.64-8.16a5.09,5.09,0,0,1,4.82,2.63v-9.09h5.35v22.52h-5.35v-2.54a5.29,5.29,0,0,1-4.88,2.9C220,264.44,217,261.84,217,256.42Zm11.61-.09v-.24c0-2.63-1.11-4-3.08-4s-3.08,1.34-3.08,4.07v.23c0,2.64,1.16,4,3,4S228.61,259,228.61,256.33Z" fill="#fff"/><path d="M26.3,307.28v-7H24.42v-3.65H26.3v-3.26h5.36v3.26h3.08v3.65H31.66v6.46c0,1.13.56,1.64,1.58,1.64a4.09,4.09,0,0,0,1.53-.27v4.07a11.25,11.25,0,0,1-3,.45C28.28,312.67,26.3,311,26.3,307.28Z" fill="#fff"/><path d="M35.93,304.68v-.24c0-5,3.74-8.19,8.58-8.19s8.53,3.08,8.53,8v.24c0,5.09-3.74,8.14-8.56,8.14S35.93,309.74,35.93,304.68Zm11.66-.09v-.24c0-2.63-1-4.09-3.08-4.09s-3.11,1.4-3.11,4v.24c0,2.69,1.05,4.16,3.11,4.16S47.59,307.19,47.59,304.59Z" fill="#fff"/><path d="M65.71,309.89v2.42H60.36V289.79h5.35V299a5.51,5.51,0,0,1,4.88-2.75c3.64,0,6.61,2.75,6.61,8.1v.24c0,5.39-3,8.08-6.64,8.08A5.08,5.08,0,0,1,65.71,309.89Zm6-5.3v-.24c0-2.75-1.19-4.06-3.08-4.06s-3.11,1.4-3.11,4v.24c0,2.66,1.17,4,3.11,4S71.75,307.16,71.75,304.59Z" fill="#fff"/><path d="M78.3,304.68v-.24c0-5,3.74-8.19,8.46-8.19,4.28,0,8,2.45,8,8.07v1.41h-11c.15,2.06,1.35,3.26,3.26,3.26s2.51-.81,2.72-1.86h5c-.48,3.53-3.2,5.54-7.93,5.54C81.89,312.67,78.3,309.8,78.3,304.68Zm11.21-2c-.09-1.89-1-2.93-2.75-2.93s-2.72,1-3,2.93Z" fill="#fff"/><path d="M95.73,304.68v-.24c0-5.2,3.74-8.19,8.34-8.19,3.83,0,7.36,1.67,7.66,6.43h-5a2.31,2.31,0,0,0-2.52-2.27c-1.88,0-3,1.34-3,4v.24c0,2.72,1,4.13,3.08,4.13a2.6,2.6,0,0,0,2.72-2.6h4.82c-.15,4-2.81,6.52-7.87,6.52C99.29,312.67,95.73,310,95.73,304.68Z" fill="#fff"/><path d="M112.74,308c0-3.68,3.11-5.11,8.32-5.11h1.49v-.36c0-1.5-.36-2.48-2.06-2.48a1.92,1.92,0,0,0-2.13,1.85h-5c.24-3.77,3.2-5.62,7.48-5.62s7.06,1.76,7.06,5.92v10.14h-5.21v-1.83a5.13,5.13,0,0,1-4.63,2.19C115.22,312.67,112.74,311.29,112.74,308Zm9.81-1.13v-1h-1.4c-2.16,0-3.11.42-3.11,1.7,0,.9.59,1.47,1.85,1.47C121.42,309.05,122.55,308.18,122.55,306.84Z" fill="#fff"/><path d="M130.35,306.87v-10.2h5.36V306c0,1.76.68,2.63,2.21,2.63s2.66-1,2.66-3v-9h5.35v15.64h-5.35v-2.42a5.14,5.14,0,0,1-5,2.78C132.6,312.67,130.35,310.81,130.35,306.87Z" fill="#fff"/><path d="M147.6,307.34h4.94c.18,1.14.69,1.77,2.21,1.77,1.32,0,1.92-.51,1.92-1.29s-.75-1.1-2.9-1.4c-4.19-.54-6-1.77-6-5,0-3.47,3.08-5.14,6.7-5.14,3.86,0,6.55,1.31,6.91,5.05h-4.84a1.75,1.75,0,0,0-2-1.55c-1.16,0-1.76.51-1.76,1.22s.72,1,2.63,1.29c4.34.54,6.43,1.67,6.43,5,0,3.71-2.75,5.39-7.09,5.39S147.72,310.81,147.6,307.34Z" fill="#fff"/><path d="M162.85,304.68v-.24c0-5,3.74-8.19,8.47-8.19,4.27,0,8,2.45,8,8.07v1.41h-11c.15,2.06,1.34,3.26,3.26,3.26,1.76,0,2.51-.81,2.72-1.86h5c-.48,3.53-3.2,5.54-7.92,5.54C166.44,312.67,162.85,309.8,162.85,304.68Zm11.22-2c-.09-1.89-1-2.93-2.75-2.93s-2.72,1-3,2.93Z" fill="#fff"/><path d="M185.73,304.68v-.24c0-5,3.73-8.19,8.46-8.19,4.28,0,7.95,2.45,7.95,8.07v1.41h-11c.15,2.06,1.34,3.26,3.26,3.26,1.76,0,2.51-.81,2.72-1.86h5c-.47,3.53-3.2,5.54-7.92,5.54C189.31,312.67,185.73,309.8,185.73,304.68Zm11.21-2c-.09-1.89-1-2.93-2.75-2.93s-2.72,1-3,2.93Z" fill="#fff"/><path d="M202.11,296.67h5.71l3.26,10.08,3.2-10.08h5.12l-5.72,15.64h-5.83Z" fill="#fff"/><path d="M219.06,304.68v-.24c0-5,3.74-8.19,8.47-8.19,4.27,0,7.95,2.45,7.95,8.07v1.41h-11c.15,2.06,1.34,3.26,3.26,3.26,1.76,0,2.51-.81,2.72-1.86h5c-.48,3.53-3.2,5.54-7.92,5.54C222.65,312.67,219.06,309.8,219.06,304.68Zm11.22-2c-.09-1.89-1-2.93-2.75-2.93s-2.72,1-3,2.93Z" fill="#fff"/><path d="M237.33,296.67h5.36v3.11a4.91,4.91,0,0,1,5.05-3.32v5c-3.26-.09-5.05.93-5.05,3.44v7.42h-5.36Z" fill="#fff"/><path d="M254.83,310.72l-6.26-14.05h5.81l3.23,8.34,3-8.34h5.11l-8.37,20.87h-5.12Z" fill="#fff"/><path d="M24.81,352.88v-.24c0-5.32,2.93-8.16,6.64-8.16a5.06,5.06,0,0,1,4.81,2.63V338h5.36v22.52H36.26V358a5.28,5.28,0,0,1-4.87,2.9C27.77,360.9,24.81,358.29,24.81,352.88Zm11.6-.09v-.24c0-2.63-1.11-4-3.08-4s-3.08,1.35-3.08,4.07v.24c0,2.63,1.17,4,3,4S36.41,355.45,36.41,352.79Z" fill="#fff"/><path d="M43.49,352.91v-.24c0-5,3.74-8.19,8.59-8.19s8.52,3.08,8.52,8v.24c0,5.09-3.74,8.14-8.55,8.14S43.49,358,43.49,352.91Zm11.67-.09v-.24c0-2.63-1-4.1-3.08-4.1s-3.11,1.41-3.11,4v.24c0,2.69,1,4.16,3.11,4.16S55.16,355.42,55.16,352.82Z" fill="#fff"/><path d="M62.63,338H68v22.52H62.63Z" fill="#fff"/><path d="M71,338H76.3v22.52H71Z" fill="#fff"/><path d="M78.27,356.2c0-3.68,3.11-5.11,8.31-5.11h1.5v-.36c0-1.5-.36-2.48-2.07-2.48a1.92,1.92,0,0,0-2.12,1.85h-5c.24-3.77,3.2-5.62,7.47-5.62s7.06,1.76,7.06,5.92v10.14H88.2v-1.83a5.15,5.15,0,0,1-4.64,2.19C80.75,360.9,78.27,359.52,78.27,356.2Zm9.81-1.14v-.95H86.67c-2.15,0-3.11.42-3.11,1.7,0,.9.6,1.47,1.86,1.47C86.94,357.28,88.08,356.41,88.08,355.06Z" fill="#fff"/><path d="M96,344.9h5.35V348a4.92,4.92,0,0,1,5.06-3.32v5c-3.26-.09-5.06.93-5.06,3.44v7.42H96Z" fill="#fff"/><path d="M119.23,344.9h5.35v2.39a5.47,5.47,0,0,1,4.91-2.81,4.26,4.26,0,0,1,4.25,2.6,6.17,6.17,0,0,1,5.17-2.6c3,0,5.11,1.91,5.11,5.83v10.23h-5.35v-9.33c0-1.59-.78-2.37-2-2.37a2.33,2.33,0,0,0-2.4,2.64v9.06H129v-9.33c0-1.59-.78-2.37-2-2.37a2.33,2.33,0,0,0-2.4,2.64v9.06h-5.35Z" fill="#fff"/><path d="M145.72,356.2c0-3.68,3.11-5.11,8.32-5.11h1.49v-.36c0-1.5-.36-2.48-2.06-2.48a1.92,1.92,0,0,0-2.13,1.85h-5c.24-3.77,3.2-5.62,7.48-5.62s7,1.76,7,5.92v10.14h-5.2v-1.83A5.13,5.13,0,0,1,151,360.9C148.2,360.9,145.72,359.52,145.72,356.2Zm9.81-1.14v-.95h-1.4c-2.16,0-3.11.42-3.11,1.7,0,.9.59,1.47,1.85,1.47C154.39,357.28,155.53,356.41,155.53,355.06Z" fill="#fff"/><path d="M164.08,355.51v-7H162.2V344.9h1.88v-3.26h5.35v3.26h3.08v3.64h-3.08V355a1.43,1.43,0,0,0,1.59,1.65,4,4,0,0,0,1.52-.27v4.07a11.11,11.11,0,0,1-3,.45C166.05,360.9,164.08,359.19,164.08,355.51Z" fill="#fff"/><path d="M175.26,355.51v-7h-1.88V344.9h1.88v-3.26h5.36v3.26h3.08v3.64h-3.08V355c0,1.14.56,1.65,1.58,1.65a4.09,4.09,0,0,0,1.53-.27v4.07a11.25,11.25,0,0,1-3,.45C177.24,360.9,175.26,359.19,175.26,355.51Z" fill="#fff"/><path d="M184.89,352.91v-.24c0-5,3.74-8.19,8.46-8.19,4.28,0,8,2.45,8,8.07V354h-11c.15,2.06,1.35,3.26,3.26,3.26s2.52-.81,2.73-1.86h5c-.48,3.53-3.2,5.54-7.93,5.54C188.48,360.9,184.89,358,184.89,352.91Zm11.22-2c-.09-1.89-1-2.93-2.76-2.93s-2.72,1-3,2.93Z" fill="#fff"/><path d="M203.16,344.9h5.35V348a4.92,4.92,0,0,1,5.06-3.32v5c-3.26-.09-5.06.93-5.06,3.44v7.42h-5.35Z" fill="#fff"/><path d="M214.52,355.57h4.94c.17,1.14.68,1.77,2.21,1.77,1.31,0,1.91-.51,1.91-1.29s-.75-1.11-2.9-1.4c-4.19-.54-6-1.77-6-5,0-3.47,3.08-5.14,6.7-5.14,3.86,0,6.55,1.31,6.91,5h-4.85a1.74,1.74,0,0,0-2-1.55c-1.17,0-1.77.5-1.77,1.22s.72,1.05,2.64,1.29c4.33.54,6.43,1.67,6.43,5,0,3.71-2.75,5.39-7.09,5.39S214.64,359,214.52,355.57Z" fill="#fff"/><path d="M230.31,357.85a3,3,0,0,1,3.05-3,3,3,0,1,1,0,6A3,3,0,0,1,230.31,357.85Z" fill="#fff"/></g></g></svg>