<?xml version="1.0" encoding="utf-8"?>
<!-- Generator: Adobe Illustrator 23.1.1, SVG Export Plug-In . SVG Version: 6.00 Build 0)  -->
<svg version="1.1" id="Layer_1" xmlns="http://www.w3.org/2000/svg" xmlns:xlink="http://www.w3.org/1999/xlink" x="0px" y="0px"
	 viewBox="0 0 600 1200" style="enable-background:new 0 0 600 1200;" xml:space="preserve">
<style type="text/css">
	.st0{fill:#FFFFFF;}
	.st1{fill:none;}
</style>
<title>300x600</title>
<g>
	<g id="Optional_loan_from_Axos_Bank_could_be_within_minutes_of_filing">
		<path class="st0" d="M41,930v-0.2c-0.2-3.5,2.5-6.5,6-6.7s6.5,2.5,6.7,6c0,0.2,0,0.5,0,0.7v0.1c0.2,3.5-2.5,6.5-6,6.7
			s-6.5-2.5-6.7-6C41,930.5,41,930.2,41,930L41,930z M52,930v-0.1c0.3-2.6-1.6-4.9-4.2-5.2c-0.1,0-0.3,0-0.4,0c-2.6,0-4.7,2-4.7,4.6
			c0,0.2,0,0.4,0,0.6v0.2c-0.2,2.7,1.8,5,4.4,5.2c0.1,0,0.2,0,0.3,0c2.6,0,4.7-2.1,4.7-4.7c0-0.2,0-0.5-0.1-0.7V930z"/>
		<path class="st0" d="M55.8,926.8h1.5v1.6c0.7-1.1,1.9-1.7,3.2-1.8c2.4,0,4.3,1.9,4.3,4.3c0,0.2,0,0.3,0,0.5v0.1
			c0.3,2.4-1.4,4.5-3.8,4.8c-0.2,0-0.3,0-0.5,0c-1.3,0.1-2.5-0.6-3.2-1.7v4.8h-1.5L55.8,926.8z M63.3,931.6v-0.1
			c0-2.4-1.3-3.6-2.9-3.6s-3.1,1.1-3.1,3.6v0.1c0,2.4,1.3,3.5,3.1,3.5S63.3,934,63.3,931.6L63.3,931.6z"/>
		<path class="st0" d="M67.2,933.9V928h-1.3v-1.2h1.3v-2.2h1.5v2.2h2.2v1.2h-2.2v5.7c0,0.9,0.4,1.4,1.2,1.4c0.4,0,0.8-0.1,1.2-0.2
			v1.3c-0.4,0.1-0.8,0.2-1.3,0.2c-1.3,0.1-2.4-0.8-2.5-2C67.2,934.1,67.2,934,67.2,933.9z"/>
		<path class="st0" d="M72.7,923.9c0-0.5,0.5-1,1-1c0.5,0,1,0.5,1,1c0,0.5-0.4,1-1,1C73.2,924.9,72.8,924.4,72.7,923.9z M73,926.8
			h1.5v9.4H73V926.8z"/>
		<path class="st0" d="M76.6,931.6v-0.1c0-2.6,2.1-4.6,4.6-4.6c2.6,0,4.6,2.1,4.6,4.6c0,0,0,0,0,0v0.1c0,2.6-2.1,4.6-4.6,4.6
			C78.7,936.2,76.6,934.2,76.6,931.6C76.6,931.6,76.6,931.6,76.6,931.6z M84.3,931.6v-0.1c0-2.2-1.2-3.6-3.1-3.6
			c-1.7,0-3.1,1.4-3.1,3.1c0,0.1,0,0.3,0,0.4v0.1c-0.2,1.7,1,3.2,2.7,3.4c1.7,0.2,3.2-1,3.4-2.7C84.3,932.1,84.3,931.9,84.3,931.6z"
			/>
		<path class="st0" d="M88,926.8h1.5v1.5c0.6-1.1,1.8-1.7,3-1.7c2,0,3.3,1.1,3.3,3.8v5.8h-1.5v-5.9c0-1.7-0.7-2.4-2.2-2.4
			c-1.4-0.1-2.5,1-2.6,2.3c0,0.1,0,0.2,0,0.2v5.7H88V926.8z"/>
		<path class="st0" d="M97.6,933.6c0-2.2,2.3-2.9,4.7-2.9h1.3V930c0-1.5-0.6-2.1-2-2.1s-2,0.5-2.2,1.7H98c0.2-1.8,1.8-3.1,3.6-3
			c0,0,0.1,0,0.1,0c1.7-0.2,3.2,0.9,3.5,2.6c0,0.3,0,0.5,0,0.8v6.2h-1.5V935c-0.7,0.9-1.8,1.4-2.9,1.3
			C99,936.4,97.6,935.6,97.6,933.6z M103.6,933v-1.2h-1.3c-1.9,0-3.3,0.5-3.3,1.9c0,1,0.5,1.6,1.8,1.6S103.7,934.4,103.6,933
			L103.6,933z"/>
		<path class="st0" d="M107.9,922.3h1.5v14h-1.5V922.3z"/>
		<path class="st0" d="M116.7,922.3h1.5v14h-1.5V922.3z"/>
		<path class="st0" d="M120.3,931.6v-0.1c-0.2-2.6,1.8-4.8,4.3-4.9c2.6-0.2,4.8,1.8,4.9,4.3c0,0.2,0,0.4,0,0.6v0.1
			c0.2,2.6-1.8,4.8-4.3,4.9c-2.6,0.2-4.8-1.8-4.9-4.3C120.3,932,120.3,931.8,120.3,931.6z M128,931.6v-0.1c0-2.2-1.2-3.6-3.1-3.6
			c-1.7,0-3.1,1.4-3.1,3.1c0,0.1,0,0.3,0,0.4v0.1c-0.2,1.7,1,3.2,2.7,3.4c1.7,0.2,3.2-1,3.4-2.7C128,932.1,128,931.9,128,931.6z"/>
		<path class="st0" d="M130.8,933.6c0-2.2,2.3-2.9,4.7-2.9h1.4V930c0-1.5-0.6-2.1-2-2.1s-2,0.5-2.2,1.7h-1.5c0.2-1.8,1.8-3.1,3.6-3
			c0,0,0.1,0,0.1,0c1.7-0.2,3.2,0.9,3.4,2.6c0,0.3,0,0.5,0,0.8v6.2h-1.5V935c-0.7,0.9-1.8,1.4-2.9,1.3
			C132.2,936.4,130.8,935.6,130.8,933.6z M136.8,933v-1.2h-1.3c-2,0-3.3,0.5-3.3,1.9c0,1,0.5,1.6,1.8,1.6S136.9,934.4,136.8,933
			L136.8,933z"/>
		<path class="st0" d="M141.1,926.8h1.5v1.5c0.6-1.1,1.8-1.7,3-1.7c2,0,3.3,1.1,3.3,3.8v5.8h-1.5v-5.9c0-1.7-0.7-2.4-2.2-2.4
			c-1.4-0.1-2.5,0.9-2.6,2.3c0,0.1,0,0.2,0,0.3v5.7h-1.5V926.8z"/>
		<path class="st0" d="M156.4,928H155v-1.2h1.3v-1.5c0-1.9,0.9-3,2.8-3c0.4,0,0.8,0,1.1,0.2v1.3c-0.3-0.1-0.7-0.2-1.1-0.2
			c-1,0-1.4,0.7-1.4,1.6v1.7h2.3v1.2h-2.3v8.2h-1.5V928z"/>
		<path class="st0" d="M162,926.8h1.5v1.7c0.6-1.2,1.8-1.9,3.1-1.9v1.3c-2,0-3.1,0.7-3.1,3v5.2H162V926.8z"/>
		<path class="st0" d="M167.5,931.6v-0.1c-0.2-2.6,1.8-4.8,4.3-4.9c2.6-0.2,4.8,1.8,4.9,4.3c0,0.2,0,0.4,0,0.6v0.1
			c0.2,2.6-1.8,4.8-4.3,4.9c-2.6,0.2-4.8-1.8-4.9-4.3C167.5,932,167.5,931.8,167.5,931.6z M175.3,931.6v-0.1c0-2.2-1.2-3.6-3.1-3.6
			s-3.1,1.4-3.1,3.6v0.1c0,2.1,1.2,3.5,3.1,3.5c1.7,0,3.1-1.4,3.1-3.2C175.3,931.9,175.3,931.7,175.3,931.6z"/>
		<path class="st0" d="M178.9,926.8h1.5v1.4c0.6-1,1.7-1.6,2.8-1.6c1.2-0.1,2.3,0.6,2.7,1.8c0.7-1.1,1.9-1.8,3.2-1.8
			c1.7,0,3.2,1,3.2,3.8v5.8h-1.5v-6c0-1.7-0.7-2.3-2-2.3c-1.3,0-2.4,1-2.5,2.4c0,0.1,0,0.1,0,0.2v5.8h-1.5v-6c0-1.7-0.7-2.3-2-2.3
			c-1.3,0-2.5,1-2.5,2.3c0,0.1,0,0.1,0,0.2v5.8h-1.5L178.9,926.8z"/>
		<path class="st0" d="M203,923.4h2l4.4,12.9h-1.6l-1.3-3.7h-5.3l-1.2,3.7h-1.4L203,923.4z M201.7,931.4h4.5l-2.2-6.7L201.7,931.4z"
			/>
		<path class="st0" d="M213.7,931.4l-3.1-4.6h1.7l2.3,3.4l2.3-3.4h1.6l-3.1,4.5l3.4,4.9H217l-2.5-3.8l-2.6,3.8h-1.6L213.7,931.4z"/>
		<path class="st0" d="M219.4,931.6v-0.1c-0.2-2.6,1.8-4.8,4.3-4.9c2.6-0.2,4.8,1.8,4.9,4.3c0,0.2,0,0.4,0,0.6v0.1
			c0.2,2.6-1.8,4.8-4.3,4.9c-2.6,0.2-4.8-1.8-4.9-4.3C219.4,932,219.4,931.8,219.4,931.6z M227.1,931.6v-0.1c0-2.2-1.2-3.6-3.1-3.6
			s-3.1,1.4-3.1,3.6v0.1c0,2.1,1.2,3.5,3.1,3.5c1.7,0,3.1-1.4,3.1-3.2C227.1,931.9,227.1,931.7,227.1,931.6z"/>
		<path class="st0" d="M230,933.3h1.5c0,1.1,0.7,1.8,2.2,1.8s2-0.5,2-1.5s-0.7-1.3-2.2-1.6c-2.4-0.4-3.3-1.1-3.3-2.8
			c0.1-1.6,1.6-2.8,3.2-2.7c0,0,0,0,0,0c1.7-0.2,3.2,0.9,3.4,2.6c0,0,0,0.1,0,0.1h-1.4c-0.2-1-0.8-1.5-2-1.5s-1.8,0.5-1.8,1.3
			s0.5,1.2,2.2,1.5s3.3,0.8,3.3,2.8s-1.2,2.9-3.5,2.9S230,935.3,230,933.3z"/>
		<path class="st0" d="M243.7,923.4h3.9c2.4,0,4.1,0.8,4.1,3.3l0,0c0.1,1.3-0.8,2.4-2,2.7c1.6,0.1,2.7,1.5,2.6,3.1c0,0,0,0,0,0l0,0
			c0,2.4-1.6,3.6-4.2,3.6h-4.4L243.7,923.4z M247.6,929c1.9,0,2.6-0.7,2.6-2.3l0,0c0-1.4-0.8-2-2.6-2h-2.3v4.4L247.6,929z
			 M248.1,935c1.9,0,2.7-0.8,2.7-2.4l0,0c0-1.6-0.9-2.3-3-2.3h-2.6v4.8L248.1,935z"/>
		<path class="st0" d="M253.7,933.6c0-2.2,2.3-2.9,4.7-2.9h1.4V930c0-1.5-0.6-2.1-2-2.1s-2,0.5-2.2,1.7h-1.5c0.2-1.8,1.8-3.1,3.7-3
			c0,0,0.1,0,0.1,0c1.7-0.2,3.2,0.9,3.4,2.6c0,0.3,0,0.5,0,0.8v6.2h-1.5V935c-0.7,0.9-1.8,1.4-2.9,1.3
			C255.1,936.4,253.7,935.6,253.7,933.6z M259.7,933v-1.2h-1.3c-1.9,0-3.3,0.5-3.3,1.9c0,1,0.5,1.6,1.8,1.6
			C258.6,935.2,259.8,934.4,259.7,933L259.7,933z"/>
		<path class="st0" d="M264,926.8h1.5v1.5c0.6-1.1,1.8-1.7,3-1.7c2,0,3.3,1.1,3.3,3.8v5.8h-1.5v-5.9c0-1.7-0.7-2.4-2.2-2.4
			c-1.4-0.1-2.5,0.9-2.6,2.3c0,0.1,0,0.2,0,0.3v5.7H264V926.8z"/>
		<path class="st0" d="M274.4,922.3h1.6v8.8l3.9-4.3h1.8l-4,4.4l4.4,5h-1.8l-4.2-4.9v4.9h-1.5L274.4,922.3z"/>
		<path class="st0" d="M282.3,925c0-1.3,1-2.3,2.3-2.3c0,0,0,0,0,0c1.3,0,2.3,1.1,2.3,2.3s-1.1,2.3-2.3,2.3
			C283.3,927.3,282.3,926.3,282.3,925z M286.6,925c0-1.1-0.9-2-2-2c-1.1,0-2,0.9-2,2s0.9,2,2,2c0,0,0.1,0,0.1,0c1,0,1.9-0.8,1.9-1.8
			C286.6,925.1,286.6,925,286.6,925z M283.9,923.8h0.8c0.5,0,0.9,0.2,0.9,0.7l0,0c0,0.3-0.2,0.5-0.5,0.6l0.6,1h-0.5l-0.6-0.9h-0.2
			v0.9h-0.5L283.9,923.8z M284.7,924.9c0.3,0,0.4-0.1,0.4-0.3l0,0c0-0.2-0.1-0.3-0.4-0.3h-0.3v0.7L284.7,924.9z"/>
		<path class="st0" d="M292.5,931.6v-0.1c-0.1-2.5,1.8-4.7,4.4-4.8c0.1,0,0.2,0,0.2,0c2-0.2,3.8,1.3,4,3.3h-1.5
			c-0.2-1.3-1.3-2.2-2.6-2c-1.8,0.1-3.1,1.5-3.1,3.3c0,0.1,0,0.2,0,0.3v0.1c0,2.3,1.3,3.5,3.1,3.5c1.4,0.1,2.6-0.9,2.7-2.3h1.4
			c-0.2,2.1-2,3.6-4.1,3.5c-2.5,0-4.5-1.9-4.5-4.4C292.5,931.9,292.5,931.8,292.5,931.6z"/>
		<path class="st0" d="M302.5,931.6v-0.1c0-2.6,2.1-4.6,4.6-4.6c2.6,0,4.6,2.1,4.6,4.6c0,0,0,0,0,0v0.1c0,2.6-2.1,4.6-4.6,4.6
			C304.6,936.3,302.5,934.2,302.5,931.6C302.5,931.6,302.5,931.6,302.5,931.6z M310.2,931.6v-0.1c0-2.2-1.2-3.6-3.1-3.6
			s-3.1,1.4-3.1,3.6v0.1c0,2.1,1.2,3.5,3.1,3.5c1.7,0,3.1-1.4,3.1-3.2C310.2,931.9,310.2,931.7,310.2,931.6z"/>
		<path class="st0" d="M313.7,932.8v-6h1.5v5.9c0,1.7,0.7,2.4,2.2,2.4c1.4,0.1,2.5-1,2.6-2.4c0-0.1,0-0.1,0-0.2v-5.7h1.5v9.4H320
			v-1.5c-0.6,1.1-1.8,1.7-3,1.6C315.1,936.4,313.7,935.4,313.7,932.8z"/>
		<path class="st0" d="M324.3,922.3h1.5v14h-1.5V922.3z"/>
		<path class="st0" d="M327.9,931.7v-0.1c-0.2-2.5,1.6-4.7,4-4.9c0.1,0,0.2,0,0.4,0c1.3-0.1,2.5,0.6,3.1,1.7v-6h1.5v14h-1.5v-1.6
			c-0.7,1.1-1.9,1.7-3.2,1.8c-2.3,0-4.2-1.8-4.3-4.1C327.8,932.2,327.8,931.9,327.9,931.7z M335.4,931.6v-0.1c0-2.4-1.2-3.5-3-3.5
			s-3,1.3-3,3.6v0.2c0,2.4,1.3,3.5,2.9,3.5S335.4,934,335.4,931.6L335.4,931.6z"/>
		<path class="st0" d="M345.6,934.7v1.5H344v-14h1.5v6c0.7-1.1,1.9-1.7,3.2-1.8c2.4,0,4.3,1.9,4.3,4.3c0,0.2,0,0.3,0,0.5v0.1
			c0.3,2.4-1.4,4.6-3.8,4.8c-0.1,0-0.3,0-0.4,0C347.5,936.3,346.3,935.7,345.6,934.7z M351.6,931.6v-0.1c0-2.4-1.3-3.6-2.9-3.6
			s-3.1,1.1-3.1,3.6v0.1c0,2.4,1.3,3.5,3.1,3.5S351.5,934,351.6,931.6L351.6,931.6z"/>
		<path class="st0" d="M354.4,931.6v-0.1c-0.2-2.4,1.6-4.6,4-4.8c0.1,0,0.3,0,0.4,0c2.3-0.1,4.2,1.7,4.3,4c0,0.2,0,0.5,0,0.7v0.5h-7
			c0,2.1,1.1,3.3,3,3.3c1.5,0,2.3-0.5,2.5-1.6h1.5c-0.4,1.9-2.1,3.1-4,2.9c-2.4,0.1-4.5-1.7-4.6-4.2
			C354.4,932,354.4,931.8,354.4,931.6z M361.5,930.6c-0.1-2-1.2-2.7-2.7-2.7c-1.5,0-2.8,1.2-2.8,2.7H361.5z"/>
		<path class="st0" d="M368.5,926.8h1.6l2.2,7.6l2.3-7.6h1.4l2.1,7.6l2.2-7.6h1.5l-2.9,9.4h-1.7l-2-7.1l-2.2,7.1h-1.6L368.5,926.8z"
			/>
		<path class="st0" d="M383.3,923.9c0-0.5,0.5-1,1-1c0.5,0,1,0.5,1,1c0,0.5-0.4,1-1,1C383.8,924.9,383.3,924.4,383.3,923.9z
			 M383.6,926.8h1.5v9.4h-1.5V926.8z"/>
		<path class="st0" d="M388.2,933.9V928h-1.3v-1.2h1.3v-2.2h1.5v2.2h2.3v1.2h-2.2v5.7c0,0.9,0.4,1.4,1.2,1.4c0.4,0,0.8-0.1,1.2-0.2
			v1.3c-0.4,0.1-0.8,0.2-1.3,0.2c-1.3,0.2-2.4-0.7-2.6-1.9C388.2,934.2,388.2,934,388.2,933.9z"/>
		<path class="st0" d="M394,922.3h1.5v6c0.6-1.1,1.8-1.7,3-1.7c2,0,3.3,1.1,3.3,3.8v5.8h-1.5v-5.9c0-1.7-0.7-2.4-2.2-2.4
			c-1.4-0.1-2.5,1-2.6,2.3c0,0.1,0,0.2,0,0.2v5.7H394V922.3z"/>
		<path class="st0" d="M404.3,923.9c0-0.6,0.4-1,1-1s1,0.4,1,1s-0.4,1-1,1S404.3,924.4,404.3,923.9z M404.5,926.8h1.5v9.4h-1.5
			L404.5,926.8z"/>
		<path class="st0" d="M408.8,926.8h1.5v1.5c0.6-1.1,1.8-1.7,3-1.7c2,0,3.3,1.1,3.3,3.8v5.8h-1.5v-5.9c0-1.7-0.7-2.4-2.2-2.4
			c-1.4-0.1-2.5,0.9-2.6,2.3c0,0.1,0,0.2,0,0.3v5.7h-1.5L408.8,926.8z"/>
		<path class="st0" d="M423.8,926.8h1.5v1.4c0.6-1,1.7-1.6,2.8-1.6c1.2-0.1,2.3,0.6,2.7,1.8c0.7-1.1,1.9-1.8,3.2-1.8
			c1.7,0,3.2,1,3.2,3.8v5.8h-1.5v-6c0-1.7-0.7-2.3-2-2.3c-1.3,0-2.4,1-2.5,2.4c0,0.1,0,0.1,0,0.2v5.8h-1.5v-6c0-1.7-0.7-2.3-2-2.3
			c-1.3,0-2.4,1-2.5,2.4c0,0.1,0,0.1,0,0.2v5.8h-1.5L423.8,926.8z"/>
		<path class="st0" d="M439.7,923.9c0-0.5,0.5-1,1-1c0.5,0,1,0.5,1,1c0,0.5-0.4,1-1,1C440.1,924.9,439.7,924.4,439.7,923.9z
			 M440,926.8h1.5v9.4H440L440,926.8z"/>
		<path class="st0" d="M444.2,926.8h1.5v1.5c0.6-1.1,1.8-1.7,3-1.7c2,0,3.3,1.1,3.3,3.8v5.8h-1.5v-5.9c0-1.7-0.7-2.4-2.2-2.4
			c-1.4-0.1-2.5,1-2.6,2.3c0,0.1,0,0.2,0,0.2v5.7h-1.5V926.8z"/>
		<path class="st0" d="M454.6,932.8v-6h1.5v5.9c0,1.7,0.7,2.4,2.2,2.4c1.4,0.1,2.5-1,2.6-2.4c0-0.1,0-0.1,0-0.2v-5.7h1.5v9.4h-1.5
			v-1.5c-0.6,1.1-1.8,1.7-3,1.6C456,936.4,454.6,935.4,454.6,932.8z"/>
		<path class="st0" d="M465.5,933.9V928h-1.4v-1.2h1.4v-2.2h1.5v2.2h2.2v1.2H467v5.7c0,0.9,0.4,1.4,1.2,1.4c0.4,0,0.8-0.1,1.2-0.2
			v1.3c-0.4,0.1-0.8,0.2-1.3,0.2c-1.3,0.1-2.4-0.8-2.5-2C465.5,934.1,465.5,934,465.5,933.9z"/>
		<path class="st0" d="M470.6,931.6v-0.1c-0.2-2.4,1.6-4.6,4-4.8c0.1,0,0.3,0,0.4,0c2.3-0.1,4.2,1.7,4.3,4c0,0.2,0,0.5,0,0.7v0.5
			h-7.1c0,2.1,1.1,3.3,3,3.3c1.5,0,2.3-0.5,2.5-1.6h1.5c-0.4,1.9-2.1,3.1-4,2.9c-2.4,0.1-4.5-1.8-4.6-4.2
			C470.6,932,470.6,931.8,470.6,931.6z M477.7,930.6c-0.1-2-1.1-2.7-2.7-2.7c-1.5,0-2.7,1.2-2.8,2.7H477.7z"/>
		<path class="st0" d="M480.5,933.3h1.5c0.1,1.1,0.7,1.8,2.2,1.8s2-0.5,2-1.5s-0.7-1.3-2.2-1.6c-2.5-0.4-3.3-1.1-3.3-2.8
			c0.1-1.6,1.6-2.8,3.2-2.7c0,0,0,0,0,0c1.6-0.2,3.2,0.9,3.4,2.6c0,0.1,0,0.1,0,0.2H486c-0.2-1-0.8-1.5-2-1.5s-1.8,0.5-1.8,1.3
			s0.5,1.2,2.2,1.5s3.3,0.8,3.3,2.8s-1.2,2.9-3.5,2.9S480.6,935.3,480.5,933.3z"/>
		<path class="st0" d="M493.5,931.6v-0.1c-0.2-2.6,1.8-4.8,4.3-4.9c2.6-0.2,4.8,1.8,4.9,4.3c0,0.2,0,0.4,0,0.6v0.1
			c0.2,2.6-1.8,4.8-4.3,4.9c-2.6,0.2-4.8-1.8-4.9-4.3C493.5,932,493.5,931.8,493.5,931.6z M501.2,931.6v-0.1c0-2.2-1.2-3.6-3.1-3.6
			s-3.1,1.4-3.1,3.6v0.1c0,2.1,1.2,3.5,3.1,3.5c1.7,0,3.1-1.4,3.1-3.2C501.2,931.9,501.2,931.7,501.2,931.6z"/>
		<path class="st0" d="M505.1,928h-1.4v-1.2h1.4v-1.5c0-1.9,0.9-3,2.8-3c0.4,0,0.8,0,1.1,0.2v1.3c-0.3-0.1-0.7-0.2-1.1-0.2
			c-1,0-1.4,0.7-1.4,1.6v1.7h2.3v1.2h-2.3v8.2h-1.5V928z"/>
		<path class="st0" d="M515.6,928h-1.4v-1.2h1.4v-1.5c0-1.9,0.9-3,2.8-3c0.4,0,0.8,0,1.1,0.2v1.3c-0.3-0.1-0.7-0.2-1.1-0.2
			c-1,0-1.4,0.7-1.4,1.6v1.7h2.3v1.2h-2.3v8.2h-1.5V928z"/>
		<path class="st0" d="M521,923.9c0-0.5,0.4-1,1-1c0.5,0,1,0.5,1,1c0,0.5-0.5,1-1,1C521.4,924.9,521,924.4,521,923.9z M521.2,926.8
			h1.5v9.4h-1.5V926.8z"/>
		<path class="st0" d="M525.6,922.3h1.5v14h-1.5V922.3z"/>
		<path class="st0" d="M529.6,923.9c0-0.5,0.5-1,1-1c0.5,0,1,0.5,1,1c0,0.5-0.4,1-1,1C530.1,924.9,529.6,924.4,529.6,923.9z
			 M529.9,926.8h1.5v9.4H530L529.9,926.8z"/>
		<path class="st0" d="M534.2,926.8h1.5v1.5c0.6-1.1,1.8-1.7,3-1.7c2,0,3.3,1.1,3.3,3.8v5.8h-1.5v-5.9c0-1.7-0.7-2.4-2.2-2.4
			c-1.4-0.1-2.5,1-2.6,2.3c0,0.1,0,0.2,0,0.2v5.7h-1.5L534.2,926.8z"/>
		<path class="st0" d="M544.2,936.8h1.5c0.2,1.1,1.1,1.6,2.7,1.6c1.4,0.2,2.8-0.8,3-2.2c0-0.2,0-0.5,0-0.7v-1.4
			c-0.7,1.1-1.9,1.7-3.2,1.8c-2.3,0-4.3-1.9-4.3-4.2c0-0.1,0-0.2,0-0.3v-0.1c-0.1-2.5,1.8-4.6,4.2-4.7c0,0,0.1,0,0.1,0
			c1.3-0.1,2.5,0.6,3.1,1.7v-1.5h1.5v8.8c0,2.2-1.8,4-4,4c-0.2,0-0.4,0-0.5,0C545.6,939.7,544.4,938.4,544.2,936.8z M551.5,931.4
			v-0.1c0.2-1.6-0.9-3.1-2.5-3.3c-0.2,0-0.3,0-0.5,0c-1.7,0-3,1.3-3,3c0,0.1,0,0.3,0,0.4v0.1c-0.2,1.6,1,3.1,2.7,3.3
			c0.1,0,0.2,0,0.2,0c1.7,0,3.1-1.3,3.1-3C551.5,931.6,551.5,931.5,551.5,931.4L551.5,931.4z"/>
		<path class="st0" d="M555.6,935.2c0-0.6,0.5-1.1,1.1-1.1c0,0,0,0,0,0c0.6,0,1.2,0.5,1.2,1.2c0,0.6-0.5,1.2-1.2,1.2
			C556.1,936.4,555.6,935.8,555.6,935.2C555.6,935.2,555.6,935.2,555.6,935.2z"/>
		<path class="st0" d="M41.6,941.4h2L50,952v-10.6h1.5v12.9h-1.8l-6.5-11v11h-1.5L41.6,941.4z"/>
		<path class="st0" d="M53.6,949.6v-0.1c0-2.6,2.1-4.6,4.6-4.6c2.6,0,4.6,2.1,4.6,4.6c0,0,0,0,0,0v0.1c0,2.6-2.1,4.6-4.6,4.6
			C55.7,954.2,53.6,952.2,53.6,949.6C53.6,949.6,53.6,949.6,53.6,949.6z M61.3,949.6v-0.1c0-2.2-1.2-3.6-3.1-3.6s-3.1,1.4-3.1,3.6
			v0.1c-0.2,1.7,1,3.2,2.7,3.4s3.2-1,3.4-2.7C61.3,950.1,61.3,949.9,61.3,949.6z"/>
		<path class="st0" d="M65.2,951.9V946h-1.4v-1.2h1.4v-2.2h1.5v2.2h2.2v1.2h-2.2v5.7c0,0.9,0.4,1.4,1.2,1.4c0.4,0,0.8-0.1,1.2-0.2
			v1.3c-0.4,0.1-0.8,0.2-1.3,0.2c-1.3,0.1-2.4-0.8-2.5-2C65.2,952.1,65.2,952,65.2,951.9z"/>
		<path class="st0" d="M78.1,953.3l-3.7-8.4H76l2.9,6.7l2.6-6.7H83l-5.2,12.7h-1.5L78.1,953.3z"/>
		<path class="st0" d="M83.8,949.6v-0.1c-0.2-2.6,1.8-4.8,4.3-4.9c2.6-0.2,4.8,1.8,4.9,4.3c0,0.2,0,0.4,0,0.6v0.1
			c0.2,2.6-1.8,4.8-4.3,4.9c-2.6,0.2-4.8-1.8-4.9-4.3C83.8,950,83.8,949.8,83.8,949.6z M91.5,949.6v-0.1c0-2.2-1.2-3.6-3.1-3.6
			c-1.7,0-3.1,1.4-3.1,3.1c0,0.1,0,0.3,0,0.4v0.1c-0.2,1.7,1,3.2,2.7,3.4c1.7,0.2,3.2-1,3.4-2.7C91.5,950.1,91.5,949.9,91.5,949.6z"
			/>
		<path class="st0" d="M95,950.8v-6h1.5v5.9c0,1.7,0.7,2.4,2.2,2.4c1.4,0.1,2.5-1,2.6-2.4c0-0.1,0-0.1,0-0.2v-5.7h1.5v9.4h-1.5v-1.5
			c-0.6,1.1-1.8,1.7-3,1.6C96.4,954.4,95,953.4,95,950.8z"/>
		<path class="st0" d="M105.5,944.8h1.5v1.7c0.6-1.2,1.8-1.9,3.1-1.9v1.3c-1.9,0-3.1,0.7-3.1,3v5.2h-1.5V944.8z"/>
		<path class="st0" d="M116.8,951.9V946h-1.3v-1.2h1.3v-2.2h1.5v2.2h2.2v1.2h-2.2v5.7c0,0.9,0.4,1.4,1.2,1.4c0.4,0,0.8-0.1,1.2-0.2
			v1.3c-0.4,0.1-0.8,0.2-1.3,0.2c-1.3,0.1-2.4-0.8-2.5-2C116.8,952.1,116.8,952,116.8,951.9z"/>
		<path class="st0" d="M122,951.6c0-2.2,2.3-2.9,4.7-2.9h1.3V948c0-1.5-0.6-2.1-2-2.1s-2,0.5-2.2,1.7h-1.5c0.2-1.8,1.8-3.1,3.6-2.9
			c0,0,0,0,0,0c1.7-0.3,3.2,0.9,3.5,2.5c0,0.3,0,0.5,0,0.8v6.2H128V953c-0.7,0.9-1.8,1.4-2.9,1.3C123.3,954.4,122,953.6,122,951.6z
			 M128,951v-1.2h-1.3c-1.9,0-3.3,0.5-3.3,1.9c0,1,0.5,1.6,1.8,1.6S128,952.4,128,951z"/>
		<path class="st0" d="M134.5,949.4l-3.2-4.6h1.8l2.3,3.4l2.3-3.4h1.6l-3.1,4.5l3.4,4.9h-1.8l-2.5-3.8l-2.6,3.8h-1.6L134.5,949.4z"
			/>
		<path class="st0" d="M146,944.8h1.5v1.7c0.6-1.2,1.8-1.9,3.1-1.9v1.3c-1.9,0-3.1,0.7-3.1,3v5.2H146V944.8z"/>
		<path class="st0" d="M151.4,949.6v-0.1c-0.2-2.4,1.6-4.6,4-4.8c0.1,0,0.3,0,0.4,0c2.3,0,4.2,1.8,4.2,4c0,0.2,0,0.4,0,0.6v0.5h-7
			c0,2.1,1.1,3.3,3,3.3c1.5,0,2.3-0.5,2.5-1.6h1.5c-0.4,1.9-2.1,3.1-4,2.9c-2.4,0.1-4.5-1.8-4.6-4.2
			C151.4,950,151.4,949.8,151.4,949.6z M158.5,948.6c-0.2-2-1.2-2.7-2.7-2.7c-1.5,0-2.8,1.2-2.8,2.7H158.5z"/>
		<path class="st0" d="M162.4,946H161v-1.2h1.4v-1.5c0-1.9,0.9-3,2.8-3c0.4,0,0.8,0,1.1,0.2v1.3c-0.3-0.1-0.7-0.2-1.1-0.2
			c-1,0-1.4,0.7-1.4,1.6v1.7h2.3v1.2H164v8.2h-1.6V946z"/>
		<path class="st0" d="M168,950.8v-6h1.5v5.9c0,1.7,0.7,2.4,2.2,2.4c1.4,0.1,2.5-1,2.6-2.4c0-0.1,0-0.1,0-0.2v-5.7h1.5v9.4h-1.6
			v-1.5c-0.6,1.1-1.8,1.7-3,1.6C169.3,954.4,168,953.4,168,950.8z"/>
		<path class="st0" d="M178.5,944.8h1.5v1.5c0.6-1.1,1.8-1.7,3-1.7c2,0,3.3,1.1,3.3,3.8v5.8h-1.5v-5.9c0-1.7-0.7-2.4-2.2-2.4
			c-1.4-0.1-2.5,1-2.6,2.4c0,0.1,0,0.1,0,0.2v5.7h-1.5L178.5,944.8z"/>
		<path class="st0" d="M188.2,949.7v-0.1c-0.2-2.5,1.6-4.7,4-4.9c0.1,0,0.3,0,0.4,0c1.3-0.1,2.4,0.6,3.1,1.7v-6h1.5v14h-1.5v-1.6
			c-0.7,1.1-1.9,1.7-3.2,1.8c-2.3,0.1-4.2-1.8-4.3-4.1C188.2,950.2,188.2,949.9,188.2,949.7z M195.8,949.6v-0.1c0-2.4-1.2-3.5-3-3.5
			s-3,1.3-3,3.6v0.2c0,2.4,1.3,3.5,2.9,3.5S195.8,952,195.8,949.6z"/>
		<path class="st0" d="M199.8,953.2c0-0.6,0.5-1.2,1.2-1.2s1.2,0.5,1.2,1.2c0,0.6-0.5,1.2-1.2,1.2c0,0,0,0,0,0
			C200.4,954.4,199.9,953.8,199.8,953.2C199.8,953.2,199.8,953.2,199.8,953.2z"/>
		<rect class="st1" width="600" height="1200"/>
	</g>
</g>
</svg>
