<svg xmlns="http://www.w3.org/2000/svg" viewBox="0 0 728 90"><title>h6</title><g id="Layer_2" data-name="Layer 2"><g id="rect"><rect width="728" height="90" fill="none"/></g><g id="Still_open._Still_finding_credits_and_deductions_daily." data-name="Still open. Still finding credits  and deductions daily."><path d="M116.64,34.17h5.47c.14,1.43.78,2.6,3.16,2.6,1.66,0,2.58-.81,2.58-2s-.76-1.57-3.17-1.93c-5.65-.67-7.56-2.35-7.56-6.39,0-3.61,3-6.24,7.76-6.24s7.54,2,7.9,6.24h-5.32a2.27,2.27,0,0,0-2.58-2.15c-1.54,0-2.32.7-2.32,1.71s.61,1.62,3.11,2c5.07.56,7.67,1.87,7.67,6.22,0,3.67-2.91,6.66-8.07,6.66C119.67,40.86,116.81,38.51,116.64,34.17Z" fill="#fff"/><path d="M135.86,35.82V29.29h-1.77V25.88h1.77V22.82h5v3.06h2.89v3.41h-2.89v6.05c0,1.07.53,1.54,1.49,1.54a3.8,3.8,0,0,0,1.43-.25v3.81a10.52,10.52,0,0,1-2.78.42C137.71,40.86,135.86,39.27,135.86,35.82Z" fill="#fff"/><path d="M145.55,21.9a2.61,2.61,0,0,1,2.74-2.61,2.6,2.6,0,1,1,0,5.18A2.59,2.59,0,0,1,145.55,21.9Zm.25,4h5V40.53h-5Z" fill="#fff"/><path d="M153.64,19.43h5v21.1h-5Z" fill="#fff"/><path d="M161.46,19.43h5v21.1h-5Z" fill="#fff"/><path d="M173.44,33.38v-.22c0-4.71,3.5-7.68,8-7.68s8,2.89,8,7.54v.22c0,4.77-3.51,7.62-8,7.62S173.44,38.12,173.44,33.38Zm10.93-.08v-.23c0-2.46-1-3.83-2.89-3.83s-2.91,1.31-2.91,3.78v.22c0,2.52,1,3.9,2.91,3.9S184.37,35.74,184.37,33.3Z" fill="#fff"/><path d="M191.23,25.88h5v2.18a5.17,5.17,0,0,1,4.57-2.58c3.42,0,6.19,2.58,6.19,7.59v.23c0,5-2.77,7.56-6.22,7.56a4.83,4.83,0,0,1-4.54-2.49v7.06h-5ZM201.9,33.3v-.23c0-2.57-1.12-3.81-2.89-3.81s-2.91,1.32-2.91,3.79v.22c0,2.49,1.09,3.75,2.91,3.75S201.9,35.71,201.9,33.3Z" fill="#fff"/><path d="M208,33.38v-.22c0-4.71,3.5-7.68,7.93-7.68,4,0,7.45,2.3,7.45,7.57v1.31H213.1a2.93,2.93,0,0,0,3.06,3.06c1.65,0,2.35-.76,2.54-1.74h4.71c-.45,3.31-3,5.18-7.42,5.18C211.39,40.86,208,38.17,208,33.38Zm10.51-1.85c-.09-1.76-1-2.74-2.58-2.74s-2.55,1-2.8,2.74Z" fill="#fff"/><path d="M225.14,25.88h5v2.35A5.17,5.17,0,0,1,235,25.48c2.83,0,4.79,1.77,4.79,5.52v9.53h-5V32c0-1.65-.64-2.47-2.1-2.47s-2.49.9-2.49,2.78v8.21h-5Z" fill="#fff"/><path d="M242,38a2.8,2.8,0,0,1,2.86-2.83,2.83,2.83,0,1,1,0,5.65A2.79,2.79,0,0,1,242,38Z" fill="#fff"/><path d="M254.41,34.17h5.46c.14,1.43.79,2.6,3.17,2.6,1.65,0,2.58-.81,2.58-2s-.76-1.57-3.17-1.93c-5.66-.67-7.56-2.35-7.56-6.39,0-3.61,3-6.24,7.76-6.24s7.53,2,7.9,6.24h-5.33a2.26,2.26,0,0,0-2.57-2.15c-1.54,0-2.33.7-2.33,1.71s.62,1.62,3.11,2c5.07.56,7.68,1.87,7.68,6.22,0,3.67-2.92,6.66-8.07,6.66C257.44,40.86,254.58,38.51,254.41,34.17Z" fill="#fff"/><path d="M273.62,35.82V29.29h-1.76V25.88h1.76V22.82h5v3.06h2.88v3.41h-2.88v6.05c0,1.07.53,1.54,1.48,1.54a3.8,3.8,0,0,0,1.43-.25v3.81a10.36,10.36,0,0,1-2.77.42C275.47,40.86,273.62,39.27,273.62,35.82Z" fill="#fff"/><path d="M283.31,21.9a2.77,2.77,0,1,1,2.75,2.57A2.62,2.62,0,0,1,283.31,21.9Zm.26,4h5V40.53h-5Z" fill="#fff"/><path d="M291.41,19.43h5v21.1h-5Z" fill="#fff"/><path d="M299.22,19.43h5v21.1h-5Z" fill="#fff"/><path d="M312.75,29.29H310.9V25.88h1.85V24.59c0-3.65,2.27-5.38,5.74-5.38a8.82,8.82,0,0,1,2.3.31v3.67a4.31,4.31,0,0,0-1.37-.2,1.47,1.47,0,0,0-1.68,1.6v1.29h3v3.41h-3V40.53h-5Z" fill="#fff"/><path d="M322.27,21.9A2.77,2.77,0,1,1,325,24.47,2.62,2.62,0,0,1,322.27,21.9Zm.25,4h5V40.53h-5Z" fill="#fff"/><path d="M330.23,25.88h5v2.35a5.17,5.17,0,0,1,4.82-2.75c2.83,0,4.79,1.77,4.79,5.52v9.53h-5V32c0-1.65-.64-2.47-2.1-2.47s-2.49.9-2.49,2.78v8.21h-5Z" fill="#fff"/><path d="M346.55,33.35v-.22c0-5,2.75-7.65,6.22-7.65A4.74,4.74,0,0,1,357.28,28V19.43h5v21.1h-5V38.15a4.93,4.93,0,0,1-4.56,2.71C349.33,40.86,346.55,38.43,346.55,33.35Zm10.87-.08v-.22c0-2.47-1-3.79-2.88-3.79s-2.89,1.27-2.89,3.81v.23c0,2.46,1.09,3.72,2.83,3.72S357.42,35.76,357.42,33.27Z" fill="#fff"/><path d="M364.73,21.9a2.77,2.77,0,1,1,2.75,2.57A2.62,2.62,0,0,1,364.73,21.9Zm.25,4h5V40.53h-5Z" fill="#fff"/><path d="M372.68,25.88h5v2.35a5.17,5.17,0,0,1,4.82-2.75c2.83,0,4.79,1.77,4.79,5.52v9.53h-5V32c0-1.65-.64-2.47-2.1-2.47s-2.49.9-2.49,2.78v8.21h-5Z" fill="#fff"/><path d="M388.93,40.53h5c.23,1.06.87,1.9,2.69,1.9a2.77,2.77,0,0,0,3.11-3.08V37.11a5.13,5.13,0,0,1-4.54,2.69c-3.41,0-6.21-2.52-6.21-7v-.23c0-4.31,2.77-7.06,6.21-7.06A4.76,4.76,0,0,1,399.71,28V25.88h5V39.29c0,4.37-2.89,6.67-8.13,6.67C391.62,46,389.32,43.86,388.93,40.53Zm10.92-7.79v-.2c0-2-1-3.3-2.88-3.3s-2.89,1.31-2.89,3.33v.22c0,2,1.07,3.31,2.86,3.31S399.85,34.81,399.85,32.74Z" fill="#fff"/><path d="M411.59,33.38v-.22c0-4.88,3.5-7.68,7.81-7.68,3.59,0,6.89,1.57,7.17,6h-4.7a2.17,2.17,0,0,0-2.36-2.13c-1.76,0-2.8,1.26-2.8,3.72v.23c0,2.55,1,3.86,2.89,3.86a2.44,2.44,0,0,0,2.55-2.43h4.51c-.14,3.69-2.64,6.1-7.37,6.1C414.92,40.86,411.59,38.31,411.59,33.38Z" fill="#fff"/><path d="M428.28,25.88h5v2.91A4.62,4.62,0,0,1,438,25.68v4.68c-3.06-.09-4.74.87-4.74,3.22v7h-5Z" fill="#fff"/><path d="M438.92,33.38v-.22c0-4.71,3.5-7.68,7.93-7.68,4,0,7.45,2.3,7.45,7.57v1.31H444a2.93,2.93,0,0,0,3.06,3.06c1.65,0,2.35-.76,2.54-1.74h4.71c-.45,3.31-3,5.18-7.42,5.18C442.28,40.86,438.92,38.17,438.92,33.38Zm10.51-1.85c-.09-1.76-1-2.74-2.58-2.74s-2.55,1-2.8,2.74Z" fill="#fff"/><path d="M455.31,33.35v-.22c0-5,2.74-7.65,6.21-7.65A4.77,4.77,0,0,1,466,28V19.43h5v21.1h-5V38.15a5,5,0,0,1-4.57,2.71C458.08,40.86,455.31,38.43,455.31,33.35Zm10.86-.08v-.22c0-2.47-1-3.79-2.88-3.79s-2.89,1.27-2.89,3.81v.23c0,2.46,1.1,3.72,2.83,3.72S466.17,35.76,466.17,33.27Z" fill="#fff"/><path d="M473.48,21.9a2.77,2.77,0,1,1,2.75,2.57A2.62,2.62,0,0,1,473.48,21.9Zm.25,4h5V40.53h-5Z" fill="#fff"/><path d="M482.11,35.82V29.29h-1.77V25.88h1.77V22.82h5v3.06H490v3.41h-2.89v6.05a1.34,1.34,0,0,0,1.49,1.54,3.8,3.8,0,0,0,1.43-.25v3.81a10.52,10.52,0,0,1-2.78.42C484,40.86,482.11,39.27,482.11,35.82Z" fill="#fff"/><path d="M491.13,35.88h4.62c.17,1.06.64,1.65,2.07,1.65,1.23,0,1.8-.48,1.8-1.21s-.71-1-2.72-1.31c-3.92-.51-5.58-1.66-5.58-4.71,0-3.25,2.89-4.82,6.28-4.82,3.61,0,6.13,1.24,6.47,4.74h-4.54a1.64,1.64,0,0,0-1.88-1.46c-1.09,0-1.65.48-1.65,1.15s.67,1,2.47,1.2c4.06.51,6,1.57,6,4.71,0,3.47-2.58,5-6.64,5S491.24,39.13,491.13,35.88Z" fill="#fff"/><path d="M116.64,68.3c0-3.44,2.92-4.79,7.79-4.79h1.4v-.34c0-1.4-.33-2.32-1.93-2.32a1.8,1.8,0,0,0-2,1.74H117.2c.23-3.53,3-5.27,7-5.27s6.61,1.65,6.61,5.55v9.49H126V70.65a4.81,4.81,0,0,1-4.35,2C119,72.7,116.64,71.41,116.64,68.3Zm9.19-1.06v-.9h-1.31c-2,0-2.92.39-2.92,1.6,0,.84.56,1.37,1.74,1.37C124.77,69.31,125.83,68.5,125.83,67.24Z" fill="#fff"/><path d="M133.25,57.71h5v2.35a5.17,5.17,0,0,1,4.82-2.74c2.83,0,4.79,1.76,4.79,5.52v9.52h-5V63.85c0-1.66-.64-2.47-2.1-2.47s-2.49.9-2.49,2.78v8.2h-5Z" fill="#fff"/><path d="M149.58,65.19V65c0-5,2.75-7.65,6.22-7.65a4.75,4.75,0,0,1,4.51,2.46V51.27h5V72.36h-5V70a4.93,4.93,0,0,1-4.57,2.72C152.35,72.7,149.58,70.26,149.58,65.19Zm10.87-.08v-.23c0-2.46-1-3.78-2.89-3.78s-2.88,1.26-2.88,3.81v.23c0,2.46,1.09,3.72,2.83,3.72S160.45,67.6,160.45,65.11Z" fill="#fff"/><path d="M172.24,65.19V65c0-5,2.74-7.65,6.22-7.65A4.76,4.76,0,0,1,183,59.78V51.27h5V72.36h-5V70a4.94,4.94,0,0,1-4.57,2.72C175,72.7,172.24,70.26,172.24,65.19Zm10.87-.08v-.23c0-2.46-1-3.78-2.89-3.78s-2.88,1.26-2.88,3.81v.23c0,2.46,1.09,3.72,2.83,3.72S183.11,67.6,183.11,65.11Z" fill="#fff"/><path d="M189.74,65.22V65c0-4.71,3.51-7.68,7.93-7.68,4,0,7.45,2.3,7.45,7.56V66.2H194.81a2.93,2.93,0,0,0,3.06,3c1.65,0,2.35-.75,2.55-1.73h4.7c-.44,3.3-3,5.18-7.42,5.18C193.1,72.7,189.74,70,189.74,65.22Zm10.51-1.85c-.08-1.76-.95-2.74-2.58-2.74s-2.55,1-2.8,2.74Z" fill="#fff"/><path d="M206.13,65.19V65c0-5,2.74-7.65,6.22-7.65a4.76,4.76,0,0,1,4.51,2.46V51.27h5V72.36h-5V70a4.94,4.94,0,0,1-4.57,2.72C208.9,72.7,206.13,70.26,206.13,65.19ZM217,65.11v-.23c0-2.46-1-3.78-2.89-3.78s-2.88,1.26-2.88,3.81v.23c0,2.46,1.09,3.72,2.83,3.72S217,67.6,217,65.11Z" fill="#fff"/><path d="M224.3,67.26V57.71h5v8.74c0,1.66.64,2.47,2.07,2.47s2.5-.9,2.5-2.78V57.71h5V72.36h-5V70.09a4.82,4.82,0,0,1-4.65,2.61C226.41,72.7,224.3,71,224.3,67.26Z" fill="#fff"/><path d="M240.66,65.22V65c0-4.88,3.5-7.68,7.82-7.68,3.58,0,6.89,1.57,7.17,6h-4.71a2.16,2.16,0,0,0-2.35-2.13c-1.77,0-2.8,1.26-2.8,3.73v.22c0,2.55,1,3.87,2.88,3.87a2.44,2.44,0,0,0,2.55-2.44h4.51c-.14,3.7-2.63,6.11-7.36,6.11C244,72.7,240.66,70.15,240.66,65.22Z" fill="#fff"/><path d="M258,67.66V61.13h-1.77V57.71H258V54.66h5v3.05h2.89v3.42H263v6.05c0,1.07.53,1.54,1.48,1.54a3.76,3.76,0,0,0,1.43-.25v3.81a10.36,10.36,0,0,1-2.77.42C259.87,72.7,258,71.1,258,67.66Z" fill="#fff"/><path d="M267.72,53.73a2.76,2.76,0,1,1,2.74,2.58A2.61,2.61,0,0,1,267.72,53.73Zm.25,4h5V72.36h-5Z" fill="#fff"/><path d="M274.89,65.22V65c0-4.71,3.5-7.68,8-7.68s8,2.89,8,7.54v.22c0,4.76-3.5,7.62-8,7.62S274.89,70,274.89,65.22Zm10.92-.08v-.23c0-2.46-1-3.84-2.88-3.84S280,62.39,280,64.86v.22c0,2.52,1,3.89,2.92,3.89S285.81,67.57,285.81,65.14Z" fill="#fff"/><path d="M292.67,57.71h5v2.35a5.19,5.19,0,0,1,4.82-2.74c2.83,0,4.79,1.76,4.79,5.52v9.52h-5V63.85c0-1.66-.65-2.47-2.1-2.47s-2.5.9-2.5,2.78v8.2h-5Z" fill="#fff"/><path d="M308.75,67.71h4.62c.17,1.07.64,1.66,2.07,1.66,1.23,0,1.79-.48,1.79-1.21s-.7-1-2.71-1.32c-3.93-.5-5.58-1.65-5.58-4.7,0-3.25,2.89-4.82,6.28-4.82,3.61,0,6.13,1.23,6.47,4.73h-4.54a1.64,1.64,0,0,0-1.88-1.45c-1.09,0-1.65.47-1.65,1.15s.67,1,2.47,1.2c4.06.5,6,1.57,6,4.71,0,3.47-2.58,5-6.64,5S308.86,71,308.75,67.71Z" fill="#fff"/><path d="M328.1,65.19V65c0-5,2.74-7.65,6.22-7.65a4.75,4.75,0,0,1,4.51,2.46V51.27h5V72.36h-5V70a4.93,4.93,0,0,1-4.57,2.72C330.87,72.7,328.1,70.26,328.1,65.19ZM339,65.11v-.23c0-2.46-1-3.78-2.89-3.78s-2.88,1.26-2.88,3.81v.23c0,2.46,1.09,3.72,2.83,3.72S339,67.6,339,65.11Z" fill="#fff"/><path d="M345.55,68.3c0-3.44,2.91-4.79,7.79-4.79h1.4v-.34c0-1.4-.34-2.32-1.94-2.32a1.81,1.81,0,0,0-2,1.74h-4.7c.22-3.53,3-5.27,7-5.27s6.61,1.65,6.61,5.55v9.49h-4.87V70.65a4.8,4.8,0,0,1-4.34,2C347.87,72.7,345.55,71.41,345.55,68.3Zm9.19-1.06v-.9h-1.32c-2,0-2.91.39-2.91,1.6,0,.84.56,1.37,1.73,1.37C353.67,69.31,354.74,68.5,354.74,67.24Z" fill="#fff"/><path d="M362,53.73a2.77,2.77,0,1,1,2.75,2.58A2.62,2.62,0,0,1,362,53.73Zm.26,4h5V72.36h-5Z" fill="#fff"/><path d="M370.14,51.27h5V72.36h-5Z" fill="#fff"/><path d="M382.41,70.88l-5.86-13.17H382l3,7.82,2.8-7.82h4.79l-7.84,19.56H380Z" fill="#fff"/><path d="M391.54,69.84A2.79,2.79,0,0,1,394.39,67a2.83,2.83,0,1,1,0,5.66A2.79,2.79,0,0,1,391.54,69.84Z" fill="#fff"/></g></g></svg>