<svg xmlns="http://www.w3.org/2000/svg" viewBox="0 0 300 600"><title>H73</title><g id="Layer_2" data-name="Layer 2"><g id="Rect"><rect width="300" height="600" fill="none"/></g><g id="H73"><g id="Think_your_tax_preparer_costs_less_than_H_R_Block_Think_ag" data-name="Think your  tax preparer costs less  than  H&amp;R Block?  Think ag"><path d="M27.13,80.18H19.18v-6.8H43.94v6.8H36v23.95H27.13Z" fill="#fff"/><path d="M46.48,71.75h7.69v13.5A8,8,0,0,1,61.57,81c4.34,0,7.35,2.71,7.35,8.47v14.62h-7.7V91.06c0-2.54-1-3.79-3.22-3.79s-3.83,1.38-3.83,4.26v12.6H46.48Z" fill="#fff"/><path d="M72.49,75.53a4,4,0,0,1,4.21-4,4,4,0,1,1,0,7.95A4,4,0,0,1,72.49,75.53Zm.38,6.11h7.7v22.49h-7.7Z" fill="#fff"/><path d="M84.69,81.64h7.7v3.61A7.93,7.93,0,0,1,99.78,81c4.34,0,7.35,2.71,7.35,8.47v14.62H99.44V91.06c0-2.54-1-3.79-3.23-3.79s-3.82,1.38-3.82,4.26v12.6h-7.7Z" fill="#fff"/><path d="M110.87,71.75h7.7V90.54l6.06-8.9h8l-7.35,10.11,8,12.38h-8.59l-6.06-9.85v9.85h-7.7Z" fill="#fff"/><path d="M149.9,101.85l-9-20.21h8.34l4.64,12,4.3-12h7.35l-12,30h-7.35Z" fill="#fff"/><path d="M165.12,93.16v-.34c0-7.22,5.37-11.78,12.34-11.78s12.25,4.43,12.25,11.56V93c0,7.31-5.38,11.7-12.3,11.7S165.12,100.43,165.12,93.16ZM181.88,93v-.35c0-3.78-1.5-5.89-4.42-5.89s-4.47,2-4.47,5.8V93c0,3.87,1.5,6,4.47,6S181.88,96.78,181.88,93Z" fill="#fff"/><path d="M192.24,96.3V81.64h7.7V95.06c0,2.53,1,3.78,3.18,3.78s3.82-1.38,3.82-4.26V81.64h7.7v22.49h-7.7v-3.48c-1.2,2.32-3.39,4-7.13,4C195.47,104.65,192.24,102,192.24,96.3Z" fill="#fff"/><path d="M218.55,81.64h7.7v4.47a7.08,7.08,0,0,1,7.26-4.77v7.18c-4.68-.13-7.26,1.33-7.26,4.94v10.67h-7.7Z" fill="#fff"/><path d="M21.59,156.45v-10H18.88v-5.24h2.71V136.5h7.69v4.69h4.43v5.24H29.28v9.29c0,1.64.82,2.37,2.28,2.37a5.78,5.78,0,0,0,2.19-.39v5.85a16,16,0,0,1-4.25.64C24.43,164.19,21.59,161.74,21.59,156.45Z" fill="#fff"/><path d="M35.43,157.44c0-5.29,4.47-7.35,12-7.35h2.15v-.52c0-2.15-.52-3.57-3-3.57a2.77,2.77,0,0,0-3.05,2.67H36.29c.34-5.42,4.6-8.08,10.75-8.08s10.14,2.53,10.14,8.51v14.58H49.7v-2.63c-1.07,1.64-3.05,3.14-6.66,3.14C39,164.19,35.43,162.21,35.43,157.44Zm14.1-1.63v-1.38h-2c-3.1,0-4.47.6-4.47,2.45,0,1.29.86,2.11,2.66,2.11C47.9,159,49.53,157.74,49.53,155.81Z" fill="#fff"/><path d="M66.6,152.24l-7-11.05h8.85l3.49,5.93,3.39-5.93h7.91l-7.09,10.45,7.78,12H75.06l-4-6.71L67,163.68H59.12Z" fill="#fff"/><path d="M93.89,141.19h7.69v3.35a7.94,7.94,0,0,1,7-3.95c5.25,0,9.5,3.95,9.5,11.65v.34c0,7.74-4.25,11.61-9.54,11.61-3.4,0-5.85-1.59-7-3.82V171.2H93.89Zm16.38,11.39v-.34c0-4-1.72-5.85-4.43-5.85s-4.47,2-4.47,5.81v.34c0,3.83,1.68,5.76,4.47,5.76S110.27,156.28,110.27,152.58Z" fill="#fff"/><path d="M120.89,141.19h7.69v4.47a7.08,7.08,0,0,1,7.26-4.77v7.18c-4.68-.13-7.26,1.33-7.26,4.94v10.67h-7.69Z" fill="#fff"/><path d="M137.22,152.71v-.34c0-7.23,5.37-11.78,12.17-11.78,6.14,0,11.43,3.52,11.43,11.61v2H145c.22,3,1.94,4.68,4.69,4.68,2.53,0,3.61-1.16,3.91-2.66h7.22c-.69,5.07-4.6,7.95-11.39,7.95C142.38,164.19,137.22,160.06,137.22,152.71Zm16.12-2.84c-.13-2.71-1.46-4.21-4-4.21-2.33,0-3.92,1.5-4.3,4.21Z" fill="#fff"/><path d="M163.48,141.19h7.7v3.35a7.93,7.93,0,0,1,7-3.95c5.25,0,9.5,3.95,9.5,11.65v.34c0,7.74-4.25,11.61-9.54,11.61-3.39,0-5.84-1.59-7-3.82V171.2h-7.7Zm16.38,11.39v-.34c0-4-1.72-5.85-4.43-5.85s-4.47,2-4.47,5.81v.34c0,3.83,1.68,5.76,4.47,5.76S179.86,156.28,179.86,152.58Z" fill="#fff"/><path d="M189.19,157.44c0-5.29,4.47-7.35,11.95-7.35h2.15v-.52c0-2.15-.52-3.57-3-3.57a2.77,2.77,0,0,0-3,2.67h-7.22c.34-5.42,4.6-8.08,10.75-8.08s10.14,2.53,10.14,8.51v14.58h-7.48v-2.63c-1.07,1.64-3.05,3.14-6.66,3.14C192.76,164.19,189.19,162.21,189.19,157.44Zm14.1-1.63v-1.38h-2c-3.1,0-4.47.6-4.47,2.45,0,1.29.86,2.11,2.66,2.11C201.66,159,203.29,157.74,203.29,155.81Z" fill="#fff"/><path d="M214.68,141.19h7.7v4.47a7.07,7.07,0,0,1,7.26-4.77v7.18c-4.69-.13-7.26,1.33-7.26,4.94v10.67h-7.7Z" fill="#fff"/><path d="M231,152.71v-.34c0-7.23,5.38-11.78,12.17-11.78,6.15,0,11.43,3.52,11.43,11.61v2H238.79c.22,3,1.94,4.68,4.69,4.68,2.54,0,3.61-1.16,3.91-2.66h7.22c-.68,5.07-4.6,7.95-11.39,7.95C236.17,164.19,231,160.06,231,152.71Zm16.12-2.84c-.13-2.71-1.46-4.21-3.95-4.21-2.32,0-3.91,1.5-4.3,4.21Z" fill="#fff"/><path d="M257.28,141.19H265v4.47a7.09,7.09,0,0,1,7.27-4.77v7.18c-4.69-.13-7.27,1.33-7.27,4.94v10.67h-7.69Z" fill="#fff"/><path d="M19.35,212.26v-.35c0-7.48,5.38-11.78,12-11.78,5.5,0,10.57,2.41,11,9.25H35.13c-.34-2.11-1.38-3.27-3.61-3.27-2.71,0-4.3,1.93-4.3,5.72v.34c0,3.92,1.51,5.94,4.43,5.94,2.15,0,3.65-1.29,3.91-3.74h6.92c-.22,5.67-4,9.37-11.31,9.37C24.47,223.74,19.35,219.83,19.35,212.26Z" fill="#fff"/><path d="M43.77,212.26v-.35c0-7.22,5.37-11.78,12.34-11.78s12.25,4.43,12.25,11.57V212c0,7.31-5.38,11.7-12.3,11.7S43.77,219.53,43.77,212.26Zm16.76-.13v-.34c0-3.79-1.5-5.9-4.42-5.9s-4.47,2-4.47,5.81V212c0,3.87,1.5,6,4.47,6S60.53,215.87,60.53,212.13Z" fill="#fff"/><path d="M69.69,216.09h7.09c.26,1.63,1,2.53,3.18,2.53,1.89,0,2.75-.73,2.75-1.85s-1.07-1.59-4.17-2c-6-.77-8.55-2.53-8.55-7.22,0-5,4.43-7.4,9.63-7.4,5.54,0,9.41,1.89,9.93,7.27h-7a2.52,2.52,0,0,0-2.88-2.24c-1.68,0-2.54.73-2.54,1.77s1,1.5,3.78,1.85c6.23.77,9.24,2.4,9.24,7.22,0,5.33-4,7.74-10.18,7.74C73.6,223.74,69.86,221.07,69.69,216.09Z" fill="#fff"/><path d="M93.72,216V206H91v-5.25h2.71v-4.68h7.69v4.68h4.43V206h-4.43v9.29a2.05,2.05,0,0,0,2.28,2.36,6,6,0,0,0,2.19-.38v5.84a16,16,0,0,1-4.25.65C96.56,223.74,93.72,221.29,93.72,216Z" fill="#fff"/><path d="M107.56,216.09h7.09c.26,1.63,1,2.53,3.18,2.53,1.89,0,2.75-.73,2.75-1.85s-1.07-1.59-4.17-2c-6-.77-8.55-2.53-8.55-7.22,0-5,4.43-7.4,9.63-7.4,5.54,0,9.41,1.89,9.93,7.27h-7a2.52,2.52,0,0,0-2.88-2.24c-1.68,0-2.54.73-2.54,1.77s1,1.5,3.78,1.85c6.23.77,9.24,2.4,9.24,7.22,0,5.33-4,7.74-10.18,7.74C111.47,223.74,107.73,221.07,107.56,216.09Z" fill="#fff"/><path d="M138.6,190.84h7.65v32.38H138.6Z" fill="#fff"/><path d="M149.17,212.26v-.35c0-7.22,5.37-11.78,12.16-11.78,6.15,0,11.44,3.53,11.44,11.61v2H157c.21,3,1.93,4.69,4.68,4.69,2.54,0,3.62-1.16,3.92-2.67h7.22c-.69,5.08-4.6,8-11.39,8C154.33,223.74,149.17,219.61,149.17,212.26Zm16.12-2.84c-.13-2.71-1.46-4.21-4-4.21-2.32,0-3.91,1.5-4.29,4.21Z" fill="#fff"/><path d="M174.14,216.09h7.1c.25,1.63,1,2.53,3.18,2.53,1.89,0,2.75-.73,2.75-1.85s-1.08-1.59-4.17-2c-6-.77-8.56-2.53-8.56-7.22,0-5,4.43-7.4,9.63-7.4,5.55,0,9.42,1.89,9.93,7.27h-7c-.3-1.51-1.12-2.24-2.88-2.24s-2.54.73-2.54,1.77,1,1.5,3.79,1.85c6.23.77,9.24,2.4,9.24,7.22,0,5.33-4,7.74-10.19,7.74C178.06,223.74,174.32,221.07,174.14,216.09Z" fill="#fff"/><path d="M195.77,216.09h7.09c.26,1.63,1,2.53,3.18,2.53,1.89,0,2.75-.73,2.75-1.85s-1.07-1.59-4.17-2c-6-.77-8.55-2.53-8.55-7.22,0-5,4.42-7.4,9.63-7.4,5.54,0,9.41,1.89,9.92,7.27h-7c-.3-1.51-1.12-2.24-2.88-2.24s-2.53.73-2.53,1.77,1,1.5,3.78,1.85c6.23.77,9.24,2.4,9.24,7.22,0,5.33-4,7.74-10.19,7.74C199.68,223.74,195.94,221.07,195.77,216.09Z" fill="#fff"/><path d="M21.59,275.55v-10H18.88v-5.25h2.71v-4.69h7.69v4.69h4.43v5.25H29.28v9.28c0,1.64.82,2.37,2.28,2.37a5.78,5.78,0,0,0,2.19-.39v5.85a16,16,0,0,1-4.25.65C24.43,283.29,21.59,280.83,21.59,275.55Z" fill="#fff"/><path d="M36.63,250.39h7.7v13.5a7.93,7.93,0,0,1,7.39-4.21c4.34,0,7.35,2.71,7.35,8.47v14.62H51.38V269.7c0-2.54-1-3.79-3.23-3.79s-3.82,1.38-3.82,4.26v12.6h-7.7Z" fill="#fff"/><path d="M61.52,276.54c0-5.29,4.47-7.36,11.95-7.36h2.15v-.51c0-2.15-.51-3.57-3-3.57a2.77,2.77,0,0,0-3.06,2.66H62.38c.35-5.41,4.6-8.08,10.75-8.08s10.14,2.54,10.14,8.51v14.58H75.79v-2.62c-1.07,1.63-3.05,3.14-6.66,3.14C65.09,283.29,61.52,281.31,61.52,276.54Zm14.1-1.64v-1.37h-2c-3.09,0-4.47.6-4.47,2.45,0,1.29.86,2.1,2.67,2.1C74,278.08,75.62,276.84,75.62,274.9Z" fill="#fff"/><path d="M87,260.28h7.7v3.61a7.93,7.93,0,0,1,7.39-4.21c4.34,0,7.35,2.71,7.35,8.47v14.62h-7.69V269.7c0-2.54-1-3.79-3.23-3.79s-3.82,1.38-3.82,4.26v12.6H87Z" fill="#fff"/><path d="M21.25,311.57H30.1v11.74H40.2V311.57H49v30.75H40.2V330.19H30.1v12.13H21.25Z" fill="#fff"/><path d="M78.5,336l5.12,6.28h-10l-1.8-2.24a12.24,12.24,0,0,1-8.3,2.75c-6.53,0-10.79-3.44-10.79-9.28,0-4,2.41-6.88,6.75-8.95a9.81,9.81,0,0,1-1.89-5.37c0-5.25,4.47-8,9.89-8,4.89,0,9.32,2.45,9.32,7.18,0,3.35-2,5.8-6.14,7.61l3.86,4.73,2.24-4.39h6.7Zm-10.66-.9L63,329.29a3.64,3.64,0,0,0-2.06,3.31,3.57,3.57,0,0,0,3.91,3.83A4,4,0,0,0,67.84,335.14Zm-.94-12.39c2.06-1,3-2.15,3-3.74a2.21,2.21,0,0,0-2.28-2.36,2.45,2.45,0,0,0-2.54,2.66C65.13,320.43,65.82,321.51,66.9,322.75Z" fill="#fff"/><path d="M86.41,311.57h12c8,0,12.51,3.27,12.51,9.76v.18a8,8,0,0,1-5.55,8.08l7.35,12.73h-9.28l-6.24-11H95.18v11H86.41Zm11.61,14c3,0,4.43-1.25,4.43-3.74v-.17c0-2.5-1.55-3.49-4.39-3.49H95.18v7.4Z" fill="#fff"/><path d="M123.55,311.57h13.71c7.27,0,10.36,3.27,10.36,8v.18c0,3.44-1.76,5.71-5.2,6.62,3.78.64,6.15,2.92,6.15,7.18v.17c0,5.5-3.57,8.56-11.18,8.56H123.55Zm12,12.22c2.75,0,3.78-1,3.78-3.14v-.18c0-2.1-1.11-3.05-3.78-3.05h-3.35v6.37Zm.3,12.64c2.8,0,4.09-1.29,4.09-3.57v-.17c0-2.33-1.25-3.53-4.35-3.53h-3.39v7.27Z" fill="#fff"/><path d="M151.62,309.94h7.65v32.38h-7.65Z" fill="#fff"/><path d="M162.2,331.35V331c0-7.22,5.37-11.78,12.33-11.78s12.25,4.43,12.25,11.56v.35c0,7.31-5.37,11.69-12.29,11.69S162.2,338.62,162.2,331.35Zm16.76-.13v-.34c0-3.78-1.5-5.89-4.43-5.89s-4.47,2-4.47,5.8v.35c0,3.87,1.51,6,4.47,6S179,335,179,331.22Z" fill="#fff"/><path d="M188.29,331.35V331c0-7.48,5.37-11.78,12-11.78,5.5,0,10.58,2.4,11,9.24h-7.23c-.34-2.11-1.37-3.27-3.61-3.27-2.7,0-4.3,1.94-4.3,5.72v.35c0,3.91,1.51,5.93,4.43,5.93,2.15,0,3.66-1.29,3.91-3.74h6.92c-.21,5.68-4,9.37-11.3,9.37C193.4,342.83,188.29,338.92,188.29,331.35Z" fill="#fff"/><path d="M213.91,309.94h7.69v18.79l6.06-8.9h8l-7.35,10.1,7.95,12.39h-8.6l-6.06-9.85v9.85h-7.69Z" fill="#fff"/><path d="M243.05,331.4c0-3.27,2.24-5.34,4.21-7.23,1.47-1.42,2.8-2.71,2.8-4.21a2.29,2.29,0,0,0-2.62-2.58c-1.85,0-3.1,1.42-3.4,3.78h-7.48c.22-6.49,4.86-10,11.48-10s10.36,3,10.36,8.09c0,2.83-1.42,4.77-3.14,6.45-2.11,2.1-4.56,3.78-4.94,5.89v.64h-7.27Zm-1,7.13a4.61,4.61,0,0,1,9.2,0,4.61,4.61,0,0,1-9.2,0Z" fill="#fff"/><path d="M27.13,377.91H19.18v-6.79H43.94v6.79H36v23.95H27.13Z" fill="#fff"/><path d="M46.48,369.49h7.69V383a8,8,0,0,1,7.4-4.22c4.34,0,7.35,2.71,7.35,8.47v14.62h-7.7V388.79c0-2.53-1-3.78-3.22-3.78s-3.83,1.37-3.83,4.26v12.59H46.48Z" fill="#fff"/><path d="M72.49,373.27a4,4,0,0,1,4.21-4,4,4,0,1,1,0,8A4,4,0,0,1,72.49,373.27Zm.38,6.11h7.7v22.48h-7.7Z" fill="#fff"/><path d="M84.69,379.38h7.7V383a7.93,7.93,0,0,1,7.39-4.22c4.34,0,7.35,2.71,7.35,8.47v14.62H99.44V388.79c0-2.53-1-3.78-3.23-3.78s-3.82,1.37-3.82,4.26v12.59h-7.7Z" fill="#fff"/><path d="M110.87,369.49h7.7v18.79l6.06-8.9h8l-7.35,10.1,8,12.38h-8.59L118.57,392v9.84h-7.7Z" fill="#fff"/><path d="M141.56,395.63c0-5.29,4.47-7.35,11.95-7.35h2.15v-.52c0-2.15-.51-3.57-3-3.57a2.77,2.77,0,0,0-3.06,2.67h-7.22c.35-5.42,4.6-8.09,10.75-8.09s10.14,2.54,10.14,8.52v14.57h-7.48v-2.62c-1.07,1.64-3.05,3.14-6.66,3.14C145.13,402.38,141.56,400.4,141.56,395.63Zm14.1-1.63v-1.38h-2c-3.09,0-4.47.6-4.47,2.45,0,1.29.86,2.11,2.67,2.11C154,397.18,155.66,395.93,155.66,394Z" fill="#fff"/><path d="M165.81,401.86h7.65c.34,1.64,1.33,2.93,4.12,2.93,3.4,0,4.77-1.94,4.77-4.73v-3.44a7.88,7.88,0,0,1-7,4.13c-5.24,0-9.54-3.87-9.54-10.8v-.34c0-6.62,4.25-10.84,9.54-10.84,3.57,0,5.68,1.51,7,3.79v-3.18h7.7V400c0,6.71-4.43,10.24-12.47,10.24C169.93,410.21,166.41,407,165.81,401.86Zm16.76-11.95v-.3c0-3.1-1.59-5.07-4.43-5.07s-4.43,2-4.43,5.11V390c0,3.09,1.64,5.07,4.39,5.07S182.57,393.09,182.57,389.91Z" fill="#fff"/><path d="M192.67,395.63c0-5.29,4.47-7.35,12-7.35h2.15v-.52c0-2.15-.52-3.57-3-3.57a2.77,2.77,0,0,0-3.05,2.67h-7.22c.35-5.42,4.6-8.09,10.75-8.09s10.14,2.54,10.14,8.52v14.57h-7.48v-2.62c-1.07,1.64-3.05,3.14-6.66,3.14C196.24,402.38,192.67,400.4,192.67,395.63Zm14.1-1.63v-1.38h-2c-3.09,0-4.47.6-4.47,2.45,0,1.29.86,2.11,2.67,2.11C205.14,397.18,206.77,395.93,206.77,394Z" fill="#fff"/><path d="M218,373.27a4.24,4.24,0,1,1,4.21,4A4,4,0,0,1,218,373.27Zm.39,6.11h7.69v22.48h-7.69Z" fill="#fff"/><path d="M230.2,379.38h7.69V383a8,8,0,0,1,7.4-4.22c4.34,0,7.35,2.71,7.35,8.47v14.62h-7.7V388.79c0-2.53-1-3.78-3.22-3.78s-3.83,1.37-3.83,4.26v12.59H230.2Z" fill="#fff"/><path d="M256.08,398a4.28,4.28,0,0,1,4.38-4.34,4.35,4.35,0,1,1,0,8.69A4.29,4.29,0,0,1,256.08,398Z" fill="#fff"/></g></g></g></svg>