<svg xmlns="http://www.w3.org/2000/svg" viewBox="0 0 300 600"><title>Asset 15</title><g id="Layer_2" data-name="Layer 2"><g id="Rect"><rect width="300" height="600" fill="none"/></g><g id="Power_hour._Your_taxes_could_be_done_in_an_hour." data-name="Power hour. Your taxes could be done in an hour."><path d="M22.64,80H37c10.34,0,15.14,4.59,15.14,12.61v.21c0,7.91-5.33,12.19-14.67,12.19H33.4v12.71H22.64ZM36.51,97.62c3.48,0,5.33-1.63,5.33-4.74v-.22c0-3.21-1.9-4.53-5.27-4.53H33.4v9.49Z" fill="#fff"/><path d="M53,104.27v-.42C53,95,59.56,89.39,68.11,89.39s15,5.44,15,14.19V104c0,9-6.59,14.34-15.08,14.34S53,113.18,53,104.27Zm20.57-.16v-.42c0-4.64-1.84-7.23-5.43-7.23s-5.49,2.48-5.49,7.12V104c0,4.74,1.85,7.33,5.49,7.33S73.54,108.7,73.54,104.11Z" fill="#fff"/><path d="M83.25,90.13h9.86l4,16.51,4.64-16.51h7.6l4.12,16.51L118,90.13h9l-8.76,27.59h-9L105,102.32l-4.28,15.4H91.58Z" fill="#fff"/><path d="M126.66,104.27v-.42c0-8.86,6.6-14.46,14.93-14.46,7.54,0,14,4.33,14,14.25v2.48H136.21c.26,3.63,2.37,5.75,5.75,5.75,3.11,0,4.43-1.43,4.8-3.28h8.86c-.84,6.23-5.64,9.76-14,9.76C133,118.35,126.66,113.29,126.66,104.27Zm19.78-3.48c-.15-3.33-1.79-5.17-4.85-5.17-2.85,0-4.8,1.84-5.27,5.17Z" fill="#fff"/><path d="M158.89,90.13h9.44v5.49c1.75-4.12,4.65-5.91,8.92-5.86v8.81c-5.75-.16-8.92,1.64-8.92,6.07v13.08h-9.44Z" fill="#fff"/><path d="M21.8,132.75h9.44v16.56a9.72,9.72,0,0,1,9.07-5.17c5.33,0,9,3.33,9,10.4v17.93H39.89v-16c0-3.11-1.21-4.64-4-4.64s-4.69,1.69-4.69,5.22v15.46H21.8Z" fill="#fff"/><path d="M52.44,159v-.42c0-8.86,6.6-14.46,15.14-14.46s15,5.44,15,14.19v.43c0,9-6.6,14.34-15.09,14.34S52.44,167.93,52.44,159ZM73,158.86v-.42c0-4.64-1.85-7.23-5.44-7.23s-5.48,2.48-5.48,7.12v.43c0,4.74,1.84,7.33,5.48,7.33S73,163.45,73,158.86Z" fill="#fff"/><path d="M85.73,162.87v-18h9.44v16.46c0,3.11,1.21,4.64,3.9,4.64,2.85,0,4.7-1.69,4.7-5.22V144.88h9.44v27.59h-9.44V168.2c-1.48,2.85-4.17,4.9-8.76,4.9C89.68,173.1,85.73,169.83,85.73,162.87Z" fill="#fff"/><path d="M118,144.88h9.44v5.49c1.74-4.12,4.64-5.91,8.92-5.86v8.81c-5.75-.16-8.92,1.64-8.92,6.07v13.08H118Z" fill="#fff"/><path d="M136.26,167.72a5.26,5.26,0,0,1,5.38-5.32,5.33,5.33,0,1,1,0,10.65A5.26,5.26,0,0,1,136.26,167.72Z" fill="#fff"/><path d="M31.71,211.08,19.42,189.5H31.19l6.38,12.72L44,189.5H54.29L42.58,211.08v16.14H31.71Z" fill="#fff"/><path d="M50.33,213.77v-.42c0-8.86,6.6-14.46,15.14-14.46s15,5.44,15,14.19v.43c0,9-6.6,14.34-15.09,14.34S50.33,222.68,50.33,213.77Zm20.58-.16v-.42c0-4.64-1.85-7.23-5.44-7.23S60,208.44,60,213.08v.43c0,4.74,1.84,7.33,5.48,7.33S70.91,218.2,70.91,213.61Z" fill="#fff"/><path d="M83.62,217.62v-18h9.44v16.46c0,3.11,1.21,4.64,3.9,4.64,2.85,0,4.7-1.69,4.7-5.22V199.63h9.44v27.59h-9.44V223c-1.48,2.85-4.17,4.9-8.76,4.9C87.57,227.85,83.62,224.58,83.62,217.62Z" fill="#fff"/><path d="M115.9,199.63h9.44v5.49c1.74-4.12,4.64-5.91,8.92-5.86v8.81c-5.75-.16-8.92,1.64-8.92,6.07v13.08H115.9Z" fill="#fff"/><path d="M148.55,218.36V206.07h-3.32v-6.44h3.32v-5.75H158v5.75h5.44v6.44H158v11.39c0,2,1,2.9,2.8,2.9a7.33,7.33,0,0,0,2.69-.47v7.17a19.67,19.67,0,0,1-5.22.79C152,227.85,148.55,224.85,148.55,218.36Z" fill="#fff"/><path d="M165.54,219.57c0-6.49,5.48-9,14.66-9h2.64v-.63c0-2.64-.63-4.38-3.64-4.38a3.4,3.4,0,0,0-3.75,3.27h-8.86c.42-6.65,5.65-9.92,13.19-9.92s12.45,3.12,12.45,10.45v17.88h-9.18V224c-1.32,2-3.75,3.85-8.18,3.85C169.92,227.85,165.54,225.43,165.54,219.57Zm17.3-2v-1.69h-2.48c-3.8,0-5.49.74-5.49,3,0,1.58,1.06,2.58,3.27,2.58C180.83,221.47,182.84,219.94,182.84,217.57Z" fill="#fff"/><path d="M203.78,213.19l-8.6-13.56h10.87l4.27,7.28,4.17-7.28h9.7l-8.7,12.82L225,227.22H214.17l-4.9-8.23-5,8.23H194.6Z" fill="#fff"/><path d="M223.83,213.77v-.42c0-8.86,6.59-14.46,14.92-14.46,7.55,0,14,4.33,14,14.25v2.48H233.37c.27,3.63,2.38,5.75,5.75,5.75,3.11,0,4.43-1.43,4.8-3.28h8.86c-.84,6.23-5.64,9.76-14,9.76C230.15,227.85,223.83,222.79,223.83,213.77Zm19.78-3.48c-.16-3.33-1.8-5.17-4.86-5.17-2.85,0-4.8,1.84-5.27,5.17Z" fill="#fff"/><path d="M254.47,218.46h8.7c.32,2,1.22,3.12,3.91,3.12,2.32,0,3.38-.9,3.38-2.27s-1.32-1.95-5.12-2.48c-7.39-1-10.5-3.11-10.5-8.86,0-6.12,5.43-9.08,11.82-9.08,6.8,0,11.55,2.32,12.18,8.92H270.3c-.37-1.85-1.38-2.74-3.54-2.74s-3.11.89-3.11,2.16,1.27,1.84,4.64,2.27c7.65.95,11.34,2.95,11.34,8.86,0,6.54-4.85,9.49-12.5,9.49C259.27,227.85,254.68,224.58,254.47,218.46Z" fill="#fff"/><path d="M20.32,268.52v-.42c0-9.18,6.59-14.46,14.72-14.46,6.75,0,13,3,13.5,11.34H39.68c-.42-2.58-1.69-4-4.43-4-3.33,0-5.28,2.37-5.28,7v.42c0,4.8,1.85,7.28,5.44,7.28,2.63,0,4.48-1.58,4.8-4.59H48.7c-.27,7-5,11.5-13.88,11.5C26.6,282.6,20.32,277.8,20.32,268.52Z" fill="#fff"/><path d="M50.28,268.52v-.42c0-8.86,6.59-14.46,15.14-14.46s15,5.44,15,14.19v.43c0,9-6.59,14.34-15.08,14.34S50.28,277.43,50.28,268.52Zm20.57-.16v-.42c0-4.64-1.84-7.23-5.43-7.23s-5.49,2.48-5.49,7.12v.43c0,4.74,1.85,7.33,5.49,7.33S70.85,273,70.85,268.36Z" fill="#fff"/><path d="M83.57,272.37v-18H93v16.46c0,3.11,1.21,4.64,3.9,4.64,2.85,0,4.7-1.69,4.7-5.22V254.38h9.44V282h-9.44V277.7c-1.48,2.85-4.17,4.9-8.76,4.9C87.52,282.6,83.57,279.33,83.57,272.37Z" fill="#fff"/><path d="M116.11,242.25h9.39V282h-9.39Z" fill="#fff"/><path d="M129.19,268.47V268c0-9.39,5.17-14.4,11.71-14.4,4.33,0,6.91,1.85,8.5,4.65v-16h9.44V282H149.4v-4.48a9.33,9.33,0,0,1-8.6,5.11C134.42,282.6,129.19,278,129.19,268.47Zm20.47-.16v-.42c0-4.65-1.95-7.12-5.43-7.12s-5.44,2.37-5.44,7.17v.42c0,4.64,2.06,7,5.33,7C147.55,275.38,149.66,273,149.66,268.31Z" fill="#fff"/><path d="M182.68,277.7V282h-9.44V242.25h9.44V258.5a9.73,9.73,0,0,1,8.6-4.86c6.43,0,11.66,4.86,11.66,14.3v.42c0,9.5-5.23,14.24-11.71,14.24C187.11,282.6,184.05,280.65,182.68,277.7Zm10.66-9.34v-.42c0-4.85-2.11-7.17-5.44-7.17s-5.48,2.47-5.48,7.12v.42c0,4.69,2.05,7.07,5.48,7.07S193.34,272.9,193.34,268.36Z" fill="#fff"/><path d="M204.89,268.52v-.42c0-8.86,6.59-14.46,14.93-14.46,7.54,0,14,4.33,14,14.25v2.48H214.44c.26,3.63,2.37,5.75,5.75,5.75,3.11,0,4.43-1.43,4.8-3.28h8.86c-.85,6.23-5.65,9.76-14,9.76C211.22,282.6,204.89,277.54,204.89,268.52ZM224.67,265c-.16-3.33-1.79-5.17-4.85-5.17-2.85,0-4.8,1.84-5.28,5.17Z" fill="#fff"/><path d="M20.42,323.22v-.43c0-9.38,5.17-14.4,11.71-14.4,4.33,0,6.91,1.85,8.5,4.65V297h9.44v39.72H40.63v-4.48a9.3,9.3,0,0,1-8.6,5.11C25.65,337.35,20.42,332.76,20.42,323.22Zm20.47-.16v-.42c0-4.65-2-7.13-5.43-7.13S30,317.89,30,322.69v.42c0,4.64,2.06,7,5.33,7C38.78,330.13,40.89,327.75,40.89,323.06Z" fill="#fff"/><path d="M53.39,323.27v-.42c0-8.86,6.6-14.46,15.14-14.46s15,5.44,15,14.19V323c0,9-6.6,14.34-15.09,14.34S53.39,332.18,53.39,323.27ZM74,323.11v-.42c0-4.64-1.85-7.23-5.44-7.23s-5.48,2.48-5.48,7.12V323c0,4.74,1.84,7.33,5.48,7.33S74,327.7,74,323.11Z" fill="#fff"/><path d="M86.89,309.13h9.44v4.43a9.73,9.73,0,0,1,9.07-5.17c5.33,0,9,3.33,9,10.4v17.93H105v-16c0-3.11-1.21-4.64-4-4.64s-4.7,1.69-4.7,5.22v15.46H86.89Z" fill="#fff"/><path d="M117.54,323.27v-.42c0-8.86,6.59-14.46,14.92-14.46,7.55,0,14,4.33,14,14.25v2.48H127.08c.27,3.63,2.38,5.75,5.75,5.75,3.12,0,4.43-1.43,4.8-3.28h8.87c-.85,6.23-5.65,9.76-14,9.76C123.87,337.35,117.54,332.29,117.54,323.27Zm19.78-3.48c-.16-3.33-1.8-5.17-4.86-5.17-2.84,0-4.8,1.84-5.27,5.17Z" fill="#fff"/><path d="M159.16,301.64a4.92,4.92,0,0,1,5.16-4.9,4.89,4.89,0,1,1,0,9.76A4.88,4.88,0,0,1,159.16,301.64Zm.47,7.49h9.44v27.59h-9.44Z" fill="#fff"/><path d="M174.14,309.13h9.44v4.43a9.72,9.72,0,0,1,9.07-5.17c5.33,0,9,3.33,9,10.4v17.93h-9.44v-16c0-3.11-1.21-4.64-4-4.64s-4.69,1.69-4.69,5.22v15.46h-9.44Z" fill="#fff"/><path d="M20.21,383.82c0-6.49,5.49-9,14.67-9h2.64v-.63c0-2.64-.64-4.38-3.64-4.38a3.39,3.39,0,0,0-3.75,3.27H21.27c.42-6.65,5.64-9.92,13.19-9.92s12.44,3.12,12.44,10.45v17.88H37.73v-3.22c-1.32,2-3.75,3.85-8.18,3.85C24.59,392.1,20.21,389.68,20.21,383.82Zm17.31-2v-1.69H35c-3.8,0-5.49.74-5.49,3,0,1.58,1.05,2.58,3.27,2.58C35.51,385.72,37.52,384.19,37.52,381.82Z" fill="#fff"/><path d="M51.49,363.88h9.45v4.43A9.72,9.72,0,0,1,70,363.14c5.33,0,9,3.33,9,10.4v17.93H69.59v-16c0-3.11-1.22-4.64-4-4.64s-4.69,1.69-4.69,5.22v15.46H51.49Z" fill="#fff"/><path d="M93.22,351.75h9.44v16.56a9.73,9.73,0,0,1,9.07-5.17c5.33,0,9,3.33,9,10.4v17.93h-9.44v-16c0-3.11-1.21-4.64-4-4.64s-4.69,1.69-4.69,5.22v15.46H93.22Z" fill="#fff"/><path d="M123.87,378v-.42c0-8.86,6.59-14.46,15.13-14.46s15,5.44,15,14.19v.43c0,9-6.6,14.34-15.09,14.34S123.87,386.93,123.87,378Zm20.57-.16v-.42c0-4.64-1.85-7.23-5.44-7.23s-5.48,2.48-5.48,7.12v.43c0,4.74,1.84,7.33,5.48,7.33S144.44,382.45,144.44,377.86Z" fill="#fff"/><path d="M157.15,381.87v-18h9.44v16.46c0,3.11,1.22,4.64,3.91,4.64,2.84,0,4.69-1.69,4.69-5.22V363.88h9.44v27.59h-9.44V387.2c-1.48,2.85-4.17,4.9-8.76,4.9C161.11,392.1,157.15,388.83,157.15,381.87Z" fill="#fff"/><path d="M189.43,363.88h9.44v5.49c1.75-4.12,4.65-5.91,8.92-5.86v8.81c-5.75-.16-8.92,1.64-8.92,6.07v13.08h-9.44Z" fill="#fff"/><path d="M207.68,386.72a5.26,5.26,0,0,1,5.38-5.32,5.33,5.33,0,1,1,0,10.65A5.26,5.26,0,0,1,207.68,386.72Z" fill="#fff"/></g></g></svg>