<svg xmlns="http://www.w3.org/2000/svg" viewBox="0 0 119.66 31.81"><title>file_free_online_728x90</title><g id="Layer_2" data-name="Layer 2"><g id="CTA"><g id="Rectangle_1" data-name="Rectangle 1"><rect width="119.66" height="31.81" fill="none"/></g><g id="File_free_online" data-name="File free online"><path d="M13.34,9.81h6.43v1.78H15.61v2.65H18.9V16H15.61v3.88H13.34Z" transform="translate(0)" fill="#262626"/><path d="M20.65,10.4a1.16,1.16,0,1,1,1.15,1.1A1.11,1.11,0,0,1,20.65,10.4Zm.15,2.1h2v7.33h-2Z" transform="translate(0)" fill="#262626"/><path d="M24.53,9.18h2V19.83h-2Z" transform="translate(0)" fill="#262626"/><path d="M27.73,16.25v-.11a3.64,3.64,0,0,1,3.77-3.81,3.38,3.38,0,0,1,3.57,3.73v.56H29.79a1.76,1.76,0,0,0,1.82,1.92c.94,0,1.4-.41,1.53-1h1.92c-.24,1.59-1.5,2.47-3.5,2.47A3.56,3.56,0,0,1,27.73,16.25Zm5.37-.88c-.07-1.11-.63-1.64-1.6-1.64a1.68,1.68,0,0,0-1.68,1.64Z" transform="translate(0)" fill="#262626"/><path d="M39.42,13.94h-1V12.5h1v-.84A2.34,2.34,0,0,1,42,9.1a3.26,3.26,0,0,1,1.05.14v1.52a2.2,2.2,0,0,0-.74-.12.85.85,0,0,0-.91,1v.9H43v1.44h-1.6v5.89h-2Z" transform="translate(0)" fill="#262626"/><path d="M44.07,12.5h2v1.4a2.4,2.4,0,0,1,2.37-1.51v1.89c-1.5,0-2.37.47-2.37,1.88v3.67h-2Z" transform="translate(0)" fill="#262626"/><path d="M49,16.25v-.11a3.64,3.64,0,0,1,3.77-3.81,3.38,3.38,0,0,1,3.57,3.73v.56H51.07a1.76,1.76,0,0,0,1.82,1.92c.94,0,1.4-.41,1.53-1h1.92C56.1,19.1,54.84,20,52.84,20A3.56,3.56,0,0,1,49,16.25Zm5.37-.88c-.07-1.11-.63-1.64-1.6-1.64a1.68,1.68,0,0,0-1.68,1.64Z" transform="translate(0)" fill="#262626"/><path d="M57,16.25v-.11a3.64,3.64,0,0,1,3.77-3.81,3.38,3.38,0,0,1,3.57,3.73v.56H59.08c.06,1.22.71,1.92,1.82,1.92.94,0,1.4-.41,1.53-1h1.92C64.11,19.1,62.85,20,60.84,20A3.56,3.56,0,0,1,57,16.25Zm5.37-.88c-.07-1.11-.64-1.64-1.6-1.64a1.68,1.68,0,0,0-1.68,1.64Z" transform="translate(0)" fill="#262626"/><path d="M67.93,16.24v-.11a3.67,3.67,0,0,1,3.86-3.8,3.63,3.63,0,0,1,3.85,3.75v.12a3.86,3.86,0,0,1-7.71,0Zm5.65,0v-.1c0-1.4-.65-2.24-1.79-2.24S70,14.68,70,16.08v.12c0,1.4.64,2.24,1.79,2.24S73.58,17.6,73.58,16.21Z" transform="translate(0)" fill="#262626"/><path d="M76.79,12.5h2v1.16a2.52,2.52,0,0,1,2.38-1.33c1.44,0,2.47.87,2.47,2.83v4.67h-2V15.46c0-1-.39-1.48-1.28-1.48a1.46,1.46,0,0,0-1.53,1.61v4.24h-2Z" transform="translate(0)" fill="#262626"/><path d="M85.24,9.18h2V19.83h-2Z" transform="translate(0)" fill="#262626"/><path d="M88.8,10.4A1.16,1.16,0,1,1,90,11.5,1.11,1.11,0,0,1,88.8,10.4ZM89,12.5h2v7.33H89Z" transform="translate(0)" fill="#262626"/><path d="M92.62,12.5h2v1.16A2.54,2.54,0,0,1,97,12.33c1.45,0,2.47.87,2.47,2.83v4.67h-2V15.46c0-1-.39-1.48-1.29-1.48a1.46,1.46,0,0,0-1.53,1.61v4.24h-2Z" transform="translate(0)" fill="#262626"/><path d="M100.57,16.25v-.11a3.64,3.64,0,0,1,3.77-3.81,3.38,3.38,0,0,1,3.57,3.73v.56h-5.28a1.76,1.76,0,0,0,1.82,1.92c.94,0,1.4-.41,1.53-1h1.92c-.24,1.59-1.5,2.47-3.5,2.47A3.56,3.56,0,0,1,100.57,16.25Zm5.37-.88c-.07-1.11-.63-1.64-1.6-1.64a1.68,1.68,0,0,0-1.68,1.64Z" transform="translate(0)" fill="#262626"/></g></g></g></svg>