<svg xmlns="http://www.w3.org/2000/svg" viewBox="0 0 728 90"><title>Asset 2</title><g id="Layer_2" data-name="Layer 2"><g id="Rect"><rect width="728" height="90" fill="none"/></g><g id="Why_pay_to_file_if_you_don_t_have_to_" data-name="Why pay to file if you don&apos;t have to?"><path d="M120.46,16.25h6.83l3,14.72,3.17-14.72h6l3.43,14.85,3.2-14.85h6.27l-5.51,23.6h-7.06l-3.63-15-3.67,15h-6.6Z" fill="#fff"/><path d="M154.12,15H160V25.36a6.09,6.09,0,0,1,5.68-3.24c3.33,0,5.64,2.08,5.64,6.51V39.85h-5.91v-10c0-1.95-.76-2.91-2.47-2.91S160,28,160,30.18v9.67h-5.91Z" fill="#fff"/><path d="M179,38.1l-6.9-15.51h6.4l3.57,9.21,3.3-9.21h5.64l-9.24,23h-5.64Z" fill="#fff"/><path d="M198.57,22.59h5.91v2.57a6.09,6.09,0,0,1,5.38-3c4,0,7.29,3,7.29,9v.26c0,5.94-3.26,8.91-7.32,8.91a5.7,5.7,0,0,1-5.35-2.93v8.31h-5.91Zm12.58,8.74v-.26c0-3-1.32-4.49-3.4-4.49s-3.44,1.55-3.44,4.46v.26c0,2.94,1.29,4.42,3.44,4.42S211.15,34.17,211.15,31.33Z" fill="#fff"/><path d="M218.31,35.06c0-4.06,3.43-5.64,9.17-5.64h1.65V29c0-1.65-.39-2.74-2.28-2.74a2.12,2.12,0,0,0-2.34,2H219c.26-4.16,3.53-6.21,8.25-6.21S235,24.07,235,28.66V39.85h-5.75v-2c-.82,1.25-2.34,2.4-5.11,2.4C221.05,40.24,218.31,38.73,218.31,35.06Zm10.82-1.25V32.75h-1.55c-2.38,0-3.43.46-3.43,1.88,0,1,.66,1.62,2,1.62C227.88,36.25,229.13,35.29,229.13,33.81Z" fill="#fff"/><path d="M242.69,38.1,235.8,22.59h6.4l3.56,9.21,3.3-9.21h5.65l-9.24,23h-5.65Z" fill="#fff"/><path d="M263,34.3V26.61h-2.08v-4H263V19h5.91v3.6h3.4v4h-3.4v7.13c0,1.26.63,1.82,1.75,1.82a4.45,4.45,0,0,0,1.68-.3v4.49a12.35,12.35,0,0,1-3.27.49C265.2,40.24,263,38.36,263,34.3Z" fill="#fff"/><path d="M273.65,31.43v-.26c0-5.55,4.12-9,9.47-9s9.4,3.4,9.4,8.88v.27c0,5.61-4.12,9-9.44,9S273.65,37,273.65,31.43Zm12.87-.1v-.26c0-2.9-1.16-4.52-3.4-4.52s-3.43,1.55-3.43,4.45v.27c0,3,1.15,4.58,3.43,4.58S286.52,34.21,286.52,31.33Z" fill="#fff"/><path d="M301.5,26.61h-2.18v-4h2.18V21.07c0-4.29,2.67-6.34,6.76-6.34a10.43,10.43,0,0,1,2.71.37v4.32a5.52,5.52,0,0,0-1.62-.23,1.74,1.74,0,0,0-2,1.88v1.52h3.5v4h-3.5V39.85H301.5Z" fill="#fff"/><path d="M312.72,17.9A3.08,3.08,0,0,1,316,14.83a3.06,3.06,0,1,1,0,6.11A3.06,3.06,0,0,1,312.72,17.9Zm.29,4.69h5.91V39.85H313Z" fill="#fff"/><path d="M322.25,15h5.88V39.85h-5.88Z" fill="#fff"/><path d="M330.37,31.43v-.26c0-5.55,4.13-9,9.34-9,4.72,0,8.78,2.71,8.78,8.92v1.55H336.35c.16,2.27,1.48,3.6,3.59,3.6,1.95,0,2.78-.9,3-2h5.54c-.53,3.89-3.53,6.1-8.75,6.1C334.33,40.24,330.37,37.08,330.37,31.43Zm12.38-2.18c-.1-2.08-1.12-3.23-3-3.23s-3,1.15-3.3,3.23Z" fill="#fff"/><path d="M356.41,17.9a3.08,3.08,0,0,1,3.23-3.07,3.06,3.06,0,1,1,0,6.11A3.06,3.06,0,0,1,356.41,17.9Zm.3,4.69h5.9V39.85h-5.9Z" fill="#fff"/><path d="M366.67,26.61h-2.18v-4h2.18V21.07c0-4.29,2.67-6.34,6.77-6.34a10.35,10.35,0,0,1,2.7.37v4.32a5.45,5.45,0,0,0-1.61-.23,1.73,1.73,0,0,0-2,1.88v1.52H376v4h-3.49V39.85h-5.88Z" fill="#fff"/><path d="M389.44,38.1l-6.9-15.51H389l3.56,9.21,3.3-9.21h5.65l-9.25,23h-5.64Z" fill="#fff"/><path d="M401.12,31.43v-.26c0-5.55,4.13-9,9.47-9S420,25.52,420,31v.27c0,5.61-4.12,9-9.44,9S401.12,37,401.12,31.43Zm12.87-.1v-.26c0-2.9-1.15-4.52-3.4-4.52s-3.43,1.55-3.43,4.45v.27c0,3,1.16,4.58,3.43,4.58S414,34.21,414,31.33Z" fill="#fff"/><path d="M421.94,33.84V22.59h5.91V32.88c0,1.95.76,2.91,2.44,2.91s2.94-1.06,2.94-3.27V22.59h5.91V39.85h-5.91V37.18a5.67,5.67,0,0,1-5.48,3.06C424.42,40.24,421.94,38.2,421.94,33.84Z" fill="#fff"/><path d="M120.89,66.4v-.26c0-5.88,3.24-9,7.33-9A5.6,5.6,0,0,1,133.53,60V50h5.91V74.85h-5.91V72a5.81,5.81,0,0,1-5.38,3.21C124.16,75.25,120.89,72.37,120.89,66.4Zm12.81-.1V66c0-2.91-1.22-4.46-3.4-4.46s-3.4,1.49-3.4,4.49v.26c0,2.91,1.29,4.39,3.33,4.39S133.7,69.24,133.7,66.3Z" fill="#fff"/><path d="M141.52,66.43v-.26c0-5.55,4.12-9.05,9.47-9.05s9.41,3.4,9.41,8.88v.27c0,5.61-4.13,9-9.44,9S141.52,72,141.52,66.43Zm12.87-.1v-.26c0-2.9-1.16-4.52-3.4-4.52s-3.43,1.55-3.43,4.45v.27c0,3,1.15,4.59,3.43,4.59S154.39,69.21,154.39,66.33Z" fill="#fff"/><path d="M162.47,57.59h5.91v2.77a6.09,6.09,0,0,1,5.68-3.24c3.33,0,5.64,2.08,5.64,6.51V74.85h-5.91v-10c0-1.95-.76-2.91-2.47-2.91s-2.94,1.06-2.94,3.27v9.67h-5.91Z" fill="#fff"/><path d="M181.41,51.25h5.78l-.69,9.08h-4.43Z" fill="#fff"/><path d="M190.88,69.3V61.61H188.8v-4h2.08V54h5.91v3.6h3.4v4h-3.4v7.13c0,1.26.63,1.82,1.75,1.82a4.42,4.42,0,0,0,1.68-.3v4.49a12.27,12.27,0,0,1-3.26.5C193.06,75.25,190.88,73.36,190.88,69.3Z" fill="#fff"/><path d="M208.44,50h5.91V60.36A6.09,6.09,0,0,1,220,57.12c3.34,0,5.65,2.08,5.65,6.51V74.85h-5.91v-10c0-1.95-.76-2.91-2.48-2.91s-2.93,1.06-2.93,3.27v9.67h-5.91Z" fill="#fff"/><path d="M227.55,70.06c0-4.06,3.43-5.64,9.17-5.64h1.65V64c0-1.65-.39-2.74-2.28-2.74a2.12,2.12,0,0,0-2.34,2h-5.54c.26-4.16,3.53-6.21,8.25-6.21s7.79,2,7.79,6.54V74.85H238.5v-2a5.65,5.65,0,0,1-5.11,2.42C230.29,75.25,227.55,73.73,227.55,70.06Zm10.82-1.25V67.75h-1.55c-2.38,0-3.43.46-3.43,1.88,0,1,.66,1.62,2,1.62C237.12,71.25,238.37,70.29,238.37,68.81Z" fill="#fff"/><path d="M245.13,57.59h6.31L255,68.71l3.53-11.12h5.64l-6.3,17.26h-6.44Z" fill="#fff"/><path d="M263.84,66.43v-.26c0-5.55,4.13-9.05,9.35-9.05,4.71,0,8.77,2.71,8.77,8.92v1.55H269.82c.16,2.28,1.48,3.6,3.6,3.6,1.94,0,2.77-.9,3-2H282c-.52,3.89-3.53,6.11-8.74,6.11C267.81,75.25,263.84,72.08,263.84,66.43Zm12.38-2.18c-.1-2.08-1.12-3.23-3-3.23s-3,1.15-3.31,3.23Z" fill="#fff"/><path d="M290.81,69.3V61.61h-2.08v-4h2.08V54h5.9v3.6h3.4v4h-3.4v7.13c0,1.26.63,1.82,1.75,1.82a4.5,4.5,0,0,0,1.69-.3v4.49a12.36,12.36,0,0,1-3.27.5C293,75.25,290.81,73.36,290.81,69.3Z" fill="#fff"/><path d="M301.43,66.43v-.26c0-5.55,4.13-9.05,9.47-9.05s9.41,3.4,9.41,8.88v.27c0,5.61-4.13,9-9.44,9S301.43,72,301.43,66.43Zm12.87-.1v-.26c0-2.9-1.15-4.52-3.4-4.52s-3.43,1.55-3.43,4.45v.27c0,3,1.16,4.59,3.43,4.59S314.3,69.21,314.3,66.33Z" fill="#fff"/><path d="M325.16,66.47c0-2.51,1.72-4.1,3.23-5.55,1.13-1.09,2.15-2.08,2.15-3.23a1.76,1.76,0,0,0-2-2c-1.41,0-2.37,1.08-2.6,2.9h-5.75c.17-5,3.73-7.69,8.82-7.69s7.95,2.28,7.95,6.2a6.72,6.72,0,0,1-2.41,5c-1.62,1.61-3.5,2.9-3.79,4.52v.49h-5.58Zm-.76,5.47a3.54,3.54,0,0,1,7.06,0,3.54,3.54,0,0,1-7.06,0Z" fill="#fff"/></g></g></svg>