<svg xmlns="http://www.w3.org/2000/svg" viewBox="0 0 160 600"><title>H3</title><g id="Layer_2" data-name="Layer 2"><g id="Artboard_3" data-name="Artboard 3" style="isolation:isolate"><g id="headline1"><g id="Drop_off_your_docs_and_we_ll_do_the_rest." data-name="Drop  off your docs and we’ll do the rest."><path d="M23.33,116.36h7.22c7.05,0,10.63,3.53,10.63,9.69v.22c0,6.19-3.66,9.94-10.66,9.94H23.33Zm7,15.46c3.38,0,4.88-1.77,4.88-5.47v-.22c0-3.77-1.5-5.38-4.94-5.38H29.05v11.07Z" fill="#fff"/><path d="M43.09,121.69h5v2.89a4.57,4.57,0,0,1,4.69-3.08v4.63c-3-.08-4.69.86-4.69,3.19v6.89h-5Z" fill="#fff"/><path d="M53.64,129.13v-.22c0-4.67,3.47-7.61,8-7.61s7.91,2.86,7.91,7.47V129c0,4.72-3.47,7.55-7.93,7.55S53.64,133.82,53.64,129.13Zm10.82-.08v-.23c0-2.44-1-3.8-2.86-3.8s-2.88,1.31-2.88,3.75V129c0,2.5,1,3.86,2.88,3.86S64.46,131.46,64.46,129.05Z" fill="#fff"/><path d="M71.26,121.69h5v2.17a5.12,5.12,0,0,1,4.52-2.56c3.39,0,6.13,2.56,6.13,7.52v.23c0,5-2.74,7.49-6.16,7.49a4.78,4.78,0,0,1-4.49-2.47v7h-5Zm10.57,7.36v-.23c0-2.55-1.11-3.77-2.86-3.77s-2.88,1.3-2.88,3.75V129c0,2.47,1.08,3.72,2.88,3.72S81.83,131.43,81.83,129.05Z" fill="#fff"/><path d="M22.11,158.88v-.22c0-4.67,3.47-7.61,8-7.61S38,153.91,38,158.52v.22c0,4.72-3.47,7.55-7.94,7.55S22.11,163.57,22.11,158.88Zm10.83-.08v-.23c0-2.44-1-3.8-2.86-3.8s-2.89,1.31-2.89,3.75v.22c0,2.5,1,3.86,2.89,3.86S32.94,161.21,32.94,158.8Z" fill="#fff"/><path d="M40.48,154.83H38.65v-3.39h1.83v-1.11c0-3.61,2.22-5.3,5.67-5.3a8.23,8.23,0,0,1,2.22.28v3.63a4.44,4.44,0,0,0-1.34-.19,1.45,1.45,0,0,0-1.61,1.58v1.11h4.22v-1.28c0-3.6,2.28-5.32,5.69-5.32a8.75,8.75,0,0,1,2.28.3v3.64a4.6,4.6,0,0,0-1.36-.2,1.45,1.45,0,0,0-1.64,1.58v1.28h2.94v3.39H54.61V166h-5V154.83H45.42V166H40.48Z" fill="#fff"/><path d="M68.79,164.49,63,151.44h5.38l3,7.75,2.78-7.75h4.74l-7.77,19.37H66.37Z" fill="#fff"/><path d="M78.61,158.88v-.22c0-4.67,3.47-7.61,8-7.61s7.91,2.86,7.91,7.47v.22c0,4.72-3.47,7.55-7.94,7.55S78.61,163.57,78.61,158.88Zm10.83-.08v-.23c0-2.44-1-3.8-2.86-3.8s-2.89,1.31-2.89,3.75v.22c0,2.5,1,3.86,2.89,3.86S89.44,161.21,89.44,158.8Z" fill="#fff"/><path d="M96.12,160.91v-9.47h5v8.66c0,1.64.64,2.44,2,2.44s2.47-.88,2.47-2.74v-8.36h5V166h-5v-2.25a4.75,4.75,0,0,1-4.6,2.58C98.2,166.29,96.12,164.57,96.12,160.91Z" fill="#fff"/><path d="M113.1,151.44h5v2.89a4.57,4.57,0,0,1,4.69-3.08v4.63c-3-.08-4.69.86-4.69,3.19V166h-5Z" fill="#fff"/><path d="M22.17,188.6v-.22c0-4.94,2.72-7.58,6.16-7.58a4.69,4.69,0,0,1,4.47,2.45v-8.44h5v20.9h-5v-2.36A4.89,4.89,0,0,1,28.27,196C24.92,196,22.17,193.63,22.17,188.6Zm10.77-.08v-.22c0-2.45-1-3.75-2.86-3.75s-2.86,1.25-2.86,3.77v.23c0,2.44,1.08,3.69,2.8,3.69S32.94,191,32.94,188.52Z" fill="#fff"/><path d="M39.51,188.63v-.22c0-4.67,3.47-7.61,8-7.61s7.91,2.86,7.91,7.47v.22c0,4.72-3.47,7.55-7.94,7.55S39.51,193.32,39.51,188.63Zm10.83-.08v-.23c0-2.44-1-3.8-2.86-3.8s-2.89,1.31-2.89,3.75v.22c0,2.5,1,3.86,2.89,3.86S50.34,191,50.34,188.55Z" fill="#fff"/><path d="M56.36,188.63v-.22c0-4.83,3.47-7.61,7.74-7.61,3.55,0,6.83,1.56,7.11,6H66.54a2.15,2.15,0,0,0-2.33-2.11c-1.75,0-2.77,1.25-2.77,3.69v.22c0,2.53,1,3.83,2.85,3.83A2.42,2.42,0,0,0,66.82,190h4.47c-.14,3.66-2.61,6-7.3,6C59.66,196,56.36,193.51,56.36,188.63Z" fill="#fff"/><path d="M72.12,191.1H76.7c.16,1.05.64,1.64,2,1.64,1.22,0,1.78-.47,1.78-1.2s-.7-1-2.69-1.3c-3.89-.5-5.53-1.64-5.53-4.66,0-3.22,2.86-4.78,6.22-4.78,3.58,0,6.08,1.22,6.41,4.69h-4.5a1.62,1.62,0,0,0-1.86-1.44c-1.08,0-1.63.47-1.63,1.14s.66,1,2.44,1.19c4,.5,6,1.56,6,4.66,0,3.45-2.56,5-6.58,5S72.23,194.32,72.12,191.1Z" fill="#fff"/><path d="M22.06,221.43c0-3.41,2.88-4.74,7.71-4.74h1.39v-.34c0-1.38-.33-2.3-1.91-2.3a1.78,1.78,0,0,0-2,1.72H22.61c.22-3.5,3-5.22,6.94-5.22s6.55,1.64,6.55,5.5v9.41H31.27v-1.7a4.75,4.75,0,0,1-4.3,2C24.36,225.79,22.06,224.51,22.06,221.43Zm9.1-1.05v-.89h-1.3c-2,0-2.89.39-2.89,1.58,0,.83.56,1.36,1.72,1.36C30.11,222.43,31.16,221.63,31.16,220.38Z" fill="#fff"/><path d="M38.51,210.94h5v2.33a5.13,5.13,0,0,1,4.78-2.72c2.8,0,4.74,1.75,4.74,5.47v9.44H48V217c0-1.64-.64-2.44-2.08-2.44s-2.47.89-2.47,2.75v8.13h-5Z" fill="#fff"/><path d="M54.69,218.35v-.22c0-4.94,2.72-7.58,6.16-7.58A4.69,4.69,0,0,1,65.32,213v-8.44h5v20.9h-5V223.1a4.88,4.88,0,0,1-4.52,2.69C57.44,225.79,54.69,223.38,54.69,218.35Zm10.77-.08v-.22c0-2.45-1-3.75-2.86-3.75s-2.86,1.25-2.86,3.77v.23c0,2.44,1.08,3.69,2.81,3.69S65.46,220.74,65.46,218.27Z" fill="#fff"/><path d="M76.64,210.94h5.19l2.11,8.69,2.44-8.69h4l2.16,8.69,2.36-8.69h4.72L95,225.46H90.27l-2.17-8.11-2.24,8.11H81Z" fill="#fff"/><path d="M99.48,218.38v-.22c0-4.67,3.47-7.61,7.85-7.61,4,0,7.39,2.28,7.39,7.5v1.3H104.5a2.9,2.9,0,0,0,3,3c1.64,0,2.33-.75,2.52-1.72h4.67c-.45,3.27-3,5.13-7.36,5.13C102.81,225.79,99.48,223.13,99.48,218.38Zm10.41-1.83c-.09-1.75-1-2.72-2.56-2.72s-2.52,1-2.77,2.72Z" fill="#fff"/><path d="M115.21,212.5l2.22-7.25,4.39,1.47-3.8,6.86Z" fill="#fff"/><path d="M123.65,204.56h4.94v20.9h-4.94Z" fill="#fff"/><path d="M131.39,204.56h4.94v20.9h-4.94Z" fill="#fff"/><path d="M22.17,248.1v-.22c0-4.94,2.72-7.58,6.16-7.58a4.69,4.69,0,0,1,4.47,2.45v-8.44h5v20.9h-5v-2.36a4.89,4.89,0,0,1-4.53,2.69C24.92,255.54,22.17,253.13,22.17,248.1ZM32.94,248v-.22c0-2.45-1-3.75-2.86-3.75s-2.86,1.25-2.86,3.77v.23c0,2.44,1.08,3.69,2.8,3.69S32.94,250.49,32.94,248Z" fill="#fff"/><path d="M39.51,248.13v-.22c0-4.67,3.47-7.61,8-7.61s7.91,2.86,7.91,7.47V248c0,4.72-3.47,7.55-7.94,7.55S39.51,252.82,39.51,248.13Zm10.83-.08v-.23c0-2.44-1-3.8-2.86-3.8s-2.89,1.31-2.89,3.75V248c0,2.5,1,3.86,2.89,3.86S50.34,250.46,50.34,248.05Z" fill="#fff"/><path d="M62.85,250.54v-6.46H61.1v-3.39h1.75v-3h5v3h2.86v3.39H67.82v6c0,1.06.53,1.53,1.47,1.53a3.69,3.69,0,0,0,1.41-.25v3.77a10.17,10.17,0,0,1-2.74.42C64.68,255.54,62.85,254,62.85,250.54Z" fill="#fff"/><path d="M72.56,234.31h5V243a5.12,5.12,0,0,1,4.77-2.72c2.81,0,4.75,1.75,4.75,5.47v9.44h-5v-8.44c0-1.64-.64-2.44-2.08-2.44s-2.47.89-2.47,2.75v8.13h-5Z" fill="#fff"/><path d="M88.68,248.13v-.22c0-4.67,3.47-7.61,7.86-7.61,4,0,7.38,2.28,7.38,7.5v1.3H93.71a2.9,2.9,0,0,0,3,3c1.64,0,2.33-.75,2.53-1.72h4.66c-.44,3.27-3,5.13-7.35,5.13C92,255.54,88.68,252.88,88.68,248.13Zm10.41-1.83c-.08-1.75-.94-2.72-2.55-2.72s-2.53,1-2.78,2.72Z" fill="#fff"/><path d="M22.89,270.44h5v2.89a4.56,4.56,0,0,1,4.69-3.08v4.63c-3-.08-4.69.86-4.69,3.19V285h-5Z" fill="#fff"/><path d="M33.44,277.88v-.22c0-4.67,3.46-7.61,7.85-7.61,4,0,7.38,2.28,7.38,7.5v1.3H38.46a2.9,2.9,0,0,0,3,3c1.64,0,2.34-.75,2.53-1.72h4.66c-.44,3.27-3,5.13-7.35,5.13C36.77,285.29,33.44,282.63,33.44,277.88Zm10.4-1.83c-.08-1.75-.94-2.72-2.55-2.72s-2.53,1-2.78,2.72Z" fill="#fff"/><path d="M49.56,280.35h4.58c.16,1,.64,1.64,2,1.64,1.22,0,1.78-.47,1.78-1.2s-.7-1-2.7-1.3c-3.88-.5-5.52-1.64-5.52-4.66,0-3.22,2.86-4.78,6.22-4.78,3.58,0,6.08,1.22,6.41,4.69h-4.5A1.62,1.62,0,0,0,56,273.3c-1.08,0-1.63.47-1.63,1.14s.66,1,2.44,1.19c4,.5,6,1.56,6,4.66,0,3.45-2.56,5-6.58,5S49.67,283.57,49.56,280.35Z" fill="#fff"/><path d="M65.07,280.29v-6.46H63.32v-3.39h1.75v-3h5v3H72.9v3.39H70v6c0,1.06.53,1.53,1.47,1.53a3.69,3.69,0,0,0,1.41-.25v3.77a10.17,10.17,0,0,1-2.74.42C66.9,285.29,65.07,283.71,65.07,280.29Z" fill="#fff"/><path d="M74.59,282.46a2.77,2.77,0,0,1,2.83-2.8,2.8,2.8,0,1,1,0,5.6A2.77,2.77,0,0,1,74.59,282.46Z" fill="#fff"/><rect width="160" height="600" fill="none"/></g></g></g></g></svg>