<svg xmlns="http://www.w3.org/2000/svg" viewBox="0 0 728 90"><title>H33</title><g id="Layer_2" data-name="Layer 2"><g id="Rect"><rect width="728" height="90" fill="none"/></g><g id="H33"><g id="Surprise_fees_Not_with_H_R_Block." data-name="Surprise fees? Not with H&amp;R Block."><path d="M120.61,46.94h5.17c.13,1.35.74,2.46,3,2.46,1.57,0,2.44-.77,2.44-1.88s-.71-1.48-3-1.83c-5.36-.63-7.16-2.22-7.16-6,0-3.42,2.81-5.91,7.34-5.91s7.13,1.91,7.48,5.91h-5a2.15,2.15,0,0,0-2.44-2c-1.46,0-2.2.66-2.2,1.62s.59,1.53,2.94,1.85c4.8.53,7.27,1.78,7.27,5.88,0,3.48-2.76,6.31-7.64,6.31C123.47,53.27,120.77,51.05,120.61,46.94Z" fill="#fff"/><path d="M138,48.13v-9h4.75v8.27c0,1.57.61,2.33,2,2.33s2.36-.84,2.36-2.62v-8h4.74V53h-4.74V50.81a4.56,4.56,0,0,1-4.4,2.46C140,53.27,138,51.63,138,48.13Z" fill="#fff"/><path d="M154.21,39.09H159v2.76a4.35,4.35,0,0,1,4.47-2.94v4.42c-2.88-.08-4.47.82-4.47,3.05V53h-4.75Z" fill="#fff"/><path d="M165.16,39.09h4.74v2.07a4.88,4.88,0,0,1,4.32-2.44c3.23,0,5.86,2.44,5.86,7.18v.22c0,4.77-2.63,7.15-5.89,7.15a4.57,4.57,0,0,1-4.29-2.36v6.68h-4.74Zm10.09,7V45.9c0-2.43-1.06-3.6-2.73-3.6s-2.75,1.24-2.75,3.58v.21c0,2.36,1,3.55,2.75,3.55S175.25,48.4,175.25,46.12Z" fill="#fff"/><path d="M181.8,39.09h4.74v2.76A4.36,4.36,0,0,1,191,38.91v4.42c-2.89-.08-4.48.82-4.48,3.05V53H181.8Z" fill="#fff"/><path d="M192.64,35.33a2.47,2.47,0,0,1,2.59-2.47,2.46,2.46,0,1,1,0,4.91A2.46,2.46,0,0,1,192.64,35.33Zm.23,3.76h4.75V53h-4.75Z" fill="#fff"/><path d="M199.23,48.55h4.38c.16,1,.61,1.57,2,1.57,1.16,0,1.69-.45,1.69-1.14s-.66-1-2.57-1.25c-3.71-.47-5.27-1.56-5.27-4.45,0-3.07,2.73-4.56,5.94-4.56,3.42,0,5.8,1.17,6.12,4.48h-4.29a1.55,1.55,0,0,0-1.78-1.38c-1,0-1.56.45-1.56,1.09s.63.93,2.33,1.14c3.84.48,5.7,1.48,5.7,4.45,0,3.29-2.44,4.77-6.29,4.77S199.34,51.63,199.23,48.55Z" fill="#fff"/><path d="M212.75,46.2V46c0-4.45,3.31-7.26,7.5-7.26,3.79,0,7.05,2.17,7.05,7.16v1.24h-9.75A2.76,2.76,0,0,0,220.43,50c1.57,0,2.23-.71,2.42-1.64h4.45c-.42,3.13-2.84,4.9-7,4.9C215.93,53.27,212.75,50.73,212.75,46.2Zm9.94-1.75c-.08-1.67-.9-2.6-2.44-2.6a2.64,2.64,0,0,0-2.65,2.6Z" fill="#fff"/><path d="M234.48,42.33h-1.75V39.09h1.75V37.87c0-3.44,2.15-5.09,5.43-5.09a8.29,8.29,0,0,1,2.17.3v3.47a4.14,4.14,0,0,0-1.29-.19,1.39,1.39,0,0,0-1.59,1.51v1.22H242v3.24H239.2V53h-4.72Z" fill="#fff"/><path d="M242.38,46.2V46c0-4.45,3.31-7.26,7.5-7.26,3.79,0,7.05,2.17,7.05,7.16v1.24h-9.76A2.77,2.77,0,0,0,250.06,50c1.57,0,2.23-.71,2.41-1.64h4.46c-.43,3.13-2.84,4.9-7,4.9C245.56,53.27,242.38,50.73,242.38,46.2Zm9.93-1.75c-.08-1.67-.9-2.6-2.43-2.6a2.63,2.63,0,0,0-2.65,2.6Z" fill="#fff"/><path d="M257.82,46.2V46c0-4.45,3.32-7.26,7.51-7.26,3.79,0,7.05,2.17,7.05,7.16v1.24h-9.76A2.77,2.77,0,0,0,265.51,50c1.56,0,2.23-.71,2.41-1.64h4.46c-.43,3.13-2.84,4.9-7,4.9C261,53.27,257.82,50.73,257.82,46.2Zm9.94-1.75c-.08-1.67-.9-2.6-2.43-2.6a2.64,2.64,0,0,0-2.66,2.6Z" fill="#fff"/><path d="M273.22,48.55h4.37c.16,1,.61,1.57,2,1.57,1.17,0,1.7-.45,1.7-1.14s-.66-1-2.57-1.25c-3.71-.47-5.27-1.56-5.27-4.45,0-3.07,2.73-4.56,5.93-4.56,3.42,0,5.81,1.17,6.13,4.48h-4.3a1.54,1.54,0,0,0-1.77-1.38c-1,0-1.57.45-1.57,1.09s.64.93,2.33,1.14c3.85.48,5.7,1.48,5.7,4.45,0,3.29-2.44,4.77-6.28,4.77S273.33,51.63,273.22,48.55Z" fill="#fff"/><path d="M289.94,46.22c0-2,1.38-3.28,2.6-4.45.9-.88,1.72-1.67,1.72-2.6a1.41,1.41,0,0,0-1.61-1.59c-1.14,0-1.91.88-2.1,2.33h-4.61c.13-4,3-6.17,7.08-6.17s6.38,1.83,6.38,5a5.39,5.39,0,0,1-1.93,4c-1.3,1.3-2.81,2.33-3.05,3.63v.4h-4.48Zm-.61,4.4a2.84,2.84,0,0,1,5.67,0,2.84,2.84,0,0,1-5.67,0Z" fill="#fff"/><path d="M306.45,34h6.12l6.07,10.69V34h4.75V53h-5.25l-6.92-11.9V53h-4.77Z" fill="#fff"/><path d="M325.29,46.2V46c0-4.45,3.32-7.26,7.61-7.26s7.55,2.73,7.55,7.13v.21c0,4.51-3.31,7.21-7.58,7.21S325.29,50.67,325.29,46.2Zm10.34-.08V45.9c0-2.33-.93-3.63-2.73-3.63s-2.76,1.25-2.76,3.58v.21c0,2.39.93,3.69,2.76,3.69S335.63,48.42,335.63,46.12Z" fill="#fff"/><path d="M342.76,48.5V42.33h-1.67V39.09h1.67V36.2h4.74v2.89h2.73v3.24H347.5v5.72c0,1,.5,1.46,1.41,1.46a3.61,3.61,0,0,0,1.35-.24v3.61a10.41,10.41,0,0,1-2.63.39C344.51,53.27,342.76,51.76,342.76,48.5Z" fill="#fff"/><path d="M355.69,39.09h4.95l2,8.3,2.33-8.3h3.82l2.07,8.3,2.25-8.3h4.5L373.23,53H368.7l-2.07-7.74L364.49,53h-4.61Z" fill="#fff"/><path d="M378.74,35.33a2.62,2.62,0,1,1,2.6,2.44A2.48,2.48,0,0,1,378.74,35.33Zm.24,3.76h4.75V53H379Z" fill="#fff"/><path d="M386.9,48.5V42.33h-1.67V39.09h1.67V36.2h4.75v2.89h2.73v3.24h-2.73v5.72c0,1,.5,1.46,1.4,1.46a3.66,3.66,0,0,0,1.36-.24v3.61a10.48,10.48,0,0,1-2.63.39C388.65,53.27,386.9,51.76,386.9,48.5Z" fill="#fff"/><path d="M396.18,33h4.74v8.32a4.91,4.91,0,0,1,4.56-2.6c2.68,0,4.53,1.67,4.53,5.22v9h-4.74V44.9c0-1.57-.61-2.34-2-2.34s-2.36.85-2.36,2.63V53h-4.74Z" fill="#fff"/><path d="M417.56,34H423v7.24h6.23V34h5.44V53h-5.44V45.48H423V53h-5.46Z" fill="#fff"/><path d="M452.87,49.08,456,53h-6.18l-1.11-1.37a7.56,7.56,0,0,1-5.11,1.69c-4,0-6.66-2.12-6.66-5.72,0-2.44,1.49-4.24,4.16-5.52A6,6,0,0,1,440,38.72c0-3.23,2.75-4.95,6.09-4.95,3,0,5.75,1.51,5.75,4.42,0,2.07-1.21,3.58-3.79,4.69l2.39,2.92,1.38-2.71h4.13Zm-6.58-.55-3-3.61A2.25,2.25,0,0,0,442,47a2.21,2.21,0,0,0,2.42,2.36A2.47,2.47,0,0,0,446.29,48.53Zm-.58-7.64c1.27-.6,1.88-1.32,1.88-2.3a1.37,1.37,0,0,0-1.4-1.46,1.51,1.51,0,0,0-1.57,1.64A3.48,3.48,0,0,0,445.71,40.89Z" fill="#fff"/><path d="M457.74,34h7.42c5,0,7.71,2,7.71,6v.11a5,5,0,0,1-3.42,5L474,53h-5.73l-3.84-6.78h-1.27V53h-5.41Zm7.15,8.64c1.83,0,2.73-.76,2.73-2.3v-.11c0-1.54-.95-2.14-2.7-2.14h-1.77v4.55Z" fill="#fff"/><path d="M480.63,34h8.46c4.48,0,6.39,2,6.39,5v.11a3.91,3.91,0,0,1-3.21,4.08,4.11,4.11,0,0,1,3.79,4.42v.11c0,3.39-2.2,5.27-6.89,5.27h-8.54ZM488,41.53c1.7,0,2.33-.58,2.33-1.93v-.11c0-1.3-.68-1.88-2.33-1.88h-2.07v3.92Zm.19,7.79c1.72,0,2.52-.79,2.52-2.2V47c0-1.43-.77-2.18-2.68-2.18h-2.1v4.48Z" fill="#fff"/><path d="M497.94,33h4.72V53h-4.72Z" fill="#fff"/><path d="M504.46,46.2V46c0-4.45,3.31-7.26,7.6-7.26s7.56,2.73,7.56,7.13v.21c0,4.51-3.32,7.21-7.58,7.21S504.46,50.67,504.46,46.2Zm10.33-.08V45.9c0-2.33-.92-3.63-2.73-3.63s-2.75,1.25-2.75,3.58v.21c0,2.39.92,3.69,2.75,3.69S514.79,48.42,514.79,46.12Z" fill="#fff"/><path d="M520.54,46.2V46c0-4.61,3.31-7.26,7.4-7.26,3.39,0,6.52,1.49,6.78,5.7h-4.45a2,2,0,0,0-2.23-2c-1.67,0-2.65,1.19-2.65,3.52v.21c0,2.41.93,3.66,2.73,3.66a2.3,2.3,0,0,0,2.41-2.31h4.27c-.13,3.5-2.49,5.78-7,5.78C523.7,53.27,520.54,50.86,520.54,46.2Z" fill="#fff"/><path d="M536.34,33h4.74V44.58l3.74-5.49h4.93l-4.54,6.23L550.12,53h-5.3l-3.74-6.07V53h-4.74Z" fill="#fff"/><path d="M551,50.57a2.64,2.64,0,0,1,2.71-2.68,2.68,2.68,0,1,1,0,5.36A2.65,2.65,0,0,1,551,50.57Z" fill="#fff"/></g></g></g></svg>