<svg xmlns="http://www.w3.org/2000/svg" viewBox="0 0 728 90"><title>Asset 6</title><g id="Layer_2" data-name="Layer 2"><g id="rect"><rect width="728" height="90" fill="none"/></g><g id="Still_open._Still_finding_credits_deductions_and_refunds_daily" data-name="Still open. Still finding credits, deductions and refunds daily"><path d="M116.52,34.93H121c.11,1.16.64,2.12,2.57,2.12,1.34,0,2.09-.66,2.09-1.62s-.61-1.27-2.57-1.57c-4.59-.55-6.14-1.91-6.14-5.19,0-2.93,2.41-5.07,6.3-5.07s6.12,1.64,6.42,5.07h-4.32a1.85,1.85,0,0,0-2.1-1.75c-1.25,0-1.89.57-1.89,1.39s.5,1.32,2.53,1.59c4.12.46,6.23,1.53,6.23,5.05,0,3-2.36,5.42-6.55,5.42C119,40.37,116.66,38.46,116.52,34.93Z" fill="#fff"/><path d="M132.13,36.27V31H130.7V28.2h1.43V25.72h4.07V28.2h2.35V31H136.2v4.92a1.09,1.09,0,0,0,1.21,1.25,3,3,0,0,0,1.16-.21V40a8.83,8.83,0,0,1-2.25.34C133.63,40.37,132.13,39.07,132.13,36.27Z" fill="#fff"/><path d="M140,25a2.25,2.25,0,1,1,2.23,2.09A2.13,2.13,0,0,1,140,25Zm.21,3.23h4.07V40.09h-4.07Z" fill="#fff"/><path d="M146.58,23h4V40.09h-4Z" fill="#fff"/><path d="M152.93,23h4V40.09h-4Z" fill="#fff"/><path d="M162.67,34.29v-.18c0-3.82,2.84-6.23,6.53-6.23s6.48,2.34,6.48,6.12v.18c0,3.87-2.84,6.19-6.51,6.19S162.67,38.14,162.67,34.29Zm8.87-.06V34c0-2-.8-3.11-2.34-3.11S166.83,32,166.83,34v.18c0,2,.8,3.16,2.37,3.16S171.54,36.2,171.54,34.23Z" fill="#fff"/><path d="M177.12,28.2h4.07V30a4.19,4.19,0,0,1,3.71-2.09c2.77,0,5,2.09,5,6.16v.19c0,4.09-2.25,6.14-5,6.14a3.91,3.91,0,0,1-3.68-2v5.74h-4.07Zm8.66,6V34c0-2.09-.91-3.09-2.34-3.09S181.07,32,181.07,34v.18c0,2,.89,3,2.37,3S185.78,36.18,185.78,34.23Z" fill="#fff"/><path d="M190.77,34.29v-.18a6.08,6.08,0,0,1,6.44-6.23c3.25,0,6,1.86,6,6.14v1.07h-8.37a2.37,2.37,0,0,0,2.48,2.48c1.34,0,1.91-.61,2.07-1.41h3.82c-.37,2.68-2.44,4.21-6,4.21S190.77,38.18,190.77,34.29Zm8.53-1.5c-.07-1.43-.77-2.23-2.09-2.23a2.27,2.27,0,0,0-2.28,2.23Z" fill="#fff"/><path d="M204.67,28.2h4.07v1.91a4.21,4.21,0,0,1,3.92-2.23c2.29,0,3.89,1.43,3.89,4.48v7.73h-4.08V33.18c0-1.34-.52-2-1.7-2s-2,.72-2,2.25v6.66h-4.07Z" fill="#fff"/><path d="M218.37,38.05a2.27,2.27,0,0,1,2.32-2.3,2.3,2.3,0,1,1,0,4.6A2.27,2.27,0,0,1,218.37,38.05Z" fill="#fff"/><path d="M228.45,34.93h4.43c.12,1.16.64,2.12,2.58,2.12,1.34,0,2.09-.66,2.09-1.62s-.62-1.27-2.57-1.57c-4.6-.55-6.14-1.91-6.14-5.19,0-2.93,2.41-5.07,6.3-5.07s6.12,1.64,6.41,5.07h-4.32a1.85,1.85,0,0,0-2.09-1.75c-1.25,0-1.89.57-1.89,1.39s.5,1.32,2.52,1.59c4.12.46,6.24,1.53,6.24,5.05,0,3-2.37,5.42-6.55,5.42C230.91,40.37,228.58,38.46,228.45,34.93Z" fill="#fff"/><path d="M244.06,36.27V31h-1.44V28.2h1.44V25.72h4.07V28.2h2.34V31h-2.34v4.92a1.09,1.09,0,0,0,1.21,1.25,3.07,3.07,0,0,0,1.16-.21V40a8.92,8.92,0,0,1-2.26.34C245.56,40.37,244.06,39.07,244.06,36.27Z" fill="#fff"/><path d="M251.93,25a2.25,2.25,0,1,1,2.23,2.09A2.13,2.13,0,0,1,251.93,25Zm.2,3.23h4.08V40.09h-4.08Z" fill="#fff"/><path d="M258.51,23h4.05V40.09h-4.05Z" fill="#fff"/><path d="M264.85,23h4V40.09h-4Z" fill="#fff"/><path d="M275.84,31h-1.5V28.2h1.5V27.15c0-3,1.85-4.37,4.67-4.37a7.47,7.47,0,0,1,1.86.25v3a3.73,3.73,0,0,0-1.11-.16,1.2,1.2,0,0,0-1.37,1.3V28.2h2.42V31h-2.42v9.12h-4.05Z" fill="#fff"/><path d="M283.58,25a2.25,2.25,0,1,1,2.23,2.09A2.13,2.13,0,0,1,283.58,25Zm.2,3.23h4.08V40.09h-4.08Z" fill="#fff"/><path d="M290,28.2h4.07v1.91A4.21,4.21,0,0,1,298,27.88c2.3,0,3.89,1.43,3.89,4.48v7.73h-4.07V33.18c0-1.34-.53-2-1.71-2s-2,.72-2,2.25v6.66H290Z" fill="#fff"/><path d="M303.31,34.27v-.18c0-4.05,2.23-6.21,5.05-6.21a3.85,3.85,0,0,1,3.66,2V23h4.07V40.09H312V38.16a4,4,0,0,1-3.71,2.21C305.56,40.37,303.31,38.39,303.31,34.27Zm8.82-.07V34c0-2-.84-3.07-2.34-3.07s-2.34,1-2.34,3.09v.19c0,2,.89,3,2.3,3S312.13,36.23,312.13,34.2Z" fill="#fff"/><path d="M318.07,25a2.25,2.25,0,1,1,2.23,2.09A2.13,2.13,0,0,1,318.07,25Zm.21,3.23h4.07V40.09h-4.07Z" fill="#fff"/><path d="M324.54,28.2h4.07v1.91a4.2,4.2,0,0,1,3.91-2.23c2.3,0,3.89,1.43,3.89,4.48v7.73h-4.07V33.18c0-1.34-.52-2-1.71-2s-2,.72-2,2.25v6.66h-4.07Z" fill="#fff"/><path d="M337.73,40.09h4c.19.87.71,1.55,2.19,1.55a2.24,2.24,0,0,0,2.52-2.5V37.32a4.16,4.16,0,0,1-3.68,2.18c-2.78,0-5.05-2-5.05-5.71v-.18c0-3.5,2.25-5.73,5.05-5.73a3.85,3.85,0,0,1,3.68,2V28.2h4.08V39.09c0,3.55-2.35,5.42-6.6,5.42C339.92,44.51,338.05,42.8,337.73,40.09Zm8.88-6.32v-.16c0-1.64-.84-2.68-2.35-2.68s-2.34,1.07-2.34,2.7v.19c0,1.63.86,2.68,2.32,2.68S346.61,35.45,346.61,33.77Z" fill="#fff"/><path d="M356.14,34.29v-.18c0-4,2.84-6.23,6.35-6.23,2.91,0,5.59,1.27,5.82,4.89h-3.82A1.76,1.76,0,0,0,362.58,31c-1.43,0-2.28,1-2.28,3v.18c0,2.07.8,3.14,2.35,3.14a2,2,0,0,0,2.07-2h3.66c-.11,3-2.14,5-6,5C358.85,40.37,356.14,38.3,356.14,34.29Z" fill="#fff"/><path d="M369.7,28.2h4.07v2.36A3.76,3.76,0,0,1,377.62,28v3.8c-2.48-.07-3.85.7-3.85,2.61v5.64H369.7Z" fill="#fff"/><path d="M378.35,34.29v-.18a6.08,6.08,0,0,1,6.44-6.23c3.25,0,6,1.86,6,6.14v1.07h-8.37A2.37,2.37,0,0,0,385,37.57c1.34,0,1.91-.61,2.07-1.41h3.82c-.36,2.68-2.43,4.21-6,4.21S378.35,38.18,378.35,34.29Zm8.53-1.5c-.07-1.43-.77-2.23-2.09-2.23a2.27,2.27,0,0,0-2.28,2.23Z" fill="#fff"/><path d="M391.66,34.27v-.18c0-4.05,2.23-6.21,5-6.21a3.84,3.84,0,0,1,3.66,2V23h4.08V40.09h-4.08V38.16a4,4,0,0,1-3.71,2.21C393.91,40.37,391.66,38.39,391.66,34.27Zm8.83-.07V34c0-2-.85-3.07-2.35-3.07S395.8,32,395.8,34v.19c0,2,.89,3,2.3,3S400.49,36.23,400.49,34.2Z" fill="#fff"/><path d="M406.43,25a2.12,2.12,0,0,1,2.23-2.12,2.11,2.11,0,1,1,0,4.21A2.11,2.11,0,0,1,406.43,25Zm.2,3.23h4.07V40.09h-4.07Z" fill="#fff"/><path d="M413.43,36.27V31H412V28.2h1.43V25.72h4.08V28.2h2.34V31h-2.34v4.92c0,.86.43,1.25,1.2,1.25a3,3,0,0,0,1.16-.21V40a8.76,8.76,0,0,1-2.25.34C414.94,40.37,413.43,39.07,413.43,36.27Z" fill="#fff"/><path d="M420.76,36.32h3.76c.13.86.52,1.34,1.68,1.34,1,0,1.46-.39,1.46-1s-.57-.84-2.21-1.07c-3.19-.41-4.53-1.34-4.53-3.82,0-2.64,2.34-3.91,5.1-3.91,2.93,0,5,1,5.25,3.84h-3.68a1.33,1.33,0,0,0-1.53-1.18c-.88,0-1.34.39-1.34.93s.55.8,2,1c3.3.41,4.89,1.27,4.89,3.82,0,2.82-2.09,4.1-5.39,4.1S420.85,39,420.76,36.32Z" fill="#fff"/><path d="M432.09,41.94,434,36l3.78,1.35-3.28,5.57Z" fill="#fff"/><path d="M443.11,34.27v-.18c0-4.05,2.23-6.21,5.05-6.21a3.85,3.85,0,0,1,3.66,2V23h4.07V40.09h-4.07V38.16a4,4,0,0,1-3.71,2.21C445.36,40.37,443.11,38.39,443.11,34.27Zm8.82-.07V34c0-2-.84-3.07-2.34-3.07s-2.34,1-2.34,3.09v.19c0,2,.88,3,2.29,3S451.93,36.23,451.93,34.2Z" fill="#fff"/><path d="M457.33,34.29v-.18a6.08,6.08,0,0,1,6.44-6.23c3.25,0,6.05,1.86,6.05,6.14v1.07h-8.37a2.37,2.37,0,0,0,2.48,2.48c1.34,0,1.91-.61,2.07-1.41h3.82c-.36,2.68-2.44,4.21-6,4.21S457.33,38.18,457.33,34.29Zm8.53-1.5c-.07-1.43-.77-2.23-2.09-2.23a2.27,2.27,0,0,0-2.28,2.23Z" fill="#fff"/><path d="M470.64,34.27v-.18c0-4.05,2.23-6.21,5.05-6.21a3.85,3.85,0,0,1,3.66,2V23h4.07V40.09h-4.07V38.16a4,4,0,0,1-3.71,2.21C472.89,40.37,470.64,38.39,470.64,34.27Zm8.83-.07V34c0-2-.85-3.07-2.35-3.07s-2.34,1-2.34,3.09v.19c0,2,.89,3,2.3,3S479.47,36.23,479.47,34.2Z" fill="#fff"/><path d="M485.41,36V28.2h4.07v7.09c0,1.35.52,2,1.68,2s2-.73,2-2.26V28.2h4.07V40.09h-4.07V38.25a3.92,3.92,0,0,1-3.78,2.12C487.11,40.37,485.41,39,485.41,36Z" fill="#fff"/><path d="M498.69,34.29v-.18A6,6,0,0,1,505,27.88c2.91,0,5.6,1.27,5.83,4.89H507A1.75,1.75,0,0,0,505.13,31c-1.43,0-2.27,1-2.27,3v.18c0,2.07.79,3.14,2.34,3.14a2,2,0,0,0,2.07-2h3.66c-.11,3-2.13,5-6,5C501.4,40.37,498.69,38.3,498.69,34.29Z" fill="#fff"/><path d="M512.8,36.27V31h-1.43V28.2h1.43V25.72h4.08V28.2h2.34V31h-2.34v4.92c0,.86.43,1.25,1.2,1.25a3,3,0,0,0,1.16-.21V40a8.83,8.83,0,0,1-2.25.34C514.3,40.37,512.8,39.07,512.8,36.27Z" fill="#fff"/><path d="M520.68,25a2.12,2.12,0,0,1,2.23-2.12,2.11,2.11,0,1,1,0,4.21A2.11,2.11,0,0,1,520.68,25Zm.2,3.23H525V40.09h-4.07Z" fill="#fff"/><path d="M526.5,34.29v-.18c0-3.82,2.84-6.23,6.53-6.23s6.48,2.34,6.48,6.12v.18c0,3.87-2.84,6.19-6.5,6.19S526.5,38.14,526.5,34.29Zm8.87-.06V34c0-2-.79-3.11-2.34-3.11S530.66,32,530.66,34v.18c0,2,.8,3.16,2.37,3.16S535.37,36.2,535.37,34.23Z" fill="#fff"/><path d="M541,28.2H545v1.91a4.21,4.21,0,0,1,3.91-2.23c2.3,0,3.9,1.43,3.9,4.48v7.73h-4.08V33.18c0-1.34-.52-2-1.7-2s-2,.72-2,2.25v6.66H541Z" fill="#fff"/><path d="M554,36.32h3.75c.14.86.53,1.34,1.69,1.34,1,0,1.45-.39,1.45-1s-.57-.84-2.2-1.07c-3.19-.41-4.53-1.34-4.53-3.82,0-2.64,2.34-3.91,5.1-3.91,2.93,0,5,1,5.25,3.84h-3.69a1.32,1.32,0,0,0-1.52-1.18c-.89,0-1.34.39-1.34.93s.54.8,2,1c3.3.41,4.89,1.27,4.89,3.82,0,2.82-2.09,4.1-5.39,4.1S554.1,39,554,36.32Z" fill="#fff"/><path d="M116.52,62.66c0-2.8,2.37-3.89,6.33-3.89H124V58.5c0-1.14-.28-1.89-1.57-1.89A1.46,1.46,0,0,0,120.8,58H117c.18-2.87,2.43-4.28,5.69-4.28S128,55.08,128,58.25V66h-4V64.57a3.91,3.91,0,0,1-3.53,1.66C118.41,66.23,116.52,65.19,116.52,62.66ZM124,61.8v-.73h-1.07c-1.64,0-2.37.32-2.37,1.29,0,.69.46,1.12,1.41,1.12C123.12,63.48,124,62.82,124,61.8Z" fill="#fff"/><path d="M130,54.06h4.07V56A4.2,4.2,0,0,1,138,53.74c2.3,0,3.89,1.43,3.89,4.48V66h-4.07V59c0-1.34-.52-2-1.71-2s-2,.73-2,2.25V66H130Z" fill="#fff"/><path d="M143.28,60.13V60c0-4.05,2.23-6.21,5.05-6.21a3.85,3.85,0,0,1,3.66,2V48.83h4.08V66H152V64a4,4,0,0,1-3.7,2.2C145.53,66.23,143.28,64.25,143.28,60.13Zm8.83-.06v-.19c0-2-.84-3.07-2.34-3.07s-2.35,1-2.35,3.1v.18c0,2,.89,3,2.3,3S152.11,62.09,152.11,60.07Z" fill="#fff"/><path d="M162.28,54.06h4.07v2.37a3.75,3.75,0,0,1,3.85-2.53v3.8c-2.48-.07-3.85.71-3.85,2.62V66h-4.07Z" fill="#fff"/><path d="M170.93,60.16V60a6.09,6.09,0,0,1,6.44-6.24c3.25,0,6,1.87,6,6.14V61h-8.37a2.37,2.37,0,0,0,2.48,2.48c1.34,0,1.91-.61,2.07-1.41h3.82c-.37,2.69-2.44,4.21-6,4.21S170.93,64.05,170.93,60.16Zm8.53-1.5c-.07-1.44-.77-2.23-2.09-2.23a2.27,2.27,0,0,0-2.28,2.23Z" fill="#fff"/><path d="M185.44,56.84h-1.5V54.06h1.5V53c0-2.95,1.85-4.36,4.67-4.36a7,7,0,0,1,1.86.25v3a3.73,3.73,0,0,0-1.11-.16A1.19,1.19,0,0,0,189.49,53v1.05h2.42v2.78h-2.42V66h-4.05Z" fill="#fff"/><path d="M193.18,61.82V54.06h4.07v7.1c0,1.34.53,2,1.69,2s2-.73,2-2.25V54.06H205V66H201V64.12a3.92,3.92,0,0,1-3.77,2.11C194.89,66.23,193.18,64.82,193.18,61.82Z" fill="#fff"/><path d="M207.1,54.06h4.08V56a4.18,4.18,0,0,1,3.91-2.23c2.3,0,3.89,1.43,3.89,4.48V66h-4.07V59c0-1.34-.52-2-1.71-2s-2,.73-2,2.25V66H207.1Z" fill="#fff"/><path d="M220.37,60.13V60c0-4.05,2.23-6.21,5-6.21a3.85,3.85,0,0,1,3.66,2V48.83h4.08V66h-4.08V64a4,4,0,0,1-3.7,2.2C222.62,66.23,220.37,64.25,220.37,60.13Zm8.83-.06v-.19c0-2-.84-3.07-2.35-3.07s-2.34,1-2.34,3.1v.18c0,2,.89,3,2.3,3S229.2,62.09,229.2,60.07Z" fill="#fff"/><path d="M234.43,62.18h3.76c.13.87.52,1.34,1.68,1.34,1,0,1.46-.38,1.46-1s-.57-.85-2.21-1.07c-3.19-.41-4.53-1.35-4.53-3.82,0-2.64,2.35-3.92,5.1-3.92,2.93,0,5,1,5.25,3.85h-3.68a1.33,1.33,0,0,0-1.53-1.19c-.88,0-1.34.39-1.34.94s.55.79,2,1c3.3.41,4.9,1.28,4.9,3.83,0,2.82-2.1,4.09-5.4,4.09S234.52,64.82,234.43,62.18Z" fill="#fff"/><path d="M250.16,60.13V60c0-4.05,2.22-6.21,5.05-6.21a3.86,3.86,0,0,1,3.66,2V48.83h4.07V66h-4.07V64a4,4,0,0,1-3.71,2.2C252.41,66.23,250.16,64.25,250.16,60.13Zm8.82-.06v-.19c0-2-.84-3.07-2.34-3.07s-2.34,1-2.34,3.1v.18c0,2,.88,3,2.29,3S259,62.09,259,60.07Z" fill="#fff"/><path d="M264.33,62.66c0-2.8,2.37-3.89,6.33-3.89h1.13V58.5c0-1.14-.27-1.89-1.57-1.89A1.46,1.46,0,0,0,268.61,58h-3.82c.18-2.87,2.43-4.28,5.68-4.28s5.37,1.34,5.37,4.51V66h-4V64.57a3.87,3.87,0,0,1-3.52,1.66C266.22,66.23,264.33,65.19,264.33,62.66Zm7.46-.86v-.73h-1.07c-1.63,0-2.36.32-2.36,1.29,0,.69.45,1.12,1.41,1.12A1.79,1.79,0,0,0,271.79,61.8Z" fill="#fff"/><path d="M277.73,50.83A2.25,2.25,0,1,1,280,52.92,2.11,2.11,0,0,1,277.73,50.83Zm.21,3.23H282V66h-4.07Z" fill="#fff"/><path d="M284.31,48.83h4.05V66h-4.05Z" fill="#fff"/><path d="M294.27,64.75l-4.75-10.69h4.41l2.46,6.35,2.27-6.35h3.9l-6.37,15.88h-3.9Z" fill="#fff"/><path d="M301.69,63.91a2.27,2.27,0,0,1,2.32-2.3,2.3,2.3,0,1,1,0,4.6A2.27,2.27,0,0,1,301.69,63.91Z" fill="#fff"/></g></g></svg>