<svg xmlns="http://www.w3.org/2000/svg" viewBox="0 0 153 35"><title>try_ddo</title><g id="Layer_2" data-name="Layer 2"><g id="Rectangle_1" data-name="Rectangle 1" style="isolation:isolate"><g id="Rectangle_1-2" data-name="Rectangle 1"><rect width="153" height="35" fill="none"/></g></g><g id="Try_Digital_Drop-Off" data-name="Try Digital Drop-Off"><path d="M14.55,13.56H11.79v-1.8h7.85v1.8H16.88V22H14.55Z" transform="translate(0)" fill="#262626"/><path d="M20.2,14.5h2.08v1.43a2.44,2.44,0,0,1,2.41-1.54v1.93c-1.53,0-2.41.48-2.41,1.91V22H20.2Z" transform="translate(0)" fill="#262626"/><path d="M28.2,21.22l-3-6.72h2.23L29.27,19l1.67-4.49h2l-4.05,10h-2Z" transform="translate(0)" fill="#262626"/><path d="M37,11.76h3.35c3.59,0,5.36,1.94,5.36,5v.12c0,3.05-1.79,5.1-5.38,5.1H37Zm3.26,8.42c2.06,0,3-1.16,3-3.28v-.11c0-2.1-.9-3.23-3.06-3.23H39.3v6.62Z" transform="translate(0)" fill="#262626"/><path d="M46.87,12.36A1.18,1.18,0,1,1,48,13.49,1.13,1.13,0,0,1,46.87,12.36ZM47,14.5h2.06V22H47Z" transform="translate(0)" fill="#262626"/><path d="M50.37,22.14h2.06c.13.65.6,1.08,1.66,1.08A1.66,1.66,0,0,0,56,21.39V20.26a2.8,2.8,0,0,1-2.4,1.39,3.28,3.28,0,0,1-3.26-3.57V18a3.38,3.38,0,0,1,3.29-3.65A2.5,2.5,0,0,1,56,15.62V14.5H58v6.89c0,2.22-1.48,3.35-3.94,3.35S50.57,23.68,50.37,22.14ZM56,18.05V18c0-1.28-.67-2-1.8-2s-1.8.83-1.8,2.06v.12a1.79,1.79,0,0,0,1.76,2A1.83,1.83,0,0,0,56,18.05Z" transform="translate(0)" fill="#262626"/><path d="M59.55,12.36a1.18,1.18,0,1,1,1.18,1.13A1.13,1.13,0,0,1,59.55,12.36Zm.16,2.14h2.06V22H59.71Z" transform="translate(0)" fill="#262626"/><path d="M63.77,19.76V16h-1V14.5h1V12.89h2.06V14.5H67.4V16H65.83v3.61c0,.6.3.88.83.88a2,2,0,0,0,.79-.14v1.6a3.79,3.79,0,0,1-1.26.2A2.14,2.14,0,0,1,63.77,19.76Z" transform="translate(0)" fill="#262626"/><path d="M68.19,19.91c0-1.75,1.6-2.41,3.89-2.41h.84v-.3c0-.88-.27-1.37-1.21-1.37a1.12,1.12,0,0,0-1.27,1.06h-2c.13-1.77,1.53-2.56,3.36-2.56S75,15.07,75,17.1V22H73v-.9a2.54,2.54,0,0,1-2.26,1.06A2.2,2.2,0,0,1,68.19,19.91Zm4.73-.55v-.63h-.8c-1.2,0-1.9.26-1.9,1.06,0,.54.33.9,1.09.9S72.92,20.19,72.92,19.36Z" transform="translate(0)" fill="#262626"/><path d="M76.59,11.11h2.06V22H76.59Z" transform="translate(0)" fill="#262626"/><path d="M83.47,11.76h3.34c3.59,0,5.37,1.94,5.37,5v.12c0,3.05-1.79,5.1-5.38,5.1H83.47Zm3.26,8.42c2.06,0,3-1.16,3-3.28v-.11c0-2.1-.9-3.23-3.06-3.23h-.91v6.62Z" transform="translate(0)" fill="#262626"/><path d="M93.45,14.5h2.08v1.43a2.44,2.44,0,0,1,2.41-1.54v1.93c-1.53,0-2.41.48-2.41,1.91V22H93.45Z" transform="translate(0)" fill="#262626"/><path d="M98.5,18.32v-.11a3.76,3.76,0,0,1,4-3.88,3.71,3.71,0,0,1,3.93,3.83v.12a3.94,3.94,0,0,1-7.88,0Zm5.78,0v-.1c0-1.43-.67-2.29-1.83-2.29s-1.83.83-1.83,2.26v.12c0,1.43.66,2.28,1.83,2.28S104.28,19.71,104.28,18.29Z" transform="translate(0)" fill="#262626"/><path d="M107.56,14.5h2.07v1.17A2.8,2.8,0,0,1,112,14.33c1.83,0,3.26,1.36,3.26,3.83v.12c0,2.47-1.4,3.86-3.26,3.86a2.64,2.64,0,0,1-2.39-1.3v3.68h-2.07Zm5.62,3.79v-.11c0-1.52-.75-2.26-1.79-2.26s-1.83.75-1.83,2.26v.11c0,1.5.72,2.23,1.84,2.23S113.18,19.75,113.18,18.29Z" transform="translate(0)" fill="#262626"/><path d="M116.31,17.13H120v1.65h-3.66Z" transform="translate(0)" fill="#262626"/><path d="M121.11,16.93v-.11a5.06,5.06,0,0,1,5.26-5.21,5,5,0,0,1,5.26,5.15v.12a5,5,0,0,1-5.28,5.26A5,5,0,0,1,121.11,16.93Zm8.1,0v-.11c0-2-1.06-3.35-2.84-3.35s-2.85,1.31-2.85,3.36v.12c0,2.09,1.2,3.37,2.88,3.37S129.21,19,129.21,16.9Z" transform="translate(0)" fill="#262626"/><path d="M133.35,16h-1V14.5h1v-.77A2.39,2.39,0,0,1,136,11.11a3.33,3.33,0,0,1,1.06.16v1.54a3,3,0,0,0-.75-.11c-.64,0-.91.4-.91,1v.81h2.44v-.86A2.39,2.39,0,0,1,140.53,11a3.43,3.43,0,0,1,1.07.14v1.56a2.31,2.31,0,0,0-.76-.13.86.86,0,0,0-.93,1v.91h1.63V16h-1.63v6h-2.06V16h-2.44v6h-2.06Z" transform="translate(0)" fill="#262626"/></g></g></svg>