<svg xmlns="http://www.w3.org/2000/svg" viewBox="0 0 300 600"><title>H2</title><g id="Layer_2" data-name="Layer 2"><g id="Rect"><rect width="300" height="600" fill="none"/></g><g id="Get_expert_tax_prep_without_the_office_visit._Call_your_tax_pro" data-name="Get expert tax prep without the office visit. Call your tax pro"><path d="M20.34,112.24v-.35c0-9.43,6.92-15.78,16.22-15.78,7.3,0,13.79,3.33,14.4,11.37H42.18c-.43-2.9-2.29-4.41-5.58-4.41-4.37,0-7,3.37-7,9v.35c0,5,1.86,8.9,7.23,8.9,4.32,0,6-2.2,6.14-4.67h-5.8v-6.18H51.69v3.81c0,7.87-5.14,13.79-15.13,13.79C26.05,128,20.34,121.49,20.34,112.24Z" fill="#fff"/><path d="M53.47,116.47v-.34c0-7.27,5.41-11.85,12.24-11.85,6.18,0,11.5,3.55,11.5,11.68v2H61.3c.21,3,1.94,4.71,4.71,4.71,2.55,0,3.63-1.17,3.94-2.68h7.26c-.69,5.1-4.63,8-11.46,8C58.66,128,53.47,123.87,53.47,116.47Zm16.22-2.85c-.13-2.72-1.47-4.24-4-4.24-2.34,0-3.94,1.52-4.33,4.24Z" fill="#fff"/><path d="M80.93,120.24V110.16H78.21v-5.28h2.72v-4.71h7.74v4.71h4.46v5.28H88.67v9.34c0,1.64.82,2.38,2.29,2.38a5.89,5.89,0,0,0,2.21-.39v5.88a16.14,16.14,0,0,1-4.28.65C83.79,128,80.93,125.56,80.93,120.24Z" fill="#fff"/><path d="M102.73,116.47v-.34c0-7.27,5.41-11.85,12.24-11.85,6.18,0,11.5,3.55,11.5,11.68v2H110.56c.21,3,1.94,4.71,4.71,4.71,2.55,0,3.63-1.17,3.94-2.68h7.26c-.69,5.1-4.63,8-11.46,8C107.92,128,102.73,123.87,102.73,116.47ZM119,113.62c-.13-2.72-1.47-4.24-4-4.24-2.34,0-3.94,1.52-4.33,4.24Z" fill="#fff"/><path d="M133.65,116l-7.05-11.12h8.91l3.5,6,3.42-6h8l-7.14,10.51,7.83,12.11h-8.91l-4-6.75L134,127.5h-7.91Z" fill="#fff"/><path d="M153.25,104.88H161v3.38a8,8,0,0,1,7-4c5.28,0,9.56,4,9.56,11.72v.34c0,7.79-4.28,11.68-9.6,11.68-3.41,0-5.88-1.6-7-3.85v10.9h-7.74Zm16.47,11.46V116c0-4-1.73-5.88-4.45-5.88s-4.5,2-4.5,5.84v.34c0,3.85,1.69,5.8,4.5,5.8S169.72,120.06,169.72,116.34Z" fill="#fff"/><path d="M179.2,116.47v-.34c0-7.27,5.4-11.85,12.23-11.85,6.19,0,11.51,3.55,11.51,11.68v2H187c.22,3,1.95,4.71,4.72,4.71,2.55,0,3.63-1.17,3.93-2.68h7.27c-.7,5.1-4.63,8-11.46,8C184.38,128,179.2,123.87,179.2,116.47Zm16.21-2.85c-.13-2.72-1.47-4.24-4-4.24-2.33,0-3.93,1.52-4.32,4.24Z" fill="#fff"/><path d="M205.62,104.88h7.74v4.5a7.14,7.14,0,0,1,7.31-4.8v7.22c-4.71-.13-7.31,1.34-7.31,5V127.5h-7.74Z" fill="#fff"/><path d="M224.87,120.24V110.16h-2.73v-5.28h2.73v-4.71h7.74v4.71h4.45v5.28h-4.45v9.34c0,1.64.82,2.38,2.29,2.38a5.87,5.87,0,0,0,2.2-.39v5.88a16.14,16.14,0,0,1-4.28.65C227.72,128,224.87,125.56,224.87,120.24Z" fill="#fff"/><path d="M22.33,167.49V157.41H19.61v-5.28h2.72v-4.71h7.74v4.71h4.45v5.28H30.07v9.34c0,1.64.82,2.38,2.29,2.38a5.89,5.89,0,0,0,2.21-.39v5.88a16.28,16.28,0,0,1-4.28.65C25.18,175.27,22.33,172.81,22.33,167.49Z" fill="#fff"/><path d="M36.26,168.48c0-5.32,4.49-7.39,12-7.39h2.16v-.52c0-2.17-.52-3.59-3-3.59a2.77,2.77,0,0,0-3.07,2.68H37.12c.35-5.45,4.63-8.13,10.81-8.13s10.21,2.55,10.21,8.56v14.66H50.61v-2.64c-1.08,1.65-3.07,3.16-6.7,3.16C39.85,175.27,36.26,173.28,36.26,168.48Zm14.18-1.64v-1.39h-2c-3.12,0-4.5.61-4.5,2.47,0,1.3.87,2.12,2.68,2.12C48.8,170,50.44,168.78,50.44,166.84Z" fill="#fff"/><path d="M67.61,163.25l-7-11.12h8.91l3.5,6,3.42-6h8l-7.14,10.51L85,174.75H76.13l-4-6.75L68,174.75H60.09Z" fill="#fff"/><path d="M95.07,152.13h7.75v3.38a8,8,0,0,1,7-4c5.28,0,9.56,4,9.56,11.72v.34c0,7.79-4.28,11.68-9.6,11.68-3.42,0-5.88-1.6-7-3.85v10.9H95.07Zm16.48,11.46v-.34c0-4-1.73-5.88-4.45-5.88s-4.5,2-4.5,5.84v.34c0,3.85,1.69,5.8,4.5,5.8S111.55,167.31,111.55,163.59Z" fill="#fff"/><path d="M122.24,152.13H130v4.5a7.12,7.12,0,0,1,7.3-4.8v7.22c-4.71-.13-7.3,1.34-7.3,5v10.72h-7.74Z" fill="#fff"/><path d="M138.67,163.72v-.34c0-7.27,5.41-11.85,12.24-11.85,6.18,0,11.5,3.55,11.5,11.68v2H146.5c.21,3,1.94,4.71,4.71,4.71,2.55,0,3.63-1.17,3.94-2.68h7.26c-.69,5.1-4.63,8-11.46,8C143.86,175.27,138.67,171.12,138.67,163.72Zm16.22-2.85c-.13-2.72-1.47-4.24-4-4.24-2.34,0-3.94,1.52-4.33,4.24Z" fill="#fff"/><path d="M165.1,152.13h7.74v3.38a8,8,0,0,1,7-4c5.28,0,9.56,4,9.56,11.72v.34c0,7.79-4.28,11.68-9.6,11.68-3.41,0-5.88-1.6-7-3.85v10.9H165.1Zm16.47,11.46v-.34c0-4-1.73-5.88-4.45-5.88s-4.5,2-4.5,5.84v.34c0,3.85,1.69,5.8,4.5,5.8S181.57,167.31,181.57,163.59Z" fill="#fff"/><path d="M19.39,199.38h8.09l3.28,13.54,3.81-13.54h6.22l3.38,13.54,3.67-13.54h7.35L48,222h-7.4l-3.37-12.63L33.75,222H26.22Z" fill="#fff"/><path d="M57,193.24a4.26,4.26,0,1,1,4.23,4A4,4,0,0,1,57,193.24Zm.38,6.14h7.75V222H57.4Z" fill="#fff"/><path d="M70.34,214.74V204.66H67.61v-5.28h2.73v-4.71h7.74v4.71h4.45v5.28H78.08V214c0,1.64.82,2.38,2.29,2.38a5.87,5.87,0,0,0,2.2-.39v5.88a16.14,16.14,0,0,1-4.28.65C73.19,222.52,70.34,220.06,70.34,214.74Z" fill="#fff"/><path d="M85.47,189.44h7.74V203a8,8,0,0,1,7.44-4.24c4.37,0,7.4,2.72,7.4,8.52V222h-7.74V208.85c0-2.55-1-3.8-3.25-3.8s-3.85,1.38-3.85,4.28V222H85.47Z" fill="#fff"/><path d="M110.6,211v-.34c0-7.27,5.41-11.85,12.41-11.85s12.33,4.45,12.33,11.63v.35c0,7.35-5.41,11.76-12.37,11.76S110.6,218.28,110.6,211Zm16.87-.13v-.34c0-3.81-1.52-5.93-4.46-5.93s-4.49,2-4.49,5.84v.35c0,3.89,1.51,6,4.49,6S127.47,214.61,127.47,210.84Z" fill="#fff"/><path d="M137.89,214.13V199.38h7.74v13.5c0,2.55,1,3.8,3.2,3.8s3.85-1.38,3.85-4.28v-13h7.74V222h-7.74v-3.5c-1.21,2.33-3.41,4-7.18,4C141.14,222.52,137.89,219.84,137.89,214.13Z" fill="#fff"/><path d="M165.4,214.74V204.66h-2.73v-5.28h2.73v-4.71h7.74v4.71h4.45v5.28h-4.45V214c0,1.64.82,2.38,2.29,2.38a5.92,5.92,0,0,0,2.21-.39v5.88a16.28,16.28,0,0,1-4.28.65C168.25,222.52,165.4,220.06,165.4,214.74Z" fill="#fff"/><path d="M189.44,214.74V204.66h-2.72v-5.28h2.72v-4.71h7.75v4.71h4.45v5.28h-4.45V214c0,1.64.82,2.38,2.29,2.38a5.87,5.87,0,0,0,2.2-.39v5.88a16.14,16.14,0,0,1-4.28.65C192.3,222.52,189.44,220.06,189.44,214.74Z" fill="#fff"/><path d="M204.58,189.44h7.74V203a8,8,0,0,1,7.44-4.24c4.37,0,7.4,2.72,7.4,8.52V222h-7.74V208.85c0-2.55-1-3.8-3.25-3.8s-3.85,1.38-3.85,4.28V222h-7.74Z" fill="#fff"/><path d="M229.71,211v-.34c0-7.27,5.41-11.85,12.24-11.85,6.18,0,11.5,3.55,11.5,11.68v2H237.54c.21,3,1.94,4.71,4.71,4.71,2.55,0,3.63-1.17,3.94-2.68h7.26c-.69,5.1-4.63,8-11.46,8C234.9,222.52,229.71,218.37,229.71,211Zm16.22-2.85c-.13-2.72-1.47-4.24-4-4.24-2.34,0-3.94,1.52-4.33,4.24Z" fill="#fff"/><path d="M20.08,258.22v-.34c0-7.27,5.41-11.85,12.41-11.85s12.33,4.45,12.33,11.63V258c0,7.35-5.41,11.76-12.37,11.76S20.08,265.53,20.08,258.22ZM37,258.09v-.34c0-3.81-1.52-5.93-4.46-5.93s-4.5,2-4.5,5.84V258c0,3.89,1.52,6,4.5,6S37,261.86,37,258.09Z" fill="#fff"/><path d="M48.71,251.91H45.86v-5.28h2.85V244.9c0-5.62,3.46-8.25,8.82-8.25a12.94,12.94,0,0,1,3.46.43v5.66a6.88,6.88,0,0,0-2.07-.3,2.26,2.26,0,0,0-2.51,2.46v1.73H63v-2c0-5.63,3.55-8.31,8.87-8.31a13.7,13.7,0,0,1,3.54.48v5.66a7.19,7.19,0,0,0-2.12-.3,2.26,2.26,0,0,0-2.55,2.47v2h4.59v5.28H70.72v17.34H63V251.91H56.41v17.34h-7.7Z" fill="#fff"/><path d="M77.69,240.49a4.27,4.27,0,1,1,4.24,4A4,4,0,0,1,77.69,240.49Zm.39,6.14h7.74v22.62H78.08Z" fill="#fff"/><path d="M88.76,258.22v-.34c0-7.53,5.41-11.85,12.07-11.85,5.53,0,10.63,2.42,11.07,9.3h-7.27c-.34-2.12-1.38-3.29-3.63-3.29-2.73,0-4.33,2-4.33,5.75v.35c0,3.93,1.52,6,4.46,6,2.16,0,3.67-1.29,3.93-3.76h7c-.22,5.71-4.07,9.43-11.38,9.43C93.91,269.77,88.76,265.83,88.76,258.22Z" fill="#fff"/><path d="M113.33,258.22v-.34c0-7.27,5.4-11.85,12.23-11.85,6.19,0,11.51,3.55,11.51,11.68v2H121.15c.22,3,1.95,4.71,4.72,4.71,2.55,0,3.63-1.17,3.93-2.68h7.27c-.69,5.1-4.63,8-11.46,8C118.52,269.77,113.33,265.62,113.33,258.22Zm16.21-2.85c-.13-2.72-1.47-4.24-4-4.24-2.33,0-3.93,1.52-4.32,4.24Z" fill="#fff"/><path d="M145.68,246.63h8.26l4.71,14.58,4.63-14.58h7.39l-8.26,22.62H154Z" fill="#fff"/><path d="M172.45,240.49a4.27,4.27,0,1,1,4.24,4A4,4,0,0,1,172.45,240.49Zm.39,6.14h7.74v22.62h-7.74Z" fill="#fff"/><path d="M183.22,262.07h7.13c.26,1.65,1,2.55,3.2,2.55,1.91,0,2.77-.73,2.77-1.86s-1.08-1.6-4.19-2c-6.06-.78-8.61-2.55-8.61-7.26,0-5,4.45-7.44,9.69-7.44,5.58,0,9.47,1.9,10,7.31h-7c-.3-1.52-1.12-2.25-2.9-2.25s-2.55.73-2.55,1.77,1,1.52,3.81,1.86c6.27.78,9.29,2.42,9.29,7.27,0,5.36-4,7.78-10.24,7.78C187.15,269.77,183.39,267.09,183.22,262.07Z" fill="#fff"/><path d="M206.18,240.49a4.27,4.27,0,1,1,4.24,4A4,4,0,0,1,206.18,240.49Zm.39,6.14h7.74v22.62h-7.74Z" fill="#fff"/><path d="M219.5,262V251.91h-2.72v-5.28h2.72v-4.71h7.74v4.71h4.46v5.28h-4.46v9.34a2.07,2.07,0,0,0,2.3,2.38,5.87,5.87,0,0,0,2.2-.39v5.88a16.14,16.14,0,0,1-4.28.65C222.36,269.77,219.5,267.31,219.5,262Z" fill="#fff"/><path d="M234.34,265.36a4.31,4.31,0,0,1,4.41-4.37,4.37,4.37,0,1,1,0,8.74A4.31,4.31,0,0,1,234.34,265.36Z" fill="#fff"/><path d="M20.38,301.24v-.35c0-9.51,6.75-15.78,15.79-15.78,8,0,13.62,3.72,14.35,11.89H41.4c-.35-3.16-2.08-4.89-5.19-4.89-4,0-6.49,3.12-6.49,8.74v.34c0,5.58,2.38,8.74,6.62,8.74a5.32,5.32,0,0,0,5.75-5.06h8.82c-.6,8-6.4,12.15-14.4,12.15C25.7,317,20.38,310.71,20.38,301.24Z" fill="#fff"/><path d="M52.3,310.23c0-5.32,4.5-7.39,12-7.39h2.17v-.52c0-2.16-.52-3.59-3-3.59a2.77,2.77,0,0,0-3.07,2.68H53.17c.34-5.45,4.62-8.13,10.81-8.13s10.2,2.55,10.2,8.56V316.5H66.66v-2.64C65.58,315.51,63.59,317,60,317,55.89,317,52.3,315,52.3,310.23Zm14.19-1.64V307.2h-2c-3.11,0-4.49.61-4.49,2.47,0,1.3.86,2.12,2.68,2.12C64.84,311.79,66.49,310.53,66.49,308.59Z" fill="#fff"/><path d="M78.16,283.94h7.7V316.5h-7.7Z" fill="#fff"/><path d="M90.23,283.94h7.7V316.5h-7.7Z" fill="#fff"/><path d="M117,314.21l-9-20.33h8.39L121.07,306l4.32-12.07h7.39l-12.1,30.19h-7.4Z" fill="#fff"/><path d="M132.35,305.47v-.34c0-7.27,5.41-11.85,12.42-11.85s12.32,4.45,12.32,11.63v.35c0,7.35-5.41,11.76-12.37,11.76S132.35,312.78,132.35,305.47Zm16.87-.13V305c0-3.81-1.51-5.93-4.45-5.93s-4.5,2-4.5,5.84v.35c0,3.89,1.51,6,4.5,6S149.22,309.11,149.22,305.34Z" fill="#fff"/><path d="M159.65,308.63V293.88h7.74v13.5c0,2.55,1,3.8,3.2,3.8s3.84-1.38,3.84-4.28v-13h7.74V316.5h-7.74V313c-1.21,2.33-3.41,4-7.17,4C162.89,317,159.65,314.34,159.65,308.63Z" fill="#fff"/><path d="M186.11,293.88h7.74v4.5a7.14,7.14,0,0,1,7.31-4.8v7.22c-4.71-.13-7.31,1.34-7.31,5V316.5h-7.74Z" fill="#fff"/><path d="M212.88,309.24V299.16h-2.72v-5.28h2.72v-4.71h7.75v4.71h4.45v5.28h-4.45v9.34c0,1.64.82,2.38,2.29,2.38a5.87,5.87,0,0,0,2.2-.39v5.88a16.14,16.14,0,0,1-4.28.65C215.74,317,212.88,314.55,212.88,309.24Z" fill="#fff"/><path d="M226.81,310.23c0-5.32,4.5-7.39,12-7.39H241v-.52c0-2.16-.52-3.59-3-3.59a2.77,2.77,0,0,0-3.07,2.68h-7.26c.34-5.45,4.62-8.13,10.81-8.13s10.2,2.55,10.2,8.56V316.5h-7.52v-2.64c-1.08,1.65-3.07,3.16-6.71,3.16C230.4,317,226.81,315,226.81,310.23ZM241,308.59V307.2h-2c-3.11,0-4.5.61-4.5,2.47,0,1.3.87,2.12,2.69,2.12C239.35,311.79,241,310.53,241,308.59Z" fill="#fff"/><path d="M258.17,305l-7.05-11.12H260l3.5,6,3.41-6h8l-7.13,10.51,7.82,12.11h-8.91l-4-6.75-4.11,6.75h-7.91Z" fill="#fff"/><path d="M21.29,341.13H29v3.38a8,8,0,0,1,7-4c5.28,0,9.56,4,9.56,11.72v.34c0,7.79-4.28,11.68-9.6,11.68-3.42,0-5.88-1.6-7-3.85v10.9H21.29Zm16.48,11.46v-.34c0-4-1.73-5.88-4.46-5.88s-4.49,2-4.49,5.84v.34c0,3.85,1.68,5.8,4.49,5.8S37.77,356.31,37.77,352.59Z" fill="#fff"/><path d="M48.45,341.13h7.74v4.5a7.14,7.14,0,0,1,7.31-4.8v7.22c-4.71-.13-7.31,1.34-7.31,5v10.72H48.45Z" fill="#fff"/><path d="M64.89,352.72v-.34c0-7.27,5.4-11.85,12.41-11.85S89.62,345,89.62,352.16v.35c0,7.35-5.4,11.76-12.36,11.76S64.89,360,64.89,352.72Zm16.86-.13v-.34c0-3.81-1.51-5.93-4.45-5.93s-4.5,2-4.5,5.84v.35c0,3.89,1.51,6,4.5,6S81.75,356.36,81.75,352.59Z" fill="#fff"/><path d="M101.26,356.49V346.41H98.54v-5.28h2.72v-4.71H109v4.71h4.45v5.28H109v9.34c0,1.64.82,2.38,2.29,2.38a5.89,5.89,0,0,0,2.21-.39v5.88a16.28,16.28,0,0,1-4.28.65C104.11,364.27,101.26,361.8,101.26,356.49Z" fill="#fff"/><path d="M115.19,352.72v-.34c0-7.27,5.4-11.85,12.41-11.85s12.32,4.45,12.32,11.63v.35c0,7.35-5.4,11.76-12.37,11.76S115.19,360,115.19,352.72Zm16.86-.13v-.34c0-3.81-1.51-5.93-4.45-5.93s-4.5,2-4.5,5.84v.35c0,3.89,1.51,6,4.5,6S132.05,356.36,132.05,352.59Z" fill="#fff"/><path d="M141.53,352.68v-.35c0-7.69,4.23-11.8,9.6-11.8,3.54,0,5.66,1.51,7,3.8V331.19h7.74v32.56h-7.74v-3.67a7.63,7.63,0,0,1-7.05,4.19C145.81,364.27,141.53,360.51,141.53,352.68Zm16.77-.13v-.34c0-3.81-1.6-5.84-4.45-5.84s-4.45,1.94-4.45,5.88v.34c0,3.81,1.68,5.76,4.36,5.76S158.3,356.4,158.3,352.55Z" fill="#fff"/><path d="M168.47,357.48c0-5.32,4.5-7.39,12-7.39h2.16v-.52c0-2.16-.52-3.59-3-3.59a2.77,2.77,0,0,0-3.07,2.68h-7.27c.35-5.45,4.63-8.13,10.82-8.13s10.2,2.55,10.2,8.56v14.66h-7.52v-2.64c-1.08,1.65-3.07,3.16-6.71,3.16C172.06,364.27,168.47,362.28,168.47,357.48Zm14.18-1.64v-1.39h-2c-3.11,0-4.5.61-4.5,2.47,0,1.3.87,2.12,2.69,2.12C181,359,182.65,357.78,182.65,355.84Z" fill="#fff"/><path d="M200.43,361.46l-9-20.33h8.39l4.67,12.07,4.33-12.07h7.39l-12.11,30.19h-7.39Z" fill="#fff"/><path d="M214.53,359.86a4.31,4.31,0,0,1,4.41-4.37,4.37,4.37,0,1,1,0,8.74A4.31,4.31,0,0,1,214.53,359.86Z" fill="#fff"/></g></g></svg>