<svg xmlns="http://www.w3.org/2000/svg" viewBox="0 0 728 90"><title>H2</title><g id="Layer_2" data-name="Layer 2"><g id="Artboard_2" data-name="Artboard 2" style="isolation:isolate"><g id="headline2"><g id="Expert_tax_prep_without_an_appointment._Just_drop_off_your_doc" data-name="Expert tax prep without an appointment.  Just drop off your doc"><path d="M116.57,21.89h11.2v3.59h-6.58v2.79h5.25v3.31h-5.25v3h6.95v3.59H116.57Z" fill="#fff"/><path d="M132.79,32.08l-3.7-5.83h4.68l1.83,3.13,1.8-3.13h4.17l-3.74,5.51,4.11,6.36h-4.68l-2.11-3.54L133,38.12h-4.16Z" fill="#fff"/><path d="M143.07,26.25h4.06V28a4.18,4.18,0,0,1,3.7-2.09c2.77,0,5,2.09,5,6.15v.18c0,4.09-2.25,6.13-5,6.13a3.92,3.92,0,0,1-3.68-2v5.72h-4.06Zm8.65,6v-.18c0-2.09-.91-3.08-2.34-3.08S147,30.06,147,32.06v.18c0,2,.89,3,2.36,3S151.72,34.21,151.72,32.26Z" fill="#fff"/><path d="M156.69,32.33v-.18a6.07,6.07,0,0,1,6.42-6.22c3.24,0,6,1.86,6,6.13v1.06H160.8a2.37,2.37,0,0,0,2.47,2.48c1.34,0,1.9-.62,2.06-1.41h3.82c-.37,2.68-2.43,4.2-6,4.2S156.69,36.21,156.69,32.33Zm8.51-1.5c-.07-1.43-.77-2.22-2.09-2.22a2.25,2.25,0,0,0-2.27,2.22Z" fill="#fff"/><path d="M170.55,26.25h4.07v2.36a3.73,3.73,0,0,1,3.83-2.52v3.79c-2.47-.07-3.83.7-3.83,2.61v5.63h-4.07Z" fill="#fff"/><path d="M180.65,34.3V29h-1.43V26.25h1.43V23.78h4.06v2.47h2.34V29h-2.34v4.9a1.09,1.09,0,0,0,1.21,1.25,3,3,0,0,0,1.15-.21v3.09a8.74,8.74,0,0,1-2.24.34C182.15,38.39,180.65,37.1,180.65,34.3Z" fill="#fff"/><path d="M193.27,34.3V29h-1.43V26.25h1.43V23.78h4.06v2.47h2.34V29h-2.34v4.9c0,.86.43,1.25,1.2,1.25a3,3,0,0,0,1.16-.21v3.09a8.76,8.76,0,0,1-2.25.34C194.77,38.39,193.27,37.1,193.27,34.3Z" fill="#fff"/><path d="M200.58,34.83c0-2.79,2.36-3.88,6.3-3.88H208v-.28c0-1.13-.27-1.88-1.57-1.88a1.46,1.46,0,0,0-1.61,1.41H201c.18-2.86,2.43-4.27,5.67-4.27s5.36,1.34,5.36,4.49v7.7h-3.95V36.73a3.91,3.91,0,0,1-3.52,1.66C202.46,38.39,200.58,37.34,200.58,34.83ZM208,34v-.72H207c-1.63,0-2.36.32-2.36,1.29,0,.68.46,1.11,1.41,1.11A1.79,1.79,0,0,0,208,34Z" fill="#fff"/><path d="M217,32.08l-3.7-5.83H218l1.84,3.13,1.8-3.13h4.17l-3.74,5.51,4.1,6.36H221.5l-2.11-3.54-2.16,3.54h-4.15Z" fill="#fff"/><path d="M231.44,26.25h4.06V28a4.18,4.18,0,0,1,3.7-2.09c2.77,0,5,2.09,5,6.15v.18c0,4.09-2.24,6.13-5,6.13a3.91,3.91,0,0,1-3.68-2v5.72h-4.06Zm8.64,6v-.18c0-2.09-.9-3.08-2.33-3.08s-2.36,1.06-2.36,3.06v.18c0,2,.88,3,2.36,3S240.08,34.21,240.08,32.26Z" fill="#fff"/><path d="M245.69,26.25h4.06v2.36a3.75,3.75,0,0,1,3.84-2.52v3.79c-2.48-.07-3.84.7-3.84,2.61v5.63h-4.06Z" fill="#fff"/><path d="M254.32,32.33v-.18a6.07,6.07,0,0,1,6.42-6.22c3.24,0,6,1.86,6,6.13v1.06h-8.35a2.38,2.38,0,0,0,2.48,2.48c1.33,0,1.9-.62,2.06-1.41h3.81c-.36,2.68-2.43,4.2-6,4.2S254.32,36.21,254.32,32.33Zm8.5-1.5c-.06-1.43-.77-2.22-2.08-2.22a2.25,2.25,0,0,0-2.27,2.22Z" fill="#fff"/><path d="M268.18,26.25h4.06V28a4.18,4.18,0,0,1,3.7-2.09c2.77,0,5,2.09,5,6.15v.18c0,4.09-2.25,6.13-5,6.13a3.92,3.92,0,0,1-3.68-2v5.72h-4.06Zm8.65,6v-.18c0-2.09-.91-3.08-2.34-3.08s-2.36,1.06-2.36,3.06v.18c0,2,.88,3,2.36,3S276.83,34.21,276.83,32.26Z" fill="#fff"/><path d="M285.56,26.25h4.25l1.72,7.1,2-7.1h3.27l1.77,7.1,1.92-7.1h3.86l-3.76,11.87h-3.88l-1.77-6.63-1.84,6.63h-4Z" fill="#fff"/><path d="M305.31,23a2.11,2.11,0,0,1,2.22-2.11,2.1,2.1,0,1,1,0,4.19A2.1,2.1,0,0,1,305.31,23Zm.2,3.22h4.06V38.12h-4.06Z" fill="#fff"/><path d="M312.3,34.3V29h-1.43V26.25h1.43V23.78h4.06v2.47h2.34V29h-2.34v4.9c0,.86.43,1.25,1.2,1.25a3.07,3.07,0,0,0,1.16-.21v3.09a8.83,8.83,0,0,1-2.25.34C313.79,38.39,312.3,37.1,312.3,34.3Z" fill="#fff"/><path d="M320.24,21h4.06v7.13a4.19,4.19,0,0,1,3.9-2.23c2.3,0,3.88,1.43,3.88,4.47v7.72H328v-6.9c0-1.34-.52-2-1.7-2s-2,.73-2,2.25v6.65h-4.06Z" fill="#fff"/><path d="M333.42,32.33v-.18c0-3.81,2.84-6.22,6.52-6.22s6.46,2.34,6.46,6.11v.18c0,3.85-2.83,6.17-6.49,6.17S333.42,36.17,333.42,32.33Zm8.85-.07v-.18c0-2-.79-3.11-2.33-3.11S337.58,30,337.58,32v.18c0,2,.79,3.15,2.36,3.15S342.27,34.24,342.27,32.26Z" fill="#fff"/><path d="M347.74,34V26.25h4.07v7.08c0,1.34.52,2,1.67,2s2-.73,2-2.25V26.25h4.07V38.12H355.5V36.28a3.9,3.9,0,0,1-3.76,2.11C349.45,38.39,347.74,37,347.74,34Z" fill="#fff"/><path d="M362.18,34.3V29h-1.43V26.25h1.43V23.78h4.06v2.47h2.34V29h-2.34v4.9c0,.86.43,1.25,1.2,1.25A3,3,0,0,0,368.6,35v3.09a8.76,8.76,0,0,1-2.25.34C363.67,38.39,362.18,37.1,362.18,34.3Z" fill="#fff"/><path d="M373.57,34.83c0-2.79,2.36-3.88,6.31-3.88H381v-.28c0-1.13-.27-1.88-1.56-1.88a1.47,1.47,0,0,0-1.62,1.41H374c.19-2.86,2.43-4.27,5.68-4.27s5.35,1.34,5.35,4.49v7.7H381.1V36.73a3.89,3.89,0,0,1-3.51,1.66C375.45,38.39,373.57,37.34,373.57,34.83ZM381,34v-.72H380c-1.64,0-2.36.32-2.36,1.29,0,.68.45,1.11,1.4,1.11A1.79,1.79,0,0,0,381,34Z" fill="#fff"/><path d="M387,26.25h4.06v1.91a4.18,4.18,0,0,1,3.9-2.23c2.29,0,3.88,1.43,3.88,4.47v7.72h-4.06v-6.9c0-1.34-.52-2-1.7-2s-2,.73-2,2.25v6.65H387Z" fill="#fff"/><path d="M404.3,34.83c0-2.79,2.36-3.88,6.31-3.88h1.13v-.28c0-1.13-.27-1.88-1.57-1.88a1.46,1.46,0,0,0-1.61,1.41h-3.81c.18-2.86,2.43-4.27,5.67-4.27s5.36,1.34,5.36,4.49v7.7h-3.95V36.73a3.91,3.91,0,0,1-3.52,1.66C406.18,38.39,404.3,37.34,404.3,34.83Zm7.44-.87v-.72h-1.07c-1.63,0-2.36.32-2.36,1.29,0,.68.46,1.11,1.41,1.11A1.79,1.79,0,0,0,411.74,34Z" fill="#fff"/><path d="M417.75,26.25h4.07V28a4.17,4.17,0,0,1,3.7-2.09c2.76,0,5,2.09,5,6.15v.18c0,4.09-2.25,6.13-5,6.13a3.91,3.91,0,0,1-3.67-2v5.72h-4.07Zm8.65,6v-.18c0-2.09-.91-3.08-2.34-3.08s-2.36,1.06-2.36,3.06v.18c0,2,.89,3,2.36,3S426.4,34.21,426.4,32.26Z" fill="#fff"/><path d="M432,26.25h4.06V28a4.17,4.17,0,0,1,3.7-2.09c2.76,0,5,2.09,5,6.15v.18c0,4.09-2.25,6.13-5,6.13a3.91,3.91,0,0,1-3.67-2v5.72H432Zm8.64,6v-.18c0-2.09-.91-3.08-2.34-3.08S436,30.06,436,32.06v.18c0,2,.89,3,2.36,3S440.65,34.21,440.65,32.26Z" fill="#fff"/><path d="M445.62,32.33v-.18c0-3.81,2.84-6.22,6.51-6.22s6.47,2.34,6.47,6.11v.18c0,3.85-2.83,6.17-6.49,6.17S445.62,36.17,445.62,32.33Zm8.85-.07v-.18c0-2-.79-3.11-2.34-3.11S449.78,30,449.78,32v.18c0,2,.79,3.15,2.35,3.15S454.47,34.24,454.47,32.26Z" fill="#fff"/><path d="M459.94,23a2.24,2.24,0,1,1,2.23,2.08A2.12,2.12,0,0,1,459.94,23Zm.21,3.22h4.06V38.12h-4.06Z" fill="#fff"/><path d="M466.39,26.25h4.06v1.91a4.18,4.18,0,0,1,3.9-2.23c2.29,0,3.88,1.43,3.88,4.47v7.72h-4.06v-6.9c0-1.34-.52-2-1.7-2s-2,.73-2,2.25v6.65h-4.06Z" fill="#fff"/><path d="M480.75,34.3V29h-1.43V26.25h1.43V23.78h4.06v2.47h2.34V29h-2.34v4.9A1.09,1.09,0,0,0,486,35.17a3,3,0,0,0,1.15-.21v3.09a8.74,8.74,0,0,1-2.24.34C482.25,38.39,480.75,37.1,480.75,34.3Z" fill="#fff"/><path d="M488.69,26.25h4.07v1.81a4.14,4.14,0,0,1,3.72-2.13,3.23,3.23,0,0,1,3.22,2,4.7,4.7,0,0,1,3.93-2c2.24,0,3.87,1.45,3.87,4.43v7.76h-4.06V31c0-1.21-.59-1.8-1.52-1.8a1.76,1.76,0,0,0-1.81,2v6.88h-4V31c0-1.21-.59-1.8-1.52-1.8a1.76,1.76,0,0,0-1.81,2v6.88h-4.07Z" fill="#fff"/><path d="M508.85,32.33v-.18a6.07,6.07,0,0,1,6.42-6.22c3.24,0,6,1.86,6,6.13v1.06H513a2.38,2.38,0,0,0,2.48,2.48c1.34,0,1.9-.62,2.06-1.41h3.81c-.36,2.68-2.42,4.2-6,4.2S508.85,36.21,508.85,32.33Zm8.51-1.5c-.07-1.43-.78-2.22-2.09-2.22A2.25,2.25,0,0,0,513,30.83Z" fill="#fff"/><path d="M522.71,26.25h4.06v1.91a4.2,4.2,0,0,1,3.91-2.23c2.29,0,3.88,1.43,3.88,4.47v7.72H530.5v-6.9c0-1.34-.53-2-1.71-2s-2,.73-2,2.25v6.65h-4.06Z" fill="#fff"/><path d="M537.08,34.3V29h-1.43V26.25h1.43V23.78h4.06v2.47h2.34V29h-2.34v4.9c0,.86.43,1.25,1.2,1.25A3,3,0,0,0,543.5,35v3.09a8.76,8.76,0,0,1-2.25.34C538.58,38.39,537.08,37.1,537.08,34.3Z" fill="#fff"/><path d="M544.86,36.07a2.27,2.27,0,0,1,2.32-2.29,2.3,2.3,0,1,1,0,4.59A2.27,2.27,0,0,1,544.86,36.07Z" fill="#fff"/><path d="M115.75,65.58V62.11a5.48,5.48,0,0,0,2,.32c1.27,0,2.11-.57,2.11-2.25V49.7h4.68V60.23c0,3.9-2,5.9-5.81,5.9A6.21,6.21,0,0,1,115.75,65.58Z" fill="#fff"/><path d="M126.55,61.79V54.06h4.06v7.08c0,1.33.52,2,1.68,2s2-.72,2-2.24V54.06h4.06V65.92h-4.06V64.09a3.9,3.9,0,0,1-3.77,2.11C128.25,66.2,126.55,64.79,126.55,61.79Z" fill="#fff"/><path d="M139.65,62.16h3.74c.14.86.52,1.34,1.68,1.34,1,0,1.45-.39,1.45-1s-.57-.84-2.2-1.07c-3.18-.4-4.52-1.33-4.52-3.81,0-2.63,2.34-3.9,5.09-3.9,2.92,0,5,1,5.24,3.83h-3.68a1.33,1.33,0,0,0-1.52-1.18c-.88,0-1.34.39-1.34.93s.55.8,2,1c3.29.41,4.88,1.27,4.88,3.81,0,2.82-2.09,4.09-5.38,4.09S139.74,64.79,139.65,62.16Z" fill="#fff"/><path d="M152.33,62.11V56.83H150.9V54.06h1.43V51.58h4.06v2.48h2.34v2.77h-2.34v4.9A1.08,1.08,0,0,0,157.6,63a3,3,0,0,0,1.15-.2v3.09a8.74,8.74,0,0,1-2.24.34C153.83,66.2,152.33,64.9,152.33,62.11Z" fill="#fff"/><path d="M163.81,60.12v-.19c0-4,2.23-6.19,5-6.19a3.83,3.83,0,0,1,3.65,2v-6.9h4.07V65.92H172.5V64a4,4,0,0,1-3.69,2.2C166.06,66.2,163.81,64.22,163.81,60.12Zm8.81-.07v-.18c0-2-.84-3.07-2.34-3.07s-2.34,1-2.34,3.09v.18c0,2,.89,3,2.3,3S172.62,62.07,172.62,60.05Z" fill="#fff"/><path d="M178.63,54.06h4.06v2.36a3.75,3.75,0,0,1,3.84-2.52v3.79c-2.47-.07-3.84.7-3.84,2.61v5.62h-4.06Z" fill="#fff"/><path d="M187.26,60.14V60c0-3.82,2.83-6.22,6.51-6.22s6.47,2.34,6.47,6.1V60c0,3.86-2.84,6.18-6.49,6.18S187.26,64,187.26,60.14Zm8.85-.07v-.18c0-2-.8-3.11-2.34-3.11s-2.36,1.07-2.36,3.06V60c0,2,.79,3.16,2.36,3.16S196.11,62,196.11,60.07Z" fill="#fff"/><path d="M201.67,54.06h4.06v1.77a4.17,4.17,0,0,1,3.7-2.09c2.77,0,5,2.09,5,6.15v.18c0,4.08-2.24,6.13-5,6.13a3.91,3.91,0,0,1-3.67-2v5.71h-4.06Zm8.64,6v-.18c0-2.09-.91-3.09-2.33-3.09s-2.36,1.07-2.36,3.07v.18c0,2,.88,3,2.36,3S210.31,62,210.31,60.07Z" fill="#fff"/><path d="M219.41,60.14V60c0-3.82,2.84-6.22,6.52-6.22s6.46,2.34,6.46,6.1V60c0,3.86-2.83,6.18-6.49,6.18S219.41,64,219.41,60.14Zm8.85-.07v-.18c0-2-.79-3.11-2.33-3.11s-2.36,1.07-2.36,3.06V60c0,2,.79,3.16,2.36,3.16S228.26,62,228.26,60.07Z" fill="#fff"/><path d="M234.44,56.83h-1.5V54.06h1.5v-.91c0-2.95,1.81-4.33,4.62-4.33a7.13,7.13,0,0,1,1.82.22v3a3.57,3.57,0,0,0-1.09-.15,1.18,1.18,0,0,0-1.31,1.29v.91h3.44V53c0-2.95,1.86-4.35,4.66-4.35a7.15,7.15,0,0,1,1.86.25v3a3.8,3.8,0,0,0-1.12-.16A1.18,1.18,0,0,0,246,53v1.05h2.4v2.77H246v9.09h-4.07V56.83h-3.44v9.09h-4Z" fill="#fff"/><path d="M257.58,64.72l-4.74-10.66h4.4l2.45,6.33L262,54.06h3.88l-6.35,15.83h-3.88Z" fill="#fff"/><path d="M265.62,60.14V60c0-3.82,2.83-6.22,6.51-6.22s6.47,2.34,6.47,6.1V60c0,3.86-2.84,6.18-6.49,6.18S265.62,64,265.62,60.14Zm8.85-.07v-.18c0-2-.8-3.11-2.34-3.11s-2.36,1.07-2.36,3.06V60c0,2,.79,3.16,2.36,3.16S274.47,62,274.47,60.07Z" fill="#fff"/><path d="M279.94,61.79V54.06H284v7.08c0,1.33.52,2,1.68,2s2-.72,2-2.24V54.06h4.06V65.92H287.7V64.09a3.92,3.92,0,0,1-3.77,2.11C281.64,66.2,279.94,64.79,279.94,61.79Z" fill="#fff"/><path d="M293.83,54.06h4.06v2.36a3.74,3.74,0,0,1,3.83-2.52v3.79c-2.47-.07-3.83.7-3.83,2.61v5.62h-4.06Z" fill="#fff"/><path d="M306.74,60.12v-.19c0-4,2.22-6.19,5-6.19a3.83,3.83,0,0,1,3.65,2v-6.9h4.06V65.92h-4.06V64a4,4,0,0,1-3.7,2.2C309,66.2,306.74,64.22,306.74,60.12Zm8.8-.07v-.18c0-2-.84-3.07-2.34-3.07s-2.33,1-2.33,3.09v.18c0,2,.88,3,2.29,3S315.54,62.07,315.54,60.05Z" fill="#fff"/><path d="M320.92,60.14V60c0-3.82,2.84-6.22,6.51-6.22s6.47,2.34,6.47,6.1V60c0,3.86-2.84,6.18-6.49,6.18S320.92,64,320.92,60.14Zm8.85-.07v-.18c0-2-.79-3.11-2.34-3.11s-2.36,1.07-2.36,3.06V60c0,2,.8,3.16,2.36,3.16S329.77,62,329.77,60.07Z" fill="#fff"/><path d="M334.7,60.14V60A6,6,0,0,1,341,53.74c2.9,0,5.58,1.27,5.81,4.88H343a1.75,1.75,0,0,0-1.9-1.73c-1.43,0-2.27,1-2.27,3v.18c0,2.07.79,3.13,2.34,3.13a2,2,0,0,0,2.06-2h3.65c-.11,3-2.13,5-6,5C337.4,66.2,334.7,64.13,334.7,60.14Z" fill="#fff"/><path d="M347.59,62.16h3.74c.14.86.52,1.34,1.68,1.34,1,0,1.45-.39,1.45-1s-.57-.84-2.2-1.07c-3.18-.4-4.51-1.33-4.51-3.81,0-2.63,2.33-3.9,5.08-3.9,2.92,0,5,1,5.24,3.83h-3.68a1.33,1.33,0,0,0-1.52-1.18c-.88,0-1.34.39-1.34.93s.55.8,2,1c3.29.41,4.88,1.27,4.88,3.81,0,2.82-2.09,4.09-5.38,4.09S347.68,64.79,347.59,62.16Z" fill="#fff"/><path d="M359.57,63.88a2.26,2.26,0,0,1,2.31-2.29,2.29,2.29,0,1,1,0,4.58A2.26,2.26,0,0,1,359.57,63.88Z" fill="#fff"/><rect width="728" height="90" fill="none"/></g></g></g></g></svg>