<svg xmlns="http://www.w3.org/2000/svg" viewBox="0 0 120 32"><title>file_now</title><g id="Layer_2" data-name="Layer 2"><g id="headline1"><g id="CTA_copy" data-name="CTA copy"><g id="Rectangle_1" data-name="Rectangle 1"><rect width="120" height="32" fill="none"/></g><g id="File_now" data-name="File now"><path d="M34.22,10.81h6.43v1.78H36.49v2.65h3.29V17H36.49v3.88H34.22Z" transform="translate(0)" fill="#262626"/><path d="M41.53,11.4a1.16,1.16,0,1,1,1.15,1.1A1.11,1.11,0,0,1,41.53,11.4Zm.15,2.1h2v7.33h-2Z" transform="translate(0)" fill="#262626"/><path d="M45.41,10.18h2V20.83h-2Z" transform="translate(0)" fill="#262626"/><path d="M48.61,17.25v-.11a3.64,3.64,0,0,1,3.77-3.81A3.38,3.38,0,0,1,56,17.06v.56H50.67a1.76,1.76,0,0,0,1.82,1.92c.94,0,1.4-.41,1.53-1h1.92C55.7,20.1,54.44,21,52.44,21A3.56,3.56,0,0,1,48.61,17.25ZM54,16.37c-.07-1.11-.63-1.64-1.6-1.64a1.68,1.68,0,0,0-1.68,1.64Z" transform="translate(0)" fill="#262626"/><path d="M60,13.5h2v1.16a2.52,2.52,0,0,1,2.38-1.33c1.44,0,2.46.87,2.46,2.83v4.67h-2V16.46c0-1-.39-1.48-1.28-1.48A1.46,1.46,0,0,0,62,16.59v4.24H60Z" transform="translate(0)" fill="#262626"/><path d="M67.92,17.24v-.11a3.68,3.68,0,0,1,3.87-3.8,3.64,3.64,0,0,1,3.85,3.76v.11a3.86,3.86,0,0,1-7.72,0Zm5.66,0v-.1c0-1.4-.66-2.24-1.79-2.24s-1.8.81-1.8,2.22v.11c0,1.4.65,2.24,1.8,2.24S73.58,18.6,73.58,17.21Z" transform="translate(0)" fill="#262626"/><path d="M75.91,13.5H78l1.3,4.93,1.42-4.93h1.67l1.28,4.93L85.1,13.5h2l-2.31,7.33h-2l-1.25-4.6-1.34,4.6h-2Z" transform="translate(0)" fill="#262626"/></g></g></g></g></svg>