<svg xmlns="http://www.w3.org/2000/svg" viewBox="0 0 728 90"><title>Asset 1</title><g id="Layer_2" data-name="Layer 2"><g id="Rect"><rect width="728" height="90" fill="none"/></g><g id="Drop_off_work_with_a_pro_remotely_or_file_online._We_re_open" data-name="Drop off, work with a pro remotely, or file online. We’re open"><path d="M118.13,19.46h6.75c6.6,0,10,3.29,10,9.06v.21c0,5.8-3.43,9.3-10,9.3h-6.73Zm6.57,14.47c3.17,0,4.57-1.66,4.57-5.12V28.6c0-3.53-1.4-5-4.62-5h-1.17V33.93Z" fill="#fff"/><path d="M136.63,24.44h4.65v2.71a4.3,4.3,0,0,1,4.4-2.89V28.6c-2.84-.08-4.4.81-4.4,3V38h-4.65Z" fill="#fff"/><path d="M146.51,31.41V31.2c0-4.37,3.25-7.12,7.46-7.12s7.4,2.68,7.4,7v.21c0,4.42-3.24,7.07-7.43,7.07S146.51,35.8,146.51,31.41Zm10.13-.08v-.21c0-2.28-.91-3.56-2.67-3.56s-2.7,1.22-2.7,3.51v.21c0,2.34.9,3.61,2.7,3.61S156.64,33.59,156.64,31.33Z" fill="#fff"/><path d="M163,24.44h4.65v2a4.79,4.79,0,0,1,4.23-2.39c3.17,0,5.75,2.39,5.75,7v.21c0,4.68-2.58,7-5.77,7A4.46,4.46,0,0,1,167.67,36v6.55H163Zm9.9,6.89v-.21c0-2.39-1-3.53-2.68-3.53s-2.7,1.22-2.7,3.51v.2c0,2.32,1,3.49,2.7,3.49S172.92,33.56,172.92,31.33Z" fill="#fff"/><path d="M183.34,31.41V31.2c0-4.37,3.25-7.12,7.46-7.12s7.4,2.68,7.4,7v.21c0,4.42-3.24,7.07-7.43,7.07S183.34,35.8,183.34,31.41Zm10.14-.08v-.21c0-2.28-.91-3.56-2.68-3.56s-2.7,1.22-2.7,3.51v.21c0,2.34.91,3.61,2.7,3.61S193.48,33.59,193.48,31.33Z" fill="#fff"/><path d="M200.55,27.61h-1.72V24.44h1.72v-1c0-3.37,2.08-5,5.3-5a8.06,8.06,0,0,1,2.08.26v3.41a3.91,3.91,0,0,0-1.25-.19,1.36,1.36,0,0,0-1.51,1.48v1h4V23.25c0-3.38,2.13-5,5.33-5a8.06,8.06,0,0,1,2.13.29V22a4.4,4.4,0,0,0-1.27-.18,1.36,1.36,0,0,0-1.54,1.48v1.19h2.76v3.17h-2.76V38h-4.65V27.61h-4V38h-4.62Z" fill="#fff"/><path d="M215.54,40.14l2.19-6.83L222,34.84l-3.74,6.37Z" fill="#fff"/><path d="M227.66,24.44h4.86l2,8.14,2.29-8.14h3.74l2,8.14,2.21-8.14h4.41L244.86,38h-4.44l-2-7.58L236.28,38h-4.52Z" fill="#fff"/><path d="M249.05,31.41V31.2c0-4.37,3.25-7.12,7.46-7.12s7.4,2.68,7.4,7v.21c0,4.42-3.25,7.07-7.43,7.07S249.05,35.8,249.05,31.41Zm10.13-.08v-.21c0-2.28-.91-3.56-2.67-3.56s-2.71,1.22-2.71,3.51v.21c0,2.34.91,3.61,2.71,3.61S259.18,33.59,259.18,31.33Z" fill="#fff"/><path d="M265.55,24.44h4.66v2.71a4.28,4.28,0,0,1,4.39-2.89V28.6c-2.84-.08-4.39.81-4.39,3V38h-4.66Z" fill="#fff"/><path d="M276.29,18.47h4.65V29.82l3.66-5.38h4.84L285,30.55,289.8,38h-5.2l-3.66-6v6h-4.65Z" fill="#fff"/><path d="M294.48,24.44h4.86l2,8.14,2.28-8.14h3.75l2,8.14,2.21-8.14H316L311.69,38h-4.45l-2-7.58L303.11,38h-4.52Z" fill="#fff"/><path d="M317.1,20.75a2.56,2.56,0,1,1,2.54,2.4A2.42,2.42,0,0,1,317.1,20.75Zm.23,3.69H322V38h-4.65Z" fill="#fff"/><path d="M325.1,33.67V27.61h-1.64V24.44h1.64V21.61h4.65v2.83h2.68v3.17h-2.68v5.62a1.25,1.25,0,0,0,1.38,1.43,3.41,3.41,0,0,0,1.32-.24V38a9.94,9.94,0,0,1-2.57.39C326.82,38.35,325.1,36.87,325.1,33.67Z" fill="#fff"/><path d="M334.2,18.47h4.65v8.16a4.79,4.79,0,0,1,4.47-2.55c2.62,0,4.44,1.64,4.44,5.12V38h-4.65v-7.9c0-1.53-.6-2.28-1.95-2.28s-2.31.83-2.31,2.57V38H334.2Z" fill="#fff"/><path d="M354,34.27c0-3.2,2.7-4.45,7.22-4.45h1.3v-.31c0-1.3-.31-2.16-1.79-2.16A1.68,1.68,0,0,0,358.86,29H354.5c.21-3.28,2.78-4.89,6.49-4.89s6.14,1.53,6.14,5.15V38h-4.52V36.45a4.47,4.47,0,0,1-4,1.9C356.13,38.35,354,37.15,354,34.27Zm8.52-1v-.83h-1.22c-1.87,0-2.7.36-2.7,1.48,0,.78.52,1.27,1.61,1.27A2,2,0,0,0,362.5,33.28Z" fill="#fff"/><path d="M374.12,24.44h4.65v2A4.81,4.81,0,0,1,383,24.08c3.17,0,5.74,2.39,5.74,7v.21c0,4.68-2.57,7-5.77,7A4.48,4.48,0,0,1,378.77,36v6.55h-4.65Zm9.9,6.89v-.21c0-2.39-1-3.53-2.68-3.53s-2.7,1.22-2.7,3.51v.2c0,2.32,1,3.49,2.7,3.49S384,33.56,384,31.33Z" fill="#fff"/><path d="M390.44,24.44h4.65v2.71a4.3,4.3,0,0,1,4.4-2.89V28.6c-2.84-.08-4.4.81-4.4,3V38h-4.65Z" fill="#fff"/><path d="M400.32,31.41V31.2c0-4.37,3.25-7.12,7.46-7.12s7.4,2.68,7.4,7v.21c0,4.42-3.24,7.07-7.43,7.07S400.32,35.8,400.32,31.41Zm10.14-.08v-.21c0-2.28-.91-3.56-2.68-3.56s-2.7,1.22-2.7,3.51v.21c0,2.34.91,3.61,2.7,3.61S410.46,33.59,410.46,31.33Z" fill="#fff"/><path d="M421.56,24.44h4.65v2.71a4.28,4.28,0,0,1,4.39-2.89V28.6c-2.83-.08-4.39.81-4.39,3V38h-4.65Z" fill="#fff"/><path d="M431.43,31.41V31.2c0-4.37,3.25-7.12,7.36-7.12,3.71,0,6.91,2.13,6.91,7v1.22h-9.56A2.71,2.71,0,0,0,439,35.15c1.53,0,2.18-.7,2.36-1.61h4.37c-.41,3.07-2.78,4.81-6.89,4.81S431.43,35.85,431.43,31.41Zm9.75-1.72c-.08-1.63-.88-2.54-2.39-2.54a2.59,2.59,0,0,0-2.6,2.54Z" fill="#fff"/><path d="M447.31,24.44H452v2.08a4.73,4.73,0,0,1,4.26-2.44,3.71,3.71,0,0,1,3.69,2.26,5.4,5.4,0,0,1,4.49-2.26c2.58,0,4.45,1.66,4.45,5.07V38h-4.65v-8.1c0-1.38-.68-2.06-1.75-2.06a2,2,0,0,0-2.07,2.29V38h-4.6v-8.1c0-1.38-.68-2.06-1.75-2.06A2,2,0,0,0,452,30.16V38h-4.66Z" fill="#fff"/><path d="M470.4,31.41V31.2c0-4.37,3.24-7.12,7.45-7.12s7.41,2.68,7.41,7v.21c0,4.42-3.25,7.07-7.43,7.07S470.4,35.8,470.4,31.41Zm10.13-.08v-.21c0-2.28-.91-3.56-2.68-3.56s-2.7,1.22-2.7,3.51v.21c0,2.34.91,3.61,2.7,3.61S480.53,33.59,480.53,31.33Z" fill="#fff"/><path d="M487.53,33.67V27.61h-1.64V24.44h1.64V21.61h4.65v2.83h2.67v3.17h-2.67v5.62c0,1,.49,1.43,1.37,1.43a3.5,3.5,0,0,0,1.33-.24V38a10,10,0,0,1-2.57.39C489.24,38.35,487.53,36.87,487.53,33.67Z" fill="#fff"/><path d="M495.9,31.41V31.2c0-4.37,3.24-7.12,7.35-7.12,3.72,0,6.91,2.13,6.91,7v1.22H500.6a2.71,2.71,0,0,0,2.83,2.83c1.53,0,2.18-.7,2.37-1.61h4.36c-.41,3.07-2.78,4.81-6.88,4.81C499,38.35,495.9,35.85,495.9,31.41Zm9.74-1.72c-.08-1.63-.88-2.54-2.39-2.54a2.59,2.59,0,0,0-2.6,2.54Z" fill="#fff"/><path d="M511.91,18.47h4.62V38h-4.62Z" fill="#fff"/><path d="M523.29,36.66l-5.43-12.22h5l2.81,7.25,2.59-7.25h4.45l-7.28,18.14H521Z" fill="#fff"/><path d="M531,40.14l2.19-6.83,4.31,1.53-3.74,6.37Z" fill="#fff"/><path d="M543.51,31.41V31.2c0-4.37,3.25-7.12,7.46-7.12s7.41,2.68,7.41,7v.21c0,4.42-3.25,7.07-7.44,7.07S543.51,35.8,543.51,31.41Zm10.14-.08v-.21c0-2.28-.91-3.56-2.68-3.56s-2.7,1.22-2.7,3.51v.21c0,2.34.91,3.61,2.7,3.61S553.65,33.59,553.65,31.33Z" fill="#fff"/><path d="M560,24.44h4.65v2.71a4.29,4.29,0,0,1,4.39-2.89V28.6c-2.83-.08-4.39.81-4.39,3V38H560Z" fill="#fff"/><path d="M118.41,55.61H116.7V52.44h1.71V51.25c0-3.38,2.11-5,5.33-5a8.53,8.53,0,0,1,2.13.28V50a4.08,4.08,0,0,0-1.27-.18A1.37,1.37,0,0,0,123,51.25v1.19h2.75v3.17H123V66h-4.63Z" fill="#fff"/><path d="M127.25,48.75a2.57,2.57,0,1,1,2.55,2.39A2.43,2.43,0,0,1,127.25,48.75Zm.23,3.69h4.66V66h-4.66Z" fill="#fff"/><path d="M134.76,46.47h4.63V66h-4.63Z" fill="#fff"/><path d="M141.16,59.41V59.2c0-4.37,3.24-7.12,7.35-7.12,3.72,0,6.91,2.13,6.91,7v1.22h-9.56a2.71,2.71,0,0,0,2.83,2.83c1.53,0,2.18-.7,2.37-1.61h4.36c-.41,3.06-2.78,4.81-6.88,4.81C144.27,66.35,141.16,63.85,141.16,59.41Zm9.74-1.72c-.08-1.63-.88-2.54-2.39-2.54a2.59,2.59,0,0,0-2.6,2.54Z" fill="#fff"/><path d="M161,59.41V59.2c0-4.37,3.25-7.12,7.46-7.12s7.4,2.68,7.4,7v.21c0,4.42-3.25,7.07-7.43,7.07S161,63.8,161,59.41Zm10.13-.08v-.21c0-2.29-.91-3.56-2.67-3.56s-2.71,1.22-2.71,3.51v.21c0,2.34.91,3.61,2.71,3.61S171.17,61.59,171.17,59.33Z" fill="#fff"/><path d="M177.54,52.44h4.66v2.19a4.77,4.77,0,0,1,4.46-2.55c2.63,0,4.45,1.64,4.45,5.12V66h-4.65v-7.9c0-1.53-.6-2.28-2-2.28s-2.31.83-2.31,2.57V66h-4.66Z" fill="#fff"/><path d="M193.5,46.47h4.63V66H193.5Z" fill="#fff"/><path d="M200.52,48.75a2.57,2.57,0,1,1,2.55,2.39A2.43,2.43,0,0,1,200.52,48.75Zm.23,3.69h4.66V66h-4.66Z" fill="#fff"/><path d="M207.9,52.44h4.65v2.19A4.79,4.79,0,0,1,217,52.08c2.63,0,4.45,1.64,4.45,5.12V66h-4.65v-7.9c0-1.53-.6-2.28-1.95-2.28s-2.32.83-2.32,2.57V66H207.9Z" fill="#fff"/><path d="M223,59.41V59.2c0-4.37,3.25-7.12,7.36-7.12,3.71,0,6.91,2.13,6.91,7v1.22h-9.56a2.71,2.71,0,0,0,2.83,2.83c1.53,0,2.18-.7,2.36-1.61h4.37c-.42,3.06-2.78,4.81-6.89,4.81S223,63.85,223,59.41Zm9.75-1.72c-.08-1.63-.88-2.54-2.39-2.54a2.59,2.59,0,0,0-2.6,2.54Z" fill="#fff"/><path d="M238.57,63.7a2.59,2.59,0,0,1,2.65-2.63,2.63,2.63,0,1,1,0,5.25A2.59,2.59,0,0,1,238.57,63.7Z" fill="#fff"/><path d="M249.85,47.45h5.38L257.62,59l2.5-11.59h4.73l2.7,11.7,2.52-11.7H275L270.67,66h-5.56l-2.86-11.79L259.36,66h-5.19Z" fill="#fff"/><path d="M274.42,59.41V59.2c0-4.37,3.25-7.12,7.35-7.12,3.72,0,6.91,2.13,6.91,7v1.22h-9.56A2.71,2.71,0,0,0,282,63.15c1.54,0,2.19-.7,2.37-1.61h4.36c-.41,3.06-2.78,4.81-6.88,4.81C277.54,66.35,274.42,63.85,274.42,59.41Zm9.74-1.72c-.08-1.63-.88-2.54-2.39-2.54a2.59,2.59,0,0,0-2.6,2.54Z" fill="#fff"/><path d="M289.15,53.9l2.08-6.78,4.11,1.37-3.56,6.42Z" fill="#fff"/><path d="M295.5,52.44h4.65v2.71a4.29,4.29,0,0,1,4.39-2.89V56.6c-2.83-.08-4.39.81-4.39,3V66H295.5Z" fill="#fff"/><path d="M305.37,59.41V59.2c0-4.37,3.25-7.12,7.36-7.12,3.71,0,6.91,2.13,6.91,7v1.22h-9.56a2.71,2.71,0,0,0,2.83,2.83c1.53,0,2.18-.7,2.36-1.61h4.37c-.42,3.06-2.78,4.81-6.89,4.81S305.37,63.85,305.37,59.41Zm9.75-1.72c-.08-1.63-.88-2.54-2.39-2.54a2.59,2.59,0,0,0-2.6,2.54Z" fill="#fff"/><path d="M325.26,59.41V59.2c0-4.37,3.25-7.12,7.46-7.12s7.4,2.68,7.4,7v.21c0,4.42-3.25,7.07-7.43,7.07S325.26,63.8,325.26,59.41Zm10.13-.08v-.21c0-2.29-.91-3.56-2.67-3.56S330,56.78,330,59.07v.21c0,2.34.91,3.61,2.71,3.61S335.39,61.59,335.39,59.33Z" fill="#fff"/><path d="M341.76,52.44h4.65v2a4.81,4.81,0,0,1,4.24-2.39c3.17,0,5.74,2.39,5.74,7v.21c0,4.68-2.57,7-5.77,7A4.5,4.5,0,0,1,346.41,64v6.55h-4.65Zm9.9,6.89v-.21c0-2.39-1-3.53-2.67-3.53s-2.71,1.22-2.71,3.51v.2c0,2.32,1,3.49,2.71,3.49S351.66,61.56,351.66,59.33Z" fill="#fff"/><path d="M357.36,59.41V59.2c0-4.37,3.25-7.12,7.35-7.12,3.72,0,6.91,2.13,6.91,7v1.22h-9.56a2.71,2.71,0,0,0,2.83,2.83c1.54,0,2.19-.7,2.37-1.61h4.36c-.41,3.06-2.78,4.81-6.88,4.81C360.48,66.35,357.36,63.85,357.36,59.41Zm9.74-1.72c-.08-1.63-.88-2.54-2.39-2.54a2.59,2.59,0,0,0-2.6,2.54Z" fill="#fff"/><path d="M373.24,52.44h4.65v2.19a4.79,4.79,0,0,1,4.47-2.55c2.62,0,4.44,1.64,4.44,5.12V66h-4.65v-7.9c0-1.53-.6-2.28-1.95-2.28s-2.31.83-2.31,2.57V66h-4.65Z" fill="#fff"/><path d="M393,62.27c0-3.2,2.7-4.45,7.22-4.45h1.3v-.31c0-1.3-.31-2.16-1.79-2.16A1.68,1.68,0,0,0,397.9,57h-4.36c.21-3.27,2.78-4.88,6.49-4.88s6.14,1.53,6.14,5.14V66h-4.53V64.45a4.44,4.44,0,0,1-4,1.9C395.17,66.35,393,65.15,393,62.27Zm8.52-1v-.83h-1.22c-1.87,0-2.7.36-2.7,1.48,0,.78.52,1.27,1.61,1.27A2,2,0,0,0,401.54,61.28Z" fill="#fff"/><path d="M408.43,52.44h4.65v2.19a4.79,4.79,0,0,1,4.47-2.55c2.63,0,4.45,1.64,4.45,5.12V66h-4.66v-7.9c0-1.53-.59-2.28-1.94-2.28s-2.32.83-2.32,2.57V66h-4.65Z" fill="#fff"/><path d="M423.58,59.38v-.21c0-4.62,2.55-7.09,5.77-7.09a4.41,4.41,0,0,1,4.19,2.29v-7.9h4.65V66h-4.65v-2.2a4.6,4.6,0,0,1-4.24,2.52C426.16,66.35,423.58,64.08,423.58,59.38Zm10.09-.08v-.2c0-2.29-1-3.51-2.68-3.51s-2.68,1.17-2.68,3.53v.21c0,2.29,1,3.46,2.63,3.46S433.67,61.62,433.67,59.3Z" fill="#fff"/><path d="M444.51,62.27c0-3.2,2.7-4.45,7.22-4.45H453v-.31c0-1.3-.31-2.16-1.79-2.16A1.68,1.68,0,0,0,449.39,57H445c.21-3.27,2.78-4.88,6.49-4.88s6.14,1.53,6.14,5.14V66h-4.53V64.45a4.44,4.44,0,0,1-4,1.9C446.67,66.35,444.51,65.15,444.51,62.27Zm8.52-1v-.83h-1.22c-1.87,0-2.7.36-2.7,1.48,0,.78.52,1.27,1.61,1.27A2,2,0,0,0,453,61.28Z" fill="#fff"/><path d="M458.36,52.44h5l2.83,8.76,2.78-8.76h4.44l-5,13.59h-5.07Z" fill="#fff"/><path d="M473.2,62.27c0-3.2,2.71-4.45,7.23-4.45h1.3v-.31c0-1.3-.31-2.16-1.8-2.16A1.67,1.67,0,0,0,478.09,57h-4.37c.21-3.27,2.78-4.88,6.5-4.88s6.13,1.53,6.13,5.14V66h-4.52V64.45a4.46,4.46,0,0,1-4,1.9C475.36,66.35,473.2,65.15,473.2,62.27Zm8.53-1v-.83h-1.22c-1.88,0-2.71.36-2.71,1.48,0,.78.52,1.27,1.62,1.27A2,2,0,0,0,481.73,61.28Z" fill="#fff"/><path d="M488.51,48.75a2.57,2.57,0,1,1,2.55,2.39A2.43,2.43,0,0,1,488.51,48.75Zm.24,3.69h4.65V66h-4.65Z" fill="#fff"/><path d="M496,46.47h4.63V66H496Z" fill="#fff"/><path d="M502.37,62.27c0-3.2,2.7-4.45,7.22-4.45h1.3v-.31c0-1.3-.31-2.16-1.79-2.16A1.68,1.68,0,0,0,507.25,57h-4.36c.2-3.27,2.78-4.88,6.49-4.88s6.14,1.53,6.14,5.14V66H511V64.45a4.45,4.45,0,0,1-4,1.9C504.52,66.35,502.37,65.15,502.37,62.27Zm8.52-1v-.83h-1.22c-1.87,0-2.7.36-2.7,1.48,0,.78.52,1.27,1.61,1.27A2,2,0,0,0,510.89,61.28Z" fill="#fff"/><path d="M522.43,63.93V66h-4.65V46.47h4.65v8a4.81,4.81,0,0,1,4.24-2.39c3.17,0,5.74,2.39,5.74,7v.21c0,4.68-2.57,7-5.77,7A4.43,4.43,0,0,1,522.43,63.93Zm5.25-4.6v-.21c0-2.39-1-3.53-2.68-3.53s-2.7,1.22-2.7,3.51v.2c0,2.32,1,3.49,2.7,3.49S527.68,61.56,527.68,59.33Z" fill="#fff"/><path d="M534.23,46.47h4.63V66h-4.63Z" fill="#fff"/><path d="M540.63,59.41V59.2c0-4.37,3.25-7.12,7.35-7.12,3.72,0,6.91,2.13,6.91,7v1.22h-9.56a2.71,2.71,0,0,0,2.83,2.83c1.54,0,2.19-.7,2.37-1.61h4.36c-.41,3.06-2.78,4.81-6.88,4.81C543.75,66.35,540.63,63.85,540.63,59.41Zm9.74-1.72c-.08-1.63-.88-2.54-2.39-2.54a2.59,2.59,0,0,0-2.6,2.54Z" fill="#fff"/><path d="M556.2,63.7a2.59,2.59,0,0,1,2.65-2.63,2.63,2.63,0,1,1,0,5.25A2.59,2.59,0,0,1,556.2,63.7Z" fill="#fff"/></g></g></svg>