<svg xmlns="http://www.w3.org/2000/svg" viewBox="0 0 300 600"><title>h6</title><g id="Layer_2" data-name="Layer 2"><g id="rect"><rect width="300" height="600" fill="none"/></g><g id="Still_open._Still_finding_credits_and_deductions_daily." data-name="Still open. Still finding credits and  deductions  daily."><path d="M19,129.2h8.67c.23,2.27,1.25,4.13,5,4.13,2.62,0,4.09-1.29,4.09-3.15s-1.2-2.49-5-3.07c-9-1.07-12-3.74-12-10.14,0-5.74,4.71-9.92,12.32-9.92s12,3.21,12.53,9.92H36.19c-.32-2.27-1.61-3.42-4.09-3.42s-3.7,1.11-3.7,2.71c0,1.78,1,2.58,4.94,3.11,8,.89,12.18,3,12.18,9.87,0,5.83-4.62,10.58-12.8,10.58C23.82,139.82,19.29,136.09,19,129.2Z" fill="#fff"/><path d="M49.52,131.82V121.46h-2.8V116h2.8v-4.85h8V116h4.58v5.42H57.48v9.6c0,1.69.84,2.45,2.35,2.45a6,6,0,0,0,2.27-.4v6a17,17,0,0,1-4.4.66C52.45,139.82,49.52,137.29,49.52,131.82Z" fill="#fff"/><path d="M64.9,109.72a4.39,4.39,0,1,1,4.36,4.09A4.16,4.16,0,0,1,64.9,109.72Zm.4,6.32h8v23.25h-8Z" fill="#fff"/><path d="M77.75,105.81h7.91v33.48H77.75Z" fill="#fff"/><path d="M90.15,105.81h7.92v33.48H90.15Z" fill="#fff"/><path d="M109.18,128v-.35c0-7.47,5.56-12.19,12.76-12.19s12.67,4.58,12.67,12v.36c0,7.56-5.56,12.09-12.71,12.09S109.18,135.47,109.18,128Zm17.34-.13v-.36c0-3.91-1.56-6.09-4.58-6.09s-4.62,2.09-4.62,6v.36c0,4,1.55,6.18,4.62,6.18S126.52,131.69,126.52,127.82Z" fill="#fff"/><path d="M137.41,116h8v3.46a8.2,8.2,0,0,1,7.25-4.09c5.42,0,9.82,4.09,9.82,12v.36c0,8-4.4,12-9.87,12-3.51,0-6-1.64-7.2-3.95v11.2h-8Zm16.94,11.78v-.36c0-4.09-1.78-6-4.58-6s-4.62,2.09-4.62,6v.35c0,4,1.73,6,4.62,6S154.35,131.64,154.35,127.82Z" fill="#fff"/><path d="M164.08,128v-.35c0-7.47,5.56-12.19,12.59-12.19,6.35,0,11.82,3.65,11.82,12v2.09H172.13c.22,3.07,2,4.85,4.85,4.85,2.62,0,3.73-1.21,4-2.76h7.47c-.71,5.25-4.76,8.22-11.78,8.22C169.42,139.82,164.08,135.56,164.08,128ZM180.76,125c-.14-2.8-1.52-4.36-4.09-4.36-2.41,0-4,1.56-4.45,4.36Z" fill="#fff"/><path d="M191.24,116h8v3.73a8.22,8.22,0,0,1,7.65-4.36c4.49,0,7.6,2.8,7.6,8.76v15.12H206.5V125.77c0-2.62-1-3.91-3.34-3.91s-4,1.42-4,4.4v13h-8Z" fill="#fff"/><path d="M218,135.29a4.43,4.43,0,0,1,4.53-4.49,4.49,4.49,0,1,1,0,9A4.43,4.43,0,0,1,218,135.29Z" fill="#fff"/><path d="M19,187.06h8.67c.23,2.27,1.25,4.14,5,4.14,2.62,0,4.09-1.29,4.09-3.16s-1.2-2.49-5-3.07c-9-1.06-12-3.73-12-10.13,0-5.74,4.71-9.92,12.32-9.92s12,3.2,12.53,9.92H36.19c-.32-2.27-1.61-3.43-4.09-3.43s-3.7,1.11-3.7,2.71c0,1.78,1,2.58,4.94,3.12,8,.89,12.18,3,12.18,9.87,0,5.82-4.62,10.58-12.8,10.58C23.82,197.69,19.29,194,19,187.06Z" fill="#fff"/><path d="M49.52,189.69V179.33h-2.8V173.9h2.8v-4.84h8v4.84h4.58v5.43H57.48v9.6c0,1.69.84,2.45,2.35,2.45a6.21,6.21,0,0,0,2.27-.4v6a16.49,16.49,0,0,1-4.4.67C52.45,197.69,49.52,195.16,49.52,189.69Z" fill="#fff"/><path d="M64.9,167.59a4.39,4.39,0,1,1,4.36,4.09A4.16,4.16,0,0,1,64.9,167.59Zm.4,6.31h8v23.26h-8Z" fill="#fff"/><path d="M77.75,163.68h7.91v33.48H77.75Z" fill="#fff"/><path d="M90.15,163.68h7.92v33.48H90.15Z" fill="#fff"/><path d="M111.62,179.33h-2.93V173.9h2.93v-2c0-5.78,3.61-8.54,9.12-8.54a14.08,14.08,0,0,1,3.65.49v5.82a7.59,7.59,0,0,0-2.18-.31,2.34,2.34,0,0,0-2.67,2.54v2h4.71v5.43h-4.71v17.83h-7.92Z" fill="#fff"/><path d="M126.74,167.59a4.39,4.39,0,1,1,4.36,4.09A4.16,4.16,0,0,1,126.74,167.59Zm.4,6.31h8v23.26h-8Z" fill="#fff"/><path d="M139.36,173.9h8v3.74a8.22,8.22,0,0,1,7.65-4.36c4.49,0,7.6,2.8,7.6,8.76v15.12h-7.95V183.64c0-2.62-1-3.91-3.34-3.91s-4,1.42-4,4.4v13h-8Z" fill="#fff"/><path d="M165.28,185.77v-.35c0-7.92,4.36-12.14,9.87-12.14,3.65,0,5.83,1.56,7.16,3.91V163.68h8v33.48h-8v-3.78a7.82,7.82,0,0,1-7.25,4.31C169.68,197.69,165.28,193.82,165.28,185.77Zm17.25-.13v-.36c0-3.91-1.64-6-4.58-6s-4.58,2-4.58,6.05v.36c0,3.91,1.74,5.91,4.5,5.91S182.53,189.6,182.53,185.64Z" fill="#fff"/><path d="M194.13,167.59a4.39,4.39,0,1,1,4.36,4.09A4.16,4.16,0,0,1,194.13,167.59Zm.4,6.31h8v23.26h-8Z" fill="#fff"/><path d="M206.76,173.9h8v3.74a8.21,8.21,0,0,1,7.65-4.36c4.49,0,7.6,2.8,7.6,8.76v15.12h-8V183.64c0-2.62-1-3.91-3.33-3.91s-4,1.42-4,4.4v13h-8Z" fill="#fff"/><path d="M232.54,197.16h7.92c.35,1.69,1.38,3,4.27,3,3.51,0,4.93-2,4.93-4.89v-3.56a8.14,8.14,0,0,1-7.2,4.27c-5.43,0-9.87-4-9.87-11.16v-.36c0-6.84,4.4-11.2,9.87-11.2,3.69,0,5.87,1.56,7.2,3.91V173.9h8v21.3c0,6.94-4.58,10.58-12.89,10.58C236.81,205.78,233.17,202.45,232.54,197.16Zm17.34-12.36v-.32c0-3.2-1.64-5.24-4.58-5.24s-4.58,2.09-4.58,5.29v.35c0,3.21,1.7,5.25,4.54,5.25S249.88,188.09,249.88,184.8Z" fill="#fff"/><path d="M19.11,243.68v-.35c0-7.74,5.56-12.18,12.41-12.18,5.69,0,10.94,2.49,11.38,9.56H35.43c-.36-2.18-1.42-3.38-3.74-3.38-2.8,0-4.44,2-4.44,5.91v.36c0,4,1.55,6.13,4.58,6.13,2.22,0,3.78-1.33,4-3.87H43c-.22,5.87-4.18,9.7-11.69,9.7C24.4,255.56,19.11,251.51,19.11,243.68Z" fill="#fff"/><path d="M45.61,231.77h8v4.62a7.31,7.31,0,0,1,7.51-4.93v7.42c-4.85-.13-7.51,1.38-7.51,5.12v11h-8Z" fill="#fff"/><path d="M62.5,243.68v-.35c0-7.47,5.56-12.18,12.58-12.18,6.36,0,11.83,3.64,11.83,12v2.09H70.55c.22,3.07,2,4.85,4.85,4.85,2.62,0,3.73-1.2,4-2.76h7.47c-.71,5.25-4.76,8.23-11.78,8.23C67.84,255.56,62.5,251.29,62.5,243.68Zm16.68-2.93c-.14-2.8-1.52-4.36-4.1-4.36-2.4,0-4,1.56-4.44,4.36Z" fill="#fff"/><path d="M88.51,243.64v-.36c0-7.91,4.36-12.13,9.87-12.13,3.65,0,5.82,1.55,7.16,3.91V221.54h8V255h-8v-3.78a7.85,7.85,0,0,1-7.25,4.32C92.91,255.56,88.51,251.69,88.51,243.64Zm17.25-.13v-.36c0-3.91-1.64-6-4.58-6s-4.58,2-4.58,6v.35c0,3.91,1.73,5.91,4.49,5.91S105.76,247.46,105.76,243.51Z" fill="#fff"/><path d="M117.36,225.45a4.39,4.39,0,1,1,4.36,4.09A4.16,4.16,0,0,1,117.36,225.45Zm.4,6.32h8V255h-8Z" fill="#fff"/><path d="M131.05,247.55V237.19h-2.8v-5.42h2.8v-4.85h8v4.85h4.58v5.42H139v9.61a2.12,2.12,0,0,0,2.36,2.44,6,6,0,0,0,2.27-.4v6a16.65,16.65,0,0,1-4.41.67C134,255.56,131.05,253,131.05,247.55Z" fill="#fff"/><path d="M145.37,247.64h7.33c.27,1.69,1,2.63,3.29,2.63,2,0,2.85-.76,2.85-1.92s-1.11-1.64-4.31-2.09c-6.23-.8-8.85-2.62-8.85-7.47,0-5.15,4.58-7.64,10-7.64,5.73,0,9.74,1.95,10.27,7.51h-7.2c-.31-1.56-1.16-2.31-3-2.31s-2.63.75-2.63,1.82,1.07,1.56,3.92,1.91c6.44.8,9.56,2.49,9.56,7.47,0,5.52-4.09,8-10.54,8C149.41,255.56,145.54,252.8,145.37,247.64Z" fill="#fff"/><path d="M175.91,248.58c0-5.47,4.62-7.61,12.36-7.61h2.22v-.53c0-2.22-.53-3.69-3.07-3.69a2.86,2.86,0,0,0-3.15,2.75H176.8c.35-5.6,4.76-8.35,11.11-8.35s10.5,2.62,10.5,8.8V255h-7.74v-2.71c-1.11,1.69-3.16,3.25-6.89,3.25C179.6,255.56,175.91,253.51,175.91,248.58Zm14.58-1.69v-1.43H188.4c-3.2,0-4.62.63-4.62,2.54,0,1.33.89,2.18,2.76,2.18C188.8,250.18,190.49,248.89,190.49,246.89Z" fill="#fff"/><path d="M202.27,231.77h8v3.73a8.2,8.2,0,0,1,7.65-4.35c4.49,0,7.6,2.8,7.6,8.76V255h-8V241.51c0-2.63-1-3.92-3.33-3.92s-4,1.43-4,4.41v13h-8Z" fill="#fff"/><path d="M228.19,243.64v-.36c0-7.91,4.35-12.13,9.87-12.13,3.65,0,5.82,1.55,7.16,3.91V221.54h8V255h-8v-3.78a7.85,7.85,0,0,1-7.25,4.32C232.59,255.56,228.19,251.69,228.19,243.64Zm17.25-.13v-.36c0-3.91-1.65-6-4.58-6s-4.58,2-4.58,6v.35c0,3.91,1.73,5.91,4.49,5.91S245.44,247.46,245.44,243.51Z" fill="#fff"/><path d="M19.2,301.51v-.36c0-7.91,4.36-12.14,9.87-12.14,3.65,0,5.83,1.56,7.16,3.91V279.41h8v33.48h-8v-3.78A7.84,7.84,0,0,1,29,313.42C23.6,313.42,19.2,309.55,19.2,301.51Zm17.25-.14V301c0-3.92-1.64-6-4.58-6s-4.58,2-4.58,6.05v.36c0,3.91,1.74,5.91,4.49,5.91S36.45,305.33,36.45,301.37Z" fill="#fff"/><path d="M47,301.55v-.36C47,293.72,52.54,289,59.57,289c6.36,0,11.83,3.65,11.83,12v2.09H55c.23,3.06,2,4.84,4.85,4.84,2.62,0,3.74-1.2,4-2.75H71.4c-.71,5.24-4.76,8.22-11.79,8.22C52.32,313.42,47,309.15,47,301.55Zm16.67-2.93c-.13-2.81-1.51-4.36-4.09-4.36-2.4,0-4,1.55-4.45,4.36Z" fill="#fff"/><path d="M73,301.51v-.36c0-7.91,4.36-12.14,9.87-12.14,3.65,0,5.83,1.56,7.16,3.91V279.41h8v33.48H90v-3.78a7.82,7.82,0,0,1-7.25,4.31C77.39,313.42,73,309.55,73,301.51Zm17.25-.14V301c0-3.92-1.64-6-4.57-6s-4.59,2-4.59,6.05v.36c0,3.91,1.74,5.91,4.5,5.91S90.24,305.33,90.24,301.37Z" fill="#fff"/><path d="M101.84,304.8V289.63h8v13.88c0,2.62,1,3.91,3.29,3.91s4-1.42,4-4.4V289.63h8v23.26h-8v-3.6c-1.24,2.4-3.51,4.13-7.38,4.13C105.18,313.42,101.84,310.67,101.84,304.8Z" fill="#fff"/><path d="M127.81,301.55v-.36c0-7.73,5.55-12.18,12.4-12.18,5.69,0,10.94,2.49,11.38,9.56h-7.46c-.36-2.18-1.43-3.38-3.74-3.38-2.8,0-4.45,2-4.45,5.92v.35c0,4.05,1.56,6.14,4.58,6.14,2.23,0,3.78-1.34,4-3.87h7.16c-.22,5.87-4.18,9.69-11.7,9.69C133.1,313.42,127.81,309.38,127.81,301.55Z" fill="#fff"/><path d="M155.37,305.42V295.06h-2.8v-5.43h2.8v-4.84h8v4.84h4.58v5.43h-4.58v9.6c0,1.69.84,2.45,2.36,2.45a6.15,6.15,0,0,0,2.26-.4v6a16.49,16.49,0,0,1-4.4.67C158.3,313.42,155.37,310.89,155.37,305.42Z" fill="#fff"/><path d="M170.75,283.32a4.39,4.39,0,1,1,4.36,4.09A4.15,4.15,0,0,1,170.75,283.32Zm.4,6.31h8v23.26h-8Z" fill="#fff"/><path d="M182.13,301.55v-.36c0-7.47,5.56-12.18,12.76-12.18s12.67,4.58,12.67,12v.36c0,7.56-5.55,12.09-12.71,12.09S182.13,309.06,182.13,301.55Zm17.34-.13v-.36c0-3.91-1.55-6.09-4.58-6.09s-4.62,2.09-4.62,6v.36c0,4,1.55,6.18,4.62,6.18S199.47,305.29,199.47,301.42Z" fill="#fff"/><path d="M210.36,289.63h8v3.74A8.21,8.21,0,0,1,226,289c4.49,0,7.6,2.8,7.6,8.76v15.12h-8V299.37c0-2.62-1-3.91-3.33-3.91s-4,1.42-4,4.4v13h-8Z" fill="#fff"/><path d="M235.88,305.51h7.33c.27,1.69,1,2.62,3.29,2.62,2,0,2.85-.75,2.85-1.91s-1.11-1.65-4.31-2.09c-6.23-.8-8.85-2.62-8.85-7.47,0-5.16,4.58-7.65,10-7.65,5.73,0,9.74,2,10.27,7.52h-7.2c-.31-1.56-1.16-2.32-3-2.32s-2.63.76-2.63,1.83,1.07,1.55,3.92,1.91c6.44.8,9.56,2.49,9.56,7.47,0,5.51-4.09,8-10.54,8C239.92,313.42,236.06,310.67,235.88,305.51Z" fill="#fff"/><path d="M19.2,359.37V359c0-7.92,4.36-12.14,9.87-12.14,3.65,0,5.83,1.55,7.16,3.91V337.27h8v33.48h-8V367A7.84,7.84,0,0,1,29,371.29C23.6,371.29,19.2,367.42,19.2,359.37Zm17.25-.13v-.36c0-3.91-1.64-6-4.58-6s-4.58,2-4.58,6.05v.35c0,3.92,1.74,5.92,4.49,5.92S36.45,363.2,36.45,359.24Z" fill="#fff"/><path d="M46.9,364.31c0-5.47,4.62-7.61,12.36-7.61h2.22v-.53c0-2.22-.53-3.69-3.07-3.69a2.85,2.85,0,0,0-3.15,2.76H47.79c.35-5.61,4.75-8.36,11.11-8.36s10.5,2.62,10.5,8.8v15.07H61.66V368c-1.11,1.69-3.16,3.25-6.89,3.25C50.59,371.29,46.9,369.24,46.9,364.31Zm14.58-1.69V361.2H59.39c-3.2,0-4.62.62-4.62,2.53,0,1.33.89,2.18,2.75,2.18C59.79,365.91,61.48,364.62,61.48,362.62Z" fill="#fff"/><path d="M73.08,341.19a4.39,4.39,0,1,1,4.36,4.09A4.16,4.16,0,0,1,73.08,341.19Zm.4,6.31h8v23.25h-8Z" fill="#fff"/><path d="M85.93,337.27h7.91v33.48H85.93Z" fill="#fff"/><path d="M105.4,368.4l-9.29-20.9h8.63l4.8,12.41L114,347.5h7.61l-12.45,31h-7.61Z" fill="#fff"/><path d="M119.89,366.75a4.44,4.44,0,0,1,4.54-4.49,4.49,4.49,0,1,1,0,9A4.44,4.44,0,0,1,119.89,366.75Z" fill="#fff"/></g></g></svg>