<svg xmlns="http://www.w3.org/2000/svg" viewBox="0 0 728 90"><title>H80</title><g id="Layer_2" data-name="Layer 2"><g id="Rect"><rect width="728" height="90" fill="none"/></g><g id="H80"><g id="You_could_get_a_Refund_Advance_loan_up_to_3_500_within_minutes" data-name="You could get a Refund Advance loan up to $3,500 within minutes"><path d="M125.85,25.59l-5.66-9.92h5.41l2.94,5.85,2.94-5.85h4.75l-5.39,9.92V33h-5Z" fill="#fff"/><path d="M134.41,26.83v-.19c0-4.08,3-6.65,7-6.65s6.92,2.5,6.92,6.53v.19c0,4.12-3,6.6-6.94,6.6S134.41,30.93,134.41,26.83Zm9.46-.07v-.2c0-2.13-.85-3.32-2.5-3.32s-2.52,1.14-2.52,3.28v.19c0,2.18.85,3.37,2.52,3.37S143.87,28.87,143.87,26.76Z" fill="#fff"/><path d="M149.72,28.6V20.33h4.34V27.9c0,1.43.56,2.13,1.8,2.13s2.16-.77,2.16-2.4v-7.3h4.34V33H158v-2a4.18,4.18,0,0,1-4,2.26C151.54,33.31,149.72,31.81,149.72,28.6Z" fill="#fff"/><path d="M168.3,26.83v-.19c0-4.22,3-6.65,6.77-6.65,3.11,0,6,1.36,6.21,5.22h-4.07a1.89,1.89,0,0,0-2-1.85c-1.53,0-2.43,1.09-2.43,3.23v.19c0,2.21.85,3.35,2.5,3.35A2.12,2.12,0,0,0,177.45,28h3.9c-.12,3.2-2.28,5.29-6.38,5.29C171.19,33.31,168.3,31.1,168.3,26.83Z" fill="#fff"/><path d="M182.08,26.83v-.19c0-4.08,3-6.65,7-6.65s6.92,2.5,6.92,6.53v.19c0,4.12-3,6.6-6.94,6.6S182.08,30.93,182.08,26.83Zm9.46-.07v-.2c0-2.13-.85-3.32-2.5-3.32s-2.52,1.14-2.52,3.28v.19c0,2.18.85,3.37,2.52,3.37S191.54,28.87,191.54,26.76Z" fill="#fff"/><path d="M197.39,28.6V20.33h4.34V27.9c0,1.43.56,2.13,1.8,2.13s2.16-.77,2.16-2.4v-7.3H210V33h-4.34v-2a4.18,4.18,0,0,1-4,2.26C199.21,33.31,197.39,31.81,197.39,28.6Z" fill="#fff"/><path d="M212.36,14.75h4.32V33h-4.32Z" fill="#fff"/><path d="M218.37,26.81v-.2c0-4.32,2.38-6.62,5.39-6.62a4.13,4.13,0,0,1,3.91,2.13V14.75H232V33h-4.34V31a4.28,4.28,0,0,1-4,2.35C220.78,33.31,218.37,31.2,218.37,26.81Zm9.42-.08v-.19c0-2.13-.9-3.27-2.5-3.27s-2.5,1.09-2.5,3.29v.2c0,2.13,1,3.23,2.45,3.23S227.79,28.89,227.79,26.73Z" fill="#fff"/><path d="M237.93,33h4.32c.19.92.75,1.65,2.32,1.65a2.4,2.4,0,0,0,2.7-2.67V30.06a4.47,4.47,0,0,1-3.93,2.33c-3,0-5.39-2.19-5.39-6.09v-.2c0-3.73,2.4-6.11,5.39-6.11a4.14,4.14,0,0,1,3.93,2.13V20.33h4.34V32c0,3.79-2.5,5.77-7,5.77C240.26,37.72,238.27,35.91,237.93,33Zm9.46-6.75V26.1c0-1.74-.9-2.86-2.5-2.86s-2.5,1.14-2.5,2.89v.19c0,1.75.92,2.86,2.48,2.86S247.39,28.07,247.39,26.27Z" fill="#fff"/><path d="M253.14,26.83v-.19c0-4.08,3-6.65,6.86-6.65,3.47,0,6.46,2,6.46,6.55v1.14h-8.93a2.54,2.54,0,0,0,2.64,2.65c1.44,0,2-.66,2.21-1.51h4.08c-.39,2.86-2.6,4.49-6.43,4.49S253.14,31,253.14,26.83Zm9.1-1.6c-.08-1.53-.83-2.38-2.24-2.38a2.41,2.41,0,0,0-2.42,2.38Z" fill="#fff"/><path d="M268.54,28.94V23.29H267v-3h1.52V17.68h4.35v2.65h2.5v3h-2.5v5.24c0,.92.46,1.33,1.28,1.33a3.43,3.43,0,0,0,1.24-.21V33a9.37,9.37,0,0,1-2.4.36C270.14,33.31,268.54,31.93,268.54,28.94Z" fill="#fff"/><path d="M280.72,29.5c0-3,2.52-4.15,6.75-4.15h1.21v-.29c0-1.21-.29-2-1.68-2a1.56,1.56,0,0,0-1.72,1.5h-4.07c.19-3.06,2.59-4.56,6.06-4.56s5.73,1.43,5.73,4.8V33h-4.22V31.54A4.18,4.18,0,0,1,285,33.31C282.73,33.31,280.72,32.19,280.72,29.5Zm8-.92V27.8h-1.14c-1.75,0-2.52.34-2.52,1.38,0,.73.48,1.19,1.5,1.19C287.76,30.37,288.68,29.67,288.68,28.58Z" fill="#fff"/><path d="M299.91,15.67h6.79c4.54,0,7.06,1.85,7.06,5.51v.1a4.54,4.54,0,0,1-3.13,4.56L314.78,33h-5.24L306,26.81h-1.16V33h-4.95Zm6.55,7.91c1.67,0,2.5-.7,2.5-2.11v-.1c0-1.4-.87-2-2.47-2h-1.63v4.17Z" fill="#fff"/><path d="M314.78,26.83v-.19c0-4.08,3-6.65,6.87-6.65,3.47,0,6.45,2,6.45,6.55v1.14h-8.93a2.54,2.54,0,0,0,2.65,2.65c1.43,0,2-.66,2.2-1.51h4.08c-.39,2.86-2.6,4.49-6.43,4.49C317.69,33.31,314.78,31,314.78,26.83Zm9.1-1.6c-.07-1.53-.83-2.38-2.23-2.38a2.42,2.42,0,0,0-2.43,2.38Z" fill="#fff"/><path d="M330.26,23.29h-1.6v-3h1.6V19.21c0-3.15,2-4.65,5-4.65a8,8,0,0,1,2,.26V18a3.85,3.85,0,0,0-1.19-.17,1.27,1.27,0,0,0-1.45,1.38v1.12h2.57v3h-2.57V33h-4.32Z" fill="#fff"/><path d="M338.51,28.6V20.33h4.34V27.9c0,1.43.56,2.13,1.8,2.13s2.16-.77,2.16-2.4v-7.3h4.34V33h-4.34v-2a4.18,4.18,0,0,1-4,2.26C340.33,33.31,338.51,31.81,338.51,28.6Z" fill="#fff"/><path d="M353.35,20.33h4.35v2A4.48,4.48,0,0,1,361.87,20c2.45,0,4.15,1.53,4.15,4.78V33h-4.34V25.64c0-1.43-.56-2.13-1.82-2.13s-2.16.77-2.16,2.4V33h-4.35Z" fill="#fff"/><path d="M367.5,26.81v-.2c0-4.32,2.38-6.62,5.38-6.62a4.13,4.13,0,0,1,3.91,2.13V14.75h4.34V33h-4.34V31a4.27,4.27,0,0,1-4,2.35C369.9,33.31,367.5,31.2,367.5,26.81Zm9.41-.08v-.19c0-2.13-.9-3.27-2.5-3.27s-2.5,1.09-2.5,3.29v.2c0,2.13.95,3.23,2.46,3.23S376.91,28.89,376.91,26.73Z" fill="#fff"/><path d="M392.34,15.67h6.43L404.28,33H399l-.92-3.23h-5.75L391.42,33h-4.63Zm1,10.7h3.81l-1.89-6.67Z" fill="#fff"/><path d="M404.57,26.81v-.2C404.57,22.29,407,20,410,20a4.13,4.13,0,0,1,3.91,2.13V14.75h4.34V33h-4.34V31a4.27,4.27,0,0,1-3.95,2.35C407,33.31,404.57,31.2,404.57,26.81Zm9.41-.08v-.19c0-2.13-.9-3.27-2.5-3.27s-2.5,1.09-2.5,3.29v.2c0,2.13.95,3.23,2.45,3.23S414,28.89,414,26.73Z" fill="#fff"/><path d="M419.32,20.33H424l2.65,8.18,2.59-8.18h4.15L428.71,33H424Z" fill="#fff"/><path d="M433.17,29.5c0-3,2.52-4.15,6.75-4.15h1.21v-.29c0-1.21-.29-2-1.68-2a1.56,1.56,0,0,0-1.72,1.5h-4.07c.19-3.06,2.59-4.56,6.06-4.56s5.73,1.43,5.73,4.8V33h-4.22V31.54a4.19,4.19,0,0,1-3.77,1.77C435.18,33.31,433.17,32.19,433.17,29.5Zm8-.92V27.8H440c-1.75,0-2.53.34-2.53,1.38,0,.73.49,1.19,1.51,1.19C440.21,30.37,441.13,29.67,441.13,28.58Z" fill="#fff"/><path d="M447.56,20.33h4.34v2A4.48,4.48,0,0,1,456.07,20c2.45,0,4.15,1.53,4.15,4.78V33h-4.34V25.64c0-1.43-.56-2.13-1.82-2.13s-2.16.77-2.16,2.4V33h-4.34Z" fill="#fff"/><path d="M461.65,26.83v-.19c0-4.22,3-6.65,6.77-6.65,3.11,0,6,1.36,6.21,5.22h-4.07a1.89,1.89,0,0,0-2-1.85c-1.53,0-2.43,1.09-2.43,3.23v.19c0,2.21.85,3.35,2.5,3.35A2.12,2.12,0,0,0,470.8,28h3.91c-.13,3.2-2.29,5.29-6.39,5.29C464.54,33.31,461.65,31.1,461.65,26.83Z" fill="#fff"/><path d="M475.43,26.83v-.19c0-4.08,3-6.65,6.87-6.65,3.47,0,6.45,2,6.45,6.55v1.14h-8.93a2.55,2.55,0,0,0,2.65,2.65c1.43,0,2-.66,2.21-1.51h4.07c-.39,2.86-2.59,4.49-6.43,4.49S475.43,31,475.43,26.83Zm9.1-1.6c-.07-1.53-.82-2.38-2.23-2.38a2.42,2.42,0,0,0-2.43,2.38Z" fill="#fff"/><path d="M494.79,14.75h4.32V33h-4.32Z" fill="#fff"/><path d="M500.76,26.83v-.19c0-4.08,3-6.65,7-6.65s6.92,2.5,6.92,6.53v.19c0,4.12-3,6.6-6.94,6.6S500.76,30.93,500.76,26.83Zm9.46-.07v-.2c0-2.13-.85-3.32-2.5-3.32s-2.52,1.14-2.52,3.28v.19c0,2.18.85,3.37,2.52,3.37S510.22,28.87,510.22,26.76Z" fill="#fff"/><path d="M515.44,29.5c0-3,2.52-4.15,6.74-4.15h1.21v-.29c0-1.21-.29-2-1.67-2a1.55,1.55,0,0,0-1.72,1.5h-4.08c.2-3.06,2.6-4.56,6.07-4.56s5.72,1.43,5.72,4.8V33h-4.22V31.54a4.17,4.17,0,0,1-3.76,1.77C517.45,33.31,515.44,32.19,515.44,29.5Zm7.95-.92V27.8h-1.14c-1.74,0-2.52.34-2.52,1.38,0,.73.49,1.19,1.51,1.19A1.91,1.91,0,0,0,523.39,28.58Z" fill="#fff"/><path d="M529.82,20.33h4.35v2A4.47,4.47,0,0,1,538.34,20c2.45,0,4.15,1.53,4.15,4.78V33h-4.35V25.64c0-1.43-.55-2.13-1.81-2.13s-2.16.77-2.16,2.4V33h-4.35Z" fill="#fff"/><path d="M121.19,54.68V46.41h4.34V54c0,1.43.56,2.13,1.8,2.13s2.16-.77,2.16-2.4v-7.3h4.34V59.1h-4.34v-2a4.18,4.18,0,0,1-4,2.26C123,59.39,121.19,57.89,121.19,54.68Z" fill="#fff"/><path d="M136,46.41h4.34V48.3a4.49,4.49,0,0,1,4-2.23c3,0,5.37,2.23,5.37,6.58v.19c0,4.37-2.41,6.55-5.39,6.55a4.18,4.18,0,0,1-3.93-2.16v6.11H136Zm9.24,6.43v-.19c0-2.24-1-3.3-2.5-3.3s-2.52,1.14-2.52,3.27v.19c0,2.16.94,3.26,2.52,3.26S145.28,54.93,145.28,52.84Z" fill="#fff"/><path d="M156.27,55V49.37h-1.53v-3h1.53V43.77h4.34v2.64h2.5v3h-2.5v5.24a1.16,1.16,0,0,0,1.29,1.33,3.37,3.37,0,0,0,1.23-.21V59a9.29,9.29,0,0,1-2.4.36C157.87,59.39,156.27,58,156.27,55Z" fill="#fff"/><path d="M164.08,52.91v-.19c0-4.08,3-6.65,7-6.65S178,48.57,178,52.6v.19c0,4.13-3,6.6-6.94,6.6S164.08,57,164.08,52.91Zm9.46-.07v-.19c0-2.14-.85-3.33-2.5-3.33s-2.52,1.14-2.52,3.28v.19c0,2.18.85,3.37,2.52,3.37S173.54,55,173.54,52.84Z" fill="#fff"/><path d="M186.69,51.16c-2.45-.17-3.64-1.47-3.74-3.34h2.62a1.34,1.34,0,0,0,1.12,1.33V47.09c-2.46-.36-3.51-1.25-3.51-3.21,0-1.71,1.34-2.94,3.51-3.1V39.52h1.1v1.27c2.05.17,3.27,1.12,3.44,3.06h-2.56a1.13,1.13,0,0,0-.88-1.06v2c2.17.31,3.58,1,3.58,3.1,0,1.72-1.12,3.17-3.58,3.32v1.77h-1.1Zm0-6.59V42.76c-.64.11-1,.45-1,.91S185.92,44.42,186.69,44.57Zm1.1,2.7v1.88a1,1,0,0,0,1-1C188.74,47.68,188.54,47.44,187.79,47.27Z" fill="#fff"/><path d="M192.23,53.4h4.42a2.32,2.32,0,0,0,2.55,2.4c1.52,0,2.28-.73,2.28-2s-.73-2-2.28-2h-1.39V48.71h1.29c1.55,0,2.3-.7,2.3-1.91,0-1-.68-1.72-2-1.72a2.21,2.21,0,0,0-2.3,2.2h-4.39c.22-3.42,2.5-5.77,6.81-5.77,4.08,0,6.53,1.87,6.53,4.75A3.69,3.69,0,0,1,203.13,50a3.91,3.91,0,0,1,3.37,3.93c0,3.3-2.45,5.46-7,5.46C194.63,59.39,192.38,57.16,192.23,53.4Z" fill="#fff"/><path d="M206.91,61.06l2-6.38,4,1.43-3.5,6Z" fill="#fff"/><path d="M213.78,53.64h4.51a2,2,0,0,0,2.25,2c1.44,0,2.09-1.06,2.09-2.45a2.2,2.2,0,0,0-2.35-2.47A3.57,3.57,0,0,0,217.41,52h-3l.37-10.22h11.69v3.64h-8.1l-.1,3.83a4.64,4.64,0,0,1,4.05-1.84c3.18,0,5.27,2.14,5.27,5.9s-2.65,6.11-7,6.11C216,59.39,213.9,56.89,213.78,53.64Z" fill="#fff"/><path d="M228.84,50.8v-.73c0-5.48,3.42-8.56,8-8.56s8,2.84,8,8.47v.68c0,5.5-3.15,8.73-8.1,8.73S228.84,56.26,228.84,50.8Zm11,0v-.7c0-3.18-.92-4.78-3-4.78s-3,1.58-3,4.78v.73c0,3.22.95,4.75,3.09,4.75S239.88,54,239.88,50.75Z" fill="#fff"/><path d="M246.24,50.8v-.73c0-5.48,3.42-8.56,8-8.56s8,2.84,8,8.47v.68c0,5.5-3.16,8.73-8.1,8.73S246.24,56.26,246.24,50.8Zm11,0v-.7c0-3.18-.92-4.78-3-4.78s-3,1.58-3,4.78v.73c0,3.22.95,4.75,3.08,4.75S257.27,54,257.27,50.75Z" fill="#fff"/><path d="M267.39,46.41h4.54L273.77,54l2.14-7.59h3.49L281.29,54l2.06-7.59h4.13l-4,12.69H279.3L277.41,52l-2,7.09h-4.22Z" fill="#fff"/><path d="M288.5,43a2.26,2.26,0,0,1,2.37-2.25,2.25,2.25,0,1,1,0,4.49A2.25,2.25,0,0,1,288.5,43Zm.21,3.45h4.35V59.1h-4.35Z" fill="#fff"/><path d="M296,55V49.37h-1.53v-3H296V43.77h4.34v2.64h2.5v3h-2.5v5.24a1.16,1.16,0,0,0,1.29,1.33,3.37,3.37,0,0,0,1.23-.21V59a9.29,9.29,0,0,1-2.4.36C297.57,59.39,296,58,296,55Z" fill="#fff"/><path d="M304.46,40.83h4.34v7.62A4.48,4.48,0,0,1,313,46.07c2.45,0,4.14,1.53,4.14,4.78V59.1h-4.34V51.72c0-1.43-.56-2.13-1.82-2.13s-2.16.77-2.16,2.4V59.1h-4.34Z" fill="#fff"/><path d="M319.14,43a2.26,2.26,0,0,1,2.37-2.25,2.25,2.25,0,1,1,0,4.49A2.25,2.25,0,0,1,319.14,43Zm.21,3.45h4.35V59.1h-4.35Z" fill="#fff"/><path d="M326,46.41h4.34v2a4.48,4.48,0,0,1,4.17-2.38c2.45,0,4.15,1.53,4.15,4.78V59.1h-4.34V51.72c0-1.43-.56-2.13-1.82-2.13s-2.16.77-2.16,2.4V59.1H326Z" fill="#fff"/><path d="M345.21,46.41h4.35v1.94a4.44,4.44,0,0,1,4-2.28A3.45,3.45,0,0,1,357,48.18a5,5,0,0,1,4.2-2.11c2.4,0,4.15,1.55,4.15,4.73v8.3H361V51.53c0-1.29-.63-1.92-1.62-1.92a1.88,1.88,0,0,0-1.94,2.14V59.1h-4.3V51.53c0-1.29-.63-1.92-1.62-1.92a1.88,1.88,0,0,0-1.94,2.14V59.1h-4.35Z" fill="#fff"/><path d="M367.34,43a2.4,2.4,0,1,1,2.38,2.24A2.27,2.27,0,0,1,367.34,43Zm.22,3.45h4.34V59.1h-4.34Z" fill="#fff"/><path d="M374.23,46.41h4.34v2a4.48,4.48,0,0,1,4.18-2.38c2.45,0,4.14,1.53,4.14,4.78V59.1h-4.34V51.72c0-1.43-.56-2.13-1.82-2.13s-2.16.77-2.16,2.4V59.1h-4.34Z" fill="#fff"/><path d="M388.91,54.68V46.41h4.34V54c0,1.43.56,2.13,1.8,2.13s2.16-.77,2.16-2.4v-7.3h4.34V59.1h-4.34v-2a4.18,4.18,0,0,1-4,2.26C390.73,59.39,388.91,57.89,388.91,54.68Z" fill="#fff"/><path d="M404.34,55V49.37h-1.53v-3h1.53V43.77h4.34v2.64h2.5v3h-2.5v5.24A1.16,1.16,0,0,0,410,55.94a3.41,3.41,0,0,0,1.23-.21V59a9.37,9.37,0,0,1-2.4.36C405.94,59.39,404.34,58,404.34,55Z" fill="#fff"/><path d="M412.15,52.91v-.19c0-4.08,3-6.65,6.87-6.65,3.47,0,6.45,2,6.45,6.55v1.14h-8.93a2.53,2.53,0,0,0,2.65,2.65c1.43,0,2-.66,2.2-1.51h4.08c-.39,2.86-2.6,4.49-6.43,4.49C415.06,59.39,412.15,57.06,412.15,52.91Zm9.1-1.6c-.08-1.53-.83-2.38-2.23-2.38a2.42,2.42,0,0,0-2.43,2.38Z" fill="#fff"/><path d="M426.24,55.07h4c.14.92.56,1.43,1.79,1.43,1.07,0,1.56-.41,1.56-1s-.61-.9-2.36-1.14c-3.39-.44-4.83-1.43-4.83-4.08,0-2.81,2.5-4.17,5.44-4.17,3.13,0,5.31,1.07,5.6,4.1h-3.93a1.41,1.41,0,0,0-1.62-1.26c-.95,0-1.43.41-1.43,1s.58.85,2.13,1.05c3.52.43,5.22,1.36,5.22,4.07,0,3-2.24,4.37-5.75,4.37S426.34,57.89,426.24,55.07Z" fill="#fff"/><path d="M443,52.91v-.19c0-4.08,3-6.65,7-6.65s6.92,2.5,6.92,6.53v.19c0,4.13-3,6.6-6.94,6.6S443,57,443,52.91Zm9.46-.07v-.19c0-2.14-.85-3.33-2.5-3.33s-2.52,1.14-2.52,3.28v.19c0,2.18.85,3.37,2.52,3.37S452.42,55,452.42,52.84Z" fill="#fff"/><path d="M459,49.37h-1.6v-3H459V45.29c0-3.15,2-4.65,5-4.65a8,8,0,0,1,2,.26v3.18a3.85,3.85,0,0,0-1.19-.17,1.27,1.27,0,0,0-1.45,1.38v1.12h2.57v3h-2.57V59.1H459Z" fill="#fff"/><path d="M472.44,49.37h-1.61v-3h1.61V45.29c0-3.15,2-4.65,5-4.65a8,8,0,0,1,2,.26v3.18a3.9,3.9,0,0,0-1.19-.17,1.28,1.28,0,0,0-1.46,1.38v1.12h2.58v3h-2.58V59.1h-4.31Z" fill="#fff"/><path d="M480.68,43a2.4,2.4,0,1,1,2.38,2.24A2.27,2.27,0,0,1,480.68,43Zm.22,3.45h4.35V59.1H480.9Z" fill="#fff"/><path d="M487.69,40.83H492V59.1h-4.32Z" fill="#fff"/><path d="M494.24,43a2.4,2.4,0,1,1,2.38,2.24A2.27,2.27,0,0,1,494.24,43Zm.22,3.45h4.35V59.1h-4.35Z" fill="#fff"/><path d="M501.13,46.41h4.35v2a4.48,4.48,0,0,1,4.17-2.38c2.45,0,4.15,1.53,4.15,4.78V59.1h-4.34V51.72c0-1.43-.56-2.13-1.82-2.13s-2.16.77-2.16,2.4V59.1h-4.35Z" fill="#fff"/><path d="M515.21,59.1h4.31c.2.92.76,1.65,2.33,1.65a2.4,2.4,0,0,0,2.7-2.67V56.14a4.47,4.47,0,0,1-3.93,2.33c-3,0-5.39-2.19-5.39-6.09v-.2c0-3.73,2.4-6.11,5.39-6.11a4.13,4.13,0,0,1,3.93,2.14v-1.8h4.34V58c0,3.79-2.5,5.78-7,5.78C517.53,63.81,515.54,62,515.21,59.1Zm9.46-6.75v-.17c0-1.74-.9-2.86-2.5-2.86s-2.5,1.14-2.5,2.89v.19c0,1.75.92,2.87,2.47,2.87S524.67,54.15,524.67,52.35Z" fill="#fff"/><path d="M530.93,56.92a2.42,2.42,0,0,1,2.47-2.46,2.46,2.46,0,1,1,0,4.91A2.42,2.42,0,0,1,530.93,56.92Z" fill="#fff"/></g></g></g></svg>