<svg xmlns="http://www.w3.org/2000/svg" viewBox="0 0 728 90"><title>Asset 1</title><g id="Layer_2" data-name="Layer 2"><g id="Rect"><rect width="728" height="90" fill="none"/></g><g id="More_parents_can_file_free_with_H_R_Block_Online_than_TurboTax." data-name="More parents can file free with H&amp;R Block Online than TurboTax."><path d="M121.92,18.76h7.45l3.82,10.62L137,18.76h7.31V38.7h-5.69V26.29L133.75,38.7h-1.9L127,26.29V38.7h-5.11Z" fill="#fff"/><path d="M146.37,31.59v-.23c0-4.68,3.48-7.64,8-7.64s7.95,2.87,7.95,7.5v.23c0,4.74-3.49,7.58-8,7.58S146.37,36.3,146.37,31.59Zm10.87-.09v-.22c0-2.45-1-3.82-2.87-3.82s-2.9,1.31-2.9,3.76v.23c0,2.51,1,3.87,2.9,3.87S157.24,33.93,157.24,31.5Z" fill="#fff"/><path d="M164.08,24.11h5V27a4.6,4.6,0,0,1,4.72-3.09v4.65c-3-.08-4.72.87-4.72,3.21V38.7h-5Z" fill="#fff"/><path d="M174.68,31.59v-.23c0-4.68,3.49-7.64,7.9-7.64,4,0,7.42,2.29,7.42,7.53v1.31H179.73a2.91,2.91,0,0,0,3,3c1.65,0,2.35-.75,2.54-1.73H190c-.45,3.3-3,5.16-7.39,5.16C178,39,174.68,36.36,174.68,31.59Zm10.46-1.84C185.06,28,184.2,27,182.58,27s-2.54,1-2.79,2.74Z" fill="#fff"/><path d="M196.81,24.11h5v2.18a5.14,5.14,0,0,1,4.55-2.57c3.4,0,6.16,2.57,6.16,7.56v.22c0,5-2.76,7.53-6.19,7.53a4.82,4.82,0,0,1-4.52-2.48v7h-5Zm10.63,7.39v-.22c0-2.57-1.12-3.79-2.88-3.79s-2.9,1.31-2.9,3.76v.23c0,2.48,1.09,3.73,2.9,3.73S207.44,33.9,207.44,31.5Z" fill="#fff"/><path d="M213.49,34.66c0-3.44,2.9-4.77,7.76-4.77h1.39v-.34c0-1.39-.33-2.31-1.92-2.31a1.78,1.78,0,0,0-2,1.73h-4.69c.22-3.52,3-5.25,7-5.25s6.59,1.65,6.59,5.52V38.7h-4.86V37a4.78,4.78,0,0,1-4.32,2C215.81,39,213.49,37.75,213.49,34.66Zm9.15-1.06v-.9h-1.31c-2,0-2.9.39-2.9,1.59,0,.84.56,1.37,1.73,1.37A2.2,2.2,0,0,0,222.64,33.6Z" fill="#fff"/><path d="M230,24.11h5V27a4.59,4.59,0,0,1,4.71-3.09v4.65c-3-.08-4.71.87-4.71,3.21V38.7h-5Z" fill="#fff"/><path d="M240.64,31.59v-.23c0-4.68,3.48-7.64,7.89-7.64,4,0,7.42,2.29,7.42,7.53v1.31H245.69a2.91,2.91,0,0,0,3,3c1.64,0,2.34-.75,2.54-1.73H256c-.44,3.3-3,5.16-7.39,5.16C244,39,240.64,36.36,240.64,31.59Zm10.46-1.84C251,28,250.15,27,248.53,27s-2.54,1-2.79,2.74Z" fill="#fff"/><path d="M257.68,24.11h5v2.34a5.16,5.16,0,0,1,4.8-2.73c2.81,0,4.76,1.76,4.76,5.5V38.7h-5V30.22c0-1.65-.64-2.45-2.09-2.45s-2.48.89-2.48,2.76V38.7h-5Z" fill="#fff"/><path d="M275.35,34v-6.5h-1.76v-3.4h1.76v-3h5v3h2.87v3.4h-2.87v6a1.33,1.33,0,0,0,1.48,1.53,3.78,3.78,0,0,0,1.42-.25v3.8a10.84,10.84,0,0,1-2.76.41C277.19,39,275.35,37.44,275.35,34Z" fill="#fff"/><path d="M284.33,34.07h4.6c.17,1.06.64,1.65,2.07,1.65,1.22,0,1.78-.48,1.78-1.2s-.7-1-2.71-1.31c-3.9-.51-5.55-1.65-5.55-4.69,0-3.24,2.88-4.8,6.25-4.8,3.6,0,6.11,1.23,6.45,4.72H292.7A1.64,1.64,0,0,0,290.83,27c-1.09,0-1.65.48-1.65,1.15s.67,1,2.46,1.2c4,.5,6,1.56,6,4.68,0,3.46-2.56,5-6.61,5S284.44,37.31,284.33,34.07Z" fill="#fff"/><path d="M303.55,31.59v-.23c0-4.85,3.49-7.64,7.78-7.64,3.57,0,6.87,1.56,7.14,6h-4.68a2.16,2.16,0,0,0-2.34-2.12c-1.76,0-2.79,1.25-2.79,3.71v.22c0,2.54,1,3.85,2.87,3.85A2.44,2.44,0,0,0,314.07,33h4.49c-.14,3.69-2.62,6.08-7.34,6.08C306.87,39,303.55,36.5,303.55,31.59Z" fill="#fff"/><path d="M319.43,34.66c0-3.44,2.9-4.77,7.75-4.77h1.4v-.34c0-1.39-.34-2.31-1.93-2.31a1.78,1.78,0,0,0-2,1.73H320c.23-3.52,3-5.25,7-5.25s6.58,1.65,6.58,5.52V38.7h-4.85V37a4.8,4.8,0,0,1-4.33,2C321.74,39,319.43,37.75,319.43,34.66Zm9.15-1.06v-.9h-1.32c-2,0-2.9.39-2.9,1.59,0,.84.56,1.37,1.73,1.37C327.52,35.66,328.58,34.85,328.58,33.6Z" fill="#fff"/><path d="M336,24.11h5v2.34a5.16,5.16,0,0,1,4.8-2.73c2.82,0,4.77,1.76,4.77,5.5V38.7h-5V30.22c0-1.65-.64-2.45-2.09-2.45s-2.49.89-2.49,2.76V38.7h-5Z" fill="#fff"/><path d="M358.79,27.51H357v-3.4h1.84V22.83c0-3.63,2.26-5.36,5.72-5.36a8.8,8.8,0,0,1,2.29.31v3.65a4.71,4.71,0,0,0-1.37-.19,1.46,1.46,0,0,0-1.67,1.59v1.28h2.95v3.4h-2.95V38.7h-5Z" fill="#fff"/><path d="M368.28,20.15A2.75,2.75,0,1,1,371,22.72,2.6,2.6,0,0,1,368.28,20.15Zm.25,4h5V38.7h-5Z" fill="#fff"/><path d="M376.34,17.7h5v21h-5Z" fill="#fff"/><path d="M383.2,31.59v-.23c0-4.68,3.49-7.64,7.9-7.64,4,0,7.42,2.29,7.42,7.53v1.31H388.25a2.91,2.91,0,0,0,3,3c1.65,0,2.35-.75,2.54-1.73h4.69c-.45,3.3-3,5.16-7.39,5.16C386.55,39,383.2,36.36,383.2,31.59Zm10.46-1.84C393.58,28,392.72,27,391.1,27s-2.54,1-2.79,2.74Z" fill="#fff"/><path d="M406.08,27.51h-1.84v-3.4h1.84V22.83c0-3.63,2.26-5.36,5.72-5.36a8.8,8.8,0,0,1,2.29.31v3.65a4.71,4.71,0,0,0-1.37-.19,1.46,1.46,0,0,0-1.67,1.59v1.28H414v3.4h-2.95V38.7h-5Z" fill="#fff"/><path d="M415.68,24.11h5V27a4.6,4.6,0,0,1,4.71-3.09v4.65c-3-.08-4.71.87-4.71,3.21V38.7h-5Z" fill="#fff"/><path d="M426.28,31.59v-.23c0-4.68,3.49-7.64,7.89-7.64,4,0,7.42,2.29,7.42,7.53v1.31H431.33a2.91,2.91,0,0,0,3,3c1.65,0,2.34-.75,2.54-1.73h4.68c-.44,3.3-3,5.16-7.39,5.16C429.63,39,426.28,36.36,426.28,31.59Zm10.46-1.84c-.08-1.76-.95-2.74-2.57-2.74s-2.53,1-2.79,2.74Z" fill="#fff"/><path d="M442.55,31.59v-.23c0-4.68,3.48-7.64,7.89-7.64,4,0,7.42,2.29,7.42,7.53v1.31H447.59a2.91,2.91,0,0,0,3,3c1.65,0,2.35-.75,2.54-1.73h4.69c-.45,3.3-3,5.16-7.39,5.16C445.89,39,442.55,36.36,442.55,31.59ZM453,29.75c-.09-1.76-.95-2.74-2.57-2.74s-2.54,1-2.79,2.74Z" fill="#fff"/><path d="M463.44,24.11h5.22l2.12,8.73,2.45-8.73h4l2.18,8.73,2.37-8.73h4.74L481.91,38.7h-4.77L475,30.56,472.7,38.7h-4.85Z" fill="#fff"/><path d="M487.71,20.15a2.76,2.76,0,1,1,2.74,2.57A2.61,2.61,0,0,1,487.71,20.15Zm.26,4h5V38.7h-5Z" fill="#fff"/><path d="M496.31,34v-6.5h-1.76v-3.4h1.76v-3h5v3h2.87v3.4H501.3v6a1.33,1.33,0,0,0,1.48,1.53,3.71,3.71,0,0,0,1.42-.25v3.8a10.84,10.84,0,0,1-2.76.41C498.15,39,496.31,37.44,496.31,34Z" fill="#fff"/><path d="M506.07,17.7h5v8.75a5.15,5.15,0,0,1,4.79-2.73c2.82,0,4.77,1.76,4.77,5.5V38.7h-5V30.22c0-1.65-.64-2.45-2.09-2.45s-2.48.89-2.48,2.76V38.7h-5Z" fill="#fff"/><path d="M121.92,48.66h5.75v7.61h6.56V48.66h5.71V68.6h-5.71V60.73h-6.56V68.6h-5.75Z" fill="#fff"/><path d="M159.08,64.53l3.32,4.07h-6.5l-1.17-1.45a8,8,0,0,1-5.38,1.78c-4.24,0-7-2.23-7-6,0-2.57,1.56-4.46,4.38-5.8a6.34,6.34,0,0,1-1.23-3.49c0-3.4,2.9-5.21,6.42-5.21,3.17,0,6.05,1.59,6.05,4.65,0,2.18-1.29,3.77-4,4.94l2.51,3.07,1.45-2.85h4.35Zm-6.91-.59L149,60.15a2.35,2.35,0,0,0-1.33,2.15,2.31,2.31,0,0,0,2.53,2.48A2.62,2.62,0,0,0,152.17,63.94Zm-.62-8c1.34-.64,2-1.4,2-2.43A1.43,1.43,0,0,0,152.05,52a1.59,1.59,0,0,0-1.64,1.73A3.65,3.65,0,0,0,151.55,55.91Z" fill="#fff"/><path d="M164.22,48.66H172c5.22,0,8.12,2.12,8.12,6.33v.11a5.22,5.22,0,0,1-3.6,5.24l4.77,8.26h-6l-4-7.14h-1.34V68.6h-5.69Zm7.53,9.09c1.93,0,2.87-.81,2.87-2.43v-.11c0-1.62-1-2.26-2.84-2.26h-1.87v4.8Z" fill="#fff"/><path d="M188.33,48.66h8.89c4.72,0,6.73,2.12,6.73,5.21V54a4.12,4.12,0,0,1-3.38,4.3,4.33,4.33,0,0,1,4,4.66v.11c0,3.57-2.32,5.55-7.25,5.55h-9Zm7.75,7.92c1.79,0,2.45-.62,2.45-2v-.11c0-1.37-.72-2-2.45-2H193.9v4.13Zm.2,8.2c1.81,0,2.65-.84,2.65-2.32v-.11c0-1.5-.81-2.29-2.82-2.29H193.9v4.72Z" fill="#fff"/><path d="M206.54,47.6h5v21h-5Z" fill="#fff"/><path d="M213.41,61.49v-.23c0-4.68,3.48-7.64,8-7.64s8,2.87,8,7.5v.23c0,4.74-3.48,7.58-8,7.58S213.41,66.2,213.41,61.49Zm10.88-.09v-.22c0-2.45-1-3.82-2.88-3.82s-2.9,1.31-2.9,3.76v.23c0,2.51,1,3.87,2.9,3.87S224.29,63.83,224.29,61.4Z" fill="#fff"/><path d="M230.34,61.49v-.23c0-4.85,3.49-7.64,7.78-7.64,3.58,0,6.87,1.56,7.15,6h-4.69a2.15,2.15,0,0,0-2.34-2.12c-1.76,0-2.79,1.25-2.79,3.71v.22c0,2.54,1,3.85,2.87,3.85a2.44,2.44,0,0,0,2.54-2.43h4.49c-.14,3.69-2.62,6.08-7.34,6.08C233.66,68.93,230.34,66.4,230.34,61.49Z" fill="#fff"/><path d="M247,47.6h5V59.79L255.9,54h5.18l-4.77,6.56,5.17,8H255.9L252,62.21V68.6h-5Z" fill="#fff"/><path d="M267.11,58.75v-.22c0-6.08,4.58-10.15,10.55-10.15s10.57,3.82,10.57,10v.22c0,6.14-4.21,10.32-10.66,10.32S267.11,64.75,267.11,58.75Zm15.15,0v-.23c0-3.54-1.78-5.63-4.6-5.63s-4.58,2-4.58,5.66v.23c0,3.62,1.84,5.71,4.61,5.71S282.26,62.27,282.26,58.7Z" fill="#fff"/><path d="M290.16,54h5v2.34a5.16,5.16,0,0,1,4.8-2.73c2.82,0,4.77,1.76,4.77,5.5V68.6h-5V60.12c0-1.65-.65-2.45-2.1-2.45s-2.48.89-2.48,2.76V68.6h-5Z" fill="#fff"/><path d="M307.29,47.6h5v21h-5Z" fill="#fff"/><path d="M314.82,50.05a2.76,2.76,0,1,1,2.74,2.57A2.6,2.6,0,0,1,314.82,50.05Zm.25,4h5V68.6h-5Z" fill="#fff"/><path d="M322.75,54h5v2.34a5.16,5.16,0,0,1,4.8-2.73c2.81,0,4.77,1.76,4.77,5.5V68.6h-5V60.12c0-1.65-.64-2.45-2.09-2.45s-2.48.89-2.48,2.76V68.6h-5Z" fill="#fff"/><path d="M339,61.49v-.23c0-4.68,3.48-7.64,7.89-7.64,4,0,7.42,2.29,7.42,7.53v1.31H344a2.91,2.91,0,0,0,3,3c1.65,0,2.35-.75,2.54-1.73h4.69c-.45,3.3-3,5.16-7.39,5.16C342.3,68.93,339,66.26,339,61.49Zm10.46-1.84c-.09-1.76-.95-2.74-2.57-2.74s-2.54,1-2.79,2.74Z" fill="#fff"/><path d="M361.75,63.91V57.42H360V54h1.76V51h5v3h2.88v3.41h-2.88v6A1.33,1.33,0,0,0,368.22,65a3.71,3.71,0,0,0,1.42-.25v3.8a10.84,10.84,0,0,1-2.76.41C363.59,68.93,361.75,67.34,361.75,63.91Z" fill="#fff"/><path d="M371.51,47.6h5v8.75a5.15,5.15,0,0,1,4.79-2.73c2.82,0,4.77,1.76,4.77,5.5V68.6h-5V60.12c0-1.65-.64-2.45-2.09-2.45s-2.48.89-2.48,2.76V68.6h-5Z" fill="#fff"/><path d="M387.67,64.56c0-3.44,2.9-4.77,7.75-4.77h1.4v-.34c0-1.39-.34-2.31-1.93-2.31a1.79,1.79,0,0,0-2,1.73h-4.68c.22-3.52,3-5.25,7-5.25s6.58,1.65,6.58,5.52V68.6h-4.85V66.9a4.79,4.79,0,0,1-4.32,2C390,68.93,387.67,67.65,387.67,64.56Zm9.15-1.06v-.9h-1.31c-2,0-2.9.39-2.9,1.59,0,.84.55,1.37,1.72,1.37C395.76,65.56,396.82,64.75,396.82,63.5Z" fill="#fff"/><path d="M404.21,54h5v2.34A5.15,5.15,0,0,1,414,53.62c2.82,0,4.77,1.76,4.77,5.5V68.6h-5V60.12c0-1.65-.64-2.45-2.09-2.45s-2.48.89-2.48,2.76V68.6h-5Z" fill="#fff"/><path d="M430.55,53.06h-5.16v-4.4h16.06v4.4h-5.16V68.6h-5.74Z" fill="#fff"/><path d="M441.91,63.52V54h5v8.7c0,1.65.64,2.46,2.06,2.46s2.48-.89,2.48-2.76V54h5V68.6h-5V66.34a4.78,4.78,0,0,1-4.63,2.59C444,68.93,441.91,67.21,441.91,63.52Z" fill="#fff"/><path d="M459,54h5v2.9a4.6,4.6,0,0,1,4.72-3.09v4.65c-3-.08-4.72.87-4.72,3.21V68.6h-5Z" fill="#fff"/><path d="M475.49,66.34V68.6h-5v-21h5v8.59A5.15,5.15,0,0,1,480,53.62c3.4,0,6.17,2.57,6.17,7.56v.22c0,5-2.77,7.53-6.2,7.53A4.74,4.74,0,0,1,475.49,66.34Zm5.64-4.94v-.22c0-2.57-1.12-3.79-2.87-3.79s-2.9,1.31-2.9,3.76v.23c0,2.48,1.08,3.73,2.9,3.73S481.13,63.8,481.13,61.4Z" fill="#fff"/><path d="M487.24,61.49v-.23c0-4.68,3.49-7.64,8-7.64s7.95,2.87,7.95,7.5v.23c0,4.74-3.49,7.58-8,7.58S487.24,66.2,487.24,61.49Zm10.88-.09v-.22c0-2.45-1-3.82-2.87-3.82s-2.9,1.31-2.9,3.76v.23c0,2.51,1,3.87,2.9,3.87S498.12,63.83,498.12,61.4Z" fill="#fff"/><path d="M509.23,53.06h-5.16v-4.4h16.06v4.4H515V68.6h-5.74Z" fill="#fff"/><path d="M519.13,64.56c0-3.44,2.9-4.77,7.76-4.77h1.39v-.34c0-1.39-.33-2.31-1.92-2.31a1.78,1.78,0,0,0-2,1.73h-4.69c.22-3.52,3-5.25,7-5.25s6.59,1.65,6.59,5.52V68.6h-4.86V66.9a4.79,4.79,0,0,1-4.32,2C521.45,68.93,519.13,67.65,519.13,64.56Zm9.15-1.06v-.9H527c-2,0-2.9.39-2.9,1.59,0,.84.56,1.37,1.73,1.37A2.2,2.2,0,0,0,528.28,63.5Z" fill="#fff"/><path d="M539.36,61.18,534.81,54h5.75l2.26,3.85L545,54h5.13l-4.6,6.78,5.05,7.81h-5.75l-2.59-4.35-2.65,4.35H534.5Z" fill="#fff"/><path d="M551.61,66.09a2.78,2.78,0,0,1,2.84-2.82,2.82,2.82,0,1,1,0,5.64A2.78,2.78,0,0,1,551.61,66.09Z" fill="#fff"/></g></g></svg>