<svg xmlns="http://www.w3.org/2000/svg" viewBox="0 0 120 32"><title>cta_120x32</title><g id="Layer_2" data-name="Layer 2"><g id="Rectangle_1" data-name="Rectangle 1" style="isolation:isolate"><g id="Rectangle_1-2" data-name="Rectangle 1"><rect width="120" height="32" fill="none"/></g></g><g id="Find_a_tax_pro" data-name="Find a tax pro"><path d="M16.71,10.81h6.43v1.78H19v2.65h3.29V17H19v3.88H16.71Z" fill="#262626"/><path d="M24,11.4a1.16,1.16,0,1,1,1.15,1.1A1.12,1.12,0,0,1,24,11.4Zm.16,2.1h2v7.33h-2Z" fill="#262626"/><path d="M27.84,13.5h2v1.16a2.52,2.52,0,0,1,2.38-1.33c1.44,0,2.46.87,2.46,2.83v4.67h-2V16.46c0-1-.39-1.48-1.29-1.48a1.45,1.45,0,0,0-1.52,1.61v4.24h-2Z" fill="#262626"/><path d="M35.8,17.27v-.11c0-2.41,1.39-3.83,3.22-3.83a2.43,2.43,0,0,1,2.31,1.26V10.18h2V20.83h-2V19.61A2.65,2.65,0,0,1,39,21C37.2,21,35.8,19.71,35.8,17.27Zm5.59-.07v-.12c0-1.45-.64-2.19-1.75-2.19s-1.77.77-1.77,2.22v.12c0,1.45.7,2.17,1.71,2.17S41.39,18.68,41.39,17.2Z" fill="#262626"/><path d="M47.37,18.79c0-1.71,1.56-2.35,3.81-2.35H52v-.29c0-.87-.26-1.35-1.19-1.35a1.11,1.11,0,0,0-1.25,1H47.65c.12-1.74,1.49-2.51,3.29-2.51S54,14.06,54,16.05v4.78H52v-.89a2.49,2.49,0,0,1-2.21,1A2.15,2.15,0,0,1,47.37,18.79ZM52,18.26v-.61h-.78c-1.18,0-1.87.25-1.87,1,0,.53.33.88,1.07.88C51.32,19.56,52,19.07,52,18.26Z" fill="#262626"/><path d="M58.73,18.65V14.94h-.94V13.5h.94V11.92h2V13.5h1.54v1.44H60.75v3.53c0,.59.29.87.81.87a1.86,1.86,0,0,0,.77-.14v1.57A3.63,3.63,0,0,1,61.1,21,2.09,2.09,0,0,1,58.73,18.65Z" fill="#262626"/><path d="M63.06,18.79c0-1.71,1.57-2.35,3.81-2.35h.83v-.29c0-.87-.27-1.35-1.2-1.35a1.1,1.1,0,0,0-1.24,1H63.34c.12-1.74,1.5-2.51,3.29-2.51s3.07.73,3.07,2.72v4.78h-2v-.89a2.48,2.48,0,0,1-2.21,1A2.15,2.15,0,0,1,63.06,18.79Zm4.64-.53v-.61h-.79c-1.18,0-1.86.25-1.86,1,0,.53.32.88,1.06.88C67,19.56,67.7,19.07,67.7,18.26Z" fill="#262626"/><path d="M73.07,17.08,70.73,13.5h2.33l1.37,2.2,1.34-2.2h2.1l-2.33,3.43,2.57,3.9H75.77l-1.54-2.47-1.58,2.47H70.56Z" fill="#262626"/><path d="M81.94,13.5h2v1.15a2.71,2.71,0,0,1,2.33-1.32c1.8,0,3.2,1.33,3.2,3.75v.12c0,2.42-1.37,3.78-3.2,3.78A2.55,2.55,0,0,1,84,19.71v3.61h-2Zm5.51,3.71V17.1c0-1.49-.73-2.21-1.75-2.21s-1.79.74-1.79,2.21v.11c0,1.47.7,2.19,1.8,2.19S87.45,18.64,87.45,17.21Z" fill="#262626"/><path d="M90.65,13.5h2v1.4a2.41,2.41,0,0,1,2.37-1.51v1.89c-1.5,0-2.37.47-2.37,1.88v3.67h-2Z" fill="#262626"/><path d="M95.59,17.24v-.11a3.68,3.68,0,0,1,3.87-3.8,3.63,3.63,0,0,1,3.85,3.75v.12a3.86,3.86,0,0,1-7.72,0Zm5.66,0v-.1c0-1.4-.66-2.24-1.79-2.24s-1.79.81-1.79,2.21v.12c0,1.4.64,2.24,1.79,2.24S101.25,18.6,101.25,17.21Z" fill="#262626"/></g></g></svg>