<svg xmlns="http://www.w3.org/2000/svg" viewBox="0 0 300 250"><title>H38</title><g id="Layer_2" data-name="Layer 2"><g id="Rect"><rect width="300" height="250" fill="#fff"/></g><g id="H38"><g id="Save_10_or_more._Switch_from_TurboTax." data-name="Save $10 or more. Switch from TurboTax."><path d="M20.82,50.78h7c.18,1.82,1,3.32,4,3.32,2.11,0,3.28-1,3.28-2.54s-1-2-4-2.46c-7.21-.86-9.64-3-9.64-8.14,0-4.61,3.78-8,9.89-8s9.6,2.57,10.07,8H34.6c-.25-1.82-1.28-2.75-3.28-2.75s-3,.89-3,2.18.79,2.07,4,2.5c6.46.71,9.78,2.39,9.78,7.92,0,4.68-3.71,8.5-10.28,8.5C24.68,59.31,21,56.31,20.82,50.78Z" fill="#fff"/><path d="M43.38,53.7c0-4.39,3.72-6.1,9.93-6.1h1.78v-.43c0-1.78-.42-3-2.46-3a2.28,2.28,0,0,0-2.53,2.21h-6c.28-4.5,3.82-6.71,8.92-6.71s8.43,2.1,8.43,7.07v12.1H55.24V56.7c-.9,1.36-2.54,2.61-5.54,2.61C46.35,59.31,43.38,57.67,43.38,53.7Zm11.71-1.35V51.21H53.42c-2.57,0-3.72.5-3.72,2,0,1.07.72,1.75,2.22,1.75C53.74,55,55.09,54,55.09,52.35Z" fill="#fff"/><path d="M62.41,40.21h6.82l3.89,12,3.82-12h6.11L76.23,58.88h-7Z" fill="#fff"/><path d="M82.65,49.78v-.29c0-6,4.47-9.78,10.11-9.78,5.1,0,9.49,2.93,9.49,9.64V51H89.12c.17,2.46,1.6,3.89,3.89,3.89,2.1,0,3-1,3.25-2.22h6c-.57,4.22-3.82,6.61-9.46,6.61C86.94,59.31,82.65,55.88,82.65,49.78ZM96,47.42c-.11-2.25-1.21-3.5-3.28-3.5s-3.25,1.25-3.57,3.5Z" fill="#fff"/><path d="M115.06,47.2c-3.6-.25-5.35-2.16-5.49-4.91h3.85a2,2,0,0,0,1.64,2v-3c-3.62-.52-5.16-1.83-5.16-4.73,0-2.52,2-4.33,5.16-4.55V30.07h1.63V32c3,.25,4.81,1.64,5,4.49H118a1.67,1.67,0,0,0-1.29-1.56v2.87c3.18.46,5.26,1.54,5.26,4.56,0,2.54-1.64,4.66-5.26,4.89v2.6h-1.63Zm0-9.7V34.84c-.93.17-1.41.66-1.41,1.33S113.94,37.27,115.06,37.5Zm1.63,4v2.77a1.5,1.5,0,0,0,1.39-1.48C118.08,42.08,117.79,41.73,116.69,41.48Z" fill="#fff"/><path d="M128.22,40.56l-4.85,3v-6.1l5.85-4.11h6.32V58.88h-7.32Z" fill="#fff"/><path d="M139,46.67V45.6c0-8.07,5-12.6,11.78-12.6s11.78,4.17,11.78,12.46v1c0,8.1-4.64,12.85-11.92,12.85S139,54.7,139,46.67Zm16.24-.07v-1c0-4.67-1.35-7-4.46-7s-4.46,2.32-4.46,7v1.07c0,4.75,1.39,7,4.53,7S155.28,51.31,155.28,46.6Z" fill="#fff"/><path d="M170.74,49.78v-.29c0-6,4.46-9.78,10.25-9.78s10.17,3.68,10.17,9.6v.29c0,6.07-4.46,9.71-10.21,9.71S170.74,55.81,170.74,49.78Zm13.92-.11v-.29c0-3.14-1.25-4.89-3.67-4.89s-3.72,1.68-3.72,4.82v.29c0,3.21,1.25,5,3.72,5S184.66,52.78,184.66,49.67Z" fill="#fff"/><path d="M193.41,40.21h6.39v3.71a5.88,5.88,0,0,1,6-4v6c-3.89-.11-6,1.11-6,4.11v8.85h-6.39Z" fill="#fff"/><path d="M21.89,77.91h6.39v2.85a6.54,6.54,0,0,1,5.86-3.35,5.09,5.09,0,0,1,5.07,3.1,7.42,7.42,0,0,1,6.18-3.1c3.53,0,6.1,2.28,6.1,7V96.58H45.1V85.44c0-1.89-.93-2.82-2.39-2.82-1.71,0-2.86,1.11-2.86,3.14V96.58H33.53V85.44c0-1.89-.93-2.82-2.39-2.82-1.71,0-2.86,1.11-2.86,3.14V96.58H21.89Z" fill="#fff"/><path d="M53.59,87.48v-.29c0-6,4.47-9.78,10.25-9.78S74,81.09,74,87v.29C74,93.37,69.55,97,63.81,97S53.59,93.51,53.59,87.48Zm13.93-.11v-.29c0-3.14-1.25-4.89-3.68-4.89S60.13,83.87,60.13,87v.29c0,3.21,1.25,5,3.71,5S67.52,90.48,67.52,87.37Z" fill="#fff"/><path d="M76.26,77.91h6.39v3.71a5.89,5.89,0,0,1,6-4v6c-3.89-.11-6,1.11-6,4.11v8.85H76.26Z" fill="#fff"/><path d="M89.83,87.48v-.29c0-6,4.46-9.78,10.1-9.78,5.11,0,9.5,2.93,9.5,9.64v1.68H96.29c.18,2.46,1.61,3.89,3.89,3.89,2.11,0,3-1,3.25-2.22h6C108.86,94.62,105.61,97,100,97,94.11,97,89.83,93.58,89.83,87.48Zm13.39-2.36c-.11-2.25-1.22-3.5-3.29-3.5s-3.25,1.25-3.57,3.5Z" fill="#fff"/><path d="M111.21,93.37a3.57,3.57,0,0,1,3.65-3.61,3.61,3.61,0,1,1,0,7.21A3.56,3.56,0,0,1,111.21,93.37Z" fill="#fff"/><path d="M127,88.48h7c.18,1.82,1,3.32,4,3.32,2.1,0,3.28-1,3.28-2.54s-1-2-4-2.46c-7.22-.86-9.64-3-9.64-8.14,0-4.61,3.78-8,9.89-8s9.6,2.57,10.06,8h-6.78c-.25-1.82-1.28-2.75-3.28-2.75s-3,.89-3,2.18.79,2.07,4,2.5c6.46.71,9.78,2.39,9.78,7.92,0,4.68-3.71,8.5-10.28,8.5C130.88,97,127.24,94,127,88.48Z" fill="#fff"/><path d="M148.84,77.91h6.68l2.71,11.17,3.14-11.17h5.14l2.79,11.17,3-11.17h6.08l-5.93,18.67h-6.11l-2.78-10.42L160.7,96.58h-6.22Z" fill="#fff"/><path d="M179.9,72.84a3.52,3.52,0,1,1,3.5,3.28A3.34,3.34,0,0,1,179.9,72.84Zm.32,5.07h6.39V96.58h-6.39Z" fill="#fff"/><path d="M190.9,90.58V82.26h-2.25V77.91h2.25V74h6.39v3.89H201v4.35h-3.67V90c0,1.35.67,2,1.89,2a5,5,0,0,0,1.82-.32v4.85a13.18,13.18,0,0,1-3.54.54C193.25,97,190.9,95,190.9,90.58Z" fill="#fff"/><path d="M202.39,87.48v-.29c0-6.21,4.46-9.78,10-9.78,4.57,0,8.79,2,9.14,7.67h-6c-.28-1.75-1.14-2.71-3-2.71-2.25,0-3.58,1.61-3.58,4.75v.29c0,3.24,1.25,4.92,3.68,4.92a3.1,3.1,0,0,0,3.25-3.1h5.75c-.18,4.71-3.36,7.78-9.39,7.78C206.64,97,202.39,93.76,202.39,87.48Z" fill="#fff"/><path d="M223.67,69.7h6.39V80.91a6.58,6.58,0,0,1,6.14-3.5c3.61,0,6.11,2.25,6.11,7V96.58h-6.4V85.73c0-2.11-.82-3.15-2.67-3.15s-3.18,1.15-3.18,3.54V96.58h-6.39Z" fill="#fff"/><path d="M22.86,120H20.5v-4.35h2.36V114c0-4.65,2.89-6.86,7.32-6.86a11.53,11.53,0,0,1,2.92.39v4.68a5.91,5.91,0,0,0-1.75-.25,1.88,1.88,0,0,0-2.14,2v1.64H33V120H29.21v14.32H22.86Z" fill="#fff"/><path d="M35.14,115.61h6.39v3.71a5.88,5.88,0,0,1,6-4v6c-3.89-.11-6,1.11-6,4.11v8.85H35.14Z" fill="#fff"/><path d="M48.7,125.18v-.29c0-6,4.47-9.78,10.25-9.78s10.18,3.68,10.18,9.6V125c0,6.07-4.47,9.71-10.22,9.71S48.7,131.21,48.7,125.18Zm13.93-.11v-.29c0-3.14-1.25-4.89-3.68-4.89s-3.71,1.68-3.71,4.82V125c0,3.21,1.25,5,3.71,5S62.63,128.18,62.63,125.07Z" fill="#fff"/><path d="M71.37,115.61h6.39v2.85a6.54,6.54,0,0,1,5.86-3.35,5.09,5.09,0,0,1,5.07,3.1,7.42,7.42,0,0,1,6.18-3.1c3.53,0,6.1,2.28,6.1,7v12.21H94.58V123.14c0-1.89-.93-2.82-2.39-2.82-1.72,0-2.86,1.11-2.86,3.14v10.82H83V123.14c0-1.89-.93-2.82-2.39-2.82-1.71,0-2.86,1.11-2.86,3.14v10.82H71.37Z" fill="#fff"/><path d="M116,114.39h-6.6v-5.64H130v5.64h-6.6v19.89H116Z" fill="#fff"/><path d="M130.56,127.78V115.61H137v11.14c0,2.1.83,3.14,2.65,3.14s3.17-1.14,3.17-3.53V115.61h6.4v18.67h-6.4v-2.89a6.13,6.13,0,0,1-5.92,3.32C133.24,134.71,130.56,132.5,130.56,127.78Z" fill="#fff"/><path d="M152.41,115.61h6.39v3.71a5.89,5.89,0,0,1,6-4v6c-3.9-.11-6,1.11-6,4.11v8.85h-6.39Z" fill="#fff"/><path d="M173.55,131.39v2.89h-6.4V107.4h6.4v11a6.58,6.58,0,0,1,5.82-3.28c4.35,0,7.89,3.28,7.89,9.67v.29c0,6.43-3.54,9.64-7.93,9.64A6,6,0,0,1,173.55,131.39Zm7.21-6.32v-.29c0-3.28-1.43-4.85-3.68-4.85s-3.71,1.68-3.71,4.82V125c0,3.18,1.39,4.79,3.71,4.79S180.76,128.14,180.76,125.07Z" fill="#fff"/><path d="M188.57,125.18v-.29c0-6,4.47-9.78,10.25-9.78s10.18,3.68,10.18,9.6V125c0,6.07-4.47,9.71-10.21,9.71S188.57,131.21,188.57,125.18Zm13.93-.11v-.29c0-3.14-1.25-4.89-3.68-4.89s-3.71,1.68-3.71,4.82V125c0,3.21,1.25,5,3.71,5S202.5,128.18,202.5,125.07Z" fill="#fff"/><path d="M216.71,114.39H210.1v-5.64h20.57v5.64h-6.61v19.89h-7.35Z" fill="#fff"/><path d="M229.38,129.1c0-4.39,3.71-6.1,9.93-6.1h1.78v-.43c0-1.78-.43-3-2.46-3a2.29,2.29,0,0,0-2.54,2.21h-6c.29-4.5,3.82-6.71,8.93-6.71s8.43,2.1,8.43,7.07v12.1h-6.22V132.1c-.89,1.36-2.53,2.61-5.53,2.61C232.34,134.71,229.38,133.07,229.38,129.1Zm11.71-1.35v-1.14h-1.68c-2.57,0-3.71.49-3.71,2,0,1.07.71,1.75,2.21,1.75C239.73,130.39,241.09,129.35,241.09,127.75Z" fill="#fff"/><path d="M255.26,124.78l-5.82-9.17h7.36l2.89,4.93,2.82-4.93h6.57l-5.89,8.67,6.46,10H262.3L259,128.71l-3.4,5.57h-6.53Z" fill="#fff"/><path d="M270.93,131.07a3.57,3.57,0,0,1,3.65-3.61,3.61,3.61,0,1,1,0,7.21A3.56,3.56,0,0,1,270.93,131.07Z" fill="#fff"/></g></g></g></svg>