<svg xmlns="http://www.w3.org/2000/svg" viewBox="0 0 301 251"><title>Asset 9</title><g id="Layer_2" data-name="Layer 2"><g id="Rect"><rect x="0.5" y="0.5" width="300" height="250" fill="none" stroke="#000" stroke-miterlimit="10"/></g><g id="Save_10._Switch_from_TurboTax." data-name="Save $10. Switch from TurboTax."><path d="M21.53,43.12h8.76c.22,2.29,1.26,4.17,5.07,4.17,2.65,0,4.14-1.3,4.14-3.19s-1.22-2.51-5.08-3.1C25.35,39.93,22.3,37.23,22.3,30.77c0-5.8,4.76-10,12.44-10S46.82,24,47.4,30.77H38.87c-.32-2.29-1.62-3.46-4.13-3.46S31,28.43,31,30.05c0,1.79,1,2.6,5,3.14,8.13.9,12.31,3,12.31,10,0,5.88-4.67,10.69-12.94,10.69C26.38,53.85,21.8,50.08,21.53,43.12Z" fill="#fff"/><path d="M49.91,46.8c0-5.53,4.67-7.68,12.48-7.68h2.25v-.54c0-2.25-.54-3.73-3.1-3.73a2.89,2.89,0,0,0-3.19,2.79H50.81c.36-5.66,4.8-8.45,11.22-8.45s10.6,2.65,10.6,8.9V53.31H64.82V50.57c-1.12,1.71-3.19,3.28-7,3.28C53.64,53.85,49.91,51.78,49.91,46.8Zm14.73-1.71V43.65H62.53c-3.24,0-4.67.63-4.67,2.56,0,1.35.9,2.2,2.78,2.2C62.93,48.41,64.64,47.11,64.64,45.09Z" fill="#fff"/><path d="M73.84,29.82h8.58L87.31,45l4.81-15.14H99.8L91.22,53.31H82.46Z" fill="#fff"/><path d="M99.3,41.86V41.5c0-7.55,5.61-12.31,12.71-12.31,6.42,0,11.94,3.69,11.94,12.13v2.11H107.43c.22,3.1,2,4.89,4.89,4.89,2.65,0,3.77-1.21,4.09-2.78H124c-.72,5.3-4.8,8.31-11.9,8.31C104.69,53.85,99.3,49.54,99.3,41.86Zm16.84-3c-.14-2.83-1.53-4.4-4.13-4.4-2.43,0-4.09,1.57-4.49,4.4Z" fill="#fff"/><path d="M140.06,38.62c-4.53-.31-6.73-2.72-6.91-6.18H138a2.47,2.47,0,0,0,2.06,2.46V31.08c-4.55-.66-6.49-2.31-6.49-5.95,0-3.16,2.49-5.44,6.49-5.73V17.07h2.05v2.36c3.79.31,6,2.07,6.36,5.65h-4.74a2.09,2.09,0,0,0-1.62-2v3.61c4,.58,6.62,1.94,6.62,5.74,0,3.19-2.07,5.86-6.62,6.15v3.27h-2.05Zm0-12.2V23.07c-1.17.21-1.78.83-1.78,1.67S138.65,26.13,140.06,26.42Zm2.05,5V34.9A1.88,1.88,0,0,0,143.86,33C143.86,32.18,143.49,31.73,142.11,31.42Z" fill="#fff"/><path d="M156.61,30.27,150.5,34V26.37l7.37-5.17h7.95V53.31h-9.21Z" fill="#fff"/><path d="M170.21,38V36.6c0-10.14,6.34-15.85,14.82-15.85S199.85,26,199.85,36.42v1.26c0,10.2-5.84,16.17-15,16.17C175.87,53.85,170.21,48.06,170.21,38Zm20.44-.09v-1.3c0-5.88-1.71-8.85-5.62-8.85s-5.61,2.92-5.61,8.85v1.35c0,6,1.75,8.8,5.7,8.8S190.65,43.79,190.65,37.86Z" fill="#fff"/><path d="M200.61,49.27a4.48,4.48,0,0,1,4.58-4.54,4.54,4.54,0,1,1,0,9.07A4.48,4.48,0,0,1,200.61,49.27Z" fill="#fff"/><path d="M21.53,90h8.76c.22,2.29,1.26,4.17,5.07,4.17,2.65,0,4.14-1.3,4.14-3.19s-1.22-2.51-5.08-3.1C25.35,86.83,22.3,84.13,22.3,77.67c0-5.8,4.76-10,12.44-10s12.08,3.24,12.66,10H38.87c-.32-2.29-1.62-3.46-4.13-3.46S31,75.33,31,77c0,1.79,1,2.6,5,3.14,8.13.9,12.31,3,12.31,10,0,5.88-4.67,10.69-12.94,10.69C26.38,100.75,21.8,97,21.53,90Z" fill="#fff"/><path d="M49,76.72h8.39l3.42,14.06,4-14.06H71.2l3.5,14.06,3.82-14.06h7.63l-7.46,23.49H71L67.51,87.1l-3.63,13.11H56.06Z" fill="#fff"/><path d="M88,70.35a4.2,4.2,0,0,1,4.4-4.18,4.16,4.16,0,1,1,0,8.31A4.16,4.16,0,0,1,88,70.35Zm.4,6.37h8v23.49h-8Z" fill="#fff"/><path d="M101.86,92.67V82.2H99V76.72h2.83V71.83h8v4.89h4.62V82.2H109.9v9.7c0,1.71.85,2.47,2.38,2.47a6.15,6.15,0,0,0,2.29-.4v6.1a16.86,16.86,0,0,1-4.45.68C104.82,100.75,101.86,98.19,101.86,92.67Z" fill="#fff"/><path d="M116.32,88.76V88.4c0-7.82,5.61-12.31,12.52-12.31,5.75,0,11,2.52,11.5,9.66H132.8c-.36-2.2-1.44-3.41-3.78-3.41-2.82,0-4.49,2-4.49,6v.36c0,4.08,1.58,6.2,4.63,6.2,2.24,0,3.82-1.35,4.09-3.91h7.23c-.23,5.93-4.23,9.79-11.81,9.79C121.66,100.75,116.32,96.66,116.32,88.76Z" fill="#fff"/><path d="M143.08,66.39h8V80.5a8.3,8.3,0,0,1,7.73-4.41c4.53,0,7.68,2.83,7.68,8.85v15.27h-8V86.56c0-2.65-1-4-3.37-4s-4,1.43-4,4.44v13.16h-8Z" fill="#fff"/><path d="M179.8,82.2h-3V76.72h3V74.66c0-5.84,3.64-8.62,9.21-8.62a14.32,14.32,0,0,1,3.68.49v5.88a7.35,7.35,0,0,0-2.2-.31,2.36,2.36,0,0,0-2.69,2.56v2.06h4.76V82.2H187.8v18h-8Z" fill="#fff"/><path d="M195.25,76.72h8v4.67a7.39,7.39,0,0,1,7.59-5v7.5c-4.9-.14-7.59,1.39-7.59,5.16v11.14h-8Z" fill="#fff"/><path d="M212.31,88.76V88.4c0-7.55,5.61-12.31,12.89-12.31S238,80.72,238,88.17v.36c0,7.64-5.62,12.22-12.85,12.22S212.31,96.35,212.31,88.76Zm17.51-.14v-.36c0-4-1.57-6.15-4.62-6.15s-4.67,2.11-4.67,6.06v.36c0,4,1.57,6.25,4.67,6.25S229.82,92.53,229.82,88.62Z" fill="#fff"/><path d="M240.82,76.72h8v3.6a8.21,8.21,0,0,1,7.36-4.23c3.1,0,5.26,1.35,6.38,3.91a9.32,9.32,0,0,1,7.77-3.91c4.45,0,7.68,2.88,7.68,8.76v15.36h-8v-14c0-2.38-1.17-3.55-3-3.55-2.15,0-3.59,1.39-3.59,3.95v13.61h-8v-14c0-2.38-1.17-3.55-3-3.55-2.15,0-3.59,1.39-3.59,3.95v13.61h-8Z" fill="#fff"/><path d="M29.75,122.1H21.44V115H47.31v7.1H39v25H29.75Z" fill="#fff"/><path d="M48,138.94V123.62h8v14c0,2.65,1,4,3.33,4s4-1.44,4-4.45V123.62h8v23.49h-8v-3.64c-1.26,2.43-3.55,4.18-7.45,4.18C51.39,147.65,48,144.86,48,138.94Z" fill="#fff"/><path d="M75.5,123.62h8v4.67a7.39,7.39,0,0,1,7.59-5v7.5c-4.89-.14-7.59,1.39-7.59,5.16v11.14h-8Z" fill="#fff"/><path d="M102.08,143.47v3.64h-8V113.29h8v13.84A8.3,8.3,0,0,1,109.4,123c5.48,0,9.93,4.14,9.93,12.17v.36c0,8.09-4.45,12.13-10,12.13C105.86,147.65,103.25,146,102.08,143.47Zm9.08-7.95v-.36c0-4.13-1.8-6.1-4.63-6.1s-4.67,2.11-4.67,6.06v.36c0,4,1.75,6,4.67,6S111.16,139.39,111.16,135.52Z" fill="#fff"/><path d="M121,135.66v-.36c0-7.55,5.61-12.31,12.88-12.31s12.8,4.63,12.8,12.08v.36c0,7.64-5.61,12.22-12.84,12.22S121,143.25,121,135.66Zm17.51-.14v-.36c0-3.95-1.57-6.15-4.63-6.15s-4.67,2.11-4.67,6.06v.36c0,4,1.57,6.25,4.67,6.25S138.5,139.43,138.5,135.52Z" fill="#fff"/><path d="M156.37,122.1h-8.31V115h25.87v7.1h-8.31v25h-9.25Z" fill="#fff"/><path d="M172.31,140.6c0-5.53,4.67-7.68,12.48-7.68H187v-.54c0-2.25-.54-3.73-3.1-3.73a2.89,2.89,0,0,0-3.19,2.79H173.2c.36-5.66,4.81-8.45,11.23-8.45s10.6,2.65,10.6,8.9v15.22h-7.82v-2.74c-1.12,1.71-3.18,3.28-7,3.28C176,147.65,172.31,145.58,172.31,140.6ZM187,138.89v-1.44h-2.12c-3.23,0-4.67.63-4.67,2.56,0,1.35.9,2.2,2.79,2.2C185.33,142.21,187,140.91,187,138.89Z" fill="#fff"/><path d="M204.86,135.16l-7.32-11.54h9.25l3.64,6.2,3.55-6.2h8.26l-7.41,10.92L223,147.11h-9.25l-4.18-7-4.27,7h-8.21Z" fill="#fff"/><path d="M224.57,143.07a4.48,4.48,0,0,1,4.58-4.54,4.54,4.54,0,1,1,0,9.07A4.48,4.48,0,0,1,224.57,143.07Z" fill="#fff"/></g></g></svg>