<?xml version="1.0" encoding="utf-8"?>
<!-- Generator: Adobe Illustrator 23.1.0, SVG Export Plug-In . SVG Version: 6.00 Build 0)  -->
<svg version="1.1" id="Layer_1" xmlns="http://www.w3.org/2000/svg" xmlns:xlink="http://www.w3.org/1999/xlink" x="0px" y="0px"
	 viewBox="0 0 300 250" style="enable-background:new 0 0 300 250;" xml:space="preserve">
<style type="text/css">
	.st0{fill:none;}
	.st1{fill:#FFFFFF;}
</style>
<title>H38</title>
<g>
	<g id="Rect">
		<rect class="st0" width="300" height="250"/>
	</g>
	<g id="H38">
		<g id="Save_10_or_more._Switch_from_TurboTax.">
			<path class="st1" d="M20.8,50.8h7c0.2,1.8,1,3.3,4,3.3c2.1,0,3.3-1,3.3-2.5s-1-2-4-2.5c-7.2-0.9-9.6-3-9.6-8.1c0-4.6,3.8-8,9.9-8
				s9.6,2.6,10.1,8h-6.8c-0.3-1.8-1.3-2.8-3.3-2.8s-3,0.9-3,2.2s0.8,2.1,4,2.5c6.5,0.7,9.8,2.4,9.8,7.9c0,4.7-3.7,8.5-10.3,8.5
				C24.7,59.3,21,56.3,20.8,50.8z"/>
			<path class="st1" d="M43.4,53.7c0-4.4,3.7-6.1,9.9-6.1h1.8v-0.4c0-1.8-0.4-3-2.5-3c-1.3-0.1-2.4,0.8-2.5,2c0,0.1,0,0.1,0,0.2h-6
				c0.3-4.5,3.8-6.7,8.9-6.7s8.4,2.1,8.4,7.1v12.1h-6.2v-2.1c-0.9,1.4-2.5,2.6-5.5,2.6C46.3,59.3,43.4,57.7,43.4,53.7z M55.1,52.4
				v-1.1h-1.7c-2.6,0-3.7,0.5-3.7,2c0,1.1,0.7,1.8,2.2,1.8C53.7,55,55.1,54,55.1,52.4z"/>
			<path class="st1" d="M62.4,40.2h6.8l3.9,12l3.8-12h6.1l-6.8,18.7h-7L62.4,40.2z"/>
			<path class="st1" d="M82.7,49.8v-0.3c0-6,4.5-9.8,10.1-9.8c5.1,0,9.5,2.9,9.5,9.6V51H89.1c0.2,2.5,1.6,3.9,3.9,3.9
				c2.1,0,3-1,3.3-2.2h6c-0.6,4.2-3.8,6.6-9.5,6.6C86.9,59.3,82.7,55.9,82.7,49.8z M96,47.4c-0.1-2.3-1.2-3.5-3.3-3.5
				s-3.3,1.3-3.6,3.5H96z"/>
			<path class="st1" d="M115.1,47.2c-3.6-0.3-5.3-2.2-5.5-4.9h3.8c0,1,0.7,1.8,1.6,2v-3c-3.6-0.5-5.2-1.8-5.2-4.7
				c0-2.5,2-4.3,5.2-4.5v-1.9h1.6V32c3,0.3,4.8,1.6,5,4.5H118c0-0.8-0.6-1.4-1.3-1.6v2.9c3.2,0.5,5.3,1.5,5.3,4.6
				c0,2.5-1.6,4.7-5.3,4.9v2.6h-1.6L115.1,47.2z M115.1,37.5v-2.7c-0.9,0.2-1.4,0.7-1.4,1.3S113.9,37.3,115.1,37.5z M116.7,41.5v2.8
				c0.8-0.1,1.4-0.7,1.4-1.5C118.1,42.1,117.8,41.7,116.7,41.5L116.7,41.5z"/>
			<path class="st1" d="M128.2,40.6l-4.8,3v-6.1l5.8-4.1h6.3v25.5h-7.3V40.6z"/>
			<path class="st1" d="M139,46.7v-1.1c0-8.1,5-12.6,11.8-12.6s11.8,4.2,11.8,12.5v1c0,8.1-4.6,12.8-11.9,12.8S139,54.7,139,46.7z
				 M155.2,46.6v-1c0-4.7-1.4-7-4.5-7s-4.5,2.3-4.5,7v1.1c0,4.8,1.4,7,4.5,7S155.3,51.3,155.2,46.6L155.2,46.6z"/>
			<path class="st1" d="M170.7,49.8v-0.3c0-6,4.5-9.8,10.3-9.8s10.2,3.7,10.2,9.6v0.3c0,6.1-4.5,9.7-10.2,9.7S170.7,55.8,170.7,49.8
				z M184.7,49.7v-0.3c0-3.1-1.3-4.9-3.7-4.9s-3.7,1.7-3.7,4.8v0.3c0,3.2,1.3,5,3.7,5S184.7,52.8,184.7,49.7z"/>
			<path class="st1" d="M193.4,40.2h6.4v3.7c0.9-2.5,3.3-4.2,6-4v6c-3.9-0.1-6,1.1-6,4.1v8.8h-6.4V40.2z"/>
			<path class="st1" d="M21.9,77.9h6.4v2.8c1.2-2.1,3.4-3.4,5.9-3.3c2.2-0.2,4.2,1.1,5.1,3.1c1.4-2,3.7-3.1,6.2-3.1
				c3.5,0,6.1,2.3,6.1,7v12.2h-6.4V85.4c0-1.9-0.9-2.8-2.4-2.8c-1.7,0-2.9,1.1-2.9,3.1v10.8h-6.3V85.4c0-1.9-0.9-2.8-2.4-2.8
				c-1.7,0-2.9,1.1-2.9,3.1v10.8h-6.4V77.9z"/>
			<path class="st1" d="M53.6,87.5v-0.3c0-6,4.5-9.8,10.3-9.8S74,81.1,74,87v0.3c0,6.1-4.4,9.7-10.2,9.7S53.6,93.5,53.6,87.5z
				 M67.5,87.4v-0.3c0-3.1-1.3-4.9-3.7-4.9s-3.7,1.7-3.7,4.8v0.3c0,3.2,1.3,5,3.7,5C66.3,92.3,67.5,90.5,67.5,87.4z"/>
			<path class="st1" d="M76.3,77.9h6.4v3.7c0.9-2.5,3.3-4.2,6-4v6c-3.9-0.1-6,1.1-6,4.1v8.8h-6.4V77.9z"/>
			<path class="st1" d="M89.8,87.5v-0.3c0-6,4.5-9.8,10.1-9.8c5.1,0,9.5,2.9,9.5,9.6v1.7H96.3c0.2,2.5,1.6,3.9,3.9,3.9
				c2.1,0,3-1,3.3-2.2h6c-0.6,4.2-3.8,6.6-9.4,6.6C94.1,97,89.8,93.6,89.8,87.5z M103.2,85.1c-0.1-2.3-1.2-3.5-3.3-3.5
				s-3.3,1.3-3.6,3.5H103.2z"/>
			<path class="st1" d="M111.2,93.4c0-2,1.6-3.6,3.5-3.6c0,0,0.1,0,0.1,0c2-0.1,3.7,1.4,3.8,3.4c0.1,2-1.4,3.7-3.4,3.8
				c-0.1,0-0.3,0-0.4,0c-2,0-3.6-1.5-3.6-3.5C111.2,93.5,111.2,93.4,111.2,93.4z"/>
			<path class="st1" d="M127,88.5h7c0.2,1.8,1,3.3,4,3.3c2.1,0,3.3-1,3.3-2.5s-1-2-4-2.5c-7.2-0.9-9.6-3-9.6-8.1c0-4.6,3.8-8,9.9-8
				s9.6,2.6,10.1,8h-6.8c-0.3-1.8-1.3-2.8-3.3-2.8s-3,0.9-3,2.2s0.8,2.1,4,2.5c6.5,0.7,9.8,2.4,9.8,7.9c0,4.7-3.7,8.5-10.3,8.5
				C130.9,97,127.2,94,127,88.5z"/>
			<path class="st1" d="M148.8,77.9h6.7l2.7,11.2l3.1-11.2h5.1l2.8,11.2l3-11.2h6.1l-5.9,18.7h-6.1l-2.8-10.4l-2.9,10.4h-6.2
				L148.8,77.9z"/>
			<path class="st1" d="M179.9,72.8c-0.1-1.9,1.3-3.6,3.3-3.8c1.9-0.1,3.6,1.3,3.8,3.3c0.1,1.9-1.3,3.6-3.3,3.8c-0.1,0-0.2,0-0.3,0
				c-1.8,0.1-3.4-1.3-3.5-3.2C179.9,72.9,179.9,72.9,179.9,72.8z M180.2,77.9h6.4v18.7h-6.4V77.9z"/>
			<path class="st1" d="M190.9,90.6v-8.3h-2.3v-4.3h2.3V74h6.4v3.9h3.7v4.3h-3.7V90c0,1.3,0.7,2,1.9,2c0.6,0,1.2-0.1,1.8-0.3v4.8
				c-1.1,0.3-2.3,0.5-3.5,0.5C193.3,97,190.9,95,190.9,90.6z"/>
			<path class="st1" d="M202.4,87.5v-0.3c0-6.2,4.5-9.8,10-9.8c4.6,0,8.8,2,9.1,7.7h-6c-0.3-1.8-1.1-2.7-3-2.7
				c-2.3,0-3.6,1.6-3.6,4.8v0.3c0,3.2,1.3,4.9,3.7,4.9c1.7,0.1,3.2-1.2,3.2-2.9c0-0.1,0-0.1,0-0.2h5.8c-0.2,4.7-3.4,7.8-9.4,7.8
				C206.6,97,202.4,93.8,202.4,87.5z"/>
			<path class="st1" d="M223.7,69.7h6.4v11.2c1.2-2.3,3.6-3.6,6.1-3.5c3.6,0,6.1,2.3,6.1,7v12.2h-6.4V85.7c0-2.1-0.8-3.2-2.7-3.2
				s-3.2,1.2-3.2,3.5v10.5h-6.4L223.7,69.7z"/>
			<path class="st1" d="M22.9,120h-2.4v-4.3h2.4V114c0-4.7,2.9-6.9,7.3-6.9c1,0,2,0.1,2.9,0.4v4.7c-0.6-0.2-1.2-0.3-1.8-0.3
				c-1-0.1-2,0.6-2.1,1.6c0,0.1,0,0.3,0,0.4v1.6H33v4.4h-3.8v14.3h-6.3V120z"/>
			<path class="st1" d="M35.1,115.6h6.4v3.7c0.9-2.5,3.3-4.2,6-4v6c-3.9-0.1-6,1.1-6,4.1v8.8h-6.4V115.6z"/>
			<path class="st1" d="M48.7,125.2v-0.3c0-6,4.5-9.8,10.3-9.8s10.2,3.7,10.2,9.6v0.3c0,6.1-4.5,9.7-10.2,9.7S48.7,131.2,48.7,125.2
				z M62.6,125.1v-0.3c0-3.1-1.3-4.9-3.7-4.9s-3.7,1.7-3.7,4.8v0.3c0,3.2,1.3,5,3.7,5S62.6,128.2,62.6,125.1z"/>
			<path class="st1" d="M71.4,115.6h6.4v2.8c1.2-2.1,3.4-3.4,5.9-3.3c2.2-0.2,4.2,1.1,5.1,3.1c1.4-2,3.7-3.1,6.2-3.1
				c3.5,0,6.1,2.3,6.1,7v12.2h-6.4v-11.2c0-1.9-0.9-2.8-2.4-2.8c-1.7,0-2.9,1.1-2.9,3.1v10.8H83v-11.1c0-1.9-0.9-2.8-2.4-2.8
				c-1.7,0-2.9,1.1-2.9,3.1v10.8h-6.4V115.6z"/>
			<path class="st1" d="M116,114.4h-6.6v-5.6H130v5.6h-6.6v19.9H116V114.4z"/>
			<path class="st1" d="M130.6,127.8v-12.2h6.4v11.1c0,2.1,0.8,3.1,2.6,3.1s3.2-1.1,3.2-3.5v-10.8h6.4v18.7h-6.4v-2.9
				c-1.1,2.2-3.5,3.5-5.9,3.3C133.2,134.7,130.6,132.5,130.6,127.8z"/>
			<path class="st1" d="M152.4,115.6h6.4v3.7c0.9-2.5,3.3-4.2,6-4v6c-3.9-0.1-6,1.1-6,4.1v8.8h-6.4V115.6z"/>
			<path class="st1" d="M173.6,131.4v2.9h-6.4v-26.9h6.4v11c1.2-2.1,3.4-3.3,5.8-3.3c4.4,0,7.9,3.3,7.9,9.7v0.3
				c0,6.4-3.5,9.6-7.9,9.6C176.9,134.9,174.6,133.6,173.6,131.4z M180.8,125.1v-0.3c0-3.3-1.4-4.8-3.7-4.8s-3.7,1.7-3.7,4.8v0.3
				c0,3.2,1.4,4.8,3.7,4.8S180.8,128.1,180.8,125.1L180.8,125.1z"/>
			<path class="st1" d="M188.6,125.2v-0.3c0-6,4.5-9.8,10.3-9.8s10.2,3.7,10.2,9.6v0.3c0,6.1-4.5,9.7-10.2,9.7
				S188.6,131.2,188.6,125.2z M202.5,125.1v-0.3c0-3.1-1.3-4.9-3.7-4.9s-3.7,1.7-3.7,4.8v0.3c0,3.2,1.3,5,3.7,5
				S202.5,128.2,202.5,125.1z"/>
			<path class="st1" d="M216.7,114.4h-6.6v-5.6h20.6v5.6h-6.6v19.9h-7.4V114.4z"/>
			<path class="st1" d="M229.4,129.1c0-4.4,3.7-6.1,9.9-6.1h1.8v-0.4c0-1.8-0.4-3-2.5-3c-1.3-0.1-2.4,0.8-2.5,2c0,0.1,0,0.1,0,0.2
				h-6c0.3-4.5,3.8-6.7,8.9-6.7s8.4,2.1,8.4,7.1v12.1h-6.2v-2.1c-0.9,1.4-2.5,2.6-5.5,2.6C232.3,134.7,229.4,133.1,229.4,129.1z
				 M241.1,127.8v-1.1h-1.7c-2.6,0-3.7,0.5-3.7,2c0,1.1,0.7,1.8,2.2,1.8C239.7,130.4,241.1,129.4,241.1,127.8L241.1,127.8z"/>
			<path class="st1" d="M255.3,124.8l-5.8-9.2h7.4l2.9,4.9l2.8-4.9h6.6l-5.9,8.7l6.5,10h-7.4l-3.3-5.6l-3.4,5.6h-6.5L255.3,124.8z"
				/>
			<path class="st1" d="M270.9,131.1c0-2,1.6-3.6,3.5-3.6c0,0,0.1,0,0.1,0c2-0.1,3.7,1.4,3.8,3.4c0.1,2-1.4,3.7-3.4,3.8
				c-0.1,0-0.3,0-0.4,0c-2,0-3.6-1.5-3.6-3.5C270.9,131.2,270.9,131.1,270.9,131.1z"/>
		</g>
	</g>
</g>
</svg>
