<svg xmlns="http://www.w3.org/2000/svg" viewBox="0 0 119.66 31.81"><title>cta_sml</title><g id="Layer_2" data-name="Layer 2"><g id="CTA"><g id="Rectangle_1" data-name="Rectangle 1"><rect width="119.66" height="31.81" fill="none"/></g><g id="Learn_more" data-name="Learn more"><path d="M24,9.81h2.27v8.24h4.08v1.78H24Z" transform="translate(0)" fill="#262626"/><path d="M30.84,16.25v-.11a3.64,3.64,0,0,1,3.77-3.81,3.38,3.38,0,0,1,3.57,3.73v.56H32.9a1.76,1.76,0,0,0,1.82,1.92c.94,0,1.4-.41,1.53-1h1.92c-.24,1.59-1.5,2.47-3.5,2.47A3.56,3.56,0,0,1,30.84,16.25Zm5.37-.88c-.07-1.11-.63-1.64-1.6-1.64a1.68,1.68,0,0,0-1.68,1.64Z" transform="translate(0)" fill="#262626"/><path d="M38.89,17.79c0-1.71,1.57-2.35,3.81-2.35h.83v-.29c0-.87-.27-1.35-1.19-1.35a1.11,1.11,0,0,0-1.25,1H39.17c.13-1.74,1.5-2.51,3.29-2.51s3.07.73,3.07,2.72v4.78h-2v-.89a2.5,2.5,0,0,1-2.22,1A2.15,2.15,0,0,1,38.89,17.79Zm4.64-.53v-.61h-.79c-1.17,0-1.86.25-1.86,1,0,.53.32.88,1.07.88S43.53,18.07,43.53,17.26Z" transform="translate(0)" fill="#262626"/><path d="M47.05,12.5h2v1.4a2.41,2.41,0,0,1,2.37-1.51v1.89c-1.5,0-2.37.47-2.37,1.88v3.67h-2Z" transform="translate(0)" fill="#262626"/><path d="M52.57,12.5h2v1.16A2.52,2.52,0,0,1,57,12.33c1.44,0,2.47.87,2.47,2.83v4.67h-2V15.46c0-1-.4-1.48-1.29-1.48a1.46,1.46,0,0,0-1.53,1.61v4.24h-2Z" transform="translate(0)" fill="#262626"/><path d="M63.87,12.5h2v1.12a2.48,2.48,0,0,1,2.24-1.29,2,2,0,0,1,2,1.28,2.91,2.91,0,0,1,2.47-1.28c1.36,0,2.41.86,2.41,2.8v4.7H73V15.36c0-.94-.42-1.36-1.15-1.36a1.36,1.36,0,0,0-1.41,1.5v4.33h-2V15.36c0-.94-.43-1.36-1.15-1.36a1.36,1.36,0,0,0-1.41,1.5v4.33h-2Z" transform="translate(0)" fill="#262626"/><path d="M76.13,16.24v-.11A3.68,3.68,0,0,1,80,12.33a3.63,3.63,0,0,1,3.85,3.75v.12a3.86,3.86,0,0,1-7.72,0Zm5.66,0v-.1c0-1.4-.66-2.24-1.79-2.24s-1.8.81-1.8,2.21v.12c0,1.4.65,2.24,1.8,2.24S81.79,17.6,81.79,16.21Z" transform="translate(0)" fill="#262626"/><path d="M85,12.5h2v1.4a2.41,2.41,0,0,1,2.37-1.51v1.89c-1.5,0-2.37.47-2.37,1.88v3.67H85Z" transform="translate(0)" fill="#262626"/><path d="M89.93,16.25v-.11a3.64,3.64,0,0,1,3.77-3.81,3.38,3.38,0,0,1,3.57,3.73v.56H92a1.76,1.76,0,0,0,1.82,1.92c.94,0,1.41-.41,1.53-1h1.92C97,19.1,95.76,20,93.76,20A3.56,3.56,0,0,1,89.93,16.25Zm5.37-.88c-.07-1.11-.63-1.64-1.6-1.64A1.68,1.68,0,0,0,92,15.37Z" transform="translate(0)" fill="#262626"/></g></g></g></svg>