<svg xmlns="http://www.w3.org/2000/svg" viewBox="0 0 119.66 31.81"><title>find_an_office</title><g id="Layer_2" data-name="Layer 2"><g id="CTA"><g id="Rectangle_1" data-name="Rectangle 1"><rect width="119.66" height="31.81" fill="none"/></g><g id="Find_an_office" data-name="Find an office"><path d="M17.42,9.81h6.42v1.78H19.68v2.65H23V16h-3.3v3.88H17.42Z" transform="translate(0)" fill="#262626"/><path d="M24.72,10.4a1.16,1.16,0,0,1,2.31,0,1.16,1.16,0,0,1-2.31,0Zm.16,2.1h2v7.33h-2Z" transform="translate(0)" fill="#262626"/><path d="M28.54,12.5h2v1.16A2.52,2.52,0,0,1,33,12.33c1.44,0,2.46.87,2.46,2.83v4.67h-2V15.46c0-1-.39-1.48-1.29-1.48a1.45,1.45,0,0,0-1.52,1.61v4.24h-2Z" transform="translate(0)" fill="#262626"/><path d="M36.51,16.27v-.11c0-2.41,1.39-3.83,3.22-3.83A2.43,2.43,0,0,1,42,13.59V9.18h2V19.83H42V18.61A2.65,2.65,0,0,1,39.69,20C37.91,20,36.51,18.71,36.51,16.27Zm5.59-.07v-.12c0-1.45-.64-2.19-1.75-2.19s-1.77.77-1.77,2.22v.12c0,1.45.7,2.17,1.71,2.17S42.1,17.68,42.1,16.2Z" transform="translate(0)" fill="#262626"/><path d="M48.07,17.79c0-1.71,1.57-2.35,3.81-2.35h.83v-.29c0-.87-.26-1.35-1.19-1.35a1.11,1.11,0,0,0-1.25,1H48.35c.13-1.74,1.5-2.51,3.3-2.51s3.06.73,3.06,2.72v4.78h-2v-.89a2.49,2.49,0,0,1-2.21,1C49.2,20,48.07,19.33,48.07,17.79Zm4.64-.53v-.61h-.78c-1.18,0-1.87.25-1.87,1,0,.53.33.88,1.07.88S52.71,18.07,52.71,17.26Z" transform="translate(0)" fill="#262626"/><path d="M56.24,12.5h2v1.16a2.52,2.52,0,0,1,2.38-1.33c1.44,0,2.46.87,2.46,2.83v4.67h-2V15.46c0-1-.39-1.48-1.29-1.48a1.45,1.45,0,0,0-1.52,1.61v4.24h-2Z" transform="translate(0)" fill="#262626"/><path d="M67.09,16.24v-.11A3.67,3.67,0,0,1,71,12.33a3.63,3.63,0,0,1,3.85,3.75v.12a3.86,3.86,0,0,1-7.71,0Zm5.66,0v-.1c0-1.4-.66-2.24-1.8-2.24s-1.79.81-1.79,2.21v.12c0,1.4.64,2.24,1.79,2.24S72.75,17.6,72.75,16.21Z" transform="translate(0)" fill="#262626"/><path d="M76.28,13.94h-1V12.5h1v-.76a2.34,2.34,0,0,1,2.61-2.56,3.57,3.57,0,0,1,1,.15v1.52a2.47,2.47,0,0,0-.73-.12c-.63,0-.9.4-.9,1v.8h2.4v-.84A2.34,2.34,0,0,1,83.32,9.1a3.34,3.34,0,0,1,1.05.14v1.52a2.26,2.26,0,0,0-.75-.12.85.85,0,0,0-.91,1v.9h1.6v1.44h-1.6v5.89h-2V13.94H78.3v5.89h-2Z" transform="translate(0)" fill="#262626"/><path d="M85.24,10.4a1.16,1.16,0,0,1,2.31,0,1.16,1.16,0,0,1-2.31,0Zm.16,2.1h2v7.33h-2Z" transform="translate(0)" fill="#262626"/><path d="M88.62,16.25v-.11a3.63,3.63,0,0,1,3.78-3.81c1.69,0,3.26.74,3.45,2.84H93.93a1.35,1.35,0,0,0-1.49-1.24c-1,0-1.75.78-1.75,2.18v.12c0,1.47.66,2.22,1.79,2.22A1.47,1.47,0,0,0,94.05,17h1.84c-.11,1.73-1.37,2.94-3.5,2.94A3.52,3.52,0,0,1,88.62,16.25Z" transform="translate(0)" fill="#262626"/><path d="M96.5,16.25v-.11a3.64,3.64,0,0,1,3.77-3.81,3.38,3.38,0,0,1,3.57,3.73v.56H98.56c.06,1.22.71,1.92,1.82,1.92.94,0,1.4-.41,1.53-1h1.92c-.24,1.59-1.5,2.47-3.51,2.47A3.56,3.56,0,0,1,96.5,16.25Zm5.37-.88c-.08-1.11-.64-1.64-1.6-1.64a1.68,1.68,0,0,0-1.68,1.64Z" transform="translate(0)" fill="#262626"/></g></g></g></svg>