<?xml version="1.0" encoding="utf-8"?>
<!-- Generator: Adobe Illustrator 23.1.0, SVG Export Plug-In . SVG Version: 6.00 Build 0)  -->
<svg version="1.1" id="Layer_1" xmlns="http://www.w3.org/2000/svg" xmlns:xlink="http://www.w3.org/1999/xlink" x="0px" y="0px"
	 viewBox="0 0 729 91" style="enable-background:new 0 0 729 91;" xml:space="preserve">
<style type="text/css">
	.st0{fill:none;}
	.st1{fill:#FFFFFF;}
</style>
<title>Asset 15</title>
<g>
	<g id="Layer_23">
		<rect class="st0" width="728" height="90"/>
	</g>
	<g id="Power_hour._Your_taxes_could_be_done_in_an_hour.">
		<path class="st1" d="M122.8,15.8h9c6.5,0,9.5,2.9,9.5,7.9v0.1c0,4.9-3.3,7.6-9.2,7.6h-2.5v8h-6.7L122.8,15.8z M131.5,26.8
			c2.2,0,3.3-1,3.3-3v-0.1c0-2-1.2-2.8-3.3-2.8h-2v5.9L131.5,26.8z"/>
		<path class="st1" d="M141.8,30.9v-0.3c0-5.6,4.1-9,9.5-9s9.4,3.4,9.4,8.9v0.3c0,5.6-4.1,9-9.4,9S141.8,36.5,141.8,30.9z
			 M154.6,30.8v-0.3c0-2.9-1.1-4.5-3.4-4.5s-3.4,1.5-3.4,4.5v0.3c0,3,1.2,4.6,3.4,4.6S154.6,33.7,154.6,30.8z"/>
		<path class="st1" d="M160.7,22.1h6.2l2.5,10.3l2.9-10.3h4.7l2.6,10.3l2.8-10.3h5.6l-5.5,17.3h-5.6l-2.6-9.6l-2.7,9.6h-5.7
			L160.7,22.1z"/>
		<path class="st1" d="M187.9,30.9v-0.3c0-5.6,4.1-9,9.3-9c4.7,0,8.8,2.7,8.8,8.9v1.5h-12.1c0.2,2.3,1.5,3.6,3.6,3.6
			c2,0,2.8-0.9,3-2h5.6c-0.5,3.9-3.5,6.1-8.7,6.1C191.8,39.7,187.9,36.6,187.9,30.9z M200.2,28.8c-0.1-2.1-1.1-3.2-3-3.2
			s-3,1.1-3.3,3.2H200.2z"/>
		<path class="st1" d="M208,22.1h5.9v3.4c0.8-2.4,3.1-3.9,5.6-3.7v5.5c-3.6-0.1-5.6,1-5.6,3.8v8.2H208V22.1z"/>
		<path class="st1" d="M227.6,14.5h5.9v10.4c1.1-2.1,3.3-3.4,5.7-3.2c3.3,0,5.6,2.1,5.6,6.5v11.2H239v-10c0-2-0.8-2.9-2.5-2.9
			s-2.9,1.1-2.9,3.3v9.7h-5.9L227.6,14.5z"/>
		<path class="st1" d="M246.8,30.9v-0.3c0-5.6,4.1-9,9.5-9s9.4,3.4,9.4,8.9v0.3c0,5.6-4.1,9-9.4,9S246.8,36.5,246.8,30.9z
			 M259.7,30.8v-0.3c0-2.9-1.1-4.5-3.4-4.5s-3.4,1.5-3.4,4.5v0.3c0,3,1.2,4.6,3.4,4.6S259.7,33.7,259.7,30.8z"/>
		<path class="st1" d="M267.6,33.3V22.1h5.9v10.3c0,2,0.8,2.9,2.5,2.9s2.9-1.1,2.9-3.3v-9.9h5.9v17.3h-5.9v-2.7
			c-1,2-3.2,3.2-5.5,3.1C270.1,39.7,267.6,37.7,267.6,33.3z"/>
		<path class="st1" d="M287.8,22.1h5.9v3.4c0.8-2.4,3.1-3.9,5.6-3.7v5.5c-3.6-0.1-5.6,1-5.6,3.8v8.2h-5.9V22.1z"/>
		<path class="st1" d="M299.3,36.4c0-1.8,1.4-3.3,3.2-3.4c0.1,0,0.1,0,0.2,0c1.8-0.1,3.4,1.3,3.5,3.2c0.1,1.8-1.3,3.4-3.2,3.5
			c-0.1,0-0.2,0-0.4,0C300.8,39.7,299.3,38.3,299.3,36.4C299.3,36.4,299.3,36.4,299.3,36.4z"/>
		<path class="st1" d="M321.1,29.3l-7.7-13.5h7.4l4,8l4-7.9h6.5l-7.3,13.5v10.1h-6.8L321.1,29.3z"/>
		<path class="st1" d="M332.7,30.9v-0.3c0-5.6,4.1-9,9.5-9s9.4,3.4,9.4,8.9v0.3c0,5.6-4.1,9-9.4,9S332.7,36.5,332.7,30.9z
			 M345.6,30.8v-0.3c0-2.9-1.1-4.5-3.4-4.5s-3.4,1.5-3.4,4.5v0.3c0,3,1.2,4.6,3.4,4.6S345.6,33.7,345.6,30.8z"/>
		<path class="st1" d="M353.5,33.3V22.1h5.9v10.3c0,2,0.8,2.9,2.4,2.9s2.9-1.1,2.9-3.3v-9.9h5.9v17.3h-5.9v-2.7
			c-1,2-3.2,3.2-5.5,3.1C356,39.7,353.5,37.7,353.5,33.3z"/>
		<path class="st1" d="M373.7,22.1h5.9v3.4c0.8-2.3,3.1-3.9,5.6-3.7v5.5c-3.6-0.1-5.6,1-5.6,3.8v8.2h-5.9V22.1z"/>
		<path class="st1" d="M394.2,33.8v-7.7h-2.1v-4h2.1v-3.6h5.9v3.6h3.4v4h-3.4v7.1c0,1.3,0.6,1.8,1.8,1.8c0.6,0,1.2-0.1,1.7-0.3v4.5
			c-1.1,0.3-2.2,0.5-3.3,0.5C396.3,39.7,394.2,37.9,394.2,33.8z"/>
		<path class="st1" d="M404.8,34.6c0-4.1,3.4-5.6,9.2-5.6h1.6v-0.4c0-1.6-0.4-2.7-2.3-2.7c-1.2-0.1-2.2,0.7-2.3,1.9c0,0,0,0.1,0,0.1
			h-5.5c0.3-4.2,3.5-6.2,8.3-6.2s7.8,2,7.8,6.5v11.2h-5.7v-2c-0.8,1.3-2.3,2.4-5.1,2.4C407.5,39.7,404.8,38.2,404.8,34.6z
			 M415.6,33.3v-1.1h-1.5c-2.4,0-3.4,0.5-3.4,1.9c0,1,0.7,1.6,2,1.6C414.4,35.8,415.6,34.8,415.6,33.3z"/>
		<path class="st1" d="M428.7,30.6l-5.4-8.5h6.8l2.7,4.5l2.6-4.5h6.1l-5.5,8l6,9.2h-6.8l-3.1-5.2l-3.2,5.2h-6L428.7,30.6z"/>
		<path class="st1" d="M441.3,30.9v-0.3c0-5.6,4.1-9,9.3-9c4.7,0,8.8,2.7,8.8,8.9v1.5h-12.1c0.2,2.3,1.5,3.6,3.6,3.6
			c1.9,0,2.8-0.9,3-2h5.5c-0.5,3.9-3.5,6.1-8.8,6.1C445.2,39.7,441.3,36.6,441.3,30.9z M453.6,28.8c-0.1-2.1-1.1-3.2-3-3.2
			s-3,1.1-3.3,3.2H453.6z"/>
		<path class="st1" d="M460.4,33.9h5.4c0.2,1.3,0.8,2,2.5,2c1.5,0,2.1-0.6,2.1-1.4s-0.8-1.2-3.2-1.5c-4.6-0.6-6.6-2-6.6-5.5
			c0-3.8,3.4-5.7,7.4-5.7c4.3,0,7.2,1.5,7.6,5.6h-5.4c-0.1-1.1-1.1-1.8-2.1-1.7c0,0-0.1,0-0.1,0c-1.3,0-2,0.6-2,1.4s0.8,1.2,2.9,1.4
			c4.8,0.6,7.1,1.9,7.1,5.5c0,4.1-3,5.9-7.8,5.9S460.6,37.7,460.4,33.9z"/>
		<path class="st1" d="M121.3,65.9v-0.3c0-5.7,4.1-9,9.2-9c4.2,0,8.1,1.8,8.4,7.1h-5.5c-0.3-1.6-1.1-2.5-2.8-2.5
			c-2.1,0-3.3,1.5-3.3,4.4v0.3c0,3,1.1,4.6,3.4,4.6c1.6,0.1,2.9-1.2,3-2.8c0,0,0-0.1,0-0.1h5.3c-0.2,4.4-3.1,7.2-8.7,7.2
			C125.3,74.8,121.3,71.7,121.3,65.9z"/>
		<path class="st1" d="M140.1,65.9v-0.3c0-5.5,4.1-9,9.5-9s9.5,3.4,9.5,8.9v0.3c0,5.6-4.1,9-9.4,9S140.1,71.5,140.1,65.9z
			 M152.9,65.8v-0.3c0-2.9-1.1-4.5-3.4-4.5s-3.4,1.5-3.4,4.5v0.3c0,3,1.1,4.6,3.4,4.6S152.9,68.7,152.9,65.8z"/>
		<path class="st1" d="M160.9,68.3V57.1h5.9v10.3c0,2,0.8,2.9,2.4,2.9s2.9-1.1,2.9-3.3v-9.9h5.9v17.3h-5.9v-2.7
			c-1,2-3.2,3.2-5.5,3.1C163.4,74.8,160.9,72.7,160.9,68.3z"/>
		<path class="st1" d="M181.3,49.5h5.9v24.8h-5.9V49.5z"/>
		<path class="st1" d="M189.4,65.9v-0.3c0-5.9,3.2-9,7.3-9c2.2-0.2,4.3,1,5.3,2.9v-10h5.9v24.8h-5.9v-2.8c-1,2-3.1,3.3-5.4,3.2
			C192.7,74.8,189.4,71.9,189.4,65.9z M202.2,65.8v-0.3c0-2.9-1.2-4.5-3.4-4.5s-3.4,1.5-3.4,4.5v0.3c0,2.9,1.3,4.4,3.3,4.4
			S202.2,68.7,202.2,65.8z"/>
		<path class="st1" d="M222.9,71.7v2.7H217V49.5h5.9v10.2c1.1-1.9,3.2-3,5.4-3c4,0,7.3,3,7.3,9v0.3c0,5.9-3.3,8.9-7.3,8.9
			C226,74.9,223.9,73.7,222.9,71.7z M229.6,65.8v-0.3c0-3-1.3-4.5-3.4-4.5s-3.4,1.5-3.4,4.5v0.3c0,2.9,1.3,4.4,3.4,4.4
			S229.6,68.7,229.6,65.8L229.6,65.8z"/>
		<path class="st1" d="M236.8,65.9v-0.3c0-5.5,4.1-9,9.3-9c4.7,0,8.8,2.7,8.8,8.9v1.6h-12.1c0.2,2.3,1.5,3.6,3.6,3.6
			c1.9,0,2.8-0.9,3-2h5.5c-0.5,3.9-3.5,6.1-8.8,6.1C240.8,74.8,236.8,71.6,236.8,65.9z M249.2,63.8c-0.1-2.1-1.1-3.2-3-3.2
			s-3,1.2-3.3,3.2H249.2z"/>
		<path class="st1" d="M262.1,65.9v-0.3c0-5.9,3.2-9,7.3-9c2.2-0.2,4.3,1,5.3,2.9v-10h5.9v24.8h-5.9v-2.8c-1,2-3.1,3.3-5.4,3.2
			C265.4,74.8,262.1,71.9,262.1,65.9z M274.9,65.8v-0.3c0-2.9-1.2-4.5-3.4-4.5s-3.4,1.5-3.4,4.5v0.3c0,2.9,1.3,4.4,3.3,4.4
			S274.9,68.7,274.9,65.8z"/>
		<path class="st1" d="M282.7,65.9v-0.3c0-5.5,4.1-9,9.5-9s9.4,3.4,9.4,8.9v0.3c0,5.6-4.1,9-9.4,9S282.7,71.5,282.7,65.9z
			 M295.6,65.8v-0.3c0-2.9-1.2-4.5-3.4-4.5s-3.4,1.5-3.4,4.5v0.3c0,3,1.1,4.6,3.4,4.6S295.6,68.7,295.6,65.8z"/>
		<path class="st1" d="M303.7,57.1h5.9v2.8c1.1-2.1,3.3-3.4,5.7-3.2c3.3,0,5.6,2.1,5.6,6.5v11.2H315v-10c0-2-0.8-2.9-2.5-2.9
			s-2.9,1.1-2.9,3.3v9.7h-5.9V57.1z"/>
		<path class="st1" d="M322.9,65.9v-0.3c0-5.5,4.1-9,9.3-9c4.7,0,8.8,2.7,8.8,8.9v1.6h-12.1c0.2,2.3,1.5,3.6,3.6,3.6
			c2,0,2.8-0.9,3-2h5.6c-0.5,3.9-3.5,6.1-8.7,6.1C326.8,74.8,322.9,71.6,322.9,65.9z M335.2,63.8c-0.1-2.1-1.1-3.2-3-3.2
			s-3,1.2-3.3,3.2H335.2z"/>
		<path class="st1" d="M348.9,52.4c-0.1-1.8,1.2-3.4,3-3.5c1.8-0.1,3.4,1.2,3.5,3s-1.2,3.4-3,3.5c-0.1,0-0.2,0-0.3,0
			C350.4,55.5,349,54.2,348.9,52.4C348.9,52.4,348.9,52.4,348.9,52.4z M349.2,57.1h5.9v17.3h-5.9V57.1z"/>
		<path class="st1" d="M358.3,57.1h5.9v2.8c1.1-2.1,3.3-3.4,5.7-3.2c3.3,0,5.6,2.1,5.6,6.5v11.2h-5.9v-10c0-2-0.8-2.9-2.5-2.9
			s-2.9,1.1-2.9,3.3v9.7h-5.9V57.1z"/>
		<path class="st1" d="M383.4,69.6c0-4.1,3.4-5.6,9.2-5.6h1.6v-0.4c0-1.7-0.4-2.7-2.3-2.7c-1.2-0.1-2.2,0.7-2.3,1.9c0,0,0,0.1,0,0.1
			H384c0.3-4.2,3.5-6.2,8.3-6.2s7.8,2,7.8,6.5v11.2h-5.7v-2c-1.1,1.7-3.1,2.6-5.1,2.4C386.1,74.8,383.4,73.2,383.4,69.6z
			 M394.2,68.3v-1.1h-1.5c-2.4,0-3.4,0.5-3.4,1.9c0,1,0.7,1.6,2,1.6C393,70.8,394.2,69.8,394.2,68.3L394.2,68.3z"/>
		<path class="st1" d="M402.9,57.1h5.9v2.8c1.1-2.1,3.3-3.4,5.7-3.2c3.3,0,5.6,2.1,5.6,6.5v11.2h-5.9v-10c0-2-0.8-2.9-2.5-2.9
			s-2.9,1.1-2.9,3.3v9.7h-5.9V57.1z"/>
		<path class="st1" d="M429,49.5h6v10.4c1.1-2.1,3.3-3.3,5.7-3.2c3.3,0,5.6,2.1,5.6,6.5v11.2h-5.9v-10c0-2-0.8-2.9-2.5-2.9
			s-2.9,1-2.9,3.2v9.7h-6V49.5z"/>
		<path class="st1" d="M448.2,65.9v-0.3c0-5.5,4.1-9,9.5-9s9.4,3.4,9.4,8.9v0.3c0,5.6-4.1,9-9.4,9S448.2,71.5,448.2,65.9z
			 M461.1,65.8v-0.3c0-2.9-1.2-4.5-3.4-4.5s-3.4,1.5-3.4,4.5v0.3c0,3,1.1,4.6,3.4,4.6S461.1,68.7,461.1,65.8z"/>
		<path class="st1" d="M469,68.3V57.1h6v10.3c0,2,0.8,2.9,2.4,2.9s2.9-1.1,2.9-3.3v-9.9h5.9v17.3h-5.9v-2.7c-1,2-3.2,3.2-5.5,3.1
			C471.5,74.8,469,72.7,469,68.3z"/>
		<path class="st1" d="M489.2,57.1h5.9v3.4c0.8-2.4,3.1-3.9,5.6-3.7v5.5c-3.6-0.1-5.6,1-5.6,3.8v8.2h-5.9V57.1z"/>
		<path class="st1" d="M500.6,71.4c0-1.8,1.4-3.3,3.2-3.4c0,0,0.1,0,0.1,0c1.8-0.1,3.4,1.3,3.5,3.2c0.1,1.8-1.3,3.4-3.2,3.5
			c-0.1,0-0.2,0-0.4,0C502.2,74.7,500.7,73.3,500.6,71.4C500.7,71.4,500.6,71.4,500.6,71.4z"/>
	</g>
</g>
</svg>
