<svg xmlns="http://www.w3.org/2000/svg" viewBox="0 0 729 91"><title>Asset 15</title><g id="Layer_2" data-name="Layer 2"><g id="Layer_23" data-name="Layer 23"><rect x="0.5" y="0.5" width="728" height="90" fill="none" stroke="#000" stroke-miterlimit="10"/></g><g id="Power_hour._Your_taxes_could_be_done_in_an_hour." data-name="Power hour. Your taxes could be done in an hour."><path d="M122.78,15.75h9c6.47,0,9.48,2.87,9.48,7.89v.13c0,4.95-3.34,7.62-9.18,7.62h-2.54v8h-6.73Zm8.68,11c2.18,0,3.33-1,3.33-3v-.13c0-2-1.19-2.84-3.3-2.84h-2v5.94Z" fill="#fff"/><path d="M141.75,30.93v-.26c0-5.55,4.13-9,9.47-9s9.41,3.4,9.41,8.88v.27c0,5.61-4.12,9-9.44,9S141.75,36.51,141.75,30.93Zm12.87-.1v-.26c0-2.9-1.15-4.52-3.4-4.52s-3.43,1.55-3.43,4.45v.27c0,3,1.16,4.58,3.43,4.58S154.62,33.71,154.62,30.83Z" fill="#fff"/><path d="M160.69,22.09h6.18l2.5,10.33,2.91-10.33H177l2.58,10.33,2.8-10.33H188l-5.48,17.26H176.9l-2.57-9.64-2.68,9.64h-5.74Z" fill="#fff"/><path d="M187.85,30.93v-.26c0-5.55,4.13-9,9.34-9,4.72,0,8.78,2.71,8.78,8.92v1.55H193.83c.16,2.27,1.48,3.6,3.59,3.6,2,0,2.78-.9,3-2H206c-.53,3.89-3.53,6.1-8.74,6.1C191.81,39.74,187.85,36.58,187.85,30.93Zm12.38-2.18c-.1-2.08-1.12-3.23-3-3.23s-3,1.15-3.3,3.23Z" fill="#fff"/><path d="M208,22.09h5.9v3.43a5.44,5.44,0,0,1,5.58-3.66v5.51c-3.6-.1-5.58,1-5.58,3.79v8.19H208Z" fill="#fff"/><path d="M227.65,14.5h5.91V24.86a6.09,6.09,0,0,1,5.67-3.24c3.34,0,5.65,2.08,5.65,6.51V39.35H239v-10c0-1.95-.76-2.91-2.47-2.91s-2.94,1.06-2.94,3.27v9.67h-5.91Z" fill="#fff"/><path d="M246.82,30.93v-.26c0-5.55,4.13-9,9.47-9s9.41,3.4,9.41,8.88v.27c0,5.61-4.12,9-9.44,9S246.82,36.51,246.82,30.93Zm12.87-.1v-.26c0-2.9-1.15-4.52-3.4-4.52s-3.43,1.55-3.43,4.45v.27c0,3,1.16,4.58,3.43,4.58S259.69,33.71,259.69,30.83Z" fill="#fff"/><path d="M267.65,33.34V22.09h5.9V32.38c0,1.95.76,2.91,2.45,2.91s2.93-1.06,2.93-3.27V22.09h5.91V39.35h-5.91V36.68a5.66,5.66,0,0,1-5.48,3.06C270.12,39.74,267.65,37.7,267.65,33.34Z" fill="#fff"/><path d="M287.84,22.09h5.91v3.43a5.43,5.43,0,0,1,5.58-3.66v5.51c-3.6-.1-5.58,1-5.58,3.79v8.19h-5.91Z" fill="#fff"/><path d="M299.26,36.38A3.3,3.3,0,0,1,302.63,33a3.34,3.34,0,1,1,0,6.67A3.29,3.29,0,0,1,299.26,36.38Z" fill="#fff"/><path d="M321.07,29.25l-7.69-13.5h7.36l4,8,4-7.95h6.47l-7.33,13.5v10.1h-6.8Z" fill="#fff"/><path d="M332.72,30.93v-.26c0-5.55,4.13-9,9.47-9s9.41,3.4,9.41,8.88v.27c0,5.61-4.13,9-9.44,9S332.72,36.51,332.72,30.93Zm12.87-.1v-.26c0-2.9-1.15-4.52-3.4-4.52s-3.43,1.55-3.43,4.45v.27c0,3,1.16,4.58,3.43,4.58S345.59,33.71,345.59,30.83Z" fill="#fff"/><path d="M353.54,33.34V22.09h5.91V32.38c0,1.95.76,2.91,2.44,2.91s2.94-1.06,2.94-3.27V22.09h5.91V39.35h-5.91V36.68a5.67,5.67,0,0,1-5.48,3.06C356,39.74,353.54,37.7,353.54,33.34Z" fill="#fff"/><path d="M373.74,22.09h5.91v3.43a5.43,5.43,0,0,1,5.57-3.66v5.51c-3.59-.1-5.57,1-5.57,3.79v8.19h-5.91Z" fill="#fff"/><path d="M394.17,33.8V26.11h-2.08v-4h2.08v-3.6h5.9v3.6h3.4v4h-3.4v7.13c0,1.26.63,1.82,1.75,1.82a4.5,4.5,0,0,0,1.69-.3v4.49a12.42,12.42,0,0,1-3.27.49C396.34,39.74,394.17,37.86,394.17,33.8Z" fill="#fff"/><path d="M404.79,34.56c0-4.06,3.43-5.64,9.18-5.64h1.65v-.4c0-1.65-.4-2.74-2.28-2.74a2.12,2.12,0,0,0-2.34,2h-5.55c.26-4.16,3.53-6.21,8.25-6.21s7.79,1.95,7.79,6.54V39.35h-5.74v-2c-.83,1.25-2.34,2.4-5.12,2.4C407.53,39.74,404.79,38.23,404.79,34.56Zm10.83-1.25V32.25h-1.55c-2.38,0-3.44.46-3.44,1.88,0,1,.66,1.62,2.05,1.62C414.36,35.75,415.62,34.79,415.62,33.31Z" fill="#fff"/><path d="M428.72,30.57l-5.38-8.48h6.8l2.67,4.55,2.61-4.55h6.07l-5.45,8,6,9.24h-6.8l-3.07-5.15L429,39.35h-6Z" fill="#fff"/><path d="M441.26,30.93v-.26c0-5.55,4.12-9,9.34-9,4.72,0,8.78,2.71,8.78,8.92v1.55H447.23c.16,2.27,1.48,3.6,3.6,3.6,1.94,0,2.77-.9,3-2h5.55c-.53,3.89-3.54,6.1-8.75,6.1C445.22,39.74,441.26,36.58,441.26,30.93Zm12.37-2.18c-.1-2.08-1.12-3.23-3-3.23s-3,1.15-3.31,3.23Z" fill="#fff"/><path d="M460.43,33.87h5.44c.2,1.25.76,2,2.45,2,1.45,0,2.11-.56,2.11-1.42s-.83-1.22-3.2-1.55c-4.62-.6-6.57-2-6.57-5.55,0-3.83,3.4-5.68,7.39-5.68,4.26,0,7.23,1.46,7.63,5.58h-5.35a1.93,1.93,0,0,0-2.21-1.71c-1.29,0-1.95.56-1.95,1.35s.79,1.16,2.91,1.42c4.78.59,7.09,1.85,7.09,5.54,0,4.1-3,5.94-7.82,5.94S460.56,37.7,460.43,33.87Z" fill="#fff"/><path d="M121.33,65.93v-.26c0-5.74,4.12-9.05,9.2-9.05,4.23,0,8.12,1.85,8.45,7.1h-5.54c-.27-1.62-1.06-2.51-2.77-2.51-2.08,0-3.3,1.49-3.3,4.39v.27c0,3,1.15,4.55,3.39,4.55a2.88,2.88,0,0,0,3-2.87h5.31c-.16,4.36-3.1,7.2-8.68,7.2C125.25,74.75,121.33,71.74,121.33,65.93Z" fill="#fff"/><path d="M140.07,65.93v-.26c0-5.55,4.12-9.05,9.47-9.05S159,60,159,65.5v.27c0,5.61-4.13,9-9.44,9S140.07,71.51,140.07,65.93Zm12.87-.1v-.26c0-2.9-1.15-4.52-3.4-4.52s-3.43,1.55-3.43,4.45v.27c0,3,1.15,4.59,3.43,4.59S152.94,68.71,152.94,65.83Z" fill="#fff"/><path d="M160.89,68.34V57.09h5.91V67.38c0,2,.76,2.91,2.44,2.91s2.94-1.06,2.94-3.27V57.09h5.91V74.35h-5.91V71.68a5.67,5.67,0,0,1-5.48,3.07C163.37,74.75,160.89,72.7,160.89,68.34Z" fill="#fff"/><path d="M181.25,49.5h5.88V74.35h-5.88Z" fill="#fff"/><path d="M189.44,65.9v-.26c0-5.88,3.23-9,7.32-9a5.6,5.6,0,0,1,5.32,2.91v-10H208V74.35h-5.9V71.54a5.82,5.82,0,0,1-5.38,3.21C192.7,74.75,189.44,71.87,189.44,65.9Zm12.8-.1v-.26c0-2.91-1.22-4.46-3.4-4.46s-3.4,1.49-3.4,4.49v.26c0,2.91,1.29,4.39,3.34,4.39S202.24,68.74,202.24,65.8Z" fill="#fff"/><path d="M222.9,71.68v2.67H217V49.5h5.91V59.66a6.09,6.09,0,0,1,5.38-3c4,0,7.29,3,7.29,8.95v.26c0,5.94-3.27,8.92-7.32,8.92A5.61,5.61,0,0,1,222.9,71.68Zm6.67-5.85v-.26c0-3-1.32-4.49-3.4-4.49s-3.44,1.55-3.44,4.46v.26c0,2.94,1.29,4.42,3.44,4.42S229.57,68.67,229.57,65.83Z" fill="#fff"/><path d="M236.79,65.93v-.26c0-5.55,4.13-9.05,9.34-9.05,4.72,0,8.78,2.71,8.78,8.92v1.55H242.76c.17,2.28,1.49,3.6,3.6,3.6,1.95,0,2.77-.9,3-2h5.54c-.53,3.89-3.53,6.11-8.75,6.11C240.75,74.75,236.79,71.58,236.79,65.93Zm12.38-2.18c-.1-2.08-1.13-3.23-3-3.23s-3,1.15-3.3,3.23Z" fill="#fff"/><path d="M262.1,65.9v-.26c0-5.88,3.23-9,7.33-9a5.6,5.6,0,0,1,5.31,2.91v-10h5.91V74.35h-5.91V71.54a5.81,5.81,0,0,1-5.38,3.21C265.37,74.75,262.1,71.87,262.1,65.9Zm12.81-.1v-.26c0-2.91-1.22-4.46-3.4-4.46s-3.4,1.49-3.4,4.49v.26c0,2.91,1.28,4.39,3.33,4.39S274.91,68.74,274.91,65.8Z" fill="#fff"/><path d="M282.73,65.93v-.26c0-5.55,4.12-9.05,9.47-9.05s9.4,3.4,9.4,8.88v.27c0,5.61-4.12,9-9.43,9S282.73,71.51,282.73,65.93Zm12.87-.1v-.26c0-2.9-1.16-4.52-3.4-4.52s-3.43,1.55-3.43,4.45v.27c0,3,1.15,4.59,3.43,4.59S295.6,68.71,295.6,65.83Z" fill="#fff"/><path d="M303.68,57.09h5.91v2.77a6.09,6.09,0,0,1,5.68-3.24c3.33,0,5.64,2.08,5.64,6.51V74.35H315v-10c0-1.95-.76-2.91-2.47-2.91s-2.94,1.06-2.94,3.27v9.67h-5.91Z" fill="#fff"/><path d="M322.85,65.93v-.26c0-5.55,4.13-9.05,9.34-9.05,4.72,0,8.78,2.71,8.78,8.92v1.55H328.83c.16,2.28,1.48,3.6,3.59,3.6,1.95,0,2.78-.9,3-2H341c-.53,3.89-3.53,6.11-8.74,6.11C326.81,74.75,322.85,71.58,322.85,65.93Zm12.38-2.18c-.1-2.08-1.12-3.23-3-3.23s-3,1.15-3.3,3.23Z" fill="#fff"/><path d="M348.89,52.4a3.26,3.26,0,1,1,3.23,3A3.08,3.08,0,0,1,348.89,52.4Zm.3,4.69h5.9V74.35h-5.9Z" fill="#fff"/><path d="M358.26,57.09h5.91v2.77a6.09,6.09,0,0,1,5.68-3.24c3.33,0,5.64,2.08,5.64,6.51V74.35h-5.91v-10c0-1.95-.76-2.91-2.47-2.91s-2.94,1.06-2.94,3.27v9.67h-5.91Z" fill="#fff"/><path d="M383.37,69.56c0-4.06,3.44-5.64,9.18-5.64h1.65v-.4c0-1.65-.4-2.74-2.28-2.74a2.12,2.12,0,0,0-2.34,2H384c.27-4.16,3.54-6.21,8.26-6.21s7.78,2,7.78,6.54V74.35h-5.74v-2a5.65,5.65,0,0,1-5.11,2.42C386.11,74.75,383.37,73.23,383.37,69.56Zm10.83-1.25V67.25h-1.55c-2.38,0-3.43.46-3.43,1.88,0,1,.66,1.62,2,1.62C393,70.75,394.2,69.79,394.2,68.31Z" fill="#fff"/><path d="M402.94,57.09h5.91v2.77a6.1,6.1,0,0,1,5.68-3.24c3.33,0,5.64,2.08,5.64,6.51V74.35h-5.91v-10c0-1.95-.76-2.91-2.47-2.91s-2.94,1.06-2.94,3.27v9.67h-5.91Z" fill="#fff"/><path d="M429,49.5H435V59.86a6.11,6.11,0,0,1,5.68-3.24c3.33,0,5.64,2.08,5.64,6.51V74.35h-5.9v-10c0-1.95-.76-2.91-2.48-2.91S435,62.47,435,64.68v9.67H429Z" fill="#fff"/><path d="M448.22,65.93v-.26c0-5.55,4.12-9.05,9.47-9.05s9.41,3.4,9.41,8.88v.27c0,5.61-4.13,9-9.44,9S448.22,71.51,448.22,65.93Zm12.87-.1v-.26c0-2.9-1.16-4.52-3.4-4.52s-3.43,1.55-3.43,4.45v.27c0,3,1.15,4.59,3.43,4.59S461.09,68.71,461.09,65.83Z" fill="#fff"/><path d="M469,68.34V57.09H475V67.38c0,2,.76,2.91,2.44,2.91s2.94-1.06,2.94-3.27V57.09h5.91V74.35h-5.91V71.68a5.69,5.69,0,0,1-5.48,3.07C471.52,74.75,469,72.7,469,68.34Z" fill="#fff"/><path d="M489.24,57.09h5.9v3.43a5.44,5.44,0,0,1,5.58-3.66v5.51c-3.6-.1-5.58,1-5.58,3.79v8.19h-5.9Z" fill="#fff"/><path d="M500.65,71.38A3.3,3.3,0,0,1,504,68a3.34,3.34,0,1,1,0,6.67A3.29,3.29,0,0,1,500.65,71.38Z" fill="#fff"/></g></g></svg>