<svg xmlns="http://www.w3.org/2000/svg" viewBox="0 0 300 250"><title>H2</title><g id="Layer_2" data-name="Layer 2"><g id="Rect"><rect width="300" height="250" fill="none"/></g><g id="H02"><g id="Starting_in_January_you_could_get_a_Refund_Advance_loan_up_to" data-name="Starting in January, you could get a Refund Advance loan up to"><path d="M20.65,31.94h5.54c.14,1.45.8,2.64,3.21,2.64,1.67,0,2.61-.82,2.61-2s-.76-1.59-3.21-2c-5.73-.68-7.66-2.38-7.66-6.47,0-3.66,3-6.33,7.86-6.33s7.64,2,8,6.33h-5.4A2.3,2.3,0,0,0,29,21.94c-1.56,0-2.35.71-2.35,1.74s.62,1.64,3.15,2c5.14.57,7.78,1.91,7.78,6.31,0,3.72-3,6.76-8.18,6.76C23.72,38.73,20.82,36.34,20.65,31.94Z" fill="#fff"/><path d="M40.13,33.61V27H38.35V23.53h1.78V20.44h5.09v3.09h2.92V27H45.22v6.13c0,1.08.54,1.56,1.5,1.56a3.87,3.87,0,0,0,1.45-.25V38.3a10.64,10.64,0,0,1-2.81.43C42,38.73,40.13,37.11,40.13,33.61Z" fill="#fff"/><path d="M49.28,34.27c0-3.5,2.95-4.86,7.89-4.86h1.42v-.34c0-1.42-.34-2.36-2-2.36a1.82,1.82,0,0,0-2,1.76H49.85c.22-3.57,3-5.33,7.1-5.33s6.7,1.67,6.7,5.62v9.62H58.71V36.65a4.88,4.88,0,0,1-4.4,2.08C51.64,38.73,49.28,37.42,49.28,34.27Zm9.31-1.08v-.91H57.26c-2,0-2.95.4-2.95,1.62,0,.85.56,1.39,1.76,1.39A2.23,2.23,0,0,0,58.59,33.19Z" fill="#fff"/><path d="M66.12,23.53H71.2v3A4.69,4.69,0,0,1,76,23.33v4.75c-3.09-.09-4.8.88-4.8,3.26v7H66.12Z" fill="#fff"/><path d="M78.76,33.61V27H77V23.53h1.79V20.44h5.08v3.09h2.93V27H83.84v6.13a1.36,1.36,0,0,0,1.51,1.56,3.85,3.85,0,0,0,1.44-.25V38.3a10.57,10.57,0,0,1-2.81.43C80.63,38.73,78.76,37.11,78.76,33.61Z" fill="#fff"/><path d="M88.58,19.5a2.81,2.81,0,1,1,2.79,2.61A2.63,2.63,0,0,1,88.58,19.5Zm.26,4h5.08V38.38H88.84Z" fill="#fff"/><path d="M96.65,23.53h5.08v2.39a5.26,5.26,0,0,1,4.89-2.78c2.87,0,4.85,1.78,4.85,5.59v9.65h-5.08V29.75c0-1.67-.65-2.5-2.13-2.5s-2.53.91-2.53,2.81v8.32H96.65Z" fill="#fff"/><path d="M113.12,38.38h5.06c.22,1.08.88,1.94,2.72,1.94a2.81,2.81,0,0,0,3.15-3.13V34.92a5.2,5.2,0,0,1-4.6,2.73c-3.46,0-6.3-2.56-6.3-7.13v-.23c0-4.37,2.81-7.15,6.3-7.15a4.83,4.83,0,0,1,4.6,2.49v-2.1h5.09V37.14c0,4.43-2.93,6.75-8.24,6.75C115.85,43.89,113.52,41.76,113.12,38.38Zm11.08-7.89v-.2c0-2-1-3.35-2.93-3.35s-2.92,1.34-2.92,3.38v.23c0,2,1.08,3.35,2.89,3.35S124.2,32.59,124.2,30.49Z" fill="#fff"/><path d="M136.78,19.5a2.8,2.8,0,1,1,2.78,2.61A2.62,2.62,0,0,1,136.78,19.5Zm.25,4h5.09V38.38H137Z" fill="#fff"/><path d="M144.84,23.53h5.09v2.39a5.23,5.23,0,0,1,4.88-2.78c2.87,0,4.86,1.78,4.86,5.59v9.65h-5.09V29.75c0-1.67-.65-2.5-2.13-2.5s-2.52.91-2.52,2.81v8.32h-5.09Z" fill="#fff"/><path d="M166.74,38V33.61a6.81,6.81,0,0,0,2.47.4c1.59,0,2.64-.71,2.64-2.81V18.08h5.85V31.26c0,4.88-2.5,7.38-7.27,7.38A7.77,7.77,0,0,1,166.74,38Z" fill="#fff"/><path d="M179.32,34.27c0-3.5,3-4.86,7.9-4.86h1.41v-.34c0-1.42-.34-2.36-1.95-2.36a1.82,1.82,0,0,0-2,1.76h-4.77c.23-3.57,3-5.33,7.1-5.33s6.7,1.67,6.7,5.62v9.62h-4.94V36.65a4.88,4.88,0,0,1-4.4,2.08C181.68,38.73,179.32,37.42,179.32,34.27Zm9.31-1.08v-.91H187.3c-2,0-3,.4-3,1.62,0,.85.57,1.39,1.76,1.39C187.56,35.29,188.63,34.47,188.63,33.19Z" fill="#fff"/><path d="M196.16,23.53h5.09v2.39a5.23,5.23,0,0,1,4.88-2.78c2.87,0,4.86,1.78,4.86,5.59v9.65H205.9V29.75c0-1.67-.65-2.5-2.13-2.5s-2.52.91-2.52,2.81v8.32h-5.09Z" fill="#fff"/><path d="M213.34,33.22V23.53h5.09v8.86c0,1.68.65,2.5,2.1,2.5s2.53-.91,2.53-2.81V23.53h5.08V38.38h-5.08v-2.3a4.89,4.89,0,0,1-4.72,2.65C215.47,38.73,213.34,37,213.34,33.22Z" fill="#fff"/><path d="M229.87,34.27c0-3.5,3-4.86,7.9-4.86h1.42v-.34c0-1.42-.34-2.36-2-2.36a1.83,1.83,0,0,0-2,1.76h-4.77c.23-3.57,3-5.33,7.1-5.33s6.7,1.67,6.7,5.62v9.62H239.3V36.65a4.88,4.88,0,0,1-4.4,2.08C232.23,38.73,229.87,37.42,229.87,34.27Zm9.32-1.08v-.91h-1.34c-2,0-2.95.4-2.95,1.62,0,.85.57,1.39,1.76,1.39C238.11,35.29,239.19,34.47,239.19,33.19Z" fill="#fff"/><path d="M246.71,23.53h5.09v3a4.67,4.67,0,0,1,4.79-3.16v4.75c-3.09-.09-4.79.88-4.79,3.26v7h-5.09Z" fill="#fff"/><path d="M263.33,36.88l-5.94-13.35h5.51L266,31.46l2.84-7.93h4.85l-8,19.82h-4.85Z" fill="#fff"/><path d="M271.73,40.69l2.39-7.47,4.71,1.67-4.09,7Z" fill="#fff"/><path d="M26.16,67.28,20.23,53.93h5.51l3.06,7.93,2.84-7.93H36.5L28.55,73.75H23.69Z" fill="#fff"/><path d="M36.22,61.54v-.22c0-4.77,3.55-7.78,8.15-7.78s8.09,2.92,8.09,7.63v.23c0,4.83-3.55,7.73-8.12,7.73S36.22,66.34,36.22,61.54Zm11.07-.08v-.23c0-2.5-1-3.89-2.92-3.89s-3,1.34-3,3.83v.23c0,2.56,1,3.95,3,3.95S47.29,63.93,47.29,61.46Z" fill="#fff"/><path d="M54.14,63.62V53.93h5.08v8.86c0,1.68.65,2.5,2.1,2.5s2.53-.91,2.53-2.81V53.93h5.08V68.79H63.85V66.48a4.89,4.89,0,0,1-4.72,2.65C56.27,69.13,54.14,67.37,54.14,63.62Z" fill="#fff"/><path d="M75.89,61.54v-.22c0-4.94,3.55-7.78,7.92-7.78,3.64,0,7,1.59,7.27,6.1H86.31a2.2,2.2,0,0,0-2.38-2.16c-1.79,0-2.84,1.28-2.84,3.78v.23c0,2.58,1,3.92,2.92,3.92a2.48,2.48,0,0,0,2.59-2.47h4.57c-.14,3.74-2.67,6.19-7.47,6.19C79.27,69.13,75.89,66.54,75.89,61.54Z" fill="#fff"/><path d="M92,61.54v-.22c0-4.77,3.55-7.78,8.15-7.78s8.09,2.92,8.09,7.63v.23c0,4.83-3.55,7.73-8.12,7.73S92,66.34,92,61.54Zm11.08-.08v-.23c0-2.5-1-3.89-2.93-3.89s-3,1.34-3,3.83v.23c0,2.56,1,3.95,3,3.95S103.1,63.93,103.1,61.46Z" fill="#fff"/><path d="M109.94,63.62V53.93H115v8.86c0,1.68.66,2.5,2.11,2.5s2.52-.91,2.52-2.81V53.93h5.09V68.79h-5.09V66.48a4.86,4.86,0,0,1-4.71,2.65C112.07,69.13,109.94,67.37,109.94,63.62Z" fill="#fff"/><path d="M127.46,47.4h5.06V68.79h-5.06Z" fill="#fff"/><path d="M134.51,61.52v-.23c0-5.06,2.78-7.75,6.3-7.75A4.81,4.81,0,0,1,145.38,56V47.4h5.09V68.79h-5.09V66.37a5,5,0,0,1-4.63,2.76C137.32,69.13,134.51,66.66,134.51,61.52Zm11-.09V61.2c0-2.5-1.05-3.83-2.92-3.83s-2.93,1.28-2.93,3.86v.23c0,2.5,1.11,3.78,2.87,3.78S145.52,64,145.52,61.43Z" fill="#fff"/><path d="M157.4,68.79h5c.23,1.07.88,1.93,2.73,1.93a2.81,2.81,0,0,0,3.15-3.13V65.32a5.22,5.22,0,0,1-4.6,2.73c-3.47,0-6.31-2.56-6.31-7.13v-.23c0-4.37,2.82-7.15,6.31-7.15a4.83,4.83,0,0,1,4.6,2.49v-2.1h5.08V67.54c0,4.43-2.92,6.75-8.23,6.75C160.12,74.29,157.79,72.16,157.4,68.79Zm11.07-7.9v-.2c0-2-1.05-3.35-2.92-3.35s-2.93,1.34-2.93,3.38V61c0,2,1.08,3.35,2.9,3.35S168.47,63,168.47,60.89Z" fill="#fff"/><path d="M175.2,61.54v-.22c0-4.77,3.55-7.78,8-7.78,4.06,0,7.55,2.32,7.55,7.66v1.34H180.34a3,3,0,0,0,3.1,3.09c1.67,0,2.38-.76,2.58-1.76h4.77c-.45,3.35-3,5.26-7.52,5.26C178.61,69.13,175.2,66.4,175.2,61.54Zm10.65-1.87c-.08-1.79-1-2.78-2.61-2.78s-2.58,1-2.84,2.78Z" fill="#fff"/><path d="M193.24,64V57.4h-1.79V53.93h1.79V50.84h5.08v3.09h2.92V57.4h-2.92v6.13c0,1.08.54,1.56,1.5,1.56a3.87,3.87,0,0,0,1.45-.25V68.7a10.64,10.64,0,0,1-2.81.43C195.11,69.13,193.24,67.51,193.24,64Z" fill="#fff"/><path d="M207.49,64.67c0-3.5,3-4.86,7.9-4.86h1.42v-.34c0-1.42-.34-2.36-2-2.36a1.84,1.84,0,0,0-2,1.76h-4.77c.23-3.57,3-5.33,7.1-5.33s6.7,1.67,6.7,5.62v9.63h-4.94V67.05a4.88,4.88,0,0,1-4.4,2.08C209.85,69.13,207.49,67.82,207.49,64.67Zm9.32-1.08v-.91h-1.34c-2,0-2.95.4-2.95,1.62,0,.85.57,1.39,1.76,1.39C215.73,65.69,216.81,64.87,216.81,63.59Z" fill="#fff"/><path d="M22,78.88h8c5.31,0,8.26,2.16,8.26,6.45v.11a5.3,5.3,0,0,1-3.66,5.34l4.86,8.41H33.23l-4.11-7.27H27.75v7.27H22Zm7.67,9.26c2,0,2.92-.83,2.92-2.47v-.12c0-1.64-1-2.3-2.9-2.3h-1.9v4.89Z" fill="#fff"/><path d="M39.37,91.94v-.22c0-4.77,3.55-7.78,8-7.78,4.07,0,7.56,2.32,7.56,7.66v1.34H44.51A3,3,0,0,0,47.6,96c1.68,0,2.39-.76,2.59-1.76H55c-.46,3.35-3,5.26-7.53,5.26C42.78,99.53,39.37,96.8,39.37,91.94ZM50,90.07c-.09-1.79-1-2.78-2.62-2.78s-2.58,1-2.83,2.78Z" fill="#fff"/><path d="M57.49,87.8H55.61V84.33h1.88V83c0-3.69,2.3-5.45,5.82-5.45a9.07,9.07,0,0,1,2.33.31v3.72a4.5,4.5,0,0,0-1.39-.2A1.49,1.49,0,0,0,62.54,83v1.3h3V87.8h-3V99.19h-5Z" fill="#fff"/><path d="M67.14,94V84.33h5.09v8.86c0,1.68.65,2.5,2.1,2.5s2.52-.91,2.52-2.81V84.33h5.09V99.19H76.85V96.88a4.86,4.86,0,0,1-4.71,2.65C69.27,99.53,67.14,97.77,67.14,94Z" fill="#fff"/><path d="M84.52,84.33h5.09v2.39a5.23,5.23,0,0,1,4.88-2.78c2.87,0,4.86,1.79,4.86,5.59v9.66H94.26V90.55c0-1.67-.65-2.5-2.13-2.5s-2.52.91-2.52,2.81v8.33H84.52Z" fill="#fff"/><path d="M101.08,91.92v-.23c0-5.06,2.78-7.75,6.3-7.75a4.83,4.83,0,0,1,4.58,2.5V77.8H117V99.19H112V96.77a5,5,0,0,1-4.63,2.76C103.89,99.53,101.08,97.06,101.08,91.92Zm11-.09V91.6c0-2.5-1-3.83-2.93-3.83s-2.92,1.28-2.92,3.86v.23c0,2.5,1.11,3.78,2.87,3.78S112.1,94.36,112.1,91.83Z" fill="#fff"/><path d="M130.16,78.88h7.53l6.44,20.31H138l-1.08-3.78h-6.73l-1.08,3.78h-5.42ZM131.3,91.4h4.46l-2.22-7.8Z" fill="#fff"/><path d="M144.48,91.92v-.23c0-5.06,2.78-7.75,6.3-7.75a4.8,4.8,0,0,1,4.57,2.5V77.8h5.08V99.19h-5.08V96.77a5,5,0,0,1-4.63,2.76C147.29,99.53,144.48,97.06,144.48,91.92Zm11-.09V91.6c0-2.5-1.05-3.83-2.92-3.83s-2.93,1.28-2.93,3.86v.23c0,2.5,1.11,3.78,2.87,3.78S155.49,94.36,155.49,91.83Z" fill="#fff"/><path d="M161.74,84.33h5.43l3.09,9.57,3-9.57h4.86l-5.43,14.86H167.2Z" fill="#fff"/><path d="M178,95.07c0-3.5,2.95-4.86,7.89-4.86h1.42v-.34c0-1.42-.34-2.36-2-2.36a1.82,1.82,0,0,0-2,1.76h-4.77c.22-3.57,3-5.33,7.1-5.33s6.7,1.67,6.7,5.62v9.63h-4.94V97.45a4.88,4.88,0,0,1-4.4,2.08C180.32,99.53,178,98.22,178,95.07ZM187.27,94v-.91h-1.33c-2.05,0-2.95.4-2.95,1.62,0,.85.56,1.39,1.76,1.39A2.23,2.23,0,0,0,187.27,94Z" fill="#fff"/><path d="M194.8,84.33h5.08v2.39a5.26,5.26,0,0,1,4.89-2.78c2.86,0,4.85,1.79,4.85,5.59v9.66h-5.08V90.55c0-1.67-.65-2.5-2.13-2.5s-2.53.91-2.53,2.81v8.33H194.8Z" fill="#fff"/><path d="M211.3,91.94v-.22c0-4.94,3.55-7.78,7.92-7.78,3.64,0,7,1.59,7.27,6.1h-4.77a2.2,2.2,0,0,0-2.38-2.16c-1.79,0-2.84,1.28-2.84,3.78v.23c0,2.58,1,3.92,2.92,3.92A2.49,2.49,0,0,0,222,93.34h4.57c-.14,3.74-2.67,6.19-7.47,6.19C214.68,99.53,211.3,96.94,211.3,91.94Z" fill="#fff"/><path d="M227.43,91.94v-.22c0-4.77,3.55-7.78,8-7.78,4.06,0,7.55,2.32,7.55,7.66v1.34H232.57a3,3,0,0,0,3.1,3.09c1.67,0,2.38-.76,2.58-1.76H243c-.45,3.35-3,5.26-7.52,5.26C230.84,99.53,227.43,96.8,227.43,91.94Zm10.65-1.87c-.08-1.79-1-2.78-2.61-2.78s-2.59,1-2.84,2.78Z" fill="#fff"/><path d="M21.65,108.2H26.7v21.38H21.65Z" fill="#fff"/><path d="M28.63,122.34v-.22c0-4.77,3.55-7.78,8.15-7.78s8.1,2.92,8.1,7.63v.23c0,4.83-3.55,7.73-8.13,7.73S28.63,127.14,28.63,122.34Zm11.08-.08V122c0-2.5-1-3.89-2.93-3.89s-3,1.34-3,3.83v.23c0,2.56,1,4,3,4S39.71,124.73,39.71,122.26Z" fill="#fff"/><path d="M45.81,125.47c0-3.5,3-4.86,7.9-4.86h1.42v-.34c0-1.42-.34-2.36-2-2.36a1.84,1.84,0,0,0-2,1.76H46.38c.23-3.57,3-5.33,7.1-5.33s6.7,1.67,6.7,5.62v9.62H55.24v-1.73a4.87,4.87,0,0,1-4.4,2.08C48.17,129.93,45.81,128.62,45.81,125.47Zm9.32-1.08v-.91H53.79c-2,0-2.95.4-2.95,1.62,0,.85.57,1.39,1.76,1.39C54.05,126.49,55.13,125.67,55.13,124.39Z" fill="#fff"/><path d="M62.66,114.73h5.08v2.39a5.23,5.23,0,0,1,4.88-2.78c2.87,0,4.86,1.78,4.86,5.59v9.65H72.4V121c0-1.67-.66-2.5-2.13-2.5s-2.53.91-2.53,2.81v8.32H62.66Z" fill="#fff"/><path d="M85,124.42v-9.69h5.08v8.86c0,1.68.65,2.5,2.1,2.5s2.53-.91,2.53-2.81v-8.55H99.8v14.85H94.72v-2.29A4.9,4.9,0,0,1,90,129.93C87.14,129.93,85,128.17,85,124.42Z" fill="#fff"/><path d="M102.39,114.73h5.08V117a5.23,5.23,0,0,1,4.63-2.61c3.46,0,6.27,2.61,6.27,7.69v.23c0,5.11-2.81,7.67-6.3,7.67a4.9,4.9,0,0,1-4.6-2.53v7.15h-5.08Zm10.82,7.53V122c0-2.61-1.14-3.86-2.93-3.86s-3,1.33-3,3.83v.23c0,2.53,1.11,3.81,3,3.81S113.21,124.7,113.21,122.26Z" fill="#fff"/><path d="M126.07,124.81V118.2h-1.79v-3.47h1.79v-3.09h5.08v3.09h2.93v3.47h-2.93v6.13a1.36,1.36,0,0,0,1.51,1.56,3.9,3.9,0,0,0,1.45-.25v3.86a10.71,10.71,0,0,1-2.81.43C128,129.93,126.07,128.31,126.07,124.81Z" fill="#fff"/><path d="M135.22,122.34v-.22c0-4.77,3.55-7.78,8.15-7.78s8.09,2.92,8.09,7.63v.23c0,4.83-3.55,7.73-8.12,7.73S135.22,127.14,135.22,122.34Zm11.07-.08V122c0-2.5-1-3.89-2.92-3.89s-3,1.34-3,3.83v.23c0,2.56,1,4,3,4S146.29,124.73,146.29,122.26Z" fill="#fff"/><path d="M161.68,120.29c-2.86-.2-4.25-1.72-4.37-3.9h3.06a1.57,1.57,0,0,0,1.31,1.55v-2.41c-2.88-.42-4.1-1.46-4.1-3.76,0-2,1.57-3.45,4.1-3.63v-1.47H163v1.49c2.4.2,3.83,1.31,4,3.57h-3a1.32,1.32,0,0,0-1-1.24v2.29c2.54.36,4.19,1.22,4.19,3.62,0,2-1.31,3.71-4.19,3.89v2.07h-1.29Zm0-7.71v-2.12c-.74.13-1.12.53-1.12,1.06S160.79,112.4,161.68,112.58Zm1.29,3.16v2.2a1.19,1.19,0,0,0,1.11-1.17C164.08,116.22,163.85,115.94,163,115.74Z" fill="#fff"/><path d="M168.17,122.91h5.17c.17,1.68,1,2.81,3,2.81,1.79,0,2.67-.85,2.67-2.3s-.85-2.38-2.67-2.38H174.7v-3.61h1.51c1.82,0,2.7-.82,2.7-2.24,0-1.22-.8-2-2.33-2a2.6,2.6,0,0,0-2.7,2.59h-5.14c.26-4,2.93-6.76,8-6.76,4.77,0,7.64,2.18,7.64,5.56a4.35,4.35,0,0,1-3.44,4.38,4.57,4.57,0,0,1,4,4.6c0,3.86-2.87,6.39-8.24,6.39C171,129.93,168.34,127.31,168.17,122.91Z" fill="#fff"/><path d="M185.35,131.88l2.39-7.46,4.71,1.67-4.08,7Z" fill="#fff"/><path d="M193.39,123.2h5.28a2.32,2.32,0,0,0,2.64,2.35c1.68,0,2.45-1.25,2.45-2.87a2.58,2.58,0,0,0-2.76-2.89,4.14,4.14,0,0,0-3.35,1.45h-3.46l.42-12H208.3v4.26h-9.48L198.7,118a5.41,5.41,0,0,1,4.74-2.16c3.72,0,6.17,2.5,6.17,6.9s-3.1,7.16-8.24,7.16C196,129.93,193.53,127,193.39,123.2Z" fill="#fff"/><path d="M211,119.87V119c0-6.42,4-10,9.37-10s9.37,3.32,9.37,9.91v.79c0,6.45-3.69,10.23-9.48,10.23S211,126.26,211,119.87Zm12.92-.05V119c0-3.72-1.08-5.59-3.55-5.59s-3.55,1.84-3.55,5.59v.85c0,3.78,1.11,5.57,3.61,5.57S224,123.56,224,119.82Z" fill="#fff"/><path d="M231.39,119.87V119c0-6.42,4-10,9.37-10s9.37,3.32,9.37,9.91v.79c0,6.45-3.69,10.23-9.48,10.23S231.39,126.26,231.39,119.87Zm12.92-.05V119c0-3.72-1.08-5.59-3.55-5.59s-3.55,1.84-3.55,5.59v.85c0,3.78,1.11,5.57,3.61,5.57S244.31,123.56,244.31,119.82Z" fill="#fff"/><path d="M250.62,127a2.83,2.83,0,0,1,2.89-2.87,2.87,2.87,0,1,1,0,5.74A2.83,2.83,0,0,1,250.62,127Z" fill="#fff"/></g></g></g></svg>