<svg xmlns="http://www.w3.org/2000/svg" viewBox="0 0 265.31 70.56"><title>cta</title><g id="Layer_2" data-name="Layer 2"><g id="CTA_copy" data-name="CTA copy"><g id="Rectangle_1" data-name="Rectangle 1"><rect width="265.31" height="70.56" fill="none"/></g><g id="Buy_now" data-name="Buy now"><path d="M75.54,22.94H83.4c4.37,0,6.64,1.79,6.64,5.21v.11a4.11,4.11,0,0,1-3.25,4.28c2.61.53,4,2,4,4.71v.11c0,3.67-2.41,5.6-7,5.6H75.54Zm7.14,8.23c2.18,0,3-.78,3-2.58v-.11c0-1.68-1-2.43-3.08-2.43H80v5.12Zm.39,8.65c2.24,0,3.25-1,3.25-2.83v-.11c0-1.85-1-2.8-3.48-2.8H80v5.74Z" fill="#262626"/><path d="M93.09,37.75V28.31h4v8.88c0,2,.82,2.94,2.55,2.94a2.91,2.91,0,0,0,3-3.22v-8.6h4V43h-4v-2.3a4.84,4.84,0,0,1-4.64,2.61C95.22,43.27,93.09,41.59,93.09,37.75Z" fill="#262626"/><path d="M114.34,41.47l-5.82-13.16h4.37l3.55,8.8,3.28-8.8h3.89l-7.92,19.63h-3.92Z" fill="#262626"/><path d="M131.17,28.31h4.06v2.33A5.06,5.06,0,0,1,140,28c2.89,0,4.93,1.73,4.93,5.65V43h-4.06V34.22c0-2-.78-2.94-2.58-2.94a2.9,2.9,0,0,0-3.05,3.22V43h-4.06Z" fill="#262626"/><path d="M147.08,35.79v-.22A7.34,7.34,0,0,1,154.8,28c4.4,0,7.7,2.94,7.7,7.5v.23c0,4.62-3.33,7.56-7.72,7.56S147.08,40.35,147.08,35.79Zm11.31-.06v-.19c0-2.8-1.32-4.48-3.59-4.48s-3.58,1.62-3.58,4.42v.23c0,2.8,1.29,4.48,3.58,4.48S158.39,38.51,158.39,35.73Z" fill="#262626"/><path d="M163.06,28.31h4.26l2.6,9.86,2.83-9.86h3.33l2.58,9.86,2.77-9.86h3.89L180.7,43h-4l-2.49-9.19L171.55,43h-4Z" fill="#262626"/></g></g></g></svg>