<svg xmlns="http://www.w3.org/2000/svg" viewBox="0 0 300 600"><title>H66</title><g id="Layer_2" data-name="Layer 2"><g id="Rect"><rect width="300" height="600" fill="none"/></g><g id="H66"><g id="Get_more_with_Block_tax_software." data-name="Get more with Block tax software."><path d="M20.26,101v-.33c0-9,6.6-15,15.47-15,7,0,13.15,3.18,13.72,10.84H41.08c-.41-2.76-2.18-4.2-5.31-4.2-4.17,0-6.68,3.21-6.68,8.53v.33c0,4.78,1.77,8.49,6.88,8.49,4.13,0,5.69-2.1,5.86-4.45H36.3V99.29H50.16v3.62c0,7.5-4.91,13.15-14.43,13.15C25.71,116.06,20.26,109.84,20.26,101Z" fill="#14aa40"/><path d="M51.85,105.06v-.33c0-6.93,5.15-11.3,11.66-11.3,5.9,0,11,3.38,11,11.13v1.94H59.31c.2,2.84,1.85,4.49,4.49,4.49,2.43,0,3.47-1.11,3.75-2.55h6.93c-.66,4.86-4.41,7.62-10.93,7.62C56.79,116.06,51.85,112.1,51.85,105.06Zm15.46-2.72c-.13-2.6-1.41-4-3.8-4-2.22,0-3.75,1.44-4.12,4Z" fill="#14aa40"/><path d="M78,108.64V99h-2.6V94H78V89.52h7.38V94h4.24v5H85.41v8.9c0,1.57.78,2.27,2.18,2.27a5.79,5.79,0,0,0,2.11-.37v5.6a15.39,15.39,0,0,1-4.09.62C80.75,116.06,78,113.71,78,108.64Z" fill="#14aa40"/><path d="M100,94h7.38v3.3a7.55,7.55,0,0,1,6.76-3.88A5.88,5.88,0,0,1,120,97a8.53,8.53,0,0,1,7.13-3.59c4.08,0,7,2.64,7,8v14.1h-7.38V102.71c0-2.19-1.07-3.26-2.76-3.26-2,0-3.3,1.28-3.3,3.63v12.49h-7.3V102.71c0-2.19-1.07-3.26-2.76-3.26-2,0-3.3,1.28-3.3,3.63v12.49H100Z" fill="#14aa40"/><path d="M136.57,105.06v-.33c0-6.93,5.16-11.3,11.84-11.3s11.75,4.25,11.75,11.09v.33c0,7-5.16,11.21-11.79,11.21S136.57,112,136.57,105.06Zm16.08-.13v-.33c0-3.62-1.44-5.64-4.24-5.64s-4.29,1.93-4.29,5.56v.33c0,3.71,1.44,5.73,4.29,5.73S152.65,108.52,152.65,104.93Z" fill="#14aa40"/><path d="M162.76,94h7.38V98.3a6.78,6.78,0,0,1,7-4.58v6.88c-4.49-.12-7,1.28-7,4.74v10.23h-7.38Z" fill="#14aa40"/><path d="M178.42,105.06v-.33c0-6.93,5.16-11.3,11.67-11.3,5.9,0,11,3.38,11,11.13v1.94H185.89c.2,2.84,1.85,4.49,4.49,4.49,2.43,0,3.46-1.11,3.75-2.55h6.93c-.66,4.86-4.41,7.62-10.93,7.62C183.37,116.06,178.42,112.1,178.42,105.06Zm15.46-2.72c-.12-2.6-1.4-4-3.79-4-2.22,0-3.75,1.44-4.12,4Z" fill="#14aa40"/><path d="M19.36,137.78h7.71l3.13,12.9,3.63-12.9h5.94L43,150.68l3.51-12.9h7l-6.84,21.55h-7l-3.22-12-3.34,12H25.87Z" fill="#14aa40"/><path d="M55.23,131.92a4.07,4.07,0,1,1,4,3.8A3.85,3.85,0,0,1,55.23,131.92Zm.37,5.86H63v21.55H55.6Z" fill="#14aa40"/><path d="M67.93,152.41V142.8h-2.6v-5h2.6v-4.5h7.38v4.5h4.24v5H75.31v8.91A2,2,0,0,0,77.49,154a5.54,5.54,0,0,0,2.1-.37v5.61a15.73,15.73,0,0,1-4.08.62C70.65,159.83,67.93,157.48,67.93,152.41Z" fill="#14aa40"/><path d="M82.36,128.3h7.38v12.94a7.59,7.59,0,0,1,7.09-4c4.16,0,7,2.6,7,8.12v14H96.5V146.8c0-2.43-1-3.62-3.09-3.62s-3.67,1.31-3.67,4.08v12.07H82.36Z" fill="#14aa40"/><path d="M115.63,129.86h13.15c7,0,9.94,3.14,9.94,7.71v.16a6.07,6.07,0,0,1-5,6.35c3.63.62,5.89,2.8,5.89,6.88v.17c0,5.27-3.42,8.2-10.72,8.2H115.63Zm11.46,11.71c2.64,0,3.63-.91,3.63-3v-.17c0-2-1.07-2.92-3.63-2.92h-3.21v6.1Zm.29,12.11c2.68,0,3.92-1.23,3.92-3.42v-.16c0-2.23-1.2-3.38-4.17-3.38h-3.25v7Z" fill="#14aa40"/><path d="M142.55,128.3h7.34v31h-7.34Z" fill="#14aa40"/><path d="M152.69,148.82v-.33c0-6.92,5.16-11.29,11.84-11.29s11.75,4.24,11.75,11.09v.33c0,7-5.16,11.21-11.79,11.21S152.69,155.79,152.69,148.82Zm16.08-.12v-.33c0-3.63-1.44-5.65-4.24-5.65s-4.29,1.94-4.29,5.57v.33c0,3.7,1.44,5.72,4.29,5.72S168.77,152.28,168.77,148.7Z" fill="#14aa40"/><path d="M177.72,148.82v-.33c0-7.17,5.16-11.29,11.5-11.29,5.28,0,10.15,2.31,10.56,8.86h-6.93c-.33-2-1.32-3.13-3.46-3.13-2.6,0-4.12,1.85-4.12,5.48v.33c0,3.75,1.44,5.69,4.24,5.69a3.6,3.6,0,0,0,3.76-3.59h6.63c-.2,5.44-3.87,9-10.84,9C182.63,159.83,177.72,156.08,177.72,148.82Z" fill="#14aa40"/><path d="M202.29,128.3h7.38v18l5.82-8.53h7.67l-7,9.68,7.62,11.87h-8.24l-5.82-9.44v9.44h-7.38Z" fill="#14aa40"/><path d="M22.16,196.17v-9.6h-2.6v-5h2.6v-4.49h7.38v4.49h4.25v5H29.54v8.9c0,1.57.78,2.27,2.19,2.27a5.57,5.57,0,0,0,2.1-.37V203a15.37,15.37,0,0,1-4.08.62C24.88,203.59,22.16,201.24,22.16,196.17Z" fill="#14aa40"/><path d="M35.44,197.12c0-5.07,4.28-7.05,11.46-7.05H49v-.49c0-2.06-.5-3.42-2.85-3.42a2.64,2.64,0,0,0-2.92,2.55H36.26c.33-5.19,4.41-7.75,10.31-7.75s9.73,2.44,9.73,8.16v14H49.12v-2.52c-1,1.57-2.92,3-6.39,3C38.86,203.59,35.44,201.7,35.44,197.12ZM49,195.55v-1.31H47c-3,0-4.29.57-4.29,2.34,0,1.24.83,2,2.56,2C47.39,198.6,49,197.41,49,195.55Z" fill="#14aa40"/><path d="M65.33,192.13l-6.72-10.59H67.1l3.34,5.69,3.26-5.69h7.58l-6.8,10,7.46,11.54H73.45l-3.83-6.43L65.7,203.1H58.15Z" fill="#14aa40"/><path d="M90.07,196.26h6.8c.25,1.56.95,2.43,3,2.43,1.81,0,2.64-.7,2.64-1.78s-1-1.52-4-1.93c-5.77-.74-8.21-2.43-8.21-6.93,0-4.78,4.25-7.09,9.24-7.09,5.32,0,9,1.82,9.52,7h-6.68a2.4,2.4,0,0,0-2.76-2.14c-1.61,0-2.43.7-2.43,1.69s1,1.44,3.63,1.77c6,.74,8.86,2.31,8.86,6.92,0,5.11-3.79,7.42-9.77,7.42C93.82,203.59,90.23,201,90.07,196.26Z" fill="#14aa40"/><path d="M111.09,192.59v-.33c0-6.93,5.16-11.3,11.84-11.3s11.75,4.25,11.75,11.09v.33c0,7-5.16,11.21-11.8,11.21S111.09,199.55,111.09,192.59Zm16.08-.13v-.33c0-3.62-1.44-5.64-4.24-5.64s-4.29,1.93-4.29,5.56v.33c0,3.71,1.44,5.73,4.29,5.73S127.17,196.05,127.17,192.46Z" fill="#14aa40"/><path d="M138.39,186.57h-2.72v-5h2.72v-1.89c0-5.36,3.34-7.92,8.45-7.92a13,13,0,0,1,3.38.46v5.4a6.65,6.65,0,0,0-2-.29,2.16,2.16,0,0,0-2.47,2.35v1.89h4.37v5h-4.37V203.1h-7.34Z" fill="#14aa40"/><path d="M153.76,196.17v-9.6h-2.59v-5h2.59v-4.49h7.38v4.49h4.25v5h-4.25v8.9a2,2,0,0,0,2.19,2.27,5.57,5.57,0,0,0,2.1-.37V203a15.37,15.37,0,0,1-4.08.62C156.49,203.59,153.76,201.24,153.76,196.17Z" fill="#14aa40"/><path d="M166.38,181.54h7.71l3.13,12.9,3.63-12.9h5.94l3.21,12.9,3.51-12.9h7l-6.85,21.56h-7l-3.21-12-3.34,12H172.9Z" fill="#14aa40"/><path d="M200.35,197.12c0-5.07,4.29-7.05,11.47-7.05h2.06v-.49c0-2.06-.5-3.42-2.85-3.42a2.65,2.65,0,0,0-2.93,2.55h-6.92c.33-5.19,4.41-7.75,10.31-7.75s9.73,2.44,9.73,8.16v14H214v-2.52c-1,1.57-2.93,3-6.39,3C203.78,203.59,200.35,201.7,200.35,197.12Zm13.53-1.57v-1.31h-1.94c-3,0-4.29.57-4.29,2.34,0,1.24.83,2,2.56,2C212.31,198.6,213.88,197.41,213.88,195.55Z" fill="#14aa40"/><path d="M224.8,181.54h7.38v4.29a6.8,6.8,0,0,1,7-4.58v6.89c-4.49-.13-7,1.27-7,4.74V203.1H224.8Z" fill="#14aa40"/><path d="M240.47,192.59v-.33c0-6.93,5.16-11.3,11.67-11.3,5.9,0,11,3.38,11,11.13V194H247.93c.21,2.84,1.86,4.49,4.5,4.49,2.43,0,3.46-1.11,3.75-2.55h6.93c-.66,4.86-4.41,7.62-10.93,7.62C245.42,203.59,240.47,199.63,240.47,192.59Zm15.46-2.72c-.12-2.6-1.4-4-3.79-4-2.23,0-3.75,1.44-4.12,4Z" fill="#14aa40"/><path d="M265.17,199.39a4.11,4.11,0,0,1,4.2-4.17,4.17,4.17,0,1,1,0,8.33A4.1,4.1,0,0,1,265.17,199.39Z" fill="#14aa40"/></g></g></g></svg>