<svg xmlns="http://www.w3.org/2000/svg" viewBox="0 0 600 1200"><title>H1</title><g id="Layer_2" data-name="Layer 2"><g id="Layer_4" data-name="Layer 4"><rect width="600" height="1200" fill="none"/></g><g id="Get_more_with_Block_tax_software." data-name="Get more with Block tax software."><path d="M40.53,202v-.66c0-18,13.19-30.08,30.92-30.08,13.94,0,26.3,6.35,27.46,21.67H82.17c-.82-5.52-4.37-8.4-10.64-8.4-8.33,0-13.36,6.43-13.36,17.06v.66c0,9.56,3.55,17,13.78,17,8.24,0,11.37-4.2,11.7-8.9H72.6V198.58h27.71v7.25c0,15-9.81,26.29-28.86,26.29C51.41,232.12,40.53,219.68,40.53,202Z" fill="#14aa40"/><path d="M103.69,210.12v-.66c0-13.85,10.31-22.58,23.34-22.58,11.79,0,21.93,6.75,21.93,22.25V213H118.62c.41,5.69,3.71,9,9,9,4.86,0,6.92-2.22,7.5-5.11H149c-1.32,9.73-8.82,15.25-21.85,15.25C113.59,232.12,103.69,224.21,103.69,210.12Zm30.92-5.44c-.24-5.2-2.8-8.08-7.58-8.08-4.45,0-7.51,2.88-8.25,8.08Z" fill="#14aa40"/><path d="M156.05,217.29V198.08h-5.19V188h5.19v-9h14.76v9h8.5v10.05h-8.5v17.8c0,3.14,1.57,4.54,4.38,4.54a11.35,11.35,0,0,0,4.2-.74v11.2a30.75,30.75,0,0,1-8.16,1.24C161.5,232.12,156.05,227.42,156.05,217.29Z" fill="#14aa40"/><path d="M199.92,188h14.76v6.59a15.09,15.09,0,0,1,13.53-7.74c5.69,0,9.64,2.47,11.71,7.16a17.1,17.1,0,0,1,14.26-7.16c8.16,0,14.1,5.27,14.1,16.07v28.18H253.52V205.42c0-4.37-2.14-6.51-5.52-6.51-4,0-6.6,2.55-6.6,7.25v25H226.8V205.42c0-4.37-2.14-6.51-5.52-6.51-4,0-6.6,2.55-6.6,7.25v25H199.92Z" fill="#14aa40"/><path d="M273.15,210.12v-.66c0-13.85,10.31-22.58,23.66-22.58s23.5,8.48,23.5,22.16v.66c0,14-10.3,22.42-23.58,22.42S273.15,224,273.15,210.12Zm32.16-.25v-.66c0-7.25-2.89-11.29-8.5-11.29s-8.57,3.87-8.57,11.12v.66c0,7.42,2.88,11.46,8.57,11.46C302.34,221.16,305.31,217,305.31,209.87Z" fill="#14aa40"/><path d="M325.51,188h14.76v8.57c2.72-6.43,7.26-9.23,13.94-9.15v13.76c-9-.24-13.94,2.56-13.94,9.48v20.44H325.51Z" fill="#14aa40"/><path d="M356.85,210.12v-.66c0-13.85,10.3-22.58,23.33-22.58,11.79,0,21.94,6.75,21.94,22.25V213H371.77c.41,5.69,3.71,9,9,9,4.86,0,6.93-2.22,7.5-5.11h13.86c-1.32,9.73-8.83,15.25-21.86,15.25C366.74,232.12,356.85,224.21,356.85,210.12Zm30.92-5.44c-.25-5.2-2.81-8.08-7.59-8.08-4.45,0-7.5,2.88-8.24,8.08Z" fill="#14aa40"/><path d="M38.71,275.56H54.13l6.27,25.8,7.26-25.8H79.53L86,301.36l7-25.8h14L93.3,318.66H79.2L72.77,294.6l-6.68,24.06H51.74Z" fill="#14aa40"/><path d="M110.45,263.86c0-4.37,3.47-7.67,8.09-7.67s8.16,3.3,8.16,7.67-3.55,7.58-8.16,7.58S110.45,268.23,110.45,263.86Zm.75,11.7H126v43.1H111.2Z" fill="#14aa40"/><path d="M135.85,304.82V285.61h-5.19V275.56h5.19v-9h14.76v9h8.5v10.05h-8.5v17.81c0,3.13,1.57,4.53,4.37,4.53a11.37,11.37,0,0,0,4.21-.74v11.21a31.25,31.25,0,0,1-8.17,1.23C141.29,319.65,135.85,315,135.85,304.82Z" fill="#14aa40"/><path d="M164.71,256.61h14.76v25.87c2.31-4.45,7-8.07,14.19-8.07,8.32,0,14.1,5.19,14.1,16.23v28H193V293.61c0-4.86-1.9-7.25-6.19-7.25s-7.34,2.63-7.34,8.16v24.14H164.71Z" fill="#14aa40"/><path d="M231.26,259.74h26.3c13.94,0,19.87,6.26,19.87,15.41v.33c0,6.59-3.38,11-10,12.69,7.25,1.24,11.79,5.6,11.79,13.76v.33c0,10.55-6.85,16.4-21.44,16.4H231.26Zm22.92,23.4c5.28,0,7.26-1.81,7.26-6v-.33c0-4-2.15-5.85-7.26-5.85h-6.43v12.19Zm.58,24.23c5.36,0,7.83-2.47,7.83-6.84v-.33c0-4.45-2.39-6.76-8.33-6.76h-6.51v13.93Z" fill="#14aa40"/><path d="M285.1,256.61h14.68v62.05H285.1Z" fill="#14aa40"/><path d="M305.39,297.65V297c0-13.85,10.31-22.58,23.66-22.58s23.5,8.49,23.5,22.17v.65c0,14-10.3,22.42-23.58,22.42S305.39,311.57,305.39,297.65Zm32.16-.25v-.66c0-7.25-2.89-11.29-8.5-11.29s-8.57,3.87-8.57,11.13v.65c0,7.42,2.88,11.46,8.57,11.46C334.58,308.69,337.55,304.57,337.55,297.4Z" fill="#14aa40"/><path d="M355.44,297.65V297c0-14.34,10.31-22.58,23-22.58,10.55,0,20.28,4.61,21.11,17.71H385.7c-.66-4-2.64-6.26-6.92-6.26-5.2,0-8.25,3.71-8.25,11v.66c0,7.5,2.89,11.37,8.49,11.37,4.13,0,7-2.47,7.51-7.16H399.8c-.41,10.87-7.75,18-21.68,18C365.25,319.65,355.44,312.15,355.44,297.65Z" fill="#14aa40"/><path d="M404.59,256.61h14.76v36L431,275.56h15.34l-14.1,19.37,15.26,23.73H431l-11.62-18.87v18.87H404.59Z" fill="#14aa40"/><path d="M44.32,392.35v-19.2H39.13V363.09h5.19v-9H59.08v9h8.49v10.06H59.08V391c0,3.13,1.57,4.53,4.37,4.53a11.37,11.37,0,0,0,4.21-.74V406a31.25,31.25,0,0,1-8.17,1.23C49.76,407.18,44.32,402.48,44.32,392.35Z" fill="#14aa40"/><path d="M70.87,394.24c0-10.13,8.58-14.09,22.93-14.09h4.12v-1c0-4.12-1-6.84-5.69-6.84-4,0-5.52,2.39-5.85,5.11H72.52c.66-10.38,8.83-15.49,20.62-15.49s19.46,4.86,19.46,16.31v27.94H98.25v-5c-2.06,3.13-5.85,6-12.78,6C77.72,407.18,70.87,403.39,70.87,394.24Zm27.05-3.13v-2.64H94c-5.93,0-8.57,1.16-8.57,4.7,0,2.47,1.65,4,5.11,4C94.79,397.21,97.92,394.82,97.92,391.11Z" fill="#14aa40"/><path d="M130.66,384.27l-13.44-21.18h17l6.68,11.37,6.52-11.37h15.17l-13.61,20,14.93,23.07h-17l-7.67-12.85-7.83,12.85H116.31Z" fill="#14aa40"/><path d="M180.13,392.51h13.61c.49,3.13,1.89,4.86,6.1,4.86,3.63,0,5.28-1.4,5.28-3.54s-2.06-3.05-8-3.87c-11.55-1.49-16.41-4.86-16.41-13.85,0-9.56,8.49-14.17,18.47-14.17,10.64,0,18.06,3.62,19,13.93H204.87c-.58-2.89-2.14-4.29-5.52-4.29-3.22,0-4.87,1.4-4.87,3.38s2,2.88,7.26,3.54c11.95,1.49,17.72,4.62,17.72,13.85,0,10.22-7.58,14.83-19.54,14.83C187.64,407.18,180.46,402.07,180.13,392.51Z" fill="#14aa40"/><path d="M222.19,385.18v-.66c0-13.85,10.3-22.58,23.66-22.58s23.5,8.49,23.5,22.17v.66c0,14-10.3,22.41-23.58,22.41S222.19,399.11,222.19,385.18Zm32.16-.25v-.66c0-7.25-2.89-11.29-8.5-11.29s-8.57,3.87-8.57,11.13v.66c0,7.41,2.88,11.45,8.57,11.45C251.38,396.22,254.35,392.1,254.35,384.93Z" fill="#14aa40"/><path d="M276.78,373.15h-5.45V363.09h5.45V359.3c0-10.71,6.67-15.82,16.9-15.82a26.54,26.54,0,0,1,6.76.9v10.8a13.52,13.52,0,0,0-4-.58c-3.46,0-4.95,1.9-4.95,4.7v3.79h8.74v10.06h-8.74v33H276.78Z" fill="#14aa40"/><path d="M307.53,392.35v-19.2h-5.19V363.09h5.19v-9h14.76v9h8.5v10.06h-8.5V391c0,3.13,1.57,4.53,4.37,4.53a11.37,11.37,0,0,0,4.21-.74V406a31.25,31.25,0,0,1-8.17,1.23C313,407.18,307.53,402.48,307.53,392.35Z" fill="#14aa40"/><path d="M332.76,363.09h15.42l6.27,25.8,7.26-25.8h11.87l6.43,25.8,7-25.8h14l-13.69,43.1h-14.1l-6.43-24.06-6.68,24.06H345.79Z" fill="#14aa40"/><path d="M400.71,394.24c0-10.13,8.58-14.09,22.93-14.09h4.12v-1c0-4.12-1-6.84-5.69-6.84-4,0-5.53,2.39-5.86,5.11H402.36c.66-10.38,8.83-15.49,20.62-15.49s19.46,4.86,19.46,16.31v27.94H428.09v-5c-2.06,3.13-5.86,6-12.78,6C407.56,407.18,400.71,403.39,400.71,394.24Zm27.05-3.13v-2.64h-3.88c-5.93,0-8.57,1.16-8.57,4.7,0,2.47,1.65,4,5.11,4C424.63,397.21,427.76,394.82,427.76,391.11Z" fill="#14aa40"/><path d="M449.61,363.09h14.76v8.57c2.72-6.43,7.26-9.23,13.94-9.15v13.77c-9-.25-13.94,2.55-13.94,9.47v20.44H449.61Z" fill="#14aa40"/><path d="M481,385.18v-.66c0-13.85,10.3-22.58,23.33-22.58,11.79,0,21.93,6.76,21.93,22.25v3.87H495.87c.41,5.69,3.71,9,9,9,4.86,0,6.93-2.22,7.5-5.1h13.85c-1.31,9.72-8.82,15.24-21.85,15.24C490.84,407.18,481,399.27,481,385.18Zm30.92-5.44c-.25-5.19-2.81-8.08-7.59-8.08-4.45,0-7.5,2.89-8.24,8.08Z" fill="#14aa40"/><path d="M530.34,398.78a8.22,8.22,0,0,1,8.41-8.33,8.33,8.33,0,1,1,0,16.65A8.22,8.22,0,0,1,530.34,398.78Z" fill="#14aa40"/></g></g></svg>