<svg xmlns="http://www.w3.org/2000/svg" viewBox="0 0 728 90"><title>H17</title><g id="Layer_2" data-name="Layer 2"><g id="Rect"><rect width="728" height="90" fill="none"/></g><g id="H17"><g id="File_with_H_R_Block_Online_for_everyone_s_favorite_price:_free." data-name="File with H&amp;R Block Online for everyone’s favorite price: free."><path d="M122.1,17.16h14.68V22h-8.42v4.62h6.72V31.2h-6.72v7.69H122.1Z" fill="#fff"/><path d="M138.33,18.68a3,3,0,1,1,3,2.79A2.81,2.81,0,0,1,138.33,18.68ZM138.6,23h5.45v15.9H138.6Z" fill="#fff"/><path d="M147.12,16h5.41V38.89h-5.41Z" fill="#fff"/><path d="M154.59,31.14V30.9c0-5.11,3.8-8.33,8.61-8.33,4.34,0,8.08,2.49,8.08,8.21V32.2H160.1c.15,2.1,1.36,3.32,3.31,3.32,1.79,0,2.55-.82,2.77-1.89h5.1c-.48,3.59-3.25,5.63-8.05,5.63C158.24,39.26,154.59,36.34,154.59,31.14Zm11.4-2c-.09-1.91-1-3-2.79-3s-2.77,1.06-3,3Z" fill="#fff"/><path d="M177.36,23h5.69l2.31,9.52L188,23h4.38l2.37,9.52L197.36,23h5.17l-5,15.9h-5.2L189.92,30l-2.46,8.87h-5.29Z" fill="#fff"/><path d="M203.81,18.68a3,3,0,1,1,3,2.79A2.81,2.81,0,0,1,203.81,18.68Zm.27,4.31h5.45v15.9h-5.45Z" fill="#fff"/><path d="M213.17,33.78V26.7h-1.91V23h1.91V19.68h5.45V23h3.13V26.7h-3.13v6.57c0,1.15.57,1.67,1.61,1.67a4.24,4.24,0,0,0,1.55-.27V38.8a11.55,11.55,0,0,1-3,.46C215.18,39.26,213.17,37.52,213.17,33.78Z" fill="#fff"/><path d="M223.81,16h5.44v9.55a5.63,5.63,0,0,1,5.23-3c3.07,0,5.2,1.91,5.2,6V38.89h-5.44V29.65c0-1.79-.7-2.67-2.28-2.67s-2.71,1-2.71,3v8.91h-5.44Z" fill="#fff"/><path d="M248.35,17.16h6.26v8.3h7.14v-8.3H268V38.89h-6.23V30.32h-7.14v8.57h-6.26Z" fill="#fff"/><path d="M288.84,34.45l3.61,4.44h-7.08l-1.28-1.58a8.64,8.64,0,0,1-5.86,1.95c-4.62,0-7.63-2.44-7.63-6.57,0-2.8,1.7-4.86,4.77-6.32a7,7,0,0,1-1.34-3.8c0-3.71,3.16-5.69,7-5.69,3.47,0,6.6,1.74,6.6,5.08,0,2.37-1.4,4.1-4.35,5.38L286,30.68l1.58-3.1h4.74Zm-7.54-.64-3.44-4.13A2.59,2.59,0,0,0,276.4,32a2.53,2.53,0,0,0,2.77,2.71A2.86,2.86,0,0,0,281.3,33.81Zm-.67-8.75c1.46-.7,2.16-1.52,2.16-2.64a1.57,1.57,0,0,0-1.61-1.68,1.74,1.74,0,0,0-1.8,1.89A4,4,0,0,0,280.63,25.06Z" fill="#fff"/><path d="M294.43,17.16h8.51c5.69,0,8.85,2.31,8.85,6.9v.12a5.67,5.67,0,0,1-3.92,5.71l5.19,9H306.5l-4.41-7.78h-1.46v7.78h-6.2Zm8.21,9.91c2.1,0,3.13-.88,3.13-2.65V24.3c0-1.76-1.09-2.46-3.1-2.46h-2v5.23Z" fill="#fff"/><path d="M320.7,17.16h9.69c5.14,0,7.33,2.31,7.33,5.68V23A4.47,4.47,0,0,1,334,27.64c2.68.46,4.35,2.07,4.35,5.08v.12c0,3.89-2.53,6-7.91,6H320.7Zm8.45,8.63c1.94,0,2.67-.67,2.67-2.22v-.12c0-1.49-.79-2.16-2.67-2.16h-2.37v4.5Zm.21,8.94c2,0,2.89-.92,2.89-2.53v-.12c0-1.64-.88-2.49-3.07-2.49h-2.4v5.14Z" fill="#fff"/><path d="M340.55,16H346V38.89h-5.41Z" fill="#fff"/><path d="M348,31.14V30.9c0-5.11,3.8-8.33,8.72-8.33s8.66,3.13,8.66,8.18V31c0,5.17-3.8,8.27-8.69,8.27S348,36.28,348,31.14Zm11.85-.09v-.24c0-2.68-1.06-4.17-3.13-4.17s-3.16,1.43-3.16,4.11V31c0,2.73,1.06,4.22,3.16,4.22S359.88,33.69,359.88,31.05Z" fill="#fff"/><path d="M366.48,31.14V30.9c0-5.29,3.8-8.33,8.48-8.33,3.89,0,7.48,1.7,7.78,6.53h-5.11a2.34,2.34,0,0,0-2.55-2.31c-1.91,0-3,1.37-3,4.05v.24c0,2.77,1.07,4.19,3.13,4.19a2.65,2.65,0,0,0,2.77-2.64h4.89c-.15,4-2.86,6.63-8,6.63C370.1,39.26,366.48,36.49,366.48,31.14Z" fill="#fff"/><path d="M384.6,16H390V29.29l4.28-6.3H400l-5.2,7.15,5.62,8.75h-6.08l-4.28-7v7H384.6Z" fill="#fff"/><path d="M406.55,28.16v-.24c0-6.63,5-11.07,11.49-11.07S429.55,21,429.55,27.77V28c0,6.69-4.59,11.25-11.61,11.25S406.55,34.7,406.55,28.16Zm16.5-.06v-.24c0-3.86-1.94-6.14-5-6.14s-5,2.22-5,6.17v.24c0,3.95,2,6.23,5,6.23S423.05,32,423.05,28.1Z" fill="#fff"/><path d="M431.66,23h5.44v2.56a5.61,5.61,0,0,1,5.22-3c3.07,0,5.2,1.91,5.2,6V38.89h-5.44V29.65c0-1.79-.7-2.67-2.28-2.67s-2.7,1-2.7,3v8.91h-5.44Z" fill="#fff"/><path d="M450.32,16h5.41V38.89h-5.41Z" fill="#fff"/><path d="M458.53,18.68a2.84,2.84,0,0,1,3-2.83,2.87,2.87,0,0,1,3,2.83,2.84,2.84,0,0,1-3,2.79A2.81,2.81,0,0,1,458.53,18.68ZM458.8,23h5.44v15.9H458.8Z" fill="#fff"/><path d="M467.16,23h5.44v2.56a5.62,5.62,0,0,1,5.23-3c3.07,0,5.2,1.91,5.2,6V38.89h-5.44V29.65c0-1.79-.7-2.67-2.28-2.67s-2.71,1-2.71,3v8.91h-5.44Z" fill="#fff"/><path d="M484.82,31.14V30.9c0-5.11,3.8-8.33,8.61-8.33,4.34,0,8.08,2.49,8.08,8.21V32.2H490.33c.15,2.1,1.36,3.32,3.31,3.32,1.79,0,2.55-.82,2.77-1.89h5.1c-.48,3.59-3.25,5.63-8.05,5.63C488.47,39.26,484.82,36.34,484.82,31.14Zm11.4-2c-.09-1.91-1-3-2.79-3s-2.77,1.06-3,3Z" fill="#fff"/><path d="M509.75,26.7h-2V23h2V21.6c0-4,2.46-5.84,6.23-5.84a9.84,9.84,0,0,1,2.5.33v4a4.78,4.78,0,0,0-1.49-.22,1.6,1.6,0,0,0-1.83,1.74V23h3.22V26.7h-3.22V38.89h-5.41Z" fill="#fff"/><path d="M518.81,31.14V30.9c0-5.11,3.8-8.33,8.72-8.33s8.67,3.13,8.67,8.18V31c0,5.17-3.8,8.27-8.7,8.27S518.81,36.28,518.81,31.14Zm11.86-.09v-.24c0-2.68-1.07-4.17-3.14-4.17s-3.16,1.43-3.16,4.11V31c0,2.73,1.07,4.22,3.16,4.22S530.67,33.69,530.67,31.05Z" fill="#fff"/><path d="M538.11,23h5.45v3.17a5,5,0,0,1,5.13-3.38v5.08c-3.31-.09-5.13.94-5.13,3.49v7.54h-5.45Z" fill="#fff"/><path d="M120.76,63.54V63.3c0-5.11,3.8-8.33,8.6-8.33,4.35,0,8.09,2.49,8.09,8.21V64.6H126.26c.15,2.1,1.37,3.32,3.31,3.32s2.56-.82,2.77-1.89h5.11c-.49,3.59-3.26,5.63-8.06,5.63C124.41,71.66,120.76,68.74,120.76,63.54Zm11.4-2c-.09-1.91-1-3-2.8-3s-2.76,1.06-3,3Z" fill="#fff"/><path d="M137.42,55.39h5.8l3.32,10.25,3.25-10.25H155l-5.81,15.9h-5.92Z" fill="#fff"/><path d="M154.66,63.54V63.3c0-5.11,3.8-8.33,8.6-8.33,4.34,0,8.08,2.49,8.08,8.21V64.6H160.16c.15,2.1,1.36,3.32,3.31,3.32,1.79,0,2.55-.82,2.77-1.89h5.1c-.48,3.59-3.25,5.63-8.05,5.63C158.3,71.66,154.66,68.74,154.66,63.54Zm11.39-2c-.09-1.91-1-3-2.79-3s-2.77,1.06-3,3Z" fill="#fff"/><path d="M173.23,55.39h5.44v3.17a5,5,0,0,1,5.14-3.38v5.08c-3.32-.09-5.14.94-5.14,3.49v7.54h-5.44Z" fill="#fff"/><path d="M191,69.68l-6.35-14.29h5.9l3.28,8.48,3-8.48h5.2l-8.51,21.22h-5.2Z" fill="#fff"/><path d="M201.77,63.54V63.3c0-5.11,3.8-8.33,8.73-8.33s8.66,3.13,8.66,8.17v.25c0,5.17-3.8,8.27-8.69,8.27S201.77,68.68,201.77,63.54Zm11.86-.09v-.24c0-2.68-1.07-4.17-3.13-4.17s-3.16,1.43-3.16,4.1v.25c0,2.73,1.06,4.22,3.16,4.22S213.63,66.09,213.63,63.45Z" fill="#fff"/><path d="M221.08,55.39h5.44V58a5.61,5.61,0,0,1,5.23-3c3.07,0,5.19,1.91,5.19,6V71.29H231.5V62.05c0-1.79-.7-2.67-2.28-2.67s-2.7,1-2.7,3v8.91h-5.44Z" fill="#fff"/><path d="M238.74,63.54V63.3c0-5.11,3.8-8.33,8.6-8.33,4.35,0,8.09,2.49,8.09,8.21V64.6H244.24c.15,2.1,1.37,3.32,3.32,3.32,1.79,0,2.55-.82,2.76-1.89h5.11c-.49,3.59-3.25,5.63-8.06,5.63C242.39,71.66,238.74,68.74,238.74,63.54Zm11.4-2c-.09-1.91-1-3-2.8-3s-2.76,1.06-3,3Z" fill="#fff"/><path d="M256,57.1l2.43-7.94,4.8,1.61-4.16,7.51Z" fill="#fff"/><path d="M261.39,66.25h5c.19,1.15.7,1.79,2.25,1.79,1.34,0,2-.52,2-1.31s-.76-1.12-3-1.43c-4.25-.54-6-1.79-6-5.1,0-3.53,3.13-5.23,6.81-5.23,3.92,0,6.66,1.34,7,5.14h-4.92a1.78,1.78,0,0,0-2-1.59c-1.18,0-1.79.52-1.79,1.25s.73,1.06,2.67,1.31c4.41.55,6.54,1.7,6.54,5.1,0,3.77-2.8,5.48-7.21,5.48S261.51,69.77,261.39,66.25Z" fill="#fff"/><path d="M284,59.1h-2V55.39h2V54c0-4,2.46-5.84,6.23-5.84a9.82,9.82,0,0,1,2.49.33v4a4.74,4.74,0,0,0-1.49-.22A1.6,1.6,0,0,0,289.42,54v1.39h3.22V59.1h-3.22V71.29H284Z" fill="#fff"/><path d="M293.25,66.88c0-3.74,3.16-5.19,8.45-5.19h1.52v-.37c0-1.52-.37-2.52-2.1-2.52A2,2,0,0,0,299,60.68h-5.1c.24-3.83,3.25-5.71,7.59-5.71s7.18,1.79,7.18,6v10.3h-5.29V69.44a5.23,5.23,0,0,1-4.71,2.22C295.77,71.66,293.25,70.26,293.25,66.88Zm10-1.15v-1h-1.43c-2.19,0-3.16.42-3.16,1.73,0,.91.61,1.49,1.88,1.49C302.06,68,303.22,67.1,303.22,65.73Z" fill="#fff"/><path d="M309.45,55.39h5.81l3.31,10.25,3.25-10.25H327l-5.81,15.9h-5.92Z" fill="#fff"/><path d="M326.69,63.54V63.3c0-5.11,3.8-8.33,8.72-8.33s8.66,3.13,8.66,8.17v.25c0,5.17-3.8,8.27-8.69,8.27S326.69,68.68,326.69,63.54Zm11.85-.09v-.24c0-2.68-1.06-4.17-3.13-4.17s-3.16,1.43-3.16,4.1v.25c0,2.73,1.06,4.22,3.16,4.22S338.54,66.09,338.54,63.45Z" fill="#fff"/><path d="M346,55.39h5.44v3.17a5,5,0,0,1,5.14-3.38v5.08c-3.32-.09-5.14.94-5.14,3.49v7.54H346Z" fill="#fff"/><path d="M358.42,51.08a3,3,0,1,1,3,2.79A2.81,2.81,0,0,1,358.42,51.08Zm.28,4.31h5.44v15.9H358.7Z" fill="#fff"/><path d="M367.79,66.18V59.1h-1.92V55.39h1.92V52.08h5.44v3.31h3.13V59.1h-3.13v6.57a1.45,1.45,0,0,0,1.61,1.67,4.2,4.2,0,0,0,1.55-.27V71.2a11.48,11.48,0,0,1-3,.46C369.79,71.66,367.79,69.92,367.79,66.18Z" fill="#fff"/><path d="M377.58,63.54V63.3c0-5.11,3.8-8.33,8.6-8.33,4.34,0,8.08,2.49,8.08,8.21V64.6H383.08c.15,2.1,1.37,3.32,3.31,3.32s2.55-.82,2.77-1.89h5.1c-.48,3.59-3.25,5.63-8.05,5.63C381.22,71.66,377.58,68.74,377.58,63.54Zm11.39-2c-.09-1.91-1-3-2.79-3s-2.77,1.06-3,3Z" fill="#fff"/><path d="M401.68,55.39h5.44v2.37a5.65,5.65,0,0,1,5-2.79c3.71,0,6.71,2.79,6.71,8.24v.24c0,5.47-3,8.21-6.74,8.21A5.26,5.26,0,0,1,407.12,69v7.66h-5.44Zm11.58,8.06v-.24c0-2.8-1.21-4.14-3.13-4.14S407,60.5,407,63.18v.24c0,2.7,1.19,4.07,3.16,4.07S413.26,66.06,413.26,63.45Z" fill="#fff"/><path d="M420.77,55.39h5.44v3.17a5,5,0,0,1,5.14-3.38v5.08c-3.31-.09-5.14.94-5.14,3.49v7.54h-5.44Z" fill="#fff"/><path d="M433.21,51.08a3,3,0,1,1,3,2.79A2.81,2.81,0,0,1,433.21,51.08Zm.27,4.31h5.44v15.9h-5.44Z" fill="#fff"/><path d="M441,63.54V63.3c0-5.29,3.8-8.33,8.48-8.33,3.89,0,7.48,1.7,7.78,6.53h-5.11a2.34,2.34,0,0,0-2.55-2.31c-1.91,0-3,1.37-3,4.05v.24c0,2.77,1.07,4.19,3.13,4.19A2.65,2.65,0,0,0,452.45,65h4.89c-.15,4-2.86,6.63-8,6.63C444.61,71.66,441,68.89,441,63.54Z" fill="#fff"/><path d="M458.26,63.54V63.3c0-5.11,3.8-8.33,8.6-8.33,4.34,0,8.08,2.49,8.08,8.21V64.6H463.76c.15,2.1,1.37,3.32,3.31,3.32s2.55-.82,2.77-1.89h5.1c-.48,3.59-3.25,5.63-8.05,5.63C461.9,71.66,458.26,68.74,458.26,63.54Zm11.39-2c-.09-1.91-1-3-2.79-3s-2.77,1.06-3,3Z" fill="#fff"/><path d="M476.71,59.86a3.05,3.05,0,0,1,3.1-3.07,3.07,3.07,0,1,1,0,6.14A3,3,0,0,1,476.71,59.86Zm0,8.7a3,3,0,0,1,3.1-3.07,3.07,3.07,0,1,1,0,6.14A3.05,3.05,0,0,1,476.71,68.56Z" fill="#fff"/><path d="M492,59.1h-2V55.39h2V54c0-4,2.46-5.84,6.23-5.84a9.82,9.82,0,0,1,2.49.33v4a4.69,4.69,0,0,0-1.49-.22A1.6,1.6,0,0,0,497.41,54v1.39h3.22V59.1h-3.22V71.29H492Z" fill="#fff"/><path d="M502.46,55.39h5.44v3.17A5,5,0,0,1,513,55.18v5.08c-3.31-.09-5.13.94-5.13,3.49v7.54h-5.44Z" fill="#fff"/><path d="M514,63.54V63.3c0-5.11,3.8-8.33,8.6-8.33,4.35,0,8.09,2.49,8.09,8.21V64.6H519.51c.15,2.1,1.37,3.32,3.31,3.32s2.56-.82,2.77-1.89h5.11c-.49,3.59-3.26,5.63-8.06,5.63C517.66,71.66,514,68.74,514,63.54Zm11.4-2c-.09-1.91-1-3-2.8-3s-2.77,1.06-3,3Z" fill="#fff"/><path d="M531.73,63.54V63.3c0-5.11,3.8-8.33,8.6-8.33,4.35,0,8.09,2.49,8.09,8.21V64.6H537.23c.15,2.1,1.37,3.32,3.32,3.32,1.79,0,2.55-.82,2.76-1.89h5.11c-.49,3.59-3.25,5.63-8.06,5.63C535.38,71.66,531.73,68.74,531.73,63.54Zm11.4-2c-.09-1.91-1-3-2.8-3s-2.76,1.06-3,3Z" fill="#fff"/><path d="M549.94,68.56a3,3,0,0,1,3.1-3.07,3.07,3.07,0,1,1,0,6.14A3,3,0,0,1,549.94,68.56Z" fill="#fff"/></g></g></g></svg>