<svg xmlns="http://www.w3.org/2000/svg" viewBox="0 0 728 90"><title>Asset 3</title><g id="Layer_2" data-name="Layer 2"><g id="Rect"><rect width="728" height="90" fill="none"/></g><g id="File_for_everyone_s_favorite_price:_free." data-name="File for everyone’s favorite price: free."><path d="M122.28,16.25h15.94V21.5h-9.14v5h7.29v5h-7.29v8.35h-6.8Z" fill="#fff"/><path d="M139.9,17.9a3.26,3.26,0,1,1,3.23,3A3.08,3.08,0,0,1,139.9,17.9Zm.3,4.69h5.9V39.85h-5.9Z" fill="#fff"/><path d="M149.44,15h5.87V39.85h-5.87Z" fill="#fff"/><path d="M157.55,31.43v-.26c0-5.55,4.13-9,9.34-9,4.72,0,8.78,2.71,8.78,8.92v1.55H163.53c.16,2.27,1.48,3.6,3.59,3.6,1.95,0,2.78-.9,3-2h5.54c-.52,3.89-3.53,6.1-8.74,6.1C161.51,40.24,157.55,37.08,157.55,31.43Zm12.38-2.18c-.1-2.08-1.12-3.23-3-3.23s-3,1.15-3.3,3.23Z" fill="#fff"/><path d="M184.61,26.61h-2.17v-4h2.17V21.07c0-4.29,2.68-6.34,6.77-6.34a10.5,10.5,0,0,1,2.71.37v4.32a5.52,5.52,0,0,0-1.62-.23,1.73,1.73,0,0,0-2,1.88v1.52H194v4h-3.5V39.85h-5.88Z" fill="#fff"/><path d="M194.45,31.43v-.26c0-5.55,4.12-9,9.47-9s9.41,3.4,9.41,8.88v.27c0,5.61-4.13,9-9.44,9S194.45,37,194.45,31.43Zm12.87-.1v-.26c0-2.9-1.16-4.52-3.4-4.52s-3.43,1.55-3.43,4.45v.27c0,3,1.15,4.58,3.43,4.58S207.32,34.21,207.32,31.33Z" fill="#fff"/><path d="M215.4,22.59h5.91V26a5.43,5.43,0,0,1,5.58-3.66v5.51c-3.6-.1-5.58,1-5.58,3.79v8.19H215.4Z" fill="#fff"/><path d="M234.11,31.43v-.26c0-5.55,4.13-9,9.34-9,4.72,0,8.78,2.71,8.78,8.92v1.55H240.09c.16,2.27,1.48,3.6,3.59,3.6,1.95,0,2.78-.9,3-2h5.54c-.53,3.89-3.53,6.1-8.74,6.1C238.07,40.24,234.11,37.08,234.11,31.43Zm12.38-2.18c-.1-2.08-1.12-3.23-3-3.23s-3,1.15-3.3,3.23Z" fill="#fff"/><path d="M252.2,22.59h6.3l3.6,11.12,3.53-11.12h5.64L265,39.85h-6.44Z" fill="#fff"/><path d="M270.91,31.43v-.26c0-5.55,4.12-9,9.34-9C285,22.12,289,24.83,289,31v1.55H276.88c.17,2.27,1.49,3.6,3.6,3.6,1.95,0,2.77-.9,3-2H289c-.53,3.89-3.53,6.1-8.75,6.1C274.87,40.24,270.91,37.08,270.91,31.43Zm12.37-2.18c-.1-2.08-1.12-3.23-3-3.23s-3,1.15-3.3,3.23Z" fill="#fff"/><path d="M291.07,22.59H297V26a5.43,5.43,0,0,1,5.58-3.66v5.51c-3.6-.1-5.58,1-5.58,3.79v8.19h-5.91Z" fill="#fff"/><path d="M310.38,38.1l-6.9-15.51h6.4l3.56,9.21,3.31-9.21h5.64l-9.24,23H307.5Z" fill="#fff"/><path d="M322.06,31.43v-.26c0-5.55,4.12-9,9.47-9s9.4,3.4,9.4,8.88v.27c0,5.61-4.12,9-9.43,9S322.06,37,322.06,31.43Zm12.87-.1v-.26c0-2.9-1.16-4.52-3.4-4.52S328.1,28.1,328.1,31v.27c0,3,1.15,4.58,3.43,4.58S334.93,34.21,334.93,31.33Z" fill="#fff"/><path d="M343,22.59h5.91v2.77a6.09,6.09,0,0,1,5.68-3.24c3.33,0,5.64,2.08,5.64,6.51V39.85h-5.91v-10c0-1.95-.76-2.91-2.47-2.91s-2.94,1.06-2.94,3.27v9.67H343Z" fill="#fff"/><path d="M362.18,31.43v-.26c0-5.55,4.13-9,9.34-9,4.72,0,8.78,2.71,8.78,8.92v1.55H368.16c.16,2.27,1.48,3.6,3.59,3.6,1.95,0,2.78-.9,3-2h5.54c-.52,3.89-3.53,6.1-8.74,6.1C366.14,40.24,362.18,37.08,362.18,31.43Zm12.38-2.18c-.1-2.08-1.12-3.23-3-3.23s-3,1.15-3.3,3.23Z" fill="#fff"/><path d="M380.89,24.44l2.65-8.62,5.21,1.75-4.52,8.15Z" fill="#fff"/><path d="M386.77,34.37h5.44c.2,1.25.76,2,2.45,2,1.45,0,2.11-.56,2.11-1.42s-.83-1.22-3.2-1.55c-4.62-.6-6.57-2-6.57-5.55,0-3.83,3.4-5.68,7.39-5.68,4.26,0,7.23,1.46,7.63,5.58h-5.35A1.93,1.93,0,0,0,394.46,26c-1.29,0-1.95.56-1.95,1.35s.79,1.16,2.91,1.42c4.78.59,7.09,1.85,7.09,5.54,0,4.1-3,5.94-7.82,5.94S386.9,38.2,386.77,34.37Z" fill="#fff"/><path d="M411.32,26.61h-2.18v-4h2.18V21.07c0-4.29,2.67-6.34,6.77-6.34a10.35,10.35,0,0,1,2.7.37v4.32a5.45,5.45,0,0,0-1.61-.23,1.73,1.73,0,0,0-2,1.88v1.52h3.49v4H417.2V39.85h-5.88Z" fill="#fff"/><path d="M421.35,35.06c0-4.06,3.44-5.64,9.18-5.64h1.65V29c0-1.65-.4-2.74-2.28-2.74a2.12,2.12,0,0,0-2.34,2H422c.27-4.16,3.53-6.21,8.25-6.21s7.79,1.95,7.79,6.54V39.85h-5.74v-2c-.82,1.25-2.34,2.4-5.12,2.4C424.09,40.24,421.35,38.73,421.35,35.06Zm10.83-1.25V32.75h-1.55c-2.38,0-3.44.46-3.44,1.88,0,1,.66,1.62,2.05,1.62C430.92,36.25,432.18,35.29,432.18,33.81Z" fill="#fff"/><path d="M438.94,22.59h6.31l3.59,11.12,3.53-11.12H458l-6.31,17.26h-6.43Z" fill="#fff"/><path d="M457.65,31.43v-.26c0-5.55,4.13-9,9.47-9s9.41,3.4,9.41,8.88v.27c0,5.61-4.13,9-9.44,9S457.65,37,457.65,31.43Zm12.87-.1v-.26c0-2.9-1.15-4.52-3.4-4.52s-3.43,1.55-3.43,4.45v.27c0,3,1.16,4.58,3.43,4.58S470.52,34.21,470.52,31.33Z" fill="#fff"/><path d="M478.61,22.59h5.9V26a5.44,5.44,0,0,1,5.58-3.66v5.51c-3.59-.1-5.58,1-5.58,3.79v8.19h-5.9Z" fill="#fff"/><path d="M492.1,17.9a3.26,3.26,0,1,1,3.24,3A3.09,3.09,0,0,1,492.1,17.9Zm.3,4.69h5.91V39.85H492.4Z" fill="#fff"/><path d="M502.27,34.3V26.61h-2.08v-4h2.08V19h5.9v3.6h3.4v4h-3.4v7.13c0,1.26.63,1.82,1.75,1.82a4.5,4.5,0,0,0,1.69-.3v4.49a12.35,12.35,0,0,1-3.27.49C504.45,40.24,502.27,38.36,502.27,34.3Z" fill="#fff"/><path d="M512.89,31.43v-.26c0-5.55,4.13-9,9.34-9C527,22.12,531,24.83,531,31v1.55H518.87c.16,2.27,1.48,3.6,3.59,3.6,1.95,0,2.78-.9,3-2H531c-.53,3.89-3.53,6.1-8.74,6.1C516.85,40.24,512.89,37.08,512.89,31.43Zm12.38-2.18c-.1-2.08-1.12-3.23-3-3.23s-3,1.15-3.3,3.23Z" fill="#fff"/><path d="M121.75,57.59h5.91v2.57a6.09,6.09,0,0,1,5.38-3c4,0,7.29,3,7.29,8.95v.26c0,5.94-3.27,8.92-7.33,8.92a5.7,5.7,0,0,1-5.34-2.94v8.31h-5.91Zm12.57,8.74v-.26c0-3-1.32-4.49-3.4-4.49s-3.43,1.55-3.43,4.46v.26c0,2.94,1.29,4.42,3.43,4.42S134.32,69.17,134.32,66.33Z" fill="#fff"/><path d="M142.47,57.59h5.91V61A5.44,5.44,0,0,1,154,57.36v5.51c-3.6-.1-5.58,1-5.58,3.79v8.19h-5.91Z" fill="#fff"/><path d="M156,52.9a3.26,3.26,0,1,1,3.23,3A3.08,3.08,0,0,1,156,52.9Zm.3,4.69h5.9V74.85h-5.9Z" fill="#fff"/><path d="M164.42,66.43v-.26c0-5.74,4.12-9.05,9.21-9.05,4.22,0,8.12,1.85,8.45,7.1h-5.55c-.26-1.62-1.06-2.51-2.77-2.51-2.08,0-3.3,1.49-3.3,4.39v.27c0,3,1.15,4.55,3.4,4.55a2.87,2.87,0,0,0,3-2.87h5.31c-.16,4.36-3.1,7.2-8.68,7.2C168.35,75.25,164.42,72.24,164.42,66.43Z" fill="#fff"/><path d="M183.16,66.43v-.26c0-5.55,4.13-9.05,9.34-9.05,4.72,0,8.78,2.71,8.78,8.92v1.55H189.14c.16,2.28,1.48,3.6,3.59,3.6,2,0,2.77-.9,3-2h5.54c-.53,3.89-3.53,6.11-8.75,6.11C187.12,75.25,183.16,72.08,183.16,66.43Zm12.38-2.18c-.1-2.08-1.12-3.23-3-3.23s-3,1.15-3.3,3.23Z" fill="#fff"/><path d="M203.19,62.44a3.31,3.31,0,0,1,3.37-3.33,3.33,3.33,0,1,1,0,6.66A3.29,3.29,0,0,1,203.19,62.44Zm0,9.44a3.31,3.31,0,0,1,3.37-3.34,3.34,3.34,0,1,1,0,6.67A3.31,3.31,0,0,1,203.19,71.88Z" fill="#fff"/><path d="M219.79,61.61h-2.18v-4h2.18V56.07c0-4.29,2.67-6.34,6.77-6.34a10.83,10.83,0,0,1,2.7.36v4.33a5.45,5.45,0,0,0-1.61-.23,1.73,1.73,0,0,0-2,1.88v1.52h3.49v4h-3.49V74.85h-5.88Z" fill="#fff"/><path d="M231.14,57.59h5.91V61a5.43,5.43,0,0,1,5.58-3.66v5.51c-3.6-.1-5.58,1-5.58,3.79v8.19h-5.91Z" fill="#fff"/><path d="M243.68,66.43v-.26c0-5.55,4.13-9.05,9.34-9.05,4.72,0,8.78,2.71,8.78,8.92v1.55H249.66c.16,2.28,1.48,3.6,3.59,3.6,1.95,0,2.78-.9,3-2h5.54c-.53,3.89-3.53,6.11-8.74,6.11C247.64,75.25,243.68,72.08,243.68,66.43Zm12.38-2.18c-.1-2.08-1.12-3.23-3-3.23s-3,1.15-3.3,3.23Z" fill="#fff"/><path d="M262.92,66.43v-.26c0-5.55,4.13-9.05,9.34-9.05C277,57.12,281,59.83,281,66v1.55H268.89c.17,2.28,1.49,3.6,3.6,3.6,1.95,0,2.77-.9,3-2H281c-.53,3.89-3.53,6.11-8.75,6.11C266.88,75.25,262.92,72.08,262.92,66.43Zm12.38-2.18c-.1-2.08-1.12-3.23-3-3.23s-3,1.15-3.3,3.23Z" fill="#fff"/><path d="M282.69,71.88a3.29,3.29,0,0,1,3.36-3.34,3.34,3.34,0,1,1,0,6.67A3.29,3.29,0,0,1,282.69,71.88Z" fill="#fff"/></g></g></svg>