<svg xmlns="http://www.w3.org/2000/svg" viewBox="0 0 300 600"><title>H193</title><g id="Layer_2" data-name="Layer 2"><g id="Rect"><rect width="300" height="600" fill="none"/></g><g id="Drop_off_your_taxes._No_appointment_needed." data-name="Drop off your  taxes. No  appointment needed."><path d="M21.64,157.72h10c9.71,0,14.65,4.86,14.65,13.35v.3c0,8.54-5.05,13.7-14.69,13.7H21.64ZM31.32,179c4.66,0,6.73-2.45,6.73-7.54v-.31c0-5.2-2.07-7.42-6.81-7.42H29.52V179Z" fill="#fff"/><path d="M48.87,165.06h6.85v4a6.33,6.33,0,0,1,6.47-4.25v6.39c-4.17-.11-6.47,1.19-6.47,4.4v9.49H48.87Z" fill="#fff"/><path d="M63.41,175.31V175c0-6.43,4.78-10.48,11-10.48s10.9,3.94,10.9,10.29v.3c0,6.51-4.78,10.41-10.94,10.41S63.41,181.78,63.41,175.31Zm14.92-.11v-.31c0-3.36-1.34-5.24-3.94-5.24s-4,1.8-4,5.17v.3c0,3.45,1.34,5.32,4,5.32S78.33,178.53,78.33,175.2Z" fill="#fff"/><path d="M87.7,165.06h6.84v3a7.06,7.06,0,0,1,6.24-3.52c4.67,0,8.45,3.52,8.45,10.36v.31c0,6.89-3.78,10.33-8.49,10.33a6.61,6.61,0,0,1-6.2-3.41v9.64H87.7Zm14.57,10.14v-.31c0-3.52-1.53-5.2-3.94-5.2s-4,1.8-4,5.17v.3c0,3.41,1.5,5.13,4,5.13S102.27,178.49,102.27,175.2Z" fill="#fff"/><path d="M117.61,175.31V175c0-6.43,4.78-10.48,11-10.48s10.9,3.94,10.9,10.29v.3c0,6.51-4.78,10.41-10.94,10.41S117.61,181.78,117.61,175.31Zm14.92-.11v-.31c0-3.36-1.34-5.24-3.94-5.24s-4,1.8-4,5.17v.3c0,3.45,1.34,5.32,4,5.32S132.53,178.53,132.53,175.2Z" fill="#fff"/><path d="M142.93,169.73H140.4v-4.67h2.53v-1.53c0-5,3.06-7.3,7.8-7.3a11.44,11.44,0,0,1,3.06.38v5a6,6,0,0,0-1.83-.27,2,2,0,0,0-2.22,2.18v1.53h5.81V163.3c0-5,3.14-7.34,7.84-7.34a12.18,12.18,0,0,1,3.14.42v5a6.39,6.39,0,0,0-1.87-.27,2,2,0,0,0-2.26,2.18v1.76h4.06v4.67H162.4v15.34h-6.85V169.73h-5.81v15.34h-6.81Z" fill="#fff"/><path d="M181.94,183l-8-18h7.42l4.13,10.68,3.83-10.68h6.54l-10.71,26.7h-6.54Z" fill="#fff"/><path d="M195.48,175.31V175c0-6.43,4.78-10.48,11-10.48s10.9,3.94,10.9,10.29v.3c0,6.51-4.78,10.41-10.94,10.41S195.48,181.78,195.48,175.31Zm14.92-.11v-.31c0-3.36-1.34-5.24-3.94-5.24s-4,1.8-4,5.17v.3c0,3.45,1.34,5.32,4,5.32S210.4,178.53,210.4,175.2Z" fill="#fff"/><path d="M219.62,178.11V165.06h6.85V177c0,2.25.88,3.36,2.83,3.36s3.4-1.22,3.4-3.78V165.06h6.85v20H232.7V182c-1.07,2.07-3,3.56-6.35,3.56C222.49,185.53,219.62,183.16,219.62,178.11Z" fill="#fff"/><path d="M243,165.06h6.85v4a6.31,6.31,0,0,1,6.46-4.25v6.39c-4.17-.11-6.46,1.19-6.46,4.4v9.49H243Z" fill="#fff"/><path d="M22,219.89V211H19.54v-4.67H22v-4.17h6.84v4.17h3.94V211H28.79v8.26c0,1.46.73,2.11,2,2.11a5.18,5.18,0,0,0,2-.35v5.2a14.31,14.31,0,0,1-3.79.58C24.47,226.78,22,224.6,22,219.89Z" fill="#fff"/><path d="M34.26,220.77c0-4.7,4-6.54,10.64-6.54h1.91v-.46c0-1.91-.46-3.17-2.64-3.17A2.46,2.46,0,0,0,41.45,213H35c.3-4.82,4.09-7.19,9.56-7.19s9,2.25,9,7.57v13H47V224c-1,1.45-2.71,2.79-5.93,2.79C37.44,226.78,34.26,225,34.26,220.77Zm12.55-1.45v-1.23H45c-2.75,0-4,.54-4,2.19,0,1.14.77,1.87,2.37,1.87C45.35,222.15,46.81,221,46.81,219.32Z" fill="#fff"/><path d="M62,216.14l-6.23-9.83h7.88l3.1,5.28,3-5.28h7l-6.31,9.3,6.92,10.71H69.53l-3.56-6-3.63,6h-7Z" fill="#fff"/><path d="M76.53,216.56v-.3c0-6.43,4.78-10.48,10.82-10.48,5.47,0,10.18,3.13,10.18,10.33v1.79H83.45c.19,2.64,1.72,4.17,4.17,4.17,2.26,0,3.21-1,3.48-2.37h6.43c-.61,4.52-4.09,7.08-10.14,7.08C81.12,226.78,76.53,223.11,76.53,216.56ZM90.87,214c-.11-2.41-1.3-3.75-3.52-3.75-2.06,0-3.48,1.34-3.82,3.75Z" fill="#fff"/><path d="M98.75,220h6.31c.23,1.45.88,2.26,2.83,2.26,1.69,0,2.45-.65,2.45-1.65s-1-1.41-3.71-1.8c-5.36-.69-7.61-2.25-7.61-6.42,0-4.44,3.94-6.58,8.57-6.58,4.93,0,8.37,1.68,8.83,6.46h-6.19a2.24,2.24,0,0,0-2.57-2c-1.49,0-2.25.65-2.25,1.57s.91,1.34,3.36,1.65c5.55.68,8.23,2.14,8.23,6.42,0,4.75-3.52,6.89-9.07,6.89C102.23,226.78,98.9,224.41,98.75,220Z" fill="#fff"/><path d="M119,222.88a3.81,3.81,0,0,1,3.9-3.87,3.87,3.87,0,1,1,0,7.73A3.81,3.81,0,0,1,119,222.88Z" fill="#fff"/><path d="M137.65,199h8.84l8.76,15.41V199h6.84v27.35h-7.57l-10-17.18v17.18h-6.89Z" fill="#fff"/><path d="M164.84,216.56v-.3c0-6.43,4.79-10.48,11-10.48s10.91,3.94,10.91,10.29v.3c0,6.51-4.79,10.41-10.94,10.41S164.84,223,164.84,216.56Zm14.92-.11v-.31c0-3.36-1.34-5.24-3.94-5.24s-4,1.8-4,5.17v.3c0,3.45,1.33,5.32,4,5.32S179.76,219.78,179.76,216.45Z" fill="#fff"/><path d="M19.88,262c0-4.7,4-6.54,10.63-6.54h1.92V255c0-1.91-.46-3.17-2.64-3.17a2.46,2.46,0,0,0-2.72,2.37H20.65c.3-4.82,4.09-7.19,9.56-7.19s9,2.25,9,7.57v13H32.58v-2.33c-1,1.45-2.72,2.79-5.93,2.79C23.05,268,19.88,266.27,19.88,262Zm12.55-1.45v-1.23h-1.8c-2.75,0-4,.54-4,2.19,0,1.14.77,1.87,2.37,1.87C31,263.4,32.43,262.29,32.43,260.57Z" fill="#fff"/><path d="M42.56,247.56h6.85v3A7,7,0,0,1,55.64,247c4.67,0,8.46,3.52,8.46,10.36v.31c0,6.89-3.79,10.33-8.49,10.33a6.59,6.59,0,0,1-6.2-3.41v9.64H42.56ZM57.14,257.7v-.31c0-3.52-1.53-5.2-3.94-5.2s-4,1.8-4,5.17v.3c0,3.41,1.49,5.13,4,5.13S57.14,261,57.14,257.7Z" fill="#fff"/><path d="M66.58,247.56h6.85v3A7,7,0,0,1,79.67,247c4.66,0,8.45,3.52,8.45,10.36v.31c0,6.89-3.79,10.33-8.49,10.33a6.59,6.59,0,0,1-6.2-3.41v9.64H66.58ZM81.16,257.7v-.31c0-3.52-1.53-5.2-3.94-5.2s-4,1.8-4,5.17v.3c0,3.41,1.49,5.13,4,5.13S81.16,261,81.16,257.7Z" fill="#fff"/><path d="M89.53,257.81v-.3c0-6.43,4.78-10.48,11-10.48s10.9,3.94,10.9,10.29v.3c0,6.51-4.78,10.41-10.94,10.41S89.53,264.28,89.53,257.81Zm14.92-.11v-.31c0-3.36-1.34-5.24-3.94-5.24s-4,1.8-4,5.17v.3c0,3.45,1.34,5.32,4,5.32S104.45,261,104.45,257.7Z" fill="#fff"/><path d="M113.67,242.13a3.77,3.77,0,1,1,3.75,3.52A3.57,3.57,0,0,1,113.67,242.13Zm.34,5.43h6.85v20H114Z" fill="#fff"/><path d="M124.53,247.56h6.85v3.22A7.05,7.05,0,0,1,138,247c3.86,0,6.54,2.41,6.54,7.53v13h-6.85V255.94c0-2.26-.88-3.37-2.87-3.37s-3.4,1.23-3.4,3.79v11.21h-6.85Z" fill="#fff"/><path d="M148.74,261.14v-8.91h-2.41v-4.67h2.41v-4.17h6.85v4.17h3.94v4.67h-3.94v8.26c0,1.46.73,2.11,2,2.11a5.21,5.21,0,0,0,1.95-.35v5.2a14.31,14.31,0,0,1-3.79.58C151.27,268,148.74,265.85,148.74,261.14Z" fill="#fff"/><path d="M162.13,247.56H169v3.06a7,7,0,0,1,6.27-3.59,5.43,5.43,0,0,1,5.43,3.33A7.92,7.92,0,0,1,187.3,247c3.79,0,6.54,2.45,6.54,7.46v13.08H187V255.63c0-2-1-3-2.56-3-1.83,0-3.06,1.19-3.06,3.37v11.59H174.6V255.63c0-2-1-3-2.56-3-1.84,0-3.06,1.19-3.06,3.37v11.59h-6.85Z" fill="#fff"/><path d="M196.1,257.81v-.3c0-6.43,4.78-10.48,10.82-10.48,5.47,0,10.18,3.13,10.18,10.33v1.79H203c.19,2.64,1.72,4.17,4.17,4.17,2.26,0,3.21-1,3.48-2.37h6.43C216.48,265.47,213,268,207,268,200.69,268,196.1,264.36,196.1,257.81Zm14.34-2.52c-.11-2.41-1.3-3.75-3.52-3.75-2.06,0-3.48,1.34-3.82,3.75Z" fill="#fff"/><path d="M219.47,247.56h6.84v3.22a7.06,7.06,0,0,1,6.58-3.75c3.87,0,6.54,2.41,6.54,7.53v13h-6.84V255.94c0-2.26-.88-3.37-2.87-3.37s-3.41,1.23-3.41,3.79v11.21h-6.84Z" fill="#fff"/><path d="M243.68,261.14v-8.91h-2.41v-4.67h2.41v-4.17h6.85v4.17h3.94v4.67h-3.94v8.26c0,1.46.72,2.11,2,2.11a5.18,5.18,0,0,0,1.95-.35v5.2a14.3,14.3,0,0,1-3.78.58C246.2,268,243.68,265.85,243.68,261.14Z" fill="#fff"/><path d="M21,288.81h6.85V292a7,7,0,0,1,6.57-3.75c3.87,0,6.55,2.41,6.55,7.53v13H34.15V297.19c0-2.26-.88-3.37-2.87-3.37s-3.4,1.23-3.4,3.79v11.21H21Z" fill="#fff"/><path d="M43.25,299.06v-.3c0-6.43,4.78-10.48,10.83-10.48,5.47,0,10.17,3.13,10.17,10.33v1.79H50.17c.2,2.64,1.73,4.17,4.17,4.17,2.26,0,3.22-1,3.49-2.37h6.42c-.61,4.52-4.09,7.08-10.14,7.08C47.84,309.28,43.25,305.61,43.25,299.06Zm14.35-2.52c-.12-2.41-1.31-3.75-3.52-3.75s-3.48,1.34-3.83,3.75Z" fill="#fff"/><path d="M65.55,299.06v-.3c0-6.43,4.78-10.48,10.83-10.48,5.47,0,10.17,3.13,10.17,10.33v1.79H72.47c.2,2.64,1.73,4.17,4.17,4.17,2.26,0,3.22-1,3.48-2.37h6.43c-.61,4.52-4.09,7.08-10.14,7.08C70.14,309.28,65.55,305.61,65.55,299.06Zm14.35-2.52c-.12-2.41-1.31-3.75-3.52-3.75s-3.49,1.34-3.83,3.75Z" fill="#fff"/><path d="M87.93,299v-.31c0-6.81,3.74-10.44,8.49-10.44a6.51,6.51,0,0,1,6.16,3.36V280h6.84v28.81h-6.84v-3.25a6.77,6.77,0,0,1-6.24,3.71C91.71,309.28,87.93,306,87.93,299Zm14.84-.12v-.3c0-3.37-1.42-5.17-3.94-5.17s-3.94,1.72-3.94,5.2V299c0,3.37,1.49,5.09,3.86,5.09S102.77,302.32,102.77,298.91Z" fill="#fff"/><path d="M111.83,299.06v-.3c0-6.43,4.78-10.48,10.83-10.48,5.47,0,10.17,3.13,10.17,10.33v1.79H118.76c.19,2.64,1.72,4.17,4.17,4.17,2.25,0,3.21-1,3.48-2.37h6.42c-.61,4.52-4.09,7.08-10.13,7.08C116.42,309.28,111.83,305.61,111.83,299.06Zm14.35-2.52c-.12-2.41-1.3-3.75-3.52-3.75-2.07,0-3.48,1.34-3.83,3.75Z" fill="#fff"/><path d="M134.21,299v-.31c0-6.81,3.75-10.44,8.49-10.44a6.5,6.5,0,0,1,6.16,3.36V280h6.85v28.81h-6.85v-3.25a6.76,6.76,0,0,1-6.24,3.71C138,309.28,134.21,306,134.21,299Zm14.84-.12v-.3c0-3.37-1.42-5.17-3.94-5.17s-3.94,1.72-3.94,5.2V299c0,3.37,1.49,5.09,3.86,5.09S149.05,302.32,149.05,298.91Z" fill="#fff"/><path d="M158.92,305.38a3.81,3.81,0,0,1,3.9-3.87,3.87,3.87,0,1,1,0,7.73A3.81,3.81,0,0,1,158.92,305.38Z" fill="#fff"/></g></g></svg>