<svg xmlns="http://www.w3.org/2000/svg" viewBox="0 0 728 90"><title>H67</title><g id="Layer_2" data-name="Layer 2"><g id="Rect"><rect width="728" height="90" fill="none"/></g><g id="H67"><g id="File_for_nada_zip_zero._Free_Federal._Free_State." data-name="File for nada, zip, zero.  Free Federal. Free State."><path d="M122.28,15.25h15.94V20.5h-9.14v5h7.29v5h-7.29v8.35h-6.8Z" fill="#fff"/><path d="M139.9,16.9a3.26,3.26,0,1,1,3.23,3A3.08,3.08,0,0,1,139.9,16.9Zm.3,4.69h5.9V38.85h-5.9Z" fill="#fff"/><path d="M149.44,14h5.87V38.85h-5.87Z" fill="#fff"/><path d="M157.55,30.43v-.26c0-5.55,4.13-9,9.34-9,4.72,0,8.78,2.71,8.78,8.92v1.55H163.53c.16,2.27,1.48,3.6,3.59,3.6,1.95,0,2.78-.9,3-2h5.54c-.52,3.89-3.53,6.1-8.74,6.1C161.51,39.24,157.55,36.08,157.55,30.43Zm12.38-2.18c-.1-2.08-1.12-3.23-3-3.23s-3,1.15-3.3,3.23Z" fill="#fff"/><path d="M184.61,25.61h-2.17v-4h2.17V20.07c0-4.29,2.68-6.34,6.77-6.34a10.5,10.5,0,0,1,2.71.37v4.32a5.52,5.52,0,0,0-1.62-.23,1.73,1.73,0,0,0-2,1.88v1.52H194v4h-3.5V38.85h-5.88Z" fill="#fff"/><path d="M194.45,30.43v-.26c0-5.55,4.12-9,9.47-9s9.41,3.4,9.41,8.88v.27c0,5.61-4.13,9-9.44,9S194.45,36,194.45,30.43Zm12.87-.1v-.26c0-2.9-1.16-4.52-3.4-4.52s-3.43,1.55-3.43,4.45v.27c0,3,1.15,4.58,3.43,4.58S207.32,33.21,207.32,30.33Z" fill="#fff"/><path d="M215.4,21.59h5.91V25a5.43,5.43,0,0,1,5.58-3.66v5.51c-3.6-.1-5.58,1-5.58,3.79v8.19H215.4Z" fill="#fff"/><path d="M235,21.59h5.9v2.77a6.11,6.11,0,0,1,5.68-3.24c3.33,0,5.65,2.08,5.65,6.51V38.85h-5.91v-10c0-1.95-.76-2.91-2.48-2.91s-2.94,1.06-2.94,3.27v9.67H235Z" fill="#fff"/><path d="M254.14,34.06c0-4.06,3.44-5.64,9.18-5.64H265V28c0-1.65-.4-2.74-2.28-2.74a2.12,2.12,0,0,0-2.34,2H254.8c.27-4.16,3.53-6.21,8.25-6.21s7.79,1.95,7.79,6.54V38.85H265.1v-2c-.82,1.25-2.34,2.4-5.12,2.4C256.88,39.24,254.14,37.73,254.14,34.06ZM265,32.81V31.75h-1.55c-2.38,0-3.44.46-3.44,1.88,0,1,.67,1.62,2,1.62C263.71,35.25,265,34.29,265,32.81Z" fill="#fff"/><path d="M272.85,30.4v-.26c0-5.88,3.24-9,7.33-9A5.59,5.59,0,0,1,285.49,24V14h5.91V38.85h-5.91V36a5.79,5.79,0,0,1-5.38,3.2C276.12,39.24,272.85,36.37,272.85,30.4Zm12.81-.1V30c0-2.91-1.22-4.46-3.4-4.46s-3.4,1.49-3.4,4.49v.26c0,2.91,1.29,4.39,3.33,4.39S285.66,33.24,285.66,30.3Z" fill="#fff"/><path d="M293.41,34.06c0-4.06,3.44-5.64,9.18-5.64h1.65V28c0-1.65-.4-2.74-2.28-2.74a2.12,2.12,0,0,0-2.34,2h-5.55c.27-4.16,3.53-6.21,8.25-6.21s7.79,1.95,7.79,6.54V38.85h-5.74v-2c-.83,1.25-2.34,2.4-5.12,2.4C296.15,39.24,293.41,37.73,293.41,34.06Zm10.83-1.25V31.75h-1.55c-2.38,0-3.44.46-3.44,1.88,0,1,.66,1.62,2.05,1.62C303,35.25,304.24,34.29,304.24,32.81Z" fill="#fff"/><path d="M311.76,41.52l2.77-8.68L320,34.79l-4.75,8.09Z" fill="#fff"/><path d="M327.17,38.25,334.73,26H328V21.59h15.22v.62l-7.76,12.18h7.36v4.46H327.17Z" fill="#fff"/><path d="M344.73,16.9A3.08,3.08,0,0,1,348,13.83a3.06,3.06,0,1,1,0,6.11A3.06,3.06,0,0,1,344.73,16.9Zm.29,4.69h5.91V38.85H345Z" fill="#fff"/><path d="M354.1,21.59H360v2.57a6.09,6.09,0,0,1,5.38-3c4,0,7.29,3,7.29,9v.26c0,5.94-3.27,8.91-7.33,8.91A5.69,5.69,0,0,1,360,36.31v8.31H354.1Zm12.57,8.74v-.26c0-3-1.32-4.49-3.4-4.49s-3.43,1.55-3.43,4.46v.26c0,2.94,1.29,4.42,3.43,4.42S366.67,33.17,366.67,30.33Z" fill="#fff"/><path d="M373.17,41.52,376,32.84l5.47,1.95-4.75,8.09Z" fill="#fff"/><path d="M388.58,38.25,396.14,26h-6.76V21.59h15.21v.62l-7.76,12.18h7.37v4.46H388.58Z" fill="#fff"/><path d="M405.08,30.43v-.26c0-5.55,4.13-9,9.34-9,4.72,0,8.78,2.71,8.78,8.92v1.55H411.06c.16,2.27,1.48,3.6,3.6,3.6,1.94,0,2.77-.9,3-2h5.54c-.53,3.89-3.53,6.1-8.74,6.1C409,39.24,405.08,36.08,405.08,30.43Zm12.38-2.18c-.1-2.08-1.12-3.23-3-3.23s-3,1.15-3.3,3.23Z" fill="#fff"/><path d="M425.25,21.59h5.9V25a5.44,5.44,0,0,1,5.58-3.66v5.51c-3.6-.1-5.58,1-5.58,3.79v8.19h-5.9Z" fill="#fff"/><path d="M437.79,30.43v-.26c0-5.55,4.12-9,9.47-9s9.41,3.4,9.41,8.88v.27c0,5.61-4.13,9-9.44,9S437.79,36,437.79,30.43Zm12.87-.1v-.26c0-2.9-1.16-4.52-3.4-4.52s-3.43,1.55-3.43,4.45v.27c0,3,1.15,4.58,3.43,4.58S450.66,33.21,450.66,30.33Z" fill="#fff"/><path d="M457.79,35.88a3.29,3.29,0,0,1,3.36-3.34,3.34,3.34,0,1,1,0,6.67A3.28,3.28,0,0,1,457.79,35.88Z" fill="#fff"/><path d="M122.28,50.25h15.94V55.5h-9.14v5h7.29v5h-7.29v8.35h-6.8Z" fill="#fff"/><path d="M139.8,56.59h5.91V60a5.43,5.43,0,0,1,5.58-3.66v5.51c-3.6-.1-5.58,1-5.58,3.79v8.19H139.8Z" fill="#fff"/><path d="M152.34,65.43v-.26c0-5.55,4.13-9.05,9.34-9.05,4.72,0,8.78,2.71,8.78,8.92v1.55H158.31c.17,2.28,1.49,3.6,3.6,3.6,2,0,2.77-.9,3-2h5.54c-.53,3.89-3.53,6.11-8.75,6.11C156.3,74.25,152.34,71.08,152.34,65.43Zm12.38-2.18c-.1-2.08-1.13-3.23-3-3.23s-3,1.15-3.3,3.23Z" fill="#fff"/><path d="M171.58,65.43v-.26c0-5.55,4.12-9.05,9.34-9.05,4.72,0,8.78,2.71,8.78,8.92v1.55H177.55c.17,2.28,1.49,3.6,3.6,3.6,1.95,0,2.77-.9,3-2h5.55c-.53,3.89-3.53,6.11-8.75,6.11C175.54,74.25,171.58,71.08,171.58,65.43ZM184,63.25c-.1-2.08-1.13-3.23-3-3.23s-3,1.15-3.3,3.23Z" fill="#fff"/><path d="M198.28,50.25h15.94V55.5h-9.15v5h7.3v5h-7.3v8.35h-6.79Z" fill="#fff"/><path d="M214.68,65.43v-.26c0-5.55,4.12-9.05,9.34-9.05,4.72,0,8.78,2.71,8.78,8.92v1.55H220.65c.17,2.28,1.49,3.6,3.6,3.6,1.94,0,2.77-.9,3-2h5.55c-.53,3.89-3.54,6.11-8.75,6.11C218.64,74.25,214.68,71.08,214.68,65.43Zm12.37-2.18c-.1-2.08-1.12-3.23-3-3.23s-3,1.15-3.3,3.23Z" fill="#fff"/><path d="M234,65.4v-.26c0-5.88,3.24-9,7.33-9A5.6,5.6,0,0,1,246.62,59V49h5.91V73.85h-5.91V71a5.81,5.81,0,0,1-5.38,3.21C237.25,74.25,234,71.37,234,65.4Zm12.81-.1V65c0-2.91-1.22-4.46-3.4-4.46s-3.4,1.49-3.4,4.49v.26c0,2.91,1.28,4.39,3.33,4.39S246.79,68.24,246.79,65.3Z" fill="#fff"/><path d="M254.61,65.43v-.26c0-5.55,4.12-9.05,9.34-9.05,4.72,0,8.78,2.71,8.78,8.92v1.55H260.58c.16,2.28,1.48,3.6,3.6,3.6,1.94,0,2.77-.9,3-2h5.55c-.53,3.89-3.54,6.11-8.75,6.11C258.57,74.25,254.61,71.08,254.61,65.43ZM267,63.25c-.1-2.08-1.12-3.23-3-3.23s-3,1.15-3.3,3.23Z" fill="#fff"/><path d="M274.77,56.59h5.91V60a5.43,5.43,0,0,1,5.57-3.66v5.51c-3.59-.1-5.57,1-5.57,3.79v8.19h-5.91Z" fill="#fff"/><path d="M287,69.06c0-4.06,3.43-5.64,9.18-5.64h1.65V63c0-1.65-.4-2.74-2.28-2.74a2.12,2.12,0,0,0-2.34,2h-5.55c.27-4.16,3.53-6.21,8.25-6.21s7.79,2,7.79,6.54V73.85H298v-2a5.67,5.67,0,0,1-5.12,2.42C289.75,74.25,287,72.73,287,69.06Zm10.83-1.25V66.75h-1.55c-2.38,0-3.44.46-3.44,1.88,0,1,.66,1.62,2,1.62C296.58,70.25,297.84,69.29,297.84,67.81Z" fill="#fff"/><path d="M306.75,49h5.87V73.85h-5.87Z" fill="#fff"/><path d="M315.56,70.88a3.29,3.29,0,0,1,3.36-3.34,3.34,3.34,0,1,1,0,6.67A3.29,3.29,0,0,1,315.56,70.88Z" fill="#fff"/><path d="M331.69,50.25h15.94V55.5h-9.14v5h7.3v5h-7.3v8.35h-6.8Z" fill="#fff"/><path d="M349.22,56.59h5.9V60a5.44,5.44,0,0,1,5.58-3.66v5.51c-3.6-.1-5.58,1-5.58,3.79v8.19h-5.9Z" fill="#fff"/><path d="M361.76,65.43v-.26c0-5.55,4.12-9.05,9.34-9.05,4.72,0,8.78,2.71,8.78,8.92v1.55H367.73c.16,2.28,1.48,3.6,3.6,3.6,1.94,0,2.77-.9,3-2h5.55c-.53,3.89-3.54,6.11-8.75,6.11C365.72,74.25,361.76,71.08,361.76,65.43Zm12.37-2.18C374,61.17,373,60,371.1,60s-3,1.15-3.3,3.23Z" fill="#fff"/><path d="M381,65.43v-.26c0-5.55,4.13-9.05,9.34-9.05,4.72,0,8.78,2.71,8.78,8.92v1.55H387c.16,2.28,1.48,3.6,3.6,3.6,1.94,0,2.77-.9,3-2h5.54c-.52,3.89-3.53,6.11-8.74,6.11C385,74.25,381,71.08,381,65.43Zm12.38-2.18c-.1-2.08-1.12-3.23-3-3.23s-3,1.15-3.3,3.23Z" fill="#fff"/><path d="M406.17,66.36h6.44c.16,1.68.92,3.07,3.73,3.07,2,0,3-1,3-2.35s-.9-1.85-3.73-2.27c-6.67-.8-8.92-2.78-8.92-7.53,0-4.26,3.5-7.36,9.15-7.36s8.87,2.38,9.3,7.36h-6.27a2.68,2.68,0,0,0-3-2.54c-1.82,0-2.74.82-2.74,2s.72,1.92,3.66,2.31c6,.66,9,2.21,9,7.33,0,4.32-3.43,7.86-9.5,7.86C409.74,74.25,406.37,71.47,406.17,66.36Z" fill="#fff"/><path d="M428.81,68.3V60.61h-2.08v-4h2.08V53h5.91v3.6h3.4v4h-3.4v7.13c0,1.26.63,1.82,1.75,1.82a4.45,4.45,0,0,0,1.68-.3v4.49a12.28,12.28,0,0,1-3.27.5C431,74.25,428.81,72.36,428.81,68.3Z" fill="#fff"/><path d="M439.44,69.06c0-4.06,3.43-5.64,9.17-5.64h1.65V63c0-1.65-.39-2.74-2.28-2.74a2.12,2.12,0,0,0-2.34,2H440.1c.26-4.16,3.53-6.21,8.25-6.21s7.79,2,7.79,6.54V73.85h-5.75v-2a5.65,5.65,0,0,1-5.11,2.42C442.18,74.25,439.44,72.73,439.44,69.06Zm10.82-1.25V66.75h-1.55c-2.38,0-3.43.46-3.43,1.88,0,1,.66,1.62,2,1.62C449,70.25,450.26,69.29,450.26,67.81Z" fill="#fff"/><path d="M459.7,68.3V60.61h-2.08v-4h2.08V53h5.91v3.6H469v4h-3.4v7.13c0,1.26.62,1.82,1.75,1.82a4.45,4.45,0,0,0,1.68-.3v4.49a12.28,12.28,0,0,1-3.27.5C461.88,74.25,459.7,72.36,459.7,68.3Z" fill="#fff"/><path d="M470.32,65.43v-.26c0-5.55,4.13-9.05,9.34-9.05,4.72,0,8.78,2.71,8.78,8.92v1.55H476.3c.16,2.28,1.48,3.6,3.6,3.6,1.94,0,2.77-.9,3-2h5.54c-.52,3.89-3.53,6.11-8.74,6.11C474.28,74.25,470.32,71.08,470.32,65.43Zm12.38-2.18c-.1-2.08-1.12-3.23-3-3.23s-3,1.15-3.3,3.23Z" fill="#fff"/><path d="M490.09,70.88a3.3,3.3,0,0,1,3.37-3.34,3.34,3.34,0,1,1,0,6.67A3.29,3.29,0,0,1,490.09,70.88Z" fill="#fff"/></g></g></g></svg>