<svg xmlns="http://www.w3.org/2000/svg" viewBox="0 0 728 90"><title>legal</title><g id="Layer_2" data-name="Layer 2"><g id="Rect"><rect width="728" height="90" fill="none"/></g><g id="Disclaimer"><g id="Optional_loan_from_Axos_Bank_within_minutes_of_filing._Not_your" data-name="Optional loan from Axos Bank within minutes of filing. Not your"><path d="M120.5,82.78v-.07a3.16,3.16,0,1,1,6.31,0v.07a3.16,3.16,0,1,1-6.31,0Zm5.5,0v-.07a2.36,2.36,0,1,0-4.69,0v.07a2.42,2.42,0,0,0,2.37,2.62A2.35,2.35,0,0,0,126,82.75Z" fill="#fff"/><path d="M127.92,81.25h.75V82a1.93,1.93,0,0,1,1.59-.87,2.14,2.14,0,0,1,2.14,2.37v.07A2.17,2.17,0,0,1,130.26,86a1.78,1.78,0,0,1-1.59-.86V87.6h-.75Zm3.71,2.39v-.07c0-1.19-.66-1.78-1.45-1.78s-1.54.58-1.54,1.78v.07c0,1.21.63,1.78,1.55,1.78S131.63,84.79,131.63,83.64Z" fill="#fff"/><path d="M133.59,84.78v-2.9h-.67v-.63h.67V80.18h.75v1.07h1.1v.63h-1.1v2.83c0,.46.2.68.58.68a1.59,1.59,0,0,0,.58-.1v.63a1.85,1.85,0,0,1-.64.1A1.14,1.14,0,0,1,133.59,84.78Z" fill="#fff"/><path d="M136.37,79.77a.5.5,0,0,1,.5-.49.49.49,0,0,1,.49.49.5.5,0,0,1-.49.5A.51.51,0,0,1,136.37,79.77Zm.14,1.48h.74V86h-.74Z" fill="#fff"/><path d="M138.3,83.64v-.07a2.31,2.31,0,1,1,4.62,0v.07a2.31,2.31,0,1,1-4.62,0Zm3.85,0v-.06c0-1.09-.6-1.79-1.54-1.79a1.56,1.56,0,0,0-1.54,1.78v.07c0,1.07.59,1.78,1.54,1.78S142.15,84.71,142.15,83.64Z" fill="#fff"/><path d="M144,81.25h.75V82a1.59,1.59,0,0,1,1.51-.83c1,0,1.66.53,1.66,1.9V86h-.75V83c0-.83-.35-1.19-1.11-1.19a1.23,1.23,0,0,0-1.31,1.28V86H144Z" fill="#fff"/><path d="M148.81,84.65c0-1.09,1.15-1.46,2.36-1.46h.67v-.34c0-.75-.29-1.06-1-1.06s-1,.27-1.08.84H149a1.64,1.64,0,0,1,1.86-1.46,1.52,1.52,0,0,1,1.72,1.68V86h-.75v-.6a1.69,1.69,0,0,1-1.46.68C149.5,86,148.81,85.62,148.81,84.65Zm3-.34v-.59h-.65c-.94,0-1.63.24-1.63.93,0,.49.23.79.89.79S151.84,85,151.84,84.31Z" fill="#fff"/><path d="M153.94,79h.75v7h-.75Z" fill="#fff"/><path d="M158.36,79h.75v7h-.75Z" fill="#fff"/><path d="M160.16,83.64v-.07a2.32,2.32,0,1,1,4.63,0v.07a2.32,2.32,0,1,1-4.63,0Zm3.85,0v-.06c0-1.09-.6-1.79-1.54-1.79a1.56,1.56,0,0,0-1.54,1.78v.07c0,1.07.59,1.78,1.54,1.78S164,84.71,164,83.64Z" fill="#fff"/><path d="M165.42,84.65c0-1.09,1.15-1.46,2.36-1.46h.68v-.34c0-.75-.29-1.06-1-1.06s-1,.27-1.08.84h-.75a1.64,1.64,0,0,1,1.86-1.46,1.52,1.52,0,0,1,1.72,1.68V86h-.74v-.6A1.71,1.71,0,0,1,167,86C166.12,86,165.42,85.62,165.42,84.65Zm3-.34v-.59h-.65c-.95,0-1.64.24-1.64.93,0,.49.23.79.89.79S168.46,85,168.46,84.31Z" fill="#fff"/><path d="M170.53,81.25h.75V82a1.61,1.61,0,0,1,1.51-.83c1,0,1.66.53,1.66,1.9V86h-.75V83c0-.83-.35-1.19-1.1-1.19a1.24,1.24,0,0,0-1.32,1.28V86h-.75Z" fill="#fff"/><path d="M178.19,81.88h-.67v-.63h.67v-.77c0-1,.47-1.51,1.41-1.51a1.6,1.6,0,0,1,.56.09v.63a1.62,1.62,0,0,0-.54-.1c-.48,0-.68.33-.68.81v.85h1.15v.63h-1.15V86h-.75Z" fill="#fff"/><path d="M181,81.25h.75v.84a1.62,1.62,0,0,1,1.55-.92v.7c-.95,0-1.55.34-1.55,1.5V86H181Z" fill="#fff"/><path d="M183.77,83.64v-.07a2.32,2.32,0,1,1,4.63,0v.07a2.32,2.32,0,1,1-4.63,0Zm3.86,0v-.06c0-1.09-.61-1.79-1.54-1.79s-1.54.7-1.54,1.78v.07c0,1.07.58,1.78,1.54,1.78A1.57,1.57,0,0,0,187.63,83.64Z" fill="#fff"/><path d="M189.43,81.25h.74V82a1.54,1.54,0,0,1,1.41-.8,1.36,1.36,0,0,1,1.37.88,1.84,1.84,0,0,1,1.62-.88c.84,0,1.58.5,1.58,1.87V86h-.75V83c0-.83-.35-1.17-1-1.17a1.2,1.2,0,0,0-1.24,1.26V86h-.75V83c0-.83-.35-1.17-1-1.17a1.2,1.2,0,0,0-1.25,1.26V86h-.74Z" fill="#fff"/><path d="M201.51,79.52h1L204.72,86h-.78l-.63-1.86h-2.65L200,86h-.74Zm-.64,4h2.24L202,80.17Z" fill="#fff"/><path d="M206.84,83.54l-1.57-2.29h.87L207.29,83l1.14-1.71h.81l-1.55,2.23L209.41,86h-.89l-1.27-1.9L206,86h-.8Z" fill="#fff"/><path d="M209.7,83.64v-.07a2.32,2.32,0,1,1,4.63,0v.07a2.32,2.32,0,1,1-4.63,0Zm3.86,0v-.06c0-1.09-.61-1.79-1.54-1.79s-1.54.7-1.54,1.78v.07c0,1.07.58,1.78,1.54,1.78A1.57,1.57,0,0,0,213.56,83.64Z" fill="#fff"/><path d="M215,84.51h.73c.05.56.35.91,1.1.91s1-.25,1-.75-.37-.66-1.1-.79c-1.22-.23-1.64-.57-1.64-1.39a1.47,1.47,0,0,1,1.6-1.32,1.51,1.51,0,0,1,1.7,1.36h-.72c-.11-.52-.4-.74-1-.74s-.89.27-.89.67.23.6,1.09.75,1.66.4,1.66,1.4c0,.85-.58,1.43-1.73,1.43S215,85.47,215,84.51Z" fill="#fff"/><path d="M221.84,79.52h1.94c1.2,0,2.07.4,2.07,1.67v0a1.31,1.31,0,0,1-1,1.36,1.41,1.41,0,0,1,1.28,1.54v0c0,1.21-.82,1.8-2.11,1.8h-2.21Zm1.94,2.81c.94,0,1.3-.34,1.3-1.14v0c0-.73-.42-1-1.32-1h-1.15v2.2Zm.25,3c.94,0,1.37-.41,1.37-1.19v0c0-.79-.44-1.17-1.48-1.17h-1.31v2.4Z" fill="#fff"/><path d="M226.86,84.65c0-1.09,1.16-1.46,2.36-1.46h.68v-.34c0-.75-.29-1.06-1-1.06s-1,.27-1.08.84h-.75a1.65,1.65,0,0,1,1.87-1.46,1.52,1.52,0,0,1,1.72,1.68V86h-.75v-.6a1.71,1.71,0,0,1-1.47.68C227.56,86,226.86,85.62,226.86,84.65Zm3-.34v-.59h-.65c-.94,0-1.64.24-1.64.93,0,.49.24.79.89.79C229.3,85.44,229.9,85,229.9,84.31Z" fill="#fff"/><path d="M232,81.25h.74V82a1.61,1.61,0,0,1,1.52-.83c1,0,1.65.53,1.65,1.9V86h-.74V83c0-.83-.36-1.19-1.11-1.19a1.24,1.24,0,0,0-1.32,1.28V86H232Z" fill="#fff"/><path d="M237.22,79H238v4.42l1.95-2.17h.88l-2,2.19L241,86h-.91L238,83.52V86h-.75Z" fill="#fff"/><path d="M243.48,81.25h.81l1.1,3.79,1.14-3.79h.65L248.25,85l1.11-3.79h.76L248.66,86h-.83l-1-3.53L245.75,86h-.82Z" fill="#fff"/><path d="M250.88,79.77a.49.49,0,0,1,.49-.49.5.5,0,0,1,.5.49.51.51,0,0,1-.5.5A.5.5,0,0,1,250.88,79.77Zm.13,1.48h.75V86H251Z" fill="#fff"/><path d="M253.32,84.78v-2.9h-.68v-.63h.68V80.18h.74v1.07h1.1v.63h-1.1v2.83c0,.46.21.68.59.68a1.57,1.57,0,0,0,.57-.1v.63a1.85,1.85,0,0,1-.64.1A1.14,1.14,0,0,1,253.32,84.78Z" fill="#fff"/><path d="M256.21,79H257v3a1.61,1.61,0,0,1,1.51-.83c1,0,1.66.53,1.66,1.9V86h-.75V83c0-.83-.35-1.19-1.11-1.19A1.23,1.23,0,0,0,257,83.1V86h-.75Z" fill="#fff"/><path d="M261.34,79.77a.5.5,0,0,1,.5-.49.49.49,0,0,1,.49.49.5.5,0,0,1-.49.5A.51.51,0,0,1,261.34,79.77Zm.14,1.48h.75V86h-.75Z" fill="#fff"/><path d="M263.62,81.25h.75V82a1.6,1.6,0,0,1,1.51-.83c1,0,1.66.53,1.66,1.9V86h-.75V83c0-.83-.35-1.19-1.11-1.19a1.23,1.23,0,0,0-1.31,1.28V86h-.75Z" fill="#fff"/><path d="M271.12,81.25h.74V82a1.54,1.54,0,0,1,1.41-.8,1.38,1.38,0,0,1,1.38.88,1.81,1.81,0,0,1,1.61-.88c.84,0,1.58.5,1.58,1.87V86h-.74V83c0-.83-.36-1.17-1-1.17a1.2,1.2,0,0,0-1.25,1.26V86h-.74V83c0-.83-.36-1.17-1-1.17a1.2,1.2,0,0,0-1.25,1.26V86h-.74Z" fill="#fff"/><path d="M279.06,79.77a.49.49,0,0,1,.49-.49.5.5,0,0,1,.5.49.51.51,0,0,1-.5.5A.5.5,0,0,1,279.06,79.77Zm.13,1.48h.75V86h-.75Z" fill="#fff"/><path d="M281.33,81.25h.75V82a1.61,1.61,0,0,1,1.51-.83c1,0,1.66.53,1.66,1.9V86h-.75V83c0-.83-.35-1.19-1.11-1.19a1.23,1.23,0,0,0-1.31,1.28V86h-.75Z" fill="#fff"/><path d="M286.53,84.23v-3h.75v2.94c0,.83.35,1.2,1.09,1.2a1.24,1.24,0,0,0,1.3-1.29V81.25h.74V86h-.74v-.75a1.62,1.62,0,0,1-1.5.83C287.24,86,286.53,85.52,286.53,84.23Z" fill="#fff"/><path d="M292,84.78v-2.9h-.67v-.63H292V80.18h.75v1.07h1.1v.63h-1.1v2.83c0,.46.21.68.58.68a1.59,1.59,0,0,0,.58-.1v.63a1.85,1.85,0,0,1-.64.1A1.14,1.14,0,0,1,292,84.78Z" fill="#fff"/><path d="M294.5,83.65v-.07a2.21,2.21,0,0,1,2.2-2.41,2.06,2.06,0,0,1,2.12,2.34v.24h-3.55c0,1.07.55,1.67,1.52,1.67.72,0,1.15-.27,1.25-.82h.74a1.81,1.81,0,0,1-2,1.44A2.21,2.21,0,0,1,294.5,83.65Zm3.55-.5c-.07-1-.57-1.36-1.35-1.36a1.41,1.41,0,0,0-1.4,1.36Z" fill="#fff"/><path d="M299.48,84.51h.73c.06.56.35.91,1.11.91s1-.25,1-.75-.37-.66-1.1-.79c-1.23-.23-1.64-.57-1.64-1.39a1.47,1.47,0,0,1,1.59-1.32,1.51,1.51,0,0,1,1.71,1.36h-.72c-.11-.52-.4-.74-1-.74s-.9.27-.9.67.24.6,1.1.75,1.66.4,1.66,1.4c0,.85-.59,1.43-1.73,1.43S299.53,85.47,299.48,84.51Z" fill="#fff"/><path d="M306,83.64v-.07a2.31,2.31,0,1,1,4.62,0v.07a2.31,2.31,0,1,1-4.62,0Zm3.85,0v-.06c0-1.09-.6-1.79-1.54-1.79s-1.54.7-1.54,1.78v.07c0,1.07.58,1.78,1.54,1.78A1.57,1.57,0,0,0,309.81,83.64Z" fill="#fff"/><path d="M311.77,81.88h-.68v-.63h.68v-.77c0-1,.47-1.51,1.4-1.51a1.57,1.57,0,0,1,.56.09v.63a1.51,1.51,0,0,0-.53-.1c-.49,0-.68.33-.68.81v.85h1.15v.63h-1.15V86h-.75Z" fill="#fff"/><path d="M317,81.88h-.68v-.63H317v-.77c0-1,.47-1.51,1.4-1.51a1.57,1.57,0,0,1,.56.09v.63a1.51,1.51,0,0,0-.53-.1c-.49,0-.68.33-.68.81v.85h1.15v.63h-1.15V86H317Z" fill="#fff"/><path d="M319.7,79.77a.49.49,0,0,1,.49-.49.5.5,0,0,1,.5.49.51.51,0,0,1-.5.5A.5.5,0,0,1,319.7,79.77Zm.13,1.48h.75V86h-.75Z" fill="#fff"/><path d="M322,79h.76v7H322Z" fill="#fff"/><path d="M324,79.77a.49.49,0,0,1,.49-.49.5.5,0,0,1,.5.49.51.51,0,0,1-.5.5A.5.5,0,0,1,324,79.77Zm.13,1.48h.75V86h-.75Z" fill="#fff"/><path d="M326.3,81.25h.75V82a1.61,1.61,0,0,1,1.51-.83c1,0,1.66.53,1.66,1.9V86h-.75V83c0-.83-.35-1.19-1.1-1.19a1.24,1.24,0,0,0-1.32,1.28V86h-.75Z" fill="#fff"/><path d="M331.3,86.23h.76c.11.54.56.82,1.36.82a1.33,1.33,0,0,0,1.52-1.45v-.69a2,2,0,0,1-1.6.89,2.12,2.12,0,0,1-2.14-2.23v-.06a2.23,2.23,0,0,1,2.2-2.34,1.7,1.7,0,0,1,1.54.83v-.75h.74v4.39a2,2,0,0,1-2.25,2C332,87.68,331.43,87,331.3,86.23ZM335,83.52v-.07a1.45,1.45,0,0,0-1.49-1.66,1.5,1.5,0,0,0-1.5,1.68v.07a1.49,1.49,0,0,0,1.45,1.64A1.51,1.51,0,0,0,335,83.52Z" fill="#fff"/><path d="M337,85.43a.58.58,0,1,1,.57.57A.57.57,0,0,1,337,85.43Z" fill="#fff"/><path d="M341.77,79.52h1l3.14,5.32V79.52h.74V86h-.9l-3.25-5.52V86h-.74Z" fill="#fff"/><path d="M347.74,83.64v-.07a2.32,2.32,0,1,1,4.63,0v.07a2.32,2.32,0,1,1-4.63,0Zm3.86,0v-.06c0-1.09-.61-1.79-1.54-1.79s-1.54.7-1.54,1.78v.07c0,1.07.58,1.78,1.54,1.78A1.57,1.57,0,0,0,351.6,83.64Z" fill="#fff"/><path d="M353.56,84.78v-2.9h-.68v-.63h.68V80.18h.74v1.07h1.1v.63h-1.1v2.83c0,.46.21.68.59.68a1.57,1.57,0,0,0,.57-.1v.63a1.82,1.82,0,0,1-.63.1A1.14,1.14,0,0,1,353.56,84.78Z" fill="#fff"/><path d="M360,85.47l-1.85-4.22h.8l1.44,3.37,1.31-3.37h.76l-2.6,6.35h-.75Z" fill="#fff"/><path d="M362.84,83.64v-.07a2.32,2.32,0,1,1,4.63,0v.07a2.32,2.32,0,1,1-4.63,0Zm3.86,0v-.06c0-1.09-.61-1.79-1.54-1.79s-1.54.7-1.54,1.78v.07c0,1.07.58,1.78,1.54,1.78A1.57,1.57,0,0,0,366.7,83.64Z" fill="#fff"/><path d="M368.45,84.23v-3h.75v2.94c0,.83.35,1.2,1.09,1.2a1.24,1.24,0,0,0,1.29-1.29V81.25h.75V86h-.75v-.75a1.59,1.59,0,0,1-1.49.83C369.15,86,368.45,85.52,368.45,84.23Z" fill="#fff"/><path d="M373.71,81.25h.74v.84a1.64,1.64,0,0,1,1.55-.92v.7c-.94,0-1.55.34-1.55,1.5V86h-.74Z" fill="#fff"/><path d="M379.37,84.78v-2.9h-.68v-.63h.68V80.18h.75v1.07h1.09v.63h-1.09v2.83c0,.46.2.68.58.68a1.67,1.67,0,0,0,.58-.1v.63a1.94,1.94,0,0,1-.64.1A1.14,1.14,0,0,1,379.37,84.78Z" fill="#fff"/><path d="M381.92,84.65c0-1.09,1.16-1.46,2.36-1.46H385v-.34c0-.75-.29-1.06-1-1.06s-1,.27-1.08.84h-.75A1.65,1.65,0,0,1,384,81.17a1.51,1.51,0,0,1,1.71,1.68V86H385v-.6a1.71,1.71,0,0,1-1.47.68C382.62,86,381.92,85.62,381.92,84.65Zm3-.34v-.59h-.65c-.95,0-1.64.24-1.64.93,0,.49.23.79.89.79S385,85,385,84.31Z" fill="#fff"/><path d="M388.21,83.54l-1.57-2.29h.87L388.67,83l1.14-1.71h.81l-1.56,2.23L390.78,86h-.88l-1.27-1.9-1.3,1.9h-.8Z" fill="#fff"/><path d="M393.9,81.25h.75v.84a1.63,1.63,0,0,1,1.55-.92v.7c-.95,0-1.55.34-1.55,1.5V86h-.75Z" fill="#fff"/><path d="M396.67,83.65v-.07a2.21,2.21,0,0,1,2.2-2.41A2.06,2.06,0,0,1,401,83.51v.24h-3.55c0,1.07.55,1.67,1.51,1.67.73,0,1.15-.27,1.25-.82H401a1.82,1.82,0,0,1-2,1.44A2.21,2.21,0,0,1,396.67,83.65Zm3.55-.5c-.07-1-.57-1.36-1.35-1.36a1.41,1.41,0,0,0-1.4,1.36Z" fill="#fff"/><path d="M402.16,81.88h-.68v-.63h.68v-.77c0-1,.46-1.51,1.4-1.51a1.6,1.6,0,0,1,.56.09v.63a1.61,1.61,0,0,0-.53-.1c-.49,0-.69.33-.69.81v.85h1.15v.63H402.9V86h-.74Z" fill="#fff"/><path d="M404.93,84.23v-3h.74v2.94c0,.83.36,1.2,1.09,1.2a1.24,1.24,0,0,0,1.3-1.29V81.25h.75V86h-.75v-.75a1.61,1.61,0,0,1-1.49.83C405.63,86,404.93,85.52,404.93,84.23Z" fill="#fff"/><path d="M410.18,81.25h.75V82a1.61,1.61,0,0,1,1.51-.83c1,0,1.66.53,1.66,1.9V86h-.75V83c0-.83-.35-1.19-1.1-1.19a1.24,1.24,0,0,0-1.32,1.28V86h-.75Z" fill="#fff"/><path d="M415.08,83.7v-.08a2.23,2.23,0,0,1,2.2-2.45,1.72,1.72,0,0,1,1.54.83V79h.74v7h-.74v-.81a2,2,0,0,1-1.62.89A2.1,2.1,0,0,1,415.08,83.7Zm3.76-.07v-.07c0-1.2-.57-1.77-1.49-1.77s-1.5.66-1.5,1.8v.07c0,1.19.64,1.76,1.44,1.76S418.84,84.84,418.84,83.63Z" fill="#fff"/><path d="M420.88,85.43a.58.58,0,1,1,.57.57A.57.57,0,0,1,420.88,85.43Z" fill="#fff"/></g></g></g></svg>