<svg xmlns="http://www.w3.org/2000/svg" viewBox="0 0 160 600"><title>H4</title><g id="Layer_2" data-name="Layer 2"><g id="Artboard_4" data-name="Artboard 4" style="isolation:isolate"><g id="headline1"><g id="Drop_off_your_docs_and_a_tax_pro_does_the_rest." data-name="Drop  off your docs and a tax pro does the rest."><path d="M20.81,100.72h7.73c7.56,0,11.4,3.77,11.4,10.38v.24C39.94,118,36,122,28.51,122h-7.7Zm7.52,16.57c3.63,0,5.24-1.91,5.24-5.86v-.24c0-4-1.61-5.77-5.3-5.77H26.94v11.87Z" fill="#fff"/><path d="M42,106.43h5.32v3.09a4.91,4.91,0,0,1,5-3.3v5c-3.24-.09-5,.92-5,3.42V122H42Z" fill="#fff"/><path d="M53.29,114.4v-.23c0-5,3.72-8.16,8.54-8.16s8.48,3.07,8.48,8v.23c0,5.06-3.72,8.1-8.51,8.1S53.29,119.43,53.29,114.4Zm11.61-.09v-.23c0-2.62-1.05-4.08-3.07-4.08s-3.09,1.4-3.09,4v.23c0,2.68,1,4.14,3.09,4.14S64.9,116.9,64.9,114.31Z" fill="#fff"/><path d="M72.18,106.43h5.33v2.32A5.49,5.49,0,0,1,82.36,106c3.63,0,6.58,2.74,6.58,8.07v.23c0,5.36-3,8-6.61,8a5.13,5.13,0,0,1-4.82-2.65v7.5H72.18Zm11.34,7.88v-.23c0-2.74-1.19-4-3.06-4s-3.1,1.4-3.1,4v.23c0,2.65,1.16,4,3.1,4S83.52,116.87,83.52,114.31Z" fill="#fff"/><path d="M19.5,146.15v-.23c0-5,3.72-8.16,8.54-8.16s8.48,3.07,8.48,8V146c0,5.06-3.72,8.1-8.51,8.1S19.5,151.18,19.5,146.15Zm11.6-.09v-.23c0-2.62-1-4.08-3.06-4.08s-3.1,1.4-3.1,4V146c0,2.68,1,4.14,3.1,4.14S31.1,148.65,31.1,146.06Z" fill="#fff"/><path d="M39.19,141.81h-2v-3.63h2V137c0-3.87,2.38-5.68,6.07-5.68a8.89,8.89,0,0,1,2.38.29v3.9a4.65,4.65,0,0,0-1.43-.21,1.56,1.56,0,0,0-1.72,1.7v1.19H49v-1.37c0-3.87,2.44-5.71,6.1-5.71a9.89,9.89,0,0,1,2.44.32v3.9a4.86,4.86,0,0,0-1.46-.21,1.55,1.55,0,0,0-1.75,1.7v1.37h3.15v3.63H54.34v11.93H49V141.81H44.49v11.93h-5.3Z" fill="#fff"/><path d="M69.54,152.16l-6.22-14h5.77l3.21,8.3,3-8.3h5.09L72,159H67Z" fill="#fff"/><path d="M80.07,146.15v-.23c0-5,3.72-8.16,8.54-8.16s8.48,3.07,8.48,8V146c0,5.06-3.72,8.1-8.51,8.1S80.07,151.18,80.07,146.15Zm11.6-.09v-.23c0-2.62-1-4.08-3.06-4.08s-3.1,1.4-3.1,4V146c0,2.68,1,4.14,3.1,4.14S91.67,148.65,91.67,146.06Z" fill="#fff"/><path d="M98.84,148.33V138.18h5.32v9.28c0,1.76.69,2.62,2.21,2.62s2.64-1,2.64-3v-8.95h5.33v15.56H109v-2.41a5.1,5.1,0,0,1-4.93,2.77C101.07,154.1,98.84,152.25,98.84,148.33Z" fill="#fff"/><path d="M117,138.18h5.33v3.09a4.9,4.9,0,0,1,5-3.3v5c-3.24-.09-5,.92-5,3.42v7.38H117Z" fill="#fff"/><path d="M19.56,177.87v-.23c0-5.3,2.91-8.13,6.6-8.13A5,5,0,0,1,31,172.13v-9h5.33v22.41H31V183a5.24,5.24,0,0,1-4.85,2.89C22.5,185.85,19.56,183.26,19.56,177.87Zm11.54-.09v-.23c0-2.62-1.1-4-3.06-4S25,174.87,25,177.58v.23c0,2.62,1.16,4,3,4S31.1,180.43,31.1,177.78Z" fill="#fff"/><path d="M38.15,177.9v-.23c0-5,3.72-8.16,8.54-8.16s8.48,3.07,8.48,8v.23c0,5.06-3.72,8.1-8.51,8.1S38.15,182.93,38.15,177.9Zm11.6-.09v-.23c0-2.62-1-4.08-3.06-4.08s-3.1,1.4-3.1,4v.23c0,2.68,1,4.14,3.1,4.14S49.75,180.4,49.75,177.81Z" fill="#fff"/><path d="M56.21,177.9v-.23c0-5.18,3.72-8.16,8.3-8.16,3.81,0,7.32,1.67,7.62,6.4h-5a2.3,2.3,0,0,0-2.5-2.26c-1.88,0-3,1.34-3,4v.23c0,2.71,1,4.11,3.07,4.11a2.59,2.59,0,0,0,2.71-2.59h4.79c-.15,3.93-2.8,6.49-7.83,6.49C59.75,185.85,56.21,183.14,56.21,177.9Z" fill="#fff"/><path d="M73.1,180.55H78c.18,1.13.69,1.76,2.21,1.76,1.31,0,1.9-.51,1.9-1.28s-.74-1.1-2.89-1.4c-4.16-.54-5.92-1.76-5.92-5,0-3.45,3.07-5.12,6.67-5.12,3.84,0,6.51,1.31,6.87,5H82A1.74,1.74,0,0,0,80,173c-1.16,0-1.76.51-1.76,1.22s.72,1,2.62,1.28c4.31.54,6.4,1.67,6.4,5,0,3.69-2.74,5.36-7,5.36S73.22,184,73.1,180.55Z" fill="#fff"/><path d="M19.44,212.93c0-3.66,3.09-5.09,8.27-5.09H29.2v-.36c0-1.49-.36-2.47-2.06-2.47A1.91,1.91,0,0,0,25,206.86H20c.24-3.75,3.19-5.6,7.44-5.6s7,1.76,7,5.89v10.09H29.32v-1.81a5.13,5.13,0,0,1-4.62,2.17C21.91,217.6,19.44,216.23,19.44,212.93Zm9.76-1.13v-1H27.8c-2.14,0-3.1.42-3.1,1.7,0,.89.6,1.46,1.85,1.46C28.07,214,29.2,213.13,29.2,211.8Z" fill="#fff"/><path d="M37.08,201.68H42.4v2.5a5.5,5.5,0,0,1,5.12-2.92c3,0,5.09,1.88,5.09,5.86v10.12H47.28v-9.05c0-1.75-.68-2.61-2.23-2.61s-2.65.95-2.65,2.94v8.72H37.08Z" fill="#fff"/><path d="M54.42,209.62v-.23c0-5.3,2.92-8.13,6.61-8.13a5,5,0,0,1,4.79,2.62v-9h5.32v22.41H65.82v-2.53A5.25,5.25,0,0,1,61,217.6C57.37,217.6,54.42,215,54.42,209.62ZM66,209.53v-.23c0-2.62-1.1-4-3.07-4s-3.06,1.34-3.06,4.05v.23c0,2.62,1.16,4,3,4S66,212.18,66,209.53Z" fill="#fff"/><path d="M78.37,212.93c0-3.66,3.09-5.09,8.27-5.09h1.49v-.36c0-1.49-.36-2.47-2-2.47A1.92,1.92,0,0,0,84,206.86H79c.23-3.75,3.18-5.6,7.43-5.6s7,1.76,7,5.89v10.09H88.25v-1.81a5.11,5.11,0,0,1-4.61,2.17C80.84,217.6,78.37,216.23,78.37,212.93Zm9.76-1.13v-1h-1.4c-2.14,0-3.09.42-3.09,1.7,0,.89.59,1.46,1.84,1.46C87,214,88.13,213.13,88.13,211.8Z" fill="#fff"/><path d="M21,244v-6.93H19.17v-3.63H21v-3.24h5.33v3.24h3.06v3.63H26.37v6.43A1.42,1.42,0,0,0,28,245.12a4,4,0,0,0,1.51-.27v4.05a11,11,0,0,1-2.94.45C23,249.35,21,247.65,21,244Z" fill="#fff"/><path d="M30.62,244.68c0-3.66,3.1-5.09,8.27-5.09h1.49v-.36c0-1.49-.36-2.47-2.05-2.47a1.91,1.91,0,0,0-2.11,1.85h-5c.24-3.75,3.18-5.6,7.44-5.6s7,1.76,7,5.89V249H40.5v-1.81a5.1,5.1,0,0,1-4.61,2.17C33.09,249.35,30.62,248,30.62,244.68Zm9.76-1.13v-1H39c-2.14,0-3.09.42-3.09,1.7,0,.89.59,1.46,1.84,1.46C39.25,245.75,40.38,244.88,40.38,243.55Z" fill="#fff"/><path d="M52.19,241.08l-4.85-7.65h6.13l2.41,4.1,2.35-4.1h5.48l-4.91,7.23L64.18,249H58.05l-2.76-4.64L52.46,249H47Z" fill="#fff"/><path d="M71.08,233.43h5.33v2.32A5.49,5.49,0,0,1,81.26,233c3.63,0,6.57,2.74,6.57,8.07v.23c0,5.36-2.94,8-6.6,8a5.13,5.13,0,0,1-4.82-2.65v7.5H71.08Zm11.34,7.88v-.23c0-2.74-1.19-4.05-3.07-4.05s-3.09,1.4-3.09,4v.23c0,2.65,1.16,4,3.09,4S82.42,243.87,82.42,241.31Z" fill="#fff"/><path d="M89.76,233.43h5.33v3.09a4.9,4.9,0,0,1,5-3.3v5c-3.24-.09-5,.92-5,3.42V249H89.76Z" fill="#fff"/><path d="M101.07,241.4v-.23c0-5,3.72-8.16,8.54-8.16s8.48,3.07,8.48,8v.23c0,5.06-3.72,8.1-8.51,8.1S101.07,246.43,101.07,241.4Zm11.6-.09v-.23c0-2.62-1-4.08-3.06-4.08s-3.1,1.4-3.1,4v.23c0,2.68,1,4.14,3.1,4.14S112.67,243.9,112.67,241.31Z" fill="#fff"/><path d="M19.56,273.12v-.23c0-5.3,2.91-8.13,6.6-8.13A5,5,0,0,1,31,267.38v-9.05h5.33v22.41H31v-2.53a5.24,5.24,0,0,1-4.85,2.89C22.5,281.1,19.56,278.51,19.56,273.12ZM31.1,273v-.23c0-2.62-1.1-4-3.06-4S25,270.12,25,272.83v.23c0,2.62,1.16,4,3,4S31.1,275.68,31.1,273Z" fill="#fff"/><path d="M38.15,273.15v-.23c0-5,3.72-8.16,8.54-8.16s8.48,3.07,8.48,8V273c0,5.06-3.72,8.1-8.51,8.1S38.15,278.18,38.15,273.15Zm11.6-.09v-.23c0-2.62-1-4.08-3.06-4.08s-3.1,1.4-3.1,4V273c0,2.68,1,4.14,3.1,4.14S49.75,275.65,49.75,273.06Z" fill="#fff"/><path d="M56.21,273.15v-.23c0-5,3.72-8.16,8.42-8.16,4.25,0,7.91,2.44,7.91,8v1.39h-11c.15,2.06,1.34,3.25,3.25,3.25,1.75,0,2.5-.81,2.7-1.85h5c-.47,3.51-3.18,5.51-7.88,5.51C59.78,281.1,56.21,278.24,56.21,273.15Zm11.16-2c-.09-1.88-1-2.92-2.74-2.92s-2.71,1-3,2.92Z" fill="#fff"/><path d="M73.49,275.8H78.4c.18,1.13.69,1.76,2.2,1.76,1.31,0,1.91-.51,1.91-1.28s-.75-1.1-2.89-1.4c-4.16-.54-5.92-1.76-5.92-5,0-3.45,3.06-5.12,6.67-5.12,3.83,0,6.51,1.31,6.87,5H82.42a1.75,1.75,0,0,0-2-1.55c-1.16,0-1.75.51-1.75,1.22s.71,1,2.62,1.28c4.31.54,6.39,1.67,6.39,5,0,3.69-2.73,5.36-7.05,5.36S73.61,279.25,73.49,275.8Z" fill="#fff"/><path d="M21,307.49v-6.93H19.17v-3.63H21v-3.24h5.33v3.24h3.06v3.63H26.37V307A1.42,1.42,0,0,0,28,308.62a4,4,0,0,0,1.51-.27v4a11,11,0,0,1-2.94.45C23,312.85,21,311.15,21,307.49Z" fill="#fff"/><path d="M31.46,290.08h5.32v9.35a5.49,5.49,0,0,1,5.12-2.92c3,0,5.09,1.88,5.09,5.86v10.12H41.66v-9c0-1.76-.68-2.62-2.23-2.62s-2.65.95-2.65,2.94v8.72H31.46Z" fill="#fff"/><path d="M48.74,304.9v-.23c0-5,3.72-8.16,8.42-8.16,4.26,0,7.92,2.44,7.92,8v1.39H54.13c.14,2.06,1.33,3.25,3.24,3.25,1.75,0,2.5-.81,2.71-1.85h5c-.48,3.51-3.19,5.51-7.89,5.51C52.31,312.85,48.74,310,48.74,304.9Zm11.16-2c-.09-1.88-1-2.92-2.74-2.92s-2.71,1-3,2.92Z" fill="#fff"/><path d="M72.33,296.93h5.33V300a4.9,4.9,0,0,1,5-3.3v5c-3.25-.09-5,.92-5,3.42v7.38H72.33Z" fill="#fff"/><path d="M83.64,304.9v-.23c0-5,3.72-8.16,8.42-8.16,4.25,0,7.91,2.44,7.91,8v1.39H89c.15,2.06,1.34,3.25,3.25,3.25,1.75,0,2.49-.81,2.7-1.85h5c-.47,3.51-3.18,5.51-7.88,5.51C87.21,312.85,83.64,310,83.64,304.9Zm11.15-2c-.08-1.88-1-2.92-2.73-2.92s-2.71,1-3,2.92Z" fill="#fff"/><path d="M100.92,307.55h4.91c.18,1.13.68,1.76,2.2,1.76,1.31,0,1.91-.51,1.91-1.28s-.75-1.1-2.89-1.4c-4.17-.54-5.92-1.76-5.92-5,0-3.45,3.06-5.12,6.66-5.12,3.84,0,6.52,1.31,6.88,5h-4.82a1.75,1.75,0,0,0-2-1.55c-1.16,0-1.75.51-1.75,1.22s.71,1,2.62,1.28c4.31.54,6.39,1.67,6.39,5,0,3.69-2.73,5.36-7,5.36S101,311,100.92,307.55Z" fill="#fff"/><path d="M117.55,307.49v-6.93h-1.87v-3.63h1.87v-3.24h5.33v3.24h3.06v3.63h-3.06V307c0,1.13.56,1.63,1.57,1.63a4,4,0,0,0,1.52-.27v4a11,11,0,0,1-2.94.45C119.51,312.85,117.55,311.15,117.55,307.49Z" fill="#fff"/><path d="M127.75,309.81a3,3,0,0,1,3-3,3,3,0,1,1,0,6A3,3,0,0,1,127.75,309.81Z" fill="#fff"/><rect width="160" height="600" fill="none"/></g></g></g></g></svg>