<svg xmlns="http://www.w3.org/2000/svg" viewBox="0 0 300 600"><title>134</title><g id="Layer_2" data-name="Layer 2"><g id="Rect"><rect width="300" height="600" fill="none"/></g><g id="_H_R_Block_Free_Online_supports_more_forms_and_deductions_a" data-name="&quot;H&amp;R Block Free [Online] supports more forms and  deductions… a"><path d="M19.48,94.87h6l-.75,9.9H20.2Zm7.63,0h6.08l-.76,9.9H27.86Z" fill="#fff"/><path d="M37.12,94.87h7.41v9.83H53V94.87h7.38v25.74H53V110.46H44.53v10.15H37.12Z" fill="#fff"/><path d="M85.6,115.35l4.29,5.26H81.5L80,118.74A10.28,10.28,0,0,1,73,121c-5.47,0-9-2.88-9-7.78,0-3.31,2-5.75,5.65-7.48a8.21,8.21,0,0,1-1.59-4.5c0-4.39,3.75-6.73,8.28-6.73,4.11,0,7.82,2,7.82,6,0,2.81-1.66,4.86-5.15,6.37l3.24,4,1.87-3.67h5.61Zm-8.92-.75-4.07-4.9a3.06,3.06,0,0,0-1.73,2.77,3,3,0,0,0,3.28,3.21A3.39,3.39,0,0,0,76.68,114.6Zm-.79-10.37c1.72-.83,2.55-1.8,2.55-3.13a1.85,1.85,0,0,0-1.91-2,2.05,2.05,0,0,0-2.12,2.23A4.71,4.71,0,0,0,75.89,104.23Z" fill="#fff"/><path d="M92.77,94.87h10.08c6.73,0,10.47,2.74,10.47,8.17v.15a6.71,6.71,0,0,1-4.64,6.76l6.16,10.66h-7.78l-5.22-9.22h-1.73v9.22H92.77Zm9.72,11.74c2.48,0,3.71-1,3.71-3.14v-.14c0-2.09-1.3-2.92-3.67-2.92h-2.42v6.2Z" fill="#fff"/><path d="M125,94.87h11.49c6.08,0,8.67,2.74,8.67,6.73v.15a5.3,5.3,0,0,1-4.35,5.54c3.16.54,5.14,2.45,5.14,6v.14c0,4.61-3,7.17-9.36,7.17H125Zm10,10.22c2.3,0,3.17-.79,3.17-2.62v-.15c0-1.76-.94-2.55-3.17-2.55h-2.81v5.32Zm.25,10.59c2.34,0,3.42-1.08,3.42-3v-.15c0-1.94-1-3-3.63-3h-2.85v6.09Z" fill="#fff"/><path d="M149,93.5h6.41v27.11H149Z" fill="#fff"/><path d="M158.4,111.43v-.29c0-6,4.5-9.86,10.33-9.86S179,105,179,111v.29c0,6.12-4.5,9.79-10.3,9.79S158.4,117.51,158.4,111.43Zm14-.11V111c0-3.16-1.26-4.93-3.71-4.93S165,107.79,165,111v.29c0,3.24,1.27,5,3.75,5S172.44,114.45,172.44,111.32Z" fill="#fff"/><path d="M180.79,111.43v-.29c0-6.26,4.5-9.86,10-9.86,4.61,0,8.86,2,9.22,7.74H194c-.29-1.77-1.15-2.74-3-2.74-2.27,0-3.6,1.62-3.6,4.79v.29c0,3.27,1.26,5,3.7,5a3.14,3.14,0,0,0,3.28-3.13h5.8c-.19,4.75-3.39,7.85-9.47,7.85C185.07,121,180.79,117.76,180.79,111.43Z" fill="#fff"/><path d="M202.79,93.5h6.44v15.73l5.07-7.45H221l-6.16,8.46,6.66,10.37h-7.2l-5.07-8.25v8.25h-6.44Z" fill="#fff"/><path d="M20.48,132.87H37.87v5.72h-10v5.48h8v5.43h-8v9.11H20.48Z" fill="#fff"/><path d="M40.14,139.78h6.44v3.75a5.94,5.94,0,0,1,6.09-4v6c-3.93-.11-6.09,1.12-6.09,4.14v8.93H40.14Z" fill="#fff"/><path d="M54.36,149.43v-.29c0-6,4.5-9.86,10.19-9.86,5.14,0,9.57,2.95,9.57,9.72v1.69H60.88c.18,2.48,1.62,3.92,3.92,3.92,2.12,0,3-1,3.27-2.23h6.05c-.57,4.25-3.85,6.66-9.54,6.66C58.68,159,54.36,155.58,54.36,149.43Zm13.5-2.38c-.11-2.26-1.23-3.52-3.31-3.52s-3.28,1.26-3.6,3.52Z" fill="#fff"/><path d="M75.89,149.43v-.29c0-6,4.5-9.86,10.18-9.86,5.15,0,9.58,2.95,9.58,9.72v1.69H82.4c.18,2.48,1.62,3.92,3.93,3.92,2.12,0,3-1,3.27-2.23h6.05c-.58,4.25-3.85,6.66-9.54,6.66C80.21,159,75.89,155.58,75.89,149.43Zm13.5-2.38c-.11-2.26-1.23-3.52-3.32-3.52-1.94,0-3.27,1.26-3.6,3.52Z" fill="#fff"/><path d="M106,130.68h11v4.71h-4.5v23.83H117v4.72H106Z" fill="#fff"/><path d="M119.45,145.9v-.29c0-7.84,5.9-13.1,13.6-13.1s13.65,4.93,13.65,12.92v.29c0,7.92-5.44,13.32-13.75,13.32S119.45,153.64,119.45,145.9Zm19.54-.07v-.29c0-4.57-2.3-7.27-5.94-7.27s-5.9,2.63-5.9,7.31v.29c0,4.67,2.38,7.37,5.94,7.37S139,150.44,139,145.83Z" fill="#fff"/><path d="M149.72,139.78h6.45v3a6.62,6.62,0,0,1,6.19-3.53c3.63,0,6.15,2.27,6.15,7.09v12.24h-6.44V147.67c0-2.13-.83-3.17-2.7-3.17s-3.2,1.15-3.2,3.56v10.55h-6.45Z" fill="#fff"/><path d="M172.37,131.5h6.4v27.11h-6.4Z" fill="#fff"/><path d="M182.63,134.67a3.36,3.36,0,0,1,3.52-3.35,3.34,3.34,0,1,1,0,6.66A3.33,3.33,0,0,1,182.63,134.67Zm.32,5.11h6.44v18.83H183Z" fill="#fff"/><path d="M193.39,139.78h6.44v3a6.64,6.64,0,0,1,6.19-3.53c3.64,0,6.16,2.27,6.16,7.09v12.24h-6.44V147.67c0-2.13-.83-3.17-2.7-3.17s-3.21,1.15-3.21,3.56v10.55h-6.44Z" fill="#fff"/><path d="M214.85,149.43v-.29c0-6,4.49-9.86,10.18-9.86,5.15,0,9.58,2.95,9.58,9.72v1.69H221.36c.18,2.48,1.62,3.92,3.92,3.92,2.13,0,3-1,3.28-2.23h6.05c-.58,4.25-3.85,6.66-9.54,6.66C219.17,159,214.85,155.58,214.85,149.43Zm13.49-2.38c-.1-2.26-1.22-3.52-3.31-3.52-1.94,0-3.27,1.26-3.6,3.52Z" fill="#fff"/><path d="M236.52,159.22H241V135.39h-4.46v-4.71h10.94v33.26H236.52Z" fill="#fff"/><path d="M18.65,190.63h5.94c.21,1.37.83,2.13,2.66,2.13,1.58,0,2.3-.62,2.3-1.55s-.9-1.33-3.49-1.69c-5-.65-7.16-2.13-7.16-6.05,0-4.18,3.71-6.19,8.06-6.19,4.65,0,7.89,1.58,8.32,6.08H29.45A2.11,2.11,0,0,0,27,181.49c-1.4,0-2.12.61-2.12,1.48s.86,1.26,3.17,1.54c5.22.65,7.74,2,7.74,6.05,0,4.46-3.31,6.48-8.53,6.48S18.79,194.81,18.65,190.63Z" fill="#fff"/><path d="M38.3,190.06V177.78h6.45V189c0,2.13.82,3.17,2.66,3.17s3.2-1.15,3.2-3.56V177.78h6.45v18.83H50.61v-2.92c-1,1.95-2.84,3.35-6,3.35C41,197,38.3,194.81,38.3,190.06Z" fill="#fff"/><path d="M60.88,177.78h6.44v2.81a6.64,6.64,0,0,1,5.87-3.31c4.39,0,8,3.31,8,9.75v.29c0,6.48-3.56,9.72-8,9.72a6.21,6.21,0,0,1-5.83-3.2v9.07H60.88Zm13.71,9.54V187c0-3.31-1.44-4.89-3.71-4.89s-3.74,1.69-3.74,4.86v.28c0,3.21,1.4,4.83,3.74,4.83S74.59,190.42,74.59,187.32Z" fill="#fff"/><path d="M84,177.78h6.45v2.81a6.63,6.63,0,0,1,5.86-3.31c4.39,0,8,3.31,8,9.75v.29c0,6.48-3.57,9.72-8,9.72a6.19,6.19,0,0,1-5.83-3.2v9.07H84Zm13.72,9.54V187c0-3.31-1.44-4.89-3.71-4.89s-3.74,1.69-3.74,4.86v.28c0,3.21,1.4,4.83,3.74,4.83S97.74,190.42,97.74,187.32Z" fill="#fff"/><path d="M106.16,187.43v-.29c0-6,4.5-9.86,10.33-9.86S126.75,181,126.75,187v.29c0,6.12-4.5,9.79-10.29,9.79S106.16,193.51,106.16,187.43Zm14-.11V187c0-3.16-1.26-4.93-3.71-4.93s-3.74,1.69-3.74,4.86v.29c0,3.24,1.26,5,3.74,5S120.2,190.45,120.2,187.32Z" fill="#fff"/><path d="M129.56,177.78H136v3.75a5.92,5.92,0,0,1,6.08-4v6c-3.92-.11-6.08,1.12-6.08,4.14v8.93h-6.45Z" fill="#fff"/><path d="M146.12,190.56v-8.39h-2.27v-4.39h2.27v-3.92h6.45v3.92h3.7v4.39h-3.7V190c0,1.37.68,2,1.9,2a4.87,4.87,0,0,0,1.84-.33v4.9a13.35,13.35,0,0,1-3.56.54C148.5,197,146.12,195,146.12,190.56Z" fill="#fff"/><path d="M158.25,190.63h5.94c.22,1.37.83,2.13,2.67,2.13,1.58,0,2.3-.62,2.3-1.55s-.9-1.33-3.49-1.69c-5-.65-7.17-2.13-7.17-6.05,0-4.18,3.71-6.19,8.07-6.19,4.64,0,7.88,1.58,8.31,6.08h-5.83a2.1,2.1,0,0,0-2.41-1.87c-1.4,0-2.12.61-2.12,1.48s.86,1.26,3.16,1.54c5.22.65,7.74,2,7.74,6.05,0,4.46-3.31,6.48-8.53,6.48S158.4,194.81,158.25,190.63Z" fill="#fff"/><path d="M185.14,177.78h6.45v2.88a6.58,6.58,0,0,1,5.9-3.38,5.13,5.13,0,0,1,5.11,3.13,7.45,7.45,0,0,1,6.23-3.13c3.56,0,6.16,2.3,6.16,7v12.31h-6.45V185.38c0-1.91-.93-2.85-2.41-2.85-1.73,0-2.88,1.12-2.88,3.17v10.91h-6.37V185.38c0-1.91-.94-2.85-2.41-2.85-1.73,0-2.88,1.12-2.88,3.17v10.91h-6.45Z" fill="#fff"/><path d="M217.65,187.43v-.29c0-6,4.5-9.86,10.33-9.86S238.24,181,238.24,187v.29c0,6.12-4.5,9.79-10.29,9.79S217.65,193.51,217.65,187.43Zm14-.11V187c0-3.16-1.26-4.93-3.71-4.93s-3.74,1.69-3.74,4.86v.29c0,3.24,1.26,5,3.74,5S231.69,190.45,231.69,187.32Z" fill="#fff"/><path d="M241.05,177.78h6.45v3.75a5.92,5.92,0,0,1,6.08-4v6c-3.92-.11-6.08,1.12-6.08,4.14v8.93h-6.45Z" fill="#fff"/><path d="M255.27,187.43v-.29c0-6,4.5-9.86,10.19-9.86,5.15,0,9.57,2.95,9.57,9.72v1.69H261.79c.18,2.48,1.62,3.92,3.92,3.92,2.12,0,3-1,3.28-2.23h6c-.57,4.25-3.85,6.66-9.53,6.66C259.59,197,255.27,193.58,255.27,187.43Zm13.5-2.38c-.11-2.26-1.22-3.52-3.31-3.52-1.94,0-3.28,1.26-3.6,3.52Z" fill="#fff"/><path d="M20.88,220.17H18.5v-4.39h2.38v-1.65c0-4.68,2.92-6.91,7.38-6.91a11.72,11.72,0,0,1,2.95.39v4.72a5.69,5.69,0,0,0-1.76-.26,1.89,1.89,0,0,0-2.16,2.06v1.65H31.1v4.39H27.29v14.44H20.88Z" fill="#fff"/><path d="M32.15,225.43v-.29c0-6,4.5-9.86,10.33-9.86S52.74,219,52.74,225v.29c0,6.12-4.5,9.79-10.3,9.79S32.15,231.51,32.15,225.43Zm14-.11V225c0-3.16-1.26-4.93-3.71-4.93s-3.75,1.69-3.75,4.86v.29c0,3.24,1.26,5,3.75,5S46.19,228.45,46.19,225.32Z" fill="#fff"/><path d="M55.55,215.78H62v3.75a5.93,5.93,0,0,1,6.08-4v6c-3.92-.11-6.08,1.12-6.08,4.14v8.93H55.55Z" fill="#fff"/><path d="M71,215.78H77.4v2.88a6.58,6.58,0,0,1,5.9-3.38,5.12,5.12,0,0,1,5.11,3.13,7.45,7.45,0,0,1,6.23-3.13c3.56,0,6.16,2.3,6.16,7v12.31H94.35V223.38c0-1.91-.93-2.85-2.41-2.85-1.73,0-2.88,1.12-2.88,3.17v10.91H82.69V223.38c0-1.91-.94-2.85-2.41-2.85-1.73,0-2.88,1.12-2.88,3.17v10.91H71Z" fill="#fff"/><path d="M103.21,228.63h5.94c.22,1.37.83,2.13,2.66,2.13,1.59,0,2.31-.62,2.31-1.55s-.9-1.33-3.49-1.69c-5-.65-7.17-2.13-7.17-6.05,0-4.18,3.71-6.19,8.07-6.19,4.64,0,7.88,1.58,8.31,6.08H114a2.1,2.1,0,0,0-2.41-1.87c-1.41,0-2.13.61-2.13,1.48s.87,1.26,3.17,1.54c5.22.65,7.74,2,7.74,6.05,0,4.46-3.31,6.48-8.53,6.48S103.36,232.81,103.21,228.63Z" fill="#fff"/><path d="M129,229.39c0-4.43,3.75-6.16,10-6.16h1.8v-.43c0-1.8-.43-3-2.48-3a2.32,2.32,0,0,0-2.56,2.24h-6c.29-4.54,3.85-6.77,9-6.77s8.5,2.12,8.5,7.13v12.2H141v-2.2c-.9,1.37-2.55,2.63-5.58,2.63C132,235,129,233.38,129,229.39ZM140.83,228v-1.15h-1.69c-2.59,0-3.75.5-3.75,2,0,1.08.72,1.76,2.24,1.76C139.46,230.68,140.83,229.64,140.83,228Z" fill="#fff"/><path d="M150.91,215.78h6.44v3a6.64,6.64,0,0,1,6.19-3.53c3.64,0,6.16,2.27,6.16,7.09v12.24h-6.44V223.67c0-2.13-.83-3.17-2.7-3.17s-3.21,1.15-3.21,3.56v10.55h-6.44Z" fill="#fff"/><path d="M172.44,225.39v-.29c0-6.4,3.53-9.82,8-9.82a6.09,6.09,0,0,1,5.79,3.17V207.5h6.45v27.11h-6.45v-3.06a6.34,6.34,0,0,1-5.86,3.49C176,235,172.44,231.91,172.44,225.39Zm14-.11V225c0-3.17-1.33-4.86-3.7-4.86S179,221.76,179,225v.29c0,3.17,1.4,4.79,3.64,4.79S186.4,228.49,186.4,225.28Z" fill="#fff"/><path d="M19,263.39v-.29c0-6.4,3.53-9.82,8-9.82a6.11,6.11,0,0,1,5.8,3.17V245.5H39.2v27.11H32.76v-3.06A6.36,6.36,0,0,1,26.89,273C22.54,273,19,269.91,19,263.39Zm14-.11V263c0-3.17-1.33-4.86-3.71-4.86s-3.71,1.62-3.71,4.89v.29c0,3.17,1.41,4.79,3.64,4.79S32.94,266.49,32.94,263.28Z" fill="#fff"/><path d="M42,263.43v-.29c0-6.05,4.5-9.86,10.19-9.86,5.15,0,9.57,3,9.57,9.72v1.69H48.53c.18,2.48,1.62,3.92,3.92,3.92,2.12,0,3-1,3.28-2.23h6c-.57,4.25-3.85,6.66-9.54,6.66C46.33,273,42,269.58,42,263.43Zm13.5-2.38c-.11-2.26-1.22-3.52-3.31-3.52s-3.28,1.26-3.6,3.52Z" fill="#fff"/><path d="M63.61,263.39v-.29c0-6.4,3.53-9.82,8-9.82a6.11,6.11,0,0,1,5.8,3.17V245.5h6.44v27.11H77.4v-3.06A6.36,6.36,0,0,1,71.53,273C67.18,273,63.61,269.91,63.61,263.39Zm14-.11V263c0-3.17-1.33-4.86-3.71-4.86s-3.71,1.62-3.71,4.89v.29c0,3.17,1.41,4.79,3.64,4.79S77.58,266.49,77.58,263.28Z" fill="#fff"/><path d="M87.52,266.06V253.78H94V265c0,2.13.83,3.17,2.66,3.17s3.21-1.15,3.21-3.56V253.78h6.44v18.83H99.83v-2.92a6.19,6.19,0,0,1-6,3.35C90.21,273,87.52,270.81,87.52,266.06Z" fill="#fff"/><path d="M109.08,263.43v-.29c0-6.26,4.5-9.86,10-9.86,4.61,0,8.86,2,9.22,7.74h-6c-.29-1.77-1.15-2.74-3-2.74-2.27,0-3.6,1.62-3.6,4.79v.29c0,3.27,1.26,5,3.7,5a3.14,3.14,0,0,0,3.28-3.13h5.79c-.18,4.75-3.38,7.85-9.46,7.85C113.36,273,109.08,269.76,109.08,263.43Z" fill="#fff"/><path d="M131.94,266.56v-8.39h-2.27v-4.39h2.27v-3.92h6.44v3.92h3.71v4.39h-3.71V266a1.72,1.72,0,0,0,1.91,2,4.87,4.87,0,0,0,1.84-.33v4.9a13.43,13.43,0,0,1-3.57.54C134.31,273,131.94,271,131.94,266.56Z" fill="#fff"/><path d="M144.93,248.67a3.56,3.56,0,1,1,3.53,3.31A3.37,3.37,0,0,1,144.93,248.67Zm.33,5.11h6.44v18.83h-6.44Z" fill="#fff"/><path d="M154.69,263.43v-.29c0-6.05,4.5-9.86,10.33-9.86S175.28,257,175.28,263v.29c0,6.12-4.5,9.79-10.29,9.79S154.69,269.51,154.69,263.43Zm14-.11V263c0-3.16-1.26-4.93-3.71-4.93s-3.74,1.69-3.74,4.86v.29c0,3.24,1.26,5,3.74,5S168.73,266.45,168.73,263.32Z" fill="#fff"/><path d="M178.09,253.78h6.44v3a6.64,6.64,0,0,1,6.19-3.53c3.64,0,6.16,2.27,6.16,7.09v12.24h-6.44V261.67c0-2.13-.83-3.17-2.7-3.17s-3.21,1.15-3.21,3.56v10.55h-6.44Z" fill="#fff"/><path d="M199.29,266.63h5.94c.22,1.37.83,2.13,2.67,2.13,1.58,0,2.3-.62,2.3-1.55s-.9-1.33-3.49-1.69c-5-.65-7.16-2.13-7.16-6,0-4.18,3.7-6.19,8.06-6.19,4.64,0,7.88,1.58,8.31,6.08h-5.83a2.1,2.1,0,0,0-2.41-1.87c-1.4,0-2.12.61-2.12,1.48s.86,1.26,3.16,1.54c5.22.65,7.74,2,7.74,6.05,0,4.46-3.31,6.48-8.53,6.48S199.44,270.81,199.29,266.63Z" fill="#fff"/><path d="M218.84,269.37a3.59,3.59,0,0,1,3.67-3.64,3.64,3.64,0,1,1,0,7.27A3.59,3.59,0,0,1,218.84,269.37Zm10.69,0a3.59,3.59,0,0,1,3.67-3.64,3.64,3.64,0,1,1,0,7.27A3.59,3.59,0,0,1,229.53,269.37Zm10.69,0a3.59,3.59,0,0,1,3.67-3.64,3.64,3.64,0,1,1,0,7.27A3.59,3.59,0,0,1,240.22,269.37Z" fill="#fff"/><path d="M18.83,305.39c0-4.43,3.74-6.16,10-6.16h1.8v-.43c0-1.8-.43-3-2.48-3a2.31,2.31,0,0,0-2.55,2.24H19.55c.29-4.54,3.85-6.77,9-6.77S37,293.4,37,298.41v12.2H30.78v-2.2c-.9,1.37-2.56,2.63-5.58,2.63C21.82,311,18.83,309.38,18.83,305.39ZM30.63,304v-1.15H28.94c-2.59,0-3.74.5-3.74,2.05,0,1.08.72,1.76,2.23,1.76C29.27,306.68,30.63,305.64,30.63,304Z" fill="#fff"/><path d="M41.47,304.56v-8.39H39.2v-4.39h2.27v-3.92h6.44v3.92h3.71v4.39H47.91V304a1.72,1.72,0,0,0,1.91,2,4.87,4.87,0,0,0,1.84-.33v4.9a13.36,13.36,0,0,1-3.57.54C43.85,311,41.47,309,41.47,304.56Z" fill="#fff"/><path d="M61.7,291.78h6.45v3a6.63,6.63,0,0,1,6.19-3.53c3.63,0,6.15,2.27,6.15,7.09v12.24H74.05V299.67c0-2.13-.83-3.17-2.7-3.17s-3.2,1.15-3.2,3.56v10.55H61.7Z" fill="#fff"/><path d="M83.16,301.43v-.29c0-6.05,4.5-9.86,10.33-9.86S103.75,295,103.75,301v.29c0,6.12-4.5,9.79-10.3,9.79S83.16,307.51,83.16,301.43Zm14-.11V301c0-3.16-1.26-4.93-3.71-4.93s-3.74,1.69-3.74,4.86v.29c0,3.24,1.26,5,3.74,5S97.2,304.45,97.2,301.32Z" fill="#fff"/><path d="M112.64,301.43v-.29c0-6.05,4.5-9.86,10.19-9.86,5.15,0,9.57,3,9.57,9.72v1.69H119.16c.18,2.48,1.62,3.92,3.92,3.92,2.12,0,3-1,3.28-2.23h6c-.57,4.25-3.85,6.66-9.53,6.66C117,311,112.64,307.58,112.64,301.43Zm13.5-2.38c-.11-2.26-1.22-3.52-3.31-3.52-1.94,0-3.28,1.26-3.6,3.52Z" fill="#fff"/><path d="M138.92,301l-5.87-9.25h7.42l2.91,5,2.85-5h6.62l-5.94,8.75,6.52,10.08H146L142.67,305l-3.42,5.62h-6.59Z" fill="#fff"/><path d="M156.38,304.56v-8.39h-2.27v-4.39h2.27v-3.92h6.45v3.92h3.7v4.39h-3.7V304c0,1.37.68,2,1.9,2a4.87,4.87,0,0,0,1.84-.33v4.9A13.36,13.36,0,0,1,163,311C158.76,311,156.38,309,156.38,304.56Z" fill="#fff"/><path d="M169.52,291.78H176v3.75a5.94,5.94,0,0,1,6.09-4v6c-3.92-.11-6.09,1.12-6.09,4.14v8.93h-6.44Z" fill="#fff"/><path d="M183.42,305.39c0-4.43,3.74-6.16,10-6.16h1.8v-.43c0-1.8-.43-3-2.48-3a2.31,2.31,0,0,0-2.55,2.24h-6.05c.29-4.54,3.85-6.77,9-6.77s8.49,2.12,8.49,7.13v12.2h-6.26v-2.2c-.9,1.37-2.56,2.63-5.58,2.63C186.41,311,183.42,309.38,183.42,305.39Zm11.8-1.37v-1.15h-1.69c-2.59,0-3.74.5-3.74,2.05,0,1.08.72,1.76,2.23,1.76C193.86,306.68,195.22,305.64,195.22,304Z" fill="#fff"/><path d="M18.9,339.43v-.29c0-6.26,4.5-9.86,10-9.86,4.61,0,8.86,2,9.22,7.74h-6c-.29-1.77-1.15-2.74-3-2.74-2.27,0-3.6,1.62-3.6,4.79v.29c0,3.27,1.26,5,3.7,5a3.14,3.14,0,0,0,3.28-3.13h5.8c-.18,4.75-3.39,7.85-9.47,7.85C23.18,349,18.9,345.76,18.9,339.43Z" fill="#fff"/><path d="M39.89,339.43v-.29c0-6.05,4.5-9.86,10.33-9.86S60.48,333,60.48,339v.29c0,6.12-4.5,9.79-10.3,9.79S39.89,345.51,39.89,339.43Zm14-.11V339c0-3.16-1.26-4.93-3.71-4.93s-3.75,1.69-3.75,4.86v.29c0,3.24,1.26,5,3.75,5S53.93,342.45,53.93,339.32Z" fill="#fff"/><path d="M62.14,342.63h5.93c.22,1.37.83,2.13,2.67,2.13,1.58,0,2.3-.62,2.3-1.55s-.9-1.33-3.49-1.69c-5-.65-7.16-2.13-7.16-6,0-4.18,3.7-6.19,8.06-6.19,4.64,0,7.88,1.58,8.32,6.08H72.93a2.1,2.1,0,0,0-2.41-1.87c-1.4,0-2.12.61-2.12,1.48s.86,1.26,3.17,1.54c5.22.65,7.74,2,7.74,6.05C79.31,347,76,349,70.77,349S62.28,346.81,62.14,342.63Z" fill="#fff"/><path d="M82.8,342.56v-8.39H80.53v-4.39H82.8v-3.92h6.44v3.92H93v4.39H89.24V342a1.72,1.72,0,0,0,1.91,2A4.87,4.87,0,0,0,93,343.6v4.9a13.43,13.43,0,0,1-3.57.54C85.17,349,82.8,347,82.8,342.56Z" fill="#fff"/><path d="M95.69,345.37a3.59,3.59,0,0,1,3.67-3.64,3.64,3.64,0,1,1,0,7.27A3.58,3.58,0,0,1,95.69,345.37Z" fill="#fff"/><path d="M102.89,322.87h6l-.75,9.9h-4.57Zm7.63,0h6.08l-.75,9.9h-4.58Z" fill="#fff"/></g><g id="_NerdWallet" data-name="– NerdWallet"><path d="M175.57,424h7.94v1.52h-7.94Z" fill="#fff"/><path d="M189.56,416.92h2.86l5.42,9.31v-9.31H200V429.8h-2.49l-5.8-9.87v9.87h-2.17Z" fill="#fff"/><path d="M201.83,425.19V425a4.58,4.58,0,0,1,4.68-4.86c2.34,0,4.45,1.39,4.45,4.76v.63h-6.9c.08,1.78,1,2.79,2.6,2.79,1.31,0,2-.52,2.16-1.44h2.1c-.3,2-1.9,3.06-4.32,3.06A4.51,4.51,0,0,1,201.83,425.19Zm7-1.08c-.11-1.62-.94-2.34-2.29-2.34a2.42,2.42,0,0,0-2.41,2.34Z" fill="#fff"/><path d="M212.63,420.38h2.18v1.77a3.14,3.14,0,0,1,3.06-1.91v2c-1.91,0-3.06.63-3.06,2.63v4.9h-2.18Z" fill="#fff"/><path d="M218.68,425.24v-.14c0-3,1.78-4.92,4.23-4.92a3.23,3.23,0,0,1,3,1.64V416h2.18V429.8h-2.18v-1.59a3.61,3.61,0,0,1-3.1,1.77C220.46,430,218.68,428.3,218.68,425.24Zm7.31-.11V425c0-2.07-1-3.1-2.54-3.1s-2.54,1.12-2.54,3.15v.15c0,2.07,1.05,3.06,2.45,3.06S226,427.24,226,425.13Z" fill="#fff"/><path d="M229.59,416.92H232l2.23,9.46,2.5-9.46h2l2.56,9.51,2.3-9.51h2.24l-3.23,12.88h-2.39l-2.54-9.38-2.61,9.38h-2.29Z" fill="#fff"/><path d="M246,427.19c0-2.2,2.13-3,4.83-3H252v-.49c0-1.26-.44-1.89-1.71-1.89a1.56,1.56,0,0,0-1.8,1.48H246.4c.18-2.2,1.93-3.12,4-3.12s3.77.87,3.77,3.44v6.18h-2.15v-1.15a3.27,3.27,0,0,1-2.88,1.33C247.44,430,246,429.15,246,427.19Zm6-.69v-.93H250.9c-1.66,0-2.72.38-2.72,1.53,0,.79.43,1.31,1.51,1.31C251,428.41,252,427.71,252,426.5Z" fill="#fff"/><path d="M256.48,416h2.18V429.8h-2.18Z" fill="#fff"/><path d="M261.09,416h2.18V429.8h-2.18Z" fill="#fff"/><path d="M265,425.19V425a4.58,4.58,0,0,1,4.68-4.86c2.34,0,4.45,1.39,4.45,4.76v.63h-6.9c.08,1.78,1,2.79,2.6,2.79,1.31,0,2-.52,2.16-1.44h2.1c-.3,2-1.9,3.06-4.32,3.06A4.51,4.51,0,0,1,265,425.19Zm7-1.08c-.11-1.62-.94-2.34-2.29-2.34a2.42,2.42,0,0,0-2.41,2.34Z" fill="#fff"/><path d="M276.17,427.17V422h-1.26v-1.64h1.26v-2.07h2.18v2.07h2.07V422h-2.07v5c0,.83.4,1.21,1.08,1.21a2.76,2.76,0,0,0,1.06-.18v1.73A4.33,4.33,0,0,1,279,430,2.53,2.53,0,0,1,276.17,427.17Z" fill="#fff"/></g></g></svg>