<svg xmlns="http://www.w3.org/2000/svg" viewBox="0 0 728 90"><title>H56</title><g id="Layer_2" data-name="Layer 2"><g id="Rect"><rect width="728" height="90" fill="none"/></g><g id="H56"><g id="Block_s_good._Like_really_good." data-name="Block&apos;s good. Like really, good."><path d="M122.08,32.14h9.62c5.09,0,7.27,2.3,7.27,5.64v.12a4.45,4.45,0,0,1-3.65,4.65,4.68,4.68,0,0,1,4.31,5v.12c0,3.86-2.5,6-7.84,6h-9.71Zm8.38,8.57c1.93,0,2.66-.67,2.66-2.2v-.12c0-1.48-.79-2.14-2.66-2.14h-2.35v4.46Zm.21,8.86c2,0,2.87-.9,2.87-2.5V47c0-1.63-.88-2.47-3-2.47h-2.38v5.09Z" fill="#fff"/><path d="M141.77,31h5.36V53.7h-5.36Z" fill="#fff"/><path d="M149.18,46v-.24c0-5.06,3.77-8.26,8.66-8.26s8.59,3.11,8.59,8.11v.24c0,5.13-3.77,8.2-8.62,8.2S149.18,51.11,149.18,46Zm11.76-.09v-.24c0-2.65-1.05-4.13-3.1-4.13S154.7,43,154.7,45.62v.24c0,2.72,1.06,4.19,3.14,4.19S160.94,48.55,160.94,45.92Z" fill="#fff"/><path d="M167.49,46v-.24c0-5.24,3.76-8.26,8.41-8.26,3.86,0,7.41,1.69,7.72,6.48h-5.07A2.33,2.33,0,0,0,176,41.7c-1.9,0-3,1.36-3,4V46c0,2.75,1.06,4.16,3.11,4.16a2.62,2.62,0,0,0,2.74-2.62h4.86c-.15,4-2.84,6.57-7.93,6.57C171.07,54.06,167.49,51.32,167.49,46Z" fill="#fff"/><path d="M185.45,31h5.4V44.17l4.25-6.24h5.61L195.56,45l5.57,8.68h-6l-4.25-6.9v6.9h-5.4Z" fill="#fff"/><path d="M202,32.14h5.27l-.63,8.3h-4Z" fill="#fff"/><path d="M208.22,48.7h5c.18,1.14.7,1.78,2.23,1.78,1.33,0,1.93-.52,1.93-1.3s-.75-1.12-2.92-1.42c-4.22-.54-6-1.78-6-5.06,0-3.5,3.1-5.19,6.75-5.19,3.89,0,6.61,1.33,7,5.1h-4.89a1.76,1.76,0,0,0-2-1.57c-1.17,0-1.78.51-1.78,1.24s.73,1,2.66,1.29c4.37.54,6.48,1.69,6.48,5.07,0,3.74-2.77,5.42-7.15,5.42S208.34,52.2,208.22,48.7Z" fill="#fff"/><path d="M229,53.7h5.37c.24,1.15.93,2,2.89,2,2.38,0,3.35-1.35,3.35-3.31V50a5.54,5.54,0,0,1-4.89,2.9c-3.67,0-6.69-2.71-6.69-7.57v-.24c0-4.64,3-7.6,6.69-7.6a5.15,5.15,0,0,1,4.89,2.65V37.93H246V52.38c0,4.7-3.11,7.17-8.75,7.17C231.86,59.55,229.38,57.29,229,53.7Zm11.76-8.38v-.21c0-2.17-1.12-3.56-3.11-3.56s-3.1,1.42-3.1,3.59v.24c0,2.17,1.14,3.56,3.07,3.56S240.72,47.55,240.72,45.32Z" fill="#fff"/><path d="M247.86,46v-.24c0-5.06,3.77-8.26,8.66-8.26s8.59,3.11,8.59,8.11v.24c0,5.13-3.77,8.2-8.62,8.2S247.86,51.11,247.86,46Zm11.76-.09v-.24c0-2.65-1.05-4.13-3.1-4.13s-3.14,1.42-3.14,4.07v.24c0,2.72,1.06,4.19,3.14,4.19S259.62,48.55,259.62,45.92Z" fill="#fff"/><path d="M266.17,46v-.24c0-5.06,3.76-8.26,8.65-8.26s8.59,3.11,8.59,8.11v.24c0,5.13-3.77,8.2-8.62,8.2S266.17,51.11,266.17,46Zm11.75-.09v-.24c0-2.65-1.05-4.13-3.1-4.13s-3.14,1.42-3.14,4.07v.24c0,2.72,1.06,4.19,3.14,4.19S277.92,48.55,277.92,45.92Z" fill="#fff"/><path d="M284.53,46v-.24c0-5.36,3-8.23,6.69-8.23a5.11,5.11,0,0,1,4.85,2.65V31h5.4V53.7h-5.4V51.14a5.3,5.3,0,0,1-4.91,2.92C287.51,54.06,284.53,51.44,284.53,46Zm11.7-.09v-.24c0-2.65-1.12-4.07-3.11-4.07S290,42.94,290,45.68v.24c0,2.66,1.18,4,3.05,4S296.23,48.58,296.23,45.89Z" fill="#fff"/><path d="M304,51a3,3,0,0,1,3.08-3.05,3,3,0,1,1,0,6.09A3,3,0,0,1,304,51Z" fill="#fff"/><path d="M318.75,32.14H325V48.91h8.14V53.7H318.75Z" fill="#fff"/><path d="M335,33.65a2.81,2.81,0,0,1,3-2.8,2.8,2.8,0,1,1,0,5.58A2.79,2.79,0,0,1,335,33.65Zm.27,4.28h5.4V53.7h-5.4Z" fill="#fff"/><path d="M343.59,31H349V44.17l4.25-6.24h5.61L353.69,45l5.58,8.68h-6L349,46.8v6.9h-5.4Z" fill="#fff"/><path d="M358.88,46v-.24c0-5.06,3.77-8.26,8.53-8.26,4.31,0,8,2.47,8,8.14v1.42h-11.1c.15,2.08,1.36,3.29,3.29,3.29,1.78,0,2.53-.82,2.74-1.87h5.07c-.48,3.55-3.23,5.57-8,5.57C362.49,54.06,358.88,51.17,358.88,46Zm11.3-2c-.09-1.9-1-3-2.77-3s-2.74,1-3,3Z" fill="#fff"/><path d="M382.78,37.93h5.4v3.14a5,5,0,0,1,5.1-3.35v5c-3.29-.09-5.1.93-5.1,3.47V53.7h-5.4Z" fill="#fff"/><path d="M394.24,46v-.24c0-5.06,3.77-8.26,8.53-8.26,4.32,0,8,2.47,8,8.14v1.42H399.7c.15,2.08,1.36,3.29,3.29,3.29,1.77,0,2.53-.82,2.74-1.87h5.06c-.48,3.55-3.22,5.57-8,5.57C397.86,54.06,394.24,51.17,394.24,46Zm11.31-2c-.09-1.9-1-3-2.78-3s-2.74,1-3,3Z" fill="#fff"/><path d="M411.91,49.33c0-3.71,3.13-5.16,8.38-5.16h1.51v-.36c0-1.5-.36-2.5-2.08-2.5a1.94,1.94,0,0,0-2.14,1.87h-5.07c.24-3.8,3.23-5.67,7.54-5.67s7.12,1.78,7.12,6V53.7h-5.25V51.86a5.16,5.16,0,0,1-4.67,2.2C414.41,54.06,411.91,52.68,411.91,49.33Zm9.89-1.15v-1h-1.42c-2.17,0-3.13.42-3.13,1.72,0,.9.6,1.48,1.87,1.48C420.65,50.42,421.8,49.54,421.8,48.18Z" fill="#fff"/><path d="M429.94,31h5.37V53.7h-5.37Z" fill="#fff"/><path d="M438.35,31h5.37V53.7h-5.37Z" fill="#fff"/><path d="M451.56,52.1l-6.31-14.17h5.85l3.26,8.42,3-8.42h5.15l-8.44,21h-5.16Z" fill="#fff"/><path d="M460.48,56.14,463,48.21,468,50l-4.34,7.39Z" fill="#fff"/><path d="M475,53.7h5.37c.24,1.15.93,2,2.89,2,2.39,0,3.35-1.35,3.35-3.31V50a5.52,5.52,0,0,1-4.88,2.9c-3.68,0-6.7-2.71-6.7-7.57v-.24c0-4.64,3-7.6,6.7-7.6a5.14,5.14,0,0,1,4.88,2.65V37.93H492V52.38c0,4.7-3.11,7.17-8.75,7.17C477.88,59.55,475.4,57.29,475,53.7Zm11.76-8.38v-.21c0-2.17-1.11-3.56-3.11-3.56s-3.1,1.42-3.1,3.59v.24c0,2.17,1.14,3.56,3.07,3.56S486.74,47.55,486.74,45.32Z" fill="#fff"/><path d="M493.88,46v-.24c0-5.06,3.77-8.26,8.66-8.26s8.59,3.11,8.59,8.11v.24c0,5.13-3.77,8.2-8.62,8.2S493.88,51.11,493.88,46Zm11.76-.09v-.24c0-2.65-1.05-4.13-3.1-4.13S499.4,43,499.4,45.62v.24c0,2.72,1.06,4.19,3.14,4.19S505.64,48.55,505.64,45.92Z" fill="#fff"/><path d="M512.19,46v-.24c0-5.06,3.77-8.26,8.65-8.26s8.59,3.11,8.59,8.11v.24c0,5.13-3.77,8.2-8.62,8.2S512.19,51.11,512.19,46ZM524,45.92v-.24c0-2.65-1.06-4.13-3.11-4.13S517.7,43,517.7,45.62v.24c0,2.72,1.06,4.19,3.14,4.19S524,48.55,524,45.92Z" fill="#fff"/><path d="M530.55,46v-.24c0-5.36,3-8.23,6.69-8.23a5.11,5.11,0,0,1,4.85,2.65V31h5.4V53.7h-5.4V51.14a5.3,5.3,0,0,1-4.91,2.92C533.53,54.06,530.55,51.44,530.55,46Zm11.7-.09v-.24c0-2.65-1.12-4.07-3.11-4.07S536,42.94,536,45.68v.24c0,2.66,1.18,4,3.05,4S542.25,48.58,542.25,45.89Z" fill="#fff"/><path d="M550,51a3,3,0,0,1,3.08-3.05,3,3,0,1,1,0,6.09A3,3,0,0,1,550,51Z" fill="#fff"/></g></g></g></svg>