<svg xmlns="http://www.w3.org/2000/svg" viewBox="0 0 300 250"><title>Asset 2</title><g id="Layer_2" data-name="Layer 2"><g id="rect"><rect width="300" height="250" fill="none"/></g><g id="Our_experts_will_get_you_the_biggest_refund_you_re_entitled_to" data-name="Our experts will get you the biggest refund you’re entitled to"><path d="M20.65,40.9v-.17c0-4.57,3.44-7.64,7.94-7.64s8,2.88,8,7.54v.17c0,4.62-3.17,7.77-8,7.77S20.65,45.42,20.65,40.9Zm11.4,0v-.17c0-2.66-1.34-4.24-3.46-4.24S25.14,38,25.14,40.71v.17c0,2.73,1.39,4.31,3.47,4.31S32.05,43.55,32.05,40.86Z" fill="#fff"/><path d="M37.91,44.49V37.33h3.76v6.55c0,1.24.48,1.85,1.55,1.85s1.87-.67,1.87-2.08V37.33h3.76v11H45.09v-1.7a3.59,3.59,0,0,1-3.48,2C39.49,48.57,37.91,47.26,37.91,44.49Z" fill="#fff"/><path d="M50.76,37.33h3.76v2.19a3.45,3.45,0,0,1,3.55-2.33v3.5c-2.29-.06-3.55.65-3.55,2.42v5.2H50.76Z" fill="#fff"/><path d="M62.67,43v-.17A5.62,5.62,0,0,1,68.61,37c3,0,5.59,1.72,5.59,5.67v1H66.47A2.2,2.2,0,0,0,68.76,46c1.24,0,1.76-.56,1.91-1.3H74.2c-.34,2.48-2.25,3.89-5.57,3.89S62.67,46.55,62.67,43Zm7.87-1.39c-.06-1.32-.71-2-1.93-2a2.09,2.09,0,0,0-2.1,2Z" fill="#fff"/><path d="M77.68,42.73l-3.42-5.4h4.33l1.7,2.9L82,37.33h3.86l-3.46,5.1,3.8,5.88H81.82L79.87,45l-2,3.27H74Z" fill="#fff"/><path d="M87.2,37.33H91V39A3.87,3.87,0,0,1,94.38,37C96.94,37,99,39,99,42.73v.17c0,3.78-2.08,5.67-4.66,5.67A3.62,3.62,0,0,1,91,46.7V52H87.2Zm8,5.57v-.17c0-1.93-.84-2.86-2.17-2.86s-2.18,1-2.18,2.84v.17c0,1.86.82,2.81,2.18,2.81S95.2,44.7,95.2,42.9Z" fill="#fff"/><path d="M99.8,43v-.17A5.61,5.61,0,0,1,105.74,37c3,0,5.58,1.72,5.58,5.67v1H103.6A2.19,2.19,0,0,0,105.89,46c1.24,0,1.76-.56,1.91-1.3h3.52c-.33,2.48-2.24,3.89-5.56,3.89S99.8,46.55,99.8,43Zm7.87-1.39c-.06-1.32-.71-2-1.93-2a2.09,2.09,0,0,0-2.1,2Z" fill="#fff"/><path d="M112.63,37.33h3.76v2.19a3.44,3.44,0,0,1,3.55-2.33v3.5c-2.29-.06-3.55.65-3.55,2.42v5.2h-3.76Z" fill="#fff"/><path d="M122,44.79v-4.9h-1.32V37.33H122V35h3.76v2.29h2.16v2.56h-2.16v4.54c0,.8.4,1.15,1.11,1.15a3.06,3.06,0,0,0,1.08-.18v2.85a7.76,7.76,0,0,1-2.08.32C123.36,48.57,122,47.37,122,44.79Z" fill="#fff"/><path d="M128.73,44.83h3.47c.13.8.48,1.24,1.55,1.24s1.35-.36,1.35-.91-.53-.77-2-1c-2.94-.38-4.18-1.24-4.18-3.53S131,37,133.58,37c2.71,0,4.6.92,4.86,3.55H135a1.21,1.21,0,0,0-1.4-1.09c-.82,0-1.24.35-1.24.86s.5.73,1.85.9c3,.38,4.51,1.17,4.51,3.53,0,2.6-1.93,3.78-5,3.78S128.82,47.26,128.73,44.83Z" fill="#fff"/><path d="M142.87,37.33h3.92l1.6,6.57,1.85-6.57h3l1.64,6.57,1.78-6.57h3.57l-3.48,11h-3.59l-1.64-6.13-1.7,6.13h-3.65Z" fill="#fff"/><path d="M161.14,34.35a2.07,2.07,0,1,1,2.06,1.93A2,2,0,0,1,161.14,34.35Zm.19,3h3.75v11h-3.75Z" fill="#fff"/><path d="M167.21,32.5h3.73V48.31h-3.73Z" fill="#fff"/><path d="M173.07,32.5h3.73V48.31h-3.73Z" fill="#fff"/><path d="M182,48.31h3.74c.17.8.65,1.43,2,1.43a2.08,2.08,0,0,0,2.34-2.31V45.75a3.87,3.87,0,0,1-3.41,2c-2.56,0-4.66-1.89-4.66-5.27v-.17c0-3.23,2.08-5.29,4.66-5.29a3.58,3.58,0,0,1,3.41,1.85V37.33h3.75V47.39c0,3.28-2.16,5-6.09,5C184.05,52.39,182.33,50.81,182,48.31Zm8.19-5.83v-.15c0-1.51-.78-2.48-2.16-2.48s-2.17,1-2.17,2.5v.17c0,1.51.8,2.48,2.15,2.48S190.22,44,190.22,42.48Z" fill="#fff"/><path d="M195.2,43v-.17A5.61,5.61,0,0,1,201.14,37c3,0,5.59,1.72,5.59,5.67v1H199A2.19,2.19,0,0,0,201.29,46c1.24,0,1.76-.56,1.91-1.3h3.53c-.34,2.48-2.25,3.89-5.57,3.89S195.2,46.55,195.2,43Zm7.87-1.39c-.06-1.32-.71-2-1.93-2a2.09,2.09,0,0,0-2.1,2Z" fill="#fff"/><path d="M208.53,44.79v-4.9h-1.32V37.33h1.32V35h3.76v2.29h2.16v2.56h-2.16v4.54c0,.8.4,1.15,1.11,1.15a3,3,0,0,0,1.07-.18v2.85a7.61,7.61,0,0,1-2.07.32C209.92,48.57,208.53,47.37,208.53,44.79Z" fill="#fff"/><path d="M223.15,47.2l-4.39-9.87h4.07l2.27,5.86,2.1-5.86h3.59L224.91,52h-3.59Z" fill="#fff"/><path d="M230.58,43v-.17c0-3.53,2.63-5.75,6-5.75s6,2.16,6,5.65v.16c0,3.57-2.62,5.72-6,5.72S230.58,46.51,230.58,43Zm8.19-.06v-.17c0-1.85-.73-2.88-2.16-2.88s-2.18,1-2.18,2.84v.16c0,1.89.73,2.92,2.18,2.92S238.77,44.72,238.77,42.9Z" fill="#fff"/><path d="M243.83,44.49V37.33h3.76v6.55c0,1.24.48,1.85,1.56,1.85s1.86-.67,1.86-2.08V37.33h3.76v11H251v-1.7a3.58,3.58,0,0,1-3.48,2C245.41,48.57,243.83,47.26,243.83,44.49Z" fill="#fff"/><path d="M21.62,70.79v-4.9H20.29V63.33h1.33V61h3.76v2.29h2.16v2.56H25.38v4.54c0,.8.39,1.15,1.11,1.15a3,3,0,0,0,1.07-.18v2.85a7.7,7.7,0,0,1-2.08.32C23,74.57,21.62,73.37,21.62,70.79Z" fill="#fff"/><path d="M29,58.5h3.76v6.6A3.85,3.85,0,0,1,36.34,63c2.12,0,3.59,1.32,3.59,4.13v7.14H36.17V67.93c0-1.24-.48-1.85-1.58-1.85s-1.86.67-1.86,2.08v6.15H29Z" fill="#fff"/><path d="M41.17,69v-.17A5.61,5.61,0,0,1,47.11,63c3,0,5.58,1.72,5.58,5.67v1H45A2.19,2.19,0,0,0,47.26,72c1.24,0,1.76-.56,1.91-1.3h3.52c-.33,2.48-2.24,3.89-5.56,3.89S41.17,72.55,41.17,69ZM49,67.57c-.06-1.32-.71-2-1.93-2a2.09,2.09,0,0,0-2.1,2Z" fill="#fff"/><path d="M61.58,72.61v1.7H57.82V58.5h3.76V65A3.87,3.87,0,0,1,65,63c2.56,0,4.64,1.93,4.64,5.69v.17c0,3.78-2.08,5.67-4.66,5.67A3.55,3.55,0,0,1,61.58,72.61Zm4.24-3.71v-.17c0-1.93-.84-2.86-2.16-2.86s-2.19,1-2.19,2.84v.17c0,1.86.82,2.81,2.19,2.81S65.82,70.7,65.82,68.9Z" fill="#fff"/><path d="M70.92,60.35A2.08,2.08,0,1,1,73,62.28,2,2,0,0,1,70.92,60.35Zm.19,3h3.76v11H71.11Z" fill="#fff"/><path d="M76.28,74.31H80c.16.8.65,1.43,2,1.43a2.07,2.07,0,0,0,2.33-2.31V71.75a3.84,3.84,0,0,1-3.4,2c-2.56,0-4.66-1.89-4.66-5.27v-.17C76.3,65.1,78.38,63,81,63a3.56,3.56,0,0,1,3.4,1.85V63.33h3.76V73.39c0,3.28-2.16,5-6.09,5C78.29,78.39,76.57,76.81,76.28,74.31Zm8.19-5.83v-.15c0-1.51-.78-2.48-2.17-2.48s-2.16,1-2.16,2.5v.17c0,1.51.8,2.48,2.14,2.48S84.47,70,84.47,68.48Z" fill="#fff"/><path d="M89.42,74.31h3.74c.17.8.65,1.43,2,1.43a2.07,2.07,0,0,0,2.33-2.31V71.75a3.87,3.87,0,0,1-3.4,2c-2.56,0-4.66-1.89-4.66-5.27v-.17c0-3.23,2.07-5.29,4.66-5.29a3.56,3.56,0,0,1,3.4,1.85V63.33h3.76V73.39c0,3.28-2.17,5-6.09,5C91.44,78.39,89.72,76.81,89.42,74.31Zm8.19-5.83v-.15c0-1.51-.77-2.48-2.16-2.48s-2.16,1-2.16,2.5v.17c0,1.51.8,2.48,2.14,2.48S97.61,70,97.61,68.48Z" fill="#fff"/><path d="M102.59,69v-.17A5.62,5.62,0,0,1,108.53,63c3,0,5.59,1.72,5.59,5.67v1h-7.73A2.2,2.2,0,0,0,108.68,72c1.24,0,1.76-.56,1.91-1.3h3.53c-.34,2.48-2.25,3.89-5.57,3.89S102.59,72.55,102.59,69Zm7.88-1.39c-.07-1.32-.72-2-1.94-2a2.09,2.09,0,0,0-2.1,2Z" fill="#fff"/><path d="M114.79,70.83h3.47c.12.8.48,1.24,1.55,1.24.92,0,1.34-.36,1.34-.91s-.52-.77-2-1c-2.94-.38-4.18-1.24-4.18-3.53,0-2.44,2.16-3.61,4.7-3.61,2.71,0,4.6.92,4.85,3.55h-3.4a1.22,1.22,0,0,0-1.41-1.09c-.81,0-1.23.35-1.23.86s.5.73,1.84.9c3,.38,4.52,1.17,4.52,3.53,0,2.6-1.93,3.78-5,3.78S114.88,73.26,114.79,70.83Z" fill="#fff"/><path d="M126.53,70.79v-4.9h-1.32V63.33h1.32V61h3.76v2.29h2.16v2.56h-2.16v4.54c0,.8.4,1.15,1.11,1.15a3,3,0,0,0,1.07-.18v2.85a7.63,7.63,0,0,1-2.08.32C127.92,74.57,126.53,73.37,126.53,70.79Z" fill="#fff"/><path d="M137.7,63.33h3.76v2.19A3.45,3.45,0,0,1,145,63.19v3.5c-2.29-.06-3.55.65-3.55,2.42v5.2H137.7Z" fill="#fff"/><path d="M145.68,69v-.17A5.62,5.62,0,0,1,151.63,63c3,0,5.58,1.72,5.58,5.67v1h-7.73A2.2,2.2,0,0,0,151.77,72c1.24,0,1.77-.56,1.91-1.3h3.53c-.34,2.48-2.25,3.89-5.56,3.89S145.68,72.55,145.68,69Zm7.88-1.39c-.07-1.32-.72-2-1.93-2a2.09,2.09,0,0,0-2.11,2Z" fill="#fff"/><path d="M159.08,65.89h-1.39V63.33h1.39v-1c0-2.73,1.7-4,4.3-4a6.59,6.59,0,0,1,1.73.23v2.75a3.3,3.3,0,0,0-1-.15,1.1,1.1,0,0,0-1.26,1.2v1H165v2.56h-2.22v8.42h-3.74Z" fill="#fff"/><path d="M166.22,70.49V63.33H170v6.55c0,1.24.48,1.85,1.55,1.85s1.87-.67,1.87-2.08V63.33h3.76v11H173.4v-1.7a3.6,3.6,0,0,1-3.48,2C167.79,74.57,166.22,73.26,166.22,70.49Z" fill="#fff"/><path d="M179.07,63.33h3.76V65.1A3.87,3.87,0,0,1,186.44,63c2.12,0,3.59,1.32,3.59,4.13v7.14h-3.76V67.93c0-1.24-.48-1.85-1.57-1.85s-1.87.67-1.87,2.08v6.15h-3.76Z" fill="#fff"/><path d="M191.31,68.94v-.17C191.31,65,193.37,63,196,63a3.56,3.56,0,0,1,3.39,1.85V58.5h3.75V74.31h-3.75V72.53a3.72,3.72,0,0,1-3.43,2C193.39,74.57,191.31,72.74,191.31,68.94Zm8.15-.06v-.17c0-1.85-.78-2.84-2.16-2.84s-2.17.95-2.17,2.86v.17c0,1.84.82,2.79,2.13,2.79S199.46,70.74,199.46,68.88Z" fill="#fff"/><path d="M212.29,73.2l-4.39-9.87H212l2.27,5.86,2.09-5.86h3.6L214.06,78h-3.59Z" fill="#fff"/><path d="M219.73,69v-.17c0-3.53,2.62-5.75,6-5.75s6,2.16,6,5.65v.16c0,3.57-2.63,5.72-6,5.72S219.73,72.51,219.73,69Zm8.19-.06v-.17c0-1.85-.74-2.88-2.17-2.88s-2.18,1-2.18,2.84v.16c0,1.89.73,2.92,2.18,2.92S227.92,70.72,227.92,68.9Z" fill="#fff"/><path d="M233,70.49V63.33h3.76v6.55c0,1.24.48,1.85,1.55,1.85s1.87-.67,1.87-2.08V63.33h3.76v11h-3.76v-1.7a3.61,3.61,0,0,1-3.49,2C234.55,74.57,233,73.26,233,70.49Z" fill="#fff"/><path d="M245.54,64.51,247.22,59l3.31,1.11-2.87,5.19Z" fill="#fff"/><path d="M250.66,63.33h3.76v2.19A3.45,3.45,0,0,1,258,63.19v3.5c-2.29-.06-3.55.65-3.55,2.42v5.2h-3.76Z" fill="#fff"/><path d="M258.64,69v-.17A5.62,5.62,0,0,1,264.58,63c3,0,5.59,1.72,5.59,5.67v1h-7.73A2.2,2.2,0,0,0,264.73,72c1.24,0,1.76-.56,1.91-1.3h3.53c-.34,2.48-2.25,3.89-5.57,3.89S258.64,72.55,258.64,69Zm7.87-1.39c-.06-1.32-.71-2-1.93-2a2.09,2.09,0,0,0-2.1,2Z" fill="#fff"/><path d="M20.52,95v-.17A5.62,5.62,0,0,1,26.47,89c3,0,5.58,1.72,5.58,5.67v1H24.33A2.19,2.19,0,0,0,26.61,98c1.24,0,1.77-.56,1.91-1.3h3.53c-.33,2.48-2.24,3.89-5.56,3.89S20.52,98.55,20.52,95Zm7.88-1.39c-.06-1.32-.72-2-1.93-2a2.08,2.08,0,0,0-2.1,2Z" fill="#fff"/><path d="M33.36,89.33h3.75V91.1A3.88,3.88,0,0,1,40.73,89c2.12,0,3.59,1.32,3.59,4.13v7.14H40.56V93.93c0-1.24-.49-1.85-1.58-1.85s-1.87.67-1.87,2.08v6.15H33.36Z" fill="#fff"/><path d="M46.65,96.79v-4.9H45.33V89.33h1.32V87h3.76v2.29h2.16v2.56H50.41v4.54c0,.8.4,1.15,1.11,1.15a3,3,0,0,0,1.07-.18v2.85a7.7,7.7,0,0,1-2.08.32C48,100.57,46.65,99.37,46.65,96.79Z" fill="#fff"/><path d="M53.91,86.35A2.08,2.08,0,1,1,56,88.28,2,2,0,0,1,53.91,86.35Zm.19,3h3.76v11H54.1Z" fill="#fff"/><path d="M60.38,96.79v-4.9H59.06V89.33h1.32V87h3.76v2.29H66.3v2.56H64.14v4.54c0,.8.4,1.15,1.11,1.15a3,3,0,0,0,1.07-.18v2.85a7.61,7.61,0,0,1-2.07.32C61.77,100.57,60.38,99.37,60.38,96.79Z" fill="#fff"/><path d="M67.84,84.5h3.73v15.81H67.84Z" fill="#fff"/><path d="M73,95v-.17A5.62,5.62,0,0,1,78.94,89c3,0,5.59,1.72,5.59,5.67v1H76.8A2.2,2.2,0,0,0,79.09,98c1.24,0,1.77-.56,1.91-1.3h3.53c-.34,2.48-2.25,3.89-5.56,3.89S73,98.55,73,95Zm7.88-1.39c-.07-1.32-.72-2-1.94-2a2.07,2.07,0,0,0-2.09,2Z" fill="#fff"/><path d="M85.29,94.94v-.17C85.29,91,87.35,89,90,89a3.55,3.55,0,0,1,3.38,1.85V84.5h3.76v15.81H93.33V98.53a3.71,3.71,0,0,1-3.42,2C87.37,100.57,85.29,98.74,85.29,94.94Zm8.14-.06v-.17c0-1.85-.77-2.84-2.16-2.84s-2.16.95-2.16,2.86v.17c0,1.84.82,2.79,2.12,2.79S93.43,96.74,93.43,94.88Z" fill="#fff"/><path d="M103.33,96.79v-4.9H102V89.33h1.33V87h3.75v2.29h2.17v2.56h-2.17v4.54a1,1,0,0,0,1.12,1.15,3,3,0,0,0,1.07-.18v2.85a7.7,7.7,0,0,1-2.08.32C104.71,100.57,103.33,99.37,103.33,96.79Z" fill="#fff"/><path d="M110.09,95v-.17c0-3.53,2.62-5.75,6-5.75s6,2.16,6,5.65v.16c0,3.57-2.63,5.72-6,5.72S110.09,98.51,110.09,95Zm8.19-.06v-.17c0-1.85-.74-2.88-2.17-2.88s-2.18,1-2.18,2.84v.16c0,1.89.74,2.92,2.18,2.92S118.28,96.72,118.28,94.9Z" fill="#fff"/><path d="M131,98.61v1.7h-3.75V84.5H131V91A3.89,3.89,0,0,1,134.43,89c2.56,0,4.64,1.93,4.64,5.69v.17c0,3.78-2.08,5.67-4.67,5.67A3.57,3.57,0,0,1,131,98.61Zm4.24-3.71v-.17c0-1.93-.84-2.86-2.16-2.86s-2.18,1-2.18,2.84v.17c0,1.86.82,2.81,2.18,2.81S135.24,96.7,135.24,94.9Z" fill="#fff"/><path d="M139.84,95v-.17A5.62,5.62,0,0,1,145.79,89c3,0,5.58,1.72,5.58,5.67v1h-7.72A2.19,2.19,0,0,0,145.93,98c1.24,0,1.77-.56,1.91-1.3h3.53c-.33,2.48-2.24,3.89-5.56,3.89S139.84,98.55,139.84,95Zm7.88-1.39c-.06-1.32-.72-2-1.93-2a2.08,2.08,0,0,0-2.1,2Z" fill="#fff"/><path d="M152.09,95v-.17A5.52,5.52,0,0,1,158,89c2.68,0,5.16,1.17,5.37,4.51h-3.53A1.61,1.61,0,0,0,158,92c-1.32,0-2.1.94-2.1,2.79v.17c0,1.91.73,2.89,2.16,2.89A1.82,1.82,0,0,0,160,96h3.38c-.1,2.77-2,4.58-5.52,4.58C154.59,100.57,152.09,98.65,152.09,95Z" fill="#fff"/><path d="M164,97.27c0-2.58,2.18-3.59,5.83-3.59h1v-.25c0-1.05-.25-1.75-1.45-1.75A1.36,1.36,0,0,0,168,93h-3.52c.17-2.65,2.24-3.95,5.25-3.95s4.95,1.24,4.95,4.16v7.11H171V99a3.61,3.61,0,0,1-3.26,1.54C165.78,100.57,164,99.6,164,97.27Zm6.88-.8V95.8h-1c-1.52,0-2.19.29-2.19,1.2,0,.63.42,1,1.3,1C170.13,98,170.92,97.42,170.92,96.47Z" fill="#fff"/><path d="M176.4,96.49V89.33h3.76v6.55c0,1.24.49,1.85,1.56,1.85s1.87-.67,1.87-2.08V89.33h3.75v11h-3.75v-1.7a3.61,3.61,0,0,1-3.49,2C178,100.57,176.4,99.26,176.4,96.49Z" fill="#fff"/><path d="M188.52,96.83H192c.12.8.48,1.24,1.55,1.24s1.34-.36,1.34-.91-.52-.77-2-1c-2.94-.38-4.18-1.24-4.18-3.53,0-2.44,2.16-3.61,4.7-3.61,2.71,0,4.6.92,4.85,3.55h-3.4a1.23,1.23,0,0,0-1.41-1.09c-.82,0-1.24.35-1.24.86s.51.73,1.85.9c3,.38,4.52,1.17,4.52,3.53,0,2.6-1.93,3.78-5,3.78S188.61,99.26,188.52,96.83Z" fill="#fff"/><path d="M199.23,95v-.17A5.62,5.62,0,0,1,205.17,89c3,0,5.59,1.72,5.59,5.67v1H203A2.2,2.2,0,0,0,205.32,98c1.24,0,1.77-.56,1.91-1.3h3.53c-.34,2.48-2.25,3.89-5.56,3.89S199.23,98.55,199.23,95Zm7.88-1.39c-.07-1.32-.72-2-1.94-2a2.07,2.07,0,0,0-2.09,2Z" fill="#fff"/><path d="M215.3,95v-.17A5.61,5.61,0,0,1,221.24,89c3,0,5.58,1.72,5.58,5.67v1H219.1A2.19,2.19,0,0,0,221.39,98c1.24,0,1.76-.56,1.91-1.3h3.52c-.33,2.48-2.24,3.89-5.56,3.89S215.3,98.55,215.3,95Zm7.87-1.39c-.06-1.32-.71-2-1.93-2a2.09,2.09,0,0,0-2.1,2Z" fill="#fff"/><path d="M226.8,89.33h4l2.29,7.08,2.25-7.08h3.59l-4,11h-4.09Z" fill="#fff"/><path d="M238.71,95v-.17A5.62,5.62,0,0,1,244.65,89c3,0,5.59,1.72,5.59,5.67v1h-7.73A2.2,2.2,0,0,0,244.8,98c1.24,0,1.76-.56,1.91-1.3h3.53c-.34,2.48-2.25,3.89-5.56,3.89S238.71,98.55,238.71,95Zm7.88-1.39c-.07-1.32-.72-2-1.94-2a2.09,2.09,0,0,0-2.1,2Z" fill="#fff"/><path d="M251.54,89.33h3.76v2.19a3.45,3.45,0,0,1,3.55-2.33v3.5c-2.29-.06-3.55.65-3.55,2.42v5.2h-3.76Z" fill="#fff"/><path d="M263.83,99.2l-4.39-9.87h4.07l2.27,5.86,2.1-5.86h3.59L265.59,104H262Z" fill="#fff"/><path d="M20.57,120.94v-.17c0-3.74,2.05-5.73,4.66-5.73a3.55,3.55,0,0,1,3.38,1.85V110.5h3.76v15.81H28.61v-1.78a3.72,3.72,0,0,1-3.42,2C22.65,126.57,20.57,124.74,20.57,120.94Zm8.14-.06v-.17c0-1.85-.77-2.84-2.16-2.84s-2.16.95-2.16,2.86v.17c0,1.84.82,2.79,2.12,2.79S28.71,122.74,28.71,120.88Z" fill="#fff"/><path d="M33.69,121v-.17c0-3.53,2.63-5.75,6-5.75s6,2.16,6,5.65v.16c0,3.57-2.62,5.72-6,5.72S33.69,124.51,33.69,121Zm8.19-.06v-.17c0-1.85-.73-2.88-2.16-2.88s-2.19,1-2.19,2.84v.16c0,1.89.74,2.92,2.19,2.92S41.88,122.72,41.88,120.9Z" fill="#fff"/><path d="M47.13,110.5h3.74v15.81H47.13Z" fill="#fff"/><path d="M53,110.5h3.74v15.81H53Z" fill="#fff"/><path d="M58.11,123.27c0-2.58,2.19-3.59,5.84-3.59h1v-.25c0-1.05-.25-1.75-1.45-1.75A1.35,1.35,0,0,0,62.06,119H58.53c.17-2.65,2.25-3.95,5.25-3.95s5,1.24,5,4.16v7.11H65.09V125a3.63,3.63,0,0,1-3.26,1.54C59.86,126.57,58.11,125.6,58.11,123.27Zm6.89-.8v-.67H64c-1.51,0-2.18.29-2.18,1.2,0,.63.42,1,1.3,1C64.2,124,65,123.42,65,122.47Z" fill="#fff"/><path d="M70.57,115.33h3.76v2.19a3.44,3.44,0,0,1,3.54-2.33v3.5c-2.29-.06-3.54.65-3.54,2.42v5.2H70.57Z" fill="#fff"/><path d="M83.06,115.33h3.76V117a3.83,3.83,0,0,1,3.44-2,3,3,0,0,1,3,1.83A4.35,4.35,0,0,1,96.88,115c2.08,0,3.59,1.34,3.59,4.09v7.18H96.71v-6.55c0-1.11-.55-1.66-1.41-1.66A1.63,1.63,0,0,0,93.62,120v6.36H89.91v-6.55c0-1.11-.55-1.66-1.41-1.66A1.63,1.63,0,0,0,86.82,120v6.36H83.06Z" fill="#fff"/><path d="M101.67,123.27c0-2.58,2.18-3.59,5.83-3.59h1v-.25c0-1.05-.25-1.75-1.44-1.75a1.36,1.36,0,0,0-1.5,1.31h-3.52c.17-2.65,2.24-3.95,5.25-3.95s5,1.24,5,4.16v7.11h-3.65V125a3.61,3.61,0,0,1-3.26,1.54C103.41,126.57,101.67,125.6,101.67,123.27Zm6.88-.8v-.67h-1c-1.51,0-2.19.29-2.19,1.2,0,.63.42,1,1.31,1C107.76,124,108.55,123.42,108.55,122.47Z" fill="#fff"/><path d="M114.56,122.79v-4.9h-1.32v-2.56h1.32V113h3.76v2.29h2.16v2.56h-2.16v4.54c0,.8.4,1.15,1.11,1.15a3,3,0,0,0,1.07-.18v2.85a7.63,7.63,0,0,1-2.08.32C116,126.57,114.56,125.37,114.56,122.79Z" fill="#fff"/><path d="M122.42,122.79v-4.9h-1.33v-2.56h1.33V113h3.75v2.29h2.17v2.56h-2.17v4.54a1,1,0,0,0,1.12,1.15,3,3,0,0,0,1.07-.18v2.85a7.76,7.76,0,0,1-2.08.32C123.8,126.57,122.42,125.37,122.42,122.79Z" fill="#fff"/><path d="M129.18,121v-.17a5.61,5.61,0,0,1,5.94-5.75c3,0,5.58,1.72,5.58,5.67v1H133a2.19,2.19,0,0,0,2.29,2.29c1.23,0,1.76-.56,1.91-1.3h3.52c-.33,2.48-2.24,3.89-5.56,3.89S129.18,124.55,129.18,121Zm7.87-1.39c-.06-1.32-.71-2-1.93-2a2.09,2.09,0,0,0-2.1,2Z" fill="#fff"/><path d="M142,115.33h3.76v2.19a3.44,3.44,0,0,1,3.54-2.33v3.5c-2.28-.06-3.54.65-3.54,2.42v5.2H142Z" fill="#fff"/><path d="M150,122.83h3.46c.13.8.49,1.24,1.56,1.24s1.34-.36,1.34-.91-.53-.77-2-1c-2.94-.38-4.18-1.24-4.18-3.53,0-2.44,2.17-3.61,4.71-3.61,2.71,0,4.6.92,4.85,3.55h-3.4a1.23,1.23,0,0,0-1.41-1.09c-.82,0-1.24.35-1.24.86s.5.73,1.85.9c3,.38,4.51,1.17,4.51,3.53,0,2.6-1.93,3.78-5,3.78S150.07,125.26,150,122.83Z" fill="#fff"/><path d="M161.08,124.42a2.09,2.09,0,0,1,2.14-2.12,2.12,2.12,0,1,1,0,4.24A2.09,2.09,0,0,1,161.08,124.42Z" fill="#fff"/></g></g></svg>