<svg xmlns="http://www.w3.org/2000/svg" viewBox="0 0 300 250"><title>H01</title><g id="Layer_2" data-name="Layer 2"><g id="Rect"><rect width="300" height="250" fill="none"/></g><g id="Free_EITC_Yep_free." data-name="Free EITC?Yep, free."><path d="M14.12,41.77H27.46v4.4H19.81v4.19h6.1v4.17h-6.1v7H14.12Z" fill="#14aa40"/><path d="M28.78,47.08h4.95V50a4.55,4.55,0,0,1,4.66-3.07V51.5c-3-.09-4.66.85-4.66,3.17v6.85H28.78Z" fill="#14aa40"/><path d="M39.27,54.48v-.22c0-4.64,3.46-7.57,7.82-7.57,3.95,0,7.35,2.26,7.35,7.46v1.29H44.27a2.89,2.89,0,0,0,3,3c1.63,0,2.32-.75,2.52-1.72h4.64c-.45,3.26-3,5.11-7.32,5.11C42.59,61.85,39.27,59.2,39.27,54.48Zm10.36-1.82c-.08-1.74-.94-2.71-2.54-2.71s-2.51,1-2.76,2.71Z" fill="#14aa40"/><path d="M55.37,54.48v-.22c0-4.64,3.45-7.57,7.82-7.57,4,0,7.34,2.26,7.34,7.46v1.29H60.37a2.89,2.89,0,0,0,3,3c1.63,0,2.32-.75,2.51-1.72h4.64c-.44,3.26-3,5.11-7.31,5.11C58.69,61.85,55.37,59.2,55.37,54.48Zm10.36-1.82c-.08-1.74-.94-2.71-2.54-2.71a2.75,2.75,0,0,0-2.76,2.71Z" fill="#14aa40"/><path d="M77.71,41.77H91.35v4.37h-8v3.39h6.38v4H83.34v3.59h8.45v4.36H77.71Z" fill="#14aa40"/><path d="M94.3,41.77H100V61.52H94.3Z" fill="#14aa40"/><path d="M107.28,46.14h-5.11V41.77h15.91v4.37H113V61.52h-5.69Z" fill="#14aa40"/><path d="M118.44,51.77v-.22a9.65,9.65,0,0,1,10.08-10.08c5.13,0,8.7,2.38,9.17,7.59h-5.83c-.22-2-1.33-3.12-3.32-3.12-2.54,0-4.14,2-4.14,5.58v.22c0,3.57,1.52,5.58,4.23,5.58a3.4,3.4,0,0,0,3.67-3.23h5.64c-.39,5.11-4.09,7.76-9.2,7.76C121.83,61.85,118.44,57.82,118.44,51.77Z" fill="#14aa40"/><path d="M142.85,54.51c0-2.1,1.43-3.43,2.7-4.64.94-.92,1.8-1.74,1.8-2.71a1.48,1.48,0,0,0-1.69-1.66c-1.19,0-2,.91-2.18,2.43h-4.81c.14-4.17,3.13-6.43,7.38-6.43s6.66,1.9,6.66,5.19a5.61,5.61,0,0,1-2,4.14c-1.35,1.36-2.93,2.43-3.18,3.79V55h-4.66Zm-.64,4.58a3,3,0,0,1,5.91,0,3,3,0,0,1-5.91,0Z" fill="#14aa40"/><path d="M18.87,82.31,12.44,71h6.15l3.35,6.65L25.28,71h5.41L24.56,82.31v8.45H18.87Z" fill="#14aa40"/><path d="M28.62,83.72V83.5c0-4.64,3.45-7.57,7.81-7.57,4,0,7.35,2.27,7.35,7.46v1.3H33.61a2.89,2.89,0,0,0,3,3c1.63,0,2.32-.75,2.52-1.72h4.64c-.44,3.26-3,5.11-7.32,5.11C31.93,91.09,28.62,88.44,28.62,83.72ZM39,81.9c-.08-1.74-.94-2.71-2.54-2.71s-2.51,1-2.76,2.71Z" fill="#14aa40"/><path d="M45.49,76.32h4.94v2.15a5.1,5.1,0,0,1,4.5-2.54c3.37,0,6.11,2.54,6.11,7.49v.22c0,5-2.74,7.45-6.14,7.45a4.77,4.77,0,0,1-4.47-2.45v7H45.49ZM56,83.64v-.22c0-2.54-1.11-3.76-2.85-3.76s-2.87,1.3-2.87,3.73v.22c0,2.46,1.08,3.7,2.87,3.7S56,86,56,83.64Z" fill="#14aa40"/><path d="M61.45,93l2.32-7.26,4.58,1.63-4,6.76Z" fill="#14aa40"/><path d="M76.27,79.69H74.45V76.32h1.82V75.05c0-3.59,2.24-5.31,5.67-5.31a8.56,8.56,0,0,1,2.26.31v3.62a4.53,4.53,0,0,0-1.35-.2,1.46,1.46,0,0,0-1.66,1.58v1.27h2.93v3.37H81.19V90.76H76.27Z" fill="#14aa40"/><path d="M85.77,76.32h5v2.87a4.56,4.56,0,0,1,4.66-3.07v4.62c-3-.09-4.66.85-4.66,3.17v6.85h-5Z" fill="#14aa40"/><path d="M96.26,83.72V83.5c0-4.64,3.46-7.57,7.82-7.57,4,0,7.35,2.27,7.35,7.46v1.3H101.26a2.89,2.89,0,0,0,3,3c1.63,0,2.32-.75,2.52-1.72h4.64c-.45,3.26-3,5.11-7.32,5.11C99.58,91.09,96.26,88.44,96.26,83.72Zm10.36-1.82c-.08-1.74-.94-2.71-2.54-2.71s-2.51,1-2.76,2.71Z" fill="#14aa40"/><path d="M112.36,83.72V83.5c0-4.64,3.45-7.57,7.82-7.57,3.95,0,7.34,2.27,7.34,7.46v1.3H117.36a2.89,2.89,0,0,0,3,3c1.63,0,2.32-.75,2.51-1.72h4.64c-.44,3.26-3,5.11-7.31,5.11C115.68,91.09,112.36,88.44,112.36,83.72Zm10.36-1.82c-.08-1.74-.94-2.71-2.54-2.71a2.75,2.75,0,0,0-2.76,2.71Z" fill="#14aa40"/><path d="M128.9,88.28a2.75,2.75,0,0,1,2.82-2.79,2.79,2.79,0,1,1,0,5.58A2.76,2.76,0,0,1,128.9,88.28Z" fill="#14aa40"/></g></g></svg>