<svg xmlns="http://www.w3.org/2000/svg" viewBox="0 0 300 250"><title>H8</title><g id="Layer_2" data-name="Layer 2"><g id="Artboard_3" data-name="Artboard 3" style="isolation:isolate"><g id="headline1"><g id="Ready_for_your_refund_Get_expert_tax_prep_from_home_with_Tax" data-name="Ready for your refund? Get expert  tax prep from home with Tax"><path d="M24.87,31.48h7.61c5.08,0,7.9,2.06,7.9,6.16v.11a5.08,5.08,0,0,1-3.5,5.11l4.64,8H35.66l-3.94-7h-1.3v7H24.87Zm7.34,8.85c1.87,0,2.79-.79,2.79-2.36v-.11c0-1.57-1-2.2-2.77-2.2H30.42v4.67Z" fill="#fff"/><path d="M41.52,44v-.22c0-4.56,3.4-7.44,7.69-7.44,3.88,0,7.23,2.23,7.23,7.34v1.27h-10a2.83,2.83,0,0,0,3,3c1.6,0,2.28-.73,2.47-1.68h4.57c-.44,3.2-2.91,5-7.2,5C44.78,51.22,41.52,48.62,41.52,44Zm10.19-1.79c-.08-1.71-.92-2.66-2.5-2.66s-2.47.95-2.72,2.66Z" fill="#fff"/><path d="M57.44,47c0-3.34,2.82-4.65,7.55-4.65h1.36V42c0-1.36-.33-2.26-1.88-2.26a1.75,1.75,0,0,0-1.93,1.69H58c.22-3.42,2.91-5.11,6.79-5.11s6.41,1.6,6.41,5.38V50.9H66.46V49.24a4.67,4.67,0,0,1-4.21,2C59.69,51.22,57.44,50,57.44,47Zm8.91-1v-.87H65.07c-1.95,0-2.82.38-2.82,1.55,0,.81.54,1.33,1.68,1.33C65.32,47.94,66.35,47.15,66.35,45.93Z" fill="#fff"/><path d="M72.84,43.94v-.21c0-4.84,2.66-7.42,6-7.42a4.59,4.59,0,0,1,4.37,2.39V30.45H88.1V50.9H83.24V48.59a4.77,4.77,0,0,1-4.43,2.63C75.53,51.22,72.84,48.86,72.84,43.94Zm10.54-.08v-.21c0-2.39-1-3.67-2.8-3.67s-2.8,1.22-2.8,3.69v.22c0,2.39,1.06,3.61,2.75,3.61S83.38,46.28,83.38,43.86Z" fill="#fff"/><path d="M95,49.46,89.35,36.69h5.27l2.94,7.58,2.71-7.58h4.65l-7.61,19H92.67Z" fill="#fff"/><path d="M111.84,40h-1.79V36.69h1.79V35.44c0-3.53,2.2-5.21,5.57-5.21a8.41,8.41,0,0,1,2.23.3v3.55a4.85,4.85,0,0,0-1.33-.18,1.42,1.42,0,0,0-1.63,1.54v1.25h2.87V40h-2.87V50.9h-4.84Z" fill="#fff"/><path d="M119.93,44v-.22c0-4.56,3.4-7.44,7.8-7.44s7.74,2.8,7.74,7.31v.22c0,4.61-3.39,7.38-7.77,7.38S119.93,48.56,119.93,44Zm10.6-.08v-.22c0-2.39-.95-3.72-2.8-3.72s-2.83,1.28-2.83,3.67v.22c0,2.44,1,3.77,2.83,3.77S130.53,46.25,130.53,43.89Z" fill="#fff"/><path d="M137.18,36.69H142v2.83a4.49,4.49,0,0,1,4.59-3V41c-3-.08-4.59.84-4.59,3.12V50.9h-4.86Z" fill="#fff"/><path d="M157.79,49.46l-5.67-12.77h5.27l2.93,7.58L163,36.69h4.64l-7.6,19h-4.65Z" fill="#fff"/><path d="M167.41,44v-.22c0-4.56,3.4-7.44,7.8-7.44s7.74,2.8,7.74,7.31v.22c0,4.61-3.4,7.38-7.77,7.38S167.41,48.56,167.41,44ZM178,43.89v-.22c0-2.39-.95-3.72-2.79-3.72s-2.83,1.28-2.83,3.67v.22c0,2.44,1,3.77,2.83,3.77S178,46.25,178,43.89Z" fill="#fff"/><path d="M184.55,46V36.69h4.86v8.48c0,1.6.63,2.39,2,2.39s2.42-.87,2.42-2.69V36.69h4.86V50.9h-4.86V48.7a4.68,4.68,0,0,1-4.51,2.52C186.59,51.22,184.55,49.54,184.55,46Z" fill="#fff"/><path d="M201.17,36.69H206v2.83a4.49,4.49,0,0,1,4.59-3V41c-3-.08-4.59.84-4.59,3.12V50.9h-4.86Z" fill="#fff"/><path d="M24.44,65.94H29.3v2.83a4.49,4.49,0,0,1,4.59-3v4.54c-3-.08-4.59.84-4.59,3.12v6.74H24.44Z" fill="#fff"/><path d="M34.76,73.22V73c0-4.56,3.4-7.44,7.69-7.44,3.88,0,7.22,2.23,7.22,7.34v1.27h-10a2.83,2.83,0,0,0,3,3c1.6,0,2.28-.73,2.47-1.68h4.56c-.43,3.2-2.9,5-7.2,5S34.76,77.87,34.76,73.22ZM45,71.43c-.09-1.71-.93-2.66-2.5-2.66s-2.47,1-2.72,2.66Z" fill="#fff"/><path d="M52.09,69.26H50.3V65.94h1.79V64.69c0-3.53,2.2-5.21,5.57-5.21a8.33,8.33,0,0,1,2.22.3v3.55a4.74,4.74,0,0,0-1.33-.18,1.42,1.42,0,0,0-1.63,1.54v1.25H59.8v3.32H56.92V80.15H52.09Z" fill="#fff"/><path d="M61.32,75.2V65.94h4.86v8.48c0,1.6.63,2.39,2,2.39s2.42-.87,2.42-2.69V65.94h4.86V80.15H70.61V78a4.67,4.67,0,0,1-4.51,2.52C63.36,80.47,61.32,78.79,61.32,75.2Z" fill="#fff"/><path d="M77.94,65.94h4.87v2.28a5,5,0,0,1,4.67-2.66c2.74,0,4.64,1.71,4.64,5.35v9.24H87.26V71.89c0-1.6-.62-2.39-2-2.39s-2.41.87-2.41,2.69v8H77.94Z" fill="#fff"/><path d="M93.78,73.19V73c0-4.84,2.66-7.42,6-7.42A4.59,4.59,0,0,1,104.18,68V59.7H109V80.15h-4.86V77.84a4.77,4.77,0,0,1-4.43,2.63C96.47,80.47,93.78,78.11,93.78,73.19Zm10.54-.08V72.9c0-2.39-1-3.67-2.8-3.67s-2.8,1.22-2.8,3.69v.22c0,2.39,1.06,3.61,2.75,3.61S104.32,75.53,104.32,73.11Z" fill="#fff"/><path d="M114.67,73.25c0-2.07,1.41-3.37,2.66-4.56.92-.9,1.76-1.72,1.76-2.67a1.44,1.44,0,0,0-1.65-1.63c-1.17,0-2,.9-2.15,2.39h-4.73c.14-4.1,3.07-6.32,7.26-6.32s6.54,1.87,6.54,5.1a5.52,5.52,0,0,1-2,4.08c-1.33,1.33-2.88,2.39-3.12,3.72v.4h-4.59ZM114,77.76a2.91,2.91,0,0,1,5.81,0,2.91,2.91,0,0,1-5.81,0Z" fill="#fff"/><path d="M130.55,70.56v-.22c0-5.92,4.35-9.91,10.19-9.91,4.59,0,8.66,2.09,9,7.14h-5.51c-.27-1.82-1.44-2.77-3.5-2.77-2.75,0-4.4,2.12-4.4,5.62v.22c0,3.15,1.16,5.6,4.53,5.6,2.72,0,3.75-1.39,3.86-2.94h-3.64V69.42h9.13v2.39c0,4.94-3.24,8.66-9.51,8.66C134.14,80.47,130.55,76.37,130.55,70.56Z" fill="#fff"/><path d="M151.36,73.22V73c0-4.56,3.39-7.44,7.68-7.44,3.89,0,7.23,2.23,7.23,7.34v1.27h-10a2.84,2.84,0,0,0,3,3c1.6,0,2.28-.73,2.47-1.68h4.56c-.44,3.2-2.91,5-7.2,5C154.62,80.47,151.36,77.87,151.36,73.22Zm10.18-1.79c-.08-1.71-.92-2.66-2.5-2.66a2.7,2.7,0,0,0-2.71,2.66Z" fill="#fff"/><path d="M168.61,75.58V69.26h-1.72V65.94h1.72V63h4.86v3h2.8v3.32h-2.8v5.86c0,1,.51,1.5,1.44,1.5a3.54,3.54,0,0,0,1.38-.25v3.7a10.36,10.36,0,0,1-2.69.4C170.4,80.47,168.61,78.93,168.61,75.58Z" fill="#fff"/><path d="M182.29,73.22V73c0-4.56,3.4-7.44,7.69-7.44,3.89,0,7.23,2.23,7.23,7.34v1.27h-10a2.83,2.83,0,0,0,3,3c1.6,0,2.28-.73,2.47-1.68h4.57c-.44,3.2-2.91,5-7.2,5C185.55,80.47,182.29,77.87,182.29,73.22Zm10.19-1.79c-.08-1.71-.92-2.66-2.5-2.66s-2.47,1-2.71,2.66Z" fill="#fff"/><path d="M201.71,72.92l-4.42-7h5.59l2.2,3.75,2.15-3.75h5l-4.48,6.6,4.91,7.61h-5.59l-2.53-4.24L202,80.15h-5Z" fill="#fff"/><path d="M214,65.94h4.86v2.12a5,5,0,0,1,4.43-2.5c3.31,0,6,2.5,6,7.36v.22c0,4.89-2.69,7.33-6,7.33a4.68,4.68,0,0,1-4.4-2.41V84.9H214Zm10.35,7.2v-.22c0-2.5-1.09-3.69-2.8-3.69s-2.83,1.28-2.83,3.67v.21c0,2.42,1.06,3.64,2.83,3.64S224.37,75.48,224.37,73.14Z" fill="#fff"/><path d="M230.31,73.22V73c0-4.56,3.4-7.44,7.69-7.44,3.88,0,7.22,2.23,7.22,7.34v1.27h-10a2.83,2.83,0,0,0,3,3c1.6,0,2.28-.73,2.47-1.68h4.56c-.43,3.2-2.9,5-7.19,5C233.57,80.47,230.31,77.87,230.31,73.22Zm10.19-1.79c-.08-1.71-.92-2.66-2.5-2.66s-2.47,1-2.72,2.66Z" fill="#fff"/><path d="M246.91,65.94h4.86v2.83a4.49,4.49,0,0,1,4.59-3v4.54c-3-.08-4.59.84-4.59,3.12v6.74h-4.86Z" fill="#fff"/><path d="M259,75.58V69.26h-1.71V65.94H259V63h4.86v3h2.8v3.32h-2.8v5.86c0,1,.51,1.5,1.44,1.5a3.54,3.54,0,0,0,1.38-.25v3.7a10.36,10.36,0,0,1-2.69.4C260.79,80.47,259,78.93,259,75.58Z" fill="#fff"/><path d="M25.09,104.83V98.51H23.38V95.19h1.71v-3H30v3h2.8v3.32H30v5.86a1.3,1.3,0,0,0,1.44,1.5,3.59,3.59,0,0,0,1.39-.25v3.7a10.43,10.43,0,0,1-2.69.4C26.88,109.72,25.09,108.18,25.09,104.83Z" fill="#fff"/><path d="M33.84,105.46c0-3.34,2.82-4.65,7.55-4.65h1.36v-.32c0-1.36-.33-2.26-1.88-2.26a1.75,1.75,0,0,0-1.93,1.69H34.38c.22-3.42,2.91-5.11,6.79-5.11s6.41,1.6,6.41,5.38v9.21H42.85v-1.66a4.65,4.65,0,0,1-4.21,2C36.09,109.72,33.84,108.47,33.84,105.46Zm8.91-1v-.87H41.47c-2,0-2.83.38-2.83,1.55,0,.81.55,1.33,1.69,1.33A2.15,2.15,0,0,0,42.75,104.43Z" fill="#fff"/><path d="M53.53,102.17l-4.43-7h5.6l2.2,3.75L59,95.19h5l-4.48,6.6,4.91,7.61H58.88l-2.53-4.24-2.58,4.24h-5Z" fill="#fff"/><path d="M70.77,95.19h4.87v2.12a5,5,0,0,1,4.42-2.5c3.32,0,6,2.5,6,7.36v.22c0,4.89-2.69,7.33-6,7.33a4.67,4.67,0,0,1-4.4-2.41v6.84H70.77Zm10.35,7.2v-.22c0-2.5-1.08-3.69-2.79-3.69s-2.83,1.28-2.83,3.67v.21c0,2.42,1.06,3.64,2.83,3.64S81.12,104.73,81.12,102.39Z" fill="#fff"/><path d="M87.83,95.19h4.86V98a4.49,4.49,0,0,1,4.59-3v4.54c-3-.08-4.59.84-4.59,3.12v6.74H87.83Z" fill="#fff"/><path d="M98.15,102.47v-.22c0-4.56,3.4-7.44,7.69-7.44,3.88,0,7.22,2.23,7.22,7.34v1.27h-10a2.83,2.83,0,0,0,3,3c1.6,0,2.28-.73,2.47-1.68h4.56c-.43,3.2-2.9,5-7.19,5C101.41,109.72,98.15,107.12,98.15,102.47Zm10.19-1.79c-.08-1.71-.93-2.66-2.5-2.66s-2.47,1-2.72,2.66Z" fill="#fff"/><path d="M114.75,95.19h4.86v2.12a5,5,0,0,1,4.43-2.5c3.31,0,6,2.5,6,7.36v.22c0,4.89-2.69,7.33-6,7.33a4.67,4.67,0,0,1-4.4-2.41v6.84h-4.86Zm10.34,7.2v-.22c0-2.5-1.08-3.69-2.79-3.69s-2.83,1.28-2.83,3.67v.21c0,2.42,1.06,3.64,2.83,3.64S125.09,104.73,125.09,102.39Z" fill="#fff"/><path d="M137.48,98.51h-1.79V95.19h1.79V93.94c0-3.53,2.2-5.21,5.57-5.21a8.33,8.33,0,0,1,2.22.3v3.55a4.74,4.74,0,0,0-1.33-.18,1.42,1.42,0,0,0-1.63,1.54v1.25h2.88v3.32h-2.88V109.4h-4.83Z" fill="#fff"/><path d="M146.82,95.19h4.86V98a4.49,4.49,0,0,1,4.59-3v4.54c-3-.08-4.59.84-4.59,3.12v6.74h-4.86Z" fill="#fff"/><path d="M157.14,102.47v-.22c0-4.56,3.4-7.44,7.8-7.44s7.74,2.8,7.74,7.31v.22c0,4.61-3.39,7.38-7.77,7.38S157.14,107.06,157.14,102.47Zm10.6-.08v-.22c0-2.39-1-3.72-2.8-3.72s-2.83,1.28-2.83,3.67v.22c0,2.44.95,3.77,2.83,3.77S167.74,104.75,167.74,102.39Z" fill="#fff"/><path d="M174.39,95.19h4.86v2.18a5,5,0,0,1,4.46-2.56,3.87,3.87,0,0,1,3.85,2.37,5.64,5.64,0,0,1,4.7-2.37c2.69,0,4.65,1.74,4.65,5.3v9.29H192v-8.48c0-1.44-.7-2.14-1.81-2.14a2.11,2.11,0,0,0-2.18,2.39v8.23h-4.8v-8.48c0-1.44-.71-2.14-1.82-2.14a2.11,2.11,0,0,0-2.18,2.39v8.23h-4.86Z" fill="#fff"/><path d="M204.21,89h4.86v8.52a5,5,0,0,1,4.68-2.66c2.74,0,4.64,1.71,4.64,5.35v9.24h-4.86v-8.26c0-1.6-.63-2.39-2-2.39s-2.42.87-2.42,2.69v8h-4.86Z" fill="#fff"/><path d="M220,102.47v-.22c0-4.56,3.4-7.44,7.8-7.44s7.74,2.8,7.74,7.31v.22c0,4.61-3.4,7.38-7.77,7.38S220,107.06,220,102.47Zm10.59-.08v-.22c0-2.39-1-3.72-2.79-3.72S225,99.73,225,102.12v.22c0,2.44.95,3.77,2.83,3.77S230.58,104.75,230.58,102.39Z" fill="#fff"/><path d="M237.24,95.19h4.86v2.18a5,5,0,0,1,4.46-2.56,3.87,3.87,0,0,1,3.85,2.37,5.63,5.63,0,0,1,4.7-2.37c2.69,0,4.65,1.74,4.65,5.3v9.29h-4.87v-8.48c0-1.44-.7-2.14-1.82-2.14a2.1,2.1,0,0,0-2.17,2.39v8.23h-4.81v-8.48c0-1.44-.7-2.14-1.82-2.14a2.1,2.1,0,0,0-2.17,2.39v8.23h-4.86Z" fill="#fff"/><path d="M261.36,102.47v-.22c0-4.56,3.39-7.44,7.68-7.44,3.89,0,7.23,2.23,7.23,7.34v1.27h-10a2.84,2.84,0,0,0,3,3c1.61,0,2.29-.73,2.48-1.68h4.56c-.44,3.2-2.91,5-7.2,5C264.62,109.72,261.36,107.12,261.36,102.47Zm10.18-1.79C271.46,99,270.62,98,269,98a2.7,2.7,0,0,0-2.71,2.66Z" fill="#fff"/><path d="M23.24,124.44h5.08l2.07,8.5,2.39-8.5h3.91l2.12,8.5,2.31-8.5h4.61l-4.51,14.21H36.58l-2.12-7.93-2.2,7.93H27.54Z" fill="#fff"/><path d="M46.87,120.59a2.68,2.68,0,1,1,2.67,2.49A2.51,2.51,0,0,1,46.87,120.59Zm.25,3.85H52v14.21H47.12Z" fill="#fff"/><path d="M55.24,134.08v-6.32H53.53v-3.32h1.71v-3H60.1v3h2.8v3.32H60.1v5.86c0,1,.52,1.5,1.44,1.5a3.62,3.62,0,0,0,1.39-.25v3.7a10.43,10.43,0,0,1-2.69.4C57,139,55.24,137.42,55.24,134.08Z" fill="#fff"/><path d="M64.75,118.2h4.86v8.52a5,5,0,0,1,4.67-2.66c2.74,0,4.64,1.71,4.64,5.35v9.24H74.06v-8.26c0-1.6-.62-2.39-2-2.39s-2.41.87-2.41,2.69v8H64.75Z" fill="#fff"/><path d="M90.38,123.52h-5v-4.29H101v4.29H96v15.13h-5.6Z" fill="#fff"/><path d="M100,134.71c0-3.34,2.82-4.65,7.55-4.65h1.36v-.32c0-1.36-.33-2.26-1.88-2.26a1.75,1.75,0,0,0-1.93,1.69h-4.56c.22-3.42,2.91-5.11,6.79-5.11s6.41,1.61,6.41,5.38v9.21H109V137a4.65,4.65,0,0,1-4.21,2C102.28,139,100,137.72,100,134.71Zm8.91-1v-.87h-1.28c-2,0-2.83.38-2.83,1.55,0,.81.55,1.33,1.69,1.33A2.15,2.15,0,0,0,108.94,133.68Z" fill="#fff"/><path d="M119.72,131.42l-4.43-7h5.6l2.2,3.75,2.14-3.75h5l-4.48,6.6,4.91,7.61h-5.59l-2.53-4.24L120,138.65h-5Z" fill="#fff"/><path d="M137.4,119.23h7.39c5.32,0,7.79,2.36,7.79,6.49v.11c0,4.07-2.74,6.27-7.55,6.27h-2.09v6.55H137.4Zm7.14,9.07c1.8,0,2.75-.84,2.75-2.45v-.1c0-1.66-1-2.34-2.72-2.34h-1.63v4.89Z" fill="#fff"/><path d="M154.27,124.44h4.86v2.83a4.48,4.48,0,0,1,4.59-3v4.54c-3-.08-4.59.84-4.59,3.12v6.74h-4.86Z" fill="#fff"/><path d="M164.59,131.72v-.22c0-4.56,3.39-7.44,7.79-7.44s7.74,2.8,7.74,7.31v.22c0,4.61-3.39,7.38-7.76,7.38S164.59,136.31,164.59,131.72Zm10.59-.08v-.22c0-2.39-1-3.72-2.8-3.72s-2.82,1.28-2.82,3.67v.22c0,2.44.95,3.77,2.82,3.77S175.18,134,175.18,131.64Z" fill="#fff"/><path d="M186.18,129.06v-.22c0-5.92,4.35-9.91,10.19-9.91,4.59,0,8.66,2.09,9,7.14H199.9c-.27-1.82-1.44-2.77-3.51-2.77-2.74,0-4.4,2.12-4.4,5.62v.22c0,3.15,1.17,5.6,4.54,5.6,2.72,0,3.75-1.39,3.86-2.94h-3.64v-3.88h9.12v2.39c0,4.94-3.23,8.66-9.5,8.66C189.77,139,186.18,134.87,186.18,129.06Z" fill="#fff"/><path d="M207,131.72v-.22c0-4.56,3.4-7.44,7.8-7.44s7.74,2.8,7.74,7.31v.22c0,4.61-3.39,7.38-7.77,7.38S207,136.31,207,131.72Zm10.6-.08v-.22c0-2.39-1-3.72-2.8-3.72S212,129,212,131.37v.22c0,2.44.95,3.77,2.82,3.77S217.58,134,217.58,131.64Z" fill="#fff"/><path d="M223.44,136.2a2.71,2.71,0,0,1,2.77-2.74,2.75,2.75,0,1,1,0,5.49A2.72,2.72,0,0,1,223.44,136.2Z" fill="#fff"/></g><g id="rect"><rect width="300" height="250" fill="none"/></g></g></g></g></svg>