<svg xmlns="http://www.w3.org/2000/svg" viewBox="0 0 300 250"><title>Asset 22</title><g id="Layer_2" data-name="Layer 2"><g id="Rect"><rect width="300" height="250" fill="none"/></g><g id="Avoid_guessing_games._Know_the_price_before_you_begin." data-name="Avoid guessing games. Know the price before you begin."><path d="M28,21.25h8.74l7.5,23.6H37.06l-1.25-4.39H28l-1.26,4.39h-6.3Zm1.32,14.56h5.18l-2.58-9.08Z" fill="#fff"/><path d="M42.6,27.59h6.31l3.6,11.12L56,27.59h5.64l-6.3,17.26H48.94Z" fill="#fff"/><path d="M61.32,36.43v-.26c0-5.55,4.12-9,9.47-9s9.4,3.4,9.4,8.88v.27c0,5.61-4.12,9-9.44,9S61.32,42,61.32,36.43Zm12.87-.1v-.26c0-2.9-1.16-4.52-3.4-4.52S67.36,33.1,67.36,36v.27c0,3,1.15,4.58,3.43,4.58S74.19,39.21,74.19,36.33Z" fill="#fff"/><path d="M82.14,22.9a3.08,3.08,0,0,1,3.23-3.07,3.06,3.06,0,1,1,0,6.11A3.06,3.06,0,0,1,82.14,22.9Zm.3,4.69h5.9V44.85h-5.9Z" fill="#fff"/><path d="M90.65,36.4v-.26c0-5.88,3.24-9,7.33-9A5.59,5.59,0,0,1,103.29,30V20h5.91V44.85h-5.91V42a5.79,5.79,0,0,1-5.38,3.2C93.92,45.24,90.65,42.37,90.65,36.4Zm12.81-.1V36c0-2.91-1.22-4.46-3.4-4.46s-3.4,1.49-3.4,4.49v.26c0,2.91,1.29,4.39,3.33,4.39S103.46,39.24,103.46,36.3Z" fill="#fff"/><path d="M117.25,44.85h5.87c.27,1.25,1,2.24,3.17,2.24,2.61,0,3.67-1.48,3.67-3.63V40.82A6.06,6.06,0,0,1,124.61,44c-4,0-7.33-3-7.33-8.28v-.27c0-5.08,3.27-8.32,7.33-8.32A5.62,5.62,0,0,1,130,30V27.59h5.9V43.4c0,5.15-3.39,7.85-9.57,7.85C120.42,51.25,117.71,48.78,117.25,44.85Zm12.87-9.18v-.23c0-2.37-1.22-3.89-3.4-3.89s-3.4,1.55-3.4,3.93v.26c0,2.38,1.26,3.89,3.37,3.89S130.12,38.12,130.12,35.67Z" fill="#fff"/><path d="M138.73,38.84V27.59h5.91V37.88c0,1.95.76,2.91,2.44,2.91S150,39.73,150,37.52V27.59h5.91V44.85H150V42.18a5.67,5.67,0,0,1-5.48,3.06C141.21,45.24,138.73,43.2,138.73,38.84Z" fill="#fff"/><path d="M158,36.43v-.26c0-5.55,4.13-9,9.34-9,4.72,0,8.78,2.71,8.78,8.92v1.55H164c.16,2.27,1.48,3.6,3.6,3.6,1.94,0,2.77-.9,3-2h5.54c-.52,3.89-3.53,6.1-8.74,6.1C162,45.24,158,42.08,158,36.43Zm12.38-2.18c-.1-2.08-1.12-3.23-3-3.23s-3,1.15-3.3,3.23Z" fill="#fff"/><path d="M177.18,39.37h5.44c.2,1.25.76,2,2.44,2,1.46,0,2.12-.56,2.12-1.42s-.83-1.22-3.2-1.55c-4.62-.6-6.57-2-6.57-5.55,0-3.83,3.4-5.68,7.39-5.68,4.26,0,7.23,1.46,7.62,5.58h-5.34A1.93,1.93,0,0,0,184.87,31c-1.29,0-2,.56-2,1.35s.79,1.16,2.9,1.42c4.79.59,7.1,1.85,7.1,5.54,0,4.1-3,5.94-7.82,5.94S177.31,43.2,177.18,39.37Z" fill="#fff"/><path d="M193.78,39.37h5.44c.2,1.25.76,2,2.44,2,1.46,0,2.12-.56,2.12-1.42s-.83-1.22-3.21-1.55c-4.62-.6-6.56-2-6.56-5.55,0-3.83,3.4-5.68,7.39-5.68,4.26,0,7.23,1.46,7.62,5.58h-5.34A1.93,1.93,0,0,0,201.47,31c-1.29,0-1.95.56-1.95,1.35s.79,1.16,2.9,1.42c4.79.59,7.1,1.85,7.1,5.54,0,4.1-3,5.94-7.82,5.94S193.91,43.2,193.78,39.37Z" fill="#fff"/><path d="M211.3,22.9a3.08,3.08,0,0,1,3.23-3.07,3.06,3.06,0,1,1,0,6.11A3.06,3.06,0,0,1,211.3,22.9Zm.3,4.69h5.9V44.85h-5.9Z" fill="#fff"/><path d="M220.67,27.59h5.91v2.77a6.09,6.09,0,0,1,5.67-3.24c3.34,0,5.65,2.08,5.65,6.51V44.85H232v-10c0-2-.76-2.91-2.47-2.91s-2.94,1.06-2.94,3.27v9.67h-5.91Z" fill="#fff"/><path d="M239.81,44.85h5.87c.27,1.25,1,2.24,3.17,2.24,2.61,0,3.67-1.48,3.67-3.63V40.82A6.06,6.06,0,0,1,247.17,44c-4,0-7.33-3-7.33-8.28v-.27c0-5.08,3.27-8.32,7.33-8.32A5.62,5.62,0,0,1,252.52,30V27.59h5.9V43.4c0,5.15-3.39,7.85-9.57,7.85C243,51.25,240.27,48.78,239.81,44.85Zm12.87-9.18v-.23c0-2.37-1.22-3.89-3.4-3.89s-3.4,1.55-3.4,3.93v.26c0,2.38,1.26,3.89,3.37,3.89S252.68,38.12,252.68,35.67Z" fill="#fff"/><path d="M20.79,79.85h5.88c.26,1.25,1,2.24,3.17,2.24,2.6,0,3.66-1.48,3.66-3.63V75.82A6.05,6.05,0,0,1,28.15,79c-4,0-7.32-3-7.32-8.28v-.27c0-5.08,3.26-8.32,7.32-8.32A5.62,5.62,0,0,1,33.5,65V62.59h5.91V78.4c0,5.15-3.4,7.85-9.57,7.85C24,86.25,21.25,83.78,20.79,79.85Zm12.87-9.18v-.23c0-2.37-1.22-3.89-3.4-3.89s-3.39,1.55-3.39,3.93v.26c0,2.38,1.25,3.89,3.36,3.89S33.66,73.12,33.66,70.67Z" fill="#fff"/><path d="M41.42,75.06c0-4.06,3.43-5.64,9.17-5.64h1.65V69c0-1.65-.39-2.74-2.28-2.74a2.12,2.12,0,0,0-2.34,2H42.08c.26-4.16,3.53-6.21,8.25-6.21s7.79,1.95,7.79,6.54V79.85H52.37v-2c-.82,1.25-2.34,2.4-5.11,2.4C44.16,80.24,41.42,78.73,41.42,75.06Zm10.82-1.25V72.75H50.69c-2.38,0-3.43.46-3.43,1.88,0,1,.66,1.62,2.05,1.62C51,76.25,52.24,75.29,52.24,73.81Z" fill="#fff"/><path d="M61,62.59h5.9v2.64a6.05,6.05,0,0,1,5.42-3.11A4.7,4.7,0,0,1,77,65a6.84,6.84,0,0,1,5.71-2.88c3.27,0,5.65,2.12,5.65,6.44V79.85H82.44V69.55c0-1.75-.86-2.61-2.21-2.61-1.59,0-2.64,1-2.64,2.91v10H71.75V69.55c0-1.75-.86-2.61-2.22-2.61-1.58,0-2.64,1-2.64,2.91v10H61Z" fill="#fff"/><path d="M90.29,71.43v-.26c0-5.55,4.13-9.05,9.34-9.05,4.72,0,8.78,2.71,8.78,8.92v1.55H96.26c.17,2.27,1.49,3.6,3.6,3.6,2,0,2.77-.9,3-2h5.55c-.53,3.89-3.53,6.1-8.75,6.1C94.25,80.24,90.29,77.08,90.29,71.43Zm12.38-2.18c-.1-2.08-1.13-3.23-3-3.23s-3,1.15-3.3,3.23Z" fill="#fff"/><path d="M109.46,74.37h5.45c.2,1.25.76,1.95,2.44,1.95,1.45,0,2.11-.56,2.11-1.42s-.82-1.22-3.2-1.55c-4.62-.6-6.57-1.95-6.57-5.55,0-3.83,3.4-5.68,7.4-5.68,4.25,0,7.22,1.46,7.62,5.58h-5.35A1.93,1.93,0,0,0,117.15,66c-1.29,0-2,.56-2,1.35s.8,1.16,2.91,1.42c4.78.59,7.1,1.85,7.1,5.54,0,4.1-3,5.94-7.83,5.94S109.59,78.2,109.46,74.37Z" fill="#fff"/><path d="M126.89,76.88a3.29,3.29,0,0,1,3.36-3.34,3.34,3.34,0,1,1,0,6.67A3.29,3.29,0,0,1,126.89,76.88Z" fill="#fff"/><path d="M143,56.25h6.8v9.34l7.1-9.34H164l-8.65,11,9.11,12.64h-7.82L149.82,70v9.87H143Z" fill="#fff"/><path d="M165.73,62.59h5.9v2.77a6.11,6.11,0,0,1,5.68-3.24c3.33,0,5.65,2.08,5.65,6.51V79.85h-5.91v-10c0-1.95-.76-2.91-2.48-2.91s-2.94,1.06-2.94,3.27v9.67h-5.9Z" fill="#fff"/><path d="M184.9,71.43v-.26c0-5.55,4.13-9.05,9.47-9.05s9.41,3.4,9.41,8.88v.27c0,5.61-4.13,9-9.44,9S184.9,77,184.9,71.43Zm12.87-.1v-.26c0-2.9-1.15-4.52-3.4-4.52s-3.43,1.55-3.43,4.45v.27c0,3,1.15,4.58,3.43,4.58S197.77,74.21,197.77,71.33Z" fill="#fff"/><path d="M203.84,62.59H210l2.51,10.33,2.91-10.33h4.75l2.57,10.33,2.81-10.33h5.61l-5.48,17.26h-5.64l-2.58-9.64-2.67,9.64h-5.74Z" fill="#fff"/><path d="M22.54,109.3v-7.69H20.46v-4h2.08V94h5.91v3.6h3.4v4h-3.4v7.13c0,1.26.63,1.82,1.75,1.82a4.45,4.45,0,0,0,1.68-.3v4.49a12.35,12.35,0,0,1-3.27.49C24.72,115.24,22.54,113.36,22.54,109.3Z" fill="#fff"/><path d="M34.09,90H40v10.36a6.09,6.09,0,0,1,5.68-3.24c3.33,0,5.64,2.08,5.64,6.51v11.22H45.41v-10c0-1.95-.76-2.91-2.47-2.91S40,103,40,105.18v9.67H34.09Z" fill="#fff"/><path d="M53.26,106.43v-.26c0-5.55,4.13-9,9.34-9,4.72,0,8.78,2.71,8.78,8.92v1.55H59.24c.16,2.27,1.48,3.6,3.59,3.6,2,0,2.78-.9,3-2h5.54c-.53,3.89-3.53,6.1-8.74,6.1C57.22,115.24,53.26,112.08,53.26,106.43Zm12.38-2.18c-.1-2.08-1.12-3.23-3-3.23s-3,1.15-3.3,3.23Z" fill="#fff"/><path d="M79.43,97.59h5.91v2.57a6.09,6.09,0,0,1,5.38-3c4,0,7.29,3,7.29,8.95v.26c0,5.94-3.26,8.91-7.32,8.91a5.7,5.7,0,0,1-5.35-2.93v8.31H79.43ZM92,106.33v-.26c0-3-1.32-4.49-3.4-4.49s-3.44,1.55-3.44,4.46v.26c0,2.94,1.29,4.42,3.44,4.42S92,109.17,92,106.33Z" fill="#fff"/><path d="M100.16,97.59h5.9V101a5.44,5.44,0,0,1,5.58-3.66v5.51c-3.6-.1-5.58,1-5.58,3.79v8.19h-5.9Z" fill="#fff"/><path d="M113.65,92.9a3.26,3.26,0,1,1,3.24,3A3.09,3.09,0,0,1,113.65,92.9Zm.3,4.69h5.91v17.26H114Z" fill="#fff"/><path d="M122.1,106.43v-.26c0-5.74,4.13-9,9.21-9,4.22,0,8.12,1.85,8.45,7.1h-5.55c-.26-1.62-1.05-2.51-2.77-2.51-2.08,0-3.3,1.49-3.3,4.39v.27c0,3,1.16,4.55,3.4,4.55a2.87,2.87,0,0,0,3-2.87h5.32c-.17,4.36-3.11,7.19-8.68,7.19C126,115.24,122.1,112.24,122.1,106.43Z" fill="#fff"/><path d="M140.84,106.43v-.26c0-5.55,4.13-9,9.34-9,4.72,0,8.78,2.71,8.78,8.92v1.55H146.82c.16,2.27,1.48,3.6,3.6,3.6,1.94,0,2.77-.9,3-2H159c-.52,3.89-3.53,6.1-8.74,6.1C144.8,115.24,140.84,112.08,140.84,106.43Zm12.38-2.18c-.1-2.08-1.12-3.23-3-3.23s-3,1.15-3.3,3.23Z" fill="#fff"/><path d="M172.92,112.18v2.67H167V90h5.91v10.16a6.09,6.09,0,0,1,5.38-3c4,0,7.29,3,7.29,8.95v.26c0,5.94-3.26,8.91-7.32,8.91A5.6,5.6,0,0,1,172.92,112.18Zm6.67-5.85v-.26c0-3-1.32-4.49-3.4-4.49s-3.43,1.55-3.43,4.46v.26c0,2.94,1.28,4.42,3.43,4.42S179.59,109.17,179.59,106.33Z" fill="#fff"/><path d="M186.81,106.43v-.26c0-5.55,4.13-9,9.34-9,4.72,0,8.78,2.71,8.78,8.92v1.55H192.79c.16,2.27,1.48,3.6,3.59,3.6,2,0,2.78-.9,3-2h5.54c-.53,3.89-3.53,6.1-8.74,6.1C190.77,115.24,186.81,112.08,186.81,106.43Zm12.38-2.18c-.1-2.08-1.12-3.23-3-3.23s-3,1.15-3.3,3.23Z" fill="#fff"/><path d="M207.87,101.61h-2.18v-4h2.18V96.07c0-4.29,2.67-6.34,6.76-6.34a10.43,10.43,0,0,1,2.71.37v4.32a5.52,5.52,0,0,0-1.62-.23,1.73,1.73,0,0,0-2,1.88v1.52h3.5v4h-3.5v13.24h-5.87Z" fill="#fff"/><path d="M217.7,106.43v-.26c0-5.55,4.13-9,9.47-9s9.41,3.4,9.41,8.88v.27c0,5.61-4.13,9-9.44,9S217.7,112,217.7,106.43Zm12.87-.1v-.26c0-2.9-1.15-4.52-3.4-4.52s-3.43,1.55-3.43,4.45v.27c0,3,1.15,4.58,3.43,4.58S230.57,109.21,230.57,106.33Z" fill="#fff"/><path d="M238.66,97.59h5.9V101a5.44,5.44,0,0,1,5.58-3.66v5.51c-3.6-.1-5.58,1-5.58,3.79v8.19h-5.9Z" fill="#fff"/><path d="M251.2,106.43v-.26c0-5.55,4.12-9,9.34-9,4.71,0,8.77,2.71,8.77,8.92v1.55H257.17c.16,2.27,1.48,3.6,3.6,3.6,1.94,0,2.77-.9,3-2h5.54c-.52,3.89-3.53,6.1-8.74,6.1C255.16,115.24,251.2,112.08,251.2,106.43Zm12.37-2.18c-.1-2.08-1.12-3.23-3-3.23s-3,1.15-3.31,3.23Z" fill="#fff"/><path d="M27.16,148.1l-6.9-15.51h6.41l3.56,9.21,3.3-9.21h5.65l-9.25,23H24.29Z" fill="#fff"/><path d="M38.84,141.43v-.26c0-5.55,4.13-9,9.47-9s9.41,3.4,9.41,8.88v.27c0,5.61-4.12,9-9.44,9S38.84,147,38.84,141.43Zm12.87-.1v-.26c0-2.9-1.15-4.52-3.4-4.52s-3.43,1.55-3.43,4.45v.27c0,3,1.16,4.59,3.43,4.59S51.71,144.21,51.71,141.33Z" fill="#fff"/><path d="M59.67,143.84V132.59h5.9v10.29c0,2,.76,2.91,2.45,2.91S71,144.73,71,142.52v-9.93h5.91v17.26H71v-2.67a5.66,5.66,0,0,1-5.48,3.07C62.14,150.25,59.67,148.2,59.67,143.84Z" fill="#fff"/><path d="M91.77,147.18v2.67h-5.9V125h5.9v10.16a6.12,6.12,0,0,1,5.38-3c4,0,7.3,3,7.3,8.95v.26c0,5.94-3.27,8.92-7.33,8.92A5.62,5.62,0,0,1,91.77,147.18Zm6.67-5.85v-.26c0-3-1.32-4.49-3.4-4.49s-3.43,1.55-3.43,4.46v.26c0,2.94,1.29,4.42,3.43,4.42S98.44,144.17,98.44,141.33Z" fill="#fff"/><path d="M105.67,141.43v-.26c0-5.55,4.12-9,9.34-9,4.72,0,8.78,2.71,8.78,8.92v1.55H111.64c.17,2.28,1.49,3.6,3.6,3.6,2,0,2.77-.9,3-2.05h5.55c-.53,3.89-3.54,6.11-8.75,6.11C109.63,150.25,105.67,147.08,105.67,141.43ZM118,139.25c-.1-2.08-1.12-3.23-3-3.23s-3,1.15-3.3,3.23Z" fill="#fff"/><path d="M124.87,149.85h5.88c.26,1.25,1,2.24,3.17,2.24,2.6,0,3.66-1.48,3.66-3.63v-2.64a6.05,6.05,0,0,1-5.35,3.17c-4,0-7.32-3-7.32-8.28v-.27c0-5.08,3.26-8.32,7.32-8.32a5.62,5.62,0,0,1,5.35,2.91v-2.44h5.91V148.4c0,5.14-3.4,7.85-9.57,7.85C128,156.25,125.33,153.78,124.87,149.85Zm12.87-9.18v-.23c0-2.37-1.22-3.89-3.4-3.89S131,138.1,131,140.48v.26c0,2.38,1.25,3.89,3.36,3.89S137.74,143.12,137.74,140.67Z" fill="#fff"/><path d="M146.35,127.9a3.26,3.26,0,1,1,3.24,3A3.09,3.09,0,0,1,146.35,127.9Zm.3,4.69h5.91v17.26h-5.91Z" fill="#fff"/><path d="M155.73,132.59h5.9v2.77a6.11,6.11,0,0,1,5.68-3.24c3.34,0,5.65,2.08,5.65,6.51v11.22h-5.91v-10c0-1.95-.76-2.91-2.48-2.91s-2.94,1.06-2.94,3.27v9.67h-5.9Z" fill="#fff"/><path d="M175.59,146.88a3.3,3.3,0,0,1,3.37-3.34,3.34,3.34,0,1,1,0,6.67A3.29,3.29,0,0,1,175.59,146.88Z" fill="#fff"/></g></g></svg>