<svg xmlns="http://www.w3.org/2000/svg" viewBox="0 0 728 90"><title>H5</title><g id="Layer_2" data-name="Layer 2"><g id="Rect"><rect width="728" height="90" fill="none"/></g><g id="H5"><g id="You_could_get_up_to_3_500_within_minutes_of_filing._0_interes" data-name="You could get up to $3,500 within minutes of filing. 0% interes"><path d="M126.42,26.91,120.21,16h6l3.22,6.42L132.61,16h5.22l-5.91,10.9v8.16h-5.5Z" fill="#fff"/><path d="M135.83,28.27v-.21c0-4.48,3.33-7.31,7.65-7.31s7.6,2.75,7.6,7.17v.22c0,4.53-3.33,7.25-7.63,7.25S135.83,32.77,135.83,28.27Zm10.4-.08V28c0-2.35-.94-3.66-2.75-3.66s-2.77,1.26-2.77,3.6v.22c0,2.4.93,3.7,2.77,3.7S146.23,30.51,146.23,28.19Z" fill="#fff"/><path d="M152.65,30.22V21.13h4.77v8.31c0,1.58.61,2.35,2,2.35s2.37-.85,2.37-2.64v-8h4.77V35.07h-4.77V32.91a4.57,4.57,0,0,1-4.42,2.48C154.65,35.39,152.65,33.73,152.65,30.22Z" fill="#fff"/><path d="M173.06,28.27v-.21c0-4.64,3.33-7.31,7.44-7.31,3.41,0,6.55,1.5,6.82,5.73h-4.48a2.06,2.06,0,0,0-2.24-2c-1.68,0-2.66,1.2-2.66,3.54v.22c0,2.42.93,3.68,2.74,3.68a2.32,2.32,0,0,0,2.43-2.32h4.29c-.13,3.51-2.5,5.81-7,5.81C176.23,35.39,173.06,33,173.06,28.27Z" fill="#fff"/><path d="M188.2,28.27v-.21c0-4.48,3.33-7.31,7.65-7.31s7.59,2.75,7.59,7.17v.22c0,4.53-3.33,7.25-7.62,7.25S188.2,32.77,188.2,28.27Zm10.39-.08V28c0-2.35-.93-3.66-2.74-3.66s-2.78,1.26-2.78,3.6v.22c0,2.4.94,3.7,2.78,3.7S198.59,30.51,198.59,28.19Z" fill="#fff"/><path d="M205,30.22V21.13h4.77v8.31c0,1.58.62,2.35,2,2.35s2.37-.85,2.37-2.64v-8h4.77V35.07h-4.77V32.91a4.59,4.59,0,0,1-4.43,2.48C207,35.39,205,33.73,205,30.22Z" fill="#fff"/><path d="M221.46,15h4.74V35.07h-4.74Z" fill="#fff"/><path d="M228.06,28.24V28c0-4.75,2.62-7.28,5.92-7.28a4.52,4.52,0,0,1,4.29,2.35V15h4.78V35.07h-4.78V32.8a4.7,4.7,0,0,1-4.34,2.59C230.7,35.39,228.06,33.07,228.06,28.24Zm10.35-.08V28c0-2.35-1-3.6-2.75-3.6s-2.74,1.2-2.74,3.63v.21c0,2.35,1,3.54,2.69,3.54S238.41,30.54,238.41,28.16Z" fill="#fff"/><path d="M249.54,35.07h4.75c.21,1,.83,1.81,2.56,1.81a2.64,2.64,0,0,0,3-2.93V31.81a4.88,4.88,0,0,1-4.32,2.56c-3.25,0-5.92-2.39-5.92-6.69v-.21c0-4.11,2.64-6.72,5.92-6.72a4.55,4.55,0,0,1,4.32,2.35v-2h4.77V33.89c0,4.16-2.75,6.35-7.73,6.35C252.1,40.24,249.92,38.24,249.54,35.07Zm10.4-7.41v-.19c0-1.92-1-3.15-2.75-3.15s-2.74,1.26-2.74,3.18v.21c0,1.92,1,3.15,2.72,3.15S259.94,29.63,259.94,27.66Z" fill="#fff"/><path d="M266.25,28.27v-.21c0-4.48,3.33-7.31,7.55-7.31,3.81,0,7.09,2.19,7.09,7.2V29.2h-9.81a2.78,2.78,0,0,0,2.9,2.91c1.58,0,2.24-.72,2.43-1.65h4.48c-.43,3.14-2.85,4.93-7.07,4.93S266.25,32.83,266.25,28.27Zm10-1.76c-.08-1.68-.91-2.61-2.45-2.61a2.65,2.65,0,0,0-2.67,2.61Z" fill="#fff"/><path d="M283.18,30.59V24.38H281.5V21.13h1.68V18.22H288v2.91h2.74v3.25H288v5.76c0,1,.5,1.46,1.41,1.46a3.66,3.66,0,0,0,1.36-.24V35a10,10,0,0,1-2.64.4C284.94,35.39,283.18,33.87,283.18,30.59Z" fill="#fff"/><path d="M297.25,30.22V21.13H302v8.31c0,1.58.61,2.35,2,2.35s2.37-.85,2.37-2.64v-8h4.77V35.07h-4.77V32.91a4.57,4.57,0,0,1-4.42,2.48C299.25,35.39,297.25,33.73,297.25,30.22Z" fill="#fff"/><path d="M313.56,21.13h4.77V23.2a4.92,4.92,0,0,1,4.34-2.45c3.25,0,5.89,2.45,5.89,7.23v.21c0,4.8-2.64,7.2-5.91,7.2A4.59,4.59,0,0,1,318.33,33v6.72h-4.77Zm10.15,7.06V28c0-2.46-1.06-3.63-2.74-3.63s-2.78,1.25-2.78,3.6v.21c0,2.38,1,3.57,2.78,3.57S323.71,30.48,323.71,28.19Z" fill="#fff"/><path d="M335.78,30.59V24.38H334.1V21.13h1.68V18.22h4.77v2.91h2.75v3.25h-2.75v5.76A1.27,1.27,0,0,0,342,31.6a3.66,3.66,0,0,0,1.36-.24V35a10.06,10.06,0,0,1-2.64.4C337.54,35.39,335.78,33.87,335.78,30.59Z" fill="#fff"/><path d="M344.36,28.27v-.21c0-4.48,3.33-7.31,7.65-7.31s7.6,2.75,7.6,7.17v.22c0,4.53-3.33,7.25-7.62,7.25S344.36,32.77,344.36,28.27Zm10.4-.08V28c0-2.35-.93-3.66-2.75-3.66s-2.77,1.26-2.77,3.6v.22c0,2.4.93,3.7,2.77,3.7S354.76,30.51,354.76,28.19Z" fill="#fff"/><path d="M369.2,26.35c-2.69-.19-4-1.62-4.11-3.67H368a1.46,1.46,0,0,0,1.23,1.46V21.87c-2.71-.38-3.86-1.36-3.86-3.52,0-1.88,1.48-3.23,3.86-3.4V13.56h1.21V15c2.25.19,3.59,1.23,3.77,3.36h-2.81a1.24,1.24,0,0,0-1-1.17V19.3c2.37.34,3.93,1.15,3.93,3.4,0,1.89-1.23,3.48-3.93,3.65v1.94H369.2Zm0-7.24v-2c-.7.13-1.06.5-1.06,1S368.36,18.94,369.2,19.11Zm1.21,3v2.06a1.12,1.12,0,0,0,1-1.1C371.45,22.53,371.23,22.26,370.41,22.08Z" fill="#fff"/><path d="M375.29,28.8h4.85a2.55,2.55,0,0,0,2.8,2.64c1.68,0,2.5-.8,2.5-2.16s-.8-2.24-2.5-2.24h-1.52V23.66h1.41c1.71,0,2.53-.78,2.53-2.11,0-1.14-.74-1.89-2.18-1.89a2.43,2.43,0,0,0-2.53,2.42h-4.83c.24-3.75,2.75-6.34,7.49-6.34,4.48,0,7.17,2,7.17,5.23a4.06,4.06,0,0,1-3.22,4.1,4.29,4.29,0,0,1,3.7,4.32c0,3.62-2.69,6-7.73,6C377.93,35.39,375.45,32.93,375.29,28.8Z" fill="#fff"/><path d="M391.41,37.23l2.24-7,4.43,1.57-3.84,6.53Z" fill="#fff"/><path d="M399,29.07h5a2.18,2.18,0,0,0,2.48,2.21c1.57,0,2.29-1.17,2.29-2.69a2.42,2.42,0,0,0-2.58-2.72A3.89,3.89,0,0,0,403,27.23H399.7L400.1,16H413v4H404l-.1,4.21a5.08,5.08,0,0,1,4.45-2c3.49,0,5.78,2.35,5.78,6.48s-2.9,6.72-7.73,6.72C401.38,35.39,399.09,32.64,399,29.07Z" fill="#fff"/><path d="M415.5,26v-.8c0-6,3.76-9.41,8.8-9.41s8.8,3.12,8.8,9.3v.75c0,6.05-3.47,9.6-8.91,9.6S415.5,32,415.5,26Zm12.13-.05v-.78c0-3.49-1-5.25-3.33-5.25S421,21.61,421,25.12v.8c0,3.55,1,5.23,3.38,5.23S427.63,29.42,427.63,25.9Z" fill="#fff"/><path d="M434.61,26v-.8c0-6,3.76-9.41,8.8-9.41s8.8,3.12,8.8,9.3v.75c0,6.05-3.47,9.6-8.91,9.6S434.61,32,434.61,26Zm12.13-.05v-.78c0-3.49-1-5.25-3.33-5.25s-3.33,1.74-3.33,5.25v.8c0,3.55,1,5.23,3.38,5.23S446.74,29.42,446.74,25.9Z" fill="#fff"/><path d="M457.85,21.13h5l2,8.34,2.35-8.34H471l2.08,8.34,2.27-8.34h4.53L475.5,35.07h-4.56l-2.08-7.79-2.16,7.79h-4.64Z" fill="#fff"/><path d="M481,17.34a2.49,2.49,0,0,1,2.61-2.48,2.47,2.47,0,1,1,0,4.93A2.46,2.46,0,0,1,481,17.34Zm.23,3.79h4.78V35.07h-4.78Z" fill="#fff"/><path d="M489.24,30.59V24.38h-1.68V21.13h1.68V18.22H494v2.91h2.75v3.25H494v5.76a1.27,1.27,0,0,0,1.42,1.46,3.66,3.66,0,0,0,1.36-.24V35a10.06,10.06,0,0,1-2.64.4C491,35.39,489.24,33.87,489.24,30.59Z" fill="#fff"/><path d="M498.57,15h4.77v8.37a5,5,0,0,1,4.59-2.61c2.69,0,4.56,1.68,4.56,5.25v9.07h-4.78V27c0-1.57-.61-2.34-2-2.34s-2.37.85-2.37,2.64v7.81h-4.77Z" fill="#fff"/><path d="M514.69,17.34a2.63,2.63,0,1,1,2.62,2.45A2.5,2.5,0,0,1,514.69,17.34Zm.24,3.79h4.78V35.07h-4.78Z" fill="#fff"/><path d="M522.26,21.13H527v2.23a5,5,0,0,1,4.59-2.61c2.69,0,4.56,1.68,4.56,5.25v9.07h-4.77V27c0-1.57-.62-2.34-2-2.34s-2.38.85-2.38,2.64v7.81h-4.77Z" fill="#fff"/><path d="M121.41,49.78h4.77v2.13a4.9,4.9,0,0,1,4.38-2.51,3.78,3.78,0,0,1,3.78,2.32A5.54,5.54,0,0,1,139,49.4c2.64,0,4.56,1.71,4.56,5.2v9.12h-4.77V55.4c0-1.41-.69-2.11-1.79-2.11a2.07,2.07,0,0,0-2.13,2.35v8.08H130.1V55.4c0-1.41-.69-2.11-1.78-2.11a2.07,2.07,0,0,0-2.14,2.35v8.08h-4.77Z" fill="#fff"/><path d="M145.72,46a2.49,2.49,0,0,1,2.61-2.48,2.47,2.47,0,1,1,0,4.93A2.47,2.47,0,0,1,145.72,46Zm.24,3.79h4.77V63.72H146Z" fill="#fff"/><path d="M153.29,49.78h4.77V52a4.92,4.92,0,0,1,4.58-2.61c2.69,0,4.56,1.68,4.56,5.25v9.07h-4.77V55.61c0-1.57-.61-2.34-2-2.34s-2.37.85-2.37,2.64v7.81h-4.77Z" fill="#fff"/><path d="M169.41,58.87V49.78h4.77v8.31c0,1.58.61,2.35,2,2.35s2.38-.86,2.38-2.64v-8h4.77V63.72h-4.77V61.56A4.59,4.59,0,0,1,174.1,64C171.41,64,169.41,62.38,169.41,58.87Z" fill="#fff"/><path d="M186.36,59.24V53h-1.68V49.78h1.68V46.87h4.77v2.91h2.75V53h-2.75v5.76a1.27,1.27,0,0,0,1.41,1.46A3.59,3.59,0,0,0,193.9,60v3.63a10,10,0,0,1-2.64.4C188.12,64,186.36,62.52,186.36,59.24Z" fill="#fff"/><path d="M194.94,56.92v-.21c0-4.48,3.33-7.31,7.54-7.31,3.81,0,7.09,2.19,7.09,7.2v1.25h-9.81a2.79,2.79,0,0,0,2.91,2.91c1.57,0,2.24-.72,2.43-1.65h4.47c-.42,3.14-2.85,4.93-7.06,4.93C198.14,64,194.94,61.48,194.94,56.92Zm10-1.76c-.08-1.68-.91-2.61-2.46-2.61a2.65,2.65,0,0,0-2.66,2.61Z" fill="#fff"/><path d="M210.42,59.29h4.4c.16,1,.61,1.58,2,1.58,1.18,0,1.71-.46,1.71-1.15s-.67-1-2.59-1.25c-3.73-.48-5.3-1.58-5.3-4.48,0-3.09,2.74-4.59,6-4.59,3.44,0,5.84,1.18,6.16,4.51h-4.32a1.56,1.56,0,0,0-1.79-1.39c-1,0-1.57.45-1.57,1.09s.64.94,2.35,1.15c3.86.48,5.73,1.49,5.73,4.48,0,3.3-2.45,4.8-6.32,4.8S210.53,62.38,210.42,59.29Z" fill="#fff"/><path d="M228.78,56.92v-.21c0-4.48,3.34-7.31,7.65-7.31s7.6,2.75,7.6,7.17v.22c0,4.53-3.33,7.25-7.62,7.25S228.78,61.42,228.78,56.92Zm10.4-.08v-.21c0-2.35-.93-3.66-2.75-3.66s-2.77,1.26-2.77,3.6v.22c0,2.4.94,3.7,2.77,3.7S239.18,59.16,239.18,56.84Z" fill="#fff"/><path d="M246.43,53h-1.76V49.78h1.76V48.55c0-3.47,2.16-5.12,5.46-5.12a8.55,8.55,0,0,1,2.19.29v3.5a4.33,4.33,0,0,0-1.31-.19,1.4,1.4,0,0,0-1.6,1.52v1.23H254V53h-2.83V63.72h-4.74Z" fill="#fff"/><path d="M261.16,53H259.4V49.78h1.76V48.55c0-3.47,2.16-5.12,5.47-5.12a8.46,8.46,0,0,1,2.18.29v3.5a4.21,4.21,0,0,0-1.3-.19,1.4,1.4,0,0,0-1.6,1.52v1.23h2.82V53h-2.82V63.72h-4.75Z" fill="#fff"/><path d="M270.22,46a2.64,2.64,0,1,1,2.62,2.45A2.5,2.5,0,0,1,270.22,46Zm.24,3.79h4.78V63.72h-4.78Z" fill="#fff"/><path d="M277.93,43.64h4.74V63.72h-4.74Z" fill="#fff"/><path d="M285.12,46a2.63,2.63,0,1,1,2.61,2.45A2.49,2.49,0,0,1,285.12,46Zm.24,3.79h4.77V63.72h-4.77Z" fill="#fff"/><path d="M292.69,49.78h4.77V52a5,5,0,0,1,4.59-2.61c2.69,0,4.55,1.68,4.55,5.25v9.07h-4.77V55.61c0-1.57-.61-2.34-2-2.34s-2.37.85-2.37,2.64v7.81h-4.77Z" fill="#fff"/><path d="M308.15,63.72h4.74c.21,1,.83,1.81,2.56,1.81a2.64,2.64,0,0,0,3-2.93V60.46A4.88,4.88,0,0,1,314.09,63c-3.25,0-5.92-2.4-5.92-6.69v-.21c0-4.11,2.64-6.72,5.92-6.72a4.53,4.53,0,0,1,4.32,2.35v-2h4.77V62.54c0,4.16-2.75,6.35-7.73,6.35C310.71,68.89,308.52,66.89,308.15,63.72Zm10.39-7.41v-.19c0-1.92-1-3.15-2.74-3.15s-2.75,1.26-2.75,3.18v.21c0,1.92,1,3.15,2.72,3.15S318.54,58.28,318.54,56.31Z" fill="#fff"/><path d="M325.42,61.32a2.65,2.65,0,0,1,2.71-2.69,2.69,2.69,0,1,1,0,5.38A2.65,2.65,0,0,1,325.42,61.32Z" fill="#fff"/><path d="M337.57,54.6v-.8c0-6,3.76-9.41,8.79-9.41s8.8,3.12,8.8,9.3v.75c0,6.05-3.46,9.6-8.9,9.6S337.57,60.6,337.57,54.6Zm12.13-.05v-.78c0-3.49-1-5.25-3.34-5.25S343,50.25,343,53.77v.8c0,3.55,1,5.23,3.39,5.23S349.7,58.07,349.7,54.55Z" fill="#fff"/><path d="M356.2,49.19a4.8,4.8,0,0,1,5.06-4.75,4.79,4.79,0,1,1,0,9.57A4.67,4.67,0,0,1,356.2,49.19Zm15.7-4.53h2.61L361.29,63.72h-2.62Zm-9.12,4.53c0-1.25-.53-2-1.52-2s-1.57.75-1.57,2,.58,2.08,1.57,2.08S362.78,50.44,362.78,49.19Zm4,10a4.8,4.8,0,0,1,5.07-4.74c2.88,0,5,1.92,5,4.66A4.78,4.78,0,0,1,371.84,64,4.68,4.68,0,0,1,366.8,59.21Zm6.62,0c0-1.23-.54-2-1.55-2s-1.55.74-1.55,2,.59,2.05,1.55,2.05S373.42,60.46,373.42,59.19Z" fill="#fff"/><path d="M383.33,46a2.49,2.49,0,0,1,2.61-2.48,2.47,2.47,0,1,1,0,4.93A2.46,2.46,0,0,1,383.33,46Zm.23,3.79h4.78V63.72h-4.78Z" fill="#fff"/><path d="M390.89,49.78h4.78V52a4.92,4.92,0,0,1,4.58-2.61c2.69,0,4.56,1.68,4.56,5.25v9.07H400V55.61c0-1.57-.62-2.34-2-2.34s-2.37.85-2.37,2.64v7.81h-4.78Z" fill="#fff"/><path d="M407.76,59.24V53h-1.68V49.78h1.68V46.87h4.77v2.91h2.75V53h-2.75v5.76A1.27,1.27,0,0,0,414,60.25a3.66,3.66,0,0,0,1.36-.24v3.63a10.06,10.06,0,0,1-2.64.4C409.52,64,407.76,62.52,407.76,59.24Z" fill="#fff"/><path d="M416.34,56.92v-.21c0-4.48,3.34-7.31,7.55-7.31,3.81,0,7.09,2.19,7.09,7.2v1.25h-9.81a2.78,2.78,0,0,0,2.9,2.91c1.58,0,2.24-.72,2.43-1.65H431c-.43,3.14-2.85,4.93-7.07,4.93C419.54,64,416.34,61.48,416.34,56.92Zm10-1.76c-.08-1.68-.91-2.61-2.45-2.61a2.65,2.65,0,0,0-2.67,2.61Z" fill="#fff"/><path d="M432.63,49.78h4.77v2.77a4.38,4.38,0,0,1,4.5-3V54c-2.9-.08-4.5.83-4.5,3.07v6.61h-4.77Z" fill="#fff"/><path d="M442.75,56.92v-.21c0-4.48,3.34-7.31,7.55-7.31,3.81,0,7.09,2.19,7.09,7.2v1.25h-9.81a2.78,2.78,0,0,0,2.9,2.91c1.58,0,2.24-.72,2.43-1.65h4.48C457,62.25,454.54,64,450.32,64S442.75,61.48,442.75,56.92Zm10-1.76c-.08-1.68-.91-2.61-2.45-2.61a2.65,2.65,0,0,0-2.67,2.61Z" fill="#fff"/><path d="M458.24,59.29h4.39c.16,1,.62,1.58,2,1.58,1.17,0,1.7-.46,1.7-1.15s-.66-1-2.58-1.25C460,58,458.42,56.89,458.42,54c0-3.09,2.75-4.59,6-4.59,3.44,0,5.84,1.18,6.16,4.51h-4.32a1.55,1.55,0,0,0-1.78-1.39c-1,0-1.57.45-1.57,1.09s.63.94,2.34,1.15c3.87.48,5.73,1.49,5.73,4.48,0,3.3-2.45,4.8-6.32,4.8S458.34,62.38,458.24,59.29Z" fill="#fff"/><path d="M473.13,59.24V53h-1.67V49.78h1.67V46.87h4.78v2.91h2.74V53h-2.74v5.76c0,1,.5,1.46,1.41,1.46a3.66,3.66,0,0,0,1.36-.24v3.63A10,10,0,0,1,478,64C474.89,64,473.13,62.52,473.13,59.24Z" fill="#fff"/><path d="M487.45,43.64h4.74V63.72h-4.74Z" fill="#fff"/><path d="M494,56.92v-.21c0-4.48,3.33-7.31,7.65-7.31s7.6,2.75,7.6,7.17v.22c0,4.53-3.33,7.25-7.63,7.25S494,61.42,494,56.92Zm10.4-.08v-.21c0-2.35-.94-3.66-2.75-3.66s-2.77,1.26-2.77,3.6v.22c0,2.4.93,3.7,2.77,3.7S504.4,59.16,504.4,56.84Z" fill="#fff"/><path d="M510.12,59.85c0-3.28,2.78-4.56,7.41-4.56h1.34V55c0-1.33-.32-2.21-1.84-2.21a1.72,1.72,0,0,0-1.9,1.65h-4.47c.21-3.36,2.85-5,6.66-5s6.29,1.58,6.29,5.28v9H519V62.09a4.57,4.57,0,0,1-4.13,2C512.34,64,510.12,62.81,510.12,59.85Zm8.75-1V58h-1.26c-1.92,0-2.77.37-2.77,1.52,0,.79.54,1.3,1.65,1.3C517.85,60.81,518.87,60,518.87,58.84Z" fill="#fff"/><path d="M525.93,49.78h4.77V52a4.92,4.92,0,0,1,4.58-2.61c2.7,0,4.56,1.68,4.56,5.25v9.07h-4.77V55.61c0-1.57-.61-2.34-2-2.34s-2.37.85-2.37,2.64v7.81h-4.77Z" fill="#fff"/><path d="M542,61.32a2.66,2.66,0,0,1,2.72-2.69,2.69,2.69,0,1,1,0,5.38A2.66,2.66,0,0,1,542,61.32Z" fill="#fff"/></g></g><g id="Legal"><g id="Optional_loan_from_Axos_Bank_within_minutes_of_filing._Not_your" data-name="Optional loan from Axos Bank within minutes of filing. Not your"><path d="M120.5,82.78v-.07a3.16,3.16,0,1,1,6.31,0v.07a3.16,3.16,0,1,1-6.31,0Zm5.5,0v-.07a2.36,2.36,0,1,0-4.69,0v.07a2.42,2.42,0,0,0,2.37,2.62A2.35,2.35,0,0,0,126,82.75Z" fill="#fff"/><path d="M127.92,81.25h.75V82a1.93,1.93,0,0,1,1.59-.87,2.14,2.14,0,0,1,2.14,2.37v.07A2.17,2.17,0,0,1,130.26,86a1.78,1.78,0,0,1-1.59-.86V87.6h-.75Zm3.71,2.39v-.07c0-1.19-.66-1.78-1.45-1.78s-1.54.58-1.54,1.78v.07c0,1.21.63,1.78,1.55,1.78S131.63,84.79,131.63,83.64Z" fill="#fff"/><path d="M133.59,84.78v-2.9h-.67v-.63h.67V80.18h.75v1.07h1.1v.63h-1.1v2.83c0,.46.2.68.58.68a1.59,1.59,0,0,0,.58-.1v.63a1.85,1.85,0,0,1-.64.1A1.14,1.14,0,0,1,133.59,84.78Z" fill="#fff"/><path d="M136.37,79.77a.5.5,0,0,1,.5-.49.49.49,0,0,1,.49.49.5.5,0,0,1-.49.5A.51.51,0,0,1,136.37,79.77Zm.14,1.48h.74V86h-.74Z" fill="#fff"/><path d="M138.3,83.64v-.07a2.31,2.31,0,1,1,4.62,0v.07a2.31,2.31,0,1,1-4.62,0Zm3.85,0v-.06c0-1.09-.6-1.79-1.54-1.79a1.56,1.56,0,0,0-1.54,1.78v.07c0,1.07.59,1.78,1.54,1.78S142.15,84.71,142.15,83.64Z" fill="#fff"/><path d="M144,81.25h.75V82a1.59,1.59,0,0,1,1.51-.83c1,0,1.66.53,1.66,1.9V86h-.75V83c0-.83-.35-1.19-1.11-1.19a1.23,1.23,0,0,0-1.31,1.28V86H144Z" fill="#fff"/><path d="M148.81,84.65c0-1.09,1.15-1.46,2.36-1.46h.67v-.34c0-.75-.29-1.06-1-1.06s-1,.27-1.08.84H149a1.64,1.64,0,0,1,1.86-1.46,1.52,1.52,0,0,1,1.72,1.68V86h-.75v-.6a1.69,1.69,0,0,1-1.46.68C149.5,86,148.81,85.62,148.81,84.65Zm3-.34v-.59h-.65c-.94,0-1.63.24-1.63.93,0,.49.23.79.89.79S151.84,85,151.84,84.31Z" fill="#fff"/><path d="M153.94,79h.75v7h-.75Z" fill="#fff"/><path d="M158.36,79h.75v7h-.75Z" fill="#fff"/><path d="M160.16,83.64v-.07a2.32,2.32,0,1,1,4.63,0v.07a2.32,2.32,0,1,1-4.63,0Zm3.85,0v-.06c0-1.09-.6-1.79-1.54-1.79a1.56,1.56,0,0,0-1.54,1.78v.07c0,1.07.59,1.78,1.54,1.78S164,84.71,164,83.64Z" fill="#fff"/><path d="M165.42,84.65c0-1.09,1.15-1.46,2.36-1.46h.68v-.34c0-.75-.29-1.06-1-1.06s-1,.27-1.08.84h-.75a1.64,1.64,0,0,1,1.86-1.46,1.52,1.52,0,0,1,1.72,1.68V86h-.74v-.6A1.71,1.71,0,0,1,167,86C166.12,86,165.42,85.62,165.42,84.65Zm3-.34v-.59h-.65c-.95,0-1.64.24-1.64.93,0,.49.23.79.89.79S168.46,85,168.46,84.31Z" fill="#fff"/><path d="M170.53,81.25h.75V82a1.61,1.61,0,0,1,1.51-.83c1,0,1.66.53,1.66,1.9V86h-.75V83c0-.83-.35-1.19-1.1-1.19a1.24,1.24,0,0,0-1.32,1.28V86h-.75Z" fill="#fff"/><path d="M178.19,81.88h-.67v-.63h.67v-.77c0-1,.47-1.51,1.41-1.51a1.6,1.6,0,0,1,.56.09v.63a1.62,1.62,0,0,0-.54-.1c-.48,0-.68.33-.68.81v.85h1.15v.63h-1.15V86h-.75Z" fill="#fff"/><path d="M181,81.25h.75v.84a1.62,1.62,0,0,1,1.55-.92v.7c-.95,0-1.55.34-1.55,1.5V86H181Z" fill="#fff"/><path d="M183.77,83.64v-.07a2.32,2.32,0,1,1,4.63,0v.07a2.32,2.32,0,1,1-4.63,0Zm3.86,0v-.06c0-1.09-.61-1.79-1.54-1.79s-1.54.7-1.54,1.78v.07c0,1.07.58,1.78,1.54,1.78A1.57,1.57,0,0,0,187.63,83.64Z" fill="#fff"/><path d="M189.43,81.25h.74V82a1.54,1.54,0,0,1,1.41-.8,1.36,1.36,0,0,1,1.37.88,1.84,1.84,0,0,1,1.62-.88c.84,0,1.58.5,1.58,1.87V86h-.75V83c0-.83-.35-1.17-1-1.17a1.2,1.2,0,0,0-1.24,1.26V86h-.75V83c0-.83-.35-1.17-1-1.17a1.2,1.2,0,0,0-1.25,1.26V86h-.74Z" fill="#fff"/><path d="M201.51,79.52h1L204.72,86h-.78l-.63-1.86h-2.65L200,86h-.74Zm-.64,4h2.24L202,80.17Z" fill="#fff"/><path d="M206.84,83.54l-1.57-2.29h.87L207.29,83l1.14-1.71h.81l-1.55,2.23L209.41,86h-.89l-1.27-1.9L206,86h-.8Z" fill="#fff"/><path d="M209.7,83.64v-.07a2.32,2.32,0,1,1,4.63,0v.07a2.32,2.32,0,1,1-4.63,0Zm3.86,0v-.06c0-1.09-.61-1.79-1.54-1.79s-1.54.7-1.54,1.78v.07c0,1.07.58,1.78,1.54,1.78A1.57,1.57,0,0,0,213.56,83.64Z" fill="#fff"/><path d="M215,84.51h.73c.05.56.35.91,1.1.91s1-.25,1-.75-.37-.66-1.1-.79c-1.22-.23-1.64-.57-1.64-1.39a1.47,1.47,0,0,1,1.6-1.32,1.51,1.51,0,0,1,1.7,1.36h-.72c-.11-.52-.4-.74-1-.74s-.89.27-.89.67.23.6,1.09.75,1.66.4,1.66,1.4c0,.85-.58,1.43-1.73,1.43S215,85.47,215,84.51Z" fill="#fff"/><path d="M221.84,79.52h1.94c1.2,0,2.07.4,2.07,1.67v0a1.31,1.31,0,0,1-1,1.36,1.41,1.41,0,0,1,1.28,1.54v0c0,1.21-.82,1.8-2.11,1.8h-2.21Zm1.94,2.81c.94,0,1.3-.34,1.3-1.14v0c0-.73-.42-1-1.32-1h-1.15v2.2Zm.25,3c.94,0,1.37-.41,1.37-1.19v0c0-.79-.44-1.17-1.48-1.17h-1.31v2.4Z" fill="#fff"/><path d="M226.86,84.65c0-1.09,1.16-1.46,2.36-1.46h.68v-.34c0-.75-.29-1.06-1-1.06s-1,.27-1.08.84h-.75a1.65,1.65,0,0,1,1.87-1.46,1.52,1.52,0,0,1,1.72,1.68V86h-.75v-.6a1.71,1.71,0,0,1-1.47.68C227.56,86,226.86,85.62,226.86,84.65Zm3-.34v-.59h-.65c-.94,0-1.64.24-1.64.93,0,.49.24.79.89.79C229.3,85.44,229.9,85,229.9,84.31Z" fill="#fff"/><path d="M232,81.25h.74V82a1.61,1.61,0,0,1,1.52-.83c1,0,1.65.53,1.65,1.9V86h-.74V83c0-.83-.36-1.19-1.11-1.19a1.24,1.24,0,0,0-1.32,1.28V86H232Z" fill="#fff"/><path d="M237.22,79H238v4.42l1.95-2.17h.88l-2,2.19L241,86h-.91L238,83.52V86h-.75Z" fill="#fff"/><path d="M243.48,81.25h.81l1.1,3.79,1.14-3.79h.65L248.25,85l1.11-3.79h.76L248.66,86h-.83l-1-3.53L245.75,86h-.82Z" fill="#fff"/><path d="M250.88,79.77a.49.49,0,0,1,.49-.49.5.5,0,0,1,.5.49.51.51,0,0,1-.5.5A.5.5,0,0,1,250.88,79.77Zm.13,1.48h.75V86H251Z" fill="#fff"/><path d="M253.32,84.78v-2.9h-.68v-.63h.68V80.18h.74v1.07h1.1v.63h-1.1v2.83c0,.46.21.68.59.68a1.57,1.57,0,0,0,.57-.1v.63a1.85,1.85,0,0,1-.64.1A1.14,1.14,0,0,1,253.32,84.78Z" fill="#fff"/><path d="M256.21,79H257v3a1.61,1.61,0,0,1,1.51-.83c1,0,1.66.53,1.66,1.9V86h-.75V83c0-.83-.35-1.19-1.11-1.19A1.23,1.23,0,0,0,257,83.1V86h-.75Z" fill="#fff"/><path d="M261.34,79.77a.5.5,0,0,1,.5-.49.49.49,0,0,1,.49.49.5.5,0,0,1-.49.5A.51.51,0,0,1,261.34,79.77Zm.14,1.48h.75V86h-.75Z" fill="#fff"/><path d="M263.62,81.25h.75V82a1.6,1.6,0,0,1,1.51-.83c1,0,1.66.53,1.66,1.9V86h-.75V83c0-.83-.35-1.19-1.11-1.19a1.23,1.23,0,0,0-1.31,1.28V86h-.75Z" fill="#fff"/><path d="M271.12,81.25h.74V82a1.54,1.54,0,0,1,1.41-.8,1.38,1.38,0,0,1,1.38.88,1.81,1.81,0,0,1,1.61-.88c.84,0,1.58.5,1.58,1.87V86h-.74V83c0-.83-.36-1.17-1-1.17a1.2,1.2,0,0,0-1.25,1.26V86h-.74V83c0-.83-.36-1.17-1-1.17a1.2,1.2,0,0,0-1.25,1.26V86h-.74Z" fill="#fff"/><path d="M279.06,79.77a.49.49,0,0,1,.49-.49.5.5,0,0,1,.5.49.51.51,0,0,1-.5.5A.5.5,0,0,1,279.06,79.77Zm.13,1.48h.75V86h-.75Z" fill="#fff"/><path d="M281.33,81.25h.75V82a1.61,1.61,0,0,1,1.51-.83c1,0,1.66.53,1.66,1.9V86h-.75V83c0-.83-.35-1.19-1.11-1.19a1.23,1.23,0,0,0-1.31,1.28V86h-.75Z" fill="#fff"/><path d="M286.53,84.23v-3h.75v2.94c0,.83.35,1.2,1.09,1.2a1.24,1.24,0,0,0,1.3-1.29V81.25h.74V86h-.74v-.75a1.62,1.62,0,0,1-1.5.83C287.24,86,286.53,85.52,286.53,84.23Z" fill="#fff"/><path d="M292,84.78v-2.9h-.67v-.63H292V80.18h.75v1.07h1.1v.63h-1.1v2.83c0,.46.21.68.58.68a1.59,1.59,0,0,0,.58-.1v.63a1.85,1.85,0,0,1-.64.1A1.14,1.14,0,0,1,292,84.78Z" fill="#fff"/><path d="M294.5,83.65v-.07a2.21,2.21,0,0,1,2.2-2.41,2.06,2.06,0,0,1,2.12,2.34v.24h-3.55c0,1.07.55,1.67,1.52,1.67.72,0,1.15-.27,1.25-.82h.74a1.81,1.81,0,0,1-2,1.44A2.21,2.21,0,0,1,294.5,83.65Zm3.55-.5c-.07-1-.57-1.36-1.35-1.36a1.41,1.41,0,0,0-1.4,1.36Z" fill="#fff"/><path d="M299.48,84.51h.73c.06.56.35.91,1.11.91s1-.25,1-.75-.37-.66-1.1-.79c-1.23-.23-1.64-.57-1.64-1.39a1.47,1.47,0,0,1,1.59-1.32,1.51,1.51,0,0,1,1.71,1.36h-.72c-.11-.52-.4-.74-1-.74s-.9.27-.9.67.24.6,1.1.75,1.66.4,1.66,1.4c0,.85-.59,1.43-1.73,1.43S299.53,85.47,299.48,84.51Z" fill="#fff"/><path d="M306,83.64v-.07a2.31,2.31,0,1,1,4.62,0v.07a2.31,2.31,0,1,1-4.62,0Zm3.85,0v-.06c0-1.09-.6-1.79-1.54-1.79s-1.54.7-1.54,1.78v.07c0,1.07.58,1.78,1.54,1.78A1.57,1.57,0,0,0,309.81,83.64Z" fill="#fff"/><path d="M311.77,81.88h-.68v-.63h.68v-.77c0-1,.47-1.51,1.4-1.51a1.57,1.57,0,0,1,.56.09v.63a1.51,1.51,0,0,0-.53-.1c-.49,0-.68.33-.68.81v.85h1.15v.63h-1.15V86h-.75Z" fill="#fff"/><path d="M317,81.88h-.68v-.63H317v-.77c0-1,.47-1.51,1.4-1.51a1.57,1.57,0,0,1,.56.09v.63a1.51,1.51,0,0,0-.53-.1c-.49,0-.68.33-.68.81v.85h1.15v.63h-1.15V86H317Z" fill="#fff"/><path d="M319.7,79.77a.49.49,0,0,1,.49-.49.5.5,0,0,1,.5.49.51.51,0,0,1-.5.5A.5.5,0,0,1,319.7,79.77Zm.13,1.48h.75V86h-.75Z" fill="#fff"/><path d="M322,79h.76v7H322Z" fill="#fff"/><path d="M324,79.77a.49.49,0,0,1,.49-.49.5.5,0,0,1,.5.49.51.51,0,0,1-.5.5A.5.5,0,0,1,324,79.77Zm.13,1.48h.75V86h-.75Z" fill="#fff"/><path d="M326.3,81.25h.75V82a1.61,1.61,0,0,1,1.51-.83c1,0,1.66.53,1.66,1.9V86h-.75V83c0-.83-.35-1.19-1.1-1.19a1.24,1.24,0,0,0-1.32,1.28V86h-.75Z" fill="#fff"/><path d="M331.3,86.23h.76c.11.54.56.82,1.36.82a1.33,1.33,0,0,0,1.52-1.45v-.69a2,2,0,0,1-1.6.89,2.12,2.12,0,0,1-2.14-2.23v-.06a2.23,2.23,0,0,1,2.2-2.34,1.7,1.7,0,0,1,1.54.83v-.75h.74v4.39a2,2,0,0,1-2.25,2C332,87.68,331.43,87,331.3,86.23ZM335,83.52v-.07a1.45,1.45,0,0,0-1.49-1.66,1.5,1.5,0,0,0-1.5,1.68v.07a1.49,1.49,0,0,0,1.45,1.64A1.51,1.51,0,0,0,335,83.52Z" fill="#fff"/><path d="M337,85.43a.58.58,0,1,1,.57.57A.57.57,0,0,1,337,85.43Z" fill="#fff"/><path d="M341.77,79.52h1l3.14,5.32V79.52h.74V86h-.9l-3.25-5.52V86h-.74Z" fill="#fff"/><path d="M347.74,83.64v-.07a2.32,2.32,0,1,1,4.63,0v.07a2.32,2.32,0,1,1-4.63,0Zm3.86,0v-.06c0-1.09-.61-1.79-1.54-1.79s-1.54.7-1.54,1.78v.07c0,1.07.58,1.78,1.54,1.78A1.57,1.57,0,0,0,351.6,83.64Z" fill="#fff"/><path d="M353.56,84.78v-2.9h-.68v-.63h.68V80.18h.74v1.07h1.1v.63h-1.1v2.83c0,.46.21.68.59.68a1.57,1.57,0,0,0,.57-.1v.63a1.82,1.82,0,0,1-.63.1A1.14,1.14,0,0,1,353.56,84.78Z" fill="#fff"/><path d="M360,85.47l-1.85-4.22h.8l1.44,3.37,1.31-3.37h.76l-2.6,6.35h-.75Z" fill="#fff"/><path d="M362.84,83.64v-.07a2.32,2.32,0,1,1,4.63,0v.07a2.32,2.32,0,1,1-4.63,0Zm3.86,0v-.06c0-1.09-.61-1.79-1.54-1.79s-1.54.7-1.54,1.78v.07c0,1.07.58,1.78,1.54,1.78A1.57,1.57,0,0,0,366.7,83.64Z" fill="#fff"/><path d="M368.45,84.23v-3h.75v2.94c0,.83.35,1.2,1.09,1.2a1.24,1.24,0,0,0,1.29-1.29V81.25h.75V86h-.75v-.75a1.59,1.59,0,0,1-1.49.83C369.15,86,368.45,85.52,368.45,84.23Z" fill="#fff"/><path d="M373.71,81.25h.74v.84a1.64,1.64,0,0,1,1.55-.92v.7c-.94,0-1.55.34-1.55,1.5V86h-.74Z" fill="#fff"/><path d="M379.37,84.78v-2.9h-.68v-.63h.68V80.18h.75v1.07h1.09v.63h-1.09v2.83c0,.46.2.68.58.68a1.67,1.67,0,0,0,.58-.1v.63a1.94,1.94,0,0,1-.64.1A1.14,1.14,0,0,1,379.37,84.78Z" fill="#fff"/><path d="M381.92,84.65c0-1.09,1.16-1.46,2.36-1.46H385v-.34c0-.75-.29-1.06-1-1.06s-1,.27-1.08.84h-.75A1.65,1.65,0,0,1,384,81.17a1.51,1.51,0,0,1,1.71,1.68V86H385v-.6a1.71,1.71,0,0,1-1.47.68C382.62,86,381.92,85.62,381.92,84.65Zm3-.34v-.59h-.65c-.95,0-1.64.24-1.64.93,0,.49.23.79.89.79S385,85,385,84.31Z" fill="#fff"/><path d="M388.21,83.54l-1.57-2.29h.87L388.67,83l1.14-1.71h.81l-1.56,2.23L390.78,86h-.88l-1.27-1.9-1.3,1.9h-.8Z" fill="#fff"/><path d="M393.9,81.25h.75v.84a1.63,1.63,0,0,1,1.55-.92v.7c-.95,0-1.55.34-1.55,1.5V86h-.75Z" fill="#fff"/><path d="M396.67,83.65v-.07a2.21,2.21,0,0,1,2.2-2.41A2.06,2.06,0,0,1,401,83.51v.24h-3.55c0,1.07.55,1.67,1.51,1.67.73,0,1.15-.27,1.25-.82H401a1.82,1.82,0,0,1-2,1.44A2.21,2.21,0,0,1,396.67,83.65Zm3.55-.5c-.07-1-.57-1.36-1.35-1.36a1.41,1.41,0,0,0-1.4,1.36Z" fill="#fff"/><path d="M402.16,81.88h-.68v-.63h.68v-.77c0-1,.46-1.51,1.4-1.51a1.6,1.6,0,0,1,.56.09v.63a1.61,1.61,0,0,0-.53-.1c-.49,0-.69.33-.69.81v.85h1.15v.63H402.9V86h-.74Z" fill="#fff"/><path d="M404.93,84.23v-3h.74v2.94c0,.83.36,1.2,1.09,1.2a1.24,1.24,0,0,0,1.3-1.29V81.25h.75V86h-.75v-.75a1.61,1.61,0,0,1-1.49.83C405.63,86,404.93,85.52,404.93,84.23Z" fill="#fff"/><path d="M410.18,81.25h.75V82a1.61,1.61,0,0,1,1.51-.83c1,0,1.66.53,1.66,1.9V86h-.75V83c0-.83-.35-1.19-1.1-1.19a1.24,1.24,0,0,0-1.32,1.28V86h-.75Z" fill="#fff"/><path d="M415.08,83.7v-.08a2.23,2.23,0,0,1,2.2-2.45,1.72,1.72,0,0,1,1.54.83V79h.74v7h-.74v-.81a2,2,0,0,1-1.62.89A2.1,2.1,0,0,1,415.08,83.7Zm3.76-.07v-.07c0-1.2-.57-1.77-1.49-1.77s-1.5.66-1.5,1.8v.07c0,1.19.64,1.76,1.44,1.76S418.84,84.84,418.84,83.63Z" fill="#fff"/><path d="M420.88,85.43a.58.58,0,1,1,.57.57A.57.57,0,0,1,420.88,85.43Z" fill="#fff"/></g></g></g></svg>