<svg xmlns="http://www.w3.org/2000/svg" viewBox="0 0 160 600"><title>Asset 16</title><g id="Layer_2" data-name="Layer 2"><g id="Rect"><rect width="160" height="600" fill="none"/></g><g id="Put_our_taxpertise_to_work_for_you." data-name="Put our taxpertise to work for you."><path d="M21.67,162.78h6.6c4.75,0,7,2.11,7,5.8v.1c0,3.63-2.45,5.6-6.74,5.6H26.62v5.84H21.67Zm6.38,8.1c1.6,0,2.45-.75,2.45-2.18v-.1c0-1.48-.87-2.08-2.43-2.08H26.62v4.36Z" fill="#fff"/><path d="M36.64,175.71v-8.27H41V175c0,1.43.55,2.14,1.79,2.14s2.16-.78,2.16-2.4v-7.3h4.34v12.68H44.93v-2a4.19,4.19,0,0,1-4,2.25C38.45,180.41,36.64,178.91,36.64,175.71Z" fill="#fff"/><path d="M52.06,176.05V170.4H50.53v-3h1.53V164.8H56.4v2.64h2.5v3H56.4v5.23c0,.93.46,1.34,1.28,1.34a3.43,3.43,0,0,0,1.24-.22v3.3a9.37,9.37,0,0,1-2.4.36C53.66,180.41,52.06,179,52.06,176.05Z" fill="#fff"/><path d="M64.28,173.94v-.2c0-4.07,3-6.64,7-6.64s6.91,2.5,6.91,6.52v.2c0,4.12-3,6.59-6.94,6.59S64.28,178,64.28,173.94Zm9.46-.08v-.19c0-2.13-.85-3.32-2.5-3.32s-2.52,1.14-2.52,3.27v.2c0,2.18.84,3.37,2.52,3.37S73.74,176,73.74,173.86Z" fill="#fff"/><path d="M79.58,175.71v-8.27h4.34V175c0,1.43.56,2.14,1.79,2.14s2.16-.78,2.16-2.4v-7.3h4.34v12.68H87.87v-2a4.17,4.17,0,0,1-4,2.25C81.4,180.41,79.58,178.91,79.58,175.71Z" fill="#fff"/><path d="M94.42,167.44h4.34V170a4,4,0,0,1,4.1-2.69v4c-2.64-.07-4.1.75-4.1,2.79v6H94.42Z" fill="#fff"/><path d="M21.87,205.3v-5.65H20.34v-3h1.53v-2.64h4.34v2.64H28.7v3H26.21v5.23c0,.93.46,1.34,1.28,1.34a3.43,3.43,0,0,0,1.24-.22v3.3a9.37,9.37,0,0,1-2.4.36C23.47,209.66,21.87,208.28,21.87,205.3Z" fill="#fff"/><path d="M29.68,205.85c0-3,2.52-4.14,6.74-4.14h1.21v-.29c0-1.22-.29-2-1.67-2a1.57,1.57,0,0,0-1.73,1.51H30.16c.19-3.06,2.59-4.56,6.06-4.56s5.72,1.43,5.72,4.8v8.22H37.73v-1.48A4.18,4.18,0,0,1,34,209.66C31.69,209.66,29.68,208.54,29.68,205.85Zm8-.92v-.77H36.49c-1.75,0-2.52.34-2.52,1.38,0,.73.48,1.19,1.5,1.19A1.92,1.92,0,0,0,37.63,204.93Z" fill="#fff"/><path d="M47.26,202.92l-4-6.23h5l2,3.34,1.92-3.34h4.46l-4,5.89L57,209.37H52l-2.25-3.78-2.31,3.78H43Z" fill="#fff"/><path d="M58.24,196.69h4.34v1.89a4.49,4.49,0,0,1,4-2.23c3,0,5.36,2.23,5.36,6.57v.19c0,4.37-2.4,6.55-5.38,6.55a4.18,4.18,0,0,1-3.93-2.16v6.11H58.24Zm9.24,6.42v-.19c0-2.23-1-3.3-2.5-3.3s-2.52,1.14-2.52,3.28v.19c0,2.16.95,3.25,2.52,3.25S67.48,205.2,67.48,203.11Z" fill="#fff"/><path d="M72.79,203.19V203c0-4.07,3-6.64,6.86-6.64,3.47,0,6.45,2,6.45,6.55V204H77.18a2.53,2.53,0,0,0,2.64,2.64c1.43,0,2-.66,2.21-1.51H86.1c-.39,2.87-2.59,4.49-6.42,4.49C75.7,209.66,72.79,207.33,72.79,203.19Zm9.09-1.6c-.07-1.53-.82-2.38-2.23-2.38a2.41,2.41,0,0,0-2.42,2.38Z" fill="#fff"/><path d="M87.61,196.69H92v2.52A4,4,0,0,1,96,196.52v4c-2.64-.07-4.09.75-4.09,2.79v6H87.61Z" fill="#fff"/><path d="M98.4,205.3v-5.65H96.87v-3H98.4v-2.64h4.34v2.64h2.5v3h-2.5v5.23c0,.93.46,1.34,1.28,1.34a3.43,3.43,0,0,0,1.24-.22v3.3a9.37,9.37,0,0,1-2.4.36C100,209.66,98.4,208.28,98.4,205.3Z" fill="#fff"/><path d="M106.79,193.25a2.27,2.27,0,0,1,2.38-2.26,2.25,2.25,0,1,1,0,4.49A2.25,2.25,0,0,1,106.79,193.25Zm.22,3.44h4.34v12.68H107Z" fill="#fff"/><path d="M112.83,205.34h4c.14.93.56,1.43,1.79,1.43,1.07,0,1.55-.41,1.55-1s-.6-.89-2.35-1.14c-3.39-.43-4.82-1.43-4.82-4.07,0-2.81,2.49-4.17,5.43-4.17,3.13,0,5.31,1.07,5.6,4.1H120.1a1.41,1.41,0,0,0-1.62-1.26c-1,0-1.43.41-1.43,1s.58.85,2.13,1c3.52.44,5.21,1.36,5.21,4.08,0,3-2.23,4.36-5.74,4.36S112.92,208.16,112.83,205.34Z" fill="#fff"/><path d="M125.19,203.19V203c0-4.07,3-6.64,6.87-6.64,3.46,0,6.45,2,6.45,6.55V204h-8.93a2.53,2.53,0,0,0,2.65,2.64c1.43,0,2-.66,2.2-1.51h4.08c-.39,2.87-2.6,4.49-6.43,4.49C128.1,209.66,125.19,207.33,125.19,203.19Zm9.1-1.6c-.08-1.53-.83-2.38-2.23-2.38a2.42,2.42,0,0,0-2.43,2.38Z" fill="#fff"/><path d="M21.87,234.55V228.9H20.34v-3h1.53V223.3h4.34v2.64H28.7v3H26.21v5.23c0,.93.46,1.34,1.28,1.34a3.43,3.43,0,0,0,1.24-.22v3.3a9.37,9.37,0,0,1-2.4.36C23.47,238.91,21.87,237.53,21.87,234.55Z" fill="#fff"/><path d="M29.68,232.44v-.2c0-4.07,3-6.64,7-6.64s6.91,2.5,6.91,6.52v.2c0,4.12-3,6.59-6.93,6.59S29.68,236.53,29.68,232.44Zm9.45-.08v-.19c0-2.13-.85-3.32-2.5-3.32s-2.52,1.14-2.52,3.27v.2c0,2.18.85,3.37,2.52,3.37S39.13,234.47,39.13,232.36Z" fill="#fff"/><path d="M48.42,225.94H53l1.85,7.59,2.13-7.59h3.49l1.89,7.59,2.06-7.59H68.5l-4,12.68H60.33l-1.9-7.08-2,7.08H52.25Z" fill="#fff"/><path d="M68.38,232.44v-.2c0-4.07,3-6.64,7-6.64s6.91,2.5,6.91,6.52v.2c0,4.12-3,6.59-6.94,6.59S68.38,236.53,68.38,232.44Zm9.45-.08v-.19c0-2.13-.84-3.32-2.49-3.32s-2.53,1.14-2.53,3.27v.2c0,2.18.85,3.37,2.53,3.37S77.83,234.47,77.83,232.36Z" fill="#fff"/><path d="M83.78,225.94h4.34v2.52a4,4,0,0,1,4.09-2.69v4c-2.64-.07-4.09.75-4.09,2.79v6H83.78Z" fill="#fff"/><path d="M93.79,220.36h4.34V231l3.42-5h4.51l-4.15,5.7,4.49,7h-4.85l-3.42-5.55v5.55H93.79Z" fill="#fff"/><path d="M21.94,258.15h-1.6v-3h1.6v-1.12c0-3.15,2-4.65,5-4.65a8,8,0,0,1,2,.26v3.18a3.9,3.9,0,0,0-1.19-.17,1.27,1.27,0,0,0-1.45,1.38v1.12h2.57v3H26.26v9.72H21.94Z" fill="#fff"/><path d="M29.17,261.69v-.2c0-4.07,3-6.64,6.95-6.64s6.92,2.5,6.92,6.52v.2c0,4.12-3,6.59-6.94,6.59S29.17,265.78,29.17,261.69Zm9.45-.08v-.19c0-2.13-.85-3.32-2.5-3.32s-2.52,1.14-2.52,3.27v.2c0,2.18.85,3.37,2.52,3.37S38.62,263.72,38.62,261.61Z" fill="#fff"/><path d="M44.56,255.19H48.9v2.52A4,4,0,0,1,53,255v4c-2.64-.07-4.1.75-4.1,2.79v6H44.56Z" fill="#fff"/><path d="M63,266.58,57.9,255.19h4.71L65.22,262l2.43-6.76H71.8L65,272.11H60.86Z" fill="#fff"/><path d="M71.55,261.69v-.2c0-4.07,3-6.64,7-6.64s6.91,2.5,6.91,6.52v.2c0,4.12-3,6.59-6.93,6.59S71.55,265.78,71.55,261.69Zm9.46-.08v-.19c0-2.13-.85-3.32-2.5-3.32S76,259.24,76,261.37v.2c0,2.18.85,3.37,2.52,3.37S81,263.72,81,261.61Z" fill="#fff"/><path d="M86.86,263.46v-8.27H91.2v7.56c0,1.43.55,2.14,1.79,2.14s2.16-.78,2.16-2.4v-7.3h4.34v12.68H95.15v-2a4.19,4.19,0,0,1-4,2.25C88.67,268.16,86.86,266.66,86.86,263.46Z" fill="#fff"/><path d="M101.53,265.69a2.41,2.41,0,0,1,2.47-2.45,2.45,2.45,0,1,1,0,4.9A2.42,2.42,0,0,1,101.53,265.69Z" fill="#fff"/></g></g></svg>