<svg xmlns="http://www.w3.org/2000/svg" viewBox="0 0 300 250"><title>Asset 2</title><g id="Layer_2" data-name="Layer 2"><g id="Rect"><rect width="300" height="250" fill="none"/></g><g id="Drop_off_work_with_a_pro_remotely_or_file_online._We_re_still" data-name="Drop off, work with a pro remotely, or file online. We’re still"><path d="M21.94,27.57h7.32C36.41,27.57,40,31.15,40,37.4v.22C40,43.9,36.33,47.7,29.23,47.7H21.94Zm7.12,15.68c3.44,0,5-1.8,5-5.54v-.23C34,33.65,32.5,32,29,32H27.74V43.25Z" fill="#fff"/><path d="M42,33h5v2.93a4.64,4.64,0,0,1,4.76-3.13v4.7c-3.07-.08-4.76.87-4.76,3.24v7H42Z" fill="#fff"/><path d="M52.69,40.52V40.3c0-4.73,3.52-7.72,8.08-7.72s8,2.9,8,7.58v.22c0,4.79-3.52,7.66-8.05,7.66S52.69,45.28,52.69,40.52Zm11-.08v-.23c0-2.47-1-3.85-2.9-3.85s-2.93,1.32-2.93,3.8v.22c0,2.54,1,3.92,2.93,3.92S63.67,42.89,63.67,40.44Z" fill="#fff"/><path d="M70.57,33h5v2.19a5.2,5.2,0,0,1,4.59-2.59c3.43,0,6.22,2.59,6.22,7.63v.23c0,5.07-2.79,7.6-6.25,7.6a4.84,4.84,0,0,1-4.56-2.51v7.1h-5Zm10.72,7.46v-.23c0-2.59-1.12-3.83-2.9-3.83s-2.92,1.33-2.92,3.81v.22c0,2.51,1.09,3.77,2.92,3.77S81.29,42.86,81.29,40.44Z" fill="#fff"/><path d="M92.58,40.52V40.3c0-4.73,3.52-7.72,8.08-7.72s8,2.9,8,7.58v.22c0,4.79-3.52,7.66-8,7.66S92.58,45.28,92.58,40.52Zm11-.08v-.23c0-2.47-1-3.85-2.9-3.85s-2.92,1.32-2.92,3.8v.22c0,2.54,1,3.92,2.92,3.92S103.56,42.89,103.56,40.44Z" fill="#fff"/><path d="M111.22,36.41h-1.85V33h1.85V31.85c0-3.66,2.26-5.38,5.75-5.38a8.37,8.37,0,0,1,2.25.29v3.68a4.56,4.56,0,0,0-1.35-.19,1.47,1.47,0,0,0-1.64,1.6V33h4.28v-1.3c0-3.66,2.31-5.4,5.78-5.4a8.88,8.88,0,0,1,2.3.31v3.69a4.34,4.34,0,0,0-1.38-.2,1.47,1.47,0,0,0-1.66,1.6V33h3v3.43h-3V47.7h-5V36.41h-4.28V47.7h-5Z" fill="#fff"/><path d="M127.47,50l2.36-7.4,4.68,1.66-4.06,6.9Z" fill="#fff"/><path d="M140.59,33h5.26L148,41.79,150.47,33h4.06l2.19,8.81L159.11,33h4.79L159.23,47.7h-4.82l-2.19-8.22-2.28,8.22H145Z" fill="#fff"/><path d="M163.76,40.52V40.3c0-4.73,3.52-7.72,8.08-7.72s8,2.9,8,7.58v.22c0,4.79-3.51,7.66-8.05,7.66S163.76,45.28,163.76,40.52Zm11-.08v-.23c0-2.47-1-3.85-2.9-3.85s-2.93,1.32-2.93,3.8v.22c0,2.54,1,3.92,2.93,3.92S174.74,42.89,174.74,40.44Z" fill="#fff"/><path d="M181.64,33h5v2.93a4.64,4.64,0,0,1,4.76-3.13v4.7c-3.07-.08-4.76.87-4.76,3.24v7h-5Z" fill="#fff"/><path d="M193.27,26.5h5V38.81l4-5.83h5.23l-4.81,6.61,5.21,8.11h-5.63l-4-6.45V47.7h-5Z" fill="#fff"/><path d="M213,33h5.26l2.14,8.81L222.86,33h4l2.2,8.81L231.5,33h4.79L231.62,47.7H226.8l-2.2-8.22-2.28,8.22h-4.89Z" fill="#fff"/><path d="M237.47,29a2.78,2.78,0,1,1,2.76,2.59A2.64,2.64,0,0,1,237.47,29Zm.26,4h5V47.7h-5Z" fill="#fff"/><path d="M246.14,43V36.41h-1.77V33h1.77V29.91h5V33h2.9v3.43h-2.9v6.08a1.35,1.35,0,0,0,1.5,1.55,3.8,3.8,0,0,0,1.43-.25v3.83a10.53,10.53,0,0,1-2.79.42C248,48,246.14,46.43,246.14,43Z" fill="#fff"/><path d="M256,26.5h5v8.84a5.2,5.2,0,0,1,4.84-2.76c2.84,0,4.81,1.78,4.81,5.55V47.7h-5V39.14c0-1.66-.65-2.47-2.12-2.47s-2.5.9-2.5,2.78V47.7h-5Z" fill="#fff"/><path d="M20.65,74.62c0-3.46,2.93-4.81,7.82-4.81h1.41v-.34c0-1.41-.34-2.34-1.94-2.34a1.81,1.81,0,0,0-2,1.75H21.21c.23-3.55,3-5.3,7-5.3s6.64,1.66,6.64,5.58V78.7H30V77A4.82,4.82,0,0,1,25.63,79C23,79,20.65,77.74,20.65,74.62Zm9.23-1.07v-.9H28.56c-2,0-2.93.39-2.93,1.6,0,.85.56,1.38,1.75,1.38C28.81,75.63,29.88,74.82,29.88,73.55Z" fill="#fff"/><path d="M42.47,64h5v2.19a5.2,5.2,0,0,1,4.59-2.59c3.43,0,6.22,2.59,6.22,7.63v.23c0,5.07-2.79,7.6-6.25,7.6a4.84,4.84,0,0,1-4.56-2.51v7.1h-5Zm10.72,7.46v-.23c0-2.59-1.12-3.83-2.9-3.83s-2.92,1.33-2.92,3.81v.22c0,2.51,1.09,3.77,2.92,3.77S53.19,73.86,53.19,71.44Z" fill="#fff"/><path d="M60.15,64h5v2.93A4.64,4.64,0,0,1,70,63.78v4.7c-3.07-.08-4.76.87-4.76,3.24v7h-5Z" fill="#fff"/><path d="M70.85,71.52V71.3c0-4.73,3.52-7.72,8.08-7.72s8,2.9,8,7.58v.22c0,4.79-3.52,7.66-8,7.66S70.85,76.28,70.85,71.52Zm11-.08v-.23c0-2.47-1-3.85-2.9-3.85S76,68.68,76,71.16v.22c0,2.54,1,3.92,2.93,3.92S81.83,73.89,81.83,71.44Z" fill="#fff"/><path d="M93.85,64h5v2.93a4.64,4.64,0,0,1,4.76-3.13v4.7c-3.07-.08-4.76.87-4.76,3.24v7h-5Z" fill="#fff"/><path d="M104.55,71.52V71.3c0-4.73,3.52-7.72,8-7.72,4,0,7.49,2.31,7.49,7.61v1.32H109.65a2.94,2.94,0,0,0,3.06,3.07c1.67,0,2.37-.76,2.57-1.75H120c-.45,3.32-3,5.21-7.46,5.21C107.93,79,104.55,76.34,104.55,71.52Zm10.56-1.86c-.09-1.77-1-2.75-2.59-2.75s-2.56,1-2.82,2.75Z" fill="#fff"/><path d="M121.75,64h5v2.25a5.15,5.15,0,0,1,4.62-2.65,4,4,0,0,1,4,2.45,5.84,5.84,0,0,1,4.87-2.45c2.78,0,4.81,1.81,4.81,5.49V78.7h-5V69.92c0-1.49-.73-2.23-1.88-2.23a2.19,2.19,0,0,0-2.26,2.48V78.7h-5V69.92c0-1.49-.73-2.23-1.89-2.23a2.19,2.19,0,0,0-2.25,2.48V78.7h-5Z" fill="#fff"/><path d="M146.76,71.52V71.3c0-4.73,3.51-7.72,8.07-7.72s8,2.9,8,7.58v.22c0,4.79-3.52,7.66-8.05,7.66S146.76,76.28,146.76,71.52Zm11-.08v-.23c0-2.47-1-3.85-2.91-3.85s-2.92,1.32-2.92,3.8v.22c0,2.54,1,3.92,2.92,3.92S157.74,73.89,157.74,71.44Z" fill="#fff"/><path d="M165.31,74V67.41h-1.77V64h1.77V60.91h5V64h2.9v3.43h-2.9v6.08c0,1.07.53,1.55,1.49,1.55a3.85,3.85,0,0,0,1.44-.25v3.83a10.6,10.6,0,0,1-2.79.42C167.17,79,165.31,77.43,165.31,74Z" fill="#fff"/><path d="M174.38,71.52V71.3c0-4.73,3.51-7.72,8-7.72,4,0,7.49,2.31,7.49,7.61v1.32H179.47a2.94,2.94,0,0,0,3.07,3.07c1.66,0,2.36-.76,2.56-1.75h4.73c-.45,3.32-3,5.21-7.46,5.21C177.75,79,174.38,76.34,174.38,71.52Zm10.55-1.86c-.08-1.77-1-2.75-2.59-2.75s-2.56,1-2.81,2.75Z" fill="#fff"/><path d="M191.72,57.5h5V78.7h-5Z" fill="#fff"/><path d="M204.05,77.21,198.17,64h5.46l3,7.85L209.48,64h4.82l-7.88,19.65H201.6Z" fill="#fff"/><path d="M212.38,81l2.37-7.4,4.67,1.66-4,6.9Z" fill="#fff"/><path d="M226,71.52V71.3c0-4.73,3.51-7.72,8.07-7.72s8,2.9,8,7.58v.22c0,4.79-3.52,7.66-8.05,7.66S226,76.28,226,71.52Zm11-.08v-.23c0-2.47-1-3.85-2.9-3.85s-2.92,1.32-2.92,3.8v.22c0,2.54,1,3.92,2.92,3.92S236.93,73.89,236.93,71.44Z" fill="#fff"/><path d="M243.83,64h5v2.93a4.64,4.64,0,0,1,4.76-3.13v4.7c-3.07-.08-4.76.87-4.76,3.24v7h-5Z" fill="#fff"/><path d="M22.25,98.41H20.39V95h1.86v-1.3c0-3.66,2.28-5.4,5.77-5.4a8.9,8.9,0,0,1,2.31.31v3.69a4.34,4.34,0,0,0-1.38-.2,1.48,1.48,0,0,0-1.69,1.6V95h3v3.43h-3V109.7h-5Z" fill="#fff"/><path d="M31.82,91a2.78,2.78,0,1,1,2.76,2.59A2.64,2.64,0,0,1,31.82,91Zm.26,4h5V109.7h-5Z" fill="#fff"/><path d="M40,88.5h5v21.2H40Z" fill="#fff"/><path d="M46.89,102.52v-.22c0-4.73,3.52-7.72,8-7.72,4,0,7.49,2.31,7.49,7.61v1.32H52a2.94,2.94,0,0,0,3.07,3.07c1.66,0,2.37-.76,2.56-1.75h4.73c-.45,3.32-3,5.21-7.46,5.21C50.27,110,46.89,107.34,46.89,102.52Zm10.56-1.86c-.09-1.77-1-2.75-2.6-2.75s-2.56,1-2.81,2.75Z" fill="#fff"/><path d="M68.43,102.52v-.22c0-4.73,3.52-7.72,8.08-7.72s8,2.9,8,7.58v.22c0,4.79-3.52,7.66-8,7.66S68.43,107.28,68.43,102.52Zm11-.08v-.23c0-2.47-1-3.85-2.9-3.85s-2.93,1.32-2.93,3.8v.22c0,2.54,1,3.92,2.93,3.92S79.41,104.89,79.41,102.44Z" fill="#fff"/><path d="M86.31,95h5v2.36a5.21,5.21,0,0,1,4.85-2.76c2.84,0,4.81,1.78,4.81,5.55v9.57H96v-8.56c0-1.66-.65-2.47-2.11-2.47s-2.51.9-2.51,2.78v8.25h-5Z" fill="#fff"/><path d="M103.59,88.5h5v21.2h-5Z" fill="#fff"/><path d="M111.19,91A2.78,2.78,0,1,1,114,93.57,2.64,2.64,0,0,1,111.19,91Zm.26,4h5V109.7h-5Z" fill="#fff"/><path d="M119.19,95h5v2.36a5.2,5.2,0,0,1,4.84-2.76c2.85,0,4.82,1.78,4.82,5.55v9.57h-5v-8.56c0-1.66-.65-2.47-2.11-2.47s-2.51.9-2.51,2.78v8.25h-5Z" fill="#fff"/><path d="M135.55,102.52v-.22c0-4.73,3.52-7.72,8-7.72,4,0,7.48,2.31,7.48,7.61v1.32H140.64a3,3,0,0,0,3.07,3.07c1.66,0,2.37-.76,2.56-1.75H151c-.45,3.32-3,5.21-7.46,5.21C138.93,110,135.55,107.34,135.55,102.52Zm10.56-1.86c-.09-1.77-1-2.75-2.59-2.75a2.8,2.8,0,0,0-2.82,2.75Z" fill="#fff"/><path d="M152.41,107.17a2.82,2.82,0,0,1,2.88-2.85,2.85,2.85,0,1,1,0,5.69A2.82,2.82,0,0,1,152.41,107.17Z" fill="#fff"/><path d="M164.63,89.57h5.83l2.59,12.56,2.7-12.56h5.13l2.93,12.67,2.73-12.67h5.35l-4.71,20.13h-6l-3.1-12.78-3.12,12.78h-5.63Z" fill="#fff"/><path d="M191.24,102.52v-.22c0-4.73,3.52-7.72,8-7.72,4,0,7.49,2.31,7.49,7.61v1.32H196.34a2.94,2.94,0,0,0,3.07,3.07c1.66,0,2.36-.76,2.56-1.75h4.73c-.45,3.32-3,5.21-7.46,5.21C194.62,110,191.24,107.34,191.24,102.52Zm10.56-1.86c-.09-1.77-1-2.75-2.59-2.75s-2.56,1-2.82,2.75Z" fill="#fff"/><path d="M207.21,96.55l2.25-7.34,4.45,1.49-3.86,7Z" fill="#fff"/><path d="M214.08,95h5v2.93a4.62,4.62,0,0,1,4.75-3.13v4.7c-3.07-.08-4.75.87-4.75,3.24v7h-5Z" fill="#fff"/><path d="M224.78,102.52v-.22c0-4.73,3.51-7.72,8-7.72,4,0,7.49,2.31,7.49,7.61v1.32H229.87a2.94,2.94,0,0,0,3.07,3.07c1.66,0,2.36-.76,2.56-1.75h4.73c-.45,3.32-3,5.21-7.46,5.21C228.15,110,224.78,107.34,224.78,102.52Zm10.55-1.86c-.08-1.77-1-2.75-2.59-2.75s-2.56,1-2.81,2.75Z" fill="#fff"/><path d="M20.51,136h4.64c.17,1.07.65,1.66,2.09,1.66,1.23,0,1.8-.48,1.8-1.21s-.71-1-2.73-1.32c-3.95-.51-5.61-1.67-5.61-4.73,0-3.27,2.9-4.85,6.31-4.85,3.63,0,6.17,1.24,6.5,4.76H29a1.64,1.64,0,0,0-1.88-1.46c-1.1,0-1.66.48-1.66,1.15s.67,1,2.47,1.21c4.08.51,6.06,1.58,6.06,4.73,0,3.49-2.59,5.07-6.68,5.07S20.62,139.29,20.51,136Z" fill="#fff"/><path d="M36.25,136v-6.56H34.47V126h1.78v-3.07h5V126h2.9v3.43h-2.9v6.08a1.35,1.35,0,0,0,1.5,1.55,3.8,3.8,0,0,0,1.43-.25v3.83a10.52,10.52,0,0,1-2.78.42C38.1,141,36.25,139.43,36.25,136Z" fill="#fff"/><path d="M46,122a2.78,2.78,0,1,1,2.76,2.59A2.63,2.63,0,0,1,46,122Zm.25,4h5V140.7h-5Z" fill="#fff"/><path d="M54.12,119.5h5v21.2h-5Z" fill="#fff"/><path d="M62,119.5h5v21.2H62Z" fill="#fff"/><path d="M74.82,119.5h5v8.84a5.2,5.2,0,0,1,4.84-2.76c2.84,0,4.81,1.78,4.81,5.55v9.57h-5v-8.56c0-1.66-.64-2.47-2.11-2.47s-2.5.9-2.5,2.78v8.25h-5Z" fill="#fff"/><path d="M91.18,133.52v-.22c0-4.73,3.51-7.72,8-7.72,4,0,7.49,2.31,7.49,7.6v1.33H96.27a2.94,2.94,0,0,0,3.07,3.07c1.66,0,2.37-.76,2.56-1.75h4.73c-.45,3.32-3,5.21-7.46,5.21C94.55,141,91.18,138.34,91.18,133.52Zm10.55-1.86c-.08-1.77-1-2.75-2.59-2.75s-2.56,1-2.81,2.75Z" fill="#fff"/><path d="M108.38,126h5v2.93a4.64,4.64,0,0,1,4.76-3.13v4.7c-3.07-.08-4.76.87-4.76,3.24v7h-5Z" fill="#fff"/><path d="M119.08,133.52v-.22c0-4.73,3.52-7.72,8-7.72,4,0,7.49,2.31,7.49,7.6v1.33H124.17a2.94,2.94,0,0,0,3.07,3.07c1.66,0,2.37-.76,2.56-1.75h4.73c-.45,3.32-3,5.21-7.46,5.21C122.46,141,119.08,138.34,119.08,133.52Zm10.55-1.86c-.08-1.77-.95-2.75-2.59-2.75s-2.56,1-2.81,2.75Z" fill="#fff"/><path d="M142.08,136v-6.56h-1.77V126h1.77v-3.07h5V126H150v3.43h-2.9v6.08c0,1.07.53,1.55,1.49,1.55a3.81,3.81,0,0,0,1.44-.25v3.83a10.6,10.6,0,0,1-2.79.42C143.94,141,142.08,139.43,142.08,136Z" fill="#fff"/><path d="M151.15,133.52v-.22c0-4.73,3.52-7.72,8.08-7.72s8,2.9,8,7.58v.22c0,4.79-3.52,7.66-8.05,7.66S151.15,138.28,151.15,133.52Zm11-.08v-.23c0-2.47-1-3.85-2.9-3.85s-2.93,1.32-2.93,3.8v.22c0,2.54,1,3.91,2.93,3.91S162.13,135.89,162.13,133.44Z" fill="#fff"/><path d="M174.15,119.5h5v8.84a5.2,5.2,0,0,1,4.84-2.76c2.84,0,4.81,1.78,4.81,5.55v9.57h-5v-8.56c0-1.66-.65-2.47-2.12-2.47s-2.5.9-2.5,2.78v8.25h-5Z" fill="#fff"/><path d="M190.51,133.52v-.22c0-4.73,3.52-7.72,8-7.72,4,0,7.48,2.31,7.48,7.6v1.33H195.6a3,3,0,0,0,3.07,3.07c1.66,0,2.37-.76,2.56-1.75H206c-.45,3.32-3,5.21-7.46,5.21C193.89,141,190.51,138.34,190.51,133.52Zm10.56-1.86c-.09-1.77-1-2.75-2.59-2.75a2.8,2.8,0,0,0-2.82,2.75Z" fill="#fff"/><path d="M207.85,119.5h5v21.2h-5Z" fill="#fff"/><path d="M215.57,126h5v2.19a5.2,5.2,0,0,1,4.58-2.59c3.44,0,6.23,2.59,6.23,7.63v.23c0,5.06-2.79,7.6-6.25,7.6a4.84,4.84,0,0,1-4.56-2.51v7.1h-5Zm10.72,7.46v-.23c0-2.59-1.12-3.83-2.9-3.83s-2.93,1.33-2.93,3.8v.23c0,2.51,1.1,3.77,2.93,3.77S226.29,135.86,226.29,133.44Z" fill="#fff"/><path d="M232.68,138.17a2.82,2.82,0,0,1,2.88-2.85,2.85,2.85,0,1,1,0,5.69A2.82,2.82,0,0,1,232.68,138.17Z" fill="#fff"/></g></g></svg>