<svg xmlns="http://www.w3.org/2000/svg" viewBox="0 0 600 1200"><title>txt</title><g id="Layer_2" data-name="Layer 2"><g id="Easily_the_easiest_way_to_do_your_own_taxes." data-name="Easily the easiest way to do your own taxes."><path d="M44.31,110.17H88.52v14.14H62.57v11H83.24v13.06H62.57V160H90v14.14H44.31Z" fill="#13aa40"/><path d="M93.62,161.17c0-11,9.3-15.3,24.87-15.3H123v-1.08c0-4.47-1.07-7.42-6.17-7.42-4.38,0-6,2.59-6.35,5.55h-15c.71-11.28,9.57-16.82,22.36-16.82s21.12,5.28,21.12,17.71v30.33H123.32v-5.46c-2.23,3.4-6.35,6.53-13.87,6.53C101,175.21,93.62,171.1,93.62,161.17Zm29.34-3.4V154.9h-4.2c-6.44,0-9.31,1.26-9.31,5.1,0,2.69,1.79,4.39,5.55,4.39C119.56,164.39,123,161.79,123,157.77Z" fill="#13aa40"/><path d="M143.54,159.29h14.77c.53,3.4,2.06,5.28,6.62,5.28,3.94,0,5.72-1.53,5.72-3.85s-2.23-3.31-8.67-4.21c-12.53-1.61-17.81-5.27-17.81-15,0-10.37,9.22-15.38,20-15.38,11.54,0,19.6,3.93,20.67,15.12H170.39c-.63-3.14-2.33-4.66-6-4.66-3.49,0-5.28,1.52-5.28,3.67s2.15,3.13,7.88,3.85c13,1.61,19.23,5,19.23,15,0,11.09-8.23,16.1-21.2,16.1C151.69,175.21,143.9,169.67,143.54,159.29Z" fill="#13aa40"/><path d="M191.05,114.65c0-4.75,3.76-8.32,8.77-8.32s8.86,3.57,8.86,8.32-3.85,8.23-8.86,8.23S191.05,119.39,191.05,114.65Zm.81,12.7h16v46.79h-16Z" fill="#13aa40"/><path d="M216.91,106.77h15.93v67.37H216.91Z" fill="#13aa40"/><path d="M256.1,169.4l-18.7-42.05h17.36l9.66,25,8.95-25h15.3l-25.05,62.44h-15.3Z" fill="#13aa40"/><path d="M311.22,159.11V138.26h-5.64V127.35h5.64V117.6h16v9.75h9.21v10.91h-9.21v19.33c0,3.4,1.7,4.92,4.74,4.92a12.11,12.11,0,0,0,4.56-.81v12.17a33.5,33.5,0,0,1-8.86,1.34C317.12,175.21,311.22,170.11,311.22,159.11Z" fill="#13aa40"/><path d="M342.54,106.77h16v28.09c2.51-4.83,7.61-8.76,15.39-8.76,9,0,15.3,5.63,15.3,17.62v30.42h-16v-27.2c0-5.28-2.06-7.87-6.71-7.87s-8,2.86-8,8.86v26.21h-16Z" fill="#13aa40"/><path d="M394.52,151.33v-.72c0-15,11.19-24.51,25.32-24.51,12.8,0,23.8,7.33,23.8,24.15v4.21H410.72c.44,6.17,4,9.75,9.75,9.75,5.28,0,7.52-2.42,8.14-5.55h15c-1.43,10.56-9.57,16.55-23.71,16.55C405.26,175.21,394.52,166.62,394.52,151.33Zm33.56-5.91c-.27-5.64-3.05-8.77-8.24-8.77-4.83,0-8.14,3.13-8.94,8.77Z" fill="#13aa40"/><path d="M40.38,244.75V244c0-15,11.18-24.51,25.32-24.51,12.8,0,23.8,7.34,23.8,24.16v4.2H56.57c.45,6.17,4,9.75,9.76,9.75,5.28,0,7.51-2.41,8.14-5.54h15c-1.43,10.55-9.57,16.55-23.71,16.55C51.11,268.64,40.38,260.05,40.38,244.75Zm33.55-5.9c-.27-5.64-3-8.77-8.23-8.77-4.83,0-8.14,3.13-9,8.77Z" fill="#13aa40"/><path d="M92.81,254.59c0-11,9.3-15.3,24.87-15.3h4.48v-1.07c0-4.47-1.08-7.43-6.18-7.43-4.38,0-6,2.6-6.35,5.55h-15c.71-11.27,9.57-16.82,22.37-16.82s21.11,5.28,21.11,17.72v30.32H122.52v-5.45c-2.24,3.4-6.36,6.53-13.87,6.53C100.24,268.64,92.81,264.52,92.81,254.59Zm29.35-3.4v-2.86H118c-6.44,0-9.3,1.25-9.3,5.1,0,2.68,1.79,4.38,5.54,4.38C118.76,257.81,122.16,255.22,122.16,251.19Z" fill="#13aa40"/><path d="M142.74,252.71H157.5c.54,3.4,2.06,5.28,6.62,5.28,3.94,0,5.73-1.52,5.73-3.85s-2.24-3.31-8.68-4.2c-12.53-1.61-17.81-5.28-17.81-15,0-10.38,9.22-15.39,20-15.39,11.54,0,19.59,3.94,20.66,15.12H169.58c-.63-3.13-2.33-4.65-6-4.65-3.49,0-5.27,1.52-5.27,3.67s2.14,3.13,7.87,3.84c13,1.61,19.24,5,19.24,15,0,11.1-8.23,16.11-21.21,16.11C150.88,268.64,143.09,263.09,142.74,252.71Z" fill="#13aa40"/><path d="M190.25,208.07c0-4.74,3.76-8.32,8.77-8.32s8.86,3.58,8.86,8.32S204,216.3,199,216.3,190.25,212.81,190.25,208.07Zm.8,12.7h16v46.79h-16Z" fill="#13aa40"/><path d="M213.15,244.75V244c0-15,11.19-24.51,25.33-24.51,12.79,0,23.8,7.34,23.8,24.16v4.2H229.35c.45,6.17,4,9.75,9.75,9.75,5.28,0,7.52-2.41,8.14-5.54h15c-1.44,10.55-9.58,16.55-23.72,16.55C223.89,268.64,213.15,260.05,213.15,244.75Zm33.56-5.9c-.27-5.64-3-8.77-8.23-8.77-4.84,0-8.15,3.13-8.95,8.77Z" fill="#13aa40"/><path d="M265.14,252.71H279.9c.54,3.4,2.06,5.28,6.62,5.28,3.94,0,5.73-1.52,5.73-3.85s-2.24-3.31-8.68-4.2c-12.53-1.61-17.81-5.28-17.81-15,0-10.38,9.22-15.39,20.05-15.39,11.54,0,19.59,3.94,20.67,15.12H292c-.63-3.13-2.33-4.65-6-4.65-3.49,0-5.28,1.52-5.28,3.67s2.14,3.13,7.87,3.84c13,1.61,19.24,5,19.24,15,0,11.1-8.23,16.11-21.21,16.11C273.28,268.64,265.5,263.09,265.14,252.71Z" fill="#13aa40"/><path d="M315.16,252.53V231.69h-5.64V220.77h5.64V211h16v9.75h9.22v10.92h-9.22V251c0,3.4,1.7,4.92,4.74,4.92a12.17,12.17,0,0,0,4.57-.8v12.16a33.44,33.44,0,0,1-8.86,1.35C321.06,268.64,315.16,263.54,315.16,252.53Z" fill="#13aa40"/><path d="M358.82,220.77h16.73l6.8,28,7.87-28h12.89l7,28,7.6-28h15.22l-14.86,46.79h-15.3l-7-26.12-7.25,26.12H373Z" fill="#13aa40"/><path d="M432.55,254.59c0-11,9.3-15.3,24.87-15.3h4.48v-1.07c0-4.47-1.08-7.43-6.18-7.43-4.38,0-6,2.6-6.35,5.55h-15c.71-11.27,9.57-16.82,22.37-16.82s21.11,5.28,21.11,17.72v30.32H462.25v-5.45c-2.23,3.4-6.35,6.53-13.87,6.53C440,268.64,432.55,264.52,432.55,254.59Zm29.35-3.4v-2.86h-4.21c-6.44,0-9.31,1.25-9.31,5.1,0,2.68,1.79,4.38,5.55,4.38C458.5,257.81,461.9,255.22,461.9,251.19Z" fill="#13aa40"/><path d="M498.67,262.82l-18.7-42h17.36l9.66,25,9-25h15.3l-25.05,62.45H490.88Z" fill="#13aa40"/><path d="M45,346V325.11H39.39V314.2H45v-9.75h16v9.75h9.21v10.91H61.05v19.33c0,3.4,1.7,4.92,4.74,4.92a12.11,12.11,0,0,0,4.56-.81v12.17a33.5,33.5,0,0,1-8.86,1.34C50.94,362.06,45,357,45,346Z" fill="#13aa40"/><path d="M73.84,338.18v-.72c0-15,11.19-24.51,25.68-24.51S125,322.16,125,337v.72c0,15.21-11.18,24.33-25.59,24.33S73.84,353.3,73.84,338.18Zm34.9-.27v-.72c0-7.87-3.13-12.25-9.22-12.25s-9.3,4.2-9.3,12.07v.72c0,8,3.13,12.43,9.3,12.43C105.52,350.16,108.74,345.69,108.74,337.91Z" fill="#13aa40"/><path d="M144.62,338.09v-.72c0-15.92,8.76-24.42,19.86-24.42,7.34,0,11.72,3.13,14.41,7.87v-27.2h16V361h-16v-7.61a15.77,15.77,0,0,1-14.59,8.68C153.47,362.06,144.62,354.28,144.62,338.09Zm34.71-.27v-.72c0-7.87-3.31-12.07-9.21-12.07s-9.22,4-9.22,12.16v.72c0,7.87,3.49,11.9,9,11.9C175.75,349.81,179.33,345.78,179.33,337.82Z" fill="#13aa40"/><path d="M200.54,338.18v-.72c0-15,11.18-24.51,25.68-24.51s25.5,9.21,25.5,24.06v.72c0,15.21-11.19,24.33-25.59,24.33S200.54,353.3,200.54,338.18Zm34.89-.27v-.72c0-7.87-3.13-12.25-9.21-12.25s-9.31,4.2-9.31,12.07v.72c0,8,3.13,12.43,9.31,12.43C232.21,350.16,235.43,345.69,235.43,337.91Z" fill="#13aa40"/><path d="M288.31,356.25l-18.7-42.05H287l9.66,25,8.95-25h15.3l-25.05,62.45h-15.3Z" fill="#13aa40"/><path d="M320,338.18v-.72c0-15,11.18-24.51,25.68-24.51s25.5,9.21,25.5,24.06v.72c0,15.21-11.19,24.33-25.59,24.33S320,353.3,320,338.18Zm34.89-.27v-.72c0-7.87-3.13-12.25-9.21-12.25s-9.31,4.2-9.31,12.07v.72c0,8,3.13,12.43,9.31,12.43C351.66,350.16,354.88,345.69,354.88,337.91Z" fill="#13aa40"/><path d="M376.45,344.71V314.2h16v27.91c0,5.28,2.06,7.88,6.62,7.88,4.84,0,8-2.87,8-8.86V314.2h16V361h-16v-7.25c-2.51,4.83-7.07,8.32-14.86,8.32C383.16,362.06,376.45,356.52,376.45,344.71Z" fill="#13aa40"/><path d="M431.2,314.2h16v9.3c2.95-7,7.87-10,15.12-9.93v14.94c-9.75-.26-15.12,2.78-15.12,10.29V361h-16Z" fill="#13aa40"/><path d="M40.38,431.6v-.71c0-15,11.18-24.52,25.68-24.52s25.5,9.22,25.5,24.07v.71c0,15.21-11.19,24.34-25.59,24.34S40.38,446.72,40.38,431.6Zm34.89-.27v-.71c0-7.87-3.13-12.26-9.21-12.26s-9.31,4.21-9.31,12.08v.71c0,8.06,3.13,12.44,9.31,12.44C72.05,443.59,75.27,439.12,75.27,431.33Z" fill="#13aa40"/><path d="M91.74,407.63h16.73l6.8,28,7.87-28H136l7,28,7.6-28h15.21L151,454.41h-15.3l-7-26.12-7.25,26.12H105.87Z" fill="#13aa40"/><path d="M169.94,407.63h16v7.51c2.51-4.83,7.61-8.77,15.39-8.77,9,0,15.31,5.64,15.31,17.63v30.41h-16V427.22c0-5.28-2.06-7.87-6.71-7.87s-8,2.86-8,8.85v26.21h-16Z" fill="#13aa40"/><path d="M242.86,439.38V418.54h-5.64V407.63h5.64v-9.76h16v9.76h9.21v10.91h-9.21v19.32c0,3.4,1.7,4.92,4.74,4.92a12.12,12.12,0,0,0,4.56-.8v12.17a33.92,33.92,0,0,1-8.86,1.34C248.77,455.49,242.86,450.39,242.86,439.38Z" fill="#13aa40"/><path d="M271.67,441.44c0-11,9.31-15.3,24.87-15.3H301v-1.07c0-4.47-1.08-7.42-6.18-7.42-4.38,0-6,2.59-6.35,5.54h-15c.72-11.27,9.57-16.82,22.37-16.82S317,411.65,317,424.09v30.32H301.38V449c-2.24,3.4-6.36,6.53-13.87,6.53C279.1,455.49,271.67,451.37,271.67,441.44ZM301,438v-2.86h-4.21c-6.44,0-9.3,1.25-9.3,5.1,0,2.68,1.79,4.38,5.54,4.38C297.62,444.66,301,442.07,301,438Z" fill="#13aa40"/><path d="M336.54,430.62l-14.58-23h18.43L347.63,420l7.07-12.34h16.47L356.4,429.37l16.2,25H354.17l-8.32-14-8.51,14H321Z" fill="#13aa40"/><path d="M370.54,431.6v-.71c0-15,11.18-24.52,25.32-24.52,12.8,0,23.8,7.34,23.8,24.16v4.2H386.73c.45,6.18,4,9.75,9.76,9.75,5.28,0,7.51-2.41,8.14-5.54h15c-1.43,10.55-9.57,16.55-23.71,16.55C381.28,455.49,370.54,446.9,370.54,431.6Zm33.55-5.9c-.27-5.64-3-8.77-8.23-8.77-4.83,0-8.14,3.13-8.95,8.77Z" fill="#13aa40"/><path d="M422.52,439.56h14.77c.53,3.4,2,5.28,6.62,5.28,3.93,0,5.72-1.52,5.72-3.84s-2.23-3.31-8.67-4.21c-12.53-1.61-17.81-5.28-17.81-15,0-10.38,9.22-15.39,20-15.39,11.54,0,19.6,3.94,20.67,15.12H449.37c-.63-3.13-2.33-4.65-6-4.65-3.49,0-5.28,1.52-5.28,3.67s2.15,3.13,7.88,3.85c13,1.61,19.23,5,19.23,15,0,11.1-8.23,16.11-21.2,16.11C430.67,455.49,422.88,449.94,422.52,439.56Z" fill="#13aa40"/><path d="M469.77,446.36a8.91,8.91,0,0,1,9.12-9,9,9,0,1,1,0,18.07A8.92,8.92,0,0,1,469.77,446.36Z" fill="#13aa40"/><rect width="600" height="1200" fill="none"/></g></g></svg>