<svg xmlns="http://www.w3.org/2000/svg" viewBox="0 0 300 600"><title>H18 T4</title><g id="Layer_2" data-name="Layer 2"><g id="Rect"><rect width="300" height="600" fill="none"/></g><g id="H18_T4" data-name="H18 T4"><g id="Easily_the_easiest_way_to_do_your_own_taxes." data-name="Easily the easiest way to do your own taxes."><path d="M22.16,55.09h22.1v7.07h-13v5.5H41.62v6.53H31.28V80H45v7.07H22.16Z" fill="#13aa40"/><path d="M46.81,80.58c0-5.5,4.65-7.64,12.44-7.64h2.23V72.4c0-2.24-.53-3.71-3.08-3.71a2.87,2.87,0,0,0-3.18,2.77H47.7c.36-5.63,4.79-8.41,11.19-8.41s10.56,2.64,10.56,8.86V87.07H61.66V84.34c-1.12,1.7-3.17,3.27-6.93,3.27C50.52,87.61,46.81,85.55,46.81,80.58Zm14.67-1.7V77.45h-2.1c-3.22,0-4.65.63-4.65,2.55,0,1.34.89,2.19,2.77,2.19C59.78,82.19,61.48,80.9,61.48,78.88Z" fill="#13aa40"/><path d="M71.77,79.64h7.38c.27,1.7,1,2.64,3.31,2.64,2,0,2.87-.76,2.87-1.92s-1.12-1.65-4.34-2.1c-6.27-.81-8.91-2.64-8.91-7.52,0-5.18,4.61-7.69,10-7.69,5.77,0,9.79,2,10.33,7.56H85.19c-.31-1.56-1.16-2.32-3-2.32s-2.64.76-2.64,1.83,1.07,1.56,3.93,1.92c6.49.81,9.62,2.51,9.62,7.52,0,5.54-4.11,8-10.6,8C75.84,87.61,72,84.83,71.77,79.64Z" fill="#13aa40"/><path d="M95.53,57.33a4.42,4.42,0,1,1,4.38,4.11A4.18,4.18,0,0,1,95.53,57.33Zm.4,6.35h8V87.07h-8Z" fill="#13aa40"/><path d="M108.46,53.39h8V87.07h-8Z" fill="#13aa40"/><path d="M128.05,84.7l-9.35-21h8.68l4.83,12.48,4.48-12.48h7.65L131.81,94.9h-7.65Z" fill="#13aa40"/><path d="M155.61,79.56V69.13h-2.82V63.68h2.82V58.8h8v4.88h4.61v5.45h-4.61v9.66A2.14,2.14,0,0,0,166,81.25a6.09,6.09,0,0,0,2.28-.4v6.08a16.69,16.69,0,0,1-4.43.68C158.56,87.61,155.61,85.06,155.61,79.56Z" fill="#13aa40"/><path d="M171.27,53.39h8v14A8.25,8.25,0,0,1,187,63.05c4.52,0,7.65,2.82,7.65,8.81V87.07h-8V73.47c0-2.64-1-3.93-3.35-3.93s-4,1.43-4,4.42V87.07h-8Z" fill="#13aa40"/><path d="M197.26,75.66v-.35c0-7.52,5.59-12.26,12.66-12.26,6.4,0,11.9,3.67,11.9,12.08v2.1H205.36c.22,3.09,2,4.87,4.87,4.87,2.64,0,3.76-1.2,4.07-2.77h7.52c-.72,5.28-4.79,8.28-11.86,8.28C202.63,87.61,197.26,83.31,197.26,75.66Zm16.78-3c-.14-2.81-1.53-4.38-4.12-4.38-2.42,0-4.07,1.57-4.47,4.38Z" fill="#13aa40"/><path d="M20.19,122.38V122c0-7.51,5.59-12.25,12.66-12.25,6.4,0,11.9,3.66,11.9,12.07v2.1H28.29c.22,3.09,2,4.88,4.87,4.88,2.64,0,3.76-1.21,4.07-2.78h7.52c-.72,5.28-4.79,8.28-11.86,8.28C25.56,134.32,20.19,130,20.19,122.38ZM37,119.43c-.14-2.82-1.53-4.39-4.12-4.39-2.42,0-4.07,1.57-4.47,4.39Z" fill="#13aa40"/><path d="M46.4,127.3c0-5.5,4.66-7.65,12.44-7.65h2.24v-.54c0-2.23-.54-3.71-3.09-3.71a2.87,2.87,0,0,0-3.17,2.77H47.3c.36-5.63,4.79-8.4,11.18-8.4S69,112.4,69,118.62v15.16H61.26v-2.73c-1.12,1.7-3.18,3.27-6.94,3.27C50.12,134.32,46.4,132.26,46.4,127.3Zm14.68-1.7v-1.43H59c-3.23,0-4.66.62-4.66,2.55,0,1.34.9,2.19,2.78,2.19C59.38,128.91,61.08,127.61,61.08,125.6Z" fill="#13aa40"/><path d="M71.37,126.36h7.38c.27,1.7,1,2.64,3.31,2.64,2,0,2.86-.76,2.86-1.93s-1.12-1.65-4.34-2.1c-6.26-.8-8.9-2.64-8.9-7.51,0-5.19,4.61-7.69,10-7.69,5.77,0,9.8,2,10.34,7.55H84.79c-.31-1.56-1.16-2.32-3-2.32s-2.64.76-2.64,1.83,1.08,1.57,3.94,1.92c6.49.81,9.62,2.51,9.62,7.52,0,5.54-4.12,8-10.61,8C75.44,134.32,71.55,131.55,71.37,126.36Z" fill="#13aa40"/><path d="M95.12,104a4.42,4.42,0,1,1,4.39,4.12A4.18,4.18,0,0,1,95.12,104Zm.41,6.35h8v23.39h-8Z" fill="#13aa40"/><path d="M106.58,122.38V122c0-7.51,5.59-12.25,12.66-12.25,6.4,0,11.9,3.66,11.9,12.07v2.1H114.67c.23,3.09,2,4.88,4.88,4.88,2.64,0,3.76-1.21,4.07-2.78h7.52c-.72,5.28-4.79,8.28-11.86,8.28C112,134.32,106.58,130,106.58,122.38Zm16.77-2.95c-.13-2.82-1.52-4.39-4.11-4.39-2.42,0-4.07,1.57-4.48,4.39Z" fill="#13aa40"/><path d="M132.57,126.36H140c.27,1.7,1,2.64,3.31,2.64,2,0,2.86-.76,2.86-1.93s-1.11-1.65-4.34-2.1c-6.26-.8-8.9-2.64-8.9-7.51,0-5.19,4.61-7.69,10-7.69,5.77,0,9.8,2,10.34,7.55H146c-.31-1.56-1.16-2.32-3-2.32s-2.64.76-2.64,1.83,1.08,1.57,3.94,1.92c6.49.81,9.62,2.51,9.62,7.52,0,5.54-4.12,8-10.6,8C136.64,134.32,132.75,131.55,132.57,126.36Z" fill="#13aa40"/><path d="M157.58,126.27V115.85h-2.82v-5.46h2.82v-4.87h8v4.87h4.61v5.46h-4.61v9.66A2.14,2.14,0,0,0,168,128a6.09,6.09,0,0,0,2.28-.41v6.09a16.75,16.75,0,0,1-4.43.67C160.53,134.32,157.58,131.77,157.58,126.27Z" fill="#13aa40"/><path d="M179.41,110.39h8.36l3.4,14,3.94-14h6.44l3.49,14,3.81-14h7.6L209,133.78h-7.65l-3.49-13.06-3.63,13.06h-7.78Z" fill="#13aa40"/><path d="M216.27,127.3c0-5.5,4.65-7.65,12.44-7.65H231v-.54c0-2.23-.54-3.71-3.09-3.71a2.88,2.88,0,0,0-3.18,2.77h-7.51c.35-5.63,4.78-8.4,11.18-8.4s10.56,2.63,10.56,8.85v15.16h-7.79v-2.73c-1.11,1.7-3.17,3.27-6.93,3.27C220,134.32,216.27,132.26,216.27,127.3ZM231,125.6v-1.43h-2.11c-3.22,0-4.65.62-4.65,2.55,0,1.34.89,2.19,2.77,2.19C229.25,128.91,231,127.61,231,125.6Z" fill="#13aa40"/><path d="M249.33,131.41l-9.35-21h8.68l4.83,12.48L258,110.39h7.65l-12.53,31.22h-7.65Z" fill="#13aa40"/><path d="M22.52,173V162.56H19.7V157.1h2.82v-4.87h8v4.87h4.61v5.46H30.52v9.66a2.14,2.14,0,0,0,2.37,2.46,6.11,6.11,0,0,0,2.29-.4v6.08a16.75,16.75,0,0,1-4.43.67C25.47,181,22.52,178.48,22.52,173Z" fill="#13aa40"/><path d="M36.92,169.09v-.36c0-7.51,5.59-12.25,12.84-12.25s12.75,4.6,12.75,12v.36c0,7.6-5.59,12.16-12.79,12.16S36.92,176.65,36.92,169.09ZM54.37,169v-.36c0-3.94-1.57-6.13-4.61-6.13s-4.65,2.1-4.65,6v.36c0,4,1.56,6.21,4.65,6.21S54.37,172.85,54.37,169Z" fill="#13aa40"/><path d="M72.31,169.05v-.36c0-8,4.38-12.21,9.93-12.21,3.67,0,5.86,1.56,7.2,3.93V146.82h8v33.67h-8v-3.8A7.88,7.88,0,0,1,82.15,181C76.74,181,72.31,177.14,72.31,169.05Zm17.36-.14v-.36c0-3.93-1.66-6-4.61-6s-4.61,2-4.61,6.08V169c0,3.93,1.74,5.94,4.52,5.94S89.67,172.89,89.67,168.91Z" fill="#13aa40"/><path d="M100.27,169.09v-.36c0-7.51,5.59-12.25,12.84-12.25s12.75,4.6,12.75,12v.36c0,7.6-5.59,12.16-12.8,12.16S100.27,176.65,100.27,169.09Zm17.45-.13v-.36c0-3.94-1.57-6.13-4.61-6.13s-4.65,2.1-4.65,6v.36c0,4,1.56,6.21,4.65,6.21S117.72,172.85,117.72,169Z" fill="#13aa40"/><path d="M144.16,178.12l-9.35-21h8.67l4.84,12.48,4.47-12.48h7.65l-12.53,31.22h-7.65Z" fill="#13aa40"/><path d="M160,169.09v-.36c0-7.51,5.59-12.25,12.84-12.25s12.75,4.6,12.75,12v.36c0,7.6-5.59,12.16-12.79,12.16S160,176.65,160,169.09Zm17.45-.13v-.36c0-3.94-1.56-6.13-4.61-6.13s-4.65,2.1-4.65,6v.36c0,4,1.57,6.21,4.65,6.21S177.44,172.85,177.44,169Z" fill="#13aa40"/><path d="M188.22,172.35V157.1h8v14c0,2.64,1,3.93,3.31,3.93s4-1.43,4-4.42V157.1h8v23.39h-8v-3.62c-1.25,2.42-3.53,4.16-7.42,4.16C191.58,181,188.22,178.26,188.22,172.35Z" fill="#13aa40"/><path d="M215.6,157.1h8v4.66a7.38,7.38,0,0,1,7.56-5v7.47c-4.88-.13-7.56,1.39-7.56,5.14v11.09h-8Z" fill="#13aa40"/><path d="M20.19,215.8v-.35c0-7.52,5.59-12.26,12.84-12.26s12.75,4.61,12.75,12v.36c0,7.6-5.59,12.16-12.8,12.16S20.19,223.36,20.19,215.8Zm17.45-.13v-.36c0-3.93-1.57-6.13-4.61-6.13s-4.65,2.11-4.65,6v.36c0,4,1.56,6.22,4.65,6.22S37.64,219.56,37.64,215.67Z" fill="#13aa40"/><path d="M45.87,203.82h8.36l3.4,14,3.94-14H68l3.49,14,3.81-14h7.6l-7.42,23.39H67.83l-3.48-13.06-3.63,13.06H52.94Z" fill="#13aa40"/><path d="M85,203.82h8v3.75a8.26,8.26,0,0,1,7.69-4.38c4.52,0,7.65,2.82,7.65,8.81v15.21h-8v-13.6c0-2.64-1-3.93-3.35-3.93s-4,1.43-4,4.42v13.11H85Z" fill="#13aa40"/><path d="M121.43,219.69V209.27h-2.82v-5.45h2.82v-4.88h8v4.88h4.61v5.45h-4.61v9.66a2.14,2.14,0,0,0,2.37,2.46,6.06,6.06,0,0,0,2.28-.4v6.08a16.75,16.75,0,0,1-4.43.67C124.38,227.74,121.43,225.19,121.43,219.69Z" fill="#13aa40"/><path d="M135.83,220.72c0-5.5,4.66-7.65,12.44-7.65h2.24v-.53c0-2.24-.54-3.71-3.09-3.71a2.86,2.86,0,0,0-3.17,2.77h-7.52c.36-5.64,4.79-8.41,11.18-8.41s10.56,2.64,10.56,8.86v15.16h-7.78v-2.73c-1.12,1.7-3.18,3.26-6.94,3.26C139.55,227.74,135.83,225.69,135.83,220.72Zm14.68-1.7v-1.43h-2.1c-3.22,0-4.66.63-4.66,2.55,0,1.34.9,2.19,2.78,2.19C148.81,222.33,150.51,221,150.51,219Z" fill="#13aa40"/><path d="M168.27,215.31,161,203.82h9.21l3.63,6.17,3.53-6.17h8.23l-7.38,10.87,8.1,12.52h-9.22l-4.16-7-4.25,7h-8.18Z" fill="#13aa40"/><path d="M185.27,215.8v-.35c0-7.52,5.59-12.26,12.66-12.26,6.4,0,11.9,3.67,11.9,12.08v2.1H193.37c.22,3.08,2,4.87,4.87,4.87,2.64,0,3.76-1.2,4.08-2.77h7.51c-.71,5.28-4.79,8.27-11.85,8.27C190.64,227.74,185.27,223.45,185.27,215.8Zm16.78-3c-.14-2.82-1.52-4.38-4.12-4.38-2.42,0-4.07,1.56-4.47,4.38Z" fill="#13aa40"/><path d="M211.26,219.78h7.38c.27,1.7,1,2.64,3.32,2.64,2,0,2.86-.76,2.86-1.92s-1.12-1.66-4.34-2.1c-6.27-.81-8.9-2.64-8.9-7.52,0-5.18,4.6-7.69,10-7.69,5.77,0,9.79,2,10.33,7.56h-7.25c-.31-1.57-1.16-2.33-3-2.33s-2.64.76-2.64,1.84,1.07,1.56,3.93,1.92c6.49.81,9.62,2.51,9.62,7.51,0,5.55-4.11,8.05-10.6,8.05C215.33,227.74,211.44,225,211.26,219.78Z" fill="#13aa40"/><path d="M234.88,223.18a4.46,4.46,0,0,1,4.57-4.51,4.52,4.52,0,1,1,0,9A4.46,4.46,0,0,1,234.88,223.18Z" fill="#13aa40"/></g></g></g></svg>