<svg xmlns="http://www.w3.org/2000/svg" viewBox="0 0 300 600"><title>H80</title><g id="Layer_2" data-name="Layer 2"><g id="Rect"><rect width="300" height="600" fill="none"/></g><g id="H80"><g id="You_could_get_a_Refund_Advance_loan_up_to_3_500_within_min" data-name="You could  get a Refund  Advance  loan up to $3,500 within  min"><path d="M29.42,67.18,19.35,49.5H29l5.23,10.41L39.45,49.5h8.47l-9.6,17.68V80.4h-8.9Z" fill="#fff"/><path d="M44.68,69.38V69c0-7.26,5.4-11.84,12.4-11.84S69.4,61.64,69.4,68.82v.34C69.4,76.51,64,80.92,57,80.92S44.68,76.69,44.68,69.38Zm16.86-.13v-.34C61.54,65.1,60,63,57.08,63s-4.49,2-4.49,5.84v.34c0,3.9,1.51,6,4.49,6S61.54,73,61.54,69.25Z" fill="#fff"/><path d="M72,72.54V57.8h7.73V71.28c0,2.55,1,3.81,3.2,3.81s3.85-1.39,3.85-4.28v-13h7.74V80.4H86.74V76.9c-1.21,2.34-3.41,4-7.18,4C75.2,80.92,72,78.24,72,72.54Z" fill="#fff"/><path d="M105.07,69.38V69c0-7.52,5.4-11.84,12.06-11.84,5.53,0,10.63,2.42,11.07,9.29h-7.27c-.34-2.11-1.38-3.28-3.63-3.28-2.72,0-4.32,1.94-4.32,5.75v.34c0,3.94,1.51,6,4.45,6,2.16,0,3.68-1.3,3.94-3.76h7c-.22,5.71-4.07,9.42-11.37,9.42C110.21,80.92,105.07,77,105.07,69.38Z" fill="#fff"/><path d="M129.62,69.38V69c0-7.26,5.41-11.84,12.41-11.84s12.32,4.45,12.32,11.63v.34c0,7.35-5.4,11.76-12.36,11.76S129.62,76.69,129.62,69.38Zm16.86-.13v-.34C146.48,65.1,145,63,142,63s-4.5,2-4.5,5.84v.34c0,3.9,1.52,6,4.5,6S146.48,73,146.48,69.25Z" fill="#fff"/><path d="M156.9,72.54V57.8h7.74V71.28c0,2.55,1,3.81,3.2,3.81s3.85-1.39,3.85-4.28v-13h7.73V80.4h-7.73V76.9c-1.21,2.34-3.42,4-7.18,4C160.14,80.92,156.9,78.24,156.9,72.54Z" fill="#fff"/><path d="M183.57,47.85h7.7V80.4h-7.7Z" fill="#fff"/><path d="M194.29,69.34V69c0-7.69,4.24-11.8,9.6-11.8,3.55,0,5.66,1.51,7,3.8V47.85h7.74V80.4h-7.74V76.73a7.61,7.61,0,0,1-7,4.19C198.57,80.92,194.29,77.16,194.29,69.34Zm16.78-.13v-.35c0-3.8-1.6-5.83-4.45-5.83s-4.46,1.94-4.46,5.88v.34c0,3.81,1.69,5.75,4.37,5.75S211.07,73.06,211.07,69.21Z" fill="#fff"/><path d="M20,127.31h7.69c.35,1.64,1.34,2.94,4.15,2.94,3.42,0,4.8-1.94,4.8-4.75V122a7.93,7.93,0,0,1-7,4.15c-5.28,0-9.6-3.89-9.6-10.85V115c0-6.66,4.28-10.89,9.6-10.89,3.59,0,5.7,1.51,7,3.8v-3.2h7.74v20.71c0,6.74-4.45,10.29-12.54,10.29C24.19,135.7,20.64,132.46,20,127.31Zm16.86-12V115c0-3.11-1.6-5.1-4.46-5.1S28,111.92,28,115v.34c0,3.11,1.64,5.1,4.41,5.1S36.9,118.49,36.9,115.29Z" fill="#fff"/><path d="M47.14,116.29v-.35c0-7.26,5.41-11.84,12.24-11.84,6.18,0,11.49,3.54,11.49,11.67v2H55c.21,3,1.94,4.71,4.71,4.71,2.55,0,3.63-1.16,3.93-2.68h7.26c-.69,5.1-4.62,8-11.45,8C52.33,127.83,47.14,123.68,47.14,116.29Zm16.21-2.85c-.13-2.73-1.47-4.24-4-4.24-2.34,0-3.94,1.51-4.33,4.24Z" fill="#fff"/><path d="M74.59,120.05V110H71.87V104.7h2.72V100h7.74v4.71h4.45V110H82.33v9.33c0,1.65.82,2.38,2.29,2.38a5.92,5.92,0,0,0,2.21-.39v5.88a16.28,16.28,0,0,1-4.28.65C77.45,127.83,74.59,125.37,74.59,120.05Z" fill="#fff"/><path d="M96.29,121c0-5.31,4.5-7.39,12-7.39h2.16v-.52c0-2.16-.52-3.58-3-3.58a2.77,2.77,0,0,0-3.07,2.68H97.16c.34-5.45,4.62-8.13,10.81-8.13s10.2,2.55,10.2,8.56v14.65h-7.52v-2.63c-1.09,1.64-3.07,3.15-6.7,3.15C99.88,127.83,96.29,125.84,96.29,121Zm14.18-1.64V118h-2c-3.11,0-4.49.6-4.49,2.46,0,1.3.86,2.12,2.68,2.12C108.83,122.6,110.47,121.35,110.47,119.4Z" fill="#fff"/><path d="M130.49,96.4h12.1c8.09,0,12.58,3.29,12.58,9.82v.17a8.08,8.08,0,0,1-5.58,8.13l7.4,12.79h-9.34l-6.27-11.06h-2.07v11.06h-8.82Zm11.67,14.1c3,0,4.45-1.26,4.45-3.76v-.18c0-2.5-1.55-3.5-4.41-3.5h-2.89v7.44Z" fill="#fff"/><path d="M157,116.29v-.35c0-7.26,5.4-11.84,12.23-11.84,6.18,0,11.5,3.54,11.5,11.67v2H164.81c.22,3,1.95,4.71,4.72,4.71,2.55,0,3.63-1.16,3.93-2.68h7.26c-.69,5.1-4.62,8-11.45,8C162.18,127.83,157,123.68,157,116.29Zm16.21-2.85c-.13-2.73-1.47-4.24-4-4.24-2.33,0-3.93,1.51-4.32,4.24Z" fill="#fff"/><path d="M184.57,110h-2.85V104.7h2.85v-2c0-5.62,3.5-8.3,8.86-8.3a13.82,13.82,0,0,1,3.55.47v5.66a7.29,7.29,0,0,0-2.12-.3,2.28,2.28,0,0,0-2.6,2.47v2h4.59V110h-4.59v17.33h-7.69Z" fill="#fff"/><path d="M199.27,119.44V104.7H207v13.49c0,2.55,1,3.81,3.19,3.81s3.85-1.39,3.85-4.28v-13h7.74v22.61h-7.74v-3.5c-1.21,2.34-3.41,4-7.17,4C202.51,127.83,199.27,125.15,199.27,119.44Z" fill="#fff"/><path d="M225.72,104.7h7.74v3.63a8,8,0,0,1,7.44-4.23c4.36,0,7.39,2.72,7.39,8.51v14.7h-7.74V114.17c0-2.55-1-3.8-3.24-3.8s-3.85,1.38-3.85,4.28v12.66h-7.74Z" fill="#fff"/><path d="M250.93,116.25v-.35c0-7.69,4.23-11.8,9.59-11.8,3.55,0,5.67,1.51,7,3.8V94.76h7.74v32.55h-7.74v-3.67a7.61,7.61,0,0,1-7,4.19C255.21,127.83,250.93,124.07,250.93,116.25Zm16.77-.13v-.35c0-3.8-1.6-5.84-4.45-5.84s-4.46,1.95-4.46,5.88v.35c0,3.8,1.69,5.75,4.37,5.75S267.7,120,267.7,116.12Z" fill="#fff"/><path d="M29.46,143.31H40.92l9.81,30.91H41.35l-1.64-5.75H29.46l-1.64,5.75H19.56Zm1.73,19.07H38l-3.37-11.89Z" fill="#fff"/><path d="M51.25,163.15v-.34c0-7.7,4.24-11.8,9.6-11.8,3.54,0,5.66,1.51,7,3.8V141.67h7.73v32.55H67.81v-3.67a7.64,7.64,0,0,1-7.05,4.19C55.53,174.74,51.25,171,51.25,163.15ZM68,163v-.34c0-3.81-1.6-5.84-4.45-5.84s-4.45,1.95-4.45,5.88v.35c0,3.8,1.68,5.75,4.36,5.75S68,166.87,68,163Z" fill="#fff"/><path d="M77.53,151.61h8.26l4.71,14.57,4.63-14.57h7.39l-8.26,22.61H85.83Z" fill="#fff"/><path d="M102.22,168c0-5.31,4.49-7.39,12-7.39h2.16V160c0-2.16-.52-3.59-3-3.59a2.79,2.79,0,0,0-3.07,2.68h-7.26c.35-5.44,4.63-8.12,10.81-8.12s10.2,2.55,10.2,8.56v14.65h-7.52v-2.64c-1.08,1.65-3.07,3.16-6.7,3.16C105.81,174.74,102.22,172.75,102.22,168Zm14.18-1.64v-1.38h-2c-3.12,0-4.5.6-4.5,2.46,0,1.3.86,2.12,2.68,2.12C114.75,169.51,116.4,168.25,116.4,166.31Z" fill="#fff"/><path d="M127.85,151.61h7.74v3.63A8,8,0,0,1,143,151c4.36,0,7.39,2.72,7.39,8.51v14.7h-7.74V161.08c0-2.55-1-3.81-3.24-3.81s-3.85,1.39-3.85,4.28v12.67h-7.74Z" fill="#fff"/><path d="M153,163.2v-.35c0-7.52,5.4-11.84,12.06-11.84,5.53,0,10.63,2.42,11.07,9.29h-7.27c-.34-2.12-1.38-3.28-3.63-3.28-2.72,0-4.32,1.94-4.32,5.74v.35c0,3.93,1.51,6,4.45,6,2.16,0,3.68-1.3,3.94-3.76h7c-.22,5.7-4.07,9.42-11.37,9.42C158.11,174.74,153,170.81,153,163.2Z" fill="#fff"/><path d="M177.52,163.2v-.35c0-7.26,5.41-11.84,12.24-11.84,6.18,0,11.5,3.54,11.5,11.67v2H185.35c.21,3,1.94,4.71,4.71,4.71,2.55,0,3.63-1.17,3.93-2.68h7.27c-.7,5.1-4.63,8-11.46,8C182.71,174.74,177.52,170.59,177.52,163.2Zm16.21-2.86c-.13-2.72-1.47-4.23-4-4.23-2.34,0-3.94,1.51-4.33,4.23Z" fill="#fff"/><path d="M21.51,188.58H29.2v32.55H21.51Z" fill="#fff"/><path d="M32.14,210.11v-.35c0-7.26,5.41-11.84,12.41-11.84s12.32,4.45,12.32,11.62v.35c0,7.35-5.41,11.76-12.37,11.76S32.14,217.41,32.14,210.11ZM49,210v-.35c0-3.8-1.51-5.92-4.45-5.92s-4.5,2-4.5,5.83v.35c0,3.89,1.52,6,4.5,6S49,213.74,49,210Z" fill="#fff"/><path d="M58.3,214.86c0-5.32,4.49-7.39,12-7.39h2.16V207c0-2.16-.51-3.59-3-3.59A2.78,2.78,0,0,0,66.42,206H59.16c.35-5.44,4.63-8.12,10.81-8.12s10.2,2.55,10.2,8.55v14.66H72.65v-2.64c-1.08,1.64-3.07,3.16-6.7,3.16C61.88,221.65,58.3,219.66,58.3,214.86Zm14.17-1.64v-1.39h-2c-3.11,0-4.49.61-4.49,2.47,0,1.3.86,2.12,2.68,2.12C70.83,216.42,72.47,215.16,72.47,213.22Z" fill="#fff"/><path d="M83.93,198.52h7.74v3.63a8,8,0,0,1,7.43-4.23c4.37,0,7.4,2.72,7.4,8.51v14.7H98.76V208c0-2.55-1-3.81-3.24-3.81s-3.85,1.39-3.85,4.28v12.67H83.93Z" fill="#fff"/><path d="M118,213.26V198.52h7.74V212c0,2.55,1,3.8,3.2,3.8s3.85-1.38,3.85-4.28v-13h7.73v22.61h-7.73v-3.5c-1.21,2.33-3.42,4-7.18,4C121.19,221.65,118,219,118,213.26Z" fill="#fff"/><path d="M144.41,198.52h7.74v3.37a8,8,0,0,1,7-4c5.28,0,9.56,4,9.56,11.71V210c0,7.78-4.28,11.67-9.6,11.67-3.42,0-5.88-1.6-7-3.85v10.89h-7.74ZM160.88,210v-.35c0-4-1.73-5.88-4.46-5.88s-4.49,2-4.49,5.84v.34c0,3.85,1.69,5.8,4.49,5.8S160.88,213.69,160.88,210Z" fill="#fff"/><path d="M180.46,213.87V203.79h-2.72v-5.27h2.72v-4.71h7.74v4.71h4.45v5.27H188.2v9.34c0,1.64.82,2.38,2.29,2.38a5.87,5.87,0,0,0,2.2-.39V221a16.14,16.14,0,0,1-4.28.65C183.31,221.65,180.46,219.18,180.46,213.87Z" fill="#fff"/><path d="M194.38,210.11v-.35c0-7.26,5.4-11.84,12.41-11.84s12.32,4.45,12.32,11.62v.35c0,7.35-5.41,11.76-12.37,11.76S194.38,217.41,194.38,210.11Zm16.86-.13v-.35c0-3.8-1.51-5.92-4.45-5.92s-4.5,2-4.5,5.83v.35c0,3.89,1.51,6,4.5,6S211.24,213.74,211.24,210Z" fill="#fff"/><path d="M26.26,253.89c-4.36-.3-6.48-2.62-6.66-5.95h4.67a2.38,2.38,0,0,0,2,2.37v-3.68C21.87,246,20,244.42,20,240.91c0-3,2.39-5.24,6.25-5.52v-2.24h2v2.27c3.65.3,5.82,2,6.12,5.44H29.79A2,2,0,0,0,28.23,239v3.48c3.85.55,6.37,1.86,6.37,5.52,0,3.07-2,5.65-6.37,5.92V257h-2Zm0-11.74v-3.23c-1.13.2-1.71.81-1.71,1.61S24.9,241.87,26.26,242.15Zm2,4.81v3.35a1.82,1.82,0,0,0,1.69-1.79C29.92,247.69,29.56,247.26,28.23,247Z" fill="#fff"/><path d="M36.14,257.88H44c.26,2.55,1.47,4.28,4.53,4.28,2.73,0,4.07-1.3,4.07-3.5,0-2.42-1.3-3.64-4.07-3.64H46.08v-5.48h2.29c2.77,0,4.11-1.26,4.11-3.42,0-1.86-1.21-3.07-3.55-3.07s-3.76,1.43-4.1,3.93H37c.39-6.09,4.46-10.28,12.15-10.28,7.26,0,11.63,3.32,11.63,8.47,0,3.46-2,5.71-5.23,6.66,3.54.73,6,3.24,6,7,0,5.88-4.37,9.73-12.54,9.73C40.42,268.56,36.4,264.58,36.14,257.88Z" fill="#fff"/><path d="M62.29,271.54l3.63-11.37,7.18,2.55-6.22,10.59Z" fill="#fff"/><path d="M74.53,258.31h8c.3,2.16,1.17,3.59,4,3.59,2.55,0,3.72-1.9,3.72-4.37,0-2.76-1.52-4.41-4.2-4.41a6.33,6.33,0,0,0-5.1,2.21H75.74l.65-18.2H97.22v6.48H82.78l-.17,6.83c1.17-1.68,3.37-3.28,7.22-3.28,5.66,0,9.38,3.8,9.38,10.5s-4.71,10.9-12.54,10.9C78.46,268.56,74.74,264.1,74.53,258.31Z" fill="#fff"/><path d="M101.37,253.25V252c0-9.77,6.1-15.26,14.27-15.26s14.26,5.05,14.26,15.08V253c0,9.82-5.62,15.57-14.43,15.57C106.82,268.56,101.37,263,101.37,253.25Zm19.67-.08v-1.26c0-5.66-1.64-8.51-5.4-8.51s-5.4,2.81-5.4,8.51v1.3c0,5.75,1.68,8.47,5.49,8.47S121,258.87,121,253.17Z" fill="#fff"/><path d="M132.37,253.25V252c0-9.77,6.09-15.26,14.26-15.26s14.27,5.05,14.27,15.08V253c0,9.82-5.62,15.57-14.44,15.57C137.82,268.56,132.37,263,132.37,253.25Zm19.67-.08v-1.26c0-5.66-1.64-8.51-5.41-8.51s-5.4,2.81-5.4,8.51v1.3c0,5.75,1.69,8.47,5.49,8.47S152,258.87,152,253.17Z" fill="#fff"/><path d="M19.39,292.34h8.08l3.29,13.53,3.8-13.53h6.23l3.37,13.53,3.67-13.53h7.35L48,315h-7.4l-3.37-12.63L33.74,315H26.22Z" fill="#fff"/><path d="M57,286.2a4.26,4.26,0,1,1,4.23,4A4,4,0,0,1,57,286.2Zm.39,6.14h7.74V315H57.39Z" fill="#fff"/><path d="M70.31,307.68V297.61H67.59v-5.27h2.72v-4.72h7.74v4.72H82.5v5.27H78.05V307c0,1.64.82,2.38,2.29,2.38a5.89,5.89,0,0,0,2.21-.39v5.88a16.35,16.35,0,0,1-4.28.64C73.17,315.46,70.31,313,70.31,307.68Z" fill="#fff"/><path d="M85.44,282.39h7.74V296a8,8,0,0,1,7.44-4.24c4.36,0,7.39,2.73,7.39,8.52V315h-7.74V301.8c0-2.55-1-3.8-3.24-3.8s-3.85,1.38-3.85,4.28V315H85.44Z" fill="#fff"/><path d="M111.6,286.2a4,4,0,0,1,4.23-4,4,4,0,1,1,0,8A4,4,0,0,1,111.6,286.2Zm.39,6.14h7.73V315H112Z" fill="#fff"/><path d="M123.88,292.34h7.73V296a8,8,0,0,1,7.44-4.24c4.36,0,7.39,2.73,7.39,8.52V315H138.7V301.8c0-2.55-1-3.8-3.24-3.8s-3.85,1.38-3.85,4.28V315h-7.73Z" fill="#fff"/><path d="M21.29,339.25H29v3.45a7.91,7.91,0,0,1,7.09-4.06,6.17,6.17,0,0,1,6.14,3.76,8.94,8.94,0,0,1,7.48-3.76c4.27,0,7.39,2.77,7.39,8.43v14.78H49.39V348.37c0-2.29-1.12-3.42-2.9-3.42-2.07,0-3.46,1.34-3.46,3.81v13.09H35.38V348.37c0-2.29-1.12-3.42-2.89-3.42-2.08,0-3.46,1.34-3.46,3.81v13.09H21.29Z" fill="#fff"/><path d="M60.72,333.11a4,4,0,0,1,4.23-4,4,4,0,1,1,0,8A4,4,0,0,1,60.72,333.11Zm.39,6.14h7.73v22.6H61.11Z" fill="#fff"/><path d="M73,339.25h7.74v3.63a8,8,0,0,1,7.44-4.24c4.36,0,7.39,2.72,7.39,8.52v14.69H87.82V348.71c0-2.55-1-3.8-3.24-3.8s-3.85,1.38-3.85,4.28v12.66H73Z" fill="#fff"/><path d="M99.15,354V339.25h7.74v13.48c0,2.55,1,3.81,3.19,3.81s3.85-1.39,3.85-4.28v-13h7.74v22.6h-7.74v-3.5c-1.21,2.34-3.41,4-7.17,4C102.39,362.37,99.15,359.69,99.15,354Z" fill="#fff"/><path d="M126.64,354.59V344.52h-2.72v-5.27h2.72v-4.72h7.74v4.72h4.45v5.27h-4.45v9.34a2.06,2.06,0,0,0,2.29,2.37,5.92,5.92,0,0,0,2.21-.39v5.88a16.28,16.28,0,0,1-4.28.65C129.49,362.37,126.64,359.91,126.64,354.59Z" fill="#fff"/><path d="M140.56,350.83v-.35c0-7.26,5.41-11.84,12.23-11.84,6.19,0,11.5,3.54,11.5,11.67v2h-15.9c.21,3,1.94,4.72,4.71,4.72,2.55,0,3.63-1.17,3.93-2.68h7.26c-.69,5.1-4.62,8-11.45,8C145.75,362.37,140.56,358.22,140.56,350.83ZM156.77,348c-.13-2.73-1.47-4.24-4-4.24-2.33,0-3.93,1.51-4.32,4.24Z" fill="#fff"/><path d="M165.68,354.68h7.13c.26,1.64,1,2.55,3.2,2.55,1.9,0,2.77-.74,2.77-1.86s-1.08-1.6-4.2-2c-6.05-.78-8.6-2.55-8.6-7.26,0-5,4.45-7.44,9.68-7.44,5.58,0,9.47,1.9,10,7.31h-7c-.31-1.52-1.13-2.25-2.9-2.25s-2.55.73-2.55,1.77,1,1.51,3.8,1.86c6.27.78,9.3,2.42,9.3,7.26,0,5.36-4,7.78-10.25,7.78C169.61,362.37,165.85,359.69,165.68,354.68Z" fill="#fff"/><path d="M20.08,397.74v-.35c0-7.26,5.4-11.84,12.41-11.84S44.81,390,44.81,397.18v.34c0,7.35-5.41,11.76-12.37,11.76S20.08,405,20.08,397.74Zm16.86-.13v-.35c0-3.8-1.51-5.92-4.45-5.92s-4.5,2-4.5,5.84v.34c0,3.89,1.51,6,4.5,6S36.94,401.37,36.94,397.61Z" fill="#fff"/><path d="M48.7,391.43H45.85v-5.28H48.7v-2c0-5.63,3.5-8.3,8.86-8.3a13.67,13.67,0,0,1,3.54.47V382a7.17,7.17,0,0,0-2.11-.3,2.28,2.28,0,0,0-2.6,2.47v2H61v5.28H56.39v17.33H48.7Z" fill="#fff"/><path d="M72.6,391.43H69.75v-5.28H72.6v-2c0-5.63,3.51-8.3,8.87-8.3a13.8,13.8,0,0,1,3.54.47V382a7.19,7.19,0,0,0-2.12-.3,2.28,2.28,0,0,0-2.59,2.47v2h4.58v5.28H80.3v17.33H72.6Z" fill="#fff"/><path d="M87.3,380a4.27,4.27,0,1,1,4.24,4A4,4,0,0,1,87.3,380Zm.39,6.14h7.74v22.61H87.69Z" fill="#fff"/><path d="M99.79,376.21h7.7v32.55h-7.7Z" fill="#fff"/><path d="M111.47,380a4,4,0,0,1,4.23-4,4,4,0,1,1,0,8A4,4,0,0,1,111.47,380Zm.39,6.14h7.73v22.61h-7.73Z" fill="#fff"/><path d="M123.74,386.15h7.74v3.63a8,8,0,0,1,7.44-4.23c4.36,0,7.39,2.72,7.39,8.51v14.7h-7.74V395.62c0-2.55-1-3.8-3.24-3.8s-3.85,1.38-3.85,4.28v12.66h-7.74Z" fill="#fff"/><path d="M148.82,408.76h7.69c.35,1.64,1.34,2.94,4.15,2.94,3.42,0,4.8-1.94,4.8-4.75v-3.46a7.93,7.93,0,0,1-7,4.15c-5.28,0-9.6-3.89-9.6-10.85v-.35c0-6.66,4.28-10.89,9.6-10.89,3.59,0,5.7,1.51,7,3.8v-3.2h7.74v20.71c0,6.74-4.45,10.29-12.54,10.29C153,417.15,149.42,413.91,148.82,408.76Zm16.86-12v-.3c0-3.11-1.6-5.1-4.46-5.1s-4.45,2-4.45,5.15v.34c0,3.11,1.64,5.1,4.41,5.1S165.68,399.94,165.68,396.74Z" fill="#fff"/><path d="M176.83,404.87a4.31,4.31,0,0,1,4.41-4.37,4.37,4.37,0,1,1,0,8.74A4.31,4.31,0,0,1,176.83,404.87Z" fill="#fff"/></g></g></g></svg>