<svg xmlns="http://www.w3.org/2000/svg" viewBox="0 0 300 250"><title>H13</title><g id="Layer_2" data-name="Layer 2"><g id="Rect"><rect width="300" height="250" fill="none"/></g><g id="H13"><g id="More_parents_can_file_free_with_H_R_Block_Online_than_TurboTax." data-name="More parents can file free with H&amp;R Block Online than TurboTax."><path d="M22.13,24h8.24l4.22,11.76L38.82,24H46.9V46.06H40.61V32.33l-5.4,13.73h-2.1L27.77,32.33V46.06H22.13Z" fill="#fff"/><path d="M49.15,38.2V38c0-5.18,3.86-8.45,8.86-8.45s8.79,3.17,8.79,8.29V38c0,5.25-3.86,8.39-8.82,8.39S49.15,43.41,49.15,38.2Zm12-.1v-.24c0-2.72-1.08-4.23-3.18-4.23s-3.21,1.45-3.21,4.16V38c0,2.78,1.08,4.29,3.21,4.29S61.19,40.79,61.19,38.1Z" fill="#fff"/><path d="M68.74,29.93h5.53v3.21a5.07,5.07,0,0,1,5.21-3.43v5.15c-3.36-.09-5.21,1-5.21,3.55v7.65H68.74Z" fill="#fff"/><path d="M80.47,38.2V38c0-5.18,3.85-8.45,8.73-8.45,4.41,0,8.2,2.53,8.2,8.33v1.45H86.05c.15,2.12,1.39,3.36,3.36,3.36s2.59-.83,2.81-1.91H97.4c-.49,3.64-3.3,5.7-8.17,5.7C84.17,46.43,80.47,43.47,80.47,38.2Zm11.57-2c-.1-1.94-1.05-3-2.84-3s-2.81,1.08-3.09,3Z" fill="#fff"/><path d="M104.93,29.93h5.52v2.4a5.7,5.7,0,0,1,5-2.83c3.77,0,6.82,2.83,6.82,8.36v.24c0,5.56-3,8.33-6.85,8.33a5.32,5.32,0,0,1-5-2.74v7.77h-5.52Zm11.75,8.17v-.24c0-2.84-1.23-4.2-3.17-4.2s-3.21,1.45-3.21,4.17v.24c0,2.75,1.2,4.14,3.21,4.14S116.68,40.76,116.68,38.1Z" fill="#fff"/><path d="M123.38,41.59c0-3.8,3.21-5.28,8.57-5.28h1.55v-.37c0-1.54-.37-2.56-2.13-2.56a2,2,0,0,0-2.19,1.92H124c.25-3.89,3.31-5.8,7.72-5.8S139,31.32,139,35.6V46.06h-5.37V44.18a5.3,5.3,0,0,1-4.78,2.25C125.94,46.43,123.38,45,123.38,41.59Zm10.12-1.17v-1h-1.45c-2.22,0-3.21.43-3.21,1.76,0,.92.62,1.51,1.91,1.51C132.32,42.7,133.5,41.81,133.5,40.42Z" fill="#fff"/><path d="M141.67,29.93h5.52v3.21a5.09,5.09,0,0,1,5.22-3.43v5.15c-3.37-.09-5.22,1-5.22,3.55v7.65h-5.52Z" fill="#fff"/><path d="M153.39,38.2V38c0-5.18,3.86-8.45,8.74-8.45,4.41,0,8.2,2.53,8.2,8.33v1.45H159c.15,2.12,1.39,3.36,3.36,3.36,1.82,0,2.59-.83,2.81-1.91h5.18c-.49,3.64-3.3,5.7-8.17,5.7C157.1,46.43,153.39,43.47,153.39,38.2Zm11.57-2c-.09-1.94-1-3-2.83-3s-2.81,1.08-3.09,3Z" fill="#fff"/><path d="M172.24,29.93h5.53v2.59a5.68,5.68,0,0,1,5.3-3c3.12,0,5.28,1.94,5.28,6.07V46.06h-5.52V36.68c0-1.82-.71-2.71-2.32-2.71s-2.74,1-2.74,3.05v9h-5.53Z" fill="#fff"/><path d="M191.77,40.88V33.69h-1.94V29.93h1.94V26.56h5.52v3.37h3.18v3.76h-3.18v6.67a1.47,1.47,0,0,0,1.64,1.69,4.07,4.07,0,0,0,1.57-.28V46a11.41,11.41,0,0,1-3.05.46C193.81,46.43,191.77,44.68,191.77,40.88Z" fill="#fff"/><path d="M201.7,40.94h5.09c.19,1.17.71,1.82,2.29,1.82,1.36,0,2-.52,2-1.32s-.77-1.15-3-1.45c-4.32-.56-6.14-1.82-6.14-5.19,0-3.58,3.18-5.3,6.91-5.3,4,0,6.76,1.35,7.13,5.21h-5a1.8,1.8,0,0,0-2.07-1.6c-1.2,0-1.82.52-1.82,1.26s.74,1.08,2.72,1.33c4.47.55,6.63,1.72,6.63,5.18,0,3.83-2.84,5.55-7.31,5.55S201.83,44.52,201.7,40.94Z" fill="#fff"/><path d="M223,38.2V38c0-5.37,3.86-8.45,8.61-8.45,4,0,7.59,1.72,7.9,6.63h-5.19a2.38,2.38,0,0,0-2.59-2.35c-1.94,0-3.08,1.39-3.08,4.11v.24c0,2.81,1.08,4.26,3.17,4.26a2.68,2.68,0,0,0,2.81-2.68h5c-.16,4.07-2.9,6.72-8.12,6.72C226.63,46.43,223,43.63,223,38.2Z" fill="#fff"/><path d="M240.51,41.59c0-3.8,3.21-5.28,8.58-5.28h1.54v-.37c0-1.54-.37-2.56-2.13-2.56a2,2,0,0,0-2.19,1.92h-5.18c.25-3.89,3.3-5.8,7.71-5.8s7.28,1.82,7.28,6.1V46.06h-5.36V44.18A5.32,5.32,0,0,1,246,46.43C243.07,46.43,240.51,45,240.51,41.59Zm10.12-1.17v-1h-1.45c-2.22,0-3.21.43-3.21,1.76,0,.92.62,1.51,1.92,1.51C249.46,42.7,250.63,41.81,250.63,40.42Z" fill="#fff"/><path d="M258.81,29.93h5.52v2.59a5.68,5.68,0,0,1,5.31-3c3.11,0,5.27,1.94,5.27,6.07V46.06h-5.52V36.68c0-1.82-.71-2.71-2.31-2.71s-2.75,1-2.75,3.05v9h-5.52Z" fill="#fff"/><path d="M22.47,66.54h-2V62.78h2V61.36c0-4,2.5-5.93,6.32-5.93a10.06,10.06,0,0,1,2.53.34v4a4.82,4.82,0,0,0-1.51-.22A1.62,1.62,0,0,0,28,61.36v1.42h3.27v3.76H28V78.91H22.47Z" fill="#fff"/><path d="M33,58.4a3,3,0,1,1,3,2.83A2.88,2.88,0,0,1,33,58.4Zm.27,4.38h5.53V78.91H33.23Z" fill="#fff"/><path d="M41.87,55.68h5.49V78.91H41.87Z" fill="#fff"/><path d="M49.46,71.05V70.8c0-5.18,3.86-8.45,8.73-8.45,4.41,0,8.21,2.53,8.21,8.33v1.45H55.05c.15,2.12,1.38,3.36,3.36,3.36,1.82,0,2.59-.83,2.81-1.91H66.4c-.49,3.64-3.3,5.7-8.18,5.7C53.16,79.28,49.46,76.32,49.46,71.05ZM61,69c-.09-1.94-1.05-3-2.84-3s-2.81,1.08-3.08,3Z" fill="#fff"/><path d="M74.76,66.54h-2V62.78h2V61.36c0-4,2.5-5.93,6.32-5.93a10.06,10.06,0,0,1,2.53.34v4a4.82,4.82,0,0,0-1.51-.22,1.62,1.62,0,0,0-1.85,1.76v1.42h3.27v3.76H80.25V78.91H74.76Z" fill="#fff"/><path d="M85.37,62.78h5.52V66a5.09,5.09,0,0,1,5.22-3.43v5.15c-3.37-.09-5.22,1-5.22,3.55v7.65H85.37Z" fill="#fff"/><path d="M97.09,71.05V70.8c0-5.18,3.86-8.45,8.73-8.45,4.42,0,8.21,2.53,8.21,8.33v1.45H102.68c.15,2.12,1.39,3.36,3.36,3.36,1.82,0,2.59-.83,2.81-1.91H114c-.49,3.64-3.3,5.7-8.18,5.7C100.79,79.28,97.09,76.32,97.09,71.05Zm11.57-2c-.09-1.94-1-3-2.84-3s-2.8,1.08-3.08,3Z" fill="#fff"/><path d="M115.08,71.05V70.8c0-5.18,3.85-8.45,8.73-8.45,4.41,0,8.21,2.53,8.21,8.33v1.45H120.66c.16,2.12,1.39,3.36,3.37,3.36,1.82,0,2.59-.83,2.8-1.91H132c-.5,3.64-3.31,5.7-8.18,5.7C118.78,79.28,115.08,76.32,115.08,71.05Zm11.57-2c-.09-1.94-1.05-3-2.84-3s-2.81,1.08-3.09,3Z" fill="#fff"/><path d="M138.18,62.78H144l2.35,9.65L149,62.78h4.45l2.4,9.65,2.63-9.65h5.24l-5.12,16.13h-5.28l-2.4-9-2.5,9h-5.37Z" fill="#fff"/><path d="M165,58.4a3,3,0,1,1,3,2.83A2.88,2.88,0,0,1,165,58.4Zm.28,4.38h5.52V78.91H165.3Z" fill="#fff"/><path d="M174.53,73.73V66.54h-1.95V62.78h1.95V59.41h5.52v3.37h3.18v3.76h-3.18v6.67c0,1.17.58,1.69,1.63,1.69a4.36,4.36,0,0,0,1.58-.27v4.19a11.43,11.43,0,0,1-3.06.46C176.56,79.28,174.53,77.53,174.53,73.73Z" fill="#fff"/><path d="M185.32,55.68h5.52v9.69a5.7,5.7,0,0,1,5.31-3c3.12,0,5.28,1.94,5.28,6.07V78.91h-5.52V69.53c0-1.82-.71-2.71-2.32-2.71s-2.75,1-2.75,3.05v9h-5.52Z" fill="#fff"/><path d="M22.13,89.7h6.35v8.43h7.26V89.7h6.32v22.06H35.74v-8.7H28.48v8.7H22.13Z" fill="#fff"/><path d="M63.22,107.26l3.67,4.5H59.71l-1.3-1.6a8.8,8.8,0,0,1-5.95,2c-4.69,0-7.75-2.46-7.75-6.66,0-2.84,1.73-4.94,4.84-6.42A7.08,7.08,0,0,1,48.2,95.2c0-3.77,3.21-5.77,7.09-5.77,3.52,0,6.7,1.75,6.7,5.15,0,2.4-1.42,4.16-4.41,5.46l2.77,3.39L62,100.29h4.81Zm-7.65-.65-3.49-4.19a2.61,2.61,0,0,0-1.48,2.37,2.56,2.56,0,0,0,2.81,2.75A2.9,2.9,0,0,0,55.57,106.61Zm-.68-8.88c1.48-.71,2.19-1.55,2.19-2.69a1.58,1.58,0,0,0-1.63-1.7,1.76,1.76,0,0,0-1.82,1.92A4.07,4.07,0,0,0,54.89,97.73Z" fill="#fff"/><path d="M68.9,89.7h8.64c5.77,0,9,2.35,9,7v.12a5.75,5.75,0,0,1-4,5.8l5.28,9.13H81.15l-4.48-7.89H75.19v7.89H68.9Zm8.33,10.06c2.13,0,3.18-.89,3.18-2.68V97c0-1.79-1.12-2.49-3.15-2.49H75.19v5.3Z" fill="#fff"/><path d="M95.55,89.7h9.84c5.22,0,7.44,2.35,7.44,5.77v.13a4.55,4.55,0,0,1-3.73,4.75,4.79,4.79,0,0,1,4.41,5.15v.12c0,3.95-2.56,6.14-8,6.14H95.55Zm8.58,8.77c2,0,2.71-.68,2.71-2.26v-.12c0-1.51-.8-2.19-2.71-2.19h-2.41v4.57Zm.21,9.07c2,0,2.94-.93,2.94-2.56v-.13c0-1.66-.9-2.53-3.12-2.53h-2.44v5.22Z" fill="#fff"/><path d="M115.7,88.53h5.49v23.23H115.7Z" fill="#fff"/><path d="M123.28,103.9v-.25c0-5.18,3.86-8.45,8.86-8.45s8.79,3.17,8.79,8.3v.24c0,5.25-3.85,8.39-8.82,8.39S123.28,109.11,123.28,103.9Zm12-.1v-.24c0-2.72-1.08-4.23-3.18-4.23s-3.21,1.45-3.21,4.17v.24c0,2.78,1.08,4.29,3.21,4.29S135.32,106.49,135.32,103.8Z" fill="#fff"/><path d="M142,103.9v-.25c0-5.37,3.86-8.45,8.61-8.45,3.95,0,7.59,1.72,7.9,6.63h-5.19a2.38,2.38,0,0,0-2.59-2.35c-1.94,0-3.08,1.39-3.08,4.11v.24c0,2.81,1.08,4.26,3.17,4.26a2.68,2.68,0,0,0,2.81-2.68h5c-.15,4.07-2.9,6.72-8.11,6.72C145.68,112.13,142,109.33,142,103.9Z" fill="#fff"/><path d="M160.4,88.53h5.52V102l4.35-6.38H176l-5.28,7.25,5.71,8.88h-6.17l-4.35-7.06v7.06H160.4Z" fill="#fff"/><path d="M182.67,100.87v-.24c0-6.73,5.06-11.23,11.66-11.23S206,93.62,206,100.47v.25c0,6.79-4.66,11.41-11.79,11.41S182.67,107.51,182.67,100.87Zm16.75-.06v-.25c0-3.91-2-6.23-5.09-6.23s-5.06,2.25-5.06,6.26v.25c0,4,2,6.33,5.09,6.33S199.42,104.76,199.42,100.81Z" fill="#fff"/><path d="M208.15,95.63h5.52v2.59a5.7,5.7,0,0,1,5.31-3c3.12,0,5.28,1.94,5.28,6.07v10.49h-5.53v-9.38c0-1.82-.71-2.71-2.31-2.71s-2.75,1-2.75,3v9h-5.52Z" fill="#fff"/><path d="M227.09,88.53h5.49v23.23h-5.49Z" fill="#fff"/><path d="M235.42,91.25a3,3,0,1,1,3,2.83A2.88,2.88,0,0,1,235.42,91.25Zm.28,4.38h5.52v16.13H235.7Z" fill="#fff"/><path d="M244.18,95.63h5.53v2.59a5.68,5.68,0,0,1,5.3-3c3.12,0,5.28,1.94,5.28,6.07v10.49h-5.52v-9.38c0-1.82-.71-2.71-2.32-2.71s-2.74,1-2.74,3v9h-5.53Z" fill="#fff"/><path d="M262.11,103.9v-.25c0-5.18,3.85-8.45,8.73-8.45,4.41,0,8.21,2.53,8.21,8.33V105H267.69c.16,2.12,1.39,3.36,3.36,3.36s2.6-.83,2.81-1.91h5.19c-.5,3.64-3.31,5.7-8.18,5.7C265.81,112.13,262.11,109.17,262.11,103.9Zm11.57-2c-.1-1.94-1.05-3-2.84-3s-2.81,1.08-3.09,3Z" fill="#fff"/><path d="M22.38,139.43v-7.19H20.43v-3.76h1.95v-3.37H27.9v3.37h3.18v3.76H27.9v6.67c0,1.17.58,1.69,1.63,1.69a4.36,4.36,0,0,0,1.58-.27v4.19a11.43,11.43,0,0,1-3.06.46C24.41,145,22.38,143.23,22.38,139.43Z" fill="#fff"/><path d="M33.17,121.38H38.7v9.69a5.68,5.68,0,0,1,5.3-3c3.12,0,5.28,1.94,5.28,6.07v10.49H43.76v-9.38c0-1.82-.71-2.71-2.32-2.71s-2.74,1-2.74,3v9H33.17Z" fill="#fff"/><path d="M51,140.14c0-3.8,3.21-5.28,8.58-5.28h1.54v-.37c0-1.54-.37-2.56-2.12-2.56a2,2,0,0,0-2.2,1.92H51.65c.25-3.89,3.3-5.8,7.72-5.8s7.28,1.82,7.28,6.1v10.46H61.28v-1.88A5.3,5.3,0,0,1,56.5,145C53.6,145,51,143.56,51,140.14ZM61.15,139v-1H59.7c-2.22,0-3.2.43-3.2,1.76,0,.92.61,1.51,1.91,1.51C60,141.25,61.15,140.36,61.15,139Z" fill="#fff"/><path d="M69.33,128.48h5.52v2.59a5.69,5.69,0,0,1,5.31-3c3.11,0,5.27,1.94,5.27,6.07v10.49H79.91v-9.38c0-1.82-.71-2.71-2.31-2.71s-2.75,1-2.75,3v9H69.33Z" fill="#fff"/><path d="M98.45,127.43H92.74v-4.88h17.77v4.88h-5.7v17.18H98.45Z" fill="#fff"/><path d="M111,139V128.48h5.52v9.62c0,1.82.71,2.72,2.28,2.72s2.75-1,2.75-3.06v-9.28h5.52v16.13h-5.52v-2.5a5.3,5.3,0,0,1-5.12,2.87C113.32,145,111,143.07,111,139Z" fill="#fff"/><path d="M129.89,128.48h5.52v3.21a5.08,5.08,0,0,1,5.21-3.43v5.15c-3.36-.09-5.21,1-5.21,3.55v7.65h-5.52Z" fill="#fff"/><path d="M148.15,142.11v2.5h-5.52V121.38h5.52v9.5a5.7,5.7,0,0,1,5-2.83c3.76,0,6.82,2.83,6.82,8.36v.24c0,5.56-3.06,8.33-6.85,8.33A5.23,5.23,0,0,1,148.15,142.11Zm6.23-5.46v-.24c0-2.84-1.23-4.2-3.18-4.2s-3.2,1.45-3.2,4.17v.24c0,2.75,1.2,4.14,3.2,4.14S154.38,139.31,154.38,136.65Z" fill="#fff"/><path d="M161.14,136.75v-.25c0-5.18,3.85-8.45,8.85-8.45s8.8,3.17,8.8,8.29v.25c0,5.25-3.86,8.39-8.83,8.39S161.14,142,161.14,136.75Zm12-.1v-.24c0-2.72-1.08-4.23-3.18-4.23s-3.21,1.45-3.21,4.16v.25c0,2.78,1.08,4.29,3.21,4.29S173.17,139.34,173.17,136.65Z" fill="#fff"/><path d="M185.45,127.43h-5.71v-4.88h17.77v4.88H191.8v17.18h-6.35Z" fill="#fff"/><path d="M196.4,140.14c0-3.8,3.21-5.28,8.58-5.28h1.54v-.37c0-1.54-.37-2.56-2.13-2.56a2,2,0,0,0-2.19,1.92H197c.24-3.89,3.3-5.8,7.71-5.8s7.28,1.82,7.28,6.1v10.46h-5.37v-1.88a5.3,5.3,0,0,1-4.78,2.25C199,145,196.4,143.56,196.4,140.14ZM206.52,139v-1h-1.45c-2.22,0-3.21.43-3.21,1.76,0,.92.62,1.51,1.91,1.51C205.35,141.25,206.52,140.36,206.52,139Z" fill="#fff"/><path d="M218.76,136.41l-5-7.93h6.35l2.5,4.26,2.44-4.26h5.68l-5.1,7.49,5.59,8.64h-6.36L222,139.8,219,144.61H213.4Z" fill="#fff"/><path d="M232.31,141.84a3.07,3.07,0,0,1,3.15-3.12,3.12,3.12,0,1,1,0,6.23A3.07,3.07,0,0,1,232.31,141.84Z" fill="#fff"/></g></g></g></svg>