<svg xmlns="http://www.w3.org/2000/svg" viewBox="0 0 301 251"><title>Asset 1</title><g id="Layer_2" data-name="Layer 2"><g id="Rect"><rect x="0.5" y="0.5" width="300" height="250" fill="none" stroke="#000" stroke-miterlimit="10"/></g><g id="More_parents_can_file_free_with_H_R_Block_Online_than_TurboTax." data-name="More parents can file free with H&amp;R Block Online than TurboTax."><path d="M22.63,23.5h8.24l4.22,11.76L39.32,23.5H47.4V45.56H41.11V31.83l-5.4,13.73h-2.1L28.27,31.83V45.56H22.63Z" fill="#fff"/><path d="M49.65,37.7v-.25c0-5.18,3.86-8.45,8.86-8.45s8.79,3.17,8.79,8.29v.25c0,5.25-3.86,8.39-8.82,8.39S49.65,42.91,49.65,37.7Zm12-.1v-.24c0-2.72-1.08-4.23-3.18-4.23s-3.21,1.45-3.21,4.16v.25c0,2.78,1.08,4.29,3.21,4.29S61.69,40.29,61.69,37.6Z" fill="#fff"/><path d="M69.24,29.43h5.53v3.21A5.07,5.07,0,0,1,80,29.21v5.15c-3.36-.09-5.21,1-5.21,3.55v7.65H69.24Z" fill="#fff"/><path d="M81,37.7v-.25C81,32.27,84.82,29,89.7,29c4.41,0,8.2,2.53,8.2,8.33v1.45H86.55c.15,2.12,1.39,3.36,3.36,3.36s2.59-.83,2.81-1.91H97.9c-.49,3.64-3.3,5.7-8.17,5.7C84.67,45.93,81,43,81,37.7Zm11.57-2c-.1-1.94-1.05-3-2.84-3s-2.81,1.08-3.09,3Z" fill="#fff"/><path d="M105.43,29.43H111v2.4A5.7,5.7,0,0,1,116,29c3.77,0,6.82,2.83,6.82,8.36v.24c0,5.56-3,8.33-6.85,8.33a5.32,5.32,0,0,1-5-2.74V51h-5.52Zm11.75,8.17v-.24c0-2.84-1.23-4.2-3.17-4.2s-3.21,1.45-3.21,4.17v.24c0,2.75,1.2,4.14,3.21,4.14S117.18,40.26,117.18,37.6Z" fill="#fff"/><path d="M123.88,41.09c0-3.8,3.21-5.28,8.57-5.28H134v-.37c0-1.54-.37-2.56-2.13-2.56a2,2,0,0,0-2.19,1.92h-5.19c.25-3.89,3.31-5.8,7.72-5.8s7.28,1.82,7.28,6.1V45.56h-5.37V43.68a5.3,5.3,0,0,1-4.78,2.25C126.44,45.93,123.88,44.51,123.88,41.09ZM134,39.92v-1h-1.45c-2.22,0-3.21.43-3.21,1.76,0,.92.62,1.51,1.91,1.51C132.82,42.2,134,41.31,134,39.92Z" fill="#fff"/><path d="M142.17,29.43h5.52v3.21a5.09,5.09,0,0,1,5.22-3.43v5.15c-3.37-.09-5.22,1-5.22,3.55v7.65h-5.52Z" fill="#fff"/><path d="M153.89,37.7v-.25c0-5.18,3.86-8.45,8.74-8.45,4.41,0,8.2,2.53,8.2,8.33v1.45H159.48c.15,2.12,1.39,3.36,3.36,3.36,1.82,0,2.59-.83,2.81-1.91h5.18c-.49,3.64-3.3,5.7-8.17,5.7C157.6,45.93,153.89,43,153.89,37.7Zm11.57-2c-.09-1.94-1-3-2.83-3s-2.81,1.08-3.09,3Z" fill="#fff"/><path d="M172.74,29.43h5.53V32a5.68,5.68,0,0,1,5.3-3c3.12,0,5.28,1.94,5.28,6.07V45.56h-5.52V36.18c0-1.82-.71-2.71-2.32-2.71s-2.74,1-2.74,3.05v9h-5.53Z" fill="#fff"/><path d="M192.27,40.38V33.19h-1.94V29.43h1.94V26.06h5.52v3.37H201v3.76h-3.18v6.67a1.47,1.47,0,0,0,1.64,1.69,4.07,4.07,0,0,0,1.57-.28v4.2a11.41,11.41,0,0,1-3.05.46C194.31,45.93,192.27,44.18,192.27,40.38Z" fill="#fff"/><path d="M202.2,40.44h5.09c.19,1.17.71,1.82,2.29,1.82,1.36,0,2-.52,2-1.32s-.77-1.15-3-1.45c-4.32-.56-6.14-1.82-6.14-5.19,0-3.58,3.18-5.3,6.91-5.3,4,0,6.76,1.35,7.13,5.21h-5a1.8,1.8,0,0,0-2.07-1.6c-1.2,0-1.82.52-1.82,1.26s.74,1.08,2.72,1.33c4.47.55,6.63,1.72,6.63,5.18,0,3.83-2.84,5.55-7.31,5.55S202.33,44,202.2,40.44Z" fill="#fff"/><path d="M223.46,37.7v-.25c0-5.37,3.86-8.45,8.61-8.45,4,0,7.59,1.72,7.9,6.63h-5.19a2.38,2.38,0,0,0-2.59-2.35c-1.94,0-3.08,1.39-3.08,4.11v.24c0,2.81,1.08,4.26,3.17,4.26a2.68,2.68,0,0,0,2.81-2.68h5c-.16,4.07-2.9,6.72-8.12,6.72C227.13,45.93,223.46,43.13,223.46,37.7Z" fill="#fff"/><path d="M241,41.09c0-3.8,3.21-5.28,8.58-5.28h1.54v-.37c0-1.54-.37-2.56-2.13-2.56a2,2,0,0,0-2.19,1.92h-5.18c.25-3.89,3.3-5.8,7.71-5.8s7.28,1.82,7.28,6.1V45.56h-5.36V43.68a5.32,5.32,0,0,1-4.79,2.25C243.57,45.93,241,44.51,241,41.09Zm10.12-1.17v-1h-1.45c-2.22,0-3.21.43-3.21,1.76,0,.92.62,1.51,1.92,1.51C250,42.2,251.13,41.31,251.13,39.92Z" fill="#fff"/><path d="M259.31,29.43h5.52V32a5.68,5.68,0,0,1,5.31-3c3.11,0,5.27,1.94,5.27,6.07V45.56h-5.52V36.18c0-1.82-.71-2.71-2.31-2.71s-2.75,1-2.75,3.05v9h-5.52Z" fill="#fff"/><path d="M23,66h-2V62.28h2V60.86c0-4,2.5-5.93,6.32-5.93a10.06,10.06,0,0,1,2.53.34v4a4.82,4.82,0,0,0-1.51-.22,1.62,1.62,0,0,0-1.85,1.76v1.42h3.27V66H28.46V78.41H23Z" fill="#fff"/><path d="M33.46,57.9a3,3,0,1,1,3,2.83A2.88,2.88,0,0,1,33.46,57.9Zm.27,4.38h5.53V78.41H33.73Z" fill="#fff"/><path d="M42.37,55.18h5.49V78.41H42.37Z" fill="#fff"/><path d="M50,70.55V70.3c0-5.18,3.86-8.45,8.73-8.45,4.41,0,8.21,2.53,8.21,8.33v1.45H55.55C55.7,73.75,56.93,75,58.91,75c1.82,0,2.59-.83,2.81-1.91H66.9c-.49,3.64-3.3,5.7-8.18,5.7C53.66,78.78,50,75.82,50,70.55Zm11.57-2c-.09-1.94-1.05-3-2.84-3s-2.81,1.08-3.08,3Z" fill="#fff"/><path d="M75.26,66h-2V62.28h2V60.86c0-4,2.5-5.93,6.32-5.93a10.06,10.06,0,0,1,2.53.34v4a4.82,4.82,0,0,0-1.51-.22,1.62,1.62,0,0,0-1.85,1.76v1.42H84V66H80.75V78.41H75.26Z" fill="#fff"/><path d="M85.87,62.28h5.52v3.21a5.09,5.09,0,0,1,5.22-3.43v5.15c-3.37-.09-5.22,1-5.22,3.55v7.65H85.87Z" fill="#fff"/><path d="M97.59,70.55V70.3c0-5.18,3.86-8.45,8.73-8.45,4.42,0,8.21,2.53,8.21,8.33v1.45H103.18c.15,2.12,1.39,3.36,3.36,3.36,1.82,0,2.59-.83,2.81-1.91h5.18c-.49,3.64-3.3,5.7-8.18,5.7C101.29,78.78,97.59,75.82,97.59,70.55Zm11.57-2c-.09-1.94-1-3-2.84-3s-2.8,1.08-3.08,3Z" fill="#fff"/><path d="M115.58,70.55V70.3c0-5.18,3.85-8.45,8.73-8.45,4.41,0,8.21,2.53,8.21,8.33v1.45H121.16c.16,2.12,1.39,3.36,3.37,3.36,1.82,0,2.59-.83,2.8-1.91h5.19c-.5,3.64-3.31,5.7-8.18,5.7C119.28,78.78,115.58,75.82,115.58,70.55Zm11.57-2c-.09-1.94-1.05-3-2.84-3s-2.81,1.08-3.09,3Z" fill="#fff"/><path d="M138.68,62.28h5.77l2.35,9.65,2.71-9.65H154l2.4,9.65L159,62.28h5.24l-5.12,16.13h-5.28l-2.4-9-2.5,9h-5.37Z" fill="#fff"/><path d="M165.52,57.9a3,3,0,1,1,3,2.83A2.88,2.88,0,0,1,165.52,57.9Zm.28,4.38h5.52V78.41H165.8Z" fill="#fff"/><path d="M175,73.23V66h-1.95V62.28H175V58.91h5.52v3.37h3.18V66h-3.18v6.67c0,1.17.58,1.69,1.63,1.69a4.16,4.16,0,0,0,1.58-.28v4.2a11.43,11.43,0,0,1-3.06.46C177.06,78.78,175,77,175,73.23Z" fill="#fff"/><path d="M185.82,55.18h5.52v9.69a5.7,5.7,0,0,1,5.31-3c3.12,0,5.28,1.94,5.28,6.07V78.41h-5.52V69c0-1.82-.71-2.71-2.32-2.71s-2.75,1-2.75,3.05v9h-5.52Z" fill="#fff"/><path d="M210.72,56.35h6.35v8.43h7.25V56.35h6.33V78.41h-6.33v-8.7h-7.25v8.7h-6.35Z" fill="#fff"/><path d="M251.81,73.91l3.67,4.5h-7.19L247,76.81a8.81,8.81,0,0,1-6,2c-4.69,0-7.74-2.46-7.74-6.66,0-2.84,1.73-4.94,4.84-6.42a7.08,7.08,0,0,1-1.35-3.85c0-3.77,3.21-5.77,7.09-5.77,3.52,0,6.7,1.75,6.7,5.15,0,2.41-1.42,4.16-4.41,5.46l2.77,3.39,1.61-3.14h4.81Zm-7.65-.65-3.49-4.19a2.61,2.61,0,0,0-1.48,2.37A2.56,2.56,0,0,0,242,74.19,2.9,2.9,0,0,0,244.16,73.26Zm-.68-8.88c1.48-.71,2.19-1.55,2.19-2.69A1.59,1.59,0,0,0,244,60a1.76,1.76,0,0,0-1.82,1.92A4.07,4.07,0,0,0,243.48,64.38Z" fill="#fff"/><path d="M257.49,56.35h8.63c5.77,0,9,2.35,9,7v.12a5.75,5.75,0,0,1-4,5.8l5.28,9.13h-6.67l-4.47-7.89h-1.48v7.89h-6.29Zm8.33,10.06c2.13,0,3.17-.89,3.17-2.68V63.6c0-1.79-1.11-2.5-3.14-2.5h-2.07v5.31Z" fill="#fff"/><path d="M22.63,89.2h9.84c5.22,0,7.44,2.35,7.44,5.77v.13a4.55,4.55,0,0,1-3.74,4.75c2.72.46,4.42,2.1,4.42,5.15v.12c0,3.95-2.57,6.14-8,6.14H22.63ZM31.21,98c2,0,2.71-.68,2.71-2.26v-.12c0-1.51-.8-2.19-2.71-2.19H28.8V98Zm.21,9.07c2,0,2.93-.93,2.93-2.56v-.13c0-1.66-.89-2.53-3.11-2.53H28.8V107Z" fill="#fff"/><path d="M42.77,88h5.5v23.23h-5.5Z" fill="#fff"/><path d="M50.36,103.4v-.25c0-5.18,3.86-8.45,8.86-8.45S68,97.87,68,103v.24c0,5.25-3.86,8.39-8.82,8.39S50.36,108.61,50.36,103.4Zm12-.1v-.24c0-2.72-1.09-4.23-3.18-4.23S56,100.28,56,103v.24c0,2.78,1.08,4.29,3.21,4.29S62.4,106,62.4,103.3Z" fill="#fff"/><path d="M69.09,103.4v-.25c0-5.37,3.85-8.45,8.61-8.45,4,0,7.59,1.72,7.89,6.63H80.41A2.39,2.39,0,0,0,77.82,99c-1.94,0-3.09,1.39-3.09,4.11v.24c0,2.81,1.08,4.26,3.18,4.26a2.69,2.69,0,0,0,2.81-2.68h5c-.16,4.07-2.9,6.72-8.12,6.72C72.76,111.63,69.09,108.83,69.09,103.4Z" fill="#fff"/><path d="M87.47,88H93v13.48l4.35-6.38h5.74l-5.28,7.25,5.71,8.88H97.35L93,104.2v7.06H87.47Z" fill="#fff"/><path d="M109.75,100.37v-.24c0-6.73,5.06-11.23,11.66-11.23S133.1,93.12,133.1,100v.25c0,6.79-4.66,11.41-11.78,11.41S109.75,107,109.75,100.37Zm16.75-.06v-.25c0-3.91-2-6.23-5.09-6.23s-5.06,2.25-5.06,6.26v.25c0,4,2,6.33,5.09,6.33S126.5,104.26,126.5,100.31Z" fill="#fff"/><path d="M135.23,95.13h5.52v2.59a5.69,5.69,0,0,1,5.31-3c3.11,0,5.27,1.94,5.27,6.07v10.49h-5.52v-9.38c0-1.82-.71-2.71-2.31-2.71s-2.75,1-2.75,3v9h-5.52Z" fill="#fff"/><path d="M154.17,88h5.49v23.23h-5.49Z" fill="#fff"/><path d="M162.5,90.75a3,3,0,1,1,3,2.83A2.88,2.88,0,0,1,162.5,90.75Zm.28,4.38h5.52v16.13h-5.52Z" fill="#fff"/><path d="M171.26,95.13h5.52v2.59a5.7,5.7,0,0,1,5.31-3c3.12,0,5.28,1.94,5.28,6.07v10.49h-5.53v-9.38c0-1.82-.71-2.71-2.31-2.71s-2.75,1-2.75,3v9h-5.52Z" fill="#fff"/><path d="M189.19,103.4v-.25c0-5.18,3.85-8.45,8.73-8.45,4.41,0,8.2,2.53,8.2,8.33v1.45H194.77c.15,2.12,1.39,3.36,3.36,3.36,1.82,0,2.59-.83,2.81-1.91h5.18c-.49,3.64-3.3,5.7-8.17,5.7C192.89,111.63,189.19,108.67,189.19,103.4Zm11.56-2c-.09-1.94-1-3-2.83-3s-2.81,1.08-3.09,3Z" fill="#fff"/><path d="M214.39,106.08V98.89h-1.94V95.13h1.94V91.76h5.52v3.37h3.18v3.76h-3.18v6.67a1.47,1.47,0,0,0,1.64,1.69,4.31,4.31,0,0,0,1.57-.27v4.19a11.41,11.41,0,0,1-3.05.46C216.43,111.63,214.39,109.88,214.39,106.08Z" fill="#fff"/><path d="M225.19,88h5.52v9.69a5.68,5.68,0,0,1,5.31-3c3.11,0,5.27,1.94,5.27,6.07v10.49h-5.52v-9.38c0-1.82-.71-2.71-2.31-2.71s-2.75,1-2.75,3v9h-5.52Z" fill="#fff"/><path d="M243.05,106.79c0-3.79,3.21-5.28,8.57-5.28h1.55v-.37c0-1.54-.37-2.56-2.13-2.56a2,2,0,0,0-2.19,1.92h-5.18c.24-3.89,3.3-5.8,7.71-5.8s7.28,1.82,7.28,6.1v10.46h-5.37v-1.88a5.3,5.3,0,0,1-4.78,2.25C245.61,111.63,243.05,110.21,243.05,106.79Zm10.12-1.17v-1h-1.45c-2.22,0-3.21.43-3.21,1.76,0,.92.62,1.51,1.91,1.51C252,107.9,253.17,107,253.17,105.62Z" fill="#fff"/><path d="M261.34,95.13h5.52v2.59a5.7,5.7,0,0,1,5.31-3c3.12,0,5.28,1.94,5.28,6.07v10.49h-5.53v-9.38c0-1.82-.71-2.71-2.31-2.71s-2.75,1-2.75,3v9h-5.52Z" fill="#fff"/><path d="M26.86,126.93H21.15v-4.88H38.92v4.88H33.21v17.18H26.86Z" fill="#fff"/><path d="M39.41,138.5V128h5.52v9.62c0,1.82.71,2.72,2.29,2.72s2.74-1,2.74-3.06V128h5.53v16.13H50v-2.5a5.28,5.28,0,0,1-5.12,2.87C41.73,144.48,39.41,142.57,39.41,138.5Z" fill="#fff"/><path d="M58.29,128h5.52v3.21A5.09,5.09,0,0,1,69,127.76v5.15c-3.36-.09-5.22,1-5.22,3.55v7.65H58.29Z" fill="#fff"/><path d="M76.55,141.61v2.5H71V120.88h5.52v9.5a5.71,5.71,0,0,1,5-2.83c3.77,0,6.82,2.83,6.82,8.36v.24c0,5.56-3.05,8.33-6.85,8.33A5.25,5.25,0,0,1,76.55,141.61Zm6.24-5.46v-.24c0-2.84-1.24-4.2-3.18-4.2s-3.21,1.45-3.21,4.17v.24c0,2.75,1.2,4.14,3.21,4.14S82.79,138.81,82.79,136.15Z" fill="#fff"/><path d="M89.54,136.25V136c0-5.18,3.86-8.45,8.86-8.45s8.79,3.17,8.79,8.29v.25c0,5.25-3.86,8.39-8.82,8.39S89.54,141.46,89.54,136.25Zm12-.1v-.24c0-2.72-1.08-4.23-3.17-4.23s-3.21,1.45-3.21,4.16v.25c0,2.78,1.08,4.29,3.21,4.29S101.57,138.84,101.57,136.15Z" fill="#fff"/><path d="M113.85,126.93h-5.71v-4.88h17.78v4.88h-5.71v17.18h-6.36Z" fill="#fff"/><path d="M124.8,139.64c0-3.8,3.21-5.28,8.58-5.28h1.54V134c0-1.54-.37-2.56-2.13-2.56a2,2,0,0,0-2.19,1.92h-5.18c.25-3.89,3.3-5.8,7.71-5.8s7.29,1.82,7.29,6.1v10.46h-5.37v-1.88a5.31,5.31,0,0,1-4.79,2.25C127.36,144.48,124.8,143.06,124.8,139.64Zm10.12-1.17v-1h-1.45c-2.22,0-3.21.43-3.21,1.76,0,.92.62,1.51,1.92,1.51C133.75,140.75,134.92,139.86,134.92,138.47Z" fill="#fff"/><path d="M147.17,135.91l-5-7.93h6.36l2.5,4.26,2.43-4.26h5.68L154,135.47l5.58,8.64h-6.35l-2.87-4.81-2.93,4.81H141.8Z" fill="#fff"/><path d="M160.71,141.34a3.08,3.08,0,0,1,3.15-3.12,3.12,3.12,0,1,1,0,6.23A3.08,3.08,0,0,1,160.71,141.34Z" fill="#fff"/></g></g></svg>