<svg xmlns="http://www.w3.org/2000/svg" viewBox="0 0 320 480"><title>H121</title><g id="Layer_2" data-name="Layer 2"><g id="Image_8" data-name="Image 8"><g id="Easily_do_your_taxes_from_anywhere." data-name="Easily  do your  taxes from  anywhere."><path d="M22.9,77.22H50.39V86H34.25v6.85H47.11V101H34.25v7.23h17V117H22.9Z" fill="#fff"/><path d="M53.56,109c0-6.85,5.79-9.52,15.47-9.52h2.79v-.67c0-2.78-.67-4.62-3.84-4.62a3.58,3.58,0,0,0-4,3.45H54.68c.44-7,6-10.46,13.91-10.46s13.13,3.28,13.13,11V117H72v-3.4c-1.39,2.12-4,4.07-8.63,4.07C58.18,117.69,53.56,115.12,53.56,109Zm18.26-2.12v-1.78H69.2c-4,0-5.79.78-5.79,3.17,0,1.67,1.12,2.73,3.45,2.73C69.7,111,71.82,109.34,71.82,106.83Z" fill="#fff"/><path d="M84.61,107.78H93.8c.33,2.11,1.28,3.28,4.12,3.28,2.44,0,3.56-1,3.56-2.39s-1.39-2.06-5.4-2.62c-7.79-1-11.08-3.28-11.08-9.35,0-6.46,5.74-9.57,12.47-9.57,7.18,0,12.19,2.44,12.85,9.4h-9c-.39-2-1.45-2.89-3.73-2.89s-3.28.94-3.28,2.28,1.33,2,4.89,2.39c8.07,1,12,3.12,12,9.36,0,6.9-5.12,10-13.19,10C89.68,117.69,84.84,114.23,84.61,107.78Z" fill="#fff"/><path d="M114.16,80a5.5,5.5,0,1,1,5.46,5.12A5.21,5.21,0,0,1,114.16,80Zm.51,7.9h10V117h-10Z" fill="#fff"/><path d="M130.25,75.1h9.9V117h-9.9Z" fill="#fff"/><path d="M154.62,114.07,143,87.9h10.8l6,15.54,5.56-15.54h9.52L159.3,126.76h-9.52Z" fill="#fff"/><path d="M20.56,158.13v-.44c0-9.91,5.46-15.2,12.36-15.2,4.56,0,7.29,1.95,9,4.9V130.47h10v41.91h-10v-4.73a9.81,9.81,0,0,1-9.08,5.4C26.07,173.05,20.56,168.21,20.56,158.13ZM42.15,158v-.44c0-4.9-2.06-7.52-5.73-7.52s-5.73,2.51-5.73,7.58V158c0,4.9,2.17,7.4,5.62,7.4C39.93,165.42,42.15,162.92,42.15,158Z" fill="#fff"/><path d="M55.34,158.19v-.45c0-9.35,7-15.25,16-15.25s15.86,5.73,15.86,15v.45c0,9.46-7,15.14-15.91,15.14S55.34,167.59,55.34,158.19ZM77.05,158v-.44c0-4.9-2-7.63-5.74-7.63s-5.78,2.62-5.78,7.51v.45c0,5,1.94,7.74,5.78,7.74S77.05,162.86,77.05,158Z" fill="#fff"/><path d="M109.94,169.43,98.3,143.27h10.8l6,15.53,5.57-15.53h9.51l-15.58,38.85h-9.52Z" fill="#fff"/><path d="M129.64,158.19v-.45c0-9.35,7-15.25,16-15.25s15.86,5.73,15.86,15v.45c0,9.46-7,15.14-15.92,15.14S129.64,167.59,129.64,158.19Zm21.7-.17v-.44c0-4.9-2-7.63-5.73-7.63s-5.79,2.62-5.79,7.51v.45c0,5,2,7.74,5.79,7.74S151.34,162.86,151.34,158Z" fill="#fff"/><path d="M164.75,162.25v-19h10v17.37c0,3.28,1.28,4.9,4.12,4.9,3,0,4.95-1.79,4.95-5.52V143.27h10v29.11h-10v-4.51c-1.56,3-4.4,5.18-9.24,5.18C168.92,173.05,164.75,169.6,164.75,162.25Z" fill="#fff"/><path d="M198.81,143.27h10v5.79c1.83-4.34,4.89-6.24,9.4-6.18v9.3c-6.06-.17-9.4,1.72-9.4,6.4v13.8h-10Z" fill="#fff"/><path d="M23.34,218.4v-13h-3.5v-6.8h3.5v-6.06h10v6.06H39v6.8H33.31v12c0,2.11,1,3.06,2.94,3.06a7.65,7.65,0,0,0,2.84-.5v7.57a21,21,0,0,1-5.51.84C27,228.42,23.34,225.24,23.34,218.4Z" fill="#fff"/><path d="M41.26,219.68c0-6.85,5.79-9.52,15.47-9.52h2.79v-.67c0-2.78-.67-4.62-3.84-4.62a3.57,3.57,0,0,0-4,3.45H42.38c.44-7,5.95-10.46,13.91-10.46s13.13,3.28,13.13,11v18.87H59.74v-3.4c-1.39,2.12-4,4.07-8.63,4.07C45.88,228.42,41.26,225.85,41.26,219.68Zm18.26-2.12v-1.78H56.9c-4,0-5.79.78-5.79,3.17,0,1.67,1.12,2.73,3.45,2.73C57.4,221.68,59.52,220.07,59.52,217.56Z" fill="#fff"/><path d="M81.61,212.94l-9.07-14.31H84l4.51,7.69,4.4-7.69h10.24L94,212.16,104,227.75H92.57l-5.17-8.69-5.29,8.69H71.93Z" fill="#fff"/><path d="M102.76,213.55v-.44c0-9.35,6.95-15.25,15.74-15.25,8,0,14.81,4.56,14.81,15v2.62H112.83c.28,3.84,2.5,6.07,6.06,6.07,3.29,0,4.68-1.5,5.07-3.45h9.35c-.89,6.57-6,10.3-14.75,10.3C109.43,228.42,102.76,223.07,102.76,213.55Zm20.86-3.67c-.16-3.51-1.89-5.46-5.12-5.46-3,0-5.06,2-5.56,5.46Z" fill="#fff"/><path d="M135.09,218.51h9.18c.33,2.11,1.28,3.28,4.12,3.28,2.45,0,3.56-.95,3.56-2.39s-1.39-2.06-5.4-2.62c-7.79-1-11.07-3.28-11.07-9.35,0-6.46,5.73-9.57,12.46-9.57,7.18,0,12.19,2.44,12.86,9.4h-9c-.39-1.95-1.44-2.89-3.73-2.89s-3.28.94-3.28,2.28,1.34,1.95,4.9,2.39c8.07,1,12,3.12,12,9.36,0,6.9-5.12,10-13.19,10C140.15,228.42,135.31,225,135.09,218.51Z" fill="#fff"/><path d="M176.49,205.43h-3.67v-6.8h3.67v-2.56c0-7.23,4.51-10.68,11.41-10.68a17.85,17.85,0,0,1,4.56.61v7.29a9.18,9.18,0,0,0-2.72-.39c-2.34,0-3.34,1.28-3.34,3.17v2.56h5.89v6.8H186.4v22.32h-9.91Z" fill="#fff"/><path d="M195.63,198.63h10v5.79c1.84-4.34,4.9-6.23,9.41-6.17v9.29c-6.07-.17-9.41,1.73-9.41,6.4v13.81h-10Z" fill="#fff"/><path d="M216.78,213.55v-.44c0-9.35,7-15.25,16-15.25s15.86,5.73,15.86,15v.44c0,9.47-7,15.15-15.91,15.15S216.78,223,216.78,213.55Zm21.71-.16v-.45c0-4.9-2-7.63-5.74-7.63s-5.78,2.62-5.78,7.52v.44c0,5,1.94,7.74,5.78,7.74S238.49,218.23,238.49,213.39Z" fill="#fff"/><path d="M252.12,198.63h10v4.46a10.17,10.17,0,0,1,9.13-5.23c3.84,0,6.51,1.67,7.9,4.84a11.51,11.51,0,0,1,9.63-4.84c5.51,0,9.51,3.56,9.51,10.85v19h-10V210.38c0-2.95-1.45-4.4-3.73-4.4-2.67,0-4.45,1.73-4.45,4.9v16.87h-9.85V210.38c0-2.95-1.45-4.4-3.73-4.4-2.67,0-4.45,1.73-4.45,4.9v16.87h-10Z" fill="#fff"/><path d="M20.34,275c0-6.85,5.79-9.52,15.47-9.52h2.78v-.67c0-2.78-.67-4.62-3.84-4.62a3.58,3.58,0,0,0-3.95,3.45H21.45c.45-7,6-10.46,13.91-10.46s13.14,3.28,13.14,11v18.87H38.81v-3.39c-1.39,2.11-4,4.06-8.62,4.06C25,283.78,20.34,281.22,20.34,275Zm18.25-2.12v-1.78H36c-4,0-5.79.78-5.79,3.18,0,1.67,1.11,2.72,3.45,2.72C36.48,277,38.59,275.43,38.59,272.92Z" fill="#fff"/><path d="M53.34,254h10v4.67a10.28,10.28,0,0,1,9.57-5.45c5.62,0,9.52,3.51,9.52,11v18.92h-10V266.19c0-3.28-1.28-4.9-4.18-4.9s-5,1.78-5,5.51v16.31h-10Z" fill="#fff"/><path d="M95.36,280.16,83.73,254H94.52l6,15.53L106.1,254h9.51L100,292.85H90.51Z" fill="#fff"/><path d="M116.28,254h10.41l4.23,17.42L135.81,254h8l4.34,17.42L152.9,254h9.46l-9.24,29.11H143.6l-4.34-16.25-4.51,16.25h-9.68Z" fill="#fff"/><path d="M164.92,241.2h10v17.47a10.28,10.28,0,0,1,9.57-5.45c5.62,0,9.51,3.51,9.51,11v18.92H184V266.19c0-3.28-1.28-4.9-4.17-4.9s-5,1.78-5,5.51v16.31h-10Z" fill="#fff"/><path d="M197.25,268.92v-.45c0-9.35,7-15.25,15.75-15.25,8,0,14.8,4.56,14.8,15v2.62H207.32c.28,3.84,2.51,6.06,6.07,6.06,3.28,0,4.67-1.5,5.06-3.45h9.35c-.89,6.57-6,10.3-14.75,10.3C203.93,283.78,197.25,278.44,197.25,268.92Zm20.87-3.68c-.17-3.5-1.9-5.45-5.12-5.45-3,0-5.07,1.95-5.57,5.45Z" fill="#fff"/><path d="M231.25,254h10v5.79c1.84-4.34,4.9-6.24,9.41-6.18v9.3c-6.07-.17-9.41,1.72-9.41,6.4v13.8h-10Z" fill="#fff"/><path d="M252.4,268.92v-.45c0-9.35,7-15.25,15.75-15.25,8,0,14.8,4.56,14.8,15v2.62H262.47c.28,3.84,2.5,6.06,6.07,6.06,3.28,0,4.67-1.5,5.06-3.45H283c-.89,6.57-5.95,10.3-14.75,10.3C259.08,283.78,252.4,278.44,252.4,268.92Zm20.87-3.68c-.17-3.5-1.9-5.45-5.12-5.45-3,0-5.07,1.95-5.57,5.45Z" fill="#fff"/><path d="M285.73,278.1a5.55,5.55,0,0,1,5.68-5.62,5.62,5.62,0,1,1,0,11.24A5.55,5.55,0,0,1,285.73,278.1Z" fill="#fff"/><rect width="320" height="480" fill="none"/></g></g></g></svg>