<svg xmlns="http://www.w3.org/2000/svg" viewBox="0 0 728 90"><title>H50</title><g id="Layer_2" data-name="Layer 2"><g id="Rect"><rect width="728" height="90" fill="none"/></g><g id="H50"><g id="Wait_lifted._Drop_off_your_taxes." data-name="Wait lifted. Drop off your taxes."><path d="M120.42,32.14h6.21l2.76,13.38,2.88-13.38h5.46l3.12,13.5,2.91-13.5h5.7l-5,21.45H138L134.73,40,131.4,53.59h-6Z" fill="#fff"/><path d="M148.83,49.24c0-3.69,3.12-5.13,8.34-5.13h1.5v-.36c0-1.5-.36-2.49-2.07-2.49a1.93,1.93,0,0,0-2.13,1.86h-5c.24-3.78,3.21-5.64,7.5-5.64S164,39.25,164,43.42V53.59h-5.22V51.76A5.15,5.15,0,0,1,154.14,54C151.32,54,148.83,52.57,148.83,49.24Zm9.84-1.14v-1h-1.41c-2.16,0-3.12.42-3.12,1.71,0,.9.6,1.47,1.86,1.47C157.53,50.32,158.67,49.45,158.67,48.1Z" fill="#fff"/><path d="M166.5,33.64a3,3,0,1,1,2.94,2.76A2.8,2.8,0,0,1,166.5,33.64Zm.27,4.26h5.37V53.59h-5.37Z" fill="#fff"/><path d="M175.74,48.55v-7h-1.89V37.9h1.89V34.63h5.37V37.9h3.09v3.66h-3.09V48a1.43,1.43,0,0,0,1.59,1.65,4.09,4.09,0,0,0,1.53-.27V53.5a11.27,11.27,0,0,1-3,.45C177.72,54,175.74,52.24,175.74,48.55Z" fill="#fff"/><path d="M191.85,31h5.34V53.59h-5.34Z" fill="#fff"/><path d="M200,33.64a3,3,0,1,1,2.94,2.76A2.8,2.8,0,0,1,200,33.64Zm.27,4.26h5.37V53.59h-5.37Z" fill="#fff"/><path d="M209.28,41.56h-2V37.9h2V36.52c0-3.9,2.43-5.76,6.15-5.76a9.57,9.57,0,0,1,2.46.33V35a4.93,4.93,0,0,0-1.47-.21,1.58,1.58,0,0,0-1.8,1.71V37.9h3.18v3.66h-3.18v12h-5.34Z" fill="#fff"/><path d="M220.47,48.55v-7h-1.89V37.9h1.89V34.63h5.37V37.9h3.09v3.66h-3.09V48a1.43,1.43,0,0,0,1.59,1.65,4.09,4.09,0,0,0,1.53-.27V53.5a11.27,11.27,0,0,1-3,.45C222.45,54,220.47,52.24,220.47,48.55Z" fill="#fff"/><path d="M230.13,45.94V45.7c0-5,3.75-8.22,8.49-8.22,4.29,0,8,2.46,8,8.1V47h-11c.15,2.07,1.35,3.27,3.27,3.27,1.77,0,2.52-.81,2.73-1.86h5c-.48,3.54-3.21,5.55-7.95,5.55C233.73,54,230.13,51.07,230.13,45.94Zm11.25-2c-.09-1.89-1-2.94-2.76-2.94s-2.73,1-3,2.94Z" fill="#fff"/><path d="M247.68,45.91v-.24c0-5.34,2.94-8.19,6.66-8.19a5.09,5.09,0,0,1,4.83,2.64V31h5.37V53.59h-5.37V51A5.29,5.29,0,0,1,254.28,54C250.65,54,247.68,51.34,247.68,45.91Zm11.64-.09v-.24c0-2.64-1.11-4-3.09-4s-3.09,1.35-3.09,4.08v.24c0,2.64,1.17,4,3,4S259.32,48.49,259.32,45.82Z" fill="#fff"/><path d="M267.06,50.89a3,3,0,0,1,3.06-3,3,3,0,1,1,0,6.06A3,3,0,0,1,267.06,50.89Z" fill="#fff"/><path d="M281.73,32.14h7.8C297.15,32.14,301,36,301,42.61v.24c0,6.69-4,10.74-11.52,10.74h-7.77Zm7.59,16.71c3.66,0,5.28-1.92,5.28-5.91V42.7c0-4.08-1.62-5.82-5.34-5.82h-1.35v12Z" fill="#fff"/><path d="M303.09,37.9h5.37V41a4.94,4.94,0,0,1,5.07-3.33v5c-3.27-.09-5.07.93-5.07,3.45v7.44h-5.37Z" fill="#fff"/><path d="M314.49,45.94V45.7c0-5,3.75-8.22,8.61-8.22s8.55,3.09,8.55,8.07v.24c0,5.1-3.75,8.16-8.58,8.16S314.49,51,314.49,45.94Zm11.7-.09v-.24c0-2.64-1.05-4.11-3.09-4.11s-3.12,1.41-3.12,4v.24c0,2.7,1,4.17,3.12,4.17S326.19,48.46,326.19,45.85Z" fill="#fff"/><path d="M333.54,37.9h5.37v2.34a5.54,5.54,0,0,1,4.89-2.76c3.66,0,6.63,2.76,6.63,8.13v.24c0,5.4-3,8.1-6.66,8.1a5.17,5.17,0,0,1-4.86-2.67v7.56h-5.37Zm11.43,8v-.24c0-2.76-1.2-4.08-3.09-4.08s-3.12,1.41-3.12,4v.24c0,2.67,1.17,4,3.12,4S345,48.43,345,45.85Z" fill="#fff"/><path d="M357,45.94V45.7c0-5,3.75-8.22,8.61-8.22s8.55,3.09,8.55,8.07v.24c0,5.1-3.75,8.16-8.58,8.16S357,51,357,45.94Zm11.7-.09v-.24c0-2.64-1.05-4.11-3.09-4.11s-3.12,1.41-3.12,4v.24c0,2.7,1.05,4.17,3.12,4.17S368.7,48.46,368.7,45.85Z" fill="#fff"/><path d="M376.86,41.56h-2V37.9h2V36.7c0-3.9,2.4-5.73,6.12-5.73a9,9,0,0,1,2.4.3V35.2a4.72,4.72,0,0,0-1.44-.21,1.57,1.57,0,0,0-1.74,1.71v1.2h4.55V36.52c0-3.9,2.46-5.76,6.16-5.76a9.7,9.7,0,0,1,2.46.33V35a5,5,0,0,0-1.48-.21,1.56,1.56,0,0,0-1.76,1.71V37.9h3.17v3.66h-3.17v12h-5.38v-12H382.2v12h-5.34Z" fill="#fff"/><path d="M407.46,52l-6.27-14.1H407l3.25,8.37,3-8.37h5.12L410,58.84h-5.13Z" fill="#fff"/><path d="M418.08,45.94V45.7c0-5,3.74-8.22,8.6-8.22s8.55,3.09,8.55,8.07v.24c0,5.1-3.75,8.16-8.58,8.16S418.08,51,418.08,45.94Zm11.69-.09v-.24c0-2.64-1-4.11-3.09-4.11s-3.12,1.41-3.12,4v.24c0,2.7,1.05,4.17,3.12,4.17S429.77,48.46,429.77,45.85Z" fill="#fff"/><path d="M437,48.13V37.9h5.37v9.36c0,1.77.69,2.64,2.22,2.64s2.67-1,2.67-3v-9h5.37V53.59h-5.37V51.16a5.16,5.16,0,0,1-5,2.79C439.25,54,437,52.09,437,48.13Z" fill="#fff"/><path d="M455.36,37.9h5.37V41a4.94,4.94,0,0,1,5.07-3.33v5c-3.27-.09-5.07.93-5.07,3.45v7.44h-5.37Z" fill="#fff"/><path d="M473.93,48.55v-7H472V37.9h1.89V34.63h5.37V37.9h3.09v3.66H479.3V48a1.43,1.43,0,0,0,1.59,1.65,4.09,4.09,0,0,0,1.53-.27V53.5a11.27,11.27,0,0,1-3,.45C475.91,54,473.93,52.24,473.93,48.55Z" fill="#fff"/><path d="M483.59,49.24c0-3.69,3.12-5.13,8.34-5.13h1.5v-.36c0-1.5-.36-2.49-2.07-2.49a1.93,1.93,0,0,0-2.13,1.86h-5c.24-3.78,3.21-5.64,7.5-5.64s7.08,1.77,7.08,5.94V53.59h-5.22V51.76A5.15,5.15,0,0,1,488.9,54C486.08,54,483.59,52.57,483.59,49.24Zm9.84-1.14v-1H492c-2.16,0-3.12.42-3.12,1.71,0,.9.6,1.47,1.86,1.47C492.29,50.32,493.43,49.45,493.43,48.1Z" fill="#fff"/><path d="M505.34,45.61l-4.89-7.71h6.18L509.06,42l2.37-4.14H517l-5,7.29,5.43,8.4h-6.18l-2.79-4.68-2.85,4.68h-5.49Z" fill="#fff"/><path d="M516.74,45.94V45.7c0-5,3.75-8.22,8.49-8.22,4.29,0,8,2.46,8,8.1V47h-11c.15,2.07,1.35,3.27,3.27,3.27,1.77,0,2.52-.81,2.73-1.86h5c-.48,3.54-3.21,5.55-8,5.55C520.34,54,516.74,51.07,516.74,45.94ZM528,44c-.09-1.89-1-2.94-2.76-2.94s-2.73,1-3,2.94Z" fill="#fff"/><path d="M534.17,48.61h5c.18,1.14.69,1.77,2.22,1.77,1.32,0,1.92-.51,1.92-1.29s-.75-1.11-2.91-1.41c-4.2-.54-6-1.77-6-5,0-3.48,3.09-5.16,6.72-5.16,3.87,0,6.57,1.32,6.93,5.07h-4.86a1.75,1.75,0,0,0-2-1.56c-1.17,0-1.77.51-1.77,1.23s.72,1.05,2.64,1.29c4.35.54,6.45,1.68,6.45,5,0,3.72-2.76,5.4-7.11,5.4S534.29,52.09,534.17,48.61Z" fill="#fff"/><path d="M550,50.89a3,3,0,0,1,3.06-3,3,3,0,1,1,0,6.06A3,3,0,0,1,550,50.89Z" fill="#fff"/></g></g></g></svg>