<svg xmlns="http://www.w3.org/2000/svg" viewBox="0 0 160 600"><title>H72</title><g id="Layer_2" data-name="Layer 2"><g id="Rect"><rect width="160" height="600" fill="none"/></g><g id="H72"><g id="Texas_taxpayer_Filing_at_H_R_Block_could_save_you_money." data-name="Texas  taxpayer? Filing at H&amp;R Block could  save you money."><path d="M24.48,114h-4.1v-3.51H33.16V114h-4.1v12.38H24.48Z" fill="#fff"/><path d="M32.52,120.66v-.18a6,6,0,0,1,6.28-6.09c3.18,0,5.91,1.83,5.91,6v1H36.54A2.32,2.32,0,0,0,39,123.86c1.31,0,1.86-.6,2-1.38h3.73c-.36,2.62-2.38,4.11-5.88,4.11S32.52,124.46,32.52,120.66Zm8.33-1.47c-.07-1.4-.76-2.17-2.05-2.17a2.2,2.2,0,0,0-2.22,2.17Z" fill="#fff"/><path d="M48.73,120.42l-3.62-5.71h4.57l1.8,3.06,1.75-3.06h4.09l-3.66,5.39,4,6.23H53.1L51,122.86l-2.11,3.47H44.86Z" fill="#fff"/><path d="M58.3,123.1c0-2.73,2.3-3.8,6.17-3.8h1.11V119c0-1.11-.27-1.85-1.53-1.85a1.43,1.43,0,0,0-1.58,1.38H58.74c.18-2.8,2.37-4.18,5.55-4.18s5.24,1.32,5.24,4.4v7.54H65.67V125a3.83,3.83,0,0,1-3.44,1.62C60.14,126.59,58.3,125.57,58.3,123.1Zm7.28-.84v-.71h-1c-1.59,0-2.3.31-2.3,1.26,0,.67.44,1.09,1.37,1.09C64.73,123.9,65.58,123.26,65.58,122.26Z" fill="#fff"/><path d="M71,122.64h3.66c.13.84.51,1.31,1.64,1.31s1.42-.38,1.42-1-.55-.82-2.15-1c-3.11-.4-4.42-1.31-4.42-3.73,0-2.58,2.29-3.83,5-3.83,2.86,0,4.86,1,5.12,3.76H77.68A1.3,1.3,0,0,0,76.19,117c-.87,0-1.31.38-1.31.92s.53.77,2,1c3.22.4,4.78,1.24,4.78,3.73,0,2.76-2,4-5.27,4S71.1,125.21,71,122.64Z" fill="#fff"/><path d="M21.62,152.94v-5.18h-1.4v-2.71h1.4v-2.42h4v2.42h2.29v2.71H25.59v4.8a1.06,1.06,0,0,0,1.18,1.22,2.88,2.88,0,0,0,1.13-.2v3a8.45,8.45,0,0,1-2.2.33C23.08,156.94,21.62,155.67,21.62,152.94Z" fill="#fff"/><path d="M29.1,153.45c0-2.73,2.31-3.8,6.17-3.8h1.11v-.27c0-1.11-.26-1.84-1.53-1.84a1.42,1.42,0,0,0-1.57,1.38H29.55c.17-2.8,2.37-4.18,5.55-4.18s5.24,1.31,5.24,4.4v7.53H36.47v-1.35A3.81,3.81,0,0,1,33,156.94C30.94,156.94,29.1,155.92,29.1,153.45Zm7.28-.84v-.71h-1c-1.6,0-2.31.31-2.31,1.26,0,.67.45,1.09,1.38,1.09C35.54,154.25,36.38,153.61,36.38,152.61Z" fill="#fff"/><path d="M45.53,150.76l-3.62-5.71h4.57l1.8,3.07L50,145.05h4.08l-3.66,5.4,4,6.22H49.9l-2.06-3.46-2.11,3.46H41.67Z" fill="#fff"/><path d="M55.92,145.05h4v1.74a4.1,4.1,0,0,1,3.62-2c2.71,0,4.91,2,4.91,6v.18c0,4-2.2,6-4.93,6a3.84,3.84,0,0,1-3.6-2v5.6h-4Zm8.46,5.89v-.18c0-2-.89-3-2.29-3s-2.31,1-2.31,3v.18c0,2,.87,3,2.31,3S64.38,152.85,64.38,150.94Z" fill="#fff"/><path d="M69.53,153.45c0-2.73,2.31-3.8,6.17-3.8h1.11v-.27c0-1.11-.27-1.84-1.53-1.84a1.43,1.43,0,0,0-1.58,1.38H70c.18-2.8,2.38-4.18,5.55-4.18s5.24,1.31,5.24,4.4v7.53H76.9v-1.35a3.83,3.83,0,0,1-3.44,1.62C71.37,156.94,69.53,155.92,69.53,153.45Zm7.28-.84v-.71h-1c-1.6,0-2.31.31-2.31,1.26,0,.67.44,1.09,1.37,1.09C76,154.25,76.81,153.61,76.81,152.61Z" fill="#fff"/><path d="M86.27,155.49l-4.64-10.44h4.3l2.4,6.2,2.22-6.2h3.8l-6.22,15.51H84.34Z" fill="#fff"/><path d="M94.46,151v-.18a6,6,0,0,1,6.28-6.09c3.18,0,5.91,1.82,5.91,6v1H98.48a2.32,2.32,0,0,0,2.42,2.43c1.31,0,1.86-.6,2-1.38h3.73c-.36,2.62-2.38,4.11-5.88,4.11S94.46,154.81,94.46,151Zm8.33-1.47c-.07-1.4-.76-2.18-2.05-2.18a2.21,2.21,0,0,0-2.22,2.18Z" fill="#fff"/><path d="M108.36,145.05h4v2.31a3.67,3.67,0,0,1,3.75-2.46v3.71c-2.42-.07-3.75.69-3.75,2.55v5.51h-4Z" fill="#fff"/><path d="M120.66,151c0-1.69,1.15-2.76,2.17-3.73.76-.74,1.45-1.4,1.45-2.18a1.19,1.19,0,0,0-1.36-1.33c-1,0-1.6.73-1.75,2H117.3c.12-3.35,2.51-5.18,5.93-5.18s5.35,1.54,5.35,4.18a4.48,4.48,0,0,1-1.62,3.33c-1.08,1.09-2.35,2-2.55,3.05v.33h-3.75Zm-.51,3.69a2.38,2.38,0,1,1,2.39,2.2A2.31,2.31,0,0,1,120.15,154.72Z" fill="#fff"/><path d="M21.44,171.13H32.17v3.54H26V178h4.9v3.36H26V187H21.44Z" fill="#fff"/><path d="M33.63,172.24a2.19,2.19,0,1,1,2.18,2A2.07,2.07,0,0,1,33.63,172.24Zm.2,3.16h4V187h-4Z" fill="#fff"/><path d="M40.38,170.29h3.95V187H40.38Z" fill="#fff"/><path d="M46.71,172.24a2.19,2.19,0,1,1,2.17,2A2.07,2.07,0,0,1,46.71,172.24Zm.2,3.16h4V187h-4Z" fill="#fff"/><path d="M53.35,175.4h4v1.87a4.1,4.1,0,0,1,3.82-2.18c2.24,0,3.79,1.4,3.79,4.37V187H61v-6.76c0-1.31-.51-1.95-1.67-1.95s-2,.71-2,2.2V187h-4Z" fill="#fff"/><path d="M66.55,187h4c.17.84.68,1.51,2.13,1.51a2.19,2.19,0,0,0,2.46-2.44v-1.78a4.06,4.06,0,0,1-3.59,2.13c-2.71,0-4.93-2-4.93-5.58v-.17c0-3.42,2.19-5.6,4.93-5.6A3.77,3.77,0,0,1,75.1,177V175.4h4V186c0,3.47-2.29,5.29-6.44,5.29C68.69,191.33,66.87,189.66,66.55,187Zm8.66-6.18v-.15c0-1.6-.82-2.62-2.28-2.62s-2.29,1-2.29,2.64v.18c0,1.6.84,2.62,2.26,2.62S75.21,182.49,75.21,180.84Z" fill="#fff"/><path d="M85.14,183.8c0-2.74,2.3-3.8,6.17-3.8h1.11v-.27c0-1.11-.27-1.84-1.53-1.84a1.43,1.43,0,0,0-1.58,1.37H85.58c.18-2.79,2.38-4.17,5.55-4.17s5.24,1.31,5.24,4.4V187H92.51v-1.36a3.81,3.81,0,0,1-3.44,1.63C87,187.29,85.14,186.26,85.14,183.8Zm7.28-.85v-.71h-1c-1.59,0-2.3.31-2.3,1.27,0,.66.44,1.09,1.37,1.09A1.76,1.76,0,0,0,92.42,183Z" fill="#fff"/><path d="M99.1,183.29v-5.18H97.7V175.4h1.4V173h4v2.42h2.29v2.71h-2.29v4.8a1.06,1.06,0,0,0,1.18,1.22,3,3,0,0,0,1.13-.2v3a8.37,8.37,0,0,1-2.19.34C100.57,187.29,99.1,186,99.1,183.29Z" fill="#fff"/><path d="M21.44,201.48H26v6.07h5.21v-6.07h4.55v15.89H31.23V211.1H26v6.27H21.44Z" fill="#fff"/><path d="M51.35,214.12,54,217.37H48.82l-.94-1.16a6.31,6.31,0,0,1-4.28,1.42c-3.38,0-5.57-1.78-5.57-4.8,0-2,1.24-3.55,3.48-4.62a5.06,5.06,0,0,1-1-2.78c0-2.71,2.31-4.15,5.11-4.15,2.53,0,4.82,1.27,4.82,3.71,0,1.73-1,3-3.18,3.93l2,2.45,1.16-2.27H53.9Zm-5.51-.46-2.51-3a1.89,1.89,0,0,0-1.06,1.71,1.84,1.84,0,0,0,2,2A2.08,2.08,0,0,0,45.84,213.66Zm-.49-6.4c1.07-.51,1.58-1.11,1.58-1.94a1.14,1.14,0,0,0-1.18-1.22,1.27,1.27,0,0,0-1.31,1.38A3,3,0,0,0,45.35,207.26Z" fill="#fff"/><path d="M55.76,201.48H62c4.15,0,6.46,1.69,6.46,5v.09a4.16,4.16,0,0,1-2.86,4.18l3.79,6.58H64.58l-3.22-5.69H60.29v5.69H55.76Zm6,7.24c1.53,0,2.29-.64,2.29-1.93v-.09c0-1.29-.8-1.8-2.27-1.8H60.29v3.82Z" fill="#fff"/><path d="M75.61,201.48h7.08c3.76,0,5.35,1.69,5.35,4.15v.09a3.28,3.28,0,0,1-2.68,3.43,3.45,3.45,0,0,1,3.17,3.71v.08c0,2.85-1.84,4.43-5.77,4.43H75.61Zm6.17,6.31c1.43,0,2-.49,2-1.62v-.09c0-1.09-.58-1.58-2-1.58H80.05v3.29Zm.16,6.53c1.44,0,2.11-.66,2.11-1.84v-.09c0-1.2-.65-1.82-2.24-1.82H80.05v3.75Z" fill="#fff"/><path d="M90.44,200.64h4v16.73h-4Z" fill="#fff"/><path d="M96.24,211.7v-.18c0-3.73,2.77-6.09,6.37-6.09s6.33,2.29,6.33,6v.18c0,3.78-2.78,6-6.35,6S96.24,215.45,96.24,211.7Zm8.66-.07v-.17c0-2-.78-3.05-2.29-3.05s-2.31,1.05-2.31,3v.18c0,2,.78,3.09,2.31,3.09S104.9,213.57,104.9,211.63Z" fill="#fff"/><path d="M110,211.7v-.18a5.85,5.85,0,0,1,6.2-6.09c2.84,0,5.46,1.25,5.68,4.78h-3.73a1.71,1.71,0,0,0-1.86-1.69c-1.4,0-2.22,1-2.22,3v.18c0,2,.77,3.06,2.28,3.06a2,2,0,0,0,2-1.93H122c-.11,2.93-2.09,4.84-5.84,4.84C112.69,217.63,110,215.61,110,211.7Z" fill="#fff"/><path d="M123.61,200.64h4v9.7l3.13-4.59h4.13L131.05,211l4.11,6.4h-4.45l-3.13-5.09v5.09h-4Z" fill="#fff"/><path d="M20.47,242.05v-.18a5.84,5.84,0,0,1,6.19-6.09c2.84,0,5.46,1.25,5.68,4.78H28.61a1.71,1.71,0,0,0-1.86-1.69c-1.4,0-2.22,1-2.22,2.95V242c0,2,.78,3.07,2.28,3.07a1.93,1.93,0,0,0,2-1.93h3.58c-.11,2.93-2.09,4.84-5.84,4.84C23.11,248,20.47,246,20.47,242.05Z" fill="#fff"/><path d="M33.41,242.05v-.18c0-3.73,2.77-6.09,6.37-6.09s6.33,2.29,6.33,6v.18c0,3.77-2.78,6-6.35,6S33.41,245.8,33.41,242.05Zm8.66-.07v-.18c0-2-.78-3-2.29-3s-2.31,1-2.31,3v.18c0,2,.78,3.08,2.31,3.08S42.07,243.91,42.07,242Z" fill="#fff"/><path d="M47.75,243.67v-7.58h4V243c0,1.31.51,2,1.65,2s2-.71,2-2.2v-6.69h4v11.62h-4v-1.8A3.81,3.81,0,0,1,51.66,248C49.42,248,47.75,246.6,47.75,243.67Z" fill="#fff"/><path d="M61.78,231h4v16.73h-4Z" fill="#fff"/><path d="M67.62,242v-.17c0-4,2.18-6.07,4.93-6.07a3.75,3.75,0,0,1,3.57,2V231h4v16.73h-4v-1.89A3.9,3.9,0,0,1,72.5,248C69.82,248,67.62,246.05,67.62,242Zm8.61-.06v-.18c0-1.95-.82-3-2.28-3s-2.29,1-2.29,3V242c0,2,.87,3,2.24,3S76.23,243.94,76.23,242Z" fill="#fff"/><path d="M20.31,274.37H24c.14.84.51,1.31,1.65,1.31,1,0,1.42-.38,1.42-.95s-.56-.83-2.16-1.05c-3.11-.4-4.41-1.31-4.41-3.73,0-2.58,2.28-3.82,5-3.82,2.86,0,4.86,1,5.13,3.75H27a1.3,1.3,0,0,0-1.49-1.15c-.86,0-1.31.38-1.31.91s.54.78,2,.95c3.22.4,4.77,1.25,4.77,3.74,0,2.75-2,4-5.26,4S20.4,277,20.31,274.37Z" fill="#fff"/><path d="M31.85,274.84c0-2.74,2.31-3.8,6.18-3.8h1.11v-.27c0-1.11-.27-1.84-1.54-1.84A1.42,1.42,0,0,0,36,270.3H32.3c.18-2.79,2.37-4.17,5.55-4.17s5.24,1.31,5.24,4.4v7.53H39.23V276.7a3.82,3.82,0,0,1-3.45,1.63C33.7,278.33,31.85,277.3,31.85,274.84Zm7.29-.85v-.71h-1c-1.6,0-2.31.31-2.31,1.27,0,.66.45,1.09,1.38,1.09A1.76,1.76,0,0,0,39.14,274Z" fill="#fff"/><path d="M44,266.44h4.24l2.42,7.49,2.38-7.49h3.79l-4.24,11.62H48.28Z" fill="#fff"/><path d="M56.94,272.39v-.17a5.94,5.94,0,0,1,6.28-6.09c3.18,0,5.91,1.82,5.91,6v1H61a2.32,2.32,0,0,0,2.42,2.42c1.31,0,1.86-.6,2-1.38h3.73c-.36,2.63-2.38,4.12-5.88,4.12S56.94,276.19,56.94,272.39Zm8.33-1.46c-.07-1.4-.76-2.18-2-2.18A2.22,2.22,0,0,0,61,270.93Z" fill="#fff"/><path d="M78.85,276.88l-4.64-10.44h4.31l2.4,6.2,2.22-6.2h3.79L80.72,282h-3.8Z" fill="#fff"/><path d="M87,272.39v-.17c0-3.74,2.78-6.09,6.38-6.09s6.32,2.29,6.32,6v.18c0,3.78-2.77,6.05-6.35,6.05S87,276.15,87,272.39Zm8.66-.06v-.18c0-2-.77-3-2.28-3s-2.31,1-2.31,3v.18c0,2,.77,3.09,2.31,3.09S95.7,274.26,95.7,272.33Z" fill="#fff"/><path d="M101.39,274v-7.58h4v6.93c0,1.31.51,2,1.64,2s2-.71,2-2.2v-6.69h4v11.62h-4v-1.8a3.81,3.81,0,0,1-3.69,2.07C103.05,278.33,101.39,277,101.39,274Z" fill="#fff"/><path d="M21.09,296.79h4v1.77a4.06,4.06,0,0,1,3.64-2.09,3.16,3.16,0,0,1,3.15,1.94,4.61,4.61,0,0,1,3.85-1.94c2.19,0,3.79,1.43,3.79,4.34v7.6h-4v-6.94c0-1.17-.58-1.75-1.49-1.75a1.72,1.72,0,0,0-1.78,1.95v6.74H28.32v-6.94c0-1.17-.57-1.75-1.48-1.75a1.72,1.72,0,0,0-1.78,1.95v6.74h-4Z" fill="#fff"/><path d="M41.13,302.74v-.18c0-3.73,2.78-6.09,6.38-6.09s6.32,2.29,6.32,6v.18c0,3.78-2.77,6-6.35,6S41.13,306.49,41.13,302.74Zm8.66-.07v-.17c0-2-.77-3.05-2.28-3.05s-2.31,1.05-2.31,3v.18c0,2,.77,3.09,2.31,3.09S49.79,304.61,49.79,302.67Z" fill="#fff"/><path d="M55.56,296.79h4v1.86a4.1,4.1,0,0,1,3.82-2.18c2.24,0,3.79,1.4,3.79,4.38v7.56h-4v-6.76c0-1.31-.51-1.95-1.67-1.95s-2,.71-2,2.2v6.51h-4Z" fill="#fff"/><path d="M68.8,302.74v-.18a5.94,5.94,0,0,1,6.28-6.09c3.17,0,5.91,1.83,5.91,6v1H72.81a2.32,2.32,0,0,0,2.42,2.42c1.31,0,1.87-.6,2-1.38H81c-.36,2.62-2.38,4.11-5.89,4.11S68.8,306.54,68.8,302.74Zm8.32-1.47c-.06-1.4-.75-2.17-2-2.17a2.2,2.2,0,0,0-2.22,2.17Z" fill="#fff"/><path d="M85.78,307.23l-4.64-10.44h4.31l2.4,6.19,2.22-6.19h3.79l-6.21,15.5h-3.8Z" fill="#fff"/><path d="M93.35,306.41a2.21,2.21,0,0,1,2.27-2.25,2.25,2.25,0,1,1,0,4.49A2.21,2.21,0,0,1,93.35,306.41Z" fill="#fff"/></g></g></g></svg>