<svg xmlns="http://www.w3.org/2000/svg" viewBox="0 0 160 600"><title>H125</title><g id="Layer_2" data-name="Layer 2"><g id="Rect"><rect width="160" height="600" fill="none"/></g><g id="H125"><g id="Encuentra_a_un_profesional_de_taxes_en_el_que_puedas_contar_ca" data-name="Encuentra a un  profesional de taxes en el que puedas contar ca"><path d="M20.45,123H30.8v3.28H24.72v2.56h4.85v3H24.72v2.7h6.42v3.29H20.45Z" fill="#fff"/><path d="M32.63,127h3.75v1.75a3.87,3.87,0,0,1,3.61-2c2.11,0,3.58,1.31,3.58,4.1v7.07H39.82v-6.33c0-1.22-.48-1.83-1.57-1.83s-1.87.67-1.87,2.06v6.1H32.63Z" fill="#fff"/><path d="M44.81,132.56v-.16a5.5,5.5,0,0,1,5.85-5.7c2.68,0,5.15,1.16,5.36,4.47H52.5a1.62,1.62,0,0,0-1.76-1.58c-1.32,0-2.1.93-2.1,2.77v.16c0,1.89.74,2.87,2.16,2.87a1.82,1.82,0,0,0,1.91-1.81h3.38c-.11,2.75-2,4.54-5.52,4.54C47.3,138.12,44.81,136.22,44.81,132.56Z" fill="#fff"/><path d="M57.22,134.08V127H61v6.49c0,1.23.48,1.83,1.55,1.83s1.87-.67,1.87-2.06V127h3.75v10.88H64.39v-1.69a3.61,3.61,0,0,1-3.48,1.94C58.79,138.12,57.22,136.83,57.22,134.08Z" fill="#fff"/><path d="M69.46,132.56v-.16a5.59,5.59,0,0,1,5.94-5.7c3,0,5.57,1.7,5.57,5.61v1H73.26a2.17,2.17,0,0,0,2.28,2.27c1.24,0,1.76-.56,1.91-1.29H81c-.33,2.45-2.24,3.85-5.55,3.85S69.46,136.12,69.46,132.56Zm7.86-1.37c-.06-1.31-.71-2-1.92-2a2.08,2.08,0,0,0-2.1,2Z" fill="#fff"/><path d="M82.27,127H86v1.75a3.85,3.85,0,0,1,3.6-2c2.12,0,3.59,1.31,3.59,4.1v7.07H89.46v-6.33c0-1.22-.48-1.83-1.57-1.83s-1.86.67-1.86,2.06v6.1H82.27Z" fill="#fff"/><path d="M95.54,134.37v-4.84H94.22V127h1.32v-2.27H99.3V127h2.16v2.54H99.3V134a1,1,0,0,0,1.11,1.14,3,3,0,0,0,1.07-.18v2.82a7.76,7.76,0,0,1-2.08.32C96.93,138.12,95.54,136.93,95.54,134.37Z" fill="#fff"/><path d="M102.88,127h3.75v2.16a3.47,3.47,0,0,1,3.55-2.31v3.48c-2.29-.07-3.55.64-3.55,2.39v5.16h-3.75Z" fill="#fff"/><path d="M110.66,134.85c0-2.56,2.18-3.56,5.83-3.56h1.05V131c0-1-.26-1.72-1.45-1.72a1.34,1.34,0,0,0-1.49,1.29h-3.52c.17-2.62,2.24-3.91,5.24-3.91s5,1.23,5,4.12v7.05h-3.65V136.6a3.61,3.61,0,0,1-3.25,1.52C112.4,138.12,110.66,137.16,110.66,134.85Zm6.88-.79v-.66h-1c-1.51,0-2.18.29-2.18,1.18,0,.62.42,1,1.3,1C116.74,135.6,117.54,135,117.54,134.06Z" fill="#fff"/><path d="M19.48,156.85c0-2.56,2.18-3.56,5.83-3.56h1.05V153c0-1-.25-1.72-1.45-1.72a1.34,1.34,0,0,0-1.49,1.29H19.9c.17-2.62,2.25-3.91,5.24-3.91s4.95,1.23,4.95,4.12v7.05H26.44V158.6a3.61,3.61,0,0,1-3.25,1.52C21.22,160.12,19.48,159.16,19.48,156.85Zm6.88-.79v-.66h-1c-1.51,0-2.18.29-2.18,1.18,0,.62.42,1,1.3,1C25.56,157.6,26.36,157,26.36,156.06Z" fill="#fff"/><path d="M35.65,156.08V149H39.4v6.49c0,1.23.48,1.83,1.55,1.83s1.87-.67,1.87-2.06V149h3.75v10.88H42.82v-1.69a3.61,3.61,0,0,1-3.48,1.94C37.22,160.12,35.65,158.83,35.65,156.08Z" fill="#fff"/><path d="M48.48,149h3.75v1.75a3.87,3.87,0,0,1,3.61-2c2.11,0,3.58,1.31,3.58,4.1v7.07H55.67v-6.33c0-1.22-.48-1.83-1.57-1.83s-1.87.67-1.87,2.06v6.1H48.48Z" fill="#fff"/><path d="M20.11,171h3.75v1.62a3.87,3.87,0,0,1,3.42-1.91c2.56,0,4.64,1.91,4.64,5.63v.17c0,3.74-2.08,5.62-4.66,5.62a3.63,3.63,0,0,1-3.4-1.85v5.24H20.11Zm8,5.51v-.17c0-1.91-.84-2.82-2.16-2.82s-2.18,1-2.18,2.8v.17c0,1.85.82,2.79,2.18,2.79S28.1,178.29,28.1,176.5Z" fill="#fff"/><path d="M33.28,171H37v2.16a3.46,3.46,0,0,1,3.54-2.31v3.48c-2.28-.07-3.54.64-3.54,2.39v5.16H33.28Z" fill="#fff"/><path d="M41.24,176.56v-.16c0-3.5,2.63-5.7,6-5.7s6,2.14,6,5.59v.17c0,3.54-2.62,5.66-6,5.66S41.24,180.08,41.24,176.56Zm8.18-.06v-.17c0-1.83-.73-2.84-2.16-2.84s-2.18,1-2.18,2.8v.17c0,1.87.73,2.89,2.18,2.89S49.42,178.31,49.42,176.5Z" fill="#fff"/><path d="M55.12,173.53H53.74V171h1.38v-1c0-2.7,1.7-4,4.3-4a6.51,6.51,0,0,1,1.72.23V169a3.6,3.6,0,0,0-1-.14A1.1,1.1,0,0,0,58.85,170v1h2.23v2.54H58.85v8.34H55.12Z" fill="#fff"/><path d="M61.37,176.56v-.16a5.58,5.58,0,0,1,5.93-5.7c3,0,5.58,1.7,5.58,5.61v1H65.17a2.17,2.17,0,0,0,2.28,2.27c1.24,0,1.76-.56,1.91-1.29h3.52c-.34,2.45-2.24,3.85-5.56,3.85S61.37,180.12,61.37,176.56Zm7.86-1.37c-.06-1.31-.71-2-1.93-2a2.08,2.08,0,0,0-2.09,2Z" fill="#fff"/><path d="M73.55,178.41H77c.13.79.48,1.23,1.55,1.23.92,0,1.34-.35,1.34-.89s-.52-.77-2-1c-2.93-.37-4.17-1.23-4.17-3.49,0-2.42,2.16-3.58,4.69-3.58,2.71,0,4.6.91,4.85,3.51h-3.4a1.22,1.22,0,0,0-1.4-1.08c-.82,0-1.24.36-1.24.85s.5.73,1.84.9c3,.37,4.51,1.16,4.51,3.49,0,2.58-1.93,3.75-5,3.75S73.64,180.83,73.55,178.41Z" fill="#fff"/><path d="M84.68,168A2.07,2.07,0,1,1,86.74,170,2,2,0,0,1,84.68,168Zm.19,3h3.75v10.88H84.87Z" fill="#fff"/><path d="M90.05,176.56v-.16c0-3.5,2.62-5.7,6-5.7s6,2.14,6,5.59v.17c0,3.54-2.62,5.66-6,5.66S90.05,180.08,90.05,176.56Zm8.18-.06v-.17c0-1.83-.74-2.84-2.16-2.84s-2.18,1-2.18,2.8v.17c0,1.87.73,2.89,2.18,2.89S98.23,178.31,98.23,176.5Z" fill="#fff"/><path d="M103.36,171h3.76v1.75a3.85,3.85,0,0,1,3.6-2c2.12,0,3.59,1.31,3.59,4.1v7.07h-3.76v-6.33c0-1.22-.48-1.83-1.57-1.83s-1.86.67-1.86,2.06v6.1h-3.76Z" fill="#fff"/><path d="M115.5,178.85c0-2.56,2.18-3.56,5.83-3.56h1V175c0-1-.25-1.72-1.45-1.72a1.34,1.34,0,0,0-1.49,1.29h-3.52c.17-2.62,2.24-3.91,5.24-3.91s5,1.23,5,4.12v7.05h-3.65V180.6a3.61,3.61,0,0,1-3.25,1.52C117.24,182.12,115.5,181.16,115.5,178.85Zm6.88-.79v-.66h-1c-1.51,0-2.18.29-2.18,1.18,0,.62.42,1,1.3,1C121.58,179.6,122.38,179,122.38,178.06Z" fill="#fff"/><path d="M128,166.21h3.73v15.66H128Z" fill="#fff"/><path d="M19.57,198.54v-.16c0-3.71,2.05-5.68,4.65-5.68a3.57,3.57,0,0,1,3.38,1.83v-6.32h3.75v15.66H27.6V202.1a3.72,3.72,0,0,1-3.42,2C21.64,204.12,19.57,202.31,19.57,198.54Zm8.13-.06v-.17c0-1.83-.78-2.8-2.16-2.8s-2.16.93-2.16,2.82v.17c0,1.83.82,2.77,2.12,2.77S27.7,200.33,27.7,198.48Z" fill="#fff"/><path d="M32.67,198.56v-.16a5.58,5.58,0,0,1,5.93-5.7c3,0,5.58,1.7,5.58,5.61v1H36.46a2.19,2.19,0,0,0,2.29,2.27c1.24,0,1.76-.56,1.91-1.29h3.52c-.34,2.45-2.24,3.85-5.56,3.85S32.67,202.12,32.67,198.56Zm7.86-1.37c-.06-1.31-.71-2-1.93-2a2.07,2.07,0,0,0-2.09,2Z" fill="#fff"/><path d="M49.8,200.37v-4.84H48.48V193H49.8v-2.27h3.75V193h2.16v2.54H53.55V200a1,1,0,0,0,1.11,1.14,3,3,0,0,0,1.07-.18v2.82a7.61,7.61,0,0,1-2.07.32C51.18,204.12,49.8,202.93,49.8,200.37Z" fill="#fff"/><path d="M56.55,200.85c0-2.56,2.18-3.56,5.83-3.56h1V197c0-1-.25-1.72-1.44-1.72a1.34,1.34,0,0,0-1.49,1.29H57c.17-2.62,2.24-3.91,5.24-3.91s4.95,1.23,4.95,4.12v7.05H63.51V202.6a3.62,3.62,0,0,1-3.25,1.52C58.29,204.12,56.55,203.16,56.55,200.85Zm6.87-.79v-.66h-1c-1.51,0-2.18.29-2.18,1.18,0,.62.42,1,1.3,1C62.63,201.6,63.42,201,63.42,200.06Z" fill="#fff"/><path d="M71.75,198.33,68.33,193h4.32l1.7,2.87L76,193h3.86l-3.46,5,3.8,5.83H75.88l-1.95-3.25-2,3.25H68.1Z" fill="#fff"/><path d="M79.71,198.56v-.16a5.59,5.59,0,0,1,5.94-5.7c3,0,5.57,1.7,5.57,5.61v1H83.51a2.17,2.17,0,0,0,2.28,2.27c1.24,0,1.77-.56,1.91-1.29h3.52c-.33,2.45-2.24,3.85-5.55,3.85S79.71,202.12,79.71,198.56Zm7.87-1.37c-.07-1.31-.72-2-1.93-2a2.09,2.09,0,0,0-2.1,2Z" fill="#fff"/><path d="M91.89,200.41h3.46c.13.79.49,1.23,1.56,1.23s1.34-.35,1.34-.89-.53-.77-2-1c-2.93-.37-4.17-1.23-4.17-3.49,0-2.42,2.16-3.58,4.7-3.58,2.7,0,4.59.91,4.84,3.51h-3.4a1.22,1.22,0,0,0-1.4-1.08c-.82,0-1.24.36-1.24.85s.51.73,1.85.9c3,.37,4.51,1.16,4.51,3.49,0,2.58-1.93,3.75-5,3.75S92,202.83,91.89,200.41Z" fill="#fff"/><path d="M106.34,198.56v-.16a5.58,5.58,0,0,1,5.93-5.7c3,0,5.58,1.7,5.58,5.61v1h-7.72a2.19,2.19,0,0,0,2.29,2.27c1.24,0,1.76-.56,1.91-1.29h3.52c-.34,2.45-2.24,3.85-5.56,3.85S106.34,202.12,106.34,198.56Zm7.86-1.37c-.06-1.31-.71-2-1.93-2a2.08,2.08,0,0,0-2.09,2Z" fill="#fff"/><path d="M119.15,193h3.75v1.75a3.87,3.87,0,0,1,3.61-2c2.12,0,3.58,1.31,3.58,4.1v7.07h-3.75v-6.33c0-1.22-.48-1.83-1.57-1.83s-1.87.67-1.87,2.06v6.1h-3.75Z" fill="#fff"/><path d="M19.52,220.56v-.16a5.59,5.59,0,0,1,5.94-5.7c3,0,5.57,1.7,5.57,5.61v1H23.32a2.17,2.17,0,0,0,2.28,2.27c1.24,0,1.77-.56,1.91-1.29H31c-.33,2.45-2.24,3.85-5.55,3.85S19.52,224.12,19.52,220.56Zm7.87-1.37c-.07-1.31-.72-2-1.93-2a2.09,2.09,0,0,0-2.1,2Z" fill="#fff"/><path d="M32.44,210.21h3.73v15.66H32.44Z" fill="#fff"/><path d="M49.48,224.18a3.78,3.78,0,0,1-3.41,1.94c-2.54,0-4.62-1.81-4.62-5.58v-.16c0-3.71,2.06-5.68,4.66-5.68a3.56,3.56,0,0,1,3.37,1.83V215h3.76v14.52H49.48Zm.11-3.7v-.17c0-1.83-.78-2.8-2.16-2.8s-2.16.93-2.16,2.82v.17c0,1.83.82,2.77,2.12,2.77S49.59,222.33,49.59,220.48Z" fill="#fff"/><path d="M55.06,222.08V215h3.75v6.49c0,1.23.48,1.83,1.55,1.83s1.87-.67,1.87-2.06V215H66v10.88H62.23v-1.69a3.61,3.61,0,0,1-3.48,1.94C56.63,226.12,55.06,224.83,55.06,222.08Z" fill="#fff"/><path d="M67.3,220.56v-.16a5.59,5.59,0,0,1,5.94-5.7c3,0,5.57,1.7,5.57,5.61v1H71.1a2.17,2.17,0,0,0,2.28,2.27c1.24,0,1.76-.56,1.91-1.29h3.52c-.33,2.45-2.24,3.85-5.55,3.85S67.3,224.12,67.3,220.56Zm7.87-1.37c-.07-1.31-.72-2-1.93-2a2.08,2.08,0,0,0-2.1,2Z" fill="#fff"/><path d="M20.11,237h3.75v1.62a3.87,3.87,0,0,1,3.42-1.91c2.56,0,4.64,1.91,4.64,5.63v.17c0,3.74-2.08,5.62-4.66,5.62a3.63,3.63,0,0,1-3.4-1.85v5.24H20.11Zm8,5.51v-.17c0-1.91-.84-2.82-2.16-2.82s-2.18,1-2.18,2.8v.17c0,1.85.82,2.79,2.18,2.79S28.1,244.29,28.1,242.5Z" fill="#fff"/><path d="M33.19,244.08V237H37v6.49c0,1.23.48,1.83,1.55,1.83s1.86-.67,1.86-2.06V237h3.76v10.88H40.36v-1.69a3.59,3.59,0,0,1-3.48,1.94C34.77,248.12,33.19,246.83,33.19,244.08Z" fill="#fff"/><path d="M45.44,242.56v-.16a5.58,5.58,0,0,1,5.93-5.7c3,0,5.58,1.7,5.58,5.61v1H49.23a2.18,2.18,0,0,0,2.29,2.27c1.23,0,1.76-.56,1.9-1.29H57c-.34,2.45-2.25,3.85-5.56,3.85S45.44,246.12,45.44,242.56Zm7.86-1.37c-.06-1.31-.71-2-1.93-2a2.09,2.09,0,0,0-2.1,2Z" fill="#fff"/><path d="M57.7,242.54v-.16c0-3.71,2.06-5.68,4.66-5.68a3.57,3.57,0,0,1,3.37,1.83v-6.32h3.75v15.66H65.73V246.1a3.7,3.7,0,0,1-3.42,2C59.78,248.12,57.7,246.31,57.7,242.54Zm8.14-.06v-.17c0-1.83-.78-2.8-2.16-2.8s-2.16.93-2.16,2.82v.17c0,1.83.81,2.77,2.11,2.77S65.84,244.33,65.84,242.48Z" fill="#fff"/><path d="M70.76,244.85c0-2.56,2.18-3.56,5.83-3.56h1V241c0-1-.25-1.72-1.45-1.72a1.35,1.35,0,0,0-1.49,1.29H71.18c.17-2.62,2.25-3.91,5.24-3.91s5,1.23,5,4.12v7.05H77.72V246.6a3.61,3.61,0,0,1-3.25,1.52C72.5,248.12,70.76,247.16,70.76,244.85Zm6.88-.79v-.66h-1c-1.51,0-2.18.29-2.18,1.18,0,.62.42,1,1.3,1C76.84,245.6,77.64,245,77.64,244.06Z" fill="#fff"/><path d="M82.46,244.41h3.46c.13.79.48,1.23,1.55,1.23s1.34-.35,1.34-.89-.52-.77-2-1c-2.94-.37-4.17-1.23-4.17-3.49,0-2.42,2.16-3.58,4.69-3.58,2.71,0,4.59.91,4.85,3.51h-3.4a1.22,1.22,0,0,0-1.4-1.08c-.82,0-1.24.36-1.24.85s.5.73,1.84.9c3,.37,4.51,1.16,4.51,3.49,0,2.58-1.93,3.75-5,3.75S82.54,246.83,82.46,244.41Z" fill="#fff"/><path d="M19.52,264.56v-.16a5.5,5.5,0,0,1,5.85-5.7c2.69,0,5.16,1.16,5.37,4.47H27.22a1.62,1.62,0,0,0-1.76-1.58c-1.32,0-2.1.93-2.1,2.77v.16c0,1.89.73,2.87,2.16,2.87a1.82,1.82,0,0,0,1.91-1.81H30.8c-.1,2.75-2,4.54-5.51,4.54C22,270.12,19.52,268.22,19.52,264.56Z" fill="#fff"/><path d="M31.43,264.56v-.16c0-3.5,2.62-5.7,6-5.7s6,2.14,6,5.59v.17c0,3.54-2.62,5.66-6,5.66S31.43,268.08,31.43,264.56Zm8.18-.06v-.17c0-1.83-.73-2.84-2.16-2.84s-2.18,1-2.18,2.8v.17c0,1.87.73,2.89,2.18,2.89S39.61,266.31,39.61,264.5Z" fill="#fff"/><path d="M44.75,259H48.5v1.75a3.85,3.85,0,0,1,3.6-2c2.12,0,3.59,1.31,3.59,4.1v7.07H51.94v-6.33c0-1.22-.49-1.83-1.58-1.83s-1.86.67-1.86,2.06v6.1H44.75Z" fill="#fff"/><path d="M58,266.37v-4.84H56.69V259H58v-2.27h3.75V259h2.16v2.54H61.77V266a1,1,0,0,0,1.11,1.14A3,3,0,0,0,64,267v2.82a7.7,7.7,0,0,1-2.08.32C59.4,270.12,58,268.93,58,266.37Z" fill="#fff"/><path d="M64.77,266.85c0-2.56,2.18-3.56,5.82-3.56h1V263c0-1-.25-1.72-1.44-1.72a1.34,1.34,0,0,0-1.49,1.29H65.19c.16-2.62,2.24-3.91,5.24-3.91s4.95,1.23,4.95,4.12v7.05H71.73V268.6a3.62,3.62,0,0,1-3.25,1.52C66.51,270.12,64.77,269.16,64.77,266.85Zm6.87-.79v-.66h-1c-1.51,0-2.18.29-2.18,1.18,0,.62.42,1,1.3,1C70.85,267.6,71.64,267,71.64,266.06Z" fill="#fff"/><path d="M77.2,259H81v2.16a3.46,3.46,0,0,1,3.54-2.31v3.48c-2.28-.07-3.54.64-3.54,2.39v5.16H77.2Z" fill="#fff"/><path d="M19.52,286.56v-.16a5.5,5.5,0,0,1,5.85-5.7c2.69,0,5.16,1.16,5.37,4.47H27.22a1.62,1.62,0,0,0-1.76-1.58c-1.32,0-2.1.93-2.1,2.77v.16c0,1.89.73,2.87,2.16,2.87a1.82,1.82,0,0,0,1.91-1.81H30.8c-.1,2.75-2,4.54-5.51,4.54C22,292.12,19.52,290.22,19.52,286.56Z" fill="#fff"/><path d="M31.45,288.85c0-2.56,2.18-3.56,5.83-3.56h1V285c0-1-.25-1.72-1.45-1.72a1.35,1.35,0,0,0-1.49,1.29H31.87c.17-2.62,2.25-3.91,5.24-3.91s5,1.23,5,4.12v7.05H38.41V290.6a3.61,3.61,0,0,1-3.25,1.52C33.19,292.12,31.45,291.16,31.45,288.85Zm6.88-.79v-.66h-1c-1.51,0-2.18.29-2.18,1.18,0,.62.42,1,1.3,1C37.53,289.6,38.33,289,38.33,288.06Z" fill="#fff"/><path d="M43.34,286.54v-.16c0-3.71,2-5.68,4.65-5.68a3.57,3.57,0,0,1,3.38,1.83v-6.32h3.75v15.66H51.37V290.1a3.71,3.71,0,0,1-3.42,2C45.42,292.12,43.34,290.31,43.34,286.54Zm8.13-.06v-.17c0-1.83-.77-2.8-2.15-2.8s-2.16.93-2.16,2.82v.17c0,1.83.81,2.77,2.11,2.77S51.47,288.33,51.47,286.48Z" fill="#fff"/><path d="M56.4,288.85c0-2.56,2.18-3.56,5.83-3.56h1.05V285c0-1-.25-1.72-1.45-1.72a1.34,1.34,0,0,0-1.49,1.29H56.82c.17-2.62,2.24-3.91,5.24-3.91s5,1.23,5,4.12v7.05H63.36V290.6a3.61,3.61,0,0,1-3.25,1.52C58.14,292.12,56.4,291.16,56.4,288.85Zm6.88-.79v-.66h-1c-1.51,0-2.18.29-2.18,1.18,0,.62.42,1,1.3,1C62.48,289.6,63.28,289,63.28,288.06Z" fill="#fff"/><path d="M72,288.85c0-2.56,2.18-3.56,5.83-3.56H78.9V285c0-1-.25-1.72-1.45-1.72A1.34,1.34,0,0,0,76,284.61H72.44c.17-2.62,2.24-3.91,5.24-3.91s4.95,1.23,4.95,4.12v7.05H79V290.6a3.61,3.61,0,0,1-3.25,1.52C73.76,292.12,72,291.16,72,288.85Zm6.88-.79v-.66h-1c-1.51,0-2.18.29-2.18,1.18,0,.62.42,1,1.3,1C78.1,289.6,78.9,289,78.9,288.06Z" fill="#fff"/><path d="M84.45,281h3.76v1.75a3.85,3.85,0,0,1,3.6-2c2.12,0,3.59,1.31,3.59,4.1v7.07H91.64v-6.33c0-1.22-.48-1.83-1.57-1.83s-1.86.67-1.86,2.06v6.1H84.45Zm4.34-2c-.33,0-.58.27-.65.67h-2c.14-2.19,1.11-3.25,2.41-3.25,1.13,0,1.8.71,2.49.71.38,0,.59-.27.68-.67h2c-.17,2.17-1.22,3.23-2.47,3.23S89.44,279,88.79,279Z" fill="#fff"/><path d="M96.63,286.56v-.16c0-3.5,2.62-5.7,6-5.7s6,2.14,6,5.59v.17c0,3.54-2.62,5.66-6,5.66S96.63,290.08,96.63,286.56Zm8.18-.06v-.17c0-1.83-.73-2.84-2.16-2.84s-2.18,1-2.18,2.8v.17c0,1.87.73,2.89,2.18,2.89S104.81,288.31,104.81,286.5Z" fill="#fff"/><path d="M109.34,290a2.09,2.09,0,0,1,2.14-2.11,2.11,2.11,0,1,1,0,4.21A2.08,2.08,0,0,1,109.34,290Z" fill="#fff"/></g></g></g></svg>