<?xml version="1.0" encoding="utf-8"?>
<!-- Generator: Adobe Illustrator 23.1.0, SVG Export Plug-In . SVG Version: 6.00 Build 0)  -->
<svg version="1.1" id="Layer_1" xmlns="http://www.w3.org/2000/svg" xmlns:xlink="http://www.w3.org/1999/xlink" x="0px" y="0px"
	 viewBox="0 0 729 91" style="enable-background:new 0 0 729 91;" xml:space="preserve">
<style type="text/css">
	.st0{fill:none;}
	.st1{fill:#FFFFFF;}
</style>
<title>Asset 13</title>
<g>
	<g id="Layer_23">
		<rect class="st0" width="728" height="90"/>
	</g>
	<g id="Know_the_price._No_surprises.">
		<path class="st1" d="M122.7,32.7h6.5v8.9l6.8-8.9h6.7l-8.3,10.5l8.7,12.1h-7.5l-6.5-9.4v9.4h-6.5L122.7,32.7z"/>
		<path class="st1" d="M144.4,38.8h5.6v2.6c1.1-2,3.2-3.2,5.4-3.1c3.2,0,5.4,2,5.4,6.2v10.7h-5.6v-9.6c0-1.8-0.7-2.8-2.4-2.8
			s-2.8,1-2.8,3.1v9.2h-5.6L144.4,38.8z"/>
		<path class="st1" d="M162.6,47.2v-0.3c0-5.3,3.9-8.6,9-8.6s9,3.2,9,8.5V47c0,5.3-3.9,8.6-9,8.6S162.6,52.5,162.6,47.2z
			 M174.9,47.1v-0.3c0-2.8-1.1-4.3-3.2-4.3s-3.3,1.5-3.3,4.3V47c0,2.8,1.1,4.4,3.3,4.4S174.9,49.8,174.9,47.1z"/>
		<path class="st1" d="M180.7,38.8h5.9l2.4,9.9l2.8-9.9h4.5l2.4,9.9l2.7-9.9h5.4l-5.2,16.5h-5.4l-2.4-9.2l-2.6,9.2h-5.5L180.7,38.8z
			"/>
		<path class="st1" d="M214.8,49.9v-7.3h-2v-3.8h2v-3.4h5.6v3.4h3.3v3.8h-3.3v6.8c-0.1,0.8,0.4,1.6,1.2,1.7c0.1,0,0.3,0,0.4,0
			c0.5,0,1.1-0.1,1.6-0.3v4.3c-1,0.3-2.1,0.5-3.1,0.5C216.8,55.6,214.8,53.8,214.8,49.9z"/>
		<path class="st1" d="M225.8,31.5h5.6v9.9c1.1-2,3.2-3.2,5.4-3.1c3.2,0,5.4,2,5.4,6.2v10.7h-5.6v-9.6c0-1.8-0.7-2.8-2.4-2.8
			s-2.8,1-2.8,3.1v9.2h-5.6V31.5z"/>
		<path class="st1" d="M244.1,47.2v-0.3c0-5.3,3.9-8.6,8.9-8.6c4.5,0,8.4,2.6,8.4,8.5v1.5h-11.6c0.2,2.2,1.4,3.4,3.4,3.4
			c1.9,0,2.6-0.8,2.9-2h5.3c-0.5,3.7-3.4,5.8-8.3,5.8C247.9,55.6,244.1,52.6,244.1,47.2z M255.9,45.1c-0.1-2-1.1-3.1-2.9-3.1
			s-2.9,1.1-3.1,3.1H255.9z"/>
		<path class="st1" d="M269,38.8h5.6v2.5c1.1-1.8,3-2.9,5.1-2.9c3.9,0,7,2.9,7,8.5v0.3c0,5.7-3.1,8.5-7,8.5c-2.1,0.1-4.1-1-5.1-2.8
			v7.9h-5.6L269,38.8z M281,47.1v-0.3c0-2.9-1.3-4.3-3.2-4.3s-3.3,1.5-3.3,4.3v0.3c0,2.8,1.2,4.2,3.3,4.2S281,49.8,281,47.1z"/>
		<path class="st1" d="M288.8,38.8h5.6V42c0.8-2.2,3-3.7,5.3-3.5v5.3c-3.4-0.1-5.3,1-5.3,3.6v7.8h-5.6V38.8z"/>
		<path class="st1" d="M301.7,34.3c-0.1-1.7,1.2-3.2,2.9-3.3c1.7-0.1,3.2,1.2,3.3,2.9s-1.2,3.2-2.9,3.3c-0.1,0-0.2,0-0.2,0
			C303.2,37.2,301.8,36,301.7,34.3C301.7,34.3,301.7,34.3,301.7,34.3z M302,38.8h5.6v16.5H302V38.8z"/>
		<path class="st1" d="M309.8,47.2v-0.3c0-5.5,3.9-8.6,8.8-8.6c4,0,7.8,1.8,8.1,6.8h-5.3c0-1.3-1.1-2.4-2.5-2.4c-0.1,0-0.1,0-0.2,0
			c-2,0-3.1,1.4-3.1,4.2v0.3c0,2.9,1.1,4.3,3.3,4.3c1.5,0.1,2.8-1.1,2.9-2.6c0,0,0-0.1,0-0.1h5.1c-0.1,4.2-3,6.9-8.3,6.9
			C313.5,55.6,309.8,52.7,309.8,47.2z"/>
		<path class="st1" d="M327.7,47.2v-0.3c0-5.3,3.9-8.6,8.9-8.6c4.5,0,8.4,2.6,8.4,8.5v1.5h-11.6c0.2,2.2,1.4,3.4,3.4,3.4
			c1.9,0,2.6-0.8,2.9-2h5.3c-0.5,3.7-3.4,5.8-8.3,5.8C331.5,55.6,327.7,52.6,327.7,47.2z M339.5,45.1c-0.1-2-1.1-3.1-2.9-3.1
			s-2.9,1.1-3.1,3.1H339.5z"/>
		<path class="st1" d="M346.5,52.4c0-1.7,1.4-3.2,3.1-3.2c0,0,0.1,0,0.1,0c1.8-0.1,3.3,1.2,3.4,3c0.1,1.8-1.2,3.3-3,3.4
			c-0.1,0-0.2,0-0.4,0c-1.7,0-3.2-1.3-3.2-3.1C346.5,52.4,346.5,52.4,346.5,52.4z"/>
		<path class="st1" d="M361.9,32.7h7.3l7.2,12.7V32.7h5.6v22.5h-6.2l-8.2-14.1v14.1h-5.7V32.7z"/>
		<path class="st1" d="M384.3,47.2v-0.3c0-5.3,3.9-8.6,9-8.6s9,3.2,9,8.5V47c0,5.3-3.9,8.6-9,8.6S384.3,52.5,384.3,47.2z
			 M396.6,47.1v-0.3c0-2.8-1.1-4.3-3.2-4.3s-3.3,1.5-3.3,4.3V47c0,2.8,1.1,4.4,3.3,4.4S396.6,49.8,396.6,47.1z"/>
		<path class="st1" d="M409,50h5.2c0.2,1.2,0.7,1.9,2.3,1.9c1.4,0,2-0.5,2-1.3s-0.8-1.2-3.1-1.5c-4.4-0.6-6.3-1.8-6.3-5.3
			c0-3.7,3.3-5.4,7.1-5.4c4.1,0,6.9,1.4,7.3,5.3h-5.1c-0.1-1-1-1.8-2-1.7c0,0-0.1,0-0.1,0c-1.2,0-1.9,0.5-1.9,1.3s0.8,1.1,2.8,1.4
			c4.6,0.6,6.8,1.8,6.8,5.3c0,3.9-2.9,5.7-7.5,5.7S409.1,53.6,409,50z"/>
		<path class="st1" d="M425.7,49.5V38.8h5.6v9.8c0,1.9,0.7,2.8,2.3,2.8s2.8-1,2.8-3.1v-9.5h5.6v16.5h-5.6v-2.6
			c-1,1.9-3.1,3.1-5.2,2.9C428.1,55.6,425.7,53.6,425.7,49.5z"/>
		<path class="st1" d="M445,38.8h5.6V42c0.8-2.2,3-3.7,5.3-3.5v5.3c-3.4-0.1-5.3,1-5.3,3.6v7.8H445V38.8z"/>
		<path class="st1" d="M458,38.8h5.6v2.5c1.1-1.8,3-2.9,5.1-2.9c3.8,0,7,2.9,7,8.5v0.3c0,5.7-3.1,8.5-7,8.5c-2.1,0.1-4.1-1-5.1-2.8
			v7.9H458V38.8z M470,47.1v-0.3c0-2.9-1.3-4.3-3.3-4.3s-3.3,1.5-3.3,4.3v0.3c0,2.8,1.2,4.2,3.3,4.2S470,49.8,470,47.1z"/>
		<path class="st1" d="M477.8,38.8h5.6V42c0.8-2.2,3-3.7,5.3-3.5v5.3c-3.4-0.1-5.3,1-5.3,3.6v7.8h-5.6V38.8z"/>
		<path class="st1" d="M490.6,34.3c0-1.6,1.3-2.9,2.9-2.9c0,0,0.1,0,0.1,0c1.6-0.1,3,1.1,3.2,2.7c0.1,1.6-1.1,3-2.7,3.2
			c-0.2,0-0.3,0-0.5,0c-1.6,0.1-3-1.1-3.1-2.7C490.7,34.4,490.7,34.3,490.6,34.3z M490.9,38.8h5.6v16.5h-5.6V38.8z"/>
		<path class="st1" d="M498.5,50h5.2c0.2,1.2,0.7,1.9,2.3,1.9c1.4,0,2-0.5,2-1.3s-0.8-1.2-3-1.5c-4.4-0.6-6.3-1.8-6.3-5.3
			c0-3.7,3.2-5.4,7-5.4c4.1,0,6.9,1.4,7.3,5.3h-5.1c-0.1-1-1-1.7-2-1.6c0,0,0,0,0,0c-1.2,0-1.9,0.5-1.9,1.3s0.8,1.1,2.8,1.4
			c4.6,0.6,6.8,1.8,6.8,5.3c0,3.9-2.9,5.7-7.5,5.7S498.6,53.6,498.5,50z"/>
		<path class="st1" d="M514.6,47.2v-0.3c0-5.3,3.9-8.6,8.9-8.6c4.5,0,8.4,2.6,8.4,8.5v1.5h-11.6c0.2,2.2,1.4,3.4,3.4,3.4
			c1.9,0,2.7-0.8,2.9-2h5.3c-0.5,3.7-3.4,5.8-8.3,5.8C518.3,55.6,514.6,52.6,514.6,47.2z M526.4,45.1c-0.1-2-1.1-3.1-2.9-3.1
			s-2.9,1.1-3.2,3.1H526.4z"/>
		<path class="st1" d="M532.9,50h5.2c0.2,1.2,0.7,1.9,2.3,1.9c1.4,0,2-0.5,2-1.3s-0.8-1.2-3-1.5c-4.4-0.6-6.3-1.8-6.3-5.3
			c0-3.7,3.3-5.4,7.1-5.4c4.1,0,6.9,1.4,7.3,5.3h-5.1c-0.1-1-1-1.8-2-1.7c0,0-0.1,0-0.1,0c-1.2,0-1.9,0.5-1.9,1.3s0.8,1.1,2.8,1.4
			c4.6,0.6,6.8,1.8,6.8,5.3c0,3.9-2.9,5.7-7.5,5.7S533,53.6,532.9,50z"/>
		<path class="st1" d="M549.5,52.4c0-1.7,1.4-3.2,3.1-3.2c0,0,0.1,0,0.1,0c1.8-0.1,3.3,1.2,3.4,3c0.1,1.8-1.2,3.3-3,3.4
			c-0.1,0-0.2,0-0.4,0c-1.7,0-3.2-1.3-3.2-3.1C549.5,52.5,549.5,52.4,549.5,52.4z"/>
	</g>
</g>
</svg>
