<svg xmlns="http://www.w3.org/2000/svg" viewBox="0 0 729 91"><title>Asset 13</title><g id="Layer_2" data-name="Layer 2"><g id="Layer_23" data-name="Layer 23"><rect x="0.5" y="0.5" width="728" height="90" fill="none" stroke="#000" stroke-miterlimit="10"/></g><g id="Know_the_price._No_surprises." data-name="Know the price. No surprises."><path d="M122.67,32.7h6.49v8.91l6.77-8.91h6.74l-8.25,10.46,8.69,12.06h-7.46l-6.49-9.42v9.42h-6.49Z" fill="#fff"/><path d="M144.35,38.75H150v2.64a5.81,5.81,0,0,1,5.42-3.08c3.18,0,5.39,2,5.39,6.2V55.22h-5.64V45.64c0-1.85-.73-2.77-2.36-2.77S150,43.88,150,46v9.23h-5.63Z" fill="#fff"/><path d="M162.65,47.19v-.25c0-5.29,3.93-8.63,9-8.63s9,3.24,9,8.47V47c0,5.35-3.94,8.57-9,8.57S162.65,52.51,162.65,47.19Zm12.28-.1v-.25c0-2.77-1.1-4.31-3.24-4.31s-3.28,1.48-3.28,4.25V47c0,2.84,1.1,4.38,3.28,4.38S174.93,49.83,174.93,47.09Z" fill="#fff"/><path d="M180.73,38.75h5.89L189,48.61l2.77-9.86h4.54l2.45,9.86,2.68-9.86h5.36l-5.23,16.47h-5.39L193.73,46l-2.55,9.2H185.7Z" fill="#fff"/><path d="M214.75,49.93V42.59h-2V38.75h2V35.31h5.63v3.44h3.25v3.84h-3.25v6.8a1.5,1.5,0,0,0,1.67,1.73,4.28,4.28,0,0,0,1.61-.28v4.28a11.74,11.74,0,0,1-3.12.48C216.83,55.6,214.75,53.8,214.75,49.93Z" fill="#fff"/><path d="M225.77,31.5h5.64v9.89a5.81,5.81,0,0,1,5.42-3.08c3.18,0,5.38,2,5.38,6.2V55.22h-5.64V45.64c0-1.85-.72-2.77-2.36-2.77s-2.8,1-2.8,3.12v9.23h-5.64Z" fill="#fff"/><path d="M244.07,47.19v-.25c0-5.29,3.94-8.63,8.92-8.63,4.5,0,8.37,2.58,8.37,8.5v1.48H249.77c.16,2.17,1.42,3.43,3.44,3.43,1.85,0,2.64-.85,2.86-1.95h5.29c-.5,3.72-3.37,5.83-8.34,5.83C247.85,55.6,244.07,52.57,244.07,47.19Zm11.81-2.08c-.09-2-1.07-3.09-2.89-3.09s-2.87,1.11-3.15,3.09Z" fill="#fff"/><path d="M269.05,38.75h5.64V41.2a5.8,5.8,0,0,1,5.13-2.89c3.85,0,7,2.89,7,8.53v.25c0,5.67-3.11,8.51-7,8.51a5.43,5.43,0,0,1-5.1-2.81v7.94h-5.64Zm12,8.34v-.25c0-2.9-1.26-4.28-3.24-4.28s-3.28,1.48-3.28,4.25v.25c0,2.81,1.23,4.22,3.28,4.22S281.05,49.8,281.05,47.09Z" fill="#fff"/><path d="M288.83,38.75h5.64V42a5.19,5.19,0,0,1,5.32-3.49v5.26c-3.43-.1-5.32,1-5.32,3.62v7.81h-5.64Z" fill="#fff"/><path d="M301.72,34.28a3.11,3.11,0,1,1,3.08,2.89A2.94,2.94,0,0,1,301.72,34.28Zm.28,4.47h5.64V55.22H302Z" fill="#fff"/><path d="M309.78,47.19v-.25c0-5.48,3.94-8.63,8.79-8.63,4,0,7.75,1.76,8.06,6.77h-5.29a2.44,2.44,0,0,0-2.65-2.4c-2,0-3.15,1.42-3.15,4.19v.25c0,2.87,1.11,4.35,3.25,4.35a2.73,2.73,0,0,0,2.86-2.74h5.07c-.15,4.16-3,6.87-8.28,6.87C313.53,55.6,309.78,52.73,309.78,47.19Z" fill="#fff"/><path d="M327.67,47.19v-.25c0-5.29,3.94-8.63,8.92-8.63,4.5,0,8.37,2.58,8.37,8.5v1.48H333.37c.16,2.17,1.42,3.43,3.44,3.43,1.85,0,2.64-.85,2.86-1.95H345c-.5,3.72-3.37,5.83-8.34,5.83C331.45,55.6,327.67,52.57,327.67,47.19Zm11.81-2.08c-.09-2-1.07-3.09-2.89-3.09s-2.87,1.11-3.15,3.09Z" fill="#fff"/><path d="M346.54,52.38a3.14,3.14,0,0,1,3.21-3.18,3.19,3.19,0,1,1,0,6.37A3.15,3.15,0,0,1,346.54,52.38Z" fill="#fff"/><path d="M361.94,32.7h7.28l7.21,12.69V32.7h5.64V55.22h-6.24l-8.22-14.14V55.22h-5.67Z" fill="#fff"/><path d="M384.34,47.19v-.25c0-5.29,3.94-8.63,9-8.63s9,3.24,9,8.47V47c0,5.35-3.94,8.57-9,8.57S384.34,52.51,384.34,47.19Zm12.28-.1v-.25c0-2.77-1.1-4.31-3.24-4.31S390.1,44,390.1,46.78V47c0,2.84,1.11,4.38,3.28,4.38S396.62,49.83,396.62,47.09Z" fill="#fff"/><path d="M409,50h5.2c.19,1.2.72,1.86,2.33,1.86,1.39,0,2-.54,2-1.35s-.79-1.17-3.06-1.49c-4.41-.56-6.27-1.85-6.27-5.29,0-3.65,3.25-5.41,7.06-5.41,4.06,0,6.9,1.38,7.27,5.32h-5.1A1.84,1.84,0,0,0,416.31,42c-1.23,0-1.86.54-1.86,1.29s.76,1.11,2.77,1.36c4.57.56,6.78,1.76,6.78,5.29,0,3.9-2.9,5.67-7.47,5.67S409.1,53.64,409,50Z" fill="#fff"/><path d="M425.7,49.49V38.75h5.64v9.82c0,1.86.72,2.78,2.33,2.78s2.8-1,2.8-3.12V38.75h5.64V55.22h-5.64V52.67a5.42,5.42,0,0,1-5.23,2.93C428.06,55.6,425.7,53.64,425.7,49.49Z" fill="#fff"/><path d="M445,38.75h5.64V42a5.19,5.19,0,0,1,5.32-3.49v5.26c-3.44-.1-5.32,1-5.32,3.62v7.81H445Z" fill="#fff"/><path d="M458,38.75h5.63V41.2a5.83,5.83,0,0,1,5.14-2.89c3.84,0,7,2.89,7,8.53v.25c0,5.67-3.12,8.51-7,8.51a5.45,5.45,0,0,1-5.11-2.81v7.94H458Zm12,8.34v-.25c0-2.9-1.26-4.28-3.25-4.28s-3.27,1.48-3.27,4.25v.25c0,2.81,1.23,4.22,3.27,4.22S470,49.8,470,47.09Z" fill="#fff"/><path d="M477.77,38.75h5.64V42a5.19,5.19,0,0,1,5.32-3.49v5.26c-3.44-.1-5.32,1-5.32,3.62v7.81h-5.64Z" fill="#fff"/><path d="M490.65,34.28a2.94,2.94,0,0,1,3.09-2.93,2.92,2.92,0,1,1,0,5.82A2.92,2.92,0,0,1,490.65,34.28Zm.29,4.47h5.63V55.22h-5.63Z" fill="#fff"/><path d="M498.5,50h5.19c.19,1.2.73,1.86,2.33,1.86,1.39,0,2-.54,2-1.35S507.25,49.33,505,49c-4.41-.56-6.26-1.85-6.26-5.29,0-3.65,3.24-5.41,7-5.41,4.06,0,6.9,1.38,7.28,5.32h-5.11A1.84,1.84,0,0,0,505.83,42c-1.22,0-1.85.54-1.85,1.29s.75,1.11,2.77,1.36c4.56.56,6.77,1.76,6.77,5.29,0,3.9-2.9,5.67-7.47,5.67S498.62,53.64,498.5,50Z" fill="#fff"/><path d="M514.56,47.19v-.25c0-5.29,3.94-8.63,8.91-8.63,4.51,0,8.38,2.58,8.38,8.5v1.48H520.26c.16,2.17,1.42,3.43,3.43,3.43,1.86,0,2.65-.85,2.87-1.95h5.29c-.5,3.72-3.37,5.83-8.35,5.83C518.34,55.6,514.56,52.57,514.56,47.19Zm11.81-2.08c-.09-2-1.07-3.09-2.9-3.09s-2.86,1.11-3.15,3.09Z" fill="#fff"/><path d="M532.86,50h5.2c.19,1.2.72,1.86,2.33,1.86,1.38,0,2-.54,2-1.35s-.78-1.17-3-1.49c-4.41-.56-6.27-1.85-6.27-5.29,0-3.65,3.25-5.41,7.06-5.41,4.06,0,6.89,1.38,7.27,5.32h-5.1A1.84,1.84,0,0,0,540.2,42c-1.23,0-1.86.54-1.86,1.29s.76,1.11,2.77,1.36c4.57.56,6.77,1.76,6.77,5.29,0,3.9-2.89,5.67-7.46,5.67S533,53.64,532.86,50Z" fill="#fff"/><path d="M549.49,52.38a3.15,3.15,0,0,1,3.22-3.18,3.19,3.19,0,1,1,0,6.37A3.15,3.15,0,0,1,549.49,52.38Z" fill="#fff"/></g></g></svg>