<svg xmlns="http://www.w3.org/2000/svg" viewBox="0 0 300 600"><title>H26</title><g id="Layer_2" data-name="Layer 2"><g id="Rect"><rect width="300" height="600" fill="none"/></g><g id="H26"><g id="Get_your_max_refund_in_about_an_hour." data-name="Get your max refund in about an hour."><path d="M21.09,69v-.54c0-14.7,10.79-24.61,25.29-24.61,11.4,0,21.52,5.19,22.46,17.73H55.15c-.67-4.52-3.57-6.88-8.7-6.88-6.81,0-10.93,5.26-10.93,14v.54c0,7.83,2.9,13.9,11.27,13.9,6.74,0,9.3-3.44,9.57-7.29h-9V66.15H70v5.93C70,84.36,62,93.6,46.38,93.6,30,93.6,21.09,83.41,21.09,69Z" fill="#fff"/><path d="M72.76,75.59v-.54c0-11.33,8.43-18.48,19.08-18.48,9.65,0,17.94,5.53,17.94,18.21V78H85c.34,4.65,3,7.35,7.36,7.35,4,0,5.66-1.82,6.13-4.18h11.33c-1.08,8-7.21,12.48-17.87,12.48C80.85,93.6,72.76,87.12,72.76,75.59Zm25.29-4.45c-.2-4.25-2.3-6.61-6.21-6.61-3.64,0-6.13,2.36-6.74,6.61Z" fill="#fff"/><path d="M115.59,81.46V65.74h-4.25V57.52h4.25V50.16h12.07v7.36h7v8.22h-7V80.31c0,2.57,1.28,3.71,3.57,3.71a9.09,9.09,0,0,0,3.44-.61v9.18a25.49,25.49,0,0,1-6.67,1C120,93.6,115.59,89.75,115.59,81.46Z" fill="#fff"/><path d="M33.64,156.66,19.54,125H32.62l7.29,18.81L46.65,125H58.19L39.3,172H27.77Z" fill="#fff"/><path d="M57.51,143v-.54c0-11.33,8.43-18.48,19.36-18.48s19.22,7,19.22,18.14v.54c0,11.47-8.43,18.35-19.29,18.35S57.51,154.44,57.51,143Zm26.31-.2v-.54c0-5.94-2.36-9.24-6.95-9.24s-7,3.17-7,9.1v.54c0,6.07,2.36,9.38,7,9.38S83.82,148.71,83.82,142.84Z" fill="#fff"/><path d="M100.07,148V125h12.08v21c0,4,1.55,5.93,5,5.93,3.64,0,6-2.15,6-6.67V125h12.07v35.27H123.14v-5.46c-1.89,3.64-5.33,6.27-11.2,6.27C105.13,161.05,100.07,156.87,100.07,148Z" fill="#fff"/><path d="M141.35,125h12.07v7c2.23-5.26,5.94-7.55,11.4-7.49v11.27c-7.35-.21-11.4,2.09-11.4,7.75v16.73H141.35Z" fill="#fff"/><path d="M22.57,192.42H34.65v5.39a12.33,12.33,0,0,1,11.06-6.34c4.65,0,7.89,2,9.57,5.87A14,14,0,0,1,67,191.47c6.68,0,11.54,4.32,11.54,13.15v23.07H66.41v-21c0-3.58-1.75-5.33-4.52-5.33-3.23,0-5.39,2.09-5.39,5.93v20.44H44.56v-21c0-3.58-1.75-5.33-4.52-5.33-3.23,0-5.39,2.09-5.39,5.93v20.44H22.57Z" fill="#fff"/><path d="M82.34,217.91c0-8.3,7-11.53,18.74-11.53h3.38v-.81c0-3.37-.81-5.6-4.66-5.6-3.3,0-4.52,2-4.79,4.18H83.68c.54-8.5,7.22-12.68,16.87-12.68s15.91,4,15.91,13.36v22.86H104.73v-4.11c-1.69,2.56-4.79,4.92-10.46,4.92C87.93,228.5,82.34,225.4,82.34,217.91Zm22.12-2.56v-2.16h-3.17c-4.86,0-7,.94-7,3.84,0,2,1.35,3.31,4.18,3.31C101.89,220.34,104.46,218.38,104.46,215.35Z" fill="#fff"/><path d="M131.23,209.75l-11-17.33h13.89l5.47,9.3,5.33-9.3h12.41L146.21,208.8l12.21,18.89h-13.9l-6.27-10.52-6.41,10.52H119.5Z" fill="#fff"/><path d="M22.57,259.87H34.65v7c2.22-5.26,5.93-7.55,11.39-7.49v11.27c-7.35-.21-11.39,2.09-11.39,7.75v16.73H22.57Z" fill="#fff"/><path d="M48.21,277.94v-.54c0-11.33,8.43-18.48,19.08-18.48,9.65,0,17.94,5.53,17.94,18.21v3.17H60.41c.34,4.66,3,7.35,7.35,7.35,4,0,5.67-1.82,6.14-4.18H85.23C84.15,291.43,78,296,67.36,296,56.3,296,48.21,289.47,48.21,277.94Zm25.29-4.45c-.21-4.25-2.3-6.61-6.21-6.61-3.64,0-6.13,2.36-6.74,6.61Z" fill="#fff"/><path d="M91.24,268.09H86.79v-8.22h4.45v-3.11c0-8.76,5.46-12.95,13.82-12.95a21.18,21.18,0,0,1,5.53.75v8.83a11,11,0,0,0-3.3-.47c-2.83,0-4.05,1.55-4.05,3.84v3.11h7.15v8.22h-7.15v27.05h-12Z" fill="#fff"/><path d="M114.17,282.86v-23h12.07v21c0,4,1.55,5.93,5,5.93,3.65,0,6-2.15,6-6.67v-20.3h12.07v35.27H137.24v-5.46c-1.89,3.64-5.33,6.27-11.2,6.27C119.23,296,114.17,291.77,114.17,282.86Z" fill="#fff"/><path d="M155.45,259.87h12.07v5.66c1.89-3.64,5.73-6.61,11.6-6.61,6.81,0,11.53,4.25,11.53,13.29v22.93H178.58v-20.5c0-4-1.55-5.94-5.06-5.94s-6,2.16-6,6.68v19.76H155.45Z" fill="#fff"/><path d="M194.77,277.87v-.54c0-12,6.61-18.41,15-18.41,5.53,0,8.84,2.36,10.86,5.94V244.35h12.08v50.79H220.6v-5.73a11.88,11.88,0,0,1-11,6.54C201.45,296,194.77,290.08,194.77,277.87Zm26.17-.2v-.54c0-5.93-2.5-9.1-6.95-9.1s-6.94,3-6.94,9.17v.54c0,5.93,2.63,9,6.81,9C218.24,286.71,220.94,283.67,220.94,277.67Z" fill="#fff"/><path d="M22.3,317.74a6.3,6.3,0,0,1,6.61-6.27,6.36,6.36,0,0,1,6.68,6.27c0,3.57-2.9,6.2-6.68,6.2S22.3,321.31,22.3,317.74Zm.61,9.58H35v35.27H22.91Z" fill="#fff"/><path d="M41.46,327.32H53.53V333c1.89-3.64,5.74-6.61,11.6-6.61,6.81,0,11.54,4.25,11.54,13.29v22.93H64.59v-20.5c0-4-1.55-5.94-5.05-5.94s-6,2.16-6,6.68v19.76H41.46Z" fill="#fff"/><path d="M92.79,352.81c0-8.3,7-11.53,18.75-11.53h3.37v-.81c0-3.37-.81-5.6-4.65-5.6-3.31,0-4.52,2-4.79,4.18H94.14c.54-8.5,7.21-12.68,16.86-12.68s15.92,4,15.92,13.36v22.86H115.18v-4.11c-1.69,2.56-4.79,4.92-10.45,4.92C98.39,363.4,92.79,360.3,92.79,352.81Zm22.12-2.56v-2.16h-3.17c-4.86,0-7,.94-7,3.84,0,2,1.35,3.31,4.18,3.31C112.35,355.24,114.91,353.28,114.91,350.25Z" fill="#fff"/><path d="M144.86,357.13v5.46H132.79V311.8h12.07v20.78a12.42,12.42,0,0,1,11-6.21c8.23,0,14.91,6.21,14.91,18.28v.54c0,12.14-6.68,18.21-15,18.21C150.52,363.4,146.61,360.9,144.86,357.13Zm13.62-11.94v-.54c0-6.21-2.7-9.17-6.94-9.17s-7,3.17-7,9.1v.54c0,6,2.63,9,7,9S158.48,351,158.48,345.19Z" fill="#fff"/><path d="M173.25,345.39v-.54c0-11.33,8.44-18.48,19.36-18.48s19.22,6.95,19.22,18.14v.54c0,11.47-8.43,18.35-19.29,18.35S173.25,356.79,173.25,345.39Zm26.31-.2v-.54c0-5.94-2.36-9.24-6.95-9.24s-7,3.17-7,9.1v.54c0,6.07,2.36,9.38,7,9.38S199.56,351.06,199.56,345.19Z" fill="#fff"/><path d="M215.82,350.31v-23h12.07v21c0,4,1.55,5.93,5,5.93,3.64,0,6-2.15,6-6.67v-20.3H251v35.27H238.88v-5.46c-1.89,3.64-5.33,6.27-11.19,6.27C220.87,363.4,215.82,359.22,215.82,350.31Z" fill="#fff"/><path d="M258.71,351.26V335.54h-4.25v-8.22h4.25V320h12.08v7.36h6.94v8.22h-6.94v14.57c0,2.56,1.28,3.71,3.57,3.71a9.09,9.09,0,0,0,3.44-.61v9.18a25.5,25.5,0,0,1-6.68,1C263.16,363.4,258.71,359.55,258.71,351.26Z" fill="#fff"/><path d="M20.55,420.26c0-8.3,7-11.53,18.75-11.53h3.37v-.81c0-3.38-.81-5.6-4.65-5.6-3.31,0-4.52,2-4.79,4.18H21.9c.54-8.5,7.22-12.68,16.86-12.68s15.92,4,15.92,13.36V430H42.94v-4.12c-1.68,2.57-4.79,4.93-10.45,4.93C26.15,430.85,20.55,427.75,20.55,420.26Zm22.12-2.56v-2.16H39.5c-4.85,0-7,.94-7,3.84,0,2,1.35,3.31,4.18,3.31C40.11,422.69,42.67,420.73,42.67,417.7Z" fill="#fff"/><path d="M60.55,394.77H72.62v5.66c1.89-3.64,5.73-6.61,11.6-6.61,6.81,0,11.53,4.25,11.53,13.29V430H83.68v-20.5c0-4-1.55-5.94-5.06-5.94s-6,2.16-6,6.68V430H60.55Z" fill="#fff"/><path d="M113.9,379.25H126v21.18c1.89-3.64,5.74-6.61,11.6-6.61,6.81,0,11.54,4.25,11.54,13.29V430H137v-20.5c0-4-1.55-5.94-5.06-5.94s-6,2.16-6,6.68V430H113.9Z" fill="#fff"/><path d="M153.09,412.84v-.54c0-11.33,8.43-18.48,19.35-18.48s19.23,6.95,19.23,18.14v.54c0,11.47-8.43,18.35-19.29,18.35S153.09,424.24,153.09,412.84Zm26.3-.2v-.54c0-5.94-2.36-9.24-6.95-9.24s-7,3.17-7,9.1v.54c0,6.07,2.36,9.38,7,9.38S179.39,418.51,179.39,412.64Z" fill="#fff"/><path d="M195.65,417.76v-23h12.07v21c0,4,1.55,5.93,5,5.93,3.64,0,6-2.16,6-6.67v-20.3h12.08V430H218.71v-5.46c-1.88,3.64-5.32,6.27-11.19,6.27C200.71,430.85,195.65,426.67,195.65,417.76Z" fill="#fff"/><path d="M236.93,394.77H249v7c2.22-5.26,5.93-7.55,11.4-7.49v11.27c-7.35-.21-11.4,2.09-11.4,7.75V430H236.93Z" fill="#fff"/><path d="M260.26,424a6.72,6.72,0,0,1,6.88-6.81,6.82,6.82,0,1,1,0,13.62A6.72,6.72,0,0,1,260.26,424Z" fill="#fff"/></g></g></g></svg>