<svg xmlns="http://www.w3.org/2000/svg" viewBox="0 0 300 600"><title>Asset 11</title><g id="Layer_2" data-name="Layer 2"><g id="Rect"><rect width="300" height="600" fill="none"/></g><g id="You_could_get_the_max_refund_in_about_an_hour." data-name="You could get the max refund in about an hour."><path d="M33.46,66.82l-14-24.54H32.86l7.26,14.46,7.26-14.46H59.14L45.82,66.82V85.18H33.46Z" fill="#fff"/><path d="M54.64,69.88V69.4C54.64,59.32,62.14,53,71.86,53S89,59.14,89,69.1v.48c0,10.2-7.5,16.32-17.16,16.32S54.64,80,54.64,69.88ZM78,69.7v-.48c0-5.28-2.1-8.22-6.18-8.22s-6.24,2.82-6.24,8.1v.48c0,5.4,2.1,8.34,6.24,8.34S78,74.92,78,69.7Z" fill="#fff"/><path d="M92.5,74.26V53.8h10.74V72.52c0,3.54,1.38,5.28,4.44,5.28,3.24,0,5.34-1.92,5.34-5.94V53.8h10.74V85.18H113V80.32c-1.68,3.24-4.74,5.58-10,5.58C97,85.9,92.5,82.18,92.5,74.26Z" fill="#fff"/><path d="M20.5,129.88v-.48C20.5,119,28,113,37.24,113c7.68,0,14.76,3.36,15.36,12.9H42.52c-.48-2.94-1.92-4.56-5-4.56-3.78,0-6,2.7-6,8v.48c0,5.46,2.1,8.28,6.18,8.28,3,0,5.1-1.8,5.46-5.22h9.66c-.3,7.92-5.64,13.08-15.78,13.08C27.64,145.9,20.5,140.44,20.5,129.88Z" fill="#fff"/><path d="M54.58,129.88v-.48c0-10.08,7.5-16.44,17.22-16.44s17.1,6.18,17.1,16.14v.48c0,10.2-7.5,16.32-17.16,16.32S54.58,140,54.58,129.88ZM78,129.7v-.48c0-5.28-2.1-8.22-6.18-8.22s-6.24,2.82-6.24,8.1v.48c0,5.4,2.1,8.34,6.24,8.34S78,134.92,78,129.7Z" fill="#fff"/><path d="M92.44,134.26V113.8h10.74v18.72c0,3.54,1.38,5.28,4.44,5.28,3.24,0,5.34-1.92,5.34-5.94V113.8H123.7v31.38H113v-4.86c-1.68,3.24-4.74,5.58-10,5.58C96.94,145.9,92.44,142.18,92.44,134.26Z" fill="#fff"/><path d="M129.46,100h10.68v45.18H129.46Z" fill="#fff"/><path d="M144.34,129.82v-.48c0-10.68,5.88-16.38,13.32-16.38,4.92,0,7.86,2.1,9.66,5.28V100h10.74v45.18H167.32v-5.1a10.57,10.57,0,0,1-9.78,5.82C150.28,145.9,144.34,140.68,144.34,129.82Zm23.28-.18v-.48c0-5.28-2.22-8.1-6.18-8.1s-6.18,2.7-6.18,8.16v.48c0,5.28,2.34,8,6.06,8C165.22,137.68,167.62,135,167.62,129.64Z" fill="#fff"/><path d="M20.44,205.18H31.12c.48,2.28,1.86,4.08,5.76,4.08,4.74,0,6.66-2.7,6.66-6.6v-4.8a11,11,0,0,1-9.72,5.76c-7.32,0-13.32-5.4-13.32-15.06v-.48c0-9.24,5.94-15.12,13.32-15.12,5,0,7.92,2.1,9.72,5.28V173.8H54.28v28.74c0,9.36-6.18,14.28-17.4,14.28C26.2,216.82,21.28,212.32,20.44,205.18Zm23.4-16.68v-.42c0-4.32-2.22-7.08-6.18-7.08s-6.18,2.82-6.18,7.14v.48c0,4.32,2.28,7.08,6.12,7.08S43.84,192.94,43.84,188.5Z" fill="#fff"/><path d="M58.06,189.88v-.48c0-10.08,7.5-16.44,17-16.44,8.58,0,16,4.92,16,16.2V192H68.92c.3,4.14,2.7,6.54,6.54,6.54,3.54,0,5-1.62,5.46-3.72H91c-1,7.08-6.42,11.1-15.9,11.1C65.26,205.9,58.06,200.14,58.06,189.88Zm22.5-4c-.18-3.78-2-5.88-5.52-5.88-3.24,0-5.46,2.1-6,5.88Z" fill="#fff"/><path d="M96.16,195.1v-14H92.38V173.8h3.78v-6.54H106.9v6.54h6.18v7.32H106.9v13c0,2.28,1.14,3.3,3.18,3.3a8.18,8.18,0,0,0,3.06-.54V205a22.53,22.53,0,0,1-5.94.9C100.12,205.9,96.16,202.48,96.16,195.1Z" fill="#fff"/><path d="M129.52,195.1v-14h-3.78V173.8h3.78v-6.54h10.74v6.54h6.18v7.32h-6.18v13c0,2.28,1.14,3.3,3.18,3.3a8.18,8.18,0,0,0,3.06-.54V205a22.53,22.53,0,0,1-5.94.9C133.48,205.9,129.52,202.48,129.52,195.1Z" fill="#fff"/><path d="M150.52,160h10.74v18.84c1.68-3.24,5.1-5.88,10.32-5.88,6.06,0,10.26,3.78,10.26,11.82v20.4H171.1V186.94c0-3.54-1.38-5.28-4.5-5.28s-5.34,1.92-5.34,5.94v17.58H150.52Z" fill="#fff"/><path d="M185.38,189.88v-.48c0-10.08,7.5-16.44,17-16.44,8.58,0,16,4.92,16,16.2V192H196.24c.3,4.14,2.7,6.54,6.54,6.54,3.54,0,5-1.62,5.46-3.72h10.08c-1,7.08-6.42,11.1-15.9,11.1C192.58,205.9,185.38,200.14,185.38,189.88Zm22.5-4c-.18-3.78-2-5.88-5.52-5.88-3.24,0-5.46,2.1-6,5.88Z" fill="#fff"/><path d="M22.18,233.8H32.92v4.8A11,11,0,0,1,42.76,233c4.14,0,7,1.8,8.52,5.22A12.44,12.44,0,0,1,61.66,233c5.94,0,10.26,3.84,10.26,11.7v20.52H61.18V246.46c0-3.18-1.56-4.74-4-4.74-2.88,0-4.8,1.86-4.8,5.28v18.18H41.74V246.46c0-3.18-1.56-4.74-4-4.74-2.88,0-4.8,1.86-4.8,5.28v18.18H22.18Z" fill="#fff"/><path d="M75.34,256.48c0-7.38,6.24-10.26,16.68-10.26h3v-.72c0-3-.72-5-4.14-5a3.85,3.85,0,0,0-4.26,3.72H76.54C77,236.68,83,233,91.54,233s14.16,3.54,14.16,11.88v20.34H95.26v-3.66c-1.5,2.28-4.26,4.38-9.3,4.38C80.32,265.9,75.34,263.14,75.34,256.48ZM95,254.2v-1.92H92.2c-4.32,0-6.24.84-6.24,3.42,0,1.8,1.2,2.94,3.72,2.94C92.74,258.64,95,256.9,95,254.2Z" fill="#fff"/><path d="M118.84,249.22l-9.78-15.42h12.36l4.86,8.28L131,233.8h11l-9.9,14.58L143,265.18H130.66l-5.58-9.36-5.7,9.36h-11Z" fill="#fff"/><path d="M22.18,293.8H32.92V300c2-4.68,5.28-6.72,10.14-6.66v10c-6.54-.18-10.14,1.86-10.14,6.9v14.88H22.18Z" fill="#fff"/><path d="M45,309.88v-.48C45,299.32,52.48,293,62,293c8.58,0,16,4.92,16,16.2V312H55.84c.3,4.14,2.7,6.54,6.54,6.54,3.54,0,5-1.62,5.46-3.72H77.92c-1,7.08-6.42,11.1-15.9,11.1C52.18,325.9,45,320.14,45,309.88Zm22.5-4c-.18-3.78-2-5.88-5.52-5.88-3.24,0-5.46,2.1-6,5.88Z" fill="#fff"/><path d="M83.26,301.12h-4V293.8h4V291c0-7.8,4.86-11.52,12.3-11.52a19.14,19.14,0,0,1,4.92.66V288a9.86,9.86,0,0,0-2.94-.42c-2.52,0-3.6,1.38-3.6,3.42v2.76h6.36v7.32H93.94v24.06H83.26Z" fill="#fff"/><path d="M103.66,314.26V293.8H114.4v18.72c0,3.54,1.38,5.28,4.44,5.28,3.24,0,5.34-1.92,5.34-5.94V293.8h10.74v31.38H124.18v-4.86c-1.68,3.24-4.74,5.58-10,5.58C108.16,325.9,103.66,322.18,103.66,314.26Z" fill="#fff"/><path d="M140.38,293.8h10.74v5c1.68-3.24,5.1-5.88,10.32-5.88,6.06,0,10.26,3.78,10.26,11.82v20.4H161V306.94c0-3.54-1.38-5.28-4.5-5.28s-5.34,1.92-5.34,5.94v17.58H140.38Z" fill="#fff"/><path d="M175.36,309.82v-.48c0-10.68,5.88-16.38,13.32-16.38,4.92,0,7.86,2.1,9.66,5.28V280h10.74v45.18H198.34v-5.1a10.57,10.57,0,0,1-9.78,5.82C181.3,325.9,175.36,320.68,175.36,309.82Zm23.28-.18v-.48c0-5.28-2.22-8.1-6.18-8.1s-6.18,2.7-6.18,8.16v.48c0,5.28,2.34,8,6.06,8C196.24,317.68,198.64,315,198.64,309.64Z" fill="#fff"/><path d="M21.94,345.28a5.61,5.61,0,0,1,5.88-5.58,5.56,5.56,0,1,1,0,11.1A5.56,5.56,0,0,1,21.94,345.28Zm.54,8.52H33.22v31.38H22.48Z" fill="#fff"/><path d="M39,353.8H49.72v5C51.4,355.6,54.82,353,60,353c6.06,0,10.26,3.78,10.26,11.82v20.4H59.56V366.94c0-3.54-1.38-5.28-4.5-5.28s-5.34,1.92-5.34,5.94v17.58H39Z" fill="#fff"/><path d="M84.64,376.48c0-7.38,6.24-10.26,16.68-10.26h3v-.72c0-3-.72-5-4.14-5a3.85,3.85,0,0,0-4.26,3.72H85.84c.48-7.56,6.42-11.28,15-11.28S115,356.5,115,364.84v20.34H104.56v-3.66c-1.5,2.28-4.26,4.38-9.3,4.38C89.62,385.9,84.64,383.14,84.64,376.48Zm19.68-2.28v-1.92H101.5c-4.32,0-6.24.84-6.24,3.42,0,1.8,1.2,2.94,3.72,2.94C102,378.64,104.32,376.9,104.32,374.2Z" fill="#fff"/><path d="M131,380.32v4.86H120.22V340H131v18.48a11.07,11.07,0,0,1,9.78-5.52c7.32,0,13.26,5.52,13.26,16.26v.48c0,10.8-5.94,16.2-13.32,16.2C136,385.9,132.52,383.68,131,380.32Zm12.12-10.62v-.48c0-5.52-2.4-8.16-6.18-8.16s-6.24,2.82-6.24,8.1v.48c0,5.34,2.34,8,6.24,8S143.08,374.86,143.08,369.7Z" fill="#fff"/><path d="M156.22,369.88v-.48c0-10.08,7.5-16.44,17.22-16.44s17.1,6.18,17.1,16.14v.48c0,10.2-7.5,16.32-17.16,16.32S156.22,380,156.22,369.88Zm23.4-.18v-.48c0-5.28-2.1-8.22-6.18-8.22s-6.24,2.82-6.24,8.1v.48c0,5.4,2.1,8.34,6.24,8.34S179.62,374.92,179.62,369.7Z" fill="#fff"/><path d="M194.08,374.26V353.8h10.74v18.72c0,3.54,1.38,5.28,4.44,5.28,3.24,0,5.34-1.92,5.34-5.94V353.8h10.74v31.38H214.6v-4.86c-1.68,3.24-4.74,5.58-10,5.58C198.58,385.9,194.08,382.18,194.08,374.26Z" fill="#fff"/><path d="M232.24,375.1v-14h-3.78V353.8h3.78v-6.54H243v6.54h6.18v7.32H243v13c0,2.28,1.14,3.3,3.18,3.3a8.18,8.18,0,0,0,3.06-.54V385a22.53,22.53,0,0,1-5.94.9C236.2,385.9,232.24,382.48,232.24,375.1Z" fill="#fff"/><path d="M20.38,436.48c0-7.38,6.24-10.26,16.68-10.26h3v-.72c0-3-.72-5-4.14-5a3.85,3.85,0,0,0-4.26,3.72H21.58c.48-7.56,6.42-11.28,15-11.28s14.16,3.54,14.16,11.88v20.34H40.3v-3.66C38.8,443.8,36,445.9,31,445.9,25.36,445.9,20.38,443.14,20.38,436.48Zm19.68-2.28v-1.92H37.24c-4.32,0-6.24.84-6.24,3.42,0,1.8,1.2,2.94,3.72,2.94C37.78,438.64,40.06,436.9,40.06,434.2Z" fill="#fff"/><path d="M56,413.8H66.7v5C68.38,415.6,71.8,413,77,413c6.06,0,10.26,3.78,10.26,11.82v20.4H76.54V426.94c0-3.54-1.38-5.28-4.5-5.28s-5.34,1.92-5.34,5.94v17.58H56Z" fill="#fff"/><path d="M103.42,400h10.74v18.84c1.68-3.24,5.1-5.88,10.32-5.88,6.06,0,10.26,3.78,10.26,11.82v20.4H124V426.94c0-3.54-1.38-5.28-4.5-5.28s-5.34,1.92-5.34,5.94v17.58H103.42Z" fill="#fff"/><path d="M138.28,429.88v-.48c0-10.08,7.5-16.44,17.22-16.44s17.1,6.18,17.1,16.14v.48c0,10.2-7.5,16.32-17.16,16.32S138.28,440,138.28,429.88Zm23.4-.18v-.48c0-5.28-2.1-8.22-6.18-8.22s-6.24,2.82-6.24,8.1v.48c0,5.4,2.1,8.34,6.24,8.34S161.68,434.92,161.68,429.7Z" fill="#fff"/><path d="M176.14,434.26V413.8h10.74v18.72c0,3.54,1.38,5.28,4.44,5.28,3.24,0,5.34-1.92,5.34-5.94V413.8H207.4v31.38H196.66v-4.86c-1.68,3.24-4.74,5.58-10,5.58C180.64,445.9,176.14,442.18,176.14,434.26Z" fill="#fff"/><path d="M212.86,413.8H223.6V420c2-4.68,5.28-6.72,10.14-6.66v10c-6.54-.18-10.14,1.86-10.14,6.9v14.88H212.86Z" fill="#fff"/><path d="M233.62,439.78a6,6,0,0,1,6.12-6.06,6.06,6.06,0,1,1,0,12.12A6,6,0,0,1,233.62,439.78Z" fill="#fff"/></g></g></svg>