<?xml version="1.0" encoding="utf-8"?>
<!-- Generator: Adobe Illustrator 23.1.1, SVG Export Plug-In . SVG Version: 6.00 Build 0)  -->
<svg version="1.1" id="Layer_1" xmlns="http://www.w3.org/2000/svg" xmlns:xlink="http://www.w3.org/1999/xlink" x="0px" y="0px"
	 viewBox="0 0 239.3 63.6" style="enable-background:new 0 0 239.3 63.6;" xml:space="preserve">
<style type="text/css">
	.st0{fill:none;}
	.st1{fill:#262626;}
</style>
<title>cta_sml</title>
<g>
	<g id="CTA">
		<g id="Rectangle_1">
			<rect class="st0" width="239.3" height="63.6"/>
		</g>
		<g id="Learn_more">
			<path class="st1" d="M48,19.6h4.5v16.5h8.2v3.6H48V19.6z"/>
			<path class="st1" d="M61.7,32.5v-0.2c-0.2-4,2.9-7.4,6.9-7.6c0.2,0,0.4,0,0.6,0c3.7-0.2,6.9,2.6,7.2,6.3c0,0.4,0,0.8,0,1.1v1.1
				H65.8c-0.2,1.9,1.2,3.6,3.2,3.8c0.2,0,0.3,0,0.5,0c1.9,0,2.8-0.8,3.1-2h3.8c-0.5,3.2-3,4.9-7,4.9c-3.9,0.3-7.3-2.6-7.7-6.5
				C61.7,33.1,61.7,32.8,61.7,32.5z M72.4,30.7c-0.1-2.2-1.3-3.3-3.2-3.3c-1.8,0-3.3,1.5-3.4,3.3H72.4z"/>
			<path class="st1" d="M77.8,35.6c0-3.4,3.1-4.7,7.6-4.7h1.7v-0.6c0-1.7-0.5-2.7-2.4-2.7c-1.2-0.2-2.3,0.7-2.5,1.9c0,0,0,0.1,0,0.1
				h-3.8c0.3-3.5,3-5,6.6-5s6.1,1.5,6.1,5.4v9.6h-4v-1.8c-1,1.4-2.7,2.1-4.4,2c-2.4,0.3-4.5-1.4-4.8-3.7
				C77.8,35.9,77.8,35.7,77.8,35.6z M87.1,34.5v-1.2h-1.6c-2.3,0-3.7,0.5-3.7,2c0,1.1,0.6,1.8,2.1,1.8S87.1,36.1,87.1,34.5z"/>
			<path class="st1" d="M94.1,25h4v2.8c0.8-1.9,2.7-3.1,4.7-3v3.8c-3,0-4.7,0.9-4.7,3.8v7.3h-4V25z"/>
			<path class="st1" d="M105.1,25h4v2.3c0.9-1.8,2.9-2.8,4.9-2.7c2.9,0,4.9,1.7,4.9,5.7v9.3h-4v-8.7c0-2-0.8-3-2.6-3
				c-1.6-0.1-3,1.1-3.1,2.8c0,0.2,0,0.3,0,0.5v8.5h-4L105.1,25z"/>
			<path class="st1" d="M127.7,25h4v2.2c0.9-1.6,2.6-2.6,4.5-2.6c1.8-0.1,3.4,0.9,4,2.6c1.1-1.6,3-2.6,4.9-2.6
				c2.7,0,4.8,1.7,4.8,5.6v9.4h-4v-8.9c0-1.9-0.8-2.7-2.3-2.7c-1.5-0.1-2.8,1.1-2.8,2.6c0,0.1,0,0.3,0,0.4v8.7h-4v-8.9
				c0-1.9-0.9-2.7-2.3-2.7c-1.5-0.1-2.8,1.1-2.8,2.6c0,0.1,0,0.3,0,0.4v8.7h-4L127.7,25z"/>
			<path class="st1" d="M152.3,32.5v-0.2c-0.1-4.1,3-7.5,7.1-7.6c0.2,0,0.4,0,0.6,0c4-0.2,7.4,2.8,7.7,6.8c0,0.2,0,0.5,0,0.7v0.2
				c0,4.3-3.5,7.7-7.7,7.7S152.3,36.7,152.3,32.5L152.3,32.5z M163.6,32.5v-0.2c0-2.8-1.3-4.5-3.6-4.5s-3.6,1.6-3.6,4.4v0.2
				c0,2.8,1.3,4.5,3.6,4.5S163.6,35.2,163.6,32.5L163.6,32.5z"/>
			<path class="st1" d="M170,25h4v2.8c0.8-1.9,2.7-3.1,4.7-3v3.8c-3,0-4.7,0.9-4.7,3.8v7.3h-4V25z"/>
			<path class="st1" d="M179.9,32.5v-0.2c-0.2-4,2.9-7.4,6.9-7.6c0.2,0,0.4,0,0.6,0c3.7-0.2,6.9,2.6,7.2,6.3c0,0.4,0,0.8,0,1.1v1.1
				H184c-0.2,1.9,1.2,3.6,3.2,3.8c0.2,0,0.3,0,0.5,0c1.9,0,2.8-0.8,3.1-2h3.8c-0.5,3.1-3,4.9-7,4.9c-3.9,0.3-7.3-2.6-7.6-6.5
				C179.8,33.1,179.8,32.8,179.9,32.5z M190.6,30.7c-0.1-2.2-1.3-3.3-3.2-3.3c-1.8,0-3.4,1.4-3.4,3.3H190.6z"/>
		</g>
	</g>
</g>
</svg>
