<svg xmlns="http://www.w3.org/2000/svg" viewBox="0 0 1456 180"><title>H1</title><g id="Layer_2" data-name="Layer 2"><g id="Rectangle_4" data-name="Rectangle 4" style="isolation:isolate"><g id="Rectangle_4-2" data-name="Rectangle 4"><rect width="1456" height="180" fill="none"/></g></g><g id="Image_25" data-name="Image 25"><g id="Your_maximum_refund_guaranteed." data-name="Your maximum refund,  guaranteed."><path d="M255.64,60.43,240.52,33.89H255l7.85,15.64,7.86-15.64h12.72L269,60.43V80.29H255.64Z" fill="#fff"/><path d="M278.55,63.74v-.52c0-10.9,8.11-17.78,18.62-17.78s18.5,6.69,18.5,17.46v.52c0,11-8.11,17.65-18.56,17.65S278.55,74.71,278.55,63.74Zm25.31-.19V63c0-5.71-2.27-8.89-6.69-8.89s-6.74,3-6.74,8.76v.52c0,5.84,2.27,9,6.74,9S303.86,69.19,303.86,63.55Z" fill="#fff"/><path d="M319.5,68.48V46.35h11.62V66.6c0,3.83,1.49,5.71,4.8,5.71,3.5,0,5.77-2.08,5.77-6.43V46.35h11.62V80.29H341.69V75c-1.81,3.51-5.12,6-10.77,6C324.37,81.07,319.5,77.05,319.5,68.48Z" fill="#fff"/><path d="M359.22,46.35h11.61V53.1c2.15-5.06,5.71-7.27,11-7.2V56.73c-7.07-.19-11,2-11,7.47V80.29H359.22Z" fill="#fff"/><path d="M397.83,46.35h11.62v5.19a11.87,11.87,0,0,1,10.64-6.1c4.48,0,7.59,2,9.22,5.65a13.45,13.45,0,0,1,11.22-5.65c6.43,0,11.1,4.15,11.1,12.66V80.29H440V60c0-3.44-1.68-5.12-4.34-5.12-3.12,0-5.2,2-5.2,5.71V80.29H419V60c0-3.44-1.69-5.12-4.35-5.12-3.12,0-5.19,2-5.19,5.71V80.29H397.83Z" fill="#fff"/><path d="M455.33,70.88c0-8,6.75-11.1,18-11.1h3.25V59c0-3.24-.78-5.38-4.48-5.38-3.18,0-4.35,1.88-4.61,4h-10.9c.52-8.18,6.94-12.2,16.22-12.2s15.32,3.83,15.32,12.85v22H476.88v-4c-1.62,2.47-4.61,4.74-10.06,4.74C460.72,81.07,455.33,78.08,455.33,70.88Zm21.29-2.47V66.34h-3.05c-4.67,0-6.75.91-6.75,3.7,0,1.94,1.3,3.18,4,3.18C474.15,73.22,476.62,71.33,476.62,68.41Z" fill="#fff"/><path d="M502.38,63,491.8,46.35h13.37l5.26,9,5.13-9H527.5L516.79,62.12l11.75,18.17H515.17l-6-10.12L503,80.29H491.09Z" fill="#fff"/><path d="M531.52,37.13a6.41,6.41,0,0,1,12.79,0c0,3.44-2.79,6-6.43,6S531.52,40.57,531.52,37.13Zm.59,9.22h11.61V80.29H532.11Z" fill="#fff"/><path d="M550,46.35h11.62v5.19a11.88,11.88,0,0,1,10.64-6.1c4.48,0,7.6,2,9.22,5.65a13.45,13.45,0,0,1,11.22-5.65c6.43,0,11.1,4.15,11.1,12.66V80.29H592.14V60c0-3.44-1.69-5.12-4.35-5.12-3.12,0-5.19,2-5.19,5.71V80.29H571.11V60c0-3.44-1.69-5.12-4.35-5.12-3.11,0-5.19,2-5.19,5.71V80.29H550Z" fill="#fff"/><path d="M609.14,68.48V46.35h11.62V66.6c0,3.83,1.49,5.71,4.8,5.71,3.5,0,5.78-2.08,5.78-6.43V46.35H643V80.29H631.34V75c-1.82,3.51-5.13,6-10.78,6C614,81.07,609.14,77.05,609.14,68.48Z" fill="#fff"/><path d="M648.86,46.35h11.61v5.19a11.89,11.89,0,0,1,10.65-6.1c4.48,0,7.59,2,9.21,5.65a13.46,13.46,0,0,1,11.23-5.65c6.42,0,11.1,4.15,11.1,12.66V80.29H691V60c0-3.44-1.69-5.12-4.35-5.12-3.11,0-5.19,2-5.19,5.71V80.29H670V60c0-3.44-1.68-5.12-4.34-5.12-3.12,0-5.2,2-5.2,5.71V80.29H648.86Z" fill="#fff"/><path d="M720.12,46.35h11.61V53.1c2.14-5.06,5.71-7.27,11-7.2V56.73c-7.07-.19-11,2-11,7.47V80.29H720.12Z" fill="#fff"/><path d="M744.78,63.74v-.52c0-10.9,8.11-17.78,18.36-17.78,9.28,0,17.27,5.32,17.27,17.52V66H756.52c.33,4.48,2.93,7.08,7.08,7.08,3.83,0,5.45-1.76,5.9-4h10.91c-1,7.66-6.95,12-17.2,12C752.57,81.07,744.78,74.84,744.78,63.74Zm24.33-4.28c-.19-4.09-2.2-6.36-6-6.36-3.5,0-5.9,2.27-6.49,6.36Z" fill="#fff"/><path d="M786.18,54.27H781.9V46.35h4.28v-3c0-8.43,5.26-12.46,13.31-12.46a20.67,20.67,0,0,1,5.32.72v8.5a10.69,10.69,0,0,0-3.18-.45c-2.73,0-3.9,1.49-3.9,3.69v3h6.88v7.92h-6.88v26H786.18Z" fill="#fff"/><path d="M808.25,68.48V46.35h11.61V66.6c0,3.83,1.5,5.71,4.81,5.71,3.5,0,5.77-2.08,5.77-6.43V46.35h11.62V80.29H830.44V75c-1.82,3.51-5.13,6-10.77,6C813.11,81.07,808.25,77.05,808.25,68.48Z" fill="#fff"/><path d="M848,46.35h11.62V51.8c1.82-3.5,5.52-6.36,11.16-6.36,6.56,0,11.1,4.09,11.1,12.79V80.29H870.22V60.56c0-3.83-1.49-5.71-4.86-5.71s-5.78,2.08-5.78,6.43v19H848Z" fill="#fff"/><path d="M885.8,63.68v-.52c0-11.55,6.36-17.72,14.41-17.72,5.32,0,8.5,2.27,10.45,5.71V31.42h11.61V80.29H910.66V74.77a11.44,11.44,0,0,1-10.58,6.3C892.22,81.07,885.8,75.42,885.8,63.68Zm25.18-.2V63c0-5.71-2.4-8.76-6.69-8.76s-6.68,2.92-6.68,8.83v.52c0,5.71,2.53,8.63,6.56,8.63C908.38,72.18,911,69.26,911,63.48Z" fill="#fff"/><path d="M925.78,85.55l5.45-17.07L942,72.31l-9.34,15.9Z" fill="#fff"/><path d="M241.56,150.09h11.55c.52,2.46,2,4.41,6.23,4.41,5.13,0,7.2-2.92,7.2-7.14v-5.19A11.91,11.91,0,0,1,256,148.4c-7.92,0-14.41-5.84-14.41-16.29v-.52c0-10,6.43-16.35,14.41-16.35,5.39,0,8.57,2.27,10.51,5.71v-4.8h11.62v31.08c0,10.13-6.69,15.45-18.82,15.45C247.79,162.68,242.47,157.81,241.56,150.09Zm25.31-18v-.46c0-4.67-2.4-7.66-6.69-7.66s-6.68,3-6.68,7.73v.52c0,4.67,2.46,7.65,6.62,7.65S266.87,136.85,266.87,132.05Z" fill="#fff"/><path d="M283.81,138.28V116.15h11.61v20.24c0,3.83,1.49,5.71,4.8,5.71,3.51,0,5.78-2.07,5.78-6.42V116.15h11.62v33.94H306v-5.26c-1.82,3.5-5.13,6-10.77,6C288.67,150.87,283.81,146.84,283.81,138.28Z" fill="#fff"/><path d="M321.58,140.68c0-8,6.75-11.1,18-11.1h3.24v-.78c0-3.24-.78-5.38-4.48-5.38-3.18,0-4.34,1.88-4.6,4H322.87c.52-8.18,6.95-12.2,16.23-12.2s15.31,3.83,15.31,12.85v22H343.12v-4c-1.62,2.46-4.61,4.74-10.06,4.74C327,150.87,321.58,147.88,321.58,140.68Zm21.28-2.47v-2.08h-3.05c-4.67,0-6.75.91-6.75,3.7,0,1.95,1.3,3.18,4,3.18C340.4,143,342.86,141.13,342.86,138.21Z" fill="#fff"/><path d="M360.06,116.15h11.62v6.75c2.14-5.07,5.71-7.27,11-7.21v10.84c-7.07-.2-11,2-11,7.46v16.1H360.06Z" fill="#fff"/><path d="M384.14,140.68c0-8,6.75-11.1,18-11.1h3.24v-.78c0-3.24-.77-5.38-4.47-5.38-3.18,0-4.35,1.88-4.61,4h-10.9c.52-8.18,6.94-12.2,16.22-12.2S417,119.07,417,128.09v22h-11.3v-4c-1.62,2.46-4.6,4.74-10.06,4.74C389.52,150.87,384.14,147.88,384.14,140.68Zm21.28-2.47v-2.08h-3.05c-4.67,0-6.75.91-6.75,3.7,0,1.95,1.3,3.18,4,3.18C403,143,405.42,141.13,405.42,138.21Z" fill="#fff"/><path d="M422.62,116.15h11.62v5.45c1.82-3.51,5.51-6.36,11.16-6.36,6.56,0,11.1,4.09,11.1,12.78v22.07H444.88V130.36c0-3.83-1.49-5.71-4.87-5.71s-5.77,2.07-5.77,6.42v19H422.62Z" fill="#fff"/><path d="M463.7,139.18V124.06h-4.09v-7.91h4.09v-7.08h11.62v7.08H482v7.91h-6.68v14c0,2.47,1.23,3.57,3.44,3.57a8.84,8.84,0,0,0,3.31-.58v8.82a24.3,24.3,0,0,1-6.43,1C468,150.87,463.7,147.17,463.7,139.18Z" fill="#fff"/><path d="M484.6,133.54V133c0-10.9,8.11-17.78,18.37-17.78,9.28,0,17.26,5.32,17.26,17.52v3.05H496.35c.32,4.48,2.92,7.07,7.07,7.07,3.83,0,5.45-1.75,5.91-4h10.9c-1,7.66-7,12-17.2,12C492.39,150.87,484.6,144.64,484.6,133.54Zm24.34-4.28c-.2-4.09-2.21-6.36-6-6.36-3.51,0-5.91,2.27-6.49,6.36Z" fill="#fff"/><path d="M522.44,133.54V133c0-10.9,8.11-17.78,18.36-17.78,9.28,0,17.26,5.32,17.26,17.52v3.05H534.18c.33,4.48,2.92,7.07,7.07,7.07,3.83,0,5.46-1.75,5.91-4h10.9c-1,7.66-6.94,12-17.19,12C530.22,150.87,522.44,144.64,522.44,133.54Zm24.33-4.28c-.19-4.09-2.21-6.36-6-6.36-3.5,0-5.9,2.27-6.49,6.36Z" fill="#fff"/><path d="M560.4,133.47V133c0-11.55,6.36-17.71,14.41-17.71,5.32,0,8.5,2.27,10.45,5.71V101.22h11.61v48.87H585.26v-5.52a11.44,11.44,0,0,1-10.58,6.3C566.83,150.87,560.4,145.22,560.4,133.47Zm25.18-.19v-.52c0-5.71-2.4-8.76-6.68-8.76s-6.69,2.92-6.69,8.82v.52c0,5.71,2.53,8.63,6.56,8.63C583,142,585.58,139.05,585.58,133.28Z" fill="#fff"/><path d="M602.33,144.25a6.47,6.47,0,0,1,6.61-6.56,6.56,6.56,0,1,1,0,13.11A6.47,6.47,0,0,1,602.33,144.25Z" fill="#fff"/></g></g></g></svg>