<?xml version="1.0" encoding="utf-8"?>
<!-- Generator: Adobe Illustrator 23.1.1, SVG Export Plug-In . SVG Version: 6.00 Build 0)  -->
<svg version="1.1" id="Layer_1" xmlns="http://www.w3.org/2000/svg" xmlns:xlink="http://www.w3.org/1999/xlink" x="0px" y="0px"
	 viewBox="0 0 1456 180" style="enable-background:new 0 0 1456 180;" xml:space="preserve">
<style type="text/css">
	.st0{fill:none;}
	.st1{fill:#FFFFFF;}
</style>
<title>H5</title>
<g>
	<g id="Rect">
		<rect class="st0" width="1456" height="180"/>
	</g>
	<g id="H5">
		<g id="You_could_get_up_to_3_500_within_minutes_of_filing._0_interes">
			<path class="st1" d="M252.8,53.8L240.4,32h12l6.4,12.8l6.4-12.8h10.4l-11.8,21.8v16.3h-11V53.8z"/>
			<path class="st1" d="M271.7,56.5v-0.4c0-9,6.7-14.6,15.3-14.6s15.2,5.5,15.2,14.3v0.4c0,9.1-6.7,14.5-15.3,14.5
				S271.7,65.5,271.7,56.5z M292.5,56.4V56c0-4.7-1.9-7.3-5.5-7.3s-5.5,2.5-5.5,7.2v0.4c0,4.8,1.9,7.4,5.5,7.4S292.5,61,292.5,56.4z
				"/>
			<path class="st1" d="M305.3,60.4V42.3h9.5v16.6c0,3.2,1.2,4.7,4,4.7s4.7-1.7,4.7-5.3v-16h9.5v27.8h-9.5v-4.3
				c-1.7,3.3-5.2,5.2-8.8,5C309.3,70.8,305.3,67.5,305.3,60.4z"/>
			<path class="st1" d="M346.1,56.5v-0.4c0-9.3,6.7-14.6,14.9-14.6c6.8,0,13.1,3,13.6,11.5h-9c-0.1-2.3-1.9-4.1-4.2-4
				c-0.1,0-0.2,0-0.3,0c-3.4,0-5.3,2.4-5.3,7.1v0.4c0,4.8,1.9,7.4,5.5,7.4c2.6,0.1,4.7-1.9,4.9-4.4c0-0.1,0-0.2,0-0.2h8.6
				c-0.3,7-5,11.6-14,11.6C352.5,70.8,346.1,66,346.1,56.5z"/>
			<path class="st1" d="M376.4,56.5v-0.4c0-9,6.7-14.6,15.3-14.6s15.2,5.5,15.2,14.3v0.4c0,9.1-6.7,14.5-15.2,14.5
				S376.4,65.5,376.4,56.5z M397.2,56.4V56c0-4.7-1.9-7.3-5.5-7.3s-5.6,2.5-5.6,7.2v0.4c0,4.8,1.9,7.4,5.6,7.4S397.2,61,397.2,56.4z
				"/>
			<path class="st1" d="M410,60.4V42.3h9.5v16.6c0,3.2,1.2,4.7,4,4.7s4.7-1.7,4.7-5.3v-16h9.5v27.8h-9.5v-4.3
				c-1.7,3.3-5.2,5.2-8.9,5C414,70.8,410,67.5,410,60.4z"/>
			<path class="st1" d="M442.9,30h9.5v40.1h-9.5V30z"/>
			<path class="st1" d="M456.1,56.5V56c0-9.5,5.2-14.6,11.8-14.6c3.5-0.2,6.9,1.6,8.6,4.7V30h9.6v40.1h-9.6v-4.5
				c-1.6,3.3-5,5.3-8.7,5.2C461.4,70.8,456.1,66.1,456.1,56.5z M476.8,56.3V56c0-4.7-2-7.2-5.5-7.2s-5.5,2.4-5.5,7.3v0.4
				c0,4.7,2,7.1,5.4,7.1S476.8,61.1,476.8,56.3z"/>
			<path class="st1" d="M499.1,70.1h9.5c0.4,2,1.7,3.6,5.1,3.6c2.9,0.4,5.6-1.6,6-4.5c0.1-0.5,0.1-0.9,0-1.4v-4.3
				c-1.7,3.2-5,5.1-8.6,5.1c-6.5,0-11.8-4.8-11.8-13.4v-0.4c0-8.2,5.3-13.4,11.8-13.4c3.6-0.3,6.9,1.6,8.6,4.7v-4h9.5v25.6
				c0,8.3-5.5,12.7-15.5,12.7C504.2,80.5,499.8,76.5,499.1,70.1z M519.9,55.3v-0.4c0-3.8-2-6.3-5.5-6.3s-5.5,2.5-5.5,6.4v0.4
				c0,3.8,2,6.3,5.4,6.3C517.8,61.7,519.9,59.3,519.9,55.3z"/>
			<path class="st1" d="M532.5,56.5v-0.4c0-9,6.7-14.6,15.1-14.6c7.6,0,14.2,4.4,14.2,14.4v2.5h-19.6c-0.1,3.1,2.2,5.7,5.3,5.8
				c0.2,0,0.3,0,0.5,0c3.2,0,4.5-1.4,4.9-3.3h9c-0.9,6.3-5.7,9.9-14.1,9.9S532.5,65.7,532.5,56.5z M552.5,53
				c-0.2-3.4-1.8-5.2-4.9-5.2c-2.9,0-5.3,2.3-5.3,5.2H552.5z"/>
			<path class="st1" d="M566.4,61.2V48.8H563v-6.5h3.4v-5.8h9.6v5.8h5.5v6.5H576v11.5c0,2,1,2.9,2.8,2.9c0.9,0,1.9-0.1,2.7-0.5V70
				c-1.7,0.5-3.5,0.8-5.3,0.8C569.9,70.8,566.4,67.7,566.4,61.2z"/>
			<path class="st1" d="M594.5,60.4V42.3h9.5v16.6c0,3.2,1.2,4.7,4,4.7s4.7-1.7,4.7-5.3v-16h9.5v27.8h-9.5v-4.3
				c-1.7,3.3-5.2,5.2-8.8,5C598.5,70.8,594.5,67.5,594.5,60.4z"/>
			<path class="st1" d="M627.1,42.3h9.5v4.1c1.8-3.1,5.1-5,8.7-4.9c6.5,0,11.8,4.9,11.8,14.5v0.4c0,9.6-5.3,14.4-11.8,14.4
				c-3.6,0.2-6.9-1.6-8.6-4.8v13.4h-9.5V42.3z M647.4,56.4V56c0-4.9-2.1-7.3-5.5-7.3s-5.6,2.5-5.6,7.2v0.4c0,4.8,2,7.1,5.6,7.1
				S647.4,61,647.4,56.4z"/>
			<path class="st1" d="M671.6,61.2V48.8h-3.4v-6.5h3.4v-5.8h9.5v5.8h5.5v6.5h-5.5v11.5c-0.2,1.4,0.7,2.7,2.1,2.9c0.3,0,0.5,0,0.8,0
				c0.9,0,1.9-0.1,2.7-0.5V70c-1.7,0.5-3.5,0.8-5.3,0.8C675.1,70.8,671.6,67.7,671.6,61.2z"/>
			<path class="st1" d="M688.7,56.5v-0.4c0-9,6.7-14.6,15.3-14.6s15.2,5.5,15.2,14.3v0.4c0,9.1-6.7,14.5-15.2,14.5
				S688.7,65.5,688.7,56.5z M709.5,56.4V56c0-4.7-1.9-7.3-5.5-7.3s-5.5,2.5-5.5,7.2v0.4c0,4.8,1.9,7.4,5.5,7.4S709.5,61,709.5,56.4
				L709.5,56.4z"/>
			<path class="st1" d="M738.4,52.7c-5.4-0.4-8-3.2-8.2-7.3h5.8c0,1.4,1,2.7,2.5,2.9v-4.5c-5.4-0.8-7.7-2.7-7.7-7
				c0-3.8,3-6.5,7.7-6.8v-2.8h2.4V30c4.5,0.4,7.2,2.5,7.5,6.7h-5.6c0-1.1-0.9-2.1-2-2.3v4.2c4.7,0.7,7.9,2.3,7.9,6.8
				c0,3.8-2.5,7-7.9,7.3v3.9h-2.4V52.7z M738.4,38.2v-4c-1.4,0.3-2.1,1-2.1,2S736.7,37.9,738.4,38.2z M740.8,44.2v4.1
				c1.1-0.1,2-1.1,2-2.2C742.9,45.1,742.5,44.5,740.8,44.2L740.8,44.2z"/>
			<path class="st1" d="M750.6,57.6h9.7c-0.1,2.8,2.1,5.2,4.9,5.3c0.2,0,0.5,0,0.7,0c3.4,0,5-1.6,5-4.3s-1.6-4.5-5-4.5h-3v-6.8h2.8
				c3.4,0,5.1-1.6,5.1-4.2c0-2.3-1.5-3.8-4.4-3.8c-2.7-0.1-4.9,2-5.1,4.7c0,0.1,0,0.1,0,0.2h-9.7c0.5-7.5,5.5-12.7,15-12.7
				c9,0,14.3,4,14.3,10.5c0.1,3.9-2.6,7.4-6.4,8.2c4.3,0.6,7.5,4.3,7.4,8.6c0,7.2-5.4,12-15.5,12C755.9,70.8,750.9,65.9,750.6,57.6z
				"/>
			<path class="st1" d="M782.8,74.5l4.5-14l8.9,3.1l-7.7,13.1L782.8,74.5z"/>
			<path class="st1" d="M798,58.1h10c-0.1,2.4,1.8,4.4,4.3,4.5c0.2,0,0.5,0,0.7,0c3.1,0,4.6-2.3,4.6-5.4c0.3-2.7-1.5-5.1-4.2-5.4
				c-0.3,0-0.6,0-1,0c-2.4-0.1-4.8,0.9-6.4,2.7h-6.6l0.8-22.5H826v8h-18l-0.2,8.4c2.1-2.8,5.4-4.3,8.9-4c7,0,11.6,4.7,11.6,13
				s-5.8,13.4-15.5,13.4C802.8,70.8,798.2,65.3,798,58.1z"/>
			<path class="st1" d="M831,52v-1.6c0-12,7.5-18.8,17.6-18.8s17.6,6.2,17.6,18.6v1.5c0,12.1-6.9,19.2-17.8,19.2S831,64,831,52z
				 M855.3,51.9v-1.6c0-7-2-10.5-6.7-10.5s-6.6,3.4-6.6,10.4v1.6c0,7.1,2,10.5,6.8,10.5s6.5-3.5,6.5-10.5V51.9z"/>
			<path class="st1" d="M869.2,52v-1.6c0-12,7.5-18.8,17.6-18.8s17.6,6.2,17.6,18.6v1.5c0,12.1-6.9,19.2-17.8,19.2
				S869.2,64,869.2,52z M893.5,51.9v-1.6c0-7-2-10.5-6.7-10.5s-6.7,3.5-6.7,10.5v1.6c0,7.1,2,10.5,6.8,10.5s6.6-3.6,6.6-10.6V51.9z"
				/>
			<path class="st1" d="M915.7,42.3h10l4,16.7l4.7-16.7h7.6l4.2,16.7l4.5-16.7h9.1L951,70.1h-9.1l-4.2-15.6l-4.3,15.6h-9.3
				L915.7,42.3z"/>
			<path class="st1" d="M962,34.7c0-2.8,2.2-5,5-5c0.1,0,0.2,0,0.2,0c2.7-0.2,5.1,1.9,5.2,4.6c0.2,2.7-1.9,5.1-4.6,5.2
				c-0.2,0-0.4,0-0.6,0c-2.7,0.2-5-1.9-5.2-4.6C962,34.9,962,34.8,962,34.7z M962.5,42.3h9.6v27.9h-9.6V42.3z"/>
			<path class="st1" d="M978.5,61.2V48.8h-3.4v-6.5h3.4v-5.8h9.5v5.8h5.5v6.5H988v11.5c-0.2,1.4,0.7,2.7,2.1,2.9c0.2,0,0.5,0,0.7,0
				c0.9,0,1.9-0.1,2.7-0.5V70c-1.7,0.5-3.5,0.8-5.3,0.8C982,70.8,978.5,67.7,978.5,61.2z"/>
			<path class="st1" d="M997.1,30h9.5v16.7c1.8-3.3,5.4-5.4,9.2-5.2c5.4,0,9.1,3.4,9.1,10.5v18.1h-9.6V54c0-3.1-1.2-4.7-4-4.7
				s-4.7,1.7-4.7,5.3v15.6h-9.5V30z"/>
			<path class="st1" d="M1029.4,34.7c-0.2-2.9,2-5.4,4.9-5.6s5.4,2,5.6,4.9c0.2,2.9-2,5.4-4.9,5.6c-0.1,0-0.2,0-0.4,0
				c-2.8,0.1-5.1-2-5.2-4.8C1029.4,34.8,1029.4,34.7,1029.4,34.7z M1029.9,42.3h9.6v27.9h-9.6V42.3z"/>
			<path class="st1" d="M1044.5,42.3h9.5v4.5c1.8-3.3,5.4-5.4,9.2-5.2c5.4,0,9.1,3.4,9.1,10.5v18.1h-9.5V54c0-3.1-1.2-4.7-4-4.7
				s-4.8,1.7-4.8,5.3v15.6h-9.5L1044.5,42.3z"/>
			<path class="st1" d="M242.8,99.6h9.5v4.3c1.8-3.2,5.1-5.1,8.8-5c3.3-0.2,6.3,1.6,7.6,4.6c2.1-3,5.6-4.7,9.3-4.6
				c5.3,0,9.1,3.4,9.1,10.4v18.2h-9.5v-16.6c0-2.8-1.4-4.2-3.6-4.2c-2.3-0.1-4.2,1.7-4.3,4c0,0.2,0,0.5,0,0.7v16.2h-9.5v-16.6
				c0-2.8-1.4-4.2-3.6-4.2c-2.3-0.1-4.2,1.7-4.3,4c0,0.2,0,0.5,0,0.7v16.2h-9.5L242.8,99.6z"/>
			<path class="st1" d="M291.4,92c0-2.8,2.2-5,5-5c0.1,0,0.2,0,0.2,0c2.7-0.2,5.1,1.9,5.2,4.6c0.2,2.7-1.9,5.1-4.6,5.2
				c-0.2,0-0.4,0-0.6,0c-2.7,0.2-5.1-1.9-5.2-4.7C291.4,92.2,291.4,92.1,291.4,92z M291.9,99.6h9.5v27.9H292L291.9,99.6z"/>
			<path class="st1" d="M306.6,99.6h9.5v4.4c1.8-3.4,5.4-5.4,9.2-5.2c5.4,0,9.1,3.4,9.1,10.5v18.1h-9.5v-16.2c0-3.1-1.2-4.7-4-4.7
				s-4.7,1.7-4.7,5.3v15.6h-9.5V99.6z"/>
			<path class="st1" d="M338.8,117.7V99.6h9.5v16.6c0,3.2,1.2,4.7,4,4.7s4.8-1.7,4.8-5.3v-16h9.5v27.8h-9.5v-4.3
				c-1.7,3.3-5.2,5.2-8.9,4.9C342.8,128,338.8,124.8,338.8,117.7z"/>
			<path class="st1" d="M372.7,118.5V106h-3.4v-6.4h3.4v-5.8h9.5v5.8h5.5v6.4h-5.5v11.5c-0.2,1.4,0.7,2.7,2.1,2.9c0.2,0,0.5,0,0.7,0
				c0.9,0,1.9-0.1,2.7-0.4v7.3c-1.7,0.5-3.5,0.8-5.3,0.8C376.2,128,372.7,125,372.7,118.5z"/>
			<path class="st1" d="M389.9,113.8v-0.4c0-9,6.7-14.6,15.1-14.6c7.6,0,14.2,4.4,14.2,14.4v2.5h-19.6c-0.1,3.1,2.3,5.7,5.3,5.8
				c0.2,0,0.3,0,0.5,0c3.1,0,4.5-1.4,4.9-3.3h8.9c-0.8,6.3-5.7,9.9-14.1,9.9C396.3,128,389.9,123,389.9,113.8z M409.9,110.3
				c-0.2-3.4-1.8-5.2-4.9-5.2c-2.9,0-5.3,2.3-5.3,5.2H409.9z"/>
			<path class="st1" d="M420.8,118.6h8.8c0.3,2,1.2,3.2,4,3.2c2.4,0,3.4-0.9,3.4-2.3s-1.3-2-5.2-2.5c-7.5-1-10.6-3.2-10.6-9
				c0-6.2,5.5-9.2,12-9.2c6.9,0,11.7,2.4,12.3,9H437c-0.2-1.7-1.7-3-3.4-2.8c-0.1,0-0.1,0-0.2,0c-2,0-3.1,0.9-3.1,2.2
				s1.3,1.9,4.7,2.3c7.7,1,11.5,3,11.5,9c0,6.6-4.9,9.6-12.6,9.6S421.1,124.8,420.8,118.6z"/>
			<path class="st1" d="M457.6,113.8v-0.4c0-9,6.7-14.6,15.3-14.6s15.2,5.5,15.2,14.3v0.4c0,9.1-6.7,14.5-15.2,14.5
				S457.6,122.8,457.6,113.8z M478.4,113.7v-0.4c0-4.7-1.9-7.3-5.5-7.3s-5.5,2.5-5.5,7.2v0.4c0,4.8,1.9,7.4,5.5,7.4
				S478.4,118.3,478.4,113.7z"/>
			<path class="st1" d="M492.9,106h-3.5v-6.4h3.5v-2.5c0-6.9,4.3-10.2,10.9-10.2c1.5,0,3,0.2,4.4,0.6v7c-0.8-0.3-1.7-0.4-2.6-0.4
				c-1.5-0.2-3,0.8-3.2,2.4c0,0.2,0,0.5,0,0.7v2.5h5.7v6.4h-5.7v21.4h-9.5V106z"/>
			<path class="st1" d="M522.3,106h-3.5v-6.4h3.5v-2.5c0-6.9,4.3-10.2,10.9-10.2c1.5,0,2.9,0.2,4.4,0.6v7c-0.8-0.3-1.7-0.4-2.6-0.4
				c-1.5-0.2-3,0.8-3.2,2.4c0,0.2,0,0.5,0,0.7v2.5h5.6v6.4h-5.6v21.4h-9.5V106z"/>
			<path class="st1" d="M540.4,92c-0.2-2.9,2-5.4,4.9-5.6c2.9-0.2,5.4,2,5.6,4.9c0.2,2.9-2,5.4-4.9,5.6c-0.1,0-0.3,0-0.4,0
				c-2.8,0.1-5.1-2-5.2-4.8C540.4,92.1,540.4,92,540.4,92z M540.9,99.6h9.6v27.9h-9.6V99.6z"/>
			<path class="st1" d="M555.9,87.3h9.5v40.2h-9.5V87.3z"/>
			<path class="st1" d="M570.2,92c-0.2-2.9,2-5.4,4.9-5.6s5.4,2,5.6,4.9s-2,5.4-4.9,5.6c-0.1,0-0.3,0-0.4,0c-2.7,0.1-5.1-2-5.2-4.7
				C570.2,92.1,570.2,92.1,570.2,92z M570.7,99.6h9.5v27.9h-9.5V99.6z"/>
			<path class="st1" d="M585.4,99.6h9.5v4.4c1.8-3.3,5.4-5.4,9.2-5.2c5.4,0,9.1,3.4,9.1,10.5v18.1h-9.5v-16.2c0-3.1-1.2-4.7-4-4.7
				s-4.7,1.7-4.7,5.3v15.6h-9.5V99.6z"/>
			<path class="st1" d="M616.3,127.4h9.5c0.4,2,1.7,3.6,5.1,3.6c2.9,0.4,5.6-1.6,6-4.5c0.1-0.5,0.1-0.9,0-1.4v-4.3
				c-1.7,3.2-5.1,5.1-8.7,5.1c-6.5,0-11.8-4.8-11.8-13.4v-0.4c0-8.2,5.3-13.4,11.8-13.4c3.6-0.3,6.9,1.6,8.6,4.7v-4h9.5v25.6
				c0,8.3-5.5,12.7-15.5,12.7C621.4,137.8,617,133.8,616.3,127.4z M637.1,112.6v-0.4c0-3.8-2-6.3-5.5-6.3s-5.5,2.5-5.5,6.4v0.4
				c0,3.8,2,6.3,5.4,6.3S637.1,116.6,637.1,112.6z"/>
			<path class="st1" d="M650.8,122.6c0-2.9,2.3-5.3,5.2-5.4c0.1,0,0.1,0,0.2,0c3,0,5.4,2.4,5.4,5.4c0,3-2.4,5.4-5.4,5.4
				c-2.9,0.1-5.4-2.3-5.4-5.2C650.8,122.8,650.8,122.7,650.8,122.6z"/>
			<path class="st1" d="M675.1,109.2v-1.6c0-12,7.5-18.8,17.6-18.8s17.6,6.2,17.6,18.6v1.5c0,12.1-6.9,19.2-17.8,19.2
				S675.1,121.2,675.1,109.2z M699.4,109.1v-1.6c0-7-2-10.5-6.7-10.5s-6.7,3.5-6.7,10.5v1.6c0,7.1,2,10.5,6.8,10.5
				S699.4,116.1,699.4,109.1z"/>
			<path class="st1" d="M712.4,98.4c0-5.3,4.4-9.6,9.7-9.5c0.1,0,0.3,0,0.4,0c5.3-0.2,9.8,3.8,10,9.1c0.2,5.3-3.8,9.8-9.1,10
				c-0.3,0-0.6,0-0.9,0c-5.1,0.4-9.7-3.4-10.1-8.5C712.4,99.1,712.4,98.8,712.4,98.4z M743.8,89.3h5.2l-26.4,38.1h-5.2L743.8,89.3z
				 M725.6,98.4c0-2.5-1.1-4-3-4s-3.1,1.5-3.1,4s1.2,4.2,3.1,4.2S725.6,100.9,725.6,98.4L725.6,98.4z M733.6,118.4
				c0.1-5.3,4.4-9.6,9.7-9.5c0.1,0,0.3,0,0.4,0c5.8,0,10,3.8,10,9.3c0.1,5.3-4,9.7-9.3,9.8c-0.2,0-0.5,0-0.7,0
				c-5.2,0.4-9.7-3.5-10.1-8.6C733.6,119.1,733.6,118.7,733.6,118.4L733.6,118.4z M746.8,118.4c0-2.5-1.1-4-3.1-4s-3.1,1.5-3.1,4
				s1.2,4.1,3.1,4.1S746.8,120.9,746.8,118.4L746.8,118.4z"/>
			<path class="st1" d="M766.7,92c0-2.8,2.2-5,5-5c0.1,0,0.2,0,0.2,0c2.7-0.2,5.1,1.9,5.2,4.6c0.2,2.7-1.9,5.1-4.6,5.2
				c-0.2,0-0.4,0-0.6,0c-2.7,0.2-5-1.9-5.2-4.6C766.7,92.2,766.7,92.1,766.7,92z M767.1,99.6h9.6v27.9h-9.6V99.6z"/>
			<path class="st1" d="M781.8,99.6h9.6v4.4c1.8-3.4,5.4-5.4,9.2-5.2c5.4,0,9.1,3.4,9.1,10.5v18.1H800v-16.2c0-3.1-1.2-4.7-4-4.7
				s-4.7,1.7-4.7,5.3v15.6h-9.6L781.8,99.6z"/>
			<path class="st1" d="M815.5,118.5V106h-3.4v-6.4h3.4v-5.8h9.5v5.8h5.5v6.4h-5.5v11.5c-0.3,1.4,0.6,2.7,2,3c0.3,0.1,0.6,0.1,0.9,0
				c0.9,0,1.9-0.1,2.7-0.5v7.3c-1.7,0.5-3.5,0.8-5.3,0.8C819,128,815.5,125,815.5,118.5z"/>
			<path class="st1" d="M832.7,113.8v-0.4c0-9,6.7-14.6,15.1-14.6c7.6,0,14.2,4.4,14.2,14.4v2.5h-19.6c-0.1,3.1,2.2,5.7,5.3,5.8
				c0.2,0,0.3,0,0.5,0c3.2,0,4.5-1.4,4.9-3.3h9c-0.9,6.3-5.7,9.9-14.1,9.9C839.1,128,832.7,123,832.7,113.8z M852.7,110.3
				c-0.2-3.4-1.8-5.2-4.9-5.2c-2.9,0-5.3,2.3-5.3,5.2H852.7z"/>
			<path class="st1" d="M865.3,99.6h9.5v5.5c1.3-3.8,5-6.3,9-6v8.9c-5.8-0.2-9,1.7-9,6.1v13.2h-9.5V99.6z"/>
			<path class="st1" d="M885.5,113.8v-0.4c0-9,6.7-14.6,15.1-14.6c7.6,0,14.2,4.4,14.2,14.4v2.5h-19.6c-0.1,3.1,2.2,5.7,5.3,5.8
				c0.2,0,0.3,0,0.5,0c3.2,0,4.5-1.4,4.9-3.3h9c-0.8,6.3-5.7,9.8-14.1,9.8S885.5,123,885.5,113.8z M905.5,110.3
				c-0.2-3.4-1.8-5.2-4.9-5.2c-2.9,0-5.3,2.3-5.3,5.2H905.5z"/>
			<path class="st1" d="M916.5,118.6h8.8c0.3,2,1.2,3.2,4,3.2c2.3,0,3.4-0.9,3.4-2.3s-1.3-2-5.2-2.5c-7.5-0.9-10.7-3.2-10.7-8.9
				c0-6.2,5.5-9.2,12-9.2c6.9,0,11.7,2.4,12.3,9h-8.6c-0.2-1.7-1.7-3-3.4-2.8c-0.1,0-0.1,0-0.2,0c-2,0-3.1,0.9-3.1,2.2
				s1.3,1.9,4.7,2.3c7.7,1,11.5,3,11.5,9c0,6.6-4.9,9.6-12.6,9.6S916.7,124.8,916.5,118.6z"/>
			<path class="st1" d="M946.3,118.5V106h-3.3v-6.4h3.3v-5.8h9.6v5.8h5.5v6.4h-5.5v11.5c0,2,1,2.9,2.8,2.9c0.9,0,1.9-0.1,2.7-0.5
				v7.3c-1.7,0.5-3.5,0.8-5.4,0.8C949.8,128,946.3,125,946.3,118.5z"/>
			<path class="st1" d="M974.9,87.3h9.5v40.2h-9.5V87.3z"/>
			<path class="st1" d="M988,113.8v-0.4c0-9,6.7-14.6,15.3-14.6s15.2,5.5,15.2,14.3v0.4c0,9.1-6.7,14.5-15.3,14.5
				S988,122.8,988,113.8z M1008.8,113.7v-0.4c0-4.7-1.9-7.3-5.5-7.3s-5.5,2.5-5.5,7.2v0.4c0,4.8,1.9,7.4,5.5,7.4
				S1008.8,118.3,1008.8,113.7z"/>
			<path class="st1" d="M1020.2,119.7c0-6.6,5.6-9.1,14.8-9.1h2.7V110c0-2.7-0.6-4.4-3.7-4.4c-1.9-0.2-3.6,1.2-3.8,3.1
				c0,0.1,0,0.2,0,0.2h-8.9c0.4-6.7,5.7-10,13.3-10s12.6,3.2,12.6,10.6v18h-9.2v-3.3c-1.8,2.7-5,4.2-8.3,4
				C1024.7,128,1020.2,125.6,1020.2,119.7z M1037.7,117.7V116h-2.5c-3.8,0-5.5,0.7-5.5,3c0,1.6,1.1,2.6,3.3,2.6
				C1035.7,121.6,1037.7,120,1037.7,117.7L1037.7,117.7z"/>
			<path class="st1" d="M1051.9,99.6h9.5v4.4c1.8-3.4,5.4-5.4,9.2-5.2c5.4,0,9.1,3.4,9.1,10.5v18.1h-9.5v-16.2c0-3.1-1.2-4.7-4-4.7
				s-4.7,1.7-4.7,5.3v15.6h-9.5V99.6z"/>
			<path class="st1" d="M1084,122.6c0-2.9,2.3-5.3,5.3-5.4c0.1,0,0.1,0,0.2,0c3,0,5.4,2.4,5.4,5.4c0,3-2.4,5.4-5.4,5.4
				c-2.9,0.1-5.4-2.3-5.4-5.2C1084,122.8,1084,122.7,1084,122.6z"/>
		</g>
	</g>
	<g id="Legal">
		<g id="Optional_loan_from_Axos_Bank_within_minutes_of_filing._Not_your">
			<path class="st1" d="M241,165.6v-0.1c-0.2-3.5,2.5-6.5,6-6.7c3.5-0.2,6.5,2.5,6.7,6c0,0.2,0,0.5,0,0.7v0.1c0.2,3.5-2.5,6.5-6,6.7
				c-3.5,0.2-6.5-2.5-6.7-6C241,166,241,165.8,241,165.6z M252,165.6v-0.1c0.3-2.6-1.6-4.9-4.2-5.2s-4.9,1.6-5.2,4.2
				c0,0.4,0,0.7,0,1.1v0.1c-0.2,2.7,1.8,5,4.4,5.2c0.1,0,0.2,0,0.3,0c2.6,0,4.7-2.1,4.7-4.7C252,165.9,252,165.7,252,165.6
				L252,165.6z"/>
			<path class="st1" d="M255.8,162.5h1.5v1.5c0.7-1.1,1.9-1.7,3.2-1.7c2.4,0,4.3,1.9,4.3,4.3c0,0.2,0,0.3,0,0.5v0.1
				c0.3,2.4-1.4,4.5-3.8,4.8c-0.2,0-0.3,0-0.5,0c-1.3,0-2.5-0.6-3.2-1.7v4.9h-1.5V162.5z M263.3,167.3v-0.1c0-2.4-1.3-3.6-2.9-3.6
				s-3.1,1.2-3.1,3.6v0.1c0,2.4,1.3,3.6,3.1,3.6S263.3,169.6,263.3,167.3z"/>
			<path class="st1" d="M267.2,169.6v-5.8h-1.3v-1.3h1.3v-2.1h1.5v2.1h2.2v1.3h-2.2v5.7c0,0.9,0.4,1.4,1.2,1.4
				c0.4,0,0.8-0.1,1.2-0.2v1.3c-0.4,0.1-0.8,0.2-1.3,0.2c-1.3,0.1-2.4-0.7-2.5-2C267.2,169.9,267.2,169.7,267.2,169.6z"/>
			<path class="st1" d="M272.7,159.5c0-0.5,0.5-1,1-1c0.5,0,1,0.4,1,1l0,0c0,0.5-0.4,1-1,1C273.2,160.5,272.8,160.1,272.7,159.5z
				 M273,162.5h1.5v9.5H273V162.5z"/>
			<path class="st1" d="M276.6,167.3v-0.1c0-2.6,2.1-4.6,4.6-4.6c2.6,0,4.6,2.1,4.6,4.6c0,0,0,0,0,0v0.1c0,2.6-2.1,4.6-4.6,4.6
				C278.7,171.9,276.6,169.8,276.6,167.3C276.6,167.3,276.6,167.3,276.6,167.3z M284.3,167.3v-0.1c0-2.2-1.2-3.6-3.1-3.6
				c-1.7,0-3.1,1.4-3.1,3.1c0,0.1,0,0.3,0,0.4v0.1c0,2.1,1.2,3.6,3.1,3.6S284.3,169.4,284.3,167.3L284.3,167.3z"/>
			<path class="st1" d="M288,162.5h1.5v1.5c0.6-1.1,1.8-1.7,3-1.7c2,0,3.3,1.1,3.3,3.8v5.9h-1.5v-6c0-1.7-0.7-2.4-2.2-2.4
				c-1.4-0.1-2.5,0.9-2.6,2.3c0,0.1,0,0.2,0,0.3v5.8H288V162.5z"/>
			<path class="st1" d="M297.6,169.3c0-2.2,2.3-2.9,4.7-2.9h1.3v-0.7c0-1.5-0.6-2.1-2-2.1s-2,0.5-2.2,1.7H298
				c0.2-1.8,1.8-3.1,3.6-2.9c0,0,0.1,0,0.1,0c1.7-0.2,3.2,0.9,3.4,2.6c0,0.3,0,0.5,0,0.8v6.3h-1.5v-1.2c-0.7,0.9-1.8,1.4-2.9,1.4
				C299,172,297.6,171.2,297.6,169.3z M303.6,168.6v-1.2h-1.3c-1.9,0-3.3,0.5-3.3,1.9c0,1,0.5,1.6,1.8,1.6S303.7,170,303.6,168.6
				L303.6,168.6z"/>
			<path class="st1" d="M307.9,158h1.5v14h-1.5V158z"/>
			<path class="st1" d="M316.7,158h1.5v14h-1.5V158z"/>
			<path class="st1" d="M320.3,167.3v-0.1c-0.2-2.6,1.8-4.8,4.3-4.9c2.6-0.2,4.8,1.8,4.9,4.3c0,0.2,0,0.4,0,0.6v0.1
				c0.2,2.6-1.8,4.8-4.3,4.9c-2.6,0.2-4.8-1.8-4.9-4.3C320.3,167.7,320.3,167.5,320.3,167.3z M328,167.3v-0.1c0-2.2-1.2-3.6-3.1-3.6
				c-1.7,0-3.1,1.4-3.1,3.1c0,0.1,0,0.3,0,0.4v0.1c0,2.1,1.2,3.6,3.1,3.6S328,169.4,328,167.3L328,167.3z"/>
			<path class="st1" d="M330.8,169.3c0-2.2,2.3-2.9,4.7-2.9h1.4v-0.7c0-1.5-0.6-2.1-2-2.1s-2,0.5-2.2,1.7h-1.5
				c0.2-1.8,1.8-3.1,3.6-2.9c0,0,0.1,0,0.1,0c1.7-0.2,3.2,0.9,3.4,2.6c0,0.3,0,0.5,0,0.8v6.3h-1.5v-1.2c-0.7,0.9-1.8,1.3-2.9,1.2
				C332.2,172,330.8,171.2,330.8,169.3z M336.8,168.6v-1.2h-1.3c-1.9,0-3.3,0.5-3.3,1.9c0,1,0.5,1.6,1.8,1.6S336.9,170,336.8,168.6
				L336.8,168.6z"/>
			<path class="st1" d="M341.1,162.5h1.5v1.5c0.6-1.1,1.8-1.7,3-1.7c2,0,3.3,1.1,3.3,3.8v5.9h-1.5v-6c0-1.7-0.7-2.4-2.2-2.4
				c-1.4-0.1-2.5,0.9-2.6,2.3c0,0.1,0,0.2,0,0.2v5.8h-1.5L341.1,162.5z"/>
			<path class="st1" d="M356.4,163.8H355v-1.3h1.3V161c0-2,0.9-3,2.8-3c0.4,0,0.8,0.1,1.1,0.2v1.3c-0.3-0.1-0.7-0.2-1.1-0.2
				c-1,0-1.4,0.7-1.4,1.6v1.7h2.3v1.3h-2.3v8.2h-1.5L356.4,163.8z"/>
			<path class="st1" d="M362,162.5h1.5v1.7c0.6-1.2,1.8-1.9,3.1-1.8v1.4c-1.9,0-3.1,0.7-3.1,3v5.3H362V162.5z"/>
			<path class="st1" d="M367.5,167.3v-0.1c-0.2-2.6,1.8-4.8,4.3-4.9c2.6-0.2,4.8,1.8,4.9,4.3c0,0.2,0,0.4,0,0.6v0.1
				c0.2,2.6-1.8,4.8-4.3,4.9c-2.6,0.2-4.8-1.8-4.9-4.3C367.5,167.7,367.5,167.5,367.5,167.3z M375.3,167.3v-0.1
				c0-2.2-1.2-3.6-3.1-3.6s-3.1,1.4-3.1,3.6v0.1c0,2.1,1.2,3.6,3.1,3.6c1.7,0,3.1-1.4,3.1-3.2C375.3,167.5,375.3,167.4,375.3,167.3z
				"/>
			<path class="st1" d="M378.9,162.5h1.5v1.5c0.6-1,1.7-1.6,2.8-1.6c1.2-0.1,2.3,0.6,2.7,1.8c0.7-1.1,1.9-1.8,3.2-1.8
				c1.7,0,3.2,1,3.2,3.7v5.9h-1.5v-6c0-1.7-0.7-2.3-2-2.3c-1.3,0-2.4,1-2.5,2.3c0,0.1,0,0.1,0,0.2v5.8h-1.5v-6c0-1.7-0.7-2.3-2-2.3
				c-1.3-0.1-2.4,1-2.5,2.3c0,0.1,0,0.2,0,0.2v5.8h-1.5L378.9,162.5z"/>
			<path class="st1" d="M403,159h2l4.4,13h-1.6l-1.3-3.7h-5.3L400,172h-1.5L403,159z M401.7,167h4.5l-2.2-6.7L401.7,167z"/>
			<path class="st1" d="M413.7,167.1l-3.1-4.6h1.7l2.3,3.5l2.3-3.4h1.6l-3.1,4.5l3.4,5H417l-2.5-3.8L412,172h-1.6L413.7,167.1z"/>
			<path class="st1" d="M419.4,167.3v-0.1c-0.2-2.6,1.8-4.8,4.3-4.9c2.6-0.2,4.8,1.8,4.9,4.3c0,0.2,0,0.4,0,0.6v0.1
				c0.2,2.6-1.8,4.8-4.3,4.9c-2.6,0.2-4.8-1.8-4.9-4.3C419.4,167.7,419.4,167.5,419.4,167.3z M427.1,167.3v-0.1
				c0-2.2-1.2-3.6-3.1-3.6s-3.1,1.4-3.1,3.6v0.1c0,2.1,1.2,3.6,3.1,3.6c1.7,0,3.1-1.4,3.1-3.2C427.1,167.5,427.1,167.4,427.1,167.3z
				"/>
			<path class="st1" d="M430,169h1.5c0.1,1.1,0.7,1.8,2.2,1.8s2-0.5,2-1.5s-0.7-1.3-2.2-1.6c-2.4-0.5-3.3-1.1-3.3-2.8
				c0.2-1.6,1.6-2.8,3.2-2.6c1.7-0.2,3.2,0.9,3.4,2.6c0,0,0,0.1,0,0.1h-1.4c-0.2-1-0.8-1.5-2-1.5s-1.8,0.5-1.8,1.3s0.5,1.2,2.2,1.5
				s3.3,0.8,3.3,2.8c0,1.7-1.2,2.9-3.5,2.9S430,170.9,430,169z"/>
			<path class="st1" d="M443.7,159h3.9c2.4,0,4.1,0.8,4.1,3.3l0,0c0.1,1.3-0.8,2.4-2,2.7c1.6,0.1,2.7,1.5,2.6,3.1c0,0,0,0,0,0l0,0
				c0,2.4-1.6,3.6-4.2,3.6h-4.4L443.7,159z M447.6,164.7c1.9,0,2.6-0.7,2.6-2.3l0,0c0-1.5-0.8-2-2.6-2h-2.3v4.4L447.6,164.7z
				 M448.1,170.7c1.9,0,2.7-0.8,2.7-2.4l0,0c0-1.6-0.9-2.3-3-2.3h-2.6v4.8L448.1,170.7z"/>
			<path class="st1" d="M453.7,169.3c0-2.2,2.3-2.9,4.7-2.9h1.4v-0.7c0-1.5-0.6-2.1-2-2.1s-2,0.5-2.2,1.7h-1.5
				c0.2-1.8,1.8-3.1,3.6-2.9c0,0,0.1,0,0.1,0c1.7-0.2,3.2,0.9,3.4,2.6c0,0.3,0,0.5,0,0.8v6.3h-1.5v-1.2c-0.7,0.9-1.8,1.4-2.9,1.4
				C455.1,172,453.7,171.2,453.7,169.3z M459.7,168.6v-1.2h-1.3c-1.9,0-3.3,0.5-3.3,1.9c0,1,0.5,1.6,1.8,1.6
				C458.6,170.9,459.8,170,459.7,168.6L459.7,168.6z"/>
			<path class="st1" d="M464,162.5h1.5v1.5c0.6-1.1,1.8-1.7,3-1.7c2,0,3.3,1.1,3.3,3.8v5.9h-1.5v-6c0-1.7-0.7-2.4-2.2-2.4
				c-1.4-0.1-2.5,0.9-2.6,2.3c0,0.1,0,0.2,0,0.2v5.8H464V162.5z"/>
			<path class="st1" d="M474.4,158h1.6v8.8l3.9-4.3h1.8l-4,4.4l4.3,5.1h-1.8l-4.2-5v5h-1.5L474.4,158z"/>
			<path class="st1" d="M487,162.5h1.6l2.2,7.6l2.3-7.6h1.3l2.1,7.5l2.2-7.6h1.5l-2.9,9.6h-1.7l-2-7.1l-2.2,7.1h-1.6L487,162.5z"/>
			<path class="st1" d="M501.8,159.5c0-0.5,0.4-1,1-1l0,0c0.5,0,1,0.4,1,1c0,0.5-0.5,1-1,1C502.2,160.5,501.8,160.1,501.8,159.5z
				 M502,162.5h1.5v9.5H502L502,162.5z"/>
			<path class="st1" d="M506.6,169.6v-5.8h-1.4v-1.3h1.4v-2.1h1.5v2.1h2.2v1.3h-2.2v5.7c0,0.9,0.4,1.4,1.2,1.4
				c0.4,0,0.8-0.1,1.1-0.2v1.3c-0.4,0.1-0.8,0.2-1.3,0.2c-1.3,0.1-2.4-0.8-2.5-2C506.6,169.9,506.6,169.7,506.6,169.6z"/>
			<path class="st1" d="M512.4,158h1.6v6c0.6-1.1,1.8-1.7,3-1.7c2,0,3.3,1.1,3.3,3.8v5.9h-1.5v-6c0-1.7-0.7-2.4-2.2-2.4
				c-1.4-0.1-2.5,0.9-2.6,2.3c0,0.1,0,0.2,0,0.3v5.8h-1.5L512.4,158z"/>
			<path class="st1" d="M522.7,159.5c0-0.5,0.5-1,1-1c0.5,0,1,0.4,1,1c0,0.5-0.4,1-1,1C523.1,160.5,522.7,160.1,522.7,159.5z
				 M523,162.5h1.5v9.5H523V162.5z"/>
			<path class="st1" d="M527.2,162.5h1.5v1.5c0.6-1.1,1.8-1.7,3-1.7c2,0,3.3,1.1,3.3,3.8v5.9h-1.5v-6c0-1.7-0.7-2.4-2.2-2.4
				c-1.4-0.1-2.5,0.9-2.6,2.3c0,0.1,0,0.2,0,0.3v5.8h-1.5L527.2,162.5z"/>
			<path class="st1" d="M542.2,162.5h1.5v1.5c0.6-1,1.7-1.6,2.8-1.6c1.2-0.1,2.3,0.6,2.8,1.8c0.7-1.1,1.9-1.8,3.2-1.8
				c1.7,0,3.2,1,3.2,3.7v5.9h-1.5v-6c0-1.7-0.7-2.3-2-2.3c-1.3-0.1-2.4,1-2.5,2.3c0,0.1,0,0.2,0,0.2v5.8h-1.5v-6
				c0-1.7-0.7-2.3-2-2.3c-1.3-0.1-2.4,1-2.5,2.3c0,0.1,0,0.2,0,0.2v5.8h-1.5V162.5z"/>
			<path class="st1" d="M558.1,159.5c0-0.5,0.4-1,1-1c0.5,0,1,0.4,1,1c0,0.5-0.5,1-1,1C558.6,160.5,558.1,160.1,558.1,159.5z
				 M558.4,162.5h1.5v9.5h-1.5V162.5z"/>
			<path class="st1" d="M562.7,162.5h1.5v1.5c0.6-1.1,1.8-1.7,3-1.7c2,0,3.3,1.1,3.3,3.8v5.9H569v-6c0-1.7-0.7-2.4-2.2-2.4
				c-1.4-0.1-2.5,0.9-2.6,2.3c0,0.1,0,0.2,0,0.3v5.8h-1.5L562.7,162.5z"/>
			<path class="st1" d="M573.1,168.5v-6h1.5v5.9c0,1.7,0.7,2.4,2.2,2.4c1.4,0.1,2.5-1,2.6-2.4c0-0.1,0-0.2,0-0.2v-5.7h1.5v9.5h-1.5
				v-1.5c-0.6,1.1-1.8,1.7-3,1.7C574.5,172,573.1,171,573.1,168.5z"/>
			<path class="st1" d="M584,169.6v-5.8h-1.3v-1.3h1.3v-2.1h1.5v2.1h2.2v1.3h-2.2v5.7c0,0.9,0.4,1.4,1.2,1.4c0.4,0,0.8-0.1,1.2-0.2
				v1.3c-0.4,0.1-0.8,0.2-1.3,0.2c-1.3,0.1-2.4-0.7-2.5-2C584,169.9,584,169.7,584,169.6z"/>
			<path class="st1" d="M589,167.3v-0.1c-0.2-2.4,1.6-4.6,4-4.8c0.1,0,0.3,0,0.4,0c2.3-0.1,4.2,1.7,4.3,4c0,0.2,0,0.5,0,0.7v0.5
				h-7.1c0,2.1,1.1,3.3,3,3.3c1.4,0,2.3-0.5,2.5-1.6h1.5c-0.4,1.9-2.1,3.1-4,2.9c-2.4,0.1-4.5-1.8-4.6-4.3
				C589,167.6,589,167.5,589,167.3z M596.1,166.3c-0.1-2-1.1-2.7-2.7-2.7c-1.5,0-2.7,1.2-2.8,2.7H596.1z"/>
			<path class="st1" d="M599,169h1.5c0.1,1.1,0.7,1.8,2.2,1.8s2-0.5,2-1.5s-0.7-1.3-2.2-1.6c-2.5-0.5-3.3-1.1-3.3-2.8
				c0.2-1.6,1.6-2.8,3.2-2.6c1.7-0.2,3.2,0.9,3.4,2.6c0,0,0,0.1,0,0.1h-1.4c-0.2-1-0.8-1.5-2-1.5s-1.8,0.5-1.8,1.3s0.5,1.2,2.2,1.5
				s3.3,0.8,3.3,2.8c0,1.7-1.2,2.9-3.5,2.9S599.1,170.9,599,169z"/>
			<path class="st1" d="M612,167.3v-0.1c0-2.6,2.1-4.6,4.6-4.6c2.6,0,4.6,2.1,4.6,4.6c0,0,0,0,0,0v0.1c0,2.6-2.1,4.6-4.6,4.6
				C614.1,171.9,612,169.8,612,167.3C612,167.3,612,167.3,612,167.3z M619.7,167.3v-0.1c0-2.2-1.2-3.6-3.1-3.6s-3.1,1.4-3.1,3.6v0.1
				c0,2.1,1.2,3.6,3.1,3.6c1.7-0.1,3.1-1.5,3-3.2C619.6,167.5,619.6,167.4,619.7,167.3L619.7,167.3z"/>
			<path class="st1" d="M623.5,163.8h-1.4v-1.3h1.4V161c0-2,0.9-3,2.8-3c0.4,0,0.8,0.1,1.1,0.2v1.3c-0.3-0.1-0.7-0.2-1.1-0.2
				c-1,0-1.4,0.7-1.4,1.6v1.7h2.3v1.3H625v8.2h-1.5V163.8z"/>
			<path class="st1" d="M634,163.8h-1.4v-1.3h1.4V161c0-2,0.9-3,2.8-3c0.4,0,0.8,0.1,1.1,0.2v1.3c-0.3-0.1-0.7-0.2-1.1-0.2
				c-1,0-1.4,0.7-1.4,1.6v1.7h2.3v1.3h-2.3v8.2H634V163.8z"/>
			<path class="st1" d="M639.4,159.5c0-0.5,0.4-1,1-1c0.5,0,1,0.4,1,1c0,0.5-0.5,1-1,1C639.8,160.5,639.4,160.1,639.4,159.5z
				 M639.7,162.5h1.5v9.5h-1.5V162.5z"/>
			<path class="st1" d="M644,158h1.5v14H644V158z"/>
			<path class="st1" d="M648,159.5c0-0.5,0.4-1,1-1c0.5,0,1,0.4,1,1c0,0.5-0.5,1-1,1C648.4,160.5,648,160.1,648,159.5z M648.3,162.5
				h1.5v9.5h-1.5V162.5z"/>
			<path class="st1" d="M652.6,162.5h1.5v1.5c0.6-1.1,1.8-1.7,3-1.7c2,0,3.3,1.1,3.3,3.8v5.9h-1.5v-6c0-1.7-0.7-2.4-2.2-2.4
				c-1.4-0.1-2.5,0.9-2.6,2.3c0,0.1,0,0.2,0,0.2v5.8h-1.5V162.5z"/>
			<path class="st1" d="M662.6,172.5h1.5c0.2,1.1,1.1,1.6,2.7,1.6c1.5,0.2,2.8-0.8,3-2.2c0-0.2,0-0.4,0-0.7v-1.4
				c-0.7,1.1-1.9,1.7-3.2,1.8c-2.3,0-4.3-1.9-4.3-4.2c0-0.1,0-0.2,0-0.3V167c-0.1-2.5,1.8-4.6,4.2-4.7c0.1,0,0.1,0,0.2,0
				c1.3-0.1,2.4,0.6,3.1,1.7v-1.5h1.5v8.8c0,2.2-1.8,4-4,4c-0.2,0-0.4,0-0.5,0C664,175.4,662.9,174,662.6,172.5z M670,167v-0.1
				c0.2-1.6-0.9-3.1-2.4-3.3c-0.2,0-0.4,0-0.5,0c-1.7,0-3,1.3-3,3c0,0.1,0,0.3,0,0.4v0.1c-0.2,1.6,1,3.1,2.7,3.3c0.1,0,0.2,0,0.2,0
				c1.7,0,3.1-1.3,3.1-2.9C670,167.3,670,167.2,670,167z"/>
			<path class="st1" d="M674,170.9c0-0.6,0.5-1.2,1.1-1.2c0.6,0,1.2,0.5,1.2,1.1c0,0.6-0.5,1.2-1.1,1.2c0,0,0,0,0,0
				C674.5,172,674,171.5,674,170.9L674,170.9z"/>
			<path class="st1" d="M683.5,159h2l6.3,10.6V159h1.5v13h-1.8l-6.5-11v11h-1.5L683.5,159z"/>
			<path class="st1" d="M695.5,167.3v-0.1c-0.2-2.6,1.8-4.8,4.3-4.9c2.6-0.2,4.8,1.8,4.9,4.3c0,0.2,0,0.4,0,0.6v0.1
				c0.2,2.6-1.8,4.8-4.3,4.9c-2.6,0.2-4.8-1.8-4.9-4.3C695.5,167.7,695.5,167.5,695.5,167.3z M703.2,167.3v-0.1
				c0-2.2-1.2-3.6-3.1-3.6s-3.1,1.4-3.1,3.6v0.1c0,2.1,1.2,3.6,3.1,3.6c1.7,0,3.1-1.4,3.1-3.2C703.2,167.5,703.2,167.4,703.2,167.3
				L703.2,167.3z"/>
			<path class="st1" d="M707.1,169.6v-5.8h-1.4v-1.3h1.4v-2.1h1.5v2.1h2.2v1.3h-2.2v5.7c0,0.9,0.4,1.4,1.2,1.4
				c0.4,0,0.8-0.1,1.1-0.2v1.3c-0.4,0.1-0.8,0.2-1.3,0.2c-1.3,0.1-2.4-0.7-2.5-2C707.1,169.9,707.1,169.7,707.1,169.6z"/>
			<path class="st1" d="M720,170.9l-3.7-8.4h1.6l2.9,6.7l2.6-6.7h1.5l-5.2,12.7h-1.5L720,170.9z"/>
			<path class="st1" d="M725.7,167.3v-0.1c-0.2-2.6,1.8-4.8,4.3-4.9c2.6-0.2,4.8,1.8,4.9,4.3c0,0.2,0,0.4,0,0.6v0.1
				c0.2,2.6-1.8,4.8-4.3,4.9c-2.6,0.2-4.8-1.8-4.9-4.3C725.7,167.7,725.7,167.5,725.7,167.3z M733.4,167.3v-0.1
				c0-2.2-1.2-3.6-3.1-3.6s-3.1,1.4-3.1,3.6v0.1c0,2.1,1.2,3.6,3.1,3.6c1.7,0,3.1-1.4,3.1-3.2C733.4,167.5,733.4,167.4,733.4,167.3
				L733.4,167.3z"/>
			<path class="st1" d="M736.9,168.5v-6h1.5v5.9c0,1.7,0.7,2.4,2.2,2.4c1.4,0.1,2.5-1,2.6-2.4c0-0.1,0-0.1,0-0.2v-5.7h1.5v9.5h-1.5
				v-1.5c-0.6,1.1-1.7,1.7-3,1.7C738.3,172,736.9,171,736.9,168.5z"/>
			<path class="st1" d="M747.4,162.5h1.5v1.7c0.6-1.2,1.8-1.9,3.1-1.8v1.4c-1.9,0-3.1,0.7-3.1,3v5.3h-1.5V162.5z"/>
			<path class="st1" d="M758.7,169.6v-5.8h-1.4v-1.3h1.4v-2.1h1.5v2.1h2.2v1.3h-2.2v5.7c0,0.9,0.4,1.4,1.2,1.4
				c0.4,0,0.8-0.1,1.2-0.2v1.3c-0.4,0.1-0.8,0.2-1.3,0.2c-1.3,0.1-2.4-0.7-2.5-2C758.7,169.9,758.7,169.7,758.7,169.6z"/>
			<path class="st1" d="M763.8,169.3c0-2.2,2.3-2.9,4.7-2.9h1.4v-0.7c0-1.5-0.6-2.1-2-2.1s-2,0.5-2.2,1.7h-1.5
				c0.2-1.8,1.8-3.1,3.6-2.9c0,0,0,0,0,0c1.7-0.2,3.2,0.9,3.4,2.6c0,0.3,0,0.5,0,0.8v6.3H770v-1.2c-0.7,0.9-1.8,1.4-2.9,1.4
				C765.2,172,763.8,171.2,763.8,169.3z M769.8,168.6v-1.2h-1.3c-1.9,0-3.3,0.5-3.3,1.9c0,1,0.5,1.6,1.8,1.6s3-0.9,3-2.3
				L769.8,168.6z"/>
			<path class="st1" d="M776.4,167.1l-3.1-4.6h1.7l2.3,3.5l2.3-3.4h1.6l-3.1,4.5l3.4,5h-1.8l-2.5-3.8l-2.6,3.8h-1.6L776.4,167.1z"/>
			<path class="st1" d="M787.8,162.5h1.5v1.7c0.6-1.2,1.8-1.9,3.1-1.8v1.4c-1.9,0-3.1,0.7-3.1,3v5.3h-1.5V162.5z"/>
			<path class="st1" d="M793.3,167.3v-0.1c-0.2-2.4,1.6-4.6,4-4.8c0.1,0,0.3,0,0.4,0c2.3-0.1,4.2,1.7,4.3,3.9c0,0.2,0,0.5,0,0.7v0.5
				h-7.1c0,2.1,1.1,3.3,3,3.3c1.5,0,2.3-0.5,2.5-1.6h1.6c-0.4,1.9-2.1,3.1-4,2.9c-2.4,0.1-4.5-1.7-4.7-4.2
				C793.3,167.7,793.3,167.5,793.3,167.3z M800.4,166.3c-0.1-2-1.1-2.7-2.7-2.7c-1.5,0-2.7,1.2-2.8,2.7H800.4z"/>
			<path class="st1" d="M804.3,163.8H803v-1.3h1.4V161c0-2,0.9-3,2.8-3c0.4,0,0.8,0.1,1.1,0.2v1.3c-0.3-0.1-0.7-0.2-1.1-0.2
				c-1,0-1.4,0.7-1.4,1.6v1.7h2.3v1.3h-2.3v8.2h-1.5V163.8z"/>
			<path class="st1" d="M809.9,168.5v-6h1.5v5.9c0,1.7,0.7,2.4,2.2,2.4c1.4,0.1,2.5-1,2.6-2.4c0-0.1,0-0.2,0-0.2v-5.7h1.5v9.5h-1.5
				v-1.5c-0.6,1.1-1.8,1.7-3,1.7C811.3,172,809.9,171,809.9,168.5z"/>
			<path class="st1" d="M820.4,162.5h1.5v1.5c0.6-1.1,1.8-1.7,3-1.7c2,0,3.3,1.1,3.3,3.8v5.9h-1.5v-6c0-1.7-0.7-2.4-2.2-2.4
				c-1.4-0.1-2.5,0.9-2.6,2.3c0,0.1,0,0.2,0,0.2v5.8h-1.5V162.5z"/>
			<path class="st1" d="M830.2,167.4v-0.2c-0.2-2.5,1.5-4.6,4-4.9c0.1,0,0.3,0,0.4,0c1.3,0,2.4,0.6,3.1,1.7v-6h1.5v14h-1.5v-1.6
				c-0.7,1.1-1.9,1.8-3.2,1.8c-2.3,0-4.2-1.8-4.3-4.1C830.1,167.8,830.1,167.6,830.2,167.4z M837.7,167.3v-0.1c0-2.4-1.1-3.5-3-3.5
				s-3,1.3-3,3.6v0.1c0,2.4,1.3,3.5,2.9,3.5S837.7,169.7,837.7,167.3z"/>
			<path class="st1" d="M841.8,170.9c0-0.6,0.5-1.2,1.1-1.2c0.6,0,1.2,0.5,1.2,1.1c0,0.6-0.5,1.2-1.1,1.2c0,0,0,0,0,0
				C842.3,172,841.8,171.5,841.8,170.9L841.8,170.9z"/>
		</g>
	</g>
</g>
</svg>
