<svg xmlns="http://www.w3.org/2000/svg" viewBox="0 0 160 600"><title>Asset 12</title><g id="Layer_2" data-name="Layer 2"><g id="Rect"><rect width="160" height="600" fill="none"/></g><g id="Real-time_answers_for_your_real-time_questions." data-name="Real-time answers for your real-time questions."><path d="M21.66,146.77h6.72c4.49,0,7,1.82,7,5.45v.09a4.49,4.49,0,0,1-3.09,4.52l4.1,7.1H31.19l-3.49-6.14H26.55v6.14H21.66Zm6.48,7.82c1.65,0,2.47-.69,2.47-2.08v-.1c0-1.39-.87-1.94-2.45-1.94H26.55v4.12Z" fill="#fff"/><path d="M36.37,157.81v-.19c0-4,3-6.58,6.79-6.58,3.43,0,6.38,2,6.38,6.48v1.13H40.71a2.51,2.51,0,0,0,2.62,2.62c1.41,0,2-.65,2.18-1.49h4c-.38,2.83-2.56,4.44-6.36,4.44S36.37,161.92,36.37,157.81Zm9-1.58c-.07-1.52-.82-2.36-2.21-2.36a2.39,2.39,0,0,0-2.4,2.36Z" fill="#fff"/><path d="M50.43,160.45c0-2.95,2.5-4.1,6.67-4.1h1.2v-.29c0-1.2-.28-2-1.65-2a1.54,1.54,0,0,0-1.71,1.48h-4c.19-3,2.57-4.51,6-4.51s5.67,1.42,5.67,4.75v8.14H58.4v-1.46a4.12,4.12,0,0,1-3.72,1.75C52.42,164.22,50.43,163.12,50.43,160.45Zm7.87-.91v-.77H57.18c-1.73,0-2.5.34-2.5,1.37,0,.72.48,1.17,1.49,1.17C57.39,161.31,58.3,160.62,58.3,159.54Z" fill="#fff"/><path d="M64.78,145.86h4.28v18.07H64.78Z" fill="#fff"/><path d="M71.31,155.46H78v3.24H71.31Z" fill="#fff"/><path d="M80.74,159.9v-5.59H79.23v-2.93h1.51v-2.62H85v2.62h2.47v2.93H85v5.18a1.15,1.15,0,0,0,1.27,1.32,3.21,3.21,0,0,0,1.23-.22v3.27a9.26,9.26,0,0,1-2.38.36C82.33,164.22,80.74,162.85,80.74,159.9Z" fill="#fff"/><path d="M89.05,148a2.24,2.24,0,0,1,2.35-2.23,2.23,2.23,0,1,1,0,4.44A2.22,2.22,0,0,1,89.05,148Zm.21,3.41h4.3v12.55h-4.3Z" fill="#fff"/><path d="M95.86,151.38h4.3v1.92A4.39,4.39,0,0,1,104.1,151a3.41,3.41,0,0,1,3.4,2.09,5,5,0,0,1,4.16-2.09c2.37,0,4.1,1.54,4.1,4.68v8.21h-4.3v-7.49c0-1.27-.62-1.89-1.6-1.89a1.85,1.85,0,0,0-1.92,2.11v7.27h-4.25v-7.49c0-1.27-.63-1.89-1.61-1.89a1.86,1.86,0,0,0-1.92,2.11v7.27h-4.3Z" fill="#fff"/><path d="M117.17,157.81v-.19c0-4,3-6.58,6.8-6.58,3.43,0,6.38,2,6.38,6.48v1.13h-8.83a2.51,2.51,0,0,0,2.61,2.62c1.42,0,2-.65,2.19-1.49h4c-.38,2.83-2.57,4.44-6.36,4.44S117.17,161.92,117.17,157.81Zm9-1.58c-.08-1.52-.82-2.36-2.21-2.36a2.38,2.38,0,0,0-2.4,2.36Z" fill="#fff"/><path d="M20.55,189.45c0-2.95,2.5-4.1,6.67-4.1h1.2v-.29c0-1.2-.28-2-1.65-2a1.54,1.54,0,0,0-1.71,1.48H21c.19-3,2.57-4.51,6-4.51s5.67,1.42,5.67,4.75v8.14H28.52v-1.46a4.12,4.12,0,0,1-3.72,1.75C22.54,193.22,20.55,192.12,20.55,189.45Zm7.87-.91v-.77H27.3c-1.73,0-2.5.34-2.5,1.37,0,.72.48,1.17,1.49,1.17C27.51,190.31,28.42,189.62,28.42,188.54Z" fill="#fff"/><path d="M34.78,180.38h4.3v2A4.44,4.44,0,0,1,43.21,180c2.42,0,4.1,1.51,4.1,4.73v8.16H43v-7.3c0-1.41-.56-2.11-1.8-2.11s-2.14.77-2.14,2.38v7h-4.3Z" fill="#fff"/><path d="M48.56,189h4c.14.91.55,1.41,1.78,1.41,1.05,0,1.53-.4,1.53-1s-.6-.89-2.33-1.13c-3.36-.43-4.77-1.41-4.77-4,0-2.78,2.47-4.13,5.37-4.13,3.1,0,5.26,1.06,5.55,4.06H55.76a1.4,1.4,0,0,0-1.61-1.25c-.93,0-1.41.41-1.41,1s.57.84,2.11,1c3.48.43,5.16,1.34,5.16,4,0,3-2.21,4.32-5.69,4.32S48.66,191.73,48.56,189Z" fill="#fff"/><path d="M60.06,180.38h4.48l1.83,7.51,2.11-7.51h3.46l1.87,7.51,2-7.51h4.08l-4,12.55H71.84l-1.87-7-2,7H63.85Z" fill="#fff"/><path d="M79.81,186.81v-.19c0-4,3-6.58,6.79-6.58C90,180,93,182,93,186.52v1.13H84.15a2.51,2.51,0,0,0,2.62,2.62c1.41,0,2-.65,2.18-1.49h4c-.38,2.83-2.56,4.44-6.36,4.44S79.81,190.92,79.81,186.81Zm9-1.58c-.07-1.52-.82-2.36-2.21-2.36a2.39,2.39,0,0,0-2.4,2.36Z" fill="#fff"/><path d="M94.47,180.38h4.3v2.49a4,4,0,0,1,4-2.66v4c-2.61-.07-4,.74-4,2.76v6h-4.3Z" fill="#fff"/><path d="M103.59,189h4c.15.91.55,1.41,1.78,1.41,1,0,1.53-.4,1.53-1s-.6-.89-2.32-1.13c-3.37-.43-4.78-1.41-4.78-4,0-2.78,2.47-4.13,5.38-4.13,3.09,0,5.25,1.06,5.54,4.06h-3.89a1.4,1.4,0,0,0-1.61-1.25c-.93,0-1.41.41-1.41,1s.57.84,2.11,1c3.48.43,5.16,1.34,5.16,4,0,3-2.21,4.32-5.69,4.32S103.69,191.73,103.59,189Z" fill="#fff"/><path d="M21.92,212.31H20.34v-2.93h1.58v-1.11c0-3.12,1.94-4.6,4.92-4.6a7.91,7.91,0,0,1,2,.26v3.14a4.2,4.2,0,0,0-1.18-.16,1.26,1.26,0,0,0-1.44,1.36v1.11h2.55v2.93H26.19v9.62H21.92Z" fill="#fff"/><path d="M29.07,215.81v-.19c0-4,3-6.58,6.89-6.58s6.84,2.47,6.84,6.46v.19c0,4.08-3,6.53-6.86,6.53S29.07,219.87,29.07,215.81Zm9.36-.07v-.19c0-2.12-.84-3.29-2.47-3.29s-2.5,1.13-2.5,3.24v.19c0,2.16.84,3.34,2.5,3.34S38.43,217.83,38.43,215.74Z" fill="#fff"/><path d="M44.31,209.38h4.3v2.49a4,4,0,0,1,4-2.66v4c-2.61-.07-4,.74-4,2.76v6h-4.3Z" fill="#fff"/><path d="M62.53,220.66l-5-11.28h4.66l2.59,6.69,2.4-6.69h4.1l-6.72,16.75h-4.1Z" fill="#fff"/><path d="M71,215.81v-.19c0-4,3-6.58,6.89-6.58s6.84,2.47,6.84,6.46v.19c0,4.08-3,6.53-6.86,6.53S71,219.87,71,215.81Zm9.36-.07v-.19c0-2.12-.84-3.29-2.47-3.29s-2.49,1.13-2.49,3.24v.19c0,2.16.84,3.34,2.49,3.34S80.38,217.83,80.38,215.74Z" fill="#fff"/><path d="M86.17,217.56v-8.18h4.29v7.49c0,1.41.56,2.11,1.78,2.11s2.14-.77,2.14-2.38v-7.22h4.29v12.55H94.38V220a4.15,4.15,0,0,1-4,2.23C88,222.22,86.17,220.73,86.17,217.56Z" fill="#fff"/><path d="M100.85,209.38h4.3v2.49a4,4,0,0,1,4.06-2.66v4c-2.62-.07-4.06.74-4.06,2.76v6h-4.3Z" fill="#fff"/><path d="M21.27,238.38h4.3v2.49a4,4,0,0,1,4.05-2.66v4c-2.61-.07-4.05.74-4.05,2.76v6h-4.3Z" fill="#fff"/><path d="M30.39,244.81v-.19c0-4,3-6.58,6.79-6.58,3.44,0,6.39,2,6.39,6.48v1.13H34.74a2.51,2.51,0,0,0,2.61,2.62c1.42,0,2-.65,2.19-1.49h4c-.38,2.83-2.57,4.44-6.36,4.44S30.39,248.92,30.39,244.81Zm9-1.58c-.07-1.52-.81-2.36-2.21-2.36a2.4,2.4,0,0,0-2.4,2.36Z" fill="#fff"/><path d="M44.46,247.45c0-2.95,2.49-4.1,6.67-4.1h1.2v-.29c0-1.2-.29-2-1.66-2a1.53,1.53,0,0,0-1.7,1.48h-4c.19-3,2.56-4.51,6-4.51s5.66,1.42,5.66,4.75v8.14H52.42v-1.46a4.12,4.12,0,0,1-3.72,1.75C46.45,251.22,44.46,250.12,44.46,247.45Zm7.87-.91v-.77H51.2c-1.73,0-2.5.34-2.5,1.37,0,.72.48,1.17,1.49,1.17C51.42,248.31,52.33,247.62,52.33,246.54Z" fill="#fff"/><path d="M58.81,232.86h4.27v18.07H58.81Z" fill="#fff"/><path d="M65.34,242.46h6.72v3.24H65.34Z" fill="#fff"/><path d="M74.77,246.9v-5.59H73.25v-2.93h1.52v-2.62h4.29v2.62h2.48v2.93H79.06v5.18a1.15,1.15,0,0,0,1.28,1.32,3.12,3.12,0,0,0,1.22-.22v3.27a9.19,9.19,0,0,1-2.38.36C76.35,251.22,74.77,249.85,74.77,246.9Z" fill="#fff"/><path d="M83.07,235a2.37,2.37,0,1,1,2.35,2.21A2.24,2.24,0,0,1,83.07,235Zm.22,3.41h4.29v12.55H83.29Z" fill="#fff"/><path d="M89.89,238.38h4.29v1.92A4.41,4.41,0,0,1,98.12,238a3.42,3.42,0,0,1,3.41,2.09,5,5,0,0,1,4.15-2.09c2.38,0,4.1,1.54,4.1,4.68v8.21h-4.29v-7.49c0-1.27-.63-1.89-1.61-1.89a1.86,1.86,0,0,0-1.92,2.11v7.27H97.71v-7.49c0-1.27-.62-1.89-1.61-1.89a1.86,1.86,0,0,0-1.92,2.11v7.27H89.89Z" fill="#fff"/><path d="M111.2,244.81v-.19c0-4,3-6.58,6.79-6.58,3.43,0,6.39,2,6.39,6.48v1.13h-8.84a2.51,2.51,0,0,0,2.62,2.62c1.42,0,2-.65,2.18-1.49h4c-.39,2.83-2.57,4.44-6.36,4.44S111.2,248.92,111.2,244.81Zm9-1.58c-.07-1.52-.82-2.36-2.21-2.36a2.4,2.4,0,0,0-2.4,2.36Z" fill="#fff"/><path d="M29.84,278a4.33,4.33,0,0,1-3.91,2.23c-2.91,0-5.28-2.09-5.28-6.43v-.2C20.65,269.32,23,267,26,267a4.07,4.07,0,0,1,3.86,2.11v-1.77h4.3v16.75h-4.3Zm.12-4.28v-.19c0-2.11-.89-3.24-2.47-3.24S25,271.36,25,273.55v.19c0,2.11.93,3.19,2.42,3.19S30,275.85,30,273.71Z" fill="#fff"/><path d="M36.22,275.56v-8.18h4.3v7.49c0,1.41.55,2.11,1.78,2.11s2.13-.77,2.13-2.38v-7.22h4.3v12.55h-4.3V278a4.12,4.12,0,0,1-4,2.23C38,280.22,36.22,278.73,36.22,275.56Z" fill="#fff"/><path d="M50.24,273.81v-.19c0-4,3-6.58,6.79-6.58,3.43,0,6.39,2,6.39,6.48v1.13H54.58a2.51,2.51,0,0,0,2.62,2.62c1.42,0,2-.65,2.18-1.49h4c-.39,2.83-2.57,4.44-6.36,4.44C53.12,280.22,50.24,277.92,50.24,273.81Zm9-1.58c-.07-1.52-.82-2.36-2.21-2.36a2.4,2.4,0,0,0-2.4,2.36Z" fill="#fff"/><path d="M64.18,276h4c.15.91.56,1.41,1.78,1.41,1.06,0,1.54-.4,1.54-1s-.6-.89-2.33-1.13c-3.36-.43-4.78-1.41-4.78-4,0-2.78,2.47-4.13,5.38-4.13,3.09,0,5.25,1.06,5.54,4.06H71.38a1.39,1.39,0,0,0-1.6-1.25c-.94,0-1.42.41-1.42,1s.58.84,2.11,1c3.48.43,5.16,1.34,5.16,4,0,3-2.21,4.32-5.69,4.32S64.28,278.73,64.18,276Z" fill="#fff"/><path d="M77.6,275.9v-5.59H76.09v-2.93H77.6v-2.62h4.3v2.62h2.47v2.93H81.9v5.18c0,.91.45,1.32,1.27,1.32a3.12,3.12,0,0,0,1.22-.22v3.27a9.18,9.18,0,0,1-2.37.36C79.18,280.22,77.6,278.85,77.6,275.9Z" fill="#fff"/><path d="M85.9,264a2.37,2.37,0,1,1,2.35,2.21A2.24,2.24,0,0,1,85.9,264Zm.22,3.41h4.3v12.55h-4.3Z" fill="#fff"/><path d="M92.05,273.81v-.19c0-4,3-6.58,6.89-6.58s6.84,2.47,6.84,6.46v.19c0,4.08-3,6.53-6.87,6.53S92.05,277.87,92.05,273.81Zm9.36-.07v-.19c0-2.12-.84-3.29-2.47-3.29s-2.5,1.13-2.5,3.24v.19c0,2.16.84,3.34,2.5,3.34S101.41,275.83,101.41,273.74Z" fill="#fff"/><path d="M107.29,267.38h4.29v2a4.44,4.44,0,0,1,4.13-2.35c2.43,0,4.11,1.51,4.11,4.73v8.16h-4.3v-7.3c0-1.41-.55-2.11-1.8-2.11s-2.14.77-2.14,2.38v7h-4.29Z" fill="#fff"/><path d="M121.06,276h4c.15.91.56,1.41,1.78,1.41,1.06,0,1.53-.4,1.53-1s-.59-.89-2.32-1.13c-3.36-.43-4.78-1.41-4.78-4,0-2.78,2.47-4.13,5.38-4.13,3.09,0,5.25,1.06,5.54,4.06h-3.89a1.39,1.39,0,0,0-1.6-1.25c-.94,0-1.42.41-1.42,1s.58.84,2.11,1c3.48.43,5.16,1.34,5.16,4,0,3-2.21,4.32-5.69,4.32S121.16,278.73,121.06,276Z" fill="#fff"/><path d="M133.73,277.77a2.4,2.4,0,0,1,2.45-2.42,2.43,2.43,0,1,1,0,4.85A2.4,2.4,0,0,1,133.73,277.77Z" fill="#fff"/></g></g></svg>