<svg xmlns="http://www.w3.org/2000/svg" viewBox="0 0 728 90"><title>H51</title><g id="Layer_2" data-name="Layer 2"><g id="Rect"><rect width="728" height="90" fill="none"/></g><g id="H51"><g id="Power_hour._Your_taxes_could_be_done_in_an_hour." data-name="Power hour. Your taxes could be done in an hour."><path d="M122.28,15.25h9c6.47,0,9.48,2.87,9.48,7.89v.13c0,4.95-3.34,7.62-9.18,7.62H129v8h-6.73Zm8.68,11c2.18,0,3.33-1,3.33-3v-.13c0-2-1.19-2.84-3.3-2.84h-2v5.94Z" fill="#fff"/><path d="M141.25,30.43v-.26c0-5.55,4.13-9,9.47-9s9.41,3.4,9.41,8.88v.27c0,5.61-4.12,9-9.44,9S141.25,36,141.25,30.43Zm12.87-.1v-.26c0-2.9-1.15-4.52-3.4-4.52s-3.43,1.55-3.43,4.45v.27c0,3,1.16,4.58,3.43,4.58S154.12,33.21,154.12,30.33Z" fill="#fff"/><path d="M160.19,21.59h6.18l2.5,10.33,2.91-10.33h4.75l2.58,10.33,2.8-10.33h5.61L182,38.85H176.4l-2.57-9.64-2.68,9.64h-5.74Z" fill="#fff"/><path d="M187.35,30.43v-.26c0-5.55,4.13-9,9.34-9,4.72,0,8.78,2.71,8.78,8.92v1.55H193.33c.16,2.27,1.48,3.6,3.59,3.6,2,0,2.78-.9,3-2h5.54c-.53,3.89-3.53,6.1-8.74,6.1C191.31,39.24,187.35,36.08,187.35,30.43Zm12.38-2.18c-.1-2.08-1.12-3.23-3-3.23s-3,1.15-3.3,3.23Z" fill="#fff"/><path d="M207.52,21.59h5.9V25A5.44,5.44,0,0,1,219,21.36v5.51c-3.6-.1-5.58,1-5.58,3.79v8.19h-5.9Z" fill="#fff"/><path d="M227.15,14h5.91V24.36a6.09,6.09,0,0,1,5.67-3.24c3.34,0,5.65,2.08,5.65,6.51V38.85h-5.91v-10c0-1.95-.76-2.91-2.47-2.91s-2.94,1.06-2.94,3.27v9.67h-5.91Z" fill="#fff"/><path d="M246.32,30.43v-.26c0-5.55,4.13-9,9.47-9s9.41,3.4,9.41,8.88v.27c0,5.61-4.12,9-9.44,9S246.32,36,246.32,30.43Zm12.87-.1v-.26c0-2.9-1.15-4.52-3.4-4.52s-3.43,1.55-3.43,4.45v.27c0,3,1.16,4.58,3.43,4.58S259.19,33.21,259.19,30.33Z" fill="#fff"/><path d="M267.15,32.84V21.59h5.9V31.88c0,1.95.76,2.91,2.45,2.91s2.93-1.06,2.93-3.27V21.59h5.91V38.85h-5.91V36.18A5.66,5.66,0,0,1,273,39.24C269.62,39.24,267.15,37.2,267.15,32.84Z" fill="#fff"/><path d="M287.34,21.59h5.91V25a5.43,5.43,0,0,1,5.58-3.66v5.51c-3.6-.1-5.58,1-5.58,3.79v8.19h-5.91Z" fill="#fff"/><path d="M298.76,35.88a3.3,3.3,0,0,1,3.37-3.34,3.34,3.34,0,1,1,0,6.67A3.29,3.29,0,0,1,298.76,35.88Z" fill="#fff"/><path d="M320.57,28.75l-7.69-13.5h7.36l4,8,4-7.95h6.47l-7.33,13.5v10.1h-6.8Z" fill="#fff"/><path d="M332.22,30.43v-.26c0-5.55,4.13-9,9.47-9s9.41,3.4,9.41,8.88v.27c0,5.61-4.13,9-9.44,9S332.22,36,332.22,30.43Zm12.87-.1v-.26c0-2.9-1.15-4.52-3.4-4.52s-3.43,1.55-3.43,4.45v.27c0,3,1.16,4.58,3.43,4.58S345.09,33.21,345.09,30.33Z" fill="#fff"/><path d="M353,32.84V21.59H359V31.88c0,1.95.76,2.91,2.44,2.91s2.94-1.06,2.94-3.27V21.59h5.91V38.85h-5.91V36.18a5.67,5.67,0,0,1-5.48,3.06C355.52,39.24,353,37.2,353,32.84Z" fill="#fff"/><path d="M373.24,21.59h5.91V25a5.43,5.43,0,0,1,5.57-3.66v5.51c-3.59-.1-5.57,1-5.57,3.79v8.19h-5.91Z" fill="#fff"/><path d="M393.67,33.3V25.61h-2.08v-4h2.08V18h5.9v3.6H403v4h-3.4v7.13c0,1.26.63,1.82,1.75,1.82a4.5,4.5,0,0,0,1.69-.3v4.49a12.42,12.42,0,0,1-3.27.49C395.84,39.24,393.67,37.36,393.67,33.3Z" fill="#fff"/><path d="M404.29,34.06c0-4.06,3.43-5.64,9.18-5.64h1.65V28c0-1.65-.4-2.74-2.28-2.74a2.12,2.12,0,0,0-2.34,2H405c.26-4.16,3.53-6.21,8.25-6.21S421,23.07,421,27.66V38.85h-5.74v-2c-.83,1.25-2.34,2.4-5.12,2.4C407,39.24,404.29,37.73,404.29,34.06Zm10.83-1.25V31.75h-1.55c-2.38,0-3.44.46-3.44,1.88,0,1,.66,1.62,2.05,1.62C413.86,35.25,415.12,34.29,415.12,32.81Z" fill="#fff"/><path d="M428.22,30.07l-5.38-8.48h6.8l2.67,4.55,2.61-4.55H441l-5.45,8,6,9.24h-6.8l-3.07-5.15-3.14,5.15h-6Z" fill="#fff"/><path d="M440.76,30.43v-.26c0-5.55,4.12-9,9.34-9,4.72,0,8.78,2.71,8.78,8.92v1.55H446.73c.16,2.27,1.48,3.6,3.6,3.6,1.94,0,2.77-.9,3-2h5.55c-.53,3.89-3.54,6.1-8.75,6.1C444.72,39.24,440.76,36.08,440.76,30.43Zm12.37-2.18C453,26.17,452,25,450.1,25s-3,1.15-3.31,3.23Z" fill="#fff"/><path d="M459.93,33.37h5.44c.2,1.25.76,2,2.45,2,1.45,0,2.11-.56,2.11-1.42s-.83-1.22-3.2-1.55c-4.62-.6-6.57-2-6.57-5.55,0-3.83,3.4-5.68,7.39-5.68,4.26,0,7.23,1.46,7.63,5.58h-5.35A1.93,1.93,0,0,0,467.62,25c-1.29,0-1.95.56-1.95,1.35s.79,1.16,2.91,1.42c4.78.59,7.09,1.85,7.09,5.54,0,4.1-3,5.94-7.82,5.94S460.06,37.2,459.93,33.37Z" fill="#fff"/><path d="M120.83,65.43v-.26c0-5.74,4.12-9.05,9.2-9.05,4.23,0,8.12,1.85,8.45,7.1h-5.54c-.27-1.62-1.06-2.51-2.77-2.51-2.08,0-3.3,1.49-3.3,4.39v.27c0,3,1.15,4.55,3.39,4.55a2.88,2.88,0,0,0,3-2.87h5.31c-.16,4.36-3.1,7.2-8.68,7.2C124.75,74.25,120.83,71.24,120.83,65.43Z" fill="#fff"/><path d="M139.57,65.43v-.26c0-5.55,4.12-9.05,9.47-9.05s9.41,3.4,9.41,8.88v.27c0,5.61-4.13,9-9.44,9S139.57,71,139.57,65.43Zm12.87-.1v-.26c0-2.9-1.15-4.52-3.4-4.52s-3.43,1.55-3.43,4.45v.27c0,3,1.15,4.59,3.43,4.59S152.44,68.21,152.44,65.33Z" fill="#fff"/><path d="M160.39,67.84V56.59h5.91V66.88c0,2,.76,2.91,2.44,2.91s2.94-1.06,2.94-3.27V56.59h5.91V73.85h-5.91V71.18a5.67,5.67,0,0,1-5.48,3.07C162.87,74.25,160.39,72.2,160.39,67.84Z" fill="#fff"/><path d="M180.75,49h5.88V73.85h-5.88Z" fill="#fff"/><path d="M188.94,65.4v-.26c0-5.88,3.23-9,7.32-9A5.6,5.6,0,0,1,201.58,59V49h5.9V73.85h-5.9V71a5.82,5.82,0,0,1-5.38,3.21C192.2,74.25,188.94,71.37,188.94,65.4Zm12.8-.1V65c0-2.91-1.22-4.46-3.4-4.46s-3.4,1.49-3.4,4.49v.26c0,2.91,1.29,4.39,3.34,4.39S201.74,68.24,201.74,65.3Z" fill="#fff"/><path d="M222.4,71.18v2.67h-5.91V49h5.91V59.16a6.09,6.09,0,0,1,5.38-3c4,0,7.29,3,7.29,8.95v.26c0,5.94-3.27,8.92-7.32,8.92A5.61,5.61,0,0,1,222.4,71.18Zm6.67-5.85v-.26c0-3-1.32-4.49-3.4-4.49s-3.44,1.55-3.44,4.46v.26c0,2.94,1.29,4.42,3.44,4.42S229.07,68.17,229.07,65.33Z" fill="#fff"/><path d="M236.29,65.43v-.26c0-5.55,4.13-9.05,9.34-9.05,4.72,0,8.78,2.71,8.78,8.92v1.55H242.26c.17,2.28,1.49,3.6,3.6,3.6,1.95,0,2.77-.9,3-2h5.54c-.53,3.89-3.53,6.11-8.75,6.11C240.25,74.25,236.29,71.08,236.29,65.43Zm12.38-2.18c-.1-2.08-1.13-3.23-3-3.23s-3,1.15-3.3,3.23Z" fill="#fff"/><path d="M261.6,65.4v-.26c0-5.88,3.23-9,7.33-9A5.6,5.6,0,0,1,274.24,59V49h5.91V73.85h-5.91V71a5.81,5.81,0,0,1-5.38,3.21C264.87,74.25,261.6,71.37,261.6,65.4Zm12.81-.1V65c0-2.91-1.22-4.46-3.4-4.46s-3.4,1.49-3.4,4.49v.26c0,2.91,1.28,4.39,3.33,4.39S274.41,68.24,274.41,65.3Z" fill="#fff"/><path d="M282.23,65.43v-.26c0-5.55,4.12-9.05,9.47-9.05s9.4,3.4,9.4,8.88v.27c0,5.61-4.12,9-9.43,9S282.23,71,282.23,65.43Zm12.87-.1v-.26c0-2.9-1.16-4.52-3.4-4.52s-3.43,1.55-3.43,4.45v.27c0,3,1.15,4.59,3.43,4.59S295.1,68.21,295.1,65.33Z" fill="#fff"/><path d="M303.18,56.59h5.91v2.77a6.09,6.09,0,0,1,5.68-3.24c3.33,0,5.64,2.08,5.64,6.51V73.85H314.5v-10c0-2-.76-2.91-2.47-2.91s-2.94,1.06-2.94,3.27v9.67h-5.91Z" fill="#fff"/><path d="M322.35,65.43v-.26c0-5.55,4.13-9.05,9.34-9.05,4.72,0,8.78,2.71,8.78,8.92v1.55H328.33c.16,2.28,1.48,3.6,3.59,3.6,1.95,0,2.78-.9,3-2h5.54c-.53,3.89-3.53,6.11-8.74,6.11C326.31,74.25,322.35,71.08,322.35,65.43Zm12.38-2.18c-.1-2.08-1.12-3.23-3-3.23s-3,1.15-3.3,3.23Z" fill="#fff"/><path d="M348.39,51.9a3.26,3.26,0,1,1,3.23,3A3.08,3.08,0,0,1,348.39,51.9Zm.3,4.69h5.9V73.85h-5.9Z" fill="#fff"/><path d="M357.76,56.59h5.91v2.77a6.09,6.09,0,0,1,5.68-3.24c3.33,0,5.64,2.08,5.64,6.51V73.85h-5.91v-10c0-2-.76-2.91-2.47-2.91s-2.94,1.06-2.94,3.27v9.67h-5.91Z" fill="#fff"/><path d="M382.87,69.06c0-4.06,3.44-5.64,9.18-5.64h1.65V63c0-1.65-.4-2.74-2.28-2.74a2.12,2.12,0,0,0-2.34,2h-5.55c.27-4.16,3.54-6.21,8.26-6.21s7.78,2,7.78,6.54V73.85h-5.74v-2a5.65,5.65,0,0,1-5.11,2.42C385.61,74.25,382.87,72.73,382.87,69.06Zm10.83-1.25V66.75h-1.55c-2.38,0-3.43.46-3.43,1.88,0,1,.66,1.62,2,1.62C392.45,70.25,393.7,69.29,393.7,67.81Z" fill="#fff"/><path d="M402.44,56.59h5.91v2.77A6.1,6.1,0,0,1,414,56.12c3.33,0,5.64,2.08,5.64,6.51V73.85h-5.91v-10c0-2-.76-2.91-2.47-2.91s-2.94,1.06-2.94,3.27v9.67h-5.91Z" fill="#fff"/><path d="M428.54,49h5.91V59.36a6.11,6.11,0,0,1,5.68-3.24c3.33,0,5.64,2.08,5.64,6.51V73.85h-5.9v-10c0-2-.76-2.91-2.48-2.91s-2.94,1.06-2.94,3.27v9.67h-5.91Z" fill="#fff"/><path d="M447.72,65.43v-.26c0-5.55,4.12-9.05,9.47-9.05s9.41,3.4,9.41,8.88v.27c0,5.61-4.13,9-9.44,9S447.72,71,447.72,65.43Zm12.87-.1v-.26c0-2.9-1.16-4.52-3.4-4.52s-3.43,1.55-3.43,4.45v.27c0,3,1.15,4.59,3.43,4.59S460.59,68.21,460.59,65.33Z" fill="#fff"/><path d="M468.54,67.84V56.59h5.91V66.88c0,2,.76,2.91,2.44,2.91s2.94-1.06,2.94-3.27V56.59h5.91V73.85h-5.91V71.18a5.69,5.69,0,0,1-5.48,3.07C471,74.25,468.54,72.2,468.54,67.84Z" fill="#fff"/><path d="M488.74,56.59h5.9V60a5.44,5.44,0,0,1,5.58-3.66v5.51c-3.6-.1-5.58,1-5.58,3.79v8.19h-5.9Z" fill="#fff"/><path d="M500.15,70.88a3.3,3.3,0,0,1,3.37-3.34,3.34,3.34,0,1,1,0,6.67A3.29,3.29,0,0,1,500.15,70.88Z" fill="#fff"/></g></g></g></svg>