<svg xmlns="http://www.w3.org/2000/svg" viewBox="0 0 300 250"><title>Asset 3</title><g id="Layer_2" data-name="Layer 2"><g id="Rect"><rect width="300" height="250" fill="none"/></g><g id="Expert_tax_prep_available_through_July_15." data-name="Expert tax prep available through July 15."><path d="M23.14,35.82H38.46v4.89h-9v3.82h7.17v4.53H29.46v4H39V58H23.14Z" fill="#fff"/><path d="M45.31,49.74l-5.06-8h6.39l2.51,4.28,2.45-4.28h5.7L52.19,49.3,57.8,58H51.41l-2.88-4.84-3,4.84H39.91Z" fill="#fff"/><path d="M59.35,41.77H64.9v2.42a5.72,5.72,0,0,1,5-2.86c3.78,0,6.85,2.86,6.85,8.41V50c0,5.58-3.07,8.37-6.88,8.37a5.34,5.34,0,0,1-5-2.76v7.81H59.35ZM71.16,50v-.25c0-2.85-1.24-4.22-3.19-4.22S64.74,47,64.74,49.71V50c0,2.75,1.21,4.15,3.23,4.15S71.16,52.65,71.16,50Z" fill="#fff"/><path d="M78,50.08v-.25c0-5.21,3.87-8.5,8.77-8.5,4.44,0,8.25,2.55,8.25,8.38v1.45H83.56c.15,2.14,1.39,3.38,3.38,3.38,1.83,0,2.6-.83,2.82-1.92H95c-.5,3.66-3.32,5.74-8.22,5.74C81.67,58.36,78,55.38,78,50.08Zm11.62-2c-.09-2-1-3-2.85-3s-2.82,1.09-3.1,3Z" fill="#fff"/><path d="M96.89,41.77h5.55V45a5.12,5.12,0,0,1,5.24-3.44v5.18c-3.38-.09-5.24,1-5.24,3.57V58H96.89Z" fill="#fff"/><path d="M110.68,52.78V45.55h-2V41.77h2V38.39h5.55v3.38h3.2v3.78h-3.2v6.7a1.48,1.48,0,0,0,1.65,1.7,4.36,4.36,0,0,0,1.58-.27v4.21a11.52,11.52,0,0,1-3.07.47C112.73,58.36,110.68,56.59,110.68,52.78Z" fill="#fff"/><path d="M127.92,52.78V45.55h-2V41.77h2V38.39h5.55v3.38h3.19v3.78h-3.19v6.7c0,1.18.59,1.7,1.64,1.7a4.33,4.33,0,0,0,1.58-.27v4.21a11.45,11.45,0,0,1-3.07.47C130,58.36,127.92,56.59,127.92,52.78Z" fill="#fff"/><path d="M137.9,53.49c0-3.81,3.22-5.3,8.62-5.3h1.55v-.37c0-1.55-.37-2.58-2.14-2.58a2,2,0,0,0-2.2,1.92h-5.21c.25-3.9,3.32-5.83,7.75-5.83s7.32,1.83,7.32,6.14V58h-5.4v-1.9a5.31,5.31,0,0,1-4.8,2.27C140.47,58.36,137.9,56.93,137.9,53.49Zm10.17-1.18v-1h-1.46c-2.23,0-3.22.43-3.22,1.77,0,.93.62,1.52,1.92,1.52C146.89,54.61,148.07,53.71,148.07,52.31Z" fill="#fff"/><path d="M160.38,49.74l-5.06-8h6.39l2.51,4.28,2.45-4.28h5.7l-5.11,7.53L172.87,58h-6.39l-2.88-4.84L160.65,58H155Z" fill="#fff"/><path d="M180.06,41.77h5.55v2.42a5.72,5.72,0,0,1,5-2.86c3.78,0,6.85,2.86,6.85,8.41V50c0,5.58-3.07,8.37-6.88,8.37a5.34,5.34,0,0,1-5-2.76v7.81h-5.55ZM191.87,50v-.25c0-2.85-1.24-4.22-3.19-4.22s-3.23,1.46-3.23,4.19V50c0,2.75,1.21,4.15,3.23,4.15S191.87,52.65,191.87,50Z" fill="#fff"/><path d="M199.53,41.77h5.55V45a5.11,5.11,0,0,1,5.24-3.44v5.18c-3.38-.09-5.24,1-5.24,3.57V58h-5.55Z" fill="#fff"/><path d="M211.3,50.08v-.25c0-5.21,3.88-8.5,8.78-8.5,4.43,0,8.25,2.55,8.25,8.38v1.45H216.92c.15,2.14,1.39,3.38,3.38,3.38,1.83,0,2.6-.83,2.82-1.92h5.21c-.5,3.66-3.32,5.74-8.22,5.74C215,58.36,211.3,55.38,211.3,50.08Zm11.63-2c-.09-2-1.05-3-2.85-3s-2.82,1.09-3.1,3Z" fill="#fff"/><path d="M230.25,41.77h5.55v2.42a5.72,5.72,0,0,1,5-2.86c3.78,0,6.85,2.86,6.85,8.41V50c0,5.58-3.07,8.37-6.88,8.37a5.34,5.34,0,0,1-5-2.76v7.81h-5.55ZM242.06,50v-.25c0-2.85-1.24-4.22-3.19-4.22s-3.23,1.46-3.23,4.19V50c0,2.75,1.21,4.15,3.23,4.15S242.06,52.65,242.06,50Z" fill="#fff"/><path d="M21.71,88.9c0-3.81,3.23-5.3,8.62-5.3h1.55v-.37c0-1.56-.37-2.58-2.14-2.58a2,2,0,0,0-2.2,1.92H22.33c.25-3.9,3.32-5.82,7.75-5.82s7.32,1.82,7.32,6.13V93.4H32V91.5a5.33,5.33,0,0,1-4.81,2.27C24.29,93.77,21.71,92.34,21.71,88.9Zm10.17-1.18v-1H30.43c-2.24,0-3.23.43-3.23,1.77,0,.93.62,1.52,1.92,1.52C30.71,90,31.88,89.12,31.88,87.72Z" fill="#fff"/><path d="M38.24,77.18h5.92l3.38,10.45,3.32-10.45h5.3L50.24,93.4H44.19Z" fill="#fff"/><path d="M55.94,88.9c0-3.81,3.22-5.3,8.62-5.3h1.55v-.37c0-1.56-.38-2.58-2.14-2.58a2,2,0,0,0-2.2,1.92H56.56c.24-3.9,3.31-5.82,7.75-5.82s7.32,1.82,7.32,6.13V93.4h-5.4V91.5a5.32,5.32,0,0,1-4.81,2.27C58.51,93.77,55.94,92.34,55.94,88.9Zm10.17-1.18v-1H64.65c-2.23,0-3.23.43-3.23,1.77,0,.93.62,1.52,1.93,1.52C64.93,90,66.11,89.12,66.11,87.72Z" fill="#fff"/><path d="M74.2,72.78a3.06,3.06,0,1,1,3,2.85A2.89,2.89,0,0,1,74.2,72.78Zm.27,4.4H80V93.4H74.47Z" fill="#fff"/><path d="M83.15,70.05h5.52V93.4H83.15Z" fill="#fff"/><path d="M90.72,88.9c0-3.81,3.22-5.3,8.62-5.3h1.55v-.37c0-1.56-.37-2.58-2.14-2.58a2,2,0,0,0-2.2,1.92H91.34c.25-3.9,3.32-5.82,7.75-5.82s7.32,1.82,7.32,6.13V93.4H101V91.5a5.31,5.31,0,0,1-4.8,2.27C93.29,93.77,90.72,92.34,90.72,88.9Zm10.17-1.18v-1H99.43c-2.23,0-3.22.43-3.22,1.77,0,.93.62,1.52,1.92,1.52C99.71,90,100.89,89.12,100.89,87.72Z" fill="#fff"/><path d="M114.65,90.88V93.4H109.1V70.05h5.55V79.6a5.73,5.73,0,0,1,5.06-2.85c3.78,0,6.85,2.85,6.85,8.4v.25c0,5.58-3.07,8.37-6.89,8.37A5.26,5.26,0,0,1,114.65,90.88Zm6.26-5.48v-.25c0-2.86-1.24-4.22-3.19-4.22s-3.22,1.46-3.22,4.19v.24c0,2.76,1.21,4.16,3.22,4.16S120.91,88.06,120.91,85.4Z" fill="#fff"/><path d="M128.72,70.05h5.52V93.4h-5.52Z" fill="#fff"/><path d="M136.35,85.49v-.25c0-5.21,3.87-8.49,8.77-8.49,4.44,0,8.25,2.54,8.25,8.37v1.45H142c.16,2.14,1.4,3.38,3.38,3.38,1.83,0,2.61-.83,2.82-1.92h5.21c-.49,3.66-3.32,5.74-8.22,5.74C140.07,93.77,136.35,90.79,136.35,85.49Zm11.63-2c-.1-2-1.06-3-2.86-3s-2.82,1.09-3.1,3Z" fill="#fff"/><path d="M161.68,88.19V81h-2V77.18h2V73.8h5.55v3.38h3.19V81h-3.19v6.7c0,1.18.58,1.7,1.64,1.7a4.16,4.16,0,0,0,1.58-.28V93.3a11.45,11.45,0,0,1-3.07.47C163.72,93.77,161.68,92,161.68,88.19Z" fill="#fff"/><path d="M172.53,70.05h5.55v9.73a5.71,5.71,0,0,1,5.33-3c3.13,0,5.3,2,5.3,6.1V93.4h-5.55V84c0-1.83-.71-2.73-2.33-2.73s-2.75,1-2.75,3.07V93.4h-5.55Z" fill="#fff"/><path d="M191.4,77.18H197V80.4A5.13,5.13,0,0,1,202.19,77v5.18c-3.38-.09-5.24,1-5.24,3.57V93.4H191.4Z" fill="#fff"/><path d="M203.18,85.49v-.25c0-5.21,3.88-8.49,8.9-8.49s8.84,3.19,8.84,8.34v.24c0,5.27-3.88,8.44-8.87,8.44S203.18,90.73,203.18,85.49Zm12.1-.09v-.25c0-2.73-1.09-4.25-3.2-4.25s-3.22,1.46-3.22,4.19v.24c0,2.79,1.08,4.31,3.22,4.31S215.28,88.09,215.28,85.4Z" fill="#fff"/><path d="M222.75,87.75V77.18h5.54v9.67c0,1.83.72,2.73,2.3,2.73s2.76-1,2.76-3.07V77.18h5.55V93.4h-5.55V90.88a5.33,5.33,0,0,1-5.15,2.89C225.07,93.77,222.75,91.84,222.75,87.75Z" fill="#fff"/><path d="M240.82,93.4h5.52c.24,1.17,1,2.1,3,2.1,2.45,0,3.44-1.39,3.44-3.41V89.61a5.67,5.67,0,0,1-5,3c-3.78,0-6.88-2.79-6.88-7.78v-.25c0-4.78,3.07-7.81,6.88-7.81a5.27,5.27,0,0,1,5,2.72V77.18h5.55V92c0,4.84-3.19,7.38-9,7.38C243.79,99.41,241.25,97.08,240.82,93.4Zm12.09-8.62v-.22c0-2.23-1.15-3.66-3.19-3.66s-3.2,1.46-3.2,3.69v.25c0,2.23,1.18,3.66,3.17,3.66S252.91,87.07,252.91,84.78Z" fill="#fff"/><path d="M261.12,70.05h5.55v9.73a5.73,5.73,0,0,1,5.33-3c3.14,0,5.31,2,5.31,6.1V93.4h-5.55V84c0-1.83-.72-2.73-2.33-2.73s-2.76,1-2.76,3.07V93.4h-5.55Z" fill="#fff"/><path d="M22,128.34V123.6a7.74,7.74,0,0,0,2.7.43c1.74,0,2.88-.78,2.88-3.07V106.64H34V121c0,5.34-2.73,8.06-7.94,8.06A8.61,8.61,0,0,1,22,128.34Z" fill="#fff"/><path d="M36.78,123.16V112.59h5.55v9.67c0,1.83.71,2.73,2.29,2.73s2.76-1,2.76-3.07v-9.33h5.55V128.8H47.38v-2.51a5.31,5.31,0,0,1-5.14,2.89C39.1,129.18,36.78,127.25,36.78,123.16Z" fill="#fff"/><path d="M55.91,105.46h5.51V128.8H55.91Z" fill="#fff"/><path d="M69.48,127.16,63,112.59h6l3.35,8.65,3.1-8.65h5.3l-8.68,21.64h-5.3Z" fill="#fff"/><path d="M91.4,112.9l-4.22,2.6v-5.3l5.09-3.56h5.49V128.8H91.4Z" fill="#fff"/><path d="M100.48,121.83h5.77c.22,1.55.84,2.57,2.88,2.57,1.83,0,2.67-1.36,2.67-3.13a2.82,2.82,0,0,0-3-3.16,4.53,4.53,0,0,0-3.66,1.58h-3.78l.47-13h14.94v4.65H106.41l-.13,4.9a5.91,5.91,0,0,1,5.18-2.36c4.06,0,6.73,2.73,6.73,7.53s-3.38,7.82-9,7.82C103.3,129.18,100.64,126,100.48,121.83Z" fill="#fff"/><path d="M119.18,126a3.09,3.09,0,0,1,3.16-3.13,3.14,3.14,0,1,1,0,6.27A3.09,3.09,0,0,1,119.18,126Z" fill="#fff"/></g></g></svg>