<svg xmlns="http://www.w3.org/2000/svg" viewBox="0 0 300 250"><title>H40</title><g id="Layer_2" data-name="Layer 2"><g id="Artboard_3" data-name="Artboard 3" style="isolation:isolate"><g id="headline1"><g id="Pay_more_to_do_taxes_Not_with_H_R_Block." data-name="Pay more to do taxes? Not with H&amp;R Block."><path d="M23.83,28.26h9.36c6.75,0,9.88,3,9.88,8.22v.14c0,5.17-3.47,8-9.57,8H30.85v8.3h-7Zm9.05,11.49c2.28,0,3.48-1.06,3.48-3.09v-.14c0-2.1-1.24-3-3.44-3H30.85v6.19Z" fill="#fff"/><path d="M43.56,47.88c0-4.24,3.58-5.89,9.57-5.89h1.72v-.41c0-1.72-.41-2.86-2.38-2.86A2.21,2.21,0,0,0,50,40.86H44.25c.27-4.34,3.68-6.48,8.6-6.48S61,36.42,61,41.2V52.87H55v-2.1c-.86,1.31-2.45,2.51-5.34,2.51C46.42,53.28,43.56,51.7,43.56,47.88Zm11.29-1.31v-1.1H53.23c-2.48,0-3.58.48-3.58,2,0,1,.69,1.69,2.14,1.69C53.54,49.12,54.85,48.12,54.85,46.57Z" fill="#fff"/><path d="M69,51,61.81,34.87h6.68l3.71,9.6,3.45-9.6h5.88l-9.64,24H66Z" fill="#fff"/><path d="M89.38,34.87h6.17v2.75a6.28,6.28,0,0,1,5.64-3.24,4.91,4.91,0,0,1,4.89,3,7.14,7.14,0,0,1,6-3c3.4,0,5.88,2.21,5.88,6.72V52.87h-6.16V42.13c0-1.83-.89-2.72-2.31-2.72-1.65,0-2.75,1.07-2.75,3V52.87h-6.09V42.13c0-1.83-.9-2.72-2.31-2.72-1.65,0-2.75,1.07-2.75,3V52.87H89.38Z" fill="#fff"/><path d="M120,44.09v-.27c0-5.79,4.3-9.44,9.88-9.44s9.81,3.55,9.81,9.26v.28c0,5.85-4.3,9.36-9.85,9.36S120,49.91,120,44.09Zm13.42-.1v-.28c0-3-1.2-4.71-3.54-4.71s-3.58,1.61-3.58,4.64v.28c0,3.1,1.2,4.78,3.58,4.78S133.38,47,133.38,44Z" fill="#fff"/><path d="M141.82,34.87H148v3.58a5.66,5.66,0,0,1,5.82-3.82v5.74c-3.75-.1-5.82,1.07-5.82,4v8.54h-6.16Z" fill="#fff"/><path d="M154.91,44.09v-.27c0-5.79,4.3-9.44,9.74-9.44,4.92,0,9.15,2.83,9.15,9.3V45.3H161.14c.17,2.37,1.55,3.75,3.75,3.75,2,0,2.89-.93,3.13-2.14h5.78c-.55,4.07-3.68,6.37-9.12,6.37C159,53.28,154.91,50,154.91,44.09Zm12.91-2.27c-.11-2.17-1.18-3.37-3.17-3.37s-3.13,1.2-3.44,3.37Z" fill="#fff"/><path d="M183,47.09v-8h-2.16v-4.2H183V31.11h6.17v3.76h3.54v4.2H189.2V46.5c0,1.31.65,1.89,1.82,1.89a4.64,4.64,0,0,0,1.76-.31v4.69a13.37,13.37,0,0,1-3.41.51C185.31,53.28,183,51.32,183,47.09Z" fill="#fff"/><path d="M194.12,44.09v-.27c0-5.79,4.3-9.44,9.88-9.44s9.81,3.55,9.81,9.26v.28c0,5.85-4.3,9.36-9.84,9.36S194.12,49.91,194.12,44.09Zm13.43-.1v-.28c0-3-1.21-4.71-3.55-4.71s-3.58,1.61-3.58,4.64v.28c0,3.1,1.21,4.78,3.58,4.78S207.55,47,207.55,44Z" fill="#fff"/><path d="M221.36,44.06v-.28c0-6.13,3.37-9.4,7.64-9.4a5.84,5.84,0,0,1,5.54,3V27h6.16V52.87h-6.16V49.94a6.06,6.06,0,0,1-5.61,3.34C224.76,53.28,221.36,50.29,221.36,44.06ZM234.71,44v-.27c0-3-1.27-4.65-3.54-4.65s-3.55,1.55-3.55,4.68V44c0,3,1.34,4.58,3.48,4.58S234.71,47,234.71,44Z" fill="#fff"/><path d="M242.88,44.09v-.27c0-5.79,4.3-9.44,9.87-9.44s9.82,3.55,9.82,9.26v.28c0,5.85-4.31,9.36-9.85,9.36S242.88,49.91,242.88,44.09ZM256.3,44v-.28c0-3-1.2-4.71-3.55-4.71s-3.58,1.61-3.58,4.64v.28c0,3.1,1.21,4.78,3.58,4.78S256.3,47,256.3,44Z" fill="#fff"/><path d="M24.11,89.73v-8H21.94v-4.2h2.17V73.76h6.16v3.75h3.54v4.2H30.27v7.43c0,1.31.65,1.9,1.82,1.9a4.84,4.84,0,0,0,1.76-.31v4.68a12.81,12.81,0,0,1-3.41.52C26.38,95.93,24.11,94,24.11,89.73Z" fill="#fff"/><path d="M35.19,90.52c0-4.23,3.58-5.89,9.57-5.89h1.72v-.41c0-1.72-.41-2.86-2.37-2.86a2.22,2.22,0,0,0-2.45,2.14H35.88c.28-4.34,3.68-6.47,8.61-6.47s8.12,2,8.12,6.81V95.51h-6v-2.1c-.86,1.31-2.44,2.52-5.34,2.52C38.05,95.93,35.19,94.34,35.19,90.52Zm11.29-1.31v-1.1H44.86c-2.47,0-3.58.48-3.58,2,0,1,.69,1.69,2.14,1.69C45.17,91.76,46.48,90.76,46.48,89.21Z" fill="#fff"/><path d="M60.15,86.36l-5.61-8.85h7.09l2.79,4.75,2.72-4.75h6.33l-5.68,8.36L74,95.51h-7.1l-3.2-5.37-3.27,5.37h-6.3Z" fill="#fff"/><path d="M73.24,86.73v-.27c0-5.78,4.3-9.43,9.74-9.43,4.92,0,9.16,2.82,9.16,9.29v1.62H79.47c.17,2.37,1.55,3.75,3.75,3.75,2,0,2.89-.93,3.13-2.13h5.79c-.56,4.06-3.69,6.37-9.13,6.37C77.37,95.93,73.24,92.62,73.24,86.73Zm12.91-2.27C86,82.29,85,81.09,83,81.09s-3.13,1.2-3.44,3.37Z" fill="#fff"/><path d="M93.24,89.8h5.68c.21,1.31.79,2,2.55,2,1.51,0,2.2-.59,2.2-1.48s-.86-1.27-3.34-1.62c-4.82-.62-6.85-2-6.85-5.78,0-4,3.55-5.92,7.71-5.92,4.44,0,7.54,1.51,8,5.81h-5.57a2,2,0,0,0-2.31-1.79c-1.34,0-2,.59-2,1.42s.83,1.2,3,1.48c5,.62,7.4,1.92,7.4,5.78,0,4.27-3.17,6.2-8.16,6.2S93.38,93.79,93.24,89.8Z" fill="#fff"/><path d="M115,86.77c0-2.62,1.79-4.27,3.37-5.78,1.17-1.14,2.24-2.17,2.24-3.38a1.84,1.84,0,0,0-2.1-2.06c-1.48,0-2.48,1.13-2.72,3h-6c.17-5.2,3.89-8,9.19-8s8.29,2.38,8.29,6.48a7,7,0,0,1-2.51,5.16c-1.68,1.69-3.65,3-4,4.72v.51H115Zm-.8,5.71a3.69,3.69,0,0,1,7.37,0,3.7,3.7,0,0,1-7.37,0Z" fill="#fff"/><path d="M136.42,70.9h8l7.88,13.87V70.9h6.16V95.51H151.6l-9-15.45V95.51h-6.19Z" fill="#fff"/><path d="M160.9,86.73v-.27c0-5.78,4.3-9.43,9.88-9.43s9.81,3.54,9.81,9.26v.27c0,5.85-4.3,9.37-9.85,9.37S160.9,92.55,160.9,86.73Zm13.42-.1v-.27c0-3-1.2-4.72-3.54-4.72s-3.58,1.62-3.58,4.65v.27c0,3.1,1.2,4.79,3.58,4.79S174.32,89.63,174.32,86.63Z" fill="#fff"/><path d="M183.59,89.73v-8h-2.17v-4.2h2.17V73.76h6.16v3.75h3.54v4.2h-3.54v7.43c0,1.31.65,1.9,1.82,1.9a4.84,4.84,0,0,0,1.76-.31v4.68a12.74,12.74,0,0,1-3.41.52C185.86,95.93,183.59,94,183.59,89.73Z" fill="#fff"/><path d="M200.39,77.51h6.44l2.61,10.77,3-10.77h5l2.69,10.77L223,77.51h5.85l-5.71,18h-5.89l-2.68-10.05-2.79,10.05h-6Z" fill="#fff"/><path d="M230.34,72.62a3.4,3.4,0,1,1,3.38,3.17A3.22,3.22,0,0,1,230.34,72.62Zm.31,4.89h6.17v18h-6.17Z" fill="#fff"/><path d="M241,89.73v-8h-2.17v-4.2H241V73.76h6.16v3.75h3.55v4.2h-3.55v7.43c0,1.31.65,1.9,1.82,1.9a4.84,4.84,0,0,0,1.76-.31v4.68a12.74,12.74,0,0,1-3.41.52C243.22,95.93,241,94,241,89.73Z" fill="#fff"/><path d="M253,69.59h6.16V80.4A6.36,6.36,0,0,1,265.08,77c3.48,0,5.89,2.17,5.89,6.78v11.7h-6.16V85.05c0-2-.8-3-2.59-3s-3.06,1.1-3.06,3.41V95.51H253Z" fill="#fff"/><path d="M23.83,113.54h7.09v9.4H39v-9.4h7.06v24.61H39v-9.7H30.92v9.7H23.83Z" fill="#fff"/><path d="M69.69,133.13l4.09,5h-8l-1.44-1.79a9.8,9.8,0,0,1-6.65,2.21c-5.23,0-8.64-2.76-8.64-7.44C49,128,51,125.62,54.44,124a7.82,7.82,0,0,1-1.52-4.3c0-4.2,3.58-6.44,7.92-6.44,3.92,0,7.47,2,7.47,5.75,0,2.69-1.58,4.65-4.92,6.09l3.1,3.79,1.79-3.51h5.37Zm-8.54-.72-3.89-4.69a2.92,2.92,0,0,0-1.65,2.66,2.86,2.86,0,0,0,3.13,3.06A3.25,3.25,0,0,0,61.15,132.41Zm-.76-9.92c1.66-.79,2.45-1.72,2.45-3A1.78,1.78,0,0,0,61,117.6a2,2,0,0,0-2,2.14A4.53,4.53,0,0,0,60.39,122.49Z" fill="#fff"/><path d="M76,113.54h9.64c6.43,0,10,2.62,10,7.82v.13A6.43,6.43,0,0,1,91.24,128l5.89,10.19H89.69l-5-8.81H83.05v8.81H76Zm9.29,11.22c2.38,0,3.55-1,3.55-3v-.14c0-2-1.24-2.79-3.51-2.79H83.05v5.92Z" fill="#fff"/><path d="M105.77,113.54h11c5.82,0,8.3,2.62,8.3,6.44v.14a5.08,5.08,0,0,1-4.16,5.3c3,.51,4.92,2.34,4.92,5.75v.13c0,4.41-2.86,6.85-9,6.85H105.77Zm9.57,9.78c2.21,0,3-.76,3-2.52v-.13c0-1.69-.89-2.45-3-2.45h-2.68v5.1Zm.24,10.12c2.24,0,3.27-1,3.27-2.86v-.14c0-1.86-1-2.82-3.47-2.82h-2.72v5.82Z" fill="#fff"/><path d="M128.26,112.23h6.12v25.92h-6.12Z" fill="#fff"/><path d="M136.73,129.38v-.28c0-5.78,4.3-9.43,9.88-9.43s9.81,3.54,9.81,9.26v.27c0,5.86-4.31,9.37-9.85,9.37S136.73,135.19,136.73,129.38Zm13.42-.11V129c0-3-1.2-4.72-3.54-4.72S143,125.9,143,128.93v.27c0,3.1,1.2,4.79,3.58,4.79S150.15,132.27,150.15,129.27Z" fill="#fff"/><path d="M157.63,129.38v-.28c0-6,4.3-9.43,9.6-9.43,4.41,0,8.47,1.93,8.81,7.4h-5.78c-.28-1.69-1.1-2.62-2.89-2.62-2.17,0-3.45,1.55-3.45,4.58v.28c0,3.13,1.21,4.75,3.55,4.75a3,3,0,0,0,3.13-3h5.55c-.18,4.55-3.24,7.51-9.06,7.51C161.72,138.57,157.63,135.43,157.63,129.38Z" fill="#fff"/><path d="M178.15,112.23h6.16v15l4.85-7.13h6.4l-5.88,8.09,6.37,9.91h-6.89l-4.85-7.88v7.88h-6.16Z" fill="#fff"/><path d="M197.25,135.06a3.44,3.44,0,0,1,3.52-3.48,3.48,3.48,0,1,1,0,6.95A3.43,3.43,0,0,1,197.25,135.06Z" fill="#fff"/></g><g id="Layer_10" data-name="Layer 10"><rect width="300" height="250" fill="none"/></g></g></g></g></svg>