<svg xmlns="http://www.w3.org/2000/svg" viewBox="0 0 160 600"><title>H8</title><g id="Layer_2" data-name="Layer 2"><g id="Artboard_3" data-name="Artboard 3" style="isolation:isolate"><g id="headline1"><g id="Ready_for_your_refund_Get_expert_tax_prep_from_home_with_Tax" data-name="Ready  for your refund? Get expert tax prep from home with  Tax"><path d="M18.51,116.6h6.15c4.1,0,6.38,1.67,6.38,5v.09a4.09,4.09,0,0,1-2.83,4.12l3.75,6.5H27.23L24,126.67H23v5.62H18.51Zm5.93,7.15c1.51,0,2.26-.64,2.26-1.91v-.09c0-1.27-.79-1.77-2.24-1.77H23v3.77Z" fill="#fff"/><path d="M32,126.69v-.17a5.87,5.87,0,0,1,6.21-6c3.13,0,5.83,1.8,5.83,5.93v1H35.94a2.29,2.29,0,0,0,2.39,2.39c1.29,0,1.84-.59,2-1.36H44c-.35,2.59-2.34,4.06-5.81,4.06S32,130.44,32,126.69Zm8.22-1.45c-.06-1.38-.74-2.15-2-2.15a2.19,2.19,0,0,0-2.2,2.15Z" fill="#fff"/><path d="M44.83,129.1c0-2.69,2.28-3.75,6.1-3.75H52v-.26c0-1.1-.26-1.82-1.51-1.82A1.41,1.41,0,0,0,49,124.63H45.26c.18-2.77,2.35-4.13,5.49-4.13s5.18,1.3,5.18,4.35v7.44H52.11V131a3.78,3.78,0,0,1-3.4,1.6C46.65,132.55,44.83,131.54,44.83,129.1Zm7.19-.83v-.7H51c-1.58,0-2.28.31-2.28,1.25,0,.66.44,1.08,1.36,1.08A1.73,1.73,0,0,0,52,128.27Z" fill="#fff"/><path d="M57.27,126.67v-.18c0-3.9,2.15-6,4.87-6a3.72,3.72,0,0,1,3.53,1.93v-6.67H69.6v16.53H65.67v-1.87a3.85,3.85,0,0,1-3.57,2.13C59.44,132.55,57.27,130.64,57.27,126.67Zm8.51-.07v-.17c0-1.93-.81-3-2.26-3s-2.26,1-2.26,3v.18c0,1.93.86,2.91,2.22,2.91S65.78,128.56,65.78,126.6Z" fill="#fff"/><path d="M75.2,131.12l-4.59-10.31h4.26l2.37,6.12,2.19-6.12h3.75L77,136.13H73.29Z" fill="#fff"/><path d="M18.76,149.09H17.31v-2.68h1.45v-1c0-2.85,1.77-4.21,4.49-4.21a7,7,0,0,1,1.8.24v2.88a3.45,3.45,0,0,0-1.07-.16,1.16,1.16,0,0,0-1.32,1.25v1H25v2.68H22.66v8.8h-3.9Z" fill="#fff"/><path d="M25.29,152.29v-.17c0-3.69,2.75-6,6.3-6s6.26,2.26,6.26,5.9v.17c0,3.74-2.75,6-6.28,6S25.29,156,25.29,152.29Zm8.56-.06v-.18c0-1.93-.77-3-2.26-3s-2.28,1-2.28,3v.17c0,2,.77,3,2.28,3S33.85,154.14,33.85,152.23Z" fill="#fff"/><path d="M39.23,146.41h3.93v2.29a3.61,3.61,0,0,1,3.71-2.44v3.66c-2.4-.06-3.71.68-3.71,2.53v5.44H39.23Z" fill="#fff"/><path d="M55.89,156.73,51.3,146.41h4.26l2.37,6.13,2.19-6.13h3.75l-6.14,15.32H54Z" fill="#fff"/><path d="M63.65,152.29v-.17c0-3.69,2.75-6,6.3-6s6.26,2.26,6.26,5.9v.17c0,3.74-2.75,6-6.28,6S63.65,156,63.65,152.29Zm8.56-.06v-.18c0-1.93-.77-3-2.26-3s-2.28,1-2.28,3v.17c0,2,.77,3,2.28,3S72.21,154.14,72.21,152.23Z" fill="#fff"/><path d="M77.5,153.9v-7.49h3.93v6.85c0,1.29.5,1.93,1.62,1.93s2-.7,2-2.17v-6.61h3.92v11.48H85v-1.78a3.78,3.78,0,0,1-3.65,2C79.15,158.15,77.5,156.79,77.5,153.9Z" fill="#fff"/><path d="M90.93,146.41h3.93v2.29a3.61,3.61,0,0,1,3.71-2.44v3.66c-2.39-.06-3.71.68-3.71,2.53v5.44H90.93Z" fill="#fff"/><path d="M18.16,172h3.93v2.28a3.62,3.62,0,0,1,3.71-2.44v3.67c-2.39-.07-3.71.68-3.71,2.52v5.44H18.16Z" fill="#fff"/><path d="M26.5,177.9v-.18a5.88,5.88,0,0,1,6.21-6c3.14,0,5.84,1.8,5.84,5.92v1H30.47a2.3,2.3,0,0,0,2.4,2.39c1.29,0,1.84-.6,2-1.36h3.69c-.35,2.59-2.35,4.06-5.82,4.06S26.5,181.65,26.5,177.9Zm8.23-1.45c-.06-1.38-.75-2.15-2-2.15a2.19,2.19,0,0,0-2.19,2.15Z" fill="#fff"/><path d="M40.5,174.69H39.06V172H40.5v-1c0-2.86,1.78-4.22,4.5-4.22a6.62,6.62,0,0,1,1.8.25v2.87a3.53,3.53,0,0,0-1.07-.15A1.15,1.15,0,0,0,44.41,171v1h2.32v2.67H44.41v8.8H40.5Z" fill="#fff"/><path d="M48,179.5V172h3.93v6.84c0,1.3.51,1.93,1.63,1.93s1.95-.7,1.95-2.17V172H59.4v11.47H55.47v-1.78a3.77,3.77,0,0,1-3.64,2C49.61,183.76,48,182.4,48,179.5Z" fill="#fff"/><path d="M61.39,172h3.93v1.84a4.06,4.06,0,0,1,3.78-2.15c2.21,0,3.75,1.38,3.75,4.32v7.46H68.92v-6.67c0-1.29-.5-1.93-1.65-1.93s-2,.7-2,2.17v6.43H61.39Z" fill="#fff"/><path d="M74.19,177.88v-.18c0-3.91,2.15-6,4.87-6a3.72,3.72,0,0,1,3.53,1.93V167h3.93v16.52H82.59v-1.86A3.87,3.87,0,0,1,79,183.76C76.36,183.76,74.19,181.85,74.19,177.88Zm8.51-.07v-.18c0-1.93-.81-3-2.26-3s-2.26,1-2.26,3v.17c0,1.93.86,2.92,2.22,2.92S82.7,179.76,82.7,177.81Z" fill="#fff"/><path d="M91.06,177.92c0-1.67,1.15-2.72,2.15-3.69.75-.72,1.43-1.38,1.43-2.15a1.17,1.17,0,0,0-1.34-1.31c-.94,0-1.58.72-1.73,1.93H87.75c.11-3.32,2.48-5.12,5.86-5.12s5.29,1.52,5.29,4.13A4.46,4.46,0,0,1,97.3,175c-1.08,1.08-2.33,1.93-2.53,3v.33H91.06Zm-.5,3.64a2.36,2.36,0,1,1,2.37,2.17A2.28,2.28,0,0,1,90.56,181.56Z" fill="#fff"/><path d="M103.9,175.75v-.18c0-4.78,3.51-8,8.23-8,3.71,0,7,1.69,7.31,5.77H115a2.5,2.5,0,0,0-2.83-2.24c-2.21,0-3.55,1.72-3.55,4.55v.17c0,2.55.94,4.52,3.66,4.52,2.2,0,3-1.12,3.12-2.37h-2.94v-3.13h7.37v1.93c0,4-2.61,7-7.68,7C106.8,183.76,103.9,180.44,103.9,175.75Z" fill="#fff"/><path d="M120.71,177.9v-.18a5.87,5.87,0,0,1,6.21-6c3.14,0,5.84,1.8,5.84,5.92v1h-8.08a2.3,2.3,0,0,0,2.4,2.39c1.29,0,1.84-.6,2-1.36h3.69c-.35,2.59-2.35,4.06-5.82,4.06S120.71,181.65,120.71,177.9Zm8.23-1.45c-.07-1.38-.75-2.15-2-2.15a2.18,2.18,0,0,0-2.19,2.15Z" fill="#fff"/><path d="M134.65,179.81v-5.12h-1.39V172h1.39v-2.39h3.92V172h2.26v2.67h-2.26v4.74a1.05,1.05,0,0,0,1.17,1.21,3.06,3.06,0,0,0,1.12-.2v3a8.35,8.35,0,0,1-2.18.33C136.09,183.76,134.65,182.5,134.65,179.81Z" fill="#fff"/><path d="M17.55,203.5v-.18a5.87,5.87,0,0,1,6.21-6c3.14,0,5.83,1.8,5.83,5.93v1H21.52a2.29,2.29,0,0,0,2.39,2.39c1.3,0,1.84-.59,2-1.36h3.68c-.35,2.59-2.34,4.06-5.81,4.06S17.55,207.25,17.55,203.5Zm8.23-1.45c-.07-1.38-.75-2.15-2-2.15a2.19,2.19,0,0,0-2.2,2.15Z" fill="#fff"/><path d="M33.24,203.26l-3.58-5.64h4.52l1.78,3,1.73-3h4L38.11,203l4,6.15H37.56l-2-3.43-2.08,3.43h-4Z" fill="#fff"/><path d="M43.18,197.62h3.93v1.71a4,4,0,0,1,3.57-2c2.68,0,4.85,2,4.85,5.95v.17c0,3.95-2.17,5.93-4.87,5.93a3.78,3.78,0,0,1-3.55-2v5.53H43.18Zm8.36,5.81v-.17c0-2-.88-3-2.26-3s-2.28,1-2.28,3v.17c0,2,.85,2.94,2.28,2.94S51.54,205.32,51.54,203.43Z" fill="#fff"/><path d="M56.35,203.5v-.18a5.87,5.87,0,0,1,6.21-6c3.13,0,5.83,1.8,5.83,5.93v1H60.32a2.29,2.29,0,0,0,2.39,2.39c1.3,0,1.84-.59,2-1.36h3.68c-.35,2.59-2.34,4.06-5.81,4.06S56.35,207.25,56.35,203.5Zm8.23-1.45c-.07-1.38-.75-2.15-2-2.15a2.19,2.19,0,0,0-2.2,2.15Z" fill="#fff"/><path d="M69.76,197.62h3.92v2.28a3.61,3.61,0,0,1,3.71-2.43v3.66c-2.39-.07-3.71.68-3.71,2.52v5.45H69.76Z" fill="#fff"/><path d="M79.52,205.41V200.3H78.14v-2.68h1.38v-2.39h3.93v2.39h2.26v2.68H83.45V205a1,1,0,0,0,1.16,1.2,3,3,0,0,0,1.12-.19v3a8.26,8.26,0,0,1-2.17.33C81,209.36,79.52,208.11,79.52,205.41Z" fill="#fff"/><path d="M91.72,205.41V200.3H90.34v-2.68h1.38v-2.39h3.93v2.39h2.26v2.68H95.65V205a1,1,0,0,0,1.16,1.2,3,3,0,0,0,1.12-.19v3a8.26,8.26,0,0,1-2.17.33C93.17,209.36,91.72,208.11,91.72,205.41Z" fill="#fff"/><path d="M98.79,205.91c0-2.7,2.28-3.75,6.1-3.75H106v-.26c0-1.1-.26-1.82-1.51-1.82a1.41,1.41,0,0,0-1.56,1.36H99.23c.17-2.77,2.34-4.13,5.48-4.13s5.18,1.3,5.18,4.35v7.44h-3.82v-1.34a3.78,3.78,0,0,1-3.4,1.6C100.61,209.36,98.79,208.35,98.79,205.91Zm7.19-.83v-.7h-1c-1.58,0-2.28.31-2.28,1.25,0,.66.44,1.07,1.36,1.07C105.15,206.7,106,206.07,106,205.08Z" fill="#fff"/><path d="M114.7,203.26l-3.58-5.64h4.52l1.78,3,1.73-3h4L119.57,203l4,6.15H119l-2-3.43-2.09,3.43h-4Z" fill="#fff"/><path d="M18.16,223.22h3.93v1.71a4.06,4.06,0,0,1,3.58-2c2.67,0,4.85,2,4.85,5.94V229c0,4-2.18,5.92-4.87,5.92a3.79,3.79,0,0,1-3.56-2v5.53H18.16ZM26.52,229v-.18c0-2-.87-3-2.26-3s-2.28,1-2.28,3V229c0,1.95.86,2.94,2.28,2.94S26.52,230.92,26.52,229Z" fill="#fff"/><path d="M31.94,223.22h3.93v2.28a3.62,3.62,0,0,1,3.71-2.43v3.66c-2.39-.06-3.71.68-3.71,2.53v5.44H31.94Z" fill="#fff"/><path d="M40.28,229.1v-.17a5.87,5.87,0,0,1,6.21-6c3.14,0,5.84,1.79,5.84,5.92v1H44.26a2.29,2.29,0,0,0,2.39,2.39c1.29,0,1.84-.59,2-1.36h3.69C52,233.49,50,235,46.52,235S40.28,232.85,40.28,229.1Zm8.23-1.45c-.06-1.38-.74-2.15-2-2.15a2.19,2.19,0,0,0-2.19,2.15Z" fill="#fff"/><path d="M53.69,223.22h3.93v1.71a4.06,4.06,0,0,1,3.58-2c2.67,0,4.85,2,4.85,5.94V229c0,4-2.18,5.92-4.88,5.92a3.78,3.78,0,0,1-3.55-2v5.53H53.69ZM62.05,229v-.18c0-2-.88-3-2.26-3s-2.28,1-2.28,3V229c0,1.95.86,2.94,2.28,2.94S62.05,230.92,62.05,229Z" fill="#fff"/><path d="M72.06,225.9H70.61v-2.68h1.45v-1c0-2.85,1.78-4.21,4.5-4.21a7.13,7.13,0,0,1,1.8.24v2.88a3.57,3.57,0,0,0-1.08-.16A1.15,1.15,0,0,0,76,222.21v1h2.32v2.68H76v8.8H72.06Z" fill="#fff"/><path d="M79.61,223.22h3.93v2.28a3.61,3.61,0,0,1,3.7-2.43v3.66c-2.39-.06-3.7.68-3.7,2.53v5.44H79.61Z" fill="#fff"/><path d="M88,229.1v-.17c0-3.69,2.74-6,6.3-6s6.25,2.26,6.25,5.9V229c0,3.73-2.74,6-6.28,6S88,232.81,88,229.1Zm8.56-.06v-.18c0-1.93-.77-3-2.26-3s-2.29,1-2.29,3V229c0,2,.77,3,2.29,3S96.51,231,96.51,229Z" fill="#fff"/><path d="M101.88,223.22h3.93V225a4,4,0,0,1,3.6-2.06,3.11,3.11,0,0,1,3.11,1.9,4.57,4.57,0,0,1,3.8-1.9c2.17,0,3.75,1.4,3.75,4.27v7.51h-3.92v-6.85c0-1.16-.58-1.73-1.48-1.73a1.7,1.7,0,0,0-1.75,1.93v6.65H109v-6.85c0-1.16-.58-1.73-1.47-1.73a1.7,1.7,0,0,0-1.76,1.93v6.65h-3.93Z" fill="#fff"/><path d="M18.16,243.78h3.93v6.89a4.05,4.05,0,0,1,3.77-2.15c2.22,0,3.76,1.38,3.76,4.32v7.46H25.69v-6.67c0-1.29-.51-1.93-1.65-1.93s-1.95.7-1.95,2.17v6.43H18.16Z" fill="#fff"/><path d="M30.91,254.71v-.18c0-3.69,2.75-6,6.3-6s6.25,2.26,6.25,5.9v.18c0,3.73-2.74,6-6.27,6S30.91,258.41,30.91,254.71Zm8.56-.07v-.18c0-1.93-.77-3-2.26-3s-2.28,1-2.28,3v.18c0,2,.77,3,2.28,3S39.47,256.55,39.47,254.64Z" fill="#fff"/><path d="M44.85,248.83h3.93v1.75a4,4,0,0,1,3.59-2.06,3.13,3.13,0,0,1,3.12,1.91,4.55,4.55,0,0,1,3.8-1.91c2.17,0,3.75,1.4,3.75,4.28v7.5H59.11v-6.84c0-1.17-.57-1.74-1.47-1.74a1.7,1.7,0,0,0-1.75,1.93v6.65H52v-6.84c0-1.17-.57-1.74-1.47-1.74a1.7,1.7,0,0,0-1.75,1.93v6.65H44.85Z" fill="#fff"/><path d="M64.34,254.71v-.18a5.86,5.86,0,0,1,6.21-6c3.13,0,5.83,1.8,5.83,5.92v1H68.31a2.29,2.29,0,0,0,2.39,2.4c1.29,0,1.84-.6,2-1.37h3.68c-.35,2.59-2.35,4.06-5.81,4.06S64.34,258.46,64.34,254.71Zm8.22-1.45c-.06-1.38-.74-2.15-2-2.15a2.19,2.19,0,0,0-2.2,2.15Z" fill="#fff"/><path d="M80.77,248.83h4.11l1.66,6.86,1.93-6.86h3.16l1.72,6.86,1.86-6.86h3.73L95.3,260.3H91.55l-1.72-6.41-1.77,6.41H84.24Z" fill="#fff"/><path d="M99.86,245.71a2.17,2.17,0,1,1,2.15,2A2.06,2.06,0,0,1,99.86,245.71Zm.2,3.12H104V260.3h-3.93Z" fill="#fff"/><path d="M106.62,256.61V251.5h-1.38v-2.67h1.38v-2.4h3.93v2.4h2.26v2.67h-2.26v4.74c0,.84.42,1.21,1.16,1.21a3,3,0,0,0,1.12-.2v3a7.86,7.86,0,0,1-2.17.33C108.07,260.56,106.62,259.31,106.62,256.61Z" fill="#fff"/><path d="M114.3,243.78h3.93v6.89a4,4,0,0,1,3.77-2.15c2.22,0,3.76,1.38,3.76,4.32v7.46h-3.93v-6.67c0-1.29-.51-1.93-1.65-1.93s-2,.7-2,2.17v6.43H114.3Z" fill="#fff"/><path d="M21.52,273.68H17.46v-3.46H30.1v3.46H26V285.9H21.52Z" fill="#fff"/><path d="M29.31,282.72c0-2.7,2.28-3.75,6.1-3.75h1.1v-.26c0-1.1-.26-1.82-1.52-1.82a1.4,1.4,0,0,0-1.55,1.36H29.75c.18-2.77,2.35-4.13,5.49-4.13s5.17,1.3,5.17,4.35v7.43H36.6v-1.33a3.78,3.78,0,0,1-3.4,1.6C31.13,286.17,29.31,285.16,29.31,282.72Zm7.2-.83v-.7h-1c-1.58,0-2.28.3-2.28,1.25,0,.66.43,1.07,1.36,1.07A1.73,1.73,0,0,0,36.51,281.89Z" fill="#fff"/><path d="M45.22,280.07l-3.58-5.64h4.52l1.78,3,1.74-3h4l-3.62,5.33,4,6.14H49.54l-2-3.42-2.08,3.42h-4Z" fill="#fff"/><path d="M59.51,270.22h6c4.3,0,6.29,1.9,6.29,5.24v.09c0,3.29-2.21,5.07-6.1,5.07H64v5.28H59.51Zm5.77,7.32c1.45,0,2.21-.68,2.21-2v-.09c0-1.34-.79-1.89-2.19-1.89H64v4Z" fill="#fff"/><path d="M73.14,274.43h3.92v2.28a3.63,3.63,0,0,1,3.71-2.44v3.67c-2.39-.07-3.71.68-3.71,2.52v5.44H73.14Z" fill="#fff"/><path d="M81.47,280.31v-.18c0-3.68,2.75-6,6.3-6S94,276.38,94,280v.18c0,3.73-2.75,6-6.28,6S81.47,284,81.47,280.31Zm8.56-.07v-.17c0-1.93-.77-3-2.26-3s-2.28,1-2.28,3v.18c0,2,.77,3.05,2.28,3.05S90,282.15,90,280.24Z" fill="#fff"/><path d="M98.92,278.16V278c0-4.78,3.51-8,8.23-8,3.71,0,7,1.69,7.3,5.77H110a2.49,2.49,0,0,0-2.83-2.23c-2.22,0-3.55,1.71-3.55,4.54v.17c0,2.55.94,4.52,3.66,4.52,2.19,0,3-1.11,3.12-2.37h-2.94v-3.13h7.37v1.93c0,4-2.61,7-7.68,7C101.82,286.17,98.92,282.85,98.92,278.16Z" fill="#fff"/><path d="M115.73,280.31v-.18c0-3.68,2.74-6,6.3-6s6.25,2.26,6.25,5.9v.18c0,3.73-2.74,6-6.27,6S115.73,284,115.73,280.31Zm8.56-.07v-.17c0-1.93-.77-3-2.26-3s-2.28,1-2.28,3v.18c0,2,.76,3.05,2.28,3.05S124.29,282.15,124.29,280.24Z" fill="#fff"/><path d="M129,283.93a2.19,2.19,0,0,1,2.24-2.22,2.22,2.22,0,1,1,0,4.44A2.19,2.19,0,0,1,129,283.93Z" fill="#fff"/></g><g id="rect"><rect width="160" height="600" fill="none"/></g></g></g></g></svg>