<svg xmlns="http://www.w3.org/2000/svg" viewBox="0 0 320 1200"><title>Asset 1</title><rect width="320" height="1200" fill="none"/><path d="M44,192.88H73.62v9.48H56.21v7.38H70.07v8.76H56.21v7.8H74.58v9.48H44Z" fill="#fff"/><path d="M77,227.08c0-7.38,6.24-10.26,16.69-10.26h3v-.72c0-3-.72-5-4.14-5-3,0-4,1.74-4.27,3.72H78.24c.48-7.56,6.42-11.28,15-11.28s14.16,3.54,14.16,11.88v20.34H97v-3.66c-1.5,2.28-4.26,4.38-9.31,4.38C82,236.5,77,233.74,77,227.08Zm19.69-2.28v-1.92H93.91c-4.33,0-6.25.84-6.25,3.42,0,1.8,1.2,2.94,3.73,2.94C94.45,229.24,96.73,227.5,96.73,224.8Z" fill="#fff"/><path d="M110.54,225.82h9.9c.36,2.28,1.38,3.54,4.44,3.54,2.64,0,3.84-1,3.84-2.58s-1.5-2.22-5.82-2.82c-8.4-1.08-11.94-3.54-11.94-10.08,0-7,6.18-10.32,13.44-10.32,7.75,0,13.15,2.64,13.87,10.14h-9.73c-.42-2.1-1.56-3.12-4-3.12S121,211.6,121,213s1.44,2.1,5.28,2.58c8.71,1.08,12.91,3.36,12.91,10.08,0,7.44-5.52,10.8-14.23,10.8C116,236.5,110.78,232.78,110.54,225.82Z" fill="#fff"/><path d="M151.48,232.6l-12.55-28.2h11.64l6.49,16.74,6-16.74h10.27l-16.81,41.88H146.25Z" fill="#fff"/><path d="M41.44,286.74v-.48c0-10.68,5.88-16.38,13.33-16.38,4.92,0,7.86,2.1,9.66,5.28V256.92H75.18V302.1H64.43V297a10.57,10.57,0,0,1-9.78,5.82C47.38,302.82,41.44,297.6,41.44,286.74Zm23.29-.18v-.48c0-5.28-2.22-8.1-6.18-8.1s-6.18,2.7-6.18,8.16v.48c0,5.28,2.34,8,6.06,8C62.33,294.6,64.73,291.9,64.73,286.56Z" fill="#fff"/><path d="M79,286.8v-.48c0-10.08,7.5-16.44,17.23-16.44S113.3,276.06,113.3,286v.48c0,10.2-7.51,16.32-17.17,16.32S79,296.94,79,286.8Zm23.41-.18v-.48c0-5.28-2.1-8.22-6.18-8.22s-6.25,2.82-6.25,8.1v.48c0,5.4,2.11,8.34,6.25,8.34S102.37,291.84,102.37,286.62Z" fill="#fff"/><path d="M115.4,286.8v-.48c0-10.08,7.5-16.44,17-16.44,8.58,0,16,4.92,16,16.2v2.82H126.26c.3,4.14,2.7,6.54,6.55,6.54,3.54,0,5-1.62,5.46-3.72h10.08c-1,7.08-6.42,11.1-15.9,11.1C122.6,302.82,115.4,297.06,115.4,286.8Zm22.51-4c-.18-3.78-2-5.88-5.52-5.88-3.25,0-5.47,2.1-6,5.88Z" fill="#fff"/><path d="M150.27,292.14h9.91c.36,2.28,1.38,3.54,4.44,3.54,2.64,0,3.84-1,3.84-2.58s-1.5-2.22-5.82-2.82c-8.4-1.08-11.95-3.54-11.95-10.08,0-7,6.19-10.32,13.45-10.32,7.74,0,13.15,2.64,13.87,10.14h-9.73c-.42-2.1-1.56-3.12-4-3.12s-3.54,1-3.54,2.46,1.44,2.1,5.28,2.58c8.71,1.08,12.91,3.36,12.91,10.08,0,7.44-5.53,10.8-14.23,10.8C155.74,302.82,150.51,299.1,150.27,292.14Z" fill="#fff"/><path d="M193.08,262.2a5.92,5.92,0,1,1,5.88,5.52A5.61,5.61,0,0,1,193.08,262.2Zm.54,8.52h10.74V302.1H193.62Z" fill="#fff"/><path d="M211.56,292V278h-3.78v-7.32h3.78v-6.54h10.75v6.54h6.18V278h-6.18v13c0,2.28,1.14,3.3,3.18,3.3a8.18,8.18,0,0,0,3.06-.54v8.16a22.53,22.53,0,0,1-5.94.9C215.53,302.82,211.56,299.4,211.56,292Z" fill="#fff"/><path d="M232.16,296.7a6,6,0,0,1,6.12-6.06,6.06,6.06,0,1,1,0,12.12A6,6,0,0,1,232.16,296.7Z" fill="#fff"/><path d="M41.2,354.81H52.91c.3,3.06,1.68,5.58,6.78,5.58,3.54,0,5.52-1.74,5.52-4.26s-1.62-3.36-6.78-4.14c-12.13-1.44-16.21-5-16.21-13.68,0-7.74,6.36-13.38,16.63-13.38S75,329.25,75.78,338.31H64.37c-.42-3.06-2.16-4.62-5.52-4.62s-5,1.5-5,3.66c0,2.4,1.32,3.48,6.66,4.2,10.87,1.2,16.45,4,16.45,13.32,0,7.86-6.25,14.28-17.29,14.28C47.68,369.15,41.56,364.11,41.2,354.81Z" fill="#fff"/><path d="M77.88,337.05H89.1l4.57,18.78L99,337.05h8.64l4.69,18.78,5.1-18.78h10.2l-10,31.38H107.35l-4.68-17.52-4.86,17.52H87.36Z" fill="#fff"/><path d="M130.1,328.53a5.93,5.93,0,1,1,5.89,5.52A5.61,5.61,0,0,1,130.1,328.53Zm.55,8.52h10.74v31.38H130.65Z" fill="#fff"/><path d="M148.59,358.35v-14h-3.78v-7.32h3.78v-6.54h10.75v6.54h6.18v7.32h-6.18v13c0,2.28,1.14,3.3,3.18,3.3a8.18,8.18,0,0,0,3.06-.54v8.16a22.53,22.53,0,0,1-5.94.9C152.56,369.15,148.59,365.73,148.59,358.35Z" fill="#fff"/><path d="M167.92,353.13v-.48c0-10.44,7.51-16.44,16.75-16.44,7.68,0,14.77,3.36,15.37,12.9H190c-.48-2.94-1.92-4.56-5-4.56-3.78,0-6,2.7-6,8V353c0,5.46,2.1,8.28,6.18,8.28,3,0,5.1-1.8,5.46-5.22h9.67c-.3,7.92-5.64,13.08-15.79,13.08C175.07,369.15,167.92,363.69,167.92,353.13Z" fill="#fff"/><path d="M203.7,323.25h10.75v18.84c1.68-3.24,5.1-5.88,10.32-5.88C230.83,336.21,235,340,235,348v20.4H224.29V350.19c0-3.54-1.38-5.28-4.5-5.28s-5.34,1.92-5.34,5.94v17.58H203.7Z" fill="#fff"/><path d="M44.44,424.67v-14H40.66v-7.32h3.78v-6.54H55.19v6.54h6.18v7.32H55.19v12.95c0,2.28,1.14,3.3,3.18,3.3a8.18,8.18,0,0,0,3.06-.54v8.16a22.53,22.53,0,0,1-5.94.9C48.4,435.47,44.44,432.05,44.44,424.67Z" fill="#fff"/><path d="M63.77,419.46V419c0-10.08,7.51-16.44,17.23-16.44s17.11,6.18,17.11,16.13v.49c0,10.19-7.51,16.31-17.17,16.31S63.77,429.59,63.77,419.46Zm23.41-.19v-.48c0-5.27-2.1-8.21-6.18-8.21s-6.24,2.82-6.24,8.09v.49c0,5.39,2.1,8.33,6.24,8.33S87.18,424.49,87.18,419.27Z" fill="#fff"/><path d="M113.78,391.86h19.14c10.15,0,14.47,4.56,14.47,11.22v.24c0,4.8-2.46,8-7.26,9.24,5.28.9,8.58,4.08,8.58,10v.24c0,7.68-5,11.94-15.61,11.94H113.78Zm16.68,17c3.85,0,5.29-1.32,5.29-4.38v-.24c0-2.94-1.56-4.26-5.29-4.26h-4.68v8.88Zm.42,17.63c3.91,0,5.71-1.8,5.71-5v-.24c0-3.23-1.74-4.91-6.07-4.91h-4.74v10.13Z" fill="#fff"/><path d="M153,389.58h10.69v45.17H153Z" fill="#fff"/><path d="M167.74,419.46V419c0-10.08,7.5-16.44,17.23-16.44s17.11,6.18,17.11,16.13v.49c0,10.19-7.51,16.31-17.17,16.31S167.74,429.59,167.74,419.46Zm23.41-.19v-.48c0-5.27-2.1-8.21-6.18-8.21s-6.24,2.82-6.24,8.09v.49c0,5.39,2.1,8.33,6.24,8.33S191.15,424.49,191.15,419.27Z" fill="#fff"/><path d="M204.18,419.46V419c0-10.44,7.5-16.44,16.75-16.44,7.68,0,14.76,3.36,15.36,12.9H226.21c-.48-2.94-1.92-4.56-5-4.56-3.79,0-6,2.7-6,8v.48c0,5.46,2.1,8.28,6.19,8.28,3,0,5.1-1.8,5.46-5.21h9.66c-.3,7.91-5.64,13.07-15.78,13.07C211.32,435.47,204.18,430,204.18,419.46Z" fill="#fff"/><path d="M240,389.58H250.7v26.21l8.47-12.41h11.16l-10.26,14.1,11.1,17.27h-12L250.7,421v13.73H240Z" fill="#fff"/><path d="M42.76,461.18a5.61,5.61,0,0,1,5.88-5.58,5.66,5.66,0,0,1,6,5.58c0,3.18-2.58,5.52-6,5.52A5.56,5.56,0,0,1,42.76,461.18Zm.54,8.52H54.05v31.38H43.3Z" fill="#fff"/><path d="M59.81,469.7H70.55v5c1.69-3.24,5.11-5.88,10.33-5.88,6.06,0,10.26,3.78,10.26,11.82v20.4H80.4V482.84c0-3.54-1.38-5.28-4.5-5.28s-5.35,1.92-5.35,5.94v17.58H59.81Z" fill="#fff"/><path d="M105.49,492.38c0-7.38,6.24-10.26,16.69-10.26h3v-.72c0-3-.72-5-4.14-5a3.85,3.85,0,0,0-4.26,3.72H106.69c.48-7.56,6.43-11.28,15-11.28s14.17,3.54,14.17,11.88v20.34H125.42v-3.66c-1.5,2.28-4.26,4.38-9.3,4.38C110.47,501.8,105.49,499,105.49,492.38Zm19.69-2.28v-1.92h-2.82c-4.32,0-6.24.84-6.24,3.42,0,1.8,1.2,2.94,3.72,2.94C122.9,494.54,125.18,492.8,125.18,490.1Z" fill="#fff"/><path d="M139,491.12h9.9c.36,2.28,1.38,3.54,4.44,3.54,2.65,0,3.85-1,3.85-2.58s-1.5-2.22-5.83-2.82c-8.4-1.08-11.94-3.54-11.94-10.08,0-7,6.18-10.32,13.44-10.32,7.75,0,13.15,2.64,13.87,10.14H157c-.42-2.1-1.56-3.12-4-3.12s-3.54,1-3.54,2.46,1.44,2.1,5.29,2.58c8.7,1.08,12.9,3.36,12.9,10.08,0,7.44-5.52,10.8-14.22,10.8C144.45,501.8,139.23,498.08,139,491.12Z" fill="#fff"/><path d="M43.3,522.23H54v45.18H43.3Z" fill="#fff"/><path d="M59.51,527.51a5.61,5.61,0,0,1,5.88-5.58,5.67,5.67,0,0,1,6,5.58c0,3.18-2.59,5.52-6,5.52A5.56,5.56,0,0,1,59.51,527.51Zm.54,8.52H70.79v31.38H60.05Z" fill="#fff"/><path d="M78,557.33v-14H74.22V536H78v-6.54H88.74V536h6.19v7.32H88.74v13c0,2.28,1.14,3.3,3.19,3.3a8.18,8.18,0,0,0,3.06-.54v8.16a22.62,22.62,0,0,1-5.95.9C82,568.13,78,564.71,78,557.33Z" fill="#fff"/><path d="M100.45,557.33v-14H96.67V536h3.78v-6.54h10.74V536h6.19v7.32h-6.19v13c0,2.28,1.14,3.3,3.19,3.3a8.18,8.18,0,0,0,3.06-.54v8.16a22.55,22.55,0,0,1-6,.9C104.41,568.13,100.45,564.71,100.45,557.33Z" fill="#fff"/><path d="M121.76,522.23h10.68v45.18H121.76Z" fill="#fff"/><path d="M136.53,552.11v-.48c0-10.08,7.5-16.44,17-16.44,8.59,0,16,4.92,16,16.2v2.82H147.39c.3,4.14,2.7,6.54,6.54,6.54,3.55,0,5-1.62,5.47-3.72h10.08c-1,7.08-6.42,11.1-15.91,11.1C143.73,568.13,136.53,562.37,136.53,552.11Zm22.51-4c-.18-3.78-2-5.88-5.53-5.88-3.24,0-5.46,2.1-6,5.88Z" fill="#fff"/><path d="M41.2,625c0-7.38,6.24-10.26,16.69-10.26h3v-.72c0-3-.72-5-4.14-5a3.85,3.85,0,0,0-4.26,3.72H42.4c.48-7.56,6.42-11.28,15-11.28s14.17,3.54,14.17,11.88v20.34H61.13v-3.66c-1.5,2.28-4.26,4.38-9.3,4.38C46.18,634.45,41.2,631.69,41.2,625Zm19.69-2.28v-1.92H58.07c-4.32,0-6.24.84-6.24,3.42,0,1.8,1.2,2.94,3.72,2.94C58.61,627.19,60.89,625.45,60.89,622.75Z" fill="#fff"/><path d="M74.7,623.77h9.9c.36,2.28,1.38,3.54,4.44,3.54,2.65,0,3.85-1,3.85-2.58s-1.51-2.22-5.83-2.82c-8.4-1.08-11.94-3.54-11.94-10.08,0-7,6.18-10.32,13.44-10.32,7.75,0,13.15,2.64,13.87,10.14H92.71c-.42-2.1-1.56-3.12-4-3.12s-3.54,1-3.54,2.46,1.44,2.1,5.28,2.58c8.71,1.08,12.91,3.36,12.91,10.08,0,7.44-5.52,10.8-14.23,10.8C80.16,634.45,74.94,630.73,74.7,623.77Z" fill="#fff"/><path d="M119.18,623.65v-14H115.4v-7.32h3.78v-6.54h10.74v6.54h6.19v7.32h-6.19v13c0,2.28,1.14,3.3,3.19,3.3a8.18,8.18,0,0,0,3.06-.54v8.16a22.55,22.55,0,0,1-5.95.9C123.14,634.45,119.18,631,119.18,623.65Z" fill="#fff"/><path d="M137.55,602.35h11.22l4.56,18.78,5.29-18.78h8.64l4.68,18.78,5.11-18.78h10.2l-10,31.38H167l-4.68-17.52-4.86,17.52H147Z" fill="#fff"/><path d="M187,618.43V618c0-10.08,7.5-16.44,17.23-16.44s17.11,6.18,17.11,16.14v.48c0,10.2-7.51,16.32-17.17,16.32S187,628.57,187,618.43Zm23.41-.18v-.48c0-5.28-2.1-8.22-6.18-8.22s-6.24,2.82-6.24,8.1v.48c0,5.4,2.1,8.34,6.24,8.34S210.36,623.47,210.36,618.25Z" fill="#fff"/><path d="M41.32,684.76v-.48c0-10.44,7.5-16.44,16.75-16.44,7.68,0,14.77,3.36,15.37,12.9H63.35c-.48-2.94-1.92-4.56-5-4.56-3.78,0-6,2.7-6,8v.48c0,5.46,2.1,8.28,6.18,8.28,3,0,5.1-1.8,5.46-5.22h9.67c-.3,7.92-5.65,13.08-15.79,13.08C48.46,700.78,41.32,695.32,41.32,684.76Z" fill="#fff"/><path d="M77.4,654.88H88.08v45.18H77.4Z" fill="#fff"/><path d="M93.61,660.16a5.92,5.92,0,1,1,5.88,5.52A5.61,5.61,0,0,1,93.61,660.16Zm.54,8.52h10.74v31.38H94.15Z" fill="#fff"/><path d="M109,684.76v-.48c0-10.44,7.51-16.44,16.75-16.44,7.69,0,14.77,3.36,15.37,12.9H131c-.48-2.94-1.92-4.56-5-4.56-3.78,0-6,2.7-6,8v.48c0,5.46,2.1,8.28,6.18,8.28,3,0,5.1-1.8,5.46-5.22h9.67c-.3,7.92-5.64,13.08-15.79,13.08C116.12,700.78,109,695.32,109,684.76Z" fill="#fff"/><path d="M144.75,654.88H155.5V681.1L164,668.68h11.17l-10.27,14.1L176,700.06H164l-8.46-13.74v13.74H144.75Z" fill="#fff"/><path d="M175.61,690.1h9.9c.36,2.28,1.38,3.54,4.44,3.54,2.65,0,3.85-1,3.85-2.58s-1.5-2.22-5.83-2.82c-8.4-1.08-11.94-3.54-11.94-10.08,0-7,6.18-10.32,13.44-10.32,7.75,0,13.15,2.64,13.87,10.14h-9.72c-.42-2.1-1.56-3.12-4-3.12s-3.54,1-3.54,2.46,1.44,2.1,5.28,2.58C200,681,204.24,683.26,204.24,690c0,7.44-5.52,10.8-14.23,10.8C181.07,700.78,175.85,697.06,175.61,690.1Z" fill="#fff"/><path d="M207.3,694.66a6,6,0,0,1,6.13-6.06,6.06,6.06,0,1,1,0,12.12A6,6,0,0,1,207.3,694.66Z" fill="#fff"/></svg>