<svg xmlns="http://www.w3.org/2000/svg" viewBox="0 0 160 600"><title>H193</title><g id="Layer_2" data-name="Layer 2"><g id="Rect"><rect width="160" height="600" fill="none"/></g><g id="Drop_off_your_taxes._No_appointment_needed." data-name="Drop off your taxes. No  appointment needed."><path d="M16.32,163.49h5c4.86,0,7.34,2.44,7.34,6.69v.16c0,4.27-2.53,6.86-7.36,6.86h-5Zm4.85,10.68c2.34,0,3.37-1.23,3.37-3.78v-.15c0-2.61-1-3.72-3.41-3.72h-.86v7.65Z" fill="#fff"/><path d="M30,167.17H33.4v2A3.16,3.16,0,0,1,36.64,167v3.2c-2.09-.06-3.24.59-3.24,2.2v4.76H30Z" fill="#fff"/><path d="M37.26,172.31v-.15c0-3.22,2.39-5.25,5.5-5.25s5.46,2,5.46,5.15v.15c0,3.26-2.4,5.22-5.48,5.22S37.26,175.55,37.26,172.31Zm7.47-.06v-.15c0-1.69-.67-2.63-2-2.63s-2,.91-2,2.59v.15c0,1.73.68,2.67,2,2.67S44.73,173.92,44.73,172.25Z" fill="#fff"/><path d="M49.43,167.17h3.43v1.5A3.54,3.54,0,0,1,56,166.91c2.33,0,4.23,1.76,4.23,5.19v.15c0,3.45-1.9,5.18-4.25,5.18a3.31,3.31,0,0,1-3.11-1.71v4.83H49.43Zm7.3,5.08v-.15c0-1.76-.76-2.61-2-2.61s-2,.9-2,2.59v.15c0,1.71.74,2.57,2,2.57S56.73,173.9,56.73,172.25Z" fill="#fff"/><path d="M64.42,172.31v-.15a5.15,5.15,0,0,1,5.5-5.25c3.09,0,5.46,2,5.46,5.15v.15c0,3.26-2.39,5.22-5.48,5.22S64.42,175.55,64.42,172.31Zm7.48-.06v-.15c0-1.69-.67-2.63-2-2.63s-2,.91-2,2.59v.15c0,1.73.67,2.67,2,2.67S71.9,173.92,71.9,172.25Z" fill="#fff"/><path d="M77.11,169.51H75.85v-2.34h1.26v-.76c0-2.49,1.54-3.66,3.91-3.66a5.57,5.57,0,0,1,1.54.19v2.51a3,3,0,0,0-.92-.13,1,1,0,0,0-1.12,1.09v.76h2.92v-.88c0-2.49,1.57-3.68,3.93-3.68a6.35,6.35,0,0,1,1.57.21v2.51a3.43,3.43,0,0,0-.94-.13,1,1,0,0,0-1.13,1.09v.88h2v2.34h-2v7.69H83.44v-7.69H80.52v7.69H77.11Z" fill="#fff"/><path d="M96.67,176.18l-4-9h3.72l2.07,5.35,1.91-5.35h3.28l-5.36,13.38H95Z" fill="#fff"/><path d="M103.45,172.31v-.15a5.15,5.15,0,0,1,5.5-5.25c3.09,0,5.47,2,5.47,5.15v.15c0,3.26-2.4,5.22-5.49,5.22S103.45,175.55,103.45,172.31Zm7.48-.06v-.15c0-1.69-.67-2.63-2-2.63s-2,.91-2,2.59v.15c0,1.73.67,2.67,2,2.67S110.93,173.92,110.93,172.25Z" fill="#fff"/><path d="M115.55,173.71v-6.54H119v6c0,1.13.44,1.69,1.42,1.69s1.7-.61,1.7-1.9v-5.77h3.44v10H122.1v-1.55a3.29,3.29,0,0,1-3.18,1.78C117,177.43,115.55,176.24,115.55,173.71Z" fill="#fff"/><path d="M127.28,167.17h3.43v2A3.16,3.16,0,0,1,134,167v3.2c-2.09-.06-3.24.59-3.24,2.2v4.76h-3.43Z" fill="#fff"/><path d="M16.48,199.58v-4.46H15.27v-2.34h1.21v-2.09h3.43v2.09h2v2.34h-2v4.14a.91.91,0,0,0,1,1.05,2.72,2.72,0,0,0,1-.17v2.6A7,7,0,0,1,20,203C17.74,203,16.48,201.94,16.48,199.58Z" fill="#fff"/><path d="M22.65,200c0-2.36,2-3.28,5.33-3.28h1v-.23c0-.95-.23-1.59-1.33-1.59a1.23,1.23,0,0,0-1.36,1.19H23c.16-2.41,2-3.6,4.79-3.6s4.53,1.13,4.53,3.79v6.5H29v-1.17a3.29,3.29,0,0,1-3,1.4C24.24,203,22.65,202.15,22.65,200Zm6.29-.73v-.61H28c-1.38,0-2,.27-2,1.09,0,.58.38.94,1.19.94C28.21,200.71,28.94,200.16,28.94,199.29Z" fill="#fff"/><path d="M36.55,197.7l-3.13-4.92h3.95l1.55,2.64,1.52-2.64H44l-3.16,4.65,3.47,5.37h-4l-1.78-3-1.82,3H33.21Z" fill="#fff"/><path d="M43.83,197.91v-.15a5.13,5.13,0,0,1,5.43-5.25c2.74,0,5.09,1.57,5.09,5.17v.9H47.3a2,2,0,0,0,2.09,2.09c1.13,0,1.61-.51,1.74-1.18h3.22c-.3,2.26-2.05,3.54-5.07,3.54S43.83,201.19,43.83,197.91ZM51,196.65c-.06-1.21-.65-1.88-1.76-1.88a1.91,1.91,0,0,0-1.92,1.88Z" fill="#fff"/><path d="M55,199.62h3.16c.12.73.44,1.13,1.42,1.13s1.23-.33,1.23-.82-.48-.71-1.86-.9c-2.68-.35-3.82-1.14-3.82-3.22,0-2.23,2-3.3,4.3-3.3s4.2.84,4.43,3.24H60.72a1.12,1.12,0,0,0-1.28-1c-.75,0-1.13.33-1.13.79s.46.67,1.68.82c2.78.35,4.12,1.07,4.12,3.22,0,2.38-1.76,3.45-4.54,3.45S55.05,201.84,55,199.62Z" fill="#fff"/><path d="M65.09,201.08a1.92,1.92,0,0,1,2-1.94,1.94,1.94,0,1,1,0,3.87A1.91,1.91,0,0,1,65.09,201.08Z" fill="#fff"/><path d="M74.47,189.1h4.42l4.39,7.72V189.1h3.43v13.7H82.92l-5-8.6v8.6H74.47Z" fill="#fff"/><path d="M88.1,197.91v-.15c0-3.22,2.39-5.25,5.5-5.25s5.46,2,5.46,5.15v.16c0,3.26-2.39,5.21-5.48,5.21S88.1,201.15,88.1,197.91Zm7.47,0v-.16c0-1.68-.67-2.62-2-2.62s-2,.9-2,2.58v.16c0,1.72.67,2.66,2,2.66S95.57,199.52,95.57,197.86Z" fill="#fff"/><path d="M15.44,225.63c0-2.36,2-3.28,5.33-3.28h1v-.23c0-1-.23-1.59-1.33-1.59A1.23,1.23,0,0,0,19,221.72H15.82c.16-2.42,2.06-3.61,4.8-3.61s4.52,1.13,4.52,3.8v6.49H21.8v-1.17a3.29,3.29,0,0,1-3,1.4C17,228.63,15.44,227.75,15.44,225.63Zm6.29-.73v-.62h-.9c-1.38,0-2,.27-2,1.1,0,.57.39.93,1.19.93C21,226.31,21.73,225.76,21.73,224.9Z" fill="#fff"/><path d="M26.81,218.38h3.43v1.5a3.53,3.53,0,0,1,3.12-1.77c2.34,0,4.24,1.77,4.24,5.2v.15c0,3.45-1.9,5.17-4.26,5.17a3.31,3.31,0,0,1-3.1-1.7v4.83H26.81Zm7.3,5.08v-.15c0-1.77-.77-2.61-2-2.61s-2,.9-2,2.59v.15c0,1.71.75,2.57,2,2.57S34.11,225.11,34.11,223.46Z" fill="#fff"/><path d="M38.85,218.38h3.43v1.5a3.53,3.53,0,0,1,3.12-1.77c2.34,0,4.24,1.77,4.24,5.2v.15c0,3.45-1.9,5.17-4.26,5.17a3.31,3.31,0,0,1-3.1-1.7v4.83H38.85Zm7.3,5.08v-.15c0-1.77-.77-2.61-2-2.61s-2,.9-2,2.59v.15c0,1.71.75,2.57,2,2.57S46.15,225.11,46.15,223.46Z" fill="#fff"/><path d="M50.35,223.52v-.16a5.15,5.15,0,0,1,5.5-5.25c3.09,0,5.46,2,5.46,5.16v.15c0,3.26-2.39,5.21-5.48,5.21S50.35,226.76,50.35,223.52Zm7.48-.06v-.15c0-1.69-.68-2.63-2-2.63s-2,.9-2,2.59v.15c0,1.73.67,2.66,2,2.66S57.83,225.13,57.83,223.46Z" fill="#fff"/><path d="M62.45,215.66a1.89,1.89,0,1,1,1.88,1.76A1.78,1.78,0,0,1,62.45,215.66Zm.17,2.72h3.43v10H62.62Z" fill="#fff"/><path d="M67.89,218.38h3.43V220a3.55,3.55,0,0,1,3.3-1.88c1.93,0,3.28,1.21,3.28,3.78v6.51H74.47v-5.82c0-1.13-.45-1.69-1.44-1.69s-1.71.61-1.71,1.9v5.61H67.89Z" fill="#fff"/><path d="M80,225.18v-4.46H78.82v-2.34H80v-2.09h3.43v2.09h2v2.34h-2v4.14c0,.73.36,1,1,1a2.72,2.72,0,0,0,1-.17v2.61a7.44,7.44,0,0,1-1.9.28C81.29,228.63,80,227.54,80,225.18Z" fill="#fff"/><path d="M86.74,218.38h3.43v1.53a3.51,3.51,0,0,1,3.14-1.8A2.74,2.74,0,0,1,96,219.78a4,4,0,0,1,3.32-1.67c1.89,0,3.27,1.23,3.27,3.74v6.55H99.19v-6c0-1-.49-1.51-1.28-1.51a1.48,1.48,0,0,0-1.53,1.69v5.8H93v-6c0-1-.49-1.51-1.28-1.51a1.48,1.48,0,0,0-1.53,1.69v5.8H86.74Z" fill="#fff"/><path d="M103.76,223.52v-.16a5.13,5.13,0,0,1,5.42-5.25c2.74,0,5.1,1.57,5.1,5.18v.9h-7a2,2,0,0,0,2.09,2.09c1.13,0,1.61-.52,1.74-1.19h3.22c-.3,2.26-2,3.54-5.08,3.54S103.76,226.79,103.76,223.52Zm7.19-1.27c-.06-1.21-.65-1.88-1.77-1.88a1.9,1.9,0,0,0-1.91,1.88Z" fill="#fff"/><path d="M115.47,218.38h3.43V220a3.55,3.55,0,0,1,3.3-1.88c1.94,0,3.28,1.21,3.28,3.78v6.51h-3.43v-5.82c0-1.13-.44-1.69-1.44-1.69s-1.71.61-1.71,1.9v5.61h-3.43Z" fill="#fff"/><path d="M127.61,225.18v-4.46H126.4v-2.34h1.21v-2.09H131v2.09h2v2.34h-2v4.14c0,.73.36,1,1,1a2.68,2.68,0,0,0,1-.17v2.61a7.44,7.44,0,0,1-1.9.28C128.87,228.63,127.61,227.54,127.61,225.18Z" fill="#fff"/><path d="M16,244h3.43v1.61a3.54,3.54,0,0,1,3.29-1.88c1.94,0,3.28,1.21,3.28,3.78V254H22.59v-5.83c0-1.13-.44-1.69-1.44-1.69s-1.7.62-1.7,1.9V254H16Z" fill="#fff"/><path d="M27.15,249.12V249a5.14,5.14,0,0,1,5.43-5.26c2.74,0,5.1,1.58,5.1,5.18v.9H30.62a2,2,0,0,0,2.09,2.09c1.13,0,1.61-.52,1.75-1.19h3.22c-.31,2.26-2,3.55-5.08,3.55S27.15,252.4,27.15,249.12Zm7.19-1.27c-.06-1.2-.65-1.87-1.76-1.87a1.9,1.9,0,0,0-1.92,1.87Z" fill="#fff"/><path d="M38.33,249.12V249a5.14,5.14,0,0,1,5.42-5.26c2.75,0,5.1,1.58,5.1,5.18v.9H41.8a2,2,0,0,0,2.09,2.09c1.13,0,1.61-.52,1.74-1.19h3.22c-.3,2.26-2.05,3.55-5.08,3.55S38.33,252.4,38.33,249.12Zm7.19-1.27c-.06-1.2-.65-1.87-1.77-1.87a1.9,1.9,0,0,0-1.91,1.87Z" fill="#fff"/><path d="M49.55,249.1V249c0-3.41,1.87-5.24,4.25-5.24a3.28,3.28,0,0,1,3.09,1.69v-5.82h3.43V254H56.89v-1.63a3.39,3.39,0,0,1-3.13,1.86C51.44,254.24,49.55,252.57,49.55,249.1ZM57,249v-.15c0-1.69-.71-2.59-2-2.59s-2,.86-2,2.61v.15c0,1.69.75,2.55,1.94,2.55S57,250.75,57,249Z" fill="#fff"/><path d="M61.53,249.12V249A5.13,5.13,0,0,1,67,243.71c2.74,0,5.1,1.58,5.1,5.18v.9H65a2,2,0,0,0,2.09,2.09c1.13,0,1.61-.52,1.74-1.19h3.22c-.31,2.26-2,3.55-5.08,3.55S61.53,252.4,61.53,249.12Zm7.19-1.27c-.06-1.2-.66-1.87-1.77-1.87A1.9,1.9,0,0,0,65,247.85Z" fill="#fff"/><path d="M72.74,249.1V249c0-3.41,1.88-5.24,4.26-5.24a3.25,3.25,0,0,1,3.08,1.69v-5.82h3.43V254H80.08v-1.63A3.38,3.38,0,0,1,77,254.24C74.64,254.24,72.74,252.57,72.74,249.1Zm7.44-.06v-.15c0-1.69-.71-2.59-2-2.59s-2,.86-2,2.61v.15c0,1.69.75,2.55,1.94,2.55S80.18,250.75,80.18,249Z" fill="#fff"/><path d="M85.13,252.28a1.9,1.9,0,0,1,2-1.93,1.94,1.94,0,1,1,0,3.87A1.91,1.91,0,0,1,85.13,252.28Z" fill="#fff"/></g></g></svg>