<svg xmlns="http://www.w3.org/2000/svg" viewBox="0 0 160 600"><title>Asset 4</title><g id="Layer_2" data-name="Layer 2"><g id="rect"><rect width="160" height="600" fill="none"/></g><g id="Most_people_get_a_tax_refund._File_today_at_an_H_R_Block_near" data-name="Most people  get a tax refund. File today at an  H&amp;R Block near"><path d="M21.37,118.11h5.31l2.72,7.57,2.72-7.57h5.2v14.21h-4v-8.85l-3.48,8.85H28.44L25,123.47v8.85H21.37Z" fill="#fff"/><path d="M38.77,127.25v-.16c0-3.34,2.49-5.44,5.7-5.44s5.67,2,5.67,5.34v.16c0,3.38-2.49,5.4-5.69,5.4S38.77,130.61,38.77,127.25Zm7.75-.06V127c0-1.75-.7-2.72-2.05-2.72s-2.06.93-2.06,2.68v.16c0,1.79.69,2.76,2.06,2.76S46.52,128.92,46.52,127.19Z" fill="#fff"/><path d="M50.75,129H54c.12.75.45,1.17,1.47,1.17.87,0,1.27-.34,1.27-.85s-.5-.74-1.93-.94c-2.78-.36-4-1.17-4-3.34s2-3.41,4.45-3.41c2.56,0,4.35.87,4.59,3.35H56.71a1.16,1.16,0,0,0-1.33-1c-.78,0-1.17.34-1.17.82s.47.69,1.75.85c2.88.36,4.27,1.11,4.27,3.34,0,2.46-1.83,3.57-4.71,3.57S50.83,131.32,50.75,129Z" fill="#fff"/><path d="M61.85,129v-4.63H60.6v-2.43h1.25v-2.16h3.56v2.16h2v2.43h-2v4.29c0,.76.38,1.09,1,1.09a2.73,2.73,0,0,0,1-.18v2.71a7.56,7.56,0,0,1-2,.29C63.16,132.55,61.85,131.42,61.85,129Z" fill="#fff"/><path d="M72.42,121.92H76v1.55a3.66,3.66,0,0,1,3.24-1.82c2.42,0,4.39,1.82,4.39,5.38v.16c0,3.58-2,5.36-4.41,5.36A3.42,3.42,0,0,1,76,130.79v5H72.42ZM80,127.19V127c0-1.83-.79-2.7-2-2.7s-2.06.93-2.06,2.68v.16c0,1.77.77,2.66,2.06,2.66S80,128.9,80,127.19Z" fill="#fff"/><path d="M84.34,127.25v-.16A5.31,5.31,0,0,1,90,121.65c2.84,0,5.29,1.63,5.29,5.36v.93H87.94a2.07,2.07,0,0,0,2.16,2.17c1.17,0,1.67-.54,1.81-1.23h3.34c-.32,2.34-2.13,3.67-5.27,3.67S84.34,130.65,84.34,127.25Zm7.45-1.31c-.06-1.25-.68-2-1.83-2a2,2,0,0,0-2,2Z" fill="#fff"/><path d="M95.92,127.25v-.16c0-3.34,2.48-5.44,5.7-5.44s5.66,2,5.66,5.34v.16c0,3.38-2.48,5.4-5.68,5.4S95.92,130.61,95.92,127.25Zm7.75-.06V127c0-1.75-.7-2.72-2-2.72s-2.06.93-2.06,2.68v.16c0,1.79.69,2.76,2.06,2.76S103.67,128.92,103.67,127.19Z" fill="#fff"/><path d="M108.53,121.92h3.56v1.55a3.68,3.68,0,0,1,3.24-1.82c2.42,0,4.39,1.82,4.39,5.38v.16c0,3.58-2,5.36-4.41,5.36a3.43,3.43,0,0,1-3.22-1.76v5h-3.56Zm7.57,5.27V127c0-1.83-.79-2.7-2-2.7S112,125.26,112,127v.16c0,1.77.78,2.66,2.07,2.66S116.1,128.9,116.1,127.19Z" fill="#fff"/><path d="M121.11,117.36h3.53v15h-3.53Z" fill="#fff"/><path d="M126,127.25v-.16a5.31,5.31,0,0,1,5.62-5.44c2.84,0,5.28,1.63,5.28,5.36v.93h-7.31a2.07,2.07,0,0,0,2.17,2.17c1.17,0,1.66-.54,1.8-1.23h3.34c-.32,2.34-2.12,3.67-5.26,3.67S126,130.65,126,127.25Zm7.45-1.31c-.07-1.25-.68-2-1.83-2a2,2,0,0,0-2,2Z" fill="#fff"/><path d="M20.48,166.45H24c.16.76.62,1.35,1.91,1.35a2,2,0,0,0,2.21-2.18V164a3.65,3.65,0,0,1-3.22,1.9c-2.43,0-4.41-1.78-4.41-5v-.16c0-3.06,2-5,4.41-5a3.39,3.39,0,0,1,3.22,1.75v-1.47h3.55v9.52c0,3.1-2,4.73-5.76,4.73C22.38,170.31,20.75,168.82,20.48,166.45Zm7.75-5.52v-.14c0-1.43-.74-2.35-2.05-2.35s-2.05.94-2.05,2.37V161c0,1.43.76,2.34,2,2.34S28.23,162.4,28.23,160.93Z" fill="#fff"/><path d="M32.93,161.39v-.16a5.32,5.32,0,0,1,5.62-5.45c2.85,0,5.29,1.63,5.29,5.37v.93H36.53a2.08,2.08,0,0,0,2.16,2.17c1.18,0,1.67-.54,1.81-1.24h3.34c-.32,2.35-2.13,3.68-5.27,3.68S32.93,164.78,32.93,161.39Zm7.45-1.32c-.06-1.25-.67-1.94-1.83-1.94a2,2,0,0,0-2,1.94Z" fill="#fff"/><path d="M45.55,163.11v-4.63H44.29v-2.42h1.26V153.9H49.1v2.16h2v2.42h-2v4.3a1,1,0,0,0,1,1.09,2.73,2.73,0,0,0,1-.18v2.7a7.43,7.43,0,0,1-2,.3C46.86,166.69,45.55,165.56,45.55,163.11Z" fill="#fff"/><path d="M55.52,163.57c0-2.44,2.06-3.4,5.52-3.4h1v-.24c0-1-.24-1.64-1.37-1.64a1.27,1.27,0,0,0-1.41,1.23H55.91c.16-2.51,2.13-3.74,5-3.74s4.69,1.17,4.69,3.94v6.73H62.11v-1.21A3.41,3.41,0,0,1,59,166.69C57.17,166.69,55.52,165.78,55.52,163.57Zm6.51-.75v-.64H61.1c-1.43,0-2.07.28-2.07,1.13,0,.6.4,1,1.24,1A1.56,1.56,0,0,0,62,162.82Z" fill="#fff"/><path d="M71.39,163.11v-4.63H70.14v-2.42h1.25V153.9h3.55v2.16h2v2.42h-2v4.3A1,1,0,0,0,76,163.87a2.67,2.67,0,0,0,1-.18v2.7a7.43,7.43,0,0,1-2,.3C72.7,166.69,71.39,165.56,71.39,163.11Z" fill="#fff"/><path d="M77.78,163.57c0-2.44,2.07-3.4,5.53-3.4h1v-.24c0-1-.24-1.64-1.37-1.64a1.27,1.27,0,0,0-1.41,1.23H78.18c.16-2.51,2.13-3.74,5-3.74s4.69,1.17,4.69,3.94v6.73H84.38v-1.21a3.43,3.43,0,0,1-3.08,1.45C79.43,166.69,77.78,165.78,77.78,163.57Zm6.52-.75v-.64h-.93c-1.43,0-2.07.28-2.07,1.13,0,.6.4,1,1.23,1C83.55,164.29,84.3,163.71,84.3,162.82Z" fill="#fff"/><path d="M92.19,161.17,89,156.06H93l1.61,2.74,1.57-2.74h3.66l-3.28,4.83,3.59,5.56H96.1l-1.85-3.1-1.88,3.1H88.73Z" fill="#fff"/><path d="M21.05,190.2h3.56v2.06a3.27,3.27,0,0,1,3.36-2.2v3.31c-2.17-.06-3.36.62-3.36,2.29v4.93H21.05Z" fill="#fff"/><path d="M28.6,195.52v-.16a5.31,5.31,0,0,1,5.62-5.44c2.84,0,5.29,1.63,5.29,5.36v.94H32.2a2.07,2.07,0,0,0,2.16,2.16c1.18,0,1.67-.54,1.81-1.23h3.34c-.32,2.34-2.13,3.67-5.27,3.67S28.6,198.92,28.6,195.52Zm7.45-1.31c-.06-1.25-.67-2-1.83-2a2,2,0,0,0-2,2Z" fill="#fff"/><path d="M41.28,192.62H40V190.2h1.32v-.92c0-2.58,1.6-3.81,4.07-3.81a6.36,6.36,0,0,1,1.63.22v2.6a3.29,3.29,0,0,0-1-.14,1,1,0,0,0-1.19,1.13v.92h2.11v2.42H44.81v8H41.28Z" fill="#fff"/><path d="M48,197V190.2h3.55v6.19c0,1.18.46,1.75,1.48,1.75s1.76-.63,1.76-2v-6h3.56v10.39H54.82V199a3.4,3.4,0,0,1-3.29,1.84C49.52,200.82,48,199.59,48,197Z" fill="#fff"/><path d="M60.19,190.2h3.55v1.66a3.67,3.67,0,0,1,3.42-1.94c2,0,3.4,1.25,3.4,3.91v6.76H67v-6c0-1.18-.46-1.75-1.49-1.75s-1.77.63-1.77,2v5.82H60.19Z" fill="#fff"/><path d="M71.77,195.5v-.16c0-3.53,1.94-5.42,4.41-5.42a3.36,3.36,0,0,1,3.2,1.75v-6h3.55v15H79.38V198.9a3.51,3.51,0,0,1-3.24,1.92C73.73,200.82,71.77,199.1,71.77,195.5Zm7.7-.06v-.16c0-1.75-.73-2.68-2-2.68s-2.05.89-2.05,2.7v.16c0,1.75.78,2.64,2,2.64S79.47,197.21,79.47,195.44Z" fill="#fff"/><path d="M84.6,198.8a2,2,0,0,1,2-2,2,2,0,1,1,0,4A2,2,0,0,1,84.6,198.8Z" fill="#fff"/><path d="M94.31,186.38h9.6v3.16h-5.5v3h4.38v3H98.41v5h-4.1Z" fill="#fff"/><path d="M104.92,187.38a2,2,0,1,1,2,1.82A1.85,1.85,0,0,1,104.92,187.38Zm.18,2.82h3.55v10.39H105.1Z" fill="#fff"/><path d="M110.66,185.63h3.54v15h-3.54Z" fill="#fff"/><path d="M115.55,195.52v-.16a5.31,5.31,0,0,1,5.62-5.44c2.84,0,5.28,1.63,5.28,5.36v.94h-7.31a2.08,2.08,0,0,0,2.17,2.16c1.17,0,1.67-.54,1.81-1.23h3.33c-.31,2.34-2.12,3.67-5.26,3.67S115.55,198.92,115.55,195.52Zm7.45-1.31c-.06-1.25-.68-2-1.83-2a2,2,0,0,0-2,2Z" fill="#fff"/><path d="M21.53,231.38v-4.62H20.28v-2.43h1.25v-2.16h3.56v2.16h2v2.43h-2v4.29c0,.75.37,1.09,1.05,1.09a2.67,2.67,0,0,0,1-.18v2.7a7.34,7.34,0,0,1-2,.3C22.84,235,21.53,233.83,21.53,231.38Z" fill="#fff"/><path d="M27.93,229.66v-.16c0-3.34,2.48-5.45,5.7-5.45s5.66,2,5.66,5.35v.16c0,3.37-2.48,5.4-5.68,5.4S27.93,233,27.93,229.66Zm7.74-.06v-.16c0-1.75-.69-2.72-2-2.72s-2.07.93-2.07,2.68v.16c0,1.78.7,2.76,2.07,2.76S35.67,231.32,35.67,229.6Z" fill="#fff"/><path d="M40,229.64v-.16c0-3.54,1.95-5.43,4.41-5.43a3.37,3.37,0,0,1,3.2,1.75v-6h3.56v15H47.63V233A3.49,3.49,0,0,1,44.39,235C42,235,40,233.23,40,229.64Zm7.71-.06v-.16c0-1.75-.73-2.68-2-2.68s-2,.89-2,2.7v.16c0,1.74.77,2.64,2,2.64S47.73,231.34,47.73,229.58Z" fill="#fff"/><path d="M52.4,231.84c0-2.44,2.06-3.4,5.52-3.4h1v-.23c0-1-.23-1.65-1.37-1.65a1.27,1.27,0,0,0-1.41,1.23H52.8c.15-2.5,2.12-3.74,5-3.74s4.69,1.18,4.69,3.94v6.73H59v-1.21A3.39,3.39,0,0,1,55.92,235C54.05,235,52.4,234.05,52.4,231.84Zm6.51-.75v-.64H58c-1.43,0-2.06.28-2.06,1.13,0,.6.39,1,1.23,1A1.56,1.56,0,0,0,58.91,231.09Z" fill="#fff"/><path d="M67.08,233.67l-4.15-9.34h3.85l2.15,5.54,2-5.54h3.4L68.75,238.2h-3.4Z" fill="#fff"/><path d="M78.24,231.84c0-2.44,2.07-3.4,5.52-3.4h1v-.23c0-1-.24-1.65-1.37-1.65A1.27,1.27,0,0,0,82,227.79H78.64c.16-2.5,2.12-3.74,5-3.74s4.68,1.18,4.68,3.94v6.73H84.84v-1.21A3.41,3.41,0,0,1,81.76,235C79.89,235,78.24,234.05,78.24,231.84Zm6.52-.75v-.64h-.94c-1.43,0-2.06.28-2.06,1.13,0,.6.4,1,1.23,1A1.57,1.57,0,0,0,84.76,231.09Z" fill="#fff"/><path d="M90.44,231.38v-4.62H89.19v-2.43h1.25v-2.16H94v2.16H96v2.43H94v4.29a1,1,0,0,0,1.06,1.09,2.71,2.71,0,0,0,1-.18v2.7a7.43,7.43,0,0,1-2,.3C91.75,235,90.44,233.83,90.44,231.38Z" fill="#fff"/><path d="M100.41,231.84c0-2.44,2.07-3.4,5.52-3.4h1v-.23c0-1-.24-1.65-1.37-1.65a1.26,1.26,0,0,0-1.41,1.23h-3.34c.16-2.5,2.12-3.74,5-3.74s4.69,1.18,4.69,3.94v6.73H107v-1.21a3.41,3.41,0,0,1-3.08,1.45C102.06,235,100.41,234.05,100.41,231.84Zm6.52-.75v-.64H106c-1.43,0-2.06.28-2.06,1.13,0,.6.39,1,1.23,1A1.57,1.57,0,0,0,106.93,231.09Z" fill="#fff"/><path d="M112.19,224.33h3.56V226a3.65,3.65,0,0,1,3.41-1.95c2,0,3.4,1.26,3.4,3.92v6.75H119v-6c0-1.17-.45-1.75-1.49-1.75s-1.76.64-1.76,2v5.82h-3.56Z" fill="#fff"/><path d="M21.37,254.65h4.09v5.43h4.67v-5.43h4.08v14.21H30.13v-5.6H25.46v5.6H21.37Z" fill="#fff"/><path d="M47.83,266l2.37,2.9H45.57l-.84-1a5.61,5.61,0,0,1-3.83,1.28c-3,0-5-1.59-5-4.29,0-1.83,1.11-3.18,3.12-4.14a4.56,4.56,0,0,1-.87-2.48c0-2.42,2.06-3.72,4.57-3.72,2.26,0,4.31,1.14,4.31,3.32,0,1.55-.92,2.68-2.84,3.52L46,263.49l1-2h3.1Zm-4.93-.42-2.24-2.7a1.67,1.67,0,0,0-.95,1.53,1.65,1.65,0,0,0,1.8,1.77A1.84,1.84,0,0,0,42.9,265.54Zm-.43-5.72c1-.46,1.41-1,1.41-1.73A1,1,0,0,0,42.83,257a1.13,1.13,0,0,0-1.18,1.23A2.6,2.6,0,0,0,42.47,259.82Z" fill="#fff"/><path d="M51.49,254.65h5.56c3.71,0,5.78,1.51,5.78,4.51v.08A3.72,3.72,0,0,1,60.27,263l3.39,5.88H59.37l-2.88-5.09h-1v5.09h-4Zm5.36,6.48c1.37,0,2-.58,2-1.73v-.08c0-1.15-.72-1.61-2-1.61H55.54v3.42Z" fill="#fff"/><path d="M68.65,254.65H75c3.35,0,4.78,1.51,4.78,3.72v.08a2.92,2.92,0,0,1-2.4,3.06,3.08,3.08,0,0,1,2.84,3.31v.08c0,2.55-1.65,4-5.17,4H68.65Zm5.52,5.65c1.27,0,1.75-.44,1.75-1.46v-.07c0-1-.52-1.42-1.75-1.42H72.62v2.95Zm.14,5.84c1.29,0,1.89-.6,1.89-1.65v-.08c0-1.08-.58-1.63-2-1.63H72.62v3.36Z" fill="#fff"/><path d="M81.62,253.9h3.53v15H81.62Z" fill="#fff"/><path d="M86.5,263.79v-.16c0-3.33,2.49-5.44,5.71-5.44s5.66,2.05,5.66,5.34v.16c0,3.38-2.49,5.41-5.68,5.41S86.5,267.15,86.5,263.79Zm7.75-.06v-.16c0-1.74-.69-2.72-2-2.72s-2.07.94-2.07,2.68v.16c0,1.79.7,2.76,2.07,2.76S94.25,265.46,94.25,263.73Z" fill="#fff"/><path d="M98.56,263.79v-.16a5.23,5.23,0,0,1,5.55-5.44c2.54,0,4.88,1.11,5.08,4.27h-3.34a1.54,1.54,0,0,0-1.67-1.51c-1.25,0-2,.89-2,2.64v.16c0,1.81.69,2.74,2,2.74a1.72,1.72,0,0,0,1.81-1.72h3.2c-.1,2.62-1.87,4.33-5.22,4.33C100.93,269.1,98.56,267.29,98.56,263.79Z" fill="#fff"/><path d="M110.4,253.9H114v8.68l2.8-4.11h3.69l-3.39,4.67,3.67,5.72h-4l-2.8-4.55v4.55H110.4Z" fill="#fff"/><path d="M21.05,292.6h3.56v1.67A3.68,3.68,0,0,1,28,292.32c2,0,3.39,1.26,3.39,3.92V303H27.87v-6c0-1.17-.46-1.74-1.49-1.74s-1.77.63-1.77,2V303H21.05Z" fill="#fff"/><path d="M32.59,297.93v-.16a5.32,5.32,0,0,1,5.63-5.45c2.84,0,5.28,1.63,5.28,5.37v.93H36.19a2.08,2.08,0,0,0,2.17,2.17c1.17,0,1.66-.54,1.8-1.23H43.5c-.32,2.34-2.12,3.67-5.26,3.67S32.59,301.32,32.59,297.93ZM40,296.62c-.06-1.26-.67-1.95-1.82-1.95a2,2,0,0,0-2,1.95Z" fill="#fff"/><path d="M44.23,300.11c0-2.44,2.07-3.39,5.53-3.39h1v-.24c0-1-.24-1.65-1.37-1.65A1.27,1.27,0,0,0,48,296.06H44.63c.16-2.5,2.13-3.74,5-3.74s4.69,1.18,4.69,3.94V303H50.83v-1.21a3.41,3.41,0,0,1-3.08,1.45C45.88,303.23,44.23,302.32,44.23,300.11Zm6.52-.75v-.64h-.93c-1.43,0-2.07.28-2.07,1.13,0,.6.4,1,1.23,1C50,300.83,50.75,300.25,50.75,299.36Z" fill="#fff"/><path d="M56,292.6h3.56v2.07a3.28,3.28,0,0,1,3.36-2.21v3.32c-2.17-.06-3.36.62-3.36,2.29V303H56Z" fill="#fff"/><path d="M71.09,301.94l-4.15-9.34h3.85l2.15,5.55,2-5.55h3.39l-5.56,13.87h-3.4Z" fill="#fff"/><path d="M78.12,297.93v-.16c0-3.34,2.49-5.45,5.7-5.45s5.67,2.05,5.67,5.35v.16c0,3.38-2.49,5.4-5.69,5.4S78.12,301.28,78.12,297.93Zm7.75-.06v-.16c0-1.75-.7-2.72-2.05-2.72s-2.06.93-2.06,2.68v.16c0,1.79.69,2.76,2.06,2.76S85.87,299.6,85.87,297.87Z" fill="#fff"/><path d="M90.66,299.38V292.6h3.55v6.2c0,1.17.46,1.75,1.47,1.75s1.77-.64,1.77-2v-6H101V303H97.45v-1.61a3.41,3.41,0,0,1-3.3,1.85C92.15,303.23,90.66,302,90.66,299.38Z" fill="#fff"/><path d="M102.67,301.21a2,2,0,0,1,2-2,2,2,0,1,1,0,4A2,2,0,0,1,102.67,301.21Z" fill="#fff"/></g></g></svg>