<svg xmlns="http://www.w3.org/2000/svg" viewBox="0 0 300 600"><title>H123</title><g id="Layer_2" data-name="Layer 2"><g id="Rect"><rect width="300" height="600" fill="none"/></g><g id="H123"><g id="Preparación_de_taxes_en_el_horario_que_te_convenga._Abierto" data-name="Preparación  de taxes en  el horario que te convenga.  Abierto"><path d="M21.64,83.24H32c7.49,0,11,3.3,11,9.06v.15c0,5.69-3.86,8.76-10.63,8.76H29.44v9.14h-7.8ZM31.7,95.9c2.52,0,3.86-1.17,3.86-3.41v-.15c0-2.31-1.38-3.26-3.83-3.26H29.44V95.9Z" fill="#fff"/><path d="M45.39,90.52h6.84v3.94a6.32,6.32,0,0,1,6.46-4.21v6.34c-4.17-.12-6.46,1.17-6.46,4.36v9.4H45.39Z" fill="#fff"/><path d="M59.92,100.68v-.3C59.92,94,64.7,90,70.74,90c5.47,0,10.17,3.11,10.17,10.24V102H66.84c.19,2.61,1.72,4.13,4.17,4.13,2.25,0,3.21-1,3.48-2.35h6.42c-.61,4.48-4.09,7-10.13,7C64.5,110.81,59.92,107.17,59.92,100.68Zm14.34-2.5c-.12-2.39-1.3-3.72-3.52-3.72-2.07,0-3.48,1.33-3.83,3.72Z" fill="#fff"/><path d="M83.28,90.52h6.84v3A7.08,7.08,0,0,1,96.36,90c4.66,0,8.45,3.49,8.45,10.27v.31c0,6.82-3.79,10.24-8.49,10.24a6.63,6.63,0,0,1-6.2-3.38V117H83.28Zm14.57,10v-.31c0-3.48-1.53-5.15-3.94-5.15s-4,1.78-4,5.12v.3c0,3.37,1.5,5.08,4,5.08S97.85,103.83,97.85,100.57Z" fill="#fff"/><path d="M106.15,104.85c0-4.66,4-6.48,10.63-6.48h1.91v-.46c0-1.89-.46-3.14-2.64-3.14a2.44,2.44,0,0,0-2.71,2.35h-6.43c.31-4.78,4.09-7.13,9.56-7.13s9,2.24,9,7.51v12.85h-6.66V108c-1,1.44-2.71,2.77-5.92,2.77C109.32,110.81,106.15,109.06,106.15,104.85Zm12.54-1.44V102.2h-1.8c-2.75,0-4,.53-4,2.16,0,1.14.76,1.86,2.37,1.86C117.24,106.22,118.69,105.12,118.69,103.41Z" fill="#fff"/><path d="M128.82,90.52h6.85v3.94a6.32,6.32,0,0,1,6.46-4.21v6.34c-4.17-.12-6.46,1.17-6.46,4.36v9.4h-6.85Z" fill="#fff"/><path d="M143,104.85c0-4.66,4-6.48,10.63-6.48h1.91v-.46c0-1.89-.46-3.14-2.64-3.14a2.44,2.44,0,0,0-2.71,2.35h-6.43c.31-4.78,4.1-7.13,9.56-7.13s9,2.24,9,7.51v12.85h-6.65V108c-1,1.44-2.72,2.77-5.93,2.77C146.18,110.81,143,109.06,143,104.85Zm12.54-1.44V102.2h-1.79c-2.76,0-4,.53-4,2.16,0,1.14.76,1.86,2.37,1.86C154.1,106.22,155.55,105.12,155.55,103.41Z" fill="#fff"/><path d="M164.62,100.68v-.3c0-6.6,4.77-10.39,10.66-10.39,4.9,0,9.41,2.12,9.79,8.15h-6.42c-.31-1.86-1.23-2.88-3.21-2.88-2.41,0-3.83,1.71-3.83,5v.31c0,3.45,1.34,5.23,3.94,5.23a3.32,3.32,0,0,0,3.48-3.3h6.16c-.19,5-3.6,8.27-10.06,8.27C169.17,110.81,164.62,107.35,164.62,100.68Z" fill="#fff"/><path d="M187.25,85.14A3.78,3.78,0,1,1,191,88.62,3.57,3.57,0,0,1,187.25,85.14Zm.35,5.38h6.84v19.83H187.6Z" fill="#fff"/><path d="M197,100.68v-.3C197,94,201.82,90,208,90s10.9,3.9,10.9,10.2v.3c0,6.45-4.78,10.32-10.94,10.32S197,107.09,197,100.68Zm14.92-.11v-.31c0-3.33-1.34-5.19-3.94-5.19s-4,1.78-4,5.12v.3c0,3.41,1.34,5.27,4,5.27S212,103.87,212,100.57ZM207.37,82h6.88l-4,6.29h-4.9Z" fill="#fff"/><path d="M221.32,90.52h6.85V93.7A7.08,7.08,0,0,1,234.75,90c3.86,0,6.54,2.39,6.54,7.47v12.89h-6.85V98.82c0-2.23-.88-3.33-2.87-3.33s-3.4,1.21-3.4,3.75v11.11h-6.85Z" fill="#fff"/><path d="M20,141.84v-.3c0-6.75,3.75-10.35,8.49-10.35a6.5,6.5,0,0,1,6.16,3.34V123h6.84v28.55H34.68v-3.22A6.75,6.75,0,0,1,28.44,152C23.82,152,20,148.71,20,141.84Zm14.84-.11v-.3c0-3.34-1.42-5.12-3.94-5.12S27,138,27,141.46v.31c0,3.33,1.49,5,3.86,5S34.87,145.1,34.87,141.73Z" fill="#fff"/><path d="M43.93,141.88v-.3c0-6.37,4.78-10.39,10.82-10.39,5.47,0,10.17,3.11,10.17,10.24v1.78H50.85c.19,2.62,1.72,4.13,4.17,4.13,2.26,0,3.21-1,3.48-2.35h6.42c-.61,4.48-4.09,7-10.13,7C48.52,152,43.93,148.37,43.93,141.88Zm14.34-2.5c-.11-2.39-1.3-3.72-3.52-3.72-2.06,0-3.48,1.33-3.82,3.72Z" fill="#fff"/><path d="M75.17,145.18v-8.83H72.76v-4.63h2.41v-4.13H82v4.13H86v4.63H82v8.19a1.81,1.81,0,0,0,2,2.08,5.27,5.27,0,0,0,2-.34v5.16a14.8,14.8,0,0,1-3.79.57C77.7,152,75.17,149.84,75.17,145.18Z" fill="#fff"/><path d="M87.49,146.05c0-4.66,4-6.48,10.63-6.48H100v-.46c0-1.89-.46-3.14-2.64-3.14a2.44,2.44,0,0,0-2.71,2.35H88.25c.31-4.78,4.09-7.13,9.56-7.13s9,2.24,9,7.51v12.85h-6.65v-2.31c-1,1.44-2.71,2.77-5.93,2.77C90.66,152,87.49,150.26,87.49,146.05ZM100,144.61V143.4h-1.8c-2.75,0-4,.53-4,2.16,0,1.14.77,1.86,2.38,1.86C98.58,147.42,100,146.32,100,144.61Z" fill="#fff"/><path d="M115.21,141.46,109,131.72h7.87L120,137l3-5.23h7l-6.31,9.21,6.92,10.62h-7.88l-3.55-5.91-3.64,5.91h-7Z" fill="#fff"/><path d="M129.74,141.88v-.3c0-6.37,4.78-10.39,10.82-10.39,5.47,0,10.17,3.11,10.17,10.24v1.78H136.66c.19,2.62,1.72,4.13,4.17,4.13,2.26,0,3.21-1,3.48-2.35h6.42c-.61,4.48-4.09,7-10.13,7C134.33,152,129.74,148.37,129.74,141.88Zm14.34-2.5c-.12-2.39-1.3-3.72-3.52-3.72-2.06,0-3.48,1.33-3.82,3.72Z" fill="#fff"/><path d="M152,145.26h6.31c.23,1.44.88,2.23,2.83,2.23,1.68,0,2.44-.64,2.44-1.63s-.95-1.4-3.71-1.78c-5.35-.68-7.61-2.24-7.61-6.37,0-4.4,3.94-6.52,8.57-6.52,4.93,0,8.37,1.67,8.83,6.41h-6.19a2.24,2.24,0,0,0-2.56-2c-1.49,0-2.26.65-2.26,1.56s.92,1.33,3.37,1.63c5.54.68,8.22,2.12,8.22,6.37,0,4.7-3.52,6.83-9.07,6.83S152.11,149.65,152,145.26Z" fill="#fff"/><path d="M178.3,141.88v-.3c0-6.37,4.78-10.39,10.83-10.39,5.46,0,10.17,3.11,10.17,10.24v1.78H185.23c.19,2.62,1.72,4.13,4.16,4.13,2.26,0,3.22-1,3.48-2.35h6.43c-.61,4.48-4.09,7-10.14,7C182.89,152,178.3,148.37,178.3,141.88Zm14.34-2.5c-.11-2.39-1.3-3.72-3.51-3.72s-3.48,1.33-3.83,3.72Z" fill="#fff"/><path d="M201.67,131.72h6.84v3.18a7.08,7.08,0,0,1,6.58-3.71c3.86,0,6.54,2.39,6.54,7.47v12.89h-6.85V140c0-2.23-.88-3.33-2.86-3.33s-3.41,1.21-3.41,3.75v11.11h-6.84Z" fill="#fff"/><path d="M20,183.08v-.3c0-6.37,4.78-10.39,10.82-10.39,5.47,0,10.17,3.11,10.17,10.24v1.78H26.88c.19,2.61,1.72,4.13,4.16,4.13,2.26,0,3.22-1,3.48-2.35H41c-.61,4.48-4.09,7-10.13,7C24.54,193.21,20,189.57,20,183.08Zm14.34-2.5c-.12-2.39-1.3-3.72-3.52-3.72s-3.48,1.33-3.83,3.72Z" fill="#fff"/><path d="M43.51,164.2h6.81v28.55H43.51Z" fill="#fff"/><path d="M61,164.2h6.84v11.9a7.08,7.08,0,0,1,6.58-3.71c3.86,0,6.54,2.39,6.54,7.47v12.89H74.06V181.22c0-2.23-.88-3.33-2.86-3.33s-3.41,1.21-3.41,3.75v11.11H61Z" fill="#fff"/><path d="M83.17,183.08v-.3c0-6.37,4.77-10.39,11-10.39s10.9,3.9,10.9,10.2v.3c0,6.45-4.78,10.32-10.94,10.32S83.17,189.49,83.17,183.08ZM98.08,183v-.31c0-3.33-1.34-5.19-3.94-5.19s-4,1.78-4,5.12v.3c0,3.41,1.34,5.27,4,5.27S98.08,186.27,98.08,183Z" fill="#fff"/><path d="M107.45,172.92h6.84v3.94a6.32,6.32,0,0,1,6.46-4.21V179c-4.16-.12-6.46,1.17-6.46,4.36v9.4h-6.84Z" fill="#fff"/><path d="M121.63,187.25c0-4.66,4-6.48,10.63-6.48h1.92v-.46c0-1.89-.46-3.14-2.64-3.14a2.45,2.45,0,0,0-2.72,2.35H122.4c.31-4.78,4.09-7.13,9.56-7.13s9,2.24,9,7.51v12.85h-6.65v-2.31c-1,1.44-2.72,2.77-5.93,2.77C124.81,193.21,121.63,191.46,121.63,187.25Zm12.55-1.44V184.6h-1.8c-2.75,0-4,.53-4,2.16,0,1.14.77,1.86,2.37,1.86C132.72,188.62,134.18,187.52,134.18,185.81Z" fill="#fff"/><path d="M144.31,172.92h6.84v3.94a6.34,6.34,0,0,1,6.47-4.21V179c-4.17-.12-6.47,1.17-6.47,4.36v9.4h-6.84Z" fill="#fff"/><path d="M160,167.54A3.78,3.78,0,1,1,163.7,171,3.56,3.56,0,0,1,160,167.54Zm.34,5.38h6.85v19.83h-6.85Z" fill="#fff"/><path d="M169.74,183.08v-.3c0-6.37,4.78-10.39,11-10.39s10.9,3.9,10.9,10.2v.3c0,6.45-4.78,10.32-10.94,10.32S169.74,189.49,169.74,183.08Zm14.91-.11v-.31c0-3.33-1.34-5.19-3.94-5.19s-4,1.78-4,5.12v.3c0,3.41,1.33,5.27,4,5.27S184.65,186.27,184.65,183Z" fill="#fff"/><path d="M214.63,189.68a6.9,6.9,0,0,1-6.23,3.53c-4.63,0-8.41-3.3-8.41-10.17v-.3c0-6.75,3.74-10.35,8.48-10.35a6.5,6.5,0,0,1,6.16,3.34v-2.81h6.85v26.47h-6.85Zm.19-6.75v-.3c0-3.34-1.41-5.12-3.94-5.12s-3.93,1.7-3.93,5.15V183c0,3.33,1.49,5,3.86,5S214.82,186.3,214.82,182.93Z" fill="#fff"/><path d="M224.8,185.85V172.92h6.85v11.83c0,2.24.88,3.34,2.83,3.34s3.4-1.22,3.4-3.76V172.92h6.85v19.83h-6.85v-3.07c-1.07,2-3,3.53-6.35,3.53C227.67,193.21,224.8,190.85,224.8,185.85Z" fill="#fff"/><path d="M247.13,183.08v-.3c0-6.37,4.78-10.39,10.83-10.39,5.46,0,10.17,3.11,10.17,10.24v1.78H254.06c.19,2.61,1.72,4.13,4.16,4.13,2.26,0,3.22-1,3.48-2.35h6.43c-.61,4.48-4.09,7-10.14,7C251.72,193.21,247.13,189.57,247.13,183.08Zm14.34-2.5c-.11-2.39-1.3-3.72-3.51-3.72s-3.48,1.33-3.83,3.72Z" fill="#fff"/><path d="M21.94,227.58v-8.83h-2.4v-4.63h2.4V210h6.85v4.13h3.94v4.63H28.79v8.19a1.82,1.82,0,0,0,2,2.08,5.25,5.25,0,0,0,2-.34v5.16a14.8,14.8,0,0,1-3.79.57C24.47,234.41,21.94,232.24,21.94,227.58Z" fill="#fff"/><path d="M34.26,224.28V224c0-6.37,4.78-10.39,10.82-10.39,5.47,0,10.17,3.11,10.17,10.24v1.78H41.18c.19,2.62,1.72,4.13,4.17,4.13,2.25,0,3.21-1,3.48-2.35h6.42c-.61,4.48-4.09,7-10.13,7C38.85,234.41,34.26,230.77,34.26,224.28Zm14.34-2.5c-.12-2.39-1.3-3.72-3.52-3.72s-3.48,1.33-3.83,3.72Z" fill="#fff"/><path d="M63.51,224.28V224c0-6.6,4.78-10.39,10.67-10.39,4.89,0,9.41,2.12,9.79,8.15H77.54c-.3-1.86-1.22-2.88-3.21-2.88-2.41,0-3.82,1.71-3.82,5v.31c0,3.45,1.34,5.23,3.94,5.23a3.32,3.32,0,0,0,3.48-3.3h6.15c-.19,5-3.59,8.27-10,8.27C68.06,234.41,63.51,231,63.51,224.28Z" fill="#fff"/><path d="M85.23,224.28V224c0-6.37,4.78-10.39,11-10.39s10.9,3.9,10.9,10.2v.3c0,6.45-4.78,10.32-10.93,10.32S85.23,230.69,85.23,224.28Zm14.91-.11v-.31c0-3.33-1.34-5.19-3.94-5.19s-4,1.78-4,5.12v.3c0,3.41,1.34,5.27,4,5.27S100.14,227.47,100.14,224.17Z" fill="#fff"/><path d="M109.51,214.12h6.85v3.18a7.07,7.07,0,0,1,6.57-3.71c3.87,0,6.54,2.39,6.54,7.47V234h-6.84V222.42c0-2.23-.88-3.33-2.87-3.33s-3.4,1.21-3.4,3.75V234h-6.85Z" fill="#fff"/><path d="M130.58,214.12h7.31l4.16,12.78,4.1-12.78h6.53L145.38,234h-7.46Z" fill="#fff"/><path d="M152.26,224.28V224c0-6.37,4.78-10.39,10.82-10.39,5.47,0,10.18,3.11,10.18,10.24v1.78H159.18c.2,2.62,1.73,4.13,4.17,4.13,2.26,0,3.21-1,3.48-2.35h6.43c-.62,4.48-4.09,7-10.14,7C156.85,234.41,152.26,230.77,152.26,224.28Zm14.34-2.5c-.11-2.39-1.3-3.72-3.52-3.72-2.06,0-3.47,1.33-3.82,3.72Z" fill="#fff"/><path d="M175.63,214.12h6.84v3.18a7.08,7.08,0,0,1,6.58-3.71c3.86,0,6.54,2.39,6.54,7.47V234h-6.85V222.42c0-2.23-.88-3.33-2.86-3.33s-3.41,1.21-3.41,3.75V234h-6.84Z" fill="#fff"/><path d="M197.81,234h6.8c.31,1.44,1.19,2.58,3.68,2.58,3,0,4.24-1.71,4.24-4.17v-3a7,7,0,0,1-6.2,3.64c-4.66,0-8.48-3.41-8.48-9.51v-.31c0-5.84,3.78-9.55,8.48-9.55a6.52,6.52,0,0,1,6.2,3.34v-2.81h6.84v18.16c0,5.92-3.93,9-11.08,9C201.48,241.31,198.34,238.46,197.81,234Zm14.91-10.54v-.27c0-2.73-1.41-4.47-3.94-4.47s-3.94,1.78-3.94,4.51v.31c0,2.73,1.46,4.47,3.9,4.47S212.72,226.22,212.72,223.41Z" fill="#fff"/><path d="M221.71,228.45c0-4.66,4-6.48,10.63-6.48h1.91v-.46c0-1.89-.46-3.14-2.64-3.14a2.44,2.44,0,0,0-2.71,2.35h-6.43c.31-4.78,4.09-7.13,9.56-7.13s9,2.24,9,7.51V234H234.4v-2.31c-1,1.44-2.71,2.77-5.93,2.77C224.88,234.41,221.71,232.66,221.71,228.45ZM234.25,227V225.8h-1.8c-2.75,0-4,.53-4,2.16,0,1.14.77,1.86,2.38,1.86C232.8,229.82,234.25,228.72,234.25,227Z" fill="#fff"/><path d="M244.12,230.54a3.79,3.79,0,0,1,3.9-3.83,3.83,3.83,0,1,1,0,7.66A3.8,3.8,0,0,1,244.12,230.54Z" fill="#fff"/><path d="M28.25,248H38.39l8.68,27.11h-8.3l-1.45-5H28.25l-1.45,5H19.5Zm1.53,16.72h6l-3-10.43Z" fill="#fff"/><path d="M55.86,272.08v3.07H49V246.6h6.84v11.68a7.07,7.07,0,0,1,6.24-3.49c4.66,0,8.45,3.49,8.45,10.27v.31c0,6.82-3.79,10.24-8.49,10.24A6.51,6.51,0,0,1,55.86,272.08Zm7.73-6.71v-.31c0-3.48-1.53-5.15-3.94-5.15s-4,1.78-4,5.12v.3c0,3.37,1.49,5.08,4,5.08S63.59,268.63,63.59,265.37Z" fill="#fff"/><path d="M72.88,249.94a3.78,3.78,0,1,1,3.75,3.48A3.57,3.57,0,0,1,72.88,249.94Zm.34,5.38h6.85v19.83H73.22Z" fill="#fff"/><path d="M82.67,265.48v-.3c0-6.37,4.78-10.39,10.82-10.39,5.47,0,10.17,3.11,10.17,10.24v1.78H89.59c.19,2.61,1.72,4.13,4.17,4.13,2.25,0,3.21-1,3.48-2.35h6.42c-.61,4.47-4.09,7-10.13,7C87.26,275.61,82.67,272,82.67,265.48ZM97,263c-.12-2.39-1.3-3.72-3.52-3.72-2.06,0-3.48,1.33-3.82,3.72Z" fill="#fff"/><path d="M106,255.32h6.85v3.94a6.32,6.32,0,0,1,6.46-4.21v6.34c-4.17-.12-6.46,1.17-6.46,4.36v9.4H106Z" fill="#fff"/><path d="M123.05,268.78V260h-2.41v-4.63h2.41v-4.13h6.84v4.13h3.94V260h-3.94v8.19a1.82,1.82,0,0,0,2,2.08,5.18,5.18,0,0,0,2-.34V275a14.8,14.8,0,0,1-3.79.57C125.57,275.61,123.05,273.44,123.05,268.78Z" fill="#fff"/><path d="M135.36,265.48v-.3c0-6.37,4.78-10.39,11-10.39s10.89,3.9,10.89,10.2v.3c0,6.45-4.77,10.32-10.93,10.32S135.36,271.89,135.36,265.48Zm14.92-.11v-.31c0-3.33-1.34-5.19-3.94-5.19s-4,1.78-4,5.12v.3c0,3.41,1.34,5.27,4,5.27S150.28,268.67,150.28,265.37Z" fill="#fff"/><path d="M166.79,246.6h6.81v28.55h-6.81Z" fill="#fff"/><path d="M176.2,265.48v-.3c0-6.37,4.78-10.39,11-10.39s10.89,3.9,10.89,10.2v.3c0,6.45-4.78,10.32-10.93,10.32S176.2,271.89,176.2,265.48Zm14.92-.11v-.31c0-3.33-1.34-5.19-3.94-5.19s-4,1.78-4,5.12v.3c0,3.41,1.34,5.27,4,5.27S191.12,268.67,191.12,265.37Z" fill="#fff"/><path d="M199.26,268.86h6.31c.23,1.44.88,2.23,2.83,2.23,1.68,0,2.45-.64,2.45-1.63s-1-1.4-3.71-1.78c-5.36-.68-7.61-2.24-7.61-6.37,0-4.4,3.94-6.52,8.56-6.52,4.94,0,8.38,1.67,8.84,6.41h-6.2a2.23,2.23,0,0,0-2.56-2c-1.49,0-2.26.65-2.26,1.56s.92,1.33,3.37,1.63c5.54.68,8.22,2.12,8.22,6.37,0,4.7-3.52,6.83-9.06,6.83C202.74,275.61,199.41,273.25,199.26,268.86Z" fill="#fff"/><path d="M22.06,301.15H19.54v-4.63h2.52v-1.74c0-4.93,3.1-7.28,7.84-7.28a12.13,12.13,0,0,1,3.13.41v5a6.34,6.34,0,0,0-1.87-.27,2,2,0,0,0-2.29,2.17v1.74h4.05v4.63H28.87v15.2H22.06Z" fill="#fff"/><path d="M35.06,291.14a3.77,3.77,0,0,1,7.53,0,3.56,3.56,0,0,1-3.78,3.48A3.53,3.53,0,0,1,35.06,291.14Zm.34,5.38h6.85v19.83H35.4Z" fill="#fff"/><path d="M45.92,296.52h6.85v3.18A7.07,7.07,0,0,1,59.34,296c3.86,0,6.54,2.39,6.54,7.47v12.89H59V304.82c0-2.23-.88-3.33-2.87-3.33s-3.4,1.21-3.4,3.75v11.11H45.92Z" fill="#fff"/><path d="M68.14,306.68v-.3C68.14,300,72.92,296,79,296c5.47,0,10.17,3.11,10.17,10.24V308H75.06c.19,2.61,1.72,4.13,4.17,4.13,2.25,0,3.21-1,3.48-2.35h6.42c-.61,4.47-4.09,7-10.13,7C72.73,316.81,68.14,313.17,68.14,306.68Zm14.34-2.5c-.12-2.39-1.3-3.72-3.52-3.72-2.07,0-3.48,1.33-3.82,3.72Z" fill="#fff"/><path d="M90.35,310.06h6.31c.23,1.44.88,2.23,2.83,2.23,1.69,0,2.45-.64,2.45-1.63s-1-1.4-3.71-1.78c-5.35-.68-7.61-2.24-7.61-6.37,0-4.4,3.94-6.52,8.57-6.52,4.93,0,8.37,1.67,8.83,6.41h-6.19a2.24,2.24,0,0,0-2.57-2c-1.49,0-2.25.65-2.25,1.56s.92,1.33,3.36,1.63c5.55.68,8.22,2.12,8.22,6.37,0,4.7-3.51,6.83-9.06,6.83C93.83,316.81,90.51,314.46,90.35,310.06Z" fill="#fff"/><path d="M116.78,306.64v-.3c0-6.75,3.74-10.35,8.49-10.35a6.48,6.48,0,0,1,6.15,3.34V287.8h6.85v28.55h-6.85v-3.22a6.75,6.75,0,0,1-6.23,3.68C120.56,316.81,116.78,313.51,116.78,306.64Zm14.83-.11v-.3c0-3.34-1.41-5.12-3.93-5.12s-3.94,1.7-3.94,5.15v.31c0,3.33,1.49,5,3.86,5S131.61,309.9,131.61,306.53Z" fill="#fff"/><path d="M140.68,306.68v-.3c0-6.37,4.78-10.39,10.82-10.39,5.47,0,10.17,3.11,10.17,10.24V308H147.6c.19,2.61,1.72,4.13,4.17,4.13,2.25,0,3.21-1,3.48-2.35h6.42c-.61,4.47-4.09,7-10.13,7C145.27,316.81,140.68,313.17,140.68,306.68Zm14.34-2.5c-.12-2.39-1.3-3.72-3.52-3.72-2.07,0-3.48,1.33-3.83,3.72Z" fill="#fff"/><path d="M19.69,351.26H26c.23,1.44.88,2.23,2.83,2.23,1.68,0,2.44-.64,2.44-1.63s-.95-1.4-3.7-1.78c-5.36-.68-7.61-2.24-7.61-6.37,0-4.4,3.93-6.52,8.56-6.52,4.93,0,8.38,1.67,8.83,6.41H31.16a2.23,2.23,0,0,0-2.56-2c-1.49,0-2.26.65-2.26,1.56s.92,1.33,3.37,1.63c5.54.68,8.22,2.12,8.22,6.37,0,4.7-3.52,6.83-9.06,6.83C23.17,358,19.84,355.66,19.69,351.26Z" fill="#fff"/><path d="M39.19,347.88v-.3c0-6.37,4.78-10.39,10.82-10.39,5.47,0,10.17,3.11,10.17,10.24v1.78H46.11c.19,2.62,1.72,4.13,4.17,4.13,2.26,0,3.21-1,3.48-2.35h6.42c-.61,4.47-4.09,7-10.13,7C43.78,358,39.19,354.37,39.19,347.88Zm14.34-2.5c-.12-2.39-1.3-3.72-3.52-3.72-2.06,0-3.48,1.33-3.82,3.72Z" fill="#fff"/><path d="M62.55,337.72H69.4v3a7,7,0,0,1,6.27-3.56,5.46,5.46,0,0,1,5.43,3.3,7.93,7.93,0,0,1,6.62-3.3c3.78,0,6.53,2.43,6.53,7.39v13H87.41V345.72c0-2-1-3-2.56-3-1.84,0-3.06,1.18-3.06,3.34v11.49H75V345.72c0-2-1-3-2.56-3-1.84,0-3.06,1.18-3.06,3.34v11.49H62.55Z" fill="#fff"/><path d="M96.43,352.05c0-4.66,4-6.48,10.63-6.48H109v-.46c0-1.89-.46-3.14-2.64-3.14a2.45,2.45,0,0,0-2.72,2.35H97.2c.31-4.78,4.09-7.13,9.56-7.13s9,2.24,9,7.51v12.85h-6.65v-2.31c-1,1.44-2.71,2.77-5.93,2.77C99.61,358,96.43,356.26,96.43,352.05ZM109,350.61V349.4h-1.8c-2.75,0-4,.53-4,2.16,0,1.14.77,1.86,2.37,1.86C107.52,353.42,109,352.32,109,350.61Z" fill="#fff"/><path d="M119.11,337.72H126v3.18a7.07,7.07,0,0,1,6.57-3.71c3.86,0,6.54,2.39,6.54,7.47v12.89h-6.84V346c0-2.23-.88-3.33-2.87-3.33s-3.4,1.21-3.4,3.75v11.11h-6.85Z" fill="#fff"/><path d="M141.25,352.05c0-4.66,4-6.48,10.63-6.48h1.91v-.46c0-1.89-.46-3.14-2.64-3.14a2.44,2.44,0,0,0-2.71,2.35H142c.3-4.78,4.09-7.13,9.56-7.13s9,2.24,9,7.51v12.85H154v-2.31c-1,1.44-2.72,2.77-5.93,2.77C144.42,358,141.25,356.26,141.25,352.05Zm12.54-1.44V349.4H152c-2.76,0-4,.53-4,2.16,0,1.14.76,1.86,2.37,1.86C152.34,353.42,153.79,352.32,153.79,350.61Z" fill="#fff"/><path d="M177.16,355.54l-8-17.82h7.41l4.13,10.58,3.83-10.58h6.54l-10.71,26.47h-6.54Z" fill="#fff"/><path d="M199.79,337.72h6.85v3a7.06,7.06,0,0,1,6.23-3.49c4.67,0,8.45,3.49,8.45,10.27v.31c0,6.82-3.78,10.24-8.49,10.24a6.6,6.6,0,0,1-6.19-3.38v9.56h-6.85Zm14.57,10v-.31c0-3.48-1.53-5.15-3.93-5.15s-4,1.78-4,5.12v.3c0,3.37,1.49,5.08,4,5.08S214.36,351,214.36,347.77Z" fill="#fff"/><path d="M222.74,347.88v-.3c0-6.37,4.78-10.39,11-10.39s10.9,3.9,10.9,10.2v.3c0,6.45-4.78,10.32-10.94,10.32S222.74,354.29,222.74,347.88Zm14.91-.11v-.31c0-3.33-1.34-5.19-3.94-5.19s-4,1.78-4,5.12v.3c0,3.41,1.33,5.27,4,5.27S237.65,351.07,237.65,347.77Z" fill="#fff"/><path d="M247,337.72h6.85v3.94a6.32,6.32,0,0,1,6.46-4.21v6.34c-4.17-.12-6.46,1.17-6.46,4.36v9.4H247Z" fill="#fff"/><path d="M21.22,370.2H28v28.55h-6.8Z" fill="#fff"/><path d="M30.55,393.25c0-4.66,4-6.48,10.63-6.48h1.91v-.46c0-1.89-.46-3.14-2.64-3.14a2.44,2.44,0,0,0-2.71,2.35H31.31c.31-4.78,4.09-7.13,9.56-7.13s9,2.24,9,7.51v12.85H43.24v-2.31c-1,1.44-2.71,2.77-5.92,2.77C33.72,399.21,30.55,397.46,30.55,393.25Zm12.54-1.44V390.6h-1.8c-2.75,0-4,.53-4,2.16,0,1.14.76,1.86,2.37,1.86C41.64,394.62,43.09,393.52,43.09,391.81Z" fill="#fff"/><path d="M51.89,392.46h6.3c.23,1.44.88,2.23,2.83,2.23,1.69,0,2.45-.64,2.45-1.63s-.95-1.4-3.71-1.78c-5.35-.68-7.61-2.24-7.61-6.37,0-4.4,3.94-6.52,8.57-6.52,4.93,0,8.37,1.67,8.83,6.41H63.36a2.24,2.24,0,0,0-2.57-2c-1.49,0-2.25.64-2.25,1.55s.92,1.33,3.36,1.63c5.55.68,8.23,2.12,8.23,6.37,0,4.7-3.52,6.83-9.07,6.83S52,396.86,51.89,392.46Z" fill="#fff"/><path d="M79.3,378.92h6.85v3.18a7.07,7.07,0,0,1,6.57-3.71c3.87,0,6.54,2.39,6.54,7.47v12.89H92.42V387.22c0-2.23-.88-3.33-2.87-3.33s-3.4,1.21-3.4,3.75v11.11H79.3Z" fill="#fff"/><path d="M101.52,389.08v-.3c0-6.37,4.78-10.39,11-10.39s10.9,3.9,10.9,10.2v.3c0,6.45-4.78,10.32-10.93,10.32S101.52,395.49,101.52,389.08Zm14.91-.11v-.3c0-3.34-1.34-5.2-3.94-5.2s-4,1.78-4,5.12v.3c0,3.41,1.34,5.27,4,5.27S116.43,392.27,116.43,389Z" fill="#fff"/><path d="M124.73,389.08v-.3c0-6.6,4.78-10.39,10.67-10.39,4.89,0,9.41,2.12,9.79,8.15h-6.43c-.3-1.86-1.22-2.88-3.21-2.88-2.41,0-3.82,1.71-3.82,5V389c0,3.45,1.34,5.23,3.94,5.23a3.32,3.32,0,0,0,3.48-3.3h6.15c-.19,5-3.59,8.27-10.05,8.27C129.28,399.21,124.73,395.76,124.73,389.08Z" fill="#fff"/><path d="M147.52,370.2h6.85v11.9a7.07,7.07,0,0,1,6.57-3.71c3.87,0,6.54,2.39,6.54,7.47v12.89h-6.84V387.22c0-2.23-.88-3.33-2.87-3.33s-3.4,1.21-3.4,3.75v11.11h-6.85Z" fill="#fff"/><path d="M169.74,389.08v-.3c0-6.37,4.78-10.39,10.82-10.39,5.47,0,10.17,3.11,10.17,10.24v1.78H176.66c.19,2.62,1.72,4.13,4.17,4.13,2.25,0,3.21-1,3.48-2.35h6.42c-.61,4.48-4.09,7-10.13,7C174.33,399.21,169.74,395.57,169.74,389.08Zm14.34-2.5c-.12-2.39-1.3-3.72-3.52-3.72-2.06,0-3.48,1.33-3.82,3.72Z" fill="#fff"/><path d="M192,392.46h6.31c.23,1.44.87,2.23,2.82,2.23,1.69,0,2.45-.64,2.45-1.63s-.95-1.4-3.71-1.78c-5.35-.68-7.61-2.24-7.61-6.37,0-4.4,3.94-6.52,8.57-6.52,4.93,0,8.37,1.67,8.83,6.41h-6.19a2.23,2.23,0,0,0-2.56-2c-1.5,0-2.26.64-2.26,1.55s.92,1.33,3.36,1.63c5.55.68,8.23,2.12,8.23,6.37,0,4.7-3.52,6.83-9.07,6.83S192.11,396.86,192,392.46Z" fill="#fff"/><path d="M212.15,395.34a3.79,3.79,0,0,1,3.9-3.83,3.83,3.83,0,1,1,0,7.66A3.8,3.8,0,0,1,212.15,395.34Z" fill="#fff"/></g></g></g></svg>