<svg xmlns="http://www.w3.org/2000/svg" viewBox="0 0 728 90"><title>Asset 4</title><g id="Layer_2" data-name="Layer 2"><g id="rect"><rect width="728" height="90" fill="none"/></g><g id="Most_people_get_a_tax_refund._File_today_at_an_H_R_Block_near" data-name="Most people get a tax refund. File  today at an H&amp;R Block near"><path d="M117.87,15.2h7.26l3.72,10.35,3.72-10.35h7.11V34.62h-5.54V22.53l-4.75,12.09h-1.85l-4.7-12.09V34.62h-5Z" fill="#fff"/><path d="M141.67,27.69v-.22c0-4.56,3.39-7.44,7.79-7.44s7.74,2.8,7.74,7.31v.22c0,4.61-3.39,7.38-7.76,7.38S141.67,32.28,141.67,27.69Zm10.59-.08v-.22c0-2.39-.95-3.72-2.8-3.72s-2.82,1.28-2.82,3.67v.22c0,2.44,1,3.77,2.82,3.77S152.26,30,152.26,27.61Z" fill="#fff"/><path d="M158,30.11h4.49c.16,1,.62,1.6,2,1.6,1.19,0,1.73-.46,1.73-1.17s-.67-1-2.63-1.27c-3.8-.49-5.4-1.61-5.4-4.57,0-3.15,2.79-4.67,6.08-4.67,3.5,0,6,1.2,6.27,4.59h-4.4a1.58,1.58,0,0,0-1.82-1.41c-1.06,0-1.6.46-1.6,1.11s.65.95,2.39,1.17C169.1,26,171,27,171,30.05c0,3.37-2.5,4.89-6.44,4.89S158.15,33.26,158,30.11Z" fill="#fff"/><path d="M173.23,30.05V23.73h-1.71V20.41h1.71v-3h4.86v3h2.8v3.32h-2.8v5.86a1.3,1.3,0,0,0,1.44,1.5,3.82,3.82,0,0,0,1.39-.25v3.7a10.43,10.43,0,0,1-2.69.4C175,34.94,173.23,33.4,173.23,30.05Z" fill="#fff"/><path d="M187.68,20.41h4.86v2.12A5,5,0,0,1,197,20c3.31,0,6,2.5,6,7.36v.22c0,4.89-2.69,7.33-6,7.33a4.68,4.68,0,0,1-4.4-2.41v6.84h-4.86ZM198,27.61v-.22c0-2.5-1.09-3.69-2.8-3.69S192.4,25,192.4,27.37v.21c0,2.42,1.06,3.64,2.83,3.64S198,30,198,27.61Z" fill="#fff"/><path d="M204,27.69v-.22c0-4.56,3.4-7.44,7.69-7.44,3.88,0,7.23,2.23,7.23,7.34v1.27h-10a2.83,2.83,0,0,0,3,3c1.6,0,2.28-.73,2.47-1.68h4.57c-.44,3.2-2.91,5-7.2,5C207.23,34.94,204,32.34,204,27.69Zm10.19-1.79c-.08-1.71-.92-2.66-2.5-2.66s-2.47,1-2.72,2.66Z" fill="#fff"/><path d="M219.81,27.69v-.22c0-4.56,3.39-7.44,7.79-7.44s7.74,2.8,7.74,7.31v.22c0,4.61-3.39,7.38-7.76,7.38S219.81,32.28,219.81,27.69Zm10.59-.08v-.22c0-2.39-1-3.72-2.8-3.72s-2.82,1.28-2.82,3.67v.22c0,2.44.95,3.77,2.82,3.77S230.4,30,230.4,27.61Z" fill="#fff"/><path d="M237.06,20.41h4.86v2.12a5,5,0,0,1,4.43-2.5c3.31,0,6,2.5,6,7.36v.22c0,4.89-2.69,7.33-6,7.33a4.67,4.67,0,0,1-4.4-2.41v6.84h-4.86Zm10.34,7.2v-.22c0-2.5-1.08-3.69-2.79-3.69s-2.83,1.28-2.83,3.67v.21c0,2.42,1.06,3.64,2.83,3.64S247.4,30,247.4,27.61Z" fill="#fff"/><path d="M254.25,14.17h4.83V34.62h-4.83Z" fill="#fff"/><path d="M260.93,27.69v-.22c0-4.56,3.4-7.44,7.69-7.44,3.88,0,7.22,2.23,7.22,7.34v1.27h-10a2.83,2.83,0,0,0,3,3c1.6,0,2.28-.73,2.47-1.68h4.56c-.43,3.2-2.9,5-7.2,5S260.93,32.34,260.93,27.69Zm10.19-1.79c-.09-1.71-.93-2.66-2.5-2.66s-2.47,1-2.72,2.66Z" fill="#fff"/><path d="M281.68,34.62h4.84c.21,1,.84,1.84,2.6,1.84a2.69,2.69,0,0,0,3-3V31.3a5,5,0,0,1-4.4,2.61c-3.32,0-6-2.44-6-6.82v-.21c0-4.19,2.69-6.85,6-6.85a4.63,4.63,0,0,1,4.4,2.39v-2H297v13c0,4.24-2.8,6.47-7.88,6.47C284.29,39.89,282.06,37.85,281.68,34.62Zm10.59-7.55v-.19c0-2-1-3.21-2.79-3.21s-2.8,1.28-2.8,3.23v.22c0,2,1,3.21,2.77,3.21S292.27,29.08,292.27,27.07Z" fill="#fff"/><path d="M298.71,27.69v-.22c0-4.56,3.4-7.44,7.69-7.44,3.88,0,7.22,2.23,7.22,7.34v1.27h-10a2.83,2.83,0,0,0,3,3c1.6,0,2.28-.73,2.47-1.68h4.56c-.43,3.2-2.9,5-7.2,5S298.71,32.34,298.71,27.69ZM308.9,25.9c-.09-1.71-.93-2.66-2.5-2.66s-2.47,1-2.72,2.66Z" fill="#fff"/><path d="M316,30.05V23.73h-1.71V20.41H316v-3h4.86v3h2.8v3.32h-2.8v5.86a1.3,1.3,0,0,0,1.44,1.5,3.73,3.73,0,0,0,1.38-.25v3.7a10.27,10.27,0,0,1-2.68.4C317.75,34.94,316,33.4,316,30.05Z" fill="#fff"/><path d="M329.59,30.68c0-3.34,2.83-4.65,7.55-4.65h1.36v-.32c0-1.36-.32-2.26-1.87-2.26a1.75,1.75,0,0,0-1.93,1.69h-4.56c.21-3.42,2.9-5.11,6.79-5.11s6.41,1.6,6.41,5.38v9.21h-4.73V33a4.67,4.67,0,0,1-4.21,2C331.85,34.94,329.59,33.69,329.59,30.68Zm8.91-1v-.87h-1.27c-2,0-2.83.38-2.83,1.55,0,.81.54,1.33,1.68,1.33C337.47,31.66,338.5,30.87,338.5,29.65Z" fill="#fff"/><path d="M351.29,30.05V23.73h-1.71V20.41h1.71v-3h4.87v3H359v3.32h-2.79v5.86c0,1,.51,1.5,1.44,1.5a3.73,3.73,0,0,0,1.38-.25v3.7a10.36,10.36,0,0,1-2.69.4C353.09,34.94,351.29,33.4,351.29,30.05Z" fill="#fff"/><path d="M360,30.68c0-3.34,2.82-4.65,7.55-4.65H369v-.32c0-1.36-.33-2.26-1.88-2.26a1.75,1.75,0,0,0-1.93,1.69h-4.56c.22-3.42,2.91-5.11,6.79-5.11s6.41,1.6,6.41,5.38v9.21h-4.72V33a4.67,4.67,0,0,1-4.21,2C362.29,34.94,360,33.69,360,30.68Zm8.91-1v-.87h-1.28c-2,0-2.82.38-2.82,1.55,0,.81.54,1.33,1.68,1.33C367.92,31.66,369,30.87,369,29.65Z" fill="#fff"/><path d="M379.73,27.39l-4.43-7h5.6l2.2,3.75,2.14-3.75h5L385.76,27l4.92,7.61h-5.6l-2.52-4.24L380,34.62h-5Z" fill="#fff"/><path d="M397,20.41h4.86v2.83a4.48,4.48,0,0,1,4.59-3v4.54c-3-.08-4.59.84-4.59,3.12v6.74H397Z" fill="#fff"/><path d="M407.3,27.69v-.22c0-4.56,3.4-7.44,7.69-7.44,3.88,0,7.22,2.23,7.22,7.34v1.27h-10a2.83,2.83,0,0,0,3,3c1.6,0,2.28-.73,2.47-1.68h4.56c-.43,3.2-2.91,5-7.2,5C410.56,34.94,407.3,32.34,407.3,27.69Zm10.19-1.79c-.09-1.71-.93-2.66-2.5-2.66a2.7,2.7,0,0,0-2.72,2.66Z" fill="#fff"/><path d="M424.63,23.73h-1.79V20.41h1.79V19.16c0-3.53,2.2-5.21,5.57-5.21a8.33,8.33,0,0,1,2.22.3V17.8a4.7,4.7,0,0,0-1.33-.19,1.43,1.43,0,0,0-1.63,1.55v1.25h2.88v3.32h-2.88V34.62h-4.83Z" fill="#fff"/><path d="M433.86,29.67V20.41h4.87v8.48c0,1.6.62,2.39,2,2.39s2.41-.87,2.41-2.69V20.41H448V34.62h-4.86v-2.2a4.67,4.67,0,0,1-4.51,2.52C435.9,34.94,433.86,33.26,433.86,29.67Z" fill="#fff"/><path d="M450.49,20.41h4.86v2.28A5,5,0,0,1,460,20c2.74,0,4.64,1.71,4.64,5.35v9.24H459.8V26.36c0-1.6-.62-2.39-2-2.39s-2.42.87-2.42,2.69v8h-4.86Z" fill="#fff"/><path d="M466.32,27.66v-.21c0-4.84,2.66-7.42,6-7.42a4.59,4.59,0,0,1,4.37,2.39V14.17h4.87V34.62h-4.87V32.31a4.77,4.77,0,0,1-4.42,2.63C469,34.94,466.32,32.58,466.32,27.66Zm10.54-.08v-.21c0-2.39-1-3.67-2.8-3.67s-2.8,1.22-2.8,3.69v.22c0,2.39,1.06,3.61,2.75,3.61S476.86,30,476.86,27.58Z" fill="#fff"/><path d="M483.87,32.17a2.7,2.7,0,0,1,2.77-2.74,2.75,2.75,0,1,1,0,5.49A2.71,2.71,0,0,1,483.87,32.17Z" fill="#fff"/><path d="M497.15,15.2h13.12v4.32h-7.53v4.12h6v4.11h-6v6.87h-5.59Z" fill="#fff"/><path d="M511.65,16.56a2.68,2.68,0,1,1,2.66,2.49A2.51,2.51,0,0,1,511.65,16.56Zm.25,3.85h4.86V34.62H511.9Z" fill="#fff"/><path d="M519.5,14.17h4.84V34.62H519.5Z" fill="#fff"/><path d="M526.18,27.69v-.22c0-4.56,3.4-7.44,7.69-7.44,3.88,0,7.22,2.23,7.22,7.34v1.27h-10a2.83,2.83,0,0,0,3,3c1.6,0,2.28-.73,2.47-1.68h4.56c-.43,3.2-2.9,5-7.19,5C529.44,34.94,526.18,32.34,526.18,27.69Zm10.19-1.79c-.08-1.71-.92-2.66-2.5-2.66s-2.47,1-2.72,2.66Z" fill="#fff"/><path d="M118.09,64.8V58.47h-1.71V55.16h1.71v-3H123v3h2.8v3.31H123v5.87a1.3,1.3,0,0,0,1.44,1.49,3.79,3.79,0,0,0,1.39-.24v3.7a10.43,10.43,0,0,1-2.69.4C119.88,69.69,118.09,68.14,118.09,64.8Z" fill="#fff"/><path d="M126.84,62.44v-.22c0-4.56,3.39-7.44,7.79-7.44s7.74,2.8,7.74,7.31v.21c0,4.62-3.39,7.39-7.77,7.39S126.84,67,126.84,62.44Zm10.59-.08v-.22c0-2.39-1-3.72-2.8-3.72s-2.82,1.28-2.82,3.67v.21c0,2.45.95,3.78,2.82,3.78S137.43,64.72,137.43,62.36Z" fill="#fff"/><path d="M143.38,62.41V62.2c0-4.84,2.66-7.42,6-7.42a4.6,4.6,0,0,1,4.37,2.39V48.91h4.86V69.37h-4.86V67.06a4.8,4.8,0,0,1-4.43,2.63C146.07,69.69,143.38,67.33,143.38,62.41Zm10.54-.08v-.22c0-2.39-1-3.66-2.8-3.66s-2.8,1.22-2.8,3.69v.22c0,2.39,1.06,3.61,2.74,3.61S153.92,64.75,153.92,62.33Z" fill="#fff"/><path d="M160.3,65.43c0-3.34,2.82-4.65,7.55-4.65h1.36v-.32c0-1.36-.33-2.26-1.88-2.26a1.74,1.74,0,0,0-1.92,1.69h-4.57c.22-3.43,2.91-5.11,6.79-5.11s6.41,1.6,6.41,5.38v9.21h-4.72V67.71a4.67,4.67,0,0,1-4.21,2C162.55,69.69,160.3,68.44,160.3,65.43Zm8.91-1v-.87h-1.28c-2,0-2.82.38-2.82,1.55,0,.81.54,1.33,1.68,1.33C168.18,66.41,169.21,65.62,169.21,64.4Z" fill="#fff"/><path d="M180.37,67.93l-5.68-12.77H180l2.94,7.58,2.71-7.58h4.65l-7.61,19H178Z" fill="#fff"/><path d="M195.64,65.43c0-3.34,2.82-4.65,7.55-4.65h1.35v-.32c0-1.36-.32-2.26-1.87-2.26a1.75,1.75,0,0,0-1.93,1.69h-4.56c.22-3.43,2.9-5.11,6.79-5.11s6.41,1.6,6.41,5.38v9.21h-4.73V67.71a4.67,4.67,0,0,1-4.21,2C197.89,69.69,195.64,68.44,195.64,65.43Zm8.9-1v-.87h-1.27c-2,0-2.83.38-2.83,1.55,0,.81.55,1.33,1.69,1.33A2.14,2.14,0,0,0,204.54,64.4Z" fill="#fff"/><path d="M212.31,64.8V58.47H210.6V55.16h1.71v-3h4.86v3H220v3.31h-2.8v5.87a1.3,1.3,0,0,0,1.44,1.49,3.79,3.79,0,0,0,1.39-.24v3.7a10.43,10.43,0,0,1-2.69.4C214.1,69.69,212.31,68.14,212.31,64.8Z" fill="#fff"/><path d="M226,65.43c0-3.34,2.82-4.65,7.55-4.65h1.35v-.32c0-1.36-.32-2.26-1.87-2.26a1.75,1.75,0,0,0-1.93,1.69h-4.56c.22-3.43,2.91-5.11,6.79-5.11s6.41,1.6,6.41,5.38v9.21H235V67.71a4.66,4.66,0,0,1-4.21,2C228.2,69.69,226,68.44,226,65.43Zm8.9-1v-.87h-1.27c-2,0-2.83.38-2.83,1.55,0,.81.55,1.33,1.69,1.33A2.14,2.14,0,0,0,234.85,64.4Z" fill="#fff"/><path d="M242.05,55.16h4.86v2.28a5,5,0,0,1,4.68-2.66c2.74,0,4.64,1.71,4.64,5.35v9.24h-4.86V61.11c0-1.6-.63-2.39-2-2.39s-2.42.87-2.42,2.69v8h-4.86Z" fill="#fff"/><path d="M264,50h5.6v7.41H276V50h5.57V69.37H276V61.71h-6.38v7.66H264Z" fill="#fff"/><path d="M300.15,65.4l3.23,4h-6.33L295.91,68a7.7,7.7,0,0,1-5.24,1.74c-4.13,0-6.82-2.17-6.82-5.86,0-2.5,1.53-4.35,4.27-5.65a6.26,6.26,0,0,1-1.2-3.4c0-3.31,2.83-5.08,6.25-5.08,3.1,0,5.89,1.55,5.89,4.54,0,2.12-1.25,3.66-3.88,4.8l2.44,3L299,59.26h4.23Zm-6.74-.57-3.06-3.69A2.29,2.29,0,0,0,289,63.23a2.26,2.26,0,0,0,2.47,2.42A2.54,2.54,0,0,0,293.41,64.83ZM292.82,57c1.3-.63,1.93-1.36,1.93-2.36a1.41,1.41,0,0,0-1.44-1.5,1.55,1.55,0,0,0-1.61,1.68A3.58,3.58,0,0,0,292.82,57Z" fill="#fff"/><path d="M305.15,50h7.6c5.08,0,7.91,2.06,7.91,6.16v.11a5.08,5.08,0,0,1-3.51,5.11l4.65,8h-5.87l-3.94-7h-1.3v7h-5.54Zm7.33,8.85c1.88,0,2.8-.79,2.8-2.36v-.11c0-1.58-1-2.2-2.77-2.2h-1.82V58.8Z" fill="#fff"/><path d="M328.62,50h8.66c4.59,0,6.55,2.06,6.55,5.08v.1a4,4,0,0,1-3.29,4.19,4.21,4.21,0,0,1,3.88,4.53V64c0,3.48-2.25,5.41-7.06,5.41h-8.74Zm7.55,7.71c1.73,0,2.39-.6,2.39-2v-.11c0-1.33-.71-1.93-2.39-1.93h-2.12v4Zm.19,8c1.76,0,2.58-.82,2.58-2.26v-.11c0-1.46-.79-2.23-2.75-2.23h-2.14v4.6Z" fill="#fff"/><path d="M346.35,48.91h4.84V69.37h-4.84Z" fill="#fff"/><path d="M353,62.44v-.22c0-4.56,3.4-7.44,7.8-7.44s7.74,2.8,7.74,7.31v.21c0,4.62-3.4,7.39-7.77,7.39S353,67,353,62.44Zm10.6-.08v-.22c0-2.39-1-3.72-2.8-3.72S358,59.7,358,62.09v.21c0,2.45.95,3.78,2.83,3.78S363.63,64.72,363.63,62.36Z" fill="#fff"/><path d="M369.52,62.44v-.22c0-4.72,3.39-7.44,7.58-7.44,3.47,0,6.68,1.52,6.95,5.84h-4.56a2.1,2.1,0,0,0-2.28-2.06c-1.72,0-2.72,1.22-2.72,3.61v.22c0,2.47.95,3.74,2.8,3.74a2.36,2.36,0,0,0,2.47-2.36h4.37c-.13,3.59-2.55,5.92-7.14,5.92C372.75,69.69,369.52,67.22,369.52,62.44Z" fill="#fff"/><path d="M385.71,48.91h4.86V60.78l3.83-5.62h5.05l-4.64,6.38,5,7.83H394.4l-3.83-6.22v6.22h-4.86Z" fill="#fff"/><path d="M405.92,55.16h4.86v2.28a5,5,0,0,1,4.67-2.66c2.74,0,4.64,1.71,4.64,5.35v9.24h-4.86V61.11c0-1.6-.62-2.39-2-2.39s-2.41.87-2.41,2.69v8h-4.86Z" fill="#fff"/><path d="M421.69,62.44v-.22c0-4.56,3.4-7.44,7.69-7.44,3.88,0,7.23,2.23,7.23,7.33v1.28h-10a2.84,2.84,0,0,0,3,3c1.6,0,2.28-.73,2.47-1.68h4.57c-.44,3.2-2.91,5-7.2,5C425,69.69,421.69,67.08,421.69,62.44Zm10.19-1.79c-.08-1.71-.92-2.66-2.5-2.66s-2.47.95-2.71,2.66Z" fill="#fff"/><path d="M437.61,65.43c0-3.34,2.83-4.65,7.55-4.65h1.36v-.32c0-1.36-.33-2.26-1.87-2.26a1.74,1.74,0,0,0-1.93,1.69h-4.57c.22-3.43,2.91-5.11,6.79-5.11s6.41,1.6,6.41,5.38v9.21h-4.72V67.71a4.67,4.67,0,0,1-4.21,2C439.87,69.69,437.61,68.44,437.61,65.43Zm8.91-1v-.87h-1.28c-1.95,0-2.82.38-2.82,1.55,0,.81.54,1.33,1.68,1.33C445.49,66.41,446.52,65.62,446.52,64.4Z" fill="#fff"/><path d="M453.72,55.16h4.86V58a4.48,4.48,0,0,1,4.59-3v4.54c-3-.08-4.59.84-4.59,3.12v6.74h-4.86Z" fill="#fff"/><path d="M474.33,67.93l-5.67-12.77h5.27l2.93,7.58,2.72-7.58h4.64l-7.6,19H472Z" fill="#fff"/><path d="M484,62.44v-.22c0-4.56,3.39-7.44,7.79-7.44s7.74,2.8,7.74,7.31v.21c0,4.62-3.39,7.39-7.76,7.39S484,67,484,62.44Zm10.59-.08v-.22c0-2.39-1-3.72-2.8-3.72s-2.82,1.28-2.82,3.67v.21c0,2.45.95,3.78,2.82,3.78S494.54,64.72,494.54,62.36Z" fill="#fff"/><path d="M501.09,64.42V55.16H506v8.48c0,1.6.62,2.39,2,2.39s2.42-.87,2.42-2.69V55.16h4.86V69.37h-4.86v-2.2a4.68,4.68,0,0,1-4.51,2.52C503.12,69.69,501.09,68,501.09,64.42Z" fill="#fff"/><path d="M517.52,66.92a2.71,2.71,0,0,1,2.77-2.74,2.75,2.75,0,1,1,0,5.49A2.72,2.72,0,0,1,517.52,66.92Z" fill="#fff"/></g></g></svg>