<svg xmlns="http://www.w3.org/2000/svg" viewBox="0 0 300 250"><title>Asset 16</title><g id="Layer_2" data-name="Layer 2"><g id="Rect"><rect width="300" height="250" fill="none"/></g><g id="Put_our_taxpertise_to_work_for_you." data-name="Put our taxpertise to work for you."><path d="M22.9,24.59H34.32c8.24,0,12.06,3.66,12.06,10v.17c0,6.3-4.24,9.7-11.68,9.7H31.47V54.63H22.9ZM34,38.62c2.77,0,4.24-1.3,4.24-3.78v-.17c0-2.56-1.51-3.61-4.2-3.61H31.47v7.56Z" fill="#fff"/><path d="M48.81,47V32.66h7.52v13.1c0,2.48,1,3.7,3.11,3.7s3.74-1.35,3.74-4.16V32.66H70.7v22H63.18V51.22c-1.18,2.27-3.32,3.91-7,3.91C52,55.13,48.81,52.53,48.81,47Z" fill="#fff"/><path d="M75.52,47.57V37.78H72.88V32.66h2.64V28.08H83v4.58h4.33v5.12H83v9.07a2,2,0,0,0,2.23,2.31,5.75,5.75,0,0,0,2.14-.37V54.5a15.79,15.79,0,0,1-4.16.63C78.3,55.13,75.52,52.74,75.52,47.57Z" fill="#fff"/><path d="M96.69,43.91v-.33c0-7.06,5.25-11.51,12.06-11.51s12,4.32,12,11.3v.33c0,7.14-5.25,11.43-12,11.43S96.69,51,96.69,43.91Zm16.38-.12v-.34c0-3.7-1.47-5.75-4.32-5.75s-4.37,2-4.37,5.67v.33c0,3.78,1.47,5.84,4.37,5.84S113.07,47.44,113.07,43.79Z" fill="#fff"/><path d="M123.19,47V32.66h7.52v13.1c0,2.48,1,3.7,3.11,3.7s3.74-1.35,3.74-4.16V32.66h7.52v22h-7.52V51.22c-1.18,2.27-3.32,3.91-7,3.91C126.34,55.13,123.19,52.53,123.19,47Z" fill="#fff"/><path d="M148.9,32.66h7.52V37a6.92,6.92,0,0,1,7.09-4.66v7c-4.57-.13-7.09,1.3-7.09,4.83V54.63H148.9Z" fill="#fff"/><path d="M23.23,91.57V81.78H20.59V76.66h2.64V72.08h7.52v4.58h4.33v5.12H30.75v9.07A2,2,0,0,0,33,93.16a5.75,5.75,0,0,0,2.14-.37V98.5a15.79,15.79,0,0,1-4.16.63C26,99.13,23.23,96.74,23.23,91.57Z" fill="#fff"/><path d="M36.76,92.53c0-5.16,4.37-7.18,11.68-7.18h2.1v-.5c0-2.1-.51-3.49-2.9-3.49a2.69,2.69,0,0,0-3,2.6H37.6c.33-5.29,4.49-7.89,10.5-7.89S58,78.55,58,84.39V98.63H50.7V96.06c-1.05,1.6-3,3.07-6.51,3.07C40.24,99.13,36.76,97.2,36.76,92.53Zm13.78-1.59V89.59h-2c-3,0-4.37.59-4.37,2.4,0,1.26.84,2.06,2.61,2.06C48.94,94.05,50.54,92.83,50.54,90.94Z" fill="#fff"/><path d="M67.21,87.45,60.36,76.66H69l3.41,5.79,3.32-5.79h7.73l-6.94,10.2,7.61,11.77H75.48l-3.9-6.56-4,6.56H59.9Z" fill="#fff"/><path d="M86.23,76.66h7.52v3.27a7.75,7.75,0,0,1,6.85-3.86c5.12,0,9.28,3.86,9.28,11.38v.34c0,7.56-4.16,11.34-9.32,11.34-3.32,0-5.72-1.55-6.81-3.74V106H86.23Zm16,11.13v-.34c0-3.86-1.68-5.71-4.33-5.71s-4.37,2-4.37,5.67v.34c0,3.73,1.64,5.62,4.37,5.62S102.24,91.4,102.24,87.79Z" fill="#fff"/><path d="M111.43,87.91v-.33c0-7.06,5.25-11.51,11.89-11.51,6,0,11.17,3.44,11.17,11.34v2H119c.21,2.9,1.89,4.58,4.57,4.58,2.48,0,3.53-1.13,3.83-2.6h7.05c-.67,5-4.49,7.77-11.13,7.77C116.47,99.13,111.43,95.1,111.43,87.91Zm15.76-2.77c-.13-2.65-1.43-4.12-3.87-4.12-2.27,0-3.82,1.47-4.2,4.12Z" fill="#fff"/><path d="M137.09,76.66h7.52V81a6.94,6.94,0,0,1,7.1-4.66v7c-4.58-.13-7.1,1.3-7.1,4.83V98.63h-7.52Z" fill="#fff"/><path d="M155.78,91.57V81.78h-2.64V76.66h2.64V72.08h7.52v4.58h4.33v5.12H163.3v9.07a2,2,0,0,0,2.23,2.31,5.75,5.75,0,0,0,2.14-.37V98.5a15.79,15.79,0,0,1-4.16.63C158.56,99.13,155.78,96.74,155.78,91.57Z" fill="#fff"/><path d="M170.32,70.69a4.14,4.14,0,1,1,4.11,3.87A3.92,3.92,0,0,1,170.32,70.69Zm.37,6h7.52v22h-7.52Z" fill="#fff"/><path d="M180.77,91.65h6.93c.26,1.6,1,2.48,3.11,2.48,1.85,0,2.69-.71,2.69-1.81s-1.05-1.55-4.07-2c-5.88-.76-8.36-2.48-8.36-7.06,0-4.87,4.32-7.22,9.41-7.22,5.42,0,9.2,1.85,9.7,7.1h-6.8A2.47,2.47,0,0,0,190.56,81c-1.64,0-2.48.72-2.48,1.72s1,1.47,3.7,1.81c6.09.76,9,2.35,9,7.06,0,5.21-3.86,7.56-9.95,7.56C184.6,99.13,180.94,96.53,180.77,91.65Z" fill="#fff"/><path d="M202.19,87.91v-.33c0-7.06,5.25-11.51,11.89-11.51,6,0,11.17,3.44,11.17,11.34v2H209.8c.21,2.9,1.89,4.58,4.58,4.58,2.47,0,3.52-1.13,3.82-2.6h7.05c-.67,5-4.49,7.77-11.13,7.77C207.23,99.13,202.19,95.1,202.19,87.91ZM218,85.14c-.13-2.65-1.43-4.12-3.87-4.12-2.27,0-3.82,1.47-4.2,4.12Z" fill="#fff"/><path d="M236.51,91.57V81.78h-2.65V76.66h2.65V72.08H244v4.58h4.32v5.12H244v9.07c0,1.6.79,2.31,2.22,2.31a5.75,5.75,0,0,0,2.14-.37V98.5a15.77,15.77,0,0,1-4.15.63C239.28,99.13,236.51,96.74,236.51,91.57Z" fill="#fff"/><path d="M250,87.91v-.33c0-7.06,5.25-11.51,12.06-11.51s12,4.32,12,11.3v.33c0,7.14-5.25,11.43-12,11.43S250,95,250,87.91Zm16.38-.12v-.34c0-3.7-1.47-5.75-4.32-5.75s-4.37,2-4.37,5.67v.33c0,3.78,1.47,5.84,4.37,5.84S266.41,91.44,266.41,87.79Z" fill="#fff"/><path d="M20.38,120.66h7.85l3.2,13.14,3.69-13.14h6.05l3.28,13.14L48,120.66h7.14l-7,22H41l-3.27-12.27-3.41,12.27H27Z" fill="#fff"/><path d="M54.94,131.91v-.33c0-7.06,5.25-11.51,12.06-11.51s12,4.32,12,11.3v.33c0,7.14-5.25,11.43-12,11.43S54.94,139,54.94,131.91Zm16.39-.12v-.34c0-3.7-1.47-5.75-4.33-5.75s-4.37,2-4.37,5.67v.33c0,3.78,1.47,5.84,4.37,5.84S71.33,135.44,71.33,131.79Z" fill="#fff"/><path d="M81.61,120.66h7.52V125a6.94,6.94,0,0,1,7.1-4.66v7c-4.58-.13-7.1,1.3-7.1,4.83v10.42H81.61Z" fill="#fff"/><path d="M99,111h7.52v18.36l5.92-8.69h7.82L113,130.53l7.77,12.1h-8.4L106.48,133v9.62H99Z" fill="#fff"/><path d="M131.34,125.78h-2.77v-5.12h2.77v-1.94c0-5.46,3.4-8.06,8.61-8.06a13.53,13.53,0,0,1,3.45.46v5.5a7.23,7.23,0,0,0-2.06-.29,2.2,2.2,0,0,0-2.52,2.39v1.94h4.45v5.12h-4.45v16.85h-7.48Z" fill="#fff"/><path d="M143.86,131.91v-.33c0-7.06,5.25-11.51,12-11.51s12,4.32,12,11.3v.33c0,7.14-5.25,11.43-12,11.43S143.86,139,143.86,131.91Zm16.38-.12v-.34c0-3.7-1.47-5.75-4.33-5.75s-4.37,2-4.37,5.67v.33c0,3.78,1.47,5.84,4.37,5.84S160.24,135.44,160.24,131.79Z" fill="#fff"/><path d="M170.53,120.66h7.52V125a6.92,6.92,0,0,1,7.1-4.66v7c-4.58-.13-7.1,1.3-7.1,4.83v10.42h-7.52Z" fill="#fff"/><path d="M202.41,140.4l-8.78-19.74h8.15l4.53,11.72,4.2-11.72h7.19L205.93,150h-7.18Z" fill="#fff"/><path d="M217.27,131.91v-.33c0-7.06,5.25-11.51,12.06-11.51s12,4.32,12,11.3v.33c0,7.14-5.25,11.43-12,11.43S217.27,139,217.27,131.91Zm16.38-.12v-.34c0-3.7-1.47-5.75-4.32-5.75s-4.37,2-4.37,5.67v.33c0,3.78,1.47,5.84,4.37,5.84S233.65,135.44,233.65,131.79Z" fill="#fff"/><path d="M243.77,135V120.66h7.52v13.1c0,2.48,1,3.7,3.11,3.7s3.74-1.35,3.74-4.16V120.66h7.52v22h-7.52v-3.41c-1.18,2.27-3.32,3.91-7,3.91C246.92,143.13,243.77,140.53,243.77,135Z" fill="#fff"/><path d="M269.18,138.84a4.19,4.19,0,0,1,4.29-4.24,4.25,4.25,0,1,1,0,8.49A4.19,4.19,0,0,1,269.18,138.84Z" fill="#fff"/></g></g></svg>