<svg xmlns="http://www.w3.org/2000/svg" viewBox="0 0 160 600"><title>Asset 4</title><g id="Layer_2" data-name="Layer 2"><g id="Rect"><rect width="160" height="600" fill="none"/></g><g id="The_same_expertise_care_now_through_July_15." data-name="The same expertise  &amp; care, now through July 15."><path d="M25.15,111.82H20.52v-3.95h14.4v3.95H30.3v13.93H25.15Z" fill="#fff"/><path d="M36.4,106.92h4.47v7.85a4.62,4.62,0,0,1,4.3-2.45c2.53,0,4.28,1.58,4.28,4.93v8.5H45v-7.6c0-1.48-.57-2.2-1.87-2.2s-2.23.8-2.23,2.47v7.33H36.4Z" fill="#fff"/><path d="M50.92,119.37v-.2c0-4.2,3.13-6.85,7.08-6.85,3.57,0,6.65,2.05,6.65,6.75v1.18h-9.2A2.6,2.6,0,0,0,58.17,123c1.48,0,2.1-.67,2.28-1.55h4.2c-.4,3-2.68,4.62-6.63,4.62C53.92,126,50.92,123.65,50.92,119.37Zm9.38-1.65c-.08-1.57-.85-2.45-2.3-2.45a2.49,2.49,0,0,0-2.5,2.45Z" fill="#fff"/><path d="M69.87,121.6H74c.15,1,.57,1.47,1.85,1.47,1.1,0,1.6-.42,1.6-1.07s-.63-.93-2.43-1.18c-3.5-.45-5-1.47-5-4.2,0-2.9,2.57-4.3,5.6-4.3,3.22,0,5.47,1.1,5.77,4.23h-4a1.45,1.45,0,0,0-1.67-1.3c-1,0-1.48.42-1.48,1s.6.88,2.2,1.08c3.63.45,5.38,1.4,5.38,4.2,0,3.1-2.3,4.49-5.93,4.49S70,124.5,69.87,121.6Z" fill="#fff"/><path d="M82.5,122.12c0-3.07,2.6-4.27,7-4.27H90.7v-.3c0-1.25-.3-2.08-1.73-2.08A1.61,1.61,0,0,0,87.2,117H83c.2-3.15,2.67-4.7,6.25-4.7s5.9,1.48,5.9,5v8.48H90.8v-1.53A4.31,4.31,0,0,1,86.92,126C84.57,126,82.5,124.9,82.5,122.12Zm8.2-1v-.8H89.52c-1.8,0-2.6.35-2.6,1.43,0,.75.5,1.22,1.55,1.22C89.75,123,90.7,122.3,90.7,121.17Z" fill="#fff"/><path d="M97.32,112.67h4.48v2a4.57,4.57,0,0,1,4.1-2.35,3.54,3.54,0,0,1,3.54,2.18,5.19,5.19,0,0,1,4.33-2.18c2.47,0,4.27,1.6,4.27,4.88v8.55h-4.47V118c0-1.33-.65-2-1.68-2a1.94,1.94,0,0,0-2,2.2v7.58h-4.42V118c0-1.33-.65-2-1.67-2a1.94,1.94,0,0,0-2,2.2v7.58H97.32Z" fill="#fff"/><path d="M119.52,119.37v-.2c0-4.2,3.13-6.85,7.08-6.85,3.57,0,6.65,2.05,6.65,6.75v1.18h-9.2a2.6,2.6,0,0,0,2.72,2.72c1.48,0,2.1-.67,2.28-1.55h4.2c-.41,3-2.68,4.62-6.63,4.62C122.52,126,119.52,123.65,119.52,119.37Zm9.38-1.65c-.08-1.57-.85-2.45-2.3-2.45a2.49,2.49,0,0,0-2.5,2.45Z" fill="#fff"/><path d="M20.63,150.94v-.2c0-4.2,3.12-6.85,7.07-6.85,3.57,0,6.65,2.05,6.65,6.75v1.17h-9.2a2.61,2.61,0,0,0,2.72,2.73c1.48,0,2.1-.68,2.28-1.55h4.2c-.4,2.95-2.68,4.62-6.63,4.62S20.63,155.21,20.63,150.94ZM30,149.29c-.08-1.58-.85-2.45-2.3-2.45a2.48,2.48,0,0,0-2.5,2.45Z" fill="#fff"/><path d="M38.5,150.66l-4.08-6.42h5.15l2,3.45,2-3.45h4.6l-4.12,6.07,4.52,7H43.42l-2.32-3.9-2.38,3.9H34.15Z" fill="#fff"/><path d="M49.82,144.24H54.3v1.95a4.61,4.61,0,0,1,4.07-2.3c3.05,0,5.53,2.3,5.53,6.77v.2c0,4.5-2.48,6.75-5.55,6.75a4.3,4.3,0,0,1-4.05-2.22v6.3H49.82Zm9.53,6.62v-.2c0-2.3-1-3.39-2.58-3.39s-2.6,1.17-2.6,3.37v.2c0,2.22,1,3.35,2.6,3.35S59.35,153,59.35,150.86Z" fill="#fff"/><path d="M64.82,150.94v-.2c0-4.2,3.13-6.85,7.08-6.85,3.57,0,6.65,2.05,6.65,6.75v1.17h-9.2a2.61,2.61,0,0,0,2.72,2.73c1.48,0,2.1-.68,2.28-1.55h4.2c-.4,2.95-2.68,4.62-6.63,4.62C67.82,157.61,64.82,155.21,64.82,150.94Zm9.38-1.65c-.08-1.58-.85-2.45-2.3-2.45a2.48,2.48,0,0,0-2.5,2.45Z" fill="#fff"/><path d="M80.1,144.24h4.47v2.6a4.12,4.12,0,0,1,4.23-2.77v4.17c-2.73-.08-4.23.77-4.23,2.87v6.2H80.1Z" fill="#fff"/><path d="M91.22,153.11v-5.82H89.65v-3h1.57v-2.72H95.7v2.72h2.57v3H95.7v5.4c0,.95.47,1.37,1.32,1.37a3.44,3.44,0,0,0,1.28-.22v3.4a9.5,9.5,0,0,1-2.48.37C92.87,157.61,91.22,156.19,91.22,153.11Z" fill="#fff"/><path d="M99.87,140.69a2.33,2.33,0,0,1,2.45-2.32,2.32,2.32,0,1,1,0,4.62A2.31,2.31,0,0,1,99.87,140.69Zm.23,3.55h4.47v13.07H100.1Z" fill="#fff"/><path d="M106.1,153.16h4.12c.15,1,.58,1.48,1.85,1.48,1.1,0,1.6-.43,1.6-1.08s-.62-.92-2.42-1.17c-3.5-.45-5-1.48-5-4.2,0-2.9,2.58-4.3,5.6-4.3,3.23,0,5.48,1.1,5.78,4.22H113.6a1.47,1.47,0,0,0-1.68-1.3c-1,0-1.47.43-1.47,1s.6.87,2.2,1.07c3.62.45,5.37,1.4,5.37,4.2,0,3.1-2.3,4.5-5.92,4.5S106.2,156.06,106.1,153.16Z" fill="#fff"/><path d="M118.85,150.94v-.2c0-4.2,3.12-6.85,7.07-6.85,3.58,0,6.65,2.05,6.65,6.75v1.17h-9.2a2.62,2.62,0,0,0,2.73,2.73c1.47,0,2.1-.68,2.27-1.55h4.2c-.4,2.95-2.68,4.62-6.62,4.62C121.85,157.61,118.85,155.21,118.85,150.94Zm9.37-1.65c-.07-1.58-.85-2.45-2.3-2.45a2.49,2.49,0,0,0-2.5,2.45Z" fill="#fff"/><path d="M35.8,185.23l3,3.65H33l-1.05-1.3a7.13,7.13,0,0,1-4.83,1.6c-3.8,0-6.27-2-6.27-5.4,0-2.3,1.4-4,3.92-5.2a5.73,5.73,0,0,1-1.1-3.12c0-3.05,2.6-4.68,5.75-4.68,2.85,0,5.43,1.43,5.43,4.18,0,1.95-1.15,3.37-3.58,4.42l2.25,2.75,1.3-2.55h3.9Zm-6.2-.52-2.83-3.4a2.12,2.12,0,0,0-1.2,1.92,2.08,2.08,0,0,0,2.28,2.23A2.36,2.36,0,0,0,29.6,184.71Zm-.55-7.2c1.2-.58,1.77-1.25,1.77-2.18A1.28,1.28,0,0,0,29.5,174,1.43,1.43,0,0,0,28,175.51,3.28,3.28,0,0,0,29.05,177.51Z" fill="#fff"/><path d="M43.85,182.51v-.2c0-4.35,3.12-6.85,7-6.85,3.2,0,6.15,1.4,6.4,5.37H53a1.94,1.94,0,0,0-2.1-1.9c-1.57,0-2.5,1.13-2.5,3.33v.2c0,2.27.88,3.45,2.58,3.45a2.17,2.17,0,0,0,2.27-2.18h4c-.13,3.3-2.35,5.45-6.58,5.45C46.82,189.18,43.85,186.91,43.85,182.51Z" fill="#fff"/><path d="M58.07,185.26c0-3.08,2.6-4.28,6.95-4.28h1.25v-.3c0-1.25-.3-2.07-1.72-2.07a1.61,1.61,0,0,0-1.78,1.55h-4.2c.2-3.15,2.68-4.7,6.25-4.7s5.9,1.47,5.9,4.95v8.47H66.37v-1.52a4.28,4.28,0,0,1-3.87,1.82C60.15,189.18,58.07,188,58.07,185.26Zm8.2-.95v-.8H65.1c-1.8,0-2.6.35-2.6,1.42,0,.75.5,1.23,1.55,1.23A2,2,0,0,0,66.27,184.31Z" fill="#fff"/><path d="M72.9,175.81h4.47v2.6a4.14,4.14,0,0,1,4.23-2.78v4.18c-2.73-.08-4.23.77-4.23,2.87v6.2H72.9Z" fill="#fff"/><path d="M82.4,182.51v-.2c0-4.2,3.12-6.85,7.07-6.85,3.58,0,6.65,2,6.65,6.75v1.17h-9.2a2.62,2.62,0,0,0,2.73,2.73c1.47,0,2.1-.68,2.27-1.55h4.2c-.4,2.95-2.67,4.62-6.62,4.62S82.4,186.78,82.4,182.51Zm9.37-1.65c-.07-1.58-.85-2.45-2.3-2.45a2.49,2.49,0,0,0-2.5,2.45Z" fill="#fff"/><path d="M96.63,190.9l2.09-6.57,4.15,1.48-3.6,6.12Z" fill="#fff"/><path d="M21.32,207.38H25.8v2.1A4.61,4.61,0,0,1,30.1,207c2.52,0,4.27,1.57,4.27,4.92v8.5H29.9v-7.6c0-1.47-.58-2.2-1.88-2.2s-2.22.8-2.22,2.48v7.32H21.32Z" fill="#fff"/><path d="M35.85,214.07v-.19c0-4.2,3.12-6.85,7.17-6.85s7.13,2.57,7.13,6.72v.2c0,4.25-3.13,6.8-7.15,6.8S35.85,218.3,35.85,214.07ZM45.6,214v-.2c0-2.2-.88-3.42-2.58-3.42s-2.6,1.17-2.6,3.37v.2c0,2.25.88,3.47,2.6,3.47S45.6,216.17,45.6,214Z" fill="#fff"/><path d="M50.2,207.38h4.67l1.9,7.82,2.2-7.82h3.6l1.95,7.82,2.13-7.82h4.24l-4.14,13.07H62.47l-1.95-7.3-2,7.3H54.15Z" fill="#fff"/><path d="M21.92,247.82V242H20.35v-3.05h1.57v-2.72H26.4v2.72H29V242H26.4v5.4c0,1,.47,1.38,1.32,1.38a3.44,3.44,0,0,0,1.28-.23v3.4a9.44,9.44,0,0,1-2.48.38C23.57,252.32,21.92,250.89,21.92,247.82Z" fill="#fff"/><path d="M30.67,233.2h4.48V241a4.61,4.61,0,0,1,4.3-2.45c2.52,0,4.27,1.58,4.27,4.93V252H39.25v-7.6c0-1.48-.58-2.2-1.88-2.2s-2.22.8-2.22,2.47V252H30.67Z" fill="#fff"/><path d="M45.9,238.94h4.47v2.6a4.12,4.12,0,0,1,4.23-2.77v4.17c-2.73-.07-4.23.78-4.23,2.88V252H45.9Z" fill="#fff"/><path d="M55.4,245.64v-.2c0-4.2,3.12-6.85,7.17-6.85s7.13,2.58,7.13,6.73v.2c0,4.25-3.13,6.8-7.15,6.8S55.4,249.87,55.4,245.64Zm9.75-.07v-.2c0-2.2-.88-3.43-2.58-3.43s-2.6,1.18-2.6,3.38v.2c0,2.25.88,3.47,2.6,3.47S65.15,247.74,65.15,245.57Z" fill="#fff"/><path d="M71.17,247.47v-8.53h4.48v7.8c0,1.48.57,2.2,1.85,2.2s2.22-.8,2.22-2.47v-7.53H84.2V252H79.72v-2a4.29,4.29,0,0,1-4.15,2.33C73.05,252.32,71.17,250.77,71.17,247.47Z" fill="#fff"/><path d="M85.75,252H90.2c.2.95.77,1.7,2.4,1.7A2.47,2.47,0,0,0,95.37,251v-2a4.58,4.58,0,0,1-4.05,2.4c-3,0-5.55-2.25-5.55-6.28v-.2c0-3.85,2.48-6.3,5.55-6.3a4.26,4.26,0,0,1,4.05,2.2v-1.85h4.47v12c0,3.9-2.57,5.94-7.24,5.94C88.15,256.86,86.1,255,85.75,252Zm9.75-7v-.18c0-1.8-.93-2.95-2.58-2.95s-2.57,1.18-2.57,3v.2c0,1.8,1,2.95,2.55,2.95S95.5,246.92,95.5,245.07Z" fill="#fff"/><path d="M102.12,233.2h4.48V241a4.61,4.61,0,0,1,4.3-2.45c2.52,0,4.27,1.58,4.27,4.93V252H110.7v-7.6c0-1.48-.58-2.2-1.88-2.2s-2.22.8-2.22,2.47V252h-4.48Z" fill="#fff"/><path d="M20.82,283.21v-3.83a6.06,6.06,0,0,0,2.18.35c1.4,0,2.32-.62,2.32-2.47V265.71h5.15v11.6c0,4.3-2.2,6.5-6.4,6.5A6.91,6.91,0,0,1,20.82,283.21Z" fill="#fff"/><path d="M32.72,279v-8.53H37.2v7.8c0,1.48.57,2.2,1.85,2.2s2.22-.8,2.22-2.47v-7.53h4.48v13.07H41.27v-2a4.29,4.29,0,0,1-4.15,2.32C34.6,283.88,32.72,282.33,32.72,279Z" fill="#fff"/><path d="M48.15,264.76H52.6v18.82H48.15Z" fill="#fff"/><path d="M59.1,282.26l-5.23-11.75h4.85l2.7,7,2.5-7H68.2L61.2,288H56.92Z" fill="#fff"/><path d="M76.77,270.76l-3.4,2.1v-4.27l4.1-2.88H81.9v17.87H76.77Z" fill="#fff"/><path d="M84.1,278h4.65A2,2,0,0,0,91.07,280c1.48,0,2.15-1.09,2.15-2.52A2.27,2.27,0,0,0,90.8,275a3.66,3.66,0,0,0-3,1.28h-3l.37-10.53h12v3.75H88.87l-.1,4a4.79,4.79,0,0,1,4.18-1.9c3.27,0,5.42,2.2,5.42,6.08s-2.72,6.29-7.25,6.29C86.37,283.88,84.22,281.31,84.1,278Z" fill="#fff"/><path d="M99.17,281.33a2.5,2.5,0,0,1,2.55-2.52,2.53,2.53,0,1,1,0,5.05A2.5,2.5,0,0,1,99.17,281.33Z" fill="#fff"/></g></g></svg>