<svg xmlns="http://www.w3.org/2000/svg" viewBox="0 0 160 600"><title>H40</title><g id="Layer_2" data-name="Layer 2"><g id="Artboard_3" data-name="Artboard 3" style="isolation:isolate"><g id="Pay_more_to_do_taxes_Not_with_H_R_Block." data-name="Pay more to do taxes? Not with H&amp;R Block."><path d="M21.52,145.19h5.82c4.18,0,6.13,1.86,6.13,5.11v.08c0,3.21-2.16,4.94-5.94,4.94H25.88v5.14H21.52Zm5.62,7.14c1.41,0,2.16-.67,2.16-1.93v-.08c0-1.31-.77-1.84-2.14-1.84H25.88v3.85Z" fill="#fff"/><path d="M33.77,157.37c0-2.63,2.22-3.66,5.93-3.66h1.07v-.25c0-1.07-.25-1.77-1.47-1.77A1.37,1.37,0,0,0,37.78,153H34.19c.17-2.69,2.29-4,5.34-4s5,1.26,5,4.23v7.24H40.86v-1.3a3.68,3.68,0,0,1-3.31,1.56C35.54,160.72,33.77,159.74,33.77,157.37Zm7-.81v-.69h-1c-1.54,0-2.22.3-2.22,1.22,0,.64.42,1,1.32,1A1.68,1.68,0,0,0,40.77,156.56Z" fill="#fff"/><path d="M49.55,159.33l-4.46-10h4.14l2.31,6,2.14-6h3.65l-6,14.91H47.69Z" fill="#fff"/><path d="M62.2,149.29H66V151a3.91,3.91,0,0,1,3.51-2,3,3,0,0,1,3,1.86A4.43,4.43,0,0,1,76.25,149c2.12,0,3.66,1.37,3.66,4.17v7.3H76.08V153.8c0-1.13-.55-1.69-1.43-1.69A1.66,1.66,0,0,0,72.94,154v6.47H69.16V153.8c0-1.13-.55-1.69-1.43-1.69A1.66,1.66,0,0,0,66,154v6.47H62.2Z" fill="#fff"/><path d="M81.17,155v-.17c0-3.59,2.67-5.86,6.13-5.86s6.09,2.2,6.09,5.75v.17c0,3.63-2.67,5.81-6.11,5.81S81.17,158.63,81.17,155ZM89.5,155v-.17c0-1.88-.75-2.92-2.2-2.92s-2.22,1-2.22,2.88v.17c0,1.92.75,3,2.22,3S89.5,156.81,89.5,155Z" fill="#fff"/><path d="M94.73,149.29h3.83v2.22a3.53,3.53,0,0,1,3.61-2.37v3.57c-2.33-.06-3.61.66-3.61,2.46v5.29H94.73Z" fill="#fff"/><path d="M102.85,155v-.17A5.72,5.72,0,0,1,108.9,149c3,0,5.68,1.76,5.68,5.77v1h-7.86a2.22,2.22,0,0,0,2.33,2.32c1.26,0,1.79-.57,1.94-1.32h3.59c-.34,2.52-2.29,3.95-5.66,3.95S102.85,158.67,102.85,155Zm8-1.41c-.06-1.35-.73-2.1-2-2.1a2.13,2.13,0,0,0-2.14,2.1Z" fill="#fff"/><path d="M120.3,156.88v-5H119v-2.61h1.34V147h3.83v2.33h2.2v2.61h-2.2v4.61c0,.81.4,1.18,1.13,1.18a3.07,3.07,0,0,0,1.09-.19v2.9a8,8,0,0,1-2.12.32C121.71,160.72,120.3,159.5,120.3,156.88Z" fill="#fff"/><path d="M127.18,155v-.17c0-3.59,2.67-5.86,6.13-5.86s6.09,2.2,6.09,5.75v.17c0,3.63-2.67,5.81-6.11,5.81S127.18,158.63,127.18,155Zm8.33-.07v-.17c0-1.88-.74-2.92-2.2-2.92s-2.22,1-2.22,2.88v.17c0,1.92.75,3,2.22,3S135.51,156.81,135.51,155Z" fill="#fff"/><path d="M20.63,189.81v-.17c0-3.8,2.09-5.83,4.74-5.83a3.63,3.63,0,0,1,3.44,1.88V179.2h3.82v16.08H28.81v-1.81a3.78,3.78,0,0,1-3.48,2.07C22.74,195.54,20.63,193.68,20.63,189.81Zm8.29-.06v-.17c0-1.88-.79-2.88-2.2-2.88s-2.2,1-2.2,2.9v.17c0,1.88.83,2.84,2.15,2.84S28.92,191.65,28.92,189.75Z" fill="#fff"/><path d="M34,189.84v-.17c0-3.59,2.67-5.86,6.13-5.86s6.09,2.2,6.09,5.75v.17c0,3.63-2.67,5.81-6.11,5.81S34,193.45,34,189.84Zm8.33-.07v-.17c0-1.88-.75-2.93-2.2-2.93s-2.22,1-2.22,2.89v.17c0,1.92.75,3,2.22,3S42.31,191.63,42.31,189.77Z" fill="#fff"/><path d="M51.94,191.69v-5H50.6v-2.61h1.34v-2.33h3.83v2.33H58v2.61h-2.2v4.61c0,.81.4,1.18,1.13,1.18a2.86,2.86,0,0,0,1.09-.2v2.91a8,8,0,0,1-2.12.32C53.35,195.54,51.94,194.32,51.94,191.69Z" fill="#fff"/><path d="M58.82,192.19c0-2.63,2.22-3.66,5.94-3.66h1.07v-.25c0-1.07-.26-1.78-1.48-1.78a1.37,1.37,0,0,0-1.51,1.33H59.25c.17-2.69,2.29-4,5.34-4s5,1.26,5,4.23v7.24H65.91V194a3.66,3.66,0,0,1-3.31,1.56C60.59,195.54,58.82,194.56,58.82,192.19Zm7-.82v-.68h-1c-1.53,0-2.22.3-2.22,1.22,0,.64.43,1.05,1.33,1.05A1.68,1.68,0,0,0,65.83,191.37Z" fill="#fff"/><path d="M74.31,189.6l-3.48-5.49h4.4L77,187.06l1.69-2.95h3.93l-3.53,5.19,3.87,6h-4.4l-2-3.33-2,3.33H70.59Z" fill="#fff"/><path d="M82.43,189.84v-.17a5.72,5.72,0,0,1,6-5.86c3.06,0,5.68,1.75,5.68,5.77v1H86.29a2.23,2.23,0,0,0,2.33,2.33c1.26,0,1.8-.57,1.95-1.32h3.58c-.34,2.52-2.28,3.95-5.66,3.95S82.43,193.49,82.43,189.84Zm8-1.41c-.07-1.35-.73-2.1-2-2.1a2.12,2.12,0,0,0-2.13,2.1Z" fill="#fff"/><path d="M94.84,191.74h3.52c.13.81.49,1.26,1.58,1.26.94,0,1.37-.37,1.37-.92s-.53-.79-2.07-1c-3-.39-4.25-1.27-4.25-3.59,0-2.48,2.2-3.68,4.78-3.68,2.76,0,4.68.94,4.94,3.61h-3.46a1.25,1.25,0,0,0-1.43-1.11c-.84,0-1.26.36-1.26.88s.51.75,1.88.92c3.09.38,4.59,1.19,4.59,3.58,0,2.65-2,3.85-5.06,3.85S94.92,194.22,94.84,191.74Z" fill="#fff"/><path d="M108.32,189.86c0-1.63,1.11-2.65,2.09-3.59.73-.71,1.39-1.35,1.39-2.09a1.14,1.14,0,0,0-1.3-1.29c-.92,0-1.54.71-1.69,1.88h-3.72c.11-3.22,2.42-5,5.71-5s5.14,1.47,5.14,4a4.34,4.34,0,0,1-1.56,3.21c-1,1-2.26,1.88-2.45,2.92v.32h-3.61Zm-.49,3.54a2.29,2.29,0,1,1,2.3,2.12A2.22,2.22,0,0,1,107.83,193.4Z" fill="#fff"/><path d="M21.52,214.83h4.94l4.89,8.61v-8.61h3.83V230.1H31l-5.58-9.59v9.59H21.52Z" fill="#fff"/><path d="M36.71,224.66v-.18c0-3.58,2.67-5.85,6.13-5.85s6.09,2.2,6.09,5.75v.17c0,3.63-2.67,5.81-6.11,5.81S36.71,228.27,36.71,224.66Zm8.33-.07v-.17c0-1.88-.74-2.93-2.2-2.93s-2.22,1-2.22,2.89v.17c0,1.92.75,3,2.22,3S45,226.45,45,224.59Z" fill="#fff"/><path d="M50.79,226.51v-5H49.44v-2.61h1.35V216.6h3.82v2.33h2.2v2.61h-2.2v4.61a1,1,0,0,0,1.14,1.18,2.94,2.94,0,0,0,1.09-.2V230a8,8,0,0,1-2.12.32C52.2,230.36,50.79,229.14,50.79,226.51Z" fill="#fff"/><path d="M61.21,218.93h4l1.62,6.69,1.88-6.69h3.08l1.67,6.69,1.81-6.69H78.9L75.36,230.1H71.7L70,223.86l-1.73,6.24H64.59Z" fill="#fff"/><path d="M79.8,215.9a2.11,2.11,0,1,1,2.09,2A2,2,0,0,1,79.8,215.9Zm.19,3h3.83V230.1H80Z" fill="#fff"/><path d="M86.38,226.51v-5H85v-2.61h1.35V216.6H90.2v2.33h2.2v2.61H90.2v4.61a1,1,0,0,0,1.13,1.18,2.86,2.86,0,0,0,1.09-.2V230a7.88,7.88,0,0,1-2.11.32C87.79,230.36,86.38,229.14,86.38,226.51Z" fill="#fff"/><path d="M93.86,214h3.82v6.7a4,4,0,0,1,3.67-2.09c2.16,0,3.66,1.35,3.66,4.21v7.26h-3.83v-6.49c0-1.26-.49-1.88-1.6-1.88s-1.9.68-1.9,2.11v6.26H93.86Z" fill="#fff"/><path d="M21.52,249.65h4.41v5.83h5v-5.83h4.37v15.27H31v-6h-5v6H21.52Z" fill="#fff"/><path d="M50,261.8l2.54,3.12h-5l-.89-1.11a6.09,6.09,0,0,1-4.13,1.37c-3.24,0-5.36-1.71-5.36-4.62,0-2,1.2-3.41,3.36-4.44a4.8,4.8,0,0,1-.94-2.67c0-2.61,2.22-4,4.91-4,2.43,0,4.64,1.21,4.64,3.56,0,1.67-1,2.89-3.06,3.78L48,259.15,49.1,257h3.34Zm-5.3-.45-2.41-2.9a1.8,1.8,0,0,0-1,1.64,1.77,1.77,0,0,0,1.95,1.9A2,2,0,0,0,44.68,261.35Zm-.47-6.15c1-.49,1.52-1.07,1.52-1.86a1.1,1.1,0,0,0-1.13-1.17,1.21,1.21,0,0,0-1.26,1.32A2.81,2.81,0,0,0,44.21,255.2Z" fill="#fff"/><path d="M53.91,249.65h6c4,0,6.22,1.62,6.22,4.85v.08a4,4,0,0,1-2.76,4L67,264.92H62.39l-3.1-5.47h-1v5.47H53.91Zm5.77,7c1.47,0,2.2-.62,2.2-1.86v-.08c0-1.24-.77-1.73-2.18-1.73H58.27v3.67Z" fill="#fff"/><path d="M72.37,249.65h6.81c3.61,0,5.15,1.62,5.15,4v.09A3.15,3.15,0,0,1,81.74,257a3.32,3.32,0,0,1,3.06,3.56v.09c0,2.73-1.77,4.25-5.56,4.25H72.37Zm5.93,6.06c1.37,0,1.88-.47,1.88-1.56v-.08c0-1-.55-1.52-1.88-1.52H76.64v3.16Zm.15,6.28c1.39,0,2-.64,2-1.77v-.08c0-1.16-.62-1.76-2.15-1.76H76.64V262Z" fill="#fff"/><path d="M86.32,248.84h3.8v16.08h-3.8Z" fill="#fff"/><path d="M91.57,259.47v-.17c0-3.59,2.67-5.85,6.13-5.85s6.09,2.2,6.09,5.75v.17c0,3.63-2.67,5.81-6.11,5.81S91.57,263.08,91.57,259.47Zm8.33-.06v-.17c0-1.88-.75-2.93-2.2-2.93s-2.22,1-2.22,2.89v.17c0,1.92.75,3,2.22,3S99.9,261.27,99.9,259.41Z" fill="#fff"/><path d="M104.54,259.47v-.17a5.62,5.62,0,0,1,6-5.85c2.73,0,5.25,1.2,5.47,4.59h-3.59a1.66,1.66,0,0,0-1.8-1.62c-1.34,0-2.13,1-2.13,2.84v.17c0,1.95.74,2.95,2.2,2.95a1.86,1.86,0,0,0,1.94-1.86H116c-.11,2.82-2,4.66-5.62,4.66C107.08,265.18,104.54,263.23,104.54,259.47Z" fill="#fff"/><path d="M117.27,248.84h3.82v9.33l3-4.42h4l-3.65,5,3.95,6.15H124.1l-3-4.89v4.89h-3.82Z" fill="#fff"/><path d="M129.13,263a2.12,2.12,0,0,1,2.17-2.16,2.16,2.16,0,1,1,0,4.32A2.12,2.12,0,0,1,129.13,263Z" fill="#fff"/></g><g id="Layer_10" data-name="Layer 10"><rect width="160" height="600" fill="none"/></g></g></g></svg>