<svg xmlns="http://www.w3.org/2000/svg" viewBox="0 0 240 64"><title>240x64_cta</title><g id="Layer_2" data-name="Layer 2"><g id="POWER"><g id="CTA"><g id="Rectangle_1" data-name="Rectangle 1"><rect width="240" height="64" fill="none"/></g><g id="Find_an_office" data-name="Find an office"><path d="M33.31,21.07H46.16v3.56H37.84v5.29h6.58v3.41H37.84v7.76H33.31Z" fill="#262626"/><path d="M47.92,22.25a2.31,2.31,0,1,1,2.3,2.21A2.23,2.23,0,0,1,47.92,22.25Zm.31,4.2h4V41.09h-4Z" fill="#262626"/><path d="M55.57,26.45h4.06v2.32a5,5,0,0,1,4.76-2.66c2.88,0,4.92,1.74,4.92,5.66v9.32H65.25V32.35c0-2-.78-2.94-2.57-2.94a2.9,2.9,0,0,0-3,3.22v8.46H55.57Z" fill="#262626"/><path d="M71.5,34v-.23c0-4.81,2.77-7.64,6.44-7.64a4.88,4.88,0,0,1,4.62,2.52V19.81h4V41.09h-4V38.65a5.33,5.33,0,0,1-4.71,2.75C74.3,41.4,71.5,38.85,71.5,34Zm11.17-.14v-.23c0-2.91-1.29-4.39-3.5-4.39s-3.53,1.54-3.53,4.45v.22c0,2.92,1.4,4.34,3.42,4.34S82.67,36.81,82.67,33.84Z" fill="#262626"/><path d="M94.63,37c0-3.42,3.13-4.7,7.61-4.7h1.65v-.59c0-1.74-.53-2.69-2.38-2.69A2.21,2.21,0,0,0,99,31.12H95.19c.25-3.47,3-5,6.58-5s6.13,1.46,6.13,5.43v9.55h-4V39.33a5,5,0,0,1-4.42,2.07C96.87,41.4,94.63,40.11,94.63,37ZM103.89,36V34.73h-1.56c-2.36,0-3.73.51-3.73,2.08,0,1.06.65,1.76,2.13,1.76C102.52,38.57,103.89,37.59,103.89,36Z" fill="#262626"/><path d="M111,26.45H115v2.32a5,5,0,0,1,4.76-2.66c2.88,0,4.93,1.74,4.93,5.66v9.32h-4.06V32.35c0-2-.79-2.94-2.58-2.94a2.9,2.9,0,0,0-3,3.22v8.46H111Z" fill="#262626"/><path d="M132.65,33.92V33.7a7.35,7.35,0,0,1,7.73-7.59c4.39,0,7.7,2.94,7.7,7.5v.23c0,4.62-3.34,7.56-7.73,7.56S132.65,38.49,132.65,33.92ZM144,33.87v-.2c0-2.8-1.32-4.48-3.58-4.48s-3.59,1.62-3.59,4.42v.23c0,2.8,1.29,4.48,3.59,4.48S144,36.64,144,33.87Z" fill="#262626"/><path d="M151,29.33h-1.93V26.45H151V24.93c0-3.38,2-5.12,5.21-5.12a6.31,6.31,0,0,1,2.07.31v3a5.15,5.15,0,0,0-1.45-.22c-1.26,0-1.79.78-1.79,1.93v1.6h4.78V24.77c0-3.42,2-5.13,5.24-5.13a6.85,6.85,0,0,1,2.1.28v3a4.43,4.43,0,0,0-1.48-.25,1.69,1.69,0,0,0-1.82,1.93v1.8h3.19v2.88H163.9V41.09h-4V29.33h-4.78V41.09h-4Z" fill="#262626"/><path d="M169,22.25a2.31,2.31,0,1,1,2.3,2.21A2.23,2.23,0,0,1,169,22.25Zm.31,4.2h4V41.09h-4Z" fill="#262626"/><path d="M175.71,34v-.22a7.27,7.27,0,0,1,7.56-7.62c3.39,0,6.53,1.48,6.89,5.68h-3.84a2.69,2.69,0,0,0-3-2.49c-2.1,0-3.5,1.57-3.5,4.37v.22c0,2.94,1.31,4.46,3.58,4.46a3,3,0,0,0,3.14-2.83h3.66c-.22,3.47-2.74,5.88-7,5.88S175.71,38.74,175.71,34Z" fill="#262626"/><path d="M191.48,34v-.22A7.27,7.27,0,0,1,199,26.11c3.78,0,7.14,2.21,7.14,7.45v1.12H195.59c.11,2.43,1.43,3.83,3.64,3.83,1.88,0,2.8-.81,3.05-2h3.84c-.48,3.16-3,4.93-7,4.93C194.7,41.4,191.48,38.63,191.48,34Zm10.72-1.76c-.14-2.22-1.26-3.28-3.19-3.28s-3,1.2-3.36,3.28Z" fill="#262626"/></g></g></g></g></svg>