<svg xmlns="http://www.w3.org/2000/svg" viewBox="0 0 300 600"><title>Asset 7</title><g id="Layer_2" data-name="Layer 2"><g id="Rect"><rect width="300" height="600" fill="none"/></g><g id="Save_on_online_tax_prep._Switch_from_TurboTax." data-name="Save on online tax prep. Switch from TurboTax."><path d="M20.25,107.67H30.88c.27,2.78,1.53,5.06,6.16,5.06,3.22,0,5-1.58,5-3.87s-1.48-3-6.16-3.76c-11-1.3-14.72-4.57-14.72-12.42,0-7,5.78-12.16,15.1-12.16s14.66,3.93,15.37,12.16H41.29c-.38-2.78-2-4.2-5-4.2s-4.53,1.36-4.53,3.32c0,2.18,1.2,3.17,6,3.82,9.87,1.09,14.94,3.65,14.94,12.1,0,7.14-5.67,13-15.7,13C26.14,120.69,20.58,116.11,20.25,107.67Z" fill="#fff"/><path d="M54.7,112.13c0-6.7,5.67-9.32,15.15-9.32h2.72v-.65c0-2.72-.65-4.52-3.76-4.52A3.5,3.5,0,0,0,64.94,101H55.79c.43-6.87,5.83-10.25,13.62-10.25S82.28,94,82.28,101.56V120H72.79v-3.33c-1.36,2.07-3.87,4-8.45,4C59.22,120.69,54.7,118.19,54.7,112.13Zm17.87-2.07v-1.74H70c-3.92,0-5.67.76-5.67,3.11,0,1.63,1.09,2.67,3.38,2.67C70.5,114.1,72.57,112.52,72.57,110.06Z" fill="#fff"/><path d="M83.74,91.53H94.16l5.94,18.37,5.83-18.37h9.32L104.84,120H94.21Z" fill="#fff"/><path d="M114.65,106.14v-.44c0-9.15,6.81-14.93,15.42-14.93,7.79,0,14.5,4.47,14.5,14.72v2.56H124.51c.27,3.76,2.45,5.94,5.94,5.94,3.22,0,4.58-1.47,5-3.38h9.16c-.87,6.43-5.83,10.08-14.45,10.08C121.19,120.69,114.65,115.46,114.65,106.14Zm20.43-3.6c-.16-3.43-1.85-5.34-5-5.34-2.94,0-5,1.91-5.45,5.34Z" fill="#fff"/><path d="M156.34,106.14v-.44c0-9.15,6.81-14.93,15.64-14.93s15.53,5.61,15.53,14.66v.44c0,9.26-6.81,14.82-15.58,14.82S156.34,115.35,156.34,106.14Zm21.25-.16v-.44c0-4.8-1.9-7.47-5.61-7.47s-5.67,2.56-5.67,7.36v.44c0,4.9,1.91,7.57,5.67,7.57S177.59,110.72,177.59,106Z" fill="#fff"/><path d="M190.94,91.53h9.76v4.58a10.07,10.07,0,0,1,9.38-5.34c5.5,0,9.32,3.43,9.32,10.74V120h-9.76V103.47c0-3.22-1.25-4.8-4.09-4.8s-4.85,1.75-4.85,5.4v16h-9.76Z" fill="#fff"/><path d="M20.36,160.64v-.44c0-9.15,6.82-14.93,15.65-14.93s15.53,5.61,15.53,14.66v.44c0,9.26-6.81,14.82-15.59,14.82S20.36,169.85,20.36,160.64Zm21.26-.16V160c0-4.8-1.91-7.47-5.61-7.47s-5.67,2.56-5.67,7.36v.44c0,4.9,1.9,7.57,5.67,7.57S41.62,165.22,41.62,160.48Z" fill="#fff"/><path d="M55,146h9.76v4.58a10.05,10.05,0,0,1,9.37-5.34c5.51,0,9.32,3.43,9.32,10.74v18.53H73.67V158c0-3.22-1.26-4.8-4.09-4.8s-4.85,1.75-4.85,5.4v16H55Z" fill="#fff"/><path d="M88.43,133.5h9.7v41h-9.7Z" fill="#fff"/><path d="M103.15,138.29a5.38,5.38,0,1,1,5.34,5A5.09,5.09,0,0,1,103.15,138.29Zm.49,7.74h9.75v28.51h-9.75Z" fill="#fff"/><path d="M118.62,146h9.76v4.58a10.07,10.07,0,0,1,9.38-5.34c5.5,0,9.32,3.43,9.32,10.74v18.53h-9.76V158c0-3.22-1.25-4.8-4.09-4.8s-4.85,1.75-4.85,5.4v16h-9.76Z" fill="#fff"/><path d="M150.29,160.64v-.44c0-9.15,6.81-14.93,15.42-14.93,7.8,0,14.5,4.47,14.5,14.72v2.56H160.15c.28,3.76,2.46,5.94,5.94,5.94,3.22,0,4.58-1.47,5-3.38h9.16c-.87,6.43-5.83,10.08-14.44,10.08C156.83,175.19,150.29,170,150.29,160.64Zm20.44-3.6c-.17-3.43-1.85-5.34-5-5.34-2.94,0-5,1.91-5.45,5.34Z" fill="#fff"/><path d="M23.2,219.88v-12.7H19.76v-6.65H23.2v-5.94H33v5.94h5.62v6.65H33V219c0,2.08,1,3,2.89,3a7.37,7.37,0,0,0,2.78-.49v7.41a20.32,20.32,0,0,1-5.39.82C26.79,229.69,23.2,226.59,23.2,219.88Z" fill="#fff"/><path d="M40.75,221.13c0-6.7,5.66-9.32,15.15-9.32h2.72v-.65c0-2.72-.65-4.52-3.76-4.52A3.5,3.5,0,0,0,51,210H41.83c.44-6.87,5.84-10.25,13.63-10.25S68.32,203,68.32,210.56V229H58.84v-3.33c-1.36,2.07-3.87,4-8.45,4C45.27,229.69,40.75,227.19,40.75,221.13Zm17.87-2.07v-1.74H56.06c-3.92,0-5.67.76-5.67,3.11,0,1.63,1.09,2.67,3.38,2.67C56.55,223.1,58.62,221.52,58.62,219.06Z" fill="#fff"/><path d="M80.26,214.54l-8.89-14H82.6L87,208.05l4.3-7.52h10l-9,13.25L102.22,229H91l-5.07-8.5L80.75,229h-10Z" fill="#fff"/><path d="M114.86,200.53h9.76v4.25a10.06,10.06,0,0,1,8.88-5c6.65,0,12.05,5,12.05,14.77V215c0,9.81-5.4,14.71-12.1,14.71-4.31,0-7.41-2-8.83-4.85v13.74h-9.76ZM135.63,215v-.44c0-5-2.18-7.41-5.61-7.41s-5.67,2.56-5.67,7.36v.43c0,4.85,2.12,7.31,5.67,7.31S135.63,219.66,135.63,215Z" fill="#fff"/><path d="M149.09,200.53h9.76v5.67c1.79-4.25,4.79-6.1,9.21-6v9.1c-5.94-.16-9.21,1.69-9.21,6.27V229h-9.76Z" fill="#fff"/><path d="M169.8,215.14v-.44c0-9.15,6.81-14.93,15.42-14.93,7.8,0,14.5,4.47,14.5,14.72v2.56H179.66c.28,3.76,2.46,5.94,6,5.94,3.21,0,4.57-1.47,5-3.38h9.15c-.87,6.43-5.83,10.08-14.44,10.08C176.34,229.69,169.8,224.46,169.8,215.14Zm20.44-3.6c-.16-3.43-1.86-5.34-5-5.34-2.94,0-5,1.91-5.45,5.34Z" fill="#fff"/><path d="M203.1,200.53h9.75v4.25a10.08,10.08,0,0,1,8.89-5c6.65,0,12,5,12,14.77V215c0,9.81-5.39,14.71-12.1,14.71-4.3,0-7.41-2-8.83-4.85v13.74H203.1ZM223.86,215v-.44c0-5-2.18-7.41-5.61-7.41s-5.67,2.56-5.67,7.36v.43c0,4.85,2.13,7.31,5.67,7.31S223.86,219.66,223.86,215Z" fill="#fff"/><path d="M236.23,224.13a5.44,5.44,0,0,1,5.56-5.5,5.51,5.51,0,1,1,0,11A5.44,5.44,0,0,1,236.23,224.13Z" fill="#fff"/><path d="M20.25,271.17H30.88c.27,2.78,1.53,5.06,6.16,5.06,3.22,0,5-1.58,5-3.87s-1.48-3.05-6.16-3.76c-11-1.3-14.72-4.57-14.72-12.42,0-7,5.78-12.16,15.1-12.16S50.94,248,51.65,256.18H41.29c-.38-2.78-2-4.2-5-4.2s-4.53,1.36-4.53,3.32c0,2.18,1.2,3.17,6,3.82,9.87,1.09,14.94,3.65,14.94,12.1,0,7.14-5.67,13-15.7,13C26.14,284.19,20.58,279.61,20.25,271.17Z" fill="#fff"/><path d="M53.55,255h10.2l4.14,17.06L72.68,255h7.85l4.25,17.06L89.42,255h9.26l-9.05,28.51H80.31l-4.25-15.92-4.41,15.92H62.16Z" fill="#fff"/><path d="M101,247.29a5.38,5.38,0,1,1,5.34,5A5.09,5.09,0,0,1,101,247.29Zm.49,7.74h9.75v28.51h-9.75Z" fill="#fff"/><path d="M117.75,274.38v-12.7h-3.43V255h3.43v-5.94h9.76V255h5.61v6.65h-5.61v11.77c0,2.08,1,3,2.89,3a7.37,7.37,0,0,0,2.78-.49v7.41a20.41,20.41,0,0,1-5.4.82C121.35,284.19,117.75,281.09,117.75,274.38Z" fill="#fff"/><path d="M135.3,269.64v-.44c0-9.48,6.81-14.93,15.21-14.93,7,0,13.41,3,14,11.72H155.3c-.43-2.67-1.74-4.14-4.57-4.14-3.44,0-5.45,2.45-5.45,7.24v.44c0,5,1.9,7.52,5.61,7.52,2.73,0,4.63-1.63,5-4.74h8.77c-.27,7.19-5.12,11.88-14.33,11.88C141.79,284.19,135.3,279.23,135.3,269.64Z" fill="#fff"/><path d="M167.78,242.5h9.76v17.11a10.07,10.07,0,0,1,9.37-5.34c5.51,0,9.32,3.43,9.32,10.74v18.53h-9.75V267c0-3.22-1.26-4.8-4.09-4.8s-4.85,1.75-4.85,5.4v16h-9.76Z" fill="#fff"/><path d="M23.36,316.18h-3.6v-6.65h3.6V307c0-7.09,4.42-10.47,11.17-10.47a17.27,17.27,0,0,1,4.47.6v7.14a8.9,8.9,0,0,0-2.67-.38c-2.29,0-3.27,1.25-3.27,3.11v2.5h5.78v6.65H33.06V338h-9.7Z" fill="#fff"/><path d="M42.11,309.53h9.75v5.67c1.8-4.25,4.8-6.1,9.22-6.05v9.1c-5.95-.16-9.22,1.69-9.22,6.27V338H42.11Z" fill="#fff"/><path d="M62.82,324.14v-.44c0-9.15,6.81-14.93,15.64-14.93S94,314.38,94,323.43v.44c0,9.26-6.81,14.82-15.58,14.82S62.82,333.35,62.82,324.14ZM84.07,324v-.44c0-4.8-1.9-7.47-5.61-7.47s-5.67,2.56-5.67,7.36v.44c0,4.9,1.91,7.57,5.67,7.57S84.07,328.72,84.07,324Z" fill="#fff"/><path d="M97.42,309.53h9.76v4.36a10,10,0,0,1,8.94-5.12c3.76,0,6.38,1.63,7.74,4.74a11.3,11.3,0,0,1,9.43-4.74c5.39,0,9.32,3.49,9.32,10.63V338h-9.76V321c0-2.89-1.41-4.3-3.65-4.3-2.62,0-4.36,1.69-4.36,4.79V338h-9.65V321c0-2.89-1.41-4.3-3.65-4.3-2.61,0-4.36,1.69-4.36,4.79V338H97.42Z" fill="#fff"/><path d="M30.23,362.18H20.14v-8.61h31.4v8.61H41.46v30.36H30.23Z" fill="#fff"/><path d="M52.41,382.62V364h9.76v17c0,3.21,1.25,4.79,4,4.79,2.94,0,4.85-1.74,4.85-5.39V364h9.76v28.51H71.05v-4.42c-1.53,2.95-4.31,5.07-9,5.07C56.5,393.19,52.41,389.81,52.41,382.62Z" fill="#fff"/><path d="M85.76,364h9.76v5.67c1.8-4.25,4.79-6.1,9.21-6.05v9.1c-5.94-.16-9.21,1.69-9.21,6.27v13.52H85.76Z" fill="#fff"/><path d="M118,388.12v4.42h-9.76v-41H118v16.78a10.06,10.06,0,0,1,8.88-5c6.65,0,12.05,5,12.05,14.77v.44c0,9.81-5.4,14.71-12.1,14.71C122.61,393.19,119.44,391.18,118,388.12Zm11-9.64V378c0-5-2.18-7.41-5.62-7.41s-5.67,2.56-5.67,7.36v.43c0,4.85,2.13,7.3,5.67,7.3S129,383.16,129,378.48Z" fill="#fff"/><path d="M141,378.64v-.44c0-9.15,6.81-14.93,15.64-14.93s15.54,5.61,15.54,14.66v.44c0,9.26-6.82,14.82-15.59,14.82S141,387.85,141,378.64Zm21.26-.16V378c0-4.8-1.91-7.47-5.62-7.47s-5.67,2.56-5.67,7.36v.44c0,4.9,1.91,7.57,5.67,7.57S162.23,383.22,162.23,378.48Z" fill="#fff"/><path d="M183.92,362.18H173.83v-8.61h31.4v8.61H195.14v30.36H183.92Z" fill="#fff"/><path d="M203.26,384.63c0-6.7,5.67-9.32,15.16-9.32h2.72v-.65c0-2.72-.65-4.52-3.76-4.52a3.5,3.5,0,0,0-3.87,3.38h-9.16c.44-6.87,5.84-10.25,13.63-10.25s12.86,3.22,12.86,10.79v18.48h-9.48v-3.33c-1.36,2.07-3.87,4-8.45,4C207.79,393.19,203.26,390.68,203.26,384.63Zm17.88-2.07v-1.74h-2.56c-3.92,0-5.67.76-5.67,3.11,0,1.63,1.09,2.67,3.38,2.67C219.07,386.6,221.14,385,221.14,382.56Z" fill="#fff"/><path d="M242.78,378l-8.89-14h11.23l4.42,7.52,4.3-7.52h10l-9,13.25,9.86,15.26H253.51l-5.07-8.5-5.17,8.5h-10Z" fill="#fff"/><path d="M266.7,387.63a5.43,5.43,0,0,1,5.56-5.5,5.51,5.51,0,1,1,0,11A5.44,5.44,0,0,1,266.7,387.63Z" fill="#fff"/></g></g></svg>