<svg xmlns="http://www.w3.org/2000/svg" viewBox="0 0 970 250"><title>H04</title><g id="Layer_2" data-name="Layer 2"><g id="Rect"><rect width="970" height="250" fill="none"/></g><g id="Don_t_do_taxes._Let_a_tax_pro_do_them_for_you_without_leaving_home." data-name="Don&apos;t do taxes. Let a tax pro do them for you without leaving home."><path d="M280.36,85.45h9.89c9.65,0,14.55,4.82,14.55,13.26V99c0,8.47-5,13.6-14.59,13.6h-9.85ZM290,106.61c4.64,0,6.69-2.43,6.69-7.48v-.31c0-5.17-2.05-7.37-6.77-7.37h-1.71v15.16Z" fill="#fff"/><path d="M306.36,102.93v-.31c0-6.38,4.75-10.41,10.91-10.41s10.83,3.91,10.83,10.22v.31c0,6.45-4.75,10.33-10.87,10.33S306.36,109.35,306.36,102.93Zm14.83-.12v-.3c0-3.35-1.34-5.21-3.92-5.21s-3.95,1.79-3.95,5.13v.31c0,3.41,1.33,5.28,3.95,5.28S321.19,106.12,321.19,102.81Z" fill="#fff"/><path d="M330.5,92.74h6.8v3.19a7,7,0,0,1,6.54-3.72c3.84,0,6.5,2.39,6.5,7.49v12.91h-6.81V101.06c0-2.24-.87-3.34-2.85-3.34s-3.38,1.22-3.38,3.76v11.13h-6.8Z" fill="#fff"/><path d="M352.31,85.45H359l-.8,10.45h-5.1Z" fill="#fff"/><path d="M363.22,106.23V97.38h-2.39V92.74h2.39V88.6H370v4.14h3.91v4.64H370v8.2c0,1.45.72,2.09,2,2.09a5.16,5.16,0,0,0,1.94-.34v5.17a14.26,14.26,0,0,1-3.76.57C365.73,113.07,363.22,110.9,363.22,106.23Z" fill="#fff"/><path d="M382.45,102.89v-.31c0-6.76,3.73-10.37,8.44-10.37A6.45,6.45,0,0,1,397,95.55V84h6.81v28.61H397v-3.23a6.68,6.68,0,0,1-6.19,3.69C386.22,113.07,382.45,109.76,382.45,102.89Zm14.75-.12v-.3c0-3.34-1.4-5.13-3.91-5.13s-3.92,1.71-3.92,5.17v.3c0,3.34,1.48,5,3.84,5S397.2,106.15,397.2,102.77Z" fill="#fff"/><path d="M406.21,102.93v-.31c0-6.38,4.75-10.41,10.91-10.41S428,96.12,428,102.43v.31c0,6.45-4.75,10.33-10.87,10.33S406.21,109.35,406.21,102.93Zm14.82-.12v-.3c0-3.35-1.33-5.21-3.91-5.21s-3.95,1.79-3.95,5.13v.31c0,3.41,1.33,5.28,3.95,5.28S421,106.12,421,102.81Z" fill="#fff"/><path d="M438.17,106.23V97.38h-2.39V92.74h2.39V88.6H445v4.14h3.91v4.64H445v8.2c0,1.45.72,2.09,2,2.09a5.16,5.16,0,0,0,1.94-.34v5.17a14.12,14.12,0,0,1-3.76.57C440.68,113.07,438.17,110.9,438.17,106.23Z" fill="#fff"/><path d="M450.41,107.1c0-4.67,4-6.49,10.57-6.49h1.9v-.46c0-1.9-.46-3.15-2.62-3.15a2.44,2.44,0,0,0-2.7,2.35h-6.39c.31-4.78,4.07-7.14,9.51-7.14s9,2.24,9,7.52v12.88H463V110.3c-.95,1.44-2.7,2.77-5.89,2.77C453.57,113.07,450.41,111.32,450.41,107.1Zm12.47-1.44v-1.22h-1.79c-2.73,0-3.95.54-3.95,2.17,0,1.14.76,1.86,2.36,1.86C461.44,108.47,462.88,107.37,462.88,105.66Z" fill="#fff"/><path d="M478,102.51l-6.2-9.77h7.83L482.68,98l3-5.25h7L486.41,102l6.88,10.63h-7.83l-3.54-5.92-3.61,5.92h-6.95Z" fill="#fff"/><path d="M492.41,102.93v-.31c0-6.38,4.75-10.41,10.76-10.41,5.43,0,10.11,3.12,10.11,10.26v1.78h-14c.19,2.63,1.71,4.15,4.14,4.15,2.25,0,3.2-1,3.46-2.36h6.39c-.61,4.48-4.07,7-10.07,7C497,113.07,492.41,109.42,492.41,102.93Zm14.26-2.51c-.12-2.4-1.3-3.73-3.5-3.73s-3.46,1.33-3.8,3.73Z" fill="#fff"/><path d="M514.5,106.31h6.27c.23,1.44.87,2.24,2.81,2.24,1.67,0,2.43-.65,2.43-1.64s-1-1.4-3.68-1.78c-5.33-.69-7.57-2.24-7.57-6.38,0-4.41,3.92-6.54,8.52-6.54,4.9,0,8.32,1.67,8.78,6.42H525.9a2.22,2.22,0,0,0-2.55-2c-1.48,0-2.24.64-2.24,1.55s.91,1.33,3.34,1.64c5.52.68,8.18,2.13,8.18,6.38,0,4.71-3.5,6.84-9,6.84C518,113.07,514.65,110.71,514.5,106.31Z" fill="#fff"/><path d="M534.56,109.19a3.79,3.79,0,0,1,3.88-3.83,3.84,3.84,0,1,1,0,7.67A3.79,3.79,0,0,1,534.56,109.19Z" fill="#fff"/><path d="M553.15,85.45H561v21.12h10.26v6H553.15Z" fill="#fff"/><path d="M572.38,102.93v-.31c0-6.38,4.75-10.41,10.76-10.41,5.44,0,10.11,3.12,10.11,10.26v1.78h-14c.19,2.63,1.71,4.15,4.15,4.15,2.24,0,3.19-1,3.45-2.36h6.39c-.61,4.48-4.07,7-10.07,7C576.94,113.07,572.38,109.42,572.38,102.93Zm14.26-2.51c-.12-2.4-1.3-3.73-3.5-3.73-2,0-3.46,1.33-3.8,3.73Z" fill="#fff"/><path d="M596.52,106.23V97.38h-2.4V92.74h2.4V88.6h6.8v4.14h3.92v4.64h-3.92v8.2c0,1.45.72,2.09,2,2.09a5.16,5.16,0,0,0,1.94-.34v5.17a14.27,14.27,0,0,1-3.77.57C599,113.07,596.52,110.9,596.52,106.23Z" fill="#fff"/><path d="M615.6,107.1c0-4.67,3.95-6.49,10.57-6.49h1.9v-.46c0-1.9-.46-3.15-2.63-3.15a2.43,2.43,0,0,0-2.69,2.35h-6.39c.3-4.78,4.07-7.14,9.5-7.14s9,2.24,9,7.52v12.88h-6.61V110.3c-1,1.44-2.7,2.77-5.89,2.77C618.75,113.07,615.6,111.32,615.6,107.1Zm12.47-1.44v-1.22h-1.79c-2.74,0-3.95.54-3.95,2.17,0,1.14.76,1.86,2.35,1.86C626.62,108.47,628.07,107.37,628.07,105.66Z" fill="#fff"/><path d="M646,106.23V97.38h-2.4V92.74H646V88.6h6.8v4.14h3.92v4.64h-3.92v8.2c0,1.45.72,2.09,2,2.09a5.11,5.11,0,0,0,1.93-.34v5.17a14.12,14.12,0,0,1-3.76.57C648.48,113.07,646,110.9,646,106.23Z" fill="#fff"/><path d="M658.2,107.1c0-4.67,4-6.49,10.57-6.49h1.9v-.46c0-1.9-.45-3.15-2.62-3.15a2.44,2.44,0,0,0-2.7,2.35H659c.31-4.78,4.07-7.14,9.51-7.14s9,2.24,9,7.52v12.88h-6.62V110.3c-1,1.44-2.69,2.77-5.89,2.77C661.36,113.07,658.2,111.32,658.2,107.1Zm12.47-1.44v-1.22h-1.79c-2.73,0-4,.54-4,2.17,0,1.14.76,1.86,2.36,1.86C669.23,108.47,670.67,107.37,670.67,105.66Z" fill="#fff"/><path d="M685.76,102.51l-6.2-9.77h7.83L690.47,98l3-5.25h7L694.2,102l6.88,10.63h-7.83l-3.54-5.92-3.61,5.92h-7Z" fill="#fff"/><path d="M709.9,92.74h6.8v3a7,7,0,0,1,6.19-3.5c4.64,0,8.4,3.5,8.4,10.3v.3c0,6.84-3.76,10.26-8.43,10.26a6.56,6.56,0,0,1-6.16-3.38v9.57h-6.8Zm14.48,10.07v-.3c0-3.5-1.52-5.17-3.92-5.17s-4,1.79-4,5.13v.3c0,3.38,1.48,5.09,4,5.09S724.38,106.08,724.38,102.81Z" fill="#fff"/><path d="M733.76,92.74h6.81v4A6.25,6.25,0,0,1,747,92.48v6.34c-4.14-.11-6.42,1.18-6.42,4.37v9.42h-6.81Z" fill="#fff"/><path d="M748.21,102.93v-.31c0-6.38,4.75-10.41,10.91-10.41S770,96.12,770,102.43v.31c0,6.45-4.75,10.33-10.87,10.33S748.21,109.35,748.21,102.93Zm14.82-.12v-.3c0-3.35-1.33-5.21-3.91-5.21s-4,1.79-4,5.13v.31c0,3.41,1.33,5.28,4,5.28S763,106.12,763,102.81Z" fill="#fff"/><path d="M778.27,102.89v-.31c0-6.76,3.73-10.37,8.44-10.37a6.45,6.45,0,0,1,6.12,3.34V84h6.8v28.61h-6.8v-3.23a6.69,6.69,0,0,1-6.2,3.69C782,113.07,778.27,109.76,778.27,102.89Zm14.75-.12v-.3c0-3.34-1.41-5.13-3.91-5.13s-3.92,1.71-3.92,5.17v.3c0,3.34,1.48,5,3.84,5S793,106.15,793,102.77Z" fill="#fff"/><path d="M802,102.93v-.31c0-6.38,4.75-10.41,10.91-10.41s10.83,3.91,10.83,10.22v.31c0,6.45-4.75,10.33-10.87,10.33S802,109.35,802,102.93Zm14.82-.12v-.3c0-3.35-1.33-5.21-3.91-5.21s-4,1.79-4,5.13v.31c0,3.41,1.33,5.28,4,5.28S816.85,106.12,816.85,102.81Z" fill="#fff"/><path d="M834,106.23V97.38H831.6V92.74H834V88.6h6.81v4.14h3.91v4.64H840.8v8.2c0,1.45.72,2.09,2,2.09a5.16,5.16,0,0,0,1.94-.34v5.17a14.19,14.19,0,0,1-3.76.57C836.5,113.07,834,110.9,834,106.23Z" fill="#fff"/><path d="M847.3,84h6.8V95.93a7,7,0,0,1,6.54-3.72c3.84,0,6.5,2.39,6.5,7.49v12.91h-6.81V101.06c0-2.24-.87-3.34-2.85-3.34s-3.38,1.22-3.38,3.76v11.13h-6.8Z" fill="#fff"/><path d="M869.38,102.93v-.31c0-6.38,4.75-10.41,10.76-10.41,5.43,0,10.11,3.12,10.11,10.26v1.78h-14c.19,2.63,1.71,4.15,4.14,4.15,2.24,0,3.19-1,3.46-2.36h6.39c-.61,4.48-4.07,7-10.08,7C873.94,113.07,869.38,109.42,869.38,102.93Zm14.25-2.51c-.11-2.4-1.29-3.73-3.49-3.73s-3.46,1.33-3.81,3.73Z" fill="#fff"/><path d="M892.6,92.74h6.81v3a6.94,6.94,0,0,1,6.23-3.57,5.42,5.42,0,0,1,5.4,3.31,7.88,7.88,0,0,1,6.57-3.31c3.77,0,6.5,2.43,6.5,7.41v13h-6.8V100.76c0-2-1-3-2.55-3-1.82,0-3,1.18-3,3.34v11.51H905V100.76c0-2-1-3-2.54-3-1.83,0-3,1.18-3,3.34v11.51H892.6Z" fill="#fff"/><path d="M280.78,137.38h-2.51v-4.64h2.51V131c0-4.93,3.08-7.29,7.79-7.29a12,12,0,0,1,3.12.42v5a6.3,6.3,0,0,0-1.86-.26,2,2,0,0,0-2.28,2.16v1.75h4v4.64h-4v15.23h-6.77Z" fill="#fff"/><path d="M292.11,142.92v-.3c0-6.38,4.75-10.41,10.91-10.41s10.83,3.91,10.83,10.22v.3c0,6.46-4.75,10.34-10.87,10.34S292.11,149.35,292.11,142.92Zm14.82-.11v-.3c0-3.35-1.33-5.21-3.91-5.21s-4,1.79-4,5.13v.3c0,3.42,1.33,5.29,4,5.29S306.93,146.12,306.93,142.81Z" fill="#fff"/><path d="M316.24,132.74h6.81v3.95a6.25,6.25,0,0,1,6.42-4.21v6.34c-4.14-.11-6.42,1.18-6.42,4.37v9.42h-6.81Z" fill="#fff"/><path d="M345.09,150.6l-7.94-17.86h7.37l4.11,10.6,3.8-10.6h6.5l-10.65,26.52h-6.49Z" fill="#fff"/><path d="M358.55,142.92v-.3c0-6.38,4.75-10.41,10.91-10.41s10.83,3.91,10.83,10.22v.3c0,6.46-4.75,10.34-10.87,10.34S358.55,149.35,358.55,142.92Zm14.82-.11v-.3c0-3.35-1.33-5.21-3.91-5.21s-4,1.79-4,5.13v.3c0,3.42,1.33,5.29,4,5.29S373.37,146.12,373.37,142.81Z" fill="#fff"/><path d="M382.53,145.7v-13h6.8V144.6c0,2.24.88,3.34,2.82,3.34s3.38-1.22,3.38-3.76V132.74h6.8v19.87h-6.8v-3.07c-1.07,2.05-3,3.53-6.31,3.53C385.38,153.07,382.53,150.71,382.53,145.7Z" fill="#fff"/><path d="M411,132.74h7.1L421,144.63l3.35-11.89h5.47l3,11.89,3.23-11.89h6.46l-6.31,19.87h-6.5l-3-11.09-3.07,11.09H417Z" fill="#fff"/><path d="M444.1,127.35a3.75,3.75,0,1,1,3.73,3.49A3.56,3.56,0,0,1,444.1,127.35Zm.35,5.39h6.8v19.87h-6.8Z" fill="#fff"/><path d="M455.81,146.23v-8.85h-2.39v-4.64h2.39V128.6h6.8v4.14h3.92v4.64h-3.92v8.2a1.82,1.82,0,0,0,2,2.09,5.16,5.16,0,0,0,1.94-.34v5.17a14.27,14.27,0,0,1-3.77.57C458.32,153.07,455.81,150.9,455.81,146.23Z" fill="#fff"/><path d="M469.11,124h6.81v11.93a7,7,0,0,1,6.53-3.72c3.84,0,6.5,2.39,6.5,7.49v12.91h-6.8V141.06c0-2.24-.87-3.34-2.85-3.34s-3.38,1.22-3.38,3.76v11.13h-6.81Z" fill="#fff"/><path d="M491.2,142.92v-.3c0-6.38,4.75-10.41,10.9-10.41s10.84,3.91,10.84,10.22v.3c0,6.46-4.75,10.34-10.87,10.34S491.2,149.35,491.2,142.92Zm14.82-.11v-.3c0-3.35-1.33-5.21-3.92-5.21s-4,1.79-4,5.13v.3c0,3.42,1.33,5.29,4,5.29S506,146.12,506,142.81Z" fill="#fff"/><path d="M515.18,145.7v-13H522V144.6c0,2.24.88,3.34,2.81,3.34s3.39-1.22,3.39-3.76V132.74H535v19.87h-6.8v-3.07c-1.07,2.05-3,3.53-6.31,3.53C518,153.07,515.18,150.71,515.18,145.7Z" fill="#fff"/><path d="M539.35,146.23v-8.85H537v-4.64h2.39V128.6h6.81v4.14h3.91v4.64h-3.91v8.2c0,1.45.72,2.09,2,2.09a5.16,5.16,0,0,0,1.94-.34v5.17a14.19,14.19,0,0,1-3.76.57C541.86,153.07,539.35,150.9,539.35,146.23Z" fill="#fff"/><path d="M559.76,124h6.77v28.61h-6.77Z" fill="#fff"/><path d="M569.11,142.92v-.3c0-6.38,4.75-10.41,10.76-10.41,5.43,0,10.11,3.12,10.11,10.26v1.78H576c.19,2.63,1.71,4.15,4.14,4.15,2.25,0,3.2-1,3.46-2.36H590c-.61,4.48-4.07,7-10.07,7C573.67,153.07,569.11,149.42,569.11,142.92Zm14.26-2.5c-.12-2.4-1.3-3.73-3.5-3.73-2,0-3.46,1.33-3.8,3.73Z" fill="#fff"/><path d="M591.38,147.1c0-4.67,4-6.49,10.57-6.49h1.9v-.46c0-1.9-.45-3.15-2.62-3.15a2.44,2.44,0,0,0-2.7,2.35h-6.39c.31-4.78,4.07-7.14,9.51-7.14s9,2.24,9,7.52v12.88H604V150.3c-1,1.44-2.7,2.77-5.89,2.77C594.54,153.07,591.38,151.32,591.38,147.1Zm12.47-1.44v-1.22h-1.79c-2.73,0-3.95.54-3.95,2.17,0,1.14.76,1.86,2.36,1.86C602.41,148.47,603.85,147.37,603.85,145.66Z" fill="#fff"/><path d="M611.64,132.74h7.26L623,145.55l4.07-12.81h6.5l-7.26,19.87h-7.41Z" fill="#fff"/><path d="M635.17,127.35a3.75,3.75,0,1,1,3.73,3.49A3.56,3.56,0,0,1,635.17,127.35Zm.34,5.39h6.81v19.87h-6.81Z" fill="#fff"/><path d="M646,132.74h6.81v3.19a7,7,0,0,1,6.54-3.72c3.84,0,6.5,2.39,6.5,7.49v12.91H659V141.06c0-2.24-.87-3.34-2.85-3.34s-3.38,1.22-3.38,3.76v11.13H646Z" fill="#fff"/><path d="M668,152.61h6.77c.3,1.45,1.17,2.59,3.64,2.59,3,0,4.22-1.71,4.22-4.18v-3a7,7,0,0,1-6.15,3.65c-4.64,0-8.44-3.42-8.44-9.54v-.3c0-5.86,3.76-9.58,8.44-9.58a6.46,6.46,0,0,1,6.15,3.34v-2.81h6.81v18.2c0,5.93-3.92,9-11,9C671.66,160,668.54,157.13,668,152.61Zm14.82-10.56v-.26c0-2.74-1.4-4.49-3.91-4.49s-3.92,1.79-3.92,4.52v.31c0,2.73,1.45,4.48,3.88,4.48S682.83,144.86,682.83,142.05Z" fill="#fff"/><path d="M699.82,124h6.81v11.93a7,7,0,0,1,6.53-3.72c3.84,0,6.5,2.39,6.5,7.49v12.91h-6.8V141.06c0-2.24-.87-3.34-2.85-3.34s-3.38,1.22-3.38,3.76v11.13h-6.81Z" fill="#fff"/><path d="M721.91,142.92v-.3c0-6.38,4.75-10.41,10.91-10.41s10.83,3.91,10.83,10.22v.3c0,6.46-4.75,10.34-10.87,10.34S721.91,149.35,721.91,142.92Zm14.82-.11v-.3c0-3.35-1.33-5.21-3.91-5.21s-4,1.79-4,5.13v.3c0,3.42,1.33,5.29,4,5.29S736.73,146.12,736.73,142.81Z" fill="#fff"/><path d="M746,132.74h6.81v3a6.94,6.94,0,0,1,6.23-3.57,5.42,5.42,0,0,1,5.4,3.31,7.87,7.87,0,0,1,6.57-3.31c3.77,0,6.5,2.43,6.5,7.41v13h-6.8V140.76c0-2-1-3-2.55-3-1.82,0-3,1.18-3,3.34v11.51h-6.73V140.76c0-2-1-3-2.54-3-1.83,0-3,1.18-3,3.34v11.51H746Z" fill="#fff"/><path d="M779.79,142.92v-.3c0-6.38,4.75-10.41,10.76-10.41,5.44,0,10.11,3.12,10.11,10.26v1.78h-14c.19,2.63,1.71,4.15,4.15,4.15,2.24,0,3.19-1,3.46-2.36h6.38c-.61,4.48-4.07,7-10.07,7C784.36,153.07,779.79,149.42,779.79,142.92Zm14.26-2.5c-.12-2.4-1.3-3.73-3.5-3.73-2,0-3.46,1.33-3.8,3.73Z" fill="#fff"/><path d="M802.56,149.19a3.79,3.79,0,0,1,3.88-3.83,3.84,3.84,0,1,1,0,7.67A3.79,3.79,0,0,1,802.56,149.19Z" fill="#fff"/></g></g></svg>