<?xml version="1.0" encoding="utf-8"?>
<!-- Generator: Adobe Illustrator 23.1.1, SVG Export Plug-In . SVG Version: 6.00 Build 0)  -->
<svg version="1.1" id="Layer_1" xmlns="http://www.w3.org/2000/svg" xmlns:xlink="http://www.w3.org/1999/xlink" x="0px" y="0px"
	 viewBox="0 0 1456 180" style="enable-background:new 0 0 1456 180;" xml:space="preserve">
<style type="text/css">
	.st0{fill:#FFFFFF;}
	.st1{fill:none;}
</style>
<title>728x90</title>
<g>
	<g id="Optional_loan_from_Axos_Bank_could_be_within_minutes_of_filing">
		<path class="st0" d="M241,165.6v-0.1c-0.2-3.5,2.5-6.5,6-6.7c3.5-0.2,6.5,2.5,6.7,6c0,0.2,0,0.5,0,0.7v0.1c0.2,3.5-2.5,6.5-6,6.7
			c-3.5,0.2-6.5-2.5-6.7-6C241,166,241,165.8,241,165.6z M252,165.6v-0.1c0.3-2.6-1.6-4.9-4.2-5.2s-4.9,1.6-5.2,4.2
			c0,0.4,0,0.7,0,1.1v0.1c-0.2,2.7,1.8,5,4.4,5.2c0.1,0,0.2,0,0.3,0c2.6,0,4.7-2.1,4.7-4.7C252,165.9,252,165.7,252,165.6L252,165.6
			z"/>
		<path class="st0" d="M255.8,162.5h1.5v1.5c0.7-1.1,1.9-1.7,3.2-1.7c2.4,0,4.3,1.9,4.3,4.3c0,0.2,0,0.3,0,0.5v0.1
			c0.3,2.4-1.4,4.5-3.8,4.8c-0.2,0-0.3,0-0.5,0c-1.3,0-2.5-0.6-3.2-1.7v4.9h-1.5V162.5z M263.3,167.3v-0.1c0-2.4-1.3-3.6-2.9-3.6
			s-3.1,1.2-3.1,3.6v0.1c0,2.4,1.3,3.6,3.1,3.6S263.3,169.6,263.3,167.3z"/>
		<path class="st0" d="M267.2,169.6v-5.8h-1.3v-1.3h1.3v-2.1h1.5v2.1h2.2v1.3h-2.2v5.7c0,0.9,0.4,1.4,1.2,1.4c0.4,0,0.8-0.1,1.2-0.2
			v1.3c-0.4,0.1-0.8,0.2-1.3,0.2c-1.3,0.1-2.4-0.7-2.5-2C267.2,169.9,267.2,169.7,267.2,169.6z"/>
		<path class="st0" d="M272.7,159.5c0-0.5,0.5-1,1-1c0.5,0,1,0.4,1,1l0,0c0,0.5-0.4,1-1,1C273.2,160.5,272.8,160.1,272.7,159.5z
			 M273,162.5h1.5v9.5H273V162.5z"/>
		<path class="st0" d="M276.6,167.3v-0.1c0-2.6,2.1-4.6,4.6-4.6c2.6,0,4.6,2.1,4.6,4.6c0,0,0,0,0,0v0.1c0,2.6-2.1,4.6-4.6,4.6
			C278.7,171.9,276.6,169.8,276.6,167.3C276.6,167.3,276.6,167.3,276.6,167.3z M284.3,167.3v-0.1c0-2.2-1.2-3.6-3.1-3.6
			c-1.7,0-3.1,1.4-3.1,3.1c0,0.1,0,0.3,0,0.4v0.1c0,2.1,1.2,3.6,3.1,3.6S284.3,169.4,284.3,167.3L284.3,167.3z"/>
		<path class="st0" d="M288,162.5h1.5v1.5c0.6-1.1,1.8-1.7,3-1.7c2,0,3.3,1.1,3.3,3.8v5.9h-1.5v-6c0-1.7-0.7-2.4-2.2-2.4
			c-1.4-0.1-2.5,0.9-2.6,2.3c0,0.1,0,0.2,0,0.3v5.8H288V162.5z"/>
		<path class="st0" d="M297.6,169.3c0-2.2,2.3-2.9,4.7-2.9h1.3v-0.7c0-1.5-0.6-2.1-2-2.1s-2,0.5-2.2,1.7H298
			c0.2-1.8,1.8-3.1,3.6-2.9c0,0,0.1,0,0.1,0c1.7-0.2,3.2,0.9,3.4,2.6c0,0.3,0,0.5,0,0.8v6.3h-1.5v-1.2c-0.7,0.9-1.8,1.4-2.9,1.4
			C299,172,297.6,171.2,297.6,169.3z M303.6,168.6v-1.2h-1.3c-1.9,0-3.3,0.5-3.3,1.9c0,1,0.5,1.6,1.8,1.6S303.7,170,303.6,168.6
			L303.6,168.6z"/>
		<path class="st0" d="M307.9,158h1.5v14h-1.5V158z"/>
		<path class="st0" d="M316.7,158h1.5v14h-1.5V158z"/>
		<path class="st0" d="M320.3,167.3v-0.1c-0.2-2.6,1.8-4.8,4.3-4.9c2.6-0.2,4.8,1.8,4.9,4.3c0,0.2,0,0.4,0,0.6v0.1
			c0.2,2.6-1.8,4.8-4.3,4.9c-2.6,0.2-4.8-1.8-4.9-4.3C320.3,167.7,320.3,167.5,320.3,167.3z M328,167.3v-0.1c0-2.2-1.2-3.6-3.1-3.6
			c-1.7,0-3.1,1.4-3.1,3.1c0,0.1,0,0.3,0,0.4v0.1c0,2.1,1.2,3.6,3.1,3.6S328,169.4,328,167.3L328,167.3z"/>
		<path class="st0" d="M330.8,169.3c0-2.2,2.3-2.9,4.7-2.9h1.4v-0.7c0-1.5-0.6-2.1-2-2.1s-2,0.5-2.2,1.7h-1.5
			c0.2-1.8,1.8-3.1,3.6-2.9c0,0,0.1,0,0.1,0c1.7-0.2,3.2,0.9,3.4,2.6c0,0.3,0,0.5,0,0.8v6.3h-1.5v-1.2c-0.7,0.9-1.8,1.3-2.9,1.2
			C332.2,172,330.8,171.2,330.8,169.3z M336.8,168.6v-1.2h-1.3c-1.9,0-3.3,0.5-3.3,1.9c0,1,0.5,1.6,1.8,1.6S336.9,170,336.8,168.6
			L336.8,168.6z"/>
		<path class="st0" d="M341.1,162.5h1.5v1.5c0.6-1.1,1.8-1.7,3-1.7c2,0,3.3,1.1,3.3,3.8v5.9h-1.5v-6c0-1.7-0.7-2.4-2.2-2.4
			c-1.4-0.1-2.5,0.9-2.6,2.3c0,0.1,0,0.2,0,0.2v5.8h-1.5L341.1,162.5z"/>
		<path class="st0" d="M356.4,163.8H355v-1.3h1.3V161c0-2,0.9-3,2.8-3c0.4,0,0.8,0.1,1.1,0.2v1.3c-0.3-0.1-0.7-0.2-1.1-0.2
			c-1,0-1.4,0.7-1.4,1.6v1.7h2.3v1.3h-2.3v8.2h-1.5L356.4,163.8z"/>
		<path class="st0" d="M362,162.5h1.5v1.7c0.6-1.2,1.8-1.9,3.1-1.8v1.4c-1.9,0-3.1,0.7-3.1,3v5.3H362V162.5z"/>
		<path class="st0" d="M367.5,167.3v-0.1c-0.2-2.6,1.8-4.8,4.3-4.9c2.6-0.2,4.8,1.8,4.9,4.3c0,0.2,0,0.4,0,0.6v0.1
			c0.2,2.6-1.8,4.8-4.3,4.9c-2.6,0.2-4.8-1.8-4.9-4.3C367.5,167.7,367.5,167.5,367.5,167.3z M375.3,167.3v-0.1
			c0-2.2-1.2-3.6-3.1-3.6s-3.1,1.4-3.1,3.6v0.1c0,2.1,1.2,3.6,3.1,3.6c1.7,0,3.1-1.4,3.1-3.2C375.3,167.5,375.3,167.4,375.3,167.3z"
			/>
		<path class="st0" d="M378.9,162.5h1.5v1.5c0.6-1,1.7-1.6,2.8-1.6c1.2-0.1,2.3,0.6,2.7,1.8c0.7-1.1,1.9-1.8,3.2-1.8
			c1.7,0,3.2,1,3.2,3.7v5.9h-1.5v-6c0-1.7-0.7-2.3-2-2.3c-1.3,0-2.4,1-2.5,2.3c0,0.1,0,0.1,0,0.2v5.8h-1.5v-6c0-1.7-0.7-2.3-2-2.3
			c-1.3-0.1-2.4,1-2.5,2.3c0,0.1,0,0.2,0,0.2v5.8h-1.5L378.9,162.5z"/>
		<path class="st0" d="M403,159h2l4.4,13h-1.6l-1.3-3.7h-5.3L400,172h-1.5L403,159z M401.7,167h4.5l-2.2-6.7L401.7,167z"/>
		<path class="st0" d="M413.7,167.1l-3.1-4.6h1.7l2.3,3.5l2.3-3.4h1.6l-3.1,4.5l3.4,5H417l-2.5-3.8L412,172h-1.6L413.7,167.1z"/>
		<path class="st0" d="M419.4,167.3v-0.1c-0.2-2.6,1.8-4.8,4.3-4.9c2.6-0.2,4.8,1.8,4.9,4.3c0,0.2,0,0.4,0,0.6v0.1
			c0.2,2.6-1.8,4.8-4.3,4.9c-2.6,0.2-4.8-1.8-4.9-4.3C419.4,167.7,419.4,167.5,419.4,167.3z M427.1,167.3v-0.1
			c0-2.2-1.2-3.6-3.1-3.6s-3.1,1.4-3.1,3.6v0.1c0,2.1,1.2,3.6,3.1,3.6c1.7,0,3.1-1.4,3.1-3.2C427.1,167.5,427.1,167.4,427.1,167.3z"
			/>
		<path class="st0" d="M430,169h1.5c0.1,1.1,0.7,1.8,2.2,1.8s2-0.5,2-1.5s-0.7-1.3-2.2-1.6c-2.4-0.5-3.3-1.1-3.3-2.8
			c0.2-1.6,1.6-2.8,3.2-2.6c1.7-0.2,3.2,0.9,3.4,2.6c0,0,0,0.1,0,0.1h-1.4c-0.2-1-0.8-1.5-2-1.5s-1.8,0.5-1.8,1.3s0.5,1.2,2.2,1.5
			s3.3,0.8,3.3,2.8c0,1.7-1.2,2.9-3.5,2.9S430,170.9,430,169z"/>
		<path class="st0" d="M443.7,159h3.9c2.4,0,4.1,0.8,4.1,3.3l0,0c0.1,1.3-0.8,2.4-2,2.7c1.6,0.1,2.7,1.5,2.6,3.1c0,0,0,0,0,0l0,0
			c0,2.4-1.6,3.6-4.2,3.6h-4.4L443.7,159z M447.6,164.7c1.9,0,2.6-0.7,2.6-2.3l0,0c0-1.5-0.8-2-2.6-2h-2.3v4.4L447.6,164.7z
			 M448.1,170.7c1.9,0,2.7-0.8,2.7-2.4l0,0c0-1.6-0.9-2.3-3-2.3h-2.6v4.8L448.1,170.7z"/>
		<path class="st0" d="M453.7,169.3c0-2.2,2.3-2.9,4.7-2.9h1.4v-0.7c0-1.5-0.6-2.1-2-2.1s-2,0.5-2.2,1.7h-1.5
			c0.2-1.8,1.8-3.1,3.6-2.9c0,0,0.1,0,0.1,0c1.7-0.2,3.2,0.9,3.4,2.6c0,0.3,0,0.5,0,0.8v6.3h-1.5v-1.2c-0.7,0.9-1.8,1.4-2.9,1.4
			C455.1,172,453.7,171.2,453.7,169.3z M459.7,168.6v-1.2h-1.3c-1.9,0-3.3,0.5-3.3,1.9c0,1,0.5,1.6,1.8,1.6
			C458.6,170.9,459.8,170,459.7,168.6L459.7,168.6z"/>
		<path class="st0" d="M464,162.5h1.5v1.5c0.6-1.1,1.8-1.7,3-1.7c2,0,3.3,1.1,3.3,3.8v5.9h-1.5v-6c0-1.7-0.7-2.4-2.2-2.4
			c-1.4-0.1-2.5,0.9-2.6,2.3c0,0.1,0,0.2,0,0.2v5.8H464V162.5z"/>
		<path class="st0" d="M474.4,158h1.6v8.8l3.9-4.3h1.8l-4,4.4l4.3,5.1h-1.8l-4.2-5v5h-1.5L474.4,158z"/>
		<path class="st0" d="M482.3,160.7c0-1.3,1-2.3,2.3-2.3c0,0,0,0,0,0c1.3,0,2.3,1.1,2.3,2.3c0,1.3-1.1,2.3-2.3,2.3
			C483.4,162.9,482.3,161.9,482.3,160.7z M486.6,160.7c0-1.1-0.9-2-2-2c-1.1,0-2,0.9-2,2s0.9,2,2,2c0,0,0.1,0,0.1,0
			c1,0,1.9-0.8,1.9-1.8C486.6,160.8,486.6,160.7,486.6,160.7L486.6,160.7z M483.9,159.5h0.8c0.5,0,0.9,0.2,0.9,0.7l0,0
			c0,0.3-0.2,0.6-0.5,0.6l0.6,1h-0.5l-0.6-0.9h-0.2v0.9h-0.5L483.9,159.5z M484.7,160.5c0.3,0,0.4-0.1,0.4-0.3l0,0
			c0-0.2-0.1-0.3-0.4-0.3h-0.3v0.7H484.7z"/>
		<path class="st0" d="M492.5,167.3v-0.1c-0.1-2.5,1.8-4.7,4.3-4.8c0.1,0,0.2,0,0.2,0c2-0.2,3.8,1.3,4,3.3h-1.5
			c-0.2-1.3-1.3-2.1-2.6-2c-1.8,0.1-3.1,1.6-3,3.3c0,0.1,0,0.1,0,0.2v0.1c0,2.3,1.3,3.5,3.1,3.5c1.4,0.1,2.6-0.9,2.7-2.3h1.4
			c-0.3,2-2,3.5-4.1,3.5c-2.5,0.1-4.5-1.9-4.6-4.4C492.5,167.5,492.5,167.4,492.5,167.3z"/>
		<path class="st0" d="M502.5,167.3v-0.1c-0.2-2.6,1.8-4.8,4.3-4.9c2.6-0.2,4.8,1.8,4.9,4.3c0,0.2,0,0.4,0,0.6v0.1
			c0.2,2.6-1.8,4.8-4.3,4.9c-2.6,0.2-4.8-1.8-4.9-4.3C502.5,167.7,502.5,167.5,502.5,167.3z M510.2,167.3v-0.1
			c0-2.2-1.2-3.6-3.1-3.6s-3.1,1.4-3.1,3.6v0.1c0,2.1,1.2,3.6,3.1,3.6c1.7,0,3.1-1.4,3.1-3.2C510.2,167.5,510.2,167.4,510.2,167.3z"
			/>
		<path class="st0" d="M513.7,168.5v-6h1.5v5.9c0,1.7,0.7,2.4,2.2,2.4c1.4,0.1,2.5-1,2.6-2.3c0-0.1,0-0.1,0-0.2v-5.7h1.5v9.5H520
			v-1.5c-0.6,1.1-1.7,1.7-3,1.7C515.1,172,513.7,171,513.7,168.5z"/>
		<path class="st0" d="M524.3,158h1.5v14h-1.5V158z"/>
		<path class="st0" d="M527.9,167.4v-0.2c-0.2-2.5,1.5-4.6,4-4.9c0.1,0,0.3,0,0.4,0c1.3-0.1,2.4,0.6,3.1,1.7v-6h1.5v14h-1.5v-1.6
			c-0.7,1.1-1.9,1.7-3.2,1.8c-2.3,0-4.2-1.8-4.3-4.1C527.8,167.8,527.8,167.6,527.9,167.4z M535.4,167.3v-0.1c0-2.4-1.2-3.5-3-3.5
			s-3,1.3-3,3.6v0.1c0,2.4,1.3,3.5,2.9,3.5S535.4,169.7,535.4,167.3z"/>
		<path class="st0" d="M545.6,170.4v1.6H544v-14h1.5v6c0.7-1.1,1.9-1.7,3.2-1.7c2.4,0,4.3,1.9,4.3,4.3c0,0.2,0,0.3,0,0.5v0.1
			c0.3,2.4-1.4,4.6-3.8,4.8c-0.1,0-0.3,0-0.4,0C547.5,172.1,546.3,171.4,545.6,170.4z M551.6,167.3v-0.1c0-2.4-1.3-3.6-2.9-3.6
			s-3.1,1.2-3.1,3.6v0.1c0,2.4,1.3,3.6,3.1,3.6S551.5,169.6,551.6,167.3L551.6,167.3z"/>
		<path class="st0" d="M554.4,167.3v-0.1c-0.2-2.4,1.6-4.6,4-4.8c0.1,0,0.3,0,0.4,0c2.3-0.1,4.2,1.7,4.3,4c0,0.2,0,0.5,0,0.7v0.5h-7
			c0,2.1,1.1,3.3,3,3.3c1.5,0,2.3-0.5,2.5-1.6h1.5c-0.4,1.8-2.1,3.1-4,2.9c-2.4,0.1-4.5-1.8-4.6-4.2
			C554.4,167.7,554.4,167.5,554.4,167.3z M561.5,166.3c-0.1-2-1.2-2.7-2.7-2.7c-1.5,0-2.7,1.2-2.8,2.7H561.5z"/>
		<path class="st0" d="M568.5,162.5h1.6l2.2,7.5l2.3-7.6h1.4l2,7.6l2.2-7.6h1.5l-2.9,9.6h-1.7l-2-7.1l-2.2,7.1h-1.6L568.5,162.5z"/>
		<path class="st0" d="M583.3,159.5c0-0.5,0.5-1,1-1c0.5,0,1,0.4,1,1c0,0.5-0.4,1-1,1C583.8,160.5,583.3,160.1,583.3,159.5z
			 M583.6,162.5h1.5v9.5h-1.5V162.5z"/>
		<path class="st0" d="M588.2,169.6v-5.8h-1.3v-1.3h1.3v-2.1h1.5v2.1h2.3v1.3h-2.2v5.7c0,0.9,0.4,1.4,1.2,1.4c0.4,0,0.8-0.1,1.1-0.2
			v1.3c-0.4,0.1-0.8,0.2-1.3,0.2c-1.2,0.2-2.4-0.6-2.6-1.9C588.2,170,588.2,169.8,588.2,169.6z"/>
		<path class="st0" d="M594,158h1.5v6c0.6-1.1,1.8-1.7,3-1.7c2,0,3.3,1.1,3.3,3.8v5.9h-1.5v-6c0-1.7-0.7-2.4-2.2-2.4
			c-1.4-0.1-2.5,0.9-2.6,2.3c0,0.1,0,0.2,0,0.3v5.8H594V158z"/>
		<path class="st0" d="M604.3,159.5c0-0.5,0.5-1,1-1c0.5,0,1,0.4,1,1c0,0.5-0.4,1-1,1C604.7,160.5,604.3,160.1,604.3,159.5z
			 M604.5,162.5h1.5v9.5h-1.5L604.5,162.5z"/>
		<path class="st0" d="M608.8,162.5h1.5v1.5c0.6-1.1,1.8-1.7,3-1.7c2,0,3.3,1.1,3.3,3.8v5.9h-1.5v-6c0-1.7-0.7-2.4-2.2-2.4
			c-1.4-0.1-2.5,0.9-2.6,2.3c0,0.1,0,0.2,0,0.2v5.8h-1.5V162.5z"/>
		<path class="st0" d="M623.8,162.5h1.5v1.5c0.6-1,1.7-1.6,2.8-1.6c1.2-0.1,2.3,0.6,2.7,1.8c0.7-1.1,1.9-1.8,3.2-1.8
			c1.7,0,3.2,1,3.2,3.7v5.9h-1.5v-6c0-1.7-0.7-2.3-2-2.3c-1.3,0-2.4,1-2.5,2.3c0,0.1,0,0.1,0,0.2v5.8h-1.5v-6c0-1.7-0.7-2.3-2-2.3
			c-1.3,0-2.4,1-2.5,2.3c0,0.1,0,0.1,0,0.2v5.8h-1.5V162.5z"/>
		<path class="st0" d="M639.7,159.5c0-0.5,0.5-1,1-1c0.5,0,1,0.4,1,1c0,0.5-0.4,1-1,1C640.1,160.5,639.7,160.1,639.7,159.5z
			 M640,162.5h1.5v9.5H640L640,162.5z"/>
		<path class="st0" d="M644.2,162.5h1.5v1.5c0.6-1.1,1.8-1.7,3-1.7c2,0,3.3,1.1,3.3,3.8v5.9h-1.5v-6c0-1.7-0.7-2.4-2.2-2.4
			c-1.4-0.1-2.5,0.9-2.6,2.3c0,0.1,0,0.2,0,0.3v5.8h-1.5L644.2,162.5z"/>
		<path class="st0" d="M654.6,168.5v-6h1.5v5.9c0,1.7,0.7,2.4,2.2,2.4c1.4,0.1,2.5-1,2.6-2.4c0-0.1,0-0.1,0-0.2v-5.7h1.5v9.5h-1.5
			v-1.5c-0.6,1-1.7,1.6-2.9,1.5C656,172,654.6,171,654.6,168.5z"/>
		<path class="st0" d="M665.5,169.6v-5.8h-1.4v-1.3h1.4v-2.1h1.5v2.1h2.2v1.3H667v5.7c0,0.9,0.4,1.4,1.2,1.4c0.4,0,0.8-0.1,1.2-0.2
			v1.3c-0.4,0.1-0.8,0.2-1.3,0.2c-1.3,0.1-2.4-0.7-2.5-2C665.5,169.9,665.5,169.7,665.5,169.6z"/>
		<path class="st0" d="M670.6,167.3v-0.1c-0.2-2.4,1.6-4.6,4-4.8c0.1,0,0.3,0,0.4,0c2.3-0.1,4.2,1.7,4.3,4c0,0.2,0,0.5,0,0.7v0.5
			h-7.1c0,2.1,1.1,3.3,3,3.3c1.5,0,2.3-0.5,2.5-1.6h1.5c-0.4,1.9-2.1,3.1-4,2.9c-2.4,0.1-4.5-1.8-4.6-4.3
			C670.6,167.6,670.6,167.5,670.6,167.3z M677.7,166.3c-0.1-2-1.1-2.7-2.7-2.7c-1.5,0-2.7,1.2-2.8,2.7H677.7z"/>
		<path class="st0" d="M680.5,169h1.5c0.1,1.1,0.7,1.8,2.2,1.8s2-0.5,2-1.5s-0.7-1.3-2.2-1.6c-2.5-0.5-3.3-1.1-3.3-2.8
			c0.1-1.6,1.6-2.8,3.2-2.6c0,0,0,0,0.1,0c1.6-0.2,3.2,0.9,3.4,2.6c0,0.1,0,0.1,0,0.2H686c-0.2-1-0.8-1.5-2-1.5s-1.8,0.5-1.8,1.3
			s0.5,1.2,2.2,1.5s3.3,0.8,3.3,2.8c0,1.7-1.2,2.9-3.5,2.9S680.6,170.9,680.5,169z"/>
		<path class="st0" d="M693.5,167.3v-0.1c-0.2-2.6,1.8-4.8,4.3-4.9c2.6-0.2,4.8,1.8,4.9,4.3c0,0.2,0,0.4,0,0.6v0.1
			c0.2,2.6-1.8,4.8-4.3,4.9c-2.6,0.2-4.8-1.8-4.9-4.3C693.5,167.7,693.5,167.5,693.5,167.3z M701.2,167.3v-0.1
			c0-2.2-1.2-3.6-3.1-3.6s-3.1,1.4-3.1,3.6v0.1c0,2.1,1.2,3.6,3.1,3.6c1.7,0,3.1-1.4,3.1-3.2C701.2,167.5,701.2,167.4,701.2,167.3
			L701.2,167.3z"/>
		<path class="st0" d="M705.1,163.8h-1.4v-1.3h1.4V161c0-2,0.9-3,2.8-3c0.4,0,0.8,0.1,1.1,0.2v1.3c-0.3-0.1-0.7-0.2-1.1-0.2
			c-1,0-1.4,0.7-1.4,1.6v1.7h2.3v1.3h-2.3v8.2h-1.5V163.8z"/>
		<path class="st0" d="M715.6,163.8h-1.4v-1.3h1.4V161c0-2,0.9-3,2.8-3c0.4,0,0.8,0.1,1.1,0.2v1.3c-0.3-0.1-0.7-0.2-1.1-0.2
			c-1,0-1.4,0.7-1.4,1.6v1.7h2.3v1.3h-2.3v8.2h-1.5V163.8z"/>
		<path class="st0" d="M721,159.5c0-0.5,0.4-1,1-1c0.5,0,1,0.4,1,1c0,0.5-0.5,1-1,1C721.4,160.5,721,160.1,721,159.5z M721.2,162.5
			h1.5v9.5h-1.5V162.5z"/>
		<path class="st0" d="M725.6,158h1.5v14h-1.5V158z"/>
		<path class="st0" d="M729.6,159.5c0-0.5,0.5-1,1-1c0.5,0,1,0.4,1,1c0,0.5-0.4,1-1,1C730.1,160.5,729.6,160.1,729.6,159.5z
			 M729.9,162.5h1.5v9.5H730L729.9,162.5z"/>
		<path class="st0" d="M734.2,162.5h1.5v1.5c0.6-1.1,1.8-1.7,3-1.7c2,0,3.3,1.1,3.3,3.8v5.9h-1.5v-6c0-1.7-0.7-2.4-2.2-2.4
			c-1.4-0.1-2.5,0.9-2.6,2.3c0,0.1,0,0.2,0,0.3v5.8h-1.5L734.2,162.5z"/>
		<path class="st0" d="M744.2,172.5h1.5c0.2,1.1,1.1,1.6,2.7,1.6c1.4,0.2,2.8-0.8,3-2.2c0-0.2,0-0.5,0-0.7v-1.4
			c-0.7,1.1-1.9,1.7-3.2,1.8c-2.3,0-4.3-1.9-4.3-4.2c0-0.1,0-0.2,0-0.2V167c-0.1-2.5,1.8-4.6,4.2-4.7c0,0,0.1,0,0.1,0
			c1.3-0.1,2.4,0.6,3.1,1.7v-1.5h1.5v8.8c0,2.2-1.8,4-4,4c-0.2,0-0.4,0-0.5,0C745.6,175.4,744.4,174,744.2,172.5z M751.5,167v-0.1
			c0.2-1.6-0.9-3.1-2.5-3.3c-0.2,0-0.3,0-0.5,0c-1.7,0-3,1.3-3,3c0,0.1,0,0.3,0,0.4v0.1c-0.2,1.6,1,3.1,2.7,3.3c0.1,0,0.2,0,0.2,0
			c1.7,0,3.1-1.3,3.1-2.9C751.5,167.3,751.5,167.2,751.5,167z"/>
		<path class="st0" d="M755.6,170.9c0-0.6,0.5-1.1,1.1-1.2c0,0,0,0,0,0c0.6-0.1,1.2,0.4,1.3,1c0.1,0.6-0.4,1.2-1,1.3
			c-0.1,0-0.2,0-0.3,0C756.1,172,755.6,171.5,755.6,170.9C755.6,170.9,755.6,170.9,755.6,170.9z"/>
		<path class="st0" d="M765.1,159h2l6.3,10.6V159h1.5v13h-1.8l-6.5-11v11h-1.5L765.1,159z"/>
		<path class="st0" d="M777.1,167.3v-0.1c-0.2-2.6,1.8-4.8,4.3-4.9c2.6-0.2,4.8,1.8,4.9,4.3c0,0.2,0,0.4,0,0.6v0.1
			c0.2,2.6-1.8,4.8-4.3,4.9c-2.6,0.2-4.8-1.8-4.9-4.3C777,167.7,777,167.5,777.1,167.3z M784.8,167.3v-0.1c0-2.2-1.2-3.6-3.1-3.6
			c-1.7,0-3.1,1.4-3.1,3.1c0,0.1,0,0.3,0,0.4v0.1c0,2.1,1.2,3.6,3.1,3.6S784.8,169.4,784.8,167.3z"/>
		<path class="st0" d="M788.7,169.6v-5.8h-1.3v-1.3h1.3v-2.1h1.5v2.1h2.2v1.3h-2.2v5.7c0,0.9,0.4,1.4,1.2,1.4c0.4,0,0.8-0.1,1.1-0.2
			v1.3c-0.4,0.1-0.8,0.2-1.3,0.2c-1.3,0.1-2.4-0.7-2.5-2C788.7,169.9,788.7,169.7,788.7,169.6z"/>
		<path class="st0" d="M801.6,170.9l-3.6-8.4h1.6l2.9,6.7l2.6-6.7h1.5l-5.2,12.7h-1.5L801.6,170.9z"/>
		<path class="st0" d="M807.3,167.3v-0.1c-0.2-2.6,1.8-4.8,4.3-4.9c2.6-0.2,4.8,1.8,4.9,4.3c0,0.2,0,0.4,0,0.6v0.1
			c0.2,2.6-1.8,4.8-4.3,4.9c-2.6,0.2-4.8-1.8-4.9-4.3C807.2,167.7,807.2,167.5,807.3,167.3z M815,167.3v-0.1c0-2.2-1.2-3.6-3.1-3.6
			s-3.1,1.4-3.1,3.6v0.1c0,2.1,1.2,3.6,3.1,3.6S815,169.4,815,167.3z"/>
		<path class="st0" d="M818.5,168.5v-6h1.5v5.9c0,1.7,0.7,2.4,2.2,2.4c1.4,0.1,2.5-1,2.6-2.4c0-0.1,0-0.2,0-0.2v-5.7h1.5v9.5h-1.5
			v-1.5c-0.6,1.1-1.8,1.7-3,1.7C819.9,172,818.5,171,818.5,168.5z"/>
		<path class="st0" d="M829,162.5h1.5v1.7c0.6-1.2,1.8-1.9,3.1-1.8v1.4c-2,0-3.1,0.7-3.1,3v5.3H829V162.5z"/>
		<path class="st0" d="M840.3,169.6v-5.8H839v-1.3h1.3v-2.1h1.5v2.1h2.2v1.3h-2.2v5.7c0,0.9,0.4,1.4,1.2,1.4c0.4,0,0.8-0.1,1.1-0.2
			v1.3c-0.4,0.1-0.8,0.2-1.3,0.2c-1.3,0.1-2.4-0.7-2.5-2C840.3,169.9,840.3,169.7,840.3,169.6z"/>
		<path class="st0" d="M845.4,169.3c0-2.2,2.3-2.9,4.7-2.9h1.3v-0.7c0-1.5-0.6-2.1-2-2.1s-2,0.5-2.2,1.7h-1.5
			c0.2-1.8,1.8-3.1,3.6-2.9c0,0,0.1,0,0.1,0c1.7-0.2,3.2,0.9,3.4,2.6c0,0.3,0,0.5,0,0.8v6.3h-1.5v-1.2c-0.7,0.9-1.8,1.4-2.9,1.4
			C846.8,172,845.4,171.2,845.4,169.3z M851.4,168.6v-1.2h-1.3c-2,0-3.3,0.5-3.3,1.9c0,1,0.5,1.6,1.8,1.6S851.5,170,851.4,168.6
			L851.4,168.6z"/>
		<path class="st0" d="M858,167.1l-3.1-4.6h1.7l2.3,3.5l2.3-3.4h1.6l-3.1,4.5l3.4,5h-1.8l-2.5-3.8l-2.6,3.8h-1.6L858,167.1z"/>
		<path class="st0" d="M869.4,162.5h1.5v1.7c0.6-1.2,1.8-1.9,3.1-1.8v1.4c-1.9,0-3.1,0.7-3.1,3v5.3h-1.5V162.5z"/>
		<path class="st0" d="M874.9,167.3v-0.1c-0.2-2.4,1.6-4.6,4-4.8c0.1,0,0.3,0,0.4,0c2.3-0.1,4.2,1.7,4.3,4c0,0.2,0,0.5,0,0.7v0.5
			h-7.1c0,2.1,1.1,3.3,3,3.3c1.5,0,2.3-0.5,2.5-1.6h1.5c-0.4,1.9-2.1,3.1-4,2.9c-2.5,0.1-4.5-1.8-4.6-4.3
			C874.9,167.6,874.9,167.5,874.9,167.3z M882,166.3c-0.1-2-1.2-2.7-2.7-2.7c-1.5,0-2.8,1.2-2.8,2.7H882z"/>
		<path class="st0" d="M885.9,163.8h-1.3v-1.3h1.3V161c0-2,0.9-3,2.8-3c0.4,0,0.7,0.1,1.1,0.2v1.3c-0.3-0.1-0.7-0.2-1.1-0.2
			c-1,0-1.4,0.7-1.4,1.6v1.7h2.3v1.3h-2.3v8.2h-1.5V163.8z"/>
		<path class="st0" d="M891.4,168.5v-6h1.5v5.9c0,1.7,0.7,2.4,2.2,2.4c1.4,0.1,2.5-1,2.6-2.4c0-0.1,0-0.2,0-0.2v-5.7h1.5v9.5h-1.5
			v-1.5c-0.6,1.1-1.8,1.7-3,1.7C892.8,172,891.4,171,891.4,168.5z"/>
		<path class="st0" d="M902,162.5h1.5v1.5c0.6-1.1,1.8-1.7,3-1.7c2,0,3.3,1.1,3.3,3.8v5.9h-1.5v-6c0-1.7-0.7-2.4-2.2-2.4
			c-1.4-0.1-2.5,0.9-2.6,2.3c0,0.1,0,0.2,0,0.3v5.8H902V162.5z"/>
		<path class="st0" d="M911.7,167.4v-0.2c-0.2-2.5,1.5-4.6,4-4.9c0.1,0,0.3,0,0.4,0c1.3-0.1,2.4,0.6,3.1,1.7v-6h1.5v14h-1.5v-1.6
			c-0.8,1-1.9,1.6-3.2,1.6c-2.3,0-4.2-1.8-4.3-4.1C911.7,167.7,911.7,167.6,911.7,167.4z M919.3,167.3v-0.1c0-2.4-1.2-3.5-3-3.5
			s-3,1.3-3,3.6v0.1c0,2.4,1.3,3.5,2.9,3.5S919.3,169.7,919.3,167.3z"/>
		<path class="st0" d="M923.3,170.9c0-0.6,0.5-1.2,1.1-1.2s1.2,0.5,1.2,1.1c0,0.6-0.5,1.2-1.1,1.2c0,0,0,0,0,0
			C923.9,172,923.3,171.5,923.3,170.9C923.3,170.9,923.3,170.9,923.3,170.9z"/>
		<rect class="st1" width="1456" height="180"/>
	</g>
</g>
</svg>
