<svg xmlns="http://www.w3.org/2000/svg" viewBox="0 0 153 35"><title>fin an office</title><g id="Layer_2" data-name="Layer 2"><g id="Find_an_office" data-name="Find an office"><g id="Rectangle_1" data-name="Rectangle 1"><rect width="153" height="35" fill="none"/></g><g id="Find_an_office-2" data-name="Find an office"><path d="M27.78,10.53h7.35v2H30.38v3h3.76v2H30.38V22h-2.6Z" fill="#262626"/><path d="M36.13,11.21a1.32,1.32,0,0,1,2.64,0,1.32,1.32,0,0,1-2.64,0Zm.18,2.4h2.3V22h-2.3Z" fill="#262626"/><path d="M40.5,13.61h2.32v1.33a2.88,2.88,0,0,1,2.72-1.52c1.65,0,2.82,1,2.82,3.23V22H46V17c0-1.14-.45-1.69-1.47-1.69a1.66,1.66,0,0,0-1.75,1.85V22H40.5Z" fill="#262626"/><path d="M49.6,17.91v-.12c0-2.76,1.59-4.37,3.69-4.37a2.79,2.79,0,0,1,2.64,1.44v-5h2.3V22h-2.3V20.59a3,3,0,0,1-2.69,1.57C51.21,22.16,49.6,20.7,49.6,17.91ZM56,17.83v-.12c0-1.67-.73-2.52-2-2.52s-2,.88-2,2.55v.13c0,1.66.8,2.48,2,2.48S56,19.53,56,17.83Z" fill="#262626"/><path d="M62.82,19.66c0-1.95,1.79-2.69,4.35-2.69h1v-.34c0-1-.31-1.53-1.36-1.53a1.27,1.27,0,0,0-1.43,1.18H63.14c.14-2,1.71-2.86,3.76-2.86s3.51.83,3.51,3.1V22H68.15V21a2.86,2.86,0,0,1-2.53,1.19C64.1,22.16,62.82,21.42,62.82,19.66Zm5.3-.61v-.7h-.9c-1.34,0-2.13.28-2.13,1.18,0,.61.37,1,1.22,1C67.33,20.54,68.12,20,68.12,19.05Z" fill="#262626"/><path d="M72.15,13.61h2.32v1.33a2.88,2.88,0,0,1,2.72-1.52c1.65,0,2.82,1,2.82,3.23V22H77.69V17c0-1.14-.45-1.69-1.48-1.69a1.66,1.66,0,0,0-1.74,1.85V22H72.15Z" fill="#262626"/><path d="M84.55,17.88v-.13a4.41,4.41,0,0,1,8.82,0v.12a4.41,4.41,0,0,1-8.82.05Zm6.46,0v-.11c0-1.6-.75-2.56-2-2.56s-2,.92-2,2.53v.12c0,1.6.73,2.56,2,2.56S91,19.43,91,17.85Z" fill="#262626"/><path d="M95.06,15.26H94V13.61h1.1v-.87a2.67,2.67,0,0,1,3-2.93,3.75,3.75,0,0,1,1.18.18v1.73a3,3,0,0,0-.83-.13c-.72,0-1,.45-1,1.11v.91h2.73v-1a2.68,2.68,0,0,1,3-2.93,3.92,3.92,0,0,1,1.2.16v1.74a2.6,2.6,0,0,0-.85-.14,1,1,0,0,0-1,1.1v1h1.82v1.65h-1.82V22H100.1V15.26H97.37V22H95.06Z" fill="#262626"/><path d="M105.3,11.21a1.32,1.32,0,1,1,1.31,1.26A1.27,1.27,0,0,1,105.3,11.21Zm.18,2.4h2.3V22h-2.3Z" fill="#262626"/><path d="M109.16,17.9v-.13a4.15,4.15,0,0,1,4.32-4.35c1.93,0,3.73.84,3.94,3.25h-2.2a1.54,1.54,0,0,0-1.69-1.43c-1.2,0-2,.9-2,2.5v.13c0,1.68.76,2.54,2,2.54a1.7,1.7,0,0,0,1.8-1.62h2.09c-.13,2-1.57,3.37-4,3.37A4,4,0,0,1,109.16,17.9Z" fill="#262626"/><path d="M118.16,17.9v-.13a4.16,4.16,0,0,1,4.31-4.35c2.16,0,4.08,1.26,4.08,4.25v.64h-6a2,2,0,0,0,2.08,2.2c1.07,0,1.6-.47,1.74-1.17h2.2c-.28,1.81-1.72,2.82-4,2.82A4.07,4.07,0,0,1,118.16,17.9Zm6.13-1c-.08-1.27-.72-1.87-1.82-1.87a1.92,1.92,0,0,0-1.92,1.87Z" fill="#262626"/></g></g></g></svg>