<svg xmlns="http://www.w3.org/2000/svg" viewBox="0 0 300 600"><title>cta</title><g id="Layer_2" data-name="Layer 2"><g id="cta"><rect id="CTA_BG" data-name="CTA BG" x="147.57" y="524.67" width="133" height="35" fill="#f5cc02"/><g id="Learn_More" data-name="Learn More"><path d="M169,535.36h2.64V545h4.75V547H169Z" fill="#262626"/><path d="M176.94,542.86v-.13a4.24,4.24,0,0,1,4.39-4.44c2.2,0,4.16,1.29,4.16,4.34v.66h-6.15a2,2,0,0,0,2.12,2.23c1.09,0,1.63-.47,1.77-1.19h2.24c-.28,1.84-1.75,2.87-4.08,2.87A4.13,4.13,0,0,1,176.94,542.86Zm6.25-1c-.09-1.28-.74-1.9-1.86-1.9a2,2,0,0,0-2,1.9Z" fill="#262626"/><path d="M186.31,544.66c0-2,1.83-2.74,4.44-2.74h1v-.35c0-1-.31-1.56-1.38-1.56a1.29,1.29,0,0,0-1.46,1.2h-2.23c.15-2,1.74-2.92,3.83-2.92s3.57.85,3.57,3.17V547h-2.3v-1a2.89,2.89,0,0,1-2.57,1.21C187.62,547.2,186.31,546.45,186.31,544.66Zm5.4-.62v-.72h-.91c-1.37,0-2.17.29-2.17,1.21,0,.62.37,1,1.24,1C190.91,545.55,191.71,545,191.71,544Z" fill="#262626"/><path d="M195.82,538.49h2.36v1.63a2.81,2.81,0,0,1,2.76-1.76v2.2c-1.74,0-2.76.56-2.76,2.19V547h-2.36Z" fill="#262626"/><path d="M202.24,538.49h2.37v1.35a3,3,0,0,1,2.77-1.55c1.68,0,2.87,1,2.87,3.3V547h-2.36v-5.09c0-1.16-.46-1.71-1.5-1.71a1.69,1.69,0,0,0-1.78,1.88V547h-2.37Z" fill="#262626"/><path d="M216.38,538.49h2.37v1.31a2.89,2.89,0,0,1,2.61-1.51,2.36,2.36,0,0,1,2.38,1.49,3.38,3.38,0,0,1,2.87-1.49c1.58,0,2.8,1,2.8,3.27V547h-2.34v-5.2c0-1.09-.49-1.58-1.34-1.58a1.58,1.58,0,0,0-1.65,1.74v5h-2.35v-5.2c0-1.09-.5-1.58-1.34-1.58a1.58,1.58,0,0,0-1.64,1.74v5h-2.37Z" fill="#262626"/><path d="M230.66,542.85v-.14a4.29,4.29,0,0,1,4.51-4.42,4.24,4.24,0,0,1,4.48,4.38v.13a4.5,4.5,0,0,1-9,.05Zm6.59,0v-.11c0-1.63-.76-2.61-2.08-2.61s-2.09.95-2.09,2.58v.13c0,1.63.75,2.61,2.09,2.61S237.25,544.43,237.25,542.81Z" fill="#262626"/><path d="M241,538.49h2.36v1.63a2.81,2.81,0,0,1,2.76-1.76v2.2c-1.75,0-2.76.56-2.76,2.19V547H241Z" fill="#262626"/><path d="M246.74,542.86v-.13a4.24,4.24,0,0,1,4.39-4.44c2.2,0,4.16,1.29,4.16,4.34v.66h-6.15a2,2,0,0,0,2.12,2.23c1.09,0,1.63-.47,1.78-1.19h2.23c-.27,1.84-1.74,2.87-4.07,2.87A4.14,4.14,0,0,1,246.74,542.86Zm6.25-1c-.08-1.28-.73-1.9-1.86-1.9a2,2,0,0,0-2,1.9Z" fill="#262626"/></g><rect width="300" height="600" fill="none"/></g></g></svg>