<svg xmlns="http://www.w3.org/2000/svg" viewBox="0 0 160 600"><title>H18 T3</title><g id="Layer_2" data-name="Layer 2"><g id="Rect"><rect width="160" height="600" fill="none"/></g><g id="H18_T3" data-name="H18 T3"><g id="Easily_the_easiest_way_to_do_your_own_taxes." data-name="Easily the easiest way to do your own taxes."><path d="M23.25,141.92H36.32v4.18H28.65v3.25h6.11v3.86H28.65v3.44h8.1v4.18H23.25Z" fill="#fff"/><path d="M37.83,157c0-3.25,2.75-4.52,7.35-4.52H46.5v-.31c0-1.33-.31-2.2-1.82-2.2a1.7,1.7,0,0,0-1.88,1.64H38.36c.21-3.33,2.83-5,6.61-5s6.24,1.56,6.24,5.23v9h-4.6v-1.61a4.56,4.56,0,0,1-4.1,1.93C40,161.15,37.83,159.93,37.83,157Zm8.67-1v-.85H45.26c-1.9,0-2.75.37-2.75,1.51,0,.79.53,1.3,1.64,1.3A2.08,2.08,0,0,0,46.5,156Z" fill="#fff"/><path d="M52.59,156.44H57c.16,1,.61,1.56,2,1.56,1.16,0,1.69-.45,1.69-1.14s-.66-1-2.56-1.24c-3.71-.48-5.27-1.56-5.27-4.44,0-3.07,2.73-4.55,5.93-4.55,3.41,0,5.79,1.16,6.11,4.47H60.52a1.54,1.54,0,0,0-1.77-1.38c-1,0-1.56.45-1.56,1.09s.64.92,2.33,1.13c3.84.48,5.69,1.48,5.69,4.45,0,3.28-2.44,4.76-6.27,4.76S52.69,159.51,52.59,156.44Z" fill="#fff"/><path d="M66.63,143.24a2.62,2.62,0,1,1,2.6,2.44A2.47,2.47,0,0,1,66.63,143.24Zm.24,3.76h4.74v13.83H66.87Z" fill="#fff"/><path d="M74.28,140.92H79v19.91H74.28Z" fill="#fff"/><path d="M85.87,159.43,80.34,147h5.13l2.86,7.38L91,147H95.5l-7.41,18.46H83.56Z" fill="#fff"/><path d="M102.16,156.39v-6.16h-1.67V147h1.67v-2.88h4.74V147h2.72v3.23H106.9v5.71a1.26,1.26,0,0,0,1.4,1.45,3.61,3.61,0,0,0,1.35-.24v3.6a9.89,9.89,0,0,1-2.62.4C103.91,161.15,102.16,159.64,102.16,156.39Z" fill="#fff"/><path d="M111.42,140.92h4.73v8.3a4.88,4.88,0,0,1,4.55-2.59c2.68,0,4.53,1.66,4.53,5.21v9h-4.74v-8c0-1.56-.61-2.33-2-2.33s-2.36.85-2.36,2.62v7.75h-4.73Z" fill="#fff"/><path d="M126.79,154.09v-.22c0-4.44,3.3-7.24,7.48-7.24,3.79,0,7,2.17,7,7.14V155h-9.73a2.75,2.75,0,0,0,2.88,2.88c1.56,0,2.22-.71,2.41-1.64h4.44c-.42,3.12-2.83,4.9-7,4.9C130,161.15,126.79,158.61,126.79,154.09Zm9.92-1.75c-.08-1.67-.9-2.59-2.44-2.59a2.63,2.63,0,0,0-2.64,2.59Z" fill="#fff"/><path d="M22.09,188v-.21c0-4.45,3.3-7.25,7.49-7.25,3.78,0,7,2.17,7,7.14v1.24H26.88a2.75,2.75,0,0,0,2.88,2.88c1.56,0,2.22-.71,2.41-1.63h4.44c-.42,3.12-2.83,4.89-7,4.89C25.26,195.05,22.09,192.51,22.09,188ZM32,186.24c-.08-1.66-.9-2.59-2.43-2.59a2.64,2.64,0,0,0-2.65,2.59Z" fill="#fff"/><path d="M37.59,190.9c0-3.26,2.75-4.53,7.35-4.53h1.33v-.31c0-1.33-.32-2.2-1.83-2.2a1.7,1.7,0,0,0-1.88,1.64H38.12c.21-3.33,2.83-5,6.61-5S51,182.09,51,185.77v9H46.37v-1.61a4.56,4.56,0,0,1-4.1,1.93C39.78,195.05,37.59,193.83,37.59,190.9Zm8.68-1V189H45c-1.9,0-2.75.38-2.75,1.51,0,.8.53,1.3,1.64,1.3A2.09,2.09,0,0,0,46.27,189.89Z" fill="#fff"/><path d="M52.35,190.34h4.36c.16,1,.61,1.56,2,1.56,1.17,0,1.7-.45,1.7-1.14s-.67-1-2.57-1.24c-3.7-.48-5.27-1.56-5.27-4.44,0-3.07,2.73-4.55,5.93-4.55,3.41,0,5.8,1.16,6.11,4.47H60.29a1.55,1.55,0,0,0-1.78-1.38c-1,0-1.56.45-1.56,1.09s.64.92,2.33,1.13c3.84.48,5.69,1.49,5.69,4.45,0,3.28-2.43,4.76-6.27,4.76S52.45,193.41,52.35,190.34Z" fill="#fff"/><path d="M66.4,177.15A2.47,2.47,0,0,1,69,174.69a2.45,2.45,0,1,1,0,4.89A2.45,2.45,0,0,1,66.4,177.15Zm.23,3.75h4.74v13.83H66.63Z" fill="#fff"/><path d="M73.17,188v-.21c0-4.45,3.3-7.25,7.48-7.25,3.79,0,7,2.17,7,7.14v1.24H78a2.75,2.75,0,0,0,2.88,2.88c1.56,0,2.22-.71,2.41-1.63h4.44c-.42,3.12-2.83,4.89-7,4.89C76.34,195.05,73.17,192.51,73.17,188Zm9.92-1.75c-.08-1.66-.9-2.59-2.44-2.59A2.64,2.64,0,0,0,78,186.24Z" fill="#fff"/><path d="M88.54,190.34H92.9c.16,1,.61,1.56,2,1.56,1.16,0,1.69-.45,1.69-1.14s-.66-1-2.56-1.24c-3.71-.48-5.27-1.56-5.27-4.44,0-3.07,2.73-4.55,5.93-4.55,3.41,0,5.79,1.16,6.11,4.47H96.47a1.54,1.54,0,0,0-1.77-1.38c-1,0-1.56.45-1.56,1.09s.63.92,2.33,1.13c3.83.48,5.69,1.49,5.69,4.45,0,3.28-2.44,4.76-6.28,4.76S88.64,193.41,88.54,190.34Z" fill="#fff"/><path d="M103.32,190.29v-6.16h-1.66V180.9h1.66V178h4.74v2.88h2.72v3.23h-2.72v5.71a1.26,1.26,0,0,0,1.4,1.45,3.57,3.57,0,0,0,1.35-.24v3.6a9.89,9.89,0,0,1-2.62.4C105.07,195.05,103.32,193.54,103.32,190.29Z" fill="#fff"/><path d="M21.66,214.8h4.95l2,8.28L31,214.8h3.81l2.06,8.28,2.25-8.28h4.5l-4.39,13.83H34.66l-2.07-7.72-2.14,7.72H25.84Z" fill="#fff"/><path d="M43.46,224.8c0-3.26,2.75-4.53,7.36-4.53h1.32V220c0-1.32-.32-2.2-1.83-2.2a1.69,1.69,0,0,0-1.87,1.64H44c.21-3.33,2.83-5,6.61-5s6.25,1.56,6.25,5.24v9h-4.6V227A4.57,4.57,0,0,1,48.14,229C45.66,229,43.46,227.73,43.46,224.8Zm8.68-1V223H50.9c-1.91,0-2.76.37-2.76,1.5,0,.8.53,1.3,1.64,1.3A2.09,2.09,0,0,0,52.14,223.79Z" fill="#fff"/><path d="M63,227.23,57.48,214.8h5.13l2.86,7.38,2.65-7.38h4.52l-7.41,18.46H60.71Z" fill="#fff"/><path d="M79.3,224.19V218H77.64V214.8H79.3v-2.88H84v2.88h2.73V218H84v5.71a1.26,1.26,0,0,0,1.4,1.45,3.78,3.78,0,0,0,1.35-.23v3.59a9.89,9.89,0,0,1-2.62.4C81.05,229,79.3,227.44,79.3,224.19Z" fill="#fff"/><path d="M87.82,221.89v-.21c0-4.45,3.31-7.25,7.6-7.25s7.54,2.72,7.54,7.11v.22c0,4.49-3.31,7.19-7.57,7.19S87.82,226.36,87.82,221.89Zm10.32-.08v-.21c0-2.33-.93-3.63-2.72-3.63s-2.76,1.25-2.76,3.57v.22c0,2.38.93,3.67,2.76,3.67S98.14,224.11,98.14,221.81Z" fill="#fff"/><path d="M108.75,221.86v-.21c0-4.71,2.59-7.22,5.87-7.22a4.49,4.49,0,0,1,4.26,2.33v-8h4.74v19.91h-4.74v-2.25a4.66,4.66,0,0,1-4.31,2.57C111.37,229,108.75,226.65,108.75,221.86Zm10.26-.08v-.21c0-2.33-1-3.57-2.72-3.57s-2.73,1.19-2.73,3.6v.21c0,2.33,1,3.52,2.67,3.52S119,224.14,119,221.78Z" fill="#fff"/><path d="M125.28,221.89v-.21c0-4.45,3.3-7.25,7.59-7.25s7.54,2.72,7.54,7.11v.22c0,4.49-3.31,7.19-7.57,7.19S125.28,226.36,125.28,221.89Zm10.32-.08v-.21c0-2.33-.93-3.63-2.73-3.63s-2.75,1.25-2.75,3.57v.22c0,2.38.93,3.67,2.75,3.67S135.6,224.11,135.6,221.81Z" fill="#fff"/><path d="M27.17,261.13,21.64,248.7h5.13l2.86,7.38,2.64-7.38H36.8l-7.41,18.46H24.87Z" fill="#fff"/><path d="M36.53,255.79v-.21c0-4.45,3.31-7.25,7.59-7.25s7.54,2.73,7.54,7.11v.22c0,4.49-3.3,7.19-7.56,7.19S36.53,260.26,36.53,255.79Zm10.32-.08v-.21c0-2.33-.93-3.62-2.73-3.62s-2.75,1.24-2.75,3.56v.22c0,2.38.93,3.67,2.75,3.67S46.85,258,46.85,255.71Z" fill="#fff"/><path d="M53.22,257.72v-9H58V257c0,1.56.61,2.33,2,2.33s2.35-.85,2.35-2.62v-8H67v13.83H62.27v-2.14a4.54,4.54,0,0,1-4.39,2.46C55.21,262.85,53.22,261.21,53.22,257.72Z" fill="#fff"/><path d="M69.41,248.7h4.74v2.75a4.35,4.35,0,0,1,4.47-2.93v4.41c-2.89-.08-4.47.82-4.47,3v6.56H69.41Z" fill="#fff"/><path d="M84.41,255.79v-.21c0-4.45,3.31-7.25,7.59-7.25s7.54,2.73,7.54,7.11v.22c0,4.49-3.3,7.19-7.56,7.19S84.41,260.26,84.41,255.79Zm10.32-.08v-.21c0-2.33-.93-3.62-2.73-3.62s-2.75,1.24-2.75,3.56v.22c0,2.38.93,3.67,2.75,3.67S94.73,258,94.73,255.71Z" fill="#fff"/><path d="M99.59,248.7h5l2,8.28,2.33-8.28h3.81l2.06,8.28L117,248.7h4.5l-4.39,13.83h-4.53l-2.06-7.72-2.14,7.72h-4.61Z" fill="#fff"/><path d="M122.71,248.7h4.74v2.22a4.9,4.9,0,0,1,4.55-2.59c2.67,0,4.52,1.67,4.52,5.21v9h-4.73v-8c0-1.56-.61-2.32-2-2.32s-2.35.84-2.35,2.61v7.75h-4.74Z" fill="#fff"/><path d="M23.46,292v-6.16H21.8V282.6h1.66v-2.88H28.2v2.88h2.72v3.23H28.2v5.71c0,1,.5,1.46,1.4,1.46a3.57,3.57,0,0,0,1.35-.24v3.59a9.89,9.89,0,0,1-2.62.4C25.21,296.75,23.46,295.24,23.46,292Z" fill="#fff"/><path d="M32,292.6c0-3.25,2.75-4.52,7.36-4.52h1.32v-.32c0-1.32-.32-2.2-1.83-2.2A1.71,1.71,0,0,0,37,287.2H32.51c.21-3.33,2.83-5,6.61-5s6.25,1.56,6.25,5.24v9H40.76v-1.61a4.54,4.54,0,0,1-4.1,1.93C34.18,296.75,32,295.53,32,292.6Zm8.68-1v-.84H39.42c-1.91,0-2.76.37-2.76,1.5,0,.8.53,1.3,1.64,1.3A2.09,2.09,0,0,0,40.66,291.59Z" fill="#fff"/><path d="M51.16,289.4l-4.31-6.8H52.3l2.14,3.65,2.09-3.65H61.4L57,289l4.79,7.4H56.37l-2.46-4.12-2.51,4.12H46.56Z" fill="#fff"/><path d="M61.21,289.69v-.21c0-4.44,3.31-7.25,7.49-7.25,3.78,0,7,2.17,7,7.14v1.25H66a2.76,2.76,0,0,0,2.88,2.88c1.56,0,2.23-.72,2.41-1.64h4.45c-.43,3.12-2.83,4.89-7,4.89S61.21,294.21,61.21,289.69Zm9.92-1.75c-.08-1.66-.9-2.59-2.43-2.59a2.64,2.64,0,0,0-2.65,2.59Z" fill="#fff"/><path d="M76.58,292H81c.15,1,.6,1.56,2,1.56,1.17,0,1.7-.45,1.7-1.13s-.67-1-2.57-1.25c-3.7-.47-5.27-1.56-5.27-4.44,0-3.07,2.73-4.55,5.93-4.55,3.41,0,5.8,1.17,6.11,4.47H84.52a1.55,1.55,0,0,0-1.78-1.37c-1,0-1.56.45-1.56,1.08s.64.93,2.33,1.14C87.35,288,89.2,289,89.2,292c0,3.28-2.43,4.76-6.27,4.76S76.69,295.11,76.58,292Z" fill="#fff"/><path d="M90.55,294.05a2.63,2.63,0,0,1,2.7-2.67,2.67,2.67,0,1,1,0,5.34A2.63,2.63,0,0,1,90.55,294.05Z" fill="#fff"/></g></g></g></svg>