<svg xmlns="http://www.w3.org/2000/svg" viewBox="0 0 728 90"><title>H45</title><g id="Layer_2" data-name="Layer 2"><g id="Rect"><rect width="728" height="90" fill="none"/></g><g id="H45"><g id="Totally_transparent_pricing." data-name="Totally transparent pricing."><path d="M127,35.64h-6.27V30.28h19.53v5.36H134V54.53h-7Z" fill="#fff"/><path d="M138.75,45.88v-.27c0-5.7,4.23-9.29,9.73-9.29s9.66,3.49,9.66,9.12v.27c0,5.76-4.24,9.22-9.7,9.22S138.75,51.61,138.75,45.88Zm13.22-.1v-.27c0-3-1.19-4.65-3.49-4.65S145,42.46,145,45.44v.27c0,3,1.19,4.71,3.53,4.71S152,48.73,152,45.78Z" fill="#fff"/><path d="M161.09,48.83v-7.9H159V36.79h2.14V33.1h6.07v3.69h3.49v4.14h-3.49v7.32c0,1.29.64,1.87,1.79,1.87a4.49,4.49,0,0,0,1.73-.31v4.61a12.43,12.43,0,0,1-3.35.51C163.32,54.93,161.09,53,161.09,48.83Z" fill="#fff"/><path d="M172,49.61c0-4.17,3.53-5.8,9.43-5.8h1.69v-.4c0-1.7-.4-2.82-2.34-2.82a2.17,2.17,0,0,0-2.4,2.1h-5.7c.27-4.27,3.63-6.37,8.48-6.37s8,2,8,6.71v11.5h-5.9V52.46c-.85,1.29-2.41,2.47-5.26,2.47C174.82,54.93,172,53.37,172,49.61Zm11.12-1.29V47.24h-1.59c-2.44,0-3.53.47-3.53,1.93,0,1,.68,1.66,2.11,1.66C181.83,50.83,183.12,49.85,183.12,48.32Z" fill="#fff"/><path d="M192.27,29h6V54.53h-6Z" fill="#fff"/><path d="M201.73,29h6V54.53h-6Z" fill="#fff"/><path d="M216.58,52.73l-7.09-15.94h6.58l3.66,9.46,3.39-9.46h5.8l-9.49,23.67h-5.8Z" fill="#fff"/><path d="M237.46,48.83v-7.9h-2.13V36.79h2.13V33.1h6.07v3.69H247v4.14h-3.49v7.32c0,1.29.64,1.87,1.8,1.87a4.52,4.52,0,0,0,1.73-.31v4.61a12.51,12.51,0,0,1-3.36.51C239.7,54.93,237.46,53,237.46,48.83Z" fill="#fff"/><path d="M249.33,36.79h6.07v3.53a5.57,5.57,0,0,1,5.73-3.76v5.66c-3.7-.1-5.73,1.05-5.73,3.9v8.41h-6.07Z" fill="#fff"/><path d="M261.9,49.61c0-4.17,3.53-5.8,9.43-5.8H273v-.4c0-1.7-.4-2.82-2.34-2.82a2.17,2.17,0,0,0-2.4,2.1h-5.7c.27-4.27,3.63-6.37,8.48-6.37s8,2,8,6.71v11.5h-5.9V52.46c-.85,1.29-2.41,2.47-5.26,2.47C264.72,54.93,261.9,53.37,261.9,49.61ZM273,48.32V47.24h-1.59c-2.44,0-3.53.47-3.53,1.93,0,1,.68,1.66,2.11,1.66C271.74,50.83,273,49.85,273,48.32Z" fill="#fff"/><path d="M282,36.79h6.06v2.85a6.27,6.27,0,0,1,5.84-3.32c3.42,0,5.79,2.14,5.79,6.68V54.53h-6.07V44.22c0-2-.78-3-2.54-3s-3,1.08-3,3.35v9.94H282Z" fill="#fff"/><path d="M301.46,48.9h5.6c.2,1.29.78,2,2.51,2,1.49,0,2.17-.58,2.17-1.46s-.85-1.25-3.29-1.59c-4.75-.61-6.75-2-6.75-5.7,0-3.93,3.49-5.83,7.6-5.83,4.37,0,7.42,1.49,7.83,5.73h-5.49a2,2,0,0,0-2.28-1.76c-1.32,0-2,.57-2,1.39s.82,1.18,3,1.45c4.91.61,7.29,1.9,7.29,5.7,0,4.2-3.12,6.1-8,6.1S301.6,52.83,301.46,48.9Z" fill="#fff"/><path d="M319.6,36.79h6.07v2.65a6.26,6.26,0,0,1,5.53-3.12c4.13,0,7.49,3.12,7.49,9.19v.27c0,6.1-3.36,9.15-7.53,9.15a5.84,5.84,0,0,1-5.49-3v8.54H319.6Zm12.92,9v-.27c0-3.12-1.36-4.61-3.49-4.61s-3.53,1.59-3.53,4.57v.28c0,3,1.32,4.54,3.53,4.54S332.52,48.69,332.52,45.78Z" fill="#fff"/><path d="M339.87,49.61c0-4.17,3.53-5.8,9.43-5.8H351v-.4c0-1.7-.4-2.82-2.34-2.82a2.17,2.17,0,0,0-2.4,2.1h-5.7c.27-4.27,3.63-6.37,8.48-6.37s8,2,8,6.71v11.5h-5.9V52.46c-.85,1.29-2.41,2.47-5.26,2.47C342.69,54.93,339.87,53.37,339.87,49.61ZM351,48.32V47.24H349.4c-2.44,0-3.53.47-3.53,1.93,0,1,.68,1.66,2.11,1.66C349.7,50.83,351,49.85,351,48.32Z" fill="#fff"/><path d="M360,36.79H366v3.53a5.59,5.59,0,0,1,5.73-3.76v5.66c-3.69-.1-5.73,1.05-5.73,3.9v8.41H360Z" fill="#fff"/><path d="M372.86,45.88v-.27c0-5.7,4.23-9.29,9.59-9.29,4.85,0,9,2.78,9,9.15v1.6H379c.17,2.34,1.53,3.69,3.7,3.69,2,0,2.85-.91,3.08-2.1h5.7c-.54,4-3.63,6.27-9,6.27C376.92,54.93,372.86,51.68,372.86,45.88Zm12.71-2.24c-.1-2.13-1.15-3.32-3.12-3.32s-3.08,1.19-3.39,3.32Z" fill="#fff"/><path d="M393.57,36.79h6.07v2.85a6.26,6.26,0,0,1,5.83-3.32c3.42,0,5.8,2.14,5.8,6.68V54.53H405.2V44.22c0-2-.78-3-2.54-3s-3,1.08-3,3.35v9.94h-6.07Z" fill="#fff"/><path d="M415,48.83v-7.9h-2.14V36.79H415V33.1h6.07v3.69h3.49v4.14H421.1v7.32c0,1.29.64,1.87,1.79,1.87a4.49,4.49,0,0,0,1.73-.31v4.61a12.43,12.43,0,0,1-3.35.51C417.27,54.93,415,53,415,48.83Z" fill="#fff"/><path d="M433.06,36.79h6.07v2.65a6.26,6.26,0,0,1,5.53-3.12c4.13,0,7.49,3.12,7.49,9.19v.27c0,6.1-3.36,9.15-7.53,9.15a5.85,5.85,0,0,1-5.49-3v8.54h-6.07Zm12.92,9v-.27c0-3.12-1.36-4.61-3.49-4.61S439,42.49,439,45.47v.28c0,3,1.32,4.54,3.53,4.54S446,48.69,446,45.78Z" fill="#fff"/><path d="M454.35,36.79h6.07v3.53a5.58,5.58,0,0,1,5.73-3.76v5.66c-3.7-.1-5.73,1.05-5.73,3.9v8.41h-6.07Z" fill="#fff"/><path d="M468.22,32a3.34,3.34,0,1,1,3.32,3.12A3.16,3.16,0,0,1,468.22,32Zm.3,4.81h6.07V54.53h-6.07Z" fill="#fff"/><path d="M476.89,45.88v-.27c0-5.9,4.24-9.29,9.46-9.29,4.34,0,8.34,1.9,8.68,7.29h-5.69C489.07,42,488.25,41,486.49,41c-2.14,0-3.39,1.53-3.39,4.51v.27c0,3.09,1.19,4.68,3.49,4.68a3,3,0,0,0,3.09-3h5.45C495,52,492,54.93,486.22,54.93,480.93,54.93,476.89,51.85,476.89,45.88Z" fill="#fff"/><path d="M497,32a3.35,3.35,0,1,1,3.33,3.12A3.17,3.17,0,0,1,497,32Zm.31,4.81h6.07V54.53h-6.07Z" fill="#fff"/><path d="M506.59,36.79h6.07v2.85a6.26,6.26,0,0,1,5.83-3.32c3.43,0,5.8,2.14,5.8,6.68V54.53h-6.07V44.22c0-2-.78-3-2.54-3s-3,1.08-3,3.35v9.94h-6.07Z" fill="#fff"/><path d="M526.25,54.53h6c.27,1.28,1.05,2.3,3.25,2.3,2.68,0,3.76-1.52,3.76-3.73V50.39a6.21,6.21,0,0,1-5.49,3.25c-4.13,0-7.52-3-7.52-8.51v-.27c0-5.22,3.35-8.54,7.52-8.54a5.76,5.76,0,0,1,5.49,3V36.79h6.07V53c0,5.29-3.49,8.07-9.83,8.07C529.51,61.1,526.73,58.56,526.25,54.53Zm13.22-9.43v-.24c0-2.44-1.25-4-3.49-4s-3.49,1.6-3.49,4v.27c0,2.44,1.29,4,3.46,4S539.47,47.61,539.47,45.1Z" fill="#fff"/><path d="M548.22,51.47a3.38,3.38,0,0,1,3.46-3.42,3.43,3.43,0,1,1,0,6.85A3.39,3.39,0,0,1,548.22,51.47Z" fill="#fff"/></g></g></g></svg>