<svg xmlns="http://www.w3.org/2000/svg" viewBox="0 0 300 250"><title>txt</title><g id="Layer_2" data-name="Layer 2"><g id="Artboard_1" data-name="Artboard 1" style="isolation:isolate"><g id="headline1"><g id="Get_unlimited_access_to_a_tax_pro_with_H_R_Block_Online." data-name="Get unlimited access to a tax pro with  H&amp;R Block Online."><path d="M21.8,53.57v-.21c0-5.64,4.15-9.45,9.72-9.45,4.38,0,8.26,2,8.63,6.81H34.89c-.26-1.73-1.38-2.64-3.35-2.64-2.61,0-4.19,2-4.19,5.36v.21c0,3,1.11,5.34,4.32,5.34,2.6,0,3.58-1.32,3.68-2.8H31.88V52.48h8.71v2.28c0,4.72-3.09,8.27-9.07,8.27C25.22,63,21.8,59.12,21.8,53.57Z" fill="#fff"/><path d="M41.64,56.11V55.9c0-4.35,3.24-7.1,7.34-7.1,3.7,0,6.89,2.13,6.89,7V57H46.33a2.7,2.7,0,0,0,2.83,2.82c1.53,0,2.17-.7,2.36-1.6h4.35C55.45,61.29,53.1,63,49,63S41.64,60.54,41.64,56.11Zm9.72-1.71c-.08-1.63-.88-2.54-2.38-2.54a2.58,2.58,0,0,0-2.59,2.54Z" fill="#fff"/><path d="M58.09,58.37v-6H56.46V49.17h1.63V46.34h4.64v2.83H65.4v3.16H62.73v5.59c0,1,.49,1.43,1.37,1.43a3.61,3.61,0,0,0,1.32-.23v3.52a9.44,9.44,0,0,1-2.56.39C59.8,63,58.09,61.55,58.09,58.37Z" fill="#fff"/><path d="M71.77,58V49.17h4.64v8.08c0,1.53.59,2.28,1.91,2.28s2.31-.83,2.31-2.56v-7.8h4.64V62.72H80.63v-2.1A4.46,4.46,0,0,1,76.33,63C73.71,63,71.77,61.42,71.77,58Z" fill="#fff"/><path d="M87.62,49.17h4.64v2.17a4.77,4.77,0,0,1,4.45-2.54c2.62,0,4.43,1.64,4.43,5.11v8.81H96.51V54.84c0-1.53-.6-2.28-2-2.28s-2.3.83-2.3,2.57v7.59H87.62Z" fill="#fff"/><path d="M103.52,43.21h4.62V62.72h-4.62Z" fill="#fff"/><path d="M110.52,45.49a2.56,2.56,0,1,1,2.54,2.38A2.42,2.42,0,0,1,110.52,45.49Zm.23,3.68h4.64V62.72h-4.64Z" fill="#fff"/><path d="M117.87,49.17h4.64v2.07a4.74,4.74,0,0,1,4.25-2.44,3.69,3.69,0,0,1,3.68,2.26,5.38,5.38,0,0,1,4.48-2.26c2.57,0,4.43,1.66,4.43,5.06v8.86h-4.64V54.63c0-1.37-.67-2-1.73-2a2,2,0,0,0-2.07,2.28v7.85h-4.59V54.63c0-1.37-.67-2-1.74-2a2,2,0,0,0-2.07,2.28v7.85h-4.64Z" fill="#fff"/><path d="M141.5,45.49A2.56,2.56,0,1,1,144,47.87,2.42,2.42,0,0,1,141.5,45.49Zm.23,3.68h4.64V62.72h-4.64Z" fill="#fff"/><path d="M149.48,58.37v-6h-1.64V49.17h1.64V46.34h4.63v2.83h2.67v3.16h-2.67v5.59a1.24,1.24,0,0,0,1.38,1.43,3.69,3.69,0,0,0,1.32-.23v3.52a9.59,9.59,0,0,1-2.57.39C151.18,63,149.48,61.55,149.48,58.37Z" fill="#fff"/><path d="M157.82,56.11V55.9c0-4.35,3.23-7.1,7.33-7.1,3.7,0,6.89,2.13,6.89,7V57H162.5a2.7,2.7,0,0,0,2.83,2.82c1.53,0,2.18-.7,2.36-1.6H172c-.41,3-2.77,4.79-6.87,4.79S157.82,60.54,157.82,56.11Zm9.71-1.71c-.08-1.63-.88-2.54-2.38-2.54a2.58,2.58,0,0,0-2.59,2.54Z" fill="#fff"/><path d="M173,56.09v-.21c0-4.61,2.54-7.08,5.75-7.08a4.4,4.4,0,0,1,4.17,2.28V43.21h4.64V62.72h-4.64v-2.2A4.56,4.56,0,0,1,178.67,63C175.53,63,173,60.77,173,56.09ZM183,56V55.8c0-2.28-1-3.5-2.67-3.5s-2.67,1.17-2.67,3.53V56c0,2.28,1,3.45,2.62,3.45S183,58.31,183,56Z" fill="#fff"/><path d="M193.82,59c0-3.19,2.69-4.43,7.2-4.43h1.3v-.31c0-1.3-.31-2.15-1.79-2.15a1.66,1.66,0,0,0-1.84,1.61h-4.35c.2-3.27,2.77-4.88,6.48-4.88s6.11,1.53,6.11,5.14v8.78h-4.51V61.14a4.46,4.46,0,0,1-4,1.89C196,63,193.82,61.84,193.82,59Zm8.5-1v-.83H201.1c-1.87,0-2.69.36-2.69,1.47,0,.78.51,1.27,1.6,1.27C201.33,59.89,202.32,59.14,202.32,58Z" fill="#fff"/><path d="M208.45,56.11V55.9c0-4.5,3.24-7.1,7.23-7.1,3.32,0,6.38,1.46,6.64,5.58H218a2,2,0,0,0-2.17-2c-1.64,0-2.59,1.16-2.59,3.44v.21c0,2.36.9,3.58,2.66,3.58a2.26,2.26,0,0,0,2.36-2.26h4.17C222.26,60.8,220,63,215.58,63,211.54,63,208.45,60.67,208.45,56.11Z" fill="#fff"/><path d="M223.17,56.11V55.9c0-4.5,3.24-7.1,7.22-7.1,3.32,0,6.38,1.46,6.64,5.58h-4.36a2,2,0,0,0-2.17-2c-1.63,0-2.59,1.16-2.59,3.44v.21c0,2.36.9,3.58,2.67,3.58a2.25,2.25,0,0,0,2.35-2.26h4.18C237,60.8,234.67,63,230.29,63,226.25,63,223.17,60.67,223.17,56.11Z" fill="#fff"/><path d="M237.88,56.11V55.9c0-4.35,3.24-7.1,7.33-7.1,3.71,0,6.89,2.13,6.89,7V57h-9.53a2.7,2.7,0,0,0,2.82,2.82c1.53,0,2.18-.7,2.36-1.6h4.35c-.41,3-2.77,4.79-6.86,4.79C241,63,237.88,60.54,237.88,56.11Zm9.71-1.71c-.07-1.63-.88-2.54-2.38-2.54a2.58,2.58,0,0,0-2.59,2.54Z" fill="#fff"/><path d="M252.93,58.42h4.27c.16,1,.6,1.53,1.92,1.53,1.14,0,1.66-.44,1.66-1.12s-.65-1-2.52-1.22c-3.62-.46-5.15-1.52-5.15-4.35,0-3,2.67-4.46,5.8-4.46,3.34,0,5.68,1.14,6,4.38h-4.2A1.51,1.51,0,0,0,259,51.84c-1,0-1.53.44-1.53,1.06s.63.91,2.28,1.11c3.76.47,5.58,1.45,5.58,4.36,0,3.21-2.39,4.66-6.15,4.66S253,61.42,252.93,58.42Z" fill="#fff"/><path d="M266,58.42h4.27c.16,1,.6,1.53,1.92,1.53,1.14,0,1.66-.44,1.66-1.12s-.65-1-2.52-1.22c-3.62-.46-5.15-1.52-5.15-4.35,0-3,2.67-4.46,5.8-4.46,3.34,0,5.68,1.14,6,4.38h-4.2A1.51,1.51,0,0,0,272,51.84c-1,0-1.53.44-1.53,1.06s.63.91,2.29,1.11c3.75.47,5.57,1.45,5.57,4.36,0,3.21-2.39,4.66-6.15,4.66S266.06,61.42,266,58.42Z" fill="#fff"/><path d="M23,89.37v-6H21.36V80.17H23V77.34h4.63v2.83H30.3v3.16H27.63v5.59A1.24,1.24,0,0,0,29,90.35a3.69,3.69,0,0,0,1.32-.23v3.52a9.59,9.59,0,0,1-2.57.39C24.71,94,23,92.55,23,89.37Z" fill="#fff"/><path d="M31.33,87.11V86.9c0-4.35,3.24-7.1,7.44-7.1s7.38,2.67,7.38,7V87c0,4.41-3.23,7-7.41,7S31.33,91.49,31.33,87.11ZM41.44,87v-.2c0-2.28-.91-3.55-2.67-3.55s-2.69,1.21-2.69,3.49V87c0,2.33.9,3.6,2.69,3.6S41.44,89.29,41.44,87Z" fill="#fff"/><path d="M51.72,90c0-3.19,2.69-4.43,7.2-4.43h1.3v-.31c0-1.3-.31-2.15-1.79-2.15a1.66,1.66,0,0,0-1.84,1.61H52.24c.21-3.27,2.77-4.88,6.48-4.88s6.11,1.53,6.11,5.14v8.78H60.32V92.14a4.46,4.46,0,0,1-4,1.89C53.87,94,51.72,92.84,51.72,90Zm8.5-1v-.83H59c-1.87,0-2.69.36-2.69,1.47,0,.78.51,1.27,1.6,1.27C59.23,90.89,60.22,90.14,60.22,89Z" fill="#fff"/><path d="M72.42,89.37v-6H70.78V80.17h1.64V77.34h4.63v2.83h2.67v3.16H77.05v5.59a1.24,1.24,0,0,0,1.38,1.43,3.69,3.69,0,0,0,1.32-.23v3.52a9.59,9.59,0,0,1-2.57.39C74.13,94,72.42,92.55,72.42,89.37Z" fill="#fff"/><path d="M80.76,90c0-3.19,2.69-4.43,7.2-4.43h1.29v-.31c0-1.3-.31-2.15-1.78-2.15a1.66,1.66,0,0,0-1.84,1.61H81.27c.21-3.27,2.78-4.88,6.48-4.88s6.12,1.53,6.12,5.14v8.78H89.36V92.14a4.47,4.47,0,0,1-4,1.89C82.91,94,80.76,92.84,80.76,90Zm8.49-1v-.83H88c-1.87,0-2.7.36-2.7,1.47,0,.78.52,1.27,1.61,1.27C88.27,90.89,89.25,90.14,89.25,89Z" fill="#fff"/><path d="M99.54,86.83l-4.23-6.66h5.34l2.1,3.57,2-3.57h4.77l-4.27,6.29L110,93.72h-5.34l-2.41-4-2.46,4H95Z" fill="#fff"/><path d="M116,80.17h4.64v2a4.78,4.78,0,0,1,4.22-2.39c3.16,0,5.73,2.39,5.73,7V87c0,4.67-2.57,7-5.75,7a4.46,4.46,0,0,1-4.2-2.31v6.53H116ZM125.85,87v-.2c0-2.39-1-3.53-2.66-3.53s-2.7,1.22-2.7,3.5V87c0,2.3,1,3.47,2.7,3.47S125.85,89.26,125.85,87Z" fill="#fff"/><path d="M132.25,80.17h4.64v2.69A4.26,4.26,0,0,1,141.27,80v4.32c-2.83-.07-4.38.81-4.38,3v6.43h-4.64Z" fill="#fff"/><path d="M142.09,87.11V86.9c0-4.35,3.24-7.1,7.44-7.1s7.38,2.67,7.38,7V87c0,4.41-3.24,7-7.41,7S142.09,91.49,142.09,87.11ZM152.2,87v-.2c0-2.28-.91-3.55-2.67-3.55s-2.7,1.21-2.7,3.49V87c0,2.33.91,3.6,2.7,3.6S152.2,89.29,152.2,87Z" fill="#fff"/><path d="M162.11,80.17H167l2,8.11,2.28-8.11h3.73l2,8.11,2.2-8.11h4.41l-4.3,13.55h-4.43l-2-7.57-2.09,7.57h-4.51Z" fill="#fff"/><path d="M184.65,76.49a2.56,2.56,0,1,1,2.54,2.38A2.42,2.42,0,0,1,184.65,76.49Zm.23,3.68h4.64V93.72h-4.64Z" fill="#fff"/><path d="M192.63,89.37v-6H191V80.17h1.63V77.34h4.64v2.83h2.66v3.16h-2.66v5.59c0,1,.49,1.43,1.37,1.43a3.61,3.61,0,0,0,1.32-.23v3.52a9.58,9.58,0,0,1-2.56.39C194.34,94,192.63,92.55,192.63,89.37Z" fill="#fff"/><path d="M201.69,74.21h4.64v8.13a4.79,4.79,0,0,1,4.46-2.54c2.61,0,4.43,1.64,4.43,5.11v8.81h-4.64V85.84c0-1.53-.6-2.28-1.94-2.28s-2.31.83-2.31,2.57v7.59h-4.64Z" fill="#fff"/><path d="M22.79,106.19h5.34v7.08h6.08v-7.08h5.32v18.53H34.21v-7.31H28.13v7.31H22.79Z" fill="#fff"/><path d="M57.29,120.94l3.09,3.78h-6l-1.09-1.35a7.38,7.38,0,0,1-5,1.66c-3.94,0-6.5-2.07-6.5-5.6,0-2.38,1.45-4.14,4.07-5.39a5.83,5.83,0,0,1-1.14-3.24c0-3.16,2.69-4.84,6-4.84,3,0,5.63,1.48,5.63,4.33,0,2-1.19,3.49-3.71,4.58l2.33,2.85,1.35-2.64h4Zm-6.42-.55-2.93-3.52a2.18,2.18,0,0,0-1.24,2,2.15,2.15,0,0,0,2.35,2.31A2.44,2.44,0,0,0,50.87,120.39Zm-.57-7.46c1.24-.6,1.84-1.3,1.84-2.25a1.34,1.34,0,0,0-1.38-1.43,1.47,1.47,0,0,0-1.52,1.61A3.38,3.38,0,0,0,50.3,112.93Z" fill="#fff"/><path d="M62.06,106.19h7.25c4.85,0,7.54,2,7.54,5.88v.11a4.84,4.84,0,0,1-3.34,4.87l4.43,7.67h-5.6l-3.75-6.63H67.34v6.63H62.06Zm7,8.45c1.79,0,2.67-.75,2.67-2.25v-.11c0-1.5-.93-2.1-2.64-2.1H67.34v4.46Z" fill="#fff"/><path d="M84.44,106.19H92.7c4.38,0,6.24,2,6.24,4.85v.1a3.81,3.81,0,0,1-3.13,4,4,4,0,0,1,3.7,4.33v.1c0,3.32-2.15,5.16-6.73,5.16H84.44Zm7.2,7.36c1.66,0,2.28-.57,2.28-1.89v-.1c0-1.27-.68-1.84-2.28-1.84h-2v3.83Zm.18,7.62c1.68,0,2.46-.78,2.46-2.15v-.11c0-1.39-.75-2.12-2.62-2.12h-2v4.38Z" fill="#fff"/><path d="M101.35,105.21H106v19.51h-4.61Z" fill="#fff"/><path d="M107.72,118.11v-.21c0-4.35,3.24-7.1,7.44-7.1s7.38,2.67,7.38,7V118c0,4.41-3.24,7-7.41,7S107.72,122.49,107.72,118.11Zm10.11-.08v-.2c0-2.28-.91-3.55-2.67-3.55s-2.7,1.21-2.7,3.49V118c0,2.33.91,3.6,2.7,3.6S117.83,120.29,117.83,118Z" fill="#fff"/><path d="M123.44,118.11v-.21c0-4.5,3.24-7.1,7.23-7.1,3.32,0,6.38,1.46,6.64,5.58H133a2,2,0,0,0-2.17-2c-1.64,0-2.59,1.16-2.59,3.44v.21c0,2.36.9,3.58,2.66,3.58a2.26,2.26,0,0,0,2.36-2.26h4.17c-.13,3.42-2.43,5.65-6.81,5.65C126.53,125,123.44,122.67,123.44,118.11Z" fill="#fff"/><path d="M138.88,105.21h4.64v11.32l3.65-5.36H152l-4.43,6.09,4.79,7.46h-5.18l-3.65-5.93v5.93h-4.64Z" fill="#fff"/><path d="M157.58,115.57v-.21c0-5.64,4.25-9.43,9.8-9.43s9.82,3.55,9.82,9.31v.2c0,5.7-3.92,9.59-9.9,9.59S157.58,121.14,157.58,115.57Zm14.07,0v-.21c0-3.29-1.66-5.23-4.27-5.23s-4.25,1.89-4.25,5.26v.21c0,3.36,1.71,5.31,4.27,5.31S171.65,118.84,171.65,115.52Z" fill="#fff"/><path d="M179,111.17h4.64v2.17a4.77,4.77,0,0,1,4.45-2.54c2.62,0,4.43,1.64,4.43,5.11v8.81h-4.63v-7.88c0-1.53-.6-2.28-2-2.28s-2.3.83-2.3,2.57v7.59H179Z" fill="#fff"/><path d="M194.88,105.21h4.61v19.51h-4.61Z" fill="#fff"/><path d="M201.88,107.49a2.56,2.56,0,1,1,2.54,2.38A2.42,2.42,0,0,1,201.88,107.49Zm.23,3.68h4.64v13.55h-4.64Z" fill="#fff"/><path d="M209.23,111.17h4.64v2.17a4.79,4.79,0,0,1,4.46-2.54c2.61,0,4.43,1.64,4.43,5.11v8.81h-4.64v-7.88c0-1.53-.6-2.28-1.94-2.28s-2.31.83-2.31,2.57v7.59h-4.64Z" fill="#fff"/><path d="M224.28,118.11v-.21c0-4.35,3.24-7.1,7.33-7.1,3.71,0,6.9,2.13,6.9,7V119H229a2.7,2.7,0,0,0,2.82,2.82c1.53,0,2.18-.7,2.36-1.6h4.36c-.42,3.05-2.78,4.79-6.87,4.79C227.39,125,224.28,122.54,224.28,118.11ZM234,116.4c-.08-1.63-.88-2.54-2.39-2.54A2.58,2.58,0,0,0,229,116.4Z" fill="#fff"/><path d="M239.8,122.39a2.58,2.58,0,0,1,2.64-2.62,2.62,2.62,0,1,1,0,5.23A2.58,2.58,0,0,1,239.8,122.39Z" fill="#fff"/></g><g id="rect"><rect width="300" height="250" fill="none"/></g></g></g></g></svg>