<svg xmlns="http://www.w3.org/2000/svg" viewBox="0 0 134 36"><title>file_today</title><g id="Layer_2" data-name="Layer 2"><g id="Rect"><rect width="134" height="36" fill="none"/></g><g id="File_today" data-name="File today"><path d="M35.11,12h6.43v1.78H37.38v2.65h3.29V18.1H37.38V22H35.11Z" fill="#262626"/><path d="M42.42,12.55a1.1,1.1,0,0,1,1.14-1.1,1.11,1.11,0,1,1-1.14,1.1Zm.15,2.1h2V22h-2Z" fill="#262626"/><path d="M46.29,11.33h2V22h-2Z" fill="#262626"/><path d="M49.5,18.41V18.3a3.63,3.63,0,0,1,3.77-3.81,3.37,3.37,0,0,1,3.57,3.72v.56H51.56c.06,1.22.71,1.92,1.82,1.92.94,0,1.4-.41,1.53-1h1.92c-.24,1.58-1.5,2.46-3.51,2.46A3.55,3.55,0,0,1,49.5,18.41Zm5.36-.89c-.07-1.1-.63-1.63-1.59-1.63a1.67,1.67,0,0,0-1.68,1.63Z" fill="#262626"/><path d="M61.16,19.81V16.1h-.94V14.65h.94V13.07h2v1.58h1.54V16.1H63.18v3.53c0,.58.29.87.81.87a1.86,1.86,0,0,0,.77-.15v1.57a3.59,3.59,0,0,1-1.23.2A2.09,2.09,0,0,1,61.16,19.81Z" fill="#262626"/><path d="M65.47,18.39v-.11a3.67,3.67,0,0,1,3.87-3.79,3.63,3.63,0,0,1,3.85,3.75v.11a3.86,3.86,0,0,1-7.72,0Zm5.66,0v-.1c0-1.4-.66-2.24-1.79-2.24s-1.79.81-1.79,2.21v.11c0,1.4.64,2.24,1.79,2.24S71.13,19.75,71.13,18.37Z" fill="#262626"/><path d="M73.9,18.42v-.11c0-2.41,1.39-3.82,3.22-3.82a2.41,2.41,0,0,1,2.31,1.26V11.33h2V22h-2V20.76a2.65,2.65,0,0,1-2.35,1.37C75.3,22.13,73.9,20.86,73.9,18.42Zm5.59-.07v-.11c0-1.46-.64-2.2-1.75-2.2S76,16.81,76,18.27v.11c0,1.46.7,2.17,1.71,2.17S79.49,19.84,79.49,18.35Z" fill="#262626"/><path d="M82.57,20c0-1.71,1.57-2.35,3.81-2.35h.82v-.3c0-.87-.26-1.34-1.19-1.34a1.09,1.09,0,0,0-1.24,1H82.85c.12-1.73,1.5-2.5,3.29-2.5s3.07.72,3.07,2.71V22h-2V21.1a2.48,2.48,0,0,1-2.21,1C83.69,22.13,82.57,21.49,82.57,20Zm4.63-.53V18.8h-.78c-1.18,0-1.86.25-1.86,1,0,.53.32.88,1.06.88C86.52,20.72,87.2,20.23,87.2,19.42Z" fill="#262626"/><path d="M92.7,21.24l-2.91-6.59H92l1.77,4.4,1.64-4.4h2l-4,9.82h-2Z" fill="#262626"/></g></g></svg>