<svg xmlns="http://www.w3.org/2000/svg" viewBox="0 0 300 600"><title>H02</title><g id="Layer_2" data-name="Layer 2"><g id="Claiming_EITC_Try_H_R_Block_Free_Online." data-name="Claiming EITC?  Try H&amp;R Block  Free Online."><path d="M27.11,85v-.28c0-7.62,5.4-12.64,12.64-12.64,6.44,0,10.91,3,11.5,9.52H43.94c-.27-2.52-1.66-3.91-4.15-3.91-3.19,0-5.2,2.49-5.2,7v.27c0,4.47,1.91,7,5.3,7a4.27,4.27,0,0,0,4.61-4.05h7.06c-.48,6.41-5.12,9.73-11.53,9.73C31.37,97.61,27.11,92.55,27.11,85Z" fill="#14aa40"/><path d="M53.78,71.11H60V97.2H53.78Z" fill="#14aa40"/><path d="M62.24,92.17c0-4.26,3.6-5.92,9.62-5.92H73.6v-.42c0-1.73-.42-2.87-2.39-2.87a2.22,2.22,0,0,0-2.46,2.15H62.93c.28-4.37,3.7-6.51,8.66-6.51s8.17,2,8.17,6.85V97.2h-6V95.08c-.87,1.32-2.46,2.53-5.37,2.53C65.11,97.61,62.24,96,62.24,92.17ZM73.6,90.86V89.75H72c-2.5,0-3.6.48-3.6,2,0,1,.69,1.7,2.14,1.7C72.28,93.42,73.6,92.42,73.6,90.86Z" fill="#14aa40"/><path d="M82.64,74.16A3.23,3.23,0,0,1,86,70.94a3.21,3.21,0,1,1,0,6.41A3.21,3.21,0,0,1,82.64,74.16ZM83,79.08h6.2V97.2H83Z" fill="#14aa40"/><path d="M92.48,79.08h6.2v2.77a6.33,6.33,0,0,1,5.68-3.25,4.93,4.93,0,0,1,4.92,3,7.18,7.18,0,0,1,6-3c3.43,0,5.92,2.21,5.92,6.75V97.2H115V86.39c0-1.84-.9-2.74-2.32-2.74-1.66,0-2.77,1.08-2.77,3V97.2h-6.13V86.39c0-1.84-.9-2.74-2.32-2.74-1.66,0-2.77,1.08-2.77,3V97.2h-6.2Z" fill="#14aa40"/><path d="M124.07,74.16a3.42,3.42,0,1,1,3.4,3.19A3.24,3.24,0,0,1,124.07,74.16Zm.31,4.92h6.2V97.2h-6.2Z" fill="#14aa40"/><path d="M133.91,79.08h6.2V82a6.4,6.4,0,0,1,6-3.39c3.5,0,5.92,2.18,5.92,6.82V97.2h-6.2V86.67c0-2-.79-3-2.6-3s-3.08,1.11-3.08,3.43V97.2h-6.2Z" fill="#14aa40"/><path d="M154,97.2h6.17c.28,1.31,1.07,2.35,3.32,2.35,2.74,0,3.85-1.56,3.85-3.81V93a6.36,6.36,0,0,1-5.61,3.32c-4.23,0-7.69-3.11-7.69-8.69v-.28c0-5.33,3.43-8.72,7.69-8.72a5.9,5.9,0,0,1,5.61,3V79.08h6.2V95.67c0,5.4-3.57,8.25-10,8.25C157.33,103.92,154.49,101.32,154,97.2Zm13.51-9.63v-.25c0-2.49-1.28-4.08-3.57-4.08s-3.56,1.62-3.56,4.12v.28c0,2.49,1.31,4.08,3.53,4.08S167.51,90.13,167.51,87.57Z" fill="#14aa40"/><path d="M183.55,72.43h17.11V77.9h-10v4.26h8v5.06h-8v4.5h10.6V97.2H183.55Z" fill="#14aa40"/><path d="M204.37,72.43h7.17V97.2h-7.17Z" fill="#14aa40"/><path d="M220.66,77.9h-6.41V72.43H234.2V77.9h-6.41V97.2h-7.13Z" fill="#14aa40"/><path d="M234.65,85v-.28c0-7.62,5.4-12.64,12.64-12.64,6.45,0,10.92,3,11.5,9.52h-7.3c-.28-2.52-1.67-3.91-4.16-3.91-3.19,0-5.2,2.49-5.2,7v.27c0,4.47,1.91,7,5.3,7A4.27,4.27,0,0,0,252,87.88h7.07c-.49,6.41-5.13,9.73-11.54,9.73C238.91,97.61,234.65,92.55,234.65,85Z" fill="#14aa40"/><path d="M265.27,88.4c0-2.63,1.81-4.3,3.4-5.82,1.18-1.14,2.25-2.18,2.25-3.4a1.84,1.84,0,0,0-2.11-2.07c-1.49,0-2.5,1.14-2.74,3h-6c.18-5.23,3.92-8.07,9.25-8.07s8.35,2.39,8.35,6.52a7,7,0,0,1-2.53,5.19c-1.7,1.7-3.67,3-4,4.75v.52h-5.86Zm-.79,5.75a3.71,3.71,0,0,1,7.41,0,3.72,3.72,0,0,1-7.41,0Z" fill="#14aa40"/><path d="M33.14,114.93H26.73v-5.47h20v5.47H40.27v19.3H33.14Z" fill="#14aa40"/><path d="M47.69,116.11h6.2v3.6a5.69,5.69,0,0,1,5.85-3.84v5.78c-3.78-.1-5.85,1.08-5.85,4v8.59h-6.2Z" fill="#14aa40"/><path d="M68,132.39l-7.24-16.28h6.72l3.74,9.67,3.47-9.67h5.92l-9.7,24.18H64.94Z" fill="#14aa40"/><path d="M89,109.46h7.14v9.46h8.14v-9.46h7.1v24.77h-7.1v-9.77H96.15v9.77H89Z" fill="#14aa40"/><path d="M135.15,129.17l4.13,5.06h-8.07l-1.46-1.8a9.89,9.89,0,0,1-6.68,2.21c-5.27,0-8.7-2.77-8.7-7.48,0-3.19,1.94-5.54,5.44-7.2a8,8,0,0,1-1.52-4.33c0-4.23,3.6-6.48,8-6.48,3.95,0,7.52,2,7.52,5.78,0,2.71-1.59,4.68-5,6.14l3.11,3.81,1.8-3.54h5.41Zm-8.59-.73-3.91-4.71A3,3,0,0,0,121,126.4a2.87,2.87,0,0,0,3.15,3.08A3.19,3.19,0,0,0,126.56,128.44Zm-.76-10c1.66-.8,2.46-1.73,2.46-3a1.78,1.78,0,0,0-1.83-1.9,2,2,0,0,0-2.05,2.15A4.59,4.59,0,0,0,125.8,118.47Z" fill="#14aa40"/><path d="M141.53,109.46h9.7c6.48,0,10.08,2.63,10.08,7.86v.14a6.46,6.46,0,0,1-4.47,6.51l5.92,10.26h-7.48l-5-8.87H148.6v8.87h-7.07Zm9.35,11.29c2.39,0,3.57-1,3.57-3v-.14c0-2-1.25-2.8-3.53-2.8H148.6v6Z" fill="#14aa40"/><path d="M171.46,109.46h11c5.85,0,8.35,2.63,8.35,6.48v.14a5.1,5.1,0,0,1-4.19,5.33c3,.52,5,2.36,5,5.79v.13c0,4.44-2.87,6.9-9,6.9H171.46Zm9.63,9.84c2.22,0,3-.76,3-2.53v-.14c0-1.7-.9-2.46-3-2.46h-2.7v5.13Zm.24,10.18c2.25,0,3.29-1,3.29-2.87v-.14c0-1.87-1-2.84-3.5-2.84h-2.73v5.85Z" fill="#14aa40"/><path d="M194.08,108.15h6.17v26.08h-6.17Z" fill="#14aa40"/><path d="M202.6,125.4v-.28c0-5.82,4.33-9.49,9.94-9.49s9.88,3.56,9.88,9.31v.28c0,5.89-4.33,9.42-9.91,9.42S202.6,131.25,202.6,125.4Zm13.51-.11V125c0-3-1.21-4.74-3.57-4.74s-3.6,1.63-3.6,4.67v.28c0,3.12,1.22,4.82,3.6,4.82S216.11,128.3,216.11,125.29Z" fill="#14aa40"/><path d="M223.63,125.4v-.28c0-6,4.33-9.49,9.67-9.49,4.43,0,8.52,1.94,8.86,7.44h-5.82c-.27-1.69-1.1-2.63-2.91-2.63-2.18,0-3.46,1.56-3.46,4.61v.28c0,3.15,1.21,4.78,3.57,4.78a3,3,0,0,0,3.15-3h5.58c-.18,4.57-3.26,7.55-9.11,7.55C227.75,134.64,223.63,131.49,223.63,125.4Z" fill="#14aa40"/><path d="M244.28,108.15h6.2v15.13l4.88-7.17h6.45l-5.93,8.14,6.41,10h-6.93l-4.88-7.93v7.93h-6.2Z" fill="#14aa40"/><path d="M28.39,146.49H45.12V152H35.53v5.27h7.65v5.23H35.53v8.76H28.39Z" fill="#14aa40"/><path d="M46.79,153.14H53v3.61a5.7,5.7,0,0,1,5.85-3.85v5.79c-3.78-.11-5.85,1.07-5.85,4v8.59h-6.2Z" fill="#14aa40"/><path d="M60,162.43v-.28c0-5.82,4.33-9.49,9.8-9.49,5,0,9.22,2.84,9.22,9.35v1.63H66.22c.17,2.39,1.56,3.77,3.77,3.77,2.05,0,2.91-.93,3.16-2.14H79c-.56,4.08-3.71,6.4-9.18,6.4C64.11,171.67,60,168.35,60,162.43Zm13-2.29c-.11-2.18-1.18-3.39-3.19-3.39s-3.15,1.21-3.46,3.39Z" fill="#14aa40"/><path d="M80.15,162.43v-.28c0-5.82,4.33-9.49,9.8-9.49,5,0,9.21,2.84,9.21,9.35v1.63H86.42c.17,2.39,1.55,3.77,3.77,3.77,2,0,2.91-.93,3.15-2.14h5.82c-.55,4.08-3.7,6.4-9.18,6.4C84.3,171.67,80.15,168.35,80.15,162.43Zm13-2.29C93,158,92,156.75,90,156.75s-3.15,1.21-3.47,3.39Z" fill="#14aa40"/><path d="M106.86,159v-.27c0-7.56,5.68-12.61,13.09-12.61s13.13,4.74,13.13,12.43v.28c0,7.62-5.23,12.81-13.24,12.81S106.86,166.48,106.86,159Zm18.8-.07v-.27c0-4.4-2.21-7-5.71-7s-5.68,2.53-5.68,7V159c0,4.5,2.28,7.1,5.71,7.1S125.66,163.4,125.66,159Z" fill="#14aa40"/><path d="M135.47,153.14h6.2v2.91a6.39,6.39,0,0,1,6-3.39c3.5,0,5.92,2.18,5.92,6.82v11.78h-6.2V160.73c0-2-.8-3-2.6-3s-3.08,1.11-3.08,3.43v10.15h-6.2Z" fill="#14aa40"/><path d="M156.74,145.18h6.17v26.08h-6.17Z" fill="#14aa40"/><path d="M166.09,148.23a3.42,3.42,0,1,1,3.4,3.18A3.21,3.21,0,0,1,166.09,148.23Zm.32,4.91h6.2v18.12h-6.2Z" fill="#14aa40"/><path d="M175.93,153.14h6.2v2.91a6.4,6.4,0,0,1,6-3.39c3.5,0,5.92,2.18,5.92,6.82v11.78h-6.2V160.73c0-2-.79-3-2.6-3s-3.08,1.11-3.08,3.43v10.15h-6.2Z" fill="#14aa40"/><path d="M196.06,162.43v-.28c0-5.82,4.33-9.49,9.8-9.49,5,0,9.22,2.84,9.22,9.35v1.63H202.33c.17,2.39,1.56,3.77,3.78,3.77,2,0,2.9-.93,3.15-2.14h5.82c-.56,4.08-3.71,6.4-9.18,6.4C200.22,171.67,196.06,168.35,196.06,162.43Zm13-2.29c-.1-2.18-1.18-3.39-3.19-3.39s-3.15,1.21-3.46,3.39Z" fill="#14aa40"/><path d="M216.81,168.14a3.45,3.45,0,0,1,3.53-3.5,3.5,3.5,0,1,1,0,7A3.45,3.45,0,0,1,216.81,168.14Z" fill="#14aa40"/></g><g id="Rect"><rect width="300" height="600" fill="none"/></g></g></svg>