<svg xmlns="http://www.w3.org/2000/svg" viewBox="0 0 728 90"><title>H191</title><g id="Layer_2" data-name="Layer 2"><g id="Rect"><rect width="728" height="90" fill="none"/></g><g id="We_re_here_to_help._Drop_off_your_docs_with_a_tax_pro_now." data-name="We’re here to help. Drop off  your docs with a tax pro now."><path d="M116.76,17.62H123l2.79,13.52,2.91-13.52h5.52l3.16,13.64,2.94-13.64h5.76L141,39.3h-6.48l-3.34-13.77L127.85,39.3h-6.06Z" fill="#fff"/><path d="M145.41,31.56v-.24c0-5.09,3.79-8.3,8.58-8.3,4.34,0,8.07,2.48,8.07,8.18v1.43H150.9c.15,2.09,1.37,3.3,3.31,3.3,1.79,0,2.54-.82,2.76-1.88h5.09c-.49,3.58-3.25,5.61-8,5.61C149.05,39.66,145.41,36.75,145.41,31.56Zm11.37-2c-.09-1.91-1-3-2.79-3s-2.76,1.06-3,3Z" fill="#fff"/><path d="M162.61,25.14,165,17.22l4.79,1.61-4.15,7.49Z" fill="#fff"/><path d="M170,23.44h5.42v3.15a5,5,0,0,1,5.13-3.36v5.06c-3.31-.09-5.13.94-5.13,3.49V39.3H170Z" fill="#fff"/><path d="M181.53,31.56v-.24c0-5.09,3.79-8.3,8.58-8.3,4.34,0,8.07,2.48,8.07,8.18v1.43H187c.15,2.09,1.36,3.3,3.3,3.3s2.55-.82,2.76-1.88h5.1c-.49,3.58-3.25,5.61-8,5.61C185.17,39.66,181.53,36.75,181.53,31.56Zm11.37-2c-.09-1.91-1-3-2.79-3s-2.76,1.06-3,3Z" fill="#fff"/><path d="M205.58,16.47H211V26a5.6,5.6,0,0,1,5.22-3c3.06,0,5.18,1.91,5.18,6V39.3H216V30.08c0-1.79-.7-2.67-2.28-2.67s-2.7,1-2.7,3V39.3h-5.42Z" fill="#fff"/><path d="M223.2,31.56v-.24c0-5.09,3.79-8.3,8.58-8.3,4.33,0,8.06,2.48,8.06,8.18v1.43H228.68c.15,2.09,1.37,3.3,3.31,3.3,1.79,0,2.54-.82,2.76-1.88h5.09c-.48,3.58-3.24,5.61-8,5.61C226.83,39.66,223.2,36.75,223.2,31.56Zm11.37-2c-.1-1.91-1-3-2.79-3s-2.76,1.06-3,3Z" fill="#fff"/><path d="M241.72,23.44h5.43v3.15a5,5,0,0,1,5.12-3.36v5.06c-3.3-.09-5.12.94-5.12,3.49V39.3h-5.43Z" fill="#fff"/><path d="M253.25,31.56v-.24c0-5.09,3.79-8.3,8.58-8.3,4.33,0,8.06,2.48,8.06,8.18v1.43H258.73c.16,2.09,1.37,3.3,3.31,3.3,1.79,0,2.55-.82,2.76-1.88h5.09c-.48,3.58-3.24,5.61-8,5.61C256.89,39.66,253.25,36.75,253.25,31.56Zm11.37-2c-.09-1.91-1-3-2.79-3s-2.76,1.06-3,3Z" fill="#fff"/><path d="M278,34.2V27.14h-1.91v-3.7H278V20.13h5.43v3.31h3.12v3.7h-3.12v6.55a1.44,1.44,0,0,0,1.61,1.66,4.15,4.15,0,0,0,1.54-.27v4.13a11.53,11.53,0,0,1-3,.45C280,39.66,278,37.93,278,34.2Z" fill="#fff"/><path d="M287.79,31.56v-.24c0-5.09,3.79-8.3,8.7-8.3s8.64,3.12,8.64,8.15v.24c0,5.16-3.79,8.25-8.67,8.25S287.79,36.69,287.79,31.56Zm11.82-.09v-.24c0-2.67-1.06-4.15-3.12-4.15s-3.16,1.42-3.16,4.09v.24c0,2.73,1.07,4.22,3.16,4.22S299.61,34.11,299.61,31.47Z" fill="#fff"/><path d="M312.56,16.47H318V26a5.58,5.58,0,0,1,5.21-3c3.06,0,5.19,1.91,5.19,6V39.3H323V30.08c0-1.79-.7-2.67-2.27-2.67s-2.7,1-2.7,3V39.3h-5.43Z" fill="#fff"/><path d="M330.18,31.56v-.24c0-5.09,3.79-8.3,8.58-8.3,4.33,0,8.06,2.48,8.06,8.18v1.43H335.67c.15,2.09,1.36,3.3,3.3,3.3,1.79,0,2.55-.82,2.76-1.88h5.09c-.48,3.58-3.24,5.61-8,5.61C333.82,39.66,330.18,36.75,330.18,31.56Zm11.37-2c-.09-1.91-1-3-2.79-3s-2.76,1.06-3,3Z" fill="#fff"/><path d="M348.86,16.47h5.4V39.3h-5.4Z" fill="#fff"/><path d="M357.17,23.44h5.42V25.8a5.61,5.61,0,0,1,5-2.78c3.7,0,6.7,2.78,6.7,8.21v.24c0,5.46-3,8.19-6.73,8.19a5.24,5.24,0,0,1-4.92-2.7V44.6h-5.42Zm11.55,8v-.24c0-2.79-1.21-4.12-3.12-4.12s-3.16,1.42-3.16,4.09v.24c0,2.7,1.19,4.07,3.16,4.07S368.72,34.08,368.72,31.47Z" fill="#fff"/><path d="M375.6,36.57a3,3,0,0,1,3.1-3.06,3.06,3.06,0,1,1,0,6.12A3,3,0,0,1,375.6,36.57Z" fill="#fff"/><path d="M390.43,17.62h7.88c7.71,0,11.62,3.85,11.62,10.58v.24c0,6.76-4,10.86-11.65,10.86h-7.85Zm7.67,16.89c3.7,0,5.34-1.94,5.34-6v-.24c0-4.12-1.64-5.88-5.4-5.88h-1.36v12.1Z" fill="#fff"/><path d="M412,23.44h5.43v3.15a5,5,0,0,1,5.13-3.36v5.06c-3.31-.09-5.13.94-5.13,3.49V39.3H412Z" fill="#fff"/><path d="M423.55,31.56v-.24c0-5.09,3.79-8.3,8.7-8.3s8.64,3.12,8.64,8.15v.24c0,5.16-3.79,8.25-8.67,8.25S423.55,36.69,423.55,31.56Zm11.82-.09v-.24c0-2.67-1.06-4.15-3.12-4.15s-3.15,1.42-3.15,4.09v.24c0,2.73,1.06,4.22,3.15,4.22S435.37,34.11,435.37,31.47Z" fill="#fff"/><path d="M442.8,23.44h5.43V25.8A5.6,5.6,0,0,1,453.17,23c3.7,0,6.7,2.78,6.7,8.21v.24c0,5.46-3,8.19-6.73,8.19a5.23,5.23,0,0,1-4.91-2.7V44.6H442.8Zm11.55,8v-.24c0-2.79-1.21-4.12-3.12-4.12s-3.15,1.42-3.15,4.09v.24c0,2.7,1.18,4.07,3.15,4.07S454.35,34.08,454.35,31.47Z" fill="#fff"/><path d="M466.51,31.56v-.24c0-5.09,3.79-8.3,8.71-8.3s8.64,3.12,8.64,8.15v.24c0,5.16-3.79,8.25-8.67,8.25S466.51,36.69,466.51,31.56Zm11.83-.09v-.24c0-2.67-1.06-4.15-3.12-4.15s-3.16,1.42-3.16,4.09v.24c0,2.73,1.06,4.22,3.16,4.22S478.34,34.11,478.34,31.47Z" fill="#fff"/><path d="M486.59,27.14h-2v-3.7h2V22.23c0-3.94,2.43-5.79,6.18-5.79a9.2,9.2,0,0,1,2.43.3v4a4.79,4.79,0,0,0-1.45-.21A1.59,1.59,0,0,0,492,22.23v1.21h4.6V22c0-3.94,2.49-5.82,6.22-5.82a9.79,9.79,0,0,1,2.49.34v4a5.08,5.08,0,0,0-1.49-.21A1.58,1.58,0,0,0,502,22v1.4h3.22v3.7H502V39.3h-5.43V27.14H492V39.3h-5.4Z" fill="#fff"/><path d="M122.91,70.18l-6.33-14.25h5.88l3.27,8.46,3-8.46H134l-8.49,21.16h-5.19Z" fill="#fff"/><path d="M133.65,64.06v-.25c0-5.09,3.79-8.3,8.7-8.3S151,58.63,151,63.66v.24c0,5.16-3.79,8.25-8.67,8.25S133.65,69.18,133.65,64.06Zm11.82-.1v-.24c0-2.67-1.06-4.15-3.12-4.15S139.2,61,139.2,63.66v.24c0,2.73,1.06,4.22,3.15,4.22S145.47,66.6,145.47,64Z" fill="#fff"/><path d="M152.78,66.27V55.93h5.43v9.46c0,1.79.7,2.67,2.24,2.67s2.7-1,2.7-3V55.93h5.43V71.79h-5.43V69.33a5.2,5.2,0,0,1-5,2.82C155.06,72.15,152.78,70.27,152.78,66.27Z" fill="#fff"/><path d="M171.34,55.93h5.43v3.15a5,5,0,0,1,5.12-3.36v5.06c-3.3-.09-5.12.94-5.12,3.49v7.52h-5.43Z" fill="#fff"/><path d="M188.6,64v-.25c0-5.39,3-8.27,6.73-8.27a5.15,5.15,0,0,1,4.88,2.66V49h5.42V71.79h-5.42V69.21a5.34,5.34,0,0,1-4.94,2.94C191.6,72.15,188.6,69.51,188.6,64Zm11.76-.1v-.24c0-2.67-1.12-4.09-3.12-4.09s-3.13,1.36-3.13,4.12V64c0,2.67,1.19,4,3.07,4S200.36,66.63,200.36,63.93Z" fill="#fff"/><path d="M207.55,64.06v-.25c0-5.09,3.79-8.3,8.7-8.3s8.64,3.12,8.64,8.15v.24c0,5.16-3.79,8.25-8.67,8.25S207.55,69.18,207.55,64.06Zm11.82-.1v-.24c0-2.67-1.06-4.15-3.12-4.15S213.1,61,213.1,63.66v.24c0,2.73,1.06,4.22,3.15,4.22S219.37,66.6,219.37,64Z" fill="#fff"/><path d="M226,64.06v-.25c0-5.27,3.79-8.3,8.46-8.3,3.88,0,7.46,1.69,7.77,6.51h-5.1a2.34,2.34,0,0,0-2.54-2.3c-1.91,0-3,1.36-3,4V64c0,2.75,1.06,4.18,3.13,4.18a2.65,2.65,0,0,0,2.76-2.64h4.88c-.16,4-2.85,6.61-8,6.61C229.56,72.15,226,69.39,226,64.06Z" fill="#fff"/><path d="M243.18,66.75h5c.18,1.16.7,1.79,2.24,1.79,1.34,0,1.94-.51,1.94-1.3s-.75-1.12-2.94-1.43c-4.24-.54-6-1.78-6-5.09,0-3.52,3.12-5.21,6.79-5.21,3.91,0,6.64,1.33,7,5.12h-4.92a1.77,1.77,0,0,0-2-1.58c-1.18,0-1.79.52-1.79,1.25s.73,1.06,2.67,1.3c4.4.55,6.52,1.7,6.52,5.09,0,3.76-2.79,5.46-7.19,5.46S243.3,70.27,243.18,66.75Z" fill="#fff"/><path d="M263.59,55.93h5.67l2.3,9.49,2.67-9.49h4.36L281,65.42l2.58-9.49h5.15l-5,15.86h-5.19l-2.36-8.86-2.46,8.86h-5.27Z" fill="#fff"/><path d="M290,51.63a3,3,0,1,1,3,2.78A2.8,2.8,0,0,1,290,51.63Zm.27,4.3h5.43V71.79h-5.43Z" fill="#fff"/><path d="M299.31,66.69V59.63H297.4v-3.7h1.91v-3.3h5.42v3.3h3.13v3.7h-3.13v6.55a1.45,1.45,0,0,0,1.61,1.67,4.2,4.2,0,0,0,1.55-.28V71.7a11.53,11.53,0,0,1-3,.45C301.31,72.15,299.31,70.42,299.31,66.69Z" fill="#fff"/><path d="M309.92,49h5.43v9.52a5.59,5.59,0,0,1,5.21-3c3.07,0,5.19,1.91,5.19,6V71.79h-5.43V62.57c0-1.79-.7-2.67-2.27-2.67s-2.7,1-2.7,3v8.89h-5.43Z" fill="#fff"/><path d="M333,67.39c0-3.73,3.15-5.18,8.43-5.18h1.51v-.37c0-1.51-.36-2.51-2.09-2.51a1.94,1.94,0,0,0-2.15,1.88h-5.1c.25-3.82,3.25-5.7,7.58-5.7s7.16,1.78,7.16,6V71.79h-5.28V69.94a5.2,5.2,0,0,1-4.7,2.21C335.51,72.15,333,70.76,333,67.39Zm9.94-1.15v-1h-1.42c-2.19,0-3.16.42-3.16,1.73,0,.91.61,1.48,1.88,1.48C341.79,68.48,342.94,67.6,342.94,66.24Z" fill="#fff"/><path d="M357.23,66.69V59.63h-1.91v-3.7h1.91v-3.3h5.42v3.3h3.13v3.7h-3.13v6.55a1.45,1.45,0,0,0,1.61,1.67,4.2,4.2,0,0,0,1.55-.28V71.7a11.54,11.54,0,0,1-3,.45C359.23,72.15,357.23,70.42,357.23,66.69Z" fill="#fff"/><path d="M367,67.39c0-3.73,3.15-5.18,8.43-5.18h1.52v-.37c0-1.51-.37-2.51-2.1-2.51a2,2,0,0,0-2.15,1.88H367.6c.24-3.82,3.24-5.7,7.58-5.7s7.15,1.78,7.15,6V71.79h-5.27V69.94a5.22,5.22,0,0,1-4.7,2.21C369.51,72.15,367,70.76,367,67.39Zm9.95-1.15v-1h-1.43c-2.18,0-3.15.42-3.15,1.73,0,.91.6,1.48,1.88,1.48C375.78,68.48,376.94,67.6,376.94,66.24Z" fill="#fff"/><path d="M389,63.72l-5-7.79h6.25l2.45,4.18,2.4-4.18h5.58l-5,7.37,5.48,8.49H395l-2.82-4.73-2.88,4.73H383.7Z" fill="#fff"/><path d="M408.23,55.93h5.43v2.36a5.6,5.6,0,0,1,4.94-2.78c3.7,0,6.7,2.78,6.7,8.21V64c0,5.46-3,8.19-6.73,8.19a5.23,5.23,0,0,1-4.91-2.7v7.64h-5.43Zm11.55,8v-.24c0-2.79-1.21-4.12-3.12-4.12s-3.15,1.42-3.15,4.09v.24c0,2.7,1.18,4.07,3.15,4.07S419.78,66.57,419.78,64Z" fill="#fff"/><path d="M427.27,55.93h5.43v3.15a5,5,0,0,1,5.13-3.36v5.06c-3.31-.09-5.13.94-5.13,3.49v7.52h-5.43Z" fill="#fff"/><path d="M438.8,64.06v-.25c0-5.09,3.79-8.3,8.7-8.3s8.64,3.12,8.64,8.15v.24c0,5.16-3.79,8.25-8.67,8.25S438.8,69.18,438.8,64.06Zm11.82-.1v-.24c0-2.67-1.06-4.15-3.12-4.15s-3.15,1.42-3.15,4.09v.24c0,2.73,1.06,4.22,3.15,4.22S450.62,66.6,450.62,64Z" fill="#fff"/><path d="M463.57,55.93H469v2.55a5.59,5.59,0,0,1,5.21-3c3.07,0,5.19,1.91,5.19,6V71.79H474V62.57c0-1.79-.7-2.67-2.27-2.67s-2.7,1-2.7,3v8.89h-5.43Z" fill="#fff"/><path d="M481.19,64.06v-.25c0-5.09,3.79-8.3,8.7-8.3s8.64,3.12,8.64,8.15v.24c0,5.16-3.79,8.25-8.67,8.25S481.19,69.18,481.19,64.06ZM493,64v-.24c0-2.67-1.06-4.15-3.12-4.15s-3.15,1.42-3.15,4.09v.24c0,2.73,1.06,4.22,3.15,4.22S493,66.6,493,64Z" fill="#fff"/><path d="M498.6,55.93h5.67l2.3,9.49,2.67-9.49h4.36L516,65.42l2.58-9.49h5.15l-5,15.86h-5.19l-2.36-8.86-2.46,8.86h-5.27Z" fill="#fff"/><path d="M522.67,69.06a3,3,0,0,1,3.1-3.06,3.06,3.06,0,1,1,0,6.12A3,3,0,0,1,522.67,69.06Z" fill="#fff"/></g></g></svg>