<svg xmlns="http://www.w3.org/2000/svg" viewBox="0 0 301 251"><title>Asset 5</title><g id="Layer_2" data-name="Layer 2"><g id="Rect"><rect x="0.5" y="0.5" width="300" height="250" fill="none" stroke="#000" stroke-miterlimit="10"/></g><g id="Don_t_guess_your_price._Know_as_you_go." data-name="Don&apos;t guess your price. Know as you go."><path d="M22.86,35.8h8.87c8.68,0,13.08,4.33,13.08,11.92V48c0,7.61-4.5,12.22-13.11,12.22H22.86Zm8.64,19c4.16,0,6-2.19,6-6.73v-.27c0-4.65-1.85-6.63-6.08-6.63H29.89V54.82Z" fill="#fff"/><path d="M46.21,51.51v-.28c0-5.73,4.27-9.35,9.81-9.35s9.73,3.51,9.73,9.18v.28c0,5.8-4.27,9.28-9.77,9.28S46.21,57.28,46.21,51.51Zm13.32-.11v-.27c0-3-1.19-4.68-3.51-4.68s-3.56,1.61-3.56,4.61v.28c0,3.07,1.2,4.74,3.56,4.74S59.53,54.38,59.53,51.4Z" fill="#fff"/><path d="M67.9,42.35H74v2.87a6.32,6.32,0,0,1,5.88-3.34c3.45,0,5.84,2.15,5.84,6.72V60.21H79.61V49.83c0-2-.78-3-2.56-3s-3,1.09-3,3.38v10H67.9Z" fill="#fff"/><path d="M87.5,35.8h6l-.72,9.39H88.19Z" fill="#fff"/><path d="M97.3,54.48v-8H95.15V42.35H97.3V38.63h6.12v3.72h3.51v4.17h-3.51V53.9c0,1.29.64,1.88,1.81,1.88a4.77,4.77,0,0,0,1.74-.31v4.64a12.68,12.68,0,0,1-3.38.51C99.56,60.62,97.3,58.68,97.3,54.48Z" fill="#fff"/><path d="M114.48,60.21h6.08c.27,1.3,1.06,2.33,3.28,2.33,2.69,0,3.79-1.54,3.79-3.76V56.05a6.26,6.26,0,0,1-5.54,3.28c-4.16,0-7.58-3.08-7.58-8.57v-.28c0-5.26,3.38-8.6,7.58-8.6a5.82,5.82,0,0,1,5.54,3V42.35h6.11V58.71c0,5.33-3.52,8.13-9.9,8.13C117.76,66.84,115,64.28,114.48,60.21Zm13.32-9.49v-.24c0-2.46-1.27-4-3.52-4s-3.52,1.61-3.52,4.07v.27c0,2.46,1.3,4,3.49,4S127.8,53.25,127.8,50.72Z" fill="#fff"/><path d="M136.71,54V42.35h6.11V53c0,2,.79,3,2.53,3s3-1.09,3-3.38V42.35h6.11V60.21h-6.11V57.45a5.88,5.88,0,0,1-5.67,3.17C139.27,60.62,136.71,58.51,136.71,54Z" fill="#fff"/><path d="M156.65,51.51v-.28c0-5.73,4.27-9.35,9.67-9.35,4.88,0,9.08,2.8,9.08,9.22v1.6H162.83c.18,2.36,1.54,3.72,3.73,3.72,2,0,2.87-.92,3.11-2.11h5.73c-.54,4-3.65,6.31-9.05,6.31C160.75,60.62,156.65,57.35,156.65,51.51Zm12.81-2.26c-.1-2.15-1.16-3.34-3.14-3.34s-3.11,1.19-3.42,3.34Z" fill="#fff"/><path d="M176.49,54.55h5.64c.2,1.29.78,2,2.53,2,1.5,0,2.18-.58,2.18-1.47s-.85-1.26-3.31-1.6c-4.78-.62-6.8-2-6.8-5.74,0-4,3.52-5.87,7.65-5.87,4.41,0,7.48,1.5,7.89,5.77h-5.53a2,2,0,0,0-2.29-1.78c-1.33,0-2,.58-2,1.4s.82,1.2,3,1.47c4.95.61,7.34,1.91,7.34,5.74,0,4.23-3.14,6.14-8.09,6.14S176.63,58.51,176.49,54.55Z" fill="#fff"/><path d="M193.67,54.55h5.64c.2,1.29.78,2,2.52,2,1.51,0,2.19-.58,2.19-1.47s-.85-1.26-3.31-1.6c-4.78-.62-6.8-2-6.8-5.74,0-4,3.52-5.87,7.65-5.87,4.4,0,7.48,1.5,7.89,5.77h-5.53a2,2,0,0,0-2.29-1.78c-1.33,0-2,.58-2,1.4s.82,1.2,3,1.47c4.95.61,7.34,1.91,7.34,5.74,0,4.23-3.14,6.14-8.09,6.14S193.81,58.51,193.67,54.55Z" fill="#fff"/><path d="M27.91,94.55l-7.14-16H27.4L31.09,88,34.5,78.5h5.84l-9.56,23.84H24.94Z" fill="#fff"/><path d="M40,87.66v-.28C40,81.65,44.27,78,49.8,78s9.73,3.51,9.73,9.18v.28c0,5.8-4.27,9.28-9.76,9.28S40,93.43,40,87.66Zm13.32-.11v-.27c0-3-1.2-4.68-3.52-4.68s-3.55,1.61-3.55,4.61v.28c0,3.07,1.19,4.74,3.55,4.74S53.32,90.52,53.32,87.55Z" fill="#fff"/><path d="M61.55,90.15V78.5h6.11V89.16c0,2,.79,3,2.53,3s3-1.09,3-3.38V78.5h6.11V96.36H73.23V93.6a5.88,5.88,0,0,1-5.67,3.17C64.11,96.77,61.55,94.66,61.55,90.15Z" fill="#fff"/><path d="M82.45,78.5h6.11v3.56a5.61,5.61,0,0,1,5.77-3.79V84c-3.72-.1-5.77,1.06-5.77,3.93v8.46H82.45Z" fill="#fff"/><path d="M102.77,78.5h6.11v2.67A6.29,6.29,0,0,1,114.44,78c4.17,0,7.55,3.14,7.55,9.25v.27c0,6.15-3.38,9.22-7.58,9.22a5.89,5.89,0,0,1-5.53-3v8.6h-6.11Zm13,9v-.27c0-3.14-1.37-4.64-3.52-4.64s-3.55,1.6-3.55,4.61v.27c0,3,1.33,4.58,3.55,4.58S115.78,90.49,115.78,87.55Z" fill="#fff"/><path d="M124.21,78.5h6.11v3.56a5.62,5.62,0,0,1,5.78-3.79V84c-3.73-.1-5.78,1.06-5.78,3.93v8.46h-6.11Z" fill="#fff"/><path d="M138.18,73.66a3.37,3.37,0,1,1,3.35,3.14A3.19,3.19,0,0,1,138.18,73.66Zm.31,4.84h6.11V96.36h-6.11Z" fill="#fff"/><path d="M146.92,87.66v-.28c0-5.94,4.27-9.35,9.53-9.35,4.37,0,8.4,1.91,8.74,7.34h-5.74c-.27-1.67-1.09-2.6-2.87-2.6-2.15,0-3.41,1.54-3.41,4.54v.28c0,3.11,1.2,4.71,3.52,4.71a3,3,0,0,0,3.1-3h5.5c-.17,4.51-3.21,7.44-9,7.44C151,96.77,146.92,93.67,146.92,87.66Z" fill="#fff"/><path d="M166.32,87.66v-.28c0-5.73,4.27-9.35,9.66-9.35,4.89,0,9.09,2.8,9.09,9.22v1.6H172.5c.17,2.36,1.54,3.72,3.72,3.72,2,0,2.87-.92,3.11-2.11h5.74c-.55,4-3.66,6.31-9,6.31C170.42,96.77,166.32,93.5,166.32,87.66Zm12.8-2.26c-.1-2.15-1.16-3.34-3.14-3.34s-3.1,1.19-3.41,3.34Z" fill="#fff"/><path d="M186.77,93.29a3.41,3.41,0,0,1,3.49-3.45,3.45,3.45,0,1,1,0,6.9A3.41,3.41,0,0,1,186.77,93.29Z" fill="#fff"/><path d="M22.86,108.1h7v9.66l7.34-9.66h7.31l-8.95,11.34L45,132.51H36.93l-7-10.21v10.21h-7Z" fill="#fff"/><path d="M46.35,114.65h6.11v2.87a6.32,6.32,0,0,1,5.88-3.34c3.45,0,5.84,2.15,5.84,6.72v11.61H58.06V122.13c0-2-.78-3-2.56-3s-3,1.09-3,3.38v10H46.35Z" fill="#fff"/><path d="M66.19,123.81v-.28c0-5.73,4.27-9.35,9.8-9.35s9.74,3.51,9.74,9.18v.28c0,5.8-4.27,9.28-9.77,9.28S66.19,129.58,66.19,123.81Zm13.32-.11v-.27c0-3-1.19-4.68-3.52-4.68s-3.55,1.61-3.55,4.61v.28c0,3.07,1.2,4.74,3.55,4.74S79.51,126.67,79.51,123.7Z" fill="#fff"/><path d="M85.79,114.65h6.39l2.6,10.69,3-10.69h4.92l2.66,10.69,2.9-10.69h5.81l-5.67,17.86h-5.84l-2.66-10-2.77,10H91.19Z" fill="#fff"/><path d="M120.83,127.56c0-4.2,3.55-5.84,9.5-5.84H132v-.41c0-1.7-.41-2.83-2.35-2.83a2.2,2.2,0,0,0-2.43,2.12h-5.74c.28-4.31,3.66-6.42,8.54-6.42s8.06,2,8.06,6.76v11.57h-5.94v-2.08c-.85,1.3-2.43,2.49-5.29,2.49C123.67,132.92,120.83,131.35,120.83,127.56Zm11.2-1.29v-1.1h-1.6c-2.46,0-3.55.48-3.55,2,0,1,.68,1.67,2.11,1.67C130.73,128.79,132,127.8,132,126.27Z" fill="#fff"/><path d="M139.89,126.85h5.63c.21,1.29.79,2,2.53,2,1.5,0,2.18-.58,2.18-1.47s-.85-1.26-3.31-1.6c-4.78-.62-6.79-2-6.79-5.74,0-4,3.51-5.87,7.65-5.87,4.4,0,7.47,1.5,7.88,5.77h-5.53a2,2,0,0,0-2.29-1.78c-1.33,0-2,.58-2,1.4s.82,1.2,3,1.47c5,.62,7.35,1.91,7.35,5.74,0,4.23-3.15,6.14-8.1,6.14S140,130.81,139.89,126.85Z" fill="#fff"/><path d="M170,130.71l-7.13-16.06h6.62l3.69,9.53,3.41-9.53h5.84l-9.56,23.84H167Z" fill="#fff"/><path d="M182.06,123.81v-.28c0-5.73,4.27-9.35,9.8-9.35s9.73,3.51,9.73,9.18v.28c0,5.8-4.26,9.28-9.76,9.28S182.06,129.58,182.06,123.81Zm13.32-.11v-.27c0-3-1.2-4.68-3.52-4.68s-3.55,1.61-3.55,4.61v.28c0,3.07,1.2,4.74,3.55,4.74S195.38,126.67,195.38,123.7Z" fill="#fff"/><path d="M203.61,126.3V114.65h6.11v10.66c0,2,.79,3,2.53,3s3-1.09,3-3.38V114.65h6.11v17.86h-6.11v-2.76a5.88,5.88,0,0,1-5.67,3.17C206.17,132.92,203.61,130.81,203.61,126.3Z" fill="#fff"/><path d="M229.73,132.51h6.08c.28,1.3,1.06,2.33,3.28,2.33,2.7,0,3.79-1.54,3.79-3.76v-2.73a6.26,6.26,0,0,1-5.53,3.28c-4.17,0-7.58-3.08-7.58-8.57v-.28c0-5.26,3.38-8.6,7.58-8.6a5.8,5.8,0,0,1,5.53,3v-2.53H249V131c0,5.33-3.51,8.13-9.9,8.13C233,139.14,230.21,136.58,229.73,132.51ZM243.05,123v-.24c0-2.46-1.26-4-3.51-4s-3.52,1.61-3.52,4.07v.27c0,2.46,1.3,4,3.48,4S243.05,125.55,243.05,123Z" fill="#fff"/><path d="M251.15,123.81v-.28c0-5.73,4.26-9.35,9.8-9.35s9.73,3.51,9.73,9.18v.28c0,5.8-4.27,9.28-9.77,9.28S251.15,129.58,251.15,123.81Zm13.31-.11v-.27c0-3-1.19-4.68-3.51-4.68s-3.55,1.61-3.55,4.61v.28c0,3.07,1.19,4.74,3.55,4.74S264.46,126.67,264.46,123.7Z" fill="#fff"/><path d="M271.84,129.44a3.41,3.41,0,0,1,3.48-3.45,3.45,3.45,0,1,1,0,6.9A3.41,3.41,0,0,1,271.84,129.44Z" fill="#fff"/></g></g></svg>