<?xml version="1.0" encoding="utf-8"?>
<!-- Generator: Adobe Illustrator 23.1.0, SVG Export Plug-In . SVG Version: 6.00 Build 0)  -->
<svg version="1.1" id="Layer_1" xmlns="http://www.w3.org/2000/svg" xmlns:xlink="http://www.w3.org/1999/xlink" x="0px" y="0px"
	 viewBox="0 0 301 251" style="enable-background:new 0 0 301 251;" xml:space="preserve">
<style type="text/css">
	.st0{fill:none;}
	.st1{fill:#FFFFFF;}
</style>
<title>Asset 5</title>
<g>
	<g id="Rect">
		<rect class="st0" width="300" height="250"/>
	</g>
	<g id="Don_t_guess_your_price._Know_as_you_go.">
		<path class="st1" d="M22.9,35.8h8.9c8.7,0,13.1,4.3,13.1,11.9V48c0,7.6-4.5,12.2-13.1,12.2h-8.8V35.8z M31.5,54.8
			c4.2,0,6-2.2,6-6.7v-0.3c0-4.7-1.8-6.6-6.1-6.6h-1.5v13.7L31.5,54.8z"/>
		<path class="st1" d="M46.2,51.5v-0.3c0-5.7,4.3-9.4,9.8-9.4s9.7,3.5,9.7,9.2v0.3c0,5.8-4.3,9.3-9.8,9.3S46.2,57.3,46.2,51.5z
			 M59.5,51.4v-0.3c0-3-1.2-4.7-3.5-4.7s-3.6,1.6-3.6,4.6v0.3c0,3.1,1.2,4.7,3.6,4.7S59.5,54.4,59.5,51.4z"/>
		<path class="st1" d="M67.9,42.3H74v2.9c1.1-2.2,3.4-3.5,5.9-3.3c3.4,0,5.8,2.2,5.8,6.7v11.6h-6.1V49.8c0-2-0.8-3-2.6-3
			s-3,1.1-3,3.4v10h-6.2V42.3z"/>
		<path class="st1" d="M87.5,35.8h6l-0.7,9.4h-4.6L87.5,35.8z"/>
		<path class="st1" d="M97.3,54.5v-8h-2.2v-4.1h2.2v-3.7h6.1v3.7h3.5v4.2h-3.5v7.4c0,1.3,0.6,1.9,1.8,1.9c0.6,0,1.2-0.1,1.7-0.3v4.6
			c-1.1,0.3-2.2,0.5-3.4,0.5C99.6,60.6,97.3,58.7,97.3,54.5z"/>
		<path class="st1" d="M114.5,60.2h6.1c0.3,1.3,1.1,2.3,3.3,2.3c2.7,0,3.8-1.5,3.8-3.8V56c-1.1,2-3.2,3.3-5.5,3.3
			c-4.2,0-7.6-3.1-7.6-8.6v-0.3c0-5.3,3.4-8.6,7.6-8.6c2.3-0.2,4.4,1,5.5,3v-2.5h6.1v16.4c0,5.3-3.5,8.1-9.9,8.1
			C117.8,66.8,115,64.3,114.5,60.2z M127.8,50.7v-0.2c0-2.5-1.3-4-3.5-4s-3.5,1.6-3.5,4.1v0.3c0,2.5,1.3,4,3.5,4
			S127.8,53.3,127.8,50.7z"/>
		<path class="st1" d="M136.7,54V42.3h6.1V53c0,2,0.8,3,2.5,3s3-1.1,3-3.4V42.3h6.1v17.9h-6.1v-2.8c-1.1,2.1-3.3,3.3-5.7,3.2
			C139.3,60.6,136.7,58.5,136.7,54z"/>
		<path class="st1" d="M156.6,51.5v-0.3c0-5.7,4.3-9.4,9.7-9.4c4.9,0,9.1,2.8,9.1,9.2v1.6h-12.6c0.2,2.4,1.5,3.7,3.7,3.7
			c2,0,2.9-0.9,3.1-2.1h5.7c-0.5,4-3.6,6.3-9.1,6.3C160.8,60.6,156.6,57.3,156.6,51.5z M169.5,49.3c-0.1-2.2-1.2-3.3-3.1-3.3
			s-3.1,1.2-3.4,3.3H169.5z"/>
		<path class="st1" d="M176.5,54.5h5.6c0.2,1.3,0.8,2,2.5,2c1.5,0,2.2-0.6,2.2-1.5s-0.9-1.3-3.3-1.6c-4.8-0.6-6.8-2-6.8-5.7
			c0-4,3.5-5.9,7.6-5.9c4.4,0,7.5,1.5,7.9,5.8h-5.5c-0.1-1.1-1.1-1.9-2.2-1.8c0,0-0.1,0-0.1,0c-1.3,0-2,0.6-2,1.4s0.8,1.2,3,1.5
			c4.9,0.6,7.3,1.9,7.3,5.7c0,4.2-3.1,6.1-8.1,6.1S176.6,58.5,176.5,54.5z"/>
		<path class="st1" d="M193.7,54.5h5.6c0.2,1.3,0.8,2,2.5,2c1.5,0,2.2-0.6,2.2-1.5s-0.9-1.3-3.3-1.6c-4.8-0.6-6.8-2-6.8-5.7
			c0-4,3.5-5.9,7.6-5.9c4.4,0,7.5,1.5,7.9,5.8h-5.5c-0.1-1.1-1.1-1.9-2.2-1.8c0,0-0.1,0-0.1,0c-1.3,0-2,0.6-2,1.4s0.8,1.2,3,1.5
			c4.9,0.6,7.3,1.9,7.3,5.7c0,4.2-3.1,6.1-8.1,6.1S193.8,58.5,193.7,54.5z"/>
		<path class="st1" d="M27.9,94.6l-7.1-16h6.6l3.7,9.4l3.4-9.5h5.8l-9.6,23.8h-5.8L27.9,94.6z"/>
		<path class="st1" d="M40,87.7v-0.3c0-5.7,4.3-9.4,9.8-9.4s9.7,3.5,9.7,9.2v0.3c0,5.8-4.3,9.3-9.8,9.3S40,93.4,40,87.7z M53.3,87.6
			v-0.3c0-3-1.2-4.7-3.5-4.7s-3.5,1.6-3.5,4.6v0.3c0,3.1,1.2,4.7,3.5,4.7S53.3,90.5,53.3,87.6z"/>
		<path class="st1" d="M61.5,90.2V78.5h6.1v10.7c0,2,0.8,3,2.5,3s3-1.1,3-3.4V78.5h6.1v17.9h-6.1v-2.8c-1.1,2.1-3.3,3.3-5.7,3.2
			C64.1,96.8,61.5,94.7,61.5,90.2z"/>
		<path class="st1" d="M82.4,78.5h6.1v3.6c0.8-2.4,3.2-4,5.8-3.8V84c-3.7-0.1-5.8,1.1-5.8,3.9v8.5h-6.1V78.5z"/>
		<path class="st1" d="M102.8,78.5h6.1v2.7c1.1-2,3.3-3.2,5.6-3.2c4.2,0,7.6,3.1,7.6,9.3v0.3c0,6.2-3.4,9.2-7.6,9.2
			c-2.3,0.2-4.4-1-5.5-3v8.6h-6.1L102.8,78.5z M115.8,87.5v-0.3c0-3.1-1.4-4.6-3.5-4.6s-3.6,1.6-3.6,4.6v0.3c0,3,1.3,4.6,3.6,4.6
			S115.8,90.5,115.8,87.5L115.8,87.5z"/>
		<path class="st1" d="M124.2,78.5h6.1v3.6c0.8-2.4,3.2-4,5.8-3.8V84c-3.7-0.1-5.8,1.1-5.8,3.9v8.5h-6.1L124.2,78.5z"/>
		<path class="st1" d="M138.2,73.7c-0.1-1.9,1.3-3.5,3.1-3.6c1.9-0.1,3.5,1.3,3.6,3.1c0.1,1.9-1.3,3.5-3.1,3.6c-0.1,0-0.2,0-0.2,0
			c-1.8,0.1-3.3-1.3-3.3-3C138.2,73.7,138.2,73.7,138.2,73.7z M138.5,78.5h6.1v17.9h-6.1V78.5z"/>
		<path class="st1" d="M146.9,87.7v-0.3c0-5.9,4.3-9.3,9.5-9.3c4.4,0,8.4,1.9,8.7,7.3h-5.7c-0.3-1.7-1.1-2.6-2.9-2.6
			c-2.1,0-3.4,1.5-3.4,4.5v0.3c0,3.1,1.2,4.7,3.5,4.7c1.7,0.1,3-1.2,3.1-2.9c0,0,0-0.1,0-0.1h5.5c-0.2,4.5-3.2,7.4-9,7.4
			C151,96.8,146.9,93.7,146.9,87.7z"/>
		<path class="st1" d="M166.3,87.7v-0.3c0-5.7,4.3-9.3,9.7-9.3c4.9,0,9.1,2.8,9.1,9.2v1.6h-12.6c0.2,2.4,1.5,3.7,3.7,3.7
			c2,0,2.9-0.9,3.1-2.1h5.7c-0.6,4-3.7,6.3-9,6.3C170.4,96.8,166.3,93.5,166.3,87.7z M179.1,85.4c-0.1-2.2-1.2-3.3-3.1-3.3
			s-3.1,1.2-3.4,3.3H179.1z"/>
		<path class="st1" d="M186.8,93.3c0-1.9,1.5-3.4,3.4-3.5c0,0,0.1,0,0.1,0c1.9,0,3.4,1.5,3.4,3.5c0,1.9-1.5,3.4-3.4,3.4
			c-1.9,0-3.4-1.4-3.5-3.3C186.8,93.4,186.8,93.3,186.8,93.3z"/>
		<path class="st1" d="M22.9,108.1h7v9.7l7.3-9.7h7.3l-9,11.3l9.4,13.1h-8.1l-7-10.2v10.2h-7L22.9,108.1z"/>
		<path class="st1" d="M46.3,114.7h6.1v2.9c1.1-2.2,3.4-3.5,5.9-3.3c3.5,0,5.8,2.2,5.8,6.7v11.6h-6.1v-10.4c0-2-0.8-3-2.6-3
			s-3,1.1-3,3.4v10h-6.2V114.7z"/>
		<path class="st1" d="M66.2,123.8v-0.3c0-5.7,4.3-9.3,9.8-9.3s9.7,3.5,9.7,9.2v0.3c0,5.8-4.3,9.3-9.8,9.3S66.2,129.6,66.2,123.8z
			 M79.5,123.7v-0.3c0-3-1.2-4.7-3.5-4.7s-3.6,1.6-3.6,4.6v0.3c0,3.1,1.2,4.7,3.6,4.7S79.5,126.7,79.5,123.7z"/>
		<path class="st1" d="M85.8,114.7h6.4l2.6,10.7l3-10.7h4.9l2.7,10.7l2.9-10.7h5.8l-5.7,17.9h-5.8l-2.7-10l-2.8,10h-5.9L85.8,114.7z
			"/>
		<path class="st1" d="M120.8,127.6c0-4.2,3.6-5.8,9.5-5.8h1.7v-0.4c0-1.7-0.4-2.8-2.4-2.8c-1.2-0.1-2.3,0.7-2.4,2
			c0,0.1,0,0.1,0,0.2h-5.7c0.3-4.3,3.7-6.4,8.5-6.4s8.1,2,8.1,6.8v11.6h-5.9v-2.1c-0.9,1.3-2.4,2.5-5.3,2.5
			C123.7,132.9,120.8,131.4,120.8,127.6z M132,126.3v-1.1h-1.6c-2.5,0-3.6,0.5-3.6,2c0,1,0.7,1.7,2.1,1.7
			C130.7,128.8,132,127.8,132,126.3L132,126.3z"/>
		<path class="st1" d="M139.9,126.8h5.6c0.2,1.3,0.8,2,2.5,2c1.5,0,2.2-0.6,2.2-1.5s-0.9-1.3-3.3-1.6c-4.8-0.6-6.8-2-6.8-5.7
			c0-4,3.5-5.9,7.6-5.9c4.4,0,7.5,1.5,7.9,5.8h-5.5c-0.1-1.1-1.1-1.9-2.2-1.8c0,0-0.1,0-0.1,0c-1.3,0-2,0.6-2,1.4s0.8,1.2,3,1.5
			c5,0.6,7.4,1.9,7.4,5.7c0,4.2-3.1,6.1-8.1,6.1S140,130.8,139.9,126.8z"/>
		<path class="st1" d="M170,130.7l-7.1-16.1h6.6l3.7,9.5l3.4-9.5h5.8l-9.6,23.8H167L170,130.7z"/>
		<path class="st1" d="M182.1,123.8v-0.3c0-5.7,4.3-9.3,9.8-9.3s9.7,3.5,9.7,9.2v0.3c0,5.8-4.3,9.3-9.8,9.3S182.1,129.6,182.1,123.8
			z M195.4,123.7v-0.3c0-3-1.2-4.7-3.5-4.7s-3.6,1.6-3.6,4.6v0.3c0,3.1,1.2,4.7,3.6,4.7S195.4,126.7,195.4,123.7z"/>
		<path class="st1" d="M203.6,126.3v-11.7h6.1v10.7c0,2,0.8,3,2.5,3s3-1.1,3-3.4v-10.3h6.1v17.9h-6.1v-2.8c-1.1,2.1-3.3,3.3-5.7,3.2
			C206.2,132.9,203.6,130.8,203.6,126.3z"/>
		<path class="st1" d="M229.7,132.5h6.1c0.3,1.3,1.1,2.3,3.3,2.3c2.7,0,3.8-1.5,3.8-3.8v-2.7c-1.1,2-3.2,3.3-5.5,3.3
			c-4.2,0-7.6-3.1-7.6-8.6v-0.3c0-5.3,3.4-8.6,7.6-8.6c2.3-0.2,4.4,1,5.5,3v-2.5h6.1V131c0,5.3-3.5,8.1-9.9,8.1
			C233,139.1,230.2,136.6,229.7,132.5z M243.1,123v-0.2c0-2.5-1.3-4-3.5-4s-3.5,1.6-3.5,4.1v0.3c0,2.5,1.3,4,3.5,4
			S243.1,125.6,243.1,123z"/>
		<path class="st1" d="M251.1,123.8v-0.3c0-5.7,4.3-9.3,9.8-9.3c5.5,0,9.7,3.5,9.7,9.2v0.3c0,5.8-4.3,9.3-9.8,9.3
			S251.1,129.6,251.1,123.8z M264.5,123.7v-0.3c0-3-1.2-4.7-3.5-4.7s-3.5,1.6-3.5,4.6v0.3c0,3.1,1.2,4.7,3.5,4.7
			S264.5,126.7,264.5,123.7z"/>
		<path class="st1" d="M271.8,129.4c0-1.9,1.5-3.4,3.4-3.5c0,0,0.1,0,0.1,0c1.9,0,3.5,1.5,3.5,3.4c0,1.9-1.5,3.5-3.4,3.5
			c0,0,0,0,0,0c-1.9,0-3.4-1.5-3.5-3.3C271.8,129.5,271.8,129.5,271.8,129.4z"/>
	</g>
</g>
</svg>
