<svg xmlns="http://www.w3.org/2000/svg" viewBox="0 0 300 250"><title>Asset 5</title><g id="Layer_2" data-name="Layer 2"><g id="rect"><rect width="300" height="250" fill="none"/></g><g id="Need_some_tax_relief_We_ll_get_your_maximum_refund_guaranteed" data-name="Need some tax relief? We’ll get your maximum refund, guaranteed"><path d="M25.09,40.34H30.4l5.26,9.27V40.34h4.12V56.79H35.23l-6-10.33V56.79H25.09Z" fill="#fff"/><path d="M41.44,50.92v-.18A6.15,6.15,0,0,1,48,44.44c3.29,0,6.11,1.88,6.11,6.21v1.08H45.6a2.41,2.41,0,0,0,2.51,2.5c1.35,0,1.93-.62,2.09-1.42h3.86c-.36,2.71-2.46,4.25-6.09,4.25S41.44,54.85,41.44,50.92Zm8.62-1.52C50,48,49.28,47.15,48,47.15a2.29,2.29,0,0,0-2.3,2.25Z" fill="#fff"/><path d="M54.85,50.92v-.18a6.15,6.15,0,0,1,6.51-6.3c3.28,0,6.11,1.88,6.11,6.21v1.08H59a2.41,2.41,0,0,0,2.51,2.5c1.35,0,1.93-.62,2.09-1.42h3.86c-.37,2.71-2.46,4.25-6.09,4.25S54.85,54.85,54.85,50.92Zm8.62-1.52c-.07-1.44-.78-2.25-2.11-2.25a2.28,2.28,0,0,0-2.3,2.25Z" fill="#fff"/><path d="M68.3,50.9v-.18c0-4.1,2.26-6.28,5.11-6.28a3.9,3.9,0,0,1,3.7,2v-7h4.12V56.79H77.11v-2a4.06,4.06,0,0,1-3.75,2.23C70.58,57.06,68.3,55.06,68.3,50.9Zm8.93-.07v-.18c0-2-.86-3.11-2.37-3.11s-2.37,1-2.37,3.13v.18c0,2,.9,3.06,2.32,3.06S77.23,52.88,77.23,50.83Z" fill="#fff"/><path d="M86.7,53h3.8c.14.87.53,1.36,1.7,1.36,1,0,1.47-.4,1.47-1s-.57-.85-2.23-1.08c-3.22-.42-4.58-1.36-4.58-3.87,0-2.66,2.37-4,5.16-4,3,0,5,1,5.31,3.88H93.6a1.34,1.34,0,0,0-1.54-1.19c-.9,0-1.36.39-1.36.94s.56.81,2,1c3.33.41,4.94,1.29,4.94,3.86,0,2.85-2.11,4.14-5.45,4.14S86.8,55.64,86.7,53Z" fill="#fff"/><path d="M98.43,50.92v-.18c0-3.86,2.88-6.3,6.6-6.3s6.56,2.37,6.56,6.18v.19c0,3.91-2.88,6.25-6.58,6.25S98.43,54.81,98.43,50.92Zm9-.07v-.18c0-2-.8-3.15-2.37-3.15s-2.39,1.08-2.39,3.1v.19c0,2.07.81,3.19,2.39,3.19S107.4,52.85,107.4,50.85Z" fill="#fff"/><path d="M113,44.76h4.11V46.6a4.22,4.22,0,0,1,3.78-2.16,3.27,3.27,0,0,1,3.26,2,4.78,4.78,0,0,1,4-2c2.28,0,3.93,1.47,3.93,4.48v7.87H128V49.61c0-1.22-.59-1.82-1.54-1.82a1.79,1.79,0,0,0-1.84,2v7h-4.07V49.61c0-1.22-.59-1.82-1.54-1.82a1.79,1.79,0,0,0-1.84,2v7H113Z" fill="#fff"/><path d="M133.46,50.92v-.18a6.16,6.16,0,0,1,6.51-6.3c3.29,0,6.12,1.88,6.12,6.21v1.08h-8.47a2.41,2.41,0,0,0,2.51,2.5c1.36,0,1.93-.62,2.09-1.42h3.87c-.37,2.71-2.46,4.25-6.1,4.25S133.46,54.85,133.46,50.92Zm8.63-1.52C142,48,141.3,47.15,140,47.15a2.29,2.29,0,0,0-2.3,2.25Z" fill="#fff"/><path d="M152.25,52.92V47.56H150.8v-2.8h1.45V42.25h4.12v2.51h2.37v2.8h-2.37v5c0,.88.44,1.27,1.22,1.27a3.09,3.09,0,0,0,1.17-.21v3.13a9,9,0,0,1-2.28.34C153.77,57.06,152.25,55.75,152.25,52.92Z" fill="#fff"/><path d="M159.66,53.45c0-2.83,2.39-3.93,6.39-3.93h1.15v-.28c0-1.15-.27-1.91-1.58-1.91A1.49,1.49,0,0,0,164,48.76h-3.86c.18-2.9,2.46-4.32,5.75-4.32s5.42,1.35,5.42,4.55v7.8h-4V55.38a3.92,3.92,0,0,1-3.56,1.68C161.57,57.06,159.66,56,159.66,53.45Zm7.54-.87v-.74h-1.08c-1.65,0-2.39.32-2.39,1.31,0,.69.46,1.13,1.43,1.13A1.81,1.81,0,0,0,167.2,52.58Z" fill="#fff"/><path d="M176.33,50.67l-3.74-5.91h4.73l1.87,3.17L181,44.76h4.23l-3.79,5.59,4.16,6.44h-4.74l-2.13-3.59-2.19,3.59h-4.21Z" fill="#fff"/><path d="M190.94,44.76h4.12v2.39a3.78,3.78,0,0,1,3.88-2.55v3.84c-2.5-.07-3.88.71-3.88,2.64v5.71h-4.12Z" fill="#fff"/><path d="M199.68,50.92v-.18a6.15,6.15,0,0,1,6.51-6.3c3.29,0,6.11,1.88,6.11,6.21v1.08h-8.46a2.41,2.41,0,0,0,2.51,2.5c1.36,0,1.93-.62,2.09-1.42h3.86c-.36,2.71-2.46,4.25-6.09,4.25S199.68,54.85,199.68,50.92Zm8.62-1.52c-.07-1.44-.78-2.25-2.11-2.25a2.29,2.29,0,0,0-2.3,2.25Z" fill="#fff"/><path d="M213.85,39.47h4.09V56.79h-4.09Z" fill="#fff"/><path d="M220.06,41.49a2.14,2.14,0,0,1,2.25-2.13,2.13,2.13,0,1,1,0,4.25A2.13,2.13,0,0,1,220.06,41.49Zm.2,3.27h4.12v12h-4.12Z" fill="#fff"/><path d="M226,50.92v-.18a6.15,6.15,0,0,1,6.5-6.3c3.29,0,6.12,1.88,6.12,6.21v1.08h-8.46a2.39,2.39,0,0,0,2.5,2.5c1.36,0,1.93-.62,2.1-1.42h3.86c-.37,2.71-2.46,4.25-6.09,4.25S226,54.85,226,50.92Zm8.62-1.52c-.07-1.44-.78-2.25-2.12-2.25a2.29,2.29,0,0,0-2.3,2.25Z" fill="#fff"/><path d="M240.62,47.56H239.1v-2.8h1.52V43.7c0-3,1.86-4.41,4.71-4.41a7.27,7.27,0,0,1,1.89.25v3a3.88,3.88,0,0,0-1.13-.16,1.21,1.21,0,0,0-1.38,1.31v1.06h2.44v2.8h-2.44v9.23h-4.09Z" fill="#fff"/><path d="M251.66,51c0-1.75,1.19-2.86,2.25-3.87.78-.76,1.5-1.45,1.5-2.25A1.23,1.23,0,0,0,254,43.45c-1,0-1.65.76-1.81,2h-4c.11-3.47,2.59-5.36,6.14-5.36s5.54,1.59,5.54,4.33a4.67,4.67,0,0,1-1.68,3.45c-1.13,1.12-2.44,2-2.65,3.15v.34h-3.88Zm-.53,3.81a2.47,2.47,0,0,1,4.92,0,2.47,2.47,0,0,1-4.92,0Z" fill="#fff"/><path d="M23.82,68.75h4.76L30.7,79l2.2-10.26h4.19L39.48,79.1l2.23-10.35h4.37L42.24,85.2H37.32L34.79,74.76,32.24,85.2h-4.6Z" fill="#fff"/><path d="M45.56,79.33v-.18a6.15,6.15,0,0,1,6.5-6.3c3.29,0,6.12,1.88,6.12,6.21v1.08H49.72a2.4,2.4,0,0,0,2.51,2.5c1.35,0,1.93-.62,2.09-1.42h3.86c-.37,2.71-2.46,4.25-6.09,4.25S45.56,83.26,45.56,79.33Zm8.62-1.52c-.07-1.44-.78-2.25-2.12-2.25a2.29,2.29,0,0,0-2.3,2.25Z" fill="#fff"/><path d="M58.6,74.46l1.84-6,3.63,1.21-3.15,5.68Z" fill="#fff"/><path d="M65.59,67.88h4.09V85.2H65.59Z" fill="#fff"/><path d="M72,67.88H76.1V85.2H72Z" fill="#fff"/><path d="M81.83,85.2h4.09c.18.87.71,1.56,2.21,1.56a2.28,2.28,0,0,0,2.55-2.53V82.39A4.21,4.21,0,0,1,87,84.6c-2.81,0-5.11-2.07-5.11-5.77v-.19c0-3.54,2.28-5.79,5.11-5.79a3.91,3.91,0,0,1,3.72,2v-1.7H94.8v11c0,3.59-2.37,5.48-6.67,5.48C84,89.66,82.15,87.93,81.83,85.2Zm9-6.4v-.16c0-1.65-.86-2.71-2.37-2.71S86.06,77,86.06,78.67v.18c0,1.65.87,2.71,2.34,2.71S90.8,80.5,90.8,78.8Z" fill="#fff"/><path d="M96.25,79.33v-.18a6.15,6.15,0,0,1,6.51-6.3c3.28,0,6.11,1.88,6.11,6.21v1.08h-8.46a2.4,2.4,0,0,0,2.51,2.5c1.35,0,1.93-.62,2.09-1.42h3.86c-.37,2.71-2.46,4.25-6.09,4.25S96.25,83.26,96.25,79.33Zm8.62-1.52c-.07-1.44-.78-2.25-2.11-2.25a2.28,2.28,0,0,0-2.3,2.25Z" fill="#fff"/><path d="M110.85,81.33V76H109.4v-2.8h1.45V70.66H115v2.51h2.37V76H115v5c0,.88.44,1.27,1.22,1.27a3.09,3.09,0,0,0,1.17-.21v3.13a9,9,0,0,1-2.28.34C112.37,85.47,110.85,84.16,110.85,81.33Z" fill="#fff"/><path d="M126.86,84l-4.81-10.81h4.46L129,79.58l2.3-6.41h3.93l-6.44,16h-3.93Z" fill="#fff"/><path d="M135,79.33v-.18c0-3.86,2.88-6.3,6.6-6.3s6.56,2.37,6.56,6.18v.19c0,3.91-2.88,6.25-6.58,6.25S135,83.22,135,79.33Zm9-.07v-.18c0-2-.8-3.15-2.37-3.15S139.21,77,139.21,79v.19c0,2.07.81,3.19,2.39,3.19S144,81.26,144,79.26Z" fill="#fff"/><path d="M149.52,81V73.17h4.11v7.17c0,1.36.53,2,1.7,2s2-.74,2-2.28V73.17h4.12v12h-4.12V83.33a4,4,0,0,1-3.82,2.14C151.24,85.47,149.52,84.05,149.52,81Z" fill="#fff"/><path d="M163.59,73.17h4.12v2.39A3.79,3.79,0,0,1,171.59,73v3.84c-2.5-.07-3.88.71-3.88,2.64V85.2h-4.12Z" fill="#fff"/><path d="M177.28,73.17h4.11V75a4.21,4.21,0,0,1,3.77-2.16,3.28,3.28,0,0,1,3.27,2,4.77,4.77,0,0,1,4-2c2.27,0,3.93,1.47,3.93,4.48V85.2h-4.12V78c0-1.22-.59-1.82-1.54-1.82a1.79,1.79,0,0,0-1.84,2v7h-4.07V78c0-1.22-.6-1.82-1.54-1.82a1.79,1.79,0,0,0-1.84,2v7h-4.11Z" fill="#fff"/><path d="M197.66,81.86c0-2.83,2.39-3.93,6.39-3.93h1.15v-.28c0-1.15-.28-1.91-1.59-1.91A1.47,1.47,0,0,0,202,77.17h-3.86c.18-2.9,2.46-4.32,5.74-4.32s5.43,1.35,5.43,4.55v7.8h-4V83.79a3.94,3.94,0,0,1-3.57,1.68C199.56,85.47,197.66,84.41,197.66,81.86ZM205.2,81v-.74h-1.08c-1.66,0-2.4.32-2.4,1.31,0,.69.46,1.13,1.43,1.13A1.82,1.82,0,0,0,205.2,81Z" fill="#fff"/><path d="M214.33,79.08l-3.75-5.91h4.74l1.86,3.17L219,73.17h4.23l-3.8,5.59,4.17,6.44h-4.74l-2.14-3.59-2.18,3.59h-4.21Z" fill="#fff"/><path d="M224.66,69.9a2.14,2.14,0,0,1,2.25-2.13,2.13,2.13,0,1,1,0,4.25A2.13,2.13,0,0,1,224.66,69.9Zm.2,3.27H229v12h-4.12Z" fill="#fff"/><path d="M231.19,73.17h4.11V75a4.22,4.22,0,0,1,3.78-2.16,3.27,3.27,0,0,1,3.26,2,4.78,4.78,0,0,1,4-2c2.28,0,3.93,1.47,3.93,4.48V85.2h-4.12V78c0-1.22-.59-1.82-1.54-1.82a1.79,1.79,0,0,0-1.84,2v7h-4.07V78c0-1.22-.59-1.82-1.54-1.82a1.79,1.79,0,0,0-1.84,2v7h-4.11Z" fill="#fff"/><path d="M252.16,81V73.17h4.12v7.17c0,1.36.53,2,1.7,2s2-.74,2-2.28V73.17h4.11v12H260V83.33a4,4,0,0,1-3.82,2.14C253.89,85.47,252.16,84.05,252.16,81Z" fill="#fff"/><path d="M266.24,73.17h4.12V75a4.19,4.19,0,0,1,3.77-2.16,3.27,3.27,0,0,1,3.26,2,4.78,4.78,0,0,1,4-2c2.28,0,3.93,1.47,3.93,4.48V85.2h-4.11V78c0-1.22-.6-1.82-1.54-1.82a1.79,1.79,0,0,0-1.84,2v7h-4.07V78c0-1.22-.6-1.82-1.54-1.82a1.79,1.79,0,0,0-1.84,2v7h-4.12Z" fill="#fff"/><path d="M24.72,101.58h4.11V104a3.79,3.79,0,0,1,3.89-2.55v3.84c-2.51-.07-3.89.71-3.89,2.64v5.7H24.72Z" fill="#fff"/><path d="M33.46,107.74v-.18c0-3.87,2.87-6.3,6.51-6.3,3.28,0,6.11,1.88,6.11,6.21v1.08H37.62a2.41,2.41,0,0,0,2.51,2.5c1.35,0,1.93-.62,2.09-1.42h3.86c-.37,2.71-2.46,4.25-6.09,4.25S33.46,111.67,33.46,107.74Zm8.62-1.52C42,104.77,41.3,104,40,104a2.28,2.28,0,0,0-2.3,2.25Z" fill="#fff"/><path d="M48.13,104.38H46.61v-2.8h1.52v-1.06c0-3,1.87-4.41,4.72-4.41a7.19,7.19,0,0,1,1.88.25v3a3.8,3.8,0,0,0-1.12-.16,1.21,1.21,0,0,0-1.38,1.31v1.06h2.43v2.8H52.23v9.22h-4.1Z" fill="#fff"/><path d="M56,109.42v-7.84h4.12v7.17c0,1.36.53,2,1.7,2s2-.74,2-2.28v-6.92h4.11v12H63.82v-1.86A4,4,0,0,1,60,113.88C57.68,113.88,56,112.46,56,109.42Z" fill="#fff"/><path d="M70,101.58h4.11v1.93a4.26,4.26,0,0,1,4-2.25c2.32,0,3.93,1.45,3.93,4.53v7.81H77.92v-7c0-1.35-.53-2-1.73-2s-2,.74-2,2.28v6.73H70Z" fill="#fff"/><path d="M83.44,107.72v-.19c0-4.09,2.25-6.27,5.1-6.27a3.89,3.89,0,0,1,3.7,2v-7h4.12V113.6H92.24v-1.95a4,4,0,0,1-3.74,2.23C85.71,113.88,83.44,111.88,83.44,107.72Zm8.92-.07v-.18c0-2-.85-3.11-2.37-3.11s-2.37,1-2.37,3.13v.18c0,2,.9,3.06,2.32,3.06S92.36,109.7,92.36,107.65Z" fill="#fff"/><path d="M97.61,115.47l1.93-6,3.81,1.36L100,116.41Z" fill="#fff"/><path d="M108.67,113.6h4.09c.19.88.71,1.57,2.21,1.57a2.27,2.27,0,0,0,2.55-2.53V110.8A4.21,4.21,0,0,1,113.8,113c-2.81,0-5.11-2.07-5.11-5.77v-.19c0-3.54,2.28-5.79,5.11-5.79a3.9,3.9,0,0,1,3.72,2v-1.7h4.12v11c0,3.59-2.37,5.48-6.67,5.48C110.88,118.07,109,116.34,108.67,113.6Zm9-6.39v-.16c0-1.65-.85-2.71-2.37-2.71s-2.37,1.08-2.37,2.73v.19c0,1.65.87,2.71,2.35,2.71S117.64,108.91,117.64,107.21Z" fill="#fff"/><path d="M123.64,109.42v-7.84h4.12v7.17c0,1.36.53,2,1.7,2s2-.74,2-2.28v-6.92h4.11v12h-4.11v-1.86a4,4,0,0,1-3.82,2.14C125.37,113.88,123.64,112.46,123.64,109.42Z" fill="#fff"/><path d="M137,110.27c0-2.83,2.39-3.93,6.39-3.93h1.15v-.28c0-1.15-.28-1.91-1.59-1.91a1.48,1.48,0,0,0-1.63,1.43h-3.86c.18-2.9,2.46-4.32,5.74-4.32s5.43,1.35,5.43,4.55v7.79h-4v-1.4a3.92,3.92,0,0,1-3.56,1.68C138.94,113.88,137,112.82,137,110.27Zm7.54-.87v-.74h-1.08c-1.66,0-2.39.32-2.39,1.31,0,.69.46,1.13,1.42,1.13A1.82,1.82,0,0,0,144.57,109.4Z" fill="#fff"/><path d="M150.67,101.58h4.11V104a3.78,3.78,0,0,1,3.89-2.55v3.84c-2.51-.07-3.89.71-3.89,2.64v5.7h-4.11Z" fill="#fff"/><path d="M159.2,110.27c0-2.83,2.39-3.93,6.39-3.93h1.15v-.28c0-1.15-.28-1.91-1.59-1.91a1.48,1.48,0,0,0-1.63,1.43h-3.86c.18-2.9,2.46-4.32,5.75-4.32s5.42,1.35,5.42,4.55v7.79h-4v-1.4a3.92,3.92,0,0,1-3.56,1.68C161.11,113.88,159.2,112.82,159.2,110.27Zm7.54-.87v-.74h-1.08c-1.66,0-2.39.32-2.39,1.31,0,.69.46,1.13,1.42,1.13C165.87,111.1,166.74,110.43,166.74,109.4Z" fill="#fff"/><path d="M172.84,101.58H177v1.93a4.26,4.26,0,0,1,4-2.25c2.32,0,3.93,1.45,3.93,4.53v7.81h-4.12v-7c0-1.35-.52-2-1.72-2s-2.05.74-2.05,2.28v6.73h-4.11Z" fill="#fff"/><path d="M187.4,109.74v-5.36H186v-2.8h1.45V99.07h4.11v2.51h2.37v2.8h-2.37v5a1.1,1.1,0,0,0,1.22,1.27,3.05,3.05,0,0,0,1.17-.21v3.13a9,9,0,0,1-2.27.34C188.91,113.88,187.4,112.57,187.4,109.74Z" fill="#fff"/><path d="M194.8,107.74v-.18a6.15,6.15,0,0,1,6.51-6.3c3.29,0,6.12,1.88,6.12,6.21v1.08H199a2.41,2.41,0,0,0,2.51,2.5c1.36,0,1.93-.62,2.09-1.42h3.87c-.37,2.71-2.46,4.25-6.1,4.25S194.8,111.67,194.8,107.74Zm8.63-1.52c-.07-1.45-.79-2.25-2.12-2.25a2.29,2.29,0,0,0-2.3,2.25Z" fill="#fff"/><path d="M208.21,107.74v-.18a6.15,6.15,0,0,1,6.51-6.3c3.29,0,6.12,1.88,6.12,6.21v1.08h-8.47a2.41,2.41,0,0,0,2.51,2.5c1.36,0,1.93-.62,2.09-1.42h3.87c-.37,2.71-2.46,4.25-6.1,4.25S208.21,111.67,208.21,107.74Zm8.62-1.52c-.06-1.45-.78-2.25-2.11-2.25a2.29,2.29,0,0,0-2.3,2.25Z" fill="#fff"/><path d="M221.67,107.72v-.19c0-4.09,2.25-6.27,5.1-6.27a3.89,3.89,0,0,1,3.7,2v-7h4.12V113.6h-4.12v-1.95a4,4,0,0,1-3.75,2.23C223.94,113.88,221.67,111.88,221.67,107.72Zm8.92-.07v-.18c0-2-.85-3.11-2.37-3.11s-2.37,1-2.37,3.13v.18c0,2,.9,3.06,2.32,3.06S230.59,109.7,230.59,107.65Z" fill="#fff"/><path d="M236.52,111.54a2.3,2.3,0,0,1,2.35-2.33,2.33,2.33,0,1,1,0,4.65A2.3,2.3,0,0,1,236.52,111.54Z" fill="#fff"/></g></g></svg>