<svg xmlns="http://www.w3.org/2000/svg" viewBox="0 0 300 600"><title>Asset 9</title><g id="Layer_2" data-name="Layer 2"><g id="Rect"><rect width="300" height="600" fill="none"/></g><g id="Save_10._Switch_from_TurboTax." data-name="Save $10. Switch from TurboTax."><path d="M20.25,159.67H30.88c.27,2.78,1.53,5.06,6.16,5.06,3.22,0,5-1.58,5-3.87s-1.48-3.05-6.16-3.76c-11-1.3-14.72-4.57-14.72-12.42,0-7,5.78-12.16,15.1-12.16s14.66,3.93,15.37,12.16H41.29c-.38-2.78-2-4.2-5-4.2s-4.53,1.36-4.53,3.32c0,2.18,1.2,3.17,6,3.82,9.87,1.09,14.94,3.65,14.94,12.1,0,7.14-5.67,13-15.7,13C26.14,172.69,20.58,168.11,20.25,159.67Z" fill="#fff"/><path d="M54.7,164.13c0-6.7,5.67-9.32,15.15-9.32h2.72v-.65c0-2.72-.65-4.52-3.76-4.52A3.5,3.5,0,0,0,64.94,153H55.79c.43-6.87,5.83-10.25,13.62-10.25S82.28,146,82.28,153.56V172H72.79v-3.33c-1.36,2.07-3.87,4-8.45,4C59.22,172.69,54.7,170.19,54.7,164.13Zm17.87-2.07v-1.74H70c-3.92,0-5.67.76-5.67,3.11,0,1.63,1.09,2.67,3.38,2.67C70.5,166.1,72.57,164.52,72.57,162.06Z" fill="#fff"/><path d="M83.74,143.53H94.16l5.94,18.37,5.83-18.37h9.32L104.84,172H94.21Z" fill="#fff"/><path d="M114.65,158.14v-.44c0-9.15,6.81-14.93,15.42-14.93,7.79,0,14.5,4.47,14.5,14.72v2.56H124.51c.27,3.76,2.45,5.94,5.94,5.94,3.22,0,4.58-1.47,5-3.38h9.16c-.87,6.43-5.83,10.08-14.45,10.08C121.19,172.69,114.65,167.46,114.65,158.14Zm20.43-3.6c-.16-3.43-1.85-5.34-5-5.34-2.94,0-5,1.91-5.45,5.34Z" fill="#fff"/><path d="M164.12,154.21c-5.49-.38-8.16-3.31-8.38-7.5h5.87a3,3,0,0,0,2.51,3v-4.64c-5.52-.8-7.87-2.8-7.87-7.21,0-3.85,3-6.61,7.87-7v-2.83h2.48v2.86c4.61.38,7.34,2.51,7.72,6.86h-5.75a2.54,2.54,0,0,0-2-2.38v4.38c4.86.7,8,2.36,8,7,0,3.88-2.51,7.12-8,7.47v4h-2.48Zm0-14.81v-4.06c-1.43.25-2.16,1-2.16,2S162.41,139.05,164.12,139.4Zm2.48,6.07v4.23a2.3,2.3,0,0,0,2.13-2.26C168.73,146.39,168.29,145.85,166.6,145.47Z" fill="#fff"/><path d="M184.21,144.08l-7.41,4.58v-9.32l8.94-6.27h9.64v39H184.21Z" fill="#fff"/><path d="M200.72,153.4v-1.64c0-12.32,7.69-19.24,18-19.24s18,6.38,18,19v1.53c0,12.37-7.09,19.62-18.21,19.62C207.59,172.69,200.72,165.66,200.72,153.4Zm24.8-.11v-1.58c0-7.14-2.07-10.74-6.81-10.74s-6.81,3.54-6.81,10.74v1.63c0,7.25,2.12,10.69,6.92,10.69S225.52,160.48,225.52,153.29Z" fill="#fff"/><path d="M237.62,167.13a5.43,5.43,0,0,1,5.56-5.5,5.51,5.51,0,1,1,0,11A5.43,5.43,0,0,1,237.62,167.13Z" fill="#fff"/><path d="M20.25,214.17H30.88c.27,2.78,1.53,5.06,6.16,5.06,3.22,0,5-1.58,5-3.87s-1.48-3.05-6.16-3.76c-11-1.3-14.72-4.57-14.72-12.42,0-7,5.78-12.16,15.1-12.16S50.94,191,51.65,199.18H41.29c-.38-2.78-2-4.2-5-4.2s-4.53,1.36-4.53,3.32c0,2.18,1.2,3.17,6,3.82,9.87,1.09,14.94,3.65,14.94,12.1,0,7.14-5.67,13-15.7,13C26.14,227.19,20.58,222.61,20.25,214.17Z" fill="#fff"/><path d="M53.55,198h10.2l4.14,17.06L72.68,198h7.85l4.25,17.06L89.42,198h9.26l-9.05,28.51H80.31l-4.25-15.92-4.41,15.92H62.16Z" fill="#fff"/><path d="M101,190.29a5.38,5.38,0,1,1,5.34,5A5.09,5.09,0,0,1,101,190.29Zm.49,7.74h9.75v28.51h-9.75Z" fill="#fff"/><path d="M117.75,217.38v-12.7h-3.43V198h3.43v-5.94h9.76V198h5.61v6.65h-5.61v11.77c0,2.08,1,3,2.89,3a7.37,7.37,0,0,0,2.78-.49v7.41a20.41,20.41,0,0,1-5.4.82C121.35,227.19,117.75,224.09,117.75,217.38Z" fill="#fff"/><path d="M135.3,212.64v-.44c0-9.48,6.81-14.93,15.21-14.93,7,0,13.41,3,14,11.72H155.3c-.43-2.67-1.74-4.14-4.57-4.14-3.44,0-5.45,2.45-5.45,7.24v.44c0,5,1.9,7.52,5.61,7.52,2.73,0,4.63-1.63,5-4.74h8.77c-.27,7.19-5.12,11.88-14.33,11.88C141.79,227.19,135.3,222.23,135.3,212.64Z" fill="#fff"/><path d="M167.78,185.5h9.76v17.11a10.07,10.07,0,0,1,9.37-5.34c5.51,0,9.32,3.43,9.32,10.74v18.53h-9.75V210c0-3.22-1.26-4.8-4.09-4.8s-4.85,1.75-4.85,5.4v16h-9.76Z" fill="#fff"/><path d="M23.36,259.18h-3.6v-6.65h3.6V250c0-7.08,4.42-10.46,11.17-10.46a17.27,17.27,0,0,1,4.47.6v7.14a8.9,8.9,0,0,0-2.67-.38c-2.29,0-3.27,1.25-3.27,3.1v2.51h5.78v6.65H33.06V281h-9.7Z" fill="#fff"/><path d="M42.11,252.53h9.75v5.67c1.8-4.25,4.8-6.1,9.22-6v9.1c-5.95-.16-9.22,1.69-9.22,6.27V281H42.11Z" fill="#fff"/><path d="M62.82,267.14v-.44c0-9.15,6.81-14.93,15.64-14.93S94,257.38,94,266.43v.44c0,9.26-6.81,14.82-15.58,14.82S62.82,276.35,62.82,267.14ZM84.07,267v-.44c0-4.8-1.9-7.47-5.61-7.47s-5.67,2.56-5.67,7.36v.44c0,4.9,1.91,7.57,5.67,7.57S84.07,271.72,84.07,267Z" fill="#fff"/><path d="M97.42,252.53h9.76v4.36a10,10,0,0,1,8.94-5.12c3.76,0,6.38,1.63,7.74,4.74a11.3,11.3,0,0,1,9.43-4.74c5.39,0,9.32,3.49,9.32,10.63V281h-9.76V264c0-2.89-1.41-4.3-3.65-4.3-2.62,0-4.36,1.69-4.36,4.79V281h-9.65V264c0-2.89-1.41-4.3-3.65-4.3-2.61,0-4.36,1.69-4.36,4.79V281H97.42Z" fill="#fff"/><path d="M30.23,305.18H20.14v-8.61h31.4v8.61H41.46v30.36H30.23Z" fill="#fff"/><path d="M52.41,325.62V307h9.76v17c0,3.21,1.25,4.79,4,4.79,2.94,0,4.85-1.74,4.85-5.39V307h9.76v28.51H71.05v-4.42c-1.53,2.95-4.31,5.07-9,5.07C56.5,336.19,52.41,332.81,52.41,325.62Z" fill="#fff"/><path d="M85.76,307h9.76v5.67c1.8-4.25,4.79-6.1,9.21-6.05v9.1c-5.94-.16-9.21,1.69-9.21,6.27v13.52H85.76Z" fill="#fff"/><path d="M118,331.12v4.42h-9.76v-41H118v16.78a10.06,10.06,0,0,1,8.88-5c6.65,0,12.05,5,12.05,14.77v.44c0,9.81-5.4,14.71-12.1,14.71C122.61,336.19,119.44,334.18,118,331.12Zm11-9.64V321c0-5-2.18-7.41-5.62-7.41s-5.67,2.56-5.67,7.36v.43c0,4.85,2.13,7.3,5.67,7.3S129,326.16,129,321.48Z" fill="#fff"/><path d="M141,321.64v-.44c0-9.15,6.81-14.93,15.64-14.93s15.54,5.61,15.54,14.66v.44c0,9.26-6.82,14.82-15.59,14.82S141,330.85,141,321.64Zm21.26-.16V321c0-4.8-1.91-7.47-5.62-7.47s-5.67,2.56-5.67,7.36v.44c0,4.9,1.91,7.57,5.67,7.57S162.23,326.22,162.23,321.48Z" fill="#fff"/><path d="M183.92,305.18H173.83v-8.61h31.4v8.61H195.14v30.36H183.92Z" fill="#fff"/><path d="M203.26,327.63c0-6.7,5.67-9.32,15.16-9.32h2.72v-.65c0-2.72-.65-4.52-3.76-4.52a3.5,3.5,0,0,0-3.87,3.38h-9.16c.44-6.87,5.84-10.25,13.63-10.25s12.86,3.22,12.86,10.79v18.48h-9.48v-3.33c-1.36,2.07-3.87,4-8.45,4C207.79,336.19,203.26,333.68,203.26,327.63Zm17.88-2.07v-1.74h-2.56c-3.92,0-5.67.76-5.67,3.11,0,1.63,1.09,2.67,3.38,2.67C219.07,329.6,221.14,328,221.14,325.56Z" fill="#fff"/><path d="M242.78,321l-8.89-14h11.23l4.42,7.52,4.3-7.52h10l-9,13.25,9.86,15.26H253.51l-5.07-8.5-5.17,8.5h-10Z" fill="#fff"/><path d="M266.7,330.63a5.43,5.43,0,0,1,5.56-5.5,5.51,5.51,0,1,1,0,11A5.44,5.44,0,0,1,266.7,330.63Z" fill="#fff"/></g></g></svg>