<svg xmlns="http://www.w3.org/2000/svg" viewBox="0 0 300 600"><title>H38</title><g id="Layer_2" data-name="Layer 2"><g id="Rect"><rect width="300" height="600" fill="none"/></g><g id="H38"><g id="Save_10_or_more._Switch_from_TurboTax." data-name="Save $10 or more. Switch from TurboTax."><path d="M20.25,132.67H30.88c.27,2.78,1.53,5.06,6.16,5.06,3.22,0,5-1.58,5-3.87s-1.48-3.05-6.16-3.76c-11-1.3-14.72-4.57-14.72-12.42,0-7,5.78-12.16,15.1-12.16s14.66,3.93,15.37,12.16H41.29c-.38-2.78-2-4.2-5-4.2s-4.53,1.36-4.53,3.32c0,2.18,1.2,3.17,6,3.82,9.87,1.09,14.94,3.65,14.94,12.1,0,7.14-5.67,13-15.7,13C26.14,145.69,20.58,141.11,20.25,132.67Z" fill="#fff"/><path d="M54.7,137.13c0-6.7,5.67-9.32,15.15-9.32h2.72v-.65c0-2.72-.65-4.52-3.76-4.52A3.5,3.5,0,0,0,64.94,126H55.79c.43-6.87,5.83-10.25,13.62-10.25S82.28,119,82.28,126.56V145H72.79v-3.33c-1.36,2.07-3.87,4-8.45,4C59.22,145.69,54.7,143.19,54.7,137.13Zm17.87-2.07v-1.74H70c-3.92,0-5.67.76-5.67,3.11,0,1.63,1.09,2.67,3.38,2.67C70.5,139.1,72.57,137.52,72.57,135.06Z" fill="#fff"/><path d="M83.74,116.53H94.16l5.94,18.37,5.83-18.37h9.32L104.84,145H94.21Z" fill="#fff"/><path d="M114.65,131.14v-.44c0-9.15,6.81-14.93,15.42-14.93,7.79,0,14.5,4.47,14.5,14.72v2.56H124.51c.27,3.76,2.45,5.94,5.94,5.94,3.22,0,4.58-1.47,5-3.38h9.16c-.87,6.43-5.83,10.08-14.44,10.08C121.19,145.69,114.65,140.46,114.65,131.14Zm20.43-3.6c-.16-3.43-1.85-5.34-5-5.34-2.94,0-5,1.91-5.45,5.34Z" fill="#fff"/><path d="M164.12,127.21c-5.49-.38-8.16-3.31-8.38-7.5h5.87a3,3,0,0,0,2.51,3v-4.64c-5.52-.8-7.87-2.8-7.87-7.21,0-3.85,3-6.61,7.87-7v-2.83h2.48v2.86c4.61.38,7.34,2.51,7.72,6.86h-5.75a2.54,2.54,0,0,0-2-2.38v4.38c4.86.7,8,2.36,8,7,0,3.88-2.51,7.12-8,7.47v4h-2.48Zm0-14.81v-4.06c-1.43.25-2.16,1-2.16,2S162.41,112.05,164.12,112.4Zm2.48,6.07v4.23a2.3,2.3,0,0,0,2.13-2.26C168.73,119.39,168.29,118.85,166.6,118.47Z" fill="#fff"/><path d="M184.21,117.08l-7.41,4.58v-9.32l8.94-6.27h9.64v39H184.21Z" fill="#fff"/><path d="M200.72,126.4v-1.64c0-12.32,7.69-19.24,18-19.24s18,6.38,18,19v1.53c0,12.37-7.09,19.62-18.21,19.62C207.59,145.69,200.72,138.66,200.72,126.4Zm24.8-.11v-1.58c0-7.14-2.07-10.74-6.81-10.74s-6.81,3.54-6.81,10.74v1.63c0,7.25,2.12,10.69,6.92,10.69S225.52,133.48,225.52,126.29Z" fill="#fff"/><path d="M20.36,185.64v-.44c0-9.15,6.82-14.93,15.65-14.93s15.53,5.61,15.53,14.66v.44c0,9.26-6.81,14.82-15.59,14.82S20.36,194.85,20.36,185.64Zm21.26-.16V185c0-4.8-1.91-7.47-5.61-7.47s-5.67,2.56-5.67,7.36v.44c0,4.9,1.9,7.57,5.67,7.57S41.62,190.22,41.62,185.48Z" fill="#fff"/><path d="M55,171h9.76v5.67c1.79-4.25,4.79-6.1,9.21-6v9.1c-5.94-.16-9.21,1.69-9.21,6.27v13.52H55Z" fill="#fff"/><path d="M87.4,171h9.75v4.36a10,10,0,0,1,8.94-5.12c3.76,0,6.38,1.63,7.74,4.74a11.3,11.3,0,0,1,9.43-4.74c5.4,0,9.32,3.49,9.32,10.63v18.64h-9.76v-17c0-2.89-1.41-4.3-3.65-4.3-2.61,0-4.36,1.69-4.36,4.79v16.52h-9.64v-17c0-2.89-1.42-4.3-3.66-4.3-2.61,0-4.36,1.69-4.36,4.79v16.52H87.4Z" fill="#fff"/><path d="M135.79,185.64v-.44c0-9.15,6.82-14.93,15.65-14.93S167,175.88,167,184.93v.44c0,9.26-6.81,14.82-15.59,14.82S135.79,194.85,135.79,185.64Zm21.26-.16V185c0-4.8-1.91-7.47-5.61-7.47s-5.67,2.56-5.67,7.36v.44c0,4.9,1.9,7.57,5.67,7.57S157.05,190.22,157.05,185.48Z" fill="#fff"/><path d="M170.4,171h9.76v5.67c1.8-4.25,4.79-6.1,9.21-6v9.1c-5.94-.16-9.21,1.69-9.21,6.27v13.52H170.4Z" fill="#fff"/><path d="M191.11,185.64v-.44c0-9.15,6.81-14.93,15.42-14.93,7.8,0,14.5,4.47,14.5,14.72v2.56H201c.27,3.76,2.45,5.94,5.94,5.94,3.21,0,4.57-1.47,5-3.38H221c-.87,6.43-5.83,10.08-14.44,10.08C197.65,200.19,191.11,195,191.11,185.64Zm20.44-3.6c-.16-3.43-1.85-5.34-5-5.34-2.94,0-5,1.91-5.45,5.34Z" fill="#fff"/><path d="M223.76,194.63a5.43,5.43,0,0,1,5.56-5.5,5.51,5.51,0,1,1,0,11A5.43,5.43,0,0,1,223.76,194.63Z" fill="#fff"/><path d="M20.25,241.67H30.88c.27,2.78,1.53,5.06,6.16,5.06,3.22,0,5-1.58,5-3.87s-1.48-3.05-6.16-3.76c-11-1.3-14.72-4.57-14.72-12.42,0-7,5.78-12.16,15.1-12.16s14.66,3.93,15.37,12.16H41.29c-.38-2.78-2-4.2-5-4.2s-4.53,1.36-4.53,3.32c0,2.18,1.2,3.17,6,3.82,9.87,1.09,14.94,3.65,14.94,12.1,0,7.14-5.67,13-15.7,13C26.14,254.69,20.58,250.11,20.25,241.67Z" fill="#fff"/><path d="M53.55,225.53h10.2l4.14,17.06,4.79-17.06h7.85l4.25,17.06,4.64-17.06h9.26L89.63,254H80.31l-4.25-15.92L71.65,254H62.16Z" fill="#fff"/><path d="M101,217.79a5.38,5.38,0,1,1,5.34,5A5.09,5.09,0,0,1,101,217.79Zm.49,7.74h9.75V254h-9.75Z" fill="#fff"/><path d="M117.75,244.88v-12.7h-3.43v-6.65h3.43v-5.94h9.76v5.94h5.61v6.65h-5.61V244c0,2.08,1,3,2.89,3a7.37,7.37,0,0,0,2.78-.49v7.41a20.41,20.41,0,0,1-5.4.82C121.35,254.69,117.75,251.59,117.75,244.88Z" fill="#fff"/><path d="M135.3,240.14v-.44c0-9.48,6.81-14.93,15.21-14.93,7,0,13.41,3,14,11.72H155.3c-.43-2.67-1.74-4.14-4.57-4.14-3.44,0-5.45,2.45-5.45,7.24V240c0,5,1.9,7.52,5.61,7.52,2.73,0,4.63-1.63,5-4.74h8.78c-.28,7.19-5.13,11.88-14.34,11.88C141.79,254.69,135.3,249.73,135.3,240.14Z" fill="#fff"/><path d="M167.78,213h9.76v17.11a10.07,10.07,0,0,1,9.37-5.34c5.51,0,9.32,3.43,9.32,10.74V254h-9.75V237.47c0-3.22-1.26-4.8-4.09-4.8s-4.85,1.75-4.85,5.4v16h-9.76Z" fill="#fff"/><path d="M23.36,286.68h-3.6V280h3.6v-2.51c0-7.08,4.42-10.46,11.17-10.46a17.27,17.27,0,0,1,4.47.6v7.14a8.9,8.9,0,0,0-2.67-.38c-2.29,0-3.27,1.25-3.27,3.1V280h5.78v6.65H33.06v21.86h-9.7Z" fill="#fff"/><path d="M42.11,280h9.75v5.67c1.8-4.25,4.8-6.1,9.22-6.05v9.1c-5.95-.16-9.22,1.69-9.22,6.27v13.52H42.11Z" fill="#fff"/><path d="M62.82,294.64v-.44c0-9.15,6.81-14.93,15.64-14.93S94,284.88,94,293.93v.44c0,9.26-6.81,14.82-15.58,14.82S62.82,303.85,62.82,294.64Zm21.25-.16V294c0-4.8-1.9-7.47-5.61-7.47s-5.67,2.56-5.67,7.36v.44c0,4.9,1.91,7.57,5.67,7.57S84.07,299.22,84.07,294.48Z" fill="#fff"/><path d="M97.42,280h9.76v4.36a10,10,0,0,1,8.94-5.12c3.76,0,6.38,1.63,7.74,4.74a11.3,11.3,0,0,1,9.43-4.74c5.39,0,9.32,3.49,9.32,10.63v18.64h-9.76v-17c0-2.89-1.41-4.3-3.65-4.3-2.62,0-4.36,1.69-4.36,4.79v16.52h-9.65v-17c0-2.89-1.41-4.3-3.65-4.3-2.61,0-4.36,1.69-4.36,4.79v16.52H97.42Z" fill="#fff"/><path d="M30.23,332.68H20.14v-8.61h31.4v8.61H41.46V363H30.23Z" fill="#fff"/><path d="M52.41,353.12V334.53h9.76v17c0,3.21,1.25,4.79,4,4.79,2.94,0,4.85-1.74,4.85-5.39V334.53h9.76V363H71.05v-4.42c-1.53,2.95-4.31,5.07-9,5.07C56.5,363.69,52.41,360.31,52.41,353.12Z" fill="#fff"/><path d="M85.76,334.53h9.76v5.67c1.8-4.25,4.79-6.1,9.21-6.05v9.1c-5.94-.16-9.21,1.69-9.21,6.27V363H85.76Z" fill="#fff"/><path d="M118,358.62V363h-9.76V322H118v16.78a10.06,10.06,0,0,1,8.88-5c6.65,0,12.05,5,12.05,14.77V349c0,9.81-5.4,14.71-12.1,14.71C122.61,363.69,119.44,361.68,118,358.62ZM129,349v-.44c0-5-2.18-7.41-5.62-7.41s-5.67,2.56-5.67,7.36v.43c0,4.85,2.13,7.3,5.67,7.3S129,353.66,129,349Z" fill="#fff"/><path d="M141,349.14v-.44c0-9.15,6.81-14.93,15.64-14.93s15.54,5.61,15.54,14.66v.44c0,9.26-6.82,14.82-15.59,14.82S141,358.35,141,349.14Zm21.26-.16v-.44c0-4.8-1.91-7.47-5.62-7.47s-5.67,2.56-5.67,7.36v.44c0,4.9,1.91,7.57,5.67,7.57S162.23,353.72,162.23,349Z" fill="#fff"/><path d="M183.92,332.68H173.83v-8.61h31.4v8.61H195.14V363H183.92Z" fill="#fff"/><path d="M203.26,355.13c0-6.7,5.67-9.32,15.16-9.32h2.72v-.65c0-2.72-.65-4.52-3.76-4.52a3.5,3.5,0,0,0-3.87,3.38h-9.16c.44-6.87,5.84-10.25,13.63-10.25s12.86,3.22,12.86,10.79V363h-9.48v-3.33c-1.36,2.07-3.87,4-8.45,4C207.79,363.69,203.26,361.18,203.26,355.13Zm17.88-2.07v-1.74h-2.56c-3.92,0-5.67.76-5.67,3.11,0,1.63,1.09,2.67,3.38,2.67C219.07,357.1,221.14,355.52,221.14,353.06Z" fill="#fff"/><path d="M242.78,348.54l-8.89-14h11.23l4.42,7.52,4.3-7.52h10l-9,13.25L264.74,363H253.51l-5.07-8.5-5.17,8.5h-10Z" fill="#fff"/><path d="M266.7,358.13a5.43,5.43,0,0,1,5.56-5.5,5.51,5.51,0,1,1,0,11A5.44,5.44,0,0,1,266.7,358.13Z" fill="#fff"/></g></g></g></svg>