<svg xmlns="http://www.w3.org/2000/svg" viewBox="0 0 728 90"><title>H71</title><g id="Layer_2" data-name="Layer 2"><g id="Rect"><rect width="728" height="90" fill="none"/></g><g id="H71"><g id="Paying_too_much_for_tax_prep_Try_Block." data-name="Paying too much for tax prep? Try Block."><path d="M122,15.67h8.13c5.86,0,8.58,2.6,8.58,7.14v.12c0,4.48-3,6.9-8.31,6.9h-2.3V37H122Zm7.87,10c2,0,3-.93,3-2.69v-.12c0-1.82-1.07-2.57-3-2.57h-1.79v5.38Z" fill="#fff"/><path d="M139.09,32.7c0-3.67,3.11-5.11,8.31-5.11h1.49v-.36c0-1.49-.35-2.48-2.06-2.48a1.92,1.92,0,0,0-2.12,1.86h-5c.24-3.77,3.2-5.62,7.47-5.62s7.05,1.76,7.05,5.91V37H149V35.21a5.11,5.11,0,0,1-4.63,2.19C141.57,37.4,139.09,36,139.09,32.7Zm9.8-1.13v-1h-1.4c-2.15,0-3.11.42-3.11,1.7,0,.9.6,1.47,1.85,1.47C147.76,33.78,148.89,32.91,148.89,31.57Z" fill="#fff"/><path d="M161.18,35.45,154.93,21.4h5.8L164,29.74l3-8.34h5.11l-8.37,20.87h-5.11Z" fill="#fff"/><path d="M173.31,17.16a3,3,0,1,1,2.93,2.75A2.8,2.8,0,0,1,173.31,17.16Zm.27,4.24h5.35V37h-5.35Z" fill="#fff"/><path d="M181.8,21.4h5.35v2.52A5.51,5.51,0,0,1,192.29,21c3,0,5.11,1.88,5.11,5.88V37h-5.35V28c0-1.76-.69-2.63-2.24-2.63s-2.66,1-2.66,3V37H181.8Z" fill="#fff"/><path d="M199.13,37h5.32c.24,1.13.93,2,2.87,2,2.37,0,3.32-1.34,3.32-3.29V33.39a5.47,5.47,0,0,1-4.84,2.87c-3.65,0-6.64-2.69-6.64-7.5v-.24c0-4.6,3-7.53,6.64-7.53a5.07,5.07,0,0,1,4.84,2.63V21.4H216V35.72c0,4.67-3.08,7.12-8.67,7.12C202,42.84,199.55,40.59,199.13,37Zm11.66-8.31v-.21c0-2.15-1.1-3.53-3.08-3.53s-3.08,1.41-3.08,3.56v.24c0,2.15,1.14,3.52,3.05,3.52S210.79,30.94,210.79,28.73Z" fill="#fff"/><path d="M224.87,32v-7H223V21.4h1.89V18.15h5.35V21.4h3.08v3.65h-3.08v6.46a1.43,1.43,0,0,0,1.58,1.64,4.09,4.09,0,0,0,1.53-.27V37a11.25,11.25,0,0,1-3,.45C226.84,37.4,224.87,35.69,224.87,32Z" fill="#fff"/><path d="M234.49,29.42v-.24c0-5,3.74-8.19,8.58-8.19s8.52,3.07,8.52,8v.24c0,5.08-3.74,8.13-8.55,8.13S234.49,34.47,234.49,29.42Zm11.66-.09v-.24c0-2.63-1.05-4.1-3.08-4.1S240,26.4,240,29v.24c0,2.69,1,4.15,3.11,4.15S246.15,31.93,246.15,29.33Z" fill="#fff"/><path d="M252.63,29.42v-.24c0-5,3.74-8.19,8.58-8.19s8.52,3.07,8.52,8v.24c0,5.08-3.74,8.13-8.55,8.13S252.63,34.47,252.63,29.42Zm11.66-.09v-.24c0-2.63-1.05-4.1-3.08-4.1s-3.11,1.41-3.11,4v.24c0,2.69,1,4.15,3.11,4.15S264.29,31.93,264.29,29.33Z" fill="#fff"/><path d="M277.05,21.4h5.35v2.4A5.46,5.46,0,0,1,287.3,21a4.25,4.25,0,0,1,4.25,2.6,6.17,6.17,0,0,1,5.17-2.6c3,0,5.11,1.91,5.11,5.82V37h-5.35V27.71c0-1.58-.78-2.36-2-2.36A2.32,2.32,0,0,0,292.09,28V37h-5.3V27.71c0-1.58-.77-2.36-2-2.36A2.32,2.32,0,0,0,282.4,28V37h-5.35Z" fill="#fff"/><path d="M304.31,31.6V21.4h5.35v9.33c0,1.76.69,2.63,2.21,2.63s2.66-1,2.66-3v-9h5.35V37h-5.35V34.62a5.14,5.14,0,0,1-5,2.78C306.55,37.4,304.31,35.54,304.31,31.6Z" fill="#fff"/><path d="M321.76,29.42v-.24c0-5.21,3.74-8.19,8.34-8.19,3.83,0,7.36,1.67,7.65,6.42h-5a2.31,2.31,0,0,0-2.51-2.27c-1.88,0-3,1.35-3,4v.24c0,2.72,1,4.12,3.08,4.12a2.6,2.6,0,0,0,2.72-2.6h4.81c-.15,3.95-2.81,6.52-7.86,6.52C325.32,37.4,321.76,34.68,321.76,29.42Z" fill="#fff"/><path d="M339.58,14.53h5.35v9.39A5.5,5.5,0,0,1,350.07,21c3,0,5.11,1.88,5.11,5.88V37h-5.35V28c0-1.76-.69-2.63-2.24-2.63s-2.66,1-2.66,3V37h-5.35Z" fill="#fff"/><path d="M364,25.05h-2V21.4h2V20c0-3.89,2.42-5.74,6.13-5.74a9.49,9.49,0,0,1,2.45.33v3.91a5.3,5.3,0,0,0-1.46-.2,1.57,1.57,0,0,0-1.8,1.7V21.4h3.17v3.65h-3.17V37H364Z" fill="#fff"/><path d="M372.93,29.42v-.24c0-5,3.74-8.19,8.58-8.19S390,24.06,390,29v.24c0,5.08-3.74,8.13-8.55,8.13S372.93,34.47,372.93,29.42Zm11.66-.09v-.24c0-2.63-1-4.1-3.08-4.1s-3.11,1.41-3.11,4v.24c0,2.69,1.05,4.15,3.11,4.15S384.59,31.93,384.59,29.33Z" fill="#fff"/><path d="M391.91,21.4h5.35v3.11a4.94,4.94,0,0,1,5.05-3.32v5c-3.26-.09-5.05.92-5.05,3.43V37h-5.35Z" fill="#fff"/><path d="M410.41,32v-7h-1.89V21.4h1.89V18.15h5.35V21.4h3.08v3.65h-3.08v6.46a1.43,1.43,0,0,0,1.58,1.64,4.09,4.09,0,0,0,1.53-.27V37a11.25,11.25,0,0,1-3,.45C412.38,37.4,410.41,35.69,410.41,32Z" fill="#fff"/><path d="M420,32.7c0-3.67,3.11-5.11,8.31-5.11h1.49v-.36c0-1.49-.35-2.48-2.06-2.48a1.92,1.92,0,0,0-2.12,1.86h-5c.24-3.77,3.2-5.62,7.47-5.62s7.06,1.76,7.06,5.91V37H430V35.21a5.11,5.11,0,0,1-4.63,2.19C422.51,37.4,420,36,420,32.7Zm9.8-1.13v-1h-1.4c-2.15,0-3.11.42-3.11,1.7,0,.9.6,1.47,1.85,1.47C428.7,33.78,429.83,32.91,429.83,31.57Z" fill="#fff"/><path d="M441.7,29.09l-4.87-7.69H443l2.43,4.13,2.36-4.13h5.5l-4.94,7.27L453.75,37h-6.16l-2.78-4.67L442,37H436.5Z" fill="#fff"/><path d="M460.68,21.4H466v2.34A5.5,5.5,0,0,1,470.9,21c3.65,0,6.61,2.75,6.61,8.1v.24c0,5.38-3,8.07-6.64,8.07A5.15,5.15,0,0,1,466,34.74v7.53h-5.35Zm11.39,7.93v-.24c0-2.75-1.2-4.07-3.08-4.07s-3.11,1.41-3.11,4v.24c0,2.66,1.16,4,3.11,4S472.07,31.9,472.07,29.33Z" fill="#fff"/><path d="M479.45,21.4h5.35v3.11a4.94,4.94,0,0,1,5.05-3.32v5c-3.26-.09-5.05.92-5.05,3.43V37h-5.35Z" fill="#fff"/><path d="M490.8,29.42v-.24c0-5,3.74-8.19,8.46-8.19,4.28,0,8,2.45,8,8.07v1.4h-11c.15,2.06,1.34,3.26,3.25,3.26s2.51-.81,2.72-1.85h5c-.48,3.52-3.2,5.53-7.93,5.53C494.39,37.4,490.8,34.53,490.8,29.42Zm11.21-2c-.09-1.88-1-2.93-2.75-2.93s-2.72,1-3,2.93Z" fill="#fff"/><path d="M509.07,21.4h5.35v2.34A5.5,5.5,0,0,1,519.29,21c3.65,0,6.61,2.75,6.61,8.1v.24c0,5.38-3,8.07-6.64,8.07a5.15,5.15,0,0,1-4.84-2.66v7.53h-5.35Zm11.39,7.93v-.24c0-2.75-1.2-4.07-3.08-4.07s-3.11,1.41-3.11,4v.24c0,2.66,1.16,4,3.11,4S520.46,31.9,520.46,29.33Z" fill="#fff"/><path d="M530.56,29.44c0-2.27,1.55-3.7,2.93-5,1-1,1.94-1.88,1.94-2.93a1.59,1.59,0,0,0-1.82-1.79c-1.29,0-2.16,1-2.37,2.63H526c.15-4.51,3.38-7,8-7s7.21,2.06,7.21,5.62a6.09,6.09,0,0,1-2.18,4.48c-1.47,1.46-3.17,2.63-3.44,4.09V30h-5.05Zm-.69,5a3.21,3.21,0,1,1,3.23,3A3.11,3.11,0,0,1,529.87,34.41Z" fill="#fff"/><path d="M126.06,56.29h-5.53V51.57h17.22v4.72h-5.53V72.94h-6.16Z" fill="#fff"/><path d="M138.61,57.31H144v3.11a4.93,4.93,0,0,1,5-3.32v5c-3.25-.09-5,.93-5,3.44v7.41h-5.35Z" fill="#fff"/><path d="M156.1,71.36l-6.25-14h5.8l3.23,8.34,3-8.34H167l-8.37,20.86H153.5Z" fill="#fff"/><path d="M174.27,51.57h9.53c5,0,7.21,2.27,7.21,5.59v.12a4.4,4.4,0,0,1-3.62,4.6,4.65,4.65,0,0,1,4.27,5V67c0,3.82-2.48,5.94-7.77,5.94h-9.62Zm8.31,8.49c1.91,0,2.63-.66,2.63-2.18v-.12c0-1.47-.78-2.12-2.63-2.12h-2.34v4.42Zm.21,8.79c1.94,0,2.83-.9,2.83-2.48v-.12c0-1.62-.86-2.45-3-2.45h-2.37v5Z" fill="#fff"/><path d="M193.78,50.43h5.32V72.94h-5.32Z" fill="#fff"/><path d="M201.13,65.32v-.24c0-5,3.74-8.19,8.58-8.19s8.52,3.08,8.52,8v.24c0,5.08-3.73,8.13-8.55,8.13S201.13,70.37,201.13,65.32Zm11.66-.09V65c0-2.63-1-4.09-3.08-4.09s-3.11,1.4-3.11,4v.24c0,2.69,1.05,4.16,3.11,4.16S212.79,67.83,212.79,65.23Z" fill="#fff"/><path d="M219.28,65.32v-.24c0-5.2,3.73-8.19,8.34-8.19,3.82,0,7.35,1.68,7.65,6.43h-5a2.31,2.31,0,0,0-2.51-2.27c-1.89,0-3,1.34-3,4v.24c0,2.72,1,4.13,3.08,4.13a2.61,2.61,0,0,0,2.72-2.6h4.81c-.15,3.94-2.81,6.51-7.86,6.51C222.83,73.3,219.28,70.58,219.28,65.32Z" fill="#fff"/><path d="M237.09,50.43h5.35V63.5l4.22-6.19h5.55l-5.11,7,5.53,8.61h-6l-4.22-6.84v6.84h-5.35Z" fill="#fff"/><path d="M253.68,70.25a3,3,0,0,1,3.05-3,3,3,0,1,1,0,6A3,3,0,0,1,253.68,70.25Z" fill="#fff"/></g></g></g></svg>