<svg xmlns="http://www.w3.org/2000/svg" viewBox="0 0 300 250"><title>Asset 1</title><g id="Layer_2" data-name="Layer 2"><g id="Rect"><rect width="300" height="250" fill="none"/></g><g id="Drop_off_work_with_a_pro_remotely_or_file_online._We_re_open" data-name="Drop off, work with a pro remotely, or file online. We’re open"><path d="M22.93,27.48h7.25c7.09,0,10.69,3.54,10.69,9.74v.22c0,6.23-3.68,10-10.72,10H22.93ZM30,43c3.4,0,4.91-1.78,4.91-5.49V37.3c0-3.79-1.51-5.41-5-5.41H28.67V43Z" fill="#fff"/><path d="M42.8,32.84h5v2.9a4.59,4.59,0,0,1,4.71-3.1V37.3c-3-.08-4.71.87-4.71,3.21v6.92h-5Z" fill="#fff"/><path d="M53.41,40.32v-.23c0-4.68,3.49-7.64,8-7.64s8,2.87,8,7.5v.23c0,4.74-3.49,7.59-8,7.59S53.41,45,53.41,40.32Zm10.88-.09V40c0-2.46-1-3.82-2.87-3.82s-2.9,1.31-2.9,3.76v.23c0,2.51,1,3.88,2.9,3.88S64.29,42.66,64.29,40.23Z" fill="#fff"/><path d="M71.13,32.84h5V35a5.15,5.15,0,0,1,4.55-2.56c3.4,0,6.17,2.56,6.17,7.56v.22c0,5-2.77,7.54-6.2,7.54a4.81,4.81,0,0,1-4.52-2.48v7h-5Zm10.64,7.39V40c0-2.57-1.12-3.8-2.88-3.8S76,37.53,76,40v.23c0,2.48,1.09,3.74,2.9,3.74S81.77,42.63,81.77,40.23Z" fill="#fff"/><path d="M93,40.32v-.23c0-4.68,3.49-7.64,8-7.64s8,2.87,8,7.5v.23c0,4.74-3.49,7.59-8,7.59S93,45,93,40.32Zm10.89-.09V40c0-2.46-1-3.82-2.88-3.82s-2.9,1.31-2.9,3.76v.23c0,2.51,1,3.88,2.9,3.88S103.85,42.66,103.85,40.23Z" fill="#fff"/><path d="M111.44,36.24H109.6v-3.4h1.84V31.72c0-3.63,2.23-5.33,5.7-5.33a8.25,8.25,0,0,1,2.23.28v3.66a4.12,4.12,0,0,0-1.34-.2,1.46,1.46,0,0,0-1.62,1.59v1.12h4.24V31.55c0-3.62,2.29-5.35,5.72-5.35a9.29,9.29,0,0,1,2.29.3v3.66a4.62,4.62,0,0,0-1.37-.2,1.46,1.46,0,0,0-1.64,1.59v1.29h3v3.4h-3V47.43h-5V36.24h-4.24V47.43h-5Z" fill="#fff"/><path d="M127.55,49.69l2.34-7.34L134.53,44l-4,6.84Z" fill="#fff"/><path d="M140.56,32.84h5.22l2.12,8.73,2.45-8.73h4l2.18,8.73,2.37-8.73h4.75L159,47.43h-4.77l-2.18-8.15-2.26,8.15H145Z" fill="#fff"/><path d="M163.53,40.32v-.23c0-4.68,3.49-7.64,8-7.64s8,2.87,8,7.5v.23c0,4.74-3.49,7.59-8,7.59S163.53,45,163.53,40.32Zm10.88-.09V40c0-2.46-1-3.82-2.87-3.82s-2.9,1.31-2.9,3.76v.23c0,2.51,1,3.88,2.9,3.88S174.41,42.66,174.41,40.23Z" fill="#fff"/><path d="M181.26,32.84h5v2.9a4.6,4.6,0,0,1,4.72-3.1V37.3c-3-.08-4.72.87-4.72,3.21v6.92h-5Z" fill="#fff"/><path d="M192.78,26.42h5v12.2l3.93-5.78h5.2l-4.78,6.56,5.17,8h-5.59L197.78,41v6.39h-5Z" fill="#fff"/><path d="M212.32,32.84h5.22l2.12,8.73,2.46-8.73h4l2.17,8.73,2.38-8.73h4.74L230.8,47.43H226l-2.18-8.15-2.26,8.15h-4.86Z" fill="#fff"/><path d="M236.61,28.88a2.61,2.61,0,0,1,2.73-2.6,2.59,2.59,0,1,1,0,5.16A2.58,2.58,0,0,1,236.61,28.88Zm.25,4h5V47.43h-5Z" fill="#fff"/><path d="M245.21,42.75V36.24h-1.76v-3.4h1.76v-3h5v3h2.88v3.4H250.2v6c0,1.06.53,1.54,1.48,1.54a3.71,3.71,0,0,0,1.42-.26v3.8a10.34,10.34,0,0,1-2.76.42C247.05,47.77,245.21,46.18,245.21,42.75Z" fill="#fff"/><path d="M255,26.42h5v8.76a5.16,5.16,0,0,1,4.8-2.73c2.82,0,4.77,1.76,4.77,5.5v9.48h-5V39c0-1.65-.64-2.46-2.09-2.46s-2.49.9-2.49,2.77v8.17h-5Z" fill="#fff"/><path d="M21.64,74.22c0-3.44,2.9-4.78,7.76-4.78h1.4v-.33c0-1.4-.34-2.32-1.93-2.32a1.79,1.79,0,0,0-2,1.73H22.2c.22-3.51,3-5.24,7-5.24s6.58,1.64,6.58,5.52v9.46H30.91v-1.7a4.8,4.8,0,0,1-4.33,2C24,78.6,21.64,77.31,21.64,74.22Zm9.16-1.06v-.9H29.48c-2,0-2.9.39-2.9,1.59,0,.84.56,1.37,1.73,1.37C29.74,75.22,30.8,74.41,30.8,73.16Z" fill="#fff"/><path d="M43.27,63.67h5v2.17a5.15,5.15,0,0,1,4.55-2.56c3.4,0,6.17,2.56,6.17,7.56v.22c0,5-2.77,7.54-6.2,7.54a4.81,4.81,0,0,1-4.52-2.49v7h-5Zm10.64,7.39v-.22c0-2.57-1.12-3.8-2.88-3.8s-2.9,1.32-2.9,3.77V71c0,2.48,1.09,3.73,2.9,3.73S53.91,73.46,53.91,71.06Z" fill="#fff"/><path d="M60.8,63.67h5v2.9a4.6,4.6,0,0,1,4.72-3.1v4.66c-3-.08-4.72.87-4.72,3.21v6.92h-5Z" fill="#fff"/><path d="M71.41,71.15v-.23c0-4.68,3.49-7.64,8-7.64s8,2.87,8,7.5V71c0,4.74-3.49,7.59-8,7.59S71.41,75.86,71.41,71.15Zm10.89-.09v-.22c0-2.46-1-3.82-2.88-3.82s-2.9,1.31-2.9,3.76V71c0,2.51,1,3.88,2.9,3.88S82.3,73.49,82.3,71.06Z" fill="#fff"/><path d="M94.22,63.67h5v2.9a4.61,4.61,0,0,1,4.72-3.1v4.66c-3-.08-4.72.87-4.72,3.21v6.92h-5Z" fill="#fff"/><path d="M104.83,71.15v-.23c0-4.68,3.48-7.64,7.89-7.64,4,0,7.43,2.29,7.43,7.53v1.31H109.88a2.91,2.91,0,0,0,3,3c1.65,0,2.34-.76,2.54-1.73h4.69c-.45,3.29-3,5.16-7.4,5.16C108.18,78.6,104.83,75.92,104.83,71.15Zm10.46-1.84c-.08-1.76-1-2.74-2.57-2.74s-2.54,1-2.79,2.74Z" fill="#fff"/><path d="M121.88,63.67h5V65.9a5.08,5.08,0,0,1,4.58-2.62,4,4,0,0,1,4,2.43,5.75,5.75,0,0,1,4.83-2.43c2.76,0,4.77,1.78,4.77,5.44v9.54h-5v-8.7c0-1.48-.72-2.21-1.87-2.21a2.17,2.17,0,0,0-2.23,2.46v8.45H131v-8.7c0-1.48-.73-2.21-1.87-2.21a2.17,2.17,0,0,0-2.23,2.46v8.45h-5Z" fill="#fff"/><path d="M146.67,71.15v-.23c0-4.68,3.49-7.64,8-7.64s7.95,2.87,7.95,7.5V71c0,4.74-3.48,7.59-8,7.59S146.67,75.86,146.67,71.15Zm10.88-.09v-.22c0-2.46-1-3.82-2.87-3.82s-2.9,1.31-2.9,3.76V71c0,2.51,1,3.88,2.9,3.88S157.55,73.49,157.55,71.06Z" fill="#fff"/><path d="M165.07,73.58V67.07h-1.76v-3.4h1.76v-3h5v3h2.88v3.4h-2.88v6c0,1.06.53,1.54,1.48,1.54a3.71,3.71,0,0,0,1.42-.26v3.8a10.34,10.34,0,0,1-2.76.42C166.91,78.6,165.07,77,165.07,73.58Z" fill="#fff"/><path d="M174.05,71.15v-.23c0-4.68,3.49-7.64,7.9-7.64,4,0,7.43,2.29,7.43,7.53v1.31H179.11a2.91,2.91,0,0,0,3,3c1.64,0,2.34-.76,2.54-1.73h4.69c-.45,3.29-3,5.16-7.4,5.16C177.4,78.6,174.05,75.92,174.05,71.15Zm10.47-1.84c-.08-1.76-1-2.74-2.57-2.74s-2.54,1-2.79,2.74Z" fill="#fff"/><path d="M191.25,57.25h5v21h-5Z" fill="#fff"/><path d="M203.47,76.78l-5.83-13.11h5.42l3,7.78,2.79-7.78h4.77l-7.81,19.48h-4.77Z" fill="#fff"/><path d="M211.74,80.52l2.34-7.34,4.63,1.65-4,6.84Z" fill="#fff"/><path d="M225.19,71.15v-.23c0-4.68,3.49-7.64,8-7.64s8,2.87,8,7.5V71c0,4.74-3.49,7.59-8,7.59S225.19,75.86,225.19,71.15Zm10.89-.09v-.22c0-2.46-1-3.82-2.88-3.82s-2.9,1.31-2.9,3.76V71c0,2.51,1,3.88,2.9,3.88S236.08,73.49,236.08,71.06Z" fill="#fff"/><path d="M242.92,63.67h5v2.9a4.6,4.6,0,0,1,4.72-3.1v4.66c-3-.08-4.72.87-4.72,3.21v6.92h-5Z" fill="#fff"/><path d="M23.23,97.9H21.39V94.5h1.84V93.21c0-3.62,2.26-5.36,5.72-5.36a8.74,8.74,0,0,1,2.29.31v3.66a4.6,4.6,0,0,0-1.36-.2,1.47,1.47,0,0,0-1.68,1.59V94.5h3v3.4h-3v11.19h-5Z" fill="#fff"/><path d="M32.72,90.53a2.76,2.76,0,1,1,2.74,2.57A2.61,2.61,0,0,1,32.72,90.53Zm.25,4h5v14.59H33Z" fill="#fff"/><path d="M40.79,88.08h5v21h-5Z" fill="#fff"/><path d="M47.66,102v-.23c0-4.69,3.49-7.64,7.9-7.64,4,0,7.42,2.29,7.42,7.53V103H52.71a2.91,2.91,0,0,0,3,3c1.65,0,2.34-.76,2.54-1.73H63c-.45,3.29-3,5.16-7.4,5.16C51,109.43,47.66,106.75,47.66,102Zm10.46-1.85c-.08-1.75-.95-2.73-2.56-2.73s-2.54,1-2.8,2.73Z" fill="#fff"/><path d="M69,102v-.23c0-4.69,3.49-7.64,8-7.64s8,2.87,8,7.5v.23c0,4.74-3.48,7.59-8,7.59S69,106.69,69,102Zm10.89-.09v-.22c0-2.46-1-3.82-2.88-3.82s-2.9,1.31-2.9,3.76v.23c0,2.51,1,3.88,2.9,3.88S79.9,104.32,79.9,101.89Z" fill="#fff"/><path d="M86.74,94.5h5v2.34a5.14,5.14,0,0,1,4.8-2.73c2.82,0,4.78,1.75,4.78,5.49v9.49h-5v-8.48c0-1.65-.64-2.46-2.09-2.46s-2.49.9-2.49,2.77v8.17h-5Z" fill="#fff"/><path d="M103.88,88.08h5v21h-5Z" fill="#fff"/><path d="M111.41,90.53a2.76,2.76,0,1,1,2.74,2.57A2.61,2.61,0,0,1,111.41,90.53Zm.25,4h5v14.59h-5Z" fill="#fff"/><path d="M119.34,94.5h5v2.34a5.14,5.14,0,0,1,4.8-2.73c2.82,0,4.77,1.75,4.77,5.49v9.49h-5v-8.48c0-1.65-.64-2.46-2.09-2.46s-2.48.9-2.48,2.77v8.17h-5Z" fill="#fff"/><path d="M135.56,102v-.23c0-4.69,3.49-7.64,7.9-7.64,4,0,7.42,2.29,7.42,7.53V103H140.61a2.92,2.92,0,0,0,3,3c1.65,0,2.35-.76,2.54-1.73h4.69c-.45,3.29-3,5.16-7.4,5.16C138.91,109.43,135.56,106.75,135.56,102ZM146,100.13c-.08-1.75-.94-2.73-2.56-2.73s-2.54,1-2.79,2.73Z" fill="#fff"/><path d="M152.28,106.58a2.79,2.79,0,0,1,2.85-2.82,2.82,2.82,0,1,1,0,5.64A2.79,2.79,0,0,1,152.28,106.58Z" fill="#fff"/><path d="M164.39,89.14h5.78l2.57,12.45,2.68-12.45h5.08l2.9,12.56,2.71-12.56h5.3l-4.66,20h-6l-3.07-12.67-3.1,12.67H169Z" fill="#fff"/><path d="M190.77,102v-.23c0-4.69,3.49-7.64,7.9-7.64,4,0,7.43,2.29,7.43,7.53V103H195.83a2.91,2.91,0,0,0,3,3c1.64,0,2.34-.76,2.54-1.73h4.69c-.45,3.29-3,5.16-7.4,5.16C194.12,109.43,190.77,106.75,190.77,102Zm10.47-1.85c-.08-1.75-1-2.73-2.57-2.73s-2.54,1-2.79,2.73Z" fill="#fff"/><path d="M206.6,96.06l2.23-7.28,4.41,1.48-3.82,6.89Z" fill="#fff"/><path d="M213.41,94.5h5v2.9a4.59,4.59,0,0,1,4.72-3.1V99c-3-.08-4.72.87-4.72,3.21v6.92h-5Z" fill="#fff"/><path d="M224,102v-.23c0-4.69,3.49-7.64,7.9-7.64,4,0,7.42,2.29,7.42,7.53V103H229.07a2.92,2.92,0,0,0,3,3c1.65,0,2.35-.76,2.54-1.73h4.69c-.44,3.29-3,5.16-7.39,5.16C227.37,109.43,224,106.75,224,102Zm10.47-1.85c-.09-1.75-1-2.73-2.57-2.73s-2.54,1-2.79,2.73Z" fill="#fff"/><path d="M21.7,132.81v-.23c0-4.69,3.49-7.64,8-7.64s7.95,2.87,7.95,7.5v.23c0,4.74-3.49,7.59-8,7.59S21.7,137.52,21.7,132.81Zm10.88-.09v-.22c0-2.46-1-3.82-2.87-3.82S26.8,130,26.8,132.44v.23c0,2.51,1,3.88,2.91,3.88S32.58,135.15,32.58,132.72Z" fill="#fff"/><path d="M39.42,125.33h5v2.17A5.15,5.15,0,0,1,49,124.94c3.4,0,6.17,2.56,6.17,7.56v.22c0,5-2.77,7.54-6.2,7.54a4.79,4.79,0,0,1-4.52-2.49v7h-5Zm10.64,7.39v-.22c0-2.57-1.12-3.8-2.88-3.8s-2.9,1.32-2.9,3.77v.22c0,2.49,1.09,3.74,2.9,3.74S50.06,135.12,50.06,132.72Z" fill="#fff"/><path d="M56.17,132.81v-.23c0-4.69,3.49-7.64,7.9-7.64,4,0,7.42,2.28,7.42,7.53v1.31H61.22a2.92,2.92,0,0,0,3,3.05c1.64,0,2.34-.76,2.53-1.74h4.69c-.44,3.3-3,5.17-7.39,5.17C59.52,140.26,56.17,137.58,56.17,132.81ZM66.64,131c-.09-1.75-1-2.73-2.57-2.73s-2.54,1-2.79,2.73Z" fill="#fff"/><path d="M73.23,125.33h5v2.34a5.14,5.14,0,0,1,4.8-2.73c2.82,0,4.77,1.75,4.77,5.49v9.49h-5v-8.48c0-1.65-.64-2.46-2.09-2.46s-2.49.9-2.49,2.77v8.17h-5Z" fill="#fff"/><path d="M94.47,135.88c0-3.44,2.9-4.78,7.76-4.78h1.39v-.33c0-1.4-.33-2.32-1.92-2.32a1.79,1.79,0,0,0-2,1.73H95c.22-3.51,3-5.24,7-5.24s6.59,1.64,6.59,5.52v9.46h-4.86v-1.7a4.78,4.78,0,0,1-4.32,2C96.79,140.26,94.47,139,94.47,135.88Zm9.15-1.06v-.9h-1.31c-2,0-2.9.39-2.9,1.59,0,.84.56,1.37,1.73,1.37A2.2,2.2,0,0,0,103.62,134.82Z" fill="#fff"/><path d="M111,125.33h5v2.34a5.14,5.14,0,0,1,4.8-2.73c2.82,0,4.77,1.75,4.77,5.49v9.49h-5v-8.48c0-1.65-.65-2.46-2.1-2.46s-2.48.9-2.48,2.77v8.17h-5Z" fill="#fff"/><path d="M127.3,132.78v-.23c0-5,2.73-7.61,6.19-7.61a4.74,4.74,0,0,1,4.5,2.45v-8.48h5v21h-5v-2.37a4.93,4.93,0,0,1-4.55,2.71C130.06,140.26,127.3,137.83,127.3,132.78Zm10.83-.09v-.22c0-2.45-1-3.77-2.88-3.77s-2.87,1.26-2.87,3.8v.22c0,2.46,1.08,3.71,2.81,3.71S138.13,135.18,138.13,132.69Z" fill="#fff"/><path d="M149.77,135.88c0-3.44,2.9-4.78,7.76-4.78h1.39v-.33c0-1.4-.33-2.32-1.92-2.32a1.8,1.8,0,0,0-2,1.73h-4.68c.22-3.51,3-5.24,7-5.24s6.59,1.64,6.59,5.52v9.46H159v-1.7a4.79,4.79,0,0,1-4.32,2C152.08,140.26,149.77,139,149.77,135.88Zm9.15-1.06v-.9h-1.31c-2,0-2.9.39-2.9,1.59,0,.84.55,1.37,1.73,1.37A2.2,2.2,0,0,0,158.92,134.82Z" fill="#fff"/><path d="M164.64,125.33H170l3.05,9.4,3-9.4h4.78l-5.34,14.59H170Z" fill="#fff"/><path d="M180.58,135.88c0-3.44,2.91-4.78,7.76-4.78h1.4v-.33c0-1.4-.34-2.32-1.93-2.32a1.8,1.8,0,0,0-2,1.73h-4.69c.23-3.51,3-5.24,7-5.24s6.59,1.64,6.59,5.52v9.46h-4.86v-1.7a4.8,4.8,0,0,1-4.33,2C182.9,140.26,180.58,139,180.58,135.88Zm9.16-1.06v-.9h-1.31c-2,0-2.91.39-2.91,1.59,0,.84.56,1.37,1.73,1.37C188.68,136.88,189.74,136.07,189.74,134.82Z" fill="#fff"/><path d="M197,121.36a2.76,2.76,0,1,1,2.74,2.57A2.61,2.61,0,0,1,197,121.36Zm.26,4h5v14.59h-5Z" fill="#fff"/><path d="M205.09,118.91h5v21h-5Z" fill="#fff"/><path d="M211.9,135.88c0-3.44,2.9-4.78,7.76-4.78h1.4v-.33c0-1.4-.34-2.32-1.93-2.32a1.79,1.79,0,0,0-2,1.73h-4.69c.22-3.51,3-5.24,7-5.24s6.58,1.64,6.58,5.52v9.46h-4.85v-1.7a4.8,4.8,0,0,1-4.33,2C214.22,140.26,211.9,139,211.9,135.88Zm9.16-1.06v-.9h-1.31c-2,0-2.91.39-2.91,1.59,0,.84.56,1.37,1.73,1.37C220,136.88,221.06,136.07,221.06,134.82Z" fill="#fff"/><path d="M233.45,137.66v2.26h-5v-21h5v8.59a5.17,5.17,0,0,1,4.55-2.56c3.41,0,6.17,2.56,6.17,7.56v.22c0,5-2.76,7.54-6.2,7.54A4.73,4.73,0,0,1,233.45,137.66Zm5.64-4.94v-.22c0-2.57-1.12-3.8-2.88-3.8s-2.9,1.32-2.9,3.77v.22c0,2.49,1.09,3.74,2.9,3.74S239.09,135.12,239.09,132.72Z" fill="#fff"/><path d="M246.13,118.91h5v21h-5Z" fill="#fff"/><path d="M253,132.81v-.23c0-4.69,3.49-7.64,7.9-7.64,4,0,7.42,2.28,7.42,7.53v1.31H258a2.92,2.92,0,0,0,3,3.05c1.64,0,2.34-.76,2.54-1.74h4.68c-.44,3.3-3,5.17-7.39,5.17C256.34,140.26,253,137.58,253,132.81ZM263.46,131c-.08-1.75-.95-2.73-2.57-2.73s-2.54,1-2.79,2.73Z" fill="#fff"/><path d="M269.71,137.41a2.79,2.79,0,0,1,2.85-2.82,2.82,2.82,0,1,1,0,5.64A2.79,2.79,0,0,1,269.71,137.41Z" fill="#fff"/></g></g></svg>