<svg xmlns="http://www.w3.org/2000/svg" viewBox="0 0 300 250"><title>H3</title><g id="Layer_2" data-name="Layer 2"><g id="Rect"><rect width="300" height="250" fill="none"/></g><g id="H3"><g id="You_could_get_a_Refund_Advance_loan_up_to_3_500._Starting_Jan" data-name="You could get a Refund Advance loan up to $3,500. Starting Jan"><path d="M27.47,27.85,20.25,15.17h6.91l3.75,7.48,3.76-7.48h6.07L33.86,27.85v9.49H27.47Z" fill="#fff"/><path d="M38.41,29.44v-.25c0-5.21,3.88-8.5,8.9-8.5s8.84,3.2,8.84,8.34v.25c0,5.27-3.88,8.43-8.87,8.43S38.41,34.68,38.41,29.44Zm12.1-.1V29.1c0-2.73-1.09-4.25-3.2-4.25S44.09,26.3,44.09,29v.25c0,2.79,1.08,4.31,3.22,4.31S50.51,32,50.51,29.34Z" fill="#fff"/><path d="M58,31.7V21.13h5.54V30.8c0,1.83.72,2.73,2.3,2.73s2.76-1,2.76-3.07V21.13h5.55V37.34H68.58V34.83a5.32,5.32,0,0,1-5.15,2.88C60.3,37.71,58,35.79,58,31.7Z" fill="#fff"/><path d="M81.72,29.44v-.25c0-5.4,3.88-8.5,8.65-8.5,4,0,7.63,1.74,7.94,6.67H93.1A2.4,2.4,0,0,0,90.5,25c-2,0-3.11,1.4-3.11,4.13v.24c0,2.83,1.09,4.28,3.2,4.28A2.7,2.7,0,0,0,93.41,31h5c-.15,4.09-2.91,6.75-8.15,6.75C85.41,37.71,81.72,34.89,81.72,29.44Z" fill="#fff"/><path d="M99.33,29.44v-.25c0-5.21,3.87-8.5,8.9-8.5s8.83,3.2,8.83,8.34v.25c0,5.27-3.87,8.43-8.86,8.43S99.33,34.68,99.33,29.44Zm12.09-.1V29.1c0-2.73-1.09-4.25-3.19-4.25S105,26.3,105,29v.25c0,2.79,1.09,4.31,3.23,4.31S111.42,32,111.42,29.34Z" fill="#fff"/><path d="M118.89,31.7V21.13h5.55V30.8c0,1.83.71,2.73,2.29,2.73s2.76-1,2.76-3.07V21.13H135V37.34h-5.55V34.83a5.32,5.32,0,0,1-5.14,2.88C121.21,37.71,118.89,35.79,118.89,31.7Z" fill="#fff"/><path d="M138,14h5.51V37.34H138Z" fill="#fff"/><path d="M145.7,29.41v-.25c0-5.52,3-8.47,6.89-8.47a5.26,5.26,0,0,1,5,2.73V14h5.55V37.34h-5.55V34.71a5.48,5.48,0,0,1-5.06,3C148.77,37.71,145.7,35,145.7,29.41Zm12-.1v-.25c0-2.72-1.14-4.18-3.19-4.18s-3.19,1.39-3.19,4.22v.24c0,2.73,1.21,4.13,3.13,4.13S157.73,32.07,157.73,29.31Z" fill="#fff"/><path d="M170.69,37.34h5.52c.25,1.18,1,2.11,3,2.11,2.45,0,3.45-1.39,3.45-3.41V33.56a5.7,5.7,0,0,1-5,3c-3.78,0-6.88-2.79-6.88-7.79v-.24c0-4.78,3.07-7.82,6.88-7.82a5.29,5.29,0,0,1,5,2.73V21.13h5.55V36c0,4.84-3.2,7.38-9,7.38C173.67,43.36,171.12,41,170.69,37.34Zm12.09-8.62v-.21c0-2.24-1.15-3.66-3.19-3.66s-3.2,1.45-3.2,3.69v.25c0,2.23,1.18,3.65,3.17,3.65S182.78,31,182.78,28.72Z" fill="#fff"/><path d="M190.12,29.44v-.25c0-5.21,3.88-8.5,8.78-8.5,4.43,0,8.25,2.54,8.25,8.37v1.46H195.74c.15,2.14,1.39,3.38,3.38,3.38,1.83,0,2.6-.84,2.82-1.92h5.21c-.5,3.66-3.32,5.73-8.22,5.73C193.85,37.71,190.12,34.74,190.12,29.44Zm11.63-2.05c-.09-1.95-1.05-3-2.85-3s-2.82,1.09-3.1,3Z" fill="#fff"/><path d="M209.81,32.13V24.91h-1.95V21.13h1.95V17.75h5.55v3.38h3.19v3.78h-3.19v6.7a1.48,1.48,0,0,0,1.64,1.7,4.12,4.12,0,0,0,1.58-.28v4.22a11.43,11.43,0,0,1-3.06.46C211.86,37.71,209.81,36,209.81,32.13Z" fill="#fff"/><path d="M225.37,32.85c0-3.82,3.23-5.31,8.62-5.31h1.55v-.37c0-1.55-.37-2.57-2.14-2.57a2,2,0,0,0-2.2,1.92H226c.25-3.91,3.32-5.83,7.75-5.83s7.32,1.83,7.32,6.14V37.34h-5.39V35.45a5.34,5.34,0,0,1-4.81,2.26C228,37.71,225.37,36.29,225.37,32.85Zm10.17-1.18v-1h-1.46c-2.23,0-3.22.43-3.22,1.76,0,.93.62,1.52,1.92,1.52C234.36,34,235.54,33.06,235.54,31.67Z" fill="#fff"/><path d="M22.14,48.17h8.68c5.8,0,9,2.36,9,7v.13a5.79,5.79,0,0,1-4,5.83l5.31,9.17h-6.7L30,62.41H28.46v7.93H22.14Zm8.37,10.11c2.14,0,3.19-.9,3.19-2.7v-.12c0-1.8-1.11-2.51-3.16-2.51H28.46v5.33Z" fill="#fff"/><path d="M41.14,62.44v-.25c0-5.21,3.88-8.5,8.78-8.5,4.43,0,8.24,2.54,8.24,8.37v1.46H46.75c.16,2.14,1.4,3.38,3.38,3.38C52,66.9,52.74,66.06,53,65h5.2c-.49,3.66-3.31,5.73-8.21,5.73C44.86,70.71,41.14,67.74,41.14,62.44Zm11.63-2c-.09-2-1.06-3-2.85-3s-2.82,1.09-3.1,3Z" fill="#fff"/><path d="M60.92,57.91H58.87V54.13h2.05V52.7c0-4,2.51-6,6.36-6a9.76,9.76,0,0,1,2.54.34v4.06a5.21,5.21,0,0,0-1.52-.22,1.63,1.63,0,0,0-1.86,1.77v1.43h3.29v3.78H66.44V70.34H60.92Z" fill="#fff"/><path d="M71.46,64.7V54.13H77V63.8c0,1.83.71,2.73,2.29,2.73s2.76-1,2.76-3.07V54.13h5.55V70.34H82.06V67.83a5.31,5.31,0,0,1-5.14,2.88C73.79,70.71,71.46,68.79,71.46,64.7Z" fill="#fff"/><path d="M90.43,54.13H96v2.6a5.74,5.74,0,0,1,5.33-3c3.14,0,5.31,2,5.31,6.11V70.34h-5.55V60.92c0-1.83-.72-2.73-2.33-2.73S96,59.18,96,61.26v9.08H90.43Z" fill="#fff"/><path d="M108.5,62.41v-.25c0-5.52,3-8.47,6.89-8.47a5.26,5.26,0,0,1,5,2.73V47h5.55V70.34h-5.55V67.71a5.47,5.47,0,0,1-5,3C111.57,70.71,108.5,68,108.5,62.41Zm12-.1v-.25c0-2.72-1.14-4.18-3.19-4.18s-3.19,1.39-3.19,4.22v.24c0,2.73,1.21,4.13,3.13,4.13S120.53,65.07,120.53,62.31Z" fill="#fff"/><path d="M140.25,48.17h8.22l7,22.17h-6.72l-1.18-4.12h-7.35l-1.18,4.12h-5.92Zm1.24,13.68h4.87l-2.42-8.53Z" fill="#fff"/><path d="M155.87,62.41v-.25c0-5.52,3-8.47,6.88-8.47a5.27,5.27,0,0,1,5,2.73V47h5.55V70.34h-5.55V67.71a5.48,5.48,0,0,1-5.06,3C158.94,70.71,155.87,68,155.87,62.41Zm12-.1v-.25c0-2.72-1.15-4.18-3.19-4.18s-3.2,1.39-3.2,4.22v.24c0,2.73,1.21,4.13,3.14,4.13S167.9,65.07,167.9,62.31Z" fill="#fff"/><path d="M174.72,54.13h5.92L184,64.58l3.32-10.45h5.3l-5.92,16.21h-6.05Z" fill="#fff"/><path d="M192.42,65.85c0-3.82,3.23-5.31,8.62-5.31h1.55v-.37c0-1.55-.37-2.57-2.14-2.57a2,2,0,0,0-2.2,1.92H193c.25-3.91,3.32-5.83,7.75-5.83s7.32,1.83,7.32,6.14V70.34h-5.4V68.45a5.31,5.31,0,0,1-4.8,2.26C195,70.71,192.42,69.29,192.42,65.85Zm10.17-1.18v-1h-1.46c-2.23,0-3.22.43-3.22,1.76,0,.93.62,1.52,1.92,1.52C201.41,67,202.59,66.06,202.59,64.67Z" fill="#fff"/><path d="M210.8,54.13h5.55v2.6a5.74,5.74,0,0,1,5.34-3c3.13,0,5.3,2,5.3,6.11V70.34h-5.55V60.92c0-1.83-.71-2.73-2.33-2.73s-2.76,1-2.76,3.07v9.08H210.8Z" fill="#fff"/><path d="M228.81,62.44v-.25c0-5.4,3.88-8.5,8.65-8.5,4,0,7.63,1.74,7.94,6.67h-5.21a2.39,2.39,0,0,0-2.6-2.36c-2,0-3.1,1.4-3.1,4.13v.24c0,2.83,1.08,4.28,3.19,4.28A2.69,2.69,0,0,0,240.5,64h5c-.16,4.09-2.92,6.75-8.16,6.75C232.5,70.71,228.81,67.89,228.81,62.44Z" fill="#fff"/><path d="M246.42,62.44v-.25c0-5.21,3.88-8.5,8.78-8.5,4.43,0,8.24,2.54,8.24,8.37v1.46H252c.16,2.14,1.4,3.38,3.38,3.38s2.61-.84,2.83-1.92h5.2c-.49,3.66-3.31,5.73-8.21,5.73C250.14,70.71,246.42,67.74,246.42,62.44Zm11.63-2c-.09-2-1.05-3-2.85-3s-2.82,1.09-3.1,3Z" fill="#fff"/><path d="M21.8,80h5.52v23.34H21.8Z" fill="#fff"/><path d="M29.42,95.44v-.25c0-5.21,3.88-8.5,8.9-8.5s8.84,3.2,8.84,8.34v.25c0,5.27-3.88,8.43-8.87,8.43S29.42,100.68,29.42,95.44Zm12.1-.1V95.1c0-2.73-1.09-4.25-3.2-4.25S35.1,92.3,35.1,95v.25c0,2.79,1.08,4.31,3.22,4.31S41.52,98,41.52,95.34Z" fill="#fff"/><path d="M48.18,98.85c0-3.82,3.22-5.31,8.62-5.31h1.55v-.37c0-1.55-.37-2.57-2.14-2.57A2,2,0,0,0,54,92.52H48.8c.25-3.91,3.32-5.83,7.75-5.83s7.32,1.83,7.32,6.14v10.51h-5.4v-1.89a5.31,5.31,0,0,1-4.8,2.26C50.75,103.71,48.18,102.29,48.18,98.85Zm10.17-1.18v-1H56.89c-2.23,0-3.22.43-3.22,1.76,0,.93.62,1.52,1.92,1.52C57.17,100,58.35,99.06,58.35,97.67Z" fill="#fff"/><path d="M66.56,87.13h5.55v2.6a5.74,5.74,0,0,1,5.33-3c3.14,0,5.31,2,5.31,6.11v10.54H77.2V93.92c0-1.83-.72-2.73-2.33-2.73s-2.76,1-2.76,3.07v9.08H66.56Z" fill="#fff"/><path d="M91,97.7V87.13h5.55V96.8c0,1.83.71,2.73,2.29,2.73s2.76-1,2.76-3.07V87.13h5.55v16.21h-5.55v-2.51a5.32,5.32,0,0,1-5.14,2.88C93.28,103.71,91,101.79,91,97.7Z" fill="#fff"/><path d="M109.93,87.13h5.55v2.41a5.71,5.71,0,0,1,5-2.85c3.79,0,6.86,2.85,6.86,8.41v.24c0,5.58-3.07,8.37-6.89,8.37a5.34,5.34,0,0,1-5-2.75v7.81h-5.55Zm11.81,8.21V95.1c0-2.86-1.24-4.22-3.19-4.22s-3.23,1.46-3.23,4.18v.25c0,2.76,1.21,4.16,3.23,4.16S121.74,98,121.74,95.34Z" fill="#fff"/><path d="M135.78,98.13V90.91h-1.95V87.13h1.95V83.75h5.55v3.38h3.2v3.78h-3.2v6.7a1.48,1.48,0,0,0,1.65,1.7,4.16,4.16,0,0,0,1.58-.28v4.22a11.58,11.58,0,0,1-3.07.46C137.83,103.71,135.78,102,135.78,98.13Z" fill="#fff"/><path d="M145.76,95.44v-.25c0-5.21,3.88-8.5,8.9-8.5s8.84,3.2,8.84,8.34v.25c0,5.27-3.88,8.43-8.87,8.43S145.76,100.68,145.76,95.44Zm12.1-.1V95.1c0-2.73-1.09-4.25-3.2-4.25s-3.22,1.45-3.22,4.18v.25c0,2.79,1.08,4.31,3.22,4.31S157.86,98,157.86,95.34Z" fill="#fff"/><path d="M174.65,93.2c-3.12-.22-4.64-1.88-4.77-4.26h3.34a1.7,1.7,0,0,0,1.43,1.69V88c-3.14-.45-4.48-1.59-4.48-4.1,0-2.19,1.72-3.76,4.48-4V78.33h1.41V80c2.62.21,4.17,1.42,4.39,3.9h-3.27a1.45,1.45,0,0,0-1.12-1.36V85c2.76.4,4.57,1.33,4.57,4,0,2.21-1.43,4-4.57,4.25v2.26h-1.41Zm0-8.42V82.47c-.81.14-1.23.58-1.23,1.15S173.68,84.58,174.65,84.78Zm1.41,3.45v2.4a1.29,1.29,0,0,0,1.21-1.28C177.27,88.76,177,88.45,176.06,88.23Z" fill="#fff"/><path d="M181.74,96.06h5.64c.19,1.83,1.06,3.07,3.26,3.07,2,0,2.91-.93,2.91-2.52s-.93-2.6-2.91-2.6h-1.77V90.07h1.64c2,0,3-.9,3-2.45,0-1.33-.87-2.2-2.54-2.2s-2.7,1-2.95,2.82h-5.61c.28-4.37,3.19-7.38,8.71-7.38,5.21,0,8.34,2.39,8.34,6.08a4.74,4.74,0,0,1-3.75,4.78,5,5,0,0,1,4.31,5c0,4.22-3.13,7-9,7C184.81,103.71,181.92,100.86,181.74,96.06Z" fill="#fff"/><path d="M200.49,105.85l2.61-8.15,5.14,1.83-4.46,7.6Z" fill="#fff"/><path d="M209.27,96.37H215c.22,1.55.84,2.57,2.89,2.57,1.83,0,2.66-1.36,2.66-3.13,0-2-1.08-3.16-3-3.16a4.52,4.52,0,0,0-3.66,1.58h-3.79l.47-13.06h14.94v4.65H215.19l-.13,4.9a5.91,5.91,0,0,1,5.18-2.35c4.06,0,6.73,2.73,6.73,7.53s-3.38,7.81-9,7.81C212.09,103.71,209.42,100.52,209.27,96.37Z" fill="#fff"/><path d="M228.52,92.74v-.93c0-7,4.37-11,10.23-11S249,84.49,249,91.68v.87c0,7-4,11.16-10.35,11.16S228.52,99.71,228.52,92.74Zm14.1-.06v-.9c0-4.06-1.17-6.11-3.87-6.11s-3.88,2-3.88,6.11v.93c0,4.12,1.21,6.07,3.94,6.07S242.62,96.77,242.62,92.68Z" fill="#fff"/><path d="M250.74,92.74v-.93c0-7,4.38-11,10.24-11s10.23,3.63,10.23,10.82v.87c0,7-4,11.16-10.36,11.16S250.74,99.71,250.74,92.74Zm14.11-.06v-.9c0-4.06-1.18-6.11-3.87-6.11s-3.88,2-3.88,6.11v.93c0,4.12,1.21,6.07,3.94,6.07S264.85,96.77,264.85,92.68Z" fill="#fff"/><path d="M271.73,100.55a3.1,3.1,0,0,1,3.16-3.13,3.13,3.13,0,1,1,0,6.26A3.09,3.09,0,0,1,271.73,100.55Z" fill="#fff"/><path d="M20.71,129.3h6.05c.15,1.59.87,2.89,3.5,2.89,1.83,0,2.86-.9,2.86-2.2s-.84-1.74-3.51-2.14c-6.26-.75-8.37-2.61-8.37-7.07,0-4,3.29-6.92,8.59-6.92s8.34,2.24,8.74,6.92H32.68a2.52,2.52,0,0,0-2.85-2.39c-1.71,0-2.57.78-2.57,1.89s.68,1.8,3.44,2.17c5.61.62,8.49,2.08,8.49,6.88,0,4.07-3.22,7.38-8.93,7.38C24.06,136.71,20.9,134.11,20.71,129.3Z" fill="#fff"/><path d="M42,131.13v-7.22H40v-3.78H42v-3.38h5.55v3.38h3.19v3.78H47.53v6.7c0,1.18.59,1.7,1.64,1.7a4.12,4.12,0,0,0,1.58-.28v4.22a11.44,11.44,0,0,1-3.07.46C44,136.71,42,135,42,131.13Z" fill="#fff"/><path d="M52,131.85c0-3.82,3.23-5.31,8.62-5.31h1.55v-.37c0-1.55-.37-2.57-2.14-2.57a2,2,0,0,0-2.2,1.92H52.58c.25-3.91,3.32-5.83,7.75-5.83s7.32,1.83,7.32,6.14v10.51h-5.4v-1.89a5.31,5.31,0,0,1-4.8,2.26C54.53,136.71,52,135.29,52,131.85Zm10.17-1.18v-1H60.67c-2.23,0-3.22.43-3.22,1.76,0,.93.62,1.52,1.92,1.52C61,133,62.13,132.06,62.13,130.67Z" fill="#fff"/><path d="M70.34,120.13h5.55v3.22a5.11,5.11,0,0,1,5.24-3.44v5.18c-3.38-.1-5.24,1-5.24,3.56v7.69H70.34Z" fill="#fff"/><path d="M84.14,131.13v-7.22h-2v-3.78h2v-3.38h5.55v3.38h3.19v3.78H89.69v6.7c0,1.18.59,1.7,1.64,1.7a4.12,4.12,0,0,0,1.58-.28v4.22a11.44,11.44,0,0,1-3.07.46C86.18,136.71,84.14,135,84.14,131.13Z" fill="#fff"/><path d="M94.86,115.72a3.06,3.06,0,1,1,3,2.86A2.9,2.9,0,0,1,94.86,115.72Zm.28,4.41h5.55v16.21H95.14Z" fill="#fff"/><path d="M103.67,120.13h5.55v2.6a5.73,5.73,0,0,1,5.33-3c3.13,0,5.3,2,5.3,6.11v10.54H114.3v-9.42c0-1.83-.71-2.73-2.32-2.73s-2.76,1-2.76,3.07v9.08h-5.55Z" fill="#fff"/><path d="M121.65,136.34h5.52c.24,1.18,1,2.11,3,2.11,2.45,0,3.44-1.39,3.44-3.41v-2.48a5.67,5.67,0,0,1-5,3c-3.78,0-6.88-2.79-6.88-7.79v-.24c0-4.78,3.07-7.82,6.88-7.82a5.27,5.27,0,0,1,5,2.73v-2.29h5.55V135c0,4.84-3.19,7.38-9,7.38C124.62,142.36,122.08,140,121.65,136.34Zm12.09-8.62v-.21c0-2.24-1.15-3.66-3.19-3.66s-3.2,1.45-3.2,3.69v.25c0,2.23,1.18,3.65,3.17,3.65S133.74,130,133.74,127.72Z" fill="#fff"/><path d="M147,135.88v-4.75a7.49,7.49,0,0,0,2.7.44c1.74,0,2.88-.78,2.88-3.07V114.17h6.39v14.39c0,5.33-2.73,8.06-7.94,8.06A8.61,8.61,0,0,1,147,135.88Z" fill="#fff"/><path d="M160.71,131.85c0-3.82,3.22-5.31,8.62-5.31h1.55v-.37c0-1.55-.38-2.57-2.14-2.57a2,2,0,0,0-2.2,1.92h-5.21c.25-3.91,3.31-5.83,7.75-5.83s7.32,1.83,7.32,6.14v10.51H171v-1.89a5.31,5.31,0,0,1-4.8,2.26C163.28,136.71,160.71,135.29,160.71,131.85Zm10.17-1.18v-1h-1.46c-2.23,0-3.22.43-3.22,1.76,0,.93.61,1.52,1.92,1.52C169.7,133,170.88,132.06,170.88,130.67Z" fill="#fff"/><path d="M179.09,120.13h5.55v2.6a5.74,5.74,0,0,1,5.33-3c3.13,0,5.3,2,5.3,6.11v10.54h-5.55v-9.42c0-1.83-.71-2.73-2.32-2.73s-2.76,1-2.76,3.07v9.08h-5.55Z" fill="#fff"/><path d="M213.31,132.09H202.52v-2.38l9.24-15.54h7.66v13.55h2.86v4.37h-2.86v4.25h-6.11Zm.16-4.37V119l-5,8.77Z" fill="#fff"/><path d="M223.64,133.55a3.09,3.09,0,0,1,3.16-3.13,3.13,3.13,0,1,1,0,6.26A3.09,3.09,0,0,1,223.64,133.55Z" fill="#fff"/></g></g><g id="Legal"><g id="Optional_loan_from_Axos_Bank_within_minutes_of_filing._Not_your" data-name="Optional loan from Axos Bank within minutes of filing. Not your"><path d="M20.5,153.78v-.07a3.16,3.16,0,1,1,6.31,0v.07a3.16,3.16,0,1,1-6.31,0Zm5.5,0v-.07a2.36,2.36,0,1,0-4.69,0v.07a2.42,2.42,0,0,0,2.37,2.62A2.35,2.35,0,0,0,26,153.75Z" fill="#fff"/><path d="M27.92,152.25h.75V153a1.93,1.93,0,0,1,1.59-.87,2.14,2.14,0,0,1,2.14,2.37v.07A2.17,2.17,0,0,1,30.26,157a1.78,1.78,0,0,1-1.59-.86v2.42h-.75Zm3.71,2.39v-.07c0-1.19-.66-1.78-1.45-1.78s-1.54.58-1.54,1.78v.07c0,1.21.63,1.78,1.55,1.78S31.63,155.79,31.63,154.64Z" fill="#fff"/><path d="M33.59,155.78v-2.9h-.67v-.63h.67v-1.07h.75v1.07h1.1v.63h-1.1v2.83c0,.46.2.68.58.68a1.59,1.59,0,0,0,.58-.1v.63a1.85,1.85,0,0,1-.64.1A1.14,1.14,0,0,1,33.59,155.78Z" fill="#fff"/><path d="M36.37,150.77a.5.5,0,0,1,.5-.49.49.49,0,0,1,.49.49.5.5,0,0,1-.49.5A.51.51,0,0,1,36.37,150.77Zm.14,1.48h.74V157h-.74Z" fill="#fff"/><path d="M38.3,154.64v-.07a2.31,2.31,0,1,1,4.62,0v.07a2.31,2.31,0,1,1-4.62,0Zm3.85,0v-.06c0-1.09-.6-1.79-1.54-1.79a1.56,1.56,0,0,0-1.54,1.78v.07c0,1.07.59,1.78,1.54,1.78S42.15,155.71,42.15,154.64Z" fill="#fff"/><path d="M44,152.25h.75V153a1.59,1.59,0,0,1,1.51-.83c1,0,1.66.53,1.66,1.9V157h-.75v-3c0-.83-.35-1.19-1.11-1.19a1.23,1.23,0,0,0-1.31,1.28V157H44Z" fill="#fff"/><path d="M48.81,155.65c0-1.09,1.15-1.46,2.36-1.46h.67v-.34c0-.75-.29-1.06-1-1.06s-1,.27-1.08.84H49a1.64,1.64,0,0,1,1.86-1.46,1.52,1.52,0,0,1,1.72,1.68V157h-.75v-.6a1.69,1.69,0,0,1-1.46.68C49.5,157,48.81,156.62,48.81,155.65Zm3-.34v-.59h-.65c-.94,0-1.63.24-1.63.93,0,.49.23.79.89.79S51.84,156,51.84,155.31Z" fill="#fff"/><path d="M53.94,150h.75v7h-.75Z" fill="#fff"/><path d="M58.36,150h.75v7h-.75Z" fill="#fff"/><path d="M60.16,154.64v-.07a2.32,2.32,0,1,1,4.63,0v.07a2.32,2.32,0,1,1-4.63,0Zm3.85,0v-.06c0-1.09-.6-1.79-1.54-1.79a1.56,1.56,0,0,0-1.54,1.78v.07c0,1.07.59,1.78,1.54,1.78S64,155.71,64,154.64Z" fill="#fff"/><path d="M65.42,155.65c0-1.09,1.15-1.46,2.36-1.46h.68v-.34c0-.75-.29-1.06-1-1.06s-1,.27-1.08.84h-.75a1.64,1.64,0,0,1,1.86-1.46,1.52,1.52,0,0,1,1.72,1.68V157h-.74v-.6A1.71,1.71,0,0,1,67,157C66.12,157,65.42,156.62,65.42,155.65Zm3-.34v-.59h-.65c-1,0-1.64.24-1.64.93,0,.49.23.79.89.79S68.46,156,68.46,155.31Z" fill="#fff"/><path d="M70.53,152.25h.75V153a1.61,1.61,0,0,1,1.51-.83c1,0,1.66.53,1.66,1.9V157H73.7v-3c0-.83-.35-1.19-1.1-1.19a1.24,1.24,0,0,0-1.32,1.28V157h-.75Z" fill="#fff"/><path d="M78.19,152.88h-.67v-.63h.67v-.77c0-.95.47-1.51,1.41-1.51a1.6,1.6,0,0,1,.56.09v.63a1.62,1.62,0,0,0-.54-.1c-.48,0-.68.33-.68.81v.85h1.15v.63H78.94V157h-.75Z" fill="#fff"/><path d="M81,152.25h.75v.84a1.62,1.62,0,0,1,1.55-.92v.7c-1,0-1.55.34-1.55,1.5V157H81Z" fill="#fff"/><path d="M83.77,154.64v-.07a2.32,2.32,0,1,1,4.63,0v.07a2.32,2.32,0,1,1-4.63,0Zm3.86,0v-.06c0-1.09-.61-1.79-1.54-1.79s-1.54.7-1.54,1.78v.07c0,1.07.58,1.78,1.54,1.78A1.57,1.57,0,0,0,87.63,154.64Z" fill="#fff"/><path d="M89.43,152.25h.74V153a1.54,1.54,0,0,1,1.41-.8,1.36,1.36,0,0,1,1.37.88,1.84,1.84,0,0,1,1.62-.88c.84,0,1.58.5,1.58,1.87V157H95.4v-3c0-.83-.35-1.17-1-1.17a1.2,1.2,0,0,0-1.24,1.26V157h-.75v-3c0-.83-.35-1.17-1-1.17a1.2,1.2,0,0,0-1.25,1.26V157h-.74Z" fill="#fff"/><path d="M101.51,150.52h1l2.18,6.44h-.78l-.63-1.86h-2.65L100,157H99.3Zm-.64,4h2.24L102,151.17Z" fill="#fff"/><path d="M106.84,154.54l-1.57-2.29h.87l1.15,1.71,1.14-1.71h.81l-1.55,2.23,1.72,2.48h-.89l-1.27-1.9L106,157h-.8Z" fill="#fff"/><path d="M109.7,154.64v-.07a2.32,2.32,0,1,1,4.63,0v.07a2.32,2.32,0,1,1-4.63,0Zm3.86,0v-.06c0-1.09-.61-1.79-1.54-1.79s-1.54.7-1.54,1.78v.07c0,1.07.58,1.78,1.54,1.78A1.57,1.57,0,0,0,113.56,154.64Z" fill="#fff"/><path d="M115,155.51h.73c0,.56.35.91,1.1.91s1-.25,1-.75-.37-.66-1.1-.79c-1.22-.23-1.64-.57-1.64-1.39a1.47,1.47,0,0,1,1.6-1.32,1.51,1.51,0,0,1,1.7,1.36h-.72c-.11-.52-.4-.74-1-.74s-.89.27-.89.67.23.6,1.09.75,1.66.4,1.66,1.4c0,.85-.58,1.43-1.73,1.43S115,156.47,115,155.51Z" fill="#fff"/><path d="M121.84,150.52h1.94c1.2,0,2.07.4,2.07,1.67v0a1.31,1.31,0,0,1-1,1.36,1.41,1.41,0,0,1,1.28,1.54v0c0,1.21-.82,1.8-2.11,1.8h-2.21Zm1.94,2.81c.94,0,1.3-.34,1.3-1.14v0c0-.73-.42-1-1.32-1h-1.15v2.2Zm.25,3c.94,0,1.37-.41,1.37-1.19v0c0-.79-.44-1.17-1.48-1.17h-1.31v2.4Z" fill="#fff"/><path d="M126.86,155.65c0-1.09,1.16-1.46,2.36-1.46h.68v-.34c0-.75-.29-1.06-1-1.06s-1,.27-1.08.84h-.75a1.65,1.65,0,0,1,1.87-1.46,1.52,1.52,0,0,1,1.72,1.68V157h-.75v-.6a1.71,1.71,0,0,1-1.47.68C127.56,157,126.86,156.62,126.86,155.65Zm3-.34v-.59h-.65c-.94,0-1.64.24-1.64.93,0,.49.24.79.89.79C129.3,156.44,129.9,156,129.9,155.31Z" fill="#fff"/><path d="M132,152.25h.74V153a1.61,1.61,0,0,1,1.52-.83c1,0,1.65.53,1.65,1.9V157h-.74v-3c0-.83-.36-1.19-1.11-1.19a1.24,1.24,0,0,0-1.32,1.28V157H132Z" fill="#fff"/><path d="M137.22,150H138v4.42l1.95-2.17h.88l-2,2.19L141,157h-.91L138,154.52V157h-.75Z" fill="#fff"/><path d="M143.48,152.25h.81l1.1,3.79,1.14-3.79h.65l1.07,3.79,1.11-3.79h.76L148.66,157h-.83l-1-3.53-1.1,3.53h-.82Z" fill="#fff"/><path d="M150.88,150.77a.49.49,0,0,1,.49-.49.5.5,0,0,1,.5.49.51.51,0,0,1-.5.5A.5.5,0,0,1,150.88,150.77Zm.13,1.48h.75V157H151Z" fill="#fff"/><path d="M153.32,155.78v-2.9h-.68v-.63h.68v-1.07h.74v1.07h1.1v.63h-1.1v2.83c0,.46.21.68.59.68a1.57,1.57,0,0,0,.57-.1v.63a1.85,1.85,0,0,1-.64.1A1.14,1.14,0,0,1,153.32,155.78Z" fill="#fff"/><path d="M156.21,150H157v3a1.61,1.61,0,0,1,1.51-.83c1,0,1.66.53,1.66,1.9V157h-.75v-3c0-.83-.35-1.19-1.1-1.19A1.24,1.24,0,0,0,157,154.1V157h-.75Z" fill="#fff"/><path d="M161.34,150.77a.5.5,0,0,1,.5-.49.49.49,0,0,1,.49.49.5.5,0,0,1-.49.5A.51.51,0,0,1,161.34,150.77Zm.14,1.48h.75V157h-.75Z" fill="#fff"/><path d="M163.62,152.25h.75V153a1.6,1.6,0,0,1,1.51-.83c1,0,1.66.53,1.66,1.9V157h-.75v-3c0-.83-.35-1.19-1.11-1.19a1.23,1.23,0,0,0-1.31,1.28V157h-.75Z" fill="#fff"/><path d="M171.12,152.25h.74V153a1.54,1.54,0,0,1,1.41-.8,1.38,1.38,0,0,1,1.38.88,1.81,1.81,0,0,1,1.61-.88c.84,0,1.58.5,1.58,1.87V157h-.75v-3c0-.83-.35-1.17-1-1.17a1.2,1.2,0,0,0-1.25,1.26V157h-.74v-3c0-.83-.36-1.17-1-1.17a1.21,1.21,0,0,0-1.25,1.26V157h-.74Z" fill="#fff"/><path d="M179.05,150.77a.5.5,0,0,1,.5-.49.49.49,0,0,1,.49.49.5.5,0,0,1-.49.5A.51.51,0,0,1,179.05,150.77Zm.14,1.48h.75V157h-.75Z" fill="#fff"/><path d="M181.33,152.25h.75V153a1.6,1.6,0,0,1,1.51-.83c1,0,1.66.53,1.66,1.9V157h-.75v-3c0-.83-.35-1.19-1.11-1.19a1.23,1.23,0,0,0-1.31,1.28V157h-.75Z" fill="#fff"/><path d="M186.53,155.23v-3h.75v2.94c0,.83.35,1.2,1.09,1.2a1.24,1.24,0,0,0,1.3-1.29v-2.85h.74V157h-.74v-.75a1.62,1.62,0,0,1-1.5.83C187.24,157,186.53,156.52,186.53,155.23Z" fill="#fff"/><path d="M192,155.78v-2.9h-.67v-.63H192v-1.07h.75v1.07h1.1v.63h-1.1v2.83c0,.46.21.68.58.68a1.59,1.59,0,0,0,.58-.1v.63a1.85,1.85,0,0,1-.64.1A1.14,1.14,0,0,1,192,155.78Z" fill="#fff"/><path d="M194.5,154.65v-.07a2.21,2.21,0,0,1,2.2-2.41,2.06,2.06,0,0,1,2.12,2.34v.24h-3.55c0,1.07.55,1.67,1.52,1.67.72,0,1.15-.27,1.25-.82h.74a1.81,1.81,0,0,1-2,1.44A2.21,2.21,0,0,1,194.5,154.65Zm3.55-.5c-.07-1-.57-1.36-1.35-1.36a1.41,1.41,0,0,0-1.4,1.36Z" fill="#fff"/><path d="M199.48,155.51h.73c.06.56.35.91,1.11.91s1-.25,1-.75-.37-.66-1.1-.79c-1.23-.23-1.64-.57-1.64-1.39a1.47,1.47,0,0,1,1.59-1.32,1.51,1.51,0,0,1,1.71,1.36h-.72c-.11-.52-.4-.74-1-.74s-.9.27-.9.67.24.6,1.1.75,1.66.4,1.66,1.4c0,.85-.59,1.43-1.73,1.43S199.53,156.47,199.48,155.51Z" fill="#fff"/><path d="M206,154.64v-.07a2.31,2.31,0,1,1,4.62,0v.07a2.31,2.31,0,1,1-4.62,0Zm3.85,0v-.06c0-1.09-.6-1.79-1.54-1.79s-1.54.7-1.54,1.78v.07c0,1.07.59,1.78,1.54,1.78A1.57,1.57,0,0,0,209.81,154.64Z" fill="#fff"/><path d="M211.77,152.88h-.68v-.63h.68v-.77c0-.95.47-1.51,1.4-1.51a1.57,1.57,0,0,1,.56.09v.63a1.51,1.51,0,0,0-.53-.1c-.49,0-.68.33-.68.81v.85h1.15v.63h-1.15V157h-.75Z" fill="#fff"/><path d="M217,152.88h-.68v-.63H217v-.77c0-.95.47-1.51,1.4-1.51a1.57,1.57,0,0,1,.56.09v.63a1.51,1.51,0,0,0-.53-.1c-.49,0-.68.33-.68.81v.85h1.15v.63h-1.15V157H217Z" fill="#fff"/><path d="M219.7,150.77a.49.49,0,0,1,.49-.49.5.5,0,0,1,.5.49.51.51,0,0,1-.5.5A.5.5,0,0,1,219.7,150.77Zm.13,1.48h.75V157h-.75Z" fill="#fff"/><path d="M222,150h.76v7H222Z" fill="#fff"/><path d="M224,150.77a.49.49,0,0,1,.49-.49.5.5,0,0,1,.5.49.51.51,0,0,1-.5.5A.5.5,0,0,1,224,150.77Zm.13,1.48h.75V157h-.75Z" fill="#fff"/><path d="M226.3,152.25h.75V153a1.61,1.61,0,0,1,1.51-.83c1,0,1.66.53,1.66,1.9V157h-.75v-3c0-.83-.35-1.19-1.1-1.19a1.24,1.24,0,0,0-1.32,1.28V157h-.75Z" fill="#fff"/><path d="M231.3,157.23h.76c.11.54.56.82,1.36.82a1.33,1.33,0,0,0,1.52-1.45v-.69a2,2,0,0,1-1.6.89,2.12,2.12,0,0,1-2.14-2.23v-.06a2.23,2.23,0,0,1,2.2-2.34,1.7,1.7,0,0,1,1.54.83v-.75h.74v4.39a2,2,0,0,1-2.25,2C232,158.68,231.42,158,231.3,157.23Zm3.66-2.71v-.07a1.45,1.45,0,0,0-1.49-1.66,1.5,1.5,0,0,0-1.5,1.68v.07a1.49,1.49,0,0,0,1.45,1.64A1.51,1.51,0,0,0,235,154.52Z" fill="#fff"/><path d="M237,156.43a.58.58,0,1,1,.57.57A.57.57,0,0,1,237,156.43Z" fill="#fff"/><path d="M20.81,159.52h1L25,164.84v-5.32h.75V166h-.9l-3.25-5.52V166h-.75Z" fill="#fff"/><path d="M26.79,163.64v-.07a2.31,2.31,0,1,1,4.62,0v.07a2.31,2.31,0,1,1-4.62,0Zm3.85,0v-.06c0-1.09-.6-1.79-1.54-1.79s-1.54.7-1.54,1.78v.07c0,1.07.59,1.78,1.54,1.78A1.57,1.57,0,0,0,30.64,163.64Z" fill="#fff"/><path d="M32.6,164.78v-2.9h-.68v-.63h.68v-1.07h.75v1.07h1.1v.63h-1.1v2.83c0,.46.2.68.58.68a1.59,1.59,0,0,0,.58-.1v.63a1.85,1.85,0,0,1-.64.1A1.14,1.14,0,0,1,32.6,164.78Z" fill="#fff"/><path d="M39.06,165.47l-1.84-4.22H38l1.44,3.37,1.3-3.37h.77l-2.6,6.35h-.76Z" fill="#fff"/><path d="M41.89,163.64v-.07a2.32,2.32,0,1,1,4.63,0v.07a2.32,2.32,0,1,1-4.63,0Zm3.85,0v-.06c0-1.09-.6-1.79-1.54-1.79a1.56,1.56,0,0,0-1.54,1.78v.07c0,1.07.59,1.78,1.54,1.78S45.74,164.71,45.74,163.64Z" fill="#fff"/><path d="M47.5,164.23v-3h.74v2.94c0,.83.35,1.2,1.09,1.2a1.24,1.24,0,0,0,1.3-1.29v-2.85h.75V166h-.75v-.75a1.62,1.62,0,0,1-1.5.83C48.2,166,47.5,165.52,47.5,164.23Z" fill="#fff"/><path d="M52.75,161.25h.75v.84a1.62,1.62,0,0,1,1.55-.92v.7c-.95,0-1.55.34-1.55,1.5V166h-.75Z" fill="#fff"/><path d="M58.41,164.78v-2.9h-.67v-.63h.67v-1.07h.75v1.07h1.1v.63h-1.1v2.83c0,.46.21.68.58.68a1.59,1.59,0,0,0,.58-.1v.63a1.85,1.85,0,0,1-.64.1A1.14,1.14,0,0,1,58.41,164.78Z" fill="#fff"/><path d="M61,164.65c0-1.09,1.15-1.46,2.36-1.46H64v-.34c0-.75-.29-1.06-1-1.06s-1,.27-1.08.84h-.74A1.64,1.64,0,0,1,63,161.17a1.52,1.52,0,0,1,1.72,1.68V166H64v-.6a1.7,1.7,0,0,1-1.47.68C61.66,166,61,165.62,61,164.65Zm3-.34v-.59h-.65c-.94,0-1.64.24-1.64.93,0,.49.24.79.9.79S64,165,64,164.31Z" fill="#fff"/><path d="M67.26,163.54l-1.58-2.29h.88L67.71,163l1.14-1.71h.81l-1.56,2.23L69.82,166h-.88l-1.27-1.9L66.38,166h-.8Z" fill="#fff"/><path d="M73,161.25h.74v.84a1.64,1.64,0,0,1,1.55-.92v.7c-.94,0-1.55.34-1.55,1.5V166H73Z" fill="#fff"/><path d="M75.71,163.65v-.07a2.22,2.22,0,0,1,2.21-2.41A2.06,2.06,0,0,1,80,163.51v.24H76.48c0,1.07.55,1.67,1.52,1.67.73,0,1.15-.27,1.25-.82H80A1.81,1.81,0,0,1,78,166,2.21,2.21,0,0,1,75.71,163.65Zm3.56-.5c-.08-1-.58-1.36-1.35-1.36a1.41,1.41,0,0,0-1.41,1.36Z" fill="#fff"/><path d="M81.2,161.88h-.68v-.63h.68v-.77c0-.95.47-1.51,1.4-1.51a1.57,1.57,0,0,1,.56.09v.63a1.51,1.51,0,0,0-.53-.1c-.49,0-.68.33-.68.81v.85H83.1v.63H82V166H81.2Z" fill="#fff"/><path d="M84,164.23v-3h.75v2.94c0,.83.35,1.2,1.09,1.2a1.24,1.24,0,0,0,1.29-1.29v-2.85h.75V166H87.1v-.75a1.59,1.59,0,0,1-1.49.83C84.67,166,84,165.52,84,164.23Z" fill="#fff"/><path d="M89.23,161.25H90V162a1.61,1.61,0,0,1,1.52-.83c1,0,1.65.53,1.65,1.9V166H92.4v-3c0-.83-.36-1.19-1.11-1.19A1.24,1.24,0,0,0,90,163.1V166h-.74Z" fill="#fff"/><path d="M94.12,163.7v-.08a2.23,2.23,0,0,1,2.2-2.45,1.7,1.7,0,0,1,1.54.83v-3h.75v7h-.75v-.81a2,2,0,0,1-1.61.89A2.1,2.1,0,0,1,94.12,163.7Zm3.77-.07v-.07c0-1.2-.58-1.77-1.5-1.77s-1.49.66-1.49,1.8v.07c0,1.19.64,1.76,1.43,1.76S97.89,164.84,97.89,163.63Z" fill="#fff"/><path d="M99.92,165.43a.58.58,0,1,1,.58.57A.57.57,0,0,1,99.92,165.43Z" fill="#fff"/></g></g></g></svg>