<svg xmlns="http://www.w3.org/2000/svg" viewBox="0 0 153 35"><title>learn_more</title><g id="Layer_2" data-name="Layer 2"><g id="Artboard_1" data-name="Artboard 1" style="isolation:isolate"><g id="headline1"><g id="CTA_copy" data-name="CTA copy"><g id="Rectangle_1" data-name="Rectangle 1"><rect width="153" height="35" fill="none"/></g><g id="Learn_more" data-name="Learn more"><path d="M36.41,10.88h2.51V20h4.52v2h-7Z" transform="translate(0)" fill="#262626"/><path d="M44,18V17.9a4,4,0,0,1,4.18-4.22c2.09,0,4,1.22,4,4.12v.63H46.29c.07,1.35.79,2.12,2,2.12,1,0,1.55-.45,1.69-1.13h2.13c-.27,1.75-1.66,2.73-3.88,2.73A3.94,3.94,0,0,1,44,18Zm6-1c-.08-1.22-.7-1.81-1.77-1.81A1.87,1.87,0,0,0,46.32,17Z" transform="translate(0)" fill="#262626"/><path d="M52.94,19.73c0-1.89,1.73-2.61,4.22-2.61h.91V16.8c0-1-.29-1.49-1.32-1.49a1.23,1.23,0,0,0-1.38,1.15H53.25c.14-1.93,1.66-2.78,3.64-2.78s3.4.8,3.4,3V22H58.1V21a2.74,2.74,0,0,1-2.45,1.15C54.18,22.15,52.94,21.44,52.94,19.73Zm5.13-.59v-.68h-.86c-1.31,0-2.07.28-2.07,1.15,0,.59.36,1,1.18,1C57.31,20.58,58.07,20,58.07,19.14Z" transform="translate(0)" fill="#262626"/><path d="M62,13.86h2.25v1.56a2.65,2.65,0,0,1,2.62-1.68v2.09c-1.66,0-2.62.53-2.62,2.08V22H62Z" transform="translate(0)" fill="#262626"/><path d="M68.1,13.86h2.25v1.29A2.8,2.8,0,0,1,73,13.68c1.6,0,2.73,1,2.73,3.13V22H73.47V17.14c0-1.1-.43-1.63-1.43-1.63a1.61,1.61,0,0,0-1.69,1.78V22H68.1Z" transform="translate(0)" fill="#262626"/><path d="M80.63,13.86h2.25V15.1a2.75,2.75,0,0,1,2.48-1.42,2.25,2.25,0,0,1,2.27,1.41,3.21,3.21,0,0,1,2.73-1.41c1.5,0,2.67.94,2.67,3.1V22H90.79V17c0-1-.46-1.51-1.27-1.51A1.51,1.51,0,0,0,88,17.18V22H85.72V17c0-1-.48-1.51-1.28-1.51a1.5,1.5,0,0,0-1.56,1.66V22H80.63Z" transform="translate(0)" fill="#262626"/><path d="M94.22,18v-.13a4.28,4.28,0,0,1,8.55,0V18a4.28,4.28,0,0,1-8.55.05Zm6.27,0v-.11c0-1.55-.73-2.49-2-2.49s-2,.9-2,2.46V18c0,1.55.71,2.48,2,2.48S100.49,19.51,100.49,18Z" transform="translate(0)" fill="#262626"/><path d="M104.05,13.86h2.25v1.56a2.65,2.65,0,0,1,2.62-1.68v2.09c-1.66,0-2.62.53-2.62,2.08V22h-2.25Z" transform="translate(0)" fill="#262626"/><path d="M109.53,18V17.9a4,4,0,0,1,4.17-4.22,3.74,3.74,0,0,1,4,4.12v.63h-5.85a1.94,1.94,0,0,0,2,2.12c1,0,1.55-.45,1.69-1.13h2.12c-.26,1.75-1.66,2.73-3.88,2.73A3.94,3.94,0,0,1,109.53,18Zm5.94-1c-.08-1.22-.7-1.81-1.77-1.81A1.86,1.86,0,0,0,111.84,17Z" transform="translate(0)" fill="#262626"/></g></g></g></g></g></svg>