<svg xmlns="http://www.w3.org/2000/svg" viewBox="0 0 300 600"><title>Asset 5</title><g id="Layer_2" data-name="Layer 2"><g id="Rect"><rect width="300" height="600" fill="none"/></g><g id="Still_open._Still_here_to_help." data-name="Still open. Still here to help."><path d="M31.13,181.58h9.61c.25,2.51,1.38,4.58,5.57,4.58,2.91,0,4.53-1.43,4.53-3.49s-1.33-2.76-5.57-3.4C35.32,178.08,32,175.13,32,168c0-6.35,5.22-11,13.65-11s13.25,3.55,13.89,11H50.15c-.34-2.51-1.77-3.79-4.53-3.79s-4.09,1.23-4.09,3c0,2,1.08,2.86,5.47,3.45,8.92,1,13.5,3.3,13.5,10.94,0,6.45-5.13,11.73-14.19,11.73C36.45,193.36,31.43,189.22,31.13,181.58Z" fill="#fff"/><path d="M64.94,184.49V173H61.83v-6h3.11v-5.37h8.81V167h5.08v6H73.75v10.64c0,1.87.94,2.71,2.62,2.71a6.85,6.85,0,0,0,2.51-.44v6.7a18.73,18.73,0,0,1-4.88.74C68.19,193.36,64.94,190.55,64.94,184.49Z" fill="#fff"/><path d="M82,160a4.87,4.87,0,1,1,4.83,4.53A4.6,4.6,0,0,1,82,160Zm.45,7h8.82v25.77H82.43Z" fill="#fff"/><path d="M96.23,155.67H105v37.1H96.23Z" fill="#fff"/><path d="M110,155.67h8.77v37.1H110Z" fill="#fff"/><path d="M131.06,180.2v-.39c0-8.28,6.16-13.5,14.14-13.5s14,5.07,14,13.25v.4c0,8.37-6.16,13.4-14.09,13.4S131.06,188.53,131.06,180.2Zm19.22-.15v-.39c0-4.34-1.73-6.75-5.08-6.75s-5.12,2.32-5.12,6.65v.4c0,4.43,1.72,6.84,5.12,6.84S150.28,184.34,150.28,180.05Z" fill="#fff"/><path d="M162.35,167h8.82v3.84a9.1,9.1,0,0,1,8-4.53c6,0,10.89,4.53,10.89,13.35v.39c0,8.87-4.88,13.31-10.94,13.31-3.89,0-6.7-1.83-8-4.39v12.42h-8.82Zm18.77,13.05v-.39c0-4.53-2-6.7-5.07-6.7s-5.13,2.31-5.13,6.65V180c0,4.39,1.93,6.61,5.13,6.61S181.12,184.29,181.12,180.05Z" fill="#fff"/><path d="M191.92,180.2v-.39c0-8.28,6.15-13.5,13.94-13.5,7,0,13.1,4,13.1,13.3v2.32H200.83c.25,3.4,2.22,5.37,5.37,5.37,2.91,0,4.14-1.33,4.49-3.06H219c-.78,5.82-5.27,9.12-13.05,9.12C197.83,193.36,191.92,188.63,191.92,180.2ZM210.39,177c-.15-3.1-1.67-4.83-4.53-4.83-2.66,0-4.48,1.73-4.93,4.83Z" fill="#fff"/><path d="M222,167h8.82v4.14a9.1,9.1,0,0,1,8.48-4.83c5,0,8.42,3.1,8.42,9.7v16.76h-8.82v-15c0-2.91-1.13-4.34-3.69-4.34s-4.39,1.58-4.39,4.88v14.44H222Z" fill="#fff"/><path d="M251.68,188.33a4.92,4.92,0,0,1,5-5,5,5,0,1,1,0,10A4.92,4.92,0,0,1,251.68,188.33Z" fill="#fff"/><path d="M31.13,234.63h9.61c.25,2.51,1.38,4.58,5.57,4.58,2.91,0,4.53-1.43,4.53-3.5s-1.33-2.76-5.57-3.4c-10-1.18-13.3-4.14-13.3-11.23,0-6.36,5.22-11,13.65-11s13.25,3.55,13.89,11H50.15c-.34-2.51-1.77-3.79-4.53-3.79s-4.09,1.23-4.09,3c0,2,1.08,2.86,5.47,3.45,8.92,1,13.5,3.3,13.5,10.94,0,6.45-5.13,11.72-14.19,11.72C36.45,246.4,31.43,242.27,31.13,234.63Z" fill="#fff"/><path d="M64.94,237.54V226.06H61.83v-6h3.11v-5.37h8.81V220h5.08v6H73.75V236.7c0,1.87.94,2.71,2.62,2.71a6.64,6.64,0,0,0,2.51-.45v6.71a18.79,18.79,0,0,1-4.88.73C68.19,246.4,64.94,243.6,64.94,237.54Z" fill="#fff"/><path d="M82,213.05a4.87,4.87,0,1,1,4.83,4.53A4.6,4.6,0,0,1,82,213.05Zm.45,7h8.82v25.77H82.43Z" fill="#fff"/><path d="M96.23,208.71H105v37.1H96.23Z" fill="#fff"/><path d="M110,208.71h8.77v37.1H110Z" fill="#fff"/><path d="M132.44,208.71h8.82v15.47a9.1,9.1,0,0,1,8.47-4.83c5,0,8.43,3.11,8.43,9.71v16.75h-8.82v-15c0-2.9-1.13-4.33-3.69-4.33s-4.39,1.58-4.39,4.88v14.43h-8.82Z" fill="#fff"/><path d="M161.07,233.25v-.4c0-8.27,6.16-13.5,13.94-13.5,7.05,0,13.11,4.05,13.11,13.31V235H170c.24,3.4,2.22,5.37,5.37,5.37,2.9,0,4.14-1.33,4.48-3.05h8.28c-.79,5.81-5.27,9.11-13.06,9.11C167,246.4,161.07,241.67,161.07,233.25ZM179.55,230c-.15-3.11-1.68-4.83-4.54-4.83-2.66,0-4.48,1.72-4.92,4.83Z" fill="#fff"/><path d="M191.18,220H200v5.13c1.62-3.84,4.33-5.52,8.32-5.47v8.23c-5.37-.15-8.32,1.53-8.32,5.66v12.22h-8.82Z" fill="#fff"/><path d="M209.9,233.25v-.4c0-8.27,6.16-13.5,13.94-13.5,7,0,13.11,4.05,13.11,13.31V235H218.82c.25,3.4,2.22,5.37,5.37,5.37,2.91,0,4.14-1.33,4.48-3.05H237c-.79,5.81-5.27,9.11-13.06,9.11C215.81,246.4,209.9,241.67,209.9,233.25ZM228.38,230c-.15-3.11-1.68-4.83-4.54-4.83-2.66,0-4.48,1.72-4.92,4.83Z" fill="#fff"/><path d="M33.79,290.58V279.1h-3.1v-6h3.1v-5.37h8.82v5.37h5.08v6H42.61v10.64c0,1.88.94,2.71,2.61,2.71a6.66,6.66,0,0,0,2.52-.44v6.7a18.38,18.38,0,0,1-4.88.74C37.05,299.45,33.79,296.64,33.79,290.58Z" fill="#fff"/><path d="M49.66,286.3v-.4c0-8.28,6.16-13.5,14.14-13.5s14,5.08,14,13.26v.39c0,8.38-6.16,13.4-14.09,13.4S49.66,294.62,49.66,286.3Zm19.22-.15v-.4c0-4.33-1.73-6.75-5.08-6.75s-5.12,2.32-5.12,6.66v.39c0,4.43,1.72,6.85,5.12,6.85S68.88,290.43,68.88,286.15Z" fill="#fff"/><path d="M89.92,261.76h8.82v15.47a9.1,9.1,0,0,1,8.47-4.83c5,0,8.43,3.11,8.43,9.71v16.75h-8.82v-15c0-2.91-1.14-4.33-3.7-4.33s-4.38,1.57-4.38,4.87v14.44H89.92Z" fill="#fff"/><path d="M118.55,286.3v-.4c0-8.28,6.16-13.5,13.94-13.5,7,0,13.11,4,13.11,13.3V288H127.46c.25,3.4,2.22,5.37,5.37,5.37,2.91,0,4.14-1.33,4.49-3.05h8.28c-.79,5.81-5.28,9.11-13.06,9.11C124.46,299.45,118.55,294.72,118.55,286.3ZM137,283c-.14-3.1-1.67-4.82-4.53-4.82-2.66,0-4.48,1.72-4.93,4.82Z" fill="#fff"/><path d="M148.9,261.76h8.77v37.1H148.9Z" fill="#fff"/><path d="M162.4,273.09h8.82v3.84a9.1,9.1,0,0,1,8-4.53c6,0,10.89,4.53,10.89,13.35v.4c0,8.87-4.88,13.3-10.94,13.3-3.89,0-6.7-1.82-8-4.38v12.41H162.4Zm18.77,13.06v-.4c0-4.53-2-6.7-5.07-6.7S171,281.37,171,285.7v.4c0,4.38,1.93,6.6,5.13,6.6S181.17,290.39,181.17,286.15Z" fill="#fff"/><path d="M192.36,294.43a4.92,4.92,0,0,1,5-5,5,5,0,1,1,0,9.95A4.91,4.91,0,0,1,192.36,294.43Z" fill="#fff"/></g></g></svg>