<svg xmlns="http://www.w3.org/2000/svg" viewBox="0 0 160 600"><title>H26</title><g id="Layer_2" data-name="Layer 2"><g id="Rect"><rect width="160" height="600" fill="none"/></g><g id="H26"><g id="Get_your_max_refund_in_about_an_hour." data-name="Get your max refund in about an hour."><path d="M20.84,150.66v-.21c0-5.89,4.32-9.86,10.12-9.86,4.56,0,8.61,2.08,9,7.1H34.47c-.27-1.81-1.43-2.75-3.48-2.75-2.73,0-4.38,2.1-4.38,5.59v.21c0,3.13,1.16,5.56,4.51,5.56,2.7,0,3.73-1.37,3.83-2.91H31.34v-3.86h9.07v2.37c0,4.92-3.22,8.61-9.45,8.61C24.4,160.51,20.84,156.44,20.84,150.66Z" fill="#fff"/><path d="M41.52,153.31v-.22c0-4.53,3.37-7.4,7.64-7.4,3.86,0,7.18,2.22,7.18,7.29v1.27H46.4a2.83,2.83,0,0,0,3,2.94c1.59,0,2.26-.72,2.45-1.67h4.54c-.43,3.19-2.89,5-7.16,5S41.52,157.92,41.52,153.31Zm10.12-1.78c-.08-1.71-.92-2.65-2.48-2.65s-2.46.94-2.7,2.65Z" fill="#fff"/><path d="M58.66,155.66v-6.29H57v-3.3h1.7v-2.94h4.83v2.94h2.78v3.3H63.49v5.83a1.29,1.29,0,0,0,1.44,1.48,3.72,3.72,0,0,0,1.37-.24v3.67a10.25,10.25,0,0,1-2.67.4C60.44,160.51,58.66,159,58.66,155.66Z" fill="#fff"/><path d="M25.86,187.76l-5.64-12.69h5.23l2.92,7.53,2.7-7.53h4.61l-7.56,18.84H23.51Z" fill="#fff"/><path d="M35.42,182.31v-.22c0-4.53,3.37-7.4,7.74-7.4s7.7,2.79,7.7,7.27v.21c0,4.59-3.38,7.34-7.72,7.34S35.42,186.87,35.42,182.31Zm10.52-.08V182c0-2.38-.94-3.7-2.78-3.7s-2.8,1.27-2.8,3.65v.21c0,2.43.94,3.75,2.8,3.75S45.94,184.57,45.94,182.23Z" fill="#fff"/><path d="M52.45,184.28v-9.21h4.83v8.42c0,1.6.63,2.38,2,2.38s2.4-.86,2.4-2.67v-8.13h4.84v14.12H61.68V187a4.63,4.63,0,0,1-4.48,2.51C54.48,189.51,52.45,187.84,52.45,184.28Z" fill="#fff"/><path d="M69,175.07h4.83v2.81a4.45,4.45,0,0,1,4.56-3v4.51c-2.94-.08-4.56.84-4.56,3.11v6.69H69Z" fill="#fff"/><path d="M85,175.07h4.83v2.16a4.94,4.94,0,0,1,4.43-2.54A3.84,3.84,0,0,1,98.13,177a5.62,5.62,0,0,1,4.67-2.35c2.67,0,4.62,1.73,4.62,5.27v9.23h-4.83v-8.42c0-1.43-.71-2.13-1.81-2.13A2.09,2.09,0,0,0,98.62,181v8.18H93.84v-8.42c0-1.43-.7-2.13-1.81-2.13A2.09,2.09,0,0,0,89.87,181v8.18H85Z" fill="#fff"/><path d="M109,185.28c0-3.32,2.81-4.62,7.51-4.62h1.35v-.32c0-1.35-.33-2.24-1.86-2.24a1.73,1.73,0,0,0-1.92,1.67H109.5c.22-3.4,2.89-5.08,6.75-5.08s6.37,1.6,6.37,5.35v9.15h-4.7v-1.65a4.61,4.61,0,0,1-4.18,2C111.2,189.51,109,188.27,109,185.28Zm8.86-1v-.86h-1.27c-1.94,0-2.81.37-2.81,1.54,0,.8.54,1.32,1.68,1.32A2.13,2.13,0,0,0,117.82,184.25Z" fill="#fff"/><path d="M128.54,182l-4.4-6.94h5.56l2.18,3.73,2.14-3.73h5l-4.45,6.56,4.89,7.56h-5.57L131.34,185l-2.56,4.21h-4.94Z" fill="#fff"/><path d="M21.43,204.07h4.83v2.81a4.46,4.46,0,0,1,4.56-3v4.51c-2.94-.08-4.56.84-4.56,3.11v6.69H21.43Z" fill="#fff"/><path d="M31.69,211.31v-.22c0-4.53,3.37-7.4,7.64-7.4,3.86,0,7.18,2.22,7.18,7.29v1.27H36.58a2.81,2.81,0,0,0,2.94,2.94c1.59,0,2.27-.72,2.46-1.67h4.53c-.43,3.19-2.89,5-7.15,5C34.93,218.51,31.69,215.92,31.69,211.31Zm10.12-1.78c-.08-1.71-.91-2.65-2.48-2.65s-2.46.94-2.7,2.65Z" fill="#fff"/><path d="M48.92,207.37H47.13v-3.3h1.79v-1.24c0-3.51,2.18-5.18,5.53-5.18a8.2,8.2,0,0,1,2.21.3v3.53a4.35,4.35,0,0,0-1.32-.19,1.42,1.42,0,0,0-1.62,1.54v1.24h2.86v3.3H53.72v10.82h-4.8Z" fill="#fff"/><path d="M58.1,213.28v-9.21h4.83v8.42c0,1.6.62,2.38,2,2.38s2.4-.86,2.4-2.67v-8.13h4.83v14.12H67.33V216a4.64,4.64,0,0,1-4.48,2.51C60.12,218.51,58.1,216.84,58.1,213.28Z" fill="#fff"/><path d="M74.62,204.07h4.83v2.27a5,5,0,0,1,4.64-2.65c2.73,0,4.62,1.71,4.62,5.32v9.18H83.88V210c0-1.59-.62-2.37-2-2.37s-2.4.86-2.4,2.67v7.91H74.62Z" fill="#fff"/><path d="M90.36,211.28v-.22c0-4.8,2.65-7.37,6-7.37a4.58,4.58,0,0,1,4.35,2.38v-8.21h4.83v20.33H100.7V215.9a4.76,4.76,0,0,1-4.4,2.61C93,218.51,90.36,216.17,90.36,211.28Zm10.47-.08V211c0-2.37-1-3.64-2.78-3.64s-2.78,1.21-2.78,3.67v.22c0,2.37,1.06,3.59,2.73,3.59S100.83,213.6,100.83,211.2Z" fill="#fff"/><path d="M112.8,200.24a2.52,2.52,0,0,1,2.64-2.51,2.5,2.5,0,1,1,0,5A2.49,2.49,0,0,1,112.8,200.24Zm.24,3.83h4.83v14.12H113Z" fill="#fff"/><path d="M120.46,204.07h4.84v2.27a5,5,0,0,1,4.64-2.65c2.73,0,4.62,1.71,4.62,5.32v9.18h-4.84V210c0-1.59-.62-2.37-2-2.37s-2.4.86-2.4,2.67v7.91h-4.84Z" fill="#fff"/><path d="M20.62,243.28c0-3.32,2.81-4.62,7.5-4.62h1.35v-.32c0-1.35-.32-2.24-1.86-2.24a1.72,1.72,0,0,0-1.91,1.67H21.16c.22-3.4,2.89-5.08,6.75-5.08s6.37,1.6,6.37,5.35v9.15h-4.7v-1.65a4.61,4.61,0,0,1-4.18,2C22.86,247.51,20.62,246.27,20.62,243.28Zm8.85-1v-.86H28.21c-1.95,0-2.81.37-2.81,1.54,0,.8.54,1.32,1.67,1.32C28.45,244.25,29.47,243.47,29.47,242.25Z" fill="#fff"/><path d="M41.46,245v2.19H36.63V226.86h4.83v8.32a5,5,0,0,1,4.4-2.49c3.3,0,6,2.49,6,7.32v.22c0,4.85-2.67,7.28-6,7.28A4.58,4.58,0,0,1,41.46,245Zm5.46-4.77V240c0-2.48-1.08-3.67-2.78-3.67s-2.81,1.27-2.81,3.64v.22c0,2.4,1.05,3.62,2.81,3.62S46.92,242.55,46.92,240.23Z" fill="#fff"/><path d="M52.83,240.31v-.22c0-4.53,3.38-7.4,7.75-7.4s7.69,2.79,7.69,7.27v.21c0,4.59-3.37,7.34-7.72,7.34S52.83,244.87,52.83,240.31Zm10.53-.08V240c0-2.38-1-3.7-2.78-3.7s-2.81,1.27-2.81,3.65v.21c0,2.43.95,3.75,2.81,3.75S63.36,242.57,63.36,240.23Z" fill="#fff"/><path d="M69.87,242.28v-9.21H74.7v8.42c0,1.6.62,2.38,2,2.38s2.4-.86,2.4-2.67v-8.13h4.83v14.12H79.1V245a4.64,4.64,0,0,1-4.48,2.51C71.89,247.51,69.87,245.84,69.87,242.28Z" fill="#fff"/><path d="M87,242.66v-6.29h-1.7v-3.3H87v-2.94h4.83v2.94h2.78v3.3H91.87v5.83a1.29,1.29,0,0,0,1.43,1.48,3.73,3.73,0,0,0,1.38-.24v3.67a10.25,10.25,0,0,1-2.67.4C88.82,247.51,87,246,87,242.66Z" fill="#fff"/><path d="M100.59,243.28c0-3.32,2.81-4.62,7.51-4.62h1.35v-.32c0-1.35-.33-2.24-1.87-2.24a1.73,1.73,0,0,0-1.91,1.67h-4.54c.22-3.4,2.89-5.08,6.75-5.08s6.37,1.6,6.37,5.35v9.15h-4.7v-1.65a4.61,4.61,0,0,1-4.18,2C102.83,247.51,100.59,246.27,100.59,243.28Zm8.86-1v-.86h-1.27c-2,0-2.81.37-2.81,1.54,0,.8.54,1.32,1.67,1.32C108.42,244.25,109.45,243.47,109.45,242.25Z" fill="#fff"/><path d="M116.6,233.07h4.84v2.27a5,5,0,0,1,4.64-2.65c2.72,0,4.61,1.71,4.61,5.32v9.18h-4.83V239c0-1.59-.62-2.37-2-2.37s-2.4.86-2.4,2.67v7.91H116.6Z" fill="#fff"/><path d="M21.43,255.86h4.83v8.48a5,5,0,0,1,4.65-2.65c2.72,0,4.61,1.71,4.61,5.32v9.18H30.69V268c0-1.59-.62-2.37-2-2.37s-2.4.86-2.4,2.67v7.91H21.43Z" fill="#fff"/><path d="M37.12,269.31v-.22c0-4.53,3.37-7.4,7.74-7.4s7.7,2.79,7.7,7.27v.21c0,4.59-3.38,7.34-7.72,7.34S37.12,273.87,37.12,269.31Zm10.53-.08V269c0-2.38-.95-3.7-2.79-3.7s-2.8,1.27-2.8,3.65v.21c0,2.43.94,3.75,2.8,3.75S47.65,271.57,47.65,269.23Z" fill="#fff"/><path d="M54.15,271.28v-9.21H59v8.42c0,1.6.62,2.38,2,2.38s2.41-.86,2.41-2.67v-8.13h4.83v14.12H63.39V274a4.65,4.65,0,0,1-4.49,2.51C56.18,276.51,54.15,274.84,54.15,271.28Z" fill="#fff"/><path d="M70.68,262.07h4.83v2.81a4.45,4.45,0,0,1,4.56-3v4.51c-2.94-.08-4.56.84-4.56,3.11v6.69H70.68Z" fill="#fff"/><path d="M80,273.76A2.69,2.69,0,0,1,82.77,271a2.73,2.73,0,1,1,0,5.46A2.69,2.69,0,0,1,80,273.76Z" fill="#fff"/></g></g></g></svg>