<svg xmlns="http://www.w3.org/2000/svg" viewBox="0 0 160 600"><title>h2</title><g id="Layer_2" data-name="Layer 2"><g id="rect"><rect width="160" height="600" fill="none"/></g><g id="Every_dollar_matters._Our_experts_will_get_your_max_refund." data-name="Every dollar matters. Our experts will get your  max refund."><path d="M21.36,138.89h9.77V142H25.4v2.43H30v2.89H25.4v2.57h6.05V153H21.36Z" fill="#fff"/><path d="M31.67,142.69h3.77l2.16,6.66,2.11-6.66H43.1L39.32,153H35.46Z" fill="#fff"/><path d="M42.88,148v-.16a5.29,5.29,0,0,1,5.59-5.42c2.83,0,5.26,1.62,5.26,5.34v.93H46.46a2.07,2.07,0,0,0,2.15,2.16c1.17,0,1.66-.54,1.8-1.23h3.32c-.31,2.33-2.11,3.66-5.24,3.66S42.88,151.37,42.88,148Zm7.41-1.31c-.06-1.24-.67-1.93-1.82-1.93a2,2,0,0,0-2,1.93Z" fill="#fff"/><path d="M55,142.69H58.5v2.06a3.25,3.25,0,0,1,3.34-2.2v3.3c-2.15-.06-3.34.62-3.34,2.28V153H55Z" fill="#fff"/><path d="M66.53,152l-4.14-9.29h3.84l2.14,5.52,2-5.52h3.38l-5.53,13.8H64.81Z" fill="#fff"/><path d="M77.72,148v-.16c0-3.52,1.93-5.4,4.39-5.4a3.34,3.34,0,0,1,3.18,1.74v-6h3.54V153H85.29v-1.68a3.48,3.48,0,0,1-3.22,1.92C79.67,153.27,77.72,151.55,77.72,148Zm7.67-.06v-.16c0-1.74-.73-2.67-2-2.67s-2,.89-2,2.69v.16c0,1.74.77,2.63,2,2.63S85.39,149.67,85.39,147.91Z" fill="#fff"/><path d="M90.07,148v-.16c0-3.32,2.48-5.42,5.68-5.42s5.64,2,5.64,5.32v.16c0,3.36-2.48,5.38-5.66,5.38S90.07,151.33,90.07,148Zm7.72-.06v-.16c0-1.74-.7-2.71-2-2.71s-2.06.93-2.06,2.67v.16c0,1.78.7,2.75,2.06,2.75S97.79,149.65,97.79,147.93Z" fill="#fff"/><path d="M102.73,138.14h3.52V153h-3.52Z" fill="#fff"/><path d="M108.25,138.14h3.52V153h-3.52Z" fill="#fff"/><path d="M113.07,150.16c0-2.43,2.06-3.38,5.5-3.38h1v-.24c0-1-.24-1.64-1.37-1.64a1.27,1.27,0,0,0-1.4,1.23h-3.32c.16-2.49,2.11-3.72,4.94-3.72s4.67,1.17,4.67,3.92V153h-3.44v-1.21a3.4,3.4,0,0,1-3.07,1.45C114.71,153.27,113.07,152.36,113.07,150.16Zm6.49-.75v-.63h-.93c-1.43,0-2.06.28-2.06,1.13,0,.59.4,1,1.23,1A1.56,1.56,0,0,0,119.56,149.41Z" fill="#fff"/><path d="M124.8,142.69h3.54v2.06a3.25,3.25,0,0,1,3.34-2.2v3.3c-2.16-.06-3.34.62-3.34,2.28V153H124.8Z" fill="#fff"/><path d="M21.05,176.5h3.54v1.58a3.61,3.61,0,0,1,3.24-1.86,2.83,2.83,0,0,1,2.81,1.72,4.11,4.11,0,0,1,3.42-1.72c2,0,3.38,1.27,3.38,3.86v6.76H33.9v-6.17c0-1-.51-1.56-1.32-1.56A1.53,1.53,0,0,0,31,180.85v6H27.5v-6.17c0-1-.52-1.56-1.33-1.56a1.53,1.53,0,0,0-1.58,1.74v6H21.05Z" fill="#fff"/><path d="M38.57,184c0-2.44,2-3.39,5.49-3.39h1v-.23c0-1-.23-1.64-1.36-1.64a1.26,1.26,0,0,0-1.4,1.22H39c.16-2.49,2.12-3.72,4.95-3.72s4.66,1.17,4.66,3.92v6.7H45.13v-1.2a3.38,3.38,0,0,1-3.06,1.44C40.21,187.08,38.57,186.17,38.57,184Zm6.48-.76v-.63h-.93c-1.42,0-2,.28-2,1.13,0,.59.39,1,1.22,1A1.56,1.56,0,0,0,45.05,183.22Z" fill="#fff"/><path d="M50.71,183.52v-4.61H49.46V176.5h1.25v-2.15h3.54v2.15h2v2.41h-2v4.28a.94.94,0,0,0,1,1.08,2.62,2.62,0,0,0,1-.18v2.69a7.25,7.25,0,0,1-1.95.3C52,187.08,50.71,186,50.71,183.52Z" fill="#fff"/><path d="M58.1,183.52v-4.61H56.86V176.5H58.1v-2.15h3.54v2.15h2v2.41h-2v4.28a.94.94,0,0,0,1,1.08,2.67,2.67,0,0,0,1-.18v2.69a7.41,7.41,0,0,1-2,.3C59.41,187.08,58.1,186,58.1,183.52Z" fill="#fff"/><path d="M64.47,181.8v-.16a5.29,5.29,0,0,1,5.6-5.42c2.82,0,5.26,1.63,5.26,5.34v.93H68.05a2.06,2.06,0,0,0,2.15,2.16c1.17,0,1.67-.54,1.8-1.23h3.33c-.32,2.34-2.12,3.66-5.25,3.66S64.47,185.18,64.47,181.8Zm7.41-1.3c0-1.25-.67-1.94-1.81-1.94a2,2,0,0,0-2,1.94Z" fill="#fff"/><path d="M76.55,176.5h3.54v2.06a3.26,3.26,0,0,1,3.34-2.2v3.31c-2.15-.06-3.34.61-3.34,2.27v4.9H76.55Z" fill="#fff"/><path d="M84.06,183.56h3.27c.12.75.45,1.17,1.46,1.17s1.27-.34,1.27-.85-.5-.73-1.92-.93c-2.77-.36-3.94-1.17-3.94-3.32s2-3.41,4.43-3.41c2.55,0,4.33.87,4.57,3.35H90a1.16,1.16,0,0,0-1.33-1c-.77,0-1.17.33-1.17.81s.48.69,1.75.85c2.86.36,4.25,1.11,4.25,3.32,0,2.45-1.82,3.56-4.69,3.56S84.14,185.85,84.06,183.56Z" fill="#fff"/><path d="M94.5,185.06a2,2,0,0,1,2-2,2,2,0,1,1,0,4A2,2,0,0,1,94.5,185.06Z" fill="#fff"/><path d="M103.42,179.86v-.15c0-4.32,3.25-7.2,7.48-7.2s7.49,2.71,7.49,7.1v.15c0,4.35-3,7.32-7.55,7.32S103.42,184.11,103.42,179.86Zm10.74,0v-.15c0-2.52-1.27-4-3.26-4s-3.25,1.44-3.25,4v.15c0,2.57,1.31,4.06,3.27,4.06S114.16,182.35,114.16,179.82Z" fill="#fff"/><path d="M119.68,183.24V176.5h3.54v6.17c0,1.17.45,1.74,1.46,1.74s1.76-.63,1.76-2V176.5H130v10.34h-3.54v-1.6a3.39,3.39,0,0,1-3.28,1.84C121.16,187.08,119.68,185.85,119.68,183.24Z" fill="#fff"/><path d="M131.78,176.5h3.54v2.06a3.26,3.26,0,0,1,3.34-2.2v3.31c-2.16-.06-3.34.61-3.34,2.27v4.9h-3.54Z" fill="#fff"/><path d="M20.49,215.61v-.15a5.29,5.29,0,0,1,5.6-5.42c2.83,0,5.26,1.62,5.26,5.34v.93H24.07a2.06,2.06,0,0,0,2.16,2.15c1.17,0,1.66-.53,1.8-1.22h3.32c-.32,2.33-2.11,3.65-5.24,3.65S20.49,219,20.49,215.61Zm7.42-1.3c-.06-1.25-.67-1.94-1.82-1.94a2,2,0,0,0-2,1.94Z" fill="#fff"/><path d="M34.63,215.4l-3.22-5.09h4.07l1.6,2.73,1.57-2.73h3.64L39,215.12l3.58,5.54H38.53l-1.84-3.09-1.88,3.09H31.19Z" fill="#fff"/><path d="M43.59,210.31h3.54v1.55A3.64,3.64,0,0,1,50.35,210c2.41,0,4.37,1.82,4.37,5.36v.16c0,3.55-2,5.33-4.39,5.33a3.4,3.4,0,0,1-3.2-1.76v5H43.59Zm7.53,5.25v-.16c0-1.82-.79-2.69-2-2.69s-2.06.93-2.06,2.67v.16c0,1.76.77,2.65,2.06,2.65S51.12,217.26,51.12,215.56Z" fill="#fff"/><path d="M55.45,215.61v-.15a5.29,5.29,0,0,1,5.6-5.42c2.83,0,5.26,1.62,5.26,5.34v.93H59a2.06,2.06,0,0,0,2.16,2.15c1.16,0,1.66-.53,1.8-1.22h3.32c-.32,2.33-2.12,3.65-5.24,3.65S55.45,219,55.45,215.61Zm7.42-1.3c-.06-1.25-.67-1.94-1.82-1.94a2,2,0,0,0-2,1.94Z" fill="#fff"/><path d="M67.53,210.31h3.54v2.06a3.27,3.27,0,0,1,3.35-2.19v3.3c-2.16-.06-3.35.61-3.35,2.27v4.91H67.53Z" fill="#fff"/><path d="M76.33,217.33v-4.6H75.09v-2.42h1.24v-2.15h3.54v2.15h2v2.42h-2V217a1,1,0,0,0,1,1.09,2.67,2.67,0,0,0,1-.18v2.69a7.47,7.47,0,0,1-2,.29C77.64,220.89,76.33,219.77,76.33,217.33Z" fill="#fff"/><path d="M82.7,217.37H86c.12.76.46,1.17,1.47,1.17s1.26-.33,1.26-.85-.49-.73-1.92-.93c-2.77-.35-3.93-1.17-3.93-3.32s2-3.4,4.43-3.4c2.55,0,4.33.87,4.57,3.34H88.63a1.16,1.16,0,0,0-1.32-1c-.77,0-1.17.34-1.17.81s.48.69,1.74.85c2.87.36,4.25,1.11,4.25,3.32,0,2.46-1.82,3.56-4.68,3.56S82.78,219.67,82.7,217.37Z" fill="#fff"/><path d="M96,210.31h3.7l1.5,6.19,1.74-6.19h2.85l1.54,6.19,1.68-6.19h3.36l-3.28,10.35h-3.38l-1.55-5.78-1.6,5.78H99.13Z" fill="#fff"/><path d="M113.21,207.51a2,2,0,1,1,1.94,1.82A1.85,1.85,0,0,1,113.21,207.51Zm.18,2.8h3.54v10.35h-3.54Z" fill="#fff"/><path d="M118.92,205.77h3.52v14.89h-3.52Z" fill="#fff"/><path d="M124.44,205.77H128v14.89h-3.52Z" fill="#fff"/><path d="M20.47,254.47H24c.16.75.62,1.35,1.9,1.35a2,2,0,0,0,2.2-2.18v-1.58a3.63,3.63,0,0,1-3.21,1.9c-2.41,0-4.39-1.78-4.39-5v-.16c0-3,2-5,4.39-5a3.36,3.36,0,0,1,3.21,1.74v-1.46h3.54v9.47c0,3.09-2,4.71-5.74,4.71C22.37,258.31,20.75,256.82,20.47,254.47Zm7.72-5.5v-.14c0-1.42-.73-2.33-2-2.33s-2,.93-2,2.35V249c0,1.43.75,2.34,2,2.34S28.19,250.44,28.19,249Z" fill="#fff"/><path d="M32.87,249.43v-.16a5.29,5.29,0,0,1,5.6-5.42c2.83,0,5.26,1.62,5.26,5.34v.93H36.45a2.07,2.07,0,0,0,2.16,2.16c1.16,0,1.66-.54,1.8-1.23h3.32c-.32,2.33-2.12,3.66-5.24,3.66S32.87,252.81,32.87,249.43Zm7.42-1.31c-.06-1.24-.67-1.94-1.82-1.94a2,2,0,0,0-2,1.94Z" fill="#fff"/><path d="M45.43,251.15v-4.61H44.18v-2.41h1.25V242H49v2.16h2v2.41H49v4.27c0,.75.37,1.09,1.05,1.09a2.62,2.62,0,0,0,1-.18v2.69a7.25,7.25,0,0,1-2,.3C46.73,254.71,45.43,253.58,45.43,251.15Z" fill="#fff"/><path d="M59.19,253.42l-4.13-9.29h3.83L61,249.65l2-5.52h3.38l-5.54,13.8H57.47Z" fill="#fff"/><path d="M66.19,249.43v-.16c0-3.32,2.47-5.42,5.67-5.42s5.64,2,5.64,5.32v.16c0,3.36-2.47,5.38-5.66,5.38S66.19,252.77,66.19,249.43Zm7.71-.06v-.16c0-1.74-.69-2.71-2-2.71s-2,.93-2,2.67v.16c0,1.78.69,2.75,2,2.75S73.9,251.09,73.9,249.37Z" fill="#fff"/><path d="M78.67,250.87v-6.74h3.54v6.17c0,1.16.45,1.74,1.46,1.74s1.76-.63,1.76-2v-6H89v10.34H85.43v-1.6a3.4,3.4,0,0,1-3.28,1.84C80.15,254.71,78.67,253.48,78.67,250.87Z" fill="#fff"/><path d="M90.77,244.13h3.54v2.05A3.25,3.25,0,0,1,97.65,244v3.3c-2.16-.06-3.34.62-3.34,2.28v4.9H90.77Z" fill="#fff"/><path d="M21.05,277.94h3.54v1.58a3.62,3.62,0,0,1,3.24-1.85,2.82,2.82,0,0,1,2.81,1.72,4.08,4.08,0,0,1,3.42-1.72c2,0,3.38,1.26,3.38,3.85v6.76H33.9v-6.17c0-1-.51-1.56-1.32-1.56A1.53,1.53,0,0,0,31,282.29v6H27.5v-6.17c0-1-.52-1.56-1.33-1.56a1.53,1.53,0,0,0-1.58,1.74v6H21.05Z" fill="#fff"/><path d="M38.57,285.42c0-2.44,2-3.38,5.49-3.38h1v-.24c0-1-.23-1.64-1.36-1.64a1.26,1.26,0,0,0-1.4,1.22H39c.16-2.49,2.12-3.71,4.95-3.71s4.66,1.16,4.66,3.91v6.7H45.13v-1.2a3.38,3.38,0,0,1-3.06,1.44C40.21,288.52,38.57,287.61,38.57,285.42Zm6.48-.75V284h-.93c-1.42,0-2,.28-2,1.13,0,.59.39,1,1.22,1C44.3,286.13,45.05,285.56,45.05,284.67Z" fill="#fff"/><path d="M52.9,283l-3.22-5.08h4.07l1.6,2.73,1.57-2.73h3.64l-3.27,4.81,3.58,5.53H56.8L55,285.2l-1.88,3.08H49.46Z" fill="#fff"/><path d="M65.46,277.94H69V280a3.26,3.26,0,0,1,3.34-2.2v3.31c-2.16-.06-3.34.61-3.34,2.27v4.9H65.46Z" fill="#fff"/><path d="M73,283.24v-.16a5.28,5.28,0,0,1,5.6-5.41c2.83,0,5.26,1.62,5.26,5.33v.93H76.55a2.07,2.07,0,0,0,2.16,2.16c1.16,0,1.66-.53,1.8-1.23h3.32c-.32,2.34-2.12,3.66-5.24,3.66S73,286.62,73,283.24Zm7.42-1.3c-.06-1.25-.67-1.94-1.82-1.94a2,2,0,0,0-2,1.94Z" fill="#fff"/><path d="M85.59,280.35H84.28v-2.41h1.31V277c0-2.57,1.6-3.79,4-3.79a6.25,6.25,0,0,1,1.62.21V276a3.17,3.17,0,0,0-1-.14A1,1,0,0,0,89.11,277v.91H91.2v2.41H89.11v7.93H85.59Z" fill="#fff"/><path d="M92.31,284.69v-6.75h3.54v6.17c0,1.17.45,1.74,1.46,1.74s1.76-.63,1.76-2v-5.95h3.54v10.34H99.07v-1.6a3.39,3.39,0,0,1-3.28,1.84C93.79,288.52,92.31,287.3,92.31,284.69Z" fill="#fff"/><path d="M104.41,277.94H108v1.66a3.65,3.65,0,0,1,3.4-1.93c2,0,3.38,1.24,3.38,3.89v6.72h-3.54v-6c0-1.16-.45-1.74-1.48-1.74s-1.76.64-1.76,2v5.79h-3.54Z" fill="#fff"/><path d="M115.94,283.22v-.16c0-3.52,1.94-5.39,4.39-5.39a3.34,3.34,0,0,1,3.18,1.74v-6h3.54v14.89h-3.54V286.6a3.48,3.48,0,0,1-3.22,1.92C117.89,288.52,115.94,286.8,115.94,283.22Zm7.67-.06V283c0-1.74-.73-2.67-2-2.67s-2,.89-2,2.69v.16c0,1.74.77,2.63,2,2.63S123.61,284.92,123.61,283.16Z" fill="#fff"/><path d="M128.71,286.5a2,2,0,0,1,2-2,2,2,0,1,1,0,4A2,2,0,0,1,128.71,286.5Z" fill="#fff"/></g></g></svg>