<svg xmlns="http://www.w3.org/2000/svg" viewBox="0 0 1456 180"><title>H3</title><g id="Layer_2" data-name="Layer 2"><g id="Layer_4" data-name="Layer 4"><rect width="1456" height="180" fill="none"/></g><g id="Easily_the_easiest_way_to_do_your_own_taxes." data-name="Easily the easiest way  to do your own taxes."><path d="M241.68,36.19h31.08v10H254.51v7.74h14.54v9.19H254.51v8.18h19.26v10H241.68Z" fill="#13aa40"/><path d="M276.35,72.07c0-7.74,6.54-10.76,17.49-10.76H297v-.76c0-3.14-.75-5.22-4.34-5.22-3.09,0-4.22,1.82-4.47,3.9H277.61c.5-7.93,6.73-11.83,15.73-11.83s14.85,3.71,14.85,12.46V81.2H297.24V77.36c-1.57,2.39-4.47,4.59-9.75,4.59C281.57,82,276.35,79.06,276.35,72.07ZM297,69.68v-2h-3c-4.53,0-6.54.88-6.54,3.58,0,1.89,1.26,3.09,3.9,3.09C294.6,74.34,297,72.51,297,69.68Z" fill="#13aa40"/><path d="M311.46,70.75h10.39c.38,2.39,1.44,3.71,4.65,3.71,2.77,0,4-1.07,4-2.7s-1.57-2.33-6.1-3c-8.81-1.13-12.52-3.71-12.52-10.58,0-7.3,6.48-10.82,14.09-10.82,8.12,0,13.78,2.77,14.54,10.64h-10.2c-.44-2.21-1.63-3.28-4.21-3.28s-3.72,1.07-3.72,2.58,1.51,2.21,5.54,2.71c9.13,1.13,13.53,3.52,13.53,10.57,0,7.81-5.79,11.33-14.91,11.33C317.19,82,311.72,78.05,311.46,70.75Z" fill="#13aa40"/><path d="M344.88,39.34a6.21,6.21,0,0,1,12.4,0c0,3.34-2.71,5.79-6.23,5.79A5.83,5.83,0,0,1,344.88,39.34Zm.57,8.94h11.26V81.2H345.45Z" fill="#13aa40"/><path d="M363.07,33.8h11.2V81.2h-11.2Z" fill="#13aa40"/><path d="M390.63,77.86,377.48,48.28h12.21l6.79,17.56,6.29-17.56h10.77L395.92,92.21H385.16Z" fill="#13aa40"/><path d="M429.39,70.62V56h-4V48.28h4V41.42h11.27v6.86h6.48V56h-6.48V69.55c0,2.4,1.19,3.47,3.33,3.47a8.51,8.51,0,0,0,3.21-.57V81A23.53,23.53,0,0,1,441,82C433.55,82,429.39,78.37,429.39,70.62Z" fill="#13aa40"/><path d="M451.42,33.8h11.26V53.57c1.77-3.4,5.35-6.17,10.83-6.17,6.35,0,10.76,4,10.76,12.4V81.2H473V62.06c0-3.71-1.44-5.53-4.72-5.53s-5.6,2-5.6,6.23V81.2H451.42Z" fill="#13aa40"/><path d="M488,65.15v-.5c0-10.58,7.87-17.25,17.81-17.25,9,0,16.74,5.16,16.74,17v3H499.37c.32,4.34,2.83,6.86,6.86,6.86,3.71,0,5.29-1.7,5.73-3.9h10.57c-1,7.43-6.73,11.64-16.68,11.64C495.53,82,488,75.91,488,65.15ZM511.58,61c-.19-4-2.14-6.16-5.79-6.16-3.4,0-5.73,2.2-6.29,6.16Z" fill="#13aa40"/><path d="M536.12,65.15v-.5c0-10.58,7.87-17.25,17.81-17.25,9,0,16.74,5.16,16.74,17v3H547.51c.32,4.34,2.83,6.86,6.86,6.86,3.71,0,5.29-1.7,5.73-3.9h10.57C569.66,77.74,563.94,82,554,82,543.67,82,536.12,75.91,536.12,65.15ZM559.72,61c-.19-4-2.14-6.16-5.79-6.16-3.4,0-5.73,2.2-6.29,6.16Z" fill="#13aa40"/><path d="M573,72.07c0-7.74,6.54-10.76,17.49-10.76h3.15v-.76c0-3.14-.76-5.22-4.34-5.22-3.09,0-4.22,1.82-4.47,3.9H574.26C574.76,51.3,581,47.4,590,47.4s14.85,3.71,14.85,12.46V81.2h-11V77.36c-1.57,2.39-4.47,4.59-9.75,4.59C578.22,82,573,79.06,573,72.07Zm20.64-2.39v-2h-3c-4.53,0-6.54.88-6.54,3.58,0,1.89,1.25,3.09,3.9,3.09C591.25,74.34,593.64,72.51,593.64,69.68Z" fill="#13aa40"/><path d="M608.11,70.75H618.5c.37,2.39,1.44,3.71,4.65,3.71,2.77,0,4-1.07,4-2.7s-1.57-2.33-6.1-3c-8.81-1.13-12.53-3.71-12.53-10.58,0-7.3,6.48-10.82,14.1-10.82,8.12,0,13.78,2.77,14.54,10.64H627c-.44-2.21-1.64-3.28-4.22-3.28s-3.71,1.07-3.71,2.58,1.51,2.21,5.54,2.71c9.12,1.13,13.53,3.52,13.53,10.57,0,7.81-5.79,11.33-14.91,11.33C613.84,82,608.36,78.05,608.11,70.75Z" fill="#13aa40"/><path d="M641.53,39.34a6.21,6.21,0,0,1,12.4,0c0,3.34-2.71,5.79-6.23,5.79A5.83,5.83,0,0,1,641.53,39.34Zm.57,8.94h11.26V81.2H642.1Z" fill="#13aa40"/><path d="M657.64,65.15v-.5c0-10.58,7.86-17.25,17.81-17.25,9,0,16.74,5.16,16.74,17v3H669c.31,4.34,2.83,6.86,6.86,6.86,3.71,0,5.28-1.7,5.72-3.9h10.58c-1,7.43-6.74,11.64-16.68,11.64C665.19,82,657.64,75.91,657.64,65.15ZM681.24,61c-.19-4-2.14-6.16-5.79-6.16-3.4,0-5.73,2.2-6.3,6.16Z" fill="#13aa40"/><path d="M694.2,70.75h10.38c.38,2.39,1.45,3.71,4.66,3.71,2.77,0,4-1.07,4-2.7s-1.58-2.33-6.11-3c-8.81-1.13-12.52-3.71-12.52-10.58,0-7.3,6.48-10.82,14.1-10.82,8.11,0,13.78,2.77,14.53,10.64H713.08c-.44-2.21-1.64-3.28-4.22-3.28s-3.71,1.07-3.71,2.58,1.51,2.21,5.54,2.71c9.12,1.13,13.53,3.52,13.53,10.57,0,7.81-5.79,11.33-14.92,11.33C699.93,82,694.45,78.05,694.2,70.75Z" fill="#13aa40"/><path d="M729.38,70.62V56h-4V48.28h4V41.42h11.26v6.86h6.48V56h-6.48V69.55c0,2.4,1.2,3.47,3.34,3.47a8.54,8.54,0,0,0,3.21-.57V81A23.6,23.6,0,0,1,741,82C733.53,82,729.38,78.37,729.38,70.62Z" fill="#13aa40"/><path d="M760.09,48.28h11.76L776.64,68l5.53-19.7h9.07l4.9,19.7,5.35-19.7h10.7L801.75,81.2H791l-4.9-18.38L781,81.2H770Z" fill="#13aa40"/><path d="M811.94,72.07c0-7.74,6.55-10.76,17.5-10.76h3.14v-.76c0-3.14-.75-5.22-4.34-5.22-3.08,0-4.22,1.82-4.47,3.9H813.2c.5-7.93,6.73-11.83,15.73-11.83s14.85,3.71,14.85,12.46V81.2H832.83V77.36c-1.57,2.39-4.46,4.59-9.75,4.59C817.17,82,811.94,79.06,811.94,72.07Zm20.64-2.39v-2h-3c-4.53,0-6.54.88-6.54,3.58,0,1.89,1.26,3.09,3.9,3.09C830.19,74.34,832.58,72.51,832.58,69.68Z" fill="#13aa40"/><path d="M858.45,77.86,845.29,48.28H857.5l6.8,17.56,6.29-17.56h10.76L863.73,92.21H853Z" fill="#13aa40"/><path d="M242.18,135.12V120.45h-4v-7.67h4v-6.86h11.26v6.86h6.48v7.67h-6.48v13.6c0,2.39,1.2,3.46,3.34,3.46A8.75,8.75,0,0,0,260,137v8.56a24,24,0,0,1-6.23.94C246.33,146.45,242.18,142.86,242.18,135.12Z" fill="#13aa40"/><path d="M262.44,129.64v-.5c0-10.57,7.87-17.25,18.06-17.25s17.94,6.49,17.94,16.94v.5c0,10.7-7.87,17.12-18,17.12S262.44,140.28,262.44,129.64Zm24.54-.18V129c0-5.54-2.2-8.62-6.48-8.62s-6.54,3-6.54,8.5v.5c0,5.66,2.2,8.75,6.54,8.75S287,134.93,287,129.46Z" fill="#13aa40"/><path d="M312.22,129.58v-.5c0-11.21,6.17-17.19,14-17.19,5.16,0,8.24,2.21,10.13,5.54V98.3h11.26v47.39H336.32v-5.35a11.1,11.1,0,0,1-10.26,6.11C318.45,146.45,312.22,141,312.22,129.58Zm24.42-.19v-.5c0-5.54-2.33-8.5-6.49-8.5s-6.48,2.83-6.48,8.56v.51c0,5.53,2.46,8.37,6.36,8.37C334.12,137.83,336.64,135,336.64,129.39Z" fill="#13aa40"/><path d="M351.55,129.64v-.5c0-10.57,7.87-17.25,18.06-17.25s17.94,6.49,17.94,16.94v.5c0,10.7-7.87,17.12-18,17.12S351.55,140.28,351.55,129.64Zm24.54-.18V129c0-5.54-2.2-8.62-6.48-8.62s-6.54,3-6.54,8.5v.5c0,5.66,2.2,8.75,6.54,8.75S376.09,134.93,376.09,129.46Z" fill="#13aa40"/><path d="M413.28,142.36l-13.15-29.58h12.21l6.8,17.56,6.29-17.56h10.76l-17.62,43.93H407.81Z" fill="#13aa40"/><path d="M435.56,129.64v-.5c0-10.57,7.87-17.25,18.06-17.25s17.94,6.49,17.94,16.94v.5c0,10.7-7.87,17.12-18,17.12S435.56,140.28,435.56,129.64Zm24.54-.18V129c0-5.54-2.2-8.62-6.48-8.62s-6.54,3-6.54,8.5v.5c0,5.66,2.2,8.75,6.54,8.75S460.1,134.93,460.1,129.46Z" fill="#13aa40"/><path d="M475.27,134.24V112.78h11.26v19.63c0,3.72,1.45,5.54,4.66,5.54,3.4,0,5.6-2,5.6-6.23V112.78h11.27v32.91H496.79V140.6c-1.76,3.4-5,5.85-10.44,5.85C480,146.45,475.27,142.55,475.27,134.24Z" fill="#13aa40"/><path d="M513.78,112.78h11.27v6.54c2.07-4.91,5.53-7,10.63-7v10.52c-6.86-.19-10.63,2-10.63,7.23v15.61H513.78Z" fill="#13aa40"/><path d="M549.46,129.64v-.5c0-10.57,7.87-17.25,18.06-17.25s17.94,6.49,17.94,16.94v.5c0,10.7-7.87,17.12-18,17.12S549.46,140.28,549.46,129.64Zm24.55-.18V129c0-5.54-2.21-8.62-6.49-8.62s-6.54,3-6.54,8.5v.5c0,5.66,2.2,8.75,6.54,8.75S574,134.93,574,129.46Z" fill="#13aa40"/><path d="M585.59,112.78h11.76l4.79,19.7,5.53-19.7h9.06l4.91,19.7,5.35-19.7h10.7l-10.45,32.91H616.48l-4.91-18.37-5.09,18.37h-11Z" fill="#13aa40"/><path d="M640.59,112.78h11.26v5.28c1.76-3.4,5.35-6.17,10.82-6.17,6.36,0,10.76,4,10.76,12.4v21.4H662.17V126.56c0-3.71-1.45-5.54-4.72-5.54s-5.6,2-5.6,6.23v18.44H640.59Z" fill="#13aa40"/><path d="M691.87,135.12V120.45h-4v-7.67h4v-6.86h11.27v6.86h6.48v7.67h-6.48v13.6c0,2.39,1.19,3.46,3.33,3.46a8.75,8.75,0,0,0,3.21-.56v8.56a24,24,0,0,1-6.23.94C696,146.45,691.87,142.86,691.87,135.12Z" fill="#13aa40"/><path d="M712.14,136.57c0-7.74,6.54-10.77,17.49-10.77h3.15v-.75c0-3.15-.76-5.22-4.35-5.22-3.08,0-4.21,1.82-4.46,3.9H713.39c.51-7.93,6.74-11.84,15.74-11.84S744,115.61,744,124.36v21.33H733v-3.84c-1.58,2.4-4.47,4.6-9.76,4.6C717.36,146.45,712.14,143.55,712.14,136.57Zm20.64-2.39v-2h-3c-4.53,0-6.55.88-6.55,3.59,0,1.89,1.26,3.08,3.91,3.08C730.38,138.83,732.78,137,732.78,134.18Z" fill="#13aa40"/><path d="M757.76,129,747.5,112.78h13l5.09,8.68,5-8.68h11.58l-10.38,15.29,11.39,17.62h-13l-5.86-9.82-6,9.82H746.81Z" fill="#13aa40"/><path d="M781.67,129.64v-.5c0-10.57,7.87-17.25,17.81-17.25,9,0,16.74,5.17,16.74,17v3H793.06c.32,4.34,2.83,6.86,6.86,6.86,3.71,0,5.29-1.7,5.73-3.9h10.57c-1,7.42-6.73,11.64-16.68,11.64C789.22,146.45,781.67,140.41,781.67,129.64Zm23.6-4.15c-.19-4-2.14-6.17-5.79-6.17-3.4,0-5.73,2.2-6.29,6.17Z" fill="#13aa40"/><path d="M818.23,135.25h10.39c.38,2.39,1.44,3.71,4.65,3.71,2.77,0,4-1.07,4-2.71s-1.57-2.33-6.1-3c-8.81-1.13-12.53-3.71-12.53-10.57,0-7.3,6.49-10.83,14.1-10.83,8.12,0,13.78,2.77,14.54,10.64h-10.2c-.44-2.2-1.63-3.27-4.21-3.27s-3.72,1.07-3.72,2.58,1.51,2.2,5.54,2.71c9.13,1.13,13.53,3.52,13.53,10.57,0,7.8-5.79,11.33-14.91,11.33C824,146.45,818.49,142.55,818.23,135.25Z" fill="#13aa40"/><path d="M851.46,140a6.28,6.28,0,0,1,6.42-6.36,6.36,6.36,0,1,1,0,12.72A6.28,6.28,0,0,1,851.46,140Z" fill="#13aa40"/></g></g></svg>