<svg xmlns="http://www.w3.org/2000/svg" viewBox="0 0 728 90"><title>H18 T4</title><g id="Layer_2" data-name="Layer 2"><g id="Rect"><rect width="728" height="90" fill="none"/></g><g id="H18"><g id="Easily_the_easiest_way_to_do_your_own_taxes." data-name="Easily the easiest way  to do your own taxes."><path d="M120.84,18.1h15.54v5h-9.12v3.87h7.26v4.6h-7.26v4.09h9.62v5h-16Z" fill="#13aa40"/><path d="M138.17,36c0-3.87,3.28-5.38,8.75-5.38h1.58v-.38c0-1.57-.38-2.61-2.18-2.61a2,2,0,0,0-2.23,1.95H138.8c.26-4,3.37-5.92,7.87-5.92s7.43,1.86,7.43,6.23V40.6h-5.48V38.68a5.4,5.4,0,0,1-4.88,2.3C140.79,41,138.17,39.53,138.17,36Zm10.33-1.2v-1H147c-2.27,0-3.28.45-3.28,1.8,0,.94.63,1.54,1.95,1.54C147.3,37.17,148.5,36.26,148.5,34.84Z" fill="#13aa40"/><path d="M155.73,35.38h5.19c.19,1.19.73,1.85,2.33,1.85,1.39,0,2-.53,2-1.35s-.79-1.16-3.06-1.48c-4.4-.57-6.26-1.86-6.26-5.28,0-3.65,3.24-5.42,7.05-5.42,4.06,0,6.89,1.39,7.27,5.32h-5.1a1.84,1.84,0,0,0-2.11-1.64c-1.22,0-1.85.54-1.85,1.29S162,29.78,164,30c4.56.56,6.76,1.76,6.76,5.28,0,3.91-2.89,5.67-7.46,5.67S155.86,39,155.73,35.38Z" fill="#13aa40"/><path d="M172.44,19.68a3.11,3.11,0,1,1,3.08,2.89A2.94,2.94,0,0,1,172.44,19.68Zm.28,4.46h5.64V40.6h-5.64Z" fill="#13aa40"/><path d="M181.53,16.91h5.6V40.6h-5.6Z" fill="#13aa40"/><path d="M195.31,38.93l-6.57-14.79h6.1l3.4,8.78,3.15-8.78h5.38l-8.81,22h-5.38Z" fill="#13aa40"/><path d="M214.7,35.31V28h-2V24.14h2V20.71h5.63v3.43h3.24V28h-3.24v6.8A1.51,1.51,0,0,0,222,36.51a4.23,4.23,0,0,0,1.6-.28v4.28a12.15,12.15,0,0,1-3.11.47C216.77,41,214.7,39.18,214.7,35.31Z" fill="#13aa40"/><path d="M225.71,16.91h5.63v9.88a5.82,5.82,0,0,1,5.41-3.09c3.18,0,5.38,2,5.38,6.2V40.6H236.5V31c0-1.85-.72-2.76-2.36-2.76s-2.8,1-2.8,3.11V40.6h-5.63Z" fill="#13aa40"/><path d="M244,32.58v-.26c0-5.28,3.93-8.62,8.91-8.62,4.49,0,8.36,2.58,8.36,8.5v1.48H249.69c.15,2.17,1.41,3.43,3.43,3.43,1.85,0,2.64-.85,2.86-2h5.28c-.5,3.71-3.36,5.82-8.33,5.82C247.77,41,244,38,244,32.58Zm11.8-2.08c-.09-2-1.07-3.08-2.89-3.08s-2.87,1.1-3.15,3.08Z" fill="#13aa40"/><path d="M268.06,32.58v-.26c0-5.28,3.93-8.62,8.91-8.62,4.49,0,8.36,2.58,8.36,8.5v1.48H273.76c.15,2.17,1.41,3.43,3.43,3.43,1.85,0,2.64-.85,2.86-2h5.28C284.83,38.87,282,41,277,41,271.84,41,268.06,38,268.06,32.58Zm11.8-2.08c-.09-2-1.07-3.08-2.89-3.08s-2.87,1.1-3.15,3.08Z" fill="#13aa40"/><path d="M286.5,36c0-3.87,3.27-5.38,8.75-5.38h1.57v-.38c0-1.57-.38-2.61-2.17-2.61a2,2,0,0,0-2.24,1.95h-5.28c.25-4,3.37-5.92,7.86-5.92s7.43,1.86,7.43,6.23V40.6H297V38.68a5.41,5.41,0,0,1-4.88,2.3C289.11,41,286.5,39.53,286.5,36Zm10.32-1.2v-1h-1.48c-2.26,0-3.27.45-3.27,1.8,0,.94.63,1.54,1.95,1.54C295.62,37.17,296.82,36.26,296.82,34.84Z" fill="#13aa40"/><path d="M304.06,35.38h5.19c.19,1.19.72,1.85,2.33,1.85,1.38,0,2-.53,2-1.35s-.79-1.16-3-1.48c-4.41-.57-6.26-1.86-6.26-5.28,0-3.65,3.24-5.42,7-5.42,4.06,0,6.9,1.39,7.27,5.32H313.5a1.84,1.84,0,0,0-2.11-1.64c-1.23,0-1.86.54-1.86,1.29s.76,1.11,2.77,1.36c4.56.56,6.76,1.76,6.76,5.28,0,3.91-2.89,5.67-7.45,5.67S304.18,39,304.06,35.38Z" fill="#13aa40"/><path d="M320.76,19.68a3.11,3.11,0,1,1,3.09,2.89A2.95,2.95,0,0,1,320.76,19.68Zm.29,4.46h5.63V40.6h-5.63Z" fill="#13aa40"/><path d="M328.82,32.58v-.26c0-5.28,3.93-8.62,8.9-8.62,4.5,0,8.37,2.58,8.37,8.5v1.48H334.51c.16,2.17,1.42,3.43,3.43,3.43s2.65-.85,2.87-2h5.28c-.5,3.71-3.36,5.82-8.33,5.82C332.6,41,328.82,38,328.82,32.58Zm11.8-2.08c-.1-2-1.07-3.08-2.9-3.08s-2.86,1.1-3.14,3.08Z" fill="#13aa40"/><path d="M347.1,35.38h5.19c.19,1.19.73,1.85,2.33,1.85,1.38,0,2-.53,2-1.35s-.78-1.16-3.05-1.48c-4.4-.57-6.26-1.86-6.26-5.28,0-3.65,3.24-5.42,7.05-5.42,4.06,0,6.89,1.39,7.27,5.32h-5.1a1.84,1.84,0,0,0-2.11-1.64c-1.23,0-1.86.54-1.86,1.29s.76,1.11,2.77,1.36c4.57.56,6.77,1.76,6.77,5.28,0,3.91-2.9,5.67-7.46,5.67S347.23,39,347.1,35.38Z" fill="#13aa40"/><path d="M364.69,35.31V28h-2V24.14h2V20.71h5.63v3.43h3.24V28h-3.24v6.8A1.51,1.51,0,0,0,372,36.51a4.23,4.23,0,0,0,1.6-.28v4.28a12.15,12.15,0,0,1-3.11.47C366.77,41,364.69,39.18,364.69,35.31Z" fill="#13aa40"/><path d="M380,24.14h5.89L388.32,34l2.77-9.85h4.53L398.07,34l2.68-9.85h5.34L400.87,40.6h-5.38L393,31.41l-2.55,9.19H385Z" fill="#13aa40"/><path d="M406,36c0-3.87,3.27-5.38,8.75-5.38h1.57v-.38c0-1.57-.38-2.61-2.17-2.61a2,2,0,0,0-2.24,1.95H406.6c.25-4,3.37-5.92,7.86-5.92s7.43,1.86,7.43,6.23V40.6h-5.47V38.68a5.41,5.41,0,0,1-4.88,2.3C408.58,41,406,39.53,406,36Zm10.32-1.2v-1h-1.48c-2.26,0-3.27.45-3.27,1.8,0,.94.63,1.54,1.95,1.54C415.09,37.17,416.29,36.26,416.29,34.84Z" fill="#13aa40"/><path d="M429.22,38.93l-6.57-14.79h6.1l3.4,8.78,3.15-8.78h5.38l-8.81,22h-5.38Z" fill="#13aa40"/><path d="M121.09,67.56V60.23h-2V56.39h2V53h5.63v3.43H130v3.84h-3.24V67a1.51,1.51,0,0,0,1.67,1.73,4.23,4.23,0,0,0,1.6-.29v4.28a11.66,11.66,0,0,1-3.11.48C123.17,73.23,121.09,71.43,121.09,67.56Z" fill="#13aa40"/><path d="M131.22,64.82v-.25c0-5.28,3.93-8.62,9-8.62s9,3.24,9,8.47v.25c0,5.35-3.93,8.56-9,8.56S131.22,70.14,131.22,64.82Zm12.27-.09v-.25c0-2.77-1.1-4.31-3.24-4.31S137,61.65,137,64.42v.25c0,2.83,1.1,4.37,3.27,4.37S143.49,67.47,143.49,64.73Z" fill="#13aa40"/><path d="M156.11,64.79v-.25c0-5.6,3.08-8.59,7-8.59a5.33,5.33,0,0,1,5.07,2.77V49.16h5.63V72.85h-5.63V70.17A5.55,5.55,0,0,1,163,73.23C159.22,73.23,156.11,70.49,156.11,64.79Zm12.21-.09v-.25c0-2.77-1.17-4.25-3.24-4.25s-3.24,1.42-3.24,4.28v.25c0,2.77,1.22,4.19,3.17,4.19S168.32,67.5,168.32,64.7Z" fill="#13aa40"/><path d="M175.78,64.82v-.25c0-5.28,3.93-8.62,9-8.62s9,3.24,9,8.47v.25c0,5.35-3.93,8.56-9,8.56S175.78,70.14,175.78,64.82Zm12.27-.09v-.25c0-2.77-1.11-4.31-3.24-4.31s-3.28,1.48-3.28,4.25v.25c0,2.83,1.1,4.37,3.28,4.37S188.05,67.47,188.05,64.73Z" fill="#13aa40"/><path d="M206.64,71.18l-6.57-14.79h6.1l3.4,8.78,3.14-8.78h5.38l-8.81,22H203.9Z" fill="#13aa40"/><path d="M217.78,64.82v-.25c0-5.28,3.93-8.62,9-8.62s9,3.24,9,8.47v.25c0,5.35-3.94,8.56-9,8.56S217.78,70.14,217.78,64.82Zm12.27-.09v-.25c0-2.77-1.1-4.31-3.24-4.31s-3.27,1.48-3.27,4.25v.25c0,2.83,1.1,4.37,3.27,4.37S230.05,67.47,230.05,64.73Z" fill="#13aa40"/><path d="M237.63,67.12V56.39h5.64v9.82c0,1.86.72,2.77,2.33,2.77s2.8-1,2.8-3.12V56.39H254V72.85H248.4V70.3a5.43,5.43,0,0,1-5.23,2.93C240,73.23,237.63,71.27,237.63,67.12Z" fill="#13aa40"/><path d="M256.89,56.39h5.63v3.27a5.19,5.19,0,0,1,5.32-3.49v5.26c-3.43-.1-5.32,1-5.32,3.61v7.81h-5.63Z" fill="#13aa40"/><path d="M274.73,64.82v-.25c0-5.28,3.93-8.62,9-8.62s9,3.24,9,8.47v.25c0,5.35-3.93,8.56-9,8.56S274.73,70.14,274.73,64.82ZM287,64.73v-.25c0-2.77-1.1-4.31-3.24-4.31s-3.27,1.48-3.27,4.25v.25c0,2.83,1.1,4.37,3.27,4.37S287,67.47,287,64.73Z" fill="#13aa40"/><path d="M292.79,56.39h5.89l2.39,9.85,2.77-9.85h4.53l2.45,9.85,2.68-9.85h5.34l-5.22,16.46h-5.38l-2.45-9.19-2.55,9.19h-5.48Z" fill="#13aa40"/><path d="M320.29,56.39h5.63V59A5.83,5.83,0,0,1,331.34,56c3.17,0,5.38,2,5.38,6.2v10.7h-5.64V63.28c0-1.85-.72-2.77-2.36-2.77s-2.8,1-2.8,3.12v9.22h-5.63Z" fill="#13aa40"/><path d="M345.94,67.56V60.23h-2V56.39h2V53h5.63v3.43h3.24v3.84h-3.24V67a1.51,1.51,0,0,0,1.67,1.73,4.23,4.23,0,0,0,1.6-.29v4.28a11.66,11.66,0,0,1-3.11.48C348,73.23,345.94,71.43,345.94,67.56Z" fill="#13aa40"/><path d="M356.07,68.29c0-3.87,3.27-5.38,8.74-5.38h1.58v-.38c0-1.58-.38-2.61-2.17-2.61A2,2,0,0,0,362,61.87H356.7c.25-4,3.36-5.92,7.86-5.92S372,57.81,372,62.18V72.85h-5.48V70.93a5.4,5.4,0,0,1-4.87,2.3C358.68,73.23,356.07,71.78,356.07,68.29Zm10.32-1.2v-1h-1.48c-2.27,0-3.27.44-3.27,1.8,0,.94.63,1.54,1.95,1.54C365.19,69.42,366.39,68.51,366.39,67.09Z" fill="#13aa40"/><path d="M378.88,64.48l-5.13-8.09h6.48l2.55,4.34,2.49-4.34h5.79L385.87,64l5.69,8.81h-6.48l-2.93-4.91-3,4.91h-5.75Z" fill="#13aa40"/><path d="M390.84,64.82v-.25c0-5.28,3.93-8.62,8.9-8.62,4.5,0,8.37,2.58,8.37,8.5v1.48H396.53c.16,2.17,1.42,3.43,3.43,3.43s2.64-.85,2.86-2h5.29c-.5,3.72-3.37,5.83-8.34,5.83C394.61,73.23,390.84,70.21,390.84,64.82Zm11.79-2.07c-.09-2-1.06-3.09-2.89-3.09s-2.86,1.11-3.15,3.09Z" fill="#13aa40"/><path d="M409.12,67.62h5.19c.19,1.2.72,1.86,2.33,1.86,1.38,0,2-.53,2-1.35s-.79-1.17-3-1.48c-4.41-.57-6.26-1.86-6.26-5.29,0-3.65,3.24-5.41,7-5.41,4.06,0,6.9,1.39,7.27,5.32h-5.09a1.84,1.84,0,0,0-2.11-1.64c-1.23,0-1.86.54-1.86,1.29s.76,1.1,2.77,1.36c4.56.56,6.76,1.76,6.76,5.28,0,3.9-2.89,5.67-7.45,5.67S409.24,71.27,409.12,67.62Z" fill="#13aa40"/><path d="M425.73,70a3.13,3.13,0,0,1,3.21-3.18,3.18,3.18,0,1,1,0,6.35A3.13,3.13,0,0,1,425.73,70Z" fill="#13aa40"/></g></g></g></svg>