<svg xmlns="http://www.w3.org/2000/svg" viewBox="0 0 729 91"><title>Asset 17</title><g id="Layer_2" data-name="Layer 2"><g id="Layer_23" data-name="Layer 23"><rect x="0.5" y="0.5" width="728" height="90" fill="none" stroke="#000" stroke-miterlimit="10"/></g><g id="It_s_Better_with_Block." data-name="It’s Better with Block."><path d="M123.69,27.15h9V58.37h-9Z" fill="#fff"/><path d="M138.27,51V40.86h-2.75V35.54h2.75V30.78h7.81v4.76h4.5v5.32h-4.5v9.43c0,1.66.83,2.4,2.31,2.4a6,6,0,0,0,2.23-.39v5.94a16.49,16.49,0,0,1-4.32.65C141.15,58.89,138.27,56.4,138.27,51Z" fill="#fff"/><path d="M152.93,38l3.49-11.39,6.9,2.31-6,10.78Z" fill="#fff"/><path d="M160.7,51.12h7.21c.26,1.66,1,2.58,3.23,2.58,1.92,0,2.79-.74,2.79-1.88s-1.09-1.62-4.23-2C163.58,49,161,47.19,161,42.43c0-5.06,4.49-7.5,9.78-7.5,5.63,0,9.56,1.92,10.08,7.37H173.8c-.31-1.53-1.14-2.27-2.93-2.27s-2.57.74-2.57,1.79,1,1.53,3.84,1.88c6.33.79,9.39,2.44,9.39,7.33,0,5.42-4,7.86-10.35,7.86C164.67,58.89,160.88,56.19,160.7,51.12Z" fill="#fff"/><path d="M192.7,27.15h13.92c7.38,0,10.52,3.32,10.52,8.17v.17c0,3.49-1.79,5.81-5.28,6.73,3.84.65,6.24,3,6.24,7.29v.17c0,5.59-3.62,8.69-11.35,8.69H192.7Zm12.13,12.4c2.8,0,3.85-1,3.85-3.18v-.18c0-2.14-1.14-3.1-3.85-3.1h-3.4v6.46Zm.31,12.84c2.84,0,4.15-1.31,4.15-3.63v-.17c0-2.36-1.27-3.58-4.41-3.58h-3.45v7.38Z" fill="#fff"/><path d="M219.89,47.24v-.35c0-7.34,5.46-12,12.35-12,6.25,0,11.62,3.57,11.62,11.78v2H227.79c.22,3,2,4.76,4.76,4.76,2.58,0,3.67-1.18,4-2.7h7.34c-.7,5.15-4.67,8.07-11.57,8.07C225.13,58.89,219.89,54.7,219.89,47.24Zm16.37-2.89c-.13-2.75-1.48-4.27-4-4.27-2.35,0-4,1.52-4.36,4.27Z" fill="#fff"/><path d="M247.61,51V40.86h-2.75V35.54h2.75V30.78h7.81v4.76h4.5v5.32h-4.5v9.43a2.09,2.09,0,0,0,2.32,2.4A6,6,0,0,0,260,52.3v5.94a16.49,16.49,0,0,1-4.32.65C250.49,58.89,247.61,56.4,247.61,51Z" fill="#fff"/><path d="M263.93,51V40.86h-2.75V35.54h2.75V30.78h7.82v4.76h4.49v5.32h-4.49v9.43c0,1.66.83,2.4,2.31,2.4a6,6,0,0,0,2.23-.39v5.94a16.56,16.56,0,0,1-4.32.65C266.81,58.89,263.93,56.4,263.93,51Z" fill="#fff"/><path d="M278,47.24v-.35c0-7.34,5.45-12,12.35-12,6.24,0,11.61,3.57,11.61,11.78v2H285.89c.22,3,2,4.76,4.76,4.76,2.57,0,3.66-1.18,4-2.7H302c-.69,5.15-4.67,8.07-11.56,8.07C283.23,58.89,278,54.7,278,47.24Zm16.37-2.89c-.13-2.75-1.49-4.27-4-4.27-2.36,0-4,1.52-4.36,4.27Z" fill="#fff"/><path d="M304.66,35.54h7.81v4.54a7.2,7.2,0,0,1,7.38-4.85v7.29c-4.76-.13-7.38,1.35-7.38,5V58.37h-7.81Z" fill="#fff"/><path d="M328.71,35.54h8.16l3.32,13.66L344,35.54h6.29l3.4,13.66,3.71-13.66h7.42l-7.24,22.83h-7.47l-3.4-12.75L343.2,58.37h-7.6Z" fill="#fff"/><path d="M366.68,29.34a4.31,4.31,0,1,1,4.28,4A4.08,4.08,0,0,1,366.68,29.34Zm.4,6.2h7.81V58.37h-7.81Z" fill="#fff"/><path d="M380.13,51V40.86h-2.75V35.54h2.75V30.78h7.81v4.76h4.5v5.32h-4.5v9.43c0,1.66.83,2.4,2.31,2.4a6,6,0,0,0,2.23-.39v5.94a16.49,16.49,0,0,1-4.32.65C383,58.89,380.13,56.4,380.13,51Z" fill="#fff"/><path d="M395.4,25.5h7.82V39.2a8.06,8.06,0,0,1,7.51-4.27c4.41,0,7.46,2.75,7.46,8.6V58.37h-7.81V45.1c0-2.58-1-3.84-3.28-3.84s-3.88,1.39-3.88,4.32V58.37H395.4Z" fill="#fff"/><path d="M430.63,27.15h13.92c7.38,0,10.53,3.32,10.53,8.17v.17c0,3.49-1.79,5.81-5.29,6.73,3.84.65,6.25,3,6.25,7.29v.17c0,5.59-3.63,8.69-11.35,8.69H430.63Zm12.13,12.4c2.8,0,3.85-1,3.85-3.18v-.18c0-2.14-1.14-3.1-3.85-3.1h-3.4v6.46Zm.31,12.84c2.84,0,4.15-1.31,4.15-3.63v-.17c0-2.36-1.27-3.58-4.41-3.58h-3.45v7.38Z" fill="#fff"/><path d="M459.13,25.5h7.77V58.37h-7.77Z" fill="#fff"/><path d="M469.87,47.24v-.35c0-7.34,5.46-12,12.53-12s12.44,4.49,12.44,11.74V47c0,7.42-5.46,11.87-12.49,11.87S469.87,54.61,469.87,47.24Zm17-.14v-.34c0-3.85-1.52-6-4.49-6s-4.54,2.06-4.54,5.9V47c0,3.93,1.53,6.07,4.54,6.07S486.89,50.9,486.89,47.1Z" fill="#fff"/><path d="M496.36,47.24v-.35c0-7.6,5.46-12,12.18-12,5.59,0,10.74,2.44,11.18,9.38h-7.33C512,42.17,511,41,508.72,41c-2.75,0-4.37,2-4.37,5.81v.35c0,4,1.53,6,4.5,6,2.18,0,3.71-1.31,4-3.79h7c-.22,5.76-4.1,9.51-11.48,9.51C501.56,58.89,496.36,54.92,496.36,47.24Z" fill="#fff"/><path d="M522.38,25.5h7.81V44.57l6.16-9h8.12L537,45.79l8.08,12.58h-8.73l-6.16-10v10h-7.81Z" fill="#fff"/><path d="M546.61,54.44A4.35,4.35,0,0,1,551.06,50a4.41,4.41,0,1,1,0,8.82A4.35,4.35,0,0,1,546.61,54.44Z" fill="#fff"/></g></g></svg>