<svg xmlns="http://www.w3.org/2000/svg" viewBox="0 0 728 90"><title>H53</title><g id="Layer_2" data-name="Layer 2"><g id="Rect"><rect width="728" height="90" fill="none"/></g><g id="H53"><g id="It_s_better_with_Block." data-name="It’s better with Block."><path d="M123.2,27.67h9.09V59.06H123.2Z" fill="#fff"/><path d="M137.87,51.68V41.45H135.1V36.1h2.77V31.31h7.86V36.1h4.52v5.35h-4.52v9.48c0,1.67.83,2.42,2.32,2.42a5.85,5.85,0,0,0,2.24-.4v6a16.2,16.2,0,0,1-4.35.66C140.76,59.58,137.87,57.08,137.87,51.68Z" fill="#fff"/><path d="M152.62,38.56l3.51-11.46,6.94,2.32-6,10.85Z" fill="#fff"/><path d="M160.43,51.77h7.25c.26,1.67,1,2.59,3.24,2.59,1.94,0,2.81-.75,2.81-1.89s-1.09-1.62-4.25-2.06c-6.15-.79-8.74-2.59-8.74-7.38,0-5.09,4.52-7.55,9.83-7.55,5.67,0,9.62,1.93,10.14,7.42H173.6c-.31-1.54-1.14-2.28-2.94-2.28s-2.59.74-2.59,1.8,1.05,1.54,3.86,1.89c6.37.79,9.44,2.45,9.44,7.37,0,5.45-4,7.9-10.4,7.9C164.43,59.58,160.61,56.86,160.43,51.77Z" fill="#fff"/><path d="M199.77,55.5v3.56h-7.86V26h7.86V39.52a8.09,8.09,0,0,1,7.15-4c5.36,0,9.7,4,9.7,11.9v.35c0,7.9-4.34,11.85-9.74,11.85C203.45,59.58,200.91,58,199.77,55.5Zm8.86-7.77v-.35c0-4-1.75-6-4.52-6s-4.56,2.06-4.56,5.92v.36c0,3.9,1.71,5.88,4.56,5.88S208.63,51.51,208.63,47.73Z" fill="#fff"/><path d="M218.25,47.86v-.35c0-7.37,5.49-12,12.42-12,6.28,0,11.68,3.6,11.68,11.85V49.4H226.19c.22,3,2,4.78,4.79,4.78,2.59,0,3.69-1.18,4-2.72h7.38c-.7,5.18-4.7,8.12-11.63,8.12C223.52,59.58,218.25,55.37,218.25,47.86ZM234.71,45c-.13-2.76-1.49-4.3-4-4.3-2.37,0-4,1.54-4.39,4.3Z" fill="#fff"/><path d="M246.12,51.68V41.45h-2.76V36.1h2.76V31.31H254V36.1h4.52v5.35H254v9.48a2.1,2.1,0,0,0,2.33,2.42,5.85,5.85,0,0,0,2.24-.4v6a16.2,16.2,0,0,1-4.35.66C249,59.58,246.12,57.08,246.12,51.68Z" fill="#fff"/><path d="M262.54,51.68V41.45h-2.76V36.1h2.76V31.31h7.86V36.1h4.52v5.35H270.4v9.48c0,1.67.83,2.42,2.33,2.42A5.92,5.92,0,0,0,275,53v6a16.27,16.27,0,0,1-4.35.66C265.44,59.58,262.54,57.08,262.54,51.68Z" fill="#fff"/><path d="M276.68,47.86v-.35c0-7.37,5.49-12,12.42-12,6.28,0,11.68,3.6,11.68,11.85V49.4H284.62c.22,3,2,4.78,4.79,4.78,2.59,0,3.69-1.18,4-2.72h7.38c-.7,5.18-4.7,8.12-11.63,8.12C282,59.58,276.68,55.37,276.68,47.86ZM293.14,45c-.13-2.76-1.49-4.3-4-4.3-2.37,0-4,1.54-4.39,4.3Z" fill="#fff"/><path d="M303.5,36.1h7.86v4.56a7.24,7.24,0,0,1,7.42-4.87v7.33c-4.79-.13-7.42,1.36-7.42,5.05V59.06H303.5Z" fill="#fff"/><path d="M327.69,36.1h8.21l3.33,13.74L343.1,36.1h6.32l3.42,13.74,3.73-13.74H364l-7.29,23h-7.51l-3.42-12.82-3.56,12.82h-7.64Z" fill="#fff"/><path d="M365.88,29.86a4.1,4.1,0,0,1,4.3-4.08,4.07,4.07,0,1,1,0,8.12A4.06,4.06,0,0,1,365.88,29.86Zm.4,6.24h7.85v23h-7.85Z" fill="#fff"/><path d="M379.4,51.68V41.45h-2.76V36.1h2.76V31.31h7.86V36.1h4.52v5.35h-4.52v9.48c0,1.67.83,2.42,2.33,2.42a5.92,5.92,0,0,0,2.24-.4v6a16.27,16.27,0,0,1-4.35.66C382.3,59.58,379.4,57.08,379.4,51.68Z" fill="#fff"/><path d="M394.77,26h7.86V39.78a8.09,8.09,0,0,1,7.55-4.3c4.43,0,7.5,2.77,7.5,8.65V59.06h-7.86V45.71c0-2.59-1-3.86-3.29-3.86s-3.9,1.4-3.9,4.34V59.06h-7.86Z" fill="#fff"/><path d="M430.19,27.67h14c7.42,0,10.58,3.33,10.58,8.21v.17c0,3.51-1.8,5.84-5.32,6.76,3.87.66,6.28,3,6.28,7.33v.18c0,5.62-3.64,8.74-11.41,8.74H430.19ZM442.4,40.14c2.81,0,3.86-1,3.86-3.21v-.17c0-2.16-1.14-3.12-3.86-3.12H439v6.5Zm.31,12.9c2.85,0,4.17-1.32,4.17-3.64v-.18c0-2.37-1.28-3.6-4.44-3.6H439V53Z" fill="#fff"/><path d="M458.86,26h7.81V59.06h-7.81Z" fill="#fff"/><path d="M469.66,47.86v-.35c0-7.37,5.49-12,12.6-12S494.77,40,494.77,47.29v.35c0,7.47-5.49,11.94-12.56,11.94S469.66,55.28,469.66,47.86Zm17.12-.13v-.35c0-3.86-1.54-6-4.52-6s-4.57,2.07-4.57,5.93v.35c0,4,1.54,6.1,4.57,6.1S486.78,51.55,486.78,47.73Z" fill="#fff"/><path d="M496.31,47.86v-.35c0-7.64,5.48-12,12.24-12,5.62,0,10.8,2.46,11.24,9.44h-7.37c-.35-2.15-1.41-3.34-3.69-3.34-2.77,0-4.39,2-4.39,5.84v.35c0,4,1.54,6.06,4.52,6.06,2.2,0,3.73-1.31,4-3.82h7.06c-.22,5.8-4.12,9.57-11.54,9.57C501.53,59.58,496.31,55.59,496.31,47.86Z" fill="#fff"/><path d="M522.47,26h7.86V45.18l6.19-9.08h8.16l-7.5,10.31,8.12,12.65h-8.78L530.33,49V59.06h-7.86Z" fill="#fff"/><path d="M546.83,55.11a4.38,4.38,0,0,1,4.48-4.44,4.44,4.44,0,1,1,0,8.87A4.38,4.38,0,0,1,546.83,55.11Z" fill="#fff"/></g></g></g></svg>