<svg xmlns="http://www.w3.org/2000/svg" viewBox="0 0 728 90"><title>H23 C5 T3</title><g id="Layer_2" data-name="Layer 2"><g id="Rect"><rect width="728" height="90" fill="none"/></g><g id="H23_C5_T3" data-name="H23 C5 T3"><g id="Your_maximum_refund_guaranteed." data-name="Your maximum refund,  guaranteed."><path d="M127.82,30.21l-7.56-13.27h7.24l3.92,7.82,3.93-7.82h6.36l-7.2,13.27v9.94h-6.69Z" fill="#fff"/><path d="M139.27,31.87v-.26c0-5.45,4.06-8.89,9.32-8.89s9.25,3.34,9.25,8.73v.26c0,5.51-4.06,8.82-9.28,8.82S139.27,37.35,139.27,31.87Zm12.66-.1v-.26c0-2.85-1.13-4.44-3.34-4.44s-3.38,1.52-3.38,4.38v.26c0,2.92,1.14,4.51,3.38,4.51S151.93,34.6,151.93,31.77Z" fill="#fff"/><path d="M159.75,34.24V23.17h5.81V33.3c0,1.91.75,2.85,2.4,2.85s2.89-1,2.89-3.21V23.17h5.81v17h-5.81V37.52a5.57,5.57,0,0,1-5.39,3C162.18,40.53,159.75,38.52,159.75,34.24Z" fill="#fff"/><path d="M179.61,23.17h5.81v3.38a5.34,5.34,0,0,1,5.48-3.61v5.42c-3.53-.09-5.48,1-5.48,3.74v8h-5.81Z" fill="#fff"/><path d="M198.92,23.17h5.81v2.6a5.9,5.9,0,0,1,5.32-3.05,4.62,4.62,0,0,1,4.61,2.82,6.72,6.72,0,0,1,5.61-2.82c3.21,0,5.55,2.07,5.55,6.33v11.1H220V30c0-1.72-.84-2.56-2.17-2.56-1.56,0-2.6,1-2.6,2.85v9.84H209.5V30c0-1.72-.85-2.56-2.18-2.56-1.56,0-2.59,1-2.59,2.85v9.84h-5.81Z" fill="#fff"/><path d="M227.67,35.44c0-4,3.37-5.55,9-5.55h1.62V29.5c0-1.62-.39-2.69-2.24-2.69a2.08,2.08,0,0,0-2.3,2h-5.46c.26-4.09,3.48-6.1,8.12-6.1s7.66,1.91,7.66,6.42v11h-5.65v-2a5.57,5.57,0,0,1-5,2.36C230.36,40.53,227.67,39,227.67,35.44Zm10.64-1.23v-1h-1.52c-2.34,0-3.38.45-3.38,1.85,0,1,.65,1.59,2,1.59C237.08,36.61,238.31,35.67,238.31,34.21Z" fill="#fff"/><path d="M251.19,31.51l-5.29-8.34h6.69l2.63,4.48,2.56-4.48h6l-5.35,7.89,5.87,9.09h-6.68l-3-5.07-3.09,5.07h-5.94Z" fill="#fff"/><path d="M265.76,18.56a3.2,3.2,0,1,1,3.18,3A3,3,0,0,1,265.76,18.56Zm.29,4.61h5.81v17h-5.81Z" fill="#fff"/><path d="M275,23.17h5.81v2.6a5.9,5.9,0,0,1,5.32-3.05,4.62,4.62,0,0,1,4.61,2.82,6.72,6.72,0,0,1,5.61-2.82c3.22,0,5.55,2.07,5.55,6.33v11.1h-5.81V30c0-1.72-.84-2.56-2.17-2.56-1.56,0-2.6,1-2.6,2.85v9.84h-5.74V30c0-1.72-.85-2.56-2.18-2.56-1.56,0-2.59,1-2.59,2.85v9.84H275Z" fill="#fff"/><path d="M304.57,34.24V23.17h5.81V33.3c0,1.91.75,2.85,2.4,2.85s2.89-1,2.89-3.21V23.17h5.81v17h-5.81V37.52a5.57,5.57,0,0,1-5.39,3C307,40.53,304.57,38.52,304.57,34.24Z" fill="#fff"/><path d="M324.43,23.17h5.81v2.6a5.92,5.92,0,0,1,5.32-3.05,4.62,4.62,0,0,1,4.61,2.82,6.72,6.72,0,0,1,5.61-2.82c3.22,0,5.55,2.07,5.55,6.33v11.1h-5.8V30c0-1.72-.85-2.56-2.18-2.56-1.56,0-2.6,1-2.6,2.85v9.84H335V30c0-1.72-.84-2.56-2.18-2.56-1.55,0-2.59,1-2.59,2.85v9.84h-5.81Z" fill="#fff"/><path d="M360.06,23.17h5.81v3.38a5.34,5.34,0,0,1,5.48-3.61v5.42c-3.53-.09-5.48,1-5.48,3.74v8h-5.81Z" fill="#fff"/><path d="M372.39,31.87v-.26c0-5.45,4.06-8.89,9.18-8.89,4.64,0,8.64,2.66,8.64,8.76V33H378.26c.16,2.24,1.46,3.54,3.54,3.54,1.92,0,2.73-.87,2.95-2h5.46c-.52,3.83-3.48,6-8.6,6C376.28,40.53,372.39,37.42,372.39,31.87Zm12.17-2.14c-.1-2.05-1.1-3.18-3-3.18s-2.95,1.13-3.24,3.18Z" fill="#fff"/><path d="M393.09,27.13H391v-4h2.14V21.68c0-4.22,2.63-6.23,6.66-6.23a10.59,10.59,0,0,1,2.66.35v4.26a5.41,5.41,0,0,0-1.59-.23,1.7,1.7,0,0,0-1.95,1.85v1.49h3.44v4h-3.44v13h-5.78Z" fill="#fff"/><path d="M404.12,34.24V23.17h5.81V33.3c0,1.91.75,2.85,2.4,2.85s2.89-1,2.89-3.21V23.17H421v17h-5.81V37.52a5.57,5.57,0,0,1-5.38,3C406.56,40.53,404.12,38.52,404.12,34.24Z" fill="#fff"/><path d="M424,23.17h5.81V25.9a6,6,0,0,1,5.59-3.18c3.27,0,5.54,2,5.54,6.39v11h-5.8V30.28c0-1.92-.75-2.86-2.44-2.86s-2.89,1-2.89,3.22v9.51H424Z" fill="#fff"/><path d="M442.9,31.84v-.26c0-5.78,3.18-8.86,7.2-8.86a5.49,5.49,0,0,1,5.23,2.85V15.71h5.81V40.15h-5.81V37.39A5.72,5.72,0,0,1,450,40.53C446.11,40.53,442.9,37.71,442.9,31.84Zm12.59-.1v-.26c0-2.86-1.2-4.38-3.34-4.38s-3.34,1.46-3.34,4.41v.26c0,2.86,1.26,4.32,3.27,4.32S455.49,34.63,455.49,31.74Z" fill="#fff"/><path d="M462.89,42.77l2.72-8.53L471,36.15l-4.67,8Z" fill="#fff"/><path d="M120.78,75h5.78c.26,1.24,1,2.21,3.11,2.21,2.57,0,3.6-1.46,3.6-3.57v-2.6A5.92,5.92,0,0,1,128,74.2c-4,0-7.21-2.92-7.21-8.15v-.26c0-5,3.21-8.17,7.21-8.17a5.51,5.51,0,0,1,5.25,2.85v-2.4h5.81V73.62c0,5.06-3.34,7.72-9.41,7.72C123.89,81.34,121.23,78.91,120.78,75Zm12.66-9v-.23c0-2.33-1.2-3.83-3.35-3.83s-3.34,1.53-3.34,3.87v.26c0,2.33,1.23,3.83,3.31,3.83S133.44,68.42,133.44,66Z" fill="#fff"/><path d="M141.9,69.14V58.07h5.81V68.2c0,1.91.75,2.85,2.4,2.85S153,70,153,67.84V58.07h5.81V75H153V72.42a5.57,5.57,0,0,1-5.38,3C144.34,75.43,141.9,73.42,141.9,69.14Z" fill="#fff"/><path d="M160.79,70.34c0-4,3.37-5.55,9-5.55h1.62V64.4c0-1.62-.39-2.69-2.24-2.69a2.08,2.08,0,0,0-2.3,2h-5.45c.26-4.09,3.47-6.1,8.11-6.1s7.66,1.91,7.66,6.42V75h-5.65v-2c-.81,1.24-2.3,2.37-5,2.37C163.48,75.43,160.79,73.94,160.79,70.34Zm10.64-1.24v-1h-1.52c-2.34,0-3.38.45-3.38,1.85,0,1,.65,1.59,2,1.59C170.2,71.51,171.43,70.57,171.43,69.1Z" fill="#fff"/><path d="M180,58.07h5.81v3.38a5.35,5.35,0,0,1,5.48-3.61v5.42c-3.53-.09-5.48,1-5.48,3.74v8H180Z" fill="#fff"/><path d="M192.07,70.34c0-4,3.37-5.55,9-5.55h1.62V64.4c0-1.62-.38-2.69-2.23-2.69a2.08,2.08,0,0,0-2.31,2h-5.45c.26-4.09,3.47-6.1,8.11-6.1s7.66,1.91,7.66,6.42V75h-5.65v-2c-.81,1.24-2.3,2.37-5,2.37C194.76,75.43,192.07,73.94,192.07,70.34Zm10.64-1.24v-1h-1.52c-2.34,0-3.38.45-3.38,1.85,0,1,.65,1.59,2,1.59C201.48,71.51,202.71,70.57,202.71,69.1Z" fill="#fff"/><path d="M211.31,58.07h5.81V60.8a6,6,0,0,1,5.58-3.18c3.28,0,5.55,2,5.55,6.39V75h-5.81V65.18c0-1.92-.74-2.86-2.43-2.86s-2.89,1-2.89,3.21V75h-5.81Z" fill="#fff"/><path d="M231.85,69.59V62h-2v-4h2V54.53h5.81v3.54H241v4h-3.34v7a1.56,1.56,0,0,0,1.72,1.79,4.35,4.35,0,0,0,1.66-.3V75a12.47,12.47,0,0,1-3.22.48C234,75.43,231.85,73.58,231.85,69.59Z" fill="#fff"/><path d="M242.3,66.77v-.26c0-5.45,4.06-8.89,9.18-8.89,4.65,0,8.64,2.66,8.64,8.76V67.9h-12c.17,2.24,1.46,3.54,3.54,3.54,1.92,0,2.73-.87,3-2h5.45c-.52,3.83-3.47,6-8.6,6C246.19,75.43,242.3,72.32,242.3,66.77Zm12.17-2.14c-.1-2-1.1-3.18-3-3.18s-2.95,1.13-3.24,3.18Z" fill="#fff"/><path d="M261.22,66.77v-.26c0-5.45,4-8.89,9.18-8.89,4.64,0,8.64,2.66,8.64,8.76V67.9h-12c.16,2.24,1.46,3.54,3.54,3.54,1.91,0,2.73-.87,2.95-2H279c-.52,3.83-3.48,6-8.61,6C265.11,75.43,261.22,72.32,261.22,66.77Zm12.17-2.14c-.1-2-1.11-3.18-3-3.18s-2.95,1.13-3.24,3.18Z" fill="#fff"/><path d="M280.2,66.74v-.26c0-5.78,3.18-8.86,7.2-8.86a5.49,5.49,0,0,1,5.23,2.85V50.61h5.81V75h-5.81V72.29a5.72,5.72,0,0,1-5.29,3.14C283.41,75.43,280.2,72.61,280.2,66.74Zm12.59-.1v-.26c0-2.86-1.2-4.38-3.34-4.38s-3.34,1.46-3.34,4.41v.26c0,2.86,1.26,4.32,3.27,4.32S292.79,69.53,292.79,66.64Z" fill="#fff"/><path d="M301.16,72.12a3.24,3.24,0,0,1,3.31-3.28,3.28,3.28,0,1,1,0,6.56A3.24,3.24,0,0,1,301.16,72.12Z" fill="#fff"/></g></g></g></svg>