<svg xmlns="http://www.w3.org/2000/svg" viewBox="0 0 119.66 31.81"><title>file_online_now</title><g id="Layer_2" data-name="Layer 2"><g id="CTA"><g id="Rectangle_1" data-name="Rectangle 1"><rect width="119.66" height="31.81" fill="none"/></g><g id="File_online_now" data-name="File online now"><path d="M19.36,11.25h5.5v1.52H21.3V15h2.82V16.5H21.3v3.33H19.36Z" fill="#262626"/><path d="M25.62,11.75a1,1,0,0,1,2,0,1,1,0,0,1-2,0Zm.13,1.8h1.73v6.28H25.75Z" fill="#262626"/><path d="M28.94,10.71h1.73v9.12H28.94Z" fill="#262626"/><path d="M31.69,16.77v-.1a3.12,3.12,0,0,1,3.23-3.26A2.89,2.89,0,0,1,38,16.6v.48H33.46A1.5,1.5,0,0,0,35,18.72c.8,0,1.19-.35,1.3-.87H38C37.76,19.2,36.68,20,35,20A3,3,0,0,1,31.69,16.77Zm4.6-.76c-.06-1-.54-1.4-1.37-1.4A1.43,1.43,0,0,0,33.48,16Z" fill="#262626"/><path d="M41,16.75v-.09a3.31,3.31,0,0,1,6.61,0v.1a3.31,3.31,0,0,1-6.61,0Zm4.85,0v-.08c0-1.2-.57-1.92-1.54-1.92s-1.53.69-1.53,1.89v.1c0,1.2.55,1.92,1.53,1.92S45.89,17.92,45.89,16.73Z" fill="#262626"/><path d="M48.64,13.55h1.74v1a2.14,2.14,0,0,1,2-1.14c1.24,0,2.11.74,2.11,2.42v4H52.79V16.08c0-.85-.34-1.26-1.11-1.26a1.24,1.24,0,0,0-1.3,1.38v3.63H48.64Z" fill="#262626"/><path d="M55.88,10.71h1.73v9.12H55.88Z" fill="#262626"/><path d="M58.93,11.75a1,1,0,1,1,1,.95A.94.94,0,0,1,58.93,11.75Zm.13,1.8h1.73v6.28H59.06Z" fill="#262626"/><path d="M62.21,13.55H64v1a2.15,2.15,0,0,1,2-1.14c1.23,0,2.11.74,2.11,2.42v4H66.36V16.08c0-.85-.34-1.26-1.11-1.26A1.24,1.24,0,0,0,64,16.2v3.63H62.21Z" fill="#262626"/><path d="M69,16.77v-.1a3.12,3.12,0,0,1,3.23-3.26,2.89,2.89,0,0,1,3.06,3.19v.48H70.79a1.5,1.5,0,0,0,1.56,1.64c.8,0,1.2-.35,1.3-.87H75.3C75.09,19.2,74,20,72.3,20A3,3,0,0,1,69,16.77Zm4.6-.76c-.06-1-.54-1.4-1.37-1.4A1.43,1.43,0,0,0,70.81,16Z" fill="#262626"/><path d="M78.76,13.55H80.5v1a2.14,2.14,0,0,1,2-1.14c1.24,0,2.11.74,2.11,2.42v4H82.91V16.08c0-.85-.34-1.26-1.11-1.26a1.24,1.24,0,0,0-1.3,1.38v3.63H78.76Z" fill="#262626"/><path d="M85.57,16.75v-.09a3.31,3.31,0,0,1,6.61,0v.1a3.31,3.31,0,0,1-6.61,0Zm4.85,0v-.08c0-1.2-.57-1.92-1.54-1.92s-1.53.69-1.53,1.89v.1c0,1.2.55,1.92,1.53,1.92S90.42,17.92,90.42,16.73Z" fill="#262626"/><path d="M92.42,13.55h1.83l1.11,4.22,1.21-4.22H98l1.1,4.22,1.19-4.22H102l-2,6.28h-1.7l-1.07-3.94-1.15,3.94H94.33Z" fill="#262626"/></g></g></g></svg>