<svg xmlns="http://www.w3.org/2000/svg" viewBox="0 0 160 600"><title>H26</title><g id="Layer_2" data-name="Layer 2"><g id="Rect"><rect width="160" height="600" fill="none"/></g><g id="H26"><g id="Get_your_max_refund_in_about_an_hour." data-name="Get your max refund in about an hour."><path d="M21,118.16v-.25c0-6.7,4.92-11.22,11.53-11.22,5.2,0,9.81,2.37,10.24,8.09H36.48c-.31-2.06-1.63-3.14-4-3.14-3.1,0-5,2.4-5,6.37v.24c0,3.57,1.32,6.34,5.14,6.34,3.07,0,4.24-1.57,4.36-3.32H32.91v-4.4H43.24v2.7c0,5.6-3.65,9.81-10.76,9.81C25,129.38,21,124.74,21,118.16Z" fill="#fff"/><path d="M44.51,121.17v-.24c0-5.17,3.84-8.43,8.7-8.43,4.4,0,8.18,2.52,8.18,8.3v1.45H50.07c.16,2.12,1.39,3.35,3.35,3.35s2.59-.83,2.8-1.91h5.17c-.49,3.63-3.29,5.69-8.15,5.69C48.2,129.38,44.51,126.43,44.51,121.17Zm11.53-2c-.1-1.93-1-3-2.83-3s-2.8,1.08-3.08,3Z" fill="#fff"/><path d="M64,123.85v-7.17H62.1v-3.75H64v-3.35h5.51v3.35H72.7v3.75H69.54v6.65A1.47,1.47,0,0,0,71.17,125a4.25,4.25,0,0,0,1.56-.28v4.18a11.26,11.26,0,0,1-3,.46C66.06,129.38,64,127.63,64,123.85Z" fill="#fff"/><path d="M26.67,163.13l-6.42-14.45h6l3.32,8.58,3.08-8.58h5.25l-8.61,21.46H24Z" fill="#fff"/><path d="M37.56,156.92v-.24c0-5.17,3.84-8.43,8.82-8.43s8.77,3.17,8.77,8.27v.25c0,5.23-3.85,8.36-8.8,8.36S37.56,162.12,37.56,156.92Zm12-.09v-.24c0-2.71-1.08-4.22-3.17-4.22s-3.2,1.45-3.2,4.15v.25c0,2.77,1.08,4.27,3.2,4.27S49.55,159.51,49.55,156.83Z" fill="#fff"/><path d="M57,159.17V148.68h5.5v9.6c0,1.81.71,2.7,2.28,2.7s2.74-1,2.74-3v-9.26H73v16.08h-5.5v-2.49a5.29,5.29,0,0,1-5.11,2.86C59.27,165.13,57,163.23,57,159.17Z" fill="#fff"/><path d="M75.78,148.68h5.5v3.2a5.07,5.07,0,0,1,5.2-3.41v5.13c-3.35-.09-5.2,1-5.2,3.54v7.62h-5.5Z" fill="#fff"/><path d="M21.63,184.43h5.5v2.46A5.65,5.65,0,0,1,32.18,184a4.38,4.38,0,0,1,4.36,2.68A6.38,6.38,0,0,1,41.86,184c3,0,5.26,2,5.26,6v10.51H41.61v-9.59c0-1.63-.79-2.43-2.06-2.43-1.47,0-2.45,1-2.45,2.71v9.31H31.65v-9.59c0-1.63-.8-2.43-2.06-2.43a2.39,2.39,0,0,0-2.46,2.71v9.31h-5.5Z" fill="#fff"/><path d="M48.87,196.06c0-3.79,3.2-5.26,8.55-5.26H59v-.37c0-1.54-.37-2.55-2.12-2.55a2,2,0,0,0-2.19,1.9H49.49c.24-3.87,3.29-5.78,7.69-5.78s7.25,1.82,7.25,6.09v10.42H59.08v-1.87a5.27,5.27,0,0,1-4.76,2.24C51.43,200.88,48.87,199.47,48.87,196.06ZM59,194.89v-1H57.51c-2.21,0-3.19.43-3.19,1.76,0,.92.61,1.5,1.9,1.5C57.79,197.16,59,196.27,59,194.89Z" fill="#fff"/><path d="M71.17,192.34l-5-7.91h6.33L75,188.68l2.43-4.25h5.66L78,191.9l5.57,8.61H77.22l-2.86-4.79-2.92,4.79H65.82Z" fill="#fff"/><path d="M21.63,220.18h5.5v3.2a5.07,5.07,0,0,1,5.2-3.41v5.13c-3.35-.09-5.2,1-5.2,3.54v7.62h-5.5Z" fill="#fff"/><path d="M33.31,228.42v-.24c0-5.17,3.85-8.43,8.71-8.43,4.39,0,8.17,2.52,8.17,8.3v1.45H38.88c.15,2.12,1.38,3.35,3.35,3.35s2.58-.83,2.8-1.91h5.16c-.49,3.63-3.29,5.69-8.14,5.69C37,236.63,33.31,233.68,33.31,228.42Zm11.53-2c-.09-1.93-1-3-2.82-3s-2.8,1.08-3.08,3Z" fill="#fff"/><path d="M52.93,223.93h-2v-3.75h2v-1.41c0-4,2.49-5.9,6.31-5.9a10.07,10.07,0,0,1,2.52.33v4a5.17,5.17,0,0,0-1.51-.21,1.61,1.61,0,0,0-1.84,1.75v1.41h3.26v3.75H58.41v12.33H52.93Z" fill="#fff"/><path d="M63.39,230.67V220.18h5.5v9.6c0,1.81.71,2.7,2.28,2.7s2.73-1,2.73-3v-9.26h5.51v16.08H73.9v-2.49a5.28,5.28,0,0,1-5.1,2.86C65.69,236.63,63.39,234.73,63.39,230.67Z" fill="#fff"/><path d="M82.21,220.18h5.5v2.59a5.68,5.68,0,0,1,5.29-3c3.1,0,5.26,1.94,5.26,6.06v10.45H92.75v-9.34c0-1.82-.71-2.71-2.3-2.71s-2.74,1-2.74,3v9h-5.5Z" fill="#fff"/><path d="M100.13,228.39v-.24c0-5.48,3-8.4,6.83-8.4a5.21,5.21,0,0,1,5,2.71v-9.35h5.5v23.15h-5.5v-2.61a5.41,5.41,0,0,1-5,3C103.18,236.63,100.13,234,100.13,228.39Zm11.93-.09v-.25c0-2.7-1.14-4.15-3.16-4.15s-3.17,1.39-3.17,4.19v.24c0,2.71,1.2,4.09,3.1,4.09S112.06,231,112.06,228.3Z" fill="#fff"/><path d="M21.51,251.57a2.87,2.87,0,0,1,3-2.86,2.85,2.85,0,1,1,0,5.69A2.85,2.85,0,0,1,21.51,251.57Zm.27,4.36h5.51V272H21.78Z" fill="#fff"/><path d="M30.24,255.93h5.5v2.59a5.69,5.69,0,0,1,5.29-3c3.11,0,5.26,1.94,5.26,6.06V272h-5.5v-9.34c0-1.82-.71-2.71-2.31-2.71s-2.74,1-2.74,3v9h-5.5Z" fill="#fff"/><path d="M53.64,267.56c0-3.79,3.2-5.26,8.55-5.26h1.53v-.37c0-1.54-.36-2.55-2.12-2.55a2,2,0,0,0-2.18,1.9H54.25c.25-3.87,3.29-5.78,7.69-5.78s7.26,1.82,7.26,6.09V272H63.85v-1.87a5.29,5.29,0,0,1-4.77,2.24C56.19,272.38,53.64,271,53.64,267.56Zm10.08-1.17v-1H62.28c-2.21,0-3.2.43-3.2,1.76,0,.92.62,1.5,1.91,1.5C62.56,268.66,63.72,267.77,63.72,266.39Z" fill="#fff"/><path d="M77.38,269.52V272H71.87V248.86h5.51v9.47a5.66,5.66,0,0,1,5-2.83c3.75,0,6.79,2.83,6.79,8.34v.24c0,5.54-3,8.3-6.82,8.3A5.2,5.2,0,0,1,77.38,269.52Zm6.21-5.44v-.24c0-2.83-1.23-4.19-3.17-4.19s-3.2,1.45-3.2,4.15v.25c0,2.74,1.2,4.12,3.2,4.12S83.59,266.73,83.59,264.08Z" fill="#fff"/><path d="M90.32,264.17v-.24c0-5.17,3.85-8.43,8.83-8.43s8.76,3.17,8.76,8.27V264c0,5.23-3.84,8.36-8.79,8.36S90.32,269.37,90.32,264.17Zm12-.09v-.24c0-2.71-1.08-4.22-3.17-4.22s-3.2,1.45-3.2,4.15V264c0,2.77,1.08,4.27,3.2,4.27S102.32,266.76,102.32,264.08Z" fill="#fff"/><path d="M109.73,266.42V255.93h5.5v9.6c0,1.81.71,2.7,2.28,2.7s2.73-1,2.73-3v-9.26h5.51V272h-5.51v-2.49a5.28,5.28,0,0,1-5.1,2.86C112,272.38,109.73,270.48,109.73,266.42Z" fill="#fff"/><path d="M129.28,266.85v-7.17h-1.93v-3.75h1.93v-3.35h5.51v3.35H138v3.75h-3.16v6.65a1.47,1.47,0,0,0,1.63,1.69,4.25,4.25,0,0,0,1.56-.28v4.18a11.26,11.26,0,0,1-3,.46C131.31,272.38,129.28,270.63,129.28,266.85Z" fill="#fff"/><path d="M20.71,303.31c0-3.79,3.19-5.26,8.54-5.26h1.54v-.37c0-1.54-.37-2.55-2.12-2.55a2,2,0,0,0-2.18,1.9H21.32c.25-3.87,3.29-5.78,7.69-5.78s7.25,1.82,7.25,6.09v10.42H30.92v-1.87a5.29,5.29,0,0,1-4.77,2.24C23.26,308.13,20.71,306.72,20.71,303.31Zm10.08-1.17v-1H29.35c-2.22,0-3.2.43-3.2,1.76,0,.92.61,1.5,1.91,1.5C29.62,304.41,30.79,303.52,30.79,302.14Z" fill="#fff"/><path d="M38.94,291.68h5.5v2.59a5.7,5.7,0,0,1,5.29-3c3.11,0,5.26,1.94,5.26,6.06v10.45h-5.5v-9.34c0-1.82-.71-2.71-2.31-2.71s-2.74,1-2.74,3v9h-5.5Z" fill="#fff"/><path d="M63.26,284.61h5.51v9.66a5.68,5.68,0,0,1,5.29-3c3.1,0,5.25,1.94,5.25,6.06v10.45h-5.5v-9.34c0-1.82-.71-2.71-2.31-2.71s-2.73,1-2.73,3v9H63.26Z" fill="#fff"/><path d="M81.13,299.92v-.24c0-5.17,3.84-8.43,8.82-8.43s8.77,3.17,8.77,8.27v.25c0,5.23-3.85,8.36-8.8,8.36S81.13,305.12,81.13,299.92Zm12-.09v-.24c0-2.71-1.08-4.22-3.17-4.22s-3.19,1.45-3.19,4.15v.25c0,2.77,1.07,4.27,3.19,4.27S93.12,302.51,93.12,299.83Z" fill="#fff"/><path d="M100.53,302.17V291.68H106v9.6c0,1.81.7,2.7,2.27,2.7s2.74-1,2.74-3v-9.26h5.5v16.08h-5.5v-2.49a5.29,5.29,0,0,1-5.11,2.86C102.84,308.13,100.53,306.23,100.53,302.17Z" fill="#fff"/><path d="M119.35,291.68h5.5v3.2a5.07,5.07,0,0,1,5.2-3.41v5.13c-3.35-.09-5.2,1-5.2,3.54v7.62h-5.5Z" fill="#fff"/><path d="M130,305a3.06,3.06,0,0,1,3.14-3.11,3.11,3.11,0,1,1,0,6.21A3.06,3.06,0,0,1,130,305Z" fill="#fff"/></g></g></g></svg>