<svg xmlns="http://www.w3.org/2000/svg" viewBox="0 0 160 600"><title>Asset 11</title><g id="Layer_2" data-name="Layer 2"><g id="Rect"><rect width="160" height="600" fill="none"/></g><g id="You_could_get_the_max_refund_in_about_an_hour." data-name="You could get the max refund in about an hour."><path d="M27.41,103.61,20.25,91H27.1l3.72,7.41L34.54,91h6l-6.83,12.58V113H27.41Z" fill="#fff"/><path d="M38.27,105.17v-.24c0-5.17,3.84-8.43,8.82-8.43s8.76,3.17,8.76,8.27V105c0,5.23-3.84,8.36-8.79,8.36S38.27,110.37,38.27,105.17Zm12-.09v-.24c0-2.71-1.08-4.22-3.17-4.22s-3.2,1.45-3.2,4.15V105c0,2.77,1.08,4.27,3.2,4.27S50.26,107.76,50.26,105.08Z" fill="#fff"/><path d="M57.67,107.42V96.93h5.5v9.6c0,1.81.71,2.7,2.28,2.7s2.73-1,2.73-3V96.93h5.51V113H68.18v-2.49a5.28,5.28,0,0,1-5.1,2.86C60,113.38,57.67,111.48,57.67,107.42Z" fill="#fff"/><path d="M20.77,140.92v-.24c0-5.35,3.84-8.43,8.58-8.43,3.93,0,7.56,1.72,7.87,6.61H32.05a2.37,2.37,0,0,0-2.58-2.33c-1.94,0-3.07,1.38-3.07,4.09v.24c0,2.8,1.07,4.24,3.16,4.24a2.67,2.67,0,0,0,2.8-2.67h5c-.15,4.06-2.89,6.7-8.09,6.7C24.43,149.13,20.77,146.33,20.77,140.92Z" fill="#fff"/><path d="M38.23,140.92v-.24c0-5.17,3.85-8.43,8.83-8.43s8.76,3.17,8.76,8.27v.25c0,5.23-3.84,8.36-8.79,8.36S38.23,146.12,38.23,140.92Zm12-.09v-.24c0-2.71-1.08-4.22-3.17-4.22s-3.2,1.45-3.2,4.15v.25c0,2.77,1.08,4.27,3.2,4.27S50.23,143.51,50.23,140.83Z" fill="#fff"/><path d="M57.64,143.17V132.68h5.5v9.6c0,1.81.71,2.7,2.28,2.7s2.73-1,2.73-3v-9.26h5.51v16.08H68.15v-2.49a5.28,5.28,0,0,1-5.1,2.86C59.94,149.13,57.64,147.23,57.64,143.17Z" fill="#fff"/><path d="M76.61,125.61h5.47v23.15H76.61Z" fill="#fff"/><path d="M84.24,140.89v-.24c0-5.48,3-8.4,6.82-8.4A5.21,5.21,0,0,1,96,135v-9.35h5.5v23.15H96v-2.61a5.41,5.41,0,0,1-5,3C87.28,149.13,84.24,146.46,84.24,140.89Zm11.93-.09v-.25c0-2.7-1.14-4.15-3.17-4.15s-3.17,1.39-3.17,4.19v.24c0,2.71,1.2,4.09,3.11,4.09S96.17,143.54,96.17,140.8Z" fill="#fff"/><path d="M20.74,184.51h5.47c.25,1.17.95,2.09,2.95,2.09,2.43,0,3.42-1.38,3.42-3.38v-2.46a5.65,5.65,0,0,1-5,3c-3.75,0-6.82-2.76-6.82-7.71v-.25c0-4.73,3-7.75,6.82-7.75a5.25,5.25,0,0,1,5,2.71v-2.28h5.5v14.73c0,4.8-3.17,7.32-8.92,7.32C23.69,190.48,21.17,188.17,20.74,184.51Zm12-8.54v-.22c0-2.21-1.14-3.63-3.17-3.63s-3.16,1.45-3.16,3.66V176c0,2.21,1.16,3.63,3.13,3.63S32.73,178.24,32.73,176Z" fill="#fff"/><path d="M40,176.67v-.24c0-5.17,3.84-8.43,8.7-8.43,4.4,0,8.18,2.52,8.18,8.3v1.45H45.58c.16,2.12,1.39,3.35,3.35,3.35s2.59-.83,2.8-1.91H56.9c-.49,3.63-3.29,5.69-8.15,5.69C43.71,184.88,40,181.93,40,176.67Zm11.53-2c-.09-1.93-1-3-2.83-3s-2.8,1.08-3.08,3Z" fill="#fff"/><path d="M59.54,179.35v-7.17H57.61v-3.75h1.93v-3.35h5.51v3.35h3.16v3.75H65.05v6.65a1.47,1.47,0,0,0,1.63,1.69,4.35,4.35,0,0,0,1.57-.28v4.18a11.41,11.41,0,0,1-3,.46C61.57,184.88,59.54,183.13,59.54,179.35Z" fill="#fff"/><path d="M76.64,179.35v-7.17H74.7v-3.75h1.94v-3.35h5.5v3.35h3.17v3.75H82.14v6.65a1.47,1.47,0,0,0,1.63,1.69,4.27,4.27,0,0,0,1.57-.28v4.18a11.32,11.32,0,0,1-3,.46C78.67,184.88,76.64,183.13,76.64,179.35Z" fill="#fff"/><path d="M87.4,161.36h5.51V171a5.67,5.67,0,0,1,5.28-3c3.11,0,5.26,1.94,5.26,6.06v10.45H98v-9.34c0-1.82-.71-2.71-2.31-2.71s-2.73,1-2.73,3v9H87.4Z" fill="#fff"/><path d="M105.27,176.67v-.24c0-5.17,3.84-8.43,8.7-8.43,4.4,0,8.18,2.52,8.18,8.3v1.45H110.83c.16,2.12,1.39,3.35,3.35,3.35s2.59-.83,2.8-1.91h5.17c-.49,3.63-3.29,5.69-8.15,5.69C109,184.88,105.27,181.93,105.27,176.67Zm11.53-2c-.09-1.93-1-3-2.83-3s-2.8,1.08-3.08,3Z" fill="#fff"/><path d="M21.63,204.18h5.5v2.46a5.65,5.65,0,0,1,5.05-2.89,4.38,4.38,0,0,1,4.36,2.68,6.38,6.38,0,0,1,5.32-2.68c3,0,5.26,2,5.26,6v10.51H41.61v-9.59c0-1.63-.79-2.43-2.06-2.43-1.47,0-2.45,1-2.45,2.71v9.31H31.65v-9.59c0-1.63-.8-2.43-2.06-2.43A2.39,2.39,0,0,0,27.13,211v9.31h-5.5Z" fill="#fff"/><path d="M48.87,215.81c0-3.79,3.2-5.26,8.55-5.26H59v-.37c0-1.54-.37-2.55-2.12-2.55a2,2,0,0,0-2.19,1.9H49.49c.24-3.87,3.29-5.78,7.69-5.78s7.25,1.82,7.25,6.09v10.42H59.08v-1.87a5.27,5.27,0,0,1-4.76,2.24C51.43,220.63,48.87,219.22,48.87,215.81ZM59,214.64v-1H57.51c-2.21,0-3.19.43-3.19,1.76,0,.92.61,1.5,1.9,1.5C57.79,216.91,59,216,59,214.64Z" fill="#fff"/><path d="M71.17,212.09l-5-7.91h6.33L75,208.43l2.43-4.25h5.66L78,211.65l5.57,8.61H77.22l-2.86-4.79-2.92,4.79H65.82Z" fill="#fff"/><path d="M21.63,239.93h5.5v3.2a5.07,5.07,0,0,1,5.2-3.41v5.13c-3.35-.09-5.2,1-5.2,3.54V256h-5.5Z" fill="#fff"/><path d="M33.31,248.17v-.24c0-5.17,3.85-8.43,8.71-8.43,4.39,0,8.17,2.52,8.17,8.3v1.45H38.88c.15,2.12,1.38,3.35,3.35,3.35s2.58-.83,2.8-1.91h5.16c-.49,3.63-3.29,5.69-8.14,5.69C37,256.38,33.31,253.43,33.31,248.17Zm11.53-2c-.09-1.93-1-3-2.82-3s-2.8,1.08-3.08,3Z" fill="#fff"/><path d="M52.93,243.68h-2v-3.75h2v-1.41c0-4,2.49-5.9,6.31-5.9a10.07,10.07,0,0,1,2.52.33v4a5.17,5.17,0,0,0-1.51-.21,1.61,1.61,0,0,0-1.84,1.75v1.41h3.26v3.75H58.41V256H52.93Z" fill="#fff"/><path d="M63.39,250.42V239.93h5.5v9.6c0,1.81.71,2.7,2.28,2.7s2.73-1,2.73-3v-9.26h5.51V256H73.9v-2.49a5.28,5.28,0,0,1-5.1,2.86C65.69,256.38,63.39,254.48,63.39,250.42Z" fill="#fff"/><path d="M82.21,239.93h5.5v2.59a5.68,5.68,0,0,1,5.29-3c3.1,0,5.26,1.94,5.26,6.06V256H92.75v-9.34c0-1.82-.71-2.71-2.3-2.71s-2.74,1-2.74,3v9h-5.5Z" fill="#fff"/><path d="M100.13,248.14v-.24c0-5.48,3-8.4,6.83-8.4a5.21,5.21,0,0,1,5,2.71v-9.35h5.5V256h-5.5V253.4a5.41,5.41,0,0,1-5,3C103.18,256.38,100.13,253.71,100.13,248.14Zm11.93-.09v-.25c0-2.7-1.14-4.15-3.16-4.15s-3.17,1.39-3.17,4.19v.24c0,2.71,1.2,4.09,3.1,4.09S112.06,250.79,112.06,248.05Z" fill="#fff"/><path d="M21.51,271.32a2.87,2.87,0,0,1,3-2.86,2.85,2.85,0,1,1,0,5.69A2.85,2.85,0,0,1,21.51,271.32Zm.27,4.36h5.51v16.08H21.78Z" fill="#fff"/><path d="M30.24,275.68h5.5v2.59a5.69,5.69,0,0,1,5.29-3c3.11,0,5.26,1.94,5.26,6.06v10.45h-5.5v-9.34c0-1.82-.71-2.71-2.31-2.71s-2.74,1-2.74,3v9h-5.5Z" fill="#fff"/><path d="M53.64,287.31c0-3.79,3.2-5.26,8.55-5.26h1.53v-.37c0-1.54-.36-2.55-2.12-2.55a2,2,0,0,0-2.18,1.9H54.25c.25-3.87,3.29-5.78,7.69-5.78s7.26,1.82,7.26,6.09v10.42H63.85v-1.87a5.29,5.29,0,0,1-4.77,2.24C56.19,292.13,53.64,290.72,53.64,287.31Zm10.08-1.17v-1H62.28c-2.21,0-3.2.43-3.2,1.76,0,.92.62,1.5,1.91,1.5C62.56,288.41,63.72,287.52,63.72,286.14Z" fill="#fff"/><path d="M77.38,289.27v2.49H71.87V268.61h5.51v9.47a5.66,5.66,0,0,1,5-2.83c3.75,0,6.79,2.83,6.79,8.34v.24c0,5.54-3,8.3-6.82,8.3A5.2,5.2,0,0,1,77.38,289.27Zm6.21-5.44v-.24c0-2.83-1.23-4.19-3.17-4.19s-3.2,1.45-3.2,4.15v.25c0,2.74,1.2,4.12,3.2,4.12S83.59,286.48,83.59,283.83Z" fill="#fff"/><path d="M90.32,283.92v-.24c0-5.17,3.85-8.43,8.83-8.43s8.76,3.17,8.76,8.27v.25c0,5.23-3.84,8.36-8.79,8.36S90.32,289.12,90.32,283.92Zm12-.09v-.24c0-2.71-1.08-4.22-3.17-4.22s-3.2,1.45-3.2,4.15v.25c0,2.77,1.08,4.27,3.2,4.27S102.32,286.51,102.32,283.83Z" fill="#fff"/><path d="M109.73,286.17V275.68h5.5v9.6c0,1.81.71,2.7,2.28,2.7s2.73-1,2.73-3v-9.26h5.51v16.08h-5.51v-2.49a5.28,5.28,0,0,1-5.1,2.86C112,292.13,109.73,290.23,109.73,286.17Z" fill="#fff"/><path d="M129.28,286.6v-7.17h-1.93v-3.75h1.93v-3.35h5.51v3.35H138v3.75h-3.16v6.65a1.47,1.47,0,0,0,1.63,1.69,4.25,4.25,0,0,0,1.56-.28v4.18a11.26,11.26,0,0,1-3,.46C131.31,292.13,129.28,290.38,129.28,286.6Z" fill="#fff"/><path d="M20.71,323.06c0-3.79,3.19-5.26,8.54-5.26h1.54v-.37c0-1.54-.37-2.55-2.12-2.55a2,2,0,0,0-2.18,1.9H21.32c.25-3.87,3.29-5.78,7.69-5.78s7.25,1.82,7.25,6.09v10.42H30.92v-1.87a5.29,5.29,0,0,1-4.77,2.24C23.26,327.88,20.71,326.47,20.71,323.06Zm10.08-1.17v-1H29.35c-2.22,0-3.2.43-3.2,1.76,0,.92.61,1.5,1.91,1.5C29.62,324.16,30.79,323.27,30.79,321.89Z" fill="#fff"/><path d="M38.94,311.43h5.5V314a5.7,5.7,0,0,1,5.29-3c3.11,0,5.26,1.94,5.26,6.06v10.45h-5.5v-9.34c0-1.82-.71-2.71-2.31-2.71s-2.74,1-2.74,3v9h-5.5Z" fill="#fff"/><path d="M63.26,304.36h5.51V314a5.68,5.68,0,0,1,5.29-3c3.1,0,5.25,1.94,5.25,6.06v10.45h-5.5v-9.34c0-1.82-.71-2.71-2.31-2.71s-2.73,1-2.73,3v9H63.26Z" fill="#fff"/><path d="M81.13,319.67v-.24C81.13,314.26,85,311,90,311s8.77,3.17,8.77,8.27v.25c0,5.23-3.85,8.36-8.8,8.36S81.13,324.87,81.13,319.67Zm12-.09v-.25c0-2.7-1.08-4.21-3.17-4.21s-3.19,1.45-3.19,4.15v.25c0,2.77,1.07,4.27,3.19,4.27S93.12,322.26,93.12,319.58Z" fill="#fff"/><path d="M100.53,321.92V311.43H106V321c0,1.81.7,2.7,2.27,2.7s2.74-1,2.74-3v-9.26h5.5v16.08h-5.5V325a5.29,5.29,0,0,1-5.11,2.86C102.84,327.88,100.53,326,100.53,321.92Z" fill="#fff"/><path d="M119.35,311.43h5.5v3.2a5.07,5.07,0,0,1,5.2-3.41v5.13c-3.35-.09-5.2,1-5.2,3.54v7.62h-5.5Z" fill="#fff"/><path d="M130,324.75a3.06,3.06,0,0,1,3.14-3.11,3.11,3.11,0,1,1,0,6.21A3.06,3.06,0,0,1,130,324.75Z" fill="#fff"/></g></g></svg>