<svg xmlns="http://www.w3.org/2000/svg" viewBox="0 0 300 250"><title>Asset 21</title><g id="Layer_2" data-name="Layer 2"><g id="Rect"><rect width="300" height="250" fill="none"/></g><g id="No_surprises_no_matter_how_you_file." data-name="No surprises no matter how you file."><path d="M23,22.48H33l9.91,17.43V22.48h7.74V53.4H42.05L30.77,34V53.4H23Z" fill="#fff"/><path d="M53.73,42.37V42c0-7.27,5.41-11.85,12.42-11.85s12.32,4.45,12.32,11.63v.35c0,7.35-5.41,11.76-12.37,11.76S53.73,49.68,53.73,42.37Zm16.87-.13V41.9c0-3.81-1.51-5.93-4.45-5.93s-4.5,2-4.5,5.84v.35c0,3.89,1.51,6,4.5,6S70.6,46,70.6,42.24Z" fill="#fff"/><path d="M87.56,46.22h7.13c.26,1.65,1,2.55,3.2,2.55,1.9,0,2.77-.73,2.77-1.86s-1.08-1.6-4.2-2c-6-.78-8.6-2.55-8.6-7.26,0-5,4.45-7.44,9.68-7.44,5.58,0,9.48,1.9,10,7.31h-7c-.3-1.52-1.13-2.25-2.9-2.25S95.08,36,95.08,37s1,1.51,3.81,1.86c6.27.78,9.29,2.42,9.29,7.27,0,5.36-4,7.78-10.25,7.78C91.49,53.92,87.73,51.24,87.56,46.22Z" fill="#fff"/><path d="M110.52,45.53V30.78h7.74v13.5c0,2.55,1,3.8,3.2,3.8s3.85-1.38,3.85-4.28v-13h7.74V53.4h-7.74V49.9c-1.21,2.33-3.42,4-7.18,4C113.76,53.92,110.52,51.24,110.52,45.53Z" fill="#fff"/><path d="M137,30.78h7.74v4.5a7.14,7.14,0,0,1,7.31-4.8V37.7c-4.72-.13-7.31,1.34-7.31,5V53.4H137Z" fill="#fff"/><path d="M154.85,30.78h7.74v3.38a8,8,0,0,1,7-4c5.28,0,9.56,4,9.56,11.72v.34c0,7.79-4.28,11.68-9.6,11.68-3.42,0-5.88-1.6-7-3.85V61h-7.74Zm16.48,11.46V41.9c0-4-1.73-5.88-4.46-5.88s-4.49,2-4.49,5.83v.35c0,3.85,1.68,5.8,4.49,5.8S171.33,46,171.33,42.24Z" fill="#fff"/><path d="M182,30.78h7.74v4.5a7.14,7.14,0,0,1,7.31-4.8V37.7c-4.71-.13-7.31,1.34-7.31,5V53.4H182Z" fill="#fff"/><path d="M199.7,24.64a4.27,4.27,0,1,1,4.24,4A4,4,0,0,1,199.7,24.64Zm.39,6.14h7.74V53.4h-7.74Z" fill="#fff"/><path d="M210.47,46.22h7.14c.26,1.65,1,2.55,3.2,2.55,1.9,0,2.76-.73,2.76-1.86s-1.08-1.6-4.19-2c-6-.78-8.61-2.55-8.61-7.26,0-5,4.46-7.44,9.69-7.44,5.58,0,9.47,1.9,10,7.31h-7c-.3-1.52-1.12-2.25-2.89-2.25S218,36,218,37s1,1.51,3.8,1.86c6.27.78,9.3,2.42,9.3,7.27,0,5.36-4,7.78-10.25,7.78C214.41,53.92,210.64,51.24,210.47,46.22Z" fill="#fff"/><path d="M232.53,42.37V42c0-7.27,5.4-11.85,12.24-11.85,6.18,0,11.5,3.55,11.5,11.67v2H240.35c.22,3,2,4.71,4.72,4.71,2.55,0,3.63-1.17,3.93-2.68h7.27c-.69,5.1-4.63,8-11.46,8C237.72,53.92,232.53,49.77,232.53,42.37Zm16.21-2.85c-.13-2.72-1.47-4.24-4-4.24-2.34,0-3.94,1.52-4.33,4.24Z" fill="#fff"/><path d="M257.66,46.22h7.13c.26,1.65,1,2.55,3.2,2.55,1.9,0,2.77-.73,2.77-1.86s-1.08-1.6-4.2-2c-6.05-.78-8.6-2.55-8.6-7.26,0-5,4.45-7.44,9.68-7.44,5.58,0,9.47,1.9,10,7.31h-7c-.3-1.52-1.13-2.25-2.9-2.25s-2.55.73-2.55,1.77,1,1.51,3.81,1.86c6.26.78,9.29,2.42,9.29,7.27,0,5.36-4,7.78-10.25,7.78C261.59,53.92,257.83,51.24,257.66,46.22Z" fill="#fff"/><path d="M22.29,76H30v3.64a8,8,0,0,1,7.44-4.24c4.37,0,7.39,2.72,7.39,8.52v14.7H37.12V85.5c0-2.55-1-3.8-3.24-3.8S30,83.08,30,86V98.65H22.29Z" fill="#fff"/><path d="M47.42,87.62v-.34c0-7.27,5.41-11.85,12.41-11.85s12.33,4.45,12.33,11.63v.35c0,7.35-5.41,11.76-12.37,11.76S47.42,94.93,47.42,87.62Zm16.87-.13v-.34c0-3.81-1.52-5.93-4.46-5.93s-4.5,2-4.5,5.84v.35c0,3.89,1.52,6,4.5,6S64.29,91.26,64.29,87.49Z" fill="#fff"/><path d="M82.75,76H90.5v3.46a7.89,7.89,0,0,1,7.09-4.06,6.17,6.17,0,0,1,6.14,3.76,8.94,8.94,0,0,1,7.48-3.76c4.28,0,7.39,2.77,7.39,8.43V98.65h-7.74V85.16c0-2.29-1.12-3.42-2.89-3.42-2.08,0-3.46,1.34-3.46,3.81v13.1H96.85V85.16c0-2.29-1.12-3.42-2.9-3.42-2.07,0-3.45,1.34-3.45,3.81v13.1H82.75Z" fill="#fff"/><path d="M121.07,92.38c0-5.32,4.5-7.39,12-7.39h2.16v-.52c0-2.17-.52-3.59-3-3.59a2.78,2.78,0,0,0-3.07,2.68h-7.26c.35-5.45,4.63-8.13,10.81-8.13S143,78,143,84V98.65h-7.53V96c-1.08,1.65-3.07,3.16-6.7,3.16C124.66,99.17,121.07,97.18,121.07,92.38Zm14.19-1.64V89.35h-2c-3.12,0-4.5.61-4.5,2.47,0,1.3.86,2.12,2.68,2.12C133.61,93.94,135.26,92.68,135.26,90.74Z" fill="#fff"/><path d="M147.63,91.39V81.31H144.9V76h2.73V71.32h7.74V76h4.45v5.28h-4.45v9.34c0,1.64.82,2.38,2.29,2.38a5.92,5.92,0,0,0,2.21-.39v5.88a16.28,16.28,0,0,1-4.28.65C150.48,99.17,147.63,96.71,147.63,91.39Z" fill="#fff"/><path d="M163.8,91.39V81.31h-2.72V76h2.72V71.32h7.74V76H176v5.28h-4.46v9.34a2.07,2.07,0,0,0,2.3,2.38,5.87,5.87,0,0,0,2.2-.39v5.88a16.14,16.14,0,0,1-4.28.65C166.66,99.17,163.8,96.71,163.8,91.39Z" fill="#fff"/><path d="M177.73,87.62v-.34c0-7.27,5.41-11.85,12.24-11.85,6.18,0,11.5,3.55,11.5,11.67v2H185.56c.21,3,1.94,4.71,4.71,4.71,2.55,0,3.63-1.17,3.94-2.68h7.26c-.69,5.1-4.63,8-11.46,8C182.92,99.17,177.73,95,177.73,87.62ZM194,84.77c-.13-2.72-1.47-4.24-4-4.24-2.34,0-3.94,1.52-4.33,4.24Z" fill="#fff"/><path d="M204.16,76h7.74v4.5a7.13,7.13,0,0,1,7.31-4.8V83c-4.72-.13-7.31,1.34-7.31,5V98.65h-7.74Z" fill="#fff"/><path d="M22.29,111.34H30v13.58a8,8,0,0,1,7.44-4.24c4.37,0,7.39,2.72,7.39,8.52v14.7H37.12V130.75c0-2.55-1-3.8-3.24-3.8S30,128.33,30,131.23V143.9H22.29Z" fill="#fff"/><path d="M47.42,132.87v-.34c0-7.27,5.41-11.85,12.41-11.85s12.33,4.45,12.33,11.63v.35c0,7.35-5.41,11.76-12.37,11.76S47.42,140.18,47.42,132.87Zm16.87-.13v-.34c0-3.81-1.52-5.93-4.46-5.93s-4.5,2-4.5,5.84v.35c0,3.89,1.52,6,4.5,6S64.29,136.51,64.29,132.74Z" fill="#fff"/><path d="M72.25,121.28h8.08l3.29,13.54,3.8-13.54h6.23L97,134.82l3.68-13.54h7.35l-7.18,22.62H93.48L90.1,131.27,86.6,143.9H79.08Z" fill="#fff"/><path d="M125,141.61l-9-20.33h8.39L129,133.35l4.32-12.07h7.4l-12.11,30.19h-7.39Z" fill="#fff"/><path d="M140.32,132.87v-.34c0-7.27,5.4-11.85,12.41-11.85s12.32,4.45,12.32,11.63v.35c0,7.35-5.4,11.76-12.36,11.76S140.32,140.18,140.32,132.87Zm16.86-.13v-.34c0-3.81-1.51-5.93-4.45-5.93s-4.5,2-4.5,5.84v.35c0,3.89,1.52,6,4.5,6S157.18,136.51,157.18,132.74Z" fill="#fff"/><path d="M167.61,136V121.28h7.74v13.5c0,2.55,1,3.8,3.2,3.8s3.85-1.38,3.85-4.28v-13h7.74V143.9H182.4v-3.5c-1.21,2.33-3.42,4-7.18,4C170.85,144.42,167.61,141.74,167.61,136Z" fill="#fff"/><path d="M203.12,126.56h-2.86v-5.28h2.86v-2c0-5.63,3.5-8.31,8.86-8.31a13.79,13.79,0,0,1,3.55.48v5.66a7.24,7.24,0,0,0-2.12-.3,2.28,2.28,0,0,0-2.6,2.47v2h4.59v5.28h-4.59V143.9h-7.69Z" fill="#fff"/><path d="M217.82,115.14a4.27,4.27,0,1,1,4.24,4A4,4,0,0,1,217.82,115.14Zm.39,6.14H226V143.9h-7.74Z" fill="#fff"/><path d="M230.32,111.34H238V143.9h-7.7Z" fill="#fff"/><path d="M241,132.87v-.34c0-7.27,5.41-11.85,12.24-11.85,6.18,0,11.5,3.55,11.5,11.67v2H248.79c.21,3,1.94,4.71,4.71,4.71,2.55,0,3.63-1.17,3.94-2.68h7.26c-.69,5.1-4.63,8-11.46,8C246.15,144.42,241,140.27,241,132.87ZM257.18,130c-.13-2.73-1.47-4.24-4-4.24-2.34,0-3.94,1.51-4.33,4.24Z" fill="#fff"/><path d="M266.87,140a4.31,4.31,0,0,1,4.41-4.37,4.37,4.37,0,1,1,0,8.74A4.31,4.31,0,0,1,266.87,140Z" fill="#fff"/></g></g></svg>