<svg xmlns="http://www.w3.org/2000/svg" viewBox="0 0 728 90"><title>h2</title><g id="Layer_2" data-name="Layer 2"><g id="rect"><rect width="728" height="90" fill="none"/></g><g id="Every_dollar_matters._Our_experts_will_get_your_max_refund." data-name="Every dollar matters. Our experts  will get your max refund."><path d="M114.25,20.08H128v4.39h-8.07v3.42h6.43V32h-6.43v3.62h8.51V40H114.25Z" fill="#fff"/><path d="M128.74,25.42h5.31l3,9.37,3-9.37h4.75L139.5,40h-5.42Z" fill="#fff"/><path d="M144.51,32.87v-.22C144.51,28,148,25,152.38,25c4,0,7.39,2.28,7.39,7.51v1.3H149.54a2.9,2.9,0,0,0,3,3c1.64,0,2.33-.75,2.53-1.72h4.67c-.44,3.28-3,5.14-7.37,5.14C147.84,40.29,144.51,37.62,144.51,32.87ZM154.93,31c-.08-1.76-.94-2.73-2.55-2.73s-2.54,1-2.79,2.73Z" fill="#fff"/><path d="M161.5,25.42h5v2.89a4.58,4.58,0,0,1,4.7-3.08v4.64c-3-.09-4.7.86-4.7,3.2V40h-5Z" fill="#fff"/><path d="M177.76,38.49,172,25.42h5.4l3,7.76,2.78-7.76h4.75L180.1,44.83h-4.75Z" fill="#fff"/><path d="M193.5,32.84v-.22c0-4.95,2.73-7.59,6.18-7.59a4.69,4.69,0,0,1,4.47,2.45V19h5V40h-5V37.6a4.89,4.89,0,0,1-4.53,2.69C196.26,40.29,193.5,37.88,193.5,32.84Zm10.79-.08v-.22c0-2.45-1-3.76-2.86-3.76s-2.87,1.25-2.87,3.78v.23c0,2.44,1.09,3.69,2.81,3.69S204.29,35.23,204.29,32.76Z" fill="#fff"/><path d="M210.89,32.87v-.22c0-4.67,3.47-7.62,8-7.62s7.93,2.86,7.93,7.48v.22c0,4.73-3.48,7.56-7.95,7.56S210.89,37.57,210.89,32.87Zm10.84-.08v-.23c0-2.44-1-3.8-2.87-3.8S216,30.06,216,32.51v.22c0,2.5,1,3.87,2.89,3.87S221.73,35.21,221.73,32.79Z" fill="#fff"/><path d="M228.68,19h4.95V40h-4.95Z" fill="#fff"/><path d="M236.44,19h4.95V40h-4.95Z" fill="#fff"/><path d="M243.23,35.93c0-3.42,2.89-4.76,7.72-4.76h1.39v-.33c0-1.39-.33-2.31-1.91-2.31a1.79,1.79,0,0,0-2,1.73h-4.67c.22-3.51,3-5.23,6.95-5.23s6.56,1.64,6.56,5.51V40h-4.83v-1.7a4.78,4.78,0,0,1-4.31,2C245.53,40.29,243.23,39,243.23,35.93Zm9.11-1.06V34H251c-2,0-2.89.39-2.89,1.59,0,.83.55,1.36,1.72,1.36A2.19,2.19,0,0,0,252.34,34.87Z" fill="#fff"/><path d="M259.72,25.42h5v2.89a4.58,4.58,0,0,1,4.7-3.08v4.64c-3-.09-4.7.86-4.7,3.2V40h-5Z" fill="#fff"/><path d="M276.26,25.42h5v2.22A5.07,5.07,0,0,1,285.8,25a4,4,0,0,1,3.94,2.42A5.77,5.77,0,0,1,294.55,25c2.76,0,4.76,1.78,4.76,5.42V40h-5V31.29c0-1.48-.72-2.2-1.86-2.2a2.16,2.16,0,0,0-2.23,2.45V40h-4.92V31.29c0-1.48-.72-2.2-1.86-2.2a2.15,2.15,0,0,0-2.22,2.45V40h-5Z" fill="#fff"/><path d="M300.9,35.93c0-3.42,2.89-4.76,7.73-4.76H310v-.33c0-1.39-.34-2.31-1.92-2.31a1.79,1.79,0,0,0-2,1.73h-4.67c.22-3.51,3-5.23,7-5.23S315,26.67,315,30.54V40h-4.84v-1.7a4.77,4.77,0,0,1-4.31,2C303.21,40.29,300.9,39,300.9,35.93ZM310,34.87V34h-1.31c-2,0-2.89.39-2.89,1.59,0,.83.56,1.36,1.72,1.36A2.2,2.2,0,0,0,310,34.87Z" fill="#fff"/><path d="M318,35.29V28.81h-1.75V25.42H318v-3h5v3h2.86v3.39H323v6a1.33,1.33,0,0,0,1.47,1.53,3.91,3.91,0,0,0,1.42-.25v3.78a10.75,10.75,0,0,1-2.75.41C319.81,40.29,318,38.71,318,35.29Z" fill="#fff"/><path d="M328.37,35.29V28.81h-1.75V25.42h1.75v-3h5v3h2.86v3.39h-2.86v6a1.33,1.33,0,0,0,1.47,1.53,3.91,3.91,0,0,0,1.42-.25v3.78a10.75,10.75,0,0,1-2.75.41C330.21,40.29,328.37,38.71,328.37,35.29Z" fill="#fff"/><path d="M337.33,32.87v-.22c0-4.67,3.47-7.62,7.87-7.62,4,0,7.39,2.28,7.39,7.51v1.3H342.36a2.9,2.9,0,0,0,3,3c1.64,0,2.34-.75,2.53-1.72h4.67c-.44,3.28-3,5.14-7.37,5.14C340.66,40.29,337.33,37.62,337.33,32.87ZM347.75,31c-.08-1.76-.94-2.73-2.55-2.73s-2.53,1-2.78,2.73Z" fill="#fff"/><path d="M354.32,25.42h5v2.89a4.58,4.58,0,0,1,4.7-3.08v4.64c-3-.09-4.7.86-4.7,3.2V40h-5Z" fill="#fff"/><path d="M364.88,35.34h4.59c.17,1.06.64,1.65,2.06,1.65,1.22,0,1.78-.48,1.78-1.2s-.7-1-2.7-1.31c-3.89-.5-5.53-1.64-5.53-4.67,0-3.22,2.86-4.78,6.23-4.78,3.58,0,6.09,1.22,6.42,4.7h-4.5a1.64,1.64,0,0,0-1.87-1.45c-1.08,0-1.64.48-1.64,1.14s.67,1,2.45,1.2c4,.5,6,1.56,6,4.67,0,3.45-2.56,5-6.59,5S365,38.57,364.88,35.34Z" fill="#fff"/><path d="M379.57,37.46a2.77,2.77,0,0,1,2.83-2.81,2.81,2.81,0,1,1,0,5.62A2.77,2.77,0,0,1,379.57,37.46Z" fill="#fff"/><path d="M392.11,30.15v-.23c0-6.06,4.56-10.12,10.51-10.12s10.53,3.81,10.53,10V30c0,6.11-4.19,10.28-10.62,10.28S392.11,36.12,392.11,30.15Zm15.1-.06v-.22c0-3.53-1.78-5.62-4.59-5.62s-4.56,2-4.56,5.65v.22c0,3.61,1.83,5.7,4.59,5.7S407.21,33.65,407.21,30.09Z" fill="#fff"/><path d="M415,34.9V25.42h5v8.67c0,1.64.64,2.45,2.06,2.45s2.47-.89,2.47-2.75V25.42h5V40h-5V37.71a4.76,4.76,0,0,1-4.61,2.58C417.05,40.29,415,38.57,415,34.9Z" fill="#fff"/><path d="M432,25.42h5v2.89a4.58,4.58,0,0,1,4.7-3.08v4.64c-3-.09-4.7.86-4.7,3.2V40h-5Z" fill="#fff"/><path d="M447.75,32.87v-.22c0-4.67,3.48-7.62,7.87-7.62,4,0,7.39,2.28,7.39,7.51v1.3H452.78a2.9,2.9,0,0,0,3,3c1.64,0,2.34-.75,2.53-1.72H463c-.44,3.28-3,5.14-7.36,5.14C451.09,40.29,447.75,37.62,447.75,32.87ZM458.18,31c-.09-1.76-.95-2.73-2.56-2.73s-2.53,1-2.78,2.73Z" fill="#fff"/><path d="M467.63,32.56l-4.53-7.14h5.73l2.25,3.84,2.2-3.84h5.11l-4.59,6.76,5,7.78h-5.73l-2.59-4.34L467.88,40h-5.09Z" fill="#fff"/><path d="M480.23,25.42h5v2.17A5.12,5.12,0,0,1,489.74,25c3.39,0,6.14,2.56,6.14,7.53v.23c0,5-2.75,7.5-6.17,7.5a4.77,4.77,0,0,1-4.5-2.47v7h-5Zm10.59,7.37v-.23c0-2.55-1.11-3.78-2.86-3.78s-2.89,1.31-2.89,3.76v.22c0,2.47,1.08,3.72,2.89,3.72S490.82,35.18,490.82,32.79Z" fill="#fff"/><path d="M496.92,32.87v-.22c0-4.67,3.47-7.62,7.86-7.62,4,0,7.4,2.28,7.4,7.51v1.3H502a2.9,2.9,0,0,0,3,3c1.64,0,2.33-.75,2.53-1.72h4.67c-.45,3.28-3,5.14-7.37,5.14C500.25,40.29,496.92,37.62,496.92,32.87ZM507.34,31c-.08-1.76-.94-2.73-2.56-2.73s-2.53,1-2.78,2.73Z" fill="#fff"/><path d="M513.91,25.42h5v2.89a4.58,4.58,0,0,1,4.7-3.08v4.64c-3-.09-4.7.86-4.7,3.2V40h-5Z" fill="#fff"/><path d="M526.28,35.29V28.81h-1.75V25.42h1.75v-3h5v3h2.86v3.39h-2.86v6c0,1,.52,1.53,1.47,1.53a4,4,0,0,0,1.42-.25v3.78a10.84,10.84,0,0,1-2.76.41C528.11,40.29,526.28,38.71,526.28,35.29Z" fill="#fff"/><path d="M535.23,35.34h4.59c.17,1.06.64,1.65,2.06,1.65,1.22,0,1.78-.48,1.78-1.2s-.7-1-2.7-1.31c-3.89-.5-5.53-1.64-5.53-4.67,0-3.22,2.86-4.78,6.23-4.78,3.58,0,6.08,1.22,6.42,4.7h-4.51a1.63,1.63,0,0,0-1.86-1.45c-1.08,0-1.64.48-1.64,1.14s.67,1,2.45,1.2c4,.5,6,1.56,6,4.67,0,3.45-2.56,5-6.59,5S535.34,38.57,535.23,35.34Z" fill="#fff"/><path d="M112.58,54.59h5.2l2.12,8.71,2.44-8.71h4l2.16,8.71,2.37-8.71h4.72L131,69.13h-4.76L124.07,61l-2.26,8.11H117Z" fill="#fff"/><path d="M136.78,50.65a2.74,2.74,0,1,1,2.72,2.55A2.59,2.59,0,0,1,136.78,50.65Zm.25,3.94h5V69.13h-5Z" fill="#fff"/><path d="M144.81,48.2h4.95V69.13h-4.95Z" fill="#fff"/><path d="M152.57,48.2h5V69.13h-5Z" fill="#fff"/><path d="M164.45,69.13h4.94c.23,1.06.87,1.89,2.67,1.89a2.75,2.75,0,0,0,3.09-3V65.74a5.1,5.1,0,0,1-4.5,2.67c-3.4,0-6.18-2.5-6.18-7v-.22c0-4.28,2.76-7,6.18-7a4.75,4.75,0,0,1,4.5,2.45V54.59h5V67.91c0,4.34-2.87,6.62-8.07,6.62C167.11,74.53,164.83,72.44,164.45,69.13Zm10.84-7.72v-.2c0-2-1-3.28-2.87-3.28s-2.86,1.31-2.86,3.31v.22c0,2,1.06,3.28,2.84,3.28S175.29,63.46,175.29,61.41Z" fill="#fff"/><path d="M181.88,62v-.22c0-4.67,3.48-7.62,7.87-7.62,4,0,7.39,2.28,7.39,7.51V63H186.91a2.9,2.9,0,0,0,3,3c1.64,0,2.34-.75,2.53-1.73h4.67c-.44,3.28-3,5.15-7.36,5.15C185.22,69.47,181.88,66.8,181.88,62Zm10.43-1.83c-.09-1.75-.95-2.72-2.56-2.72s-2.53,1-2.78,2.72Z" fill="#fff"/><path d="M199.54,64.46V58h-1.75v-3.4h1.75v-3h5v3h2.86V58h-2.86v6c0,1.06.52,1.53,1.47,1.53a3.78,3.78,0,0,0,1.42-.25v3.78a10.34,10.34,0,0,1-2.76.42C201.37,69.47,199.54,67.88,199.54,64.46Z" fill="#fff"/><path d="M218.89,67.66l-5.81-13.07h5.4l3,7.76,2.78-7.76H229L221.23,74h-4.76Z" fill="#fff"/><path d="M228.74,62v-.22c0-4.67,3.47-7.62,8-7.62s7.92,2.87,7.92,7.48v.23c0,4.72-3.48,7.56-7.95,7.56S228.74,66.74,228.74,62ZM239.58,62v-.22c0-2.45-1-3.81-2.86-3.81s-2.9,1.31-2.9,3.75v.23c0,2.5,1,3.86,2.9,3.86S239.58,64.38,239.58,62Z" fill="#fff"/><path d="M246.28,64.07V54.59h5v8.68c0,1.64.64,2.44,2.06,2.44s2.47-.89,2.47-2.75V54.59h5V69.13h-5V66.88a4.77,4.77,0,0,1-4.61,2.59C248.37,69.47,246.28,67.74,246.28,64.07Z" fill="#fff"/><path d="M263.3,54.59h5v2.9A4.59,4.59,0,0,1,273,54.4V59c-3-.08-4.7.86-4.7,3.2v6.89h-5Z" fill="#fff"/><path d="M279.85,54.59h5v2.23a5.09,5.09,0,0,1,4.56-2.62,4,4,0,0,1,3.95,2.42,5.79,5.79,0,0,1,4.81-2.42c2.75,0,4.76,1.78,4.76,5.43v9.5h-5V60.46c0-1.47-.72-2.2-1.86-2.2a2.16,2.16,0,0,0-2.23,2.45v8.42h-4.92V60.46c0-1.47-.72-2.2-1.86-2.2a2.16,2.16,0,0,0-2.23,2.45v8.42h-5Z" fill="#fff"/><path d="M304.49,65.1c0-3.42,2.89-4.75,7.73-4.75h1.39V60c0-1.38-.34-2.3-1.92-2.3a1.78,1.78,0,0,0-2,1.72H305c.23-3.5,3-5.23,6.95-5.23s6.56,1.64,6.56,5.51v9.42h-4.83V67.44a4.8,4.8,0,0,1-4.31,2C306.79,69.47,304.49,68.19,304.49,65.1Zm9.12-1v-.89H312.3c-2,0-2.89.39-2.89,1.58,0,.84.55,1.36,1.72,1.36C312.55,66.1,313.61,65.3,313.61,64.05Z" fill="#fff"/><path d="M324.65,61.74l-4.54-7.15h5.73l2.25,3.84,2.2-3.84h5.12l-4.59,6.76,5,7.78h-5.73l-2.58-4.33-2.64,4.33h-5.09Z" fill="#fff"/><path d="M342.31,54.59h5v2.9A4.59,4.59,0,0,1,352,54.4V59c-3-.08-4.7.86-4.7,3.2v6.89h-5Z" fill="#fff"/><path d="M352.87,62v-.22c0-4.67,3.48-7.62,7.87-7.62,4,0,7.4,2.28,7.4,7.51V63H357.9a2.91,2.91,0,0,0,3,3c1.64,0,2.33-.75,2.53-1.73h4.67c-.45,3.28-3,5.15-7.37,5.15C356.21,69.47,352.87,66.8,352.87,62Zm10.43-1.83c-.09-1.75-.95-2.72-2.56-2.72s-2.53,1-2.78,2.72Z" fill="#fff"/><path d="M370.61,58h-1.83v-3.4h1.83V53.31c0-3.61,2.26-5.33,5.7-5.33a9.14,9.14,0,0,1,2.28.3v3.64a4.58,4.58,0,0,0-1.36-.19,1.46,1.46,0,0,0-1.67,1.58v1.28h2.95V58h-2.95V69.13h-4.95Z" fill="#fff"/><path d="M380.07,64.07V54.59h5v8.68c0,1.64.64,2.44,2.06,2.44s2.48-.89,2.48-2.75V54.59h5V69.13h-5V66.88A4.79,4.79,0,0,1,385,69.47C382.15,69.47,380.07,67.74,380.07,64.07Z" fill="#fff"/><path d="M397.09,54.59h5v2.34a5.15,5.15,0,0,1,4.78-2.73c2.81,0,4.76,1.76,4.76,5.48v9.45h-5V60.68c0-1.64-.64-2.44-2.08-2.44s-2.48.89-2.48,2.75v8.14h-5Z" fill="#fff"/><path d="M413.3,62v-.23c0-4.94,2.72-7.59,6.17-7.59A4.73,4.73,0,0,1,424,56.65V48.2h5V69.13h-5V66.77a4.92,4.92,0,0,1-4.53,2.7C416.05,69.47,413.3,67.05,413.3,62Zm10.79-.09v-.22c0-2.45-1-3.75-2.87-3.75s-2.86,1.25-2.86,3.78V62c0,2.45,1.08,3.7,2.81,3.7S424.09,64.41,424.09,61.93Z" fill="#fff"/><path d="M431.26,66.63a2.78,2.78,0,0,1,2.84-2.81,2.81,2.81,0,1,1,0,5.62A2.78,2.78,0,0,1,431.26,66.63Z" fill="#fff"/></g></g></svg>