<svg xmlns="http://www.w3.org/2000/svg" viewBox="0 0 600 1200"><title>H2</title><g id="Layer_2" data-name="Layer 2"><g id="Layer_4" data-name="Layer 4"><rect width="600" height="1200" fill="none"/></g><g id="Your_maximum_refund_guaranteed." data-name="Your  maximum refund,  guaranteed."><path d="M59.29,146.14l-20.51-36H58.41l10.65,21.2,10.64-21.2H97l-19.53,36v26.92H59.29Z" fill="#14aa40"/><path d="M90.35,150.62v-.7c0-14.78,11-24.11,25.26-24.11s25.08,9.06,25.08,23.67v.7c0,15-11,23.94-25.17,23.94S90.35,165.5,90.35,150.62Zm34.32-.26v-.7c0-7.75-3.08-12.06-9.06-12.06s-9.15,4.14-9.15,11.88v.7c0,7.92,3.08,12.24,9.15,12.24C121.5,162.42,124.67,158,124.67,150.36Z" fill="#14aa40"/><path d="M145.88,157.05V127h15.75V154.5c0,5.19,2,7.74,6.51,7.74,4.75,0,7.83-2.82,7.83-8.71V127h15.76v46H176v-7.12c-2.46,4.75-6.95,8.18-14.6,8.18C152.48,174.12,145.88,168.66,145.88,157.05Z" fill="#14aa40"/><path d="M199.73,127h15.76v9.15c2.9-6.86,7.74-9.85,14.87-9.77v14.7c-9.59-.26-14.87,2.73-14.87,10.12v21.82H199.73Z" fill="#14aa40"/><path d="M42.74,219H58.5v7a16.08,16.08,0,0,1,14.43-8.27c6.07,0,10.29,2.64,12.49,7.65a18.27,18.27,0,0,1,15.23-7.65c8.71,0,15,5.63,15,17.16v30.09H99.94V237.61c0-4.67-2.29-7-5.89-7-4.23,0-7,2.72-7,7.74v26.66H71.43V237.61c0-4.67-2.29-7-5.89-7-4.23,0-7,2.72-7,7.74v26.66H42.74Z" fill="#14aa40"/><path d="M120.71,252.3c0-10.82,9.15-15,24.47-15h4.4V236.2c0-4.4-1.06-7.3-6.08-7.3-4.31,0-5.89,2.55-6.24,5.45H122.47c.71-11.09,9.42-16.54,22-16.54s20.77,5.19,20.77,17.42v29.83H149.93V259.7c-2.2,3.34-6.25,6.42-13.64,6.42C128,266.12,120.71,262.07,120.71,252.3ZM149.58,249v-2.82h-4.14c-6.34,0-9.15,1.24-9.15,5,0,2.64,1.76,4.31,5.45,4.31C146.23,255.47,149.58,252.92,149.58,249Z" fill="#14aa40"/><path d="M184.51,241.66,170.17,219h18.12l7.13,12.14,7-12.14h16.19l-14.51,21.38L220,265.06H201.85l-8.19-13.72-8.36,13.72H169.2Z" fill="#14aa40"/><path d="M224,206.54c0-4.66,3.7-8.18,8.63-8.18s8.71,3.52,8.71,8.18-3.79,8.1-8.71,8.1S224,211.21,224,206.54Zm.79,12.5h15.76v46H224.81Z" fill="#14aa40"/><path d="M249,219h15.76v7a16.08,16.08,0,0,1,14.43-8.27c6.07,0,10.29,2.64,12.49,7.65a18.27,18.27,0,0,1,15.23-7.65c8.71,0,15,5.63,15,17.16v30.09H306.21V237.61c0-4.67-2.29-7-5.89-7-4.23,0-7,2.72-7,7.74v26.66H277.7V237.61c0-4.67-2.29-7-5.89-7-4.23,0-7,2.72-7,7.74v26.66H249Z" fill="#14aa40"/><path d="M329.27,249.05V219H345V246.5c0,5.19,2,7.74,6.51,7.74,4.76,0,7.84-2.82,7.84-8.71V219h15.75v46H359.37v-7.12c-2.47,4.75-7,8.18-14.61,8.18C335.87,266.12,329.27,260.66,329.27,249.05Z" fill="#14aa40"/><path d="M383.12,219h15.76v7a16.08,16.08,0,0,1,14.43-8.27c6.07,0,10.29,2.64,12.49,7.65A18.27,18.27,0,0,1,441,217.81c8.71,0,15,5.63,15,17.16v30.09H440.32V237.61c0-4.67-2.28-7-5.89-7-4.23,0-7,2.72-7,7.74v26.66H411.81V237.61c0-4.67-2.29-7-5.89-7-4.23,0-7,2.72-7,7.74v26.66H383.12Z" fill="#14aa40"/><path d="M42.74,311H58.5v9.15c2.9-6.86,7.74-9.85,14.87-9.77v14.7c-9.59-.26-14.87,2.73-14.87,10.12v21.82H42.74Z" fill="#14aa40"/><path d="M76.18,334.62v-.7c0-14.78,11-24.11,24.91-24.11,12.58,0,23.41,7.21,23.41,23.76v4.13H92.11c.44,6.08,4,9.6,9.59,9.6,5.2,0,7.4-2.38,8-5.46H124.5c-1.41,10.38-9.42,16.28-23.32,16.28C86.74,358.12,76.18,349.67,76.18,334.62Zm33-5.8c-.26-5.55-3-8.63-8.09-8.63-4.75,0-8,3.08-8.8,8.63Z" fill="#14aa40"/><path d="M132.33,321.78h-5.81V311h5.81V307c0-11.44,7.13-16.89,18-16.89a28.42,28.42,0,0,1,7.21,1v11.53a14.52,14.52,0,0,0-4.31-.61c-3.69,0-5.28,2-5.28,5V311h9.33v10.74H148v35.28H132.33Z" fill="#14aa40"/><path d="M162.25,341.05V311H178V338.5c0,5.19,2,7.74,6.51,7.74,4.75,0,7.83-2.82,7.83-8.71V311h15.75v46H192.34v-7.12c-2.46,4.75-7,8.18-14.61,8.18C168.85,358.12,162.25,352.66,162.25,341.05Z" fill="#14aa40"/><path d="M216.1,311h15.75v7.39c2.47-4.75,7.48-8.62,15.14-8.62,8.89,0,15.05,5.54,15.05,17.33v29.92H246.29V330.31c0-5.19-2-7.74-6.6-7.74s-7.84,2.81-7.84,8.71v25.78H216.1Z" fill="#14aa40"/><path d="M267.41,334.54v-.71c0-15.66,8.62-24,19.53-24,7.22,0,11.53,3.08,14.17,7.74V290.8h15.75v66.26H301.11v-7.48a15.52,15.52,0,0,1-14.35,8.54C276.12,358.12,267.41,350.46,267.41,334.54Zm34.14-.27v-.7c0-7.75-3.26-11.88-9.07-11.88s-9.06,4-9.06,12v.7c0,7.74,3.43,11.7,8.89,11.7C298,346.06,301.55,342.1,301.55,334.27Z" fill="#14aa40"/><path d="M321.61,364.19,329,341.05l14.61,5.19L330.94,367.8Z" fill="#14aa40"/><path d="M40.19,449.06H55.86c.7,3.35,2.72,6,8.44,6,7,0,9.77-4,9.77-9.68v-7a16.12,16.12,0,0,1-14.25,8.44c-10.74,0-19.54-7.91-19.54-22.08V424c0-13.55,8.71-22.17,19.54-22.17,7.3,0,11.61,3.08,14.25,7.74V403H89.82v42.15c0,13.73-9.06,20.94-25.52,20.94C48.64,466.13,41.42,459.53,40.19,449.06ZM74.51,424.6V424c0-6.33-3.26-10.38-9.06-10.38s-9.07,4.14-9.07,10.47v.71c0,6.33,3.35,10.38,9,10.38S74.51,431.11,74.51,424.6Z" fill="#14aa40"/><path d="M97.48,433.05V403h15.75V430.5c0,5.19,2,7.74,6.51,7.74,4.75,0,7.83-2.82,7.83-8.71V403h15.76v46H127.57v-7.12c-2.46,4.75-6.95,8.18-14.6,8.18C104.08,450.12,97.48,444.66,97.48,433.05Z" fill="#14aa40"/><path d="M148.69,436.3c0-10.82,9.16-15,24.47-15h4.4V420.2c0-4.4-1.06-7.3-6.07-7.3-4.32,0-5.9,2.55-6.25,5.45H150.45c.71-11.09,9.42-16.54,22-16.54s20.77,5.19,20.77,17.42v29.83H177.91V443.7c-2.2,3.34-6.25,6.42-13.64,6.42C156,450.12,148.69,446.07,148.69,436.3ZM177.56,433v-2.82h-4.14c-6.33,0-9.15,1.24-9.15,5,0,2.64,1.76,4.31,5.46,4.31C174.21,439.47,177.56,436.92,177.56,433Z" fill="#14aa40"/><path d="M200.88,403h15.75v9.15c2.9-6.86,7.74-9.85,14.87-9.77v14.7c-9.59-.26-14.87,2.73-14.87,10.12v21.82H200.88Z" fill="#14aa40"/><path d="M233.53,436.3c0-10.82,9.15-15,24.46-15h4.4V420.2c0-4.4-1.06-7.3-6.07-7.3-4.32,0-5.9,2.55-6.25,5.45H235.29c.7-11.09,9.41-16.54,22-16.54s20.77,5.19,20.77,17.42v29.83H262.74V443.7c-2.2,3.34-6.25,6.42-13.64,6.42C240.83,450.12,233.53,446.07,233.53,436.3ZM262.39,433v-2.82h-4.14c-6.33,0-9.15,1.24-9.15,5,0,2.64,1.76,4.31,5.46,4.31C259,439.47,262.39,436.92,262.39,433Z" fill="#14aa40"/><path d="M285.71,403h15.75v7.39c2.46-4.75,7.48-8.62,15.13-8.62,8.89,0,15.05,5.54,15.05,17.33v29.92H315.89V422.31c0-5.19-2-7.74-6.6-7.74s-7.83,2.81-7.83,8.71v25.78H285.71Z" fill="#14aa40"/><path d="M341.41,434.28v-20.5h-5.54V403h5.54v-9.59h15.75V403h9.07v10.74h-9.07v19c0,3.35,1.67,4.84,4.67,4.84a11.89,11.89,0,0,0,4.48-.79v12a32.89,32.89,0,0,1-8.71,1.32C347.22,450.12,341.41,445.1,341.41,434.28Z" fill="#14aa40"/><path d="M369.75,426.62v-.7c0-14.78,11-24.11,24.9-24.11,12.58,0,23.41,7.21,23.41,23.76v4.13H385.67c.44,6.08,4,9.6,9.59,9.6,5.2,0,7.4-2.38,8-5.46h14.79c-1.41,10.38-9.42,16.28-23.32,16.28C380.31,450.12,369.75,441.67,369.75,426.62Zm33-5.8c-.27-5.55-3-8.63-8.1-8.63-4.75,0-8,3.08-8.8,8.63Z" fill="#14aa40"/><path d="M421.05,426.62v-.7c0-14.78,11-24.11,24.9-24.11,12.59,0,23.41,7.21,23.41,23.76v4.13H437c.44,6.08,4,9.6,9.59,9.6,5.19,0,7.39-2.38,8-5.46h14.78c-1.41,10.38-9.42,16.28-23.32,16.28C431.61,450.12,421.05,441.67,421.05,426.62Zm33-5.8c-.27-5.55-3-8.63-8.1-8.63-4.75,0-8,3.08-8.8,8.63Z" fill="#14aa40"/><path d="M472.53,426.54v-.71c0-15.66,8.62-24,19.53-24,7.22,0,11.53,3.08,14.17,7.74V382.8H522v66.26H506.23v-7.48a15.51,15.51,0,0,1-14.34,8.54C481.24,450.12,472.53,442.46,472.53,426.54Zm34.14-.27v-.7c0-7.75-3.25-11.88-9.06-11.88s-9.07,4-9.07,12v.7c0,7.74,3.44,11.7,8.89,11.7C503.15,438.06,506.67,434.1,506.67,426.27Z" fill="#14aa40"/><path d="M529.38,441.14a8.77,8.77,0,0,1,9-8.88,8.89,8.89,0,1,1,0,17.77A8.77,8.77,0,0,1,529.38,441.14Z" fill="#14aa40"/></g></g></svg>