<svg xmlns="http://www.w3.org/2000/svg" viewBox="0 0 728 90"><title>H45</title><g id="Layer_2" data-name="Layer 2"><g id="Rect"><rect width="728" height="90" fill="none"/></g><g id="H45"><g id="Totally_transparent_pricing." data-name="Totally transparent pricing."><path d="M126.69,22.07h-6V16.94h18.7v5.13h-6V40.15h-6.68Z" fill="#fff"/><path d="M137.94,31.87v-.26c0-5.45,4.06-8.89,9.32-8.89s9.25,3.34,9.25,8.73v.26c0,5.51-4.06,8.82-9.28,8.82S137.94,37.35,137.94,31.87Zm12.66-.1v-.26c0-2.85-1.13-4.44-3.34-4.44s-3.38,1.52-3.38,4.38v.26c0,2.92,1.14,4.51,3.38,4.51S150.6,34.6,150.6,31.77Z" fill="#fff"/><path d="M159.33,34.69V27.13h-2.05v-4h2.05V19.63h5.81v3.54h3.34v4h-3.34v7a1.56,1.56,0,0,0,1.72,1.79,4.29,4.29,0,0,0,1.65-.3v4.42a12.38,12.38,0,0,1-3.21.48C161.47,40.53,159.33,38.68,159.33,34.69Z" fill="#fff"/><path d="M169.78,35.44c0-4,3.37-5.55,9-5.55h1.62V29.5c0-1.62-.39-2.69-2.24-2.69a2.08,2.08,0,0,0-2.3,2h-5.45c.26-4.09,3.47-6.1,8.11-6.1s7.66,1.91,7.66,6.42v11h-5.65v-2a5.57,5.57,0,0,1-5,2.36C172.47,40.53,169.78,39,169.78,35.44Zm10.64-1.23v-1H178.9c-2.34,0-3.38.45-3.38,1.85,0,1,.65,1.59,2,1.59C179.19,36.61,180.42,35.67,180.42,34.21Z" fill="#fff"/><path d="M189.18,15.71H195V40.15h-5.78Z" fill="#fff"/><path d="M198.24,15.71H204V40.15h-5.77Z" fill="#fff"/><path d="M212.45,38.42l-6.78-15.25H212l3.51,9.06,3.24-9.06h5.55l-9.08,22.66h-5.55Z" fill="#fff"/><path d="M232.44,34.69V27.13h-2.05v-4h2.05V19.63h5.81v3.54h3.34v4h-3.34v7c0,1.23.61,1.79,1.72,1.79a4.33,4.33,0,0,0,1.65-.3v4.42a12.46,12.46,0,0,1-3.21.48C234.58,40.53,232.44,38.68,232.44,34.69Z" fill="#fff"/><path d="M243.79,23.17h5.81v3.38a5.35,5.35,0,0,1,5.49-3.61v5.42c-3.54-.09-5.49,1-5.49,3.74v8h-5.81Z" fill="#fff"/><path d="M255.83,35.44c0-4,3.38-5.55,9-5.55h1.63V29.5c0-1.62-.39-2.69-2.24-2.69a2.09,2.09,0,0,0-2.31,2h-5.45c.26-4.09,3.47-6.1,8.11-6.1s7.66,1.91,7.66,6.42v11h-5.64v-2a5.58,5.58,0,0,1-5,2.36C258.53,40.53,255.83,39,255.83,35.44Zm10.65-1.23v-1H265c-2.33,0-3.37.45-3.37,1.85,0,1,.65,1.59,2,1.59C265.24,36.61,266.48,35.67,266.48,34.21Z" fill="#fff"/><path d="M275.07,23.17h5.81V25.9a6,6,0,0,1,5.59-3.18c3.27,0,5.55,2,5.55,6.39v11h-5.81V30.28c0-1.92-.75-2.86-2.44-2.86s-2.89,1-2.89,3.22v9.51h-5.81Z" fill="#fff"/><path d="M293.7,34.76h5.35c.2,1.23.75,1.91,2.41,1.91,1.42,0,2.07-.55,2.07-1.39s-.81-1.2-3.14-1.53c-4.55-.58-6.46-1.91-6.46-5.45,0-3.77,3.34-5.58,7.27-5.58,4.18,0,7.1,1.42,7.49,5.48h-5.25a1.91,1.91,0,0,0-2.18-1.69c-1.26,0-1.91.56-1.91,1.33s.78,1.14,2.85,1.4c4.71.58,7,1.82,7,5.45,0,4-3,5.84-7.69,5.84S293.83,38.52,293.7,34.76Z" fill="#fff"/><path d="M311.06,23.17h5.81V25.7a6,6,0,0,1,5.29-3c4,0,7.17,3,7.17,8.79v.26c0,5.84-3.21,8.76-7.2,8.76a5.6,5.6,0,0,1-5.26-2.88v8.18h-5.81Zm12.37,8.6v-.26c0-3-1.3-4.41-3.35-4.41s-3.37,1.52-3.37,4.38v.26c0,2.89,1.26,4.35,3.37,4.35S323.43,34.56,323.43,31.77Z" fill="#fff"/><path d="M330.46,35.44c0-4,3.38-5.55,9-5.55h1.62V29.5c0-1.62-.39-2.69-2.24-2.69a2.08,2.08,0,0,0-2.3,2h-5.46c.26-4.09,3.48-6.1,8.12-6.1s7.66,1.91,7.66,6.42v11h-5.65v-2a5.57,5.57,0,0,1-5,2.36C333.16,40.53,330.46,39,330.46,35.44Zm10.65-1.23v-1h-1.53c-2.33,0-3.37.45-3.37,1.85,0,1,.65,1.59,2,1.59C339.88,36.61,341.11,35.67,341.11,34.21Z" fill="#fff"/><path d="M349.71,23.17h5.81v3.38A5.34,5.34,0,0,1,361,22.94v5.42c-3.54-.09-5.48,1-5.48,3.74v8h-5.81Z" fill="#fff"/><path d="M362,31.87v-.26c0-5.45,4-8.89,9.18-8.89,4.64,0,8.64,2.66,8.64,8.76V33H367.91c.16,2.24,1.46,3.54,3.54,3.54,1.91,0,2.73-.87,2.95-2h5.46c-.52,3.83-3.48,6-8.61,6C365.93,40.53,362,37.42,362,31.87Zm12.17-2.14c-.1-2.05-1.11-3.18-3-3.18s-3,1.13-3.24,3.18Z" fill="#fff"/><path d="M381.86,23.17h5.81V25.9a6,6,0,0,1,5.59-3.18c3.27,0,5.55,2,5.55,6.39v11H393V30.28c0-1.92-.75-2.86-2.44-2.86s-2.89,1-2.89,3.22v9.51h-5.81Z" fill="#fff"/><path d="M402.4,34.69V27.13h-2v-4h2V19.63h5.81v3.54h3.35v4h-3.35v7a1.56,1.56,0,0,0,1.72,1.79,4.35,4.35,0,0,0,1.66-.3v4.42a12.46,12.46,0,0,1-3.21.48C404.55,40.53,402.4,38.68,402.4,34.69Z" fill="#fff"/><path d="M121.72,58.07h5.81V60.6a6,6,0,0,1,5.29-3c4,0,7.17,3,7.17,8.79v.26c0,5.84-3.21,8.76-7.2,8.76a5.59,5.59,0,0,1-5.26-2.89v8.18h-5.81Zm12.37,8.6v-.26c0-3-1.3-4.41-3.35-4.41s-3.37,1.52-3.37,4.38v.26c0,2.89,1.26,4.35,3.37,4.35S134.09,69.46,134.09,66.67Z" fill="#fff"/><path d="M142.1,58.07h5.81v3.38a5.34,5.34,0,0,1,5.48-3.61v5.42c-3.54-.09-5.48,1-5.48,3.74v8H142.1Z" fill="#fff"/><path d="M155.37,53.46a3.2,3.2,0,1,1,3.18,3A3,3,0,0,1,155.37,53.46Zm.29,4.61h5.81V75h-5.81Z" fill="#fff"/><path d="M163.68,66.77v-.26c0-5.65,4-8.89,9-8.89,4.16,0,8,1.81,8.31,7h-5.45c-.26-1.59-1-2.46-2.73-2.46-2,0-3.24,1.46-3.24,4.31v.26c0,3,1.13,4.48,3.34,4.48a2.82,2.82,0,0,0,2.95-2.82h5.23c-.16,4.28-3,7.07-8.54,7.07C167.54,75.43,163.68,72.48,163.68,66.77Z" fill="#fff"/><path d="M182.89,53.46a3.2,3.2,0,1,1,3.18,3A3,3,0,0,1,182.89,53.46Zm.29,4.61H189V75h-5.81Z" fill="#fff"/><path d="M192.1,58.07h5.81V60.8a6,6,0,0,1,5.58-3.18c3.28,0,5.55,2,5.55,6.39V75h-5.8V65.18c0-1.92-.75-2.86-2.44-2.86s-2.89,1-2.89,3.21V75H192.1Z" fill="#fff"/><path d="M210.92,75h5.78c.26,1.24,1,2.21,3.12,2.21,2.56,0,3.6-1.46,3.6-3.57v-2.6a6,6,0,0,1-5.26,3.12c-4,0-7.2-2.92-7.2-8.15v-.26c0-5,3.21-8.17,7.2-8.17a5.53,5.53,0,0,1,5.26,2.85v-2.4h5.81V73.62c0,5.06-3.35,7.72-9.41,7.72C214,81.34,211.38,78.91,210.92,75Zm12.66-9v-.23c0-2.33-1.2-3.83-3.34-3.83s-3.35,1.53-3.35,3.87v.26c0,2.33,1.24,3.83,3.32,3.83S223.58,68.42,223.58,66Z" fill="#fff"/><path d="M232,72.12a3.24,3.24,0,0,1,3.31-3.28,3.28,3.28,0,1,1,0,6.56A3.24,3.24,0,0,1,232,72.12Z" fill="#fff"/></g></g></g></svg>