<svg xmlns="http://www.w3.org/2000/svg" viewBox="0 0 300 250"><title>H2</title><g id="Layer_2" data-name="Layer 2"><g id="Artboard_2" data-name="Artboard 2" style="isolation:isolate"><g id="headline1"><g id="Expert_tax_prep_without_an_appointment._Just_drop_off_your_docs" data-name="Expert tax prep without an appointment. Just drop off your docs"><path d="M23,47.57H34.23v3.6h-6.6V54h5.26v3.32H27.63v3h7v3.6H23Z" fill="#fff"/><path d="M39.25,57.79l-3.7-5.85h4.68l1.85,3.14,1.79-3.14h4.19l-3.75,5.53,4.11,6.37H43.74l-2.12-3.55-2.16,3.55H35.3Z" fill="#fff"/><path d="M49.56,51.94h4.07v1.77a4.22,4.22,0,0,1,3.71-2.09c2.78,0,5,2.09,5,6.17V58c0,4.09-2.25,6.14-5,6.14a3.93,3.93,0,0,1-3.69-2v5.73H49.56Zm8.67,6v-.18c0-2.1-.91-3.1-2.34-3.1s-2.37,1.07-2.37,3.07V58c0,2,.89,3,2.37,3S58.23,59.93,58.23,58Z" fill="#fff"/><path d="M63.21,58v-.18a6.09,6.09,0,0,1,6.44-6.24c3.25,0,6,1.87,6,6.14v1.07H67.33a2.37,2.37,0,0,0,2.48,2.48c1.34,0,1.91-.61,2.07-1.41H75.7c-.36,2.69-2.43,4.21-6,4.21S63.21,61.93,63.21,58Zm8.53-1.5c-.07-1.44-.77-2.23-2.09-2.23a2.27,2.27,0,0,0-2.28,2.23Z" fill="#fff"/><path d="M77.11,51.94h4.07v2.37A3.75,3.75,0,0,1,85,51.78v3.8c-2.48-.07-3.85.71-3.85,2.62v5.64H77.11Z" fill="#fff"/><path d="M87.23,60v-5.3H85.8V51.94h1.43V49.46h4.08v2.48h2.34v2.78H91.31v4.91c0,.86.43,1.25,1.2,1.25a3.2,3.2,0,0,0,1.16-.2v3.09a8.34,8.34,0,0,1-2.25.34C88.74,64.11,87.23,62.82,87.23,60Z" fill="#fff"/><path d="M99.88,60v-5.3H98.45V51.94h1.43V49.46H104v2.48h2.35v2.78H104v4.91a1.09,1.09,0,0,0,1.21,1.25,3.2,3.2,0,0,0,1.16-.2v3.09a8.4,8.4,0,0,1-2.25.34C101.38,64.11,99.88,62.82,99.88,60Z" fill="#fff"/><path d="M107.21,60.54c0-2.8,2.36-3.89,6.32-3.89h1.14v-.27c0-1.14-.27-1.89-1.57-1.89a1.47,1.47,0,0,0-1.62,1.41h-3.82c.18-2.87,2.44-4.28,5.69-4.28s5.37,1.34,5.37,4.51v7.71h-4V62.45a3.89,3.89,0,0,1-3.53,1.66C109.1,64.11,107.21,63.07,107.21,60.54Zm7.46-.86V59H113.6c-1.64,0-2.37.32-2.37,1.29,0,.69.46,1.12,1.42,1.12A1.79,1.79,0,0,0,114.67,59.68Z" fill="#fff"/><path d="M123.7,57.79,120,51.94h4.69l1.84,3.14,1.8-3.14h4.19l-3.76,5.53,4.12,6.37h-4.69l-2.11-3.55-2.16,3.55h-4.17Z" fill="#fff"/><path d="M138.15,51.94h4.07v1.77a4.21,4.21,0,0,1,3.71-2.09c2.77,0,5,2.09,5,6.17V58c0,4.09-2.26,6.14-5.06,6.14a3.92,3.92,0,0,1-3.68-2v5.73h-4.07Zm8.66,6v-.18c0-2.1-.91-3.1-2.34-3.1s-2.36,1.07-2.36,3.07V58c0,2,.88,3,2.36,3S146.81,59.93,146.81,58Z" fill="#fff"/><path d="M152.43,51.94h4.08v2.37a3.75,3.75,0,0,1,3.84-2.53v3.8c-2.48-.07-3.84.71-3.84,2.62v5.64h-4.08Z" fill="#fff"/><path d="M161.08,58v-.18a6.09,6.09,0,0,1,6.44-6.24c3.25,0,6,1.87,6,6.14v1.07H165.2a2.37,2.37,0,0,0,2.48,2.48c1.34,0,1.91-.61,2.07-1.41h3.82c-.36,2.69-2.44,4.21-6,4.21S161.08,61.93,161.08,58Zm8.53-1.5c-.07-1.44-.77-2.23-2.09-2.23a2.27,2.27,0,0,0-2.28,2.23Z" fill="#fff"/><path d="M175,51.94h4.07v1.77a4.21,4.21,0,0,1,3.71-2.09c2.78,0,5,2.09,5,6.17V58c0,4.09-2.25,6.14-5,6.14a3.93,3.93,0,0,1-3.69-2v5.73H175Zm8.67,6v-.18c0-2.1-.91-3.1-2.35-3.1s-2.36,1.07-2.36,3.07V58c0,2,.89,3,2.36,3S183.65,59.93,183.65,58Z" fill="#fff"/><path d="M192.41,51.94h4.25l1.73,7.12,2-7.12h3.28l1.77,7.12,1.94-7.12h3.86l-3.77,11.9h-3.89L201.8,57.2,200,63.84h-4Z" fill="#fff"/><path d="M212.2,48.71a2.12,2.12,0,0,1,2.23-2.12,2.15,2.15,0,0,1,2.25,2.12,2.12,2.12,0,0,1-2.25,2.09A2.1,2.1,0,0,1,212.2,48.71Zm.2,3.23h4.07v11.9H212.4Z" fill="#fff"/><path d="M219.2,60v-5.3h-1.43V51.94h1.43V49.46h4.08v2.48h2.34v2.78h-2.34v4.91c0,.86.43,1.25,1.2,1.25a3.2,3.2,0,0,0,1.16-.2v3.09a8.34,8.34,0,0,1-2.25.34C220.71,64.11,219.2,62.82,219.2,60Z" fill="#fff"/><path d="M227.17,46.71h4.07v7.14a4.2,4.2,0,0,1,3.91-2.23c2.3,0,3.89,1.44,3.89,4.48v7.74H235V56.92c0-1.34-.52-2-1.71-2s-2,.73-2,2.25v6.67h-4.07Z" fill="#fff"/><path d="M240.38,58v-.18c0-3.83,2.85-6.24,6.53-6.24s6.49,2.35,6.49,6.12v.18c0,3.87-2.85,6.19-6.51,6.19S240.38,61.88,240.38,58Zm8.88-.07v-.18c0-2-.8-3.12-2.35-3.12s-2.36,1.07-2.36,3.07v.18c0,2,.79,3.17,2.36,3.17S249.26,60,249.26,58Z" fill="#fff"/><path d="M254.74,59.7V51.94h4.07V59c0,1.34.52,2,1.69,2s2-.73,2-2.25V51.94h4.07v11.9h-4.07V62a3.93,3.93,0,0,1-3.78,2.11C256.45,64.11,254.74,62.7,254.74,59.7Z" fill="#fff"/><path d="M269.21,60v-5.3h-1.44V51.94h1.44V49.46h4.07v2.48h2.34v2.78h-2.34v4.91a1.09,1.09,0,0,0,1.21,1.25,3.28,3.28,0,0,0,1.16-.2v3.09a8.49,8.49,0,0,1-2.26.34C270.71,64.11,269.21,62.82,269.21,60Z" fill="#fff"/><path d="M21.94,86.29c0-2.8,2.37-3.89,6.33-3.89H29.4v-.27c0-1.14-.27-1.89-1.57-1.89a1.46,1.46,0,0,0-1.61,1.41H22.4c.18-2.87,2.43-4.28,5.68-4.28s5.37,1.34,5.37,4.51v7.71h-4V88.2A3.91,3.91,0,0,1,26,89.86C23.83,89.86,21.94,88.82,21.94,86.29Zm7.46-.86V84.7H28.33C26.7,84.7,26,85,26,86c0,.69.45,1.12,1.41,1.12A1.79,1.79,0,0,0,29.4,85.43Z" fill="#fff"/><path d="M35.43,77.69H39.5V79.6a4.21,4.21,0,0,1,3.92-2.23c2.3,0,3.89,1.44,3.89,4.48v7.74H43.24V82.67c0-1.34-.53-2-1.71-2s-2,.73-2,2.25v6.67H35.43Z" fill="#fff"/><path d="M52.75,86.29c0-2.8,2.36-3.89,6.32-3.89h1.14v-.27c0-1.14-.28-1.89-1.57-1.89A1.46,1.46,0,0,0,57,81.65H53.2c.18-2.87,2.43-4.28,5.69-4.28s5.37,1.34,5.37,4.51v7.71h-4V88.2a3.91,3.91,0,0,1-3.53,1.66C54.63,89.86,52.75,88.82,52.75,86.29Zm7.46-.86V84.7H59.14c-1.64,0-2.37.32-2.37,1.29,0,.69.46,1.12,1.41,1.12C59.34,87.11,60.21,86.45,60.21,85.43Z" fill="#fff"/><path d="M66.24,77.69h4.07v1.77A4.21,4.21,0,0,1,74,77.37c2.77,0,5,2.09,5,6.17v.18c0,4.09-2.25,6.14-5.05,6.14a3.92,3.92,0,0,1-3.68-2v5.73H66.24Zm8.66,6v-.18c0-2.1-.91-3.1-2.34-3.1s-2.37,1.07-2.37,3.07v.19c0,2,.89,3,2.37,3S74.9,85.68,74.9,83.72Z" fill="#fff"/><path d="M80.52,77.69h4.07v1.77a4.23,4.23,0,0,1,3.71-2.09c2.78,0,5,2.09,5,6.17v.18c0,4.09-2.25,6.14-5,6.14a3.94,3.94,0,0,1-3.69-2v5.73H80.52Zm8.67,6v-.18c0-2.1-.91-3.1-2.34-3.1s-2.37,1.07-2.37,3.07v.19c0,2,.89,3,2.37,3S89.19,85.68,89.19,83.72Z" fill="#fff"/><path d="M94.17,83.79v-.18c0-3.83,2.85-6.24,6.53-6.24s6.49,2.35,6.49,6.12v.18c0,3.87-2.85,6.19-6.51,6.19S94.17,87.63,94.17,83.79Zm8.87-.07v-.18c0-2-.79-3.12-2.34-3.12s-2.36,1.07-2.36,3.07v.18c0,2,.79,3.17,2.36,3.17S103,85.7,103,83.72Z" fill="#fff"/><path d="M108.53,74.46a2.12,2.12,0,0,1,2.23-2.12A2.15,2.15,0,0,1,113,74.46a2.12,2.12,0,0,1-2.25,2.09A2.1,2.1,0,0,1,108.53,74.46Zm.2,3.23h4.07v11.9h-4.07Z" fill="#fff"/><path d="M115,77.69h4.07V79.6A4.2,4.2,0,0,1,123,77.37c2.3,0,3.89,1.44,3.89,4.48v7.74h-4.07V82.67c0-1.34-.52-2-1.7-2s-2,.73-2,2.25v6.67H115Z" fill="#fff"/><path d="M129.39,85.77v-5.3H128V77.69h1.43V75.21h4.07v2.48h2.34v2.78h-2.34v4.91a1.09,1.09,0,0,0,1.21,1.25,3.28,3.28,0,0,0,1.16-.2v3.09a8.49,8.49,0,0,1-2.26.34C130.89,89.86,129.39,88.57,129.39,85.77Z" fill="#fff"/><path d="M137.35,77.69h4.07v1.82a4.16,4.16,0,0,1,3.73-2.14,3.25,3.25,0,0,1,3.24,2,4.7,4.7,0,0,1,3.93-2c2.25,0,3.89,1.46,3.89,4.44v7.78h-4.07v-7.1c0-1.2-.59-1.8-1.52-1.8a1.77,1.77,0,0,0-1.83,2v6.89h-4v-7.1c0-1.2-.59-1.8-1.53-1.8a1.77,1.77,0,0,0-1.82,2v6.89h-4.07Z" fill="#fff"/><path d="M157.55,83.79v-.18A6.09,6.09,0,0,1,164,77.37c3.26,0,6,1.87,6,6.14v1.07h-8.37a2.37,2.37,0,0,0,2.48,2.48c1.34,0,1.91-.61,2.07-1.41H170c-.36,2.69-2.43,4.21-6,4.21S157.55,87.68,157.55,83.79Zm8.53-1.5c-.06-1.44-.77-2.23-2.09-2.23a2.25,2.25,0,0,0-2.27,2.23Z" fill="#fff"/><path d="M171.45,77.69h4.08V79.6a4.18,4.18,0,0,1,3.91-2.23c2.3,0,3.89,1.44,3.89,4.48v7.74h-4.07V82.67c0-1.34-.53-2-1.71-2s-2,.73-2,2.25v6.67h-4.08Z" fill="#fff"/><path d="M185.85,85.77v-5.3h-1.43V77.69h1.43V75.21h4.08v2.48h2.34v2.78h-2.34v4.91c0,.86.43,1.25,1.2,1.25a3.2,3.2,0,0,0,1.16-.2v3.09a8.34,8.34,0,0,1-2.25.34C187.36,89.86,185.85,88.57,185.85,85.77Z" fill="#fff"/><path d="M193.66,87.54a2.27,2.27,0,0,1,2.32-2.3,2.3,2.3,0,1,1,0,4.6A2.26,2.26,0,0,1,193.66,87.54Z" fill="#fff"/><path d="M204,89.25V85.77a5.58,5.58,0,0,0,2,.32c1.28,0,2.12-.57,2.12-2.26V73.32h4.68V83.88c0,3.91-2,5.91-5.82,5.91A6.28,6.28,0,0,1,204,89.25Z" fill="#fff"/><path d="M214.79,85.45V77.69h4.07v7.1c0,1.34.53,2,1.69,2s2-.73,2-2.25V77.69h4.07v11.9h-4.07V87.75a3.91,3.91,0,0,1-3.77,2.11C216.5,89.86,214.79,88.45,214.79,85.45Z" fill="#fff"/><path d="M227.92,85.81h3.75c.14.87.53,1.34,1.69,1.34,1,0,1.45-.38,1.45-1s-.57-.85-2.21-1.07c-3.18-.41-4.52-1.35-4.52-3.82,0-2.64,2.34-3.92,5.09-3.92,2.94,0,5,1,5.26,3.85h-3.69A1.33,1.33,0,0,0,233.22,80c-.89,0-1.34.39-1.34.94s.54.79,2,1c3.3.41,4.89,1.28,4.89,3.83,0,2.82-2.09,4.09-5.39,4.09S228,88.45,227.92,85.81Z" fill="#fff"/><path d="M240.63,85.77v-5.3H239.2V77.69h1.43V75.21h4.08v2.48h2.34v2.78h-2.34v4.91c0,.86.43,1.25,1.2,1.25a3.2,3.2,0,0,0,1.16-.2v3.09a8.34,8.34,0,0,1-2.25.34C242.14,89.86,240.63,88.57,240.63,85.77Z" fill="#fff"/><path d="M22,109.51v-.18c0-4,2.23-6.21,5-6.21a3.88,3.88,0,0,1,3.67,2V98.21h4.07v17.13H30.75v-1.93a4,4,0,0,1-3.71,2.2C24.29,115.61,22,113.63,22,109.51Zm8.83-.06v-.19c0-2-.84-3.07-2.34-3.07s-2.35,1-2.35,3.1v.18c0,2,.89,3,2.3,3S30.86,111.47,30.86,109.45Z" fill="#fff"/><path d="M36.89,103.44H41v2.37a3.75,3.75,0,0,1,3.85-2.53v3.8c-2.48-.07-3.85.71-3.85,2.62v5.64H36.89Z" fill="#fff"/><path d="M45.53,109.54v-.18c0-3.83,2.85-6.24,6.53-6.24s6.49,2.35,6.49,6.12v.18c0,3.87-2.85,6.19-6.51,6.19S45.53,113.38,45.53,109.54Zm8.88-.07v-.18c0-2-.8-3.12-2.35-3.12s-2.36,1.07-2.36,3.07v.18c0,2,.79,3.17,2.36,3.17S54.41,111.45,54.41,109.47Z" fill="#fff"/><path d="M60,103.44h4.07v1.77a4.21,4.21,0,0,1,3.71-2.09c2.78,0,5,2.09,5,6.17v.18c0,4.09-2.25,6.14-5.05,6.14a3.93,3.93,0,0,1-3.69-2v5.73H60Zm8.67,6v-.18c0-2.1-.91-3.1-2.35-3.1s-2.36,1.07-2.36,3.07v.19c0,2,.89,3,2.36,3S68.65,111.43,68.65,109.47Z" fill="#fff"/><path d="M77.77,109.54v-.18c0-3.83,2.84-6.24,6.53-6.24s6.48,2.35,6.48,6.12v.18c0,3.87-2.84,6.19-6.5,6.19S77.77,113.38,77.77,109.54Zm8.87-.07v-.18c0-2-.79-3.12-2.34-3.12s-2.37,1.07-2.37,3.07v.18c0,2,.8,3.17,2.37,3.17S86.64,111.45,86.64,109.47Z" fill="#fff"/><path d="M92.83,106.22h-1.5v-2.78h1.5v-.91c0-3,1.82-4.34,4.64-4.34a7.13,7.13,0,0,1,1.82.22v3a3.59,3.59,0,0,0-1.09-.16,1.19,1.19,0,0,0-1.32,1.3v.91h3.46v-1c0-3,1.86-4.36,4.66-4.36a7.17,7.17,0,0,1,1.87.25v3a3.8,3.8,0,0,0-1.12-.16,1.18,1.18,0,0,0-1.34,1.29v1h2.41v2.78h-2.41v9.12h-4.07v-9.12H96.88v9.12h-4Z" fill="#fff"/><path d="M116,114.13l-4.76-10.69h4.41l2.46,6.35,2.28-6.35h3.89L118,119.32h-3.89Z" fill="#fff"/><path d="M124.09,109.54v-.18c0-3.83,2.84-6.24,6.53-6.24s6.48,2.35,6.48,6.12v.18c0,3.87-2.84,6.19-6.5,6.19S124.09,113.38,124.09,109.54Zm8.87-.07v-.18c0-2-.79-3.12-2.34-3.12s-2.37,1.07-2.37,3.07v.18c0,2,.8,3.17,2.37,3.17S133,111.45,133,109.47Z" fill="#fff"/><path d="M138.44,111.2v-7.76h4.08v7.1c0,1.34.52,2,1.68,2s2-.73,2-2.25v-6.85h4.08v11.9h-4.08V113.5a3.9,3.9,0,0,1-3.77,2.11C140.15,115.61,138.44,114.2,138.44,111.2Z" fill="#fff"/><path d="M152.37,103.44h4.07v2.37a3.75,3.75,0,0,1,3.84-2.53v3.8c-2.48-.07-3.84.71-3.84,2.62v5.64h-4.07Z" fill="#fff"/><path d="M165.31,109.51v-.18c0-4,2.23-6.21,5.05-6.21a3.85,3.85,0,0,1,3.66,2V98.21h4.08v17.13H174v-1.93a4,4,0,0,1-3.7,2.2C167.56,115.61,165.31,113.63,165.31,109.51Zm8.83-.06v-.19c0-2-.84-3.07-2.35-3.07s-2.34,1-2.34,3.1v.18c0,2,.89,3,2.3,3S174.14,111.47,174.14,109.45Z" fill="#fff"/><path d="M179.53,109.54v-.18c0-3.83,2.84-6.24,6.53-6.24s6.48,2.35,6.48,6.12v.18c0,3.87-2.84,6.19-6.5,6.19S179.53,113.38,179.53,109.54Zm8.87-.07v-.18c0-2-.79-3.12-2.34-3.12s-2.37,1.07-2.37,3.07v.18c0,2,.8,3.17,2.37,3.17S188.4,111.45,188.4,109.47Z" fill="#fff"/><path d="M193.34,109.54v-.18a6,6,0,0,1,6.35-6.24c2.91,0,5.59,1.28,5.82,4.89h-3.82a1.76,1.76,0,0,0-1.91-1.73c-1.44,0-2.28,1-2.28,3v.18c0,2.07.8,3.14,2.34,3.14a2,2,0,0,0,2.08-2h3.66c-.12,3-2.14,5-6,5C196.05,115.61,193.34,113.54,193.34,109.54Z" fill="#fff"/><path d="M206.26,111.56H210c.14.87.53,1.34,1.69,1.34,1,0,1.45-.38,1.45-1s-.57-.85-2.2-1.07c-3.19-.41-4.53-1.35-4.53-3.82,0-2.64,2.34-3.92,5.1-3.92,2.93,0,5,1,5.25,3.85h-3.69a1.32,1.32,0,0,0-1.52-1.19c-.89,0-1.34.39-1.34.94s.54.79,2,1c3.3.41,4.89,1.28,4.89,3.83,0,2.82-2.09,4.09-5.39,4.09S206.35,114.2,206.26,111.56Z" fill="#fff"/><path d="M218.27,113.29a2.27,2.27,0,0,1,2.32-2.3,2.3,2.3,0,1,1,0,4.6A2.27,2.27,0,0,1,218.27,113.29Z" fill="#fff"/><rect width="300" height="250" fill="none"/></g></g></g></g></svg>