<svg xmlns="http://www.w3.org/2000/svg" viewBox="0 0 160 600"><title>Asset 17</title><g id="Layer_2" data-name="Layer 2"><g id="Rect"><rect width="160" height="600" fill="none"/></g><g id="It_s_Better_with_Block." data-name="It’s Better with Block."><path d="M22.88,127.5h8.18v28.24H22.88Z" fill="#fff"/><path d="M36.08,149.11V139.9H33.59v-4.82h2.49v-4.3h7.07v4.3h4.07v4.82H43.15v8.53c0,1.51.75,2.18,2.09,2.18a5.39,5.39,0,0,0,2-.36v5.37a14.73,14.73,0,0,1-3.91.6C38.68,156.22,36.08,154,36.08,149.11Z" fill="#fff"/><path d="M49.35,137.29,52.51,127l6.24,2.1-5.41,9.75Z" fill="#fff"/><path d="M56.38,149.19H62.9c.24,1.5.91,2.33,2.92,2.33,1.74,0,2.53-.68,2.53-1.7s-1-1.46-3.83-1.86c-5.53-.71-7.86-2.33-7.86-6.64,0-4.58,4.07-6.79,8.85-6.79,5.09,0,8.65,1.74,9.12,6.68h-6.4a2.31,2.31,0,0,0-2.65-2.06c-1.54,0-2.33.67-2.33,1.62s1,1.38,3.48,1.7c5.73.71,8.49,2.21,8.49,6.64,0,4.89-3.63,7.11-9.36,7.11S56.54,153.77,56.38,149.19Z" fill="#fff"/><path d="M22.73,172h12.6c6.67,0,9.52,3,9.52,7.38v.16a5.83,5.83,0,0,1-4.78,6.09c3.47.59,5.65,2.68,5.65,6.59v.16c0,5.06-3.28,7.86-10.27,7.86H22.73Zm11,11.22c2.53,0,3.47-.87,3.47-2.89v-.16c0-1.93-1-2.8-3.47-2.8H30.63v5.85ZM34,194.83c2.57,0,3.76-1.18,3.76-3.28v-.16c0-2.13-1.15-3.24-4-3.24H30.63v6.68Z" fill="#fff"/><path d="M47.33,190.17v-.32c0-6.63,4.94-10.82,11.18-10.82C64.16,179,69,182.27,69,189.7v1.85H54.48c.2,2.73,1.78,4.31,4.31,4.31,2.33,0,3.32-1.07,3.59-2.45H69c-.63,4.66-4.23,7.31-10.47,7.31C52.07,200.72,47.33,196.92,47.33,190.17Zm14.82-2.61c-.12-2.49-1.35-3.87-3.64-3.87-2.13,0-3.59,1.38-3.95,3.87Z" fill="#fff"/><path d="M72.42,193.61V184.4H69.93v-4.82h2.49v-4.3h7.07v4.3h4.07v4.82H79.49v8.53c0,1.51.75,2.18,2.09,2.18a5.39,5.39,0,0,0,2-.36v5.37a14.75,14.75,0,0,1-3.92.6C75,200.72,72.42,198.47,72.42,193.61Z" fill="#fff"/><path d="M87.19,193.61V184.4H84.7v-4.82h2.49v-4.3h7.07v4.3h4.07v4.82H94.26v8.53c0,1.51.75,2.18,2.09,2.18a5.35,5.35,0,0,0,2-.36v5.37a14.66,14.66,0,0,1-3.91.6C89.8,200.72,87.19,198.47,87.19,193.61Z" fill="#fff"/><path d="M99.91,190.17v-.32c0-6.63,4.93-10.82,11.18-10.82,5.65,0,10.5,3.24,10.5,10.67v1.85H107.06c.19,2.73,1.77,4.31,4.3,4.31,2.33,0,3.32-1.07,3.6-2.45h6.63c-.63,4.66-4.22,7.31-10.46,7.31C104.65,200.72,99.91,196.92,99.91,190.17Zm14.81-2.61c-.12-2.49-1.34-3.87-3.63-3.87s-3.6,1.38-4,3.87Z" fill="#fff"/><path d="M124,179.58h7.07v4.11a6.52,6.52,0,0,1,6.68-4.38v6.59c-4.31-.12-6.68,1.23-6.68,4.55v9.79H124Z" fill="#fff"/><path d="M20.36,224.08h7.38l3,12.37,3.47-12.37h5.69L43,236.45l3.36-12.37h6.72l-6.56,20.66H39.75l-3.08-11.53-3.2,11.53H26.6Z" fill="#fff"/><path d="M54.72,218.47a3.9,3.9,0,1,1,3.87,3.64A3.69,3.69,0,0,1,54.72,218.47Zm.36,5.61h7.07v20.66H55.08Z" fill="#fff"/><path d="M66.89,238.11V228.9H64.4v-4.82h2.49v-4.3H74v4.3H78v4.82H74v8.53c0,1.51.75,2.18,2.09,2.18a5.39,5.39,0,0,0,2-.36v5.37a14.73,14.73,0,0,1-3.91.6C69.49,245.22,66.89,243,66.89,238.11Z" fill="#fff"/><path d="M80.71,215h7.07v12.4a7.31,7.31,0,0,1,6.8-3.87c4,0,6.75,2.49,6.75,7.78v13.43H94.26v-12c0-2.33-.91-3.47-3-3.47s-3.52,1.26-3.52,3.91v11.57H80.71Z" fill="#fff"/><path d="M22.73,261h12.6c6.67,0,9.52,3,9.52,7.38v.16a5.83,5.83,0,0,1-4.78,6.09c3.47.59,5.65,2.68,5.65,6.59v.16c0,5.06-3.28,7.86-10.27,7.86H22.73Zm11,11.22c2.53,0,3.47-.87,3.47-2.89v-.16c0-1.93-1-2.8-3.47-2.8H30.63v5.85ZM34,283.83c2.57,0,3.76-1.18,3.76-3.28v-.16c0-2.13-1.15-3.24-4-3.24H30.63v6.68Z" fill="#fff"/><path d="M48.52,259.5h7v29.74h-7Z" fill="#fff"/><path d="M58.24,279.17v-.32c0-6.63,4.93-10.82,11.33-10.82s11.26,4.07,11.26,10.63V279c0,6.72-4.94,10.75-11.3,10.75S58.24,285.85,58.24,279.17Zm15.4-.12v-.32c0-3.47-1.38-5.41-4.07-5.41s-4.11,1.86-4.11,5.34V279c0,3.56,1.39,5.49,4.11,5.49S73.64,282.49,73.64,279.05Z" fill="#fff"/><path d="M82.21,279.17v-.32c0-6.87,4.94-10.82,11-10.82,5.06,0,9.72,2.21,10.12,8.49H96.71c-.32-1.93-1.26-3-3.32-3-2.49,0-4,1.78-4,5.25v.32c0,3.6,1.38,5.45,4.07,5.45a3.43,3.43,0,0,0,3.59-3.44h6.36c-.19,5.22-3.71,8.62-10.38,8.62C86.91,289.72,82.21,286.12,82.21,279.17Z" fill="#fff"/><path d="M105.75,259.5h7.07v17.26l5.57-8.18h7.35L119,277.87l7.31,11.37h-7.91l-5.57-9v9h-7.07Z" fill="#fff"/><path d="M127.68,285.69a3.94,3.94,0,0,1,4-4,4,4,0,1,1,0,8A3.94,3.94,0,0,1,127.68,285.69Z" fill="#fff"/></g></g></svg>