<svg xmlns="http://www.w3.org/2000/svg" viewBox="0 0 121 32"><title>cta_sml</title><g id="Layer_2" data-name="Layer 2"><g id="Encuentra_una_oficina" data-name="Encuentra una oficina"><path d="M7.08,12.17h5v1.35H8.81V15.3h2.61v1.27H8.81v1.91h3.43v1.35H7.08Z" fill="#262626"/><path d="M13.15,14.22h1.56v.89a1.93,1.93,0,0,1,1.82-1c1.1,0,1.88.67,1.88,2.17v3.57H16.86V16.48c0-.76-.3-1.12-1-1.12a1.11,1.11,0,0,0-1.16,1.23v3.24H13.15Z" fill="#262626"/><path d="M19.23,17.09V17a2.79,2.79,0,0,1,2.9-2.92,2.34,2.34,0,0,1,2.63,2.18H23.29a1,1,0,0,0-1.13-.95c-.81,0-1.34.6-1.34,1.67v.08c0,1.13.5,1.71,1.37,1.71a1.14,1.14,0,0,0,1.2-1.09h1.4a2.4,2.4,0,0,1-2.68,2.25A2.69,2.69,0,0,1,19.23,17.09Z" fill="#262626"/><path d="M25.56,17.83V14.22H27.1v3.4c0,.76.31,1.12,1,1.12a1.11,1.11,0,0,0,1.17-1.23V14.22h1.54v5.61H29.25V19a1.87,1.87,0,0,1-1.78,1C26.38,19.94,25.56,19.3,25.56,17.83Z" fill="#262626"/><path d="M31.65,17.09V17a2.79,2.79,0,0,1,2.89-2.92,2.59,2.59,0,0,1,2.73,2.85v.43h-4a1.35,1.35,0,0,0,1.39,1.47c.72,0,1.07-.31,1.17-.78h1.47c-.19,1.21-1.15,1.88-2.68,1.88A2.72,2.72,0,0,1,31.65,17.09Zm4.11-.67c-.06-.85-.49-1.25-1.22-1.25a1.29,1.29,0,0,0-1.29,1.25Z" fill="#262626"/><path d="M38.12,14.22h1.56v.89a1.93,1.93,0,0,1,1.82-1c1.1,0,1.88.67,1.88,2.17v3.57H41.83V16.48c0-.76-.3-1.12-1-1.12a1.11,1.11,0,0,0-1.16,1.23v3.24H38.12Z" fill="#262626"/><path d="M44.78,18.17V15.33h-.72V14.22h.72V13h1.54v1.21H47.5v1.11H46.32V18a.57.57,0,0,0,.63.66,1.41,1.41,0,0,0,.59-.11v1.2a2.76,2.76,0,0,1-.95.15A1.59,1.59,0,0,1,44.78,18.17Z" fill="#262626"/><path d="M48.42,14.22H50v1.07a1.83,1.83,0,0,1,1.81-1.15v1.44C50.64,15.57,50,16,50,17v2.81H48.42Z" fill="#262626"/><path d="M52.18,18.27c0-1.31,1.2-1.8,2.91-1.8h.64v-.22c0-.67-.21-1-.91-1a.85.85,0,0,0-1,.79H52.4c.09-1.33,1.14-1.92,2.51-1.92s2.35.56,2.35,2.08v3.66H55.75v-.68a1.91,1.91,0,0,1-1.69.79C53,19.94,52.18,19.45,52.18,18.27Zm3.55-.4v-.48h-.6c-.9,0-1.43.2-1.43.8,0,.4.25.67.82.67S55.73,18.49,55.73,17.87Z" fill="#262626"/><path d="M60.6,17.83V14.22h1.54v3.4c0,.76.31,1.12,1,1.12a1.11,1.11,0,0,0,1.17-1.23V14.22h1.54v5.61H64.28V19a1.87,1.87,0,0,1-1.78,1C61.41,19.94,60.6,19.3,60.6,17.83Z" fill="#262626"/><path d="M67,14.22h1.55v.89a2,2,0,0,1,1.83-1c1.1,0,1.88.67,1.88,2.17v3.57H70.74V16.48c0-.76-.3-1.12-1-1.12a1.11,1.11,0,0,0-1.17,1.23v3.24H67Z" fill="#262626"/><path d="M73.09,18.27c0-1.31,1.2-1.8,2.92-1.8h.63v-.22c0-.67-.21-1-.91-1a.85.85,0,0,0-1,.79H73.31c.09-1.33,1.14-1.92,2.51-1.92s2.35.56,2.35,2.08v3.66H76.66v-.68a1.89,1.89,0,0,1-1.69.79C74,19.94,73.09,19.45,73.09,18.27Zm3.55-.4v-.48H76c-.9,0-1.43.2-1.43.8,0,.4.25.67.82.67S76.64,18.49,76.64,17.87Z" fill="#262626"/><path d="M81.21,17.08V17a2.81,2.81,0,0,1,3-2.91A2.78,2.78,0,0,1,87.11,17v.09a3,3,0,0,1-5.9,0Zm4.33,0V17c0-1.07-.51-1.72-1.37-1.72s-1.38.62-1.38,1.69v.09c0,1.07.5,1.71,1.38,1.71S85.54,18.12,85.54,17.06Z" fill="#262626"/><path d="M88.24,15.33H87.5V14.22h.74v-.64a1.79,1.79,0,0,1,2-2,2.42,2.42,0,0,1,.8.11v1.16a1.79,1.79,0,0,0-.57-.09c-.49,0-.69.31-.69.74v.68H91v1.11H89.79v4.5H88.24Z" fill="#262626"/><path d="M91.72,12.62a.89.89,0,1,1,.88.84A.85.85,0,0,1,91.72,12.62Zm.12,1.6h1.54v5.61H91.84Z" fill="#262626"/><path d="M94.3,17.09V17a2.79,2.79,0,0,1,2.9-2.92,2.34,2.34,0,0,1,2.63,2.18H98.36a1,1,0,0,0-1.13-.95c-.8,0-1.34.6-1.34,1.67v.08c0,1.13.5,1.71,1.37,1.71a1.14,1.14,0,0,0,1.2-1.09h1.4a2.39,2.39,0,0,1-2.67,2.25A2.69,2.69,0,0,1,94.3,17.09Z" fill="#262626"/><path d="M100.6,12.62a.89.89,0,1,1,.88.84A.85.85,0,0,1,100.6,12.62Zm.12,1.6h1.54v5.61h-1.54Z" fill="#262626"/><path d="M103.52,14.22h1.56v.89a2,2,0,0,1,1.82-1c1.1,0,1.88.67,1.88,2.17v3.57h-1.55V16.48c0-.76-.3-1.12-1-1.12a1.11,1.11,0,0,0-1.16,1.23v3.24h-1.56Z" fill="#262626"/><path d="M109.58,18.27c0-1.31,1.2-1.8,2.92-1.8h.63v-.22c0-.67-.2-1-.91-1a.84.84,0,0,0-1,.79H109.8c.09-1.33,1.14-1.92,2.52-1.92s2.34.56,2.34,2.08v3.66h-1.51v-.68a1.89,1.89,0,0,1-1.69.79C110.44,19.94,109.58,19.45,109.58,18.27Zm3.55-.4v-.48h-.6c-.9,0-1.42.2-1.42.8,0,.4.24.67.81.67S113.13,18.49,113.13,17.87Z" fill="#262626"/><rect width="121" height="32" fill="none"/></g></g></svg>