<svg xmlns="http://www.w3.org/2000/svg" viewBox="0 0 728 90"><title>H125</title><g id="Layer_2" data-name="Layer 2"><g id="Rect"><rect width="728" height="90" fill="none"/></g><g id="H125"><g id="Encuentra_a_un_profesional_de_taxes_en_el_que_puedas_contar_cad" data-name="Encuentra a un profesional de taxes en el que puedas contar cad"><path d="M123.57,20.51h12.87v4.08h-7.55v3.18h6v3.77h-6V34.9h8V39H123.57Z" fill="#fff"/><path d="M138.71,25.47h4.66v2.17a4.8,4.8,0,0,1,4.48-2.53c2.63,0,4.45,1.62,4.45,5.08V39h-4.66V31.12c0-1.52-.6-2.27-1.95-2.27s-2.32.83-2.32,2.56V39h-4.66Z" fill="#fff"/><path d="M153.84,32.39v-.21c0-4.49,3.26-7.07,7.27-7.07,3.33,0,6.41,1.44,6.67,5.55H163.4a2,2,0,0,0-2.19-2c-1.64,0-2.6,1.16-2.6,3.43v.21c0,2.35.91,3.56,2.68,3.56a2.25,2.25,0,0,0,2.37-2.24h4.2c-.13,3.41-2.45,5.63-6.85,5.63C156.94,39.29,153.84,36.94,153.84,32.39Z" fill="#fff"/><path d="M169.27,34.28V25.47h4.66v8.06c0,1.52.6,2.27,1.93,2.27s2.31-.83,2.31-2.56V25.47h4.67V39h-4.67V36.89a4.48,4.48,0,0,1-4.32,2.4C171.22,39.29,169.27,37.69,169.27,34.28Z" fill="#fff"/><path d="M184.48,32.39v-.21c0-4.34,3.26-7.07,7.37-7.07,3.73,0,6.93,2.11,6.93,7v1.21h-9.59A2.71,2.71,0,0,0,192,36.11c1.54,0,2.19-.7,2.37-1.6h4.38c-.42,3.05-2.79,4.78-6.9,4.78C187.61,39.29,184.48,36.81,184.48,32.39Zm9.77-1.7c-.08-1.63-.89-2.54-2.4-2.54a2.58,2.58,0,0,0-2.6,2.54Z" fill="#fff"/><path d="M200.4,25.47h4.66v2.17a4.8,4.8,0,0,1,4.48-2.53c2.63,0,4.45,1.62,4.45,5.08V39h-4.66V31.12c0-1.52-.6-2.27-2-2.27s-2.32.83-2.32,2.56V39H200.4Z" fill="#fff"/><path d="M216.89,34.64v-6h-1.64V25.47h1.64V22.65h4.66v2.82h2.68v3.15h-2.68V34.2a1.24,1.24,0,0,0,1.38,1.42,3.71,3.71,0,0,0,1.33-.23V38.9a9.68,9.68,0,0,1-2.58.39C218.61,39.29,216.89,37.82,216.89,34.64Z" fill="#fff"/><path d="M226,25.47h4.67v2.68a4.29,4.29,0,0,1,4.4-2.86V29.6c-2.84-.08-4.4.8-4.4,3V39H226Z" fill="#fff"/><path d="M235.67,35.23c0-3.18,2.71-4.42,7.24-4.42h1.3V30.5c0-1.29-.31-2.14-1.79-2.14a1.66,1.66,0,0,0-1.85,1.6h-4.38c.21-3.25,2.79-4.85,6.51-4.85s6.15,1.52,6.15,5.11V39h-4.53V37.4a4.49,4.49,0,0,1-4,1.89C237.83,39.29,235.67,38.1,235.67,35.23Zm8.54-1v-.83H243c-1.88,0-2.71.37-2.71,1.48,0,.77.52,1.26,1.62,1.26C243.22,36.16,244.21,35.41,244.21,34.25Z" fill="#fff"/><path d="M255.08,35.23c0-3.18,2.71-4.42,7.24-4.42h1.3V30.5c0-1.29-.31-2.14-1.8-2.14A1.66,1.66,0,0,0,260,30H255.6c.21-3.25,2.79-4.85,6.51-4.85s6.15,1.52,6.15,5.11V39h-4.53V37.4a4.5,4.5,0,0,1-4,1.89C257.24,39.29,255.08,38.1,255.08,35.23Zm8.54-1v-.83H262.4c-1.88,0-2.71.37-2.71,1.48,0,.77.52,1.26,1.61,1.26C262.63,36.16,263.62,35.41,263.62,34.25Z" fill="#fff"/><path d="M275.16,34.28V25.47h4.67v8.06c0,1.52.59,2.27,1.92,2.27s2.32-.83,2.32-2.56V25.47h4.66V39h-4.66V36.89a4.49,4.49,0,0,1-4.32,2.4C277.12,39.29,275.16,37.69,275.16,34.28Z" fill="#fff"/><path d="M291.11,25.47h4.66v2.17a4.8,4.8,0,0,1,4.48-2.53c2.63,0,4.45,1.62,4.45,5.08V39H300V31.12c0-1.52-.6-2.27-2-2.27s-2.32.83-2.32,2.56V39h-4.66Z" fill="#fff"/><path d="M311.71,25.47h4.66v2a4.83,4.83,0,0,1,4.25-2.37c3.18,0,5.76,2.37,5.76,7v.2c0,4.65-2.58,7-5.79,7a4.52,4.52,0,0,1-4.22-2.3V43.5h-4.66Zm9.93,6.84v-.2c0-2.38-1.05-3.52-2.69-3.52s-2.71,1.22-2.71,3.49v.21c0,2.3,1,3.46,2.71,3.46S321.64,34.53,321.64,32.31Z" fill="#fff"/><path d="M328.07,25.47h4.66v2.68a4.3,4.3,0,0,1,4.41-2.86V29.6c-2.84-.08-4.41.8-4.41,3V39h-4.66Z" fill="#fff"/><path d="M338,32.39v-.21c0-4.34,3.26-7.07,7.48-7.07s7.42,2.66,7.42,6.94v.21c0,4.39-3.25,7-7.45,7S338,36.76,338,32.39Zm10.16-.08v-.2c0-2.28-.91-3.54-2.68-3.54s-2.71,1.21-2.71,3.48v.21c0,2.33.91,3.59,2.71,3.59S348.13,34.56,348.13,32.31Z" fill="#fff"/><path d="M355.22,28.62H353.5V25.47h1.72V24.28c0-3.36,2.11-5,5.34-5a8.53,8.53,0,0,1,2.13.28V23a4,4,0,0,0-1.27-.18,1.36,1.36,0,0,0-1.57,1.47v1.19h2.77v3.15h-2.77V39h-4.63Z" fill="#fff"/><path d="M363,32.39v-.21c0-4.34,3.26-7.07,7.37-7.07,3.73,0,6.93,2.11,6.93,7v1.21H367.7a2.71,2.71,0,0,0,2.84,2.82c1.53,0,2.18-.7,2.37-1.6h4.37c-.42,3.05-2.79,4.78-6.9,4.78C366.11,39.29,363,36.81,363,32.39Zm9.77-1.7c-.08-1.63-.89-2.54-2.4-2.54a2.59,2.59,0,0,0-2.6,2.54Z" fill="#fff"/><path d="M378.12,34.69h4.29c.16,1,.6,1.52,1.93,1.52,1.15,0,1.67-.44,1.67-1.11s-.65-1-2.53-1.21c-3.65-.47-5.18-1.53-5.18-4.34,0-3,2.68-4.44,5.83-4.44,3.36,0,5.71,1.13,6,4.36h-4.22a1.52,1.52,0,0,0-1.74-1.34c-1,0-1.54.44-1.54,1.06s.62.9,2.29,1.11c3.78.46,5.6,1.44,5.6,4.34,0,3.2-2.4,4.65-6.17,4.65S378.22,37.69,378.12,34.69Z" fill="#fff"/><path d="M392,21.8a2.42,2.42,0,0,1,2.55-2.4,2.4,2.4,0,1,1,0,4.78A2.4,2.4,0,0,1,392,21.8Zm.23,3.67h4.67V39h-4.67Z" fill="#fff"/><path d="M398.62,32.39v-.21c0-4.34,3.26-7.07,7.48-7.07s7.42,2.66,7.42,6.94v.21c0,4.39-3.26,7-7.45,7S398.62,36.76,398.62,32.39Zm10.16-.08v-.2c0-2.28-.91-3.54-2.68-3.54s-2.71,1.21-2.71,3.48v.21c0,2.33.91,3.59,2.71,3.59S408.78,34.56,408.78,32.31Z" fill="#fff"/><path d="M415.16,25.47h4.67v2.17a4.79,4.79,0,0,1,4.47-2.53c2.64,0,4.46,1.62,4.46,5.08V39H424.1V31.12c0-1.52-.6-2.27-2-2.27s-2.31.83-2.31,2.56V39h-4.67Z" fill="#fff"/><path d="M430.25,35.23c0-3.18,2.7-4.42,7.24-4.42h1.3V30.5c0-1.29-.31-2.14-1.8-2.14a1.68,1.68,0,0,0-1.85,1.6h-4.37c.2-3.25,2.78-4.85,6.51-4.85s6.14,1.52,6.14,5.11V39h-4.53V37.4a4.49,4.49,0,0,1-4,1.89C432.41,39.29,430.25,38.1,430.25,35.23Zm8.54-1v-.83h-1.23c-1.87,0-2.7.37-2.7,1.48,0,.77.52,1.26,1.61,1.26C437.8,36.16,438.79,35.41,438.79,34.25Z" fill="#fff"/><path d="M445.82,19.53h4.64V39h-4.64Z" fill="#fff"/><path d="M457,32.36v-.2c0-4.6,2.55-7,5.78-7A4.42,4.42,0,0,1,467,27.38V19.53h4.67V39H467v-2.2a4.58,4.58,0,0,1-4.24,2.51C459.61,39.29,457,37,457,32.36Zm10.1-.07v-.21c0-2.27-1-3.49-2.68-3.49s-2.68,1.17-2.68,3.52v.2c0,2.28,1,3.44,2.63,3.44S467.13,34.59,467.13,32.29Z" fill="#fff"/><path d="M473.31,32.39v-.21c0-4.34,3.25-7.07,7.37-7.07,3.72,0,6.93,2.11,6.93,7v1.21H478a2.71,2.71,0,0,0,2.84,2.82c1.54,0,2.19-.7,2.37-1.6h4.38c-.42,3.05-2.79,4.78-6.9,4.78C476.43,39.29,473.31,36.81,473.31,32.39Zm9.77-1.7c-.08-1.63-.89-2.54-2.4-2.54a2.58,2.58,0,0,0-2.6,2.54Z" fill="#fff"/><path d="M494.59,34.64v-6H493V25.47h1.64V22.65h4.66v2.82h2.69v3.15h-2.69V34.2a1.24,1.24,0,0,0,1.38,1.42,3.63,3.63,0,0,0,1.33-.23V38.9a9.61,9.61,0,0,1-2.58.39C496.31,39.29,494.59,37.82,494.59,34.64Z" fill="#fff"/><path d="M503,35.23c0-3.18,2.71-4.42,7.24-4.42h1.3V30.5c0-1.29-.31-2.14-1.79-2.14a1.66,1.66,0,0,0-1.85,1.6H503.5c.21-3.25,2.79-4.85,6.51-4.85s6.15,1.52,6.15,5.11V39h-4.53V37.4a4.49,4.49,0,0,1-4,1.89C505.14,39.29,503,38.1,503,35.23Zm8.54-1v-.83H510.3c-1.88,0-2.71.37-2.71,1.48,0,.77.52,1.26,1.62,1.26C510.53,36.16,511.52,35.41,511.52,34.25Z" fill="#fff"/><path d="M521.87,32.11l-4.25-6.64H523L525.1,29l2-3.56H532l-4.3,6.27L532.36,39H527l-2.42-4-2.48,4h-4.77Z" fill="#fff"/><path d="M531.77,32.39v-.21c0-4.34,3.25-7.07,7.37-7.07,3.72,0,6.93,2.11,6.93,7v1.21h-9.59a2.71,2.71,0,0,0,2.84,2.82c1.54,0,2.19-.7,2.37-1.6h4.38c-.42,3.05-2.79,4.78-6.9,4.78C534.89,39.29,531.77,36.81,531.77,32.39Zm9.77-1.7c-.08-1.63-.89-2.54-2.4-2.54a2.59,2.59,0,0,0-2.61,2.54Z" fill="#fff"/><path d="M546.9,34.69h4.3c.16,1,.6,1.52,1.93,1.52,1.14,0,1.67-.44,1.67-1.11s-.66-1-2.53-1.21c-3.65-.47-5.18-1.53-5.18-4.34,0-3,2.68-4.44,5.83-4.44,3.36,0,5.7,1.13,6,4.36h-4.22A1.52,1.52,0,0,0,553,28.13c-1,0-1.53.44-1.53,1.06s.62.9,2.29,1.11c3.77.46,5.6,1.44,5.6,4.34,0,3.2-2.4,4.65-6.18,4.65S547,37.69,546.9,34.69Z" fill="#fff"/><path d="M122.43,61v-.21c0-4.34,3.25-7.08,7.37-7.08,3.72,0,6.93,2.12,6.93,7v1.21h-9.59A2.71,2.71,0,0,0,130,64.74c1.54,0,2.19-.7,2.37-1.61h4.38c-.42,3.05-2.79,4.78-6.91,4.78S122.43,65.43,122.43,61Zm9.76-1.71c-.08-1.63-.88-2.53-2.39-2.53a2.59,2.59,0,0,0-2.61,2.53Z" fill="#fff"/><path d="M138.34,54.09H143v2.17a4.81,4.81,0,0,1,4.48-2.53c2.63,0,4.45,1.63,4.45,5.09V67.6h-4.66V59.75c0-1.52-.6-2.27-2-2.27S143,58.3,143,60V67.6h-4.67Z" fill="#fff"/><path d="M158.22,61v-.21c0-4.34,3.26-7.08,7.37-7.08,3.73,0,6.93,2.12,6.93,7v1.21h-9.59a2.72,2.72,0,0,0,2.84,2.82c1.54,0,2.19-.7,2.37-1.61h4.38c-.42,3.05-2.79,4.78-6.9,4.78C161.35,67.91,158.22,65.43,158.22,61ZM168,59.31c-.08-1.63-.89-2.53-2.4-2.53a2.57,2.57,0,0,0-2.6,2.53Z" fill="#fff"/><path d="M174.27,48.15h4.63V67.6h-4.63Z" fill="#fff"/><path d="M195.44,65.51a4.69,4.69,0,0,1-4.24,2.4c-3.15,0-5.73-2.24-5.73-6.92v-.21c0-4.59,2.55-7.05,5.78-7.05A4.43,4.43,0,0,1,195.44,56V54.09h4.67v18h-4.67Zm.13-4.6v-.2c0-2.28-1-3.49-2.68-3.49s-2.68,1.16-2.68,3.51v.21c0,2.27,1,3.43,2.63,3.43S195.57,63.21,195.57,60.91Z" fill="#fff"/><path d="M202.38,62.9V54.09H207v8.06c0,1.53.6,2.28,1.93,2.28s2.31-.83,2.31-2.56V54.09H216V67.6h-4.67V65.51a4.46,4.46,0,0,1-4.32,2.4C204.33,67.91,202.38,66.31,202.38,62.9Z" fill="#fff"/><path d="M217.59,61v-.21c0-4.34,3.26-7.08,7.37-7.08,3.73,0,6.93,2.12,6.93,7v1.21H222.3a2.72,2.72,0,0,0,2.84,2.82c1.54,0,2.19-.7,2.37-1.61h4.38c-.42,3.05-2.79,4.78-6.9,4.78C220.72,67.91,217.59,65.43,217.59,61Zm9.77-1.71c-.08-1.63-.89-2.53-2.4-2.53a2.57,2.57,0,0,0-2.6,2.53Z" fill="#fff"/><path d="M238.25,54.09h4.66v2a4.82,4.82,0,0,1,4.25-2.38c3.17,0,5.75,2.38,5.75,7v.21c0,4.65-2.58,7-5.78,7a4.49,4.49,0,0,1-4.22-2.3v6.51h-4.66Zm9.92,6.85v-.21c0-2.37-1-3.51-2.68-3.51s-2.71,1.21-2.71,3.49v.2c0,2.3,1,3.46,2.71,3.46S248.17,63.16,248.17,60.94Z" fill="#fff"/><path d="M254.5,62.9V54.09h4.67v8.06c0,1.53.6,2.28,1.92,2.28s2.32-.83,2.32-2.56V54.09h4.66V67.6h-4.66V65.51a4.47,4.47,0,0,1-4.32,2.4C256.46,67.91,254.5,66.31,254.5,62.9Z" fill="#fff"/><path d="M269.72,61v-.21c0-4.34,3.25-7.08,7.37-7.08,3.72,0,6.93,2.12,6.93,7v1.21h-9.59a2.71,2.71,0,0,0,2.84,2.82c1.54,0,2.19-.7,2.37-1.61H284c-.42,3.05-2.79,4.78-6.91,4.78C272.84,67.91,269.72,65.43,269.72,61Zm9.77-1.71c-.08-1.63-.89-2.53-2.4-2.53a2.59,2.59,0,0,0-2.61,2.53Z" fill="#fff"/><path d="M285,61v-.21c0-4.59,2.55-7.05,5.78-7.05A4.43,4.43,0,0,1,294.93,56V48.15h4.67V67.6h-4.67V65.41a4.58,4.58,0,0,1-4.24,2.5C287.54,67.91,285,65.67,285,61Zm10.1-.08v-.2c0-2.28-1-3.49-2.68-3.49s-2.68,1.16-2.68,3.51v.21c0,2.27,1,3.43,2.63,3.43S295.06,63.21,295.06,60.91Z" fill="#fff"/><path d="M301.19,63.86c0-3.18,2.71-4.42,7.24-4.42h1.3v-.31c0-1.29-.31-2.14-1.8-2.14a1.68,1.68,0,0,0-1.85,1.6h-4.37c.21-3.26,2.79-4.86,6.51-4.86s6.15,1.52,6.15,5.12V67.6h-4.53V66a4.5,4.5,0,0,1-4,1.88C303.35,67.91,301.19,66.73,301.19,63.86Zm8.54-1v-.83h-1.22c-1.88,0-2.71.36-2.71,1.47,0,.78.52,1.27,1.61,1.27C308.74,64.79,309.73,64,309.73,62.88Z" fill="#fff"/><path d="M315.72,63.32H320c.16,1,.6,1.52,1.93,1.52,1.15,0,1.67-.44,1.67-1.11s-.65-1-2.53-1.22c-3.65-.46-5.18-1.52-5.18-4.34,0-3,2.68-4.44,5.83-4.44,3.36,0,5.71,1.14,6,4.37h-4.22a1.52,1.52,0,0,0-1.75-1.35c-1,0-1.53.44-1.53,1.06s.62.91,2.29,1.11c3.78.47,5.6,1.45,5.6,4.34,0,3.21-2.4,4.65-6.17,4.65S315.83,66.31,315.72,63.32Z" fill="#fff"/><path d="M333.67,61v-.21c0-4.5,3.26-7.08,7.27-7.08,3.33,0,6.41,1.45,6.67,5.56h-4.38a2,2,0,0,0-2.19-2c-1.64,0-2.6,1.16-2.6,3.44V61c0,2.36.91,3.57,2.68,3.57a2.26,2.26,0,0,0,2.37-2.25h4.2c-.13,3.41-2.45,5.63-6.85,5.63C336.77,67.91,333.67,65.56,333.67,61Z" fill="#fff"/><path d="M348.47,61v-.21c0-4.34,3.26-7.08,7.48-7.08s7.42,2.66,7.42,7v.21c0,4.39-3.26,7-7.45,7S348.47,65.38,348.47,61Zm10.16-.08v-.21c0-2.27-.91-3.54-2.68-3.54s-2.71,1.22-2.71,3.49v.21c0,2.32.91,3.59,2.71,3.59S358.63,63.19,358.63,60.94Z" fill="#fff"/><path d="M365,54.09h4.67v2.17a4.82,4.82,0,0,1,4.48-2.53c2.63,0,4.45,1.63,4.45,5.09V67.6H374V59.75c0-1.52-.6-2.27-2-2.27s-2.31.82-2.31,2.55V67.6H365Z" fill="#fff"/><path d="M381.5,63.26v-6h-1.64V54.09h1.64V51.28h4.67v2.81h2.68v3.15h-2.68v5.58c0,1,.49,1.43,1.38,1.43a3.5,3.5,0,0,0,1.33-.24v3.52a10.17,10.17,0,0,1-2.58.38C383.22,67.91,381.5,66.44,381.5,63.26Z" fill="#fff"/><path d="M389.89,63.86c0-3.18,2.71-4.42,7.24-4.42h1.31v-.31c0-1.29-.32-2.14-1.8-2.14a1.66,1.66,0,0,0-1.85,1.6h-4.38c.21-3.26,2.79-4.86,6.51-4.86s6.15,1.52,6.15,5.12V67.6h-4.53V66a4.49,4.49,0,0,1-4,1.88C392.05,67.91,389.89,66.73,389.89,63.86Zm8.55-1v-.83h-1.23c-1.87,0-2.71.36-2.71,1.47,0,.78.52,1.27,1.62,1.27C397.45,64.79,398.44,64,398.44,62.88Z" fill="#fff"/><path d="M405.34,54.09H410v2.69a4.29,4.29,0,0,1,4.4-2.87v4.32c-2.83-.08-4.4.8-4.4,3v6.4h-4.66Z" fill="#fff"/><path d="M420.11,61v-.21c0-4.5,3.26-7.08,7.27-7.08,3.33,0,6.41,1.45,6.66,5.56h-4.37a2,2,0,0,0-2.19-2c-1.64,0-2.6,1.16-2.6,3.44V61c0,2.36.91,3.57,2.68,3.57a2.27,2.27,0,0,0,2.37-2.25h4.19c-.13,3.41-2.45,5.63-6.85,5.63C423.21,67.91,420.11,65.56,420.11,61Z" fill="#fff"/><path d="M434.93,63.86c0-3.18,2.71-4.42,7.24-4.42h1.31v-.31c0-1.29-.32-2.14-1.8-2.14a1.66,1.66,0,0,0-1.85,1.6h-4.38c.21-3.26,2.79-4.86,6.52-4.86s6.14,1.52,6.14,5.12V67.6h-4.53V66a4.49,4.49,0,0,1-4,1.88C437.09,67.91,434.93,66.73,434.93,63.86Zm8.55-1v-.83h-1.23c-1.87,0-2.71.36-2.71,1.47,0,.78.52,1.27,1.62,1.27C442.49,64.79,443.48,64,443.48,62.88Z" fill="#fff"/><path d="M449.7,61v-.21c0-4.59,2.56-7.05,5.79-7.05A4.44,4.44,0,0,1,459.68,56V48.15h4.66V67.6h-4.66V65.41a4.61,4.61,0,0,1-4.25,2.5C452.28,67.91,449.7,65.67,449.7,61Zm10.11-.08v-.2c0-2.28-1-3.49-2.68-3.49s-2.69,1.16-2.69,3.51v.21c0,2.27,1,3.43,2.64,3.43S459.81,63.21,459.81,60.91Z" fill="#fff"/><path d="M465.93,63.86c0-3.18,2.71-4.42,7.24-4.42h1.31v-.31c0-1.29-.31-2.14-1.8-2.14a1.66,1.66,0,0,0-1.85,1.6h-4.37c.2-3.26,2.78-4.86,6.51-4.86s6.14,1.52,6.14,5.12V67.6h-4.53V66a4.49,4.49,0,0,1-4,1.88C468.1,67.91,465.93,66.73,465.93,63.86Zm8.55-1v-.83h-1.23c-1.87,0-2.71.36-2.71,1.47,0,.78.53,1.27,1.62,1.27C473.49,64.79,474.48,64,474.48,62.88Z" fill="#fff"/><path d="M485.34,63.86c0-3.18,2.71-4.42,7.24-4.42h1.31v-.31c0-1.29-.32-2.14-1.8-2.14a1.66,1.66,0,0,0-1.85,1.6h-4.38c.21-3.26,2.79-4.86,6.52-4.86s6.14,1.52,6.14,5.12V67.6H494V66a4.49,4.49,0,0,1-4,1.88C487.5,67.91,485.34,66.73,485.34,63.86Zm8.55-1v-.83h-1.23c-1.87,0-2.71.36-2.71,1.47,0,.78.52,1.27,1.62,1.27C492.9,64.79,493.89,64,493.89,62.88Z" fill="#fff"/><path d="M500.79,54.09h4.66v2.17a4.83,4.83,0,0,1,4.48-2.53c2.63,0,4.46,1.63,4.46,5.09V67.6h-4.67V59.75c0-1.52-.6-2.27-2-2.27s-2.32.82-2.32,2.55V67.6h-4.66Zm5.39-2.5a.86.86,0,0,0-.81.82h-2.52c.18-2.71,1.38-4,3-4,1.41,0,2.24.88,3.1.88.47,0,.73-.33.84-.82h2.52c-.21,2.68-1.51,4-3.07,4S507,51.59,506.18,51.59Z" fill="#fff"/><path d="M515.93,61v-.21c0-4.34,3.25-7.08,7.47-7.08s7.42,2.66,7.42,7v.21c0,4.39-3.25,7-7.44,7S515.93,65.38,515.93,61Zm10.15-.08v-.21c0-2.27-.91-3.54-2.68-3.54s-2.71,1.22-2.71,3.49v.21c0,2.32.91,3.59,2.71,3.59S526.08,63.19,526.08,60.94Z" fill="#fff"/><path d="M531.71,65.28a2.59,2.59,0,0,1,2.66-2.61,2.61,2.61,0,1,1,0,5.22A2.59,2.59,0,0,1,531.71,65.28Z" fill="#fff"/></g></g></g></svg>