<svg xmlns="http://www.w3.org/2000/svg" viewBox="0 0 728 90"><title>Asset 3</title><g id="Layer_2" data-name="Layer 2"><g id="Rect"><rect width="728" height="90" fill="none"/></g><g id="Expert_tax_prep_available_through_July_15." data-name="Expert tax prep available through July 15."><path d="M118.2,15.1H134v5h-9.26v3.93h7.38v4.66h-7.38v4.15h9.77v5H118.2Z" fill="#fff"/><path d="M141,29.44l-5.2-8.21h6.58L145,25.64l2.52-4.41h5.87L148.12,29l5.79,8.94h-6.58l-3-5-3,5h-5.84Z" fill="#fff"/><path d="M155.5,21.23h5.71v2.49a5.9,5.9,0,0,1,5.21-2.94c3.9,0,7.06,2.94,7.06,8.66v.25c0,5.75-3.16,8.62-7.09,8.62a5.53,5.53,0,0,1-5.18-2.84v8.05H155.5Zm12.17,8.46v-.25c0-2.94-1.28-4.35-3.29-4.35s-3.32,1.5-3.32,4.31v.26c0,2.84,1.24,4.28,3.32,4.28S167.67,32.44,167.67,29.69Z" fill="#fff"/><path d="M174.66,29.79v-.26c0-5.36,4-8.75,9-8.75,4.57,0,8.5,2.62,8.5,8.62v1.5H180.44c.16,2.21,1.43,3.49,3.48,3.49,1.88,0,2.68-.87,2.9-2h5.37c-.51,3.76-3.42,5.9-8.46,5.9C178.49,38.31,174.66,35.25,174.66,29.79Zm12-2.11c-.09-2-1.08-3.13-2.94-3.13s-2.9,1.12-3.19,3.13Z" fill="#fff"/><path d="M194.17,21.23h5.71v3.32a5.28,5.28,0,0,1,5.4-3.55v5.34c-3.48-.1-5.4,1-5.4,3.67v7.92h-5.71Z" fill="#fff"/><path d="M208.37,32.57V25.12h-2V21.23h2V17.75h5.72v3.48h3.29v3.89h-3.29V32c0,1.22.61,1.76,1.69,1.76a4.39,4.39,0,0,0,1.63-.29v4.34a11.61,11.61,0,0,1-3.16.48C210.48,38.31,208.37,36.49,208.37,32.57Z" fill="#fff"/><path d="M226.13,32.57V25.12h-2V21.23h2V17.75h5.71v3.48h3.29v3.89h-3.29V32a1.53,1.53,0,0,0,1.7,1.76,4.42,4.42,0,0,0,1.63-.29v4.34a11.7,11.7,0,0,1-3.17.48C228.24,38.31,226.13,36.49,226.13,32.57Z" fill="#fff"/><path d="M236.41,33.3c0-3.93,3.32-5.46,8.88-5.46h1.59v-.38c0-1.6-.38-2.66-2.2-2.66a2.06,2.06,0,0,0-2.27,2h-5.36c.25-4,3.41-6,8-6s7.54,1.89,7.54,6.32V37.93H247V36a5.48,5.48,0,0,1-4.95,2.33C239.06,38.31,236.41,36.84,236.41,33.3Zm10.47-1.21v-1h-1.5c-2.3,0-3.32.45-3.32,1.82,0,1,.64,1.57,2,1.57C245.67,34.45,246.88,33.52,246.88,32.09Z" fill="#fff"/><path d="M259.56,29.44l-5.21-8.21h6.58l2.59,4.41L266,21.23h5.88L266.65,29l5.78,8.94h-6.58l-3-5-3,5H254Z" fill="#fff"/><path d="M279.83,21.23h5.72v2.49a5.89,5.89,0,0,1,5.21-2.94c3.89,0,7.05,2.94,7.05,8.66v.25c0,5.75-3.16,8.62-7.09,8.62a5.51,5.51,0,0,1-5.17-2.84v8.05h-5.72ZM292,29.69v-.25c0-2.94-1.28-4.35-3.29-4.35s-3.32,1.5-3.32,4.31v.26c0,2.84,1.25,4.28,3.32,4.28S292,32.44,292,29.69Z" fill="#fff"/><path d="M299.89,21.23h5.71v3.32A5.28,5.28,0,0,1,311,21v5.34c-3.48-.1-5.4,1-5.4,3.67v7.92h-5.71Z" fill="#fff"/><path d="M312,29.79v-.26c0-5.36,4-8.75,9-8.75,4.56,0,8.49,2.62,8.49,8.62v1.5H317.8c.16,2.21,1.44,3.49,3.48,3.49,1.88,0,2.68-.87,2.91-2h5.36c-.51,3.76-3.42,5.9-8.46,5.9C315.85,38.31,312,35.25,312,29.79Zm12-2.11c-.1-2-1.09-3.13-2.94-3.13s-2.91,1.12-3.2,3.13Z" fill="#fff"/><path d="M331.53,21.23h5.71v2.49a5.9,5.9,0,0,1,5.21-2.94c3.9,0,7.06,2.94,7.06,8.66v.25c0,5.75-3.16,8.62-7.09,8.62a5.53,5.53,0,0,1-5.18-2.84v8.05h-5.71Zm12.17,8.46v-.25c0-2.94-1.28-4.35-3.29-4.35s-3.33,1.5-3.33,4.31v.26c0,2.84,1.25,4.28,3.33,4.28S343.7,32.44,343.7,29.69Z" fill="#fff"/><path d="M356.43,33.3c0-3.93,3.32-5.46,8.88-5.46h1.6v-.38c0-1.6-.38-2.66-2.2-2.66a2,2,0,0,0-2.27,2h-5.37c.26-4,3.42-6,8-6s7.53,1.89,7.53,6.32V37.93H367V36a5.48,5.48,0,0,1-5,2.33C359.08,38.31,356.43,36.84,356.43,33.3Zm10.48-1.21v-1h-1.5c-2.3,0-3.32.45-3.32,1.82,0,1,.63,1.57,2,1.57C365.7,34.45,366.91,33.52,366.91,32.09Z" fill="#fff"/><path d="M373.45,21.23h6.1L383,32l3.42-10.76h5.46l-6.1,16.7h-6.23Z" fill="#fff"/><path d="M391.68,33.3c0-3.93,3.33-5.46,8.88-5.46h1.6v-.38c0-1.6-.38-2.66-2.2-2.66a2.05,2.05,0,0,0-2.27,2h-5.37c.26-4,3.42-6,8-6s7.53,1.89,7.53,6.32V37.93h-5.55V36a5.48,5.48,0,0,1-5,2.33C394.34,38.31,391.68,36.84,391.68,33.3Zm10.48-1.21v-1h-1.5c-2.3,0-3.32.45-3.32,1.82,0,1,.64,1.57,2,1.57C401,34.45,402.16,33.52,402.16,32.09Z" fill="#fff"/><path d="M410.49,16.69a3.15,3.15,0,1,1,3.13,2.94A3,3,0,0,1,410.49,16.69Zm.29,4.54h5.72v16.7h-5.72Z" fill="#fff"/><path d="M419.72,13.88h5.68v24h-5.68Z" fill="#fff"/><path d="M427.51,33.3c0-3.93,3.32-5.46,8.88-5.46H438v-.38c0-1.6-.39-2.66-2.21-2.66a2.06,2.06,0,0,0-2.27,2h-5.36c.25-4,3.42-6,8-6s7.54,1.89,7.54,6.32V37.93h-5.56V36a5.46,5.46,0,0,1-4.95,2.33C430.16,38.31,427.51,36.84,427.51,33.3ZM438,32.09v-1h-1.51c-2.3,0-3.32.45-3.32,1.82,0,1,.64,1.57,2,1.57C436.77,34.45,438,33.52,438,32.09Z" fill="#fff"/><path d="M452.16,35.34v2.59h-5.72v-24h5.72v9.84a5.89,5.89,0,0,1,5.21-2.94c3.89,0,7.05,2.94,7.05,8.66v.25c0,5.75-3.16,8.62-7.09,8.62A5.41,5.41,0,0,1,452.16,35.34Zm6.45-5.65v-.25c0-2.94-1.28-4.35-3.29-4.35S452,26.59,452,29.4v.26c0,2.84,1.25,4.28,3.32,4.28S458.61,32.44,458.61,29.69Z" fill="#fff"/><path d="M466.66,13.88h5.68v24h-5.68Z" fill="#fff"/><path d="M474.51,29.79v-.26c0-5.36,4-8.75,9-8.75,4.57,0,8.49,2.62,8.49,8.62v1.5H480.29c.16,2.21,1.44,3.49,3.48,3.49s2.69-.87,2.91-2H492c-.51,3.76-3.41,5.9-8.46,5.9C478.34,38.31,474.51,35.25,474.51,29.79Zm12-2.11c-.1-2-1.09-3.13-2.94-3.13s-2.91,1.12-3.2,3.13Z" fill="#fff"/><path d="M118.46,67.76V60.31h-2V56.42h2V52.94h5.72v3.48h3.29v3.89h-3.29v6.9c0,1.22.6,1.76,1.69,1.76a4.39,4.39,0,0,0,1.63-.29V73a12.15,12.15,0,0,1-3.16.47C120.57,73.5,118.46,71.68,118.46,67.76Z" fill="#fff"/><path d="M129.63,49.07h5.72v10A5.91,5.91,0,0,1,140.84,56c3.23,0,5.47,2,5.47,6.29V73.12h-5.72V63.41c0-1.88-.74-2.81-2.4-2.81s-2.84,1-2.84,3.16v9.36h-5.72Z" fill="#fff"/><path d="M149.08,56.42h5.72v3.32a5.26,5.26,0,0,1,5.39-3.55v5.34c-3.48-.1-5.39,1-5.39,3.67v7.92h-5.72Z" fill="#fff"/><path d="M161.21,65v-.26c0-5.36,4-8.75,9.17-8.75s9.1,3.29,9.1,8.59v.26c0,5.43-4,8.68-9.13,8.68S161.21,70.38,161.21,65Zm12.46-.1v-.25c0-2.81-1.12-4.38-3.29-4.38s-3.32,1.5-3.32,4.31v.26c0,2.87,1.12,4.44,3.32,4.44S173.67,67.66,173.67,64.88Z" fill="#fff"/><path d="M181.36,67.31V56.42h5.72v10c0,1.89.73,2.81,2.36,2.81s2.84-1,2.84-3.16V56.42H198v16.7h-5.72V70.53a5.47,5.47,0,0,1-5.3,3C183.76,73.5,181.36,71.52,181.36,67.31Z" fill="#fff"/><path d="M200,73.12h5.68c.26,1.21,1,2.17,3.07,2.17,2.52,0,3.54-1.43,3.54-3.51V69.22a5.85,5.85,0,0,1-5.17,3.07c-3.9,0-7.09-2.87-7.09-8V64c0-4.92,3.16-8,7.09-8a5.43,5.43,0,0,1,5.17,2.81V56.42H218v15.3c0,5-3.29,7.6-9.26,7.6C203,79.32,200.42,76.92,200,73.12Zm12.45-8.88V64c0-2.3-1.18-3.77-3.29-3.77s-3.29,1.5-3.29,3.8v.26c0,2.3,1.22,3.77,3.26,3.77S212.43,66.61,212.43,64.24Z" fill="#fff"/><path d="M220.89,49.07h5.72v10A5.89,5.89,0,0,1,232.1,56c3.23,0,5.46,2,5.46,6.29V73.12h-5.71V63.41c0-1.88-.74-2.81-2.4-2.81s-2.84,1-2.84,3.16v9.36h-5.72Z" fill="#fff"/><path d="M245.51,72.64V67.76a7.85,7.85,0,0,0,2.78.44c1.79,0,3-.8,3-3.16V50.29h6.58V65.11c0,5.49-2.81,8.3-8.18,8.3A8.71,8.71,0,0,1,245.51,72.64Z" fill="#fff"/><path d="M260.71,67.31V56.42h5.71v10c0,1.89.74,2.81,2.37,2.81s2.84-1,2.84-3.16V56.42h5.72v16.7h-5.72V70.53a5.47,5.47,0,0,1-5.3,3C263.1,73.5,260.71,71.52,260.71,67.31Z" fill="#fff"/><path d="M280.41,49.07h5.68V73.12h-5.68Z" fill="#fff"/><path d="M294.39,71.43l-6.67-15h6.2l3.44,8.91,3.2-8.91H306l-8.94,22.29h-5.46Z" fill="#fff"/><path d="M317,56.74l-4.35,2.68V54l5.24-3.67h5.66V73.12H317Z" fill="#fff"/><path d="M326.32,65.94h5.94c.23,1.59.87,2.65,3,2.65,1.89,0,2.75-1.41,2.75-3.23,0-2-1.12-3.26-3.1-3.26a4.69,4.69,0,0,0-3.77,1.63h-3.89l.48-13.44h15.39v4.79H332.42l-.13,5a6.12,6.12,0,0,1,5.34-2.42c4.18,0,6.93,2.81,6.93,7.76s-3.48,8-9.26,8C329.23,73.5,326.48,70.21,326.32,65.94Z" fill="#fff"/><path d="M345.58,70.25A3.18,3.18,0,0,1,348.83,67a3.23,3.23,0,1,1,0,6.45A3.18,3.18,0,0,1,345.58,70.25Z" fill="#fff"/></g></g></svg>