<svg xmlns="http://www.w3.org/2000/svg" viewBox="0 0 728 90"><title>Asset 8</title><g id="Layer_2" data-name="Layer 2"><g id="Rect"><rect width="728" height="90" fill="none"/></g><g id="Federal_State:_fast_easy_and_at_least_10_cheaper_than_Turbo" data-name="Federal &amp; State: fast, easy and at least $10 cheaper than Turbo"><path d="M122,18.11h14.2v4.68h-8.14v4.47h6.49V31.7h-6.49v7.44H122Z" fill="#fff"/><path d="M136.64,31.64V31.4c0-4.94,3.68-8,8.32-8,4.21,0,7.82,2.41,7.82,7.94v1.38H142c.15,2,1.33,3.2,3.21,3.2s2.47-.79,2.67-1.82h4.94c-.47,3.47-3.14,5.44-7.79,5.44C140.17,39.49,136.64,36.67,136.64,31.64Zm11-1.94c-.09-1.85-1-2.88-2.71-2.88s-2.67,1-2.94,2.88Z" fill="#fff"/><path d="M153.84,31.61v-.23c0-5.24,2.88-8,6.53-8a5,5,0,0,1,4.73,2.59V17h5.26V39.14H165.1v-2.5a5.17,5.17,0,0,1-4.79,2.85C156.75,39.49,153.84,36.93,153.84,31.61Zm11.41-.09v-.23c0-2.59-1.09-4-3-4s-3,1.32-3,4v.23c0,2.59,1.15,3.91,3,3.91S165.25,34.14,165.25,31.52Z" fill="#fff"/><path d="M172.21,31.64V31.4c0-4.94,3.68-8,8.33-8,4.2,0,7.82,2.41,7.82,7.94v1.38H177.54a3.06,3.06,0,0,0,3.2,3.2c1.74,0,2.47-.79,2.68-1.82h4.94c-.47,3.47-3.15,5.44-7.8,5.44C175.74,39.49,172.21,36.67,172.21,31.64Zm11-1.94c-.09-1.85-1-2.88-2.7-2.88s-2.68,1-2.94,2.88Z" fill="#fff"/><path d="M190.18,23.76h5.26v3.06a4.84,4.84,0,0,1,5-3.27v4.91c-3.2-.08-5,.92-5,3.39v7.29h-5.26Z" fill="#fff"/><path d="M201.08,34.87c0-3.61,3.06-5,8.18-5h1.47v-.36c0-1.47-.35-2.44-2-2.44a1.9,1.9,0,0,0-2.09,1.83h-4.94c.24-3.71,3.15-5.53,7.35-5.53S216,25.08,216,29.17v10h-5.11v-1.8a5.06,5.06,0,0,1-4.56,2.15C203.53,39.49,201.08,38.14,201.08,34.87Zm9.65-1.11v-.94h-1.38c-2.12,0-3.06.41-3.06,1.67,0,.88.59,1.44,1.82,1.44C209.61,35.93,210.73,35.08,210.73,33.76Z" fill="#fff"/><path d="M218.67,17h5.23V39.14h-5.23Z" fill="#fff"/><path d="M249.1,34.85l3.5,4.29h-6.86l-1.23-1.53a8.36,8.36,0,0,1-5.68,1.88c-4.46,0-7.38-2.35-7.38-6.35,0-2.71,1.65-4.7,4.62-6.12a6.68,6.68,0,0,1-1.29-3.67c0-3.59,3.05-5.5,6.76-5.5,3.35,0,6.38,1.68,6.38,4.91,0,2.29-1.35,4-4.2,5.2l2.64,3.24,1.53-3h4.59Zm-7.3-.62-3.32-4a2.5,2.5,0,0,0-1.41,2.26,2.44,2.44,0,0,0,2.68,2.62A2.72,2.72,0,0,0,241.8,34.23Zm-.64-8.47c1.41-.68,2.09-1.47,2.09-2.56a1.52,1.52,0,0,0-1.56-1.62A1.68,1.68,0,0,0,240,23.41,3.84,3.84,0,0,0,241.16,25.76Z" fill="#fff"/><path d="M258.5,32.46h5.74c.14,1.5.82,2.74,3.32,2.74,1.73,0,2.7-.85,2.7-2.09s-.79-1.65-3.32-2c-5.94-.7-7.94-2.47-7.94-6.7,0-3.8,3.12-6.56,8.15-6.56s7.91,2.12,8.29,6.56h-5.59a2.39,2.39,0,0,0-2.7-2.27c-1.62,0-2.44.74-2.44,1.8s.64,1.7,3.26,2.05c5.32.59,8.06,2,8.06,6.53,0,3.85-3.06,7-8.47,7C261.68,39.49,258.68,37,258.5,32.46Z" fill="#fff"/><path d="M278.67,34.2V27.35h-1.85V23.76h1.85V20.55h5.26v3.21h3v3.59h-3V33.7c0,1.12.56,1.62,1.56,1.62a3.93,3.93,0,0,0,1.5-.27v4a11,11,0,0,1-2.91.44C280.61,39.49,278.67,37.81,278.67,34.2Z" fill="#fff"/><path d="M288.14,34.87c0-3.61,3.05-5,8.17-5h1.47v-.36c0-1.47-.35-2.44-2-2.44a1.9,1.9,0,0,0-2.09,1.83h-4.94c.24-3.71,3.15-5.53,7.36-5.53S303,25.08,303,29.17v10H297.9v-1.8a5.06,5.06,0,0,1-4.56,2.15C290.58,39.49,288.14,38.14,288.14,34.87Zm9.64-1.11v-.94H296.4c-2.12,0-3.06.41-3.06,1.67,0,.88.59,1.44,1.82,1.44C296.66,35.93,297.78,35.08,297.78,33.76Z" fill="#fff"/><path d="M306.19,34.2V27.35h-1.85V23.76h1.85V20.55h5.26v3.21h3v3.59h-3V33.7c0,1.12.56,1.62,1.56,1.62a3.93,3.93,0,0,0,1.5-.27v4a11,11,0,0,1-2.91.44C308.13,39.49,306.19,37.81,306.19,34.2Z" fill="#fff"/><path d="M315.65,31.64V31.4c0-4.94,3.68-8,8.33-8,4.2,0,7.82,2.41,7.82,7.94v1.38H321a3.06,3.06,0,0,0,3.2,3.2c1.74,0,2.47-.79,2.68-1.82h4.94c-.47,3.47-3.15,5.44-7.8,5.44C319.18,39.49,315.65,36.67,315.65,31.64Zm11-1.94c-.09-1.85-1-2.88-2.7-2.88s-2.68,1-2.94,2.88Z" fill="#fff"/><path d="M333.5,28.08a3,3,0,0,1,3-3,3,3,0,1,1,0,5.94A2.93,2.93,0,0,1,333.5,28.08Zm0,8.41a3,3,0,0,1,3-3,3,3,0,1,1,0,5.94A3,3,0,0,1,333.5,36.49Z" fill="#fff"/><path d="M348.29,27.35h-1.94V23.76h1.94V22.41c0-3.83,2.38-5.65,6-5.65a9.7,9.7,0,0,1,2.41.32v3.86a4.82,4.82,0,0,0-1.44-.21,1.55,1.55,0,0,0-1.77,1.68v1.35h3.12v3.59h-3.12V39.14h-5.23Z" fill="#fff"/><path d="M357.22,34.87c0-3.61,3.06-5,8.18-5h1.47v-.36c0-1.47-.35-2.44-2-2.44a1.9,1.9,0,0,0-2.09,1.83h-4.94c.24-3.71,3.15-5.53,7.35-5.53s6.94,1.73,6.94,5.82v10H367v-1.8a5.06,5.06,0,0,1-4.56,2.15C359.67,39.49,357.22,38.14,357.22,34.87Zm9.65-1.11v-.94h-1.38c-2.12,0-3.06.41-3.06,1.67,0,.88.59,1.44,1.82,1.44C365.75,35.93,366.87,35.08,366.87,33.76Z" fill="#fff"/><path d="M373.63,34.26h4.85c.18,1.11.68,1.73,2.18,1.73,1.29,0,1.88-.5,1.88-1.26s-.74-1.09-2.85-1.38c-4.12-.53-5.86-1.74-5.86-4.94,0-3.42,3-5.06,6.59-5.06,3.79,0,6.44,1.29,6.79,5h-4.76a1.71,1.71,0,0,0-2-1.53c-1.15,0-1.73.5-1.73,1.2s.7,1,2.58,1.27c4.27.53,6.33,1.64,6.33,4.94,0,3.64-2.71,5.29-7,5.29S373.75,37.67,373.63,34.26Z" fill="#fff"/><path d="M390.06,34.2V27.35h-1.85V23.76h1.85V20.55h5.27v3.21h3v3.59h-3V33.7c0,1.12.56,1.62,1.56,1.62a4,4,0,0,0,1.5-.27v4a11,11,0,0,1-2.92.44C392,39.49,390.06,37.81,390.06,34.2Z" fill="#fff"/><path d="M399.27,41.52l2.47-7.73,4.88,1.73-4.24,7.21Z" fill="#fff"/><path d="M413.44,31.64V31.4c0-4.94,3.67-8,8.32-8,4.2,0,7.82,2.41,7.82,7.94v1.38H418.76c.15,2,1.32,3.2,3.2,3.2s2.47-.79,2.68-1.82h4.94c-.47,3.47-3.15,5.44-7.79,5.44C417,39.49,413.44,36.67,413.44,31.64Zm11-1.94c-.08-1.85-1-2.88-2.7-2.88s-2.68,1-2.94,2.88Z" fill="#fff"/><path d="M430.66,34.87c0-3.61,3.06-5,8.18-5h1.47v-.36c0-1.47-.35-2.44-2-2.44a1.9,1.9,0,0,0-2.09,1.83h-4.94c.24-3.71,3.15-5.53,7.35-5.53s6.94,1.73,6.94,5.82v10h-5.11v-1.8a5.06,5.06,0,0,1-4.56,2.15C433.1,39.49,430.66,38.14,430.66,34.87Zm9.65-1.11v-.94h-1.38c-2.12,0-3.06.41-3.06,1.67,0,.88.59,1.44,1.82,1.44C439.19,35.93,440.31,35.08,440.31,33.76Z" fill="#fff"/><path d="M447.07,34.26h4.85c.18,1.11.68,1.73,2.18,1.73,1.29,0,1.88-.5,1.88-1.26s-.74-1.09-2.85-1.38c-4.12-.53-5.85-1.74-5.85-4.94,0-3.42,3-5.06,6.58-5.06,3.79,0,6.44,1.29,6.79,5h-4.76a1.72,1.72,0,0,0-2-1.53c-1.15,0-1.73.5-1.73,1.2s.7,1,2.58,1.27c4.27.53,6.32,1.64,6.32,4.94,0,3.64-2.7,5.29-7,5.29S447.19,37.67,447.07,34.26Z" fill="#fff"/><path d="M467.12,37.58,461,23.76h5.7l3.18,8.2,2.94-8.2h5l-8.23,20.52h-5Z" fill="#fff"/><path d="M483.64,34.87c0-3.61,3.06-5,8.18-5h1.47v-.36c0-1.47-.36-2.44-2-2.44a1.9,1.9,0,0,0-2.09,1.83h-4.94c.24-3.71,3.15-5.53,7.35-5.53s6.94,1.73,6.94,5.82v10H493.4v-1.8a5,5,0,0,1-4.55,2.15C486.08,39.49,483.64,38.14,483.64,34.87Zm9.65-1.11v-.94H491.9c-2.11,0-3,.41-3,1.67,0,.88.58,1.44,1.82,1.44C492.17,35.93,493.29,35.08,493.29,33.76Z" fill="#fff"/><path d="M501.08,23.76h5.26v2.47a5.42,5.42,0,0,1,5.06-2.88c3,0,5,1.85,5,5.79v10h-5.26V30.2c0-1.74-.67-2.59-2.2-2.59s-2.62.94-2.62,2.91v8.62h-5.26Z" fill="#fff"/><path d="M518.22,31.61v-.23c0-5.24,2.88-8,6.52-8a5,5,0,0,1,4.74,2.59V17h5.26V39.14h-5.26v-2.5a5.19,5.19,0,0,1-4.8,2.85C521.13,39.49,518.22,36.93,518.22,31.61Zm11.4-.09v-.23c0-2.59-1.08-4-3-4s-3,1.32-3,4v.23c0,2.59,1.14,3.91,3,3.91S529.62,34.14,529.62,31.52Z" fill="#fff"/><path d="M120.68,66.27c0-3.61,3-5,8.17-5h1.47v-.36c0-1.47-.35-2.44-2-2.44a1.9,1.9,0,0,0-2.09,1.83h-4.94c.24-3.71,3.15-5.53,7.36-5.53s6.93,1.73,6.93,5.82v10h-5.11v-1.8a5.06,5.06,0,0,1-4.56,2.15C123.12,70.89,120.68,69.54,120.68,66.27Zm9.64-1.11v-.94h-1.38c-2.12,0-3.06.41-3.06,1.67,0,.88.59,1.44,1.82,1.44C129.2,67.33,130.32,66.48,130.32,65.16Z" fill="#fff"/><path d="M138.73,65.6V58.75h-1.85V55.16h1.85V52H144v3.2h3v3.59h-3V65.1c0,1.12.56,1.62,1.56,1.62a3.93,3.93,0,0,0,1.5-.27v4a11,11,0,0,1-2.91.44C140.67,70.89,138.73,69.21,138.73,65.6Z" fill="#fff"/><path d="M154.52,48.4h5.23V70.54h-5.23Z" fill="#fff"/><path d="M161.75,63V62.8c0-4.93,3.67-8,8.32-8,4.2,0,7.82,2.41,7.82,7.94v1.38H167.07c.15,2,1.32,3.2,3.2,3.2s2.47-.79,2.68-1.82h4.94c-.47,3.47-3.15,5.44-7.79,5.44C165.28,70.89,161.75,68.07,161.75,63Zm11-1.94c-.08-1.85-1-2.88-2.7-2.88s-2.68,1-2.94,2.88Z" fill="#fff"/><path d="M179,66.27c0-3.61,3.05-5,8.17-5h1.47v-.36c0-1.47-.35-2.44-2-2.44a1.9,1.9,0,0,0-2.09,1.83h-4.94c.24-3.71,3.15-5.53,7.35-5.53s6.94,1.73,6.94,5.82v10h-5.11v-1.8a5.06,5.06,0,0,1-4.56,2.15C181.42,70.89,179,69.54,179,66.27Zm9.64-1.11v-.94h-1.38c-2.12,0-3.06.41-3.06,1.67,0,.88.59,1.44,1.82,1.44C187.5,67.33,188.62,66.48,188.62,65.16Z" fill="#fff"/><path d="M195.38,65.66h4.85c.18,1.11.68,1.73,2.18,1.73,1.29,0,1.88-.5,1.88-1.26s-.74-1.09-2.85-1.38c-4.12-.53-5.85-1.74-5.85-4.94,0-3.42,3-5.06,6.58-5.06,3.8,0,6.44,1.29,6.79,5H204.2a1.71,1.71,0,0,0-2-1.53c-1.15,0-1.73.5-1.73,1.2s.7,1,2.58,1.27c4.27.53,6.33,1.64,6.33,4.94,0,3.64-2.71,5.29-7,5.29S195.5,69.07,195.38,65.66Z" fill="#fff"/><path d="M211.81,65.6V58.75H210V55.16h1.85V52h5.27v3.2h3v3.59h-3V65.1c0,1.12.56,1.62,1.56,1.62a4,4,0,0,0,1.5-.27v4a11,11,0,0,1-2.91.44C213.76,70.89,211.81,69.21,211.81,65.6Z" fill="#fff"/><path d="M230.83,60.92c-3-.21-4.4-1.78-4.52-4h3.17a1.63,1.63,0,0,0,1.35,1.61V56c-3-.42-4.25-1.5-4.25-3.89,0-2.07,1.63-3.56,4.25-3.75V46.82h1.34v1.54c2.48.2,4,1.35,4.16,3.7h-3.1a1.37,1.37,0,0,0-1.06-1.29v2.37c2.62.38,4.33,1.27,4.33,3.75,0,2.09-1.35,3.84-4.33,4v2.14h-1.34Zm0-8V50.74c-.77.14-1.16.55-1.16,1.1S229.91,52.75,230.83,52.93Zm1.34,3.28v2.28c.75-.16,1.15-.6,1.15-1.22S233.08,56.41,232.17,56.21Z" fill="#fff"/><path d="M241.67,55.45l-4,2.47v-5l4.82-3.39h5.21v21h-6Z" fill="#fff"/><path d="M250.58,60.48V59.6c0-6.65,4.14-10.38,9.7-10.38s9.7,3.44,9.7,10.26v.83c0,6.67-3.82,10.58-9.82,10.58S250.58,67.1,250.58,60.48ZM264,60.42v-.85c0-3.85-1.12-5.79-3.68-5.79s-3.68,1.91-3.68,5.79v.88c0,3.91,1.15,5.77,3.74,5.77S264,64.3,264,60.42Z" fill="#fff"/><path d="M276.68,63V62.8c0-5.11,3.68-8,8.21-8,3.76,0,7.23,1.64,7.52,6.32h-4.94A2.27,2.27,0,0,0,285,58.83c-1.85,0-2.94,1.33-2.94,3.92V63c0,2.68,1,4.06,3,4.06a2.57,2.57,0,0,0,2.68-2.56h4.73c-.15,3.88-2.76,6.41-7.73,6.41C280.18,70.89,276.68,68.21,276.68,63Z" fill="#fff"/><path d="M294.21,48.4h5.26v9.23a5.42,5.42,0,0,1,5.06-2.88c3,0,5,1.85,5,5.79v10h-5.26V61.6c0-1.74-.68-2.59-2.2-2.59s-2.62.94-2.62,2.91v8.62h-5.26Z" fill="#fff"/><path d="M311.29,63V62.8c0-4.93,3.67-8,8.32-8,4.2,0,7.82,2.41,7.82,7.94v1.38H316.61c.15,2,1.32,3.2,3.2,3.2s2.47-.79,2.68-1.82h4.94c-.47,3.47-3.15,5.44-7.79,5.44C314.81,70.89,311.29,68.07,311.29,63Zm11-1.94c-.09-1.85-1-2.88-2.7-2.88s-2.68,1-2.94,2.88Z" fill="#fff"/><path d="M328.51,66.27c0-3.61,3.06-5,8.18-5h1.47v-.36c0-1.47-.35-2.44-2-2.44A1.9,1.9,0,0,0,334,60.28H329.1c.24-3.71,3.15-5.53,7.35-5.53s6.94,1.73,6.94,5.82v10h-5.11v-1.8a5.06,5.06,0,0,1-4.56,2.15C331,70.89,328.51,69.54,328.51,66.27Zm9.65-1.11v-.94h-1.38c-2.12,0-3.06.41-3.06,1.67,0,.88.59,1.44,1.82,1.44C337,67.33,338.16,66.48,338.16,65.16Z" fill="#fff"/><path d="M346,55.16h5.26v2.29a5.42,5.42,0,0,1,4.79-2.7c3.59,0,6.5,2.7,6.5,8V63c0,5.29-2.91,7.94-6.53,7.94a5.08,5.08,0,0,1-4.76-2.62v7.41H346ZM357.15,63v-.23c0-2.71-1.18-4-3-4s-3.06,1.38-3.06,4v.23c0,2.62,1.15,3.94,3.06,3.94S357.15,65.48,357.15,63Z" fill="#fff"/><path d="M363.59,63V62.8c0-4.93,3.67-8,8.32-8,4.2,0,7.82,2.41,7.82,7.94v1.38H368.91c.15,2,1.32,3.2,3.21,3.2,1.73,0,2.46-.79,2.67-1.82h4.94c-.47,3.47-3.15,5.44-7.79,5.44C367.12,70.89,363.59,68.07,363.59,63Zm11-1.94c-.08-1.85-1-2.88-2.7-2.88s-2.68,1-2.94,2.88Z" fill="#fff"/><path d="M381.55,55.16h5.26v3.06a4.84,4.84,0,0,1,5-3.27v4.91c-3.2-.08-5,.92-5,3.39v7.29h-5.26Z" fill="#fff"/><path d="M399.75,65.6V58.75H397.9V55.16h1.85V52H405v3.2h3v3.59h-3V65.1c0,1.12.56,1.62,1.56,1.62a3.93,3.93,0,0,0,1.5-.27v4a11,11,0,0,1-2.91.44C401.69,70.89,399.75,69.21,399.75,65.6Z" fill="#fff"/><path d="M410,48.4h5.26v9.23a5.42,5.42,0,0,1,5.06-2.88c3,0,5,1.85,5,5.79v10h-5.27V61.6c0-1.74-.67-2.59-2.2-2.59s-2.62.94-2.62,2.91v8.62H410Z" fill="#fff"/><path d="M427.06,66.27c0-3.61,3.06-5,8.18-5h1.47v-.36c0-1.47-.36-2.44-2-2.44a1.9,1.9,0,0,0-2.09,1.83h-4.94c.23-3.71,3.14-5.53,7.35-5.53s6.94,1.73,6.94,5.82v10h-5.12v-1.8a5,5,0,0,1-4.55,2.15C429.5,70.89,427.06,69.54,427.06,66.27Zm9.65-1.11v-.94h-1.39c-2.11,0-3.05.41-3.05,1.67,0,.88.58,1.44,1.82,1.44C435.59,67.33,436.71,66.48,436.71,65.16Z" fill="#fff"/><path d="M444.5,55.16h5.26v2.47a5.42,5.42,0,0,1,5.06-2.88c3,0,5,1.85,5,5.79v10h-5.26V61.6c0-1.74-.68-2.59-2.2-2.59s-2.62.94-2.62,2.91v8.62H444.5Z" fill="#fff"/><path d="M472.25,54.16h-5.44V49.51h16.94v4.65h-5.44V70.54h-6.06Z" fill="#fff"/><path d="M484.21,65.19v-10h5.27v9.17c0,1.74.67,2.59,2.17,2.59s2.62-.94,2.62-2.91V55.16h5.26V70.54h-5.26V68.16a5.06,5.06,0,0,1-4.88,2.73C486.42,70.89,484.21,69.07,484.21,65.19Z" fill="#fff"/><path d="M502.21,55.16h5.26v3.06a4.84,4.84,0,0,1,5-3.27v4.91c-3.21-.08-5,.92-5,3.39v7.29h-5.26Z" fill="#fff"/><path d="M519.61,68.16v2.38h-5.26V48.4h5.26v9.05a5.42,5.42,0,0,1,4.79-2.7c3.59,0,6.5,2.7,6.5,8V63c0,5.29-2.91,7.94-6.52,7.94A5,5,0,0,1,519.61,68.16ZM525.55,63v-.23c0-2.71-1.17-4-3-4s-3.06,1.38-3.06,4v.23c0,2.62,1.15,3.94,3.06,3.94S525.55,65.48,525.55,63Z" fill="#fff"/><path d="M532,63V62.8c0-4.93,3.67-8,8.44-8s8.38,3,8.38,7.91v.23c0,5-3.68,8-8.41,8S532,68,532,63ZM543.46,63v-.23c0-2.59-1-4-3-4s-3.06,1.38-3.06,4v.23c0,2.65,1,4.09,3.06,4.09S543.46,65.51,543.46,63Z" fill="#fff"/><path d="M549.8,67.89a2.94,2.94,0,0,1,3-3,3,3,0,1,1,0,5.94A2.93,2.93,0,0,1,549.8,67.89Z" fill="#fff"/></g></g></svg>