<svg xmlns="http://www.w3.org/2000/svg" viewBox="0 0 728 90"><title>H36</title><g id="Layer_2" data-name="Layer 2"><g id="Rect"><rect width="728" height="90" fill="none"/></g><g id="H36"><g id="Federal_State:_fast_easy_and_at_least_10_cheaper_than_Turbo" data-name="Federal &amp; State: fast, easy and at least $10 cheaper than Turbo"><path d="M122,19.07h13.67v4.5h-7.84v4.3H134v4.28h-6.26v7.16H122Z" fill="#fff"/><path d="M136,32.09v-.22c0-4.76,3.54-7.76,8-7.76,4.05,0,7.53,2.32,7.53,7.64v1.33H141.14a3,3,0,0,0,3.09,3.09c1.67,0,2.37-.77,2.57-1.76h4.76c-.46,3.34-3,5.24-7.5,5.24C139.41,39.65,136,36.93,136,32.09Zm10.61-1.87c-.08-1.78-1-2.77-2.6-2.77s-2.58,1-2.83,2.77Z" fill="#fff"/><path d="M152.57,32.06v-.22c0-5,2.78-7.73,6.29-7.73a4.79,4.79,0,0,1,4.55,2.49V18h5.07V39.31h-5.07V36.9a5,5,0,0,1-4.61,2.75C155.38,39.65,152.57,37.19,152.57,32.06Zm11-.08v-.23c0-2.49-1.05-3.82-2.92-3.82s-2.92,1.27-2.92,3.85V32c0,2.49,1.11,3.76,2.86,3.76S163.56,34.5,163.56,32Z" fill="#fff"/><path d="M170.26,32.09v-.22c0-4.76,3.54-7.76,8-7.76,4,0,7.53,2.32,7.53,7.64v1.33H175.38c.15,2,1.28,3.09,3.09,3.09s2.38-.77,2.57-1.76h4.76c-.45,3.34-3,5.24-7.5,5.24C173.66,39.65,170.26,36.93,170.26,32.09Zm10.62-1.87c-.09-1.78-1-2.77-2.61-2.77s-2.57,1-2.83,2.77Z" fill="#fff"/><path d="M187.55,24.51h5.07v2.94a4.65,4.65,0,0,1,4.78-3.14V29c-3.08-.08-4.78.88-4.78,3.26v7h-5.07Z" fill="#fff"/><path d="M198.05,35.21c0-3.49,2.94-4.84,7.87-4.84h1.41V30c0-1.42-.33-2.35-2-2.35a1.83,1.83,0,0,0-2,1.75h-4.75c.22-3.57,3-5.32,7.07-5.32s6.68,1.67,6.68,5.6v9.6h-4.92V37.58a4.86,4.86,0,0,1-4.39,2.07C200.4,39.65,198.05,38.35,198.05,35.21Zm9.28-1.08v-.91H206c-2,0-2.94.4-2.94,1.62,0,.85.57,1.38,1.76,1.38A2.22,2.22,0,0,0,207.33,34.13Z" fill="#fff"/><path d="M215,18h5V39.31h-5Z" fill="#fff"/><path d="M244.27,35.18l3.37,4.13H241l-1.19-1.47a8,8,0,0,1-5.46,1.81c-4.3,0-7.11-2.27-7.11-6.11,0-2.61,1.59-4.53,4.45-5.89a6.47,6.47,0,0,1-1.25-3.54c0-3.45,3-5.29,6.51-5.29,3.23,0,6.14,1.61,6.14,4.72,0,2.21-1.3,3.82-4,5l2.54,3.12,1.48-2.89h4.41Zm-7-.6-3.2-3.85a2.4,2.4,0,0,0-1.36,2.18,2.35,2.35,0,0,0,2.58,2.52A2.65,2.65,0,0,0,237.25,34.58Zm-.62-8.15c1.35-.65,2-1.41,2-2.46a1.45,1.45,0,0,0-1.5-1.56,1.62,1.62,0,0,0-1.67,1.76A3.73,3.73,0,0,0,236.63,26.43Z" fill="#fff"/><path d="M253.32,32.88h5.52c.14,1.45.79,2.64,3.2,2.64,1.67,0,2.6-.82,2.6-2s-.76-1.59-3.2-2c-5.71-.68-7.64-2.37-7.64-6.45,0-3.65,3-6.31,7.84-6.31s7.62,2,8,6.31h-5.37a2.3,2.3,0,0,0-2.61-2.18c-1.56,0-2.35.71-2.35,1.73s.62,1.64,3.14,2c5.13.57,7.76,1.9,7.76,6.28,0,3.71-2.94,6.74-8.15,6.74C256.38,39.65,253.49,37.27,253.32,32.88Z" fill="#fff"/><path d="M272.73,34.55V28H271V24.51h1.78V21.42h5.07v3.09h2.92V28H277.8v6.11c0,1.08.54,1.56,1.5,1.56a4,4,0,0,0,1.44-.25v3.84a10.56,10.56,0,0,1-2.8.43C274.6,39.65,272.73,38,272.73,34.55Z" fill="#fff"/><path d="M281.85,35.21c0-3.49,2.94-4.84,7.86-4.84h1.42V30c0-1.42-.34-2.35-1.95-2.35a1.81,1.81,0,0,0-2,1.75h-4.76c.23-3.57,3-5.32,7.08-5.32s6.68,1.67,6.68,5.6v9.6h-4.93V37.58a4.84,4.84,0,0,1-4.38,2.07C284.19,39.65,281.85,38.35,281.85,35.21Zm9.28-1.08v-.91H289.8c-2,0-2.94.4-2.94,1.62,0,.85.56,1.38,1.75,1.38C290.05,36.22,291.13,35.4,291.13,34.13Z" fill="#fff"/><path d="M299.22,34.55V28h-1.78V24.51h1.78V21.42h5.07v3.09h2.91V28h-2.91v6.11c0,1.08.54,1.56,1.5,1.56a4.06,4.06,0,0,0,1.44-.25v3.84a10.56,10.56,0,0,1-2.8.43C301.09,39.65,299.22,38,299.22,34.55Z" fill="#fff"/><path d="M308.33,32.09v-.22c0-4.76,3.54-7.76,8-7.76,4.05,0,7.53,2.32,7.53,7.64v1.33H313.46a3,3,0,0,0,3.08,3.09c1.67,0,2.38-.77,2.58-1.76h4.75c-.45,3.34-3,5.24-7.5,5.24C311.73,39.65,308.33,36.93,308.33,32.09ZM319,30.22c-.09-1.78-1-2.77-2.61-2.77s-2.57,1-2.83,2.77Z" fill="#fff"/><path d="M325.51,28.67a2.84,2.84,0,0,1,2.89-2.86,2.86,2.86,0,1,1,0,5.72A2.83,2.83,0,0,1,325.51,28.67Zm0,8.09a2.85,2.85,0,0,1,2.89-2.86,2.86,2.86,0,1,1,0,5.72A2.84,2.84,0,0,1,325.51,36.76Z" fill="#fff"/><path d="M339.75,28h-1.87V24.51h1.87V23.2c0-3.68,2.29-5.43,5.8-5.43a9,9,0,0,1,2.32.31v3.71a4.77,4.77,0,0,0-1.39-.2,1.49,1.49,0,0,0-1.7,1.61v1.31h3V28h-3V39.31h-5Z" fill="#fff"/><path d="M348.35,35.21c0-3.49,2.94-4.84,7.87-4.84h1.41V30c0-1.42-.34-2.35-1.95-2.35a1.81,1.81,0,0,0-2,1.75h-4.75c.22-3.57,3-5.32,7.07-5.32s6.68,1.67,6.68,5.6v9.6h-4.92V37.58a4.86,4.86,0,0,1-4.39,2.07C350.7,39.65,348.35,38.35,348.35,35.21Zm9.28-1.08v-.91H356.3c-2,0-2.94.4-2.94,1.62,0,.85.57,1.38,1.75,1.38C356.56,36.22,357.63,35.4,357.63,34.13Z" fill="#fff"/><path d="M364.14,34.61h4.67c.17,1.08.65,1.67,2.1,1.67,1.24,0,1.81-.48,1.81-1.22S372,34,370,33.73c-4-.51-5.63-1.67-5.63-4.75,0-3.29,2.91-4.87,6.34-4.87,3.65,0,6.2,1.25,6.54,4.78h-4.59a1.65,1.65,0,0,0-1.89-1.47c-1.11,0-1.67.48-1.67,1.16s.67,1,2.49,1.22c4.1.51,6.08,1.58,6.08,4.75,0,3.51-2.6,5.1-6.71,5.1S364.25,37.89,364.14,34.61Z" fill="#fff"/><path d="M380,34.55V28h-1.78V24.51H380V21.42H385v3.09h2.91V28H385v6.11c0,1.08.53,1.56,1.5,1.56a4.06,4.06,0,0,0,1.44-.25v3.84a10.56,10.56,0,0,1-2.8.43C381.83,39.65,380,38,380,34.55Z" fill="#fff"/><path d="M388.82,41.6l2.38-7.44,4.69,1.67-4.07,6.93Z" fill="#fff"/><path d="M402.46,32.09v-.22c0-4.76,3.54-7.76,8-7.76,4,0,7.53,2.32,7.53,7.64v1.33H407.58a3,3,0,0,0,3.09,3.09c1.67,0,2.37-.77,2.57-1.76H418c-.46,3.34-3,5.24-7.5,5.24C405.85,39.65,402.46,36.93,402.46,32.09Zm10.61-1.87c-.08-1.78-1-2.77-2.6-2.77s-2.58,1-2.83,2.77Z" fill="#fff"/><path d="M419,35.21c0-3.49,2.94-4.84,7.87-4.84h1.42V30c0-1.42-.34-2.35-2-2.35a1.83,1.83,0,0,0-2,1.75h-4.75c.22-3.57,3-5.32,7.07-5.32s6.68,1.67,6.68,5.6v9.6h-4.92V37.58a4.86,4.86,0,0,1-4.39,2.07C421.39,39.65,419,38.35,419,35.21Zm9.29-1.08v-.91H427c-2,0-2.95.4-2.95,1.62,0,.85.57,1.38,1.76,1.38C427.25,36.22,428.33,35.4,428.33,34.13Z" fill="#fff"/><path d="M434.83,34.61h4.67c.17,1.08.65,1.67,2.1,1.67,1.24,0,1.81-.48,1.81-1.22s-.71-1-2.75-1.33c-4-.51-5.63-1.67-5.63-4.75,0-3.29,2.92-4.87,6.34-4.87,3.65,0,6.2,1.25,6.54,4.78h-4.59a1.64,1.64,0,0,0-1.89-1.47c-1.11,0-1.67.48-1.67,1.16s.68,1,2.49,1.22c4.1.51,6.08,1.58,6.08,4.75,0,3.51-2.6,5.1-6.7,5.1S435,37.89,434.83,34.61Z" fill="#fff"/><path d="M454.13,37.81l-5.91-13.3h5.49l3.06,7.89,2.83-7.89h4.84l-7.93,19.75h-4.84Z" fill="#fff"/><path d="M470,35.21c0-3.49,2.94-4.84,7.87-4.84h1.41V30c0-1.42-.34-2.35-1.95-2.35a1.81,1.81,0,0,0-2,1.75H470.6c.23-3.57,3-5.32,7.08-5.32s6.68,1.67,6.68,5.6v9.6h-4.93V37.58a4.84,4.84,0,0,1-4.38,2.07C472.39,39.65,470,38.35,470,35.21Zm9.28-1.08v-.91H478c-2,0-2.94.4-2.94,1.62,0,.85.56,1.38,1.75,1.38C478.25,36.22,479.32,35.4,479.32,34.13Z" fill="#fff"/><path d="M486.82,24.51h5.06v2.37a5.25,5.25,0,0,1,4.87-2.77c2.86,0,4.84,1.78,4.84,5.58v9.62h-5.06v-8.6c0-1.68-.65-2.5-2.13-2.5s-2.52.91-2.52,2.81v8.29h-5.06Z" fill="#fff"/><path d="M503.32,32.06v-.22c0-5,2.77-7.73,6.28-7.73a4.81,4.81,0,0,1,4.56,2.49V18h5.06V39.31h-5.06V36.9a5,5,0,0,1-4.62,2.75C506.12,39.65,503.32,37.19,503.32,32.06Zm11-.08v-.23c0-2.49-1-3.82-2.92-3.82s-2.91,1.27-2.91,3.85V32c0,2.49,1.1,3.76,2.86,3.76S514.3,34.5,514.3,32Z" fill="#fff"/><path d="M526.1,35.21c0-3.49,2.94-4.84,7.87-4.84h1.41V30c0-1.42-.34-2.35-2-2.35a1.81,1.81,0,0,0-2,1.75h-4.76c.23-3.57,3-5.32,7.08-5.32s6.68,1.67,6.68,5.6v9.6H535.5V37.58a4.86,4.86,0,0,1-4.39,2.07C528.45,39.65,526.1,38.35,526.1,35.21Zm9.28-1.08v-.91h-1.33c-2,0-2.94.4-2.94,1.62,0,.85.56,1.38,1.75,1.38C534.31,36.22,535.38,35.4,535.38,34.13Z" fill="#fff"/><path d="M543.47,34.55V28h-1.78V24.51h1.78V21.42h5.07v3.09h2.92V28h-2.92v6.11c0,1.08.54,1.56,1.5,1.56a4.12,4.12,0,0,0,1.45-.25v3.84a10.71,10.71,0,0,1-2.81.43C545.34,39.65,543.47,38,543.47,34.55Z" fill="#fff"/><path d="M121.64,48.3h5V69.61h-5Z" fill="#fff"/><path d="M128.6,62.39v-.22c0-4.76,3.54-7.76,8-7.76,4,0,7.53,2.32,7.53,7.64v1.33H133.73a3,3,0,0,0,3.08,3.09c1.67,0,2.38-.77,2.58-1.76h4.75c-.45,3.34-3,5.24-7.5,5.24C132,70,128.6,67.23,128.6,62.39Zm10.62-1.87c-.09-1.78-1-2.77-2.61-2.77s-2.57,1-2.83,2.77Z" fill="#fff"/><path d="M145.19,65.51c0-3.49,2.94-4.84,7.87-4.84h1.41v-.34c0-1.42-.34-2.35-1.95-2.35a1.81,1.81,0,0,0-2,1.75h-4.76c.23-3.56,3-5.32,7.08-5.32s6.68,1.67,6.68,5.6v9.6h-4.93V67.88A4.84,4.84,0,0,1,150.2,70C147.54,70,145.19,68.65,145.19,65.51Zm9.28-1.08v-.91h-1.33c-2,0-2.94.4-2.94,1.62,0,.85.56,1.38,1.75,1.38C153.4,66.52,154.47,65.7,154.47,64.43Z" fill="#fff"/><path d="M161,64.91h4.67c.17,1.08.65,1.67,2.09,1.67,1.25,0,1.81-.48,1.81-1.22s-.7-1-2.74-1.33c-4-.51-5.63-1.67-5.63-4.75,0-3.28,2.91-4.87,6.34-4.87,3.65,0,6.19,1.25,6.53,4.78h-4.58a1.66,1.66,0,0,0-1.9-1.47c-1.1,0-1.67.48-1.67,1.16s.68,1,2.49,1.22c4.11.51,6.09,1.58,6.09,4.75,0,3.51-2.6,5.1-6.71,5.1S161.09,68.19,161,64.91Z" fill="#fff"/><path d="M176.8,64.85V58.26H175V54.81h1.79V51.72h5.06v3.09h2.92v3.45h-2.92v6.11c0,1.08.54,1.56,1.5,1.56a3.9,3.9,0,0,0,1.45-.26v3.85A10.63,10.63,0,0,1,182,70C178.67,70,176.8,68.34,176.8,64.85Z" fill="#fff"/><path d="M195.1,60.35c-2.85-.2-4.24-1.72-4.35-3.89h3.05A1.56,1.56,0,0,0,195.1,58V55.6c-2.87-.41-4.09-1.45-4.09-3.74,0-2,1.57-3.44,4.09-3.62V46.78h1.29v1.48c2.39.2,3.81,1.3,4,3.56h-3a1.31,1.31,0,0,0-1-1.23v2.27c2.52.36,4.17,1.22,4.17,3.61,0,2-1.3,3.7-4.17,3.88v2.06H195.1Zm0-7.69V50.55c-.74.13-1.12.53-1.12,1.06S194.21,52.48,195.1,52.66Zm1.29,3.15V58a1.18,1.18,0,0,0,1.1-1.17C197.49,56.29,197.26,56,196.39,55.81Z" fill="#fff"/><path d="M205.53,55.09l-3.84,2.38V52.63l4.64-3.26h5V69.61h-5.81Z" fill="#fff"/><path d="M214.11,59.93v-.85c0-6.4,4-10,9.34-10s9.34,3.31,9.34,9.88v.79c0,6.42-3.68,10.19-9.45,10.19S214.11,66.3,214.11,59.93ZM227,59.87v-.82c0-3.71-1.08-5.57-3.54-5.57s-3.54,1.84-3.54,5.57v.85c0,3.77,1.11,5.55,3.6,5.55S227,63.61,227,59.87Z" fill="#fff"/><path d="M239.24,62.39v-.22c0-4.93,3.54-7.76,7.9-7.76,3.62,0,7,1.59,7.24,6.09h-4.75a2.2,2.2,0,0,0-2.38-2.16c-1.78,0-2.83,1.28-2.83,3.77v.22c0,2.58,1,3.91,2.91,3.91a2.47,2.47,0,0,0,2.58-2.46h4.56C254.33,67.51,251.81,70,247,70,242.61,70,239.24,67.37,239.24,62.39Z" fill="#fff"/><path d="M256.11,48.3h5.06v8.88A5.24,5.24,0,0,1,266,54.41c2.86,0,4.84,1.78,4.84,5.58v9.62h-5.07V61c0-1.67-.65-2.49-2.12-2.49s-2.52.91-2.52,2.81v8.29h-5.06Z" fill="#fff"/><path d="M272.55,62.39v-.22c0-4.76,3.54-7.76,8-7.76,4.05,0,7.53,2.32,7.53,7.64v1.33H277.67a3,3,0,0,0,3.09,3.09c1.67,0,2.37-.77,2.57-1.76h4.76c-.46,3.34-3,5.24-7.5,5.24C275.94,70,272.55,67.23,272.55,62.39Zm10.61-1.87c-.08-1.78-1-2.77-2.6-2.77s-2.58,1-2.83,2.77Z" fill="#fff"/><path d="M289.13,65.51c0-3.49,2.94-4.84,7.87-4.84h1.41v-.34c0-1.42-.34-2.35-2-2.35a1.81,1.81,0,0,0-2,1.75H289.7c.22-3.56,3-5.32,7.07-5.32s6.68,1.67,6.68,5.6v9.6h-4.92V67.88A4.86,4.86,0,0,1,294.14,70C291.48,70,289.13,68.65,289.13,65.51Zm9.28-1.08v-.91h-1.33c-2,0-2.94.4-2.94,1.62,0,.85.57,1.38,1.76,1.38A2.22,2.22,0,0,0,298.41,64.43Z" fill="#fff"/><path d="M305.91,54.81H311V57a5.23,5.23,0,0,1,4.61-2.6c3.46,0,6.26,2.6,6.26,7.67v.23c0,5.09-2.8,7.64-6.29,7.64A4.88,4.88,0,0,1,311,67.43v7.13h-5.07Zm10.79,7.5v-.23c0-2.6-1.14-3.85-2.92-3.85s-2.94,1.33-2.94,3.82v.23c0,2.52,1.1,3.79,2.94,3.79S316.7,64.74,316.7,62.31Z" fill="#fff"/><path d="M322.89,62.39v-.22c0-4.76,3.54-7.76,8-7.76,4.05,0,7.53,2.32,7.53,7.64v1.33H328a3,3,0,0,0,3.08,3.09c1.67,0,2.38-.77,2.58-1.76h4.75c-.45,3.34-3,5.24-7.5,5.24C326.29,70,322.89,67.23,322.89,62.39Zm10.62-1.87c-.09-1.78-1-2.77-2.61-2.77s-2.57,1-2.83,2.77Z" fill="#fff"/><path d="M340.18,54.81h5.07v2.94A4.65,4.65,0,0,1,350,54.61v4.72c-3.08-.08-4.78.88-4.78,3.26v7h-5.07Z" fill="#fff"/><path d="M357.7,64.85V58.26h-1.78V54.81h1.78V51.72h5.07v3.09h2.91v3.45h-2.91v6.11c0,1.08.53,1.56,1.5,1.56a3.85,3.85,0,0,0,1.44-.26v3.85a10.56,10.56,0,0,1-2.8.43C359.57,70,357.7,68.34,357.7,64.85Z" fill="#fff"/><path d="M367.61,48.3h5.06v8.88a5.24,5.24,0,0,1,4.87-2.77c2.86,0,4.84,1.78,4.84,5.58v9.62h-5.07V61c0-1.67-.65-2.49-2.12-2.49s-2.52.91-2.52,2.81v8.29h-5.06Z" fill="#fff"/><path d="M384,65.51c0-3.49,2.94-4.84,7.87-4.84h1.41v-.34c0-1.42-.34-2.35-1.95-2.35a1.81,1.81,0,0,0-2,1.75h-4.75c.22-3.56,3-5.32,7.07-5.32s6.68,1.67,6.68,5.6v9.6h-4.92V67.88A4.86,4.86,0,0,1,389,70C386.34,70,384,68.65,384,65.51Zm9.28-1.08v-.91h-1.33c-2,0-2.94.4-2.94,1.62,0,.85.57,1.38,1.75,1.38C392.2,66.52,393.27,65.7,393.27,64.43Z" fill="#fff"/><path d="M400.77,54.81h5.07v2.37a5.23,5.23,0,0,1,4.87-2.77c2.86,0,4.84,1.78,4.84,5.58v9.62h-5.07V61c0-1.67-.65-2.49-2.12-2.49s-2.52.91-2.52,2.81v8.29h-5.07Z" fill="#fff"/><path d="M427.49,53.84h-5.24V49.37h16.3v4.47h-5.23V69.61h-5.83Z" fill="#fff"/><path d="M439,64.46V54.81h5.07v8.83c0,1.67.65,2.49,2.1,2.49s2.52-.91,2.52-2.8V54.81h5.06v14.8h-5.06V67.32A4.87,4.87,0,0,1,444,70C441.13,70,439,68.19,439,64.46Z" fill="#fff"/><path d="M456.32,54.81h5.07v2.94a4.66,4.66,0,0,1,4.78-3.14v4.72c-3.08-.08-4.78.88-4.78,3.26v7h-5.07Z" fill="#fff"/><path d="M473.08,67.32v2.29H468V48.3h5.07V57a5.23,5.23,0,0,1,4.61-2.6c3.46,0,6.26,2.6,6.26,7.67v.23c0,5.09-2.8,7.64-6.29,7.64A4.8,4.8,0,0,1,473.08,67.32Zm5.72-5v-.23c0-2.6-1.14-3.85-2.92-3.85s-2.94,1.33-2.94,3.82v.23c0,2.52,1.1,3.79,2.94,3.79S478.8,64.74,478.8,62.31Z" fill="#fff"/><path d="M485,62.39v-.22c0-4.76,3.54-7.76,8.13-7.76s8.06,2.92,8.06,7.61v.23c0,4.81-3.54,7.7-8.09,7.7S485,67.18,485,62.39Zm11-.08v-.23c0-2.49-1-3.88-2.91-3.88s-2.95,1.33-2.95,3.82v.23c0,2.55,1,3.93,2.95,3.93S496,64.77,496,62.31Z" fill="#fff"/><path d="M507.29,53.84h-5.23V49.37h16.3v4.47h-5.24V69.61h-5.83Z" fill="#fff"/><path d="M517.34,65.51c0-3.49,2.94-4.84,7.87-4.84h1.41v-.34c0-1.42-.34-2.35-2-2.35a1.81,1.81,0,0,0-2,1.75H517.9c.23-3.56,3-5.32,7.08-5.32s6.68,1.67,6.68,5.6v9.6h-4.92V67.88A4.86,4.86,0,0,1,522.35,70C519.69,70,517.34,68.65,517.34,65.51Zm9.28-1.08v-.91h-1.33c-2,0-2.94.4-2.94,1.62,0,.85.57,1.38,1.75,1.38C525.55,66.52,526.62,65.7,526.62,64.43Z" fill="#fff"/><path d="M537.86,62.08l-4.62-7.27h5.83l2.3,3.9,2.23-3.9h5.21l-4.67,6.87,5.12,7.93h-5.83l-2.63-4.42-2.69,4.42h-5.18Z" fill="#fff"/><path d="M550.28,67.06a2.83,2.83,0,0,1,2.89-2.86,2.86,2.86,0,1,1,0,5.72A2.82,2.82,0,0,1,550.28,67.06Z" fill="#fff"/></g></g></g></svg>