<svg xmlns="http://www.w3.org/2000/svg" viewBox="0 0 300 600"><title>H7</title><g id="Layer_2" data-name="Layer 2"><g id="Artboard_2" data-name="Artboard 2" style="isolation:isolate"><g id="headline1"><g id="Expert_tax_prep_with_the_snap_of_some_pics._Try_Tax_Pro_Go" data-name="Expert tax  prep with  the snap  of some  pics. Try  Tax Pro Go"><path d="M23.26,94.34H46.58v7.46H32.89v5.8h10.9v6.9H32.89v6.13H47.33v7.46H23.26Z" fill="#fff"/><path d="M57,115.53l-7.7-12.13h9.73l3.82,6.52,3.73-6.52h8.69L67.5,114.87,76,128.09H66.32l-4.39-7.36-4.49,7.36H48.8Z" fill="#fff"/><path d="M78.4,103.4h8.45v3.68a8.72,8.72,0,0,1,7.7-4.34c5.76,0,10.43,4.34,10.43,12.79v.38c0,8.5-4.67,12.75-10.48,12.75-3.73,0-6.42-1.75-7.65-4.2v11.89H78.4Zm18,12.51v-.38c0-4.34-1.89-6.42-4.86-6.42s-4.91,2.22-4.91,6.38v.37c0,4.21,1.84,6.33,4.91,6.33S96.39,120,96.39,115.91Z" fill="#fff"/><path d="M106.73,116.05v-.37c0-7.94,5.9-12.94,13.36-12.94,6.75,0,12.56,3.87,12.56,12.75v2.22H115.28c.23,3.25,2.12,5.14,5.14,5.14,2.79,0,4-1.27,4.3-2.93h7.93c-.75,5.58-5.05,8.74-12.51,8.74C112.4,128.66,106.73,124.13,106.73,116.05Zm17.71-3.11c-.14-3-1.61-4.63-4.35-4.63-2.55,0-4.29,1.65-4.72,4.63Z" fill="#fff"/><path d="M135.58,103.4H144v4.91a7.79,7.79,0,0,1,8-5.24V111c-5.15-.14-8,1.47-8,5.43v11.71h-8.45Z" fill="#fff"/><path d="M156.59,120.16v-11h-3V103.4h3V98.25H165v5.15h4.86v5.76H165v10.2c0,1.79.9,2.6,2.5,2.6a6.47,6.47,0,0,0,2.41-.43V128a17.8,17.8,0,0,1-4.67.71C159.71,128.66,156.59,126,156.59,120.16Z" fill="#fff"/><path d="M182.84,120.16v-11h-3V103.4h3V98.25h8.45v5.15h4.86v5.76h-4.86v10.2c0,1.79.9,2.6,2.5,2.6a6.47,6.47,0,0,0,2.41-.43V128a17.8,17.8,0,0,1-4.67.71C186,128.66,182.84,126,182.84,120.16Z" fill="#fff"/><path d="M198,121.25c0-5.81,4.92-8.08,13.13-8.08h2.36v-.56c0-2.36-.57-3.92-3.26-3.92a3,3,0,0,0-3.35,2.93H199c.38-6,5-8.88,11.8-8.88s11.14,2.79,11.14,9.35v16h-8.21v-2.88c-1.18,1.8-3.35,3.45-7.32,3.45C202,128.66,198,126.49,198,121.25Zm15.49-1.8v-1.51h-2.22c-3.4,0-4.91.66-4.91,2.69,0,1.42.95,2.32,2.93,2.32C211.74,123,213.53,121.58,213.53,119.45Z" fill="#fff"/><path d="M232.28,115.53l-7.7-12.13h9.72l3.83,6.52,3.73-6.52h8.69l-7.79,11.47,8.54,13.22h-9.72l-4.4-7.36-4.48,7.36h-8.64Z" fill="#fff"/><path d="M22.5,153.4H31v3.68a8.72,8.72,0,0,1,7.7-4.34c5.76,0,10.43,4.34,10.43,12.79v.38c0,8.5-4.67,12.75-10.48,12.75-3.73,0-6.42-1.75-7.65-4.2v11.89H22.5Zm18,12.51v-.38c0-4.34-1.89-6.42-4.86-6.42s-4.91,2.22-4.91,6.38v.37c0,4.21,1.84,6.33,4.91,6.33S40.49,170,40.49,165.91Z" fill="#fff"/><path d="M52.15,153.4H60.6v4.91a7.79,7.79,0,0,1,8-5.24V161c-5.14-.14-8,1.47-8,5.43v11.71H52.15Z" fill="#fff"/><path d="M70.1,166.05v-.37c0-7.94,5.9-12.94,13.36-12.94,6.75,0,12.55,3.87,12.55,12.75v2.22H78.64c.24,3.25,2.13,5.14,5.15,5.14,2.78,0,4-1.27,4.29-2.93H96c-.75,5.58-5.05,8.74-12.51,8.74C75.76,178.66,70.1,174.13,70.1,166.05Zm17.7-3.11c-.14-3-1.61-4.63-4.34-4.63-2.55,0-4.3,1.65-4.73,4.63Z" fill="#fff"/><path d="M98.94,153.4h8.45v3.68a8.72,8.72,0,0,1,7.7-4.34c5.76,0,10.43,4.34,10.43,12.79v.38c0,8.5-4.67,12.75-10.48,12.75-3.73,0-6.42-1.75-7.65-4.2v11.89H98.94Zm18,12.51v-.38c0-4.34-1.89-6.42-4.86-6.42s-4.91,2.22-4.91,6.38v.37c0,4.21,1.84,6.33,4.91,6.33S116.93,170,116.93,165.91Z" fill="#fff"/><path d="M135.11,153.4h8.83l3.59,14.78,4.15-14.78h6.8l3.68,14.78,4-14.78h8l-7.84,24.69h-8.07l-3.68-13.78-3.83,13.78h-8.21Z" fill="#fff"/><path d="M176.19,146.7a4.4,4.4,0,0,1,4.62-4.39,4.38,4.38,0,1,1,0,8.73A4.37,4.37,0,0,1,176.19,146.7Zm.42,6.7h8.45v24.69h-8.45Z" fill="#fff"/><path d="M190.73,170.16v-11h-3V153.4h3v-5.15h8.45v5.15H204v5.76h-4.86v10.2c0,1.79.9,2.6,2.5,2.6a6.51,6.51,0,0,0,2.41-.43V178a17.87,17.87,0,0,1-4.67.71C193.84,178.66,190.73,176,190.73,170.16Z" fill="#fff"/><path d="M207.25,142.54h8.45v14.83a8.73,8.73,0,0,1,8.12-4.63c4.77,0,8.08,3,8.08,9.3v16.05h-8.45V163.74c0-2.79-1.09-4.15-3.54-4.15s-4.21,1.51-4.21,4.67v13.83h-8.45Z" fill="#fff"/><path d="M23.64,220.16v-11h-3V203.4h3v-5.15h8.45v5.15H37v5.76H32.09v10.2c0,1.79.89,2.6,2.5,2.6a6.55,6.55,0,0,0,2.41-.43V228a18,18,0,0,1-4.68.71C26.75,228.66,23.64,226,23.64,220.16Z" fill="#fff"/><path d="M40.16,192.54h8.45v14.83a8.71,8.71,0,0,1,8.12-4.63c4.77,0,8.07,3,8.07,9.3v16.05H56.35V213.74c0-2.79-1.08-4.15-3.54-4.15s-4.2,1.51-4.2,4.67v13.83H40.16Z" fill="#fff"/><path d="M67.59,216.05v-.37c0-7.94,5.9-12.94,13.36-12.94,6.75,0,12.56,3.87,12.56,12.75v2.22H76.14c.23,3.25,2.12,5.14,5.14,5.14,2.79,0,4-1.27,4.3-2.93h7.93c-.75,5.58-5.05,8.74-12.51,8.74C73.26,228.66,67.59,224.13,67.59,216.05Zm17.71-3.11c-.15-3-1.61-4.63-4.35-4.63-2.55,0-4.29,1.65-4.72,4.63Z" fill="#fff"/><path d="M103.38,220.26h7.79c.28,1.79,1.09,2.78,3.49,2.78,2.08,0,3-.8,3-2s-1.19-1.75-4.58-2.22c-6.61-.85-9.4-2.78-9.4-7.93,0-5.48,4.86-8.12,10.58-8.12,6.09,0,10.34,2.08,10.9,8h-7.65c-.33-1.65-1.22-2.46-3.16-2.46s-2.79.81-2.79,1.94,1.14,1.65,4.16,2c6.84.85,10.15,2.64,10.15,7.93,0,5.86-4.34,8.5-11.19,8.5C107.68,228.66,103.57,225.73,103.38,220.26Z" fill="#fff"/><path d="M128.64,203.4h8.45v4a8.71,8.71,0,0,1,8.12-4.63c4.77,0,8.07,3,8.07,9.3v16.05h-8.45V213.74c0-2.79-1.08-4.15-3.54-4.15s-4.2,1.51-4.2,4.67v13.83h-8.45Z" fill="#fff"/><path d="M156,221.25c0-5.81,4.91-8.08,13.12-8.08h2.36v-.56c0-2.36-.56-3.92-3.25-3.92a3,3,0,0,0-3.36,2.93h-7.93c.38-6,5.05-8.88,11.81-8.88s11.14,2.79,11.14,9.35v16h-8.22v-2.88c-1.18,1.8-3.35,3.45-7.32,3.45C159.9,228.66,156,226.49,156,221.25Zm15.48-1.8v-1.51h-2.22c-3.39,0-4.91.66-4.91,2.69,0,1.42.95,2.32,2.93,2.32C169.67,223,171.46,221.58,171.46,219.45Z" fill="#fff"/><path d="M184,203.4h8.45v3.68a8.7,8.7,0,0,1,7.69-4.34c5.76,0,10.44,4.34,10.44,12.79v.38c0,8.5-4.68,12.75-10.49,12.75-3.73,0-6.42-1.75-7.64-4.2v11.89H184Zm18,12.51v-.38c0-4.34-1.89-6.42-4.86-6.42s-4.91,2.22-4.91,6.38v.37c0,4.21,1.84,6.33,4.91,6.33S202,220,202,215.91Z" fill="#fff"/><path d="M21.18,266.05v-.37c0-7.94,5.9-12.94,13.55-12.94s13.45,4.86,13.45,12.7v.38c0,8-5.9,12.84-13.5,12.84S21.18,274,21.18,266.05Zm18.41-.14v-.38c0-4.15-1.65-6.46-4.86-6.46s-4.91,2.22-4.91,6.37v.38c0,4.25,1.65,6.56,4.91,6.56S39.59,270,39.59,265.91Z" fill="#fff"/><path d="M52.44,259.16H49.32V253.4h3.12v-2.17c0-6.14,3.82-9.06,9.67-9.06a15.34,15.34,0,0,1,3.88.51v6.19a7.78,7.78,0,0,0-2.32-.33c-2,0-2.83,1.08-2.83,2.69v2.17h5v5.76h-5v18.93h-8.4Z" fill="#fff"/><path d="M75.62,270.26h7.79c.28,1.79,1.08,2.78,3.49,2.78,2.08,0,3-.8,3-2s-1.18-1.75-4.58-2.22C78.73,267.94,76,266,76,260.86c0-5.48,4.86-8.12,10.57-8.12,6.09,0,10.34,2.08,10.91,8H89.78c-.33-1.65-1.23-2.46-3.16-2.46s-2.79.81-2.79,1.94,1.14,1.65,4.16,2c6.84.85,10.15,2.64,10.15,7.93,0,5.86-4.35,8.5-11.19,8.5C79.91,278.66,75.81,275.73,75.62,270.26Z" fill="#fff"/><path d="M99.7,266.05v-.37c0-7.94,5.9-12.94,13.55-12.94s13.45,4.86,13.45,12.7v.38c0,8-5.9,12.84-13.5,12.84S99.7,274,99.7,266.05Zm18.41-.14v-.38c0-4.15-1.65-6.46-4.86-6.46s-4.91,2.22-4.91,6.37v.38c0,4.25,1.65,6.56,4.91,6.56S118.11,270,118.11,265.91Z" fill="#fff"/><path d="M129.68,253.4h8.45v3.78a8.63,8.63,0,0,1,7.74-4.44c3.26,0,5.53,1.42,6.71,4.11a9.78,9.78,0,0,1,8.16-4.11c4.68,0,8.08,3,8.08,9.21v16.14h-8.45V263.36c0-2.5-1.23-3.73-3.17-3.73-2.26,0-3.77,1.47-3.77,4.16v14.3h-8.36V263.36c0-2.5-1.23-3.73-3.16-3.73-2.27,0-3.78,1.47-3.78,4.16v14.3h-8.45Z" fill="#fff"/><path d="M171.61,266.05v-.37c0-7.94,5.9-12.94,13.36-12.94,6.75,0,12.56,3.87,12.56,12.75v2.22H180.15c.24,3.25,2.13,5.14,5.15,5.14,2.78,0,4-1.27,4.29-2.93h7.94c-.76,5.58-5.06,8.74-12.52,8.74C177.27,278.66,171.61,274.13,171.61,266.05Zm17.7-3.11c-.14-3-1.6-4.63-4.34-4.63-2.55,0-4.3,1.65-4.72,4.63Z" fill="#fff"/><path d="M22.5,303.4H31v3.68a8.72,8.72,0,0,1,7.7-4.34c5.76,0,10.43,4.34,10.43,12.79v.38c0,8.5-4.67,12.75-10.48,12.75-3.73,0-6.42-1.75-7.65-4.2v11.89H22.5Zm18,12.51v-.38c0-4.34-1.89-6.42-4.86-6.42s-4.91,2.22-4.91,6.38v.37c0,4.21,1.84,6.33,4.91,6.33S40.49,320,40.49,315.91Z" fill="#fff"/><path d="M52,296.7A4.66,4.66,0,1,1,56.59,301,4.41,4.41,0,0,1,52,296.7Zm.43,6.7h8.45v24.69H52.39Z" fill="#fff"/><path d="M64.05,316.05v-.37c0-8.22,5.9-12.94,13.17-12.94,6,0,11.62,2.64,12.09,10.15H81.38c-.38-2.31-1.51-3.59-4-3.59-3,0-4.72,2.13-4.72,6.28V316c0,4.29,1.65,6.51,4.86,6.51,2.36,0,4-1.41,4.3-4.1h7.6C89.21,324.6,85,328.66,77,328.66,69.67,328.66,64.05,324.36,64.05,316.05Z" fill="#fff"/><path d="M90.87,320.25h7.79c.28,1.8,1.08,2.79,3.49,2.79,2.08,0,3-.8,3-2s-1.18-1.75-4.58-2.22c-6.61-.85-9.39-2.78-9.39-7.93,0-5.48,4.86-8.12,10.57-8.12,6.09,0,10.34,2.08,10.91,8H105c-.33-1.65-1.23-2.46-3.16-2.46s-2.79.81-2.79,1.94,1.14,1.65,4.16,2c6.84.85,10.15,2.64,10.15,7.93,0,5.85-4.35,8.5-11.19,8.5C95.17,328.66,91.06,325.73,90.87,320.25Z" fill="#fff"/><path d="M115.8,323.84a4.71,4.71,0,0,1,4.81-4.77,4.77,4.77,0,1,1,0,9.54A4.7,4.7,0,0,1,115.8,323.84Z" fill="#fff"/><path d="M145.35,301.8h-8.73v-7.46h27.19v7.46h-8.73v26.29h-9.73Z" fill="#fff"/><path d="M165.18,303.4h8.45v4.91a7.79,7.79,0,0,1,8-5.24V311c-5.14-.14-8,1.47-8,5.43v11.71h-8.45Z" fill="#fff"/><path d="M192.8,325.59l-9.86-22.19h9.16l5.1,13.17,4.72-13.17H210l-13.22,33H188.7Z" fill="#fff"/><path d="M29.73,351.8H21v-7.46H48.18v7.46H39.45v26.29H29.73Z" fill="#fff"/><path d="M46.49,371.25c0-5.81,4.91-8.08,13.12-8.08H62v-.56c0-2.36-.56-3.92-3.25-3.92a3,3,0,0,0-3.36,2.93H47.43c.38-5.95,5-8.88,11.8-8.88s11.15,2.79,11.15,9.35v16H62.16v-2.88c-1.18,1.8-3.35,3.45-7.32,3.45C50.41,378.66,46.49,376.49,46.49,371.25ZM62,369.45v-1.51H59.75c-3.39,0-4.91.66-4.91,2.69,0,1.42.95,2.32,2.93,2.32C60.18,373,62,371.58,62,369.45Z" fill="#fff"/><path d="M80.72,365.53,73,353.4h9.73l3.82,6.52,3.73-6.52H99L91.2,364.87l8.54,13.22H90l-4.39-7.36-4.49,7.36H72.5Z" fill="#fff"/><path d="M111.45,344.34H124.3c9.25,0,13.55,4.1,13.55,11.28v.19c0,7.08-4.77,10.9-13.13,10.9h-3.63v11.38h-9.64Zm12.42,15.76c3.12,0,4.77-1.46,4.77-4.24v-.19c0-2.88-1.7-4.06-4.72-4.06h-2.83v8.49Z" fill="#fff"/><path d="M140.77,353.4h8.46v4.91a7.77,7.77,0,0,1,8-5.24V361c-5.14-.14-8,1.47-8,5.43v11.71h-8.46Z" fill="#fff"/><path d="M158.72,366.05v-.37c0-7.94,5.9-12.94,13.55-12.94s13.45,4.86,13.45,12.7v.38c0,8-5.9,12.84-13.5,12.84S158.72,374,158.72,366.05Zm18.41-.14v-.38c0-4.15-1.65-6.46-4.86-6.46s-4.91,2.22-4.91,6.37v.38c0,4.25,1.65,6.56,4.91,6.56S177.13,370,177.13,365.91Z" fill="#fff"/><path d="M196.25,361.43v-.38c0-10.29,7.56-17.23,17.71-17.23,8,0,15.06,3.63,15.72,12.41h-9.59c-.47-3.16-2.5-4.81-6.09-4.81-4.77,0-7.65,3.68-7.65,9.77v.38c0,5.47,2,9.72,7.89,9.72,4.72,0,6.51-2.4,6.7-5.1h-6.32v-6.75h15.86v4.16c0,8.59-5.62,15.06-16.52,15.06C202.48,378.66,196.25,371.53,196.25,361.43Z" fill="#fff"/><path d="M232.42,366.05v-.37c0-7.94,5.9-12.94,13.55-12.94s13.45,4.86,13.45,12.7v.38c0,8-5.9,12.84-13.5,12.84S232.42,374,232.42,366.05Zm18.41-.14v-.38c0-4.15-1.65-6.46-4.86-6.46s-4.91,2.22-4.91,6.37v.38c0,4.25,1.65,6.56,4.91,6.56S250.83,370,250.83,365.91Z" fill="#fff"/><path d="M261,373.84a4.71,4.71,0,0,1,4.82-4.77,4.77,4.77,0,1,1,0,9.54A4.71,4.71,0,0,1,261,373.84Z" fill="#fff"/><rect width="300" height="600" fill="none"/></g></g></g></g></svg>