<svg xmlns="http://www.w3.org/2000/svg" viewBox="0 0 300 600"><title>Asset 13</title><g id="Layer_2" data-name="Layer 2"><g id="Rect"><rect width="300" height="600" fill="none"/></g><g id="Know_the_price._No_surprises." data-name="Knowthe price.No surprises."><path d="M21.88,176.59h8.6V188.4l9-11.81h8.93L37.45,190.45l11.53,16h-9.9L30.48,194v12.49h-8.6Z" fill="#fff"/><path d="M50.6,184.6h7.48v3.51A7.72,7.72,0,0,1,65.26,184c4.22,0,7.14,2.63,7.14,8.22v14.2H64.92V193.75c0-2.47-1-3.68-3.13-3.68s-3.71,1.34-3.71,4.14v12.23H50.6Z" fill="#fff"/><path d="M74.86,195.79v-.33c0-7,5.22-11.44,12-11.44s11.9,4.3,11.9,11.23v.33c0,7.1-5.22,11.36-11.94,11.36S74.86,202.85,74.86,195.79Zm16.28-.12v-.34c0-3.67-1.46-5.72-4.3-5.72s-4.34,2-4.34,5.64v.33c0,3.76,1.46,5.81,4.34,5.81S91.14,199.3,91.14,195.67Z" fill="#fff"/><path d="M98.83,184.6h7.8l3.18,13.07,3.67-13.07h6l3.26,13.07,3.55-13.07h7.09l-6.93,21.84h-7.14l-3.25-12.19-3.38,12.19h-7.27Z" fill="#fff"/><path d="M22.21,243.17v-9.72H19.58v-5.1h2.63V223.8h7.48v4.55H34v5.1h-4.3v9c0,1.59.79,2.3,2.21,2.3a5.7,5.7,0,0,0,2.13-.38v5.68a15.67,15.67,0,0,1-4.13.63C25,250.69,22.21,248.31,22.21,243.17Z" fill="#fff"/><path d="M36.83,218.75H44.3v13.11a7.72,7.72,0,0,1,7.18-4.09c4.22,0,7.14,2.63,7.14,8.22v14.2H51.15V237.5c0-2.47-1-3.68-3.13-3.68S44.3,235.16,44.3,238v12.23H36.83Z" fill="#fff"/><path d="M61.08,239.54v-.33c0-7,5.22-11.44,11.82-11.44,6,0,11.1,3.42,11.1,11.27v2H68.64c.21,2.88,1.88,4.55,4.55,4.55,2.46,0,3.51-1.12,3.8-2.59h7c-.67,4.93-4.46,7.73-11.06,7.73C66.09,250.69,61.08,246.68,61.08,239.54Zm15.66-2.75c-.13-2.63-1.42-4.1-3.84-4.1-2.26,0-3.8,1.47-4.18,4.1Z" fill="#fff"/><path d="M94.19,228.35h7.47v3.26a7.72,7.72,0,0,1,6.81-3.84c5.09,0,9.22,3.84,9.22,11.31v.34c0,7.51-4.13,11.27-9.26,11.27-3.3,0-5.68-1.55-6.77-3.72v10.52H94.19Zm15.91,11.07v-.34c0-3.84-1.67-5.68-4.3-5.68s-4.35,2-4.35,5.64v.33c0,3.72,1.63,5.6,4.35,5.6S110.1,243,110.1,239.42Z" fill="#fff"/><path d="M120.41,228.35h7.47v4.34a6.9,6.9,0,0,1,7.06-4.63v7c-4.55-.12-7.06,1.3-7.06,4.8v10.36h-7.47Z" fill="#fff"/><path d="M137.48,222.42a4.12,4.12,0,1,1,4.1,3.85A3.91,3.91,0,0,1,137.48,222.42Zm.38,5.93h7.47v21.84h-7.47Z" fill="#fff"/><path d="M148.17,239.54v-.33c0-7.27,5.22-11.44,11.65-11.44,5.34,0,10.27,2.34,10.69,9h-7c-.33-2-1.33-3.17-3.5-3.17-2.63,0-4.18,1.88-4.18,5.55v.34c0,3.8,1.46,5.76,4.3,5.76a3.63,3.63,0,0,0,3.8-3.63h6.72c-.21,5.51-3.92,9.1-11,9.1C153.14,250.69,148.17,246.89,148.17,239.54Z" fill="#fff"/><path d="M171.89,239.54v-.33c0-7,5.21-11.44,11.81-11.44,6,0,11.11,3.42,11.11,11.27v2H179.44c.21,2.88,1.88,4.55,4.55,4.55,2.47,0,3.51-1.12,3.8-2.59h7c-.67,4.93-4.47,7.73-11.07,7.73C176.9,250.69,171.89,246.68,171.89,239.54Zm15.65-2.75c-.12-2.63-1.42-4.1-3.84-4.1-2.25,0-3.8,1.47-4.17,4.1Z" fill="#fff"/><path d="M196.89,246.43a4.17,4.17,0,0,1,4.26-4.22,4.22,4.22,0,1,1,0,8.44A4.17,4.17,0,0,1,196.89,246.43Z" fill="#fff"/><path d="M21.88,264.09h9.64l9.56,16.82V264.09h7.48v29.85H40.29L29.4,275.19v18.75H21.88Z" fill="#fff"/><path d="M51.56,283.29V283c0-7,5.22-11.44,12-11.44s11.89,4.3,11.89,11.23v.33c0,7.1-5.21,11.36-11.94,11.36S51.56,290.35,51.56,283.29Zm16.29-.12v-.34c0-3.67-1.46-5.72-4.3-5.72s-4.34,2-4.34,5.64v.33c0,3.76,1.46,5.81,4.34,5.81S67.85,286.8,67.85,283.17Z" fill="#fff"/><path d="M84.21,287H91.1c.25,1.58,1,2.46,3.09,2.46,1.84,0,2.67-.71,2.67-1.79s-1-1.55-4-2c-5.84-.75-8.3-2.46-8.3-7,0-4.84,4.3-7.18,9.35-7.18,5.38,0,9.14,1.84,9.64,7.05H96.74a2.44,2.44,0,0,0-2.8-2.17c-1.63,0-2.46.71-2.46,1.71s1,1.47,3.67,1.8c6,.75,9,2.34,9,7,0,5.18-3.84,7.52-9.9,7.52C88,294.44,84.38,291.85,84.21,287Z" fill="#fff"/><path d="M106.38,286.34V272.1h7.47v13c0,2.46,1,3.67,3.09,3.67s3.72-1.33,3.72-4.13V272.1h7.47v21.84h-7.47v-3.38c-1.17,2.25-3.3,3.88-6.93,3.88C109.51,294.44,106.38,291.85,106.38,286.34Z" fill="#fff"/><path d="M131.93,272.1h7.48v4.34a6.88,6.88,0,0,1,7.05-4.63v7c-4.55-.12-7.05,1.3-7.05,4.8v10.36h-7.48Z" fill="#fff"/><path d="M149.17,272.1h7.48v3.26a7.69,7.69,0,0,1,6.8-3.84c5.1,0,9.23,3.84,9.23,11.31v.34c0,7.51-4.13,11.27-9.27,11.27-3.3,0-5.68-1.55-6.76-3.72v10.52h-7.48Zm15.91,11.07v-.34c0-3.84-1.67-5.68-4.3-5.68s-4.34,2-4.34,5.64v.33c0,3.72,1.63,5.6,4.34,5.6S165.08,286.76,165.08,283.17Z" fill="#fff"/><path d="M175.39,272.1h7.48v4.34a6.88,6.88,0,0,1,7-4.63v7c-4.55-.12-7,1.3-7,4.8v10.36h-7.48Z" fill="#fff"/><path d="M192.47,266.17a4.12,4.12,0,1,1,4.09,3.85A3.9,3.9,0,0,1,192.47,266.17Zm.37,5.93h7.48v21.84h-7.48Z" fill="#fff"/><path d="M202.87,287h6.88c.25,1.58,1,2.46,3.09,2.46,1.84,0,2.67-.71,2.67-1.79s-1-1.55-4-2c-5.84-.75-8.3-2.46-8.3-7,0-4.84,4.3-7.18,9.35-7.18,5.38,0,9.14,1.84,9.64,7.05h-6.76a2.44,2.44,0,0,0-2.8-2.17c-1.63,0-2.46.71-2.46,1.71s1,1.47,3.67,1.8c6.06.75,9,2.34,9,7,0,5.18-3.84,7.52-9.9,7.52C206.66,294.44,203,291.85,202.87,287Z" fill="#fff"/><path d="M224.16,283.29V283c0-7,5.22-11.44,11.81-11.44,6,0,11.11,3.42,11.11,11.27v2H231.71c.21,2.88,1.88,4.55,4.55,4.55,2.47,0,3.51-1.12,3.8-2.59h7c-.67,4.93-4.47,7.73-11.07,7.73C229.17,294.44,224.16,290.43,224.16,283.29Zm15.65-2.75c-.12-2.63-1.42-4.1-3.84-4.1-2.25,0-3.8,1.47-4.17,4.1Z" fill="#fff"/><path d="M248.41,287h6.89c.25,1.58,1,2.46,3.09,2.46,1.84,0,2.67-.71,2.67-1.79s-1-1.55-4.05-2c-5.84-.75-8.3-2.46-8.3-7,0-4.84,4.29-7.18,9.35-7.18,5.38,0,9.14,1.84,9.64,7.05h-6.76a2.44,2.44,0,0,0-2.8-2.17c-1.63,0-2.46.71-2.46,1.71s1,1.47,3.67,1.8c6,.75,9,2.34,9,7,0,5.18-3.84,7.52-9.9,7.52C252.21,294.44,248.58,291.85,248.41,287Z" fill="#fff"/><path d="M270.46,290.18a4.16,4.16,0,0,1,4.25-4.22,4.22,4.22,0,1,1,0,8.44A4.16,4.16,0,0,1,270.46,290.18Z" fill="#fff"/></g></g></svg>