<svg xmlns="http://www.w3.org/2000/svg" viewBox="0 0 728 90"><title>Asset 5</title><g id="Layer_2" data-name="Layer 2"><g id="Rect"><rect width="728" height="90" fill="none"/></g><g id="Don_t_guess_your_price._Know_as_you_go." data-name="Don&apos;t guess your price. Know as you go."><path d="M122.28,16.25h8.58c8.38,0,12.64,4.19,12.64,11.52V28c0,7.36-4.36,11.82-12.67,11.82h-8.55Zm8.35,18.38c4,0,5.81-2.11,5.81-6.5v-.26c0-4.49-1.79-6.41-5.88-6.41h-1.48V34.63Z" fill="#fff"/><path d="M144.85,31.43v-.26c0-5.55,4.12-9,9.47-9s9.41,3.4,9.41,8.88v.27c0,5.61-4.13,9-9.44,9S144.85,37,144.85,31.43Zm12.87-.1v-.26c0-2.9-1.15-4.52-3.4-4.52s-3.43,1.55-3.43,4.45v.27c0,3,1.15,4.58,3.43,4.58S157.72,34.21,157.72,31.33Z" fill="#fff"/><path d="M165.8,22.59h5.91v2.77a6.11,6.11,0,0,1,5.68-3.24c3.33,0,5.64,2.08,5.64,6.51V39.85h-5.91v-10c0-1.95-.75-2.91-2.47-2.91s-2.94,1.06-2.94,3.27v9.67H165.8Z" fill="#fff"/><path d="M184.75,16.25h5.77l-.69,9.08h-4.42Z" fill="#fff"/><path d="M194.22,34.3V26.61h-2.08v-4h2.08V19h5.9v3.6h3.4v4h-3.4v7.13c0,1.26.63,1.82,1.75,1.82a4.5,4.5,0,0,0,1.69-.3v4.49a12.35,12.35,0,0,1-3.27.49C196.4,40.24,194.22,38.36,194.22,34.3Z" fill="#fff"/><path d="M210.81,39.85h5.88c.26,1.25,1,2.24,3.17,2.24,2.61,0,3.66-1.48,3.66-3.63V35.82A6.05,6.05,0,0,1,218.17,39c-4,0-7.32-3-7.32-8.28v-.27c0-5.08,3.27-8.32,7.32-8.32A5.62,5.62,0,0,1,223.52,25V22.59h5.91V38.4c0,5.15-3.4,7.85-9.57,7.85C214,46.25,211.28,43.78,210.81,39.85Zm12.88-9.18v-.23c0-2.37-1.22-3.89-3.4-3.89s-3.4,1.55-3.4,3.93v.26c0,2.38,1.25,3.89,3.36,3.89S223.69,33.12,223.69,30.67Z" fill="#fff"/><path d="M232.3,33.84V22.59h5.91V32.88c0,1.95.75,2.91,2.44,2.91s2.94-1.06,2.94-3.27V22.59h5.9V39.85h-5.9V37.18a5.68,5.68,0,0,1-5.48,3.06C234.77,40.24,232.3,38.2,232.3,33.84Z" fill="#fff"/><path d="M251.57,31.43v-.26c0-5.55,4.12-9,9.34-9,4.72,0,8.78,2.71,8.78,8.92v1.55H257.54c.17,2.27,1.49,3.6,3.6,3.6,1.95,0,2.77-.9,3-2h5.55c-.53,3.89-3.53,6.1-8.75,6.1C255.53,40.24,251.57,37.08,251.57,31.43ZM264,29.25c-.1-2.08-1.13-3.23-3-3.23s-3,1.15-3.3,3.23Z" fill="#fff"/><path d="M270.74,34.37h5.45c.2,1.25.76,2,2.44,2,1.45,0,2.11-.56,2.11-1.42s-.82-1.22-3.2-1.55c-4.62-.6-6.57-2-6.57-5.55,0-3.83,3.4-5.68,7.4-5.68,4.25,0,7.22,1.46,7.62,5.58h-5.35A1.93,1.93,0,0,0,278.43,26c-1.29,0-1.95.56-1.95,1.35s.8,1.16,2.91,1.42c4.78.59,7.09,1.85,7.09,5.54,0,4.1-3,5.94-7.82,5.94S270.87,38.2,270.74,34.37Z" fill="#fff"/><path d="M287.34,34.37h5.45c.19,1.25.75,2,2.44,2,1.45,0,2.11-.56,2.11-1.42s-.82-1.22-3.2-1.55c-4.62-.6-6.57-2-6.57-5.55,0-3.83,3.4-5.68,7.39-5.68,4.26,0,7.23,1.46,7.63,5.58h-5.35A1.93,1.93,0,0,0,295,26c-1.29,0-1.95.56-1.95,1.35s.8,1.16,2.91,1.42c4.78.59,7.09,1.85,7.09,5.54,0,4.1-3,5.94-7.82,5.94S287.47,38.2,287.34,34.37Z" fill="#fff"/><path d="M316.41,38.1l-6.89-15.51h6.4l3.56,9.21,3.3-9.21h5.65l-9.24,23h-5.65Z" fill="#fff"/><path d="M328.09,31.43v-.26c0-5.55,4.13-9,9.48-9S347,25.52,347,31v.27c0,5.61-4.12,9-9.44,9S328.09,37,328.09,31.43Zm12.88-.1v-.26c0-2.9-1.16-4.52-3.4-4.52s-3.44,1.55-3.44,4.45v.27c0,3,1.16,4.58,3.44,4.58S341,34.21,341,31.33Z" fill="#fff"/><path d="M348.92,33.84V22.59h5.91V32.88c0,1.95.75,2.91,2.44,2.91s2.94-1.06,2.94-3.27V22.59h5.9V39.85h-5.9V37.18a5.68,5.68,0,0,1-5.48,3.06C351.39,40.24,348.92,38.2,348.92,33.84Z" fill="#fff"/><path d="M369.11,22.59H375V26a5.43,5.43,0,0,1,5.58-3.66v5.51c-3.6-.1-5.58,1-5.58,3.79v8.19h-5.91Z" fill="#fff"/><path d="M388.75,22.59h5.91v2.57a6.09,6.09,0,0,1,5.38-3c4,0,7.29,3,7.29,9v.26c0,5.94-3.27,8.91-7.33,8.91a5.68,5.68,0,0,1-5.34-2.93v8.31h-5.91Zm12.57,8.74v-.26c0-3-1.32-4.49-3.4-4.49s-3.43,1.55-3.43,4.46v.26c0,2.94,1.29,4.42,3.43,4.42S401.32,34.17,401.32,31.33Z" fill="#fff"/><path d="M409.47,22.59h5.91V26A5.43,5.43,0,0,1,421,22.36v5.51c-3.6-.1-5.58,1-5.58,3.79v8.19h-5.91Z" fill="#fff"/><path d="M423,17.9a3.08,3.08,0,0,1,3.23-3.07,3.06,3.06,0,1,1,0,6.11A3.06,3.06,0,0,1,423,17.9Zm.29,4.69h5.91V39.85h-5.91Z" fill="#fff"/><path d="M431.42,31.43v-.26c0-5.74,4.12-9,9.2-9,4.23,0,8.12,1.85,8.45,7.1h-5.54c-.27-1.62-1.06-2.51-2.77-2.51-2.08,0-3.3,1.49-3.3,4.39v.27c0,3,1.15,4.55,3.4,4.55a2.88,2.88,0,0,0,3-2.87h5.31c-.16,4.36-3.1,7.19-8.68,7.19C435.34,40.24,431.42,37.24,431.42,31.43Z" fill="#fff"/><path d="M450.16,31.43v-.26c0-5.55,4.13-9,9.34-9,4.72,0,8.78,2.71,8.78,8.92v1.55H456.13c.17,2.27,1.49,3.6,3.6,3.6,1.95,0,2.77-.9,3-2h5.55c-.53,3.89-3.53,6.1-8.75,6.1C454.12,40.24,450.16,37.08,450.16,31.43Zm12.38-2.18c-.1-2.08-1.13-3.23-3-3.23s-3,1.15-3.3,3.23Z" fill="#fff"/><path d="M469.93,36.88a3.29,3.29,0,0,1,3.36-3.34,3.34,3.34,0,1,1,0,6.67A3.29,3.29,0,0,1,469.93,36.88Z" fill="#fff"/><path d="M122.28,51.25h6.8v9.34l7.09-9.34h7.07l-8.65,11,9.11,12.64h-7.82L129.08,65v9.87h-6.8Z" fill="#fff"/><path d="M145,57.59h5.91v2.77a6.09,6.09,0,0,1,5.68-3.24c3.33,0,5.64,2.08,5.64,6.51V74.85H156.3v-10c0-1.95-.76-2.91-2.47-2.91s-2.94,1.06-2.94,3.27v9.67H145Z" fill="#fff"/><path d="M164.15,66.43v-.26c0-5.55,4.13-9.05,9.48-9.05S183,60.52,183,66v.27c0,5.61-4.12,9-9.44,9S164.15,72,164.15,66.43Zm12.88-.1v-.26c0-2.9-1.16-4.52-3.4-4.52s-3.44,1.55-3.44,4.45v.27c0,3,1.16,4.59,3.44,4.59S177,69.21,177,66.33Z" fill="#fff"/><path d="M183.1,57.59h6.17l2.51,10.33,2.9-10.33h4.75L202,67.92l2.8-10.33h5.61L205,74.85H199.3l-2.57-9.64-2.68,9.64h-5.74Z" fill="#fff"/><path d="M217,70.06c0-4.06,3.44-5.64,9.18-5.64h1.65V64c0-1.65-.4-2.74-2.28-2.74a2.12,2.12,0,0,0-2.34,2h-5.55c.27-4.16,3.54-6.21,8.25-6.21s7.79,2,7.79,6.54V74.85h-5.74v-2c-.82,1.26-2.34,2.42-5.12,2.42C219.69,75.25,217,73.73,217,70.06Zm10.83-1.25V67.75h-1.55c-2.38,0-3.44.46-3.44,1.88,0,1,.67,1.62,2.05,1.62C226.52,71.25,227.78,70.29,227.78,68.81Z" fill="#fff"/><path d="M235.37,69.37h5.44c.2,1.25.76,1.95,2.44,1.95,1.46,0,2.12-.56,2.12-1.42s-.83-1.22-3.2-1.55c-4.63-.6-6.57-1.95-6.57-5.55,0-3.83,3.4-5.68,7.39-5.68,4.26,0,7.23,1.46,7.63,5.58h-5.35A1.93,1.93,0,0,0,243.06,61c-1.29,0-1.95.56-1.95,1.35s.79,1.16,2.9,1.42c4.79.59,7.1,1.85,7.1,5.54,0,4.1-3,6-7.82,6S235.5,73.2,235.37,69.37Z" fill="#fff"/><path d="M264.44,73.1l-6.9-15.51H264l3.56,9.21,3.3-9.21h5.64l-9.24,23h-5.64Z" fill="#fff"/><path d="M276.12,66.43v-.26c0-5.55,4.13-9.05,9.47-9.05S295,60.52,295,66v.27c0,5.61-4.13,9-9.44,9S276.12,72,276.12,66.43Zm12.87-.1v-.26c0-2.9-1.15-4.52-3.4-4.52s-3.43,1.55-3.43,4.45v.27c0,3,1.16,4.59,3.43,4.59S289,69.21,289,66.33Z" fill="#fff"/><path d="M296.94,68.84V57.59h5.91V67.88c0,2,.76,2.91,2.44,2.91s2.94-1.06,2.94-3.27V57.59h5.91V74.85h-5.91V72.18a5.67,5.67,0,0,1-5.48,3.07C299.42,75.25,296.94,73.2,296.94,68.84Z" fill="#fff"/><path d="M322.19,74.85h5.87c.27,1.25,1,2.24,3.17,2.24,2.61,0,3.67-1.48,3.67-3.63V70.82A6.08,6.08,0,0,1,329.55,74c-4,0-7.33-3-7.33-8.28v-.27c0-5.08,3.27-8.32,7.33-8.32A5.63,5.63,0,0,1,334.9,60V57.59h5.9V73.4c0,5.14-3.4,7.85-9.57,7.85C325.36,81.25,322.65,78.78,322.19,74.85Zm12.87-9.18v-.23c0-2.37-1.22-3.89-3.4-3.89s-3.4,1.55-3.4,3.93v.26c0,2.38,1.26,3.89,3.37,3.89S335.06,68.12,335.06,65.67Z" fill="#fff"/><path d="M342.88,66.43v-.26c0-5.55,4.12-9.05,9.47-9.05s9.41,3.4,9.41,8.88v.27c0,5.61-4.13,9-9.44,9S342.88,72,342.88,66.43Zm12.87-.1v-.26c0-2.9-1.15-4.52-3.4-4.52s-3.43,1.55-3.43,4.45v.27c0,3,1.15,4.59,3.43,4.59S355.75,69.21,355.75,66.33Z" fill="#fff"/><path d="M362.88,71.88a3.29,3.29,0,0,1,3.36-3.34,3.34,3.34,0,1,1,0,6.67A3.29,3.29,0,0,1,362.88,71.88Z" fill="#fff"/></g></g></svg>