<svg xmlns="http://www.w3.org/2000/svg" viewBox="0 0 160 600"><title>160x600</title><g id="Layer_2" data-name="Layer 2"><g id="Paying_too_much_for_tax_prep_Try_Block." data-name="Paying too much for tax prep? Try Block."><path d="M21.59,65.88h6.25c4.51,0,6.6,2,6.6,5.49v.1c0,3.44-2.32,5.31-6.39,5.31H26.28v5.54H21.59Zm6,7.68c1.52,0,2.33-.72,2.33-2.07V71.4c0-1.41-.83-2-2.3-2H26.28v4.14Z" fill="#14aa40"/><path d="M34.77,79c0-2.82,2.39-3.93,6.39-3.93h1.15v-.27c0-1.15-.28-1.91-1.59-1.91a1.47,1.47,0,0,0-1.63,1.42H35.23C35.41,71.4,37.69,70,41,70s5.43,1.36,5.43,4.55v7.8h-4v-1.4a3.94,3.94,0,0,1-3.56,1.67C36.67,82.59,34.77,81.54,34.77,79Zm7.54-.87v-.73H41.23c-1.66,0-2.39.32-2.39,1.31,0,.69.46,1.12,1.42,1.12C41.43,79.81,42.31,79.15,42.31,78.11Z" fill="#14aa40"/><path d="M51.76,81.1,47,70.29h4.46l2.48,6.42,2.3-6.42h3.93l-6.44,16H49.76Z" fill="#14aa40"/><path d="M61.1,67a2.27,2.27,0,1,1,2.25,2.11A2.13,2.13,0,0,1,61.1,67Zm.21,3.26h4.11v12H61.31Z" fill="#14aa40"/><path d="M67.63,70.29h4.12v1.93a4.23,4.23,0,0,1,4-2.25c2.33,0,3.94,1.45,3.94,4.53v7.82H75.52v-7c0-1.36-.53-2-1.73-2s-2,.74-2,2.28v6.74H67.63Z" fill="#14aa40"/><path d="M81,82.32h4.1c.18.87.71,1.56,2.2,1.56a2.28,2.28,0,0,0,2.56-2.53V79.51a4.23,4.23,0,0,1-3.73,2.21c-2.81,0-5.1-2.07-5.1-5.77v-.18c0-3.55,2.27-5.8,5.1-5.8a3.93,3.93,0,0,1,3.73,2v-1.7h4.11v11c0,3.58-2.37,5.47-6.67,5.47C83.18,86.78,81.29,85.06,81,82.32Zm9-6.39v-.16c0-1.66-.85-2.72-2.37-2.72s-2.37,1.08-2.37,2.74V76c0,1.66.88,2.72,2.35,2.72S89.94,77.63,89.94,75.93Z" fill="#14aa40"/><path d="M100.77,78.46V73.1H99.33V70.29h1.44v-2.5h4.12v2.5h2.37V73.1h-2.37v5c0,.88.44,1.27,1.22,1.27a3.09,3.09,0,0,0,1.17-.21v3.13a8.57,8.57,0,0,1-2.27.34C102.29,82.59,100.77,81.28,100.77,78.46Z" fill="#14aa40"/><path d="M108.18,76.46v-.19c0-3.86,2.88-6.3,6.6-6.3s6.55,2.37,6.55,6.19v.18c0,3.91-2.87,6.25-6.57,6.25S108.18,80.34,108.18,76.46Zm9-.07V76.2c0-2-.81-3.15-2.37-3.15s-2.39,1.08-2.39,3.11v.18c0,2.07.8,3.2,2.39,3.2S117.15,78.39,117.15,76.39Z" fill="#14aa40"/><path d="M122.14,76.46v-.19c0-3.86,2.88-6.3,6.6-6.3s6.55,2.37,6.55,6.19v.18c0,3.91-2.87,6.25-6.57,6.25S122.14,80.34,122.14,76.46Zm9-.07V76.2c0-2-.81-3.15-2.37-3.15s-2.39,1.08-2.39,3.11v.18c0,2.07.8,3.2,2.39,3.2S131.11,78.39,131.11,76.39Z" fill="#14aa40"/><path d="M21.22,95.29h4.11v1.84A4.22,4.22,0,0,1,29.11,95a3.27,3.27,0,0,1,3.26,2,4.78,4.78,0,0,1,4-2c2.28,0,3.93,1.47,3.93,4.48v7.87H36.17v-7.18c0-1.21-.6-1.81-1.55-1.81a1.78,1.78,0,0,0-1.83,2v7H28.72v-7.18c0-1.21-.6-1.81-1.55-1.81a1.78,1.78,0,0,0-1.84,2v7H21.22Z" fill="#14aa40"/><path d="M42.19,103.13V95.29h4.12v7.18c0,1.35.53,2,1.7,2s2.05-.74,2.05-2.28V95.29h4.12v12H50.06v-1.86a4,4,0,0,1-3.82,2.13C43.92,107.59,42.19,106.17,42.19,103.13Z" fill="#14aa40"/><path d="M55.63,101.46v-.19A6,6,0,0,1,62,95c2.95,0,5.66,1.29,5.89,4.94H64.07a1.78,1.78,0,0,0-1.94-1.74c-1.44,0-2.3,1-2.3,3.06v.18c0,2.09.81,3.17,2.37,3.17a2,2,0,0,0,2.1-2H68c-.12,3-2.16,5-6,5C58.36,107.59,55.63,105.5,55.63,101.46Z" fill="#14aa40"/><path d="M69.33,90h4.12v7.22a4.24,4.24,0,0,1,4-2.25c2.32,0,3.93,1.45,3.93,4.53v7.82H77.22v-7c0-1.36-.53-2-1.72-2s-2,.74-2,2.28v6.74H69.33Z" fill="#14aa40"/><path d="M88.15,98.1H86.63V95.29h1.52V94.23c0-3,1.86-4.41,4.71-4.41a7.27,7.27,0,0,1,1.89.25v3a3.88,3.88,0,0,0-1.13-.16,1.21,1.21,0,0,0-1.38,1.31v1.06h2.44V98.1H92.24v9.22H88.15Z" fill="#14aa40"/><path d="M95,101.46v-.19c0-3.86,2.88-6.3,6.6-6.3s6.56,2.37,6.56,6.19v.18c0,3.91-2.88,6.25-6.58,6.25S95,105.34,95,101.46Zm9-.07v-.19c0-2-.8-3.15-2.37-3.15s-2.39,1.08-2.39,3.11v.18c0,2.07.8,3.2,2.39,3.2S104,103.39,104,101.39Z" fill="#14aa40"/><path d="M109.61,95.29h4.11v2.39a3.8,3.8,0,0,1,3.89-2.55V99c-2.51-.07-3.89.71-3.89,2.65v5.7h-4.11Z" fill="#14aa40"/><path d="M21.77,128.46V123.1H20.32v-2.81h1.45v-2.5h4.12v2.5h2.37v2.81H25.89v5c0,.88.43,1.27,1.22,1.27a3.09,3.09,0,0,0,1.17-.21v3.13a8.59,8.59,0,0,1-2.28.34C23.29,132.59,21.77,131.28,21.77,128.46Z" fill="#14aa40"/><path d="M29.18,129c0-2.82,2.39-3.93,6.39-3.93h1.15v-.27c0-1.15-.28-1.91-1.59-1.91a1.47,1.47,0,0,0-1.63,1.42H29.64c.18-2.89,2.46-4.32,5.75-4.32s5.42,1.36,5.42,4.55v7.8h-4v-1.4a3.94,3.94,0,0,1-3.56,1.67C31.09,132.59,29.18,131.54,29.18,129Zm7.54-.87v-.73H35.64c-1.66,0-2.39.32-2.39,1.31,0,.69.46,1.12,1.42,1.12C35.85,129.81,36.72,129.15,36.72,128.11Z" fill="#14aa40"/><path d="M45.85,126.2l-3.75-5.91h4.74l1.86,3.18,1.82-3.18h4.23L51,125.88l4.16,6.44H50.38l-2.14-3.59-2.18,3.59H41.85Z" fill="#14aa40"/><path d="M60.46,120.29h4.11v1.8A4.25,4.25,0,0,1,68.32,120c2.81,0,5.08,2.12,5.08,6.23v.19c0,4.14-2.27,6.2-5.1,6.2a4,4,0,0,1-3.73-2v5.79H60.46Zm8.76,6.1v-.19c0-2.11-.92-3.13-2.37-3.13s-2.39,1.09-2.39,3.11v.18c0,2,.89,3.08,2.39,3.08S69.22,128.36,69.22,126.39Z" fill="#14aa40"/><path d="M74.9,120.29H79v2.39a3.78,3.78,0,0,1,3.88-2.55V124c-2.5-.07-3.88.71-3.88,2.65v5.7H74.9Z" fill="#14aa40"/><path d="M83.64,126.46v-.19a6.15,6.15,0,0,1,6.51-6.3c3.29,0,6.11,1.89,6.11,6.21v1.08H87.8a2.41,2.41,0,0,0,2.51,2.51c1.36,0,1.93-.62,2.09-1.43h3.86c-.36,2.71-2.46,4.25-6.09,4.25S83.64,130.39,83.64,126.46Zm8.62-1.52c-.07-1.45-.78-2.26-2.11-2.26a2.29,2.29,0,0,0-2.3,2.26Z" fill="#14aa40"/><path d="M97.69,120.29h4.12v1.8a4.25,4.25,0,0,1,3.75-2.12c2.8,0,5.08,2.12,5.08,6.23v.19c0,4.14-2.28,6.2-5.11,6.2a4,4,0,0,1-3.72-2v5.79H97.69Zm8.76,6.1v-.19c0-2.11-.92-3.13-2.37-3.13s-2.39,1.09-2.39,3.11v.18c0,2,.9,3.08,2.39,3.08S106.45,128.36,106.45,126.39Z" fill="#14aa40"/><path d="M114.23,126.48c0-1.75,1.19-2.85,2.25-3.87.78-.75,1.5-1.44,1.5-2.25a1.23,1.23,0,0,0-1.41-1.38c-1,0-1.65.76-1.81,2h-4c.11-3.48,2.6-5.36,6.14-5.36s5.54,1.58,5.54,4.32a4.67,4.67,0,0,1-1.68,3.45c-1.13,1.13-2.44,2-2.64,3.15v.35h-3.89Zm-.53,3.82a2.47,2.47,0,0,1,4.92,0,2.47,2.47,0,0,1-4.92,0Z" fill="#14aa40"/><path d="M24.74,144.51H20.48v-3.63H33.73v3.63H29.47v12.81H24.74Z" fill="#14aa40"/><path d="M34.4,145.29h4.11v2.39a3.8,3.8,0,0,1,3.89-2.55V149c-2.51-.07-3.89.71-3.89,2.65v5.7H34.4Z" fill="#14aa40"/><path d="M47.85,156.1l-4.8-10.81h4.46L50,151.71l2.3-6.42h3.93l-6.44,16.05H45.85Z" fill="#14aa40"/><path d="M61.84,140.88h7.33c3.89,0,5.54,1.74,5.54,4.3v.09a3.38,3.38,0,0,1-2.78,3.54,3.58,3.58,0,0,1,3.29,3.84v.09c0,2.95-1.91,4.58-6,4.58h-7.4Zm6.39,6.53c1.47,0,2-.51,2-1.68v-.09c0-1.13-.6-1.64-2-1.64H66.44v3.41Zm.16,6.76c1.49,0,2.18-.69,2.18-1.91v-.09c0-1.24-.66-1.89-2.32-1.89H66.44v3.89Z" fill="#14aa40"/><path d="M76.85,140H81v17.32h-4.1Z" fill="#14aa40"/><path d="M82.51,151.46v-.19c0-3.86,2.88-6.3,6.6-6.3s6.56,2.37,6.56,6.19v.18c0,3.91-2.88,6.25-6.58,6.25S82.51,155.34,82.51,151.46Zm9-.07v-.19c0-2-.8-3.15-2.37-3.15s-2.39,1.08-2.39,3.11v.18c0,2.07.81,3.2,2.39,3.2S91.48,153.39,91.48,151.39Z" fill="#14aa40"/><path d="M96.47,151.46v-.19a6.05,6.05,0,0,1,6.42-6.3c2.94,0,5.66,1.29,5.89,4.94h-3.87a1.77,1.77,0,0,0-1.93-1.74c-1.45,0-2.3,1-2.3,3.06v.18c0,2.09.81,3.17,2.37,3.17a2,2,0,0,0,2.09-2h3.7c-.11,3-2.16,5-6,5C99.21,157.59,96.47,155.5,96.47,151.46Z" fill="#14aa40"/><path d="M110.18,140h4.12v10.05l3.24-4.76h4.28l-3.94,5.41,4.26,6.62h-4.6l-3.24-5.27v5.27h-4.12Z" fill="#14aa40"/><path d="M123,155.25a2.28,2.28,0,0,1,2.34-2.32,2.32,2.32,0,1,1,0,4.64A2.28,2.28,0,0,1,123,155.25Z" fill="#14aa40"/><rect width="160" height="600" fill="none"/></g></g></svg>