<?xml version="1.0" encoding="utf-8"?>
<!-- Generator: Adobe Illustrator 24.0.2, SVG Export Plug-In . SVG Version: 6.00 Build 0)  -->
<svg version="1.1" id="Layer_1" xmlns="http://www.w3.org/2000/svg" xmlns:xlink="http://www.w3.org/1999/xlink" x="0px" y="0px"
	 viewBox="0 0 120 32" style="enable-background:new 0 0 120 32;" xml:space="preserve">
<style type="text/css">
	.st0{fill:none;}
	.st1{fill:#262626;}
</style>
<title>find an office</title>
<g id="Layer_2_1_">
	<g id="Find_an_office">
		<g id="Rectangle_1">
			<rect class="st0" width="120" height="32"/>
		</g>
		<g id="Find_an_office-2">
			<path class="st1" d="M17.6,9.9H24v1.8h-4.2v2.6h3.3v1.8h-3.3V20h-2.3V9.9z"/>
			<path class="st1" d="M24.9,10.5c0-0.6,0.5-1.2,1.1-1.2c0.6,0,1.2,0.5,1.2,1.1c0,0.6-0.5,1.2-1.1,1.2c0,0,0,0-0.1,0
				C25.4,11.6,24.9,11.1,24.9,10.5C24.9,10.5,24.9,10.5,24.9,10.5z M25,12.6h2v7.3h-2V12.6z"/>
			<path class="st1" d="M28.7,12.6h2v1.2c0.5-0.9,1.4-1.4,2.5-1.3c1.4,0,2.5,0.9,2.5,2.8v4.7h-2v-4.4c0-1-0.4-1.5-1.3-1.5
				c-0.8,0-1.5,0.6-1.5,1.4c0,0.1,0,0.2,0,0.2v4.2h-2L28.7,12.6z"/>
			<path class="st1" d="M36.7,16.4v-0.1c0-2.4,1.4-3.8,3.2-3.8c0.9-0.1,1.8,0.4,2.3,1.3V9.3h2v10.6h-2v-1.2
				c-0.5,0.8-1.3,1.4-2.3,1.4C38.1,20.1,36.7,18.8,36.7,16.4z M42.3,16.3v-0.1c0-1.4-0.6-2.2-1.8-2.2s-1.8,0.8-1.8,2.2v0.1
				c0,1.5,0.7,2.2,1.7,2.2S42.3,17.8,42.3,16.3z"/>
			<path class="st1" d="M48.3,17.9c0-1.7,1.6-2.4,3.8-2.4h0.8v-0.3c0-0.9-0.3-1.4-1.2-1.4c-0.6-0.1-1.2,0.3-1.2,1c0,0,0,0,0,0h-1.9
				c0.1-1.7,1.5-2.5,3.3-2.5s3.1,0.7,3.1,2.7v4.8h-2V19c-0.5,0.7-1.3,1.1-2.2,1c-1.2,0.1-2.3-0.7-2.4-1.9
				C48.3,18.1,48.3,18,48.3,17.9z M52.9,17.4v-0.6h-0.8c-1.2,0-1.9,0.3-1.9,1c0,0.5,0.3,0.9,1.1,0.9C52.2,18.7,52.9,18.2,52.9,17.4z
				"/>
			<path class="st1" d="M56.4,12.6h2v1.2c0.5-0.9,1.4-1.4,2.4-1.3c1.4,0,2.5,0.9,2.5,2.8v4.7h-2v-4.4c0-1-0.4-1.5-1.3-1.5
				c-0.8,0-1.5,0.6-1.5,1.4c0,0.1,0,0.2,0,0.2v4.2h-2L56.4,12.6z"/>
			<path class="st1" d="M67.3,16.3v-0.1c-0.1-2,1.5-3.7,3.5-3.8c0.1,0,0.3,0,0.4,0c2-0.1,3.7,1.4,3.8,3.4c0,0.1,0,0.2,0,0.3v0.1
				c-0.1,2.1-1.9,3.8-4.1,3.7C69,19.9,67.4,18.3,67.3,16.3L67.3,16.3z M72.9,16.3L72.9,16.3c0-1.5-0.7-2.3-1.8-2.3s-1.8,0.8-1.8,2.2
				v0.1c0,1.4,0.6,2.2,1.8,2.2S72.9,17.7,72.9,16.3L72.9,16.3z"/>
			<path class="st1" d="M76.5,14h-1v-1.4h1v-0.8c-0.1-1.3,0.8-2.4,2.1-2.6c0.2,0,0.4,0,0.5,0c0.3,0,0.7,0.1,1,0.1v1.5
				c-0.2-0.1-0.5-0.1-0.7-0.1c-0.6,0-0.9,0.4-0.9,1v0.8h2.4v-0.8c-0.2-1.3,0.8-2.4,2-2.6c0.2,0,0.4,0,0.6,0c0.4,0,0.7,0,1.1,0.1v1.5
				c-0.2-0.1-0.5-0.1-0.7-0.1c-0.5,0-0.9,0.3-0.9,0.8c0,0.1,0,0.2,0,0.2v0.9h1.6v1.4h-1.6V20h-2V14h-2.4v5.9h-2L76.5,14z"/>
			<path class="st1" d="M85.4,10.5c0-0.6,0.5-1.1,1.1-1.1c0,0,0,0,0,0c0.6-0.1,1.2,0.4,1.2,1c0.1,0.6-0.4,1.2-1,1.2
				c-0.1,0-0.1,0-0.2,0C86,11.6,85.4,11.1,85.4,10.5C85.4,10.5,85.4,10.5,85.4,10.5z M85.6,12.6h2v7.3h-2V12.6z"/>
			<path class="st1" d="M88.8,16.3v-0.1c-0.1-2,1.4-3.7,3.4-3.8c0.1,0,0.2,0,0.3,0c1.7,0,3.3,0.7,3.4,2.8h-1.9
				C94,14.5,93.4,14,92.7,14c0,0,0,0,0,0c-1,0-1.8,0.8-1.8,2.2v0.1c0,1.5,0.7,2.2,1.8,2.2c0.8,0.1,1.5-0.6,1.6-1.4c0,0,0-0.1,0-0.1
				h1.8c-0.1,1.7-1.4,2.9-3.5,2.9c-1.9,0.1-3.6-1.3-3.8-3.3C88.8,16.6,88.8,16.5,88.8,16.3z"/>
			<path class="st1" d="M96.7,16.3v-0.1c-0.1-2,1.5-3.7,3.5-3.8c0.1,0,0.2,0,0.3,0c1.9-0.1,3.5,1.3,3.6,3.2c0,0.2,0,0.4,0,0.6v0.6
				h-5.3c0.1,1.2,0.7,1.9,1.8,1.9c0.9,0,1.4-0.4,1.5-1h1.9c-0.2,1.6-1.5,2.5-3.5,2.5c-2,0.1-3.7-1.3-3.8-3.3
				C96.7,16.7,96.7,16.5,96.7,16.3z M102,15.5c-0.1-1.1-0.6-1.6-1.6-1.6c-0.9,0-1.7,0.7-1.7,1.6H102z"/>
		</g>
	</g>
</g>
</svg>
