<svg xmlns="http://www.w3.org/2000/svg" viewBox="0 0 160 600"><title>H126</title><g id="Layer_2" data-name="Layer 2"><g id="Rect"><rect width="160" height="600" fill="none"/></g><g id="H126"><g id="Hora_intensa_de_trabajo._Preparación_de_taxes_en_una_hora." data-name="Hora intensa de trabajo. Preparación de taxes en una hora."><path d="M20.37,161.88h4.07v5.35h4.65v-5.35h4.06v14H29.09v-5.54H24.44v5.54H20.37Z" fill="#fff"/><path d="M34.57,170.9v-.15c0-3.3,2.47-5.38,5.68-5.38s5.64,2,5.64,5.28v.16c0,3.33-2.47,5.33-5.66,5.33S34.57,174.22,34.57,170.9Zm7.72-.05v-.16c0-1.73-.69-2.69-2-2.69s-2.06.92-2.06,2.65v.16c0,1.76.69,2.72,2.06,2.72S42.29,172.55,42.29,170.85Z" fill="#fff"/><path d="M47.13,165.65h3.54v2A3.28,3.28,0,0,1,54,165.51v3.27c-2.16-.05-3.35.61-3.35,2.26v4.87H47.13Z" fill="#fff"/><path d="M54.47,173.06c0-2.41,2.06-3.35,5.5-3.35h1v-.24c0-1-.23-1.63-1.36-1.63a1.27,1.27,0,0,0-1.41,1.22H54.87c.16-2.47,2.12-3.69,5-3.69s4.67,1.16,4.67,3.89v6.65H61v-1.2A3.39,3.39,0,0,1,58,176.14C56.11,176.14,54.47,175.24,54.47,173.06Zm6.49-.74v-.63H60c-1.42,0-2.06.27-2.06,1.12,0,.59.4,1,1.23,1C60.21,173.77,61,173.2,61,172.32Z" fill="#fff"/><path d="M69.72,162.86a2,2,0,1,1,1.94,1.8A1.83,1.83,0,0,1,69.72,162.86Zm.18,2.79h3.54v10.26H69.9Z" fill="#fff"/><path d="M75.34,165.65h3.55v1.64a3.65,3.65,0,0,1,3.4-1.92c2,0,3.38,1.24,3.38,3.87v6.67H82.13v-6c0-1.16-.45-1.72-1.48-1.72s-1.76.62-1.76,1.94v5.75H75.34Z" fill="#fff"/><path d="M87.86,172.61V168H86.62v-2.39h1.24v-2.14h3.55v2.14h2V168h-2v4.24a.94.94,0,0,0,1,1.08,2.71,2.71,0,0,0,1-.18v2.67a7.47,7.47,0,0,1-2,.29C89.17,176.14,87.86,175,87.86,172.61Z" fill="#fff"/><path d="M94.23,170.9v-.15a5.28,5.28,0,0,1,5.6-5.38c2.84,0,5.27,1.61,5.27,5.3v.92H97.82a2.06,2.06,0,0,0,2.15,2.14c1.17,0,1.67-.53,1.8-1.22h3.33c-.32,2.32-2.12,3.63-5.25,3.63S94.23,174.26,94.23,170.9Zm7.43-1.29c-.06-1.24-.68-1.92-1.83-1.92a2,2,0,0,0-2,1.92Z" fill="#fff"/><path d="M106.32,165.65h3.54v1.64a3.67,3.67,0,0,1,3.41-1.92c2,0,3.38,1.24,3.38,3.87v6.67h-3.54v-6c0-1.16-.46-1.72-1.49-1.72s-1.76.62-1.76,1.94v5.75h-3.54Z" fill="#fff"/><path d="M117.68,172.65h3.26c.12.75.46,1.16,1.47,1.16s1.26-.34,1.26-.85-.49-.72-1.92-.92c-2.77-.35-3.93-1.16-3.93-3.29,0-2.28,2-3.38,4.43-3.38s4.33.86,4.57,3.32h-3.21a1.14,1.14,0,0,0-1.32-1c-.77,0-1.17.33-1.17.8s.47.69,1.74.84c2.87.36,4.26,1.1,4.26,3.3,0,2.43-1.82,3.53-4.69,3.53S117.76,174.93,117.68,172.65Z" fill="#fff"/><path d="M127.67,173.06c0-2.41,2.06-3.35,5.5-3.35h1v-.24c0-1-.24-1.63-1.37-1.63a1.26,1.26,0,0,0-1.4,1.22h-3.33c.16-2.47,2.12-3.69,4.95-3.69s4.67,1.16,4.67,3.89v6.65h-3.44v-1.2a3.41,3.41,0,0,1-3.07,1.43C129.31,176.14,127.67,175.24,127.67,173.06Zm6.49-.74v-.63h-.93c-1.43,0-2.06.27-2.06,1.12,0,.59.4,1,1.23,1C133.41,173.77,134.16,173.2,134.16,172.32Z" fill="#fff"/><path d="M19.53,192.88v-.15c0-3.5,1.94-5.36,4.4-5.36a3.35,3.35,0,0,1,3.18,1.73v-6h3.55v14.78H27.11v-1.67a3.48,3.48,0,0,1-3.22,1.9C21.49,198.14,19.53,196.44,19.53,192.88Zm7.68,0v-.16c0-1.73-.73-2.65-2-2.65s-2,.88-2,2.67v.16c0,1.72.77,2.61,2,2.61S27.21,194.57,27.21,192.83Z" fill="#fff"/><path d="M31.9,192.9v-.15a5.27,5.27,0,0,1,5.6-5.38c2.83,0,5.26,1.61,5.26,5.3v.92H35.48a2.06,2.06,0,0,0,2.16,2.14c1.17,0,1.66-.53,1.8-1.22h3.32c-.31,2.32-2.11,3.63-5.24,3.63S31.9,196.26,31.9,192.9Zm7.42-1.29c-.06-1.24-.67-1.92-1.82-1.92a2,2,0,0,0-2,1.92Z" fill="#fff"/><path d="M48.06,194.61V190H46.81v-2.39h1.25v-2.14H51.6v2.14h2V190h-2v4.24a1,1,0,0,0,1,1.08,2.64,2.64,0,0,0,1-.18v2.67a7.4,7.4,0,0,1-2,.29C49.37,198.14,48.06,197,48.06,194.61Z" fill="#fff"/><path d="M55,187.65h3.55v2a3.26,3.26,0,0,1,3.34-2.18v3.27c-2.16-.05-3.34.61-3.34,2.26v4.87H55Z" fill="#fff"/><path d="M62.32,195.06c0-2.41,2.06-3.35,5.51-3.35h1v-.24c0-1-.24-1.63-1.37-1.63A1.27,1.27,0,0,0,66,191.06H62.72c.16-2.47,2.12-3.69,5-3.69s4.67,1.16,4.67,3.89v6.65H68.9v-1.2a3.41,3.41,0,0,1-3.07,1.43C64,198.14,62.32,197.24,62.32,195.06Zm6.5-.74v-.63h-.93c-1.43,0-2.06.27-2.06,1.12,0,.59.39,1,1.22,1C68.06,195.77,68.82,195.2,68.82,194.32Z" fill="#fff"/><path d="M77.6,196.32v1.59H74.06V183.13H77.6v6.05a3.63,3.63,0,0,1,3.22-1.81c2.42,0,4.38,1.81,4.38,5.32v.16c0,3.53-2,5.29-4.4,5.29A3.34,3.34,0,0,1,77.6,196.32Zm4-3.47v-.16c0-1.81-.8-2.67-2-2.67s-2.06.92-2.06,2.65v.16c0,1.74.77,2.63,2.06,2.63S81.6,194.53,81.6,192.85Z" fill="#fff"/><path d="M85.89,195.06c0-2.41,2-3.35,5.5-3.35h1v-.24c0-1-.24-1.63-1.37-1.63a1.26,1.26,0,0,0-1.4,1.22H86.28c.16-2.47,2.12-3.69,5-3.69s4.67,1.16,4.67,3.89v6.65H92.46v-1.2a3.41,3.41,0,0,1-3.07,1.43C87.53,198.14,85.89,197.24,85.89,195.06Zm6.49-.74v-.63h-.93c-1.43,0-2.06.27-2.06,1.12,0,.59.39,1,1.23,1C91.62,195.77,92.38,195.2,92.38,194.32Z" fill="#fff"/><path d="M96.45,199c.87-.06,1.27-.41,1.27-1.22v-10.1h3.52v10.18c0,2.22-1,3.69-4.79,3.69Zm1.09-14.11a2,2,0,1,1,1.94,1.8A1.82,1.82,0,0,1,97.54,184.86Z" fill="#fff"/><path d="M102.6,192.9v-.15c0-3.3,2.48-5.38,5.68-5.38s5.64,2,5.64,5.28v.16c0,3.33-2.47,5.33-5.66,5.33S102.6,196.22,102.6,192.9Zm7.72-.05v-.16c0-1.73-.69-2.69-2-2.69s-2.06.92-2.06,2.65v.16c0,1.76.7,2.72,2.06,2.72S110.32,194.55,110.32,192.85Z" fill="#fff"/><path d="M114.59,196.14a2,2,0,0,1,2-2,2,2,0,1,1,0,4A2,2,0,0,1,114.59,196.14Z" fill="#fff"/><path d="M20.37,205.88h5.38c3.88,0,5.68,1.7,5.68,4.69v.08c0,2.94-2,4.53-5.5,4.53H24.4v4.73h-4Zm5.2,6.55c1.31,0,2-.61,2-1.76v-.08c0-1.2-.71-1.69-2-1.69H24.4v3.53Z" fill="#fff"/><path d="M32.65,209.65h3.54v2a3.27,3.27,0,0,1,3.35-2.18v3.27c-2.16-.05-3.35.61-3.35,2.26v4.87H32.65Z" fill="#fff"/><path d="M40.17,214.9v-.15a5.27,5.27,0,0,1,5.6-5.38c2.83,0,5.26,1.61,5.26,5.3v.92H43.75a2.06,2.06,0,0,0,2.16,2.14c1.17,0,1.66-.53,1.8-1.22H51c-.31,2.32-2.11,3.63-5.24,3.63S40.17,218.26,40.17,214.9Zm7.42-1.29c-.06-1.24-.67-1.92-1.82-1.92a2,2,0,0,0-2,1.92Z" fill="#fff"/><path d="M52.26,209.65H55.8v1.53A3.63,3.63,0,0,1,59,209.37c2.42,0,4.38,1.81,4.38,5.32v.16c0,3.53-2,5.29-4.4,5.29a3.4,3.4,0,0,1-3.2-1.74v4.94H52.26Zm7.54,5.2v-.16c0-1.81-.8-2.67-2-2.67s-2.06.92-2.06,2.65v.16c0,1.74.77,2.63,2.06,2.63S59.8,216.53,59.8,214.85Z" fill="#fff"/><path d="M64.09,217.06c0-2.41,2-3.35,5.5-3.35h1v-.24c0-1-.24-1.63-1.37-1.63a1.26,1.26,0,0,0-1.4,1.22H64.48c.16-2.47,2.12-3.69,5-3.69s4.67,1.16,4.67,3.89v6.65H70.66v-1.2a3.41,3.41,0,0,1-3.07,1.43C65.73,220.14,64.09,219.24,64.09,217.06Zm6.49-.74v-.63h-.93c-1.43,0-2.06.27-2.06,1.12,0,.59.39,1,1.23,1C69.82,217.77,70.58,217.2,70.58,216.32Z" fill="#fff"/><path d="M75.82,209.65h3.54v2a3.26,3.26,0,0,1,3.34-2.18v3.27c-2.15-.05-3.34.61-3.34,2.26v4.87H75.82Z" fill="#fff"/><path d="M83.16,217.06c0-2.41,2-3.35,5.5-3.35h1v-.24c0-1-.24-1.63-1.37-1.63a1.26,1.26,0,0,0-1.4,1.22H83.55c.16-2.47,2.12-3.69,5-3.69s4.67,1.16,4.67,3.89v6.65H89.73v-1.2a3.41,3.41,0,0,1-3.07,1.43C84.8,220.14,83.16,219.24,83.16,217.06Zm6.49-.74v-.63h-.93c-1.43,0-2.06.27-2.06,1.12,0,.59.39,1,1.23,1C88.9,217.77,89.65,217.2,89.65,216.32Z" fill="#fff"/><path d="M94.33,214.9v-.15a5.19,5.19,0,0,1,5.53-5.38c2.53,0,4.86,1.1,5.06,4.22H101.6a1.53,1.53,0,0,0-1.67-1.49c-1.24,0-2,.88-2,2.61v.15c0,1.79.69,2.71,2,2.71a1.71,1.71,0,0,0,1.8-1.7H105c-.1,2.59-1.86,4.27-5.2,4.27C96.69,220.14,94.33,218.36,94.33,214.9Z" fill="#fff"/><path d="M106,206.86a2,2,0,1,1,1.94,1.8A1.83,1.83,0,0,1,106,206.86Zm.18,2.79h3.55v10.26h-3.55Z" fill="#fff"/><path d="M111.11,214.9v-.15c0-3.3,2.47-5.38,5.68-5.38s5.64,2,5.64,5.28v.16c0,3.33-2.47,5.33-5.66,5.33S111.11,218.22,111.11,214.9Zm7.72-.05v-.16c0-1.73-.7-2.69-2-2.69s-2.06.92-2.06,2.65v.16c0,1.76.69,2.72,2.06,2.72S118.83,216.55,118.83,214.85Zm-2.38-9.64H120l-2.07,3.26H115.4Z" fill="#fff"/><path d="M123.67,209.65h3.54v1.64a3.67,3.67,0,0,1,3.41-1.92c2,0,3.38,1.24,3.38,3.87v6.67h-3.54v-6c0-1.16-.46-1.72-1.49-1.72s-1.76.62-1.76,1.94v5.75h-3.54Z" fill="#fff"/><path d="M19.53,236.88v-.15c0-3.5,1.94-5.36,4.4-5.36a3.35,3.35,0,0,1,3.18,1.73v-6h3.55v14.78H27.11v-1.67a3.48,3.48,0,0,1-3.22,1.9C21.49,242.14,19.53,240.44,19.53,236.88Zm7.68,0v-.16c0-1.73-.73-2.65-2-2.65s-2,.88-2,2.67v.16c0,1.72.77,2.61,2,2.61S27.21,238.57,27.21,236.83Z" fill="#fff"/><path d="M31.9,236.9v-.15a5.27,5.27,0,0,1,5.6-5.38c2.83,0,5.26,1.61,5.26,5.3v.92H35.48a2.06,2.06,0,0,0,2.16,2.14c1.17,0,1.66-.53,1.8-1.22h3.32c-.31,2.32-2.11,3.63-5.24,3.63S31.9,240.26,31.9,236.9Zm7.42-1.29c-.06-1.24-.67-1.92-1.82-1.92a2,2,0,0,0-2,1.92Z" fill="#fff"/><path d="M48.06,238.61V234H46.81v-2.39h1.25v-2.14H51.6v2.14h2V234h-2v4.24a1,1,0,0,0,1,1.08,2.64,2.64,0,0,0,1-.18v2.67a7.4,7.4,0,0,1-2,.29C49.37,242.14,48.06,241,48.06,238.61Z" fill="#fff"/><path d="M54.43,239.06c0-2.41,2.06-3.35,5.5-3.35h1v-.24c0-1-.24-1.63-1.36-1.63a1.27,1.27,0,0,0-1.41,1.22H54.83c.15-2.47,2.11-3.69,4.94-3.69s4.67,1.16,4.67,3.89v6.65H61v-1.2a3.39,3.39,0,0,1-3.07,1.43C56.07,242.14,54.43,241.24,54.43,239.06Zm6.49-.74v-.63H60c-1.42,0-2.06.27-2.06,1.12,0,.59.4,1,1.23,1C60.17,239.77,60.92,239.2,60.92,238.32Z" fill="#fff"/><path d="M68.77,236.69l-3.22-5h4.08l1.6,2.7,1.56-2.7h3.64l-3.26,4.76,3.58,5.5H72.67l-1.84-3.06L69,241.91H65.33Z" fill="#fff"/><path d="M76.29,236.9v-.15a5.28,5.28,0,0,1,5.6-5.38c2.83,0,5.27,1.61,5.27,5.3v.92H79.87A2.06,2.06,0,0,0,82,239.73c1.17,0,1.66-.53,1.8-1.22h3.33c-.32,2.32-2.12,3.63-5.25,3.63S76.29,240.26,76.29,236.9Zm7.42-1.29c-.06-1.24-.67-1.92-1.82-1.92a2,2,0,0,0-2,1.92Z" fill="#fff"/><path d="M87.79,238.65h3.26c.12.75.46,1.16,1.46,1.16s1.27-.34,1.27-.85-.49-.72-1.92-.92c-2.77-.35-3.94-1.16-3.94-3.29,0-2.28,2-3.38,4.44-3.38s4.33.86,4.57,3.32H93.72a1.15,1.15,0,0,0-1.32-1c-.78,0-1.17.33-1.17.8s.47.69,1.74.84c2.87.36,4.25,1.1,4.25,3.3,0,2.43-1.82,3.53-4.68,3.53S87.86,240.93,87.79,238.65Z" fill="#fff"/><path d="M101.42,236.9v-.15a5.27,5.27,0,0,1,5.6-5.38c2.83,0,5.26,1.61,5.26,5.3v.92H105a2.06,2.06,0,0,0,2.16,2.14c1.16,0,1.66-.53,1.8-1.22h3.32c-.32,2.32-2.12,3.63-5.24,3.63S101.42,240.26,101.42,236.9Zm7.42-1.29c-.06-1.24-.68-1.92-1.82-1.92a2,2,0,0,0-2,1.92Z" fill="#fff"/><path d="M113.5,231.65h3.55v1.64a3.65,3.65,0,0,1,3.4-1.92c2,0,3.38,1.24,3.38,3.87v6.67h-3.54v-6c0-1.16-.45-1.72-1.48-1.72s-1.76.62-1.76,1.94v5.75H113.5Z" fill="#fff"/><path d="M20,260.34v-6.69h3.54v6.12c0,1.15.46,1.72,1.47,1.72s1.76-.62,1.76-1.94v-5.9h3.54v10.26H26.74v-1.59a3.42,3.42,0,0,1-3.29,1.82C21.45,264.14,20,262.93,20,260.34Z" fill="#fff"/><path d="M32.08,253.65h3.54v1.64a3.65,3.65,0,0,1,3.4-1.92c2,0,3.39,1.24,3.39,3.87v6.67H38.86v-6c0-1.16-.45-1.72-1.48-1.72s-1.76.62-1.76,1.94v5.75H32.08Z" fill="#fff"/><path d="M43.53,261.06c0-2.41,2.06-3.35,5.5-3.35h1v-.24c0-1-.23-1.63-1.36-1.63a1.27,1.27,0,0,0-1.41,1.22H43.93c.16-2.47,2.11-3.69,5-3.69s4.67,1.16,4.67,3.89v6.65H50.1v-1.2A3.39,3.39,0,0,1,47,264.14C45.17,264.14,43.53,263.24,43.53,261.06Zm6.49-.74v-.63h-.93c-1.42,0-2.06.27-2.06,1.12,0,.59.4,1,1.23,1C49.27,261.77,50,261.2,50,260.32Z" fill="#fff"/><path d="M58.86,249.13h3.55v6.16a3.65,3.65,0,0,1,3.4-1.92c2,0,3.38,1.24,3.38,3.87v6.67H65.65v-6c0-1.16-.45-1.72-1.48-1.72s-1.76.62-1.76,1.94v5.75H58.86Z" fill="#fff"/><path d="M70.36,258.9v-.15c0-3.3,2.47-5.38,5.68-5.38s5.64,2,5.64,5.28v.16c0,3.33-2.48,5.33-5.66,5.33S70.36,262.22,70.36,258.9Zm7.71,0v-.16c0-1.73-.69-2.69-2-2.69s-2.06.92-2.06,2.65v.16c0,1.76.69,2.72,2.06,2.72S78.07,260.55,78.07,258.85Z" fill="#fff"/><path d="M82.92,253.65h3.54v2a3.26,3.26,0,0,1,3.35-2.18v3.27c-2.16,0-3.35.61-3.35,2.26v4.87H82.92Z" fill="#fff"/><path d="M90.26,261.06c0-2.41,2.06-3.35,5.5-3.35h1v-.24c0-1-.24-1.63-1.37-1.63a1.26,1.26,0,0,0-1.4,1.22H90.65c.16-2.47,2.12-3.69,4.95-3.69s4.67,1.16,4.67,3.89v6.65H96.83v-1.2a3.41,3.41,0,0,1-3.07,1.43C91.9,264.14,90.26,263.24,90.26,261.06Zm6.49-.74v-.63h-.93c-1.43,0-2.06.27-2.06,1.12,0,.59.4,1,1.23,1C96,261.77,96.75,261.2,96.75,260.32Z" fill="#fff"/><path d="M101.85,262.14a2,2,0,0,1,2-2,2,2,0,1,1,0,4A2,2,0,0,1,101.85,262.14Z" fill="#fff"/></g></g></g></svg>