<svg xmlns="http://www.w3.org/2000/svg" viewBox="0 0 160 600"><title>136</title><g id="Layer_2" data-name="Layer 2"><g id="Rect"><rect width="160" height="600" fill="none"/></g><g id="_No_other_package_can_match_across_usability_features_suppor" data-name="&quot;No other package can match across  usability, features, suppor"><path d="M18.9,95.25h3.7l-.46,6h-2.8Zm4.67,0h3.72l-.47,6H24Z" fill="#fff"/><path d="M29.68,95.25h5.08l5,8.87V95.25h3.94V111H39.39l-5.75-9.88V111h-4Z" fill="#fff"/><path d="M45.65,105.37v-.17c0-3.7,2.75-6,6.32-6s6.27,2.26,6.27,5.92v.17c0,3.74-2.75,6-6.29,6S45.65,109.09,45.65,105.37Zm8.59-.06v-.18c0-1.94-.78-3-2.27-3s-2.29,1-2.29,3v.17c0,2,.77,3.06,2.29,3.06S54.24,107.22,54.24,105.31Z" fill="#fff"/><path d="M63.67,105.37v-.17c0-3.7,2.75-6,6.32-6s6.27,2.26,6.27,5.92v.17c0,3.74-2.75,6-6.3,6S63.67,109.09,63.67,105.37Zm8.58-.06v-.18c0-1.94-.77-3-2.26-3s-2.29,1-2.29,3v.17c0,2,.77,3.06,2.29,3.06S72.25,107.22,72.25,105.31Z" fill="#fff"/><path d="M78.5,107.29v-5.13H77.11V99.48H78.5v-2.4h3.94v2.4H84.7v2.68H82.44v4.75c0,.84.42,1.21,1.16,1.21a2.88,2.88,0,0,0,1.13-.2v3a8.42,8.42,0,0,1-2.18.33C80,111.25,78.5,110,78.5,107.29Z" fill="#fff"/><path d="M86.53,94.42h3.94v6.9a4.06,4.06,0,0,1,3.78-2.15c2.22,0,3.76,1.38,3.76,4.33V111H94.08v-6.69c0-1.29-.51-1.93-1.65-1.93s-2,.7-2,2.18V111H86.53Z" fill="#fff"/><path d="M99.64,105.37v-.17a5.89,5.89,0,0,1,6.23-6c3.14,0,5.85,1.8,5.85,5.94v1h-8.1a2.3,2.3,0,0,0,2.4,2.4c1.3,0,1.85-.59,2-1.36h3.7c-.35,2.59-2.35,4.07-5.83,4.07S99.64,109.13,99.64,105.37Zm8.25-1.45c-.06-1.39-.75-2.16-2-2.16a2.19,2.19,0,0,0-2.2,2.16Z" fill="#fff"/><path d="M113.41,99.48h3.94v2.28a3.64,3.64,0,0,1,3.72-2.44V103c-2.4-.07-3.72.68-3.72,2.53V111h-3.94Z" fill="#fff"/><path d="M19.17,125.48H23.1v1.71a4.06,4.06,0,0,1,3.59-2c2.69,0,4.86,2,4.86,6v.18c0,4-2.17,5.94-4.88,5.94a3.82,3.82,0,0,1-3.57-2v5.54H19.17Zm8.38,5.83v-.18c0-2-.88-3-2.27-3s-2.29,1-2.29,3v.17c0,2,.86,2.95,2.29,2.95S27.55,133.2,27.55,131.31Z" fill="#fff"/><path d="M32.65,133.79c0-2.7,2.29-3.76,6.12-3.76h1.1v-.26c0-1.1-.27-1.83-1.52-1.83a1.41,1.41,0,0,0-1.56,1.36h-3.7c.18-2.77,2.36-4.13,5.5-4.13s5.2,1.3,5.2,4.35V137H40v-1.34a3.78,3.78,0,0,1-3.41,1.61C34.48,137.25,32.65,136.24,32.65,133.79Zm7.22-.83v-.71h-1c-1.58,0-2.28.31-2.28,1.26,0,.66.44,1.07,1.36,1.07C39,134.58,39.87,134,39.87,133Z" fill="#fff"/><path d="M45.41,131.37v-.17a5.79,5.79,0,0,1,6.14-6c2.82,0,5.41,1.23,5.63,4.73H53.49a1.7,1.7,0,0,0-1.85-1.67c-1.39,0-2.2,1-2.2,2.92v.18c0,2,.77,3,2.26,3a1.93,1.93,0,0,0,2-1.91h3.54c-.11,2.9-2.07,4.8-5.79,4.8C48,137.25,45.41,135.25,45.41,131.37Z" fill="#fff"/><path d="M58.85,120.42h3.94V130l3.1-4.55H70l-3.77,5.17L70.29,137h-4.4l-3.1-5v5H58.85Z" fill="#fff"/><path d="M70.62,133.79c0-2.7,2.29-3.76,6.12-3.76h1.1v-.26c0-1.1-.26-1.83-1.52-1.83a1.41,1.41,0,0,0-1.56,1.36h-3.7c.18-2.77,2.36-4.13,5.5-4.13s5.2,1.3,5.2,4.35V137H77.93v-1.34a3.77,3.77,0,0,1-3.41,1.61C72.45,137.25,70.62,136.24,70.62,133.79Zm7.22-.83v-.71h-1c-1.59,0-2.29.31-2.29,1.26,0,.66.44,1.07,1.36,1.07C77,134.58,77.84,134,77.84,133Z" fill="#fff"/><path d="M83.36,137h3.92c.17.84.68,1.5,2.11,1.5a2.17,2.17,0,0,0,2.44-2.42V134.3a4,4,0,0,1-3.56,2.11c-2.69,0-4.89-2-4.89-5.52v-.18c0-3.39,2.18-5.54,4.89-5.54a3.75,3.75,0,0,1,3.56,1.93v-1.62h3.94V136c0,3.43-2.27,5.23-6.38,5.23C85.47,141.25,83.67,139.6,83.36,137Zm8.58-6.11v-.16c0-1.58-.81-2.59-2.26-2.59s-2.27,1-2.27,2.61v.18c0,1.58.84,2.6,2.24,2.6S91.94,132.49,91.94,130.87Z" fill="#fff"/><path d="M97.49,131.37v-.17a5.88,5.88,0,0,1,6.22-6c3.15,0,5.85,1.8,5.85,5.94v1h-8.09a2.3,2.3,0,0,0,2.4,2.4c1.29,0,1.84-.59,2-1.36h3.69c-.35,2.59-2.35,4.07-5.83,4.07S97.49,135.13,97.49,131.37Zm8.25-1.45c-.07-1.39-.75-2.16-2-2.16a2.19,2.19,0,0,0-2.2,2.16Z" fill="#fff"/><path d="M18.55,157.37v-.17a5.79,5.79,0,0,1,6.14-6c2.82,0,5.41,1.23,5.63,4.73H26.63a1.7,1.7,0,0,0-1.85-1.67c-1.39,0-2.2,1-2.2,2.92v.18c0,2,.77,3,2.26,3a1.93,1.93,0,0,0,2-1.91h3.54c-.11,2.9-2.07,4.8-5.79,4.8C21.17,163.25,18.55,161.25,18.55,157.37Z" fill="#fff"/><path d="M31.4,159.79c0-2.7,2.29-3.76,6.11-3.76h1.1v-.26c0-1.1-.26-1.83-1.51-1.83a1.42,1.42,0,0,0-1.57,1.36H31.84c.17-2.77,2.35-4.13,5.5-4.13s5.19,1.3,5.19,4.35V163H38.7v-1.34a3.77,3.77,0,0,1-3.41,1.61C33.22,163.25,31.4,162.24,31.4,159.79Zm7.21-.83v-.71h-1c-1.58,0-2.29.31-2.29,1.26,0,.66.44,1.07,1.37,1.07C37.78,160.58,38.61,160,38.61,159Z" fill="#fff"/><path d="M44.77,151.48h3.94v1.84a4.08,4.08,0,0,1,3.79-2.15c2.22,0,3.76,1.38,3.76,4.33V163H52.32v-6.69c0-1.29-.51-1.93-1.65-1.93s-2,.7-2,2.18V163H44.77Z" fill="#fff"/><path d="M62.83,151.48h3.94v1.76a4,4,0,0,1,3.61-2.07,3.14,3.14,0,0,1,3.13,1.91,4.55,4.55,0,0,1,3.8-1.91c2.18,0,3.77,1.41,3.77,4.29V163H77.14v-6.86c0-1.17-.58-1.74-1.48-1.74a1.71,1.71,0,0,0-1.76,1.94V163H70v-6.86c0-1.17-.57-1.74-1.48-1.74a1.71,1.71,0,0,0-1.76,1.94V163H62.83Z" fill="#fff"/><path d="M82.66,159.79c0-2.7,2.29-3.76,6.11-3.76h1.1v-.26c0-1.1-.26-1.83-1.51-1.83a1.42,1.42,0,0,0-1.57,1.36H83.1c.17-2.77,2.35-4.13,5.5-4.13s5.19,1.3,5.19,4.35V163H90v-1.34a3.77,3.77,0,0,1-3.41,1.61C84.48,163.25,82.66,162.24,82.66,159.79Zm7.21-.83v-.71h-1c-1.58,0-2.29.31-2.29,1.26,0,.66.44,1.07,1.37,1.07C89,160.58,89.87,160,89.87,159Z" fill="#fff"/><path d="M96.5,159.29v-5.13H95.11v-2.68H96.5v-2.4h3.93v2.4h2.27v2.68h-2.27v4.75a1.05,1.05,0,0,0,1.17,1.21,2.83,2.83,0,0,0,1.12-.2v3a8.28,8.28,0,0,1-2.18.33C98,163.25,96.5,162,96.5,159.29Z" fill="#fff"/><path d="M103.91,157.37v-.17a5.79,5.79,0,0,1,6.14-6c2.81,0,5.41,1.23,5.63,4.73H112a1.69,1.69,0,0,0-1.84-1.67c-1.39,0-2.2,1-2.2,2.92v.18c0,2,.77,3,2.26,3a1.91,1.91,0,0,0,2-1.91h3.55c-.11,2.9-2.07,4.8-5.79,4.8C106.53,163.25,103.91,161.25,103.91,157.37Z" fill="#fff"/><path d="M117.35,146.42h3.94v6.9a4.07,4.07,0,0,1,3.78-2.15c2.23,0,3.77,1.38,3.77,4.33V163H124.9v-6.69c0-1.29-.51-1.93-1.65-1.93s-2,.7-2,2.18V163h-3.94Z" fill="#fff"/><path d="M18.51,185.79c0-2.7,2.28-3.76,6.11-3.76h1.1v-.26c0-1.1-.26-1.83-1.51-1.83a1.42,1.42,0,0,0-1.57,1.36H19c.17-2.77,2.35-4.13,5.5-4.13s5.19,1.3,5.19,4.35V189H25.81v-1.34a3.77,3.77,0,0,1-3.41,1.61C20.33,189.25,18.51,188.24,18.51,185.79Zm7.21-.83v-.71h-1c-1.59,0-2.29.31-2.29,1.26,0,.66.44,1.07,1.36,1.07C24.89,186.58,25.72,186,25.72,185Z" fill="#fff"/><path d="M31.27,183.37v-.17a5.79,5.79,0,0,1,6.13-6c2.82,0,5.42,1.23,5.64,4.73h-3.7a1.69,1.69,0,0,0-1.85-1.67c-1.38,0-2.2,1-2.2,2.92v.18c0,2,.77,3,2.27,3a1.91,1.91,0,0,0,2-1.91H43.1c-.11,2.9-2.06,4.8-5.78,4.8C33.88,189.25,31.27,187.25,31.27,183.37Z" fill="#fff"/><path d="M44.71,177.48h3.94v2.28a3.62,3.62,0,0,1,3.71-2.44V181c-2.39-.07-3.71.68-3.71,2.53V189H44.71Z" fill="#fff"/><path d="M53.4,183.37v-.17c0-3.7,2.75-6,6.31-6S66,179.43,66,183.09v.17c0,3.74-2.75,6-6.29,6S53.4,187.09,53.4,183.37Zm8.58-.06v-.18c0-1.94-.77-3-2.27-3s-2.29,1-2.29,3v.17c0,2,.77,3.06,2.29,3.06S62,185.22,62,183.31Z" fill="#fff"/><path d="M67,185.33h3.63c.14.84.51,1.3,1.63,1.3,1,0,1.41-.38,1.41-.95s-.55-.81-2.13-1c-3.08-.4-4.38-1.3-4.38-3.7s2.26-3.78,4.93-3.78c2.83,0,4.82,1,5.08,3.72H73.59a1.29,1.29,0,0,0-1.47-1.15c-.86,0-1.3.38-1.3.9s.53.77,1.94,1c3.19.4,4.73,1.23,4.73,3.7,0,2.73-2,4-5.22,4S67.08,187.88,67,185.33Z" fill="#fff"/><path d="M78.39,185.33H82c.13.84.51,1.3,1.63,1.3,1,0,1.41-.38,1.41-.95s-.55-.81-2.14-1c-3.08-.4-4.38-1.3-4.38-3.7s2.27-3.78,4.93-3.78c2.84,0,4.82,1,5.08,3.72H85a1.29,1.29,0,0,0-1.47-1.15c-.86,0-1.3.38-1.3.9s.53.77,1.93,1c3.19.4,4.73,1.23,4.73,3.7,0,2.73-2,4-5.21,4S78.48,187.88,78.39,185.33Z" fill="#fff"/><path d="M19.08,211v-7.5H23v6.86c0,1.3.5,1.94,1.63,1.94s2-.71,2-2.18v-6.62h3.94V215H26.6V213.2A3.76,3.76,0,0,1,23,215.25C20.73,215.25,19.08,213.88,19.08,211Z" fill="#fff"/><path d="M32.1,211.33h3.63c.13.84.51,1.3,1.63,1.3s1.41-.38,1.41-.95-.55-.81-2.14-1c-3.08-.4-4.37-1.3-4.37-3.7s2.26-3.78,4.92-3.78c2.84,0,4.82,1,5.09,3.72H38.7a1.29,1.29,0,0,0-1.47-1.15c-.86,0-1.3.38-1.3.9s.53.77,1.94,1c3.19.4,4.73,1.23,4.73,3.7,0,2.73-2,4-5.22,4S32.19,213.88,32.1,211.33Z" fill="#fff"/><path d="M43.54,211.79c0-2.7,2.29-3.76,6.12-3.76h1.1v-.26c0-1.1-.27-1.83-1.52-1.83a1.41,1.41,0,0,0-1.56,1.36H44c.18-2.77,2.36-4.13,5.5-4.13s5.2,1.3,5.2,4.35V215H50.85v-1.34a3.78,3.78,0,0,1-3.41,1.61C45.37,215.25,43.54,214.24,43.54,211.79Zm7.22-.83v-.71h-1c-1.58,0-2.28.31-2.28,1.26,0,.66.44,1.07,1.36,1.07C49.92,212.58,50.76,212,50.76,211Z" fill="#fff"/><path d="M60.86,213.2V215H56.92V198.42h3.94v6.77a4,4,0,0,1,3.58-2c2.69,0,4.87,2,4.87,6v.18c0,4-2.18,5.94-4.89,5.94A3.72,3.72,0,0,1,60.86,213.2Zm4.44-3.89v-.18c0-2-.88-3-2.27-3s-2.28,1-2.28,3v.17c0,2,.85,2.95,2.28,2.95S65.3,211.2,65.3,209.31Z" fill="#fff"/><path d="M71,200.35a2.06,2.06,0,0,1,2.15-2,2.08,2.08,0,0,1,2.18,2,2.06,2.06,0,0,1-2.18,2A2,2,0,0,1,71,200.35Zm.19,3.13h3.94V215H71.17Z" fill="#fff"/><path d="M77.66,198.42h3.92V215H77.66Z" fill="#fff"/><path d="M83.93,200.35a2.17,2.17,0,1,1,2.16,2A2,2,0,0,1,83.93,200.35Zm.2,3.13h3.94V215H84.13Z" fill="#fff"/><path d="M91,211.29v-5.13H89.65v-2.68H91v-2.4H95v2.4h2.26v2.68H95v4.75c0,.84.42,1.21,1.16,1.21a2.92,2.92,0,0,0,1.13-.2v3a8.42,8.42,0,0,1-2.18.33C92.49,215.25,91,214,91,211.29Z" fill="#fff"/><path d="M102.68,213.82l-4.6-10.34h4.27l2.37,6.13,2.2-6.13h3.77l-6.16,15.35h-3.77Z" fill="#fff"/><path d="M109.52,216.77l1.85-5.79,3.65,1.3-3.17,5.39Z" fill="#fff"/><path d="M19.76,232.16H18.31v-2.68h1.45v-1c0-2.86,1.78-4.22,4.51-4.22a7.15,7.15,0,0,1,1.81.24v2.88a4,4,0,0,0-1.08-.15,1.15,1.15,0,0,0-1.32,1.25v1H26v2.68H23.68V241H19.76Z" fill="#fff"/><path d="M26.65,235.37v-.17a5.88,5.88,0,0,1,6.22-6c3.15,0,5.86,1.8,5.86,5.94v1h-8.1a2.3,2.3,0,0,0,2.4,2.4c1.3,0,1.85-.59,2-1.36h3.7c-.36,2.59-2.36,4.07-5.83,4.07S26.65,239.13,26.65,235.37Zm8.25-1.45c-.07-1.39-.75-2.16-2-2.16a2.19,2.19,0,0,0-2.2,2.16Z" fill="#fff"/><path d="M39.87,237.79c0-2.7,2.29-3.76,6.11-3.76h1.1v-.26c0-1.1-.26-1.83-1.51-1.83A1.42,1.42,0,0,0,44,233.3H40.31c.17-2.77,2.35-4.13,5.5-4.13s5.19,1.3,5.19,4.35V241H47.17v-1.34a3.77,3.77,0,0,1-3.41,1.61C41.69,241.25,39.87,240.24,39.87,237.79Zm7.21-.83v-.71h-1c-1.58,0-2.29.31-2.29,1.26,0,.66.44,1.07,1.37,1.07C46.25,238.58,47.08,238,47.08,237Z" fill="#fff"/><path d="M53.71,237.29v-5.13H52.32v-2.68h1.39v-2.4h3.93v2.4h2.27v2.68H57.64v4.75a1.05,1.05,0,0,0,1.17,1.21,2.83,2.83,0,0,0,1.12-.2v3a8.28,8.28,0,0,1-2.18.33C55.16,241.25,53.71,240,53.71,237.29Z" fill="#fff"/><path d="M61.65,237v-7.5h3.94v6.86c0,1.3.5,1.94,1.62,1.94s2-.71,2-2.18v-6.62h3.94V241H69.17V239.2a3.77,3.77,0,0,1-3.65,2.05C63.3,241.25,61.65,239.88,61.65,237Z" fill="#fff"/><path d="M75.44,229.48h3.94v2.28a3.64,3.64,0,0,1,3.72-2.44V233c-2.4-.07-3.72.68-3.72,2.53V241H75.44Z" fill="#fff"/><path d="M84.13,235.37v-.17a5.89,5.89,0,0,1,6.23-6c3.14,0,5.85,1.8,5.85,5.94v1h-8.1a2.3,2.3,0,0,0,2.4,2.4c1.3,0,1.85-.59,2-1.36h3.7c-.35,2.59-2.35,4.07-5.83,4.07S84.13,239.13,84.13,235.37Zm8.25-1.45c-.06-1.39-.75-2.16-2-2.16a2.19,2.19,0,0,0-2.2,2.16Z" fill="#fff"/><path d="M97.24,237.33h3.63c.13.84.51,1.3,1.63,1.3,1,0,1.41-.38,1.41-.95s-.55-.81-2.13-1c-3.08-.4-4.38-1.3-4.38-3.7s2.26-3.78,4.93-3.78c2.83,0,4.81,1,5.08,3.72h-3.57a1.29,1.29,0,0,0-1.47-1.15c-.86,0-1.3.38-1.3.9s.53.77,1.94,1c3.19.4,4.73,1.23,4.73,3.7,0,2.73-2,4-5.22,4S97.33,239.88,97.24,237.33Z" fill="#fff"/><path d="M108.53,242.77l1.85-5.79,3.65,1.3-3.17,5.39Z" fill="#fff"/><path d="M18.4,263.33H22c.13.84.5,1.3,1.62,1.3s1.41-.38,1.41-.95-.55-.81-2.13-1c-3.08-.4-4.38-1.3-4.38-3.7s2.27-3.78,4.93-3.78c2.84,0,4.82,1,5.08,3.72H25a1.3,1.3,0,0,0-1.48-1.15c-.86,0-1.3.38-1.3.9s.53.77,1.94.95c3.19.4,4.73,1.23,4.73,3.7,0,2.73-2,4-5.21,4S18.48,265.88,18.4,263.33Z" fill="#fff"/><path d="M30.41,263v-7.5h3.94v6.86c0,1.3.5,1.94,1.63,1.94s2-.71,2-2.18v-6.62h3.94V267H37.93V265.2a3.77,3.77,0,0,1-3.65,2.05C32.06,267.25,30.41,265.88,30.41,263Z" fill="#fff"/><path d="M44.2,255.48h3.94v1.71a4.06,4.06,0,0,1,3.59-2c2.68,0,4.86,2,4.86,6v.18c0,4-2.18,5.94-4.88,5.94a3.81,3.81,0,0,1-3.57-2v5.54H44.2Zm8.38,5.83v-.18c0-2-.87-3-2.26-3s-2.29,1-2.29,3v.17c0,2,.86,3,2.29,3S52.58,263.2,52.58,261.31Z" fill="#fff"/><path d="M58.35,255.48h3.94v1.71a4,4,0,0,1,3.58-2c2.69,0,4.87,2,4.87,6v.18c0,4-2.18,5.94-4.89,5.94a3.79,3.79,0,0,1-3.56-2v5.54H58.35Zm8.38,5.83v-.18c0-2-.88-3-2.27-3s-2.28,1-2.28,3v.17c0,2,.85,3,2.28,3S66.73,263.2,66.73,261.31Z" fill="#fff"/><path d="M71.88,261.37v-.17c0-3.7,2.75-6,6.31-6s6.27,2.26,6.27,5.92v.17c0,3.74-2.75,6-6.29,6S71.88,265.09,71.88,261.37Zm8.58-.06v-.18c0-1.94-.77-3-2.27-3s-2.29,1-2.29,3v.17c0,2,.77,3.06,2.29,3.06S80.46,263.22,80.46,261.31Z" fill="#fff"/><path d="M86.18,255.48h3.94v2.28a3.62,3.62,0,0,1,3.71-2.44V259c-2.39-.07-3.71.68-3.71,2.53V267H86.18Z" fill="#fff"/><path d="M96.3,263.29v-5.13H94.91v-2.68H96.3v-2.4h3.94v2.4h2.26v2.68h-2.26v4.75c0,.84.41,1.21,1.16,1.21a2.83,2.83,0,0,0,1.12-.2v3a8.26,8.26,0,0,1-2.17.33C97.75,267.25,96.3,266,96.3,263.29Z" fill="#fff"/><path d="M18.51,289.79c0-2.7,2.28-3.76,6.11-3.76h1.1v-.26c0-1.1-.26-1.83-1.51-1.83a1.42,1.42,0,0,0-1.57,1.36H19c.17-2.77,2.35-4.13,5.5-4.13s5.19,1.3,5.19,4.35V293H25.81v-1.34a3.77,3.77,0,0,1-3.41,1.61C20.33,293.25,18.51,292.24,18.51,289.79Zm7.21-.83v-.71h-1c-1.59,0-2.29.31-2.29,1.26,0,.66.44,1.07,1.36,1.07C24.89,290.58,25.72,290,25.72,289Z" fill="#fff"/><path d="M31.88,281.48h3.94v1.84a4.07,4.07,0,0,1,3.78-2.15c2.23,0,3.77,1.38,3.77,4.33V293H39.43v-6.69c0-1.29-.51-1.93-1.65-1.93s-2,.7-2,2.18V293H31.88Z" fill="#fff"/><path d="M45,287.35v-.18c0-3.91,2.15-6,4.88-6a3.73,3.73,0,0,1,3.54,1.93v-6.68H57.4V293H53.46v-1.87a3.86,3.86,0,0,1-3.58,2.14C47.22,293.25,45,291.33,45,287.35Zm8.53-.07v-.17c0-1.94-.81-3-2.26-3s-2.27,1-2.27,3v.18c0,1.93.86,2.92,2.22,2.92S53.57,289.24,53.57,287.28Z" fill="#fff"/><path d="M64.07,281.48H68v1.71a4,4,0,0,1,3.58-2c2.69,0,4.87,2,4.87,6v.18c0,4-2.18,5.94-4.89,5.94a3.79,3.79,0,0,1-3.56-2v5.54H64.07Zm8.38,5.83v-.18c0-2-.88-3-2.27-3s-2.28,1-2.28,3v.17c0,2,.85,3,2.28,3S72.45,289.2,72.45,287.31Z" fill="#fff"/><path d="M78.21,281.48h3.94v2.28a3.64,3.64,0,0,1,3.72-2.44V285c-2.4-.07-3.72.68-3.72,2.53V293H78.21Z" fill="#fff"/><path d="M87.54,278.35a2.06,2.06,0,0,1,2.16-2.05,2.08,2.08,0,0,1,2.18,2.05,2.06,2.06,0,0,1-2.18,2A2,2,0,0,1,87.54,278.35Zm.2,3.13h3.94V293H87.74Z" fill="#fff"/><path d="M93.5,287.37v-.17a5.79,5.79,0,0,1,6.14-6c2.82,0,5.41,1.23,5.63,4.73h-3.69a1.7,1.7,0,0,0-1.85-1.67c-1.39,0-2.2,1-2.2,2.92v.18c0,2,.77,3,2.27,3a1.91,1.91,0,0,0,2-1.91h3.54c-.11,2.9-2.07,4.8-5.79,4.8C96.12,293.25,93.5,291.25,93.5,287.37Z" fill="#fff"/><path d="M106.33,287.37v-.17a5.89,5.89,0,0,1,6.23-6c3.14,0,5.85,1.8,5.85,5.94v1h-8.1a2.3,2.3,0,0,0,2.4,2.4c1.3,0,1.85-.59,2-1.36h3.7c-.35,2.59-2.36,4.07-5.83,4.07S106.33,291.13,106.33,287.37Zm8.25-1.45c-.07-1.39-.75-2.16-2-2.16a2.18,2.18,0,0,0-2.2,2.16Z" fill="#fff"/><path d="M119.84,291a2.19,2.19,0,0,1,2.24-2.22,2.23,2.23,0,1,1,0,4.45A2.19,2.19,0,0,1,119.84,291Z" fill="#fff"/><path d="M122.92,277.25h3.69l-.46,6.05h-2.79Zm4.66,0h3.72l-.46,6.05H128Z" fill="#fff"/></g><g id="_NerdWallet_on_H_R_Block_Free_Online" data-name="– NerdWallet  on H&amp;R Block  Free Online"><path d="M35.57,364.61h7.94v1.51H35.57Z" fill="#fff"/><path d="M49.56,357.57h2.86l5.42,9.31v-9.31H60v12.87H57.53l-5.8-9.87v9.87H49.56Z" fill="#fff"/><path d="M61.83,365.83v-.14a4.58,4.58,0,0,1,4.68-4.86c2.34,0,4.45,1.38,4.45,4.75v.63h-6.9c.08,1.78,1,2.79,2.6,2.79,1.31,0,2-.52,2.16-1.44h2.1c-.3,2-1.9,3.06-4.32,3.06A4.51,4.51,0,0,1,61.83,365.83Zm7-1.08c-.11-1.62-.94-2.34-2.29-2.34a2.42,2.42,0,0,0-2.41,2.34Z" fill="#fff"/><path d="M72.63,361h2.18v1.77a3.14,3.14,0,0,1,3.06-1.91v2c-1.91,0-3.06.63-3.06,2.63v4.9H72.63Z" fill="#fff"/><path d="M78.68,365.88v-.14c0-3,1.78-4.91,4.23-4.91a3.23,3.23,0,0,1,3,1.63v-5.79H88.1v13.77H85.92v-1.58a3.63,3.63,0,0,1-3.1,1.76C80.46,370.62,78.68,369,78.68,365.88Zm7.31-.1v-.15c0-2.07-.95-3.09-2.54-3.09s-2.54,1.11-2.54,3.15v.14c0,2.07,1,3.06,2.45,3.06S86,367.88,86,365.78Z" fill="#fff"/><path d="M89.59,357.57H92L94.27,367l2.5-9.45h2l2.56,9.5,2.3-9.5h2.24l-3.23,12.87h-2.39l-2.54-9.38-2.61,9.38H92.79Z" fill="#fff"/><path d="M106,367.83c0-2.2,2.13-3,4.83-3H112v-.49c0-1.26-.44-1.89-1.71-1.89a1.56,1.56,0,0,0-1.8,1.48H106.4c.18-2.2,1.93-3.11,4-3.11s3.77.86,3.77,3.43v6.18h-2.15v-1.15a3.27,3.27,0,0,1-2.88,1.33C107.44,370.62,106,369.79,106,367.83Zm6-.69v-.93H110.9c-1.66,0-2.72.38-2.72,1.53,0,.79.43,1.31,1.51,1.31C111,369.05,112,368.35,112,367.14Z" fill="#fff"/><path d="M116.48,356.67h2.18v13.77h-2.18Z" fill="#fff"/><path d="M121.09,356.67h2.18v13.77h-2.18Z" fill="#fff"/><path d="M125,365.83v-.14a4.58,4.58,0,0,1,4.68-4.86c2.34,0,4.45,1.38,4.45,4.75v.63h-6.9c.08,1.78,1,2.79,2.6,2.79,1.31,0,2-.52,2.16-1.44h2.1c-.3,2-1.9,3.06-4.32,3.06A4.51,4.51,0,0,1,125,365.83Zm7-1.08c-.11-1.62-.94-2.34-2.29-2.34a2.42,2.42,0,0,0-2.41,2.34Z" fill="#fff"/><path d="M136.17,367.81v-5.15h-1.26V361h1.26V359h2.18V361h2.07v1.64h-2.07v4.95c0,.83.4,1.21,1.08,1.21a2.58,2.58,0,0,0,1.06-.18v1.73a4.33,4.33,0,0,1-1.47.23A2.53,2.53,0,0,1,136.17,367.81Z" fill="#fff"/><path d="M28.53,385.83v-.14a4.65,4.65,0,0,1,4.85-4.86,4.62,4.62,0,0,1,4.82,4.8v.15a4.63,4.63,0,0,1-4.84,4.84A4.62,4.62,0,0,1,28.53,385.83Zm7.44,0v-.12c0-1.95-1-3.13-2.59-3.13s-2.62,1.17-2.62,3.11v.14c0,1.93,1,3.14,2.62,3.14S36,387.72,36,385.79Z" fill="#fff"/><path d="M39.89,381h2.18v1.5a3.23,3.23,0,0,1,3-1.69c1.89,0,3.22,1.09,3.22,3.69v5.92H46.16v-5.73c0-1.42-.58-2.07-1.88-2.07a2.09,2.09,0,0,0-2.21,2.25v5.55H39.89Z" fill="#fff"/><path d="M54.76,377.57h2.39V383h5.78v-5.47h2.42v12.87H62.93V385H57.15v5.47H54.76Z" fill="#fff"/><path d="M76.76,387.81l2.16,2.63H76.16l-1.08-1.31a4.67,4.67,0,0,1-3.53,1.47c-2.5,0-4.23-1.42-4.23-3.67,0-1.89,1.17-3,2.9-3.82a4.31,4.31,0,0,1-1-2.54c0-2,1.68-3.11,3.55-3.11S76,378.52,76,380.25c0,1.49-1,2.56-2.68,3.28l2.27,2.77,1.31-2.52h2ZM74,387.74l-2.74-3.33a2.42,2.42,0,0,0-1.64,2.28,2,2,0,0,0,2.21,2.11A2.8,2.8,0,0,0,74,387.74Zm-1.66-5.26c1.21-.56,1.71-1.13,1.71-2.14a1.21,1.21,0,0,0-1.26-1.28,1.37,1.37,0,0,0-1.42,1.53A3.17,3.17,0,0,0,72.31,382.48Z" fill="#fff"/><path d="M80.62,377.57H85c2.82,0,4.8,1.15,4.8,3.78v.07a3.4,3.4,0,0,1-2.86,3.46l3.62,5.56H87.92l-3.37-5.2H83v5.2h-2.4Zm4.33,6c1.6,0,2.44-.69,2.44-2.06v-.07c0-1.48-.91-2-2.44-2H83v4.11Z" fill="#fff"/><path d="M96.16,377.57h4.61c2.64,0,4.21,1,4.21,3.35V381a2.63,2.63,0,0,1-2,2.73,2.83,2.83,0,0,1,2.57,3v.07c0,2.39-1.58,3.6-4.41,3.6h-5Zm4.32,5.42c1.58,0,2.2-.58,2.2-1.9V381c0-1.22-.71-1.74-2.24-1.74H98.5V383Zm.34,5.74c1.6,0,2.34-.72,2.34-2.05v-.08c0-1.33-.74-2-2.5-2H98.5v4.12Z" fill="#fff"/><path d="M107.37,376.67h2.18v13.77h-2.18Z" fill="#fff"/><path d="M111.29,385.83v-.14a4.84,4.84,0,0,1,9.67-.06v.15a4.84,4.84,0,0,1-9.67.05Zm7.44,0v-.12c0-1.95-1-3.13-2.59-3.13s-2.61,1.17-2.61,3.11v.14c0,1.93,1,3.14,2.61,3.14S118.73,387.72,118.73,385.79Z" fill="#fff"/><path d="M122,385.85v-.15a4.64,4.64,0,0,1,4.76-4.87c2.09,0,4.05.93,4.3,3.52H129a1.94,1.94,0,0,0-2.16-1.78c-1.49,0-2.55,1.15-2.55,3.1v.14c0,2.06,1,3.14,2.61,3.14a2.14,2.14,0,0,0,2.26-2h2c-.16,2.16-1.8,3.69-4.35,3.69A4.5,4.5,0,0,1,122,385.85Z" fill="#fff"/><path d="M132.73,376.67h2.18v8.49l3.37-4.14h2.38L137,385.34l4,5.1h-2.52l-3.53-4.63v4.63h-2.18Z" fill="#fff"/><path d="M46.77,397.57h8v1.9H49.16v3.84h4.39v1.85H49.16v5.28H46.77Z" fill="#fff"/><path d="M56,401h2.17v1.77a3.15,3.15,0,0,1,3.07-1.91v2c-1.91,0-3.07.63-3.07,2.63v4.9H56Z" fill="#fff"/><path d="M62.08,405.83v-.14a4.58,4.58,0,0,1,4.69-4.86c2.34,0,4.44,1.38,4.44,4.75v.63H64.32c.07,1.78,1,2.79,2.59,2.79,1.31,0,2-.52,2.16-1.44h2.11c-.31,2-1.91,3.06-4.32,3.06A4.52,4.52,0,0,1,62.08,405.83Zm7-1.08c-.11-1.62-.93-2.34-2.28-2.34a2.42,2.42,0,0,0-2.42,2.34Z" fill="#fff"/><path d="M72.25,405.83v-.14a4.58,4.58,0,0,1,4.69-4.86c2.34,0,4.44,1.38,4.44,4.75v.63H74.49c.07,1.78,1,2.79,2.59,2.79,1.31,0,2-.52,2.16-1.44h2.11c-.31,2-1.91,3.06-4.32,3.06A4.52,4.52,0,0,1,72.25,405.83Zm7-1.08c-.11-1.62-.93-2.34-2.28-2.34a2.42,2.42,0,0,0-2.42,2.34Z" fill="#fff"/><path d="M86.6,404.08v-.14a6.32,6.32,0,0,1,6.52-6.55,6.22,6.22,0,0,1,6.48,6.5V404a6.5,6.5,0,1,1-13,.05Zm10.51,0v-.15c0-2.64-1.47-4.61-4-4.61s-4,1.86-4,4.63v.15c0,2.81,1.71,4.62,4.05,4.62S97.11,406.84,97.11,404.05Z" fill="#fff"/><path d="M101.45,401h2.18v1.5a3.23,3.23,0,0,1,3-1.69c1.89,0,3.22,1.09,3.22,3.69v5.92h-2.17v-5.73c0-1.42-.58-2.07-1.88-2.07a2.09,2.09,0,0,0-2.21,2.25v5.55h-2.18Z" fill="#fff"/><path d="M112.18,396.67h2.18v13.77h-2.18Z" fill="#fff"/><path d="M116.55,398.23a1.3,1.3,0,1,1,1.3,1.24A1.26,1.26,0,0,1,116.55,398.23Zm.24,2.79H119v9.42h-2.17Z" fill="#fff"/><path d="M121.34,401h2.18v1.5a3.23,3.23,0,0,1,3-1.69c1.89,0,3.22,1.09,3.22,3.69v5.92h-2.17v-5.73c0-1.42-.58-2.07-1.88-2.07a2.09,2.09,0,0,0-2.21,2.25v5.55h-2.18Z" fill="#fff"/><path d="M131.38,405.83v-.14a4.58,4.58,0,0,1,4.68-4.86c2.35,0,4.45,1.38,4.45,4.75v.63h-6.89c.07,1.78,1,2.79,2.59,2.79,1.31,0,2-.52,2.16-1.44h2.11c-.31,2-1.91,3.06-4.33,3.06A4.51,4.51,0,0,1,131.38,405.83Zm7-1.08c-.11-1.62-.93-2.34-2.29-2.34a2.42,2.42,0,0,0-2.41,2.34Z" fill="#fff"/></g></g></svg>