<svg xmlns="http://www.w3.org/2000/svg" viewBox="0 0 600 500"><title>H3</title><g id="Layer_2" data-name="Layer 2"><g id="Rectangle_3" data-name="Rectangle 3" style="isolation:isolate"><g id="Rectangle_3-2" data-name="Rectangle 3"><rect width="600" height="500" fill="none"/></g></g><g id="Image_11" data-name="Image 11"><g id="_Text_Layer_10" data-name="&lt;Text Layer&gt; 10"><path d="M42.42,80.6h17.4c12.55,0,18.37,5.56,18.37,15.29v.26c0,9.6-6.46,14.78-17.79,14.78H55.47v15.42h-13ZM59.25,102c4.22,0,6.46-2,6.46-5.76V96c0-3.9-2.3-5.5-6.4-5.5H55.47V102Z" fill="#fff"/><path d="M79.22,110v-.51c0-10.75,8-17.53,18.36-17.53s18.24,6.59,18.24,17.21v.51c0,10.88-8,17.41-18.3,17.41S79.22,120.85,79.22,110Zm25-.19v-.51c0-5.63-2.24-8.77-6.59-8.77s-6.65,3-6.65,8.64v.51c0,5.76,2.24,8.9,6.65,8.9S104.17,115.41,104.17,109.84Z" fill="#fff"/><path d="M116,92.88h12l4.86,20,5.63-20h9.22l5,20,5.44-20h10.88l-10.62,33.47H147.37l-5-18.68-5.18,18.68H126.06Z" fill="#fff"/><path d="M168.62,110v-.51c0-10.75,8-17.53,18.11-17.53,9.16,0,17,5.24,17,17.28v3H180.21c.32,4.42,2.88,7,7,7,3.78,0,5.38-1.73,5.83-4h10.75c-1,7.55-6.85,11.84-17,11.84C176.3,127.12,168.62,121,168.62,110Zm24-4.22c-.19-4-2.17-6.27-5.89-6.27-3.45,0-5.82,2.24-6.4,6.27Z" fill="#fff"/><path d="M207.73,92.88h11.45v6.66c2.11-5,5.63-7.17,10.82-7.1v10.68c-7-.19-10.82,2-10.82,7.36v15.87H207.73Z" fill="#fff"/><path d="M245.81,78.16h11.45v20.1c1.79-3.46,5.44-6.27,11-6.27,6.46,0,10.94,4,10.94,12.6v21.76H267.76V106.9c0-3.78-1.48-5.63-4.8-5.63s-5.7,2-5.7,6.33v18.75H245.81Z" fill="#fff"/><path d="M283,110v-.51C283,98.77,291,92,301.36,92s18.23,6.59,18.23,17.21v.51c0,10.88-8,17.41-18.3,17.41S283,120.85,283,110Zm25-.19v-.51c0-5.63-2.24-8.77-6.59-8.77s-6.66,3-6.66,8.64v.51c0,5.76,2.24,8.9,6.66,8.9S308,115.41,308,109.84Z" fill="#fff"/><path d="M323.37,114.71V92.88h11.46v20c0,3.78,1.47,5.63,4.73,5.63,3.46,0,5.7-2,5.7-6.33V92.88h11.45v33.47H345.26v-5.18c-1.79,3.45-5.06,6-10.62,6C328.17,127.12,323.37,123.15,323.37,114.71Z" fill="#fff"/><path d="M362.54,92.88H374v6.66c2.11-5,5.63-7.17,10.81-7.1v10.68c-7-.19-10.81,2-10.81,7.36v15.87H362.54Z" fill="#fff"/><path d="M384.68,120.59a6.39,6.39,0,0,1,6.53-6.46,6.47,6.47,0,1,1,0,12.93A6.39,6.39,0,0,1,384.68,120.59Z" fill="#fff"/><path d="M427,106.77,412.08,80.6h14.27L434.09,96l7.74-15.42h12.55l-14.21,26.17v19.58H427Z" fill="#fff"/><path d="M449.58,110v-.51c0-10.75,8-17.53,18.37-17.53s18.23,6.59,18.23,17.21v.51c0,10.88-8,17.41-18.3,17.41S449.58,120.85,449.58,110Zm25-.19v-.51c0-5.63-2.24-8.77-6.59-8.77s-6.66,3-6.66,8.64v.51c0,5.76,2.24,8.9,6.66,8.9S474.54,115.41,474.54,109.84Z" fill="#fff"/><path d="M490,114.71V92.88h11.46v20c0,3.78,1.47,5.63,4.73,5.63,3.46,0,5.7-2,5.7-6.33V92.88H523.3v33.47H511.85v-5.18c-1.79,3.45-5.06,6-10.62,6C494.76,127.12,490,123.15,490,114.71Z" fill="#fff"/><path d="M529.13,92.88h11.45v6.66c2.12-5,5.64-7.17,10.82-7.1v10.68c-7-.19-10.82,2-10.82,7.36v15.87H529.13Z" fill="#fff"/><path d="M42.93,180.6V165.69h-4v-7.81h4v-7H54.38v7H61v7.81H54.38v13.82c0,2.44,1.22,3.52,3.39,3.52a8.86,8.86,0,0,0,3.27-.57v8.7a24.21,24.21,0,0,1-6.34,1C47.15,192.12,42.93,188.47,42.93,180.6Z" fill="#fff"/><path d="M63.54,182.07c0-7.87,6.65-10.94,17.79-10.94h3.2v-.77c0-3.2-.77-5.31-4.42-5.31-3.14,0-4.29,1.86-4.54,4H64.82c.51-8.07,6.84-12,16-12s15.11,3.77,15.11,12.67v21.69H84.78v-3.9c-1.6,2.43-4.54,4.67-9.92,4.67C68.85,192.12,63.54,189.18,63.54,182.07Zm21-2.43v-2h-3c-4.61,0-6.66.9-6.66,3.65,0,1.92,1.28,3.14,4,3.14C82.09,184.38,84.53,182.52,84.53,179.64Z" fill="#fff"/><path d="M109.93,174.33,99.5,157.88h13.19l5.18,8.83,5-8.83H134.7l-10.56,15.55,11.58,17.92H122.54l-6-10-6.08,10H98.8Z" fill="#fff"/><path d="M134.25,175v-.51c0-10.75,8-17.53,18.11-17.53,9.16,0,17,5.24,17,17.28v3H145.84c.32,4.42,2.88,7,7,7,3.78,0,5.38-1.73,5.83-4h10.75c-1,7.55-6.85,11.84-17,11.84C141.93,192.12,134.25,186,134.25,175Zm24-4.22c-.19-4-2.17-6.27-5.89-6.27-3.45,0-5.82,2.24-6.39,6.27Z" fill="#fff"/><path d="M171.44,180.73H182c.38,2.43,1.47,3.77,4.73,3.77,2.82,0,4.1-1.08,4.1-2.75s-1.6-2.36-6.21-3c-9-1.16-12.73-3.78-12.73-10.76,0-7.42,6.59-11,14.33-11,8.26,0,14,2.81,14.78,10.81H190.64c-.45-2.24-1.67-3.33-4.29-3.33s-3.78,1.09-3.78,2.63,1.54,2.24,5.63,2.75C197.48,171,202,173.43,202,180.6c0,7.94-5.88,11.52-15.16,11.52C177.26,192.12,171.69,188.15,171.44,180.73Z" fill="#fff"/><path d="M215.53,175v-.51c0-11.13,8-17.53,17.86-17.53,8.19,0,15.74,3.58,16.38,13.76H239c-.51-3.14-2.05-4.87-5.38-4.87-4,0-6.4,2.88-6.4,8.51v.52c0,5.82,2.24,8.83,6.59,8.83,3.21,0,5.44-1.92,5.83-5.57H250c-.32,8.45-6,14-16.83,14C223.15,192.12,215.53,186.3,215.53,175Z" fill="#fff"/><path d="M251.88,175v-.51c0-10.75,8-17.53,18.37-17.53s18.24,6.59,18.24,17.21v.51c0,10.88-8,17.41-18.3,17.41S251.88,185.85,251.88,175Zm25-.19v-.51c0-5.63-2.24-8.77-6.59-8.77s-6.66,3-6.66,8.64v.51c0,5.76,2.24,8.9,6.66,8.9S276.84,180.41,276.84,174.84Z" fill="#fff"/><path d="M292.27,179.71V157.88h11.45v20c0,3.78,1.47,5.63,4.74,5.63,3.45,0,5.69-2,5.69-6.33V157.88h11.46v33.47H314.15v-5.18c-1.79,3.45-5,6-10.62,6C297.07,192.12,292.27,188.15,292.27,179.71Z" fill="#fff"/><path d="M331.75,143.16h11.4v48.19h-11.4Z" fill="#fff"/><path d="M347.63,175v-.51c0-11.39,6.27-17.47,14.2-17.47,5.25,0,8.39,2.24,10.31,5.63V143.16h11.45v48.19H372.14v-5.44a11.28,11.28,0,0,1-10.43,6.21C354,192.12,347.63,186.55,347.63,175Zm24.83-.19v-.51c0-5.64-2.37-8.64-6.59-8.64s-6.6,2.88-6.6,8.7v.51c0,5.63,2.5,8.51,6.47,8.51C369.9,183.35,372.46,180.47,372.46,174.78Z" fill="#fff"/><path d="M412.52,186.17v5.18H401.07V143.16h11.45v19.71A11.81,11.81,0,0,1,423,157c7.81,0,14.14,5.88,14.14,17.34v.51c0,11.52-6.33,17.28-14.2,17.28C417.9,192.12,414.18,189.75,412.52,186.17Zm12.93-11.33v-.51c0-5.89-2.56-8.7-6.59-8.7s-6.66,3-6.66,8.64v.51c0,5.69,2.5,8.57,6.66,8.57S425.45,180.35,425.45,174.84Z" fill="#fff"/><path d="M439.46,175v-.51c0-10.75,8-17.53,18.12-17.53,9.15,0,17,5.24,17,17.28v3H451.05c.32,4.42,2.88,7,7,7,3.78,0,5.38-1.73,5.83-4H474.6c-1,7.55-6.85,11.84-17,11.84C447.14,192.12,439.46,186,439.46,175Zm24-4.22c-.19-4-2.17-6.27-5.88-6.27-3.46,0-5.83,2.24-6.4,6.27Z" fill="#fff"/><path d="M39.73,240v-.51C39.73,228.07,46,222,53.94,222c5.24,0,8.38,2.24,10.3,5.63V208.16H75.69v48.19H64.24v-5.44a11.28,11.28,0,0,1-10.43,6.21C46.06,257.12,39.73,251.55,39.73,240Zm24.83-.19v-.51c0-5.64-2.37-8.64-6.59-8.64s-6.59,2.88-6.59,8.7v.51c0,5.63,2.49,8.51,6.46,8.51C62,248.35,64.56,245.47,64.56,239.78Z" fill="#fff"/><path d="M79.73,240v-.51c0-10.75,8-17.53,18.36-17.53s18.24,6.59,18.24,17.21v.51c0,10.88-8,17.41-18.3,17.41S79.73,250.85,79.73,240Zm25-.19v-.51c0-5.63-2.24-8.77-6.6-8.77s-6.65,3-6.65,8.64v.51c0,5.76,2.24,8.9,6.65,8.9S104.69,245.41,104.69,239.84Z" fill="#fff"/><path d="M120.37,222.88h11.45v5.38c1.79-3.46,5.44-6.27,11-6.27,6.46,0,10.94,4,10.94,12.6v21.76H142.32V236.9c0-3.78-1.47-5.63-4.8-5.63s-5.7,2-5.7,6.33v18.75H120.37Z" fill="#fff"/><path d="M157.55,240v-.51c0-10.75,8-17.53,18.11-17.53,9.15,0,17,5.24,17,17.28v3H169.13c.32,4.42,2.88,7,7,7,3.78,0,5.38-1.73,5.82-4h10.75c-1,7.55-6.84,11.84-17,11.84C165.23,257.12,157.55,251,157.55,240Zm24-4.22c-.19-4-2.18-6.27-5.89-6.27-3.45,0-5.82,2.24-6.4,6.27Z" fill="#fff"/><path d="M208.05,213.8a6.31,6.31,0,0,1,12.6,0c0,3.39-2.75,5.88-6.33,5.88S208.05,217.19,208.05,213.8Zm.57,9.08h11.46v33.47H208.62Z" fill="#fff"/><path d="M226.22,222.88h11.46v5.38c1.79-3.46,5.44-6.27,11-6.27,6.47,0,10.95,4,10.95,12.6v21.76H248.17V236.9c0-3.78-1.47-5.63-4.8-5.63s-5.69,2-5.69,6.33v18.75H226.22Z" fill="#fff"/><path d="M274.92,247.07c0-7.87,6.66-10.94,17.8-10.94h3.2v-.77c0-3.2-.77-5.31-4.42-5.31-3.14,0-4.29,1.86-4.54,4H276.2c.52-8.07,6.85-12,16-12s15.11,3.77,15.11,12.67v21.69H296.17v-3.9c-1.6,2.43-4.54,4.67-9.92,4.67C280.24,257.12,274.92,254.18,274.92,247.07Zm21-2.43v-2h-3c-4.61,0-6.66.9-6.66,3.65,0,1.92,1.28,3.14,4,3.14C293.48,249.38,295.92,247.52,295.92,244.64Z" fill="#fff"/><path d="M312.88,222.88h11.45v5.38c1.79-3.46,5.44-6.27,11-6.27,6.46,0,10.94,4,10.94,12.6v21.76H334.83V236.9c0-3.78-1.48-5.63-4.8-5.63s-5.7,2-5.7,6.33v18.75H312.88Z" fill="#fff"/><path d="M363.5,208.16H375v20.1c1.8-3.46,5.44-6.27,11-6.27,6.46,0,10.94,4,10.94,12.6v21.76H385.45V236.9c0-3.78-1.47-5.63-4.8-5.63s-5.7,2-5.7,6.33v18.75H363.5Z" fill="#fff"/><path d="M400.68,240v-.51c0-10.75,8-17.53,18.37-17.53s18.24,6.59,18.24,17.21v.51c0,10.88-8,17.41-18.3,17.41S400.68,250.85,400.68,240Zm25-.19v-.51c0-5.63-2.24-8.77-6.59-8.77s-6.66,3-6.66,8.64v.51c0,5.76,2.24,8.9,6.66,8.9S425.64,245.41,425.64,239.84Z" fill="#fff"/><path d="M441.07,244.71V222.88h11.45v20c0,3.78,1.47,5.63,4.74,5.63,3.45,0,5.69-2,5.69-6.33V222.88h11.46v33.47H463v-5.18c-1.79,3.46-5.05,6-10.62,6C445.87,257.12,441.07,253.15,441.07,244.71Z" fill="#fff"/><path d="M480.23,222.88h11.46v6.66c2.11-5,5.63-7.17,10.81-7.1v10.68c-7-.19-10.81,2-10.81,7.36v15.87H480.23Z" fill="#fff"/><path d="M502.38,250.59a6.38,6.38,0,0,1,6.52-6.46,6.47,6.47,0,1,1,0,12.93A6.38,6.38,0,0,1,502.38,250.59Z" fill="#fff"/></g></g></g></svg>