<svg xmlns="http://www.w3.org/2000/svg" viewBox="0 0 728 90"><title>H3</title><g id="Layer_2" data-name="Layer 2"><g id="Rect"><rect width="728" height="90" fill="none"/></g><g id="H03"><g id="You_could_get_a_Refund_Advance_loan_up_to_3_500._Starting_Jan" data-name="You could get a Refund Advance loan up to $3,500. Starting Jan"><path d="M126.45,27,120.21,16h6l3.24,6.44L132.65,16h5.25L132,27v8.18h-5.51Z" fill="#fff"/><path d="M135.89,28.32v-.21c0-4.5,3.34-7.33,7.68-7.33s7.62,2.75,7.62,7.19v.22c0,4.55-3.34,7.27-7.65,7.27S135.89,32.84,135.89,28.32Zm10.43-.08V28c0-2.36-.93-3.67-2.75-3.67s-2.79,1.26-2.79,3.61v.22c0,2.41.94,3.72,2.79,3.72S146.32,30.57,146.32,28.24Z" fill="#fff"/><path d="M152.77,30.27V21.15h4.79V29.5c0,1.58.61,2.35,2,2.35s2.38-.85,2.38-2.65v-8h4.78v14h-4.78V33a4.61,4.61,0,0,1-4.44,2.48C154.77,35.46,152.77,33.81,152.77,30.27Z" fill="#fff"/><path d="M173.26,28.32v-.21c0-4.66,3.34-7.33,7.46-7.33,3.43,0,6.58,1.5,6.85,5.75h-4.49a2.07,2.07,0,0,0-2.25-2c-1.69,0-2.68,1.2-2.68,3.55v.22c0,2.43.94,3.69,2.76,3.69a2.32,2.32,0,0,0,2.43-2.33h4.31c-.13,3.53-2.52,5.83-7,5.83C176.44,35.46,173.26,33,173.26,28.32Z" fill="#fff"/><path d="M188.45,28.32v-.21c0-4.5,3.35-7.33,7.68-7.33s7.62,2.75,7.62,7.19v.22c0,4.55-3.34,7.27-7.65,7.27S188.45,32.84,188.45,28.32Zm10.43-.08V28c0-2.36-.93-3.67-2.75-3.67s-2.78,1.26-2.78,3.61v.22c0,2.41.93,3.72,2.78,3.72S198.88,30.57,198.88,28.24Z" fill="#fff"/><path d="M205.33,30.27V21.15h4.79V29.5c0,1.58.61,2.35,2,2.35s2.38-.85,2.38-2.65v-8h4.79v14h-4.79V33A4.6,4.6,0,0,1,210,35.46C207.34,35.46,205.33,33.81,205.33,30.27Z" fill="#fff"/><path d="M221.84,15h4.76V35.14h-4.76Z" fill="#fff"/><path d="M228.47,28.29v-.21c0-4.76,2.62-7.3,5.94-7.3a4.52,4.52,0,0,1,4.3,2.35V15h4.79V35.14h-4.79V32.87a4.7,4.7,0,0,1-4.36,2.59C231.12,35.46,228.47,33.14,228.47,28.29Zm10.38-.08V28c0-2.35-1-3.61-2.76-3.61s-2.75,1.2-2.75,3.64v.21c0,2.36,1,3.56,2.7,3.56S238.85,30.6,238.85,28.21Z" fill="#fff"/><path d="M250,35.14h4.76c.21,1,.83,1.82,2.57,1.82a2.65,2.65,0,0,0,3-2.94V31.88A4.91,4.91,0,0,1,256,34.45c-3.26,0-5.93-2.41-5.93-6.72v-.21c0-4.12,2.64-6.74,5.93-6.74a4.55,4.55,0,0,1,4.34,2.35v-2h4.79V34c0,4.17-2.76,6.36-7.76,6.36C252.6,40.33,250.4,38.33,250,35.14Zm10.43-7.43v-.19c0-1.93-1-3.16-2.75-3.16S255,25.62,255,27.55v.21c0,1.93,1,3.16,2.73,3.16S260.46,29.69,260.46,27.71Z" fill="#fff"/><path d="M266.8,28.32v-.21c0-4.5,3.35-7.33,7.57-7.33,3.83,0,7.12,2.19,7.12,7.22v1.26h-9.85a2.8,2.8,0,0,0,2.92,2.91c1.58,0,2.25-.72,2.43-1.65h4.5c-.43,3.15-2.87,4.94-7.09,4.94C270,35.46,266.8,32.9,266.8,28.32Zm10-1.76c-.08-1.69-.91-2.63-2.46-2.63s-2.43.94-2.67,2.63Z" fill="#fff"/><path d="M283.79,30.65V24.42H282.1V21.15h1.69V18.24h4.79v2.91h2.75v3.27h-2.75v5.77c0,1,.5,1.48,1.41,1.48a3.68,3.68,0,0,0,1.37-.25v3.64a10.15,10.15,0,0,1-2.65.4C285.55,35.46,283.79,33.94,283.79,30.65Z" fill="#fff"/><path d="M297.22,31.26c0-3.29,2.78-4.57,7.43-4.57H306v-.32c0-1.34-.32-2.22-1.85-2.22a1.72,1.72,0,0,0-1.9,1.66h-4.49c.21-3.37,2.86-5,6.69-5s6.31,1.58,6.31,5.29v9.07H306.1V33.51a4.59,4.59,0,0,1-4.15,2C299.44,35.46,297.22,34.23,297.22,31.26Zm8.77-1v-.86h-1.26c-1.92,0-2.78.38-2.78,1.53,0,.8.54,1.31,1.66,1.31A2.11,2.11,0,0,0,306,30.25Z" fill="#fff"/><path d="M318.37,16h7.49c5,0,7.79,2,7.79,6.07v.11a5,5,0,0,1-3.45,5l4.57,7.91H329l-3.88-6.85h-1.28v6.85h-5.46Zm7.23,8.72c1.84,0,2.75-.78,2.75-2.33V22.3c0-1.55-1-2.16-2.73-2.16h-1.79v4.6Z" fill="#fff"/><path d="M334.77,28.32v-.21c0-4.5,3.35-7.33,7.57-7.33,3.83,0,7.12,2.19,7.12,7.22v1.26h-9.85a2.8,2.8,0,0,0,2.92,2.91c1.58,0,2.25-.72,2.43-1.65h4.5c-.43,3.15-2.87,4.94-7.09,4.94C338,35.46,334.77,32.9,334.77,28.32Zm10-1.76c-.08-1.69-.91-2.63-2.46-2.63s-2.43.94-2.67,2.63Z" fill="#fff"/><path d="M351.84,24.42h-1.77V21.15h1.77V19.92c0-3.47,2.16-5.13,5.48-5.13a8.69,8.69,0,0,1,2.2.29v3.5a4.72,4.72,0,0,0-1.32-.18,1.4,1.4,0,0,0-1.6,1.52v1.23h2.84v3.27H356.6V35.14h-4.76Z" fill="#fff"/><path d="M360.93,30.27V21.15h4.79V29.5c0,1.58.62,2.35,2,2.35s2.38-.85,2.38-2.65v-8h4.79v14h-4.79V33a4.6,4.6,0,0,1-4.44,2.48C362.94,35.46,360.93,33.81,360.93,30.27Z" fill="#fff"/><path d="M377.3,21.15h4.79V23.4a5,5,0,0,1,4.6-2.62c2.7,0,4.58,1.68,4.58,5.27v9.09h-4.79V27c0-1.58-.62-2.35-2-2.35s-2.38.85-2.38,2.65v7.83H377.3Z" fill="#fff"/><path d="M392.9,28.29v-.21c0-4.76,2.62-7.3,5.94-7.3a4.52,4.52,0,0,1,4.3,2.35V15h4.79V35.14h-4.79V32.87a4.7,4.7,0,0,1-4.36,2.59C395.55,35.46,392.9,33.14,392.9,28.29Zm10.38-.08V28c0-2.35-1-3.61-2.76-3.61s-2.75,1.2-2.75,3.64v.21c0,2.36,1,3.56,2.7,3.56S403.28,30.6,403.28,28.21Z" fill="#fff"/><path d="M420.29,16h7.09l6.07,19.12h-5.8l-1-3.56h-6.34l-1,3.56h-5.11Zm1.07,11.79h4.2l-2.09-7.35Z" fill="#fff"/><path d="M433.77,28.29v-.21c0-4.76,2.62-7.3,5.94-7.3A4.55,4.55,0,0,1,444,23.13V15h4.79V35.14H444V32.87a4.73,4.73,0,0,1-4.36,2.59C436.42,35.46,433.77,33.14,433.77,28.29Zm10.38-.08V28c0-2.35-1-3.61-2.75-3.61s-2.76,1.2-2.76,3.64v.21c0,2.36,1,3.56,2.7,3.56S444.15,30.6,444.15,28.21Z" fill="#fff"/><path d="M450,21.15h5.11l2.91,9,2.86-9h4.58l-5.11,14h-5.22Z" fill="#fff"/><path d="M465.31,31.26c0-3.29,2.78-4.57,7.44-4.57h1.33v-.32c0-1.34-.32-2.22-1.84-2.22a1.72,1.72,0,0,0-1.9,1.66h-4.49c.21-3.37,2.86-5,6.68-5s6.32,1.58,6.32,5.29v9.07h-4.66V33.51a4.59,4.59,0,0,1-4.15,2C467.53,35.46,465.31,34.23,465.31,31.26Zm8.77-1v-.86h-1.25c-1.93,0-2.79.38-2.79,1.53,0,.8.54,1.31,1.66,1.31A2.11,2.11,0,0,0,474.08,30.25Z" fill="#fff"/><path d="M481.17,21.15H486V23.4a4.94,4.94,0,0,1,4.6-2.62c2.7,0,4.58,1.68,4.58,5.27v9.09h-4.79V27c0-1.58-.62-2.35-2-2.35s-2.38.85-2.38,2.65v7.83h-4.79Z" fill="#fff"/><path d="M496.71,28.32v-.21c0-4.66,3.35-7.33,7.47-7.33,3.42,0,6.58,1.5,6.85,5.75h-4.5a2.06,2.06,0,0,0-2.25-2c-1.68,0-2.67,1.2-2.67,3.55v.22c0,2.43.94,3.69,2.76,3.69a2.33,2.33,0,0,0,2.43-2.33h4.31c-.14,3.53-2.52,5.83-7,5.83C499.9,35.46,496.71,33,496.71,28.32Z" fill="#fff"/><path d="M511.91,28.32v-.21c0-4.5,3.34-7.33,7.57-7.33,3.82,0,7.11,2.19,7.11,7.22v1.26h-9.84a2.79,2.79,0,0,0,2.92,2.91c1.57,0,2.24-.72,2.43-1.65h4.49c-.42,3.15-2.86,4.94-7.09,4.94S511.91,32.9,511.91,28.32Zm10-1.76c-.08-1.69-.91-2.63-2.46-2.63a2.67,2.67,0,0,0-2.68,2.63Z" fill="#fff"/><path d="M121.55,43.75h4.76V63.89h-4.76Z" fill="#fff"/><path d="M128.13,57.07v-.21c0-4.5,3.35-7.33,7.68-7.33s7.62,2.75,7.62,7.19v.22c0,4.55-3.34,7.27-7.65,7.27S128.13,61.59,128.13,57.07ZM138.56,57v-.21c0-2.36-.93-3.67-2.75-3.67S133,54.37,133,56.72v.22c0,2.41.93,3.72,2.78,3.72S138.56,59.32,138.56,57Z" fill="#fff"/><path d="M144.32,60c0-3.29,2.78-4.57,7.43-4.57h1.34v-.32c0-1.34-.32-2.22-1.85-2.22a1.72,1.72,0,0,0-1.9,1.66h-4.49c.21-3.37,2.86-5,6.69-5s6.31,1.58,6.31,5.29v9.07H153.2V62.26a4.59,4.59,0,0,1-4.15,1.95C146.54,64.21,144.32,63,144.32,60Zm8.77-1v-.86h-1.26c-1.92,0-2.78.38-2.78,1.53,0,.8.53,1.31,1.66,1.31A2.11,2.11,0,0,0,153.09,59Z" fill="#fff"/><path d="M160.18,49.9H165v2.25a4.93,4.93,0,0,1,4.6-2.62c2.7,0,4.57,1.68,4.57,5.27v9.09h-4.79V55.76c0-1.58-.61-2.35-2-2.35s-2.38.85-2.38,2.64v7.84h-4.79Z" fill="#fff"/><path d="M181.23,59V49.9H186v8.35c0,1.58.61,2.35,2,2.35s2.38-.85,2.38-2.65V49.9h4.79v14h-4.79V61.73a4.61,4.61,0,0,1-4.44,2.48C183.24,64.21,181.23,62.55,181.23,59Z" fill="#fff"/><path d="M197.6,49.9h4.79V52a4.92,4.92,0,0,1,4.36-2.46c3.26,0,5.91,2.46,5.91,7.25V57c0,4.82-2.65,7.22-5.94,7.22a4.61,4.61,0,0,1-4.33-2.38v6.74H197.6ZM207.79,57v-.21c0-2.46-1.07-3.64-2.75-3.64s-2.79,1.26-2.79,3.61V57c0,2.39,1.05,3.59,2.79,3.59S207.79,59.29,207.79,57Z" fill="#fff"/><path d="M219.91,59.4V53.17h-1.69V49.9h1.69V47h4.79V49.9h2.75v3.27H224.7v5.77c0,1,.51,1.48,1.41,1.48a3.68,3.68,0,0,0,1.37-.25v3.64a10.15,10.15,0,0,1-2.65.4C221.67,64.21,219.91,62.69,219.91,59.4Z" fill="#fff"/><path d="M228.52,57.07v-.21c0-4.5,3.35-7.33,7.68-7.33s7.62,2.75,7.62,7.19v.22c0,4.55-3.34,7.27-7.65,7.27S228.52,61.59,228.52,57.07ZM239,57v-.21c0-2.36-.93-3.67-2.75-3.67s-2.78,1.26-2.78,3.61v.22c0,2.41.93,3.72,2.78,3.72S239,59.32,239,57Z" fill="#fff"/><path d="M253.45,55.14c-2.7-.19-4-1.62-4.12-3.68h2.89a1.48,1.48,0,0,0,1.23,1.47V50.65c-2.71-.39-3.87-1.37-3.87-3.54,0-1.89,1.48-3.24,3.87-3.42V42.31h1.22v1.4c2.26.19,3.6,1.23,3.79,3.37h-2.83a1.23,1.23,0,0,0-1-1.17v2.15c2.38.34,3.94,1.15,3.94,3.42,0,1.9-1.23,3.49-3.94,3.66v2h-1.22Zm0-7.27v-2c-.7.12-1.06.5-1.06,1S252.61,47.7,253.45,47.87Zm1.22,3v2.08a1.13,1.13,0,0,0,1-1.11C255.71,51.3,255.49,51,254.67,50.85Z" fill="#fff"/><path d="M259.56,57.61h4.87a2.56,2.56,0,0,0,2.81,2.64c1.69,0,2.52-.8,2.52-2.16s-.81-2.25-2.52-2.25h-1.52v-3.4h1.41c1.72,0,2.54-.77,2.54-2.11,0-1.15-.74-1.9-2.19-1.9a2.44,2.44,0,0,0-2.54,2.44H260.1c.24-3.78,2.75-6.37,7.52-6.37,4.49,0,7.19,2.06,7.19,5.24a4.08,4.08,0,0,1-3.24,4.12,4.31,4.31,0,0,1,3.72,4.34c0,3.63-2.7,6-7.75,6C262.21,64.21,259.72,61.75,259.56,57.61Z" fill="#fff"/><path d="M275.75,66.06,278,59l4.45,1.58-3.86,6.56Z" fill="#fff"/><path d="M283.32,57.87h5a2.19,2.19,0,0,0,2.49,2.22c1.58,0,2.3-1.17,2.3-2.7a2.43,2.43,0,0,0-2.59-2.73A3.92,3.92,0,0,0,287.33,56h-3.26l.4-11.26h12.89v4h-8.93L288.32,53a5.09,5.09,0,0,1,4.47-2c3.5,0,5.8,2.36,5.8,6.5s-2.91,6.74-7.76,6.74C285.75,64.21,283.45,61.46,283.32,57.87Z" fill="#fff"/><path d="M299.93,54.74v-.8c0-6,3.77-9.44,8.83-9.44s8.82,3.13,8.82,9.33v.75c0,6.08-3.47,9.63-8.93,9.63S299.93,60.76,299.93,54.74Zm12.17-.05v-.77c0-3.51-1-5.27-3.34-5.27s-3.35,1.73-3.35,5.27v.8c0,3.56,1,5.24,3.4,5.24S312.1,58.22,312.1,54.69Z" fill="#fff"/><path d="M319.11,54.74v-.8c0-6,3.77-9.44,8.83-9.44s8.82,3.13,8.82,9.33v.75c0,6.08-3.47,9.63-8.93,9.63S319.11,60.76,319.11,54.74Zm12.17-.05v-.77c0-3.51-1-5.27-3.34-5.27s-3.35,1.73-3.35,5.27v.8c0,3.56,1.05,5.24,3.4,5.24S331.28,58.22,331.28,54.69Z" fill="#fff"/><path d="M337.22,61.49A2.67,2.67,0,0,1,340,58.78a2.71,2.71,0,1,1,0,5.41A2.67,2.67,0,0,1,337.22,61.49Z" fill="#fff"/><path d="M349.07,57.82h5.22c.13,1.36.74,2.49,3,2.49,1.58,0,2.46-.78,2.46-1.9s-.72-1.5-3-1.85c-5.41-.64-7.23-2.24-7.23-6.1,0-3.45,2.84-6,7.41-6s7.2,1.93,7.55,6h-5.09a2.16,2.16,0,0,0-2.46-2.05c-1.47,0-2.22.66-2.22,1.63s.59,1.55,3,1.87c4.84.53,7.33,1.79,7.33,5.94,0,3.5-2.78,6.36-7.7,6.36C352,64.21,349.23,62,349.07,57.82Z" fill="#fff"/><path d="M367.42,59.4V53.17h-1.69V49.9h1.69V47h4.79V49.9H375v3.27h-2.75v5.77c0,1,.51,1.48,1.41,1.48a3.68,3.68,0,0,0,1.37-.25v3.64a10.15,10.15,0,0,1-2.65.4C369.19,64.21,367.42,62.69,367.42,59.4Z" fill="#fff"/><path d="M376,60c0-3.29,2.79-4.57,7.44-4.57h1.34v-.32c0-1.34-.32-2.22-1.85-2.22a1.72,1.72,0,0,0-1.9,1.66h-4.49c.21-3.37,2.86-5,6.68-5s6.32,1.58,6.32,5.29v9.07h-4.66V62.26a4.57,4.57,0,0,1-4.14,1.95C378.25,64.21,376,63,376,60Zm8.78-1v-.86h-1.26c-1.93,0-2.78.38-2.78,1.53,0,.8.53,1.31,1.66,1.31A2.11,2.11,0,0,0,384.81,59Z" fill="#fff"/><path d="M391.9,49.9h4.78v2.78a4.41,4.41,0,0,1,4.52-3v4.46c-2.91-.08-4.52.83-4.52,3.08v6.63H391.9Z" fill="#fff"/><path d="M403.8,59.4V53.17h-1.69V49.9h1.69V47h4.79V49.9h2.75v3.27h-2.75v5.77c0,1,.51,1.48,1.41,1.48a3.68,3.68,0,0,0,1.37-.25v3.64a10.15,10.15,0,0,1-2.65.4C405.56,64.21,403.8,62.69,403.8,59.4Z" fill="#fff"/><path d="M413.05,46.1a2.64,2.64,0,1,1,2.63,2.47A2.5,2.5,0,0,1,413.05,46.1Zm.24,3.8h4.79v14h-4.79Z" fill="#fff"/><path d="M420.65,49.9h4.79v2.25a4.94,4.94,0,0,1,4.6-2.62c2.7,0,4.57,1.68,4.57,5.27v9.09h-4.78V55.76c0-1.58-.62-2.35-2-2.35s-2.38.85-2.38,2.64v7.84h-4.79Z" fill="#fff"/><path d="M436.17,63.89h4.76c.21,1,.83,1.82,2.57,1.82a2.64,2.64,0,0,0,3-2.94V60.63a4.89,4.89,0,0,1-4.33,2.57c-3.26,0-5.94-2.41-5.94-6.72v-.21c0-4.12,2.65-6.74,5.94-6.74a4.54,4.54,0,0,1,4.33,2.35v-2h4.79V62.72c0,4.17-2.75,6.36-7.75,6.36C438.73,69.08,436.54,67.08,436.17,63.89Zm10.43-7.43v-.19c0-1.93-1-3.16-2.76-3.16s-2.75,1.26-2.75,3.19v.21c0,1.93,1,3.16,2.73,3.16S446.6,58.44,446.6,56.46Z" fill="#fff"/><path d="M458,63.49V59.4a6.57,6.57,0,0,0,2.33.37c1.5,0,2.48-.67,2.48-2.65V44.77h5.52V57.18c0,4.6-2.36,6.95-6.85,6.95A7.32,7.32,0,0,1,458,63.49Z" fill="#fff"/><path d="M469.87,60c0-3.29,2.78-4.57,7.44-4.57h1.33v-.32c0-1.34-.32-2.22-1.84-2.22a1.72,1.72,0,0,0-1.9,1.66h-4.49c.21-3.37,2.86-5,6.68-5s6.32,1.58,6.32,5.29v9.07h-4.66V62.26a4.58,4.58,0,0,1-4.14,1.95C472.09,64.21,469.87,63,469.87,60Zm8.77-1v-.86h-1.25c-1.93,0-2.78.38-2.78,1.53,0,.8.53,1.31,1.65,1.31A2.11,2.11,0,0,0,478.64,59Z" fill="#fff"/><path d="M485.73,49.9h4.79v2.25a4.94,4.94,0,0,1,4.6-2.62c2.7,0,4.58,1.68,4.58,5.27v9.09h-4.79V55.76c0-1.58-.62-2.35-2-2.35s-2.38.85-2.38,2.64v7.84h-4.79Z" fill="#fff"/><path d="M515.26,60.23H506V58.17l8-13.4h6.6V56.46H523v3.77h-2.46v3.66h-5.27Zm.14-3.77V48.89l-4.28,7.57Z" fill="#fff"/><path d="M525.27,59.4V53.17h-1.69V49.9h1.69V47h4.79V49.9h2.75v3.27h-2.75v5.77c0,1,.51,1.48,1.41,1.48a3.68,3.68,0,0,0,1.37-.25v3.64a10.15,10.15,0,0,1-2.65.4C527,64.21,525.27,62.69,525.27,59.4Z" fill="#fff"/><path d="M534.63,43.75h4.79v8.4a4.94,4.94,0,0,1,4.6-2.62c2.7,0,4.57,1.68,4.57,5.27v9.09h-4.78V55.76c0-1.58-.62-2.35-2-2.35s-2.38.85-2.38,2.64v7.84h-4.79Z" fill="#fff"/><path d="M550.73,61.49a2.67,2.67,0,0,1,2.73-2.71,2.71,2.71,0,1,1,0,5.41A2.67,2.67,0,0,1,550.73,61.49Z" fill="#fff"/></g></g></g></svg>