<svg xmlns="http://www.w3.org/2000/svg" viewBox="0 0 300 600"><title>Asset 18</title><g id="Layer_2" data-name="Layer 2"><g id="Rect"><rect width="300" height="600" fill="none"/></g><g id="Deduction_dedication._Find_the_perferct_tax_pro_for_you." data-name="Deduction dedication. Find the perferct tax pro for you."><path d="M22.33,100.1H34.87c12.26,0,18.48,6.13,18.48,16.84v.39c0,10.76-6.37,17.27-18.52,17.27H22.33ZM34.54,127c5.88,0,8.49-3.09,8.49-9.51v-.38c0-6.57-2.61-9.36-8.59-9.36H32.27V127Z" fill="#fff"/><path d="M55.33,122.3v-.39c0-8.11,6-13.22,13.66-13.22,6.9,0,12.83,4,12.83,13V124H64.06c.25,3.33,2.18,5.26,5.26,5.26,2.85,0,4.06-1.3,4.39-3h8.11c-.77,5.7-5.16,8.93-12.79,8.93C61.12,135.18,55.33,130.55,55.33,122.3Zm18.1-3.19c-.15-3-1.65-4.73-4.44-4.73-2.61,0-4.39,1.69-4.83,4.73Z" fill="#fff"/><path d="M83.56,122.25v-.39c0-8.59,4.73-13.17,10.71-13.17,4,0,6.32,1.69,7.77,4.25V98.27h8.63V134.6H102v-4.1a8.53,8.53,0,0,1-7.87,4.68C88.33,135.18,83.56,131,83.56,122.25Zm18.72-.15v-.38c0-4.25-1.79-6.52-5-6.52s-5,2.17-5,6.57v.38c0,4.25,1.88,6.42,4.87,6.42C100.35,128.57,102.28,126.4,102.28,122.1Z" fill="#fff"/><path d="M114.87,125.82V109.37h8.64v15c0,2.85,1.11,4.25,3.57,4.25s4.29-1.55,4.29-4.78V109.37H140V134.6h-8.64v-3.91c-1.35,2.61-3.81,4.49-8,4.49C118.49,135.18,114.87,132.19,114.87,125.82Z" fill="#fff"/><path d="M143.05,122.3v-.39c0-8.4,6-13.22,13.46-13.22,6.18,0,11.87,2.7,12.35,10.37h-8.1c-.39-2.36-1.55-3.66-4.06-3.66-3,0-4.82,2.17-4.82,6.41v.39c0,4.39,1.69,6.66,5,6.66,2.41,0,4.1-1.45,4.39-4.2H169c-.24,6.37-4.54,10.52-12.69,10.52C148.79,135.18,143.05,130.79,143.05,122.3Z" fill="#fff"/><path d="M173,126.49V115.25h-3v-5.88h3v-5.26h8.64v5.26h5v5.88h-5v10.42c0,1.84.92,2.66,2.56,2.66a6.58,6.58,0,0,0,2.46-.44v6.56a18.07,18.07,0,0,1-4.78.73C176.15,135.18,173,132.43,173,126.49Z" fill="#fff"/><path d="M189.66,102.51a4.76,4.76,0,1,1,4.73,4.44A4.5,4.5,0,0,1,189.66,102.51Zm.43,6.86h8.64V134.6h-8.64Z" fill="#fff"/><path d="M202,122.3v-.39c0-8.11,6-13.22,13.85-13.22s13.75,5,13.75,13v.38c0,8.21-6,13.13-13.8,13.13S202,130.45,202,122.3Zm18.82-.15v-.38c0-4.25-1.69-6.61-5-6.61s-5,2.26-5,6.51v.38c0,4.35,1.69,6.71,5,6.71S220.83,126.35,220.83,122.15Z" fill="#fff"/><path d="M232.65,109.37h8.64v4a8.89,8.89,0,0,1,8.29-4.73c4.88,0,8.25,3,8.25,9.5V134.6H249.2V119.93c0-2.84-1.11-4.24-3.62-4.24s-4.29,1.54-4.29,4.77V134.6h-8.64Z" fill="#fff"/><path d="M20.3,172.5v-.39c0-8.59,4.73-13.17,10.71-13.17,4,0,6.32,1.69,7.77,4.25V148.52h8.64v36.33H38.78v-4.1a8.5,8.5,0,0,1-7.86,4.68C25.08,185.43,20.3,181.23,20.3,172.5ZM39,172.35V172c0-4.25-1.78-6.52-5-6.52s-5,2.17-5,6.57v.38c0,4.25,1.89,6.42,4.88,6.42S39,176.65,39,172.35Z" fill="#fff"/><path d="M50.46,172.55v-.39c0-8.11,6-13.22,13.65-13.22,6.9,0,12.84,4,12.84,13v2.26H59.19c.24,3.33,2.17,5.26,5.26,5.26,2.85,0,4-1.3,4.39-3H77c-.77,5.7-5.17,8.93-12.79,8.93C56.25,185.43,50.46,180.8,50.46,172.55Zm18.09-3.19c-.14-3-1.64-4.73-4.44-4.73-2.6,0-4.39,1.69-4.82,4.73Z" fill="#fff"/><path d="M78.68,172.5v-.39c0-8.59,4.73-13.17,10.72-13.17,3.95,0,6.32,1.69,7.76,4.25V148.52h8.64v36.33H97.16v-4.1a8.5,8.5,0,0,1-7.86,4.68C83.46,185.43,78.68,181.23,78.68,172.5Zm18.73-.15V172c0-4.25-1.79-6.52-5-6.52s-5,2.17-5,6.57v.38c0,4.25,1.88,6.42,4.87,6.42S97.41,176.65,97.41,172.35Z" fill="#fff"/><path d="M110,152.76a4.76,4.76,0,1,1,4.73,4.44A4.51,4.51,0,0,1,110,152.76Zm.43,6.86h8.64v25.23h-8.64Z" fill="#fff"/><path d="M122.35,172.55v-.39c0-8.4,6-13.22,13.46-13.22,6.18,0,11.87,2.7,12.35,10.37h-8.1c-.39-2.36-1.55-3.66-4.06-3.66-3,0-4.82,2.17-4.82,6.41v.39c0,4.39,1.69,6.66,5,6.66,2.41,0,4.1-1.45,4.39-4.2h7.77c-.24,6.37-4.54,10.52-12.69,10.52C128.09,185.43,122.35,181,122.35,172.55Z" fill="#fff"/><path d="M149.8,177.85c0-5.93,5-8.25,13.42-8.25h2.41V169c0-2.41-.58-4-3.33-4a3.1,3.1,0,0,0-3.42,3h-8.11c.39-6.08,5.16-9.07,12.06-9.07s11.39,2.85,11.39,9.55v16.36h-8.4v-2.94c-1.2,1.83-3.42,3.52-7.48,3.52C153.81,185.43,149.8,183.21,149.8,177.85ZM165.63,176v-1.54h-2.27c-3.47,0-5,.67-5,2.75,0,1.44,1,2.36,3,2.36C163.8,179.59,165.63,178.19,165.63,176Z" fill="#fff"/><path d="M179.43,176.74V165.5h-3v-5.88h3v-5.26h8.64v5.26h5v5.88h-5v10.42c0,1.84.91,2.66,2.55,2.66a6.54,6.54,0,0,0,2.46-.44v6.56a18.05,18.05,0,0,1-4.77.73C182.61,185.43,179.43,182.68,179.43,176.74Z" fill="#fff"/><path d="M196.12,152.76a4.77,4.77,0,1,1,4.73,4.44A4.51,4.51,0,0,1,196.12,152.76Zm.44,6.86h8.63v25.23h-8.63Z" fill="#fff"/><path d="M208.48,172.55v-.39c0-8.11,6-13.22,13.84-13.22s13.75,5,13.75,13v.38c0,8.21-6,13.13-13.8,13.13S208.48,180.7,208.48,172.55Zm18.81-.15V172c0-4.25-1.69-6.61-5-6.61s-5,2.26-5,6.51v.38c0,4.35,1.69,6.71,5,6.71S227.29,176.6,227.29,172.4Z" fill="#fff"/><path d="M239.11,159.62h8.64v4a8.9,8.9,0,0,1,8.3-4.73c4.87,0,8.25,3,8.25,9.5v16.41h-8.64V170.18c0-2.84-1.11-4.24-3.62-4.24s-4.29,1.54-4.29,4.77v14.14h-8.64Z" fill="#fff"/><path d="M268.16,180.51a4.81,4.81,0,0,1,4.92-4.88,4.88,4.88,0,1,1,0,9.75A4.81,4.81,0,0,1,268.16,180.51Z" fill="#fff"/><path d="M22.33,200.6h23.3v7.67H32.27v7.34H42.93v7.28H32.27V235.1H22.33Z" fill="#fff"/><path d="M48.09,203a4.77,4.77,0,1,1,4.73,4.44A4.51,4.51,0,0,1,48.09,203Zm.44,6.86h8.64V235.1H48.53Z" fill="#fff"/><path d="M61.8,209.87h8.63v4a8.92,8.92,0,0,1,8.3-4.73c4.88,0,8.25,3,8.25,9.5V235.1H78.35V220.43c0-2.84-1.11-4.24-3.62-4.24s-4.3,1.54-4.3,4.77V235.1H61.8Z" fill="#fff"/><path d="M89.93,222.75v-.39c0-8.59,4.73-13.17,10.71-13.17,4,0,6.32,1.69,7.77,4.25V198.77H117V235.1h-8.63V231a8.53,8.53,0,0,1-7.87,4.68C94.7,235.68,89.93,231.48,89.93,222.75Zm18.72-.15v-.38c0-4.25-1.79-6.52-5-6.52s-5,2.17-5,6.57v.38c0,4.25,1.88,6.42,4.87,6.42C106.72,229.07,108.65,226.9,108.65,222.6Z" fill="#fff"/><path d="M131.37,227V215.75h-3v-5.88h3v-5.26H140v5.26h5v5.88h-5v10.42c0,1.84.92,2.66,2.56,2.66a6.58,6.58,0,0,0,2.46-.44V235a18.07,18.07,0,0,1-4.78.73C134.56,235.68,131.37,232.93,131.37,227Z" fill="#fff"/><path d="M148.26,198.77h8.64v15.15a8.9,8.9,0,0,1,8.3-4.73c4.87,0,8.25,3,8.25,9.5V235.1h-8.64V220.43c0-2.84-1.11-4.24-3.62-4.24s-4.29,1.54-4.29,4.77V235.1h-8.64Z" fill="#fff"/><path d="M176.29,222.8v-.39c0-8.11,6-13.22,13.66-13.22,6.9,0,12.83,4,12.83,13v2.26H185c.24,3.33,2.17,5.26,5.26,5.26,2.84,0,4.05-1.3,4.39-3h8.1c-.77,5.7-5.16,8.93-12.78,8.93C182.08,235.68,176.29,231.05,176.29,222.8Zm18.1-3.19c-.15-3-1.64-4.73-4.44-4.73-2.61,0-4.39,1.69-4.83,4.73Z" fill="#fff"/><path d="M21.56,260.12h8.63v3.76a8.93,8.93,0,0,1,7.87-4.44c5.88,0,10.66,4.44,10.66,13.08v.38c0,8.69-4.78,13-10.71,13-3.81,0-6.56-1.79-7.82-4.3v12.16H21.56ZM39.94,272.9v-.38c0-4.44-1.93-6.57-5-6.57s-5,2.27-5,6.52v.38c0,4.3,1.88,6.47,5,6.47S39.94,277.05,39.94,272.9Z" fill="#fff"/><path d="M50.51,273.05v-.39c0-8.11,6-13.22,13.65-13.22,6.9,0,12.84,4,12.84,13v2.26H59.24c.24,3.33,2.17,5.26,5.26,5.26,2.85,0,4-1.3,4.39-3H77c-.78,5.7-5.17,8.93-12.79,8.93C56.3,285.93,50.51,281.3,50.51,273.05Zm18.09-3.19c-.14-3-1.64-4.73-4.44-4.73-2.6,0-4.39,1.69-4.82,4.73Z" fill="#fff"/><path d="M80,260.12h8.63v5c1.6-3.76,4.25-5.4,8.16-5.35v8.06c-5.26-.15-8.16,1.49-8.16,5.54v12H80Z" fill="#fff"/><path d="M101.7,266H98.51v-5.88h3.19V257.9c0-6.28,3.91-9.27,9.89-9.27a15.43,15.43,0,0,1,4,.53v6.32a8.09,8.09,0,0,0-2.37-.33c-2,0-2.89,1.11-2.89,2.75v2.22h5.11V266h-5.11v19.35H101.7Z" fill="#fff"/><path d="M116.08,273.05v-.39c0-8.11,6-13.22,13.65-13.22,6.9,0,12.84,4,12.84,13v2.26H124.81c.24,3.33,2.17,5.26,5.26,5.26,2.85,0,4.05-1.3,4.39-3h8.11c-.78,5.7-5.17,8.93-12.79,8.93C121.87,285.93,116.08,281.3,116.08,273.05Zm18.09-3.19c-.14-3-1.64-4.73-4.44-4.73-2.6,0-4.39,1.69-4.82,4.73Z" fill="#fff"/><path d="M145.56,260.12h8.63v5c1.6-3.76,4.25-5.4,8.16-5.35v8.06c-5.26-.15-8.16,1.49-8.16,5.54v12h-8.63Z" fill="#fff"/><path d="M163.89,273.05v-.39c0-8.4,6-13.22,13.46-13.22,6.18,0,11.87,2.7,12.36,10.37H181.6c-.39-2.36-1.54-3.66-4-3.66-3,0-4.83,2.17-4.83,6.41V273c0,4.39,1.69,6.66,5,6.66,2.41,0,4.1-1.45,4.39-4.2h7.77c-.24,6.37-4.53,10.52-12.69,10.52C169.63,285.93,163.89,281.54,163.89,273.05Z" fill="#fff"/><path d="M193.81,277.24V266h-3v-5.88h3v-5.26h8.63v5.26h5V266h-5v10.42c0,1.84.92,2.66,2.56,2.66a6.54,6.54,0,0,0,2.46-.44v6.56a18.05,18.05,0,0,1-4.77.73C197,285.93,193.81,283.18,193.81,277.24Z" fill="#fff"/><path d="M22.72,327.49V316.25h-3v-5.88h3v-5.26h8.63v5.26h5v5.88h-5v10.42c0,1.84.92,2.66,2.56,2.66a6.58,6.58,0,0,0,2.46-.44v6.57a18.56,18.56,0,0,1-4.78.72C25.9,336.18,22.72,333.43,22.72,327.49Z" fill="#fff"/><path d="M38.25,328.6c0-5.93,5-8.25,13.41-8.25h2.42v-.58c0-2.41-.58-4-3.33-4a3.1,3.1,0,0,0-3.43,3h-8.1c.38-6.08,5.16-9.07,12.06-9.07s11.39,2.85,11.39,9.55V335.6h-8.4v-2.94c-1.21,1.83-3.43,3.52-7.48,3.52C42.26,336.18,38.25,334,38.25,328.6Zm15.83-1.83v-1.54H51.81c-3.48,0-5,.67-5,2.75,0,1.44,1,2.36,3,2.36C52.24,330.34,54.08,328.94,54.08,326.77Z" fill="#fff"/><path d="M73.23,322.77l-7.86-12.4h9.94l3.9,6.65L83,310.37H91.9l-8,11.72,8.74,13.51H82.74l-4.49-7.53-4.58,7.53H64.84Z" fill="#fff"/><path d="M103.87,310.37h8.64v3.76a8.9,8.9,0,0,1,7.86-4.44c5.89,0,10.66,4.44,10.66,13.08v.38c0,8.69-4.77,13-10.71,13-3.81,0-6.56-1.79-7.81-4.3V344h-8.64Zm18.38,12.78v-.38c0-4.44-1.93-6.57-5-6.57s-5,2.27-5,6.52v.38c0,4.3,1.88,6.47,5,6.47S122.25,327.3,122.25,323.15Z" fill="#fff"/><path d="M134.17,310.37h8.64v5c1.59-3.76,4.24-5.4,8.15-5.35v8.05c-5.26-.14-8.15,1.5-8.15,5.55v12h-8.64Z" fill="#fff"/><path d="M152.51,323.3v-.39c0-8.11,6-13.22,13.84-13.22s13.75,5,13.75,13v.38c0,8.21-6,13.13-13.8,13.13S152.51,331.45,152.51,323.3Zm18.81-.15v-.38c0-4.25-1.69-6.61-5-6.61s-5,2.26-5,6.51v.38c0,4.35,1.69,6.71,5,6.71S171.32,327.35,171.32,323.15Z" fill="#fff"/><path d="M22.86,366.5H19.68v-5.88h3.18V358.4c0-6.28,3.91-9.27,9.89-9.27a15.43,15.43,0,0,1,4,.53V356a8.09,8.09,0,0,0-2.37-.33c-2,0-2.89,1.11-2.89,2.75v2.22h5.11v5.88H31.45v19.35H22.86Z" fill="#fff"/><path d="M37.24,373.55v-.39c0-8.11,6-13.22,13.85-13.22s13.75,5,13.75,13v.38c0,8.21-6,13.13-13.8,13.13S37.24,381.7,37.24,373.55Zm18.82-.15V373c0-4.25-1.69-6.61-5-6.61s-5,2.26-5,6.51v.38c0,4.35,1.69,6.71,5,6.71S56.06,377.6,56.06,373.4Z" fill="#fff"/><path d="M67.88,360.62h8.63v5c1.6-3.76,4.25-5.4,8.16-5.35v8.05c-5.26-.14-8.16,1.5-8.16,5.55v12H67.88Z" fill="#fff"/><path d="M104.5,383.29,94.41,360.62h9.36L109,374.08l4.83-13.46h8.25l-13.51,33.67H100.3Z" fill="#fff"/><path d="M121.58,373.55v-.39c0-8.11,6-13.22,13.84-13.22s13.76,5,13.76,13v.38c0,8.21-6,13.13-13.8,13.13S121.58,381.7,121.58,373.55Zm18.81-.15V373c0-4.25-1.68-6.61-5-6.61s-5,2.26-5,6.51v.38c0,4.35,1.69,6.71,5,6.71S140.39,377.6,140.39,373.4Z" fill="#fff"/><path d="M152,377.07V360.62h8.64v15.05c0,2.85,1.11,4.25,3.57,4.25s4.29-1.55,4.29-4.78V360.62h8.64v25.23h-8.64v-3.91c-1.35,2.61-3.81,4.49-8,4.49C155.64,386.43,152,383.44,152,377.07Z" fill="#fff"/><path d="M181.21,381.51a4.81,4.81,0,0,1,4.92-4.88,4.88,4.88,0,1,1,0,9.75A4.81,4.81,0,0,1,181.21,381.51Z" fill="#fff"/></g></g></svg>