<svg xmlns="http://www.w3.org/2000/svg" viewBox="0 0 728 90"><title>H29</title><g id="Layer_2" data-name="Layer 2"><g id="Rect"><rect width="728" height="90" fill="none"/></g><g id="H29"><g id="_PC_Mag" data-name="– PC Mag"><path d="M498,72.17h6.17v1.18H498Z" fill="#fff"/><path d="M508.88,66.69h3.22c2.24,0,3.71,1,3.71,3.1v.06c0,2.11-1.53,3.05-3.67,3.05h-1.4v3.81h-1.86Zm3.22,4.87c1.23,0,1.89-.61,1.89-1.71v-.06c0-1.19-.7-1.65-1.89-1.65h-1.36v3.42Z" fill="#fff"/><path d="M516.73,71.77v-.12a4.81,4.81,0,0,1,4.86-5.11c2.3,0,4.08,1.15,4.3,3.5H524a2.14,2.14,0,0,0-2.4-2c-1.76,0-2.91,1.37-2.91,3.61v.11c0,2.26,1.08,3.59,2.93,3.59a2.34,2.34,0,0,0,2.56-2.12H526c-.29,2.41-2,3.63-4.38,3.63C518.48,76.85,516.73,74.85,516.73,71.77Z" fill="#fff"/><path d="M530.52,66.69H533l2.64,6.84,2.57-6.84h2.47v10h-1.86V69.15l-3,7.56h-.6l-3-7.56v7.56h-1.68Z" fill="#fff"/><path d="M542.05,74.68c0-1.71,1.66-2.33,3.76-2.33h.91V72c0-1-.34-1.48-1.33-1.48a1.22,1.22,0,0,0-1.4,1.15h-1.64c.14-1.71,1.5-2.42,3.14-2.42s2.92.67,2.92,2.68v4.8h-1.66v-.9a2.56,2.56,0,0,1-2.24,1C543.16,76.85,542.05,76.21,542.05,74.68Zm4.67-.53v-.73h-.87c-1.29,0-2.11.29-2.11,1.19,0,.62.33,1,1.17,1C546,75.63,546.72,75.08,546.72,74.15Z" fill="#fff"/><path d="M549.74,77h1.71c.14.73.7,1.15,1.81,1.15a1.79,1.79,0,0,0,2-2V75.06a2.85,2.85,0,0,1-2.39,1.36,3.24,3.24,0,0,1-3.25-3.49v-.1a3.37,3.37,0,0,1,3.29-3.6,2.54,2.54,0,0,1,2.35,1.27V69.38H557v6.78c0,2.16-1.46,3.24-3.73,3.24S549.94,78.36,549.74,77Zm5.62-4.09v-.1a1.94,1.94,0,0,0-2-2.21,2,2,0,0,0-2,2.24v.11a2,2,0,0,0,1.94,2.2A2,2,0,0,0,555.36,72.87Z" fill="#fff"/></g><g id="_H_R_Block_Online_prices_are_significantly_lower_than_Tur" data-name="&quot;[H&amp;R Block Online] prices are significantly     lower than Tur"><path d="M120.87,24.8h3.55L124,30.62h-2.69Zm4.48,0h3.57l-.44,5.82h-2.69Z" fill="#fff"/><path d="M130.85,23.51h6.45v2.77h-2.64v14h2.64v2.77h-6.45Z" fill="#fff"/><path d="M139.25,24.8h4.35v5.78h5V24.8h4.34V39.93h-4.34V34h-5v6h-4.35Z" fill="#fff"/><path d="M167.42,36.84l2.51,3.09H165l-.89-1.1A6,6,0,0,1,160,40.18c-3.22,0-5.31-1.69-5.31-4.57,0-1.94,1.18-3.38,3.32-4.4a4.77,4.77,0,0,1-.93-2.64c0-2.58,2.2-4,4.86-4,2.41,0,4.59,1.21,4.59,3.54,0,1.65-1,2.85-3,3.74l1.9,2.33,1.1-2.16h3.3Zm-5.25-.45-2.39-2.87a1.79,1.79,0,0,0-1,1.63A1.75,1.75,0,0,0,160.69,37,2,2,0,0,0,162.17,36.39Zm-.46-6.09c1-.48,1.5-1.05,1.5-1.84a1.09,1.09,0,0,0-1.12-1.16,1.21,1.21,0,0,0-1.25,1.31A2.76,2.76,0,0,0,161.71,30.3Z" fill="#fff"/><path d="M171.31,24.8h5.92c4,0,6.16,1.61,6.16,4.8v.09a4,4,0,0,1-2.73,4l3.61,6.26h-4.56l-3.07-5.42h-1v5.42h-4.31ZM177,31.7c1.46,0,2.18-.61,2.18-1.84v-.09c0-1.22-.76-1.71-2.16-1.71h-1.42V31.7Z" fill="#fff"/><path d="M189.58,24.8h6.75c3.57,0,5.1,1.61,5.1,4v.08a3.11,3.11,0,0,1-2.56,3.26,3.29,3.29,0,0,1,3,3.53v.09c0,2.7-1.75,4.21-5.5,4.21h-6.81Zm5.88,6c1.36,0,1.86-.46,1.86-1.54v-.09c0-1-.55-1.5-1.86-1.5h-1.65v3.13Zm.15,6.22c1.37,0,2-.64,2-1.76v-.08c0-1.14-.61-1.74-2.14-1.74h-1.67V37Z" fill="#fff"/><path d="M203.39,24h3.77V39.93h-3.77Z" fill="#fff"/><path d="M208.6,34.53v-.17c0-3.55,2.64-5.79,6.07-5.79s6,2.18,6,5.69v.17c0,3.59-2.64,5.75-6.05,5.75S208.6,38.11,208.6,34.53Zm8.24-.06V34.3c0-1.86-.74-2.9-2.17-2.9s-2.2,1-2.2,2.86v.17c0,1.9.74,2.94,2.2,2.94S216.84,36.31,216.84,34.47Z" fill="#fff"/><path d="M221.43,34.53v-.17a5.56,5.56,0,0,1,5.9-5.79c2.71,0,5.21,1.18,5.42,4.55H229.2a1.64,1.64,0,0,0-1.78-1.61c-1.33,0-2.12.95-2.12,2.81v.17c0,1.93.74,2.92,2.18,2.92a1.85,1.85,0,0,0,1.93-1.84h3.4c-.1,2.79-2,4.61-5.56,4.61C224,40.18,221.43,38.25,221.43,34.53Z" fill="#fff"/><path d="M234,24h3.78v9.24l3-4.37h3.93l-3.62,5,3.92,6.1h-4.23l-3-4.85v4.85H234Z" fill="#fff"/><path d="M249.31,32.46v-.17c0-4.61,3.47-7.7,8-7.7s8,2.9,8,7.6v.16c0,4.66-3.2,7.83-8.08,7.83S249.31,37,249.31,32.46Zm11.48,0v-.17c0-2.69-1.35-4.27-3.49-4.27s-3.47,1.54-3.47,4.29v.17c0,2.75,1.4,4.33,3.49,4.33S260.79,35.12,260.79,32.42Z" fill="#fff"/><path d="M266.78,28.87h3.78v1.77a3.92,3.92,0,0,1,3.64-2.07c2.14,0,3.62,1.33,3.62,4.17v7.19H274V33.5c0-1.25-.48-1.86-1.58-1.86s-1.89.67-1.89,2.09v6.2h-3.78Z" fill="#fff"/><path d="M279.76,24h3.77V39.93h-3.77Z" fill="#fff"/><path d="M285.47,25.86a2.09,2.09,0,1,1,2.08,1.95A2,2,0,0,1,285.47,25.86Zm.2,3h3.78V39.93h-3.78Z" fill="#fff"/><path d="M291.48,28.87h3.79v1.77a3.89,3.89,0,0,1,3.63-2.07c2.14,0,3.62,1.33,3.62,4.17v7.19h-3.78V33.5c0-1.25-.49-1.86-1.59-1.86s-1.88.67-1.88,2.09v6.2h-3.79Z" fill="#fff"/><path d="M303.77,34.53v-.17a5.65,5.65,0,0,1,6-5.79c3,0,5.63,1.73,5.63,5.71v1H307.6a2.21,2.21,0,0,0,2.3,2.31c1.25,0,1.78-.57,1.93-1.31h3.55c-.34,2.49-2.26,3.91-5.6,3.91S303.77,38.15,303.77,34.53Zm7.93-1.39c-.06-1.34-.72-2.08-1.95-2.08a2.1,2.1,0,0,0-2.11,2.08Z" fill="#fff"/><path d="M316.18,40.29h2.63v-14h-2.63V23.51h6.43V43.06h-6.43Z" fill="#fff"/><path d="M328.66,28.87h3.79v1.64a3.9,3.9,0,0,1,3.45-1.94c2.58,0,4.67,1.94,4.67,5.73v.17c0,3.81-2.09,5.71-4.7,5.71a3.64,3.64,0,0,1-3.42-1.88v5.33h-3.79Zm8.06,5.6V34.3c0-1.95-.85-2.88-2.18-2.88s-2.2,1-2.2,2.86v.17c0,1.88.83,2.83,2.2,2.83S336.72,36.29,336.72,34.47Z" fill="#fff"/><path d="M341.94,28.87h3.79v2.19a3.49,3.49,0,0,1,3.57-2.34v3.53c-2.3-.06-3.57.65-3.57,2.43v5.25h-3.79Z" fill="#fff"/><path d="M350.59,25.86a2.09,2.09,0,1,1,2.08,1.95A2,2,0,0,1,350.59,25.86Zm.2,3h3.78V39.93h-3.78Z" fill="#fff"/><path d="M356,34.53v-.17a5.56,5.56,0,0,1,5.9-5.79c2.71,0,5.2,1.18,5.41,4.55h-3.55A1.64,1.64,0,0,0,362,31.51c-1.33,0-2.11.95-2.11,2.81v.17c0,1.93.74,2.92,2.18,2.92A1.84,1.84,0,0,0,364,35.57h3.41c-.11,2.79-2,4.61-5.56,4.61C358.53,40.18,356,38.25,356,34.53Z" fill="#fff"/><path d="M368,34.53v-.17a5.66,5.66,0,0,1,6-5.79c3,0,5.62,1.73,5.62,5.71v1h-7.78a2.21,2.21,0,0,0,2.31,2.31c1.24,0,1.77-.57,1.92-1.31h3.55c-.34,2.49-2.26,3.91-5.6,3.91S368,38.15,368,34.53ZM376,33.14c-.06-1.34-.72-2.08-1.94-2.08a2.11,2.11,0,0,0-2.12,2.08Z" fill="#fff"/><path d="M380.31,36.42h3.49c.13.8.49,1.24,1.56,1.24s1.36-.36,1.36-.91-.53-.78-2.05-1c-3-.38-4.21-1.25-4.21-3.55,0-2.46,2.18-3.64,4.74-3.64,2.72,0,4.63.93,4.88,3.57h-3.43a1.23,1.23,0,0,0-1.41-1.1c-.83,0-1.25.36-1.25.87s.51.74,1.86.91c3.07.38,4.55,1.18,4.55,3.55,0,2.63-1.95,3.81-5,3.81S380.39,38.87,380.31,36.42Z" fill="#fff"/><path d="M394.84,36.86c0-2.6,2.2-3.62,5.88-3.62h1.06V33c0-1.06-.26-1.76-1.46-1.76a1.36,1.36,0,0,0-1.5,1.31h-3.56c.17-2.66,2.27-4,5.29-4s5,1.25,5,4.19v7.17h-3.68V38.64a3.64,3.64,0,0,1-3.28,1.54C396.59,40.18,394.84,39.21,394.84,36.86Zm6.94-.8v-.68h-1c-1.52,0-2.2.29-2.2,1.2,0,.64.43,1,1.31,1C401,37.62,401.78,37,401.78,36.06Z" fill="#fff"/><path d="M407.38,28.87h3.79v2.19a3.49,3.49,0,0,1,3.57-2.34v3.53c-2.3-.06-3.57.65-3.57,2.43v5.25h-3.79Z" fill="#fff"/><path d="M415.42,34.53v-.17a5.65,5.65,0,0,1,6-5.79c3,0,5.63,1.73,5.63,5.71v1h-7.78a2.21,2.21,0,0,0,2.3,2.31c1.25,0,1.78-.57,1.93-1.31H427c-.34,2.49-2.26,3.91-5.61,3.91S415.42,38.15,415.42,34.53Zm7.93-1.39c-.06-1.34-.72-2.08-2-2.08a2.1,2.1,0,0,0-2.11,2.08Z" fill="#fff"/><path d="M431.45,36.42h3.49c.13.8.49,1.24,1.56,1.24s1.36-.36,1.36-.91-.53-.78-2.05-1c-3-.38-4.21-1.25-4.21-3.55,0-2.46,2.18-3.64,4.73-3.64,2.73,0,4.64.93,4.89,3.57h-3.43a1.23,1.23,0,0,0-1.41-1.1c-.83,0-1.25.36-1.25.87s.51.74,1.86.91c3.07.38,4.55,1.18,4.55,3.55,0,2.63-2,3.81-5,3.81S431.53,38.87,431.45,36.42Z" fill="#fff"/><path d="M442.68,25.86a2,2,0,0,1,2.07-2,2,2,0,1,1,0,3.91A2,2,0,0,1,442.68,25.86Zm.19,3h3.79V39.93h-3.79Z" fill="#fff"/><path d="M448.07,39.93h3.77c.17.8.65,1.43,2,1.43A2.09,2.09,0,0,0,456.22,39V37.35a3.91,3.91,0,0,1-3.43,2c-2.58,0-4.7-1.91-4.7-5.31V33.9c0-3.26,2.1-5.33,4.7-5.33a3.62,3.62,0,0,1,3.43,1.86V28.87H460V39c0,3.29-2.18,5-6.13,5C450.1,44,448.37,42.44,448.07,39.93Zm8.25-5.88V33.9c0-1.52-.78-2.5-2.18-2.5s-2.18,1-2.18,2.52v.17c0,1.52.81,2.49,2.16,2.49S456.32,35.61,456.32,34.05Z" fill="#fff"/><path d="M461.93,28.87h3.78v1.77a3.91,3.91,0,0,1,3.64-2.07c2.14,0,3.62,1.33,3.62,4.17v7.19h-3.79V33.5c0-1.25-.49-1.86-1.59-1.86s-1.88.67-1.88,2.09v6.2h-3.78Z" fill="#fff"/><path d="M474.72,25.86a2,2,0,0,1,2.07-2,2,2,0,1,1,0,3.91A2,2,0,0,1,474.72,25.86Zm.19,3h3.79V39.93h-3.79Z" fill="#fff"/><path d="M481.3,31.45h-1.4V28.87h1.4v-1c0-2.75,1.71-4.06,4.33-4.06a7.13,7.13,0,0,1,1.74.23v2.77a3.68,3.68,0,0,0-1-.14,1.11,1.11,0,0,0-1.27,1.2v1h2.25v2.58h-2.25v8.48H481.3Z" fill="#fff"/><path d="M488.49,25.86a2,2,0,0,1,2.07-2,2,2,0,1,1,0,3.91A2,2,0,0,1,488.49,25.86Zm.19,3h3.79V39.93h-3.79Z" fill="#fff"/><path d="M493.91,34.53v-.17a5.56,5.56,0,0,1,5.9-5.79c2.7,0,5.2,1.18,5.41,4.55h-3.55a1.64,1.64,0,0,0-1.78-1.61c-1.33,0-2.11.95-2.11,2.81v.17c0,1.93.74,2.92,2.17,2.92a1.85,1.85,0,0,0,1.93-1.84h3.4c-.1,2.79-2,4.61-5.56,4.61C496.42,40.18,493.91,38.25,493.91,34.53Z" fill="#fff"/><path d="M505.94,36.86c0-2.6,2.2-3.62,5.88-3.62h1.06V33c0-1.06-.26-1.76-1.46-1.76a1.36,1.36,0,0,0-1.5,1.31h-3.56c.17-2.66,2.26-4,5.29-4s5,1.25,5,4.19v7.17H513V38.64a3.64,3.64,0,0,1-3.28,1.54C507.69,40.18,505.94,39.21,505.94,36.86Zm6.94-.8v-.68h-1c-1.52,0-2.2.29-2.2,1.2,0,.64.43,1,1.31,1C512.07,37.62,512.88,37,512.88,36.06Z" fill="#fff"/><path d="M518.48,28.87h3.79v1.77a3.89,3.89,0,0,1,3.63-2.07c2.14,0,3.62,1.33,3.62,4.17v7.19h-3.79V33.5c0-1.25-.48-1.86-1.58-1.86s-1.88.67-1.88,2.09v6.2h-3.79Z" fill="#fff"/><path d="M531.87,36.37V31.45h-1.33V28.87h1.33V26.56h3.78v2.31h2.18v2.58h-2.18V36c0,.81.41,1.17,1.12,1.17a3,3,0,0,0,1.08-.19v2.87a7.71,7.71,0,0,1-2.09.32C533.26,40.18,531.87,39,531.87,36.37Z" fill="#fff"/><path d="M539.38,24h3.76V39.93h-3.76Z" fill="#fff"/><path d="M548.64,38.8l-4.42-9.93h4.1l2.29,5.9,2.11-5.9h3.62l-5.92,14.76H546.8Z" fill="#fff"/><path d="M130.24,47.15H134V63.08h-3.76Z" fill="#fff"/><path d="M135.44,57.68v-.17c0-3.55,2.64-5.79,6.07-5.79s6,2.18,6,5.69v.17c0,3.59-2.65,5.75-6,5.75S135.44,61.26,135.44,57.68Zm8.25-.06v-.17c0-1.86-.74-2.9-2.18-2.9s-2.2,1-2.2,2.86v.17c0,1.9.74,2.94,2.2,2.94S143.69,59.46,143.69,57.62Z" fill="#fff"/><path d="M147.58,52h3.95l1.61,6.62L155,52h3.05l1.65,6.62L161.49,52h3.6l-3.51,11.07H158l-1.65-6.18-1.71,6.18h-3.68Z" fill="#fff"/><path d="M165,57.68v-.17a5.66,5.66,0,0,1,6-5.79c3,0,5.63,1.73,5.63,5.71v1h-7.79a2.21,2.21,0,0,0,2.31,2.31c1.25,0,1.77-.57,1.92-1.31h3.56c-.34,2.49-2.27,3.91-5.61,3.91S165,61.3,165,57.68Zm7.94-1.39c-.07-1.33-.72-2.08-1.95-2.08a2.12,2.12,0,0,0-2.12,2.08Z" fill="#fff"/><path d="M177.91,52h3.78v2.2a3.48,3.48,0,0,1,3.58-2.34V55.4c-2.31-.07-3.58.65-3.58,2.43v5.25h-3.78Z" fill="#fff"/><path d="M191,59.52V54.59h-1.33V52H191v-2.3h3.78V52H197v2.58h-2.18v4.57a1,1,0,0,0,1.13,1.17,3,3,0,0,0,1.07-.19V63a7.71,7.71,0,0,1-2.09.32C192.39,63.33,191,62.12,191,59.52Z" fill="#fff"/><path d="M198.4,47.15h3.79v6.64a3.89,3.89,0,0,1,3.63-2.07c2.14,0,3.62,1.33,3.62,4.16v7.2h-3.78V56.65c0-1.25-.49-1.86-1.59-1.86s-1.88.67-1.88,2.09v6.2H198.4Z" fill="#fff"/><path d="M210.65,60c0-2.6,2.2-3.62,5.88-3.62h1.05v-.25c0-1.06-.25-1.76-1.46-1.76a1.37,1.37,0,0,0-1.5,1.32h-3.55c.17-2.67,2.26-4,5.29-4s5,1.25,5,4.19v7.17h-3.68V61.79a3.64,3.64,0,0,1-3.28,1.54C212.4,63.33,210.65,62.36,210.65,60Zm6.93-.8v-.68h-1c-1.52,0-2.2.3-2.2,1.2,0,.64.42,1,1.31,1C216.78,60.77,217.58,60.16,217.58,59.21Z" fill="#fff"/><path d="M223.19,52H227v1.78a3.92,3.92,0,0,1,3.64-2.07c2.14,0,3.62,1.33,3.62,4.16v7.2h-3.79V56.65c0-1.25-.48-1.86-1.58-1.86s-1.89.67-1.89,2.09v6.2h-3.78Z" fill="#fff"/><path d="M243.15,51.3h-3.91V48h12.18V51.3h-3.91V63.08h-4.36Z" fill="#fff"/><path d="M251.76,59.23V52h3.79v6.6c0,1.25.48,1.86,1.56,1.86S259,59.8,259,58.38V52h3.78V63.08H259V61.36a3.66,3.66,0,0,1-3.52,2C253.35,63.33,251.76,62,251.76,59.23Z" fill="#fff"/><path d="M264.71,52h3.78v2.2a3.48,3.48,0,0,1,3.58-2.34V55.4c-2.31-.07-3.58.65-3.58,2.43v5.25h-3.78Z" fill="#fff"/><path d="M277.23,61.36v1.72h-3.79V47.15h3.79v6.52a3.88,3.88,0,0,1,3.44-2c2.58,0,4.68,2,4.68,5.73v.17c0,3.81-2.1,5.71-4.7,5.71A3.57,3.57,0,0,1,277.23,61.36Zm4.27-3.74v-.17c0-2-.85-2.88-2.18-2.88s-2.2,1-2.2,2.86v.17c0,1.88.82,2.83,2.2,2.83S281.5,59.44,281.5,57.62Z" fill="#fff"/><path d="M286.13,57.68v-.17c0-3.55,2.64-5.79,6.07-5.79s6,2.18,6,5.69v.17c0,3.59-2.65,5.75-6.05,5.75S286.13,61.26,286.13,57.68Zm8.25-.06v-.17c0-1.86-.74-2.9-2.18-2.9s-2.2,1-2.2,2.86v.17c0,1.9.74,2.94,2.2,2.94S294.38,59.46,294.38,57.62Z" fill="#fff"/><path d="M302.8,51.3h-3.92V48h12.18V51.3h-3.91V63.08H302.8Z" fill="#fff"/><path d="M310.3,60c0-2.6,2.2-3.62,5.88-3.62h1.06v-.25c0-1.06-.25-1.76-1.46-1.76a1.37,1.37,0,0,0-1.5,1.32h-3.55c.17-2.67,2.26-4,5.28-4s5,1.25,5,4.19v7.17h-3.68V61.79a3.65,3.65,0,0,1-3.28,1.54C312.06,63.33,310.3,62.36,310.3,60Zm6.94-.8v-.68h-1c-1.53,0-2.2.3-2.2,1.2,0,.64.42,1,1.31,1C316.44,60.77,317.24,60.16,317.24,59.21Z" fill="#fff"/><path d="M325.64,57.45,322.19,52h4.36l1.71,2.92L329.93,52h3.89l-3.49,5.14,3.83,5.93H329.8l-2-3.3-2,3.3H322Z" fill="#fff"/><path d="M334.92,61.17A2.11,2.11,0,0,1,337.08,59a2.14,2.14,0,1,1,0,4.27A2.11,2.11,0,0,1,334.92,61.17Z" fill="#fff"/><path d="M340.93,61.17A2.11,2.11,0,0,1,343.09,59a2.14,2.14,0,1,1,0,4.27A2.11,2.11,0,0,1,340.93,61.17Z" fill="#fff"/><path d="M346.94,61.17A2.11,2.11,0,0,1,349.09,59a2.14,2.14,0,1,1,0,4.27A2.11,2.11,0,0,1,346.94,61.17Z" fill="#fff"/><path d="M350.85,48h3.55L354,53.77h-2.69Zm4.48,0h3.58l-.45,5.82h-2.68Z" fill="#fff"/></g></g></g></svg>