<svg xmlns="http://www.w3.org/2000/svg" viewBox="0 0 300 250"><title>H1</title><g id="Layer_2" data-name="Layer 2"><g id="Rect"><rect width="300" height="250" fill="none"/></g><g id="Your_tax_pro_does_your_taxes_while_you_stay_home." data-name="Your tax pro does your taxes while you stay home."><path d="M28.52,50.36,21.25,37.6h7L32,45.12l3.78-7.52h6.12L35,50.36v9.55H28.52Z" fill="#fff"/><path d="M39.53,52V51.7c0-5.24,3.9-8.55,9-8.55s8.89,3.21,8.89,8.39v.25c0,5.31-3.9,8.49-8.92,8.49S39.53,57.22,39.53,52Zm12.17-.09v-.25c0-2.75-1.09-4.28-3.21-4.28s-3.25,1.47-3.25,4.21v.25c0,2.81,1.09,4.34,3.25,4.34S51.7,54.57,51.7,51.86Z" fill="#fff"/><path d="M59.22,54.23V43.59H64.8v9.73c0,1.84.72,2.75,2.31,2.75s2.78-1,2.78-3.09V43.59h5.59V59.91H69.89V57.38a5.36,5.36,0,0,1-5.18,2.9C61.56,60.28,59.22,58.35,59.22,54.23Z" fill="#fff"/><path d="M78.31,43.59H83.9v3.24a5.14,5.14,0,0,1,5.27-3.46v5.21c-3.4-.09-5.27,1-5.27,3.59v7.74H78.31Z" fill="#fff"/><path d="M97.62,54.66V47.39h-2v-3.8h2v-3.4h5.59v3.4h3.21v3.8h-3.21v6.74c0,1.19.59,1.72,1.65,1.72a4.14,4.14,0,0,0,1.59-.28v4.24a11.46,11.46,0,0,1-3.08.47C99.68,60.28,97.62,58.5,97.62,54.66Z" fill="#fff"/><path d="M107.67,55.38c0-3.84,3.24-5.33,8.67-5.33h1.56v-.38c0-1.56-.37-2.59-2.15-2.59A2,2,0,0,0,113.53,49h-5.24c.25-3.94,3.34-5.87,7.8-5.87s7.37,1.84,7.37,6.18V59.91H118V58a5.36,5.36,0,0,1-4.84,2.28C110.26,60.28,107.67,58.85,107.67,55.38ZM117.9,54.2v-1h-1.46c-2.25,0-3.25.43-3.25,1.78,0,.93.63,1.53,1.94,1.53C116.72,56.51,117.9,55.6,117.9,54.2Z" fill="#fff"/><path d="M130.29,51.61l-5.09-8h6.43l2.53,4.3,2.46-4.3h5.74l-5.14,7.58,5.64,8.74h-6.42L133.53,55l-3,4.87h-5.71Z" fill="#fff"/><path d="M150.1,43.59h5.58V46a5.76,5.76,0,0,1,5.09-2.87c3.81,0,6.9,2.87,6.9,8.46v.25c0,5.61-3.09,8.42-6.93,8.42a5.37,5.37,0,0,1-5.06-2.78v7.87H150.1ZM162,51.86v-.25c0-2.87-1.25-4.25-3.22-4.25s-3.24,1.47-3.24,4.22v.24c0,2.78,1.21,4.19,3.24,4.19S162,54.54,162,51.86Z" fill="#fff"/><path d="M169.69,43.59h5.59v3.24a5.14,5.14,0,0,1,5.27-3.46v5.21c-3.4-.09-5.27,1-5.27,3.59v7.74h-5.59Z" fill="#fff"/><path d="M181.55,52V51.7c0-5.24,3.9-8.55,8.95-8.55s8.89,3.21,8.89,8.39v.25c0,5.31-3.9,8.49-8.92,8.49S181.55,57.22,181.55,52Zm12.17-.09v-.25c0-2.75-1.1-4.28-3.22-4.28s-3.24,1.47-3.24,4.21v.25c0,2.81,1.09,4.34,3.24,4.34S193.72,54.57,193.72,51.86Z" fill="#fff"/><path d="M206.22,51.92v-.25c0-5.56,3.06-8.52,6.93-8.52a5.27,5.27,0,0,1,5,2.75V36.41h5.59v23.5h-5.59V57.25a5.49,5.49,0,0,1-5.08,3C209.31,60.28,206.22,57.57,206.22,51.92Zm12.11-.1v-.24c0-2.75-1.16-4.22-3.21-4.22s-3.22,1.41-3.22,4.25v.25c0,2.74,1.22,4.15,3.15,4.15S218.33,54.6,218.33,51.82Z" fill="#fff"/><path d="M225.72,52V51.7c0-5.24,3.9-8.55,9-8.55s8.89,3.21,8.89,8.39v.25c0,5.31-3.9,8.49-8.92,8.49S225.72,57.22,225.72,52Zm12.17-.09v-.25c0-2.75-1.09-4.28-3.21-4.28s-3.25,1.47-3.25,4.21v.25c0,2.81,1.09,4.34,3.25,4.34S237.89,54.57,237.89,51.86Z" fill="#fff"/><path d="M244.66,52V51.7c0-5.24,3.9-8.55,8.83-8.55,4.46,0,8.3,2.56,8.3,8.43V53H250.31c.15,2.15,1.4,3.4,3.4,3.4,1.84,0,2.62-.84,2.84-1.93h5.24c-.5,3.68-3.34,5.77-8.27,5.77C248.4,60.28,244.66,57.29,244.66,52Zm11.7-2.06c-.09-2-1.06-3.06-2.87-3.06s-2.84,1.09-3.12,3.06Z" fill="#fff"/><path d="M262.78,54.73h5.15c.19,1.18.72,1.84,2.31,1.84,1.38,0,2-.53,2-1.34s-.78-1.16-3-1.47c-4.37-.56-6.21-1.84-6.21-5.24,0-3.62,3.22-5.37,7-5.37,4,0,6.84,1.37,7.21,5.27h-5.05a1.83,1.83,0,0,0-2.1-1.62c-1.21,0-1.84.53-1.84,1.28s.75,1.09,2.75,1.34c4.52.56,6.71,1.75,6.71,5.24,0,3.87-2.87,5.62-7.4,5.62S262.91,58.35,262.78,54.73Z" fill="#fff"/><path d="M27.77,92.37,21.25,77.7H27.3l3.37,8.71,3.12-8.71h5.34L30.39,99.48H25.06Z" fill="#fff"/><path d="M38.81,86.06v-.25c0-5.24,3.9-8.55,9-8.55s8.89,3.22,8.89,8.4v.25c0,5.3-3.9,8.49-8.92,8.49S38.81,91.34,38.81,86.06ZM51,86v-.25c0-2.75-1.09-4.27-3.21-4.27s-3.25,1.46-3.25,4.21v.25c0,2.81,1.1,4.33,3.25,4.33S51,88.68,51,86Z" fill="#fff"/><path d="M58.5,88.34V77.7h5.59v9.74c0,1.84.71,2.74,2.31,2.74s2.77-1,2.77-3.09V77.7h5.59V94H69.17V91.49A5.35,5.35,0,0,1,64,94.4C60.84,94.4,58.5,92.46,58.5,88.34Z" fill="#fff"/><path d="M77.59,77.7h5.59V81a5.14,5.14,0,0,1,5.27-3.47v5.21c-3.4-.09-5.27,1-5.27,3.59V94H77.59Z" fill="#fff"/><path d="M96.9,88.78V81.51h-2V77.7h2V74.3h5.59v3.4h3.21v3.81h-3.21v6.74A1.49,1.49,0,0,0,104.14,90a4.23,4.23,0,0,0,1.6-.28v4.25a12,12,0,0,1-3.09.47C99,94.4,96.9,92.62,96.9,88.78Z" fill="#fff"/><path d="M107,89.5c0-3.84,3.25-5.34,8.68-5.34h1.56v-.37c0-1.56-.38-2.59-2.16-2.59a2,2,0,0,0-2.21,1.93h-5.25c.25-3.93,3.34-5.87,7.81-5.87s7.36,1.84,7.36,6.18V94h-5.43v-1.9a5.38,5.38,0,0,1-4.84,2.28C109.54,94.4,107,93,107,89.5Zm10.24-1.19v-1h-1.47c-2.25,0-3.25.44-3.25,1.78,0,.94.63,1.53,1.94,1.53C116,90.62,117.19,89.71,117.19,88.31Z" fill="#fff"/><path d="M129.57,85.72l-5.09-8h6.43L133.44,82l2.46-4.31h5.75l-5.15,7.58L142.15,94h-6.43l-2.91-4.87-3,4.87h-5.71Z" fill="#fff"/><path d="M141.42,86.06v-.25c0-5.24,3.9-8.55,8.83-8.55,4.47,0,8.31,2.56,8.31,8.43v1.47H147.07c.16,2.15,1.41,3.4,3.4,3.4,1.84,0,2.62-.85,2.84-1.94h5.25c-.5,3.68-3.34,5.78-8.27,5.78C145.17,94.4,141.42,91.4,141.42,86.06ZM153.13,84c-.1-2-1.07-3-2.88-3s-2.83,1.09-3.12,3Z" fill="#fff"/><path d="M159.55,88.84h5.15c.18,1.19.72,1.84,2.31,1.84,1.37,0,2-.53,2-1.34s-.78-1.15-3-1.47c-4.37-.56-6.21-1.84-6.21-5.24,0-3.62,3.21-5.37,7-5.37,4,0,6.83,1.38,7.2,5.28h-5.05a1.83,1.83,0,0,0-2.09-1.63c-1.22,0-1.84.54-1.84,1.28s.75,1.1,2.74,1.35c4.53.56,6.71,1.74,6.71,5.24,0,3.87-2.87,5.62-7.39,5.62S159.67,92.46,159.55,88.84Z" fill="#fff"/><path d="M180.55,77.7h5.83l2.37,9.77,2.75-9.77H196l2.44,9.77,2.65-9.77h5.3L201.2,94h-5.33l-2.44-9.11L190.91,94h-5.43Z" fill="#fff"/><path d="M207.81,70.52h5.59v9.8a5.76,5.76,0,0,1,5.36-3.06c3.16,0,5.34,2,5.34,6.15V94h-5.59V84.53c0-1.84-.71-2.74-2.34-2.74s-2.77,1-2.77,3.09V94h-5.59Z" fill="#fff"/><path d="M226.69,73.27a3.08,3.08,0,1,1,3.06,2.87A2.92,2.92,0,0,1,226.69,73.27ZM227,77.7h5.58V94H227Z" fill="#fff"/><path d="M235.7,70.52h5.56V94H235.7Z" fill="#fff"/><path d="M243.38,86.06v-.25c0-5.24,3.9-8.55,8.83-8.55,4.46,0,8.3,2.56,8.3,8.43v1.47H249c.15,2.15,1.4,3.4,3.4,3.4,1.84,0,2.62-.85,2.84-1.94h5.24c-.5,3.68-3.34,5.78-8.27,5.78C247.12,94.4,243.38,91.4,243.38,86.06ZM255.08,84c-.09-2-1.06-3-2.87-3s-2.84,1.09-3.12,3Z" fill="#fff"/><path d="M27.77,126.48l-6.52-14.67H27.3l3.37,8.71,3.12-8.71h5.34l-8.74,21.78H25.06Z" fill="#fff"/><path d="M38.81,120.18v-.25c0-5.25,3.9-8.55,9-8.55s8.89,3.21,8.89,8.39V120c0,5.31-3.9,8.49-8.92,8.49S38.81,125.45,38.81,120.18Zm12.17-.1v-.25c0-2.74-1.09-4.27-3.21-4.27s-3.25,1.46-3.25,4.21V120c0,2.81,1.1,4.34,3.25,4.34S51,122.8,51,120.08Z" fill="#fff"/><path d="M58.5,122.45V111.81h5.59v9.74c0,1.84.71,2.75,2.31,2.75s2.77-1,2.77-3.09v-9.4h5.59v16.32H69.17v-2.52a5.36,5.36,0,0,1-5.18,2.9C60.84,128.51,58.5,126.57,58.5,122.45Z" fill="#fff"/><path d="M82.18,123h5.15c.18,1.19.72,1.84,2.31,1.84,1.37,0,2-.53,2-1.34s-.78-1.15-3-1.46c-4.37-.57-6.21-1.84-6.21-5.25,0-3.62,3.21-5.36,7-5.36,4,0,6.83,1.37,7.21,5.27H91.54A1.82,1.82,0,0,0,89.45,115c-1.22,0-1.84.53-1.84,1.28s.75,1.09,2.74,1.34c4.53.56,6.71,1.75,6.71,5.24,0,3.87-2.87,5.62-7.39,5.62S82.3,126.57,82.18,123Z" fill="#fff"/><path d="M99.62,122.89v-7.27h-2v-3.81h2v-3.4h5.59v3.4h3.21v3.81h-3.21v6.74c0,1.19.59,1.72,1.65,1.72a4.42,4.42,0,0,0,1.59-.28V128a11.62,11.62,0,0,1-3.09.47C101.68,128.51,99.62,126.73,99.62,122.89Z" fill="#fff"/><path d="M109.67,123.61c0-3.84,3.24-5.34,8.67-5.34h1.56v-.37c0-1.56-.37-2.59-2.15-2.59a2,2,0,0,0-2.22,1.93h-5.24c.25-3.93,3.34-5.86,7.8-5.86s7.36,1.84,7.36,6.18v10.57H120v-1.9a5.34,5.34,0,0,1-4.83,2.28C112.25,128.51,109.67,127.07,109.67,123.61Zm10.23-1.19v-1h-1.47c-2.24,0-3.24.44-3.24,1.78,0,.94.62,1.53,1.93,1.53C118.71,124.73,119.9,123.83,119.9,122.42Z" fill="#fff"/><path d="M132.72,126.48l-6.52-14.67h6l3.37,8.71,3.12-8.71h5.34l-8.74,21.78H130Z" fill="#fff"/><path d="M151.19,104.64h5.59v9.8a5.74,5.74,0,0,1,5.36-3.06c3.15,0,5.34,2,5.34,6.14v10.61h-5.59v-9.48c0-1.84-.71-2.75-2.34-2.75s-2.77,1-2.77,3.09v9.14h-5.59Z" fill="#fff"/><path d="M169.32,120.18v-.25c0-5.25,3.9-8.55,9-8.55s8.9,3.21,8.9,8.39V120c0,5.31-3.91,8.49-8.93,8.49S169.32,125.45,169.32,120.18Zm12.17-.1v-.25c0-2.74-1.1-4.27-3.22-4.27S175,117,175,119.77V120c0,2.81,1.09,4.34,3.24,4.34S181.49,122.8,181.49,120.08Z" fill="#fff"/><path d="M189.13,111.81h5.58v2.5a5.71,5.71,0,0,1,5.12-2.93,4.44,4.44,0,0,1,4.43,2.71,6.48,6.48,0,0,1,5.4-2.71c3.09,0,5.34,2,5.34,6.08v10.67h-5.59V118.4c0-1.66-.81-2.47-2.09-2.47-1.5,0-2.5,1-2.5,2.75v9.45H199.3V118.4c0-1.66-.81-2.47-2.09-2.47-1.5,0-2.5,1-2.5,2.75v9.45h-5.58Z" fill="#fff"/><path d="M216.83,120.18v-.25c0-5.25,3.9-8.55,8.83-8.55,4.46,0,8.3,2.56,8.3,8.42v1.47H222.48c.15,2.15,1.4,3.4,3.4,3.4,1.84,0,2.62-.84,2.84-1.93H234c-.5,3.68-3.34,5.77-8.27,5.77C220.58,128.51,216.83,125.51,216.83,120.18Zm11.7-2.06c-.09-2-1.06-3.06-2.87-3.06s-2.84,1.09-3.12,3.06Z" fill="#fff"/><path d="M235.52,125.33a3.11,3.11,0,0,1,3.18-3.16,3.16,3.16,0,1,1,0,6.31A3.11,3.11,0,0,1,235.52,125.33Z" fill="#fff"/></g></g></svg>