<svg xmlns="http://www.w3.org/2000/svg" viewBox="0 0 160 600"><title>Asset 2</title><g id="Layer_2" data-name="Layer 2"><g id="Rect"><rect width="160" height="600" fill="none"/></g><g id="Why_pay_to_file_if_you_don_t_have_to_" data-name="Why pay to file if you don&apos;t have to?"><path d="M20.57,61.85H29L32.76,80l3.91-18.18h7.42l4.24,18.34,4-18.34H60L53.22,91H44.49L40,72.49,35.49,91H27.34Z" fill="#fff"/><path d="M62.14,60.3h7.29V73.1a7.53,7.53,0,0,1,7-4c4.12,0,7,2.56,7,8V91h-7.3V78.6c0-2.4-.93-3.58-3-3.58s-3.63,1.3-3.63,4V91H62.14Z" fill="#fff"/><path d="M92.9,88.83,84.38,69.68h7.91l4.4,11.37,4.08-11.37h7L96.33,98.13h-7Z" fill="#fff"/><path d="M22.16,115.43h7.3v3.18a7.51,7.51,0,0,1,6.64-3.75c5,0,9,3.75,9,11v.33c0,7.33-4,11-9,11-3.22,0-5.54-1.51-6.6-3.63v10.28h-7.3Zm15.53,10.8v-.33c0-3.75-1.63-5.54-4.2-5.54s-4.24,1.91-4.24,5.5v.33c0,3.62,1.59,5.46,4.24,5.46S37.69,129.73,37.69,126.23Z" fill="#fff"/><path d="M46.53,130.83c0-5,4.24-7,11.33-7h2v-.48c0-2-.49-3.39-2.82-3.39a2.62,2.62,0,0,0-2.89,2.53H47.34c.33-5.14,4.36-7.66,10.19-7.66s9.62,2.4,9.62,8.07v13.81H60.06v-2.48c-1,1.55-2.89,3-6.32,3C49.91,137.23,46.53,135.36,46.53,130.83Zm13.37-1.55V128H58c-2.93,0-4.24.57-4.24,2.32,0,1.23.82,2,2.53,2C58.35,132.3,59.9,131.12,59.9,129.28Z" fill="#fff"/><path d="M76.64,134.58l-8.51-19.15H76l4.4,11.37,4.08-11.37h7L80.07,143.88h-7Z" fill="#fff"/><path d="M101.74,129.9v-9.5H99.18v-5h2.56V111H109v4.45h4.2v5H109v8.8c0,1.55.77,2.24,2.16,2.24a5.67,5.67,0,0,0,2.08-.36v5.54a15.16,15.16,0,0,1-4,.61C104.43,137.23,101.74,134.91,101.74,129.9Z" fill="#fff"/><path d="M114.86,126.35V126c0-6.84,5.1-11.16,11.7-11.16s11.62,4.19,11.62,11v.33c0,6.92-5.1,11.08-11.66,11.08S114.86,133.24,114.86,126.35Zm15.9-.12v-.33c0-3.58-1.43-5.58-4.2-5.58s-4.24,1.91-4.24,5.5v.33c0,3.66,1.43,5.66,4.24,5.66S130.76,129.77,130.76,126.23Z" fill="#fff"/><path d="M23.26,166.15H20.57v-5h2.69V159.3c0-5.3,3.3-7.82,8.36-7.82a12.79,12.79,0,0,1,3.34.45v5.33a6.81,6.81,0,0,0-2-.28,2.14,2.14,0,0,0-2.44,2.32v1.88h4.32v5H30.52v16.34H23.26Z" fill="#fff"/><path d="M37.11,155.39a4,4,0,1,1,4,3.75A3.81,3.81,0,0,1,37.11,155.39Zm.37,5.79h7.3v21.31h-7.3Z" fill="#fff"/><path d="M48.89,151.8h7.26v30.69H48.89Z" fill="#fff"/><path d="M58.92,172.1v-.33c0-6.84,5.09-11.16,11.53-11.16,5.83,0,10.84,3.34,10.84,11v1.92h-15c.21,2.81,1.84,4.44,4.44,4.44,2.41,0,3.43-1.1,3.71-2.53h6.85c-.65,4.81-4.36,7.54-10.8,7.54C63.81,183,58.92,179.07,58.92,172.1Zm15.28-2.69c-.12-2.57-1.39-4-3.75-4-2.2,0-3.71,1.42-4.08,4Z" fill="#fff"/><path d="M22,201.14a3.81,3.81,0,0,1,4-3.79,3.78,3.78,0,1,1,0,7.54A3.77,3.77,0,0,1,22,201.14Zm.36,5.79h7.3v21.31h-7.3Z" fill="#fff"/><path d="M34.67,211.9H32v-5h2.69v-1.88c0-5.3,3.3-7.82,8.36-7.82a12.79,12.79,0,0,1,3.34.45V203a6.81,6.81,0,0,0-2-.28,2.15,2.15,0,0,0-2.45,2.32v1.88h4.33v5H41.92v16.34H34.67Z" fill="#fff"/><path d="M62.79,226.08l-8.52-19.15h7.91l4.4,11.37,4.07-11.37h7L66.21,235.38h-7Z" fill="#fff"/><path d="M77.21,217.85v-.33c0-6.84,5.1-11.16,11.7-11.16s11.61,4.19,11.61,11v.33c0,6.92-5.09,11.08-11.65,11.08S77.21,224.74,77.21,217.85Zm15.9-.12v-.33c0-3.58-1.43-5.58-4.2-5.58s-4.24,1.91-4.24,5.5v.33c0,3.66,1.43,5.66,4.24,5.66S93.11,221.27,93.11,217.73Z" fill="#fff"/><path d="M102.92,220.83v-13.9h7.3v12.71c0,2.41.94,3.59,3,3.59s3.62-1.3,3.62-4V206.93h7.3v21.31h-7.3v-3.3c-1.14,2.2-3.22,3.79-6.76,3.79C106,228.73,102.92,226.21,102.92,220.83Z" fill="#fff"/><path d="M21.1,263.56v-.33c0-7.25,4-11.12,9-11.12a6.9,6.9,0,0,1,6.56,3.58V243.3H44V274h-7.3v-3.46a7.18,7.18,0,0,1-6.64,4C25.14,274.48,21.1,270.94,21.1,263.56Zm15.81-.12v-.33c0-3.59-1.5-5.5-4.19-5.5s-4.2,1.83-4.2,5.54v.33c0,3.58,1.59,5.42,4.11,5.42S36.91,267.06,36.91,263.44Z" fill="#fff"/><path d="M46.57,263.6v-.33c0-6.84,5.09-11.16,11.7-11.16s11.61,4.19,11.61,11v.33c0,6.92-5.09,11.08-11.65,11.08S46.57,270.49,46.57,263.6Zm15.89-.12v-.33c0-3.58-1.42-5.58-4.19-5.58S54,259.48,54,263.07v.33c0,3.66,1.42,5.66,4.24,5.66S62.46,267,62.46,263.48Z" fill="#fff"/><path d="M72.45,252.68h7.29v3.42a7.53,7.53,0,0,1,7-4c4.12,0,7,2.56,7,8V274h-7.3V261.6c0-2.4-.93-3.58-3-3.58s-3.63,1.3-3.63,4V274H72.45Z" fill="#fff"/><path d="M95.84,244.85H103l-.86,11.21H96.65Z" fill="#fff"/><path d="M107.53,267.15v-9.5H105v-5h2.57v-4.45h7.3v4.45H119v5h-4.19v8.8c0,1.55.77,2.24,2.16,2.24a5.62,5.62,0,0,0,2.07-.36v5.54a15,15,0,0,1-4,.61C110.22,274.48,107.53,272.16,107.53,267.15Z" fill="#fff"/><path d="M22.16,289.05h7.3v12.8a7.52,7.52,0,0,1,7-4c4.11,0,7,2.56,7,8v13.85h-7.3V307.35c0-2.4-.94-3.58-3.06-3.58s-3.62,1.3-3.62,4v11.94h-7.3Z" fill="#fff"/><path d="M45.75,313.83c0-5,4.24-7,11.33-7h2v-.48c0-2-.49-3.39-2.81-3.39a2.61,2.61,0,0,0-2.89,2.53H46.57c.33-5.14,4.36-7.66,10.19-7.66s9.62,2.4,9.62,8.07v13.81H59.29v-2.48c-1,1.55-2.9,3-6.32,3C49.14,320.23,45.75,318.36,45.75,313.83Zm13.37-1.55V311H57.21c-2.94,0-4.24.57-4.24,2.32,0,1.23.81,2,2.52,2C57.57,315.3,59.12,314.12,59.12,312.28Z" fill="#fff"/><path d="M67.47,298.43h7.79l4.44,13.73,4.36-13.73h7l-7.78,21.31h-8Z" fill="#fff"/><path d="M90.58,309.35V309c0-6.84,5.09-11.16,11.53-11.16,5.83,0,10.84,3.34,10.84,11v1.92H98c.2,2.81,1.83,4.44,4.44,4.44,2.4,0,3.42-1.1,3.71-2.53H113c-.65,4.81-4.36,7.54-10.8,7.54C95.47,320.23,90.58,316.32,90.58,309.35Zm15.28-2.69c-.12-2.57-1.38-4-3.75-4-2.2,0-3.71,1.42-4.07,4Z" fill="#fff"/><path d="M23.14,358.65v-9.5H20.57v-5h2.57v-4.44h7.29v4.44h4.2v5h-4.2V358a2,2,0,0,0,2.16,2.24,5.63,5.63,0,0,0,2.08-.36v5.54a15.08,15.08,0,0,1-4,.61C25.83,366,23.14,363.66,23.14,358.65Z" fill="#fff"/><path d="M36.26,355.1v-.33c0-6.84,5.09-11.16,11.7-11.16s11.61,4.19,11.61,11v.33c0,6.93-5.09,11.08-11.65,11.08S36.26,362,36.26,355.1ZM52.15,355v-.33c0-3.58-1.42-5.58-4.19-5.58s-4.24,1.91-4.24,5.5v.33c0,3.66,1.42,5.66,4.24,5.66S52.15,358.52,52.15,355Z" fill="#fff"/><path d="M65.56,355.14c0-3.1,2.12-5.05,4-6.85,1.39-1.34,2.65-2.56,2.65-4a2.17,2.17,0,0,0-2.48-2.45c-1.76,0-2.94,1.35-3.22,3.59H59.4c.21-6.15,4.61-9.5,10.89-9.5s9.82,2.82,9.82,7.67a8.27,8.27,0,0,1-3,6.11c-2,2-4.32,3.59-4.68,5.58v.62H65.56Zm-.94,6.77a4.37,4.37,0,0,1,8.72,0,4.37,4.37,0,0,1-8.72,0Z" fill="#fff"/></g></g></svg>