<svg xmlns="http://www.w3.org/2000/svg" viewBox="0 0 160 600"><title>Asset 21</title><g id="Layer_2" data-name="Layer 2"><g id="Rect"><rect width="160" height="600" fill="none"/></g><g id="No_surprises_no_matter_how_you_file." data-name="No surprises no matter how you file."><path d="M21.85,117.88H28l6.13,10.78V117.88h4.79V137h-5.3l-7-12v12H21.85Z" fill="#fff"/><path d="M40.87,130.18V130c0-4.5,3.34-7.33,7.67-7.33s7.63,2.75,7.63,7.19v.22c0,4.54-3.35,7.27-7.65,7.27S40.87,134.7,40.87,130.18Zm10.43-.08v-.21c0-2.36-.94-3.67-2.76-3.67s-2.78,1.26-2.78,3.61v.22c0,2.4.94,3.72,2.78,3.72S51.3,132.43,51.3,130.1Z" fill="#fff"/><path d="M20.48,164.31H24.9c.16,1,.61,1.58,2,1.58,1.18,0,1.72-.45,1.72-1.15s-.67-1-2.6-1.26c-3.74-.48-5.32-1.58-5.32-4.49,0-3.1,2.75-4.6,6-4.6,3.45,0,5.86,1.17,6.18,4.52H28.51a1.57,1.57,0,0,0-1.8-1.39c-1,0-1.57.45-1.57,1.09s.64.94,2.35,1.15c3.88.49,5.75,1.5,5.75,4.5,0,3.31-2.46,4.81-6.34,4.81S20.59,167.41,20.48,164.31Z" fill="#fff"/><path d="M34.69,163.88v-9.12h4.78v8.35c0,1.58.62,2.35,2,2.35s2.38-.85,2.38-2.65v-8.05h4.79v14H43.83v-2.16a4.6,4.6,0,0,1-4.44,2.48C36.69,169.07,34.69,167.41,34.69,163.88Z" fill="#fff"/><path d="M51.06,154.76h4.78v2.78a4.41,4.41,0,0,1,4.52-3V159c-2.91-.08-4.52.83-4.52,3.08v6.63H51.06Z" fill="#fff"/><path d="M62.1,154.76h4.79v2.09a4.93,4.93,0,0,1,4.36-2.46c3.27,0,5.91,2.46,5.91,7.25v.21c0,4.82-2.64,7.22-5.93,7.22a4.62,4.62,0,0,1-4.34-2.38v6.74H62.1Zm10.19,7.09v-.21c0-2.46-1.06-3.64-2.75-3.64s-2.78,1.26-2.78,3.61v.21c0,2.38,1,3.59,2.78,3.59S72.29,164.15,72.29,161.85Z" fill="#fff"/><path d="M78.9,154.76h4.79v2.78a4.4,4.4,0,0,1,4.52-3V159c-2.91-.08-4.52.83-4.52,3.08v6.63H78.9Z" fill="#fff"/><path d="M89.84,151a2.64,2.64,0,1,1,2.62,2.46A2.5,2.5,0,0,1,89.84,151Zm.24,3.8h4.79v14H90.08Z" fill="#fff"/><path d="M96.5,164.31h4.42c.16,1,.61,1.58,2,1.58,1.17,0,1.71-.45,1.71-1.15s-.67-1-2.6-1.26c-3.74-.48-5.32-1.58-5.32-4.49,0-3.1,2.76-4.6,6-4.6,3.45,0,5.86,1.17,6.18,4.52h-4.33a1.56,1.56,0,0,0-1.79-1.39c-1,0-1.58.45-1.58,1.09s.64.94,2.35,1.15c3.88.49,5.75,1.5,5.75,4.5,0,3.31-2.46,4.81-6.34,4.81S96.61,167.41,96.5,164.31Z" fill="#fff"/><path d="M110.15,161.93v-.21c0-4.5,3.34-7.33,7.57-7.33,3.82,0,7.11,2.19,7.11,7.22v1.26H115a2.79,2.79,0,0,0,2.91,2.91c1.58,0,2.25-.72,2.44-1.66h4.49c-.43,3.16-2.86,4.95-7.09,4.95S110.15,166.5,110.15,161.93Zm10-1.76c-.08-1.69-.91-2.63-2.46-2.63a2.67,2.67,0,0,0-2.68,2.63Z" fill="#fff"/><path d="M125.69,164.31h4.41c.16,1,.62,1.58,2,1.58,1.18,0,1.71-.45,1.71-1.15s-.67-1-2.59-1.26c-3.75-.48-5.32-1.58-5.32-4.49,0-3.1,2.75-4.6,6-4.6,3.45,0,5.85,1.17,6.17,4.52h-4.33a1.56,1.56,0,0,0-1.79-1.39c-1,0-1.58.45-1.58,1.09s.64.94,2.36,1.15c3.87.49,5.75,1.5,5.75,4.5,0,3.31-2.46,4.81-6.34,4.81S125.79,167.41,125.69,164.31Z" fill="#fff"/><path d="M21.42,186.51h4.79v2.25a4.91,4.91,0,0,1,4.6-2.62c2.7,0,4.57,1.68,4.57,5.27v9.09H30.59v-8.13c0-1.58-.61-2.35-2-2.35s-2.38.85-2.38,2.64v7.84H21.42Z" fill="#fff"/><path d="M37,193.68v-.21c0-4.5,3.34-7.33,7.68-7.33s7.62,2.75,7.62,7.19v.22c0,4.54-3.34,7.27-7.65,7.27S37,198.2,37,193.68Zm10.43-.08v-.21c0-2.36-.93-3.67-2.75-3.67s-2.79,1.26-2.79,3.61v.22c0,2.4.94,3.72,2.79,3.72S47.39,195.93,47.39,193.6Z" fill="#fff"/><path d="M21.42,218.26h4.79v2.14a4.87,4.87,0,0,1,4.38-2.51,3.81,3.81,0,0,1,3.8,2.32A5.54,5.54,0,0,1,39,217.89c2.65,0,4.57,1.71,4.57,5.21v9.15H38.8v-8.34c0-1.42-.69-2.12-1.79-2.12a2.08,2.08,0,0,0-2.14,2.36v8.1H30.14v-8.34c0-1.42-.7-2.12-1.79-2.12a2.07,2.07,0,0,0-2.14,2.36v8.1H21.42Z" fill="#fff"/><path d="M45.12,228.37c0-3.29,2.78-4.57,7.43-4.57h1.34v-.32c0-1.34-.32-2.22-1.84-2.22a1.71,1.71,0,0,0-1.9,1.66h-4.5c.22-3.37,2.87-5,6.69-5s6.31,1.58,6.31,5.29v9.07H54v-1.63a4.59,4.59,0,0,1-4.15,1.95C47.34,232.57,45.12,231.34,45.12,228.37Zm8.77-1v-.86H52.63c-1.92,0-2.78.38-2.78,1.53,0,.8.54,1.31,1.66,1.31A2.11,2.11,0,0,0,53.89,227.36Z" fill="#fff"/><path d="M61.54,227.76v-6.23H59.86v-3.27h1.68v-2.91h4.79v2.91h2.76v3.27H66.33v5.77a1.28,1.28,0,0,0,1.42,1.47,3.66,3.66,0,0,0,1.36-.24v3.64a10,10,0,0,1-2.65.4C63.31,232.57,61.54,231.05,61.54,227.76Z" fill="#fff"/><path d="M71.55,227.76v-6.23H69.86v-3.27h1.69v-2.91h4.78v2.91h2.76v3.27H76.33v5.77a1.28,1.28,0,0,0,1.42,1.47,3.68,3.68,0,0,0,1.37-.24v3.64a10.15,10.15,0,0,1-2.65.4C73.31,232.57,71.55,231.05,71.55,227.76Z" fill="#fff"/><path d="M80.16,225.43v-.21c0-4.5,3.34-7.33,7.57-7.33,3.82,0,7.11,2.19,7.11,7.22v1.26H85a2.8,2.8,0,0,0,2.92,2.91c1.58,0,2.24-.72,2.43-1.66h4.49c-.42,3.16-2.86,4.95-7.08,4.95C83.37,232.57,80.16,230,80.16,225.43Zm10-1.76c-.08-1.69-.91-2.63-2.46-2.63s-2.43.94-2.67,2.63Z" fill="#fff"/><path d="M96.5,218.26h4.79V221a4.41,4.41,0,0,1,4.52-3v4.46c-2.91-.08-4.52.83-4.52,3.08v6.63H96.5Z" fill="#fff"/><path d="M21.42,243.86h4.79v8.4a4.91,4.91,0,0,1,4.6-2.62c2.7,0,4.57,1.68,4.57,5.27V264H30.59v-8.13c0-1.58-.61-2.35-2-2.35s-2.38.85-2.38,2.64V264H21.42Z" fill="#fff"/><path d="M37,257.18V257c0-4.5,3.34-7.33,7.68-7.33s7.62,2.75,7.62,7.19v.22c0,4.54-3.34,7.27-7.65,7.27S37,261.7,37,257.18Zm10.43-.08v-.21c0-2.36-.93-3.67-2.75-3.67s-2.79,1.26-2.79,3.61v.22c0,2.4.94,3.72,2.79,3.72S47.39,259.43,47.39,257.1Z" fill="#fff"/><path d="M52.31,250h5l2,8.37L61.7,250h3.85l2.09,8.37L69.91,250h4.55L70,264H65.45l-2.09-7.81L61.19,264H56.54Z" fill="#fff"/><path d="M25.8,294.33l-5.59-12.57H25.4l2.89,7.47L31,281.76h4.57l-7.49,18.67H23.48Z" fill="#fff"/><path d="M35.27,288.93v-.21c0-4.5,3.35-7.33,7.68-7.33s7.62,2.75,7.62,7.19v.22c0,4.54-3.34,7.27-7.65,7.27S35.27,293.45,35.27,288.93Zm10.44-.08v-.21c0-2.36-.94-3.67-2.76-3.67s-2.78,1.26-2.78,3.61v.22c0,2.4.93,3.72,2.78,3.72S45.71,291.18,45.71,288.85Z" fill="#fff"/><path d="M52.15,290.88v-9.12h4.79v8.35c0,1.58.62,2.35,2,2.35s2.38-.85,2.38-2.65v-8.05h4.79v14H61.3v-2.16a4.6,4.6,0,0,1-4.44,2.48C54.16,296.07,52.15,294.41,52.15,290.88Z" fill="#fff"/><path d="M74.11,285H72.35v-3.27h1.76v-1.23c0-3.48,2.17-5.13,5.49-5.13a8.55,8.55,0,0,1,2.19.29v3.5a4.64,4.64,0,0,0-1.31-.18,1.4,1.4,0,0,0-1.6,1.52v1.23h2.83V285H78.88v10.72H74.11Z" fill="#fff"/><path d="M83.21,278a2.5,2.5,0,0,1,2.62-2.48,2.48,2.48,0,1,1,0,4.94A2.47,2.47,0,0,1,83.21,278Zm.24,3.8h4.79v14H83.45Z" fill="#fff"/><path d="M90.94,275.61H95.7v20.14H90.94Z" fill="#fff"/><path d="M97.52,288.93v-.21c0-4.5,3.34-7.33,7.57-7.33,3.83,0,7.12,2.19,7.12,7.22v1.26h-9.85a2.79,2.79,0,0,0,2.92,2.91c1.58,0,2.24-.72,2.43-1.66h4.5c-.43,3.16-2.87,4.95-7.09,4.95C100.73,296.07,97.52,293.5,97.52,288.93Zm10-1.76c-.08-1.69-.91-2.63-2.46-2.63s-2.43.94-2.67,2.63Z" fill="#fff"/><path d="M113.54,293.34a2.67,2.67,0,0,1,2.73-2.7,2.71,2.71,0,1,1,0,5.41A2.67,2.67,0,0,1,113.54,293.34Z" fill="#fff"/></g></g></svg>