<svg xmlns="http://www.w3.org/2000/svg" viewBox="0 0 300 600"><title>H53</title><g id="Layer_2" data-name="Layer 2"><g id="Rect"><rect width="300" height="600" fill="none"/></g><g id="H53"><g id="It_s_better_with_Block." data-name="It’s better with Block."><path d="M25.38,79.58H43.46V142H25.38Z" fill="#fff"/><path d="M54.55,127.37V107h-5.5V96.35h5.5V86.83H70.19v9.52h9V107h-9v18.87c0,3.32,1.66,4.81,4.63,4.81a11.93,11.93,0,0,0,4.45-.79v11.88a33,33,0,0,1-8.64,1.31C60.32,143.09,54.55,138.11,54.55,127.37Z" fill="#fff"/><path d="M83.9,101.25l7-22.8,13.8,4.63-12,21.57Z" fill="#fff"/><path d="M99.45,127.54h14.41c.53,3.32,2,5.15,6.47,5.15,3.84,0,5.59-1.48,5.59-3.75s-2.18-3.23-8.47-4.11c-12.23-1.57-17.39-5.15-17.39-14.67,0-10.14,9-15,19.57-15,11.27,0,19.13,3.84,20.18,14.76H125.66c-.61-3-2.27-4.54-5.86-4.54-3.4,0-5.15,1.49-5.15,3.58s2.1,3.06,7.69,3.76c12.66,1.57,18.78,4.89,18.78,14.68,0,10.83-8,15.72-20.7,15.72C107.4,143.09,99.8,137.67,99.45,127.54Z" fill="#fff"/><path d="M39.27,222.32v7.07H23.63V163.61H39.27v26.91a16.11,16.11,0,0,1,14.24-8c10.65,0,19.3,8,19.3,23.67v.7c0,15.73-8.65,23.59-19.39,23.59C46.6,230.44,41.54,227.21,39.27,222.32Zm17.64-15.47v-.7c0-8-3.49-11.88-9-11.88-5.68,0-9.09,4.11-9.09,11.8v.7c0,7.77,3.41,11.7,9.09,11.7C53.77,218.47,56.91,214.37,56.91,206.85Z" fill="#fff"/><path d="M76,207.12v-.7c0-14.68,10.92-23.94,24.72-23.94,12.49,0,23.24,7.16,23.24,23.59v4.1H91.85c.44,6,3.93,9.52,9.52,9.52,5.16,0,7.34-2.35,7.95-5.41H124c-1.4,10.31-9.35,16.16-23.15,16.16C86.52,230.44,76,222.05,76,207.12Zm32.76-5.77c-.26-5.5-3-8.56-8-8.56-4.72,0-8,3.06-8.74,8.56Z" fill="#fff"/><path d="M131.51,214.72V194.36H126V183.7h5.51v-9.52h15.63v9.52h9v10.66h-9v18.87c0,3.32,1.66,4.81,4.63,4.81a12,12,0,0,0,4.46-.79v11.88a33,33,0,0,1-8.65,1.31C137.27,230.44,131.51,225.46,131.51,214.72Z" fill="#fff"/><path d="M164.17,214.72V194.36h-5.5V183.7h5.5v-9.52h15.64v9.52h9v10.66h-9v18.87c0,3.32,1.66,4.81,4.63,4.81a12,12,0,0,0,4.46-.79v11.88a33,33,0,0,1-8.65,1.31C169.94,230.44,164.17,225.46,164.17,214.72Z" fill="#fff"/><path d="M192.3,207.12v-.7c0-14.68,10.92-23.94,24.72-23.94,12.49,0,23.24,7.16,23.24,23.59v4.1H208.11c.44,6,3.93,9.52,9.52,9.52,5.16,0,7.34-2.35,8-5.41h14.68c-1.4,10.31-9.35,16.16-23.15,16.16C202.78,230.44,192.3,222.05,192.3,207.12Zm32.76-5.77c-.26-5.5-3-8.56-8-8.56-4.72,0-8,3.06-8.73,8.56Z" fill="#fff"/><path d="M245.67,183.7h15.64v9.09c2.88-6.81,7.68-9.79,14.76-9.7v14.59c-9.52-.26-14.76,2.71-14.76,10v21.66H245.67Z" fill="#fff"/><path d="M19.79,271.05H36.12l6.64,27.35,7.69-27.35H63l6.81,27.35,7.43-27.35H92.12l-14.5,45.69H62.68l-6.82-25.51-7.07,25.51H33.59Z" fill="#fff"/><path d="M95.78,258.65c0-4.63,3.67-8.13,8.56-8.13S113,254,113,258.65s-3.76,8-8.65,8S95.78,263.28,95.78,258.65Zm.79,12.4H112.2v45.69H96.57Z" fill="#fff"/><path d="M122.68,302.07V281.71h-5.5V271.05h5.5v-9.52h15.64v9.52h9v10.66h-9v18.87c0,3.32,1.66,4.8,4.63,4.8a12,12,0,0,0,4.46-.78v11.88a33,33,0,0,1-8.65,1.31C128.45,317.79,122.68,312.81,122.68,302.07Z" fill="#fff"/><path d="M153.25,251h15.64v27.43c2.45-4.72,7.43-8.56,15-8.56,8.82,0,14.94,5.5,14.94,17.21v29.7H183.22V290.19c0-5.16-2-7.69-6.55-7.69s-7.78,2.79-7.78,8.65v25.59H153.25Z" fill="#fff"/><path d="M25,341.63H52.89C67.66,341.63,74,348.27,74,358v.35c0,7-3.58,11.61-10.57,13.45,7.68,1.31,12.49,5.94,12.49,14.59v.35c0,11.18-7.25,17.38-22.71,17.38H25Zm24.28,24.81c5.59,0,7.69-1.92,7.69-6.38v-.35c0-4.28-2.27-6.2-7.69-6.2H42.5v12.93Zm.61,25.68c5.68,0,8.3-2.62,8.3-7.25v-.35c0-4.71-2.53-7.16-8.82-7.16H42.5v14.76Z" fill="#fff"/><path d="M82.07,338.31H97.62v65.78H82.07Z" fill="#fff"/><path d="M103.55,381.82v-.7c0-14.68,10.92-23.94,25.07-23.94s24.9,9,24.9,23.5v.7c0,14.85-10.92,23.76-25,23.76S103.55,396.58,103.55,381.82Zm34.07-.27v-.7c0-7.68-3.06-12-9-12s-9.08,4.1-9.08,11.79v.7c0,7.86,3.06,12.14,9.08,12.14C134.48,393.52,137.62,389.15,137.62,381.55Z" fill="#fff"/><path d="M156.57,381.82v-.7c0-15.2,10.92-23.94,24.38-23.94,11.18,0,21.49,4.89,22.36,18.78H188.63c-.7-4.28-2.79-6.64-7.33-6.64-5.51,0-8.74,3.93-8.74,11.62v.7c0,7.95,3.06,12.06,9,12.06,4.37,0,7.42-2.62,7.95-7.6h14.06c-.44,11.53-8.21,19-23,19C167,405.14,156.57,397.19,156.57,381.82Z" fill="#fff"/><path d="M208.63,338.31h15.64v38.18l12.32-18.09h16.25L237.9,378.93l16.16,25.16H236.59l-12.32-20v20H208.63Z" fill="#fff"/><path d="M257.11,396.23a8.71,8.71,0,0,1,8.91-8.82,8.83,8.83,0,1,1,0,17.64A8.71,8.71,0,0,1,257.11,396.23Z" fill="#fff"/></g></g></g></svg>