<svg xmlns="http://www.w3.org/2000/svg" viewBox="0 0 300 600"><title>Asset 17</title><g id="Layer_2" data-name="Layer 2"><g id="Rect"><rect width="300" height="600" fill="none"/></g><g id="It_s_Better_with_Block." data-name="It’s Better with Block."><path d="M25.35,79.57h18v62.21h-18Z" fill="#fff"/><path d="M54.41,127.16V106.89H48.93V96.27h5.48V86.79H70v9.48h9v10.62H70v18.79c0,3.31,1.66,4.79,4.61,4.79a11.72,11.72,0,0,0,4.44-.79v11.84a32.79,32.79,0,0,1-8.61,1.3C60.15,142.82,54.41,137.86,54.41,127.16Z" fill="#fff"/><path d="M83.64,101.15l7-22.71,13.75,4.61L92.43,104.54Z" fill="#fff"/><path d="M99.13,127.33h14.35c.53,3.31,2,5.14,6.44,5.14,3.83,0,5.57-1.48,5.57-3.74s-2.17-3.22-8.44-4.09c-12.18-1.57-17.31-5.14-17.31-14.62,0-10.09,9-15,19.49-15,11.22,0,19,3.82,20.09,14.7H125.23c-.61-3.05-2.26-4.52-5.83-4.52-3.39,0-5.13,1.47-5.13,3.56s2.09,3,7.65,3.74c12.62,1.57,18.71,4.88,18.71,14.62,0,10.79-8,15.66-20.62,15.66C107.05,142.82,99.48,137.43,99.13,127.33Z" fill="#fff"/><path d="M25,166.57H52.76c14.7,0,21,6.61,21,16.27v.35c0,7-3.57,11.57-10.53,13.4,7.66,1.3,12.44,5.91,12.44,14.53v.34c0,11.14-7.22,17.32-22.62,17.32H25Zm24.19,24.71c5.57,0,7.66-1.92,7.66-6.35v-.35c0-4.26-2.26-6.18-7.66-6.18H42.4v12.88Zm.61,25.58c5.66,0,8.27-2.61,8.27-7.22v-.35c0-4.7-2.53-7.14-8.79-7.14H42.4v14.71Z" fill="#fff"/><path d="M79.2,206.59v-.69c0-14.62,10.88-23.84,24.62-23.84,12.45,0,23.15,7.13,23.15,23.49v4.09H95c.44,6,3.92,9.48,9.48,9.48,5.14,0,7.31-2.35,7.92-5.39H127c-1.39,10.26-9.31,16.09-23.06,16.09C89.64,229.82,79.2,221.47,79.2,206.59Zm32.63-5.74c-.26-5.48-3-8.53-8-8.53-4.69,0-7.91,3.05-8.7,8.53Z" fill="#fff"/><path d="M134.45,214.16V193.89H129V183.27h5.48v-9.48H150v9.48h9v10.62h-9v18.79c0,3.31,1.65,4.79,4.61,4.79a11.72,11.72,0,0,0,4.44-.79v11.84a32.79,32.79,0,0,1-8.61,1.3C140.19,229.82,134.45,224.86,134.45,214.16Z" fill="#fff"/><path d="M167,214.16V193.89H161.5V183.27H167v-9.48h15.58v9.48h9v10.62h-9v18.79c0,3.31,1.65,4.79,4.61,4.79a11.75,11.75,0,0,0,4.44-.79v11.84a32.8,32.8,0,0,1-8.62,1.3C172.73,229.82,167,224.86,167,214.16Z" fill="#fff"/><path d="M195,206.59v-.69c0-14.62,10.87-23.84,24.62-23.84,12.44,0,23.14,7.13,23.14,23.49v4.09h-32c.43,6,3.91,9.48,9.48,9.48,5.13,0,7.31-2.35,7.92-5.39h14.61c-1.39,10.26-9.31,16.09-23,16.09C205.44,229.82,195,221.47,195,206.59Zm32.62-5.74c-.26-5.48-3-8.53-8-8.53-4.7,0-7.92,3.05-8.7,8.53Z" fill="#fff"/><path d="M248.15,183.27h15.58v9c2.87-6.78,7.65-9.74,14.7-9.65v14.52c-9.48-.26-14.7,2.7-14.7,10v21.58H248.15Z" fill="#fff"/><path d="M19.78,270.27H36.05l6.62,27.24,7.65-27.24H62.85l6.79,27.24L77,270.27H91.82L77.38,315.78H62.5l-6.78-25.41-7,25.41H33.53Z" fill="#fff"/><path d="M95.47,257.92c0-4.61,3.66-8.09,8.53-8.09s8.61,3.48,8.61,8.09-3.74,8-8.61,8S95.47,262.53,95.47,257.92Zm.78,12.35h15.58v45.51H96.25Z" fill="#fff"/><path d="M122.27,301.16V280.89h-5.48V270.27h5.48v-9.48h15.57v9.48h9v10.62h-9v18.79c0,3.31,1.66,4.79,4.61,4.79a11.72,11.72,0,0,0,4.44-.79v11.84a32.79,32.79,0,0,1-8.61,1.3C128,316.82,122.27,311.86,122.27,301.16Z" fill="#fff"/><path d="M152.72,250.26h15.57v27.32c2.44-4.7,7.4-8.52,15-8.52,8.78,0,14.87,5.48,14.87,17.14v29.58H182.56V289.33c0-5.14-2-7.66-6.52-7.66s-7.75,2.79-7.75,8.62v25.49H152.72Z" fill="#fff"/><path d="M25,340.57H52.76c14.7,0,21,6.61,21,16.27v.35c0,7-3.57,11.57-10.53,13.4,7.66,1.3,12.44,5.91,12.44,14.53v.34c0,11.14-7.22,17.32-22.62,17.32H25Zm24.19,24.71c5.57,0,7.66-1.92,7.66-6.35v-.35c0-4.26-2.26-6.18-7.66-6.18H42.4v12.88Zm.61,25.58c5.66,0,8.27-2.61,8.27-7.22v-.35c0-4.7-2.53-7.14-8.79-7.14H42.4v14.71Z" fill="#fff"/><path d="M81.81,337.26H97.3v65.52H81.81Z" fill="#fff"/><path d="M103.21,380.59v-.69c0-14.62,10.88-23.84,25-23.84s24.8,9,24.8,23.4v.7c0,14.79-10.87,23.66-24.88,23.66S103.21,395.29,103.21,380.59Zm33.94-.26v-.7c0-7.65-3.05-11.92-9-11.92s-9,4.09-9,11.75v.7c0,7.83,3,12.09,9,12.09C134,392.25,137.15,387.9,137.15,380.33Z" fill="#fff"/><path d="M156,380.59v-.69c0-15.14,10.88-23.84,24.28-23.84,11.13,0,21.4,4.87,22.27,18.7H188c-.69-4.26-2.78-6.61-7.3-6.61-5.49,0-8.71,3.91-8.71,11.57v.7c0,7.91,3.05,12,9,12,4.35,0,7.39-2.61,7.91-7.57h14c-.43,11.49-8.18,19-22.88,19C166.38,403.82,156,395.9,156,380.59Z" fill="#fff"/><path d="M207.87,337.26h15.58v38l12.27-18H251.9L237,377.72l16.1,25.06h-17.4l-12.27-19.93v19.93H207.87Z" fill="#fff"/><path d="M256.16,395a8.68,8.68,0,0,1,8.87-8.79,8.79,8.79,0,1,1,0,17.57A8.67,8.67,0,0,1,256.16,395Z" fill="#fff"/></g></g></svg>