<svg xmlns="http://www.w3.org/2000/svg" viewBox="0 0 119.66 31.81"><title>try_ddo</title><g id="Layer_2" data-name="Layer 2"><g id="Rectangle_1" data-name="Rectangle 1" style="isolation:isolate"><g id="Rectangle_1-2" data-name="Rectangle 1"><rect width="119.66" height="31.81" fill="none"/></g></g><g id="Try_Digital_Drop-Off" data-name="Try Digital Drop-Off"><path d="M8.93,12.87H6.65V11.38h6.48v1.49H10.86v7H8.93Z" transform="translate(0)" fill="#262626"/><path d="M13.59,13.65h1.72v1.18a2,2,0,0,1,2-1.28v1.6c-1.26,0-2,.4-2,1.58v3.1H13.59Z" transform="translate(0)" fill="#262626"/><path d="M20.19,19.2l-2.45-5.55h1.84l1.5,3.71,1.38-3.71H24.1l-3.34,8.28H19.11Z" transform="translate(0)" fill="#262626"/><path d="M27.44,11.38H30.2c3,0,4.43,1.61,4.43,4.13v.1c0,2.53-1.47,4.22-4.44,4.22H27.44Zm2.69,7c1.7,0,2.51-1,2.51-2.71v-.09c0-1.74-.75-2.67-2.53-2.67h-.76v5.47Z" transform="translate(0)" fill="#262626"/><path d="M35.6,11.88a1,1,0,1,1,1,.93A.94.94,0,0,1,35.6,11.88Zm.13,1.77h1.7v6.18h-1.7Z" transform="translate(0)" fill="#262626"/><path d="M38.49,20h1.7c.11.54.5.89,1.37.89a1.37,1.37,0,0,0,1.56-1.51v-.93a2.32,2.32,0,0,1-2,1.14,2.7,2.7,0,0,1-2.69-2.95v-.08a2.79,2.79,0,0,1,2.72-3,2.08,2.08,0,0,1,2,1.06v-.92h1.7v5.69c0,1.83-1.23,2.76-3.26,2.76S38.65,21.23,38.49,20Zm4.68-3.38V16.5c0-1.06-.56-1.69-1.49-1.69s-1.49.68-1.49,1.7v.09a1.48,1.48,0,0,0,1.45,1.67A1.52,1.52,0,0,0,43.17,16.58Z" transform="translate(0)" fill="#262626"/><path d="M46.07,11.88a1,1,0,1,1,1,.93A.94.94,0,0,1,46.07,11.88Zm.13,1.77h1.7v6.18H46.2Z" transform="translate(0)" fill="#262626"/><path d="M49.55,18V14.87h-.79V13.65h.79V12.31h1.7v1.34h1.3v1.22h-1.3v3c0,.5.25.73.69.73a1.67,1.67,0,0,0,.65-.11v1.32a3.23,3.23,0,0,1-1,.16A1.76,1.76,0,0,1,49.55,18Z" transform="translate(0)" fill="#262626"/><path d="M53.2,18.11c0-1.44,1.32-2,3.21-2h.7v-.25c0-.73-.23-1.13-1-1.13a.93.93,0,0,0-1.05.87H53.43c.11-1.46,1.27-2.11,2.78-2.11s2.59.61,2.59,2.29v4H57.13v-.75a2.09,2.09,0,0,1-1.87.88A1.81,1.81,0,0,1,53.2,18.11Zm3.91-.45v-.52h-.66c-1,0-1.58.22-1.58.88,0,.45.28.74.9.74S57.11,18.35,57.11,17.66Z" transform="translate(0)" fill="#262626"/><path d="M60.13,10.85h1.7v9h-1.7Z" transform="translate(0)" fill="#262626"/><path d="M65.81,11.38h2.76c3,0,4.43,1.61,4.43,4.13v.1c0,2.53-1.48,4.22-4.44,4.22H65.81Zm2.69,7c1.7,0,2.5-1,2.5-2.71v-.09c0-1.74-.74-2.67-2.53-2.67h-.75v5.47Z" transform="translate(0)" fill="#262626"/><path d="M74.05,13.65h1.71v1.18a2,2,0,0,1,2-1.28v1.6c-1.26,0-2,.4-2,1.58v3.1H74.05Z" transform="translate(0)" fill="#262626"/><path d="M78.21,16.8v-.09a3.1,3.1,0,0,1,3.26-3.2,3.06,3.06,0,0,1,3.25,3.16v.1a3.26,3.26,0,0,1-6.51,0Zm4.77,0V16.7c0-1.19-.55-1.89-1.51-1.89S80,15.49,80,16.67v.1c0,1.18.54,1.89,1.51,1.89S83,18,83,16.78Z" transform="translate(0)" fill="#262626"/><path d="M85.69,13.65H87.4v1a2.29,2.29,0,0,1,2-1.11c1.51,0,2.69,1.12,2.69,3.16v.1c0,2-1.15,3.19-2.69,3.19a2.16,2.16,0,0,1-2-1.08v3.05H85.69Zm4.64,3.13v-.1c0-1.25-.62-1.86-1.48-1.86s-1.51.62-1.51,1.86v.1c0,1.24.59,1.84,1.52,1.84S90.33,18,90.33,16.78Z" transform="translate(0)" fill="#262626"/><path d="M92.91,15.82h3v1.36h-3Z" transform="translate(0)" fill="#262626"/><path d="M96.87,15.66v-.1a4.18,4.18,0,0,1,4.34-4.3,4.11,4.11,0,0,1,4.35,4.25v.1A4.15,4.15,0,0,1,101.2,20,4.11,4.11,0,0,1,96.87,15.66Zm6.69,0v-.09c0-1.64-.87-2.77-2.35-2.77s-2.35,1.08-2.35,2.78v.09c0,1.73,1,2.79,2.37,2.79S103.56,17.33,103.56,15.63Z" transform="translate(0)" fill="#262626"/><path d="M107,14.87h-.81V13.65H107V13a2,2,0,0,1,2.2-2.16A2.8,2.8,0,0,1,110,11v1.27a2.46,2.46,0,0,0-.61-.09c-.53,0-.76.33-.76.82v.67h2v-.71a2,2,0,0,1,2.21-2.16,2.6,2.6,0,0,1,.88.12v1.28a2.06,2.06,0,0,0-.62-.1.72.72,0,0,0-.77.81v.76h1.35v1.22h-1.35v5h-1.7v-5h-2v5H107Z" transform="translate(0)" fill="#262626"/></g></g></svg>