<svg xmlns="http://www.w3.org/2000/svg" viewBox="0 0 160 600"><title>Asset 5</title><g id="Layer_2" data-name="Layer 2"><g id="Rect"><rect width="160" height="600" fill="none"/></g><g id="Still_open._Still_here_to_help." data-name="Still open. Still here to help."><path d="M14.86,116.74h7.26c.18,1.9,1,3.47,4.2,3.47,2.2,0,3.43-1.08,3.43-2.65s-1-2.08-4.21-2.57c-7.52-.89-10-3.12-10-8.49,0-4.8,4-8.3,10.31-8.3s10,2.68,10.5,8.3H29.23c-.26-1.89-1.34-2.86-3.43-2.86s-3.09.93-3.09,2.27c0,1.49.82,2.16,4.13,2.6,6.74.75,10.21,2.5,10.21,8.27,0,4.88-3.88,8.86-10.73,8.86C18.88,125.64,15.08,122.51,14.86,116.74Z" fill="#fff"/><path d="M40.39,118.94v-8.68H38.05v-4.54h2.34v-4.06h6.67v4.06h3.83v4.54H47.06v8a1.77,1.77,0,0,0,2,2,5.11,5.11,0,0,0,1.9-.33v5.06a13.7,13.7,0,0,1-3.68.56C42.85,125.64,40.39,123.52,40.39,118.94Z" fill="#fff"/><path d="M53.28,100.44A3.48,3.48,0,0,1,56.92,97a3.45,3.45,0,1,1,0,6.89A3.44,3.44,0,0,1,53.28,100.44Zm.33,5.28h6.66v19.47H53.61Z" fill="#fff"/><path d="M64,97.16h6.63v28H64Z" fill="#fff"/><path d="M74.42,97.16h6.63v28H74.42Z" fill="#fff"/><path d="M14.93,159.11v-.3c0-6.25,4.65-10.2,10.69-10.2s10.61,3.84,10.61,10v.29c0,6.33-4.66,10.13-10.65,10.13S14.93,165.4,14.93,159.11ZM29.45,159v-.3c0-3.28-1.3-5.1-3.83-5.1s-3.88,1.75-3.88,5v.29c0,3.35,1.31,5.18,3.88,5.18S29.45,162.24,29.45,159Z" fill="#fff"/><path d="M38.57,149.13h6.66V152a6.87,6.87,0,0,1,6.07-3.43c4.55,0,8.23,3.43,8.23,10.09v.3c0,6.7-3.68,10.05-8.26,10.05a6.45,6.45,0,0,1-6-3.31v9.38H38.57ZM52.76,159v-.3c0-3.42-1.49-5.06-3.84-5.06s-3.87,1.75-3.87,5v.3c0,3.31,1.45,5,3.87,5S52.76,162.2,52.76,159Z" fill="#fff"/><path d="M60.91,159.11v-.3c0-6.25,4.65-10.2,10.53-10.2,5.33,0,9.91,3,9.91,10v1.75H67.65c.18,2.57,1.67,4.06,4,4.06,2.2,0,3.13-1,3.39-2.31h6.26c-.6,4.4-4,6.89-9.87,6.89C65.38,169.05,60.91,165.48,60.91,159.11Zm14-2.46c-.11-2.34-1.27-3.65-3.43-3.65-2,0-3.38,1.31-3.72,3.65Z" fill="#fff"/><path d="M83.65,149.13h6.67v3.13a6.87,6.87,0,0,1,6.4-3.65c3.76,0,6.37,2.35,6.37,7.34V168.6H96.42V157.29c0-2.2-.85-3.28-2.79-3.28s-3.31,1.19-3.31,3.69v10.9H83.65Z" fill="#fff"/><path d="M106.07,165.25a3.71,3.71,0,0,1,3.79-3.76,3.76,3.76,0,1,1,0,7.52A3.71,3.71,0,0,1,106.07,165.25Z" fill="#fff"/><path d="M14.86,203.56h7.26c.18,1.9,1,3.46,4.2,3.46,2.2,0,3.43-1.08,3.43-2.64s-1-2.08-4.21-2.57c-7.52-.89-10-3.13-10-8.49,0-4.8,4-8.3,10.31-8.3s10,2.68,10.5,8.3H29.23c-.26-1.9-1.34-2.86-3.43-2.86s-3.09.93-3.09,2.27c0,1.49.82,2.16,4.13,2.6,6.74.75,10.21,2.5,10.21,8.27,0,4.88-3.88,8.86-10.73,8.86C18.88,212.46,15.08,209.33,14.86,203.56Z" fill="#fff"/><path d="M40.39,205.76v-8.68H38.05v-4.54h2.34v-4.06h6.67v4.06h3.83v4.54H47.06v8a1.77,1.77,0,0,0,2,2,5.11,5.11,0,0,0,1.9-.33v5.06a13.7,13.7,0,0,1-3.68.56C42.85,212.46,40.39,210.34,40.39,205.76Z" fill="#fff"/><path d="M53.28,187.25a3.47,3.47,0,0,1,3.64-3.46,3.45,3.45,0,1,1,0,6.89A3.44,3.44,0,0,1,53.28,187.25Zm.33,5.29h6.66V212H53.61Z" fill="#fff"/><path d="M64,184h6.63v28H64Z" fill="#fff"/><path d="M74.42,184h6.63v28H74.42Z" fill="#fff"/><path d="M16,227.39h6.67v11.69a6.87,6.87,0,0,1,6.4-3.65c3.76,0,6.37,2.35,6.37,7.33v12.66H28.74V244.1c0-2.19-.85-3.27-2.79-3.27s-3.31,1.19-3.31,3.68v10.91H16Z" fill="#fff"/><path d="M37.6,245.93v-.3c0-6.25,4.66-10.2,10.54-10.2,5.32,0,9.9,3,9.9,10v1.75H44.34c.19,2.57,1.68,4.06,4.06,4.06,2.2,0,3.13-1,3.39-2.31H58c-.59,4.4-4,6.89-9.86,6.89C42.07,255.87,37.6,252.3,37.6,245.93Zm14-2.46c-.11-2.34-1.26-3.65-3.42-3.65s-3.39,1.31-3.72,3.65Z" fill="#fff"/><path d="M60.35,236H67v3.87a6.14,6.14,0,0,1,6.3-4.13v6.22c-4.06-.11-6.3,1.15-6.3,4.28v9.23H60.35Z" fill="#fff"/><path d="M74.5,245.93v-.3c0-6.25,4.65-10.2,10.53-10.2,5.33,0,9.91,3,9.91,10v1.75H81.23c.19,2.57,1.68,4.06,4.06,4.06,2.2,0,3.13-1,3.39-2.31h6.26c-.6,4.4-4,6.89-9.87,6.89C79,255.87,74.5,252.3,74.5,245.93Zm14-2.46c-.11-2.34-1.27-3.65-3.43-3.65s-3.39,1.31-3.72,3.65Z" fill="#fff"/><path d="M104.91,249.17v-8.68h-2.34V236h2.34v-4.06h6.67V236h3.83v4.54h-3.83v8c0,1.41.7,2,2,2a5.19,5.19,0,0,0,1.9-.33v5.06a14.13,14.13,0,0,1-3.69.56C107.37,255.87,104.91,253.75,104.91,249.17Z" fill="#fff"/><path d="M116.9,245.93v-.3c0-6.25,4.65-10.2,10.68-10.2s10.61,3.83,10.61,10v.3c0,6.33-4.65,10.13-10.64,10.13S116.9,252.22,116.9,245.93Zm14.52-.11v-.3c0-3.28-1.3-5.1-3.84-5.1s-3.87,1.75-3.87,5v.3c0,3.35,1.3,5.18,3.87,5.18S131.42,249.06,131.42,245.82Z" fill="#fff"/><path d="M16,270.8h6.67v11.69a6.87,6.87,0,0,1,6.4-3.65c3.76,0,6.37,2.34,6.37,7.33v12.66H28.74V287.51c0-2.19-.85-3.27-2.79-3.27s-3.31,1.19-3.31,3.68v10.91H16Z" fill="#fff"/><path d="M37.6,289.34V289c0-6.25,4.66-10.2,10.54-10.2,5.32,0,9.9,3.05,9.9,10.05v1.75H44.34c.19,2.57,1.68,4.06,4.06,4.06,2.2,0,3.13-1,3.39-2.31H58c-.59,4.39-4,6.89-9.86,6.89C42.07,299.28,37.6,295.7,37.6,289.34Zm14-2.46c-.11-2.34-1.26-3.65-3.42-3.65s-3.39,1.31-3.72,3.65Z" fill="#fff"/><path d="M60.54,270.8h6.62v28H60.54Z" fill="#fff"/><path d="M70.73,279.36H77.4v2.9a6.88,6.88,0,0,1,6.07-3.42c4.54,0,8.23,3.42,8.23,10.09v.3c0,6.7-3.69,10-8.27,10a6.43,6.43,0,0,1-6-3.31v9.38H70.73Zm14.19,9.87v-.3c0-3.43-1.49-5.06-3.84-5.06s-3.87,1.74-3.87,5v.3c0,3.31,1.46,5,3.87,5S84.92,292.43,84.92,289.23Z" fill="#fff"/><path d="M93.37,295.48a3.72,3.72,0,0,1,3.8-3.76,3.76,3.76,0,1,1,0,7.52A3.71,3.71,0,0,1,93.37,295.48Z" fill="#fff"/></g></g></svg>