<svg xmlns="http://www.w3.org/2000/svg" viewBox="0 0 160 600"><title>H03</title><g id="Layer_2" data-name="Layer 2"><g id="Claim_EITC_for_free_with_H_R_Block_Free_Online." data-name="Claim EITC for free with H&amp;R Block Free Online."><path d="M18.64,180.58v-.16a7,7,0,0,1,7.3-7.31c3.72,0,6.3,1.72,6.64,5.51H28.36a2.23,2.23,0,0,0-2.4-2.26c-1.84,0-3,1.44-3,4v.16c0,2.58,1.1,4,3.06,4a2.46,2.46,0,0,0,2.66-2.34h4.08c-.28,3.7-3,5.62-6.66,5.62C21.1,187.88,18.64,185,18.64,180.58Z" fill="#fff"/><path d="M34.34,172.57H37.9v15.07H34.34Z" fill="#fff"/><path d="M39.52,184.74c0-2.46,2.08-3.42,5.56-3.42h1v-.24c0-1-.24-1.66-1.38-1.66a1.28,1.28,0,0,0-1.42,1.24H39.92c.16-2.52,2.14-3.76,5-3.76s4.72,1.18,4.72,4v6.78H46.16v-1.22a3.44,3.44,0,0,1-3.1,1.46C41.18,187.88,39.52,187,39.52,184.74Zm6.56-.76v-.64h-.94c-1.44,0-2.08.28-2.08,1.14,0,.6.4,1,1.24,1A1.58,1.58,0,0,0,46.08,184Z" fill="#fff"/><path d="M51.6,174.33a2,2,0,1,1,2,1.85A1.87,1.87,0,0,1,51.6,174.33Zm.18,2.85h3.58v10.46H51.78Z" fill="#fff"/><path d="M57.58,177.18h3.58v1.6a3.66,3.66,0,0,1,3.28-1.88,2.85,2.85,0,0,1,2.84,1.74,4.15,4.15,0,0,1,3.46-1.74c2,0,3.42,1.28,3.42,3.9v6.84H70.58V181.4c0-1.06-.52-1.58-1.34-1.58a1.55,1.55,0,0,0-1.6,1.76v6.06H64.1V181.4c0-1.06-.52-1.58-1.34-1.58a1.55,1.55,0,0,0-1.6,1.76v6.06H57.58Z" fill="#fff"/><path d="M80.46,173.33h9.88v3.17h-5.8V179h4.62v2.92H84.54v2.6h6.12v3.16H80.46Z" fill="#fff"/><path d="M92.78,173.33h4.14v14.31H92.78Z" fill="#fff"/><path d="M102.48,176.5h-3.7v-3.17H110.3v3.17h-3.7v11.14h-4.12Z" fill="#fff"/><path d="M110.86,180.58v-.16a7,7,0,0,1,7.3-7.31c3.72,0,6.3,1.72,6.64,5.51h-4.22a2.23,2.23,0,0,0-2.4-2.26c-1.84,0-3,1.44-3,4v.16c0,2.58,1.1,4,3.06,4a2.46,2.46,0,0,0,2.66-2.34H125c-.28,3.7-3,5.62-6.66,5.62C113.32,187.88,110.86,185,110.86,180.58Z" fill="#fff"/><path d="M19.6,204.62H18.28v-2.44H19.6v-.92c0-2.61,1.62-3.85,4.1-3.85a6.38,6.38,0,0,1,1.64.22v2.62a3.32,3.32,0,0,0-1-.13,1.05,1.05,0,0,0-1.2,1.14v.92h2.12v2.44H23.16v8H19.6Z" fill="#fff"/><path d="M25.86,207.54v-.16c0-3.36,2.5-5.48,5.74-5.48s5.7,2.06,5.7,5.38v.16c0,3.4-2.5,5.44-5.72,5.44S25.86,210.92,25.86,207.54Zm7.8-.06v-.16c0-1.76-.7-2.74-2.06-2.74s-2.08.94-2.08,2.7v.16c0,1.8.7,2.78,2.08,2.78S33.66,209.22,33.66,207.48Z" fill="#fff"/><path d="M38.86,202.18h3.58v2.08A3.3,3.3,0,0,1,45.82,202v3.34c-2.18-.06-3.38.62-3.38,2.3v5H38.86Z" fill="#fff"/><path d="M51.9,204.62H50.58v-2.44H51.9v-.92c0-2.61,1.62-3.85,4.1-3.85a6.38,6.38,0,0,1,1.64.22v2.62a3.32,3.32,0,0,0-1-.13,1.05,1.05,0,0,0-1.2,1.14v.92h2.12v2.44H55.46v8H51.9Z" fill="#fff"/><path d="M59.08,202.18h3.58v2.08A3.3,3.3,0,0,1,66,202v3.34c-2.18-.06-3.38.62-3.38,2.3v5H59.08Z" fill="#fff"/><path d="M67,207.54v-.16a5.35,5.35,0,0,1,5.66-5.48c2.86,0,5.32,1.64,5.32,5.4v.94H70.6a2.09,2.09,0,0,0,2.18,2.18c1.18,0,1.68-.54,1.82-1.24H78c-.32,2.36-2.14,3.7-5.3,3.7S67,211,67,207.54Zm7.5-1.32c-.06-1.26-.68-2-1.84-2a2,2,0,0,0-2,2Z" fill="#fff"/><path d="M78.94,207.54v-.16a5.35,5.35,0,0,1,5.66-5.48c2.86,0,5.32,1.64,5.32,5.4v.94H82.56a2.09,2.09,0,0,0,2.18,2.18c1.18,0,1.68-.54,1.82-1.24h3.36c-.32,2.36-2.14,3.7-5.3,3.7S78.94,211,78.94,207.54Zm7.5-1.32c-.06-1.26-.68-2-1.84-2a2,2,0,0,0-2,2Z" fill="#fff"/><path d="M94.52,202.18h3.74l1.52,6.26,1.76-6.26h2.88l1.56,6.26,1.7-6.26h3.4l-3.32,10.46h-3.42l-1.56-5.84-1.62,5.84H97.68Z" fill="#fff"/><path d="M112.22,199.33a2,2,0,1,1,2,1.85A1.87,1.87,0,0,1,112.22,199.33Zm.18,2.85H116v10.46H112.4Z" fill="#fff"/><path d="M118.68,209.28v-4.66h-1.26v-2.44h1.26V200h3.58v2.18h2.06v2.44h-2.06v4.32a1,1,0,0,0,1.06,1.1,2.73,2.73,0,0,0,1-.18v2.72a7.51,7.51,0,0,1-2,.3C120,212.88,118.68,211.74,118.68,209.28Z" fill="#fff"/><path d="M126,197.57h3.58v6.29a3.69,3.69,0,0,1,3.44-2c2,0,3.42,1.26,3.42,3.94v6.8h-3.58v-6.08c0-1.18-.46-1.76-1.5-1.76s-1.78.64-1.78,2v5.86H126Z" fill="#fff"/><path d="M19.38,223.33H23.5v5.47h4.7v-5.47h4.1v14.31H28.2V232H23.5v5.64H19.38Z" fill="#fff"/><path d="M46.32,234.72l2.38,2.92H44l-.84-1a5.69,5.69,0,0,1-3.86,1.28c-3,0-5-1.6-5-4.32,0-1.84,1.12-3.2,3.14-4.16a4.56,4.56,0,0,1-.88-2.5c0-2.44,2.08-3.75,4.6-3.75,2.28,0,4.34,1.14,4.34,3.35,0,1.56-.92,2.7-2.86,3.54l1.8,2.2,1-2h3.12Zm-5-.42-2.26-2.72a1.69,1.69,0,0,0-1,1.54A1.66,1.66,0,0,0,40,234.9,1.88,1.88,0,0,0,41.36,234.3Zm-.44-5.76c1-.46,1.42-1,1.42-1.74a1,1,0,0,0-1.06-1.1,1.14,1.14,0,0,0-1.18,1.24A2.62,2.62,0,0,0,40.92,228.54Z" fill="#fff"/><path d="M50.3,223.33h5.6c3.74,0,5.82,1.52,5.82,4.55V228a3.74,3.74,0,0,1-2.58,3.76l3.42,5.92H58.24l-2.9-5.12h-1v5.12H50.3Zm5.4,6.53c1.38,0,2.06-.58,2.06-1.74V228c0-1.16-.72-1.62-2-1.62H54.38v3.44Z" fill="#fff"/><path d="M68.18,223.33h6.38c3.38,0,4.82,1.52,4.82,3.75v.08A3,3,0,0,1,77,230.24a3.11,3.11,0,0,1,2.86,3.34v.08c0,2.56-1.66,4-5.2,4H68.18ZM73.74,229c1.28,0,1.76-.44,1.76-1.46v-.08c0-1-.52-1.42-1.76-1.42H72.18v3Zm.14,5.88c1.3,0,1.9-.6,1.9-1.66v-.08c0-1.08-.58-1.64-2-1.64H72.18v3.38Z" fill="#fff"/><path d="M81.54,222.57H85.1v15.07H81.54Z" fill="#fff"/><path d="M86.76,232.54v-.16c0-3.36,2.5-5.48,5.74-5.48s5.7,2.06,5.7,5.38v.16c0,3.4-2.5,5.44-5.72,5.44S86.76,235.92,86.76,232.54Zm7.8-.06v-.16c0-1.76-.7-2.74-2.06-2.74s-2.08.94-2.08,2.7v.16c0,1.8.7,2.78,2.08,2.78S94.56,234.22,94.56,232.48Z" fill="#fff"/><path d="M99.2,232.54v-.16a5.26,5.26,0,0,1,5.58-5.48c2.56,0,4.92,1.12,5.12,4.3h-3.36a1.55,1.55,0,0,0-1.68-1.52c-1.26,0-2,.9-2,2.66v.16c0,1.82.7,2.76,2.06,2.76a1.74,1.74,0,0,0,1.82-1.74H110c-.1,2.64-1.88,4.36-5.26,4.36C101.58,237.88,99.2,236.06,99.2,232.54Z" fill="#fff"/><path d="M111.42,222.57H115v8.75l2.82-4.14h3.72l-3.42,4.7,3.7,5.76h-4L115,233.06v4.58h-3.58Z" fill="#fff"/><path d="M19.38,248.33H29v3.19H23.5v3h4.42v3H23.5v5.06H19.38Z" fill="#fff"/><path d="M30.3,252.18h3.58v2.08A3.3,3.3,0,0,1,37.26,252v3.34c-2.18-.06-3.38.62-3.38,2.3v5H30.3Z" fill="#fff"/><path d="M38.2,257.54v-.16a5.35,5.35,0,0,1,5.66-5.48c2.86,0,5.32,1.64,5.32,5.4v.94H41.82A2.09,2.09,0,0,0,44,260.42c1.18,0,1.68-.54,1.82-1.24h3.36c-.32,2.36-2.14,3.7-5.3,3.7S38.2,261,38.2,257.54Zm7.5-1.32c-.06-1.26-.68-2-1.84-2a2,2,0,0,0-2,2Z" fill="#fff"/><path d="M50.16,257.54v-.16a5.35,5.35,0,0,1,5.66-5.48c2.86,0,5.32,1.64,5.32,5.4v.94H53.78A2.09,2.09,0,0,0,56,260.42c1.18,0,1.68-.54,1.82-1.24h3.36c-.32,2.36-2.14,3.7-5.3,3.7S50.16,261,50.16,257.54Zm7.5-1.32c-.06-1.26-.68-2-1.84-2a2,2,0,0,0-2,2Z" fill="#fff"/><path d="M66.18,255.58v-.16c0-4.36,3.28-7.29,7.56-7.29s7.58,2.75,7.58,7.19v.16c0,4.4-3,7.4-7.64,7.4S66.18,259.88,66.18,255.58Zm10.86,0v-.16c0-2.54-1.28-4-3.3-4s-3.28,1.46-3.28,4.06v.16c0,2.6,1.32,4.1,3.3,4.1S77,258.1,77,255.54Z" fill="#fff"/><path d="M83,252.18h3.58v1.68a3.69,3.69,0,0,1,3.44-2c2,0,3.42,1.26,3.42,3.94v6.8H89.86v-6.08c0-1.18-.46-1.76-1.5-1.76s-1.78.64-1.78,2v5.86H83Z" fill="#fff"/><path d="M95.58,247.57h3.56v15.07H95.58Z" fill="#fff"/><path d="M101.28,249.33a2,2,0,1,1,2,1.85A1.87,1.87,0,0,1,101.28,249.33Zm.18,2.85H105v10.46h-3.58Z" fill="#fff"/><path d="M107.26,252.18h3.58v1.68a3.69,3.69,0,0,1,3.44-2c2,0,3.42,1.26,3.42,3.94v6.8h-3.58v-6.08c0-1.18-.46-1.76-1.5-1.76s-1.78.64-1.78,2v5.86h-3.58Z" fill="#fff"/><path d="M119.18,257.54v-.16a5.35,5.35,0,0,1,5.66-5.48c2.86,0,5.32,1.64,5.32,5.4v.94H122.8a2.09,2.09,0,0,0,2.18,2.18c1.18,0,1.68-.54,1.82-1.24h3.36c-.32,2.36-2.14,3.7-5.3,3.7S119.18,261,119.18,257.54Zm7.5-1.32c-.06-1.26-.68-2-1.84-2a2,2,0,0,0-2,2Z" fill="#fff"/><path d="M131.46,260.84a2,2,0,0,1,2-2,2,2,0,1,1,0,4A2,2,0,0,1,131.46,260.84Z" fill="#fff"/></g><g id="Rect"><rect width="160" height="600" fill="none"/></g></g></svg>