<svg xmlns="http://www.w3.org/2000/svg" viewBox="0 0 300 600"><title>Asset 4</title><g id="Layer_2" data-name="Layer 2"><g id="Artboard_4" data-name="Artboard 4" style="isolation:isolate"><g id="rect"><rect width="300" height="600" fill="none"/></g><g id="Most_people_get_a_tax_refund._File_today_at_an_H_R_Block_near_y" data-name="Most people get a tax refund. File today at an H&amp;R Block near y"><path d="M26.84,92.65h11l5.65,15.71,5.65-15.71H60v29.48H51.54V103.78l-7.21,18.35H41.52l-7.13-18.35v18.35H26.84Z" fill="#fff"/><path d="M63,111.61v-.33C63,104.36,68.12,100,74.8,100s11.75,4.24,11.75,11.09v.33c0,7-5.16,11.21-11.79,11.21S63,118.58,63,111.61ZM79,111.49v-.33c0-3.63-1.44-5.65-4.24-5.65s-4.29,1.94-4.29,5.57v.33c0,3.71,1.44,5.73,4.29,5.73S79,115.08,79,111.49Z" fill="#fff"/><path d="M87.83,115.28h6.8c.25,1.57,1,2.43,3.05,2.43,1.82,0,2.64-.7,2.64-1.77s-1-1.52-4-1.94c-5.77-.74-8.2-2.43-8.2-6.92,0-4.78,4.24-7.09,9.23-7.09,5.32,0,9,1.81,9.53,7H100.2a2.42,2.42,0,0,0-2.77-2.14c-1.6,0-2.43.7-2.43,1.69s1,1.44,3.63,1.77c6,.75,8.86,2.31,8.86,6.93,0,5.11-3.79,7.42-9.77,7.42C91.58,122.62,88,120.06,87.83,115.28Z" fill="#fff"/><path d="M110.88,115.2v-9.61h-2.6v-5h2.6V96.07h7.38v4.49h4.24v5h-4.24v8.91c0,1.57.78,2.27,2.18,2.27a5.74,5.74,0,0,0,2.1-.37V122a15.3,15.3,0,0,1-4.08.62C113.6,122.62,110.88,120.27,110.88,115.2Z" fill="#fff"/><path d="M132.81,100.56h7.38v3.22a7.61,7.61,0,0,1,6.72-3.79c5,0,9.11,3.79,9.11,11.17v.33c0,7.42-4.08,11.13-9.15,11.13-3.26,0-5.61-1.52-6.68-3.67v10.39h-7.38Zm15.71,10.93v-.33c0-3.79-1.65-5.61-4.25-5.61s-4.28,1.94-4.28,5.57v.33c0,3.67,1.6,5.52,4.28,5.52S148.52,115,148.52,111.49Z" fill="#fff"/><path d="M157.55,111.61v-.33c0-6.92,5.16-11.29,11.67-11.29,5.9,0,11,3.38,11,11.13v1.94H165c.21,2.84,1.86,4.49,4.5,4.49,2.43,0,3.46-1.11,3.75-2.56h6.93c-.66,4.87-4.42,7.63-10.93,7.63C162.5,122.62,157.55,118.66,157.55,111.61ZM173,108.89c-.12-2.6-1.4-4-3.79-4-2.23,0-3.75,1.44-4.12,4Z" fill="#fff"/><path d="M181.59,111.61v-.33c0-6.92,5.15-11.29,11.83-11.29s11.75,4.24,11.75,11.09v.33c0,7-5.15,11.21-11.79,11.21S181.59,118.58,181.59,111.61Zm16.08-.12v-.33c0-3.63-1.44-5.65-4.25-5.65s-4.29,1.94-4.29,5.57v.33c0,3.71,1.45,5.73,4.29,5.73S197.67,115.08,197.67,111.49Z" fill="#fff"/><path d="M207.77,100.56h7.38v3.22a7.62,7.62,0,0,1,6.72-3.79c5,0,9.11,3.79,9.11,11.17v.33c0,7.42-4.08,11.13-9.15,11.13-3.26,0-5.61-1.52-6.68-3.67v10.39h-7.38Zm15.71,10.93v-.33c0-3.79-1.65-5.61-4.25-5.61s-4.28,1.94-4.28,5.57v.33c0,3.67,1.6,5.52,4.28,5.52S223.48,115,223.48,111.49Z" fill="#fff"/><path d="M233.87,91.08h7.34v31.05h-7.34Z" fill="#fff"/><path d="M244,111.61v-.33c0-6.92,5.15-11.29,11.66-11.29,5.9,0,11,3.38,11,11.13v1.94H251.48c.2,2.84,1.85,4.49,4.49,4.49,2.44,0,3.47-1.11,3.75-2.56h6.93c-.66,4.87-4.41,7.63-10.92,7.63C249,122.62,244,118.66,244,111.61Zm15.46-2.72c-.13-2.6-1.4-4-3.8-4-2.22,0-3.75,1.44-4.12,4Z" fill="#fff"/><path d="M25,174.83h7.34c.33,1.57,1.28,2.81,4,2.81,3.25,0,4.57-1.86,4.57-4.54v-3.3a7.56,7.56,0,0,1-6.68,4c-5,0-9.15-3.71-9.15-10.35v-.33c0-6.35,4.08-10.39,9.15-10.39,3.43,0,5.45,1.44,6.68,3.63v-3h7.38V173c0,6.43-4.24,9.81-12,9.81C29,182.83,25.57,179.74,25,174.83Zm16.08-11.46v-.29c0-3-1.53-4.86-4.25-4.86s-4.24,1.93-4.24,4.9v.33c0,3,1.56,4.87,4.2,4.87S41.07,166.42,41.07,163.37Z" fill="#fff"/><path d="M50.84,164.32V164c0-6.93,5.16-11.3,11.67-11.3,5.9,0,11,3.38,11,11.13v1.94H58.3c.21,2.85,1.86,4.5,4.5,4.5,2.43,0,3.46-1.12,3.75-2.56h6.93c-.66,4.86-4.42,7.63-10.93,7.63C55.79,175.33,50.84,171.37,50.84,164.32ZM66.3,161.6c-.12-2.6-1.4-4-3.79-4-2.23,0-3.75,1.44-4.12,4Z" fill="#fff"/><path d="M77,167.91V158.3H74.43v-5H77v-4.49H84.4v4.49h4.25v5H84.4v8.9a2,2,0,0,0,2.19,2.27,5.57,5.57,0,0,0,2.1-.37v5.61a15.37,15.37,0,0,1-4.08.62C79.75,175.33,77,173,77,167.91Z" fill="#fff"/><path d="M97.72,168.85c0-5.07,4.29-7,11.46-7h2.07v-.49c0-2.06-.5-3.42-2.85-3.42a2.65,2.65,0,0,0-2.93,2.55H98.55c.33-5.19,4.41-7.75,10.3-7.75s9.73,2.43,9.73,8.17v14h-7.17v-2.51c-1,1.56-2.93,3-6.39,3C101.14,175.33,97.72,173.43,97.72,168.85Zm13.53-1.56V166h-1.94c-3,0-4.29.57-4.29,2.35,0,1.23.82,2,2.56,2C109.68,170.34,111.25,169.14,111.25,167.29Z" fill="#fff"/><path d="M130.67,167.91V158.3h-2.6v-5h2.6v-4.49h7.38v4.49h4.24v5h-4.24v8.9c0,1.57.78,2.27,2.18,2.27a5.54,5.54,0,0,0,2.1-.37v5.61a15.3,15.3,0,0,1-4.08.62C133.39,175.33,130.67,173,130.67,167.91Z" fill="#fff"/><path d="M143.94,168.85c0-5.07,4.29-7,11.46-7h2.07v-.49c0-2.06-.5-3.42-2.85-3.42a2.65,2.65,0,0,0-2.93,2.55h-6.92c.33-5.19,4.41-7.75,10.31-7.75s9.72,2.43,9.72,8.17v14h-7.17v-2.51c-1,1.56-2.93,3-6.39,3C147.36,175.33,143.94,173.43,143.94,168.85Zm13.53-1.56V166h-1.94c-3,0-4.29.57-4.29,2.35,0,1.23.83,2,2.56,2C155.9,170.34,157.47,169.14,157.47,167.29Z" fill="#fff"/><path d="M173.83,163.87l-6.72-10.6h8.5L179,159l3.25-5.69h7.59l-6.8,10,7.46,11.54H182l-3.84-6.43-3.91,6.43h-7.55Z" fill="#fff"/><path d="M26.19,206h7.38v4.29a6.79,6.79,0,0,1,7-4.57v6.88c-4.49-.12-7,1.28-7,4.74v10.23H26.19Z" fill="#fff"/><path d="M41.85,217v-.33c0-6.92,5.16-11.29,11.67-11.29,5.9,0,11,3.38,11,11.13v1.94H49.32c.2,2.84,1.85,4.49,4.49,4.49,2.43,0,3.46-1.11,3.75-2.56h6.93c-.66,4.87-4.41,7.63-10.93,7.63C46.8,228,41.85,224.07,41.85,217Zm15.46-2.72c-.12-2.59-1.4-4-3.79-4-2.22,0-3.75,1.45-4.12,4Z" fill="#fff"/><path d="M68.16,211H65.44v-5h2.72v-1.89c0-5.36,3.34-7.92,8.45-7.92a13,13,0,0,1,3.38.46V202a6.56,6.56,0,0,0-2-.29,2.17,2.17,0,0,0-2.47,2.35V206h4.37v5H75.5v16.54H68.16Z" fill="#fff"/><path d="M82.18,220V206h7.38v12.87c0,2.43,1,3.63,3,3.63s3.67-1.32,3.67-4.09V206h7.38v21.57H96.28V224.2C95.12,226.42,93,228,89.43,228,85.27,228,82.18,225.48,82.18,220Z" fill="#fff"/><path d="M107.41,206h7.38v3.47a7.62,7.62,0,0,1,7.09-4c4.17,0,7.05,2.6,7.05,8.12v14h-7.38V215c0-2.43-.94-3.62-3.09-3.62s-3.67,1.32-3.67,4.08v12.08h-7.38Z" fill="#fff"/><path d="M131.45,217v-.33c0-7.34,4-11.25,9.15-11.25a7,7,0,0,1,6.64,3.63V196.49h7.38v31h-7.38V224a7.25,7.25,0,0,1-6.72,4C135.53,228,131.45,224.45,131.45,217Zm16-.12v-.33c0-3.63-1.53-5.57-4.25-5.57s-4.25,1.86-4.25,5.61v.33c0,3.63,1.61,5.48,4.17,5.48S147.45,220.53,147.45,216.86Z" fill="#fff"/><path d="M158.09,223.83a4.11,4.11,0,0,1,4.2-4.17,4.17,4.17,0,1,1,0,8.33A4.1,4.1,0,0,1,158.09,223.83Z" fill="#fff"/><path d="M178.25,198.06h19.91v6.55H186.74v6.27h9.11v6.23h-9.11v10.43h-8.49Z" fill="#fff"/><path d="M200.27,200.12a4.07,4.07,0,1,1,4,3.79A3.85,3.85,0,0,1,200.27,200.12Zm.37,5.85H208v21.57h-7.38Z" fill="#fff"/><path d="M212.18,196.49h7.34v31h-7.34Z" fill="#fff"/><path d="M222.33,217v-.33c0-6.92,5.15-11.29,11.66-11.29,5.9,0,11,3.38,11,11.13v1.94H229.79c.21,2.84,1.85,4.49,4.49,4.49,2.44,0,3.47-1.11,3.76-2.56H245c-.66,4.87-4.41,7.63-10.92,7.63C227.27,228,222.33,224.07,222.33,217Zm15.46-2.72c-.13-2.59-1.4-4-3.8-4-2.22,0-3.75,1.45-4.12,4Z" fill="#fff"/><path d="M27.17,273.32v-9.61H24.58v-5h2.59v-4.49h7.38v4.49H38.8v5H34.55v8.91a2,2,0,0,0,2.19,2.26,5.57,5.57,0,0,0,2.1-.37v5.61a15.37,15.37,0,0,1-4.08.62C29.9,280.74,27.17,278.39,27.17,273.32Z" fill="#fff"/><path d="M40.45,269.73v-.33c0-6.93,5.15-11.3,11.83-11.3S64,262.35,64,269.19v.33c0,7-5.15,11.22-11.79,11.22S40.45,276.7,40.45,269.73Zm16.08-.12v-.33c0-3.63-1.44-5.65-4.25-5.65S48,265.57,48,269.19v.33c0,3.71,1.44,5.73,4.28,5.73S56.53,273.19,56.53,269.61Z" fill="#fff"/><path d="M65.56,269.69v-.33c0-7.34,4-11.26,9.15-11.26a7,7,0,0,1,6.64,3.63V249.2h7.38v31H81.35v-3.5a7.27,7.27,0,0,1-6.72,4C69.64,280.74,65.56,277.15,65.56,269.69Zm16-.13v-.33c0-3.62-1.53-5.56-4.25-5.56s-4.24,1.85-4.24,5.61v.33c0,3.62,1.6,5.48,4.16,5.48S81.56,273.23,81.56,269.56Z" fill="#fff"/><path d="M91.25,274.27c0-5.08,4.29-7.06,11.46-7.06h2.06v-.49c0-2.06-.49-3.42-2.84-3.42A2.65,2.65,0,0,0,99,265.85H92.07c.33-5.19,4.42-7.75,10.31-7.75s9.73,2.44,9.73,8.17v14h-7.17v-2.51c-1,1.56-2.93,3-6.39,3C94.67,280.74,91.25,278.84,91.25,274.27Zm13.52-1.57v-1.32h-1.94c-3,0-4.28.58-4.28,2.35,0,1.24.82,2,2.55,2C103.21,275.75,104.77,274.55,104.77,272.7Z" fill="#fff"/><path d="M121.72,278.06l-8.62-19.38h8l4.45,11.5,4.13-11.5h7l-11.55,28.78h-7.05Z" fill="#fff"/><path d="M144.89,274.27c0-5.08,4.29-7.06,11.46-7.06h2.07v-.49c0-2.06-.5-3.42-2.85-3.42a2.65,2.65,0,0,0-2.93,2.55h-6.92c.33-5.19,4.41-7.75,10.3-7.75s9.73,2.44,9.73,8.17v14h-7.17v-2.51c-1,1.56-2.93,3-6.39,3C148.31,280.74,144.89,278.84,144.89,274.27Zm13.53-1.57v-1.32h-1.94c-3,0-4.29.58-4.29,2.35,0,1.24.82,2,2.56,2C156.85,275.75,158.42,274.55,158.42,272.7Z" fill="#fff"/><path d="M170.21,273.32v-9.61h-2.6v-5h2.6v-4.49h7.38v4.49h4.25v5h-4.25v8.91a2,2,0,0,0,2.18,2.26,5.59,5.59,0,0,0,2.11-.37v5.61a15.39,15.39,0,0,1-4.09.62C172.93,280.74,170.21,278.39,170.21,273.32Z" fill="#fff"/><path d="M190.91,274.27c0-5.08,4.28-7.06,11.46-7.06h2.06v-.49c0-2.06-.5-3.42-2.85-3.42a2.64,2.64,0,0,0-2.92,2.55h-6.93c.33-5.19,4.41-7.75,10.31-7.75s9.73,2.44,9.73,8.17v14h-7.18v-2.51c-1,1.56-2.92,3-6.39,3C194.33,280.74,190.91,278.84,190.91,274.27Zm13.52-1.57v-1.32h-1.94c-3,0-4.29.58-4.29,2.35,0,1.24.83,2,2.56,2C202.86,275.75,204.43,274.55,204.43,272.7Z" fill="#fff"/><path d="M215.36,258.68h7.38v3.46a7.61,7.61,0,0,1,7.09-4c4.16,0,7,2.6,7,8.13v14H229.5V267.71c0-2.43-.95-3.63-3.09-3.63s-3.67,1.32-3.67,4.08v12.08h-7.38Z" fill="#fff"/><path d="M26.84,303.47h8.5v11.25H45V303.47h8.45V333H45V321.32H35.34V333h-8.5Z" fill="#fff"/><path d="M81.76,326.93l4.91,6H77.06l-1.73-2.15a11.69,11.69,0,0,1-8,2.64c-6.27,0-10.35-3.3-10.35-8.9,0-3.8,2.31-6.6,6.47-8.58a9.36,9.36,0,0,1-1.81-5.15c0-5,4.28-7.71,9.48-7.71,4.7,0,9,2.35,9,6.88,0,3.22-1.9,5.57-5.9,7.3l3.71,4.54,2.14-4.21h6.44Zm-10.22-.87-4.66-5.6a3.49,3.49,0,0,0-2,3.17,3.43,3.43,0,0,0,3.75,3.67A3.84,3.84,0,0,0,71.54,326.06Zm-.91-11.87c2-.95,2.93-2.06,2.93-3.59a2.13,2.13,0,0,0-2.19-2.27,2.35,2.35,0,0,0-2.43,2.56A5.43,5.43,0,0,0,70.63,314.19Z" fill="#fff"/><path d="M89.35,303.47H100.9c7.71,0,12,3.13,12,9.36V313a7.7,7.7,0,0,1-5.32,7.75l7,12.21h-8.91l-6-10.56h-2V333H89.35Zm11.13,13.44c2.85,0,4.25-1.2,4.25-3.59v-.16c0-2.39-1.48-3.34-4.2-3.34H97.76v7.09Z" fill="#fff"/><path d="M125,303.47h13.15c7,0,9.94,3.13,9.94,7.71v.16a6.07,6.07,0,0,1-5,6.35c3.63.62,5.89,2.81,5.89,6.89v.16c0,5.28-3.42,8.21-10.72,8.21H125Zm11.46,11.71c2.64,0,3.63-.91,3.63-3V312c0-2-1.07-2.92-3.63-2.92h-3.22v6.1Zm.29,12.12c2.68,0,3.91-1.24,3.91-3.42v-.17c0-2.22-1.19-3.38-4.16-3.38h-3.26v7Z" fill="#fff"/><path d="M151.9,301.9h7.34V333H151.9Z" fill="#fff"/><path d="M162,322.43v-.33c0-6.92,5.16-11.29,11.84-11.29s11.75,4.24,11.75,11.09v.33c0,7-5.16,11.21-11.79,11.21S162,329.4,162,322.43Zm16.08-.12V322c0-3.63-1.44-5.65-4.24-5.65s-4.29,1.94-4.29,5.57v.33c0,3.71,1.44,5.73,4.29,5.73S178.12,325.9,178.12,322.31Z" fill="#fff"/><path d="M187.07,322.43v-.33c0-7.17,5.16-11.29,11.51-11.29,5.27,0,10.14,2.31,10.55,8.86H202.2c-.33-2-1.32-3.13-3.46-3.13-2.6,0-4.12,1.85-4.12,5.48v.33c0,3.75,1.44,5.69,4.24,5.69a3.6,3.6,0,0,0,3.76-3.58h6.63c-.2,5.44-3.87,9-10.84,9C192,333.44,187.07,329.69,187.07,322.43Z" fill="#fff"/><path d="M211.65,301.9H219v18l5.81-8.53h7.67l-7,9.68L233.08,333h-8.24L219,323.51V333h-7.38Z" fill="#fff"/><path d="M26.19,364.09h7.38v3.46a7.61,7.61,0,0,1,7.09-4c4.16,0,7.05,2.6,7.05,8.13v14H40.33V373.12c0-2.43-.95-3.63-3.1-3.63s-3.66,1.32-3.66,4.08v12.08H26.19Z" fill="#fff"/><path d="M50.14,375.14v-.33c0-6.93,5.15-11.3,11.67-11.3,5.89,0,11,3.38,11,11.14v1.93H57.6c.21,2.85,1.86,4.5,4.5,4.5,2.43,0,3.46-1.12,3.75-2.56h6.93c-.66,4.87-4.42,7.63-10.93,7.63C55.09,386.15,50.14,382.19,50.14,375.14Zm15.46-2.72c-.12-2.6-1.4-4-3.79-4-2.23,0-3.75,1.44-4.12,4Z" fill="#fff"/><path d="M74.3,379.68c0-5.08,4.29-7.05,11.46-7.05h2.07v-.5c0-2.06-.5-3.42-2.85-3.42a2.65,2.65,0,0,0-2.93,2.56H75.13c.33-5.2,4.41-7.76,10.3-7.76s9.73,2.44,9.73,8.17v14H88v-2.51c-1,1.57-2.93,3-6.39,3C77.72,386.15,74.3,384.25,74.3,379.68Zm13.53-1.57v-1.32H85.89c-3,0-4.29.58-4.29,2.35,0,1.24.82,2,2.56,2C86.26,381.16,87.83,380,87.83,378.11Z" fill="#fff"/><path d="M98.75,364.09h7.38v4.29a6.8,6.8,0,0,1,7-4.58v6.89c-4.49-.13-7,1.28-7,4.74v10.22H98.75Z" fill="#fff"/><path d="M130.05,383.47l-8.62-19.38h8l4.45,11.5,4.12-11.5h7.06l-11.55,28.78h-7Z" fill="#fff"/><path d="M144.64,375.14v-.33c0-6.93,5.16-11.3,11.84-11.3s11.75,4.25,11.75,11.09v.33c0,7-5.16,11.22-11.79,11.22S144.64,382.11,144.64,375.14Zm16.08-.12v-.33c0-3.63-1.44-5.65-4.24-5.65s-4.29,1.94-4.29,5.56v.33c0,3.72,1.44,5.74,4.29,5.74S160.72,378.6,160.72,375Z" fill="#fff"/><path d="M170.66,378.15V364.09H178V377c0,2.43,1,3.62,3.05,3.62s3.67-1.32,3.67-4.08V364.09h7.38v21.56h-7.38v-3.34c-1.15,2.23-3.26,3.84-6.84,3.84C173.75,386.15,170.66,383.59,170.66,378.15Z" fill="#fff"/><path d="M195.61,381.94a4.1,4.1,0,0,1,4.2-4.16,4.17,4.17,0,1,1,0,8.33A4.11,4.11,0,0,1,195.61,381.94Z" fill="#fff"/></g></g></g></svg>