<svg xmlns="http://www.w3.org/2000/svg" viewBox="0 0 728 90"><title>H25</title><g id="Layer_2" data-name="Layer 2"><g id="Rect"><rect width="728" height="90" fill="none"/></g><g id="H25"><g id="Tax_season._Max_season._Max_refund_guaranteed." data-name="Tax season. Max season. Max refund guaranteed."><path d="M126.8,20.46h-6.11V15.25h19v5.21h-6.1V38.85h-6.8Z" fill="#fff"/><path d="M138.51,34.06c0-4.06,3.44-5.64,9.18-5.64h1.65V28c0-1.65-.4-2.74-2.28-2.74a2.12,2.12,0,0,0-2.34,2h-5.55c.27-4.16,3.54-6.21,8.25-6.21s7.79,1.95,7.79,6.54V38.85h-5.74v-2c-.82,1.25-2.34,2.4-5.11,2.4C141.25,39.24,138.51,37.73,138.51,34.06Zm10.83-1.25V31.75h-1.55c-2.38,0-3.43.46-3.43,1.88,0,1,.66,1.62,2,1.62C148.08,35.25,149.34,34.29,149.34,32.81Z" fill="#fff"/><path d="M162.44,30.07l-5.38-8.48h6.8l2.67,4.55,2.61-4.55h6.07l-5.44,8,6,9.24h-6.8l-3.07-5.15-3.13,5.15h-6Z" fill="#fff"/><path d="M182.24,33.37h5.44c.2,1.25.76,2,2.45,2,1.45,0,2.11-.56,2.11-1.42s-.83-1.22-3.2-1.55c-4.62-.6-6.57-2-6.57-5.55,0-3.83,3.4-5.68,7.39-5.68,4.26,0,7.23,1.46,7.63,5.58h-5.35A1.93,1.93,0,0,0,189.93,25c-1.29,0-2,.56-2,1.35s.79,1.16,2.9,1.42c4.79.59,7.1,1.85,7.1,5.54,0,4.1-3,5.94-7.82,5.94S182.37,37.2,182.24,33.37Z" fill="#fff"/><path d="M199.07,30.43v-.26c0-5.55,4.12-9,9.34-9,4.72,0,8.78,2.71,8.78,8.92v1.55H205c.17,2.27,1.49,3.6,3.6,3.6,2,0,2.77-.9,3-2h5.55c-.53,3.89-3.53,6.1-8.75,6.1C203,39.24,199.07,36.08,199.07,30.43Zm12.37-2.18c-.1-2.08-1.12-3.23-3-3.23s-3,1.15-3.3,3.23Z" fill="#fff"/><path d="M218.4,34.06c0-4.06,3.44-5.64,9.18-5.64h1.65V28c0-1.65-.4-2.74-2.28-2.74a2.12,2.12,0,0,0-2.34,2h-5.55c.27-4.16,3.54-6.21,8.26-6.21s7.78,1.95,7.78,6.54V38.85h-5.74v-2c-.82,1.25-2.34,2.4-5.11,2.4C221.14,39.24,218.4,37.73,218.4,34.06Zm10.83-1.25V31.75h-1.55c-2.38,0-3.43.46-3.43,1.88,0,1,.66,1.62,2,1.62C228,35.25,229.23,34.29,229.23,32.81Z" fill="#fff"/><path d="M236.82,33.37h5.44c.2,1.25.76,2,2.45,2,1.45,0,2.11-.56,2.11-1.42s-.83-1.22-3.2-1.55c-4.62-.6-6.57-2-6.57-5.55,0-3.83,3.4-5.68,7.39-5.68,4.26,0,7.23,1.46,7.63,5.58h-5.35A1.93,1.93,0,0,0,244.51,25c-1.29,0-1.95.56-1.95,1.35s.79,1.16,2.91,1.42c4.78.59,7.09,1.85,7.09,5.54,0,4.1-3,5.94-7.82,5.94S237,37.2,236.82,33.37Z" fill="#fff"/><path d="M253.65,30.43v-.26c0-5.55,4.12-9,9.47-9s9.41,3.4,9.41,8.88v.27c0,5.61-4.13,9-9.44,9S253.65,36,253.65,30.43Zm12.87-.1v-.26c0-2.9-1.16-4.52-3.4-4.52s-3.43,1.55-3.43,4.45v.27c0,3,1.15,4.58,3.43,4.58S266.52,33.21,266.52,30.33Z" fill="#fff"/><path d="M274.6,21.59h5.91v2.77a6.1,6.1,0,0,1,5.68-3.24c3.33,0,5.64,2.08,5.64,6.51V38.85h-5.91v-10c0-1.95-.76-2.91-2.47-2.91s-2.94,1.06-2.94,3.27v9.67H274.6Z" fill="#fff"/><path d="M294.47,35.88a3.29,3.29,0,0,1,3.36-3.34,3.34,3.34,0,1,1,0,6.67A3.29,3.29,0,0,1,294.47,35.88Z" fill="#fff"/><path d="M310.6,15.25h8.82l4.52,12.58,4.52-12.58h8.65v23.6h-6.73V24.16L324.6,38.85h-2.25l-5.7-14.69V38.85h-6Z" fill="#fff"/><path d="M339.45,34.06c0-4.06,3.43-5.64,9.17-5.64h1.65V28c0-1.65-.39-2.74-2.27-2.74a2.13,2.13,0,0,0-2.35,2h-5.54c.26-4.16,3.53-6.21,8.25-6.21s7.79,1.95,7.79,6.54V38.85H350.4v-2c-.82,1.25-2.34,2.4-5.11,2.4C342.19,39.24,339.45,37.73,339.45,34.06Zm10.82-1.25V31.75h-1.55c-2.38,0-3.43.46-3.43,1.88,0,1,.66,1.62,2,1.62C349,35.25,350.27,34.29,350.27,32.81Z" fill="#fff"/><path d="M363.37,30.07,358,21.59h6.8l2.67,4.55,2.61-4.55h6.07l-5.44,8,6,9.24h-6.8L366.8,33.7l-3.13,5.15h-6Z" fill="#fff"/><path d="M383.17,33.37h5.45c.19,1.25.76,2,2.44,2,1.45,0,2.11-.56,2.11-1.42s-.82-1.22-3.2-1.55c-4.62-.6-6.57-2-6.57-5.55,0-3.83,3.4-5.68,7.39-5.68,4.26,0,7.23,1.46,7.63,5.58h-5.35A1.93,1.93,0,0,0,390.86,25c-1.29,0-1.95.56-1.95,1.35s.8,1.16,2.91,1.42c4.78.59,7.09,1.85,7.09,5.54,0,4.1-3,5.94-7.82,5.94S383.3,37.2,383.17,33.37Z" fill="#fff"/><path d="M400,30.43v-.26c0-5.55,4.13-9,9.34-9,4.72,0,8.78,2.71,8.78,8.92v1.55H406c.17,2.27,1.49,3.6,3.6,3.6,1.95,0,2.77-.9,3-2h5.54c-.53,3.89-3.53,6.1-8.75,6.1C404,39.24,400,36.08,400,30.43Zm12.38-2.18c-.1-2.08-1.13-3.23-3-3.23s-3,1.15-3.3,3.23Z" fill="#fff"/><path d="M419.34,34.06c0-4.06,3.43-5.64,9.17-5.64h1.65V28c0-1.65-.39-2.74-2.27-2.74a2.13,2.13,0,0,0-2.35,2H420c.26-4.16,3.53-6.21,8.25-6.21S436,23.07,436,27.66V38.85H430.3v-2a5.69,5.69,0,0,1-5.12,2.4C422.08,39.24,419.34,37.73,419.34,34.06Zm10.82-1.25V31.75h-1.55c-2.37,0-3.43.46-3.43,1.88,0,1,.66,1.62,2.05,1.62C428.91,35.25,430.16,34.29,430.16,32.81Z" fill="#fff"/><path d="M437.75,33.37h5.45c.2,1.25.76,2,2.44,2,1.45,0,2.11-.56,2.11-1.42s-.82-1.22-3.2-1.55c-4.62-.6-6.57-2-6.57-5.55,0-3.83,3.4-5.68,7.4-5.68,4.25,0,7.22,1.46,7.62,5.58h-5.35A1.93,1.93,0,0,0,445.44,25c-1.29,0-1.95.56-1.95,1.35s.8,1.16,2.91,1.42c4.78.59,7.1,1.85,7.1,5.54,0,4.1-3,5.94-7.83,5.94S437.88,37.2,437.75,33.37Z" fill="#fff"/><path d="M454.58,30.43v-.26c0-5.55,4.13-9,9.47-9s9.41,3.4,9.41,8.88v.27c0,5.61-4.13,9-9.44,9S454.58,36,454.58,30.43Zm12.87-.1v-.26c0-2.9-1.15-4.52-3.4-4.52s-3.43,1.55-3.43,4.45v.27c0,3,1.16,4.58,3.43,4.58S467.45,33.21,467.45,30.33Z" fill="#fff"/><path d="M475.54,21.59h5.9v2.77a6.11,6.11,0,0,1,5.68-3.24c3.33,0,5.64,2.08,5.64,6.51V38.85h-5.9v-10c0-1.95-.76-2.91-2.48-2.91s-2.94,1.06-2.94,3.27v9.67h-5.9Z" fill="#fff"/><path d="M495.4,35.88a3.3,3.3,0,0,1,3.37-3.34,3.34,3.34,0,1,1,0,6.67A3.29,3.29,0,0,1,495.4,35.88Z" fill="#fff"/><path d="M122.28,50.25h8.81l4.52,12.58,4.52-12.58h8.65v23.6h-6.73V59.16l-5.78,14.69H134l-5.71-14.69V73.85h-6Z" fill="#fff"/><path d="M151.12,69.06c0-4.06,3.43-5.64,9.17-5.64h1.65V63c0-1.65-.39-2.74-2.27-2.74a2.13,2.13,0,0,0-2.35,2h-5.54c.26-4.16,3.53-6.21,8.25-6.21s7.79,2,7.79,6.54V73.85h-5.74v-2A5.68,5.68,0,0,1,157,74.25C153.86,74.25,151.12,72.73,151.12,69.06Zm10.82-1.25V66.75h-1.55c-2.37,0-3.43.46-3.43,1.88,0,1,.66,1.62,2,1.62C160.69,70.25,161.94,69.29,161.94,67.81Z" fill="#fff"/><path d="M175,65.07l-5.38-8.48h6.8l2.68,4.55,2.6-4.55h6.08l-5.45,8,6,9.24h-6.8l-3.07-5.15-3.14,5.15h-6Z" fill="#fff"/><path d="M196,56.59h5.91V60a5.43,5.43,0,0,1,5.57-3.66v5.51c-3.59-.1-5.57,1-5.57,3.79v8.19H196Z" fill="#fff"/><path d="M208.54,65.43v-.26c0-5.55,4.12-9.05,9.34-9.05,4.72,0,8.78,2.71,8.78,8.92v1.55H214.51c.17,2.28,1.49,3.6,3.6,3.6,1.95,0,2.77-.9,3-2h5.55c-.53,3.89-3.53,6.11-8.75,6.11C212.5,74.25,208.54,71.08,208.54,65.43Zm12.38-2.18c-.1-2.08-1.13-3.23-3-3.23s-3,1.15-3.3,3.23Z" fill="#fff"/><path d="M229.59,60.61h-2.18v-4h2.18V55.07c0-4.29,2.68-6.34,6.77-6.34a10.83,10.83,0,0,1,2.7.36v4.33a5.4,5.4,0,0,0-1.61-.23,1.73,1.73,0,0,0-2,1.88v1.52H239v4h-3.5V73.85h-5.88Z" fill="#fff"/><path d="M240.81,67.84V56.59h5.91V66.88c0,2,.76,2.91,2.44,2.91s2.94-1.06,2.94-3.27V56.59H258V73.85H252.1V71.18a5.69,5.69,0,0,1-5.48,3.07C243.29,74.25,240.81,72.2,240.81,67.84Z" fill="#fff"/><path d="M261,56.59h5.91v2.77a6.09,6.09,0,0,1,5.67-3.24c3.34,0,5.65,2.08,5.65,6.51V73.85h-5.91v-10c0-2-.76-2.91-2.48-2.91s-2.93,1.06-2.93,3.27v9.67H261Z" fill="#fff"/><path d="M280.25,65.4v-.26c0-5.88,3.23-9,7.32-9A5.6,5.6,0,0,1,292.89,59V49h5.9V73.85h-5.9V71a5.82,5.82,0,0,1-5.38,3.21C283.51,74.25,280.25,71.37,280.25,65.4Zm12.8-.1V65c0-2.91-1.22-4.46-3.4-4.46s-3.4,1.49-3.4,4.49v.26c0,2.91,1.29,4.39,3.34,4.39S293.05,68.24,293.05,65.3Z" fill="#fff"/><path d="M306.84,73.85h5.88c.26,1.25,1,2.24,3.17,2.24,2.6,0,3.66-1.48,3.66-3.63V69.82A6.05,6.05,0,0,1,314.2,73c-4,0-7.32-3-7.32-8.28v-.27c0-5.08,3.26-8.32,7.32-8.32A5.62,5.62,0,0,1,319.55,59V56.59h5.91V72.4c0,5.14-3.4,7.85-9.57,7.85C310,80.25,307.31,77.78,306.84,73.85Zm12.88-9.18v-.23c0-2.37-1.23-3.89-3.4-3.89s-3.4,1.55-3.4,3.93v.26c0,2.38,1.25,3.89,3.36,3.89S319.72,67.12,319.72,64.67Z" fill="#fff"/><path d="M328.33,67.84V56.59h5.9V66.88c0,2,.76,2.91,2.45,2.91s2.93-1.06,2.93-3.27V56.59h5.91V73.85h-5.91V71.18a5.66,5.66,0,0,1-5.47,3.07C330.8,74.25,328.33,72.2,328.33,67.84Z" fill="#fff"/><path d="M347.53,69.06c0-4.06,3.43-5.64,9.18-5.64h1.65V63c0-1.65-.4-2.74-2.28-2.74a2.12,2.12,0,0,0-2.34,2h-5.55c.27-4.16,3.53-6.21,8.25-6.21s7.79,2,7.79,6.54V73.85h-5.74v-2a5.67,5.67,0,0,1-5.12,2.42C350.27,74.25,347.53,72.73,347.53,69.06Zm10.83-1.25V66.75h-1.55c-2.38,0-3.44.46-3.44,1.88,0,1,.66,1.62,2.05,1.62C357.1,70.25,358.36,69.29,358.36,67.81Z" fill="#fff"/><path d="M367.1,56.59H373V60a5.43,5.43,0,0,1,5.58-3.66v5.51c-3.6-.1-5.58,1-5.58,3.79v8.19H367.1Z" fill="#fff"/><path d="M379.34,69.06c0-4.06,3.44-5.64,9.18-5.64h1.65V63c0-1.65-.4-2.74-2.28-2.74a2.12,2.12,0,0,0-2.34,2H380c.27-4.16,3.54-6.21,8.25-6.21s7.79,2,7.79,6.54V73.85H390.3v-2c-.82,1.26-2.34,2.42-5.12,2.42C382.08,74.25,379.34,72.73,379.34,69.06Zm10.83-1.25V66.75h-1.55c-2.38,0-3.44.46-3.44,1.88,0,1,.66,1.62,2.05,1.62C388.91,70.25,390.17,69.29,390.17,67.81Z" fill="#fff"/><path d="M398.91,56.59h5.91v2.77a6.09,6.09,0,0,1,5.68-3.24c3.33,0,5.64,2.08,5.64,6.51V73.85h-5.91v-10c0-2-.76-2.91-2.47-2.91s-2.94,1.06-2.94,3.27v9.67h-5.91Z" fill="#fff"/><path d="M419.8,68.3V60.61h-2.08v-4h2.08V53h5.91v3.6h3.4v4h-3.4v7.13c0,1.26.63,1.82,1.75,1.82a4.45,4.45,0,0,0,1.68-.3v4.49a12.28,12.28,0,0,1-3.27.5C422,74.25,419.8,72.36,419.8,68.3Z" fill="#fff"/><path d="M430.43,65.43v-.26c0-5.55,4.12-9.05,9.34-9.05,4.72,0,8.78,2.71,8.78,8.92v1.55H436.4c.17,2.28,1.49,3.6,3.6,3.6,1.95,0,2.77-.9,3-2h5.55C448,72,445,74.25,439.8,74.25,434.39,74.25,430.43,71.08,430.43,65.43Zm12.37-2.18c-.1-2.08-1.12-3.23-3-3.23s-3,1.15-3.3,3.23Z" fill="#fff"/><path d="M449.67,65.43v-.26c0-5.55,4.12-9.05,9.34-9.05,4.72,0,8.78,2.71,8.78,8.92v1.55H455.64c.16,2.28,1.48,3.6,3.6,3.6,1.94,0,2.77-.9,3-2h5.55c-.53,3.89-3.54,6.11-8.75,6.11C453.63,74.25,449.67,71.08,449.67,65.43ZM462,63.25c-.1-2.08-1.12-3.23-3-3.23s-3,1.15-3.3,3.23Z" fill="#fff"/><path d="M469,65.4v-.26c0-5.88,3.23-9,7.33-9A5.6,5.6,0,0,1,481.61,59V49h5.91V73.85h-5.91V71a5.81,5.81,0,0,1-5.38,3.21C472.24,74.25,469,71.37,469,65.4Zm12.81-.1V65c0-2.91-1.23-4.46-3.4-4.46s-3.4,1.49-3.4,4.49v.26c0,2.91,1.28,4.39,3.33,4.39S481.78,68.24,481.78,65.3Z" fill="#fff"/><path d="M490.29,70.88a3.29,3.29,0,0,1,3.36-3.34,3.34,3.34,0,1,1,0,6.67A3.29,3.29,0,0,1,490.29,70.88Z" fill="#fff"/></g></g></g></svg>