<svg xmlns="http://www.w3.org/2000/svg" viewBox="0 0 600 500"><title>txt</title><g id="Layer_2" data-name="Layer 2"><g id="Rectangle_3" data-name="Rectangle 3" style="isolation:isolate"><g id="Rectangle_3-2" data-name="Rectangle 3"><rect width="600" height="500" fill="none"/></g></g><g id="Image_25" data-name="Image 25"><g id="Your_maximum_refund_guaranteed." data-name="Your maximum  refund,  guaranteed."><path d="M55.6,90.72l-17-29.87H54.87l8.83,17.6,8.84-17.6H86.85L70.64,90.72v22.34h-15Z" fill="#fff"/><path d="M81.37,94.44v-.58c0-12.27,9.13-20,21-20s20.81,7.52,20.81,19.64v.59c0,12.41-9.13,19.86-20.89,19.86S81.37,106.78,81.37,94.44Zm28.48-.22v-.58c0-6.43-2.56-10-7.52-10s-7.6,3.43-7.6,9.85v.59c0,6.57,2.56,10.15,7.6,10.15S109.85,100.57,109.85,94.22Z" fill="#fff"/><path d="M127.44,99.77V74.87h13.07V97.65c0,4.31,1.68,6.43,5.41,6.43,3.94,0,6.5-2.34,6.5-7.23v-22h13.06v38.19H152.42v-5.91c-2,3.94-5.77,6.79-12.13,6.79C132.92,113.94,127.44,109.41,127.44,99.77Z" fill="#fff"/><path d="M172.13,74.87H185.2v7.6c2.41-5.7,6.42-8.18,12.34-8.11v12.2c-8-.22-12.34,2.26-12.34,8.39v18.11H172.13Z" fill="#fff"/><path d="M215.57,74.87h13.07v5.84a13.36,13.36,0,0,1,12-6.86c5,0,8.54,2.19,10.36,6.35a15.16,15.16,0,0,1,12.64-6.35c7.22,0,12.48,4.67,12.48,14.24v25H263V90.28c0-3.87-1.9-5.77-4.89-5.77-3.51,0-5.84,2.26-5.84,6.43v22.12H239.38V90.28c0-3.87-1.9-5.77-4.9-5.77-3.5,0-5.84,2.26-5.84,6.43v22.12H215.57Z" fill="#fff"/><path d="M280.27,102.47c0-9,7.59-12.48,20.29-12.48h3.65v-.88c0-3.65-.87-6.06-5-6.06-3.58,0-4.9,2.12-5.19,4.53H281.73c.58-9.2,7.81-13.73,18.25-13.73s17.23,4.31,17.23,14.46v24.75h-12.7v-4.45c-1.83,2.77-5.19,5.33-11.32,5.33C286.33,113.94,280.27,110.58,280.27,102.47Zm23.94-2.77V97.36h-3.43c-5.26,0-7.59,1-7.59,4.16,0,2.19,1.46,3.58,4.53,3.58C301.44,105.1,304.21,103,304.21,99.7Z" fill="#fff"/><path d="M333.2,93.64,321.3,74.87h15L342.25,85,348,74.87h13.44l-12,17.75,13.21,20.44h-15l-6.79-11.39-6.93,11.39H320.5Z" fill="#fff"/><path d="M366,64.51a6.82,6.82,0,0,1,7.16-6.79c4.09,0,7.23,2.92,7.23,6.79s-3.14,6.71-7.23,6.71S366,68.38,366,64.51Zm.66,10.36h13.07v38.19H366.64Z" fill="#fff"/><path d="M386.72,74.87h13.07v5.84a13.34,13.34,0,0,1,12-6.86c5,0,8.55,2.19,10.37,6.35a15.16,15.16,0,0,1,12.63-6.35c7.23,0,12.49,4.67,12.49,14.24v25H434.18V90.28c0-3.87-1.9-5.77-4.89-5.77-3.51,0-5.84,2.26-5.84,6.43v22.12H410.52V90.28c0-3.87-1.89-5.77-4.89-5.77-3.5,0-5.84,2.26-5.84,6.43v22.12H386.72Z" fill="#fff"/><path d="M453.31,99.77V74.87h13.07V97.65c0,4.31,1.68,6.43,5.41,6.43,3.94,0,6.49-2.34,6.49-7.23v-22h13.07v38.19H478.28v-5.91c-2,3.94-5.76,6.79-12.12,6.79C458.79,113.94,453.31,109.41,453.31,99.77Z" fill="#fff"/><path d="M498,74.87h13.07v5.84a13.34,13.34,0,0,1,12-6.86c5,0,8.54,2.19,10.37,6.35A15.13,15.13,0,0,1,546,73.85c7.23,0,12.49,4.67,12.49,14.24v25H545.46V90.28c0-3.87-1.9-5.77-4.9-5.77-3.5,0-5.84,2.26-5.84,6.43v22.12H521.8V90.28c0-3.87-1.9-5.77-4.89-5.77-3.51,0-5.84,2.26-5.84,6.43v22.12H498Z" fill="#fff"/><path d="M41.87,152.06H54.94v7.6c2.41-5.7,6.42-8.18,12.34-8.11v12.19c-8-.21-12.34,2.27-12.34,8.4v18.11H41.87Z" fill="#fff"/><path d="M69.62,171.63v-.58c0-12.27,9.12-20,20.66-20,10.44,0,19.42,6,19.42,19.71v3.44H82.83c.37,5,3.29,7.95,8,7.95,4.31,0,6.13-2,6.64-4.52H109.7c-1.17,8.61-7.81,13.5-19.35,13.5C78.38,191.12,69.62,184.11,69.62,171.63ZM97,166.81c-.22-4.6-2.49-7.15-6.72-7.15-3.94,0-6.65,2.55-7.3,7.15Z" fill="#fff"/><path d="M116.2,161h-4.82v-8.91h4.82V148.7c0-9.49,5.91-14,15-14a23.14,23.14,0,0,1,6,.8v9.56a12,12,0,0,0-3.57-.51c-3.07,0-4.38,1.68-4.38,4.16v3.36h7.74V161H129.2v29.28h-13Z" fill="#fff"/><path d="M141,177v-24.9h13.07v22.78c0,4.31,1.68,6.43,5.41,6.43,3.94,0,6.5-2.34,6.5-7.23v-22h13.06v38.19H166v-5.92c-2.05,3.95-5.77,6.79-12.12,6.79C146.5,191.12,141,186.6,141,177Z" fill="#fff"/><path d="M185.71,152.06h13.07v6.14c2-3.95,6.2-7.16,12.56-7.16,7.37,0,12.48,4.6,12.48,14.38v24.83H210.75v-22.2c0-4.31-1.68-6.42-5.47-6.42s-6.5,2.33-6.5,7.22v21.4H185.71Z" fill="#fff"/><path d="M228.28,171.56V171c0-13,7.15-19.93,16.21-19.93,6,0,9.56,2.56,11.75,6.42V135.27h13.07v55H256.24V184a12.87,12.87,0,0,1-11.9,7.08C235.51,191.12,228.28,184.77,228.28,171.56Zm28.33-.22v-.59c0-6.42-2.7-9.85-7.52-9.85s-7.52,3.28-7.52,9.93v.58c0,6.43,2.84,9.71,7.37,9.71C253.69,181.12,256.61,177.84,256.61,171.34Z" fill="#fff"/><path d="M273.26,196.16l6.13-19.2,12.12,4.31L281,199.16Z" fill="#fff"/><path d="M39.75,267.44h13c.58,2.77,2.26,5,7,5,5.77,0,8.1-3.28,8.1-8v-5.84a13.39,13.39,0,0,1-11.83,7c-8.9,0-16.2-6.57-16.2-18.33v-.58c0-11.25,7.22-18.4,16.2-18.4,6.06,0,9.64,2.55,11.83,6.42v-5.4H80.93v35c0,11.39-7.52,17.38-21.17,17.38C46.76,281.6,40.77,276.13,39.75,267.44Zm28.48-20.3v-.51c0-5.26-2.7-8.62-7.52-8.62s-7.52,3.43-7.52,8.69v.58c0,5.26,2.77,8.62,7.44,8.62S68.23,252.54,68.23,247.14Z" fill="#fff"/><path d="M87.29,254.15v-24.9h13.06V252c0,4.31,1.68,6.43,5.41,6.43,3.94,0,6.5-2.34,6.5-7.23v-22h13.07v38.19H112.26v-5.92c-2.05,3.94-5.77,6.79-12.12,6.79C92.76,268.31,87.29,263.79,87.29,254.15Z" fill="#fff"/><path d="M129.78,256.85c0-9,7.59-12.49,20.3-12.49h3.65v-.87c0-3.65-.88-6.06-5-6.06-3.58,0-4.89,2.12-5.18,4.53H131.24c.58-9.2,7.81-13.73,18.25-13.73s17.23,4.31,17.23,14.46v24.75H154V263c-1.83,2.78-5.18,5.33-11.32,5.33C135.84,268.31,129.78,265,129.78,256.85Zm23.95-2.77v-2.34H150.3c-5.26,0-7.6,1-7.6,4.16,0,2.19,1.46,3.58,4.53,3.58C151,259.48,153.73,257.36,153.73,254.08Z" fill="#fff"/><path d="M173.08,229.25h13.07v7.59c2.41-5.69,6.42-8.17,12.34-8.1v12.19c-8-.22-12.34,2.27-12.34,8.4v18.11H173.08Z" fill="#fff"/><path d="M200.17,256.85c0-9,7.59-12.49,20.29-12.49h3.66v-.87c0-3.65-.88-6.06-5-6.06-3.58,0-4.89,2.12-5.19,4.53H201.63c.58-9.2,7.81-13.73,18.25-13.73s17.23,4.31,17.23,14.46v24.75h-12.7V263c-1.83,2.78-5.19,5.33-11.32,5.33C206.23,268.31,200.17,265,200.17,256.85Zm24-2.77v-2.34h-3.44c-5.25,0-7.59,1-7.59,4.16,0,2.19,1.46,3.58,4.53,3.58C221.34,259.48,224.12,257.36,224.12,254.08Z" fill="#fff"/><path d="M243.46,229.25h13.07v6.13c2.05-3.94,6.21-7.15,12.56-7.15,7.38,0,12.49,4.6,12.49,14.38v24.83H268.51v-22.2c0-4.31-1.68-6.42-5.48-6.42s-6.5,2.33-6.5,7.22v21.4H243.46Z" fill="#fff"/><path d="M289.68,255.17v-17h-4.6v-8.91h4.6v-8h13.07v8h7.52v8.91h-7.52v15.77c0,2.77,1.39,4,3.87,4a10,10,0,0,0,3.73-.65v9.93a27.44,27.44,0,0,1-7.23,1.09C294.5,268.31,289.68,264.15,289.68,255.17Z" fill="#fff"/><path d="M313.19,248.82v-.59c0-12.26,9.13-20,20.67-20,10.44,0,19.42,6,19.42,19.71v3.43H326.41c.36,5,3.28,8,8,8,4.3,0,6.13-2,6.64-4.52h12.27c-1.17,8.61-7.81,13.5-19.35,13.5C322,268.31,313.19,261.3,313.19,248.82ZM340.57,244c-.22-4.6-2.48-7.16-6.71-7.16-3.95,0-6.65,2.56-7.31,7.16Z" fill="#fff"/><path d="M355.76,248.82v-.59c0-12.26,9.13-20,20.66-20,10.45,0,19.43,6,19.43,19.71v3.43H369c.36,5,3.28,8,8,8,4.3,0,6.13-2,6.64-4.52h12.27c-1.17,8.61-7.82,13.5-19.35,13.5C364.52,268.31,355.76,261.3,355.76,248.82ZM383.14,244c-.22-4.6-2.48-7.16-6.72-7.16-3.94,0-6.64,2.56-7.3,7.16Z" fill="#fff"/><path d="M398.48,248.75v-.59c0-13,7.15-19.93,16.2-19.93,6,0,9.57,2.55,11.76,6.42V212.46h13.07v55H426.44v-6.21a12.87,12.87,0,0,1-11.9,7.08C405.7,268.31,398.48,262,398.48,248.75Zm28.32-.22v-.59c0-6.42-2.7-9.86-7.52-9.86s-7.52,3.29-7.52,9.94v.58c0,6.42,2.85,9.71,7.38,9.71C423.88,258.31,426.8,255,426.8,248.53Z" fill="#fff"/><path d="M445.64,260.87a7.28,7.28,0,0,1,7.45-7.38,7.38,7.38,0,1,1,0,14.75A7.28,7.28,0,0,1,445.64,260.87Z" fill="#fff"/></g></g></g></svg>