<svg xmlns="http://www.w3.org/2000/svg" viewBox="0 0 300 250"><title>H02</title><g id="Layer_2" data-name="Layer 2"><g id="Rect"><rect width="300" height="250" fill="none"/></g><g id="Claiming_EITC_Try_H_R_Block_Free_Online." data-name="Claiming  EITC? Try  H&amp;R Block  Free Online."><path d="M20.73,33.25v-.18a8,8,0,0,1,8.36-8.35c4.25,0,7.21,2,7.6,6.29H31.86a2.56,2.56,0,0,0-2.75-2.59c-2.11,0-3.43,1.65-3.43,4.63v.18c0,3,1.26,4.62,3.5,4.62a2.81,2.81,0,0,0,3-2.67h4.67c-.32,4.23-3.39,6.43-7.62,6.43C23.55,41.61,20.73,38.27,20.73,33.25Z" fill="#14aa40"/><path d="M38.35,24.1h4.08V41.33H38.35Z" fill="#14aa40"/><path d="M43.93,38c0-2.81,2.38-3.91,6.37-3.91h1.14v-.27c0-1.15-.27-1.9-1.58-1.9a1.46,1.46,0,0,0-1.62,1.42H44.39c.19-2.89,2.45-4.31,5.72-4.31s5.41,1.35,5.41,4.53v7.76h-4V39.94A3.92,3.92,0,0,1,48,41.61C45.83,41.61,43.93,40.55,43.93,38Zm7.51-.87v-.73H50.37c-1.65,0-2.38.32-2.38,1.31,0,.68.45,1.12,1.41,1.12A1.81,1.81,0,0,0,51.44,37.14Z" fill="#14aa40"/><path d="M57.41,26.11a2.26,2.26,0,1,1,2.24,2.11A2.12,2.12,0,0,1,57.41,26.11Zm.21,3.25h4.09v12H57.62Z" fill="#14aa40"/><path d="M63.91,29.36H68v1.83A4.19,4.19,0,0,1,71.76,29,3.26,3.26,0,0,1,75,31a4.76,4.76,0,0,1,4-2c2.27,0,3.91,1.47,3.91,4.47v7.82H78.79V34.19c0-1.21-.6-1.81-1.54-1.81a1.78,1.78,0,0,0-1.83,2v6.93h-4V34.19c0-1.21-.59-1.81-1.53-1.81a1.78,1.78,0,0,0-1.83,2v6.93h-4.1Z" fill="#14aa40"/><path d="M84.78,26.11A2.14,2.14,0,0,1,87,24a2.17,2.17,0,0,1,2.27,2.13A2.14,2.14,0,0,1,87,28.22,2.12,2.12,0,0,1,84.78,26.11Zm.2,3.25h4.1v12H85Z" fill="#14aa40"/><path d="M91.28,29.36h4.09v1.93A4.23,4.23,0,0,1,99.31,29c2.31,0,3.91,1.44,3.91,4.51v7.78H99.13V34.38c0-1.36-.53-2-1.72-2s-2,.73-2,2.27v6.7H91.28Z" fill="#14aa40"/><path d="M104.55,41.33h4.07c.18.87.71,1.56,2.2,1.56a2.26,2.26,0,0,0,2.54-2.52V38.54a4.19,4.19,0,0,1-3.71,2.2c-2.79,0-5.08-2.06-5.08-5.75v-.18c0-3.52,2.27-5.77,5.08-5.77a3.89,3.89,0,0,1,3.71,2v-1.7h4.1v11c0,3.57-2.36,5.44-6.64,5.44C106.74,45.77,104.87,44.06,104.55,41.33ZM113.47,35v-.16c0-1.65-.84-2.7-2.35-2.7s-2.36,1.07-2.36,2.72V35c0,1.64.87,2.7,2.33,2.7S113.47,36.66,113.47,35Z" fill="#14aa40"/><path d="M21.58,49.43H32.89V53H26.25v2.82h5.29V59.2H26.25v3h7v3.61H21.58Z" fill="#14aa40"/><path d="M35.33,49.43h4.74V65.79H35.33Z" fill="#14aa40"/><path d="M46.09,53H41.85V49.43H55V53H50.8V65.79H46.09Z" fill="#14aa40"/><path d="M55.33,57.71v-.18a8,8,0,0,1,8.35-8.35c4.26,0,7.21,2,7.6,6.29H66.45a2.55,2.55,0,0,0-2.74-2.59c-2.11,0-3.44,1.65-3.44,4.63v.18c0,3,1.26,4.62,3.5,4.62a2.82,2.82,0,0,0,3-2.67h4.67c-.32,4.23-3.39,6.43-7.62,6.43C58.14,66.07,55.33,62.73,55.33,57.71Z" fill="#14aa40"/><path d="M75.56,60c0-1.74,1.19-2.84,2.24-3.85.78-.75,1.49-1.44,1.49-2.24a1.22,1.22,0,0,0-1.4-1.37c-1,0-1.65.75-1.81,2h-4c.12-3.45,2.59-5.33,6.11-5.33s5.52,1.58,5.52,4.3a4.65,4.65,0,0,1-1.67,3.43c-1.12,1.13-2.43,2-2.63,3.14v.34H75.56ZM75,63.78a2.46,2.46,0,0,1,4.9,0,2.46,2.46,0,0,1-4.9,0Z" fill="#14aa40"/><path d="M93,53H88.71V49.43H101.9V53H97.66V65.79H93Z" fill="#14aa40"/><path d="M102.56,53.82h4.09V56.2a3.79,3.79,0,0,1,3.87-2.54v3.82c-2.49-.06-3.87.71-3.87,2.64v5.67h-4.09Z" fill="#14aa40"/><path d="M115.94,64.58l-4.78-10.76h4.44l2.47,6.39,2.29-6.39h3.91l-6.4,16H114Z" fill="#14aa40"/><path d="M21.58,73.89h4.71v6.25h5.38V73.89h4.7V90.25h-4.7V83.8H26.29v6.45H21.58Z" fill="#14aa40"/><path d="M52.06,86.91l2.73,3.34H49.45l-1-1.19a6.49,6.49,0,0,1-4.42,1.47c-3.48,0-5.74-1.83-5.74-5,0-2.1,1.28-3.66,3.59-4.76a5.17,5.17,0,0,1-1-2.86c0-2.79,2.38-4.28,5.26-4.28,2.61,0,5,1.31,5,3.82,0,1.79-1.06,3.09-3.28,4l2.06,2.52,1.19-2.33h3.57Zm-5.67-.48L43.8,83.32a1.93,1.93,0,0,0-1.1,1.76,1.9,1.9,0,0,0,2.08,2A2.16,2.16,0,0,0,46.39,86.43Zm-.51-6.59c1.1-.53,1.63-1.15,1.63-2a1.18,1.18,0,0,0-1.22-1.26A1.31,1.31,0,0,0,44.94,78,3,3,0,0,0,45.88,79.84Z" fill="#14aa40"/><path d="M56.27,73.89h6.41c4.28,0,6.66,1.74,6.66,5.19v.09a4.29,4.29,0,0,1-3,4.31l3.92,6.77h-5L62,84.39h-1.1v5.86H56.27Zm6.18,7.46c1.58,0,2.36-.66,2.36-2v-.09c0-1.33-.83-1.86-2.34-1.86H60.94v3.94Z" fill="#14aa40"/><path d="M76,73.89h7.3c3.87,0,5.51,1.74,5.51,4.28v.09a3.36,3.36,0,0,1-2.77,3.52,3.57,3.57,0,0,1,3.28,3.83v.09c0,2.93-1.9,4.55-6,4.55H76Zm6.36,6.5c1.46,0,2-.51,2-1.67v-.1c0-1.12-.59-1.62-2-1.62H80.61v3.39Zm.16,6.73c1.49,0,2.17-.69,2.17-1.9v-.09c0-1.24-.66-1.88-2.31-1.88H80.61v3.87Z" fill="#14aa40"/><path d="M91,73h4.07V90.25H91Z" fill="#14aa40"/><path d="M96.61,84.42v-.19c0-3.84,2.86-6.27,6.57-6.27s6.52,2.36,6.52,6.16v.18c0,3.89-2.86,6.23-6.55,6.23S96.61,88.28,96.61,84.42Zm8.92-.07v-.19c0-2-.8-3.13-2.35-3.13s-2.39,1.07-2.39,3.09v.18c0,2.06.81,3.18,2.39,3.18S105.53,86.34,105.53,84.35Z" fill="#14aa40"/><path d="M110.5,84.42v-.19A6,6,0,0,1,116.88,78c2.93,0,5.63,1.28,5.86,4.92H118.9A1.78,1.78,0,0,0,117,81.14c-1.44,0-2.29,1-2.29,3v.18c0,2.08.81,3.16,2.36,3.16a2,2,0,0,0,2.08-2h3.69c-.11,3-2.15,5-6,5C113.22,90.53,110.5,88.44,110.5,84.42Z" fill="#14aa40"/><path d="M124.13,73h4.1V83l3.23-4.74h4.25l-3.91,5.38L136,90.25h-4.58L128.23,85v5.24h-4.1Z" fill="#14aa40"/><path d="M21.58,98.35H32.63V102H26.29v3.47h5.06v3.46H26.29v5.79H21.58Z" fill="#14aa40"/><path d="M33.73,102.74h4.1v2.38a3.77,3.77,0,0,1,3.86-2.54v3.82c-2.49-.07-3.86.71-3.86,2.64v5.67h-4.1Z" fill="#14aa40"/><path d="M42.42,108.88v-.19a6.13,6.13,0,0,1,6.48-6.27c3.28,0,6.09,1.88,6.09,6.18v1.08H46.57a2.38,2.38,0,0,0,2.49,2.49c1.35,0,1.92-.62,2.09-1.42H55c-.37,2.7-2.45,4.24-6.07,4.24S42.42,112.79,42.42,108.88ZM51,107.36c-.07-1.44-.78-2.24-2.11-2.24a2.28,2.28,0,0,0-2.29,2.24Z" fill="#14aa40"/><path d="M55.76,108.88v-.19a6.13,6.13,0,0,1,6.48-6.27c3.28,0,6.09,1.88,6.09,6.18v1.08H59.91a2.38,2.38,0,0,0,2.49,2.49c1.35,0,1.92-.62,2.08-1.42h3.85c-.37,2.7-2.45,4.24-6.07,4.24S55.76,112.79,55.76,108.88Zm8.59-1.52c-.07-1.44-.78-2.24-2.11-2.24A2.28,2.28,0,0,0,60,107.36Z" fill="#14aa40"/><path d="M73.41,106.63v-.18c0-5,3.75-8.33,8.65-8.33s8.67,3.13,8.67,8.21v.19c0,5-3.45,8.47-8.74,8.47S73.41,111.55,73.41,106.63Zm12.42,0v-.19c0-2.9-1.46-4.62-3.77-4.62s-3.76,1.67-3.76,4.65v.18c0,3,1.51,4.69,3.78,4.69S85.83,109.52,85.83,106.59Z" fill="#14aa40"/><path d="M92.31,102.74H96.4v1.92a4.24,4.24,0,0,1,3.94-2.24c2.31,0,3.91,1.44,3.91,4.51v7.78h-4.09v-7c0-1.35-.53-2-1.72-2s-2,.73-2,2.27v6.7H92.31Z" fill="#14aa40"/><path d="M106.36,97.48h4.07v17.23h-4.07Z" fill="#14aa40"/><path d="M112.53,99.49a2.26,2.26,0,1,1,2.25,2.11A2.14,2.14,0,0,1,112.53,99.49Zm.21,3.25h4.1v12h-4.1Z" fill="#14aa40"/><path d="M119,102.74h4.1v1.92a4.23,4.23,0,0,1,3.94-2.24c2.31,0,3.91,1.44,3.91,4.51v7.78h-4.1v-7c0-1.35-.52-2-1.71-2s-2,.73-2,2.27v6.7H119Z" fill="#14aa40"/><path d="M132.33,108.88v-.19a6.12,6.12,0,0,1,6.47-6.27c3.28,0,6.09,1.88,6.09,6.18v1.08h-8.42a2.38,2.38,0,0,0,2.49,2.49c1.35,0,1.93-.62,2.09-1.42h3.84c-.37,2.7-2.45,4.24-6.06,4.24C135.07,115,132.33,112.79,132.33,108.88Zm8.58-1.52c-.07-1.44-.78-2.24-2.11-2.24a2.28,2.28,0,0,0-2.29,2.24Z" fill="#14aa40"/><path d="M146,112.65a2.29,2.29,0,0,1,2.34-2.31,2.31,2.31,0,1,1,0,4.62A2.29,2.29,0,0,1,146,112.65Z" fill="#14aa40"/></g></g></svg>