<svg xmlns="http://www.w3.org/2000/svg" viewBox="0 0 160 600"><title>H1</title><g id="Layer_2" data-name="Layer 2"><g id="Rect"><rect width="160" height="600" fill="none"/></g><g id="Your_tax_pro_does_your_taxes_while_you_stay_home." data-name="Your tax pro does your taxes while you stay home."><path d="M28.85,71.64,20.62,57.19h7.87l4.28,8.51L37,57.19H44L36.12,71.64V82.45H28.85Z" fill="#fff"/><path d="M41.32,73.44v-.28c0-5.94,4.41-9.68,10.14-9.68S61.52,67.12,61.52,73v.28c0,6-4.41,9.61-10.1,9.61S41.32,79.41,41.32,73.44Zm13.78-.11v-.28c0-3.11-1.24-4.84-3.64-4.84S47.78,69.87,47.78,73v.28c0,3.18,1.24,4.91,3.68,4.91S55.1,76.41,55.1,73.33Z" fill="#fff"/><path d="M63.61,76V64h6.32V75c0,2.09.82,3.11,2.62,3.11s3.14-1.13,3.14-3.49V64H82V82.45H75.69V79.59a6.08,6.08,0,0,1-5.86,3.28C66.26,82.87,63.61,80.68,63.61,76Z" fill="#fff"/><path d="M85.23,64h6.32v3.68a5.81,5.81,0,0,1,6-3.92v5.89c-3.85-.1-6,1.1-6,4.07v8.76H85.23Z" fill="#fff"/><path d="M23.05,112.51v-8.23H20.83V100h2.22V96.12h6.33V100H33v4.31H29.38v7.63a1.68,1.68,0,0,0,1.87,1.94,4.66,4.66,0,0,0,1.8-.32v4.81a13.31,13.31,0,0,1-3.5.53C25.38,118.87,23.05,116.85,23.05,112.51Z" fill="#fff"/><path d="M34.43,113.32c0-4.34,3.67-6,9.82-6H46v-.42c0-1.77-.43-2.93-2.44-2.93a2.27,2.27,0,0,0-2.51,2.19H35.14c.28-4.46,3.78-6.65,8.83-6.65s8.33,2.09,8.33,7v12H46.16v-2.15c-.89,1.34-2.51,2.58-5.48,2.58C37.36,118.87,34.43,117.24,34.43,113.32ZM46,112v-1.13H44.36c-2.55,0-3.68.49-3.68,2,0,1.06.71,1.73,2.19,1.73C44.67,114.59,46,113.57,46,112Z" fill="#fff"/><path d="M60,109.05,54.28,100h7.28l2.86,4.87L67.21,100h6.5l-5.83,8.58,6.4,9.89H67l-3.29-5.51-3.35,5.51H53.89Z" fill="#fff"/><path d="M82.47,100H88.8v2.75a6.52,6.52,0,0,1,5.75-3.25c4.31,0,7.81,3.25,7.81,9.58v.28c0,6.36-3.5,9.54-7.84,9.54a6.08,6.08,0,0,1-5.72-3.15v8.91H82.47Zm13.46,9.36v-.28c0-3.25-1.41-4.81-3.64-4.81s-3.67,1.66-3.67,4.77v.28c0,3.15,1.38,4.74,3.67,4.74S95.93,112.37,95.93,109.33Z" fill="#fff"/><path d="M104.66,100H111v3.67a5.84,5.84,0,0,1,6-3.92v5.9c-3.85-.11-6,1.1-6,4.06v8.76h-6.32Z" fill="#fff"/><path d="M118.08,109.44v-.29c0-5.93,4.42-9.68,10.14-9.68s10.07,3.64,10.07,9.51v.28c0,6-4.41,9.61-10.1,9.61S118.08,115.41,118.08,109.44Zm13.78-.11v-.28c0-3.11-1.23-4.84-3.64-4.84s-3.67,1.66-3.67,4.77v.28c0,3.18,1.24,4.91,3.67,4.91S131.86,112.4,131.86,109.33Z" fill="#fff"/><path d="M21.29,145.4v-.29c0-6.28,3.46-9.64,7.84-9.64a6,6,0,0,1,5.69,3.11V127.84h6.32v26.6H34.82v-3a6.24,6.24,0,0,1-5.76,3.42C24.78,154.86,21.29,151.79,21.29,145.4Zm13.7-.11V145c0-3.11-1.3-4.77-3.64-4.77s-3.63,1.59-3.63,4.8v.29c0,3.1,1.37,4.69,3.56,4.69S35,148.43,35,145.29Z" fill="#fff"/><path d="M43.37,145.43v-.28c0-5.94,4.41-9.68,10.14-9.68s10.06,3.64,10.06,9.5v.29c0,6-4.41,9.6-10.1,9.6S43.37,151.4,43.37,145.43Zm13.77-.1V145c0-3.11-1.23-4.84-3.63-4.84s-3.68,1.66-3.68,4.77v.29c0,3.17,1.24,4.91,3.68,4.91S57.14,148.4,57.14,145.33Z" fill="#fff"/><path d="M64.81,145.43v-.28c0-5.94,4.42-9.68,10-9.68,5,0,9.39,2.9,9.39,9.54v1.66h-13c.17,2.44,1.58,3.85,3.85,3.85,2.08,0,3-1,3.21-2.19H84.2c-.56,4.17-3.78,6.53-9.36,6.53C69.05,154.86,64.81,151.47,64.81,145.43Zm13.25-2.33c-.11-2.22-1.2-3.46-3.25-3.46s-3.22,1.24-3.53,3.46Z" fill="#fff"/><path d="M85.34,148.58h5.83c.21,1.34.81,2.08,2.61,2.08,1.55,0,2.26-.6,2.26-1.52s-.88-1.31-3.43-1.66c-4.94-.64-7-2.08-7-5.93,0-4.1,3.64-6.08,7.92-6.08,4.55,0,7.73,1.55,8.16,6H95.93a2.05,2.05,0,0,0-2.36-1.84c-1.38,0-2.09.6-2.09,1.45s.85,1.24,3.11,1.52c5.12.64,7.6,2,7.6,5.93,0,4.39-3.25,6.36-8.38,6.36S85.48,152.67,85.34,148.58Z" fill="#fff"/><path d="M28,188.56,20.62,172h6.85l3.81,9.86L34.82,172h6L31,196.62h-6Z" fill="#fff"/><path d="M40.51,181.43v-.28c0-5.94,4.41-9.68,10.13-9.68s10.07,3.63,10.07,9.5v.28c0,6-4.41,9.61-10.1,9.61S40.51,187.4,40.51,181.43Zm13.77-.11V181c0-3.11-1.23-4.84-3.64-4.84S47,177.86,47,181v.28c0,3.18,1.24,4.91,3.67,4.91S54.28,184.4,54.28,181.32Z" fill="#fff"/><path d="M62.8,184V172h6.32v11c0,2.09.81,3.11,2.61,3.11s3.15-1.13,3.15-3.5V172H81.2v18.48H74.88v-2.87A6.07,6.07,0,0,1,69,190.86C65.45,190.86,62.8,188.67,62.8,184Z" fill="#fff"/><path d="M84.42,172h6.32v3.67a5.84,5.84,0,0,1,6-3.92v5.9c-3.85-.1-6,1.1-6,4.07v8.76H84.42Z" fill="#fff"/><path d="M23.05,220.5v-8.23H20.83V208h2.22v-3.85h6.33V208H33v4.31H29.38v7.63a1.68,1.68,0,0,0,1.87,1.94,4.85,4.85,0,0,0,1.8-.32v4.81a13.31,13.31,0,0,1-3.5.53C25.38,226.86,23.05,224.84,23.05,220.5Z" fill="#fff"/><path d="M34.43,221.31c0-4.34,3.67-6,9.82-6H46v-.42c0-1.77-.43-2.94-2.44-2.94a2.27,2.27,0,0,0-2.51,2.19H35.14c.28-4.45,3.78-6.64,8.83-6.64s8.33,2.09,8.33,7v12H46.16v-2.15c-.89,1.34-2.51,2.58-5.48,2.58C37.36,226.86,34.43,225.23,34.43,221.31ZM46,220v-1.13H44.36c-2.55,0-3.68.49-3.68,2,0,1.06.71,1.73,2.19,1.73C44.67,222.58,46,221.56,46,220Z" fill="#fff"/><path d="M60,217,54.28,208h7.28l2.86,4.87L67.21,208h6.5l-5.83,8.58,6.4,9.89H67l-3.29-5.51-3.35,5.51H53.89Z" fill="#fff"/><path d="M73.47,217.42v-.28c0-5.93,4.41-9.68,10-9.68,5.05,0,9.4,2.9,9.4,9.54v1.66h-13c.18,2.44,1.59,3.85,3.85,3.85,2.08,0,3-.95,3.21-2.19h5.94c-.57,4.17-3.78,6.54-9.36,6.54C77.71,226.86,73.47,223.46,73.47,217.42Zm13.24-2.33c-.1-2.22-1.2-3.46-3.25-3.46-1.9,0-3.21,1.24-3.53,3.46Z" fill="#fff"/><path d="M94,220.57h5.83c.21,1.34.81,2.08,2.61,2.08,1.56,0,2.26-.6,2.26-1.52s-.88-1.3-3.42-1.66c-5-.63-7-2.08-7-5.93,0-4.1,3.64-6.08,7.91-6.08,4.56,0,7.74,1.56,8.16,6h-5.72a2.07,2.07,0,0,0-2.37-1.83c-1.38,0-2.08.6-2.08,1.44s.85,1.24,3.11,1.52c5.12.64,7.59,2,7.59,5.94,0,4.38-3.25,6.36-8.37,6.36S94.13,224.67,94,220.57Z" fill="#fff"/><path d="M20.65,244h6.61L29.94,255,33.05,244h5.09L40.89,255l3-11.06h6L44,262.43H38l-2.76-10.32-2.86,10.32H26.23Z" fill="#fff"/><path d="M51.53,235.83h6.32v11.09a6.52,6.52,0,0,1,6.08-3.46c3.56,0,6,2.22,6,7v12H63.64V251.69c0-2.08-.81-3.11-2.65-3.11s-3.14,1.13-3.14,3.5v10.35H51.53Z" fill="#fff"/><path d="M72.9,238.94a3.3,3.3,0,0,1,3.46-3.29,3.28,3.28,0,1,1,0,6.54A3.27,3.27,0,0,1,72.9,238.94Zm.32,5h6.32v18.48H73.22Z" fill="#fff"/><path d="M83.11,235.83H89.4v26.6H83.11Z" fill="#fff"/><path d="M91.8,253.42v-.28c0-5.94,4.42-9.68,10-9.68,5,0,9.39,2.9,9.39,9.54v1.66h-13c.18,2.43,1.59,3.85,3.85,3.85,2.09,0,3-1,3.22-2.19h5.93c-.56,4.17-3.78,6.53-9.36,6.53C96,262.85,91.8,259.46,91.8,253.42Zm13.25-2.33c-.11-2.23-1.2-3.46-3.25-3.46s-3.22,1.23-3.54,3.46Z" fill="#fff"/><path d="M28,296.55,20.62,280h6.85l3.81,9.86L34.82,280h6L31,304.61h-6Z" fill="#fff"/><path d="M40.51,289.42v-.29c0-5.93,4.41-9.67,10.13-9.67s10.07,3.63,10.07,9.5v.28c0,6-4.41,9.61-10.1,9.61S40.51,295.39,40.51,289.42Zm13.77-.11V289c0-3.11-1.23-4.84-3.64-4.84S47,285.85,47,289v.28c0,3.18,1.24,4.91,3.67,4.91S54.28,292.38,54.28,289.31Z" fill="#fff"/><path d="M62.8,292V280h6.32v11c0,2.09.81,3.11,2.61,3.11s3.15-1.13,3.15-3.5V280H81.2v18.47H74.88v-2.86A6.07,6.07,0,0,1,69,298.85C65.45,298.85,62.8,296.66,62.8,292Z" fill="#fff"/><path d="M21,328.56H26.8c.21,1.34.81,2.08,2.61,2.08,1.56,0,2.26-.6,2.26-1.52s-.88-1.3-3.42-1.66c-4.95-.63-7-2.08-7-5.93,0-4.1,3.63-6.08,7.91-6.08,4.56,0,7.74,1.56,8.16,6H31.57a2.07,2.07,0,0,0-2.37-1.84c-1.38,0-2.08.61-2.08,1.45s.84,1.24,3.1,1.52c5.13.64,7.6,2,7.6,5.94,0,4.38-3.25,6.35-8.37,6.35S21.11,332.65,21,328.56Z" fill="#fff"/><path d="M40.72,328.49v-8.23H38.49V316h2.23V312.1H47V316h3.64v4.31H47v7.63a1.68,1.68,0,0,0,1.87,1.94,4.82,4.82,0,0,0,1.8-.32v4.8a12.89,12.89,0,0,1-3.49.53C43.05,334.84,40.72,332.83,40.72,328.49Z" fill="#fff"/><path d="M52.09,329.3c0-4.35,3.68-6,9.82-6h1.77v-.43c0-1.76-.42-2.93-2.44-2.93a2.28,2.28,0,0,0-2.51,2.19H52.8c.28-4.45,3.78-6.64,8.83-6.64s8.34,2.09,8.34,7v12H63.82v-2.15c-.88,1.34-2.51,2.57-5.47,2.57C55,334.84,52.09,333.22,52.09,329.3ZM63.68,328v-1.13H62c-2.54,0-3.67.49-3.67,2,0,1.06.7,1.73,2.19,1.73C62.34,330.57,63.68,329.55,63.68,328Z" fill="#fff"/><path d="M78.2,332.55,70.82,316h6.85l3.81,9.85L85,316h6L81.17,340.6h-6Z" fill="#fff"/><path d="M22.21,343.82h6.32v11.09a6.51,6.51,0,0,1,6.07-3.46c3.57,0,6,2.22,6,7v12H34.32V359.68c0-2.09-.81-3.11-2.65-3.11s-3.14,1.13-3.14,3.5v10.35H22.21Z" fill="#fff"/><path d="M42.73,361.41v-.28c0-5.94,4.42-9.68,10.14-9.68s10.07,3.64,10.07,9.5v.28c0,6-4.42,9.61-10.11,9.61S42.73,367.38,42.73,361.41Zm13.78-.11V361c0-3.11-1.24-4.84-3.64-4.84S49.2,357.84,49.2,361v.28c0,3.18,1.23,4.91,3.67,4.91S56.51,364.38,56.51,361.3Z" fill="#fff"/><path d="M65.16,351.94h6.33v2.83a6.45,6.45,0,0,1,5.79-3.32,5,5,0,0,1,5,3.07,7.33,7.33,0,0,1,6.11-3.07c3.49,0,6,2.26,6,6.89v12.08H88.13v-11c0-1.88-.92-2.79-2.37-2.79-1.7,0-2.83,1.09-2.83,3.1v10.71H76.68v-11c0-1.88-.92-2.79-2.37-2.79-1.69,0-2.82,1.09-2.82,3.1v10.71H65.16Z" fill="#fff"/><path d="M96.54,361.41v-.28c0-5.94,4.41-9.68,10-9.68,5,0,9.4,2.89,9.4,9.54v1.66h-13c.18,2.43,1.59,3.85,3.85,3.85,2.08,0,3-1,3.21-2.19h5.94c-.57,4.16-3.78,6.53-9.36,6.53C100.77,370.84,96.54,367.45,96.54,361.41Zm13.24-2.33c-.1-2.23-1.2-3.46-3.25-3.46s-3.21,1.23-3.53,3.46Z" fill="#fff"/><path d="M117.7,367.24a3.52,3.52,0,0,1,3.6-3.57,3.57,3.57,0,1,1,0,7.14A3.52,3.52,0,0,1,117.7,367.24Z" fill="#fff"/></g></g></svg>