<svg xmlns="http://www.w3.org/2000/svg" viewBox="0 0 300 250"><title>300x250</title><g id="Layer_2" data-name="Layer 2"><g id="Artboard_1" data-name="Artboard 1" style="isolation:isolate"><g id="Rect"><rect width="300" height="250" fill="none"/></g><g id="H_R_Block_Free_Online_includes_Student_Loan_Interest_Deduction_" data-name="H&amp;R Block Free Online includes Student Loan Interest Deduction;"><path d="M20.59,40.88h4.73v6.27h5.41V40.88h4.71V57.32H30.73V50.83H25.32v6.49H20.59Z" fill="#fff"/><path d="M51.56,54l2.74,3.36H48.94l-1-1.2a6.55,6.55,0,0,1-4.44,1.47c-3.5,0-5.77-1.84-5.77-5,0-2.12,1.29-3.68,3.61-4.79a5.25,5.25,0,0,1-1-2.87c0-2.8,2.39-4.3,5.29-4.3,2.62,0,5,1.31,5,3.84,0,1.79-1.06,3.1-3.29,4.07l2.07,2.53,1.19-2.35h3.59Zm-5.7-.48-2.6-3.13a2,2,0,0,0-1.1,1.77,1.91,1.91,0,0,0,2.09,2.05A2.15,2.15,0,0,0,45.86,53.48Zm-.5-6.62c1.1-.53,1.63-1.15,1.63-2a1.18,1.18,0,0,0-1.22-1.27A1.32,1.32,0,0,0,44.41,45,3,3,0,0,0,45.36,46.86Z" fill="#fff"/><path d="M56.14,40.88h6.44c4.3,0,6.69,1.74,6.69,5.22v.09a4.29,4.29,0,0,1-3,4.32l3.93,6.81h-5l-3.33-5.89h-1.1v5.89h-4.7Zm6.21,7.49c1.59,0,2.37-.66,2.37-2v-.09c0-1.33-.83-1.86-2.34-1.86H60.84v3.95Z" fill="#fff"/><path d="M76.71,40.88H84c3.89,0,5.54,1.74,5.54,4.3v.09a3.38,3.38,0,0,1-2.78,3.54,3.58,3.58,0,0,1,3.29,3.84v.09c0,2.95-1.91,4.58-6,4.58h-7.4Zm6.39,6.53c1.47,0,2-.51,2-1.68v-.09c0-1.13-.6-1.64-2-1.64H81.31v3.41Zm.16,6.76c1.49,0,2.18-.69,2.18-1.91v-.09c0-1.24-.66-1.89-2.32-1.89H81.31v3.89Z" fill="#fff"/><path d="M92.07,40h4.09V57.32H92.07Z" fill="#fff"/><path d="M98.07,51.46v-.19c0-3.86,2.88-6.3,6.6-6.3s6.56,2.37,6.56,6.19v.18c0,3.91-2.88,6.25-6.58,6.25S98.07,55.34,98.07,51.46Zm9-.07V51.2c0-2-.8-3.15-2.37-3.15s-2.39,1.08-2.39,3.11v.18c0,2.07.81,3.2,2.39,3.2S107,53.39,107,51.39Z" fill="#fff"/><path d="M112.38,51.46v-.19a6,6,0,0,1,6.41-6.3c2.95,0,5.66,1.29,5.89,4.94h-3.86a1.78,1.78,0,0,0-1.93-1.74c-1.45,0-2.3,1-2.3,3.06v.18c0,2.09.8,3.17,2.37,3.17a2,2,0,0,0,2.09-2h3.7c-.12,3-2.16,5-6,5C115.11,57.59,112.38,55.5,112.38,51.46Z" fill="#fff"/><path d="M126.43,40h4.12v10l3.24-4.76h4.28l-3.94,5.41,4.26,6.62h-4.6l-3.24-5.27v5.27h-4.12Z" fill="#fff"/><path d="M144.6,40.88h11.11v3.65h-6.37V48h5.08V51.5h-5.08v5.82H144.6Z" fill="#fff"/><path d="M157.16,45.29h4.12v2.39a3.78,3.78,0,0,1,3.88-2.55V49c-2.51-.07-3.88.71-3.88,2.65v5.7h-4.12Z" fill="#fff"/><path d="M166.24,51.46v-.19a6.16,6.16,0,0,1,6.51-6.3c3.29,0,6.12,1.89,6.12,6.21v1.08h-8.46a2.4,2.4,0,0,0,2.5,2.51c1.36,0,1.93-.62,2.09-1.43h3.87c-.37,2.71-2.46,4.25-6.1,4.25S166.24,55.39,166.24,51.46Zm8.63-1.52c-.07-1.45-.79-2.26-2.12-2.26a2.3,2.3,0,0,0-2.3,2.26Z" fill="#fff"/><path d="M180,51.46v-.19a6.15,6.15,0,0,1,6.51-6.3c3.28,0,6.11,1.89,6.11,6.21v1.08h-8.46a2.4,2.4,0,0,0,2.51,2.51c1.35,0,1.93-.62,2.09-1.43h3.86c-.37,2.71-2.46,4.25-6.09,4.25S180,55.39,180,51.46Zm8.62-1.52c-.07-1.45-.78-2.26-2.11-2.26a2.28,2.28,0,0,0-2.3,2.26Z" fill="#fff"/><path d="M198.42,49.2V49c0-5,3.77-8.37,8.69-8.37s8.72,3.15,8.72,8.25v.19c0,5.06-3.47,8.5-8.79,8.5S198.42,54.15,198.42,49.2Zm12.49,0V49c0-2.92-1.47-4.64-3.8-4.64S203.34,46,203.34,49v.19c0,3,1.52,4.71,3.8,4.71S210.91,52.1,210.91,49.16Z" fill="#fff"/><path d="M217.76,45.29h4.12v1.93a4.23,4.23,0,0,1,4-2.25c2.33,0,3.94,1.45,3.94,4.53v7.82h-4.12v-7c0-1.36-.53-2-1.72-2s-2.05.74-2.05,2.28v6.74h-4.12Z" fill="#fff"/><path d="M232.23,40h4.09V57.32h-4.09Z" fill="#fff"/><path d="M238.79,42A2.27,2.27,0,1,1,241,44.14,2.12,2.12,0,0,1,238.79,42Zm.2,3.26h4.12v12H239Z" fill="#fff"/><path d="M245.66,45.29h4.12v1.93A4.23,4.23,0,0,1,253.73,45c2.33,0,3.94,1.45,3.94,4.53v7.82h-4.12v-7c0-1.36-.53-2-1.73-2s-2,.74-2,2.28v6.74h-4.12Z" fill="#fff"/><path d="M259.37,51.46v-.19a6.15,6.15,0,0,1,6.51-6.3c3.29,0,6.11,1.89,6.11,6.21v1.08h-8.46A2.41,2.41,0,0,0,266,54.77c1.35,0,1.93-.62,2.09-1.43H272c-.36,2.71-2.46,4.25-6.09,4.25S259.37,55.39,259.37,51.46ZM268,49.94c-.07-1.45-.78-2.26-2.11-2.26a2.29,2.29,0,0,0-2.3,2.26Z" fill="#fff"/><path d="M20.13,67a2.14,2.14,0,0,1,2.25-2.14A2.17,2.17,0,0,1,24.66,67a2.15,2.15,0,0,1-2.28,2.11A2.12,2.12,0,0,1,20.13,67Zm.2,3.26h4.12v12H20.33Z" fill="#fff"/><path d="M27,70.29h4.12v1.93A4.23,4.23,0,0,1,35.07,70C37.4,70,39,71.42,39,74.5v7.82H34.89v-7c0-1.36-.53-2-1.72-2s-2.05.74-2.05,2.28v6.74H27Z" fill="#fff"/><path d="M40.71,76.46v-.19A6.05,6.05,0,0,1,47.13,70c2.94,0,5.65,1.29,5.88,4.94H49.15a1.77,1.77,0,0,0-1.93-1.74c-1.45,0-2.3,1-2.3,3.06v.18c0,2.09.8,3.17,2.37,3.17a2,2,0,0,0,2.09-2h3.7c-.11,3-2.16,5-6,5C43.45,82.59,40.71,80.5,40.71,76.46Z" fill="#fff"/><path d="M54.88,65H59V82.32H54.88Z" fill="#fff"/><path d="M61.43,78.13V70.29h4.12v7.18c0,1.35.53,2,1.7,2s2-.74,2-2.28V70.29h4.11v12H69.3V80.46a4,4,0,0,1-3.82,2.13C63.16,82.59,61.43,81.17,61.43,78.13Z" fill="#fff"/><path d="M75.26,76.43v-.18c0-4.1,2.25-6.28,5.1-6.28a3.9,3.9,0,0,1,3.7,2V65h4.12V82.32H84.06v-2a4,4,0,0,1-3.74,2.23C77.53,82.59,75.26,80.59,75.26,76.43Zm8.92-.07v-.18c0-2-.85-3.11-2.37-3.11s-2.37,1-2.37,3.13v.19c0,2,.9,3,2.32,3S84.18,78.41,84.18,76.36Z" fill="#fff"/><path d="M90,76.46v-.19a6.15,6.15,0,0,1,6.5-6.3c3.29,0,6.12,1.89,6.12,6.21v1.08H94.14a2.4,2.4,0,0,0,2.51,2.51c1.35,0,1.93-.62,2.09-1.43h3.86c-.37,2.71-2.46,4.25-6.09,4.25S90,80.39,90,76.46Zm8.62-1.52c-.07-1.45-.78-2.26-2.12-2.26a2.28,2.28,0,0,0-2.29,2.26Z" fill="#fff"/><path d="M103.68,78.5h3.8c.14.88.53,1.36,1.7,1.36,1,0,1.47-.39,1.47-1s-.57-.85-2.23-1.08c-3.22-.41-4.57-1.36-4.57-3.86,0-2.67,2.36-4,5.15-4,3,0,5,1,5.31,3.89h-3.73a1.34,1.34,0,0,0-1.54-1.2c-.89,0-1.35.39-1.35.94s.55.81,2,1c3.33.42,4.94,1.29,4.94,3.87,0,2.85-2.11,4.13-5.45,4.13S103.78,81.17,103.68,78.5Z" fill="#fff"/><path d="M120.18,77.1h4.48c.11,1.17.64,2.14,2.6,2.14,1.35,0,2.11-.67,2.11-1.64s-.62-1.28-2.6-1.58c-4.64-.55-6.2-1.93-6.2-5.24,0-3,2.43-5.13,6.37-5.13s6.18,1.65,6.48,5.13h-4.37A1.87,1.87,0,0,0,126.94,69c-1.27,0-1.91.58-1.91,1.41s.5,1.33,2.55,1.61c4.16.46,6.3,1.54,6.3,5.1,0,3-2.39,5.47-6.62,5.47C122.66,82.59,120.31,80.66,120.18,77.1Z" fill="#fff"/><path d="M136.3,78.46V73.1h-1.45V70.29h1.45v-2.5h4.11v2.5h2.37V73.1h-2.37v5c0,.88.44,1.27,1.22,1.27a3.14,3.14,0,0,0,1.18-.21v3.13a8.66,8.66,0,0,1-2.28.34C137.82,82.59,136.3,81.28,136.3,78.46Z" fill="#fff"/><path d="M144.6,78.13V70.29h4.12v7.18c0,1.35.53,2,1.7,2s2-.74,2-2.28V70.29h4.12v12h-4.12V80.46a3.93,3.93,0,0,1-3.81,2.13C146.33,82.59,144.6,81.17,144.6,78.13Z" fill="#fff"/><path d="M158.42,76.43v-.18c0-4.1,2.26-6.28,5.11-6.28a3.91,3.91,0,0,1,3.7,2V65h4.12V82.32h-4.12v-2a4,4,0,0,1-3.75,2.23C160.7,82.59,158.42,80.59,158.42,76.43Zm8.93-.07v-.18c0-2-.85-3.11-2.37-3.11s-2.37,1-2.37,3.13v.19c0,2,.9,3,2.32,3S167.35,78.41,167.35,76.36Z" fill="#fff"/><path d="M173.14,76.46v-.19a6.16,6.16,0,0,1,6.51-6.3c3.29,0,6.12,1.89,6.12,6.21v1.08h-8.46a2.4,2.4,0,0,0,2.5,2.51c1.36,0,1.93-.62,2.09-1.43h3.87c-.37,2.71-2.46,4.25-6.1,4.25S173.14,80.39,173.14,76.46Zm8.63-1.52c-.07-1.45-.79-2.26-2.12-2.26a2.3,2.3,0,0,0-2.3,2.26Z" fill="#fff"/><path d="M187.54,70.29h4.12v1.93a4.23,4.23,0,0,1,4-2.25c2.32,0,3.93,1.45,3.93,4.53v7.82h-4.11v-7c0-1.36-.53-2-1.73-2s-2,.74-2,2.28v6.74h-4.12Z" fill="#fff"/><path d="M202.45,78.46V73.1H201V70.29h1.45v-2.5h4.11v2.5h2.37V73.1h-2.37v5c0,.88.44,1.27,1.22,1.27a3.09,3.09,0,0,0,1.17-.21v3.13a8.57,8.57,0,0,1-2.27.34C204,82.59,202.45,81.28,202.45,78.46Z" fill="#fff"/><path d="M215.74,65.88h4.74V78.66h6.2v3.66H215.74Z" fill="#fff"/><path d="M227.72,76.46v-.19c0-3.86,2.88-6.3,6.6-6.3s6.56,2.37,6.56,6.19v.18c0,3.91-2.88,6.25-6.58,6.25S227.72,80.34,227.72,76.46Zm9-.07V76.2c0-2-.81-3.15-2.37-3.15s-2.39,1.08-2.39,3.11v.18c0,2.07.8,3.2,2.39,3.2S236.69,78.39,236.69,76.39Z" fill="#fff"/><path d="M242,79c0-2.82,2.39-3.93,6.39-3.93h1.15v-.27c0-1.15-.27-1.91-1.58-1.91a1.48,1.48,0,0,0-1.64,1.42h-3.86c.19-2.89,2.46-4.32,5.75-4.32s5.43,1.36,5.43,4.55v7.8h-4v-1.4a4,4,0,0,1-3.57,1.67C243.89,82.59,242,81.54,242,79Zm7.54-.87v-.73h-1.08c-1.65,0-2.39.32-2.39,1.31,0,.69.46,1.12,1.43,1.12C248.65,79.81,249.52,79.15,249.52,78.11Z" fill="#fff"/><path d="M256,70.29h4.12v1.93A4.26,4.26,0,0,1,264,70c2.32,0,3.93,1.45,3.93,4.53v7.82h-4.12v-7c0-1.36-.53-2-1.72-2s-2.05.74-2.05,2.28v6.74H256Z" fill="#fff"/><path d="M20.68,90.88h4.76v16.44H20.68Z" fill="#fff"/><path d="M28.31,95.29h4.12v1.93a4.25,4.25,0,0,1,4-2.25c2.32,0,3.93,1.45,3.93,4.53v7.82H36.2v-7c0-1.36-.53-2-1.72-2s-2,.74-2,2.28v6.74H28.31Z" fill="#fff"/><path d="M43.22,103.46V98.1H41.77V95.29h1.45v-2.5h4.11v2.5H49.7V98.1H47.33v5c0,.88.44,1.27,1.22,1.27a3.14,3.14,0,0,0,1.18-.21v3.13a8.59,8.59,0,0,1-2.28.34C44.74,107.59,43.22,106.28,43.22,103.46Z" fill="#fff"/><path d="M51,101.46v-.19A6.15,6.15,0,0,1,57.48,95c3.29,0,6.11,1.89,6.11,6.21v1.08H55.13a2.41,2.41,0,0,0,2.51,2.51c1.35,0,1.93-.62,2.09-1.43h3.86c-.36,2.71-2.46,4.25-6.09,4.25S51,105.39,51,101.46Zm8.62-1.52c-.07-1.45-.78-2.26-2.11-2.26a2.29,2.29,0,0,0-2.3,2.26Z" fill="#fff"/><path d="M65.37,95.29h4.11v2.39a3.8,3.8,0,0,1,3.89-2.55V99c-2.51-.07-3.89.71-3.89,2.65v5.7H65.37Z" fill="#fff"/><path d="M74.45,101.46v-.19A6.16,6.16,0,0,1,81,95c3.29,0,6.12,1.89,6.12,6.21v1.08H78.61a2.41,2.41,0,0,0,2.51,2.51c1.36,0,1.93-.62,2.09-1.43h3.87c-.37,2.71-2.46,4.25-6.1,4.25S74.45,105.39,74.45,101.46Zm8.63-1.52c-.07-1.45-.79-2.26-2.12-2.26a2.3,2.3,0,0,0-2.3,2.26Z" fill="#fff"/><path d="M88.16,103.5H92c.14.88.53,1.36,1.71,1.36,1,0,1.47-.39,1.47-1s-.58-.85-2.23-1.08c-3.22-.41-4.58-1.36-4.58-3.86,0-2.67,2.37-4,5.15-4,3,0,5,1,5.31,3.89H95.06a1.34,1.34,0,0,0-1.54-1.2c-.9,0-1.36.39-1.36.94s.55.81,2,1c3.34.42,4.95,1.29,4.95,3.87,0,2.85-2.12,4.13-5.45,4.13S88.25,106.17,88.16,103.5Z" fill="#fff"/><path d="M101.36,103.46V98.1H99.91V95.29h1.45v-2.5h4.12v2.5h2.37V98.1h-2.37v5c0,.88.43,1.27,1.22,1.27a3.09,3.09,0,0,0,1.17-.21v3.13a8.59,8.59,0,0,1-2.28.34C102.88,107.59,101.36,106.28,101.36,103.46Z" fill="#fff"/><path d="M114.66,90.88h6c5.84,0,8.81,2.92,8.81,8v.19c0,5.12-3,8.23-8.83,8.23h-6Zm5.81,12.81c2.81,0,4-1.48,4-4.53V99c0-3.13-1.24-4.46-4.09-4.46h-1v9.18Z" fill="#fff"/><path d="M130.73,101.46v-.19a6.16,6.16,0,0,1,6.51-6.3c3.29,0,6.12,1.89,6.12,6.21v1.08h-8.47a2.41,2.41,0,0,0,2.51,2.51c1.36,0,1.93-.62,2.09-1.43h3.87c-.37,2.71-2.46,4.25-6.1,4.25S130.73,105.39,130.73,101.46Zm8.63-1.52c-.07-1.45-.79-2.26-2.12-2.26a2.3,2.3,0,0,0-2.3,2.26Z" fill="#fff"/><path d="M144.53,101.43v-.18c0-4.1,2.26-6.28,5.11-6.28a3.91,3.91,0,0,1,3.7,2V90h4.12v17.32h-4.12v-2a4,4,0,0,1-3.75,2.23C146.81,107.59,144.53,105.59,144.53,101.43Zm8.92-.07v-.18c0-2-.85-3.11-2.36-3.11s-2.37,1-2.37,3.13v.19c0,2,.89,3,2.32,3S153.45,103.41,153.45,101.36Z" fill="#fff"/><path d="M159.8,103.13V95.29h4.12v7.18c0,1.35.53,2,1.7,2s2-.74,2-2.28V95.29h4.11v12h-4.11v-1.86a4,4,0,0,1-3.82,2.13C161.53,107.59,159.8,106.17,159.8,103.13Z" fill="#fff"/><path d="M173.58,101.46v-.19A6.05,6.05,0,0,1,180,95c2.94,0,5.65,1.29,5.88,4.94H182a1.78,1.78,0,0,0-1.93-1.74c-1.45,0-2.3,1-2.3,3.06v.18c0,2.09.8,3.17,2.37,3.17a2,2,0,0,0,2.09-2H186c-.11,3-2.16,5-6,5C176.32,107.59,173.58,105.5,173.58,101.46Z" fill="#fff"/><path d="M188.19,103.46V98.1h-1.45V95.29h1.45v-2.5h4.11v2.5h2.37V98.1H192.3v5c0,.88.44,1.27,1.22,1.27a3.05,3.05,0,0,0,1.17-.21v3.13a8.57,8.57,0,0,1-2.27.34C189.7,107.59,188.19,106.28,188.19,103.46Z" fill="#fff"/><path d="M196.49,92a2.14,2.14,0,0,1,2.25-2.14A2.17,2.17,0,0,1,201,92a2.15,2.15,0,0,1-2.28,2.11A2.12,2.12,0,0,1,196.49,92Zm.21,3.26h4.11v12H196.7Z" fill="#fff"/><path d="M202.72,101.46v-.19c0-3.86,2.88-6.3,6.6-6.3s6.55,2.37,6.55,6.19v.18c0,3.91-2.87,6.25-6.57,6.25S202.72,105.34,202.72,101.46Zm9-.07v-.19c0-2-.81-3.15-2.37-3.15s-2.39,1.08-2.39,3.11v.18c0,2.07.8,3.2,2.39,3.2S211.69,103.39,211.69,101.39Z" fill="#fff"/><path d="M217.67,95.29h4.12v1.93a4.23,4.23,0,0,1,4-2.25c2.32,0,3.93,1.45,3.93,4.53v7.82h-4.11v-7c0-1.36-.53-2-1.73-2s-2,.74-2,2.28v6.74h-4.12Z" fill="#fff"/><path d="M231,109.18l1.91-6.05,3.82,1.36-3.29,5.63Zm1.43-10.51a2.29,2.29,0,0,1,2.35-2.32,2.33,2.33,0,1,1,0,4.65A2.29,2.29,0,0,1,232.46,98.67Z" fill="#fff"/><path d="M23.74,119.51H19.48v-3.63H32.73v3.63H28.47v12.81H23.74Z" fill="#fff"/><path d="M33.44,128.13v-7.84h4.12v7.18c0,1.35.53,2,1.7,2s2.05-.74,2.05-2.28v-6.92h4.11v12H41.31v-1.86a4,4,0,0,1-3.82,2.13C35.17,132.59,33.44,131.17,33.44,128.13Z" fill="#fff"/><path d="M47.86,120.29H52v2.39a3.8,3.8,0,0,1,3.89-2.55V124c-2.51-.07-3.89.71-3.89,2.65v5.7H47.86Z" fill="#fff"/><path d="M61.82,130.46v1.86H57.71V115h4.11v7.09A4.26,4.26,0,0,1,65.57,120c2.81,0,5.08,2.12,5.08,6.23v.19c0,4.14-2.27,6.2-5.1,6.2A3.92,3.92,0,0,1,61.82,130.46Zm4.65-4.07v-.19c0-2.11-.92-3.13-2.37-3.13s-2.39,1.09-2.39,3.11v.18c0,2,.9,3.08,2.39,3.08S66.47,128.36,66.47,126.39Z" fill="#fff"/><path d="M71.85,126.46v-.19c0-3.86,2.88-6.3,6.6-6.3S85,122.34,85,126.16v.18c0,3.91-2.88,6.25-6.58,6.25S71.85,130.34,71.85,126.46Zm9-.07v-.19c0-2-.8-3.15-2.37-3.15s-2.39,1.08-2.39,3.11v.18c0,2.07.81,3.2,2.39,3.2S80.82,128.39,80.82,126.39Z" fill="#fff"/><path d="M90.32,119.51H86.07v-3.63H99.31v3.63H95.06v12.81H90.32Z" fill="#fff"/><path d="M98.83,129c0-2.82,2.39-3.93,6.4-3.93h1.15v-.27c0-1.15-.28-1.91-1.59-1.91a1.47,1.47,0,0,0-1.63,1.42H99.29c.19-2.89,2.46-4.32,5.75-4.32s5.43,1.36,5.43,4.55v7.8h-4v-1.4a4,4,0,0,1-3.57,1.67C100.74,132.59,98.83,131.54,98.83,129Zm7.55-.87v-.73h-1.09c-1.65,0-2.39.32-2.39,1.31,0,.69.46,1.12,1.43,1.12C105.5,129.81,106.38,129.15,106.38,128.11Z" fill="#fff"/><path d="M115.85,126.2l-3.75-5.91h4.74l1.86,3.18,1.82-3.18h4.23L121,125.88l4.16,6.44h-4.74l-2.14-3.59-2.18,3.59h-4.21Z" fill="#fff"/><path d="M130.55,126.43v-.18c0-4.1,2.25-6.28,5.1-6.28a3.92,3.92,0,0,1,3.71,2v-7h4.11v17.32h-4.11v-2a4.05,4.05,0,0,1-3.75,2.23C132.83,132.59,130.55,130.59,130.55,126.43Zm8.92-.07v-.18c0-2-.85-3.11-2.37-3.11s-2.37,1-2.37,3.13v.19c0,2,.9,3,2.33,3S139.47,128.41,139.47,126.36Z" fill="#fff"/><path d="M145.27,126.46v-.19c0-3.86,2.87-6.3,6.6-6.3s6.55,2.37,6.55,6.19v.18c0,3.91-2.87,6.25-6.57,6.25S145.27,130.34,145.27,126.46Zm9-.07v-.19c0-2-.81-3.15-2.37-3.15s-2.39,1.08-2.39,3.11v.18c0,2.07.8,3.2,2.39,3.2S154.24,128.39,154.24,126.39Z" fill="#fff"/><path d="M159.57,126.46v-.19a6.16,6.16,0,0,1,6.51-6.3c3.29,0,6.12,1.89,6.12,6.21v1.08h-8.46a2.4,2.4,0,0,0,2.5,2.51c1.36,0,1.93-.62,2.1-1.43h3.86c-.37,2.71-2.46,4.25-6.09,4.25C162.33,132.59,159.57,130.39,159.57,126.46Zm8.63-1.52c-.07-1.45-.78-2.26-2.12-2.26a2.3,2.3,0,0,0-2.3,2.26Z" fill="#fff"/><path d="M173.28,128.5h3.8c.13.88.53,1.36,1.7,1.36,1,0,1.47-.39,1.47-1s-.58-.85-2.23-1.08c-3.22-.41-4.58-1.36-4.58-3.86,0-2.67,2.37-4,5.15-4,3,0,5,1,5.32,3.89h-3.73a1.34,1.34,0,0,0-1.54-1.2c-.9,0-1.36.39-1.36.94s.55.81,2,1c3.33.42,4.94,1.29,4.94,3.87,0,2.85-2.11,4.13-5.45,4.13S173.37,131.17,173.28,128.5Z" fill="#fff"/><path d="M185.93,120.29h4.12v1.93A4.23,4.23,0,0,1,194,120c2.33,0,3.94,1.45,3.94,4.53v7.82h-4.12v-7c0-1.36-.53-2-1.73-2s-2,.74-2,2.28v6.74h-4.12Z" fill="#fff"/><path d="M199.57,121.58l1.84-6L205,116.8l-3.15,5.68Z" fill="#fff"/><path d="M207,128.46V123.1h-1.45v-2.81H207v-2.5h4.12v2.5h2.36v2.81h-2.36v5c0,.88.43,1.27,1.21,1.27a3.14,3.14,0,0,0,1.18-.21v3.13a8.59,8.59,0,0,1-2.28.34C208.52,132.59,207,131.28,207,128.46Z" fill="#fff"/><path d="M215.23,130.25a2.29,2.29,0,0,1,2.35-2.32,2.32,2.32,0,1,1,0,4.64A2.29,2.29,0,0,1,215.23,130.25Z" fill="#fff"/></g></g></g></svg>