<svg xmlns="http://www.w3.org/2000/svg" viewBox="0 0 729 91"><title>Asset 12</title><g id="Layer_2" data-name="Layer 2"><g id="Layer_23" data-name="Layer 23"><rect x="0.5" y="0.5" width="728" height="90" fill="none" stroke="#000" stroke-miterlimit="10"/></g><g id="Real-time_answers_for_your_real-time_questions." data-name="Real-time answers for your real-time questions."><path d="M122.78,15.75H132c6.17,0,9.6,2.51,9.6,7.49v.13a6.17,6.17,0,0,1-4.25,6.21L143,39.35h-7.13l-4.79-8.45h-1.58v8.45h-6.73Zm8.91,10.76c2.28,0,3.4-1,3.4-2.87v-.13c0-1.92-1.19-2.68-3.37-2.68h-2.21v5.68Z" fill="#fff"/><path d="M143,30.93v-.26c0-5.55,4.12-9,9.34-9,4.72,0,8.78,2.71,8.78,8.92v1.55H149c.17,2.27,1.49,3.6,3.6,3.6,1.94,0,2.77-.9,3-2h5.55c-.53,3.89-3.54,6.1-8.75,6.1C147,39.74,143,36.58,143,30.93Zm12.37-2.18c-.1-2.08-1.12-3.23-3-3.23s-3,1.15-3.3,3.23Z" fill="#fff"/><path d="M162.34,34.56c0-4.06,3.44-5.64,9.18-5.64h1.65v-.4c0-1.65-.4-2.74-2.28-2.74a2.12,2.12,0,0,0-2.34,2H163c.27-4.16,3.54-6.21,8.25-6.21S179,23.57,179,28.16V39.35H173.3v-2c-.82,1.25-2.34,2.4-5.11,2.4C165.08,39.74,162.34,38.23,162.34,34.56Zm10.83-1.25V32.25h-1.55c-2.38,0-3.43.46-3.43,1.88,0,1,.66,1.62,2,1.62C171.91,35.75,173.17,34.79,173.17,33.31Z" fill="#fff"/><path d="M182.08,14.5H188V39.35h-5.87Z" fill="#fff"/><path d="M191.05,27.7h9.24v4.45h-9.24Z" fill="#fff"/><path d="M204,33.8V26.11h-2.08v-4H204v-3.6h5.91v3.6h3.4v4h-3.4v7.13c0,1.26.63,1.82,1.75,1.82a4.45,4.45,0,0,0,1.68-.3v4.49a12.35,12.35,0,0,1-3.27.49C206.2,39.74,204,37.86,204,33.8Z" fill="#fff"/><path d="M215.44,17.4a3.26,3.26,0,1,1,3.23,3A3.08,3.08,0,0,1,215.44,17.4Zm.3,4.69h5.9V39.35h-5.9Z" fill="#fff"/><path d="M224.81,22.09h5.91v2.64a6,6,0,0,1,5.41-3.11,4.72,4.72,0,0,1,4.69,2.88,6.83,6.83,0,0,1,5.71-2.88c3.27,0,5.64,2.12,5.64,6.44V39.35h-5.91V29.05c0-1.75-.85-2.61-2.21-2.61-1.58,0-2.64,1-2.64,2.91v10h-5.84V29.05c0-1.75-.86-2.61-2.21-2.61-1.58,0-2.64,1-2.64,2.91v10h-5.91Z" fill="#fff"/><path d="M254.12,30.93v-.26c0-5.55,4.12-9,9.34-9,4.71,0,8.77,2.71,8.77,8.92v1.55H260.09c.16,2.27,1.48,3.6,3.6,3.6,1.94,0,2.77-.9,3-2h5.54c-.52,3.89-3.53,6.1-8.74,6.1C258.08,39.74,254.12,36.58,254.12,30.93Zm12.37-2.18c-.1-2.08-1.12-3.23-3-3.23s-3,1.15-3.31,3.23Z" fill="#fff"/><path d="M279.29,34.56c0-4.06,3.44-5.64,9.18-5.64h1.65v-.4c0-1.65-.4-2.74-2.28-2.74a2.12,2.12,0,0,0-2.34,2H280c.27-4.16,3.53-6.21,8.25-6.21S296,23.57,296,28.16V39.35h-5.74v-2c-.82,1.25-2.34,2.4-5.11,2.4C282,39.74,279.29,38.23,279.29,34.56Zm10.83-1.25V32.25h-1.55c-2.38,0-3.43.46-3.43,1.88,0,1,.66,1.62,2,1.62C288.86,35.75,290.12,34.79,290.12,33.31Z" fill="#fff"/><path d="M298.86,22.09h5.91v2.77a6.1,6.1,0,0,1,5.68-3.24c3.33,0,5.64,2.08,5.64,6.51V39.35h-5.91v-10c0-1.95-.76-2.91-2.47-2.91s-2.94,1.06-2.94,3.27v9.67h-5.91Z" fill="#fff"/><path d="M317.8,33.87h5.45c.2,1.25.76,2,2.44,2,1.45,0,2.11-.56,2.11-1.42s-.82-1.22-3.2-1.55c-4.62-.6-6.57-2-6.57-5.55,0-3.83,3.4-5.68,7.4-5.68,4.26,0,7.23,1.46,7.62,5.58h-5.34a1.94,1.94,0,0,0-2.22-1.71c-1.28,0-1.94.56-1.94,1.35s.79,1.16,2.9,1.42c4.79.59,7.1,1.85,7.1,5.54,0,4.1-3,5.94-7.82,5.94S317.94,37.7,317.8,33.87Z" fill="#fff"/><path d="M333.61,22.09h6.17l2.51,10.33,2.91-10.33H350l2.57,10.33,2.81-10.33h5.61l-5.48,17.26h-5.64l-2.58-9.64-2.67,9.64h-5.74Z" fill="#fff"/><path d="M360.77,30.93v-.26c0-5.55,4.13-9,9.34-9,4.72,0,8.78,2.71,8.78,8.92v1.55H366.74c.17,2.27,1.49,3.6,3.6,3.6,2,0,2.77-.9,3-2h5.55c-.53,3.89-3.53,6.1-8.75,6.1C364.73,39.74,360.77,36.58,360.77,30.93Zm12.38-2.18c-.1-2.08-1.13-3.23-3-3.23s-3,1.15-3.3,3.23Z" fill="#fff"/><path d="M380.93,22.09h5.91v3.43a5.44,5.44,0,0,1,5.58-3.66v5.51c-3.6-.1-5.58,1-5.58,3.79v8.19h-5.91Z" fill="#fff"/><path d="M393.47,33.87h5.45c.2,1.25.76,2,2.44,2,1.45,0,2.11-.56,2.11-1.42s-.82-1.22-3.2-1.55c-4.62-.6-6.57-2-6.57-5.55,0-3.83,3.4-5.68,7.4-5.68,4.25,0,7.22,1.46,7.62,5.58h-5.35a1.92,1.92,0,0,0-2.21-1.71c-1.28,0-2,.56-2,1.35s.8,1.16,2.91,1.42c4.79.59,7.1,1.85,7.1,5.54,0,4.1-3,5.94-7.83,5.94S393.6,37.7,393.47,33.87Z" fill="#fff"/><path d="M418,26.11h-2.17v-4H418V20.57c0-4.29,2.68-6.34,6.77-6.34a10.5,10.5,0,0,1,2.71.37v4.32a5.52,5.52,0,0,0-1.62-.23,1.73,1.73,0,0,0-2,1.88v1.52h3.5v4h-3.5V39.35H418Z" fill="#fff"/><path d="M427.86,30.93v-.26c0-5.55,4.12-9,9.47-9s9.41,3.4,9.41,8.88v.27c0,5.61-4.13,9-9.44,9S427.86,36.51,427.86,30.93Zm12.87-.1v-.26c0-2.9-1.16-4.52-3.4-4.52s-3.43,1.55-3.43,4.45v.27c0,3,1.15,4.58,3.43,4.58S440.73,33.71,440.73,30.83Z" fill="#fff"/><path d="M448.81,22.09h5.91v3.43a5.43,5.43,0,0,1,5.58-3.66v5.51c-3.6-.1-5.58,1-5.58,3.79v8.19h-5.91Z" fill="#fff"/><path d="M127.66,72.6l-6.9-15.51h6.41l3.56,9.21,3.3-9.21h5.65l-9.25,23h-5.64Z" fill="#fff"/><path d="M139.34,65.93v-.26c0-5.55,4.13-9.05,9.47-9.05s9.41,3.4,9.41,8.88v.27c0,5.61-4.12,9-9.44,9S139.34,71.51,139.34,65.93Zm12.87-.1v-.26c0-2.9-1.15-4.52-3.4-4.52s-3.43,1.55-3.43,4.45v.27c0,3,1.16,4.59,3.43,4.59S152.21,68.71,152.21,65.83Z" fill="#fff"/><path d="M160.17,68.34V57.09h5.9V67.38c0,2,.76,2.91,2.45,2.91s2.93-1.06,2.93-3.27V57.09h5.91V74.35h-5.91V71.68A5.66,5.66,0,0,1,166,74.75C162.64,74.75,160.17,72.7,160.17,68.34Z" fill="#fff"/><path d="M180.36,57.09h5.91v3.43a5.43,5.43,0,0,1,5.58-3.66v5.51c-3.6-.1-5.58,1-5.58,3.79v8.19h-5.91Z" fill="#fff"/><path d="M200,57.09h5.9v3.43a5.44,5.44,0,0,1,5.58-3.66v5.51c-3.6-.1-5.58,1-5.58,3.79v8.19H200Z" fill="#fff"/><path d="M212.54,65.93v-.26c0-5.55,4.12-9.05,9.34-9.05,4.72,0,8.78,2.71,8.78,8.92v1.55H218.51c.16,2.28,1.48,3.6,3.6,3.6,1.94,0,2.77-.9,3-2h5.55c-.53,3.89-3.54,6.11-8.75,6.11C216.5,74.75,212.54,71.58,212.54,65.93Zm12.37-2.18c-.1-2.08-1.12-3.23-3-3.23s-3,1.15-3.3,3.23Z" fill="#fff"/><path d="M231.87,69.56c0-4.06,3.44-5.64,9.18-5.64h1.65v-.4c0-1.65-.4-2.74-2.28-2.74a2.12,2.12,0,0,0-2.34,2h-5.55c.27-4.16,3.53-6.21,8.25-6.21s7.79,2,7.79,6.54V74.35h-5.74v-2c-.82,1.26-2.34,2.42-5.12,2.42C234.61,74.75,231.87,73.23,231.87,69.56Zm10.83-1.25V67.25h-1.55c-2.38,0-3.44.46-3.44,1.88,0,1,.67,1.62,2,1.62C241.44,70.75,242.7,69.79,242.7,68.31Z" fill="#fff"/><path d="M251.61,49.5h5.87V74.35h-5.87Z" fill="#fff"/><path d="M260.58,62.7h9.24v4.45h-9.24Z" fill="#fff"/><path d="M273.55,68.8V61.11h-2.08v-4h2.08v-3.6h5.91v3.6h3.4v4h-3.4v7.13c0,1.26.63,1.82,1.75,1.82a4.45,4.45,0,0,0,1.68-.3v4.49a12.28,12.28,0,0,1-3.27.5C275.73,74.75,273.55,72.86,273.55,68.8Z" fill="#fff"/><path d="M285,52.4a3.08,3.08,0,0,1,3.23-3.07,3.06,3.06,0,1,1,0,6.11A3.06,3.06,0,0,1,285,52.4Zm.3,4.69h5.9V74.35h-5.9Z" fill="#fff"/><path d="M294.34,57.09h5.91v2.64a6,6,0,0,1,5.41-3.11,4.72,4.72,0,0,1,4.69,2.88,6.83,6.83,0,0,1,5.71-2.88c3.27,0,5.64,2.12,5.64,6.44V74.35h-5.91V64.05c0-1.75-.85-2.61-2.21-2.61-1.58,0-2.64,1-2.64,2.91v10H305.1V64.05c0-1.75-.86-2.61-2.21-2.61-1.59,0-2.64,1-2.64,2.91v10h-5.91Z" fill="#fff"/><path d="M323.64,65.93v-.26c0-5.55,4.13-9.05,9.34-9.05,4.72,0,8.78,2.71,8.78,8.92v1.55H329.62c.16,2.28,1.48,3.6,3.6,3.6,1.94,0,2.77-.9,3-2h5.54c-.52,3.89-3.53,6.11-8.74,6.11C327.61,74.75,323.64,71.58,323.64,65.93ZM336,63.75c-.1-2.08-1.12-3.23-3-3.23s-3,1.15-3.3,3.23Z" fill="#fff"/><path d="M361.6,71.68a6,6,0,0,1-5.38,3.07c-4,0-7.26-2.88-7.26-8.85v-.26c0-5.88,3.23-9,7.32-9a5.6,5.6,0,0,1,5.32,2.91V57.09h5.9v23h-5.9Zm.16-5.88v-.26c0-2.91-1.22-4.46-3.4-4.46s-3.4,1.49-3.4,4.49v.26c0,2.91,1.29,4.39,3.34,4.39S361.76,68.74,361.76,65.8Z" fill="#fff"/><path d="M370.37,68.34V57.09h5.91V67.38c0,2,.76,2.91,2.44,2.91s2.94-1.06,2.94-3.27V57.09h5.91V74.35h-5.91V71.68a5.67,5.67,0,0,1-5.48,3.07C372.85,74.75,370.37,72.7,370.37,68.34Z" fill="#fff"/><path d="M389.64,65.93v-.26c0-5.55,4.13-9.05,9.34-9.05,4.72,0,8.78,2.71,8.78,8.92v1.55H395.62c.16,2.28,1.48,3.6,3.59,3.6,2,0,2.78-.9,3-2h5.54c-.52,3.89-3.53,6.11-8.74,6.11C393.6,74.75,389.64,71.58,389.64,65.93ZM402,63.75c-.1-2.08-1.12-3.23-3-3.23s-3,1.15-3.3,3.23Z" fill="#fff"/><path d="M408.82,68.87h5.44c.2,1.25.76,1.95,2.44,1.95,1.46,0,2.12-.56,2.12-1.42s-.83-1.22-3.2-1.55c-4.63-.6-6.57-1.95-6.57-5.55,0-3.83,3.4-5.68,7.39-5.68,4.26,0,7.23,1.46,7.62,5.58h-5.34a1.93,1.93,0,0,0-2.21-1.71c-1.29,0-1.95.56-1.95,1.35s.79,1.16,2.9,1.42c4.79.59,7.1,1.85,7.1,5.54,0,4.1-3,6-7.82,6S409,72.7,408.82,68.87Z" fill="#fff"/><path d="M427.26,68.8V61.11h-2.08v-4h2.08v-3.6h5.91v3.6h3.4v4h-3.4v7.13c0,1.26.63,1.82,1.75,1.82a4.42,4.42,0,0,0,1.68-.3v4.49a12.27,12.27,0,0,1-3.26.5C429.44,74.75,427.26,72.86,427.26,68.8Z" fill="#fff"/><path d="M438.68,52.4a3.26,3.26,0,1,1,3.24,3A3.09,3.09,0,0,1,438.68,52.4Zm.3,4.69h5.91V74.35H439Z" fill="#fff"/><path d="M447.13,65.93v-.26c0-5.55,4.12-9.05,9.47-9.05S466,60,466,65.5v.27c0,5.61-4.13,9-9.44,9S447.13,71.51,447.13,65.93Zm12.87-.1v-.26c0-2.9-1.15-4.52-3.4-4.52s-3.43,1.55-3.43,4.45v.27c0,3,1.15,4.59,3.43,4.59S460,68.71,460,65.83Z" fill="#fff"/><path d="M468.08,57.09H474v2.77a6.11,6.11,0,0,1,5.68-3.24c3.33,0,5.64,2.08,5.64,6.51V74.35H479.4v-10c0-1.95-.75-2.91-2.47-2.91S474,62.47,474,64.68v9.67h-5.91Z" fill="#fff"/><path d="M487,68.87h5.44c.2,1.25.76,1.95,2.44,1.95,1.46,0,2.12-.56,2.12-1.42s-.83-1.22-3.21-1.55c-4.62-.6-6.56-1.95-6.56-5.55,0-3.83,3.4-5.68,7.39-5.68,4.26,0,7.23,1.46,7.62,5.58h-5.34a1.93,1.93,0,0,0-2.22-1.71c-1.28,0-1.94.56-1.94,1.35s.79,1.16,2.9,1.42c4.79.59,7.1,1.85,7.1,5.54,0,4.1-3,6-7.82,6S487.16,72.7,487,68.87Z" fill="#fff"/><path d="M504.45,71.38A3.3,3.3,0,0,1,507.82,68a3.34,3.34,0,1,1,0,6.67A3.29,3.29,0,0,1,504.45,71.38Z" fill="#fff"/></g></g></svg>