<?xml version="1.0" encoding="utf-8"?>
<!-- Generator: Adobe Illustrator 23.1.0, SVG Export Plug-In . SVG Version: 6.00 Build 0)  -->
<svg version="1.1" id="Layer_1" xmlns="http://www.w3.org/2000/svg" xmlns:xlink="http://www.w3.org/1999/xlink" x="0px" y="0px"
	 viewBox="0 0 729 91" style="enable-background:new 0 0 729 91;" xml:space="preserve">
<style type="text/css">
	.st0{fill:none;}
	.st1{fill:#FFFFFF;}
</style>
<title>Asset 12</title>
<g>
	<g id="Layer_23">
		<rect class="st0" width="728" height="90"/>
	</g>
	<g id="Real-time_answers_for_your_real-time_questions.">
		<path class="st1" d="M122.8,15.8h9.2c6.2,0,9.6,2.5,9.6,7.5v0.1c0.2,2.8-1.6,5.3-4.3,6.2l5.6,9.8h-7.1l-4.8-8.5h-1.6v8.5h-6.7
			L122.8,15.8z M131.7,26.5c2.3,0,3.4-1,3.4-2.9v-0.1c0-1.9-1.2-2.7-3.4-2.7h-2.2v5.7H131.7z"/>
		<path class="st1" d="M143,30.9v-0.3c0-5.6,4.1-9,9.3-9c4.7,0,8.8,2.7,8.8,8.9v1.5H149c0.2,2.3,1.5,3.6,3.6,3.6c1.9,0,2.8-0.9,3-2
			h5.6c-0.5,3.9-3.5,6.1-8.8,6.1C147,39.7,143,36.6,143,30.9z M155.4,28.8c-0.1-2.1-1.1-3.2-3-3.2s-3,1.1-3.3,3.2H155.4z"/>
		<path class="st1" d="M162.3,34.6c0-4.1,3.4-5.6,9.2-5.6h1.6v-0.4c0-1.6-0.4-2.7-2.3-2.7c-1.2-0.1-2.2,0.7-2.3,1.9c0,0,0,0.1,0,0.1
			H163c0.3-4.2,3.5-6.2,8.3-6.2s7.8,2,7.8,6.6v11.2h-5.7v-2c-0.8,1.3-2.3,2.4-5.1,2.4C165.1,39.7,162.3,38.2,162.3,34.6z
			 M173.2,33.3v-1.1h-1.6c-2.4,0-3.4,0.5-3.4,1.9c0,1,0.7,1.6,2,1.6C171.9,35.8,173.2,34.8,173.2,33.3z"/>
		<path class="st1" d="M182.1,14.5h5.9v24.8h-5.9L182.1,14.5z"/>
		<path class="st1" d="M191.1,27.7h9.2v4.5h-9.2V27.7z"/>
		<path class="st1" d="M204,33.8v-7.7h-2.1v-4h2.1v-3.6h5.9v3.6h3.4v4h-3.4v7.1c0,1.3,0.6,1.8,1.8,1.8c0.6,0,1.1-0.1,1.7-0.3v4.5
			c-1.1,0.3-2.2,0.5-3.3,0.5C206.2,39.7,204,37.9,204,33.8z"/>
		<path class="st1" d="M215.4,17.4c-0.1-1.8,1.2-3.4,3-3.5c1.8-0.1,3.4,1.2,3.5,3c0.1,1.8-1.2,3.4-3,3.5c-0.1,0-0.2,0-0.3,0
			C217,20.5,215.5,19.2,215.4,17.4C215.4,17.4,215.4,17.4,215.4,17.4z M215.7,22.1h5.9v17.3h-5.9V22.1z"/>
		<path class="st1" d="M224.8,22.1h5.9v2.6c1.1-2,3.2-3.2,5.4-3.1c2-0.1,3.9,1,4.7,2.9c1.3-1.8,3.4-2.9,5.7-2.9
			c3.3,0,5.6,2.1,5.6,6.4v11.3h-5.9V29c0-1.8-0.9-2.6-2.2-2.6c-1.6,0-2.6,1-2.6,2.9v10h-5.8V29c0-1.8-0.9-2.6-2.2-2.6
			c-1.6,0-2.6,1-2.6,2.9v10h-5.9V22.1z"/>
		<path class="st1" d="M254.1,30.9v-0.3c0-5.6,4.1-9,9.3-9c4.7,0,8.8,2.7,8.8,8.9v1.5h-12.1c0.2,2.3,1.5,3.6,3.6,3.6
			c1.9,0,2.8-0.9,3-2h5.5c-0.5,3.9-3.5,6.1-8.7,6.1C258.1,39.7,254.1,36.6,254.1,30.9z M266.5,28.8c-0.1-2.1-1.1-3.2-3-3.2
			s-3,1.1-3.3,3.2H266.5z"/>
		<path class="st1" d="M279.3,34.6c0-4.1,3.4-5.6,9.2-5.6h1.6v-0.4c0-1.6-0.4-2.7-2.3-2.7c-1.2-0.1-2.2,0.7-2.3,1.9c0,0,0,0.1,0,0.1
			H280c0.3-4.2,3.5-6.2,8.3-6.2s7.8,2,7.8,6.6v11.2h-5.7v-2c-0.8,1.3-2.3,2.4-5.1,2.4C282,39.7,279.3,38.2,279.3,34.6z M290.1,33.3
			v-1.1h-1.5c-2.4,0-3.4,0.5-3.4,1.9c0,1,0.7,1.6,2,1.6C288.9,35.8,290.1,34.8,290.1,33.3z"/>
		<path class="st1" d="M298.9,22.1h5.9v2.8c1.1-2.1,3.3-3.4,5.7-3.2c3.3,0,5.6,2.1,5.6,6.5v11.2h-5.9v-10c0-2-0.8-2.9-2.5-2.9
			s-2.9,1.1-2.9,3.3v9.7h-5.9V22.1z"/>
		<path class="st1" d="M317.8,33.9h5.5c0.2,1.3,0.8,2,2.4,2c1.5,0,2.1-0.6,2.1-1.4s-0.8-1.2-3.2-1.5c-4.6-0.6-6.6-2-6.6-5.5
			c0-3.8,3.4-5.7,7.4-5.7c4.3,0,7.2,1.5,7.6,5.6h-5.3c-0.1-1.1-1.1-1.8-2.1-1.7c0,0-0.1,0-0.1,0c-1.3,0-1.9,0.6-1.9,1.4
			s0.8,1.2,2.9,1.4c4.8,0.6,7.1,1.9,7.1,5.5c0,4.1-3,5.9-7.8,5.9S317.9,37.7,317.8,33.9z"/>
		<path class="st1" d="M333.6,22.1h6.2l2.5,10.3l2.9-10.3h4.8l2.6,10.3l2.8-10.3h5.6l-5.5,17.3h-5.6l-2.6-9.6l-2.7,9.6h-5.7
			L333.6,22.1z"/>
		<path class="st1" d="M360.8,30.9v-0.3c0-5.6,4.1-9,9.3-9c4.7,0,8.8,2.7,8.8,8.9v1.5h-12.1c0.2,2.3,1.5,3.6,3.6,3.6
			c2,0,2.8-0.9,3-2h5.5c-0.5,3.9-3.5,6.1-8.8,6.1C364.7,39.7,360.8,36.6,360.8,30.9z M373.1,28.8c-0.1-2.1-1.1-3.2-3-3.2
			s-3,1.1-3.3,3.2H373.1z"/>
		<path class="st1" d="M380.9,22.1h5.9v3.4c0.8-2.4,3.1-3.9,5.6-3.7v5.5c-3.6-0.1-5.6,1-5.6,3.8v8.2h-5.9V22.1z"/>
		<path class="st1" d="M393.5,33.9h5.5c0.2,1.3,0.8,2,2.4,2c1.5,0,2.1-0.6,2.1-1.4s-0.8-1.2-3.2-1.5c-4.6-0.6-6.6-2-6.6-5.5
			c0-3.8,3.4-5.7,7.4-5.7c4.3,0,7.2,1.5,7.6,5.6h-5.4c-0.1-1.1-1-1.8-2.1-1.7c0,0-0.1,0-0.1,0c-1.3,0-2,0.6-2,1.4s0.8,1.2,2.9,1.4
			c4.8,0.6,7.1,1.9,7.1,5.5c0,4.1-3,5.9-7.8,5.9S393.6,37.7,393.5,33.9z"/>
		<path class="st1" d="M418,26.1h-2.2v-4h2.2v-1.5c0-4.3,2.7-6.3,6.8-6.3c0.9,0,1.8,0.1,2.7,0.4v4.3c-0.5-0.2-1.1-0.2-1.6-0.2
			c-0.9-0.2-1.8,0.5-2,1.4c0,0.1,0,0.3,0,0.5v1.5h3.5v4h-3.5v13.3H418V26.1z"/>
		<path class="st1" d="M427.9,30.9v-0.3c0-5.6,4.1-9,9.5-9s9.4,3.4,9.4,8.9v0.3c0,5.6-4.1,9-9.4,9S427.9,36.5,427.9,30.9z
			 M440.7,30.8v-0.3c0-2.9-1.2-4.5-3.4-4.5s-3.4,1.5-3.4,4.5v0.3c0,3,1.1,4.6,3.4,4.6S440.7,33.7,440.7,30.8L440.7,30.8z"/>
		<path class="st1" d="M448.8,22.1h5.9v3.4c0.8-2.4,3.1-3.9,5.6-3.7v5.5c-3.6-0.1-5.6,1-5.6,3.8v8.2h-5.9V22.1z"/>
		<path class="st1" d="M127.7,72.6l-6.9-15.5h6.4l3.6,9.2l3.3-9.2h5.6l-9.3,23h-5.6L127.7,72.6z"/>
		<path class="st1" d="M139.3,65.9v-0.3c0-5.5,4.1-9,9.5-9s9.4,3.4,9.4,8.9v0.3c0,5.6-4.1,9-9.4,9S139.3,71.5,139.3,65.9z
			 M152.2,65.8v-0.3c0-2.9-1.1-4.5-3.4-4.5s-3.4,1.5-3.4,4.5v0.3c0,3,1.2,4.6,3.4,4.6S152.2,68.7,152.2,65.8L152.2,65.8z"/>
		<path class="st1" d="M160.2,68.3V57.1h5.9v10.3c0,2,0.8,2.9,2.4,2.9s2.9-1.1,2.9-3.3v-9.9h5.9v17.3h-5.9v-2.7
			c-1,2-3.2,3.2-5.4,3.1C162.6,74.8,160.2,72.7,160.2,68.3z"/>
		<path class="st1" d="M180.4,57.1h5.9v3.4c0.8-2.4,3.1-3.9,5.6-3.7v5.5c-3.6-0.1-5.6,1-5.6,3.8v8.2h-5.9V57.1z"/>
		<path class="st1" d="M200,57.1h5.9v3.4c0.8-2.4,3.1-3.9,5.6-3.7v5.5c-3.6-0.1-5.6,1-5.6,3.8v8.2H200V57.1z"/>
		<path class="st1" d="M212.5,65.9v-0.3c0-5.5,4.1-9,9.3-9c4.7,0,8.8,2.7,8.8,8.9v1.6h-12.1c0.2,2.3,1.5,3.6,3.6,3.6
			c1.9,0,2.8-0.9,3-2h5.6c-0.5,3.9-3.5,6.1-8.8,6.1C216.5,74.8,212.5,71.6,212.5,65.9z M224.9,63.8c-0.1-2.1-1.1-3.2-3-3.2
			s-3,1.2-3.3,3.2H224.9z"/>
		<path class="st1" d="M231.9,69.6c0-4.1,3.4-5.6,9.2-5.6h1.6v-0.4c0-1.7-0.4-2.7-2.3-2.7c-1.2-0.1-2.2,0.7-2.3,1.9c0,0,0,0.1,0,0.1
			h-5.6c0.3-4.2,3.5-6.2,8.3-6.2s7.8,2,7.8,6.5v11.2h-5.7v-2c-0.8,1.3-2.3,2.4-5.1,2.4C234.6,74.8,231.9,73.2,231.9,69.6z
			 M242.7,68.3v-1.1h-1.6c-2.4,0-3.4,0.5-3.4,1.9c0,1,0.7,1.6,2,1.6C241.4,70.8,242.7,69.8,242.7,68.3z"/>
		<path class="st1" d="M251.6,49.5h5.9v24.8h-5.9L251.6,49.5z"/>
		<path class="st1" d="M260.6,62.7h9.2v4.5h-9.2V62.7z"/>
		<path class="st1" d="M273.5,68.8v-7.7h-2.1v-4h2.1v-3.6h5.9v3.6h3.4v4h-3.4v7.1c0,1.3,0.6,1.8,1.8,1.8c0.6,0,1.1-0.1,1.7-0.3v4.5
			c-1.1,0.3-2.2,0.5-3.3,0.5C275.7,74.8,273.5,72.9,273.5,68.8z"/>
		<path class="st1" d="M285,52.4c0-1.7,1.4-3.1,3.1-3.1c0,0,0.1,0,0.1,0c1.7-0.1,3.1,1.2,3.2,2.9c0.1,1.7-1.2,3.1-2.9,3.2
			c-0.1,0-0.2,0-0.3,0c-1.7,0.1-3.1-1.2-3.2-2.9C285,52.5,285,52.5,285,52.4z M285.3,57.1h5.9v17.3h-5.9V57.1z"/>
		<path class="st1" d="M294.3,57.1h5.9v2.6c1.1-2,3.2-3.2,5.4-3.1c2-0.1,3.9,1,4.7,2.9c1.3-1.8,3.4-2.9,5.7-2.9
			c3.3,0,5.6,2.1,5.6,6.4v11.3h-5.9V64.1c0-1.8-0.9-2.6-2.2-2.6c-1.6,0-2.6,1-2.6,2.9v10h-5.8V64.1c0-1.8-0.9-2.6-2.2-2.6
			c-1.6,0-2.6,1-2.6,2.9v10h-5.9V57.1z"/>
		<path class="st1" d="M323.6,65.9v-0.3c0-5.5,4.1-9,9.3-9c4.7,0,8.8,2.7,8.8,8.9v1.6h-12.1c0.2,2.3,1.5,3.6,3.6,3.6
			c1.9,0,2.8-0.9,3-2h5.5c-0.5,3.9-3.5,6.1-8.7,6.1C327.6,74.8,323.6,71.6,323.6,65.9z M336,63.8c-0.1-2.1-1.1-3.2-3-3.2
			s-3,1.2-3.3,3.2H336z"/>
		<path class="st1" d="M361.6,71.7c-1.1,1.9-3.2,3.1-5.4,3.1c-4,0-7.3-2.9-7.3-8.8v-0.3c0-5.9,3.2-9,7.3-9c2.2-0.2,4.3,1,5.3,2.9
			v-2.5h5.9v23h-5.9V71.7z M361.8,65.8v-0.3c0-2.9-1.2-4.5-3.4-4.5s-3.4,1.5-3.4,4.5v0.3c0,2.9,1.3,4.4,3.3,4.4
			S361.8,68.7,361.8,65.8z"/>
		<path class="st1" d="M370.4,68.3V57.1h5.9v10.3c0,2,0.8,2.9,2.4,2.9s2.9-1.1,2.9-3.3v-9.9h5.9v17.3h-5.9v-2.7
			c-1,2-3.2,3.2-5.5,3.1C372.9,74.8,370.4,72.7,370.4,68.3z"/>
		<path class="st1" d="M389.6,65.9v-0.3c0-5.5,4.1-9,9.3-9c4.7,0,8.8,2.7,8.8,8.9v1.6h-12.1c0.2,2.3,1.5,3.6,3.6,3.6
			c2,0,2.8-0.9,3-2h5.5c-0.5,3.9-3.5,6.1-8.7,6.1C393.6,74.8,389.6,71.6,389.6,65.9z M402,63.8c-0.1-2.1-1.1-3.2-3-3.2
			s-3,1.2-3.3,3.2H402z"/>
		<path class="st1" d="M408.8,68.9h5.4c0.2,1.3,0.8,1.9,2.4,1.9c1.5,0,2.1-0.6,2.1-1.4s-0.8-1.2-3.2-1.6c-4.6-0.6-6.6-1.9-6.6-5.5
			c0-3.8,3.4-5.7,7.4-5.7c4.3,0,7.2,1.5,7.6,5.6h-5.3c-0.1-1.1-1.1-1.8-2.1-1.7c0,0-0.1,0-0.1,0c-1.3,0-2,0.6-2,1.3s0.8,1.2,2.9,1.4
			c4.8,0.6,7.1,1.8,7.1,5.5c0,4.1-3,6-7.8,6S409,72.7,408.8,68.9z"/>
		<path class="st1" d="M427.3,68.8v-7.7h-2.1v-4h2.1v-3.6h5.9v3.6h3.4v4h-3.4v7.1c0,1.3,0.6,1.8,1.8,1.8c0.6,0,1.1-0.1,1.7-0.3v4.5
			c-1.1,0.3-2.2,0.5-3.3,0.5C429.4,74.8,427.3,72.9,427.3,68.8z"/>
		<path class="st1" d="M438.7,52.4c-0.1-1.8,1.2-3.4,3-3.5s3.4,1.2,3.5,3c0.1,1.8-1.2,3.4-3,3.5c-0.1,0-0.2,0-0.3,0
			C440.2,55.5,438.8,54.2,438.7,52.4C438.7,52.4,438.7,52.4,438.7,52.4z M439,57.1h5.9v17.3H439L439,57.1z"/>
		<path class="st1" d="M447.1,65.9v-0.3c0-5.5,4.1-9,9.5-9s9.4,3.4,9.4,8.9v0.3c0,5.6-4.1,9-9.4,9S447.1,71.5,447.1,65.9z M460,65.8
			v-0.3c0-2.9-1.1-4.5-3.4-4.5s-3.4,1.5-3.4,4.5v0.3c0,3,1.1,4.6,3.4,4.6S460,68.7,460,65.8z"/>
		<path class="st1" d="M468.1,57.1h5.9v2.8c1.1-2.1,3.3-3.3,5.7-3.2c3.3,0,5.6,2.1,5.6,6.5v11.2h-5.9v-10c0-2-0.8-2.9-2.5-2.9
			s-2.9,1-2.9,3.2v9.7h-5.9L468.1,57.1z"/>
		<path class="st1" d="M487,68.9h5.4c0.2,1.3,0.8,1.9,2.4,1.9c1.5,0,2.1-0.6,2.1-1.4s-0.8-1.2-3.2-1.6c-4.6-0.6-6.6-1.9-6.6-5.5
			c0-3.8,3.4-5.7,7.4-5.7c4.3,0,7.2,1.5,7.6,5.6h-5.3c-0.1-1.1-1.1-1.8-2.1-1.7c0,0-0.1,0-0.1,0c-1.3,0-1.9,0.6-1.9,1.3
			s0.8,1.2,2.9,1.4c4.8,0.6,7.1,1.8,7.1,5.5c0,4.1-3,6-7.8,6S487.2,72.7,487,68.9z"/>
		<path class="st1" d="M504.5,71.4c0-1.8,1.4-3.3,3.2-3.4c0.1,0,0.1,0,0.2,0c1.8-0.1,3.4,1.3,3.5,3.2c0.1,1.8-1.3,3.4-3.2,3.5
			c-0.1,0-0.2,0-0.4,0C506,74.7,504.5,73.3,504.5,71.4C504.5,71.4,504.5,71.4,504.5,71.4z"/>
	</g>
</g>
</svg>
