<svg xmlns="http://www.w3.org/2000/svg" viewBox="0 0 160 600"><title>H123</title><g id="Layer_2" data-name="Layer 2"><g id="Rect"><rect width="160" height="600" fill="none"/></g><g id="H123"><g id="Preparación_de_taxes_en_el_horario_que_te_convenga._Abierto_l" data-name="Preparación de taxes en el horario que te  convenga. Abierto  l"><path d="M20.4,99.43h5.54c4,0,5.84,1.76,5.84,4.83v.08c0,3-2.05,4.66-5.66,4.66H24.56v4.87H20.4Zm5.36,6.75c1.34,0,2-.63,2-1.82v-.08c0-1.23-.73-1.74-2-1.74H24.56v3.64Z" fill="#fff"/><path d="M33,103.31h3.65v2.1a3.35,3.35,0,0,1,3.44-2.24v3.37c-2.22-.06-3.44.63-3.44,2.32v5H33Z" fill="#fff"/><path d="M40.78,108.72v-.16A5.42,5.42,0,0,1,46.54,103c2.91,0,5.41,1.65,5.41,5.45v1H44.46a2.12,2.12,0,0,0,2.22,2.2c1.2,0,1.71-.55,1.85-1.25H52c-.32,2.38-2.18,3.73-5.39,3.73S40.78,112.17,40.78,108.72Zm7.63-1.33c-.06-1.27-.69-2-1.87-2a2,2,0,0,0-2,2Z" fill="#fff"/><path d="M53.21,103.31h3.65v1.57A3.77,3.77,0,0,1,60.17,103c2.49,0,4.5,1.85,4.5,5.47v.16c0,3.63-2,5.45-4.52,5.45a3.52,3.52,0,0,1-3.29-1.8v5.09H53.21ZM61,108.66v-.16c0-1.86-.82-2.75-2.1-2.75s-2.12,1-2.12,2.73v.16c0,1.8.8,2.7,2.12,2.7S61,110.4,61,108.66Z" fill="#fff"/><path d="M65.38,110.94c0-2.48,2.12-3.45,5.66-3.45h1v-.24c0-1-.24-1.68-1.4-1.68a1.31,1.31,0,0,0-1.45,1.25H65.79C66,104.28,68,103,70.88,103s4.8,1.19,4.8,4v6.85H72.14v-1.23A3.51,3.51,0,0,1,69,114.11C67.07,114.11,65.38,113.18,65.38,110.94Zm6.68-.77v-.64h-1c-1.46,0-2.11.28-2.11,1.15,0,.6.4,1,1.26,1C71.29,111.67,72.06,111.08,72.06,110.17Z" fill="#fff"/><path d="M77.45,103.31H81.1v2.1a3.35,3.35,0,0,1,3.44-2.24v3.37c-2.22-.06-3.44.63-3.44,2.32v5H77.45Z" fill="#fff"/><path d="M85,110.94c0-2.48,2.12-3.45,5.66-3.45h1v-.24c0-1-.25-1.68-1.41-1.68a1.3,1.3,0,0,0-1.44,1.25H85.41c.16-2.54,2.18-3.79,5.09-3.79s4.8,1.19,4.8,4v6.85H91.76v-1.23a3.51,3.51,0,0,1-3.15,1.47C86.69,114.11,85,113.18,85,110.94Zm6.68-.77v-.64h-1c-1.46,0-2.11.28-2.11,1.15,0,.6.4,1,1.26,1C90.91,111.67,91.68,111.08,91.68,110.17Z" fill="#fff"/><path d="M96.5,108.72v-.16a5.34,5.34,0,0,1,5.68-5.53c2.61,0,5,1.13,5.21,4.34H104a1.57,1.57,0,0,0-1.71-1.54c-1.28,0-2,.91-2,2.69v.16c0,1.84.71,2.79,2.09,2.79a1.78,1.78,0,0,0,1.86-1.76h3.27c-.1,2.66-1.91,4.4-5.35,4.4C98.92,114.11,96.5,112.27,96.5,108.72Z" fill="#fff"/><path d="M108.55,100.44a1.89,1.89,0,0,1,2-1.87,1.87,1.87,0,1,1,0,3.73A1.88,1.88,0,0,1,108.55,100.44Zm.18,2.87h3.65v10.56h-3.65Z" fill="#fff"/><path d="M113.76,108.72v-.16c0-3.39,2.54-5.53,5.84-5.53s5.8,2.08,5.8,5.43v.16c0,3.43-2.54,5.49-5.82,5.49S113.76,112.13,113.76,108.72Zm7.94-.06v-.16c0-1.78-.71-2.77-2.1-2.77s-2.12,1-2.12,2.73v.16c0,1.82.72,2.8,2.12,2.8S121.7,110.42,121.7,108.66Zm-2.44-9.91h3.66l-2.14,3.35h-2.6Z" fill="#fff"/><path d="M126.68,103.31h3.65V105a3.76,3.76,0,0,1,3.5-2c2,0,3.48,1.27,3.48,4v6.87h-3.64v-6.14c0-1.19-.47-1.78-1.53-1.78s-1.81.65-1.81,2v5.92h-3.65Z" fill="#fff"/><path d="M19.55,131.7v-.16c0-3.6,2-5.51,4.52-5.51a3.47,3.47,0,0,1,3.28,1.77v-6.13H31v15.2H27.35v-1.72a3.59,3.59,0,0,1-3.32,2C21.56,137.11,19.55,135.35,19.55,131.7Zm7.9-.06v-.16c0-1.78-.76-2.73-2.1-2.73s-2.1.91-2.1,2.75v.16c0,1.78.8,2.68,2.06,2.68S27.45,133.44,27.45,131.64Z" fill="#fff"/><path d="M32.27,131.72v-.16A5.42,5.42,0,0,1,38,126c2.91,0,5.42,1.65,5.42,5.45v1H36a2.13,2.13,0,0,0,2.22,2.2c1.2,0,1.71-.55,1.86-1.25h3.42c-.33,2.38-2.18,3.73-5.4,3.73S32.27,135.17,32.27,131.72Zm7.63-1.33c-.06-1.27-.69-2-1.87-2a2,2,0,0,0-2,2Z" fill="#fff"/><path d="M48.9,133.48v-4.71H47.62v-2.46H48.9v-2.2h3.64v2.2h2.1v2.46h-2.1v4.36a1,1,0,0,0,1.08,1.11,2.84,2.84,0,0,0,1-.18v2.75a7.79,7.79,0,0,1-2,.3C50.24,137.11,48.9,136,48.9,133.48Z" fill="#fff"/><path d="M55.45,133.94c0-2.48,2.12-3.45,5.66-3.45h1v-.24c0-1-.25-1.68-1.41-1.68a1.3,1.3,0,0,0-1.44,1.25H55.86C56,127.28,58,126,61,126s4.8,1.19,4.8,4v6.85H62.21v-1.23a3.53,3.53,0,0,1-3.16,1.47C57.14,137.11,55.45,136.18,55.45,133.94Zm6.68-.77v-.64h-1c-1.46,0-2.12.28-2.12,1.15,0,.6.41,1,1.27,1A1.61,1.61,0,0,0,62.13,133.17Z" fill="#fff"/><path d="M70.21,131.5l-3.32-5.19h4.19l1.65,2.79,1.61-2.79h3.74l-3.35,4.91,3.68,5.65H74.22l-1.9-3.15-1.93,3.15H66.67Z" fill="#fff"/><path d="M77.94,131.72v-.16A5.43,5.43,0,0,1,83.7,126c2.91,0,5.42,1.65,5.42,5.45v1h-7.5a2.13,2.13,0,0,0,2.22,2.2c1.2,0,1.71-.55,1.86-1.25h3.42c-.33,2.38-2.18,3.73-5.4,3.73S77.94,135.17,77.94,131.72Zm7.63-1.33c-.06-1.27-.69-2-1.87-2a2,2,0,0,0-2,2Z" fill="#fff"/><path d="M89.77,133.52h3.35c.13.76.47,1.19,1.51,1.19s1.3-.35,1.3-.87-.51-.75-2-1c-2.85-.36-4-1.19-4-3.39S92,126,94.47,126c2.62,0,4.46.89,4.7,3.41h-3.3a1.18,1.18,0,0,0-1.36-1.05c-.8,0-1.2.34-1.2.83s.49.7,1.79.86c3,.37,4.38,1.14,4.38,3.4,0,2.5-1.88,3.63-4.83,3.63S89.85,135.86,89.77,133.52Z" fill="#fff"/><path d="M103.79,131.72v-.16a5.42,5.42,0,0,1,5.76-5.53c2.91,0,5.41,1.65,5.41,5.45v1h-7.49a2.12,2.12,0,0,0,2.22,2.2c1.2,0,1.71-.55,1.85-1.25H115c-.32,2.38-2.18,3.73-5.39,3.73S103.79,135.17,103.79,131.72Zm7.63-1.33c-.06-1.27-.69-2-1.87-2a2,2,0,0,0-2,2Z" fill="#fff"/><path d="M116.22,126.31h3.65V128a3.76,3.76,0,0,1,3.5-2c2,0,3.48,1.27,3.48,4v6.87h-3.64v-6.14c0-1.19-.47-1.78-1.53-1.78s-1.81.65-1.81,2v5.92h-3.65Z" fill="#fff"/><path d="M19.51,154.72v-.16A5.42,5.42,0,0,1,25.27,149c2.91,0,5.41,1.65,5.41,5.45v1H23.19a2.12,2.12,0,0,0,2.22,2.2c1.2,0,1.71-.55,1.85-1.25h3.42c-.32,2.38-2.17,3.73-5.39,3.73S19.51,158.17,19.51,154.72Zm7.63-1.33c-.06-1.27-.69-2-1.87-2a2,2,0,0,0-2,2Z" fill="#fff"/><path d="M32.05,144.67h3.62v15.2H32.05Z" fill="#fff"/><path d="M41.33,144.67H45V151a3.76,3.76,0,0,1,3.5-2c2.06,0,3.48,1.27,3.48,4v6.87H48.31v-6.14c0-1.19-.47-1.78-1.53-1.78S45,152.6,45,154v5.92H41.33Z" fill="#fff"/><path d="M53.15,154.72v-.16c0-3.39,2.55-5.53,5.84-5.53s5.8,2.08,5.8,5.43v.16c0,3.43-2.54,5.49-5.82,5.49S53.15,158.13,53.15,154.72Zm7.94-.06v-.16c0-1.78-.71-2.77-2.1-2.77s-2.11,1-2.11,2.73v.16c0,1.82.71,2.8,2.11,2.8S61.09,156.42,61.09,154.66Z" fill="#fff"/><path d="M66.07,149.31h3.65v2.1a3.35,3.35,0,0,1,3.44-2.24v3.37c-2.22-.06-3.44.63-3.44,2.32v5H66.07Z" fill="#fff"/><path d="M73.63,156.94c0-2.48,2.11-3.45,5.65-3.45h1v-.24c0-1-.24-1.68-1.4-1.68a1.31,1.31,0,0,0-1.45,1.25H74c.17-2.54,2.18-3.79,5.09-3.79s4.81,1.19,4.81,4v6.85H80.38v-1.23a3.5,3.5,0,0,1-3.15,1.47C75.32,160.11,73.63,159.18,73.63,156.94Zm6.67-.77v-.64h-1c-1.47,0-2.12.28-2.12,1.15,0,.6.41,1,1.26,1C79.53,157.67,80.3,157.08,80.3,156.17Z" fill="#fff"/><path d="M85.7,149.31h3.64v2.1a3.35,3.35,0,0,1,3.44-2.24v3.37c-2.22-.06-3.44.63-3.44,2.32v5H85.7Z" fill="#fff"/><path d="M94,146.44a1.88,1.88,0,0,1,2-1.87,1.87,1.87,0,1,1,0,3.73A1.88,1.88,0,0,1,94,146.44Zm.18,2.87h3.65v10.56H94.2Z" fill="#fff"/><path d="M99.23,154.72v-.16c0-3.39,2.54-5.53,5.84-5.53s5.8,2.08,5.8,5.43v.16c0,3.43-2.54,5.49-5.82,5.49S99.23,158.13,99.23,154.72Zm7.94-.06v-.16c0-1.78-.71-2.77-2.1-2.77s-2.12,1-2.12,2.73v.16c0,1.82.72,2.8,2.12,2.8S107.17,156.42,107.17,154.66Z" fill="#fff"/><path d="M27.35,181.23A3.68,3.68,0,0,1,24,183.11c-2.47,0-4.48-1.76-4.48-5.41v-.16c0-3.6,2-5.51,4.52-5.51a3.47,3.47,0,0,1,3.28,1.77v-1.49H31V186.4H27.35Zm.1-3.59v-.16c0-1.78-.76-2.73-2.1-2.73s-2.1.91-2.1,2.75v.16c0,1.78.8,2.68,2.06,2.68S27.45,179.44,27.45,177.64Z" fill="#fff"/><path d="M32.76,179.19v-6.88H36.4v6.3c0,1.19.47,1.77,1.51,1.77s1.81-.64,1.81-2v-6.08h3.64v10.56H39.72v-1.64a3.51,3.51,0,0,1-3.38,1.88C34.29,183.11,32.76,181.86,32.76,179.19Z" fill="#fff"/><path d="M44.64,177.72v-.16A5.43,5.43,0,0,1,50.4,172c2.92,0,5.42,1.65,5.42,5.45v1H48.33a2.11,2.11,0,0,0,2.22,2.2c1.2,0,1.71-.55,1.85-1.25h3.42c-.33,2.38-2.18,3.73-5.4,3.73S44.64,181.17,44.64,177.72Zm7.64-1.33c-.06-1.27-.69-2-1.88-2a2,2,0,0,0-2,2Z" fill="#fff"/><path d="M61.27,179.48v-4.71H60v-2.46h1.28v-2.2h3.65v2.2H67v2.46H64.92v4.36c0,.77.38,1.11,1.07,1.11a2.8,2.8,0,0,0,1-.18v2.75a7.77,7.77,0,0,1-2,.3C62.61,183.11,61.27,182,61.27,179.48Z" fill="#fff"/><path d="M67.82,177.72v-.16A5.43,5.43,0,0,1,73.59,172c2.91,0,5.41,1.65,5.41,5.45v1H71.51a2.12,2.12,0,0,0,2.22,2.2c1.2,0,1.71-.55,1.85-1.25H79c-.33,2.38-2.18,3.73-5.39,3.73S67.82,181.17,67.82,177.72Zm7.64-1.33c-.06-1.27-.69-2-1.87-2a2,2,0,0,0-2,2Z" fill="#fff"/><path d="M19.51,200.72v-.16A5.33,5.33,0,0,1,25.19,195c2.6,0,5,1.13,5.21,4.34H27a1.57,1.57,0,0,0-1.71-1.54c-1.28,0-2,.91-2,2.69v.16c0,1.84.72,2.79,2.1,2.79a1.77,1.77,0,0,0,1.85-1.76h3.28c-.1,2.66-1.91,4.4-5.35,4.4C21.93,206.11,19.51,204.27,19.51,200.72Z" fill="#fff"/><path d="M31.07,200.72v-.16c0-3.39,2.54-5.53,5.84-5.53s5.8,2.08,5.8,5.43v.16c0,3.43-2.54,5.49-5.82,5.49S31.07,204.13,31.07,200.72Zm7.94-.06v-.16c0-1.78-.72-2.77-2.1-2.77s-2.12,1-2.12,2.73v.16c0,1.82.72,2.8,2.12,2.8S39,202.42,39,200.66Z" fill="#fff"/><path d="M44,195.31h3.65V197a3.76,3.76,0,0,1,3.5-2c2,0,3.48,1.27,3.48,4v6.87H51v-6.14c0-1.19-.46-1.78-1.52-1.78s-1.81.65-1.81,2v5.92H44Z" fill="#fff"/><path d="M55.21,195.31h3.88l2.22,6.8,2.18-6.8H67l-3.89,10.56h-4Z" fill="#fff"/><path d="M66.75,200.72v-.16A5.42,5.42,0,0,1,72.51,195c2.91,0,5.41,1.65,5.41,5.45v1H70.43a2.12,2.12,0,0,0,2.22,2.2c1.2,0,1.71-.55,1.85-1.25h3.42c-.32,2.38-2.18,3.73-5.39,3.73S66.75,204.17,66.75,200.72Zm7.63-1.33c-.06-1.27-.69-2-1.87-2a2,2,0,0,0-2,2Z" fill="#fff"/><path d="M79.18,195.31h3.65V197a3.76,3.76,0,0,1,3.5-2c2,0,3.48,1.27,3.48,4v6.87H86.16v-6.14c0-1.19-.46-1.78-1.52-1.78s-1.81.65-1.81,2v5.92H79.18Z" fill="#fff"/><path d="M91,205.87h3.62c.16.76.63,1.37,2,1.37A2,2,0,0,0,98.82,205V203.4a3.74,3.74,0,0,1-3.29,1.94c-2.49,0-4.52-1.81-4.52-5.06v-.17c0-3.1,2-5.08,4.52-5.08a3.46,3.46,0,0,1,3.29,1.77v-1.49h3.65V205c0,3.15-2.1,4.8-5.91,4.8C92.94,209.78,91.27,208.27,91,205.87Zm7.93-5.61v-.15c0-1.45-.75-2.38-2.09-2.38s-2.1,1-2.1,2.4v.17c0,1.45.78,2.38,2.08,2.38S98.92,201.75,98.92,200.26Z" fill="#fff"/><path d="M103.71,202.94c0-2.48,2.11-3.45,5.66-3.45h1v-.24c0-1-.24-1.68-1.4-1.68a1.31,1.31,0,0,0-1.45,1.25h-3.42c.17-2.54,2.18-3.79,5.09-3.79s4.81,1.19,4.81,4v6.85h-3.54v-1.23a3.53,3.53,0,0,1-3.16,1.47C105.4,206.11,103.71,205.18,103.71,202.94Zm6.67-.77v-.64h-.95c-1.47,0-2.12.28-2.12,1.15,0,.6.41,1,1.26,1C109.61,203.67,110.38,203.08,110.38,202.17Z" fill="#fff"/><path d="M115.63,204.05a2,2,0,0,1,2.08-2,2,2,0,1,1,0,4.08A2,2,0,0,1,115.63,204.05Z" fill="#fff"/><path d="M23.93,214.43h5.39l4.62,14.44H29.52l-.77-2.69H23.93l-.78,2.69H19.26Zm.81,8.91h3.2l-1.59-5.56Z" fill="#fff"/><path d="M38.62,227.23v1.64H35v-15.2h3.64v6.21A3.78,3.78,0,0,1,41.94,218c2.48,0,4.5,1.85,4.5,5.47v.16c0,3.63-2,5.45-4.52,5.45A3.46,3.46,0,0,1,38.62,227.23Zm4.11-3.57v-.16c0-1.86-.81-2.75-2.09-2.75s-2.12.95-2.12,2.73v.16c0,1.8.79,2.7,2.12,2.7S42.73,225.4,42.73,223.66Z" fill="#fff"/><path d="M47.68,215.44a1.88,1.88,0,0,1,2-1.87,1.87,1.87,0,1,1,0,3.73A1.88,1.88,0,0,1,47.68,215.44Zm.18,2.87H51.5v10.56H47.86Z" fill="#fff"/><path d="M52.89,223.72v-.16A5.42,5.42,0,0,1,58.65,218c2.91,0,5.41,1.65,5.41,5.45v1H56.57a2.12,2.12,0,0,0,2.22,2.2c1.2,0,1.71-.55,1.85-1.25h3.42c-.32,2.38-2.18,3.73-5.39,3.73S52.89,227.17,52.89,223.72Zm7.63-1.33c-.06-1.27-.69-2-1.87-2a2,2,0,0,0-2,2Z" fill="#fff"/><path d="M65.32,218.31H69v2.1a3.37,3.37,0,0,1,3.45-2.24v3.37c-2.22-.06-3.45.63-3.45,2.32v5H65.32Z" fill="#fff"/><path d="M74.38,225.48v-4.71H73.1v-2.46h1.28v-2.2H78v2.2h2.1v2.46H78v4.36a1,1,0,0,0,1.08,1.11,2.84,2.84,0,0,0,1-.18v2.75a7.79,7.79,0,0,1-2,.3C75.72,229.11,74.38,228,74.38,225.48Z" fill="#fff"/><path d="M80.93,223.72v-.16c0-3.39,2.55-5.53,5.84-5.53s5.81,2.08,5.81,5.43v.16c0,3.43-2.55,5.49-5.83,5.49S80.93,227.13,80.93,223.72Zm7.94-.06v-.16c0-1.78-.71-2.77-2.1-2.77s-2.11,1-2.11,2.73v.16c0,1.82.71,2.8,2.11,2.8S88.87,225.42,88.87,223.66Z" fill="#fff"/><path d="M20.18,236.67H23.8v15.2H20.18Z" fill="#fff"/><path d="M25.19,246.72v-.16c0-3.39,2.54-5.53,5.84-5.53s5.8,2.08,5.8,5.43v.16c0,3.43-2.54,5.49-5.82,5.49S25.19,250.13,25.19,246.72Zm7.94-.06v-.16c0-1.78-.72-2.77-2.1-2.77s-2.12,1-2.12,2.73v.16c0,1.82.71,2.8,2.12,2.8S33.13,248.42,33.13,246.66Z" fill="#fff"/><path d="M37.46,248.52h3.36c.12.76.47,1.19,1.5,1.19s1.31-.35,1.31-.87-.51-.75-2-1c-2.85-.36-4-1.19-4-3.39S39.7,241,42.16,241c2.63,0,4.46.89,4.7,3.41H43.57a1.19,1.19,0,0,0-1.37-1.05c-.79,0-1.2.34-1.2.83s.49.7,1.79.86c3,.37,4.38,1.14,4.38,3.4,0,2.5-1.87,3.63-4.83,3.63S37.54,250.86,37.46,248.52Z" fill="#fff"/><path d="M52.6,243.77H51.26v-2.46H52.6v-.93c0-2.62,1.65-3.88,4.17-3.88a6.47,6.47,0,0,1,1.67.23v2.64a3.36,3.36,0,0,0-1-.14c-.86,0-1.23.46-1.23,1.15v.93h2.16v2.46H56.22v8.1H52.6Z" fill="#fff"/><path d="M59.52,238.44a2,2,0,1,1,2,1.86A1.89,1.89,0,0,1,59.52,238.44Zm.18,2.87h3.65v10.56H59.7Z" fill="#fff"/><path d="M65.3,241.31H69V243a3.76,3.76,0,0,1,3.5-2c2,0,3.48,1.27,3.48,4v6.87H72.28v-6.14c0-1.19-.47-1.78-1.52-1.78S69,244.6,69,246v5.92H65.3Z" fill="#fff"/><path d="M77.13,246.72v-.16A5.42,5.42,0,0,1,82.89,241c2.91,0,5.41,1.65,5.41,5.45v1H80.81a2.12,2.12,0,0,0,2.22,2.2c1.2,0,1.71-.55,1.85-1.25H88.3c-.33,2.38-2.18,3.73-5.39,3.73S77.13,250.17,77.13,246.72Zm7.63-1.33c-.06-1.27-.69-2-1.87-2a2,2,0,0,0-2,2Z" fill="#fff"/><path d="M89,248.52h3.36c.12.76.47,1.19,1.5,1.19s1.31-.35,1.31-.87-.51-.75-2-1c-2.85-.36-4-1.19-4-3.39s2.1-3.47,4.56-3.47c2.63,0,4.46.89,4.7,3.41H95.06a1.19,1.19,0,0,0-1.37-1.05c-.79,0-1.2.34-1.2.83s.49.7,1.79.86c3,.37,4.38,1.14,4.38,3.4,0,2.5-1.87,3.63-4.83,3.63S89,250.86,89,248.52Z" fill="#fff"/><path d="M19.55,269.7v-.16c0-3.6,2-5.51,4.52-5.51a3.47,3.47,0,0,1,3.28,1.77v-6.13H31v15.2H27.35v-1.72a3.59,3.59,0,0,1-3.32,2C21.56,275.11,19.55,273.35,19.55,269.7Zm7.9-.06v-.16c0-1.78-.76-2.73-2.1-2.73s-2.1.91-2.1,2.75v.16c0,1.78.8,2.68,2.06,2.68S27.45,271.44,27.45,269.64Z" fill="#fff"/><path d="M32.27,269.72v-.16A5.42,5.42,0,0,1,38,264c2.91,0,5.42,1.65,5.42,5.45v.95H36a2.13,2.13,0,0,0,2.22,2.2c1.2,0,1.71-.55,1.86-1.25h3.42c-.33,2.38-2.18,3.73-5.4,3.73S32.27,273.17,32.27,269.72Zm7.63-1.33c-.06-1.27-.69-2-1.87-2a2,2,0,0,0-2,2Z" fill="#fff"/><path d="M47.7,271.52h3.36c.12.76.46,1.19,1.5,1.19s1.3-.35,1.3-.87-.5-.75-2-.95c-2.85-.36-4-1.19-4-3.39S49.94,264,52.4,264c2.62,0,4.46.89,4.7,3.41H53.8a1.18,1.18,0,0,0-1.36-1.05c-.79,0-1.2.34-1.2.83s.49.7,1.79.86c2.95.37,4.38,1.14,4.38,3.4,0,2.5-1.88,3.63-4.83,3.63S47.78,273.86,47.7,271.52Z" fill="#fff"/><path d="M58.08,269.72v-.16A5.42,5.42,0,0,1,63.84,264c2.91,0,5.41,1.65,5.41,5.45v.95H61.76a2.12,2.12,0,0,0,2.22,2.2c1.2,0,1.71-.55,1.85-1.25h3.42c-.32,2.38-2.18,3.73-5.39,3.73S58.08,273.17,58.08,269.72Zm7.63-1.33c-.06-1.27-.69-2-1.87-2a2,2,0,0,0-2,2Z" fill="#fff"/><path d="M70.51,264.31h3.65v1.61A3.74,3.74,0,0,1,77.49,264a2.88,2.88,0,0,1,2.89,1.75A4.24,4.24,0,0,1,83.91,264c2,0,3.48,1.29,3.48,3.93v6.91H83.74v-6.3c0-1.07-.53-1.6-1.36-1.6a1.57,1.57,0,0,0-1.63,1.78v6.12h-3.6v-6.3c0-1.07-.53-1.6-1.37-1.6a1.57,1.57,0,0,0-1.62,1.78v6.12H70.51Z" fill="#fff"/><path d="M88.54,271.94c0-2.48,2.12-3.45,5.66-3.45h1v-.24c0-1-.24-1.68-1.4-1.68a1.31,1.31,0,0,0-1.45,1.25H89c.16-2.54,2.18-3.79,5.09-3.79s4.8,1.19,4.8,4v6.85H95.3v-1.23a3.51,3.51,0,0,1-3.15,1.47C90.23,275.11,88.54,274.18,88.54,271.94Zm6.68-.77v-.64h-1c-1.46,0-2.11.28-2.11,1.15,0,.6.4,1,1.26,1C94.45,272.67,95.22,272.08,95.22,271.17Z" fill="#fff"/><path d="M100.61,264.31h3.65V266a3.76,3.76,0,0,1,3.5-2c2,0,3.48,1.27,3.48,4v6.87h-3.65v-6.14c0-1.19-.46-1.78-1.52-1.78s-1.81.65-1.81,2v5.92h-3.65Z" fill="#fff"/><path d="M112.4,271.94c0-2.48,2.11-3.45,5.66-3.45h1v-.24c0-1-.24-1.68-1.4-1.68a1.31,1.31,0,0,0-1.45,1.25H112.8c.17-2.54,2.18-3.79,5.09-3.79s4.81,1.19,4.81,4v6.85h-3.54v-1.23a3.53,3.53,0,0,1-3.16,1.47C114.09,275.11,112.4,274.18,112.4,271.94Zm6.67-.77v-.64h-.95c-1.47,0-2.12.28-2.12,1.15,0,.6.41,1,1.26,1C118.3,272.67,119.07,272.08,119.07,271.17Z" fill="#fff"/><path d="M23.42,296.8l-4.26-9.49h3.95l2.2,5.63,2-5.63h3.48l-5.7,14.09H21.65Z" fill="#fff"/><path d="M35.46,287.31h3.65v1.57A3.78,3.78,0,0,1,42.43,287c2.48,0,4.49,1.85,4.49,5.47v.16c0,3.63-2,5.45-4.51,5.45a3.52,3.52,0,0,1-3.3-1.8v5.09H35.46Zm7.76,5.35v-.16c0-1.86-.81-2.75-2.1-2.75S39,290.7,39,292.48v.16c0,1.8.79,2.7,2.11,2.7S43.22,294.4,43.22,292.66Z" fill="#fff"/><path d="M47.68,292.72v-.16c0-3.39,2.54-5.53,5.84-5.53s5.8,2.08,5.8,5.43v.16c0,3.43-2.55,5.49-5.82,5.49S47.68,296.13,47.68,292.72Zm7.93-.06v-.16c0-1.78-.71-2.77-2.09-2.77s-2.12.95-2.12,2.73v.16c0,1.82.71,2.8,2.12,2.8S55.61,294.42,55.61,292.66Z" fill="#fff"/><path d="M60.6,287.31h3.64v2.1a3.35,3.35,0,0,1,3.44-2.24v3.37c-2.22-.06-3.44.63-3.44,2.32v5H60.6Z" fill="#fff"/><path d="M72.81,282.67h3.62v15.2H72.81Z" fill="#fff"/><path d="M77.78,294.94c0-2.48,2.11-3.45,5.66-3.45h1v-.24c0-1-.24-1.68-1.4-1.68a1.31,1.31,0,0,0-1.45,1.25H78.18c.17-2.54,2.18-3.79,5.09-3.79s4.81,1.19,4.81,4v6.85H84.54v-1.23a3.53,3.53,0,0,1-3.16,1.47C79.47,298.11,77.78,297.18,77.78,294.94Zm6.67-.77v-.64h-1c-1.47,0-2.12.28-2.12,1.15,0,.6.41,1,1.26,1C83.68,295.67,84.45,295.08,84.45,294.17Z" fill="#fff"/><path d="M89.13,294.52h3.36c.12.76.47,1.19,1.51,1.19.89,0,1.3-.35,1.3-.87s-.51-.75-2-.95c-2.85-.36-4-1.19-4-3.39S91.37,287,93.83,287c2.63,0,4.46.89,4.71,3.41h-3.3a1.18,1.18,0,0,0-1.36-1.05c-.8,0-1.21.34-1.21.83s.49.7,1.8.86c3,.37,4.37,1.14,4.37,3.4,0,2.5-1.87,3.63-4.82,3.63S89.21,296.86,89.13,294.52Z" fill="#fff"/><path d="M20.08,310.31h3.64V312a3.76,3.76,0,0,1,3.5-2c2.06,0,3.48,1.27,3.48,4v6.87H27.06v-6.14c0-1.19-.47-1.77-1.53-1.77s-1.81.64-1.81,2v5.92H20.08Z" fill="#fff"/><path d="M31.9,315.72v-.16c0-3.39,2.55-5.53,5.85-5.53s5.8,2.08,5.8,5.43v.16c0,3.43-2.55,5.49-5.82,5.49S31.9,319.13,31.9,315.72Zm7.94-.06v-.16c0-1.78-.71-2.77-2.09-2.77s-2.12.95-2.12,2.73v.16c0,1.82.71,2.81,2.12,2.81S39.84,317.42,39.84,315.66Z" fill="#fff"/><path d="M44.26,315.72v-.16A5.33,5.33,0,0,1,49.94,310c2.6,0,5,1.13,5.21,4.34H51.73A1.58,1.58,0,0,0,50,312.83c-1.28,0-2,.91-2,2.69v.16c0,1.84.71,2.79,2.1,2.79a1.77,1.77,0,0,0,1.85-1.76h3.28c-.1,2.66-1.92,4.4-5.36,4.4C46.68,321.11,44.26,319.27,44.26,315.72Z" fill="#fff"/><path d="M56.39,305.67H60V312a3.76,3.76,0,0,1,3.5-2c2.06,0,3.48,1.27,3.48,4v6.87H63.37v-6.14c0-1.19-.47-1.77-1.53-1.77S60,313.6,60,315v5.92H56.39Z" fill="#fff"/><path d="M68.21,315.72v-.16A5.43,5.43,0,0,1,74,310c2.91,0,5.42,1.65,5.42,5.45v.95H71.9a2.11,2.11,0,0,0,2.21,2.2c1.21,0,1.71-.55,1.86-1.25h3.42c-.33,2.38-2.18,3.73-5.4,3.73S68.21,319.17,68.21,315.72Zm7.63-1.33c-.06-1.27-.69-2-1.87-2a2,2,0,0,0-2,2Z" fill="#fff"/><path d="M80,317.52h3.35c.13.76.47,1.19,1.51,1.19s1.3-.34,1.3-.87-.5-.75-2-.95c-2.85-.36-4-1.19-4-3.39s2.1-3.47,4.56-3.47c2.62,0,4.46.89,4.7,3.41h-3.3a1.18,1.18,0,0,0-1.36-1.05c-.79,0-1.2.34-1.2.83s.49.7,1.79.86c2.95.37,4.38,1.14,4.38,3.4,0,2.5-1.88,3.63-4.83,3.63S80.12,319.86,80,317.52Z" fill="#fff"/><path d="M90.78,319.05a2,2,0,0,1,2.08-2,2,2,0,1,1,0,4.08A2,2,0,0,1,90.78,319.05Z" fill="#fff"/></g></g></g></svg>