<svg xmlns="http://www.w3.org/2000/svg" viewBox="0 0 300 600"><title>H1</title><g id="Layer_2" data-name="Layer 2"><g id="Rect"><rect width="300" height="600" fill="none"/></g><g id="H01"><g id="Up_to_3_500_today._No_Interest._No_Loan_Fees._Starting_Jan_4th" data-name="Up to $3,500 today. No Interest. No Loan Fees. Starting Jan 4th"><path d="M21.55,129.45V112.51h8.17v16.58c0,4,1,6,4.47,6s4.46-1.84,4.46-6.1V112.51H46.9v16.82c0,8.29-4.86,12.15-12.71,12.15C26.13,141.48,21.55,137.42,21.55,129.45Z" fill="#fff"/><path d="M50.76,120.16H57.9v3.11a7.34,7.34,0,0,1,6.49-3.67c4.86,0,8.81,3.67,8.81,10.8v.32c0,7.18-4,10.76-8.85,10.76-3.15,0-5.42-1.47-6.45-3.54v10H50.76ZM66,130.72v-.32c0-3.66-1.6-5.42-4.11-5.42s-4.14,1.88-4.14,5.39v.31c0,3.55,1.55,5.34,4.14,5.34S66,134.15,66,130.72Z" fill="#fff"/><path d="M84,134.31V125H81.48v-4.86H84v-4.34h7.13v4.34h4.1V125h-4.1v8.61c0,1.52.76,2.2,2.11,2.2a5.37,5.37,0,0,0,2-.36v5.42a14.91,14.91,0,0,1-3.94.59C86.63,141.48,84,139.21,84,134.31Z" fill="#fff"/><path d="M96.83,130.84v-.32c0-6.69,5-10.92,11.44-10.92s11.35,4.11,11.35,10.73v.31c0,6.78-5,10.84-11.39,10.84S96.83,137.58,96.83,130.84Zm15.54-.12v-.32c0-3.5-1.39-5.46-4.1-5.46s-4.15,1.88-4.15,5.39v.31c0,3.59,1.39,5.54,4.15,5.54S112.37,134.19,112.37,130.72Z" fill="#fff"/><path d="M25.69,169.82c-4-.28-6-2.42-6.13-5.49h4.3a2.19,2.19,0,0,0,1.83,2.19v-3.39c-4-.59-5.76-2-5.76-5.28,0-2.81,2.21-4.83,5.76-5.09v-2.07h1.82v2.09c3.37.28,5.36,1.84,5.64,5H29a1.86,1.86,0,0,0-1.44-1.74v3.21c3.55.51,5.88,1.72,5.88,5.09,0,2.83-1.84,5.2-5.88,5.46v2.9H25.69Zm0-10.83v-3c-1,.18-1.58.74-1.58,1.48S24.44,158.73,25.69,159Zm1.82,4.44v3.09a1.67,1.67,0,0,0,1.55-1.65C29.06,164.1,28.74,163.71,27.51,163.43Z" fill="#fff"/><path d="M34.8,173.49h7.25c.24,2.35,1.36,3.95,4.19,3.95,2.51,0,3.74-1.2,3.74-3.23,0-2.23-1.19-3.35-3.74-3.35H44V165.8h2.11c2.55,0,3.78-1.16,3.78-3.15,0-1.71-1.11-2.83-3.26-2.83s-3.47,1.32-3.79,3.63H35.6C36,157.83,39.7,154,46.8,154c6.69,0,10.72,3.07,10.72,7.81,0,3.19-1.84,5.26-4.83,6.14,3.27.68,5.54,3,5.54,6.46,0,5.42-4,9-11.55,9C38.74,183.33,35,179.67,34.8,173.49Z" fill="#fff"/><path d="M58.91,186.08l3.35-10.48L68.87,178l-5.74,9.77Z" fill="#fff"/><path d="M70.19,173.89H77.6c.28,2,1.08,3.31,3.71,3.31,2.35,0,3.42-1.76,3.42-4,0-2.55-1.39-4.06-3.86-4.06a5.83,5.83,0,0,0-4.71,2H71.3l.6-16.78H91.11v6H77.8l-.16,6.3c1.08-1.56,3.11-3,6.65-3,5.23,0,8.65,3.5,8.65,9.68s-4.34,10-11.55,10C73.81,183.33,70.39,179.23,70.19,173.89Z" fill="#fff"/><path d="M94.93,169.23V168c0-9,5.62-14.07,13.16-14.07s13.15,4.66,13.15,13.91V169c0,9-5.18,14.34-13.31,14.34C100,183.33,94.93,178.19,94.93,169.23Zm18.14-.08V168c0-5.22-1.52-7.85-5-7.85s-5,2.59-5,7.85v1.2c0,5.3,1.56,7.81,5.07,7.81S113.07,174.41,113.07,169.15Z" fill="#fff"/><path d="M123.51,169.23V168c0-9,5.61-14.07,13.15-14.07s13.15,4.66,13.15,13.91V169c0,9-5.18,14.34-13.31,14.34C128.53,183.33,123.51,178.19,123.51,169.23Zm18.13-.08V168c0-5.22-1.51-7.85-5-7.85s-5,2.59-5,7.85v1.2c0,5.3,1.55,7.81,5.06,7.81S141.64,174.41,141.64,169.15Z" fill="#fff"/><path d="M161,176.16v-9.29h-2.51V162H161v-4.34h7.14V162h4.1v4.86h-4.1v8.61c0,1.52.76,2.2,2.11,2.2a5.37,5.37,0,0,0,2-.36v5.42a14.91,14.91,0,0,1-3.94.59C163.59,183.33,161,181.06,161,176.16Z" fill="#fff"/><path d="M173.79,172.69v-.32c0-6.69,5-10.92,11.44-10.92s11.36,4.11,11.36,10.73v.31c0,6.78-5,10.84-11.4,10.84S173.79,179.43,173.79,172.69Zm15.55-.12v-.32c0-3.5-1.4-5.46-4.11-5.46s-4.14,1.88-4.14,5.39v.31c0,3.59,1.39,5.54,4.14,5.54S189.34,176,189.34,172.57Z" fill="#fff"/><path d="M198.06,172.65v-.32c0-7.09,3.91-10.88,8.85-10.88a6.77,6.77,0,0,1,6.42,3.51V152.85h7.13v30h-7.13v-3.39a7,7,0,0,1-6.5,3.86C202,183.33,198.06,179.87,198.06,172.65Zm15.47-.12v-.31c0-3.51-1.48-5.39-4.11-5.39s-4.1,1.8-4.1,5.42v.32c0,3.51,1.55,5.3,4,5.3S213.53,176.08,213.53,172.53Z" fill="#fff"/><path d="M222.89,177.08c0-4.9,4.15-6.82,11.08-6.82h2v-.48c0-2-.48-3.3-2.75-3.3a2.56,2.56,0,0,0-2.83,2.47h-6.69c.32-5,4.26-7.5,10-7.5s9.41,2.36,9.41,7.9v13.51h-6.94v-2.43c-1,1.51-2.83,2.9-6.18,2.9C226.2,183.33,222.89,181.5,222.89,177.08ZM236,175.56v-1.27h-1.87c-2.87,0-4.15.56-4.15,2.27,0,1.19.8,1.95,2.48,1.95C234.45,178.51,236,177.36,236,175.56Z" fill="#fff"/><path d="M252.34,180.74,244,162h7.73l4.31,11.12L260,162h6.82l-11.16,27.82h-6.82Z" fill="#fff"/><path d="M265.33,179.27a4,4,0,0,1,4.07-4,4,4,0,1,1,0,8A4,4,0,0,1,265.33,179.27Z" fill="#fff"/><path d="M21.75,196.21H31l9.12,16.06V196.21h7.14v28.5H39.33l-10.41-17.9v17.9H21.75Z" fill="#fff"/><path d="M50.08,214.54v-.32c0-6.69,5-10.92,11.44-10.92S72.88,207.41,72.88,214v.31c0,6.78-5,10.85-11.4,10.85S50.08,221.28,50.08,214.54Zm15.55-.12v-.32c0-3.5-1.4-5.46-4.11-5.46s-4.14,1.88-4.14,5.39v.31c0,3.59,1.39,5.54,4.14,5.54S65.63,217.89,65.63,214.42Z" fill="#fff"/><path d="M83.44,196.21h8.25v28.5H83.44Z" fill="#fff"/><path d="M96.07,203.86h7.13v3.35a7.37,7.37,0,0,1,6.86-3.91c4,0,6.81,2.51,6.81,7.86v13.55h-7.13V212.59c0-2.35-.92-3.51-3-3.51s-3.55,1.28-3.55,3.95v11.68H96.07Z" fill="#fff"/><path d="M121.29,218v-9.29h-2.51v-4.86h2.51v-4.34h7.14v4.34h4.1v4.86h-4.1v8.61c0,1.52.76,2.2,2.11,2.2a5.37,5.37,0,0,0,2-.36v5.42a14.85,14.85,0,0,1-3.94.6C123.92,225.19,121.29,222.91,121.29,218Z" fill="#fff"/><path d="M134.13,214.54v-.32c0-6.69,5-10.92,11.27-10.92,5.7,0,10.61,3.27,10.61,10.76v1.88H141.34c.2,2.75,1.79,4.34,4.34,4.34,2.36,0,3.35-1.07,3.63-2.47H156c-.64,4.7-4.27,7.38-10.57,7.38C138.91,225.19,134.13,221.36,134.13,214.54Zm14.94-2.63c-.12-2.51-1.35-3.9-3.67-3.9-2.15,0-3.62,1.39-4,3.9Z" fill="#fff"/><path d="M158.47,203.86h7.14V208a6.57,6.57,0,0,1,6.73-4.43v6.66c-4.34-.12-6.73,1.23-6.73,4.58v9.89h-7.14Z" fill="#fff"/><path d="M173.62,214.54v-.32c0-6.69,5-10.92,11.28-10.92,5.69,0,10.6,3.27,10.6,10.76v1.88H180.83c.2,2.75,1.79,4.34,4.34,4.34,2.36,0,3.35-1.07,3.63-2.47h6.7c-.64,4.7-4.27,7.38-10.56,7.38C178.4,225.19,173.62,221.36,173.62,214.54Zm14.94-2.63c-.12-2.51-1.35-3.9-3.66-3.9-2.16,0-3.63,1.39-4,3.9Z" fill="#fff"/><path d="M196.77,218.09h6.57c.24,1.51.92,2.35,2.95,2.35,1.76,0,2.55-.68,2.55-1.71s-1-1.48-3.86-1.88c-5.58-.71-7.93-2.35-7.93-6.69,0-4.62,4.1-6.86,8.93-6.86,5.14,0,8.72,1.76,9.2,6.74h-6.45a2.33,2.33,0,0,0-2.68-2.07c-1.55,0-2.35.67-2.35,1.63s1,1.4,3.51,1.71c5.78.72,8.57,2.24,8.57,6.7,0,4.94-3.67,7.18-9.45,7.18C200.4,225.19,196.93,222.71,196.77,218.09Z" fill="#fff"/><path d="M219,218v-9.29h-2.51v-4.86H219v-4.34h7.14v4.34h4.1v4.86h-4.1v8.61c0,1.52.76,2.2,2.11,2.2a5.37,5.37,0,0,0,2-.36v5.42a14.85,14.85,0,0,1-3.94.6C221.68,225.19,219,222.91,219,218Z" fill="#fff"/><path d="M232.71,221.12a4,4,0,0,1,4.07-4,4,4,0,1,1,0,8.06A4,4,0,0,1,232.71,221.12Z" fill="#fff"/><path d="M21.75,238.06H31l9.12,16.06V238.06h7.14v28.5H39.33l-10.41-17.9v17.9H21.75Z" fill="#fff"/><path d="M50.08,256.39v-.32c0-6.69,5-10.92,11.44-10.92s11.36,4.11,11.36,10.73v.31c0,6.78-5,10.85-11.4,10.85S50.08,263.13,50.08,256.39Zm15.55-.12V256c0-3.51-1.4-5.47-4.11-5.47s-4.14,1.88-4.14,5.39v.31c0,3.59,1.39,5.54,4.14,5.54S65.63,259.74,65.63,256.27Z" fill="#fff"/><path d="M83.28,238.06h8.21v22.16h10.76v6.34h-19Z" fill="#fff"/><path d="M103.44,256.39v-.32c0-6.69,5-10.92,11.44-10.92s11.36,4.11,11.36,10.73v.31c0,6.78-5,10.85-11.4,10.85S103.44,263.13,103.44,256.39Zm15.55-.12V256c0-3.51-1.4-5.47-4.11-5.47s-4.14,1.88-4.14,5.39v.31c0,3.59,1.39,5.54,4.14,5.54S119,259.74,119,256.27Z" fill="#fff"/><path d="M127.55,260.78c0-4.9,4.15-6.82,11.08-6.82h2v-.48c0-2-.47-3.3-2.75-3.3a2.56,2.56,0,0,0-2.83,2.47h-6.69c.32-5,4.26-7.5,10-7.5s9.41,2.36,9.41,7.9v13.51h-6.94v-2.43c-1,1.51-2.83,2.91-6.17,2.91C130.86,267,127.55,265.2,127.55,260.78Zm13.07-1.52V258h-1.87c-2.87,0-4.14.56-4.14,2.27,0,1.2.79,1.95,2.47,1.95C139.11,262.21,140.62,261.06,140.62,259.26Z" fill="#fff"/><path d="M151.18,245.71h7.14v3.35a7.35,7.35,0,0,1,6.85-3.91c4,0,6.82,2.52,6.82,7.86v13.55h-7.14V254.44c0-2.35-.91-3.51-3-3.51s-3.54,1.28-3.54,3.95v11.68h-7.14Z" fill="#fff"/><path d="M183.34,238.06h19.25v6.34h-11v6.06h8.81v6h-8.81v10.09h-8.21Z" fill="#fff"/><path d="M203.15,256.39v-.32c0-6.69,5-10.92,11.27-10.92,5.7,0,10.61,3.27,10.61,10.77v1.87H210.36c.2,2.75,1.79,4.34,4.34,4.34,2.35,0,3.35-1.07,3.63-2.47H225c-.64,4.7-4.27,7.38-10.57,7.38C207.93,267,203.15,263.21,203.15,256.39Zm14.94-2.63c-.12-2.51-1.35-3.9-3.67-3.9-2.15,0-3.62,1.39-4,3.9Z" fill="#fff"/><path d="M226.38,256.39v-.32c0-6.69,5-10.92,11.28-10.92,5.7,0,10.6,3.27,10.6,10.77v1.87H233.59c.2,2.75,1.79,4.34,4.35,4.34,2.35,0,3.34-1.07,3.62-2.47h6.7c-.64,4.7-4.27,7.38-10.56,7.38C231.16,267,226.38,263.21,226.38,256.39Zm14.94-2.63c-.12-2.51-1.35-3.9-3.66-3.9-2.16,0-3.63,1.39-4,3.9Z" fill="#fff"/><path d="M249.53,259.94h6.58c.23,1.52.91,2.35,2.94,2.35,1.76,0,2.56-.68,2.56-1.71s-1-1.48-3.87-1.87c-5.58-.72-7.93-2.36-7.93-6.7,0-4.62,4.1-6.86,8.93-6.86,5.14,0,8.72,1.76,9.2,6.74h-6.45a2.33,2.33,0,0,0-2.67-2.07c-1.56,0-2.36.67-2.36,1.63s1,1.4,3.51,1.72c5.78.71,8.57,2.23,8.57,6.69,0,4.94-3.67,7.18-9.45,7.18S249.69,264.56,249.53,259.94Z" fill="#fff"/><path d="M270.57,263a4,4,0,0,1,4.07-4,4,4,0,1,1,0,8.06A4,4,0,0,1,270.57,263Z" fill="#fff"/><path d="M19.92,299.36h7.77c.2,2,1.11,3.71,4.5,3.71,2.35,0,3.67-1.16,3.67-2.83s-1.08-2.24-4.5-2.75c-8.06-1-10.77-3.35-10.77-9.09,0-5.14,4.23-8.89,11-8.89s10.73,2.87,11.24,8.89H35.3c-.28-2-1.43-3.07-3.67-3.07s-3.3,1-3.3,2.43c0,1.6.87,2.31,4.42,2.79,7.21.8,10.92,2.67,10.92,8.85,0,5.22-4.14,9.48-11.48,9.48C24.22,308.88,20.16,305.54,19.92,299.36Z" fill="#fff"/><path d="M47.25,301.71v-9.29H44.74v-4.86h2.51v-4.34h7.14v4.34h4.1v4.86h-4.1V301c0,1.52.76,2.2,2.11,2.2a5.37,5.37,0,0,0,2-.36v5.42a14.91,14.91,0,0,1-3.94.59C49.88,308.88,47.25,306.61,47.25,301.71Z" fill="#fff"/><path d="M60.08,302.63c0-4.9,4.15-6.82,11.08-6.82h2v-.48c0-2-.48-3.3-2.75-3.3a2.55,2.55,0,0,0-2.83,2.47h-6.7c.32-5,4.27-7.5,10-7.5s9.4,2.36,9.4,7.9v13.51H73.32V306c-1,1.51-2.83,2.9-6.18,2.9C63.39,308.88,60.08,307.05,60.08,302.63Zm13.08-1.52v-1.27H71.28c-2.87,0-4.14.56-4.14,2.27,0,1.19.8,1.95,2.47,1.95C71.64,304.06,73.16,302.91,73.16,301.11Z" fill="#fff"/><path d="M83.72,287.56h7.13v4.15a6.58,6.58,0,0,1,6.74-4.43v6.66c-4.35-.12-6.74,1.23-6.74,4.58v9.89H83.72Z" fill="#fff"/><path d="M101.45,301.71v-9.29H98.94v-4.86h2.51v-4.34h7.13v4.34h4.11v4.86h-4.11V301c0,1.52.76,2.2,2.11,2.2a5.46,5.46,0,0,0,2-.36v5.42a15,15,0,0,1-4,.59C104.08,308.88,101.45,306.61,101.45,301.71Z" fill="#fff"/><path d="M115.24,281.9a3.72,3.72,0,0,1,3.9-3.7,3.69,3.69,0,1,1,0,7.37A3.69,3.69,0,0,1,115.24,281.9Zm.35,5.66h7.14v20.85h-7.14Z" fill="#fff"/><path d="M126.55,287.56h7.14v3.35a7.36,7.36,0,0,1,6.85-3.91c4,0,6.82,2.52,6.82,7.86v13.55h-7.14V296.29c0-2.35-.91-3.51-3-3.51s-3.54,1.28-3.54,4v11.68h-7.14Z" fill="#fff"/><path d="M149.67,308.41h7.09c.32,1.51,1.24,2.71,3.83,2.71,3.15,0,4.42-1.8,4.42-4.39v-3.19a7.31,7.31,0,0,1-6.46,3.83c-4.86,0-8.84-3.59-8.84-10v-.32c0-6.14,3.94-10.05,8.84-10.05a6.79,6.79,0,0,1,6.46,3.51v-2.95h7.13v19.09c0,6.22-4.1,9.49-11.55,9.49C153.49,316.14,150.22,313.15,149.67,308.41Zm15.54-11.08v-.28c0-2.87-1.47-4.71-4.11-4.71s-4.1,1.88-4.1,4.75v.32c0,2.87,1.51,4.7,4.06,4.7S165.21,300.28,165.21,297.33Z" fill="#fff"/><path d="M20.32,349.66v-6.1a9.56,9.56,0,0,0,3.46.56c2.23,0,3.71-1,3.71-3.95V321.76H35.7v18.49c0,6.86-3.51,10.37-10.2,10.37A10.91,10.91,0,0,1,20.32,349.66Z" fill="#fff"/><path d="M38,344.48c0-4.9,4.14-6.82,11.08-6.82h2v-.48c0-2-.48-3.3-2.75-3.3a2.56,2.56,0,0,0-2.83,2.47H38.77c.31-5,4.26-7.5,10-7.5s9.41,2.36,9.41,7.9v13.51H51.2v-2.43c-1,1.51-2.83,2.91-6.18,2.91C41.28,350.74,38,348.9,38,344.48ZM51,343v-1.27H49.17c-2.87,0-4.15.56-4.15,2.27,0,1.2.8,2,2.47,2C49.53,345.91,51,344.76,51,343Z" fill="#fff"/><path d="M61.6,329.41h7.13v3.35a7.37,7.37,0,0,1,6.86-3.91c4,0,6.81,2.52,6.81,7.86v13.55H75.27V338.14c0-2.35-.92-3.51-3-3.51s-3.55,1.28-3.55,3.95v11.68H61.6Z" fill="#fff"/><path d="M105.6,344.8H91.73v-3.07l11.87-20h9.85v17.42h3.66v5.62h-3.66v5.46H105.6Zm.19-5.62V327.9l-6.37,11.28Z" fill="#fff"/><path d="M120.5,343.56v-9.29H118v-4.86h2.51v-4.34h7.13v4.34h4.11v4.86h-4.11v8.61c0,1.52.76,2.2,2.11,2.2a5.46,5.46,0,0,0,2-.36v5.42a15,15,0,0,1-4,.6C123.13,350.74,120.5,348.46,120.5,343.56Z" fill="#fff"/><path d="M134.44,320.25h7.14v12.51a7.36,7.36,0,0,1,6.85-3.91c4,0,6.82,2.52,6.82,7.86v13.55h-7.14V338.14c0-2.35-.91-3.51-3-3.51s-3.55,1.28-3.55,3.95v11.68h-7.14Z" fill="#fff"/><path d="M158.43,346.67a4,4,0,0,1,4.07-4,4,4,0,1,1,0,8.06A4,4,0,0,1,158.43,346.67Z" fill="#fff"/></g></g></g></svg>