<svg xmlns="http://www.w3.org/2000/svg" viewBox="0 0 160 600"><title>H2</title><g id="Layer_2" data-name="Layer 2"><g id="Rect"><rect width="160" height="600" fill="none"/></g><g id="H02"><g id="Starting_in_January_you_could_get_a_Refund_Advance_loan_up_to" data-name="Starting in January, you could get a Refund Advance loan up to"><path d="M20.56,100.56h4.71c.12,1.23.67,2.25,2.73,2.25,1.42,0,2.22-.7,2.22-1.72s-.65-1.35-2.73-1.66c-4.88-.58-6.52-2-6.52-5.51,0-3.12,2.56-5.39,6.69-5.39s6.49,1.74,6.81,5.39H29.88a2,2,0,0,0-2.22-1.86c-1.33,0-2,.6-2,1.47s.53,1.4,2.68,1.69c4.38.49,6.62,1.62,6.62,5.36,0,3.17-2.51,5.75-7,5.75C23.16,106.33,20.7,104.31,20.56,100.56Z" fill="#fff"/><path d="M37.12,102V96.36H35.6v-3h1.52V90.78h4.33v2.63h2.48v3H41.45v5.22a1.15,1.15,0,0,0,1.28,1.32,3.41,3.41,0,0,0,1.23-.21V106a8.93,8.93,0,0,1-2.39.36C38.72,106.33,37.12,105,37.12,102Z" fill="#fff"/><path d="M44.9,102.54c0-3,2.51-4.13,6.71-4.13h1.21v-.29c0-1.21-.29-2-1.67-2a1.55,1.55,0,0,0-1.71,1.49H45.38c.19-3,2.59-4.54,6-4.54s5.7,1.43,5.7,4.79V106h-4.2v-1.47a4.16,4.16,0,0,1-3.75,1.76C46.9,106.33,44.9,105.22,44.9,102.54Zm7.92-.92v-.77H51.69c-1.74,0-2.52.34-2.52,1.38,0,.72.49,1.18,1.5,1.18A1.91,1.91,0,0,0,52.82,101.62Z" fill="#fff"/><path d="M59.22,93.41h4.32v2.51a4,4,0,0,1,4.08-2.68v4c-2.63-.08-4.08.74-4.08,2.77v6H59.22Z" fill="#fff"/><path d="M70,102V96.36H68.44v-3H70V90.78h4.32v2.63h2.49v3H74.29v5.22a1.15,1.15,0,0,0,1.28,1.32,3.37,3.37,0,0,0,1.23-.21V106a8.86,8.86,0,0,1-2.39.36C71.56,106.33,70,105,70,102Z" fill="#fff"/><path d="M78.32,90a2.39,2.39,0,1,1,2.37,2.22A2.24,2.24,0,0,1,78.32,90Zm.22,3.43h4.32V106H78.54Z" fill="#fff"/><path d="M85.18,93.41H89.5v2a4.48,4.48,0,0,1,4.16-2.37c2.44,0,4.13,1.52,4.13,4.76V106H93.46V98.7c0-1.42-.55-2.12-1.81-2.12S89.5,97.35,89.5,99V106H85.18Z" fill="#fff"/><path d="M99.19,106h4.3c.19.92.74,1.65,2.31,1.65a2.4,2.4,0,0,0,2.69-2.66V103.1a4.44,4.44,0,0,1-3.92,2.32c-2.94,0-5.36-2.18-5.36-6.07v-.19c0-3.72,2.39-6.09,5.36-6.09a4.12,4.12,0,0,1,3.92,2.13V93.41h4.32V105c0,3.77-2.49,5.75-7,5.75C101.5,110.73,99.52,108.92,99.19,106Zm9.42-6.71v-.17c0-1.74-.9-2.85-2.49-2.85s-2.49,1.13-2.49,2.87v.2c0,1.74.92,2.85,2.46,2.85S108.61,101.12,108.61,99.33Z" fill="#fff"/><path d="M119.3,90a2.39,2.39,0,1,1,2.37,2.22A2.24,2.24,0,0,1,119.3,90Zm.22,3.43h4.32V106h-4.32Z" fill="#fff"/><path d="M126.16,93.41h4.33v2a4.46,4.46,0,0,1,4.15-2.37c2.44,0,4.13,1.52,4.13,4.76V106h-4.32V98.7c0-1.42-.56-2.12-1.82-2.12s-2.14.77-2.14,2.39V106h-4.33Z" fill="#fff"/><path d="M20.8,134.83v-3.69a5.94,5.94,0,0,0,2.1.33c1.35,0,2.25-.6,2.25-2.39V117.92h5v11.21c0,4.16-2.12,6.28-6.18,6.28A6.61,6.61,0,0,1,20.8,134.83Z" fill="#fff"/><path d="M31.5,131.69c0-3,2.51-4.13,6.71-4.13h1.21v-.29c0-1.21-.29-2-1.67-2A1.54,1.54,0,0,0,36,126.76H32c.19-3,2.58-4.54,6-4.54s5.7,1.43,5.7,4.79v8.18h-4.2v-1.47a4.16,4.16,0,0,1-3.75,1.76C33.5,135.48,31.5,134.37,31.5,131.69Zm7.92-.92V130H38.28c-1.74,0-2.51.34-2.51,1.38,0,.72.48,1.18,1.5,1.18A1.91,1.91,0,0,0,39.42,130.77Z" fill="#fff"/><path d="M45.82,122.56h4.32v2a4.47,4.47,0,0,1,4.15-2.37c2.44,0,4.14,1.52,4.14,4.76v8.21H54.1v-7.34c0-1.42-.55-2.12-1.81-2.12s-2.15.77-2.15,2.39v7.07H45.82Z" fill="#fff"/><path d="M60.43,130.8v-8.24h4.32v7.54c0,1.42.56,2.12,1.79,2.12s2.15-.77,2.15-2.39v-7.27H73v12.63H68.69v-1.95a4.16,4.16,0,0,1-4,2.24C62.24,135.48,60.43,134,60.43,130.8Z" fill="#fff"/><path d="M74.48,131.69c0-3,2.51-4.13,6.72-4.13h1.2v-.29c0-1.21-.29-2-1.66-2A1.55,1.55,0,0,0,79,126.76H75c.2-3,2.59-4.54,6-4.54s5.7,1.43,5.7,4.79v8.18H82.5v-1.47a4.13,4.13,0,0,1-3.74,1.76C76.49,135.48,74.48,134.37,74.48,131.69Zm7.92-.92V130H81.27c-1.74,0-2.51.34-2.51,1.38,0,.72.48,1.18,1.49,1.18C81.49,132.56,82.4,131.86,82.4,130.77Z" fill="#fff"/><path d="M88.8,122.56h4.33v2.51a4,4,0,0,1,4.08-2.68v4c-2.63-.08-4.08.74-4.08,2.77v6H88.8Z" fill="#fff"/><path d="M102.93,133.91l-5.05-11.35h4.69l2.61,6.74,2.41-6.74h4.13L105,139.42h-4.13Z" fill="#fff"/><path d="M110.08,137.15l2-6.35,4,1.42-3.48,5.92Z" fill="#fff"/><path d="M25.24,163.06l-5-11.35h4.69l2.61,6.74,2.41-6.74H34l-6.76,16.86H23.14Z" fill="#fff"/><path d="M33.79,158.18V158c0-4.06,3-6.62,6.93-6.62s6.89,2.49,6.89,6.5v.19c0,4.11-3,6.57-6.91,6.57S33.79,162.27,33.79,158.18Zm9.42-.07v-.19c0-2.13-.85-3.31-2.49-3.31s-2.51,1.14-2.51,3.26v.19c0,2.18.85,3.36,2.51,3.36S43.21,160.21,43.21,158.11Z" fill="#fff"/><path d="M49,160v-8.24h4.32v7.54c0,1.42.56,2.12,1.79,2.12s2.15-.77,2.15-2.39v-7.27h4.32v12.63H57.29v-2a4.16,4.16,0,0,1-4,2.24C50.84,164.63,49,163.14,49,160Z" fill="#fff"/><path d="M67.53,158.18V158c0-4.2,3-6.62,6.74-6.62,3.09,0,5.94,1.36,6.18,5.2H76.39a1.86,1.86,0,0,0-2-1.84c-1.52,0-2.41,1.09-2.41,3.21v.2c0,2.19.84,3.33,2.48,3.33a2.1,2.1,0,0,0,2.2-2.1h3.89c-.12,3.19-2.27,5.26-6.35,5.26C70.4,164.63,67.53,162.44,67.53,158.18Z" fill="#fff"/><path d="M81.24,158.18V158c0-4.06,3-6.62,6.94-6.62s6.88,2.49,6.88,6.5v.19c0,4.11-3,6.57-6.91,6.57S81.24,162.27,81.24,158.18Zm9.42-.07v-.19c0-2.13-.84-3.31-2.48-3.31s-2.52,1.14-2.52,3.26v.19c0,2.18.85,3.36,2.52,3.36S90.66,160.21,90.66,158.11Z" fill="#fff"/><path d="M96.48,160v-8.24h4.33v7.54c0,1.42.55,2.12,1.78,2.12s2.15-.77,2.15-2.39v-7.27h4.33v12.63h-4.33v-2a4.15,4.15,0,0,1-4,2.24C98.29,164.63,96.48,163.14,96.48,160Z" fill="#fff"/><path d="M111.38,146.16h4.3v18.18h-4.3Z" fill="#fff"/><path d="M117.37,158.16V158c0-4.3,2.37-6.6,5.36-6.6a4.1,4.1,0,0,1,3.89,2.13v-7.34H131v18.18h-4.33v-2.05a4.25,4.25,0,0,1-3.94,2.34C119.76,164.63,117.37,162.53,117.37,158.16Zm9.37-.07v-.19c0-2.13-.89-3.27-2.49-3.27s-2.48,1.09-2.48,3.29v.19c0,2.13.94,3.21,2.44,3.21S126.74,160.24,126.74,158.09Z" fill="#fff"/><path d="M20.58,193.49h4.3c.19.92.75,1.65,2.32,1.65a2.39,2.39,0,0,0,2.68-2.66v-1.93A4.44,4.44,0,0,1,26,192.87c-2.95,0-5.37-2.18-5.37-6.07v-.19c0-3.72,2.4-6.09,5.37-6.09a4.12,4.12,0,0,1,3.91,2.13v-1.79H34.2v11.57c0,3.77-2.49,5.75-7,5.75C22.9,198.18,20.92,196.37,20.58,193.49ZM30,186.78v-.17c0-1.74-.89-2.85-2.49-2.85S25,184.9,25,186.63v.2c0,1.74.92,2.85,2.47,2.85S30,188.57,30,186.78Z" fill="#fff"/><path d="M35.72,187.33v-.19c0-4.06,3-6.62,6.84-6.62,3.45,0,6.42,2,6.42,6.52v1.14H40.09a2.52,2.52,0,0,0,2.64,2.63c1.42,0,2-.65,2.19-1.49H49c-.38,2.85-2.58,4.46-6.4,4.46S35.72,191.47,35.72,187.33Zm9.06-1.59c-.07-1.52-.82-2.37-2.22-2.37a2.41,2.41,0,0,0-2.42,2.37Z" fill="#fff"/><path d="M51.06,189.44v-5.63H49.54v-2.95h1.52v-2.63h4.32v2.63h2.49v2.95H55.38V189a1.15,1.15,0,0,0,1.28,1.32,3.37,3.37,0,0,0,1.23-.21v3.28a8.79,8.79,0,0,1-2.39.36C52.65,193.78,51.06,192.41,51.06,189.44Z" fill="#fff"/><path d="M63.18,190c0-3,2.51-4.13,6.71-4.13H71.1v-.29c0-1.21-.29-2-1.66-2a1.55,1.55,0,0,0-1.72,1.49H63.66c.2-3,2.59-4.54,6-4.54s5.7,1.43,5.7,4.79v8.18H71.2V192a4.16,4.16,0,0,1-3.75,1.76C65.18,193.78,63.18,192.67,63.18,190Zm7.92-.92v-.77H70c-1.74,0-2.52.34-2.52,1.38,0,.72.49,1.18,1.5,1.18A1.91,1.91,0,0,0,71.1,189.07Z" fill="#fff"/><path d="M21.67,205.37h6.76c4.52,0,7,1.84,7,5.49V211a4.51,4.51,0,0,1-3.12,4.54l4.13,7.15H31.26l-3.51-6.18H26.59v6.18H21.67Zm6.52,7.88q2.49,0,2.49-2.1v-.1c0-1.4-.87-2-2.47-2H26.59v4.16Z" fill="#fff"/><path d="M36.47,216.48v-.19c0-4.06,3-6.62,6.84-6.62,3.45,0,6.42,2,6.42,6.52v1.14H40.84A2.52,2.52,0,0,0,43.48,220c1.42,0,2-.65,2.19-1.49h4.06c-.39,2.85-2.58,4.46-6.4,4.46S36.47,220.62,36.47,216.48Zm9.06-1.59c-.07-1.52-.82-2.37-2.22-2.37a2.41,2.41,0,0,0-2.42,2.37Z" fill="#fff"/><path d="M51.88,213h-1.6v-3h1.6V208.9c0-3.14,1.95-4.64,4.95-4.64a7.46,7.46,0,0,1,2,.27v3.16a4.16,4.16,0,0,0-1.18-.17,1.27,1.27,0,0,0-1.45,1.38V210h2.56v3H56.18v9.68h-4.3Z" fill="#fff"/><path d="M60.09,218.25V210h4.32v7.54c0,1.42.56,2.12,1.79,2.12s2.15-.77,2.15-2.39V210h4.32v12.63H68.35v-1.95a4.16,4.16,0,0,1-4,2.24C61.9,222.93,60.09,221.44,60.09,218.25Z" fill="#fff"/><path d="M74.87,210h4.32v2a4.48,4.48,0,0,1,4.16-2.37c2.44,0,4.13,1.52,4.13,4.76v8.21H83.15V215.3c0-1.42-.55-2.12-1.81-2.12s-2.15.77-2.15,2.39v7.07H74.87Z" fill="#fff"/><path d="M89,216.46v-.19c0-4.3,2.36-6.6,5.36-6.6a4.11,4.11,0,0,1,3.89,2.13v-7.34h4.32v18.18H98.2v-2a4.25,4.25,0,0,1-3.94,2.34C91.34,222.93,89,220.83,89,216.46Zm9.37-.07v-.2c0-2.12-.89-3.26-2.49-3.26s-2.49,1.09-2.49,3.29v.19c0,2.13,1,3.21,2.44,3.21S98.32,218.54,98.32,216.39Z" fill="#fff"/><path d="M25.85,234.52h6.4l5.48,17.27H32.49l-.92-3.21H25.85l-.92,3.21H20.31Zm1,10.66H30.6l-1.88-6.65Z" fill="#fff"/><path d="M38,245.61v-.19c0-4.3,2.36-6.6,5.36-6.6A4.11,4.11,0,0,1,47.27,241v-7.34h4.32v18.18H47.27v-2a4.25,4.25,0,0,1-3.94,2.34C40.41,252.08,38,250,38,245.61Zm9.37-.07v-.2c0-2.12-.9-3.26-2.49-3.26s-2.49,1.09-2.49,3.29v.19c0,2.13.94,3.21,2.44,3.21S47.39,247.69,47.39,245.54Z" fill="#fff"/><path d="M52.7,239.16h4.61L60,247.3l2.58-8.14h4.13l-4.61,12.63H57.34Z" fill="#fff"/><path d="M66.49,248.29c0-3,2.51-4.13,6.71-4.13h1.21v-.29c0-1.21-.29-2-1.66-2A1.55,1.55,0,0,0,71,243.36H67c.2-3,2.59-4.54,6-4.54s5.7,1.43,5.7,4.79v8.18h-4.2v-1.47a4.16,4.16,0,0,1-3.75,1.76C68.49,252.08,66.49,251,66.49,248.29Zm7.92-.92v-.77H73.28c-1.74,0-2.52.34-2.52,1.38,0,.72.49,1.18,1.5,1.18A1.91,1.91,0,0,0,74.41,247.37Z" fill="#fff"/><path d="M80.81,239.16h4.32v2a4.48,4.48,0,0,1,4.16-2.37c2.44,0,4.13,1.52,4.13,4.76v8.21H89.09v-7.34c0-1.42-.55-2.12-1.81-2.12s-2.15.77-2.15,2.39v7.07H80.81Z" fill="#fff"/><path d="M94.84,245.63v-.19c0-4.2,3-6.62,6.74-6.62,3.09,0,5.94,1.36,6.18,5.2h-4.05a1.87,1.87,0,0,0-2-1.84c-1.53,0-2.42,1.09-2.42,3.21v.2c0,2.19.85,3.33,2.49,3.33a2.11,2.11,0,0,0,2.2-2.1h3.89c-.13,3.19-2.27,5.26-6.36,5.26C97.71,252.08,94.84,249.89,94.84,245.63Z" fill="#fff"/><path d="M108.56,245.63v-.19c0-4.06,3-6.62,6.83-6.62,3.46,0,6.43,2,6.43,6.52v1.14h-8.89a2.52,2.52,0,0,0,2.63,2.63c1.43,0,2-.65,2.2-1.49h4.06c-.39,2.85-2.59,4.46-6.4,4.46C111.46,252.08,108.56,249.77,108.56,245.63Zm9.06-1.59c-.08-1.52-.83-2.37-2.23-2.37A2.41,2.41,0,0,0,113,244Z" fill="#fff"/><path d="M21.4,262.76h4.3v18.18H21.4Z" fill="#fff"/><path d="M27.34,274.78v-.19c0-4.06,3-6.62,6.93-6.62s6.89,2.49,6.89,6.5v.19c0,4.11-3,6.57-6.91,6.57S27.34,278.87,27.34,274.78Zm9.42-.07v-.19c0-2.13-.84-3.31-2.49-3.31s-2.51,1.14-2.51,3.26v.19c0,2.18.85,3.36,2.51,3.36S36.76,276.81,36.76,274.71Z" fill="#fff"/><path d="M42,277.44c0-3,2.51-4.13,6.72-4.13h1.21V273c0-1.21-.3-2-1.67-2a1.55,1.55,0,0,0-1.72,1.49H42.44c.19-3,2.58-4.54,6-4.54s5.7,1.43,5.7,4.79v8.18H50v-1.47a4.13,4.13,0,0,1-3.74,1.76C44,281.23,42,280.12,42,277.44Zm7.93-.92v-.77H48.74c-1.74,0-2.51.34-2.51,1.38,0,.72.48,1.18,1.5,1.18A1.91,1.91,0,0,0,49.88,276.52Z" fill="#fff"/><path d="M56.27,268.31H60.6v2A4.46,4.46,0,0,1,64.75,268c2.44,0,4.13,1.52,4.13,4.76v8.21H64.56V273.6c0-1.42-.56-2.12-1.81-2.12s-2.15.77-2.15,2.39v7.07H56.27Z" fill="#fff"/><path d="M75.28,276.55v-8.24H79.6v7.54c0,1.42.56,2.12,1.79,2.12s2.15-.77,2.15-2.39v-7.27h4.32v12.63H83.54V279a4.16,4.16,0,0,1-4,2.24C77.09,281.23,75.28,279.74,75.28,276.55Z" fill="#fff"/><path d="M90.06,268.31h4.32v1.89A4.47,4.47,0,0,1,98.32,268c3,0,5.34,2.23,5.34,6.55v.19c0,4.35-2.39,6.52-5.37,6.52a4.17,4.17,0,0,1-3.91-2.15v6.09H90.06Zm9.2,6.4v-.19c0-2.22-1-3.29-2.49-3.29s-2.51,1.14-2.51,3.26v.2c0,2.15.94,3.23,2.51,3.23S99.26,276.79,99.26,274.71Z" fill="#fff"/><path d="M110.2,276.89v-5.63h-1.52v-2.95h1.52v-2.63h4.32v2.63H117v2.95h-2.49v5.22a1.15,1.15,0,0,0,1.28,1.32,3.34,3.34,0,0,0,1.23-.21v3.28a8.79,8.79,0,0,1-2.39.36C111.79,281.23,110.2,279.86,110.2,276.89Z" fill="#fff"/><path d="M118,274.78v-.19c0-4.06,3-6.62,6.94-6.62s6.88,2.49,6.88,6.5v.19c0,4.11-3,6.57-6.91,6.57S118,278.87,118,274.78Zm9.42-.07v-.19c0-2.13-.84-3.31-2.48-3.31s-2.52,1.14-2.52,3.26v.19c0,2.18.85,3.36,2.52,3.36S127.39,276.81,127.39,274.71Z" fill="#fff"/><path d="M24.06,302.19c-2.44-.17-3.62-1.46-3.72-3.32h2.6a1.33,1.33,0,0,0,1.12,1.32v-2.05c-2.45-.36-3.5-1.24-3.5-3.2,0-1.7,1.34-2.93,3.5-3.08V290.6h1.09v1.27c2.05.17,3.26,1.11,3.43,3H26a1.13,1.13,0,0,0-.88-1.05v1.94c2.16.31,3.57,1,3.57,3.08,0,1.72-1.11,3.16-3.57,3.31V304H24.06Zm0-6.56v-1.8c-.64.11-1,.45-1,.9S23.3,295.48,24.06,295.63Zm1.09,2.69v1.87a1,1,0,0,0,1-1C26.1,298.73,25.9,298.49,25.15,298.32Z" fill="#fff"/><path d="M29.57,304.42H34a2.32,2.32,0,0,0,2.54,2.39c1.52,0,2.27-.73,2.27-2s-.73-2-2.27-2H35.13v-3.06h1.28c1.55,0,2.29-.7,2.29-1.91,0-1-.67-1.72-2-1.72a2.21,2.21,0,0,0-2.29,2.2H30.06c.21-3.41,2.49-5.75,6.78-5.75,4.06,0,6.5,1.86,6.5,4.74A3.69,3.69,0,0,1,40.42,301,3.89,3.89,0,0,1,43.78,305c0,3.28-2.44,5.43-7,5.43C32,310.38,29.72,308.16,29.57,304.42Z" fill="#fff"/><path d="M44.19,312.05l2-6.35,4,1.42L46.75,313Z" fill="#fff"/><path d="M51,304.66h4.49a2,2,0,0,0,2.25,2c1.42,0,2.08-1.06,2.08-2.44a2.2,2.2,0,0,0-2.35-2.46A3.55,3.55,0,0,0,54.64,303H51.7l.36-10.17H63.7v3.63H55.63l-.09,3.81a4.59,4.59,0,0,1,4-1.83c3.16,0,5.24,2.12,5.24,5.87s-2.63,6.08-7,6.08C53.22,310.38,51.14,307.9,51,304.66Z" fill="#fff"/><path d="M66,301.83v-.72c0-5.46,3.4-8.53,8-8.53s8,2.83,8,8.43v.68c0,5.48-3.14,8.69-8.07,8.69S66,307.27,66,301.83Zm11,0v-.71c0-3.16-.92-4.75-3-4.75s-3,1.57-3,4.75v.73c0,3.21.94,4.73,3.07,4.73S77,305,77,301.79Z" fill="#fff"/><path d="M83.33,301.83v-.72c0-5.46,3.41-8.53,8-8.53s8,2.83,8,8.43v.68c0,5.48-3.14,8.69-8.06,8.69S83.33,307.27,83.33,301.83Zm11,0v-.71c0-3.16-.91-4.75-3-4.75s-3,1.57-3,4.75v.73c0,3.21,1,4.73,3.07,4.73S94.32,305,94.32,301.79Z" fill="#fff"/><path d="M99.68,307.92a2.41,2.41,0,0,1,2.47-2.44,2.44,2.44,0,1,1,0,4.88A2.41,2.41,0,0,1,99.68,307.92Z" fill="#fff"/></g></g></g></svg>