<svg xmlns="http://www.w3.org/2000/svg" viewBox="0 0 160 600"><title>160x600</title><g id="Layer_2" data-name="Layer 2"><g id="Artboard_5" data-name="Artboard 5" style="isolation:isolate"><g id="headline1"><g id="Help_is_here_with_Tax_Pro_Go._Upload_your_docs_for_expert_tax_p" data-name="Help is here with Tax Pro Go. Upload your docs for expert tax p"><path d="M22.92,116.14H27.4v5.94h5.11v-5.94H37v15.55H32.51v-6.13H27.4v6.13H22.92Z" fill="#fff"/><path d="M38.54,126.15V126a5.82,5.82,0,0,1,6.15-6c3.11,0,5.78,1.79,5.78,5.87v1h-8a2.27,2.27,0,0,0,2.37,2.37c1.29,0,1.83-.59,2-1.35h3.65c-.34,2.56-2.32,4-5.76,4S38.54,129.86,38.54,126.15Zm8.15-1.44c-.06-1.37-.74-2.13-2-2.13a2.16,2.16,0,0,0-2.17,2.13Z" fill="#fff"/><path d="M51.93,115.32H55.8v16.37H51.93Z" fill="#fff"/><path d="M57.89,120.32h3.9V122a4,4,0,0,1,3.54-2c2.65,0,4.8,2,4.8,5.9v.17C70.13,130,68,132,65.31,132A3.74,3.74,0,0,1,61.79,130v5.47h-3.9Zm8.29,5.76v-.17c0-2-.87-3-2.24-3s-2.26,1-2.26,2.93v.18c0,1.93.84,2.91,2.26,2.91S66.18,128,66.18,126.08Z" fill="#fff"/><path d="M75.42,117.23a2.15,2.15,0,1,1,2.13,2A2,2,0,0,1,75.42,117.23Zm.2,3.09h3.89v11.37H75.62Z" fill="#fff"/><path d="M80.84,128.08h3.59c.13.83.5,1.28,1.61,1.28.95,0,1.39-.37,1.39-.93s-.55-.81-2.11-1c-3-.4-4.33-1.29-4.33-3.66S83.23,120,85.86,120c2.81,0,4.76,1,5,3.68H87.36a1.26,1.26,0,0,0-1.45-1.13c-.85,0-1.29.37-1.29.89s.52.76,1.92.93c3.15.39,4.67,1.22,4.67,3.66,0,2.69-2,3.91-5.15,3.91S80.93,130.6,80.84,128.08Z" fill="#fff"/><path d="M22.57,142.07h3.89v6.82a4,4,0,0,1,3.74-2.13c2.2,0,3.72,1.37,3.72,4.29v7.39H30v-6.61c0-1.28-.5-1.91-1.63-1.91s-1.94.69-1.94,2.15v6.37H22.57Z" fill="#fff"/><path d="M35.21,152.9v-.18a5.82,5.82,0,0,1,6.15-6c3.11,0,5.79,1.79,5.79,5.87v1h-8A2.27,2.27,0,0,0,41.51,156c1.29,0,1.83-.59,2-1.35h3.66c-.35,2.56-2.33,4-5.77,4S35.21,156.61,35.21,152.9Zm8.15-1.44c-.06-1.37-.74-2.13-2-2.13a2.16,2.16,0,0,0-2.17,2.13Z" fill="#fff"/><path d="M48.5,147.07h3.89v2.26a3.56,3.56,0,0,1,3.67-2.41v3.63c-2.37-.07-3.67.67-3.67,2.5v5.39H48.5Z" fill="#fff"/><path d="M56.76,152.9v-.18a5.82,5.82,0,0,1,6.16-6c3.1,0,5.78,1.79,5.78,5.87v1h-8A2.27,2.27,0,0,0,63.07,156c1.28,0,1.82-.59,2-1.35H68.7c-.35,2.56-2.33,4-5.76,4S56.76,156.61,56.76,152.9Zm8.16-1.44c-.07-1.37-.74-2.13-2-2.13a2.17,2.17,0,0,0-2.18,2.13Z" fill="#fff"/><path d="M73.05,147.07h4.07l1.65,6.8,1.91-6.8h3.14l1.69,6.8,1.85-6.8h3.7l-3.61,11.37H83.73L82,152.09l-1.76,6.35H76.49Z" fill="#fff"/><path d="M92,144a2.15,2.15,0,1,1,2.14,2A2,2,0,0,1,92,144Zm.2,3.09h3.89v11.37H92.17Z" fill="#fff"/><path d="M98.67,154.79v-5.07H97.3v-2.65h1.37V144.7h3.9v2.37h2.24v2.65h-2.24v4.7a1,1,0,0,0,1.15,1.19,3,3,0,0,0,1.11-.19v3a8.18,8.18,0,0,1-2.16.33C100.11,158.7,98.67,157.46,98.67,154.79Z" fill="#fff"/><path d="M106.29,142.07h3.89v6.82a4,4,0,0,1,3.74-2.13c2.19,0,3.72,1.37,3.72,4.29v7.39h-3.9v-6.61c0-1.28-.5-1.91-1.63-1.91s-1.93.69-1.93,2.15v6.37h-3.89Z" fill="#fff"/><path d="M25.9,173.08h-4v-3.44H34.4v3.44h-4v12.11H25.9Z" fill="#fff"/><path d="M33.62,182c0-2.68,2.26-3.72,6.05-3.72h1.08v-.26c0-1.09-.26-1.81-1.5-1.81a1.4,1.4,0,0,0-1.54,1.35H34.06c.17-2.74,2.32-4.09,5.43-4.09s5.13,1.29,5.13,4.31v7.37H40.84v-1.33a3.72,3.72,0,0,1-3.37,1.59C35.43,185.45,33.62,184.45,33.62,182Zm7.13-.83v-.7h-1c-1.56,0-2.26.31-2.26,1.24,0,.66.43,1.07,1.35,1.07A1.71,1.71,0,0,0,40.75,181.21Z" fill="#fff"/><path d="M49.39,179.41l-3.55-5.59h4.48l1.76,3,1.72-3h4l-3.58,5.28,3.93,6.09H53.67l-2-3.39-2.07,3.39h-4Z" fill="#fff"/><path d="M63.55,169.64h5.91c4.26,0,6.24,1.89,6.24,5.2v.09c0,3.26-2.19,5-6,5H68v5.24H63.55Zm5.72,7.27c1.43,0,2.19-.68,2.19-2v-.09c0-1.33-.78-1.87-2.17-1.87H68v3.92Z" fill="#fff"/><path d="M77.05,173.82H81v2.26a3.56,3.56,0,0,1,3.67-2.41v3.63c-2.37-.07-3.67.67-3.67,2.5v5.39h-3.9Z" fill="#fff"/><path d="M85.32,179.65v-.18c0-3.65,2.72-6,6.24-6s6.2,2.24,6.2,5.85v.18c0,3.69-2.72,5.91-6.22,5.91S85.32,183.32,85.32,179.65Zm8.48-.07v-.17c0-1.92-.76-3-2.24-3s-2.26,1-2.26,2.93v.18c0,2,.76,3,2.26,3S93.8,181.47,93.8,179.58Z" fill="#fff"/><path d="M102.61,177.51v-.17c0-4.74,3.48-7.94,8.15-7.94,3.68,0,6.94,1.68,7.24,5.72h-4.41a2.48,2.48,0,0,0-2.8-2.22c-2.2,0-3.53,1.7-3.53,4.51v.17c0,2.52.94,4.48,3.63,4.48,2.18,0,3-1.11,3.09-2.35h-2.91V176.6h7.31v1.91c0,4-2.59,6.94-7.62,6.94C105.48,185.45,102.61,182.17,102.61,177.51Z" fill="#fff"/><path d="M119.27,179.65v-.18c0-3.65,2.72-6,6.24-6s6.2,2.24,6.2,5.85v.18c0,3.69-2.72,5.91-6.22,5.91S119.27,183.32,119.27,179.65Zm8.48-.07v-.17c0-1.92-.76-3-2.24-3s-2.26,1-2.26,2.93v.18c0,2,.76,3,2.26,3S127.75,181.47,127.75,179.58Z" fill="#fff"/><path d="M132.45,183.23a2.17,2.17,0,0,1,2.22-2.19,2.2,2.2,0,1,1,0,4.39A2.17,2.17,0,0,1,132.45,183.23Z" fill="#fff"/><path d="M22.81,205.63v-9.24h4.46v9.05c0,2.19.54,3.26,2.43,3.26s2.44-1,2.44-3.33v-9h4.5v9.18c0,4.52-2.65,6.63-6.94,6.63S22.81,210,22.81,205.63Z" fill="#fff"/><path d="M38.75,200.57h3.9v1.69a4,4,0,0,1,3.54-2c2.65,0,4.81,2,4.81,5.9v.17c0,3.91-2.16,5.87-4.83,5.87a3.74,3.74,0,0,1-3.52-1.93v5.47h-3.9ZM47,206.33v-.17c0-2-.87-3-2.24-3s-2.26,1-2.26,2.93v.18c0,1.93.84,2.91,2.26,2.91S47,208.2,47,206.33Z" fill="#fff"/><path d="M52.52,195.57h3.87v16.37H52.52Z" fill="#fff"/><path d="M57.87,206.4v-.18c0-3.65,2.72-6,6.24-6s6.2,2.24,6.2,5.85v.18c0,3.69-2.72,5.91-6.22,5.91S57.87,210.07,57.87,206.4Zm8.48-.07v-.17c0-1.92-.76-3-2.24-3s-2.26,1-2.26,2.93v.18c0,2,.76,3,2.26,3S66.35,208.22,66.35,206.33Z" fill="#fff"/><path d="M71,208.79c0-2.68,2.26-3.72,6-3.72h1.09v-.26c0-1.09-.26-1.81-1.5-1.81a1.4,1.4,0,0,0-1.54,1.35H71.46c.18-2.74,2.33-4.09,5.44-4.09S82,201.55,82,204.57v7.37H78.25v-1.33a3.72,3.72,0,0,1-3.37,1.59C72.83,212.2,71,211.2,71,208.79Zm7.13-.83v-.7h-1c-1.57,0-2.26.31-2.26,1.24,0,.66.43,1.07,1.35,1.07A1.71,1.71,0,0,0,78.16,208Z" fill="#fff"/><path d="M83.36,206.37v-.17c0-3.87,2.13-5.94,4.83-5.94a3.68,3.68,0,0,1,3.5,1.92v-6.61h3.89v16.37H91.69v-1.85a3.82,3.82,0,0,1-3.54,2.11C85.51,212.2,83.36,210.31,83.36,206.37Zm8.44-.06v-.18c0-1.91-.81-2.93-2.24-2.93s-2.24,1-2.24,3v.17c0,1.91.85,2.89,2.2,2.89S91.8,208.24,91.8,206.31Z" fill="#fff"/><path d="M26.14,237.54l-4.55-10.22h4.22l2.35,6.06,2.17-6.06h3.72L28,242.49H24.25Z" fill="#fff"/><path d="M33.84,233.15V233c0-3.65,2.72-6,6.24-6s6.2,2.24,6.2,5.85V233c0,3.69-2.72,5.91-6.22,5.91S33.84,236.82,33.84,233.15Zm8.48-.07v-.17c0-1.92-.76-3-2.24-3s-2.26,1-2.26,2.93V233c0,2,.76,3,2.26,3S42.32,235,42.32,233.08Z" fill="#fff"/><path d="M47.56,234.73v-7.41h3.89v6.78c0,1.28.5,1.92,1.61,1.92s1.94-.7,1.94-2.16v-6.54h3.89v11.37H55v-1.76a3.75,3.75,0,0,1-3.61,2C49.19,239,47.56,237.6,47.56,234.73Z" fill="#fff"/><path d="M60.87,227.32h3.89v2.26a3.58,3.58,0,0,1,3.68-2.41v3.63c-2.37-.07-3.68.67-3.68,2.5v5.39H60.87Z" fill="#fff"/><path d="M73.25,233.12V233c0-3.87,2.13-5.94,4.83-5.94a3.69,3.69,0,0,1,3.5,1.92v-6.61h3.89v16.37H81.58v-1.85A3.83,3.83,0,0,1,78,239C75.4,239,73.25,237.06,73.25,233.12Zm8.43-.06v-.18c0-1.91-.8-2.93-2.24-2.93s-2.23,1-2.23,3v.17c0,1.91.84,2.89,2.19,2.89S81.68,235,81.68,233.06Z" fill="#fff"/><path d="M86.84,233.15V233c0-3.65,2.72-6,6.24-6s6.2,2.24,6.2,5.85V233c0,3.69-2.72,5.91-6.22,5.91S86.84,236.82,86.84,233.15Zm8.48-.07v-.17c0-1.92-.76-3-2.24-3s-2.26,1-2.26,2.93V233c0,2,.76,3,2.26,3S95.32,235,95.32,233.08Z" fill="#fff"/><path d="M100,233.15V233a5.73,5.73,0,0,1,6.07-6c2.78,0,5.35,1.22,5.57,4.68H108A1.67,1.67,0,0,0,106.2,230c-1.37,0-2.18,1-2.18,2.89v.17c0,2,.76,3,2.24,3a1.89,1.89,0,0,0,2-1.89h3.5c-.11,2.87-2,4.74-5.72,4.74C102.63,239,100,237,100,233.15Z" fill="#fff"/><path d="M112.4,235.08H116c.13.83.5,1.28,1.6,1.28s1.4-.37,1.4-.93-.55-.81-2.11-1c-3-.4-4.33-1.29-4.33-3.66,0-2.52,2.24-3.74,4.87-3.74,2.81,0,4.76,1,5,3.68h-3.52a1.27,1.27,0,0,0-1.46-1.13c-.84,0-1.28.37-1.28.89s.52.76,1.91.93c3.16.39,4.68,1.22,4.68,3.66,0,2.69-2,3.91-5.15,3.91S112.48,237.6,112.4,235.08Z" fill="#fff"/><path d="M23.16,256.72H21.72v-2.65h1.44v-1c0-2.83,1.76-4.18,4.46-4.18a7,7,0,0,1,1.78.24V252a3.48,3.48,0,0,0-1.07-.15,1.14,1.14,0,0,0-1.3,1.24v1h2.3v2.65H27v8.72H23.16Z" fill="#fff"/><path d="M29.64,259.9v-.18c0-3.65,2.72-6,6.24-6s6.2,2.24,6.2,5.85v.18c0,3.69-2.72,5.91-6.22,5.91S29.64,263.57,29.64,259.9Zm8.48-.07v-.17c0-1.92-.76-3-2.24-3s-2.26,1-2.26,2.93v.18c0,1.95.76,3,2.26,3S38.12,261.72,38.12,259.83Z" fill="#fff"/><path d="M43.45,254.07h3.89v2.26A3.58,3.58,0,0,1,51,253.92v3.63c-2.37-.07-3.68.67-3.68,2.5v5.39H43.45Z" fill="#fff"/><path d="M55.78,259.9v-.18a5.82,5.82,0,0,1,6.16-6c3.11,0,5.78,1.79,5.78,5.87v1h-8A2.27,2.27,0,0,0,62.09,263c1.28,0,1.83-.59,2-1.35h3.65c-.35,2.56-2.33,4-5.76,4S55.78,263.61,55.78,259.9Zm8.16-1.44c-.07-1.37-.74-2.13-2-2.13a2.17,2.17,0,0,0-2.18,2.13Z" fill="#fff"/><path d="M71.33,259.66l-3.54-5.59h4.48l1.76,3,1.72-3h4l-3.59,5.28,3.94,6.09H75.62l-2-3.39-2.06,3.39h-4Z" fill="#fff"/><path d="M81.19,254.07h3.89v1.69a4,4,0,0,1,3.54-2c2.66,0,4.81,2,4.81,5.9v.17c0,3.91-2.15,5.87-4.83,5.87a3.74,3.74,0,0,1-3.52-1.93v5.47H81.19Zm8.28,5.76v-.17c0-2-.87-3-2.24-3s-2.26,1-2.26,2.93v.18c0,1.93.85,2.91,2.26,2.91S89.47,261.7,89.47,259.83Z" fill="#fff"/><path d="M94.24,259.9v-.18a5.82,5.82,0,0,1,6.15-6c3.11,0,5.78,1.79,5.78,5.87v1h-8a2.27,2.27,0,0,0,2.37,2.37c1.29,0,1.83-.59,2-1.35h3.65c-.34,2.56-2.32,4-5.76,4S94.24,263.61,94.24,259.9Zm8.15-1.44c-.06-1.37-.74-2.13-2-2.13a2.16,2.16,0,0,0-2.17,2.13Z" fill="#fff"/><path d="M107.53,254.07h3.89v2.26a3.56,3.56,0,0,1,3.67-2.41v3.63c-2.37-.07-3.67.67-3.67,2.5v5.39h-3.89Z" fill="#fff"/><path d="M117.2,261.79v-5.07h-1.37v-2.65h1.37V251.7h3.9v2.37h2.24v2.65H121.1v4.7a1,1,0,0,0,1.15,1.19,3,3,0,0,0,1.11-.19v2.95a8.16,8.16,0,0,1-2.15.33C118.64,265.7,117.2,264.46,117.2,261.79Z" fill="#fff"/><path d="M23.09,288.54v-5.07H21.72v-2.65h1.37v-2.37H27v2.37h2.24v2.65H27v4.7a1,1,0,0,0,1.15,1.19,3,3,0,0,0,1.11-.19v2.95a8.18,8.18,0,0,1-2.16.33C24.53,292.45,23.09,291.21,23.09,288.54Z" fill="#fff"/><path d="M30.1,289c0-2.68,2.26-3.72,6-3.72h1.09v-.26c0-1.09-.26-1.81-1.5-1.81a1.4,1.4,0,0,0-1.55,1.35H30.53c.18-2.74,2.33-4.09,5.44-4.09s5.13,1.29,5.13,4.31v7.37H37.32v-1.33A3.74,3.74,0,0,1,34,292.45C31.9,292.45,30.1,291.45,30.1,289Zm7.13-.83v-.7h-1c-1.57,0-2.26.31-2.26,1.24,0,.66.43,1.07,1.34,1.07C36.4,289.82,37.23,289.19,37.23,288.21Z" fill="#fff"/><path d="M45.86,286.41l-3.54-5.59H46.8l1.76,3,1.72-3h4l-3.59,5.28,3.94,6.09H50.15l-2-3.39-2.07,3.39h-4Z" fill="#fff"/><path d="M59.68,280.82h3.89v1.69a4,4,0,0,1,3.54-2c2.66,0,4.81,2,4.81,5.9v.17c0,3.91-2.15,5.87-4.83,5.87a3.74,3.74,0,0,1-3.52-1.93V296H59.68ZM68,286.58v-.17c0-2-.87-3-2.24-3s-2.26,1-2.26,2.93v.18c0,1.93.85,2.91,2.26,2.91S68,288.45,68,286.58Z" fill="#fff"/><path d="M73.33,280.82h3.9v2.26a3.56,3.56,0,0,1,3.67-2.41v3.63c-2.37-.07-3.67.67-3.67,2.5v5.39h-3.9Z" fill="#fff"/><path d="M81.6,286.65v-.18a5.82,5.82,0,0,1,6.15-6c3.11,0,5.79,1.79,5.79,5.87v1h-8a2.26,2.26,0,0,0,2.37,2.37c1.28,0,1.82-.59,2-1.35h3.66c-.35,2.56-2.33,4-5.76,4S81.6,290.36,81.6,286.65Zm8.15-1.44c-.06-1.37-.74-2.13-2-2.13a2.16,2.16,0,0,0-2.17,2.13Z" fill="#fff"/><path d="M94.89,280.82h3.89v1.69a4,4,0,0,1,3.55-2c2.65,0,4.8,2,4.8,5.9v.17c0,3.91-2.15,5.87-4.83,5.87a3.76,3.76,0,0,1-3.52-1.93V296H94.89Zm8.28,5.76v-.17c0-2-.87-3-2.24-3s-2.26,1-2.26,2.93v.18c0,1.93.85,2.91,2.26,2.91S103.17,288.45,103.17,286.58Z" fill="#fff"/><path d="M108.11,290.23a2.17,2.17,0,0,1,2.22-2.19,2.2,2.2,0,1,1,0,4.39A2.17,2.17,0,0,1,108.11,290.23Z" fill="#fff"/></g><g id="rect"><rect width="160" height="600" fill="none"/></g></g></g></g></svg>